<?xml version="1.0" encoding="UTF-8" standalone="no"?>
<!-- Created with Inkscape (http://www.inkscape.org/) -->

<svg
   width="8.0113955mm"
   height="6.9777174mm"
   viewBox="0 0 8.0113955 6.9777174"
   version="1.1"
   id="svg3641"
   inkscape:version="1.1.2 (0a00cf5339, 2022-02-04)"
   sodipodi:docname="z4.svg"
   xmlns:inkscape="http://www.inkscape.org/namespaces/inkscape"
   xmlns:sodipodi="http://sodipodi.sourceforge.net/DTD/sodipodi-0.dtd"
   xmlns="http://www.w3.org/2000/svg"
   xmlns:svg="http://www.w3.org/2000/svg">
  <sodipodi:namedview
     id="namedview3643"
     pagecolor="#ffffff"
     bordercolor="#666666"
     borderopacity="1.0"
     inkscape:pageshadow="2"
     inkscape:pageopacity="0.0"
     inkscape:pagecheckerboard="0"
     inkscape:document-units="mm"
     showgrid="false"
     inkscape:zoom="0.64052329"
     inkscape:cx="-43.714258"
     inkscape:cy="455.09665"
     inkscape:window-width="2560"
     inkscape:window-height="1376"
     inkscape:window-x="0"
     inkscape:window-y="0"
     inkscape:window-maximized="1"
     inkscape:current-layer="layer1" />
  <defs
     id="defs3638" />
  <g
     inkscape:label="Layer 1"
     inkscape:groupmode="layer"
     id="layer1"
     transform="translate(-116.61143,-27.904768)">
    <path
       d="m 117.47465,31.504733 c -0.006,-0.03369 -0.0173,-0.04804 -0.046,-0.06111 -0.0222,-0.0099 -0.092,-0.03443 -0.0861,0.02025 l -0.0166,-0.01658 c -0.005,0.0014 -0.009,0.0021 -0.0138,0.0021 -0.0166,0.04951 -0.0123,0.09405 -0.0229,0.14375 -0.007,0.03164 -0.0236,0.06755 -0.0138,0.102704 0.018,0.06184 0.12887,0.03608 0.15978,-7.05e-4 0.0374,-0.04325 0.051,-0.128104 0.0394,-0.190684 m 0.30995,0.516283 c -0.0733,0.03461 -0.14672,0.06479 -0.21921,0.102151 -0.0455,0.02448 -0.0727,0.04307 -0.0749,0.09277 0,0.04601 0,0.09277 0,0.138779 0,0.05816 0,0.09056 -0.0258,0.143013 -0.0275,0.05816 -0.044,0.120008 -0.0762,0.175408 -0.0109,0.01877 -0.0222,0.03387 -0.0317,0.05172 -0.005,0.0079 -0.0116,0.03239 -0.018,0.03883 -0.0324,0.03461 -0.0539,-0.0086 -0.0718,-0.04086 -0.046,-0.08062 -0.092,-0.147429 -0.11007,-0.23725 -0.01,-0.04602 -0.0109,-0.0935 -0.0208,-0.138779 -0.007,-0.03238 -0.0194,-0.06332 -0.0229,-0.09645 -0.006,-0.04675 -0.006,-0.107121 -0.0346,-0.148717 -0.0113,-0.01658 -0.0346,-0.02522 -0.049,-0.04104 -0.0159,-0.01655 -0.025,-0.03589 -0.0366,-0.05466 -0.0201,-0.03094 -0.0532,-0.05688 -0.0705,-0.08835 -0.0265,-0.05043 -0.0265,-0.106571 -0.0258,-0.162521 0,-0.04178 0.0106,-0.04675 -0.0258,-0.07197 -0.0359,-0.02448 -0.0849,-0.03313 -0.1143,-0.06755 -0.031,-0.03737 -0.0705,-0.109333 -0.0769,-0.155345 -0.004,-0.02007 0.005,-0.0381 0,-0.05816 -0.005,-0.01803 -0.0173,-0.04675 -0.0254,-0.06626 -0.0106,-0.0302 -0.0138,-0.04877 -0.0201,-0.07822 -0.005,-0.01877 -0.0138,-0.02963 -0.018,-0.04822 -0.006,-0.02448 0,-0.05816 0,-0.08412 0,-0.03461 -0.018,-0.151662 0.0159,-0.170437 0.031,-0.02007 0.1373,-0.0021 0.17042,-0.0021 0.0261,0 0.0618,-0.005 0.0863,0.0014 0.0229,0.0057 0.0366,0.02448 -0.008,0.0309 0,0.0052 0.004,0.01012 0.004,0.01436 0.0423,0.01012 0.0883,0.03238 0.13141,0.03681 0.044,0.0042 0.0907,-0.0079 0.13455,-0.0014 0.0339,0.0035 0.0618,0.02374 0.0942,0.03295 0.0589,0.01729 0.0992,0.03387 0.16178,0.03387 0.0473,-7.06e-4 0.0955,0 0.14376,0 0.0604,-7.06e-4 0.11504,0.01803 0.17321,0.02872 0.0618,0.01087 0.13085,-0.01069 0.1905,0.0028 0.0374,0.0086 0.0734,0.02798 0.11501,0.03443 0.0208,0.0028 0.0282,-0.0014 0.0453,0.01087 0.0159,0.0114 0.0229,0.03164 0.0403,0.04307 0.0208,0.01309 0.0489,0.03884 0.0697,0.04528 0.0187,0.0059 0.0475,-0.0021 0.0668,-0.0014 0.0254,0.0014 0.0425,0.01362 0.067,0.01785 0.0215,0.0037 0.0977,-0.01584 0.11282,0.0014 0.0145,0.01658 -0.0102,0.03884 -0.0131,0.05614 -0.004,0.02081 0,0.04381 0,0.06534 0,0.05835 0.0201,0.09645 0.0293,0.153137 0.007,0.04749 0.041,0.100679 -0.004,0.136571 -0.0293,0.02374 -0.0698,0.02173 -0.10125,0.04031 -0.0166,0.0086 -0.0254,0.03164 -0.0403,0.03883 -0.0152,0.0072 -0.0388,0.01012 -0.0539,0.0151 -0.0885,0.02872 -0.13878,0.08559 -0.20782,0.14025 -0.0359,0.02946 -0.0705,0.0554 -0.11945,0.06332 -0.0466,0.0072 -0.0933,0.0072 -0.13434,0.02723 m 0.67804,1.260429 c -0.0576,-0.01086 -0.0992,-0.03663 -0.14961,-0.06332 -0.0332,-0.01803 -0.0569,-0.04233 -0.0876,-0.06185 -0.0229,-0.01436 -0.0561,-0.01803 -0.0828,-0.02723 -0.0826,-0.0302 -0.17689,-0.03164 -0.26596,-0.03094 -0.0856,7.06e-4 -0.15459,-0.03238 -0.23725,-0.03313 -0.0661,0.04951 -0.046,0.125159 0.006,0.180379 0.0525,0.05761 0.11282,0.110801 0.16895,0.165467 0.012,0.01214 0.0279,0.02448 0.0396,0.03736 0.0215,0.02667 0.0303,0.05688 0.0482,0.08706 0.0321,0.0532 0.0861,0.08117 0.11705,0.132892 0.006,0.0086 0.0123,0.02889 0.0187,0.03607 0.0109,0.0057 0.0208,0.01214 0.0293,0.02226 0.01,0.02152 0.0187,0.0416 0.0303,0.06185 0.0433,0.06755 0.11007,0.168962 0.19915,0.148717 0.0102,-0.05816 0.0194,-0.109146 0.0194,-0.170438 0,-0.05595 0.0169,-0.112092 0.0321,-0.165283 0.0318,-0.10933 0.14965,-0.194917 0.11374,-0.319892 m 1.09202,0.508917 c -0.0102,-0.0381 -0.0467,-0.05448 -0.0841,-0.04951 -0.051,0.0072 -0.0653,0.03238 -0.0653,0.08338 l -0.0166,-0.03313 c -0.004,0.02374 -0.0152,0.04104 -0.0173,0.06626 0,0.02007 0.006,0.04601 0,0.06681 -0.004,0.01584 -0.0138,0.02374 -0.018,0.03957 -0.004,0.01436 0,0.04381 0,0.0589 0.0102,0.08559 0.11945,0.08706 0.16546,0.02522 0.0296,-0.03884 0.0328,-0.07841 0.0321,-0.124425 0,-0.04031 0.0109,-0.09552 0,-0.133074 m 0.96629,-0.115034 c -0.0328,0.02963 -0.0243,0.0935 -0.0265,0.132337 0,0.04528 -0.0166,0.07123 -0.0166,0.118717 0,0.04877 0,0.09773 0,0.147246 0,0.0705 -0.0201,0.133075 -0.0303,0.202833 -0.0116,0.08338 -0.0346,0.158842 -0.0361,0.244429 0,0.04675 0.0173,0.08264 0.0173,0.127921 0,0.0151 -0.004,0.03534 0,0.0497 0.004,0.01933 0.0131,0.02723 0.0152,0.04307 0.006,0.03313 -0.004,0.06902 0.005,0.101416 0.004,0.0086 0.0258,0.02226 0.0106,0.03534 -0.0215,0.01859 -0.0488,-0.02374 -0.0604,-0.03607 -0.0243,-0.02649 -0.0374,-0.02078 -0.0697,-0.03164 -0.056,-0.01711 -0.11504,-0.04454 -0.17318,-0.0589 -0.018,-0.005 -0.0354,-0.0014 -0.0525,-0.0065 -0.0547,-0.0151 -0.1029,-0.05614 -0.15684,-0.07344 -0.0194,-0.0057 -0.0438,-0.0151 -0.0626,-0.01859 -0.0152,-0.0037 -0.0353,0.0014 -0.0495,-0.0028 -0.031,-0.0086 -0.0611,-0.02872 -0.0913,-0.04233 -0.0381,-0.01658 -0.0662,-0.01877 -0.0749,-0.06111 -0.007,-0.03534 0,-0.07841 -0.0318,-0.105096 -0.0187,0.02374 -0.0386,-0.0151 -0.0488,-0.02723 -0.0229,-0.02723 -0.0482,-0.05098 -0.0834,-0.0589 -0.0282,-0.0072 -0.0546,-7.06e-4 -0.0826,-0.0072 -0.0332,-0.0079 -0.0526,-0.01309 -0.0885,-0.01309 -0.12718,0.0014 -0.25601,-0.0035 -0.37603,-0.03589 -0.0646,-0.01655 -0.10491,-0.0554 -0.16326,-0.08062 -0.0208,-0.0085 -0.0453,-0.0099 -0.0653,-0.01859 -0.0187,-0.0079 -0.0303,-0.02522 -0.0482,-0.0302 -0.0229,-0.0072 -0.0604,0 -0.0841,7.05e-4 -0.0296,7.06e-4 -0.0468,-0.0052 -0.074,-0.01235 -0.007,-0.0028 -0.018,-0.0028 -0.0275,-0.0042 -0.008,0.0094 -0.018,0.02007 -0.0303,0.03312 0,-0.01658 0.004,-0.0302 0.006,-0.04325 -0.004,-0.0035 -0.007,-0.0099 -0.006,-0.01859 0.004,-0.01235 0.0138,-0.023 0.025,-0.0302 0.0194,-0.04896 0.0353,-0.09792 0.049,-0.147433 0.0106,-0.03662 0.0208,-0.07123 0.0328,-0.109329 0.0131,-0.04031 0.0201,-0.0705 0.0289,-0.110067 0.006,-0.0302 0.025,-0.06828 0.0296,-0.103441 0.004,-0.01584 -0.005,-0.03387 0,-0.0497 0.004,-0.01785 0.0152,-0.02575 0.0173,-0.0473 0.004,-0.03461 -0.0102,-0.07565 0,-0.109332 0.012,-0.05098 0.0532,-0.0086 0.0869,7.05e-4 0.10438,0.0302 0.2021,0.02226 0.3085,0.02505 0.0497,7.06e-4 0.0942,0.02374 0.14319,0.0309 0.0445,0.0079 0.0883,0.0059 0.13434,0.0151 0.0332,0.0059 0.0656,-0.0028 0.0985,0.0014 0.0591,0.0065 0.10784,0.04601 0.17042,0.05117 0.0561,0.005 0.10143,-7.06e-4 0.15533,0.01859 0.0438,0.01658 0.0906,0.01436 0.14157,0.01436 h 0.0985 c 0.0381,0 0.0576,0.01012 0.0907,0.01729 0.0359,0.0079 0.0782,-0.0079 0.11504,7.06e-4 0.0159,0.0037 0.0215,0.01362 0.0416,0.0151 0.0222,0.0028 0.0374,0.0028 0.0584,0.0086 0.0769,0.01933 0.16379,0.01933 0.23283,0.05743 m 1.96074,-2.309375 c -0.0317,-0.01362 -0.0641,-0.0014 -0.0848,0.02025 -0.0411,0.04031 -0.0712,0.173934 -0.0512,0.222158 0.0361,0.08632 0.13526,0.01362 0.16031,-0.03736 0.0229,-0.0497 0.0425,-0.176883 -0.0243,-0.205042 m 0.62173,0.97293 c -0.006,0.02872 0,0.04877 -0.0106,0.07546 -0.0102,0.02374 -0.0296,0.04951 -0.0446,0.06976 -0.0296,0.03884 -0.0705,0.07473 -0.0799,0.124975 -0.006,0.03755 0.0215,0.125895 -0.004,0.157554 -0.046,0.0028 -0.1029,-0.02078 -0.14816,-0.03164 -0.0279,-0.0057 -0.0569,-0.02226 -0.0814,-0.02872 -0.0339,-0.01087 -0.0696,-0.01655 -0.0992,-0.03312 -0.0495,-0.02649 -0.0861,-0.01362 -0.14153,-0.02448 -0.0438,-0.0086 -0.0893,-0.0065 -0.13159,-0.01658 -0.0215,-0.005 -0.072,-0.0085 -0.0871,-0.02007 -0.0229,-0.01729 -0.0145,-0.05245 -0.0359,-0.07252 -0.01,-0.0079 -0.0254,-0.0037 -0.0339,-0.01453 -0.0138,-0.01362 -0.01,-0.02081 -0.0123,-0.03663 -0.007,-0.04307 0,-0.09129 0,-0.134363 0,-0.03312 -0.0145,-0.04969 -0.0173,-0.08062 -0.004,-0.01933 0.004,-0.03883 -0.004,-0.0589 -0.005,-0.0151 -0.0166,-0.0267 -0.0219,-0.04104 -0.01,-0.02872 -0.008,-0.05816 -0.0194,-0.08559 -0.0138,-0.03663 -0.0339,-0.07399 -0.0482,-0.112091 -0.0495,-0.11798 -0.11356,-0.230071 -0.1682,-0.345846 -0.0325,-0.06828 -0.0683,-0.140988 -0.12573,-0.191971 -0.0208,-0.01859 -0.0433,-0.03239 -0.067,-0.04307 l 0.0913,-0.01362 c 0.0546,-0.103625 0.1222,-0.209271 0.16895,-0.315658 0.0109,-0.02374 0.007,-0.06828 0.0275,-0.0878 0.0236,-0.02226 0.0332,-0.0028 0.0539,0.0044 0.0661,0.02081 0.13659,0.01214 0.20193,0.02798 0.0467,0.01143 0.0915,0.0072 0.14026,0.0079 0.0396,7.06e-4 0.0747,0.0151 0.1143,0.01803 0.0236,0.0014 0.0453,-0.0037 0.0683,0.0021 0.0777,0.02099 0.15903,0.04822 0.24168,0.04675 0.0353,0 0.0863,-0.01362 0.10344,0.02596 0.008,0.01729 0,0.05319 0,0.07325 0,0.02522 0.007,0.03239 0.013,0.05246 0.006,0.02099 0,0.04104 0.004,0.06258 0.004,0.02872 0.0215,0.04178 0.0346,0.06553 0.0131,0.02505 0.0113,0.05319 0.0194,0.07896 0.005,0.0151 0.0187,0.03681 0.0254,0.05393 0.0159,0.04325 0.051,0.07841 0.0661,0.118716 0.0229,0.0589 0.0332,0.118534 0.0489,0.179091 0.0113,0.03865 0.0431,0.09129 0.0388,0.131417 -0.004,0.02667 -0.0254,0.05761 -0.0388,0.08209 -0.0138,0.02723 -0.0187,0.05098 -0.0286,0.0797 -0.0116,0.03387 -0.0403,0.06184 -0.0339,0.10215 0.006,0.02723 0.0279,0.04675 0.0332,0.07325 0.006,0.0302 -0.009,0.04675 -0.0138,0.07491 m 0,1.386141 c 0.004,-7.05e-4 0.009,-0.0014 0.0138,-0.0014 0.004,-0.0079 0.004,-0.01436 0.005,-0.02226 -0.008,-7.06e-4 -0.0152,0.005 -0.0187,0.02374 m -2.28138,-0.429225 c 0.0222,-0.02078 0.0339,-0.0497 0.0532,-0.07344 0.0236,-0.02797 0.069,-0.05393 0.10068,-0.0762 0.0366,-0.02723 0.0554,-0.05522 0.0806,-0.09056 0.0473,-0.06755 0.10637,-0.1316 0.16528,-0.189025 -0.0611,0.03443 -0.0878,0.0114 -0.12792,-0.0037 -0.031,-0.01069 -0.0611,-0.02724 -0.095,-0.03736 -0.074,-0.02226 -0.16898,-0.0086 -0.24736,-0.0086 -0.11854,0 -0.23506,-0.01584 -0.35507,-0.01584 -0.0418,0 -0.0965,0.0086 -0.13731,-0.0021 -0.0324,-0.0079 -0.0769,-0.02889 -0.11006,-0.04325 -0.0977,-0.0438 -0.2365,-0.02226 -0.34657,-0.02152 -0.0173,0 -0.0502,0.0072 -0.0668,-0.0014 -0.018,-0.01069 -0.0215,-0.03514 -0.0396,-0.04877 -0.0208,-0.01436 -0.0418,-0.01379 -0.0655,-0.0151 -0.0525,-0.0028 -0.10343,-0.0094 -0.15441,-0.01453 -0.0261,-0.0028 -0.0656,-0.01859 -0.0863,-0.01143 -0.007,0.0021 -0.0194,0.02007 -0.0243,0.02596 -0.0201,0.02007 -0.0381,0.0416 -0.0574,0.0624 -0.044,0.04399 -0.11373,0.07694 -0.17339,0.08632 -0.0332,0.0052 -0.0339,-0.0014 -0.0574,0.02741 -0.0208,0.02505 -0.0403,0.03939 -0.0677,0.05964 -0.0335,0.02374 -0.0762,0.0416 -0.10637,0.07123 -0.0318,0.0302 -0.0639,0.06184 -0.0906,0.097 -0.018,0.02448 -0.069,0.05393 -0.0797,0.07914 -0.0289,0.06755 0.22066,0.108413 0.24864,0.115038 0.0339,0.0079 0.0626,0.0057 0.0943,0.01069 0.031,0.0052 0.0574,0.02596 0.0883,0.03164 0.0282,0.0057 0.0561,0 0.0841,0.0044 0.0215,0.0042 0.0433,0.01214 0.0648,0.01711 0.12442,0.02596 0.25308,0.04675 0.38174,0.04749 0.0532,0 0.0791,0.0065 0.12661,0.02007 0.0328,0.0094 0.069,0.01951 0.10269,0.02596 0.0525,0.01013 0.1064,-0.0028 0.15829,0.0065 0.048,0.0094 0.0869,0.01362 0.13586,0.01362 0.0236,0 0.0574,-0.0072 0.0804,-0.0021 0.0222,0.0057 0.036,0.02501 0.0569,0.03295 0.0418,0.01877 0.0878,0.02448 0.13084,0.03608 0.0318,0.0094 0.0411,0.02723 0.0713,-0.0037 0.0532,-0.05669 0.11574,-0.106387 0.18256,-0.150191 0.0279,-0.01877 0.0574,-0.0381 0.0819,-0.06185 m 3.79984,-2.918421 c 0.007,-0.09479 0,-0.196208 0,-0.290445 0,-0.112088 0.008,-0.230071 -0.0354,-0.335721 -0.0236,-0.0554 -0.0596,-0.120005 -0.0639,-0.181113 -0.004,-0.04822 -0.004,-0.09424 -0.0123,-0.143196 -0.006,-0.0302 -0.018,-0.05963 -0.0215,-0.09056 -0.004,-0.0381 0.004,-0.07841 0.004,-0.116508 -0.004,-0.05669 -0.0243,-0.09056 -0.0433,-0.140804 -0.012,-0.03461 -0.0173,-0.06976 -0.0293,-0.105097 -0.0251,-0.06755 -0.0416,-0.14872 -0.0769,-0.210562 0.007,0.06111 -0.0453,0.117246 -0.0668,0.166755 -0.0127,0.03094 -0.0145,0.07399 -0.0159,0.108595 -0.004,0.104179 0.004,0.2078 -0.008,0.311979 -0.01,0.09498 -0.0173,0.189212 -0.0254,0.284 -0.004,0.04822 -0.0159,0.09129 -0.0159,0.140254 0,0.07197 -0.0236,0.135096 -0.0342,0.204855 -0.006,0.04675 0.006,0.09571 -0.004,0.143199 -0.0113,0.07546 -0.0138,0.161784 -0.0321,0.235042 -0.007,0.02723 -0.0138,0.04454 -0.0131,0.07472 0,0.02448 0.004,0.04749 -0.004,0.0705 0,0.0042 -0.013,0.02667 -0.0152,0.03313 -0.0123,0.03514 -0.0123,0.08338 -0.0187,0.120742 -0.008,0.04602 -0.0138,0.08706 -0.0251,0.130866 -0.007,0.02649 -0.004,0.05393 -0.007,0.08117 -0.008,0.03883 -0.0194,0.08062 -0.0342,0.116508 -0.0123,0.0309 -0.0116,0.0589 -0.0187,0.09055 -0.01,0.03608 -0.0236,0.09277 -0.0416,0.125158 -0.013,0.023 -0.0353,0.03957 -0.0504,0.06479 -0.0194,0.03369 -0.046,0.05098 -0.0697,0.08117 -0.0265,0.03313 -0.0488,0.06976 -0.074,0.103442 -0.12368,0.166204 -0.2437,0.335904 -0.35945,0.508367 -0.0827,0.122953 -0.12664,0.273879 -0.17264,0.409899 -0.0243,0.07326 -0.0328,0.151663 -0.056,0.224917 -0.0152,0.04602 -0.0282,0.08559 -0.0275,0.133812 0,0.06184 0.005,0.1143 0.0166,0.172463 0.005,0.02374 0.0116,0.04178 0.0208,0.06479 0.0159,0.04031 0.0124,0.07326 0.0124,0.116509 0,0.05743 0.005,0.111354 -0.0124,0.164546 -0.0229,0.0727 -0.0162,0.135283 -0.0201,0.211483 -0.004,0.04822 -0.0159,0.08412 -0.0339,0.12645 -0.018,0.04031 -0.008,0.07914 -0.0138,0.117242 0.0102,7.06e-4 0.0201,0.01214 0.0258,0.023 0.0138,0.02374 0.0152,0.04233 0.0208,0.06681 0.004,0.01362 0.0152,0.06184 0.0268,0.06626 0.006,0.0021 0.0495,-0.0151 0.056,-0.02025 0.0201,-0.01436 0.0361,-0.03295 0.0561,-0.04749 0.0445,-0.03295 0.0957,-0.07749 0.13434,-0.115588 0.0166,-0.01658 0.0226,-0.03387 0.0346,-0.0554 0.0243,-0.03957 0.0611,-0.06405 0.0834,-0.107121 0.0194,-0.03663 0.0482,-0.06626 0.0675,-0.102151 0.0102,-0.02007 0.0131,-0.04822 0.0229,-0.06976 0.0325,-0.06387 0.0755,-0.12645 0.11152,-0.187558 0.10142,-0.175588 0.20267,-0.350262 0.30903,-0.522721 0.0296,-0.04675 0.0663,-0.08485 0.0928,-0.133812 0.0116,-0.02152 0.0229,-0.04307 0.0368,-0.06387 0.0258,-0.04325 0.0559,-0.08559 0.0861,-0.125896 0.0734,-0.09774 0.15039,-0.189763 0.21573,-0.291916 0.0569,-0.08908 0.10435,-0.1351 0.10287,-0.243692 0,-0.07344 0,-0.141725 -0.0138,-0.214246 -0.0201,-0.115034 0,-0.235962 -0.0159,-0.352284 -0.0138,-0.09847 -0.005,-0.202833 -0.005,-0.302778 0,-0.097 -0.006,-0.196205 0,-0.293938 0.005,-0.07638 0.0446,-0.15185 0.0504,-0.229521 m -3.04356,3.546059 c -0.0481,-0.04031 -0.0876,-0.106384 -0.10566,-0.166021 -0.0106,-0.0381 -0.0296,-0.06976 -0.0445,-0.107121 -0.018,-0.04675 -0.0286,-0.08632 -0.0381,-0.136754 -0.009,-0.05025 -0.004,-0.101233 -0.0201,-0.153138 -0.0131,-0.04454 -0.0296,-0.08835 -0.049,-0.130129 -0.0159,-0.03443 -0.0517,-0.0611 -0.0626,-0.09994 -0.0102,-0.03221 0.0109,-0.08412 -0.0159,-0.109146 -0.0409,0.02081 -0.0646,0.09129 -0.0876,0.127184 -0.0325,0.05098 -0.0663,0.103625 -0.10584,0.149638 -0.031,0.03517 -0.0646,0.0589 -0.1005,0.08485 -0.0251,0.01785 -0.0769,0.0416 -0.0769,0.07473 -0.0482,0.0028 -0.0749,0.08632 -0.10364,0.11927 -0.0303,0.03461 -0.072,0.05466 -0.0906,0.08209 0.005,0.02431 -0.0138,0.03939 -0.018,0.06166 -0.004,0.02025 0,0.04822 0,0.06976 v 0.776541 c 0,0.07767 -0.0187,0.184796 0.004,0.258788 0.0863,-0.05467 0.11854,-0.179642 0.19124,-0.242959 0.0411,-0.03514 0.10217,-0.07473 0.1524,-0.09847 0.0279,-0.01288 0.046,-0.03313 0.0733,-0.0497 0.0433,-0.02723 0.0979,-0.03663 0.13306,-0.07473 0.0279,-0.0302 0.0504,-0.06682 0.0762,-0.09847 0.0173,-0.02081 0.0418,-0.04178 0.0547,-0.06608 0.01,-0.01877 0.0127,-0.03461 0.0261,-0.05117 0.0374,-0.04877 0.0913,-0.08761 0.1329,-0.132154 0.0275,-0.02889 0.044,-0.06332 0.0755,-0.08853 m 0.55216,-0.627638 c -0.01,-0.04031 -0.0631,-0.05963 -0.1005,-0.04601 -0.0497,0.01729 -0.0526,0.05466 -0.0648,0.097 -0.007,0.02099 -0.0166,0.01951 -0.0145,0.04325 0,0.0057 0.006,0.01637 0.0138,0.02649 -0.004,0.06903 -0.0589,0.176146 0.049,0.176146 0.0467,0 0.0539,-0.005 0.0705,-0.04454 0.009,-0.02226 0.0106,-0.02797 0.012,-0.05393 0,-0.02596 0.0138,-0.04178 0.018,-0.06608 0.004,-0.02226 -0.004,-0.04325 0.004,-0.067 0.006,-0.02152 0.0212,-0.04012 0.0145,-0.06534 m 0.77579,0.625429 c 0.0116,0.04896 0.0289,0.107121 0.0591,0.147429 -0.0374,0.0057 -0.0792,0.03884 -0.11006,0.06037 -0.0582,0.04105 -0.0131,0.09056 -0.0411,0.148167 -0.0279,0.0589 -0.0985,0.07841 -0.15734,0.09056 -0.10068,0.023 -0.2021,0.03884 -0.30353,0.05761 -0.0718,0.01214 -0.13931,0.01436 -0.20704,0.0416 -0.0532,0.02152 -0.0985,0.02798 -0.15738,0.03589 -0.0152,0.0021 -0.051,0.01584 -0.0668,0.01231 -0.0243,-0.0065 -0.01,-0.01362 -0.0275,-0.03238 -0.0359,-0.03663 -0.11927,-0.0086 -0.16108,0.0086 -0.0705,0.02946 -0.11281,0.08043 -0.19766,0.05614 -0.0116,-0.07197 0.0303,-0.12295 0.0611,-0.182771 0.046,-0.09258 0.051,-0.203383 0.0999,-0.294675 0.0279,-0.05246 0.0733,-0.120742 0.0834,-0.181113 0.0102,-0.06056 -0.0254,-0.06479 -0.0675,-0.09497 -0.008,-0.0014 -0.0166,-0.0028 -0.0244,-0.0057 -0.006,-0.01379 -0.0137,-0.02671 -0.0208,-0.03957 -0.0123,-0.0151 -0.0279,-0.02078 -0.0418,-0.03313 -0.0222,-0.02152 -0.0467,-0.08485 -0.074,-0.08908 -0.0131,-0.05117 0.006,-0.06829 0.0166,-0.08264 0.0113,-0.01877 0.0243,-0.04473 0.0293,-0.06626 0.0109,-0.04601 0.0279,-0.08485 0.0374,-0.132338 0.006,-0.0309 -0.004,-0.06313 0.004,-0.09553 0.006,-0.02667 0.0145,-0.05172 0.0215,-0.07767 0.0145,-0.06258 0.0138,-0.127918 0.0431,-0.189763 0.0243,0 0.0561,0.01214 0.0791,0.02007 0.0453,0.0151 0.0712,0.02946 0.1215,0.0302 0.0569,0 0.10636,0 0.15956,0.01235 0.0532,0.01214 0.11155,0.01584 0.16327,0.03589 0.0497,0.02007 0.0648,0.07399 0.13306,0.04749 0,-0.04896 -0.0303,-0.04325 0.0243,-0.07123 0.0388,-0.01933 0.0626,-0.04178 0.0927,-0.07123 0.0219,-0.02226 0.0475,-0.04012 0.0663,-0.06534 0.0106,-0.01362 0.018,-0.03663 0.0328,-0.04749 -0.004,0.05393 0.0131,0.108592 0.0325,0.158842 0.0187,0.04749 0.0145,0.09645 0.0332,0.14025 0.0339,0.07841 0.0705,0.165287 0.11854,0.238725 0.0303,0.04601 0.0539,0.07252 0.0705,0.125712 0.0173,0.05338 0.0332,0.105096 0.0425,0.158288 0.008,0.04528 0.0152,0.09056 0.0251,0.136571 0.006,0.0302 0.004,0.06111 0.008,0.08982 m -1.65062,-2.102309 c 0.004,-0.03514 -0.0236,-0.09626 -0.0584,-0.106387 -0.11281,-0.03369 -0.14026,0.101417 -0.14079,0.180562 l -0.0159,-0.01584 c 0.006,0.02374 -0.0131,0.02797 -0.018,0.04822 -0.004,0.01933 0,0.04657 0,0.06681 0,0.04454 0,0.07914 0.0495,0.09553 0.0396,0.01379 0.0769,0.0059 0.10361,-0.02505 0.0138,-0.01729 0.0243,-0.03461 0.0332,-0.05466 0.0127,-0.02815 0.006,-0.04528 0.0113,-0.07418 0.008,-0.03737 0.031,-0.07399 0.0346,-0.115037 m 0.36939,-0.452967 c 0.0346,0.0059 0.0677,0.01527 0.1,0.02889 l -0.0138,0.0028 c -0.0668,0.03534 -0.0166,0.195654 -0.0113,0.253079 0.006,0.05982 0.0328,0.12295 0.0589,0.176879 0.0173,0.03681 0.0318,0.07767 0.0532,0.113012 0.0215,0.03443 0.0293,0.06387 0.0403,0.10565 0.0131,0.04822 0.051,0.08264 0.0639,0.126447 0.005,0.01877 0,0.03957 0.007,0.05982 0.0102,0.02946 0.0318,0.05669 0.0388,0.08761 0.004,0.01803 -0.004,0.03534 0,0.05099 0.004,0.01803 0.0152,0.03239 0.0339,0.067 -0.006,0.02152 -0.0431,0.05025 -0.0611,0.07049 -0.0145,0.01566 -0.0261,0.02797 -0.0374,0.04528 -0.0286,0.0416 -0.0519,0.08687 -0.0777,0.131417 -0.0243,0.04031 -0.0576,0.105099 -0.1108,0.09866 -0.0106,-0.0021 -0.0131,-0.01436 -0.025,-0.01732 -0.0166,-0.0044 -0.0332,0.0021 -0.0512,-0.0028 -0.0366,-0.0086 -0.0762,-0.023 -0.11575,-0.0302 -0.0272,-0.0042 -0.056,0.0037 -0.0849,-0.0021 -0.043,-0.0085 -0.0861,-0.02152 -0.12866,-0.02872 -0.0346,-0.0065 -0.0633,-0.01658 -0.0992,-0.01658 -0.0502,-0.0021 -0.097,0.0021 -0.14743,-0.0092 -0.0782,-0.01803 -0.1682,-0.0079 -0.24864,-0.0079 h -0.13236 c -0.0159,0 -0.0339,0.0021 -0.0495,0 -0.0166,-0.0021 -0.0233,-0.0094 -0.0361,-0.01379 -0.0236,-0.0065 -0.0388,-0.01143 -0.0604,-0.01933 -0.0517,-0.02081 -0.0834,0.0042 -0.0849,-0.05761 0,-0.0646 0.0475,-0.115587 0.0791,-0.172462 0.0166,-0.0302 0.0258,-0.07197 0.0403,-0.104176 0.0127,-0.02667 0.0187,-0.05467 0.0286,-0.07841 0.0258,-0.05964 0.0138,-0.122216 0.0166,-0.1905 0.004,-0.06553 0.0318,-0.132337 0.046,-0.1986 0.006,-0.0302 0.0194,-0.0589 0.0215,-0.08982 0,-0.01584 -0.005,-0.02872 0.004,-0.04528 0.004,-0.01214 0.0215,-0.02152 0.0265,-0.03663 0.01,-0.02872 0.01,-0.05043 0.0236,-0.07915 0.0145,-0.02723 0.0229,-0.04454 0.049,-0.0646 0.0438,-0.03387 0.0718,-0.0727 0.0955,-0.119454 0.0353,-0.07473 0.0885,-0.06681 0.16397,-0.06681 0.0517,0 0.10417,-0.0079 0.15589,-0.0065 0.0598,0.0021 0.11652,0.02081 0.17688,0.023 0.0447,7.05e-4 0.0885,0 0.13381,0.0035 0.0396,0.0028 0.0799,0.0065 0.11928,0.01362 m 0.80892,1.402888 c -0.006,-0.0059 -0.0648,-0.01729 -0.074,-0.01803 -0.0236,-0.0044 -0.0418,-0.0065 -0.0655,-0.01288 -0.0222,-0.0044 -0.0438,-0.01012 -0.0661,-0.01584 -0.0254,-0.0065 -0.0504,0.0021 -0.0749,-0.0028 -0.0187,-0.0042 -0.031,-0.01214 -0.0488,-0.01803 -0.01,-0.0028 -0.0215,0.0014 -0.031,-7.05e-4 -0.0102,-0.0021 -0.0102,-0.01214 -0.0201,-0.01362 -0.0454,-0.0079 -0.0526,0.02946 -0.0848,0.05245 -0.0605,0.04473 -0.15314,0.06405 -0.20282,0.127371 l 0.0339,0.03313 c 0,-0.0028 0,-0.0066 0,-0.01012 0.0554,0.01658 0.0935,0.04454 0.15314,0.04381 0.0526,-7.06e-4 0.0836,0.01655 0.13381,0.01655 0.046,-0.0014 0.0935,0 0.14027,0 0.0409,-0.0014 0.0782,0.0086 0.11853,0.01362 -0.0113,-0.01729 0.0561,-0.0819 0.0611,-0.09055 0.0145,-0.02448 0.0475,-0.08559 0.0261,-0.104179 m -0.0626,0.196942 c -0.008,0 -0.0159,-0.0014 -0.0243,-0.0021 0.004,0.0044 0.0102,0.0057 0.0243,0.0021 m -1.38042,-2.920447 0.0159,-0.03387 c 0,0.03239 0.004,0.06479 -0.004,0.09498 -0.004,0.01214 -0.012,0.02081 -0.0138,0.03663 0,0.01362 0,0.02872 0,0.04233 0,0.03884 0.004,0.06258 0.0497,0.05835 0.0328,-0.0028 0.0567,-0.01803 0.0668,-0.05043 0.008,-0.02798 0.01,-0.06111 0.0166,-0.09056 0.0106,-0.0438 0.018,-0.03589 -0.005,-0.07325 -0.0152,-0.02448 -0.0314,-0.04675 -0.0618,-0.05172 -0.0381,-0.0074 -0.0747,0.02798 -0.0661,0.06755 m -0.35522,1.00643 c -0.0502,-0.0021 -0.1005,0 -0.15165,0 0.004,0 0.008,0 0.0611,-0.06681 -0.018,-0.104913 0.0633,-0.20265 0.0663,-0.303329 0,-0.05319 0.006,-0.09129 0.0159,-0.140988 0.012,-0.06037 0.0488,-0.110617 0.0624,-0.1697 0.0152,-0.06332 0.0339,-0.09921 0.0734,-0.146695 0.0661,-0.07896 0.0468,-0.196942 0.0468,-0.295413 0,-0.07399 0.005,-0.150192 0,-0.224367 0.0208,0.02597 0.0871,0.0079 0.11723,0.01013 0.0215,0.0014 0.0366,0.01069 0.0567,0.0151 0.0318,0.0065 0.0656,0.0028 0.0992,0.0094 0.0318,0.0072 0.0618,0.005 0.092,0.0079 0.018,0.0028 0.0261,0.01143 0.041,0.01637 0.018,0.0044 0.0388,0.0094 0.0569,0.01379 0.0138,0.0035 0.0537,-0.0052 0.0631,0.0065 0.018,0.02007 0,0.125159 0.004,0.14743 0.004,0.05098 0.0215,0.104179 0.0332,0.154425 0.0215,0.09277 0.0431,0.184058 0.0755,0.275533 0.0187,0.04951 0.0416,0.09479 0.0574,0.146512 0.0208,0.06847 0.0497,0.146693 0.049,0.222159 0,0.07123 0.0495,0.181296 -0.004,0.239458 -0.0559,0.06111 -0.1301,0.108596 -0.19692,0.15608 -0.0254,0.01803 -0.0562,0.02723 -0.0804,0.04233 -0.0123,0.0066 -0.0208,0.01803 -0.0325,0.02522 -0.0366,0.02007 -0.0655,-0.01143 -0.0999,-0.02946 -0.0438,-0.02448 -0.0806,-0.05466 -0.12792,-0.07546 -0.0727,-0.03313 -0.15384,-0.02025 -0.23152,-0.02025 -0.0243,0 -0.0532,0.0044 -0.0769,-7.06e-4 -0.025,-0.0059 -0.0381,-0.01527 -0.0662,-0.01527 m 1.03678,-0.04877 c -0.0229,-0.03534 -0.0254,-0.01877 -0.0201,-0.0028 0.007,0.0014 0.0138,0.0028 0.0201,0.0028 m -2.23315,0.312712 c 0,-0.03514 0.004,-0.05172 -0.0208,-0.07841 -0.0201,-0.023 -0.0318,-0.03369 -0.0618,-0.0381 -0.0475,-0.0065 -0.0604,0.02226 -0.0992,0.03313 l 0.0504,0.01729 c -0.005,7.06e-4 -0.0102,0.0014 -0.0145,0.0021 -0.0145,0.0302 -0.004,0.08853 -0.0106,0.121662 -0.006,0.02798 -0.0194,0.06755 0,0.09129 0.0236,0.02798 0.0747,0.02152 0.0941,0 0.018,-0.01951 0.0275,-0.0497 0.0411,-0.07123 0.008,-0.01362 0.0159,-0.0094 0.0215,-0.02741 0.004,-0.0114 0,-0.0381 0,-0.05025 m 0.26395,1.163246 c 0,-0.03736 -0.0152,-0.06313 -0.0254,-0.09921 -0.01,-0.03369 -0.008,-0.06037 -0.0243,-0.09056 -0.0618,-0.118533 -0.11632,-0.257312 -0.11505,-0.39462 0,-0.08062 -0.004,-0.09497 -0.0834,-0.117243 -0.031,-0.0086 -0.0683,-0.0086 -0.0992,-0.01584 -0.0374,-0.0094 -0.0762,-0.02872 -0.11504,-0.03387 -0.0138,-0.0021 -0.0279,0.0037 -0.0416,7.06e-4 -0.0109,-0.0014 -0.0201,-0.0114 -0.0275,-0.01288 -0.0324,-0.0079 -0.0683,0.0035 -0.0999,-0.0028 -0.0318,-0.0065 -0.0445,-0.01785 -0.0784,-0.01711 h -0.0906 c -0.0574,0 -0.11578,-0.0014 -0.17321,-7.05e-4 -0.0418,0.0014 -0.0445,0.0057 -0.0497,-0.03239 -0.006,-0.04031 0.007,-0.07344 0.0166,-0.111542 0.0286,-0.118533 0.0475,-0.231358 0.0698,-0.347129 0.01,-0.04749 0.0445,-0.08633 0.0668,-0.131604 0.0138,-0.02872 0.0194,-0.04178 0.0282,-0.06976 0.01,-0.02946 0.0159,-0.05687 0.0381,-0.07915 0.0325,-0.03295 0.10986,-0.02448 0.15738,-0.02081 0.0524,0.0028 0.10213,0.01803 0.15035,0.03313 0.0547,0.01859 0.11208,0.02081 0.16824,0.0302 0.0769,0.01288 0.1603,0.0035 0.23798,0.0035 h 0.10637 c 0.0374,0 0.0633,-0.01214 0.14799,-0.04951 0,0.03736 -0.004,0.05595 0.0109,0.09552 0.0173,0.04105 0.0332,0.08209 0.046,0.124425 0.006,0.03313 0.01,0.06608 0.01,0.100679 0.006,0.03589 0.018,0.05025 0.0339,0.08485 0.0268,0.06037 0.0324,0.125713 0.0584,0.186267 0.0279,0.06681 0.0303,0.140804 0.0524,0.210562 0.008,0.02667 0.0187,0.04381 0.0208,0.07123 0.004,0.02798 0,0.05098 0.008,0.07841 0.0212,0.08835 0.0339,0.179638 0.0532,0.268908 0.0109,0.04877 0.0368,0.09258 0.0395,0.143746 0.004,0.02872 -0.007,0.06038 0,0.08835 0.007,0.03736 0.0173,0.05761 0.0166,0.09773 0,0.02099 -0.004,0.04675 0,0.067 0.005,0.02448 0.0289,0.03443 0.0152,0.06331 -0.0762,0.01859 -0.17816,0.0021 -0.25161,-0.01087 -0.0339,-0.005 -0.0554,-0.005 -0.0883,-0.01951 -0.0388,-0.01711 -0.0591,-0.01637 -0.10291,-0.01637 -0.018,0 -0.0683,0.0092 -0.0804,-0.0028 -0.0116,-0.01288 0,-0.05614 -0.004,-0.07197 m 0.52917,-1.343621 c -0.0653,-0.0072 -0.11356,-0.04325 -0.18112,-0.03387 -0.004,0.05614 0.0236,0.104176 0.0113,0.161051 -0.004,0.01803 -0.0152,0.02797 -0.0127,0.05319 0,0.02522 0.0138,0.04252 0.0328,0.03313 -0.006,0.02448 0.0219,0.05466 0.0289,0.07767 0.012,0.03295 0.0215,0.06608 0.0353,0.09773 0.008,0.01859 0.0159,0.0381 0.0268,0.0554 0.0106,0.01785 0.031,0.03221 0.0374,0.05245 0.0138,0.03957 0.0279,0.06332 0.0495,0.09921 0.0138,0.02226 0.0187,0.04822 0.0353,0.06902 0.006,0.0079 0.0187,0.01436 0.0229,0.02226 0.0138,0.02374 0.0152,0.05025 0.0286,0.07767 0.005,0.0114 0.0127,0.01013 0.0166,0.02522 0.005,0.01637 -0.004,0.03221 0.004,0.04877 0.0353,0.01305 0.0836,-0.243696 0.0964,-0.279587 0.008,-0.02374 0.004,-0.02448 0.0194,-0.04472 0.008,-0.0092 0.0166,-0.01711 0.0254,-0.02501 0.0268,-0.02522 0.0539,-0.0497 0.0791,-0.07767 0.0229,-0.02667 0.0339,-0.05761 0.0409,-0.09129 0.005,-0.01803 -0.006,-0.03663 0.004,-0.05467 0.005,-0.0094 0.0222,-0.02007 0.0303,-0.02798 0.0215,-0.02173 0.0395,-0.04325 0.0589,-0.06553 0.0296,-0.03663 0.0662,-0.05393 0.10435,-0.07915 -0.008,-0.05522 -0.15755,-0.0381 -0.19343,-0.04804 -0.0423,-0.01235 -0.0777,-0.04325 -0.11928,-0.05614 -0.0353,-0.01087 -0.069,-0.0072 -0.10509,-0.0072 -0.0611,0 -0.1143,0.02522 -0.17392,0.01803 m -3.28577,-0.858446 c 0.0519,0.02431 0.069,-0.02247 0.0856,-0.05614 0.0123,-0.02741 0.0317,-0.09056 0.005,-0.117246 -0.0453,-0.04675 -0.0742,0.02226 -0.0734,0.05688 h -0.0325 c 0,0.03238 -0.0145,0.103441 0.0152,0.116508 m -0.27315,0.507446 c 0.031,-0.05393 0.0102,-0.166021 0.0102,-0.227862 0,-0.08485 0.009,-0.155346 0.0374,-0.234305 0.007,-0.02025 0.0102,-0.03958 0.0159,-0.05835 0.008,-0.02505 0.007,-0.04528 0.012,-0.07105 0.006,-0.03608 0.0261,-0.06976 0.0332,-0.107305 0.0113,-0.06607 0.0208,-0.138595 0.0374,-0.202646 0.006,-0.02448 0.031,-0.05393 0.0325,-0.08338 0.0453,0.02226 0.092,0.05595 0.13878,0.07896 0.0342,0.01729 0.15808,0.04399 0.1717,-0.0099 0.0353,0.06608 0.0116,0.145221 0,0.209091 -0.01,0.04896 -0.0328,0.09276 -0.0335,0.145955 0,0.03534 -0.006,0.08283 0,0.11872 0.004,0.02007 0.0145,0.03662 0.0187,0.05687 0.004,0.01859 0,0.04012 0,0.05816 0,0.04233 -0.0152,0.06405 -0.0169,0.102891 0,0.01584 -0.005,0.04601 0,0.06239 0.006,0.02522 0.0366,0.04031 0.0359,0.067 0,0.01213 -0.0159,0.01859 -0.0194,0.0309 -0.005,0.01859 0,0.0473 0,0.06755 -0.0215,-0.04896 -0.0258,-0.04896 -0.0303,-0.04675 -0.0113,0.0381 -0.004,0.07693 0.0123,0.109329 -0.0388,0.01069 -0.0698,-0.0065 -0.10435,-0.0151 -0.0328,-0.0079 -0.0733,-0.0267 -0.10915,-0.03957 -0.049,-0.01877 -0.0799,-0.02374 -0.13162,-0.02522 -0.0346,0 -0.0799,0.02872 -0.10933,0.01362 m 6.18173,-2.690375 c 0.0431,-0.01139 0.0561,-0.0094 0.0999,0.0037 0.0388,0.01214 0.0834,0.0099 0.12368,0.02374 0.0683,0.02357 0.11356,0.08614 0.18976,0.07547 0.0339,-0.0052 0.0418,-0.023 0.0697,-0.04602 0.0318,-0.02448 0.0683,-0.03238 0.10788,-0.05319 -0.0275,-0.0044 -0.0468,-0.02448 -0.072,-0.03239 -0.0236,-0.0079 -0.0328,-0.0037 -0.0559,-0.01729 -0.0339,-0.01859 -0.0656,-0.02946 -0.1,-0.04454 -0.0698,-0.0309 -0.12516,-0.07694 -0.19565,-0.08853 -0.0438,-0.0057 -0.0913,0.0094 -0.13437,-0.0021 -0.0418,-0.01231 -0.0641,-0.01436 -0.095,0.023 -0.008,0.0086 -0.0131,0.02448 -0.0201,0.03369 -0.008,0.01087 -0.0201,0.023 -0.0289,0.03387 -0.0265,0.02798 -0.0631,0.05963 -0.10344,0.06111 l -0.0109,0.03387 c 0.0742,-0.01379 0.15039,0.01584 0.2251,-0.0044 m -1.15531,2.906829 c -0.01,0.0014 -0.0187,0.0028 -0.0275,0.0021 0.007,0.01069 0.0166,0.02649 0.0275,0.04877 0,-0.01711 0,-0.03443 0,-0.05098 m 0.92375,-2.259679 0.0504,-0.03313 c -0.018,0.07399 -0.0332,0.124421 -0.0332,0.198413 0,0.04104 -0.0152,0.109329 0.0324,0.128658 0.0755,0.03239 0.17392,-0.0473 0.1826,-0.120742 0.006,-0.04675 0,-0.09994 0,-0.146696 0,-0.03589 0.0138,-0.106387 -0.0159,-0.133625 -0.0229,-0.02025 -0.0955,-0.01235 -0.12369,-7.05e-4 -0.0396,0.0151 -0.0856,0.0646 -0.092,0.107858 m -0.80744,2.203542 c -0.0314,0.01951 -0.0755,0.04675 -0.11631,0.05614 0,-0.03443 -0.004,-0.06829 0,-0.102704 0,-0.03957 0.018,-0.06405 0.0353,-0.09865 0.0127,-0.02649 0.0123,-0.04877 0.0194,-0.07547 0.0229,-0.08411 0.071,-0.167491 0.11282,-0.2459 0.0173,-0.03443 0.031,-0.06976 0.0482,-0.103441 0.007,-0.01436 0.025,-0.03461 0.0303,-0.04896 0.008,-0.02081 0,-0.04031 0.006,-0.06184 0.01,-0.03239 0.0366,-0.04602 0.0438,-0.08338 0.005,-0.02448 0.0109,-0.04951 0.0159,-0.07399 0.004,-0.01729 0,-0.03884 0.004,-0.05393 0.004,-0.01658 0.0145,-0.02448 0.018,-0.03957 0.008,-0.03094 -0.008,-0.06902 0,-0.09995 0.004,-0.01877 0.0145,-0.0309 0.0169,-0.04896 0.005,-0.023 -0.006,-0.04528 0.004,-0.06755 0.0113,-0.02872 0.0366,-0.05319 0.0502,-0.08117 0.0173,-0.03313 0.007,-0.06479 0.0159,-0.09994 0.0116,-0.04252 0.0243,-0.08706 0.0311,-0.133075 0.004,-0.01729 -0.004,-0.02946 0.004,-0.04749 0.006,-0.02078 0.0254,-0.04307 0.0346,-0.06387 0.0155,-0.03534 0.0359,-0.07491 0.0567,-0.110804 0.018,-0.0309 0.041,-0.05816 0.0554,-0.09129 0.006,-0.01436 0.006,-0.03164 0.0152,-0.04822 0.0173,-0.03295 0.0166,-0.05245 0.0166,-0.09202 v -0.257316 c 0,-0.08706 -0.004,-0.171172 0.0279,-0.25308 0.0366,-0.09497 0.10213,-0.175404 0.15385,-0.261729 0.0229,-0.03884 0.0359,-0.08485 0.0618,-0.120742 0.0159,-0.02099 0.0332,-0.03239 0.0582,-0.03736 v 0 l -0.008,0.02798 c 0,7.05e-4 0.005,0.0028 0.006,0.0035 0.0201,0.01453 0.0381,0.04399 0.0618,0.05117 0.009,0.0028 0.0243,-0.0037 0.0342,-0.0014 0.0152,0.0037 0.0166,0.01436 0.031,0.01803 0.0589,0.0151 0.14171,-0.02946 0.19268,0.01436 0.0152,0.01214 0.018,0.03443 0.0353,0.04749 0.0346,0.02649 0.14245,0.02007 0.17833,0.02007 0.0403,7.06e-4 0.0762,-0.01584 0.074,0.03165 0,0.02226 -0.0152,0.04675 -0.0173,0.06976 -0.004,0.03295 -0.0123,0.0611 -0.0166,0.09405 -0.0124,0.07841 0,0.168417 0,0.249584 0,0.14375 0,0.286946 -0.0124,0.430695 -0.005,0.04878 -0.005,0.097 -0.004,0.145959 0,0.0438 -0.0109,0.10565 0.007,0.146695 0.012,0.02649 0.0236,0.023 0.0272,0.05246 0.004,0.0302 0.006,0.05742 0.0116,0.08835 0.008,0.04896 0.004,0.09847 0.004,0.148166 0,0.115034 0,0.229334 0,0.345109 0,0.191971 0.0346,0.379525 0.0332,0.5715 0,0.08411 -0.0173,0.183504 0.004,0.266146 0.009,0.03589 0.0303,0.08908 0.0272,0.127183 -0.0222,-0.005 -0.0187,-0.01803 -0.0339,-0.02872 -0.0159,-0.01012 -0.0254,-0.01231 -0.0433,-0.02025 -0.0208,-0.0085 -0.0446,-0.02282 -0.0653,-0.03369 -0.0943,-0.04528 -0.22808,0.03094 -0.31348,-0.04105 -0.0381,-0.0309 -0.0764,-0.0589 -0.11501,-0.09056 -0.0655,-0.05319 -0.18482,-0.05687 -0.26246,-0.03736 -0.0777,0.02007 -0.14743,0.02522 -0.22733,0.02522 h -0.21054 c -0.0243,0 -0.0648,-0.0079 -0.0863,0.0014 -0.0194,0.0079 -0.0339,0.03239 -0.0467,0.04749 -0.0236,0.02815 -0.0482,0.0554 -0.0784,0.07546 m 1.55084,-2.533558 v 0.107121 c 0,0.07326 0.008,0.153137 0.0361,0.218479 0.008,0.02025 0.0236,0.03736 0.0321,0.06037 0.006,0.01803 0.0109,0.02963 0.0145,0.04822 0.0102,0.05172 0.0226,0.10565 0.0173,0.159579 -0.004,0.0309 -0.0166,0.05908 -0.018,0.09 -0.004,0.03443 0,0.07105 0,0.10565 v 0.390387 c 0,0.08117 0.0131,0.179088 -0.004,0.259521 -0.0194,0.08982 -0.0131,0.18185 -0.0131,0.274613 0,0.202833 0.008,0.406217 0,0.60905 0.025,-0.0302 0.0346,-0.07123 0.0596,-0.103625 0.0286,-0.03514 0.0561,-0.06755 0.0891,-0.09921 0.0254,-0.023 0.0467,-0.05025 0.0698,-0.07399 0.0318,-0.03238 0.0806,-0.04178 0.11151,-0.07399 0.0597,-0.06479 0.0381,-0.159762 0.0698,-0.23725 0.0152,-0.03755 0.0611,-0.08779 0.0638,-0.125158 0.004,-0.04031 -0.0374,-0.0819 -0.0604,-0.10933 -0.0641,-0.07694 -0.10714,-0.173937 -0.10565,-0.273879 0,-0.07915 0,-0.158841 0,-0.238724 0,-0.04601 -0.0187,-0.08558 -0.0293,-0.129392 -0.005,-0.01803 -0.004,-0.03534 -0.007,-0.05319 -0.005,-0.02522 -0.0222,-0.04675 -0.0282,-0.07123 -0.009,-0.03313 -0.0251,-0.06829 -0.0328,-0.100683 -0.004,-0.01584 0,-0.03239 -0.004,-0.04878 -0.005,-0.02741 -0.0201,-0.04822 -0.0286,-0.07344 -0.0145,-0.0438 -0.0282,-0.08908 -0.049,-0.132337 -0.0236,-0.04951 -0.0403,-0.103442 -0.0554,-0.155163 -0.005,-0.01877 -0.0138,-0.02667 -0.0152,-0.05043 0,-0.01933 0,-0.0381 0,-0.05743 0,-0.08779 0,-0.176142 0.0985,-0.297621 -0.0311,0.0021 -0.0676,0.0381 -0.0985,0.05025 -0.0229,0.0072 -0.1,0.01877 -0.11356,0.03514 -0.0131,0.01729 -0.004,0.07491 -0.004,0.09645 m -5.43387,2.117404 c 0.0539,0.08264 0.14742,-0.0065 0.17169,-0.06111 0.018,-0.04031 0.0243,-0.07123 0.0325,-0.115771 0.008,-0.04399 0.0353,-0.0762 -0.008,-0.109333 -0.031,-0.023 -0.0777,-0.02081 -0.10862,-0.0086 -0.051,0.02081 -0.0488,0.04252 -0.0495,0.09203 v -0.01729 c -0.004,0.02596 -0.0222,0.04325 -0.0293,0.06626 -0.005,0.01785 0,0.03295 -0.004,0.05025 -0.007,0.04105 -0.0318,0.06405 -0.006,0.103624 m -0.75576,0.2667 c 0.008,-0.0302 0.0475,-0.06258 0.0698,-0.08909 0.0215,-0.02596 0.0475,-0.04822 0.0633,-0.07693 0.018,-0.0309 0.0318,-0.06626 0.0475,-0.09866 0.051,-0.102704 0.1373,-0.176145 0.19194,-0.279587 0.0152,-0.02946 0.0335,-0.0554 0.051,-0.08338 0.0102,-0.01584 0.0194,-0.03238 0.0293,-0.04675 0.01,-0.01436 0.0261,-0.0302 0.0339,-0.04325 0.0131,-0.02226 0.0236,-0.03939 0.0409,-0.05964 0.007,-0.0086 0.0324,-0.04528 -0.0152,-0.104913 0.0268,-0.0079 0.0611,0.02448 0.0892,0.02946 0.0475,0.0079 0.0819,0.005 0.1257,0.01658 0.0261,0.0065 0.0547,0.0042 0.0814,0.0037 0.0388,-7.05e-4 0.064,0.01069 0.10065,0.01637 0.025,0.0052 0.0559,-7.05e-4 0.0819,-7.05e-4 0.0366,7.05e-4 0.0641,0.01305 0.1,0.01803 0.0261,0.0028 0.0554,-0.0065 0.0812,-0.0014 0.0289,0.0044 0.0547,0.02226 0.0828,0.02946 0.10566,0.0267 0.2056,-0.01563 0.3048,-0.02946 0.0574,-0.0086 0.1106,-0.02579 0.16528,-0.04878 0.0219,-0.0094 0.0475,-0.02596 0.0677,-0.03164 0.012,-0.0037 0.0236,0 0.0359,-0.0052 0.0113,-0.0042 0.018,-0.02007 0.0339,-0.02356 0.0123,0.03663 0.0102,0.07326 0.0226,0.109883 0.0138,0.03957 0.0495,0.0762 0.0683,0.112829 0.0353,0.06553 0.0883,0.134546 0.10199,0.208537 0.0116,0.06258 0.0418,0.140251 0.0697,0.194917 0.0123,0.02374 0.0286,0.04823 0.041,0.07325 0.006,0.01309 0.0215,0.02889 0.0258,0.04105 0.007,0.01933 0.004,0.04031 0.0145,0.05963 -0.0229,0.01012 -0.0626,0.0021 -0.0863,0.0021 -0.0388,0 -0.0576,0.06332 -0.0885,0.07694 -0.0222,0.01069 -0.0481,-0.05098 -0.0676,-0.04381 -0.0222,0.0072 -0.0416,0.02649 -0.0653,0.03736 -0.1136,0.05319 -0.20507,0.08411 -0.33003,0.100679 -0.10932,0.01436 -0.0576,0.131417 -0.14594,0.187555 -0.0222,0.01362 -0.1712,0.04822 -0.19346,0.05687 -0.0279,0.0094 -0.051,-0.0052 -0.0826,-0.01087 -0.0641,-0.01069 -0.12223,-0.03238 -0.18132,-0.06185 -0.0201,-0.0099 -0.0335,-0.02649 -0.0567,-0.02946 -0.0433,-0.0072 -0.0871,-0.005 -0.13088,-0.01584 -0.0339,-0.0079 -0.0668,-0.02872 -0.0999,-0.03387 -0.0268,-0.005 -0.0569,0.0059 -0.0827,0.0014 -0.0453,-0.0079 -0.0863,-0.03164 -0.13232,-0.03369 -0.0762,-0.0052 -0.13731,-0.01305 -0.20486,-0.04601 -0.0468,-0.023 -0.0907,-0.01951 -0.14097,-0.02025 -0.0517,0 -0.1373,0.02025 -0.11727,-0.05816 m 1.09443,-1.390558 c -0.004,0.01729 -0.005,0.02815 -0.005,0.04601 0,0.02448 -0.008,0.067 0,0.09 0.0286,0.06387 0.0935,0.01214 0.11007,-0.02741 0.012,-0.02946 0.0201,-0.0554 0.0208,-0.08706 0,-0.03295 0.005,-0.05596 -0.0166,-0.07473 -0.0346,-0.03164 -0.13307,-0.01214 -0.11578,0.04969 l 0.0173,-0.03312 c 0.006,0.02797 -0.0102,0.01803 -0.0127,0.03663 m -0.27114,0.389096 c -0.0539,0.01213 -0.11723,-0.0086 -0.16397,0.0302 -0.004,-0.03387 0.0482,-0.07418 0.0655,-0.09792 0.0194,-0.02872 0.0396,-0.06608 0.0597,-0.097 0.0497,-0.0762 0.10933,-0.137308 0.15734,-0.217188 0.0187,-0.02946 0.0339,-0.06258 0.0527,-0.09332 0.0243,-0.03755 0.048,-0.07491 0.0675,-0.115771 0.0138,-0.02889 0.0215,-0.04472 0.0403,-0.06902 0.018,-0.02173 0.051,-0.06773 0.0539,-0.09497 -0.01,0.03313 0.0445,-0.03387 0.0653,-0.05393 0.0145,-0.01436 0.0366,-0.02007 0.051,-0.03313 0.005,-0.005 0.0145,-0.02448 0.0201,-0.02649 0.0258,-0.01161 0.0303,0.01362 0.0488,0.02649 0.0201,0.0151 0.0353,0.0094 0.0504,0.03607 0.0113,0.02081 0.0222,0.04601 0.0324,0.06534 0.0215,0.04307 0.0409,0.08264 0.0618,0.125895 0.0538,0.113563 0.11064,0.225655 0.16458,0.33793 0.0243,0.04877 0.0539,0.103441 0.0826,0.148717 0.0173,0.02741 0.0569,0.105099 0.0942,0.09847 -0.0418,-0.0028 -0.11077,0.0302 -0.15166,0.04105 -0.0445,0.01161 -0.0905,0.02374 -0.12936,0.04381 -0.0957,0.04822 -0.17836,0.02889 -0.27538,-0.0028 -0.0957,-0.0309 -0.20355,-0.06479 -0.30921,-0.06553 -0.0268,0 -0.0517,7.06e-4 -0.0776,7.06e-4 -0.0261,-7.06e-4 -0.0423,0.0079 -0.0611,0.01235 m -1.10211,-0.119451 c 0.004,0.03461 0.025,0.023 0.0574,0.02374 0.0546,7.06e-4 0.0871,0.0302 0.13307,0.0497 0.0293,0.01288 0.0495,0.02431 0.0582,-0.01584 0,-0.01305 -0.004,-0.02889 -0.004,-0.04178 0.004,-0.01584 0.01,-0.0267 0.0138,-0.04105 0.006,-0.02649 0.004,-0.05522 0.004,-0.08264 0,-0.03239 0.0109,-0.03884 0.0173,-0.06534 0.0268,-0.108596 -0.14302,-0.136571 -0.21276,-0.15185 0,-0.0014 0,-0.0021 0,-0.0035 -0.005,0.02872 0,0.05688 -0.006,0.08485 -0.006,0.02522 -0.0243,0.04602 -0.031,0.06902 -0.006,0.02522 0.006,0.05669 0.004,0.0819 -0.004,0.02946 -0.0353,0.06681 -0.0339,0.09277 m 0.0804,-0.369591 -0.0152,0.03094 c 0,0.0037 0.004,0.0065 0.004,0.01012 0,-0.0037 0,-0.0065 0,-0.01012 0.004,-0.01069 0.006,-0.02081 0.0106,-0.03094 m 2.97307,0.891579 c -0.004,0.04178 -0.0282,0.08632 -0.0187,0.129391 0.01,0.04031 0.0423,0.03957 0.072,0.02025 0.0272,-0.01729 0.025,-0.04105 0.0321,-0.06976 0.007,-0.0309 0.0258,-0.05191 0.0296,-0.08283 0.004,-0.02575 0.006,-0.07252 0,-0.09847 -0.006,-0.03369 -0.0401,-0.06387 -0.0762,-0.04951 -0.0162,0.0072 -0.0468,0.06111 -0.0409,0.08191 h 0.008 c -0.0152,0.01087 -0.005,0.04896 -0.006,0.06902 m -0.34731,0.479471 c -0.0433,-0.01288 -0.072,-0.01933 -0.11579,-0.02007 0.0596,-0.101417 0.0812,-0.1351 0.0826,-0.157371 0,-0.02889 0.006,-0.04675 0.0123,-0.07344 0.0162,-0.06387 0.0208,-0.131603 0.0208,-0.198416 0,-0.05393 -0.01,-0.112825 0.0145,-0.158842 0.0131,-0.02596 0.0173,-0.03387 0.0453,-0.04969 0.0346,-0.01859 0.0898,-0.01584 0.11797,-0.0416 0.0166,-0.0151 0.0367,-0.05963 0.0488,-0.07915 0.008,-0.01288 0.0166,-0.02797 0.0194,-0.04233 0.004,-0.01161 -0.004,-0.03239 0,-0.04178 0.0145,-0.03517 0.10989,0.005 0.1408,0.02007 0.0497,0.02099 0.10435,0.01379 0.15755,0.01379 0.0254,0 0.0597,-0.0066 0.0834,-7.06e-4 0.0222,0.005 0.0366,0.01584 0.0626,0.01933 0.004,0.04031 0.0201,0.07197 0.0194,0.112829 0,0.03681 0,0.07344 0,0.10933 0,0.04031 0,0.08135 0,0.121479 0,0.04528 0.0145,0.08209 0.0166,0.125896 0.004,0.102887 -0.004,0.207066 0.0324,0.304062 0.0173,0.04749 0.0166,0.08559 0.0166,0.135283 0,0.03221 0.004,0.107859 -0.0251,0.127921 -0.0272,0.01877 -0.092,-0.0065 -0.12002,-0.01213 -0.059,-0.01235 -0.12442,-0.0021 -0.1833,0.0092 -0.0403,0.0072 -0.0618,-0.0014 -0.0683,-0.04601 -0.007,-0.04675 0.004,-0.05964 -0.031,-0.09921 -0.0282,-0.03238 -0.0749,-0.04454 -0.11801,-0.05025 -0.0152,-0.0014 -0.0318,0.005 -0.0475,0.0021 -0.0303,-0.0059 -0.0525,-0.01654 -0.0841,-0.01803 -0.0374,-0.0014 -0.0633,-0.0014 -0.0977,-0.01231 m -1.70826,1.464734 c 0.0208,0.0042 0.0416,-7.06e-4 0.0624,-0.0066 -0.0194,0.0044 -0.0401,0.0072 -0.0624,0.0066 m 0.42408,0.6442 c 0.01,0.0381 0.0332,0.07326 0.0799,0.04657 0.018,-0.01069 0.0547,-0.05448 0.0653,-0.07031 0.0325,-0.04896 0.0547,-0.145958 0.0208,-0.195654 -0.0275,-0.04105 -0.17262,-0.05098 -0.15311,0.02081 v 0.01655 c 0.0438,0.0052 -0.008,0.05117 -0.013,0.06976 -0.008,0.0309 -0.006,0.08062 0,0.112275 m -0.62985,-0.08559 c 0.005,-0.06976 -0.008,-0.137305 0.0159,-0.205038 0.0219,-0.06111 0.0339,-0.128658 0.11504,-0.221421 0.0964,0 0.18626,0.03534 0.28123,0.03313 0.0272,0 0.0502,-0.0028 0.0755,0.0079 0.0138,0.005 0.0254,0.01732 0.0396,0.02155 0.0346,0.01087 0.0804,0.0037 0.11578,0.0037 0.10196,0 0.19968,0.01658 0.30258,0.01658 h 0.34085 c 0.0138,0 0.0381,-0.0037 0.051,-7.05e-4 0.0113,0.0021 0.0145,0.01214 0.0243,0.01584 0.0265,0.0065 0.0626,0.02007 0.0898,0.01859 0.0293,-0.0021 0.0403,-0.01729 0.0626,-0.03737 0.0395,-0.03883 0.0985,-0.0878 0.14813,-0.117242 0.0394,-0.023 0.092,-0.04804 0.11927,-0.08761 -0.004,0.06828 0.004,0.12295 0.018,0.183321 0.0145,0.05595 0.0639,0.109883 0.0453,0.170988 -0.0318,0.0037 -0.0576,0.01305 -0.0878,0.02025 -0.043,0.0114 -0.0898,0.02152 -0.13289,0.03165 -0.0611,0.01436 -0.13674,0.03957 -0.17759,0.09552 -0.0254,0.03534 -0.0519,0.05393 -0.0863,0.07915 -0.018,0.01288 -0.0279,0.0438 -0.0446,0.05393 -0.01,0.0057 -0.0359,0.0079 -0.0453,0.01069 -0.10788,0.02889 -0.24811,0.08927 -0.30131,0.189946 -0.0159,0.02872 -0.0366,0.05467 -0.0539,0.08264 -0.0317,0.05172 -0.041,0.05319 -0.10417,0.04896 -0.095,-0.0059 -0.17833,-0.06773 -0.27111,-0.06552 -0.0589,0.0014 -0.0906,-0.01584 -0.14521,-0.0302 -0.0453,-0.0114 -0.0834,-0.0151 -0.13236,-0.02081 -0.0395,-0.0052 -0.10269,-0.01013 -0.13804,-0.03164 -0.0303,-0.01803 -0.0445,-0.05043 -0.0712,-0.07049 -0.0236,-0.01859 -0.0848,0.0044 -0.10121,-0.01362 -0.0138,-0.01729 0.012,-0.05246 0.018,-0.06755 0.0138,-0.03461 0.0275,-0.07915 0.0303,-0.115038 m 0.52991,-0.575179 c -0.0697,0 -0.13878,7.05e-4 -0.20779,0 -0.0145,0 -0.0279,0.0035 -0.0431,0.0072 0.0633,-0.01732 0.12146,-0.05393 0.18902,-0.0727 0.0648,-0.01785 0.12516,-0.06258 0.18129,-0.09847 0.0366,-0.023 0.13585,-0.05963 0.12573,-0.116509 0.0519,0.03239 0.0957,0.05043 0.14817,0.0497 0.0561,-7.05e-4 0.1071,0.01658 0.16252,0.01729 0.0848,7.06e-4 0.16602,0.03514 0.25086,0.0532 0.0799,0.01637 0.16179,0.01436 0.2437,0.01139 0.0604,-7.05e-4 0.0604,0.01087 0.0318,0.06332 -0.0243,0.04528 -0.0804,0.08485 -0.12294,0.123687 -0.0359,0.0309 -0.0567,0.04601 -0.10344,0.04454 -0.0482,-7.05e-4 -0.0979,-0.0014 -0.14524,0 -0.0368,0.0014 -0.0604,-0.0021 -0.095,-0.01584 -0.0215,-0.0094 -0.0396,-0.0094 -0.0574,-0.01584 -0.0201,-0.0086 -0.0258,-0.01362 -0.0482,-0.01803 -0.0208,-0.0042 -0.0482,0 -0.0712,7.05e-4 -0.0618,0 -0.11504,-0.01436 -0.17688,-0.02155 -0.0891,-0.01012 -0.17173,-0.01214 -0.26172,-0.01214"
       style="fill:#21201d;fill-opacity:1;fill-rule:evenodd;stroke:none;stroke-width:0.184057"
       id="path640" />
  </g>
</svg>
