<?xml version="1.0" encoding="UTF-8" standalone="no"?>
<!-- Created with Inkscape (http://www.inkscape.org/) -->

<svg
   width="7.2596316mm"
   height="6.7016726mm"
   viewBox="0 0 7.2596316 6.7016726"
   version="1.1"
   id="svg2207"
   inkscape:version="1.1.2 (0a00cf5339, 2022-02-04)"
   sodipodi:docname="z13.svg"
   xmlns:inkscape="http://www.inkscape.org/namespaces/inkscape"
   xmlns:sodipodi="http://sodipodi.sourceforge.net/DTD/sodipodi-0.dtd"
   xmlns="http://www.w3.org/2000/svg"
   xmlns:svg="http://www.w3.org/2000/svg">
  <sodipodi:namedview
     id="namedview2209"
     pagecolor="#ffffff"
     bordercolor="#666666"
     borderopacity="1.0"
     inkscape:pageshadow="2"
     inkscape:pageopacity="0.0"
     inkscape:pagecheckerboard="0"
     inkscape:document-units="mm"
     showgrid="false"
     inkscape:zoom="0.64052329"
     inkscape:cx="-888.33616"
     inkscape:cy="617.46389"
     inkscape:window-width="2560"
     inkscape:window-height="1376"
     inkscape:window-x="0"
     inkscape:window-y="0"
     inkscape:window-maximized="1"
     inkscape:current-layer="layer1" />
  <defs
     id="defs2204" />
  <g
     inkscape:label="Layer 1"
     inkscape:groupmode="layer"
     id="layer1"
     transform="translate(-340.05091,14.916866)">
    <path
       d="m 345.00001,-14.335856 c 0.0359,0 0.072,0.002 0.10712,0.0028 0.004,0 0.009,7.41e-4 0.0131,7.41e-4 0.0438,-0.0072 0.0876,-0.01509 0.13289,-0.0208 0.0215,-0.0029 0.0445,-0.0057 0.0663,-0.0079 -0.0304,-0.07197 -0.0705,-0.138043 -0.11872,-0.207065 -0.0423,-0.06111 -0.0963,-0.111539 -0.15313,-0.159578 -0.0316,-0.02743 -0.0648,-0.05319 -0.097,-0.08135 -0.0368,-0.03295 -0.069,-0.08117 -0.11007,-0.107858 -0.0648,0.01877 -0.0351,0.271117 -0.049,0.399774 l -0.0201,-7.41e-4 c 0,0.02301 0,0.04601 7.1e-4,0.06976 -0.0201,0.03957 -0.0468,0.07491 -0.0762,0.10933 0.0985,-0.01013 0.20135,-0.005 0.30406,0.0029"
       style="fill:#21201d;fill-opacity:1;fill-rule:nonzero;stroke:none;stroke-width:0.184057"
       id="path560" />
    <path
       d="m 344.29839,-13.09641 c -0.0144,0.0042 -0.0289,0.0079 -0.0425,0.01215 -0.0121,0.01086 -0.0245,0.01951 -0.0388,0.02669 -0.0559,0.02798 -0.12222,0.03442 -0.18185,0.01657 -0.046,-0.01288 -0.0849,-0.04031 -0.11798,-0.07344 -0.0129,-0.0057 -0.0258,-0.01215 -0.0366,-0.01933 -0.0287,-0.02006 -0.0503,-0.0554 -0.0574,-0.08853 -0.007,-0.03368 0.004,-0.06534 0.0315,-0.0854 0.0116,-0.02595 0.0331,-0.04749 0.0583,-0.06258 0.0626,-0.03607 0.15093,-0.03736 0.2135,-7.41e-4 0.002,0 0.002,0.0015 0.004,0.0022 0.009,-0.0015 0.0179,5.64e-4 0.0265,0.0042 0.0188,0.0079 0.0381,0.0173 0.0547,0.02797 0.008,0.0044 0.0151,0.0087 0.023,0.01509 0.0482,0.02025 0.0826,0.07049 0.0942,0.121663 0.004,0.01785 0.002,0.03663 -0.004,0.05448 0.006,0.01951 -0.005,0.04252 -0.0258,0.04896 m -0.43511,0.242956 c -7.1e-4,-0.01638 0.0123,-0.03368 0.0281,-0.03736 0.0819,-0.01933 0.16178,0.0037 0.2286,0.05043 0.0381,0.01712 0.0755,0.04381 0.0891,0.08411 0.0173,0.04878 -0.0215,0.09479 -0.0698,0.106386 -0.12865,0.03018 -0.27461,-0.06976 -0.27608,-0.203569 m -0.2078,0.224367 c -0.0193,0.01804 -0.0438,0.02871 -0.0703,0.03092 -0.0324,0.0037 -0.0648,-0.0087 -0.0913,-0.02374 -0.0282,-0.01583 -0.0547,-0.03884 -0.0677,-0.06681 -0.0144,-0.03019 -0.0164,-0.06111 -0.002,-0.09129 0.0114,-0.02522 0.0381,-0.04381 0.0646,-0.05117 0.0353,-0.0092 0.0727,-0.0042 0.10565,0.0066 0.007,0.002 0.013,0.0057 0.0173,0.01067 0.0101,0.0022 0.0203,0.0052 0.0302,0.0087 0.023,0.01086 0.0396,0.03092 0.0482,0.05466 0.0151,0.04105 -0.002,0.09129 -0.0346,0.121478 m -0.5564,0.20136 c 0.009,0.01804 0.005,0.04086 -0.0136,0.05246 -0.009,0.0042 -0.018,0.0094 -0.0267,0.01288 -0.0317,0.01436 -0.0661,0.02522 -0.1027,0.02025 -0.0151,-0.0022 -0.0302,-0.0052 -0.044,-0.0116 -0.003,-7.4e-4 -0.005,-7.4e-4 -0.008,-0.0015 -0.009,-0.002 -0.0188,-0.01068 -0.0237,-0.02006 -0.001,-0.0015 -0.003,-0.0029 -0.004,-0.0042 -0.0374,-0.03755 -0.0482,-0.09718 -0.0245,-0.144669 0.0123,-0.0243 0.0368,-0.0416 0.0619,-0.05025 0.0138,-0.0042 0.0294,-0.0064 0.0433,-0.0057 0.0208,0.0015 0.0423,0.0042 0.0618,0.0099 0.0322,0.0094 0.0668,0.02816 0.0812,0.05908 0.0121,0.0265 0.0121,0.05595 0,0.08264 v 7.41e-4 m -0.87132,-0.625613 c 7e-4,-0.0035 7e-4,-0.0079 0.001,-0.01141 0.0116,0.01362 0.023,0.02724 0.0346,0.04105 -0.0116,-0.0087 -0.0238,-0.01877 -0.0359,-0.02963 m 5.07443,1.964266 c 0,-0.112091 0.0101,-0.233569 -0.004,-0.346581 -0.0164,-0.142277 -0.0762,-0.265964 -0.11927,-0.401062 -0.0215,-0.06626 -0.0554,-0.126632 -0.10288,-0.178352 -0.0394,-0.04233 -0.0804,-0.08412 -0.11927,-0.125896 -0.0173,-0.01859 -0.0158,-0.03515 -0.0302,-0.05246 -0.0237,-0.03019 -0.0482,-0.04675 -0.069,-0.0797 -0.004,-0.0064 -0.009,-0.01233 -0.0129,-0.01877 10e-4,-0.0015 0.003,-0.0022 0.005,-0.0035 -0.0129,-0.01804 -0.0245,-0.03608 -0.0359,-0.05393 -0.0841,-0.05614 -0.1294,-0.153137 -0.15387,-0.256761 -0.002,-0.01013 -0.004,-0.02006 -0.006,-0.02945 -0.044,-0.09203 -0.0843,-0.189028 -0.10289,-0.289707 -0.0201,0.0094 -0.041,0.01509 -0.0633,0.01933 -0.009,0.0072 -0.0223,0.0094 -0.0351,0.0072 -0.0324,0.0044 -0.067,0.0057 -0.0999,0.0072 -0.0618,0.0022 -0.12295,-7.41e-4 -0.18406,-0.0028 -0.0777,0.02448 -0.16252,0.02577 -0.24314,-0.0079 -0.0193,-0.0086 -0.0228,-0.03681 -0.0136,-0.05319 0.0116,-0.01951 0.0346,-0.02227 0.0539,-0.0138 0.021,0.0087 0.0418,0.01454 0.0626,0.01657 0.006,-0.01215 0.0173,-0.02153 0.0351,-0.02153 0.0317,0 0.0641,7.41e-4 0.0965,0.0022 0.0712,-0.02816 0.13362,-0.08412 0.17043,-0.148167 0.0223,-0.03884 0.079,-0.01141 0.0718,0.02669 0.0138,0.03663 0.0353,0.06902 0.0611,0.09847 0.023,-0.02448 0.0504,-0.04381 0.0742,-0.06681 0.0151,-0.0138 0.0409,-0.01657 0.056,0 0.0942,0.105649 0.10509,0.256576 0.13234,0.388914 10e-4,0.005 0.002,0.0094 0.003,0.01362 0.009,0.01657 0.0166,0.03239 0.0251,0.04896 0.0361,0.06902 0.0756,0.137307 0.11724,0.202648 0.0109,0.0064 0.023,0.01307 0.0361,0.0173 0.007,-0.03387 0.008,-0.07049 0.01,-0.09994 0.006,-0.09994 0.0282,-0.184794 0.0591,-0.28032 0.0337,-0.09921 0.0243,-0.210746 0.0243,-0.314923 -7e-4,-0.05614 0.009,-0.112275 -0.0143,-0.164732 -0.0287,-0.06681 -0.074,-0.133626 -0.11136,-0.195469 -0.0742,-0.12019 -0.20356,-0.230809 -0.32136,-0.308481 -0.0447,-0.02871 -0.0913,-0.04178 -0.13602,-0.06405 -0.048,-0.02448 -0.0834,-0.06037 -0.13509,-0.08338 -0.051,-0.02448 -0.0604,-0.01804 -0.1121,-0.02871 -0.11429,-0.02227 -0.22583,-0.06626 -0.33295,-0.107858 -0.0957,-0.0381 -0.18332,-0.127368 -0.28823,-0.135835 -0.0526,0.0092 -0.1051,0.01362 -0.15829,0.01509 -0.10712,0.002 -0.217,0.0013 -0.32357,-0.0072 -0.069,-0.0059 -0.13657,-0.02301 -0.20412,-0.03387 -0.12645,0.03313 -0.25013,0.07197 -0.36958,0.112091 -10e-4,0.0015 -0.003,0.0029 -0.004,0.0052 -0.0151,0.01933 -0.0144,0.01583 -0.0331,0.02651 -0.0331,0.01877 -0.0589,0.04749 -0.0928,0.06681 -0.0158,0.0087 -0.0302,0.01583 -0.0453,0.02301 -0.10067,-0.01068 -0.20209,-0.0208 -0.28675,0.04822 0,-0.0015 7e-4,-0.0022 0.001,-0.0035 -0.006,-0.0022 -0.0164,0.0099 -0.0287,0.0265 -0.0215,0.01878 -0.0423,0.03957 -0.0618,0.05908 0.003,0.0092 0.002,0.01933 -0.005,0.03019 -0.0353,0.0473 -0.0727,0.09203 -0.11153,0.137307 -0.0208,0.0013 -0.0409,0.0035 -0.0567,0.0099 -0.0245,0.0116 -0.0504,0.04178 -0.072,0.05982 -0.0151,0.01362 -0.0245,0.03092 -0.0388,0.04528 -0.0193,0.0208 -0.0438,0.03589 -0.0633,0.05743 -0.0201,0.02301 -0.0445,0.04675 -0.0611,0.07344 -0.0144,0.02227 -0.0223,0.04528 -0.0394,0.06755 -0.0339,0.04601 -0.0403,0.08191 -0.0433,0.138779 0,0.0028 -7.1e-4,0.0072 -10e-4,0.01067 -0.01,0.01951 -0.0223,0.0381 -0.0315,0.05908 -0.0101,0.0208 -0.0304,0.02301 -0.0475,0.01509 -0.0267,0.03019 -0.0554,0.0589 -0.0841,0.08835 -0.0331,0.005 -0.067,0.0079 -0.10363,0.0079 -0.0495,0 -0.12,-0.01215 -0.16602,0.0037 0.0158,0.03884 0.10271,0.05172 0.13234,0.09553 0.004,0.005 0.007,0.01362 0.0121,0.02301 -0.0193,0.02227 -0.0374,0.04601 -0.0482,0.06829 -0.0302,-0.0057 -0.0574,-0.01509 -0.0948,-0.03018 -0.0324,-0.01215 -0.069,-0.02522 -0.10509,-0.02871 -0.0488,-0.005 -0.0891,0.0015 -0.12645,0.02522 0.009,0.02651 -0.0208,0.04878 -0.049,0.04307 -0.0121,0.01583 -0.0237,0.03166 -0.0316,0.04822 -0.0179,-0.01583 -0.0322,-0.03387 -0.0438,-0.05393 0.009,-0.01657 0.0173,-0.0324 0.0267,-0.04822 -0.044,-0.07915 -0.0655,-0.179825 -0.1202,-0.248846 -0.0178,-0.01712 -0.0351,-0.03295 -0.0532,-0.04878 -0.0101,-0.0064 -0.0201,-0.01233 -0.0309,-0.0173 -0.0453,-0.01804 -0.0955,-0.0208 -0.13804,-0.04675 -0.0381,-0.02153 -0.0762,-0.04675 -0.11209,-0.07178 -0.0109,0.0035 -0.0208,0.0064 -0.0309,0.0099 -0.004,-0.01657 -0.009,-0.03295 -0.0136,-0.04804 0,0 -0.001,-0.0059 -0.003,-0.01307 -0.006,-0.0079 -0.0109,-0.01785 -0.0151,-0.0265 -0.003,-0.0052 -0.005,-0.01012 -0.007,-0.01435 -0.0144,-0.0022 -0.0366,-0.0015 -0.0482,-0.0022 -0.0661,-0.0086 -0.12645,-0.02742 -0.18682,0.0035 -0.0281,0.01435 -0.0497,0.03884 -0.0611,0.06828 -0.004,0.0029 -0.008,0.0066 -0.013,0.0094 -0.0554,0.0381 -0.0611,0.08632 -0.0928,0.143197 -7.1e-4,0.0013 -0.0107,0.01288 -0.0193,0.0243 -0.026,-0.0064 -0.0532,-0.02301 -0.0641,-0.03442 -0.0302,-0.03387 -0.0287,-0.110803 -0.0193,-0.1524 0.006,-0.02743 0.0272,-0.05043 0.0359,-0.07694 0.0144,-0.0381 0.0272,-0.08853 0.0309,-0.129393 0.004,-0.06479 -0.004,-0.130129 7.1e-4,-0.194917 -0.0366,0.04969 -0.0661,0.111539 -0.0928,0.167492 -0.0101,0.02025 -0.0193,0.04031 -0.028,0.06184 -0.0101,0.02669 -0.023,0.05246 -0.0289,0.07988 -0.003,0.0173 10e-4,0.0416 -0.005,0.05595 -0.0101,0.02669 -0.0467,0.06184 -0.0648,0.08559 -0.028,0.03607 -0.0423,0.06258 -0.0545,0.106385 -0.0131,0.04822 -0.007,0.09 -0.0116,0.139516 -0.007,0.06902 -0.0604,0.133074 -0.0849,0.19639 -0.009,0.02301 -0.0265,0.04528 -0.0324,0.06755 -0.006,0.02724 -0.004,0.04086 -0.0171,0.06902 -0.0166,0.03442 -0.0217,0.06258 -0.0289,0.101416 -0.0121,0.06902 -0.0416,0.130865 -0.069,0.193997 -0.033,0.07841 -0.0926,0.150375 -0.14724,0.214979 -0.049,0.05835 -0.0935,0.122215 -0.14743,0.17688 -0.0504,0.05117 -0.095,0.09847 -0.13013,0.161051 -0.0223,0.03736 -0.0438,0.07123 -0.0705,0.105097 -0.0445,0.05522 -0.0762,0.101968 -0.10418,0.166756 -0.001,0.002 -0.001,0.0042 -0.003,0.0072 -0.0295,0.0173 0.24093,-0.314187 0.21645,-0.290443 -0.072,0.06902 -0.13087,0.157369 -0.21001,0.21774 -0.008,7.41e-4 -0.0158,0.0022 -0.0237,0.0029 -0.008,0.01086 -0.0136,0.02227 -0.0165,0.03515 -0.008,0.01583 -0.0158,0.02945 -0.0243,0.04473 -0.0497,0.08688 -0.0455,0.196942 -0.046,0.296149 -0.004,0.0035 -0.007,0.0072 -0.0109,0.01215 -0.0403,0.04749 -0.0806,0.106385 -0.10565,0.163259 -0.0361,0.07546 -0.0863,0.139516 -0.10712,0.225103 -0.0116,0.05172 -0.021,0.07822 -0.0519,0.122214 -0.0495,0.06829 -0.0617,0.150191 -0.0941,0.226391 -0.0136,0.03092 -0.0281,0.05761 -0.0331,0.09203 -0.005,0.03387 -0.0201,0.05117 -0.0302,0.08264 -0.0144,0.04325 0.007,0.08283 -0.0216,0.12516 0.0151,-0.01288 0.0208,-0.0265 0.0302,-0.04307 0.0215,-0.03534 0.0517,-0.06405 0.0733,-0.09994 0.0302,-0.05117 0.0539,-0.103625 0.0762,-0.15829 0.0331,-0.08043 0.0935,-0.144485 0.13381,-0.220685 0.0438,-0.08338 0.10712,-0.140253 0.16104,-0.216453 0.0554,-0.07694 0.10289,-0.151663 0.14099,-0.237987 0.0366,-0.08338 0.097,-0.149455 0.13804,-0.230072 0.0445,-0.08614 -0.0583,0.08062 0,0 0.0574,-0.07896 -0.0396,-0.05025 0.033,-0.117797 0.0618,-0.05761 0.13952,-0.08135 0.19989,-0.134546 0.0453,-0.0381 0.0668,-0.104177 0.10565,-0.148719 0.0353,-0.03957 0.0677,-0.07694 0.10932,-0.110803 0.0618,-0.05025 0.13731,-0.08117 0.19492,-0.136571 0.0747,-0.07197 0.1524,-0.138043 0.2286,-0.209274 0.0265,-0.02577 0.0611,-0.04307 0.0878,-0.06755 0.0243,-0.02374 0.0359,-0.0554 0.048,-0.08632 0.018,-0.04528 0.0158,-0.07896 0.0158,-0.125712 10e-4,-0.05761 0.0188,-0.110067 0.0281,-0.164732 0.0718,0.04031 0.14725,0.06111 0.21921,0.02025 0,-0.0015 -7e-4,-0.0037 -7e-4,-0.0059 0,-0.01932 0.018,-0.04086 0.0388,-0.0381 0.003,0 0.006,0.0015 0.009,0.0015 0.009,-0.01288 0.0158,-0.02724 0.0215,-0.04233 0.003,7.41e-4 0.006,0.0013 0.0114,0.0035 -0.004,-7.41e-4 -0.007,-0.0028 -0.0107,-0.005 0.0107,0.0022 0.0302,0.0079 0.046,0.01215 0,-0.01362 0.009,-0.02374 0.0193,-0.02945 -0.0107,-0.01509 -0.0208,-0.03092 -0.0302,-0.04749 -0.0245,-0.04307 0.0433,-0.08191 0.0676,-0.03884 0.0813,0.140988 0.23301,0.229336 0.3013,0.378975 0.007,0.01657 0.006,0.03387 -0.006,0.04675 0.0114,0.0042 0.0245,0.0079 0.0352,0.01288 -0.0294,0.09571 -0.0467,0.196942 -0.0453,0.294861 0,0.06902 -0.009,0.140068 0.0238,0.204121 0.0403,0.07988 0.13657,0.102152 0.22215,0.103624 h 0.004 c 0.006,0.0057 0.0136,0.01141 0.0215,0.01638 0.0265,0.01657 0.0661,0.01878 0.0898,0.03608 0.0309,0.02301 0.0238,0.05467 0.0238,0.09203 7e-4,0.05098 0.0188,0.09847 0.0569,0.135099 0.028,0.02669 0.0611,0.03239 0.0963,0.03313 0.0425,-0.121478 0.0784,-0.245901 0.13583,-0.363146 0.008,-0.01583 0.0166,-0.0324 0.026,-0.04822 -0.0129,0.0015 -0.0272,0.0022 -0.0403,-0.0013 -0.028,0.0013 -0.0567,-0.0044 -0.0841,-0.0116 -0.0186,-0.0042 -0.0265,-0.0208 -0.028,-0.0381 -0.0136,-0.0087 -0.0188,-0.02724 -0.0158,-0.04233 0.001,-0.0066 0.003,-0.01233 0.004,-0.01804 0,-7.41e-4 0,-7.41e-4 -7e-4,-0.0015 -0.008,-0.01509 -0.007,-0.03442 0.006,-0.04749 0.0215,-0.0208 0.0473,-0.03736 0.0769,-0.0473 0.0344,-0.01233 0.0747,-0.01013 0.10914,0.005 0.002,-7.41e-4 0.006,-0.0015 0.009,-0.0015 0.021,-0.0015 0.0353,0.01657 0.0374,0.0346 0.007,0.0064 0.0116,0.01362 0.0166,0.02006 0.007,0.005 0.0116,0.01086 0.0144,0.0173 0.0433,-0.03534 0.0935,-0.05687 0.15314,-0.04822 0.021,-0.09276 0.0606,-0.179825 0.13601,-0.242957 0.0179,-0.01436 0.0381,-0.0138 0.0552,0 0.0849,0.06608 0.17688,0.120742 0.28473,0.13878 0.0374,0.005 0.0346,0.04951 0.0101,0.06681 7e-4,0.02448 -0.018,0.05025 -0.0475,0.04031 -0.0898,-0.03018 -0.1732,-0.07418 -0.25657,-0.116509 -0.0274,0.06608 -0.0289,0.139516 -0.0289,0.210562 0,0.02448 -0.025,0.04528 -0.0495,0.0381 -0.0331,-0.01067 -0.0618,-0.01067 -0.0863,-0.0057 -0.005,0.0044 -0.0107,0.0057 -0.0173,0.0064 -0.0775,0.0289 -0.1235,0.12295 -0.15811,0.202095 -0.0482,0.108594 -0.0841,0.235042 -0.1581,0.330752 7e-4,0.0086 7e-4,0.01785 -0.004,0.02448 -0.0532,0.07105 -0.12719,0.116325 -0.20486,0.155161 -0.004,0.0087 -0.008,0.0173 -0.0101,0.02743 -0.0129,0.04381 -0.0179,0.09276 -0.0201,0.139516 -0.002,0.07399 -0.0295,0.147982 -0.0504,0.21774 -0.009,0.03019 -0.0287,0.05614 -0.0344,0.08706 -0.004,0.02227 -0.006,0.04233 -0.0116,0.0646 -0.0179,0.06773 -0.046,0.128841 -0.0711,0.193445 -0.023,0.05761 -0.0281,0.112276 -0.0374,0.173383 -0.0109,0.06828 -0.0339,0.132153 -0.044,0.199886 -0.007,0.04233 -0.003,0.08688 -0.003,0.130129 0,0.095526 -0.0173,0.1840584 -0.0173,0.2795843 0,0.073439 0.003,0.1430133 -0.0121,0.2157162 -0.0138,0.066077 -0.023,0.1323375 -0.0331,0.1998867 -0.006,0.040309 -0.009,0.0762 -0.0188,0.1150362 -0.009,0.030187 -0.0166,0.061843 -0.0245,0.092765 -0.008,0.035154 -0.002,0.073255 -0.01,0.107122 -0.004,0.018038 -0.0208,0.027242 -0.0188,0.04675 0.0238,-0.027425 0.0388,-0.066997 0.0561,-0.097919 0.0215,-0.037364 0.0431,-0.07031 0.0596,-0.1106188 0.0215,-0.052457 0.0532,-0.1128275 0.0655,-0.1674929 0.01,-0.04399 0.0136,-0.079145 0.0295,-0.1222142 0.0107,-0.028896 0.01,-0.059083 0.0158,-0.088532 0.009,-0.045278 0.01,-0.091293 0.0158,-0.1365709 0.006,-0.04307 0.023,-0.085587 0.0272,-0.1286566 0.005,-0.056138 -0.009,-0.1122751 0.009,-0.166757 0.0193,-0.05761 0.0272,-0.113011 0.0396,-0.17191 0.0201,-0.08632 0.0475,-0.172462 0.0913,-0.250134 0.0381,-0.06626 0.051,-0.140989 0.0898,-0.205777 0.0396,-0.06608 0.069,-0.137307 0.10491,-0.207065 0.0173,-0.03221 0.0252,-0.06902 0.0433,-0.09994 0.0151,-0.0265 0.0359,-0.0438 0.0482,-0.07325 0.0315,-0.07767 0.0891,-0.13381 0.12718,-0.208537 0.0252,-0.05025 0.0611,-0.101968 0.097,-0.145958 0.0453,-0.05393 0.11357,-0.06681 0.16621,-0.112828 0.0201,-0.0022 0.0401,-0.0079 0.0547,-0.01877 0.0307,-0.02301 0.0525,-0.06184 0.0826,-0.08761 0.0467,-0.04104 0.12222,-0.03534 0.18406,-0.02945 0.0186,0.0013 0.0344,0.0079 0.0503,0.01509 7e-4,0.0035 10e-4,0.0087 0.002,0.01141 0.006,0.107858 -0.0201,0.220133 -0.0655,0.317868 -0.0236,0.05246 -0.0201,0.09626 -0.0201,0.153872 0,0.06976 -0.002,0.13013 -0.0215,0.197679 -0.0569,0.20412 -0.0287,0.429959 -0.0287,0.640521 v 0.735496 c 0,0.059083 -0.002,0.1137476 0.0129,0.1684129 0.0166,0.059635 0.004,0.140068 0.004,0.2011751 -0.002,0.052457 -10e-4,0.1043608 0.003,0.1575537 0.005,0.032396 0.0136,0.063868 0.0274,0.093501 0.005,0.022271 0.004,0.040861 0.004,0.062396 -10e-4,0.079881 7e-4,0.1590259 -7.1e-4,0.2379871 -7e-4,0.085587 0.0208,0.1654679 0.018,0.2503187 -10e-4,0.049511 -0.0136,0.099207 -0.0173,0.1474304 -10e-4,0.013621 -7e-4,0.023559 -0.005,0.031475 0.0985,-0.1041767 0.0445,-0.2731421 0.0539,-0.4062159 0.002,-0.032946 0.0166,-0.050248 0.0309,-0.078961 0.0186,-0.034604 0.0201,-0.065525 0.0208,-0.1043608 0.001,-0.04307 -0.003,-0.086875 -7.1e-4,-0.1308654 0.003,-0.043805 0.028,-0.061107 0.046,-0.1012317 0.046,-0.1006796 0.0381,-0.2149796 0.0381,-0.3221013 0,-0.1144842 7e-4,-0.2171883 0.0287,-0.3287275 0.0418,-0.1638117 0.0374,-0.3206283 0.0388,-0.4881213 0,-0.130865 0.018,-0.283265 -0.009,-0.413395 -0.0287,-0.138043 -0.006,-0.294124 -0.008,-0.436401 -7.1e-4,-0.06552 0.006,-0.117245 0.0287,-0.180561 0.0186,-0.05448 0.0337,-0.105649 0.0374,-0.163075 10e-4,-0.02301 -0.003,-0.04749 -7.1e-4,-0.07049 0.005,-0.03663 0.0188,-0.06976 0.0272,-0.105649 0.0123,0.0064 0.0267,0.01141 0.0475,0.01657 0.0396,0.0079 0.0584,0.0085 0.0928,-0.0087 0.0885,-0.04325 0.15811,0.117797 0.25088,0.0762 0.0324,-0.01436 0.067,-0.03166 0.0935,-0.05614 0.0339,-0.0324 0.0366,-0.314187 0.0705,-0.348053 0.006,-0.0057 0.0121,-0.01068 0.018,-0.01436 0.01,0.01804 0.0208,0.268172 0.0337,0.284001 0.0274,0.0346 0.0374,0.04252 0.0828,0.04399 0.0272,0.0013 0.056,-0.232281 0.0841,-0.233017 0,0.01141 7.1e-4,0.02374 0.004,0.03387 0.004,0.01436 0.0166,0.02577 0.0267,0.0381 0.0295,0.03663 0.0582,0.07749 0.0826,0.118534 0.0559,0.09571 0.0797,0.204856 0.11062,0.309217 0.009,0.02945 0.0223,0.06258 0.0302,0.09405 0.009,0.04252 0.0245,0.07914 0.0331,0.123686 0.023,0.109331 0.0898,0.213508 0.11946,0.323574 0.0381,0.145958 0.0985,0.303512 0.10049,0.454439 0.002,0.124424 0.0173,0.24811 0.0173,0.3716132 -0.001,0.105097 -0.001,0.2107462 -0.001,0.3156595 0,0.2258388 0.007,0.4529663 0,0.6788055 0.004,-0.031658 0.0138,-0.064788 0.0158,-0.094974 0.003,-0.042333 0.005,-0.084115 0.0131,-0.1264479 0.009,-0.049696 0.0302,-0.096446 0.0394,-0.1452217 0.009,-0.046751 0.0138,-0.094974 0.0195,-0.1424608 0.007,-0.056138 0.026,-0.1150363 0.0309,-0.1704375 0.005,-0.052457 0,-0.1078583 0,-0.1603146 0,-0.064604 0.008,-0.1222146 0.0144,-0.1860825 0.0116,-0.1028882 -10e-4,-0.2100102 7e-4,-0.3136352 0.003,-0.111355 0.0186,-0.227863 0.0324,-0.337746 0.0129,-0.09074 0.002,-0.189211 0.002,-0.282713 0,-0.109882 0.0151,-0.231361 -0.004,-0.340691 -0.0208,-0.12019 -0.0453,-0.226575 -0.0769,-0.343636 -0.0201,-0.07767 -0.0841,-0.130129 -0.10417,-0.208538 -0.0173,-0.06681 -0.0202,-0.139516 -0.0188,-0.211482 -0.0698,-0.06111 -0.13952,-0.123687 -0.19915,-0.193261 -0.0554,-0.06479 -0.0977,-0.136019 -0.12939,-0.212219 -0.0878,-0.02871 -0.17117,-0.07325 -0.25952,-0.101968 -0.046,0 -0.0928,0.005 -0.13804,0.01509 -0.0749,0.07252 -0.15903,0.140068 -0.26541,0.15516 -0.008,0.0022 -0.0144,0.0015 -0.0208,-7.4e-4 -10e-4,7.4e-4 -0.002,0.0029 -0.004,0.0037 0.004,0.01215 0.003,0.02595 -0.008,0.03736 -0.0116,0.0116 -0.0217,0.0208 -0.0224,0.03884 -0.004,0.04105 -0.0596,0.04749 -0.0747,0.01877 -0.0265,-0.0015 -0.051,-0.02595 -0.0324,-0.0554 0.0217,-0.03166 0.046,-0.06184 0.0727,-0.08779 -0.0129,-0.0173 -0.0136,-0.04307 0.009,-0.05743 0.0265,-0.01657 0.0532,-0.03387 0.0797,-0.0497 0.0425,-0.05025 0.0698,-0.09994 0.0539,-0.170438 -0.008,-0.03092 0.0267,-0.06387 0.0569,-0.04307 0.0906,0.05964 0.19197,0.06608 0.29541,0.06755 0.0526,-0.0057 0.10436,-0.0057 0.15332,0.0029 0.0201,0.0022 0.0409,0.0042 0.0611,0.0079 0.0171,0.0028 0.0258,0.01362 0.028,0.0265 0.0121,0.0079 0.0245,0.0173 0.0351,0.02945 0.003,7.41e-4 0.004,0.0044 0.006,0.0066 0.0178,0.0208 0.0329,0.04675 0.0423,0.07896 7.1e-4,0.0022 0,0.0029 7.1e-4,0.0044 0.002,0.002 0.006,0.0035 0.008,0.0057 0.005,0.0037 0.009,0.0086 0.0144,0.01288 0.0151,0.0029 0.023,0.01233 0.026,0.02301 0.12295,0.115772 0.20191,0.266884 0.29468,0.406952 0.0195,0.0173 0.0388,0.325046 0.0576,0.342348 0.006,0 0.0114,7.4e-4 0.0171,0.0013 0.0784,0.0074 0.1546,0.01657 0.23301,0.01657 0.095,0 0.18406,0.0037 0.27461,-0.02577 0.0784,-0.02595 0.1524,-0.01509 0.2286,-0.05982 0.0569,-0.03442 0.10712,-0.07473 0.15755,-0.115037 0.009,0 0.0186,-5.64e-4 0.0287,-0.0013 0.023,0.02798 0.046,0.05595 0.0683,0.0854 0.0381,0.04969 0.0655,-0.189028 0.10068,-0.135835 0.0238,0.03663 0.0366,0.07841 0.0604,0.115036 0.0215,0.03663 0.0468,0.07344 0.0663,0.111539 0.0223,0.04528 0.0322,0.08982 0.0596,0.132154 0.0331,0.0519 0.0604,0.09865 0.0913,0.148166 0.023,0.03589 0.0431,0.07841 0.0532,0.117982 0.0101,0.04454 0.0366,0.08264 0.0539,0.124975 0.0151,0.03387 0.0193,0.06902 0.0265,0.104361 0.0123,0.06111 0.0123,0.11927 0.021,0.179088 0.0129,0.09129 0.0302,0.18461 0.0295,0.276639 -7.1e-4,0.135283 0.0114,0.263939 0.0302,0.397013 0.006,0.04381 -0.0188,0.3357218 0.0158,0.3443723 0.0129,-0.023008 0.004,-0.06258 0.005,-0.087795 0.004,-0.069022 0.018,-0.1350993 0.0289,-0.2026483 0.0144,-0.0762 0.004,-0.159026 0.004,-0.235962 z"
       style="fill:#21201d;fill-opacity:1;fill-rule:nonzero;stroke:none;stroke-width:0.184057"
       id="path562" />
    <path
       d="m 342.69784,-13.115184 c 0.0188,0.02172 0.0374,0.04473 0.0539,0.06902 7e-4,-0.0013 0.002,-0.0028 0.003,-0.0042 0.0302,-0.04454 0.0482,-0.1143 0.092,-0.145222 0.0252,-0.01804 0.0596,-0.03313 0.0876,-0.05319 h 0.004 c 0.0114,0.01086 0.0265,0.0173 0.0475,0.01804 0.0401,0.02724 0.0883,0.01362 0.13289,-0.0015 0.0225,0.0015 0.0475,0.005 0.0677,0.0028 0.0186,-0.002 0.0388,-0.0099 0.0582,-0.02006 0.0237,-7.41e-4 0.0445,-0.005 0.0675,-0.0094 0.0208,-0.141541 0.10068,-0.251608 0.21278,-0.341428 0.087,-0.06902 0.18405,-0.125159 0.27332,-0.191236 -0.0173,-0.0094 -0.0331,-0.01877 -0.0475,-0.0289 -0.0272,-0.01932 -0.0467,-0.0416 -0.0799,-0.05172 -0.0186,-0.005 -0.0243,-0.0057 -0.0388,-0.01288 -0.0646,-0.03313 -0.1005,-0.09276 -0.17891,-0.08908 -0.0539,0.0028 -0.0762,0.03515 -0.11945,0.0624 -0.0337,0.02227 -0.0769,0.04675 -0.11927,0.06037 -0.007,-0.01067 -0.0151,-0.02006 -0.028,-0.0243 -0.0317,-0.0094 -0.0756,-0.0086 -0.11872,-0.0022 -7.1e-4,-0.0094 -7.1e-4,-0.01804 -0.002,-0.02595 -0.007,-0.04602 -0.0272,-0.08614 -0.0178,-0.135835 0.006,-0.03515 0.0171,-0.08117 0.0322,-0.112091 -0.0517,-0.03019 -0.0841,0.07178 -0.048,0.02945 -0.0445,0.05098 -0.10933,0.08632 -0.16105,0.128656 -0.046,0.0381 -0.0791,0.08982 -0.11577,0.137308 -0.0755,0.09773 -0.10933,0.188475 -0.14099,0.308481 -0.01,0.04031 -0.0151,0.07767 -0.0294,0.112827 0.0425,0.09571 0.0826,0.192709 0.1165,0.29118 0.003,0.01086 10e-4,0.0208 -0.004,0.02871"
       style="fill:#21201d;fill-opacity:1;fill-rule:nonzero;stroke:none;stroke-width:0.184057"
       id="path564" />
    <path
       d="m 342.24709,-12.627615 c 0,7.41e-4 -7.1e-4,7.41e-4 -7.1e-4,0.0022 -0.0517,0.135835 -0.12442,0.246454 -0.20412,0.367379 -0.023,0.03515 -0.0433,0.06184 -0.0648,0.09994 -0.0129,0.02227 -0.0238,0.04086 -0.0337,0.06258 -0.009,0.01933 -0.0252,0.03736 -0.0324,0.05743 -0.008,0.02006 -0.009,0.04252 -0.0116,0.06534 -0.006,0.0044 -0.0114,0.0087 -0.0151,0.01233 -0.0315,0.02797 -0.0567,0.05816 -0.0876,0.08706 -0.0158,0.01436 -0.0396,0.02301 -0.0525,0.04012 -0.0101,0.01436 -0.0151,0.04031 -0.0289,0.05835 -0.0186,0.02374 -0.0359,0.03663 -0.046,0.06534 -0.0158,0.05117 -0.0302,0.09424 -0.0604,0.139516 -0.0626,0.09424 -0.12497,0.188292 -0.19271,0.279769 -0.0287,0.03939 -0.0552,0.07031 -0.0725,0.11706 -0.0144,0.03884 -0.0237,0.07914 -0.0331,0.119454 -0.0186,0.08264 -0.0208,0.158106 -0.0208,0.24222 0,0.07546 -0.0158,0.167493 -7.1e-4,0.240196 0.005,0.02448 0.0151,0.03736 0.0173,0.0646 0.004,0.03957 0.0144,0.0346 0.0324,0.06553 0.0287,0.04951 0.0344,0.113564 0.0344,0.169701 -0.004,-0.12884 0.0539,-0.256761 0.0942,-0.376767 0.0295,-0.08927 0.0245,-0.156817 0.005,-0.243692 -0.005,-0.01951 -0.007,-0.03534 -0.008,-0.0519 0.0353,-0.04454 0.0596,-0.09332 0.0942,-0.135835 0.028,-0.03313 0.0316,-0.08706 0.0574,-0.126448 0.0289,-0.04399 0.0532,-0.09148 0.0849,-0.13381 0.026,-0.03515 0.0539,-0.05964 0.0734,-0.09921 0.023,-0.04749 0.0547,-0.08264 0.0898,-0.122215 0.0611,-0.06976 0.0999,-0.154609 0.14375,-0.235042 0.0482,-0.08706 0.11504,-0.160498 0.16473,-0.244613 0.0589,-0.101232 0.14375,-0.186819 0.20191,-0.289707 0.0101,-0.01785 0.0188,-0.03663 0.0281,-0.05466 -0.0237,-0.05595 -0.0517,-0.109146 -0.0863,-0.159578 -0.0201,-0.02724 -0.0431,-0.05669 -0.0698,-0.08264"
       style="fill:#21201d;fill-opacity:1;fill-rule:nonzero;stroke:none;stroke-width:0.184057"
       id="path566" />
    <path
       d="m 343.91445,-8.2297345 c -0.005,0.00515 -0.009,0.010125 -0.0151,0.014541 0.009,-0.00442 0.0121,-0.00939 0.0151,-0.014541"
       style="fill:#21201d;fill-opacity:1;fill-rule:nonzero;stroke:none;stroke-width:0.184057"
       id="path568" />
  </g>
</svg>
