<?xml version="1.0" encoding="UTF-8" standalone="no"?>
<!-- Created with Inkscape (http://www.inkscape.org/) -->

<svg
   width="7.6812901mm"
   height="7.571548mm"
   viewBox="0 0 7.6812901 7.571548"
   version="1.1"
   id="svg2329"
   inkscape:version="1.1.2 (0a00cf5339, 2022-02-04)"
   sodipodi:docname="z8.svg"
   xmlns:inkscape="http://www.inkscape.org/namespaces/inkscape"
   xmlns:sodipodi="http://sodipodi.sourceforge.net/DTD/sodipodi-0.dtd"
   xmlns="http://www.w3.org/2000/svg"
   xmlns:svg="http://www.w3.org/2000/svg">
  <sodipodi:namedview
     id="namedview2331"
     pagecolor="#ffffff"
     bordercolor="#666666"
     borderopacity="1.0"
     inkscape:pageshadow="2"
     inkscape:pageopacity="0.0"
     inkscape:pagecheckerboard="0"
     inkscape:document-units="mm"
     showgrid="false"
     inkscape:zoom="0.64052329"
     inkscape:cx="-1350.4583"
     inkscape:cy="634.63735"
     inkscape:window-width="2560"
     inkscape:window-height="1376"
     inkscape:window-x="0"
     inkscape:window-y="0"
     inkscape:window-maximized="1"
     inkscape:current-layer="layer1" />
  <defs
     id="defs2326" />
  <g
     inkscape:label="Layer 1"
     inkscape:groupmode="layer"
     id="layer1"
     transform="translate(-462.10632,19.48258)">
    <path
       d="m 465.88903,-19.272585 c -0.0102,0.01141 -0.008,0.03368 -0.01,0.04877 0,0.02374 0,0.04749 0,0.07049 0.005,-0.01583 0.009,-0.03092 0.0109,-0.04528 0,-0.02374 -0.004,-0.04951 0,-0.07399"
       style="fill:#21201d;fill-opacity:1;fill-rule:evenodd;stroke:none;stroke-width:0.184057"
       id="path636" />
    <path
       d="m 466.79052,-18.752806 c 0,-0.06405 -0.009,-0.127184 -0.009,-0.191972 0,-0.02871 0.004,-0.0589 0,-0.0878 0,7.41e-4 0,0.0015 0,0.0022 0,-0.0064 0,-0.01141 0,-0.01657 0,0.0044 0.004,0.0094 0.004,0.01436 0,-0.0035 0.004,-0.0072 0.004,-0.01067 0,-0.0064 -0.004,-0.01288 -0.008,-0.01951 -0.004,-0.0092 -0.004,-0.01932 -0.006,-0.02945 -0.008,-0.05098 -0.0559,-0.08338 -0.0963,-0.113564 -0.0145,-0.01086 -0.0275,-0.02374 -0.0396,-0.03589 -0.0201,-0.02153 -0.018,-0.02025 -0.0482,0.005 0.0254,0.02522 0.0411,0.05246 0.0505,0.08706 0.009,0.03019 0.0243,0.05743 0.0286,0.08908 0.004,0.02669 0.0109,0.05246 0.0152,0.07915 0.006,0.0324 0.004,0.06534 0.004,0.097 0,0.01362 0.004,0.02595 0.004,0.03957 -0.0303,0.06902 -0.0633,0.133074 -0.10933,0.194917 -0.0272,0.03589 -0.0488,0.08191 -0.0819,0.112828 -0.0475,0.04601 -0.10435,0.08761 -0.16105,0.122214 -0.0359,0.02227 -0.0734,0.03515 -0.1108,0.05319 -0.0335,0.01509 -0.0589,0.02595 -0.0955,0.02871 -0.0236,0.0015 -0.0439,0.0015 -0.0662,0.01012 -0.0152,0.0057 -0.0279,0.01215 -0.0431,0.0173 0.008,-0.06332 0.0173,-0.124423 0.0208,-0.187739 0.004,-0.04602 0.005,-0.09626 -0.004,-0.142277 -0.0138,-0.07049 -0.0102,-0.141724 -0.0243,-0.212955 -0.0173,-0.08117 -0.004,-0.167493 -0.0166,-0.250134 -0.004,-0.0208 -0.004,-0.04233 -0.006,-0.06405 -0.004,-0.03442 -0.0208,-0.06957 -0.0279,-0.10344 -0.0166,-0.07049 -0.0339,-0.144486 -0.0346,-0.216452 -0.0353,0 -0.0317,0.07197 -0.0353,0.141724 -0.004,0.0243 -0.007,0.04804 -0.0116,0.07178 0,-0.0086 0,-0.01657 0,-0.0243 0,-0.01012 0,-0.02025 0,-0.03037 -0.007,0.02374 -0.0169,0.04675 -0.0229,0.06902 -0.0194,0.06184 -0.0303,0.119453 -0.0293,0.184058 0,0.03755 0.004,0.07418 -0.004,0.111539 -0.006,0.03313 -0.005,0.0646 -0.005,0.09774 0,0.0727 -0.004,0.145958 0,0.217924 0.004,0.08338 0.0187,0.164548 0.0244,0.246638 0,0.02503 0,0.05172 0.004,0.07694 -0.0339,-0.0059 -0.067,-0.01454 -0.0972,-0.0289 -0.004,0 -0.004,0 -0.006,-7.41e-4 -0.0159,-0.0013 -0.0222,0.0037 -0.0359,-0.0064 -0.0159,-0.01215 -0.0152,-0.03663 -0.0254,-0.04877 -0.0166,-0.02172 -0.0517,0.0072 -0.072,0.0028 -0.0236,-0.0057 -0.0438,-0.03368 -0.0574,-0.05319 -0.0102,-0.01288 -0.0166,-0.01932 -0.031,-0.02871 -0.0261,-0.0173 -0.0569,-0.03736 -0.0777,-0.06037 -0.0208,-0.02301 -0.0317,-0.05246 -0.051,-0.07694 -0.0325,-0.04325 -0.0849,-0.07049 -0.11081,-0.118717 -0.008,-0.01436 -0.0138,-0.03019 -0.0215,-0.04454 -0.0243,-0.05098 -0.0268,-0.09774 -0.0268,-0.156081 0,-0.08687 0,-0.173935 0,-0.26081 0,-0.01307 -0.0314,-0.03884 -0.048,-0.0086 -0.006,0.01067 -0.004,0.01932 -0.005,0.03092 -0.004,0.01215 -0.007,0.02301 -0.009,0.03589 -0.0187,0.102704 -0.10217,0.194181 -0.0591,0.303327 0.0109,0.02743 0.0282,0.0519 0.041,0.07841 0.0123,0.02595 0.0123,0.05319 0.0159,0.08135 0.008,0.04528 0.0166,0.09847 0.0332,0.140805 0.0152,0.03736 0.0229,0.07988 0.0466,0.111539 0.01,0.01215 0.0145,0.01436 0.0254,0.02374 0.018,0.01638 0.0215,0.04307 0.0374,0.06037 0.0261,0.02871 0.0626,0.03736 0.0972,0.05172 0.0353,0.01435 0.0675,0.03166 0.10417,0.04105 0.041,0.01067 0.0812,0.03865 0.11134,0.06902 0.0173,0.01638 0.031,0.03221 0.0433,0.05172 0.0173,0.0265 0.0346,0.03313 0.0683,0.03442 0.0325,0.0015 0.0582,-0.0086 0.0891,-0.0028 0.006,7.4e-4 0.0109,0.0015 0.0173,0.002 0,0.01509 0,0.02963 -0.004,0.04399 -0.004,0.04951 -0.008,0.09847 -0.0138,0.147247 -0.0194,-0.0035 -0.0374,-0.0092 -0.0554,-0.01215 -0.0145,-0.0015 -0.0317,-0.0042 -0.0453,-0.0015 -0.0251,0.0059 -0.0475,0.03884 -0.074,0.04105 -0.0131,0.0022 -0.0346,-7.41e-4 -0.0475,-0.0037 -0.0222,-0.005 -0.0403,-0.0265 -0.0625,-0.03019 -0.018,-0.0035 -0.0525,0.0029 -0.0325,0.01583 -0.0155,-7.4e-4 -0.012,0.09497 -0.0127,0.102889 0,0.02448 -0.009,0.04951 0.007,0.06534 0.0102,0.01013 0.0208,0.0087 0.0317,0.01013 0.0166,7.41e-4 0.0286,0.0086 0.0438,0.01141 0.0388,0.0066 0.0697,-0.02356 0.10636,-0.02153 0.0376,0.0022 0.0734,-0.005 0.11081,-0.002 0.005,0 0.0102,0 0.0152,0 0,0.0042 0,0.0072 0,0.01067 -0.004,0.06037 -0.004,0.121478 -0.004,0.183322 -0.0116,-0.0035 -0.0243,-0.0072 -0.0368,-0.0087 -0.0145,-0.002 -0.0317,-0.005 -0.0453,-0.002 -0.0251,0.0064 -0.0475,0.03957 -0.074,0.0416 -0.0131,7.41e-4 -0.0346,-0.0015 -0.0475,-0.0042 -0.0222,-0.0057 -0.0403,-0.02595 -0.0625,-0.03019 -0.018,-0.0037 -0.0525,0.0028 -0.0325,0.01657 -0.0155,-0.0015 -0.012,0.09405 -0.0127,0.102704 0,0.02448 -0.009,0.04822 0.007,0.06479 0.0102,0.0094 0.0208,0.0086 0.0317,0.0094 0.0166,0.002 0.0286,0.0092 0.0438,0.01215 0.0388,0.0064 0.0697,-0.02301 0.10636,-0.0208 0.0376,0.0013 0.0735,-0.0052 0.11081,-0.0037 0.004,7.41e-4 0.008,7.41e-4 0.0109,7.41e-4 0,0.04822 0,0.09626 -0.004,0.144486 -0.0113,-0.0035 -0.0222,-0.0064 -0.0332,-0.0079 -0.0145,-0.0015 -0.0317,-0.005 -0.0453,-0.0015 -0.0251,0.0059 -0.0475,0.0381 -0.074,0.04104 -0.013,0.0015 -0.0346,-0.0015 -0.0475,-0.0035 -0.0222,-0.0059 -0.0403,-0.02669 -0.0626,-0.03092 -0.018,-0.0029 -0.0524,0.0028 -0.0324,0.01638 -0.0155,-0.0013 -0.012,0.09424 -0.0127,0.102889 0,0.02374 -0.009,0.04896 0.007,0.06479 0.0102,0.0099 0.0208,0.0085 0.0317,0.0099 0.0166,0.0015 0.0286,0.0086 0.0438,0.0116 0.0388,0.0064 0.0697,-0.02301 0.10636,-0.02098 0.0376,0.0022 0.0734,-0.0042 0.11081,-0.0028 h 0.004 c 0,0.01583 0,0.03166 0,0.04675 0.004,0.07178 0.018,0.142276 0.0229,0.213507 0.008,0.125159 0.0229,0.250135 0.0222,0.375294 0,0.148167 -0.005,0.292652 0.025,0.43861 0.0166,0.08411 0.044,0.171726 0.0447,0.256577 0.009,0.02153 0.0201,0.04252 0.0394,0.04399 0.031,0.0035 0.0226,-0.03681 0.0226,-0.05835 0,-0.0265 -0.01,-0.04749 -0.01,-0.07399 0,-0.02669 -0.004,-0.05687 0,-0.08264 0.01,-0.04675 0.0272,-0.09571 0.0396,-0.143933 0.007,-0.03295 0.013,-0.06608 0.0229,-0.09994 0.0201,-0.07473 0.051,-0.148719 0.0597,-0.226391 0.01,-0.08338 -0.005,-0.170438 -0.009,-0.253816 -0.004,-0.08706 -0.004,-0.174671 -0.0127,-0.26173 -0.005,-0.05467 -0.0109,-0.108594 -0.0159,-0.162524 0.012,-0.0013 0.0243,-0.0035 0.0374,-0.005 0.0325,-0.005 0.0639,-0.0015 0.0962,-0.0079 0.0145,-0.0029 0.0222,-0.0057 0.0367,0.0022 0.0116,0.0057 0.0187,0.01436 0.0325,0.01509 0.0324,0.002 0.0324,-0.0324 0.0482,-0.05835 0.0145,0.0094 0.0229,0.0138 0.0381,0.0015 0.005,-0.0042 0.008,-0.01141 0.0131,-0.01509 0.0102,-0.0079 0.0229,-0.0072 0.0346,-0.01141 -0.01,-0.02522 -0.0109,-0.04822 -0.01,-0.07767 0,-0.01233 0,-0.02669 0.004,-0.0381 0.004,-0.01583 0.0201,-0.0289 0.0159,-0.04822 -0.0388,0.02227 -0.0799,0.01933 -0.1202,0.03019 -0.0265,0.0079 -0.0532,0.0044 -0.0789,0.0022 -0.0289,-0.0015 -0.0576,-0.0037 -0.0856,0.0072 -0.0222,0.0079 -0.044,0.01215 -0.067,0.01141 v -0.131417 c 0.0138,-7.41e-4 0.0282,-0.0029 0.0433,-0.0044 0.0324,-0.005 0.0639,-0.0029 0.0962,-0.0086 0.0145,-0.0028 0.0222,-0.0057 0.0367,0.0015 0.0116,0.0064 0.0187,0.01509 0.0324,0.01583 0.0325,0.0022 0.0325,-0.0324 0.0482,-0.0589 0.0145,0.0099 0.0229,0.01362 0.0381,0.002 0.005,-0.0042 0.008,-0.01141 0.0131,-0.01509 0.0102,-0.0086 0.0229,-0.0064 0.0346,-0.01067 -0.01,-0.02595 -0.0109,-0.04896 -0.01,-0.07841 0,-0.01215 0,-0.02669 0.004,-0.0381 0.004,-0.01583 0.0201,-0.02945 0.0159,-0.04822 -0.0388,0.02227 -0.0799,0.01951 -0.12019,0.03019 -0.0265,0.0072 -0.0532,0.0044 -0.079,0.0022 -0.0289,-0.0015 -0.0576,-0.0042 -0.0856,0.0064 -0.0243,0.0094 -0.0475,0.01436 -0.0734,0.01233 -0.004,-0.06056 -0.009,-0.120926 -0.0145,-0.18056 0.0215,7.4e-4 0.0418,-0.0022 0.0641,-0.005 0.0324,-0.0052 0.0639,-0.0022 0.0962,-0.0079 0.0145,-0.0037 0.0222,-0.0057 0.0367,0.0015 0.0116,0.0057 0.0187,0.01509 0.0324,0.01583 0.0325,0.0013 0.0325,-0.03166 0.0482,-0.05908 0.0145,0.01012 0.0229,0.01362 0.0381,0.0022 0.005,-0.0042 0.008,-0.0116 0.0131,-0.01583 0.0102,-0.0079 0.0229,-0.0064 0.0346,-0.01086 -0.01,-0.02577 -0.0109,-0.04804 -0.01,-0.07749 0,-0.01233 0,-0.02669 0.004,-0.03884 0.004,-0.01583 0.0201,-0.0289 0.0159,-0.04749 -0.0388,0.02227 -0.0799,0.01933 -0.12019,0.03018 -0.0265,0.0072 -0.0532,0.0042 -0.0789,0.0022 -0.0289,-0.0022 -0.0576,-0.0037 -0.0856,0.0072 -0.0254,0.0086 -0.0475,0.01362 -0.0742,0.01141 -0.01,-0.0015 -0.0208,-0.0035 -0.031,-0.0057 -0.004,-0.04896 -0.007,-0.097 -0.0106,-0.145958 0,-0.0079 0.004,-0.01509 0.004,-0.02301 h 0.0293 c 0.0454,0.0022 0.0856,-0.03019 0.13011,-0.03884 0.0229,-0.0042 0.0433,-0.0042 0.0655,-0.0042 0.0166,0 0.0325,-0.0059 0.0475,-0.0094 0.0286,-0.0064 0.0596,-0.0079 0.0869,-0.01951 0.0583,-0.02503 0.1029,-0.06681 0.14249,-0.115036 0.0215,-0.02577 0.051,-0.04528 0.0747,-0.07049 0.0194,-0.0208 0.0388,-0.0416 0.0596,-0.06037 0.0467,-0.04233 0.10365,-0.08043 0.13237,-0.138043 0.0317,-0.0624 0.0187,-0.144486 0.0194,-0.212035"
       style="fill:#21201d;fill-opacity:1;fill-rule:nonzero;stroke:none;stroke-width:0.184057"
       id="path638" />
    <path
       d="m 463.2778,-18.316405 c 0,0.01583 0.018,0.03018 0.0272,0.04178 0.0166,0.01712 0.0339,0.03295 0.0502,0.04951 -0.007,-0.01362 -0.0152,-0.02798 -0.0243,-0.03957 -0.0159,-0.01785 -0.0368,-0.03368 -0.0532,-0.05172"
       style="fill:#21201d;fill-opacity:1;fill-rule:nonzero;stroke:none;stroke-width:0.184057"
       id="path640" />
    <path
       d="m 464.40369,-18.46586 c -0.0445,-0.04601 -0.0972,-0.08356 -0.14245,-0.129576 -0.0201,-0.02006 -0.0401,-0.04233 -0.0632,-0.06037 0,7.41e-4 0,0.0015 0,0.0022 -0.004,-0.0042 -0.008,-0.0072 -0.0127,-0.01086 0.004,0.0029 0.008,0.0059 0.0124,0.0086 0,-0.0035 -0.004,-0.0064 -0.005,-0.0092 -0.005,-0.0044 -0.012,-0.0074 -0.0187,-0.0086 -0.008,-0.0059 -0.0173,-0.01086 -0.0261,-0.0173 -0.0418,-0.03092 -0.0985,-0.01951 -0.14813,-0.0116 -0.018,0.0022 -0.0359,0.0029 -0.0539,0.0022 -0.0286,-0.0015 -0.0265,-0.0015 -0.0303,0.0381 0.0353,0 0.0655,0.0072 0.0972,0.02522 0.0279,0.01509 0.0574,0.02374 0.0834,0.04233 0.0215,0.01657 0.0445,0.03018 0.0676,0.04528 0.0254,0.01877 0.046,0.04546 0.0705,0.06552 0.01,0.0086 0.0201,0.0173 0.031,0.02595 0.0272,0.06957 0.0495,0.139332 0.0604,0.21498 0.006,0.04454 0.0229,0.09332 0.0222,0.136571 0,0.06755 -0.012,0.137307 -0.0272,0.200623 -0.0102,0.0416 -0.0282,0.07749 -0.0418,0.117061 -0.012,0.03534 -0.0229,0.05908 -0.0467,0.08853 -0.0159,0.01785 -0.0293,0.03092 -0.0388,0.05246 -0.007,0.01509 -0.012,0.02945 -0.0194,0.04233 -0.0388,-0.04878 -0.0755,-0.09994 -0.11797,-0.145958 -0.0303,-0.03515 -0.0648,-0.07178 -0.1029,-0.09773 -0.0604,-0.04031 -0.10785,-0.0935 -0.16821,-0.133074 -0.0698,-0.04602 -0.12149,-0.115589 -0.18831,-0.165284 -0.018,-0.01288 -0.0332,-0.02798 -0.0497,-0.04031 -0.0286,-0.02227 -0.0639,-0.03589 -0.094,-0.05466 -0.0611,-0.0381 -0.12665,-0.07749 -0.17689,-0.12792 -0.0254,0.02522 0.0272,0.07344 0.0747,0.125159 0.0166,0.01785 0.0296,0.0381 0.0431,0.05816 -0.006,-0.0057 -0.0113,-0.01141 -0.0169,-0.0173 -0.007,-0.0072 -0.0145,-0.01435 -0.0219,-0.0208 0.0116,0.02153 0.0219,0.04454 0.0325,0.06553 0.0303,0.05669 0.0633,0.104913 0.10932,0.150191 0.0272,0.02669 0.0539,0.05172 0.0762,0.08191 0.0194,0.02742 0.0423,0.0497 0.0661,0.0727 0.0519,0.05098 0.10142,0.104913 0.15462,0.153872 0.0604,0.0554 0.1294,0.102705 0.19198,0.15737 0.018,0.01583 0.0366,0.0346 0.0554,0.05246 -0.0279,0.01951 -0.0569,0.03681 -0.0883,0.04822 -0.004,0.0015 -0.004,0.0015 -0.005,0.0029 -0.012,0.01067 -0.0131,0.01859 -0.0303,0.0208 -0.0194,0.0029 -0.0359,-0.01509 -0.0525,-0.0173 -0.0268,-0.0028 -0.0303,0.04252 -0.049,0.05393 -0.0201,0.0116 -0.0546,0.0064 -0.0782,0.0037 -0.0159,-0.0029 -0.0254,-0.0022 -0.0418,7.41e-4 -0.031,0.0057 -0.0668,0.01435 -0.097,0.01215 -0.0318,-0.0015 -0.0604,-0.01509 -0.0907,-0.01859 -0.0538,-0.0066 -0.10989,0.01068 -0.16309,-0.0052 -0.0152,-0.005 -0.0303,-0.01141 -0.0453,-0.01712 -0.0547,-0.01804 -0.0885,-0.05043 -0.13014,-0.09074 -0.0618,-0.06037 -0.1222,-0.123687 -0.18404,-0.184794 -0.01,-0.0085 -0.0505,-0.005 -0.0411,0.02816 0.004,0.01141 0.012,0.01583 0.0187,0.02503 0.007,0.01086 0.012,0.02098 0.0201,0.03166 0.0582,0.08632 0.0646,0.21001 0.17173,0.256025 0.0275,0.01141 0.0576,0.01657 0.0843,0.02669 0.0279,0.0099 0.046,0.02945 0.0696,0.04657 0.0368,0.02669 0.0806,0.05761 0.1222,0.07565 0.0368,0.01638 0.0735,0.04012 0.11229,0.04601 0.0152,0.0028 0.0201,-7.41e-4 0.0342,-7.41e-4 0.0243,0 0.0453,0.01583 0.0698,0.01657 0.0388,0.0013 0.0697,-0.01878 0.10435,-0.03313 0.0346,-0.01362 0.0705,-0.02448 0.1027,-0.04381 0.0374,-0.02172 0.0856,-0.03037 0.12809,-0.03037 0.0236,0 0.0438,7.41e-4 0.0668,0.0059 0.0318,0.0072 0.049,-7.4e-4 0.0733,-0.02374 0.0236,-0.02153 0.0339,-0.04749 0.0604,-0.06553 0.005,-0.0028 0.01,-0.0064 0.0145,-0.0099 0.009,0.01068 0.0194,0.02153 0.0286,0.03221 0.0318,0.0381 0.0633,0.07638 0.0948,0.114483 -0.0152,0.01068 -0.0328,0.01933 -0.0481,0.03074 -0.0109,0.0079 -0.0254,0.01878 -0.0324,0.03037 -0.0145,0.02227 -0.007,0.06111 -0.0236,0.0819 -0.008,0.01012 -0.0254,0.02374 -0.0366,0.03092 -0.0194,0.01141 -0.046,0.0087 -0.0655,0.02227 -0.0152,0.01086 -0.0353,0.03884 -0.0106,0.03442 -0.0123,0.01012 0.0574,0.07565 0.0631,0.08209 0.0159,0.01785 0.0289,0.04086 0.0505,0.04086 0.0145,0 0.0208,-0.0085 0.03,-0.01638 0.0131,-0.0094 0.0261,-0.01307 0.0388,-0.02245 0.0325,-0.02227 0.0332,-0.0646 0.0604,-0.08982 0.0279,-0.02522 0.0482,-0.0554 0.0762,-0.0797 0.005,-0.0037 0.007,-0.0072 0.0116,-0.01012 0.004,0.0022 0.004,0.005 0.006,0.0079 0.0403,0.04528 0.0841,0.08761 0.12717,0.130865 -0.0106,0.0064 -0.0215,0.01288 -0.0317,0.0208 -0.0113,0.0079 -0.0258,0.01804 -0.0328,0.03019 -0.013,0.02153 -0.007,0.06111 -0.0229,0.08135 -0.009,0.01067 -0.0261,0.02356 -0.0361,0.03019 -0.0208,0.01288 -0.0475,0.0099 -0.0668,0.02301 -0.0152,0.01067 -0.0353,0.03939 -0.0109,0.03442 -0.012,0.01086 0.0583,0.0762 0.0626,0.08191 0.0173,0.01804 0.0296,0.04104 0.0519,0.04104 0.0138,0 0.0201,-0.0087 0.0293,-0.01509 0.0127,-0.01012 0.0265,-0.01435 0.0396,-0.02301 0.0314,-0.02227 0.0328,-0.06534 0.0596,-0.09056 0.0272,-0.02448 0.0488,-0.0554 0.0769,-0.08062 0.004,-0.002 0.006,-0.0042 0.008,-0.0072 0.0335,0.0346 0.0668,0.06902 0.0992,0.104361 -0.0102,0.0057 -0.0201,0.01141 -0.0289,0.01785 -0.0106,0.0086 -0.025,0.01951 -0.0321,0.03092 -0.0145,0.02227 -0.007,0.06111 -0.0236,0.08135 -0.009,0.01141 -0.0261,0.02448 -0.0361,0.03092 -0.0201,0.01215 -0.0473,0.0099 -0.0661,0.02227 -0.0152,0.01141 -0.0353,0.04031 -0.0106,0.03515 -0.0123,0.01013 0.0574,0.07473 0.0624,0.08135 0.0166,0.01859 0.0289,0.04086 0.0512,0.04086 0.0138,0 0.0208,-0.0086 0.0303,-0.01583 0.012,-0.0099 0.0265,-0.01362 0.0381,-0.02153 0.0328,-0.02301 0.0335,-0.06534 0.0604,-0.09056 0.0279,-0.02448 0.049,-0.0554 0.077,-0.08062 0,-5.65e-4 0.004,-0.0013 0.004,-0.002 0.0106,0.01141 0.0215,0.02227 0.0328,0.03295 0.0525,0.04896 0.11356,0.0878 0.16747,0.135283 0.12957,0.112827 0.21424,0.181849 0.28052,0.249398 0.10418,0.105834 0.20412,0.208538 0.32781,0.291916 0.0712,0.04749 0.1524,0.09 0.21276,0.150375 0.0222,0.0085 0.0453,0.01509 0.0591,0.0028 0.0243,-0.02006 -0.01,-0.0416 -0.0243,-0.05669 -0.0201,-0.01804 -0.0411,-0.02742 -0.0591,-0.04601 -0.0187,-0.01877 -0.0438,-0.03736 -0.0582,-0.05835 -0.0272,-0.04012 -0.0489,-0.08688 -0.0747,-0.129392 -0.018,-0.02945 -0.0374,-0.05743 -0.0539,-0.08632 -0.0388,-0.06902 -0.069,-0.14154 -0.11797,-0.202647 -0.0532,-0.06626 -0.12368,-0.117981 -0.18609,-0.174671 -0.064,-0.05908 -0.12661,-0.119454 -0.19342,-0.176144 -0.0418,-0.03534 -0.0856,-0.06847 -0.12736,-0.102888 0.008,-0.0094 0.0166,-0.01878 0.0236,-0.02945 0.0194,-0.02669 0.0445,-0.04822 0.0625,-0.07418 0.009,-0.01215 0.0123,-0.02006 0.0275,-0.02503 0.012,-0.0037 0.0236,-0.0029 0.0335,-0.0116 0.0243,-0.02153 0,-0.04528 -0.007,-0.07546 0.0166,-0.0029 0.0254,-0.0064 0.0279,-0.0265 0,-0.0059 -0.004,-0.01307 -0.004,-0.01951 0.004,-0.01362 0.0113,-0.02153 0.0173,-0.03239 -0.025,-0.01141 -0.0423,-0.02577 -0.0618,-0.04804 -0.008,-0.0094 -0.0194,-0.01804 -0.0251,-0.0289 -0.008,-0.01436 -0.006,-0.03515 -0.0229,-0.04454 -0.0116,0.04178 -0.0425,0.06902 -0.064,0.10565 -0.0131,0.02375 -0.0335,0.04031 -0.0532,0.05761 -0.0215,0.01859 -0.0438,0.0381 -0.0561,0.0646 -0.01,0.02245 -0.0222,0.04031 -0.0394,0.0554 -0.031,-0.03092 -0.0626,-0.06111 -0.0928,-0.09277 0.01,-0.0099 0.018,-0.02153 0.0272,-0.03368 0.0194,-0.02595 0.0445,-0.04675 0.0618,-0.07418 0.008,-0.01215 0.012,-0.02006 0.0272,-0.02503 0.013,-0.0037 0.0243,-0.0022 0.0339,-0.01086 0.0254,-0.02153 0,-0.04528 -0.006,-0.0762 0.0166,-0.0029 0.0258,-0.0064 0.0272,-0.02595 0,-0.0064 -0.004,-0.01362 0,-0.01932 0,-0.01362 0.0116,-0.02153 0.0166,-0.03313 -0.0251,-0.01068 -0.0423,-0.02577 -0.0618,-0.04749 -0.008,-0.0092 -0.0194,-0.01859 -0.0258,-0.02945 -0.008,-0.01435 -0.006,-0.03442 -0.0222,-0.04454 -0.0116,0.04252 -0.0433,0.06976 -0.064,0.106386 -0.0131,0.02374 -0.0339,0.04031 -0.0539,0.05687 -0.0208,0.01933 -0.0438,0.0381 -0.0561,0.06534 -0.01,0.02375 -0.0229,0.04325 -0.0431,0.05964 -0.0453,-0.03865 -0.092,-0.07749 -0.13804,-0.116325 0.0152,-0.01509 0.0286,-0.03092 0.0416,-0.04969 0.0194,-0.02522 0.0447,-0.04675 0.0626,-0.07326 0.008,-0.01307 0.0123,-0.02025 0.0275,-0.02522 0.012,-0.0037 0.0243,-0.0022 0.0335,-0.0116 0.0244,-0.02227 0,-0.04528 -0.007,-0.07546 0.0166,-0.0028 0.0258,-0.0072 0.0282,-0.02577 0,-0.0064 -0.004,-0.0138 -0.004,-0.01951 0.004,-0.01362 0.012,-0.02153 0.0173,-0.0324 -0.0254,-0.01141 -0.0426,-0.0265 -0.0618,-0.04878 -0.008,-0.0086 -0.0187,-0.01877 -0.0254,-0.02871 -0.008,-0.0138 -0.006,-0.0346 -0.0229,-0.04473 -0.0109,0.04252 -0.0423,0.06976 -0.0641,0.106386 -0.0127,0.02374 -0.0335,0.03957 -0.0539,0.05687 -0.0215,0.01877 -0.0431,0.0381 -0.0552,0.06552 -0.0109,0.02356 -0.0236,0.04307 -0.044,0.06037 -0.008,0.0064 -0.0166,0.01215 -0.0258,0.01786 -0.0374,-0.03166 -0.0742,-0.06313 -0.11081,-0.09626 -0.004,-0.0057 -0.01,-0.01159 -0.0138,-0.01804 0.008,-0.0072 0.0145,-0.01435 0.0215,-0.0208 0.0332,-0.03092 0.0388,-0.08264 0.0641,-0.120006 0.0138,-0.01951 0.0265,-0.03313 0.0438,-0.04969 0.0109,-0.01141 0.0173,-0.02595 0.0268,-0.03957 0.0155,-0.02577 0.0366,-0.04804 0.0473,-0.07546 0.0236,-0.05816 0.0243,-0.120006 0.0201,-0.18185 -0.004,-0.03387 0.004,-0.06829 0.004,-0.102888 0,-0.02871 0,-0.05669 0,-0.08559 0.004,-0.06184 0.0166,-0.129393 -0.004,-0.1905 -0.0222,-0.06608 -0.0883,-0.115036 -0.13582,-0.163812"
       style="fill:#21201d;fill-opacity:1;fill-rule:nonzero;stroke:none;stroke-width:0.184057"
       id="path642" />
    <path
       d="m 462.14313,-15.63965 c 0.0124,0.01086 0.0346,0.0094 0.0497,0.01012 0.0229,7.41e-4 0.0467,7.41e-4 0.0698,0 -0.0152,-0.0052 -0.0303,-0.0094 -0.0446,-0.01086 -0.0243,-0.0015 -0.0497,0.0015 -0.0749,7.41e-4"
       style="fill:#21201d;fill-opacity:1;fill-rule:nonzero;stroke:none;stroke-width:0.184057"
       id="path644" />
    <path
       d="m 462.83404,-16.54043 c -0.0646,-7.4e-4 -0.12791,0.0099 -0.19251,0.0092 -0.0289,-7.4e-4 -0.0591,-0.002 -0.0871,0.0022 0,0 0,7.41e-4 0.004,7.41e-4 -0.007,0 -0.0123,7.41e-4 -0.0173,0.0015 0.004,-7.4e-4 0.01,-0.0015 0.0152,-0.0022 -0.004,-0.0022 -0.007,-0.0035 -0.0109,-0.0035 -0.006,0 -0.0127,0.0042 -0.0194,0.0072 -0.01,0.002 -0.0194,0.0035 -0.0293,0.0057 -0.0512,0.0079 -0.0841,0.05595 -0.11374,0.09626 -0.0106,0.01509 -0.0236,0.02816 -0.0359,0.03957 -0.0208,0.02006 -0.0208,0.01877 0.005,0.04822 0.0251,-0.02522 0.0525,-0.04105 0.0869,-0.05117 0.03,-0.0077 0.0576,-0.02356 0.0885,-0.02724 0.0272,-0.0042 0.0525,-0.01141 0.0797,-0.01583 0.0317,-0.005 0.0648,-0.0015 0.0972,-0.0042 0.0127,-7.41e-4 0.0258,-0.0022 0.0394,-0.0037 0.069,0.03092 0.13381,0.06405 0.19417,0.110067 0.0366,0.0265 0.0827,0.04877 0.11282,0.08117 0.046,0.04749 0.0878,0.104913 0.12224,0.161051 0.0229,0.03589 0.0353,0.07344 0.0539,0.111539 0.0152,0.03368 0.0254,0.05816 0.0289,0.09553 0,0.02374 0,0.04325 0.01,0.06552 0.005,0.01509 0.0123,0.02798 0.0166,0.04307 -0.0626,-0.0079 -0.12443,-0.0173 -0.18683,-0.0208 -0.046,-0.0022 -0.0965,-0.0044 -0.14246,0.0042 -0.0705,0.01435 -0.14227,0.01086 -0.21276,0.02522 -0.0814,0.01657 -0.1675,0.0035 -0.25015,0.01583 -0.0212,0.0028 -0.0425,0.0042 -0.064,0.0064 -0.0353,0.005 -0.0698,0.0208 -0.10439,0.02871 -0.0703,0.01657 -0.14446,0.03387 -0.21551,0.03387 0,0.03589 0.0711,0.0324 0.14079,0.03589 0.0243,0.0015 0.049,0.0064 0.0727,0.01086 h -0.0554 c 0.0236,0.0072 0.0467,0.0173 0.0697,0.02375 0.0618,0.01785 0.11853,0.02945 0.1833,0.02945 0.0388,-7.4e-4 0.074,-0.0022 0.11212,0.0035 0.0325,0.0059 0.0648,0.0044 0.0985,0.0044 0.072,0 0.14541,0.0028 0.2172,0 0.0826,-0.0044 0.16471,-0.01951 0.24663,-0.02522 0.0254,-7.41e-4 0.051,-7.41e-4 0.0769,-0.0015 -0.006,0.03387 -0.0145,0.06626 -0.0279,0.09718 0,0.0013 0,0.0028 0,0.005 0,0.01657 0.004,0.02301 -0.006,0.03589 -0.0116,0.01583 -0.0368,0.01509 -0.0497,0.02522 -0.0215,0.01657 0.008,0.05098 0.004,0.07252 -0.006,0.02319 -0.0339,0.04325 -0.0539,0.05761 -0.0123,0.01012 -0.0187,0.01657 -0.0289,0.03092 -0.0173,0.02522 -0.0366,0.05614 -0.0596,0.07694 -0.0229,0.0208 -0.0525,0.03239 -0.0777,0.05098 -0.0423,0.03239 -0.0697,0.08485 -0.11779,0.111539 -0.0145,0.0072 -0.0303,0.01288 -0.0453,0.0208 -0.0504,0.02448 -0.0972,0.02595 -0.15533,0.02669 -0.0871,0.0013 -0.17392,-7.41e-4 -0.26098,-7.41e-4 -0.0131,7.41e-4 -0.0388,0.03221 -0.01,0.04951 0.0116,0.0057 0.0194,0.0022 0.0317,0.0037 0.012,0.0028 0.0229,0.0072 0.0359,0.0094 0.10216,0.01933 0.1942,0.102704 0.30279,0.0589 0.0272,-0.01086 0.0525,-0.02816 0.0791,-0.04104 0.0265,-0.01215 0.0525,-0.01141 0.0812,-0.01583 0.0453,-0.0072 0.0985,-0.01657 0.141,-0.03295 0.0366,-0.01509 0.0797,-0.02246 0.11134,-0.04602 0.012,-0.01012 0.0145,-0.01509 0.0236,-0.02595 0.0166,-0.0173 0.0431,-0.02153 0.0604,-0.03663 0.0286,-0.02669 0.0366,-0.06332 0.0517,-0.09792 0.0145,-0.03515 0.0317,-0.06755 0.041,-0.104177 0.0109,-0.04104 0.0388,-0.08117 0.069,-0.112091 0.0166,-0.01657 0.0317,-0.02963 0.0517,-0.04178 0.0268,-0.01804 0.0339,-0.03515 0.0346,-0.06902 0,-0.0324 -0.01,-0.05743 -0.004,-0.08908 0,-0.0059 0,-0.0116 0.004,-0.0173 0.0152,0.0015 0.0293,0.0015 0.0438,0.0029 0.0497,0.0028 0.0978,0.0079 0.14746,0.01362 -0.005,0.01859 -0.01,0.03663 -0.0116,0.0554 -0.004,0.01288 -0.005,0.03092 -0.004,0.04454 0.006,0.02503 0.0381,0.04749 0.0409,0.07399 0,0.01362 0,0.03534 -0.004,0.04749 -0.006,0.02227 -0.0275,0.04031 -0.0303,0.06332 -0.004,0.01785 0.004,0.05172 0.0159,0.03166 0,0.01583 0.0948,0.01215 0.10196,0.01362 0.0254,7.41e-4 0.0497,0.0079 0.0663,-0.0079 0.01,-0.0094 0.008,-0.02025 0.01,-0.03166 0,-0.01583 0.008,-0.02798 0.0116,-0.04381 0.006,-0.03884 -0.0229,-0.06976 -0.0215,-0.106386 0,-0.03755 -0.005,-0.07344 -0.004,-0.110803 0,-0.005 0,-0.01012 0,-0.01436 0.004,0 0.006,0 0.01,0 0.0611,0.0042 0.12221,0.0035 0.18331,0.0028 -0.004,0.01307 -0.006,0.02522 -0.008,0.03755 -0.004,0.01288 -0.005,0.03092 -0.004,0.04454 0.006,0.02503 0.0388,0.04749 0.0418,0.07399 0,0.01362 0,0.03534 -0.005,0.04749 -0.006,0.02227 -0.0265,0.04031 -0.03,0.06332 -0.004,0.01785 0.004,0.05172 0.0166,0.03166 0,0.01583 0.0942,0.01215 0.10216,0.01362 0.0243,7.41e-4 0.0487,0.0079 0.0653,-0.0079 0.01,-0.0094 0.008,-0.02025 0.01,-0.03166 0.004,-0.01583 0.01,-0.02798 0.0113,-0.04381 0.007,-0.03884 -0.0229,-0.06976 -0.0208,-0.106386 0.004,-0.03755 -0.004,-0.07344 -0.004,-0.110803 0,-0.0037 0,-0.0072 0,-0.01086 0.0482,7.41e-4 0.0957,0.0015 0.14393,0.0037 -0.004,0.01068 -0.006,0.02153 -0.007,0.03313 0,0.01288 -0.005,0.03092 0,0.04454 0.006,0.02503 0.0381,0.04749 0.0408,0.07399 0,0.01362 0,0.03534 -0.004,0.04749 -0.006,0.02227 -0.0261,0.04031 -0.0303,0.06332 -0.004,0.01785 0.004,0.05172 0.0166,0.03166 0,0.01583 0.0943,0.01215 0.10269,0.01362 0.0236,7.4e-4 0.049,0.0079 0.0648,-0.0079 0.0102,-0.0094 0.008,-0.02025 0.0102,-0.03166 0,-0.01583 0.008,-0.02797 0.0113,-0.04381 0.006,-0.03884 -0.0229,-0.06976 -0.0208,-0.106385 0,-0.03755 -0.005,-0.07344 -0.004,-0.110803 v -0.0029 c 0.0166,0 0.0325,0 0.0475,-7.41e-4 0.072,-0.0028 0.14171,-0.01785 0.2135,-0.02227 0.12516,-0.0092 0.25029,-0.02301 0.37454,-0.02227 0.14891,7.41e-4 0.29337,0.0037 0.43861,-0.02577 0.0848,-0.01657 0.17191,-0.04325 0.25749,-0.04399 0.0215,-0.0099 0.0416,-0.0208 0.0438,-0.04012 0.004,-0.03092 -0.0367,-0.02246 -0.0582,-0.02172 -0.0268,0 -0.0475,0.0094 -0.0742,0.0094 -0.0265,0 -0.0567,0.0037 -0.0826,-7.41e-4 -0.0467,-0.0094 -0.0963,-0.02724 -0.14375,-0.03884 -0.0332,-0.0079 -0.0662,-0.01288 -0.0999,-0.02301 -0.0747,-0.0208 -0.14891,-0.05098 -0.22656,-0.06037 -0.0834,-0.0087 -0.17025,0.0052 -0.25439,0.0086 -0.0871,0.0037 -0.17409,0.0057 -0.26098,0.01288 -0.0547,0.0044 -0.10859,0.0116 -0.16327,0.01657 0,-0.01288 -0.004,-0.02503 -0.005,-0.0381 -0.005,-0.03166 -0.004,-0.06387 -0.008,-0.09553 -0.004,-0.01509 -0.006,-0.02301 0.004,-0.0381 0.006,-0.01086 0.0145,-0.01804 0.0152,-0.03092 0.004,-0.03313 -0.0317,-0.0324 -0.0582,-0.04896 0.01,-0.01362 0.0131,-0.02301 0,-0.0381 -0.004,-0.0042 -0.0109,-0.0079 -0.0145,-0.01288 -0.008,-0.01012 -0.007,-0.02301 -0.0116,-0.0346 -0.0261,0.0094 -0.049,0.01086 -0.0777,0.0094 -0.012,-7.4e-4 -0.0265,0 -0.0381,-0.0029 -0.0159,-0.0035 -0.0286,-0.01932 -0.0488,-0.01509 0.0222,0.03736 0.0201,0.07988 0.0307,0.12019 0.008,0.02577 0.004,0.05246 0.004,0.07822 0,0.0289 -0.004,0.05761 0.006,0.08559 0.008,0.02227 0.0124,0.04399 0.0116,0.06773 h -0.13162 c 0,-0.01454 -0.004,-0.02816 -0.004,-0.04399 -0.004,-0.03166 -0.004,-0.06387 -0.008,-0.09553 -0.004,-0.01509 -0.005,-0.02301 0.004,-0.0381 0.006,-0.01086 0.0152,-0.01804 0.0159,-0.03092 0,-0.03313 -0.0321,-0.0324 -0.0589,-0.04896 0.0102,-0.01362 0.0138,-0.02301 0,-0.0381 -0.004,-0.0042 -0.0109,-0.0079 -0.0152,-0.01288 -0.008,-0.01012 -0.006,-0.02301 -0.0102,-0.0346 -0.0265,0.0094 -0.0487,0.01086 -0.0784,0.0094 -0.012,-7.41e-4 -0.0265,0 -0.0388,-0.0029 -0.0159,-0.0035 -0.0286,-0.01932 -0.0473,-0.01509 0.0222,0.03736 0.0187,0.07988 0.0303,0.12019 0.007,0.02577 0.004,0.05246 0.004,0.07822 0,0.0289 -0.004,0.05761 0.007,0.08559 0.008,0.02448 0.0138,0.04822 0.012,0.07344 -0.0611,0.0042 -0.12072,0.0099 -0.18112,0.01509 0,-0.02153 0,-0.04252 -0.004,-0.06479 -0.005,-0.03166 -0.004,-0.06387 -0.008,-0.09553 -0.004,-0.01509 -0.006,-0.02301 0.004,-0.0381 0.004,-0.01086 0.0145,-0.01804 0.0152,-0.03092 0,-0.03313 -0.0325,-0.03239 -0.0581,-0.04896 0.008,-0.01362 0.012,-0.02301 0,-0.0381 -0.004,-0.0042 -0.0113,-0.0079 -0.0152,-0.01288 -0.008,-0.01012 -0.007,-0.02301 -0.0106,-0.0346 -0.0261,0.0094 -0.049,0.01086 -0.0784,0.0094 -0.0113,-7.41e-4 -0.0261,0 -0.0381,-0.0029 -0.0159,-0.0035 -0.0286,-0.01933 -0.0475,-0.01509 0.0215,0.03736 0.0194,0.07988 0.0303,0.12019 0.007,0.02577 0.004,0.05246 0.004,0.07822 -0.004,0.0289 -0.004,0.05761 0.006,0.08559 0.01,0.02522 0.0138,0.04822 0.0116,0.07418 0,0.0099 -0.004,0.0208 -0.006,0.03092 -0.048,0.0042 -0.097,0.0087 -0.14524,0.01068 -0.008,-0.0015 -0.0152,-0.002 -0.0229,-0.0035 v -0.03019 c 0,-0.04528 -0.031,-0.08485 -0.0388,-0.129576 -0.005,-0.02356 -0.005,-0.04381 -0.005,-0.06681 0,-0.01583 -0.006,-0.03092 -0.008,-0.04675 -0.006,-0.02871 -0.008,-0.05964 -0.0201,-0.08688 -0.0243,-0.05835 -0.0663,-0.102889 -0.1143,-0.142461 -0.0261,-0.02153 -0.046,-0.05098 -0.0705,-0.07473 -0.0208,-0.01878 -0.0418,-0.0381 -0.0611,-0.05963 -0.0418,-0.04601 -0.0799,-0.103625 -0.13731,-0.132338 -0.0626,-0.03092 -0.14449,-0.01878 -0.21223,-0.01933"
       style="fill:#21201d;fill-opacity:1;fill-rule:nonzero;stroke:none;stroke-width:0.184057"
       id="path646" />
    <path
       d="m 463.35531,-12.999523 c 0.0166,-0.0015 0.031,-0.01804 0.0418,-0.02743 0.0173,-0.01583 0.0332,-0.03295 0.0497,-0.05025 -0.0145,0.0072 -0.0275,0.01583 -0.0388,0.02448 -0.0187,0.01583 -0.0346,0.03589 -0.0526,0.05319"
       style="fill:#21201d;fill-opacity:1;fill-rule:nonzero;stroke:none;stroke-width:0.184057"
       id="path648" />
    <path
       d="m 463.20584,-14.124669 c -0.046,0.04454 -0.0834,0.097 -0.12937,0.142277 -0.0201,0.02006 -0.0425,0.04031 -0.0604,0.06332 0,-7.4e-4 0,-7.4e-4 0.004,-0.0015 -0.004,0.005 -0.008,0.0094 -0.0106,0.01362 0.004,-0.0042 0.006,-0.0087 0.008,-0.01215 -0.004,0.0015 -0.006,0.0028 -0.01,0.005 -0.005,0.005 -0.006,0.01159 -0.008,0.01877 -0.006,0.0085 -0.0113,0.01638 -0.0173,0.02503 -0.0303,0.04178 -0.0194,0.09921 -0.0113,0.148903 0.004,0.0173 0.004,0.03589 0.004,0.05319 0,0.02945 0,0.02724 0.0383,0.03092 0,-0.03589 0.007,-0.06552 0.025,-0.09774 0.0152,-0.02742 0.0236,-0.05761 0.0425,-0.08264 0.0173,-0.02245 0.0293,-0.04546 0.0453,-0.06773 0.0187,-0.02577 0.0453,-0.04675 0.0653,-0.07105 0.01,-0.01013 0.0173,-0.02025 0.0261,-0.03092 0.0697,-0.02743 0.14023,-0.04896 0.21498,-0.06037 0.0453,-0.0059 0.0935,-0.02245 0.1373,-0.02172 0.0668,7.41e-4 0.13656,0.01233 0.19989,0.02743 0.0416,0.0099 0.0777,0.02724 0.11722,0.0416 0.0346,0.01233 0.0589,0.02227 0.0884,0.04601 0.018,0.01657 0.0317,0.02945 0.0532,0.03957 0.0145,0.0064 0.0286,0.0116 0.0425,0.01951 -0.0504,0.0381 -0.0999,0.0762 -0.14672,0.11706 -0.0353,0.03092 -0.072,0.06479 -0.0977,0.103625 -0.0403,0.06037 -0.0935,0.107122 -0.13306,0.168229 -0.0453,0.06902 -0.11579,0.121478 -0.16549,0.188291 -0.0127,0.0173 -0.0272,0.03313 -0.0401,0.0497 -0.0222,0.02797 -0.0353,0.06405 -0.0546,0.09424 -0.0374,0.06111 -0.0777,0.125712 -0.12813,0.176144 0.0254,0.02577 0.0734,-0.02669 0.12517,-0.07418 0.018,-0.01657 0.0381,-0.02945 0.0589,-0.04381 l -0.0173,0.0173 c -0.007,0.0072 -0.0152,0.01436 -0.0215,0.02227 0.0222,-0.0116 0.0453,-0.02153 0.0653,-0.0324 0.0574,-0.03092 0.10566,-0.06332 0.15092,-0.110066 0.0261,-0.02724 0.0512,-0.05319 0.0821,-0.07546 0.0265,-0.02006 0.0488,-0.04307 0.0725,-0.06681 0.0512,-0.05098 0.10435,-0.101416 0.15314,-0.154609 0.0554,-0.06037 0.10287,-0.128656 0.15755,-0.191236 0.0166,-0.01859 0.0353,-0.03663 0.0525,-0.0554 0.0194,0.02743 0.0366,0.05614 0.0482,0.08853 0,0.0015 0.004,0.0035 0.004,0.0042 0.0102,0.01288 0.0187,0.01362 0.0201,0.03018 0.004,0.01951 -0.0152,0.03608 -0.0173,0.05246 -0.004,0.02743 0.0431,0.03092 0.0539,0.0497 0.012,0.01933 0.007,0.05393 0.004,0.07841 -0.004,0.01509 0,0.02503 0,0.0416 0.006,0.03019 0.0145,0.06626 0.0127,0.09718 -0.004,0.03148 -0.0159,0.05964 -0.0194,0.09056 -0.006,0.05319 0.0109,0.109882 -0.004,0.162523 -0.005,0.01509 -0.0123,0.03166 -0.0173,0.04601 -0.0187,0.05393 -0.0504,0.08835 -0.0913,0.129393 -0.0604,0.06258 -0.12368,0.12295 -0.18478,0.184058 -0.008,0.0099 -0.005,0.05025 0.0279,0.04086 0.012,-0.0028 0.0152,-0.01215 0.0254,-0.01785 0.0106,-0.0072 0.0208,-0.01233 0.0317,-0.02025 0.0862,-0.0589 0.20983,-0.06461 0.25583,-0.172463 0.0124,-0.02669 0.0173,-0.05687 0.0268,-0.08411 0.0102,-0.02798 0.0293,-0.04602 0.0468,-0.06902 0.0264,-0.03736 0.0582,-0.08135 0.0762,-0.12295 0.0159,-0.03663 0.0403,-0.0727 0.0453,-0.112092 0.004,-0.01454 0,-0.02025 0,-0.03387 0,-0.02448 0.0152,-0.04528 0.0159,-0.06976 0.004,-0.03884 -0.018,-0.0705 -0.0317,-0.104177 -0.0145,-0.03534 -0.0243,-0.07123 -0.0446,-0.103625 -0.0215,-0.03663 -0.0293,-0.08485 -0.0293,-0.127184 0,-0.02448 0,-0.04399 0.005,-0.067 0.007,-0.03148 0,-0.04804 -0.0229,-0.07326 -0.0222,-0.02374 -0.0482,-0.0346 -0.0661,-0.06037 -0.004,-0.005 -0.006,-0.0094 -0.0102,-0.01436 0.0113,-0.0086 0.0215,-0.02025 0.0325,-0.02945 0.0381,-0.03166 0.0762,-0.06258 0.1143,-0.09424 0.0106,0.01583 0.0201,0.03313 0.0311,0.04749 0.008,0.01068 0.0194,0.02503 0.0303,0.03295 0.0229,0.0138 0.0611,0.0066 0.0819,0.02301 0.0102,0.0087 0.0236,0.02595 0.0303,0.03681 0.0123,0.02006 0.01,0.04657 0.0229,0.06608 0.0109,0.01509 0.0388,0.03516 0.0346,0.01086 0.0106,0.01215 0.0755,-0.05835 0.0819,-0.06332 0.018,-0.01583 0.041,-0.02871 0.041,-0.05117 0,-0.01436 -0.009,-0.0208 -0.0159,-0.03019 -0.0102,-0.01215 -0.0138,-0.02577 -0.0229,-0.0381 -0.0215,-0.03221 -0.0648,-0.03295 -0.0898,-0.06111 -0.0243,-0.02724 -0.0554,-0.04804 -0.0806,-0.0762 -0.004,-0.0035 -0.006,-0.0072 -0.01,-0.01068 0.004,-0.0022 0.006,-0.0044 0.008,-0.0066 0.0453,-0.04086 0.0878,-0.08411 0.13088,-0.12792 0.006,0.0116 0.0127,0.02227 0.0208,0.03166 0.008,0.0116 0.0187,0.02595 0.0303,0.03387 0.0219,0.01362 0.0613,0.0057 0.0813,0.02301 0.0106,0.0087 0.0243,0.02503 0.0303,0.03589 0.0127,0.02006 0.0102,0.04749 0.0229,0.06608 0.0113,0.01509 0.0403,0.03534 0.0353,0.0116 0.0102,0.01141 0.0757,-0.05835 0.0813,-0.06332 0.018,-0.01657 0.0409,-0.02871 0.0409,-0.05172 0,-0.01362 -0.008,-0.02025 -0.0152,-0.02945 -0.01,-0.01233 -0.0145,-0.02595 -0.0229,-0.03884 -0.0222,-0.0324 -0.0653,-0.03313 -0.0898,-0.06037 -0.0254,-0.02743 -0.0562,-0.04896 -0.0804,-0.0762 -0.004,-0.0029 -0.005,-0.0059 -0.008,-0.0087 0.0346,-0.03313 0.0698,-0.06626 0.10418,-0.09847 0.006,0.0092 0.0116,0.01933 0.0187,0.02871 0.009,0.0099 0.0187,0.02522 0.0303,0.0324 0.0222,0.01436 0.0611,0.0064 0.0819,0.02301 0.0109,0.0085 0.0243,0.02577 0.0303,0.03736 0.012,0.01933 0.0102,0.04602 0.0229,0.06534 0.0109,0.01509 0.0395,0.03534 0.0346,0.01086 0.0106,0.01215 0.0755,-0.05761 0.0811,-0.06332 0.0187,-0.01657 0.0411,-0.02871 0.0411,-0.05098 0,-0.0138 -0.008,-0.02098 -0.0159,-0.02945 -0.01,-0.01233 -0.0131,-0.02669 -0.0215,-0.03884 -0.0233,-0.0324 -0.0656,-0.03313 -0.0907,-0.06056 -0.0243,-0.02724 -0.0552,-0.04877 -0.0804,-0.07694 0,-5.65e-4 0,-0.0013 0,-0.002 0.0109,-0.01086 0.0215,-0.02227 0.0324,-0.03387 0.0488,-0.05246 0.0883,-0.112827 0.13512,-0.166756 0.0819,-0.09424 0.1603,-0.193445 0.24955,-0.280504 0.10566,-0.104913 0.20835,-0.20412 0.29249,-0.327808 0.0467,-0.07178 0.09,-0.152399 0.14961,-0.213507 0.009,-0.02227 0.0159,-0.04454 0.004,-0.05816 -0.0194,-0.02522 -0.0418,0.0092 -0.0569,0.0243 -0.0173,0.01951 -0.0268,0.04031 -0.046,0.05908 -0.0187,0.01859 -0.0374,0.04307 -0.0589,0.05816 -0.0396,0.02669 -0.0863,0.04896 -0.1281,0.07473 -0.0293,0.01804 -0.0574,0.03755 -0.0869,0.05393 -0.069,0.0381 -0.14171,0.06902 -0.20284,0.117981 -0.0661,0.05319 -0.1178,0.123687 -0.17466,0.18553 -0.0589,0.06461 -0.11928,0.126448 -0.1754,0.193445 -0.0353,0.04233 -0.0683,0.0854 -0.10361,0.12792 -0.009,-0.0086 -0.0187,-0.01657 -0.0293,-0.02374 -0.0265,-0.01933 -0.0482,-0.04454 -0.074,-0.06258 -0.0123,-0.0087 -0.0201,-0.01215 -0.0254,-0.02724 -0.004,-0.01233 -0.004,-0.02374 -0.0113,-0.03387 -0.0219,-0.02448 -0.0454,0 -0.0756,0.0072 -0.004,-0.0173 -0.006,-0.02577 -0.0258,-0.02797 -0.006,-7.41e-4 -0.0145,0.0022 -0.0201,0.0015 -0.0138,-0.0015 -0.0208,-0.01086 -0.0321,-0.01657 -0.0109,0.02522 -0.0261,0.04233 -0.0482,0.06184 -0.01,0.0079 -0.018,0.01859 -0.0286,0.02522 -0.0145,0.0077 -0.0353,0.0064 -0.0447,0.02282 0.0425,0.01086 0.0697,0.04178 0.10657,0.06332 0.0229,0.01362 0.0394,0.03387 0.0567,0.05393 0.0187,0.02153 0.0381,0.04399 0.0648,0.05614 0.0222,0.01012 0.0403,0.02227 0.0559,0.03957 -0.0307,0.03092 -0.0616,0.06184 -0.0926,0.09276 -0.0109,-0.01012 -0.0219,-0.01877 -0.0339,-0.02816 -0.0268,-0.01859 -0.0475,-0.04381 -0.074,-0.06184 -0.013,-0.0079 -0.0201,-0.01215 -0.0254,-0.02651 -0.004,-0.01288 -0.004,-0.02448 -0.0116,-0.0346 -0.0215,-0.0243 -0.0453,0 -0.0755,0.0072 -0.004,-0.01638 -0.007,-0.02577 -0.0265,-0.02798 -0.006,-7.41e-4 -0.013,0.0029 -0.0187,0.0022 -0.0145,-0.0022 -0.0222,-0.01233 -0.0332,-0.0173 -0.0113,0.02522 -0.0265,0.04178 -0.048,0.06184 -0.008,0.0086 -0.0187,0.01933 -0.0289,0.02522 -0.0145,0.0086 -0.0353,0.0072 -0.0453,0.02301 0.0425,0.01141 0.0698,0.04233 0.10658,0.06313 0.0236,0.0138 0.0401,0.0346 0.0567,0.05466 0.0194,0.02098 0.0388,0.04325 0.0655,0.0554 0.0236,0.01086 0.0431,0.02374 0.0604,0.04307 -0.0396,0.04546 -0.0784,0.09203 -0.11727,0.138044 -0.0152,-0.01509 -0.031,-0.02871 -0.0497,-0.0416 -0.025,-0.01951 -0.0466,-0.04381 -0.0732,-0.06184 -0.012,-0.0086 -0.0201,-0.01288 -0.0254,-0.02797 -0.004,-0.01233 0,-0.02374 -0.0106,-0.03313 -0.0222,-0.02522 -0.046,0 -0.0755,0.0072 -0.004,-0.0173 -0.007,-0.02595 -0.0268,-0.02871 -0.006,0 -0.0131,0.0028 -0.0194,0.002 -0.0138,-0.002 -0.0219,-0.01141 -0.0325,-0.01712 -0.0116,0.02503 -0.0268,0.04233 -0.049,0.06184 -0.008,0.0086 -0.018,0.01859 -0.0279,0.02503 -0.0145,0.0086 -0.0353,0.0072 -0.0453,0.02301 0.0423,0.0116 0.0697,0.04252 0.1071,0.06479 0.0229,0.01288 0.0388,0.03387 0.0559,0.05319 0.0187,0.02153 0.0381,0.04381 0.0655,0.05614 0.0236,0.0099 0.043,0.02375 0.0604,0.04381 0.006,0.0079 0.012,0.01657 0.0173,0.02595 -0.0303,0.03663 -0.0626,0.07399 -0.095,0.110619 -0.006,0.0044 -0.012,0.0094 -0.018,0.01288 -0.008,-0.0072 -0.0145,-0.01436 -0.0219,-0.0208 -0.031,-0.03295 -0.0819,-0.03884 -0.11924,-0.06387 -0.0194,-0.0138 -0.0346,-0.02743 -0.0504,-0.04399 -0.012,-0.01141 -0.0258,-0.01785 -0.0387,-0.0265 -0.0258,-0.01583 -0.0489,-0.03663 -0.0764,-0.04749 -0.0582,-0.02448 -0.12001,-0.02522 -0.18111,-0.02006 -0.0346,0.0035 -0.0683,-0.0044 -0.10344,-0.0029 -0.0282,0.0015 -0.0561,0.0022 -0.0856,7.41e-4 -0.0618,-0.0029 -0.12883,-0.01657 -0.18994,0.0035 -0.0668,0.02227 -0.1156,0.08927 -0.16457,0.136755"
       style="fill:#21201d;fill-opacity:1;fill-rule:nonzero;stroke:none;stroke-width:0.184057"
       id="path650" />
    <path
       d="m 466.00407,-11.950577 c 0.0102,-0.01141 0.01,-0.03387 0.01,-0.04822 0,-0.02375 0,-0.04675 0,-0.07031 -0.005,0.01509 -0.008,0.03019 -0.0102,0.04454 0,0.0243 0,0.04951 0,0.07399"
       style="fill:#21201d;fill-opacity:1;fill-rule:nonzero;stroke:none;stroke-width:0.184057"
       id="path652" />
    <path
       d="m 465.10329,-12.640794 c 0,0.06405 0.008,0.12792 0.008,0.192708 0,0.02798 0,0.05816 0.004,0.08706 0,-7.41e-4 0,-0.0015 0,-0.0022 0,0.0064 0,0.01141 0,0.0173 0,-0.0052 0,-0.01012 -0.004,-0.01509 -0.004,0.0035 -0.004,0.0064 -0.004,0.01068 0,0.0064 0.004,0.01288 0.008,0.01877 0.004,0.0099 0.004,0.02006 0.005,0.03019 0.008,0.05098 0.0567,0.08338 0.097,0.112828 0.0145,0.0116 0.0275,0.02374 0.0396,0.03589 0.0194,0.02172 0.018,0.02172 0.0482,-0.005 -0.0254,-0.02448 -0.0411,-0.05172 -0.0511,-0.08632 -0.008,-0.03019 -0.0236,-0.05743 -0.0279,-0.08908 -0.004,-0.02669 -0.0106,-0.05246 -0.0152,-0.07915 -0.006,-0.03166 -0.004,-0.06534 -0.004,-0.097 0,-0.01288 -0.004,-0.02595 -0.004,-0.03957 0.0303,-0.06902 0.0633,-0.133811 0.10933,-0.194918 0.0265,-0.03589 0.0488,-0.08191 0.0812,-0.112827 0.0482,-0.04602 0.1051,-0.08688 0.16179,-0.122215 0.0353,-0.02227 0.0734,-0.03442 0.11081,-0.05319 0.0339,-0.01509 0.0582,-0.02595 0.0955,-0.02945 0.0236,-0.0015 0.0433,-0.0015 0.0663,-0.0094 0.0145,-0.0057 0.0279,-0.01288 0.0431,-0.01657 -0.008,0.06258 -0.0173,0.123687 -0.0208,0.186266 -0.004,0.04675 -0.004,0.097 0.004,0.143013 0.0138,0.0705 0.0102,0.141725 0.0244,0.212955 0.0173,0.08043 0.004,0.166757 0.0166,0.249399 0.004,0.02153 0.004,0.04307 0.006,0.06479 0.004,0.03442 0.0201,0.06976 0.0279,0.104177 0.0166,0.06976 0.0339,0.144486 0.0346,0.215716 0.0353,0 0.0317,-0.07123 0.0353,-0.141725 0.004,-0.0243 0.007,-0.04804 0.0116,-0.07178 v 0.05466 c 0.006,-0.02374 0.0166,-0.04675 0.0236,-0.06902 0.018,-0.06184 0.0286,-0.119453 0.0286,-0.184058 0,-0.03755 -0.004,-0.07418 0.004,-0.111538 0.005,-0.03313 0.005,-0.0646 0.005,-0.09847 0,-0.07197 0.004,-0.145221 0,-0.217924 -0.004,-0.08191 -0.0194,-0.163076 -0.0243,-0.246454 0,-0.02448 0,-0.05117 -0.004,-0.07638 0.0339,0.0059 0.067,0.01454 0.0972,0.02816 0,7.41e-4 0.004,7.41e-4 0.006,0.0015 0.0159,7.41e-4 0.0222,-0.0037 0.0353,0.0057 0.0166,0.01215 0.0159,0.03736 0.0254,0.04951 0.0166,0.02172 0.0517,-0.0072 0.0727,-0.0028 0.0229,0.0064 0.0438,0.03368 0.0574,0.05319 0.0102,0.01288 0.0166,0.01933 0.031,0.02945 0.0261,0.01657 0.0569,0.03589 0.0777,0.05964 0.0208,0.02301 0.0317,0.05246 0.051,0.07694 0.0332,0.04325 0.0848,0.07049 0.11155,0.118717 0.006,0.01436 0.0131,0.03019 0.0208,0.04454 0.0243,0.05099 0.0258,0.09774 0.0268,0.156082 0,0.08688 0,0.173198 0,0.260258 0,0.01362 0.0317,0.03939 0.0488,0.0092 0.006,-0.01068 0.004,-0.01933 0.005,-0.03092 0.004,-0.01215 0.007,-0.02356 0.01,-0.03589 0.0187,-0.102704 0.10198,-0.194733 0.0582,-0.303327 -0.0109,-0.02742 -0.0279,-0.05246 -0.0403,-0.07841 -0.012,-0.02669 -0.012,-0.05319 -0.0166,-0.08117 -0.007,-0.04546 -0.0159,-0.09866 -0.0328,-0.140988 -0.0145,-0.03736 -0.0222,-0.08062 -0.046,-0.111539 -0.01,-0.01215 -0.0145,-0.01436 -0.0251,-0.02356 -0.018,-0.01657 -0.0215,-0.04325 -0.0374,-0.06129 -0.0268,-0.02871 -0.0633,-0.03663 -0.0977,-0.05025 -0.0346,-0.01509 -0.067,-0.0324 -0.10361,-0.04178 -0.0411,-0.01141 -0.0812,-0.03939 -0.11211,-0.06902 -0.0166,-0.01638 -0.0303,-0.03148 -0.0425,-0.05172 -0.0173,-0.02724 -0.0353,-0.03368 -0.0683,-0.03442 -0.0324,-0.0015 -0.0582,0.0087 -0.0899,0.0028 -0.005,-7.4e-4 -0.0109,-0.0013 -0.0166,-0.0028 0,-0.01362 0,-0.0289 0,-0.04325 0.004,-0.04951 0.01,-0.09847 0.0145,-0.147246 0.0194,0.0035 0.0374,0.0092 0.0554,0.01141 0.0138,0.0015 0.0318,0.005 0.0446,0.0015 0.025,-0.005 0.0482,-0.0381 0.0747,-0.04105 0.0131,-0.0015 0.0353,7.41e-4 0.0475,0.0044 0.0222,0.005 0.0396,0.0265 0.0626,0.03019 0.018,0.0035 0.0525,-0.0029 0.0325,-0.01657 0.0159,0.0015 0.012,-0.09424 0.0127,-0.102152 0,-0.02448 0.008,-0.04877 -0.008,-0.06534 -0.01,-0.01013 -0.0201,-0.0087 -0.031,-0.01013 -0.0166,-0.0015 -0.0286,-0.0086 -0.0438,-0.01141 -0.0388,-0.0066 -0.0698,0.02301 -0.1064,0.02153 -0.0375,-0.0015 -0.0734,0.005 -0.11154,0.002 -0.004,0 -0.01,-5.64e-4 -0.0145,-5.64e-4 0,-0.0029 0,-0.0066 0,-0.01013 0.004,-0.06037 0.004,-0.122215 0.004,-0.183322 0.012,0.0035 0.0251,0.0072 0.0374,0.0087 0.0138,0.0013 0.0317,0.0042 0.0446,0.002 0.025,-0.0064 0.0482,-0.03957 0.0747,-0.0416 0.0131,-0.0015 0.0353,0.0015 0.0475,0.0042 0.0222,0.0052 0.0396,0.02595 0.0626,0.02945 0.018,0.0044 0.0525,-0.002 0.0324,-0.01638 0.0159,0.002 0.012,-0.0935 0.0127,-0.102152 0,-0.02448 0.008,-0.04896 -0.008,-0.06479 -0.01,-0.0092 -0.0201,-0.0086 -0.031,-0.0092 -0.0166,-0.0022 -0.0286,-0.0094 -0.0438,-0.01233 -0.0388,-0.0072 -0.0698,0.02301 -0.1064,0.0208 -0.0375,-0.0013 -0.0735,0.0052 -0.11155,0.0037 -0.004,-7.41e-4 -0.007,-7.41e-4 -0.0102,-7.41e-4 0,-0.04822 0,-0.09626 0.004,-0.143749 0.0113,0.0028 0.0222,0.0057 0.0332,0.0072 0.0138,0.0015 0.0318,0.005 0.0446,0.0015 0.025,-0.0059 0.0482,-0.0381 0.0747,-0.04105 0.0131,-0.0015 0.0353,7.41e-4 0.0475,0.0042 0.0222,0.0052 0.0396,0.02595 0.0626,0.03019 0.018,0.0029 0.0525,-0.0028 0.0325,-0.01638 0.0159,0.0013 0.012,-0.09424 0.0127,-0.102888 0,-0.02374 0.008,-0.04896 -0.008,-0.06534 -0.01,-0.0094 -0.0201,-0.0079 -0.031,-0.0094 -0.0166,-0.0015 -0.0286,-0.0086 -0.0438,-0.0116 -0.0388,-0.0072 -0.0698,0.02301 -0.10639,0.02098 -0.0375,-0.0022 -0.0734,0.0042 -0.11155,0.0028 h -0.004 c 0,-0.01583 0,-0.03166 0,-0.04675 -0.004,-0.07178 -0.0173,-0.142277 -0.0226,-0.214243 -0.008,-0.124976 -0.0229,-0.249399 -0.0222,-0.374558 0,-0.148903 0.004,-0.292652 -0.0251,-0.43861 -0.0166,-0.08412 -0.044,-0.171726 -0.0447,-0.257313 -0.009,-0.02153 -0.0208,-0.04178 -0.0394,-0.04381 -0.031,-0.0029 -0.0229,0.03736 -0.0226,0.0589 0,0.02577 0.01,0.04749 0.01,0.07325 0,0.02669 0.004,0.05761 0,0.08338 -0.009,0.04675 -0.0265,0.09571 -0.0388,0.143933 -0.007,0.03295 -0.0131,0.06608 -0.0229,0.09921 -0.0208,0.07546 -0.051,0.149455 -0.0604,0.227128 -0.008,0.08338 0.005,0.170437 0.01,0.253816 0.004,0.08779 0.005,0.173934 0.012,0.26173 0.005,0.05466 0.0123,0.108594 0.0166,0.162523 -0.012,0.0015 -0.0243,0.0028 -0.0381,0.0042 -0.0317,0.005 -0.0639,0.0022 -0.0955,0.0087 -0.0145,0.0029 -0.0229,0.0057 -0.0374,-0.0022 -0.0109,-0.0064 -0.018,-0.01436 -0.0318,-0.01509 -0.0324,-0.002 -0.0324,0.03166 -0.049,0.05835 -0.0138,-0.0094 -0.0229,-0.0138 -0.0374,-0.0015 -0.005,0.0042 -0.009,0.01141 -0.0138,0.01509 -0.0102,0.0086 -0.0229,0.0064 -0.0346,0.01141 0.0102,0.02595 0.0109,0.04822 0.0102,0.07767 0,0.01233 0,0.02595 -0.004,0.0381 -0.004,0.01583 -0.0201,0.0289 -0.0159,0.04822 0.0381,-0.02227 0.0799,-0.01933 0.12016,-0.03092 0.0265,-0.0072 0.0525,-0.0037 0.079,-0.0015 0.0282,7.41e-4 0.0576,0.0037 0.0848,-0.0064 0.0229,-0.0086 0.0447,-0.01288 0.0677,-0.01215 v 0.132153 c -0.0152,0 -0.0282,0.0015 -0.044,0.0044 -0.0317,0.0042 -0.0639,0.0022 -0.0955,0.0079 -0.0145,0.0022 -0.0229,0.0057 -0.0374,-0.0015 -0.0109,-0.0064 -0.018,-0.01583 -0.0317,-0.01583 -0.0325,-0.0022 -0.0325,0.0324 -0.049,0.05816 -0.0138,-0.0099 -0.0229,-0.01288 -0.0374,-0.0013 -0.005,0.0042 -0.009,0.01141 -0.0138,0.01509 -0.0102,0.0086 -0.0229,0.0064 -0.0346,0.01067 0.0102,0.02595 0.0109,0.04896 0.0102,0.07841 0,0.0116 0,0.02669 -0.004,0.0381 -0.004,0.01583 -0.0201,0.02945 -0.0159,0.04822 0.0381,-0.02227 0.0799,-0.01878 0.12016,-0.03019 0.0265,-0.0079 0.0525,-0.0044 0.079,-0.0029 0.0282,0.0022 0.0576,0.0044 0.0848,-0.0057 0.0254,-0.0094 0.0482,-0.01436 0.0741,-0.01233 0.004,0.06056 0.01,0.120926 0.0145,0.180561 -0.0222,-7.41e-4 -0.0425,0.0022 -0.0648,0.005 -0.0317,0.0052 -0.0639,0.0022 -0.0955,0.0079 -0.0145,0.0029 -0.0229,0.0057 -0.0374,-0.002 -0.0109,-0.0052 -0.018,-0.01454 -0.0317,-0.01509 -0.0325,-0.0022 -0.0325,0.03147 -0.049,0.0589 -0.0138,-0.01012 -0.0229,-0.01362 -0.0374,-0.0015 -0.005,0.0037 -0.009,0.01141 -0.0138,0.01436 -0.0102,0.0086 -0.0229,0.0072 -0.0346,0.01159 0.0102,0.02577 0.0109,0.04804 0.0102,0.07749 0,0.01233 0,0.02669 -0.004,0.03828 -0.004,0.01638 -0.0201,0.02871 -0.0159,0.04804 0.0381,-0.02227 0.0799,-0.01933 0.12015,-0.03092 0.0265,-0.0064 0.0525,-0.0035 0.079,-0.0015 0.0282,0.0015 0.0576,0.0044 0.0848,-0.0072 0.0254,-0.0085 0.0482,-0.01362 0.0749,-0.01068 0.01,7.41e-4 0.0208,0.0022 0.031,0.005 0.004,0.04822 0.008,0.097 0.01,0.145222 0,0.0087 -0.004,0.01583 -0.004,0.02301 h -0.0293 c -0.0453,-0.0015 -0.0856,0.03092 -0.13014,0.03957 -0.0236,0.005 -0.044,0.005 -0.0662,0.005 -0.0166,0 -0.0318,0.0052 -0.0467,0.0087 -0.0293,0.0059 -0.0597,0.0086 -0.0876,0.01951 -0.0576,0.02503 -0.10287,0.06681 -0.14171,0.115036 -0.0215,0.02577 -0.051,0.04528 -0.0747,0.07049 -0.0194,0.0208 -0.0388,0.0416 -0.0597,0.06037 -0.0467,0.04233 -0.10361,0.0797 -0.13232,0.138044 -0.0317,0.06184 -0.0187,0.144485 -0.0194,0.212034"
       style="fill:#21201d;fill-opacity:1;fill-rule:nonzero;stroke:none;stroke-width:0.184057"
       id="path654" />
    <path
       d="m 468.67287,-13.077196 c 0,-0.01583 -0.0187,-0.03092 -0.0279,-0.04178 -0.0159,-0.01712 -0.0332,-0.03295 -0.0504,-0.04951 0.008,0.01436 0.0159,0.02724 0.025,0.03884 0.0152,0.01859 0.0367,0.03442 0.0532,0.05246"
       style="fill:#21201d;fill-opacity:1;fill-rule:nonzero;stroke:none;stroke-width:0.184057"
       id="path656" />
    <path
       d="m 467.54701,-12.927741 c 0.0445,0.04601 0.0962,0.08283 0.14228,0.129577 0.0201,0.02006 0.0403,0.04233 0.0626,0.06037 0,-7.41e-4 0,-0.0015 0,-0.0022 0.005,0.0042 0.01,0.0072 0.0145,0.01086 -0.004,-0.0029 -0.009,-0.0059 -0.0138,-0.0086 0.004,0.0035 0.004,0.0072 0.006,0.0092 0.005,0.0044 0.0116,0.0074 0.0194,0.0086 0.008,0.0059 0.0152,0.01086 0.0243,0.0173 0.0416,0.03019 0.0992,0.01951 0.14873,0.0116 0.0173,-0.0022 0.036,-0.0029 0.0532,-0.0022 0.0293,0.0015 0.0275,0.0015 0.031,-0.0381 -0.0366,0 -0.0653,-0.0072 -0.0977,-0.02522 -0.0272,-0.01509 -0.0574,-0.02374 -0.0827,-0.04233 -0.0222,-0.0173 -0.0453,-0.03019 -0.0675,-0.04601 -0.0251,-0.01804 -0.0468,-0.04473 -0.0712,-0.06479 -0.0102,-0.0094 -0.0201,-0.0173 -0.0303,-0.02595 -0.0279,-0.06957 -0.0497,-0.140068 -0.0611,-0.214979 -0.006,-0.04528 -0.0222,-0.09332 -0.0215,-0.137307 0,-0.06681 0.012,-0.136571 0.0272,-0.200439 0.0102,-0.04105 0.0275,-0.07694 0.0418,-0.116509 0.012,-0.0346 0.0222,-0.05908 0.046,-0.08853 0.0166,-0.01785 0.0293,-0.03166 0.0394,-0.05319 0.007,-0.01435 0.0116,-0.02871 0.0194,-0.04233 0.0381,0.04951 0.0762,0.09994 0.11726,0.14743 0.0303,0.03442 0.0646,0.07105 0.10344,0.09774 0.0604,0.03957 0.10784,0.09276 0.16824,0.132338 0.069,0.04601 0.12146,0.115588 0.18845,0.165284 0.0169,0.01288 0.0328,0.02724 0.0503,0.04031 0.0275,0.02227 0.0633,0.03589 0.0935,0.05467 0.0611,0.03736 0.12591,0.07749 0.17688,0.12792 0.0254,-0.02522 -0.0275,-0.07344 -0.0747,-0.125159 -0.0166,-0.01786 -0.0296,-0.0381 -0.0432,-0.05816 l 0.0166,0.0173 c 0.007,0.0064 0.0152,0.01436 0.0222,0.0208 -0.0113,-0.02227 -0.0215,-0.04528 -0.0325,-0.06553 -0.031,-0.05669 -0.0631,-0.105649 -0.10989,-0.150927 -0.0275,-0.02595 -0.0532,-0.05098 -0.0755,-0.08191 -0.0194,-0.02669 -0.0425,-0.04896 -0.067,-0.0727 -0.0502,-0.05025 -0.10121,-0.104177 -0.15388,-0.153137 -0.0611,-0.0554 -0.12936,-0.102704 -0.19195,-0.157369 -0.0187,-0.01583 -0.0366,-0.03534 -0.0552,-0.05246 0.0272,-0.01951 0.0559,-0.03681 0.0883,-0.04822 0,-0.0015 0.004,-0.0015 0.005,-0.0037 0.0127,-0.0099 0.0138,-0.01859 0.0307,-0.02006 0.0194,-0.0037 0.0361,0.01509 0.0519,0.0173 0.0272,0.0028 0.031,-0.04325 0.0495,-0.05393 0.0201,-0.01233 0.0547,-0.0064 0.0784,-0.0037 0.0159,0.0029 0.0254,0.0022 0.0418,-7.41e-4 0.0303,-0.0057 0.0661,-0.01436 0.097,-0.01288 0.0317,0.0022 0.0596,0.01583 0.0906,0.01933 0.0539,0.0066 0.11007,-0.01067 0.16323,0.0052 0.0145,0.0042 0.0303,0.01141 0.046,0.01657 0.0532,0.01859 0.0876,0.05025 0.12866,0.09129 0.0626,0.06037 0.12294,0.123687 0.18404,0.184794 0.0102,0.0085 0.0504,0.0042 0.041,-0.02816 -0.004,-0.01141 -0.0123,-0.01583 -0.018,-0.02503 -0.007,-0.01086 -0.012,-0.02098 -0.0194,-0.03166 -0.0598,-0.08632 -0.0655,-0.21001 -0.17265,-0.256024 -0.0272,-0.01215 -0.0574,-0.0173 -0.0849,-0.0265 -0.0279,-0.01012 -0.046,-0.02963 -0.069,-0.04675 -0.0374,-0.02669 -0.0812,-0.05835 -0.12224,-0.0762 -0.0374,-0.01583 -0.0732,-0.04031 -0.11281,-0.04546 -0.0145,-0.0028 -0.0194,0 -0.0339,0 -0.0243,0.0015 -0.0453,-0.01436 -0.0697,-0.01565 -0.0388,-0.0015 -0.0703,0.01859 -0.10491,0.03221 -0.0346,0.01436 -0.0697,0.02522 -0.10291,0.04473 -0.0366,0.02153 -0.0847,0.02945 -0.12717,0.02945 -0.0236,0 -0.0438,-7.41e-4 -0.0668,-0.0059 -0.0317,-0.0064 -0.0482,7.41e-4 -0.0734,0.02374 -0.0236,0.02227 -0.0346,0.04822 -0.0604,0.06626 -0.005,0.002 -0.01,0.0064 -0.0145,0.0099 -0.01,-0.01068 -0.0201,-0.02153 -0.0293,-0.03221 -0.0317,-0.0381 -0.0626,-0.0762 -0.0943,-0.114484 0.0159,-0.01068 0.0332,-0.01933 0.0475,-0.03074 0.0109,-0.0079 0.0261,-0.01877 0.0332,-0.03037 0.0138,-0.02301 0.006,-0.06111 0.0229,-0.0819 0.008,-0.01068 0.0258,-0.02374 0.0366,-0.03019 0.0201,-0.01215 0.0467,-0.0094 0.0661,-0.02301 0.0145,-0.01068 0.0353,-0.03884 0.0109,-0.03442 0.012,-0.01086 -0.0576,-0.07565 -0.0633,-0.08209 -0.0166,-0.01785 -0.0286,-0.04086 -0.051,-0.04086 -0.0145,0 -0.0212,0.0087 -0.0293,0.01583 -0.0131,0.0099 -0.0268,0.01362 -0.0388,0.02301 -0.0332,0.02153 -0.0332,0.06534 -0.0611,0.08982 -0.0275,0.02522 -0.0482,0.0554 -0.0762,0.0797 -0.004,0.0037 -0.007,0.0072 -0.0109,0.01086 -0.004,-0.0029 -0.004,-0.0057 -0.006,-0.0086 -0.0411,-0.04528 -0.0841,-0.08761 -0.12792,-0.130865 0.0113,-0.0064 0.0222,-0.01288 0.0321,-0.02006 0.0109,-0.0086 0.025,-0.01877 0.0332,-0.03092 0.013,-0.02153 0.006,-0.06111 0.0229,-0.08135 0.008,-0.01068 0.0243,-0.0243 0.0359,-0.03074 0.0201,-0.01233 0.0475,-0.0094 0.0663,-0.02245 0.0159,-0.01141 0.0353,-0.04012 0.0113,-0.03515 0.0116,-0.01013 -0.0582,-0.07546 -0.0633,-0.08117 -0.0162,-0.01804 -0.0286,-0.04105 -0.0517,-0.04105 -0.013,0 -0.0201,0.0086 -0.0296,0.01509 -0.0113,0.01012 -0.0257,0.01436 -0.0388,0.02301 -0.0318,0.02227 -0.0332,0.06534 -0.0597,0.08982 -0.0279,0.02522 -0.0497,0.05614 -0.0769,0.08062 -0.004,0.0028 -0.006,0.005 -0.008,0.0072 -0.0332,-0.03387 -0.0661,-0.06902 -0.0985,-0.103625 0.01,-0.0064 0.0194,-0.01215 0.0279,-0.01859 0.0109,-0.0079 0.0258,-0.01877 0.0332,-0.03019 0.0145,-0.02227 0.006,-0.06111 0.0229,-0.08135 0.008,-0.01141 0.0261,-0.02503 0.0374,-0.03092 0.0194,-0.01215 0.046,-0.0099 0.0653,-0.02301 0.0152,-0.01068 0.0353,-0.03957 0.0109,-0.03442 0.0124,-0.01086 -0.0581,-0.07546 -0.0633,-0.08135 -0.0159,-0.01859 -0.0286,-0.04086 -0.051,-0.04086 -0.0138,0 -0.0201,0.0079 -0.0293,0.01583 -0.0123,0.0092 -0.0268,0.01288 -0.0388,0.02153 -0.0324,0.02301 -0.0324,0.06534 -0.0604,0.09129 -0.0275,0.02374 -0.0489,0.05466 -0.0769,0.07988 0,5.64e-4 0,5.64e-4 -0.004,0.0028 -0.0109,-0.01215 -0.0222,-0.02301 -0.0335,-0.03368 -0.0526,-0.04896 -0.113,-0.08779 -0.16694,-0.135282 -0.094,-0.08191 -0.19272,-0.160315 -0.28031,-0.249399 -0.10492,-0.105097 -0.2043,-0.208537 -0.32781,-0.292652 -0.0712,-0.04675 -0.15257,-0.08908 -0.21367,-0.149639 -0.0222,-0.0085 -0.0446,-0.01436 -0.0582,-0.0028 -0.0254,0.01933 0.01,0.0416 0.0244,0.05669 0.0194,0.01804 0.0408,0.02669 0.0589,0.04528 0.0187,0.01951 0.0433,0.03828 0.0584,0.05982 0.0265,0.03957 0.0488,0.08614 0.0747,0.12792 0.018,0.02945 0.0374,0.05816 0.0539,0.08706 0.0388,0.06902 0.069,0.14154 0.11779,0.202648 0.0532,0.06626 0.12369,0.117981 0.18553,0.174671 0.0648,0.05908 0.12665,0.119453 0.1942,0.175591 0.0416,0.03515 0.0841,0.06829 0.12718,0.10344 -0.008,0.0094 -0.0166,0.01951 -0.0236,0.02945 -0.0194,0.02669 -0.0445,0.04822 -0.0624,0.07418 -0.008,0.01288 -0.0124,0.02006 -0.0275,0.02503 -0.012,0.0037 -0.0236,0.0022 -0.0339,0.0116 -0.0243,0.02153 0,0.04528 0.007,0.07546 -0.0173,0.0029 -0.0268,0.0064 -0.0282,0.02595 0,0.0064 0.004,0.01362 0,0.02006 0,0.01288 -0.0109,0.0208 -0.0166,0.0324 0.0254,0.01068 0.0425,0.02577 0.0618,0.04804 0.008,0.0094 0.0187,0.01804 0.0254,0.0289 0.008,0.01436 0.006,0.03515 0.0229,0.04454 0.0106,-0.04252 0.0416,-0.06976 0.0633,-0.106385 0.013,-0.02301 0.0346,-0.03957 0.0539,-0.05687 0.0208,-0.01859 0.0438,-0.03736 0.0559,-0.06461 0.0102,-0.02227 0.0222,-0.04031 0.0396,-0.05614 0.031,0.03166 0.0618,0.06184 0.0927,0.09276 -0.0102,0.01067 -0.0187,0.02153 -0.0279,0.03368 -0.0187,0.02669 -0.0433,0.04749 -0.0611,0.07418 -0.009,0.01288 -0.0123,0.0208 -0.0275,0.02503 -0.0131,0.0037 -0.0244,0.0029 -0.0346,0.0116 -0.0243,0.02153 0,0.04528 0.007,0.0762 -0.0166,0.0022 -0.0258,0.0064 -0.0275,0.02595 0,0.0057 0.004,0.01288 0,0.01859 0,0.01436 -0.0113,0.02227 -0.0166,0.03313 0.0254,0.01141 0.0418,0.0265 0.0618,0.04822 0.009,0.0086 0.0194,0.01859 0.0254,0.02945 0.008,0.01362 0.007,0.03442 0.0229,0.04454 0.0117,-0.04252 0.0425,-0.06976 0.0633,-0.106386 0.0138,-0.02374 0.0346,-0.04031 0.0547,-0.05687 0.0208,-0.01932 0.043,-0.03884 0.0552,-0.06534 0.0109,-0.02374 0.0236,-0.04325 0.0433,-0.06037 0.0453,0.03957 0.092,0.07822 0.13804,0.117061 -0.0152,0.01509 -0.0286,0.03092 -0.0418,0.04969 -0.0194,0.02522 -0.0438,0.04675 -0.0618,0.07325 -0.008,0.01233 -0.013,0.02025 -0.0272,0.02522 -0.0127,0.0037 -0.0243,0.0022 -0.0339,0.01086 -0.025,0.02227 0,0.04602 0.007,0.07546 -0.0162,0.0035 -0.0257,0.0079 -0.0279,0.0265 0,0.0064 0.004,0.01307 0,0.01951 0,0.01362 -0.0116,0.02153 -0.0173,0.0324 0.0254,0.01141 0.0425,0.0265 0.0619,0.04804 0.008,0.0094 0.0187,0.01951 0.0261,0.0289 0.008,0.01435 0.006,0.03515 0.0229,0.04601 0.0106,-0.04325 0.0416,-0.07049 0.0639,-0.107122 0.013,-0.02374 0.0339,-0.03957 0.0532,-0.05687 0.0219,-0.01877 0.0447,-0.03884 0.0561,-0.06552 0.0109,-0.02356 0.0236,-0.04307 0.0438,-0.06037 0.008,-0.0064 0.0166,-0.01215 0.0261,-0.01712 0.0374,0.03019 0.074,0.0624 0.1106,0.09479 0.005,0.0057 0.01,0.01233 0.0131,0.01877 -0.007,0.0072 -0.0145,0.01362 -0.0208,0.0208 -0.0332,0.03092 -0.0388,0.08264 -0.064,0.119454 -0.0138,0.01933 -0.0275,0.03442 -0.0438,0.05025 -0.0116,0.01141 -0.018,0.02595 -0.0268,0.03957 -0.0159,0.02503 -0.0366,0.04822 -0.0475,0.07546 -0.0243,0.05816 -0.0251,0.120006 -0.0194,0.181113 0.004,0.0346 -0.005,0.06829 -0.004,0.102889 0,0.02871 0.004,0.05687 0,0.08632 -0.004,0.06184 -0.0166,0.129392 0.004,0.1905 0.0222,0.06608 0.0891,0.115036 0.1366,0.163811"
       style="fill:#21201d;fill-opacity:1;fill-rule:nonzero;stroke:none;stroke-width:0.184057"
       id="path658" />
    <path
       d="m 469.74997,-15.754686 c -0.0116,-0.01013 -0.0339,-0.0087 -0.049,-0.0094 -0.0229,-7.4e-4 -0.0475,-7.4e-4 -0.0705,0 0.0159,0.0044 0.031,0.0087 0.0453,0.01013 0.0236,0.0022 0.0497,-0.0015 0.0742,-7.41e-4"
       style="fill:#21201d;fill-opacity:1;fill-rule:nonzero;stroke:none;stroke-width:0.184057"
       id="path660" />
    <path
       d="m 469.05976,-14.852434 c 0.0639,7.4e-4 0.12718,-0.0099 0.19198,-0.0092 0.0286,7.4e-4 0.0589,0.0013 0.0876,-0.0022 0,0 0,-7.41e-4 -0.004,-0.0015 0.007,0 0.0116,-7.4e-4 0.0173,-7.4e-4 -0.005,0 -0.01,0.0015 -0.0152,0.0022 0.004,0.0022 0.006,0.0035 0.0109,0.0035 0.006,0 0.012,-0.0042 0.0187,-0.0079 0.0102,-0.0013 0.0201,-0.0035 0.0303,-0.005 0.0519,-0.0079 0.0835,-0.05669 0.11299,-0.097 0.0113,-0.01362 0.0236,-0.02743 0.0366,-0.03957 0.0208,-0.02006 0.0208,-0.01804 -0.005,-0.04822 -0.0251,0.02522 -0.0526,0.04178 -0.087,0.05117 -0.0303,0.0085 -0.0576,0.02356 -0.0893,0.02798 -0.0265,0.0035 -0.0525,0.01141 -0.0789,0.01509 -0.0317,0.0057 -0.0655,0.0022 -0.0972,0.0042 -0.0131,7.41e-4 -0.0258,0.0029 -0.0394,0.0044 -0.069,-0.03092 -0.13381,-0.06405 -0.19494,-0.110067 -0.0359,-0.0265 -0.0819,-0.04877 -0.11282,-0.08117 -0.046,-0.04822 -0.0871,-0.105097 -0.1222,-0.161786 -0.0222,-0.03534 -0.0346,-0.0727 -0.0532,-0.110803 -0.0152,-0.03368 -0.0261,-0.05816 -0.0289,-0.09479 -0.004,-0.02448 -0.004,-0.04399 -0.01,-0.067 -0.006,-0.01436 -0.0123,-0.02798 -0.0166,-0.04233 0.0626,0.0079 0.12443,0.0173 0.18627,0.02006 0.0466,0.0029 0.097,0.0044 0.14301,-0.0042 0.0705,-0.01362 0.14154,-0.01013 0.21276,-0.02448 0.0806,-0.0173 0.16676,-0.0042 0.2503,-0.01657 0.0208,-0.0028 0.0423,-0.0035 0.0639,-0.0064 0.0346,-0.0042 0.0697,-0.02006 0.10435,-0.02797 0.0696,-0.01657 0.1445,-0.03387 0.21555,-0.0346 0,-0.03515 -0.0711,-0.03166 -0.14157,-0.03589 -0.0243,-0.0015 -0.0482,-0.0064 -0.072,-0.01086 h 0.0547 c -0.0236,-0.0064 -0.0467,-0.01657 -0.069,-0.02374 -0.0618,-0.01785 -0.11924,-0.02871 -0.18404,-0.02871 -0.0381,7.4e-4 -0.0747,0.0022 -0.11134,-0.0042 -0.0332,-0.0052 -0.0648,-0.0037 -0.0985,-0.0037 -0.072,0 -0.14521,-0.0028 -0.21792,0 -0.0819,0.0037 -0.164,0.01951 -0.24588,0.02448 -0.0261,0.0015 -0.051,0.0015 -0.0769,0.0022 0.006,-0.03387 0.0145,-0.06626 0.0279,-0.09718 0,-0.0013 0,-0.0035 0,-0.0057 0,-0.01509 -0.004,-0.02227 0.006,-0.03589 0.0123,-0.01583 0.0368,-0.01436 0.049,-0.02448 0.0215,-0.01657 -0.007,-0.05172 -0.004,-0.0727 0.006,-0.02301 0.0339,-0.04307 0.0532,-0.05743 0.0131,-0.0094 0.0194,-0.01657 0.0296,-0.03166 0.0166,-0.02522 0.0359,-0.05614 0.0597,-0.07694 0.0229,-0.0208 0.0525,-0.03166 0.0769,-0.05025 0.043,-0.03313 0.0705,-0.08559 0.11854,-0.111539 0.0145,-0.0072 0.03,-0.01362 0.0445,-0.0208 0.0512,-0.02522 0.0979,-0.02669 0.15607,-0.02669 0.0871,-0.0013 0.17339,0 0.26102,0 0.013,0 0.0388,-0.03148 0.008,-0.04877 -0.0109,-0.0064 -0.0194,-0.0022 -0.031,-0.0044 -0.012,-0.002 -0.0229,-0.0064 -0.0353,-0.0092 -0.10291,-0.01877 -0.19491,-0.102152 -0.30424,-0.05835 -0.0272,0.01086 -0.0518,0.02798 -0.0782,0.04031 -0.0261,0.01288 -0.0534,0.01215 -0.0814,0.01657 -0.0453,0.0072 -0.0985,0.01657 -0.14097,0.03295 -0.0374,0.01454 -0.0797,0.02227 -0.11137,0.04602 -0.012,0.0094 -0.0145,0.01509 -0.0236,0.02595 -0.0166,0.0173 -0.0431,0.0208 -0.0611,0.03736 -0.0286,0.02595 -0.0366,0.06258 -0.051,0.097 -0.0145,0.03534 -0.0317,0.067 -0.0411,0.104361 -0.0113,0.04105 -0.0388,0.08117 -0.069,0.111355 -0.0173,0.01657 -0.0325,0.03018 -0.0517,0.04252 -0.0268,0.01785 -0.0332,0.03516 -0.0346,0.06829 0,0.03239 0.008,0.05816 0.004,0.08982 0,0.0052 0,0.01086 -0.004,0.01657 -0.0145,-7.41e-4 -0.0286,-7.41e-4 -0.0431,-0.0022 -0.0497,-0.0035 -0.0985,-0.0087 -0.14742,-0.01362 0.004,-0.01859 0.01,-0.03663 0.0116,-0.0554 0.004,-0.01362 0.005,-0.03166 0.004,-0.04454 -0.006,-0.02522 -0.0389,-0.04822 -0.0423,-0.07399 0,-0.01362 0.004,-0.03589 0.005,-0.04822 0.005,-0.02153 0.0268,-0.03957 0.0303,-0.06184 0.004,-0.01859 -0.004,-0.05319 -0.0159,-0.03313 0,-0.01564 -0.0948,-0.01215 -0.1027,-0.01288 -0.0243,-0.0015 -0.0497,-0.0087 -0.0655,0.0079 -0.01,0.01012 -0.008,0.02025 -0.01,0.03092 0,0.01657 -0.008,0.02871 -0.0109,0.04381 -0.007,0.03884 0.0229,0.06976 0.0208,0.107122 0,0.03681 0.004,0.07344 0.004,0.110803 0,0.005 0,0.0094 0,0.01436 -0.004,0 -0.007,-7.41e-4 -0.0109,-7.41e-4 -0.0604,-0.0035 -0.12146,-0.0028 -0.18334,-0.0022 0.004,-0.01288 0.007,-0.02503 0.009,-0.03736 0,-0.01362 0.005,-0.03166 0,-0.04454 -0.006,-0.02522 -0.0388,-0.04822 -0.041,-0.07399 0,-0.01362 0,-0.03589 0.005,-0.04822 0.006,-0.02153 0.0257,-0.03957 0.0303,-0.06184 0.004,-0.01859 -0.004,-0.05319 -0.0166,-0.03313 0,-0.01565 -0.0942,-0.01215 -0.10287,-0.01288 -0.0236,-0.0015 -0.0488,-0.0087 -0.0646,0.0079 -0.01,0.01013 -0.008,0.02025 -0.01,0.03092 -0.004,0.01657 -0.01,0.02871 -0.012,0.04381 -0.006,0.03884 0.0229,0.06976 0.0208,0.107122 0,0.03681 0.005,0.07344 0.004,0.110802 0,0.0037 0,0.0072 0,0.01086 -0.0482,-7.41e-4 -0.0964,-0.0022 -0.14394,-0.0037 0.004,-0.01141 0.006,-0.02227 0.007,-0.03313 0.004,-0.01362 0.005,-0.03166 0.004,-0.04454 -0.006,-0.02522 -0.0388,-0.04822 -0.0423,-0.07399 0,-0.01362 0.004,-0.03589 0.004,-0.04822 0.006,-0.02153 0.0268,-0.03957 0.031,-0.06184 0.004,-0.01859 -0.004,-0.05319 -0.0166,-0.03313 0,-0.01565 -0.0941,-0.01215 -0.10269,-0.01288 -0.0243,-0.0015 -0.049,-0.0086 -0.0655,0.0079 -0.01,0.01012 -0.008,0.02025 -0.01,0.03092 0,0.01657 -0.009,0.02871 -0.0113,0.04381 -0.007,0.03884 0.0229,0.06976 0.0208,0.107122 -0.004,0.03681 0.004,0.07344 0.004,0.110802 v 0.0029 c -0.0159,0 -0.0317,0 -0.0467,7.4e-4 -0.072,0.0028 -0.14245,0.01785 -0.21424,0.02227 -0.12442,0.0085 -0.25033,0.02301 -0.37454,0.02227 -0.14891,-7.41e-4 -0.29267,-0.0037 -0.43861,0.02577 -0.0841,0.01657 -0.17191,0.04325 -0.2575,0.04399 -0.0208,0.0099 -0.0416,0.0208 -0.0431,0.03939 -0.004,0.03166 0.0366,0.02301 0.0581,0.02246 0.0261,-7.41e-4 0.0475,-0.0087 0.0742,-0.0087 0.0258,0 0.0567,-0.0044 0.0827,0 0.0468,0.0092 0.0957,0.02651 0.14372,0.03884 0.0332,0.0079 0.067,0.01362 0.0992,0.02301 0.0755,0.0208 0.1489,0.05098 0.22733,0.06037 0.0834,0.0086 0.17025,-0.0052 0.25382,-0.0094 0.0868,-0.0029 0.17392,-0.005 0.26151,-0.01215 0.0547,-0.0052 0.10862,-0.0116 0.16253,-0.01657 0,0.01215 0.004,0.02503 0.005,0.0381 0.004,0.03166 0,0.06387 0.008,0.09553 0.004,0.01436 0.006,0.02301 -0.004,0.03736 -0.006,0.01086 -0.0145,0.01804 -0.0152,0.03166 -0.004,0.0324 0.0324,0.0324 0.0582,0.04896 -0.008,0.01362 -0.0138,0.02301 0,0.0381 0.004,0.0042 0.0116,0.0079 0.0145,0.01288 0.009,0.01012 0.008,0.02301 0.012,0.0346 0.0254,-0.01013 0.0482,-0.01086 0.0776,-0.01013 0.012,7.41e-4 0.0265,0 0.0381,0.0037 0.0159,0.0028 0.0296,0.01933 0.0482,0.01509 -0.0222,-0.0381 -0.0194,-0.07988 -0.03,-0.12019 -0.008,-0.0265 -0.005,-0.05246 -0.004,-0.07896 0,-0.02816 0.004,-0.05761 -0.006,-0.08485 -0.009,-0.02301 -0.0131,-0.04399 -0.0123,-0.06773 h 0.13158 c 0,0.01454 0.004,0.02816 0.005,0.04399 0.005,0.03166 0.004,0.06387 0.008,0.09553 0.004,0.01436 0.006,0.02301 0,0.03736 -0.007,0.01086 -0.0159,0.01804 -0.0159,0.03166 -0.004,0.0324 0.0321,0.0324 0.0582,0.04896 -0.01,0.01362 -0.0131,0.02301 0,0.0381 0.005,0.0042 0.0116,0.0079 0.0152,0.01288 0.008,0.01013 0.006,0.02301 0.0109,0.0346 0.0258,-0.01013 0.049,-0.01086 0.0784,-0.01013 0.012,7.41e-4 0.0265,0 0.0381,0.0037 0.0159,0.0028 0.0293,0.01933 0.048,0.01509 -0.0222,-0.0381 -0.0194,-0.07988 -0.03,-0.12019 -0.007,-0.0265 -0.004,-0.05246 -0.004,-0.07896 0,-0.02816 0.004,-0.05761 -0.007,-0.08485 -0.009,-0.02448 -0.0145,-0.04822 -0.012,-0.07418 0.0604,-0.0042 0.12075,-0.0092 0.18055,-0.01436 0,0.02153 0.004,0.04178 0.005,0.06479 0.005,0.03166 0.004,0.06387 0.008,0.09553 0.004,0.01435 0.006,0.02301 0,0.03736 -0.006,0.01086 -0.0152,0.01804 -0.0159,0.03166 0,0.03239 0.0325,0.03239 0.0582,0.04896 -0.008,0.01362 -0.0127,0.02301 0,0.0381 0.004,0.0042 0.012,0.0079 0.0159,0.01288 0.008,0.01013 0.006,0.02301 0.0106,0.0346 0.0258,-0.01012 0.0482,-0.01086 0.0776,-0.01012 0.0123,7.41e-4 0.0268,0 0.0388,0.0037 0.0159,0.0028 0.0286,0.01933 0.0475,0.01509 -0.0222,-0.0381 -0.0194,-0.07988 -0.03,-0.12019 -0.008,-0.0265 -0.005,-0.05246 -0.004,-0.07896 0.004,-0.02816 0.004,-0.05761 -0.007,-0.08485 -0.008,-0.02522 -0.0138,-0.04822 -0.0109,-0.07491 0,-0.0099 0.004,-0.0208 0.005,-0.03019 0.0488,-0.005 0.097,-0.0086 0.14521,-0.01068 0.008,7.4e-4 0.0159,0.002 0.0229,0.0035 v 0.03019 c 0,0.04528 0.031,0.08485 0.0396,0.129393 0.004,0.02374 0.004,0.04399 0.004,0.06626 0,0.01657 0.006,0.03166 0.01,0.04675 0.006,0.02945 0.008,0.05964 0.0201,0.08688 0.0243,0.05835 0.0662,0.103624 0.1143,0.142461 0.0257,0.02227 0.0453,0.05172 0.0705,0.07473 0.0208,0.01951 0.0418,0.03957 0.0604,0.05964 0.0426,0.04675 0.0806,0.103624 0.13804,0.132338 0.0626,0.03166 0.1445,0.01877 0.21223,0.02006"
       style="fill:#21201d;fill-opacity:1;fill-rule:nonzero;stroke:none;stroke-width:0.184057"
       id="path662" />
    <path
       d="m 468.59519,-18.394077 c -0.0166,7.41e-4 -0.031,0.0173 -0.0416,0.02743 -0.0173,0.01583 -0.0332,0.03295 -0.0497,0.04951 0.0138,-0.0064 0.0275,-0.01509 0.0388,-0.02448 0.0187,-0.01509 0.0346,-0.03589 0.0525,-0.05246"
       style="fill:#21201d;fill-opacity:1;fill-rule:nonzero;stroke:none;stroke-width:0.184057"
       id="path664" />
    <path
       d="m 468.74409,-17.268747 c 0.046,-0.04473 0.0834,-0.09718 0.1294,-0.14246 0.0208,-0.02006 0.0431,-0.04031 0.0604,-0.06332 0,0 0,0 0,7.41e-4 0.005,-0.0042 0.007,-0.0086 0.0102,-0.01288 -0.004,0.0042 -0.006,0.0086 -0.009,0.01215 0.004,-0.0015 0.007,-0.0028 0.0102,-0.005 0.004,-0.005 0.006,-0.01215 0.008,-0.01878 0.005,-0.0085 0.0106,-0.01712 0.0166,-0.02503 0.031,-0.04252 0.0201,-0.09921 0.0123,-0.148903 -0.004,-0.0173 -0.004,-0.03589 -0.004,-0.05319 0,-0.02945 0.004,-0.02724 -0.0374,-0.03092 0,0.03515 -0.008,0.06552 -0.0254,0.097 -0.0159,0.02816 -0.0236,0.05761 -0.0423,0.08356 -0.0173,0.02153 -0.0303,0.04454 -0.046,0.06755 -0.018,0.02577 -0.0446,0.04601 -0.0655,0.07105 -0.008,0.0094 -0.0169,0.01951 -0.0251,0.03037 -0.0705,0.02798 -0.14026,0.04951 -0.21498,0.06111 -0.0453,0.0057 -0.0935,0.02227 -0.13804,0.02153 -0.0663,-0.0015 -0.13603,-0.01233 -0.19989,-0.02742 -0.0418,-0.0099 -0.0777,-0.02724 -0.11652,-0.0416 -0.0353,-0.01233 -0.0596,-0.02301 -0.0883,-0.04675 -0.018,-0.01583 -0.0318,-0.02945 -0.0534,-0.03884 -0.0152,-0.0072 -0.0286,-0.01233 -0.0423,-0.01951 0.0497,-0.03884 0.0999,-0.07546 0.14668,-0.117061 0.0346,-0.03092 0.072,-0.06553 0.0978,-0.103625 0.0403,-0.06037 0.0927,-0.107858 0.13307,-0.168228 0.0453,-0.06976 0.11504,-0.121479 0.16527,-0.188292 0.013,-0.0173 0.0275,-0.03313 0.0403,-0.0497 0.0222,-0.02871 0.0353,-0.06387 0.0539,-0.09424 0.0381,-0.06111 0.0784,-0.125712 0.12866,-0.17688 -0.0258,-0.02503 -0.0732,0.02743 -0.1257,0.07491 -0.0173,0.01657 -0.0381,0.02945 -0.0584,0.0438 0.006,-0.0064 0.0116,-0.01141 0.0173,-0.0173 0.007,-0.0072 0.0145,-0.01509 0.0215,-0.02227 -0.0222,0.0116 -0.0453,0.02153 -0.0654,0.0324 -0.0576,0.03092 -0.10583,0.06332 -0.1511,0.10933 -0.0265,0.02724 -0.051,0.05467 -0.0819,0.0762 -0.0272,0.01933 -0.049,0.04307 -0.0727,0.06608 -0.051,0.05172 -0.10417,0.102153 -0.1531,0.154609 -0.0553,0.06111 -0.10347,0.129393 -0.15738,0.191972 -0.0166,0.01878 -0.0353,0.03663 -0.0525,0.0554 -0.0194,-0.02816 -0.0374,-0.05687 -0.049,-0.08853 0,-0.002 0,-0.0035 -0.004,-0.0042 -0.0102,-0.01288 -0.0187,-0.01362 -0.0212,-0.03019 -0.004,-0.02025 0.0159,-0.03663 0.0173,-0.05319 0.004,-0.02669 -0.0423,-0.03018 -0.0532,-0.04896 -0.012,-0.02006 -0.007,-0.05466 -0.004,-0.07841 0.004,-0.01509 0,-0.02503 0,-0.0416 -0.005,-0.03019 -0.0138,-0.067 -0.0123,-0.09792 0,-0.03074 0.0152,-0.0589 0.0194,-0.08982 0.006,-0.05393 -0.0116,-0.109882 0.004,-0.163075 0.005,-0.01528 0.0116,-0.03092 0.0173,-0.04546 0.0187,-0.05393 0.0502,-0.08835 0.0906,-0.129393 0.0604,-0.06258 0.12369,-0.122951 0.18553,-0.184058 0.008,-0.0099 0.004,-0.05025 -0.0286,-0.0416 -0.0116,0.0035 -0.0152,0.01288 -0.0254,0.01932 -0.0102,0.0064 -0.0201,0.0116 -0.031,0.01951 -0.0863,0.05816 -0.21001,0.0646 -0.25675,0.171726 -0.0113,0.02742 -0.0162,0.05761 -0.0258,0.08485 -0.0109,0.02816 -0.0303,0.04602 -0.0467,0.06902 -0.0275,0.03663 -0.0584,0.08135 -0.0762,0.122215 -0.0159,0.03663 -0.0403,0.07344 -0.046,0.113011 -0.004,0.01436 0,0.01933 0,0.03368 0,0.02448 -0.0152,0.04528 -0.0159,0.06976 -0.004,0.03884 0.018,0.0705 0.0324,0.104914 0.0145,0.0346 0.0243,0.06976 0.0445,0.102888 0.0208,0.03663 0.0296,0.08485 0.0296,0.127184 0,0.02375 0,0.04399 -0.006,0.067 -0.006,0.03166 0,0.04877 0.0236,0.07325 0.0222,0.02375 0.0473,0.03387 0.0654,0.06037 0.004,0.0052 0.006,0.0094 0.0109,0.01436 -0.0116,0.0094 -0.0215,0.02025 -0.0332,0.0289 -0.0374,0.03221 -0.0755,0.06313 -0.11356,0.09479 -0.0109,-0.01509 -0.0201,-0.03313 -0.031,-0.04822 -0.009,-0.0099 -0.0194,-0.02503 -0.0303,-0.03221 -0.0229,-0.01436 -0.0611,-0.0064 -0.0821,-0.02301 -0.0106,-0.0086 -0.0236,-0.02595 -0.031,-0.03736 -0.012,-0.01951 -0.008,-0.04601 -0.0222,-0.06479 -0.0106,-0.01583 -0.0394,-0.03589 -0.0353,-0.0116 -0.0102,-0.01215 -0.0755,0.05761 -0.0812,0.06332 -0.0187,0.01583 -0.0411,0.02871 -0.0411,0.05117 0,0.01362 0.009,0.0208 0.0159,0.02945 0.0102,0.01288 0.0138,0.02651 0.0229,0.03884 0.0215,0.03221 0.0646,0.03294 0.0891,0.06037 0.0251,0.02798 0.0554,0.04878 0.0806,0.07694 0.004,0.0035 0.007,0.0072 0.01,0.01067 -0.004,0.0022 -0.006,0.0044 -0.008,0.0072 -0.0453,0.04031 -0.0883,0.08356 -0.13085,0.127368 -0.007,-0.0116 -0.0131,-0.02227 -0.0215,-0.0324 -0.007,-0.01086 -0.018,-0.02522 -0.0293,-0.0324 -0.0222,-0.01362 -0.0618,-0.0072 -0.0819,-0.02374 -0.0102,-0.0087 -0.0236,-0.02577 -0.0303,-0.03589 -0.0123,-0.02006 -0.0102,-0.04749 -0.0222,-0.06608 -0.0124,-0.01583 -0.0403,-0.03534 -0.0353,-0.0116 -0.01,-0.01141 -0.0762,0.0589 -0.0812,0.06332 -0.0187,0.01657 -0.0418,0.02871 -0.0418,0.05172 0,0.01307 0.01,0.01951 0.0159,0.02945 0.0102,0.01233 0.0145,0.02595 0.0222,0.03884 0.0229,0.03166 0.0662,0.03313 0.0906,0.06037 0.025,0.02743 0.0554,0.04896 0.0806,0.0762 0.004,0.0029 0.005,0.0059 0.007,0.0086 -0.0339,0.03313 -0.069,0.06626 -0.10343,0.09847 -0.007,-0.0099 -0.0124,-0.01932 -0.0187,-0.02871 -0.008,-0.01067 -0.0194,-0.02503 -0.031,-0.0324 -0.0215,-0.01436 -0.0604,-0.0072 -0.0812,-0.02356 -0.0109,-0.0079 -0.0243,-0.02522 -0.0303,-0.03608 -0.0123,-0.02006 -0.0102,-0.04675 -0.0229,-0.06608 -0.0109,-0.01509 -0.0396,-0.03534 -0.0346,-0.01086 -0.0109,-0.01215 -0.0755,0.05761 -0.0812,0.06332 -0.0194,0.01583 -0.041,0.02871 -0.041,0.05025 0,0.01454 0.008,0.02098 0.0152,0.03037 0.0102,0.01215 0.0138,0.0265 0.0222,0.0381 0.0229,0.03295 0.0655,0.03368 0.0898,0.06111 0.0254,0.02724 0.0554,0.04804 0.0813,0.0762 0,7.41e-4 0,0.002 0,0.0028 -0.0109,0.01086 -0.0222,0.02153 -0.0325,0.03313 -0.0489,0.05319 -0.0885,0.113564 -0.13525,0.167492 -0.11356,0.129393 -0.1826,0.214244 -0.24941,0.280505 -0.10566,0.104177 -0.20927,0.20412 -0.29263,0.327807 -0.0468,0.07178 -0.0898,0.1524 -0.14948,0.212771 -0.008,0.02227 -0.0159,0.04528 -0.004,0.0589 0.0194,0.02522 0.0418,-0.0092 0.0561,-0.0243 0.018,-0.01951 0.0272,-0.04105 0.046,-0.05908 0.0187,-0.01859 0.0374,-0.04381 0.0589,-0.05816 0.0396,-0.02742 0.0871,-0.0497 0.12866,-0.07473 0.0293,-0.01804 0.0584,-0.03755 0.0871,-0.05393 0.069,-0.0381 0.14097,-0.06902 0.20264,-0.117982 0.0662,-0.05319 0.11723,-0.123687 0.17484,-0.18553 0.0589,-0.0646 0.11927,-0.126448 0.1754,-0.193997 0.0353,-0.04178 0.0683,-0.08559 0.10347,-0.126632 0.008,0.0072 0.0187,0.01583 0.0293,0.02301 0.0268,0.01933 0.0468,0.04454 0.0742,0.06258 0.012,0.0086 0.0194,0.01215 0.0254,0.02724 0.004,0.01233 0.004,0.02374 0.0113,0.03387 0.0215,0.02448 0.0446,0 0.0747,-0.0072 0.004,0.01657 0.007,0.02577 0.0268,0.02798 0.006,7.41e-4 0.0138,-0.0022 0.0194,-0.0015 0.0138,0.0015 0.0215,0.01086 0.0324,0.01657 0.0116,-0.02522 0.0268,-0.04233 0.049,-0.06184 0.009,-0.0079 0.018,-0.01859 0.0286,-0.02503 0.0138,-0.0086 0.0346,-0.0066 0.0445,-0.02301 -0.0423,-0.01086 -0.0697,-0.04252 -0.10636,-0.06332 -0.0229,-0.01362 -0.0403,-0.03387 -0.0569,-0.05393 -0.0194,-0.0208 -0.0381,-0.04381 -0.0654,-0.05614 -0.0215,-0.01012 -0.0395,-0.02227 -0.0554,-0.03957 0.031,-0.03092 0.0611,-0.06184 0.0928,-0.09277 0.0109,0.01012 0.0215,0.01877 0.0339,0.02742 0.0265,0.01933 0.0473,0.04454 0.074,0.06184 0.0131,0.0086 0.0201,0.01215 0.0254,0.02798 0.004,0.01233 0.004,0.02374 0.0113,0.03387 0.0215,0.02448 0.0453,0 0.0755,-0.0072 0.004,0.01638 0.007,0.02577 0.0268,0.02724 0.006,7.41e-4 0.0127,-0.0022 0.0187,-7.41e-4 0.0138,7.41e-4 0.0219,0.0116 0.0332,0.01657 0.0116,-0.02522 0.0261,-0.04178 0.0482,-0.06184 0.008,-0.0079 0.0187,-0.01933 0.0286,-0.02522 0.0145,-0.0086 0.0353,-0.0072 0.0453,-0.02301 -0.0423,-0.01141 -0.0697,-0.04307 -0.1071,-0.06313 -0.0236,-0.0138 -0.0396,-0.0346 -0.0567,-0.05466 -0.0187,-0.02098 -0.0381,-0.04325 -0.0648,-0.0554 -0.0236,-0.01086 -0.0431,-0.02374 -0.0604,-0.0438 0.0396,-0.04528 0.0777,-0.09203 0.11723,-0.138044 0.0152,0.01583 0.0303,0.02871 0.0488,0.0416 0.0261,0.02025 0.0475,0.04454 0.0734,0.06258 0.0127,0.0086 0.0208,0.01215 0.025,0.02798 0.004,0.0116 0.004,0.02374 0.0117,0.03313 0.0222,0.02448 0.0453,0 0.0754,-0.0072 0.004,0.0173 0.007,0.02595 0.0261,0.02871 0.007,0 0.0138,-0.0028 0.0201,-0.0028 0.0138,0.0028 0.0215,0.01215 0.0324,0.01712 0.0106,-0.0243 0.0258,-0.0416 0.0482,-0.06184 0.009,-0.0077 0.0187,-0.01859 0.0286,-0.0243 0.0145,-0.0086 0.0353,-0.0066 0.0445,-0.02374 -0.0418,-0.01086 -0.069,-0.04178 -0.10639,-0.06332 -0.0229,-0.01362 -0.0388,-0.03442 -0.0569,-0.05393 -0.018,-0.02153 -0.0381,-0.04381 -0.0646,-0.05614 -0.0236,-0.01067 -0.044,-0.02374 -0.0611,-0.04381 -0.006,-0.0079 -0.0123,-0.01657 -0.0173,-0.02595 0.031,-0.03736 0.0633,-0.07399 0.095,-0.110619 0.006,-0.0044 0.0127,-0.0094 0.0187,-0.01362 0.007,0.0079 0.0145,0.01509 0.0215,0.02153 0.031,0.03313 0.0821,0.03884 0.11945,0.06405 0.0194,0.01362 0.0339,0.02724 0.0502,0.04381 0.0117,0.01141 0.0261,0.01785 0.0388,0.0265 0.0261,0.01583 0.049,0.03681 0.0762,0.04822 0.0583,0.02374 0.1202,0.02448 0.1813,0.01951 0.0346,-0.0037 0.0683,0.0042 0.10273,0.002 0.0286,-7.41e-4 0.0569,-0.0015 0.0863,-7.41e-4 0.0619,0.0037 0.12865,0.0173 0.18979,-0.0028 0.0662,-0.02227 0.11501,-0.08927 0.16397,-0.136571"
       style="fill:#21201d;fill-opacity:1;fill-rule:nonzero;stroke:none;stroke-width:0.184057"
       id="path666" />
    <path
       d="m 466.13417,-15.231226 c 0.0582,-0.0116 0.10862,-0.05614 0.1524,-0.0935 0.0381,-0.0324 0.0547,-0.08412 0.0576,-0.132338 0,-0.05172 0.012,-0.10344 0.0166,-0.153872 0.004,-0.03019 0.0113,-0.05816 0.0155,-0.08835 0.005,-0.02816 0,-0.05761 0.004,-0.08632 0,-0.0265 0.004,-0.04749 -0.01,-0.07325 -0.0131,-0.02743 -0.0324,-0.0519 -0.0504,-0.07546 -0.0396,-0.05393 -0.0733,-0.115772 -0.1294,-0.155345 -0.0374,-0.02669 -0.0819,-0.04454 -0.12294,-0.06405 -0.0317,-0.01362 -0.0653,-0.01932 -0.0957,-0.03589 -0.0258,-0.01436 -0.0438,-0.02153 -0.0747,-0.0173 -0.012,0.0022 -0.0258,0.0064 -0.0381,0.01012 -0.0106,0.0035 -0.0159,0.0079 -0.0279,0.01141 -0.0109,0.0037 -0.0229,0.0044 -0.0346,0.0052 l 0.0913,-0.06111 c -0.0113,-0.0022 -0.0187,0.005 -0.0286,0.0092 -0.0138,0.0044 -0.0303,0.0044 -0.0423,0.01233 -0.0353,0.02375 -0.072,0.05098 -0.10361,0.0797 -0.0258,0.02374 -0.0567,0.04031 -0.0826,0.06405 -0.0222,0.01933 -0.0589,0.04601 -0.0727,0.07197 -0.006,0.01362 -0.01,0.03019 -0.0152,0.04381 -0.0243,0.07197 -0.0559,0.147431 -0.0596,0.223631 -0.004,0.05246 -0.0166,0.107858 -0.006,0.160314 0.008,0.04878 0.0317,0.08632 0.0668,0.117797 0.0212,0.01878 0.0395,0.04105 0.0611,0.05761 0.0212,0.01583 0.0453,0.02724 0.0677,0.0381 0.0359,0.01933 0.0718,0.0381 0.10915,0.05246 0.0324,0.0116 0.067,0.01583 0.0992,0.02669 0.0526,0.01785 0.10583,0.03295 0.1603,0.04307 0.0303,0.0057 0.0633,0.01509 0.095,0.0094"
       style="fill:#21201d;fill-opacity:1;fill-rule:nonzero;stroke:none;stroke-width:0.184057"
       id="path668" />
    <path
       d="m 465.71712,-15.104042 c -0.0155,-0.0079 -0.0229,-0.02227 -0.0381,-0.02871 -0.0162,-0.0072 -0.0431,-0.0022 -0.0617,-0.005 -0.0282,-0.0052 -0.0554,-0.0138 -0.0836,-0.02098 -0.0201,-0.005 -0.0366,-0.0092 -0.0545,-0.01859 -0.0317,-0.01436 -0.0591,-0.04031 -0.0871,-0.06037 -0.0497,-0.03736 -0.0554,-0.09277 -0.0893,-0.141725 -0.0173,-0.02522 -0.0366,-0.05098 -0.0567,-0.07546 -0.0418,-0.05246 -0.0547,-0.106385 -0.0539,-0.173198 0,-0.0519 0.004,-0.10068 0.012,-0.152584 0.007,-0.03516 0.018,-0.07031 0.0215,-0.106386 0.005,-0.04381 0.0403,-0.121478 0.0677,-0.158105 0.0286,-0.03884 0.048,-0.08706 0.0856,-0.117982 0.0438,-0.03515 0.0559,-0.05816 0.11138,-0.06902 l 0.006,-0.0028 c 0.0138,0.0028 0.0268,0.0028 0.0367,0.0028 0.0208,0 0.046,0.0052 0.0655,7.41e-4 0.0138,-0.0028 0.031,-0.01657 0.0416,-0.02503 0.0173,-0.01233 0.0236,-0.02742 0.046,-0.03608 0.0243,-0.0094 0.0519,-0.0094 0.0777,-0.01435 0.10583,-0.01877 0.20853,-0.06258 0.31493,-0.07399 0.0374,-0.0037 0.0762,0.05098 0.11006,0.06608 0.051,0.02374 0.0985,-0.0042 0.13582,0.0381 0.0353,0.04178 0.10143,0.05964 0.14817,0.08559 0.0318,0.0173 0.0416,0.03884 0.051,0.07399 0.0236,0.07988 -0.006,0.168229 0.0194,0.245902 0.006,0.02153 0.0222,0.03663 0.031,0.05761 0.012,0.02724 0.0138,0.05816 0.0272,0.08559 0.0475,0.097 0.0806,0.21277 0.0166,0.309033 -0.0138,0.02098 -0.0303,0.03884 -0.0453,0.05761 -0.007,0.0072 -0.0145,0.01362 -0.0222,0.02006 -0.0433,0.03387 -0.0935,0.06332 -0.141,0.09277 -0.0208,0.01288 -0.0381,0.02374 -0.0567,0.04031 -0.0243,0.0208 -0.0433,0.04749 -0.0655,0.07049 -0.0166,0.01638 -0.0388,0.02724 -0.0567,0.04233 -0.0229,0.02006 -0.0482,0.04031 -0.0756,0.05393 -0.0611,0.03239 -0.13656,0.04528 -0.20264,0.02669 v 0 c -0.0145,-0.0066 -0.0268,-0.0138 -0.0403,-0.01804 -0.0359,-0.0116 -0.0661,-0.02153 -0.10343,-0.03663 -0.0282,-0.01159 -0.0626,-0.01951 -0.09,-0.0346 m 1.00235,-0.613281 c -0.005,-0.01067 -0.0116,-0.02301 -0.0173,-0.03515 0.0116,-0.03092 0.0173,-0.07049 0.0201,-0.0935 0.004,-0.04105 0,-0.0878 0,-0.12792 -0.004,-0.06405 -0.0466,-0.123687 -0.097,-0.162524 0,-0.04105 0,-0.08485 -0.012,-0.122214 -0.0131,-0.04104 -0.0497,-0.01583 -0.0742,-0.04896 -0.0113,-0.01509 -0.0222,-0.02871 -0.0346,-0.04381 -0.0236,-0.02871 -0.0425,-0.03884 -0.0754,-0.06037 -0.0317,-0.01877 -0.0346,-0.01877 -0.0611,-0.02871 -0.0131,-0.0052 -0.0208,-0.0094 -0.0318,-0.01877 -0.0286,-0.0208 -0.0583,-0.0173 -0.0935,-0.02448 -0.0254,-0.005 -0.0425,-0.06829 -0.069,-0.06405 -0.0791,0.01583 -0.16675,0 -0.24165,0.03387 -0.0321,0.01583 -0.0624,0.02595 -0.0926,0.04528 -0.0381,7.41e-4 -0.0756,0.0037 -0.113,0.0072 -0.0169,0.0022 -0.0279,0.01307 -0.0431,0.01804 -0.0127,0.0042 -0.0275,0.005 -0.0403,0.01067 -0.0353,0.0138 -0.0755,0.0289 -0.10933,0.03957 -0.03,0.01012 -0.0611,0.01086 -0.0891,0.0289 -0.0272,0.01712 -0.0561,0.03019 -0.0848,0.04528 -0.041,0.02301 -0.0243,0.05172 -0.0633,0.07822 -0.0321,0.02246 -0.0668,0.06056 -0.0856,0.09497 -0.0145,0.02522 -0.0187,0.05319 -0.0258,0.08062 -0.0102,0.0381 -0.0848,0.07252 -0.0935,0.110618 -0.0109,0.04528 0,0.07841 0.004,0.122215 0.004,0.05172 -0.0159,0.101416 -0.018,0.153136 -0.004,0.05761 0,0.115773 0,0.173383 0,0.115772 0.0438,0.224182 0.0992,0.323389 0.0138,0.02448 0.0279,0.04601 0.051,0.06479 0.0109,0.01086 0.0254,0.01804 0.0353,0.03019 0.0317,0.03957 0.0654,0.09203 0.11063,0.117981 0.0289,0.01583 0.0633,0.02798 0.0942,0.04307 0.0431,0.02006 0.0935,0.0346 0.13952,0.04528 0.0561,0.01233 0.1215,0.0052 0.1789,0.0022 0.0497,-0.0022 0.0972,-0.0094 0.14598,-0.0086 0.0425,0.0015 0.0598,-0.0064 0.10287,-0.0173 0.01,-0.002 0.0173,-0.0042 0.0268,-0.0057 0.006,0.0015 0.0152,0.0037 0.0215,0.005 0.01,0.0029 0.0353,0.01436 0.0431,0.01657 0.0332,0.01012 0.0878,-0.0057 0.11945,-0.01583 0.0251,-0.0079 0.0488,-0.0208 0.0725,-0.03442 0.0215,-7.41e-4 0.0438,7.41e-4 0.0655,-0.0052 0.0431,-0.01288 0.0703,-0.05246 0.0963,-0.08761 0.006,-0.0079 0.0116,-0.01657 0.018,-0.02522 0.0438,-0.03019 0.0697,-0.07252 0.10124,-0.115037 0.0339,-0.04307 0.067,-0.08835 0.095,-0.135834 0.004,-0.0029 0.006,-0.0057 0.008,-0.0094 0.0229,-0.03019 0.031,-0.07252 0.0438,-0.106385 0.0109,-0.03313 0.0109,-0.06681 0.0109,-0.10068 0,-0.06479 -0.009,-0.134362 -0.0374,-0.192708"
       style="fill:#21201d;fill-opacity:1;fill-rule:nonzero;stroke:none;stroke-width:0.184057"
       id="path670" />
  </g>
</svg>
