<?xml version="1.0" encoding="UTF-8" standalone="no"?>
<!-- Created with Inkscape (http://www.inkscape.org/) -->

<svg
   width="8.0033703mm"
   height="7.0217199mm"
   viewBox="0 0 8.0033703 7.0217199"
   version="1.1"
   id="svg3109"
   inkscape:version="1.1.2 (0a00cf5339, 2022-02-04)"
   sodipodi:docname="z17.svg"
   xmlns:inkscape="http://www.inkscape.org/namespaces/inkscape"
   xmlns:sodipodi="http://sodipodi.sourceforge.net/DTD/sodipodi-0.dtd"
   xmlns="http://www.w3.org/2000/svg"
   xmlns:svg="http://www.w3.org/2000/svg">
  <sodipodi:namedview
     id="namedview3111"
     pagecolor="#ffffff"
     bordercolor="#666666"
     borderopacity="1.0"
     inkscape:pageshadow="2"
     inkscape:pageopacity="0.0"
     inkscape:pagecheckerboard="0"
     inkscape:document-units="mm"
     showgrid="false"
     inkscape:zoom="0.64052329"
     inkscape:cx="-1255.2237"
     inkscape:cy="-81.964233"
     inkscape:window-width="2560"
     inkscape:window-height="1376"
     inkscape:window-x="0"
     inkscape:window-y="0"
     inkscape:window-maximized="1"
     inkscape:current-layer="layer1" />
  <defs
     id="defs3106" />
  <g
     inkscape:label="Layer 1"
     inkscape:groupmode="layer"
     id="layer1"
     transform="translate(-437.16017,-169.98271)">
    <path
       d="m 438.66307,172.12404 c 0.009,0.0186 0.0136,0.0386 0.0223,0.0567 0.0107,0.023 0.0158,0.049 0.0265,0.0712 0.0131,0.0252 0.0267,0.0411 0.0447,0.0532 0.002,0.018 0.004,0.0173 0.0258,0.0188 0.005,0 0.009,0 0.0136,0 0.003,0 0.005,0.002 0.007,0.003 0.0361,0.0101 0.0734,0.0109 0.11007,0.008 0.0353,-0.002 0.0561,-0.0252 0.0856,-0.0411 0.0201,-0.0107 0.0237,-0.009 0.0396,-0.028 0.007,-0.007 0.0144,-0.0151 0.0223,-0.0237 0.0245,-0.0151 0.0495,-0.0295 0.0777,-0.046 0.069,-0.041 0.11651,-0.0777 0.17172,-0.13234 0.0124,-0.0129 0.0252,-0.0316 0.0447,-0.0359 0.0337,-0.006 0.0409,0.0366 0.0532,0.0661 0.0151,0.0339 0.0359,0.0655 0.0488,0.0979 0.008,0.0215 0.0143,0.0495 0.0195,0.0725 0.004,0.0203 0.0107,0.041 0.0144,0.0611 0.002,0.0123 -0.003,0.0245 -0.001,0.0361 0.003,0.0236 0.0166,0.0409 0.0215,0.0631 0.006,0.0281 -10e-4,0.0561 0.003,0.0834 0.004,0.0274 0.008,0.0547 0.0129,0.0821 0.0136,0.0797 0.0324,0.17025 0.0633,0.24295 0.0136,0.0317 0.0101,0.0525 0.0158,0.0849 0.006,0.0374 0.0208,0.0626 0.0201,0.10142 -7.1e-4,0.0589 0,0.11651 0,0.17467 0,0.0928 0.008,0.18977 -0.0173,0.27977 -0.0136,0.0503 -0.0136,0.10197 -0.023,0.1524 0.004,0.002 0.006,0.004 0.009,0.005 0.009,0.003 0.018,0.006 0.026,0.0101 0.0201,0.009 0.0396,0.0166 0.0589,0.0258 0.009,0.005 0.0136,0.0131 0.0158,0.0223 0.0438,0.0138 0.0906,0.018 0.1338,0.0368 0.0265,0.0107 0.0488,0.0257 0.0661,0.051 0.0121,0.018 0.0173,0.0411 0.0188,0.0641 0.0631,0 0.13086,-0.005 0.19546,0.004 0.0561,-0.0223 0.11725,-0.0193 0.16897,0.0188 0.0576,0.0431 0.0935,0.10712 0.12,0.17467 7.1e-4,0.002 7.1e-4,0.004 7.1e-4,0.006 0.002,0 0.004,0 0.005,0 0.0517,0.0195 0.10491,0.0158 0.16031,0.018 0.005,0 0.009,0 0.0136,0 0.0237,-0.007 0.0475,-0.009 0.072,-0.004 0.0158,0.004 0.0309,0.0109 0.0453,0.0202 0.0151,0.004 0.0309,0.009 0.046,0.0171 0.009,0.004 0.0136,0.0123 0.0166,0.021 0.0236,0.005 0.0466,0.006 0.069,0.003 0.006,-0.004 0.0129,-0.005 0.0193,-0.005 0.004,-0.002 0.009,-0.004 0.0151,-0.008 0.001,-0.002 0.002,-0.002 0.002,-0.002 0.004,-0.002 0.006,-0.006 0.009,-0.009 0.003,-0.004 7.1e-4,0 0.004,-0.006 0.003,-0.004 0.005,-0.008 0.007,-0.0129 0.005,-0.009 0.0101,-0.0195 0.0144,-0.0289 0.0136,-0.0295 0.023,-0.0611 0.0317,-0.0926 -0.004,-0.018 -0.009,-0.0353 -0.0173,-0.0526 -0.009,-0.0201 -0.006,-0.0453 0.0144,-0.0574 0.008,-0.005 0.018,-0.006 0.0281,-0.004 0,-0.007 0.002,-0.0138 0.004,-0.021 -0.01,-0.008 -0.0171,-0.0201 -0.0171,-0.0337 -7e-4,-0.0863 -0.009,-0.17541 0.0223,-0.2575 -7e-4,-0.006 0,-0.0107 10e-4,-0.0158 0.007,-0.0251 0.0165,-0.0503 0.0238,-0.0762 -0.008,-0.007 -0.0136,-0.0173 -0.0136,-0.0309 0,-0.11504 0.0245,-0.2286 0.0734,-0.33076 0.007,-0.0171 0.0272,-0.0237 0.0438,-0.0186 -7e-4,-0.0203 -0.002,-0.0396 -0.005,-0.0591 0.004,0 0.006,-0.002 0.009,-0.004 0.013,-0.0114 0.0202,-0.0438 0.0281,-0.0561 0.0107,-0.0171 0.0186,-0.028 0.0251,-0.0468 0.005,-0.0136 0.007,-0.0201 0.0151,-0.0344 0.009,-0.0116 0.0188,-0.0215 0.0274,-0.0331 0.009,-0.0114 0.0237,-0.0409 0.0374,-0.0475 0.018,-0.008 0.0517,0 0.0725,0 0.0173,0 0.0388,-0.007 0.0497,0.0107 0.008,0.0109 -7e-4,0.0339 0.004,0.0475 0.0144,0.004 0.0287,-0.002 0.0431,0.004 0.0109,0.004 0.028,0.021 0.0374,0.0304 0.0109,0.0114 0.0223,0.0265 0.0309,0.0394 0.005,0.007 0.009,0.013 0.0136,0.0217 0.007,0 0.0136,0.003 0.0202,0.006 0.0158,0.0158 0.0158,0.0359 0.0243,0.0554 0.0138,0.0315 0.0289,0.0381 0.0504,0.0574 10e-4,0.026 0.006,0.051 0.0151,0.0727 0.0186,0.0409 0.0468,0.0755 0.0712,0.11282 0.0121,0.0186 0.0171,0.0317 0.0193,0.0532 0.002,0.0158 -7.1e-4,0.0351 7e-4,0.0539 -0.007,0.009 -0.0144,0.018 -0.0215,0.0272 0.0158,0.0425 0.028,0.0871 0.0403,0.1316 0.006,0.023 0.0129,0.046 0.0193,0.0698 0.009,0 0.0166,0.003 0.023,0.0109 0.0144,0.0144 0.0158,0.0423 7.1e-4,0.0582 0.0101,0.026 0.0223,0.0524 0.0366,0.0777 0.005,0.004 0.0116,0.009 0.0144,0.0151 0.0223,0.049 0.0274,0.0992 0.0267,0.15313 -7e-4,0.023 -0.001,0.0468 -7e-4,0.0705 7e-4,0.0173 0.002,0.0331 0.006,0.0488 0.0136,0.009 0.0195,0.0282 0.0173,0.0455 v 0.002 c 0.0265,0.0388 0.0539,0.0784 0.074,0.12166 0.003,0.005 0.004,0.01 0.005,0.0157 0.0251,-0.006 0.0517,-0.0136 0.0762,-0.0228 10e-4,0 0.004,-0.002 0.006,-0.003 7e-4,0 0.001,0 0.002,0 0.004,-0.002 0.008,-0.004 0.0121,-0.006 0.009,-0.004 0.0173,-0.0109 0.026,-0.0166 0.002,-0.002 0.004,-0.004 0.006,-0.006 0.004,-0.004 0.007,-0.006 0.0114,-0.0116 7.1e-4,0 0.002,-0.004 0.004,-0.005 v 0 c 0.003,-0.005 0.006,-0.0101 0.009,-0.0151 0.0107,-0.0195 0.0337,-0.0252 0.0532,-0.0151 0.002,-0.006 0.005,-0.0121 0.008,-0.0158 0.002,-0.0166 0.0138,-0.0324 0.0296,-0.0359 0.0559,-0.0144 0.11135,-0.0123 0.16749,0 0.009,0.002 0.0144,0.007 0.0193,0.0129 0.0309,-0.028 0.067,-0.0497 0.10639,-0.0604 0.0217,-0.006 0.041,0.006 0.049,0.0272 10e-4,-0.002 0.005,-0.002 0.007,-0.002 -0.004,-0.007 -0.006,-0.0145 -0.006,-0.0202 0.004,-0.028 0.0101,-0.0539 0.0258,-0.0777 0.0151,-0.0208 0.0339,-0.0374 0.0561,-0.0495 0.0208,-0.0116 0.0438,-0.0195 0.0663,-0.0267 0.0473,-0.0819 0.0898,-0.16896 0.14006,-0.24866 0.006,-0.0101 0.0151,-0.0158 0.0238,-0.018 0.003,-0.006 0.004,-0.0129 0.006,-0.0193 0.003,-0.0109 0.009,-0.0195 0.018,-0.0245 -0.005,-0.0215 -0.009,-0.0433 -0.0129,-0.0655 -0.008,-0.0626 -7e-4,-0.1316 -7e-4,-0.19473 0,-0.0447 -7.1e-4,-0.0878 0,-0.13234 0,-0.0374 -0.0101,-0.0712 -0.0116,-0.10786 -0.003,-0.0309 0.001,-0.0633 7.1e-4,-0.0935 -10e-4,-0.0683 -0.0179,-0.13362 -0.023,-0.20135 -0.005,-0.0532 -0.007,-0.1178 0.0131,-0.16897 0.0294,-0.0676 0.0782,-0.12571 0.11429,-0.1905 0.009,-0.0158 0.0223,-0.0309 0.0287,-0.0473 0.003,-0.007 7e-4,-0.0173 0.004,-0.0238 0.006,-0.0151 0.0223,-0.023 0.0324,-0.0361 0.0302,-0.0409 0.0524,-0.0898 0.095,-0.11927 0.0302,-0.0208 0.0955,-0.0165 0.13087,-0.0123 0.028,0.004 0.0445,0.0302 0.0683,0.046 0.0179,0.0123 0.0351,0.0188 0.0547,0.0296 0.0179,0.008 0.0438,0.025 0.0604,0.0302 0.0179,0.006 0.0287,0.002 0.0453,0.0107 0.0151,0.009 0.0252,0.023 0.0423,0.0282 0.018,0.005 0.0475,0 0.0675,0 h 0.20779 c 0.021,0 0.0641,0.009 0.0836,-0.003 0.0287,-0.0158 0.0446,-0.0495 0.0503,-0.0799 0.0136,-0.074 0.0109,-0.15314 -0.005,-0.22713 -0.0116,-0.0532 -0.0368,-0.10712 -0.0519,-0.15737 -0.006,-0.021 -0.006,-0.0418 -0.0144,-0.0626 -0.009,-0.0203 -0.0201,-0.0374 -0.0302,-0.0569 -0.0388,-0.074 -0.0797,-0.1351 -0.13289,-0.19768 -0.0224,-0.028 -0.0641,-0.0655 -0.0957,-0.0799 -0.0223,-0.01 -0.0503,-0.005 -0.074,-0.005 -0.0396,0 -0.0742,-0.006 -0.10712,0.0151 -0.0361,0.023 -0.0526,0.0697 -0.069,0.11006 -0.007,0.0193 -0.0166,0.0344 -0.0237,0.0539 -0.009,0.0208 -0.004,0.0388 -0.008,0.0596 -0.004,0.0186 -0.0123,0.0245 -0.0123,0.0475 0,0.0245 -0.003,0.0488 -0.0158,0.0711 -0.0287,0.0475 -0.069,0.0475 -0.11706,0.0475 -0.0641,0 -0.12221,0.0116 -0.18552,0.0116 -0.0618,0 -0.1259,-0.0123 -0.17983,0.0216 -0.0525,0.0331 -0.10197,0.072 -0.14798,0.11926 -0.0144,0.0173 -0.0302,0.0353 -0.046,0.0526 -0.0173,-0.005 -0.0353,-0.009 -0.0497,-0.0158 -0.0294,-0.0131 -0.0668,-0.0475 -0.0906,-0.069 -0.051,-0.0455 -0.0935,-0.10141 -0.14098,-0.14964 -0.0238,-0.0237 -0.0574,-0.0547 -0.0883,-0.0697 -0.0215,-0.009 -0.0295,-0.0114 -0.0475,-0.0287 -0.0188,-0.0158 -0.0475,-0.0245 -0.0633,-0.0418 -0.0329,-0.0322 -0.0547,-0.0955 -0.0762,-0.13657 -0.0179,-0.0344 -0.0302,-0.074 -0.0381,-0.11135 -0.009,-0.044 -0.0258,-0.0856 -0.0324,-0.13087 -0.003,-0.018 -7.1e-4,-0.0381 -0.006,-0.0561 -0.002,-0.0101 -0.0129,-0.0252 -0.0166,-0.0381 -0.0129,-0.0475 -0.0258,-0.0848 -0.0258,-0.13657 7e-4,-0.0554 0,-0.1108 0,-0.16676 0,-0.12883 0,-0.25749 0,-0.38688 0,-0.0445 -0.009,-0.0668 -0.0223,-0.10933 -0.006,-0.0171 -0.0101,-0.0352 -0.0138,-0.0532 -0.003,-0.0136 -0.009,-0.0237 -0.0201,-0.0302 -0.004,-0.008 -0.0223,-0.0604 -0.023,-0.0604 7e-4,0.0668 7e-4,0.13381 7e-4,0.19989 -7e-4,0.1108 -0.0359,0.2113 -0.0346,0.32063 10e-4,0.0453 -0.0121,0.0878 -0.0114,0.13381 7.1e-4,0.0646 -0.0101,0.12442 -0.0116,0.18903 -0.002,0.0799 7e-4,0.16105 7e-4,0.24166 0,0.0797 -0.023,0.18609 0.0151,0.26229 0.0144,0.0282 0.0381,0.046 0.0618,0.0655 0.0324,0.0272 0.0596,0.0561 0.0856,0.0906 0.0339,0.046 0.0747,0.0871 0.10712,0.13381 0.049,0.0725 0.11356,0.14154 0.15093,0.22216 0.009,0.0201 0.0145,0.0302 0.0309,0.0453 0.0225,0.0201 0.0309,0.0388 0.0482,0.0631 0.0173,0.0237 0.0418,0.0526 0.0668,0.0685 0.004,0.002 0.009,0.004 0.0131,0.006 -0.0158,-0.0158 -0.0267,-0.0309 -0.0223,-0.0381 0.0158,-0.006 0.0388,0.025 0.0604,0.0539 -0.0131,-0.004 -0.026,-0.0101 -0.0381,-0.0158 0.01,0.0101 0.0223,0.0208 0.0337,0.0309 -0.0351,0.0653 -0.0653,0.13437 -0.0883,0.20707 -0.0158,0.0525 -0.0215,0.10712 -0.0418,0.15737 -0.0208,0.0539 -0.0438,0.10712 -0.0582,0.164 -0.003,0.0129 -0.006,0.028 -0.008,0.0431 -0.005,-0.0121 -0.0101,-0.0237 -0.0116,-0.0359 -0.004,-0.0316 7e-4,-0.0683 0.001,-0.10068 0,-0.0351 -0.004,-0.0626 -0.009,-0.0963 -0.006,-0.0324 0.005,-0.072 -0.002,-0.10289 -0.0123,-0.0482 -0.0281,-0.0999 -0.044,-0.15019 -0.007,-0.0217 -0.0144,-0.0388 -0.0237,-0.0598 -0.0201,-0.0431 -0.0287,-0.0926 -0.0559,-0.13142 -0.0361,-0.0532 -0.0942,-0.0764 -0.14394,-0.11448 -0.033,-0.0243 -0.0762,-0.0445 -0.1027,-0.0747 -0.0582,-0.0654 -0.10638,-0.1351 -0.15755,-0.2056 -0.0114,-0.018 -0.028,-0.0252 -0.0431,-0.041 -0.023,-0.0257 -0.0445,-0.0604 -0.0747,-0.0797 -0.0173,-0.0123 -0.0173,-0.009 -0.0237,-0.0309 -0.0136,-0.0361 -0.009,-0.0712 -0.009,-0.11007 7e-4,-0.11356 0,-0.22786 0,-0.34142 7e-4,-0.0591 -0.009,-0.11228 -0.0107,-0.17191 -10e-4,-0.0344 -0.0116,-0.0683 -0.0123,-0.10289 -7.1e-4,-0.0366 0,-0.0733 0,-0.10988 v -0.22732 c 0,-0.0545 0,-0.10841 7.1e-4,-0.16381 7e-4,-0.0497 -0.0114,-0.0871 -0.0201,-0.13455 -0.0158,-0.0841 -0.0604,-0.14798 -0.0935,-0.22344 -0.0123,-0.0281 -0.0366,-0.0455 -0.0468,-0.0806 -0.001,0.0351 0.0265,0.0878 0.0374,0.12148 0.0166,0.0554 0.0453,0.11228 0.0525,0.1697 0.004,0.0287 0.002,0.0547 0.002,0.0841 -0.002,0.17761 0.0143,0.36093 -7.1e-4,0.53929 -0.008,0.0891 -0.0121,0.18626 -0.0331,0.2724 -0.006,0.026 -0.009,0.046 -0.0107,0.0727 -0.001,0.023 -0.0109,0.0416 -0.0123,0.0653 -0.004,0.0727 -0.005,0.15387 0.0151,0.22362 0.0145,0.0482 0.008,0.10068 0.008,0.1524 0,0.0366 0.0101,0.0698 0.0123,0.10639 0.004,0.0871 0.0502,0.16768 0.0812,0.25032 0.004,0.0136 0.0136,0.0265 0.0195,0.0396 0.0151,0.0295 0.0302,0.0589 0.0473,0.0876 0.0237,0.0418 0.0554,0.074 0.0856,0.1108 0.0123,0.0158 0.0202,0.0322 0.0368,0.0445 0.0144,0.0114 0.033,0.0166 0.048,0.0257 0.0433,0.0282 0.0814,0.0677 0.11228,0.11007 0.003,0.0223 0.004,0.0453 0.006,0.0675 0.006,0.0598 0,0.13161 -0.0309,0.18406 -0.0151,0.0252 -0.041,0.0468 -0.0576,0.0712 -0.0151,0.0215 -0.023,0.0403 -0.0445,0.0576 -0.0136,0.0114 -0.028,0.028 -0.0446,0.0344 -0.0143,0.006 -0.0359,0.007 -0.051,0.0116 h -7e-4 c -0.001,-0.0203 -0.004,-0.0396 -0.0158,-0.0583 -0.0136,-0.0245 -0.0418,-0.0482 -0.0655,-0.0611 -0.033,-0.018 -0.046,-0.0316 -0.0711,-0.0567 -0.0123,-0.0131 -0.0195,-0.0252 -0.0304,-0.0388 -0.0107,-0.0123 -0.009,-0.009 -0.0251,-0.0109 -0.023,-0.003 -0.0274,-0.003 -0.049,-0.0129 -0.0136,-0.006 -0.0475,-0.026 -0.0626,-0.0245 -0.0107,0 -0.0388,0.0193 -0.0475,0.0265 -0.0156,0.013 -0.0144,0.0309 -0.025,0.044 -0.0109,0.0121 -0.0302,0.0201 -0.0433,0.0287 -0.025,0.0173 -0.051,0.0339 -0.0769,0.0495 0.002,-0.0201 0.007,-0.0381 0.0145,-0.0604 0.0287,-0.0755 0.0624,-0.15737 0.0718,-0.23799 0.0116,-0.0992 0.002,-0.20412 0.002,-0.30332 0,-0.0769 -7.1e-4,-0.15461 0,-0.23155 7e-4,-0.0144 7e-4,-0.0265 -0.002,-0.0403 -0.004,-0.0158 -0.004,-0.0388 -0.009,-0.0547 -0.003,-0.0129 -0.008,-0.0136 -0.0129,-0.0243 -0.0208,-0.0388 -0.009,-0.0878 -0.023,-0.12811 -0.0151,-0.0438 -0.0396,-0.0848 -0.0547,-0.12939 -0.0107,-0.0324 -0.0216,-0.0661 -0.0344,-0.0985 -0.0138,-0.0339 -0.0433,-0.0589 -0.0619,-0.0891 -0.0143,-0.0237 -0.021,-0.0539 -0.0302,-0.0806 -0.0166,-0.0438 -0.049,-0.0948 -0.0539,-0.14522 -0.004,-0.0287 0.005,-0.0539 -0.005,-0.0826 -0.0114,-0.0346 -0.0178,-0.0547 -0.0171,-0.0906 10e-4,-0.0569 -0.0101,-0.11154 -0.0123,-0.16823 -7.1e-4,-0.0353 7.1e-4,-0.0712 7.1e-4,-0.10639 0,-0.0734 0.004,-0.1489 -10e-4,-0.2216 -0.004,-0.0423 -0.0151,-0.0841 -0.0186,-0.12645 -0.005,-0.0618 0.01,-0.12074 0.0151,-0.18056 0.002,-0.0337 0.004,-0.0668 0.006,-0.0998 0,-0.008 -0.004,-0.0907 -0.004,-0.0907 -0.0208,0.0116 -0.0337,0.0361 -0.048,0.0554 -0.0215,0.0324 -0.0453,0.0641 -0.0663,0.0985 -0.0121,0.0203 -0.0245,0.0403 -0.0337,0.0611 -0.009,0.0223 -0.0165,0.0453 -0.018,0.0683 -10e-4,0.023 0.002,0.0453 0.007,0.0663 l -0.0337,0.009 c -10e-4,0.0388 0.004,0.079 0.01,0.10988 0.008,0.0453 0.0237,0.0878 0.0267,0.13308 0.001,0.0101 7e-4,0.0173 0,0.0252 -0.008,0.0495 -0.0151,0.0977 -0.026,0.14522 -0.009,0.0409 -0.0136,0.0834 -0.0193,0.12572 -0.005,0.0381 -0.0237,0.0755 -0.0361,0.11374 -0.0179,0.0538 -0.0317,0.1005 -0.0317,0.15737 -7e-4,0.0309 -0.007,0.072 0.006,0.0985 0.0144,0.028 0.0337,0.0583 0.051,0.0848 0.006,0.0116 0.0158,0.0188 0.0223,0.0287 0.0116,0.0158 0.0116,0.0281 0.0195,0.046 0.0136,0.0309 0.0409,0.0583 0.0582,0.0878 0.006,0.0114 0.005,0.0136 0.0121,0.0245 0.005,0.007 0.0131,0.0144 0.018,0.0208 0.0504,0.0683 0.0655,0.15313 0.12939,0.20854 0.008,0.007 0.0188,0.0136 0.0294,0.0223 0.0158,0.0374 0.0296,0.0755 0.0376,0.1143 0.0156,0.0863 -0.0158,0.16675 -0.0606,0.23577 -0.0352,0.0584 -0.074,0.1143 -0.11504,0.1675 -0.046,0.0604 -0.0992,0.10712 -0.12865,0.17835 -0.0258,0.0626 -0.0438,0.12736 -0.0633,0.1905 -0.0171,0.0519 -0.0416,0.0999 -0.0589,0.15166 -0.0136,0.0418 -0.0186,0.0792 -0.0215,0.11945 -0.0626,-0.0418 -0.13013,-0.0755 -0.18848,-0.12148 -0.0136,-0.0109 -0.028,-0.0202 -0.0409,-0.0281 0,-0.009 0,-0.0186 0,-0.028 0,-0.0574 -0.003,-0.11062 0.01,-0.16749 0.018,-0.0755 0.0316,-0.15093 0.0613,-0.22216 0.0171,-0.0403 0.0374,-0.0777 0.0539,-0.11946 0.0129,-0.0315 0.0186,-0.0567 0.0352,-0.0869 0.018,-0.0324 0.0388,-0.0648 0.0431,-0.10141 0.005,-0.0388 0.0109,-0.0791 0.0124,-0.11725 0.004,-0.0589 -0.0166,-0.11062 -0.0353,-0.16381 -0.0166,-0.0475 -0.0309,-0.0999 -0.051,-0.14449 0.009,0.0157 0.0101,0.0539 0.005,0.071 -0.004,0.0151 -0.007,0.0215 -0.009,0.0396 -0.003,0.0195 -0.009,0.0346 -0.0153,0.0517 -0.0171,0.049 -0.0445,0.0893 -0.0767,0.13013 -0.0534,0.0663 -0.11449,0.1108 -0.18204,0.16179 -0.0475,0.0366 -0.0841,0.0856 -0.11926,0.13454 -0.0195,-0.0482 -0.0361,-0.0885 -0.0504,-0.13951 -0.0151,-0.0517 -0.0215,-0.10565 -0.0351,-0.15811 -0.005,-0.023 -0.008,-0.0425 -0.008,-0.0677 7.1e-4,-0.0703 -0.004,-0.1351 0.0136,-0.20265 0.0151,-0.0517 0.0208,-0.10712 0.0295,-0.16031 0.007,-0.0468 0.009,-0.10142 0.0109,-0.14744 0.001,-0.0252 -10e-4,-0.0532 0.009,-0.0762 0.0136,-0.0295 0.0136,-0.0453 0.0166,-0.0791 0.006,-0.0532 0.023,-0.10418 0.0322,-0.15737 0.007,-0.0403 0.0158,-0.0806 0.0245,-0.12092 0.0136,-0.0582 0.0359,-0.10989 0.0547,-0.16602 0.0381,-0.11578 0.0604,-0.24812 0.046,-0.37162 -0.006,-0.0504 -0.0208,-0.12019 -0.0453,-0.16473 -0.008,-0.0136 -0.0195,-0.0438 -0.0309,-0.0539 -0.008,0.0245 -0.002,0.0576 -0.002,0.0834 -7.1e-4,0.0569 0,0.10859 -0.0107,0.16326 -0.005,0.0237 0.004,0.0482 0,0.072 -0.005,0.025 -0.0123,0.0539 -0.0195,0.0782 -0.006,0.0296 -0.0158,0.0633 -0.023,0.0885 -0.0136,0.0482 -0.0388,0.0876 -0.0596,0.13289 -0.0158,0.0331 -0.0331,0.0626 -0.0569,0.09 -0.0388,0.0423 -0.0624,0.097 -0.0883,0.14872 -0.069,0.13877 -0.10418,0.29338 -0.10418,0.44946 7.1e-4,0.0388 0,0.0777 0,0.11651 0,0.0473 0,0.0941 0.006,0.14154 0.006,0.0453 0.0237,0.0856 0.0344,0.12939 0.002,0.006 0.002,0.0131 0.003,0.0195 -0.0123,-0.0144 -0.0245,-0.0289 -0.0366,-0.0425 -0.0245,-0.028 -0.0403,-0.0618 -0.0727,-0.0804 -0.0589,-0.0339 -0.12148,-0.0604 -0.18258,-0.0885 -0.0539,-0.0245 -0.026,-0.0158 -0.0561,-0.0171 -0.0215,-0.002 -0.0503,-0.004 -0.0668,0.0151 -0.0116,0.0129 -0.0223,0.1027 -0.0504,0.071 l -0.004,-0.0114 c -10e-4,-0.004 -0.004,-0.008 -0.006,-0.0116 -10e-4,-0.009 -0.003,-0.0171 -0.005,-0.0245 -10e-4,-0.002 -0.002,-0.003 -0.004,-0.004 -0.0512,0.0418 -0.11228,0.0633 -0.18056,0.0374 -0.0552,-0.0216 -0.10068,-0.0604 -0.14007,-0.10638 -0.007,-0.0151 -0.0145,-0.0324 -0.0302,-0.0381 h -7e-4 c -0.006,-0.008 -0.0124,-0.0151 -0.018,-0.023 h -0.0151 c -0.0324,0 -0.0762,-0.008 -0.10859,0 -0.0295,0.007 -0.0475,0.0346 -0.0641,0.0604 -0.0223,0.0346 -0.0309,0.0626 -0.0453,0.10141 -0.009,0.0223 -0.0179,0.0302 -0.0201,0.0532 -0.002,0.0158 0.002,0.0324 7e-4,0.0475 -0.004,0.0265 -0.0123,0.0416 -0.0123,0.0712 v 0.10123 c 0,0.0339 -0.001,0.0677 0,0.10142 0,0.0245 0.0101,0.0302 0.021,0.0504"
       style="fill:#21201d;fill-opacity:1;fill-rule:evenodd;stroke:none;stroke-width:0.184057"
       id="path570" />
    <path
       d="m 441.50655,174.31323 c -0.004,0.023 -0.004,0.0468 -0.008,0.0698 -0.001,0.006 -0.004,0.0136 -0.005,0.0201 -0.0289,0.0274 -0.0618,0.0504 -0.0979,0.067 -0.0589,0.0272 -0.12939,0.0381 -0.17964,-0.0123 -0.0188,-0.0186 -0.0302,-0.0423 -0.0388,-0.0675 -0.005,-0.004 -0.009,-0.009 -0.0123,-0.0166 -0.007,-0.0186 -0.0144,-0.0381 -0.0179,-0.0582 -0.0216,-0.10491 -0.0188,-0.22215 0.009,-0.32504 0.0265,-0.10344 0.0963,-0.20707 0.20982,-0.19473 0.006,0 0.0116,0.003 0.018,0.004 0.008,0.009 0.0166,0.0195 0.0245,0.028 0.001,0 0.002,0.003 0.004,0.004 0.002,0.004 0.005,0.009 0.007,0.0136 0.009,0.0166 0.0217,0.0302 0.0353,0.0425 0.0166,0.0272 0.0316,0.0574 0.0381,0.0883 0.003,0.0109 0.008,0.0201 0.009,0.0346 0.003,0.0223 0.005,0.0431 0.0114,0.0646 0.0124,0.0353 0.0116,0.0668 0.0116,0.10565 0,0.0482 -0.009,0.0856 -0.0173,0.13234 m 3.24178,-1.47394 c -0.001,-0.0977 -0.0223,-0.20117 0.0131,-0.29467 0.0171,-0.0468 0.0466,-0.0863 0.0782,-0.12443 -0.008,-0.0116 0,-0.0287 0.0173,-0.046 0.008,-0.006 0.0201,-0.0129 0.0324,-0.018 0.002,-0.002 0.004,-0.005 0.006,-0.008 -0.0675,0 -0.13307,-0.004 -0.19915,0.013 -0.0539,0.0144 -0.11356,0.0453 -0.15534,0.0819 -0.0223,0.0188 -0.0388,0.0438 -0.0668,0.0475 -0.0913,0.0144 -0.19989,-0.006 -0.28326,-0.0418 -0.0438,-0.0178 -0.0812,-0.0302 -0.13013,-0.0295 -0.0346,0 -0.0683,-0.002 -0.10289,0 -0.0539,0.004 -0.0955,0.026 -0.14522,0.0453 -0.0661,0.0272 -0.11853,0.046 -0.1732,0.0935 -0.026,0.023 -0.0554,0.0388 -0.0819,0.0611 -0.0591,0.0468 -0.11724,0.0955 -0.17486,0.14522 -0.0762,0.0648 -0.14227,0.14375 -0.20779,0.21995 -0.0359,0.0433 -0.0639,0.0856 -0.0891,0.13731 -0.0272,0.0583 -0.0547,0.11301 -0.0876,0.16896 -0.0368,0.0626 -0.0591,0.12663 -0.0777,0.19713 -0.006,0.0193 -0.0109,0.0394 -0.0151,0.0589 0.002,0.009 0.004,0.0173 0.002,0.026 0,0.008 -0.003,0.0157 -0.006,0.023 -0.006,0.0208 -0.0129,0.0416 -0.0215,0.0611 -0.002,0.01 -0.005,0.0208 -0.006,0.0295 -7e-4,-0.004 -7e-4,-0.009 -7e-4,-0.0144 -0.009,0.0179 -0.018,0.0359 -0.028,0.0532 -0.0123,0.0208 -0.0237,0.0401 -0.0331,0.0618 l -0.004,0.008 c 0,0 -7.1e-4,0 -7.1e-4,0.002 -10e-4,0.004 -0.003,0.009 -0.005,0.0151 -0.003,0.0109 -0.006,0.0223 -0.006,0.0339 -0.002,0.0144 -0.0129,0.023 -0.0245,0.0272 -0.005,0.0123 -0.0144,0.023 -0.0265,0.026 -0.0109,0.003 -0.0215,0.006 -0.0317,0.009 -0.004,0.005 -0.006,0.009 -0.009,0.0136 -0.0403,0.0633 -0.0891,0.13436 -0.1524,0.17836 0.009,0.0178 0.009,0.0423 -0.0123,0.0559 -0.10344,0.0705 -0.22345,0.023 -0.33425,-0.007 -0.0215,0.0591 -0.0661,0.0987 -0.12442,0.11651 -0.0517,0.0151 -0.10638,0.0158 -0.16031,0.0158 -0.006,0 -0.0107,-0.002 -0.0151,-0.004 -0.003,0 -0.006,0 -0.008,0.002 -0.0173,0.005 -0.0337,-0.002 -0.0431,-0.0158 -0.0109,-0.004 -0.0215,-0.0107 -0.0324,-0.0164 -7e-4,0 -10e-4,-0.002 -0.003,-0.002 -7e-4,0 -10e-4,0 -0.002,0 h -0.002 c -0.002,0 -0.006,0.002 -0.007,0.002 -0.001,0 -0.004,0.002 -0.007,0.002 -7e-4,0 -7e-4,0 -0.001,0 -0.002,0.002 -0.004,0.002 -0.006,0.003 0,0 -7.1e-4,0 -7.1e-4,0 -10e-4,0.003 -0.002,0.006 -0.003,0.0107 -0.006,0.0158 -0.0201,0.0289 -0.0359,0.0289 -0.002,-0.0109 -0.006,-0.0215 -0.008,-0.0331 -0.0151,-0.051 -0.0366,-0.0999 -0.0589,-0.14945 0.002,-0.009 0.004,-0.0188 0.006,-0.0282 0.001,-0.004 0.001,-0.007 0.001,-0.0114 0,-0.002 10e-4,-0.0101 10e-4,-0.0109 0.001,-0.0101 0.002,-0.0193 0.002,-0.028 0.002,-0.018 0.003,-0.0361 0.003,-0.0532 0,0 0,0 0,-0.002 -0.0309,-0.0517 -0.0611,-0.10363 -0.092,-0.15461 -10e-4,-0.007 -0.003,-0.0165 -0.004,-0.0237 -0.006,-0.0344 -0.006,-0.0705 -0.0114,-0.10491 0.004,-0.0203 0.006,-0.0396 0.005,-0.0591 -10e-4,0.002 -0.004,0.002 -0.006,0.003 -0.003,0 -0.007,0.002 -0.0109,0.002 -0.006,-0.0166 -0.0151,-0.0316 -0.0223,-0.0482 -0.0166,-0.0329 -0.0316,-0.0653 -0.0344,-0.10344 -0.002,-0.0309 0.004,-0.0618 -10e-4,-0.0913 -0.008,-0.0403 -0.0316,-0.0806 -0.0403,-0.12221 -0.008,-0.0353 -0.009,-0.069 -0.0215,-0.10363 -0.008,-0.0193 -0.0166,-0.0388 -0.0237,-0.0582 -0.0136,-0.0381 -0.0317,-0.1051 -0.074,-0.12093 -0.0281,-0.0107 -0.0777,-0.007 -0.0977,0.0151 -0.0131,0.0151 -0.0217,0.0324 -0.0331,0.0455 -0.007,0.008 -0.0173,0.0151 -0.0237,0.0215 -0.026,0.0258 -0.0339,0.0611 -0.0482,0.0948 -0.0265,0.0626 -0.0495,0.12884 -0.0532,0.19713 -10e-4,0.0344 -0.0107,0.0653 -0.0114,0.10123 0,0.0245 -0.009,0.0418 -0.0123,0.0655 -0.002,0.0129 0.004,0.026 10e-4,0.0388 -0.004,0.0166 -0.009,0.0272 -0.0114,0.0445 -0.0123,0.0705 -0.0289,0.13804 -0.0497,0.20853 -0.0114,0.0388 -0.018,0.0718 -0.026,0.11209 -0.009,0.0433 -0.0337,0.0814 -0.0381,0.1259 -0.006,0.0488 0,0.10418 0,0.15461 0,0.009 0,0.0171 -7e-4,0.0257 -0.0633,0.018 -0.13087,0.0144 -0.18848,-0.025 -0.006,-0.005 -0.0101,-0.0101 -0.0136,-0.0158 -0.026,-0.004 -0.0517,-0.009 -0.0762,-0.0173 -0.0366,-0.009 -0.0755,-0.023 -0.11301,-0.0287 -0.0381,0.0144 -0.0747,0.0302 -0.11559,0.0309 -0.023,0 -0.0396,-0.0188 -0.0403,-0.0418 0,-0.004 7.1e-4,-0.007 10e-4,-0.0109 -0.009,-0.002 -0.0195,-0.004 -0.0289,-0.008 -0.0107,-0.004 -0.0186,-0.0121 -0.0243,-0.0223 -0.009,0 -0.0188,-0.002 -0.0274,-0.0129 -0.0302,-0.0374 -0.0626,-0.074 -0.0992,-0.10565 -0.0223,-0.0188 -0.0525,-0.0366 -0.0769,-0.0446 -0.0129,-0.004 -0.0258,-0.006 -0.0388,-0.008 -0.0107,0.004 -0.0215,0.004 -0.0316,0 -0.007,0.008 -0.0179,0.0151 -0.0302,0.0151 -0.0567,0 -0.11283,0 -0.16896,-0.0131 -0.0171,-0.004 -0.0272,-0.0208 -0.028,-0.0381 -0.0136,-0.006 -0.0252,-0.0215 -0.023,-0.0381 0,-0.004 0.001,-0.0166 0,-0.0215 0,0.003 7.1e-4,0.006 0,0.002 0,-0.002 -10e-4,-0.003 -10e-4,-0.004 -7e-4,-0.002 -10e-4,-0.004 -10e-4,-0.007 h -7e-4 c -7.1e-4,-0.002 -0.002,-0.004 -0.004,-0.006 -7.1e-4,0 -7.1e-4,0 -7.1e-4,0 -10e-4,0 -0.004,-0.003 -0.005,-0.004 -10e-4,-0.002 -0.003,-0.003 -0.005,-0.004 -0.004,-0.003 -0.009,-0.006 -0.0129,-0.008 h -7e-4 c -10e-4,0 -0.004,-0.002 -0.006,-0.002 -0.006,-0.002 -0.0109,-0.004 -0.0158,-0.006 -0.0223,-0.006 -0.0453,-0.0107 -0.0683,-0.0158 -0.0475,-0.0114 -0.0992,-0.0295 -0.13381,-0.0683 -0.0166,-0.006 -0.0316,-0.0114 -0.0473,-0.0193 -0.0388,-0.0188 -0.0756,-0.0438 -0.10362,-0.0791 -0.0121,-0.0151 -0.0144,-0.0331 -0.005,-0.0495 -0.0166,-0.0224 -0.0316,-0.0453 -0.046,-0.0685 -0.0252,-0.0409 -0.0339,-0.0847 -0.0554,-0.12718 -0.009,-0.0186 -0.023,-0.0331 -0.041,-0.0416 -0.0129,-0.004 -0.0265,-0.005 -0.0409,-0.004 -0.0195,-0.0158 -0.0361,-0.0344 -0.0504,-0.0539 -0.0257,-0.028 -0.0495,-0.0567 -0.0718,-0.0876 -0.0425,-0.0598 -0.0633,-0.13013 -0.0957,-0.19639 -0.028,-0.0574 -0.046,-0.0992 -0.0928,-0.14154 -0.0475,-0.0396 -0.0942,-0.0814 -0.13951,-0.12516 -0.0179,-0.0201 -0.033,-0.0431 -0.0453,-0.069 -0.0532,-0.0762 -0.13087,-0.095 -0.21572,-0.10363 -0.11503,-0.0114 -0.22215,-0.002 -0.33645,0.004 -0.0554,0.002 -0.11927,0.0136 -0.17246,0.026 -0.0388,0.008 -0.0863,0.0257 -0.12166,0.0431 -0.0337,0.0158 -0.0517,0.0396 -0.0913,0.0396 -0.0582,0 -0.0992,-0.0361 -0.14946,-0.0596 -0.026,-0.0116 -0.0497,-0.0224 -0.0747,-0.0361 -0.0346,-0.0186 -0.0683,-0.0381 -0.0979,-0.0611 -0.0164,-0.0121 -0.0374,-0.0215 -0.0394,0 0.002,0.0151 0.0144,0.0195 0.0223,0.0302 0.0107,0.0144 0.006,0.0223 0.0129,0.0388 0.008,0.0188 0.0331,0.0331 0.0438,0.0504 0.0136,0.0201 0.0173,0.0431 0.0223,0.0661 0.004,0.018 0.0101,0.0331 0.0123,0.0517 10e-4,0.0289 -0.0101,0.0519 -0.0123,0.0784 -0.002,0.0223 0.002,0.0453 7e-4,0.0661 -0.002,0.0195 -0.0107,0.0353 -0.0121,0.0539 -0.005,0.0455 0.006,0.092 7e-4,0.13675 -0.002,0.0201 -0.0101,0.023 -0.018,0.0409 -0.009,0.018 -0.002,0.0361 -0.008,0.0539 -0.004,0.0158 -0.018,0.0282 -0.0265,0.0418 -0.0116,0.0166 -0.0124,0.0302 -0.021,0.0482 -0.0136,0.028 -0.0374,0.0495 -0.0272,0.0847 0.0287,-0.0193 0.0475,-0.056 0.072,-0.079 0.0157,-0.0151 0.0265,-0.0302 0.046,-0.0381 0.0236,-0.009 0.051,-0.009 0.0725,-0.0237 0.0195,-0.0129 0.0295,-0.0374 0.051,-0.0453 0.013,-0.004 0.0223,-0.006 0.0346,-0.0116 0.0495,-0.0208 0.0913,-0.0582 0.13436,-0.0883 0.0296,-0.021 0.0497,-0.0468 0.0683,-0.0791 0.0237,-0.0416 0.0598,-0.0646 0.10215,-0.0898 0.028,-0.0173 0.0539,-0.0188 0.0841,-0.0282 0.0195,-0.006 0.0274,-0.0129 0.0453,-0.0215 0.0353,-0.0186 0.0675,-0.0151 0.10786,-0.0151 0.049,0 0.095,-0.002 0.14099,0.009 0.0166,0.005 0.0309,0 0.0475,0.003 0.0251,0.003 0.0488,0.0166 0.0733,0.023 0.0331,0.009 0.0791,0.0374 0.10564,0.0633 0.0124,0.0114 0.0166,0.0272 0.0216,0.0431 0.0123,0.0438 0.0316,0.0906 0.0353,0.13731 0.002,0.0287 -0.003,0.0574 0.001,0.0878 0.004,0.0294 0.0158,0.0567 0.0208,0.0854 0.005,0.0353 -0.003,0.0742 -10e-4,0.10933 0.002,0.0769 0.0381,0.14964 0.0584,0.22142 0.0143,0.0547 0.0171,0.11228 0.0416,0.164 0.009,0.0173 0.0173,0.0337 0.0223,0.0525 0.0136,0.0517 0.023,0.10362 0.0425,0.15313 0.0144,0.0366 0.023,0.0762 0.0416,0.1108 0.0131,0.0223 0.0302,0.0401 0.0418,0.0646 0.01,0.0215 0.0179,0.0453 0.0324,0.0663 0.023,0.0344 0.0524,0.0617 0.0703,0.0999 0.0116,0.0236 0.0158,0.048 0.0245,0.0725 0.0151,0.0381 0.0425,0.069 0.0604,0.10565 0.0217,0.0418 0.0368,0.09 0.0712,0.12295 0.0396,0.0374 0.0965,0.0532 0.13878,0.0863 0.0173,0.0151 0.0316,0.0302 0.0497,0.0423 0.0302,0.021 0.0624,0.0346 0.097,0.0468 0.0561,0.0217 0.10859,0.018 0.16823,0.0173 0.004,0 0.008,0 0.0121,0.002 0.0245,0.0453 0.044,0.095 0.0547,0.14448 0.0173,0.0777 0.0238,0.15885 0.0245,0.23725 0,0.0425 -0.008,0.0848 -0.0339,0.11725 -0.0265,0.0344 -0.0639,0.0554 -0.0926,0.0856 -0.0282,0.0287 -0.0561,0.0547 -0.0856,0.0797 -0.0339,0.0295 -0.0705,0.064 -0.10288,0.0957 -0.0144,0.0166 -0.0238,0.0352 -0.0374,0.051 -0.0208,0.0245 -0.0453,0.041 -0.0582,0.0705 -0.0101,0.0245 -0.0124,0.0503 -0.0245,0.074 -0.0136,0.0281 -0.0368,0.0519 -0.049,0.0806 -0.018,0.0431 -0.0339,0.0955 -0.0445,0.1408 -0.0109,0.0447 -0.003,0.10289 -0.003,0.14891 0,0.0655 0.001,0.11577 0.026,0.17614 0.0193,0.049 0.0525,0.0856 0.0812,0.12939 0.0158,0.0252 0.023,0.0418 0.0482,0.0583 0.0129,0.008 0.0252,0.0136 0.0366,0.0223 0.0663,0.051 0.0584,0.11706 0.0569,0.19271 10e-4,-0.0131 0.006,-0.0237 0.009,-0.0368 0.004,-0.0237 0.003,-0.0416 0.007,-0.0653 0.0136,-0.0633 0.0186,-0.11946 0.0186,-0.18333 -7.1e-4,-0.0596 -0.0114,-0.12221 -0.023,-0.18055 -0.01,-0.0473 -0.023,-0.0933 -0.023,-0.14302 7.1e-4,-0.0351 -0.004,-0.0712 0,-0.10638 0.004,-0.0468 0.0282,-0.0539 0.0591,-0.0769 0.0158,-0.0109 0.0258,-0.0302 0.0423,-0.0396 0.0144,-0.009 0.0339,-0.0151 0.0482,-0.023 0.0359,-0.0208 0.0856,-0.0366 0.11209,-0.072 -7e-4,0.0166 -0.005,0.0274 -0.009,0.0425 -0.007,0.0215 -0.0151,0.0416 -0.0236,0.0626 -0.009,0.0151 -0.0158,0.0294 -0.0245,0.0445 -0.006,0.0316 -0.005,0.0648 -0.0124,0.097 -0.008,0.0346 -0.0114,0.0633 -0.0114,0.0985 0.001,0.0848 0.0223,0.15829 0.0547,0.23522 0.0129,0.0337 0.0344,0.0633 0.0473,0.0948 0.0138,0.0339 0.0289,0.0698 0.0447,0.10289 0.025,0.0539 0.0547,0.10344 0.0574,0.164 10e-4,0.0366 0.0101,0.10418 -0.0136,0.13436 0.0114,-0.0252 0.046,-0.0431 0.0653,-0.0618 0.0173,-0.0179 0.0289,-0.0309 0.0381,-0.0532 0.009,-0.0201 0.0224,-0.0374 0.0289,-0.0582 0.01,-0.0346 0.005,-0.072 0.005,-0.10786 7e-4,-0.0475 -0.0121,-0.0742 -0.0309,-0.11724 -0.0166,-0.0351 -0.0431,-0.0661 -0.0561,-0.0999 -0.0164,-0.0423 -0.0539,-0.10785 -0.048,-0.15313 10e-4,-0.0188 -0.003,-0.0188 0.0158,-0.0237 0.0295,-0.006 0.0287,0.003 0.0589,-0.0129 0.026,-0.0151 0.0475,-0.0215 0.0676,-0.0403 0.026,-0.023 0.0517,-0.0468 0.0769,-0.0705 0.0813,-0.0755 0.15093,-0.16308 0.21424,-0.25511 0.0173,-0.0274 0.0433,-0.0504 0.0633,-0.0769 0.0158,-0.002 0.0324,-0.003 0.0475,-0.004 0.0596,-0.006 0.11705,-0.0173 0.15884,-0.0611 -0.001,0.007 -0.004,0.0136 -0.005,0.018 -0.007,0.0193 -0.0223,0.0388 -0.0331,0.056 -0.0208,0.0324 -0.0359,0.0727 -0.0582,0.10362 -0.0166,0.0245 -0.0381,0.0453 -0.0547,0.069 -0.026,0.0359 -0.046,0.072 -0.069,0.1086 -0.0388,0.0618 -0.069,0.12368 -0.0762,0.19988 -0.006,0.0596 0.0114,0.10639 0.0337,0.16382 0.0346,0.09 0.069,0.18203 0.0799,0.27976 0.004,0.0445 0.009,0.12222 -0.0109,0.16253 -0.0144,0.0322 -0.0416,0.0703 -0.0611,0.097 -0.009,0.0109 -0.0245,0.0201 -0.0302,0.0331 0.0143,-0.005 0.0215,-0.0144 0.0324,-0.023 0.0331,-0.0267 0.0683,-0.049 0.10344,-0.0712 0.0217,-0.0121 0.0418,-0.0287 0.0618,-0.0438 0.0425,-0.0339 0.0663,-0.0814 0.0755,-0.13381 0.007,-0.0416 0.0225,-0.0826 0.0296,-0.12442 0.007,-0.0431 0.006,-0.0861 0.0151,-0.13013 0.0158,-0.0646 0.0114,-0.13436 0.0316,-0.19621 0.0114,-0.0351 0.0164,-0.0734 0.028,-0.10638 0.023,-0.0663 0.0856,-0.0972 0.12865,-0.1489 0.026,-0.0309 0.0497,-0.0661 0.0698,-0.10142 0.0129,-0.023 0.0295,-0.0359 0.0403,-0.0589 0.0114,-0.0265 0.028,-0.0482 0.0351,-0.074 h 7e-4 c 0.005,0.003 0.009,0.006 0.0136,0.009 -0.006,0.046 -0.0121,0.092 -0.023,0.13805 -0.0136,0.0604 -0.0193,0.11926 -0.0423,0.17743 -0.0109,0.0282 -0.0158,0.0532 -0.0208,0.0828 -0.0123,0.0631 -0.0304,0.12368 -0.0368,0.18681 -0.006,0.0683 -0.002,0.12222 0.0223,0.18627 0.0173,0.0467 0.0381,0.0898 0.0611,0.1351 0.023,0.0447 0.0482,0.0979 0.0605,0.14743 0.008,0.0374 -0.0165,0.12589 0.009,0.15314 0.0519,-0.0863 0.0878,-0.1675 0.0611,-0.26818 -0.0186,-0.0733 -0.0559,-0.14945 -0.0574,-0.22565 -0.001,-0.0821 -0.006,-0.15535 0.0302,-0.23007 0.051,-0.10584 0.11798,-0.19713 0.15957,-0.30849 0.0274,-0.0762 0.0388,-0.14669 0.0445,-0.22142 0.0195,0.0445 0.0361,0.0913 0.0598,0.13216 0.0215,0.0368 0.0309,0.0742 0.0589,0.10712 0.0151,0.0166 0.0337,0.0346 0.0495,0.0497 0.007,0.007 0.0138,0.0151 0.021,0.023 0.002,0.0193 0.004,0.0381 0.009,0.0574 0.005,0.0237 0.006,0.0497 0.0107,0.0749 0.006,0.0245 0.018,0.0475 0.0237,0.0725 0.0101,0.044 0.0144,0.0913 0.0245,0.13731 -0.002,0.0294 -0.004,0.0598 -0.0151,0.0848 -0.0109,0.0223 -0.0274,0.0403 -0.0359,0.0633 -0.005,0.0151 -0.004,0.0317 -0.0124,0.0482 -0.0215,0.0438 -0.0453,0.071 -0.0732,0.10712 -0.0374,0.0467 -0.0806,0.12792 -0.069,0.18755 0.004,0.0188 0.0179,0.0453 0.028,0.0641 0.0136,0.023 0.0381,0.0497 0.0396,0.0799 0.0158,-0.004 0.0186,-0.0705 0.0215,-0.0878 0.009,-0.0482 0.0468,-0.0883 0.069,-0.12865 0.0188,-0.0346 0.041,-0.0712 0.0675,-0.10216 0.0445,-0.0502 0.0641,-0.0891 0.0826,-0.15737 0.0131,-0.0475 0.026,-0.10712 0.0289,-0.15755 0.003,-0.051 0.009,-0.12222 -0.006,-0.17173 -0.006,-0.0245 -0.0171,-0.0497 -0.0258,-0.0727 -0.0101,-0.0252 -0.0287,-0.049 -0.0346,-0.0762 -7.1e-4,-0.004 -0.002,-0.007 -0.003,-0.0109 v -0.0963 c 0,-0.0109 0,-0.0223 7.1e-4,-0.0331 0.0186,0.004 0.0265,0.0274 0.0416,0.0475 0.0195,0.026 0.0403,0.0517 0.0604,0.0769 0.018,0.0215 0.0368,0.0388 0.0598,0.0532 0.0201,0.0136 0.0394,0.0151 0.0639,0.023 0.0295,0.0109 0.0554,0.0316 0.0819,0.049 0.018,0.0114 0.0482,0.0316 0.0626,0.0495 0.008,0.009 0.006,0.0274 0.0131,0.0374 0.007,0.0109 0.0223,0.0144 0.028,0.026 0.0144,0.0252 0.006,0.0668 0.006,0.0942 0,0.0337 0.006,0.0725 -0.001,0.10565 -0.004,0.0173 -0.0151,0.0331 -0.0201,0.0495 -0.006,0.021 -0.006,0.0447 -0.0121,0.0663 -0.009,0.0331 -0.0224,0.0561 -0.023,0.0891 -7e-4,0.0353 0,0.0705 0,0.10509 0,0.0322 -0.003,0.0552 0.0136,0.0826 0.0121,0.0201 0.0431,0.0401 0.0524,0.0589 0.008,0.0166 -10e-4,0.0287 0.0136,0.0425 0.0101,0.007 0.0287,0.008 0.0396,0.0151 0.0121,0.006 0.0237,0.0171 0.0351,0.0251 -0.0265,-0.0272 -0.0401,-0.0827 -0.0423,-0.12001 -10e-4,-0.0482 -0.003,-0.0935 0.0136,-0.13951 0.0166,-0.0453 0.0396,-0.092 0.0596,-0.13658 0.0173,-0.0396 0.0396,-0.0777 0.0576,-0.1165 0.0129,-0.0265 0.0316,-0.0438 0.0453,-0.0675 0.0144,-0.023 0.0193,-0.0561 0.0287,-0.0812 0.0101,-0.0267 0.0215,-0.049 0.023,-0.0784 0.001,-0.0403 -10e-4,-0.0814 -10e-4,-0.12148 0,-0.0512 0.0116,-0.11872 0,-0.16896 -0.0129,-0.0604 -0.048,-0.095 -0.079,-0.14468 -0.0245,-0.0401 -0.0532,-0.0812 -0.0734,-0.1235 -0.009,-0.0188 -0.0151,-0.0353 -0.0223,-0.0519 0.009,0.0144 0.018,0.0282 0.0267,0.0425 0.0554,0.0819 0.12645,0.15166 0.18682,0.23007 0.023,0.0316 0.044,0.0698 0.0734,0.0955 0.0173,0.0158 0.0366,0.0217 0.0374,0.0497 0.028,0 0.0582,0.0488 0.0769,0.0683 0.0201,0.018 0.0317,0.041 0.0482,0.0611 0.023,0.0309 0.0201,0.0561 0.0201,0.0935 0,0.0582 0,0.11283 -0.0116,0.17044 -0.007,0.0315 -0.005,0.0668 -0.0121,0.097 -0.003,0.0136 -0.0101,0.0245 -0.0158,0.0381 -0.009,0.0223 -0.0121,0.0453 -0.0208,0.0683 -0.0116,0.0339 -0.0316,0.069 -0.0475,0.10141 -0.0158,0.0324 -0.0272,0.0574 -0.003,0.0869 0.0217,0.026 0.044,0.0468 0.0749,0.0576 0.01,-0.0396 -7.1e-4,-0.0654 0.0215,-0.10215 0.0287,-0.048 0.0762,-0.0876 0.10785,-0.1351 0.0151,-0.0223 0.0287,-0.0359 0.0475,-0.0561 0.0374,-0.0409 0.046,-0.11504 0.0631,-0.16749 0.0267,-0.0871 0.0569,-0.16326 0.0554,-0.25805 -7e-4,-0.0339 0,-0.0676 0,-0.10216 -7e-4,-0.0381 -0.0136,-0.0705 -0.0201,-0.10712 -0.0124,-0.0668 -0.044,-0.11577 -0.0734,-0.17319 -0.0201,-0.0388 -0.0309,-0.0735 -0.0547,-0.11081 -0.0243,-0.0366 -0.0559,-0.0705 -0.0683,-0.11135 -0.008,-0.0274 -0.0186,-0.0475 -0.0294,-0.0727 -0.008,-0.0193 -0.007,-0.0517 -0.023,-0.0646 0.0985,-0.009 0.19417,0.074 0.25454,0.14651 0.0388,0.0475 0.0791,0.0856 0.10491,0.14099 0.006,0.0151 0.0166,0.0302 0.0238,0.0445 0.0166,0.0388 0.0109,0.0834 0.0101,0.1259 0,0.0525 0.007,0.10859 10e-4,0.16105 -0.004,0.0366 -0.0316,0.0683 -0.0433,0.1027 -0.0107,0.0353 -0.0171,0.072 -0.0322,0.10583 -0.008,0.0208 -0.0237,0.0453 -0.0281,0.0661 -0.009,0.0388 0.0101,0.0618 0.0267,0.0935 0.008,0.0178 0.0158,0.0431 0.0272,0.0589 0.008,-0.009 0.002,-0.0287 0.002,-0.0396 0,-0.0309 0.004,-0.0589 0.0129,-0.0876 0.0116,-0.0361 0.0281,-0.0677 0.0524,-0.0965 0.0433,-0.0517 0.11946,-0.0826 0.15112,-0.14228 0.0143,-0.0281 0.0359,-0.0561 0.0488,-0.0841 0.021,-0.0438 0.0295,-0.0992 0.041,-0.1467 0.0144,-0.0504 0.0166,-0.10141 0.005,-0.15313 -0.0129,-0.0547 -0.0302,-0.11725 -0.0582,-0.164 -0.0626,-0.10638 -0.14374,-0.19694 -0.23375,-0.27811 -0.0567,-0.0519 -0.0999,-0.1108 -0.1524,-0.16473 -0.0337,-0.0351 -0.0396,-0.0539 -0.0547,-0.10344 -7e-4,-0.002 -10e-4,-0.004 -0.002,-0.006 0.0503,-0.0302 0.0955,-0.0668 0.12866,-0.11706 0.0416,-0.0619 0.0423,-0.14743 0.11724,-0.17191 0.0351,-0.0121 0.0646,-0.0287 0.097,-0.0468 0.0265,-0.0158 0.0574,-0.0272 0.0804,-0.0497 0.0188,-0.0179 0.021,-0.0287 0.0331,-0.0495 0.009,-0.0158 0.0215,-0.0237 0.026,-0.0453 0.007,-0.0403 0.0114,-0.049 0.0416,-0.0841 0.0101,-0.0116 0.0173,-0.0151 0.0282,-0.0238 0.0193,-0.0129 0.0178,-0.0136 0.0344,-0.0359 0.0158,-0.0217 0.041,-0.0447 0.0618,-0.0576 0.0101,-0.006 0.049,-0.0151 0.0497,-0.0245 -0.0131,-0.0166 -0.0324,-0.0171 -0.0519,-0.0215 -0.006,-0.002 -0.0121,-0.003 -0.0186,-0.004 0.0265,-0.003 0.0559,-0.0173 0.0718,-0.0309 0.0245,-0.0223 0.023,-0.046 0.0217,-0.0784 0,-0.0101 -0.002,-0.0245 0,-0.0353 0.003,-0.0164 0.0158,-0.0265 0.023,-0.0409 0.023,-0.0453 0.0344,-0.10142 0.0525,-0.14964 0.0352,-0.0999 0.0777,-0.20265 0.092,-0.30977 0.007,-0.0547 -10e-4,-0.1108 0.002,-0.16547 10e-4,-0.0216 0.008,-0.0396 0.0121,-0.0596 0.006,-0.0396 0.007,-0.0826 0.0101,-0.12369 0.002,-0.0366 -0.003,-0.0733 7e-4,-0.11062 0.006,-0.046 0.0217,-0.095 0.0339,-0.13951 0.0129,-0.0468 0.0287,-0.10289 0.0618,-0.13805 0.009,-0.0109 0.0188,-0.0203 0.0295,-0.0287 0.0215,-0.0173 0.0316,-0.0289 0.0489,-0.0539 0.0114,-0.0195 0.0258,-0.0339 0.0416,-0.049 0.0151,-0.0129 0.0281,-0.0331 0.0425,-0.0445 0.0186,-0.0151 0.051,-0.0144 0.0725,-0.026 0.0353,-0.0201 0.0633,-0.0445 0.10363,-0.0547 0.0554,-0.0144 0.10859,0.0173 0.16381,0.0188 0.0166,0 0.0361,-0.005 0.0519,-0.003 0.025,0.006 0.0525,0.0403 0.0733,0.0583 0.0252,0.0216 0.0445,0.0517 0.0648,0.0782 0.0344,0.044 0.0733,0.0885 0.10418,0.13455 0.0418,0.0646 0.11283,0.11006 0.16749,0.16326 0.0173,0.0171 0.0374,0.0388 0.0584,0.0495 0.0237,0.0116 0.0554,0.0116 0.0812,0.0158 0.0316,0.005 0.0648,0.005 0.0977,0.004 -0.0359,-0.0351 -0.0646,-0.0775 -0.0849,-0.12645 -0.0272,-0.069 -0.0302,-0.14375 -0.0215,-0.21718"
       style="fill:#21201d;fill-opacity:1;fill-rule:nonzero;stroke:none;stroke-width:0.184057"
       id="path572" />
    <path
       d="m 437.43357,172.85015 c 7.1e-4,-0.0309 -0.0121,-0.0475 -0.0121,-0.0784 10e-4,-0.0561 0.0158,-0.13436 -0.0158,-0.17964 -0.026,-0.0361 -0.0353,-0.0784 -0.0849,-0.0777 -0.0109,0.0129 -0.0438,0.0164 -0.0683,0.0453 -0.018,0.0201 -0.0267,0.0582 -0.0331,0.0856 -0.009,0.0366 -0.0272,0.0755 -0.0339,0.11283 -0.002,0.0144 0,0.028 -0.003,0.0416 -0.006,0.0281 -0.0203,0.0512 -0.021,0.0828 -0.003,0.0532 7.1e-4,0.10841 7.1e-4,0.16179 0,0.0151 -0.004,0.0337 -7.1e-4,0.048 0.003,0.009 0.009,0.0158 0.0109,0.0237 0.006,0.0274 -7.1e-4,0.0512 0.0123,0.0777 0.0215,0.0418 0.0768,0.10363 0.12498,0.0733 0.0215,-0.0136 0.0468,-0.0381 0.0591,-0.0617 0.0107,-0.0217 0.0107,-0.0455 0.0193,-0.0655 0.0223,-0.0517 0.0423,-0.11798 0.0453,-0.1754 0.002,-0.0388 -7.1e-4,-0.0762 0,-0.1143"
       style="fill:#21201d;fill-opacity:1;fill-rule:nonzero;stroke:none;stroke-width:0.184057"
       id="path574" />
    <path
       d="m 445.1459,172.7099 c -0.008,-0.028 -0.025,-0.0547 -0.0295,-0.0834 -0.003,-0.0151 -0.004,-0.0252 -0.008,-0.0403 -0.009,-0.0295 -0.0151,-0.0532 -0.0309,-0.0777 -0.0193,-0.028 -0.0329,-0.0624 -0.051,-0.0898 -0.004,-0.006 -0.0272,-0.0287 -0.0425,-0.0265 -7e-4,0.004 -0.002,0.006 -0.003,0.009 -0.008,-0.004 -0.0166,-0.007 -0.0245,-0.009 -0.0109,0.0138 -0.0215,0.0274 -0.0339,0.0403 0.001,0.009 0.002,0.0166 0.002,0.0215 -0.002,0.0245 -0.008,0.0569 -0.0144,0.0806 -0.0121,0.0495 -0.0316,0.0955 -0.0396,0.1467 -0.004,0.0158 -0.003,0.0324 10e-4,0.0468 -0.004,0.0107 -0.007,0.0215 -0.0101,0.0322 -0.0129,0.0504 -0.0215,0.10289 -0.0208,0.15387 0.003,0.005 0.007,0.009 0.009,0.0158 0.009,0.0195 0.0114,0.0403 0.0223,0.0598 0.0136,0.025 0.0265,0.0532 0.0423,0.0769 0.0101,0.0156 0.0223,0.0423 0.0346,0.0552 0.009,0.0116 0.0265,0.0123 0.0359,0.0223 0.005,0.005 0.006,0.0138 0.009,0.0195 0.003,0.002 0.006,0.004 0.009,0.006 0.008,-0.002 0.0158,-0.0121 0.0215,-0.0166 0.0237,-0.0151 0.0425,-0.0208 0.0596,-0.0438 0.0834,-0.10933 0.0972,-0.2667 0.0604,-0.40051"
       style="fill:#21201d;fill-opacity:1;fill-rule:nonzero;stroke:none;stroke-width:0.184057"
       id="path576" />
  </g>
</svg>
