<?xml version="1.0" encoding="UTF-8" standalone="no"?>
<!-- Created with Inkscape (http://www.inkscape.org/) -->

<svg
   width="7.8965902mm"
   height="7.8052602mm"
   viewBox="0 0 7.8965902 7.8052602"
   version="1.1"
   id="svg2269"
   inkscape:version="1.1.2 (0a00cf5339, 2022-02-04)"
   sodipodi:docname="z23.svg"
   xmlns:inkscape="http://www.inkscape.org/namespaces/inkscape"
   xmlns:sodipodi="http://sodipodi.sourceforge.net/DTD/sodipodi-0.dtd"
   xmlns="http://www.w3.org/2000/svg"
   xmlns:svg="http://www.w3.org/2000/svg">
  <sodipodi:namedview
     id="namedview2271"
     pagecolor="#ffffff"
     bordercolor="#666666"
     borderopacity="1.0"
     inkscape:pageshadow="2"
     inkscape:pageopacity="0.0"
     inkscape:pagecheckerboard="0"
     inkscape:document-units="mm"
     showgrid="false"
     inkscape:zoom="0.64052329"
     inkscape:cx="15.612235"
     inkscape:cy="14.831623"
     inkscape:window-width="2560"
     inkscape:window-height="1376"
     inkscape:window-x="0"
     inkscape:window-y="0"
     inkscape:window-maximized="1"
     inkscape:current-layer="layer1" />
  <defs
     id="defs2266" />
  <g
     inkscape:label="Layer 1"
     inkscape:groupmode="layer"
     id="layer1"
     transform="translate(-100.97231,-144.59715)">
    <path
       d="m 104.92804,144.5977 c 0,0.041 0,0.0648 -0.0159,0.10068 -0.0194,0.0359 -0.0388,0.0705 -0.0589,0.10859 -0.0296,0.0532 -0.0633,0.10215 -0.0755,0.15958 -0.01,0.0403 -0.0339,0.0712 -0.0591,0.10786 -0.1215,0.18479 -0.25658,0.35725 -0.36022,0.55291 -0.0279,0.0539 -0.0775,0.0992 -0.10047,0.15461 -0.0201,0.0468 -0.0368,0.0999 -0.0598,0.13951 -0.008,0.0121 -0.0236,0.0272 -0.0321,0.0416 -0.01,0.0136 -0.0173,0.0245 -0.0289,0.0366 -0.0328,0.0346 -0.069,0.0655 -0.10343,0.0972 -0.0318,0.028 -0.046,0.0698 -0.0584,0.10915 -0.012,0.0403 -0.0303,0.0814 -0.048,0.12166 -0.0569,0.12644 -0.14961,0.20485 -0.24514,0.30185 -0.0482,0.0482 -0.0987,0.11154 -0.12369,0.17467 -0.0222,0.0561 -0.0539,0.10363 -0.0799,0.15609 -0.0152,0.0294 -0.0236,0.0655 -0.0332,0.0977 -0.0279,0.0871 -0.0596,0.17265 -0.0732,0.26173 -0.0138,0.0863 -0.018,0.16676 -0.0187,0.25529 0,0.0569 0.018,0.10712 0.0173,0.16399 0,0.0236 -0.004,0.0517 0,0.0762 0.004,0.0208 0.0138,0.0295 0.018,0.048 0.006,0.0223 0.006,0.0806 0,0.10215 -0.004,0.0136 -0.0145,0.0173 -0.018,0.0302 -0.009,0.0295 -0.0113,0.0762 -0.0152,0.10859 -0.006,0.0497 -0.004,0.1029 0,0.15314 0,0.0374 0.0219,0.0561 0.0303,0.0928 0.008,0.0359 0.0138,0.0661 0.0293,0.0999 0.0106,0.0223 0.0296,0.0388 0.0408,0.0596 0.0173,0.0317 0.0282,0.0661 0.046,0.0977 0.0388,0.0655 0.0727,0.1281 0.0965,0.20357 0.0229,0.0725 0.0611,0.15166 0.0942,0.22142 0.0473,0.0963 0.1071,0.16399 0.20559,0.20062 0.025,0.01 0.0532,0.0114 0.0784,0.0208 0.0243,0.009 0.0409,0.026 0.0653,0.0331 0.0503,0.0136 0.0955,0.0359 0.14816,0.0468 0.0804,0.0193 0.13014,0.0661 0.20412,0.0977 0.031,0.0129 0.0668,0.0114 0.10068,0.0237 0.0367,0.0151 0.0725,0.0114 0.10862,0.0245 0.043,0.0164 0.0697,0.025 0.11706,0.0257 0.0353,7.1e-4 0.0742,0.0116 0.10858,0.0203 0.0482,0.0129 0.0821,0.0309 0.13381,0.0302 0.0502,0 0.10068,0.002 0.15018,7.1e-4 0.118,-0.002 0.2286,-0.0519 0.34438,-0.0512 0.0296,7e-4 0.0892,0.006 0.0756,-0.0416 -0.01,-0.0374 -0.0784,-0.026 -0.10858,-0.0331 -0.10785,-0.0237 -0.23449,-0.009 -0.34364,-0.009 h -0.1511 c -0.10932,0 -0.21276,-0.0252 -0.31841,-0.0539 -0.018,-0.005 -0.0289,-0.0114 -0.0482,-0.0129 -0.0254,-0.002 -0.0482,0.003 -0.0727,-0.003 -0.0755,-0.0186 -0.1373,-0.0769 -0.18753,-0.13234 -0.0229,-0.0236 -0.0453,-0.0445 -0.0676,-0.0661 -0.031,-0.0302 -0.0453,-0.0698 -0.0683,-0.10638 -0.0159,-0.0245 -0.0332,-0.046 -0.0519,-0.0683 -0.005,-0.005 -0.0159,-0.008 -0.0194,-0.0136 -0.006,-0.007 0,-0.0203 -0.006,-0.0282 -0.0201,-0.0352 -0.0561,-0.0769 -0.0806,-0.11062 -0.0293,-0.0396 -0.0868,-0.0267 -0.12294,-0.0655 -0.0697,-0.0755 -0.12076,-0.1502 -0.14799,-0.25308 -0.018,-0.0705 -0.0475,-0.13805 -0.0821,-0.20118 -0.0342,-0.0641 -0.0236,-0.15976 -0.0328,-0.23596 -0.006,-0.0475 -0.0109,-0.0963 -0.0275,-0.14081 -0.01,-0.0274 -0.0208,-0.0475 -0.0243,-0.0749 -0.004,-0.0388 0,-0.0804 0,-0.11853 v -0.23007 c 0,-0.072 -0.012,-0.15166 0.0116,-0.22142 0.0159,-0.046 0.0466,-0.0848 0.0639,-0.13234 0.0261,-0.0705 0.0468,-0.14025 0.0821,-0.2056 0.0339,-0.0641 0.056,-0.13804 0.0847,-0.20559 0.0201,-0.0482 0.0332,-0.11154 0.0605,-0.15755 0.0359,-0.0611 0.10566,-0.1143 0.15388,-0.16676 0.10492,-0.11356 0.20119,-0.23301 0.31623,-0.34087 0.0655,-0.0618 0.15533,-0.0769 0.20059,-0.16381 0.0187,-0.0368 0.0293,-0.0762 0.0359,-0.11651 0.0145,-0.0898 0.0455,-0.16474 0.0769,-0.24811 0.0194,-0.0488 0.025,-0.0725 0.0534,-0.11283 0.0335,-0.049 0.0537,-0.10362 0.0688,-0.16179 0.007,-0.0252 0.007,-0.0561 0.0152,-0.0804 0.008,-0.0188 0.0222,-0.0339 0.0303,-0.0519 0.03,-0.0733 0.0718,-0.1467 0.0941,-0.22419 0.0194,-0.0712 0.008,-0.15608 0.008,-0.23081 v 0.30112 c 0,0.0648 0.0152,0.11798 0.0296,0.17909 0.025,0.10565 0.0554,0.21719 0.10509,0.31566 0.0265,0.0525 0.0596,0.10142 0.0868,0.15387 0.0222,0.0416 0.0562,0.0762 0.0806,0.11651 0.0359,0.0582 0.0639,0.12001 0.0942,0.18185 0.0265,0.0532 0.0537,0.0963 0.0862,0.14596 0.0353,0.0525 0.0583,0.11779 0.0885,0.1732 0.0229,0.0418 0.0431,0.0791 0.0725,0.11503 0.0282,0.0324 0.0705,0.0561 0.0863,0.0965 0.0229,0.0589 0.0236,0.14081 0.0236,0.20412 0,0.092 0.0339,0.14099 0.0784,0.21572 0.0236,0.0396 0.0208,0.0648 0.0222,0.10712 0,0.0524 0.0265,0.0957 0.0574,0.1373 0.0339,0.0468 0.0777,0.0906 0.10788,0.13952 0.0187,0.0302 0.0243,0.0762 0.0325,0.10933 0.0116,0.046 -0.008,0.0747 -0.0194,0.11927 -0.0187,0.069 -0.006,0.092 0.0138,0.15387 0.0137,0.0445 0.0159,0.0935 0.0229,0.13952 0.008,0.0488 -0.01,0.0942 -0.0173,0.14375 -0.0102,0.0648 -0.0272,0.13234 -0.0554,0.1905 -0.0381,0.0762 -0.0554,0.14743 -0.0762,0.22804 -0.0286,0.10842 -0.0475,0.20486 -0.0488,0.31548 0,0.0712 -0.0201,0.16032 -0.0497,0.22363 -0.0279,0.0583 -0.0517,0.1259 -0.0928,0.17835 -0.0293,0.0388 -0.0604,0.0698 -0.0884,0.11357 -0.0236,0.0374 -0.0353,0.0769 -0.0604,0.11282 -0.0194,0.0274 -0.0339,0.0316 -0.0591,0.0512 -0.0194,0.0158 -0.0366,0.0482 -0.0618,0.056 -0.0229,0.008 -0.0646,-0.0144 -0.0574,0.0267 0.01,0.0475 0.10196,0.0517 0.11723,0.0906 0.079,-0.0179 0.15314,-0.0646 0.21848,-0.11282 0.0423,-0.0324 0.0589,-0.0641 0.0871,-0.10786 0.0251,-0.0388 0.0539,-0.0705 0.0725,-0.11283 0.0215,-0.0497 0.0418,-0.0885 0.0713,-0.13454 0.0697,-0.10933 0.11723,-0.22492 0.15092,-0.35008 0.0282,-0.10215 0.0885,-0.19124 0.11648,-0.29265 0.0346,-0.12222 0.0569,-0.25014 0.0547,-0.37824 0,-0.0834 0.0173,-0.16455 0.0166,-0.24793 v -0.15608 c 0,-0.0245 0.006,-0.0648 -0.004,-0.0898 -0.006,-0.0215 -0.0279,-0.0324 -0.0325,-0.0591 -0.01,-0.0589 0,-0.13013 0,-0.18903 0,-0.0791 0.0201,-0.17044 -0.0495,-0.22639 -0.018,-0.0151 -0.0282,-0.004 -0.0539,-0.0289 -0.0318,-0.0272 -0.0662,-0.0747 -0.0799,-0.11135 -0.0236,-0.0618 -0.0272,-0.12939 -0.0446,-0.19197 -0.007,-0.028 -0.0201,-0.0539 -0.03,-0.0819 -0.0187,-0.0526 -0.0166,-0.10933 -0.0303,-0.16252 -0.0145,-0.0525 -0.0325,-0.11357 -0.0505,-0.1662 -0.0113,-0.0322 -0.0381,-0.0653 -0.0596,-0.0906 -0.0453,-0.0517 -0.10142,-0.10492 -0.1373,-0.16529 -0.0547,-0.0935 -0.1064,-0.1489 -0.20634,-0.19418 -0.0353,-0.0165 -0.0525,-0.0208 -0.0762,-0.051 -0.0243,-0.0324 -0.0303,-0.0438 -0.0445,-0.0821 -0.0159,-0.0423 -0.0275,-0.0819 -0.0411,-0.12424 -0.0286,-0.0906 -0.0661,-0.16823 -0.11152,-0.25161 -0.0272,-0.0497 -0.0431,-0.0986 -0.0654,-0.14964 -0.0187,-0.0445 -0.0366,-0.0596 -0.043,-0.10417 -0.0131,-0.0885 -0.0376,-0.17909 -0.0539,-0.26818 -0.008,-0.0425 -0.0194,-0.0814 -0.0467,-0.11577 -0.0102,-0.0138 -0.0229,-0.0274 -0.0361,-0.0388 -0.01,-0.008 -0.0194,-0.007 -0.0265,-0.0203 -0.0109,-0.0179 0,-0.0352 0.0127,-0.0676"
       style="fill:#21201d;fill-opacity:1;fill-rule:evenodd;stroke:none;stroke-width:0.184057"
       id="path608" />
    <path
       d="m 102.22629,145.56179 c 0.0265,0.0316 0.043,0.049 0.0517,0.0878 0.008,0.0403 0.0166,0.0791 0.0243,0.12074 0.0131,0.0596 0.0187,0.11872 0.0453,0.17117 0.0194,0.0366 0.0194,0.0755 0.025,0.12001 0.0251,0.22013 0.0325,0.43861 0.0791,0.6558 0.012,0.0589 0.005,0.12571 0.0215,0.18259 0.0152,0.0497 0.0367,0.0999 0.0446,0.14522 0.004,0.0144 0,0.0366 0.004,0.0539 0,0.0158 0.004,0.0287 0,0.046 -0.004,0.0475 -0.0116,0.0942 -0.0173,0.14025 -0.006,0.0416 0.01,0.0834 0.0261,0.12148 0.0166,0.0388 0.0293,0.0812 0.0416,0.12442 0.0368,0.13289 0.0166,0.25087 0.006,0.38818 -0.005,0.0676 -0.004,0.1489 0.018,0.21424 0.0187,0.0561 0.0254,0.11283 0.0388,0.16971 0.008,0.0331 0.0243,0.0653 0.0374,0.0977 0.0339,0.0834 0.0655,0.16897 0.11226,0.24738 0.0453,0.074 0.0935,0.13804 0.14947,0.20632 0.0366,0.0445 0.0826,0.0712 0.11871,0.11504 0.0159,0.018 0.0303,0.0425 0.0482,0.0583 0.0155,0.0151 0.0296,0.0136 0.0453,0.025 0.018,0.0144 0.056,0.0583 0.0654,0.0791 0.006,0.0121 0,0.0223 0.006,0.0344 0.0123,0.0289 0.0403,0.0663 0.0583,0.0928 0.0272,0.041 0.0639,0.0799 0.097,0.11797 0.025,0.0287 0.0525,0.0295 0.0826,0.0525 0.0293,0.0223 0.0532,0.0411 0.0871,0.0576 0.0222,0.0107 0.0475,0.0107 0.0705,0.0193 0.0328,0.0136 0.0639,0.0324 0.0978,0.0445 0.0712,0.0252 0.13804,0.0517 0.20412,0.0942 0.064,0.0418 0.14467,0.0777 0.21572,0.10859 0.0971,0.0438 0.18627,0.0567 0.28547,0.0223 0.0258,-0.009 0.0489,-0.0252 0.0732,-0.0346 0.0243,-0.008 0.0482,-0.007 0.0712,-0.0171 0.0482,-0.0217 0.0965,-0.0339 0.14319,-0.0583 0.0748,-0.0374 0.14302,-0.0337 0.21922,-0.0574 0.0324,-0.009 0.0589,-0.0339 0.0935,-0.0453 0.0374,-0.0131 0.0633,-0.0388 0.0992,-0.0512 0.0431,-0.0166 0.0697,-0.0258 0.10566,-0.056 0.0272,-0.0223 0.064,-0.0388 0.0962,-0.0547 0.0455,-0.021 0.0828,-0.0295 0.12242,-0.0626 0.0381,-0.0331 0.0775,-0.0633 0.1143,-0.0964 0.0898,-0.0768 0.14227,-0.18682 0.23135,-0.26026 0.0229,-0.0186 0.0727,-0.0524 0.031,-0.0812 -0.0314,-0.0215 -0.0769,0.0309 -0.10562,0.0453 -0.0963,0.051 -0.18408,0.14449 -0.26744,0.21425 l -0.11504,0.0964 c -0.0841,0.0711 -0.17981,0.11854 -0.27901,0.16382 -0.018,0.008 -0.0303,0.009 -0.046,0.0215 -0.0201,0.0145 -0.0342,0.0331 -0.0567,0.044 -0.0697,0.0337 -0.15459,0.0294 -0.2286,0.0193 -0.0324,-0.004 -0.0633,-0.004 -0.095,-0.007 -0.0418,-0.004 -0.0799,-0.0245 -0.12001,-0.0381 -0.0289,-0.009 -0.0554,-0.0129 -0.0841,-0.018 -0.007,-0.001 -0.0166,0.004 -0.0229,0.001 -0.01,-0.001 -0.0145,-0.0144 -0.0229,-0.0178 -0.0381,-0.0138 -0.092,-0.023 -0.13232,-0.0324 -0.0482,-0.0116 -0.0849,0.0344 -0.1366,0.0287 -0.10213,-0.0121 -0.18919,-0.0381 -0.27534,-0.0992 -0.0598,-0.0418 -0.12591,-0.0747 -0.19269,-0.10141 -0.0676,-0.0265 -0.12075,-0.10712 -0.17688,-0.15958 -0.0353,-0.0324 -0.0705,-0.0668 -0.11229,-0.0913 -0.0243,-0.0136 -0.046,-0.0215 -0.0661,-0.0411 -0.0279,-0.0265 -0.051,-0.0618 -0.0755,-0.0913 -0.0497,-0.0589 -0.0985,-0.11724 -0.14743,-0.17541 -0.0467,-0.0554 -0.1064,-0.10859 -0.13363,-0.17761 -0.018,-0.0453 -0.0194,-0.0955 -0.0368,-0.14302 -0.025,-0.0705 -0.0532,-0.13657 -0.0683,-0.21001 -0.0152,-0.071 -0.0467,-0.14154 -0.0683,-0.21056 -0.0159,-0.0519 -0.046,-0.10785 -0.0539,-0.16031 -0.0113,-0.0705 0.007,-0.15535 0.0102,-0.22731 0.007,-0.15461 0.004,-0.30701 0.0229,-0.46365 0.0106,-0.0907 0.0697,-0.15902 0.0475,-0.25455 -0.008,-0.0403 -0.0261,-0.0777 -0.0468,-0.11283 -0.046,-0.0777 -0.0705,-0.15534 -0.0999,-0.24019 -0.0166,-0.0482 -0.0275,-0.0705 -0.0324,-0.12001 -0.006,-0.0591 -0.0243,-0.11448 -0.051,-0.16767 -0.0116,-0.0238 -0.0303,-0.048 -0.0396,-0.0718 -0.007,-0.0203 -0.004,-0.0403 -0.0102,-0.0596 -0.0243,-0.0756 -0.0388,-0.15829 -0.0725,-0.23155 -0.0303,-0.0675 -0.0935,-0.12589 -0.14101,-0.18258 0.0641,0.0769 0.1294,0.15369 0.19347,0.23062 0.0409,0.0497 0.0869,0.0799 0.1373,0.11798 0.0871,0.0655 0.18259,0.13161 0.28254,0.17394 0.0546,0.0237 0.11151,0.0403 0.16601,0.0618 0.0447,0.0188 0.092,0.023 0.1373,0.0381 0.064,0.021 0.12662,0.0512 0.18846,0.0784 0.0554,0.0245 0.10343,0.0403 0.16104,0.0569 0.0597,0.0179 0.11853,0.0525 0.17837,0.0762 0.0438,0.0166 0.0834,0.0324 0.12939,0.0403 0.0423,0.008 0.0906,-10e-4 0.12866,0.0193 0.0554,0.0302 0.10785,0.0928 0.14944,0.14098 0.0591,0.069 0.11652,0.0862 0.19713,0.1143 0.0446,0.0158 0.0574,0.0366 0.0863,0.0683 0.0359,0.0388 0.0827,0.0561 0.13215,0.0683 0.0561,0.0129 0.11945,0.0186 0.17265,0.0374 0.0339,0.0116 0.0675,0.0431 0.0948,0.0626 0.0388,0.0287 0.0425,0.0626 0.0618,0.10418 0.0303,0.0648 0.0546,0.0742 0.11007,0.10933 0.0381,0.0252 0.072,0.0611 0.1071,0.092 0.0367,0.0331 0.0532,0.0791 0.0792,0.12074 0.0339,0.0561 0.0639,0.11872 0.079,0.18258 0.0208,0.0828 0.0534,0.14817 0.09,0.22363 0.0475,0.10069 0.094,0.18627 0.16457,0.27259 0.0445,0.0554 0.0878,0.13584 0.10509,0.20339 0.0169,0.0626 0.0423,0.12939 0.0453,0.19565 0,0.0488 -0.004,0.0928 0.004,0.14449 0.006,0.0438 0.0229,0.0812 0.0268,0.12589 0.004,0.0322 -0.006,0.0446 -0.0116,0.0762 -0.004,0.0243 0,0.0604 -0.0113,0.0827 -0.0123,0.0208 -0.0591,0.0294 -0.0275,0.0567 0.0381,0.0317 0.11155,-0.025 0.14817,-0.005 0.0503,-0.0646 0.0755,-0.14743 0.0942,-0.22713 0.012,-0.0524 0.005,-0.0856 -0.004,-0.13804 -0.006,-0.0468 -0.004,-0.0893 -0.0166,-0.13381 -0.0159,-0.0532 -0.0251,-0.0942 -0.0318,-0.14872 -0.0173,-0.12884 -0.0554,-0.24737 -0.10989,-0.36609 -0.0447,-0.0955 -0.0546,-0.20339 -0.0992,-0.29836 -0.0526,-0.11651 -0.11723,-0.2286 -0.20137,-0.32486 -0.0546,-0.0626 -0.092,-0.13602 -0.14668,-0.20062 -0.0339,-0.0396 -0.0668,-0.0799 -0.0999,-0.11946 -0.0159,-0.0193 -0.0359,-0.0547 -0.0582,-0.0683 -0.0201,-0.0114 -0.0433,-0.006 -0.0633,-0.0237 -0.046,-0.0388 -0.0827,-0.0999 -0.12149,-0.14522 -0.0504,-0.0611 -0.0935,-0.14302 -0.18278,-0.14155 -0.0236,0 -0.0243,0.0144 -0.0596,0.0129 -0.0416,-0.001 -0.0985,-0.0151 -0.13363,-0.0346 -0.0569,-0.0322 -0.10287,-0.0812 -0.15607,-0.11853 -0.0254,-0.0173 -0.051,-0.028 -0.0769,-0.0438 -0.0482,-0.0282 -0.0819,-0.072 -0.12717,-0.10437 -0.0447,-0.0324 -0.0979,-0.0668 -0.14598,-0.0948 -0.0289,-0.0173 -0.0705,-0.026 -0.10361,-0.0316 -0.0676,-0.0109 -0.14595,-0.0151 -0.21128,-0.0381 -0.10217,-0.0361 -0.17689,-0.046 -0.28254,-0.0166 -0.0381,0.0101 -0.0547,0.0186 -0.0915,0.0101 -0.0387,-0.008 -0.051,-0.0138 -0.0869,-0.0346 -0.0388,-0.0208 -0.0742,-0.0445 -0.11151,-0.069 -0.0804,-0.0503 -0.15811,-0.0863 -0.24645,-0.12075 -0.0534,-0.0203 -0.0972,-0.0468 -0.14672,-0.072 -0.044,-0.0215 -0.0663,-0.0215 -0.0992,-0.0525 -0.0677,-0.0596 -0.14468,-0.11283 -0.21424,-0.1697 -0.0332,-0.028 -0.0677,-0.0503 -0.11081,-0.0604 -0.0159,-0.004 -0.0353,-0.005 -0.0525,-0.005 -0.013,0 -0.0194,0.006 -0.0339,7.1e-4 -0.0194,-0.007 -0.0215,-0.0274 -0.0328,-0.0606"
       style="fill:#21201d;fill-opacity:1;fill-rule:nonzero;stroke:none;stroke-width:0.184057"
       id="path610" />
    <path
       d="m 100.97231,147.85037 c 0.0403,0.007 0.0641,0.0101 0.0957,0.0346 0.0321,0.025 0.0631,0.0495 0.0963,0.0769 0.0475,0.0366 0.0905,0.0782 0.14446,0.10049 0.0388,0.0166 0.0641,0.046 0.0964,0.0769 0.16105,0.15258 0.30703,0.31566 0.48243,0.45149 0.0473,0.0368 0.0834,0.0935 0.13359,0.1259 0.0438,0.028 0.0928,0.0532 0.12739,0.0826 0.0106,0.009 0.0236,0.0281 0.0359,0.0388 0.0127,0.0116 0.0215,0.0215 0.031,0.0353 0.0279,0.0388 0.0525,0.079 0.0777,0.11854 0.0229,0.0361 0.0604,0.0576 0.0977,0.0769 0.0381,0.018 0.0747,0.0433 0.11155,0.0676 0.1143,0.0784 0.17466,0.18204 0.25436,0.29413 0.0396,0.0554 0.0935,0.11651 0.15109,0.1524 0.051,0.0309 0.092,0.0705 0.13878,0.10565 0.0272,0.0202 0.0611,0.0339 0.0913,0.0504 0.0797,0.0423 0.1596,0.0876 0.24518,0.11651 0.0826,0.0287 0.16105,0.0468 0.24716,0.0624 0.0569,0.0116 0.10936,0.001 0.16549,0.0123 0.0236,0.005 0.0495,0.0136 0.074,0.0136 0.0215,0.001 0.0318,-0.008 0.0512,-0.009 0.0222,-10e-4 0.0797,0.008 0.10047,0.0173 0.0124,0.006 0.0145,0.0173 0.0261,0.023 0.0279,0.0136 0.074,0.0237 0.10492,0.0339 0.0475,0.0144 0.0999,0.0201 0.14964,0.028 0.0374,0.006 0.0596,-0.0116 0.0977,-0.0136 0.0359,-0.002 0.0668,-0.003 0.10361,-0.0124 0.0236,-0.006 0.0431,-0.0223 0.0661,-0.0302 0.0339,-0.0107 0.0698,-0.0166 0.10343,-0.028 0.0713,-0.0267 0.13953,-0.049 0.21721,-0.0589 0.0747,-0.0109 0.1603,-0.0339 0.23523,-0.0554 0.10195,-0.0295 0.17889,-0.0769 0.23283,-0.16676 0.0145,-0.0237 0.0208,-0.0512 0.0346,-0.0742 0.0127,-0.0223 0.0321,-0.0351 0.043,-0.0589 0.0229,-0.0468 0.0517,-0.0878 0.072,-0.13657 0.0328,-0.0762 0.0884,-0.11798 0.13145,-0.1848 0.018,-0.0274 0.0229,-0.0641 0.041,-0.0942 0.0208,-0.0344 0.0243,-0.0705 0.0438,-0.10289 0.0229,-0.0401 0.0368,-0.0646 0.0454,-0.11136 0.006,-0.0351 0.0236,-0.0712 0.0387,-0.10417 0.0201,-0.044 0.0447,-0.0749 0.0534,-0.1259 0.008,-0.0497 0.0187,-0.0992 0.0265,-0.14743 0.0173,-0.11577 -0.012,-0.23504 0.01,-0.34861 0.006,-0.0289 0.0215,-0.0863 -0.0286,-0.0813 -0.0376,0.003 -0.0396,0.0727 -0.0519,0.10215 -0.0416,0.10142 -0.048,0.2286 -0.0668,0.33646 -0.01,0.049 -0.018,0.0985 -0.0265,0.14817 -0.0194,0.10786 -0.0618,0.20559 -0.10858,0.30406 -0.008,0.0173 -0.0173,0.0267 -0.0222,0.046 -0.006,0.0238 -0.005,0.0475 -0.0145,0.0698 -0.0314,0.072 -0.0992,0.12222 -0.16231,0.16179 -0.0275,0.018 -0.0519,0.0381 -0.0769,0.0561 -0.0346,0.0243 -0.0769,0.0322 -0.11653,0.048 -0.0275,0.0116 -0.051,0.0252 -0.0762,0.0403 -0.006,0.004 -0.0102,0.0136 -0.0166,0.0166 -0.009,0.004 -0.0208,-0.002 -0.0286,7e-4 -0.0388,0.0136 -0.0856,0.0409 -0.12295,0.0604 -0.0446,0.0215 -0.0425,0.0804 -0.0856,0.1086 -0.0871,0.0567 -0.16972,0.0935 -0.27538,0.10142 -0.0727,0.006 -0.14372,0.0236 -0.21276,0.046 -0.069,0.023 -0.16178,-0.004 -0.23798,-0.008 -0.0475,-0.002 -0.0972,-0.007 -0.14468,0.002 -0.0272,0.005 -0.0495,0.0131 -0.0775,0.0109 -0.0376,-0.002 -0.0784,-0.0144 -0.11578,-0.0223 -0.0762,-0.0129 -0.15109,-0.026 -0.22655,-0.0388 -0.0713,-0.0129 -0.15096,-0.0144 -0.21647,-0.0504 -0.0423,-0.023 -0.0755,-0.0604 -0.11927,-0.0854 -0.064,-0.0381 -0.12866,-0.0705 -0.18845,-0.11578 -0.0567,-0.046 -0.12573,-0.0799 -0.18758,-0.11945 -0.0445,-0.0287 -0.10417,-0.0525 -0.14375,-0.0876 -0.0539,-0.046 -0.095,-0.12369 -0.13805,-0.1813 -0.0935,-0.12221 -0.19416,-0.23725 -0.28049,-0.36959 -0.0495,-0.0755 -0.0481,-0.16675 -0.12643,-0.22565 -0.0332,-0.0245 -0.0698,-0.0425 -0.10933,-0.0561 -0.0848,-0.0295 -0.15314,-0.0733 -0.23082,-0.11927 -0.0438,-0.0267 -0.0668,-0.0366 -0.10143,-0.0712 -0.0423,-0.0416 -0.0927,-0.072 -0.14668,-0.0963 -0.0243,-0.0109 -0.0545,-0.0166 -0.0775,-0.0296 -0.018,-0.01 -0.0296,-0.0272 -0.046,-0.0387 -0.0662,-0.0425 -0.13159,-0.095 -0.20429,-0.13013 -0.0668,-0.0324 -0.1524,-0.0368 -0.2249,-0.0497 0.0977,0.018 0.19692,0.0344 0.29686,0.0524 0.0626,0.0109 0.1178,0.005 0.18112,0.002 0.10784,-0.006 0.22363,-0.0173 0.3278,-0.049 0.0569,-0.0166 0.11081,-0.0409 0.16619,-0.0589 0.046,-0.0144 0.0856,-0.0418 0.13014,-0.0589 0.0626,-0.0252 0.1294,-0.0418 0.19417,-0.0611 0.0582,-0.0173 0.10492,-0.0361 0.1596,-0.0598 0.0581,-0.025 0.12569,-0.0366 0.18606,-0.0567 0.0447,-0.0151 0.0849,-0.0287 0.1259,-0.0517 0.0366,-0.0217 0.0676,-0.0598 0.11081,-0.0685 0.0611,-0.0114 0.14227,0.001 0.20412,0.0123 0.0905,0.0151 0.1452,-0.009 0.22584,-0.0396 0.043,-0.0166 0.0668,-0.009 0.10915,-0.003 0.0532,0.007 0.1,-0.01 0.14521,-0.0329 0.0519,-0.026 0.10287,-0.0611 0.15681,-0.0821 0.0317,-0.0129 0.0792,-0.0107 0.11356,-0.0129 0.0467,-0.003 0.072,0.0201 0.11356,0.0403 0.0648,0.0302 0.0893,0.0208 0.15462,0.0136 0.0446,-0.006 0.0942,0 0.14026,7e-4 0.0502,7.1e-4 0.092,0.0252 0.13949,0.0416 0.0618,0.0217 0.12499,0.0504 0.17762,0.0885 0.0683,0.0502 0.13582,0.0791 0.21202,0.1143 0.10143,0.0468 0.19199,0.0819 0.30188,0.10289 0.069,0.0136 0.15388,0.0473 0.21149,0.0876 0.0524,0.0374 0.115,0.0727 0.15956,0.12148 0.0324,0.0361 0.0576,0.072 0.0957,0.10712 0.0321,0.0309 0.0697,0.0482 0.10124,0.0799 0.0236,0.023 0.0243,0.0381 0.0395,0.0661 0.0124,0.0217 0.0403,0.0447 0.0453,0.0705 0.004,0.0237 -0.0258,0.0604 0.0152,0.0604 0.0497,0 0.069,-0.0891 0.11006,-0.0977 -0.004,-0.0819 -0.0366,-0.16326 -0.0733,-0.23504 -0.0243,-0.049 -0.0519,-0.069 -0.0907,-0.10436 -0.0346,-0.0322 -0.0597,-0.0661 -0.0985,-0.092 -0.046,-0.0295 -0.0797,-0.0552 -0.12002,-0.0928 -0.0957,-0.0884 -0.20136,-0.15442 -0.31916,-0.20909 -0.0957,-0.0453 -0.17339,-0.12092 -0.26761,-0.16694 -0.11505,-0.0545 -0.23725,-0.0985 -0.36298,-0.11853 -0.0821,-0.0123 -0.15899,-0.0453 -0.24165,-0.0596 -0.051,-0.009 -0.10195,-0.018 -0.15314,-0.0267 -0.025,-0.005 -0.0633,-0.0186 -0.0883,-0.0144 -0.0236,0.004 -0.0374,0.0215 -0.0655,0.0215 -0.0582,0 -0.12647,-0.0223 -0.18556,-0.0329 -0.0775,-0.0138 -0.16305,-0.0497 -0.23135,0.008 -0.0173,0.0151 -0.008,0.0274 -0.0368,0.049 -0.0328,0.026 -0.0848,0.0517 -0.12424,0.0589 -0.0648,0.0123 -0.13159,0.004 -0.19639,0.0101 -0.0293,0.002 -0.0574,0.0116 -0.0863,0.0151 -0.0552,0.009 -0.10985,-0.002 -0.16454,0.003 -0.0561,0.004 -0.11796,0.0114 -0.17264,0.0201 -0.0339,0.005 -0.071,0.026 -0.0998,0.0431 -0.0591,0.0353 -0.12164,0.0821 -0.18627,0.10583 -0.10139,0.0381 -0.16619,0.0797 -0.22786,0.1697 -0.0226,0.0322 -0.0296,0.0488 -0.0633,0.0661 -0.0346,0.0186 -0.0482,0.023 -0.0885,0.0302 -0.0446,0.009 -0.0848,0.0129 -0.13014,0.0188 -0.0935,0.0129 -0.17688,0.0352 -0.2667,0.0654 -0.0532,0.018 -0.10418,0.026 -0.15882,0.0388 -0.0467,0.0114 -0.0641,0.026 -0.10933,0.0245 -0.0898,-0.003 -0.1826,0.006 -0.27315,0.007 -0.044,0 -0.0841,0.004 -0.12369,0.0252 -0.0145,0.008 -0.0303,0.0186 -0.044,0.0295 -0.009,0.008 -0.01,0.0171 -0.0243,0.0223 -0.0194,0.009 -0.0346,-0.006 -0.0641,-0.0252"
       style="fill:#21201d;fill-opacity:1;fill-rule:nonzero;stroke:none;stroke-width:0.184057"
       id="path612" />
    <path
       d="m 101.3555,150.65081 c 0.0359,-0.0201 0.0562,-0.0339 0.0957,-0.0359 0.0409,-0.001 0.0812,-0.002 0.12297,-0.004 0.0611,-10e-4 0.12072,0.004 0.17615,-0.0144 0.0401,-0.0129 0.0789,-0.006 0.12294,-0.004 0.2214,0.0138 0.4384,0.044 0.65927,0.0361 0.0611,-0.003 0.12499,0.0179 0.18408,0.01 0.0517,-0.006 0.10488,-0.0186 0.15018,-0.0179 0.0152,0 0.0366,0.006 0.0532,0.006 0.0166,0.001 0.0303,0.003 0.046,0.007 0.046,0.0114 0.0906,0.0265 0.13582,0.041 0.0403,0.0129 0.0828,0.006 0.12372,-0.004 0.0418,-0.0101 0.0856,-0.0144 0.12936,-0.0186 0.13804,-0.0144 0.25107,0.0265 0.38396,0.0604 0.0663,0.0173 0.14595,0.0295 0.2135,0.0201 0.0591,-0.009 0.11579,-0.005 0.1741,-0.009 0.0339,-0.001 0.069,-0.0129 0.10273,-0.0201 0.0885,-0.0195 0.17833,-0.0346 0.26317,-0.0676 0.0806,-0.0309 0.1524,-0.0677 0.22934,-0.11154 0.0497,-0.028 0.0834,-0.069 0.13381,-0.097 0.0208,-0.0116 0.0473,-0.0215 0.0653,-0.0374 0.0173,-0.0131 0.0194,-0.026 0.0339,-0.0396 0.0159,-0.0158 0.0668,-0.0445 0.0876,-0.0517 0.0138,-0.003 0.0222,0.004 0.0361,0.001 0.03,-0.008 0.071,-0.0287 0.10047,-0.0416 0.046,-0.0195 0.0907,-0.049 0.13307,-0.0747 0.0325,-0.0195 0.0388,-0.0467 0.0668,-0.0727 0.0261,-0.0252 0.0504,-0.0453 0.0712,-0.0755 0.0145,-0.0208 0.0187,-0.0453 0.0317,-0.0661 0.018,-0.0302 0.0431,-0.0569 0.0604,-0.0885 0.0381,-0.0661 0.0755,-0.12645 0.12866,-0.1848 0.0519,-0.0554 0.10142,-0.12865 0.14467,-0.19344 0.0596,-0.0876 0.0883,-0.1732 0.071,-0.27738 -0.004,-0.0267 -0.0166,-0.0519 -0.0208,-0.0777 -0.004,-0.026 0.004,-0.049 -0.004,-0.0742 -0.0131,-0.0502 -0.0173,-0.0999 -0.0325,-0.15092 -0.0254,-0.0797 -0.01,-0.14596 -0.0187,-0.22511 -0.004,-0.0337 -0.0236,-0.0639 -0.0293,-0.0999 -0.006,-0.0386 -0.0268,-0.069 -0.0332,-0.10638 -0.007,-0.0453 -0.0127,-0.0733 -0.0366,-0.11504 -0.0173,-0.0309 -0.0272,-0.0698 -0.0367,-0.10418 -0.013,-0.0475 -0.0145,-0.0863 -0.041,-0.13086 -0.0254,-0.0431 -0.0481,-0.0871 -0.074,-0.1294 -0.0611,-0.10067 -0.1603,-0.17264 -0.21643,-0.27387 -0.0145,-0.026 -0.0388,-0.0799 -0.0747,-0.0433 -0.0268,0.0267 0.0173,0.0806 0.0258,0.11007 0.0339,0.10565 0.11081,0.2078 0.16546,0.30204 0.0243,0.0438 0.0503,0.0869 0.0748,0.13068 0.0546,0.095 0.0848,0.19713 0.11226,0.30277 0.006,0.0188 0.004,0.0309 0.0131,0.0495 0.0106,0.0217 0.0265,0.0388 0.0335,0.0626 0.0219,0.0755 0.004,0.15681 -0.0201,0.22933 -0.01,0.0309 -0.0159,0.0618 -0.0236,0.0915 -0.0106,0.0409 -0.0381,0.0747 -0.0574,0.11136 -0.0145,0.0267 -0.0236,0.0524 -0.0332,0.0799 -0.004,0.007 0,0.0171 -0.004,0.0236 -0.004,0.009 -0.0173,0.0116 -0.0215,0.0188 -0.0215,0.0351 -0.0388,0.0878 -0.0562,0.12516 -0.0194,0.0453 0.0201,0.0898 0.005,0.13878 -0.0293,0.0992 -0.0697,0.18038 -0.1452,0.2551 -0.0519,0.0519 -0.095,0.11007 -0.13381,0.17191 -0.0381,0.0611 -0.12644,0.1 -0.18757,0.1467 -0.0381,0.0287 -0.0784,0.0574 -0.10859,0.0948 -0.0187,0.021 -0.0293,0.0418 -0.0532,0.0576 -0.03,0.0223 -0.069,0.0388 -0.10287,0.0589 -0.0653,0.0374 -0.13232,0.0762 -0.19914,0.1143 -0.0618,0.0361 -0.12442,0.0863 -0.1977,0.1 -0.0475,0.0101 -0.0964,0.004 -0.14668,0.0116 -0.0727,0.0129 -0.14302,0.0287 -0.21865,0.0324 -0.0725,0.002 -0.14725,0.0201 -0.21996,0.0295 -0.0525,0.006 -0.11356,0.0257 -0.16676,0.025 -0.072,0 -0.15166,-0.0337 -0.2214,-0.0488 -0.15166,-0.0346 -0.30205,-0.0584 -0.45371,-0.10362 -0.0863,-0.0265 -0.14376,-0.0963 -0.24165,-0.092 -0.0409,0.003 -0.0804,0.013 -0.11928,0.0274 -0.0841,0.0324 -0.16474,0.0431 -0.25382,0.0574 -0.051,0.007 -0.0747,0.0144 -0.12294,0.0109 -0.0604,-0.006 -0.11797,0.004 -0.17466,0.0201 -0.0254,0.007 -0.0525,0.0223 -0.0784,0.0267 -0.0201,0.004 -0.0396,-0.002 -0.0596,7.1e-4 -0.0784,0.01 -0.16253,0.0107 -0.24095,0.0302 -0.0718,0.0186 -0.14005,0.071 -0.20412,0.10786 0.0871,-0.0504 0.17392,-0.10068 0.26099,-0.15111 0.0554,-0.0309 0.0943,-0.0711 0.14026,-0.11503 0.0789,-0.0733 0.1603,-0.1559 0.21996,-0.24793 0.0339,-0.049 0.0581,-0.10215 0.0898,-0.1524 0.025,-0.0396 0.0381,-0.0863 0.0611,-0.12884 0.0324,-0.0589 0.0727,-0.11577 0.11006,-0.17099 0.0339,-0.0504 0.0567,-0.0957 0.0841,-0.1489 0.0279,-0.0561 0.0712,-0.10786 0.10492,-0.16326 0.0254,-0.0401 0.0475,-0.0762 0.0633,-0.12075 0.0152,-0.0396 0.0131,-0.0883 0.041,-0.12221 0.0394,-0.049 0.10989,-0.0906 0.16528,-0.12295 0.0784,-0.0453 0.10492,-0.0999 0.14742,-0.17467 0.0215,-0.041 0.0446,-0.0497 0.0812,-0.0734 0.0453,-0.0272 0.069,-0.0711 0.09,-0.1178 0.0229,-0.0532 0.0394,-0.11356 0.0668,-0.16325 0.0173,-0.0309 0.0539,-0.0596 0.0791,-0.0834 0.0346,-0.0324 0.0688,-0.0302 0.11282,-0.0418 0.069,-0.0186 0.0827,-0.0416 0.12647,-0.0898 0.0317,-0.0331 0.0727,-0.0596 0.10859,-0.0891 0.0388,-0.0316 0.0871,-0.0396 0.13306,-0.0576 0.0619,-0.023 0.12792,-0.0416 0.19343,-0.046 0.0854,-0.006 0.15519,-0.0272 0.23654,-0.0495 0.10784,-0.0289 0.19988,-0.0604 0.29686,-0.11578 0.0611,-0.0339 0.14891,-0.0618 0.21791,-0.0675 0.0654,-0.005 0.13512,-0.0188 0.20045,-0.009 0.049,0.006 0.0907,0.018 0.14319,0.0201 0.0446,0.003 0.0841,-0.008 0.12866,-0.004 0.0325,0.003 0.0423,0.0136 0.0727,0.0252 0.0236,0.008 0.0596,0.008 0.0797,0.025 0.018,0.0166 0.0194,0.0633 0.051,0.0374 0.0381,-0.0316 -0.006,-0.11356 0.0219,-0.14724 -0.0554,-0.0598 -0.13307,-0.0999 -0.20853,-0.1316 -0.0497,-0.0215 -0.0834,-0.0195 -0.13585,-0.0223 -0.0467,-0.002 -0.0878,-0.0116 -0.13455,-0.007 -0.0554,0.007 -0.097,0.009 -0.15237,0.006 -0.12939,-0.006 -0.25308,0.0107 -0.37898,0.0445 -0.1027,0.0272 -0.2091,0.018 -0.31126,0.0453 -0.12368,0.0316 -0.24515,0.0762 -0.35521,0.14228 -0.0705,0.0425 -0.14944,0.0677 -0.22289,0.10933 -0.0453,0.026 -0.0898,0.0517 -0.13437,0.0777 -0.0222,0.0123 -0.0596,0.0267 -0.0769,0.046 -0.0159,0.0173 -0.0145,0.041 -0.0353,0.0583 -0.046,0.0381 -0.11286,0.0639 -0.16458,0.0941 -0.0683,0.0388 -0.1568,0.0668 -0.17116,0.15534 -0.004,0.023 0.0102,0.0267 0.004,0.0611 -0.01,0.0403 -0.0324,0.0942 -0.0576,0.12516 -0.0409,0.051 -0.0978,0.0876 -0.1445,0.13363 -0.0208,0.0215 -0.0359,0.0453 -0.0547,0.0676 -0.0366,0.0425 -0.0869,0.0685 -0.1257,0.10712 -0.0388,0.0388 -0.0827,0.0856 -0.11871,0.12737 -0.0222,0.0252 -0.0381,0.0653 -0.0488,0.097 -0.0229,0.0655 -0.0403,0.14025 -0.0749,0.20136 -0.0532,0.0942 -0.0755,0.16675 -0.0653,0.27608 0.004,0.0381 0.008,0.0554 -0.005,0.0913 -0.0159,0.0359 -0.0236,0.0482 -0.0497,0.0791 -0.0286,0.0351 -0.0561,0.0653 -0.0871,0.0977 -0.0639,0.0705 -0.11281,0.14173 -0.16178,0.22216 -0.0296,0.0482 -0.0639,0.0871 -0.097,0.13234 -0.0286,0.0381 -0.0332,0.0611 -0.069,0.0891 -0.0705,0.0554 -0.13508,0.12222 -0.20411,0.18057 -0.0332,0.0287 -0.0619,0.0582 -0.0784,0.0985 -0.006,0.0158 -0.0116,0.0337 -0.0145,0.051 -0.004,0.0129 0.004,0.0195 -0.005,0.0331 -0.01,0.0186 -0.0314,0.0166 -0.0661,0.0223"
       style="fill:#21201d;fill-opacity:1;fill-rule:nonzero;stroke:none;stroke-width:0.184057"
       id="path614" />
    <path
       d="m 103.57782,152.4023 c 0.0138,-0.0388 0.0208,-0.0618 0.0504,-0.0893 0.0303,-0.0265 0.0597,-0.0532 0.092,-0.0812 0.046,-0.041 0.094,-0.0747 0.1257,-0.12442 0.0215,-0.0352 0.0554,-0.0554 0.092,-0.0819 0.17762,-0.13234 0.36389,-0.24811 0.52768,-0.39628 0.0447,-0.0409 0.10658,-0.0668 0.14743,-0.11062 0.0354,-0.0374 0.0683,-0.0821 0.10361,-0.11006 0.0113,-0.009 0.0318,-0.0186 0.0453,-0.0287 0.0131,-0.0101 0.0236,-0.0173 0.0396,-0.0245 0.0423,-0.0208 0.0868,-0.0381 0.1301,-0.0561 0.0388,-0.0164 0.0668,-0.0495 0.092,-0.0826 0.0257,-0.0344 0.0559,-0.0661 0.0861,-0.0977 0.0965,-0.0992 0.21001,-0.14099 0.33369,-0.19988 0.0618,-0.0295 0.13085,-0.0712 0.17614,-0.12222 0.0403,-0.0445 0.0856,-0.0791 0.12792,-0.11798 0.0258,-0.0237 0.0445,-0.0547 0.0663,-0.0819 0.0552,-0.0712 0.1143,-0.14172 0.15738,-0.22068 0.0425,-0.0762 0.0742,-0.15038 0.10435,-0.23376 0.0208,-0.0532 0.0208,-0.10712 0.0401,-0.15957 0.01,-0.023 0.0222,-0.0475 0.0275,-0.0712 0.004,-0.0208 -0.004,-0.0324 0,-0.051 0,-0.023 0.0215,-0.0777 0.0346,-0.0963 0.007,-0.0116 0.0187,-0.0116 0.0275,-0.0224 0.0187,-0.025 0.0359,-0.0676 0.051,-0.0963 0.0215,-0.0445 0.0374,-0.0963 0.0532,-0.14301 0.0123,-0.0368 0,-0.0604 0.004,-0.0979 0.004,-0.0374 0.009,-0.0676 0.006,-0.10565 -0.004,-0.0237 -0.0145,-0.0453 -0.0173,-0.0698 -0.005,-0.0344 -0.004,-0.0711 -0.0109,-0.10638 -0.0138,-0.0747 -0.0243,-0.14596 -0.0208,-0.22437 0.004,-0.0755 -0.005,-0.16381 -0.0127,-0.24075 -0.0109,-0.10638 -0.0446,-0.18976 -0.12442,-0.25878 -0.0201,-0.018 -0.0468,-0.0296 -0.0668,-0.0468 -0.0187,-0.0166 -0.0286,-0.0381 -0.0504,-0.0526 -0.0423,-0.0309 -0.0776,-0.0661 -0.12146,-0.0955 -0.0705,-0.0453 -0.10068,-0.10565 -0.15956,-0.16105 -0.0236,-0.0223 -0.0589,-0.0339 -0.0863,-0.0569 -0.0286,-0.0257 -0.0646,-0.0351 -0.0935,-0.0604 -0.0353,-0.0302 -0.0574,-0.0475 -0.10121,-0.0646 -0.0332,-0.0123 -0.0663,-0.0353 -0.0957,-0.0554 -0.0403,-0.0287 -0.0661,-0.0576 -0.11578,-0.0747 -0.0467,-0.0166 -0.0935,-0.0353 -0.14026,-0.0512 -0.1106,-0.0381 -0.23284,-0.0294 -0.34068,-0.0705 -0.0279,-0.01 -0.0812,-0.0366 -0.0856,0.0145 -0.004,0.0374 0.0641,0.051 0.0913,0.0683 0.0927,0.0589 0.21642,0.0869 0.31933,0.12497 0.0473,0.0166 0.094,0.0339 0.14228,0.0519 0.10287,0.0366 0.19124,0.0963 0.28031,0.15884 0.0159,0.0107 0.0229,0.0216 0.0418,0.0302 0.0222,0.009 0.0453,0.0121 0.0661,0.0265 0.0655,0.0433 0.1029,0.11872 0.13162,0.18847 0.013,0.0295 0.0275,0.0569 0.0403,0.0849 0.0187,0.0388 0.0187,0.0819 0.0286,0.12369 0.005,0.028 0.0152,0.0547 0.0254,0.0819 0.004,0.007 0.012,0.0129 0.0138,0.0188 0.004,0.009 -0.006,0.0201 -0.005,0.0287 0.007,0.0403 0.0265,0.092 0.0381,0.1316 0.0145,0.0475 0.0725,0.0554 0.0928,0.10344 0.0409,0.095 0.0626,0.18259 0.0532,0.28842 -0.007,0.0718 -0.004,0.14522 0.008,0.21774 0.0106,0.0712 -0.0325,0.15755 -0.0497,0.23302 -0.0106,0.046 -0.0222,0.0948 -0.0222,0.14228 0,0.0282 0.004,0.0512 -0.004,0.0777 -0.009,0.0374 -0.0282,0.0755 -0.0411,0.11154 -0.0258,0.071 -0.0525,0.14375 -0.0784,0.21571 -0.0254,0.0676 -0.0409,0.14651 -0.0869,0.20413 -0.0311,0.0374 -0.0727,0.064 -0.10509,0.10343 -0.0482,0.0554 -0.0928,0.1143 -0.14743,0.164 -0.0545,0.0497 -0.0999,0.1108 -0.14947,0.16399 -0.0366,0.0394 -0.0697,0.0933 -0.11151,0.12793 -0.0553,0.0445 -0.13805,0.0712 -0.20193,0.10344 -0.13731,0.0712 -0.26745,0.15037 -0.41339,0.21295 -0.0834,0.0351 -0.17265,0.0186 -0.2437,0.0849 -0.031,0.028 -0.0539,0.0618 -0.0741,0.0977 -0.0438,0.0784 -0.0992,0.13878 -0.15812,0.20706 -0.0339,0.0388 -0.0475,0.0589 -0.0871,0.0871 -0.0495,0.0344 -0.0876,0.079 -0.11998,0.12792 -0.0159,0.0216 -0.0268,0.051 -0.044,0.0712 -0.012,0.0156 -0.0307,0.0243 -0.0453,0.0388 -0.0532,0.0582 -0.11705,0.11209 -0.1638,0.17817 -0.0438,0.0604 -0.0626,0.14393 -0.0885,0.2135 0.0346,-0.0948 0.0683,-0.18902 0.10364,-0.28326 0.0222,-0.0596 0.0258,-0.11578 0.0335,-0.17817 0.013,-0.10786 0.0222,-0.22289 0.01,-0.33149 -0.006,-0.0596 -0.0215,-0.11577 -0.0293,-0.17467 -0.007,-0.0475 -0.0265,-0.0907 -0.0359,-0.13804 -0.0138,-0.0655 -0.0187,-0.13455 -0.0258,-0.2021 -0.007,-0.0604 -0.0173,-0.10933 -0.0317,-0.16749 -0.0152,-0.0611 -0.0145,-0.12939 -0.0236,-0.19271 -0.006,-0.0468 -0.0127,-0.0885 -0.0293,-0.13307 -0.0145,-0.0403 -0.0475,-0.0769 -0.0475,-0.12074 0,-0.0633 0.0261,-0.14026 0.0475,-0.19989 0.0303,-0.0856 0.0166,-0.14449 0,-0.2286 -0.008,-0.0445 0.004,-0.0676 0.0152,-0.10786 0.0166,-0.051 0.008,-0.0992 -0.006,-0.14964 -0.0166,-0.0545 -0.043,-0.11136 -0.0539,-0.16749 -0.007,-0.0344 0.004,-0.0797 0.007,-0.1143 0.005,-0.0467 0.0332,-0.0675 0.0589,-0.10492 0.041,-0.0583 0.0368,-0.0841 0.0403,-0.14963 0,-0.0453 0.0166,-0.0928 0.0254,-0.13878 0.01,-0.0488 0.0416,-0.0847 0.0661,-0.1294 0.031,-0.0567 0.0705,-0.1143 0.118,-0.15957 0.0611,-0.0589 0.10139,-0.11927 0.1487,-0.18903 0.0633,-0.0913 0.11373,-0.17467 0.15388,-0.27977 0.0243,-0.0661 0.0734,-0.14301 0.12294,-0.19197 0.046,-0.046 0.0906,-0.10123 0.14743,-0.13584 0.0411,-0.0272 0.0812,-0.0445 0.12294,-0.0769 0.0353,-0.0265 0.0582,-0.0611 0.095,-0.0856 0.0272,-0.0193 0.0423,-0.0179 0.0718,-0.028 0.0236,-0.009 0.0512,-0.0324 0.0784,-0.0316 0.0236,0 0.0546,0.0366 0.0626,-0.005 0.008,-0.0482 -0.0777,-0.0834 -0.0784,-0.12515 -0.0812,-0.0109 -0.16602,0.008 -0.2437,0.0316 -0.0525,0.0151 -0.0769,0.0396 -0.11945,0.0712 -0.0366,0.0272 -0.0747,0.0473 -0.1071,0.0812 -0.0374,0.0403 -0.069,0.069 -0.11282,0.10215 -0.10273,0.0782 -0.18683,0.17099 -0.26102,0.27738 -0.0611,0.0863 -0.14944,0.14964 -0.2098,0.23449 -0.0749,0.10344 -0.13952,0.21718 -0.18058,0.33719 -0.0265,0.0784 -0.0718,0.1489 -0.10065,0.22713 l -0.0532,0.14743 c -0.008,0.023 -0.0286,0.0583 -0.0286,0.0841 0,0.023 0.0152,0.0403 0.0109,0.0668 -0.0109,0.0591 -0.0455,0.12221 -0.0663,0.17761 -0.0272,0.0742 -0.0776,0.1524 -0.0318,0.22934 0.0123,0.0203 0.0261,0.0138 0.0425,0.0453 0.0187,0.0368 0.0353,0.0928 0.0353,0.13307 0,0.0655 -0.018,0.12939 -0.0236,0.19418 -0.004,0.0302 0,0.0589 0,0.0876 0,0.0561 -0.0222,0.1086 -0.0272,0.16326 -0.005,0.0554 -0.008,0.11798 -0.008,0.1732 0,0.0346 0.012,0.0749 0.0243,0.10583 0.0236,0.0646 0.0604,0.1329 0.0718,0.20192 0.0194,0.10712 0.0497,0.17688 0.12735,0.25381 0.0279,0.0274 0.0431,0.0374 0.0547,0.0742 0.0113,0.0374 0.0138,0.051 0.0138,0.0913 0,0.0453 -0.004,0.0869 -0.004,0.13215 -0.004,0.0942 0.004,0.17983 0.0187,0.27407 0.008,0.0559 0.006,0.10638 0.0102,0.16252 0.004,0.048 0.0145,0.0683 0.005,0.11283 -0.0187,0.0876 -0.0261,0.18111 -0.0403,0.26964 -0.007,0.0438 -0.0102,0.0834 0.004,0.12571 0.005,0.0166 0.0138,0.0339 0.0215,0.049 0.006,0.0107 0.0152,0.0129 0.018,0.028 0.004,0.0203 -0.013,0.0324 -0.036,0.0591"
       style="fill:#21201d;fill-opacity:1;fill-rule:nonzero;stroke:none;stroke-width:0.184057"
       id="path616" />
    <path
       d="m 106.31492,152.39568 c -0.0138,-0.0388 -0.0236,-0.0604 -0.0187,-0.1005 0.005,-0.0403 0.0113,-0.0791 0.018,-0.12092 0.008,-0.0604 0.0236,-0.11853 0.0159,-0.17688 -0.005,-0.0409 0.007,-0.0777 0.018,-0.12148 0.0525,-0.21498 0.11927,-0.42425 0.15018,-0.64273 0.007,-0.0596 0.0388,-0.12001 0.0418,-0.17909 0.004,-0.0517 0,-0.10638 0.009,-0.15166 0.004,-0.0136 0.0113,-0.0337 0.0159,-0.0503 0.004,-0.0173 0.007,-0.0289 0.0145,-0.0453 0.0194,-0.0433 0.0423,-0.0849 0.0641,-0.12589 0.0201,-0.0381 0.0201,-0.0812 0.0169,-0.12295 -0.004,-0.0423 0,-0.0863 0.004,-0.13013 0.0106,-0.13878 0.0705,-0.24296 0.12647,-0.36812 0.0289,-0.0618 0.0554,-0.13804 0.0569,-0.20633 0.004,-0.0596 0.0159,-0.11504 0.0222,-0.17264 0.004,-0.0344 0,-0.0703 -0.004,-0.10492 -0.004,-0.0906 -0.004,-0.18185 -0.0201,-0.27038 -0.0173,-0.0861 -0.0403,-0.16252 -0.0697,-0.2459 -0.0194,-0.0539 -0.0539,-0.0948 -0.0725,-0.14798 -0.008,-0.0238 -0.0138,-0.0504 -0.0254,-0.072 -0.01,-0.0188 -0.0222,-0.023 -0.0332,-0.0396 -0.012,-0.0193 -0.0328,-0.0733 -0.0353,-0.0963 -0.004,-0.0131 0.008,-0.021 0.006,-0.0346 0,-0.0309 -0.0159,-0.0755 -0.0229,-0.10639 -0.0116,-0.0488 -0.0324,-0.0985 -0.0502,-0.14375 -0.0145,-0.0366 -0.0396,-0.046 -0.0606,-0.0777 -0.0201,-0.0309 -0.0359,-0.0574 -0.0618,-0.0841 -0.0169,-0.0173 -0.0416,-0.0267 -0.0589,-0.0423 -0.0272,-0.023 -0.0495,-0.0519 -0.0769,-0.0749 -0.0589,-0.0488 -0.11211,-0.097 -0.1603,-0.15884 -0.046,-0.0604 -0.10936,-0.12221 -0.16457,-0.17614 -0.0769,-0.074 -0.15607,-0.11651 -0.26099,-0.11872 -0.0275,0 -0.0547,0.007 -0.0814,0.007 -0.0258,0 -0.0475,-0.0101 -0.0725,-0.007 -0.0519,0.004 -0.10139,-0.001 -0.15458,0.004 -0.0827,0.0107 -0.14598,-0.0158 -0.22511,-0.0202 -0.0339,-0.002 -0.0668,0.0116 -0.10344,0.0116 -0.0396,-10e-4 -0.0727,0.0144 -0.1108,0.0136 -0.046,0 -0.0747,7e-4 -0.11854,0.0166 -0.0339,0.0109 -0.0742,0.0143 -0.10858,0.0173 -0.0497,0.004 -0.0878,0 -0.1373,0.0178 -0.046,0.018 -0.0935,0.0331 -0.14027,0.0512 -0.11006,0.0416 -0.19766,0.12719 -0.30698,0.16529 -0.0272,0.009 -0.0856,0.0245 -0.0562,0.0655 0.0215,0.0309 0.0827,-0.002 0.11356,-0.006 0.10862,-0.0145 0.22292,-0.072 0.32579,-0.10934 0.0467,-0.0173 0.0942,-0.0339 0.14097,-0.0512 0.10347,-0.0381 0.20909,-0.0495 0.31842,-0.0589 0.0187,-0.001 0.0318,0.002 0.051,-0.004 0.0229,-0.006 0.0425,-0.0195 0.0677,-0.0215 0.0775,-0.009 0.15442,0.0243 0.22141,0.0596 0.0296,0.0144 0.0582,0.0257 0.0869,0.0396 0.0388,0.0179 0.0655,0.0503 0.0999,0.0762 0.0229,0.0179 0.0475,0.0317 0.0727,0.046 0.006,0.004 0.0166,0.002 0.0222,0.006 0.008,0.006 0.008,0.0193 0.0159,0.0245 0.031,0.0265 0.0784,0.0539 0.11281,0.0777 0.041,0.0265 0.0913,-0.004 0.13805,0.0186 0.092,0.0468 0.16471,0.1 0.2251,0.187 0.0416,0.0604 0.092,0.11357 0.14669,0.16179 0.0532,0.048 0.0769,0.14228 0.11134,0.21056 0.0222,0.0418 0.0433,0.0871 0.0742,0.12369 0.018,0.0208 0.0353,0.0359 0.048,0.0618 0.0166,0.0346 0.0268,0.0755 0.0395,0.11081 0.0268,0.0718 0.0517,0.14522 0.0784,0.21627 0.0254,0.0683 0.0641,0.13878 0.0646,0.21222 0.004,0.048 -0.0138,0.0955 -0.0145,0.14669 0,0.0747 0.004,0.14651 -0.006,0.22068 -0.0102,0.0725 -0.005,0.14946 -0.009,0.22143 -0.004,0.0539 0.006,0.11724 -0.004,0.1697 -0.013,0.0698 -0.0596,0.14301 -0.0878,0.20982 -0.0597,0.14246 -0.10859,0.28695 -0.17964,0.42868 -0.0411,0.0804 -0.12019,0.12423 -0.13236,0.22142 -0.006,0.0416 -0.004,0.0826 0.006,0.12221 0.0173,0.0883 0.0138,0.17044 0.0123,0.26026 0,0.051 0.004,0.0762 -0.0109,0.12368 -0.0152,0.0567 -0.0159,0.11578 -0.0109,0.17468 0.004,0.026 0.0138,0.0554 0.0138,0.0819 0,0.0208 -0.01,0.0388 -0.0109,0.0591 -0.004,0.079 -0.0173,0.1616 -0.0109,0.24221 0.006,0.0747 0.0454,0.1502 0.0705,0.21995 -0.0346,-0.0948 -0.069,-0.18829 -0.10343,-0.28326 -0.0215,-0.0604 -0.0539,-0.10491 -0.0893,-0.15737 -0.0589,-0.092 -0.1257,-0.18627 -0.20556,-0.261 -0.0431,-0.0403 -0.0906,-0.0749 -0.13364,-0.1143 -0.0361,-0.0324 -0.0792,-0.0526 -0.11726,-0.0828 -0.0525,-0.0423 -0.10065,-0.092 -0.14961,-0.13804 -0.0438,-0.0416 -0.0841,-0.0733 -0.13141,-0.10786 -0.0512,-0.0374 -0.0943,-0.0906 -0.14175,-0.13289 -0.0353,-0.0309 -0.0676,-0.0589 -0.10858,-0.0826 -0.0366,-0.0217 -0.0856,-0.0296 -0.1143,-0.0619 -0.0411,-0.0475 -0.0697,-0.12368 -0.0913,-0.18405 -0.0318,-0.0848 -0.0804,-0.12148 -0.14669,-0.17541 -0.0366,-0.0289 -0.0416,-0.0534 -0.0582,-0.0928 -0.0201,-0.049 -0.0583,-0.0806 -0.10068,-0.10933 -0.0482,-0.0324 -0.10435,-0.0589 -0.14962,-0.095 -0.0264,-0.0208 -0.048,-0.0631 -0.0675,-0.0913 -0.0265,-0.0388 -0.0187,-0.0725 -0.0222,-0.11928 -0.006,-0.0705 -0.0261,-0.0878 -0.0661,-0.14025 -0.0275,-0.0359 -0.0468,-0.0812 -0.069,-0.12221 -0.0236,-0.0438 -0.0229,-0.092 -0.0325,-0.14099 -0.013,-0.0646 -0.0201,-0.13362 -0.013,-0.19841 0.009,-0.0841 0,-0.15737 -0.007,-0.24001 -0.0102,-0.11154 -0.0254,-0.2078 -0.0618,-0.3129 -0.0236,-0.0676 -0.0361,-0.15885 -0.0296,-0.22787 0.006,-0.0641 0.005,-0.1351 0.0251,-0.19768 0.0152,-0.0468 0.0339,-0.0871 0.0453,-0.13804 0.01,-0.0438 0.006,-0.0841 0.0173,-0.12736 0.01,-0.0315 0.0215,-0.0394 0.0381,-0.0675 0.012,-0.0216 0.0187,-0.0567 0.0381,-0.074 0.0201,-0.0151 0.0661,-0.008 0.0453,-0.0445 -0.0243,-0.0425 -0.11207,-0.0138 -0.14079,-0.0447 -0.0685,0.0433 -0.12167,0.11227 -0.16545,0.18056 -0.0303,0.0453 -0.0339,0.0799 -0.0453,0.13086 -0.0109,0.0453 -0.0279,0.0841 -0.0303,0.1316 -0.004,0.0547 -0.01,0.0963 -0.0208,0.15019 -0.0289,0.12664 -0.0332,0.25087 -0.0222,0.381 0.008,0.1051 -0.018,0.20928 -0.01,0.31492 0.01,0.12664 0.0324,0.25456 0.0784,0.37401 0.0293,0.0769 0.0401,0.15958 0.069,0.23872 0.0187,0.0488 0.0359,0.0977 0.0532,0.14596 0.009,0.0243 0.0159,0.0639 0.0318,0.0841 0.0152,0.0179 0.0386,0.0208 0.0517,0.0445 0.0286,0.0517 0.0431,0.12148 0.0639,0.17762 0.0268,0.0747 0.0388,0.16675 0.12294,0.1962 0.0226,0.007 0.0282,-0.006 0.0611,0.008 0.0388,0.0151 0.087,0.0482 0.11373,0.0784 0.0423,0.0495 0.069,0.11062 0.1064,0.16455 0.0173,0.0252 0.0381,0.044 0.0567,0.067 0.0353,0.0431 0.0526,0.097 0.0834,0.14228 0.0318,0.0453 0.0705,0.0963 0.1051,0.13878 0.0222,0.0257 0.0582,0.049 0.0869,0.0646 0.0605,0.0331 0.13158,0.0641 0.18478,0.10785 0.0834,0.0698 0.15184,0.10436 0.26099,0.11375 0.0396,0.003 0.0569,7.1e-4 0.0893,0.0208 0.0328,0.0215 0.0431,0.0309 0.0698,0.0618 0.0293,0.0337 0.0539,0.0676 0.0819,0.10344 0.0569,0.0742 0.11854,0.13528 0.18976,0.19768 0.0425,0.0375 0.0747,0.0777 0.11282,0.11871 0.0332,0.0346 0.0547,0.0425 0.0756,0.0827 0.0423,0.0791 0.097,0.15534 0.14301,0.23228 0.0222,0.0381 0.046,0.0712 0.0834,0.095 0.0145,0.008 0.0317,0.0164 0.0475,0.0236 0.012,0.004 0.0201,7e-4 0.0318,0.009 0.0166,0.0138 0.0113,0.0339 0.0106,0.0683"
       style="fill:#21201d;fill-opacity:1;fill-rule:nonzero;stroke:none;stroke-width:0.184057"
       id="path618" />
    <path
       d="m 108.40724,150.55381 c -0.0353,-0.0203 -0.0576,-0.0309 -0.0791,-0.0648 -0.0222,-0.0344 -0.0418,-0.0683 -0.0641,-0.10492 -0.0325,-0.0519 -0.0574,-0.10583 -0.10142,-0.14522 -0.0303,-0.0274 -0.0438,-0.0641 -0.0646,-0.10436 -0.0977,-0.19842 -0.18055,-0.4018 -0.29834,-0.5888 -0.0318,-0.0517 -0.0467,-0.11651 -0.0827,-0.16473 -0.031,-0.0409 -0.0685,-0.0819 -0.0907,-0.12075 -0.007,-0.0129 -0.0127,-0.0344 -0.0208,-0.0495 -0.008,-0.0144 -0.0131,-0.0267 -0.0173,-0.0433 -0.0138,-0.046 -0.0222,-0.092 -0.0321,-0.13804 -0.01,-0.0416 -0.0368,-0.0747 -0.0655,-0.10565 -0.0293,-0.0309 -0.0554,-0.0661 -0.0819,-0.10142 -0.0806,-0.11209 -0.10142,-0.23155 -0.13804,-0.3637 -0.018,-0.0655 -0.0475,-0.14173 -0.09,-0.19492 -0.0374,-0.0468 -0.0617,-0.0977 -0.0948,-0.14596 -0.018,-0.0287 -0.0446,-0.0539 -0.0683,-0.0791 -0.0604,-0.0675 -0.11945,-0.13731 -0.1905,-0.194 -0.067,-0.0539 -0.13454,-0.0985 -0.21074,-0.14319 -0.0495,-0.0287 -0.10213,-0.0381 -0.15092,-0.0668 -0.0212,-0.0129 -0.0433,-0.0302 -0.0648,-0.0388 -0.0201,-0.009 -0.0328,-0.004 -0.051,-0.009 -0.0229,-0.006 -0.0727,-0.0344 -0.0885,-0.051 -0.01,-0.009 -0.009,-0.0201 -0.0173,-0.0302 -0.0219,-0.023 -0.0611,-0.0475 -0.0863,-0.0675 -0.0403,-0.0295 -0.0878,-0.0532 -0.13162,-0.0769 -0.0339,-0.0188 -0.0596,-0.0101 -0.0962,-0.0215 -0.0353,-0.0109 -0.0641,-0.021 -0.10142,-0.0237 -0.0243,-0.002 -0.0482,0.006 -0.072,0.006 -0.0359,-10e-4 -0.0712,-0.008 -0.10784,-0.008 -0.0755,0 -0.14743,-0.002 -0.22437,-0.0193 -0.0733,-0.0173 -0.16235,-0.0237 -0.23929,-0.0289 -0.10636,-0.008 -0.19491,0.0109 -0.27608,0.0769 -0.0208,0.0173 -0.0374,0.041 -0.0569,0.0583 -0.0201,0.0158 -0.0431,0.0223 -0.0611,0.0401 -0.0374,0.0361 -0.0792,0.0648 -0.11578,0.10362 -0.056,0.0611 -0.12146,0.0804 -0.18627,0.12866 -0.0258,0.021 -0.0431,0.0517 -0.071,0.0747 -0.031,0.0252 -0.0467,0.0576 -0.0755,0.0828 -0.0361,0.0287 -0.0569,0.048 -0.0806,0.0883 -0.0187,0.0309 -0.0475,0.0584 -0.072,0.0841 -0.0353,0.0346 -0.0683,0.0554 -0.094,0.10068 -0.0236,0.0438 -0.0504,0.0863 -0.0747,0.12939 -0.0562,0.10289 -0.0692,0.22437 -0.12813,0.32431 -0.0152,0.0252 -0.0495,0.074 0,0.0863 0.0368,0.01 0.0618,-0.0547 0.0835,-0.0784 0.074,-0.0814 0.12425,-0.19768 0.17963,-0.29339 0.0243,-0.0438 0.049,-0.0871 0.0748,-0.1294 0.0546,-0.0957 0.12809,-0.17246 0.20577,-0.24884 0.0138,-0.0144 0.025,-0.0201 0.0366,-0.0366 0.013,-0.0201 0.0201,-0.0423 0.0381,-0.0611 0.0539,-0.0559 0.13437,-0.0797 0.20704,-0.0963 0.0325,-0.006 0.0626,-0.0173 0.092,-0.0252 0.0416,-0.0109 0.0834,-0.004 0.12573,-0.006 0.0293,-7e-4 0.0569,-0.005 0.0856,-0.0116 0.007,-7e-4 0.0145,-0.008 0.0208,-0.008 0.01,-7.1e-4 0.0187,0.008 0.0282,0.008 0.0409,0 0.0948,-0.009 0.13586,-0.0144 0.049,-0.005 0.0668,-0.0618 0.11797,-0.0733 0.0999,-0.0237 0.1905,-0.0295 0.29319,-0.002 0.0698,0.0201 0.14319,0.0274 0.21572,0.0302 0.072,0.002 0.14965,0.0589 0.22088,0.0885 0.0438,0.0193 0.0891,0.0394 0.13582,0.048 0.0279,0.004 0.051,0.005 0.0762,0.0166 0.0353,0.0151 0.0698,0.041 0.10216,0.0596 0.0668,0.0381 0.13289,0.0762 0.19915,0.11504 0.0624,0.0361 0.1373,0.0655 0.18535,0.12093 0.0332,0.0359 0.0511,0.0826 0.0841,0.12147 0.0475,0.0567 0.0972,0.11062 0.13603,0.1732 0.0388,0.0619 0.092,0.11798 0.13656,0.17541 0.0324,0.0433 0.0799,0.0856 0.10491,0.13234 0.0354,0.0626 0.0468,0.14816 0.0683,0.21645 0.046,0.14816 0.10139,0.29044 0.13674,0.44431 0.0215,0.0883 -0.0109,0.1732 0.0416,0.25603 0.0229,0.0337 0.0517,0.0631 0.0834,0.0891 0.0705,0.0561 0.11871,0.12148 0.17614,0.19124 0.0332,0.0403 0.0504,0.0576 0.0712,0.10215 0.0261,0.0532 0.0626,0.0985 0.10491,0.13952 0.0194,0.0193 0.046,0.0351 0.0626,0.0545 0.0138,0.0165 0.018,0.0368 0.03,0.0532 0.0475,0.0618 0.0906,0.13455 0.14743,0.19197 0.0517,0.0532 0.13088,0.0863 0.19491,0.12296 -0.087,-0.0495 -0.1741,-0.1 -0.26099,-0.1502 -0.0554,-0.0324 -0.11006,-0.046 -0.16894,-0.0648 -0.10436,-0.0315 -0.21647,-0.0596 -0.32653,-0.0668 -0.0581,-0.003 -0.11723,0.002 -0.17615,-7.1e-4 -0.0475,-0.002 -0.0942,0.0101 -0.14153,0.0116 -0.0683,0.002 -0.13674,-0.005 -0.20429,-0.009 -0.0604,-0.004 -0.11064,-0.002 -0.17043,0.001 -0.0632,0.004 -0.13014,-0.009 -0.19403,-0.0101 -0.0467,-0.001 -0.0898,-0.002 -0.13582,0.006 -0.0425,0.008 -0.0843,0.0331 -0.12735,0.026 -0.0611,-0.0101 -0.13307,-0.0504 -0.18831,-0.0812 -0.0791,-0.0447 -0.13949,-0.0418 -0.22582,-0.0396 -0.046,7.1e-4 -0.0653,-0.0151 -0.10343,-0.0346 -0.0468,-0.0252 -0.0972,-0.0245 -0.14746,-0.0193 -0.0569,0.006 -0.11723,0.023 -0.17466,0.0237 -0.0353,0.001 -0.0784,-0.0166 -0.11155,-0.0267 -0.0453,-0.0129 -0.0604,-0.0438 -0.0935,-0.0769 -0.0502,-0.0495 -0.0762,-0.0503 -0.14005,-0.0646 -0.0447,-0.0101 -0.0885,-0.0331 -0.13236,-0.0504 -0.046,-0.0173 -0.0769,-0.0547 -0.11501,-0.0863 -0.0517,-0.0409 -0.10142,-0.0898 -0.13733,-0.14375 -0.0468,-0.0705 -0.10065,-0.12148 -0.16031,-0.18038 -0.0799,-0.0784 -0.1524,-0.14246 -0.24885,-0.19989 -0.0604,-0.0353 -0.12865,-0.0964 -0.1682,-0.15387 -0.0367,-0.0532 -0.0834,-0.10786 -0.10862,-0.16823 -0.0187,-0.046 -0.0293,-0.0878 -0.0539,-0.13454 -0.0201,-0.0396 -0.0495,-0.069 -0.0675,-0.1086 -0.0138,-0.0302 -0.0109,-0.0445 -0.0152,-0.0762 -0.004,-0.025 -0.0229,-0.0559 -0.0173,-0.0826 0.005,-0.0237 0.0453,-0.0482 0.006,-0.0618 -0.046,-0.0166 -0.0957,0.0618 -0.13677,0.0547 -0.025,0.0784 -0.0215,0.16602 -0.0113,0.24664 0.006,0.0532 0.025,0.0826 0.0487,0.12865 0.0226,0.0425 0.0339,0.0827 0.0618,0.12001 0.0332,0.044 0.0554,0.0799 0.0813,0.12884 0.0589,0.11504 0.13586,0.21425 0.22786,0.30627 0.0748,0.0747 0.12076,0.17173 0.19421,0.24738 0.0891,0.0906 0.18902,0.17393 0.30109,0.23504 0.072,0.0403 0.13381,0.097 0.20708,0.13951 0.0447,0.0258 0.0893,0.0517 0.13455,0.0769 0.0215,0.0129 0.0525,0.0388 0.0784,0.0438 0.0222,0.005 0.0423,-0.008 0.0676,0.001 0.0561,0.0201 0.11208,0.0653 0.16326,0.0955 0.0683,0.0396 0.1373,0.10216 0.21996,0.0705 0.0222,-0.009 0.018,-0.0223 0.0525,-0.0331 0.0396,-0.0129 0.097,-0.0186 0.13656,-0.0129 0.0655,0.0101 0.12516,0.041 0.18845,0.0582 0.0286,0.008 0.0567,0.009 0.0861,0.0145 0.0547,0.0107 0.10291,0.0401 0.15533,0.0545 0.0532,0.0145 0.11504,0.0289 0.16898,0.0396 0.0339,0.006 0.0762,0 0.10858,-0.006 0.0683,-0.0129 0.14175,-0.0359 0.21206,-0.0359 0.10784,-7.1e-4 0.18274,-0.018 0.27111,-0.0806 0.0318,-0.023 0.0445,-0.0359 0.0819,-0.0416 0.0396,-0.005 0.0525,-0.004 0.0935,0.003 0.0445,0.007 0.0848,0.0173 0.12866,0.0267 0.092,0.0201 0.17907,0.0272 0.27333,0.0294 0.0567,7.1e-4 0.1071,0.0116 0.16249,0.018 0.0481,0.005 0.0696,-0.003 0.11137,0.0136 0.0834,0.0339 0.17392,0.0574 0.2588,0.0883 0.0418,0.0138 0.0814,0.0237 0.12513,0.0173 0.0166,-0.002 0.0346,-0.007 0.0503,-0.0129 0.0131,-0.004 0.0159,-0.0123 0.0318,-0.0129 0.0208,0 0.0293,0.0186 0.0519,0.046"
       style="fill:#21201d;fill-opacity:1;fill-rule:nonzero;stroke:none;stroke-width:0.184057"
       id="path620" />
    <path
       d="m 108.86868,147.96467 c -0.0401,0.007 -0.0631,0.0129 -0.10122,7.1e-4 -0.0396,-0.0114 -0.0769,-0.0245 -0.11726,-0.0381 -0.0584,-0.0193 -0.11225,-0.0438 -0.17043,-0.0468 -0.0423,-0.001 -0.0762,-0.0201 -0.11722,-0.0381 -0.20268,-0.0884 -0.39684,-0.19124 -0.60742,-0.25952 -0.0576,-0.0188 -0.1108,-0.0589 -0.16894,-0.0727 -0.0504,-0.0114 -0.10435,-0.0179 -0.14743,-0.0344 -0.0138,-0.005 -0.0318,-0.018 -0.0475,-0.0245 -0.0152,-0.006 -0.0272,-0.0114 -0.0411,-0.0216 -0.0396,-0.0267 -0.0755,-0.0569 -0.11355,-0.0856 -0.0339,-0.0252 -0.0762,-0.0331 -0.11723,-0.0381 -0.0423,-0.004 -0.0854,-0.0158 -0.12866,-0.0265 -0.13437,-0.0339 -0.22641,-0.1108 -0.33941,-0.18921 -0.0559,-0.0381 -0.12717,-0.0777 -0.19399,-0.0913 -0.0584,-0.0121 -0.11081,-0.0344 -0.16676,-0.051 -0.0324,-0.0101 -0.069,-0.0116 -0.1029,-0.0166 -0.0906,-0.0123 -0.17982,-0.028 -0.27037,-0.026 -0.0869,0.001 -0.16676,0.0109 -0.25383,0.026 -0.0567,0.009 -0.10269,0.0359 -0.15956,0.0446 -0.0229,0.004 -0.0517,0.005 -0.0747,0.0129 -0.0194,0.007 -0.0268,0.0188 -0.0446,0.026 -0.0201,0.009 -0.0769,0.0201 -0.0999,0.018 -0.0145,-7.1e-4 -0.0201,-0.0116 -0.0332,-0.0123 -0.031,-0.004 -0.0769,0.002 -0.10932,0.004 -0.0495,0.002 -0.10142,0.0144 -0.15018,0.0245 -0.0381,0.008 -0.0525,0.0315 -0.0871,0.046 -0.0335,0.0144 -0.0626,0.0258 -0.0943,0.0466 -0.0194,0.0138 -0.0321,0.0353 -0.051,0.0504 -0.0279,0.0223 -0.0604,0.0396 -0.0876,0.0633 -0.0583,0.0488 -0.11373,0.0933 -0.18408,0.13013 -0.067,0.0344 -0.13874,0.0848 -0.20207,0.13086 -0.0863,0.0624 -0.14245,0.13363 -0.16178,0.23725 -0.005,0.0265 -0.004,0.0545 -0.007,0.0812 -0.004,0.0245 -0.018,0.0438 -0.0208,0.0698 -0.005,0.0525 -0.018,0.0999 -0.0219,0.1524 -0.004,0.0841 -0.0416,0.14098 -0.0589,0.21921 -0.007,0.0324 0,0.0677 -0.006,0.10289 -0.008,0.0388 0,0.0747 -0.006,0.11154 -0.008,0.046 -0.0123,0.074 -0.005,0.12 0.007,0.0351 0.004,0.0755 0,0.11062 -0.004,0.049 -0.0162,0.0856 -0.006,0.1375 0.01,0.0488 0.0159,0.0985 0.0251,0.14724 0.0229,0.11504 0.092,0.21572 0.11007,0.33075 0.004,0.0295 0.009,0.0885 0.0547,0.0668 0.0346,-0.0156 0.012,-0.0819 0.0138,-0.11356 0.005,-0.10914 -0.0318,-0.23209 -0.0512,-0.33922 -0.008,-0.0497 -0.018,-0.0986 -0.0258,-0.14816 -0.0194,-0.10786 -0.0127,-0.21425 -0.004,-0.32284 0.004,-0.0188 0.007,-0.0316 0.005,-0.051 -0.004,-0.0237 -0.0116,-0.046 -0.0102,-0.0712 0.005,-0.0777 0.0517,-0.14816 0.097,-0.2078 0.0201,-0.026 0.0361,-0.0532 0.0539,-0.0784 0.0243,-0.0344 0.0611,-0.0567 0.0928,-0.0856 0.0222,-0.0193 0.0403,-0.0409 0.0581,-0.0631 0.005,-0.006 0.006,-0.0166 0.0102,-0.021 0.006,-0.007 0.0194,-0.005 0.0268,-0.0107 0.0318,-0.026 0.0668,-0.0683 0.0948,-0.0985 0.0339,-0.0361 0.0116,-0.09 0.0433,-0.1316 0.0618,-0.0834 0.12718,-0.14595 0.22363,-0.1905 0.0661,-0.0304 0.12643,-0.0705 0.18404,-0.11503 0.0574,-0.046 0.15371,-0.0519 0.22642,-0.0742 0.046,-0.0144 0.0935,-0.0272 0.13581,-0.0517 0.0236,-0.0136 0.0418,-0.028 0.0683,-0.0359 0.0368,-0.0109 0.0791,-0.013 0.11649,-0.0203 0.0755,-0.0129 0.15113,-0.0265 0.22733,-0.0396 0.0703,-0.0129 0.14651,-0.0381 0.21992,-0.0265 0.0475,0.006 0.0913,0.0294 0.14154,0.0396 0.0727,0.0129 0.14541,0.0223 0.21572,0.0453 0.0697,0.0215 0.14594,0.0309 0.2172,0.046 0.0517,0.0129 0.11649,0.0144 0.16602,0.0337 0.0662,0.0252 0.13085,0.0836 0.19121,0.12222 0.13014,0.0843 0.26395,0.15682 0.39038,0.25252 0.0727,0.0539 0.10217,0.13934 0.19565,0.16897 0.0396,0.0114 0.0804,0.0158 0.1215,0.0151 0.0906,-0.001 0.16968,0.0164 0.25823,0.0329 0.051,0.0109 0.0747,0.0116 0.12002,0.0324 0.0539,0.0252 0.11133,0.0359 0.17042,0.0403 0.0265,0.002 0.0567,-0.003 0.0826,0.001 0.0201,0.004 0.0367,0.0158 0.0567,0.0201 0.0777,0.0173 0.15681,0.0445 0.23671,0.0532 0.074,0.008 0.15515,-0.018 0.2286,-0.0309 -0.0985,0.018 -0.1977,0.0353 -0.2969,0.0525 -0.0633,0.0109 -0.11225,0.0353 -0.17117,0.0604 -0.0992,0.0425 -0.20429,0.092 -0.29118,0.15756 -0.0482,0.0351 -0.0898,0.0762 -0.1373,0.11282 -0.0374,0.0287 -0.0648,0.0683 -0.10142,0.0992 -0.0504,0.0453 -0.10711,0.0834 -0.16179,0.12369 -0.0482,0.0366 -0.0863,0.0705 -0.12866,0.11154 -0.046,0.0431 -0.10562,0.0767 -0.15532,0.11632 -0.0374,0.0296 -0.0712,0.0561 -0.10143,0.0928 -0.0272,0.0324 -0.0431,0.0791 -0.0797,0.10141 -0.0539,0.0324 -0.13455,0.0468 -0.19713,0.0582 -0.0898,0.0166 -0.13289,0.0583 -0.1984,0.11448 -0.0353,0.0302 -0.0596,0.0309 -0.10143,0.0401 -0.0517,0.0116 -0.0906,0.044 -0.12495,0.0814 -0.0403,0.0409 -0.0762,0.0928 -0.11875,0.13086 -0.0264,0.0223 -0.0712,0.0366 -0.10269,0.0495 -0.044,0.0195 -0.0749,0.006 -0.12164,0.001 -0.0703,-0.006 -0.0906,0.0109 -0.14873,0.041 -0.0403,0.0208 -0.0885,0.0315 -0.13307,0.0468 -0.0475,0.0156 -0.0948,0.007 -0.14449,0.008 -0.0653,7.1e-4 -0.13434,-0.004 -0.19693,-0.0224 -0.0821,-0.0236 -0.15536,-0.028 -0.23798,-0.0351 -0.11285,-0.009 -0.21001,-0.0109 -0.31933,0.007 -0.0696,0.0116 -0.16108,0.008 -0.2286,-0.0101 -0.0626,-0.0171 -0.13289,-0.0287 -0.19124,-0.0596 -0.0438,-0.0223 -0.0797,-0.0482 -0.12792,-0.0683 -0.0411,-0.0173 -0.0819,-0.0208 -0.12224,-0.0388 -0.0293,-0.0144 -0.0361,-0.0287 -0.0596,-0.0495 -0.0187,-0.0165 -0.0534,-0.0282 -0.0663,-0.0519 -0.012,-0.0208 0.004,-0.0646 -0.0353,-0.051 -0.0467,0.0166 -0.0339,0.10859 -0.0705,0.13013 0.0317,0.0762 0.0906,0.13951 0.14943,0.19565 0.0396,0.0366 0.0734,0.0473 0.12094,0.0668 0.0431,0.0186 0.079,0.0416 0.12499,0.0525 0.0532,0.0129 0.0935,0.0252 0.14393,0.0475 0.12001,0.0488 0.24222,0.0755 0.37161,0.0869 0.10563,0.0101 0.20356,0.0539 0.30773,0.0648 0.12665,0.0116 0.2575,0.0116 0.38248,-0.0129 0.0814,-0.0158 0.16398,-0.0116 0.24737,-0.0267 0.051,-0.009 0.10287,-0.018 0.15314,-0.0265 0.0251,-0.004 0.0653,-0.004 0.0878,-0.0173 0.0208,-0.0109 0.0272,-0.0339 0.0532,-0.0431 0.0567,-0.0195 0.12718,-0.0217 0.18609,-0.0309 0.0784,-0.0145 0.17117,-0.0101 0.21499,-0.0885 0.0116,-0.0201 0,-0.0287 0.018,-0.0582 0.0222,-0.0361 0.0626,-0.0777 0.097,-0.0979 0.0562,-0.0337 0.12223,-0.0488 0.18132,-0.0762 0.0265,-0.0129 0.0495,-0.0302 0.0755,-0.0445 0.0482,-0.028 0.10418,-0.0351 0.15385,-0.0582 0.0503,-0.0237 0.10714,-0.0517 0.15536,-0.0791 0.0293,-0.0158 0.0574,-0.0475 0.0782,-0.0733 0.044,-0.0539 0.0863,-0.11946 0.13953,-0.164 0.0826,-0.0705 0.12791,-0.1316 0.15607,-0.23725 0.01,-0.0381 0.0106,-0.0561 0.0366,-0.0841 0.0265,-0.0295 0.0374,-0.0374 0.0725,-0.0582 0.0388,-0.0232 0.0764,-0.0411 0.11578,-0.0626 0.0835,-0.0433 0.15458,-0.0935 0.22803,-0.1524 0.0446,-0.0353 0.0898,-0.0598 0.13582,-0.0915 0.0411,-0.0265 0.0517,-0.046 0.095,-0.0596 0.0854,-0.028 0.17025,-0.0683 0.25435,-0.1 0.041,-0.0158 0.0777,-0.0337 0.1071,-0.0653 0.0116,-0.0131 0.0226,-0.0287 0.0311,-0.044 0.007,-0.0107 0.004,-0.0186 0.0159,-0.0287 0.0159,-0.0136 0.0353,-0.005 0.069,7e-4"
       style="fill:#21201d;fill-opacity:1;fill-rule:nonzero;stroke:none;stroke-width:0.184057"
       id="path622" />
    <path
       d="m 107.54071,145.51375 c -0.0265,0.0317 -0.0409,0.051 -0.0775,0.0661 -0.0381,0.0158 -0.0749,0.0295 -0.1143,0.046 -0.0569,0.0215 -0.11377,0.0381 -0.16051,0.0734 -0.0328,0.0251 -0.0718,0.0329 -0.1143,0.046 -0.21276,0.0618 -0.427,0.10786 -0.63186,0.19123 -0.0561,0.023 -0.12368,0.0258 -0.17614,0.0532 -0.046,0.0237 -0.092,0.0532 -0.13603,0.0683 -0.0127,0.005 -0.0353,0.006 -0.0517,0.0114 -0.0166,0.006 -0.0286,0.008 -0.0453,0.0101 -0.0475,0.005 -0.095,0.006 -0.14154,0.007 -0.0425,0.002 -0.0799,0.0238 -0.11504,0.0468 -0.0353,0.0238 -0.0749,0.0423 -0.11447,0.0626 -0.12499,0.0596 -0.24518,0.0596 -0.38248,0.0733 -0.0668,0.006 -0.14725,0.0223 -0.20705,0.0539 -0.0525,0.0287 -0.10714,0.0453 -0.16108,0.0683 -0.031,0.0138 -0.0596,0.0361 -0.0891,0.0539 -0.0762,0.0475 -0.15607,0.0935 -0.22437,0.15314 -0.0653,0.0576 -0.11998,0.11725 -0.17759,0.18332 -0.0366,0.044 -0.0552,0.0942 -0.092,0.13676 -0.0159,0.0186 -0.0374,0.0381 -0.0502,0.0582 -0.0109,0.018 -0.009,0.0302 -0.0173,0.049 -0.01,0.0201 -0.0467,0.0646 -0.0646,0.0775 -0.0117,0.009 -0.0222,0.004 -0.0339,0.0116 -0.0254,0.0173 -0.0574,0.0517 -0.0812,0.0733 -0.0361,0.0346 -0.0677,0.0777 -0.0987,0.11651 -0.0243,0.0294 -0.0208,0.0569 -0.0381,0.0906 -0.0162,0.0331 -0.0314,0.0598 -0.0409,0.0965 -0.006,0.0237 -0.004,0.0482 -0.007,0.0718 -0.007,0.0346 -0.0208,0.0685 -0.0268,0.10436 -0.0127,0.074 -0.0272,0.14449 -0.0574,0.21719 -0.0293,0.0696 -0.0511,0.1559 -0.0705,0.23136 -0.0254,0.10289 -0.0229,0.19345 0.0279,0.28474 0.0138,0.0245 0.0339,0.044 0.0475,0.0663 0.012,0.023 0.0145,0.046 0.0286,0.0676 0.0293,0.0431 0.0504,0.0891 0.0821,0.13087 0.0502,0.0668 0.0589,0.13436 0.0948,0.20632 0.0159,0.0295 0.0446,0.0517 0.0611,0.0834 0.0194,0.0344 0.049,0.0554 0.0683,0.0883 0.0222,0.0403 0.0374,0.0648 0.0727,0.095 0.0272,0.0237 0.0495,0.0569 0.0705,0.0856 0.0279,0.0403 0.0431,0.0755 0.0834,0.11007 0.0381,0.0309 0.0755,0.0646 0.1143,0.0963 0.0913,0.0727 0.20856,0.10638 0.2969,0.18185 0.0222,0.0202 0.0641,0.0626 0.0848,0.0166 0.0159,-0.0344 -0.0431,-0.0705 -0.0626,-0.0955 -0.0668,-0.0871 -0.17392,-0.15681 -0.25802,-0.22731 -0.0374,-0.0324 -0.0762,-0.0646 -0.11504,-0.097 -0.0834,-0.0705 -0.14672,-0.15682 -0.20857,-0.24516 -0.0106,-0.0158 -0.0152,-0.0287 -0.0293,-0.0425 -0.018,-0.0171 -0.0381,-0.028 -0.0532,-0.0473 -0.046,-0.0633 -0.0569,-0.14817 -0.0597,-0.22216 0,-0.0331 -0.006,-0.064 -0.008,-0.095 -0.004,-0.0418 0.01,-0.0819 0.0159,-0.12442 0.004,-0.0295 0.004,-0.0574 0.004,-0.0871 0,-0.006 -0.006,-0.0144 -0.006,-0.0223 0,-0.009 0.012,-0.0164 0.0145,-0.025 0.007,-0.0403 0.006,-0.095 0.008,-0.13675 0.004,-0.0488 -0.0489,-0.0762 -0.051,-0.12866 -0.006,-0.10344 0.004,-0.19345 0.0488,-0.28897 0.031,-0.0661 0.0519,-0.13583 0.0663,-0.2078 0.0159,-0.0698 0.0848,-0.13657 0.12643,-0.2021 0.0268,-0.0394 0.0539,-0.0804 0.0698,-0.12571 0.0102,-0.026 0.0145,-0.049 0.0303,-0.072 0.0208,-0.0316 0.0517,-0.0611 0.0762,-0.0906 0.0497,-0.0589 0.0985,-0.11651 0.14817,-0.17541 0.046,-0.0554 0.0884,-0.12442 0.15095,-0.16252 0.0418,-0.0252 0.0906,-0.0359 0.13526,-0.0604 0.0646,-0.0374 0.12498,-0.0769 0.19399,-0.10492 0.0676,-0.0274 0.13162,-0.069 0.19639,-0.10288 0.048,-0.0245 0.0977,-0.0641 0.14799,-0.0812 0.0677,-0.0245 0.15462,-0.0202 0.22585,-0.0289 0.15314,-0.0201 0.30258,-0.0503 0.46087,-0.0589 0.0906,-0.004 0.16824,0.0418 0.25805,0.004 0.0381,-0.0158 0.0727,-0.0388 0.10287,-0.0655 0.0683,-0.0596 0.14154,-0.097 0.21922,-0.14099 0.0453,-0.025 0.0655,-0.0394 0.11229,-0.0532 0.0581,-0.0151 0.10911,-0.0438 0.15734,-0.0782 0.0215,-0.0151 0.0418,-0.0388 0.0641,-0.0526 0.018,-0.009 0.0388,-0.0107 0.0567,-0.0201 0.0697,-0.0359 0.14891,-0.0653 0.21573,-0.11136 0.0611,-0.0418 0.1071,-0.11375 0.15458,-0.17044 -0.064,0.0762 -0.12865,0.15461 -0.19342,0.23081 -0.0409,0.048 -0.0639,0.1 -0.0928,0.1559 -0.0495,0.0965 -0.097,0.2021 -0.12295,0.30848 -0.0127,0.0583 -0.0187,0.11651 -0.031,0.17412 -0.0106,0.0466 -0.006,0.094 -0.0138,0.1408 -0.0102,0.0676 -0.0286,0.13455 -0.0446,0.19915 -0.0145,0.0596 -0.0215,0.11007 -0.0279,0.16823 -0.007,0.0633 -0.0311,0.12664 -0.044,0.18922 -0.009,0.0466 -0.018,0.0876 -0.018,0.13583 0,0.0423 0.018,0.0883 0.004,0.12939 -0.0215,0.0589 -0.0725,0.12148 -0.11356,0.17118 -0.0582,0.0703 -0.0648,0.13086 -0.0784,0.21571 -0.007,0.0445 -0.0258,0.0611 -0.0517,0.0955 -0.0325,0.0418 -0.0403,0.0913 -0.0438,0.14227 -0.005,0.0576 0,0.12019 -0.008,0.17633 -0.005,0.0344 -0.0303,0.0747 -0.0447,0.10491 -0.0215,0.0423 -0.0545,0.0525 -0.0926,0.0791 -0.0576,0.0401 -0.0626,0.0661 -0.0885,0.12571 -0.018,0.0425 -0.0475,0.0819 -0.072,0.12148 -0.0243,0.0433 -0.0675,0.067 -0.10492,0.0999 -0.0495,0.0433 -0.10562,0.0827 -0.16528,0.11007 -0.0784,0.0339 -0.13656,0.0777 -0.20556,0.12645 -0.0908,0.0648 -0.16623,0.12589 -0.24021,0.21001 -0.0453,0.0532 -0.11797,0.10933 -0.18129,0.13878 -0.0582,0.0265 -0.12001,0.0641 -0.18404,0.0777 -0.0488,0.01 -0.0926,0.0136 -0.14228,0.0295 -0.0423,0.0129 -0.0762,0.0359 -0.11874,0.0475 -0.0314,0.009 -0.0453,0.002 -0.0775,0.001 -0.0243,-7e-4 -0.0591,0.0129 -0.0828,0.004 -0.0229,-0.009 -0.0401,-0.0525 -0.0618,-0.0173 -0.0236,0.0425 0.0455,0.10583 0.031,0.14595 0.0727,0.0374 0.15973,0.0482 0.24017,0.0532 0.0539,0.003 0.0856,-0.0107 0.13585,-0.0258 0.0447,-0.0144 0.087,-0.0195 0.12884,-0.041 0.0487,-0.0245 0.0883,-0.0411 0.14005,-0.0567 0.12442,-0.0388 0.23523,-0.0972 0.34159,-0.17118 0.0863,-0.0611 0.1905,-0.0893 0.27757,-0.14963 0.10492,-0.071 0.20486,-0.15517 0.28402,-0.25438 0.0524,-0.0648 0.11853,-0.11503 0.17244,-0.18055 0.0339,-0.0388 0.0668,-0.0784 0.0999,-0.11854 0.0166,-0.0188 0.0475,-0.0447 0.0569,-0.069 0.008,-0.0217 0,-0.0433 0.0138,-0.067 0.0293,-0.0517 0.0827,-0.0985 0.12223,-0.14375 0.0502,-0.0618 0.12443,-0.11798 0.10785,-0.20485 -0.005,-0.023 -0.0187,-0.0223 -0.0243,-0.0569 -0.006,-0.0416 -0.004,-0.0999 0.0116,-0.13731 0.0222,-0.0618 0.0611,-0.11577 0.0891,-0.17467 0.0138,-0.0274 0.0194,-0.0561 0.0293,-0.0841 0.0201,-0.0517 0.0576,-0.0928 0.0806,-0.14246 0.0243,-0.0503 0.0495,-0.10786 0.069,-0.15958 0.012,-0.0324 0.0127,-0.0747 0.0127,-0.10859 0,-0.069 -0.0109,-0.14522 0,-0.21424 0.0187,-0.10713 0.0145,-0.18259 -0.0325,-0.2818 -0.0166,-0.0351 -0.0272,-0.0497 -0.0257,-0.0883 0,-0.0388 0.005,-0.0526 0.018,-0.0907 0.0152,-0.0431 0.031,-0.0812 0.049,-0.12221 0.0366,-0.0869 0.0574,-0.17099 0.0769,-0.26376 0.01,-0.0554 0.0293,-0.10289 0.0453,-0.15755 0.0138,-0.046 0.01,-0.0683 0.0328,-0.10639 0.0482,-0.0762 0.0871,-0.16252 0.13159,-0.24019 0.0208,-0.0381 0.0374,-0.0755 0.0396,-0.11927 0,-0.0165 0,-0.0359 -0.004,-0.0525 0,-0.0129 -0.008,-0.018 -0.006,-0.0331 0.004,-0.0201 0.0229,-0.0258 0.0537,-0.0431"
       style="fill:#21201d;fill-opacity:1;fill-rule:nonzero;stroke:none;stroke-width:0.184057"
       id="path624" />
  </g>
</svg>
