<?xml version="1.0" encoding="UTF-8" standalone="no"?>
<!-- Created with Inkscape (http://www.inkscape.org/) -->

<svg
   width="8.2682409mm"
   height="6.1953588mm"
   viewBox="0 0 8.2682409 6.1953588"
   version="1.1"
   id="svg3336"
   inkscape:version="1.1.2 (0a00cf5339, 2022-02-04)"
   sodipodi:docname="z2.svg"
   xmlns:inkscape="http://www.inkscape.org/namespaces/inkscape"
   xmlns:sodipodi="http://sodipodi.sourceforge.net/DTD/sodipodi-0.dtd"
   xmlns="http://www.w3.org/2000/svg"
   xmlns:svg="http://www.w3.org/2000/svg">
  <sodipodi:namedview
     id="namedview3338"
     pagecolor="#ffffff"
     bordercolor="#666666"
     borderopacity="1.0"
     inkscape:pageshadow="2"
     inkscape:pageopacity="0.0"
     inkscape:pagecheckerboard="0"
     inkscape:document-units="mm"
     showgrid="false"
     inkscape:zoom="0.64052329"
     inkscape:cx="35.90814"
     inkscape:cy="709.57607"
     inkscape:window-width="2560"
     inkscape:window-height="1376"
     inkscape:window-x="0"
     inkscape:window-y="0"
     inkscape:window-maximized="1"
     inkscape:current-layer="layer1" />
  <defs
     id="defs3333" />
  <g
     inkscape:label="Layer 1"
     inkscape:groupmode="layer"
     id="layer1"
     transform="translate(-95.417086,39.448267)">
    <path
       d="m 97.805136,-33.373405 c 0.01023,-0.01933 0.0071,-0.0324 0.0078,-0.05669 0.0035,-0.01233 0.0035,-0.02448 -0.0035,-0.0346 -0.0035,-0.0015 -0.0056,-0.0029 -0.0085,-0.0042 -0.0071,-0.0037 -0.01094,-0.01013 -0.01094,-0.01804 -0.0035,-0.01657 0,-0.0346 0.0042,-0.05098 0.0067,-0.02816 0.01658,-0.07344 0.02822,-0.09994 0.0042,-0.01086 0.0095,-0.0138 0.0099,-0.02595 -0.01552,-0.01288 -0.02928,-0.02871 -0.03941,-0.04896 -0.01658,-0.0243 -0.03316,-0.04804 -0.04897,-0.07326 -0.02434,-0.02153 -0.03736,-0.04969 -0.0381,-0.08117 0.01094,-0.03755 0.02081,-0.07491 0.02858,-0.112276 0.0035,-0.01215 0.01376,-0.03515 0.01517,-0.04877 0.0053,-0.05908 0.02011,-0.116509 0.02858,-0.175591 0.0035,-0.03018 0.01164,-0.08191 -0.0042,-0.110619 -0.01517,-0.02816 -0.04452,-0.03589 -0.06184,-0.06332 -0.08558,-0.138044 -0.01517,-0.29983 -0.0042,-0.447261 0.0056,-0.07252 0,-0.147982 0,-0.221421 0,-0.06829 -0.01235,-0.118534 -0.02893,-0.185531 -0.02011,-0.07896 -0.03457,-0.154424 -0.03457,-0.237251 0,-0.102704 0.0035,-0.192524 0.03175,-0.294676 0.02222,-0.07915 0.05172,-0.158842 0.03662,-0.241668 -0.0035,-0.01712 -0.01094,-0.03663 -0.01376,-0.05467 -0.01094,-0.07822 -0.0035,-0.163811 -0.0035,-0.242956 0,-0.03442 0,-0.06829 0,-0.102152 0,-0.02153 -0.0056,-0.03442 -0.01446,-0.05319 -0.0071,-0.01785 -0.0071,-0.03442 -0.0071,-0.05743 0,-0.08338 0,-0.166756 0.0071,-0.249582 -0.03175,-0.01067 -0.05391,0.01509 -0.05888,-0.03019 -0.0088,-0.08338 0.0092,-0.14651 0.03104,-0.225655 0.01058,-0.03663 0.02646,-0.0762 0.0321,-0.1143 0,-0.01509 0.0035,-0.02227 0.0071,-0.0381 0.01023,-0.03166 0.01729,-0.04749 -0.0063,-0.07417 -0.06608,-0.07546 -0.155893,-0.118534 -0.219216,-0.199151 0.0254,-0.01362 0.05891,-0.0057 0.08043,-0.02503 0,-0.01509 0.0071,-0.02816 0.0194,-0.03755 0.0194,-0.01712 0.03387,-0.0381 0.0453,-0.06313 0.0035,-0.01804 0,-0.04031 0.0035,-0.05964 0.0035,-0.01951 0.01129,-0.02816 -0.0035,-0.04178 0.01729,-0.0087 0.03588,-0.01012 0.0532,-0.01509 -0.0035,-0.01583 -0.01129,-0.02798 -0.02293,-0.0381 -0.0194,-0.02595 -0.03246,-0.05466 -0.03955,-0.08706 -0.0095,-0.05466 0,-0.118533 0,-0.175407 0,-0.04749 -0.0035,-0.09276 0.006,-0.138779 0.0049,-0.02577 0.01517,-0.05025 0.01517,-0.07767 0,-0.0265 -0.0035,-0.04528 0.01129,-0.06976 0.02858,-0.05246 0.0762,-0.08485 0.09497,-0.145221 0.01693,-0.05669 0.02152,-0.106386 0.0035,-0.16234 -0.0063,-0.02245 -0.01058,-0.03957 -0.01587,-0.06056 -0.0063,-0.03019 -0.0056,-0.0589 -0.01129,-0.08835 -0.0071,-0.04602 -0.04177,-0.04602 -0.06403,-0.08062 -0.01129,-0.01712 -0.01129,-0.02503 -0.0049,-0.04602 0.0071,-0.02871 0.0088,-0.02797 0.0071,-0.06534 0,-0.06111 0.01305,-0.115036 0.01094,-0.175407 0,-0.06258 -0.02258,-0.121478 -0.02963,-0.184058 0,-0.01804 0.0035,-0.02945 -0.0078,-0.03736 0.04325,-0.03313 0.09571,-0.05964 0.145944,-0.08209 0.0085,0.01657 0.01517,0.01454 0.03034,0.01454 0.05263,0.0028 0.106574,0.0035 0.146685,0.04381 0.04103,0.04086 0.11945,0.02577 0.172649,0.02522 0.03662,0 0.08262,0.0057 0.118534,-0.0086 0.03736,-0.01509 0.07122,-0.04399 0.107103,-0.06184 0.11303,-0.05467 0.228812,-0.01583 0.345122,-0.02025 0.08558,-0.0042 0.183304,-0.03736 0.269628,-0.02374 0.01376,0.0022 0.02858,0.0094 0.04325,0.01233 0.07031,0.01362 0.140829,0.01362 0.212055,0.0042 0.06607,-0.0087 0.133632,-0.01859 0.199884,-0.02577 0.05024,-0.0052 0.0187,-0.0072 0.03588,0 0.04748,0.01859 0.07916,0.04878 0.133068,0.04528 0.04307,-0.0037 0.08117,-0.01509 0.122943,-0.01013 0.155363,0.0173 0.312005,0.01013 0.468075,-0.0015 0.0661,-0.005 0.11578,0.0015 0.18037,-0.0015 0.0517,-0.0028 0.10434,-0.02356 0.14964,7.41e-4 0.0408,0.02172 0.0977,0.02172 0.14227,0.02301 0.0569,0.0015 0.1143,-7.41e-4 0.17117,-7.41e-4 0.0339,0 0.0791,-0.0072 0.11282,7.41e-4 -0.0159,0.0289 -0.0318,0.05908 -0.0487,0.08559 0.0574,-0.0094 0.115,-0.0079 0.17244,-0.0072 0.0208,0 0.0403,-7.4e-4 0.0611,-7.4e-4 0.0569,-0.0022 0.1136,-0.0015 0.17047,0.0022 0.0208,0.01583 0.0138,0.02153 0.0438,0.0324 0.0243,0.0092 0.0834,0.0035 0.0943,0.03368 -0.0426,0.06405 -0.0972,0.118717 -0.11726,0.197126 -0.0131,0.04877 -0.0279,0.097 -0.0279,0.147982 0,0.06258 0.0113,0.122951 0.0113,0.185531 0,0.04822 -0.004,0.09571 0,0.143013 0.005,0.06552 0.0109,0.12884 0.0303,0.189947 0.0159,0.05393 0.0374,0.123688 0.0418,0.180377 0.004,0.0324 -0.004,0.06626 0,0.09921 0.004,0.02374 0.008,0.04601 0.008,0.06976 0,0.04104 -0.006,0.09056 -0.004,0.132337 0.005,0.05172 0.0286,0.09921 0.0396,0.149455 0.008,0.03608 0.006,0.06405 -0.007,0.09866 -0.0106,0.02871 -0.0208,0.05098 -0.0113,0.08264 0.0145,0.04804 0.0359,0.09626 0.049,0.145958 0.012,0.04675 0.004,0.09626 0.0145,0.143013 0.0106,0.04749 0.0106,0.08485 0.01,0.134547 0,0.10344 0.007,0.208353 0,0.312714 -0.008,0.097 -0.0431,0.207801 -0.004,0.301855 0.0187,0.04546 0.0268,0.09497 0.01,0.141724 -0.0166,0.04528 -0.0418,0.08632 -0.0446,0.136572 -0.004,0.05098 0.0194,0.0727 0.0394,0.115036 0.0145,0.03092 0.0116,0.06037 0.0123,0.0935 0,0.0554 -0.006,0.122214 0,0.178352 0.004,0.01859 0.0127,0.03221 0.0166,0.04804 0.0113,0.04601 0.004,0.09921 0.004,0.147431 0,0.0762 0,0.154608 0,0.230808 0,0.04381 -0.0106,0.116509 0.005,0.157554 0.005,0.01436 0.0194,0.0208 0.0251,0.03736 0.005,0.01436 0.004,0.0416 0,0.05246 0,0.03957 0,0.07767 0,0.117245 0,0.02724 0.007,0.05172 0.0102,0.07823 0.004,0.03736 -0.004,0.0762 0,0.113747 0.004,0.0381 -0.006,0.05964 -0.031,0.09203 -0.0109,0.01215 -0.0325,0.03663 -0.0359,0.05522 -0.0109,0.04528 0.0342,0.145958 0.0532,0.182769 0.0159,0.03295 0.0138,0.04528 0.0138,0.08467 0,0.07123 0,0.141725 0,0.212955 0,0.101968 0.0332,0.201175 0.031,0.304064 0,0.02448 0.004,0.05025 0,0.07326 -0.0102,0.0519 -0.0445,0.100679 -0.0497,0.154608 0,0.0173 0.007,0.0324 0.005,0.04822 0,0.01657 -0.007,0.03092 -0.0117,0.04675 -0.008,0.03092 0,0.04896 0.004,0.08043 0.004,0.02025 0.004,0.04105 0.004,0.06111 0,0.0079 -0.004,0.02245 0,0.03037 0.004,0.0092 0.008,0.0092 0.0113,0.02006 0,0.005 -0.004,0.01141 0,0.0173 0.004,0.0072 0.007,0.01436 0.008,0.02006 0.01,0.03589 0.004,0.08191 0.004,0.120743 -0.0145,-0.02724 -0.0318,-0.05099 -0.0532,-0.06902 -0.0318,-0.02448 -0.0604,-0.04012 -0.0713,-0.08485 -0.004,-0.01638 -0.007,-0.02006 -0.0116,-0.03295 -0.0215,-0.08338 -0.0366,-0.177616 -0.0303,-0.265412 0.004,-0.03589 0.0361,-0.08485 0.0187,-0.120742 -0.0318,-0.0022 -0.0626,7.41e-4 -0.0942,-7.4e-4 0.008,-0.09497 0.0222,-0.187003 0.0229,-0.282529 0,-0.01657 0.004,-0.0381 -0.004,-0.05393 -0.004,-0.0042 -0.006,-0.0087 -0.008,-0.01288 -0.0109,-0.0066 -0.0131,-0.01657 -0.0102,-0.0289 0,-0.02871 -0.004,-0.05595 -0.0138,-0.08191 -0.007,-0.02945 -0.0194,-0.05614 -0.0353,-0.08043 -0.0145,-0.03313 -0.0166,-0.05614 -0.0131,-0.09074 0.005,-0.05448 0.01,-0.104914 0.01,-0.160315 0,-0.05522 -0.004,-0.110619 0.005,-0.16602 0.004,-0.01933 0.004,-0.04031 0.007,-0.05964 0.005,-0.01013 0.007,-0.02025 0.0116,-0.03019 0.008,-0.02669 0,-0.04399 -0.0254,-0.05191 -0.0374,-0.02503 -0.0517,-0.06313 -0.0431,-0.1143 l 0.004,-0.102704 c 0,0.002 0.0109,-0.122214 -0.0229,-0.1143 0.0539,-0.05319 0.11722,-0.08559 0.16326,-0.151112 -0.0194,-0.01657 -0.0346,-0.01215 -0.0418,-0.04012 -0.0131,-0.04896 -0.012,-0.09994 -0.0272,-0.148167 -0.0159,-0.04822 -0.0303,-0.09921 -0.0467,-0.146694 -0.0236,-0.06681 -0.0589,-0.125895 -0.072,-0.197678 -0.0166,-0.09424 -0.0258,-0.192709 0,-0.284002 0.0173,-0.05614 0.005,-0.130128 0.005,-0.189027 0,-0.0138 0.0106,-0.105833 -0.007,-0.112275 -0.0159,-0.08908 -0.0123,-0.181113 -0.0254,-0.268909 -0.004,-0.02724 -0.0173,-0.05172 -0.0201,-0.08043 -0.004,-0.02374 0,-0.04896 0,-0.0727 0,-0.04104 -0.0113,-0.09056 0.0116,-0.125159 0.0243,-0.0381 0.0618,-0.07896 0.0718,-0.125712 0.004,-0.02669 0,-0.05835 -0.0131,-0.08135 -0.0187,-0.03589 -0.0346,-0.05246 -0.0411,-0.09203 -0.005,-0.02798 -0.009,-0.05172 -0.009,-0.08117 0,-0.02448 0.008,-0.05743 0.004,-0.08043 -0.006,-0.0116 -0.012,-0.02374 -0.0187,-0.03608 l -0.046,-0.08485 c -0.0187,-0.04086 -0.0318,-0.0797 -0.0339,-0.123686 -0.004,-0.0473 -0.01,-0.09479 -0.0102,-0.143013 0,-0.03019 -0.004,-0.06111 0.005,-0.09056 0.01,-0.04104 0.0303,-0.07694 0.0359,-0.120006 0.005,-0.03681 0.006,-0.07767 -0.004,-0.113011 -0.01,-0.04013 -0.0318,-0.07399 -0.0366,-0.115036 -0.004,-0.01215 0,-0.02448 -0.004,-0.03589 -0.0152,-0.0819 -0.0705,-0.149639 -0.0985,-0.225102 -0.018,-0.04804 -0.0258,-0.09847 -0.0353,-0.149455 -0.004,-0.01951 -0.013,-0.04675 -0.0109,-0.06755 0.004,-0.03608 0.0366,-0.0762 0.0525,-0.107122 -0.0243,-0.0346 -0.0762,-0.06258 -0.1143,-0.0762 -0.0159,-0.0059 -0.0279,-0.0022 -0.0438,-0.0059 -0.0201,-0.0042 -0.031,-0.02153 -0.0525,-0.02374 -0.0403,-0.0042 -0.0927,-0.0064 -0.1294,0.01233 -0.031,0.01436 -0.0497,0.04233 -0.0841,0.03736 -0.0251,-0.0044 -0.0433,-0.01362 -0.069,-0.01362 -0.0243,0 -0.0468,0.0072 -0.0705,0.0086 -0.0332,0.0028 -0.0596,-0.01583 -0.0906,-0.02098 -0.0561,-0.0099 -0.10784,0.01657 -0.15974,-0.01583 -0.0401,-0.02577 -0.0696,-0.06258 -0.119268,-0.05246 -0.01658,0.0029 -0.03387,0.0079 -0.05024,0.01012 -0.02752,0.005 -0.05119,0.01933 -0.07916,0.02374 -0.02787,0.0042 -0.05687,0.01215 -0.08632,0.01141 -0.0611,-7.41e-4 -0.122943,-0.0057 -0.183304,0.0079 -0.03528,0.0079 -0.06608,0.02945 -0.102905,0.03534 -0.06533,0.01067 -0.135819,0.01288 -0.202635,0.01288 h -0.176883 c -0.05394,0.02006 -0.09571,0.02724 -0.148167,0.01583 -0.0381,-0.0064 -0.07694,0.01215 -0.1143,0.0042 -0.01376,-0.0057 -0.02646,-0.01141 -0.04029,-0.01583 -0.05599,-0.0064 -0.111372,-0.0085 -0.166758,-0.005 -0.05966,0.0015 -0.09701,0.0044 -0.153141,-0.02006 -0.03528,-0.01583 -0.09994,-0.06258 -0.13656,-0.05761 -0.0035,0.0029 -0.0063,0.0057 -0.0095,0.0079 -0.0095,0.0037 -0.02011,0.0044 -0.02928,0.0029 -0.0194,0.002 -0.01799,0.0035 -0.03736,0.01583 -0.02752,0.01712 -0.05246,0.02374 -0.08266,0.02945 -0.02364,0.005 -0.04897,0.01436 -0.0683,0.02006 -0.02611,0.0059 -0.05906,0.0059 -0.08135,-0.0094 -0.02081,-0.01288 -0.02223,-0.0265 -0.05172,-0.02301 -0.0194,0.0037 -0.03387,0.01454 -0.05098,0.02522 0,0.02743 0.01199,0.06332 0.02011,0.08927 0.0071,0.02301 0.0078,0.03865 0.0095,0.0624 0.0035,0.04178 0.02787,0.08135 0.0381,0.121662 0.01058,0.04657 0,0.09774 0.0099,0.142277 0.0078,0.03884 0,0.05816 -0.01058,0.09497 -0.0095,0.02798 -0.0071,0.0624 -0.01094,0.09332 -0.0042,0.04546 0,0.09276 -0.0035,0.137492 -0.0053,0.03589 -0.02293,0.06166 -0.02222,0.101231 0,0.07123 0,0.140989 0.01058,0.210747 0.0039,0.02522 0.01305,0.04675 0.01799,0.07049 0.0049,0.02375 0.0042,0.04951 0.0088,0.07252 0.0035,0.01657 0.0095,0.03387 0.0042,0.05117 -0.0056,0.0208 -0.05246,0.06166 -0.06389,0.07749 -0.0085,0.01086 -0.01729,0.02246 -0.02011,0.03608 -0.0078,0.03166 0,0.08043 0,0.112091 v 0.145222 c 0,0.02797 0.0088,0.0762 -0.0056,0.100679 0.01129,0.01436 0.02434,0.02871 0.02716,0.04822 0,0.02945 0,0.0589 0.0035,0.08835 0.0035,0.05908 0.0064,0.117245 0.0095,0.175407 0.0063,0.06479 0.02716,0.129393 0.03104,0.194181 0,0.01013 0,0.02522 0,0.03516 -0.0085,0.04675 -0.03609,0.09276 -0.04674,0.140252 -0.0071,0.0346 -0.0088,0.06332 -0.0064,0.09571 0,0.02153 0.0049,0.04012 0.0078,0.06258 0.0085,0.06111 0.0035,0.128657 0.0035,0.191237 0,0.07031 0,0.109146 0.01799,0.176879 0.01094,0.03865 0.01517,0.03939 0.01094,0.07325 -0.0074,0.06755 -0.0187,0.127184 -0.0187,0.19547 0,0.06552 0.0035,0.128841 0.0078,0.193445 0.0035,0.03387 0.0035,0.06755 0.0035,0.102152 0,0.0589 -0.02963,0.107122 -0.04674,0.163259 -0.0194,0.06313 -0.04822,0.135099 -0.04674,0.201912 0,0.07049 -0.01164,0.141724 -0.01094,0.212218 0,0.118534 0.0085,0.235779 0.03105,0.352288 0.01023,0.05466 0.03245,0.110618 0.03245,0.167492 0,0.02797 0.0035,0.05246 0.0071,0.0797 0.0035,0.01877 0.0049,0.03957 0,0.05761 -0.0063,0.02448 -0.02611,0.04307 -0.03034,0.06976 0,0.0094 0,0.02798 0,0.03663 0,0.08779 0,0.174671 -0.0088,0.26173 -0.0035,0.02724 0,0.05025 0,0.07694 0,0.07546 -0.03104,0.151664 -0.05539,0.21995 -0.01729,0.04675 -0.0194,0.05043 -0.0194,0.08779 0,0.03884 0,0.07841 0,0.117797 0,0.0094 0,0.02172 0,0.03092 0.0035,0.01583 0.0085,0.02595 0.01058,0.04104 0.0042,0.02374 0,0.101416 -0.02787,0.104913 -0.0063,-0.01933 -0.01517,-0.04086 -0.02152,-0.06111 -0.0085,-0.02798 0,-0.0381 0.01058,-0.05964"
       style="fill:#21201d;fill-opacity:1;fill-rule:evenodd;stroke:none;stroke-width:0.184057"
       id="path616" />
    <path
       d="m 101.73215,-37.103522 c -0.01,-0.04528 0.0243,-0.06884 0.0576,-0.09203 0.0145,-0.01067 0.0222,-0.02577 0.0394,-0.03221 0.0159,-0.0052 0.0303,-0.0064 0.046,-0.01583 0.0361,-0.02025 0.0361,-0.02448 0.0742,-0.02025 0.0208,0.0015 0.0395,0.0087 0.0589,0.0116 0.0208,0.0042 0.0366,0 0.0554,-0.0116 0.006,-0.005 0.0102,-0.01067 0.0138,-0.01712 0.007,-0.0015 0.0145,-0.0029 0.0215,-0.0037 0.11229,-0.03884 0.21368,0.04454 0.31288,0.07694 0.0409,0.01288 0.0711,0.02227 0.10125,0.05043 0.0303,0.0265 0.0662,0.04877 0.0979,0.07546 0.0303,0.0243 0.0552,0.04013 0.0624,0.07694 0.005,0.02374 0,0.04675 0.005,0.07105 0.0208,0.01086 0.0611,-0.02798 0.0834,-0.03368 0.0215,0.0324 0.0732,0.0416 0.0985,0.06976 0.0116,0.01436 0.005,0.0208 0.0254,0.03092 0.0431,0.02006 0.0935,0.03368 0.13952,0.0473 0.0401,0.0138 0.0747,0.03755 0.11575,0.04896 0.0631,0.01804 0.15095,0.02945 0.21628,0.01362 0.0201,-0.0035 0.0388,-0.01436 0.0569,-0.0208 0.0187,-0.0064 0.0113,0.0022 0.0318,-0.0094 0.0265,-0.01509 0.0396,-0.02651 0.0539,-0.05172 0.0208,-0.04031 0.0229,-0.08264 0.0374,-0.125159 0.018,-0.05172 0.0145,-0.1143 0.0113,-0.168229 -0.004,-0.07105 -0.0847,-0.06755 -0.14083,-0.0935 -0.0215,-0.0099 -0.0396,-0.02153 -0.0525,-0.03939 -0.0116,-0.01804 -0.0102,-0.02448 -0.0282,-0.03884 -0.006,-0.0052 -0.0145,-0.0087 -0.0201,-0.0138 0.0332,0.0015 0.0668,-0.002 0.0992,0.0022 0.0619,0.0072 0.14302,0.01657 0.17615,0.0705 0.0381,0.06405 0.0467,0.138043 0.0727,0.208537 0.0106,0.02871 0.0265,0.05816 0.0286,0.08908 0.004,0.02227 0,0.04675 0,0.06976 0,0.06976 -0.004,0.128656 -0.0332,0.19418 -0.0166,0.03368 -0.0776,0.09203 -0.12072,0.09994 -0.0619,0.0099 -0.1294,0.0094 -0.19347,0.0094 -0.0127,0 -0.0324,0.0035 -0.046,5.65e-4 -0.0229,-0.0057 -0.0416,-0.02301 -0.0653,-0.03018 -0.0547,-0.01638 -0.1064,-0.02301 -0.16031,-0.03515 -0.0655,-0.01436 -0.13529,-0.01657 -0.2021,-0.03092 -0.0201,-0.0042 -0.0374,-0.0094 -0.0561,-0.0173 -0.0353,-0.01215 -0.0401,-0.01933 -0.0661,-0.04233 -0.0222,-0.01951 -0.0482,-0.02098 -0.0784,-0.02301 -0.041,-0.0044 -0.0495,-0.01878 -0.0863,-0.03884 -0.0416,-0.02301 -0.0473,-0.06111 -0.0854,-0.08982 -0.0648,-0.04896 -0.13233,-0.07049 -0.21001,-0.08632 -0.0655,-0.01436 -0.12866,-0.02025 -0.18697,-0.05466 -0.0286,-0.01804 -0.0567,-0.04307 -0.0963,-0.03663 -0.0131,0.002 -0.018,0.0099 -0.0296,0.01215 -0.0131,0.0029 -0.031,-7.41e-4 -0.044,-7.41e-4 h -0.092 c -0.0401,0 -0.0596,0.0057 -0.0955,0.01877 -0.0117,-0.03607 -0.0268,-0.05964 -0.004,-0.07491"
       style="fill:#21201d;fill-opacity:1;fill-rule:nonzero;stroke:none;stroke-width:0.184057"
       id="path618" />
    <path
       d="m 103.31965,-35.849535 c -0.007,-0.02871 -0.004,-0.0381 -0.005,-0.06608 0,-0.02025 -0.006,-0.02669 -0.0187,-0.04472 -0.0236,-0.03295 -0.0318,-0.06608 -0.0403,-0.10565 -0.006,-0.02724 -0.0173,-0.03515 -0.0416,-0.05172 -0.008,-0.005 -0.0173,-0.0087 -0.0279,-0.01288 0.006,0.0028 0.009,0.0057 0.0106,0.0079 0.008,0.0086 0.0173,0.0381 0.0194,0.04951 0.009,0.04454 -0.01,0.08706 -0.0131,0.130865 0,0.01951 -0.006,0.03589 -0.0145,0.05466 -0.008,0.01804 -0.004,0.03736 -0.012,0.05466 -0.006,0.01509 -0.0303,0.03442 -0.0446,0.04307 -0.0201,0.01307 -0.0433,0.03018 -0.0655,0.04104 -0.0286,0.01362 -0.0567,0.0094 -0.0876,0.0087 -0.0539,-7.41e-4 -0.10784,-7.41e-4 -0.16178,0 -0.0236,0 -0.0303,-0.0037 -0.0504,-0.0116 -0.0243,-0.01067 -0.0547,-0.0057 -0.0777,-0.01785 -0.0162,-0.0086 -0.031,-0.02669 -0.0359,-0.04325 -0.0138,-0.03957 0.004,-0.06976 -0.0359,-0.09994 -0.0173,-0.01362 -0.0318,-0.02503 -0.0525,-0.03589 -0.0275,-0.01435 -0.0835,-0.01288 -0.0878,-0.04896 -0.0324,0 -0.0574,-0.06258 -0.0582,-0.08761 0,-0.02301 -0.004,-0.0346 -0.0131,-0.05393 -0.008,-0.01362 -0.0173,-0.02669 -0.0243,-0.04104 -0.006,-0.0094 -0.006,-0.03092 -0.012,-0.03957 -0.004,-0.0057 0,-0.01141 -0.005,-0.01657 -0.025,-0.01067 -0.0497,-0.02227 -0.0727,-0.03589 -0.0339,-0.0173 -0.0661,-0.03663 -0.0955,-0.05964 -0.0102,-0.0086 -0.0173,-0.0208 -0.0303,-0.02669 -0.0236,-0.01067 -0.11945,-0.01712 -0.12735,-0.01785 -0.0388,-0.0059 -0.18553,-0.05246 -0.17174,0.02798 0.0159,0.02227 -0.0282,0.02945 -0.0433,0.03313 -0.0318,0.0072 -0.0324,0.0028 -0.0475,0.0381 -0.0113,0.02724 -0.0131,0.06902 -0.008,0.09921 0.005,0.02522 0.0194,0.04086 0.0447,0.0554 0.0169,0.0092 0.0374,0.0099 0.0547,0.01785 0.012,0.0072 0.0162,0.01804 0.0272,0.02448 0.006,0.0029 0.0138,0.0037 0.0215,0.0037 0.0396,-0.0094 0.0827,-0.0087 0.12665,0.0064 0.0762,0.02577 0.13084,0.08191 0.17099,0.147431 0.01,0.005 0.0187,0.0079 0.0282,0.01288 0.0639,0.0324 0.11928,0.108594 0.14006,0.171726 0.0243,0.07491 0.10142,0.102889 0.17046,0.141725 0.0222,0.01288 0.0425,0.02871 0.069,0.0346 0.0604,0.01141 0.12866,0.005 0.19124,0.01067 0.0318,0.0029 0.0388,0.005 0.0626,-0.01067 0.0215,-0.01528 0.041,-0.0289 0.0668,-0.03681 0.0145,-0.0042 0.0374,-0.0064 0.0475,-0.01859 0.0591,0.01859 0.1445,0.08043 0.2056,0.04877 0.0208,-0.01141 0.0433,-0.02577 0.0633,-0.04233 0.0411,-0.03387 0.0777,-0.04602 0.0807,-0.09774 0.004,-0.0497 -0.008,-0.0935 -0.0194,-0.140988"
       style="fill:#21201d;fill-opacity:1;fill-rule:nonzero;stroke:none;stroke-width:0.184057"
       id="path620" />
    <path
       d="m 102.70564,-34.801326 c -0.008,-0.01657 -0.006,-0.03019 -0.0159,-0.04675 -0.0106,-0.01933 -0.0279,-0.03442 -0.0381,-0.05448 -0.006,-0.01233 -0.0113,-0.02522 -0.0222,-0.0346 0.0109,0.02153 0.0208,0.03018 0.0222,0.05761 0.004,0.03019 -0.004,0.05172 -0.013,0.0797 -0.0138,0.04031 -0.0353,0.08135 -0.0367,0.12295 0,0.02798 0.004,0.03092 -0.018,0.05043 -0.006,0.0064 -0.012,0.01288 -0.0187,0.01933 -0.0152,0.01288 -0.0229,0.01362 -0.0328,0.0094 -0.0261,0.04031 -0.0697,0.06902 -0.13158,0.06902 -0.12076,0 -0.17191,-0.106385 -0.15611,-0.198414 -0.0138,-0.03313 -0.007,-0.06332 -0.009,-0.09921 -0.004,-0.03387 -0.0138,-0.06847 -0.0346,-0.09645 -0.0145,-0.01933 -0.0339,-0.03736 -0.0497,-0.0554 -0.0152,-0.01712 -0.0187,-0.03368 -0.0293,-0.05319 -0.006,-0.01067 -0.0159,-0.02374 -0.0215,-0.03368 -0.0106,-0.0173 -0.0102,-0.01657 -0.0339,-0.02595 -0.0282,-0.01067 -0.072,-0.02871 -0.10217,-0.03092 -0.0152,-0.0015 -0.0784,0.0173 -0.0878,0.02522 -0.006,0.0057 -0.009,0.01436 -0.01,0.02301 -0.0368,0.0057 -0.0777,0.0064 -0.10142,0.03884 -0.0229,0.0324 -0.006,0.07546 0.0127,0.10933 0.0166,-7.4e-4 0.0325,5.65e-4 0.0475,0.0057 0.0804,0.02374 0.14598,0.0762 0.1826,0.151664 0.0152,0.03313 0.0243,0.06534 0.0325,0.09847 0.013,0.0094 0.0261,0.01951 0.0374,0.03166 0.0222,0.02153 0.0173,0.07399 0.0286,0.103625 0.018,0.05025 0.0453,0.07473 0.0871,0.106385 0.0254,0.01859 0.0502,0.03589 0.0784,0.05098 0.0403,0.02301 0.0776,0.02448 0.12442,0.02798 0.0985,0.0064 0.16454,0.0029 0.25086,-0.0381 0.0286,-0.01362 0.0339,-0.01362 0.0416,-0.03663 0.01,-0.02871 0.007,-0.06258 0.0123,-0.09203 0.006,-0.03515 0.0353,-0.05687 0.0366,-0.09626 0,-0.0381 0,-0.07841 0,-0.117245 0,-0.03589 -0.0187,-0.04178 -0.0332,-0.07197"
       style="fill:#21201d;fill-opacity:1;fill-rule:nonzero;stroke:none;stroke-width:0.184057"
       id="path622" />
    <path
       d="m 101.88896,-35.078885 v 0 c 0.004,-0.002 0,-5.64e-4 0,0"
       style="fill:#21201d;fill-opacity:1;fill-rule:nonzero;stroke:none;stroke-width:0.184057"
       id="path624" />
    <path
       d="m 97.370937,-37.034316 c 0.0081,-0.04602 -0.02434,-0.06921 -0.05761,-0.09203 -0.01517,-0.0116 -0.02293,-0.02595 -0.04011,-0.03166 -0.01587,-0.0059 -0.02963,-0.0079 -0.04604,-0.01657 -0.03531,-0.02025 -0.03531,-0.02448 -0.07415,-0.02025 -0.02081,0.0022 -0.03958,0.0079 -0.05817,0.0116 -0.02152,0.0042 -0.03662,0 -0.05539,-0.0116 -0.0063,-0.005 -0.01094,-0.01067 -0.01376,-0.01785 -0.0081,-0.0015 -0.01517,-0.0029 -0.02223,-0.0029 -0.112254,-0.03957 -0.213501,0.04454 -0.312702,0.0762 -0.04029,0.01307 -0.07049,0.02301 -0.101424,0.05043 -0.03034,0.02798 -0.06625,0.04951 -0.0979,0.0762 -0.02963,0.02374 -0.0545,0.04012 -0.06315,0.0762 -0.0046,0.02374 0,0.04749 -0.0035,0.07178 -0.02081,0.0116 -0.06184,-0.02797 -0.08414,-0.03368 -0.02081,0.03239 -0.07324,0.04086 -0.09772,0.06976 -0.01164,0.01362 -0.0049,0.02153 -0.0254,0.03092 -0.04307,0.02006 -0.09423,0.03295 -0.14023,0.0473 -0.04015,0.01307 -0.07475,0.03755 -0.115605,0.04896 -0.06332,0.01804 -0.151095,0.02945 -0.216429,0.01362 -0.02011,-0.0042 -0.03884,-0.01436 -0.05616,-0.0208 -0.0194,-0.0064 -0.01129,0.0022 -0.03246,-0.0094 -0.02646,-0.01509 -0.03958,-0.02651 -0.0532,-0.05172 -0.02152,-0.04104 -0.02364,-0.08264 -0.0381,-0.12516 -0.01799,-0.05098 -0.01376,-0.113564 -0.01129,-0.168229 0.0035,-0.07105 0.08558,-0.06829 0.141535,-0.09405 0.01588,-0.0066 0.02858,-0.01657 0.04103,-0.0289 -0.02364,-0.0072 -0.04526,-0.02006 -0.0611,-0.03736 -0.0056,-0.0057 -0.01023,-0.01215 -0.01446,-0.01859 -0.05464,0.0085 -0.113559,0.02227 -0.14097,0.06608 -0.0381,0.06479 -0.04674,0.138044 -0.07253,0.207802 -0.01094,0.02945 -0.02681,0.05816 -0.02893,0.08908 -0.0035,0.02301 0,0.04749 0,0.07123 0,0.06902 0.0035,0.12792 0.03387,0.192709 0.01588,0.03442 0.07694,0.09276 0.120015,0.10068 0.06184,0.0092 0.129363,0.0092 0.193428,0.0092 0.01305,0 0.03316,0.0037 0.046,0 0.02293,-0.005 0.04159,-0.02227 0.06533,-0.02945 0.05468,-0.01712 0.106398,-0.02301 0.160338,-0.03515 0.06625,-0.01435 0.135996,-0.0173 0.202812,-0.03092 0.0194,-0.0042 0.03662,-0.01012 0.05542,-0.0173 0.03588,-0.01288 0.04029,-0.01932 0.06608,-0.04233 0.02222,-0.01951 0.04822,-0.02098 0.07913,-0.02301 0.04032,-0.0044 0.04879,-0.01804 0.08558,-0.03957 0.04159,-0.02227 0.04805,-0.06037 0.08558,-0.08908 0.02081,-0.01527 0.04089,-0.02742 0.06167,-0.0381 0.01446,-0.02319 0.03316,-0.04325 0.05835,-0.05761 0.09056,-0.05098 0.19491,-0.06681 0.296898,-0.06681 0.0053,0 0.0085,0 0.01305,7.41e-4 0.0194,-0.0116 0.03884,-0.02025 0.06332,-0.01583 0.01305,0.002 0.0187,0.0099 0.03034,0.01215 0.01235,0.0029 0.03105,-7.41e-4 0.04325,-7.41e-4 h 0.09204 c 0.04085,0 0.05962,0.0057 0.09627,0.01877 0.01164,-0.03607 0.0261,-0.05964 0.0035,-0.07473"
       style="fill:#21201d;fill-opacity:1;fill-rule:nonzero;stroke:none;stroke-width:0.184057"
       id="path626" />
    <path
       d="m 97.235647,-36.279495 c 0.01376,-0.08117 -0.132856,-0.03387 -0.170956,-0.02798 -0.0088,7.41e-4 -0.103646,0.0072 -0.128129,0.01785 -0.01199,0.0059 -0.0194,0.01804 -0.02928,0.02669 -0.02928,0.02301 -0.06184,0.04233 -0.09624,0.0589 -0.02293,0.01362 -0.04748,0.02595 -0.07197,0.03663 -0.0035,0.0052 -0.0035,0.01086 -0.0056,0.01657 -0.0049,0.0086 -0.0056,0.02945 -0.01164,0.03957 -0.0078,0.01362 -0.01693,0.02743 -0.02434,0.04104 -0.01094,0.01859 -0.01235,0.03092 -0.01305,0.05393 0,0.02448 -0.02575,0.08761 -0.05888,0.08761 -0.0035,0.03607 -0.05966,0.0346 -0.08707,0.04896 -0.02152,0.01141 -0.03588,0.02227 -0.05394,0.03515 -0.0381,0.03092 -0.02152,0.06111 -0.03457,0.10068 -0.0056,0.01657 -0.0194,0.0346 -0.03665,0.04252 -0.02222,0.01215 -0.05316,0.0079 -0.07839,0.01785 -0.0187,0.0087 -0.02611,0.0116 -0.04971,0.0116 -0.05394,-7.41e-4 -0.107844,-7.41e-4 -0.160302,0 -0.0321,7.41e-4 -0.0611,0.005 -0.08908,-0.0079 -0.02152,-0.01013 -0.0453,-0.02743 -0.06555,-0.04104 -0.01376,-0.0094 -0.03736,-0.02798 -0.04452,-0.04381 -0.0071,-0.01657 -0.0042,-0.03589 -0.01129,-0.05319 -0.0078,-0.01951 -0.01446,-0.03534 -0.01517,-0.05614 -0.0035,-0.04381 -0.02081,-0.08559 -0.01305,-0.130129 0.0035,-0.01215 0.01235,-0.0416 0.0194,-0.05025 0.0071,-0.0064 0.05394,-0.0324 0.06332,-0.0324 -0.01799,0.01657 -0.05687,0.02301 -0.0799,0.0381 -0.02505,0.01657 -0.03588,0.02448 -0.04177,0.05098 -0.0092,0.03957 -0.01693,0.0727 -0.04011,0.105834 -0.01305,0.01785 -0.0187,0.02503 -0.0194,0.04528 -0.0035,0.02871 0.0035,0.03663 -0.0049,0.06534 -0.01199,0.04896 -0.02081,0.09129 -0.0187,0.140988 0.0035,0.05246 0.03881,0.06387 0.08061,0.09847 0.0194,0.01583 0.04159,0.03019 0.06332,0.0416 0.06036,0.0324 0.146685,-0.02871 0.205563,-0.04804 0.0088,0.01215 0.03316,0.01436 0.04678,0.01859 0.02505,0.0072 0.04674,0.02227 0.06752,0.03607 0.02364,0.01638 0.03105,0.01436 0.06184,0.01068 0.06258,-0.0057 0.13014,0.0015 0.191241,-0.01141 0.02646,-0.0052 0.04748,-0.02025 0.06978,-0.03313 0.069,-0.03884 0.145203,-0.06681 0.169686,-0.141725 0.02152,-0.06313 0.0762,-0.139332 0.140793,-0.171726 0.04748,-0.02448 0.09204,-0.03589 0.13455,-0.07123 0.046,-0.03884 0.08633,-0.09626 0.150918,-0.09847 0.01658,-7.41e-4 0.0453,0.0079 0.0611,-0.0015 0.01164,-0.0057 0.01517,-0.0173 0.02752,-0.02374 0.01693,-0.0087 0.03736,-0.0087 0.05447,-0.01859 0.0254,-0.01436 0.04032,-0.02945 0.04547,-0.0554 0.0042,-0.02945 0.0035,-0.07123 -0.0078,-0.09774 -0.01517,-0.03608 -0.01658,-0.0324 -0.04819,-0.03957 -0.01517,-0.0037 -0.05891,-0.01013 -0.04329,-0.0324"
       style="fill:#21201d;fill-opacity:1;fill-rule:nonzero;stroke:none;stroke-width:0.184057"
       id="path628" />
    <path
       d="m 97.214128,-35.009127 c 0,-0.0013 0,-0.0028 0,0 m 0.09423,0.151112 c 0.0063,-0.0037 0.01376,-0.0059 0.02081,-0.0079 0.01658,-0.03166 0.02963,-0.07049 0.0078,-0.09994 -0.02364,-0.03166 -0.06459,-0.03313 -0.101424,-0.03884 0,-0.0087 -0.0035,-0.0173 -0.0099,-0.02301 -0.0095,-0.0079 -0.07271,-0.02743 -0.08706,-0.02595 -0.03105,0.0022 -0.07472,0.02153 -0.102694,0.03166 -0.02364,0.0094 -0.02258,0.0086 -0.03387,0.02522 -0.0063,0.01067 -0.01517,0.02301 -0.02152,0.03442 -0.01094,0.01951 -0.01376,0.03608 -0.02963,0.05393 -0.01588,0.0173 -0.03457,0.03534 -0.04893,0.05467 -0.02081,0.02816 -0.03246,0.06258 -0.03457,0.09571 -0.0035,0.03884 0.0053,0.06976 -0.01199,0.105649 -0.01376,0.03092 -0.02152,0.02797 -0.05539,0.02724 -0.04159,-7.41e-4 -0.05024,0.0072 -0.07969,0.02816 -0.01517,0.01067 -0.02963,0.01712 -0.04748,0.02301 -0.03034,0.0079 -0.05098,0.02006 -0.07842,0.03295 -0.02716,0.0138 -0.03246,0.02448 -0.05743,0.0022 -0.006,-0.005 -0.01235,-0.01215 -0.0187,-0.01859 -0.0194,-0.01951 -0.01799,-0.02246 -0.01799,-0.05043 0,-0.0416 -0.02223,-0.08264 -0.03662,-0.122951 -0.0088,-0.02724 -0.01446,-0.04951 -0.01305,-0.08043 0.0035,-0.02669 0.01129,-0.0346 0.02293,-0.05687 -0.01164,0.0094 -0.01587,0.02227 -0.02223,0.03515 -0.01094,0.01951 -0.02752,0.03534 -0.0381,0.05338 -0.01023,0.01712 -0.0085,0.03019 -0.01658,0.0473 -0.01446,0.03019 -0.03246,0.03681 -0.03316,0.07197 0,0.03884 0,0.07915 0,0.117981 0,0.03884 0.03105,0.06037 0.03662,0.09553 0.006,0.02945 0.0035,0.06405 0.01305,0.09276 0.0071,0.02301 0.01199,0.02227 0.04159,0.03589 0.08558,0.04031 0.1524,0.04473 0.250331,0.0381 0.04657,-0.0028 0.08484,-0.0042 0.124989,-0.02724 0.02752,-0.01657 0.05316,-0.0324 0.07839,-0.05172 0.03245,-0.02522 0.05613,-0.04601 0.07327,-0.07767 0.02187,-0.179088 0.161044,-0.35155 0.325755,-0.421308"
       style="fill:#21201d;fill-opacity:1;fill-rule:nonzero;stroke:none;stroke-width:0.184057"
       id="path630" />
  </g>
</svg>
