<?xml version="1.0" encoding="UTF-8" standalone="no"?>
<!-- Created with Inkscape (http://www.inkscape.org/) -->

<svg
   width="7.2605019mm"
   height="7.2277694mm"
   viewBox="0 0 7.2605019 7.2277694"
   version="1.1"
   id="svg2591"
   inkscape:version="1.1.2 (0a00cf5339, 2022-02-04)"
   sodipodi:docname="z9.svg"
   xmlns:inkscape="http://www.inkscape.org/namespaces/inkscape"
   xmlns:sodipodi="http://sodipodi.sourceforge.net/DTD/sodipodi-0.dtd"
   xmlns="http://www.w3.org/2000/svg"
   xmlns:svg="http://www.w3.org/2000/svg">
  <sodipodi:namedview
     id="namedview2593"
     pagecolor="#ffffff"
     bordercolor="#666666"
     borderopacity="1.0"
     inkscape:pageshadow="2"
     inkscape:pageopacity="0.0"
     inkscape:pagecheckerboard="0"
     inkscape:document-units="mm"
     showgrid="false"
     inkscape:zoom="0.64052329"
     inkscape:cx="-1166.2339"
     inkscape:cy="380.15792"
     inkscape:window-width="2560"
     inkscape:window-height="1376"
     inkscape:window-x="0"
     inkscape:window-y="0"
     inkscape:window-maximized="1"
     inkscape:current-layer="layer1" />
  <defs
     id="defs2588" />
  <g
     inkscape:label="Layer 1"
     inkscape:groupmode="layer"
     id="layer1"
     transform="translate(-413.57414,-48.020501)">
    <path
       d="m 415.48466,53.385605 c -0.0136,0.01362 -0.0272,0.02798 -0.0331,0.04381 0.0116,-0.01362 0.0217,-0.02872 0.0331,-0.04381"
       style="fill:#21201d;fill-opacity:1;fill-rule:evenodd;stroke:none;stroke-width:0.184057"
       id="path592" />
    <path
       d="m 415.48466,53.385605 c 0.006,-0.0065 0.0129,-0.01305 0.018,-0.01951 0.003,-0.0028 0.005,-0.005 0.008,-0.0086 -0.007,0.0072 -0.0136,0.01379 -0.0202,0.02173 -0.003,0.0014 -0.004,0.0042 -0.006,0.0065"
       style="fill:#21201d;fill-opacity:1;fill-rule:nonzero;stroke:none;stroke-width:0.184057"
       id="path594" />
    <path
       d="m 418.67766,50.411967 c -0.0109,0.02357 -0.0309,0.04307 -0.0418,0.06828 -7.1e-4,0.0021 -0.003,0.0057 -0.003,0.0079 0.023,-0.0302 0.0545,-0.05393 0.0769,-0.08412 0.006,-0.0086 0.0114,-0.01951 0.0144,-0.0309 0.004,-0.0014 0.009,-0.0028 0.0129,-0.0037 -0.004,-0.0035 -0.007,-0.0057 -0.0109,-0.0086 0,-0.0094 -10e-4,-0.01785 -0.008,-0.02522 -0.006,0.0059 -0.0114,0.01161 -0.0164,0.01729 -0.0166,-7.06e-4 -0.0381,0.0057 -0.0547,0.01305 0.0121,0.0065 0.025,0.01069 0.0396,0.01214 -0.004,0.01087 -0.005,0.023 -0.009,0.03387"
       style="fill:#21201d;fill-opacity:1;fill-rule:nonzero;stroke:none;stroke-width:0.184057"
       id="path596" />
    <path
       d="m 418.44244,52.953438 c 0,-0.0014 0,-0.0021 -7.1e-4,-0.0028 -0.007,0.0074 -0.0116,0.01453 -0.0145,0.02173 10e-4,7.06e-4 0.003,0.0014 0.004,0.0021 0.006,-0.0057 0.0114,-0.01288 0.0114,-0.02081"
       style="fill:#21201d;fill-opacity:1;fill-rule:nonzero;stroke:none;stroke-width:0.184057"
       id="path598" />
    <path
       d="m 418.55397,50.620321 c 0.0129,-0.01069 0.0265,-0.02081 0.0366,-0.03295 0.0223,-0.02815 0.0287,-0.06626 0.0418,-0.09921 -10e-4,0.0021 -0.003,0.0035 -0.004,0.0057 -0.028,0.0381 -0.0532,0.08191 -0.074,0.126449"
       style="fill:#21201d;fill-opacity:1;fill-rule:nonzero;stroke:none;stroke-width:0.184057"
       id="path600" />
    <path
       d="m 416.31788,52.794596 c -7.1e-4,7.06e-4 -0.002,7.06e-4 -0.003,0.0021 0,0 7e-4,-7.05e-4 0.003,-0.0021"
       style="fill:#21201d;fill-opacity:1;fill-rule:nonzero;stroke:none;stroke-width:0.184057"
       id="path602" />
    <path
       d="m 418.87165,50.41123 c 0.0433,-0.01235 0.0828,-0.02815 0.11449,-0.06037 0.01,-0.01013 0.0157,-0.02448 0.0258,-0.03238 0.009,-0.0059 0.0237,-0.0094 0.0346,-0.01231 0.025,-0.0086 0.0503,-0.0151 0.0747,-0.02374 0.041,-0.01288 0.0841,-0.023 0.12294,-0.0438 0.0223,-0.01288 0.0453,-0.01933 0.0705,-0.02723 0.046,-0.0151 0.0705,-0.0065 0.11651,0.0099 0.0215,0.0086 0.0387,0.023 0.0589,0.03238 0.0639,0.0302 0.14817,0.03164 0.21719,0.0309 0.0473,-7.06e-4 0.0992,0.0037 0.14375,0.01951 0.0381,0.01362 0.0683,0.03443 0.11061,0.04013 0.0641,0.0079 0.12737,0.03313 0.19124,0.04749 0.0987,0.02226 0.19786,0.04896 0.29412,0.07988 0.0554,0.01859 0.10712,0.04749 0.16473,0.06111 0.0208,0.0042 0.0337,0.01288 0.0532,0.02081 0.0381,0.01658 0.0854,0.03957 0.12645,0.04528 -10e-4,-0.01584 -0.006,-0.02872 -0.0186,-0.04031 -0.0245,-0.02152 -0.0648,-0.0302 -0.0928,-0.04601 -0.018,-0.01069 -0.0346,-0.01933 -0.0539,-0.02872 -0.0309,-0.01288 -0.0633,-0.02448 -0.0928,-0.03957 -0.0223,-0.01143 -0.0425,-0.02649 -0.0655,-0.03589 -0.0381,-0.01655 -0.0841,-0.0302 -0.12222,-0.01877 -0.0502,0.0151 -0.079,-7.06e-4 -0.12571,-0.0151 -0.0547,-0.01584 -0.10712,-0.04454 -0.16252,-0.06184 -0.0144,-0.0035 -0.028,-0.0035 -0.0425,-0.0072 -0.023,-0.0042 -0.0468,-0.01584 -0.0696,-0.023 -0.0685,-0.02007 -0.1454,-0.01933 -0.21148,-0.04454 -0.0272,-0.0099 -0.0582,-0.03443 -0.0799,-0.04951 -0.0423,-0.02889 -0.0854,-0.05687 -0.12792,-0.08706 -0.0302,-0.02152 -0.051,-0.03164 -0.0876,-0.02797 -0.0324,0.0021 -0.0641,0.0042 -0.0957,0.01288 -0.0265,0.0079 -0.0547,0.02152 -0.0826,0.02723 -0.0151,0.0037 -0.0302,7.05e-4 -0.0445,0.0044 -0.0245,0.005 -0.0361,0.02374 -0.0547,0.03514 -0.0151,0.0094 -0.0245,0.01235 -0.0374,0.02596 -0.0252,0.0302 -0.0683,0.06405 -0.10583,0.07988 -0.0812,0.03369 -0.15884,0.07031 -0.24222,0.097 -0.0114,0.0028 -0.0245,0.0086 -0.0381,0.01288 0.0136,0.01288 0.0245,0.02872 0.0388,0.03957 0.0302,0.02226 0.0589,0.01288 0.0955,0.0028"
       style="fill:#21201d;fill-opacity:1;fill-rule:nonzero;stroke:none;stroke-width:0.184057"
       id="path604" />
    <path
       d="m 418.22249,49.687146 c -10e-4,-0.0021 -0.004,-0.0028 -0.006,-0.005 0.005,0.0079 0.0114,0.01584 0.0186,0.023 -0.004,-0.0065 -0.008,-0.01235 -0.0129,-0.01803"
       style="fill:#21201d;fill-opacity:1;fill-rule:nonzero;stroke:none;stroke-width:0.184057"
       id="path606" />
    <path
       d="m 417.51148,50.173242 c -0.009,0.02226 -0.0208,0.0416 -0.0309,0.0624 -0.0144,-0.01288 -0.0316,-0.02501 -0.0425,-0.0302 -0.023,-0.0085 -0.0394,0 -0.0574,-0.01711 -0.028,-0.02741 -0.0582,-0.05191 -0.0841,-0.08062 -0.0331,-0.03514 -0.0661,-0.06976 -0.11006,-0.09479 -0.0258,-0.01454 -0.0467,-0.0309 -0.0705,-0.04823 -0.025,-0.01951 -0.0416,-0.04675 -0.0604,-0.06755 -0.0186,-0.02374 -0.0359,-0.05043 -0.0547,-0.07418 -0.0243,-0.0309 -0.0545,-0.05522 -0.079,-0.08559 -0.021,-0.02575 -0.0403,-0.04657 -0.0497,-0.07822 -0.009,-0.03238 -0.0107,-0.06773 -0.004,-0.100683 0.008,-0.04601 0.0144,-0.0878 0.008,-0.133071 -7.1e-4,-0.0035 0,-0.0086 0,-0.0114 0.0107,-0.0094 0.0223,-0.01729 0.0337,-0.02448 0.0447,-0.02667 0.0935,-0.03534 0.13804,-0.05964 0.0294,-0.01729 0.0604,-0.02448 0.092,-0.03461 0.0267,-0.0094 0.0309,-0.0309 0.0524,-0.04951 0.021,-0.01951 0.0591,-0.04105 0.0885,-0.04326 0.0144,0.02152 0.0272,0.04326 0.0403,0.06258 0.0107,0.01436 0.0166,0.03737 0.028,0.05025 0.006,0.0037 0.0129,0.0079 0.0195,0.01161 0.004,0.0072 0.007,0.01436 0.0114,0.02152 0.0151,0.02596 0.0331,0.05319 0.0497,0.08209 0.0151,0.02649 0.033,0.05245 0.046,0.08117 0.01,0.02081 0.0136,0.04381 0.0243,0.06405 0.0158,0.02946 0.0353,0.05595 0.046,0.08835 0.005,0.01584 0.0131,0.02667 0.0203,0.04178 0.008,0.01362 0.009,0.02798 0.0158,0.04233 0.0136,0.02872 0.0337,0.05172 0.0453,0.08117 0.009,0.023 0.0215,0.05761 0.0396,0.07915 -0.008,0.005 -0.0166,0.0072 -0.023,0.01436 -0.007,0.0059 -0.009,0.01379 -0.0158,0.02099 -0.0151,0.0151 -0.0295,0.02505 -0.0425,0.04528 -0.0121,0.01933 -0.0129,0.03589 -0.0215,0.05522 -0.0101,0.02025 -0.0188,0.0381 -0.0295,0.05687 -0.0123,0.02152 -0.0136,0.0497 -0.023,0.07197 m -0.0913,0.227866 c -0.005,0.01288 -0.0101,0.02374 -0.0144,0.03663 -0.0101,0.02667 -0.021,0.05687 -0.0217,0.08632 -7e-4,0.02649 0.009,0.05319 0.002,0.0797 -0.0107,0.04252 -0.0331,0.08062 -0.0596,0.117246 -0.0238,0.03238 -0.0324,0.05963 -0.041,0.09773 -0.009,0.03884 -0.0251,0.10712 -0.069,0.120925 -0.0129,-0.02815 -0.0381,-0.0497 -0.0653,-0.06553 -0.0295,-0.01655 -0.0497,-0.0035 -0.0784,-0.0035 -0.0223,0 -0.0388,-0.01161 -0.0604,-0.0086 -0.0166,0.0028 -0.0151,0.0028 -0.0302,-0.0028 -0.0294,-0.01143 -0.0596,-0.01584 -0.0834,-0.0381 -0.023,-0.02078 -0.0403,-0.04086 -0.0512,-0.06902 -0.0114,-0.02872 -0.0351,-0.0438 -0.0495,-0.0705 -0.006,-0.0099 -0.006,-0.02374 -0.0116,-0.03295 -0.006,-0.01012 -0.0158,-0.0151 -0.0237,-0.02374 -0.005,-0.0065 -0.0158,-0.01877 -0.0193,-0.02448 -0.006,-0.01013 -0.008,-0.02152 -0.0136,-0.03164 -0.0109,-0.01859 -0.0302,-0.03514 -0.0418,-0.05246 -0.0173,-0.02374 -0.0482,-0.02724 -0.0653,-0.05172 -0.0116,-0.01655 -0.0166,-0.04601 -0.0223,-0.06553 -0.0131,-0.04031 -0.0282,-0.07325 -0.0539,-0.107855 -0.0151,-0.01859 -0.0252,-0.03957 -0.044,-0.05467 -0.0223,-0.01785 -0.0552,-0.02649 -0.069,-0.05246 -0.008,-0.01584 -0.007,-0.0381 -0.0158,-0.05393 -0.006,-0.01069 -0.006,-0.0092 -0.0151,-0.01785 -0.0171,-0.01729 -0.0344,-0.05393 -0.0567,-0.06626 -0.009,-0.005 -0.0173,-0.0014 -0.0267,-0.005 -0.0129,-0.005 -0.0245,-0.02007 -0.0344,-0.02946 -0.006,-0.0059 -0.0101,-0.01235 -0.0144,-0.01877 0.0201,-0.01214 0.046,-0.04528 0.0567,-0.05816 0.0131,-0.01732 0.0216,-0.03737 0.0411,-0.04675 0.0302,-0.0151 0.0668,-0.01362 0.0992,-0.02226 0.0316,-0.0086 0.069,-0.0065 0.0992,0 0.0324,0.0065 0.0655,0.01288 0.0977,0.02007 0.0324,0.0057 0.0497,0.01436 0.0742,-0.0079 0.008,-0.0086 0.0129,-0.01436 0.023,-0.02226 0.0136,-0.01143 0.0272,-0.01214 0.0423,-0.02007 0.009,-0.0059 0.0144,-0.01379 0.0245,-0.01877 0.0121,-0.0065 0.0287,-0.0094 0.0416,-0.01288 0.021,-0.0065 0.0539,-0.0151 0.0534,-0.04252 0.023,0.01235 0.0322,0.04472 0.0445,0.06479 0.0193,0.0309 0.0396,0.07123 0.0646,0.09626 0.0281,0.02889 0.0512,0.06829 0.0821,0.09074 0.0309,0.02226 0.069,0.06608 0.0849,0.09994 0.0136,0.02724 0.028,0.07252 0.0574,0.08908 0.0173,0.01143 0.0431,0.01288 0.0626,0.02448 0.0381,0.02226 0.0985,0.06976 0.10933,0.115772 0.004,0.02081 -0.002,0.04012 -0.009,0.0589 m 0.78868,2.746509 c 0.026,-0.0086 0.0668,-0.01231 0.0863,-0.03387 0.007,0.02155 0.004,0.0532 -0.002,0.07473 -0.006,0.02889 -0.007,0.05835 -0.0101,0.09 -0.002,0.03884 -0.008,0.08761 -7.1e-4,0.123687 0.005,0.02575 0.006,0.04804 0.0144,0.07325 0.008,0.02522 0.0195,0.05098 0.0237,0.0762 0.003,0.01803 0,0.03313 -0.002,0.05098 -0.003,0.01658 -10e-4,0.01309 0,0.02815 0.002,0.02946 0.009,0.06607 0.009,0.09424 -10e-4,0.03147 -0.008,0.05963 -0.006,0.09056 0.004,0.04086 0.0138,0.0797 0.0203,0.120742 0.008,0.05319 0.009,0.107858 0.0136,0.161784 -10e-4,-0.0021 -0.002,-0.0021 -0.003,-0.0044 -0.006,-0.0079 -0.005,-0.01933 -0.01,-0.02872 -0.0116,-0.023 -0.0396,-0.03589 -0.0641,-0.03514 -0.0351,7.06e-4 -0.0727,0.01143 -0.10786,0.01143 -0.009,0 -0.018,-0.0065 -0.028,-0.0065 -0.005,0 -0.0116,0.0037 -0.0158,0.0037 -0.0215,-0.0044 -0.0468,-0.01087 -0.069,-0.01584 -0.0123,-0.0037 -0.0237,-0.01013 -0.0374,-0.01305 -0.0225,-0.005 -0.046,-0.0035 -0.069,-0.0072 -0.0353,-0.005 -0.0705,-0.0042 -0.10656,-0.0086 -0.0394,-0.0042 -0.0804,-0.005 -0.11854,-0.0099 -0.009,-7.06e-4 -0.0151,-0.0014 -0.0245,-7.06e-4 -0.0114,0 -0.026,7.06e-4 -0.0366,-7.05e-4 -0.026,-0.0042 -0.051,-0.01584 -0.0734,-0.02522 -0.006,-0.0035 -0.0151,-0.0057 -0.023,-0.0086 -10e-4,-0.0099 -0.003,-0.01933 -0.004,-0.02872 0,-0.01729 0.006,-0.03443 0.006,-0.05246 0,-0.03461 -0.002,-0.06681 -0.005,-0.09994 -0.003,-0.02872 -0.006,-0.05963 -7.1e-4,-0.0878 10e-4,-0.0028 0.003,-0.0065 0.004,-0.0099 0.007,-0.0057 0.0131,-0.01161 0.0195,-0.01732 0.0223,-0.01933 0.0547,-0.02667 0.0784,-0.04233 0.0151,-0.01013 0.025,-0.01655 0.0423,-0.02374 0.0237,-0.0094 0.0309,-0.01729 0.051,-0.03534 0.0289,-0.02797 0.0598,-0.04675 0.0836,-0.0819 0.0121,-0.01658 0.0208,-0.03514 0.0317,-0.05319 0.01,-0.01877 0.0178,-0.03957 0.0294,-0.0589 0.009,-0.0151 0.0223,-0.02596 0.0374,-0.03681 0.0272,-0.02081 0.0547,-0.04012 0.0819,-0.0611 0.026,-0.02007 0.0359,-0.04877 0.0683,-0.06681 0.0374,-0.02081 0.0777,-0.03164 0.11724,-0.04454 m 0.17117,0.199887 c -0.004,-0.01951 7.1e-4,-0.03957 7.1e-4,-0.05963 -7.1e-4,-0.02596 -7.1e-4,-0.04601 0.005,-0.0705 0.0114,-0.0497 0.0144,-0.107858 0.0337,-0.154608 0.009,-0.02596 0.0317,-0.03883 0.0455,-0.06258 -0.0101,-0.01087 -0.0224,-0.01877 -0.0339,-0.02649 -0.001,0.0021 -0.004,0.0042 -0.005,0.005 0,-0.0021 7.1e-4,-0.005 10e-4,-0.0072 -0.0121,-0.0072 -0.0237,-0.01436 -0.0344,-0.02596 0.0151,-0.0065 0.0482,-0.02007 0.0495,0.005 0.0145,-0.01436 0.0361,-0.02649 0.044,-0.03589 0.0143,-0.01436 0.0287,-0.02724 0.0416,-0.0416 0.0101,-0.01087 0.0274,-0.04031 0.041,-0.04178 0.0158,0.03514 0.0554,0.05246 0.0841,0.07767 0.0252,0.02226 0.0561,0.02448 0.0819,0.04749 0.0309,0.02501 0.0519,0.05595 0.0863,0.0762 0.0166,0.0094 0.0294,0.01859 0.0445,0.02946 0.0203,0.01362 0.0309,0.02798 0.0482,0.0438 0.0188,0.01729 0.0381,0.01362 0.051,0.03663 0.008,0.01231 0.0138,0.023 0.021,0.03461 0.0144,0.02374 0.025,0.05098 0.0381,0.07547 0.0143,0.0302 0.0351,0.0554 0.0552,0.0819 0.0131,0.01658 0.0223,0.03884 0.0331,0.05835 -0.0344,0.04951 -0.0661,0.102154 -0.10068,0.153137 -0.0158,-0.0021 -0.0324,-0.0044 -0.0482,-0.0057 -0.0208,-0.0014 -0.0423,-0.0066 -0.0617,-0.0079 -0.0145,0.0021 -0.0296,0.0065 -0.0433,0.0099 -0.0173,0.0028 -0.0337,0.0028 -0.0503,7.06e-4 -0.0223,-7.06e-4 -0.0396,0.0021 -0.0618,-0.0086 -0.0195,-0.0079 -0.0274,-0.02579 -0.0445,-0.03589 -0.0267,-0.0151 -0.0685,-0.0094 -0.0972,-0.0042 -0.0166,0.0035 -0.0329,0.0057 -0.0495,0.0035 -0.0123,-0.0035 -0.0245,-0.0065 -0.0374,-0.0065 -0.0237,0.0014 -0.0433,0.01584 -0.0663,0.01877 -0.0136,-0.04178 -0.0438,-0.07417 -0.0559,-0.114484 -0.005,-0.01637 -0.0131,-0.03221 -0.0158,-0.04804 m 0.23283,-0.617696 c 10e-4,-0.02226 0.0418,-0.0381 0.0561,-0.04877 0.009,-0.0066 0.0166,-0.02173 0.026,-0.02671 0.008,-0.0035 0.0201,0 0.0272,0 0.0215,-7.05e-4 0.0468,-0.01069 0.0668,-0.0086 0.0287,0.0028 0.0569,0.02815 0.0806,0.04178 0.0272,0.01436 0.0574,0.02522 0.0861,0.03589 0.0475,0.01803 0.0999,0.03883 0.14467,0.06681 0.0223,0.0151 0.0467,0.02374 0.0668,0.04178 0.0252,0.02081 0.0467,0.04307 0.0747,0.05816 -0.004,-0.0085 -0.004,-0.01933 -0.008,-0.02723 -0.009,-0.01803 -0.028,-0.0267 -0.0445,-0.03736 -0.026,-0.01729 -0.046,-0.03589 -0.069,-0.05761 -0.0114,-0.01214 -0.0208,-0.023 -0.0351,-0.03221 -0.0138,-0.0086 -0.0188,-0.01658 -0.0282,-0.02815 -0.0165,-0.01933 -0.0322,-0.02575 -0.0539,-0.04031 -0.0179,-0.01214 -0.0344,-0.01711 -0.0381,-0.04086 -0.006,-0.03663 0.0289,-0.04749 0.0539,-0.06553 0.049,-0.03589 0.0834,-0.0797 0.11504,-0.129392 0.0101,-0.01785 0.0151,-0.04528 0.0374,-0.05246 0.0109,0.01288 0.0223,0.01013 0.0361,0.0151 0.0186,0.0072 0.033,0.02522 0.0488,0.03589 0.023,0.0151 0.044,0.01877 0.0676,0.0267 0.0252,0.0086 0.0497,0.02078 0.0756,0.0302 0.0453,0.01584 0.0928,0.03884 0.14007,0.04951 0.0237,0.0021 0.0468,0.0059 0.0705,0.01087 0.0223,0.0086 0.0445,0.01803 0.0683,0.02522 0.0116,0.0021 0.0245,0.005 0.0374,0.0072 0.0158,0.01859 0.0368,0.03884 0.0561,0.0438 -0.006,0.01288 -0.0158,0.023 -0.023,0.03534 -0.0517,0.08043 -0.12222,0.148717 -0.17688,0.227862 -0.0324,0.04454 -0.0653,0.08835 -0.0977,0.133075 -0.0201,0.02723 -0.0467,0.04307 -0.0698,0.06681 -0.0173,0.01933 -0.0287,0.0416 -0.0489,0.05816 -0.0151,0.01436 -0.0322,0.02667 -0.0473,0.04031 -0.0151,0.01436 -0.0316,0.02522 -0.0467,0.0381 -0.0138,0.01139 -0.0195,0.02667 -0.0324,0.03957 -0.0237,0.02575 -0.0524,0.04675 -0.0747,0.07399 -0.0116,0.01362 -0.0203,0.02798 -0.0309,0.04252 -0.006,-0.01803 -0.0144,-0.03534 -0.018,-0.04822 -0.007,-0.01951 -0.0143,-0.03957 -0.0201,-0.05964 -0.0101,-0.03313 -0.0109,-0.06755 -0.0223,-0.09994 -0.002,-0.0059 -0.009,-0.01951 -0.009,-0.02448 -10e-4,-0.01877 0.0114,-0.03663 0.0136,-0.05393 0.004,-0.02522 -0.003,-0.03461 0.009,-0.05614 0.0114,-0.02155 0.0208,-0.04381 0.0344,-0.06313 0.0144,-0.02099 0.0295,-0.04252 0.0438,-0.06332 0.0101,-0.01362 0.018,-0.01655 0.0151,-0.0309 -0.0186,-0.0014 -0.0473,0.02723 -0.0646,0.03663 -0.018,0.0086 -0.0274,0.0094 -0.0403,0.02374 -0.008,0.0094 -0.0129,0.01859 -0.0193,0.02798 -0.0123,0.01655 -0.0388,0.04178 -0.0468,0.06037 -0.004,0.0086 -7.1e-4,0.01951 -0.004,0.02889 -0.003,0.0072 -0.008,0.01288 -0.009,0.02081 -0.0188,-0.0037 -0.0447,-0.02946 -0.0591,-0.04031 -0.0215,-0.01436 -0.0416,-0.0302 -0.0626,-0.04454 -0.0265,-0.01933 -0.0582,-0.03313 -0.0834,-0.05393 -0.0208,-0.01655 -0.023,-0.03957 -0.0381,-0.0611 -0.0158,-0.023 -0.0309,-0.0497 -0.0502,-0.06755 -0.0158,-0.01305 -0.0309,-0.02667 -0.0468,-0.04105 -0.009,-0.0079 -0.0339,-0.02522 -0.0331,-0.03957 m -0.32136,-1.446512 c 0.007,-0.04528 0.0309,-0.08706 0.0554,-0.125159 0.0101,-0.01584 0.0193,-0.03295 0.0265,-0.05025 0.0267,-0.0086 0.0526,-0.01877 0.0777,-0.02596 0.0195,-0.005 0.0388,0 0.0584,0.0037 0.0272,0.005 0.0401,0.0042 0.0668,-0.0044 0.0346,-0.01069 0.0733,-0.0302 0.10933,-0.0309 0.0129,0 0.0258,0.0014 0.0396,0.0014 -0.0195,0.03387 -0.0381,0.06681 -0.0569,0.100679 -0.0136,0.02522 -0.026,0.05099 -0.0366,0.07915 -0.0123,0.02798 -0.0166,0.06534 -0.0374,0.08835 -0.0116,0.01288 -0.0274,0.02152 -0.0403,0.03165 -0.0215,0.01803 -0.0388,0.04031 -0.0604,0.0589 -0.0223,0.01951 -0.0475,0.03607 -0.069,0.05687 -0.008,-0.0021 -0.0166,-0.0037 -0.023,-0.0065 -0.0366,-0.01362 -0.10289,-0.02596 -0.10933,-0.0727 -0.005,-0.03443 -0.006,-0.07049 -7.1e-4,-0.104913 m 0.15682,-0.396091 c 0.008,-0.02448 0.009,-0.04326 0.0215,-0.06626 0.028,-0.05172 0.046,-0.10565 0.0675,-0.159579 0,-7.05e-4 7.1e-4,-0.0014 7.1e-4,-0.0028 0.008,0.0059 0.0193,0.01453 0.0267,0.02099 0.0107,0.0086 0.0121,0.01637 0.0164,0.0302 0.006,0.01711 0.018,0.02872 0.0245,0.04528 0.0267,0.05963 0.041,0.128655 0.0611,0.191234 0.003,0.0094 0.0166,0.03369 0.0123,0.04307 -0.003,0.0079 -0.0475,0.02448 -0.0554,0.02815 -0.0403,0.01785 -0.0856,0.02798 -0.12737,0.0416 -0.0381,0.01161 -0.0769,0.02448 -0.11706,0.03736 0.0151,-0.03514 0.0272,-0.07252 0.0337,-0.106384 0.008,-0.03514 0.0252,-0.06829 0.0353,-0.102704 m 0.21701,0.889367 c 0.0116,-0.0151 0.0252,-0.03755 0.041,-0.04675 0.0295,-0.01729 0.069,-0.0044 0.10068,-0.0072 0.0344,-0.0044 0.0596,-0.01305 0.097,-0.01013 0.023,0.0021 0.0467,0 0.069,0.0072 0.0591,0.01729 0.11227,0.04454 0.17191,0.05816 0.0453,0.01161 0.0913,0.01453 0.13657,0.02522 0.026,0.0057 0.0554,0.01803 0.0826,0.01436 0.0202,-0.0028 0.0374,-0.01288 0.0584,-0.01436 0.0208,-0.0021 0.0453,-0.0014 0.0646,-0.0021 0.0339,0 0.069,-0.0057 0.10362,-0.0021 0.0237,0.0042 0.046,0.01711 0.069,0.01859 0.0107,0.0014 0.0208,-0.0042 0.0309,-0.0035 0.003,7.06e-4 0.007,0.0021 0.0107,0.0035 -0.0186,0.0059 -0.0265,0.02152 -0.0309,0.03663 -0.004,0.01309 -0.006,0.02671 -0.009,0.04031 -0.002,0.01658 -0.008,0.0302 -0.0114,0.04822 -0.0151,0.05467 0.0158,0.115772 0.0166,0.171909 7e-4,0.03094 0.006,0.06387 0,0.09626 -10e-4,0.01143 -0.007,0.02081 -0.0109,0.03312 -0.004,0.023 -0.0114,0.04601 -0.0114,0.06976 0,0.03663 -0.008,0.07325 0.004,0.109146 0.0131,0.03681 0.023,0.07767 0.0396,0.1143 -0.0193,-0.0065 -0.0396,-0.01362 -0.0582,-0.01933 -0.0368,-0.01012 -0.0749,-0.023 -0.11007,-0.03514 -0.0453,-0.01729 -0.0849,-0.04178 -0.12221,-0.07123 -0.0309,-0.02448 -0.0747,-0.04104 -0.11283,-0.05319 -0.0274,-0.0086 -0.0554,-0.0079 -0.0841,-0.01362 -0.0217,-0.0037 -0.0296,-0.01379 -0.0482,-0.02099 -0.006,-0.0028 -0.0195,-0.0021 -0.026,-0.0028 -0.0265,-0.0028 -0.051,-0.01877 -0.0762,-0.02889 -0.0245,-0.0099 -0.0488,-0.02226 -0.074,-0.03295 -0.0705,-0.02889 -0.14375,-0.03164 -0.21148,-0.06626 -0.023,-0.0114 -0.0495,-0.02226 -0.071,-0.03589 -0.0396,-0.02522 -0.0539,-0.04748 -0.0525,-0.09203 0.002,-0.04454 0.008,-0.08835 0.008,-0.134363 -7e-4,-0.02889 -0.006,-0.0554 -0.005,-0.08632 0.001,-0.02596 0.007,-0.04823 0.0215,-0.06755 m -0.67365,1.228588 c 0,0.01729 -0.0114,0.03313 -0.0107,0.05043 7.1e-4,0.01069 0.004,0.02226 0.005,0.03369 0.001,0.02741 0.0173,0.06258 0,0.08632 -0.0346,0.04601 -0.0769,0.08706 -0.11283,0.132337 -0.009,0.01143 -0.0245,0.02226 -0.0361,0.03387 -0.0114,0.01143 -0.0186,0.02357 -0.0302,0.03589 -0.0186,0.01859 -0.0302,0.04031 -0.046,0.06258 -0.0243,0.03514 -0.0604,0.04951 -0.0948,0.07546 -0.0267,0.01933 -0.0346,0.05025 -0.0525,0.07547 -0.0116,0.01655 -0.0245,0.03443 -0.0368,0.05025 0.003,-0.0079 0.006,-0.01637 0.009,-0.02505 0.0101,-0.02741 0.0109,-0.05614 0.013,-0.08558 0.004,-0.04823 0.007,-0.09571 0.006,-0.145225 0,-0.03238 -0.004,-0.06479 -0.0116,-0.09645 -0.004,-0.0151 -0.0107,-0.02946 -0.0114,-0.04454 -0.003,-0.03589 0.002,-0.07178 0.004,-0.107121 0.002,-0.02575 0.0188,-0.0438 0.0302,-0.06534 0.0116,-0.02173 0.0188,-0.04031 0.0339,-0.05982 0.0215,-0.02872 0.0309,-0.05816 0.0675,-0.07326 0.0366,-0.0151 0.0878,-0.0151 0.12792,-0.0151 0.0143,0 0.0353,-0.0037 0.049,0 0.0193,0.0057 0.0351,0.02081 0.0547,0.02724 0.0258,0.0086 0.0431,0.02374 0.0431,0.05393 m -0.48885,0.995938 c -0.0136,0.02431 -0.0396,0.04454 -0.0655,0.05742 -0.033,0.0151 -0.0725,0.02152 -0.10638,0.03313 -0.0453,0.01362 -0.0906,0.02872 -0.1351,0.04381 -0.0539,0.01729 -0.10786,0.0381 -0.16252,0.05172 -0.0179,0.0044 -0.0374,0.0044 -0.0554,0.0086 -0.0215,0.0044 -0.0416,0.01584 -0.0624,0.02025 -0.0173,0.0021 -0.0576,0.005 -0.0727,-0.0028 -0.0144,-0.0065 -0.0144,-0.02226 -0.0193,-0.03534 -0.008,-0.01859 -0.0267,-0.03369 -0.0381,-0.05025 -0.018,-0.02596 -0.0353,-0.05687 -0.0606,-0.0762 -0.004,-0.0042 -0.0136,-0.01214 -0.0237,-0.02078 0.0316,-0.04252 0.0598,-0.08853 0.0799,-0.13657 0.0295,-0.06921 0.0734,-0.128842 0.095,-0.199888 0.0107,-0.03607 0.0388,-0.06055 0.0574,-0.09203 0.0188,-0.03461 0.0252,-0.07344 0.0425,-0.108596 0.0322,-0.067 0.048,-0.14025 0.0955,-0.200621 0.0346,-0.04381 0.0712,-0.08632 0.10786,-0.12792 0.023,-0.02741 0.0596,-0.05319 0.0762,-0.08485 0.0116,-0.023 0.0131,-0.03238 0.0361,-0.04675 0.0179,-0.01161 0.0381,-0.01729 0.0596,-0.023 0.0554,-0.01379 0.10786,-0.02226 0.14154,0.0309 0.0202,0.0309 0.0215,0.07473 0.0274,0.108596 0.005,0.03369 -0.005,0.06037 -0.009,0.09258 -0.003,0.02889 10e-4,0.05264 0.004,0.07915 0.005,0.04601 0.006,0.09773 0.004,0.14375 -0.003,0.04528 -0.0208,0.08485 -0.0295,0.128104 -0.006,0.02798 0,0.06037 -0.002,0.08982 -0.001,0.02872 7e-4,0.05687 0.004,0.08558 0.005,0.05172 0.0129,0.107859 0.0295,0.157371 7.1e-4,0.0059 0.004,0.01012 0.005,0.01584 h -7.1e-4 c -0.008,0.0044 -0.0158,0.04823 -0.0215,0.05908 m -0.78794,-0.376767 c -0.0346,0.02007 -0.069,0.02946 -0.0979,0.05743 -0.0121,0.01235 -0.0272,0.02226 -0.0394,0.03461 -0.0202,0.01933 -0.0353,0.04233 -0.0561,0.06111 -0.0324,0.02798 -0.0747,0.05466 -0.11356,0.07178 -0.0339,0.01436 -0.069,0.02152 -0.10215,0.03884 -0.028,0.01436 -0.0532,0.0302 -0.0834,0.04031 -0.009,0.0028 -0.0195,0.0057 -0.028,0.01012 -0.0252,0.01143 -0.0425,0.03443 -0.0698,0.03957 -0.0295,0.0057 -0.0633,0.0085 -0.0935,0.01143 -0.002,0 -0.006,0 -0.008,0 -0.008,-0.01729 -0.0136,-0.03164 -0.0245,-0.04675 -0.0158,-0.02007 -0.0339,-0.03957 -0.051,-0.0589 -0.0396,-0.04675 -0.0626,-0.110804 -0.095,-0.163259 -0.0173,-0.02723 -0.028,-0.05319 -0.0488,-0.07546 -0.0109,-0.01288 -0.0166,-0.02723 -0.0281,-0.04104 -0.0173,-0.01933 -0.0403,-0.03514 -0.0582,-0.05467 -0.0195,-0.02152 -0.0346,-0.04675 -0.0569,-0.06681 -0.0151,-0.01214 -0.0136,-0.0079 -0.0193,-0.02448 -0.0188,-0.05098 -0.0331,-0.101967 -0.0497,-0.153137 -0.005,-0.005 -0.0136,-0.0035 -0.0215,-0.0021 0.0799,-0.06055 0.17319,-0.0935 0.26173,-0.142459 0.0294,-0.01658 0.0539,-0.03957 0.0819,-0.05669 0.0381,-0.02448 0.0806,-0.03957 0.12148,-0.05835 0.0202,-0.01013 0.0561,-0.02797 0.0655,-0.05246 0.005,-0.01087 0.004,-0.02374 0.002,-0.03589 0,0.0035 -0.0107,-0.03313 -0.01,-0.03534 0.006,-0.03164 0.0611,-0.04749 0.0863,-0.0554 0.0567,-0.01711 0.0941,-0.0302 0.13583,-0.07031 0,-7.05e-4 0.0331,-0.04031 0.0337,-0.04104 0.008,-0.0021 0.0101,0.0021 0.0173,0.0014 0.0245,-0.0028 0.0324,0.0042 0.0497,0.01933 0.025,0.02226 0.0559,0.03608 0.0762,0.06258 0.0302,0.0381 0.0237,0.05761 0.074,0.05393 0.0123,-7.06e-4 0.023,-0.0072 0.0346,-0.0072 0.0351,-0.0028 0.0826,0.01214 0.11283,0.01933 0.0482,0.01231 0.0955,0.01951 0.14025,0.04252 0.0337,0.01729 0.0186,0.0072 0.046,0.005 0.033,-0.0028 0.0869,0.02741 0.0876,0.06405 0,0.01362 -0.009,0.0302 -0.0107,0.04528 -0.005,0.03957 -0.009,0.07473 -0.0203,0.113562 -0.0178,0.06902 -0.0445,0.133075 -0.0712,0.198417 -0.0228,0.0554 -0.0537,0.107121 -0.0747,0.162521 -0.003,0.0065 -0.004,0.01288 -0.006,0.01951 -0.0237,0.02872 -0.0589,0.05245 -0.0891,0.06902 m -1.01599,-0.696659 c -0.0215,-0.0094 -0.0445,-0.01584 -0.0675,-0.02522 -0.0302,-0.01235 -0.0675,-0.01729 -0.0942,-0.03736 -0.0245,-0.01877 -0.051,-0.03534 -0.0755,-0.05467 -0.0265,-0.02081 -0.049,-0.04178 -0.0797,-0.05761 -0.0225,-0.01069 -0.0554,-0.03295 -0.0806,-0.02946 -0.001,-0.02007 0.0166,-0.04031 0.028,-0.05669 0.007,-0.01087 0.0145,-0.023 0.021,-0.03387 0.007,-0.01013 0.0179,-0.01729 0.025,-0.02872 0.0145,-0.02374 0.026,-0.06332 0.0309,-0.09 0.004,-0.023 0.005,-0.04307 0.0188,-0.06387 0.005,-0.0079 0.009,-0.01732 0.0129,-0.0267 0,7.05e-4 7.1e-4,7.05e-4 7.1e-4,7.05e-4 0.0223,0.0072 0.0445,0.01584 0.0661,0.02448 0.0232,0.01087 0.046,0.01288 0.0698,0.02007 0.0217,0.0079 0.0425,0.01658 0.0641,0.02448 0.0201,0.005 0.0425,0.0079 0.0633,0.0086 0.0567,0.0072 0.11061,-7.06e-4 0.16675,0.0037 0.0374,0.0028 0.0648,0.005 0.10142,7.05e-4 0.0344,-0.0035 0.0675,7.06e-4 0.10141,0.0028 0.0359,0.0014 0.0869,7.05e-4 0.11706,0.02522 0.021,0.01729 0.0252,0.04307 0.0331,0.06755 0.0109,0.03514 0.0201,0.06976 0.0351,0.103442 0.009,0.01803 0.0131,0.02025 -0.001,0.03883 -0.0274,0.03534 -0.0769,0.06111 -0.11374,0.08412 -0.0164,0.01012 -0.0309,0.01729 -0.0466,0.02667 -0.0267,0.01436 -0.0468,0.03957 -0.0734,0.05614 0.0324,0.01711 0.0201,0.05393 0.004,0.0797 -0.0274,0.04031 -0.0749,0.06755 -0.11798,0.08853 -0.004,0.0021 -0.008,0.0028 -0.0129,0.0042 -0.004,-0.0028 -0.008,-0.0057 -0.0101,-0.0065 -0.0116,-0.0079 -0.0245,-0.01584 -0.0359,-0.02596 -0.008,-0.0065 -0.0195,-0.01214 -0.026,-0.01859 -0.0136,-0.01584 -0.0223,-0.03313 -0.0403,-0.04749 -0.028,-0.02226 -0.0503,-0.04454 -0.0834,-0.05743 m 0.58953,-2.233912 c -0.01,-0.0086 -0.0208,-0.02815 -0.0265,-0.04031 -0.007,-0.01288 -0.0136,-0.02007 -0.021,-0.0309 l -0.002,-0.0014 c 0.0151,0.0151 0.0329,0.02872 0.0453,0.04454 0.0107,0.01453 0.0208,0.02815 0.0309,0.04252 -0.009,-0.0037 -0.0195,-0.0079 -0.0267,-0.01436 m 1.06421,-1.543692 c 0.0243,-0.0079 0.0574,-0.01288 0.0804,-0.02596 0.0116,-0.0065 0.0166,-0.01362 0.0287,-0.01859 0.0109,-0.0057 0.0245,-0.0079 0.0353,-0.01161 0.0237,-0.0079 0.0475,-0.01584 0.071,-0.02226 0.0225,-0.0072 0.0361,-0.01859 0.0547,-0.02872 0.009,-0.0037 0.0188,-0.0037 0.0274,-0.0094 0.0114,-0.0079 0.0179,-0.02081 0.0302,-0.02798 0.0144,-0.0072 0.0324,-0.0086 0.0475,-0.01658 0.0653,-0.03589 0.13657,-0.06681 0.1962,-0.113563 -0.0143,0.0302 -0.0316,0.06037 -0.0482,0.08908 -0.0453,0.07915 -0.0589,0.166758 -0.0856,0.252345 -0.0171,0.05466 -0.0401,0.113746 -0.0676,0.16473 -0.0166,0.0302 -0.0416,0.100679 -0.0215,0.137308 0.0116,0.02081 0.0302,0.03443 0.0438,0.05393 0.0109,0.01729 0.0158,0.0381 0.0173,0.05816 -0.0136,0.0037 -0.0302,0.0094 -0.0388,0.01584 0.004,0.01729 0.002,0.02596 10e-4,0.08927 -0.004,0.01214 -0.007,0.02505 -0.009,0.03737 -0.004,0.0381 -0.0151,0.09994 -0.0423,0.129392 -7.1e-4,-0.0094 0,-0.02007 -7.1e-4,-0.02374 0,-0.01214 0.006,-0.02152 -10e-4,-0.03443 -0.0101,-0.01877 -0.0193,-0.02963 -0.0265,-0.05117 -0.008,-0.02522 -0.0158,-0.04951 -0.0232,-0.07399 l -0.0344,-0.107125 c -0.0116,-0.03607 -0.0188,-0.08062 -0.0467,-0.107858 -0.0272,-0.02596 -0.0503,-0.04969 -0.0646,-0.08779 -0.009,-0.02575 -0.0224,-0.04381 -0.0361,-0.06829 -0.0107,-0.01933 -0.0215,-0.03957 -0.0344,-0.05816 -0.0173,-0.02667 -0.0237,-0.06258 -0.049,-0.08338 -0.0245,-0.02025 -0.0582,-0.02226 -0.0871,-0.0309 0.0281,-0.0086 0.0554,-0.01729 0.0836,-0.02596 m -0.50339,5.82948 c 0.0346,0.01658 0.0747,0.01877 0.11154,0.03238 0.0302,0.01143 0.0611,0.02374 0.0928,0.03514 0.023,0.0094 0.0423,0.0151 0.0631,0.02741 0.0124,0.0072 0.0274,0.0151 0.041,0.02081 0.0109,0.0042 0.0223,0.0079 0.0344,0.0086 0,0 10e-4,7.06e-4 0.002,7.06e-4 -0.0208,0.0072 -0.0431,0.01436 -0.0653,0.02152 -0.0331,0.01013 -0.0655,0.02007 -0.0985,0.03164 -0.0145,0.0042 -0.0353,0.01584 -0.0504,0.01362 -0.0201,-0.0021 -0.0316,-0.02155 -0.0445,-0.03387 -0.0151,-0.0151 -0.0188,-0.023 -0.0302,-0.0381 -0.0116,-0.01362 -0.0294,-0.02226 -0.0431,-0.03369 -0.044,-0.03461 -0.0784,-0.07491 -0.11006,-0.119454 0.0302,0.01584 0.0668,0.01951 0.097,0.03313 m -0.88642,-3.298684 c -0.0295,-0.0042 -0.0569,-0.0035 -0.0871,-0.0094 -0.0675,-0.01436 -0.13436,-0.01436 -0.20338,-0.02448 -0.0396,-0.005 -0.0784,-0.01933 -0.11798,-0.02152 -0.0265,-0.0014 -0.051,0.0059 -0.0769,0.0021 -0.0173,-0.0028 -0.0295,-0.0086 -0.0475,-0.0086 -0.0532,0 -0.10271,0.01584 -0.1559,0.0044 -0.0455,-0.01013 -0.0561,-0.0519 -0.09,-0.07988 -0.0359,-0.02946 -0.0834,-0.03387 -0.13013,-0.03957 0.008,-0.023 0.0116,-0.05099 0.0138,-0.06332 0.006,-0.03443 0.006,-0.05595 -0.005,-0.08835 -0.0121,-0.03313 -0.0173,-0.07197 -0.0223,-0.10565 -0.009,-0.05982 -0.0396,-0.115771 -0.049,-0.174117 -0.002,-0.01436 7e-4,-0.02723 -0.003,-0.0416 -0.004,-0.01436 -0.0123,-0.02815 -0.0116,-0.04325 0.0676,0.01013 0.14448,0.01013 0.21498,0.0044 0.0346,-0.0021 0.0633,-0.0086 0.0964,-0.01951 0.0396,-0.01214 0.0869,-0.01069 0.12792,-0.0092 0.0136,7.05e-4 0.028,0.0072 0.0418,0.01288 0.0201,0.0086 0.0423,0.0094 0.0646,0.01729 0.0425,0.01658 0.046,0.02872 0.0663,0.06755 0.0171,0.03313 0.0351,0.0705 0.0596,0.09847 0.004,0.0065 0.0129,0.01584 0.0201,0.01877 0.0109,0.005 0.018,0 0.0274,0.0021 0.0193,0.0052 0.0416,0.01161 0.0611,0.01729 0.0179,0.005 0.0302,0.01658 0.0495,0.02007 0.0136,0.0028 0.0353,-0.0028 0.0475,0.0059 0.0129,0.0086 0.0215,0.06184 0.026,0.07325 0.004,0.01288 0.007,0.02667 0.0129,0.03957 0.009,0.02724 0.0257,0.04823 0.0337,0.07694 0.009,0.03164 0.0158,0.06184 0.0353,0.08982 0.0173,0.02522 0.0374,0.04528 0.0475,0.07418 0.0121,0.03663 0.0366,0.07822 0.048,0.117796 -0.0344,-7.06e-4 -0.0618,-0.0094 -0.0948,-0.01436 m 2.56445,-1.922487 c 0.0151,-0.02448 0.0188,-0.05614 0.0447,-0.06755 0.0309,-0.0151 0.0661,-0.01655 0.0992,-0.023 0.0467,-0.01086 0.10491,-0.02741 0.14798,-0.04675 0.0158,-0.0065 0.026,-0.01732 0.0418,-0.02374 0.0295,-0.01161 0.0604,-0.01877 0.0898,-0.02815 0.0195,-0.0065 0.041,-0.0099 0.0589,-0.02081 0.0123,-0.0072 0.0217,-0.01933 0.0339,-0.02798 0.051,-0.03736 0.11651,-0.0611 0.17762,-0.07693 0.0762,-0.02025 0.15736,-0.03884 0.23503,-0.0497 0.10786,-0.01658 0.21222,-0.04307 0.31713,-0.06976 0.026,-0.0065 0.0525,-0.0065 0.0784,-0.0151 0.0129,-0.0035 0.0237,-0.0086 0.0374,-0.0092 0.033,-0.0037 0.0596,-0.0151 0.0913,-0.02244 0.0826,-0.01785 0.1697,-0.01933 0.25307,-0.04307 0.0611,-0.01658 0.13804,-0.03884 0.19271,-0.07325 0.008,-0.0052 0.0136,-0.01161 0.0223,-0.0151 -0.0359,0.01288 -0.0777,0.03221 -0.11577,0.03589 -0.0101,0 -0.0121,-0.0028 -0.023,-7.06e-4 -0.009,0.0021 -0.018,0.0057 -0.0267,0.0094 -0.0258,0.0079 -0.0532,0.0086 -0.0797,0.01584 -0.0324,0.0072 -0.0648,0.01214 -0.0985,0.01436 -0.0554,0.0057 -0.11154,0.01859 -0.1662,0.0302 -0.0668,0.01288 -0.13087,0.02374 -0.19473,0.04527 -0.0519,0.01658 -0.10289,0.02374 -0.15755,0.03164 -0.0567,0.0072 -0.11504,0.03737 -0.17044,0.05467 -0.0768,0.02226 -0.1581,0.02946 -0.23357,0.05467 -0.0502,0.01637 -0.0992,0.03164 -0.14963,0.0473 -0.0926,0.03037 -0.19124,0.07417 -0.28824,0.08706 -0.041,0.0057 -0.0804,0.0028 -0.11927,0.01584 -0.0173,0.0057 -0.0425,0.01951 -0.0604,0.01803 -0.009,-0.01951 -0.0195,-0.0381 -0.0296,-0.05761 -0.0129,-0.02505 -0.0359,-0.04601 -0.0495,-0.07105 -0.0129,-0.02318 -0.0188,-0.03608 -0.0388,-0.05687 -0.0123,-0.01362 -0.0215,-0.02872 -0.0339,-0.04307 -0.0151,-0.02025 -0.0237,-0.04399 -0.0396,-0.06479 -0.0136,-0.01803 -0.028,-0.0381 -0.0423,-0.0554 -0.0121,-0.01436 -0.0267,-0.02946 -0.0388,-0.04233 -0.0151,-0.01584 -0.0316,-0.03957 -0.051,-0.0497 -7.1e-4,0.0497 0.0381,0.09994 0.0539,0.14375 0.0129,0.03681 0.0216,0.05688 0.0467,0.08853 0.0315,0.04031 0.0624,0.08485 0.097,0.120004 0.026,0.02671 0.0574,0.0302 0.0856,0.05246 0.0201,0.01729 0.025,0.01951 0.028,0.04601 0.002,0.01951 0.004,0.03313 0.002,0.0519 -10e-4,0.0099 0.001,0.01069 -10e-4,0.02152 -0.005,0.01436 -0.0144,0.02797 -0.0193,0.04307 -0.004,0.01362 -0.009,0.02815 -0.0145,0.04178 -0.009,0.02649 -0.0315,0.04877 -0.0352,0.07693 -0.004,0.01584 -0.002,0.0302 -0.004,0.04454 -0.004,-0.01161 -0.0107,-0.023 -0.0171,-0.0309 -0.009,-0.01214 -0.0252,-0.023 -0.0366,-0.03387 -0.0188,-0.01785 -0.0346,-0.02723 -0.0576,-0.04012 -0.041,-0.023 -0.0928,-0.04325 -0.12644,-0.0762 -0.003,-0.0028 -0.006,-0.0059 -0.008,-0.0086 0.002,0.0028 0.003,0.005 0.005,0.0079 0.0186,0.02431 0.0403,0.05466 0.0668,0.07031 0.0223,0.01235 0.0433,0.03037 0.0626,0.04601 0.0208,0.01951 0.0359,0.04749 0.0576,0.06479 0.0136,0.01087 0.0243,0.02007 0.0381,0.03238 0.003,0.0021 0.006,0.005 0.008,0.0072 v 7.06e-4 c -0.0272,0.06184 -0.0552,0.106384 -0.0559,0.173933 -7e-4,0.04454 0.0151,0.08633 0.003,0.129392 -0.005,0.02099 -0.009,0.04105 -0.0107,0.06185 -0.002,0.01584 -0.004,0.02522 -0.0144,0.0381 -0.001,0.0014 -0.001,0.0028 -0.003,0.0037 -0.0396,-0.01436 -0.0806,-0.02448 -0.12295,-0.02596 -0.0208,-7.05e-4 -0.0359,-0.0057 -0.0569,-0.0035 -0.0201,0.0021 -0.0388,0.0057 -0.0567,0.0042 -0.0188,-0.0021 -0.0324,-0.01013 -0.0504,-0.01362 -0.008,-0.0014 -0.0171,-7.06e-4 -0.025,-0.0028 -0.0173,-0.005 -0.026,-0.02081 -0.0418,-0.02649 -0.0252,-0.01013 -0.0416,-0.01309 -0.0641,-0.03164 -0.0208,-0.01877 -0.0503,-0.03165 -0.0725,-0.04675 -0.041,-0.0267 -0.0791,-0.05835 -0.12442,-0.07694 -0.0324,-0.01436 -0.0604,-0.03313 -0.0948,-0.04178 -0.0203,-0.005 -0.0455,-0.01711 -0.067,-0.01214 0.0144,-0.02226 0.0353,-0.04178 0.0482,-0.06332 0.007,-0.01288 0.0158,-0.02575 0.023,-0.0381 0.0101,-0.01729 0.0208,-0.03957 0.026,-0.0589 0.004,-0.01877 0.005,-0.03883 0.0129,-0.05761 0.0173,-0.03736 0.0453,-0.08191 0.051,-0.125713 0.018,-0.01305 0.0361,-0.023 0.0569,-0.03534 0.0416,-0.02505 0.0812,-0.03221 0.12939,-0.03884 0.0215,-0.0035 0.046,-0.0099 0.0683,-0.0079 0.0309,0.0021 0.0446,0.01877 0.0747,0.0094 0.0195,-0.0057 0.0324,-0.005 0.0512,-0.0065 0.007,-7.05e-4 0.0129,-0.0072 0.0201,-0.0057 0.0116,0.0035 0.0151,0.02152 0.0201,0.02797 0.006,0.0079 0.0131,0.01288 0.0202,0.01877 -0.003,-0.0028 -0.004,-0.0065 -0.007,-0.01013 -0.005,-0.0094 -0.0131,-0.0151 -0.0173,-0.02374 -0.004,-0.0079 -0.003,-0.01859 -0.008,-0.02649 -0.005,-0.0086 -0.0173,-0.023 -0.0245,-0.03037 -0.0136,-0.0151 -0.0381,-0.01436 -0.0567,-0.01069 -0.049,0.0094 -0.0986,0.03164 -0.14595,0.04749 -0.0237,0.0072 -0.0453,0.01288 -0.069,0.01436 -0.018,0.0014 -0.023,-0.0014 -0.0388,-0.0065 -0.008,-0.0014 -0.0223,-0.0044 -0.0361,-0.0065 0.009,-0.02099 0.0166,-0.04399 0.0245,-0.06553 0.004,-0.01436 0.009,-0.02081 0.009,-0.03443 0,-0.01379 -0.006,-0.03238 -0.007,-0.04675 -0.004,-0.0381 -0.0223,-0.0727 -0.0267,-0.111538 -0.004,-0.03443 -0.0107,-0.07325 -0.003,-0.109332 0.006,-0.02798 0.0287,-0.05595 0.0409,-0.08411 0.009,-0.02081 0.0138,-0.0438 0.0281,-0.06313 0.0136,-0.02025 0.0309,-0.03313 0.0423,-0.05466 0.0158,-0.03164 0.0294,-0.06332 0.046,-0.09424 0.023,-0.04307 0.0202,-0.09847 0.0361,-0.145224 0.0258,-0.07325 0.033,-0.149638 0.0431,-0.225838 0.004,-0.02724 0.018,-0.05025 0.0272,-0.0762 0.006,-0.01711 0.0144,-0.03589 0.0166,-0.05393 10e-4,-0.01069 -7.1e-4,-0.02226 10e-4,-0.03517 0.009,-0.04822 0.0129,-0.09773 0.0223,-0.146696 0.005,-0.02596 0.006,-0.05025 0.004,-0.0762 -7e-4,-0.02226 0.004,-0.04601 0.002,-0.06828 -0.0114,0.03239 -0.0251,0.06258 -0.0381,0.0935 -0.0151,0.03589 -0.0324,0.07325 -0.0438,0.11062 -0.009,0.03094 -0.0129,0.06184 -0.023,0.0935 -0.0116,0.03534 -0.0287,0.06902 -0.0346,0.104912 -0.006,0.03681 -0.009,0.07565 -0.0129,0.113012 -0.004,0.04951 -0.0101,0.10068 -0.0208,0.150192 -0.004,0.01803 -0.0101,0.03589 -0.018,0.05393 -0.0359,0.01231 -0.0725,0.02226 -0.10859,0.03534 -0.0394,0.01436 -0.0755,0.03369 -0.11504,0.04657 -0.0193,0.0066 -0.0381,0.01012 -0.0539,0.02173 -0.023,0.01584 -0.0374,0.0438 -0.0639,0.05522 -0.006,0.0037 -0.023,0.0079 -0.0302,0.0072 -0.008,-7.05e-4 -0.0151,-0.0077 -0.0217,-0.0092 -0.0307,-0.0021 -0.0883,0.02575 -0.11356,0.04233 -0.0539,0.03461 -0.10492,0.0819 -0.16381,0.103625 -0.0361,0.01288 -0.0677,0.01859 -0.0979,0.04307 -0.0394,0.03238 -0.0906,0.05172 -0.13583,0.07988 -0.0272,0.01637 -0.051,0.02505 -0.0812,0.03514 -0.0158,0.005 -0.0366,0.0079 -0.0504,0.01732 0,0.0028 7e-4,0.005 7e-4,0.0079 l -0.0114,0.0151 c 0.0107,-0.02448 0.005,-0.04178 0.004,-0.07049 -7e-4,-0.01732 -0.006,-0.02226 0.006,-0.0381 0.006,-0.0086 0.0158,-0.01362 0.0215,-0.02374 0.007,-0.0094 0.0101,-0.02226 0.018,-0.03164 0.018,-0.02374 0.0403,-0.04822 0.0589,-0.07252 0.0324,-0.03957 0.0626,-0.07767 0.0979,-0.116508 0.009,-0.01161 0.0329,-0.03164 0.0316,-0.05117 -0.0225,0.0059 -0.0381,0.023 -0.0569,0.03461 -0.0166,0.01087 -0.0324,0.01729 -0.046,0.0309 -0.0272,0.02797 -0.041,0.06534 -0.0668,0.09277 -0.0237,0.02522 -0.0532,0.04233 -0.0749,0.0705 -0.0164,0.02078 -0.0287,0.05522 -0.0488,0.07399 -0.0403,-0.01584 -0.0841,-0.0302 -0.1281,-0.03313 -0.0265,-0.0035 -0.0488,-0.0092 -0.0718,-0.02152 -0.0151,-0.0086 -0.0287,-0.01214 -0.0431,-0.01933 -0.0289,-0.01436 -0.0497,-0.03737 -0.0828,-0.04399 -0.0337,-0.0057 -0.0733,-0.023 -0.10639,-0.01143 0.0403,0.0042 0.0727,0.01214 0.10436,0.03589 0.0366,0.02815 0.0812,0.04031 0.11504,0.07197 0.0295,0.02797 0.0532,0.0705 0.0948,0.08117 0.0223,0.0057 0.0438,-0.005 0.0648,-0.01214 0.008,-0.0014 0.0238,-0.01013 0.0317,-0.0094 0.008,0.0021 0.0359,0.02156 0.0431,0.0302 0.018,0.01951 0.004,0.05614 -0.004,0.0819 l -0.0289,0.03755 c 0.007,-0.0037 0.0151,-0.0074 0.0223,-0.0094 -0.0151,0.07178 -0.006,0.133625 0.0166,0.204121 0.007,0.023 0.0151,0.04528 0.0158,0.06681 0.001,0.01235 0.004,0.03461 -10e-4,0.04601 -0.0136,0.03313 -0.0747,0.02596 -0.10344,0.02815 -0.0237,0.0014 -0.0467,0.0099 -0.0705,0.01288 -0.0151,0.0014 -0.0272,0.0086 -0.0418,0.01087 -0.0151,0.0014 -0.0287,0 -0.0445,0.005 -0.0329,0.0094 -0.0762,0.023 -0.11209,0.01584 -0.0158,-0.0028 -0.0324,-0.01877 -0.0497,-0.01951 -0.0237,-0.0014 -0.0344,0.01305 -0.0495,0.02374 -0.0173,0.01161 -0.0353,0.02099 -0.0517,0.03534 -0.0109,0.0099 -0.0237,0.01658 -0.0353,0.02579 -0.0107,0.0094 -0.0136,0.02374 -0.0223,0.03534 -0.007,0.01069 -0.0258,0.0302 -0.0316,0.04822 -0.003,-0.0037 -0.006,-0.0074 -0.009,-0.01161 -0.008,-0.0094 -0.0193,-0.01362 -0.0258,-0.02374 -0.005,-0.0057 -0.005,-0.01584 -0.009,-0.023 -0.004,-0.01012 -0.0121,-0.01362 -0.0195,-0.02007 -0.01,-0.01087 -0.0157,-0.02741 -0.0287,-0.0381 -0.0107,-0.0086 -0.0258,-0.01362 -0.0366,-0.02226 -0.0208,-0.0151 -0.0309,-0.03681 -0.049,-0.0532 -0.0344,-0.03238 -0.0631,-0.07417 -0.0963,-0.107855 -0.001,0.01933 0,0.01711 0.0166,0.0302 0.0107,0.0079 0.023,0.02007 0.0316,0.0302 0.051,0.0611 0.0747,0.145954 0.13436,0.201358 0.0438,0.04233 0.0856,0.08338 0.11724,0.135834 0.006,0.0086 0.0114,0.01785 0.0173,0.02797 -0.003,7.06e-4 -0.006,0.0021 -0.007,0.0028 -0.0225,0.0079 -0.0455,0.01436 -0.0677,0.02152 -0.0416,0.01362 -0.0755,0.02374 -0.10914,0.05098 -0.0158,0.01305 -0.0274,0.02946 -0.0453,0.0381 -0.0109,0.0052 -0.0225,0.0052 -0.0324,0.01013 -0.0281,0.0151 -0.0517,0.04454 -0.0762,0.06682 -0.0245,0.02226 -0.0497,0.03663 -0.0769,0.0554 -0.007,0.0057 -0.0215,0.01362 -0.0331,0.02226 0.0136,-0.0094 0.0295,-0.01785 0.0374,-0.02152 0.0136,-0.0065 0.0302,-0.0065 0.0445,-0.01288 0.041,-0.01951 0.067,-0.05466 0.0979,-0.08558 0.0322,-0.03164 0.0891,-0.06258 0.1351,-0.06479 0.0445,-0.0028 0.0826,0.01732 0.12866,0.0052 0.023,-0.0066 0.0346,-0.0037 0.0554,-0.0086 -7.1e-4,-7.05e-4 -7.1e-4,-7.05e-4 -7.1e-4,-7.05e-4 0,0 7.1e-4,0 7.1e-4,7.05e-4 0.002,0.0035 0.004,0.0057 0.006,0.0072 0.003,0.0028 0.005,0.0065 0.009,0.0094 0.0272,0.02501 0.0445,0.05025 0.0675,0.07896 0.0388,0.0497 0.0813,0.09056 0.12792,0.130867 0.0158,0.01436 0.0173,0.02152 0.0237,0.04105 0.0101,0.03164 0.0296,0.0611 0.046,0.09055 0.0116,0.02007 0.0252,0.02667 0.0195,0.05025 -0.005,0.01877 -0.0237,0.04104 -0.0331,0.05614 -0.0186,0.03238 -0.046,0.0589 -0.0668,0.09129 -0.004,0.0057 -0.009,0.01362 -0.0136,0.02374 -0.007,-0.01654 -0.0151,-0.0309 -0.0217,-0.05025 -0.009,-0.02946 -0.0151,-0.07418 -0.0329,-0.09847 -0.005,0 -0.0109,7.06e-4 -0.0158,7.06e-4 -0.003,-0.0035 -0.0109,-0.01711 -0.0101,-0.02357 0.002,-0.01379 0.005,-0.0072 0.0151,-0.01379 0.023,-0.0151 0.041,-0.02226 0.0596,-0.0438 0.0131,-0.0151 0.0302,-0.04951 0.0339,-0.06755 0.006,-0.02152 -0.007,-0.04178 -0.023,-0.05467 -0.0136,0.0042 -0.0151,0.01436 -0.0208,0.02522 -0.0136,0.02505 -0.0245,0.02505 -0.049,0.04602 -0.0114,0.01069 -0.0216,0.023 -0.0302,0.03589 -0.005,0.0028 -0.0101,0.005 -0.0151,0.0072 -0.007,0.0086 -0.0223,0.02374 -0.023,0.03517 -0.003,0.01527 7.1e-4,0.01305 0.0121,0.02374 0.021,0.01877 0.0304,0.03239 0.0388,0.05982 0.0131,0.03884 0.0252,0.07767 0.067,0.136575 -0.004,-0.0014 -0.006,-0.0028 -0.009,-0.0052 -0.0188,-0.0099 -0.0353,-0.02226 -0.0547,-0.03147 -0.0136,-0.0072 -0.0287,-0.01087 -0.0438,-0.01454 -0.0116,-0.0065 -0.0245,-0.01214 -0.0368,-0.01785 -0.0624,-0.02872 -0.11706,-0.06479 -0.16086,-0.119455 0.002,0.0072 0.006,0.01305 0.01,0.01803 -0.01,-0.01087 -0.0215,-0.01729 -0.0388,-0.02374 -0.0114,-0.005 -0.0302,-0.0065 -0.0409,-0.01288 -0.0101,-0.0065 -0.008,-0.01803 -0.023,-0.01877 -0.0138,-0.0014 -0.0202,0.01362 -0.0331,0.01362 -0.0136,-7.05e-4 -0.0309,-0.01566 -0.041,-0.023 -0.0272,-0.01859 -0.0567,-0.03221 -0.0834,-0.04877 -0.0295,-0.01877 -0.0611,-0.03387 -0.0928,-0.04969 -0.0107,-0.0057 -0.0173,-0.01069 -0.0272,-0.01785 -0.0151,-0.01231 -0.0346,-0.01951 -0.0539,-0.02596 -0.0287,-0.01087 -0.0561,-0.02597 -0.0856,-0.03514 -0.0366,-0.01161 -0.0733,-0.02596 -0.11006,-0.0381 -0.0129,-0.0037 -0.0223,-0.0086 -0.0344,-0.01453 -0.0324,-0.0151 -0.0813,-0.02505 -0.10786,-0.04951 -0.0158,-0.01436 -0.018,-0.01951 -0.0418,-0.02741 -0.0186,-0.0057 -0.0359,-0.01069 -0.0532,-0.02007 -0.0309,-0.01584 -0.0604,-0.0302 -0.0898,-0.04749 -0.0366,-0.023 -0.0762,-0.0416 -0.11577,-0.06037 -0.0396,-0.01785 -0.0733,-0.0438 -0.11007,-0.06534 -0.0344,-0.02025 -0.0675,-0.04454 -0.10196,-0.06553 -0.023,-0.01362 -0.0467,-0.02448 -0.069,-0.03737 -0.0626,-0.03369 -0.1143,-0.08117 -0.17909,-0.111355 -0.0388,-0.01877 -0.0769,-0.04178 -0.11651,-0.05687 -0.0208,-0.0072 -0.0416,-0.0094 -0.0618,-0.01584 -0.0223,-0.0079 -0.0423,-0.02226 -0.0653,-0.03094 -0.0136,-0.0057 -0.0295,-0.01069 -0.0453,-0.01729 0.005,0.0028 0.01,0.0066 0.0166,0.0086 0.0136,0.0079 0.0295,0.02025 0.0431,0.02815 0.0129,0.0086 0.0144,0.01637 0.0245,0.02575 0.0144,0.01436 0.0547,0.02025 0.0733,0.02596 0.041,0.01362 0.0747,0.04233 0.11651,0.05669 0.12939,0.04546 0.23798,0.129579 0.35302,0.202096 0.046,0.02946 0.10141,0.05614 0.15166,0.08135 0.0331,0.01637 0.0633,0.03865 0.0935,0.0589 0.026,0.01654 0.049,0.03238 0.0732,0.04675 0.0274,0.01729 0.0618,0.05245 0.0942,0.05466 0.009,7.05e-4 0.0166,-0.0059 0.026,-0.0044 0.006,0.0028 0.0107,0.0072 0.0151,0.01087 0.005,0 0.009,0 0.0144,-7.05e-4 0.0173,0.0079 0.0324,0.01803 0.0503,0.02575 0.0309,0.01309 0.0583,0.03755 0.0878,0.05338 0.0193,0.01069 0.0475,0.02357 0.0648,0.03663 0.0394,0.0309 0.0861,0.05743 0.12498,0.09203 0.0468,0.04086 0.10141,0.05963 0.15461,0.08982 0.0136,0.0079 0.0331,0.01584 0.0403,0.03094 0.0158,-0.005 0.0539,0.0037 0.0683,0.0065 0.0351,0.0086 0.0646,0.02081 0.0913,0.04178 0.0193,0.01436 0.0351,0.03239 0.0554,0.04749 0.0173,0.01214 0.0366,0.02226 0.0539,0.03295 0.0237,0.01362 0.0475,0.03534 0.0653,0.05393 0.0215,0.02152 0.0381,0.03313 0.0641,0.04822 0.0245,0.0151 0.046,0.03313 0.0683,0.05098 0.009,0.02025 0.0166,0.04031 0.0265,0.06111 0.0153,0.0302 0.0383,0.05835 0.0475,0.09129 0.006,0.02025 0,0.03755 -10e-4,0.05908 -0.002,0.03221 7.1e-4,0.05816 -0.008,0.09129 -0.0202,0.07326 -0.0705,0.129392 -0.0987,0.199884 -0.01,0.02448 -0.0178,0.05669 -0.0136,0.08338 0.002,0.01732 0.0136,0.03313 0.0151,0.05098 0.004,0.0381 -0.0173,0.06552 -0.0344,0.09718 -0.006,0.01069 -0.008,0.01859 -0.018,0.02575 -0.0151,0.0021 -0.0302,0.0044 -0.0453,0.0065 -0.0309,0.0066 -0.0626,0.01012 -0.0935,0.01235 -0.0223,0.0021 -0.0344,0.0086 -0.0574,0.0086 -0.0497,-7.06e-4 -0.10067,-0.0021 -0.15037,-0.0044 -10e-4,-0.01584 -10e-4,-0.03369 -0.004,-0.04454 -0.007,-0.05098 -0.0202,-0.106383 -0.0353,-0.156079 -0.0121,-0.0416 -0.0265,-0.08264 -0.0401,-0.124241 -0.0116,-0.03461 -0.0202,-0.06902 -0.0396,-0.101417 -0.0116,-0.02025 -0.0188,-0.05392 -0.0361,-0.06828 -0.008,-0.0065 -0.0171,-0.0014 -0.0215,-0.01379 0.0324,-0.02357 0.0742,-0.03736 0.10712,-0.05963 0.018,-0.01143 0.0361,-0.02152 0.0539,-0.03295 0.0287,-0.01803 0.0504,-0.04601 0.0742,-0.06847 0.0136,-0.01288 0.028,-0.02797 0.0431,-0.03939 0.0324,-0.02448 0.0725,-0.03608 0.10289,-0.06479 0.0201,-0.01933 0.0567,-0.03957 0.0703,-0.06534 -0.0171,-0.02247 -0.0747,0.04233 -0.0849,0.04804 -0.0309,0.01729 -0.0703,0.023 -0.10417,0.03884 -0.0482,0.023 -0.10491,0.0309 -0.1489,0.06184 -0.0258,0.01951 -0.0431,0.04325 -0.0698,0.06258 -0.0295,0.02081 -0.051,0.05246 -0.0819,0.07197 -0.0654,0.03957 -0.14375,-0.02025 -0.18333,-0.07049 -0.0193,-0.02596 -0.0438,-0.04896 -0.0633,-0.07399 -0.0208,-0.02522 -0.0316,-0.04546 -0.0589,-0.06185 -0.0151,-0.0094 -0.0497,-0.02522 -0.0641,-0.02963 0.0138,-0.0099 0.0223,-0.03221 0.0295,-0.0473 0.009,-0.02247 0.018,-0.0381 0.0331,-0.05688 0.0215,-0.02448 0.0331,-0.06184 0.0346,-0.09424 0,-0.01658 0.004,-0.03369 0.004,-0.04951 0,-0.01087 -0.005,-0.02099 -0.006,-0.03164 -0.004,-0.02448 -0.002,-0.05245 0,-0.07767 0.002,-0.04178 0.0121,-0.09056 -7.1e-4,-0.132337 0.009,0.04325 -0.0272,0.08411 -0.0388,0.122212 -0.0101,0.0302 -0.0173,0.06258 -0.0252,0.09424 -0.008,0.03164 -0.0258,0.06111 -0.0337,0.09277 -0.004,0.01288 0,0.02724 -0.005,0.03957 -0.006,0.01362 -0.0171,0.02505 -0.023,0.04031 -0.0136,0.03147 -0.0309,0.08614 -0.0624,0.10197 -0.0252,0.01305 -0.0497,0.0079 -0.0762,0.0072 -0.0388,-0.0014 -0.0727,0.01086 -0.10786,0.023 -0.0302,0.01012 -0.0561,0.0059 -0.0878,0.0021 -0.0547,-0.0057 -0.11136,-0.02596 -0.16529,-0.0072 -0.0316,0.01087 -0.0475,0.0114 -0.0791,-0.0028 -0.0223,-0.0099 -0.0418,-0.01933 -0.0661,-0.02007 -0.021,-0.0014 -0.0361,0.0072 -0.0554,0.0094 -0.0237,0.0035 -0.0482,-0.0059 -0.0712,-0.0052 -0.0344,7.06e-4 -0.0675,-0.0035 -0.10288,-0.0021 -0.0302,0.0014 -0.12295,0.0014 -0.11283,0.05172 0.006,0.03313 0.0287,0.0028 0.0433,-0.0044 0.0337,-0.01933 0.0804,-0.02081 0.11779,-0.01859 0.0374,0.0021 0.0762,-0.005 0.11283,0 0.023,0.0035 0.0554,0.02374 0.0784,0.01729 0.0223,0.04233 0.0698,0.05669 0.0999,0.08908 0.009,0.0094 0.009,0.01288 0.0151,0.02596 0.006,0.01658 0.021,0.02505 0.0302,0.03939 0.0123,0.01729 0.0173,0.04472 0.0238,0.06553 0.0101,0.03387 0.0158,0.07694 0.0136,0.111354 0,0.01161 -0.006,0.02741 -0.007,0.04031 0,0.01436 7e-4,0.02671 10e-4,0.04031 0.001,0.02723 0.0123,0.05172 0.0202,0.07841 0.006,0.01584 0.01,0.03514 0.0143,0.05245 -0.0223,-0.0044 -0.0445,-0.01087 -0.0655,-0.023 -0.004,0.0021 -0.007,0.0072 -0.009,0.01214 -0.0164,-0.01436 -0.0302,-0.0309 -0.0473,-0.0438 -0.0173,-0.01362 -0.0482,-0.02226 -0.069,-0.0302 -0.0166,-0.0065 -0.0324,-0.0151 -0.0482,-0.02081 -0.0124,-0.0052 -0.0237,-0.0044 -0.0351,-0.0079 -0.006,-0.0021 -0.009,-0.0086 -0.0145,-0.01013 -0.0107,-0.0037 -0.0144,-7.05e-4 -0.0251,-0.0057 -0.009,-0.0044 -0.0166,-0.01012 -0.0267,-0.01362 -0.0238,-0.0074 -0.049,-0.0094 -0.074,-0.01528 -0.0294,-0.0072 -0.0648,-0.0092 -0.0885,-0.02797 -0.0272,-0.02078 -0.0502,-0.04675 -0.0675,-0.07473 -0.006,-0.0094 -0.009,-0.0094 -0.018,-0.01658 -0.0114,-0.01288 -0.0179,-0.03164 -0.0302,-0.04528 -0.0265,-0.02872 -0.0618,-0.05393 -0.094,-0.07473 -0.0447,-0.02815 -0.0878,-0.06479 -0.13013,-0.09792 -0.0482,-0.03865 -0.0987,-0.07252 -0.15608,-0.09847 -0.0223,-0.0099 -0.0468,-0.023 -0.0698,-0.0309 -0.0193,-0.0072 -0.0431,-0.01288 -0.0653,-0.01933 -0.0281,-0.0079 -0.0626,-0.01732 -0.0849,-0.03737 -0.005,-0.0044 -0.008,-0.01305 -0.0123,-0.01655 -0.006,-0.0044 -0.0129,-0.0044 -0.0186,-0.0086 -0.0101,-0.0079 -0.0173,-0.02522 -0.0281,-0.03514 -0.0216,-0.02226 -0.0394,-0.0519 -0.0567,-0.07767 -0.0165,-0.023 -0.0366,-0.04454 -0.0734,-0.0762 0.003,0.0079 0.006,0.01436 0.009,0.02152 0.009,0.01012 0.018,0.02152 0.026,0.03312 0.0245,0.03865 0.0517,0.07252 0.0747,0.1143 0.0151,0.02579 0.0374,0.04804 0.0604,0.07031 0.0316,0.02815 0.0705,0.067 0.11006,0.08209 0.0265,0.0099 0.0445,0.01785 0.0668,0.03443 0.0121,0.0079 0.0237,0.01362 0.0374,0.01803 0.0252,0.01013 0.0396,0.02522 0.0618,0.03957 0.026,0.01859 0.0589,0.03737 0.0878,0.05099 0.01,0.0044 0.0158,0.0086 0.0251,0.01436 0.0202,0.01362 0.0425,0.0151 0.0626,0.02741 0.0136,0.0086 0.021,0.02152 0.0324,0.02946 0.0101,0.0072 0.0195,0.0079 0.0287,0.01584 0.0223,0.02007 0.0425,0.04601 0.0633,0.06681 0.009,0.0072 0.0158,0.01362 0.0237,0.023 0.0238,0.0302 0.0547,0.0589 0.0841,0.08117 0.0582,0.04546 0.11282,0.09866 0.18037,0.126633 0.0339,0.01362 0.0655,0.02798 0.10289,0.03313 0.0295,0.0035 0.0604,0.0021 0.0898,0.0086 0.0302,0.0079 0.0604,0.01362 0.0907,0.02226 -0.009,0.01288 -0.0173,0.02575 -0.0274,0.03589 -0.0237,0.02522 -0.051,0.04749 -0.0747,0.07326 -0.0274,0.0302 -0.0475,0.06773 -0.0675,0.102888 -0.0195,0.03663 -0.0425,0.06976 -0.067,0.103441 -0.0136,0.01803 -0.025,0.03607 -0.0394,0.05264 -0.0158,0.01785 -0.0353,0.03221 -0.0512,0.05025 -0.0136,0.01584 -0.0215,0.03461 -0.0331,0.05245 -0.0243,0.04105 -0.0552,0.07694 -0.0841,0.1143 -0.0826,0.109333 -0.16528,0.218663 -0.2321,0.338667 0.0784,-0.100679 0.16179,-0.196204 0.23505,-0.3013 0.0287,-0.04013 0.0453,-0.08761 0.0755,-0.127921 0.0302,-0.04031 0.0655,-0.0762 0.10141,-0.113566 0.0633,-0.06552 0.12866,-0.130863 0.187,-0.201359 0.0295,-0.03514 0.0582,-0.06976 0.0898,-0.101967 0.0107,-0.01305 0.018,-0.01584 0.0339,-0.02099 0.0144,-0.0042 0.0295,-0.0094 0.0431,-0.01288 0.0121,-0.0028 0.0208,-0.0086 0.0287,-0.01729 0.0109,-0.0028 0.0346,-0.0028 0.0453,0 0.0151,0.0044 0.0202,0.01161 0.0331,0.023 0.0287,0.0267 0.0495,0.05964 0.0898,0.07197 0.0453,0.01362 0.095,0.02007 0.14173,0.02505 0.0653,0.0079 0.1316,0.02318 0.19767,0.02448 -0.004,0.02152 0.002,0.03461 0.006,0.05393 0.004,0.02374 -0.004,0.04325 -0.0151,0.06184 -0.0121,0.02099 -0.0179,0.03663 -0.0423,0.04178 -0.0267,0.0035 -0.0475,-0.0021 -0.0727,-0.0094 -0.0317,-0.0094 -0.0503,-0.0042 -0.0747,-0.02872 -0.0215,-0.02152 -0.023,-0.02596 -0.0532,-0.02152 -0.0302,0.0021 -0.0626,-0.0079 -0.0935,-0.01309 -0.0324,-0.0042 -0.0733,-0.01933 -0.10639,-0.01436 0.0618,0.02025 0.11798,0.04601 0.17688,0.0727 0.028,0.01288 0.0554,0.02081 0.0849,0.02797 0.0208,0.0065 0.0409,0.01214 0.0626,0.01729 10e-4,0 0.003,7.05e-4 0.005,7.05e-4 -0.005,0.0014 -0.0101,0.0035 -0.0136,0.0057 -0.0116,0.0072 -0.0281,0.02522 -0.0361,0.03737 -0.006,0.01013 -0.007,0.02078 -0.0144,0.02946 -0.006,0.0094 -0.0114,0.01161 -0.0144,0.02155 -0.004,0.01231 -0.002,0.01436 -0.009,0.02448 -0.009,0.01161 -0.028,0.01729 -0.0394,0.02741 -0.0173,0.01584 -0.0296,0.02007 -0.0519,0.02798 -0.0186,0.0065 -0.0295,0.01658 -0.0445,0.02723 -0.0144,0.01012 -0.0295,0.01453 -0.0438,0.023 -0.0353,0.02099 -0.072,0.04546 -0.10289,0.06626 -0.0151,0.01069 -0.0337,0.01933 -0.0453,0.03295 -0.005,0.0059 -0.007,0.01658 -0.0121,0.023 -0.008,0.01161 -0.0215,0.01877 0.0272,-0.0057 0.0324,-0.0065 0.0418,-0.03369 0.0683,-0.04822 0.021,-0.01143 0.0504,-0.01711 0.0712,-0.02649 0.0374,-0.0151 0.0799,-0.03514 0.11504,-0.05761 0.0201,-0.01214 0.0359,-0.02872 0.0554,-0.04307 0.0309,-0.023 0.0683,-0.03313 0.0913,-0.06534 0.0129,-0.01803 0.0151,-0.03238 0.0166,-0.05319 0,-0.0037 7.1e-4,-0.02025 10e-4,-0.02244 0.002,-0.0065 0.0121,-0.01214 0.0107,-0.01859 0,-0.0021 -10e-4,-0.0028 -0.002,-0.0044 0.007,7.06e-4 0.0131,7.06e-4 0.0188,0.0021 0.0366,0.0057 0.0705,0.01729 0.10786,0.01729 0.006,-0.0151 -0.005,-0.0302 -0.007,-0.04454 -0.002,-0.01877 0.004,-0.03883 0.009,-0.05687 0.0107,-0.03369 0.0193,-0.06111 0.0388,-0.09056 0.0107,-0.01729 0.004,-0.01933 0.025,-0.01877 0.0295,7.06e-4 0.0618,0.0052 0.0913,0.0052 0.044,0.0014 0.0849,0.0079 0.12664,0 0.023,0.02649 0.0151,0.0705 0.0245,0.10197 0.006,0.01877 0.0107,0.023 0.006,0.04178 -0.006,0.02596 -0.0359,0.05467 -0.0576,0.06902 -0.0158,0.01288 -0.0381,0.02081 -0.0604,0.01877 -0.0258,-0.0044 -0.0468,-0.02244 -0.0747,-0.02025 -0.003,0.01161 0.0245,0.03884 0.0331,0.04749 0.0173,0.01584 0.0302,0.01877 0.0554,0.02723 0.0201,0.0072 0.0329,0.01453 0.0552,0.01379 0.0274,-0.0021 0.0547,-0.0066 0.0821,-7.05e-4 0.0473,0.0086 0.0891,0.03884 0.13657,0.04749 0.0316,0.005 0.0661,0.01711 0.0992,0.01584 0.0223,-0.0014 0.0503,-0.01087 0.069,0.0077 -0.008,0.0151 -0.0109,0.01803 -0.0144,0.03607 -0.0131,0.05172 -0.0302,0.10565 -0.0366,0.158841 -0.003,0.02374 0.006,0.02596 0.0136,0.04675 0.006,0.01933 0.005,0.04105 0.001,0.06037 -0.007,0.06037 -0.0791,0.0705 -0.12664,0.08559 -0.046,0.01584 -0.087,0.0028 -0.13583,0.0028 -0.0309,-7.06e-4 -0.0583,-0.0066 -0.0898,-0.01235 -0.0705,-0.01436 -0.14025,-0.0028 -0.21148,-0.005 -0.0547,-7.06e-4 -0.10288,-7.06e-4 -0.15387,-0.01877 -0.007,-0.0035 -0.0223,-0.0086 -0.0374,-0.01288 0.003,-0.0086 0.006,-0.01803 0.0101,-0.0267 0.009,-0.02007 0.0158,-0.04086 0.0208,-0.06184 0.004,-0.01362 0.004,-0.02872 0.006,-0.04233 0.002,-0.0151 7e-4,-0.03313 0.004,-0.04749 0.004,-0.01859 0.006,-0.02152 0.004,-0.04031 -10e-4,-0.01214 -7e-4,-0.01584 0,-0.02872 0.004,-0.0057 0.007,-0.0086 0.009,-0.0099 -0.0114,0.0077 -0.0129,0.01785 -0.0215,0.02872 -0.004,0.005 -0.0101,0.0086 -0.0136,0.01436 -0.0116,0.01803 -0.013,0.03884 -0.0158,0.05743 -0.005,0.03883 -0.021,0.07988 -0.0403,0.115034 -0.0272,0.05043 -0.0668,0.102154 -0.0871,0.156083 -0.004,0.01013 -0.004,0.02152 -0.008,0.03238 -0.004,0.01013 -0.0107,0.01732 -0.0151,0.02724 -0.006,0.01362 -0.009,0.03238 -0.0121,0.04602 -0.002,0.0079 -0.008,0.0094 -0.004,0.02099 -0.0265,0.01069 -0.046,0.04454 -0.0639,0.06534 -0.0353,0.04178 -0.0583,0.09626 -0.095,0.135833 -0.0596,0.06626 -0.18038,0.04399 -0.24369,0.1051 0.0309,0.0014 0.0596,-0.01235 0.0883,-0.02173 0.0145,-0.0042 0.0353,-0.0057 0.0425,-0.02152 -0.0166,0.01231 -0.0252,0.05614 -0.0309,0.07546 -0.008,0.02741 -0.0144,0.05761 -0.0188,0.08559 -0.002,0.02081 -0.0114,0.03608 -0.0144,0.05761 -0.003,0.01785 -0.0171,0.04602 -0.0143,0.06313 0.0143,-0.01069 0.0173,-0.03443 0.0223,-0.05172 0.009,-0.02946 0.0245,-0.06184 0.0418,-0.08632 0.0114,-0.01711 0.0237,-0.03939 0.0381,-0.05393 0.005,-0.0057 0.0144,-0.01288 0.0215,-0.01711 0.006,-0.0028 0.0116,-0.0065 0.0173,-0.0094 0.002,-0.0042 0.004,-0.0079 0.004,-0.01288 0.0101,-0.01086 0.018,-0.023 0.0282,-0.03313 0.0158,-0.01951 0.0359,-0.03164 0.0503,-0.05245 0.0116,-0.01658 0.0195,-0.03663 0.0339,-0.0497 0.0193,-0.01711 0.0337,-0.02081 0.0453,-0.04381 0.028,0.0014 0.0554,0.0086 0.0869,0.0086 0.0396,0 0.0606,0.01803 0.0928,0.0381 0.0158,0.0086 0.0295,0.02081 0.046,0.0302 0.0116,0.0057 0.0158,0.01436 0.0252,0.02081 0.0116,0.0079 0.026,0.0094 0.0374,0.01584 0.0223,0.01231 0.041,0.0309 0.0648,0.04031 0.0302,0.01214 0.0574,0.03443 0.0849,0.05614 0.0107,0.0092 0.025,0.01436 0.0374,0.02431 0.0114,0.01012 0.0201,0.023 0.0316,0.03313 0.0166,0.01436 0.0352,0.02596 0.051,0.04178 0.006,0.0079 0.0136,0.01658 0.0216,0.02226 -0.009,0.0035 -0.0186,0.0072 -0.0272,0.01214 -0.0353,0.01951 -0.0705,0.04252 -0.0992,0.06828 -0.0425,0.03608 -0.0828,0.07418 -0.12148,0.113566 -0.004,0.0014 -0.007,0.0021 -0.0116,0.0044 -0.0208,0.0057 -0.026,0.005 -0.0208,0.02448 -0.008,0.0072 -0.0158,0.01658 -0.0223,0.02505 0.007,-0.0072 0.0143,-0.0151 0.023,-0.023 0.005,0.01584 0.009,0.03164 0.0144,0.04601 0.006,0.01379 0.0129,0.01658 0.0193,0.02741 0.0144,0.02448 0.0144,0.05669 0.0302,0.08117 0.0123,0.01951 0.0173,0.04104 0.0302,0.06037 0.0101,0.01305 0.0238,0.02374 0.0331,0.0381 0.006,0.01012 0.0101,0.02099 0.0173,0.0309 0.0173,0.02226 0.0467,0.03681 0.0683,0.05467 0.0136,0.01235 0.0265,0.02667 0.0416,0.03884 0.0331,0.023 0.0655,0.05393 0.0863,0.08853 0.0203,0.03663 0.0482,0.07031 0.072,0.10565 0.0121,0.01859 0.0258,0.03443 0.0396,0.05246 0.01,0.01288 0.0201,0.02152 0.0316,0.0309 -0.0195,0 -0.044,-0.0014 -0.0591,0.005 0.0123,0.0094 0.0309,0.01584 0.0453,0.01379 0.008,-0.0014 0.0144,-0.0072 0.0217,-0.0079 0.0121,-0.0021 0.0295,7.06e-4 0.0423,-7.06e-4 0.0532,-0.0079 0.10418,-0.02522 0.15608,-0.04252 0.0164,-0.0057 0.0237,-0.01436 0.0381,-0.023 0.0257,-0.0151 0.0611,-0.01933 0.0891,-0.02798 0.0648,-0.02081 0.13013,-0.04031 0.18976,-0.07123 0.0331,-0.01584 0.0591,-0.04086 0.0885,-0.06387 0.0359,-0.02815 0.0697,-0.05761 0.10067,-0.09 0.0193,-0.02152 0.0374,-0.04527 0.056,-0.06755 -0.008,0.03164 -0.0158,0.06184 -0.028,0.09203 -0.028,0.06902 -0.0596,0.139513 -0.0985,0.204117 -0.0547,0.09074 -0.0856,0.194183 -0.1373,0.286212 -0.0144,0.02448 -0.0331,0.04454 -0.0475,0.06902 -0.0208,0.03736 -0.0425,0.07344 -0.0618,0.110067 -0.0158,0.02872 -0.0245,0.0589 -0.0431,0.08633 -0.009,0.01288 -0.0173,0.03147 -0.026,0.04307 -0.007,0.0072 -0.0201,0.01214 -0.028,0.01803 -0.0109,0.0072 -0.026,0.02226 -0.0381,0.0302 -0.026,0.0151 -0.0532,0.0302 -0.0806,0.0438 -0.0618,0.03164 -0.11927,0.07197 -0.17908,0.107121 -0.0381,0.023 -0.0762,0.04528 -0.11283,0.06903 -10e-4,-0.01658 -10e-4,-0.03313 -0.004,-0.05099 -0.002,-0.02244 -0.0116,-0.04822 -0.0144,-0.07196 -0.003,-0.03737 0.008,-0.07197 0.0164,-0.108595 0.005,-0.02007 0.0109,-0.03663 0.018,-0.0554 0.006,-0.01658 0.004,-0.03737 0.0116,-0.05246 -0.0534,0.04749 -0.0742,0.08632 -0.0841,0.132337 -0.007,0.0309 -0.0109,0.06755 -0.004,0.09773 0.004,0.02081 0.006,0.04381 0.008,0.06479 0.004,0.04031 0.008,0.07896 0,0.119267 -0.007,0.04454 -0.008,0.09847 0,0.143199 0.006,0.03514 0.0129,0.06828 0.0245,0.102705 0.008,0.02741 0.0223,0.04969 0.0351,0.07473 0.0158,-0.01362 0.002,-0.04086 0.006,-0.0589 10e-4,-0.01362 0.006,-0.01436 0.004,-0.0302 -0.001,-0.0151 0.002,-0.03164 0,-0.04749 -0.001,-0.0151 -0.008,-0.02872 -0.009,-0.0438 -0.004,-0.02797 -0.007,-0.0589 -0.004,-0.08853 0.003,-0.02946 0.0107,-0.06313 0.002,-0.09203 v -0.0028 c 0.0136,-0.0079 0.0287,-0.023 0.0438,-0.03094 0.0374,-0.02025 0.0762,-0.0381 0.11577,-0.05466 0.0366,-0.01584 0.0755,-0.02798 0.1086,-0.05172 0.0121,-0.0094 0.023,-0.01803 0.0351,-0.02448 0.0381,-0.02081 0.074,-0.03461 0.11577,-0.04749 0.0517,-0.01584 0.0948,-0.03663 0.11854,-0.08559 7e-4,-0.0014 7e-4,-0.0021 7e-4,-0.0035 0.0195,0.04528 0.0475,0.08835 0.069,0.130863 0.0116,0.02431 0.0289,0.04528 0.0475,0.06534 0.0287,0.03313 0.0517,0.0762 0.0777,0.113563 0.018,0.02522 0.0366,0.04896 0.0554,0.07344 -0.003,-0.0028 -0.006,-0.0044 -0.009,-0.0072 -0.004,-0.0028 -0.007,-0.0059 -0.0109,-0.0086 l 0.0289,0.0302 c 0.003,0.0028 0.006,0.0065 0.008,0.01012 0.006,0.0099 0.0121,0.01859 0.023,0.02575 0,7.06e-4 0.002,0.0014 0.004,0.0021 0.023,0.03239 0.0445,0.0705 0.0596,0.10565 0.0267,0.06184 0.0942,0.110804 0.13878,0.16105 0.008,0.0094 0.0109,0.01803 0.0188,0.02798 0.006,0.0079 0.005,0.01453 0.0201,0.01087 0.009,-0.0028 0.0216,-0.02226 0.028,-0.02724 0.0158,-0.01231 0.0346,-0.01584 0.0512,-0.023 0.0453,-0.02173 0.0876,-0.03755 0.13437,-0.05319 0.0324,-0.01013 0.0596,-0.02025 0.09,-0.03608 0.0366,-0.01933 0.069,-0.04307 0.10841,-0.05669 0.0145,-0.0052 0.0267,-0.0151 0.0403,-0.02173 -0.0668,0.02099 -0.13307,0.04178 -0.19914,0.06332 -0.0223,-0.01436 -0.0423,-0.03239 -0.0668,-0.04454 -0.0339,-0.01729 -0.0727,-0.01933 -0.10785,-0.02946 -0.0223,-0.0072 -0.0396,-0.01161 -0.0589,-0.02152 -0.0124,-0.0059 -0.0282,-0.01379 -0.0418,-0.01584 -0.0173,-0.0028 -0.0351,0.0028 -0.0532,-0.0021 -0.0151,-0.0037 -0.0302,-0.0086 -0.046,-0.01288 -0.0294,-0.0086 -0.0705,-0.01803 -0.0985,-0.0309 -0.0123,-0.0059 -0.0223,-0.01305 -0.0324,-0.02099 -0.002,-0.0028 -0.005,-0.0057 -0.006,-0.0077 -0.009,-0.01379 -0.0109,-0.02889 -0.018,-0.04252 -0.0121,-0.02226 -0.0193,-0.04675 -0.0309,-0.06829 -0.0287,-0.05172 -0.0567,-0.10215 -0.0883,-0.151663 -0.0195,-0.0309 -0.0289,-0.067 -0.0497,-0.09792 -0.0143,-0.02155 -0.0265,-0.0416 -0.0396,-0.06166 -0.0107,-0.01729 -0.0171,-0.03608 -0.0237,-0.05466 0.004,-0.0072 0.009,-0.0151 0.0131,-0.02173 0.0337,-0.06681 0.0646,-0.135833 0.0985,-0.203383 0.0245,-0.0497 0.0574,-0.09497 0.0928,-0.138042 0.0114,0.0057 0.0201,0.01362 0.0295,0.02374 0.0193,0.02081 0.0302,0.04749 0.046,0.06976 0.006,0.0086 0.0129,0.01143 0.0158,0.02522 0.003,0.01362 7.1e-4,0.02723 7.1e-4,0.04086 0,0.03313 0.004,0.03534 0.0316,0.03534 0.048,0 0.0913,-0.01235 0.13805,-0.0151 0.0618,-0.0037 0.11853,-0.02815 0.17743,-0.04748 0.0569,-0.01803 0.11227,-0.03607 0.1697,-0.05393 0.0173,-0.0057 0.0403,-0.0079 0.0561,-0.01732 0.0101,-0.0057 0.0109,-0.01214 0.0201,-0.01729 0.0324,-0.01785 0.0762,-0.02448 0.11228,-0.03589 0.0309,-0.01012 0.0626,-0.01951 0.0935,-0.02946 h 7.1e-4 c 7e-4,7.05e-4 7e-4,0.0014 0.002,0.0028 0,-0.0014 0,-0.0028 7.1e-4,-0.0042 0.0223,-0.0072 0.0438,-0.0151 0.0663,-0.02152 0.0502,-0.01309 0.0847,0.02374 0.13436,0.02226 0.006,0.0028 0.0116,0.0014 0.0166,-0.0037 0.006,-0.0014 0.009,0 0.0114,0.0059 0.0309,0.0057 0.0561,0.0151 0.0893,0.0151 0.0388,7.05e-4 0.074,0.0065 0.11136,0.01288 0.0195,0.0037 0.0381,0.005 0.0576,0.0057 0.0129,0.0021 0.0251,7.06e-4 0.0366,-0.0035 0.028,0.0028 0.0539,0.01933 0.0849,0.02081 0.0331,7.06e-4 0.0675,-0.0057 0.10068,-0.0072 0.0223,-0.0014 0.0539,-7.06e-4 0.0762,0.01288 0.002,0.023 0.005,0.04675 0.0107,0.06976 0.007,0.02741 0.007,0.05246 0.0158,0.07988 0.0158,0.04454 0.0188,0.09203 0.0237,0.138042 0.004,0.02649 -0.003,0.05172 -7.1e-4,0.07767 0.002,0.02505 0.0144,0.05246 0.023,0.0762 0.0101,0.0302 0.0166,0.097 0.0433,0.112829 -0.002,-0.113562 -0.0116,-0.227862 -0.004,-0.342162 0.003,-0.04031 -10e-4,-0.08209 10e-4,-0.1224 0.004,-0.04012 0.005,-0.07675 -7.1e-4,-0.117062 -0.004,-0.02946 -0.009,-0.05687 -0.0114,-0.08632 -0.003,-0.01933 -0.006,-0.03589 -0.0116,-0.05393 -0.0178,-0.05025 -0.0265,-0.09553 -0.0309,-0.146695 -0.003,-0.03957 -0.008,-0.0819 -0.0166,-0.120742 -0.005,-0.02152 -0.0186,-0.06037 0.004,-0.07399 0.0324,-0.02025 0.0769,0.005 0.10933,0.01143 0.0445,0.0079 0.0891,0.0021 0.13289,-0.0035 0.026,-0.0044 0.0339,-0.0066 0.0554,0.0042 0.0136,0.0072 0.0223,0.01362 0.0381,0.01803 0.0576,0.01214 0.11282,0.01436 0.17191,0.01143 0.0409,-0.0028 0.0646,-0.01933 0.10123,-0.02448 0.018,0.03164 0.0316,0.06479 0.0519,0.09571 0.0243,0.03514 0.0329,0.07325 0.046,0.115037 0.0186,0.05963 0.0381,0.119267 0.0574,0.179088 0.0339,0.106383 0.0648,0.213508 0.11007,0.315475 0.0252,0.0554 0.0589,0.09571 0.10638,0.133075 0.0166,0.0151 0.0381,0.02596 0.0517,0.04252 0.0267,0.03295 0.0346,0.08338 0.0611,0.117796 0.0316,0.04105 0.0683,0.07915 0.10491,0.115038 -0.0144,-0.01658 -0.0171,-0.03589 -0.0265,-0.05393 -0.0116,-0.01803 -0.0208,-0.02946 -0.0267,-0.05025 -0.008,-0.02815 -0.0215,-0.04896 -0.0374,-0.07344 -0.0129,-0.01785 -0.0223,-0.03957 -0.0344,-0.05669 -0.0144,-0.02099 -0.0359,-0.04399 -0.0532,-0.06479 -0.0245,-0.02872 -0.0339,-0.05098 -0.0497,-0.08706 -0.0158,-0.03736 -0.0265,-0.07675 -0.0396,-0.115588 -0.0179,-0.05761 -0.0366,-0.115775 -0.0547,-0.172646 -0.0151,-0.04602 -0.0243,-0.097 -0.0473,-0.139517 -0.0123,-0.02505 -0.0316,-0.04528 -0.0467,-0.06902 -0.0124,-0.01933 -0.0208,-0.04528 -0.0302,-0.06682 -0.0331,-0.07123 -0.0512,-0.145221 -0.0445,-0.223629 -0.009,0.005 -0.0202,0.005 -0.0316,0.0014 -0.0158,-0.0014 -0.0309,-0.0037 -0.046,-0.005 0.0396,-0.02596 0.0777,-0.05264 0.11209,-0.08135 0.0173,-0.01436 0.0309,-0.03295 0.0453,-0.05025 0.0295,-0.03663 0.072,-0.06902 0.10492,-0.102891 0.0467,-0.04454 0.0935,-0.08908 0.14098,-0.133072 0.0331,-0.03073 0.0611,-0.06387 0.0942,-0.09553 0.0324,-0.02946 0.0517,-0.07197 0.0718,-0.110801 0.0109,-0.02007 0.023,-0.03884 0.0331,-0.05816 0.0101,-0.01658 0.0109,-0.03589 0.0201,-0.05172 0.0153,-0.02815 0.0304,-0.05614 0.0468,-0.08338 0.0217,-0.03681 0.0281,-0.07988 0.0475,-0.115037 0.0143,-0.02667 0.0539,-0.02448 0.0791,-0.02667 0.0574,-0.0035 0.12001,0.0065 0.17614,-0.0086 0.0475,-0.01288 0.0928,-0.02448 0.14154,-0.02649 0.0195,-7.06e-4 0.0504,-0.01161 0.0655,-0.0021 0.007,0.0042 0.0158,0.01584 0.0237,0.02081 0.0114,0.0094 0.0208,0.01803 0.0316,0.02889 0.009,0.0092 0.0223,0.01711 0.0302,0.02797 0.006,0.0086 0.006,0.02007 0.0121,0.02946 0.009,0.01362 0.026,0.02374 0.0359,0.03589 0.0101,0.01436 0.0153,0.02889 0.0267,0.04326 0.009,0.01288 0.0201,0.02374 0.0302,0.03663 0.0195,0.02226 0.0396,0.04675 0.0604,0.06755 0.0611,0.0589 0.14669,0.0878 0.20927,0.145958 0.028,0.02596 0.0453,0.05761 0.0712,0.08412 0.006,0.0072 0.0287,0.02741 0.0401,0.02522 0.003,-0.01584 -0.0223,-0.02815 -0.0316,-0.03736 -0.0302,-0.0309 -0.0532,-0.06552 -0.0762,-0.100679 -0.0272,-0.04454 -0.0574,-0.08927 -0.0883,-0.1316 -0.0195,-0.02797 -0.0502,-0.06829 -0.0777,-0.08835 -0.0438,-0.03164 -0.0841,-0.07049 -0.12147,-0.108592 -0.0116,-0.01161 -0.0188,-0.02596 -0.0252,-0.04031 -0.01,-0.02522 -0.0223,-0.03884 -0.0416,-0.05614 -0.018,-0.01658 -0.0576,-0.03238 -0.0698,-0.05172 -0.004,-0.0065 -0.007,-0.02007 -0.009,-0.02724 -0.002,-0.01584 10e-4,-0.01379 0.004,-0.02667 0.003,-0.0151 0,-0.02872 0.004,-0.04381 0.008,-0.02889 0.0223,-0.05614 0.0359,-0.08209 0.0281,-0.05393 0.0583,-0.107121 0.0906,-0.158108 0.023,-0.03589 0.0482,-0.06681 0.0762,-0.09994 0.021,-0.02448 0.0368,-0.05319 0.0561,-0.07915 0.0173,-0.02226 0.028,-0.0473 0.0445,-0.06976 0.008,-0.0092 0.0151,-0.01362 0.021,-0.02649 0.009,-0.02522 0.0258,-0.04252 0.0409,-0.06607 0.0339,-0.05467 0.0826,-0.102154 0.12148,-0.153138 0.0173,-0.02099 0.0361,-0.03957 0.0519,-0.06111 0.0107,-0.01453 0.0201,-0.02963 0.0302,-0.04399 -0.0131,0.01362 -0.0289,0.02872 -0.0324,0.03313 -0.0216,0.01859 -0.0467,0.0302 -0.0698,0.04528 -0.0497,0.03313 -0.0792,0.07694 -0.11503,0.121479 -0.0287,0.03461 -0.0418,0.07914 -0.0712,0.112825 -0.0114,0.01379 -0.0272,0.02244 -0.0374,0.03534 -0.0193,0.02448 -0.0337,0.05963 -0.0482,0.08687 -0.0201,0.03828 -0.046,0.07565 -0.0653,0.115221 -0.0173,0.03221 -0.0309,0.06755 -0.051,0.0992 -0.0143,0.02357 -0.0331,0.04528 -0.0447,0.07031 -0.0157,0.03461 -0.0295,0.07049 -0.0374,0.107859 -0.003,0.01655 -0.001,0.03534 -0.01,0.05043 -0.021,0.03737 -0.0683,0.04749 -0.10584,0.0589 -0.079,0.02522 -0.15387,0.05319 -0.23725,0.04601 -0.0201,-0.0014 -0.0626,-0.01655 -0.0913,-0.0151 v -0.0021 c -0.001,-0.03736 -0.0129,-0.07252 -0.0158,-0.108595 -0.002,-0.02946 10e-4,-0.06037 -0.002,-0.09055 -0.004,-0.02575 -0.009,-0.05172 -0.0101,-0.0797 -7e-4,-0.023 0.006,-0.04454 7.1e-4,-0.06773 -0.004,-0.02152 -0.0144,-0.04381 -0.0208,-0.06534 -0.0153,-0.04749 -0.0245,-0.0878 -0.026,-0.139516 -0.002,-0.05669 -10e-4,-0.119271 0.0129,-0.174671 0.0144,0.0086 0.0274,0.01877 0.0353,0.02667 0.0151,0.01566 0.0215,0.03295 0.0394,0.04804 0.018,0.01362 0.0304,0.02522 0.0512,0.03313 0.0554,0.02081 0.0804,0.03238 0.14227,0.02448 0.0324,-0.0044 0.0826,-0.0037 0.11007,-0.01877 -0.0116,-0.0065 -0.0252,-0.0042 -0.0374,-0.0065 -0.0215,-0.005 -0.0467,-0.01729 -0.0663,-0.02649 -0.0401,-0.02244 -0.0782,-0.03755 -0.11061,-0.0692 -0.0208,-0.02007 -0.0433,-0.03865 -0.0648,-0.05669 -0.007,-0.0057 -0.0201,-0.0151 -0.0295,-0.01877 -0.0309,-0.01436 -0.0791,-0.02723 -0.11061,-0.03443 -0.0849,-0.01877 -0.17412,0.0042 -0.25823,0.0086 -0.0193,7.05e-4 -0.0359,-0.0059 -0.0554,-0.01087 -0.0381,-0.01069 -0.0762,-0.01362 -0.11283,-0.03164 -0.0309,-0.0151 -0.051,-0.02448 -0.0849,-0.0309 -0.0653,-0.01288 -0.1316,-0.02946 -0.19473,-0.05098 -0.0296,-0.0086 -0.0296,-0.01436 -0.0532,-0.0014 -0.013,0.0079 -0.0245,0.0151 -0.0403,0.02152 0.0287,-0.01436 0.0482,-0.0416 0.0697,-0.06258 0.0317,-0.03073 0.0596,-0.07473 0.0777,-0.115588 0.01,-0.02448 0.008,-0.0519 0.005,-0.07841 -0.003,-0.03164 -0.001,-0.05614 0.005,-0.0878 0.008,-0.0381 0.0289,-0.0589 0.049,-0.09055 0.0114,-0.01729 0.0201,-0.03663 0.0309,-0.05393 0.0208,-0.03164 0.0539,-0.07252 0.0604,-0.11062 0.002,-0.01658 7.1e-4,-0.03313 0.004,-0.0497 0.004,-0.03313 0.009,-0.06184 0.008,-0.09497 -10e-4,-0.05099 0.009,-0.100683 0,-0.150929 -0.0136,0.05393 -0.0525,0.09773 -0.0596,0.1524 -0.003,0.02522 -0.006,0.05117 -0.0144,0.07399 -0.005,0.01453 -0.0151,0.02741 -0.0186,0.04252 -0.004,0.01729 -0.006,0.02946 -0.0138,0.04675 -0.0144,0.03165 -0.0251,0.06681 -0.0316,0.101417 -0.005,0.02431 -0.0107,0.04951 -0.0107,0.07473 -7.1e-4,0.03164 -0.0116,0.04951 -0.0281,0.07473 -0.0359,0.05393 -0.0762,0.104913 -0.11357,0.158292 -0.0272,0.03865 -0.069,0.06313 -0.0948,0.101967 -0.0166,0.02448 -0.0482,0.03387 -0.0749,0.03461 -0.0416,0.0014 -0.0747,-0.0059 -0.10638,-0.03313 -0.0208,-0.01729 -0.0431,-0.02797 -0.0668,-0.04233 -0.001,-7.06e-4 -0.003,-0.0014 -0.004,-0.0028 0,-0.0021 7.1e-4,-0.0044 7.1e-4,-0.0065 10e-4,-0.03461 0.006,-0.0762 0.0252,-0.106387 0.0116,-0.01951 0.0252,-0.03387 0.0418,-0.0497 0.0287,-0.02798 0.048,-0.05743 0.071,-0.08908 0.0274,-0.04031 0.0331,-0.09 0.0534,-0.134546 0.0164,-0.03443 0.0236,-0.06608 0.0322,-0.102704 0.0158,-0.06626 0.0274,-0.133812 0.0381,-0.201358 0,-0.0021 0.001,-0.005 0.002,-0.0072 -0.009,0.01933 -0.0136,0.03957 -0.023,0.05816 -0.0151,0.02946 -0.0339,0.05393 -0.0468,0.08338 -0.002,0.0014 -0.002,0.0028 -0.004,0.0052 -0.004,-0.01436 -0.009,-0.02872 -0.0138,-0.04399 -0.009,-0.02797 -0.009,-0.05393 -0.0164,-0.08191 -0.0145,-0.05245 -0.0346,-0.09994 -0.0576,-0.148166 -0.018,-0.0381 -0.046,-0.05669 -0.0871,-0.05595 -0.008,0 -0.0158,0.0035 -0.0236,0.0035 -0.006,-7.06e-4 -0.0123,-0.0065 -0.0188,-0.0072 -7.1e-4,0 -0.001,0 -0.002,0 0.004,-0.0079 0.006,-0.01584 0.0109,-0.02448 -0.006,0.0052 -0.0131,0.01013 -0.0188,0.01584 -0.004,0.0028 -0.006,0.0066 -0.01,0.01087 -0.009,0.0021 -0.018,0.005 -0.0289,7.05e-4 0.009,0.0028 0.0166,0.0035 0.0245,0.005 -0.0223,0.02872 -0.041,0.06258 -0.0582,0.0935 -0.0237,0.04031 -0.0519,0.07197 -0.0762,0.110066 -0.0339,0.05098 -0.0749,0.104913 -0.0999,0.160313 -0.0131,0.02723 -0.021,0.05246 -0.0445,0.07399 -0.0252,0.02374 -0.046,0.0497 -0.0692,0.07547 -0.0315,0.03736 -0.0977,0.05043 -0.14375,0.06258 -0.028,0.0072 -0.0517,0.0086 -0.074,-0.0072 -0.018,-0.01362 -0.018,-0.01658 -0.0388,-0.01729 -0.0359,-0.0014 -0.0497,-0.01436 -0.0826,-0.03164 -0.0215,-0.01069 -0.0453,-0.02007 -0.0663,-0.03147 -0.005,-0.0028 -0.0129,-0.01086 -0.0186,-0.01235 -0.0403,-0.01214 -0.0913,0.01658 -0.13087,0.0028 -0.0109,-0.0037 -0.0158,-0.0151 -0.0252,-0.02099 -0.0215,-0.01436 -0.051,-0.01637 -0.0755,-0.02505 -0.0193,-0.0072 -0.0331,-0.01235 -0.0525,-0.01658 -0.018,-0.0044 -0.0295,-0.01729 -0.0482,-0.01087 -0.005,-0.03164 0.009,-0.07031 0.0151,-0.100679 0.003,-0.01362 0.008,-0.02649 0.006,-0.03939 -7e-4,-0.0066 -0.005,-0.01087 -0.004,-0.01729 0,-0.0094 0.006,-0.02152 0.007,-0.0309 0.001,-0.01087 0.001,-0.02007 0.005,-0.03164 7.1e-4,-0.0037 0.002,-0.0072 0.004,-0.01143 0.0359,-0.03239 0.0646,-0.04749 0.0841,-0.07123 0.008,-0.01013 0.0158,-0.02025 0.0245,-0.0302 -0.0296,0 -0.0576,0.0014 -0.0814,0.02155 -0.003,0.0021 -0.005,0.005 -0.008,0.0072 0,-0.0037 10e-4,-0.0065 0.002,-0.01012 10e-4,-0.01711 -0.003,-0.0302 7.1e-4,-0.04675 0.008,-0.0381 0.0114,-0.08485 0.0245,-0.119271 0.0166,-0.04105 0.0453,-0.0762 0.0626,-0.117245 0.0107,-0.02501 0.0121,-0.04804 0.0157,-0.07399 0.006,-0.04601 -0.004,-0.09055 0.004,-0.136571 0.005,-0.03313 0.0129,-0.06553 0.0173,-0.09847 0.0107,0.0028 0.023,0.0092 0.0812,0.01711 0.0136,0 0.0252,0.0086 0.0366,0.01161 0.0158,0.0042 0.0317,0.005 0.046,0.0099 0.0267,0.0086 0.0547,0.01729 0.0814,0.02741 0.0129,0.0057 0.0366,0.01288 0.048,0.02007 0.008,0.0052 0.0158,0.01951 0.0224,0.02667 0.009,0.0086 0.0171,0.01859 0.0258,0.02723 0.0309,0.03461 0.0784,0.02741 0.0999,0.06755 0.023,-0.0028 0.049,0.0021 0.0705,0.0037 0.0418,0.0028 0.0834,0.0065 0.12442,0.0079 0.0151,7.05e-4 0.0295,-7.06e-4 0.046,-0.0014 -0.0188,0.0094 -0.0366,0.02872 -0.0497,0.03589 -0.0359,0.02374 -0.0639,0.05264 -0.10141,0.07344 -0.0381,0.02081 -0.0769,0.05098 -0.1178,0.0646 -0.0274,0.0094 -0.0583,0.0151 -0.0841,0.02815 -0.0252,0.01143 -0.0453,0.02374 -0.0734,0.03164 -0.0525,0.01584 -0.10859,0.0035 -0.16179,0.02226 -0.033,0.01288 -0.0639,0.03663 -0.092,0.05743 -0.0158,0.01161 -0.0287,0.02741 -0.0401,0.04252 0.0179,7.06e-4 0.0374,0.0014 0.0567,0 0.0237,-0.0021 0.0374,0 0.0604,-0.0079 0.0396,-0.01305 0.0792,-0.02596 0.11872,-0.0381 0.14025,-0.04454 0.28473,-0.08559 0.39903,-0.182033 0.0223,-0.01859 0.0467,-0.023 0.0698,-0.03737 0.0114,-0.0079 0.023,-0.01933 0.0324,-0.02798 0.0164,-0.0151 0.0366,-0.01933 0.0438,-0.04454 -0.007,-0.0057 -0.0158,-0.0151 -0.026,-0.02081 0.0131,-7.05e-4 0.026,-7.05e-4 0.0381,7.06e-4 0.0158,0.0014 0.0237,0.0094 0.0346,0.01803 0.0317,0.04896 0.0431,0.06405 0.0525,0.06037 0.0144,-0.0065 0.001,-0.02007 0,-0.02872 -7e-4,-0.0042 0,-0.0072 -7e-4,-0.01087 0.0121,0.0014 0.026,-7.05e-4 0.0374,0.0014 0.0158,0.0044 0.0109,0.01013 0.0295,0.0057 0.0109,-0.0021 0.0203,-0.0079 0.0309,-0.0085 0.0123,-0.0014 0.023,0.0057 0.0361,0.005 0.0251,-0.0021 0.0431,-0.02798 0.0639,-0.03884 0.004,-0.0014 0.007,-0.0037 0.0116,-0.005 -0.009,-0.0044 -0.018,-0.0094 -0.0274,-0.01379 -0.0186,-0.0092 -0.0396,-0.01288 -0.0611,-0.01143 -0.0302,0.0014 -0.0582,0.02448 -0.0883,0.02649 -0.0116,0.0014 -0.0223,-0.0014 -0.0316,-0.0057 0.002,-0.02723 0.008,-0.05595 0.008,-0.0819 0,-0.01729 -0.001,-0.02946 10e-4,-0.04528 0.009,-0.05319 0.0473,-0.09497 0.0646,-0.145221 0.0151,-0.04399 0.0195,-0.09718 0.006,-0.140988 -0.009,-0.03589 -0.023,-0.0589 -0.0158,-0.09552 0.007,-0.03461 0.005,-0.06185 0.0237,-0.0935"
       style="fill:#21201d;fill-opacity:1;fill-rule:nonzero;stroke:none;stroke-width:0.184057"
       id="path608" />
    <path
       d="m 420.83462,51.572267 c -0.007,0.0079 -0.0116,0.01584 -0.0166,0.02374 0.009,-0.01069 0.0171,-0.02081 0.0166,-0.02374"
       style="fill:#21201d;fill-opacity:1;fill-rule:nonzero;stroke:none;stroke-width:0.184057"
       id="path610" />
    <path
       d="m 415.85424,50.368713 c -0.007,0.0044 -0.0136,0.0094 -0.0144,0.01362 0.003,-0.005 0.008,-0.0092 0.0144,-0.01362"
       style="fill:#21201d;fill-opacity:1;fill-rule:nonzero;stroke:none;stroke-width:0.184057"
       id="path612" />
    <path
       d="m 414.35584,49.684201 c -0.009,-0.005 -0.0158,-0.01069 -0.0215,-0.01637 0.004,0.0079 0.0129,0.01288 0.0215,0.01637"
       style="fill:#21201d;fill-opacity:1;fill-rule:nonzero;stroke:none;stroke-width:0.184057"
       id="path614" />
    <path
       d="m 414.35584,49.684201 c 0.0144,0.0094 0.0324,0.01658 0.0504,0.02374 -0.008,-0.005 -0.0144,-0.0092 -0.0237,-0.01362 -0.007,-0.0042 -0.018,-0.0072 -0.0267,-0.01012"
       style="fill:#21201d;fill-opacity:1;fill-rule:nonzero;stroke:none;stroke-width:0.184057"
       id="path616" />
    <path
       d="m 413.57434,50.57228 c 0.0136,0.01143 0.0267,0.02152 0.0374,0.0309 -7.1e-4,-0.0021 -0.002,-0.0044 -0.003,-0.0066 -0.008,-0.0099 -0.0215,-0.02505 -0.0346,-0.02431"
       style="fill:#21201d;fill-opacity:1;fill-rule:nonzero;stroke:none;stroke-width:0.184057"
       id="path618" />
    <path
       d="m 415.50048,52.144688 c 0.001,-7.06e-4 0.003,-0.0014 0.004,-0.0028 -7.1e-4,7.05e-4 -10e-4,0.0014 -0.004,0.0028"
       style="fill:#21201d;fill-opacity:1;fill-rule:nonzero;stroke:none;stroke-width:0.184057"
       id="path620" />
    <path
       d="m 417.4316,55.029059 c 0.005,-0.0014 0.0101,-0.0028 0.0151,-0.0042 -0.005,7.05e-4 -0.01,0.0021 -0.0151,0.0042"
       style="fill:#21201d;fill-opacity:1;fill-rule:nonzero;stroke:none;stroke-width:0.184057"
       id="path622" />
    <path
       d="m 416.65654,54.850892 c -0.005,-0.0072 -0.009,-0.01436 -0.0179,-0.01877 z"
       style="fill:#21201d;fill-opacity:1;fill-rule:nonzero;stroke:none;stroke-width:0.184057"
       id="path624" />
    <path
       d="m 416.66372,54.86028 c 0.005,0.0057 0.0109,0.0099 0.0158,0.01362 l -0.0223,-0.023 c 10e-4,0.0035 0.004,0.0065 0.006,0.0094"
       style="fill:#21201d;fill-opacity:1;fill-rule:nonzero;stroke:none;stroke-width:0.184057"
       id="path626" />
    <path
       d="m 418.85527,50.778609 c -0.009,0.01658 -0.0144,0.03369 -0.0188,0.05172 7e-4,-0.0014 10e-4,-0.0037 0.003,-0.0057 0.007,-0.01436 0.0121,-0.0302 0.0158,-0.04602"
       style="fill:#21201d;fill-opacity:1;fill-rule:nonzero;stroke:none;stroke-width:0.184057"
       id="path628" />
    <path
       d="m 418.90331,50.692288 c 0.0252,-0.04822 0.0331,-0.10565 0.0433,-0.158108 0.0107,-0.05319 -0.0151,-0.08853 -0.023,-0.138779 -0.003,0.0309 -0.0131,0.05963 -0.0195,0.08908 -0.006,0.02596 -0.0114,0.05172 -0.0171,0.07694 -0.006,0.02667 -0.0203,0.0554 -0.0232,0.08264 -0.004,0.03094 0.007,0.06037 7e-4,0.0935 -0.003,0.01288 -0.006,0.02741 -0.008,0.04105 0.0136,-0.02946 0.0315,-0.05688 0.0473,-0.08632"
       style="fill:#21201d;fill-opacity:1;fill-rule:nonzero;stroke:none;stroke-width:0.184057"
       id="path630" />
    <path
       d="m 418.14703,48.020501 c -0.0121,0.04104 -0.0295,0.07565 -0.026,0.117245 v 7.06e-4 c 7.1e-4,0 7.1e-4,-7.06e-4 7.1e-4,-7.06e-4 0.0136,-0.03957 0.013,-0.07988 0.0252,-0.117245"
       style="fill:#21201d;fill-opacity:1;fill-rule:nonzero;stroke:none;stroke-width:0.184057"
       id="path632" />
    <path
       d="m 416.80765,49.459284 0.01,-0.01235 c -0.003,7.06e-4 -0.006,0.0021 -0.009,0.0044 0,0.0021 -7e-4,0.005 -7e-4,0.0079"
       style="fill:#21201d;fill-opacity:1;fill-rule:nonzero;stroke:none;stroke-width:0.184057"
       id="path634" />
  </g>
</svg>
