<?xml version="1.0" encoding="UTF-8" standalone="no"?>
<!-- Created with Inkscape (http://www.inkscape.org/) -->

<svg
   width="7.1518116mm"
   height="7.5092759mm"
   viewBox="0 0 7.1518116 7.5092759"
   version="1.1"
   id="svg3002"
   inkscape:version="1.1.2 (0a00cf5339, 2022-02-04)"
   sodipodi:docname="z1.svg"
   xmlns:inkscape="http://www.inkscape.org/namespaces/inkscape"
   xmlns:sodipodi="http://sodipodi.sourceforge.net/DTD/sodipodi-0.dtd"
   xmlns="http://www.w3.org/2000/svg"
   xmlns:svg="http://www.w3.org/2000/svg">
  <sodipodi:namedview
     id="namedview3004"
     pagecolor="#ffffff"
     bordercolor="#666666"
     borderopacity="1.0"
     inkscape:pageshadow="2"
     inkscape:pageopacity="0.0"
     inkscape:pagecheckerboard="0"
     inkscape:document-units="mm"
     showgrid="false"
     inkscape:zoom="0.64052329"
     inkscape:cx="277.89778"
     inkscape:cy="175.63764"
     inkscape:window-width="2560"
     inkscape:window-height="1376"
     inkscape:window-x="0"
     inkscape:window-y="0"
     inkscape:window-maximized="1"
     inkscape:current-layer="layer1" />
  <defs
     id="defs2999" />
  <g
     inkscape:label="Layer 1"
     inkscape:groupmode="layer"
     id="layer1"
     transform="translate(-31.535364,-101.99221)">
    <path
       d="m 32.922408,104.53121 c 0.105647,0.003 0.224917,0 0.299826,-0.0755 0.03369,0.0359 0.06755,0.072 0.100496,0.10786 0.16105,-0.0883 0.35523,-0.0871 0.539284,-0.0841 0.180559,0.004 0.361672,0.006 0.542047,0.009 0.02889,0 0.06111,10e-4 0.08209,0.0215 0.147246,-0.0497 0.295409,-0.0963 0.443576,-0.14227 0.01362,0.0302 0.02723,0.0618 0.04031,0.092 0.141538,-0.0885 0.324859,-0.0468 0.488851,-0.0145 0.168229,0.0331 0.339401,0.0519 0.509651,0.0569 0.06847,0.002 0.140254,7.4e-4 0.19915,-0.0339 0.03681,-0.0215 0.06553,-0.0545 0.103625,-0.0733 0.0819,-0.041 0.178351,-0.004 0.265226,0.0252 0.23375,0.0782 0.486826,0.0992 0.728309,0.0495 0.05835,-0.0121 0.117242,-0.028 0.175405,-0.0201 0.05908,0.009 0.111538,0.0396 0.167675,0.0561 0.09405,0.0265 0.199884,0.006 0.278109,-0.0512 0.227309,0.10436 0.486093,0.10933 0.73696,0.11154 -0.556401,0.0381 -1.112986,0.0747 -1.668653,0.11209 -0.557139,0.0366 -1.115194,0.0755 -1.673807,0.0777 -0.06534,7.4e-4 -0.132334,0 -0.193442,-0.023 -0.04307,-0.0166 -0.0819,-0.0438 -0.125709,-0.0611 -0.06976,-0.0287 -0.145958,-0.0302 -0.221421,-0.0309 -0.130129,0 -0.260992,-0.001 -0.391855,-0.002 l -0.312896,-0.003 c -0.388176,-0.003 -0.776348,-0.005 -1.164707,-0.008 -0.238537,-0.001 -0.476521,-0.004 -0.714505,-0.005 -0.09148,-7.4e-4 -0.18553,-0.002 -0.268909,-0.0388 -0.118713,-0.0517 -0.35173,0.0309 -0.35173,-0.11504 0.460876,0.0295 0.921752,0.0619 1.387048,0.0619"
       style="fill:#21201d;fill-opacity:1;fill-rule:nonzero;stroke:none;stroke-width:0.184057"
       id="path564" />
    <path
       d="m 34.327124,102.22902 c -0.07749,0.0361 -0.157367,0.0799 -0.201909,0.15258 -0.04601,0.0732 -0.04031,0.18406 0.03164,0.23007 -0.03884,0.1235 -0.228046,0.14651 -0.263938,0.27094 -0.01288,0.0475 0,0.0972 0.01436,0.14448 0.02522,0.0841 0.05172,0.16823 0.07988,0.25106 0.02575,0.0755 0.05319,0.1524 0.103438,0.2135 0.04178,0.0502 0.09571,0.0876 0.149638,0.12443 0.197679,0.13436 0.401058,0.2724 0.634809,0.32707 0.407684,0.0963 0.832489,-0.0733 1.250294,-0.0453 0.05467,0.003 0.1143,0.009 0.156817,-0.0267 0.01933,-0.0171 0.03221,-0.0416 0.04233,-0.0661 0.07693,-0.18184 0.07049,-0.38891 0.02448,-0.58162 -0.04528,-0.19123 -0.127921,-0.3718 -0.200621,-0.55512 -0.09056,-0.23081 -0.187001,-0.48959 -0.409893,-0.59671 -0.09405,-0.0453 -0.201175,-0.0576 -0.305534,-0.0653 -0.173196,-0.0131 -0.347867,-0.0173 -0.521984,-0.0116 -0.01785,7.4e-4 -0.03736,0.001 -0.05098,0.0144 -0.01362,0.0109 -0.0151,0.0366 7.05e-4,0.0445 0.332222,-0.0747 0.702356,0.046 0.925985,0.30278 0.133075,0.15387 0.212771,0.34437 0.286209,0.5334 0.05816,0.14669 0.113563,0.30774 0.06976,0.4594 -0.04325,0.14743 -0.173383,0.25456 -0.309216,0.32652 -0.265226,0.14081 -0.581618,0.18406 -0.876477,0.12148 -0.119267,-0.0259 -0.243688,-0.0755 -0.311238,-0.17761 -0.01951,-0.0309 -0.03461,-0.0653 -0.05835,-0.0935 -0.02431,-0.0295 -0.05669,-0.0495 -0.08761,-0.0718 -0.115037,-0.0841 -0.205592,-0.20209 -0.25455,-0.33517 -0.01362,-0.0344 -0.02448,-0.0703 -0.023,-0.10786 0.0021,-0.0631 0.03884,-0.11927 0.0589,-0.17816 0.04749,-0.13602 0.01729,-0.29836 0.10215,-0.41487 0.0309,-0.0433 0.07473,-0.0747 0.117979,-0.10491 0.146692,-0.1051 0.292651,-0.20357 0.457934,-0.27609 -0.217925,0.0129 -0.4364,0.10123 -0.632051,0.19179"
       style="fill:#21201d;fill-opacity:1;fill-rule:nonzero;stroke:none;stroke-width:0.184057"
       id="path566" />
    <path
       d="m 31.950224,105.16179 c -0.08835,0.0425 -0.201176,0.0525 -0.255105,0.13455 -0.04969,0.0733 -0.02741,0.1732 -0.0028,0.25952 0.01729,0.0611 0.03461,0.12369 0.05172,0.18535 0.03387,0.11945 0.06755,0.23799 0.108596,0.35449 0.005,0.0131 0.0094,0.026 0.01877,0.0368 0.03221,0.0352 0.08982,0.0129 0.136571,0.004 0.226388,-0.046 0.38615,0.26026 0.616221,0.27038 0.126446,0.006 0.247922,-0.0957 0.265226,-0.22087 0.0042,-0.0309 0.005,-0.0668 0.02946,-0.0869 0.0151,-0.0109 0.03387,-0.0136 0.05172,-0.0166 0.12295,-0.0151 0.268905,-0.0806 0.271851,-0.20357 0.0021,-0.071 -0.04822,-0.13583 -0.05043,-0.20688 -0.0021,-0.0685 0.03037,-0.15682 -0.02797,-0.19142 -0.03369,-0.0208 -0.07841,-0.006 -0.114297,-0.0201 -0.06976,-0.026 -0.06534,-0.12719 -0.03589,-0.19492 0.0302,-0.0675 0.07399,-0.14228 0.04307,-0.20983 -0.02522,-0.0569 -0.09203,-0.0799 -0.151663,-0.0972 -0.184792,-0.0532 -0.408418,-0.12571 -0.601863,-0.0775 -0.158105,0.0388 -0.20338,0.21057 -0.353018,0.28032"
       style="fill:#21201d;fill-opacity:1;fill-rule:nonzero;stroke:none;stroke-width:0.184057"
       id="path568" />
    <path
       d="m 34.453753,106.90169 c 0.03517,0.0604 0.09203,0.0878 0.16105,0.1259 0.06405,0.0344 7.06e-4,0.12792 0.07546,0.11283 0.05393,-0.0114 0.107858,-0.0215 0.161788,-0.0324 0.103437,-0.0208 0.207062,-0.0416 0.308475,-0.0675 0.0114,-0.003 0.023,-0.006 0.03239,-0.0121 0.03147,-0.0215 0.150926,-0.20633 0.143747,-0.23873 -0.03663,-0.15166 0.09203,-0.10785 0.103441,-0.26246 0.0065,-0.0841 0.03164,-0.11081 -0.0762,-0.12443 -0.02649,-0.003 -0.0021,-0.37676 -0.133625,-0.21498 -0.0086,0.0101 0.03164,-0.0705 0.02946,-0.0826 -0.01235,-0.0826 -0.163996,0.004 -0.27185,0 -0.06111,-0.002 -0.117063,0.0294 -0.178905,0.0309 -0.05908,0 -0.136017,-0.0223 -0.166938,0.0166 -0.01785,0.0223 -0.137308,-0.0123 -0.150191,0.0114 -0.02374,0.046 0.02081,0.10657 -0.0381,0.0856 -0.05761,-0.0208 -0.122213,-0.051 -0.181109,-0.0324 -0.0497,0.0166 0.09258,0.22014 0.07749,0.26026 -0.04877,0.12369 -0.06829,0.0685 -0.02872,0.19934 0.03164,0.10712 0.07417,0.1235 0.132334,0.22491"
       style="fill:#21201d;fill-opacity:1;fill-rule:nonzero;stroke:none;stroke-width:0.184057"
       id="path570" />
    <path
       d="m 35.223109,104.65858 c -0.0086,-0.0856 -0.07988,-0.14964 -0.148901,-0.19915 -0.117979,-0.0849 -0.130863,-0.15387 -0.2632,-0.21075 -0.122213,0.1697 -0.349338,0.25676 -0.552905,0.21075 -0.03883,-0.009 -0.07693,-0.0223 -0.115588,-0.021 -0.03957,0.002 -0.08209,0.023 -0.0935,0.0604 -0.0059,0.0173 -0.0044,0.0376 -0.01012,0.0547 -0.01584,0.0447 -0.07252,0.0584 -0.11927,0.0526 -0.04601,-0.006 -0.09203,-0.0237 -0.138042,-0.0158 -0.07123,0.22787 -0.142459,0.4723 -0.07491,0.70163 0.01379,0.0467 0.03313,0.0935 0.04178,0.14173 0.0086,0.0431 0.0079,0.0869 0.01069,0.13141 0.0086,0.10731 0.15608,0.15682 0.189209,0.25897 0.005,0.0166 0.01069,0.0329 0.023,0.0438 0.0151,0.0114 0.305534,0.0942 0.324859,0.095 0.239459,0.008 0.289151,0.0545 0.478914,-0.0935 0.04307,-0.0339 0.0878,-0.0727 0.142275,-0.0821 0.0519,-0.008 -0.0092,0.009 0.04325,0.0123 0.104913,0.006 0.200621,-0.0554 0.288234,-0.11357 0.205038,-0.13804 0.234484,-0.45297 0.276084,-0.69611 0.02374,-0.13657 -0.01859,-0.28326 -0.111355,-0.38597 -0.02522,-0.0274 -0.05761,-0.0524 -0.0935,-0.0482 -0.02007,0.002 -0.03884,0.0144 -0.0589,0.0151 -0.07841,0.006 -0.123684,-0.13583 -0.196388,-0.10565"
       style="fill:#21201d;fill-opacity:1;fill-rule:nonzero;stroke:none;stroke-width:0.184057"
       id="path572" />
    <path
       d="m 37.13122,107.80339 c -0.02596,-0.0475 -0.07767,-0.0677 -0.124421,-0.0806 -0.07988,-0.0215 -0.103442,-0.0582 -0.183321,-0.0619 -0.01877,0.12369 -0.1108,0.22363 -0.223629,0.24296 -0.02078,0.003 -0.0438,0.004 -0.06331,0.0145 -0.01859,0.009 -0.03443,0.0302 -0.03094,0.0547 7.06e-4,0.0114 0.0072,0.0223 0.0079,0.0337 0.0037,0.0287 -0.02152,0.0482 -0.04601,0.0554 -0.02431,0.007 -0.05246,0.007 -0.07252,0.0223 0.02081,0.14522 0.04675,0.29983 0.137308,0.4156 0.01859,0.0237 0.03957,0.046 0.05614,0.0712 0.0151,0.0236 0.02575,0.0488 0.0381,0.0733 0.03147,0.0589 0.117062,0.0547 0.158842,0.10491 0.0065,0.009 0.01362,0.0166 0.02226,0.0203 0.01013,0.003 0.176142,-0.0138 0.186267,-0.018 0.120738,-0.0482 0.157367,-0.0331 0.214975,-0.15958 0.01436,-0.0294 0.02575,-0.0604 0.05098,-0.0777 0.02374,-0.0166 -0.0021,0.006 0.02448,-0.003 0.05393,-0.0201 0.08632,-0.0762 0.115037,-0.12939 0.06828,-0.12369 0.0042,-0.30977 -0.03534,-0.4572 -0.023,-0.0826 -0.0797,-0.15682 -0.151663,-0.19418 -0.01933,-0.0109 -0.04233,-0.0173 -0.0589,-0.007 -0.0094,0.006 -0.0151,0.0173 -0.02522,0.0215 -0.0381,0.0208 -0.09552,-0.0495 -0.124421,-0.0166"
       style="fill:#21201d;fill-opacity:1;fill-rule:nonzero;stroke:none;stroke-width:0.184057"
       id="path574" />
    <path
       d="m 36.152593,105.1848 c -0.159575,0.0418 -0.310504,0.15387 -0.353571,0.31198 -0.04749,0.17982 0.05025,0.36241 0.07105,0.5472 0.01584,0.14523 -0.01785,0.29486 -0.09405,0.41984 -0.05117,0.0828 -0.12295,0.16105 -0.125159,0.25823 -0.0014,0.0495 0.01584,0.0963 0.03589,0.14154 0.141725,0.31069 0.473759,0.52696 0.816843,0.52991 0.160312,10e-4 0.351546,-0.0287 0.456459,0.0928 0.04031,0.0453 0.07693,0.11504 0.136567,0.10418 0.02155,-0.003 0.03957,-0.0186 0.05614,-0.0322 0.12792,-0.10712 0.260992,-0.22216 0.315658,-0.37971 0.02152,-0.0646 0.02946,-0.1351 0.05466,-0.19915 0.06902,-0.17246 0.250134,-0.26891 0.416888,-0.35008 -0.222892,-0.18848 -0.366642,-0.46603 -0.391855,-0.75648 -0.0035,-0.0431 -0.0065,-0.0891 -0.03295,-0.12295 -0.02946,-0.0352 -0.07841,-0.046 -0.118717,-0.0683 -0.0646,-0.0366 -0.104913,-0.10344 -0.155896,-0.15737 -0.153871,-0.164 -0.371059,-0.17762 -0.563764,-0.26744 -0.182583,-0.0856 -0.312712,-0.12737 -0.524192,-0.072"
       style="fill:#21201d;fill-opacity:1;fill-rule:nonzero;stroke:none;stroke-width:0.184057"
       id="path576" />
    <path
       d="m 38.049293,104.59453 c -0.203384,-0.0114 -0.407685,-0.0101 -0.611068,0.003 -0.04105,0.003 -0.08264,0.006 -0.118717,0.0265 -0.03957,0.0208 -0.06607,0.0584 -0.08614,0.0985 -0.07693,0.15608 -0.04105,0.35947 0.08338,0.48039 0.09202,0.0898 0.230067,0.14522 0.267433,0.2667 0.0099,0.0344 0.0114,0.0698 0.01658,0.10418 0.02723,0.20927 0.174671,0.38118 0.316209,0.53855 0.09645,-0.0525 0.177613,-0.13307 0.230808,-0.2286 0.07767,-0.008 0.155342,-0.0158 0.233013,-0.023 0.08908,-0.009 0.19915,-0.0339 0.220684,-0.12147 -0.03589,-0.0151 -0.07197,-0.0294 -0.107858,-0.0446 0.06553,-0.0475 0.107858,-0.12589 0.110804,-0.20632 0.0014,-0.044 -0.0086,-0.0878 -0.0079,-0.13234 0.0014,-0.0626 0.023,-0.12295 0.06111,-0.17191 0.01362,-0.0173 0.0309,-0.0352 0.02946,-0.0567 0,-0.0195 -0.01362,-0.0353 -0.02798,-0.049 -0.067,-0.0596 -0.15755,-0.0863 -0.237246,-0.12866 -0.07988,-0.041 -0.159763,-0.10786 -0.167676,-0.19768 -0.0028,-0.0282 0.0014,-0.0583 -0.01436,-0.0821 -0.01139,-0.0166 -0.03094,-0.0265 -0.05025,-0.0344 -0.101416,-0.044 -0.211479,-0.0683 -0.3221,-0.0734"
       style="fill:#21201d;fill-opacity:1;fill-rule:nonzero;stroke:none;stroke-width:0.184057"
       id="path578" />
    <path
       d="m 33.107201,108.4706 c 0.115033,-0.0274 0.227859,-0.0618 0.338479,-0.10288 0.02226,-0.008 0.04472,-0.0166 0.06184,-0.0339 0.01803,-0.0179 0.02667,-0.0438 0.03094,-0.069 0.01729,-0.0992 -0.03589,-0.2056 -0.125709,-0.25308 -0.06553,-0.0344 -0.151112,-0.0416 -0.191237,-0.10344 -0.01231,-0.0173 -0.01877,-0.0359 -0.02667,-0.0547 -0.04951,-0.11209 -0.160313,-0.18258 -0.264488,-0.24664 -0.04473,0.0453 -0.0762,0.10216 -0.09,0.16474 -0.04307,0.0173 -0.08411,0.0344 -0.125708,0.051 -0.04822,0.0195 -0.105096,0.0525 -0.102151,0.10436 0.02226,0.002 0.0438,0.004 0.06681,0.007 -0.02872,0.0366 -0.03957,0.0869 -0.02723,0.13215 0.0065,0.0245 0.01859,0.0475 0.02596,0.072 0.0099,0.0344 0.0077,0.0725 -0.0052,0.10565 -0.0057,0.0123 -0.01143,0.0245 -0.0079,0.0366 0.0037,0.0109 0.01436,0.0173 0.02448,0.0217 0.04749,0.0223 0.101416,0.023 0.1524,0.0322 0.05172,0.009 0.105646,0.0339 0.125892,0.0828 0.0057,0.0144 0.0086,0.0329 0.02081,0.0431 0.0094,0.008 0.02226,0.009 0.03387,0.0109 0.06387,0.007 0.129391,0.003 0.191971,-0.0123"
       style="fill:#21201d;fill-opacity:1;fill-rule:nonzero;stroke:none;stroke-width:0.184057"
       id="path580" />
    <path
       d="m 33.953306,106.61548 c 0.07473,0.0878 0.04252,0.17762 0.07546,0.29266 0.02226,0.0762 0.03313,0.1108 0.02815,0.19068 -0.0059,0.11209 -0.07841,0.17099 -0.16105,0.23725 -0.111538,0.0898 -0.128105,0.24443 -0.260255,0.19768 -0.143196,-0.0504 -0.30848,-0.0871 -0.436397,7.4e-4 -0.01877,0.0136 -0.03957,0.0302 -0.06184,0.0287 -0.01951,-0.001 -0.03534,-0.0144 -0.05043,-0.0274 l -0.21645,-0.18682 c -0.02872,-0.0245 -0.05816,-0.0504 -0.07473,-0.0863 -0.01729,-0.0337 -0.02007,-0.0747 -0.02226,-0.11357 -0.01087,-0.16749 -0.02226,-0.33572 -0.03313,-0.50321 -7.06e-4,-0.0245 -0.0028,-0.0497 0.0052,-0.0727 0.0065,-0.0201 0.01933,-0.0366 0.03295,-0.0517 0.107858,-0.12865 0.248108,-0.22933 0.404188,-0.25952 0.318417,-0.0618 0.573701,0.12351 0.770643,0.35358"
       style="fill:#21201d;fill-opacity:1;fill-rule:nonzero;stroke:none;stroke-width:0.184057"
       id="path582" />
    <path
       d="m 34.45302,107.44448 c 0.02522,-0.0423 0.03589,-0.094 0.02797,-0.14228 -0.04675,0.0871 -0.09405,0.17467 -0.140804,0.26247 -0.0037,-0.0215 -0.0072,-0.0433 -0.01087,-0.0648 -0.03238,0.0331 -0.02946,0.0848 -0.0381,0.12939 -0.0065,0.0302 -0.01803,0.0591 -0.03514,0.0841 -0.05245,0.0756 -0.145221,0.11301 -0.217921,0.17117 -0.07252,0.0569 -0.127183,0.16253 -0.07123,0.23505 -0.111355,0.0547 -0.173197,0.18921 -0.13933,0.30572 0.01859,0.0675 0.06608,0.12644 0.06902,0.1962 0.0014,0.0302 -0.0044,0.0626 0.01288,0.0878 0.01288,0.0186 0.03589,0.0272 0.05466,0.0401 0.05467,0.0388 0.07325,0.11798 0.04233,0.17541 0.03736,-0.003 0.0727,-0.0258 0.08927,-0.0582 0.01362,0.17393 0.06755,0.34363 0.158841,0.49456 0.02226,-0.004 0.04307,-0.0171 0.05669,-0.0366 0.03884,0.0856 0.133075,0.14522 0.230808,0.14522 0.05687,0 0.127367,-0.0136 0.160497,0.0317 0.0762,-0.0675 0.145771,-0.14375 0.206325,-0.22565 0.128655,0.10491 0.341426,-0.0158 0.490326,0.0618 0.03957,0.0201 0.07178,0.0545 0.115771,0.0675 0.04233,0.0136 0.103442,-0.0101 0.09994,-0.0532 0.0762,0.0755 0.206329,0.0935 0.301117,0.0409 0.09424,-0.0517 0.144484,-0.16823 0.115771,-0.26946 0.04325,-0.0863 0.127921,-0.15185 0.225101,-0.17559 0.01012,-0.13363 -0.0057,-0.26946 -0.04675,-0.39831 0.05614,0 0.07915,-0.0755 0.05743,-0.12571 -0.02152,-0.0497 -0.06755,-0.0878 -0.08982,-0.13657 -0.04454,-0.0979 0.0094,-0.20854 0.01087,-0.31492 0,-0.0526 -0.01235,-0.10436 -0.03238,-0.15258 -0.09571,-0.23357 -0.412651,-0.4607 -0.659289,-0.53837 -0.336454,-0.10584 -0.755734,-0.0188 -1.043964,0.16307"
       style="fill:#21201d;fill-opacity:1;fill-rule:nonzero;stroke:none;stroke-width:0.184057"
       id="path584" />
  </g>
</svg>
