<?xml version="1.0" encoding="UTF-8" standalone="no"?>
<!-- Created with Inkscape (http://www.inkscape.org/) -->

<svg
   width="6.148181mm"
   height="6.2881694mm"
   viewBox="0 0 6.148181 6.2881694"
   version="1.1"
   id="svg2100"
   inkscape:version="1.1.2 (0a00cf5339, 2022-02-04)"
   sodipodi:docname="z7.svg"
   xmlns:inkscape="http://www.inkscape.org/namespaces/inkscape"
   xmlns:sodipodi="http://sodipodi.sourceforge.net/DTD/sodipodi-0.dtd"
   xmlns="http://www.w3.org/2000/svg"
   xmlns:svg="http://www.w3.org/2000/svg">
  <sodipodi:namedview
     id="namedview2102"
     pagecolor="#ffffff"
     bordercolor="#666666"
     borderopacity="1.0"
     inkscape:pageshadow="2"
     inkscape:pageopacity="0.0"
     inkscape:pagecheckerboard="0"
     inkscape:document-units="mm"
     showgrid="false"
     inkscape:zoom="0.64052329"
     inkscape:cx="-893.01983"
     inkscape:cy="597.16798"
     inkscape:window-width="2560"
     inkscape:window-height="1376"
     inkscape:window-x="0"
     inkscape:window-y="0"
     inkscape:window-maximized="1"
     inkscape:current-layer="layer1" />
  <defs
     id="defs2097" />
  <g
     inkscape:label="Layer 1"
     inkscape:groupmode="layer"
     id="layer1"
     transform="translate(-341.01638,9.3401841)">
    <path
       d="m 345.14166,-7.4350119 c -0.005,-0.0092 -0.01,-0.020062 -0.0171,-0.028713 -0.0188,-0.021534 -0.026,-0.025217 -0.0403,-0.053193 -0.0173,-0.032396 -0.0339,-0.06258 -0.0512,-0.096262 -0.0121,-0.026688 -0.0344,-0.085587 -0.0683,-0.092765 -0.0144,-0.00368 -0.0396,7.408e-4 -0.0532,0.00131 -0.0337,0.00368 -0.0618,0.014541 -0.0955,0.00368 -0.0317,-0.00939 -0.0641,-0.025217 -0.0928,-0.04307 -0.0195,-0.013804 -0.0331,-0.033129 -0.0539,-0.045462 -0.028,0.018038 -0.0203,0.06847 -0.0324,0.093501 -0.0107,0.023745 -0.0309,0.041045 -0.0403,0.064788 -0.008,0.022271 -0.0144,0.035154 -0.0287,0.053193 -0.049,0.059635 -0.0863,0.123687 -0.11798,0.193445 -0.0179,0.040125 -0.0409,0.078961 -0.0596,0.1192692 -0.0151,0.035339 -0.0193,0.066261 -0.0431,0.097183 -0.0245,0.032209 -0.0561,0.059635 -0.0799,0.092581 -0.0107,0.018038 -0.0193,0.034604 -0.0329,0.049696 -0.0217,0.024479 -0.0361,0.045278 -0.0618,0.061843 -0.0296,0.018591 -0.0598,0.033129 -0.09,0.050984 -0.004,0.00293 -0.008,0.0057 -0.0114,0.00865 0.003,-0.00148 0.007,-0.00293 0.0114,-0.00497 -0.0243,0.012146 -0.0344,0.04307 -0.0517,0.061843 -0.0121,0.012883 -0.0265,0.030921 -0.0388,0.042333 -0.0245,0.022271 -0.0604,0.02945 -0.0797,0.058898 0.0302,0.022454 -0.0942,0.1187175 -0.12018,0.1380437 -0.0245,0.018775 -0.0381,0.039573 -0.0574,0.06258 -0.0144,0.018037 -0.0346,0.033129 -0.0504,0.050432 -0.0223,0.021533 -0.0488,0.041597 -0.0718,0.065341 -0.0158,0.014355 -0.0252,0.018038 -0.0425,0.028162 -0.0107,0.00718 -0.01,0.011412 -0.0173,0.022271 -0.006,0.010675 -0.0179,0.023742 -0.0223,0.034421 -0.0114,0.02945 -0.0136,0.064052 -0.0186,0.093502 -0.009,0.053929 -0.0381,0.08117 -0.0791,0.111355 -0.0215,0.015829 -0.041,0.029633 -0.0561,0.05264 -0.01,0.015829 -0.0171,0.033683 -0.0272,0.049512 -0.023,0.033129 -0.0503,0.055402 -0.0792,0.083378 l -0.0849,0.085587 c -0.0329,0.032396 -0.0725,0.053929 -0.11061,0.081906 -0.0403,0.030921 -0.0792,0.064052 -0.11945,0.096447 -0.046,0.0381 -0.10418,0.068285 -0.14725,0.1106188 -0.0116,0.011596 -0.021,0.023742 -0.0302,0.036812 -0.0281,0.097735 -0.0648,0.1912359 -0.13601,0.2731418 -0.10142,0.1192695 -0.20909,0.2493987 -0.31695,0.3616737 -0.044,0.046015 -0.10362,0.066813 -0.15755,0.096999 -0.0906,0.05172 -0.0675,0.068285 -0.11209,0.145958 -0.007,0.012883 -0.0144,0.024479 -0.0215,0.035891 -0.0245,0.080617 -0.0677,0.1409884 -0.13602,0.2078013 -0.0963,0.093502 -0.14743,0.2164521 -0.24222,0.3099537 -0.0504,0.048959 -0.11154,0.0762 -0.1697,0.1143 -0.0569,0.0381 -0.0863,0.077672 -0.11927,0.1222142 -0.004,0.0173 -0.009,0.023008 -0.021,0.039573 -0.0322,0.04307 -0.0554,0.093502 -0.0898,0.1343625 -0.0151,0.019509 -0.0309,0.041045 -0.0468,0.059819 -0.0121,0.015092 -0.0337,0.015092 -0.0502,0.027975 -0.018,0.013621 -0.0361,0.0208 -0.0532,0.035891 -0.0324,0.02945 -0.0598,0.061107 -0.0893,0.094238 0.0131,0.018038 0.0381,0.00293 0.0569,0.00939 0.0245,0.00939 0.0495,0.040861 0.0639,0.061107 0.0296,0.043806 0.0648,0.088348 0.10141,0.1257113 0.0238,0.023745 0.0475,0.053929 0.0799,0.066261 0.0114,0.00497 0.0179,0.00423 0.0309,0.00497 0.0208,0.00148 0.0215,0.00515 0.0381,0.015092 0.0201,0.012333 0.0294,0.00939 0.0482,0.028713 0.0171,0.018775 0.0329,0.038836 0.0525,0.056874 0.0223,0.023008 0.0488,0.038836 0.079,0.048959 0.0165,0.00497 0.0324,0.00994 0.0482,0.014358 0.12,-0.1187175 0.26541,-0.2157159 0.40768,-0.3114259 0.0302,-0.030187 0.0604,-0.063132 0.0849,-0.096999 0.0215,-0.02945 0.028,-0.035154 0.0302,-0.06258 0.002,-0.042333 0.007,-0.1106188 0.041,-0.1430129 0.0547,-0.052457 0.11633,-0.1043609 0.14946,-0.1733829 0.009,-0.017854 0.0223,-0.035154 0.0339,-0.054481 0.0316,-0.053929 0.0725,-0.1050971 0.10859,-0.1575537 0.0257,-0.037364 0.0539,-0.074728 0.0804,-0.1128275 0.009,-0.013621 0.0195,-0.028162 0.028,-0.043254 0.0173,-0.028713 0.0302,-0.058898 0.0388,-0.092029 0.009,-0.017854 0.0123,-0.032209 0.0267,-0.050248 0.0144,-0.018038 0.028,-0.035891 0.041,-0.054665 0.0251,-0.035154 0.0545,-0.066813 0.0812,-0.099207 0.0489,-0.061107 0.0799,-0.1157722 0.11356,-0.1847942 0.0173,-0.033683 0.0331,-0.068285 0.0539,-0.099943 0.0482,-0.074727 0.11209,-0.1150362 0.18111,-0.1739346 0.0742,-0.063316 0.14743,-0.1293928 0.21498,-0.199887 0.0519,-0.053929 0.0663,-0.076936 0.0979,-0.1323375 0.0151,-0.023008 0.0381,-0.039572 0.0582,-0.058162 0.0173,-0.016566 0.0237,-0.0173 0.0403,-0.025217 0.023,-0.01215 0.0438,-0.030921 0.0661,-0.044542 0.0596,-0.0381 0.11504,-0.069758 0.15037,-0.1330738 0.0295,-0.052457 0.0394,-0.1085942 0.0775,-0.1558971 0.0232,-0.028896 0.0467,-0.056138 0.072,-0.083562 0.0604,-0.066077 0.11724,-0.1350987 0.17191,-0.2070654 0.0223,-0.02945 0.0316,-0.06534 0.0639,-0.085403 0.0433,-0.029633 0.0806,-0.069758 0.12093,-0.1043608 0.0532,-0.047487 0.11577,-0.086323 0.16602,-0.1373072 0.0495,-0.049512 0.10141,-0.1150362 0.13381,-0.1768796 0.01,-0.020062 0.0265,-0.045278 0.0322,-0.066813 0.004,-0.013621 0,-0.027975 0.004,-0.042517 0.007,-0.024296 0.025,-0.054481 0.0344,-0.077488 0.0282,-0.064788 0.0648,-0.1236871 0.11357,-0.1755913 0.0547,-0.058162 0.0893,-0.1336262 0.14669,-0.1868187 0.0202,-0.020246 0.046,-0.031658 0.067,-0.052457 0.0164,-0.0173 0.0272,-0.038836 0.0431,-0.05264 0.023,-0.018591 0.0445,-0.041597 0.0668,-0.062396 0.0151,-0.013067 0.0302,-0.028896 0.046,-0.041045 0.003,-0.00293 0.0116,-0.00718 0.0158,-0.010121 0.009,-0.00994 0.009,-0.024479 0.018,-0.033683 0.005,-0.00442 0.0136,-0.00589 0.0179,-0.010125 0.0109,-0.00939 0.0188,-0.026688 0.026,-0.038836 0.0109,-0.018038 0.018,-0.040309 0.0316,-0.055401 -0.006,0.00442 -0.0366,0.020246 -0.0438,0.0173 -0.007,-0.00222 -0.0215,-0.031658 -0.0274,-0.040309"
       style="fill:#21201d;fill-opacity:1;fill-rule:nonzero;stroke:none;stroke-width:0.184057"
       id="path564" />
    <path
       d="m 346.36969,-6.5844803 c 0.009,0.010859 0.0173,0.021721 0.0252,0.033129 0.006,0.00792 0.0114,0.016566 0.0166,0.025954 0.006,0.00865 0.0114,0.016566 0.0158,0.025767 0.0114,0.018775 0.0208,0.037364 0.0309,0.059819 0.0898,0.2055926 0.17099,0.4062159 0.28326,0.6016854 0.0272,0.046014 0.0532,0.092765 0.0782,0.1395159 0.007,0.010675 0.0124,0.021533 0.0173,0.032396 0.0202,0.038836 0.0396,0.077672 0.0584,0.1170608 0.003,0.00718 0.006,0.014358 0.0107,0.021717 7e-4,0.00201 0.001,0.00497 0.003,0.00718 0.0136,0.030184 0.0257,0.060371 0.0381,0.091293 0.004,0.00792 0.006,0.015829 0.009,0.023742 0.009,0.022271 0.0173,0.043806 0.0245,0.066813 0.004,0.010125 0.007,0.021534 0.01,0.032396 0.006,0.020063 0.0123,0.040125 0.0173,0.061107 0.004,0.011412 0.006,0.022271 0.009,0.033683 0.0136,0.061107 0.0245,0.1236867 0.0295,0.1877391 0.003,0.00497 0.007,0.00939 0.009,0.014354 0.0186,0.033867 0.0344,0.074727 0.0582,0.1041767 7.1e-4,0.00148 10e-4,0.00293 0.002,0.00442 0.004,0.0208 0.007,0.047487 0.0173,0.058162 0.005,-0.00644 0.008,-0.012884 0.0107,-0.020062 0,7.408e-4 7.1e-4,7.408e-4 7.1e-4,0.00148 0.004,0.00718 0.006,0.017117 0.0158,0.017854 0.008,-0.022271 7e-4,-0.057426 7e-4,-0.08117 v -0.080617 c 7.1e-4,-0.00131 7.1e-4,-0.00131 7.1e-4,-0.00201 0.005,-0.033867 -7.1e-4,-0.071967 0,-0.1058334 7.1e-4,-0.060371 -0.0195,-0.1128275 -0.026,-0.1709896 -0.006,-0.048223 -0.0208,-0.094238 -0.0265,-0.1417246 -0.004,-0.027242 -0.0158,-0.052457 -0.0267,-0.076936 -0.008,-0.033683 -0.009,-0.070494 -0.0136,-0.1049133 -0.0121,-0.08485 -0.0223,-0.1704375 -0.046,-0.2523434 -0.0201,-0.072703 -0.0431,-0.1437491 -0.0582,-0.2179245 -0.006,-0.027975 -0.018,-0.055401 -0.0188,-0.083378 -0.004,-0.045278 -0.0346,-0.091293 -0.0554,-0.1316012 -0.0245,-0.048775 -0.0547,-0.09479 -0.0777,-0.1437492 -0.0151,-0.033867 -0.0295,-0.068285 -0.0468,-0.1014159 -0.0251,-0.048039 -0.0525,-0.097735 -0.0797,-0.1459579 -7.1e-4,-0.00349 -7.1e-4,-0.00644 -10e-4,-0.0092 -0.008,-0.036812 -0.0252,-0.069022 -0.0453,-0.1006796 -7.1e-4,-0.00442 -0.002,-0.00792 -0.004,-0.011596 -0.008,-0.025216 -0.0158,-0.049512 -0.0237,-0.073255 -0.008,-0.024479 -0.0107,-0.051168 -0.0208,-0.075464 -0.0238,-0.05264 -0.0676,-0.096446 -0.10142,-0.1424609 -0.0337,-0.045278 -0.0631,-0.094238 -0.094,-0.1402521 -0.018,-0.062396 -0.0381,-0.1242391 -0.0683,-0.1840579 l -0.009,-0.018591 c -0.009,-0.013621 -0.0138,-0.028713 -0.0158,-0.043806 -0.018,-0.030371 -0.0813,-0.069758 -0.0972,-0.080617 -0.0589,-0.045278 -0.10768,-0.085587 -0.15369,-0.1437496 -0.0361,-0.046014 -0.0791,-0.086323 -0.12737,-0.1214779 -0.0252,-0.0173 -0.0374,-0.015829 -0.0683,-0.014358 -0.0532,0.00131 -0.11283,0.0057 -0.16602,-0.00148 -0.0296,-0.00442 -0.0381,-0.018038 -0.0561,-0.0381 -0.0346,-0.041045 -0.0539,-0.093501 -0.0856,-0.1360187 -0.0151,-0.019325 -0.0337,-0.035891 -0.0488,-0.055217 -0.0289,-0.034604 -0.0512,-0.074911 -0.0799,-0.1100667 -0.0309,-0.035891 -0.0604,-0.074727 -0.0999,-0.1036245 -0.0425,-0.030738 -0.0576,-0.032946 -0.11007,-0.030738 -0.0374,5.645e-4 -0.0589,0.00201 -0.0834,-0.029633 -0.0317,-0.041597 -0.0626,-0.084115 -0.0942,-0.1257117 -0.0675,-0.090556 -0.18406,-0.1078579 -0.29246,-0.1229504 -0.018,-0.011596 -0.0361,-0.025954 -0.0576,-0.027425 -7e-4,-0.027975 -0.0359,-0.05172 -0.0567,-0.066813 -0.0116,-0.00939 -0.0252,-0.023742 -0.0396,-0.027241 -0.0123,-0.00293 -0.0188,-7.408e-4 -0.0302,-0.00939 -0.0202,-0.013621 -0.0361,-0.040309 -0.0539,-0.058346 -0.009,-0.00718 -0.0245,-0.035154 -0.0353,-0.037364 -0.0193,-0.00349 -0.0359,0.02595 -0.0554,0.023742 -0.0208,-0.00275 -0.0351,-0.041597 -0.0445,-0.05669 -0.009,0.00349 -0.0107,0.015092 -0.0208,0.017854 -0.0267,-0.025767 -0.0431,-0.060371 -0.0712,-0.085587 -7e-4,0.00442 -0.003,0.00939 -0.006,0.013804 -0.0129,-0.00939 -0.0136,-0.025954 -0.0223,-0.037364 -0.004,-0.00663 -0.0116,-0.011596 -0.0166,-0.0173 -0.0215,0.016566 -0.0423,-0.016566 -0.0547,-0.02945 -0.023,-0.023742 -0.0258,-0.039573 -0.0574,-0.033129 -0.0655,0.014358 -0.12516,0.00423 -0.19123,-0.00644 -0.0223,-0.018037 -0.046,-0.035339 -0.072,-0.051168 -0.0653,-0.040861 -0.14025,-0.075464 -0.2113,-0.1071217 -0.0618,-0.027241 -0.12736,-0.048039 -0.19068,-0.071782 -0.004,-7.409e-4 -0.007,-0.00222 -0.0107,-0.00293 -0.10289,0.00865 -0.20485,0.00368 -0.28768,-0.056138 -0.009,0.00293 -0.0178,0.00663 -0.0287,0.00791 -0.0166,0.00222 -0.0331,0.00222 -0.049,-0.00131 -0.0574,0.019325 -0.11633,0.015092 -0.17247,-0.00515 -0.0267,0.010858 -0.0576,0.010125 -0.0856,0.00442 -0.0166,-0.00442 -0.0316,-0.012333 -0.0453,-0.023008 -0.0423,0.030184 -0.0985,0.034417 -0.14743,0.00994 -0.0265,0.027425 -0.0559,0.051904 -0.0856,0.073439 -0.0834,0.064604 -0.13142,0.1165084 -0.16529,0.2105621 -0.0166,0.012333 -0.0331,0.027425 -0.0482,0.041045 -0.0186,0.015829 -0.0287,0.031658 -0.0438,0.050984 -0.0252,0.035339 -0.0351,0.072703 -0.0497,0.1130117 -0.002,0.00718 -0.0151,0.037364 -0.009,0.046751 0.006,0.011412 0.0144,0.00791 0.0265,0.00791 0.0287,-7.409e-4 0.0539,0 0.0819,-0.00663 0.0331,-0.00792 0.0598,-0.011412 0.0935,-0.010675 0.0123,0 0.0237,0 0.0361,-0.00222 0.028,-0.0057 0.0502,-0.00497 0.0789,-0.00644 0.0295,-0.00148 0.049,-0.014354 0.0749,-0.00293 0.0329,0.015829 0.0653,0.020246 0.10343,0.020246 0.072,-0.00148 0.14596,0.00718 0.21645,-0.00718 0.0151,-0.00293 0.0295,-0.00148 0.0423,0 0.002,0.00201 0.004,0.00423 0.006,0.0057 0.051,0.047487 0.12497,0.078409 0.16381,0.1395158 0.0101,0.015829 0.0151,0.032946 0.0309,0.044542 0.0188,0.014358 0.0418,0.00792 0.0668,0.00792 0.0677,0 0.13602,-0.00293 0.20357,0 0.0475,7.409e-4 0.0948,0.011412 0.14025,0.025767 0.0144,0.00515 0.0272,0.00939 0.0394,0.0173 0.0252,0.014355 0.0482,0.036627 0.072,0.053929 0.0188,0.012333 0.0294,0.018775 0.0438,0.033129 0.0526,0.052457 0.13878,0.040861 0.20706,0.058162 0.0519,0.013621 0.10215,0.033867 0.15387,0.04675 0.0353,0.00865 0.0497,0.00939 0.0626,0.042518 0.0109,0.023742 0.0195,0.033683 0.0475,0.033683 0.0295,7.409e-4 0.0582,0.00865 0.0826,0.025954 0.0144,0.010121 0.0302,0.027242 0.046,0.033683 0.0109,0.00442 0.0324,0.00663 0.0438,0.00939 0.0245,0.00442 0.0173,0.00442 0.0324,0.02595 0.0116,0.015092 0.026,0.027242 0.0353,0.04307 0.0151,0.025217 0.0302,0.051168 0.0423,0.077673 0.0346,-7.408e-4 0.0676,-0.0173 0.10288,-0.015829 0.0158,0 0.0317,-0.00222 0.0473,0 0.0153,0.00222 0.0282,0.010859 0.041,0.014358 0.009,0.00293 0.023,-0.00201 0.0252,0.010121 0.002,0.010859 -0.0143,0.018775 -0.0188,0.025954 -0.0136,0.023008 -0.0295,0.059635 -0.0329,0.085403 0.0401,0.027425 0.0992,0.028896 0.14375,0.051168 0.0403,0.020062 0.0891,0.041597 0.13362,0.046015 0.0237,0.00275 0.0618,0.015829 0.0828,0.027975 0.0166,0.00939 0.028,0.021533 0.0423,0.034604 0.008,0.00718 0.023,0.011412 0.0294,0.019325 0.005,0.0057 0.004,0.013621 0.008,0.0208 0.0143,0.028896 0.0425,0.050432 0.0583,0.079145 0.004,0.00497 0.004,0.011596 0.006,0.016566 0.005,0.00792 0.0186,0.015829 0.0245,0.024479 0.0121,0.014358 0.0223,0.032212 0.0337,0.048039 0.0101,0.014541 0.0208,0.020246 0.0302,0.032396 0.0151,0.022271 0.0324,0.061107 0.0361,0.08706 0.001,0.013621 -0.003,0.030921 0.0114,0.039572 0.0158,0.010675 0.0366,-0.00368 0.0517,-0.00644 0.0158,-0.00368 0.0353,0 0.0519,0 0.025,0 0.0503,0 0.0755,0 0.0186,0 0.0344,0.00349 0.0525,0.00644 0.0136,0.00201 0.0316,-0.00148 0.0431,0.00423 -7.1e-4,0.00368 -0.003,0.0057 -0.006,0.0057 0.0237,0.012333 0.0497,0.020246 0.0727,0.031658 0.0309,0.015829 0.0618,0.041045 0.0891,0.061843 0.0272,0.019512 0.0569,0.036627 0.0826,0.058346 0.0195,0.017117 0.0445,0.0208 0.0641,0.035154 0.0129,0.00939 0.026,0.027975 0.0359,0.041045 0.008,0.010675 0.018,0.023008 0.018,0.037364 -7.1e-4,0.013621 -0.0116,0.023742 -0.0101,0.0381 10e-4,0.034421 0.0648,0.043806 0.0871,0.066813 0.0208,0.0208 0.0438,0.048223 0.0596,0.073439 0.0151,0.023008 0.0101,0.053929 0.0129,0.081905 0.0245,0.010125 0.0475,0.026504 0.0663,0.053193 0.0559,0.080433 0.11779,0.1402521 0.1754,0.2048563 0.0114,0.012333 0.0237,0.025954 0.0344,0.039573 0.004,0.00423 0.007,0.00865 0.009,0.012883"
       style="fill:#21201d;fill-opacity:1;fill-rule:nonzero;stroke:none;stroke-width:0.184057"
       id="path566" />
    <path
       d="m 346.69823,-5.4009877 c -0.001,0.00718 -0.005,0.014354 -0.007,0.0208 7.1e-4,0.00148 7.1e-4,0.00293 10e-4,0.00442 0.001,-0.00718 0.004,-0.015092 0.006,-0.025216"
       style="fill:#21201d;fill-opacity:1;fill-rule:nonzero;stroke:none;stroke-width:0.184057"
       id="path568" />
    <path
       d="m 346.77811,-4.4777531 c -0.004,-0.012333 -0.005,-0.030187 -0.0109,-0.041781 -0.005,-0.011412 -0.0166,-0.020062 -0.0237,-0.031658 -0.0359,-0.054665 -0.0366,-0.1165087 -0.0366,-0.1803766 0,-0.033867 0.003,-0.059083 -0.0107,-0.087796 -0.008,-0.015092 -0.0145,-0.030921 -0.0224,-0.047487 -0.009,-0.022271 -0.009,-0.043805 -0.01,-0.068285 -0.001,-0.025767 -0.0101,-0.049512 -0.009,-0.077673 7.1e-4,-0.030187 -0.009,-0.042333 -0.0237,-0.069022 -0.0166,-0.027975 -0.0309,-0.049512 -0.0294,-0.08485 0.002,-0.02945 0.0208,-0.06166 0.0324,-0.088348 0.0193,-0.042333 0.0409,-0.082642 0.0567,-0.1258958 -0.004,-0.011412 -0.008,-0.021534 -0.0121,-0.027242 -0.0208,-0.025954 -0.0433,-0.05172 -0.0547,-0.083378 -0.0144,-0.042517 -0.026,-0.090556 -0.0381,-0.13381 -0.0109,-0.037364 -0.0201,-0.078225 -0.0267,-0.1170608 -0.004,-0.024479 -0.005,-0.050432 -0.0171,-0.071967 0,0.026688 0.009,0.047487 0.009,0.073991 -10e-4,0.025954 0,0.053193 0,0.079881 v 0.1573696 c 0,0.044726 0.002,0.090004 7.1e-4,0.13381 -0.002,0.047487 -0.0208,0.080433 -0.0344,0.1251592 -0.0124,0.036628 -0.0144,0.08117 -0.009,0.1200058 0.006,0.045278 0.0252,0.083378 0.0252,0.1286566 -10e-4,0.043254 -0.003,0.086323 -10e-4,0.1281042 10e-4,0.032212 0.008,0.081906 0.0201,0.1106188 0.0136,0.032396 0.0309,0.065525 0.0331,0.1006799 0.002,0.037364 0.004,0.080433 -0.002,0.1172447 -0.004,0.030187 -0.0151,0.055954 -0.0166,0.086875 -0.001,0.084115 0.0124,0.1704375 -0.0144,0.251055 -0.006,0.016383 -0.0144,0.03442 -0.0173,0.05172 -0.003,0.012883 0,0.025216 -0.004,0.036627 -0.008,0.030187 -0.0237,0.060371 -0.0339,0.08982 -0.0136,0.038836 -0.0337,0.071967 -0.0337,0.1137479 v 0.052457 c 0,0.020063 -0.006,0.054665 0.002,0.073991 0.007,0.0208 0.0351,0.047487 0.0567,0.050984 0.0396,0.00515 0.0885,0.00293 0.12737,-0.00644 0.0272,-0.00718 0.0589,-0.00865 0.0826,-0.025033 0.023,-0.016566 0.0173,-0.039572 0.0173,-0.064788 0,-0.021533 0.004,-0.046751 7e-4,-0.068285 -0.004,-0.0208 -0.01,-0.037364 -0.009,-0.059635 v -0.0727 c -7.1e-4,-0.027241 0.009,-0.052457 0.009,-0.079881 0,-0.031475 0.009,-0.058899 0.008,-0.090557 0,-0.025767 10e-4,-0.04675 0.007,-0.069758 0.0109,-0.048039 0.0353,-0.086139 0.026,-0.1385955 -0.005,-0.023745 -0.006,-0.048223 -0.0136,-0.070494"
       style="fill:#21201d;fill-opacity:1;fill-rule:nonzero;stroke:none;stroke-width:0.184057"
       id="path570" />
    <path
       d="m 346.69897,-5.3398806 c 7e-4,-0.00865 -0.003,-0.022271 -0.006,-0.035891 -0.0166,0.080433 0.005,0.053929 0.006,0.035891"
       style="fill:#21201d;fill-opacity:1;fill-rule:nonzero;stroke:none;stroke-width:0.184057"
       id="path572" />
    <path
       d="m 345.95409,-6.8927773 c -0.009,-0.028896 -0.0295,-0.059819 -0.0258,-0.091293 -0.004,0.097735 0.0186,0.1185334 0.0258,0.1343621 0.009,0.016566 0.0173,0.035154 0.026,0.052457 0.007,0.015829 0.0121,0.030921 0.018,0.047487 0,-0.00222 -7e-4,-0.00497 -7e-4,-0.00718 0,-0.049696 -0.0274,-0.08982 -0.0433,-0.135835"
       style="fill:#21201d;fill-opacity:1;fill-rule:nonzero;stroke:none;stroke-width:0.184057"
       id="path574" />
    <path
       d="m 346.11017,-6.3242223 c 0.001,-0.067549 -0.0331,-0.1235029 -0.0431,-0.1882913 -0.004,-0.018038 -0.002,-0.018775 -0.0109,-0.038836 -0.0166,-0.0381 -0.0166,-0.080433 -0.0331,-0.1185334 -0.0107,-0.026688 -0.0171,-0.053929 -0.0258,-0.080617 7.1e-4,0.042517 0.004,0.086323 10e-4,0.1279203 -0.003,0.051168 -0.0224,0.1085942 -0.0339,0.1575538 -0.006,0.023008 -0.006,0.055953 0.004,0.078408 0.005,0.011412 0.0109,0.0208 0.0151,0.033683 0.007,0.016566 0.008,0.037364 0.0131,0.053929 0.005,0.013621 0.01,0.02945 0.0179,0.041045 0.009,0.012883 0.0151,0.016566 0.0173,0.030921 7.1e-4,0.00275 7.1e-4,0.0057 7.1e-4,0.00792 0.003,-0.013067 0.0121,-0.018775 0.0267,-0.030921 0.0287,-0.025217 0.0488,-0.035339 0.0502,-0.074175"
       style="fill:#21201d;fill-opacity:1;fill-rule:nonzero;stroke:none;stroke-width:0.184057"
       id="path576" />
    <path
       d="m 346.0325,-6.2191252 c -7.1e-4,0.0057 -0.001,0.011412 -7.1e-4,0.020062 0,-0.00644 7.1e-4,-0.013621 7.1e-4,-0.020062"
       style="fill:#21201d;fill-opacity:1;fill-rule:nonzero;stroke:none;stroke-width:0.184057"
       id="path578" />
    <path
       d="m 346.17496,-4.9121298 c -0.007,-0.021534 -0.0109,-0.0381 -0.0138,-0.060371 -0.003,-0.017854 -0.004,-0.039572 -0.009,-0.05669 -0.007,-0.020983 -0.0158,-0.034604 -0.0158,-0.058347 -7.1e-4,-0.021533 0,-0.04307 0,-0.064604 v -0.066997 c 0,-0.017117 0.004,-0.048039 -0.001,-0.063868 -0.0202,0.015092 -0.0158,0.058162 -0.0158,0.081905 0,0.027979 0.005,0.06258 0,0.090557 -0.008,0.045278 -0.0433,0.084851 -0.0438,0.13381 l 0.0351,-0.043253 c -0.004,0.022271 -0.0208,0.046014 -0.0287,0.067733 -0.007,0.019325 -0.004,0.024296 7.1e-4,0.044542 0.004,0.012883 0,0.025033 0.003,0.0381 0.003,0.013621 0.008,0.018591 0.008,0.035891 0,0.015092 -0.004,0.033129 0,0.046751 0.004,0.0208 0.006,0.0173 0.0274,0.0173 0.0265,0 0.0295,-7.408e-4 0.048,-0.020246 0.007,-0.00644 0.0173,-0.012884 0.0202,-0.022271 0.003,-0.00994 7.1e-4,-0.02945 -10e-4,-0.039572 -0.004,-0.018591 -0.006,-0.042333 -0.0121,-0.060371"
       style="fill:#21201d;fill-opacity:1;fill-rule:nonzero;stroke:none;stroke-width:0.184057"
       id="path580" />
    <path
       d="m 347.15119,-4.3441273 c -0.0639,-0.082642 -0.0351,-0.1860825 -0.0567,-0.2810563 -0.005,-0.021534 -0.0223,-0.0381 -0.0324,-0.056874 -0.018,-0.028713 -0.0403,-0.063132 -0.051,-0.096262 -0.007,-0.023742 -0.009,-0.041045 -0.0101,-0.065525 v -0.00201 c -7.1e-4,0.048775 -7.1e-4,0.096262 0,0.1452216 0,0.044542 -0.008,0.095526 0.008,0.017854 0.007,0.039572 -0.0144,0.096447 -0.026,0.1345466 -0.0129,0.050248 -0.0215,0.1021521 -0.0468,0.1487188 -0.0151,0.028162 -0.025,0.04675 -0.0223,0.078409 0.001,0.021534 0.0136,0.065525 0.0366,0.077672 0.0217,0.010859 0.072,0.00148 0.0987,0.00148 0.0171,0 0.0381,0.00293 0.0545,-0.00148 0.0475,-0.013621 0.0806,-0.059635 0.0475,-0.1006796"
       style="fill:#21201d;fill-opacity:1;fill-rule:nonzero;stroke:none;stroke-width:0.184057"
       id="path582" />
    <path
       d="m 346.99161,-4.9056881 c 0.001,0.02172 0.008,0.039573 0.009,0.060555 v -0.011596 c 0,-0.015829 0.006,-0.037364 -0.009,-0.04896"
       style="fill:#21201d;fill-opacity:1;fill-rule:nonzero;stroke:none;stroke-width:0.184057"
       id="path584" />
    <path
       d="m 345.88728,-5.5971936 c -0.007,-0.033867 -0.0201,-0.066261 -0.0309,-0.099207 -0.006,-0.015829 -0.009,-0.020246 -0.0166,-0.032396 -0.01,-0.019512 -0.0129,-0.041045 -0.0186,-0.061107 -0.0131,-0.036627 -0.026,-0.074175 -0.0302,-0.1130113 -0.004,-0.023559 -0.006,-0.048775 -0.0109,-0.073255 -0.007,-0.033129 -0.005,-0.067549 -0.0143,-0.099943 -0.004,-0.0173 -0.007,-0.033683 -0.0136,-0.050984 -0.0124,-0.031658 -0.0331,-0.056874 -0.0403,-0.090004 -0.004,-0.016383 -0.008,-0.028713 -0.009,-0.046015 0,-0.011412 0.006,-0.033683 -0.006,-0.0381 -0.008,0.02172 -7e-4,0.050432 -0.004,0.072703 -0.004,0.0381 -0.0158,0.073991 -0.0158,0.1128275 0,0.030921 -0.008,0.0762 0,0.1050971 0.003,0.012883 0.0123,0.012883 0.0173,0.025767 0.004,0.010121 7e-4,0.028162 7e-4,0.038836 0,0.019509 -0.009,0.063316 0.0173,0.025954 -7.1e-4,0.018588 0,0.036627 0,0.055401 0,0.032209 -0.0109,0.05669 -0.0166,0.087612 -0.003,0.018775 7.1e-4,0.036627 -7.1e-4,0.055401 -0.002,0.022271 -0.009,0.045278 -0.018,0.065341 -0.0208,0.051904 -0.0251,0.1058333 -0.006,0.1582896 0.0123,0.033683 0.0418,0.065341 0.0482,0.104177 0.009,0.041781 -0.0215,0.073991 -0.0302,0.1128275 -0.009,0.033867 -0.002,0.074175 -0.002,0.1100667 0,0.0173 -0.002,0.034604 -7.1e-4,0.050248 7.1e-4,0.015829 0.009,0.026688 0.0131,0.039573 0.009,0.024479 0.009,0.1137479 0.051,0.088532 0.0144,-0.00939 0.0388,-0.027425 0.0453,-0.041781 0.006,-0.012883 0.003,-0.030921 0.004,-0.044542 0.009,-0.056874 0.0396,-0.1028884 0.0561,-0.155345 0.0136,-0.040125 0.0316,-0.071783 0.046,-0.1106188 0.0101,-0.026688 0.026,-0.047487 0.0309,-0.073439 0.006,-0.030187 -0.0158,-0.068285 -0.0265,-0.099943 -0.007,-0.025033 -0.0131,-0.052457 -0.0188,-0.078961"
       style="fill:#21201d;fill-opacity:1;fill-rule:nonzero;stroke:none;stroke-width:0.184057"
       id="path586" />
    <path
       d="m 345.26314,-8.4342624 c 0.0151,0.012883 0.0296,0.0208 0.0447,0.034417 0.0136,0.013621 0.0322,0.025217 0.0495,0.037364 0.0158,0.012333 0.0302,0.023008 0.046,0.033867 0.0252,0.016566 0.0482,0.036627 0.0734,0.054665 0.0208,0.015829 0.0374,0.017854 0.0624,0.023008 0.0101,0.00275 0.0188,0.00791 0.0282,0.014358 10e-4,0.00222 10e-4,0.0057 0.003,0.00792 0.005,0.012883 0.004,0.0208 0.007,0.033683 0.001,0.011596 0.005,0.026688 0.009,0.036075 7.1e-4,0.00349 0.009,0.023008 0.0101,0.023742 0.008,0.0057 0.0223,7.408e-4 0.0316,0.00131 0.0158,0.00148 0.0331,0.00663 0.0475,0.011596 0.009,0.00293 0.0179,0.00718 0.0258,0.012146 0.009,0.00718 0.007,0.018775 0.0217,0.019509 0.004,-0.010125 10e-4,-0.021534 0.003,-0.031658 0.002,-0.013621 0.009,-0.030921 0.0136,-0.043806 0.009,-0.023746 0.0267,-0.040309 0.0403,-0.06258 0.0158,-0.025954 0.046,-0.054665 0.0517,-0.085587 0.002,-0.014358 7e-4,-0.023008 0.008,-0.035891 0.001,-0.00293 0.0289,-0.040309 0.0267,-0.041045 -0.0166,-0.00368 -0.0267,-0.0057 -0.0366,-0.0208 -0.0138,-0.020246 -0.0223,-0.041781 -0.0381,-0.06258 -0.018,-0.023742 -0.0376,-0.049695 -0.0539,-0.074727 -0.009,-0.013804 -0.0188,-0.036075 -0.0324,-0.046015 -0.009,-0.00589 -0.018,-0.00368 -0.0287,-0.00515 -0.021,-0.00201 -0.0418,-0.00497 -0.0618,-0.01215 -0.0368,-0.011596 -0.0742,-0.035891 -0.1051,-0.059635 -0.009,-0.00718 -0.0144,-0.011596 -0.0251,-0.014358 -0.006,-0.00148 -0.0116,5.644e-4 -0.0173,0 -0.005,-0.00148 -0.006,-0.00939 -0.0129,-0.00939 -0.0237,-7.408e-4 -0.044,0.044542 -0.0576,0.057426 -0.0121,0.012333 -0.026,0.019509 -0.0381,0.033867 -0.018,0.023008 -0.028,0.044542 -0.041,0.063868 -0.0129,0.00293 -0.0258,0.00515 -0.0401,0.00515 -0.0245,0 -0.0296,-0.00222 -0.046,0.016566 -0.0124,0.014358 -0.0166,0.023742 -0.0109,0.042333 0.0216,-7.408e-4 0.028,0.030187 0.0431,0.042518"
       style="fill:#21201d;fill-opacity:1;fill-rule:nonzero;stroke:none;stroke-width:0.184057"
       id="path588" />
  </g>
</svg>
