<?xml version="1.0" encoding="UTF-8" standalone="no"?>
<!-- Created with Inkscape (http://www.inkscape.org/) -->

<svg
   width="7.4261394mm"
   height="6.1537571mm"
   viewBox="0 0 7.4261394 6.1537571"
   version="1.1"
   id="svg4008"
   inkscape:version="1.1.2 (0a00cf5339, 2022-02-04)"
   sodipodi:docname="z6.svg"
   xmlns:inkscape="http://www.inkscape.org/namespaces/inkscape"
   xmlns:sodipodi="http://sodipodi.sourceforge.net/DTD/sodipodi-0.dtd"
   xmlns="http://www.w3.org/2000/svg"
   xmlns:svg="http://www.w3.org/2000/svg">
  <sodipodi:namedview
     id="namedview4010"
     pagecolor="#ffffff"
     bordercolor="#666666"
     borderopacity="1.0"
     inkscape:pageshadow="2"
     inkscape:pageopacity="0.0"
     inkscape:pagecheckerboard="0"
     inkscape:document-units="mm"
     showgrid="false"
     inkscape:zoom="0.64052329"
     inkscape:cx="188.90804"
     inkscape:cy="47.617316"
     inkscape:window-width="2560"
     inkscape:window-height="1376"
     inkscape:window-x="0"
     inkscape:window-y="0"
     inkscape:window-maximized="1"
     inkscape:current-layer="layer1" />
  <defs
     id="defs4005" />
  <g
     inkscape:label="Layer 1"
     inkscape:groupmode="layer"
     id="layer1"
     transform="translate(-54.943375,-135.71585)">
    <path
       d="m 56.964306,135.7182 c -0.0381,-0.013 -0.06537,0.0324 -0.101424,0.0287 -0.02364,-0.002 -0.0453,0 -0.0683,0 -0.01693,0 -0.03736,-0.009 -0.05465,-0.007 -0.02928,0.004 -0.06114,0.0366 -0.0696,0.0655 -0.0067,0.0201 -0.0035,0.0236 -0.01729,0.0401 -0.02611,0.0316 -0.06036,0.0583 -0.09204,0.0834 -0.02999,0.0237 -0.0539,0.0504 -0.07197,0.0814 -0.01129,0.0179 -0.0194,0.0351 -0.02787,0.0582 -0.0095,0.026 -0.02011,0.0361 -0.03605,0.0554 -0.02434,0.0352 -0.0194,0.0913 -0.0187,0.13086 0,0.0396 -0.0095,0.0804 -0.01517,0.11927 -0.0064,0.0418 -0.0187,0.0814 -0.0049,0.12222 0.0049,0.0151 0.0078,0.0324 0.01552,0.046 0.006,0.009 0.03955,0.0296 0.04177,0.0324 0.02857,0.0237 0.05024,0.0539 0.07694,0.0791 0.01729,0.0151 0.03034,0.0186 0.03588,0.0416 0.0053,0.018 0.0071,0.0331 0.01588,0.0512 0.01164,0.0295 0.02222,0.0596 0.0381,0.0883 0.02011,0.0388 0.04399,0.0697 0.08135,0.0885 0.05521,0.0272 0.1143,0.0547 0.173919,0.0668 0.012,0.003 0.03175,0 0.04308,0.006 0.01164,0.004 0.0071,0.006 0.01729,0.0131 0.01588,0.0129 0.04378,0.0237 0.05962,0.0287 0.0187,0.006 0.03175,0.007 0.05189,0.005 0.03665,-0.003 0.05524,0.009 0.09204,0.018 0.02505,0.007 0.0495,0.009 0.07472,-0.002 0.02364,-0.009 0.04159,-0.0129 0.06756,-0.0193 0.03884,-0.009 0.05817,-0.0296 0.08855,-0.0519 0.03069,-0.0223 0.0574,-0.046 0.08114,-0.0769 0.02011,-0.0237 0.02716,-0.0237 0.0569,-0.0374 0.01552,-0.007 0.0314,-0.023 0.05024,-0.0215 0.0035,-0.0201 0.02293,-0.0188 0.03034,-0.0359 0.0056,-0.0144 0.0035,-0.0381 0.0064,-0.0532 0.0035,-0.018 0.0053,-0.0361 0.0078,-0.0532 0.0046,-0.0224 0.0194,-0.0282 0.02787,-0.0453 0.0046,-0.008 0,-0.0158 0.0067,-0.0252 0.0042,-0.009 0.01729,-0.0151 0.02364,-0.0237 0.01199,-0.0158 0.01552,-0.0309 0.01799,-0.0504 0.0035,-0.0201 0,-0.0351 -0.0042,-0.0545 -0.0035,-0.0138 0,-0.0526 -0.01094,-0.0591 -0.02963,0.0131 -0.04381,0.0504 -0.06258,0.0749 -0.0092,0.0107 -0.01588,0.0151 -0.02787,0.0215 -0.0194,0.0121 -0.02222,0.0171 -0.03457,0.0359 -0.0127,0.0201 -0.03034,0.0316 -0.04657,0.0482 -0.01446,0.0144 -0.02681,0.0344 -0.04473,0.0416 -0.01623,0.006 -0.0314,0.005 -0.04674,0.0123 -0.0085,0.005 -0.02011,0.0151 -0.02928,0.0215 -0.01658,0.0121 -0.03034,0.028 -0.0495,0.0359 -0.04748,0.0202 -0.101423,-0.0144 -0.149648,-0.023 -0.03034,-0.005 -0.06682,-0.0136 -0.09627,-0.0114 -0.01376,0.002 -0.02011,0.009 -0.03884,0.004 -0.04748,-0.0101 -0.115746,-0.0423 -0.150918,-0.0762 -0.0254,-0.0245 -0.04177,-0.0668 -0.0683,-0.0891 -0.0067,-0.005 -0.0187,-0.004 -0.02752,-0.0123 -0.01199,-0.0114 -0.01023,-0.0114 -0.01446,-0.0302 -0.01094,-0.0431 -0.06756,-0.0589 -0.06756,-0.097 0,-0.0309 0.0099,-0.0668 0.01446,-0.0977 0.0049,-0.0309 0.0035,-0.0482 -0.0095,-0.0762 -0.0071,-0.0173 -0.02081,-0.0309 -0.02293,-0.0497 -0.0035,-0.023 0.0049,-0.0475 0.0085,-0.0705 0.0035,-0.0287 0.01446,-0.0596 0.02611,-0.0869 0.01305,-0.0309 0.02293,-0.0267 0.04731,-0.0411 0.02222,-0.0129 0.02893,-0.0431 0.04103,-0.0633 0.01446,-0.0245 0.03104,-0.051 0.05098,-0.0712 0.02187,-0.0236 0.04604,-0.0337 0.05616,-0.0646 0.0071,-0.023 0.02928,-0.0698 0.0532,-0.0683"
       style="fill:#21201d;fill-opacity:1;fill-rule:evenodd;stroke:none;stroke-width:0.184057"
       id="path632" />
    <path
       d="m 55.168279,139.13321 h -0.0071 c -0.07839,0 -0.221404,0.0252 -0.217735,-0.0891 0,-0.072 0.06036,-0.12516 0.07179,-0.19418 0.02152,-0.11706 -0.0099,-0.23928 -0.0078,-0.358 0,-0.0344 0.0095,-0.0561 0.03246,-0.0841 0.02752,-0.0339 0.04103,-0.0618 0.04307,-0.10565 0.0035,-0.0517 -0.0085,-0.10068 -0.01058,-0.15166 -0.0035,-0.0346 0.01129,-0.0569 0.02364,-0.0893 0.02293,-0.0596 0.05817,-0.0589 0.106398,-0.0208 0.03387,0.0272 0.06607,0.0532 0.104175,0.0755 0.02011,0.0123 0.0611,0.0267 0.07563,0.0467 0.02222,0.0287 0.01058,0.0819 0.0099,0.12001 0,0.0447 -0.0035,0.0935 0.02364,0.13233 0.02434,0.0359 0.05613,0.0604 0.07694,0.1 0.01305,0.0237 0.0254,0.046 0.03246,0.072 0.0049,0.0179 0.0064,0.0381 0.01588,0.0554 0.0194,0.0423 0.06258,0.0315 0.09994,0.0315 0.01446,0 0.04875,0.006 0.0611,-0.002 0.04307,-0.023 0,-0.092 0,-0.12664 0,-0.0208 -0.01094,-0.0403 -0.01376,-0.0626 -0.0035,-0.0237 -0.0035,-0.0604 -0.0095,-0.0841 -0.0046,-0.01 -0.01517,-0.0178 -0.01729,-0.0329 -0.0042,-0.0225 -0.0035,-0.0433 -0.0035,-0.0663 0,-0.0158 -0.0063,-0.0374 0.01023,-0.0423 0.01446,-0.006 0.03955,0.01 0.0532,0.0114 0.02822,0.004 0.05761,0 0.08558,0 h 0.11871 c 0.01376,0 0.04233,-0.006 0.0539,0 0.01729,0.008 0.01058,0.0346 0.01799,0.0526 0.0042,0.0114 0.01446,0.0287 0.02293,0.0366 0.01588,0.0158 0.04823,0.0272 0.06752,0.0396 0.02187,0.0144 0.03535,0.0208 0.05983,0.0243 0.03588,0.006 0.06904,0.009 0.105657,0.008 0.01446,0 0.02646,0.002 0.04159,-0.002 0.0035,-0.002 0.03034,-0.0166 0.03387,-0.0158 0.0194,0.008 0.01446,0.0416 0.02152,0.0582 0.0088,0.026 0.02434,0.051 0.03591,0.0755 0.01094,0.0223 0.01799,0.0353 0.03387,0.0554 0.02928,0.0374 0.05172,0.0712 0.0762,0.10933 0.0085,0.0129 0.0187,0.0316 0.03531,0.0359 0.01199,-0.0121 0.01729,-0.0453 0.0321,-0.049 0.0035,0.0151 0.0078,0.0447 0.02011,0.0561 0.0056,0.006 0.02081,0.006 0.02928,0.009 0.01799,0.007 0.03387,0.0195 0.05172,0.026 0.02222,0.009 0.06184,0.0107 0.0834,0 0.01588,-0.007 0.02752,-0.0296 0.04029,-0.0388 0.0095,0.0396 0.0035,0.0826 0.01129,0.12369 0.0067,0.0366 0.01376,0.0775 0.02893,0.11061 0.02011,0.0453 0.05888,0.0589 0.105657,0.051 0.0574,-0.008 0.111337,-0.0359 0.164536,-0.0567 0.03754,-0.0144 0.07564,-0.0267 0.111548,-0.0431 0.03316,-0.0151 0.06533,-0.0383 0.10287,-0.0376 0.03069,0 0.06036,0.0166 0.08837,0.0296 0.07324,0.0315 0.138748,0.0258 0.21717,0.0265 0.06385,0 0.13014,-0.005 0.192723,-0.0166 0.02928,-0.005 0.0574,-0.0144 0.08759,-0.0166 0.04456,-0.003 0.07842,0.0158 0.119451,0.0217 0.01129,0 0.02011,-0.002 0.03104,-0.002 0.04011,0.002 0.08336,0.0245 0.121462,0.0366 0.201189,0.0675 0.411198,0.0136 0.603144,-0.049 0.03457,-0.0114 0.07327,-0.0171 0.109326,-0.0179 0.03245,-0.002 0.06389,0.004 0.09553,-0.002 0.01658,-0.002 0.02963,-0.0136 0.04325,-0.018 0.0381,-0.009 0.08558,-0.002 0.124249,0 0.04823,0 0.09497,-0.009 0.142451,-0.0223 0.02646,-0.007 0.05172,-0.007 0.07842,-0.0129 0.02364,-0.005 0.04011,-0.0121 0.06607,-0.007 0.01729,0.003 0.02681,0.0136 0.04307,0.0188 0.02011,0.006 0.05539,0.003 0.07267,0.003 0.06114,-0.003 0.110066,-0.0252 0.167499,-0.0438 0.106397,-0.0366 0.217205,-0.0431 0.329282,-0.0431 0.03316,0 0.05098,0 0.08266,0.0136 0.04177,0.0178 0.07564,0.0488 0.120897,0.0589 0.02011,0.005 0.04015,0.002 0.06114,0.005 0.02222,0.002 0.04452,0.0138 0.06678,0.0173 0.02364,0.004 0.04604,0 0.06904,0.004 0.08191,0.0164 0.143016,0.0797 0.21276,0.12222 0.04674,0.0265 0.08633,0.0401 0.138042,0.0366 0.0418,-0.003 0.05761,-0.0166 0.0913,-0.0331 -0.0095,0 -0.02011,-0.002 -0.02857,0 -0.0187,0.004 -0.03246,0.0166 -0.05172,0.021 -0.0611,0.0121 -0.122943,0.0121 -0.184785,0.0114 -0.105657,-0.002 -0.20634,0.026 -0.312702,0.0309 -0.05246,0.004 -0.09571,-0.003 -0.147462,-0.009 -0.0769,-0.008 -0.15882,0 -0.235761,0 -0.105092,0 -0.209268,-0.0107 -0.313443,-0.0107 -0.06773,0 -0.13529,0 -0.203553,0 -0.0261,0 -0.06332,-0.009 -0.08837,0 -0.01517,0.005 -0.0611,0.0468 -0.06699,0.0517 -0.04875,0.0351 -0.09994,0.0661 -0.1524,0.0963 -0.05817,0.0346 -0.121461,0.0683 -0.184044,0.0992 -0.02011,0.0109 -0.04456,0.026 -0.0683,0.0302 -0.03246,0.006 -0.07123,0 -0.103434,0 h -0.933345 c -0.06332,0 -0.140052,0.0138 -0.20193,-0.003 -0.06255,-0.0173 -0.122943,-0.046 -0.189194,-0.0504 -0.03457,-0.003 -0.06974,0 -0.104916,0 -0.165453,0 -0.332211,0.007 -0.498228,-0.006 -0.08484,-0.006 -0.167499,-0.0294 -0.250155,-0.0453 -0.08999,-0.0158 -0.20133,-0.004 -0.286173,0.0237 -0.05542,0.018 -0.103647,0.0418 -0.16182,0.0495 -0.03881,0.006 -0.116487,0.0267 -0.155328,0.008 -0.01058,-0.006 -0.02646,-0.025 -0.03457,-0.0322 -0.02434,-0.0245 -0.05115,-0.0475 -0.07765,-0.0698 -0.01799,-0.0144 -0.04254,-0.044 -0.06629,-0.049 -0.02858,-0.006 -0.07176,0.004 -0.101953,0.004 -0.07768,0 -0.142452,-0.002 -0.21717,0.0158 -0.02857,0.006 -0.06114,0.0178 -0.08982,0.0171 -0.02152,-0.002 -0.03457,-0.0158 -0.05246,-0.0272 -0.05468,-0.0309 -0.09924,-0.0274 -0.159033,-0.0274"
       style="fill:#21201d;fill-opacity:1;fill-rule:nonzero;stroke:none;stroke-width:0.184057"
       id="path634" />
    <path
       d="m 59.853803,141.14644 c -0.03739,-0.051 -0.07475,-0.10786 -0.09405,-0.16749 -0.02963,-0.0913 -0.05394,-0.18333 -0.07842,-0.27609 -0.0194,-0.0784 -0.04032,-0.15608 -0.06184,-0.23449 -0.0095,-0.0401 -0.0187,-0.0812 -0.02752,-0.12148 -0.0042,-0.0366 -0.0042,-0.0705 -0.01305,-0.10639 -0.01199,-0.0569 -0.03528,-0.11209 -0.04452,-0.1697 -0.01023,-0.0539 -0.02681,-0.0812 -0.05743,-0.12865 -0.04106,-0.0596 -0.07916,-0.12295 -0.121673,-0.18185 -0.0381,-0.0532 -0.07176,-0.0928 -0.09846,-0.15461 -0.03034,-0.0712 -0.04307,-0.1316 -0.04085,-0.20707 0,-0.0252 -0.0035,-0.0856 0.02152,-0.0999 -0.104352,-0.10859 -0.223626,-0.2286 -0.280493,-0.36959 -0.02081,-0.0495 -0.0194,-0.0935 -0.0187,-0.14743 0,-0.0777 0,-0.15516 0,-0.23431 -0.05172,0.009 -0.104351,0.0144 -0.159561,0.0158 -0.02752,0 -0.04971,-0.005 -0.06904,-0.0151 -0.03958,0.0453 -0.07913,0.0898 -0.105833,0.14227 -0.03104,0.0583 -0.06311,0.11945 -0.08262,0.18259 -0.0099,0.0375 -0.0071,0.0734 -0.02575,0.10786 -0.02187,0.041 -0.04399,0.0871 -0.06184,0.12939 -0.02222,0.0534 -0.04897,0.0935 -0.08707,0.13951 -0.03034,0.0374 -0.05172,0.0814 -0.0841,0.11651 -0.0127,0.0136 -0.03034,0.0195 -0.03884,0.0346 -0.01658,0.0251 -0.01094,0.0596 -0.01094,0.0869 0,0.0433 0.0067,0.0885 -0.01199,0.12939 -0.02081,0.0453 -0.05687,0.0907 -0.08558,0.13086 -0.03246,0.0453 -0.07546,0.0791 -0.109891,0.12222 -0.02011,0.0252 -0.05189,0.0281 -0.07271,0.0569 -0.02505,0.0331 -0.06477,0.0502 -0.09571,0.0777 -0.02364,0.0216 -0.03104,0.0317 -0.03034,0.0618 0,0.0388 0,0.0777 0,0.11651 0,0.0445 0.0042,0.0733 -0.01446,0.11209 -0.02081,0.0445 -0.03281,0.10933 -0.07179,0.14374 -0.0085,0.007 -0.02117,0.009 -0.02893,0.0144 -0.01446,0.013 -0.02434,0.0525 -0.02963,0.069 -0.01446,0.0453 -0.02928,0.0871 -0.05246,0.13013 -0.01799,0.0309 -0.03736,0.0663 -0.05817,0.095 -0.02893,0.0374 -0.07415,0.0653 -0.107844,0.0999 0.0078,-0.009 -0.04748,0.046 -0.05189,0.0539 -0.0092,0.0158 -0.0035,0.0453 -0.0035,0.0633 0,0.0201 0.0035,0.0438 0,0.0639 -0.0042,0.0267 -0.02222,0.0497 -0.02928,0.0755 -0.01376,0.0539 -0.02752,0.0928 -0.02081,0.14816 0.0035,0.0267 0.01729,0.0791 0.0085,0.10933 -0.0063,0.0223 -0.03246,0.0316 -0.04879,0.0475 -0.01446,0.0136 -0.02963,0.0317 -0.04674,0.0416 -0.01094,0.006 -0.02434,0.007 -0.03316,0.0173 0.124425,0 0.191241,0.0475 0.246627,0.0784 0.0762,0.041 0.145239,0.0898 0.223626,0.12939 0.06184,0.0317 0.121497,0.0517 0.189054,0.0683 0.06036,0.0109 0.12072,0.023 0.180375,0.0381 0.03104,0.006 0.06184,0.0144 0.092,0.0245 0.06406,0.0101 0.125907,0.002 0.190712,-0.009 0.07324,-0.0107 0.142981,-0.023 0.21276,-0.0503 0.09553,-0.0368 0.191241,-0.0655 0.291183,-0.0841 0.09846,-0.0195 0.191206,-0.0353 0.282505,-0.0791 0.116522,-0.0561 0.233009,-0.10639 0.357998,-0.14173 0.08707,-0.0236 0.173391,-0.0201 0.251778,-0.0611 0.04805,-0.0223 0.0926,-0.051 0.132891,-0.0848 0.01305,-0.0114 0.02681,-0.0223 0.04032,-0.0337 0.02081,-0.0353 -0.03958,-0.092 -0.05687,-0.11577"
       style="fill:#21201d;fill-opacity:1;fill-rule:nonzero;stroke:none;stroke-width:0.184057"
       id="path636" />
    <path
       d="m 62.296965,139.16137 c 0.02081,-0.16031 0.0495,-0.3186 0.06608,-0.47965 0.0035,-0.0351 0.0085,-0.0711 0.0056,-0.10786 -0.0035,-0.0567 -0.02222,-0.10988 -0.02293,-0.16749 -0.0035,-0.0532 0,-0.11062 -0.02152,-0.16032 -0.01799,-0.0403 -0.08192,-0.092 -0.109326,-0.12295 -0.03528,-0.0388 -0.07899,-0.0826 -0.101988,-0.13013 -0.02681,-0.0539 -0.06332,-0.10565 -0.0762,-0.16381 -0.02011,-0.0836 -0.0532,-0.16399 -0.08061,-0.24516 -0.01129,-0.0331 -0.04011,-0.067 -0.05743,-0.0928 -0.02822,-0.041 -0.05909,-0.0821 -0.0841,-0.12368 -0.02293,-0.0388 -0.05539,-0.10437 -0.05115,-0.15112 0.0035,-0.0337 0.02152,-0.069 0.03175,-0.10049 0.01235,-0.0425 0.02681,-0.0828 0.02893,-0.1259 0.0035,-0.0675 -0.0046,-0.1316 -0.0187,-0.19694 -0.02681,-0.1108 -0.07271,-0.21719 -0.107139,-0.32578 -0.02222,-0.0705 -0.05172,-0.14743 -0.08632,-0.21277 -0.02152,-0.008 -0.04159,-0.0188 -0.06036,-0.0339 -0.09627,-0.0826 -0.176142,-0.17688 -0.237984,-0.28253 -0.109325,0.009 -0.218475,0.0166 -0.327801,0.0195 -0.0085,0.0295 -0.01588,0.0604 -0.01799,0.0891 0,0.0136 0.0071,0.0445 0.0046,0.0569 -0.01023,0.0287 -0.05761,0.0503 -0.07987,0.0683 -0.0453,0.0359 -0.08911,0.0711 -0.136596,0.1027 -0.03588,0.0245 -0.07267,0.0482 -0.108585,0.0734 -0.02364,0.0164 -0.04177,0.0258 -0.04177,0.056 0,0.0274 0,0.0512 -0.0081,0.0791 -0.02787,0.0799 -0.09405,0.14964 -0.130845,0.22658 -0.0042,0.0114 -0.0092,0.0236 -0.01376,0.0344 -0.01588,0.0381 -0.0187,0.0668 -0.0187,0.10638 0,0.0482 0.0035,0.097 0,0.14522 0,0.0317 -0.02117,0.0589 -0.02293,0.0893 0,0.0114 0.0035,0.0193 0,0.0295 -0.0067,0.0193 -0.03535,0.028 -0.05193,0.0366 -0.03281,0.0151 -0.06237,0.0287 -0.092,0.0517 -0.04233,0.0324 -0.08043,0.0346 -0.13014,0.0425 -0.04233,0.007 -0.08336,0.0144 -0.124248,0.0265 -0.0194,0.006 -0.03034,0.0195 -0.04823,0.0267 -0.02011,0.009 -0.03662,-0.002 -0.04526,0.0208 -0.0035,0.007 0,0.0366 0,0.0418 v 0.0891 c 0,0.10215 0.0035,0.20062 -0.02434,0.30057 -0.01658,0.0596 -0.03609,0.0848 -0.0683,0.12865 -0.006,0.009 -0.04177,0.0525 -0.04674,0.072 -0.01164,0.0423 0.01658,0.0992 0.03281,0.13731 0.01446,0.0329 0.02364,0.0698 0.04473,0.0999 0.02223,0.0302 0.02858,0.0503 0.04085,0.0849 0.02364,0.0675 0.04967,0.14375 0.05391,0.21424 0.0035,0.0503 0.0053,0.1143 -0.0042,0.16308 -0.01376,0.0727 -0.04819,0.13731 -0.06625,0.2078 -0.0056,0.0223 -0.01305,0.0604 -0.0042,0.0841 0.0035,0.009 0.01517,0.018 0.02011,0.0281 0.0095,0.0171 0.01305,0.0329 0.01658,0.0525 0.03104,0.17467 0.01588,0.36517 0.01588,0.54131 0,0.13234 0.01094,0.26891 -0.0056,0.39904 -0.0095,0.072 -0.01235,0.14172 -0.02293,0.21424 -0.0063,0.0475 -0.02081,0.092 -0.03245,0.13804 -0.02293,0.0871 -0.02575,0.18701 -0.03588,0.27535 -0.01305,0.12222 -0.02434,0.24591 -0.03736,0.36959 -0.006,0.0517 -0.0046,0.10289 -0.0046,0.15535 0,0.0208 -0.01058,0.072 0,0.0955 l -0.150918,-0.16106 c -0.02364,0.026 -0.05542,0.0403 -0.0834,0.0598 -0.046,0.0317 -0.09864,0.0495 -0.144639,0.0812 -0.02787,0.0195 -0.05599,0.0374 -0.08266,0.0569 -0.03588,0.025 -0.0611,0.069 -0.100683,0.0906 -0.01199,0.007 -0.03884,0.007 -0.04731,0.0201 -0.0053,0.008 0,0.0215 0,0.0302 0,0.0324 -0.01023,0.0799 0,0.11007 -0.0046,0.0144 0,0.0237 0.01588,0.0272 0.01446,0.006 0.02787,0.0123 0.04307,0.0188 0.03104,0.009 0.06682,0.006 0.09846,0.007 0.04181,0.002 0.141747,-0.0216 0.176883,0.0193 0.05193,0.0613 0.102165,0.13013 0.148908,0.19786 0.0095,0.0258 0.02857,0.0396 0.05669,0.0401 0.04177,0.005 0.08135,0.0109 0.121673,0.0203 0.02011,0.006 0.04011,0.0158 0.06036,0.0223 0.08043,0.0245 0.149472,0.0245 0.2286,-0.0109 0.0532,-0.025 0.07123,-0.0525 0.104917,-0.0992 0.01799,-0.0193 0.03535,-0.0409 0.05172,-0.0626 0.0035,-0.008 0.006,-0.0164 0.0085,-0.0237 0.01658,-0.0322 0.05394,-0.0488 0.08781,-0.0525 0.0049,0 0.01023,0 0.01446,0.002 0.06184,0.007 0.124424,0.0123 0.187007,0.0151 0.07969,0.002 0.102694,0 0.166017,-0.0186 0.06036,-0.0166 0.122203,-0.0296 0.181822,-0.0504 0.01658,-0.005 0.03104,-0.0107 0.0453,-0.0201 0.02752,-0.0215 0.04251,-0.0532 0.07415,-0.0712 0.03245,-0.0193 0.05468,-0.0381 0.08117,-0.0661 0.04106,-0.041 0.08781,-0.0734 0.13088,-0.1108 0.02716,-0.023 0.04674,-0.0525 0.05888,-0.0871 0.02752,-0.0473 0.04896,-0.0963 0.0648,-0.14946 0.01199,-0.0569 0,-0.10712 0.0042,-0.16399 0.01446,-0.16234 0.124424,-0.28032 0.240171,-0.38597 0.102164,-0.092 0.216464,-0.14817 0.332246,-0.2194 0.04674,-0.0287 0.09349,-0.0539 0.119274,-0.10197 0.02928,-0.0561 0.05539,-0.11154 0.09349,-0.16252 0.01305,-0.0173 0.02434,-0.0324 0.03246,-0.0532 0.01588,-0.0403 0.02293,-0.0791 0.04159,-0.12075 0.01729,-0.0383 0.04106,-0.0727 0.04823,-0.11301 0.0071,-0.0366 0,-0.0819 0,-0.11927 0,-0.0727 -0.0064,-0.14522 -0.01376,-0.21792 -0.0053,-0.0525 -0.01305,-0.10712 -0.0056,-0.16032 0.0035,-0.023 0.0063,-0.0144 0.01305,-0.0668"
       style="fill:#21201d;fill-opacity:1;fill-rule:nonzero;stroke:none;stroke-width:0.184057"
       id="path638" />
  </g>
</svg>
