<?xml version="1.0" encoding="UTF-8" standalone="no"?>
<!-- Created with Inkscape (http://www.inkscape.org/) -->

<svg
   width="7.4341798mm"
   height="7.4599628mm"
   viewBox="0 0 7.4341798 7.4599628"
   version="1.1"
   id="svg2456"
   inkscape:version="1.1.2 (0a00cf5339, 2022-02-04)"
   sodipodi:docname="z24.svg"
   xmlns:inkscape="http://www.inkscape.org/namespaces/inkscape"
   xmlns:sodipodi="http://sodipodi.sourceforge.net/DTD/sodipodi-0.dtd"
   xmlns="http://www.w3.org/2000/svg"
   xmlns:svg="http://www.w3.org/2000/svg">
  <sodipodi:namedview
     id="namedview2458"
     pagecolor="#ffffff"
     bordercolor="#666666"
     borderopacity="1.0"
     inkscape:pageshadow="2"
     inkscape:pageopacity="0.0"
     inkscape:pagecheckerboard="0"
     inkscape:document-units="mm"
     showgrid="false"
     inkscape:zoom="0.64052329"
     inkscape:cx="-988.25447"
     inkscape:cy="-24.198964"
     inkscape:window-width="2560"
     inkscape:window-height="1376"
     inkscape:window-x="0"
     inkscape:window-y="0"
     inkscape:window-maximized="1"
     inkscape:current-layer="layer1" />
  <defs
     id="defs2453" />
  <g
     inkscape:label="Layer 1"
     inkscape:groupmode="layer"
     id="layer1"
     transform="translate(-366.39742,-154.89099)">
    <path
       d="m 371.47677,158.25651 c 7.1e-4,0.004 7.1e-4,0.0101 7.1e-4,0.0158 0.002,-0.004 0.004,-0.009 0.006,-0.0121 -0.002,-0.002 -0.005,-0.003 -0.006,-0.004"
       style="fill:#21201d;fill-opacity:1;fill-rule:evenodd;stroke:none;stroke-width:0.184057"
       id="path566" />
    <path
       d="m 368.16652,159.80886 c -0.0179,0.028 -0.0403,0.0631 -0.0438,0.0948 -0.005,0.0396 0,0.0863 7e-4,0.12589 10e-4,0.0718 -0.0173,0.13805 -0.0663,0.19419 -0.0265,0.0307 -0.0552,0.0545 -0.0769,0.092 -0.0144,0.0236 -0.0258,0.051 -0.0416,0.074 -0.004,0.004 -0.007,0.009 -0.0116,0.0129 -0.0258,-0.0173 -0.0545,-0.0295 -0.0913,-0.0324 -0.0381,-0.003 -0.0762,0.002 -0.11356,0.0109 -0.0819,0.0216 -0.15811,0.0216 -0.24223,0.0252 -0.0482,0.002 -0.0712,0.006 -0.1165,-0.004 -0.0539,-0.0114 -0.1086,-0.009 -0.16326,0 -0.0245,0.004 -0.0517,0.0144 -0.0755,0.0158 -0.0193,0 -0.0381,-0.007 -0.0561,-0.006 -0.0747,0 -0.1524,-0.009 -0.22786,0 -0.0151,0.002 -0.0316,0.006 -0.0475,0.0114 0.0346,-0.0144 0.0705,-0.0295 0.1051,-0.0453 0.0559,-0.023 0.0963,-0.0567 0.14375,-0.0906 0.0826,-0.0596 0.16675,-0.12718 0.23283,-0.20559 0.0353,-0.0425 0.0648,-0.0891 0.0999,-0.1316 0.0282,-0.0344 0.0453,-0.0762 0.072,-0.11209 0.0359,-0.0512 0.0799,-0.0987 0.12147,-0.14743 0.0359,-0.0433 0.0633,-0.0819 0.0942,-0.12866 0.0316,-0.0504 0.0791,-0.0928 0.11577,-0.13951 0.028,-0.0346 0.0525,-0.0655 0.0725,-0.10437 0.002,-0.005 0.004,-0.008 0.006,-0.0136 0.0589,0.0727 0.0977,0.15387 0.14448,0.24167 0.0302,0.0559 0.0733,0.11926 0.12296,0.15884 0.028,0.0215 0.051,0.046 0.0755,0.0705 -0.0129,0.007 -0.023,0.0173 -0.0331,0.0324 m -0.0963,-0.69611 c 0.0668,-0.0287 0.0992,-0.0668 0.13731,-0.1178 0.007,0.0121 0.0151,0.0245 0.023,0.0374 0.0287,0.0453 0.069,0.0755 0.0977,0.12 0.0116,0.0188 0.023,0.0433 0.0381,0.0596 0.0129,0.0151 0.0252,0.0166 0.0381,0.0289 0.0158,0.0151 0.046,0.0604 0.0525,0.0797 0.004,0.0131 -0.002,0.0215 0.001,0.0331 0.008,0.028 0.0302,0.0661 0.0438,0.0935 0.0138,0.0287 0.0331,0.056 0.0519,0.0841 -0.0151,0.028 -0.0331,0.0567 -0.046,0.0826 -0.018,0.0339 -0.0403,0.0675 -0.0539,0.10289 -0.0532,-0.0411 -0.10712,-0.0777 -0.15534,-0.12442 -0.049,-0.0482 -0.1086,-0.0885 -0.16105,-0.1316 -0.0388,-0.0317 -0.0906,-0.0611 -0.12443,-0.0977 -0.041,-0.044 -0.0668,-0.11006 -0.0977,-0.16399 0.0431,-0.0359 0.10418,-0.0641 0.15461,-0.0863 m 0.36093,-0.2459 c 0.0223,0.023 0.0445,0.0504 0.0703,0.0685 0.0289,0.0201 0.0727,0.0653 0.1108,0.0525 0.0215,-0.006 0.049,-0.046 0.0648,-0.0626 0.0309,-0.0317 0.0618,-0.0655 0.0948,-0.0957 0.004,0.0123 0.008,0.0245 0.0131,0.0366 0.0136,0.0316 0.0265,0.0626 0.0381,0.0942 -0.005,0.009 -0.0109,0.018 -0.0151,0.0274 -0.0346,0.0698 -0.0836,0.13013 -0.11872,0.20044 -0.0101,0.018 -0.0201,0.0368 -0.0287,0.0561 -0.0188,-0.0208 -0.0381,-0.0409 -0.0596,-0.0567 -0.021,-0.0166 -0.0403,-0.0267 -0.0569,-0.0468 -0.0223,-0.0282 -0.0403,-0.0626 -0.0596,-0.0928 -0.0396,-0.0604 -0.0792,-0.12018 -0.11799,-0.18129 0.009,-0.01 0.0173,-0.0215 0.0252,-0.0329 0.0129,0.0114 0.0272,0.023 0.0396,0.0329 m 0.47302,0.38615 c 0.003,0.0101 0.006,0.0201 0.0109,0.0295 0.0265,0.0777 0.0639,0.13804 0.12497,0.18332 -7e-4,0.007 -0.001,0.0158 -0.002,0.023 v 0.0331 c -0.007,0.0136 -0.0165,0.0272 -0.0282,0.0366 -0.002,0.002 -0.005,0.003 -0.008,0.005 -0.0488,-0.0433 -0.10196,-0.0784 -0.15883,-0.11081 0.003,-0.0121 0.005,-0.0267 0.008,-0.0445 0.007,-0.041 0.0252,-0.0834 0.0396,-0.12589 0.003,-0.01 0.008,-0.0201 0.0136,-0.0295 m -0.37456,0.71543 c 0.10068,0.002 0.14375,-0.0799 0.19123,-0.16252 -0.005,-0.0223 -0.009,-0.0438 -0.0101,-0.0655 -10e-4,-0.0179 0.002,-0.0381 0.007,-0.0574 0.002,0.002 0.004,0.004 0.006,0.005 0.0195,0.0123 0.041,0.0151 0.0598,0.0245 0.006,-0.006 0.0121,-0.0121 0.0186,-0.0186 0.004,-0.003 0.008,-0.006 0.0109,-0.009 0.0258,0.0272 0.0596,0.0445 0.10638,0.046 0.0351,0 0.0561,0.004 0.0891,0.0121 0.0366,0.009 0.072,-0.002 0.10786,0.003 0.0388,0.006 0.0433,0.025 0.0791,-0.0116 0.0223,-0.023 0.0272,-0.0495 0.046,-0.0762 0.028,-0.0409 0.0574,-0.0733 0.0762,-0.12148 0.0129,-0.0339 0.0294,-0.0733 0.0351,-0.10859 0.004,-0.0252 0.007,-0.0883 -10e-4,-0.11283 -0.004,-0.0121 -0.0109,-0.0208 -0.0158,-0.0295 0.0171,-0.021 0.0351,-0.0403 0.0547,-0.0591 -0.0123,-0.0129 -0.026,-0.0236 -0.0346,-0.0401 -0.009,-0.0151 -0.0151,-0.0316 -0.0201,-0.0468 0,-0.008 0,-0.0158 -7.1e-4,-0.0223 -0.005,-0.10288 0.0129,-0.20062 0.0344,-0.30056 0.004,-0.018 0.0101,-0.028 0.0101,-0.0475 0,-0.009 -7.1e-4,-0.018 -10e-4,-0.028 0.0136,-0.026 0.0274,-0.0525 0.0381,-0.0834 0.003,-0.006 0.004,-0.0109 0.005,-0.0158 10e-4,-0.003 0.004,-0.007 0.006,-0.009 0.003,-0.004 0.006,-0.0109 0.009,-0.0158 0.0215,-0.0281 0.0438,-0.0576 0.0653,-0.0871 -0.009,-0.004 -0.0173,-0.008 -0.0272,-0.0114 -0.049,-0.0223 -0.10712,-0.0504 -0.16326,-0.0418 -0.0309,0.006 -0.018,0.0173 -0.0611,-0.002 -0.0359,-0.0158 -0.0633,-0.0416 -0.10436,-0.0351 -0.0352,0.0188 -0.0683,0.0403 -0.10123,0.0626 -0.0138,0.0547 -0.0144,0.10712 7e-4,0.16178 -0.0109,0.01 -0.0223,0.0193 -0.0324,0.0295 -0.005,0.006 -0.0101,0.0129 -0.0151,0.018 -0.0101,-0.0368 -0.0215,-0.072 -0.0361,-0.10712 -0.004,-0.0131 -0.008,-0.026 -0.008,-0.0403 -0.0151,0.0129 -0.0302,0.0257 -0.0433,0.0416 -0.0337,0.0475 -0.071,0.0908 -0.11503,0.12811 -0.023,0.002 -0.0445,0.004 -0.0633,0.004 h -0.0812 c -0.0173,0 -0.0366,0.002 -0.0539,0 -0.0237,0 -0.0468,-0.0136 -0.0705,-0.0136 -0.0186,0 -0.0366,0.0223 -0.0567,0.0151 -0.0188,-0.007 -0.008,-0.0151 -0.018,-0.0287 -0.0109,-0.004 -0.0193,-0.0116 -0.0245,-0.023 -0.002,-0.008 -0.005,-0.0173 -0.007,-0.0252 -0.0151,-0.0223 -0.0309,-0.0302 -0.0482,-0.0482 -0.0265,0.0138 -0.0445,0.009 -0.0755,0.0131 -0.028,0.004 -0.0158,-0.004 -0.0309,0.0151 -0.005,0.006 -0.0151,0.0394 -0.0166,0.048 -0.002,0.0151 0.006,0.0316 0.002,0.0467 -0.004,0.0245 -0.028,0.0396 -0.0351,0.0641 -0.002,0.0121 0.003,0.0265 0.001,0.0381 -0.001,0.006 -0.003,0.0101 -0.004,0.0144 -0.0359,0.028 -0.0683,0.0582 -0.0928,0.0799 -0.0653,0.0574 -0.12369,0.14945 -0.19547,0.19547 -0.044,0.0282 -0.10712,0.0361 -0.15756,0.046 -0.046,0.005 -0.0906,0.0136 -0.13509,0.0274 -0.023,0.0495 -0.046,0.1027 -0.0769,0.14523 -0.0604,0.0812 -0.0893,0.14669 -0.092,0.24939 -10e-4,0.0366 0.001,0.0532 -0.0151,0.0848 -0.0188,0.0317 -0.0267,0.0418 -0.0554,0.0676 -0.0294,0.0295 -0.0596,0.0547 -0.0913,0.0814 -0.0675,0.0582 -0.12,0.11853 -0.17614,0.18755 -0.0324,0.0418 -0.0683,0.0734 -0.10491,0.11227 -0.0309,0.0329 -0.0368,0.0525 -0.0727,0.0755 -0.0712,0.0423 -0.14099,0.0977 -0.21056,0.14448 -0.0339,0.0223 -0.0641,0.0468 -0.0843,0.0819 -0.008,0.0144 -0.0144,0.0309 -0.0193,0.046 -0.002,0.009 -0.001,0.0144 -0.004,0.0215 0.008,0 0.0156,0 0.025,0 0.0381,0.003 0.0747,0.007 0.11504,0.0109 0.0569,0.005 0.11154,0.0158 0.16547,0.006 0.0388,-0.007 0.0733,0.004 0.1143,0.0101 0.19123,0.0359 0.37676,0.0841 0.56928,0.10344 0.0554,-0.0374 0.12663,-0.0567 0.18995,-0.0631 0.0525,-0.006 0.11503,0.0144 0.17816,0.0374 0.0116,-0.0282 0.0195,-0.0569 0.026,-0.0863 0.003,0 0.005,0 0.007,0 0.0339,-0.006 0.0698,-0.0374 0.0928,-0.0604 0.0346,-0.0339 0.0618,-0.0611 0.0582,-0.11136 -0.003,-0.0375 -0.0179,-0.0633 -0.0164,-0.10289 0.004,-0.12148 0.12792,-0.18773 0.21351,-0.25087 0.0179,-0.0138 0.0453,-0.0302 0.0712,-0.0504 0.0272,0.0136 0.0559,0.026 0.0898,0.0267"
       style="fill:#21201d;fill-opacity:1;fill-rule:nonzero;stroke:none;stroke-width:0.184057"
       id="path568" />
    <path
       d="m 366.57407,157.74465 c 0.0381,0.007 0.0755,0.0129 0.11282,0.0201 0.0596,0.0109 0.11081,0.005 0.1697,0.002 0.10215,-0.004 0.21001,-0.0151 0.30775,-0.0446 0.0539,-0.0166 0.1027,-0.0388 0.15534,-0.0561 0.0431,-0.0129 0.0797,-0.0388 0.12148,-0.0554 0.0596,-0.023 0.12147,-0.0388 0.18184,-0.0574 0.0547,-0.0158 0.0985,-0.0331 0.14964,-0.0547 0.0208,-0.0101 0.0431,-0.0166 0.0668,-0.0237 0.0121,0.097 -7e-4,0.18903 -0.009,0.29118 -0.004,0.0633 -0.003,0.13952 0.0166,0.19989 0.0173,0.0539 0.0237,0.10639 0.0366,0.15958 0.006,0.0309 0.023,0.0604 0.0346,0.0913 0.0265,0.0641 0.0517,0.12939 0.0841,0.19124 -0.0252,0.0223 -0.0519,0.0433 -0.0756,0.067 -0.0193,0.0201 -0.0337,0.0423 -0.0517,0.0631 -0.0344,0.0403 -0.0812,0.0641 -0.11724,0.0999 -0.008,0.009 -0.0171,0.0188 -0.0265,0.0274 -0.0467,-0.0596 -0.0928,-0.12019 -0.13436,-0.18479 -0.0475,-0.072 -0.046,-0.15682 -0.11945,-0.21149 -0.0302,-0.0236 -0.0653,-0.0401 -0.10142,-0.0524 -0.0797,-0.028 -0.14448,-0.0683 -0.21645,-0.1121 -0.0416,-0.0245 -0.0624,-0.0339 -0.0948,-0.0662 -0.0396,-0.0394 -0.0871,-0.0668 -0.13805,-0.0898 -0.0223,-0.01 -0.051,-0.0158 -0.072,-0.028 -0.0166,-0.0101 -0.0272,-0.026 -0.0431,-0.0353 -0.0626,-0.0409 -0.12222,-0.0906 -0.1905,-0.12295 -0.0144,-0.007 -0.0302,-0.0129 -0.0468,-0.0171 m 1.18992,-1.67806 c -0.006,-0.0188 -0.004,-0.0381 -0.009,-0.0561 -0.023,-0.0705 -0.0366,-0.14743 -0.0675,-0.21645 -0.007,-0.0144 -0.0151,-0.0294 -0.0245,-0.0431 0.0245,0.0295 0.0488,0.0589 0.0733,0.0876 0.0388,0.0468 0.0813,0.0755 0.1281,0.11154 0.0819,0.0604 0.17099,0.12222 0.26523,0.16253 0.051,0.0223 0.10362,0.0366 0.15461,0.0574 0.041,0.0173 0.0863,0.0215 0.12865,0.0351 0.0596,0.021 0.11798,0.0475 0.17614,0.0734 0.051,0.023 0.097,0.0374 0.15093,0.0539 0.0561,0.0165 0.1108,0.0488 0.16768,0.0705 0.0265,0.0107 0.0539,0.0201 0.0812,0.028 -0.0388,0.0431 -0.0812,0.0826 -0.12516,0.12792 -0.0445,0.0447 -0.092,0.10436 -0.11577,0.16326 -0.0208,0.0524 -0.0495,0.0957 -0.074,0.14448 -0.0144,0.0287 -0.0223,0.0618 -0.0324,0.0928 -0.0129,0.0403 -0.0257,0.0799 -0.0381,0.12074 -0.046,0.003 -0.0928,0 -0.13878,0.003 -0.0272,0.003 -0.0532,0.0109 -0.0804,0.0151 -0.051,0.009 -0.10289,-0.002 -0.15461,0.002 -0.051,0.004 -0.11006,0.0107 -0.16105,0.0193 -0.0309,0.005 -0.0668,0.023 -0.0935,0.0396 -0.005,0.004 -0.0107,0.008 -0.0158,0.0109 10e-4,-0.0663 0.006,-0.1316 0.0136,-0.19915 0.009,-0.0841 0.0648,-0.14891 0.0455,-0.23799 -0.009,-0.0381 -0.0245,-0.0727 -0.0447,-0.10583 -0.0431,-0.0718 -0.0661,-0.14449 -0.0941,-0.22419 -0.0151,-0.0453 -0.026,-0.0663 -0.0296,-0.11153 -0.005,-0.0567 -0.0228,-0.10786 -0.048,-0.15811 -0.0101,-0.0215 -0.0287,-0.0438 -0.0374,-0.0668 m 1.33569,0.38027 c 0.0166,0.002 0.0339,0.004 0.0482,0.0121 0.0165,0.009 0.0331,0.0223 0.0482,0.0361 7e-4,0.0503 -0.001,0.10068 -0.0201,0.14725 -0.008,0.0203 -0.023,0.0383 -0.0368,0.0539 -0.0107,0.0131 -0.0223,0.0304 -0.0388,0.0376 -0.0136,0.006 -0.028,0 -0.0388,0.0114 -0.0236,0.0274 0.0677,0.0747 0.09,0.097 0.0193,0.0195 0.0467,0.041 0.0567,0.0677 0.009,0.023 0.003,0.0539 0.003,0.0782 v 0.004 c -0.007,0.003 -0.0129,0.005 -0.0208,0.005 -0.0561,0 -0.11945,-0.0223 -0.17541,-0.0317 -0.0475,-0.008 -0.0994,-0.0257 -0.14742,-0.0208 0.0114,-0.0302 0.0245,-0.0596 0.0396,-0.0883 0.0315,-0.0606 0.0524,-0.1294 0.0782,-0.19197 0.0195,-0.0468 0.0324,-0.10437 0.0576,-0.14817 0.0144,-0.0237 0.0351,-0.0468 0.0567,-0.069 m 0.33296,0.76641 c 0.028,-0.008 0.0517,-0.0287 0.0777,-0.0366 0.0193,-0.005 0.051,0 0.072,0 0.0287,0.002 0.0416,0.0171 0.0683,0.0186 0.006,0.0633 -0.0821,0.0648 -0.11651,0.0913 -0.0165,0.0123 -0.0302,0.0324 -0.0396,0.0561 -0.023,0.0151 -0.0453,0.0309 -0.0661,0.046 -0.0519,0.0366 -0.0913,0.0784 -0.11798,0.12792 -0.004,0 -0.007,0 -0.0101,0.002 0.0116,-0.0359 0.0216,-0.0733 0.0295,-0.11135 0.0124,-0.0584 0.0648,-0.11504 0.10436,-0.16897 -0.006,-0.007 -0.009,-0.0144 -0.0144,-0.0215 0.004,-0.002 0.008,-0.002 0.0129,-0.004 m -0.21204,0.62691 v 0 c 7.1e-4,0 7.1e-4,0 10e-4,0 l -10e-4,0.002 m -0.28768,0.2229 c -0.023,0.0583 -0.0374,0.10712 -0.10785,0.10859 -0.0129,0 -0.033,-0.004 -0.0532,-0.0101 0.004,-0.008 0.0101,-0.0164 0.0151,-0.025 0.0116,-0.0173 0.0237,-0.0324 0.0366,-0.046 -0.0114,-0.0468 -0.0107,-0.10142 -0.0136,-0.15111 0.0281,-0.0129 0.0591,-0.0201 0.0893,-0.0322 0.0107,-0.004 0.023,-0.007 0.0337,-0.0116 -0.004,0.018 -0.009,0.0359 -0.0129,0.0532 -0.006,0.023 -0.0109,0.0467 -0.0124,0.069 0.0296,-0.026 0.0606,-0.051 0.0928,-0.074 0.006,-0.002 0.0109,-0.002 0.0165,-0.002 -0.0502,0.0309 -0.0661,0.0769 -0.0841,0.12147 m 0.17614,-0.78795 c -0.0151,0.0302 -0.0294,0.0554 -0.0388,0.0898 -0.005,0.0223 -10e-4,0.0453 -0.006,0.067 -0.007,0.0329 -0.0193,0.0653 -0.0252,0.0985 -0.003,0.0201 -0.007,0.0396 -0.01,0.0596 -0.0569,0.0223 -0.11154,0.0475 -0.16178,0.0791 -0.0331,0.0193 -0.0683,0.0351 -0.10363,0.0503 -0.002,-0.004 -0.004,-0.009 -0.004,-0.0144 -0.004,-0.0353 7.1e-4,-0.0747 7.1e-4,-0.1108 v -0.21572 c 0,-0.0272 -0.001,-0.0567 -0.002,-0.0847 0.0166,-0.007 0.0346,-0.013 0.051,-0.021 0.0482,-0.0237 0.0957,-0.0574 0.14669,-0.0769 0.0295,-0.0121 0.0734,-0.009 0.10584,-0.0121 0.0307,-0.002 0.051,0.008 0.074,0.0216 -0.0116,0.0215 -0.0123,0.0438 -0.026,0.0698 m -0.57793,0.56873 c -0.0203,0.0121 -0.0547,0.0252 -0.0712,0.0431 -0.0151,0.0158 -0.0129,0.0381 -0.0331,0.0547 -0.0431,0.0359 -0.10564,0.0589 -0.15387,0.0878 -0.0589,0.0337 -0.13362,0.0596 -0.15515,0.12719 -0.0238,-0.064 -0.0482,-0.12443 -0.0626,-0.19124 -0.0144,-0.0661 -0.0433,-0.13234 -0.0641,-0.19841 -0.0144,-0.0475 -0.0423,-0.1 -0.0502,-0.1489 -0.009,-0.0539 7e-4,-0.11578 0.006,-0.17468 0.0416,-0.0129 0.0789,-0.026 0.11705,-0.0475 0.0346,-0.0201 0.0633,-0.056 0.10289,-0.0646 0.0582,-0.0101 0.13307,0.002 0.19197,0.0121 0.0806,0.0136 0.1316,-0.006 0.20209,-0.0339 -0.003,0.044 -0.004,0.0878 -0.005,0.13308 -0.001,0.0539 0.0166,0.10141 0.0158,0.15387 0,0.023 -0.004,0.049 -7e-4,0.0712 0.003,0.0193 0.0123,0.028 0.0166,0.0453 0.006,0.0201 0.006,0.0747 0,0.0955 0,0 -7.1e-4,0.002 -0.001,0.003 -0.0178,0.0116 -0.0366,0.0215 -0.0552,0.0324 m -1.79749,0.12792 c 0.15019,0.14246 0.28694,0.29413 0.45149,0.42205 0.0438,0.0346 0.0777,0.0878 0.12442,0.11724 0.041,0.0265 0.0863,0.0503 0.11927,0.0784 0.009,0.008 0.0217,0.0251 0.0331,0.0359 0.0116,0.0114 0.0201,0.0201 0.0287,0.0331 0.0267,0.0351 0.049,0.0733 0.0727,0.11135 0.0129,0.0188 0.0302,0.0339 0.0495,0.046 -0.004,0.0109 -0.009,0.0223 -0.0121,0.0317 -0.004,0.0109 -0.008,0.0223 -0.0109,0.0339 0.0425,-0.0188 0.0856,-0.0316 0.13087,-0.0425 0.049,-0.0158 0.1108,-0.0324 0.15111,-0.0653 0.0653,-0.0539 0.11209,-0.15259 0.17025,-0.21719 0.0433,-0.0482 0.1143,-0.13731 0.18277,-0.16105 0.0258,-0.004 0.0517,-0.004 0.0769,-0.002 0.004,0 0.008,0 0.0114,0 0.0208,-0.0482 0.0366,-0.1027 0.0618,-0.14871 0.0158,-0.0289 0.0497,-0.0554 0.0733,-0.0769 0.0324,-0.0316 0.0641,-0.0289 0.10583,-0.0403 0.005,-0.002 0.009,-0.003 0.0129,-0.004 0.006,0.0131 0.0129,0.026 0.0166,0.044 0.004,0.0179 0.008,0.0337 0.0129,0.0503 -0.002,0.0431 -0.003,0.0871 -0.001,0.13013 0.003,0.0611 0.0445,0.0878 0.092,0.0574 0.0316,-0.0208 0.11651,-0.0998 0.1524,-0.0841 0.0173,0.009 0.0151,0.0339 0.0375,0.0368 0.0164,-0.0489 -0.0166,-0.11153 0.0503,-0.13804 0.0374,-0.0151 0.0963,0.0201 0.11136,-0.0331 0.0138,-0.0482 -0.0144,-0.10289 0.007,-0.15019 0.0131,-0.0282 0.0396,-0.049 0.0598,-0.0727 7e-4,0 10e-4,0 0.003,0.002 0.0447,0.0144 0.0309,0.004 0.0611,-0.005 0.0547,-0.0153 0.11503,0.006 0.16767,0.0208 0.009,0.003 0.0186,0.005 0.0272,0.009 0.004,-0.006 0.007,-0.0116 0.0109,-0.0188 7.1e-4,0 0.001,-0.002 0.001,-0.003 0.0145,-0.0171 0.0281,-0.0352 0.0425,-0.0488 0.0396,-0.0396 0.0784,-0.0863 0.12516,-0.11872 0.0374,-0.0151 0.0725,-0.0295 0.10638,-0.0416 0.0446,-0.0166 0.0883,-0.0324 0.13216,-0.0482 0.0158,-0.006 0.0302,-0.0109 0.0453,-0.0151 -7e-4,0 -7e-4,-0.002 -7e-4,-0.002 -0.0339,-0.0646 0.0136,-0.0329 -0.0633,-0.11136 -0.0467,-0.0489 -0.0964,-0.0935 -0.14374,-0.14025 0.0329,-0.0201 0.0611,-0.0524 0.0812,-0.0942 0.023,-0.0525 0.0467,-0.11135 0.0618,-0.16307 0.005,-0.0188 0.041,-0.0885 0.0331,-0.1051 -0.009,-0.0179 -0.0712,-0.0251 -0.0942,-0.0329 -0.0655,-0.021 -0.12792,-0.0267 -0.19345,-0.0403 -0.0287,-0.006 -0.0554,-0.0109 -0.0848,-0.0208 -0.028,-0.0101 -0.0762,-0.0101 -0.0942,-0.0368 -0.0164,-0.025 -0.008,-0.0596 -0.0193,-0.0883 -0.0129,-0.0295 -0.0316,-0.051 -0.0453,-0.0784 -0.0188,-0.0381 0.0237,-0.0755 0.0524,-0.0992 0.0309,-0.0238 0.0287,-0.0272 0.0374,-0.0648 0.005,-0.023 0.018,-0.0517 0.0252,-0.079 0.0114,-0.0388 0.0287,-0.092 0.0208,-0.13528 -0.009,-0.0532 -0.0475,-0.0797 -0.0928,-0.10124 0,-0.002 10e-4,-0.004 0.002,-0.006 -0.0144,-0.01 -0.028,-0.0186 -0.0431,-0.028 0.0164,-0.0173 0.0322,-0.0366 0.048,-0.0539 -0.004,-0.0309 -0.0151,-0.0611 -0.0337,-0.0942 -0.0188,-0.0295 -0.0381,-0.0604 -0.0569,-0.0913 -0.0107,0.009 -0.0223,0.0195 -0.0331,0.0287 -0.0287,0.0274 -0.0431,0.0655 -0.0539,0.10289 -0.004,0.0144 -0.01,0.0287 -0.0157,0.0431 -0.004,0 -0.008,-0.002 -0.0109,-0.002 -0.0648,-0.0101 -0.13657,-0.0136 -0.19768,-0.0361 -0.0957,-0.0337 -0.1662,-0.0423 -0.26467,-0.0151 -0.0352,0.0101 -0.051,0.0166 -0.0856,0.0101 -0.0374,-0.009 -0.0473,-0.0136 -0.0819,-0.0324 -0.0366,-0.0208 -0.0683,-0.0423 -0.10491,-0.0646 -0.0734,-0.0482 -0.14743,-0.0806 -0.23007,-0.11357 -0.049,-0.0188 -0.0898,-0.0447 -0.13657,-0.0677 -0.0403,-0.0201 -0.0618,-0.0201 -0.0935,-0.048 -0.0618,-0.0561 -0.13528,-0.10638 -0.19989,-0.16031 -0.0324,-0.0252 -0.0633,-0.0468 -0.10362,-0.0554 -0.0158,-0.003 -0.0329,-0.005 -0.0495,-0.005 -0.009,0 -0.0144,0.003 -0.0215,0.003 0.003,0.007 0.006,0.0151 0.007,0.023 0.009,0.0381 0.0158,0.0747 0.0237,0.1143 0.0114,0.0547 0.0171,0.1108 0.0423,0.15884 0.018,0.0353 0.0188,0.0712 0.023,0.11301 0.0237,0.20633 0.0302,0.41119 0.0747,0.61328 0.0116,0.0547 0.004,0.1178 0.021,0.17173 0.0129,0.0453 0.033,0.0928 0.0401,0.13528 0.002,0.0129 0,0.0337 0.002,0.0495 0.001,0.0166 0.002,0.0282 0.001,0.0433 -0.003,0.0453 -0.0101,0.0891 -0.0158,0.13215 -0.004,0.0331 0.004,0.0655 0.0166,0.0957 -0.0821,0.0331 -0.13804,0.0725 -0.19123,0.14945 -0.0202,0.0302 -0.0274,0.046 -0.0583,0.0626 -0.033,0.0173 -0.046,0.0203 -0.0841,0.0274 -0.0409,0.008 -0.0782,0.0121 -0.12148,0.0179 -0.0876,0.0109 -0.16528,0.0339 -0.24866,0.0618 -0.0504,0.0166 -0.0979,0.023 -0.1489,0.0361 -0.0438,0.01 -0.0604,0.0243 -0.10289,0.023 -0.0834,-0.003 -0.17172,0.005 -0.25584,0.006 -0.0403,0 -0.0784,0.004 -0.11503,0.0237 -0.0144,0.007 -0.0289,0.0178 -0.0411,0.028 -0.007,0.005 -0.009,0.0116 -0.0143,0.0151 0.007,0.004 0.0129,0.009 0.0215,0.0144 0.0294,0.0237 0.0583,0.046 0.0898,0.0712 0.0447,0.0359 0.0841,0.074 0.13455,0.0955 0.0366,0.0153 0.0604,0.0425 0.0913,0.072"
       style="fill:#21201d;fill-opacity:1;fill-rule:nonzero;stroke:none;stroke-width:0.184057"
       id="path570" />
    <path
       d="m 373.01953,158.79286 c -0.0401,0.0346 -0.074,0.0727 -0.11283,0.10712 -0.0316,0.028 -0.1489,-0.14375 -0.17908,-0.11356 -0.0416,0.0423 -0.0898,0.0797 -0.13436,0.11798 -0.0418,0.0344 -0.0727,0.0653 -0.10786,0.10491 -0.0267,0.028 -0.0596,0.0532 -0.0906,0.0784 -0.0539,-0.0863 -0.0762,-0.18056 -0.10859,-0.28271 -10e-4,-0.006 -0.004,-0.0129 -0.006,-0.0193 h 0.0144 c 0.0604,0 0.12148,-0.006 0.18111,-0.0158 0.0131,-0.002 0.0289,-0.0129 0.0396,-0.0136 0.018,0 0.0445,0.0101 0.0633,0.0121 0.0403,0.003 0.0804,0.002 0.12074,0.002 0.0532,0 0.12,0.0109 0.1697,-0.0114 0.0438,-0.0203 0.0878,-0.0433 0.13436,-0.0519 0.0331,-0.006 0.0613,-0.025 0.0935,-0.0359 0.0512,-0.0151 0.1051,-0.0188 0.15829,-0.026 -0.0806,0.0411 -0.16547,0.0893 -0.23522,0.14817 m -0.33204,1.12312 c 0.0208,0.0295 0.0468,0.0539 0.0747,0.0762 0.0626,0.0475 0.10638,0.1027 0.1581,0.16234 0.0295,0.0346 0.0445,0.049 0.0648,0.0871 0.0237,0.0482 0.0574,0.0871 0.0942,0.12148 0.0171,0.0158 0.0408,0.0289 0.0559,0.046 0.0116,0.0138 0.0166,0.0317 0.0281,0.0453 0.0431,0.0547 0.0819,0.11651 0.13289,0.16547 0.0101,0.0107 0.0223,0.0193 0.0353,0.028 -0.0309,-0.0166 -0.0618,-0.0331 -0.0935,-0.0495 -0.0482,-0.026 -0.095,-0.0361 -0.14743,-0.0497 -0.0906,-0.0245 -0.18755,-0.0445 -0.28105,-0.0445 -0.0519,0 -0.10141,0.005 -0.15166,0.006 -0.0411,0 -0.0806,0.0129 -0.12166,0.0166 -0.0582,0.005 -0.11706,0 -0.17541,0 -0.0517,0 -0.0948,0.004 -0.14596,0.009 -0.046,0.006 -0.29393,-0.13234 -0.34142,-0.13381 0.0309,-0.0834 0.27038,-0.0359 0.29983,-0.13657 0.002,-0.008 -0.12093,-0.0495 -0.12221,-0.0574 -0.009,-0.0777 0.009,-0.14669 0.0114,-0.22087 -0.008,-0.074 -0.0871,-0.24792 -0.0955,-0.3221 0.025,-0.0114 0.0517,-0.0223 0.0762,-0.0359 0.0223,-0.0121 0.0409,-0.0287 0.0626,-0.0431 0.0401,-0.0267 0.0883,-0.0353 0.13068,-0.0576 0.0418,-0.0237 0.0893,-0.0517 0.13013,-0.0777 0.0116,-0.009 0.0237,-0.0186 0.0339,-0.0309 0.0158,0.0446 0.0302,0.09 0.0425,0.13731 0.0208,0.0777 0.19695,0.28695 0.24443,0.35891 m -0.87077,-0.68175 c -0.007,-0.0201 -0.0136,-0.0453 -0.0245,-0.0639 -0.008,-0.0158 -0.0193,-0.0188 -0.0295,-0.0331 -0.0121,-0.0166 -0.0302,-0.0639 -0.033,-0.0841 -0.002,-0.0121 0.005,-0.0193 0.004,-0.0309 -7e-4,-0.005 -10e-4,-0.0101 -0.002,-0.0158 0.0116,-0.0136 0.0237,-0.0287 0.0287,-0.0431 0.006,-0.0188 -0.003,-0.0388 0.009,-0.0604 0.009,-0.0166 0.0195,-0.0331 0.0316,-0.0489 0.003,0.004 0.006,0.008 0.0109,0.009 0.0129,0.004 0.0294,-0.0158 0.0388,-0.0223 0.0324,-0.023 0.0819,-0.0411 0.11854,-0.0497 0.0374,-0.008 0.0749,-0.009 0.11301,-0.007 0.023,0.026 0.046,0.0517 0.0668,0.0791 0.0287,0.0359 0.0718,0.072 0.0963,0.11283 0.0309,0.0525 0.044,0.12866 0.0648,0.18774 -0.0129,0.0136 -0.0252,0.0265 -0.0366,0.0423 -0.0223,0.0302 -0.0346,0.0727 -0.0655,0.0942 -0.0453,0.0309 -0.11283,0.0482 -0.16602,0.0611 -0.0596,0.0144 -0.0942,0.0403 -0.1316,0.0755 -0.008,-0.0245 -0.0166,-0.049 -0.026,-0.0747 -0.0186,-0.0468 -0.0495,-0.0821 -0.0675,-0.1281 m -0.023,1.12459 c -0.003,0.0158 -0.006,0.0309 -0.01,0.0468 -0.018,0.002 -0.0346,0.004 -0.0512,0.008 -0.0366,0.009 -0.0712,0.0329 -0.10933,0.0294 -0.0525,-0.006 -0.11559,-0.0396 -0.16381,-0.0648 -0.0497,-0.0265 -0.0898,-0.0302 -0.13528,-0.0294 0.0116,-0.0445 0.0116,-0.0883 0.0252,-0.13234 0.007,-0.0208 0.0173,-0.0438 0.0208,-0.0646 0.004,-0.0188 -0.004,-0.0295 -0.001,-0.046 7e-4,-0.0188 0.0136,-0.0626 0.0236,-0.0826 0.008,-0.002 0.0158,-0.004 0.0202,-0.009 0.0173,-0.0101 0.0223,-0.0317 0.0445,-0.0396 0.0468,-0.0208 0.10933,-0.0252 0.15811,-0.0374 0.0641,-0.0144 0.13878,-0.0166 0.17559,-0.0784 0.002,0.0497 0.005,0.0999 0,0.15018 -0.007,0.0655 0,0.13382 0,0.19989 0,0.0468 0.01,0.10289 0.003,0.14964 m -0.20706,0.58236 c -0.0329,0.0733 -0.0992,0.11651 -0.10638,0.20338 -0.003,0.0376 0.001,0.0727 0.009,0.1086 0.018,0.0791 0.0272,0.20559 0.0295,0.28695 7e-4,0.0453 0.004,0.0668 -0.005,0.11006 -0.0109,0.0525 -0.0101,0.10418 -0.002,0.1559 0.003,0.0237 0.0129,0.0504 0.0129,0.0742 7.1e-4,0.0171 -0.006,0.0344 -0.006,0.0525 -7.1e-4,0.071 -0.0101,0.14449 -10e-4,0.21627 10e-4,0.0158 0.005,0.0309 0.009,0.046 -0.0136,-0.0329 -0.0267,-0.0676 -0.0403,-0.1005 -0.0208,-0.0534 -0.0495,-0.092 -0.0812,-0.13676 -0.0547,-0.079 -0.11503,-0.16031 -0.18626,-0.22418 -0.0388,-0.0339 -0.0804,-0.0626 -0.11927,-0.0957 -0.0316,-0.0272 -0.069,-0.0438 -0.10289,-0.0683 -0.0468,-0.0359 -0.0992,-0.13234 -0.14301,-0.17192 -0.0388,-0.0351 -0.0742,-0.0611 -0.11651,-0.0905 -0.0445,-0.0316 -0.0841,-0.0755 -0.12589,-0.11136 0.0604,-0.044 0.12516,-0.0755 0.19418,-0.1143 0.0517,-0.0289 0.11006,-0.069 0.14595,-0.11651 0.0339,-0.0425 0.072,-0.0742 0.10712,-0.11227 0.0201,-0.0215 0.0359,-0.0495 0.0532,-0.0755 0.0445,-0.0661 0.0928,-0.13087 0.12792,-0.20339 l 10e-4,-0.004 c 0.0173,0.006 0.0353,0.0116 0.0539,0.0158 0.0252,0.006 0.0497,0.005 0.0747,0.009 0.0467,0.007 0.0885,0.0316 0.13455,0.0418 0.0467,0.0114 0.0999,0.0215 0.14743,0.028 0.0107,0.002 0.023,0 0.0344,0 -0.0302,0.092 -0.0611,0.1848 -0.0999,0.27683 m -1.05317,0.19492 c -0.007,-0.004 -0.0124,-0.007 -0.018,-0.0109 -0.0324,-0.0166 -0.0734,-0.0216 -0.0999,-0.0497 -0.0109,-0.0121 -0.0208,-0.0258 -0.0302,-0.0409 7.1e-4,0.0107 0.002,0.0208 0.004,0.0316 0.002,0.0171 0.005,0.0374 0.007,0.0582 -0.0101,-0.007 -0.021,-0.0158 -0.0296,-0.0252 -0.01,-0.0129 -0.0114,-0.0322 -0.0223,-0.0453 -0.0129,-0.0129 -0.0309,-0.0136 -0.0416,-0.0295 -0.018,-0.0265 -0.023,-0.0878 -0.0173,-0.11798 0.007,-0.0344 0.0208,-0.0683 0.0309,-0.1027 0.0144,-0.0539 0.0374,-0.10142 0.0777,-0.14596 0.0438,-0.051 0.12074,-0.0906 0.15461,-0.1489 0.003,-0.002 0.006,-0.004 0.008,-0.004 0.0251,-0.0123 0.0488,-0.0294 0.0725,-0.046 0.003,0 0.006,0 0.009,0.002 0.0482,0.0158 0.0977,0.0532 0.14301,0.0777 0.0604,0.0322 0.12093,0.0854 0.19197,0.0539 0.018,-0.009 0.0144,-0.021 0.0433,-0.0316 0.0121,-0.006 0.0272,-0.009 0.0423,-0.0123 -0.0245,0.0339 -0.0574,0.0591 -0.0841,0.0935 -0.0438,0.0554 -0.0841,0.1143 -0.13234,0.16602 -0.0401,0.044 -0.0755,0.0964 -0.11356,0.14393 -0.0295,0.0359 -0.0554,0.0854 -0.0898,0.11706 -0.0295,0.0274 -0.0675,0.0475 -0.10418,0.0677 m -0.29706,-0.26762 c 7e-4,-0.023 0.003,-0.0423 0.0144,-0.0646 0.007,-0.0123 0.0151,-0.0215 0.023,-0.0331 -0.008,0.0339 -0.0215,0.0663 -0.0374,0.0977 m 0.31069,-0.66206 c -0.001,0.006 -0.003,0.0121 -0.004,0.0186 l -0.0633,0.13161 c -0.0208,0.023 -0.0423,0.0453 -0.0611,0.0712 v -0.002 c 0.0237,-0.041 0.0282,-0.0871 0.026,-0.13436 0.0388,-0.0331 0.0834,-0.0698 0.10216,-0.0856 m 10e-4,-0.0109 c -0.0225,-0.008 -0.0455,-0.0173 -0.0685,-0.0245 -0.0144,-0.005 -0.0265,-0.0121 -0.0381,-0.0223 0.018,-0.005 0.0361,-0.0114 0.0526,-0.0171 0.0193,-0.007 0.0374,-0.0153 0.0545,-0.0237 h 10e-4 c 0.004,0.028 0.004,0.0567 -0.002,0.0876 m 0.2321,0.097 c 0.0116,-0.0179 0.0144,-0.0401 0.0245,-0.0589 0.0144,-0.028 0.0346,-0.0539 0.049,-0.0826 0.005,-0.009 0.0107,-0.0193 0.0158,-0.0302 0.0423,-0.004 0.0849,-0.0109 0.12645,-0.0208 0.069,-0.018 0.14025,-0.018 0.21203,-0.0346 0.002,-0.002 0.005,-0.002 0.009,-0.003 0,0 0,0 -7e-4,0.002 -0.006,0.0339 -0.0208,0.0683 -0.0315,0.10142 -0.0151,0.0497 -0.0296,0.0992 -0.0453,0.14964 -0.0296,-0.007 -0.0613,-0.004 -0.092,0.002 -0.0497,0.008 -0.10141,0.0245 -0.14964,0.0289 -0.0302,0.002 -0.0675,-0.0123 -0.0962,-0.0195 -0.0131,-0.004 -0.023,-0.009 -0.0324,-0.0158 0.004,-0.005 0.008,-0.0107 0.0114,-0.0173 m 0.29486,-0.49033 c 0.0351,-0.0596 0.0561,-0.1178 0.0567,-0.17964 0.0418,-0.0223 0.0828,-0.0445 0.12019,-0.074 0.002,0.0366 0.007,0.0725 0.0129,0.10767 0.009,0.0512 -0.0109,0.11301 -0.0252,0.1697 -0.0317,0.0144 -0.0661,0.0252 -0.0977,0.0396 -0.002,0 -0.006,0.002 -0.008,0.002 l -0.10215,0.004 c 0.0153,-0.0237 0.0296,-0.0473 0.0433,-0.0698 m 0.26025,-0.99134 c 0.001,-0.004 0.002,-0.006 0.002,-0.0101 0.0215,0.0223 0.0445,0.0438 0.0683,0.0633 0.033,0.0287 0.0547,0.0777 0.0755,0.12497 -0.006,0.009 -0.0101,0.0173 -0.0144,0.0267 -0.0101,0.0173 -0.023,0.0331 -0.0374,0.0468 -0.002,-0.0123 -0.004,-0.0245 -0.006,-0.0359 -0.0114,-0.0821 -0.0374,-0.14891 -0.0913,-0.20357 7.1e-4,-0.004 0.003,-0.009 0.003,-0.0121 m 0.26449,0.36885 c 0.007,0.008 0.0151,0.0164 0.0203,0.0272 0.0158,0.0302 0.0257,0.0675 0.0381,0.0977 0.0237,0.0633 0.0495,0.12663 0.0747,0.18995 0.005,0.0121 0.0109,0.0243 0.0158,0.0366 -0.0245,0.0151 -0.0453,0.0359 -0.0648,0.0589 -0.0322,0.0388 -0.0618,0.0863 -0.0977,0.12148 -0.0208,0.0223 -0.0589,0.0361 -0.0849,0.0504 0.002,-0.0237 -0.006,-0.044 -0.003,-0.0705 0.003,-0.0331 0.006,-0.0604 0.002,-0.0935 -0.003,-0.0223 -0.0144,-0.041 -0.0186,-0.0618 -0.005,-0.0316 -0.005,-0.0646 -0.0123,-0.0955 -0.006,-0.0296 -0.0121,-0.0576 -0.0171,-0.0863 0.0136,-0.0158 0.0257,-0.0317 0.0381,-0.0475 0.0322,-0.046 0.0718,-0.0856 0.10915,-0.12718 m 1.97731,-0.6939 c -0.004,0.004 -0.0101,0.006 -0.0151,0.0109 -0.0138,-0.009 -0.0433,-0.0215 -0.0512,-0.0223 -0.0366,-0.0123 -0.0646,-0.021 -0.10564,-0.0195 -0.0351,0 -0.0705,0 -0.10418,0 -0.0225,-0.002 -0.0309,-0.0101 -0.0482,-0.0143 -0.023,-0.006 -0.0403,0.002 -0.0619,0.006 -0.0316,0.006 -0.0633,0.0123 -0.0905,0.0203 -0.0504,0.0151 -0.10436,0.0257 -0.15387,0.0438 -0.0525,0.0201 -0.095,0.0539 -0.14246,0.0827 -0.0322,0.0208 -0.0604,0.0403 -0.10123,0.0359 -0.0519,-0.006 -0.11449,-0.0366 -0.15829,-0.0646 -0.0453,-0.0287 -0.0574,-0.0475 -0.0841,0.009 -0.0136,0.0287 -0.0359,0.0502 -0.0604,0.0725 -0.0166,0.0144 -0.0403,0.0339 -0.0582,0.046 -0.0296,0.018 -0.0561,0.0101 -0.0885,0.0144 -0.003,0 -0.004,0.002 -0.006,0.002 -0.003,-0.006 -0.006,-0.0129 -0.009,-0.0179 -0.0121,-0.003 -0.0237,-0.006 -0.0352,-0.0101 -0.026,-0.0101 -0.046,-0.0223 -0.0633,-0.0366 -0.009,0 -0.0158,0 -0.0237,0 l -0.004,-0.0144 c -0.041,0.002 -0.0683,-0.0554 -0.0913,-0.0799 -0.041,-0.0475 -0.026,0.0158 -0.0361,0.0388 -0.0144,0.0317 -0.0488,0.0252 -0.0784,0.0252 -0.0374,-0.002 -0.0552,0.0144 -0.092,0.0179 0,0.003 -10e-4,0.008 -0.002,0.0144 -0.0381,0.002 -0.0755,0.004 -0.1143,0.007 -0.007,0.0208 -0.018,0.0423 -0.0267,0.0604 -0.0101,0.0237 -0.0245,0.0366 -0.041,0.0488 -0.007,-0.007 -0.0151,-0.0151 -0.0223,-0.0258 -0.0193,-0.0267 -0.0329,-0.049 -0.0567,-0.072 -0.002,-0.002 -0.003,-0.002 -0.004,-0.004 l -0.048,0.003 c -0.1165,0.006 -0.23227,0.0123 -0.34805,0.0173 -0.0683,0.003 -0.13804,0 -0.20283,0.0252 -0.0416,0.0158 -0.0782,0.0401 -0.11282,0.0683 0.0252,0.0574 0.0445,0.11651 0.0618,0.17689 0.005,0.0164 0.004,0.0272 0.0129,0.0431 0,0 7e-4,0.002 7e-4,0.002 0,0.0215 0.002,0.0416 0.006,0.0646 0.006,0.0388 0.0223,0.0712 0.0272,0.1108 0,0.006 7e-4,0.0114 7e-4,0.0165 -0.0165,0.0567 -0.0366,0.11209 -0.0589,0.16823 -0.005,0.0114 -0.0101,0.0186 -0.0138,0.0295 -0.0445,0.0418 -0.0869,0.0883 -0.12865,0.12865 -0.0309,0.0309 -0.0626,0.0611 -0.0955,0.0906 -0.069,0.067 0.0215,0.0836 -0.0618,0.1281 -10e-4,0 -10e-4,0 -0.002,0.002 l -0.0791,0.004 -0.0552,0.13731 c -0.009,0.004 -0.0166,0.007 -0.0245,0.0109 -0.0302,0.0158 -0.0532,0.0409 -0.0791,0.0618 -0.0403,0.0302 -0.0705,0.0344 -0.11578,0.0517 -0.10785,0.0396 0.0497,0.12792 0.0777,0.17394 0.0215,0.0374 -0.007,0.0935 -0.008,0.13528 -7e-4,0.0237 -0.0101,0.0295 -0.0151,0.048 -0.005,0.0217 -0.001,0.0468 -0.001,0.0698 0.001,0.0618 -0.0309,0.11798 -0.0324,0.18203 -7.1e-4,0.0381 -0.008,0.0703 -0.0136,0.10841 -0.007,0.0504 -0.002,0.10436 -10e-4,0.15534 -0.0136,0.0252 -0.028,0.0504 -0.0431,0.0747 -0.0267,0.0453 -0.0151,0.0648 -0.005,0.11872 0.004,0.0252 0.004,0.023 0.0164,0.0423 0.008,0.0116 0.026,0.0346 0.0353,0.0447 0.023,0.0236 0.0524,0.0409 0.0747,0.0661 0.0353,0.0359 0.0366,0.0431 0.0878,0.0431 h 0.003 c 0.001,0.023 0.003,0.0445 0.004,0.0633 l 0.051,0.0366 c 0.009,-0.009 0.006,-0.004 0.002,0 0.0272,0.0136 0.0539,0.0287 0.0777,0.0468 0.074,0.0583 0.13362,0.0863 0.22712,0.0885 0.0339,0.002 0.0589,0.0539 0.0871,0.071 0.0295,0.0173 0.0388,0.0245 0.0618,0.0519 0.0272,0.0295 0.0502,0.0582 0.074,0.0883 0.0517,0.0641 0.10638,0.11504 0.17043,0.16749 0.0381,0.0324 0.0668,0.0663 0.10142,0.10142 0.0287,0.0294 0.0473,0.0352 0.0676,0.0705 0.0381,0.0683 0.0883,0.1351 0.13013,0.20192 0.0201,0.0324 0.0423,0.0605 0.0747,0.0799 0.0129,0.008 0.0274,0.0143 0.0418,0.0188 0.007,0.002 0.004,-0.0532 0.009,-0.0504 0,-0.008 0.0101,0.0381 0.0101,0.0309 0.004,-0.0374 0.007,-0.0733 0.0109,-0.11006 0.006,-0.0552 0.0171,-0.10712 0.008,-0.15811 -0.006,-0.0366 0.004,-0.0705 0.0114,-0.11006 0.0366,-0.19326 0.0777,-0.43714 0.0964,-0.63408 0.005,-0.0539 0.0287,-0.1086 0.0295,-0.16179 0,-0.046 -0.003,-0.0955 0.002,-0.13583 0.002,-0.0158 0.0129,-0.0396 0.0121,-0.0547 0.0216,-0.0712 0.0589,-0.13436 0.0848,-0.20062 -0.0151,-0.0396 -0.0158,-0.0863 -0.0151,-0.13363 0.0302,-0.009 0.0604,-0.0145 0.0891,-0.0165 0.0942,-0.006 0.3567,0.1086 0.43069,0.048 0.0274,-0.0215 0.0374,-0.0337 0.069,-0.0401 0.0331,-0.006 0.0453,-0.006 0.0806,-0.002 0.0386,0.004 0.0732,0.0114 0.11135,0.018 0.0791,0.0136 0.15387,0.0171 0.23504,0.0136 0.049,0 0.092,0.006 0.13951,0.009 0.0418,0.002 0.0604,-0.005 0.0965,0.007 0.0725,0.0272 0.15166,0.0438 0.22565,0.0676 0.0353,0.0107 0.0698,0.0173 0.10638,0.0107 0.0151,-0.003 0.0302,-0.008 0.044,-0.0136 0.007,-0.004 0.0121,-0.008 0.0171,-0.01 -0.005,-0.006 -0.009,-0.0109 -0.0144,-0.0188 -0.0201,-0.0294 -0.0381,-0.0596 -0.0589,-0.0905 -0.0295,-0.0453 -0.0532,-0.0913 -0.092,-0.12516 -0.0274,-0.0238 -0.0396,-0.0569 -0.0582,-0.0913 -0.092,-0.17191 -0.16896,-0.35007 -0.27682,-0.51186 -0.0296,-0.0445 -0.24461,-0.23523 -0.27682,-0.27609 -0.0289,-0.0353 -0.0618,-0.0697 -0.0821,-0.10362 -0.007,-0.0114 -0.0129,-0.0302 -0.0193,-0.0431 -0.008,-0.0136 -0.0129,-0.0245 -0.0173,-0.0374 -0.0121,-0.041 -0.0215,-0.0821 -0.0324,-0.12296 -0.004,-0.0195 -0.0136,-0.0366 -0.0251,-0.0512 0.006,-0.007 0.0114,-0.0158 0.0186,-0.0215 0.0683,-0.0661 0.10638,-0.12222 0.12516,-0.21848 0.007,-0.0339 0.008,-0.0504 0.0295,-0.0762 0.0215,-0.0267 0.12589,0.17172 0.15608,0.15166 0.0668,-0.0453 0.13012,-0.0762 0.21847,-0.13804 0.0101,-0.007 0.0202,-0.0166 0.0274,-0.0252 0.0495,-0.0604 0.10123,-0.0891 0.15461,-0.13086 0.0337,-0.025 0.0423,-0.0438 0.079,-0.0582 0.0727,-0.028 0.14375,-0.0683 0.21498,-0.1 0.0346,-0.0158 0.0655,-0.0331 0.0898,-0.0633 0.009,-0.0121 0.018,-0.0265 0.0245,-0.0403 0.004,-0.007 0.004,-0.0121 0.007,-0.0193 -0.007,0 -0.0144,-0.002 -0.023,-0.004 -0.0238,-0.006 -0.0475,-0.0136 -0.0711,-0.0208"
       style="fill:#21201d;fill-opacity:1;fill-rule:nonzero;stroke:none;stroke-width:0.184057"
       id="path572" />
    <path
       d="m 370.4571,159.3881 c 0.002,0 0.003,0 0.004,0 7.1e-4,0 0.001,-0.002 0.001,-0.003 -0.002,0.002 -0.003,0.002 -0.006,0.002"
       style="fill:#21201d;fill-opacity:1;fill-rule:nonzero;stroke:none;stroke-width:0.184057"
       id="path574" />
    <path
       d="m 369.61891,160.60031 c -0.004,-0.004 -0.009,-0.008 -0.0136,-0.0114 -0.0403,-0.0353 -0.09,-0.0668 -0.12737,-0.10492 -0.0223,-0.0237 -0.0381,-0.0648 -0.0525,-0.0935 -0.0188,-0.0366 -0.0109,-0.0663 -0.008,-0.10436 0.0136,-0.002 0.0272,-0.005 0.0431,-0.003 0.0346,0.003 0.0633,0.005 0.0987,0 0.0223,-0.003 0.0416,-0.0166 0.0646,-0.021 0.0324,-0.007 0.0661,-0.007 0.0977,-0.0144 0.0173,-0.005 0.0331,-0.008 0.0497,-0.0107 0.007,0.01 0.0158,0.0193 0.0237,0.0295 0.0438,0.051 0.0468,0.0948 0.0468,0.16252 0,0.0388 -0.009,0.0604 -0.0237,0.0861 -0.018,0.008 -0.0366,0.0151 -0.0547,0.0223 -0.049,0.021 -0.0963,0.0418 -0.14448,0.0619 m -0.1905,0.79881 c -0.0814,0.0237 -0.0468,0.013 -0.12166,0.0663 -0.0302,0.023 -0.0567,0.051 -0.079,0.0812 -0.0497,0.0683 -0.10712,0.11871 -0.17044,0.17541 -0.0351,0.0316 -0.0502,0.0489 -0.0913,0.0705 -0.049,0.0272 -0.0898,0.0641 -0.12589,0.10565 -0.0158,0.0188 -0.0295,0.0445 -0.048,0.0611 -0.0138,0.0131 -0.0316,0.0188 -0.0468,0.0316 -0.0561,0.0475 -0.12092,0.0906 -0.17191,0.14669 -0.0114,0.0114 -0.0215,0.0252 -0.0302,0.0396 0.018,-0.0346 0.0346,-0.0683 0.0517,-0.10289 0.0267,-0.0532 0.0374,-0.10418 0.0512,-0.16179 0.0243,-0.0985 0.046,-0.20486 0.046,-0.30701 0,-0.0559 -0.007,-0.10988 -0.007,-0.16528 -7e-4,-0.0438 -0.0145,-0.0871 -0.018,-0.1316 -0.004,-0.0633 -0.002,-0.12792 -7.1e-4,-0.19124 0,-0.0569 -0.004,-0.10289 -0.0109,-0.15884 -0.006,-0.0512 -10e-4,-0.10289 -7e-4,-0.15461 0.0374,0.0151 0.0747,0.0302 0.11485,0.0453 0.0591,0.0237 0.13234,0.0438 0.19639,0.0431 0.0561,-0.002 0.10786,0.008 0.16252,0.0116 0.0316,0.002 0.0653,-0.004 0.097,-0.008 0.0841,-0.007 0.17043,-0.0123 0.25234,-0.0324 0.0116,-0.004 0.0208,-0.006 0.0324,-0.009 0.0201,0.0403 -0.0799,0.0705 -0.0589,0.1108 0.0144,0.0245 0.0316,0.0453 0.046,0.069 0.0287,0.0438 0.0381,0.0955 0.0618,0.1408 0.0236,0.0455 0.0539,0.0972 0.0812,0.14099 0.002,0.003 0.004,0.005 0.006,0.008 -0.0711,0.0272 -0.14228,0.0539 -0.21774,0.0755 m -0.72628,-0.97772 c 0.0123,-0.0346 0.0151,-0.0834 0.0381,-0.1108 0.0396,-0.0495 0.11503,-0.0611 0.16473,-0.0999 0.0324,-0.0245 0.0567,-0.0329 0.0955,-0.0374 0.0331,-0.004 0.0576,-0.0114 0.0828,-0.0129 0.0143,0.004 0.0272,0.009 0.0344,0.0136 0.009,0.005 0.0109,0.0129 0.0166,0.0193 0.002,0.009 0.004,0.0166 0.006,0.0238 0.004,0.023 0.007,0.0611 0.0203,0.0814 0.0107,0.0186 0.0322,0.0245 0.0423,0.0475 0.0223,0.051 0.0272,0.1178 0.0396,0.1732 0.0136,0.0589 0.0173,0.12866 0.0611,0.17191 -0.023,-0.002 -0.046,-0.004 -0.0705,-0.003 -0.0697,0.003 -0.13657,0.0109 -0.20633,0.004 -0.069,-0.005 -0.13951,0.002 -0.20853,0.003 -0.0495,0 -0.1086,0.0121 -0.15737,0.006 -0.004,0 -0.006,-0.002 -0.0101,-0.002 -0.001,-0.0166 -0.004,-0.0324 -0.008,-0.0497 -0.003,-0.0114 -0.006,-0.0237 -0.0114,-0.0351 0.0107,-0.069 0.048,-0.12663 0.071,-0.1927 m 1.21864,-0.18922 -0.0955,-0.28676 0.19473,-0.16179 c -0.0913,-0.0101 -0.1754,-0.0403 -0.25952,-0.074 -0.0136,-0.0138 -0.16105,0.0755 -0.29044,0.15737 -0.0431,0.0346 -0.0856,0.0698 -0.13086,0.10142 -0.10988,0.0762 -0.27682,0.10786 -0.39315,0.17246 7.1e-4,0 10e-4,0 0.003,0 -0.002,0.002 -0.005,0.003 -0.007,0.004 -0.10344,0.0331 -0.21203,0.0503 -0.30553,0.10933 -0.0539,0.0337 -0.0999,0.0804 -0.11927,0.14007 -0.0123,0.0381 -0.0353,0.0698 -0.0267,0.10933 0.008,0.0359 0.0109,0.064 0.0114,0.10289 7.1e-4,0.028 0.004,0.0661 0.0158,0.0948 -0.006,0.021 -0.0107,0.0433 -0.0208,0.069 -0.0151,0.0425 -0.0366,0.0769 -0.0604,0.10712 0.007,0.0928 0.028,0.15903 0.0883,0.23523 0.023,0.0287 0.0368,0.0394 0.0425,0.0747 0.008,0.0359 0.007,0.049 0.003,0.0876 -0.004,0.0418 -0.0116,0.0799 -0.0188,0.12166 -0.0151,0.0861 -0.0166,0.16749 -0.0129,0.25657 7e-4,0.0525 -0.007,0.0999 -0.009,0.1524 -0.003,0.0453 0.006,0.0648 -0.008,0.1051 -0.0274,0.079 -0.0438,0.16455 -0.0675,0.2459 -0.0116,0.0394 -0.0188,0.0775 -0.0109,0.1178 0.002,0.0158 0.008,0.0309 0.0136,0.0468 0.004,0.009 0.008,0.0116 0.0109,0.0188 0.005,-0.006 0.0114,-0.0109 0.0193,-0.0158 0.0317,-0.0223 0.0618,-0.0433 0.095,-0.0663 0.0467,-0.0329 0.0957,-0.0589 0.13013,-0.10123 0.0245,-0.0304 0.0582,-0.0447 0.0942,-0.0663 0.18038,-0.10141 0.36664,-0.18902 0.53561,-0.30847 0.0467,-0.0322 0.10712,-0.0495 0.14945,-0.0854 0.0368,-0.0309 -0.0416,-0.0821 -0.006,-0.10509 0.0116,-0.007 0.0316,-0.0136 0.0453,-0.0215 0.0138,-0.008 0.0252,-0.0129 0.0403,-0.0188 0.041,-0.0144 0.0208,-0.10915 0.0641,-0.12074 0.0136,-0.004 0.0898,0.0742 0.10141,0.0662 l 0.0107,-0.0928 c 0.009,-0.0749 0.0267,-0.15314 0.0245,-0.22805 -7.1e-4,-0.0287 -7.1e-4,-0.0559 10e-4,-0.0826 -0.018,-0.0431 0.0849,-0.0777 0.0747,-0.11927 -0.0193,-0.0828 -0.0596,-0.12148 -0.11651,-0.17982 -0.006,-0.005 -0.009,-0.0101 -0.0121,-0.0151 0.0423,-0.0215 0.0769,-0.0495 0.12074,-0.069 0.0208,-0.008 0.046,-0.0151 0.0655,-0.0265 0.0107,-0.007 0.0265,-0.10289 0.0401,-0.17909 0.0151,-0.0237 0.0267,-0.0497 0.0381,-0.072 0.0396,-0.0782 -0.009,-0.13952 -0.0611,-0.19842 0,0 -7.1e-4,0 -7.1e-4,-0.002"
       style="fill:#21201d;fill-opacity:1;fill-rule:nonzero;stroke:none;stroke-width:0.184057"
       id="path576" />
    <path
       d="m 373.03186,157.94527 c -0.0346,0.0243 -0.049,0.069 -0.0813,0.0955 -0.0366,0.0302 -0.10988,0.0144 -0.15811,0.0144 h -0.25878 c -0.0116,0 -0.0497,-0.004 -0.0848,-0.006 -0.002,-0.003 -0.005,-0.006 -0.007,-0.009 -0.0302,-0.0359 -0.0596,-0.0718 -0.0906,-0.10639 0.0171,-0.0324 0.0344,-0.0641 0.0488,-0.097 0.0109,-0.0245 0.0166,-0.0519 0.0252,-0.0769 0.0173,-0.049 0.051,-0.0885 0.0712,-0.13455 0.01,-0.023 0.0201,-0.0488 0.0302,-0.074 0.0567,0.0381 0.11356,0.0777 0.16969,0.12295 0.0624,0.0503 0.0876,0.1294 0.16952,0.15737 0.0339,0.0109 0.069,0.0151 0.10583,0.0144 0.0775,-0.002 0.14596,0.0151 0.2229,0.0309 0.008,0.002 0.0158,0.004 0.023,0.005 -0.0655,0.005 -0.12885,0.0208 -0.18553,0.0626 m -0.6939,-0.64494 c -0.0769,-0.0374 -0.1408,-0.0913 -0.21497,-0.1467 -0.048,-0.0361 -0.10988,-0.072 -0.16749,-0.0856 -0.051,-0.0109 -0.097,-0.0324 -0.14522,-0.0482 -0.028,-0.009 -0.0604,-0.0107 -0.0898,-0.0151 -0.0497,-0.007 -0.0992,-0.0158 -0.14964,-0.0201 -0.0171,-0.0547 -0.0208,-0.11227 -0.0337,-0.16675 -0.007,-0.0274 -0.0188,-0.0504 -0.0274,-0.0769 -0.0158,-0.049 -0.0144,-0.10142 -0.0265,-0.15184 -0.0123,-0.0495 -0.0281,-0.10639 -0.044,-0.15517 -10e-4,-0.005 -0.004,-0.0109 -0.006,-0.0166 0.0826,-0.0129 0.16399,-0.026 0.24958,-0.0309 0.0777,-0.004 0.14522,0.0388 0.22418,0.004 0.004,-0.002 0.008,-0.004 0.0116,-0.006 -0.0237,0.0497 -0.0453,0.10141 -0.0561,0.15608 -0.0107,0.0547 -0.0698,0.14596 -0.0467,0.20062 0.0267,-0.008 0.0547,-0.0524 0.0727,-0.0742 0.0223,-0.0272 0.0381,-0.0468 0.0653,-0.0697 0.0237,-0.0193 0.0368,-0.048 0.0626,-0.0646 0.0339,-0.0195 0.0747,-0.0101 0.11154,-0.0109 0.0552,-0.002 0.10638,-0.0193 0.16104,-0.028 0.0604,-0.009 0.10344,-0.0252 0.15737,-0.051 0.0109,-0.006 0.0245,-0.0101 0.0388,-0.0145 -0.007,0.0433 -0.0129,0.0848 -0.0215,0.12737 -0.009,0.0445 -0.006,0.0891 -0.0124,0.13308 -0.008,0.0631 -0.0236,0.12497 -0.0374,0.18681 -0.0121,0.0539 -0.0193,0.10142 -0.0251,0.15682 -0.006,0.0589 -0.0267,0.11927 -0.0374,0.17688 -0.007,0.0316 -0.0109,0.0618 -0.013,0.092 m 7.1e-4,0.15516 c -0.018,0.0561 -0.0633,0.11504 -0.0985,0.16105 -0.0431,0.0554 -0.0532,0.10362 -0.0626,0.16547 -0.0272,-0.0195 -0.0554,-0.0381 -0.0849,-0.0569 -0.0423,-0.0265 -0.0883,-0.0359 -0.13087,-0.0626 -0.0186,-0.0114 -0.0366,-0.028 -0.0567,-0.0366 -0.0173,-0.007 -0.0274,-0.003 -0.044,-0.008 -0.0193,-0.006 -0.0624,-0.0329 -0.0769,-0.0475 -0.008,-0.009 -0.007,-0.0208 -0.0151,-0.0287 -0.009,-0.0107 -0.023,-0.023 -0.0374,-0.0344 -0.006,-0.0532 0.002,-0.1143 0.002,-0.16749 0,-0.0396 0.004,-0.0821 0,-0.12166 0.0418,0.007 0.0826,0.0158 0.12442,0.0302 0.0604,0.021 0.12719,0.0289 0.1883,0.044 0.0453,0.0107 0.10067,0.0136 0.14374,0.0317 0.0534,0.0201 0.10363,0.0683 0.15185,0.10344 0,0.0101 -7.1e-4,0.0195 -0.004,0.028 m -0.33866,0.72335 c -0.0396,0.0453 -0.0567,0.0267 -0.1143,0.0173 -0.008,0 -0.0173,-0.002 -0.0265,-0.004 -0.0173,-0.0186 -0.0346,-0.0394 -0.0539,-0.0567 -0.0202,-0.0188 -0.0396,-0.0366 -0.0583,-0.0561 0,-0.0151 7e-4,-0.0302 7e-4,-0.0453 -7e-4,-0.0777 0.0144,-0.15314 0.0144,-0.23154 v -0.041 c 0.009,0.002 0.0166,0.004 0.026,0.008 0.0302,0.0153 0.0596,0.0388 0.0891,0.0561 0.0569,0.0353 0.11503,0.0712 0.17264,0.10712 0.0166,0.0109 0.0337,0.0203 0.051,0.0309 -0.006,0.0245 -0.0101,0.0512 -0.0121,0.0769 -7e-4,0.005 -7e-4,0.0109 -7e-4,0.0158 -0.0359,0.0316 -0.0596,0.0898 -0.0878,0.12221 m -0.44431,-0.32283 c -0.0107,-0.0121 -0.0215,-0.0238 -0.0316,-0.0337 -0.0676,-0.069 -0.13584,-0.10933 -0.22639,-0.11081 -0.0215,0 -0.0438,0.005 -0.064,0.006 -7.1e-4,-0.002 -7.1e-4,-0.003 -0.002,-0.005 -0.0173,-0.0425 -0.0368,-0.0841 -0.0598,-0.12516 0.018,0.003 0.0353,0.006 0.0525,0.0109 0.0618,0.0186 0.12442,0.0257 0.18774,0.028 0.0396,0.002 0.0812,0.0237 0.12221,0.046 0,0.002 7.1e-4,0.004 10e-4,0.006 0.0114,0.041 0.0136,0.0871 0.0208,0.13013 10e-4,0.0158 7e-4,0.0316 -7.1e-4,0.0468 m -0.49751,-0.51187 c -0.0173,-0.004 -0.0351,-0.008 -0.0539,-0.0116 -0.009,-0.0121 -0.0158,-0.025 -0.0245,-0.0374 0.007,-0.004 0.0131,-0.008 0.0195,-0.0107 0.0215,-0.0131 0.0366,-0.0274 0.0596,-0.0346 0.0324,-0.009 0.0683,-0.0121 0.10215,-0.0178 0.0646,-0.0123 0.13087,-0.0252 0.1962,-0.0381 0.018,-0.003 0.0374,-0.007 0.0576,-0.0123 10e-4,0.003 0.002,0.006 0.004,0.008 0.0294,0.0438 0.0675,0.0848 0.0942,0.13087 0.0107,0.0195 0.0166,0.0475 0.0208,0.0727 -0.0109,0 -0.023,-0.002 -0.0374,-0.007 -0.0302,-0.01 -0.0554,-0.0193 -0.0878,-0.023 -0.0208,-0.002 -0.0416,0.007 -0.0631,0.004 -0.0302,0 -0.0618,-0.007 -0.0928,-0.006 -0.0655,0 -0.1281,-0.002 -0.19491,-0.0173 m -0.14946,-0.25602 c -0.0225,-0.003 -0.0526,0 -0.0791,0.003 -0.0116,-0.0173 -0.0237,-0.0359 -0.0374,-0.0445 -0.0166,-0.0123 -0.0366,-0.006 -0.0561,-0.023 -0.0388,-0.0361 -0.0705,-0.0928 -0.10418,-0.13602 -0.0294,-0.0374 -0.0561,-0.0847 -0.0928,-0.11062 0.0258,-0.0121 0.0532,-0.0215 0.0797,-0.0374 0.0554,-0.0353 0.10859,-0.072 0.16896,-0.0985 0.0576,-0.0252 0.11375,-0.0655 0.17043,-0.0965 0.0403,-0.023 0.0841,-0.0596 0.12792,-0.0762 0.0252,-0.0101 0.0534,-0.0136 0.0821,-0.0173 0.006,0.009 0.0114,0.018 0.0186,0.0267 0.0238,0.0302 0.0611,0.0524 0.0749,0.0905 0.0193,0.0554 0.0201,0.1316 0.0208,0.19124 7e-4,0.0856 0.0294,0.13307 0.0668,0.20136 0.006,0.0101 0.0109,0.0201 0.0129,0.0287 -0.0322,0.004 -0.0631,0.009 -0.0963,0.0151 -0.0482,0.009 -0.0891,0.0339 -0.13804,0.0425 -0.0201,0.004 -0.0445,0.005 -0.0648,0.0121 -0.0171,0.006 -0.023,0.0166 -0.0388,0.0237 -0.0179,0.009 -0.0676,0.018 -0.0869,0.0173 -0.0123,-0.002 -0.0166,-0.0109 -0.0287,-0.0123 m -0.38192,0.1143 c -0.0171,0.0131 -0.0287,0.0324 -0.0445,0.0468 -0.008,0.007 -0.0166,0.0131 -0.0252,0.0188 -0.0431,-0.0144 -0.0876,-0.026 -0.13142,-0.0339 -0.0504,-0.009 -0.0987,-0.0258 -0.14816,-0.0401 0.0186,-0.0289 0.0438,-0.0561 0.0646,-0.0821 0.0304,-0.0388 0.0606,-0.0762 0.09,-0.11504 0.0403,0.008 0.0819,0.0144 0.12001,0.0281 0.028,0.0107 0.0583,0.0409 0.0819,0.0589 0.0296,0.0237 0.0353,0.0517 0.0482,0.0856 -0.0186,0.009 -0.0366,0.0179 -0.0554,0.0329 m -0.42277,-0.61899 c -0.0423,-0.0265 -0.0718,-0.0683 -0.11062,-0.0985 -0.0101,-0.007 -0.0208,-0.0151 -0.0324,-0.023 -0.001,0.009 -0.004,0.0193 -0.007,0.0302 -0.0173,0.0675 -0.0302,0.1143 -0.0272,0.17393 -0.0302,-0.007 -0.0618,-0.0107 -0.095,-0.007 0.0223,-0.0243 0.0245,-0.0626 0.041,-0.0906 0.0302,-0.0359 0.0589,-0.0725 0.0869,-0.11007 0.0237,-0.0438 0.0504,-0.0869 0.0777,-0.12865 0.018,-0.0223 0.0366,-0.0626 0.0561,-0.0819 -0.006,0.004 -0.0129,0.006 -0.0195,0.009 0.0158,-0.0173 0.0316,-0.0353 0.0475,-0.0519 0.0576,-0.0582 0.13528,-0.0725 0.17338,-0.15369 0.0171,-0.0339 0.0265,-0.0712 0.0322,-0.10859 0.0124,-0.0841 0.0396,-0.15461 0.0677,-0.23302 0.0151,-0.0453 0.0208,-0.0676 0.0453,-0.10491 0.0294,-0.0468 0.0475,-0.0972 0.0596,-0.15111 0.006,-0.0243 0.006,-0.0539 0.0136,-0.0762 0.006,-0.0179 0.0195,-0.0309 0.0267,-0.0488 0.0258,-0.0683 0.0618,-0.13602 0.0804,-0.20927 0.004,-0.0158 0.006,-0.0317 0.007,-0.0482 v 0.1143 c 0,0.0598 0.0143,0.11007 0.0267,0.16768 0.0208,0.0992 0.048,0.20412 0.0906,0.29468 0.023,0.049 0.0517,0.0957 0.0755,0.14448 0.0195,0.0388 0.049,0.0705 0.0698,0.10933 0.0309,0.0539 0.0561,0.11209 0.0826,0.16897 0.0223,0.051 0.0453,0.0913 0.0742,0.13804 0.0287,0.0468 0.0495,0.10418 0.074,0.15461 -0.0596,0.0114 -0.12148,0.0151 -0.18774,0.0223 -0.0582,0.006 -0.12792,0.0201 -0.17964,0.0503 -0.0453,0.0267 -0.0928,0.0418 -0.13951,0.0633 -0.0272,0.0123 -0.0517,0.0331 -0.0769,0.051 -0.0675,0.0447 -0.13583,0.0878 -0.19418,0.14319 -0.0144,0.0129 -0.0272,0.0265 -0.0394,0.0388 -0.049,-0.0295 -0.0885,-0.0742 -0.13381,-0.10859 -0.0208,-0.0166 -0.0438,-0.0267 -0.0655,-0.0403 m 3.56112,1.34601 c 0.0561,-0.002 0.11154,-0.004 0.16676,-0.002 -0.0409,-0.0158 -0.0804,-0.0331 -0.12295,-0.0339 -0.0359,-0.002 -0.0653,-0.0201 -0.10124,-0.0366 -0.1754,-0.0819 -0.34308,-0.17909 -0.5264,-0.24222 -0.0502,-0.0173 -0.097,-0.0547 -0.14669,-0.0683 -0.0438,-0.0109 -0.0906,-0.0166 -0.12792,-0.0316 -0.0121,-0.004 -0.028,-0.0166 -0.041,-0.023 -0.0136,-0.006 -0.0236,-0.0123 -0.0351,-0.021 -0.0344,-0.0243 -0.0668,-0.0525 -0.0992,-0.079 -0.0193,-0.0158 -0.0425,-0.0245 -0.0661,-0.0302 -10e-4,-0.0604 -0.007,-0.12736 0.002,-0.187 0.0158,-0.0999 0.0116,-0.17117 -0.028,-0.26375 -0.0151,-0.0331 -0.0245,-0.046 -0.023,-0.0821 10e-4,-0.0374 0.004,-0.0488 0.0158,-0.0856 0.0129,-0.0401 0.0272,-0.0747 0.0423,-0.1143 0.0245,-0.0633 0.041,-0.12571 0.0554,-0.1905 -0.0178,-0.0109 -0.0331,-0.0252 -0.0445,-0.0438 -0.006,-0.009 -0.0116,-0.0188 -0.0166,-0.0287 0.006,-0.0101 0.0116,-0.0203 0.0144,-0.0282 0.0361,-0.10933 -0.0955,-0.0804 -0.1559,-0.0618 -0.0605,0.0195 -0.11503,0.0497 -0.17412,0.072 -0.0171,0.006 -0.0302,0.0101 -0.0475,0.0193 -0.001,0.002 -0.0337,0.0245 -0.0351,0.0245 -0.0453,0.009 -0.0374,-0.0337 -0.046,-0.0676 -0.007,-0.0245 -0.0166,-0.0497 -0.026,-0.074 0.0158,-0.0101 0.0309,-0.0202 0.0475,-0.0294 -0.0166,-0.009 -0.0316,-0.0203 -0.046,-0.0331 -0.009,-0.0101 -0.0186,-0.0195 -0.0272,-0.0302 -0.006,-0.0287 -0.009,-0.0576 -0.0223,-0.0863 -0.009,-0.0215 -0.0195,-0.0339 -0.026,-0.0201 -7.1e-4,-0.004 -10e-4,-0.007 -0.002,-0.009 -0.0272,0.0101 -0.0539,0.0208 -0.0804,0.0331 -0.049,0.0208 -0.10712,0.0243 -0.15314,0.0488 -0.0396,0.0223 -0.0799,0.0504 -0.11724,0.0641 -0.0114,0.005 -0.0317,0.006 -0.0445,0.0114 -0.0136,0.004 -0.0252,0.006 -0.0396,0.009 -0.0416,0.004 -0.0819,0.006 -0.12295,0.007 -0.0366,0.002 -0.0705,0.0223 -0.10068,0.0433 -0.0107,0.009 -0.0223,0.0151 -0.0344,0.0223 -0.0223,-0.0267 -0.044,-0.0554 -0.0604,-0.0856 -0.0482,-0.0885 -0.0928,-0.13951 -0.17835,-0.18185 -0.0316,-0.0158 -0.046,-0.0195 -0.0668,-0.0475 -0.021,-0.0295 -0.026,-0.0418 -0.0388,-0.0777 -0.0138,-0.0396 -0.0237,-0.0762 -0.0361,-0.11651 -0.0243,-0.0841 -0.0559,-0.15737 -0.0955,-0.23504 -0.0237,-0.046 -0.0374,-0.0928 -0.0576,-0.13952 -0.0166,-0.0425 -0.0317,-0.0554 -0.0366,-0.097 -0.0114,-0.0836 -0.0331,-0.16896 -0.0475,-0.25179 -0.007,-0.0394 -0.0166,-0.0762 -0.0401,-0.10841 -0.009,-0.013 -0.0202,-0.0252 -0.0324,-0.0361 -0.005,-0.006 -0.0116,-0.006 -0.0166,-0.0114 -0.002,0.007 -0.005,0.0144 -0.009,0.023 -0.0166,0.0344 -0.0331,0.0661 -0.051,0.10197 -0.0252,0.0497 -0.0539,0.0957 -0.0655,0.14963 -0.007,0.0374 -0.028,0.0653 -0.0503,0.10069 -0.10638,0.17246 -0.22363,0.33424 -0.31345,0.51757 -0.0237,0.0497 -0.067,0.0928 -0.0871,0.14393 -0.0173,0.0445 -0.0309,0.094 -0.0517,0.13068 -0.006,0.0116 -0.0195,0.026 -0.0281,0.0403 -0.008,0.0123 -0.0144,0.0215 -0.0251,0.0331 -0.0195,0.0215 -0.0396,0.0418 -0.0598,0.0618 0.018,0.0309 0.0361,0.0618 0.0526,0.0913 0.006,0.0109 0.01,0.0208 0.0136,0.0309 -0.0195,0.0114 -0.0287,0.0186 -0.0366,0.0245 -0.0267,0.0136 -0.0526,0.0287 -0.0791,0.0445 -0.0166,0.0136 -0.0302,0.0302 -0.0425,0.0482 -0.0302,0.0287 -0.033,0.0302 -0.0466,0.0653 -0.0101,0.0274 -0.0123,0.046 -0.0123,0.0769 -7.1e-4,0.0913 0.0475,0.32284 0.18184,0.30277 0.0331,-0.005 0.0885,-0.0217 0.12166,-0.0475 0.0236,0.0107 0.0495,0.0201 0.0782,0.0316 0.0252,0.009 0.0381,0.0208 0.0519,0.0359 -0.0188,0.0316 -0.0339,0.0648 -0.0569,0.0935 -0.0136,0.0179 -0.0324,0.0351 -0.0431,0.0547 -0.009,0.0171 -0.007,0.0287 -0.0144,0.046 -0.008,0.0158 -0.0316,0.0468 -0.0482,0.0639 -0.006,-0.002 -0.0129,-0.003 -0.0195,-0.004 h -7.1e-4 c 0.009,0.0935 0.0425,0.17246 0.0942,0.2494 10e-4,0 0.002,-0.003 0.002,-0.004 h 0.007 c 0.0423,0 0.0791,0.0237 0.12074,0.0396 0.004,0.002 0.0101,0.004 0.0151,0.006 -0.0252,0.0144 -0.0495,0.0324 -0.0747,0.051 0.0733,0.0893 0.1581,0.16547 0.23577,0.25161 0.0712,0.0791 0.0267,0.046 0.0584,0.11153 7e-4,0 7e-4,0.002 0.001,0.002 0.0762,-0.0237 0.15387,-0.0331 0.23375,-0.0396 0.009,0 0.018,0 0.0265,-0.002 0.009,0 0.0166,0 0.026,0 0.0129,0.005 0.0252,0.009 0.0374,0.0136 l 0.12295,0.0482 c 0.0366,0.0151 0.0705,0.0331 0.10436,0.0532 0.0302,0.0589 0.0668,0.1165 0.0963,0.17117 0.0215,0.0409 0.0431,0.0812 0.0655,0.12148 0.0164,0.0316 0.0302,0.0633 0.0423,0.0955 0.0346,-0.028 0.0732,-0.0517 0.11577,-0.0661 0.0668,-0.0223 0.13731,-0.0151 0.20559,-0.0151 h 0.0418 c 0.006,0.006 0.0121,0.0129 0.0186,0.0193 0.021,0.0195 0.0935,0.0979 0.12866,0.11007 0.041,0.0129 0.0526,-0.0331 0.0849,-0.0309 0.0237,0.0641 0.0727,0.003 0.1143,-0.002 0.0662,-0.007 0.10435,0.0697 0.16546,0.0806 0.0646,0.0109 0.0646,-0.0359 0.0906,-0.0819 0.018,-0.0339 0.0331,-0.0519 0.0287,-0.0928 0,-0.002 -7e-4,-0.002 -7e-4,-0.002 h 0.0396 c 0.0188,-0.0173 0.0403,-0.0316 0.0641,-0.0423 0.0453,-0.0188 0.0963,-0.0237 0.14375,-0.0109 0.0324,0.008 0.0769,0.0302 0.0985,0.0574 0.002,0.003 0.006,0.006 0.008,0.0101 0.0131,0 0.026,-0.002 0.0388,-0.004 h -7.1e-4 c -0.025,-0.0361 -0.046,-0.0734 -0.0661,-0.11154 0.0129,0.004 0.026,0.008 0.0403,0.0101 0.0374,0.0129 0.0554,0.0265 0.0611,0.0733 0.10785,-0.0453 0.21847,-0.0861 0.32853,-0.12222 0.064,-0.0215 0.12792,-0.0366 0.18903,-0.0626 0.0893,-0.0381 0.19271,-0.046 0.27535,-0.0985 0.006,-0.003 0.0116,-0.006 0.0165,-0.009 0.0482,0.004 0.0965,0.004 0.14449,0.002 0.0158,-0.002 0.0316,-0.002 0.0475,-0.002 l 0.0532,0.0145 c -0.002,-0.006 -0.004,-0.0109 -0.007,-0.0158"
       style="fill:#21201d;fill-opacity:1;fill-rule:nonzero;stroke:none;stroke-width:0.184057"
       id="path578" />
  </g>
</svg>
