<?xml version="1.0" encoding="UTF-8" standalone="no"?>
<!-- Created with Inkscape (http://www.inkscape.org/) -->

<svg
   width="7.3314419mm"
   height="6.5841231mm"
   viewBox="0 0 7.3314419 6.5841231"
   version="1.1"
   id="svg2621"
   inkscape:version="1.1.2 (0a00cf5339, 2022-02-04)"
   sodipodi:docname="z15.svg"
   xmlns:inkscape="http://www.inkscape.org/namespaces/inkscape"
   xmlns:sodipodi="http://sodipodi.sourceforge.net/DTD/sodipodi-0.dtd"
   xmlns="http://www.w3.org/2000/svg"
   xmlns:svg="http://www.w3.org/2000/svg">
  <sodipodi:namedview
     id="namedview2623"
     pagecolor="#ffffff"
     bordercolor="#666666"
     borderopacity="1.0"
     inkscape:pageshadow="2"
     inkscape:pageopacity="0.0"
     inkscape:pagecheckerboard="0"
     inkscape:document-units="mm"
     showgrid="false"
     inkscape:zoom="0.64052329"
     inkscape:cx="-1199.0196"
     inkscape:cy="359.86201"
     inkscape:window-width="2560"
     inkscape:window-height="1376"
     inkscape:window-x="0"
     inkscape:window-y="0"
     inkscape:window-maximized="1"
     inkscape:current-layer="layer1" />
  <defs
     id="defs2618" />
  <g
     inkscape:label="Layer 1"
     inkscape:groupmode="layer"
     id="layer1"
     transform="translate(-422.21285,-53.299073)">
    <path
       d="m 422.61713,56.533102 c 0.0611,0.02152 0.10988,0.01951 0.1697,0.01951 0.003,0 0.0114,-0.0037 0.0156,-0.01655 0.004,-0.0151 -7e-4,-0.03884 -7e-4,-0.05393 -7.1e-4,-0.02815 0.0107,-0.0381 0.0294,-0.06037 0.0165,-0.01951 0.0179,-0.04105 0.0337,-0.06184 0.018,-0.02522 0.0532,-0.05908 0.0856,-0.06553 0.0215,-0.0042 0.0453,-0.0072 0.0683,-0.0099 0.004,0.0035 0.008,0.0065 0.0116,0.0099 0.0158,0.0151 0.0337,0.02815 0.0525,0.04031 0.0316,-0.0014 0.0633,-0.0014 0.095,-7.06e-4 0.0423,0.01013 0.0826,0.0037 0.11927,-0.01933 0.041,-0.03094 0.0812,-0.06258 0.12074,-0.09498 0.0863,-0.06976 0.1524,-0.158108 0.22658,-0.240196 0.006,-7.05e-4 0.0107,-0.0014 0.0158,-0.0014 0.002,0 0.004,7.06e-4 0.006,0.0014 0.0252,0.01013 0.0503,0.01584 0.0769,0.01877 0.0107,-0.01161 0.0238,-0.02226 0.0388,-0.0302 0.002,-0.0028 0.006,-0.0044 0.008,-0.0072 0.009,-0.0086 0.0201,-0.01803 0.0309,-0.02596 0.069,-0.07252 0.1351,-0.136571 0.25308,-0.143013 0.12571,-0.0086 0.19049,0.06258 0.2724,0.13013 0.026,0.01362 0.049,0.03164 0.0712,0.05319 0.002,0.0028 0.004,0.0035 0.006,0.0057 0.0193,0.02081 0.0302,0.04454 0.0351,0.06902 0.0418,-7.06e-4 0.0841,-0.0021 0.12663,-0.0028 0.0339,-0.01379 0.074,-0.01454 0.11577,0.0072 0.0193,0.005 0.0381,0.0114 0.0574,0.01933 0.0777,0.01288 0.16896,-0.02152 0.2424,-0.03589 0.10786,-0.01951 0.21645,-0.02946 0.31915,0.01288 0.028,0.01161 0.0482,0.02872 0.0633,0.04896 h 0.0121 c 0.0834,-7.06e-4 0.16473,-0.02099 0.24516,-0.03662 0.0648,-0.01235 0.13307,-0.01454 0.19712,0.0021 0.0295,0.0086 0.056,0.02152 0.0849,0.02872 0.0453,0.01305 0.10492,0.0079 0.14872,0.0066 0.041,-7.06e-4 0.0935,0.0065 0.13381,-0.0059 0.025,-0.0065 0.0473,-0.03589 0.0683,-0.05099 0.028,-0.01803 0.0547,-0.03387 0.0876,-0.0381 0.0173,-0.01877 0.0361,-0.03387 0.0554,-0.04527 0.009,-0.005 0.0195,-0.0094 0.0287,-0.01288 0.004,-0.0014 0.007,-0.0037 0.0109,-0.0044 0.0129,-0.0042 0.0272,-0.0079 0.041,-0.01013 0.0121,-0.0042 0.0258,-0.0077 0.0394,-0.01069 0.0131,-0.0021 0.0252,-0.0044 0.0396,-0.005 0.0331,-0.0021 0.0663,0.0014 0.0999,0.01214 0.021,0.0072 0.0396,0.01658 0.0583,0.02649 0.0891,0.01584 0.17173,0.06185 0.23155,0.134549 0.0351,0.02596 0.0668,0.0589 0.094,0.09847 0.005,0.0057 0.007,0.01161 0.0101,0.01729 h 7.1e-4 c 0.0114,-0.0037 0.0193,-0.01803 0.0337,-0.02226 0.023,-0.0086 0.0482,-0.0052 0.0712,-0.0028 0.0871,0.0086 0.1719,0.03461 0.25675,0.02155 0.0114,-0.02226 0.0309,-0.04233 0.0618,-0.05669 0.19915,-0.09424 0.4456,-0.03608 0.61106,0.101967 0.0208,0.01803 0.0337,0.0381 0.0403,0.05835 0.007,7.05e-4 0.0151,7.05e-4 0.023,0.0014 0.0223,0.0035 0.0552,0.0092 0.0782,0.01859 0.0618,0.02448 0.1165,0.07197 0.1835,0.08412 0.0352,0.0057 0.0718,-0.0021 0.10712,-7.06e-4 0.0359,0.0014 0.0611,0.0086 0.0933,0.02522 0.0237,0.01288 0.0381,0.02152 0.0547,0.04031 0.004,0.0057 0.0131,0.02081 0.0202,0.02575 0.023,0.01803 0.0272,-0.0035 0.0468,-7.06e-4 0.0208,0.0044 0.0178,0.03607 0.0223,0.0519 0.007,0.02501 0.0251,0.05595 0.0525,0.06387 0.0215,0.0066 0.0503,0 0.0733,-7.05e-4 0.0136,0 0.0346,0.0042 0.0475,-7.06e-4 0.0129,-0.0059 0.0121,-0.01729 0.0267,-0.01584 0.0114,7.06e-4 0.01,0.01362 0.0201,0.01711 0.0101,0.0028 0.028,-0.0065 0.0366,-0.0092 0.0188,-0.0059 0.0396,-0.0079 0.0569,-0.0151 0.0107,-0.0044 0.0179,-0.01013 0.0251,-0.0151 0.018,-0.01305 0.0267,-0.01951 0.0475,-0.02889 0.0289,-0.01288 0.0532,-0.03164 0.0841,-0.03737 0.0151,-0.0035 0.0295,-0.005 0.0453,-0.0086 0.0245,-0.0042 0.0497,-0.0042 0.0749,-0.0086 0.0453,-0.0072 0.0869,-0.005 0.13013,-0.01933 0.009,-0.03094 7e-4,-0.0935 -7.1e-4,-0.119271 -0.002,-0.05117 -0.005,-0.101416 -0.006,-0.151846 -10e-4,-0.03517 0.002,-0.03443 -0.0124,-0.05595 -0.0114,-0.0151 -0.025,-0.0302 -0.0374,-0.04473 -0.0252,-0.0302 -0.0223,-0.05595 -0.0215,-0.09405 7e-4,-0.03737 -0.004,-0.067 -0.0129,-0.1051 -0.0281,-0.1143 -0.0856,-0.210562 -0.14393,-0.310504 -0.0316,-0.05319 -0.0928,-0.110804 -0.13363,-0.151663 -0.0388,-0.03884 -0.0784,-0.0727 -0.12368,-0.104362 -0.10289,-0.06976 -0.23007,-0.08687 -0.35155,-0.09626 -0.0287,-0.0021 -0.0512,-7.05e-4 -0.0769,0.0065 -10e-4,0 -0.007,0.01012 -0.009,0.0114 -0.004,-0.04657 -0.003,-0.09203 -0.0109,-0.138046 -0.004,-0.02356 -0.01,-0.04454 -0.0164,-0.06681 -0.0116,-0.03443 -0.0158,-0.0646 -0.0361,-0.09479 -0.0201,-0.0302 -0.0403,-0.06111 -0.0631,-0.08853 -0.0289,-0.03443 -0.0677,-0.05614 -0.10436,-0.0819 -0.0223,-0.01729 -0.049,-0.03737 -0.0661,-0.06185 -0.0101,-0.01362 -0.0151,-0.02081 -0.0309,-0.0302 -0.0648,-0.03607 -0.1432,-0.05964 -0.21645,-0.07197 -0.0676,-0.01069 -0.13583,-0.03369 -0.20485,-0.03663 -0.0188,-7.06e-4 -0.0289,0.005 -0.044,-0.0072 -0.0431,-0.03313 -0.051,-0.09056 -0.0848,-0.130863 -0.0725,-0.08412 -0.12222,-0.184058 -0.20191,-0.263941 -0.0604,-0.06037 -0.14099,-0.124238 -0.22786,-0.134363 -0.0534,-0.0057 -0.11725,-0.02152 -0.17118,-0.01362 -0.0374,0.0057 -0.0734,0.02649 -0.10288,0.04877 -0.0158,0.01231 -0.0287,0.02889 -0.0453,0.03883 -0.005,-0.01288 -0.006,-0.02649 -0.004,-0.0416 -0.004,-0.03736 -0.006,-0.07417 -0.007,-0.112275 7e-4,-0.02649 -0.004,-0.04528 -0.0123,-0.07105 -0.0166,-0.04896 -0.0431,-0.08706 -0.0661,-0.132338 -0.0388,-0.07914 -0.11209,-0.138045 -0.18627,-0.185529 -0.0502,-0.03238 -0.0999,-0.06682 -0.14945,-0.100683 -0.0346,-0.03589 -0.0677,-0.06976 -0.11798,-0.08264 -0.041,-0.01013 -0.0777,-0.02667 -0.11724,-0.01288 -0.0136,0.005 -0.028,0.0092 -0.0423,0.01362 -0.009,-7.05e-4 -0.0188,7.06e-4 -0.0282,-7.05e-4 -0.0114,-0.0021 -0.0258,-0.01288 -0.0351,-0.02007 -0.0238,-0.01803 -0.0366,-0.03681 -0.0668,-0.04252 -0.009,-0.0021 -0.0173,-7.06e-4 -0.0267,-0.0057 -0.006,-0.0037 -0.0107,-0.01013 -0.0186,-0.01235 -0.006,-0.0014 -0.0136,0 -0.0215,-0.0014 -0.0188,-0.0037 -0.0361,-0.01305 -0.0561,-0.0151 -0.0316,-0.0037 -0.0683,-0.0021 -0.0999,-7.06e-4 -0.028,0.0021 -0.0626,0.0028 -0.0893,0.0092 -0.0151,0.0037 -0.0265,0.01305 -0.0401,0.01877 -0.0252,0.01012 -0.0497,0.01288 -0.0727,0.02596 -0.0567,0.03221 -0.11651,0.08043 -0.15092,0.134362 -0.0151,0.02448 -0.0216,0.03957 -0.023,0.06037 -0.0245,0.02099 -0.0482,0.04325 -0.072,0.06479 -0.0381,0.03369 -0.0589,0.07896 -0.0841,0.121479 -0.002,0.0035 -0.004,0.0057 -0.005,0.0086 -0.0158,-0.01436 -0.0316,-0.02872 -0.0445,-0.04325 -0.0554,-0.06111 -0.1051,-0.123501 -0.16749,-0.17743 -0.0583,-0.05117 -0.13675,-0.111541 -0.21295,-0.134549 -0.0366,-0.01069 -0.0762,-0.0079 -0.11357,-0.0079 -0.0467,0.0014 -0.0856,0.0079 -0.12939,0.02448 -0.0346,0.01288 -0.0618,0.03164 -0.0935,0.05025 -0.0223,0.01305 -0.0445,0.02099 -0.0639,0.0381 -0.0188,0.01803 -0.0353,0.03755 -0.0512,0.05761 -0.0488,0.06111 -0.0863,0.121479 -0.11209,0.196204 -0.0124,0.03461 -0.0158,0.06903 -0.0215,0.1051 -0.002,0.01288 -7.1e-4,0.03369 -0.009,0.0438 -0.009,0.01362 -0.0123,0.0079 -0.0252,0.005 -0.0201,-0.01288 -0.0423,-0.02007 -0.0668,-0.023 -0.0396,-0.0072 -0.0784,-0.0151 -0.11798,-0.02226 -0.0985,-0.0151 -0.20265,-0.01859 -0.30204,-0.01288 -0.097,0.0057 -0.17669,0.05172 -0.26025,0.09626 -0.0661,0.03534 -0.11706,0.05908 -0.15093,0.12663 -0.0245,0.04877 -0.0331,0.103441 -0.0381,0.15737 -0.0109,0.103625 -0.009,0.210012 0.0215,0.309217 0.021,0.06405 0.0512,0.12645 0.0749,0.189029 0.003,0.0059 0.005,0.01161 0.008,0.01803 -0.007,-7.06e-4 -0.0138,-0.0014 -0.0217,-0.0021 -0.0467,-0.0014 -0.0849,0.02522 -0.12368,0.05246 -0.0409,0.02889 -0.0747,0.05761 -0.0977,0.102154 -0.023,0.04454 -0.0316,0.129391 -0.0388,0.177616 -0.007,0.04528 -0.01,0.08982 -0.008,0.135096 7e-4,0.01877 0.004,0.04675 0.009,0.0762 h -0.0403 c -0.028,0 -0.0545,-0.0035 -0.0826,-0.0065 -0.0201,-0.0028 -0.0431,-0.0065 -0.0626,0.0014 -0.0309,0.01087 -0.0574,0.03514 -0.0854,0.05245 -0.0504,0.02946 -0.13234,0.03164 -0.11375,0.109329 0.006,0.02946 0.006,0.04233 0.006,0.07767 0,0.0309 0.002,0.06332 7.1e-4,0.09424 -7.1e-4,0.01143 10e-4,0.02081 -0.006,0.0302 -0.0819,-0.01729 -0.16105,-0.07767 -0.24295,-0.02963 -0.0201,0.01161 -0.041,0.01803 -0.0582,0.03461 -0.0202,0.01877 -0.0238,0.03663 -0.0361,0.05816 -0.0151,0.02596 -0.0416,0.04252 -0.0589,0.06829 -0.0136,0.02244 -0.028,0.04546 -0.0431,0.06773 -0.0109,0.0151 -0.026,0.02081 -0.0353,0.03589 -0.0129,0.01729 -0.009,0.03663 -0.009,0.05743 7.1e-4,0.05835 -0.008,0.127367 -0.0438,0.174855 -0.026,0.03295 -0.0705,0.04012 -0.0641,0.08982 0.003,0.01436 0.006,0.02946 0.018,0.03663 0.008,-0.005 0.0158,-0.0042 0.0245,0.0021 0.0302,0.01859 0.0574,0.04031 0.0834,0.06461 0.0913,0.08356 0.15663,0.187 0.27756,0.232279"
       style="fill:#21201d;fill-opacity:1;fill-rule:evenodd;stroke:none;stroke-width:0.184057"
       id="path578" />
    <path
       d="m 424.81789,56.863856 c 0.0653,-0.01087 0.13013,0.0079 0.19197,0.02667 0.0329,0.01069 0.0675,0.02226 0.10123,0.0309 -0.0136,0 -0.0272,0 -0.0394,7.05e-4 -0.0863,0.0028 -0.17044,-7.05e-4 -0.25529,0.0014 -0.0438,0.0014 -0.0813,-0.0086 -0.11945,-0.02649 0.0396,-0.01305 0.0799,-0.02596 0.12092,-0.03313 m -0.41633,0.138779 c 0.11282,-0.0014 0.2251,0.005 0.33719,0 0.0611,-0.0028 0.12221,-0.01214 0.18111,-0.0267 0.0302,-0.0079 0.0618,-0.02226 0.0928,-0.02575 0.046,-0.0052 0.0913,0.01584 0.13601,0.02152 0.0388,0.0042 0.0733,0.0057 0.11136,-0.0028 0.0569,-0.01288 0.11724,-0.0532 0.16601,-0.08117 0.0238,-0.01362 0.0361,-0.03387 0.0547,-0.05393 0.0267,0 0.0539,-7.06e-4 0.0799,-7.06e-4 0.0388,-7.05e-4 0.0906,-0.0065 0.13086,0.0037 0.006,0.0021 0.0114,0.0042 0.0179,0.0057 -0.004,-7.05e-4 -0.008,-7.05e-4 -0.0121,-7.05e-4 -0.0201,-0.0021 -0.0366,-0.01087 -0.0569,-0.005 -0.023,0.0072 -0.0394,0.02723 -0.0604,0.0381 -0.0144,0.0086 -0.0394,0.02575 -0.0574,0.02226 0.0618,0 0.0999,-0.0037 0.13363,0.0014 0.0482,0.0092 0.10141,0.03589 0.15037,0.02152 0.0352,-0.01161 0.0733,-0.023 0.10639,-0.03884 0.003,-7.06e-4 0.006,-0.0014 0.009,-0.0021 0.0208,0.0057 0.0423,0.01161 0.0646,0.01436 0.044,0.0044 0.0856,0.01087 0.12939,0.01877 0.0447,0.0094 0.092,0.03443 0.13528,0.03663 0.0252,0.0014 0.0503,-7.06e-4 0.0747,-7.06e-4 0.0173,7.06e-4 0.0381,0.0037 0.0547,0 0.023,-0.0065 0.0309,-0.02374 0.0475,-0.03736 0.0114,-0.01013 0.0265,-0.01729 0.0359,-0.02946 0.0101,-0.01436 0.0116,-0.07344 0.0532,-0.110804 v -0.0079 c -0.0144,-0.0021 -0.0468,0.01305 -0.0596,0.0151 -0.0475,0.01087 -0.097,0.01305 -0.14448,0.02448 -0.0438,0.01013 -0.0819,0.01288 -0.12663,0.01288 -0.0423,0 -0.0755,-0.0072 -0.11651,-0.01711 -0.0668,-0.01658 -0.13859,-0.01012 -0.20633,-0.0094 -0.0898,7.06e-4 -0.17743,-0.01362 -0.26669,-0.01803 -0.0639,-0.0021 -0.10492,0.01087 -0.16105,0.03534 -0.0101,0.0042 -0.0324,0.005 -0.0388,0.0114 -0.008,0.0065 -0.004,0.01087 0.003,0.01288 -0.007,0.0052 -0.0136,0.01087 -0.0237,0.01658 -0.0201,0.01436 -0.0445,0.01877 -0.0683,0.02448 -0.026,0.0079 -0.0468,0.02448 -0.0727,0.03313 -0.0107,0.0042 -0.0223,0.0065 -0.0337,0.0079 -7e-4,-0.0044 -0.004,-0.01013 -0.005,-0.0151 -0.002,-0.0037 -0.008,-0.0072 -0.01,-0.01013 -0.002,-0.0065 10e-4,-0.01436 -0.002,-0.01933 -0.007,-0.01235 -0.0223,-0.01161 -0.0351,-0.01584 -0.0317,-0.01161 -0.0547,-0.04472 -0.0821,-0.06405 -0.0136,-0.01087 -0.0317,-0.01933 -0.0438,-0.03313 -0.0193,-0.01933 -0.0351,-0.03957 -0.0569,-0.05816 -0.0243,-0.02226 -0.0488,-0.02946 -0.0826,-0.03514 -0.0646,-0.01087 -0.0891,0.05963 -0.1316,0.09405 -0.051,0.04105 -0.11356,0.0762 -0.1732,0.106384 -0.008,-7.06e-4 -0.0166,-0.0014 -0.026,-0.0021 -0.0445,-0.0037 -0.0861,-0.0151 -0.13086,-0.01729 -0.023,-7.06e-4 -0.046,0.0014 -0.069,0.0014 -0.0316,7.06e-4 -0.0639,7.06e-4 -0.0963,-7.05e-4 -0.0346,-0.0021 -0.0668,-0.01235 -0.10068,-0.0151 -0.0223,-0.0028 -0.0445,-0.0021 -0.0668,-0.0014 -0.0374,-0.01436 -0.10436,-0.01658 -0.13233,-0.01729 -10e-4,-0.0014 -0.004,-0.0021 -0.006,-0.0021 -0.0339,-0.0092 -0.0655,-0.02226 -0.10068,-0.02431 -0.0482,-0.0052 -0.097,-0.0044 -0.14448,-0.0014 -0.007,0 -0.0129,0.0014 -0.0202,0.0014 -0.0287,-0.0052 -0.0589,-0.01012 -0.0884,-0.02025 -0.028,-0.01069 -0.064,-0.02448 -0.0906,-0.0416 -0.0188,-0.01231 -0.0353,-0.02815 -0.0554,-0.03957 -0.0431,-0.023 -0.10638,-0.04105 -0.15608,-0.03313 -0.0143,0.0028 -0.0265,0.0086 -0.0409,0.01231 -0.026,0.0057 -0.0532,0.0035 -0.0769,0.01436 -0.0151,0.0065 -0.023,0.01785 -0.0346,0.02723 -0.0166,0.01288 -0.0344,0.02078 -0.0525,0.0302 -0.009,0.0052 -0.0158,0.0086 -0.023,0.01235 -0.10142,0.0035 -0.20486,0.02374 -0.30259,0.05025 -0.0274,0.0079 -0.0504,0.01288 -0.0784,0.01214 0.0151,0.0028 0.003,0.0066 -0.009,0.01161 10e-4,0.02374 -0.0359,0.04105 -0.0539,0.04749 -0.028,0.0086 -0.0539,0.02374 -0.0827,0.03514 -0.0101,0.0037 -0.0245,0.0044 -0.0294,0.0151 0.009,0.01729 0.0223,0.01584 0.0394,0.01584 0.0433,0.0014 0.0878,7.05e-4 0.1316,7.05e-4 0.0237,0 0.0467,-7.05e-4 0.0697,-7.05e-4 0.0374,0.0014 0.072,-0.0072 0.1086,-0.01362 0.0547,-0.0094 0.11208,-0.0037 0.16748,-0.0037 0.0792,0 0.15885,-0.0028 0.23799,7.05e-4 0.046,7.06e-4 0.0913,0.0072 0.13657,0.01161 0.0324,0.0035 0.0712,-0.0021 0.10289,0.0042 0.0381,0.0072 0.0732,0.02741 0.10565,0.04749 0.0611,0.03884 0.15387,0.0381 0.22362,0.04105 0.0769,0.0035 0.15387,0.0021 0.23155,0.0021 0.11282,0 0.22362,-0.01711 0.33572,-0.01933"
       style="fill:#21201d;fill-opacity:1;fill-rule:nonzero;stroke:none;stroke-width:0.184057"
       id="path580" />
    <path
       d="m 424.52303,57.30541 c 0.0532,0.0021 0.10437,0.01362 0.15829,0.01711 0.0804,0.0052 0.17541,0.0072 0.25658,-0.005 0.092,-0.01288 0.1754,-0.06332 0.26394,-0.08853 0.0243,-0.0079 0.051,-0.0035 0.0762,-0.0035 h 0.22068 c 0.15534,0 0.30995,0.0021 0.46437,-0.01086 0.0195,0.01086 0.0403,0.02226 0.0604,0.03164 0.0482,0.02152 0.10215,0.03313 0.15258,0.0497 0.0453,0.0151 0.097,0.01785 0.14522,0.02007 0.0186,7.05e-4 0.0302,0 0.0468,-0.0094 0.0532,-0.03164 0.10343,-0.06681 0.1616,-0.09277 0.0425,-0.01785 0.0856,-0.03295 0.12883,-0.04804 0.0604,0.0014 0.12369,0.0035 0.18112,-0.0037 0.0121,-0.0021 0.0252,-0.0042 0.0381,-0.0057 0.0166,0.02596 0.0381,0.05025 0.0618,0.06755 0.0295,0.02078 0.072,0.04601 0.10859,0.04822 0.0381,0.0014 0.0539,-0.01362 0.0856,-0.02815 0.0409,-0.01785 0.0869,-0.03443 0.12147,-0.0646 0.0193,-0.01584 0.0359,-0.03534 0.0547,-0.05172 h 0.0963 c 0.0339,0 0.069,-0.0037 0.10362,-0.0014 0.0639,0.0021 0.12001,0.03884 0.18185,0.05467 0.074,0.02007 0.16823,0.02081 0.2402,-0.0065 0.0547,-0.02099 0.11061,-0.0086 0.16031,-0.04252 0.0431,-0.0302 0.092,-0.03957 0.14301,-0.03957 0.0188,0 0.0438,0.0044 0.0626,0 0.0166,-0.0035 0.0201,-0.0099 0.041,-0.0086 -0.007,-0.0092 -0.0145,-0.0065 -0.023,-0.0114 -0.0165,-0.0094 -0.0245,-0.01877 -0.0267,-0.01584 h -0.21718 c -0.0661,7.05e-4 -0.13087,0.0035 -0.19621,-0.01013 -0.0467,-0.01143 -0.0957,-0.01143 -0.14025,-0.02649 -0.0438,-0.01436 -0.0898,-0.02374 -0.13215,-0.04105 -0.0376,-0.01436 -0.0727,-0.03313 -0.11301,-0.0381 -0.0431,-0.005 -0.10142,-0.0072 -0.14227,0.0065 -0.0202,0.0065 -0.0346,0.01729 -0.0532,0.02667 -0.0346,0.01785 -0.0742,0.02505 -0.1108,0.03517 -0.0755,0.01951 -0.14228,0.02798 -0.21848,0.01231 -0.0648,-0.01453 -0.12939,-0.0079 -0.19491,-0.01453 -0.0324,-0.0028 -0.0626,-0.0065 -0.0935,-0.01069 -0.007,-0.0014 -0.0151,-0.0028 -0.0223,-0.0021 -0.0151,0.0037 -0.0351,0.02226 -0.0495,0.02798 -0.0237,0.01161 -0.0475,0.02244 -0.0712,0.03164 -0.0539,0.02173 -0.12295,0.01231 -0.18056,0.01231 -0.0201,0 -0.0401,-0.0021 -0.0604,-7.05e-4 -0.0351,0.0014 -0.0698,0.01362 -0.10418,0.023 -0.0316,0.0086 -0.0626,0.02007 -0.095,0.02448 -0.048,0.0072 -0.0977,0.0065 -0.14596,0.0065 -0.0559,-7.06e-4 -0.11135,0 -0.16675,0 -0.023,-7.06e-4 -0.0438,-0.0014 -0.0661,0.0028 -0.0697,0.0151 -0.14025,0.0151 -0.21,0.02815 -0.0698,0.01288 -0.14026,0.0065 -0.21001,0.01785 -0.092,0.01454 -0.18903,0.0044 -0.28106,0.0044 -0.0777,0 -0.15461,-7.06e-4 -0.23228,0 -0.0151,0 -0.025,0 -0.0394,0.0079 -0.0225,0.01436 -0.0361,0.02448 -0.0626,0.03094 -0.018,0.005 -0.0339,0.01069 -0.0512,0.01655 -0.0151,0.0057 -0.0257,0.0057 -0.0423,0.0079 -0.028,0.0014 -0.0532,0.0085 -0.0806,0.0079 -0.0322,0 -0.0639,-0.0059 -0.0963,-0.0079 -0.0158,-0.0021 -0.0351,-0.0037 -0.051,-0.0021 -0.0237,0.0028 -0.044,0.0151 -0.067,0.01859 -0.048,0.0066 -0.10639,0.0044 -0.15314,-0.0014 0.0396,0.0072 0.0784,0.02431 0.11798,0.03295 0.0883,0.01877 0.17762,0.01877 0.2667,0.02173"
       style="fill:#21201d;fill-opacity:1;fill-rule:nonzero;stroke:none;stroke-width:0.184057"
       id="path582" />
    <path
       d="m 423.79767,57.256448 c -0.013,-7.06e-4 -0.0223,-0.01362 -0.0346,-0.01803 -0.0453,-0.01584 -0.0999,-0.0099 -0.14669,-0.01362 -0.0208,-0.0014 -0.0431,-0.0057 -0.0639,-0.0021 -0.0138,0.0028 -0.0237,0.0072 -0.0388,0.0079 -0.021,7.06e-4 -0.0418,-0.0028 -0.0596,-0.01584 -0.008,-0.0057 -0.0145,-0.01711 -0.0237,-0.02007 -0.0158,-0.0044 -0.0396,-7.05e-4 -0.0561,-7.05e-4 -0.0287,0 -0.0532,-0.0057 -0.0755,0.0094 -0.006,0.0042 -0.0109,0.01012 -0.0158,0.01362 -0.018,0.01362 -0.041,0.02152 -0.0626,0.02946 -0.0445,0.01584 -0.0891,0.0037 -0.13307,0.01877 -0.0186,0.0072 -0.0401,0.0035 -0.0589,0.01069 -0.0109,0.0028 -0.0186,0.01013 -0.0287,0.01655 -0.0403,0.02522 -0.0977,0.02741 -0.14319,0.03663 0.021,-0.0021 0.044,-0.0028 0.0641,-7.05e-4 0.0438,0.0028 0.0849,0.02667 0.13087,0.03238 0.087,0.01305 0.17264,0.01161 0.26099,0.01161 0.0423,0 0.0834,0 0.12589,-0.0021 0.0646,-0.0021 0.11577,-0.01729 0.17688,-0.03737 0.0223,-0.0072 0.0186,-0.0021 0.0366,0.0035 0.0251,0.0066 0.0482,-0.0065 0.0733,-0.0085 0.0144,-0.0014 0.0324,0 0.0475,0.0021 0.0302,0.0065 0.0569,0.0065 0.0883,0.0065 0.0225,0 0.0613,-0.0065 0.0821,0 0.006,0.0014 0.006,0.0074 0.0107,0.0086 0.021,0.0037 0.0569,0.0014 0.0655,-0.02081 0.009,-0.023 -0.0655,-0.02872 -0.0777,-0.0302 -0.0445,-0.0057 -0.0942,0.0065 -0.13656,-0.01087 -0.0109,-0.0042 -0.0188,-0.01214 -0.0287,-0.01785 -0.0195,-0.01012 -0.0361,-0.0086 0.0215,-0.0086"
       style="fill:#21201d;fill-opacity:1;fill-rule:nonzero;stroke:none;stroke-width:0.184057"
       id="path584" />
    <path
       d="m 424.83372,57.545419 h -0.0821 c -0.0322,0 -0.0574,0.0021 -0.0883,0.0065 -0.007,0.0021 -0.0129,0.0021 -0.0202,0.0021 0.0964,0 0.19197,7.06e-4 0.28841,7.06e-4 -0.007,-0.0042 -0.0136,-0.0079 -0.0223,-0.01012 -0.0109,-0.0021 -0.0747,7.06e-4 -0.0755,7.06e-4"
       style="fill:#21201d;fill-opacity:1;fill-rule:nonzero;stroke:none;stroke-width:0.184057"
       id="path586" />
    <path
       d="m 424.66899,57.520206 c -0.0121,-0.0028 -0.0265,-0.0014 -0.0396,-0.0021 -0.0409,-0.0028 -0.0834,-0.0059 -0.12442,-0.01013 -0.0675,-0.0072 -0.13068,-0.0072 -0.1997,-0.0072 -0.0512,0 -0.10363,-0.0028 -0.15535,-7.06e-4 -0.0188,0.0021 -0.0339,0.01013 -0.0517,0.01436 -0.0641,0.01729 -0.13233,0.01235 -0.19786,0.01584 -0.0215,7.06e-4 -0.0804,-0.005 -0.0977,0.01288 0.0151,0.0021 0.20356,0.0059 0.19271,0.04969 0.069,0.0086 0.14227,0.01087 0.21277,0.0072 0.0151,-0.0014 0.0281,-0.0028 0.0433,-0.0065 0.0171,-0.0037 0.0337,-0.01013 0.051,-0.01288 0.0144,-0.0014 0.0324,7.05e-4 0.0453,-7.06e-4 0.0267,-0.0037 0.0503,-0.01231 0.0747,-0.01951 0.001,0 0.005,-0.0057 0.007,-0.0065 0.0138,-0.0057 0.0755,7.05e-4 0.0841,7.05e-4 h 0.0353 c 0.0309,0 0.0626,0.0021 0.0948,0 h -0.007 c 0.0447,-0.02797 0.0403,-0.03387 0.0324,-0.03461"
       style="fill:#21201d;fill-opacity:1;fill-rule:nonzero;stroke:none;stroke-width:0.184057"
       id="path588" />
    <path
       d="m 429.50047,57.349952 c -0.0216,-0.0014 -0.0403,0.01933 -0.0604,0.02501 -0.0151,0.0052 -0.0344,0.01161 -0.0497,0.01235 -0.048,0.0021 -0.0977,-0.01951 -0.14725,-0.01951 -0.0302,0 -0.0591,0.0037 -0.0893,0.0086 -0.028,0.0044 -0.0567,0.0079 -0.0856,0.01161 -0.0129,0.0021 -0.025,0.0079 -0.0351,0.0151 -0.0151,0.0072 -0.0302,0.0065 -0.0475,-0.0057 -0.0396,-0.0074 -0.0797,-0.01379 -0.12,-0.01803 -0.0166,-0.0044 -0.0346,-0.0052 -0.051,-0.0044 -0.0109,0.0072 -0.023,0.01453 -0.0361,0.01803 -0.0475,0.01729 -0.0596,0.01087 -0.097,-0.01362 -0.009,-0.0065 -0.0166,-0.01803 -0.0252,-0.02081 -0.0186,-0.0052 -0.0524,-7.06e-4 -0.0718,0 -0.0519,0.0021 -0.0999,0.03147 -0.15037,0.04454 -0.0151,0.0028 -0.0302,0.0035 -0.0453,0.0028 -0.0166,0.0028 -0.0344,0.0052 -0.051,0.0079 -0.0203,-0.0035 -0.0274,-0.02431 -0.0282,-0.0438 -0.0366,-0.0065 -0.0854,0.0065 -0.12368,0.0072 -0.0445,0.0014 -0.0891,-7.05e-4 -0.13289,-7.05e-4 -0.009,0 -0.0346,-0.0021 -0.0453,-7.06e-4 -0.0287,0.0052 -0.0663,0.02741 -0.0913,0.03313 -0.0611,0.0151 -0.12092,0.01362 -0.18203,0.01288 -0.0344,-7.05e-4 -0.0525,0.01584 -0.0841,0.02522 -0.0473,0.01362 -0.0999,0.0028 -0.14596,0.02448 -0.0237,0.01139 -0.0431,0.02798 -0.0661,0.03957 -0.023,0.0086 -0.0482,0.01436 -0.0732,0.01711 -0.0289,0.01013 -0.0576,0.0151 -0.0878,0.01658 -0.0344,0.0014 -0.0727,-0.0035 -0.10712,-0.0099 -0.0502,-0.01013 -0.0648,-0.04104 -0.10638,-0.06184 -0.0324,-0.01729 -0.0898,-0.0079 -0.12442,-0.0079 -0.0517,0 -0.0963,0.0035 -0.14449,0.02152 -0.023,0.0079 -0.0445,0.01069 -0.0698,0.01288 -0.12515,0.01087 -0.25381,0.0028 -0.37897,0.0021 -0.0302,0 -0.0611,-0.0021 -0.0906,0.0014 -0.0258,0.0028 -0.0503,0.01288 -0.0762,0.01584 -0.0928,0.0092 -0.18903,7.05e-4 -0.28253,7.05e-4 -0.0712,7.06e-4 -0.11871,-0.0044 -0.187,-0.02099 -0.0423,-0.0099 -0.0906,-0.0114 -0.13436,-0.0028 -0.0928,0.01711 -0.17761,0.0589 -0.27388,0.0589 -0.12295,7.06e-4 -0.24663,7.06e-4 -0.37032,7.06e-4 0.009,0.0057 0.0186,0.01288 0.0287,0.01803 0.0324,0.01288 0.0705,0.0079 0.10436,0.0079 0.0236,0 0.0438,-0.0037 0.0675,-0.0066 0.0409,-0.0065 0.0856,-0.0014 0.12718,-0.0028 0.0173,0 0.0295,0.0014 0.0453,0.0072 0.0101,0.0028 0.0195,0.005 0.0282,0.01139 0.005,0.0028 0.0107,0.01309 0.0164,0.01584 0.023,0.01235 0.0583,0.0052 0.0841,0.01013 0.0123,0.0028 0.0252,0.0072 0.0375,0.0094 0.0639,0.0086 0.13289,0.005 0.19841,0.0086 0.0265,0.0021 0.0166,-0.0014 0.0351,0.01362 7e-4,7.06e-4 0.006,0.0099 0.009,0.0114 0.0166,0.0079 0.0416,0 0.0574,-0.0028 0.0942,-0.02173 0.18921,-0.06479 0.28768,-0.06626 0.0856,-0.0021 0.17319,-0.0057 0.25731,0.0014 0.10712,0.01013 0.21498,0.005 0.32283,0.0086 0.0453,0.0021 0.0979,0.0021 0.1432,0.01288 0.0309,0.0079 0.0611,0.01803 0.0928,0.02522 0.0589,0.01288 0.0992,0.02667 0.14522,0.06755 0.0157,0.01436 0.0215,0.02522 0.0445,0.02872 0.0295,0.0052 0.0762,-0.0065 0.10638,-0.01069 0.0309,-0.0044 0.0633,-0.0086 0.0928,-0.01877 0.0431,-0.01436 0.0819,-0.04454 0.12222,-0.06534 0.069,-0.03534 0.14025,-0.06626 0.21277,-0.09497 0.0339,-0.01362 0.0683,-0.0072 0.10565,-0.01214 0.0281,-0.0044 0.0554,-0.01161 0.0828,-0.01658 0.0416,-0.0079 0.0891,-0.0151 0.13013,-0.01087 0.0208,0.0014 0.0416,0.0014 0.0618,0.0052 0.0401,0.005 0.0782,0.02152 0.11853,0.0309 0.0547,0.01288 0.11007,0.01288 0.16529,0.02374 0.0497,0.0092 0.0928,0.01637 0.14319,0.01637 0.0826,-7.05e-4 0.18479,-0.0079 0.26523,-0.0309 0.0316,-0.0092 0.0618,-0.02431 0.0928,-0.03221 0.0339,-0.0079 0.0668,-0.0086 0.0999,-0.02226 0.0215,-0.0079 0.0381,-0.01877 0.0611,-0.02448 0.0497,-0.01235 0.10638,-0.01658 0.15681,-0.02226 0.0488,-0.0059 0.0985,-0.0037 0.1467,-0.01436 0.0179,-0.0044 0.033,-0.01013 0.0495,-0.01379 0.0381,-0.0072 0.0791,0.0037 0.11871,-0.0021 0.0151,-0.0014 0.0287,-0.0072 0.0446,-0.0072 0.0294,-0.0021 0.0445,0.0021 0.0718,-0.01658 0.0101,-0.0065 0.0331,-0.02099 0.0316,-0.03534 -0.0143,-0.0028 -0.0309,-0.0099 -0.0445,-0.01069"
       style="fill:#21201d;fill-opacity:1;fill-rule:nonzero;stroke:none;stroke-width:0.184057"
       id="path590" />
    <path
       d="m 424.44536,57.899181 c -0.0201,0.0044 -0.0401,0.01362 -0.0604,0.01584 -0.0381,0.005 -0.0777,-0.0042 -0.11577,-0.0014 -0.0186,0.0014 -0.0295,0.0094 -0.0453,0.01877 -0.0173,0.0094 -0.0337,0.01436 -0.0517,0.02007 -0.0589,0.01658 -0.12295,0.01087 -0.18055,0.0302 -0.0287,0.0086 -0.0661,0.02081 -0.0876,0.04252 -0.0208,0.02081 -0.0438,0.05595 -0.0309,0.08411 0.006,0.01143 0.0245,0.04454 0.0388,0.04528 0.002,-0.01235 0.007,-0.02226 0.009,-0.03238 0.002,-0.01086 -0.002,-0.02007 0.004,-0.0302 0.009,-0.01087 0.0215,-0.0086 0.0339,-0.01087 0.0265,-0.0035 0.0431,-0.0086 0.0646,-0.02579 0.0433,-0.03461 0.0965,-0.05614 0.1524,-0.05246 0.023,0.0014 0.0482,0.0079 0.0698,0.01362 0.009,0.0028 0.0173,0.0065 0.026,0.0094 0.001,0.0028 0.004,0.0065 0.006,0.0092 0.0331,0.01584 0.0841,0.0028 0.12148,0.0028 0.0663,0.0014 0.13012,0.01362 0.1927,0.03514 0.095,0.03164 0.1813,0.0381 0.27977,0.03736 0.0834,-7.05e-4 0.16749,-0.0092 0.25013,-0.0092 h 0.0223 c 0.0195,0.0079 0.0374,0.02007 0.0561,0.02798 0.0331,0.01436 0.0733,0.0072 0.10712,0.01951 0.0331,0.01069 0.0482,0.04804 0.0876,0.05172 0.0388,0.0035 0.0814,-7.06e-4 0.12093,-7.06e-4 0.0913,0 0.18608,-0.0065 0.27313,-0.0381 0.0201,-0.0065 0.0381,-0.02155 0.0554,-0.03094 0.0129,-0.0065 0.0453,-0.0151 0.0502,-0.0309 h 0.0116 c 0.0547,-0.0028 0.11062,-0.01086 0.16602,-0.0086 0.0274,7.06e-4 0.0532,0.0079 0.0806,0.01087 0.051,0.0035 0.10344,-0.01087 0.15093,-0.02815 0.0648,-0.023 0.13234,-0.05025 0.19547,-0.07823 -0.028,-0.0052 -0.0631,-0.0052 -0.0906,0.0014 -0.0423,0.0086 -0.0861,0.0059 -0.13086,0.0094 -0.0819,0.0086 -0.16031,0.03238 -0.24075,0.04031 -0.049,0.005 -0.0979,-7.06e-4 -0.14743,0.0028 -0.0661,0.0044 -0.13086,0.02448 -0.19694,0.02596 -0.0274,7.06e-4 -0.0539,0 -0.0806,0 h -0.028 c -0.0316,0 -0.0633,7.06e-4 -0.0957,7.06e-4 -0.0547,-7.06e-4 -0.10859,-0.0151 -0.15957,-0.03736 -0.0158,-0.005 -0.0302,-0.01362 -0.0418,-0.02448 -0.006,-0.0057 -0.008,-0.01288 -0.006,-0.02007 -0.0215,-0.0151 -0.0453,-0.02099 -0.0733,-0.01658 -0.0396,-0.0052 -0.0777,-0.0044 -0.11651,0.0028 -0.0339,0.0059 -0.0668,0.01803 -0.0999,0.02815 -0.0265,0.0079 -0.069,0.02575 -0.0935,0.0072 -0.0121,-0.0094 -0.0193,-0.02596 -0.0322,-0.03534 -0.0166,-0.0042 -0.0324,-0.01214 -0.046,-0.02356 -0.021,-0.01584 -0.0396,-0.03238 -0.0583,-0.05043 -0.008,-0.01288 -0.0208,-0.01655 -0.0366,-0.01214 -0.0317,0.0021 -0.0626,0.0035 -0.0942,0.0028 -0.0554,-0.0028 -0.10933,-0.0057 -0.16381,-0.0072 h -7e-4 c -0.004,7.05e-4 -0.0144,0.0079 -0.0203,0.0094"
       style="fill:#21201d;fill-opacity:1;fill-rule:nonzero;stroke:none;stroke-width:0.184057"
       id="path592" />
    <path
       d="m 424.39364,57.887768 c 0.0237,0 0.0482,0.0014 0.0727,0.0021 0.004,-7.06e-4 0.008,-0.0014 0.0136,-0.0021 z"
       style="fill:#21201d;fill-opacity:1;fill-rule:nonzero;stroke:none;stroke-width:0.184057"
       id="path594" />
    <path
       d="m 424.47923,57.887768 h 0.0567 c -0.0151,0 -0.0381,-0.0021 -0.0567,0"
       style="fill:#21201d;fill-opacity:1;fill-rule:nonzero;stroke:none;stroke-width:0.184057"
       id="path596" />
    <path
       d="m 428.25533,57.914273 c -0.0217,0 -0.0383,0 -0.0598,-0.0035 -0.0618,-0.01235 -0.12074,-0.01235 -0.18332,-0.01379 -0.0309,-7.05e-4 -0.0639,-0.01069 -0.0948,-0.01711 -0.0267,-0.0037 -0.0504,-0.01161 -0.072,-0.02596 -0.006,-0.0086 -0.0129,-0.01214 -0.0237,-0.01214 -0.0208,0.0021 -0.0431,0.005 -0.0633,0.0079 -0.0107,0.0014 -0.0223,0.0021 -0.033,0.0028 -0.005,-0.0028 -0.0109,-0.0057 -0.0151,-0.0086 -0.0368,-0.02226 -0.0964,-0.01933 -0.14025,-0.01711 -0.0195,7.06e-4 -0.0252,0.0065 -0.0403,0.01711 -0.0331,0.02155 -0.0646,0.0381 -0.0898,0.06976 -10e-4,0.0028 -0.003,0.0037 -0.004,0.0057 -0.0295,0.0072 -0.0596,0.01453 -0.0891,0.02247 -0.0554,0.0151 -0.0942,0.04877 -0.14522,0.07252 -0.0274,0.01288 -0.0468,0.0072 -0.0777,0.0065 -0.0453,7.05e-4 -0.0898,7.05e-4 -0.13583,0 -0.0188,-0.0014 -0.0381,-0.0014 -0.0569,7.05e-4 -0.0258,0.01235 -0.0517,0.023 -0.0791,0.03239 -0.0215,0.005 -0.0416,0.01288 -0.0596,0.02448 -0.0351,0.023 -0.0762,0.05963 -0.10271,0.09277 -0.008,0.0079 -0.0158,0.01711 -0.0195,0.02797 -0.0525,0.04105 -0.002,0.023 0.041,0.01288 0.0324,-0.0079 0.0517,-0.01362 0.0797,-0.02649 0.0375,-0.01729 0.087,-0.03957 0.12736,-0.0381 0.0337,0 0.069,0.01584 0.10491,0.01711 0.0633,0.0014 0.12663,-0.0065 0.18848,-0.01711 0.0359,-0.0065 0.0589,-0.02596 0.0898,-0.04675 0.0339,-0.02226 0.0683,-0.04178 0.10491,-0.05963 0.0675,-0.03387 0.14172,-0.06847 0.21939,-0.05264 0.056,0.01305 0.10491,0.04178 0.16234,0.04178 0.0986,0 0.19786,-0.02152 0.2956,-0.03313 0.0799,-0.0099 0.16031,-0.0086 0.24019,-0.02505 0.0604,-0.01584 0.12147,-0.03387 0.18037,-0.05393 0.003,-0.0014 0.005,-0.0014 0.008,-0.0028 -0.0856,0.0028 -0.17118,-0.0014 -0.25658,-7.06e-4"
       style="fill:#21201d;fill-opacity:1;fill-rule:nonzero;stroke:none;stroke-width:0.184057"
       id="path598" />
    <path
       d="m 428.5119,57.91501 c 0.009,-7.06e-4 0.0188,-7.06e-4 0.028,-0.0014 -0.008,-0.005 -0.0179,-0.0035 -0.028,0.0014"
       style="fill:#21201d;fill-opacity:1;fill-rule:nonzero;stroke:none;stroke-width:0.184057"
       id="path600" />
    <path
       d="m 427.65843,58.55056 c -0.0179,-0.01584 -0.0401,-0.01859 -0.0668,-0.0079 -0.0381,0 -0.0762,-0.0035 -0.11356,-0.0094 0.006,-0.01362 0.009,-0.02872 0.0178,-0.04233 -0.0236,-0.0057 -0.0537,-0.0014 -0.0775,-0.0014 h -0.35596 c 0.0109,0.01288 0.018,0.02374 0.0309,0.03387 -0.10142,0.0035 -0.20062,0.0099 -0.30277,0.0302 -0.0963,0.02946 -0.194,0.05025 -0.29394,0.06313 -0.0784,0.01655 -0.15682,0.02244 -0.23725,0.01877 -0.0913,-0.0021 -0.1697,-0.01362 -0.25032,-0.05614 -0.0337,-0.01859 -0.046,-0.03443 -0.0826,-0.02798 -0.0676,0.01288 -0.13436,0.03461 -0.20264,0.04822 -0.16621,0.03443 -0.3394,0.023 -0.5091,0.02374 -0.0525,-7.05e-4 -0.10565,0 -0.15755,0.0021 -0.0517,-0.0079 -0.1005,-0.02374 -0.14578,-0.04804 -0.0388,-0.01658 -0.0655,-0.02889 -0.10712,-0.02596 -0.0705,0.0037 -0.14172,-0.0021 -0.21222,0.0014 -0.0733,0.0042 -0.15092,0.01584 -0.2251,0.0079 -0.0431,0.0028 -0.0797,-0.01161 -0.10841,-0.04325 -0.006,-0.0092 -0.0123,-0.01859 -0.0195,-0.02798 -0.0166,-0.02522 -0.0423,-0.03238 -0.0755,-0.02081 -0.0985,-7.05e-4 -0.1962,0 -0.29412,0.0021 -0.11577,-7.06e-4 -0.23209,0.0065 -0.34713,0.02078 -0.0907,0.01436 -0.18203,0.02723 -0.27185,0.03884 -0.0596,0.0079 -0.11724,0.0151 -0.17614,0.0114 -0.008,0.04178 0.0166,0.0302 0.0431,0.02741 0.0539,-0.0079 0.10509,0.01362 0.15608,0.023 0.0554,0.0092 0.11356,0.0021 0.17043,0.0028 0.097,0.0014 0.19198,0.03737 0.28971,0.03737 0.0618,-7.06e-4 0.12295,-0.0085 0.18479,-0.01584 0.051,-0.0057 0.10068,-0.0042 0.1524,-0.0035 0.0504,0 0.11577,-0.0094 0.16675,-7.06e-4 0.0539,0.01013 0.10436,0.03461 0.15535,0.05393 0.0583,0.02226 0.12221,0.05319 0.18553,0.02723 0.0223,-0.0092 0.0201,-0.0151 0.0445,-0.02152 0.0316,-0.0094 0.0633,-0.02152 0.0957,-0.02723 0.0653,-0.01288 0.13804,-0.0044 0.20338,7.05e-4 0.12,0.0086 0.24019,0.023 0.35799,0.04601 0.0957,0.01859 0.19197,0.0302 0.28841,0.04602 0.1143,0.01785 0.21848,0.04749 0.32357,0.097 0.0661,0.03094 0.12866,0.07123 0.20339,0.07767 0.0539,0.0042 0.0928,-0.0079 0.14301,-0.02522 0.0764,-0.02575 0.15534,-0.04877 0.22657,-0.08687 0.0445,-0.023 0.0878,-0.04675 0.13234,-0.06902 0.0309,-0.02173 0.0646,-0.03607 0.10123,-0.04325 0.0447,-0.01436 0.0915,-0.023 0.13804,-0.02575 0.0475,-0.01013 0.0999,-0.03313 0.1489,-0.03884 0.17118,-0.02025 0.34437,0.02575 0.51554,0.0079 0.0468,-0.01013 0.0942,-0.02025 0.14081,-0.02741 l 0.0324,-0.0065 c 0.013,-0.0042 0.0267,-0.01013 0.0374,-0.01803 -0.009,-0.0028 -0.0819,0.0052 -0.0532,-0.02872"
       style="fill:#21201d;fill-opacity:1;fill-rule:nonzero;stroke:none;stroke-width:0.184057"
       id="path602" />
    <path
       d="m 428.33797,58.320489 c -0.0202,0.0021 -0.0425,0.0028 -0.0633,0.0014 -0.0309,-0.0028 -0.0589,-0.0151 -0.0906,-0.0072 -0.0547,0.01288 -0.11724,0.0086 -0.17411,0.03094 -0.025,0.01013 -0.0532,0.01729 -0.0775,0.02872 -0.0101,0.005 -0.0252,0.01877 -0.0361,0.01729 0,-0.0028 -7.1e-4,-0.0057 -0.001,-0.0079 -0.005,0.0072 -0.0114,0.01069 0.0116,0.03313 0.007,0.0079 0.0252,0.01563 0.0351,0.01785 0.0396,0.01086 0.10068,0.0037 0.14098,-0.0028 0.0596,-0.01087 0.11725,-0.03164 0.17467,-0.04822 0.023,-0.0072 0.16823,-0.02872 0.15314,-0.06976 -0.0216,-0.0079 -0.0495,0.0037 -0.0725,0.0065"
       style="fill:#21201d;fill-opacity:1;fill-rule:nonzero;stroke:none;stroke-width:0.184057"
       id="path604" />
    <path
       d="m 423.51588,57.931573 c 0.0129,-0.0052 0.0466,-0.01436 0.11062,-0.08485 -0.0733,-0.01161 -0.14946,-0.01803 -0.22584,-0.01877 -0.0466,0 -0.0775,0.0037 -0.11853,0.02099 -0.0287,0.01214 -0.0589,0.02431 -0.0913,0.02575 -0.0497,7.06e-4 -0.097,-0.0035 -0.14596,-0.0151 -0.0396,-0.0094 -0.0826,-0.0035 -0.12369,-0.0035 -0.0351,0 -0.0683,-0.0072 -0.10288,-0.0094 -0.0186,-0.0014 -0.0381,0 -0.0574,0 -0.0151,7.06e-4 -0.0237,-0.0037 -0.0374,-0.0072 -0.0433,-0.0094 -0.0942,0.0079 -0.13878,0.0072 -0.0208,0 -0.0374,0.0035 -0.0576,0.0094 -0.0295,0.0065 -0.0589,0.01288 -0.0891,0.01658 -0.0136,0.0014 -0.0359,-0.0014 -0.0453,0.01214 0.008,0.0086 0.0237,0.0079 0.0344,0.0086 0.0878,0.0072 0.18405,-0.0065 0.27038,0.01584 0.0374,0.0094 0.072,0.0086 0.1108,0.0086 0.0841,0 0.16602,0.0057 0.25013,0.0079 0.12222,0.0035 0.24443,0.01637 0.36664,0.01933 0.0309,7.05e-4 0.0604,-0.0028 0.0907,-0.01362"
       style="fill:#21201d;fill-opacity:1;fill-rule:nonzero;stroke:none;stroke-width:0.184057"
       id="path606" />
    <path
       d="m 425.57989,59.394652 c 0.0512,0.0065 0.0979,0.0079 0.1489,0.0079 0.026,0 0.0482,-0.0014 0.0725,0.0021 0.0512,0.0094 0.10215,0.01859 0.15387,0.02226 0.0309,0.0021 0.049,0.0042 0.0734,-0.01436 0.009,-0.0079 0.0151,-0.01732 0.0258,-0.02448 0.0224,-0.01436 0.0512,-0.01732 0.0764,-0.02081 0.0416,-0.0052 0.0884,0 0.12939,-0.01012 0.051,-0.01288 0.0985,-0.04031 0.1467,-0.0611 0.0869,-0.03534 0.1754,-0.06755 0.26817,-0.08191 -0.067,-0.01305 -0.13805,-0.01584 -0.20652,-0.023 -0.0532,-0.0052 -0.11061,-0.01305 -0.16454,-0.01013 -0.0475,0.0028 -0.0906,0.01803 -0.13657,0.02946 -0.0826,0.01803 -0.1662,0.03238 -0.25032,0.04105 -0.0359,0.0072 -0.0718,0.01069 -0.1084,0.0086 -0.004,-0.0072 -0.005,-0.01658 -0.004,-0.02522 -0.0121,-0.0044 -0.0359,-7.06e-4 -0.0475,-7.06e-4 -0.0646,0.0014 -0.12497,-0.0072 -0.18902,-0.01877 -0.10418,-0.01711 -0.20854,-0.02078 -0.31125,-0.0438 -0.0677,-0.01658 -0.13307,-0.01859 -0.20209,-0.01933 -0.049,0 -0.097,-0.0037 -0.14448,0.0092 -0.0675,0.01803 -0.1316,0.05117 -0.2021,0.06185 -0.005,7.06e-4 -0.0287,0.0059 -0.0324,0.0014 0.005,-0.04822 -0.0329,-0.02649 -0.0725,-0.0094 -0.0237,0.01087 -0.0519,0.01732 -0.0762,0.02247 -0.0339,0.0077 -0.0705,0.02226 -0.10583,0.02283 -0.0201,0.0014 -0.0804,-0.01143 -0.0948,0.0079 0.002,0.01087 0.0265,0.02374 0.0351,0.0309 0.009,0.0079 0.0173,0.01584 0.026,0.02244 0.018,0.01436 0.0423,0.0151 0.0633,0.01711 0.0473,0.0052 0.0992,0.0044 0.14651,-7.06e-4 0.0252,-0.0021 0.0497,-0.0072 0.0756,-0.0065 0.0445,7.06e-4 0.0891,-0.0021 0.13289,-7.05e-4 0.0447,0.0021 0.0893,0.01013 0.13381,0.01013 0.0661,-7.06e-4 0.12645,0.02226 0.19124,0.03094 0.0633,0.0094 0.12791,0.0028 0.19197,0.0037 0.0856,7.06e-4 0.17191,0.0085 0.25731,0.01859"
       style="fill:#21201d;fill-opacity:1;fill-rule:nonzero;stroke:none;stroke-width:0.184057"
       id="path608" />
    <path
       d="m 424.11756,56.257752 c -0.0445,0 -0.0878,-0.005 -0.1316,-0.0072 -0.004,0 -0.009,-7.06e-4 -0.0144,-7.06e-4 0.003,-0.0021 0.006,-0.0028 0.009,-0.0042 0.0179,-0.0059 0.0792,-0.0037 0.0819,-0.0037 0.0245,-0.0021 0.0497,-0.0057 0.0755,-0.0079 0.021,-7.06e-4 0.0445,-0.0014 0.0655,7.06e-4 0.025,0.0037 0.0495,0.01436 0.0755,0.02081 -0.0532,-0.0042 -0.11081,0.0021 -0.16179,0.0021 m 2.6782,0.350079 c -0.0166,-0.01069 -0.0324,-0.02155 -0.0482,-0.03147 -0.0151,-0.02025 -0.0324,-0.03755 -0.0532,-0.04749 -0.0193,-0.01087 -0.0309,-0.02152 -0.051,-0.02946 -0.0295,-0.01231 -0.0604,-0.02025 -0.09,-0.0309 -0.0201,-0.0079 -0.0351,-0.01161 -0.0567,-0.01161 -0.005,0 -0.008,7.06e-4 -0.0123,7.06e-4 -0.0179,-0.01214 -0.0351,-0.02522 -0.0539,-0.03589 -0.006,-0.0059 -0.0114,-0.01235 -0.0171,-0.01803 -0.0274,-0.023 -0.0663,-0.04031 -0.0965,-0.05964 -0.0186,-0.01235 -0.0401,-0.02081 -0.0633,-0.02815 -0.005,-0.0057 -0.0107,-0.01069 -0.0186,-0.01362 -0.0201,-0.0099 -0.0431,-0.0079 -0.0641,-0.01143 -0.004,-7.05e-4 -0.005,-7.05e-4 -0.008,-7.05e-4 -0.006,-0.0014 -0.0121,-0.0021 -0.0171,-0.0037 -0.0396,-0.0099 -0.0799,-0.03164 -0.11871,-0.03514 -0.0188,-0.0014 -0.0388,0.0014 -0.0574,0.0014 -0.0101,0 -0.0296,-0.0037 -0.0383,-7.05e-4 -0.008,0.0028 -0.0171,0.0086 -0.0251,0.0151 -0.0374,0.01012 -0.0734,0.02649 -0.10509,0.03736 -0.10345,0.03514 -0.21922,0.0042 -0.3256,0.02596 -0.0504,0.01069 -0.0999,0.01436 -0.15019,0.01584 -0.004,-0.0052 -0.007,-0.0094 -0.0109,-0.01379 -0.0475,-0.0438 -0.10491,-0.05522 -0.16473,-0.06258 -0.0337,-0.0042 -0.0747,-0.0028 -0.10841,0 -0.0304,0.0028 -0.0611,0.01803 -0.09,0.02963 -0.0295,0.01143 -0.0532,0.02946 -0.0784,0.0473 -0.0387,0.02815 -0.1027,0.02963 -0.14871,0.03313 -0.0324,0.0014 -0.0648,0.0037 -0.0977,0.0044 -0.0554,-0.01729 -0.10933,-0.04325 -0.16547,-0.067 -0.0208,-0.0099 -0.0416,-0.0151 -0.0639,-0.02374 -0.0289,-0.0099 -0.0547,-0.02798 -0.0841,-0.03369 -0.009,-0.01877 -0.0166,-0.02522 -0.0375,-0.03534 -0.0243,-0.01288 -0.0525,-0.01785 -0.0769,-0.03094 -0.0193,-0.0092 -0.0236,-0.01288 -0.046,-0.01214 -0.0366,7.06e-4 -0.0733,7.06e-4 -0.10915,0 -0.008,0 -0.0173,-0.0021 -0.0237,-7.05e-4 -0.0173,0.0044 -0.0381,0.02374 -0.0539,0.03387 -0.0136,0.0099 -0.0274,0.02374 -0.0425,0.03239 -0.0158,0 -0.0316,0 -0.0438,0.0021 -10e-4,7.06e-4 -0.003,7.06e-4 -0.005,0.0014 -0.0245,0.0057 -0.0482,0.02007 -0.0712,0.02946 -0.0252,0.01013 -0.0517,0.01584 -0.0784,0.02448 -0.0495,0.01584 -0.11209,0.0438 -0.14798,0.08062 -0.0145,0.01214 -0.023,0.02797 0.025,0.02356 0.0366,-0.02356 0.0841,-0.0381 0.12368,-0.05816 0.0935,-0.04748 0.19418,-0.07123 0.30056,-0.06755 0.0374,0.0021 0.0661,0.005 0.0985,0.02152 0.0582,0.0309 0.14025,0.06332 0.20707,0.06902 0.0482,0.0042 0.097,-0.0079 0.14375,0.01288 0.0217,0.0094 0.0346,0.02152 0.0504,0.03884 0.009,0.01012 0.0186,0.0267 0.0316,0.03312 0.0359,0.01933 0.0933,-0.005 0.13142,0.0028 0.0547,0.01143 0.1073,0.04454 0.16123,0.05964 0.0344,0.0099 0.0617,0.01362 0.097,0.01288 0.0547,-0.0021 0.10933,-0.0021 0.16326,-0.0079 0.0604,-0.0072 0.11282,-0.02448 0.17025,-0.03957 0.0663,-0.01711 0.12939,-0.03443 0.1927,-0.05964 0.0396,-0.01584 0.0734,-0.0302 0.11798,-0.03443 0.009,-7.06e-4 0.0179,-7.06e-4 0.0265,-0.0014 0.0131,0 0.0267,-7.05e-4 0.0396,-0.0014 0.0532,0 0.10638,0.0042 0.15902,0.0021 0.0387,-0.0014 0.0768,-0.0079 0.11485,-0.01436 0.0145,0.02007 0.0195,0.02946 0.0425,0.04233 0.0201,0.01161 0.0295,0.01933 0.0525,0.02448 0.0245,0.0057 0.0504,0.0086 0.0755,0.0094 0.0532,0.0021 0.10565,0.0021 0.15608,0.02431 0.0475,0.02099 0.0883,0.05117 0.13436,0.07565 0.0626,0.03443 0.13731,0.04086 0.20283,0.05963 0.046,0.01288 0.10289,0.01933 0.15019,0.01859 0.0203,0 0.0237,0 0.0425,0.0079 0.0136,0.0065 0.069,0.0309 0.0784,0.01231 -0.0109,-0.01305 -0.0331,-0.02152 -0.0539,-0.02815 0.004,0 0.006,7.05e-4 0.0107,7.05e-4 -0.0129,-0.0072 -0.0238,-0.01436 -0.0272,-0.01655"
       style="fill:#21201d;fill-opacity:1;fill-rule:nonzero;stroke:none;stroke-width:0.184057"
       id="path610" />
    <path
       d="m 428.4911,56.55261 c -0.0166,-0.01231 -0.0893,-0.0021 -0.10859,-0.0028 -0.0525,-7.05e-4 -0.10436,0.01013 -0.15682,0.0094 -0.0431,0 -0.0898,0.0065 -0.13215,0.0021 -0.0618,-0.0066 -0.12442,-0.02815 -0.18553,-0.04399 -0.006,-0.0028 -0.0116,-0.0065 -0.0173,-0.0094 -0.0267,-0.01362 -0.0467,-0.02872 -0.0747,-0.02946 -0.0158,0 -0.0237,0.0028 -0.0403,-0.0028 -0.0201,-0.0072 -0.0331,-0.01803 -0.0532,-0.02226 -0.0287,-0.0072 -0.0554,-0.03755 -0.0834,-0.03681 -0.0202,0 -0.0497,0.02226 -0.0626,0.03736 -0.009,0.01161 -0.0121,0.02173 -0.0173,0.03461 -0.006,0.01288 -0.0114,0.02226 -0.0179,0.03514 -0.001,0.0021 -0.002,0.0052 -0.003,0.0086 -0.069,0.01362 -0.14099,0.0086 -0.21129,0.0094 -0.0534,0 -0.15111,0.01013 -0.19492,-0.03589 -0.0267,-0.03534 -0.0596,-0.0497 -0.0992,-0.06184 -0.0316,-0.01013 -0.0589,-0.02596 -0.0906,-0.03607 -0.0267,0.0021 -0.0539,-0.0035 -0.0784,-0.02226 l -0.008,-0.0057 c -0.006,-0.0021 -0.0121,-0.005 -0.018,-0.0079 -0.0151,-0.0072 -0.0366,-0.01436 -0.0488,-0.02649 -0.008,-0.0065 -0.006,-0.01803 -0.0202,-0.01658 -0.007,0.01859 7e-4,0.04031 0.0151,0.05246 0.009,0.0094 0.0302,0.01584 0.0418,0.02374 0.0114,0.0094 0.0215,0.01803 0.0324,0.02649 0.0316,0.02741 0.0698,0.04399 0.10271,0.06976 0.0287,0.023 0.0648,0.03884 0.0964,0.05761 0.0396,0.02078 0.0883,0.0438 0.1316,0.05246 0.0223,0.0057 0.0344,0.0086 0.0574,0.02152 0.0208,0.01161 0.0431,0.03238 0.0641,0.03957 0.0171,0.0065 0.0287,0.0028 0.048,0.0021 0.0813,-0.0059 0.15755,-0.02596 0.23945,-0.02667 0.0554,-0.0014 0.11154,0.0057 0.16621,-0.0014 0.046,-0.0072 0.0854,-0.0092 0.13215,-0.0021 0.0885,0.01362 0.17485,0.02155 0.26541,0.02155 0.0423,0 0.10859,0.01288 0.14945,-0.005 0.0504,-0.02374 0.0893,-0.08062 0.14246,-0.09865 0.0129,-0.0035 0.0272,0 0.0374,-0.0099"
       style="fill:#21201d;fill-opacity:1;fill-rule:nonzero;stroke:none;stroke-width:0.184057"
       id="path612" />
    <path
       d="m 426.87546,59.582943 c -0.0322,0.01658 -0.0683,0.02522 -0.10344,0.0309 -0.046,0.0079 -0.0913,0.01803 -0.13584,0.02963 -0.0131,0.0028 -0.0282,0.0057 -0.0403,0.01214 -0.0151,0.0079 -0.0208,0.01877 -0.0324,0.02946 -0.0208,0.02374 -0.0495,0.04105 -0.0784,0.05393 -0.0639,0.02946 -0.11577,0.02667 -0.18553,0.02667 -0.0545,0 -0.10914,0.0014 -0.16307,-0.0044 -0.0374,-0.005 -0.0784,-0.01214 -0.1143,0 -0.0604,0.01951 -0.12442,0.0302 -0.187,0.03957 -0.0438,0.0065 -0.0878,0.01951 -0.13234,0.01803 -0.0272,-0.0014 -0.023,-0.01655 -0.0438,-0.0302 -0.0129,-0.0086 -0.0287,-0.0065 -0.0438,-0.0059 -0.0366,0.0014 -0.0705,0.0074 -0.10215,0.02448 l 0.028,0.0028 c 0.0539,-0.0021 0.10362,0.0065 0.1546,0.01803 0.0361,0.0072 0.072,0.0042 0.10786,0.0079 0.0274,0.0028 0.0539,0.0099 0.0813,0.01288 0.0315,0.0028 0.0661,-7.05e-4 0.0963,0.01069 0.028,0.01161 0.0374,0.01951 0.0661,0.02244 0.0626,0.005 0.11504,-0.0059 0.17265,-0.02667 0.0431,-0.01436 0.0856,-0.03461 0.13013,-0.03884 0.0388,-0.0042 0.0804,0.0028 0.12,0 0.046,-0.0028 0.0928,-0.0042 0.13804,-0.0079 0.067,-0.005 0.12019,-0.02152 0.18203,-0.04178 0.0179,-0.005 0.0287,-0.0092 0.0416,-0.02007 0.0144,-0.02007 0.0287,-0.03883 0.0445,-0.05816 0.0173,-0.01951 0.0346,-0.04178 0.0512,-0.06258 0.0121,-0.02152 0.0388,-0.08338 0.0272,-0.107859 -0.0287,0.01859 -0.0475,0.04749 -0.0791,0.06461"
       style="fill:#21201d;fill-opacity:1;fill-rule:nonzero;stroke:none;stroke-width:0.184057"
       id="path614" />
    <path
       d="m 425.43982,59.835469 c 0.0287,0.0065 0.0438,-0.01013 0.0683,-0.02597 10e-4,0 0.004,-0.0014 0.005,-0.0021 l -0.18829,-0.01362 c 0.0388,0.0086 0.0762,0.03313 0.11503,0.04178"
       style="fill:#21201d;fill-opacity:1;fill-rule:nonzero;stroke:none;stroke-width:0.184057"
       id="path616" />
    <path
       d="m 425.32405,59.793689 c -0.0101,-0.0014 -0.021,-0.0028 -0.0317,-0.0028 z"
       style="fill:#21201d;fill-opacity:1;fill-rule:nonzero;stroke:none;stroke-width:0.184057"
       id="path618" />
  </g>
</svg>
