<?xml version="1.0" encoding="UTF-8" standalone="no"?>
<!-- Created with Inkscape (http://www.inkscape.org/) -->

<svg
   width="7.6954207mm"
   height="7.5143161mm"
   viewBox="0 0 7.6954207 7.5143161"
   version="1.1"
   id="svg2888"
   inkscape:version="1.1.2 (0a00cf5339, 2022-02-04)"
   sodipodi:docname="z16.svg"
   xmlns:inkscape="http://www.inkscape.org/namespaces/inkscape"
   xmlns:sodipodi="http://sodipodi.sourceforge.net/DTD/sodipodi-0.dtd"
   xmlns="http://www.w3.org/2000/svg"
   xmlns:svg="http://www.w3.org/2000/svg">
  <sodipodi:namedview
     id="namedview2890"
     pagecolor="#ffffff"
     bordercolor="#666666"
     borderopacity="1.0"
     inkscape:pageshadow="2"
     inkscape:pageopacity="0.0"
     inkscape:pagecheckerboard="0"
     inkscape:document-units="mm"
     showgrid="false"
     inkscape:zoom="0.64052329"
     inkscape:cx="14.051011"
     inkscape:cy="14.831623"
     inkscape:window-width="2560"
     inkscape:window-height="1376"
     inkscape:window-x="0"
     inkscape:window-y="0"
     inkscape:window-maximized="1"
     inkscape:current-layer="layer1" />
  <defs
     id="defs2885" />
  <g
     inkscape:label="Layer 1"
     inkscape:groupmode="layer"
     id="layer1"
     transform="translate(-101.07585,-144.74282)">
    <path
       d="m 108.6254,148.39473 c -0.005,0.004 -0.008,0.008 -0.0109,0.0136 0.004,-0.003 0.008,-0.007 0.0109,-0.0136"
       style="fill:#21201d;fill-opacity:1;fill-rule:evenodd;stroke:none;stroke-width:0.184057"
       id="path700" />
    <path
       d="m 105.06852,146.62593 c -0.009,-0.0151 -0.0272,-0.0171 -0.0431,-0.0208 -0.008,0.0203 0.0339,0.046 0.0431,0.0208"
       style="fill:#21201d;fill-opacity:1;fill-rule:nonzero;stroke:none;stroke-width:0.184057"
       id="path702" />
    <path
       d="m 108.38523,148.798 c 0.006,-0.005 0.0106,-0.009 0.0187,-0.009 0,-0.002 0.004,-0.005 0.004,-0.007 -0.0113,0.007 -0.0173,0.0123 -0.0208,0.0166"
       style="fill:#21201d;fill-opacity:1;fill-rule:nonzero;stroke:none;stroke-width:0.184057"
       id="path704" />
    <path
       d="m 108.37232,148.81162 c -0.0145,0.0145 -0.0303,0.0289 -0.0453,0.0425 -0.0282,0.023 -0.0606,0.0374 -0.0885,0.0589 -0.0229,0.0158 -0.0403,0.0396 -0.0604,0.0591 -0.0236,0.0215 -0.0482,0.0416 -0.0712,0.0639 -0.0495,0.046 -0.0992,0.10565 -0.15885,0.13951 -0.0569,0.0331 -0.11356,0.072 -0.16398,0.11504 -0.0236,0.0201 -0.0367,0.0396 -0.0547,0.0676 -0.0113,0.0173 -0.0243,0.0353 -0.0374,0.0512 -0.0303,0.0352 -0.0453,0.0696 -0.0668,0.10989 -0.0243,0.046 -0.069,0.069 -0.10418,0.10638 -0.0282,0.0295 -0.0497,0.0611 -0.0806,0.0871 -0.006,0.004 -0.0127,0.009 -0.0187,0.0121 0.0236,-0.0151 0.051,-0.0295 0.0718,-0.0445 0.0388,-0.0295 0.0791,-0.0532 0.1143,-0.0856 0.0418,-0.0381 0.0848,-0.0782 0.12809,-0.11356 0.0113,-0.0101 0.0265,-0.0144 0.0388,-0.023 0.0152,-0.0121 0.0208,-0.0295 0.0328,-0.0438 0.0138,-0.018 0.0366,-0.0388 0.0546,-0.0525 0.0173,-0.0144 0.0396,-0.021 0.0569,-0.0361 0.0321,-0.0258 0.0582,-0.0589 0.0941,-0.0812 0.0159,-0.0101 0.0332,-0.0166 0.0489,-0.0287 0.0346,-0.0252 0.0648,-0.0576 0.0978,-0.0863 0.0268,-0.0245 0.0517,-0.0482 0.0762,-0.0755 0.0116,-0.0136 0.0258,-0.028 0.0353,-0.0438 0.007,-0.0123 0.01,-0.0274 0.0166,-0.0396 0.0194,-0.0287 0.0394,-0.0576 0.0552,-0.0893 0.006,-0.0144 0.01,-0.0295 0.0173,-0.0431 0.006,-0.009 0.0123,-0.0166 0.018,-0.0252 0.004,-0.005 0.004,-0.009 0.006,-0.0151 -0.005,0.004 -0.008,0.009 -0.013,0.0136"
       style="fill:#21201d;fill-opacity:1;fill-rule:nonzero;stroke:none;stroke-width:0.184057"
       id="path706" />
    <path
       d="m 107.40807,149.73412 c 0.005,-0.003 0.008,-0.006 0.0131,-0.009 -0.0166,0.0109 -0.0339,0.0223 -0.046,0.0353 0.0138,0 0.0236,-0.0188 0.0328,-0.0267"
       style="fill:#21201d;fill-opacity:1;fill-rule:nonzero;stroke:none;stroke-width:0.184057"
       id="path708" />
    <path
       d="m 108.24073,147.88139 c 0.012,0.006 0.0243,0.0129 0.0359,0.0201 -0.0208,-0.0173 -0.041,-0.0359 -0.064,-0.0495 -0.0152,-0.009 -0.0296,-0.0195 -0.0438,-0.0309 0.0215,0.0243 0.0403,0.0431 0.072,0.0604"
       style="fill:#21201d;fill-opacity:1;fill-rule:nonzero;stroke:none;stroke-width:0.184057"
       id="path710" />
    <path
       d="m 103.62992,146.11775 c -0.0539,0.0401 -0.0977,0.0747 -0.13582,0.13086 -0.0201,0.0302 -0.0885,0.12001 -0.0532,0.15958 0.031,-0.008 0.0611,-0.0396 0.0883,-0.0517 0.0332,-0.0151 0.0683,-0.0282 0.14101,-0.0418 0.0618,-7.1e-4 0.12075,-0.0136 0.18185,-0.023 0.0532,-0.008 0.10492,-0.026 0.15808,-0.0309 0.0742,-0.007 0.14965,0.006 0.22363,-0.006 0.0282,-0.004 0.0539,-0.004 0.0827,-0.004 0.0212,0 0.0475,0.004 0.067,-0.004 0.006,-0.003 0.0113,-0.0101 0.0169,-0.0136 0.0226,-0.0131 0.0482,-0.0151 0.0712,-0.0282 0.0243,-0.0129 0.0433,-0.0322 0.0655,-0.048 0.0127,-0.0101 0.0286,-0.0131 0.0416,-0.021 0.0293,-0.0166 0.0425,-0.0502 0.0604,-0.0769 0.018,-0.0265 0.0418,-0.0473 0.0611,-0.0725 0.0173,-0.023 0.0282,-0.0504 0.0453,-0.0727 0.0325,-0.0431 0.0569,-0.0906 0.0935,-0.12939 0.0275,-0.0287 0.0604,-0.0561 0.0856,-0.0863 0.0131,-0.0164 0.0229,-0.0359 0.0339,-0.051 0.012,-0.0193 0.0303,-0.0324 0.0438,-0.0502 0.0152,-0.0203 0.0254,-0.0403 0.0475,-0.0547 0.0236,-0.0151 0.0366,-0.0353 0.0567,-0.0547 0.0303,-0.028 0.0662,-0.0497 0.0992,-0.0747 0.0512,-0.0381 0.0979,-0.0806 0.15113,-0.1143 0.0453,-0.0296 0.0797,-0.0705 0.12369,-0.10289 0.031,-0.023 0.0546,-0.0339 0.0933,-0.0346 0.0303,-7e-4 0.0605,0 0.09,0 0.0935,0 0.19198,-0.006 0.28547,0.002 0.0524,0.005 0.0631,0.0123 0.092,0.0497 0.0258,0.0316 0.0646,0.0596 0.0854,0.0955 0.0236,0.0403 0.0236,0.10436 0.0212,0.14964 -0.004,0.0302 -0.0166,0.071 -0.0332,0.0948 0.0173,-0.001 0.0366,-0.0121 0.0525,-0.0179 0.0468,-0.0188 0.0928,-0.0361 0.13659,-0.0604 0.0519,-0.0282 0.072,-0.0539 0.0849,-0.11228 0.009,-0.0388 0.0187,-0.0819 0.0138,-0.12221 -0.004,-0.0309 -0.0201,-0.0525 -0.0366,-0.0791 -0.031,-0.0466 -0.0683,-0.10639 -0.1178,-0.13805 -0.0102,-0.006 -0.0187,-0.009 -0.0353,-0.0164 -0.0762,-0.0331 -0.14302,-0.0856 -0.21848,-0.11946 -0.0597,-0.028 -0.12665,-0.0517 -0.18849,-0.0747 -0.0401,-0.0151 -0.0819,-0.0287 -0.1222,-0.0425 -0.0502,-0.0156 -0.11652,-0.0265 -0.17043,-0.0258 -0.0473,0 -0.0955,-0.005 -0.14153,0.006 -0.0261,0.0109 -0.051,0.0188 -0.0777,0.0245 -0.0222,0.001 -0.0438,0.006 -0.0641,0.0151 -0.15663,0.0646 -0.30332,0.17614 -0.41836,0.29983 -0.0438,0.0468 -0.0554,0.10491 -0.0891,0.15811 -0.0475,0.0769 -0.0999,0.16546 -0.16472,0.23007 -0.0187,0.0195 -0.0431,0.0445 -0.0683,0.0554 -0.0109,0.003 -0.0215,0.004 -0.0325,0.006 -0.0423,0.0158 -0.0812,0.0366 -0.11853,0.0626 -0.0591,0.0396 -0.12443,0.0784 -0.16694,0.13731 -0.0286,0.0396 -0.046,0.0849 -0.0733,0.12589 -0.0438,0.0646 -0.11652,0.0977 -0.18775,0.12792 -0.0466,0.0188 -0.0955,0.0216 -0.14153,0.0425 -0.0504,0.0223 -0.0942,0.0495 -0.13879,0.0827"
       style="fill:#21201d;fill-opacity:1;fill-rule:nonzero;stroke:none;stroke-width:0.184057"
       id="path712" />
    <path
       d="m 102.26242,146.94159 c 0.0353,-0.0351 0.0625,-0.0653 0.10509,-0.0898 0.0401,-0.0215 0.0747,-0.0497 0.11208,-0.0777 0.0145,-0.0107 0.0286,-0.0208 0.0431,-0.0309 0.0453,-0.0302 0.092,-0.0438 0.14097,-0.0661 l 0.004,-0.001 c 0.0155,-0.0237 0.0279,-0.051 0.0409,-0.0755 0.0208,-0.0374 0.0433,-0.0705 0.0683,-0.10491 0.0215,-0.0309 0.0395,-0.0648 0.0655,-0.0928 0.0676,-0.0727 0.13215,-0.14393 0.19124,-0.22436 0.031,-0.0431 0.0675,-0.0856 0.0849,-0.13584 0.0169,-0.0569 0.0264,-0.10933 0.0264,-0.16823 0,-0.0569 -0.009,-0.11798 0.0166,-0.17044 0.0311,-0.0641 0.072,-0.11503 0.11007,-0.17338 0.0145,-0.023 0.0286,-0.046 0.0453,-0.0668 0.0102,-0.0129 0.0127,-0.0223 0.0194,-0.0344 0.0159,-0.0289 0.0403,-0.0626 0.0626,-0.0871 0.0396,-0.0418 0.1071,-0.0475 0.1603,-0.026 0.0885,0.0346 0.10714,0.10142 0.13603,0.18406 0.012,0.0361 0.0286,0.0957 0.0201,0.13455 0,0.001 0,0.004 -0.004,0.006 0.0159,-0.023 0.0303,-0.046 0.0453,-0.069 0.0361,-0.0561 0.0396,-0.11927 0.0396,-0.18332 0,-0.0898 -0.0339,-0.18185 -0.11281,-0.2286 -0.0425,-0.0245 -0.0942,-0.0539 -0.14524,-0.0532 -0.0173,0 -0.0332,7e-4 -0.0504,-0.001 -0.0631,-0.007 -0.13088,-0.0203 -0.194,-0.0116 -0.0418,0.006 -0.0841,0.008 -0.12664,0.0151 -0.0303,0.004 -0.0554,0.0158 -0.0834,0.0267 -0.0272,0.0114 -0.0633,0.0173 -0.0871,0.0331 -0.0194,0.0136 -0.0353,0.0344 -0.051,0.0517 -0.0475,0.0517 -0.095,0.10859 -0.12001,0.17467 -0.0289,0.0769 -0.0539,0.17043 -0.0554,0.25308 0,0.0524 0,0.10141 -0.01,0.15166 -0.007,0.0418 -0.0254,0.0965 -0.0482,0.13086 -0.0359,0.0561 -0.0963,0.0893 -0.15589,0.11504 -0.0229,0.0109 -0.0532,0.0203 -0.0747,0.0353 -0.0539,0.0388 -0.0663,0.10068 -0.0648,0.16105 0.004,0.0898 -0.0482,0.15884 -0.0762,0.24149 -0.0152,0.0453 -0.0208,0.10141 -0.0229,0.1489 -0.004,0.0668 -0.0367,0.11651 -0.0619,0.17614 -0.0208,0.0488 -0.0332,0.0876 -0.0698,0.12645 -0.0581,0.0626 -0.1143,0.12589 -0.1524,0.20209 -0.0127,0.0252 -0.0332,0.0475 -0.0504,0.072 0.0138,-0.0151 0.0353,-0.0282 0.0475,-0.0396 0.0814,-0.0705 0.15458,-0.15185 0.23008,-0.22731"
       style="fill:#21201d;fill-opacity:1;fill-rule:nonzero;stroke:none;stroke-width:0.184057"
       id="path714" />
    <path
       d="m 103.71258,145.6403 c -0.008,0.0114 -0.0159,0.0223 -0.0236,0.0331 0.01,-0.009 0.0194,-0.0195 0.0236,-0.0331"
       style="fill:#21201d;fill-opacity:1;fill-rule:nonzero;stroke:none;stroke-width:0.184057"
       id="path716" />
    <path
       d="m 102.62701,146.72238 c 0.0797,-0.0569 0.0618,-0.0554 0.0403,-0.0467 -0.005,0.006 -0.009,0.0129 -0.0131,0.018 -0.008,0.0107 -0.0236,0.0151 -0.0272,0.0287"
       style="fill:#21201d;fill-opacity:1;fill-rule:nonzero;stroke:none;stroke-width:0.184057"
       id="path718" />
    <path
       d="m 103.67173,145.69055 c -0.0138,0.0158 -0.0339,0.0339 -0.0433,0.0532 0.0229,-0.0215 0.0418,-0.0453 0.0604,-0.0703 -0.006,0.006 -0.0113,0.0107 -0.0173,0.0171"
       style="fill:#21201d;fill-opacity:1;fill-rule:nonzero;stroke:none;stroke-width:0.184057"
       id="path720" />
    <path
       d="m 101.97197,147.22927 c 0.004,-0.007 0.008,-0.0136 0.0123,-0.0203 -0.006,0.006 -0.0102,0.0131 -0.0123,0.0203"
       style="fill:#21201d;fill-opacity:1;fill-rule:nonzero;stroke:none;stroke-width:0.184057"
       id="path722" />
    <path
       d="m 106.14562,145.85307 c -0.0272,0.006 -0.046,0.0245 -0.0697,0.0366 -0.0236,0.013 -0.0446,0.0289 -0.0661,0.0433 -0.0229,0.0151 -0.0519,0.0208 -0.072,0.0374 -0.0173,0.0136 -0.0272,0.0331 -0.0438,0.046 -0.0109,0.009 -0.0236,0.0165 -0.0353,0.026 -0.0208,0.0164 -0.0388,0.0374 -0.0574,0.0567 -0.0325,0.006 -0.0648,0.0129 -0.0977,0.018 -0.0268,0.004 -0.0532,0.0114 -0.0792,0.0215 -0.0668,0.0208 -0.13948,0.0267 -0.20556,0.0482 -0.0268,0.009 -0.0512,0.0237 -0.0762,0.0366 -0.0346,0.0193 -0.072,0.0317 -0.11229,0.0366 -0.0445,0.004 -0.0856,-0.0129 -0.1294,-0.0178 0.009,0.0136 0.0517,0.0164 0.0683,0.0223 0.0511,0.0136 0.0999,0.009 0.15109,0.0136 0.0296,0.002 0.0488,0.0295 0.0775,0.0351 0.0296,0.006 0.0641,10e-4 0.0942,0.006 0.01,0.005 0.0201,0.01 0.0318,0.0144 0.0581,0.0193 0.12146,0.0186 0.18108,0.0352 0.0606,0.0165 0.12516,0.0158 0.18775,0.0267 0.0411,0.006 0.0804,0.009 0.12294,0.009 0.0324,0 0.092,0.007 0.12075,-0.0114 0.0359,-0.0208 0.0275,-0.072 0.0374,-0.10639 0.0123,-0.0396 0.0418,-0.0663 0.0769,-0.0863 0.0346,-0.0158 0.0705,-0.0302 0.10566,-0.0438 0.0268,-0.0158 0.0546,-0.0245 0.0848,-0.0274 0.0381,-0.006 0.0762,-0.01 0.1143,-0.0173 0.0425,-0.007 0.0878,-0.0121 0.13085,-0.0144 0.0856,-0.004 0.16898,-0.0178 0.25308,-0.0351 0.0554,-0.0129 0.11871,-0.0208 0.17413,-0.006 0.0581,0.0158 0.11282,0.0388 0.14373,0.0955 0.0194,0.0331 0.0438,0.0611 0.0641,0.0942 0.006,0.009 0.01,0.0201 0.0145,0.0302 v 0.009 c 0,0.0554 0.0173,0.11006 0.0187,0.16454 0,0.0455 -0.006,0.0821 -0.0166,0.12516 -0.004,0.0165 -0.004,0.0302 -0.0127,0.0453 -0.0113,0.0173 -0.03,0.0295 -0.046,0.0433 -0.0152,0.0129 -0.0303,0.0258 -0.0453,0.0394 -0.004,0 -0.008,0 -0.0127,-0.001 -0.0438,-0.006 -0.0445,-0.0245 -0.0747,-0.0497 -0.0187,-0.0166 -0.0396,-0.0316 -0.0569,-0.0482 -0.0138,-0.0114 -0.0222,-0.0193 -0.0325,-0.0366 -0.0106,-0.0201 -0.0145,-0.0626 -0.0318,-0.0784 -0.0215,0.0467 -0.004,0.14025 0.0194,0.18056 0.0258,0.0416 0.0559,0.0646 0.097,0.0898 0.0395,0.0245 0.0747,0.0366 0.11871,0.051 0.0303,0.0101 0.0567,0.021 0.0876,0.0281 0.0254,0.005 0.0411,0.0158 0.069,0.01 0.0116,-0.002 0.0222,-0.005 0.0332,-0.007 0.0243,-0.005 0.0403,-0.0144 0.0633,-0.0272 0.025,-0.0151 0.048,-0.0331 0.0747,-0.0475 0.004,-0.0223 0.0366,-0.046 0.049,-0.0567 0.0155,-0.0158 0.0328,-0.0309 0.0495,-0.0468 0.0431,-0.0425 0.0431,-0.0791 0.0467,-0.14172 0.005,-0.0712 -0.006,-0.15387 -0.051,-0.2113 -0.041,-0.0525 -0.0863,-0.0957 -0.11374,-0.15755 -0.025,-0.0589 -0.046,-0.11651 -0.0834,-0.16823 -0.009,-0.0129 -0.0173,-0.0252 -0.0257,-0.0374 -0.008,-0.0101 -0.0131,-0.0208 -0.0152,-0.0339 -0.005,-0.006 -0.004,-0.005 -0.0102,-0.0121 -0.0173,-0.0173 -0.0403,-0.0366 -0.0596,-0.051 -0.0289,-0.0195 -0.0633,-0.0195 -0.095,-0.0353 -0.0431,-0.023 -0.10565,-0.009 -0.15092,-0.0287 -0.0261,-0.0114 -0.0438,-0.0388 -0.072,-0.0482 -0.0482,-0.0178 -0.10143,-0.0431 -0.14524,-0.0718 -0.0416,-0.0274 -0.0985,-0.0116 -0.14669,-0.004 -0.11927,0.0195 -0.23431,0.0618 -0.34656,0.11007 -0.0631,0.0272 -0.12499,0.0618 -0.19329,0.0777 -0.0258,0.006 -0.0532,-0.002 -0.0791,0.004"
       style="fill:#21201d;fill-opacity:1;fill-rule:nonzero;stroke:none;stroke-width:0.184057"
       id="path724" />
    <path
       d="m 106.54962,150.47605 c 0.0339,-0.0136 0.0683,-0.0302 0.10509,-0.0374 0.0222,-0.005 0.0431,-0.008 0.0646,-0.0151 l -0.18183,-0.0272 c -0.0367,0 -0.0705,7e-4 -0.10639,0.007 -0.0366,0.006 -0.0705,0.0151 -0.1051,0.0265 -0.0775,0.0252 -0.15811,0.0381 -0.23431,0.0685 -0.0812,0.0329 -0.15808,0.079 -0.23724,0.11559 -0.0359,0.0166 -0.074,0.0158 -0.11007,0.0339 -0.0286,0.0158 -0.0453,0.026 -0.0725,0.0468 -0.0576,0.046 -0.12019,0.0804 -0.17191,0.13234 -0.0423,0.0431 -0.10788,0.0539 -0.15388,0.0941 -0.0574,0.0482 -0.10565,0.12369 -0.13437,0.19124 -0.0201,0.0475 -0.0229,0.0928 -0.0261,0.1432 0,0.0316 -0.009,0.0567 -0.0194,0.0856 -0.0354,0.0999 -0.13952,0.1408 -0.21075,0.20982 -0.0159,0.018 -0.0335,0.0346 -0.0517,0.0512 -0.0166,0.0129 -0.0332,0.0258 -0.0517,0.0381 -0.007,0.01 -0.0116,0.0201 -0.0159,0.0309 -0.0116,0.0215 -0.0254,0.0409 -0.0425,0.0582 -0.0272,0.0267 -0.0554,0.0525 -0.0848,0.0777 -0.0353,0.0215 -0.0733,0.0359 -0.1143,0.0438 -0.0431,0.0158 -0.0876,0.0287 -0.13363,0.0403 -0.044,0.004 -0.0878,0.005 -0.13233,0.004 -0.0663,-0.002 -0.14175,-0.0151 -0.20359,-0.0387 -0.004,-0.007 -0.009,-0.0116 -0.0194,-0.0101 -0.0215,-0.004 -0.043,-0.008 -0.064,-0.0144 -0.0131,-0.002 -0.0236,-0.002 -0.0367,-0.004 -0.0359,-0.009 -0.0863,-0.0193 -0.11723,-0.0416 -0.0755,-0.0539 -0.15166,-0.10933 -0.22289,-0.17191 -0.0303,-0.026 -0.031,-0.0316 -0.031,-0.072 0,-0.0495 0.005,-0.10492 0.0282,-0.14872 0.018,-0.0331 0.0567,-0.074 0.0935,-0.0863 0.0243,-0.009 0.0286,-0.003 0.0481,0.006 0.0229,0.0109 0.0576,0.007 0.0475,0.044 0.0332,-0.0554 0.0222,-0.13381 -0.012,-0.18351 -0.0215,-0.0307 -0.018,-0.0431 -0.0546,-0.0423 -0.0215,7.1e-4 -0.0482,-0.004 -0.0683,-7e-4 -0.0339,0.007 -0.0675,0.0109 -0.10139,0.0173 -0.0236,0.004 -0.0366,0.009 -0.0539,0.0287 -0.0272,0.0346 -0.0525,0.0705 -0.072,0.10859 -0.0152,0.0309 -0.0423,0.0569 -0.0559,0.0906 -0.0303,0.0683 -0.0275,0.12369 -0.0173,0.19565 0.008,0.0488 0.0113,0.048 0.0187,0.0841 0,0.009 0,0.0165 0,0.0257 0.005,0.0173 0.0145,0.0309 0.0173,0.0482 0.005,0.026 0.004,0.0423 0.0159,0.0675 0.0268,0.0554 0.0353,0.13013 0.0955,0.15829 0.0226,0.0107 0.0418,0.0158 0.0641,0.0295 0.0438,0.0245 0.0935,0.0265 0.14171,0.0359 0.0532,0.0101 0.10068,0.0195 0.15166,0.0366 0.0705,0.0252 0.13014,0.069 0.19695,0.10362 0.0332,0.0179 0.0734,0.0251 0.10933,0.0374 0.031,0.0101 0.0604,0.028 0.0927,0.0381 0.0567,0.0173 0.13088,0.0188 0.18976,0.0201 0.0626,0.002 0.11945,-0.004 0.18059,-0.0144 0.0265,-0.005 0.0517,-0.0158 0.0775,-0.0215 0.0226,-0.007 0.0561,-0.004 0.0764,-0.018 0.0258,-0.0178 0.0314,-0.0265 0.0661,-0.0366 0.0762,-0.0223 0.15092,-0.0488 0.22786,-0.0683 0.0597,-0.0144 0.1143,-0.0431 0.17339,-0.0596 0.0438,-0.0123 0.0827,-0.0245 0.10841,-0.0655 0.005,-0.008 0.006,-0.0179 0.0109,-0.0237 0.01,-0.0121 0.0279,-0.0215 0.0381,-0.0322 0.0318,-0.0339 0.0698,-0.0633 0.0977,-0.0999 0.0222,-0.0289 0.0388,-0.0604 0.0547,-0.0928 0.0208,-0.041 0.0445,-0.0727 0.0517,-0.11871 0,-0.01 0,-0.0193 0,-0.028 0.004,-0.0274 0.0243,-0.0626 0.0332,-0.0871 0.0222,-0.0589 0.0339,-0.11706 0.0626,-0.17393 0.0159,-0.0295 0.0254,-0.0626 0.0423,-0.0906 0.0159,-0.0281 0.0396,-0.0561 0.0611,-0.0784 0.0229,-0.026 0.0425,-0.0517 0.0655,-0.0747 0.0554,-0.0519 0.0978,-0.12369 0.13804,-0.18774 0.0296,-0.0453 0.0503,-0.0891 0.0712,-0.13878 0.0152,-0.0366 0.0353,-0.0705 0.0639,-0.0985 0.049,-0.046 0.11282,-0.0676 0.1675,-0.10639 0.0539,-0.0366 0.11077,-0.041 0.16968,-0.0648"
       style="fill:#21201d;fill-opacity:1;fill-rule:nonzero;stroke:none;stroke-width:0.184057"
       id="path726" />
    <path
       d="m 103.68958,150.84859 c 0.0381,-0.005 0.0668,-0.0331 0.10287,-0.0353 0.0272,-0.002 0.0596,-0.002 0.0869,0.002 0.0212,0.004 0.0381,0.008 0.0598,0.007 0.01,0 0.0187,-0.001 0.0286,7.1e-4 0.0243,0.008 0.0423,0.0366 0.0712,0.0438 0.006,10e-4 0.0145,0 0.0201,0.002 0.0236,0.007 0.0438,0.0316 0.0683,0.0403 0.0123,0.005 0.0236,0.008 0.0359,0.0129 0.0219,0.0101 0.0403,0.023 0.0606,0.0331 0.0732,0.0352 0.14079,0.0626 0.22416,0.0668 0.0705,0.003 0.14248,0.007 0.2093,-0.0158 0.0611,-0.0215 0.10932,-0.0705 0.1603,-0.11062 0.0504,-0.0396 0.0999,-0.0885 0.13508,-0.1432 0.0123,-0.0201 0.0159,-0.0329 0.0152,-0.0574 l -0.14464,0.028 c -0.0473,0.001 -0.094,-0.006 -0.14009,-0.0136 -0.0374,-0.006 -0.0799,-0.0101 -0.11797,-0.0188 -0.0661,-0.0158 -0.12866,-0.0416 -0.19547,-0.0552 -0.0403,-0.007 -0.0814,-0.0116 -0.12093,-0.021 -0.0325,-0.008 -0.0626,-0.0215 -0.094,-0.0329 -0.0296,-0.0116 -0.0497,-0.0151 -0.0791,-0.0195 -0.0286,-0.004 -0.0539,-0.0144 -0.0806,-0.0193 -0.056,-0.009 -0.12224,-0.002 -0.17544,0.0121 -0.074,0.0201 -0.14446,0.0388 -0.21569,0.0683 -0.0876,0.0353 -0.1754,0.069 -0.26303,0.10289 -0.0611,0.023 -0.11299,0.0351 -0.17833,0.0344 -0.0604,-7.1e-4 -0.12075,-0.0129 -0.1791,-0.0272 -0.0236,-0.006 -0.051,-0.0166 -0.0755,-0.009 -0.0374,0.0123 -0.074,0.0475 -0.10566,0.0698 -0.0898,0.0626 -0.21001,0.0569 -0.3127,0.0302 -0.0296,-0.008 -0.0584,-0.0309 -0.0633,-0.0648 -0.005,-0.0307 0.004,-0.074 0.008,-0.10418 0.004,-0.0173 0.004,-0.0416 0.0113,-0.0567 0.0152,-0.0245 0.0526,-0.0504 0.0814,-0.0554 0.0222,-0.004 0.046,-0.001 0.0683,-0.001 0.0159,0 0.0431,-0.004 0.0589,0.001 0.004,0.0258 0,0.0554 -0.0194,0.074 -0.0261,0.0245 -0.072,0.0165 -0.095,0.0403 0.0145,0.0337 0.10291,-0.0158 0.12369,-0.0245 0.0468,-0.0208 0.0453,-0.0841 0.0453,-0.12719 0,-0.023 0.005,-0.0512 0,-0.0734 -0.012,-0.0388 -0.0446,-0.0596 -0.0732,-0.0863 -0.0268,-0.0236 -0.0418,-0.0423 -0.0742,-0.0539 -0.0258,-0.009 -0.0525,-0.0136 -0.0797,-0.0186 -0.049,-0.009 -0.0978,-0.0188 -0.14742,-0.0116 -0.0475,0.007 -0.11063,0.023 -0.13878,0.0648 -0.0166,0.0223 -0.0388,0.0418 -0.0532,0.0646 -0.0173,0.0296 -0.0318,0.0626 -0.0468,0.0928 -0.0272,0.0561 -0.0286,0.14467 -0.018,0.20578 0.004,0.0287 0.0215,0.0525 0.0243,0.0804 0.005,0.0339 0.0145,0.0626 0.0303,0.092 0.0145,0.0287 0.0346,0.0359 0.0606,0.0576 0.018,0.0158 0.0342,0.0315 0.0539,0.0468 0.0314,0.0228 0.0703,0.0423 0.10492,0.0617 0.0173,0.009 0.0346,0.0188 0.0539,0.0217 0.046,0.005 0.0913,0.009 0.1373,0.0158 0.0236,0.004 0.0431,0.004 0.0675,0.0107 0.0418,0.0123 0.0898,0.0195 0.13381,0.0188 0.071,-7.1e-4 0.13804,-0.002 0.2019,-0.0381 0.0396,-0.023 0.0841,-0.0403 0.1259,-0.0604 0.0388,-0.018 0.0784,-0.0203 0.11854,-0.0339 0.0467,-0.0173 0.0885,-0.0453 0.13747,-0.0561 0.0646,-0.0144 0.12718,-0.0329 0.19124,-0.046 0.0582,-0.0121 0.11356,-0.004 0.17174,-0.0121"
       style="fill:#21201d;fill-opacity:1;fill-rule:nonzero;stroke:none;stroke-width:0.184057"
       id="path728" />
    <path
       d="m 108.19399,149.75142 c 0.004,0.0582 -0.0116,0.11209 -0.0453,0.15958 -0.0561,0.0633 -0.11356,0.12663 -0.17043,0.18902 -0.0446,0.0583 -0.0992,0.10363 -0.16527,0.13529 -0.0591,0.0316 -0.12094,0.0574 -0.18479,0.0769 -0.0361,0.006 -0.0705,0.006 -0.10583,0.002 -0.0159,-0.004 -0.0296,0 -0.0409,0.009 l 0.24444,-0.1905 c -0.0431,0.0101 -0.0871,0.0173 -0.13088,0.028 -0.041,0.0109 -0.0799,0.0346 -0.11797,0.0534 -0.0559,0.0265 -0.11282,0.0503 -0.16602,0.0819 -0.0532,0.0324 -0.1071,0.064 -0.16104,0.097 -0.0359,0.0223 -0.0697,0.0504 -0.10566,0.0712 -0.0289,0.0158 -0.0604,0.0186 -0.0863,0.041 -0.0453,0.0374 -0.0653,0.0933 -0.0668,0.14946 0,0.0359 0.008,0.0668 0.01,0.10141 0.004,0.0683 -0.008,0.13234 -0.009,0.19989 0,0.0567 -0.0187,0.11135 -0.0187,0.16823 0,0.0351 -0.007,0.069 -0.0318,0.0985 -0.0222,0.0272 -0.0618,0.0554 -0.0935,0.0727 -0.0394,0.0223 -0.0804,0.0495 -0.12351,0.0596 -0.0201,0.005 -0.0425,0.0223 -0.0613,0.0216 -0.0293,-0.001 -0.0401,-0.0352 -0.0438,-0.0604 0.004,-0.018 0,-0.0359 -0.004,-0.0525 -0.005,-0.009 -0.01,-0.0188 -0.0131,-0.0281 -0.004,-0.0165 0,-0.0337 0,-0.0495 0,-0.0223 0,-0.0418 0.004,-0.0633 0.004,-0.0129 0.008,-0.0237 0.004,-0.0359 -0.0155,-0.004 -0.0307,0.008 -0.043,0.0166 -0.0286,0.0223 -0.0661,0.0503 -0.092,0.0762 -0.0243,0.025 -0.0468,0.0574 -0.0618,0.0891 -0.0254,0.0517 -0.012,0.12589 0.004,0.17908 0.009,0.0329 0.046,0.0639 0.0733,0.0819 0.0138,0.009 0.0275,0.0136 0.041,0.0201 0.0272,0.0123 0.0517,0.0316 0.0804,0.0403 0.031,0.009 0.0641,0.0136 0.095,0.0215 0.0303,0.008 0.0626,0.0123 0.0928,0.0166 0.0633,0.006 0.14376,0.0101 0.19989,-0.0237 0.0618,-0.0381 0.12146,-0.0784 0.12146,-0.15811 0,-0.0475 -0.004,-0.0942 0.005,-0.14172 0.0109,-0.0797 0.0236,-0.16032 0.0411,-0.24001 0.0194,-0.0913 0.0502,-0.18701 0.10933,-0.26173 0.0324,-0.0403 0.074,-0.0712 0.11208,-0.10565 0.0396,-0.0361 0.0705,-0.0705 0.11726,-0.0942 0.0755,-0.0374 0.15314,-0.072 0.22712,-0.11228 0.044,-0.023 0.0856,-0.0503 0.13014,-0.0725 0.0395,-0.0208 0.0727,-0.041 0.10858,-0.0668 0.0618,-0.0453 0.13953,-0.0821 0.18771,-0.14246 0.0547,-0.069 0.10273,-0.15884 0.12298,-0.24369 0.0145,-0.0569 0.018,-0.11357 0.0272,-0.17118 0.007,-0.0431 0.012,-0.0849 0.006,-0.12865 -0.03,0.004 -0.0194,0.0712 -0.0201,0.0856"
       style="fill:#21201d;fill-opacity:1;fill-rule:nonzero;stroke:none;stroke-width:0.184057"
       id="path730" />
    <path
       d="m 108.35281,148.68223 c -0.0416,0.0396 -0.0898,0.0697 -0.14023,0.0992 0.007,-0.007 0.013,-0.0136 0.0201,-0.0193 0.0194,-0.0173 0.046,-0.0223 0.0646,-0.0388 0.0152,-0.0121 0.0219,-0.0302 0.0388,-0.0418 0.0102,-0.007 0.0222,-0.0129 0.0346,-0.0186 -0.006,0.006 -0.0116,0.0129 -0.018,0.0193 m -3.17422,1.55088 c -0.0467,0 -0.0957,-0.004 -0.14228,0.002 -0.0375,0.005 -0.0742,0.009 -0.11229,0.006 -0.0539,-0.003 -0.10562,-0.006 -0.15956,-0.008 0,0 -0.004,-7.1e-4 -0.005,-7.1e-4 0.0265,7.1e-4 0.0525,7.1e-4 0.0789,7.1e-4 0.0554,0 0.11007,0.004 0.16475,-0.0101 0.0236,-0.006 0.046,-0.009 0.0712,-0.009 0.0388,7e-4 0.0777,-7.1e-4 0.11631,-7.1e-4 0.0648,7.1e-4 0.12887,0.0121 0.19346,0.0158 -0.0668,0.009 -0.13952,0.003 -0.2056,0.003 m -2.61563,-0.54352 c -0.0913,-0.0359 -0.17318,-0.0863 -0.25012,-0.14817 -0.0388,-0.0329 -0.0727,-0.0683 -0.11797,-0.0913 -0.012,-0.006 -0.025,-0.0136 -0.0366,-0.0201 0.0201,0.007 0.0403,0.0151 0.0604,0.023 0.0431,0.0193 0.0834,0.0403 0.12866,0.0539 0.0261,0.008 0.0532,0.0136 0.0814,0.0193 0.006,0.006 0.0127,0.0138 0.0208,0.021 0.0261,0.023 0.0589,0.0359 0.0876,0.0539 0.0539,0.0337 0.10287,0.0733 0.16327,0.0926 0.0366,0.0123 0.0734,0.0296 0.11077,0.0309 0.0423,0.001 0.0797,0.009 0.11928,0.023 0.0318,0.0116 0.0675,0.0203 0.0977,0.0317 0.0138,0.006 0.0226,0.0151 0.0361,0.0188 0.046,0.009 0.092,0.018 0.13731,0.0309 0.0201,0.004 0.0423,0.006 0.0604,0.0151 0.0201,0.009 0.0293,0.0258 0.0438,0.0409 0.0116,0.0123 0.0268,0.021 0.0425,0.0289 -0.004,10e-4 -0.006,0.002 -0.0109,0.002 0.005,0 0.0109,7.1e-4 0.0159,7.1e-4 0.006,0.004 0.012,0.007 0.0187,0.0109 0.0473,0.0252 0.0999,0.028 0.1524,0.0267 0.0113,0.003 0.0229,0.006 0.0359,0.01 -0.005,-0.004 -0.0102,-0.007 -0.0152,-0.0107 0.0166,-7.1e-4 0.0339,-0.001 0.051,-0.001 0.14964,-10e-4 0.29414,0.0351 0.44376,0.0366 0.0567,0.001 0.10989,0.004 0.16601,0.009 0.0503,0.004 0.0992,-0.004 0.14817,-7e-4 0.0438,0.003 0.0862,0.0245 0.12792,0.0374 0.046,0.0144 0.0943,0.0237 0.14227,0.0316 0.0396,0.006 0.0799,0.003 0.11945,0.006 0.0769,0.007 0.15314,0.007 0.22934,0.007 0.1905,-7e-4 0.37751,0 0.5636,-0.0453 0.049,-0.0114 0.0927,-0.026 0.13674,-0.049 0.0438,-0.0215 0.071,-0.048 0.10417,-0.0768 -0.0116,0.001 -0.0236,0.003 -0.0366,0.005 -0.0296,0.006 -0.0547,0.0114 -0.0848,0.0114 -0.0159,0 -0.0332,-0.002 -0.0475,7.1e-4 -0.012,0.003 -0.0201,0.008 -0.0325,0.009 -0.0106,0 -0.0215,-0.002 -0.0318,-7e-4 -0.0173,0.001 -0.0335,0.009 -0.051,0.009 -0.0388,0.001 -0.0747,0.006 -0.11356,0.0121 -0.0361,0.006 -0.0742,0.018 -0.11007,0.0215 -0.0812,0.0101 -0.16824,0.002 -0.25086,0.002 h -0.13455 c -0.0488,0 -0.0955,-0.009 -0.14376,-0.009 -0.0416,0 -0.0848,0 -0.12643,0 -0.10933,0 -0.21297,-0.0201 -0.31934,-0.0517 -0.0604,-0.0186 -0.12298,-0.0396 -0.18609,-0.046 -0.0303,-0.004 -0.0526,-0.0114 -0.0821,-0.0178 -0.0596,-0.0131 -0.12368,-0.001 -0.1826,-0.0195 -0.0819,-0.026 -0.16746,-0.0309 -0.25234,-0.0418 -0.0467,-0.006 -0.0942,-0.004 -0.13949,-0.0179 -0.0236,-0.007 -0.0475,-0.0123 -0.0713,-0.0158 -0.025,-0.0158 -0.0495,-0.0324 -0.0747,-0.051 -0.0381,-0.0302 -0.074,-0.0561 -0.11722,-0.0791 -0.0517,-0.028 -0.11138,-0.0359 -0.16105,-0.069 -0.0113,-0.007 -0.0222,-0.0166 -0.0321,-0.026 -0.004,-0.002 -0.005,-0.006 -0.006,-0.008 -0.004,-0.009 0,-0.023 0,-0.0322 0,-0.021 -0.004,-0.0316 -0.0113,-0.0497 -0.007,-0.0188 -0.006,-0.0331 -0.006,-0.0532 0,-0.0445 -0.009,-0.0848 -0.031,-0.12368 -0.0173,-0.0302 -0.0433,-0.0582 -0.0561,-0.0913 -0.0243,-0.069 -0.0152,-0.15092 -0.0475,-0.21792 -0.006,-0.0114 0,-0.003 -0.01,-0.0144 -0.01,-0.01 -0.0275,-0.0136 -0.0381,-0.0215 -0.0152,-0.0109 -0.0261,-0.0215 -0.0268,-0.0403 -0.004,-0.0237 0.0102,-0.0524 0.0102,-0.0769 0,-0.0193 0,-0.0388 0,-0.0582 0,-0.0697 -0.004,-0.13878 0,-0.2078 0,-0.0316 0.004,-0.0675 0.01,-0.0992 0.005,-0.0201 0.0159,-0.0352 0.0201,-0.0561 0.008,-0.0409 0.012,-0.0834 0.0173,-0.12498 0.007,-0.0591 0.0222,-0.11945 0.0366,-0.17761 0.0138,-0.0512 0.0272,-0.0814 0.0633,-0.12148 0.0328,-0.0381 0.0653,-0.0791 0.1027,-0.11228 0.0138,-0.0129 0.0201,-0.0193 0.0275,-0.0388 0.0159,-0.0423 0.0127,-0.0985 0,-0.14228 -0.006,-0.0188 -0.0208,-0.0324 -0.0236,-0.0525 0,-0.0138 0.004,-0.0296 0.007,-0.0425 0.0152,-0.0762 0.0445,-0.14945 0.10492,-0.19988 0.005,-0.004 0.01,-0.007 0.0127,-0.0107 0.007,-0.002 0.0145,-0.004 0.0212,-0.007 0.0567,-0.0164 0.10343,-0.0438 0.15808,-0.0668 0.0834,-0.0359 0.16623,-0.0733 0.24885,-0.11135 0.0208,-0.009 0.046,-0.018 0.0661,-0.0302 0.0102,-0.005 0.018,-0.0109 0.0275,-0.0173 0.006,-7e-4 0.012,-10e-4 0.018,-0.004 0.01,-0.003 0.0453,-0.0215 0.0425,-0.0208 0.0328,-0.0129 0.071,-0.023 0.10269,-0.0416 0.004,0 0.004,-0.002 0.004,-0.002 0.0208,-0.005 0.0416,-0.007 0.0618,-0.0151 0.012,-0.006 0.0222,-0.0109 0.0342,-0.0144 0.0863,-0.0252 0.1747,-0.0403 0.26247,-0.0497 0.0346,-0.004 0.0676,-0.0129 0.0999,-0.023 0.0955,0.002 0.19272,0.002 0.28896,-0.002 0.0532,-0.002 0.0965,-0.007 0.14817,0.002 0.0547,0.009 0.11006,0.009 0.16457,0.0202 0.0633,0.0114 0.12238,0.0315 0.18478,0.0409 0.0648,0.009 0.12221,0.0388 0.1813,0.0648 0.0611,0.0265 0.11927,0.0295 0.1833,0.028 0.16178,-0.001 0.32928,0.004 0.48814,0.0359 0.12866,0.0267 0.25453,0.067 0.38319,0.0935 0.0784,0.0166 0.15462,0.0339 0.2286,0.0626 0.0159,0.009 0.0332,0.0173 0.049,0.0267 0.0318,0.0179 0.0611,0.0329 0.0928,0.0517 0.069,0.0431 0.13582,0.0863 0.19417,0.14375 0.0243,0.0252 0.0488,0.0618 0.0626,0.0942 0.0162,0.0388 0.008,0.0891 0.008,0.13087 0,0.025 0.004,0.0502 0,0.0747 0,0.0144 -0.004,0.0136 -0.009,0.0267 -0.013,0.0351 -0.0236,0.079 -0.018,0.11632 0.008,0.0468 0.0403,0.0806 0.0675,0.11798 0.0332,0.0468 0.0633,0.0898 0.0856,0.14375 0.0187,0.0475 0.0367,0.0957 0.0525,0.14522 0.0254,0.0769 0.0346,0.15903 0.0562,0.23799 0.0113,0.0468 0.0303,0.0906 0.0423,0.13657 0.0159,0.0611 0.0222,0.11448 0.0222,0.17614 0,0.0856 -0.018,0.16842 -0.0359,0.25106 -0.006,0.0302 -0.0173,0.0574 -0.0265,0.0841 -0.0243,0.0186 -0.0504,0.0381 -0.0769,0.0503 -0.0229,0.0109 -0.0403,0.0158 -0.0605,0.0317 -0.0775,0.0683 -0.13861,0.15313 -0.22214,0.2135 -0.0532,0.0381 -0.10841,0.0676 -0.16955,0.09 -0.025,0.008 -0.0497,0.0186 -0.0734,0.0295 -0.0641,0.0309 -0.11853,0.0718 -0.18757,0.0935 -0.044,0.0144 -0.0878,0.0315 -0.13233,0.0401 -0.0254,0.005 -0.0504,0.005 -0.0762,0.008 -0.041,0.006 -0.0784,0.0173 -0.12076,0.0165 -0.0368,-7e-4 -0.0756,-0.005 -0.11151,0.004 -0.0236,0.006 -0.046,0.0107 -0.0705,0.0144 -0.0395,0.004 -0.0633,0.0121 -0.094,0.0381 -0.007,0.006 -0.0123,0.0114 -0.0187,0.0173 0.0102,-7.1e-4 0.0201,-0.001 0.0303,-0.001 0.008,0 0.0325,-0.004 0.0388,0.001 0.012,0.01 -0.004,0.0381 -0.006,0.0473 -0.0138,0.0425 -0.0219,0.10068 -0.0598,0.12663 -0.0272,0.0179 -0.0559,0.0252 -0.0891,0.0309 -0.0495,0.008 -0.0999,0.0223 -0.15018,0.0295 -0.10509,0.018 -0.20708,0.0173 -0.31291,0.018 -0.0906,7.1e-4 -0.18038,-0.0109 -0.27019,-0.0188 -0.0712,-0.006 -0.14171,-0.0151 -0.21294,-0.018 -0.048,-0.003 -0.10199,-0.004 -0.14799,-0.0151 -0.12442,-0.0287 -0.24589,-0.0646 -0.37454,-0.0653 -0.0648,-7e-4 -0.13163,-0.001 -0.1964,-0.0116 -0.0633,-0.009 -0.12442,-0.0237 -0.18827,-0.0302 -0.0633,-0.006 -0.12866,-0.004 -0.19273,-0.0144 -0.0293,-0.006 -0.0569,-0.0144 -0.0856,-0.023 0.012,0.0109 0.0208,0.026 0.0222,0.0497 -0.0502,0.009 -0.10069,0.0193 -0.1524,0.0258 -0.0648,0.009 -0.12147,-0.002 -0.18257,-0.0201 -0.0446,-0.0136 -0.0762,-0.0346 -0.1143,-0.0582 -0.0411,-0.0267 -0.0885,-0.0455 -0.13162,-0.0663 -0.1452,-0.069 -0.28822,-0.14596 -0.43861,-0.20559 m -1.00788,-0.88642 c 0.004,7e-4 0.007,0.003 0.01,0.005 0.004,0.006 0.005,0.0114 0.007,0.0173 0,-7e-4 0,-10e-4 -0.004,-0.002 -0.005,-0.005 -0.0102,-0.0116 -0.0152,-0.0201 m 2.35741,-1.7745 c -0.0222,0.009 -0.0446,0.018 -0.0668,0.0267 0.008,-0.005 0.0145,-0.0101 0.0215,-0.0138 0.008,-0.004 0.0272,-0.009 0.0453,-0.0129 m 0.14742,-0.0525 c -0.01,0.004 -0.0194,0.007 -0.0293,0.01 0.004,-0.003 0.008,-0.006 0.0145,-0.008 0.005,-7.1e-4 0.0102,-0.001 0.0152,-0.002 m -0.70823,0.19988 c 0.0229,-0.0151 0.046,-0.0353 0.072,-0.044 0.0431,-0.003 0.0863,-0.004 0.12937,-0.002 h 0.0173 c -0.0215,0.01 -0.0425,0.0151 -0.0675,0.0215 -0.0504,0.0109 -0.10069,0.018 -0.1511,0.0245 m -1.29907,0.66795 0.0194,-0.0641 c 0.0116,-0.007 0.0236,-0.0136 0.0353,-0.0193 -0.018,0.028 -0.0361,0.056 -0.0546,0.0834 m 0.68725,-0.0519 c -0.01,0.026 -0.0236,0.0547 -0.0396,0.0762 -0.046,0.0663 -0.13236,0.10068 -0.14598,0.18921 -0.006,0.0416 0.0254,0.0567 0.0361,0.0928 0.006,0.023 0,0.0547 -0.005,0.0769 -0.004,0.0287 -0.008,0.0604 -0.0166,0.0891 -0.01,0.0331 -0.0243,0.0604 -0.0229,0.0957 0.005,0.0854 0.0123,0.17173 0.0173,0.25879 0,0.0208 0.0109,0.0797 0,0.0985 -0.0113,0.0188 -0.0453,0.0129 -0.0547,0.0302 -0.004,0.004 0,0.0287 0,0.0346 0,0.0179 0.008,0.0302 0.0138,0.0473 0.007,0.0202 0.006,0.0388 0.0138,0.0583 0.0173,0.046 0.018,0.0848 0.0552,0.11706 0.0194,0.0173 0.046,0.0353 0.0562,0.0605 0.0138,0.0359 0.012,0.0992 0,0.13584 0,0.004 -0.004,0.005 -0.004,0.008 -0.0173,-0.006 -0.0346,-0.0109 -0.0517,-0.0151 0,-0.001 -0.004,-0.004 -0.005,-0.006 -0.0145,-0.0188 -0.0324,-0.0237 -0.0503,-0.0368 -0.0611,-0.046 -0.1373,-0.0639 -0.1912,-0.12 -0.0194,-0.0193 -0.0201,-0.0445 -0.0243,-0.0698 -0.009,-0.0475 -0.0268,-0.095 -0.0396,-0.14154 -0.005,-0.0203 -0.0159,-0.0282 -0.0229,-0.046 -0.0109,-0.0252 0.0194,0.008 -0.0113,-0.0376 -0.0187,-0.0258 -0.041,-0.0466 -0.0626,-0.0696 v -0.0698 c 0,-0.0784 -0.0116,-0.1662 0.018,-0.24166 0.0173,-0.0431 0.0282,-0.0913 0.0346,-0.13731 0.004,-0.0193 0,-0.0374 0.006,-0.0561 0.0127,-0.0337 0.0303,-0.0624 0.0388,-0.0985 0.006,-0.0272 0.0152,-0.0488 0.0236,-0.0733 0.006,-0.0151 0.0173,-0.0281 0.0243,-0.0425 0.007,-0.0166 0.004,-0.0309 0.01,-0.0468 0.005,-0.0107 0.0145,-0.0193 0.0194,-0.0295 0.004,-0.009 0.004,-0.0144 0.008,-0.0245 0.004,-0.01 0.0113,-0.0201 0.0166,-0.0302 0.009,-0.0215 0.0201,-0.0431 0.0279,-0.0661 0.004,-0.009 0.006,-0.0208 0.007,-0.0317 0.0777,-0.0396 0.15166,-0.0876 0.22638,-0.13013 0.0403,-0.0237 0.0663,-0.046 0.0856,-0.0876 0.0116,-0.0224 0.0275,-0.0368 0.0418,-0.0569 0.0138,-0.0173 0.0236,-0.0346 0.0423,-0.0475 0.007,-0.006 0.0152,-0.0101 0.0229,-0.0144 0.0215,-0.004 0.0418,-0.007 0.0633,-0.009 -0.0215,0.0237 -0.0431,0.0475 -0.0633,0.072 -0.0215,0.0257 -0.051,0.0482 -0.0676,0.0777 -0.0243,0.0431 -0.0243,0.0762 -0.0236,0.12295 0,0.0316 0.005,0.0639 -0.006,0.0941 m 0.0482,-0.52125 c 0.10142,-0.0624 0.20983,-0.11135 0.30847,-0.17964 0.0503,-0.0353 0.0926,-0.069 0.15169,-0.092 0.0546,-0.0223 0.10488,-0.0504 0.15882,-0.0712 0.0769,-0.0302 0.14669,-0.0725 0.2207,-0.10638 0.0268,-0.0121 0.0576,-0.0136 0.0863,-0.0201 0.0251,-0.005 0.0482,-0.013 0.0712,-0.0195 0.0335,-0.0101 0.0697,-0.0223 0.10269,-0.0317 0.0361,-0.009 0.0777,0.0101 0.11229,-7e-4 0.008,-10e-4 0.009,-0.008 0.018,-0.009 0.0311,-0.007 0.0611,7e-4 0.092,-0.0138 0.006,-0.006 0.0138,-0.0107 0.0222,-0.0136 0.0102,0.004 0.0201,0.002 0.03,-0.004 0.0388,-0.0138 0.0656,-0.0425 0.10509,-0.0554 0.0453,-0.0151 0.0769,-0.0309 0.12298,-0.0309 0.0381,0 0.0826,0.006 0.11998,-0.001 0.046,-0.0101 0.0885,-0.0215 0.13455,-0.028 0.0718,-0.009 0.14598,-0.005 0.21922,-0.007 0.0517,-7e-4 0.10639,0.009 0.15737,0.0186 0,7.1e-4 0.004,7.1e-4 0.004,7.1e-4 0.004,-0.004 0.005,-0.008 0.0127,-0.0107 0.0194,-0.007 0.0677,0.0121 0.0828,0.0151 0.0243,0.005 0.0438,0.003 0.0683,0.006 0.0661,0.006 0.1294,0.0129 0.19399,0.0265 0.0569,0.013 0.11299,0.0339 0.16824,0.0512 0.031,0.01 0.0569,0.0329 0.087,0.046 0.031,0.0129 0.0712,0.0201 0.1029,0.0316 0.0445,0.0158 0.0898,0.023 0.1329,0.0423 0.041,0.018 0.0814,0.028 0.12442,0.0366 0.004,0.001 0.007,0.004 0.0116,0.004 0.0401,0.0136 0.0797,0.028 0.12076,0.0381 0.006,0.003 0.0131,0.005 0.0194,0.007 0.0102,0.003 0.0194,0.004 0.0293,0.005 0.007,0.001 0.013,0.003 0.0208,0.004 0.0453,0.006 0.0884,0.0186 0.13289,0.0302 0.0173,0.004 0.0346,0.006 0.0519,0.009 0.004,0.001 0.006,0.001 0.01,0.003 0.018,0.007 0.0368,0.0144 0.0554,0.0223 0.0303,0.0195 0.0569,0.0433 0.0906,0.0596 0.025,0.0131 0.0425,0.0238 0.0697,0.0274 0.004,0 0.006,7e-4 0.01,7e-4 0.01,0.008 0.0201,0.0136 0.0303,0.0193 0.0194,0.0109 0.041,0.0166 0.0618,0.0238 0.0381,0.0151 0.0784,0.026 0.11797,0.0396 -0.0403,-0.004 -0.0806,-0.0116 -0.11723,-0.0223 -0.0396,-0.0109 -0.0755,-0.018 -0.1143,-0.0274 -0.0792,-0.0179 -0.15166,-0.0567 -0.23008,-0.0755 -0.0618,-0.0158 -0.12735,-0.0223 -0.18976,-0.0344 -0.0885,-0.018 -0.17487,-0.041 -0.2632,-0.0583 -0.0532,-0.01 -0.092,-0.023 -0.13879,-0.0473 -0.0166,-0.009 -0.0332,-0.0165 -0.0504,-0.023 -0.004,-0.005 -0.009,-0.009 -0.0152,-0.0138 -0.031,-0.0129 -0.0502,0.0324 -0.0676,0.0512 -0.0935,-0.0195 -0.17466,-0.0655 -0.25876,-0.10859 -0.0518,-0.026 -0.10347,-0.0517 -0.16108,-0.0525 -0.0653,-7e-4 -0.12936,-0.0138 -0.19417,-0.018 -0.0272,-0.001 -0.0532,7e-4 -0.0804,-0.004 -0.15533,-0.0289 -0.31344,-0.0519 -0.47247,-0.041 -0.13364,0.009 -0.263,0.0848 -0.37529,0.15461 -0.0676,0.0416 -0.13931,0.0482 -0.2135,0.0718 -0.0335,0.0109 -0.0661,0.0289 -0.0999,0.041 -0.0296,0.0109 -0.0582,0.009 -0.0883,0.0173 -0.0243,0.006 -0.0525,0.0158 -0.0762,0.0252 -0.0261,0.0114 -0.0374,0.0329 -0.0576,0.048 -0.0374,0.0282 -0.10936,0.0403 -0.15462,0.0425 -0.0127,0 -0.0265,-0.002 -0.0394,-0.004 -0.0219,-0.003 -0.0447,-0.0114 -0.067,-0.006 -0.0272,0.007 -0.0495,0.0173 -0.079,0.018 -0.0433,7.1e-4 -0.0633,-7e-4 -0.10068,0.0179 -0.0116,0.005 -0.0236,0.009 -0.0353,0.0151 -0.0359,0.0158 -0.0676,0.0403 -0.10199,0.0583 -0.0368,0.0193 -0.0705,0.0445 -0.10584,0.0676 -0.0215,0.009 -0.0445,0.0136 -0.0668,0.023 -0.0194,0.008 -0.0403,0.0252 -0.0589,0.0403 -0.0116,0.004 -0.0222,0.009 -0.0332,0.0136 0.0208,-0.0129 0.0425,-0.028 0.064,-0.0418 m 4.93935,0.2783 c 0.009,0.009 0.0187,0.0173 0.0279,0.0267 0.0102,0.008 0.0215,0.0143 0.0317,0.0215 -0.0453,-0.0203 -0.0898,-0.0438 -0.13307,-0.0683 0,-0.004 -0.004,-0.005 -0.004,-0.008 0.008,0.004 0.0159,0.009 0.0244,0.0129 0.0169,0.006 0.0346,0.0116 0.0532,0.0151 m -0.45942,0.11798 c -0.009,-0.023 -0.018,-0.0468 -0.0289,-0.0698 0.0411,0.0129 0.0834,0.0265 0.12517,0.0403 0.0502,0.0158 0.0992,0.0329 0.14965,0.0495 0.009,0.005 0.0138,0.0116 0.0138,0.023 0.0137,0.026 0.0201,0.0561 0.0264,0.0834 0.018,0.0821 0.0525,0.14964 0.09,0.22437 0.0194,0.0359 0.046,0.0683 0.0604,0.10712 0.0106,0.028 0.0152,0.0589 0.0236,0.0871 0.008,0.0243 0.0201,0.0473 0.0272,0.0718 0,0.006 0.004,0.0123 0.004,0.018 -0.0258,0.028 -0.0582,0.0653 -0.0676,0.10141 -0.012,0.0453 -0.004,0.10712 -0.004,0.15516 0,0.0165 0,0.0339 0,0.0512 0,0.0237 0.009,0.0438 0.01,0.0676 0.004,0.10215 -0.007,0.19915 -0.0162,0.29909 -0.004,0.0359 -0.0152,0.0653 -0.0194,0.10069 0,0.0121 -0.004,0.0223 -0.006,0.0302 -0.0286,0.007 -0.0569,0.0158 -0.0806,0.0309 -0.0159,0.0101 -0.0293,0.0193 -0.0467,0.0272 -0.012,0.006 -0.0257,0.009 -0.0394,0.0138 0.0138,-0.0252 0.025,-0.0504 0.0328,-0.0784 0.0116,-0.0445 0.0138,-0.0762 0.006,-0.12222 -0.008,-0.0425 -0.0116,-0.0813 -0.0116,-0.12516 0,-0.0374 -0.018,-0.069 -0.0254,-0.10491 -0.0113,-0.0554 -0.0222,-0.11228 -0.031,-0.16749 -0.006,-0.0433 -0.0229,-0.0828 -0.0251,-0.1259 -0.004,-0.0351 0,-0.0705 0,-0.10565 0,-0.0331 -0.008,-0.0569 -0.0145,-0.0878 -0.008,-0.0344 0.007,-0.0324 -0.0173,-0.0639 -0.0396,-0.0512 -0.095,-0.0878 -0.13804,-0.13381 -0.0102,-0.0109 -0.0212,-0.0201 -0.0254,-0.0324 -0.0113,-0.0265 -0.008,-0.0547 0.01,-0.0762 0.0236,-0.0295 0.0525,-0.0653 0.0589,-0.10344 0.0109,-0.0598 -0.0194,-0.13013 -0.0416,-0.1848 m 0.87429,0.31622 c 0.0394,0.0123 0.0782,0.0368 0.11854,0.0455 0.025,0.005 0.0497,0.004 0.0755,0.0136 0.046,0.0173 0.0885,0.0453 0.13526,0.0626 0.0145,0.005 0.0279,0.01 0.0423,0.0136 h -0.0876 c -0.0482,0 -0.0986,0.005 -0.14468,-0.008 -0.0933,-0.026 -0.15737,-0.0957 -0.21995,-0.16676 0.0254,0.0158 0.0497,0.0309 0.0806,0.0394 m 0.61602,0.25382 c -0.004,-0.006 -0.0106,-0.0121 -0.0145,-0.0201 -0.007,-0.0144 -0.007,-0.0294 -0.0187,-0.0431 -0.0166,-0.0195 -0.0482,-0.0302 -0.0712,-0.0381 -0.004,-7e-4 -0.004,-10e-4 -0.006,-10e-4 -0.005,-0.007 -0.0109,-0.013 -0.018,-0.0158 -0.004,-7e-4 -0.01,-7e-4 -0.0152,-0.001 -0.004,-0.002 -0.005,-0.006 -0.008,-0.007 -0.0502,-0.0502 -0.12001,-0.0913 -0.18404,-0.12368 -0.0495,-0.0237 -0.097,-0.0561 -0.14598,-0.0849 0.0116,0.0101 0.0229,0.0188 0.0346,0.0267 0.004,0 0.008,7e-4 0.0113,0.002 0.004,0.005 0.006,0.0101 0.01,0.0158 0.0346,0.0447 0.0942,0.0532 0.1373,0.0734 l 0.12146,0.0977 v 0 c -0.0215,-0.006 -0.0438,-0.0114 -0.0654,-0.0173 -0.0497,-0.0136 -0.0806,-0.0475 -0.12019,-0.0755 -0.0466,-0.0331 -0.10047,-0.0589 -0.14446,-0.0963 -0.009,-0.008 -0.0173,-0.0166 -0.0272,-0.0237 -0.0453,-0.0339 -0.0898,-0.0755 -0.13236,-0.1143 -0.0106,-0.0109 -0.0187,-0.0203 -0.0279,-0.0309 0.0353,0.0129 0.0668,0.0381 0.0977,0.0626 -0.005,-0.004 -0.008,-0.009 -0.0127,-0.0145 -0.0222,-0.025 -0.049,-0.0466 -0.0698,-0.074 -0.0762,-0.095 -0.18256,-0.15811 -0.26391,-0.24866 -0.0138,-0.0151 -0.0257,-0.0339 -0.0431,-0.0447 -0.009,-0.006 -0.0194,-0.009 -0.0303,-0.0171 -0.0366,-0.0316 -0.069,-0.0633 -0.10142,-0.0992 -0.0173,-0.0195 -0.0359,-0.0346 -0.0525,-0.0534 -0.0102,-0.009 -0.0123,-0.0208 -0.0201,-0.0307 -0.01,-0.0116 -0.0265,-0.0158 -0.0394,-0.0245 -0.0123,-0.009 -0.0212,-0.0203 -0.0339,-0.0289 -0.0109,-0.006 -0.0261,-0.008 -0.0366,-0.0144 -0.0388,-0.0193 -0.0655,-0.0171 -0.10491,-0.0237 -0.0243,-0.004 -0.0467,-0.0164 -0.0705,-0.0215 -0.0159,-0.004 -0.031,-0.005 -0.0475,-0.009 0,-0.001 -0.004,-0.004 -0.006,-0.005 -0.0229,-0.0143 -0.0403,-0.0403 -0.0633,-0.0532 -0.0525,-0.028 -0.10933,-0.049 -0.16475,-0.0727 -0.0286,-0.0129 -0.0546,-0.028 -0.0856,-0.0351 -0.0487,-0.009 -0.0847,-0.0316 -0.12792,-0.0539 -0.0293,-0.0144 -0.0653,-0.0193 -0.0948,-0.0381 -0.0447,-0.028 -0.10065,-0.0423 -0.15385,-0.0547 -0.0236,-0.004 -0.046,-0.0114 -0.0683,-0.0238 -0.01,-0.007 -0.0194,-0.0143 -0.0289,-0.0208 -0.0229,-0.0109 -0.0481,-0.0136 -0.0733,-0.0287 -0.0604,-0.0346 -0.11998,-0.0677 -0.18182,-0.0985 -0.0418,-0.021 -0.0878,-0.0296 -0.13089,-0.0361 -0.0467,-0.006 -0.0927,0.001 -0.13878,-0.0107 -0.0663,-0.0188 -0.13599,-0.044 -0.20429,-0.0554 -0.0631,-0.009 -0.12644,-0.028 -0.19124,-0.0339 -0.051,-0.004 -0.10344,7.1e-4 -0.15459,-0.0114 -0.0346,-0.008 -0.0631,-0.0274 -0.097,-0.0403 -0.0856,-0.0344 -0.16821,0.0151 -0.25658,0.0144 -0.11081,-0.002 -0.22013,0.009 -0.33073,0.008 -0.1294,-7e-4 -0.25954,0 -0.38985,-7e-4 -0.0891,0 -0.19251,7e-4 -0.28032,0.0208 -0.0166,0.004 -0.0339,0.0109 -0.0489,0.0166 -0.0453,0.0144 -0.0926,0.0188 -0.13861,0.0237 -0.046,0.004 -0.0885,0.006 -0.12883,0.0287 -0.0626,0.0339 -0.12647,0.0633 -0.19198,0.0915 -0.10344,0.0453 -0.21774,0.069 -0.32706,0.0963 -0.0812,0.0201 -0.16031,0.0431 -0.23008,0.0935 -0.0303,0.0208 -0.0546,0.0482 -0.0812,0.0733 -0.0353,0.0346 -0.069,0.0591 -0.10784,0.0871 -0.0418,0.0302 -0.0784,0.0641 -0.11155,0.10418 -0.0396,0.049 -0.0812,0.0964 -0.1222,0.14449 -0.0554,0.0633 -0.1408,0.0979 -0.2056,0.15258 -0.0173,0.008 -0.0332,0.0193 -0.0504,0.0302 -0.0138,0.009 -0.0346,0.0129 -0.0438,0.0265 -0.0106,0.0123 -0.01,0.0309 -0.0145,0.0453 -0.0145,0.002 -0.0353,0 -0.0403,0.0173 0.0138,0.0208 -0.0353,0.0445 -0.048,0.0554 -0.0368,0.0287 -0.069,0.0646 -0.10439,0.0935 -0.0208,0.0158 -0.0286,0.0316 -0.0416,0.0559 -0.046,0.0871 -0.0821,0.18204 -0.14961,0.25529 -0.0215,0.023 -0.0503,0.0381 -0.0705,0.0618 -0.0152,0.0188 -0.031,0.0388 -0.0473,0.0589 -0.008,0.004 -0.0159,0.008 -0.0226,0.0138 -0.0106,0.0136 -0.0215,0.0258 -0.0335,0.0381 -0.0116,0.008 -0.0236,0.0164 -0.0359,0.0236 -0.0388,0.0267 -0.0757,0.0561 -0.11155,0.0856 -0.0264,0.021 -0.0388,0.0361 -0.0561,0.0626 -0.0145,0.0208 -0.0339,0.0316 -0.0503,0.0482 -0.005,0.003 -0.008,0.006 -0.0138,0.009 -0.005,0.008 -0.0102,0.0114 -0.0173,0.0114 0,7.1e-4 0.004,0.001 0.004,0.002 -0.006,0.004 -0.0131,0.008 -0.0194,0.008 -0.004,0.005 -0.004,0.0107 -0.004,0.0158 -0.0381,0.0223 -0.0841,0.0258 -0.12587,0.0331 -0.0346,0.006 -0.0683,0.005 -0.10364,0.005 -0.004,0 -0.0394,-0.005 -0.0453,0 -0.0127,0.0101 -0.004,0.051 0,0.0653 0.006,0.0195 0.008,0.046 0.0219,0.0626 0.008,0.0101 0.0346,0.0223 0.0453,0.0267 0.0321,0.0114 0.0683,0.01 0.10047,0.0193 0.0226,0.006 0.044,0.0158 0.0656,0.023 0.0109,0.004 0.0208,0.006 0.0318,0.0101 0.018,0.009 0.0265,0.023 0.0403,0.0351 0.012,0.0101 0.0279,0.0151 0.0409,0.0267 0.0268,0.0245 0.0591,0.0409 0.0913,0.0604 0.008,0.006 0.0187,0.0109 0.0282,0.0143 0.007,0.0195 0.013,0.0388 0.0173,0.0633 0.005,0.0272 0.007,0.0331 0.0187,0.0554 0.0113,0.0186 0.0208,0.0381 0.0303,0.0574 0.004,0.0188 0.006,0.0374 0.012,0.0539 0.0109,0.0359 0.0145,0.0863 0.0388,0.11503 0.0145,0.0173 0.0453,0.0295 0.0641,0.0438 0.0166,0.0123 0.0324,0.0223 0.0475,0.0346 0.008,0.0144 0.0152,0.0287 0.0265,0.0396 0.0116,0.0114 0.0268,0.0178 0.0396,0.0295 0.0296,0.0265 0.0576,0.0633 0.0821,0.0948 0.0339,0.041 0.071,0.0742 0.11504,0.10141 0.046,0.0287 0.0926,0.0561 0.13508,0.09 0.051,0.0394 0.0985,0.0804 0.15388,0.11356 0.0381,0.0208 0.0668,0.0396 0.10143,0.0675 0.031,0.0265 0.0611,0.0532 0.0977,0.0733 0.0416,0.0237 0.0804,0.0519 0.12075,0.0784 0.0425,0.0287 0.0898,0.0504 0.13085,0.0819 0.0236,0.0203 0.0497,0.0353 0.0784,0.0475 0.0388,0.0173 0.0819,0.0202 0.12072,0.0361 0.006,0.008 0.0124,0.0151 0.0201,0.0193 0.0383,0.023 0.10142,0.0381 0.14891,0.0381 0.0303,7e-4 0.0641,-0.005 0.0942,10e-4 0.0812,0.0151 0.15389,0.0547 0.23157,0.0769 0.0841,0.023 0.17099,0.0337 0.25379,0.0567 0.0517,0.0145 0.0977,0.0361 0.15165,0.044 0.0475,0.002 0.0941,0.009 0.13953,0.0223 0.0272,0.008 0.0538,0.0144 0.0804,0.0216 0.0482,0.0129 0.097,0.0158 0.14598,0.0129 0.0569,0 0.11427,0.004 0.17117,0.0138 0.19325,0.0186 0.39038,0.0381 0.58438,0.048 0.0526,0.003 0.10435,0.004 0.15681,0.002 0.0517,-0.001 0.10142,-0.0165 0.15314,-0.0215 0.0841,-0.009 0.15532,-0.0366 0.23576,-0.0618 0.0604,-0.0188 0.11797,-0.0346 0.17688,-0.0576 0.0512,-0.0193 0.0992,-0.0243 0.15314,-0.0337 0.0475,-0.009 0.0913,-0.0245 0.13952,-0.026 0.069,-0.003 0.13085,-0.0121 0.19693,-0.0265 0.0519,-0.0109 0.10713,-0.0245 0.15977,-0.0281 0.0775,-0.005 0.15882,-0.009 0.23428,-0.0337 0.074,-0.0223 0.13437,-0.0705 0.2021,-0.10289 0.0468,-0.0223 0.0928,-0.0366 0.13731,-0.0633 0.0582,-0.0351 0.12001,-0.0653 0.18259,-0.0935 0.0431,-0.0193 0.0863,-0.0322 0.12443,-0.0604 0.048,-0.0337 0.079,-0.0762 0.11133,-0.12423 0.0396,-0.0584 0.0698,-0.12167 0.1064,-0.18204 0.0275,-0.0401 0.0547,-0.0812 0.0806,-0.12368 0.005,-0.0114 0.0113,-0.0223 0.0173,-0.0337 0.0611,-0.0525 0.12224,-0.10437 0.19918,-0.13308 0.0335,-0.0121 0.0638,-0.0258 0.0962,-0.0445 0.0475,-0.026 0.0812,-0.0698 0.12665,-0.0985 0.10195,-0.0641 0.18754,-0.14964 0.2781,-0.22934 0.0361,-0.0316 0.0662,-0.0698 0.10068,-0.10436 0.0229,-0.0208 0.0411,-0.0409 0.0569,-0.0683 0.0208,-0.0344 0.0503,-0.0618 0.0698,-0.0985 0.0279,-0.0517 0.0697,-0.0906 0.10269,-0.13878 0.007,-0.01 0.0109,-0.0252 0.0173,-0.0366 -0.006,0.005 -0.0138,0.009 -0.0215,0.0143 -0.008,0.008 -0.0166,0.0158 -0.0236,0.0238 0.0102,-0.0136 0.0208,-0.026 0.0318,-0.0396 0.018,-0.0215 0.0388,-0.0366 0.0639,-0.0475 0.0353,-0.0164 0.064,-0.0438 0.0915,-0.0718 0.018,-0.0203 0.0145,-0.0366 0.004,-0.0512"
       style="fill:#21201d;fill-opacity:1;fill-rule:nonzero;stroke:none;stroke-width:0.184057"
       id="path732" />
  </g>
</svg>
