<?xml version="1.0" encoding="UTF-8" standalone="no"?>
<!-- Created with Inkscape (http://www.inkscape.org/) -->

<svg
   width="6.1140671mm"
   height="7.5615988mm"
   viewBox="0 0 6.1140671 7.5615988"
   version="1.1"
   id="svg3311"
   inkscape:version="1.1.2 (0a00cf5339, 2022-02-04)"
   sodipodi:docname="z18.svg"
   xmlns:inkscape="http://www.inkscape.org/namespaces/inkscape"
   xmlns:sodipodi="http://sodipodi.sourceforge.net/DTD/sodipodi-0.dtd"
   xmlns="http://www.w3.org/2000/svg"
   xmlns:svg="http://www.w3.org/2000/svg">
  <sodipodi:namedview
     id="namedview3313"
     pagecolor="#ffffff"
     bordercolor="#666666"
     borderopacity="1.0"
     inkscape:pageshadow="2"
     inkscape:pageopacity="0.0"
     inkscape:pagecheckerboard="0"
     inkscape:document-units="mm"
     showgrid="false"
     inkscape:zoom="0.64052329"
     inkscape:cx="10.928564"
     inkscape:cy="14.831623"
     inkscape:window-width="2560"
     inkscape:window-height="1376"
     inkscape:window-x="0"
     inkscape:window-y="0"
     inkscape:window-maximized="1"
     inkscape:current-layer="layer1" />
  <defs
     id="defs3308" />
  <g
     inkscape:label="Layer 1"
     inkscape:groupmode="layer"
     id="layer1"
     transform="translate(-101.86477,-144.71912)">
    <path
       d="m 104.59497,145.90445 c -0.004,0 -0.006,0 -0.008,0.002 -0.01,0.0368 -0.0194,0.0742 -0.0388,0.10785 -0.0229,0.0396 -0.0503,0.0791 -0.0646,0.12167 -0.0254,0.0755 0,0.16307 -0.018,0.24075 -0.006,0.0245 -0.008,0.0497 -0.0166,0.0734 -0.004,0.0158 -0.0145,0.0302 -0.0187,0.046 -0.006,0.0201 -0.004,0.0366 -0.013,0.0567 -0.0145,0.0287 -0.0251,0.0583 -0.0396,0.0856 -0.0106,0.0201 -0.012,0.0351 -0.0159,0.0554 -0.004,0.009 -0.006,0.0121 -0.007,0.023 -0.004,0.0107 0.004,0.0223 0,0.0337 -0.0173,0.0734 -0.012,0.15111 -0.0321,0.22583 -0.013,0.0502 -0.0236,0.10069 -0.0447,0.14744 -0.0215,0.0488 -0.0381,0.0999 -0.056,0.15092 -0.0229,0.0648 -0.0734,0.11946 -0.0928,0.18554 -0.005,0.0129 -0.005,0.0245 -0.009,0.0366 -0.006,0.0166 -0.0138,0.0237 -0.0145,0.0418 -0.005,0.071 0,0.14302 0,0.21425 0,0.0797 0,0.15589 0.0166,0.23357 0.004,0.021 0.004,0.041 0.009,0.0618 0.004,0.0144 0.009,0.0295 0.0116,0.0438 0.008,0.0346 0.0152,0.0712 0.018,0.10712 0.004,0.0418 0.0131,0.0828 0.018,0.12369 0.004,0.0151 0.009,0.0289 0.0109,0.044 0,0.0151 -0.004,0.0295 0,0.0431 0.004,0.0109 0.008,0.0252 0.0113,0.0374 0.01,0.0316 0.0236,0.0576 0.0251,0.0898 0,0.0145 0,0.0296 0,0.044 -0.004,0.0179 -0.008,0.0337 -0.0102,0.051 -0.004,0.0237 0,0.0497 0,0.0733 0,0.0368 -0.0106,0.0836 -0.0272,0.11522 -0.018,0.0359 -0.0317,0.0675 -0.0604,0.094 -0.0229,0.0215 -0.0222,0.0497 -0.0374,0.0727 -0.005,0.006 -0.0123,0.008 -0.0166,0.0136 -0.007,0.0109 -0.01,0.0245 -0.0152,0.0359 -0.0215,0.044 -0.0374,0.092 -0.051,0.14025 -0.005,0.0144 -0.0116,0.0295 -0.0138,0.0446 -0.004,0.0237 0.005,0.0475 -0.004,0.0705 -0.0102,0.0418 -0.007,0.0841 -0.0138,0.12663 -0.007,0.0473 0,0.10418 -0.0138,0.15019 -0.004,0.0129 -0.012,0.0252 -0.0152,0.0388 -0.004,0.0165 0,0.0309 -0.004,0.0468 -0.004,0.0193 -0.0155,0.0329 -0.0169,0.0524 0,0.0158 0.004,0.0339 0,0.0495 -0.008,0.0433 -0.006,0.0863 -0.0102,0.13013 -0.004,0.0282 -0.0106,0.0547 -0.0145,0.0828 -0.004,0.0295 -0.004,0.0589 -0.008,0.0883 -0.0106,0.0705 -0.0145,0.13804 -0.0131,0.21001 0,0.0403 0.0152,0.0784 0.0215,0.1178 0.0102,0.0626 0.0325,0.11872 0.0532,0.17761 0.0159,0.0468 0.0438,0.0849 0.0596,0.13087 0.0152,0.0396 0.0275,0.0799 0.0411,0.11945 0.0166,0.046 0.0366,0.0913 0.0467,0.13878 0.007,0.0344 0.0194,0.0762 0.0346,0.10768 0.0123,0.0274 0.0293,0.0512 0.041,0.0784 0.0201,0.046 0.0497,0.0906 0.0641,0.13951 0.0138,0.0453 0.0201,0.0963 0.0293,0.14301 0.004,0.0166 0.0201,0.0836 0,0.0907 -0.0611,-0.0591 -0.0819,-0.13381 -0.12372,-0.20504 -0.0152,-0.0178 -0.0257,-0.0396 -0.0332,-0.0611 -0.004,-0.0215 -0.012,-0.0416 -0.025,-0.0589 -0.008,-0.0101 -0.0166,-0.0215 -0.0222,-0.0346 0,-0.008 0,-0.0151 -0.004,-0.0236 -0.006,-0.0116 -0.0166,-0.0188 -0.0229,-0.0324 -0.0159,-0.0374 -0.0403,-0.0705 -0.0604,-0.1051 -0.009,-0.0151 -0.0152,-0.0387 -0.0303,-0.048 0.0169,0.0151 0.0258,0.0309 0.0303,0.0554 0.005,0.0186 0.0236,0.0696 0.007,0.0834 -0.0254,0.0201 -0.0554,-0.0316 -0.0589,-0.0482 -0.005,-0.023 0,-0.049 0,-0.0705 0,-0.0388 0.006,-0.0826 0,-0.11927 -0.006,-0.0316 -0.0236,-0.0583 -0.0286,-0.0913 -0.008,-0.0475 -0.0236,-0.0964 -0.0268,-0.14467 -0.004,-0.069 0,-0.1373 0,-0.20633 0,0.0309 0.006,0.0576 0.01,0.0878 0.004,0.0468 -0.007,0.0935 0.008,0.13731 -0.0212,-0.0223 -0.0396,-0.0582 -0.049,-0.0878 -0.006,-0.0193 -0.007,-0.0388 -0.0145,-0.0582 -0.005,-0.0114 -0.0152,-0.0215 -0.018,-0.0324 -0.004,-0.0129 -0.004,-0.0295 -0.005,-0.0438 -0.005,-0.0208 -0.0109,-0.0388 -0.0131,-0.0604 -0.005,-0.0438 -0.0116,-0.0856 -0.018,-0.12939 -0.004,-0.0252 -0.004,-0.0519 -0.0109,-0.0762 -0.0265,-0.0834 -0.0272,-0.17117 -0.0272,-0.25823 0,-0.0453 0.008,-0.0985 0,-0.14228 -0.004,-0.0158 -0.0102,-0.0158 -0.0173,-0.028 -0.0152,-0.0274 -0.0102,-0.0727 -0.0109,-0.10142 0,-0.0475 -0.01,-0.092 -0.01,-0.13878 0,-0.0388 -0.006,-0.072 -0.008,-0.10859 0,-0.0193 -0.01,-0.0366 -0.01,-0.0561 0,-0.0223 0,-0.046 0,-0.0676 v -0.26173 c 0,-0.0374 -0.01,-0.0711 -0.01,-0.10786 0,-0.0295 0.004,-0.0589 0,-0.0876 -0.0123,-0.0826 -0.004,-0.16823 -0.018,-0.24958 -0.004,-0.0166 -0.0127,-0.0322 -0.0152,-0.0488 -0.006,-0.0302 0,-0.0611 -0.004,-0.092 -0.004,-0.0173 -0.0102,-0.072 -0.0286,-0.0821 0.005,0.0353 0.0106,0.0677 0.0106,0.10289 0,0.0604 -0.006,0.10639 -0.0208,0.164 -0.0159,0.0567 -0.0236,0.0747 -0.0597,0.11927 -0.0272,0.0346 -0.0453,0.0525 -0.0799,0.0755 -0.0279,0.018 -0.0582,0.0359 -0.0804,0.0604 -0.006,0.009 -0.012,0.018 -0.0201,0.026 -0.0109,0.007 -0.0219,0.0151 -0.0324,0.0223 -0.0261,0.0223 -0.0497,0.0547 -0.0683,0.0826 -0.0159,0.0252 -0.0268,0.0274 -0.0526,0.0453 -0.0222,0.0166 -0.0453,0.0274 -0.0683,0.044 -0.0272,0.0193 -0.0539,0.0381 -0.0819,0.0567 -0.0106,0.007 -0.0208,0.0151 -0.0286,0.0267 -0.0354,0.0237 -0.0791,0.0381 -0.0972,0.0777 -0.0152,0.0329 -0.0381,0.0589 -0.0653,0.0834 -0.0222,0.0215 -0.0286,0.0416 -0.0403,0.069 -0.007,0.0158 -0.0131,0.0309 -0.0187,0.0488 -0.0109,0.0309 -0.0212,0.0346 -0.0475,0.0554 -0.0236,0.018 -0.046,0.0388 -0.0668,0.0611 -0.009,0.009 -0.0152,0.0195 -0.0201,0.0316 -0.0152,0.0158 -0.031,0.023 -0.0423,0.0431 -0.0138,0.0252 -0.0254,0.0433 -0.031,0.0727 -0.004,0.023 -0.01,0.049 -0.0229,0.0683 -0.0131,0.018 -0.0339,0.0237 -0.0467,0.0403 -0.0159,0.0193 -0.0222,0.0445 -0.0339,0.0661 -0.0194,0.0418 -0.0446,0.0806 -0.0653,0.12148 -0.0201,0.0418 -0.0396,0.0799 -0.0626,0.11946 -0.01,0.0151 -0.012,0.0316 -0.0222,0.046 -0.0159,0.0272 -0.0353,0.0517 -0.0633,0.0668 -0.0243,0.009 -0.0488,0.018 -0.0733,0.0267 -0.0159,0.002 -0.0222,0.008 -0.0194,0.0208 -0.005,0.0114 -0.004,0.0252 -0.0159,0.0352 -0.0396,-0.0272 -0.051,-0.074 -0.0653,-0.11504 -0.013,-0.0351 -0.01,-0.0698 -0.01,-0.10491 0,-0.0331 0.004,-0.0554 0.0166,-0.0863 0.0145,-0.0366 0.0403,-0.0698 0.0626,-0.10196 0.0169,-0.018 0.031,-0.0396 0.0403,-0.0626 0,-0.0151 0.005,-0.0289 0.009,-0.0425 0.0166,-0.0539 0.0346,-0.10786 0.0561,-0.16032 0.0159,-0.0396 0.0222,-0.0819 0.0388,-0.12148 0.009,-0.0208 0.0159,-0.0425 0.0261,-0.0626 0.0286,-0.0661 0.0604,-0.13013 0.0891,-0.19621 0.0201,-0.0453 0.0423,-0.0906 0.0641,-0.13528 0.0169,-0.0316 0.0359,-0.0626 0.0552,-0.0933 0.007,-0.0123 0.0145,-0.0267 0.0212,-0.0388 0.0113,-0.0145 0.0279,-0.0225 0.0293,-0.041 0.007,0 0.012,0 0.0166,-0.006 0.0229,-0.0237 0.0401,-0.0618 0.0597,-0.0893 0.0258,-0.0381 0.0546,-0.074 0.0811,-0.11063 0.0411,-0.0554 0.069,-0.11871 0.10365,-0.1754 0.007,-0.0123 0.012,-0.0274 0.0194,-0.0403 0.0159,-0.028 0.0374,-0.046 0.0611,-0.0668 0.0173,-0.0158 0.0388,-0.0316 0.0546,-0.0482 0.0293,-0.0316 0.051,-0.0791 0.069,-0.11724 0.0275,-0.056 0.0539,-0.13436 0.0985,-0.17964 0.0152,-0.0138 0.0339,-0.0195 0.0497,-0.0316 0.0145,-0.0123 0.0346,-0.0287 0.0475,-0.0433 0.0145,-0.0136 0.0169,-0.0374 0.0314,-0.0532 0.0116,-0.0136 0.0289,-0.0208 0.0425,-0.0322 0.0261,-0.0188 0.0482,-0.044 0.0698,-0.067 0.0675,-0.0711 0.13508,-0.14669 0.19767,-0.22216 0.031,-0.0381 0.051,-0.0819 0.0799,-0.12074 0.0251,-0.0331 0.0547,-0.0618 0.0841,-0.0913 0.0166,-0.0144 0.0321,-0.0302 0.0488,-0.046 0.0152,-0.0136 0.0332,-0.0215 0.046,-0.0388 0.007,-0.009 0.0117,-0.0208 0.0201,-0.0317 0.0222,-0.0223 0.0468,-0.0445 0.0683,-0.0698 0.0159,-0.0193 0.0243,-0.0359 0.0366,-0.0554 0.0243,-0.0409 0.0618,-0.0725 0.0878,-0.11282 0.0286,-0.0446 0.0495,-0.0928 0.0797,-0.13584 0.0102,-0.0151 0.0194,-0.0223 0.0236,-0.0403 0.004,-0.009 0,-0.0272 0,-0.0359 0,-0.0324 0.007,-0.0626 0.018,-0.0928 0.0187,-0.051 0.0416,-0.0985 0.0554,-0.15167 0.01,-0.0374 0.0272,-0.0742 0.0387,-0.11153 0.0152,-0.046 0.007,-0.10565 0.007,-0.15535 0,-0.0861 -0.006,-0.17541 0,-0.26228 0,-0.0138 0.006,-0.0217 0.008,-0.0346 0.004,-0.0193 0,-0.0359 0,-0.0567 0,-0.10436 0.0187,-0.20927 0.0332,-0.3129 0.009,-0.0683 0.0275,-0.15387 0.0814,-0.20191 0.0257,-0.0237 0.0782,-0.0648 0.11709,-0.0576"
       style="fill:#21201d;fill-opacity:1;fill-rule:evenodd;stroke:none;stroke-width:0.184057"
       id="path646" />
    <path
       d="m 107.10569,145.70161 c -0.0388,0.009 -0.09,0.0144 -0.12958,0.0109 -0.0251,-0.002 -0.0495,-0.0138 -0.0733,-0.0215 -0.0346,-0.0123 -0.074,-0.0232 -0.10785,-0.0361 -0.0539,-0.0215 -0.10142,-0.0653 -0.16104,-0.0646 -0.0215,0 -0.0381,0.006 -0.0589,0.0121 -0.0339,0.009 -0.0668,0.007 -0.10213,0.006 -0.0346,0 -0.069,0.002 -0.10418,0 -0.0212,0 -0.0403,-0.009 -0.0618,-0.009 -0.0212,-0.002 -0.0433,0 -0.0648,0 -0.0547,0 -0.1064,-0.0324 -0.15957,-0.0446 -0.0229,-0.004 -0.0913,0.009 -0.10347,-0.0109 0.0236,-0.0337 0.0374,-0.0769 0.0661,-0.10712 0.0201,-0.0215 0.0482,-0.0394 0.0713,-0.0589 0.0187,-0.0151 0.0346,-0.0237 0.0574,-0.0324 0.0618,-0.025 0.12223,-0.0539 0.18334,-0.0819 0.0318,-0.0144 0.0668,-0.0245 0.0965,-0.0396 0.0868,-0.0445 0.20041,-0.0223 0.29393,-0.006 0.0102,0.002 0.0212,0.002 0.0317,0 0.006,0.002 0.0124,0.004 0.0173,0.006 0.0626,0.007 0.1222,0.0201 0.17963,0.0418 0,-0.003 0,-0.005 -0.004,-0.007 -0.0159,-0.0497 -0.0194,-0.11872 -0.0569,-0.15608 -0.031,-0.0302 -0.069,-0.0517 -0.10195,-0.0799 -0.044,-0.0144 -0.0885,-0.0287 -0.13232,-0.0431 -0.0547,-0.005 -0.11155,0 -0.16549,0 -0.0359,0 -0.0718,0.002 -0.10637,0 -0.0353,0 -0.0582,-0.0173 -0.0898,-0.0287 -0.0992,-0.0116 -0.19766,-0.0324 -0.29485,-0.0626 -0.009,0 -0.018,-0.002 -0.0279,-0.002 -0.0388,0 -0.074,0 -0.11007,0.0151 -0.0113,0.004 -0.0208,0.0109 -0.031,0.0173 -0.0145,-0.006 -0.0293,-0.0158 -0.0423,-0.023 -0.0366,-0.0188 -0.0698,-0.0282 -0.11007,-0.0411 -0.0525,-0.0173 -0.0935,-0.0567 -0.14153,-0.0804 -0.0332,-0.0173 -0.0727,-0.0331 -0.11007,-0.0346 -0.0279,-0.002 -0.0554,0.003 -0.0819,0.004 -0.0275,0.002 -0.0705,-0.009 -0.0972,-0.0116 -0.0321,-0.004 -0.0653,-0.0114 -0.0985,-0.0121 -0.0502,-0.002 -0.0999,0 -0.14947,0 -0.0303,0 -0.0467,0 -0.0712,0.0121 -0.0381,0.018 -0.0747,0.0331 -0.10859,0.0547 -0.0152,0.0101 -0.0346,0.0166 -0.0467,0.0272 -0.0145,0.0123 -0.0258,0.0296 -0.0396,0.0425 -0.0162,0.0173 -0.0359,0.0309 -0.0532,0.0468 -0.0152,0.0144 -0.0311,0.0316 -0.0473,0.0467 -0.0841,0.0856 -0.18848,0.1351 -0.23008,0.25585 -0.008,0.0282 -0.018,0.0618 -0.0194,0.0913 -0.004,0.0331 -0.0152,0.0591 -0.0208,0.0907 -0.006,0.0315 -0.018,0.0596 -0.0258,0.0884 -0.004,0.0121 0,0.0274 0,0.0403 -0.004,0.0121 -0.008,0.0245 -0.0145,0.0359 -0.01,0.0245 -0.0258,0.0561 -0.0303,0.0813 -0.004,0.0208 -0.004,0.0445 -0.007,0.0668 -0.0138,0.0977 0.008,0.19768 0.007,0.29542 0,0.0267 0.007,0.0604 0,0.0856 -0.007,0.028 -0.01,0.0525 -0.0102,0.0841 0,0.0245 -0.005,0.0504 -0.0113,0.0747 -0.006,0.0238 -0.006,0.0425 -0.006,0.067 v 0.0639 c 0,0.0526 -0.008,0.10363 -0.0102,0.15535 0,0.028 0,0.0482 -0.0102,0.074 -0.0208,0.0611 -0.0381,0.12295 -0.0581,0.18406 -0.0109,0.0331 -0.0215,0.064 -0.0332,0.0964 -0.006,0.0173 -0.004,0.0344 -0.008,0.049 -0.007,0.0215 -0.025,0.0394 -0.0346,0.0611 -0.006,0.0164 -0.008,0.0337 -0.0159,0.0495 -0.006,0.0136 -0.0138,0.026 -0.0201,0.0403 -0.0187,0.0423 -0.0605,0.0791 -0.0605,0.12792 0.0418,-0.0136 0.095,-0.0114 0.12369,-0.0423 0.018,-0.0203 0.0208,-0.041 0.0282,-0.0655 0.006,-0.0245 0.0113,-0.0495 0.0187,-0.074 0.0131,-0.0453 0.0318,-0.0841 0.0517,-0.12792 0.0201,-0.0447 0.0346,-0.0915 0.0554,-0.13455 0.0201,-0.0418 0.0381,-0.0863 0.0633,-0.12516 0.018,-0.0265 0.0374,-0.0532 0.049,-0.0834 0.006,-0.0166 0.0127,-0.0302 0.018,-0.0453 0.0131,-0.0374 0.0201,-0.0791 0.0282,-0.11854 0.008,-0.0346 0.005,-0.069 0.0106,-0.10362 0.0102,-0.0561 0.0282,-0.11209 0.0433,-0.16823 0.009,-0.0388 0.0127,-0.0777 0.0215,-0.11725 0.004,-0.0186 0.0187,-0.0438 0.0324,-0.056 0.0159,-0.0144 0.0453,-0.0166 0.0675,-0.018 0.0152,-0.002 0.0416,-0.004 0.0554,0.002 0.0222,0.009 0.0314,0.0524 0.0388,0.0725 0.007,0.0173 0.006,0.0302 0.018,0.0433 0.0293,0.0322 0.0848,0.0317 0.11945,0.0582 0.0303,0.0237 0.0366,0.0806 0.0696,0.10362 0.0109,0.008 0.018,0.006 0.0318,0.006 0.0117,0.002 0.0152,0.005 0.0268,0.007 0.0303,0.009 0.0668,0.003 0.0977,0.003 0.0596,0 0.1143,0.007 0.16749,-0.0208 0.0222,-0.0121 0.0432,-0.0223 0.0576,-0.0438 0.0113,-0.0188 0.0201,-0.0388 0.0374,-0.0539 0.018,-0.0166 0.0438,-0.026 0.0648,-0.041 0.0201,-0.0144 0.0374,-0.0344 0.0545,-0.0525 0.0318,-0.0316 0.0611,-0.0653 0.0957,-0.0935 0.0215,-0.0171 0.0173,-0.0129 0.0325,0.006 0.01,0.0121 0.0258,0.0208 0.0396,0.0287 0.0201,0.0129 0.0466,0.0173 0.0696,0.0223 0.0455,0.009 0.0757,0.008 0.11504,0.0344 0.0332,0.0237 0.072,0.0388 0.10361,0.0655 0.0113,0.009 0.0229,0.0208 0.0339,0.0309 0.0891,-0.007 0.17745,-0.009 0.2667,-0.005 -0.0187,-0.0289 -0.0403,-0.0561 -0.0648,-0.072 -0.0353,-0.0252 -0.0661,-0.0497 -0.0906,-0.0841 -0.0187,-0.0267 -0.0446,-0.0438 -0.0648,-0.0668 -0.031,-0.0339 -0.0775,-0.0526 -0.10784,-0.0893 -0.0169,-0.0201 -0.0328,-0.0381 -0.0537,-0.0539 -0.009,-0.006 -0.0447,-0.023 -0.0418,-0.0374 0.006,-0.0208 0.0705,-0.008 0.0827,-0.004 0.0425,0.0136 0.0821,0.0309 0.12295,0.0495 0.0497,0.0223 0.11356,0.0309 0.1675,0.0366 0.041,0.004 0.0848,-0.009 0.12516,-0.0178 0.0554,-0.0116 0.11282,-0.0188 0.16969,-0.0188 0.0208,0 0.0423,-0.003 0.0618,0.002 0.0293,0.006 0.0495,0.0158 0.0804,0.0173 0.0525,0.002 0.1051,0.003 0.15829,0.009 0.0567,0.006 0.11134,0.0344 0.16528,0.0532 0.0497,0.0164 0.0777,0.0121 0.12517,-0.002 0.0272,-0.009 0.0646,-0.013 0.0883,-0.0309 0.0109,-0.008 0.0145,-0.0195 0.0208,-0.0331 0.0152,-0.0295 0.0303,-0.0574 0.0388,-0.0906 0.009,-0.0351 0.0106,-0.0705 0.0145,-0.10638 -0.0159,0.0567 -0.0821,0.12221 -0.13804,0.13583"
       style="fill:#21201d;fill-opacity:1;fill-rule:nonzero;stroke:none;stroke-width:0.184057"
       id="path648" />
    <path
       d="m 105.82574,144.9352 c -0.0127,0.004 -0.0286,0.002 0.0145,-0.005 -0.005,0.002 -0.009,0.004 -0.0145,0.005"
       style="fill:#21201d;fill-opacity:1;fill-rule:nonzero;stroke:none;stroke-width:0.184057"
       id="path650" />
    <path
       d="m 105.75747,145.8958 c 0,0.0344 -0.006,0.0639 -0.0229,0.094 -0.0138,0.0267 -0.0236,0.0561 -0.0314,0.0856 -0.0187,0.069 -0.0296,0.14523 -0.0454,0.21646 -0.0279,0.13381 0.0512,0.24516 0.0935,0.36241 0.007,0.0201 0.008,0.0431 0.0173,0.0633 0.007,0.0144 0.0194,0.0272 0.0286,0.0423 0.0116,0.0208 0.0187,0.0453 0.0324,0.0668 0.0102,0.0158 0.0215,0.0289 0.0286,0.0468 0.01,0.026 0.0152,0.0591 0.0332,0.0784 0.0222,0.026 0.0332,0.0611 0.0532,0.0878 0.0194,0.028 0.0318,0.0611 0.0438,0.0913 0.0138,0.0366 0.0339,0.0683 0.0504,0.10196 0.008,0.0188 0.0169,0.0346 0.0293,0.0504 0.0113,0.0158 0.0113,0.0337 0.0208,0.0495 0.0152,0.0252 0.0361,0.049 0.0512,0.0742 0.0229,0.0366 0.0537,0.0675 0.0769,0.10344 0.0152,0.0252 0.0381,0.0517 0.0473,0.0791 0.008,0.0252 0.0173,0.0532 0.0289,0.0784 0.01,0.0237 0.0303,0.0438 0.0453,0.0675 0.0194,0.0337 0.051,0.0582 0.074,0.0883 0.0236,0.0316 0.0423,0.0683 0.0683,0.0979 0.006,0.007 0.0166,0.0144 0.0215,0.0223 0.0109,0.0144 0.0138,0.0302 0.0268,0.0431 0.0173,0.018 0.0403,0.0388 0.0611,0.0547 0.0265,0.0193 0.0482,0.0418 0.0697,0.069 0.0367,0.046 0.0941,0.069 0.14083,0.10344 0.0361,0.0267 0.0605,0.0519 0.1051,0.0648 0.0388,0.0109 0.0876,0.008 0.11779,0.0352 0.0138,0.0123 0.0445,0.0375 0.0519,0.0547 0.006,0.0158 0.007,0.0215 0.0194,0.0361 0.0194,0.023 0.0318,0.0517 0.049,0.0769 0.025,0.0381 0.048,0.0762 0.0718,0.11357 0.008,0.0129 0.0145,0.0272 0.0222,0.0409 0.0123,0.0188 0.0243,0.0267 0.0381,0.044 0.0109,0.0136 0.018,0.0309 0.031,0.0438 0.0123,0.0109 0.0243,0.018 0.0354,0.0316 0.0258,0.0344 0.0611,0.0718 0.0755,0.11209 0.0279,0.0769 0.0569,0.16179 0.11211,0.22363 0.03,0.0346 0.0475,0.0791 0.0734,0.11725 0.0113,0.0178 0.0236,0.0359 0.0346,0.0554 0.0102,0.0186 0.0268,0.0322 0.0381,0.051 0.004,0.006 0.0109,0.0136 0.0145,0.0186 0.0152,0.0237 0.0201,0.0526 0.0289,0.0821 0.0106,0.0381 0.0201,0.079 0.0359,0.11577 0.0138,0.0351 0.0286,0.0646 0.0353,0.10123 0.006,0.0316 0.007,0.0403 0,0.0685 -0.0106,0.0503 0,0.1121 0.0102,0.15885 0.008,0.0316 0.0268,0.0554 0.0339,0.0849 0.004,0.0158 0.0127,0.0352 0.0152,0.051 0.005,0.0274 -0.005,0.0532 -0.0138,0.0777 -0.007,0.0208 -0.0173,0.0388 -0.0268,0.0574 -0.0113,0.0225 -0.0546,0.0878 -0.0841,0.0821 0,-0.0123 -0.006,-0.0144 -0.0109,-0.0237 -0.0106,-0.0165 -0.0145,-0.0403 -0.0258,-0.0569 -0.0131,-0.0179 -0.0361,-0.0295 -0.0497,-0.0468 -0.0236,-0.028 -0.0353,-0.0567 -0.0532,-0.0891 -0.0328,-0.0604 -0.0804,-0.11651 -0.11927,-0.1732 -0.0332,-0.0497 -0.0504,-0.11577 -0.067,-0.17264 -0.0215,-0.0712 -0.0552,-0.14946 -0.097,-0.21056 -0.0258,-0.0388 -0.0654,-0.0677 -0.0955,-0.10363 -0.0388,-0.0468 -0.0915,-0.074 -0.13233,-0.11651 -0.0403,-0.0416 -0.0403,-0.11062 -0.0827,-0.15313 -0.031,-0.0324 -0.072,-0.0475 -0.10784,-0.0718 -0.0611,-0.0403 -0.12019,-0.0841 -0.18278,-0.12221 -0.025,-0.0145 -0.0381,-0.0309 -0.0567,-0.0519 -0.0201,-0.023 -0.0374,-0.0517 -0.0655,-0.0653 -0.0286,-0.0136 -0.0552,-0.003 -0.0847,-0.0109 -0.0633,-0.0158 -0.10583,-0.0935 -0.14961,-0.13657 -0.0272,-0.0252 -0.0554,-0.0431 -0.0849,-0.0653 -0.013,-0.0101 -0.0366,-0.0282 -0.0539,-0.0274 -0.0293,0.0381 -0.0138,0.13013 -0.0138,0.17541 0,0.0497 0,0.0999 0,0.1489 0,0.0193 0,0.0359 0,0.0539 0.007,0.0409 0.0222,0.0777 0.0279,0.11854 0.007,0.0425 0.008,0.0848 0.008,0.12884 0,0.071 0,0.14227 0,0.21351 0,0.0272 0,0.0495 -0.008,0.0755 -0.0215,0.069 -0.0303,0.13878 -0.0438,0.21001 -0.0102,0.0473 -0.0215,0.0913 -0.0208,0.14007 0,0.0705 0.0113,0.15111 -0.0109,0.21866 -0.0265,0.0797 -0.0705,0.1581 -0.11504,0.22933 -0.0222,0.0351 -0.0293,0.0683 -0.0453,0.10565 -0.0173,0.0438 -0.0272,0.0648 -0.0339,0.11209 -0.008,0.0532 -0.0159,0.10933 -0.0272,0.16105 -0.03,0.14026 -0.0648,0.2783 -0.064,0.42352 0,0.044 0.006,0.0893 -0.0145,0.12939 -0.0403,0.0814 -0.12002,0.14173 -0.17117,0.21867 -0.0328,0.0482 -0.0913,0.10859 -0.0998,0.16896 -0.004,0.0215 0,0.0468 0,0.069 0,0.0101 0.005,0.0403 -0.006,0.0445 -0.012,0.006 -0.0145,-0.008 -0.0229,-0.0129 -0.0173,-0.009 -0.0725,-0.009 -0.0928,-0.004 -0.0145,0.003 -0.0265,0.0158 -0.0409,0.0216 -0.009,0.004 -0.018,0.007 -0.0254,0.0131 -0.0102,0.007 -0.0166,0.0179 -0.0254,0.0245 -0.0173,0.0151 -0.046,0.025 -0.0475,0.051 -0.074,0.0151 -0.15166,0.0193 -0.22494,0.0416 -0.0208,0.005 -0.0418,0.0138 -0.0648,0.0217 -0.006,-0.007 0.005,-0.0425 0.005,-0.0539 0,-0.0339 -0.004,-0.0677 0,-0.10141 0,-0.0274 0.01,-0.0525 0.01,-0.0812 0,-0.0131 0,-0.0252 0,-0.0383 0.0152,-0.0582 0.041,-0.11357 0.0467,-0.17541 0.004,-0.0423 0.006,-0.0898 0.018,-0.13013 0.006,-0.0215 0.0187,-0.0416 0.0272,-0.0626 0.0201,-0.0488 0.0353,-0.0861 0.0353,-0.13933 0,-0.0497 -0.0155,-0.0942 -0.0187,-0.14246 -0.004,-0.0265 0.004,-0.0525 -0.004,-0.0797 -0.004,-0.0173 -0.006,-0.0346 -0.007,-0.0526 0.0268,0.0403 0.0268,0.0885 0.0381,0.13455 0.0124,0.0539 0.0187,0.11503 0.018,0.17043 0,0.0525 -0.005,0.1086 0.007,0.15737 0.004,0.0158 0.005,0.0295 0.0145,0.0438 0.0138,0.0195 0.0293,0.0296 0.0403,0.0512 0.0106,0.0186 0.018,0.0316 0.0215,0.0524 0.004,0.0158 0.007,0.028 0.0173,0.0411 0.0159,0.0186 0.0388,0.0302 0.0632,0.0316 0.0554,0.003 0.10509,-0.0188 0.12809,-0.0677 0.0106,-0.0223 0.0243,-0.0344 0.0403,-0.0525 0.0208,-0.0237 0.0279,-0.0604 0.0416,-0.0876 0.0109,-0.023 0.018,-0.0447 0.0272,-0.0677 0.0166,-0.0445 0.0475,-0.0812 0.0769,-0.11632 0.0296,-0.0353 0.0454,-0.0606 0.0618,-0.10289 0.0152,-0.0403 0.0368,-0.0755 0.046,-0.11872 0.008,-0.0401 0.0138,-0.0782 0.0229,-0.11779 0.005,-0.0216 0.007,-0.0425 0.01,-0.0641 0.005,-0.0359 0.0201,-0.0712 0.0303,-0.10565 0.008,-0.0316 0.0215,-0.0626 0.025,-0.095 0.004,-0.0215 0.005,-0.0396 0.0113,-0.0604 0.0102,-0.0359 0.018,-0.0784 0.0353,-0.11209 0.007,-0.0151 0.0236,-0.0237 0.0318,-0.0388 0.006,-0.0109 0.008,-0.028 0.0113,-0.0403 0.006,-0.0193 0.01,-0.0409 0.0166,-0.0596 0.0229,-0.0596 0.0497,-0.11724 0.0497,-0.18184 0,-0.0849 0.01,-0.16694 0.01,-0.25235 0,-0.0907 0,-0.18056 0,-0.27111 0,-0.0353 0.008,-0.0676 0.01,-0.10216 0,-0.0403 0,-0.0804 0,-0.12 0,-0.026 0.01,-0.0497 0.0102,-0.0762 0,-0.0245 0,-0.0482 0,-0.072 0,-0.097 0.0187,-0.19271 0.0187,-0.28971 0,-0.11153 -0.004,-0.2251 0.006,-0.33645 0.009,-0.0885 0.012,-0.17468 0.012,-0.26321 v -0.24663 c 0,-0.0468 -0.004,-0.0913 -0.01,-0.13731 -0.004,-0.0245 -0.0201,-0.0482 -0.0272,-0.0733 -0.006,-0.0144 -0.008,-0.0302 -0.0102,-0.0453 0,-0.023 -0.0106,-0.041 -0.0166,-0.0633 -0.0166,-0.0655 -0.0353,-0.12663 -0.0703,-0.18479 -0.0254,-0.041 -0.0497,-0.0784 -0.064,-0.12443 -0.0123,-0.0431 -0.0152,-0.0898 -0.0215,-0.13362 -0.004,-0.0203 -0.0102,-0.0374 -0.0131,-0.0554 -0.0303,-0.006 -0.0381,-0.0274 -0.0488,-0.0517 -0.0187,-0.0411 -0.0293,-0.0799 -0.0396,-0.12443 -0.006,-0.023 -0.0102,-0.0626 -0.0222,-0.0826 -0.0109,-0.0173 -0.0293,-0.0324 -0.0433,-0.0482 -0.0401,-0.0502 -0.0574,-0.11153 -0.0948,-0.16472 -0.0261,-0.0359 -0.0346,-0.0775 -0.0546,-0.11633 -0.0532,-0.10657 -0.0849,-0.2402 -0.0332,-0.35173 0.005,-0.01 0.004,-0.0201 0.007,-0.0309 0.005,-0.0144 0.0159,-0.0287 0.0215,-0.0423 0.0152,-0.0351 0.0318,-0.069 0.0418,-0.10638 0.008,-0.0331 0.0275,-0.0705 0.0279,-0.10491 0,-0.023 0.004,-0.0376 0.008,-0.0606"
       style="fill:#21201d;fill-opacity:1;fill-rule:nonzero;stroke:none;stroke-width:0.184057"
       id="path652" />
    <path
       d="m 105.48083,151.57067 c 0.0169,0.0178 0.018,0.0445 0.046,0.0532 0.0374,0.0129 0.0926,0.002 0.1307,0.002 h 0.072 c 0.0173,0 0.0381,-0.003 0.0561,0 0.0208,0.003 0.0396,0.0144 0.0596,0.0215 0.0325,0.0114 0.0626,0.0252 0.0963,0.0331 0.018,0.004 0.0318,0.007 0.0467,0.0171 0.006,0.004 0.0109,0.0101 0.0173,0.0144 0.0145,0.008 0.0324,0.009 0.0453,0.018 0.0166,0.0109 0.0173,0.0295 0.031,0.0425 0.006,0 0.0109,0.002 0.0166,0.004 0.007,0.004 0.0131,0.009 0.0194,0.0151 0.0109,0.004 0.018,0 0.0282,0.006 0.0403,0.023 0.0884,0.0828 0.0725,0.13454 -0.004,0.0144 -0.0293,0.0403 -0.0438,0.0482 -0.0243,0.0151 -0.051,0.005 -0.0762,-0.009 -0.03,-0.0173 -0.1294,-0.12019 -0.12866,-0.0309 0,0.023 0.008,0.0359 0.0187,0.0554 0.01,0.0193 0.0124,0.0401 0.009,0.0631 -0.0236,0.007 -0.051,0.002 -0.074,-0.009 -0.0187,-0.01 -0.0353,-0.0374 -0.0546,-0.0438 -0.0303,-0.009 -0.0733,0.0445 -0.074,0.0734 -0.004,0.0532 -0.0418,0.0366 -0.0697,0.002 -0.0173,-0.0215 -0.0275,-0.0344 -0.0504,-0.0502 -0.01,-0.008 -0.0388,-0.0295 -0.0532,-0.0151 -0.0159,0.0158 0.0145,0.0574 0.0166,0.0727 0.004,0.0329 -0.004,0.0747 -0.0418,0.0747 -0.0258,0 -0.0861,-0.0381 -0.10989,-0.0144 -0.0109,0.01 -0.004,0.0265 -0.007,0.0394 -0.004,0.009 -0.018,0.0304 -0.0275,0.0368 -0.025,0.0171 -0.0819,0.0179 -0.11133,0.0114 -0.0173,-0.003 -0.0325,-0.0158 -0.0446,-0.028 -0.0289,-0.0294 -0.0511,-0.0813 -0.10068,-0.0626 -0.0303,0.0109 -0.0438,0.0561 -0.0734,0.0633 -0.0279,0.008 -0.0539,-0.0166 -0.0675,-0.0366 -0.0201,-0.0304 -0.0258,-0.0381 -0.0619,-0.0376 -0.0495,0 -0.10142,0.002 -0.15095,0 -0.0229,-0.002 -0.0453,-0.006 -0.0683,-0.01 -0.0446,-0.007 -0.10143,0 -0.14319,-0.018 -0.0106,-0.004 -0.0251,-0.0158 -0.0335,-0.0193 -0.0366,-0.0195 -0.0747,-0.0331 -0.11081,-0.0547 -0.0346,-0.021 -0.0574,-0.044 -0.0819,-0.0749 -0.007,-0.009 -0.0159,-0.0164 -0.0222,-0.0272 -0.0116,-0.0158 -0.0173,-0.0188 -0.0324,-0.0295 -0.0194,-0.0131 -0.0272,-0.0287 -0.0396,-0.0468 -0.0201,-0.0309 -0.0328,-0.0252 -0.069,-0.0252 -0.0194,0 -0.0396,-0.002 -0.0574,0 -0.0194,0.003 -0.0525,0.003 -0.069,0.008 -0.005,0.002 -0.007,0.009 -0.0116,0.0101 -0.0243,0.009 -0.0388,0.009 -0.0654,0.009 -0.0697,0 -0.14171,-0.0101 -0.20704,0.0114 -0.0123,0.004 -0.0145,0.006 -0.0261,0.006 0,-0.005 -0.004,-0.006 -0.007,-0.006 -0.008,-0.004 -0.0173,-0.004 -0.0265,-0.002 -0.0194,0 -0.0346,0 -0.0532,0.004 -0.0591,0.0151 -0.11652,0.0201 -0.17762,0.0237 -0.0282,0.002 -0.0512,0.0107 -0.0792,0.0166 -0.0222,0.004 -0.0403,0.003 -0.0618,0.0107 -0.0102,-0.028 -0.0453,-0.0374 -0.0653,-0.0547 -0.0116,-0.01 -0.0173,-0.0208 -0.0325,-0.0287 -0.006,-0.004 -0.0208,-0.006 -0.0254,-0.0136 -0.01,-0.0215 0.0138,-0.0361 0.0311,-0.0403 0.0366,-0.009 0.0683,-0.023 0.10287,-0.0366 0.0567,-0.0223 0.10862,-0.0611 0.16178,-0.092 0.0503,-0.0287 0.0862,-0.0705 0.12351,-0.11154 0.0254,-0.0272 0.0368,-0.0611 0.0583,-0.0891 0.0194,-0.0238 0.0335,-0.0475 0.051,-0.0727 0.0145,-0.0215 0.0236,-0.0423 0.0418,-0.0624 0.0201,-0.0217 0.0208,-0.0339 0.0201,-0.0626 0,-0.0295 0.005,-0.046 0.0152,-0.0742 0,-0.004 0.004,-0.0223 0.005,-0.028 0.007,-0.0129 0.0229,-0.0215 0.0314,-0.0337 0.0116,-0.0158 0.0219,-0.0296 0.0222,-0.0482 0,-0.0245 0.004,-0.0517 0,-0.0747 0,-0.0217 -0.0314,-0.0871 0.0173,-0.0749 0.0187,0.004 0.0381,0.0381 0.0546,0.0504 0.0187,0.0144 0.0303,0.0344 0.0482,0.051 0.0173,0.0158 0.0324,0.0324 0.0438,0.0561 0.0145,0.0316 0.0215,0.0697 0.0318,0.1027 0.007,0.0252 0.0187,0.0539 0.0381,0.0734 0.0138,0.0151 0.0366,0.0193 0.051,0.0337 0.0187,0.0195 0.0173,0.0447 0.0293,0.0677 0.0201,0.0401 0.0605,0.056 0.0979,0.0812 0.0272,0.0173 0.0559,0.0287 0.0834,0.0431 0.0346,0.0195 0.0567,0.0396 0.0935,0.0526 0.0869,0.0315 0.15811,0.0827 0.25234,0.0827 0.0335,0 0.0618,0.009 0.0955,0.009 0.0275,0 0.0445,0.004 0.0705,0.009 0.0286,0.007 0.0668,0.0131 0.0957,0.007 0.0272,-0.005 0.0438,-0.0217 0.069,-0.0331 0.0286,-0.0129 0.0581,-0.0366 0.0905,-0.0396 0.006,0 0.0138,0.002 0.0194,0.002 h 0.0633 c 0.0166,0 0.0339,0 0.0502,0 0.0145,-0.006 0.0268,-0.0173 0.0433,-0.0203 0.018,-0.002 0.0381,0 0.10216,0.0195"
       style="fill:#21201d;fill-opacity:1;fill-rule:nonzero;stroke:none;stroke-width:0.184057"
       id="path654" />
    <path
       d="m 103.83794,149.88175 c 0.008,0.006 0.0166,0.0339 0.0215,0.0438 0.007,0.0173 0.007,0.0339 0.0109,0.0519 0.008,0.0388 0.013,0.0775 0.0222,0.11559 0.009,0.0353 0.0201,0.0685 0.0293,0.10362 0.006,0.023 0.018,0.0431 0.0243,0.0653 0.0138,0.0425 0.0303,0.0769 0.0296,0.12368 0,0.0188 0.004,0.0346 0.01,0.0519 0.007,0.0208 0.007,0.0322 0.0109,0.0539 0.008,0.051 -0.004,0.10638 0.007,0.15663 0.007,0.0453 0.0318,0.0863 0.0374,0.13307 0.004,0.0223 0.008,0.0431 0.01,0.0646 0,0.0331 -0.007,0.0648 -0.01,0.0979 -0.004,0.0559 0.0367,0.0955 0.0648,0.14006 0.0127,0.0215 0.0152,0.0468 0.031,0.0683 0.0127,0.018 0.0265,0.0339 0.0396,0.0512 0.0215,0.0258 0.0517,0.0245 0.0804,0.0423 0.0215,0.0123 0.0446,0.0282 0.0641,0.0433 0.0229,0.0171 0.0374,0.0416 0.0502,0.0668 0.008,0.0173 0.0166,0.0265 0.0268,0.041 0.0318,0.0394 0.046,0.12939 0.10347,0.12719 0.0388,0 0.0777,0.0166 0.1071,0.041 0.0261,0.023 0.0497,0.0552 0.0821,0.0661 0.0208,0.006 0.056,0.0201 0.0782,0.0114 0.004,-0.002 0.009,-0.01 0.0116,-0.0129 0.0138,-0.009 0.0279,-0.0158 0.0431,-0.0237 0.0138,-0.006 0.0236,-0.006 0.0388,-0.009 0.0194,-0.006 0.0359,-0.0236 0.0539,-0.0315 0.0504,-0.0252 0.0705,-0.0591 0.0957,-0.10363 0.004,-0.005 0.0106,-0.004 0.0152,-0.0109 0.004,-0.007 0,-0.0164 0.006,-0.0236 0.01,-0.018 0.0166,-0.0289 0.0208,-0.0512 0.004,-0.0136 0.008,-0.028 0.0109,-0.0408 0.004,-0.018 0,-0.0274 0.01,-0.044 0.0106,-0.0158 0.0215,-0.0316 0.0328,-0.0475 0.006,-0.008 0.0194,-0.0344 0.0324,-0.0344 0.0222,0 0.018,0.0431 0.0187,0.0547 0.004,0.0495 0.004,0.10142 0,0.15167 -0.005,0.0589 -0.0187,0.11429 -0.0187,0.1754 0,0.0583 -0.004,0.11154 -0.0517,0.15682 -0.0123,0.0121 -0.0403,0.0329 -0.0569,0.0359 -0.018,0.003 -0.0353,-0.003 -0.0517,-0.007 -0.0668,-0.0158 -0.13381,-0.0158 -0.20133,-0.0216 -0.0416,-0.002 -0.0797,-0.0136 -0.12298,-0.008 -0.0265,0.003 -0.0517,0.007 -0.079,0.0101 -0.0226,0.003 -0.044,0.006 -0.067,0.008 -0.0488,0.006 -0.0876,-0.0394 -0.12001,-0.0725 -0.0374,-0.0374 -0.0747,-0.0769 -0.11007,-0.11724 -0.0215,-0.0245 -0.0272,-0.0324 -0.0374,-0.0582 -0.0106,-0.0295 -0.0279,-0.0504 -0.0453,-0.0755 -0.0159,-0.023 -0.0268,-0.0475 -0.0423,-0.0705 -0.0102,-0.0158 -0.0236,-0.0295 -0.0332,-0.0453 -0.0293,-0.049 -0.0325,-0.0957 -0.0403,-0.15111 -0.004,-0.023 -0.006,-0.0431 -0.0113,-0.0661 -0.007,-0.0272 -0.0145,-0.0547 -0.0201,-0.0834 -0.007,-0.0366 -0.0286,-0.0734 -0.0453,-0.10564 -0.0258,-0.0482 -0.0388,-0.0957 -0.051,-0.14817 -0.006,-0.0267 -0.0123,-0.0525 -0.0222,-0.0769 -0.0123,-0.0295 -0.0332,-0.0561 -0.0411,-0.0878 -0.008,-0.0315 -0.0145,-0.0653 -0.0215,-0.0963 -0.008,-0.0388 -0.0194,-0.0697 -0.0194,-0.10785 -0.004,-0.0339 -0.0106,-0.0641 -0.01,-0.0977 v -0.0935 c 0,-0.0295 0.004,-0.0604 0,-0.0906 0,-0.0158 -0.008,-0.0294 -0.01,-0.046 -0.004,-0.0532 0,-0.10565 -0.0116,-0.15884 -0.004,-0.023 -0.009,-0.0396 -0.004,-0.0641 0.008,-0.0453 0.007,-0.0893 0.007,-0.13657"
       style="fill:#21201d;fill-opacity:1;fill-rule:nonzero;stroke:none;stroke-width:0.184057"
       id="path656" />
    <path
       d="m 106.34774,145.21275 c 0.004,0.003 0.005,0.004 0.007,0.006 -0.008,0.0101 -0.0212,0.0116 -0.031,0.0173 -0.0222,0.0136 -0.0403,0.0316 -0.0633,0.0445 -0.0339,0.0173 -0.0727,0.0237 -0.10637,0.0418 -0.044,0.0243 -0.0965,0.0596 -0.12939,0.0963 -0.0268,0.0316 -0.0576,0.0554 -0.0648,0.0992 -0.005,0.0316 -0.008,0.0653 -0.0187,0.095 -0.005,0.0151 -0.0201,0.0329 -0.0268,0.0488 -0.01,0.0215 -0.0127,0.046 -0.0279,0.0663 -0.0116,0.0158 -0.0303,0.028 -0.0447,0.0423 -0.0162,0.0166 -0.0321,0.0309 -0.0495,0.046 -0.0311,0.028 -0.0547,0.0633 -0.0812,0.0957 -0.0236,0.0287 -0.0606,0.0416 -0.0878,0.0661 -0.0159,0.0151 -0.031,0.0245 -0.0497,0.0366 -0.0187,0.0123 -0.0409,0.0223 -0.0567,0.0396 -0.0131,0.0144 -0.0215,0.0302 -0.0366,0.0438 -0.0229,0.0223 -0.0504,0.0374 -0.0814,0.0482 -0.0152,0.006 -0.03,0.006 -0.0475,0.009 -0.0159,0.004 -0.0467,0.0109 -0.0624,0.0186 -0.0166,0.008 -0.0289,0.0225 -0.0489,0.0282 -0.0648,0.0193 -0.15755,0.007 -0.21996,-0.0116 -0.0375,-0.0107 -0.0806,-0.0136 -0.11373,-0.025 -0.0236,-0.009 -0.046,-0.0223 -0.071,-0.0302 -0.0418,-0.0145 -0.0841,-0.0339 -0.11801,-0.0576 -0.0138,-0.0101 -0.0318,-0.0186 -0.0423,-0.0324 -0.0116,-0.0144 -0.0173,-0.0359 -0.0251,-0.0532 -0.009,-0.0208 -0.013,-0.0445 -0.0275,-0.0633 -0.007,-0.01 -0.0127,-0.0129 -0.0236,-0.0193 -0.0187,-0.0116 -0.0318,-0.0295 -0.0504,-0.0403 -0.0332,-0.0208 -0.0374,-0.0121 -0.0374,-0.0559 0.004,-0.0618 0,-0.12222 0,-0.18277 0,-0.0257 0.01,-0.0467 0.0194,-0.071 0.0152,-0.0374 0.0296,-0.0282 0.064,-0.049 0.0806,-0.0468 0.1445,-0.11503 0.21791,-0.17191 0.012,-0.01 0.0243,-0.0164 0.0381,-0.0243 0.0318,-0.0158 0.0604,-0.0353 0.0869,-0.0576 0.0166,-0.0186 0.0339,-0.0344 0.0547,-0.0475 0.0433,-0.0258 0.095,-0.0287 0.14319,-0.0401 0.0409,-0.0101 0.0841,-0.0203 0.12295,-0.0353 0.0611,-0.0245 0.13437,-0.0136 0.20044,-0.0129 0.0979,0 0.19195,-0.0202 0.28988,-0.0188"
       style="fill:#21201d;fill-opacity:1;fill-rule:nonzero;stroke:none;stroke-width:0.184057"
       id="path658" />
    <path
       d="m 105.89552,146.07543 c 0.0116,0.009 0.0243,0.0202 0.0381,0.0274 0.004,0.002 0.005,0.003 0.007,0.004 0.007,0 0.0145,0.002 0.0222,0.004 0.0841,-0.007 0.17025,-0.009 0.2551,-0.006 -0.0229,-0.0158 -0.0438,-0.0361 -0.0624,-0.0539 -0.0159,-0.0145 -0.0375,-0.0267 -0.0497,-0.044 -0.008,-0.0121 -0.0127,-0.0201 -0.0254,-0.0287 -0.0201,-0.0136 -0.0388,-0.0252 -0.0589,-0.0366 -0.0208,-0.0116 -0.043,-0.0208 -0.0589,-0.0388 -0.0229,-0.0274 -0.0222,-0.069 -0.0418,-0.0964 -0.0159,-0.023 -0.0366,-0.0438 -0.0503,-0.0675 -0.0138,-0.023 -0.0215,-0.0777 -0.0482,-0.0827 l -0.61824,0.11007 c 0.0215,0 0.0293,-0.003 0.0467,0.0121 0.025,0.0245 0.0488,0.0554 0.0733,0.0812 0.0381,0.0425 0.0804,0.0547 0.13581,0.0705 0.0497,0.0151 0.095,0.0368 0.14598,0.044 0.03,0.004 0.0611,0.01 0.0927,0.0151 0.0236,0.004 0.0475,0.008 0.0698,0.0151 0.041,0.0114 0.0648,0.0351 0.0999,0.056 0.0109,0.006 0.0166,0.007 0.0272,0.0151"
       style="fill:#21201d;fill-opacity:1;fill-rule:nonzero;stroke:none;stroke-width:0.184057"
       id="path660" />
    <path
       d="m 107.0582,145.27957 c 0,-0.0324 -0.0116,-0.0747 -0.0275,-0.10215 -0.009,-0.0158 -0.0106,-0.0164 -0.0258,-0.0272 -0.0229,-0.0173 -0.0467,-0.0431 -0.072,-0.0539 -0.0194,-0.009 -0.0279,-0.0109 -0.0403,-0.0302 -0.004,-0.006 -0.008,-0.0129 -0.0106,-0.0201 -0.0913,-0.0274 -0.18203,-0.0583 -0.27333,-0.0871 -0.0797,0.006 -0.15812,0.007 -0.23576,0.002 -0.009,0.006 -0.0173,0.0114 -0.0265,0.0151 -0.0339,0.0144 -0.0806,0.006 -0.11504,0.006 -0.0677,0 -0.13233,0 -0.19915,-0.0109 -0.0332,-0.005 -0.0576,-0.0164 -0.0907,-0.0164 l 0.0836,0.31272 c 0.0106,0.005 0.10841,-0.0826 0.12072,-0.0913 0.0446,-0.0302 0.0762,-0.0374 0.12721,-0.0532 0.0475,-0.0158 0.0806,-0.0316 0.13233,-0.0302 0.0332,0 0.0646,0 0.097,0 0.0201,0 0.0208,0.004 0.0354,0.006 0.0589,0.0121 0.11853,0.0151 0.17688,0.0302 0.0401,0.0114 0.0732,0.0223 0.10785,0.0453 0.0321,0.0223 0.0661,0.0453 0.0933,0.074 0.0497,0.0129 0.0987,0.0339 0.14394,0.0596 0,-0.009 0,-0.0201 0,-0.0287"
       style="fill:#21201d;fill-opacity:1;fill-rule:nonzero;stroke:none;stroke-width:0.184057"
       id="path662" />
    <path
       d="m 105.84031,145.72039 c 0,0 -0.004,0 -0.006,0 0.0109,0.0121 0.0318,0.0265 0.0447,0.0351 0.0222,0.0144 0.0552,0.0309 0.0819,0.0418 0.0127,0.006 0.0279,0.0114 0.0416,0.0151 0.0166,0.004 0.0318,0.009 0.046,0.0166 0.0109,0.009 0.0219,0.0201 0.0325,0.0287 0.018,0.0129 0.0425,0.0302 0.064,0.0366 0.0222,0.007 0.0488,0 0.0733,0.004 0.0159,0.003 0.0381,0.004 0.0539,0.009 0.0152,0.005 0.0293,0.0188 0.046,0.0238 0.005,0.002 0.018,0.009 0.0222,0.009 0.0152,0.004 0.0296,0 0.0447,0.002 0.0208,0.003 0.0353,0.0158 0.0545,0.026 0.0504,0.028 0.10438,0.0265 0.15829,0.0386 0.013,0.004 0.0236,0.0131 0.0359,0.0173 0.0127,0.004 0.0194,0 0.03,0.009 0.018,0.0116 0.0303,0.0309 0.0411,0.049 0.0102,0.0158 0.0222,0.0287 0.031,0.0453 0.0113,0.0237 0.009,0.048 0.009,0.0747 0,0.0109 0.004,0.026 0,0.0366 -0.004,0.0109 -0.009,0.0144 -0.01,0.0274 -0.004,0.0129 0,0.0265 0,0.0388 -0.004,0.0144 -0.0102,0.025 -0.0109,0.0394 0.004,-0.0359 -0.0222,-0.0696 -0.043,-0.0992 -0.0138,-0.0193 -0.0222,-0.0287 -0.0446,-0.0359 -0.0332,-0.009 -0.0626,-0.0252 -0.0957,-0.0359 -0.0942,-0.0302 -0.18627,-0.046 -0.28621,-0.046 -0.094,0 -0.18902,-0.007 -0.27809,-0.0388 -0.0243,-0.009 -0.0354,-0.0237 -0.0569,-0.0396 -0.0272,-0.0188 -0.0489,-0.0438 -0.0755,-0.0626 -0.049,-0.0337 -0.0819,-0.0834 -0.12516,-0.12368 -0.0423,-0.0409 -0.0826,-0.0848 -0.12937,-0.12222"
       style="fill:#21201d;fill-opacity:1;fill-rule:nonzero;stroke:none;stroke-width:0.184057"
       id="path664" />
    <path
       d="m 107.19698,145.72039 c -0.0229,0.0136 -0.0324,0.0186 -0.0576,0.0186 -0.0173,0 -0.0353,0 -0.0525,0 -0.0705,0 -0.11801,-0.0257 -0.16179,-0.079 -0.0258,-0.0316 -0.0618,-0.0339 -0.10216,-0.0388 -0.0552,-0.008 -0.11282,-0.018 -0.1675,-0.007 -0.0445,0.009 -0.0963,0.006 -0.14228,0.005 -0.0425,-0.002 -0.0648,-0.0359 -0.10858,-0.0381 -0.0272,0 -0.0495,0.004 -0.0727,-0.0109 -0.0589,-0.0351 -0.10989,-0.0819 -0.17889,-0.0985 -0.0317,-0.006 -0.0676,-0.005 -0.0964,-0.018 -0.0611,-0.0287 -0.10915,-0.0775 -0.17321,-0.10344 -0.0445,-0.018 -0.0661,-0.006 -0.10418,0.0294 -0.0166,0.0166 -0.0539,0.0626 -0.0504,0.0913 0.004,0.0166 0.0138,0.0339 0.0194,0.0497 0.01,0.0295 0.018,0.0488 0.0438,0.0668 0.0359,0.0245 0.0913,0.0136 0.13158,0.0129 0.0173,0 0.0208,0.004 0.0353,0.009 0.01,0.003 0.0293,0 0.0381,0.004 0.0187,0.006 0.0325,0.0129 0.0512,0.0171 0.0215,0.005 0.0453,0.009 0.0668,0.0173 0.0388,0.0144 0.0977,0.0403 0.14227,0.0366 0.006,0 0.01,-0.007 0.0152,-0.008 0.0201,-0.004 0.0403,-0.006 0.0596,-0.009 0.0275,-0.004 0.0539,-0.0109 0.0814,-0.0116 0.0446,-0.002 0.0841,0.009 0.12792,0.009 0.031,0 0.0554,0 0.0848,0.007 0.0318,0.007 0.0648,0.006 0.0965,0.0136 0.0321,0.008 0.0646,0.018 0.0963,0.0274 0.0208,0.006 0.0403,0.0144 0.0611,0.0215 0.0381,0.0136 0.0705,0.0409 0.1108,0.0482 0.0502,0.009 0.10122,0.003 0.1524,0.002 0.0389,0 0.077,0.003 0.11579,0.008 0.10784,0.0129 0.20482,-0.0403 0.27164,-0.12719 0.0361,-0.0467 0.0648,-0.0935 0.0633,-0.15313 0,-0.0166 -0.004,-0.0195 -0.01,-0.0361 -0.01,-0.0208 -0.008,-0.0431 -0.0159,-0.0639 -0.008,-0.0215 -0.0208,-0.0353 -0.0353,-0.0517 -0.0374,-0.0475 -0.1029,-0.0935 -0.16549,-0.0935 -0.0272,0 -0.046,0.007 -0.0697,0.0193 -0.0201,0.009 -0.0401,0.0188 -0.046,0.041 -0.005,0.0179 -0.004,0.0567 0.008,0.0698 0.0109,0.0114 0.0388,0.028 0.0547,0.0287 0,0.0114 0.007,0.0201 0.0173,0.0252 -0.0236,0.0129 -0.0159,-0.0339 -0.0159,-0.0445 0,-0.0309 0.006,-0.0304 0.0367,-0.0289 0.0201,0.002 0.0339,0.0116 0.0453,0.0267 0,0.0151 0.008,0.0287 0.018,0.0409 0.0138,0.0124 0.0243,0.026 0.0353,0.041 0.005,0.0109 0.004,0.0188 0.004,0.0302 0,0.007 0.004,0.0215 0,0.0281 -0.004,0.0151 -0.0138,0.0179 -0.0236,0.0272 -0.0208,0.0188 -0.0374,0.023 -0.0646,0.0302 -0.0282,0.008 -0.0554,0.007 -0.0856,0.007 -0.01,0 -0.0201,0 -0.0296,0 -0.0138,0 -0.0229,-0.007 -0.0374,-0.009"
       style="fill:#21201d;fill-opacity:1;fill-rule:nonzero;stroke:none;stroke-width:0.184057"
       id="path666" />
    <path
       d="m 107.43698,149.14331 c 0.0268,0.0245 0.0511,0.0576 0.0727,0.0878 0.041,0.0524 0.0848,0.0977 0.13158,0.14448 0.0328,0.0331 0.0705,0.0611 0.10199,0.0963 0.0187,0.0203 0.0243,0.0455 0.046,0.0641 0.0131,0.0101 0.0212,0.0215 0.0318,0.0339 0.0173,0.0193 0.0318,0.0388 0.0497,0.0582 0.0403,0.0445 0.0561,0.0964 0.0641,0.1524 0.004,0.013 0.0127,0.0188 0.0162,0.0294 0.005,0.0109 0.004,0.023 0.004,0.0346 0,0.0121 0,0.023 0.004,0.0351 0,0.009 0.0102,0.0138 0.008,0.0274 0,-0.0223 -0.0109,-0.041 -0.0102,-0.0641 0,-0.0265 0.0123,-0.0445 0.0166,-0.0698 0.005,-0.0265 0.004,-0.0561 0.004,-0.0819 0,-0.0374 0.005,-0.0769 -0.004,-0.11283 -0.006,-0.0309 -0.0215,-0.0626 -0.0325,-0.092 -0.006,-0.0158 -0.0152,-0.0309 -0.0222,-0.046 -0.012,-0.0245 -0.0215,-0.049 -0.0359,-0.072 -0.0102,-0.0166 -0.0258,-0.0324 -0.0353,-0.0503 -0.005,-0.009 -0.005,-0.0188 -0.0131,-0.0296 -0.0257,-0.0374 -0.0697,-0.0646 -0.10636,-0.0898 -0.0279,-0.0201 -0.0438,-0.041 -0.0668,-0.0653 -0.0159,-0.0173 -0.0376,-0.0302 -0.0554,-0.0482 -0.025,-0.0237 -0.0388,-0.0547 -0.0626,-0.0812 -0.0109,-0.013 -0.0261,-0.0225 -0.0366,-0.0353 -0.008,-0.0107 -0.0152,-0.026 -0.0236,-0.0366 -0.0201,-0.0267 -0.0433,-0.049 -0.0661,-0.072 -0.0201,-0.0223 -0.0433,-0.0416 -0.067,-0.0589 -0.0145,-0.0116 -0.0303,-0.0215 -0.046,-0.0302 -0.0194,-0.0173 -0.0335,-0.0425 -0.0532,-0.0618 -0.0145,-0.0136 -0.0293,-0.028 -0.0411,-0.0431 -0.005,-0.006 -0.007,-0.013 -0.0152,-0.0203 -0.0173,-0.0151 -0.0321,-0.028 -0.051,-0.0403 -0.012,-0.01 -0.0374,-0.0344 -0.0539,-0.0344"
       style="fill:#21201d;fill-opacity:1;fill-rule:nonzero;stroke:none;stroke-width:0.184057"
       id="path668" />
    <path
       d="m 102.34322,149.80776 c 0,0.0144 0.004,0.0329 0,0.0468 -0.005,0.008 -0.0138,0.0136 -0.0173,0.023 -0.004,0.006 0,0.0179 0,0.025 0,0.0641 -0.004,0.11228 0.0268,0.17412 0.0215,0.046 0.051,0.0826 0.0762,0.12718 0.0159,0.0272 0.0303,0.0517 0.0488,0.0762 0.0102,0.0136 0.0229,0.0411 0.0403,0.0431 -0.0102,-0.0272 -0.005,-0.0525 -0.007,-0.0819 -0.004,-0.018 -0.01,-0.0337 -0.0109,-0.0525 0,-0.0237 0.004,-0.0482 0,-0.0727 -0.004,-0.056 -0.01,-0.10988 -0.01,-0.16528 0,-0.0554 -0.004,-0.11136 0,-0.16603 0.004,-0.0604 0.0318,-0.10215 0.0648,-0.15185 0.0346,-0.0517 0.0597,-0.11061 0.0878,-0.16601 0.0152,-0.0317 0.0416,-0.0604 0.0538,-0.0928 0.0109,-0.0252 0.0159,-0.046 0.0339,-0.069 0.0138,-0.0166 0.0388,-0.0351 0.0374,-0.0604"
       style="fill:#21201d;fill-opacity:1;fill-rule:nonzero;stroke:none;stroke-width:0.184057"
       id="path670" />
    <path
       d="m 104.35476,145.91438 c 0,0.0468 0,0.0863 -0.0187,0.12939 -0.018,0.0455 -0.0475,0.0806 -0.072,0.1224 -0.0173,0.0295 -0.0381,0.0532 -0.0554,0.0804 -0.0194,0.0316 -0.0611,0.0569 -0.074,0.0928 -0.007,0.0186 0,0.049 0,0.0698 0,0.0453 0,0.0913 0,0.13584 0,0.0475 -0.005,0.0784 -0.0303,0.11577 -0.0159,0.0223 -0.0208,0.0503 -0.0366,0.0727 -0.0109,0.0144 -0.0243,0.0243 -0.0353,0.0381 -0.01,0.0136 -0.0251,0.0309 -0.0314,0.0466 -0.007,0.0158 -0.005,0.009 0.004,0.0217 0.006,0.008 0.0173,0.0144 0.0194,0.0243 0.004,0.0109 0,0.0237 0,0.0346 0.006,0.026 0.008,0.0497 0.007,0.0762 0,0.0339 0.0102,0.0626 0.0102,0.0957 0,0.0243 0,0.048 -0.0102,0.071 -0.0145,0.0295 -0.0416,0.0539 -0.0574,0.0834 -0.0215,0.0403 -0.0574,0.0727 -0.0792,0.11301 -0.0145,0.0272 -0.004,0.0309 -0.0272,0.0344 -0.0243,0.004 -0.049,0 -0.0727,0.006 -0.0517,0.0138 -0.10417,0.0455 -0.14668,0.0756 -0.0145,0.0107 -0.0359,0.0129 -0.0495,0.0243 -0.0138,0.0123 -0.0275,0.0361 -0.0374,0.0519 -0.0145,0.0208 -0.0138,0.0495 -0.0159,0.0747 -0.005,0.0316 -0.005,0.0619 -0.0102,0.0928 -0.004,0.028 0,0.0567 0,0.0841 0,0.0166 -0.004,0.0352 0,0.0503 0.0346,-0.0121 0.0633,-0.0396 0.0942,-0.0582 0.0539,-0.0324 0.10933,-0.0569 0.1603,-0.0935 0.0641,-0.0468 0.1064,-0.0999 0.13879,-0.16971 0.007,-0.0136 0.0159,-0.0245 0.0215,-0.0366 0.007,-0.0158 0.006,-0.0287 0.0109,-0.0453 0.004,-0.009 0.006,-0.0195 0.0113,-0.0287 0.0109,-0.0267 0.0215,-0.0539 0.0332,-0.0806 0.0166,-0.0352 0.0286,-0.074 0.0475,-0.10713 0.0106,-0.0186 0.025,-0.0344 0.0359,-0.0532 0.005,-0.009 0.006,-0.0188 0.0102,-0.0272 0.004,-0.008 0.0145,-0.0123 0.0194,-0.0195 0.005,-0.009 0.006,-0.0193 0.013,-0.028 0.008,-0.0129 0.0215,-0.0195 0.031,-0.0309 0.0152,-0.0203 0.0208,-0.0468 0.0321,-0.0683 0.006,-0.0109 0.0123,-0.0188 0.0187,-0.0281 0.0166,-0.0215 0.0272,-0.0453 0.0411,-0.0683 0.0208,-0.0344 0.0328,-0.0661 0.0416,-0.10491 0.0194,-0.0913 0.0229,-0.18977 0.0504,-0.27903 0.0229,-0.0725 0.0502,-0.13584 0.0604,-0.21204 0.004,-0.0237 0.004,-0.0468 0.01,-0.0712 0.005,-0.023 0.0124,-0.0445 0.0138,-0.069 0,-0.0762 0,-0.1524 -0.0749,-0.23799"
       style="fill:#21201d;fill-opacity:1;fill-rule:nonzero;stroke:none;stroke-width:0.184057"
       id="path672" />
    <path
       d="m 104.08735,146.79952 c 0,0.004 0,0.006 0,0.0101 -0.0286,0.0158 -0.0554,0.0129 -0.0863,0.0193 -0.046,0.0101 -0.0963,0.0324 -0.13878,0.049 -0.0532,0.0193 -0.1215,0.051 -0.14799,0.10638 -0.018,0.0396 -0.0418,0.0777 -0.0604,0.11853 -0.0152,0.0346 -0.0368,0.0841 -0.0381,0.12222 -0.004,0.0648 -0.005,0.13675 0,0.20136 0,0.0267 0.01,0.0504 0.009,0.0777 v 0.0517 c 0,0.026 -0.005,0.0576 0,0.0828 0.0173,0.006 0.0403,0 0.0576,-0.004 0.0194,-0.005 0.0482,-0.009 0.0676,-0.0158 0.0411,-0.0151 0.0653,-0.0596 0.0883,-0.0942 0.0243,-0.0374 0.0504,-0.0718 0.0677,-0.11357 0.018,-0.0431 0.0321,-0.0876 0.0503,-0.13234 0.0381,-0.0905 0.0618,-0.18534 0.0927,-0.27884 0.0113,-0.0346 0.01,-0.069 0.01,-0.1051 0,-0.0201 -0.008,-0.0646 0.0272,-0.0955"
       style="fill:#21201d;fill-opacity:1;fill-rule:nonzero;stroke:none;stroke-width:0.184057"
       id="path674" />
    <path
       d="m 104.41018,145.5262 c 0,0.0324 -0.01,0.0596 -0.008,0.092 0,0.018 0.004,0.0388 0,0.0569 -0.004,0.0129 -0.006,0.0223 -0.01,0.0351 -0.006,0.023 -0.008,0.0468 -0.0159,0.0668 -0.008,0.0188 -0.0282,0.0324 -0.0303,0.0539"
       style="fill:#21201d;fill-opacity:1;fill-rule:nonzero;stroke:none;stroke-width:0.184057"
       id="path676" />
    <path
       d="m 104.45618,145.32337 c -0.0208,-0.006 -0.0883,0.14964 -0.0999,0.17615 -0.0106,0.026 -0.0194,0.046 -0.0339,0.0705 -0.0226,0.0374 -0.0303,0.0784 -0.0504,0.11651 -0.0208,0.0381 -0.0403,0.0784 -0.0626,0.1143 -0.0201,0.0331 -0.0381,0.0727 -0.0653,0.10068 -0.0339,0.0351 -0.0683,0.0898 -0.0863,0.13583 -0.0159,0.0445 -0.0113,0.11007 -0.006,0.15461 0.005,0.0425 0.0272,0.0913 0.0145,0.13528 -0.008,0.0322 -0.0374,0.0567 -0.0576,0.0812 -0.0388,0.0468 -0.0697,0.0963 -0.0933,0.15092 -0.0187,0.0396 -0.0526,0.0755 -0.0598,0.12019 -0.004,0.023 0.004,0.046 0,0.069 -0.004,0.0129 -0.007,0.023 -0.007,0.0366 -0.004,0.0517 0,0.10418 0,0.1559 0,0.0195 0.004,0.0425 -0.004,0.0611 -0.004,0.0158 -0.007,0.0225 -0.007,0.0388 0,0.0447 -0.004,0.0849 -0.0116,0.12663 -0.01,0.0561 -0.01,0.11651 -0.006,0.1732 0.0215,0.0158 0.0878,-0.0366 0.10491,-0.0473 0.0361,-0.0224 0.0584,-0.0569 0.0913,-0.0806 0.013,-0.009 0.0296,-0.0114 0.0425,-0.0201 0.0229,-0.0151 0.0445,-0.0418 0.0646,-0.0598 0.0296,-0.0265 0.0583,-0.0394 0.0828,-0.071 0.0279,-0.0353 0.0661,-0.0734 0.0819,-0.11577 0.008,-0.0195 0.006,-0.0482 0.0116,-0.0698 0.008,-0.0324 0.01,-0.0618 0.01,-0.0942 -0.004,-0.13437 0,-0.26891 0,-0.40328 0,-0.0841 0.005,-0.16178 0.0243,-0.24516 0.0145,-0.0561 0.0396,-0.10565 0.0661,-0.15682 0.0201,-0.0396 0.0275,-0.0856 0.0455,-0.12718 0.046,-0.10436 0.0697,-0.2194 0.0898,-0.33149 0.012,-0.0676 0.0201,-0.13583 0.0127,-0.20559 -0.004,-0.0381 -0.0215,-0.0791 -0.0173,-0.11798"
       style="fill:#21201d;fill-opacity:1;fill-rule:nonzero;stroke:none;stroke-width:0.184057"
       id="path678" />
    <path
       d="m 104.37356,145.72904 c -0.0208,0.007 -0.0497,0.0453 -0.0641,0.0604 -0.0618,0.0596 -0.13014,0.13013 -0.20909,0.16234 -0.0194,0.007 -0.0346,0.018 -0.0539,0.0245 -0.0194,0.005 -0.0381,0.0101 -0.0569,0.0203 -0.0201,0.0114 -0.0604,0.0258 -0.0727,0.0468 -0.0208,0.0351 0.006,0.0876 0.005,0.12497 -0.004,0.0928 -0.10788,0.12866 -0.14746,0.20431 0.0254,0.004 0.046,0.0237 0.0661,0.0366 0.0109,0.006 0.0261,0.0121 0.0325,0.0223 -0.0194,0.0294 -0.0539,0.0475 -0.0804,0.0683 -0.031,0.0237 -0.0547,0.0532 -0.0821,0.0806 -0.0201,0.0216 -0.0423,0.0381 -0.0574,0.0631 -0.0339,0.0569 -0.0532,0.15185 -0.0215,0.21075 0.0138,0.028 0.0138,0.0532 0.0138,0.0826 0,0.0366 0.004,0.0698 -0.009,0.10362 -0.0173,0.0466 -0.041,0.0876 -0.0618,0.13216 -0.0113,0.026 -0.031,0.0497 -0.0495,0.0698 -0.0173,0.018 -0.0236,0.0324 -0.0324,0.0561 -0.0116,0.0252 -0.0261,0.049 -0.0367,0.0733 -0.0102,0.021 -0.0219,0.041 -0.0275,0.0626 -0.01,0.0331 -0.004,0.0668 -0.007,0.10068 -0.004,0.0245 -0.0131,0.049 -0.0215,0.072 -0.0222,0.0539 -0.0396,0.10786 -0.0784,0.15314 -0.0318,0.0381 -0.069,0.0676 -0.0963,0.10859 -0.0222,0.0344 -0.0539,0.0617 -0.0828,0.092 -0.0473,0.051 -0.0755,0.13215 -0.0926,0.19915 -0.008,0.0359 -0.0201,0.0762 -0.0332,0.11136 -0.007,0.0193 -0.0222,0.0366 -0.0359,0.0517 -0.0236,0.0316 -0.046,0.0626 -0.0655,0.0965 -0.0254,0.0438 -0.0467,0.092 -0.0641,0.13951 -0.0127,0.0351 -0.0286,0.0775 -0.0353,0.1143 -0.008,0.046 -0.006,0.092 -0.0166,0.13731 0.008,-0.002 0.0194,-0.0165 0.0261,-0.0215 0.0272,-0.023 0.0567,-0.0425 0.0834,-0.064 0.0611,-0.0497 0.12443,-0.0891 0.19491,-0.12001 0.0869,-0.0383 0.16309,-0.10786 0.21424,-0.187 0.0194,-0.0302 0.0431,-0.0582 0.0589,-0.0898 0.0201,-0.0418 0.041,-0.0791 0.0755,-0.11007 0.0517,-0.0468 0.0978,-0.10491 0.14668,-0.15461 0.0346,-0.0352 0.0661,-0.0725 0.0978,-0.11062 0.031,-0.0368 0.0663,-0.067 0.0972,-0.10215 0.0359,-0.0388 0.0596,-0.0849 0.094,-0.12369 0.0201,-0.023 0.0293,-0.049 0.0445,-0.0762 0.0467,-0.0841 0.0764,-0.17264 0.0979,-0.2667 0.004,-0.0166 0.004,-0.0339 0.008,-0.0504 0.004,-0.0251 0.0138,-0.0517 0.0215,-0.0755 0.0127,-0.0344 0.0229,-0.0683 0.0318,-0.10271 0.0194,-0.0777 0.0423,-0.15681 0.0517,-0.2367"
       style="fill:#21201d;fill-opacity:1;fill-rule:nonzero;stroke:none;stroke-width:0.184057"
       id="path680" />
    <path
       d="m 103.12748,148.97729 c -0.004,0.0193 -0.0159,0.026 -0.0272,0.0388 -0.018,0.0201 -0.0303,0.046 -0.0497,0.0661 -0.031,0.0331 -0.0631,0.0626 -0.0933,0.0928 -0.049,0.049 -0.0821,0.11154 -0.1071,0.17541 -0.006,0.0138 -0.0145,0.0289 -0.0226,0.0418 -0.01,0.018 -0.009,0.0324 -0.0155,0.0495 -0.004,0.008 -0.0116,0.0138 -0.0145,0.0224 -0.004,0.007 0,0.0164 -0.004,0.0236 -0.004,0.0166 -0.006,0.026 -0.008,0.0433 0,0.0257 -0.0145,0.048 -0.0187,0.0718 -0.004,0.0123 0.004,0.0267 0,0.0403 -0.004,0.0109 -0.008,0.0144 -0.01,0.0267 -0.004,0.0151 0.01,0.0589 -0.0123,0.0552 -0.008,-0.002 -0.0106,-0.0129 -0.0166,-0.0164 -0.0113,-0.005 -0.0286,-0.002 -0.0396,-0.002 -0.0208,0 -0.0532,-0.0101 -0.0653,-0.0287 -0.018,-0.026 -0.0131,-0.0633 -0.0131,-0.0928 0,-0.0302 -0.007,-0.069 0,-0.0979 0.004,-0.0144 0.0106,-0.0201 0.0159,-0.0315 0.006,-0.0116 0.007,-0.0237 0.0145,-0.0353 0.0187,-0.0302 0.0396,-0.0604 0.0589,-0.0906 0.0279,-0.0468 0.0727,-0.0799 0.0935,-0.1316 0.0159,-0.0374 0.0388,-0.0733 0.0626,-0.10713 0.01,-0.0158 0.0145,-0.0324 0.0222,-0.0495 0.0113,-0.0217 0.0286,-0.041 0.0353,-0.0655 0.0152,-0.0554 0.0505,-0.10068 0.0735,-0.1524 0.01,-0.0208 0.0166,-0.0396 0.0293,-0.0574 0.012,-0.0166 0.0318,-0.0368 0.0374,-0.0554"
       style="fill:#21201d;fill-opacity:1;fill-rule:nonzero;stroke:none;stroke-width:0.184057"
       id="path682" />
    <path
       d="m 103.73652,148.63586 c 0,0.0819 -0.0145,0.15885 -0.0268,0.23928 0,0.0124 0,0.0245 0,0.0361 -0.004,0.0171 -0.0113,0.0322 -0.0169,0.0495 -0.0123,0.0482 -0.0275,0.0965 -0.0388,0.14523 -0.0366,0.15682 -0.0618,0.30848 -0.10361,0.46235 -0.01,0.0381 -0.006,0.0769 -0.007,0.11798 v 0.15516 c 0,0.0547 0.0109,0.12019 -0.004,0.17412 -0.005,0.0171 -0.01,0.0438 -0.0159,0.0596 -0.007,0.0179 -0.0187,0.0316 -0.0243,0.0503 -0.0215,0.0705 -0.0293,0.13454 -0.0293,0.2078 0,0.0396 -0.008,0.0871 0.006,0.12221 0.01,0.0215 0.0102,0.0418 0.0159,0.0641 0.0166,0.0755 0.0791,0.12939 0.11723,0.19345 0.009,0.0164 0.009,0.0322 0.0145,0.051 0.0152,0.0525 0.0446,0.0963 0.0755,0.14099 0.0145,0.0215 0.0236,0.0316 0.046,0.048 0.0339,0.0267 0.0927,0.0539 0.10785,0.0972 0.006,0.0179 0.005,0.0468 0.005,0.0653 0,0.0208 0,0.0339 0.006,0.0504 0.013,0.0359 0.0289,0.074 0.0482,0.10786 0.0109,0.0179 0.0569,0.0661 0.0834,0.0582 0.0138,-0.005 0.0208,-0.0272 0.0303,-0.0418 0.0339,-0.0552 0.0453,-0.12424 0.0447,-0.18902 0,-0.0388 0.004,-0.0784 -0.005,-0.11578 -0.0152,-0.0826 -0.0152,-0.1754 -0.0488,-0.25308 -0.004,-0.0101 -0.008,-0.0144 -0.0138,-0.0245 -0.0131,-0.0215 -0.0145,-0.0329 -0.018,-0.0574 -0.004,-0.018 -0.008,-0.0339 -0.0138,-0.0512 -0.0127,-0.0322 -0.0194,-0.071 -0.0353,-0.10196 -0.0152,-0.0324 -0.0244,-0.0596 -0.0346,-0.0942 -0.004,-0.0144 -0.01,-0.0295 -0.0138,-0.0438 -0.008,-0.0295 -0.0243,-0.0547 -0.0328,-0.0841 -0.01,-0.0287 -0.0131,-0.0583 -0.0194,-0.0878 -0.006,-0.0329 -0.018,-0.0661 -0.0254,-0.0992 -0.009,-0.0475 -0.008,-0.0942 -0.008,-0.14154 0,-0.26891 0,-0.53782 0,-0.80599 0,-0.0885 0.005,-0.17762 0,-0.26615 0,-0.0559 -0.01,-0.11135 -0.009,-0.16897 0,-0.0819 -0.004,-0.16381 0.008,-0.24516 0.005,0.0598 -0.11945,0.11375 -0.13233,0.17044 -0.006,0.0252 -0.0145,0.0482 -0.0215,0.072 -0.008,0.028 -0.0102,0.0582 -0.018,0.0863 -0.007,0.023 -0.0152,0.0431 -0.0194,0.0668 -0.008,0.0495 -0.0425,0.10565 -0.0662,0.14872 -0.0279,0.0497 -0.0567,0.10068 -0.0797,0.15387 -0.0187,0.0447 -0.0361,0.0913 -0.0591,0.13455 -0.0222,0.0416 -0.0324,0.0841 -0.051,0.12571 -0.0187,0.041 -0.031,0.0828 -0.0453,0.12516 -0.0258,0.0769 -0.0611,0.16399 -0.0604,0.2459 0,0.0668 0.0272,0.12866 0.0272,0.19492 0,0.0539 0.01,0.10712 0.01,0.16234 -0.004,-0.0201 0.0113,-0.0322 0.0102,-0.051 0,0.0237 -0.025,0.0532 -0.0317,0.0727 -0.0109,0.0351 -0.0159,0.0725 -0.0152,0.10988 0,0.0742 0.008,0.12092 0.0488,0.187 0.0138,0.023 0.0318,0.0438 0.0353,0.0698 0.004,0.01 0,0.0215 0.004,0.0316 0.006,0.0329 0.005,0.0683 0.01,0.10271 0.004,0.0346 0.0102,0.0489 0.0317,0.0777 0.0208,0.0295 0.0431,0.0604 0.0661,0.0885 0.0254,0.0309 0.0591,0.0416 0.0878,0.0668 0.0236,0.0216 0.0453,0.0366 0.0747,0.0482 0.008,0.003 0.0131,0.004 0.0201,0.009 0.0396,0.026 0.0655,0.0841 0.092,0.12092 0.0425,0.0582 0.11155,0.0906 0.17688,0.11927 0.0102,0.004 0.0109,0 0.0187,0.007 0.0123,0.0109 0.0222,0.0346 0.0346,0.0475 0.0131,0.0144 0.0275,0.046 0.0467,0.0502 0.0124,-0.0725 0.0219,-0.15166 0.0124,-0.22565 -0.0166,-0.1143 -0.0547,-0.22658 -0.0792,-0.3394 -0.0106,-0.0502 -0.0201,-0.10142 -0.03,-0.15167 -0.007,-0.0346 -0.0113,-0.074 -0.0272,-0.10638 -0.0123,-0.0267 -0.0152,-0.0482 -0.0318,-0.0749 -0.0159,-0.0272 -0.0282,-0.0559 -0.046,-0.0812 -0.0368,-0.0532 -0.12019,-0.10141 -0.12093,-0.17246 0,-0.0381 0.0229,-0.0727 0.0418,-0.10436 0.0254,-0.0453 0.0468,-0.0891 0.0648,-0.13657 0.01,-0.0287 0.0222,-0.0569 0.0366,-0.0826 0.0201,-0.0438 0.0431,-0.0848 0.069,-0.12369 0.025,-0.0539 0.0293,-0.10418 0.0332,-0.16326 0.006,-0.0784 0.006,-0.1559 0.005,-0.23504 0,-0.0878 0.025,-0.17044 0.0286,-0.2575 0.004,-0.0639 0.004,-0.13086 -0.0152,-0.19197 -0.0152,-0.0525 -0.0187,-0.0992 -0.0229,-0.1524 0,-0.0144 -0.006,-0.0287 -0.008,-0.0431 -0.004,-0.0215 0,-0.0438 0,-0.0668 0,-0.0203 -0.004,-0.0403 -0.007,-0.0604 -0.004,-0.023 -0.006,-0.0569 -0.0138,-0.0791 -0.006,-0.0158 -0.0166,-0.0282 -0.0215,-0.0438 -0.0102,-0.0324 -0.0229,-0.0663 -0.0317,-0.1"
       style="fill:#21201d;fill-opacity:1;fill-rule:nonzero;stroke:none;stroke-width:0.184057"
       id="path684" />
    <path
       d="m 106.1171,149.82635 c 0.0215,0.0188 0.0222,0.0727 0.0303,0.0972 0.0127,0.0409 0.0127,0.079 0.025,0.11927 0.0208,0.069 0.0124,0.16032 0,0.23007 -0.006,0.0339 -0.012,0.0554 -0.0293,0.0827 -0.0208,0.0366 -0.0562,0.0633 -0.0683,0.10362 -0.01,0.028 -0.008,0.0747 -0.004,0.10271 0,0.003 0.007,0.009 0.008,0.0138 0.004,0.0107 -0.004,0.0236 0,0.0344 0.004,0.0188 0.0102,0.0331 0.0102,0.0517 0,0.0195 -0.007,0.0353 -0.012,0.0539 -0.0131,0.0524 -0.0282,0.1051 -0.0475,0.15534 -0.006,0.018 -0.0208,0.0539 -0.0339,0.0733 -0.006,0.009 -0.0131,0.0131 -0.018,0.023 -0.007,0.0153 -0.0131,0.0339 -0.0212,0.049 -0.006,0.0151 -0.0127,0.0331 -0.0162,0.049 -0.004,0.023 0.006,0.0366 -0.007,0.0574 -0.0106,0.0166 -0.0328,0.0309 -0.0473,0.046 -0.013,0.0151 -0.0332,0.0223 -0.0467,0.0353 -0.044,0.0401 -0.0626,0.10344 -0.1143,0.14006 -0.0109,0.007 -0.0368,0.0195 -0.0504,0.0166 -0.0272,-0.005 -0.03,-0.0532 -0.0286,-0.0747 0,-0.0324 0.0145,-0.0762 0.0303,-0.10492 0.0152,-0.0267 0.0194,-0.0519 0.0236,-0.0813 0.004,-0.0201 0.007,-0.0351 0.012,-0.0554 0,-0.008 0,-0.0179 0.004,-0.0287 0.005,-0.0129 0.0159,-0.0245 0.0208,-0.0388 0.004,-0.009 0.004,-0.0215 0.01,-0.0324 0.004,-0.0114 0.0159,-0.0236 0.0187,-0.0359 0.004,-0.008 0,-0.0136 0,-0.0216 0.004,-0.026 0.0187,-0.0445 0.0296,-0.0668 0.0106,-0.023 0.0152,-0.049 0.0243,-0.0734 0.008,-0.0193 0.0102,-0.0324 0.0116,-0.0525 0,-0.018 0.005,-0.0324 0.0106,-0.0495 0.008,-0.0252 0.006,-0.0475 0.01,-0.0727 0.0109,-0.0618 0.0411,-0.11927 0.0539,-0.17983 0.0138,-0.0582 0.0268,-0.1143 0.0525,-0.16896 0.0236,-0.048 0.0512,-0.0977 0.0663,-0.14799 0.006,-0.0252 0.0106,-0.0497 0.0194,-0.0734 0.006,-0.0158 0.006,-0.046 0.0742,-0.1754"
       style="fill:#21201d;fill-opacity:1;fill-rule:nonzero;stroke:none;stroke-width:0.184057"
       id="path686" />
    <path
       d="m 103.20167,148.06345 -0.008,0.002 c -0.0152,0.0582 -0.0626,0.0942 -0.10213,0.13804 -0.0127,0.0151 -0.0272,0.0287 -0.0403,0.0431 -0.0187,0.0195 -0.0318,0.0425 -0.0475,0.0648 -0.0328,0.0423 -0.0675,0.0883 -0.10565,0.12645 -0.0265,0.0289 -0.0475,0.0648 -0.0797,0.0907 -0.0519,0.0431 -0.10213,0.0861 -0.15755,0.12424 -0.0166,0.0131 -0.0403,0.0158 -0.0554,0.0296 -0.0113,0.009 -0.0201,0.0243 -0.031,0.0351 -0.0265,0.0215 -0.0438,0.049 -0.0762,0.0626 -0.0769,0.0317 -0.15017,0.0567 -0.21276,0.11209 -0.0286,0.0252 -0.0604,0.0482 -0.0891,0.0747 -0.0194,0.018 -0.0325,0.0381 -0.0539,0.0547 -0.0425,0.0324 -0.0821,0.0769 -0.12443,0.11302 -0.0268,0.0236 -0.0546,0.0438 -0.0762,0.074 -0.0102,0.0129 -0.0152,0.026 -0.0222,0.0403 -0.0109,0.0178 -0.0279,0.0322 -0.0366,0.0532 -0.008,0.0201 -0.0152,0.0488 -0.008,0.071 0.005,0 0.01,0.002 0.0159,0.002 0.006,0.0223 0,0.0504 0,0.0734 0,0.0243 0.004,0.0495 0,0.074 -0.004,0.0237 -0.008,0.0423 -0.008,0.0661 0,0.0173 0.004,0.0361 0,0.0532 0,0.0151 -0.0229,0.0512 -0.0173,0.0618 0.0145,-0.01 0.0159,-0.0309 0.0229,-0.0453 0.0102,-0.0193 0.0236,-0.0344 0.0317,-0.0539 0.006,-0.0178 0.0145,-0.0359 0.0201,-0.0547 0.0131,-0.0431 0.0286,-0.0812 0.0525,-0.12221 0.0187,-0.0309 0.0403,-0.0611 0.0648,-0.0876 0.018,-0.021 0.0396,-0.0339 0.0569,-0.0561 0.0374,-0.0431 0.0913,-0.0532 0.13141,-0.0906 0.0569,-0.0524 0.12442,-0.0942 0.18701,-0.14246 0.0799,-0.0604 0.15095,-0.12866 0.2251,-0.19473 0.0495,-0.0445 0.1,-0.0777 0.15886,-0.1051 0.0403,-0.0186 0.0732,-0.0552 0.10858,-0.0812 0.0388,-0.0272 0.0762,-0.0574 0.11579,-0.0834 0.0524,-0.0359 0.0992,-0.0762 0.1452,-0.11927 0.0396,-0.0361 0.0812,-0.069 0.11578,-0.10933 0.0339,-0.0396 0.0631,-0.0834 0.092,-0.12589 0.0286,-0.0409 0.0517,-0.0804 0.0473,-0.1316"
       style="fill:#21201d;fill-opacity:1;fill-rule:nonzero;stroke:none;stroke-width:0.184057"
       id="path688" />
    <path
       d="m 105.65623,146.07985 c 0.004,0.0121 -0.006,0.0337 -0.01,0.046 -0.006,0.0208 -0.01,0.0388 -0.01,0.0596 0,0.0193 0.004,0.0295 0.008,0.0475 0.004,0.0193 0,0.0416 0,0.0611 0,0.0416 0.009,0.0755 0.0173,0.11356 0.012,0.0503 0.0229,0.10289 0.0401,0.1524 0.0123,0.0374 0.0418,0.0698 0.0583,0.10491 0.0106,0.0217 0.0468,0.0648 0.0705,0.0769 0.0145,0.009 0.0303,0.0101 0.0453,0.0188 0.008,0.005 0.0106,0.007 0.018,0.0114 0.0208,0.0123 0.0395,0.0195 0.0497,0.0454 0.009,0.0201 0,0.0401 0.006,0.0604 0.004,0.01 0.0113,0.0215 0.0173,0.0316 0.0201,0.0431 0.0401,0.0869 0.0539,0.13363 0.0138,0.0468 0.0187,0.0965 0.0311,0.14375 0.006,0.0267 0.0215,0.0532 0.0328,0.0791 0.0229,0.0547 0.0777,0.0898 0.0913,0.14817 0.004,0.0216 0.0116,0.0468 0.0123,0.0683 0,0.0165 0.006,0.10068 -0.0279,0.0804 -0.0109,-0.008 -0.0212,-0.0453 -0.0275,-0.0567 -0.0113,-0.0237 -0.0236,-0.046 -0.0325,-0.0705 -0.0113,-0.0309 -0.0201,-0.0618 -0.0286,-0.0942 -0.0113,-0.0488 -0.0339,-0.0826 -0.0561,-0.12442 -0.0335,-0.0639 -0.0639,-0.12719 -0.0992,-0.1905 -0.006,-0.0136 -0.012,-0.028 -0.0229,-0.0381 -0.0159,-0.0144 -0.0374,-0.0208 -0.051,-0.0366 -0.008,-0.0101 -0.01,-0.0252 -0.0187,-0.0331 -0.008,-0.009 -0.0187,-0.007 -0.0258,-0.0171 -0.01,-0.0123 -0.0152,-0.0346 -0.0222,-0.049 -0.0131,-0.0237 -0.0354,-0.0438 -0.0468,-0.069 -0.0109,-0.0223 -0.0159,-0.0351 -0.0346,-0.0539 -0.0113,-0.0114 -0.0166,-0.018 -0.0229,-0.0316 -0.012,-0.0252 -0.0303,-0.046 -0.0366,-0.0733 -0.006,-0.0309 -0.0127,-0.0626 -0.0208,-0.0928 -0.01,-0.0381 -0.006,-0.0777 -0.0138,-0.11651 0,-0.008 0,-0.0151 -0.004,-0.0216 -0.004,-0.0129 -0.008,-0.0245 -0.01,-0.0366"
       style="fill:#21201d;fill-opacity:1;fill-rule:nonzero;stroke:none;stroke-width:0.184057"
       id="path690" />
    <path
       d="m 107.08618,148.57107 c 0.0268,0 0.0467,-0.002 0.0712,0.0109 0.0215,0.0114 0.041,0.0243 0.0646,0.0337 0.0418,0.0158 0.0821,0.0359 0.12167,0.0576 0.0236,0.0144 0.0539,0.0243 0.0789,0.0359 0.0187,0.0101 0.0569,0.0173 0.0712,0.0309 0.0215,0.0193 0.0293,0.0539 0.0517,0.074 0.0131,0.0131 0.0339,0.0223 0.046,0.0361 0,0.005 0.004,0.009 0.004,0.0144 0.004,0.003 0.008,0.006 0.0138,0.009 0.0173,0.0151 0.0332,0.0309 0.0497,0.0473 0.018,0.0166 0.0353,0.0267 0.048,0.0475 0.0116,0.018 0.0453,0.0445 0.007,0.0468 -0.0229,0.002 -0.0423,-0.0186 -0.0631,-0.0295 -0.0353,-0.0151 -0.0705,-0.0381 -0.10584,-0.0517 -0.0318,-0.0131 -0.0589,-0.0324 -0.0898,-0.046 -0.031,-0.0144 -0.072,-0.021 -0.10491,-0.0302 -0.069,-0.0195 -0.15681,-0.0274 -0.21146,-0.0806 -0.046,-0.0453 -0.0891,-0.0935 -0.0525,-0.2056"
       style="fill:#21201d;fill-opacity:1;fill-rule:nonzero;stroke:none;stroke-width:0.184057"
       id="path692" />
    <path
       d="m 103.85653,151.43189 c -0.0339,-0.005 -0.0668,0.0252 -0.0927,0.0438 -0.0166,0.0116 -0.0279,0.0202 -0.0473,0.0252 -0.018,0.004 -0.0368,0.006 -0.0534,0.0151 -0.018,0.0101 -0.0314,0.0287 -0.0481,0.0403 -0.0261,0.0193 -0.0524,0.0287 -0.0755,0.0502 -0.0201,0.0216 -0.0425,0.0396 -0.0698,0.051 -0.0268,0.0116 -0.0554,0.0217 -0.0841,0.0237 -0.0282,0.002 -0.0519,0.009 -0.0806,0.009 -0.0453,0 -0.0891,0 -0.13437,0 -0.049,0 -0.10435,-0.007 -0.1524,0.002 0.004,0.0324 0.0725,0.0698 0.097,0.0827 0.0279,0.0151 0.0582,0.0252 0.0863,0.041 0.008,0.004 0.018,0.009 0.0272,0.0136 0.0145,0.006 0.0194,0.0151 0.0318,0.0252 0.0152,0.0114 0.0346,0.018 0.0517,0.0201 0.0166,0.004 0.0251,0.009 0.0433,0.0101 0.0187,0 0.0311,0 0.0481,0.006 0.0254,0.009 0.0539,0.0252 0.0806,0.0302 0.0676,0.0136 0.13734,-0.0517 0.20137,-0.0733 0.0473,-0.0158 0.0933,-0.0388 0.13656,-0.064 0.0293,-0.018 0.0589,-0.0287 0.092,-0.0331 0.0293,-0.004 0.0574,-0.006 0.0834,-0.0215 0.03,-0.0173 0.0532,-0.0396 0.0524,-0.0755"
       style="fill:#21201d;fill-opacity:1;fill-rule:nonzero;stroke:none;stroke-width:0.184057"
       id="path694" />
    <path
       d="m 105.18523,152.05952 0.008,0.002 c 0.004,0.0121 0,0.023 0.004,0.0351 0.004,0.0136 0.006,0.0215 0.007,0.0374 0,0.026 -0.0102,0.0339 -0.0282,0.0504 -0.0201,0.0186 -0.0423,0.0396 -0.0653,0.0582 -0.01,0.008 -0.0222,0.021 -0.0339,0.026 -0.01,0.004 -0.0258,0 -0.0318,0.0121 -0.0127,-0.002 -0.0279,-0.0136 -0.0366,-0.023 -0.0215,-0.023 -0.0475,-0.0646 -0.0596,-0.0928 -0.008,-0.0201 -0.0374,-0.0747 -0.0584,-0.0775"
       style="fill:#21201d;fill-opacity:1;fill-rule:nonzero;stroke:none;stroke-width:0.184057"
       id="path696" />
    <path
       d="m 106.20049,145.72039 c -0.0799,0 -0.16104,-0.004 -0.2402,0 -0.0215,0 -0.0482,0.0223 -0.0633,0.0388 -0.005,0.006 -0.006,0.0158 -0.0127,0.023 -0.0102,0.0114 -0.0173,0.0129 -0.0318,0.0179 -0.0582,0.0252 -0.0834,0.0281 -0.141,-0.005 -0.0215,-0.0136 -0.10841,-0.0626 -0.11501,-0.0957 -0.004,-0.0114 0.004,-0.0388 0.004,-0.0517 0,-0.018 0,-0.0223 0.018,-0.0316 0.0293,-0.0144 0.0696,-0.023 0.0999,-0.0302 0.0473,-0.0107 0.0926,-0.0136 0.14083,-0.0136"
       style="fill:#21201d;fill-opacity:1;fill-rule:nonzero;stroke:none;stroke-width:0.184057"
       id="path698" />
  </g>
</svg>
