<?xml version="1.0" encoding="UTF-8" standalone="no"?>
<!-- Created with Inkscape (http://www.inkscape.org/) -->

<svg
   width="7.8649802mm"
   height="7.5627313mm"
   viewBox="0 0 7.8649802 7.5627313"
   version="1.1"
   id="svg3169"
   inkscape:version="1.1.2 (0a00cf5339, 2022-02-04)"
   sodipodi:docname="z12.svg"
   xmlns:inkscape="http://www.inkscape.org/namespaces/inkscape"
   xmlns:sodipodi="http://sodipodi.sourceforge.net/DTD/sodipodi-0.dtd"
   xmlns="http://www.w3.org/2000/svg"
   xmlns:svg="http://www.w3.org/2000/svg">
  <sodipodi:namedview
     id="namedview3171"
     pagecolor="#ffffff"
     bordercolor="#666666"
     borderopacity="1.0"
     inkscape:pageshadow="2"
     inkscape:pageopacity="0.0"
     inkscape:pagecheckerboard="0"
     inkscape:document-units="mm"
     showgrid="false"
     inkscape:zoom="0.64052329"
     inkscape:cx="-1142.8156"
     inkscape:cy="-311.46409"
     inkscape:window-width="2560"
     inkscape:window-height="1376"
     inkscape:window-x="0"
     inkscape:window-y="0"
     inkscape:window-maximized="1"
     inkscape:current-layer="layer1" />
  <defs
     id="defs3166" />
  <g
     inkscape:label="Layer 1"
     inkscape:groupmode="layer"
     id="layer1"
     transform="translate(-407.48931,-230.84487)">
    <path
       d="m 413.76531,234.96544 c 0.0138,-0.002 0.0272,-0.003 0.0403,-0.004 -0.01,0 -0.0282,-0.002 -0.0403,0.004"
       style="fill:#21201d;fill-opacity:1;fill-rule:evenodd;stroke:none;stroke-width:0.184057"
       id="path672" />
    <path
       d="m 412.9571,236.63485 c 0.018,0 0.0361,0 0.0539,0 h -0.0473 c -0.004,0 -0.005,0 -0.007,0"
       style="fill:#21201d;fill-opacity:1;fill-rule:nonzero;stroke:none;stroke-width:0.184057"
       id="path674" />
    <path
       d="m 413.58123,236.33299 c 0.0467,-0.004 0.0943,-0.007 0.14026,-0.0151 0.12221,-0.021 0.24148,-0.0539 0.36368,-0.0749 l -0.0955,0.004 c -0.0972,0.018 -0.19347,0.0396 -0.29119,0.0582 -0.0396,0.007 -0.0784,0.0188 -0.11726,0.0281"
       style="fill:#21201d;fill-opacity:1;fill-rule:nonzero;stroke:none;stroke-width:0.184057"
       id="path676" />
    <path
       d="m 414.74741,235.39687 c -0.0138,0.0114 -0.0293,0.0178 -0.0475,0.0193 -0.0173,0 -0.0335,0.002 -0.051,0.003 -0.0475,0.007 -0.0913,0.0245 -0.13953,0.0309 -0.004,0 -0.004,0 -0.007,0.002 0,0 0.004,0 0.004,0 0.0219,0.006 0.0388,0.0186 0.0611,0.0201 0.0208,0.002 0.14964,-0.0136 0.15536,0.008 -0.0152,0.003 -0.0279,0.0114 -0.0416,0.0144 -0.008,-0.002 -0.0187,-0.003 -0.0282,-0.003 -0.0374,0.004 -0.0732,0.0145 -0.10784,0.0281 -0.17174,0.0482 -0.3501,0.0265 -0.52476,0.0445 -0.10361,0.009 -0.21276,0.0324 -0.31711,0.0267 -0.0335,0 -0.0661,-0.0138 -0.1,-0.0116 -0.0431,0 -0.0848,0.0101 -0.12865,0.0116 -0.0935,0.002 -0.19198,0.006 -0.28547,-0.002 0.005,-0.007 0.01,-0.0129 0.0145,-0.0208 -0.0468,-0.0153 -0.097,-0.0116 -0.14524,-0.0101 -0.074,0 -0.14742,0 -0.22066,0 -0.0769,-0.002 -0.16252,0.004 -0.23579,-0.0245 0.008,-0.009 0.0208,-0.0129 0.0346,-0.0121 0.0229,-0.007 0.044,-0.0166 0.0633,-0.0289 0.0359,-0.0144 0.0747,-0.008 0.11208,-0.009 0.0212,-0.002 0.0254,-0.007 0.0447,-0.0116 0.0321,-0.007 0.094,0 0.12421,0 0.0604,0 0.10936,0.009 0.17047,0.003 0.0353,-0.004 0.0683,0 0.10213,-0.0138 0.0145,-0.004 0.0243,-0.0151 0.0367,-0.0223 0.0332,-0.0164 0.0856,0.002 0.12072,0 0.0418,0 0.0834,0.002 0.12294,0.0138 0.0116,0.004 0.0152,0.009 0.0275,0.008 0.008,-0.002 0.0166,-0.005 0.0243,-0.009 0.0488,-0.003 0.0977,-0.004 0.14725,-0.002 0.0777,0 0.15184,0 0.22931,-0.0129 0.10068,-0.0158 0.19914,-0.023 0.3013,-0.0331 0.0661,-0.006 0.12736,-0.009 0.19417,-0.007 0.051,0 0.0884,-0.006 0.1366,-0.0109 -0.005,0 -0.01,0 -0.0138,0 0,0 -0.004,0 -0.005,0 -0.012,0 -0.0215,-0.002 0.005,0 0.0127,-0.002 0.0215,-0.005 0.0342,-0.008 0.0433,-0.0107 0.0965,0 0.14026,-0.004 0.0268,-0.003 0.0547,-0.0101 0.0812,-0.0101 -0.0293,0.0116 -0.0582,0.0223 -0.0884,0.0339 m -0.25012,0.41412 c -0.0145,0.0101 -0.0381,0.0173 -0.0547,0.0208 -0.0762,0.0223 -0.16249,0.0287 -0.24166,0.028 -0.0388,0 -0.0705,0 -0.10858,0.009 0.0317,-0.002 -0.13088,0.0871 -0.12002,0.0806 -0.0254,0.0136 -0.0532,0.0366 -0.0799,0.0495 -0.0408,0.0203 -0.0884,0.0215 -0.13437,0.0215 h 0.004 -0.0374 0.0332 c -0.046,-0.004 -0.0999,0.003 -0.14228,0.0188 -0.0194,0.008 -0.031,0.0136 -0.0519,0.0136 -0.0948,0.002 -0.18976,0 -0.28473,0 h -0.0314 c -0.1338,0.002 -0.26832,-0.0151 -0.40121,-0.0344 0,-0.0245 0.0812,-0.046 0.10343,-0.0532 0.03,-0.009 0.0611,-0.009 0.092,-0.0101 0.0698,-0.002 0.14026,0 0.21001,0 h 0.17762 -0.17981 c 0.14817,0 0.30349,0.0121 0.44873,-0.018 0.0611,-0.0121 0.10711,-0.0409 0.16306,-0.0574 0.031,-0.009 0.0618,-0.0109 0.0928,-0.0109 -0.031,0 -0.0624,0 -0.0941,0.002 -0.0482,0.003 -0.0972,0.0173 -0.14468,0.006 0.0226,-0.0295 0.0497,-0.0554 0.0885,-0.051 -0.004,0 -0.008,0 -0.0131,0.002 0.0834,-0.0188 0.16383,-0.023 0.24868,-0.0223 0.10565,0.002 0.20634,-0.0123 0.31069,-0.0252 0.0359,-0.004 0.0883,-0.018 0.12368,-0.006 0,0.003 0,0.006 0,0.009 0.0453,-0.0114 0.0475,-0.0114 0.0497,-0.0121 -0.0109,0.0114 -0.0145,0.0295 -0.0279,0.0388 m -0.14468,0.53192 c -0.025,0.0195 -0.0661,0.023 -0.094,0.0346 -0.0425,0.0173 -0.0834,0.0381 -0.12368,0.0611 -0.018,0.0109 -0.0353,0.0215 -0.0532,0.0316 -0.0116,0.007 -0.0215,0.0158 -0.0325,0.0237 0.004,-0.002 0.004,-0.004 0.006,-0.007 -0.0698,0.0114 -0.14228,0.0201 -0.21206,0.0337 0.1178,-0.0431 0.23301,-0.0928 0.34862,-0.14007 0.0229,-0.0109 0.0641,-0.0188 0.0756,-0.046 -0.0152,0.008 -0.0243,0.008 -0.0467,0.0114 -0.049,0.007 -0.0979,0.0116 -0.14742,0.0173 -0.18902,0.0208 -0.38393,0.0136 -0.57369,0.0129 0.006,-0.006 -0.0878,-0.002 -0.0979,-0.002 -0.0321,0.003 -0.0661,0.008 -0.0985,0.0144 0.0497,-0.0107 0.0985,-0.025 0.14887,-0.0366 -0.0892,0.009 -0.1754,0.023 -0.2654,0.0403 -0.20189,0.0396 -0.40897,0.0267 -0.61457,0.0267 h 0.14083 c 0.0618,-0.008 0.12368,-0.0309 0.18478,-0.044 0.0663,-0.0136 0.13307,-0.0245 0.19989,-0.0388 0.0834,-0.0193 0.1675,-0.0366 0.25234,-0.0524 0.0268,-0.005 0.0762,-0.028 0.10287,-0.0258 0,0.004 0,0.007 0,0.01 l 0.53707,-0.0223 c 0.0381,-0.007 0.0769,-0.0136 0.11578,-0.0193 0.0346,-0.004 0.0632,-0.002 0.0963,-0.0116 0.0359,-0.0121 0.0626,-0.009 0.0999,-0.0114 -0.0102,0 -0.018,0.002 -0.0268,0.005 -0.0328,0.0116 -0.0517,0.0151 -0.0876,0.0188 -0.0353,0.004 -0.069,0.009 -0.10365,0.0151 l 0.15389,-0.007 c 0.0138,0 0.0275,0 0.0403,0 -0.0229,0.0114 -0.046,0.0236 -0.0683,0.0322 -0.074,0.0289 -0.17833,0.006 -0.24514,0.0561 0.11796,-0.0216 0.24514,-0.0188 0.36441,-0.0129 0.0261,0.002 0.0526,0.009 0.0229,0.0322 m -0.34858,0.18406 c -0.0145,0.006 -0.0346,0 -0.0497,0 0.0222,-0.01 0.0546,-0.01 0.0791,-0.0215 -0.01,0.007 -0.0201,0.0136 -0.0293,0.0215 m -0.37899,0.0641 c -0.006,0.002 -0.0113,0.004 -0.0166,0.005 -0.0243,0.006 -0.0495,0.009 -0.074,0.0116 -0.0145,0.004 -0.0293,0.007 -0.0438,0.0109 -0.0532,0.0121 -0.10636,0.0243 -0.15956,0.0366 -0.10142,0.023 -0.20429,0.0359 -0.30847,0.0423 -0.0957,0.004 -0.19272,0.0109 -0.28843,0.013 -0.0431,0 -0.0868,-0.002 -0.13014,-0.006 -0.0279,-0.002 -0.0559,-0.004 -0.0841,-0.008 -0.0127,-0.009 -0.0194,-0.0107 -0.007,-0.025 0.0229,-0.0252 0.0927,-0.0302 0.12019,-0.0324 0.0646,-0.007 0.12791,-0.0136 0.1912,-0.0287 0.0517,-0.0138 0.097,-0.0274 0.14947,-0.0309 h -0.11211 0.0898 c 0.0229,0 0.0547,-0.004 0.0791,0 h 0.0468 -0.0445 c 0.004,0 0.006,0.002 0.01,0.003 -0.0467,0.006 -0.0927,0.009 -0.13804,0.0173 0.0712,0.0129 0.1445,0.002 0.21498,0.0151 -0.0517,0.008 -0.10343,0.0136 -0.15589,0.0195 0.0755,0 0.15166,0 0.22712,0 0.0416,0 0.0827,0.002 0.12368,0 0.048,-0.003 0.0935,-0.0138 0.14009,-0.0195 0.0268,-0.003 0.0534,-0.004 0.0799,-0.007 0.0215,-0.006 0.0446,-0.0109 0.0668,-0.0144 0.007,-0.002 0.0159,-0.002 0.0236,-0.002 0.0109,-0.004 0.0222,-0.009 0.031,-0.009 -0.01,0.006 -0.0201,0.008 -0.031,0.009 m -2.80963,0.22069 c -0.025,0.006 -0.046,0.0203 -0.072,0.0245 -0.0626,0.0116 -0.13879,0.006 -0.20133,0 -0.0948,-0.009 -0.18609,-0.0208 -0.2818,-0.0193 -0.0467,0 -0.0906,-0.008 -0.13586,-0.0109 -0.044,-0.003 -0.0784,-0.006 -0.12146,-0.0151 -0.0261,-0.006 -0.0475,-0.006 -0.0735,-0.006 -0.0532,0 -0.10417,-0.0109 -0.15663,-0.0116 -0.0346,0 -0.069,0 -0.10435,0 -0.0208,0 -0.0676,0.006 -0.0906,-0.003 0.0159,-0.0224 0.0999,-0.008 0.13088,-0.008 h 0.095 c 0.051,0 0.10269,0 0.15367,0 0.14467,-0.002 0.28917,0.004 0.43289,0.0151 0.046,0.004 0.0906,0.0144 0.1366,0.0171 -0.0243,-0.0208 0.005,-0.0208 0.0353,-0.0215 0.025,0 0.0431,0.007 0.0661,0.0101 0.0293,0.004 0.0611,0 0.0906,0 0.0935,0 0.18775,0.002 0.2818,0.0107 -0.0611,0.0153 -0.12569,0.002 -0.18535,0.0165 m -1.36754,-0.70605 c -0.007,0 -0.0159,0 -0.0229,0.003 -0.0325,0.006 -0.0611,0.028 -0.095,0.0316 -0.0236,0.002 -0.0487,-0.002 -0.0725,-0.002 -0.0236,0 -0.0453,0.0109 -0.069,0.0116 -0.0325,0 -0.0554,0.0129 -0.0871,0.0193 -0.0633,0.0121 -0.13363,0.0166 -0.19914,0.0223 -0.0423,0.004 -0.0561,-0.002 -0.0913,-0.0208 -0.0339,-0.0188 -0.0913,-0.0216 -0.13159,-0.0216 0.049,0.002 0.0977,0 0.072,-0.021 0.0166,0 0.0317,0 0.0482,-0.002 0.048,-0.005 0.092,-0.0302 0.14005,-0.0309 0.0821,-0.003 0.16475,-0.0116 0.24663,-0.0188 0.0431,-0.004 0.0871,0 0.12939,-0.008 0.0275,-0.006 0.0482,-0.009 0.0727,0.002 0.018,0.009 0.0366,0.0272 0.0532,0.0337 0.004,0 0.004,0 0.006,0 0.0325,-0.003 0.0676,0 0.0992,0 h 0.018 c -0.0303,0 -0.0863,0.008 -0.11726,0 m -0.99353,-0.55493 c -0.018,-0.003 -0.0361,-0.006 -0.0539,-0.002 0.17099,-0.0158 0.34509,-0.0525 0.51756,-0.0445 0.13656,0.006 0.27535,0.018 0.40916,0.0445 0.0328,0.006 0.0646,0.0116 0.0963,0.0188 0.0353,0.009 0.0769,-0.008 0.11151,0.004 0.005,0.008 0.012,0.0123 0.0222,0.0136 0.0208,0.008 0.0423,0.0101 0.0653,0.007 0.0282,0 0.0569,0 0.0848,0 0.0453,0 0.0885,-0.007 0.13307,-0.0101 0.0215,0 0.0431,0.002 0.0639,0 0.0145,0 0.0261,-0.006 0.0381,-0.0101 0.0598,-0.0193 0.12591,-0.0309 0.18557,-0.0438 h 0.1143 c 0.0373,0 0.0756,-0.004 0.11299,0.003 0.006,0.002 0.0321,0.004 0.0366,0.009 0.01,0.008 0.008,0.028 0.004,0.0409 -0.0848,0.003 -0.17025,-0.003 -0.2551,0.009 -0.0569,0.007 -0.11155,0.0353 -0.16968,0.0374 -0.15886,0.006 -0.32064,-0.002 -0.48042,-0.002 -0.0639,0 -0.51332,0.0173 -0.5183,-0.0329 -0.0942,0.002 -0.19194,0.007 -0.28621,0 -0.0782,-0.007 -0.15384,-0.026 -0.23135,-0.0388 m 2.25471,0.39462 c -0.009,-0.0388 0.0155,-0.0136 0.0466,-0.01 0.0201,0.003 0.0388,-0.004 0.0591,0.002 0.005,0.007 0.0123,0.009 0.0208,0.009 0.008,0 0.0166,0 0.0254,-0.002 0.0113,0.002 0.0145,0.0138 0.0279,0.0116 -0.0279,0 -0.0561,0 -0.0841,0 -0.0374,0 -0.074,0.005 -0.11077,0.008 -0.0387,0.004 -0.0797,0 -0.11709,0.005 -0.0361,0.005 -0.067,0.0188 -0.10435,0.0195 h -0.079 c -0.0446,0 -0.0784,-0.0123 -0.11871,-0.023 -0.0258,-0.007 -0.0431,-0.007 -0.069,-0.009 -0.0201,0 -0.0388,-0.005 -0.0567,-0.0109 h -0.0697 c -0.0591,0 -0.11578,-0.0114 -0.17487,-0.0114 0.049,0.002 0.0957,-0.0101 0.14467,-0.0109 0.0346,0 0.0668,0.0116 0.0999,0.0223 0.0339,0 0.0675,0 0.1005,0 h 0.4596 z m 4.4245,-0.98416 c -0.0576,0.006 -0.11722,0.002 -0.17557,0.002 h -0.22345 c -0.13674,0 -0.27901,-0.0114 -0.41282,0.006 -0.0525,0.006 -0.10492,0.006 -0.15812,0.006 -0.13511,0 -0.27241,0.0101 -0.40767,-0.003 0.004,-0.003 0.006,-0.004 0.01,-0.006 -0.12076,0.0116 -0.24296,0.0267 -0.36446,0.0366 -0.044,0.004 -0.0633,0.004 -0.0957,0.0109 -0.0187,0.009 -0.0388,0.0114 -0.0611,0.007 -0.11155,0.009 -0.22362,0.0151 -0.33496,0.0208 -0.10439,0.002 -0.20856,0.008 -0.31143,0.0195 -0.0243,-0.006 -0.0453,-0.002 -0.0618,0.0136 0.0187,0.0121 0.0561,0.009 0.0762,0.009 -0.0854,0.0107 -0.171,0.009 -0.25383,0.0374 -0.008,0.003 -0.16951,0.0804 -0.16104,0.12295 0.0539,0.004 0.10784,0.003 0.15977,0.0215 0.006,0.0346 -0.0123,0.0346 -0.0289,0.0626 0.0433,0.0287 0.0885,0.0525 0.12298,0.092 -0.0367,0.0245 -0.071,0.0517 -0.10491,0.0804 -0.0388,0.0203 -0.0646,0.0519 -0.0799,0.0928 0.0455,0.008 0.0908,0.0151 0.13677,0.0203 0.0438,0 0.0854,0.0121 0.12221,0.0374 -0.0361,0.0453 -0.0806,0.0797 -0.13381,0.10344 -0.051,0.0282 -0.0999,0.0604 -0.14669,0.0957 -0.0574,0.0302 -0.10343,0.074 -0.13804,0.13013 0.005,0.0129 0.008,0.0265 0.0116,0.0409 0.0342,0 0.0653,0.0109 0.0928,0.0289 -0.0194,0.0438 -0.0525,0.0661 -0.092,0.0913 -0.0261,0.0173 -0.0834,0.0302 -0.092,0.0596 0.11134,0.0208 0.22215,0.0359 0.33497,0.0503 0.004,0.0252 -0.005,0.044 -0.0286,0.0554 -0.0243,0.0203 -0.0433,0.044 -0.0569,0.0712 0.006,0.0109 0.0138,0.0129 0.0254,0.006 0.0215,0.0274 -0.0648,0.0848 -0.0819,0.10142 -0.0375,0.0324 -0.10654,0.0784 -0.10138,0.1351 0.0604,0.002 0.13084,-0.0136 0.18753,0.006 -0.0948,0.0624 -0.19269,0.1178 -0.29263,0.17172 -0.0374,0.021 -0.10491,0.0418 -0.1307,0.0784 0.0286,0.006 0.0574,0.009 0.0861,0.009 0.0254,0.002 0.0504,0.002 0.0762,0 0.0222,0.0107 0.0425,0.0438 0.0591,0.0618 0.0318,0.0381 0.0359,0.051 0.0574,0.0861 0.006,0.009 0.0152,0.0158 0.0215,0.0267 -0.0215,0.0223 -0.0446,0.0418 -0.0703,0.0589 -0.0296,0.0151 -0.049,0.0374 -0.0606,0.0683 0.0353,0.006 0.0713,0.009 0.10714,0.0109 0.0243,-0.009 0.041,-0.004 0.0504,0.0166 -0.11007,0.0561 -0.21001,0.13086 -0.30921,0.20633 0.004,0.0252 0.018,0.0309 0.0446,0.0193 0.0325,-0.002 0.0633,-0.003 0.0957,-0.004 0,0.0344 -0.0229,0.0567 -0.0676,0.0661 -0.049,0.0309 -0.092,0.069 -0.13085,0.11356 0.0626,0.0376 0.12644,0 0.19343,0.0173 -0.0254,0.007 -0.0519,0.0302 -0.0332,0.0569 0.0106,0.0166 0.097,0.008 0.11723,0.007 0.0381,-0.002 0.0381,-0.009 0.0654,-0.0136 -0.13237,0.0963 -0.289,0.16382 -0.43861,0.22566 0.0145,0.004 0.0303,0 0.0445,0.004 -0.0272,0.008 -0.0552,0.01 -0.0841,0.009 -0.0272,0.008 -0.0473,0 -0.0582,-0.0274 0.0102,-0.023 0.0582,-0.0963 0.0497,-0.12516 0,-0.0171 -0.007,-0.025 -0.0261,-0.0257 -0.0201,-0.008 -0.0374,-0.018 -0.0517,-0.0331 -0.0388,-0.0186 -0.046,-0.051 -0.0229,-0.0985 0.0236,-0.0324 0.0467,-0.0648 0.0703,-0.0985 0.0303,-0.0353 0.069,-0.0539 0.072,-0.10215 -0.0582,-0.0215 -0.0992,-0.0626 -0.1222,-0.12295 -0.004,-0.0351 -0.004,-0.0712 -0.006,-0.10712 0.0145,-0.0928 0.1143,-0.11577 0.1675,-0.17615 -0.0943,-0.0129 -0.20782,-0.007 -0.2934,-0.0524 0.0268,-0.0633 0.12019,-0.0806 0.17984,-0.10437 -0.12297,-0.01 -0.24592,-0.01 -0.3696,-0.0223 0.0799,-0.0381 0.16401,-0.069 0.25015,-0.092 0.0885,0.009 0.12937,-0.0144 0.12513,-0.0725 -0.10858,-0.0109 -0.21847,-0.0173 -0.3278,-0.0237 0.11854,-0.0388 0.23799,-0.0705 0.35451,-0.11578 0.0582,-0.023 0.10915,-0.0497 0.16528,-0.0777 -0.0339,-0.0517 -0.0928,-0.0517 -0.17837,0 -0.24292,0.003 -0.48662,0.004 -0.72901,0.004 -0.1747,0 -0.34862,0 -0.52328,0 -0.0173,-0.005 -0.0317,-0.002 -0.0433,0.01 0.0596,-0.0574 0.12866,-0.10049 0.20927,-0.13142 0.1984,-0.11724 0.39536,-0.23725 0.59171,-0.35817 0.11137,-0.0698 0.22292,-0.15737 0.3422,-0.21203 -0.0346,-0.0116 -0.0698,-0.0144 -0.10788,-0.007 -0.0755,-0.002 -0.1524,-0.002 -0.2286,0 -0.13307,0 -0.26522,0.005 -0.39829,0 0.0396,-0.0151 0.0784,-0.0309 0.11853,-0.0453 0.0208,-0.009 0.049,-0.0101 0.0655,-0.026 -0.11281,-0.0151 -0.22581,-0.0287 -0.33866,-0.0423 0.0109,-0.0121 0.0236,-0.0201 0.0403,-0.023 0.0272,-0.0109 0.0502,-0.0267 0.0705,-0.049 0.0293,-0.0265 0.0928,-0.0639 0.0819,-0.10988 -0.0324,0.004 -0.0626,0.008 -0.095,0.005 -0.004,-0.023 0.0289,-0.0309 0.0445,-0.0381 0.0769,-0.0366 0.15187,-0.0762 0.22807,-0.11209 0.0388,-0.0203 0.0811,-0.0455 0.12369,-0.0583 0.009,-0.002 0.0145,-0.006 0.0251,-0.006 -0.0431,0 -0.0869,0 -0.13011,0 -0.10068,0 -0.19918,0.005 -0.29982,0.0101 -0.0574,0.002 -0.1143,-0.002 -0.171,0 -0.0747,0.002 -0.1489,0.0265 -0.22218,0.0344 -0.0705,0.008 -0.14022,0.0101 -0.21,0.0101 -0.0611,0 -0.12644,-0.006 -0.18754,0.006 -0.0907,0.018 -0.18849,0.0539 -0.28272,0.0324 -0.0388,-0.009 -0.0775,-0.0287 -0.11631,-0.0366 -0.0641,-0.0123 -0.13381,-0.0166 -0.19861,-0.0217 -0.10344,-0.008 -0.21128,-0.002 -0.3162,-0.002 h -0.15755 c -0.0445,0 -0.0861,-0.002 -0.1294,0.006 -0.0641,0.0114 -0.12643,0.0324 -0.18976,0.0438 -0.0346,0.006 -0.069,-0.002 -0.10364,0.005 -0.0194,0.004 -0.0394,0.0153 -0.0596,0.0195 -0.0725,0.0136 -0.15166,0.028 -0.22511,0.0475 -0.0222,0.006 -0.0243,0.0151 -0.0453,0.002 -0.0113,-0.0144 -0.0229,-0.0295 -0.0353,-0.0438 -0.0222,-0.028 -0.046,-0.0554 -0.0705,-0.0819 -0.0286,-0.0317 -0.0408,-0.0366 -0.0804,-0.0287 -0.11796,0.0223 -0.24588,0.009 -0.36681,0.009 -0.0145,-0.0173 -0.0725,0.0178 -0.074,0.0322 0,0.0101 0.0251,0.0425 0.0339,0.0512 0.0258,0.0265 0.0646,0.002 0.0928,0.0302 0.007,0.0144 0.0159,0.0272 0.0279,0.0381 0.006,0.01 0.0152,0.0178 0.0261,0.0245 0.0272,0.0287 0.0502,0.0661 0.0747,0.0977 0.0251,0.0324 0.0446,0.0683 0.072,0.0999 0.0222,0.025 0.0537,0.0488 0.0703,0.0777 0.008,0.0258 0.0166,0.051 0.0244,0.0769 0.0102,0.0309 0.0236,0.0596 0.0425,0.0854 0.0243,0.044 0.0488,0.0863 0.0747,0.12884 0.0453,0.0287 0.0928,0.0525 0.14302,0.0703 0.12665,0.0648 0.26099,0.15037 0.36537,0.24958 0.0466,0.0438 0.0926,0.0999 0.12347,0.15663 0.031,0.0756 0.049,0.15332 0.0547,0.23523 0.008,0.0876 0.0388,0.16749 0.0893,0.23872 0.0321,0.0495 0.0675,0.0963 0.10565,0.14081 0.0475,0.0353 0.0955,0.069 0.1445,0.10215 0.0497,0.0396 0.0906,0.0871 0.12146,0.14172 0.0453,0.0676 0.10217,0.12222 0.17043,0.16602 0.1331,0.10068 0.27979,0.21001 0.45078,0.22069 0.0806,-0.004 0.1603,-0.002 0.24017,0.006 0.0762,0.002 0.1445,0.0267 0.20267,0.0742 0.0102,0.0215 0.0208,0.0453 0.0311,0.0683 0.0418,0.0782 0.10216,0.13878 0.18129,0.18185 0.0819,0.0554 0.17117,0.0985 0.26522,0.12645 0.0512,0.0138 0.10216,0.0237 0.15462,0.0296 0.0891,0.0178 0.17836,0.0409 0.26522,0.069 0.0749,0.0193 0.14598,0.046 0.21646,0.0804 0.0258,0.0223 0.0546,0.0396 0.0863,0.051 0.072,-0.004 0.14372,-0.008 0.21498,-0.0136 0.0863,-0.006 0.17191,-0.0201 0.25527,-0.0423 0.069,-0.0144 0.13878,-0.0287 0.20779,-0.0425 0.0388,-0.0136 0.0762,-0.0316 0.11063,-0.0517 0.0482,-0.0208 0.0827,-0.0344 0.12368,-0.0661 0.0431,-0.0331 0.0806,-0.0554 0.12718,-0.0784 0.049,-0.0351 0.095,-0.0727 0.13952,-0.11283 0.0475,-0.0453 0.10068,-0.0848 0.15755,-0.11945 0.0554,-0.0173 0.11282,-0.0258 0.17099,-0.0258 0.0605,-0.0101 0.12168,-0.0217 0.1813,-0.0346 0.0243,-0.007 0.0488,-0.007 0.0733,-0.002 0.0439,-0.008 0.0878,-0.0193 0.13084,-0.0351 0.0799,-0.028 0.14524,-0.0755 0.19841,-0.14228 0.0597,-0.067 0.12442,-0.12884 0.19494,-0.18405 0.074,-0.044 0.0388,-0.0145 0.064,0.0272 0.0854,-0.0871 0.13656,-0.20559 0.2056,-0.30554 0.1222,-0.17467 0.27386,-0.32357 0.40622,-0.48959 0.10986,-0.13952 0.19692,-0.29412 0.29538,-0.44229 0.0497,-0.0747 0.092,-0.13805 0.12443,-0.21995 0.0194,-0.0482 0.0332,-0.10142 0.0611,-0.14596 0.0403,-0.0618 0.0762,-0.12074 0.10068,-0.19197 0.0279,-0.0819 0.005,-0.16823 0.031,-0.25235 0.0229,-0.074 0.0992,-0.12074 0.15606,-0.16896 0.0328,-0.023 0.0617,-0.0503 0.0869,-0.0806 0.008,-0.0215 0.0145,-0.0431 0.0201,-0.0646 0.007,-0.0188 0.006,-0.0309 0.009,-0.0497 0.005,-0.0309 0.0229,-0.0611 0.0368,-0.0876 0.0106,-0.0208 0.0272,-0.0504 0.0303,-0.0727 -0.0749,0.0116 -0.14743,0.0418 -0.22218,0.0512"
       style="fill:#21201d;fill-opacity:1;fill-rule:nonzero;stroke:none;stroke-width:0.184057"
       id="path678" />
    <path
       d="m 413.74009,232.21175 c -0.01,0 -0.0208,-0.006 -0.0303,-0.0144 0,0.004 0.004,0.008 0.004,0.0129 0.009,0.002 0.018,0.002 0.0265,0.002"
       style="fill:#21201d;fill-opacity:1;fill-rule:nonzero;stroke:none;stroke-width:0.184057"
       id="path680" />
    <path
       d="m 413.33111,232.46133 c 0.008,0.003 0.0169,0.005 0.0257,0.008 -0.01,0.002 -0.0201,0.004 -0.0317,0.004 -0.0215,0.002 -0.0431,-0.004 -0.0653,0 -0.004,0 -0.008,0.002 -0.0116,0.003 l 0.004,-0.004 c 0.0102,-0.008 0.0173,-0.0158 0.0254,-0.0238 0.0169,0.004 0.0353,0.009 0.0539,0.0138 m -4.58209,0.008 c -0.004,-0.0173 -0.0173,-0.0145 -0.0279,-0.0223 -0.0131,-0.0101 -0.0261,-0.0267 -0.0361,-0.0375 -0.0243,-0.0258 -0.018,-0.0582 -0.0152,-0.092 0.004,-0.0164 0.005,-0.0337 0.0194,-0.0416 0.0236,-0.0136 0.0676,0.004 0.092,-0.006 0.0243,-0.009 0.0416,-0.0512 0.0611,-0.0698 0.0236,-0.0215 0.0475,-0.026 0.0769,-0.0381 0.0236,-0.009 0.0388,-0.0267 0.0619,-0.0381 0.0138,-0.006 0.0222,-0.0123 0.0317,-0.0223 0.0303,-0.0324 0.0596,-0.0769 0.0985,-0.0979 0.0243,-0.0121 0.0618,-0.0322 0.0884,-0.0381 0.0403,-0.008 0.0885,0.003 0.12735,0.004 0.0366,0.002 0.0718,0.004 0.10859,0.005 -0.049,0.0425 -0.0986,0.0841 -0.14965,0.12442 -0.041,0.0324 -0.0791,0.0653 -0.11649,0.10068 -0.0145,0.0129 -0.0403,0.0302 -0.046,0.048 -0.006,0.018 0,0.0497 0,0.067 0,0.0114 0,0.0237 0,0.0351 -0.0366,0.0512 -0.0683,0.1086 -0.0883,0.16474 -0.0109,0.0309 -0.0212,0.0589 -0.0282,0.0913 -0.006,0.0265 -0.005,0.0488 -0.007,0.0755 -0.004,0.0468 -0.0335,0.0596 -0.0631,0.0891 -0.0159,0.0151 -0.0254,0.0374 -0.0353,0.0561 -0.0113,0.0215 -0.0187,0.0446 -0.0325,0.0641 -0.0208,0.0295 -0.051,0.0552 -0.0574,0.092 -0.006,0.0381 0,0.0668 0.0138,0.10124 0.0152,0.0418 -0.0261,0.0863 -0.0532,0.11724 -0.0138,0.0158 -0.0194,0.0267 -0.0215,0.0381 -0.004,0.006 -0.008,0.0123 -0.0123,0.0188 -0.0222,0.0396 -0.0159,0.0705 -0.008,0.11209 0.007,0.0388 -0.004,0.0913 -0.006,0.13087 0.004,-0.002 0.005,-0.004 0.006,-0.007 -0.004,0.0109 -0.005,0.0201 -0.006,0.0309 0,0.009 -0.004,0.0144 0,0.0223 0.0123,-0.002 0.0159,-0.0144 0.0286,-0.0158 0.0102,-0.0396 0.0145,-0.0804 0.0166,-0.12147 0.006,-0.0116 0.0123,-0.023 0.0152,-0.0331 0.005,-0.0165 -0.004,-0.0374 0,-0.0532 0.004,-0.009 0.01,-0.01 0.013,-0.0201 0.004,-0.0129 -0.004,-0.0295 0,-0.0433 0.004,-0.008 0.005,-0.0164 0.009,-0.0236 0.0159,-0.008 0.0353,-0.0131 0.0524,-0.021 0.0527,-0.028 0.0878,-0.0668 0.1338,-0.10271 0.0159,-0.0123 0.0317,-0.0173 0.049,-0.0245 0.0366,-0.0151 0.0725,-0.0245 0.11211,-0.0302 0.0279,-0.004 0.0546,-0.009 0.0811,-0.0158 0.0138,-0.003 0.044,-0.003 0.0547,-0.0101 0.0109,-0.006 0.0138,-0.0193 0.0159,-0.0302 0.01,-0.0488 0.005,-0.10639 0.006,-0.15737 0,-0.044 0.0123,-0.0648 0.0418,-0.0979 0.0265,-0.0302 0.0495,-0.0409 0.0883,-0.0611 0.0756,-0.0381 0.13804,-0.0977 0.21075,-0.1408 0.0423,-0.026 0.0898,-0.0468 0.13582,-0.0648 0.0275,-0.0114 0.0554,-0.028 0.0841,-0.0324 0.0138,-0.002 0.0275,-0.002 0.0403,-0.002 0.0127,0.003 0.0261,0.006 0.0388,0.0114 0.007,-0.006 0.0152,-0.01 0.0229,-0.0151 0.0539,-0.005 0.11137,-0.004 0.16528,-0.004 0.009,0 0.0166,0 0.0254,0 0.0145,0.006 0.0279,0.0114 0.0411,0.0208 0.0359,-0.008 0.0703,-0.0116 0.10195,-0.002 0.044,0.0123 0.0212,0.0331 0.0519,0.0583 0.0113,-0.003 0.0243,-0.005 0.0374,-0.005 0.004,0 0.005,-0.002 0.007,-0.002 0.0475,-0.004 0.0841,0.004 0.12369,0.021 0.005,-0.002 0.01,-0.002 0.0152,-0.004 l 0.28747,0.25031 c 0.0633,0.0582 0.12369,0.12075 0.17763,0.18903 0.0561,0.0151 0.1071,0.0495 0.13952,0.10639 0.12517,0.22584 0.27534,0.48241 0.29337,0.74636 0.006,0.0856 -0.008,0.16822 -0.0282,0.24865 0.0116,0.0195 0.0201,0.0403 0.0222,0.0618 0.0236,0.23799 -0.0445,0.46382 -0.18975,0.6177 -0.0279,0.0631 -0.0596,0.12295 -0.0977,0.1732 -0.004,0.0144 -0.008,0.0287 -0.0138,0.0425 -0.0131,0.0315 -0.0604,0.10271 -0.0972,0.0992 0.0475,0.0631 0.0604,0.0718 0.11797,0.079 0.0569,0.009 0.11356,-0.003 0.17116,-0.002 0.0272,0 0.0553,0.002 0.0834,0.004 0.0374,0.002 0.12002,-0.003 0.15459,0.0203 0.0236,0.0157 0.0446,0.071 0.046,0.097 0.004,0.0517 -0.0117,0.10786 -0.0482,0.14375 -0.0438,0.0425 -0.0943,0.0604 -0.0698,0.13013 0.01,0.0287 0.0152,0.0317 0.0418,0.026 0.0453,-0.0101 0.0941,0.0179 0.1301,0.0416 0.0152,0.0109 0.048,0.0445 0.0676,0.0411 0.006,-0.0151 0,-0.0346 0.004,-0.0503 0.004,-0.0237 0.01,-0.0425 0.0194,-0.0626 0.0215,-0.0418 0.0625,-0.0913 0.11282,-0.0965 0.0194,-0.003 0.0396,0.005 0.0596,0 0.0236,-0.007 0.0353,-0.0344 0.0467,-0.0539 0.0396,-0.0661 0.0648,-0.13805 0.0908,-0.20928 0.0152,-0.0438 0.0416,-0.0819 0.0581,-0.12424 0.0293,-0.0712 0.0992,-0.11724 0.16326,-0.15387 0.0346,-0.0203 0.092,-0.044 0.10841,-0.0856 0.0187,-0.007 0.0254,-0.0245 0.0275,-0.0418 0.004,-0.0309 -0.004,-0.0661 -0.004,-0.097 0,-0.0388 -0.0145,-0.072 -0.0208,-0.11006 -0.009,-0.0394 -0.031,-0.0631 -0.0546,-0.0977 -0.0173,-0.0223 -0.0525,-0.0618 -0.0611,-0.0883 -0.004,-0.0109 0,-0.0223 0,-0.0331 0,-0.0121 -0.008,-0.0208 -0.0113,-0.0324 -0.006,-0.0265 -0.0159,-0.0524 -0.0236,-0.0804 -0.005,-0.018 -0.01,-0.0309 -0.0194,-0.0453 -0.006,-0.007 -0.0113,-0.007 -0.0152,-0.0173 -0.006,-0.0158 0,-0.041 -0.004,-0.0589 -0.005,-0.0245 -0.0145,-0.0519 -0.0236,-0.0756 -0.004,-0.0107 -0.008,-0.0136 -0.0102,-0.0265 0,-0.0144 0,-0.0287 -0.004,-0.0438 -0.007,-0.026 -0.0212,-0.0353 -0.0212,-0.0633 0,-0.0388 -0.008,-0.0734 0.0102,-0.1086 0.008,-0.0173 0.0325,-0.0403 0.0303,-0.0604 -0.004,-0.0116 -0.01,-0.013 -0.0113,-0.0223 -0.004,-0.009 -0.004,-0.0188 -0.004,-0.0289 -0.10068,-0.14375 -0.13084,-0.34364 -0.069,-0.51905 0.12587,-0.35799 0.41413,-0.44505 0.72408,-0.41486 0.11133,-0.0107 0.21773,0.004 0.31619,0.0374 0.008,0.007 0.0152,0.0151 0.0222,0.0237 0.0208,0.0238 0.0433,0.021 0.069,0.0411 0.0201,0.018 0.0433,0.0331 0.0648,0.051 0.007,0.0158 0.0138,0.0317 0.0159,0.0425 0.008,0.0388 -0.0127,0.0582 -0.0359,0.0849 -0.0102,0.0107 -0.0219,0.0151 -0.0317,0.025 -0.0116,0.0109 -0.0145,0.0282 -0.0282,0.0381 -0.0152,0.0101 -0.0353,0.0188 -0.0517,0.026 -0.0532,0.0223 -0.12149,0.0359 -0.16972,-0.005 -0.0166,-0.0123 -0.0395,-0.0302 -0.0495,-0.0497 0,-0.002 0,-0.004 -0.004,-0.006 0,0.006 -0.004,0.0129 -0.004,0.018 -0.004,0.0121 -0.012,0.0151 0,0.0309 0.007,0.007 0.0226,0.0114 0.0303,0.0186 0.0222,0.023 0.0321,0.0497 0.0676,0.0561 0.0416,0.008 0.10195,0.009 0.14668,0.003 0.0187,-0.003 0.0374,-0.0121 0.0559,-0.0151 0.0159,-0.002 0.0317,0.002 0.0475,0 0.0208,-0.004 0.0396,-0.0243 0.0611,-0.0295 0.0236,-0.005 0.0453,0.005 0.0633,0.0144 0.005,0.003 0.0279,0.0138 0.0332,0.0138 0.012,-0.002 0.012,-0.0123 0.0215,-0.0166 0.004,-0.003 0.008,-0.004 0.0106,-0.004 0.0116,0.0145 0.0236,0.0302 0.0201,0.0396 0.004,-0.0173 -0.006,-0.0287 -0.008,-0.0453 0,0 0,-0.003 0,-0.004 v 0 c 0.004,-0.006 0,-0.0173 0,-0.026 v -0.009 c 0,-0.0237 0.007,-0.051 0.004,-0.074 -0.004,-0.0116 -0.01,-0.0208 -0.0106,-0.0324 -0.004,-0.0109 0.004,-0.023 0.004,-0.0337 0,-0.0388 -0.0138,-0.0576 -0.031,-0.0856 -0.008,-0.0131 -0.018,-0.0223 -0.0272,-0.0309 0.069,0 0.13805,0.004 0.20779,0.01 0.006,0.007 0.012,0.0145 0.0173,0.0223 0.007,0.0151 0.0131,0.0316 0.007,0.0512 -0.004,0.0107 -0.0296,0.0388 -0.004,0.0438 0.0381,0.006 0.0525,-0.0755 0.0468,-0.0992 -0.008,-0.0272 -0.0381,-0.0525 -0.0683,-0.0727 -0.0123,-0.0265 -0.0346,-0.0409 -0.0676,-0.0416 -0.0173,-0.007 -0.0353,-0.0129 -0.0526,-0.0188 -0.0145,-0.006 -0.0293,-0.0144 -0.0423,-0.0237 -0.0173,-0.0114 -0.0279,-0.0287 -0.0453,-0.0431 -0.0275,-0.023 -0.0453,-0.0561 -0.0734,-0.0777 -0.0229,-0.0165 -0.0488,-0.0294 -0.0755,-0.0409 l 0.20207,-0.0425 c 0.0229,0.002 0.0567,0.004 0.0769,0.0144 0.0159,0.009 0.0215,0.026 0.0367,0.0374 0.0127,0.008 0.0293,0.0109 0.043,0.018 0.008,0.004 0.018,0.0121 0.0254,0.0173 0.0425,0.025 0.0992,0.0374 0.14743,0.0488 0.0318,0.007 0.13437,0.0324 0.0812,-0.0257 -0.0453,-0.0497 -0.13507,-0.0158 -0.19325,-0.0554 -0.018,-0.0129 -0.0145,-0.0267 -0.0173,-0.0502 -0.005,-0.0339 -0.0116,-0.0425 -0.0403,-0.0641 -0.0438,-0.0346 -0.0747,-0.0468 -0.13014,-0.049 -0.018,0 -0.0366,0.002 -0.0539,-0.004 -0.0194,-0.006 -0.0335,-0.0188 -0.0554,-0.0223 -0.0131,-0.002 -0.0265,0 -0.0401,-0.002 -0.0152,0 -0.0212,-0.004 -0.0325,-0.008 0.004,-0.0101 0.007,-0.0195 0.0106,-0.0309 0.005,-0.0245 0.0123,-0.049 0.0194,-0.0747 0.0236,-0.0138 0.0488,-0.0131 0.0733,-0.023 0.018,-0.007 0.0353,-0.0136 0.0546,-0.0195 0.0411,-0.0107 0.0806,-0.0272 0.12075,-0.0381 0.0275,0.004 0.0222,0.0109 0.044,0.0245 0.012,0.009 0.0243,0.009 0.0381,0.0136 0,0.0539 0.097,0.09 0.12295,0.12442 0.0106,0.0151 0.008,0.0252 0.0113,0.0418 0.004,0.0179 0.0131,0.0337 0.0173,0.0525 0.006,0.0309 -0.01,0.0366 -0.0286,0.0567 0.0173,-0.0158 0.0473,-0.0416 0.0532,-0.0639 0.006,-0.0223 0.004,-0.0381 0.018,-0.0598 0.0173,-0.0243 0.0194,-0.0409 0.0131,-0.0661 0.007,0.008 0.0152,0.018 0.025,0.0274 -0.004,-0.009 -0.006,-0.0195 -0.008,-0.0289 -0.004,-0.0186 0,-0.0401 -0.005,-0.0604 -0.009,-0.0517 -0.031,-0.092 -0.0661,-0.13362 -0.0138,-0.0173 -0.0116,-0.0131 -0.0396,-0.0173 -0.0339,-0.006 -0.0676,-0.0173 -0.0999,-0.0294 0.004,0.002 0.005,0.003 0.007,0.005 0.006,0.006 0.0109,0.0116 0.0159,0.018 -0.006,0 -0.0109,-0.002 -0.0159,-0.004 -0.012,-0.006 -0.0166,-0.0129 -0.0272,-0.0193 -0.0368,-0.0215 -0.0834,-0.0331 -0.11797,-0.0576 -0.006,-0.004 -0.0102,-0.006 -0.0145,-0.009 0.0173,0 0.0359,0 0.0539,0.005 0.004,0.004 0.004,0.008 0.008,0.0107 0.0229,0.0138 0.0409,0.0309 0.0661,0.0418 0.008,0.003 0.0159,0.006 0.0236,0.009 -0.0187,-0.0173 -0.0411,-0.0331 -0.0604,-0.0475 -0.0201,-0.0158 -0.0325,-0.0287 -0.0497,-0.0475 -0.009,-0.009 -0.0208,-0.0166 -0.0303,-0.026 -0.0353,-0.0366 -0.0675,-0.0589 -0.11134,-0.0861 -0.0275,-0.0173 -0.0517,-0.0339 -0.0856,-0.0403 -0.0236,-0.005 -0.049,0.002 -0.0712,-0.002 -0.0335,-0.005 -0.0675,-0.0215 -0.0999,-0.0324 -0.0286,-0.008 -0.0559,-0.0171 -0.0849,-0.023 0,0 0,-0.002 0,-0.002 0,-0.021 -0.004,-0.041 -0.0138,-0.0606 -0.004,-0.0151 -0.0102,-0.0294 -0.0173,-0.0431 0.004,-0.004 0.004,-0.006 0.004,-0.0101 0.007,0 0.0194,0.002 0.0254,0 0.0152,-0.006 0.01,-0.0129 0.0173,-0.0215 0.0173,-0.0179 0.0116,-0.003 0.0317,0.002 0.03,0.009 0.0403,-0.0195 0.064,-0.028 0.0236,-0.009 0.0265,0.004 0.0423,0.0136 0.0173,0.0121 0.0361,0.018 0.0532,0.0316 0.0145,0.0129 0.0261,0.0237 0.044,0.0287 0.0152,0.006 0.0318,0.009 0.048,0.0136 0.008,0.003 0.0194,0.003 0.0303,0.004 -0.01,-0.0101 -0.0201,-0.0237 -0.0243,-0.0289 0,0 0,-0.002 -0.004,-0.003 0.0194,0.0107 0.0366,0.0223 0.0525,0.0366 -0.007,-0.003 -0.0173,-0.004 -0.0261,-0.005 0.0116,0.0114 0.0236,0.0201 0.0275,0.007 0,0 0.004,0.002 0.004,0.004 -0.008,-0.0101 -0.0152,-0.0215 -0.0229,-0.0302 -0.0215,-0.0237 -0.0495,-0.0475 -0.0776,-0.0676 0,0 0,0 0,0 -0.0512,-0.0569 -0.14467,-0.0705 -0.21791,-0.0747 -0.0279,0 -0.0569,-0.002 -0.0856,-0.003 -0.0208,0 -0.0423,-0.002 -0.0641,-0.003 -0.0208,-0.0107 -0.0401,-0.0265 -0.0631,-0.0359 -0.0243,-0.0101 -0.0505,-0.0186 -0.0734,-0.0295 -0.0272,-0.0121 -0.0559,-0.0188 -0.0819,-0.0346 -0.0286,-0.0164 -0.0576,-0.0315 -0.0819,-0.0532 -0.0325,-0.0272 -0.0561,-0.0552 -0.0979,-0.0675 -0.0229,-0.006 -0.0453,-0.0114 -0.0683,-0.0178 -0.0279,-0.009 -0.0502,-0.0101 -0.0804,-0.0123 -0.0102,0 -0.0194,0 -0.0286,0.002 -0.0282,-0.0121 -0.0569,-0.0252 -0.0806,-0.0445 -0.0166,-0.0123 -0.0236,-0.0195 -0.0229,-0.0381 -0.0403,-0.007 -0.0812,-0.0101 -0.1215,-0.018 -0.031,-0.006 -0.0152,-0.009 -0.031,-0.0166 -0.0152,-0.008 -0.10785,-0.0359 -0.0891,-0.051 -0.0102,0 -0.0194,0 -0.0289,0 -0.005,-0.009 -0.0106,-0.0195 -0.0173,-0.0316 -0.0282,-0.0532 -0.0539,-0.10289 -0.11649,-0.11799 -0.0705,-0.0179 -0.15039,-0.0164 -0.22289,-0.0151 -0.0236,0 -0.0482,0.0145 -0.0698,0.0138 -0.0127,0 -0.0145,-0.008 -0.0243,-0.0116 -0.0138,-0.006 -0.0215,-0.009 -0.0388,-0.0107 -0.0804,-0.008 -0.15236,-0.0554 -0.23227,-0.0712 -0.0495,-0.0109 -0.0913,0.002 -0.14153,0.0114 -0.0359,0.006 -0.0755,0.009 -0.11007,0.0195 -0.0438,0.0144 -0.0596,0.0547 -0.0898,0.0869 -0.0359,0.0388 -0.0438,0.0388 -0.0885,0.023 -0.0675,-0.023 -0.16033,-0.0322 -0.22345,0.007 -0.0734,0.046 -0.12093,0.12811 -0.16252,0.20062 -0.0222,0.0396 -0.0388,0.0735 -0.046,0.11504 -0.008,0.0418 -0.0131,0.0907 -0.0275,0.13381 -0.0194,0.0596 -0.0539,0.12001 -0.0106,0.1732 -0.0268,0.0215 0.18038,0.0361 0.14524,0.0425 -0.0229,-0.005 -0.046,-0.0123 -0.0697,-0.018 -0.0518,-0.0186 -0.095,-0.0604 -0.13088,-0.10142 -0.0906,-0.10417 -0.11797,-0.21626 -0.25602,-0.26301 -0.0215,-0.0144 -0.0416,-0.0131 -0.0611,0.006 -0.004,0.002 -0.005,0.004 -0.007,0.005 h -0.004 c -0.01,0 -0.0219,-0.002 -0.0325,0 -0.0123,0.002 -0.0194,0.0136 -0.0286,0.0173 -0.0282,0.009 -0.0648,-0.002 -0.095,-0.002 -0.0395,0 -0.10933,0.026 -0.14171,0 -0.0113,-0.009 -0.0162,-0.0287 -0.025,-0.0396 -0.008,-0.0121 -0.0229,-0.0337 -0.0339,-0.0431 -0.0236,-0.018 -0.0517,-0.0252 -0.0804,-0.0265 -0.0605,-0.004 -0.11575,0.0223 -0.17558,0.0243 -0.0314,0 -0.0589,0.0158 -0.0891,0.018 -0.018,0.002 -0.018,-0.002 -0.0346,0.0101 -0.0368,0.025 -0.0749,0.0438 -0.11006,0.0697 -0.0374,0.0265 -0.064,0.0352 -0.11152,0.0243 -0.0328,-0.006 -0.0841,-0.0409 -0.1156,-0.0171 -0.0166,0.0121 -0.018,0.0388 -0.0282,0.0567 -0.0113,0.0188 -0.0208,0.0173 -0.0113,0.0433 0.006,0.0215 0.0215,0.0366 0.0229,0.0596 0.004,0.0381 0,0.0856 0.0374,0.10639 0.0201,0.0109 0.0381,0.009 0.0604,0.0101 0.0303,0.002 0.074,0.0121 0.10343,0.004 0.0138,-0.004 0.049,-0.008 0.0396,-0.028 -0.0229,0.006 -0.046,0.0107 -0.0711,-0.007 -0.0123,-0.009 -0.0254,-0.0274 -0.0353,-0.0396 -0.0339,-0.0433 0,-0.095 0.0433,-0.12019 0.0229,-0.0129 0.0466,-0.0243 0.074,-0.0186 0.0257,0.007 0.0661,0.0475 0.0863,0.0626 0.0201,0.0144 0.0359,0.028 0.0604,0.0316 0.0353,0.006 0.0475,0.002 0.0661,-0.023 0.0173,-0.0245 0.0324,-0.0381 0.0353,-0.0683 0.018,-0.005 0.0401,0 0.0596,0 0.0374,0.002 0.0762,0.004 0.11355,0.0138 0.0353,0.009 0.0532,0.0216 0.0762,0.0488 0.0236,0.0295 0.0539,0.0525 0.0777,0.0821 0.008,0.009 0.0152,0.0208 0.0222,0.0322 -0.004,0.002 -0.004,0.004 -0.006,0.005 -0.0194,-0.007 -0.0418,-0.0223 -0.0583,-0.0324 -0.006,-0.004 -0.018,-0.0116 -0.031,-0.0208 0.008,0.0151 0.0194,0.0287 0.0346,0.0388 0.0113,0.009 0.0243,0.0164 0.0359,0.0243 -0.0113,0.007 -0.0243,0.0116 -0.03,0.0151 -0.0229,0.0145 -0.0403,0.0289 -0.0646,0.0375 -0.0332,0.0114 -0.0662,0.0208 -0.0992,0.0344 -0.0166,0.006 -0.0324,0.0129 -0.0504,0.0136 -0.0423,0.002 -0.0733,0.007 -0.11282,0.026 -0.0282,0.0136 -0.0562,0.0272 -0.0856,0.0344 -0.0229,0.004 -0.0339,0 -0.0517,0.0173 -0.0282,0.0252 -0.0332,0.0697 -0.0626,0.0957 -0.0251,0.023 -0.0633,0.028 -0.095,0.0409 -0.0374,0.0158 -0.0661,0.0418 -0.0985,0.0633 -0.0646,0.0431 -0.14227,0.0475 -0.21646,0.0618 -0.0208,0.004 -0.0401,0.004 -0.0596,0.0116 -0.0325,0.0151 -0.0661,0.051 -0.0871,0.0775 -0.025,0.0317 -0.0431,0.0685 -0.0661,0.0999 -0.0127,0.0173 -0.0258,0.0324 -0.0346,0.0512 -0.0208,0.0403 -0.0222,0.0848 -0.004,0.12498 0.0279,0.0618 0.1064,0.0928 0.17614,0.0756"
       style="fill:#21201d;fill-opacity:1;fill-rule:nonzero;stroke:none;stroke-width:0.184057"
       id="path682" />
    <path
       d="m 413.24553,231.59773 c -0.005,-0.006 -0.0102,-0.009 -0.0152,-0.0136 0.005,0.006 0.01,0.0109 0.0152,0.0136"
       style="fill:#21201d;fill-opacity:1;fill-rule:nonzero;stroke:none;stroke-width:0.184057"
       id="path684" />
  </g>
</svg>
