<?xml version="1.0" encoding="UTF-8" standalone="no"?>
<!-- Created with Inkscape (http://www.inkscape.org/) -->

<svg
   width="17.79167mm"
   height="17.784807mm"
   viewBox="0 0 17.79167 17.784807"
   version="1.1"
   id="svg3169"
   inkscape:version="1.1.2 (0a00cf5339, 2022-02-04)"
   sodipodi:docname="set.svg"
   xmlns:inkscape="http://www.inkscape.org/namespaces/inkscape"
   xmlns:sodipodi="http://sodipodi.sourceforge.net/DTD/sodipodi-0.dtd"
   xmlns="http://www.w3.org/2000/svg"
   xmlns:svg="http://www.w3.org/2000/svg">
  <sodipodi:namedview
     id="namedview3171"
     pagecolor="#ffffff"
     bordercolor="#666666"
     borderopacity="1.0"
     inkscape:pageshadow="2"
     inkscape:pageopacity="0.0"
     inkscape:pagecheckerboard="0"
     inkscape:document-units="mm"
     showgrid="false"
     inkscape:zoom="0.64052329"
     inkscape:cx="1245.8563"
     inkscape:cy="472.2701"
     inkscape:window-width="2560"
     inkscape:window-height="1376"
     inkscape:window-x="0"
     inkscape:window-y="0"
     inkscape:window-maximized="1"
     inkscape:current-layer="layer1" />
  <defs
     id="defs3166" />
  <g
     inkscape:label="Layer 1"
     inkscape:groupmode="layer"
     id="layer1"
     transform="translate(224.52094,-23.740479)">
    <path
       d="m -222.89808,36.932087 c -0.001,-0.0014 -0.003,-0.0035 -0.004,-0.0046 7.1e-4,0 7.1e-4,0 7.1e-4,3.52e-4 10e-4,0.0014 0.002,0.0028 0.004,0.0041 m 16.1097,-2.789428 c -0.0469,0.08399 -0.0615,0.173398 -0.11566,0.254678 -0.1165,0.173397 -0.22301,0.371178 -0.37642,0.513249 -0.11837,0.10922 -0.25604,0.174752 -0.38371,0.271272 -0.10313,0.07806 -0.20896,0.158157 -0.32275,0.219625 -0.023,0.01252 -0.0528,0.01983 -0.0747,0.03369 -0.0378,0.02388 -0.0715,0.0701 -0.10448,0.101938 -0.0496,0.04691 -0.0974,0.09517 -0.14427,0.145458 -0.13699,0.148844 -0.25671,0.313605 -0.39217,0.463634 -0.12836,0.14224 -0.26721,0.272627 -0.40945,0.398272 -0.0906,0.07993 -0.18593,0.145458 -0.2772,0.222843 -0.0337,0.02843 -0.0628,0.06756 -0.0999,0.09195 -0.025,0.01729 -0.0503,0.01912 -0.076,0.0332 -0.0278,0.01439 -0.051,0.0403 -0.0787,0.05622 -0.0469,0.02776 -0.10126,0.04284 -0.14546,0.07535 -0.041,0.03048 -0.0689,0.07214 -0.10261,0.111083 -0.23284,0.264668 -0.41605,0.584031 -0.69258,0.801624 -0.0945,0.07484 -0.17915,0.151553 -0.28041,0.217085 -0.0628,0.04098 -0.12836,0.07806 -0.19253,0.117687 -0.0938,0.05757 -0.16663,0.131572 -0.24791,0.205063 -0.0676,0.06011 -0.14816,0.126322 -0.22233,0.176614 -0.0576,0.03895 -0.12768,0.05029 -0.1944,0.06553 -0.13563,0.0303 -0.27195,0.04826 -0.40352,0.09584 -0.002,0.04098 -0.0166,0.04826 -0.0357,0.06689 -0.0562,-0.0047 -0.12107,7.05e-4 -0.15612,0.0046 -0.009,0.06485 -0.0344,0.08263 -0.0892,0.112437 -0.11583,0.06214 -0.23165,0.126323 -0.34138,0.198459 -0.12175,0.08009 -0.23283,0.164761 -0.36373,0.228261 -0.10261,0.04962 -0.21302,0.07671 -0.31496,0.127 -0.24079,0.118364 -0.48886,0.240623 -0.75336,0.289052 -0.1568,0.02843 -0.28973,0.05876 -0.43586,0.121581 -0.0582,0.02727 -0.11837,0.04826 -0.18136,0.06231 -0.0423,-0.01591 -0.0793,-0.04182 -0.10973,-0.07688 -0.0674,-0.05554 -0.0417,-0.02642 -0.076,0.01337 -0.0603,0.06943 -0.24739,0.06739 -0.32884,0.06807 -0.12954,7.06e-4 -0.254,-0.0021 -0.38287,0.01524 -0.055,0.0073 -0.11125,0.008 -0.16679,0.0046 -0.0284,-0.0014 -0.0417,-0.01118 -0.0642,-0.01591 -0.0594,-0.0059 -0.11904,-0.0091 -0.17847,-0.01118 -0.0576,-0.0086 -0.11515,-0.01457 -0.17272,-0.01796 -0.074,-0.0025 -0.17255,0.02184 -0.24401,-0.0018 0.004,-0.03573 -0.009,-0.05232 -0.0384,-0.0635 -0.0178,-0.0066 -0.0681,-0.0028 -0.0899,-0.0059 -0.13157,-0.01997 -0.26331,-0.05029 -0.39353,-0.07806 -0.0669,-0.0139 -0.12107,-0.0205 -0.17729,-0.05757 -0.0437,-0.02914 -0.0919,-0.0332 -0.13699,-0.05622 -0.15477,-0.07874 -0.25925,-0.258741 -0.37372,-0.383709 -0.11498,-0.125645 -0.28313,-0.136313 -0.43654,-0.184573 -0.19186,-0.06079 -0.3744,-0.146812 -0.5649,-0.208958 -0.10973,-0.03573 -0.2137,-0.03776 -0.32732,-0.03573 -0.32952,0.0053 -0.6582,-0.02981 -0.98755,-0.0205 -0.20777,0.0059 -0.33816,-0.107866 -0.49547,-0.227584 -0.17932,-0.136314 -0.35255,-0.283803 -0.53983,-0.406739 -0.0774,-0.05097 -0.12633,-0.117856 -0.18915,-0.182541 -0.0767,-0.07874 -0.19439,-0.136991 -0.29566,-0.169334 -0.084,-0.02776 -0.16069,-0.03182 -0.21759,-0.10651 -0.0483,-0.06282 -0.0821,-0.111083 -0.14563,-0.159512 -0.0813,-0.06215 -0.15206,-0.16002 -0.24197,-0.206926 -0.0742,-0.03912 -0.14614,-0.04826 -0.21827,-0.100584 -0.0874,-0.06485 -0.17476,-0.183218 -0.28177,-0.219625 -0.0212,-0.0073 -0.0391,0 -0.0596,-0.0093 -0.0364,-0.01644 -0.074,-0.06418 -0.10651,-0.107696 0.0186,0.01252 0.0384,0.02371 0.0549,0.03759 0.0173,-0.0205 0.0273,-0.04623 0.0405,-0.0701 0.0508,-0.09449 0.11498,-0.174583 0.18187,-0.257895 0.12293,-0.153416 0.24672,-0.301075 0.3473,-0.472271 0.12954,-0.219625 0.22742,-0.461772 0.37033,-0.668697 0.0582,-0.08416 0.10516,-0.179324 0.11447,-0.282448 0.009,-0.0933 0.082,-0.158835 0.14478,-0.218948 0.0325,-0.03115 0.0835,-0.05436 0.11125,-0.08738 0.0489,-0.05757 0.0581,-0.178647 0.0892,-0.247396 0.0688,-0.154771 0.17137,-0.294979 0.23944,-0.451104 0.11176,-0.256709 0.16205,-0.537125 0.25603,-0.799761 0.0324,-0.08992 0.0601,-0.193718 0.12497,-0.265176 0.018,-0.01983 0.0417,-0.03912 0.0603,-0.05961 0.0435,-0.04961 0.0781,-0.101769 0.11312,-0.159342 0.0793,-0.131572 0.17593,-0.252646 0.26246,-0.378291 0.0967,-0.1397 0.20185,-0.271949 0.3175,-0.394885 0.14749,-0.156803 0.29566,-0.311574 0.42537,-0.484294 0.0808,-0.107188 0.15155,-0.210989 0.17458,-0.347302 0.0127,-0.07332 0.0232,-0.146135 0.0483,-0.216916 0.0689,-0.193718 0.23487,-0.356447 0.36254,-0.511218 0.14292,-0.173397 0.32275,-0.307001 0.46499,-0.482261 0.12971,-0.16002 1.09999,-1.764792 1.55313,-2.465324 l 0.0906,0.06485 c -0.2203,0.453136 -0.56151,1.098126 -0.41469,0.90153 -0.0489,0.103971 -0.12904,0.192532 -0.19186,0.287867 -0.20371,0.309541 -0.35848,0.642281 -0.51918,0.980271 -0.0423,0.08924 -0.0728,0.183218 -0.10261,0.277706 -0.0291,0.09059 -0.0774,0.178647 -0.0886,0.27449 0.0649,-0.0442 0.13157,-0.143426 0.17797,-0.197782 0.1507,-0.17255 0.30886,-0.325966 0.47481,-0.483446 0.10126,-0.09533 0.30175,-0.527812 0.42536,-0.59199 0.0258,-0.01319 0.62112,-0.648885 0.64093,-0.638386 -0.0417,0.05436 -0.16273,0.488865 -0.19253,0.550333 -0.0899,0.182541 -0.1905,0.277876 -0.25587,0.470408 -0.0246,0.07146 -0.043,0.365083 -0.34205,0.716957 -0.10177,0.120396 -0.29041,0.417407 -0.33003,0.570823 -0.0284,0.108543 -0.0826,0.208449 -0.12429,0.311573 -0.0339,0.08331 -0.0596,0.172043 -0.0992,0.251968 -0.0291,0.05757 -0.0589,0.107188 -0.0808,0.168656 -0.0212,0.06028 -0.18711,0.402167 -0.25925,0.490898 0.0945,-0.09923 0.34984,-0.394208 0.43654,-0.451782 0.16595,-0.111082 0.28973,-0.26924 0.44586,-0.392345 0.12429,-0.09788 0.53441,-0.804333 0.67326,-0.883581 0.0152,0.05148 0.2137,-0.263991 -0.14935,0.993478 -0.043,0.150199 -0.2667,0.135636 -0.2904,0.289052 -0.0166,0.103124 -0.041,0.199814 -0.0669,0.300228 -0.0271,0.105834 -0.0291,0.216408 -0.0569,0.321564 -0.0403,0.155448 -0.0721,0.308864 -0.11311,0.462958 -0.031,0.115824 -0.092,0.208449 -0.13293,0.318854 -0.041,0.110406 -0.0608,0.222843 -0.0972,0.335958 -0.0191,0.06028 -0.0476,0.116501 -0.0655,0.177292 -0.0139,0.04894 -0.0178,0.09991 -0.0324,0.148844 -0.012,0.0403 -0.0271,0.08196 -0.043,0.123105 0.0522,-0.08805 0.11769,-0.170011 0.17594,-0.252137 0.0417,0.0193 0.0417,0.05757 0.001,0.113792 -0.0516,0.140208 -0.10126,0.28177 -0.14952,0.423333 -0.0794,0.262636 -0.13293,0.535093 -0.18779,0.804333 -0.0345,0.167471 -0.0623,0.336127 -0.10194,0.502074 -0.0311,0.12429 -0.0662,0.246718 -0.10448,0.369146 -0.0444,0.05029 -0.0489,0.08856 -0.0146,0.114978 0.18982,-0.21099 0.40945,-0.390144 0.59538,-0.605875 0.0621,-0.07197 0.12818,-0.139531 0.20032,-0.200321 0.17594,-0.146304 0.33409,-0.302938 0.49022,-0.471594 0.12768,-0.137668 0.25857,-0.271272 0.39421,-0.398949 0.1441,-0.136313 0.27516,-0.289052 0.39082,-0.452459 0.006,0.02589 0.0127,0.05029 0.02,0.07874 0.0303,-0.03708 0.0708,-0.06011 0.10109,-0.0972 0.0298,-0.03573 0.0516,-0.07874 0.0787,-0.116501 0.0662,-0.09127 0.12564,-0.191686 0.20438,-0.270426 0.0715,-0.07078 0.14885,-0.15477 0.20507,-0.236897 0.0462,-0.06807 0.084,-0.136144 0.14545,-0.19304 0.086,-0.0801 0.16138,-0.169333 0.23825,-0.260096 0.0747,-0.08856 0.16138,-0.155279 0.23284,-0.248581 0.0826,-0.10922 0.17119,-0.213699 0.24062,-0.331386 0.0284,-0.04775 0.0557,-0.09855 0.0853,-0.144949 0.0239,-0.03573 0.39167,-0.415375 0.41081,-0.453644 0.0881,-0.0086 -0.27771,0.587248 -0.2772,0.635 7e-4,0.102447 -0.041,0.202353 -0.0997,0.285665 0.0376,-0.0032 0.0601,-0.03115 0.0872,-0.05622 0.0894,-0.08196 0.17729,-0.165947 0.26721,-0.248751 0.14088,-0.127677 0.29565,-0.240115 0.43535,-0.368977 0.0635,-0.05825 0.11566,-0.128355 0.19236,-0.170688 0.0728,-0.04047 0.14885,-0.279231 0.20642,-0.340022 0.53391,-0.5715 0.91288,-0.988906 0.9823,-0.96774 0.0833,0.02522 -0.69917,1.276604 -0.72169,1.321647 -0.0291,0.0569 -0.003,0.06079 -0.003,0.120396 -7e-4,0.06943 -0.0384,0.139531 -0.045,0.209635 -0.007,0.07146 -0.0278,0.129709 -0.0462,0.20049 0.0455,0.02642 0.17187,-0.117856 0.18322,-0.127677 0.16662,-0.158157 0.32004,-0.334772 0.49801,-0.480229 0.084,-0.06824 0.44179,-0.584031 0.54034,-0.628396 0.018,0.04826 -0.27771,0.57404 -0.27771,0.625009 v 0.226229 c 0,0.0569 0.008,0.12446 0.001,0.181187 -0.007,0.05571 -0.0398,0.107865 -0.0589,0.159512 -0.0146,0.0403 -0.033,0.07214 -0.043,0.115824 -0.0166,0.0701 -0.0535,0.123613 -0.0767,0.191008 -0.0371,0.106511 -0.0589,0.221657 -0.0886,0.330877 -0.0232,0.08263 -0.0589,0.155956 -0.0867,0.236728 -0.0191,0.05554 -0.0291,0.113792 -0.0503,0.168656 -0.0311,0.08145 -0.0826,0.152062 -0.12243,0.228939 -0.0389,0.07603 -0.0522,0.16002 -0.0931,0.234696 -0.0339,0.06164 -0.051,0.11176 -0.0708,0.179324 -0.0106,0.03776 -0.0437,0.08924 -0.0339,0.124291 0.051,-0.09059 0.1165,-0.156126 0.18254,-0.236051 0.14884,-0.180001 0.29244,-0.367115 0.43857,-0.550333 0.15359,-0.192532 0.30768,-0.385064 0.45043,-0.58674 0.11244,-0.158158 0.23097,-0.312251 0.3368,-0.47498 0.0164,-0.02505 0.0323,-0.05283 0.051,-0.07671 0.0178,-0.02371 0.0489,-0.0806 0.072,-0.08738 0.009,0.09991 -0.0715,0.216408 -0.0938,0.31225 -0.0139,0.05622 -0.0351,0.134959 0.0185,0.167979 0.0351,0.02184 0.14613,0.0047 0.17797,0.0041 0.10973,-0.0028 0.21353,-0.01658 0.31479,-0.06215 0.0357,-0.01591 0.0794,-0.0569 0.1165,-0.0332 0.0376,0.02388 0.0146,0.15748 0.0237,0.194564 -0.007,0.02642 0.002,0.04623 0.0252,0.06011 0.0508,-7.06e-4 0.10109,-0.0039 0.15138,-0.01051 0.0781,-0.01457 0.15477,-0.04437 0.23216,-0.0635 0.0742,-0.01863 0.11057,-0.04437 0.1568,0.01319 0.0933,0.116332 0.14157,0.280416 0.26857,0.366437 0.16205,0.109728 0.36982,0.06739 0.55033,0.08399 0.0284,0.171366 0.0947,0.334772 0.12971,0.504783 0.005,0.02237 0.0152,0.04555 0.0191,0.06672 0.003,0.01591 -0.001,0.05419 0.003,0.06756 0.0239,0.06469 0.14766,-0.0014 0.18068,-0.0266 0.15342,-0.118364 0.3512,-0.230124 0.53188,-0.289729 0.1143,-0.03759 0.24672,-0.07806 0.3683,-0.08128 0.043,-0.0014 0.0689,-0.0035 0.0999,0.0205 0.0655,0.04961 0.0735,0.132249 0.086,0.208957 0.0178,0.10922 0.0384,0.215054 0.0371,0.326136 0,0.0464 -0.01,0.304292 0.074,0.26924 0.0284,-0.01185 0.053,-0.05554 0.076,-0.07603 0.0364,-0.0332 0.0794,-0.06028 0.12175,-0.08467 0.11379,-0.0635 0.2137,-0.07349 0.3407,-0.08738 0.0337,-0.0039 0.076,7.05e-4 0.10905,-0.0098 0.0351,-0.01136 0.0325,-0.01729 0.0787,-0.01729 0.0555,-7.06e-4 0.0985,7.05e-4 0.14427,0.01729 0.0376,0.01319 0.074,0.02438 0.10719,0.04284 0.0237,0.01337 0.0906,0.02455 0.10312,0.04183 -0.007,-0.06231 -0.0239,-0.103293 -0.0232,-0.16747 10e-4,-0.04487 -0.0152,-0.06943 -0.0218,-0.110406 -0.002,-0.01457 0.003,-0.02981 0.001,-0.04436 -0.002,-0.02321 -0.0132,-0.03235 -0.0171,-0.04826 -0.0127,-0.05351 -0.007,-0.04098 -0.0423,-0.08196 -0.0173,-0.02117 -0.0311,-0.04775 -0.0523,-0.06689 -0.0251,-0.02251 -0.0528,-0.04233 -0.0808,-0.06282 0.007,0.0035 0.0114,0.0066 0.0193,0.01051 -0.053,-0.06333 -0.12039,-0.117009 -0.16865,-0.183218 -0.0378,-0.05148 -0.0689,-0.103802 -0.11244,-0.152062 -0.0444,-0.04894 -0.0985,-0.09398 -0.1336,-0.151384 -0.0689,-0.111929 -0.0814,-0.261281 -0.0933,-0.389636 -0.005,-0.05503 -0.007,-0.06215 -0.0384,-0.101938 -0.0455,-0.05825 -0.11633,-0.113115 -0.19253,-0.12954 -0.0303,-0.0068 -0.0621,-0.0061 -0.0938,-0.0035 -0.0191,-0.02776 -0.0483,-0.04166 -0.0919,-0.05029 -0.0748,-0.01524 -0.13766,-0.06215 -0.2037,-0.08264 -0.0616,-0.01983 -0.10398,-0.06824 -0.15088,-0.109897 -0.0198,-0.01778 -0.0278,-0.04098 -0.0444,-0.05944 -0.0642,-0.06943 -0.1402,-0.14224 -0.21099,-0.20574 -0.074,-0.06621 0.018,-0.136991 -0.0369,-0.212344 -0.0835,-0.11447 -0.15883,-0.230802 -0.21844,-0.362543 -0.0594,0.01065 -0.12886,-0.107019 -0.15663,-0.149352 -0.0874,-0.131741 -0.21302,-0.240115 -0.28652,-0.381677 -0.025,-0.04961 -0.0376,-0.107188 -0.0635,-0.158158 -0.0284,-0.05554 -0.0601,-0.10651 -0.0919,-0.160697 -0.0271,-0.04758 -0.0483,-0.100584 -0.0767,-0.146812 -0.0105,-0.01658 -0.0258,-0.03641 -0.0396,-0.04894 -0.076,-0.06943 -0.16272,-0.12446 -0.23622,-0.201168 -0.0542,-0.05757 -0.10651,-0.115147 -0.16069,-0.171874 -0.0278,-0.02914 -0.0344,-0.07027 -0.0582,-0.09737 -0.0198,-0.02237 -0.0324,-0.01118 -0.0549,-0.02117 -0.0615,-0.02776 -0.12767,-0.08196 -0.17593,-0.128863 -0.0655,-0.0635 -0.0535,-0.176614 -0.0694,-0.265345 -0.0205,-0.113115 -0.0417,-0.209635 -0.0986,-0.311573 -0.051,-0.09263 -0.24672,-0.168656 -0.34138,-0.203708 -0.12226,-0.04487 -0.14478,-0.154094 -0.18119,-0.267885 -0.0205,-0.06215 -0.0496,-0.05876 -0.10922,-0.04758 -0.0369,0.0066 -0.0508,0.02575 -0.0635,-0.03573 -0.005,-0.02321 0.001,-0.04437 7.1e-4,-0.0674 -10e-4,-0.07688 -0.0403,-0.134959 -0.0674,-0.2032 -0.0252,-0.06282 -0.0364,-0.103801 -0.0826,-0.158665 -0.0284,-0.03369 -0.0635,-0.09601 -0.098,-0.121074 -0.0185,-0.01457 -0.0383,-0.01051 -0.0535,-0.02575 -0.0469,-0.04894 -0.0198,-0.2032 -0.0205,-0.267208 0,-0.06096 0.006,-0.101261 -0.0198,-0.150198 -0.043,-0.08213 -0.0979,-0.103802 -0.16137,-0.164084 -0.0332,-0.03168 -0.0696,-0.05825 -0.0985,-0.09398 -0.0391,-0.04691 -0.0589,-0.09923 -0.0842,-0.150707 -0.0337,-0.0701 -0.0713,-0.06875 -0.14681,-0.03979 -0.0562,0.02251 -0.10905,0.04047 -0.16392,0.0635 0.0217,-0.04098 0.031,-0.165947 -0.003,-0.195072 -0.0516,0.04436 -0.0621,0.140208 -0.0947,0.197781 -0.0244,0.04233 -0.0576,0.06215 -0.0879,0.0972 -0.0264,0.02981 -0.0391,0.06689 -0.0628,0.09923 -0.0457,0.06418 -0.0919,0.132249 -0.1436,0.191854 -0.0225,0.02575 -0.0489,0.04504 -0.0708,0.07078 -0.043,0.05097 -0.0781,0.10651 -0.12361,0.156802 -0.0357,0.03962 -0.0728,0.08128 -0.10787,0.124968 -0.005,-0.02117 -0.0114,-0.03962 -0.0371,-0.04572 -0.0476,0.102616 -0.11108,0.191855 -0.17983,0.283803 -0.0444,0.05961 -0.0986,0.115824 -0.14631,0.17272 -0.0569,0.06807 -0.10583,0.138853 -0.16002,0.210312 -0.0535,0.0701 -0.127,0.115824 -0.18186,0.183219 -0.0398,0.04758 -0.46702,0.542374 -0.50275,0.588094 -0.0112,0.01118 -0.0239,0.02117 -0.0378,0.02914 -0.0164,0.02304 -0.031,0.04826 -0.0429,0.07468 -0.0291,0.04572 -0.0669,0.0867 -0.0967,0.131572 -0.0701,0.10397 -0.13361,0.213698 -0.19643,0.318854 -0.0198,0.03302 -0.0166,0.02388 -0.0264,0.06553 -0.0107,0.04437 -0.0344,0.04487 -0.0603,0.0806 -0.023,0.03182 -0.0383,0.08467 -0.0576,0.121073 -0.0417,0.07739 -0.0733,0.146812 -0.12819,0.215731 -0.0767,0.0972 -0.13699,0.197104 -0.22165,0.28702 -0.11515,0.123105 -0.19711,0.269917 -0.30819,0.394885 -0.21573,0.240115 -0.38896,0.523918 -0.58081,0.784522 -0.0754,0.102446 -0.19254,0.273812 -0.25265,0.385572 -0.0549,0.102616 -0.12039,0.201168 -0.17136,0.304969 -0.0681,0.139531 -0.13022,0.277876 -0.21489,0.408771 -0.0992,0.152061 -0.2137,0.297688 -0.30835,0.453136 0.0364,-0.07874 0.0669,-0.161375 0.0986,-0.233511 0.0391,-0.08924 0.0985,-0.166624 0.14427,-0.251968 0.0378,-0.07146 0.0535,-0.148844 0.0992,-0.214376 0.0615,-0.08805 0.0945,-0.201676 0.13022,-0.30226 0.0179,-0.04961 0.0298,-0.103801 0.0516,-0.152739 0.0232,-0.05097 0.0562,-0.09737 0.0781,-0.148844 0.0437,-0.101938 0.0635,-0.208449 0.12564,-0.303614 0.0735,-0.113115 0.13361,-0.233511 0.18187,-0.359834 0.10058,-0.260604 0.24282,-0.502073 0.34069,-0.762677 0.0569,-0.153585 0.12768,-0.300397 0.2071,-0.442637 0.01,-0.01778 0.0191,-0.03573 0.0291,-0.05351 0.0125,0.01118 0.025,0.02251 0.0383,0.03302 0.0847,-0.105156 0.18847,-0.193717 0.26331,-0.31479 0.0806,-0.131572 0.22217,-0.222843 0.28313,-0.367792 0.0317,-0.07671 0.0833,-0.143595 0.12903,-0.214376 0.0376,-0.05876 0.0847,-0.111083 0.11972,-0.171874 0.0217,-0.05029 0.0476,-0.0972 0.0786,-0.141562 0.0318,-0.03369 0.0655,-0.06486 0.10126,-0.09398 0.0774,-0.07603 0.005,-0.249259 0.0972,-0.309541 0.004,-0.0021 0.01,-0.0066 0.0152,-0.01051 0.005,-0.0086 0.007,-0.01796 0.0132,-0.0266 0.15613,-0.245364 0.29244,-0.501904 0.42198,-0.762 -0.0119,-0.08721 -0.0205,-0.176614 -0.0456,-0.259926 -0.0119,-0.03827 -0.0271,-0.06807 -0.043,-0.104479 -0.0205,-0.0469 -0.009,-0.07942 -0.0191,-0.121751 -0.0152,-0.06282 -0.0728,-0.09262 -0.10584,-0.145457 -0.0166,-0.02575 -0.16137,0.08534 -0.17729,0.06079 -0.0621,-0.09923 -0.14613,-0.183219 -0.20574,-0.288375 -0.0191,-0.03302 -0.0337,-0.07603 -0.0555,-0.107865 -0.0271,-0.03962 -0.0662,-0.06147 -0.0926,-0.102447 -0.0337,-0.05351 -0.0555,-0.115147 -0.094,-0.167301 -0.033,-0.04437 -0.0819,-0.07485 -0.11446,-0.118534 -0.0528,-0.06875 -0.0727,-0.168656 -0.14614,-0.222165 -0.0389,-0.02914 -0.0456,-0.01185 -0.0879,-0.01983 -0.084,-0.01524 -0.0833,-0.10922 -0.12836,-0.173397 -0.0212,-0.0303 -0.0403,-0.05486 -0.0576,-0.08721 -0.0444,-0.06892 -0.0867,-0.138345 -0.127,-0.209127 -0.005,-0.03895 -0.0225,-0.06536 -0.0516,-0.07925 -0.0423,0.04758 -0.0674,0.106342 -0.12158,0.144103 -0.1165,-0.0801 -0.16612,-0.193717 -0.23486,-0.312251 -0.0159,-0.02776 -0.0152,-0.04894 -0.0252,-0.07468 -0.0132,-0.03369 -0.0323,-0.05622 -0.0403,-0.09533 -0.008,-0.03962 -7e-4,-0.06604 -0.0178,-0.102447 -0.02,-0.04233 -0.0398,0.216916 -0.0503,0.171365 -0.0239,-0.101261 -0.0635,-0.20303 -0.10059,-0.304292 -0.0496,-0.135636 -0.0847,-0.278553 -0.1336,-0.414697 -0.0191,-0.05436 -0.0239,-0.117856 -0.0462,-0.168656 -0.0232,-0.053 -0.0477,-0.09144 -0.0623,-0.148844 -0.0119,-0.04775 -0.0205,-0.07806 -0.0198,-0.131741 0,-0.04691 0.0166,-0.127678 -0.005,-0.171196 -0.0239,0.0066 -0.0318,0.101092 -0.0423,0.131572 -0.0232,0.06553 -0.0662,0.120396 -0.10329,0.177292 -0.0535,0.07992 -0.10702,0.158665 -0.15409,0.240114 -0.0906,0.156126 -0.16206,0.319363 -0.24859,0.48023 -0.0127,-0.01136 -0.0232,-0.02388 -0.0291,-0.03708 -0.007,-0.01591 -0.002,-0.04691 -0.005,-0.06486 -0.005,-0.03048 -0.0112,-0.05351 -0.0146,-0.0801 0.003,0.04369 0.005,0.110575 -0.007,0.07806 -0.0212,0.01 -0.0389,0.04115 -0.0555,0.06282 -0.0601,0.07874 -0.10973,-0.119042 -0.17255,-0.04233 -0.11244,0.136991 -0.24079,0.252138 -0.35848,0.382355 -0.0874,0.09601 -0.17543,0.191177 -0.27534,0.271949 -0.16594,0.132927 -0.31479,0.283803 -0.44839,0.450427 -0.0622,0.07671 -0.12971,0.152061 -0.19981,0.221657 -0.0879,0.08585 -0.21421,0.158666 -0.28177,0.262467 -0.0303,0.04707 -0.0549,0.113115 -0.0615,0.169333 -0.0125,0.105834 0.0264,0.227584 -0.003,0.329523 -0.0339,0.112437 -0.11582,0.232156 -0.18271,0.324781 -0.0674,0.09246 -0.15274,0.174583 -0.2142,0.273812 -0.0259,0.04233 -0.0278,0.08467 -0.0576,0.127 -0.0423,0.06011 -0.0965,0.11176 -0.14021,0.171366 -0.17458,0.238082 -0.36508,0.467529 -0.5212,0.720174 -0.043,0.0696 -0.0537,0.150199 -0.0919,0.22098 -0.0278,0.053 -0.0676,0.104479 -0.0979,0.156125 -0.0662,0.113792 -0.14562,0.219626 -0.21505,0.331386 -0.0947,0.153416 -0.18847,0.305646 -0.29362,0.451104 -0.086,0.117686 -0.17933,0.229616 -0.2667,0.345948 -0.0859,0.116501 -0.1712,0.23351 -0.25654,0.351197 0.0119,-0.02709 0.0232,-0.05486 0.0351,-0.07264 0.0278,-0.04504 0.0622,-0.08348 0.0906,-0.127677 0.0926,-0.144272 0.11836,-0.342731 0.14545,-0.506815 0.0516,-0.308187 0.10262,-0.613156 0.12311,-0.925915 0.003,-0.03776 0.007,-0.07552 0.0105,-0.113114 -0.0892,0.08924 -0.17712,0.179154 -0.26128,0.273812 -0.10245,0.117009 -0.20303,0.23605 -0.30751,0.349165 -0.0569,0.07874 -0.11447,0.156803 -0.17136,0.23622 -0.0708,0.09923 -0.14224,0.197781 -0.2176,0.292947 -0.12175,0.154262 -0.29955,0.28448 -0.40809,0.449918 -0.0455,0.06875 -0.0324,0.122936 -0.0284,0.203031 0.005,0.0933 -0.007,0.146812 -0.0642,0.224875 -0.0733,0.09787 -0.16138,0.176614 -0.23809,0.269917 -0.16865,0.20574 -0.31817,0.432477 -0.47362,0.648885 -0.0357,0.04961 -0.0754,0.09449 -0.11582,0.140208 -0.14343,0.162052 -0.27703,0.37101 -0.37897,0.560832 -0.14411,0.267886 -0.22691,0.560324 -0.3578,0.834136 -0.0291,0.06028 -0.0642,0.100584 -0.0979,0.154094 -0.0489,0.07688 -0.0913,0.161544 -0.13699,0.238929 -0.10583,0.179832 -0.21234,0.361019 -0.33003,0.533739 -0.0794,0.116332 -0.16002,0.23351 -0.24079,0.349842 -0.0919,0.133604 -0.1607,0.279908 -0.24943,0.414698 -0.0296,0.0464 -0.0569,0.09804 -0.0852,0.148844 0.0157,0.10922 0.029,0.219625 0.0508,0.32749 0.009,0.04437 0.0205,0.08856 0.0305,0.132927 0.009,0.01136 0.0166,0.02455 0.0212,0.04098 0.0403,0.140208 0.0826,0.283125 0.12903,0.424688 0.007,0.0035 0.0139,0.0066 0.0198,0.01065 0.0733,0.04894 0.14156,0.111082 0.18593,0.1905 0.0383,0.06875 0.0635,0.147489 0.10312,0.216238 0.0171,0.07146 0.0337,0.142918 0.051,0.214376 0.001,0.03624 0.008,0.06739 0.0357,0.09923 0.0344,0.03827 0.0688,0.06282 0.0979,0.109728 0.0364,0.05893 0.0628,0.09263 0.11446,0.117009 0.0865,0.133096 0.15071,0.283803 0.22352,0.424688 0.0728,0.14224 0.14478,0.285157 0.2137,0.429937 0.1143,0.108543 0.21556,0.225552 0.15731,0.261959 0.0318,-0.03962 0.0735,-0.06604 0.12514,-0.07874 0.0793,-0.0442 0.16256,-0.07925 0.24858,-0.105156 0.0555,0.01796 0.0589,0.08873 0.0635,0.141563 0.006,0.07417 -10e-4,0.15223 -10e-4,0.226229 0,0.05419 -0.0164,0.139531 0.003,0.1905 0.0642,0.01591 0.13039,0.01065 0.19186,0.04504 0.0628,0.03573 0.12243,0.09449 0.18322,0.134958 0.0523,0.03573 0.10651,0.07264 0.16594,0.09449 0.0384,0.0139 0.0517,0.01185 0.0769,0.04504 0.0264,0.03573 0.0435,0.08128 0.0628,0.12175 0.0224,0.04758 0.0403,0.0806 0.082,0.113115 0.15545,0.121581 0.30819,0.270425 0.39624,0.453644 0.0298,0.06096 0.0892,0.127 0.1502,0.160189 0.0847,0.04623 0.19304,0.05673 0.28431,0.08788 0.0291,0.0093 0.10126,0.02709 0.11836,0.06147 -0.0191,0.05165 -0.0774,0.146304 -0.033,0.200491 0.0205,0.02505 0.0537,0.02388 0.0821,0.02843 0.0501,0.0086 0.0991,0.01845 0.14681,0.03895 0.0701,0.02914 0.11904,0.07417 0.18051,0.113792 0.0992,0.0635 0.17933,0.142917 0.30226,0.151553 0.13496,0.0091 0.27263,-0.02251 0.40623,0.0098 0.0767,0.01863 0.14817,0.05961 0.22014,0.09195 0.0603,0.0266 0.12107,0.04369 0.17543,0.0828 0.0635,0.04555 0.0224,0.08653 0.11176,0.0972 0.0569,0.0066 0.13495,-0.0028 0.17797,0.04487 0.0462,0.05232 -0.007,0.123105 0.0886,0.151553 0.0476,0.0139 0.0979,7.06e-4 0.14816,0.02117 0.0384,0.01591 0.0767,0.04572 0.10448,0.07535 0.0471,0.05029 0.0826,0.09398 0.14089,0.133604 0.11176,0.07688 0.20777,0.22098 0.3368,0.26924 0.11904,0.04437 0.25586,0.03979 0.37965,0.0569 0.051,0.0066 0.0826,0.01591 0.12107,0.05029 0.10973,0.09788 0.25993,0.04894 0.39743,0.06147 0.0325,0.0028 0.12039,0.0054 0.13224,0.04961 0.006,0.02321 -0.0224,0.05029 -0.0198,0.07874 0.004,0.04436 0.0139,0.04098 0.0516,0.04233 0.0344,0.0014 0.0767,-0.01711 0.11244,-0.01912 0.0542,-0.0035 0.10854,-0.0028 0.16273,-0.0028 0.16002,0.0014 0.32275,0.01729 0.47888,-0.02251 0.0972,-0.02438 0.18592,-0.0635 0.28109,-0.09584 0.0496,-0.01658 0.0569,-0.01319 0.0953,0.0035 0.0442,0.01983 0.10177,0.03235 0.15071,0.05283 0.0696,0.02776 0.12971,0.07281 0.19592,0.107188 0.072,0.03776 0.14817,0.01185 0.22623,0.02642 0.0496,0.01 0.10245,0.01796 0.15138,0.03115 0.0608,0.01711 0.11769,0.0635 0.17933,0.074 0.041,0.008 0.0853,-0.0066 0.12429,-0.01845 0.10854,-0.03253 0.21302,-0.07874 0.32478,-0.09991 0.12175,-0.02388 0.24604,0.0039 0.36644,-0.01729 0.20574,-0.03624 0.35526,-0.204385 0.54051,-0.28431 0.005,0.08992 0.0105,0.147489 0.11633,0.117686 0.0999,-0.02843 0.19507,-0.0701 0.28702,-0.117686 0.0437,-0.02251 0.0562,-0.0093 0.0999,-0.01252 0.0357,-0.0028 0.0715,-0.02455 0.10854,-0.02914 0.0383,-0.0047 0.0608,-0.0073 0.10177,-0.0205 0.0537,-0.01863 0.10058,-0.04233 0.1568,-0.04572 0.10854,-0.0053 0.2137,-0.02388 0.32089,-0.04301 0.14156,-0.02438 0.27516,-0.07468 0.41402,-0.113115 0.0535,-0.01457 0.10651,-0.01252 0.15934,-0.02388 0.084,-0.01845 0.2071,-0.119719 0.26128,-0.156634 0.14224,-0.09737 0.28516,-0.194564 0.42537,-0.29447 0.0808,-0.0574 0.16205,-0.115655 0.24079,-0.176615 0.0403,-0.03097 0.0913,-0.08585 0.14224,-0.09449 0.0257,-0.0046 0.0615,0.0139 0.0853,0.0039 0.0383,-0.01573 0.0865,-0.112438 0.11244,-0.146135 0.0555,-0.074 0.11498,-0.149521 0.17594,-0.218271 0.10837,-0.12175 0.23673,-0.210989 0.35255,-0.322749 0.0847,-0.08077 0.16798,-0.160867 0.25722,-0.235543 0.0412,-0.03507 0.0755,-0.06807 0.10989,-0.11176 0.14749,-0.185928 0.23487,-0.407416 0.39489,-0.585385 0.0674,-0.07535 0.127,-0.152739 0.19846,-0.225552 0.0555,-0.05757 0.10583,-0.146812 0.16933,-0.193209 0.0476,-0.03507 0.066,-0.03302 0.0992,-0.08653 0.0535,-0.08738 0.21235,0.0403 0.26975,-0.04504 0.11125,-0.166116 0.1463,-0.506646 0.3004,-0.632291 0.0747,-0.06164 0.3644,0.0039 0.42536,-0.07146 0.0376,-0.0464 -0.13699,-0.215053 -0.0992,-0.260604 0.0417,-0.05029 0.0708,-0.10922 0.10584,-0.164084 0.0847,-0.131741 0.14613,-0.28702 0.24401,-0.412157 0.0264,-0.03302 0.0649,-0.06011 0.0881,-0.09584 0.0191,-0.02981 0.0303,-0.07603 0.0442,-0.108542 0.0278,-0.06282 0.0544,-0.140208 0.0901,-0.199644 0.0501,-0.08348 0.11972,-0.111252 0.19439,-0.14224 0.0456,-0.08941 0.0952,-0.177292 0.14292,-0.265346 0.0681,-0.124968 0.13157,-0.246718 0.21489,-0.36305 0.0423,-0.05961 0.0874,-0.119719 0.12903,-0.181864 7e-4,-0.0073 7e-4,-0.01524 0.003,-0.02117 0.0139,-0.03844 0.0271,-0.03641 0.0476,-0.06164 0.002,-0.0018 0.003,-0.0046 0.005,-0.0066 0.0225,-0.03895 0.0423,-0.07874 0.0576,-0.121073 0.0107,-0.02709 0.0278,-0.0442 0.0483,-0.05554 0.0284,-0.07078 0.0318,-0.144102 0.0318,-0.225552 -7e-4,-0.09381 -0.0239,-0.181186 -0.0232,-0.275844 7.1e-4,-0.03436 0.009,-0.08721 -0.003,-0.119718"
       style="fill:#21201d;fill-opacity:1;fill-rule:nonzero;stroke:none;stroke-width:0.169333"
       id="path470" />
  </g>
</svg>
