<?xml version="1.0" encoding="UTF-8" standalone="no"?>
<!-- Created with Inkscape (http://www.inkscape.org/) -->

<svg
   width="7.6143589mm"
   height="7.6084981mm"
   viewBox="0 0 7.6143589 7.6084981"
   version="1.1"
   id="svg1768"
   inkscape:version="1.1.2 (0a00cf5339, 2022-02-04)"
   sodipodi:docname="z19.svg"
   xmlns:inkscape="http://www.inkscape.org/namespaces/inkscape"
   xmlns:sodipodi="http://sodipodi.sourceforge.net/DTD/sodipodi-0.dtd"
   xmlns="http://www.w3.org/2000/svg"
   xmlns:svg="http://www.w3.org/2000/svg">
  <sodipodi:namedview
     id="namedview1770"
     pagecolor="#ffffff"
     bordercolor="#666666"
     borderopacity="1.0"
     inkscape:pageshadow="2"
     inkscape:pageopacity="0.0"
     inkscape:pagecheckerboard="0"
     inkscape:document-units="mm"
     showgrid="false"
     inkscape:zoom="0.64052329"
     inkscape:cx="-802.46887"
     inkscape:cy="708.01485"
     inkscape:window-width="2560"
     inkscape:window-height="1376"
     inkscape:window-x="0"
     inkscape:window-y="0"
     inkscape:window-maximized="1"
     inkscape:current-layer="layer1" />
  <defs
     id="defs1765" />
  <g
     inkscape:label="Layer 1"
     inkscape:groupmode="layer"
     id="layer1"
     transform="translate(-317.15233,38.915653)">
    <path
       d="m 321.72243,-34.75945 c 0.006,-0.0208 0.0589,-0.02006 0.0762,-0.01583 0.0151,0.0044 0.0366,0.02153 0.0453,0.0346 0.0252,0.0381 -0.0302,0.04528 -0.0574,0.04381 -0.023,-0.0015 -0.0166,-0.0057 -0.0346,-0.01859 -0.0109,-0.0074 -0.028,-0.0059 -0.0302,-0.02172 l 0.0101,-0.01933 z m 0.34584,0.140252 c -0.0267,0.06534 -0.0806,0.104177 -0.14172,0.151664 -0.028,0.02227 -0.0646,0.03663 -0.0861,0.06405 -0.0188,0.02374 -0.0346,0.05172 -0.0497,0.0762 -0.0208,0.03736 -0.0431,0.07325 -0.0668,0.110066 -0.023,0.03516 -0.0151,0.05816 -0.0252,0.09332 -0.004,0.01381 -0.0144,0.0094 -0.0144,0.02945 0,0.0116 0.006,0.01657 0.0101,0.02669 0,0.0022 10e-4,0.0064 0.002,0.0094 0.0245,0.02448 0.0519,0.04822 0.0769,0.06976 -0.0604,-0.03166 -0.0705,-0.0519 -0.0769,-0.06976 -0.0337,-0.03607 -0.0611,-0.07473 -0.0668,-0.117244 -0.007,-0.04749 -0.028,-0.101416 -0.018,-0.150928 0.002,-0.0064 0.005,-0.01233 0.008,-0.0173 -0.0165,-0.01215 -0.0359,-0.02945 -0.0374,-0.04896 0,-0.0085 0.009,-0.0243 0.0123,-0.03221 0.004,-0.0116 0.004,-0.01878 0.007,-0.03313 0.003,-0.02227 0.0171,-0.0381 0.0201,-0.05963 0.006,-0.04896 7e-4,-0.106386 0,-0.156081 -0.002,0.01012 0.0151,0.0324 0.0208,0.04031 0.009,0.01362 0.0202,0.02153 0.0339,0.03092 0.0144,0.01067 0.0324,0.01785 0.0475,0.02301 0.009,0.0028 0.0201,-7.4e-4 0.028,0.0035 7.1e-4,7.41e-4 7.1e-4,0.0015 0.002,0.0022 10e-4,-0.0057 0.004,-0.01012 0.005,-0.01086 0.0158,-0.0072 0.0504,0.01086 0.0676,0.01233 l 0.14742,-0.118717 c 0.009,-0.03368 0.0144,-0.04951 -0.0223,-0.07767 -0.0791,-0.06037 -0.23228,-0.149455 -0.31713,-0.04657 -0.0121,-0.02301 -0.003,-0.05835 -0.003,-0.08283 0,-0.01215 -0.004,-0.02724 -7e-4,-0.03957 10e-4,-0.0085 0.0129,-0.01638 0.0144,-0.02227 0.007,-0.0265 -0.001,-0.05522 0.005,-0.08191 0.004,-0.01435 0.0188,-0.03589 0.0173,-0.05319 -0.0109,-0.0079 -0.0151,-0.0173 -0.0302,-0.02301 0.0215,0.0037 0.0294,0.01288 0.0302,0.02301 7e-4,0.0015 0.002,0.0029 0.004,0.0037 0.006,0.0028 0.0188,0.0013 0.0252,0.0042 0.0388,0.02006 0.0777,0.02871 0.11945,0.04454 0.0653,0.02595 0.11136,0.07915 0.1524,0.125159 0.0237,0.0265 0.0344,0.05246 0.0539,0.0797 0.0144,0.02172 0.0245,0.04031 0.0351,0.06258 0.0109,0.02153 0.0331,0.05761 0.0331,0.08135 0,0.02227 -0.0143,0.05172 -0.023,0.07473 m -0.56081,-1.057597 c -0.0151,-0.0037 -0.0215,-0.0094 -0.041,-0.0094 -0.0151,0 -0.0401,-0.0042 -0.0552,0 -0.0116,0.0037 -0.0188,0.01509 -0.0274,0.02301 0.008,0.0173 0.009,0.03166 0.023,0.04675 0.008,0.0086 0.0238,0.02871 0.0359,0.02945 0.0145,0.0015 0.0217,-0.01288 0.0361,-0.0072 -0.0101,0.01362 -0.0418,0.02724 -0.0569,0.0381 -0.0201,0.01436 -0.0366,0.0324 -0.0525,0.05043 -0.0188,0.0208 -0.0388,0.04233 -0.0582,0.06387 -0.005,0.0064 -0.0153,0.01436 -0.0225,0.02301 0.009,-0.01657 -7.1e-4,-0.04086 0.003,-0.05743 0.003,-0.01307 0.009,-0.01583 0.0109,-0.02945 7.1e-4,-0.0079 7.1e-4,-0.02245 0,-0.02963 -0.002,-0.02724 -0.0138,-0.03939 -0.003,-0.06313 0.0101,-0.02098 0.0121,-0.0324 0.0121,-0.05761 0,-0.02227 -0.003,-0.04749 0.003,-0.06902 0.004,-0.01657 0.0129,-0.05319 0.0245,-0.06332 0.0144,-0.01362 0.0431,-0.0072 0.0626,-0.0072 h 0.0804 c 0.0109,0.0015 0.0188,0.0087 0.0295,0.01013 0.007,0.0015 0.018,-0.0029 0.026,-7.41e-4 0.0151,0.0044 0.0252,0.01657 0.0344,0.03092 0.0116,0.01657 0.0368,0.06111 0.0116,0.07767 -0.0136,0.0094 -0.0611,0.005 -0.0762,7.41e-4 m -0.36664,-1.087046 c -0.008,0.01509 -0.0215,0.0079 -0.0353,0.0099 -0.0344,0.0072 -0.0661,0.0289 -0.0977,0.04454 -0.0237,0.01307 -0.0403,0.01878 -0.0495,0.04473 -0.009,0.0243 0.003,0.06258 -0.0245,0.07822 -0.0109,0.0072 -0.0388,0.0052 -0.0512,0.0022 -0.028,-0.005 -0.0409,-0.01013 -0.0718,-0.01013 -0.0655,7.41e-4 -0.13087,0 -0.19713,0 -0.0525,7.41e-4 -0.11135,-0.0085 -0.16105,0.01233 -0.0596,0.02522 -0.11208,0.08835 -0.18405,0.07694 -0.0295,-0.0037 -0.056,-0.02448 -0.0812,-0.03957 -0.0381,-0.0029 -0.10215,-0.03736 -0.0769,-0.03018 0.0165,0.005 0.0446,0.01288 0.0604,0.02153 0.006,0.0022 0.0116,0.005 0.0166,0.0087 0.007,7.41e-4 0.0143,7.41e-4 0.0195,-0.0022 0.0208,-0.01141 0.0381,-0.03295 0.0545,-0.05025 0.0274,-0.02871 0.0396,-0.06552 0.0606,-0.09994 0.0151,-0.02595 0.0236,-0.06332 0.0438,-0.08411 0.0258,-0.02816 0.10197,-0.08338 0.12719,-0.03387 0.0188,0.03663 0.0281,0.0935 0.0727,0.10933 0.0179,0.005 0.0495,0.0037 0.0675,0.0022 0.0201,-0.0029 0.0525,-0.0116 0.0705,-0.02025 0.0151,-0.0079 0.0317,-0.0208 0.0302,-0.04013 -0.001,-0.01509 -0.009,-0.03019 -0.0101,-0.04749 -10e-4,-0.01657 -0.006,-0.02448 -0.009,-0.03884 -0.004,-0.01362 7.1e-4,-0.02227 -0.0107,-0.0346 -0.007,-0.0079 -0.0237,-0.01509 -0.0353,-0.01785 -0.0243,-0.0072 -0.0495,-0.0064 -0.0747,-0.01233 -0.003,-0.01583 0.0346,-0.04086 0.0489,-0.04675 0.0238,-0.0092 0.051,0.0029 0.0747,-0.0028 0.041,-0.0116 0.0791,-0.0289 0.12589,-0.02945 0.0381,-0.02963 0.0861,-0.0289 0.13437,-0.02963 0.0396,-5.64e-4 0.0589,-0.01933 0.0898,-0.04013 0.0274,-0.01804 0.026,-0.0015 0.0252,0.0243 -7.1e-4,0.04822 -0.002,0.09718 0,0.143933 7e-4,0.03957 0.0151,0.07178 0.0359,0.101969 0.007,0.01012 0.023,0.01307 0.0123,0.02963 m -0.7607,2.891734 c -0.0101,0.01712 -0.0166,0.03589 -0.026,0.05319 -0.0186,0.03221 -0.0374,0.07178 -0.0675,0.09258 -0.0121,0.0087 -0.0467,0.03387 -0.0618,0.0289 -0.0158,-0.0044 -0.0309,-0.0346 -0.046,-0.04602 -0.0963,-0.07491 -0.21921,-0.09994 -0.32284,-0.163259 -0.0416,-0.02522 -0.0819,-0.07915 -0.13362,-0.08191 -0.0374,-0.0022 -0.0828,0.0094 -0.11798,-0.0086 -0.0331,-0.0173 -0.041,-0.05614 -0.0539,-0.08853 -0.004,-0.0092 -0.0165,-0.03939 -0.0258,-0.04804 -0.004,-0.0052 -0.009,-0.0022 -0.0153,-0.0066 -0.0272,-0.01564 -0.0611,-0.02006 -0.0883,-0.03663 -0.0188,-0.01215 -0.0294,-0.03442 -0.0418,-0.05172 -0.0158,-0.02301 -0.0366,-0.04528 -0.051,-0.0705 -0.0186,-0.03515 -0.0295,-0.07123 -0.051,-0.104176 -0.0324,-0.0497 0,-0.117245 -0.0237,-0.17191 -0.009,-0.01933 -0.0238,-0.02945 -0.0353,-0.04675 -0.0201,-0.03368 -0.0129,-0.0797 -0.0129,-0.117061 0,-0.02963 10e-4,-0.05835 0,-0.08632 -7e-4,-0.02871 -0.0208,-0.04178 -0.028,-0.07123 -0.0116,-0.05172 -0.0381,-0.121478 -0.0769,-0.159578 -0.0418,-0.03957 -0.0841,-0.07915 -0.12442,-0.120006 -0.0331,-0.03313 -0.0525,-0.07914 -0.0503,-0.125895 0.002,-0.0324 0.0193,-0.101416 0.0676,-0.07197 0.0121,0.0066 0.0193,0.0289 0.0324,0.03607 0.004,0.0028 0.0151,0.0042 0.0201,0.0064 0.007,0.0035 0.0121,0.0094 -0.0173,-0.0022 0.0245,0.01436 0.049,0.01509 0.0769,0.01951 0.0309,0.005 0.0584,0.0085 0.0898,0.0085 0.0296,0 0.0611,-0.005 0.0893,0.0066 0.0524,0.02301 0.10141,0.04233 0.16252,0.04307 h 0.0525 c 0.0173,0 0.0488,0.0057 0.0661,0 0.009,-0.0022 0.009,-0.0087 0.0188,-0.01141 0.0114,-0.0015 0.0287,0.0013 0.0401,0.0013 0.0361,0 0.0685,-0.0035 0.10142,0.0094 0.0388,0.01509 0.0784,0.02374 0.11577,0.04031 -0.0245,0.0173 -0.0668,0.01067 -0.0913,0.01067 -0.0403,-5.65e-4 -0.0733,-0.0042 -0.11209,0.01012 -0.046,0.01804 -0.10215,0.02153 -0.13731,0.0589 -0.023,0.02448 -0.0267,0.07197 -0.0331,0.103624 -0.004,0.01804 -0.009,0.03736 -0.0123,0.05614 -0.004,0.02577 10e-4,0.05393 -0.006,0.0797 -0.0144,0.06332 0.005,0.131602 -0.006,0.195654 -0.008,0.03589 -0.0158,0.0797 -0.007,0.115772 0.0121,0.04951 0.0596,0.08338 0.0806,0.128656 0.0136,0.02798 0.0193,0.07325 0.0409,0.09774 0.0101,0.01233 0.026,0.02798 0.0374,0.04031 0.0173,0.01657 0.0324,0.0208 0.0554,0.0265 0.0173,0.0029 0.0547,0.0072 0.074,0.0173 0.0166,0.0072 0.0289,0.02375 0.0475,0.03019 0.0482,0.01951 0.10215,0.02743 0.1511,0.04454 0.0129,0.0044 0.023,0.01086 0.0359,0.01233 0.0252,0.0057 0.0574,0 0.0834,0 0.0302,0 0.0648,0.002 0.0913,-0.0116 0.0353,-0.01712 0.0777,-0.04804 0.0885,-0.08835 0.0121,-0.04454 0.0151,-0.0935 0.0322,-0.139516 0.0123,-0.03515 0.021,-0.0727 0.0202,-0.110067 -7e-4,-0.01362 0.005,-0.0208 0.007,-0.03092 0.004,-0.0208 0.002,-0.04307 0.002,-0.06387 0,-0.02522 -0.006,-0.06111 -7.1e-4,-0.08485 10e-4,-0.0044 0.008,-0.0079 0.008,-0.01086 0.002,-0.01067 0.002,-0.02301 0.005,-0.03368 0.004,-0.02301 0.0114,-0.02963 0.0351,-0.02448 0.0215,0.0935 0.0532,0.18553 0.0517,0.284001 -0.002,0.09129 0.001,0.182586 0,0.273878 0,0.04233 0.006,0.08264 0.009,0.125896 0.003,0.04233 7.1e-4,0.08614 7.1e-4,0.129393 0,0.0416 0.005,0.06681 -0.0136,0.101415 m -1.2849,-2.575522 c 0.0289,-0.03442 0.0576,-0.07105 0.0979,-0.08908 0.0344,-0.01509 0.0453,-0.02724 0.0423,-0.06829 -7e-4,-0.02227 -0.008,-0.01877 -0.0201,-0.03387 -0.006,-0.0072 -0.0151,-0.01509 -0.0109,-0.02577 0.0101,-0.02816 0.0467,0 0.0604,0.0099 0.018,0.01436 0.0274,0.02816 0.0504,0.03092 0.0114,0.0015 0.0237,-7.41e-4 0.0344,-7.41e-4 0.0302,7.41e-4 0.0504,0.01951 0.0806,0.02025 0.0381,0.0015 0.0725,-0.0037 0.10565,0.01067 0.026,0.0087 0.0611,0.01233 0.0819,0.02743 0.018,0.01215 0.0361,0.0416 0.0374,0.06184 0.001,0.02577 -0.004,0.04675 -0.0107,0.06976 -0.009,0.03092 -0.0245,0.05522 -0.0403,0.08264 -0.0109,0.02006 -0.0173,0.0416 -0.0294,0.06184 -0.009,0.01785 -0.0698,0.145222 -0.0698,0.175407 0,-0.03166 -0.0237,-0.03019 -0.0596,-0.03019 -0.0475,7.41e-4 -0.092,-0.01804 -0.13731,-0.02797 -0.0445,-0.0094 -0.0871,-0.02375 -0.13086,-0.03957 -0.018,-0.0064 -0.0274,-0.01086 -0.0468,-0.01233 -0.0252,-0.002 -0.0287,-0.01288 -0.0324,-0.04086 -0.003,-0.01804 -0.001,-0.02742 -0.0109,-0.04104 -0.0129,-0.01583 -0.0366,-0.02448 -0.0466,-0.04307 -0.023,-0.04252 0.0322,-0.07049 0.0545,-0.09792 m 0.82034,1.69186 c 0.0289,-7.41e-4 0.0289,-0.04325 0.0289,-0.06184 l 0.0193,-0.0094 c -0.003,-0.02448 0.0173,-0.04896 0.0203,-0.07123 0.004,-0.01859 -10e-4,-0.06184 0.0179,-0.06902 0.0136,0.04252 -0.0258,0.151848 0.0289,0.169702 0.0215,0.0072 0.0193,-0.0079 0.0322,-0.0173 0.0116,-0.0079 0.0245,-0.0085 0.0339,-0.0208 0.0201,0.0037 0.0201,0.03166 0.0173,0.04896 -0.007,0.04233 -0.0468,0.0589 -0.0806,0.07546 -0.0351,0.0173 -0.0337,0.03957 7.1e-4,0.05172 0.0223,0.0072 0.046,0.02025 0.069,0.02448 -0.004,0.01509 -0.0344,0.0057 -0.0497,0.0072 -0.0258,0.0029 -0.0201,0.01215 -0.0193,0.0381 7e-4,0.02945 -0.0101,0.05687 -0.0109,0.08632 0,0.01583 0.004,0.07473 -0.0171,0.07546 -0.008,-0.02595 0.003,-0.05743 -0.003,-0.08485 -0.003,-0.01362 -0.008,-0.02153 -0.009,-0.03663 -10e-4,-0.02227 0.006,-0.0324 -0.0193,-0.03736 -0.0784,-0.01951 -0.0611,0.09773 -0.0977,0.135834 -0.009,-0.0173 0.008,-0.05098 0.008,-0.07197 -7e-4,-0.02006 0.003,-0.04086 0,-0.06037 -0.002,-0.01583 -0.0109,-0.02724 -0.0116,-0.04307 -0.0136,-0.0044 -0.023,0.01141 -0.0302,0.02945 -0.002,0.01436 -0.005,0.02871 -0.0136,0.04178 0.003,-0.0072 0.007,-0.02595 0.0136,-0.04178 7.1e-4,-0.0079 0.001,-0.01657 0.001,-0.02522 0,-0.02006 0.008,-0.0589 -0.004,-0.0762 -0.008,-0.0099 -0.0136,-0.0072 -0.0258,-0.0086 -0.0144,-0.0035 -0.0317,-0.0057 -0.0467,-0.0085 -0.0252,-0.0044 -0.0742,0.01141 -0.0893,-0.0116 0.0195,-0.0079 0.0296,-0.01933 0.0512,-0.0208 0.0151,-0.0015 0.0302,7.41e-4 0.0445,7.41e-4 0.0193,0 0.0727,0.0042 0.0819,-0.01951 0.004,-0.01288 -0.0237,-0.05098 -0.0309,-0.06037 -0.0166,-0.0208 -0.0396,-0.04233 -0.0468,-0.06902 0.0282,0.01509 0.044,0.05098 0.0633,0.07399 0.0151,0.0173 0.0468,0.06829 0.074,0.06626 m 0.0281,-2.739334 c 0.0166,-0.02724 0.0193,-0.05043 0.028,-0.07914 0.0173,-0.05466 7.1e-4,-0.108594 0.0374,-0.1524 0.0245,-0.03019 0.0475,-0.06258 0.0848,-0.07326 0.0576,-0.01657 0.11724,-0.02816 0.17467,-0.04104 0.0534,-0.01288 0.11227,0.0064 0.16546,0.0087 0.0388,7.41e-4 0.0928,0.02797 0.12792,0.04749 0.0425,0.02374 0.092,0.04951 0.14246,0.05246 0.0416,0.0022 0.0834,0 0.12369,0 0.0171,0 0.0329,0.0015 0.0488,0.0042 0.006,-0.0028 0.0109,-0.0042 0.0166,-0.0042 0.0201,-0.0029 0.0331,0.0087 0.0532,0.01067 -0.0245,0 -0.0468,-0.0042 -0.0698,-0.0064 -0.006,0.0015 -0.0121,0.0037 -0.0179,0.0052 -0.009,0.0013 -0.018,-0.0022 -0.0267,0 -0.0151,0.0042 -0.0309,0.02227 -0.0445,0.03018 -0.0195,0.0099 -0.0353,0.0072 -0.0576,0.01141 -0.01,0.0015 -0.0171,0.0072 -0.0265,0.0087 -0.0151,0.0037 -0.0294,0 -0.046,0.0029 -0.0237,0.0035 -0.0425,0.0094 -0.0648,0.02006 -0.0445,0.0208 -0.10785,0.0324 -0.13086,0.08411 0.006,-0.0589 0.004,-0.135099 -0.056,-0.165284 -0.0633,-0.0324 -0.13012,0.0013 -0.1892,0.02153 -0.0252,0.0079 -0.0517,0.01933 -0.0611,0.04675 -0.006,0.01933 -7.1e-4,0.05098 0.0109,0.06829 0.0173,0.02522 0.0324,0.01509 0.0574,0.02153 0.0123,0.0029 0.0151,0.0094 0.0302,0.01012 0.0151,0.0015 0.0281,-0.0057 0.0396,0.0099 0.0294,0.0066 0.0245,0.02816 0.0101,0.05117 -0.018,0.02798 -0.0532,0.01657 -0.0826,0.01068 -0.0525,-0.0092 -0.11007,-0.0028 -0.16326,-0.002 -0.0346,0 -0.0547,0.01583 -0.0863,0.03221 -0.0166,0.0086 -0.0488,0.02301 -0.0633,0.03608 0.007,-0.02301 0.023,-0.04822 0.0353,-0.07049 m -1.25471,0.345844 c -0.004,0.02227 -7e-4,0.04381 -0.002,0.06608 -0.002,0.03387 -0.0116,0.09276 -0.0554,0.0554 -0.0136,-0.01215 -0.0195,-0.03092 -0.0295,-0.04601 -0.0123,-0.01583 -0.0237,-0.01933 -0.0403,-0.02871 -0.0208,-0.01362 -0.0324,-0.02669 -0.0561,-0.03607 -0.0166,-0.0064 -0.0294,-0.01215 -0.0309,-0.03295 -0.006,-0.0015 -0.0107,-0.0029 -0.0158,-0.0037 -0.004,-0.01436 0,-0.02503 0.003,-0.0381 0.003,-0.01215 0.006,-0.02871 0.0121,-0.04031 0.013,-0.02227 0.0388,-0.04233 0.0425,-0.06957 v 0.03019 c 0.0331,-0.0015 0.0525,0.02227 0.0804,0.0381 0.0116,0.0064 0.0339,0.0086 0.018,0.03295 -0.009,0.01307 -0.0331,0.01159 -0.0467,0.02098 -0.006,0.005 -0.0238,0.01933 -0.0201,0.02797 10e-4,0.005 0.0317,0.01878 0.0374,0.02006 0.0136,0.0029 0.0381,0.0015 0.051,0 0.0188,-0.002 0.0223,-0.01436 0.0396,-0.01859 0.028,-0.0072 0.0158,0.0079 0.0129,0.02227 m 5.99489,3.276415 c -0.0136,-0.02374 -0.006,-0.04178 0.004,-0.06258 0.0223,-0.04675 0.0742,-0.08411 0.0791,-0.137308 0.003,-0.03736 -0.0116,-0.07123 -0.041,-0.0935 -0.0107,-0.0057 -0.0215,-0.0087 -0.0337,-0.01012 -0.0237,-0.01012 -0.0453,-0.02375 -0.0626,-0.04233 -0.0215,-0.01509 -0.0453,-0.02669 -0.069,-0.0381 -0.0274,-0.01307 -0.0576,-0.02301 -0.0856,-0.03608 -0.0215,-0.0099 -0.0445,-0.02724 -0.069,-0.03092 -0.0309,-0.0035 -0.0582,0.0037 -0.0891,-0.0092 -0.0361,-0.01436 -0.0626,-0.04528 -0.0972,-0.06037 -0.0245,-0.01012 -0.0567,-0.0173 -0.0834,-0.02025 -0.0482,-0.005 -0.0819,0.02153 -0.12866,0.0208 -0.0604,-5.65e-4 -0.11356,-0.02945 -0.17393,-0.03019 -0.0475,-7.4e-4 -0.0641,-0.0092 -0.0994,-0.0381 -0.0243,-0.0208 -0.048,-0.03736 -0.0733,-0.05522 -0.023,-0.01583 -0.0532,-0.0346 -0.0547,-0.06479 -0.0144,-0.0057 -0.0215,0.0037 -0.023,0.01509 -0.0173,-0.0064 -0.0388,-0.01141 -0.0517,-0.01583 -0.0747,-0.02227 -0.15608,-0.04233 -0.23578,-0.03884 -0.0583,0.0029 -0.113,0.0086 -0.17264,-7.41e-4 -0.0265,-0.0035 -0.0532,-0.0079 -0.0791,-0.01288 -0.0517,-0.01233 -0.0977,-0.04454 -0.14081,-0.07546 -0.0274,-0.01804 -0.10141,-0.06405 -0.0957,-0.102152 0.006,-0.03884 0.09,-0.03442 0.12369,-0.0381 0.0282,-0.0022 0.0512,-0.0035 0.0769,-0.01141 0.0123,-0.0037 0.0245,-0.0094 0.0381,-0.01086 0.0834,-0.0086 0.1719,0.01933 0.25234,0.03663 0.0403,0.0087 0.0648,7.41e-4 0.10436,-0.0028 0.048,-0.0066 0.094,-7.41e-4 0.14153,-0.0173 0.0618,-0.02098 0.15958,-0.02522 0.18848,-0.09571 0.0114,-0.02871 0.0223,-0.05319 0.0409,-0.07896 0.0138,-0.01878 0.0353,-0.03755 0.0418,-0.05982 0.0129,-0.0473 0.003,-0.09479 0.0302,-0.13878 0.0193,-0.03147 0.0381,-0.06184 0.0547,-0.09479 0.009,-0.0173 0.0223,-0.0324 0.0265,-0.05117 0.009,-0.03865 0.002,-0.09258 -0.004,-0.130128 -0.006,-0.03018 -0.004,-0.06037 -0.0143,-0.09056 -0.0116,-0.0324 -0.0287,-0.06258 -0.0418,-0.09479 -0.0144,-0.03957 -0.0309,-0.07767 -0.0388,-0.116508 -0.006,-0.02374 -0.0201,-0.04749 -0.0272,-0.07049 -0.006,-0.0208 -0.0144,-0.04031 -0.0274,-0.05761 -0.0287,-0.03663 -0.0755,-0.07105 -0.11209,-0.09976 -0.0324,-0.02669 -0.12147,-0.0554 -0.13362,-0.10068 -0.0158,-0.05982 0.0703,-0.0519 0.10344,-0.0554 0.0267,-0.0015 0.0438,-0.0072 0.0653,-0.02025 0.0281,-0.01638 0.0769,-0.03221 0.095,-0.06037 0.0561,-0.08338 0.0467,-0.17688 0.0467,-0.273878 0,0.03534 -0.0158,0.06258 -0.0208,0.09773 -0.003,0.02172 -0.0101,0.0381 -0.0195,0.05835 -0.0208,0.04749 -0.056,0.06332 -0.10712,0.06037 -0.0272,-0.0015 -0.0482,-0.0094 -0.0769,-0.0094 -0.0158,-0.0015 -0.025,-0.0057 -0.0409,-0.01086 -0.0324,-0.0099 -0.0663,-0.01436 -0.0992,-0.01785 -0.0613,-0.0072 -0.12018,0.0057 -0.17982,0.0079 -0.0856,0.0022 -0.19491,-0.01509 -0.26964,0.03515 -0.0547,0.03663 -0.11356,0.07546 -0.10491,0.149639 10e-4,0.01785 0.009,0.03166 0.0107,0.04951 7e-4,0.01509 -10e-4,0.02227 0.005,0.03663 0.0171,0.03166 0.0604,0.05264 0.0826,0.08062 0.0151,0.02006 0.0287,0.04381 0.0114,0.06258 -0.0121,0.01436 -0.0309,0.01436 -0.0488,0.01657 0.002,0.04233 -0.0698,0.03884 -0.0965,0.0381 -0.0374,0 -0.0883,-0.0015 -0.11283,0.03018 -0.0129,0.01859 -0.0186,0.02651 -0.0467,0.0208 -0.0179,-0.0037 -0.0423,-0.01804 -0.0559,-0.03092 -0.0217,-0.01933 -0.0383,-0.05393 -0.0512,-0.07915 -0.007,-0.01288 -0.006,-0.02724 -0.0129,-0.03939 -0.0129,-0.02448 -0.0547,-0.03884 -0.0769,-0.05264 -0.0504,-0.03092 -0.11007,-0.03939 -0.15811,-0.07473 -0.0173,-0.01141 -0.0267,-0.02227 -0.0482,-0.02374 -0.0237,-0.002 -0.0418,-7.41e-4 -0.0648,-0.0099 -0.0178,-0.0066 -0.006,-0.0087 -0.0344,-0.01233 -0.0489,-0.0057 -0.0762,-0.01436 -0.10932,-0.05025 -0.0252,-0.02816 -0.0366,-0.06829 -0.0604,-0.09921 -0.0359,-0.0497 -0.072,-0.105097 -0.11429,-0.148903 -0.0131,-0.01215 -0.0158,-0.01509 -0.0237,-0.03092 -0.009,-0.01509 -0.026,-0.02945 -0.0245,-0.04822 0.001,-0.0092 0.0151,-0.03589 0.0188,-0.04454 0.007,-0.01859 0.009,-0.02797 0.0136,-0.04822 0.009,-0.03295 0.0272,-0.05816 0.0295,-0.09258 7e-4,-0.02098 7e-4,-0.04325 -7.1e-4,-0.06479 -0.002,-0.04675 -0.0359,-0.109331 -0.0683,-0.143013 -0.006,-0.0059 -0.0136,-0.0116 -0.0208,-0.01657 -0.018,-0.0173 -0.0309,-0.02153 -0.0524,-0.03018 -0.0274,-0.01159 -0.046,-0.02945 -0.0749,-0.03884 -0.003,-7.41e-4 -0.006,-0.0015 -0.009,-0.0015 0.0131,0.01509 0.0245,0.03313 0.0267,0.04105 0.004,0.01859 -7e-4,0.04454 -7e-4,0.06387 0,0.01362 0.002,0.0324 0,0.04601 -0.006,0.0289 -0.026,0.05393 -0.0482,0.07049 -0.0201,0.0173 -0.0337,0.01951 -0.0618,0.01951 -0.0258,0 -0.0438,-0.0079 -0.0582,-0.03166 -0.006,-0.0116 -0.008,-0.02595 -0.0144,-0.03736 -0.0101,-0.01951 -0.0116,-0.0324 -0.0173,-0.05117 -0.006,-0.02375 -0.0265,-0.04454 -0.0396,-0.06681 -0.0201,-0.03313 -0.046,-0.05172 -0.051,-0.09276 -0.002,-0.01877 0.005,-0.0324 0.008,-0.04951 0.003,-0.01454 7e-4,-0.02743 0.002,-0.04178 0.004,-0.03387 0.0272,-0.05964 0.0431,-0.08706 0.018,-0.03294 0.0431,-0.06902 0.0712,-0.09553 0.0381,-0.03607 0.0797,-0.05319 0.1316,-0.0554 0.0351,-0.0022 0.0762,0.0037 0.11062,0.01012 0.018,0.0028 0.0374,0.0099 0.0525,0.02153 0.023,0.0173 0.0388,0.04381 0.0618,0.06184 0.0109,0.0094 0.0591,0.07326 0.0791,0.06534 0.0245,-0.0094 -0.002,-0.05172 0.0237,-0.06608 0.0129,-0.0087 0.0467,-0.0022 0.0633,-0.0029 0.0445,0 0.0891,0.0015 0.13289,0.01307 0,0.04657 -7.1e-4,0.09553 -7.1e-4,0.143749 0,0.02448 7.1e-4,0.04878 0,0.07399 0,0.0086 -0.003,0.0208 0,0.03019 7.1e-4,0.0072 0.007,0.0079 0.009,0.01509 0.005,0.01878 0.004,0.03534 0.0116,0.05393 0.004,0.01233 0.0121,0.06037 0.0223,0.06626 0.0151,0.0092 0.0351,-0.01233 0.0381,-0.02669 0.004,-0.01657 -10e-4,-0.04233 -10e-4,-0.05963 10e-4,-0.04105 -0.0129,-0.0935 -0.0295,-0.128657 -0.0144,-0.0324 -0.0287,-0.0762 -0.018,-0.110802 0.005,-0.01583 0.0144,-0.03313 0.0203,-0.04749 0.0151,-0.0324 0.0136,-0.05816 0.0201,-0.09277 0.004,-0.01785 0.007,-0.03166 0.009,-0.05098 0,-0.0042 -0.004,-0.01215 -0.003,-0.0173 0.009,-0.03515 0.0497,-0.05098 0.0626,-0.08043 0.0129,-0.03166 0.0129,-0.07491 0.018,-0.107858 0.006,-0.04252 0.0121,-0.08264 0.0121,-0.125159 -10e-4,-0.04233 -0.003,-0.08485 -10e-4,-0.127184 10e-4,-0.02374 0.013,-0.0324 0.023,-0.05191 0.008,-0.01436 0.0136,-0.03865 0.0173,-0.05246 0.006,-0.0208 0.004,-0.04381 0.0101,-0.0646 0.006,-0.01657 0.0136,-0.03166 0.0178,-0.04822 0.005,-0.02153 0.0144,-0.04031 0.0203,-0.05963 0.0173,-0.06553 0.074,-0.134547 0.0416,-0.203569 -0.009,-0.01712 -0.023,-0.03736 -0.0351,-0.05466 -0.0123,-0.01785 -0.0252,-0.03736 -0.0381,-0.05393 -0.0129,-0.01509 -0.0295,-0.02577 -0.0418,-0.04233 -0.0114,-0.01657 -0.0165,-0.0324 -0.025,-0.04822 -0.006,-0.01215 -0.0138,-0.02227 -0.018,-0.03663 -0.009,-0.03957 -0.008,-0.09921 0.0388,-0.110619 0.0351,-0.0079 0.0733,0.0072 0.0992,0.02798 0.0418,0.03515 0.0992,0.04601 0.13087,0.09497 0.0114,0.01859 0.0258,0.04381 0.0302,0.0646 0.005,0.03092 -7e-4,0.07049 -7e-4,0.101416 0,0.03589 -0.008,0.08264 -7.1e-4,0.118533 0.004,0.02025 0.0158,0.04031 0.0203,0.05982 0.004,0.01712 0.009,0.02724 0.01,0.04454 0.002,0.03515 7.1e-4,0.07123 0,0.107122 0,0.02577 0.005,0.03442 0.0109,0.0554 0.006,0.02503 -0.008,0.05595 -7.1e-4,0.08043 l 0.008,0.01436 c 0.005,0.02816 0.0101,0.05687 0.0121,0.08485 0.003,0.02945 0.0158,0.06332 0.0101,0.09276 -0.003,0.0208 -0.008,0.03884 -0.009,0.06184 -10e-4,0.02227 -0.009,0.04381 -0.0136,0.06608 -0.003,0.02595 -0.002,0.05466 -0.009,0.07988 -0.008,0.02798 -0.008,0.04749 -0.008,0.07841 0,0.04307 -0.005,0.08264 -0.009,0.125712 -0.003,0.0346 -0.006,0.07491 -10e-4,0.10933 0.004,0.03092 0.01,0.05393 0.01,0.08559 v 0.163259 c 0,0.04013 0.009,0.09626 -0.004,0.133626 -0.0158,0.04381 -0.046,0.08209 -0.046,0.132338 0,0.02595 0.007,0.08191 0.0302,0.09553 0.0193,0.0138 0.069,0.0138 0.0898,-0.0013 0.0158,-0.0116 0.0237,-0.06332 0.028,-0.07767 0.006,-0.01583 0.0123,-0.03092 0.0138,-0.04822 10e-4,-0.01933 10e-4,-0.04601 -7e-4,-0.06534 -0.003,-0.02227 -0.0173,-0.04031 -0.021,-0.06037 -0.003,-0.01528 0,-0.0346 0,-0.04896 0,-0.03957 -0.004,-0.07988 0.003,-0.117981 0.004,-0.02006 0.008,-0.03663 0.008,-0.05743 -0.001,-0.07767 0.003,-0.155345 0,-0.232281 -0.004,-0.08559 -0.0208,-0.168965 -0.0208,-0.256761 0,-0.05743 -0.002,-0.113563 -0.0151,-0.168781 -0.0151,-0.07123 -0.0144,-0.146694 -0.0144,-0.219397 0,-0.07197 10e-4,-0.143749 7.1e-4,-0.215716 -7.1e-4,-0.02871 -10e-4,-0.06184 -0.0109,-0.09203 -0.004,-0.0099 -0.008,-0.0094 -0.0101,-0.02301 -0.003,-0.0173 -0.004,-0.05964 0.008,-0.07252 0.0151,0.0064 0.0173,0.03166 0.0237,0.04528 0.0116,0.01933 0.0238,0.03663 0.041,0.05246 0.0302,0.02798 0.0403,0.0381 0.0812,0.03957 0.0223,7.41e-4 0.0438,-0.0015 0.0641,-0.0015 0.0272,0.0015 0.0653,0.0072 0.092,-7.4e-4 0.0208,-0.0072 0.0683,-0.03019 0.0596,-0.05669 -0.026,-0.0074 -0.0532,0.002 -0.0791,-7.41e-4 -0.0438,-0.0029 -0.0906,-0.01951 -0.13288,-0.0324 7e-4,-0.03313 -7.1e-4,-0.0762 -0.0136,-0.107858 -0.009,-0.02153 -0.0361,-0.03589 -0.0433,-0.0589 -0.005,-0.01509 -7.1e-4,-0.03608 -7.1e-4,-0.05117 v -0.08264 c 0,-0.06037 -0.0144,-0.107122 -0.0431,-0.161051 -0.0202,-0.03736 -0.049,-0.05393 -0.0755,-0.08706 -0.0252,-0.03019 -0.0532,-0.02871 -0.0935,-0.02871 -0.0633,-0.0015 -0.12737,0 -0.18976,0.0079 -0.0151,0.0022 -0.0324,-0.0015 -0.0475,0.0015 -0.0109,0.0022 -0.0188,0.0079 -0.0287,0.01141 -0.0238,0.0059 -0.0468,-0.005 -0.0712,0.0059 -0.0173,0.0072 -0.0374,0.02374 -0.0497,0.03736 -0.0121,0.01362 -0.0144,0.02227 -0.0215,0.0416 -0.0107,0.02301 -0.0201,0.04675 -0.0272,0.07123 -0.002,0.01086 -0.002,0.0208 -7e-4,0.03092 -0.004,0.01215 -0.0136,0.0173 -0.0188,0.02871 -0.006,0.01509 -0.001,0.0346 -0.001,0.05043 -7.1e-4,0.02724 7e-4,0.0381 0.0173,0.06037 0.009,0.01362 0.0173,0.02227 0.0208,0.03957 0.009,0.0473 -0.028,0.09553 -0.0366,0.140804 -0.009,0.04104 -10e-4,0.0878 -10e-4,0.130129 v 0.136019 c 0,0.05246 -0.004,0.097 -0.0309,0.143749 -0.0158,0.02871 -0.0416,0.0416 -0.025,0.07841 -0.0525,0.06387 -0.13307,0.09847 -0.21001,0.120742 -0.041,0.01067 -0.0791,0.0079 -0.12074,0.01067 -0.0425,0.0022 -0.0834,0.01877 -0.1259,0.02172 -0.0309,0.002 -0.0445,0.0042 -0.0769,0.01932 -0.0381,0.0173 -0.0517,0.02374 -0.0913,0.01804 -0.0488,-0.0057 -0.11136,-0.01657 -0.15387,-0.04252 -0.0381,-0.02448 -0.0725,-0.05743 -0.10712,-0.08559 -0.023,-0.02006 -0.0423,-0.03442 -0.0596,-0.05816 -0.0272,-0.03736 -0.0482,-0.08264 -0.0769,-0.11927 -0.026,-0.03166 -0.0467,-0.04325 -0.0883,-0.04325 -0.0396,0 -0.0863,0.0037 -0.12516,0.01307 -0.0201,-0.02669 -0.0425,-0.05043 -0.0668,-0.07344 -0.023,-0.03589 -0.0547,-0.05466 -0.0942,-0.05466 -0.0316,0.02374 -0.0618,0.04822 -0.0913,0.07344 -0.0151,0.01657 -0.0331,0.02724 -0.0525,0.03166 -0.0396,0.0072 -0.0849,0.0013 -0.12515,0.0013 h -0.13584 c -0.0388,0 -0.10933,-0.0085 -0.15184,0.0015 -0.0466,0.0116 -0.10565,0.04178 -0.14007,0.07767 -0.0374,0.0381 -0.0403,0.100679 -0.072,0.141724 -0.0302,0.04086 -0.0834,0.06608 -0.11651,0.107122 -0.0143,0.01712 -0.0265,0.03663 -0.0388,0.05522 -0.0409,0.06258 -0.0559,0.156081 -0.0596,0.232281 -10e-4,0.02945 -0.006,0.05467 -0.0101,0.08485 -0.001,0.0094 10e-4,0.01877 0,0.02945 -0.01,0.04325 -0.0933,0.09276 -0.13933,0.09921 -0.0353,0.0044 -0.0554,-0.0087 -0.0777,0.0289 -0.004,0.0079 -0.0151,0.03074 -0.0136,0.0416 0.004,0.01804 0.0344,0.02006 0.0329,0.04601 -10e-4,0.03092 -0.0366,0.05172 -0.0604,0.05963 -0.0403,0.0138 -0.0834,0.03313 -0.12148,0.05319 -0.0215,0.01086 -0.0445,0.03534 -0.069,0.03957 -0.0309,0.0064 -0.0569,-0.0042 -0.0878,0.0094 -0.0129,0.005 -0.0315,0.01288 -0.0423,0.02006 -0.0215,0.01307 -0.028,0.0346 -0.0351,0.05835 -0.0274,-0.0381 -0.0475,-0.08062 -0.0698,-0.122215 -0.009,-0.01804 -0.0173,-0.02743 -0.0131,-0.04528 -0.0747,-0.03313 -0.17964,-0.02301 -0.2321,-0.09792 -0.009,-0.01141 -0.0138,-0.02577 -0.0195,-0.03939 -0.006,-0.0173 -0.018,-0.02816 -0.0252,-0.04178 -0.0129,-0.02374 -0.005,-0.0705 -0.004,-0.09774 0,-0.03681 -7.1e-4,-0.07197 -0.0346,-0.09129 -0.006,-0.0044 -0.0129,-0.0037 -0.0193,-0.0072 -0.004,-0.0029 -0.005,-0.0094 -0.009,-0.01159 -0.0238,-0.0173 -0.0539,-0.02006 -0.0797,-0.03166 -0.0346,-0.01583 -0.0497,-0.03515 -0.0734,-0.06037 -0.018,-0.01933 -0.0324,-0.02006 -0.0582,-0.0208 -0.0316,-7.41e-4 -0.12295,-0.0057 -0.13675,0.02871 -0.008,0.02522 10e-4,0.07399 0.0101,0.09626 0.0208,0.06111 0.0123,0.122951 -0.0186,0.181297 -0.0131,0.02577 -0.0381,0.04307 -0.0569,0.0646 -0.0287,0.03166 -0.0339,0.07694 -0.0144,0.117245 0.0144,0.02743 0.0388,0.04822 0.041,0.08062 10e-4,0.02006 -0.005,0.03884 -0.008,0.05816 -0.004,0.02374 -0.002,0.04749 -0.002,0.07049 0,0.02871 0.002,0.0589 7.1e-4,0.08835 -0.002,0.0381 -0.0215,0.05614 -0.0403,0.08779 -0.006,0.01141 -0.007,0.02522 -0.0151,0.03589 -0.004,0.0052 -0.0129,0.0087 -0.018,0.01435 -0.008,0.0079 -0.0171,0.02025 -0.0215,0.03018 -0.007,0.01583 -0.0107,0.04675 -0.004,0.06405 0.008,0.0208 0.0401,0.06553 0.0604,0.07197 0.0237,0.0072 0.0589,7.4e-4 0.074,-0.01509 0.0166,-0.0173 0.0237,-0.03387 0.0188,-0.05687 -7e-4,-0.005 -0.003,-0.01804 -0.004,-0.02448 -0.002,-0.0094 -0.009,-0.01583 -0.0107,-0.02448 -0.003,-0.0092 -0.002,-0.0208 -0.005,-0.03148 -0.003,-0.01233 -0.009,-0.02522 -0.006,-0.03884 0.005,-0.02301 0.0116,-0.03755 0.0116,-0.06184 -7e-4,-0.01509 -0.003,-0.0324 -7e-4,-0.04822 0.001,-0.01012 0.005,-0.01436 0.009,-0.02227 0.003,-0.01086 0.002,-0.0208 0.006,-0.03166 0.008,-0.01804 0.0237,-0.0381 0.0359,-0.05393 0.006,-0.0086 0.0151,-0.0173 0.0193,-0.02724 0.001,-0.0052 -0.002,-0.01086 0,-0.01509 0.003,-0.0074 0.009,-0.01804 0.0158,-0.02375 0.0158,-0.01086 0.0447,-0.02374 0.0633,-0.02595 0.0433,-0.0042 0.0849,0.0094 0.12663,0.01012 0.0193,7.41e-4 0.0374,0.0087 0.0532,0.02006 0.0193,0.01288 0.0503,0.03736 0.0589,0.05964 0.0101,0.02816 0.004,0.08062 -0.008,0.105649 -0.0151,0.03166 -0.0352,0.06056 -0.0604,0.0843 -0.0245,0.0243 -0.0445,0.04086 -0.0596,0.07105 -0.018,0.0381 -0.041,0.07417 -0.069,0.105649 -0.0445,0.0497 -0.0841,0.10068 -0.12663,0.153136 -0.0265,0.0346 -0.0804,0.07565 -0.0849,0.12019 -10e-4,0.01509 0.004,0.0324 0.002,0.04675 -0.004,0.02227 -0.026,0.03589 -0.0396,0.05319 -0.0374,0.04951 -0.0883,0.07841 -0.14228,0.110619 -0.0497,0.03019 -0.0871,0.06056 -0.12663,0.102152 -0.0129,0.01509 -0.0173,0.01583 -0.023,0.03663 -0.003,0.0094 -0.004,0.01877 -0.0121,0.02669 -0.0116,-0.0037 -0.0151,-0.01288 -0.0245,-0.01951 -0.0121,-0.0099 -0.0252,-0.01436 -0.0359,-0.0265 -0.0223,-0.02595 -0.0289,-0.05761 -0.0539,-0.08264 -0.023,-0.02227 -0.0361,-0.04675 -0.0547,-0.0727 -0.0116,-0.01657 -0.0237,-0.0324 -0.0359,-0.04896 -0.0138,-0.0099 -0.026,-0.02153 -0.0381,-0.03368 -0.006,-0.0116 -0.0109,-0.02301 -0.0158,-0.0346 -0.008,-0.01638 -0.018,-0.03092 -0.0296,-0.04381 -0.008,-0.01509 -0.008,-0.02798 -0.0129,-0.04381 -0.009,-0.03018 -0.0317,-0.04749 -0.0265,-0.08062 0.003,-0.01583 0.006,-0.01362 0.0121,-0.02503 0.0114,-0.0094 0.0208,-0.02098 0.028,-0.0346 0.009,-0.02448 0.0223,-0.04454 0.0396,-0.06332 0.0353,-0.04381 0.0648,-0.0797 0.0791,-0.135835 0.006,-0.02227 0.0121,-0.0381 0.0215,-0.05964 0.006,-0.01509 0.0101,-0.02743 0.0223,-0.0381 0.009,-0.0079 0.023,-0.0094 0.0316,-0.01804 0.0173,-0.01657 0.0158,-0.04454 0.0158,-0.06681 0.001,-0.02595 0.005,-0.06332 0,-0.08982 -0.006,-0.0346 -0.0309,-0.067 -0.0396,-0.09865 -0.004,-0.0099 -0.007,-0.01933 -0.0101,-0.03019 -0.007,-0.02374 -0.004,-0.03221 -0.0164,-0.05743 -0.0173,-0.03166 -0.0267,-0.04528 -0.0532,-0.06111 -0.0173,-0.0094 -0.0138,-0.0094 -0.0245,-0.03092 -0.021,-0.0324 -0.044,-0.06184 -0.0675,-0.09129 -0.0116,-0.0116 -0.021,-0.02522 -0.0267,-0.03957 -0.0136,-0.01086 -0.0309,-0.0173 -0.0497,-0.02448 -0.0394,-0.01436 -0.0725,-0.0438 -0.11357,-0.04307 -0.0309,7.41e-4 -0.0574,-0.0029 -0.0876,-0.0094 -0.0282,-0.0072 -0.0497,-0.01086 -0.0799,-0.01086 -0.0359,0.01509 0.0116,0.04528 0.0467,0.06479 0.0339,0.01933 0.12792,0.04822 0.11283,0.09994 -0.005,0.01859 -0.0251,0.04104 -0.0351,0.05743 -0.018,0.02963 -0.0324,0.06332 -0.041,0.09718 -0.0121,0.04877 0.0611,0.158105 0.10362,0.08982 -0.023,-0.06111 -0.006,-0.139516 0.0121,-0.199151 0.007,0.0208 0.0166,0.05172 0.0353,0.06681 0.0179,0.01509 0.0401,0.01307 0.0604,0.02153 0.0431,0.02025 0.0467,0.05761 0.0611,0.09718 0.007,0.02227 0.0129,0.0381 0.0144,0.06184 0,0.01215 0.006,0.05669 -7e-4,0.07178 -0.0101,0.02301 -0.0561,0.05614 -0.0755,0.06829 -0.0366,0.02245 -0.0769,0.0381 -0.11503,0.05614 -0.0475,0.02153 -0.10565,0.03663 -0.14522,0.07344 -0.0158,0.01436 -0.0124,0.01564 -0.0215,0.03294 -0.0195,0.04031 -0.0497,0.07418 -0.0712,0.112276 -0.0317,0.05246 -0.0675,0.104913 -0.0965,0.160314 -0.0121,0.02448 -0.0215,0.03957 -0.006,0.06534 0.0166,0.02669 0.0569,0.04528 0.0834,0.0589 -0.0165,0.0554 -0.092,0.08632 -0.0777,0.147431 0.0158,0.067 0.0316,0.131601 0.0339,0.202095 0.0661,0.02301 0.12368,0.07197 0.17688,0.115773 -0.009,0.04675 -0.0166,0.09553 -0.0353,0.138779 -0.0258,0.06037 -0.0258,0.103441 -0.01,0.164548 -0.005,-0.02227 0.028,-0.04086 0.046,-0.04601 0.0309,-0.0079 0.0633,0.01233 0.0856,0.03239 0.0295,0.02669 0.0243,0.0497 0.0302,0.08632 0.002,0.01436 0.005,0.03736 0.0171,0.04749 0.007,7.41e-4 0.0151,0.0035 0.021,0.0079 0.007,0.01509 0.01,0.03147 0.009,0.04804 0.002,0.04105 0.002,0.05246 -0.021,0.0878 -0.0121,0.01932 -0.0668,0.08264 -0.0618,0.1143 10e-4,0.01509 0.026,0.04896 0.0425,0.05319 0.007,0.05393 -0.0425,0.09056 -0.0569,0.137307 -0.005,0.01657 -0.003,0.02945 -0.002,0.04749 0,0.03884 0.004,0.08191 -0.006,0.11927 -0.0171,0.06332 -0.0812,0.105097 -0.097,0.167676 -0.0116,0.04086 -0.004,0.07031 0.023,0.104914 0.0109,0.01509 0.0295,0.02577 0.0438,0.03663 0.0274,0.01583 0.0561,0.03018 0.0856,0.04031 0.0123,0.0057 0.023,0.01215 0.0352,0.01933 0.0188,0.02669 0.007,0.08135 0.004,0.111539 -0.002,0.0265 -0.009,0.05172 -0.0101,0.07841 -0.001,0.03865 0.004,0.09921 0.0188,0.135835 0.0101,0.02724 0.0272,0.05393 0.0561,0.06608 0.0394,0.0173 0.0438,-0.01583 0.0782,-0.0265 0.0295,-0.0087 0.0979,0.0064 0.12939,0.01288 0.0339,0 0.0618,0.01362 0.0821,0.04104 0.0208,0.02301 0.0445,0.04307 0.0705,0.06111 0.0171,0.0099 0.0337,0.01215 0.0517,0.02153 0.0223,0.01141 0.0337,0.03092 0.0503,0.04951 0.0208,0.02374 0.044,0.04749 0.0633,0.07418 0.0267,0.03589 0.0574,0.08835 0.0653,0.132153 0.006,0.03037 -0.006,0.08927 -0.0144,0.12019 -0.0158,0.04951 -0.0337,0.101968 -0.0596,0.144486 -0.0309,0.05319 -0.0928,0.0819 -0.14098,0.117981 -0.0107,0.0079 -0.0381,0.0265 -0.0423,0.04307 -0.003,0.01215 0.0114,0.0554 0.0144,0.06681 0.004,0.02227 0.0129,0.04325 0.0166,0.06479 0.003,0.01933 -7e-4,0.04031 0.003,0.05964 0.009,0.03663 0.0114,0.06755 0.005,0.108594 -0.006,0.03957 -0.0129,0.09056 -0.0467,0.117244 -0.0121,0.0099 -0.0245,0.01638 -0.0374,0.02871 -0.0324,0.03092 -0.0475,0.05743 -0.0396,0.101416 0.003,0.01436 0.0223,0.06037 0.018,0.0797 -0.004,0.01657 -0.0215,0.03387 -0.0289,0.04896 -0.0143,0.02798 -0.0157,0.06111 -0.0201,0.09203 -0.006,0.04031 0.002,0.08982 0.0302,0.120742 0.0468,0.0497 0.12295,0.07123 0.17467,0.115773 0.0203,0.01877 0.0289,0.02871 0.0547,0.03515 0.0136,0.0022 0.0267,-0.002 0.0403,7.41e-4 0.0188,0.0044 0.0806,0.03884 0.0963,0.01307 0.0145,-0.02227 -0.0186,-0.04031 -0.0322,-0.05117 -0.0138,-0.01141 -0.0295,-0.02503 -0.044,-0.03442 -0.0171,-0.0116 -0.0431,-0.0094 -0.0582,-0.01951 -0.026,-0.01859 -0.0366,-0.06681 -0.0517,-0.09203 -0.0136,-0.02503 -0.0252,-0.05393 -0.0302,-0.0819 -0.006,-0.03313 0.003,-0.07767 0.0193,-0.107858 0.023,-0.04233 0.0826,-0.05393 0.10288,-0.09921 0.008,-0.01933 0.004,-0.03663 0.005,-0.05743 0.008,-0.08632 0.0252,-0.159762 0.0905,-0.220133 0.0317,-0.02871 0.0374,-0.05098 0.0388,-0.0935 7e-4,-0.0265 7e-4,-0.04951 0.0151,-0.07399 0.026,-0.04454 0.0396,-0.08412 0.0517,-0.133075 0.008,-0.02871 0.0188,-0.03147 0.0403,-0.05025 0.0324,-0.02945 0.0554,-0.05393 0.0985,-0.0705 0.0245,-0.0094 0.0512,-0.0173 0.0769,-0.01859 0.0252,-0.0022 0.0497,-7.4e-4 0.072,-0.01657 0.0641,-0.04454 0.0109,-0.156081 -0.009,-0.209274 -0.0121,-0.03442 -0.0186,-0.06976 -0.0344,-0.103624 -0.0173,-0.03589 -0.044,-0.06608 -0.0698,-0.09774 -0.0309,-0.03663 -0.0799,-0.07473 -0.10068,-0.118533 -0.0151,-0.03313 -0.009,-0.0727 -0.0188,-0.106386 -0.002,-0.0066 -0.0208,-0.04178 -0.0201,-0.05117 0.0366,0.03166 0.0856,0.04325 0.1259,0.07049 0.0294,0.02006 0.0574,0.05043 0.0747,0.08191 0.0445,0.07915 0.0525,0.180561 0.11651,0.24811 0.0215,0.02301 0.046,0.04822 0.0703,0.06681 0.0289,0.02098 0.0591,0.02669 0.0928,0.03884 0.0368,0.01307 0.0727,0.02375 0.10068,0.05117 0.0396,0.03663 0.0834,0.06534 0.12295,0.101968 0.0215,0.01951 0.041,0.0289 0.0675,0.04105 0.0331,0.01436 0.0648,0.03166 0.095,0.05246 0.009,0.01509 0.0188,0.02871 0.028,0.04252 0.0281,0.04012 0.0554,0.05595 0.10288,0.0589 0.049,0.0022 0.11357,0 0.15664,0.02577 0.0648,0.03884 0.0662,0.110803 0.0641,0.176879 -0.001,0.03166 -0.006,0.05467 -0.0129,0.08356 -0.006,0.02871 -0.003,0.06037 -0.0129,0.08835 -0.0145,0.03884 -0.046,0.0589 -0.0848,0.03387 -0.0814,-0.0554 -0.0633,-0.182769 -0.16473,-0.214243 -0.0482,-0.01509 -0.0876,-0.07418 -0.14374,-0.067 -0.0287,0.0052 -0.0591,0.02374 -0.0806,0.04178 -0.0287,0.02374 -0.0913,0.03313 -0.092,0.08043 0,0.01951 0.0252,0.067 0.0447,0.0762 0.0136,-0.01215 0.004,-0.03148 0.0114,-0.04657 0.007,-0.01307 0.0267,-0.03166 0.0374,-0.04325 0.0596,-0.05816 0.19198,0.0324 0.23449,0.06755 -0.007,0.0346 -0.0202,0.06405 -0.0296,0.09792 -0.01,0.04086 -0.005,0.07178 0.007,0.110619 0.0136,0.04454 0.0445,0.05466 0.0797,0.08135 0.0374,0.02871 0.0539,0.04528 0.10068,0.04528 0.0381,0 0.0727,0 0.10859,-0.0094 0.0438,-0.0116 0.0661,-0.03092 0.0999,-0.05964 0.0366,-0.03166 0.0554,-0.06405 0.0582,-0.111539 0.001,-0.03663 0.0109,-0.06405 0.026,-0.09847 0.0359,-0.07694 0.0532,-0.192709 0.0173,-0.273878 -0.0281,-0.06553 -0.0497,-0.134546 -0.0806,-0.198414 -0.0245,-0.0519 -0.0668,-0.09148 -0.10271,-0.137492 -0.0203,-0.0265 -0.0375,-0.0646 -0.0655,-0.08467 -0.0151,-0.01086 -0.0344,-0.01454 -0.0502,-0.02172 -0.0289,-0.01362 -0.049,-0.03515 -0.0663,-0.06111 -0.0151,-0.0208 -0.023,-0.04675 -0.0374,-0.06829 -0.0151,-0.02006 -0.0359,-0.03166 -0.0532,-0.04804 -0.0223,-0.02301 -0.0403,-0.03884 -0.0653,-0.05043 0.0121,0.0044 0.025,0.0079 0.0381,0.01013 0.0164,0.0035 0.0351,0.0042 0.051,0.01067 0.0554,0.02227 0.10491,0.06405 0.1581,0.09203 0.0482,0.02374 0.0942,0.05043 0.1294,0.08927 0.0188,0.0208 0.0375,0.04878 0.0482,0.07473 0.006,0.01509 0.004,0.03018 0.009,0.04454 0.0109,0.03313 0.0698,0.05246 0.0992,0.07049 0.0245,0.01657 0.049,0.04178 0.0755,0.05319 0.009,0.0037 0.0151,0 0.0237,0.0044 0.009,0.0057 0.0131,0.01564 0.0173,0.0243 0.0158,0.03387 0.009,0.0324 0.0453,0.05043 0.0166,0.0072 0.13805,0.06976 0.12664,0.08559 0.0854,0.02374 0.17099,0.0473 0.25731,0.06902 0.0396,0.0099 0.0777,0.01933 0.1108,0.04233 0.0236,0.01362 0.0423,0.03313 0.0552,0.05761 0.004,0.0042 0.006,0.0092 0.0101,0.01436 0.0173,0.01215 0.0539,0.01509 0.0762,0.02448 0.0596,0.02282 0.12295,0.02871 0.18479,0.04528 0.0532,0.01436 0.10565,0.03221 0.15958,0.04233 0.0316,0.0064 0.0596,0.0086 0.0913,0.0086 0.0124,-7.4e-4 0.026,-0.0042 0.0366,0.0042 0.007,0.01233 0.0138,0.02522 0.021,0.03755 0.0144,0.03589 0.0309,0.07105 0.0495,0.105649 0.009,0.0086 0.021,0.01435 0.0309,0.02006 0.0309,0.01509 0.0569,0.01436 0.0742,0.04528 0.0201,0.0346 0.0302,0.07473 0.0517,0.10933 0.0245,0.03957 0.0488,0.07988 0.0718,0.120742 0.0153,0.02743 0.0324,0.07049 0.0598,0.09056 0.0287,0.01951 0.0876,0.02172 0.11927,0.02963 0.0339,0.0085 0.0633,0.01859 0.0935,0.03442 0.0317,0.01509 0.072,0.03515 0.0812,0.07049 7.1e-4,0.0042 -0.003,0.05614 -0.002,0.04454 -7.1e-4,0.04104 -0.006,0.07546 0.0388,0.09424 0.006,0.0035 0.0617,0.0086 0.046,0.0057 0.0329,0.0057 0.0732,0.01509 0.10712,0.02669 0.0315,0.01067 0.0329,0.02227 0.0466,0.05098 0.0202,0.03957 0.0252,0.06332 0.004,0.104176 -0.0114,0.02025 -0.0324,0.03387 -0.0482,0.05319 -0.0171,0.02301 -0.0322,0.05043 -0.0567,0.067 -0.0828,0.05246 -0.15755,0.02798 -0.24811,0 -0.028,-0.0094 -0.0532,-0.02172 -0.0812,-0.02816 -0.0138,-0.0042 -0.0316,-0.01141 -0.0433,-0.01932 -0.0144,-0.01086 -0.0208,-0.02816 -0.0337,-0.04031 -0.0144,-0.01141 -0.0353,-0.0208 -0.0512,-0.03166 -0.028,-0.02006 -0.0559,-0.04307 -0.0876,-0.05816 -0.044,-0.01951 -0.10141,-0.02153 -0.14025,-0.05117 -0.0309,-0.02301 -0.0633,-0.0646 -0.087,-0.09479 -0.01,-0.01435 -0.0186,-0.02816 -0.0315,-0.04031 -0.0225,-0.02522 -0.0324,-0.01657 -0.0591,-0.02871 -0.0215,-0.01086 -0.0215,-0.04252 -0.0403,-0.06111 -0.023,-0.02448 -0.0495,-0.03166 -0.0827,-0.0324 -0.0517,-7.41e-4 -0.10417,0.0029 -0.15534,0.01288 -0.0157,0.0022 -0.0307,0.01233 -0.046,0.01583 -0.0157,0.0037 -0.0329,7.41e-4 -0.0503,0.0029 -0.0777,0.0079 -0.15093,0.03736 -0.22216,0.06405 -0.0403,0.01436 -0.0841,0.01785 -0.12515,0.02945 -0.0374,0.01068 -0.051,0.01785 -0.0733,0.05025 -0.009,0.01288 -0.0158,0.02871 -0.0267,0.04178 -0.0121,0.01657 -0.0315,0.02945 -0.0394,0.05025 -0.007,0.02153 -0.006,0.06405 0.006,0.08264 0.0107,0.01583 0.0237,0.01436 0.0409,0.01804 0.0237,0.0072 0.0453,0.01509 0.0677,0.02595 0.0315,0.01638 0.0653,0.03736 0.092,0.06184 0.0258,0.0208 0.0453,0.04804 0.0703,0.06957 0.0116,0.01086 0.0252,0.01233 0.0309,0.0289 0.007,0.02006 -0.01,0.04749 -0.0272,0.05816 -0.0188,0.01233 -0.0475,0.01012 -0.069,0.0029 -0.0547,-0.01804 -0.11081,-0.04454 -0.16252,-0.06829 0.0121,0.0092 0.0195,0.02227 0.0309,0.03221 0.0121,0.01013 0.0287,0.01804 0.0418,0.02743 0.0488,0.03368 0.0898,0.06534 0.14651,0.08338 0.049,0.01362 0.13307,0.0208 0.18056,0.0015 0.046,-0.01951 0.0784,-0.05614 0.0792,-0.107121 0.002,-0.08135 0.006,-0.156082 -0.0663,-0.209274 -0.0423,-0.03166 -0.23799,-0.08264 -0.13363,-0.156081 0.0201,-0.01288 0.0381,-0.0092 0.0618,-0.0092 0.0158,0 0.0431,-0.0066 0.0574,-0.0015 0.0144,0.0035 0.0388,0.02724 0.046,0.03166 0.0431,0.02798 0.095,0.04233 0.13805,0.06976 0.0366,0.02301 0.0705,0.0473 0.10859,0.06902 0.0475,0.0265 0.0661,0.05743 0.0942,0.100496 0.028,0.04105 0.0525,0.08135 0.0683,0.127368 0.0151,0.04454 0.0409,0.08761 0.0675,0.127184 0.0201,0.03166 0.0453,0.07546 0.0812,0.09203 0.0252,0.01159 0.0547,0.01657 0.0814,0.02227 0.046,0.0087 0.10344,0.01878 0.15093,0.01013 0.0144,-0.0029 0.0252,-0.01086 0.041,-0.01086 0.0381,0 0.079,0.01951 0.1178,0.02448 0.0663,0.0079 0.12957,0.0173 0.19638,0.01657 0.0238,0 0.0495,0 0.074,7.41e-4 0.028,0 0.0188,-0.0035 0.0346,-0.0079 0.0287,-0.0079 0.0525,-0.01288 0.0819,-0.01215 0.0173,0 0.0351,0.0013 0.0517,7.41e-4 0.0252,-0.0015 0.0445,-0.0116 0.069,-0.01877 0.0668,-0.01804 0.16675,-0.0086 0.2078,-0.0762 0.0467,-0.07694 0.072,-0.168229 0.10786,-0.250871 0.0351,-0.08062 0.0287,-0.180561 0.0287,-0.266884 10e-4,-0.03589 10e-4,-0.06313 -0.0121,-0.09479 -0.009,-0.0208 -0.0144,-0.04381 -0.0173,-0.06681 -0.006,-0.0519 -0.0165,-0.09866 -0.0626,-0.130129 -0.0295,-0.02025 -0.056,-0.0289 -0.0711,-0.06332 -0.0145,-0.03019 -0.0289,-0.06626 -0.0267,-0.09994 0.002,-0.0324 0.0116,-0.05964 0.0116,-0.09276 -7e-4,-0.03387 -0.0173,-0.03589 -0.0346,-0.06405 -0.009,-0.01509 -0.005,-0.01509 -0.009,-0.02797 -0.0136,-0.04381 -0.0309,-0.07988 -0.0611,-0.1143 -0.0388,-0.04381 -0.0863,-0.0705 -0.13658,-0.09774 -0.0302,-0.01583 -0.0582,-0.02963 -0.0928,-0.03313 -0.0223,-0.0022 -0.0438,7.4e-4 -0.0648,-0.0015 0.0238,-0.02227 0.0289,-0.05743 0.0475,-0.08264 0.021,0.0042 0.0403,0.0028 0.0596,0.0057 0.0232,0.0037 0.0403,0.0116 0.0648,0.0064 0.0237,-0.0042 0.0324,-0.01509 0.0525,-0.03368 0.0287,-0.02301 0.0517,-0.05117 0.0675,-0.08338 -0.003,-0.01012 -0.004,-0.02025 -0.003,-0.03092 0.0186,-0.0059 0.0309,0.0042 0.0475,0.01215 0.0525,0.02448 0.12222,0.01804 0.17743,0.01012 0.0418,-0.0059 0.0863,-0.02098 0.11872,-0.04896 0.0388,-0.03313 0.0532,-0.09056 0.0913,-0.12516 0.009,-0.0087 0.0309,-0.03166 0.0445,-0.03092 0.005,7.41e-4 0.005,0.0079 0.009,0.0094 0.0188,0.0072 0.0403,0.02153 0.0604,0.02153 0.0252,0 0.0109,-0.0087 0.0346,-0.01583 0.0186,-0.0057 0.0388,0.01307 0.0495,0.02301 0.0245,0.02374 0.0324,0.03534 0.0626,0.05264 0.0438,0.02503 0.0906,0.05669 0.1373,0.07399 0.0223,0.0086 0.0453,0.0094 0.067,0.01362 0.028,0.0064 0.0503,0.01804 0.0732,0.03313 0.018,0.01141 0.0324,0.03018 0.0503,0.0416 0.0296,0.01877 0.0756,0.02172 0.10859,0.0138 0.0547,-0.01307 0.11725,-0.0052 0.17338,-0.0052 0.0258,0 0.051,0.0015 0.0775,0.0052 0.0353,0.0042 0.0705,0.0013 0.10583,0.0064 0.0525,0.0079 0.0955,0.04675 0.14449,0.06681 0.007,0.0037 0.0245,0.0037 0.0294,0.01086 0.0116,0.01288 0.002,0.02871 -0.006,0.04012 -0.0237,0.04031 -0.0742,0.04601 -0.11651,0.0554 -0.0683,0.01435 -0.14025,0.02871 -0.21001,0.03534 0.0475,-0.0094 0.0999,0.02724 0.14743,0.03019 0.0295,5.65e-4 0.0547,0.0042 0.0834,0.0092 0.0166,0.0022 0.026,7.41e-4 0.041,-0.005 0.0554,-0.0208 0.11927,-0.01804 0.15461,-0.07197 0.0129,-0.02006 0.0396,-0.0381 0.0488,-0.05964 0.007,-0.01785 0.005,-0.05816 0,-0.0762 -0.004,-0.01288 -0.0151,-0.02724 -0.0201,-0.04031 -0.009,-0.02301 -0.005,-0.04878 -0.0151,-0.07031 -0.0151,-0.03534 -0.0418,-0.07344 -0.0791,-0.08209 -0.0698,-0.01436 -0.14007,-0.02503 -0.21056,-0.03442 -0.0324,-0.0037 -0.0467,-0.01436 -0.0698,-0.03736 -0.0151,-0.01509 -0.0302,-0.02025 -0.0539,-0.02742 -0.0475,-0.01362 -0.0906,-0.01013 -0.13878,-0.01583 -0.0935,-0.01141 -0.19491,-0.02227 -0.28105,-0.06313 -0.0618,-0.02963 -0.10657,-0.07565 -0.16105,-0.117245 -0.0109,-0.0079 -0.0223,-0.0116 -0.0346,-0.0173 -0.0331,-0.01509 -0.0611,-0.03663 -0.0928,-0.05393 -0.023,-0.01362 -0.0517,-0.0173 -0.0626,-0.04233 -0.005,-0.0116 -0.009,-0.02669 -0.0136,-0.03957 -0.009,-0.02448 -0.0245,-0.04252 -0.0252,-0.06829 -0.001,-0.04528 0.021,-0.08559 0.0663,-0.09866 0.0482,-0.01436 0.12866,-0.01362 0.17835,-0.0077 0.0309,0.0042 0.0696,0.02503 0.0963,0.04307 0.0237,0.01583 0.0539,0.04233 0.0589,0.07197 0.006,0.03221 -0.0186,0.05172 -0.0257,0.08043 -0.006,0.02448 0.0223,0.03018 0.007,0.05246 0.0309,0.01436 0.0784,-0.03884 0.0992,-0.05743 0.0144,-0.0138 0.0403,-0.02301 0.0482,-0.04178 0.006,-0.01509 0.005,-0.05614 10e-4,-0.07326 -0.008,-0.03957 -0.0381,-0.08338 -0.0661,-0.115036 -0.0351,-0.03957 -0.0928,-0.05761 -0.14227,-0.07418 -0.0383,-0.01141 -0.0685,-0.03939 -0.10583,-0.05246 -0.0216,-0.0072 -0.0503,-0.0028 -0.0725,-0.0028 h -0.0913 c -0.0215,0 -0.0418,-0.0037 -0.0618,0.0072 -0.0188,0.0099 -0.0289,0.02724 -0.049,0.0381 -0.028,0.01436 -0.0438,0.02503 -0.0604,0.05246 -0.0129,0.01933 -0.0201,0.03884 -0.0252,0.06184 -0.007,0.03019 -0.003,0.05098 0.006,0.07546 -0.0136,-0.01877 -0.028,-0.03387 -0.0446,-0.0497 -0.0329,-0.03092 -0.0631,-0.06387 -0.0928,-0.09847 -0.0416,-0.04675 -0.0913,-0.07546 -0.13878,-0.115773 0.0237,0.0015 0.046,0 0.0547,-0.002 0.0381,-0.0094 0.0762,-0.03092 0.11301,-0.04528 0.0366,-0.0138 0.0769,-0.03037 0.10712,-0.05466 0.0178,-0.01307 0.0294,-0.03387 0.048,-0.04601 0.0223,-0.01583 0.0777,-0.02595 0.0999,-0.03092 0.0267,-0.0079 0.0532,-0.01307 0.0806,-0.01436 0.008,0.0035 0.0158,0.0072 0.0223,0.01436 0.0431,0.0208 0.0935,0.01638 0.13308,0.04012 0.0236,0.0138 0.0409,0.02816 0.0676,0.0381 0.0287,0.01012 0.0596,0.01233 0.0898,0.0173 0.0129,0.0029 0.0252,0.0044 0.0388,0.0087 0.0418,0.01288 0.0992,0.02153 0.13731,0.04252 0.0309,0.01785 0.0539,0.04804 0.0856,0.0624 0.0193,0.0066 0.0344,0.0173 0.0475,0.03387 0.0171,0.01436 0.0381,0.02448 0.0611,0.02798 0.0302,0.0094 0.0567,0.02374 0.0863,0.03092 0.0574,0.0138 0.10841,-0.0035 0.1581,-0.03442 0.0596,-0.03663 0.12866,-0.04822 0.1905,-0.07988 0.028,-0.01362 0.0525,-0.03018 0.0791,-0.04749 0.0186,-0.01141 0.0374,-0.03019 0.0574,-0.04012 0.0584,-0.02816 0.12663,-0.0324 0.18921,-0.0324 0.0503,0 0.0977,0.01141 0.14651,0.02522 0.0353,0.0099 0.0539,0.0092 0.0591,0.04454 0.002,0.01288 0.004,0.03442 0,0.04804 -0.006,0.02669 -0.0281,0.04252 -0.046,0.06258 -0.0324,0.0346 -0.0663,0.06902 -0.11651,0.07841 -0.0504,0.01012 -0.12663,0.0057 -0.17393,-0.0072 0.0381,0.03018 0.10196,0.03589 0.12792,0.08062 0.0121,0.01859 0.0188,0.03221 0.0403,0.03865 0.023,0.0074 0.0495,-0.0042 0.0697,-0.01067 0.0179,-0.0064 0.0315,-0.005 0.048,-0.01012 0.0215,-0.0057 0.0403,-0.01785 0.0641,-0.02301 0.0871,-0.01785 0.18038,-0.03018 0.26247,-0.06461 0.0396,-0.01657 0.0396,-0.01877 0.023,-0.0554 -0.006,-0.01362 -0.0151,-0.02374 -0.023,-0.03663"
       style="fill:#21201d;fill-opacity:1;fill-rule:nonzero;stroke:none;stroke-width:0.184057"
       id="path560" />
    <path
       d="m 319.22902,-36.47984 c 0.0195,0.01638 0.0252,0.03515 0.049,0.02356 7e-4,-5.65e-4 10e-4,-0.0013 0.002,-0.002 -0.002,-0.0022 -0.005,-0.0037 -0.009,-0.0057 -0.008,-0.0052 -0.033,-0.01657 -0.0423,-0.01583"
       style="fill:#21201d;fill-opacity:1;fill-rule:nonzero;stroke:none;stroke-width:0.184057"
       id="path562" />
    <path
       d="m 319.38363,-36.471373 c -10e-4,-0.0013 -0.004,-0.0028 -0.009,-0.0072 -0.006,-0.0072 -0.0121,-0.0208 -0.0101,-0.03092 z m -0.14026,0.08356 c 0.003,0.01509 0.0109,0.02798 0.0123,0.04381 10e-4,0.0173 -0.008,0.03368 0.0151,0.04086 0.025,0.0074 0.0394,-0.03019 0.0618,-0.03442 0.009,0.01288 0.0258,0.01436 0.0351,0.02595 0.009,0.0099 0.0101,0.02006 0.0201,0.03018 0.0151,0.01435 0.0151,0.01141 0.0267,-0.0044 0.0101,-0.01215 0.0193,-0.03442 0.0295,-0.04804 0.009,-0.01528 0.009,-0.02743 0.0129,-0.04399 0.0123,-0.0028 0.0346,0.0059 0.0381,-0.0086 -0.0179,-0.0072 -0.0409,0 -0.0604,-0.0028 -7.1e-4,0 -0.001,0 -0.003,0 -0.002,-7.41e-4 -0.004,-0.0022 -0.006,-0.0022 0.002,-0.0094 0.0195,-0.01215 0.0289,-0.0173 0.0144,-0.0092 0.0258,-0.02227 0.0401,-0.03295 -0.001,-0.0029 -0.048,-0.0173 -0.074,-0.02374 0.0116,-0.0086 0.023,-0.01877 0.0237,-0.02172 -0.0173,-0.0072 -0.0467,0.0173 -0.0576,0.0074 -0.0164,-0.01454 0.0145,-0.03387 0.009,-0.04969 -0.005,-0.01436 -0.0359,-0.01436 -0.0495,-0.0072 -0.005,0.0029 -0.0302,0.02448 -0.0302,0.02595 0.0215,-0.0015 0.0186,0.0092 0.0144,0.01933 -0.005,0.0022 -0.0109,0.0042 -0.0158,0.0072 -0.0131,0.0064 -0.0223,0.01877 -0.0353,0.02669 0.009,0.0079 0.003,0.01436 -0.007,0.02577 -0.0258,0.03166 -0.048,0.03534 -0.0861,0.04528 0.003,0.02025 0.046,0.0044 0.0567,-0.0013"
       style="fill:#21201d;fill-opacity:1;fill-rule:nonzero;stroke:none;stroke-width:0.184057"
       id="path564" />
  </g>
</svg>
