<?xml version="1.0" encoding="UTF-8" standalone="no"?>
<!-- Created with Inkscape (http://www.inkscape.org/) -->

<svg
   width="6.4377809mm"
   height="7.7196245mm"
   viewBox="0 0 6.4377809 7.7196245"
   version="1.1"
   id="svg2847"
   inkscape:version="1.1.2 (0a00cf5339, 2022-02-04)"
   sodipodi:docname="z10.svg"
   xmlns:inkscape="http://www.inkscape.org/namespaces/inkscape"
   xmlns:sodipodi="http://sodipodi.sourceforge.net/DTD/sodipodi-0.dtd"
   xmlns="http://www.w3.org/2000/svg"
   xmlns:svg="http://www.w3.org/2000/svg">
  <sodipodi:namedview
     id="namedview2849"
     pagecolor="#ffffff"
     bordercolor="#666666"
     borderopacity="1.0"
     inkscape:pageshadow="2"
     inkscape:pageopacity="0.0"
     inkscape:pagecheckerboard="0"
     inkscape:document-units="mm"
     showgrid="false"
     inkscape:zoom="0.64052329"
     inkscape:cx="12.489788"
     inkscape:cy="14.831623"
     inkscape:window-width="2560"
     inkscape:window-height="1376"
     inkscape:window-x="0"
     inkscape:window-y="0"
     inkscape:window-maximized="1"
     inkscape:current-layer="layer1" />
  <defs
     id="defs2844" />
  <g
     inkscape:label="Layer 1"
     inkscape:groupmode="layer"
     id="layer1"
     transform="translate(-101.70158,-144.64011)">
    <path
       d="m 101.71738,150.66755 c 0.008,0.008 0.0145,0.0186 0.0159,0.0294 0.0215,0.0302 0.046,0.0554 0.0762,0.0769 0.004,10e-4 0.0821,0.0733 0.10509,0.0861 0.0396,0.0224 0.0963,0.004 0.13656,0.0237 0.0482,0.023 0.074,0.17191 0.0955,0.21148 0.0381,0.0661 0.0814,0.0784 0.13085,0.12719 0.0318,0.0302 0.0418,0.0663 0.069,0.10712 0.072,0.10638 0.13014,0.22013 0.22585,0.30848 0.0841,0.0784 0.2293,0.069 0.33147,0.10289 0.0567,0.0186 0.0639,0.0646 0.11281,0.0992 0.0388,0.0265 0.0725,0.0309 0.11854,0.0295 0.0848,-0.001 0.17339,0.0186 0.25897,0.028 0.0812,0.0101 0.1408,0.018 0.20412,0.069 0.0286,0.023 0.051,0.0633 0.0841,0.0799 0.0698,0.005 0.13878,0.0121 0.20782,0.0223 0.0547,0.002 0.10361,0.0173 0.14891,0.0431 -0.004,0.0223 0.0396,0.0374 0.0547,0.0453 0.0834,0.0489 0.17395,0.0777 0.2667,0.10435 0.069,0.0193 0.13289,0.0381 0.20062,0.0611 0.0769,0.0258 0.15018,0.0201 0.23061,0.0193 0.13162,-0.002 0.25605,0.0158 0.38837,0.0158 0.21128,0 0.42552,0.0123 0.63553,-0.023 0.0626,-0.0101 0.12298,-0.0258 0.1826,-0.046 0.0517,-0.0366 0.10142,-0.0755 0.15039,-0.11651 0.0401,-0.0287 0.0762,-0.0467 0.12072,-0.0646 0.14302,-0.0604 0.29909,-0.0712 0.45075,-0.10362 0.15811,-0.0329 0.30924,-0.0977 0.43493,-0.20118 0.1,-0.0841 0.17043,-0.19786 0.25457,-0.29633 0.0712,-0.0856 0.14446,-0.16897 0.2365,-0.23283 0.1281,-0.0871 0.2654,-0.15682 0.38834,-0.25179 0.025,-0.0179 0.0985,-0.0567 0.10417,-0.0941 0.004,-0.0252 -0.008,-0.021 -0.0166,-0.0418 -0.0286,-0.0653 -0.0646,-0.11927 -0.10639,-0.17909 -0.0293,-0.0416 -0.0698,-0.0854 -0.0876,-0.13362 -0.0123,-0.0346 0,-0.0238 -0.0368,-0.0561 -0.0438,-0.0381 -0.0668,-0.0863 -0.097,-0.13289 -0.0145,-0.0203 -0.0254,-0.0468 -0.0539,-0.0433 -0.0187,0.003 -0.0604,0.12074 -0.0626,0.12865 -0.0265,0.0799 -0.0359,0.16473 -0.0755,0.24093 -0.0539,0.10289 -0.14227,0.1905 -0.21921,0.27756 -0.0173,0.0201 -0.0734,0.10197 -0.10658,0.0869 -0.0152,-0.0826 0,-0.17964 0.0159,-0.26155 0.0145,-0.069 0.0173,-0.0497 -0.0353,-0.0979 -0.0955,-0.0891 -0.1826,-0.18976 -0.26526,-0.29044 -0.069,-0.0841 -0.12661,-0.18185 -0.12368,-0.29468 0,-0.0145 0.005,-0.0296 0,-0.0433 -0.0116,-0.0237 -0.0512,-0.0337 -0.0626,-0.0582 -0.006,-0.0129 0,-0.0295 -0.004,-0.0433 -0.004,-0.0329 -0.0194,-0.0631 -0.0318,-0.0926 -0.0317,-0.0756 -0.0524,-0.15185 -0.0703,-0.2308 -0.004,-0.0144 -0.006,-0.0519 -0.0131,-0.067 -0.01,-0.0223 -0.0359,-0.0302 -0.0517,-0.0468 -0.0173,-0.0178 -0.0229,-0.0386 -0.0396,-0.0604 -0.0159,-0.0201 -0.0388,-0.0295 -0.0467,-0.056 -0.0963,0.0388 -0.16179,0.15516 -0.22493,0.2321 -0.10287,0.12884 -0.22656,0.25971 -0.25602,0.4272 -0.012,0.069 -0.0187,0.13804 -0.0381,0.20559 -0.0215,0.0784 -0.0504,0.15663 -0.0769,0.23283 -0.0279,0.0799 -0.0346,0.10713 -0.0942,0.15388 -0.0396,0.0309 -0.0834,0.0561 -0.12221,0.0863 -0.0517,0.0403 -0.10343,0.0806 -0.15388,0.12295 -0.0502,0.0433 -0.0668,0.0826 -0.0906,0.14449 -0.0618,0.16105 -0.13085,0.35946 -0.25457,0.48757 -0.0222,-0.026 -0.0332,-0.0806 -0.0453,-0.10639 -0.0374,-0.0871 -0.0712,-0.17486 -0.1071,-0.26247 -0.0109,-0.0274 -0.018,-0.0396 -0.0254,-0.0676 -0.01,-0.0512 -0.0187,-0.10215 -0.0251,-0.15387 0.008,-0.0282 0.004,-0.046 -0.0159,-0.0554 -0.0482,0.0331 -0.0957,0.0712 -0.15035,0.0876 -0.0755,-0.12865 -0.14799,-0.26817 -0.19399,-0.41118 -0.0229,-0.069 -0.0254,-0.14026 -0.0497,-0.20854 -0.018,-0.0503 -0.0279,-0.0891 -0.0569,-0.13363 -0.0353,-0.0561 -0.069,-0.13528 -0.0869,-0.19988 -0.008,-0.0339 -0.0109,-0.0735 -0.0339,-0.10142 -0.0495,-0.0618 -0.14006,-0.0849 -0.19692,-0.14025 -0.0116,-0.0136 -0.031,-0.0337 -0.0431,-0.0495 -0.0236,-0.0287 -0.0254,-0.0814 -0.0482,-0.1051 -0.0547,0.16694 -0.1892,0.29118 -0.3186,0.40198 -0.0978,0.0834 -0.15737,0.21277 -0.1754,0.33867 -0.0381,0.006 -0.092,-0.0366 -0.11853,-0.0611 -0.0762,-0.069 -0.095,-0.18332 -0.1215,-0.27829 -0.0159,-0.0582 -0.0194,-0.1524 -0.0835,-0.0841 -0.0251,0.0267 -0.0381,0.0525 -0.0517,0.0856 -0.0236,0.0539 -0.0589,0.0985 -0.0985,0.14099 -0.0332,0.0351 -0.072,0.0624 -0.10784,0.0933 -0.0733,0.0611 -0.13381,0.13602 -0.2056,0.19915 -0.0438,-0.0151 -0.0784,-0.0532 -0.1294,-0.0488 -0.0268,0.001 -0.0532,0.0186 -0.0749,0.0309 -0.0152,0.008 -0.0453,0.0374 -0.0589,0.0359 -0.051,-0.002 -0.115,-0.1294 -0.14079,-0.16602 -0.0109,-0.0158 -0.0275,-0.0346 -0.0289,-0.0554 -0.0293,0.004 -0.0632,0.0418 -0.0869,0.0589 -0.0381,0.0295 -0.0769,0.0561 -0.1143,0.0863 -0.0569,0.0453 -0.12513,0.0898 -0.18993,0.12 -0.0258,0.0123 -0.0539,0.0289 -0.0804,0.0381 -0.0243,0.007 -0.0525,0.009 -0.0784,0.018 -0.0547,0.018 -0.11286,0.0215 -0.16676,0.0396 -0.0201,0.007 -0.0396,0.0215 -0.0123,0.0561"
       style="fill:#21201d;fill-opacity:1;fill-rule:evenodd;stroke:none;stroke-width:0.184057"
       id="path686" />
    <path
       d="m 105.5682,150.59061 c -0.004,-0.007 -0.01,-0.0145 -0.0152,-0.0223 0.006,0.0114 0.0123,0.0228 0.0194,0.0344 0,-0.004 -0.004,-0.009 -0.005,-0.0121"
       style="fill:#21201d;fill-opacity:1;fill-rule:nonzero;stroke:none;stroke-width:0.184057"
       id="path688" />
    <path
       d="m 107.69923,145.93082 c -0.012,-0.0201 -0.0208,-0.0423 -0.0346,-0.0611 -0.0127,-0.0193 -0.0303,-0.0302 -0.0446,-0.0475 -0.044,-0.0567 -0.0677,-0.13142 -0.11723,-0.18405 -0.0346,-0.0366 -0.072,-0.0755 -0.1143,-0.10197 -0.0554,-0.0368 -0.11652,-0.0712 -0.16676,-0.11578 -0.0261,-0.023 -0.0361,-0.0497 -0.0561,-0.0727 -0.0317,-0.0366 -0.0957,-0.0359 -0.13878,-0.0547 -0.0653,-0.0294 -0.13233,-0.0388 -0.19914,-0.0624 -0.0467,-0.0173 -0.0841,-0.0418 -0.12002,-0.0742 -0.0194,-0.0166 -0.0374,-0.0423 -0.0584,-0.0554 -0.0445,-0.0265 -0.10565,-0.007 -0.15314,-0.0158 -0.0431,-0.008 -0.0639,-0.0186 -0.10985,-0.0114 -0.0562,0.009 -0.11504,0.0136 -0.16898,0.0272 -0.0208,0.006 -0.0339,0.0166 -0.0532,0.0245 0.006,-0.0374 0.0162,-0.0611 0.0106,-0.0999 0,-0.0129 0.008,-0.0178 -0.004,-0.0309 -0.0289,-0.001 -0.0598,-0.004 -0.0893,-0.006 -0.0675,0.005 -0.13508,0.004 -0.20264,-0.004 -0.069,-0.007 -0.14319,-0.0361 -0.21294,-0.0512 -0.0453,-0.009 -0.0812,-0.0316 -0.12424,-0.0488 -0.0475,-0.018 -0.0928,-0.0418 -0.1432,-0.0526 -0.0303,-0.006 -0.0804,-0.008 -0.10068,-0.0374 -0.0286,-0.0401 -0.008,-0.1121 -0.0314,-0.15461 -0.0368,0.0138 -0.0482,0.0734 -0.0576,0.10656 -0.0109,0.0394 -0.0332,0.0725 -0.0539,0.11062 -0.0569,0.10216 -0.11652,0.19418 -0.19547,0.28125 -0.0626,0.0683 -0.11723,0.14301 -0.18055,0.21203 -0.0374,0.0409 -0.0683,0.0755 -0.0856,0.12718 -0.0286,0.0799 -0.0661,0.16326 -0.0834,0.24664 -0.0127,0.0626 -0.0342,0.14596 -0.031,0.21148 0,0.0337 0.01,0.0718 0.0279,0.097 0.01,0.0114 0.0226,0.018 0.0346,0.0252 -0.0159,0.0158 -0.0318,0.0344 -0.049,0.0552 0.0109,0.0368 0.0275,0.0583 0.0332,0.0986 0.005,0.0302 0.006,0.0639 0.0187,0.0913 0.0208,0.046 0.0321,0.097 0.0676,0.13584 0.0408,0.046 0.0804,0.0769 0.13088,0.11062 0.0646,0.0447 0.13433,0.0606 0.2135,0.072 0.0776,0.0121 0.15384,0.006 0.23152,0.006 0.0215,0 0.0547,-0.004 0.0827,-0.004 0.0194,0.0136 0.0403,0.0272 0.0604,0.0416 0.12443,0.0856 0.23082,0.18995 0.33867,0.29634 0.14026,0.13583 0.2595,0.27682 0.35944,0.44505 0.0539,0.0913 0.0935,0.1732 0.10936,0.27682 0.01,0.0596 0.0166,0.1178 0.0173,0.17743 0.004,0.12093 -0.0375,0.26689 -0.0987,0.36886 -0.10418,0.17485 -0.1789,0.36609 -0.26173,0.55088 -0.0616,0.13804 -0.11998,0.27959 -0.18037,0.4191 -0.0502,0.11577 -0.11356,0.23228 -0.15166,0.35376 -0.069,0.217 -0.18846,0.4134 -0.14245,0.65138 0.0152,0.0819 0.0381,0.14872 0.0683,0.2251 0.018,0.0453 0.0296,0.0841 0.0569,0.12866 0,0.003 0.004,0.006 0.006,0.009 -0.0797,-0.15185 -0.10139,-0.28198 -0.0532,-0.40567 0.0258,-0.0646 0.0561,-0.13086 0.0906,-0.19253 0.0433,-0.0784 0.12146,-0.13877 0.16104,-0.22086 0.0275,-0.056 0.0504,-0.11504 0.0828,-0.17044 0.0473,-0.0775 0.092,-0.14007 0.15092,-0.20982 0.0495,-0.0576 0.0856,-0.12222 0.1452,-0.17045 0.0554,-0.0453 0.1143,-0.0863 0.1596,-0.14301 0.0532,-0.0663 0.11797,-0.13307 0.20207,-0.14448 0.0777,-0.0109 0.0725,-0.0281 0.11504,-0.0871 0.0138,-0.018 0.0303,-0.0352 0.0438,-0.0547 0.0127,-0.0188 0.031,-0.0453 0.0374,-0.0668 0.004,-0.0144 0,-0.0287 0.006,-0.0433 0.008,-0.0243 0.0863,-0.0747 0.10583,-0.0928 0.0762,-0.0683 0.13084,-0.14725 0.19766,-0.22142 0.0453,-0.0503 0.10142,-0.0834 0.15812,-0.11927 0.0395,-0.026 0.0769,-0.0554 0.11648,-0.0791 0.051,-0.0316 0.12443,-0.0295 0.17047,-0.0631 0.0236,-0.018 0.0346,-0.0482 0.0487,-0.0742 0.0275,-0.0503 0.0604,-0.097 0.0928,-0.14375 0.0604,-0.0878 0.09,-0.16823 0.0727,-0.27535 -0.007,-0.0497 -0.01,-0.1143 -0.0332,-0.15958 -0.031,-0.0606 -0.0826,-0.11081 -0.12147,-0.16768 -0.0502,-0.0733 -0.10858,-0.1178 -0.17688,-0.17099 -0.0359,-0.0274 -0.074,-0.0626 -0.1071,-0.095 -0.0113,-0.0107 -0.0194,-0.0258 -0.0332,-0.0351 -0.0159,-0.0116 -0.0366,-0.0131 -0.0517,-0.0237 -0.0502,-0.0374 -0.064,-0.0935 -0.0725,-0.15093 -0.0123,-0.072 -0.0467,-0.16252 -0.0159,-0.23228 0.0236,-0.0569 0.051,-0.0985 0.0941,-0.14099 0.0591,-0.0589 0.11797,-0.0999 0.18849,-0.14669 0.0574,-0.0374 0.11927,-0.0661 0.18112,-0.0941 0.0346,-0.0158 0.074,-0.0396 0.10932,-0.0519 0.0272,-0.009 0.0604,-0.004 0.087,-0.0144 0.0201,-0.007 0.0335,-0.023 0.056,-0.0258 -0.0187,-0.0532 -0.0328,-0.10289 -0.0626,-0.15038"
       style="fill:#21201d;fill-opacity:1;fill-rule:nonzero;stroke:none;stroke-width:0.184057"
       id="path690" />
    <path
       d="m 105.59491,150.64233 c -0.008,-0.0136 -0.0152,-0.0267 -0.0229,-0.0403 0.004,0.0136 0.004,0.0267 0.01,0.0396 0.005,0 0.009,7e-4 0.0138,7e-4"
       style="fill:#21201d;fill-opacity:1;fill-rule:nonzero;stroke:none;stroke-width:0.184057"
       id="path692" />
    <path
       d="m 105.22107,150.46324 c 0.01,0.018 0.0155,0.0525 0.0293,0.0663 0.008,0.007 0.0215,0.008 0.0286,0.0157 0.0187,0.0217 0.018,0.0526 0.0596,0.041 l -0.17685,-0.26743 c -0.0222,-0.0114 -0.0423,-0.0453 -0.0388,-0.028 0.0145,0.0725 0.0626,0.11209 0.0979,0.17246"
       style="fill:#21201d;fill-opacity:1;fill-rule:nonzero;stroke:none;stroke-width:0.184057"
       id="path694" />
    <path
       d="m 105.492,148.83415 c 0.0254,-0.0633 0.0475,-0.12443 0.0648,-0.19069 0.0201,-0.0747 0.0683,-0.14448 0.0955,-0.217 0.0166,-0.0445 0.0339,-0.0906 0.0453,-0.13602 0.0268,-0.10344 0.0254,-0.21701 0.0116,-0.3221 -0.006,-0.0453 0,-0.0906 -0.005,-0.1351 -0.007,-0.069 -0.0201,-0.14154 -0.0346,-0.20983 -0.0145,-0.0663 -0.0582,-0.14099 -0.0841,-0.20283 -0.0215,-0.0497 -0.0467,-0.097 -0.0878,-0.13233 -0.0596,-0.0503 -0.13067,-0.097 -0.20115,-0.13013 -0.0705,-0.0331 -0.14965,-0.0252 -0.22585,-0.0331 -0.0676,-0.007 -0.12644,-0.0359 -0.19346,-0.0453 -0.0639,-0.008 -0.10841,-0.0316 -0.16676,-0.0596 -0.0561,-0.0258 -0.11723,-0.0438 -0.16528,-0.0812 -0.0712,-0.0576 -0.11871,-0.12222 -0.17614,-0.19124 -0.069,-0.0828 -0.14023,-0.16178 -0.20207,-0.25032 -0.0611,-0.0869 -0.1143,-0.19546 -0.1366,-0.29983 -0.0258,-0.11061 -0.0229,-0.21774 -0.0222,-0.3278 0,-0.0366 0.0127,-0.074 0.0159,-0.11062 0.004,-0.0425 0.009,-0.0848 0.0145,-0.12663 0.007,-0.0755 0.0215,-0.1524 0.0324,-0.22713 0.004,-0.0188 0.006,-0.0381 0.008,-0.0569 0.004,-0.0237 -0.006,-0.0468 -0.004,-0.069 0,-0.007 0.008,-0.0186 0.01,-0.023 0,-0.0237 -0.006,-0.0423 -0.008,-0.0661 0,-0.0267 0.006,-0.0517 0.004,-0.0784 0,-0.009 -0.007,-0.0208 -0.007,-0.0317 0,-0.0245 0.0159,-0.0416 0.0208,-0.0653 0.004,-0.0296 0.0109,-0.0583 0.0159,-0.0885 -0.0113,0.003 -0.0159,0.0123 -0.0265,0.0208 -0.0388,0.0317 -0.0784,0.0641 -0.11797,0.095 -0.0353,0.0287 -0.0683,0.0626 -0.10142,0.0942 -0.0582,0.0567 -0.1408,0.0697 -0.21774,0.0942 -0.13159,0.0416 -0.29266,0.10915 -0.38541,0.21774 -0.0381,0.0431 -0.0633,0.0957 -0.092,0.14449 -0.0381,0.0655 -0.0769,0.0935 -0.13307,0.13952 -0.16453,0.13509 -0.3587,0.24737 -0.48369,0.42498 -0.0482,0.0675 -0.0749,0.13731 -0.0942,0.21775 -0.0116,0.046 -0.0215,0.10215 -0.0468,0.14245 -0.0229,0.0374 -0.0425,0.0819 -0.0697,0.11707 -0.0396,0.0519 -0.10343,0.0878 -0.12661,0.15185 0.0116,0.008 0.0233,0.0151 0.0339,0.023 0.0109,0.0129 0.0229,0.0265 0.031,0.0423 0.0318,0.0633 0.0497,0.10565 0.0977,0.15755 0.0979,0.10786 0.18556,0.21425 0.31789,0.28033 0.0596,0.0294 0.12368,0.0633 0.17833,0.10067 0.0698,0.0475 0.1235,0.13584 0.17543,0.20136 0.0208,0.0265 0.0381,0.0574 0.0618,0.0819 0.0328,0.0331 0.0619,0.0431 0.10637,0.0618 0.0733,0.0324 0.14524,0.0668 0.22069,0.0955 0.0856,0.0324 0.17541,0.0447 0.26392,0.0655 0.0928,0.0215 0.17469,0.0554 0.27093,0.0475 0.15187,-0.0123 0.30353,-0.003 0.45519,-0.004 0.0475,0 0.0942,0.006 0.14228,0.002 0.0261,-0.002 0.0591,-0.0123 0.0848,-0.009 0.0166,0.003 0.0388,0.018 0.0561,0.0252 0.004,0.009 0.006,0.0186 0.01,0.0287 0.0166,0.051 0.0208,0.10565 0.0303,0.15885 0.0102,0.0569 0.0272,0.11871 0.0272,0.17761 0,0.0381 -0.009,0.0791 -0.0152,0.11725 -0.006,0.0438 -0.006,0.0913 -0.0145,0.13362 -0.004,0.0223 -0.0173,0.041 -0.0201,0.0633 -0.004,0.023 0,0.046 0,0.0683 0,0.0418 -0.0138,0.0806 -0.0173,0.12148 -0.006,0.09 -0.0102,0.17982 0,0.26891 0.0159,0.13234 0.007,0.27609 0.0633,0.40125 0.0138,0.0309 0.0408,0.0999 0.0848,0.0957 0.0166,0.0854 0.0431,0.16749 0.0782,0.24792 0.0303,0.0668 0.0561,0.13087 0.0776,0.19989 0.0173,0.0532 0.0554,0.0985 0.0806,0.14817 0.004,0.0101 0.0102,0.0272 0.0173,0.0445 -0.0159,-0.0784 -0.0303,-0.15811 -0.0375,-0.23652 -0.012,-0.1108 0.0226,-0.19344 0.0504,-0.29762 0.0201,-0.0742 0.0381,-0.11577 0.074,-0.18479 0.0282,-0.0547 0.044,-0.1143 0.072,-0.1697 0.0482,-0.0965 0.0797,-0.19124 0.11501,-0.29339 0.0265,-0.0762 0.0755,-0.14302 0.10491,-0.21848"
       style="fill:#21201d;fill-opacity:1;fill-rule:nonzero;stroke:none;stroke-width:0.184057"
       id="path696" />
    <path
       d="m 103.50477,145.27226 c -0.0229,-0.007 -0.0468,0.0245 -0.069,0.0331 -0.0539,0.0193 -0.1143,0.0265 -0.16821,0.048 -0.0279,0.0101 -0.0611,0.0109 -0.0869,0.026 -0.0229,0.0144 -0.0275,0.0223 -0.0576,0.0324 -0.0841,0.0272 -0.18112,0.0942 -0.23725,0.16253 -0.0353,0.0423 -0.0596,0.0941 -0.0841,0.14227 -0.0243,0.0468 -0.0589,0.0712 -0.10213,0.1 -0.0941,0.0633 -0.20708,0.0977 -0.29616,0.16602 -0.0676,0.0526 -0.097,0.12516 -0.13656,0.19565 -0.0268,0.0453 -0.0648,0.072 -0.0906,0.11853 -0.01,0.018 -0.0229,0.0353 -0.0346,0.0504 -0.0332,0.0416 -0.072,0.0841 -0.10566,0.12719 -0.0222,0.0289 -0.0388,0.0381 -0.0734,0.0482 -0.0388,0.0116 -0.0733,0.0287 -0.11285,0.0366 -0.0102,0.0252 0,0.0539 0.018,0.0747 0.0208,0.0245 0.03,0.0353 0.0409,0.0677 0.0282,0.0848 0.0346,0.16455 0.10068,0.22713 0.0554,0.0532 0.0655,0.0849 0.0662,0.15958 0,0.0475 -0.008,0.0999 0.004,0.14669 0.0201,0.0806 0.0236,0.17265 0.0618,0.24958 0.0123,0.023 0.0282,0.0287 0.0475,0.0453 0.0303,0.0243 0.0562,0.0547 0.0792,0.0841 0.0495,0.0626 0.12792,0.10491 0.19914,0.1408 0.11706,0.0598 0.26025,0.0928 0.38817,0.11301 0.1331,0.0216 0.26394,0.0431 0.39627,0.0668 0.0574,0.0109 0.11487,0.0201 0.17321,0.0201 0.0762,7e-4 0.14891,7e-4 0.22363,-0.0129 0.0633,-0.0121 0.12718,-0.0144 0.18902,-0.0374 0.0293,-0.0101 0.0425,-0.0203 0.0777,-0.0309 0.10933,-0.0316 0.22066,-0.0576 0.32632,-0.0957 0.0913,-0.0316 0.15607,-0.006 0.24592,-0.003 0.0447,0.001 0.0368,0.003 0.0618,0.0316 0.0311,0.0352 0.064,0.0646 0.095,0.10198 0.0332,0.0418 0.0475,0.0806 0.0725,0.12662 0.0138,0.0245 0.0254,0.0366 0.0324,0.0653 0.0159,0.0569 0.0258,0.12589 0.0339,0.18332 0.012,0.0791 0.0187,0.187 0.004,0.26817 -0.004,0.0252 -0.012,0.0453 -0.012,0.072 -0.004,0.0539 0.0152,0.13583 -0.0116,0.18406 -0.018,0.0339 -0.0438,0.0267 -0.071,0.051 -0.0215,0.0195 -0.0243,0.0497 -0.0318,0.0799 -0.01,0.0445 -0.0152,0.0841 -0.0324,0.1259 -0.0152,0.0381 -0.0254,0.0804 -0.0127,0.12 0.005,0.0173 0.0229,0.0344 0.0293,0.0525 0.0293,0.0913 0.0293,0.20338 0.0445,0.29689 0.0102,0.0626 0.0359,0.11724 0.0482,0.17908 0.012,0.0582 0.046,0.0884 0.0668,0.14154 0.0286,0.0784 0.0332,0.16547 0.0475,0.24664 0.0187,0.10363 0.55513,0.65727 0.54204,0.63279 -0.0194,-0.0381 -0.0502,-0.0769 -0.0747,-0.11154 -0.0626,-0.0883 -0.3048,-0.53192 -0.31419,-0.56929 -0.0201,-0.072 -0.0173,-0.15535 -0.0201,-0.23081 -0.005,-0.13307 0.0438,-0.24811 0.0683,-0.374 0.0293,-0.15664 0.0582,-0.31051 0.0697,-0.46935 0.0222,-0.31345 0.0387,-0.64862 -0.0201,-0.9571 -0.0258,-0.13731 -0.0668,-0.26946 -0.10636,-0.40401 -0.0166,-0.0561 -0.0152,-0.11927 -0.0346,-0.1732 -0.0226,-0.0697 -0.0806,-0.0618 -0.14742,-0.0683 -0.13307,-0.0131 -0.26466,-0.006 -0.39755,-0.004 -0.22436,0.003 -0.4228,-0.0626 -0.62636,-0.15093 -0.20778,-0.0906 -0.36882,-0.2194 -0.50394,-0.39757 -0.18902,-0.24811 -0.21717,-0.59101 -0.0502,-0.85642 0.0891,-0.13933 0.24366,-0.19988 0.3429,-0.32854 0.0359,-0.0468 0.0683,-0.0955 0.0992,-0.14669 0.0388,-0.0624 0.0769,-0.12351 0.10784,-0.18977 0.0173,-0.0359 0.0215,-0.0826 0.0453,-0.11135"
       style="fill:#21201d;fill-opacity:1;fill-rule:nonzero;stroke:none;stroke-width:0.184057"
       id="path698" />
    <path
       d="m 105.03261,149.7975 c -0.004,0.0151 0.007,0.0331 0.008,0.049 0,0.0164 0.006,0.0374 0.012,0.0532 0.006,0.0166 0.0194,0.028 0.0243,0.0445 0.006,0.0151 0.0152,0.0359 0.018,0.0503 0.004,0.0151 0.004,0.0245 0.0102,0.0381 0.0106,0.0188 0.0208,0.0381 0.0286,0.0576 0.0145,0.0324 0.0332,0.0611 0.0445,0.0935 0.008,0.0243 0.0159,0.0473 0.0222,0.0733 0.006,0.0252 0.0215,0.0453 0.0268,0.0698 0.006,0.0287 0.0258,0.0618 0.0396,0.0906 0.0229,0.0453 0.0495,0.0885 0.071,0.13381 0.01,0.0193 0.0215,0.0324 0.0324,0.0495 0.0166,0.0302 0.0374,0.0806 0.0261,0.11504 -0.007,0.0215 -0.0194,0.0195 -0.0325,0.009 -0.0353,-0.0287 -0.0655,-0.0698 -0.0985,-0.10215 -0.0618,-0.0604 -0.11007,-0.13363 -0.17117,-0.194 -0.0475,-0.0475 -0.0913,-0.10142 -0.11504,-0.16547 -0.0113,-0.0329 -0.0272,-0.0661 -0.0346,-0.0999 -0.01,-0.0409 -0.0145,-0.0876 -0.018,-0.13013 -0.004,-0.0388 -0.008,-0.0884 0,-0.12645 0.004,-0.0203 0.0173,-0.0425 0.0254,-0.0589 0.0222,-0.0418 0.0374,-0.0843 0.0804,-0.0497"
       style="fill:#21201d;fill-opacity:1;fill-rule:nonzero;stroke:none;stroke-width:0.184057"
       id="path700" />
    <path
       d="m 105.45538,150.02905 c -0.0222,0.005 -0.0325,0.0683 -0.0332,0.0898 0,0.0208 0,0.0431 0,0.0641 0,0.0245 0.004,0.0401 0.0109,0.0633 0.004,0.01 0,0.0265 0.006,0.0352 0.004,0.006 0.006,0.0109 0.0116,0.0144 0.004,0.007 0.007,0.0158 0.01,0.0245 0.007,0.0166 0.0166,0.0316 0.0194,0.0495 0,0.0116 0.004,0.0195 0.006,0.0309 0.008,0.0374 0.0208,0.0697 0.0346,0.10436 0.0138,0.0359 0.0243,0.0725 0.0381,0.10786 0.0106,0.0265 0.0314,0.0589 0.0359,0.0861 0,-0.0208 -0.008,-0.0401 -0.01,-0.0604 0,-0.0265 0,-0.0532 0,-0.079 v -0.43437 c 0,-0.056 -0.004,-0.12075 0.0173,-0.17394 0.0318,-0.0806 0.0906,-0.14816 0.12792,-0.22584 0.0194,-0.0401 0.0339,-0.0812 0.0569,-0.11927 0.006,-0.0109 0.0222,-0.0287 0.0208,-0.0403 -0.0109,0.0123 -0.0303,0.0223 -0.0423,0.0331 -0.0611,0.0525 -0.13014,0.10639 -0.17907,0.17118 -0.0236,0.0309 -0.0353,0.0653 -0.0626,0.0933 -0.0194,0.0202 -0.0374,0.0353 -0.0683,0.16547"
       style="fill:#21201d;fill-opacity:1;fill-rule:nonzero;stroke:none;stroke-width:0.184057"
       id="path702" />
  </g>
</svg>
