<?xml version="1.0" encoding="UTF-8" standalone="no"?>
<!-- Created with Inkscape (http://www.inkscape.org/) -->

<svg
   width="7.19491mm"
   height="6.3633361mm"
   viewBox="0 0 7.19491 6.3633361"
   version="1.1"
   id="svg2083"
   inkscape:version="1.1.2 (0a00cf5339, 2022-02-04)"
   sodipodi:docname="z21.svg"
   xmlns:inkscape="http://www.inkscape.org/namespaces/inkscape"
   xmlns:sodipodi="http://sodipodi.sourceforge.net/DTD/sodipodi-0.dtd"
   xmlns="http://www.w3.org/2000/svg"
   xmlns:svg="http://www.w3.org/2000/svg">
  <sodipodi:namedview
     id="namedview2085"
     pagecolor="#ffffff"
     bordercolor="#666666"
     borderopacity="1.0"
     inkscape:pageshadow="2"
     inkscape:pageopacity="0.0"
     inkscape:pagecheckerboard="0"
     inkscape:document-units="mm"
     showgrid="false"
     inkscape:zoom="0.64052329"
     inkscape:cx="-1052.2646"
     inkscape:cy="472.2701"
     inkscape:window-width="2560"
     inkscape:window-height="1376"
     inkscape:window-x="0"
     inkscape:window-y="0"
     inkscape:window-maximized="1"
     inkscape:current-layer="layer1" />
  <defs
     id="defs2080" />
  <g
     inkscape:label="Layer 1"
     inkscape:groupmode="layer"
     id="layer1"
     transform="translate(-383.45434,-23.668143)">
    <path
       d="m 389.20848,24.234815 c -0.0324,0.0042 -0.0646,0.02226 -0.0955,0.03313 -0.023,0.0072 -0.0539,0.0151 -0.0764,0.02579 -0.0747,0.03608 -0.14872,0.07049 -0.22344,0.105096 -0.041,0.01288 -0.0792,0.03369 -0.11302,0.06387 -0.007,7.06e-4 -0.0143,0.0028 -0.0223,0.0044 -0.0374,-0.02025 -0.0732,-0.04031 -0.10914,-0.06258 -0.0158,-0.01161 -0.0339,-0.0151 -0.0519,-0.01087 -0.0977,0.0065 -0.19621,0.03238 -0.2875,0.07197 -0.0453,0.01933 -0.0863,0.05467 -0.12737,0.08706 -0.0243,0.01859 -0.051,0.02872 -0.0762,0.04528 -0.01,0.0057 -0.0344,0.0151 -0.0401,0.02505 -0.007,0.01086 -0.001,0.03387 -7.1e-4,0.04601 0.001,0.0381 0.006,0.0762 0.0166,0.110804 0.006,-7.05e-4 0.008,0.0014 0.009,0.0057 0.002,0.0044 0.002,0.0094 0,0.01362 0.007,0.02815 -7e-4,0.06626 -10e-4,0.09571 -10e-4,0.138779 -10e-4,0.279583 0.0316,0.414866 0.005,0.02152 0.0131,0.03736 0.0116,0.05963 -0.004,0.04528 -0.026,0.09056 -0.0331,0.134362 -0.0114,0.06976 -0.0136,0.139517 -0.0107,0.210009 0.004,0.0705 0.023,0.134546 0.0329,0.202833 0.006,0.03957 0.0109,0.07896 0.0165,0.117062 0.0129,0.08282 0.0353,0.169701 0.0274,0.252342 -0.009,0.09277 -0.0202,0.182034 -0.0217,0.275534 -0.001,0.03443 0.006,0.04381 0.0173,0.07547 0.0237,0.06608 0.0274,0.159575 0.0274,0.227863 0,0.06405 -0.0101,0.133075 0.008,0.195654 0.0109,0.0381 0.026,0.06608 0.026,0.108408 -7.1e-4,0.06258 -0.0423,0.12295 -0.0416,0.184796 0.0272,-7.06e-4 0.0567,-7.06e-4 0.0861,0.0028 l -0.0582,0.0042 c -0.003,0 -0.005,0 -0.007,7.05e-4 -0.006,0.0309 -0.028,0.05393 -0.0316,0.08632 -0.002,0.01729 -0.002,0.03957 -7.1e-4,0.05761 0.0351,0.01214 0.0784,-0.0044 0.11503,0.005 0.0158,0.0042 0.0274,0.0151 0.0396,0.02448 0.026,0.02081 0.0489,0.04012 0.0762,0.05743 0.0129,0.0079 0.0245,0.01951 0.0381,0.02671 0.0173,0.0086 0.0403,0.01069 0.0554,0.02226 0.023,0.01655 0.0337,0.05245 0.0618,0.06258 0.0151,0.005 0.0302,0 0.0453,0.005 0.0287,0.01087 0.0524,0.01877 0.0841,0.02081 0.0178,0.0014 0.041,0.0052 0.0532,0.01161 0.0381,0.02007 0.0683,0.05595 0.11504,0.06037 0.028,0.0035 0.0574,-0.005 0.0848,-7.06e-4 0.0129,0.0028 0.0193,0.0086 0.0316,0.01436 0.0329,0.01729 0.0705,0.01803 0.10492,0.0309 0.0143,0.0057 0.0143,0.01436 0.026,0.02081 0.008,0.0037 0.0186,0.0028 0.0272,0.0066 0.0124,0.0057 0.0238,0.01213 0.0352,0.01859 0.0138,0.02226 0.0296,0.04178 0.0504,0.05098 0.0223,0.0052 0.0438,0.01087 0.0648,0.01729 0.0359,0.01013 0.0711,0.02152 0.10565,0.03736 0.0366,0.01235 0.0604,0.01235 0.0948,0.01732 0.008,0.03164 0.041,0.03514 0.0655,0.02946 0.0136,-0.03369 -0.007,-0.0705 -0.006,-0.104179 0,-0.02522 -0.004,-0.04601 -0.007,-0.07049 -0.006,-0.05246 0.001,-0.106388 -10e-4,-0.159579 -0.004,-0.07418 -0.0158,-0.148167 -0.0324,-0.220134 -0.0144,-0.06166 -0.0158,-0.132154 -0.026,-0.196208 -0.009,-0.0611 -0.0265,-0.132337 -0.0287,-0.195467 -0.003,-0.07565 0.003,-0.153874 0.004,-0.230808 0,-0.0094 0.004,-0.04105 0.002,-0.05393 -0.0121,-0.0094 -0.0171,-0.02226 -0.0151,-0.04105 -0.006,-0.109329 -0.009,-0.220687 -0.008,-0.330016 -7.1e-4,-0.141542 0.002,-0.284001 0.004,-0.425542 0.001,-0.07197 -7.1e-4,-0.144671 0.01,-0.215717 0.004,-0.02374 0.0145,-0.05043 0.0145,-0.07546 0,-0.02963 -0.0151,-0.06258 -0.0245,-0.09001 -0.0123,-0.03957 -0.0123,-0.07049 -0.0123,-0.109883 10e-4,-0.113012 0.0101,-0.230808 -0.0164,-0.340875 -0.0158,-0.06534 -0.041,-0.115037 -0.0467,-0.184795 -0.006,-0.07123 -0.0116,-0.135834 -0.0302,-0.204855 -0.0131,-0.05172 -0.0267,-0.101417 -0.0368,-0.153871 -0.025,-0.129395 0.0116,-0.262467 0.0131,-0.394071 -0.0101,-0.01933 -0.0101,-0.01584 -0.0109,-0.01288"
       style="fill:#21201d;fill-opacity:1;fill-rule:evenodd;stroke:none;stroke-width:0.184057"
       id="path580" />
    <path
       d="m 385.8235,24.580661 c 0.003,-0.0057 0.007,-0.01161 0.008,-0.01729 -0.002,0.0014 -0.005,0.0037 -0.008,0.01729"
       style="fill:#21201d;fill-opacity:1;fill-rule:nonzero;stroke:none;stroke-width:0.184057"
       id="path582" />
    <path
       d="m 384.46682,25.48512 c -0.002,0.08982 -10e-4,0.180379 -0.003,0.271117 -10e-4,0.11927 -0.0188,0.23357 -0.0245,0.353024 -0.0101,0.217004 -0.005,0.4364 -0.009,0.654142 -10e-4,0.123687 -0.004,0.248109 -0.006,0.372533 -7.1e-4,0.09479 -0.009,0.192709 -0.003,0.2875 0.004,0.05466 0.006,0.115034 0.023,0.166204 0.0158,0.05025 0.0433,0.08411 0.0403,0.138042 -0.002,0.04381 -0.003,0.08467 0.003,0.127921 0.006,0.04233 0.0136,0.08338 0.0121,0.126446 -0.001,0.03461 0.009,0.06332 0.008,0.09792 0,0.02505 -0.006,0.06037 -0.001,0.0854 0.006,0.04031 0.0532,0.04546 0.0834,0.04601 0.046,7.06e-4 0.0791,-0.0042 0.12294,-0.02152 0.026,-0.01069 0.0453,-0.01785 0.069,-0.03663 0.009,-0.0079 0.0287,-0.02522 0.0418,-0.0302 0.006,-0.0028 0.0151,-7.05e-4 0.0208,-0.0028 0.023,-0.0099 0.0475,-0.02649 0.0712,-0.0381 0.0352,-0.01658 0.0626,-0.04012 0.0876,-0.06829 0.0223,-0.01069 0.046,-0.02078 0.0683,-0.03239 0.044,-0.023 0.072,-0.06166 0.10933,-0.09405 0.049,-0.04252 0.10142,-0.08412 0.15387,-0.121479 0.0547,-0.03755 0.10436,-0.04399 0.16602,-0.07049 0.0317,-0.01436 0.0613,-0.03737 0.0942,-0.0497 0.0166,-0.0057 0.0353,-0.0065 0.0524,-0.01143 0.0324,-0.01013 0.0618,-0.03313 0.0942,-0.04602 0.0346,-0.01379 0.0655,-0.023 0.10141,-0.02448 0.0186,-7.06e-4 0.0258,0.0014 0.0374,-0.01436 0.0114,-0.0151 0.0215,-0.03737 0.0201,-0.05761 -0.002,-0.0151 -0.009,-0.02798 -0.01,-0.0438 -0.002,-0.02374 7.1e-4,-0.0497 10e-4,-0.07325 0.002,-0.128104 -0.0129,-0.254554 -0.0144,-0.382658 -0.001,-0.09552 0.009,-0.186083 -0.01,-0.279584 -0.0109,-0.05172 -0.0245,-0.102887 -0.0317,-0.154608 -0.0123,-0.08412 -0.009,-0.1732 -0.0136,-0.258787 -0.003,-0.05687 -0.001,-0.1143 -7e-4,-0.170438 0.004,-0.02872 0.005,-0.05743 0.002,-0.08632 0.001,-0.03737 0.003,-0.07547 0.002,-0.113566 0,-0.03589 -0.0114,-0.06681 -0.0166,-0.10215 -0.006,-0.04675 -0.001,-0.09626 -0.005,-0.14375 -0.004,-0.0416 -0.008,-0.08485 -0.0129,-0.125159 -0.004,-0.03443 -0.0173,-0.06534 -0.018,-0.09995 -7e-4,-0.02431 7.1e-4,-0.04951 0.001,-0.07473 0.004,-0.04749 0.009,-0.09553 0.0114,-0.142279 0.004,-0.0935 0.003,-0.187737 0.004,-0.281237 v -7.06e-4 c 0.009,-0.101417 0.0208,-0.20283 0.023,-0.304246 0.003,-0.04031 0.006,-0.06185 0.009,-0.07326 -0.007,0.01288 -0.0195,0.02522 -0.0331,0.03737 -0.004,-0.0079 -0.009,-0.01436 -0.0188,-0.02081 -0.0114,-0.0066 -0.0243,-0.01086 -0.0366,-0.01584 -0.0467,-0.02152 -0.0928,-0.04822 -0.14099,-0.06405 -0.074,-0.02596 -0.15368,-0.03663 -0.23006,-0.05614 -0.046,-0.01214 -0.0933,-0.02081 -0.1386,-0.03221 -0.0482,-0.01161 -0.0942,-0.01951 -0.14393,-0.01877 -0.13289,0.0021 -0.26522,0.05099 -0.39535,-0.01213 -0.0504,-0.02448 -0.092,-0.06626 -0.14246,-0.08927 -0.0287,-0.01362 -0.0589,-0.01933 -0.0114,7.05e-4 -0.003,7.06e-4 -0.005,0.0014 -0.009,0.0021 -0.008,0.02522 0,0.0589 -0.002,0.08632 -0.007,0.05098 -0.0129,0.09921 -0.0121,0.150929 7e-4,0.03239 0.0173,0.06037 0.0186,0.09276 0.001,0.03238 0,0.06755 -7.1e-4,0.100679 -0.002,0.04602 -0.0116,0.08909 -0.0123,0.135837 -7e-4,0.04749 -0.009,0.09129 -0.0166,0.139517 -0.004,0.02226 -0.004,0.04454 -0.005,0.06755 -0.002,0.05614 -0.0116,0.111358 -0.0129,0.166758 -10e-4,0.03387 10e-4,0.06755 0,0.100679 -0.002,0.04454 -0.0116,0.0878 -0.0131,0.1316"
       style="fill:#21201d;fill-opacity:1;fill-rule:nonzero;stroke:none;stroke-width:0.184057"
       id="path584" />
    <path
       d="m 390.5854,28.233841 c -0.0304,-0.0052 -0.0591,-0.0094 -0.0878,-0.01951 -0.0302,-0.0094 -0.0596,-0.01933 -0.0883,-0.0302 0.009,-0.0021 0.023,-0.0057 0.025,-0.01584 0.004,-0.01859 -0.009,-0.01013 -0.0186,-0.01729 -0.0203,-0.01362 -0.0252,-0.01859 -0.0512,-0.01933 -0.0683,-0.0014 -0.1351,0.0035 -0.20191,0.0086 10e-4,-0.01803 0.002,-0.03608 0.003,-0.0554 0.002,-0.06902 -0.009,-0.136571 -0.007,-0.205595 10e-4,-0.04031 -7e-4,-0.07693 -0.006,-0.116509 -0.005,-0.03461 -0.004,-0.07049 -0.008,-0.105646 -0.005,-0.04749 -0.0158,-0.09203 -0.0252,-0.137308 -0.0179,-0.08706 -0.0287,-0.175592 -0.0438,-0.263204 -0.0144,-0.08411 -0.0223,-0.1697 -0.0272,-0.255288 -10e-4,-0.02374 0,-0.05172 -0.005,-0.07473 -10e-4,-0.0079 -0.004,-0.01436 -0.006,-0.02078 -0.001,-0.023 -0.004,-0.04602 -0.006,-0.06902 -0.003,-0.02522 -0.006,-0.05043 -0.009,-0.0762 -0.002,-0.07914 -10e-4,-0.158288 0,-0.23725 7e-4,-0.05466 0,-0.107121 -0.007,-0.161787 -0.009,-0.07767 -0.007,-0.153134 -0.006,-0.230809 0.002,-0.198413 -0.004,-0.399037 0.008,-0.596713 0.003,-0.03239 0.004,-0.04178 -0.0173,-0.06902 -0.028,-0.03387 -0.0561,-0.06773 -0.0762,-0.107121 -0.0267,-0.05117 -0.0158,-0.124421 -0.007,-0.181296 0.005,-0.02872 0.006,-0.05816 0.006,-0.08706 0,-0.01637 0.006,-0.04528 0,-0.05964 -0.005,-0.01288 -0.0186,-0.02798 -0.026,-0.03957 -0.0144,-0.02152 -0.023,-0.03369 -0.0186,-0.06111 0.002,-0.01933 0.0186,-0.03514 0.0193,-0.05448 7e-4,-0.01379 -0.008,-0.02596 -0.008,-0.04178 -0.003,-0.03663 10e-4,-0.0762 10e-4,-0.115033 7.1e-4,-0.07988 0.002,-0.160317 0.004,-0.239462 7.1e-4,-0.03589 -10e-4,-0.06755 -0.008,-0.101967 -0.006,-0.02889 -0.004,-0.06258 -0.0136,-0.09074 -0.009,-0.02723 -0.0123,-0.03295 -0.0116,-0.06313 0,-0.03164 0,-0.06185 7e-4,-0.09277 0,-0.03313 0.009,-0.07767 0.002,-0.110066 -0.004,-0.01658 -0.0208,-0.02522 -0.026,-0.04307 -0.009,-0.02815 0.0144,-0.06773 0.0274,-0.09074 0.008,-0.0151 0.0388,-0.03514 0.0388,-0.05245 0,-0.0381 -0.0633,-0.01288 -0.0791,-0.0072 -0.0109,0.0044 -0.0302,0.0072 -0.0482,0.01161 -0.001,-0.01013 -0.002,-0.01877 -0.005,-0.02522 -0.0195,0.01087 -0.0425,0.02007 -0.0626,0.0302 -0.007,0.0037 -0.0144,0.005 -0.0215,0.0065 -0.0482,-0.0086 -0.0626,-7.06e-4 -0.0791,0.0044 -0.0136,-0.0014 -0.028,-0.0028 -0.041,-0.0028 -0.0582,0 -0.11632,-7.05e-4 -0.17467,-0.0021 -0.10785,-0.0014 -0.22363,0.0044 -0.32559,0.04454 -0.0547,0.02099 -0.11798,0.0037 -0.17338,0.02318 -0.0711,0.02357 -0.15958,0.0099 -0.22934,0.0057 -0.16675,-0.01013 -0.33222,-0.03461 -0.4975,-0.04455 -0.14817,-0.0094 -0.29688,-0.02448 -0.44505,-0.03313 -0.14025,-0.0086 -0.28252,-0.005 -0.42204,-0.02596 -0.18111,-0.02649 -0.3637,-0.0646 -0.54646,-0.07694 -0.0215,-0.0014 -0.0423,-0.0028 -0.0639,-0.0035 -0.0109,-0.0037 -0.0223,-0.0065 -0.0346,-0.01012 -0.0948,-0.02374 -0.19418,-0.04749 -0.29044,-0.05816 -0.0525,-0.0052 -0.10344,7.05e-4 -0.15461,0.01711 -0.0948,0.01951 -0.18976,0.04325 -0.28326,0.07123 -0.0403,0.01087 -0.0698,0.01584 -0.10933,0.0302 -0.10344,0.03884 -0.2113,0.03884 -0.31694,0.0589 -0.0683,0.01231 -0.1316,0.01305 -0.19915,-0.0035 -0.0403,-0.01012 -0.0749,-0.02078 -0.11798,-0.02007 -0.018,0 -0.0359,-7.05e-4 -0.0547,-7.05e-4 -0.0718,-0.0014 -0.14523,0.01288 -0.21701,0.01584 -0.0784,0.0042 -0.16252,0.0057 -0.24093,-7.05e-4 -0.0223,-0.0014 -0.0245,-0.01012 -0.0418,-0.01362 -0.023,0.0035 -0.0445,0.01069 -0.0661,0.01859 -0.0267,0.01362 -0.0539,0.02152 -0.0827,0.02448 -0.0532,0.0086 -0.10638,0.0094 -0.15957,0.0072 -0.0225,0 -0.046,0.0028 -0.0677,-0.0042 -0.003,0.01362 -0.007,0.02872 -0.0121,0.04307 -0.028,7.06e-4 -0.0561,0 -0.0841,-0.0037 -0.0252,-0.0028 -0.0489,-0.01362 -0.0732,-0.01785 -0.0339,-0.0044 -0.0663,-0.0037 -0.0994,-0.01161 -0.0151,0.02741 -0.0295,0.05043 -0.0302,0.08209 -0.001,0.03736 -0.004,0.07252 -0.008,0.110617 -0.009,0.09424 0.003,0.189029 -0.0144,0.283266 -0.0107,0.05688 -0.0215,0.104913 -0.0215,0.163996 -7.1e-4,0.05595 -0.001,0.112092 -0.002,0.168229 -10e-4,0.08908 7e-4,0.178351 -0.0114,0.2667 -0.004,0.03164 -0.001,0.0611 -0.002,0.09129 -0.003,0.07694 0.0195,0.14025 0.0346,0.215717 0.0179,0.09497 0.0258,0.182583 0.023,0.278295 -0.003,0.07326 0.006,0.144484 0.006,0.217005 0,0.1316 -0.004,0.263937 -0.006,0.395538 -10e-4,0.120741 -0.005,0.240749 0.0136,0.360937 0.0344,0.231546 -0.0489,0.457937 -0.0655,0.687275 -0.006,0.08338 -0.003,0.170437 0.0202,0.252342 0.005,0.01951 0.028,0.08062 0.0215,0.105096 -0.0158,0.02431 -0.0252,0.05099 -0.0295,0.08043 -0.009,0.03387 -0.0166,0.06976 -0.0215,0.104179 -0.002,0.04749 -0.003,0.110066 0.0158,0.153137 0.0243,0.05337 0.0574,0.138042 0.0302,0.197125 -0.0109,0.023 -0.0116,0.03514 -0.0123,0.06258 -7.1e-4,0.01584 -0.002,0.0302 0.003,0.04528 0.0114,0.03295 0.0381,0.05963 0.0416,0.09479 10e-4,0.0079 0,0.01305 0,0.01729 h -0.003 c -0.023,-0.0028 -0.046,-0.0065 -0.0698,-0.0065 -0.0131,-7.06e-4 -0.0317,-0.0042 -0.0438,-0.0014 -0.0131,0.0037 -0.0131,0.0151 -0.0289,0.01161 -0.004,0.0086 -0.0121,0.01658 -0.0201,0.02226 -0.009,0 -0.018,0 -0.0201,0 -0.023,0.0035 -0.0475,0.0079 -0.069,0.01658 -0.0324,0.01214 -0.0633,0.02946 -0.0942,0.04307 -0.0136,0.005 -0.0245,0.01362 -0.0366,0.01933 -0.0124,0.0059 -0.0274,0.0044 -0.0381,0.01012 -0.0109,0.0057 -0.0145,0.01288 -0.0267,0.01877 -0.0193,0.0072 -0.0403,0.0086 -0.0648,0.005 0.0151,0.01951 0.0519,0.03514 0.0712,0.04307 0.0604,0.02596 0.12737,0.023 0.1905,0.03534 0.0468,0.0094 0.092,0.01214 0.13675,0.02872 0.0351,0.01288 0.0718,0.01087 0.10767,0.01087 0.0331,7.06e-4 0.0685,0.0057 0.10068,-7.05e-4 0.0482,-0.01013 0.10068,-0.0057 0.1467,-0.02448 0.0425,-0.0151 0.0849,0.0021 0.1281,-0.0072 0.0171,-0.005 0.0309,-0.0079 0.0503,-0.0079 0.009,0 0.023,0.0042 0.028,-0.005 0.004,-0.0059 -0.006,-0.02667 -0.008,-0.03239 -0.009,-0.02872 -0.0144,-0.05963 -0.0309,-0.08706 -0.004,-0.0065 -0.008,-0.01362 -0.0121,-0.02081 0.009,0 0.0166,-7.06e-4 0.0237,-0.0021 l 0.002,-0.0057 c 0.005,-0.02152 0.008,-0.04528 0.0121,-0.07049 v -0.0035 c 0.007,-0.06332 0.005,-0.130316 -0.004,-0.187004 -0.004,-0.01803 -0.009,-0.03663 -0.0131,-0.05467 -0.004,-0.04307 -0.01,-0.08982 -0.0179,-0.1316 -0.004,-0.02007 -0.009,-0.03957 -0.0151,-0.0589 0,-0.04252 0.003,-0.08559 0.006,-0.127921 0.0101,-0.13528 0,-0.260992 -0.0287,-0.391858 -0.009,-0.03681 -0.0188,-0.07197 -0.0267,-0.107859 -0.0121,-0.05761 -0.0144,-0.115771 -0.023,-0.172646 -0.006,-0.03957 -0.0114,-0.0797 -0.0188,-0.11927 -0.007,-0.05246 -0.0243,-0.103622 -0.0243,-0.156817 0,-0.10565 0.0179,-0.220684 0.0388,-0.324862 0.0215,-0.107121 0.025,-0.214242 0.0265,-0.321547 0.0101,-0.07105 0.0166,-0.142279 0.018,-0.214245 0,-0.03663 0.003,-0.07325 0.002,-0.109883 -10e-4,-0.05117 -0.0173,-0.09773 -0.0195,-0.148901 -0.001,-0.02374 0.004,-0.04822 0.002,-0.07252 -7e-4,-0.03681 -0.009,-0.07123 -0.009,-0.107859 0,-0.0878 -0.0129,-0.165467 0.002,-0.253079 0.0143,-0.08135 0.004,-0.1697 0.006,-0.251608 0,-0.02596 7.1e-4,-0.05264 7.1e-4,-0.07841 0.006,-0.05393 0.0166,-0.107121 0.0201,-0.160313 0.006,-0.08062 0.004,-0.161788 0.005,-0.242404 7.1e-4,-0.03239 0.002,-0.06534 0.003,-0.09774 0.006,-0.02872 0.018,-0.04896 0.0195,-0.08264 10e-4,-0.06828 -0.0144,-0.15608 0.0151,-0.217925 0.009,-0.01859 0.0223,-0.02724 0.0409,-0.03094 0.0475,-0.0072 0.0999,0.0094 0.1489,0.01012 0.0574,0 0.1143,0.0014 0.17246,7.05e-4 0.0836,-7.05e-4 0.16326,-0.01436 0.24664,-0.01877 0.021,-0.0021 0.0648,-0.0021 0.0885,-0.0057 0.0453,-0.0086 0.10988,-0.03957 0.14798,-0.05393 0.0547,-0.023 0.1108,-0.04178 0.16767,-0.05687 0.0359,-0.01362 0.074,-0.023 0.11209,-0.02575 0.0589,0 0.12222,0.02374 0.17615,0.03313 0.12295,0.02081 0.24663,0.01933 0.37032,0.02081 0.0705,0.01214 0.1408,0.02374 0.2135,0.02522 0.12442,0.0021 0.24866,7.05e-4 0.37235,-0.0021 0.22804,-0.0044 0.45443,0.0021 0.6823,0.0035 0.16399,0.0014 0.32798,0.02025 0.49179,0.02815 0.1143,0.005 0.22657,0.02872 0.34161,0.03514 0.0913,0.005 0.18332,0.0042 0.27535,0.005 0.0935,0.0014 0.18976,0.01087 0.28252,0.0021 0.0525,-0.0042 0.10142,-0.01803 0.15314,-0.02872 0.0883,-0.01877 0.18185,-0.0079 0.27185,-0.0057 0.0755,7.05e-4 0.17816,0.01785 0.25308,-7.06e-4 0.0258,-0.0072 0.0302,-0.0151 0.0495,-0.02374 -0.0144,0.04454 -0.009,0.0913 -0.007,0.13878 0.0173,0.274616 0.0935,0.54702 0.14964,0.815195 0.0171,0.08062 0.048,0.159025 0.0631,0.239459 0.009,0.04822 0.0195,0.09644 0.0274,0.14522 0.0166,0.107859 0.0258,0.208538 0.0237,0.318605 -10e-4,0.122216 -0.005,0.2459 -0.007,0.369587 0,0.0077 -0.002,0.01637 -0.002,0.02431 -0.0109,0.140254 -0.006,0.282712 -0.007,0.422783 -0.002,0.197125 -0.0166,0.397563 -0.004,0.595425 0.008,0.137308 0.0324,0.273142 0.0374,0.41045 v 7.06e-4 c -0.008,0.07123 -0.0201,0.143012 -0.0151,0.213504 0.003,0.03461 0.009,0.06755 0.0116,0.101417 0.006,0.05393 0.004,0.110066 0.0129,0.165283 0.004,0.02448 0.0116,0.04822 0.0188,0.07123 0,0.02798 -7e-4,0.05393 -0.001,0.08117 0,0.03957 -0.006,0.08209 -10e-4,0.120192 -0.004,0.0014 -0.006,0.0028 -0.0107,0.0042 0.008,0.0072 0.0144,0.0151 0.0208,0.023 0.002,0.0028 0.005,0.0065 0.006,0.0094 0.006,0.0094 0.0116,0.01803 0.0151,0.02797 10e-4,0 0.003,-0.0014 0.004,-0.0014 v 0.005 c 0.005,0.03957 0.0272,0.04307 0.0596,0.04307 0.0762,-7.05e-4 0.14669,-0.01436 0.22069,-0.0302 0.0351,-0.0072 0.0641,-0.0028 0.097,-0.01859 0.0907,-0.04399 0.19417,-0.02596 0.28915,-0.04896 0.046,-0.01143 0.0861,-0.01288 0.13362,-0.01214 0.0316,7.06e-4 0.0626,0.0065 0.0893,-0.01584 -0.0166,-0.0059 -0.0433,-0.0037 -0.0611,-0.0065"
       style="fill:#21201d;fill-opacity:1;fill-rule:nonzero;stroke:none;stroke-width:0.184057"
       id="path586" />
    <path
       d="m 384.95365,29.443103 c 0.004,0.01069 0.0554,0.01785 0.0891,0.02007 -0.0201,-0.02649 -0.0596,-0.03957 -0.0891,-0.02007"
       style="fill:#21201d;fill-opacity:1;fill-rule:nonzero;stroke:none;stroke-width:0.184057"
       id="path588" />
    <path
       d="m 385.07218,29.465374 h -10e-4 c -0.004,0 -0.0151,-7.06e-4 -0.0281,-0.0021 0.001,0.0021 0.003,0.0028 0.004,0.0044 0.009,-0.0014 0.0166,-0.0014 0.0251,-0.0021"
       style="fill:#21201d;fill-opacity:1;fill-rule:nonzero;stroke:none;stroke-width:0.184057"
       id="path590" />
    <path
       d="m 387.00477,28.442195 c -0.002,7.05e-4 -0.004,0.0021 -0.004,0.0021 -10e-4,7.06e-4 7e-4,-0.0014 0.004,-0.0021 h -7.1e-4"
       style="fill:#21201d;fill-opacity:1;fill-rule:nonzero;stroke:none;stroke-width:0.184057"
       id="path592" />
    <path
       d="m 389.32793,29.392119 c 7.1e-4,0.02007 -0.0173,0.03663 -0.0368,0.03663 l -0.26523,0.03164 c -0.0208,0 0.12075,-0.04822 0.11927,-0.06828 l 0.25676,-0.06773 c 0.0201,0 -0.0747,0.04822 -0.074,0.06773 m -0.50413,0.06828 c -0.0876,0 -0.0876,-0.136017 0,-0.136017 0.0878,0 0.0878,0.136017 0,0.136017 m -0.29339,-0.100679 c -0.10049,0.0057 -0.20338,0.0079 -0.30332,0 -0.10215,-0.0086 -0.21645,-0.02374 -0.29541,-0.0935 -0.0223,-0.01951 0.0351,-0.07767 0.0503,-0.101417 0.046,-0.07252 0.074,-0.07915 0.1546,-0.09203 0.0812,-0.01214 0.16382,-0.0151 0.24738,-0.0151 0.0329,0 0.0539,0.02152 0.0611,0.04601 h 0.002 c 0.0475,-7.06e-4 0.069,0.03884 0.0648,0.07473 0.0331,0.01803 0.0604,0.04325 0.0777,0.07841 0.0223,0.04822 -0.006,0.09921 -0.0591,0.102888 m -0.87427,-0.345846 c -0.0445,0.03663 -0.0445,0.03663 -0.15589,0.0646 -0.0346,0.0086 -0.0712,0.0079 -0.10713,0.0072 -0.003,0.0028 -0.006,0.0059 -0.009,0.0072 -0.0582,0.02815 -0.12,0.04105 -0.18332,0.04178 -0.0359,7.06e-4 -0.17043,0.02081 -0.14964,0 -0.006,-0.01803 0.12664,-0.101413 0.14891,-0.107121 0.14025,-0.04031 0.28473,-0.06534 0.43142,-0.07472 0.0302,-0.0028 0.0495,0.0416 0.025,0.0611 m -0.62174,-0.122212 c -0.002,-0.0021 -0.004,-0.0044 -0.007,-0.0065 -0.005,-0.0037 -0.008,-0.0094 -0.01,-0.01584 10e-4,-0.0044 0.006,-0.03164 0.01,-0.03534 0.003,-0.0028 -0.12644,-0.0086 -0.12147,-0.0094 0.004,-0.0028 0.14172,-7.06e-4 0.14669,0 0.004,0 0.008,0 0.0116,0 0.004,7.05e-4 0.009,0.0014 0.0121,0.0021 0.004,0.0014 0.009,0.0037 0.0144,0.0065 0.002,0 0.004,0.0021 0.006,0.0021 0.009,0.0065 0.0158,0.01288 0.021,0.02152 0.006,0.01012 0.008,0.02025 0.008,0.0302 0,0.01012 -0.004,0.01877 -0.0109,0.02596 -0.004,0.0042 -0.009,0.0072 -0.0158,0.0094 -0.003,7.05e-4 -0.006,7.05e-4 -0.009,0.0014 -0.005,0 -0.009,-7.06e-4 -0.0144,-0.0037 -0.004,-7.06e-4 -0.008,-0.0037 -0.0114,-0.0072 -0.003,-0.0037 -0.006,-0.0072 -0.008,-0.01161 0,-0.0014 0,-0.0035 0,-0.005 -7e-4,-7.06e-4 -0.002,-7.06e-4 -0.002,-7.06e-4 h -7e-4 c -0.006,0 -0.0129,-0.0014 -0.0186,-0.0042 m 0.0574,-0.403454 c -0.005,-0.0042 -0.007,-0.0086 -0.009,-0.0151 -0.003,-0.0042 -0.0819,-0.023 -0.0819,-0.02872 0,-0.0014 0.002,-0.0021 0.005,-0.0021 0.007,-0.0035 0.0245,-0.0114 0.0433,-0.02007 -0.018,0.0079 -0.0346,0.01658 -0.0433,0.02007 0.0166,-0.0028 0.0712,7.05e-4 0.0727,-0.0035 0,-0.0094 0.003,-0.01877 0.008,-0.02596 0.004,-0.005 0.006,-0.0086 0.0107,-0.01362 0.023,-0.0057 0.1489,-0.03517 0.14099,0.103438 0.008,-0.138595 0.002,-7.05e-4 0.006,7.06e-4 0.009,7.06e-4 7.1e-4,0 0,0 -0.003,0 -0.004,0 -0.006,-7.06e-4 -0.006,0.0052 -0.0129,0.0086 -0.0201,0.01235 -0.007,0.0042 -0.0158,0.0079 -0.0245,0.01012 -0.0188,0.0021 -0.0237,0.0028 -0.0433,0 -0.0136,-0.0028 -0.2321,0.01069 -0.24369,0.0014 -0.008,-0.0035 0.18994,-0.0302 0.18553,-0.0381 m -0.47947,0.463825 c 0.007,-0.0044 -0.1662,0.0014 -0.16768,0.0035 -0.0114,0.01235 -0.001,0 -0.008,0.0094 -7.1e-4,7.06e-4 -7.1e-4,0.0014 -10e-4,0.0037 0.0215,0.0381 0.0223,0.08411 -0.0123,0.122213 -0.0287,0.03164 -0.18332,0.112092 -0.22363,0.120742 -0.0539,0.01161 -0.0539,-0.04822 -0.10841,-0.04601 -0.0512,0.0014 -0.0512,-7.06e-4 -0.10141,-0.0057 -0.0374,-0.0044 -0.18848,0.0065 -0.22142,-0.0151 -0.044,-0.0302 0.0589,-0.102888 0.10344,-0.133075 0.13381,-0.08982 0.30351,-0.09497 0.45517,-0.134362 -0.004,0.0035 -0.006,0.005 10e-4,0 0.003,-7.06e-4 0.005,-0.0014 0.008,-0.0014 10e-4,-0.0028 0.002,-0.0037 0.002,-0.0044 0.0274,-0.01143 0.0569,0.0014 0.14025,-0.01859 0,0 0.16399,0.07841 0.1338,0.09921 m -1.0274,0.06755 c -0.049,0.02448 -0.10933,0.03514 -0.15608,0 -0.0121,-0.0086 -0.0195,-0.02007 -0.0173,-0.03589 0.0223,-7.06e-4 0.12295,-0.0497 0.14522,-0.0497 0.0188,0 0.0316,0.01362 0.0353,0.0302 0.002,0.0014 0.10988,-0.01436 0.11209,-0.01214 0.0101,0.01584 -0.10289,0.05963 -0.11927,0.06755 m 0.0171,0.593217 c -0.0769,0.04749 -0.14872,0.05964 -0.23578,0.04602 -0.0871,-0.01436 -0.54205,-0.05982 -0.5888,-0.137309 -0.0202,-0.03238 0.14596,-0.05834 0.17615,-0.07841 -0.004,-0.01362 0.0856,-0.0381 0.0992,-0.04528 0.0396,-0.02025 0.31345,-0.03239 0.35873,-0.03239 0.0195,-7.06e-4 -0.19473,0.01729 -0.19418,0.03589 0,0.0151 -0.009,0.0267 -0.0215,0.03238 0.0109,0.0057 0.33001,0.06608 0.37455,0.08485 -0.0503,-0.0086 -0.19915,-0.02597 -0.15313,-0.0014 0.0467,0.02448 0.22657,0.06902 0.18479,0.09571 m 4.33195,-0.520516 c -0.0641,-0.03957 -0.15038,-0.07841 -0.24167,-0.067 -0.0532,0.0072 -0.10418,0.03736 -0.15682,0.04896 -0.0351,0.0079 -0.0675,0.01436 -0.10196,0.02374 -0.1143,0.0302 -0.23081,0.06184 -0.35376,0.06534 -0.0705,0.0028 -0.13657,-0.0028 -0.16399,-0.05595 -0.0468,-0.09074 0.10141,-0.151113 0.18552,-0.193446 0.069,-0.03387 0.14025,-0.06626 0.21001,-0.09995 0.0237,-0.01161 0.0316,-0.01951 0.0453,-0.03589 0.0121,-0.01453 0.0309,-0.03681 0.0381,-0.05393 0.004,-0.03461 -7e-4,-0.06829 -0.0116,-0.101416 0.002,-0.03957 -0.0216,-0.06626 -0.0718,-0.07694 -0.0237,0 -0.049,0 -0.0734,-7.05e-4 -0.0294,0 -0.0582,-0.0037 -0.0856,-0.0094 -0.0517,-0.005 -0.0999,-0.0065 -0.15314,-0.0079 -0.0834,-0.0028 -0.16381,-0.0072 -0.24645,-0.0072 -0.10436,-7.06e-4 -0.19271,-0.0072 -0.28989,0.02007 -0.1524,0.04399 -0.29982,0.117246 -0.4629,0.1432 -0.0388,0.0057 -0.0799,0.0094 -0.12019,0.01139 -0.0574,0.0021 -0.12074,0.01877 -0.17816,0.01309 -0.0828,-0.0094 -0.12884,-0.0532 -0.0633,-0.102891 0.0653,-0.04896 0.16676,-0.07767 0.24517,-0.1143 0.0467,-0.02226 0.0826,-0.03239 0.13509,-0.04454 0.0245,-0.0057 0.0734,-0.01305 0.092,-0.02667 0.0237,-0.01584 0.004,-0.05025 -0.0136,-0.06387 -0.069,-0.05761 -0.1754,-0.02596 -0.26246,-0.04823 -0.0604,-0.0151 -0.14522,-0.02448 -0.15019,-0.07988 -0.006,-0.07399 -7.1e-4,-0.137308 0.0755,-0.191974 0.0482,-0.03443 0.15682,-0.04878 0.0878,-0.109146 -0.0281,-0.02596 -0.0633,-0.03238 -0.10436,-0.03957 -0.0898,-0.01729 -0.18332,-0.01658 -0.27038,-0.04399 -0.0913,-0.02798 -0.0725,-0.115587 -0.0582,-0.172462 0.0109,-0.04104 0.0497,-0.05098 0.10141,-0.06755 0.048,-0.01436 0.10418,-0.03737 0.14007,-0.06626 0.0331,-0.02649 0.0468,-0.04307 0.044,-0.08117 -0.004,-0.04031 -0.0433,-0.06332 -0.0806,-0.09056 -0.11209,-0.08062 -0.26964,-0.124425 -0.41762,-0.159029 -0.006,-0.01436 0.0344,-0.05172 0.0503,-0.0611 0.0287,-0.01711 0.0727,-0.01933 0.10785,-0.0302 0.0388,-0.01214 0.074,-0.02946 0.11007,-0.04675 0.0388,-0.01711 0.0525,-0.02283 0.0661,-0.05669 0.0136,-0.03313 0.0274,-0.05245 0.003,-0.08411 -0.0445,-0.06184 -0.15037,-0.08559 -0.23872,-0.106384 -0.0906,-0.02025 -0.16823,-0.01951 -0.24737,-0.05614 -0.0166,-0.0086 -0.0475,-0.02081 -0.0567,-0.03663 0.009,0.01729 0.0366,0.03514 0.0502,0.04822 0.0223,0.01859 0.0467,0.02872 0.0727,0.04307 0.0171,0.01087 0.0287,0.02448 0.0488,0.03514 0.0346,0.02025 0.0698,0.0381 0.10142,0.05835 0.0186,0.01288 0.0252,0.02649 0.0403,0.03884 0.0166,0.0151 0.0359,0.01584 0.0374,0.03589 10e-4,0.023 -0.0144,0.03387 -0.0215,0.0381 -0.0512,0.0014 -0.0972,0.01288 -0.14816,0.01803 -0.0223,0.0014 -0.0381,0.0072 -0.0589,0.0092 -0.0282,0.0037 -0.0626,-7.05e-4 -0.0907,-7.05e-4 -0.0631,7.05e-4 -0.13657,0.0028 -0.19123,0.02505 -0.0201,0.0086 -0.056,0.02889 -0.0525,0.04822 0.001,0.0094 0.0124,0.01087 0.0173,0.01803 0.009,0.01288 0.0114,0.02575 0.0223,0.0381 0.026,0.02649 0.0626,0.03589 0.10363,0.05025 0.0359,0.01362 0.0646,0.01436 0.1027,0.02226 0.026,0.0057 0.0446,0.01436 0.0675,0.02522 0.0604,0.02798 0.1,0.05687 0.092,0.112826 -0.004,0.03608 -0.0639,0.08062 -0.10565,0.09847 -0.0495,0.02173 -0.0898,0.02448 -0.14596,0.03164 -0.14669,0.01732 -0.29338,0.03663 -0.43934,0.05964 -0.048,0.0086 -0.0941,0.02099 -0.13656,0.04031 -0.0158,0.0065 -0.0309,0.01305 -0.0475,0.02025 -0.0201,0.0079 -0.0164,0.0079 -0.028,0.02357 -0.0388,0.0519 -0.0337,0.117983 0.0274,0.161787 0.0532,0.0381 0.12148,0.03164 0.18609,0.05264 0.0252,0.0079 0.0504,0.02152 0.0784,0.0302 0.0295,0.0072 0.0576,0.01584 0.0856,0.02374 0.006,0.005 0.0114,0.0099 0.0166,0.01566 0.0144,0.0086 0.0215,0.0037 0.0272,0.01951 0.003,0.0086 -0.002,0.02007 -0.001,0.02798 0.003,0.04031 -0.0309,0.06185 -0.0626,0.09571 -0.0596,0.0646 -0.15663,0.117796 -0.2378,0.168963 -0.0281,0.01785 -0.0972,0.06829 -0.14246,0.0797 -0.0351,0.0094 -0.0762,0.01087 -0.11356,0.01584 -0.051,0.0072 -0.097,0.0065 -0.14817,0.0065 -0.0812,7.05e-4 -0.16031,0.01305 -0.24,0.01729 -0.10068,0.0057 -0.20136,-0.005 -0.30204,7.05e-4 -0.0648,0.0037 -0.12939,0.01877 -0.19418,0.02596 -0.0166,0.0021 -0.0324,0.0021 -0.0488,0.005 -0.0403,0.01362 -0.0806,0.02667 -0.12019,0.04105 -0.0316,0.0086 -0.0626,0.01859 -0.0913,0.0302 -0.0381,0.02156 -0.069,0.04602 -0.0626,0.08264 0.006,0.02872 0.0361,0.0497 0.049,0.07694 0.023,0.04896 -0.0418,0.097 -0.0849,0.131601 -0.0287,0.02374 -0.0604,0.02946 -0.10492,0.02872 -0.0633,-7.06e-4 -0.11356,0.0028 -0.16399,0.03239 -0.0245,0.01362 -0.051,0.03443 -0.0725,0.05172 -0.0296,0.023 -0.0591,0.04896 -0.0843,0.07473 -0.051,0.05043 -0.10989,0.119454 -0.12572,0.181296 -0.009,0.03663 0.0121,0.04454 0.046,0.07252 0.0252,0.02152 0.0495,0.04178 0.0755,0.06258 0.0366,0.02797 0.051,0.03883 0.0503,0.07841 -7.1e-4,0.03736 0.0346,0.10215 0,0.130863 -0.0401,0.03369 -0.0906,0.05467 -0.0604,0.107124 0.0252,0.04454 0.10638,0.07197 0.15902,0.09424 0.10859,0.04601 0.22216,0.08835 0.33719,0.125708 0.0849,0.02815 0.16823,0.04675 0.26026,0.06111 0.10933,0.01729 0.23577,0.05246 0.34934,0.05043 0.0791,-0.0021 0.15313,-0.02815 0.2308,-0.03737 0.0698,-0.0074 0.13657,-0.0021 0.20559,0.0021 0.0784,0.0052 0.15903,0.01012 0.23523,0.02448 0.0567,0.01213 0.10638,0.03387 0.16233,0.04601 0.0433,0.0086 0.0907,0.0037 0.1316,0.01584 0.0317,0.01012 0.0596,0.02448 0.0935,0.03313 0.0445,0.01069 0.0856,0.01362 0.13307,0.01436 0.0705,0.0021 0.21774,0.02081 0.26302,-0.02946 0.0281,-0.0309 0.0381,-0.08853 0.0425,-0.125158 0.004,-0.02667 0.003,-0.05172 0.003,-0.07767 0,-0.03369 0,-0.0646 -0.0109,-0.09773 -0.004,-0.01436 -0.0166,-0.03164 -0.0173,-0.04601 -0.005,-0.05172 0.0913,-0.06258 0.14522,-0.07473 0.1051,-0.023 0.27185,-0.05614 0.36609,0.0035 0.0409,0.02596 0.0646,0.05835 0.11356,0.07841 0.0223,0.01013 0.0475,0.01933 0.0711,0.02872 0.067,0.02741 0.14025,0.03094 0.21571,0.03884 0.13087,0.0151 0.25823,0.02946 0.39112,0.02448 0.13087,-0.0044 0.27259,-0.0079 0.40198,-0.02078 0.11283,-0.01161 0.21848,-0.03884 0.3256,-0.06553 0.31068,-0.07547 0.6291,-0.185533 0.84205,-0.367379 0.0329,-0.02798 0.12719,-0.08909 0.10271,-0.133629 -0.0144,-0.02522 -0.0596,-0.05337 -0.0861,-0.06976"
       style="fill:#21201d;fill-opacity:1;fill-rule:nonzero;stroke:none;stroke-width:0.184057"
       id="path594" />
  </g>
</svg>
