<?xml version="1.0" encoding="UTF-8" standalone="no"?>
<!-- Created with Inkscape (http://www.inkscape.org/) -->

<svg
   width="7.9397731mm"
   height="7.8949776mm"
   viewBox="0 0 7.9397731 7.8949776"
   version="1.1"
   id="svg2623"
   inkscape:version="1.1.2 (0a00cf5339, 2022-02-04)"
   sodipodi:docname="z25.svg"
   xmlns:inkscape="http://www.inkscape.org/namespaces/inkscape"
   xmlns:sodipodi="http://sodipodi.sourceforge.net/DTD/sodipodi-0.dtd"
   xmlns="http://www.w3.org/2000/svg"
   xmlns:svg="http://www.w3.org/2000/svg">
  <sodipodi:namedview
     id="namedview2625"
     pagecolor="#ffffff"
     bordercolor="#666666"
     borderopacity="1.0"
     inkscape:pageshadow="2"
     inkscape:pageopacity="0.0"
     inkscape:pagecheckerboard="0"
     inkscape:document-units="mm"
     showgrid="false"
     inkscape:zoom="0.64052329"
     inkscape:cx="15.612235"
     inkscape:cy="14.831623"
     inkscape:window-width="2560"
     inkscape:window-height="1376"
     inkscape:window-x="0"
     inkscape:window-y="0"
     inkscape:window-maximized="1"
     inkscape:current-layer="layer1" />
  <defs
     id="defs2620" />
  <g
     inkscape:label="Layer 1"
     inkscape:groupmode="layer"
     id="layer1"
     transform="translate(-100.95256,-144.55236)">
    <path
       d="m 102.34905,145.37858 c 0,-0.007 0.004,-0.0144 0,-0.0208 -0.004,0.008 -0.004,0.0151 0,0.0208"
       style="fill:#21201d;fill-opacity:1;fill-rule:evenodd;stroke:none;stroke-width:0.184057"
       id="path604" />
    <path
       d="m 107.7141,147.10265 c -0.0275,0.0403 -0.067,0.067 -0.0987,0.10436 -0.0272,0.0329 -0.0394,0.079 -0.0826,0.097 -0.0303,0.0129 -0.0639,0.018 -0.0955,0.0316 -0.0878,0.0374 -0.17413,0.0804 -0.26098,0.11799 -0.0604,0.0265 -0.11504,0.0545 -0.1675,0.0933 -0.0482,0.0346 -0.092,0.0777 -0.14319,0.1051 -0.0935,0.0488 -0.19548,0.0797 -0.28826,0.12866 -0.069,0.0359 -0.13525,0.0468 -0.20926,0.074 -0.0353,0.013 -0.0683,0.0158 -0.0992,0.0316 -0.0268,0.0129 -0.0569,0.018 -0.0826,0.0331 0.10492,-0.006 0.20853,-0.0237 0.31197,-0.0359 0.0396,-0.006 0.0784,-0.0145 0.11578,-0.0267 0.03,-0.002 0.0618,-0.004 0.0927,-0.005 0.0208,-0.006 0.0411,-0.0144 0.0582,-0.0267 0.0212,-0.002 0.0403,-0.004 0.0611,-0.006 0.0374,-0.009 0.0756,-0.0331 0.1143,-0.0445 0.0403,-0.0123 0.0856,-0.0131 0.12368,-0.0317 0.0318,-0.0166 0.0446,-0.0252 0.0777,-0.0309 0.0769,-0.0136 0.13804,-0.0502 0.2056,-0.0848 0.0546,-0.028 0.12443,-0.0295 0.17262,-0.0653 0.0438,-0.0331 0.0955,-0.0561 0.13804,-0.0928 0.0187,-0.0166 0.0683,-0.10363 0.0856,-0.046 0.008,0.0243 -0.0318,0.0653 -0.0418,0.0854 -0.0159,0.0289 -0.0265,0.0504 -0.0482,0.0756 -0.0152,0.0171 -0.0314,0.0295 -0.0445,0.048 -0.0187,0.0267 -0.0296,0.0611 -0.0438,0.0908 -0.0261,0.051 -0.0453,0.12 -0.0977,0.14724 -0.0411,0.021 -0.0871,0.0295 -0.12813,0.0482 -0.0374,0.0173 -0.0661,0.0396 -0.10915,0.0468 -0.0229,0 -0.0453,0.002 -0.0677,0.004 -0.0194,0.0123 -0.0394,0.0223 -0.0604,0.0302 -0.0359,0.0151 -0.074,0.0339 -0.1106,0.044 -0.10216,0.025 -0.1905,0.0905 -0.29192,0.11651 -0.0806,0.0223 -0.16676,0.023 -0.24737,0.0445 -0.0524,0.0144 -0.10273,0.0208 -0.15811,0.0201 -0.0467,0 -0.0878,0.028 -0.13455,0.0324 0.31492,-0.004 0.62688,0.0324 0.94054,0.0324 0.14594,0 0.31196,0.009 0.43416,-0.0799 0.046,-0.0324 0.0928,-0.0668 0.13879,-0.097 0.0332,-0.0237 0.0633,-0.0316 0.0978,-0.0512 -0.0589,0.1338 -0.19547,0.22436 -0.28106,0.3394 -0.0339,0.046 -0.0806,0.072 -0.13585,0.0806 -0.13011,0.0216 -0.25675,0.0158 -0.38834,0.0158 -0.16454,0 -0.3278,0.0171 -0.48461,0.0653 -0.0676,0.0208 -0.14873,0.0331 -0.21848,0.0317 -0.0254,0 -0.049,-0.002 -0.0742,0.004 -0.0127,0.002 -0.0208,0.009 -0.0307,0.0116 0.0841,0 0.17174,-0.009 0.25436,0 0.0756,0.009 0.13677,0.0453 0.20062,0.0791 0.0166,0.009 0.0354,0.0114 0.0517,0.0186 0.0296,0.0123 0.0447,0.0339 0.0712,0.0539 0.0293,0.0215 0.0698,0.0482 0.10365,0.0596 0.0804,0.0252 0.16454,0.0237 0.24663,0.0353 0.0532,0.007 0.10491,0.0208 0.15808,0.0295 0.0856,0.0136 0.1791,-0.003 0.25089,-0.051 0.004,-0.002 0.005,-0.005 0.008,-0.009 0.0116,-0.0166 0.0261,-0.0282 0.0433,-0.0339 -0.0152,0.0166 -0.0332,0.0302 -0.0511,0.0425 -0.0453,0.048 -0.0928,0.0933 -0.14083,0.13731 -0.0475,0.048 -0.0994,0.092 -0.15257,0.13289 -0.0145,0.0138 -0.0272,0.0151 -0.0401,0.005 -0.0289,0.01 -0.0447,0.0151 -0.0784,0.0158 -0.0215,0 -0.0438,0.004 -0.0663,0.003 -0.0768,-0.002 -0.14873,-0.0488 -0.2214,-0.0711 -0.0574,-0.0173 -0.11578,-0.021 -0.17099,-0.044 -0.1294,-0.0547 -0.25954,-0.0834 -0.39702,-0.10914 -0.0617,-0.0116 -0.1215,-0.004 -0.18334,-0.0166 -0.0467,-0.008 -0.0948,0.002 -0.14005,-0.0123 0.11631,0.0799 0.23283,0.15608 0.3357,0.25106 0.069,0.0639 0.14598,0.10786 0.24021,0.13583 0.0985,0.0287 0.22271,0.008 0.32561,0.008 0.0561,0 0.1143,0.005 0.17043,-0.002 0.008,0.0245 -0.10142,0.0791 -0.12517,0.0848 -0.0416,0.0116 -0.0863,0.0144 -0.12865,0.0223 -0.0366,0.007 -0.069,0.006 -0.1064,0.007 -0.0705,0.002 -0.14023,0.0223 -0.21001,0.0302 -0.0633,0.007 -0.14023,0 -0.1984,-0.0287 -0.0416,-0.0208 -0.0725,-0.0495 -0.11578,-0.0683 -0.0346,-0.0158 -0.0683,-0.0388 -0.1027,-0.0554 -0.0375,-0.0178 -0.0662,-0.0295 -0.10858,-0.0416 -0.13381,-0.0396 -0.33793,-0.0677 -0.44651,0.0374 -0.0254,0.0245 -0.0597,0.0374 -0.0834,0.0611 -0.0236,0.025 -0.0438,0.0554 -0.0727,0.0784 -0.012,0.01 -0.0236,0.0215 -0.0346,0.0322 0.0539,0.13234 0.12495,0.2575 0.20983,0.37677 0.0236,0.0331 0.0375,0.0633 0.064,0.0928 0.0293,0.0317 0.0597,0.0618 0.0777,0.10142 0.0339,0.072 0.0883,0.13583 0.12072,0.2078 0.0152,0.0344 0.0286,0.0769 0.0396,0.11283 0.0127,0.041 0.0318,0.0834 0.0374,0.12589 0.0145,0.11357 0,0.23872 0,0.35376 0,0.14725 -0.018,0.29247 -0.0159,0.4399 0.004,-0.0309 -0.008,-0.0604 -0.012,-0.0913 -0.006,-0.0351 -0.004,-0.069 -0.004,-0.10418 0,-0.0769 -0.0187,-0.13234 -0.056,-0.19639 -0.0201,-0.033 -0.0282,-0.0604 -0.0396,-0.0963 -0.0138,-0.0438 -0.0453,-0.0727 -0.0626,-0.11357 -0.0173,-0.0433 -0.0286,-0.0655 -0.0539,-0.11006 -0.013,-0.0223 -0.0366,-0.0569 -0.0539,-0.0906 0.007,0.0324 0.008,0.0646 0.008,0.10988 v 0.16547 c 0,0.0661 0,0.13307 0,0.19989 0,0.0856 -0.0159,0.1697 -0.0173,0.25455 0,0.14375 0.004,0.28529 -0.0159,0.42996 -0.0145,0.11135 -0.0335,0.27664 -0.10121,0.37732 -0.0261,-0.0164 -0.0109,-0.12001 -0.0109,-0.15019 v -0.28106 c 0,-0.14025 0.01,-0.2783 -0.0215,-0.4156 -0.0215,-0.0972 -0.0425,-0.19492 -0.069,-0.29045 -0.0268,-0.0957 -0.0648,-0.19491 -0.0821,-0.29117 0,-0.0116 -0.006,-0.0217 -0.004,-0.0324 0.004,0.0525 0.008,0.11651 0,0.16897 -0.0166,0.11356 -0.0222,0.23154 -0.049,0.34363 -0.0201,0.0827 -0.0353,0.16897 -0.0453,0.25382 -0.004,0.0668 -0.004,0.13234 -0.006,0.19915 -0.008,0.0589 -0.018,0.11798 -0.0254,0.17761 -0.0127,0.11062 -0.0166,0.22143 -0.0236,0.33278 -0.004,0.0381 0.004,0.15314 -0.0159,0.19124 -0.0293,-0.007 -0.008,-0.1143 -0.0159,-0.14375 -0.0145,-0.0532 -0.0296,-0.10344 -0.0286,-0.16032 0,-0.0626 0,-0.12571 0,-0.18829 0,-0.0727 -0.0187,-0.14319 -0.0166,-0.21719 0.004,-0.21718 -0.0401,-0.42775 -0.0589,-0.64273 -0.006,-0.0791 -0.008,-0.15884 -0.006,-0.23798 0,-0.0215 0.004,-0.0425 -0.004,-0.0626 -0.0264,0.0158 -0.0113,0.11283 -0.012,0.14172 0,0.10418 -0.0194,0.21057 -0.0303,0.31419 -0.008,0.0775 -0.0258,0.15516 -0.0332,0.23283 -0.005,0.0576 -0.0258,0.10933 -0.0403,0.16676 -0.0286,0.11872 -0.0416,0.22952 -0.0416,0.35302 0,0.12516 0,0.25032 0,0.37603 0,-0.11135 -0.0641,-0.23007 -0.10862,-0.33498 -0.0275,-0.0668 -0.0353,-0.13657 -0.0475,-0.2056 -0.0173,-0.095 -0.0359,-0.18773 -0.0596,-0.2805 -0.0325,-0.12295 -0.0293,-0.24296 -0.0123,-0.3694 0.009,-0.0655 0.004,-0.13381 0.004,-0.20063 0,-0.12737 0.0173,-0.25308 0.0173,-0.37971 -0.0359,0.15314 -0.13804,0.27186 -0.18626,0.41781 -0.01,0.0287 -0.006,0.0525 -0.007,0.0834 0,0.0532 -0.0215,0.0985 -0.0396,0.14817 -0.0604,0.16307 -0.15808,0.32283 -0.25379,0.46658 0.0504,-0.11945 0.0999,-0.23007 0.10065,-0.36241 0,-0.0316 0,-0.0641 0,-0.097 0,-0.0368 0.0109,-0.0655 0.0159,-0.10216 0.0131,-0.10067 -0.004,-0.20853 0,-0.30921 0.004,-0.11062 0.0576,-0.21995 0.0799,-0.32358 0.012,-0.0524 0.0374,-0.10638 0.0582,-0.15663 0.0138,-0.0324 0.0282,-0.0532 0.0475,-0.0799 0.01,-0.0136 0.0268,-0.0329 0.0325,-0.0473 0.008,-0.0188 0.004,-0.0396 0.01,-0.0606 0.012,-0.0381 0.0374,-0.0624 0.0466,-0.10344 0.0152,-0.0683 0.0339,-0.13455 0.0569,-0.19915 0.0116,-0.0331 0.0109,-0.074 0.01,-0.11357 -0.0411,-0.0302 -0.0755,-0.0742 -0.11504,-0.10638 -0.0286,-0.023 -0.0504,-0.0534 -0.0742,-0.0784 -0.0236,-0.0237 -0.0574,-0.0366 -0.0826,-0.0611 -0.10862,-0.10509 -0.31344,-0.0769 -0.44633,-0.0374 -0.0425,0.0121 -0.0712,0.0237 -0.10788,0.0416 -0.0361,0.0166 -0.069,0.0396 -0.10435,0.0554 -0.0423,0.0188 -0.074,0.0475 -0.11504,0.0683 -0.0589,0.0295 -0.13434,0.0359 -0.1984,0.0287 -0.069,-0.008 -0.14027,-0.028 -0.21001,-0.0302 -0.0374,0 -0.0697,0 -0.1064,-0.007 -0.0431,-0.008 -0.0868,-0.0107 -0.12866,-0.0223 -0.0236,-0.006 -0.1336,-0.0604 -0.12442,-0.0848 0.0554,0.007 0.11359,0.002 0.16898,0.002 0.10361,0 0.2286,0.0208 0.32653,-0.008 0.094,-0.028 0.17169,-0.072 0.24073,-0.13583 0.10143,-0.095 0.2194,-0.17118 0.33444,-0.25106 -0.0447,0.0138 -0.0928,0.004 -0.14027,0.0123 -0.0604,0.0121 -0.12146,0.005 -0.18185,0.0166 -0.13731,0.0258 -0.26815,0.0545 -0.39755,0.10914 -0.0554,0.023 -0.11448,0.0267 -0.17043,0.044 -0.0734,0.0223 -0.14449,0.069 -0.22292,0.0711 -0.0208,0.002 -0.0433,-0.003 -0.0655,-0.003 -0.0328,0 -0.0495,-0.006 -0.0782,-0.0158 -0.0124,0.01 -0.0261,0.009 -0.0396,-0.005 -0.0539,-0.0409 -0.10509,-0.0849 -0.1524,-0.13289 -0.0497,-0.044 -0.0957,-0.0893 -0.14097,-0.13731 -0.0194,-0.0123 -0.0366,-0.026 -0.0517,-0.0425 0.0169,0.006 0.0321,0.0173 0.043,0.0339 0.004,0.004 0.005,0.006 0.009,0.009 0.072,0.048 0.16454,0.0646 0.25012,0.051 0.0532,-0.009 0.10435,-0.0223 0.15755,-0.0295 0.0827,-0.0116 0.16602,-0.0101 0.24663,-0.0353 0.0346,-0.0114 0.0747,-0.0381 0.10417,-0.0596 0.0275,-0.0201 0.0411,-0.0416 0.072,-0.0539 0.0166,-0.007 0.0346,-0.01 0.0517,-0.0186 0.0633,-0.0339 0.12368,-0.0705 0.19914,-0.0792 0.0827,-0.009 0.1712,0 0.25531,0 -0.0109,-0.002 -0.0187,-0.009 -0.0318,-0.0116 -0.0243,-0.005 -0.049,-0.004 -0.0735,-0.004 -0.0698,0.002 -0.15166,-0.0109 -0.21848,-0.0316 -0.15681,-0.0482 -0.31916,-0.0653 -0.48461,-0.0653 -0.13236,0 -0.25806,0.006 -0.3882,-0.0158 -0.0554,-0.009 -0.10213,-0.0346 -0.13599,-0.0806 -0.0862,-0.11504 -0.22144,-0.20559 -0.28032,-0.3394 0.0339,0.0195 0.0633,0.0274 0.0962,0.0512 0.046,0.0302 0.0935,0.0646 0.13878,0.097 0.12369,0.0885 0.28843,0.0799 0.43568,0.0799 0.31288,0 0.62484,-0.0368 0.93977,-0.0324 -0.046,-0.004 -0.0878,-0.0331 -0.13508,-0.0324 -0.0539,0 -0.10435,-0.006 -0.15829,-0.0201 -0.0797,-0.0215 -0.16528,-0.0223 -0.24592,-0.0445 -0.10122,-0.026 -0.19047,-0.0915 -0.29189,-0.11651 -0.0381,-0.0101 -0.0747,-0.0289 -0.11137,-0.044 -0.0208,-0.008 -0.041,-0.0179 -0.0596,-0.0302 -0.0229,-0.002 -0.0453,-0.004 -0.0683,-0.004 -0.0425,-0.007 -0.072,-0.0295 -0.10933,-0.0468 -0.041,-0.0188 -0.0871,-0.0272 -0.12735,-0.0482 -0.0532,-0.0272 -0.0718,-0.0963 -0.0985,-0.14724 -0.0152,-0.0296 -0.025,-0.0641 -0.0438,-0.0907 -0.0127,-0.0186 -0.0286,-0.0309 -0.0446,-0.048 -0.0215,-0.0252 -0.0318,-0.0468 -0.0482,-0.0756 -0.01,-0.0201 -0.0495,-0.0611 -0.0423,-0.0854 0.018,-0.0576 0.0676,0.0295 0.0869,0.046 0.0418,0.0366 0.0927,0.0596 0.1373,0.0928 0.0482,0.0359 0.11797,0.0374 0.17191,0.0653 0.0683,0.0346 0.12866,0.0712 0.20634,0.0849 0.0332,0.006 0.0453,0.0144 0.0769,0.0309 0.0388,0.0186 0.0841,0.0193 0.12517,0.0317 0.0374,0.0114 0.0762,0.0351 0.1143,0.0445 0.0194,0.002 0.0403,0.004 0.0604,0.006 0.018,0.0123 0.0367,0.0208 0.0582,0.0267 0.031,0 0.0618,0.004 0.0928,0.005 0.0381,0.0121 0.0762,0.0208 0.11504,0.0267 0.1051,0.0121 0.20705,0.0295 0.31214,0.0359 -0.0254,-0.0151 -0.0561,-0.0203 -0.0821,-0.0331 -0.031,-0.0158 -0.0646,-0.0186 -0.0999,-0.0316 -0.0732,-0.0272 -0.13952,-0.0381 -0.20853,-0.074 -0.092,-0.049 -0.19547,-0.0799 -0.28822,-0.12866 -0.051,-0.0274 -0.0957,-0.0705 -0.14301,-0.1051 -0.0525,-0.0388 -0.10714,-0.0668 -0.16694,-0.0933 -0.0876,-0.0376 -0.17469,-0.0806 -0.26155,-0.11798 -0.031,-0.0136 -0.0655,-0.0188 -0.0957,-0.0316 -0.0431,-0.018 -0.0562,-0.0641 -0.0827,-0.097 -0.031,-0.0374 -0.0712,-0.0641 -0.0977,-0.10436 -0.0999,-0.14871 -0.10217,-0.32781 -0.10859,-0.501 0.006,0.0309 0.0475,0.0755 0.0646,0.0913 0.0254,0.0245 0.0504,0.051 0.0683,0.0834 0.0166,0.0309 0.0152,0.0668 0.0268,0.0977 0.0236,0.0554 0.0453,0.0663 0.10418,0.0957 0.0339,0.0171 0.0734,0.0329 0.1071,0.0488 0.0303,0.0138 0.0504,0.0289 0.0863,0.0316 0.0769,0.009 0.1445,0.0267 0.21922,0.0446 0.0626,0.0158 0.10435,0.0447 0.15977,0.0712 0.0243,0.0121 0.0401,0.0274 0.0631,0.0418 0.0361,0.0223 0.0863,0.0302 0.12738,0.0401 0.0488,0.0131 0.0992,0.0116 0.14944,0.0237 0.0282,0.005 0.0453,0.0165 0.0712,0.0237 0.0849,0.0237 0.18185,0.0316 0.2632,0.0596 0.0423,0.0145 0.074,0.0138 0.11928,0.0158 0.0871,0.004 0.13529,0.064 0.21498,0.0863 0.0834,0.023 0.1524,0.0871 0.24165,0.0928 0.0229,0.002 0.0453,-0.006 0.0676,0.002 0.0272,0.008 0.0582,0.0352 0.0834,0.0488 0.0411,0.021 0.11137,0.0591 0.14157,0.095 0.01,0.0195 0.0201,0.0381 0.0325,0.0561 0.0131,0.01 0.0236,0.0223 0.0332,0.0344 0.0152,0.023 0.0194,0.0418 0.0152,0.0683 0.004,-0.0423 0.0286,-0.0438 0.0497,-0.0287 0.0187,0.0129 0.0201,0.0267 0.0342,0.0411 0.018,0.0193 0.0453,0.0329 0.0641,0.051 0.0194,0.0195 0.0381,0.0353 0.0567,0.0517 0.0546,-0.0906 0.11151,-0.18332 0.12146,-0.28897 0.006,-0.0604 0.005,-0.12939 -0.008,-0.18829 -0.0123,-0.0598 -0.0201,-0.1143 -0.0366,-0.17338 -0.012,-0.0453 -0.0194,-0.0928 -0.0187,-0.14025 v 0 c -0.004,-0.003 -0.004,-0.006 -0.005,-0.009 -0.0201,-0.0445 -0.0625,-0.0611 -0.0955,-0.095 -0.0318,-0.0331 -0.0446,-0.0804 -0.0749,-0.1143 -0.0145,-0.0173 -0.0243,-0.026 -0.0296,-0.051 -0.004,-0.021 -0.004,-0.0433 -0.004,-0.0648 0,-0.023 0.006,-0.0374 0.0106,-0.0596 0.004,-0.0188 -0.004,-0.0388 0.004,-0.0576 0,-0.008 0.007,-0.0107 0.0102,-0.0201 0.005,-0.018 0,-0.0352 0.008,-0.0539 0.006,-0.0158 0.0166,-0.0331 0.0258,-0.0482 0.0359,-0.0596 0.0898,-0.074 0.15532,-0.0913 0.0236,-0.006 0.10217,-0.002 0.17911,0.004 0.0162,-0.006 0.0279,-0.0173 0.0467,-0.0237 0.0257,-0.009 0.0559,-0.0131 0.0841,-0.0123 0.0346,0.002 0.046,-0.005 0.0733,-0.023 0.01,-0.006 0.0222,-0.0144 0.0332,-0.0186 0.009,-0.005 0.0187,-0.006 0.0279,-0.009 0.0279,-0.0109 0.0467,-0.0351 0.0727,-0.0503 0.0208,-0.0123 0.0445,-0.0173 0.0683,-0.0267 0.018,-0.007 0.0353,-0.018 0.0524,-0.0295 l 0.35652,-0.25381 c 0.0254,-0.0116 0.0525,-0.0116 0.0814,-0.0121 0.0201,0 0.0473,-0.004 0.0668,0.002 0.0138,0.004 0.0332,0.0151 0.0468,0.0217 0.0293,0.0129 0.0467,0.0315 0.0683,0.0545 0.0215,0.023 0.0446,0.0368 0.0676,0.0561 0.0194,0.0173 0.0166,0.0223 0.0166,0.0497 v 0.0604 c 0,-0.0618 -0.0243,-0.0893 -0.0834,-0.10288 -0.0403,-0.009 -0.0856,-0.0208 -0.12517,-0.0238 -0.0215,-0.002 -0.0388,-0.002 -0.0561,0.009 -0.0127,0.008 -0.0272,0.018 -0.0416,0.0272 -0.0138,0.008 -0.0286,0.0166 -0.0339,0.0339 -0.005,0.0136 -0.004,0.0215 -0.0113,0.0359 -0.006,0.0131 -0.0159,0.0252 -0.0236,0.0361 -0.012,0.0166 -0.018,0.0302 -0.0279,0.048 -0.01,0.0158 -0.0222,0.023 -0.0339,0.0368 -0.0131,0.0151 -0.0272,0.0388 -0.0388,0.0567 -0.0201,0.0309 -0.0482,0.0525 -0.069,0.0834 -0.0324,0.0519 -0.0661,0.10584 -0.10142,0.15461 -0.0215,0.0309 -0.0487,0.0569 -0.0797,0.0784 -0.0166,0.0121 -0.0268,0.026 -0.0447,0.0352 -0.0162,0.0101 -0.0574,0.021 -0.0646,0.0388 0.0166,0.0217 0.0381,0.023 0.0589,0.0388 0.0159,0.0116 0.0243,0.0237 0.0418,0.0324 0.0166,0.008 0.0388,0.006 0.0554,0.0116 0.008,0.003 0.0123,0.009 0.0208,0.0129 0.0293,0.009 0.0661,0.0107 0.097,0.0107 0.0547,0 0.10291,0.0217 0.15886,0.0109 0.0275,-0.006 0.046,-0.0193 0.0742,-0.0223 0.008,0 0.0222,-0.003 0.0335,-0.006 0.007,-0.0101 0.0145,-0.0188 0.0236,-0.026 0.004,0.0136 -0.009,0.0208 -0.0236,0.026 -0.008,0.0114 -0.0173,0.025 -0.0286,0.0366 -0.0166,0.0166 -0.0265,0.023 -0.0395,0.0396 -0.0215,0.0287 -0.0567,0.0532 -0.0928,0.0596 -0.025,0.005 -0.0532,-0.004 -0.0789,-0.002 -0.0318,0.004 -0.0569,0.0129 -0.0886,0.0129 -0.046,0 -0.10343,-0.0107 -0.14795,0 -0.0504,0.0114 -0.0878,0.0797 -0.10788,0.12425 -0.004,0.0109 -0.004,0.0203 -0.004,0.0302 -0.004,0.0123 -0.01,0.0188 -0.0166,0.0309 -0.0173,0.0331 -0.0162,0.0799 -0.0236,0.11651 -0.004,0.023 -0.01,0.046 -0.0152,0.0698 0,0.002 0,0.004 0,0.006 0.0102,0.0381 0.0138,0.0821 0.0243,0.12093 0.005,0.0215 0.004,0.0295 0.0138,0.0503 0.005,0.0116 0.0116,0.0208 0.0159,0.0316 0.0166,0.0403 0.0453,0.0791 0.0755,0.11283 0.0411,0.0453 0.0742,0.0992 0.10859,0.15166 0.005,-0.005 0.009,-0.008 0.0138,-0.0129 0.0187,-0.018 0.0454,-0.0316 0.064,-0.051 0.0138,-0.0144 0.0159,-0.0282 0.0339,-0.041 0.0208,-0.0151 0.046,-0.0136 0.0488,0.0287 -0.004,-0.0265 0,-0.0453 0.0152,-0.0683 0.0102,-0.0121 0.0219,-0.0245 0.0339,-0.0344 0.012,-0.018 0.0229,-0.0366 0.0318,-0.0561 0.031,-0.0359 0.10195,-0.074 0.14153,-0.095 0.0261,-0.0136 0.0576,-0.0409 0.0841,-0.0488 0.0222,-0.007 0.0447,0 0.0677,-0.002 0.0891,-0.006 0.15811,-0.0698 0.24151,-0.0928 0.0799,-0.0223 0.12791,-0.0819 0.21494,-0.0863 0.0453,-0.002 0.0762,-0.002 0.11928,-0.0158 0.0821,-0.028 0.17762,-0.0359 0.26395,-0.0596 0.0261,-0.007 0.0431,-0.0186 0.0697,-0.0237 0.0503,-0.0121 0.10142,-0.0107 0.15092,-0.0237 0.0411,-0.01 0.09,-0.0179 0.12739,-0.0401 0.0222,-0.0144 0.0374,-0.0296 0.0631,-0.0418 0.0547,-0.0265 0.0965,-0.0554 0.15903,-0.0712 0.0747,-0.0179 0.14228,-0.0359 0.21996,-0.0445 0.0353,-0.003 0.0554,-0.0178 0.0848,-0.0316 0.0346,-0.0158 0.0733,-0.0316 0.10785,-0.0488 0.0589,-0.0295 0.0804,-0.0403 0.10347,-0.0957 0.0131,-0.0309 0.0102,-0.0668 0.0275,-0.0977 0.018,-0.0324 0.0431,-0.0589 0.069,-0.0834 0.0173,-0.0158 0.0574,-0.0604 0.064,-0.0913 -0.007,0.1732 -0.01,0.35229 -0.10784,0.501 m 1.16395,1.21368 c -0.0109,-0.0215 -0.0215,-0.0431 -0.0282,-0.0661 -0.0113,-0.0446 -0.008,-0.095 -0.0201,-0.13731 -0.006,-0.0217 -0.0194,-0.0388 -0.0286,-0.0618 -0.0159,-0.0388 -0.018,-0.0821 -0.0346,-0.12092 -0.0272,-0.0611 -0.0654,-0.11853 -0.0948,-0.17891 -0.0222,-0.0433 -0.0275,-0.0893 -0.044,-0.1338 -0.0159,-0.0396 -0.0394,-0.0725 -0.0517,-0.1143 -0.0243,-0.0819 -0.0488,-0.16602 -0.0639,-0.2494 -0.005,-0.023 0,-0.0475 -0.006,-0.0705 -0.004,-0.0208 -0.0138,-0.0324 -0.0152,-0.0561 0,-0.0324 0,-0.17614 -0.0311,-0.18037 -0.01,-0.002 -0.013,0.0136 -0.018,0.0144 -0.0212,0.005 -0.0388,0.005 -0.0591,0.004 -0.0318,0 -0.1143,0.0223 -0.13656,0.0144 -0.0388,-0.0144 -0.0318,-0.0604 -0.0453,-0.10196 -0.0272,-0.0814 -0.041,-0.15112 -0.0596,-0.23523 -0.0117,-0.051 -0.0411,-0.10712 -0.0683,-0.15093 -0.0368,-0.0582 0.0113,-0.11779 0,-0.18258 -0.0361,-0.0121 -0.0604,0.004 -0.09,-0.0188 -0.0243,-0.0193 -0.0353,-0.0769 -0.0537,-0.10491 -0.0261,-0.0396 -0.0403,-0.0791 -0.0611,-0.12295 -0.0219,-0.0475 -0.0554,-0.0898 -0.0856,-0.13234 -0.046,-0.0618 -0.0985,-0.13087 -0.16694,-0.17099 -0.0581,-0.0339 -0.1222,-0.0885 -0.19195,-0.0957 -0.0431,-0.004 -0.0539,-0.002 -0.0926,-0.0324 -0.0539,-0.0409 -0.10068,-0.0876 -0.14817,-0.13583 -0.0734,-0.0747 -0.1719,-0.15019 -0.26246,-0.20136 -0.046,-0.025 -0.0935,-0.046 -0.14097,-0.0725 -0.0559,-0.0316 -0.11356,-0.0676 -0.16528,-0.10509 -0.0303,-0.0223 -0.051,-0.0315 -0.0878,-0.0438 -0.0466,-0.0151 -0.0782,-0.0453 -0.1235,-0.0639 -0.0927,-0.0388 -0.17043,-0.072 -0.23947,-0.14596 -0.0215,-0.0237 -0.0324,-0.0569 -0.0539,-0.0799 -0.0293,-0.0331 -0.0863,-0.0374 -0.12443,-0.051 -0.0834,-0.0302 -0.15811,-0.0598 -0.24737,-0.0648 -0.0366,-0.003 -0.0755,-0.008 -0.11137,-0.0201 -0.0229,-0.008 -0.0425,-0.0237 -0.0655,-0.0324 -0.0797,-0.0295 -0.17173,-0.0302 -0.25382,-0.0453 -0.048,-0.009 -0.0876,-0.0203 -0.13582,-0.0166 -0.0332,0.003 -0.0567,0.0158 -0.0871,0.018 -0.0675,0.005 -0.13437,-0.0131 -0.19766,0.0136 -0.0446,0.0193 -0.0935,0.046 -0.14301,0.0517 -0.0286,0.004 -0.0661,-0.002 -0.095,-0.002 -0.0856,0 -0.17322,-0.006 -0.2588,0 -0.0532,0.004 -0.11282,0.0151 -0.15811,0.0447 -0.0512,0.0337 -0.095,0.0683 -0.1524,0.0948 -0.0403,0.0195 -0.0776,0.0215 -0.1202,0.0374 -0.0955,0.0353 -0.19692,0.018 -0.29188,0.049 -0.0286,0.009 -0.0567,0.0223 -0.0856,0.028 -0.0272,0.006 -0.0409,0.007 -0.0624,0.0158 -0.0131,0.006 -0.0289,0.0166 -0.0425,0.0245 -0.0311,0.0158 -0.0633,0.0302 -0.0943,0.0482 -0.0106,0.007 -0.0215,0.0166 -0.0346,0.0245 -0.0236,0.0121 -0.0467,0.0129 -0.0698,0.023 -0.0187,0.008 -0.0279,0.0208 -0.0467,0.0295 -0.0208,0.009 -0.051,0.007 -0.0732,0.0178 -0.0332,0.0173 -0.069,0.0475 -0.0848,0.0784 -0.0318,0.0596 -0.0965,0.0734 -0.15903,0.097 -0.0532,0.0203 -0.10125,0.0497 -0.1596,0.0606 -0.0416,0.007 -0.0819,0.0223 -0.11705,0.0309 -0.0383,0.009 -0.0727,0.0295 -0.11081,0.0374 -0.0145,0.002 -0.0324,-0.002 -0.0475,-0.002 -0.0272,0.002 -0.0403,0.008 -0.064,0.0173 -0.0173,0.006 -0.0624,0.0265 -0.0654,-0.0116 -0.004,0.0166 -0.0131,0.0324 -0.0159,0.0497 -0.0113,0.0782 -0.0503,0.0963 -0.11652,0.15517 -0.11578,0.10288 -0.23431,0.1719 -0.27809,0.32798 -0.0166,0.0582 -0.0187,0.12075 -0.0519,0.17541 -0.012,0.0216 -0.0311,0.0409 -0.0453,0.0604 -0.0481,0.0675 -0.0712,0.15737 -0.12644,0.21793 -0.0212,0.0236 -0.0212,0.0223 -0.0562,0.0215 -0.043,-0.002 -0.0374,-0.004 -0.0574,0.028 -0.0418,0.0655 -0.0849,0.12792 -0.11945,0.19841 -0.018,0.0374 -0.0353,0.0769 -0.0562,0.11357 -0.0409,0.0742 -0.0703,0.15258 -0.10785,0.22933 -0.0374,0.0777 -0.046,0.17983 -0.0582,0.26542 -0.012,0.0834 -0.0438,0.16528 -0.0525,0.24811 -0.012,0.10491 -0.0453,0.16822 -0.097,0.26596 -0.0324,0.0618 -0.0626,0.1143 -0.0742,0.18332 -0.006,0.0324 -0.01,0.0653 -0.0208,0.097 -0.009,0.0223 -0.0236,0.0418 -0.031,0.0648 -0.0254,0.092 0.005,0.21719 0.0109,0.30977 0.005,0.0799 0.0162,0.17191 -0.007,0.24958 -0.018,0.0596 -0.0394,0.10068 -0.0373,0.16179 0,0.0302 0.006,0.0403 0.013,0.0633 0.0113,0.0416 -0.004,0.0876 0.004,0.13142 0.0159,0.1051 0.0762,0.20283 0.0928,0.31069 0.008,0.0618 -0.004,0.12148 -0.0138,0.18185 -0.008,0.0539 -0.0325,0.12019 -0.004,0.16399 0.0229,0.0324 0.0668,0.0495 0.0898,0.0863 0.0254,0.0401 0.0433,0.0933 0.0641,0.13731 0.0152,0.0309 0.0272,0.0567 0.049,0.0848 0.0525,0.0668 0.0977,0.13731 0.15018,0.20412 0.0777,0.097 0.10859,0.21572 0.16475,0.32357 0.0661,0.12719 0.26098,0.14522 0.34068,0.26302 0.0569,0.0848 0.0885,0.18921 0.12516,0.28271 0.012,0.0295 0.0215,0.0431 0.0416,0.0646 0.0368,0.0388 0.092,0.0497 0.12736,0.0863 0.012,0.0144 0.0222,0.0339 0.0339,0.049 0.0268,0.0366 0.0626,0.069 0.0836,0.10841 0.0194,0.0368 0.0342,0.0606 0.0661,0.0915 0.0346,0.0322 0.0705,0.0624 0.10418,0.094 0.0999,0.0928 0.22087,0.16179 0.34434,0.21793 0.0611,0.028 0.10513,0.0683 0.15829,0.10933 0.0777,0.0611 0.14799,0.0696 0.24222,0.097 0.0755,0.0215 0.15462,0.0445 0.21498,0.0962 0.0576,0.049 0.15611,0.0834 0.22934,0.10437 0.0505,0.0151 0.09,0.028 0.13604,0.0539 0.0353,0.0193 0.0616,0.009 0.0992,0.0171 0.0243,0.005 0.0453,0.018 0.0683,0.026 0.051,0.0166 0.0999,0.0188 0.1524,0.0252 0.046,0.006 0.0863,0.0114 0.13289,0.0107 h 0.11377 c 0.0409,0 0.0962,-0.009 0.13508,0 0.0339,0.009 0.0597,0.0403 0.0891,0.0604 0.069,0.0455 0.13952,0.0762 0.21939,0.0928 0.0254,0.005 0.0438,0.0101 0.0698,0.004 0.0467,-0.0116 0.0906,-0.0101 0.14079,-0.0166 0.0447,-0.006 0.0863,-0.0121 0.13088,-0.0121 0.0497,0.002 0.0935,0.004 0.14023,-0.0151 0.092,-0.0353 0.18831,-0.0576 0.28402,-0.0799 0.0359,-0.009 0.0777,-0.0121 0.11078,-0.028 0.0155,-0.008 0.0272,-0.0195 0.046,-0.023 0.0265,-0.006 0.0604,0.006 0.0891,0.002 0.007,-0.002 0.0159,-0.008 0.0201,-0.008 0.0275,-0.007 0.0611,-0.007 0.0927,-0.0101 0.10788,-0.0136 0.14595,-0.092 0.23873,-0.1316 0.0381,-0.0158 0.0784,-0.018 0.11797,-0.0295 0.0777,-0.023 0.17469,-0.0388 0.24295,-0.0834 0.0705,-0.0453 0.13805,-0.0942 0.20634,-0.14172 0.0366,-0.0258 0.0712,-0.0423 0.11007,-0.0725 0.0502,-0.0396 0.10492,-0.0749 0.15812,-0.10786 0.12587,-0.0784 0.25378,-0.17191 0.3659,-0.27185 0.0318,-0.028 0.0705,-0.0611 0.0927,-0.0913 0.0131,-0.0166 -0.004,-0.009 0.0229,-0.0366 0.0222,-0.0237 0.0497,-0.0433 0.0735,-0.0663 0,-0.006 -0.005,-0.0107 -0.01,-0.0144 0.0243,-0.0179 0.0495,-0.0359 0.0747,-0.0532 0.0325,-0.0215 0.0366,-0.0208 0.0512,-0.0539 0.0215,-0.0488 0.056,-0.12497 0.097,-0.16252 0.0208,-0.0208 0.0467,-0.023 0.072,-0.0344 0.0438,-0.0216 0.092,-0.0497 0.12643,-0.0849 0.0229,-0.0245 0.0261,-0.0532 0.0388,-0.0826 0.0418,-0.0885 -0.006,-0.19271 0.0318,-0.28326 0.0243,0.004 0.0475,-0.005 0.0705,-0.0136 0.0453,-0.0158 0.10417,-0.0282 0.14227,-0.0606 0.046,-0.0394 0.0626,-0.097 0.0964,-0.14375 0.0244,-0.0331 0.0611,-0.0547 0.0841,-0.0891 0.0222,-0.0316 0.0272,-0.0705 0.0495,-0.10215 -0.004,0.005 0.0222,-0.028 0.0222,-0.028 0.008,-0.023 0,-0.046 0.008,-0.072 0.0152,-0.0495 0.0403,-0.0955 0.0539,-0.14522 0.0254,-0.0963 0.0396,-0.20486 0.0366,-0.30333 0,-0.0475 0.006,-0.0742 0.0229,-0.12093 0.0187,-0.051 0.0275,-0.10639 0.0446,-0.15884 0.01,-0.028 0.0282,-0.0502 0.0368,-0.0784 0.0127,-0.0438 0.0243,-0.0906 0.0353,-0.13584 0.0145,-0.0574 0.0275,-0.11209 0.0359,-0.16896 0.01,-0.0653 0.0569,-0.11853 0.0762,-0.18185 0.0243,-0.0799 0.0201,-0.16896 0.0212,-0.25308 0,-0.0425 0,-0.0453 -0.0159,-0.0791"
       style="fill:#21201d;fill-opacity:1;fill-rule:nonzero;stroke:none;stroke-width:0.184057"
       id="path606" />
  </g>
</svg>
