<?xml version="1.0" encoding="UTF-8" standalone="no"?>
<!-- Created with Inkscape (http://www.inkscape.org/) -->

<svg
   width="7.1704593mm"
   height="7.2830005mm"
   viewBox="0 0 7.1704593 7.2830005"
   version="1.1"
   id="svg3802"
   inkscape:version="1.1.2 (0a00cf5339, 2022-02-04)"
   sodipodi:docname="z5.svg"
   xmlns:inkscape="http://www.inkscape.org/namespaces/inkscape"
   xmlns:sodipodi="http://sodipodi.sourceforge.net/DTD/sodipodi-0.dtd"
   xmlns="http://www.w3.org/2000/svg"
   xmlns:svg="http://www.w3.org/2000/svg">
  <sodipodi:namedview
     id="namedview3804"
     pagecolor="#ffffff"
     bordercolor="#666666"
     borderopacity="1.0"
     inkscape:pageshadow="2"
     inkscape:pageopacity="0.0"
     inkscape:pagecheckerboard="0"
     inkscape:document-units="mm"
     showgrid="false"
     inkscape:zoom="0.64052329"
     inkscape:cx="649.46897"
     inkscape:cy="284.92329"
     inkscape:window-width="2560"
     inkscape:window-height="1376"
     inkscape:window-x="0"
     inkscape:window-y="0"
     inkscape:window-maximized="1"
     inkscape:current-layer="layer1" />
  <defs
     id="defs3799" />
  <g
     inkscape:label="Layer 1"
     inkscape:groupmode="layer"
     id="layer1"
     transform="translate(66.785537,-73.190147)">
    <path
       d="m -64.097999,76.609573 c -0.0028,-0.04528 0.02741,-0.08632 0.04896,-0.12295 0.02872,-0.04896 0.02448,-0.05614 -0.0028,-0.09773 -0.03957,-0.05963 -0.02501,-0.162525 -0.01785,-0.234491 -0.0037,0.0086 -0.01161,0.01658 -0.01454,0.02741 -0.01362,0.04031 -0.02226,0.08835 -0.03369,0.130129 -0.0044,0.01803 -0.0037,0.03589 -0.0079,0.05393 -0.0057,0.02522 -0.01362,0.04528 -0.01436,0.07473 0,0.03387 -0.0094,0.07473 0.005,0.104912 0.005,0.01305 0.01877,0.0151 0.02374,0.03094 0.0042,0.01658 -0.0021,0.04602 -0.0028,0.06405 z"
       style="fill:#21201d;fill-opacity:1;fill-rule:evenodd;stroke:none;stroke-width:0.184057"
       id="path586" />
    <path
       d="m -61.659991,79.492656 c -0.09847,0.02081 -0.198412,0.02226 -0.297617,0.02156 -0.0589,0.01362 -0.116508,0.03164 -0.174671,0.04675 -0.0819,0.02152 -0.184055,0.04822 -0.267434,0.01729 -0.07767,-0.0302 -0.122212,-0.104175 -0.192705,-0.14375 -0.0762,-0.04325 -0.180562,-0.02226 -0.263937,-0.03681 -0.0381,-0.0065 -0.0473,-0.0589 -0.023,-0.08338 0.08559,-0.08117 0.189208,-0.131416 0.296329,-0.173933 -0.01951,-0.02671 -0.03387,-0.05743 -0.03387,-0.0913 0,-0.0611 0.04307,-0.108592 0.08632,-0.146692 0.02448,-0.02155 0.0554,-0.01288 0.07252,0.0057 0.06553,0.01584 0.108593,0.05319 0.13878,0.101417 0.02099,-0.0021 0.04252,-0.005 0.06332,-0.0079 0.04307,-0.01012 0.07693,0.03313 0.05613,0.0727 l -0.02152,0.04381 c 0.02357,0.01087 0.04804,0.02152 0.07399,0.02374 0.03514,0.0028 0.06331,0.03957 0.04307,0.07325 0.05393,0.01086 0.106387,0.02522 0.159579,0.03957 0.04546,0.01161 0.04399,0.06184 0.0151,0.08485 0.09645,0.01012 0.192709,0.02007 0.281976,0.06184 0.03883,0.01803 0.02798,0.08264 -0.01235,0.09129 m -1.514781,-0.319891 c -0.01087,0.02872 -0.02522,0.05172 -0.04381,0.07399 -0.0072,0.0086 -0.0151,0.01658 -0.02173,0.02522 -0.005,0.0042 -0.0085,0.01012 -0.01288,0.01362 h 0.0014 c -7.06e-4,0 -0.0014,0 -0.0014,0.0018 -0.0021,0.0037 -0.0042,0.0065 -0.0057,0.0094 -0.0079,0.01139 -0.01729,0.01859 -0.0302,0.023 -0.01161,0.0035 -0.02872,0.0021 -0.0381,-0.0052 -0.03313,-0.02226 -0.06037,-0.05025 -0.08485,-0.0819 -0.02025,-0.02724 -0.0381,-0.05743 -0.04969,-0.08982 -0.0086,-0.02741 0.01087,-0.05319 0.03534,-0.06184 0.05595,-0.01877 0.110617,-0.04896 0.171725,-0.04896 0.02667,0 0.04896,0.023 0.04896,0.0497 7.05e-4,0.01069 -0.0037,0.01933 -0.0086,0.02723 0.005,0.0028 0.01086,0.0052 0.01584,0.0086 0.01803,0.01235 0.0309,0.03534 0.02374,0.05614 m -0.854943,0.03164 c -0.0302,0.07473 -0.06902,0.144487 -0.115034,0.209825 0.01584,0.02226 0.03387,0.04399 0.04675,0.06829 0.0065,0.01235 0.0079,0.02815 0.0037,0.04105 0.0057,0.01214 0.0057,0.02741 -0.0037,0.04178 -0.03369,0.04951 -0.0762,0.09479 -0.136571,0.112829 -0.04675,0.01436 -0.0992,0.0086 -0.145217,-0.0057 -0.102154,-0.03094 -0.1905,-0.09718 -0.296884,-0.116509 -0.04896,-0.0086 -0.04454,-0.08411 0,-0.097 0.02649,-0.0059 0.05246,-0.01454 0.07693,-0.02374 -0.0044,-0.02815 0.01143,-0.05908 0.04675,-0.05688 0.01933,0.0018 0.0381,0.0028 0.05669,0.0028 -0.03957,-0.07767 -0.08264,-0.156816 -0.01012,-0.214979 0.04675,-0.03736 0.117245,-0.03387 0.173383,-0.03681 0.0309,-0.0018 0.06037,-0.0035 0.08982,-0.01069 0.0065,-0.0018 0.01235,-0.0037 0.01877,-0.0057 0.0014,-0.0052 0.0035,-0.0094 0.0042,-0.01454 0.0052,-0.0309 0.03663,-0.03939 0.06184,-0.03147 0.01362,-0.0059 0.02872,-0.0066 0.04252,0.0021 0.0151,0.0086 0.02357,0.0267 0.02431,0.04399 0.01729,0.01362 0.03387,0.02798 0.04896,0.04233 0.01161,0.01161 0.01951,0.03387 0.01288,0.04896 m 2.977293,0.25805 c -0.113563,-0.115771 -0.253076,-0.212771 -0.345105,-0.348791 -0.0042,-0.0057 -0.0072,-0.01139 -0.0094,-0.01711 -0.0611,-0.03883 -0.121475,-0.07915 -0.18608,-0.112275 -0.06184,-0.03147 -0.09497,-0.04951 -0.158287,-0.04601 -0.02152,0.0018 -0.04749,0.0037 -0.06461,-0.01139 -0.02173,-0.01729 -0.02741,-0.05687 -0.04252,-0.0819 -0.0438,-0.07694 -0.09553,-0.151112 -0.146692,-0.222896 -0.0028,0.0021 -0.0057,0.0042 -0.0079,0.0065 -0.005,0.0035 -0.0099,0.0086 -0.0151,0.01362 -0.01933,0.01933 -0.03736,0.03957 -0.05743,0.05816 -0.04675,0.04749 -0.103625,0.08706 -0.171171,0.09571 -0.03736,0.0065 -0.06902,-0.0086 -0.0819,-0.04528 -7.06e-4,-0.0044 -0.0021,-0.0072 -0.0037,-0.01161 -7.06e-4,-0.0018 -7.06e-4,-0.0035 -0.0014,-0.005 -0.0021,-0.005 -0.0014,-0.0028 0.0021,0.0057 7.06e-4,-0.005 -0.0079,-0.01584 -0.0094,-0.02007 -0.0072,-0.01584 -0.01436,-0.03164 -0.02152,-0.04749 -0.0072,-0.01803 -0.01436,-0.03589 -0.02007,-0.05466 -0.02152,0.01305 -0.05614,0.0052 -0.06755,-0.01785 -0.0094,-0.02099 -0.01584,-0.04178 -0.02173,-0.06332 -0.02007,-0.0151 -0.03865,-0.03461 -0.05448,-0.05688 -0.0066,0.0018 -0.01305,0.0021 -0.01951,0.0028 v -0.02946 c -0.03369,-0.05393 -0.05743,-0.116508 -0.07473,-0.166938 -0.01087,-0.03094 -0.02007,-0.06111 -0.02946,-0.09277 -0.01305,0.08135 -0.0302,0.161787 -0.05687,0.240933 -0.01069,0.03164 -0.03957,0.05098 -0.07178,0.04675 -0.02815,-0.0028 -0.04472,-0.02081 -0.05264,-0.04381 -0.02872,0.127187 -0.06534,0.252345 -0.097,0.376033 -0.005,0.023 -0.01933,0.03663 -0.03514,0.04233 -0.0059,0.01161 -0.01453,0.02226 -0.0267,0.02946 -0.09423,0.05393 -0.196938,0.08283 -0.305531,0.08338 -0.106387,0.0018 -0.212033,-0.02226 -0.315658,-0.04528 -0.03736,-0.0079 -0.05172,-0.04804 -0.04601,-0.08117 0.02152,-0.122216 -0.108592,-0.195654 -0.191234,-0.257313 -0.01139,-0.01012 -0.02081,-0.02173 -0.02596,-0.03461 -0.04013,0.01139 -0.07822,0.02152 -0.120004,0.023 0.0014,-0.03387 0.0028,-0.06037 0.0021,-0.06479 -0.0037,-0.07399 -0.01231,-0.148717 -0.01231,-0.223446 0,-0.01231 0.0044,-0.03239 7.06e-4,-0.04399 -0.0072,-0.02649 -0.03514,-0.06387 -0.04804,-0.08982 -0.0151,-0.03239 -0.03094,-0.06332 -0.04601,-0.09424 7.06e-4,0.04325 0,0.08559 -0.0021,0.128841 -0.0044,0.102704 -0.0151,0.206329 -0.03957,0.306271 -0.01877,0.07823 -0.04822,0.163813 -0.111354,0.217004 -0.08282,0.06829 -0.201355,0.06479 -0.300563,0.0497 -0.08209,-0.01086 -0.16473,-0.03589 -0.235222,-0.07914 -0.04951,0.03589 -0.102704,0.07049 -0.156633,0.100679 -0.127918,0.154608 -0.261726,0.302041 -0.411918,0.438612 -0.125158,0.1143 -0.237433,0.256575 -0.380442,0.348604 0.116504,0.06332 0.230067,0.133813 0.336454,0.212955 7.06e-4,0 0.0014,0 0.0028,0 0.08835,0.02357 0.179087,0.0021 0.268908,0.02723 0.02007,0.0057 0.06828,0.01214 0.08558,0.02374 0.02431,0.01729 0.03094,0.07123 0.05522,0.09277 0.02025,0.01859 0.04896,0.03164 0.07197,0.04951 0.06976,0.05393 0.16473,0.07049 0.246638,0.09497 0.11853,0.03663 0.230067,0.07767 0.34363,0.125896 0.04896,0.02152 0.102154,0.04804 0.154608,0.05743 0.03736,0.0072 0.08043,0.0037 0.118534,0.0065 0.06902,0.005 0.146692,-0.0072 0.203563,0.03957 0.04823,0.03884 0.08761,0.06681 0.14375,0.09774 0.13528,0.0762 0.260255,0.07841 0.41063,0.0762 0.125709,-0.0018 0.235775,-0.03094 0.357251,-0.06387 0.02226,-0.0059 0.04454,-0.01305 0.06755,-0.01803 0.0065,-0.0021 0.0028,-0.01362 0.01436,-0.01584 0.01309,-0.0028 0.05982,0.02226 0.06902,0.02671 0.05393,0.02226 0.105833,0.03295 0.163995,0.02226 0.07049,-0.01161 0.138042,-0.0094 0.210743,-0.01309 0.08412,-0.0035 0.165283,-0.05742 0.245163,-0.08761 0.0762,-0.02741 0.149454,-0.04104 0.227862,-0.05761 0.06258,-0.01288 0.115038,-0.04951 0.173934,-0.07178 0.125896,-0.04601 0.273322,-0.01658 0.404005,-0.02099 0.05982,-0.0018 0.09202,-0.04675 0.138775,-0.08043 0.04105,-0.02797 0.08412,-0.05098 0.120192,-0.08632 0.04748,-0.04528 0.097,-0.0797 0.150925,-0.115037 0.03094,-0.02007 0.05963,-0.03589 0.09773,-0.05025 0.03312,-0.01309 0.07693,-0.02156 0.117242,-0.03534 -0.117242,-0.0992 -0.200621,-0.232833 -0.307742,-0.3429"
       style="fill:#21201d;fill-opacity:1;fill-rule:nonzero;stroke:none;stroke-width:0.184057"
       id="path588" />
    <path
       d="m -63.059739,77.064014 c -0.01012,-0.04602 -0.005,-0.0935 -0.01288,-0.139517 -0.0079,-0.04822 -0.01584,-0.09056 -0.01803,-0.138779 -7.06e-4,-0.04233 0.0057,-0.09921 -0.0072,-0.139516 -0.0044,0.146695 -0.03238,0.29707 -0.127918,0.407687 -0.0014,0.07123 0.0085,0.140988 0.05522,0.19915 0.01379,0.01803 0.02946,0.02007 0.04178,0.03589 0.01069,0.01453 0.01139,0.03313 0.01658,0.04896 0.0057,0.01436 0.0079,0.02872 0.0099,0.04307 0.0079,-0.02797 0.01584,-0.05522 0.02025,-0.07546 0.0086,-0.04454 0.03369,-0.07546 0.03884,-0.120741 0.005,-0.04307 -0.0072,-0.07915 -0.01658,-0.120742"
       style="fill:#21201d;fill-opacity:1;fill-rule:nonzero;stroke:none;stroke-width:0.184057"
       id="path590" />
    <path
       d="m -60.958922,77.71466 c -0.0014,0 -0.0037,0.0021 -0.005,0.0028 -0.0079,0.0035 -0.01584,0.0057 -0.02374,0.0092 l -0.133071,-0.317683 c 0.01362,0.0151 0.02872,0.02946 0.04454,0.04454 0.02946,0.02667 0.06828,0.118716 0.112275,0.107121 0.0114,0.04969 0.0079,0.102154 0.005,0.153874 m 1.343794,-1.253253 c 0,-0.06976 -7.05e-4,-0.10988 -0.03313,-0.170251 -0.02872,-0.05467 -0.06534,-0.09497 -0.101413,-0.145958 -0.02226,-0.03239 -0.05025,-0.06111 -0.07105,-0.09203 -0.02889,-0.03884 -0.02889,-0.08706 -0.04969,-0.129579 -0.0057,-0.01288 -0.01362,-0.02505 -0.02081,-0.03663 0.0014,-0.03957 0.005,-0.07896 0.0057,-0.109883 0,-0.02963 0.0072,-0.06332 0.0037,-0.09129 -0.0074,-0.05467 -0.04546,-0.131603 -0.08062,-0.175591 -0.01655,-0.02007 -0.02448,-0.01933 -0.03589,-0.03884 -0.01951,-0.0302 -0.04675,-0.06608 -0.05908,-0.100496 -0.02431,-0.06976 -0.01584,-0.151113 -0.04086,-0.221605 -0.0094,-0.02797 -0.03164,-0.0589 -0.03736,-0.08835 -0.0072,-0.03589 -0.0028,-0.06479 -0.01161,-0.10565 -0.01729,-0.07546 -0.05245,-0.144484 -0.07197,-0.219396 -0.01933,-0.07694 -0.02007,-0.118534 -0.06681,-0.193259 -0.02152,-0.03313 -0.0438,-0.06553 -0.06607,-0.09921 -0.02081,-0.04472 -0.05172,-0.05688 -0.09056,-0.03681 -0.02596,0.0086 -0.05043,0.02099 -0.07417,0.03461 -0.01362,-0.02155 -0.02798,-0.04252 -0.04528,-0.06258 -0.03239,-0.0381 -0.05025,-0.05172 -0.09479,-0.06608 -0.02025,-0.02741 -0.04252,-0.05319 -0.06847,-0.0727 -0.02155,-0.01013 -0.04086,-0.02226 -0.0589,-0.03737 l -0.01933,-0.02078 c -0.01951,-0.0079 -0.04178,0 -0.06037,-0.01161 -0.04675,-0.03239 -0.02889,-0.08485 -0.02173,-0.129395 0.0066,-0.04178 -0.0021,-0.08559 0.01012,-0.12663 -0.04233,-0.03073 -0.166017,0.06129 -0.214979,0.07491 -0.01013,-0.05392 -0.0021,-0.09424 -0.06331,-0.09773 -0.03369,-0.0021 -0.07325,-0.01305 -0.09626,-0.04105 -0.0302,-0.0381 -0.0079,-0.107121 -0.05245,-0.133809 -0.02448,-0.01584 -0.067,-0.01658 -0.0935,-0.02649 -0.02522,-0.0079 -0.04675,-0.02152 -0.07197,-0.03313 -0.04951,-0.02374 -0.08761,-0.0094 -0.137309,-0.02448 -0.04086,-0.01288 -0.06607,-0.05172 -0.106383,-0.05742 -0.0028,0 -0.0042,0 -0.0072,-0.0018 -0.005,-0.01013 -0.0086,-0.02078 -0.0151,-0.02797 -0.01877,-0.02099 -0.0554,-0.03957 -0.07693,-0.05264 -0.06332,-0.03883 -0.125158,-0.07896 -0.189762,-0.116325 -0.08209,-0.04601 -0.167492,-0.07344 -0.252342,-0.109329 -0.05908,-0.02522 -0.125892,-0.07123 -0.189946,-0.07399 -0.023,0 -0.0416,0.0057 -0.06239,0.01214 -0.08062,0.02596 -0.153871,0.06184 -0.238721,0.07546 -0.128104,0.02152 -0.256758,0.03514 -0.386888,0.04105 -0.07252,0.0042 -0.126446,0.01362 -0.183321,-0.04178 -0.0381,-0.0381 -0.06037,-0.0797 -0.115033,-0.08632 -0.06405,-0.0079 -0.135834,0.0021 -0.200622,0.0018 -0.0438,0 -0.08485,0.0018 -0.128654,0.01087 -0.03387,0.0072 -0.05963,0.023 -0.09056,0.03663 -0.04325,0.02081 -0.09056,0.03164 -0.135283,0.04823 -0.112088,0.04086 -0.234304,0.06607 -0.353017,0.06332 -0.01637,0 -0.04086,-0.0066 -0.05743,0 -0.02946,0.01453 -0.04454,0.06773 -0.05319,0.09571 -0.01087,0.03589 -0.0086,0.06681 -0.03883,0.09277 -0.02872,0.02448 -0.07325,0.04675 -0.106383,0.0646 -0.04602,0.02596 -0.09774,0.03534 -0.144488,0.05688 -0.0065,0.0028 -0.01231,0.0065 -0.01951,0.0094 -0.03369,-0.0028 -0.06755,-0.0065 -0.100679,-0.01288 -0.03514,-0.0018 -0.06902,-0.0086 -0.101967,-0.02173 -0.01658,0 -0.03387,0.0079 -0.04896,0.01379 -0.05025,0.01933 -0.10215,0.06387 -0.145958,0.09552 -0.04528,0.03387 -0.097,0.06553 -0.135096,0.107121 -0.03957,0.04178 -0.07841,0.0878 -0.107121,0.138046 -0.01803,0.03238 -0.0302,0.06681 -0.05043,0.09773 -0.02649,0.04399 -0.06037,0.0705 -0.103441,0.09718 -0.03736,0.023 -0.08062,0.04804 -0.115034,0.0762 -0.03607,0.02946 -0.0497,0.07105 -0.07123,0.112091 -0.01729,0.03164 -0.03589,0.0589 -0.0589,0.0878 -0.04325,0.05466 -0.07344,0.118533 -0.11798,0.172463 -0.08982,0.110066 -0.196938,0.202095 -0.287496,0.312712 -0.06552,0.08062 -0.127367,0.172646 -0.184055,0.260259 -0.02889,0.04399 -0.04546,0.09148 -0.07123,0.135283 -0.06258,0.102704 -0.110067,0.220684 -0.148167,0.3394 -0.0065,0.0065 -0.01143,0.01288 -0.01729,0.01859 -0.09129,0.115037 -0.06534,0.2667 -0.06534,0.406954 0,0.09129 -7.06e-4,0.182583 0,0.273875 0,0.0554 -0.01658,0.101417 -0.03239,0.155346 -0.01288,0.04454 -0.01069,0.08982 -0.0302,0.132337 -0.04951,0.107121 -0.03238,0.231546 -0.03238,0.347317 -7.06e-4,0.04233 -0.0057,0.08614 0.0086,0.127183 0.01161,0.03239 0.02667,0.06185 0.03461,0.09571 0.0086,0.03369 0.01658,0.04528 0.04233,0.07178 0.04675,0.0497 0.06037,0.08062 0.06828,0.145958 0.01729,0.133809 0,0.268908 -0.01069,0.402717 -0.0021,0.0381 -0.0086,0.08761 0.0021,0.127184 0.01305,0.04749 0.0611,0.0935 0.09,0.129391 0.05098,0.06626 0.097,0.135837 0.146692,0.204305 0.02431,0.03443 0.06755,0.07399 0.0762,0.115591 0.01069,0.05761 7.06e-4,0.128838 0,0.186266 0,0.06902 0.005,0.144484 0.03147,0.209272 0.02099,0.04951 0.03164,0.09847 0.06405,0.141541 0.01658,0.02173 0.03883,0.02815 0.06184,0.04399 0.01877,0.01288 0.04675,0.02797 0.06184,0.04454 0.023,0.02374 0.01803,0.0309 0.0021,0.09424 0.04528,-0.0066 0.08485,-0.08559 0.12295,-0.111541 0.06902,-0.04601 0.145221,-0.08982 0.222892,-0.120742 0.04528,-0.01877 0.09332,-0.0309 0.136571,-0.05319 0.02522,-0.01235 0.02724,-0.02374 0.04381,-0.04178 0.01362,-0.01711 0.02522,-0.03737 0.04031,-0.0532 0.01436,-0.01658 0.03313,-0.02448 0.05172,-0.0381 0.09055,-0.0611 0.186263,-0.09203 0.276818,-0.149454 0.02872,-0.01729 0.07197,-0.02815 0.08632,-0.05688 0.0072,-0.01288 0.0072,-0.03313 0.01362,-0.04748 0.01436,-0.03295 0.03443,-0.04307 0.06755,-0.06037 0.02741,-0.01658 0.04749,-0.03443 0.06681,-0.05614 -0.02575,-0.0114 -0.0473,-0.02797 -0.06313,-0.05172 -0.01584,-0.0079 -0.03164,-0.01436 -0.04675,-0.02226 -0.08927,-0.04381 -0.179825,-0.09921 -0.231546,-0.187004 -0.02797,-0.04804 -0.04233,-0.100496 -0.04601,-0.154425 -0.0094,-0.0037 -0.01951,-0.0079 -0.02723,-0.01436 -0.03037,-0.02448 -0.01803,-0.06405 -0.01803,-0.09939 7.05e-4,-0.06185 -0.0028,-0.122217 0.0035,-0.183325 0.0037,-0.04012 0.01086,-0.07472 0.01086,-0.109883 -0.04031,0.06829 -0.07325,0.142279 -0.09276,0.220687 -0.005,0.02152 -0.01658,0.03387 -0.03164,0.04105 0.0037,0.07325 -0.101967,0.09994 -0.127921,0.02226 -0.05245,-0.15185 -0.117242,-0.299829 -0.168225,-0.452229 -0.0037,-0.01087 -0.0057,-0.02099 -0.0086,-0.03164 -0.0086,-0.01013 -0.01436,-0.02374 -0.0151,-0.03957 -7.06e-4,-0.005 0,-0.0094 -7.06e-4,-0.01436 -0.0042,-0.01803 -0.0086,-0.03663 -0.0114,-0.05393 -0.0059,0.01859 -0.01086,0.03662 -0.01584,0.05393 -0.01658,0.05816 -0.11798,0.06828 -0.128104,0 -0.01859,-0.125896 -0.01859,-0.251058 -0.0114,-0.373825 -0.01584,-0.0066 -0.03164,-0.01379 -0.04454,-0.023 -0.02596,-0.01803 -0.04528,-0.03755 -0.06405,-0.06111 -0.01214,-0.01658 -0.01087,-0.04178 -0.0037,-0.05982 0.0086,-0.01933 0.02374,-0.03221 0.04399,-0.0381 0,0 0,0 7.06e-4,0 -0.0014,-0.0079 -0.0028,-0.01658 -0.0028,-0.02505 -7.06e-4,-0.06332 0.04031,-0.120191 0.08338,-0.163259 0.005,-0.0057 0.01214,-0.0094 0.01951,-0.01288 0.0028,-0.0381 0.0057,-0.07565 0.0085,-0.1143 0.0014,-0.03534 0.03164,-0.06055 0.06332,-0.06479 0.0028,-0.147429 0.0094,-0.294125 0.0151,-0.44137 0.0057,-0.08356 0.136571,-0.08559 0.133072,0 -0.0057,0.08467 0.04602,0.155899 0.08761,0.226391 0.03681,0.06258 0.067,0.127184 0.09203,0.194183 0.01161,0.0309 0.02099,0.0624 0.03037,0.09479 0.01711,-0.04528 0.03295,-0.08982 0.04601,-0.135834 -0.02374,-0.05467 -0.04252,-0.117245 -0.05043,-0.178353 -0.02596,-0.02374 -0.04896,-0.05246 -0.05319,-0.09056 -0.01214,-0.123687 0.0762,-0.253816 0.09571,-0.37235 0.0057,-0.03387 0,-0.06037 0.01362,-0.09 0.02448,-0.05319 0.0611,-0.04454 0.107854,-0.07325 0.02872,-0.01877 0.04233,-0.0497 0.06111,-0.07767 0.02081,-0.03239 0.04528,-0.05245 0.07326,-0.07841 0.03957,-0.03443 0.04675,-0.07178 0.04675,-0.122213 -7.06e-4,-0.03443 -0.0094,-0.08043 0.0086,-0.111354 0.0014,-0.0018 0.0021,-0.0021 0.0035,-0.0044 0.02522,0.02596 0.05043,0.05246 0.07693,0.07767 0.03957,0.03663 0.07988,0.08927 0.09866,0.139517 0.04012,0.1143 0.01288,0.253813 0.01637,0.371796 0.0021,0.04951 0.01877,0.08411 0.03387,0.130129 0.0028,0.01069 0.005,0.02226 0.0079,0.03369 0.01161,-0.01729 0.03164,-0.0302 0.05319,-0.03164 0,-0.01362 -0.0014,-0.02723 -0.0021,-0.04086 -0.0072,-0.1316 -0.01069,-0.302038 0.06552,-0.419283 -0.02671,-0.0762 -0.05614,-0.150192 -0.04528,-0.234305 0.01143,-0.08706 0.06037,-0.163996 0.097,-0.243141 0.03387,-0.01933 0.06681,-0.03865 0.09847,-0.05963 0.04031,-0.02649 0.08209,-0.05099 0.122213,-0.0762 0.0079,0.01584 0.01362,0.03164 0.01436,0.04822 7.05e-4,0.02007 0,0.04233 -7.06e-4,0.06332 -0.0021,0.01933 -0.0014,0.03957 0.0028,0.05816 0.0086,0.0079 0.01803,0.0094 0.02946,0.005 0.023,0.01584 0.04031,0.04325 0.06552,0.01951 0.02872,-0.02522 0.04381,-0.08706 0.05393,-0.122213 0.005,-0.01729 0.0042,-0.04178 0.02152,-0.05246 0.01859,-0.01235 0.03514,0.0028 0.05319,-0.01436 0.01143,-0.01161 0.0094,-0.01877 0.01087,-0.03461 0.0021,-0.0094 0.0021,-0.01933 0.0028,-0.02798 v 0 c 0.03387,0.05964 0.03461,0.133629 0.04104,0.204859 0.0086,0.09626 0.02374,0.201358 0.02575,0.298358 0.02025,-0.0151 0.05835,-0.02156 0.07417,-0.03663 0.0151,-0.0028 0.02007,-0.01305 0.01584,-0.0302 0.01785,-0.09424 0.03589,-0.187741 0.05595,-0.281979 0.01453,-0.05393 0.02247,-0.109883 0.023,-0.166754 -7.05e-4,-0.02798 0.0028,-0.05595 0.01013,-0.08264 0.01235,-0.04031 0.04105,-0.07547 0.05043,-0.117246 0.0099,-0.04878 -0.0072,-0.112829 -0.03239,-0.155899 -0.01436,-0.02374 -0.03238,-0.03607 -0.04454,-0.05117 0.06755,-0.02575 0.140067,-0.04454 0.209825,-0.05816 0.05466,-0.01161 0.120188,-0.02374 0.161047,-0.06405 0.02025,-0.01859 0.023,-0.04381 0.04325,-0.06111 0.0151,-0.01436 0.03514,-0.01658 0.05098,-0.02946 0.01087,-0.01012 0.01584,-0.02522 0.02797,-0.03387 0.03607,-0.0309 0.08779,-0.04657 0.130863,-0.05963 0.0381,-0.01069 0.07914,-0.05393 0.116509,-0.05467 0.01161,0.05246 -0.02448,0.113013 -0.04031,0.159763 -0.01584,0.04657 -0.03957,0.11927 -0.01362,0.168229 0.0302,0.02649 0.06037,0.05393 0.08908,0.0819 0.04601,0.04307 0.09148,0.08633 0.138042,0.128658 0.03094,0.03313 0.02374,0.05319 0.02815,0.097 0.0151,0.171909 0.0072,0.34658 0.0065,0.518488 0,0.100683 0.01729,0.199154 0.01658,0.299833 0,0.01584 -0.02522,0.2078 0.02723,0.191971 0.02596,-0.112275 0.07988,-0.21645 0.09571,-0.330016 0.0099,-0.07197 0.01933,-0.143196 0.01933,-0.215717 -7.06e-4,-0.09129 -0.0014,-0.17835 0.02025,-0.267434 0.0085,-0.03736 0.005,-0.07123 0.01069,-0.107121 0.0057,-0.03164 0.0086,-0.02889 0.0302,-0.05393 0.07123,-0.07914 -0.07325,-0.107124 -0.107858,-0.158291 -0.02226,-0.03443 -0.02081,-0.0797 -0.0065,-0.113563 0.01362,-0.03239 0.03957,-0.05964 0.05393,-0.09203 0.01288,-0.0302 0.01362,-0.06037 0.02596,-0.09056 0.01214,-0.03164 0.03295,-0.05614 0.05246,-0.07988 0.0151,-0.01711 0.02797,-0.03147 0.02872,-0.05595 -0.0086,-0.0021 -0.01732,-0.0044 -0.02649,-0.0057 -0.0052,-0.01309 -0.0066,-0.02889 -7.05e-4,-0.04178 0.02226,-0.0072 0.05522,-0.005 0.08337,0.0028 0.0021,0.0028 0.0042,0.0057 0.0065,0.0085 0.02078,0.03313 0.04527,0.06553 0.05816,0.102151 0.01161,0.0302 0.0151,0.07473 0.01086,0.107858 -0.005,0.03957 -0.03737,0.06553 -0.04822,0.101416 -0.0099,0.03239 7.05e-4,0.04381 0.0094,0.07178 0.01214,0.04104 0.02081,0.08135 0.03663,0.121662 0.01013,0.02505 0.01803,0.05025 0.02448,0.07546 0.005,-0.05172 0.02741,-0.111538 0.03883,-0.14025 0.01933,-0.04951 0.03884,-0.097 0.06258,-0.144488 0.03164,-0.06553 0.07473,-0.116508 0.09129,-0.188475 0.0079,-0.02946 0.01012,-0.06166 0.01436,-0.09479 0.01362,0 0.02741,0.0021 0.03736,0.0042 0.03313,0.0059 0.06479,0.03313 0.08853,0.05393 0.03221,0.02671 0.05963,0.06037 0.09056,0.09001 0.0086,0.0079 0.01803,0.01362 0.02723,0.02078 -0.0014,0.0094 -0.0021,0.02007 -0.0028,0.03238 -7.05e-4,0.0473 0.0021,0.09479 0.0021,0.143012 0,0.05467 -0.0042,0.107859 0.01379,0.160313 0.01436,0.04031 0.01584,0.07841 0.02152,0.121479 0.0057,0.04252 0.0079,0.09129 0.01933,0.132338 0.01235,0.04454 0.04178,0.08264 0.05963,0.125895 0.04896,0.1143 0.07417,0.242221 0.05614,0.365171 -0.0065,0.04381 -0.01436,0.08412 -0.01214,0.128658 0.0014,0.0497 0.03094,0.08485 0.04454,0.133072 0.01214,0.04307 0.01362,0.08761 0.02226,0.131603 0.0094,0.04675 0.01214,0.05025 -0.0028,0.09056 -0.04657,0.122216 -0.03589,0.261733 -0.03295,0.391125 0.0014,-0.0079 0.0035,-0.0151 0.0057,-0.023 0.01729,-0.06479 0.06332,-0.112276 0.07325,-0.182584 0.0094,-0.07344 0.0094,-0.149641 0.02025,-0.225841 0.02374,-0.161788 -0.0057,-0.317867 -0.0037,-0.480942 7.05e-4,-0.08209 0.01231,-0.166205 -0.02007,-0.238725 -0.01584,-0.03461 -0.03663,-0.165467 0.01658,-0.176879 0.01436,0.06111 0.03589,0.128658 0.03517,0.191237 -0.0014,0.03387 -0.0035,0.06405 0.01877,0.08908 0.0079,0.0079 0.02156,0.01161 0.02946,0.02099 0.01933,0.02374 0.01436,0.05816 0.0151,0.08761 0.0021,0.08135 0.023,0.158288 0.02946,0.239459 0.0044,0.04749 0.01161,0.05319 0.03387,0.08982 0.0151,0.02448 0.03736,0.06258 0.04454,0.08927 0.0014,0.0028 0.0014,0.0057 0.0021,0.0086 0.0057,-0.180558 0.09405,-0.358912 0.09626,-0.539288 7.06e-4,-0.05246 -0.0021,-0.101416 0.0072,-0.1524 0.0065,-0.03312 0.01161,-0.06902 0.01658,-0.104362 0.05816,0.07565 0.101417,0.161788 0.146692,0.2459 0.02522,0.04823 0.0589,0.09 0.08264,0.141725 0.01214,0.02798 0.01658,0.06461 0.04031,0.08633 0.02872,0.02649 0.08687,0.0438 0.118533,0.05963 0.0044,0.0021 0.0086,0.005 0.01305,0.0072 -7.06e-4,0.0554 -0.0052,0.109883 -0.0086,0.165284 0.02723,0 0.05393,0.01309 0.05742,0.04675 0.0021,0.0057 0.0021,0.01161 0.0021,0.01803 h 7.06e-4 v 0.0035 c 0.0114,0.09074 0.01436,0.182033 0.01584,0.273325 0.005,0.02649 0.0094,0.05246 0.01362,0.07841 7.05e-4,-0.0021 7.05e-4,-0.0044 0.0014,-0.0059 0.01655,-0.02649 0.01729,-0.0079 0.03589,-0.02007 0.0044,-0.0021 0.0086,-0.0057 0.01231,-0.0079 0.0028,-0.0042 0.0065,-0.0079 0.0092,-0.01161 0.0094,-0.01069 0.01803,-0.02152 0.02741,-0.03295 7.05e-4,0 0.0042,-0.0065 0.0057,-0.0079 0.0042,-0.0052 0.0079,-0.01086 0.01214,-0.01584 0.0072,-0.01161 0.0151,-0.023 0.02226,-0.03461 0.0021,-0.005 0.0052,-0.0099 0.0079,-0.01584 7.06e-4,-0.0018 0.0052,-0.01069 0.0074,-0.01362 0.0035,-0.0114 0.0072,-0.023 0.0099,-0.03443 7.06e-4,-0.0018 0.0014,-0.0072 0.0021,-0.0094 7.06e-4,-0.0065 7.06e-4,-0.01288 7.06e-4,-0.01877 7.05e-4,-0.08614 0.130129,-0.08614 0.132337,0 7.06e-4,0.01951 0.0042,0.03957 0.0072,0.05908 0.0065,0.005 0.01214,0.01069 0.0151,0.01785 0.115034,0.22363 0.27958,0.42278 0.366639,0.661504 0.09129,0.250134 -0.0762,0.511863 -0.138042,0.749851 -0.0086,0.03387 -0.03736,0.04896 -0.06608,0.04675 0.0092,0.06258 0.01785,0.126633 0.02723,0.189212 0.01436,0.04307 0.01436,0.08687 -7.06e-4,0.129392 -0.01729,0.01436 -0.03443,0.02872 -0.05172,0.04307 -0.0072,-0.01729 -0.01362,-0.03443 -0.023,-0.05098 -0.01658,-0.02946 -0.03883,-0.05614 -0.05834,-0.08485 -0.03221,-0.04823 -0.05816,-0.09847 -0.100679,-0.139516 -0.05246,-0.05025 -0.09332,-0.115775 -0.115588,-0.186267 -0.01379,-0.04233 -0.02889,-0.08412 -0.04325,-0.124975 -0.02522,0.0077 -0.05172,0.01214 -0.07767,0.01563 -0.01288,0.08412 -0.03884,0.168416 -0.0099,0.251058 0.01069,0.02872 0.023,0.05172 0.0151,0.08338 0,0 0,0.0018 0,0.0021 l -0.02374,-0.05835 c 0.0028,0.01803 0.0072,0.03737 0.01362,0.05761 0.0014,0.0042 0.0037,0.0079 0.0057,0.01214 -0.01069,0.02797 -0.0302,0.0554 -0.04804,0.08135 0.01637,0.01637 0.023,0.04086 0.01933,0.06608 -0.01729,0.125709 -0.0065,0.253813 -0.01877,0.380263 -0.0092,0.09994 -0.0309,0.208537 -0.09203,0.29265 -0.05025,0.06976 -0.12295,0.11872 -0.201909,0.1524 -0.02448,0.01013 -0.0497,0.01803 -0.07546,0.02448 -0.01732,0.02152 -0.03534,0.04252 -0.05467,0.06331 -0.02448,0.02575 -0.04528,0.05099 -0.05393,0.08117 0.129392,0.06184 0.263017,0.118717 0.336455,0.248846 0.03884,0.01069 0.07767,0.02226 0.1143,0.03957 0.134362,0.05963 0.219946,0.178904 0.330013,0.271667 0.151662,0.126633 0.336454,0.211483 0.480201,0.3429 0.01436,-0.05319 0.03094,-0.117059 0.06553,-0.145221 0.01785,-0.01362 0.02081,-0.0065 0.03957,-0.01362 0.02374,-0.0086 0.03737,-0.02152 0.05522,-0.03957 0.04675,-0.04675 0.06258,-0.08559 0.07197,-0.150929 0.01087,-0.08264 0.02667,-0.174671 0.06185,-0.2494 0.02374,-0.0519 0.06755,-0.09718 0.101413,-0.142459 0.06607,-0.09056 0.08835,-0.184795 0.08908,-0.294678 7.06e-4,-0.115772 0.08982,-0.220868 0.137305,-0.324309 0.04675,-0.10215 0.03663,-0.197679 0.03663,-0.309954 -7.06e-4,-0.07693 0.01453,-0.144484 0.01584,-0.218475 0.0044,-0.121479 0.03387,-0.236517 0.03238,-0.35873 -0.0021,-0.06055 -0.03295,-0.107307 -0.03295,-0.168966 -7.06e-4,-0.183504 0.126446,-0.336642 0.128655,-0.519963"
       style="fill:#21201d;fill-opacity:1;fill-rule:nonzero;stroke:none;stroke-width:0.184057"
       id="path592" />
    <path
       d="m -62.558001,75.408964 c -0.01362,0.06608 -0.02431,0.132154 -0.02872,0.199888 0.0151,0.01711 0.04252,0.0077 0.06037,-0.0079 0.0151,-0.01379 0.02815,-0.03681 0.03164,-0.0554 0.0014,-0.01362 -0.0035,-0.02741 -0.0014,-0.04031 0.0021,-0.01658 0.01309,-0.02723 0.0151,-0.04454 -0.02723,-0.01658 -0.05245,-0.03461 -0.07693,-0.05172"
       style="fill:#21201d;fill-opacity:1;fill-rule:nonzero;stroke:none;stroke-width:0.184057"
       id="path594" />
    <path
       d="m -61.784228,75.577931 c -7.06e-4,0.02152 -0.0014,0.0438 7.05e-4,0.0646 0,-0.02081 0.0028,-0.04381 -7.05e-4,-0.0646"
       style="fill:#21201d;fill-opacity:1;fill-rule:nonzero;stroke:none;stroke-width:0.184057"
       id="path596" />
    <path
       d="m -62.084058,76.117035 c 0,-0.0086 -7.05e-4,-0.01785 -7.05e-4,-0.02723 -0.0014,0.0086 -0.0021,0.01732 7.05e-4,0.02723"
       style="fill:#21201d;fill-opacity:1;fill-rule:nonzero;stroke:none;stroke-width:0.184057"
       id="path598" />
    <path
       d="m -64.092845,76.641231 c -7.05e-4,0.0042 -0.0021,0.0086 -7.05e-4,0.01436 0,-0.0042 0,-0.0094 7.05e-4,-0.01436"
       style="fill:#21201d;fill-opacity:1;fill-rule:nonzero;stroke:none;stroke-width:0.184057"
       id="path600" />
    <path
       d="m -63.698228,74.001843 c 0.0014,0.02152 -0.04602,0.06405 -0.05963,0.0819 -0.02798,0.0381 -0.04528,0.08135 -0.07344,0.119454 -0.02575,0.03443 -0.0646,0.06184 -0.07473,0.104913 -0.0042,0.01729 -0.0057,0.03957 -0.0099,0.05835 -0.01161,0.04951 -0.0037,0.107675 -0.0037,0.158108 0,0.146692 0.0086,0.289705 -0.02946,0.432167 -0.01729,0.06166 -0.04528,0.120004 -0.0727,0.178904 -0.01859,0.04105 -0.02797,0.08264 -0.0438,0.123687 -0.0086,0.02374 -0.02872,0.03313 -0.03663,0.06037 -0.01231,0.04031 -0.0094,0.08853 -0.0151,0.130129 -0.0094,0.06184 -0.02025,0.128655 -0.02374,0.191971 -0.0037,0.0705 -0.03239,0.110804 -0.04749,0.17688 -0.02007,-0.112826 -0.03387,-0.230071 -0.03239,-0.34658 7.05e-4,-0.02505 0.0052,-0.05393 0.0014,-0.07896 -0.0028,-0.01379 -0.01087,-0.02448 -0.01288,-0.03313 -0.01087,-0.04896 0.0079,-0.104179 -0.0065,-0.150929 -0.01305,-0.04104 -0.03313,-0.08209 -0.04472,-0.12295 -0.01069,-0.03884 -0.01859,-0.07491 -0.03295,-0.110804 -0.01161,-0.02723 -0.0044,-0.115771 -0.03663,-0.111354 -0.01527,0.0028 -0.02522,0.129392 -0.02374,0.125712 -0.01231,0.067 -0.0302,0.123688 -0.05319,0.187004 -0.01231,0.03443 -0.02815,0.05816 -0.04399,0.08982 -0.01362,0.02667 -0.01214,0.08853 -0.04675,0.09645 -0.02226,-0.01305 -0.02575,-0.03461 -0.03884,-0.05393 -0.03883,-0.06405 -0.11853,-0.113013 -0.14798,-0.1813 -0.02099,-0.04675 -0.04528,-0.09276 -0.067,-0.140067 -0.01362,-0.03037 -0.02946,-0.05467 -0.05025,-0.08209 -0.01139,-0.01584 -0.04969,-0.06111 -0.04675,-0.08338 0.0014,-0.0086 0.02667,-0.03164 0.02946,-0.03443 0.0309,-0.03681 0.0497,-0.08356 0.07694,-0.121662 0.04252,-0.05816 0.08135,-0.127184 0.1316,-0.178167 0.06479,-0.06773 0.15755,-0.113012 0.23375,-0.166942 0.06608,-0.04657 0.12295,-0.104175 0.196205,-0.133625 0.04822,-0.01951 0.08908,-0.0497 0.138775,-0.06681 0.05393,-0.01951 0.07768,-0.0302 0.120005,-0.06902 0.01729,-0.01584 0.0381,-0.02889 0.05393,-0.04602 0.01305,-0.01379 0.01584,-0.03094 0.192708,-0.0037"
       style="fill:#21201d;fill-opacity:1;fill-rule:nonzero;stroke:none;stroke-width:0.184057"
       id="path602" />
    <path
       d="m -63.571598,73.922697 c 0,0.03387 0.0065,0.03387 0.02226,0.05835 0.0072,0.01288 0.0086,0.0309 0.01859,0.04307 0.01305,0.01231 0.023,0.0072 0.03883,0.01362 0.0438,0.01584 0.08062,0.08411 0.09055,0.125896 0.01379,0.04896 -0.0092,0.08117 0.03534,0.115771 0.03663,0.02723 0.06258,0.06184 0.09129,0.097 0.03883,-0.02505 0.04675,-0.09553 0.07767,-0.130129 0.02505,-0.02575 0.05816,-0.0532 0.09203,-0.06682 0.02374,-0.0094 0.04951,-0.01654 0.07473,-0.02667 0.0302,-0.01288 0.06607,-0.01711 0.09626,-0.03147 0.06902,-0.03238 0.14025,-0.06921 0.208534,-0.103625 0.01584,-0.0086 0.05761,-0.02156 0.0705,-0.03517 0.0057,-0.0066 0.0065,-0.02596 0.01086,-0.03534 0.0302,-0.06184 0.04528,-0.08264 -0.03736,-0.107858 -0.04602,-0.0151 -0.09074,-0.01859 -0.136754,-0.02723 -0.07325,-0.01288 -0.145221,-0.04749 -0.217738,-0.06828 -0.09,-0.02596 -0.189212,-0.02741 -0.278296,-0.05835 -0.03957,-0.01362 -0.07252,-0.02798 -0.115033,-0.03164"
       style="fill:#21201d;fill-opacity:1;fill-rule:nonzero;stroke:none;stroke-width:0.184057"
       id="path604" />
    <path
       d="m -63.481044,76.081143 c 0.0042,-0.0018 0.0079,-0.0028 0.01214,-0.0037 0.01305,-0.108412 0.01729,-0.218478 0.02872,-0.327808 0.0066,-0.06037 -0.01362,-0.112091 -0.05246,-0.158841 -0.02946,-0.03663 -0.05393,-0.06626 -0.06258,-0.112275 -0.01214,-0.06461 -0.01933,-0.13013 -0.02872,-0.194734 0.0037,0.02596 0.0094,0.05098 0.01309,0.07694 0.01213,0.08908 -0.01235,0.173933 -0.0086,0.261729 0.0014,0.03957 0.02505,0.09847 0.01069,0.135833 -0.0099,0.02724 -0.04675,0.0497 -0.06681,0.06902 -0.02374,0.02374 -0.04602,0.06976 -0.04454,0.107125 0.0014,0.02797 0.023,0.0611 0.03369,0.0878 0.0086,0.02078 0.02374,0.04878 0.04823,0.05963 0.03312,0.01584 0.07123,0.03094 0.08982,0.0042 0.02815,-0.03957 0.01161,-0.05246 0.02741,-0.005"
       style="fill:#21201d;fill-opacity:1;fill-rule:nonzero;stroke:none;stroke-width:0.184057"
       id="path606" />
    <path
       d="m -62.51125,73.922697 c 7.05e-4,0.111538 0.01803,0.22363 0.01584,0.334434 -7.05e-4,0.04086 -0.0042,0.0762 0.01362,0.115037 0.01951,0.0438 0.06055,0.07841 0.06626,0.127183 0.0057,0.04454 0.0057,0.08853 0.0151,0.133809 0.01013,0.05319 0.02596,0.109883 0.03313,0.163075 0.0057,0.04546 0.01436,0.08209 0.03094,0.125896 0.01214,0.03313 0.0151,0.06608 0.03369,0.09626 0.08264,0.137492 0.02946,0.309217 0.04454,0.461617 0.0065,0.07768 0.07565,0.116508 0.09994,0.186267 0.0151,0.04178 0.01584,0.09626 0.02596,0.140987 0.01214,0.05025 0.0065,0.107125 0.01933,0.156634 0.0094,0.03534 0.06184,0.108595 0.04104,0.140991 -0.0151,-0.0037 -0.02007,-0.04454 -0.02448,-0.06258 -0.0079,-0.02872 -0.0065,-0.06479 -7.06e-4,-0.09424 0.01951,-0.09994 0.07491,-0.189763 0.0762,-0.294676 0.0014,-0.06552 -0.02431,-0.145221 -0.04307,-0.2078 -0.02798,-0.09424 -0.0381,-0.192708 -0.05245,-0.289708 -0.01803,-0.122213 -0.0381,-0.237988 -0.03164,-0.364617 0.0079,-0.172463 0.05816,-0.344375 0.06405,-0.517571 0.0028,-0.06479 0.0028,-0.130866 -0.0014,-0.19492 -0.0028,-0.04031 -0.0037,-0.143013 -0.06184,-0.15608"
       style="fill:#21201d;fill-opacity:1;fill-rule:nonzero;stroke:none;stroke-width:0.184057"
       id="path608" />
    <path
       d="m -61.183286,79.611376 c -0.04528,-0.0519 -0.06828,-0.08927 -0.132337,-0.125895 -0.097,-0.0554 -0.191968,-0.108596 -0.282526,-0.1732 -0.04748,-0.03313 -0.104912,-0.04601 -0.156629,-0.06902 -0.02522,-0.0151 -0.04896,-0.0302 -0.07197,-0.04749 -0.03589,-0.02152 -0.07399,-0.04178 -0.111354,-0.06111 -0.07344,-0.0497 -0.136755,-0.09921 -0.220868,-0.133075 -0.04804,-0.02007 -0.100495,-0.04104 -0.135833,-0.08043 -0.05098,-0.05614 -0.08411,-0.1524 -0.155342,-0.184055 -0.03164,-0.01803 -0.06534,-0.01877 -0.09847,-0.0021 -0.06902,0.03737 -0.141542,0.06608 -0.217738,0.08706 -0.09203,0.02723 -0.179088,0.0646 -0.260992,0.112825 -0.03884,0.023 -0.08062,0.03313 -0.124421,0.02872 -0.03094,0 -0.06185,0 -0.09129,0 -0.02099,0.0021 -0.04178,0.0042 -0.06258,0.0042 -0.106388,0 -0.212034,-0.02226 -0.314922,-0.04528 -0.02081,-0.005 -0.03387,-0.01859 -0.04105,-0.03589 -0.0151,-0.01012 -0.0302,-0.02226 -0.04528,-0.03663 -0.02081,-0.02078 -0.03517,-0.02667 -0.06184,-0.03313 -0.03514,-0.0028 -0.06976,0 -0.103438,0.01235 -0.0589,0.01563 -0.117246,0.02723 -0.0554,0.116321 -0.09847,-0.02007 -0.169701,-0.104912 -0.271851,-0.112825 -0.125712,-0.0086 -0.250134,0.05098 -0.373084,0.04896 -0.07767,0 -0.10215,0.04528 -0.135833,0.112092 -0.02152,0.04307 -0.05319,0.07197 -0.07841,0.112092 -0.02797,0.04675 -0.05816,0.09074 -0.08706,0.136754 -0.02152,0.03295 -0.05245,0.05743 -0.07105,0.09129 -0.02889,0.05099 -0.03736,0.104912 -0.03239,0.163075 0.0035,0.03884 0.02522,0.04896 0.0554,0.07418 0.05742,0.04804 0.110617,0.09055 0.183321,0.117243 0.160313,0.05743 0.31768,0.05816 0.483884,0.0646 0.630389,0.02596 1.260969,0.01362 1.892279,0.0151 0.119271,0 0.239459,0.0037 0.358726,-0.0021 0.116508,-0.0065 0.2251,-0.03663 0.3394,-0.05467 0.0935,-0.01362 0.195467,-0.02946 0.289705,-0.03514 0.07546,-0.005 0.179821,0.0151 0.248842,-0.01436 -0.01877,-0.0057 -0.04528,-0.0381 -0.05761,-0.05098"
       style="fill:#21201d;fill-opacity:1;fill-rule:nonzero;stroke:none;stroke-width:0.184057"
       id="path610" />
    <path
       d="m -64.503475,73.92196 c 0.0044,0 0.0086,0.0021 0.01235,0.0028 0.0014,0.01951 0.02007,0.03514 0.03443,0.04896 0.03312,0.03369 0.03238,0.03737 0.03238,0.08117 0,0.0302 -0.0072,0.06828 0.0021,0.09773 0.0042,0.01161 0.01637,0.03094 0.02501,0.04031 0.0094,0.01235 0.02155,0.0151 0.03094,0.02671 0.04325,0.05025 0.06829,0.109879 0.110067,0.161783 0.03589,0.04307 0.05098,0.05448 0.05246,0.103442 0.0014,0.04896 0.01803,0.09773 0.05319,0.137308 0.0381,0.04178 0.08982,0.08062 0.106384,0.1316 0.01087,0.03313 -0.01785,0.07767 0.0021,0.110067 0.0065,0.01069 0.01288,0.01288 0.02152,0.01859 0.0037,0 0.0072,0 0.01087,0 0.0151,-0.0018 0.02505,0.0086 0.02872,0.02667 0.0302,0.03443 0.08264,0.07399 0.101413,0.111355 0.0057,0.01086 0.0057,0.02226 0.0114,0.03313 0.01161,0.02081 0.02448,0.02797 0.02889,0.05025 0.0057,0.02889 0.0077,0.05761 0.01436,0.08706 0.0042,0.01859 -0.0066,0.03884 0.01637,0.05246 0.05982,-0.02872 0.05982,-0.139517 0.07915,-0.189029 0.01362,-0.03387 0.03534,-0.06037 0.04748,-0.09276 0.01877,-0.04823 0.03514,-0.09645 0.04822,-0.145958 0.01711,-0.06037 0.03165,-0.116509 0.03221,-0.178354 0,-0.0114 0.0037,-0.02946 0,-0.04031 -0.0077,-0.02081 -0.03443,-0.04454 -0.04804,-0.06387 -0.04252,-0.06037 -0.0094,-0.164733 0.01584,-0.223632 0.01214,-0.02872 0.01288,-0.0611 0.02946,-0.08927 0.03369,-0.05816 0.114296,-0.09921 0.152396,-0.156634 0.05098,-0.07914 0.07399,-0.186266 0.05319,-0.273879 -0.02152,0.0035 -0.03514,-0.0021 -0.05614,-0.0066 -0.08558,-0.0151 -0.168226,-0.0438 -0.255101,-0.05245 -0.125896,-0.01288 -0.256021,-0.0042 -0.382651,-0.0042"
       style="fill:#21201d;fill-opacity:1;fill-rule:nonzero;stroke:none;stroke-width:0.184057"
       id="path612" />
  </g>
</svg>
