<?xml version="1.0" encoding="UTF-8" standalone="no"?>
<!-- Created with Inkscape (http://www.inkscape.org/) -->

<svg
   width="7.7895098mm"
   height="7.3536601mm"
   viewBox="0 0 7.7895098 7.3536601"
   version="1.1"
   id="svg1919"
   inkscape:version="1.1.2 (0a00cf5339, 2022-02-04)"
   sodipodi:docname="z20.svg"
   xmlns:inkscape="http://www.inkscape.org/namespaces/inkscape"
   xmlns:sodipodi="http://sodipodi.sourceforge.net/DTD/sodipodi-0.dtd"
   xmlns="http://www.w3.org/2000/svg"
   xmlns:svg="http://www.w3.org/2000/svg">
  <sodipodi:namedview
     id="namedview1921"
     pagecolor="#ffffff"
     bordercolor="#666666"
     borderopacity="1.0"
     inkscape:pageshadow="2"
     inkscape:pageopacity="0.0"
     inkscape:pagecheckerboard="0"
     inkscape:document-units="mm"
     showgrid="false"
     inkscape:zoom="0.64052329"
     inkscape:cx="-1342.6522"
     inkscape:cy="653.37203"
     inkscape:window-width="2560"
     inkscape:window-height="1376"
     inkscape:window-x="0"
     inkscape:window-y="0"
     inkscape:window-maximized="1"
     inkscape:current-layer="layer1" />
  <defs
     id="defs1916" />
  <g
     inkscape:label="Layer 1"
     inkscape:groupmode="layer"
     id="layer1"
     transform="translate(-459.98657,24.330519)">
    <path
       d="m 464.98686,-24.330519 c -0.007,0.02503 0.0145,0.0381 0.0187,0.06037 0.004,0.02374 0,0.03957 0.008,0.06258 0.006,0.01436 0.0208,0.03092 0.0243,0.04528 0.006,0.0208 0,0.04381 0,0.06681 0.004,0.04602 0.0113,0.09774 0.0215,0.143013 0.0145,0.06332 0.0411,0.118718 0.0467,0.183322 0.004,0.04325 0.004,0.08356 0.004,0.126632 0,0.0935 0.0109,0.194733 -0.005,0.286762 -0.008,0.0519 -0.0187,0.103625 -0.0265,0.156081 -0.007,0.03957 0,0.07841 -0.007,0.116509 -0.018,0.08779 -0.0335,0.170437 -0.0416,0.258049 -0.007,0.0878 -0.005,0.17688 -0.0194,0.263939 -0.012,0.06829 -0.0374,0.130129 -0.0431,0.199151 -0.006,0.08191 0.0102,0.16602 0.004,0.247373 -0.005,0.05172 -0.0201,0.09553 -0.0201,0.149456 0,0.146694 -0.004,0.283265 -0.0145,0.42775 -0.004,0.0289 -0.004,0.05393 0,0.08135 0.0166,0.08411 0.0339,0.153872 0.0339,0.241484 -0.004,0.149639 0,0.299094 0,0.448733 0,0.276823 -0.0194,0.55291 -0.0187,0.828261 0,0.322101 0.0116,0.646963 0.004,0.968328 -0.005,0.124424 -0.0381,0.245902 -0.0367,0.371797 0.004,0.197678 0.004,0.396093 0,0.593955 0,0.196206 0.0339,0.392412 0.0194,0.588802 -0.008,0.09276 -0.0653,0.183321 -0.10711,0.262466 -0.0286,0.05393 -0.0131,0.112091 -0.0187,0.175407 0.0236,-0.08779 0.0366,-0.16105 0.0366,-0.249582 v -0.711752 c 0,-0.102888 0.012,-0.216452 0,-0.317684 -0.0137,-0.111539 -0.046,-0.217189 -0.0633,-0.328727 -0.006,-0.04454 -0.008,-0.08835 -0.0102,-0.131418 -0.0145,-0.0346 -0.0272,-0.06847 -0.0409,-0.102888 -0.0403,-0.112091 -0.0836,-0.233018 -0.10714,-0.349526 -0.0251,-0.122215 -0.01,-0.265964 -0.008,-0.391123 0.004,-0.175407 0.0539,-0.3429 0.0532,-0.518307 0,-0.08412 0.01,-0.173935 0.004,-0.257313 -0.007,-0.0346 -0.0166,-0.06773 -0.0293,-0.10068 -0.01,-0.0554 -0.0127,-0.110803 -0.008,-0.166757 0.004,-0.139515 -0.006,-0.280504 0,-0.42002 0.006,-0.138043 0.0324,-0.273878 0.0641,-0.40824 0.0416,-0.179825 0.0769,-0.357441 0.12517,-0.53432 0.0473,-0.17688 0.0552,-0.350078 0.0559,-0.531928 0,-0.154608 0.0201,-0.30572 0.0324,-0.459593 0.012,-0.159577 -0.004,-0.320628 0.004,-0.480207 0.005,-0.191236 0.0567,-0.379527 0.0532,-0.571499 0,-0.05393 0.012,-0.09074 0.0265,-0.140989 0.0124,-0.04307 0.0145,-0.08191 0.041,-0.120742 -0.0332,-0.03313 -0.097,0.0324 -0.13085,0.04233 -0.0453,0.01435 -0.18831,0.03608 -0.21131,0.08927 0.004,0.0057 0.008,0.01215 0.1524,-0.0519 -0.0201,0.0029 -0.0346,0.02448 -0.049,0.03681 -0.0604,0.05246 -0.13804,0.09332 -0.21202,0.122214 -0.031,0.01215 -0.069,0.0208 -0.0985,0.03515 -0.0504,0.02374 -0.0908,0.07915 -0.13014,0.119269 -0.0641,0.06626 -0.12093,0.125896 -0.19124,0.185531 -0.0296,0.02374 -0.0605,0.04675 -0.0892,0.07197 -0.0668,0.05614 -0.0784,0.097 -0.10566,0.173199 -0.0194,0.05614 -0.049,0.09497 -0.10714,0.12019 -0.0813,0.03515 -0.14742,0.0589 -0.2135,0.122214 -0.0254,0.02503 -0.0445,0.05595 -0.0633,0.08688 -0.0194,0.0324 -0.0187,0.05246 -0.031,0.09129 -0.0138,0.04473 -0.046,0.09148 -0.0683,0.130865 -0.0502,0.08927 -0.0992,0.179825 -0.15956,0.262467 -0.0618,0.08485 -0.13878,0.15829 -0.1984,0.243693 -0.0769,0.108594 -0.12443,0.227311 -0.19124,0.340875 -0.0698,0.117245 -0.14817,0.2286 -0.21865,0.346581 -0.0597,0.09994 -0.12002,0.202648 -0.19421,0.292652 -0.031,0.03515 -0.0646,0.06681 -0.0854,0.110619 -0.01,0.01804 -0.0123,0.04325 -0.0275,0.05964 -0.0222,0.02448 -0.0633,0.05117 -0.0906,0.06828 -0.10287,0.067 -0.1984,0.132338 -0.29263,0.210746 -0.0604,0.0497 -0.1215,0.108595 -0.17395,0.166757 -0.0388,0.04178 -0.0539,0.08209 -0.0755,0.136019 -0.0403,0.09847 -0.09,0.176143 -0.16401,0.248662 -0.0618,0.06037 -0.13084,0.104913 -0.19988,0.156817 -0.10139,0.07473 -0.17685,0.177432 -0.25951,0.270933 -0.0885,0.102153 -0.20411,0.1905 -0.2818,0.301303 -0.0375,0.05467 -0.0727,0.108595 -0.11225,0.161051 -0.0495,0.06902 -0.0884,0.131601 -0.1524,0.188291 -0.0841,0.07565 -0.14672,0.179825 -0.20708,0.275535 -0.0194,0.03092 -0.0475,0.05595 -0.069,0.0854 -0.0173,0.02301 -0.0215,0.03387 -0.0332,0.06258 0.0403,0.02024 0.14245,-0.06111 0.17409,-0.08559 0.0582,-0.04454 0.097,-0.108411 0.13088,-0.171726 0.0279,-0.05117 0.0574,-0.121479 0.0999,-0.161787 0.0467,-0.04381 0.11998,-0.06976 0.17615,-0.101416 0.025,-0.01362 0.0539,-0.02798 0.0812,-0.0416 0.0482,-0.02522 0.10562,-0.03166 0.15166,-0.05761 0.0576,-0.03166 0.10933,-0.07399 0.16969,-0.104913 0.072,-0.03736 0.13088,-0.08927 0.20429,-0.127369 0.0653,-0.03368 0.13804,-0.06902 0.19844,-0.111355 0.071,-0.05098 0.12643,-0.138779 0.18037,-0.206328 0.074,-0.0935 0.13381,-0.194918 0.19343,-0.298358 0.0626,-0.110803 0.15737,-0.200624 0.2437,-0.294125 0.0762,-0.08412 0.14023,-0.179088 0.21717,-0.260258 0.0589,-0.06258 0.10566,-0.120006 0.15166,-0.191972 0.0554,-0.08412 0.11081,-0.168965 0.164,-0.254552 0.0353,-0.05743 0.0769,-0.118534 0.0992,-0.18185 0.0106,-0.03092 0.0229,-0.05687 0.0346,-0.08706 0.0123,-0.0324 0.0109,-0.06534 0.0187,-0.097 0.0187,-0.0727 0.0403,-0.139515 0.0834,-0.203567 0.0856,-0.124976 0.17116,-0.25308 0.26246,-0.373086 0.0532,-0.07123 0.11709,-0.130865 0.16972,-0.202648 0.0876,-0.120189 0.18112,-0.239459 0.26448,-0.363146 0.041,-0.06111 0.0784,-0.119453 0.12517,-0.17688 0.0804,-0.09921 0.1754,-0.182585 0.26373,-0.276086 0.0591,-0.06184 0.12168,-0.120742 0.18553,-0.178353 0.0755,-0.06681 0.0992,-0.07767 0.14101,-0.144485 0.0145,-0.02374 0.0303,-0.03957 0.0517,-0.05743 0.0697,-0.05687 0.1373,-0.112276 0.19766,-0.179825 0.0187,-0.02006 0.0396,-0.03957 0.0569,-0.06037 0.008,-0.0086 0.0145,-0.02374 0.0215,-0.03018 0.0633,-0.06902 0.1373,-0.149639 0.19124,-0.231545"
       style="fill:#21201d;fill-opacity:1;fill-rule:evenodd;stroke:none;stroke-width:0.184057"
       id="path596" />
    <path
       d="m 460.24521,-23.211815 c 0.007,0.0099 0.0159,0.01859 0.0236,0.02724 0.0948,0.09847 0.20704,0.130129 0.3357,0.162523 0.0898,0.01932 0.17981,0.03736 0.27111,0.05466 0.0318,0 0.0604,0.0072 0.0876,0.02153 -0.0243,0.133073 0.0762,0.276823 0.13455,0.386889 0.0317,0.06111 0.0675,0.117797 0.10636,0.173935 0.0339,0.05246 0.0698,0.103441 0.1064,0.153872 0.006,0.01141 0.0152,0.01804 0.0261,0.02006 0.0113,0.01951 0.018,0.04896 0.0314,0.06976 0.0257,0.03884 0.0791,0.08338 0.11501,0.110803 0.0749,0.05816 0.16697,0.097 0.25255,0.137307 0.14228,0.06902 0.28674,0.133626 0.4384,0.177616 -0.0201,0.04601 0.009,0.08485 0.0268,0.124975 0.0675,0.14743 0.15314,0.297806 0.26818,0.415603 0.0524,0.05393 0.11208,0.09276 0.17907,0.125895 0.0387,0.01859 0.079,0.02577 0.11779,0.04086 0.0834,0.03313 0.17117,0.07491 0.25033,0.119454 0.03,0.0173 0.0718,0.03589 0.0854,0.07325 0.007,0.01951 0,0.04822 0.006,0.06902 0.0106,0.03884 0.0503,0.05835 0.0611,0.0935 0.005,0.01288 -0.004,0.04528 -0.004,0.0589 -0.004,0.113748 0.0243,0.214243 0.095,0.306272 0.0353,0.04546 0.0604,0.07491 0.11212,0.102152 0.0279,0.01583 0.0279,0.01583 0.0445,0.04454 0.0396,0.0727 0.10435,0.126632 0.14524,0.198415 0.0604,0.108594 0.13232,0.212955 0.20062,0.315659 0.0596,0.08927 0.12439,0.176143 0.17611,0.271117 0.0438,0.08338 0.10788,0.166757 0.13807,0.254552 0.0166,0.04602 0.0445,0.07105 0.0727,0.110619 0.0394,0.05835 0.0747,0.131602 0.0977,0.19639 0.03,0.08264 0.0762,0.155897 0.1106,0.235042 0.0353,0.08062 0.0928,0.144486 0.13677,0.217188 0.069,0.115773 0.10121,0.23946 0.14079,0.365171 0.0317,0.09994 0.0268,0.204857 0.0747,0.299831 0.008,0.01583 0.0236,0.02945 0.0296,0.04454 0.008,0.02301 0.007,0.04454 0.0187,0.06828 0.0215,0.04602 0.0525,0.08338 0.0698,0.131601 0.0201,0.05393 0.0194,0.123688 0.0467,0.173383 -0.0618,0.03092 -0.0561,-0.06258 -0.0799,-0.08706 -0.0229,-0.02301 -0.0495,-0.01436 -0.0783,-0.01951 -0.0546,-0.0092 -0.11081,-0.03884 -0.13952,-0.08761 -0.0475,-0.08135 -0.0841,-0.172646 -0.11945,-0.260994 -0.0611,-0.150928 -0.0854,-0.309218 -0.14944,-0.459409 -0.0403,-0.09497 -0.0827,-0.177616 -0.14595,-0.258785 -0.0431,-0.05466 -0.0834,-0.09571 -0.10438,-0.161051 -0.03,-0.10068 -0.0755,-0.17191 -0.1373,-0.256761 -0.0366,-0.04896 -0.0696,-0.105649 -0.11557,-0.145221 -0.0655,-0.0554 -0.11801,-0.09498 -0.16623,-0.164732 -0.1603,-0.237987 -0.30974,-0.485913 -0.49971,-0.703102 -0.0525,-0.0589 -0.11282,-0.119269 -0.15956,-0.181113 -0.0279,-0.03608 -0.0438,-0.08853 -0.0626,-0.131601 -0.048,-0.107858 -0.11281,-0.214244 -0.18478,-0.309217 -0.0819,-0.10565 -0.20983,-0.24222 -0.33426,-0.288235 -0.0453,-0.0173 -0.0878,-0.04252 -0.13307,-0.05964 -0.0861,-0.03019 -0.15091,-0.0935 -0.22419,-0.14743 -0.10287,-0.07767 -0.16397,-0.177616 -0.25029,-0.268909 -0.0819,-0.0878 -0.16253,-0.174671 -0.24222,-0.265964 -0.0475,-0.05393 -0.10714,-0.09276 -0.14891,-0.151847 -0.0467,-0.06313 -0.0827,-0.135835 -0.13088,-0.197678 -0.0906,-0.115037 -0.20704,-0.23357 -0.33277,-0.311242 -0.0777,-0.04822 -0.15829,-0.09203 -0.23668,-0.140989 -0.0696,-0.04381 -0.0438,-0.04233 -0.0624,-0.104176 -0.0145,-0.04822 -0.0403,-0.0935 -0.0584,-0.140989 -0.0286,-0.07197 -0.0683,-0.169701 -0.13804,-0.207065 -0.0755,-0.04233 -0.16969,-0.02374 -0.24938,-0.05687 -0.0742,-0.03018 -0.11578,-0.07031 -0.12809,-0.145222 -0.009,-0.05448 -0.0201,-0.110618 -0.0321,-0.163811 -0.0109,-0.04454 -0.0683,-0.10068 -0.031,-0.140989 0.0353,-0.03884 0.11063,-0.05669 0.15462,-0.02797 0.0359,0.02301 0.0618,0.0589 0.0898,0.09276"
       style="fill:#21201d;fill-opacity:1;fill-rule:nonzero;stroke:none;stroke-width:0.184057"
       id="path598" />
    <path
       d="m 460.52274,-18.956212 c 0.007,-0.04822 0.0604,-0.130128 0.0955,-0.167492 0.0381,-0.0381 0.0547,-0.03387 0.10217,-0.04178 0.0396,-0.0072 0.0618,-0.01933 0.10565,-0.01804 0.0517,0.0015 0.10139,7.41e-4 0.15018,-0.01859 0.0626,-0.02301 0.11649,-0.06608 0.17981,-0.08927 0.0547,-0.0208 0.10714,0.0022 0.16549,0.0022 0.0854,0 0.14227,-0.03019 0.22271,-0.04951 0.046,-0.01012 0.0979,0.0087 0.14245,-0.0037 0.0258,-0.0064 0.0467,-0.03018 0.0712,-0.04307 0.0416,-0.02374 0.0827,-0.0208 0.12865,-0.03018 0.0236,-0.0059 0.0604,-0.0173 0.092,-0.02153 0.0646,-0.0074 0.13011,-0.0138 0.19121,-0.03608 0.0339,-0.01215 0.0596,-0.02503 0.0948,-0.02577 0.0339,-0.0015 0.0497,-0.0015 0.0784,-0.01454 0.0806,-0.03589 0.16471,-0.09129 0.22934,-0.150191 0.0388,-0.03736 0.0526,-0.0878 0.0878,-0.125896 0.0431,-0.04528 0.14743,-0.02871 0.20338,-0.03663 0.15903,-0.02153 0.30925,-0.08688 0.44581,-0.169702 0.11578,-0.06976 0.24885,-0.08614 0.37824,-0.123687 0.0532,-0.01565 0.10213,-0.03019 0.15092,-0.05743 0.0676,-0.03736 0.10711,-0.08559 0.15459,-0.145222 0.0712,-0.0935 0.15886,-0.173935 0.24444,-0.254552 0.0453,-0.04307 0.0935,-0.08411 0.13656,-0.128657 0.046,-0.04675 0.0821,-0.102152 0.12883,-0.145222 0.069,-0.06479 0.13731,-0.06184 0.22144,-0.09276 0.0475,-0.01657 0.0869,-0.02153 0.13508,-0.02871 0.12665,-0.01951 0.24444,-0.05043 0.37458,-0.05043 0.17262,7.41e-4 0.34731,-0.01141 0.48828,-0.117797 0.0381,-0.0289 0.0747,-0.05908 0.11282,-0.0878 0.0388,-0.02871 0.0871,-0.05172 0.11927,-0.08779 -0.0381,0.05338 -0.0488,0.107858 -0.0646,0.167676 0.0942,-0.06111 0.20927,-0.07123 0.30921,-0.115036 0.10492,-0.04822 0.21057,-0.09718 0.31916,-0.138779 0.12791,-0.0519 0.2595,-0.102152 0.39828,-0.108595 0.0661,-0.0044 0.12722,-0.01362 0.19199,-0.02227 0.0819,-0.01233 0.18404,-0.01657 0.26172,-0.0497 0.0547,-0.02374 0.1222,-0.02798 0.17889,-0.06037 0.0455,-0.02522 0.0849,-0.05964 0.13307,-0.07915 0.0346,-0.01436 0.0525,-0.02227 0.0755,-0.05246 0.0123,0.0094 0.0282,0.118717 0.0109,0.137307 -0.006,0.0066 -0.0482,0.0072 -0.0589,0.01086 -0.0648,0.01804 -0.12241,0.06258 -0.18848,0.08117 -0.0353,0.01012 -0.0668,0.01509 -0.0977,0.04031 -0.0187,0.02301 -0.0403,0.04528 -0.0633,0.06552 -0.0279,0.0099 -0.0561,0.01638 -0.0856,0.01932 -0.0317,0.0072 -0.0532,0.02227 -0.0804,0.03736 -0.0913,0.05172 -0.19714,0.07694 -0.29337,0.117245 -0.0423,0.01932 -0.0841,0.03515 -0.12866,0.04951 -0.0325,0.0037 -0.0641,0.0086 -0.0965,0.01527 -0.0891,0.02503 -0.16105,0.08467 -0.25234,0.107674 -0.10344,0.02669 -0.2588,-0.01509 -0.34365,0.07123 -0.0495,0.05043 -0.11648,0.09056 -0.18037,0.125895 -0.0512,0.02798 -0.0999,0.05246 -0.14965,0.08338 -0.12718,0.0797 -0.24073,0.177616 -0.36883,0.253816 -0.0113,-0.0086 -0.0366,-0.03884 -0.0495,-0.04325 -0.0511,-0.01215 -0.11151,0.08632 -0.1531,0.108595 -0.0562,0.0289 -0.11303,0.03019 -0.17339,0.03166 -0.0366,7.41e-4 -0.0525,0.005 -0.0876,0.0173 -0.0576,0.02006 -0.10069,0.01859 -0.16472,0.0173 -0.0258,0 -0.0547,-0.0044 -0.0792,0.0028 -0.0438,0.01362 -0.0804,0.06902 -0.12718,0.0705 -0.0258,7.4e-4 -0.0272,-0.02153 -0.0482,-0.02227 -0.0243,-0.0022 -0.0381,0.02522 -0.0532,0.03736 -0.0201,0.01583 -0.0416,0.01951 -0.0633,0.0324 -0.0453,0.03589 -0.0898,0.07252 -0.13511,0.110067 -0.0618,0.05246 -0.12866,0.09847 -0.20063,0.136571 -0.0296,0.005 -0.0502,-0.0022 -0.079,0.005 -0.0519,0.01362 -0.12809,0.07197 -0.17265,0.10565 -0.008,0.0064 -0.012,0.01435 -0.0152,0.02227 -0.0279,0.02025 -0.0569,0.0381 -0.0863,0.0554 -0.0913,0.05964 -0.17318,0.144486 -0.26815,0.194917 -0.0243,-0.07988 -0.10273,-0.0015 -0.14009,0.01712 -0.018,0.0086 -0.11151,0.0059 -0.10435,0.0052 -0.0633,0 -0.12516,0.0064 -0.18626,0.02006 -0.0342,0.01951 -0.0683,0.0381 -0.1027,0.05687 -0.1029,0.05816 -0.18775,0.172463 -0.30279,0.203385 -0.0525,0.01436 -0.0955,0.04252 -0.15166,0.05043 -0.13433,0.01933 -0.2667,0.06387 -0.4005,0.09479 -0.13216,0.03092 -0.26173,0.05393 -0.39314,0.07546 -0.10583,0.01583 -0.21368,0.01878 -0.32008,0.02172 -0.1143,0.0035 -0.20778,0.0243 -0.31767,0.05522 -0.1222,0.03534 -0.23873,0.08559 -0.36664,0.08485 -0.0296,0 -0.0705,-0.0079 -0.0992,-5.64e-4 -0.0243,0.005 -0.0418,0.02356 -0.0166,0.03589"
       style="fill:#21201d;fill-opacity:1;fill-rule:nonzero;stroke:none;stroke-width:0.184057"
       id="path600" />
    <path
       d="m 460.48817,-23.2801 c 0.005,7.41e-4 0.01,0.0013 0.013,0.0028 0.0166,0.09792 0.16969,0.08485 0.24017,0.08411 0.0648,0 0.12866,-7.41e-4 0.19346,0 0.0732,7.41e-4 0.11649,0.06626 0.15738,0.122214 0.044,0.05908 0.0791,0.122951 0.12019,0.184058 0.018,0.02743 0.0388,0.06829 0.0639,0.0878 0.0173,0.01362 0.0475,0.0173 0.069,0.0265 0.0282,0.01086 0.0532,0.01086 0.0799,0.01878 0.0293,0.0094 0.051,0.02871 0.0819,0.03387 0.0418,0.0072 0.0497,-0.0066 0.067,0.03442 0.009,0.02227 0.012,0.04749 0.0236,0.06902 0.0215,0.03884 0.0688,0.06681 0.0913,0.107122 0.0173,0.03092 0.0208,0.07049 0.0468,0.09994 0.0525,-0.02595 0.0696,-0.04822 0.13066,-0.04822 0.11579,7.41e-4 0.21425,0.0052 0.32798,0.04325 0.051,0.0173 0.069,0.04086 0.10068,0.0797 0.0339,0.03957 0.0683,0.04675 0.12002,0.06258 0.0423,0.01233 0.0848,0.0072 0.12866,0.0072 0.0425,0 0.0898,0.0064 0.13158,7.41e-4 0.0388,-0.005 0.0747,-0.01436 0.1143,-0.01804 0.0374,-0.002 0.0935,-0.0085 0.12866,-0.01712 0.0353,-0.0086 0.0662,-0.03884 0.0985,-0.05687 0.0455,-0.02577 0.0871,-0.05614 0.13381,-0.08043 0.0569,-0.0289 0.14027,-0.06184 0.20285,-0.02816 0.0416,0.02227 0.0646,0.101415 0.10195,0.136018 0.0339,0.03295 0.0784,0.06037 0.12093,0.08191 0.15166,0.08043 0.35081,0.120742 0.51538,0.0589 0.0841,-0.03166 0.16104,-0.08043 0.2444,-0.1143 0.0591,-0.02301 0.12167,-0.01583 0.18408,-0.01509 0.0791,7.41e-4 0.15459,-0.0029 0.23301,-0.01362 0.0268,-0.0037 0.051,-0.01013 0.0777,0.0015 0.069,0.02871 0.13162,0.111355 0.19272,0.153872 0.0547,0.03884 0.11356,0.06387 0.15956,0.113564 0.0339,0.03736 0.0683,0.05466 0.11211,0.07767 0.0418,0.02227 0.0777,0.06313 0.12164,0.08043 0.0353,0.01362 0.0604,0.0086 0.0955,0.02816 0.0653,0.03589 0.14817,0.04307 0.21996,0.0646 0.13603,0.04031 0.28272,0.0072 0.42203,0.02301 0.0841,0.0086 0.18203,0.02798 0.26617,0.01657 0.0661,-0.0094 0.10911,-0.08412 0.16894,-0.107858 0.051,-0.02227 0.1329,-0.0346 0.18758,-0.03663 0.0438,-0.0015 0.0826,0.01067 0.12368,0.02522 0.0489,0.01638 0.0883,0.04454 0.13508,0.0646 0.0396,0.01804 0.0705,0.01657 0.11303,0.01657 0.10858,-0.0015 0.24588,0.0797 0.35299,0.0173 -0.01,-0.01307 -0.0187,-0.01307 -0.0339,-0.02025 -0.0502,-0.02227 -0.097,-0.03884 -0.14298,-0.07325 -0.0261,-0.01951 -0.049,-0.04031 -0.0799,-0.05043 -0.0561,-0.01859 -0.11356,-0.01859 -0.16969,-0.04454 -0.0236,-0.0099 -0.0475,-0.02374 -0.0712,-0.03442 -0.092,-0.04454 -0.18535,-0.09921 -0.28328,-0.129392 -0.0466,-0.01381 -0.0848,-0.01307 -0.13215,-0.01307 -0.1108,0 -0.1984,-0.09056 -0.30847,-0.10565 -0.11652,-0.01509 -0.24518,-0.0015 -0.36166,-0.0015 -0.11727,0 -0.22437,-0.02945 -0.33151,-0.07252 -0.0653,-0.02669 -0.11705,-0.08135 -0.18478,-0.107122 -0.0589,-0.02448 -0.11928,-0.04325 -0.1789,-0.06626 -0.1259,-0.04804 -0.28254,-0.04307 -0.41412,-0.01215 -0.0482,0.01141 -0.0769,0.0086 -0.12591,0.01215 -0.10933,0.0064 -0.21569,0.01878 -0.32484,0.01878 -0.0526,0 -0.11447,0.0079 -0.16693,7.41e-4 -0.0243,-0.0037 -0.0388,-0.01657 -0.0611,-0.01951 -0.0445,-0.0057 -0.0955,7.41e-4 -0.14079,7.41e-4 -0.0512,0 -0.10859,0.0064 -0.15974,7.4e-4 -0.0567,-0.0072 -0.074,-0.04896 -0.1215,-0.06828 -0.0353,-0.01509 -0.0812,0.005 -0.11705,-7.41e-4 -0.0243,-0.0042 -0.0254,-0.0079 -0.0519,-0.02301 -0.0396,-0.02301 -0.0567,-0.02153 -0.094,-0.03166 -0.0254,-0.0057 -0.0663,-0.02227 -0.0878,-0.03884 -0.0353,-0.0265 -0.0353,-0.04675 -0.0799,-0.06534 -0.0552,-0.02301 -0.10421,-0.02871 -0.15811,-0.04749 -0.0468,-0.01657 -0.0777,-0.0381 -0.12718,-0.04031 -0.095,-0.005 -0.17339,0.01657 -0.26543,0.03534 -0.1452,0.02945 -0.34932,0.258785 -0.48387,0.104913 -0.0408,-0.04602 -0.0718,-0.08338 -0.1294,-0.109331 -0.10068,-0.04528 -0.1905,-0.109146 -0.28106,-0.168965 -0.0201,-0.01436 -0.0346,-0.03515 -0.0525,-0.05098 -0.0201,-0.01657 -0.0418,-0.02871 -0.0663,-0.03663 -0.0303,-0.0173 -0.0574,-0.0381 -0.0797,-0.06553 -0.0339,-0.02577 -0.0212,-0.01932 -0.0561,-0.02577 -0.0898,-0.0173 -0.1905,0.01288 -0.28329,-0.0015 -0.17466,-0.02669 -0.34508,-0.08632 -0.51699,-0.12295 -0.0517,-0.01086 -0.0955,-0.03019 -0.14799,-0.03092 -0.0821,-0.0037 -0.16475,0 -0.14171,0.0173"
       style="fill:#21201d;fill-opacity:1;fill-rule:nonzero;stroke:none;stroke-width:0.184057"
       id="path602" />
  </g>
</svg>
