<?xml version="1.0" encoding="UTF-8" standalone="no"?>
<!-- Created with Inkscape (http://www.inkscape.org/) -->

<svg
   width="7.4693198mm"
   height="6.9119mm"
   viewBox="0 0 7.4693198 6.9119"
   version="1.1"
   id="svg3022"
   inkscape:version="1.1.2 (0a00cf5339, 2022-02-04)"
   sodipodi:docname="z11.svg"
   xmlns:inkscape="http://www.inkscape.org/namespaces/inkscape"
   xmlns:sodipodi="http://sodipodi.sourceforge.net/DTD/sodipodi-0.dtd"
   xmlns="http://www.w3.org/2000/svg"
   xmlns:svg="http://www.w3.org/2000/svg">
  <sodipodi:namedview
     id="namedview3024"
     pagecolor="#ffffff"
     bordercolor="#666666"
     borderopacity="1.0"
     inkscape:pageshadow="2"
     inkscape:pageopacity="0.0"
     inkscape:pagecheckerboard="0"
     inkscape:document-units="mm"
     showgrid="false"
     inkscape:zoom="0.64052329"
     inkscape:cx="-1172.4788"
     inkscape:cy="-120.99482"
     inkscape:window-width="2560"
     inkscape:window-height="1376"
     inkscape:window-x="0"
     inkscape:window-y="0"
     inkscape:window-maximized="1"
     inkscape:current-layer="layer1" />
  <defs
     id="defs3019" />
  <g
     inkscape:label="Layer 1"
     inkscape:groupmode="layer"
     id="layer1"
     transform="translate(-415.12373,-180.36231)">
    <path
       d="m 418.78898,183.73297 c -0.11503,0 -0.20853,-0.0928 -0.20853,-0.20706 0,-0.11504 0.0935,-0.20707 0.20853,-0.20707 0.1143,0 0.2078,0.092 0.2078,0.20707 0,0.1143 -0.0935,0.20706 -0.2078,0.20706 m 2.01026,-0.64641 c -0.59468,0 -1.1209,0.16473 -1.44723,0.24737 -0.0195,-0.0109 -0.0403,-0.0208 -0.0598,-0.0294 -0.0381,-0.0158 -0.0782,-0.0274 -0.11429,-0.0453 -0.0359,-0.0611 -0.0856,-0.11301 -0.14449,-0.15185 -0.0272,-0.0567 -0.0453,-0.12148 -0.0661,-0.18406 0.0898,-0.32413 0.26026,-0.85255 0.26026,-1.45148 0,-0.40419 -0.13878,-0.7758 -0.18332,-1.07563 -10e-4,0.004 -0.004,0.009 -0.004,0.0129 0,-0.0129 0,-0.025 0,-0.0388 0,-0.003 -7e-4,-0.006 -0.001,-0.008 -0.026,0.0812 -0.0403,0.16676 -0.0418,0.25234 -0.0121,-0.067 -0.0374,-0.1316 -0.0732,-0.18921 -0.0195,0.13804 -0.0252,0.27756 -0.018,0.41634 -7.1e-4,-0.072 -0.0201,-0.14301 -0.0576,-0.20412 -0.004,0.0639 -0.008,0.12866 -0.0136,0.19271 -0.007,-0.0309 -0.0158,-0.0613 -0.023,-0.092 l 0.004,1.00496 c -0.008,-0.0611 -0.0151,-0.12222 -0.0223,-0.18406 -0.007,0.0705 -0.0138,0.14172 -0.0203,0.21222 -0.0646,-0.23725 -0.0841,-0.48831 -0.0559,-0.73274 -0.0331,0.0821 -0.0534,0.16897 -0.0598,0.25676 -0.003,-0.22583 -0.006,-0.45075 -0.008,-0.67733 -0.0381,0.11228 -0.0604,0.2286 -0.0668,0.34732 0.001,0.0374 7e-4,0.0762 -0.002,0.1143 -7.1e-4,-0.0381 0,-0.0769 0.002,-0.1143 -10e-4,-0.0359 -0.005,-0.0712 -0.0101,-0.10639 -0.0215,0.12148 -0.0329,0.24443 -0.0344,0.36812 0.006,0.0431 0.007,0.0861 0.003,0.13013 -0.003,-0.044 -0.003,-0.0871 -0.003,-0.13013 -0.001,-0.0136 -0.004,-0.0267 -0.007,-0.0411 0.0114,0.0547 -0.0747,0.21001 -0.0985,0.26026 -0.009,-0.0179 -0.0173,-0.0374 -0.026,-0.0574 -7e-4,0.028 -7e-4,0.0552 -7e-4,0.0834 0,0.32487 0.0151,0.64991 0.0569,0.97128 0.0166,0.12369 0.048,0.24443 0.0631,0.36738 0.0138,0.11006 -0.005,0.2251 -0.0236,0.33719 -0.002,0.003 -0.005,0.004 -0.007,0.006 -0.008,0.008 -0.0171,0.0166 -0.025,0.0252 -0.0295,0.0302 -0.0547,0.0648 -0.0747,0.10289 -0.0764,0.002 -0.15185,0.002 -0.22804,0 -0.32855,-0.0806 -0.83028,-0.1316 -1.39405,-0.1316 -0.33148,0 -0.64125,0.0173 -0.9074,0.048 0.006,0.004 0.0131,0.009 0.018,0.0138 -0.0445,0.0431 -0.14098,0.0351 -0.20135,0.0431 0.0109,0.002 0.021,0.002 0.0316,0.004 -0.10215,0.008 -0.20412,0.0243 -0.30332,0.0532 0.14669,0.0186 0.29393,0.0374 0.43989,0.056 -0.0265,0 -0.0539,0 -0.0819,0 0.11651,0.006 0.23081,0.0331 0.33793,0.0784 -0.1373,-0.003 -0.27388,0.003 -0.40989,0.018 0.0166,0.005 0.0331,0.01 0.0497,0.0158 -0.0626,0 -0.12516,0 -0.18847,0 0.026,0.009 0.0519,0.0158 0.0784,0.0237 0.0339,0.0265 0.0777,0.0409 0.12092,0.0394 0.051,0.0339 0.11356,0.0512 0.17394,0.0475 -0.0445,0 -0.0885,0 -0.13308,0 0.0166,0.008 0.0353,0.0144 0.0539,0.018 0.0195,0 0.0381,0 0.0569,0.002 -0.0188,0.002 -0.0381,0.002 -0.0569,-0.002 -0.0554,0 -0.11062,0.006 -0.16528,0.0158 0.0258,0.0179 0.0574,0.028 0.0891,0.0294 -0.13878,0.0144 -0.28031,-0.002 -0.41339,-0.0445 -0.0683,0.0366 -0.16473,-0.002 -0.23945,0.0322 0.27258,0.12663 0.9096,0.32652 1.65006,0.32652 0.58382,0 1.10084,-0.16602 1.42864,-0.25161 0.074,0.0158 0.16105,-0.0173 0.21921,0.0317 0.0287,0.0243 0.041,0.0639 0.0504,0.10049 0.0208,0.0764 0.0409,0.15185 0.0624,0.22805 -0.0775,0.32633 -0.24001,0.83618 -0.24001,1.40841 0,0.98784 0.26026,1.78812 0.44358,1.78812 0.18331,0 0.38743,-0.80028 0.38743,-1.78812 0,-0.50468 -0.0769,-0.95912 -0.1524,-1.28343 0.007,-0.0711 0.0158,-0.14228 0.0302,-0.21204 0.0101,-0.0445 0.021,-0.0906 0.0445,-0.13013 0.007,-0.0109 0.0153,-0.0215 0.0274,-0.0272 0.0158,-0.009 0.0374,-0.005 0.0554,-0.008 0.028,-0.004 0.0503,-0.023 0.0676,-0.046 0.10067,-0.003 0.20062,-0.013 0.3013,-0.0252 0.32633,0.0641 0.78868,0.10344 1.30127,0.10344 0.99004,0 1.79234,-0.14724 1.79234,-0.33056 0,-0.18278 -0.8023,-0.4423 -1.79234,-0.4423"
       style="fill:#21201d;fill-opacity:1;fill-rule:evenodd;stroke:none;stroke-width:0.184057"
       id="path590" />
  </g>
</svg>
