<?xml version="1.0" encoding="UTF-8" standalone="no"?>
<!-- Created with Inkscape (http://www.inkscape.org/) -->

<svg
   width="7.590682mm"
   height="8.5403805mm"
   viewBox="0 0 7.590682 8.5403805"
   version="1.1"
   id="svg3506"
   inkscape:version="1.1.2 (0a00cf5339, 2022-02-04)"
   sodipodi:docname="z3.svg"
   xmlns:inkscape="http://www.inkscape.org/namespaces/inkscape"
   xmlns:sodipodi="http://sodipodi.sourceforge.net/DTD/sodipodi-0.dtd"
   xmlns="http://www.w3.org/2000/svg"
   xmlns:svg="http://www.w3.org/2000/svg">
  <sodipodi:namedview
     id="namedview3508"
     pagecolor="#ffffff"
     bordercolor="#666666"
     borderopacity="1.0"
     inkscape:pageshadow="2"
     inkscape:pageopacity="0.0"
     inkscape:pagecheckerboard="0"
     inkscape:document-units="mm"
     showgrid="false"
     inkscape:zoom="0.64052329"
     inkscape:cx="685.37711"
     inkscape:cy="526.91293"
     inkscape:window-width="2560"
     inkscape:window-height="1376"
     inkscape:window-x="0"
     inkscape:window-y="0"
     inkscape:window-maximized="1"
     inkscape:current-layer="layer1" />
  <defs
     id="defs3503" />
  <g
     inkscape:label="Layer 1"
     inkscape:groupmode="layer"
     id="layer1"
     transform="translate(76.496253,-8.94814)">
    <path
       d="m -70.678008,13.122357 c -0.02078,-0.02575 -0.04399,-0.04804 -0.06479,-0.07325 -0.02374,0.0035 -0.0302,0.03443 -0.03957,0.05172 -0.01933,0.03884 -0.04601,0.0727 -0.06902,0.109329 -0.02649,0.04031 -0.04878,0.08191 -0.06387,0.12645 -0.0052,0.0151 -0.0079,0.05614 -0.02226,0.06847 -0.03461,-0.03607 -0.0519,-0.08062 -0.07694,-0.122396 -0.0086,-0.0151 -0.03461,-0.06829 -0.05614,-0.06534 -0.03387,0.04528 -0.03663,0.106384 -0.0819,0.148167 -0.0072,-0.03534 -0.01013,-0.07123 -0.01379,-0.107121 -0.023,-0.0059 -0.05098,0.04528 -0.0646,0.06111 -0.0381,0.04602 -0.07988,0.08909 -0.118713,0.1351 -0.03369,0.03884 -0.06185,0.07915 -0.08688,0.12295 -0.0086,0.0151 -0.01803,0.03313 -0.03313,0.04178 0.01436,-0.05117 0.04822,-0.09718 0.07399,-0.1432 0.01584,-0.02872 0.03094,-0.05669 0.04602,-0.08485 0.0059,-0.01658 0.01013,-0.03295 0.01087,-0.05025 0.0042,-0.0065 0.0072,-0.01362 0.0094,-0.02155 0,-0.01013 -0.0037,-0.01803 -0.01161,-0.02448 -7.05e-4,-0.0151 0.0094,-0.02025 0.01584,-0.03164 0.0079,-0.01436 0.01288,-0.03164 0.023,-0.04528 0.01658,-0.02155 0.03957,-0.02946 0.06037,-0.04602 0.0727,-0.05761 0.148167,-0.163258 0.163996,-0.256758 0.01087,-0.06534 0.02152,-0.132154 0.03514,-0.197679 0.0059,-0.02872 0.0028,-0.0589 0.01012,-0.08633 0.01087,-0.03663 0.01013,-0.07252 0.02155,-0.110617 0.01231,-0.04178 0.0052,-0.08485 0.01362,-0.127371 0.0059,-0.02575 0.02247,-0.0473 0.0302,-0.07252 0.0028,-0.02007 0.0086,-0.03957 0.01803,-0.05761 0.01161,-0.02007 0.02226,-0.04012 0.03164,-0.0611 0.005,-0.01933 7.06e-4,-0.04307 7.06e-4,-0.06313 -0.0014,0.07031 0.03589,0.11927 0.0532,0.172462 0.01087,0.03313 0.01803,0.0762 0.03589,0.106387 0.01584,0.02596 0.02815,0.0497 0.0302,0.08209 0.0037,0.06111 0.01305,0.119271 0.05264,0.169517 0.04233,0.0532 0.05246,0.111541 0.06755,0.174854 0.0099,0.0416 0.023,0.08117 0.03884,0.120745 0.0151,0.03736 0.03589,0.07123 0.0416,0.111355 0.0072,0.04675 0.0065,0.09718 0.01584,0.143933 -0.04307,-0.01436 -0.06976,-0.06405 -0.097,-0.09792 m -1.895962,-0.632605 c 0,-0.01658 -7.05e-4,-0.03094 -0.0014,-0.04675 -0.0021,-0.01584 -0.005,-0.0302 -0.0072,-0.04601 -7.05e-4,-0.02798 -0.0028,-0.0554 -0.0079,-0.08264 -0.0094,-0.03387 -0.02152,-0.06553 -0.03589,-0.09645 -0.01877,-0.04675 -0.03589,-0.09405 -0.04896,-0.143013 -0.0035,-0.02226 -0.01139,-0.04454 -0.02522,-0.06332 -0.01637,-0.02081 -0.0438,-0.02946 -0.06166,-0.04951 -0.01729,-0.01803 -0.03755,-0.03884 -0.05117,-0.05835 -0.0079,-0.01711 -0.01362,-0.03514 -0.01658,-0.05319 7.06e-4,-0.0151 -0.07178,-0.02448 -0.08688,-0.02724 -0.04252,-0.03238 -0.01729,-0.067 -0.05466,-0.104362 -0.02741,-0.02798 -0.05835,-0.04804 -0.0935,-0.06313 -0.01877,-0.0079 -0.04307,-0.0151 -0.06331,-0.01803 -0.02872,0.08411 -0.01436,0.193443 -0.01362,0.279767 v 0.33425 c 0,0.12295 -0.0065,0.249396 7.06e-4,0.373821 -0.0094,-0.09277 -0.02724,-0.188292 -0.05172,-0.27885 -0.01877,-0.06902 -0.04528,-0.133808 -0.0762,-0.19915 -0.01729,-0.03828 -0.04749,-0.112275 -0.08485,-0.142458 -0.04528,0.07841 -0.04749,0.165283 -0.07197,0.249579 -0.02596,-0.03681 -0.03883,-0.07841 -0.04748,-0.12295 -0.01288,-0.06626 -0.03094,-0.143196 -0.023,-0.210008 -0.0057,0.07399 -0.03239,0.143749 -0.03514,0.217187 -0.0037,0.06608 -7.06e-4,0.222158 -0.0021,0.199888 -0.0035,-0.05043 -0.0086,-0.10068 -0.01658,-0.150375 -0.0099,-0.06902 -0.02501,-0.14743 -0.05245,-0.212034 -0.01288,-0.03164 -0.04031,-0.06111 -0.04749,-0.09498 -0.0042,-0.01859 -0.0014,-0.03884 -7.05e-4,-0.05742 7.05e-4,-0.023 0.0021,-0.04675 -7.06e-4,-0.06976 -0.02173,0.02797 -0.03884,0.06037 -0.05835,0.08982 -0.01859,0.02872 -0.03369,0.06552 -0.05816,0.08853 -0.04031,-0.03238 -0.08282,-0.06626 -0.120188,-0.10215 -0.02575,-0.02448 -0.04528,-0.05761 -0.07325,-0.07915 -0.023,0.0086 -0.08062,0.0267 -0.09056,0.04822 -0.0094,0.02226 -0.02522,0.03737 -0.03737,0.05816 -0.01161,0.02099 -0.0066,0.0151 -0.01658,0.04031 -0.02099,0.05393 -0.07197,0.08909 -0.112275,0.126633 -0.03295,0.03147 -0.06184,0.06608 -0.09276,0.09976 -0.01214,-0.0302 0.02244,-0.08908 0.03239,-0.110617 0.01305,-0.02741 0.02596,-0.05964 0.04528,-0.08412 0.02963,-0.03883 0.04822,-0.06258 0.06626,-0.107858 0.02505,-0.06552 0.07105,-0.119267 0.107121,-0.17835 0.03295,-0.05319 0.03957,-0.110621 0.06681,-0.163813 0.01214,-0.02448 0.02667,-0.04325 0.03514,-0.07049 0.0086,-0.02872 0.0094,-0.05964 0.01729,-0.08927 0.0079,-0.03295 0.02741,-0.05816 0.04178,-0.08614 0.023,-0.04749 0.04086,-0.100679 0.06258,-0.151112 0.01288,-0.02946 0.0302,-0.05098 0.03147,-0.08264 0.0044,-0.06902 0.02247,-0.138779 0.03681,-0.2078 0.01711,-0.07896 0.0014,-0.160316 0.023,-0.236516 0.0079,-0.0302 0.02007,-0.06405 0.02374,-0.09497 7.05e-4,-0.0085 -0.0037,-0.01637 0,-0.02431 0.0085,-0.0267 0.05246,-0.05982 0.06902,-0.08338 0.02431,-0.03828 0.04675,-0.07638 0.0762,-0.110066 0.01584,-0.01803 0.03443,-0.03313 0.04601,-0.0554 0.0057,-0.01214 0.01933,-0.08117 0.03369,-0.08485 0.0065,-0.02448 0.01658,-0.03957 0.02152,-0.05319 0.01379,-0.03589 0.01087,-0.0762 0.02596,-0.1106205 -7.06e-4,0.035172 -0.0079,0.078224 0.0065,0.1120915 0.0151,0.03663 0.02667,0.07399 0.04325,0.110621 0.03221,0.07344 0.04601,0.148166 0.06828,0.224366 0.02501,0.08853 0.07546,0.171175 0.127184,0.247375 0.08779,0.127917 0.117242,0.243692 0.185529,0.383942 0.01584,0.03313 0.03094,0.07841 0.0554,0.106387 0.01214,0.0151 0.02946,0.02152 0.03736,0.04031 0.0028,0.02226 0.0065,0.0438 0.01069,0.06534 0.0052,0.02946 0.01235,0.05835 0.02099,0.08559 0.01362,0.04528 0.04307,0.08338 0.05025,0.129392 0.0079,0.04454 0.0151,0.08853 0.02374,0.133074 0.0065,0.02946 0.0072,0.07178 0.02671,0.09626 0.0042,0.0044 0.01362,0.0079 0.01584,0.01161 0.03073,0.0646 0.103441,0.143016 0.122766,0.213508 0.0497,0.176879 0.07491,0.3602 0.07915,0.544258 0.0021,0.0151 0.0037,0.0302 0.0014,0.04675 m 3.667503,2.135254 c -0.05043,-0.0057 -0.107121,0.02741 -0.151109,-0.005 -0.06111,-0.0438 -0.104176,-0.113562 -0.135834,-0.179087 -0.04307,-0.09258 -0.08043,-0.188292 -0.120742,-0.282529 -0.06552,-0.1524 -0.142275,-0.311242 -0.199146,-0.468059 -0.01436,-0.04602 -0.02946,-0.09203 -0.04454,-0.137308 -0.0086,-0.03514 -0.01658,-0.07105 -0.02448,-0.107121 -0.02226,-0.04951 -0.06184,-0.09553 -0.09277,-0.141542 -0.04822,-0.06902 -0.08908,-0.149637 -0.144484,-0.214979 -0.01288,0.0151 -0.02946,0.02081 -0.04896,0.01658 -0.03094,0.0079 -0.04951,-0.0074 -0.05595,-0.04546 -0.06184,-0.09405 -0.08135,-0.209091 -0.116509,-0.315475 -0.04031,0.02007 -0.04325,0.08264 -0.06331,0.12295 -0.03663,-0.08779 -0.06681,-0.171912 -0.117979,-0.251791 -0.0302,0.02025 -0.0473,0.04896 -0.05246,0.08559 -0.01785,0.05117 -0.04031,0.101417 -0.06681,0.148904 -0.05319,-0.02872 -0.07693,-0.07915 -0.07049,-0.148167 -0.0086,-0.02723 -0.01288,-0.05467 -0.01362,-0.08338 -0.0044,-0.01803 -0.0065,-0.0727 -0.03461,-0.06332 -0.0042,0.02596 -0.0085,0.05117 -0.01288,0.07694 -0.02448,-0.130129 -0.02596,-0.262466 -0.04527,-0.393149 -0.01087,-0.07197 -0.03663,-0.21498 -0.10933,-0.260442 -0.01362,0.05043 -0.023,0.100679 -0.03443,0.151849 -0.03607,-0.142462 -0.03607,-0.28842 -0.04454,-0.433641 -0.01584,-0.01933 -0.02596,-0.04454 -0.03313,-0.07178 -0.06828,-0.03681 -0.110066,-0.125896 -0.08559,-0.19915 l 0.02797,-0.08283 c -0.02575,-0.0913 -0.06037,-0.17817 -0.109883,-0.264491 -0.0037,-0.0037 -0.0079,-0.0065 -0.01161,-0.01012 -0.01069,0.06976 -0.03094,0.140988 -0.05742,0.212771 -0.01877,0.04896 -0.04822,0.08135 -0.08283,0.100679 7.06e-4,0.06552 0.0021,0.132338 -0.0072,0.193446 -0.02226,-0.03443 -0.0381,-0.06681 -0.05246,-0.104913 -0.0057,-0.01584 -0.0079,-0.02889 -0.02081,-0.0381 -0.01362,0.03957 -0.0151,0.08043 -0.005,0.123688 -7.05e-4,0.07694 -0.0044,0.153687 -0.01235,0.230625 -0.0072,0.06405 -0.01139,0.128104 -0.01362,0.191971 0.0037,0.02741 0.0042,0.05467 0.0042,0.08282 0,0.03737 -0.01139,0.07252 -0.03589,0.106387 -0.0611,0.159579 -0.120004,0.319892 -0.180371,0.480208 -0.0302,0.09129 -0.05908,0.181296 -0.07344,0.276822 -0.01436,-0.01214 -0.02226,-0.02946 -0.02226,-0.05098 -0.01658,-0.0381 -0.03369,-0.0762 -0.05098,-0.113563 -0.04822,-0.111541 -0.08411,-0.227312 -0.141722,-0.335908 -0.04307,-0.06755 -0.08687,-0.133625 -0.1316,-0.201175 -0.03884,-0.05614 -0.07473,-0.115033 -0.104175,-0.177616 -0.01933,-0.03461 -0.023,-0.067 -0.04454,-0.03883 -0.0302,-0.03663 -0.05246,-0.07694 -0.08338,-0.112275 -0.023,0.02596 -0.04675,-0.03369 -0.05117,-0.04307 -0.01859,-0.04233 -0.02946,-0.08411 -0.02797,-0.129391 -0.02522,0.07767 -0.0554,0.153871 -0.08191,0.232279 -0.023,0.06829 -0.03681,0.138779 -0.05687,0.207804 -0.03094,-0.06111 -0.03884,-0.124425 -0.0416,-0.191975 -0.0014,-0.03534 -0.0028,-0.0497 -0.02173,-0.07915 -0.02575,-0.04178 -0.04454,-0.0935 -0.05595,-0.142458 -0.0079,-0.03589 0.0035,-0.07325 -0.0059,-0.107121 -0.0042,-0.01584 -0.01785,-0.03369 -0.02505,-0.04878 -0.0381,-0.08264 -0.0611,-0.170437 -0.107121,-0.250317 -0.01877,0.01729 -0.0302,0.04823 -0.04325,0.06902 -0.02226,0.03461 -0.04749,0.067 -0.07473,0.09718 -0.0079,-0.067 -0.02152,-0.134546 -0.03387,-0.198412 -0.0057,-0.03387 -0.01288,-0.06626 -0.02357,-0.09921 -0.01086,-0.01235 -0.01803,-0.02741 -0.02173,-0.04473 -0.0086,-0.03663 -0.0114,-0.07473 -0.023,-0.109883 -0.0057,-0.01951 -0.0086,-0.05319 -0.03369,-0.04749 -0.02596,-0.06755 -0.03461,-0.135834 -0.05117,-0.205592 -0.0035,-0.01658 -0.0099,-0.06332 -0.03663,-0.04252 -0.03589,-0.05393 -0.02155,-0.1524 -0.02081,-0.214979 0,-0.04951 0.02374,-0.1524 -0.01086,-0.1905 -0.01859,0.02226 -0.04233,0.0381 -0.07031,0.04749 -0.02374,-0.04105 -0.02247,-0.08062 -0.03037,-0.12663 -0.0021,-0.01785 -0.0021,-0.03939 -0.0151,-0.023 -0.0057,-0.05448 -0.0072,-0.108412 -0.01584,-0.163075 -0.0079,-0.04749 -0.01933,-0.094975 -0.02226,-0.1439334 -0.02505,-0.00497 -0.05963,0.2295204 -0.06313,0.2517914 -0.04472,-0.05393 -0.0554,-0.138045 -0.07123,-0.2050413 0,-0.00212 -7.06e-4,-0.00571 -0.0014,-0.0079 0.0057,-0.1084086 0.01877,-0.2184753 0.02152,-0.3270709 0.0014,-0.043067 0.0028,-0.08485 7.06e-4,-0.1279172 l 0.0057,-0.046754 c 7.05e-4,-0.023742 -0.01069,-0.041042 -0.03589,-0.050429 -0.05393,-0.048775 -0.105646,-0.098471 -0.157367,-0.1494543 -0.05466,-0.060371 -0.09571,-0.097 -0.09792,-0.1704376 -7.06e-4,-0.010125 0.0014,-0.020814 0.0014,-0.031644 0,-0.045279 -0.0094,-0.08835 -0.0114,-0.1336287 -0.0554,0.047304 -0.06829,0.1316037 -0.103625,0.1927084 -0.0057,0.00921 -0.01143,0.00995 -0.01288,0.020073 -0.0037,0.01584 0.0086,0.037366 0.01013,0.054666 0.0014,0.012876 0,0.027234 -0.0021,0.040308 -0.0079,0.012135 -0.01362,0.027234 -0.01584,0.041596 -0.01214,0.041783 -0.02152,0.084854 -0.02798,0.1279207 -0.01658,0.067733 -0.02889,0.1481667 -0.07123,0.2057788 -0.01161,0.015099 -0.02741,0.027975 -0.03461,0.045275 -0.0151,0.03369 -0.01143,0.089821 -0.01637,0.1244247 -0.0059,0.034431 -0.01235,0.066075 -0.02741,0.097 -0.01658,0.033126 -0.04104,0.063317 -0.06037,0.094788 -0.0037,0.015099 -0.01161,0.02667 -0.02448,0.033867 -0.0035,0.0044 -0.0086,0.0057 -0.01288,0.0044 -0.02025,0.02579 -0.03239,0.05172 -0.05319,0.07822 -0.05614,0.0727 -0.10068,0.158291 -0.142459,0.240195 -0.02226,0.03884 -0.04086,0.07915 -0.05595,0.121479 -0.0028,0.01436 -0.0086,0.02741 -0.01877,0.03884 -0.02078,-0.0057 -0.01729,-0.02798 -0.02596,-0.04454 -0.005,0.0992 -7.06e-4,0.198413 -0.0014,0.298358 -7.06e-4,0.02723 0.0042,0.104913 -0.02448,0.130126 -0.0086,0 -0.01729,-0.0037 -0.02448,-0.0086 -0.03313,0.06681 -0.01362,0.139516 -0.02522,0.211483 -0.0035,0.02007 -0.0035,0.04804 -0.01362,0.06755 -0.01729,0.0014 -0.03313,0 -0.04951,-0.0028 -0.02173,0.01235 -0.03164,0.0309 -0.03164,0.05614 -0.02667,0.09921 -0.04031,0.201359 -0.06331,0.301304 -0.02946,0.125712 -0.04454,0.25805 -0.08559,0.380263 -0.03387,-0.0381 -0.05172,-0.08264 -0.09626,-0.107858 -0.02025,0.05687 -0.03608,0.115774 -0.05835,0.171174 -0.0028,0.0099 -0.0114,0.04528 -0.023,0.05098 -0.0079,-0.0057 -0.01362,-0.01436 -0.01785,-0.02374 -0.01161,0.04896 -0.01161,0.09994 -0.02025,0.149638 -0.0057,0.02797 -0.01214,0.05393 -0.01288,0.0819 -7.05e-4,0.0532 -0.01161,0.116512 0.02078,0.162525 -0.0094,7.05e-4 -0.01729,0 -0.02575,-0.0014 -0.03957,0.0935 -0.06553,0.199884 -0.123687,0.285471 -0.05982,0.08761 -0.101413,0.182587 -0.140251,0.281795 -0.05025,-0.01877 -0.08853,-0.08191 -0.122212,-0.121479 -0.04601,-0.05393 -0.09056,-0.109329 -0.140988,-0.159579 -0.0042,0.01143 0.0021,0.02152 0,0.03369 -0.02374,-0.04233 -0.03443,-0.112829 -0.06976,-0.145221 -0.0042,0.0309 -0.005,0.06184 -7.05e-4,0.09276 7.05e-4,0.120742 0,0.241671 -0.0028,0.362413 -0.0028,0.06387 -0.0014,0.09773 -0.01803,0.149454 -0.01785,0.05687 -0.03094,0.117246 -0.04601,0.175408 -0.02798,0.111538 -0.06902,0.220867 -0.08835,0.333696 -0.02099,-0.0079 -0.03736,-0.02522 -0.05761,-0.03239 -0.01658,0.08062 -0.04031,0.158842 -0.06387,0.237987 -0.0151,0.05043 -0.02963,0.137309 -0.06552,0.181113 -0.01859,0.02374 -0.01933,0.02173 -0.05098,0.02099 -0.01436,0 -0.0381,-0.0065 -0.05191,-0.0021 -0.02431,0.0079 -0.02356,0.02448 -0.03147,0.04969 -0.01013,0.03295 -0.02963,0.06608 -0.02671,0.101967 -0.05467,0.0028 -0.108592,0.0014 -0.163258,-0.0065 -0.03221,-0.0065 -0.06313,-0.0057 -0.09332,0.005 -0.02963,0.01658 -0.03387,0.05761 -0.0611,0.07638 -0.03312,0.02152 -0.03534,0.01711 -0.05264,0.07325 -0.0151,0.05246 -0.02575,0.10565 -0.03369,0.159579 0.01069,0.03094 0.005,0.05172 -0.01584,0.06111 -0.01729,-0.03736 -0.02596,-0.02152 -0.0438,0.01086 -0.04178,0.07252 -0.07693,0.150192 -0.110067,0.227863 -0.03094,0.07197 -0.09055,0.166021 -0.07196,0.247375 l 0.138042,-0.1143 c -0.03957,0.03663 -0.07841,0.07399 -0.119271,0.108595 -0.03461,0.02872 -0.03164,0.07693 -0.07344,0.101967 0.0037,0.04399 0.04178,0.08338 0.07767,0.10565 0.02522,0.01658 0.0309,0.023 0.04823,0.04822 0.01654,0.02448 0.0381,0.04528 0.05614,0.06682 0.01139,0.01305 0.02374,0.02244 0.03663,0.0309 0.0035,0.02099 0.0094,0.04178 0.01803,0.06184 0.01362,0.02889 0.01214,0.0309 0.04454,0.03884 0.05467,0.01379 0.107121,0.02889 0.158841,0.04822 0.0028,0.03884 -0.04528,0.07767 -0.03514,0.113566 0.0021,0.01087 0.03147,0.0381 0.03736,0.04454 0.06608,0.07344 0.161051,0.108592 0.237247,0.1697 0.01584,0.02226 0.03295,0.04454 0.05025,0.06405 0.0611,0.0646 0.161046,0.127184 0.235959,0.170438 0.04657,0.02649 0.06957,0.03164 0.107121,0.03164 0.0035,0.0035 0.0077,0.0072 0.01069,0.01069 -0.0021,0.0151 -7.06e-4,0.0302 0.0037,0.04454 0.01069,0.04749 0.04878,0.0381 0.08982,0.04601 0.01933,0.0044 0.03884,0.01086 0.05743,0.01803 0.02963,0.0094 0.05908,0.01584 0.09,0.02081 0.0309,0.023 0.06184,0.04675 0.09203,0.0705 0.03663,0.02078 0.06828,0.04601 0.09405,0.07767 0.0309,0.03387 0.06976,0.03514 0.107121,0.05816 0.05043,0.0309 0.0935,0.08062 0.136017,0.120925 0.03736,0.03663 0.07694,0.07105 0.118534,0.102704 0.02025,0.02872 0.04675,0.04454 0.07841,0.04749 0.0065,-0.02007 0.01436,-0.01143 0.03313,-0.02007 0.02575,-0.0094 0.04951,-0.03387 0.05743,-0.05982 0.02374,0.0094 0.02522,0.04601 0.03663,0.06405 0.0021,0.0057 0.01161,0.0065 0.01379,0.01235 0.0072,0.0151 -0.0028,0.04454 0.0057,0.05669 0.01087,0.0151 0.06332,0.01288 0.07546,0.01436 0.04454,0.0037 0.08908,0.01161 0.132338,0.023 0.01288,0.0072 0.02649,0.01436 0.03957,0.02099 0.01214,0.02357 -0.0065,0.06387 0.03443,0.0646 0.0014,0.0072 0.0028,0.01288 0.0044,0.01951 0.01436,0.005 0.02872,0 0.0438,0.0035 l 0.0094,0.0094 c 0.02431,0.0151 0.05098,0.02152 0.07896,0.02226 0.02099,-0.0042 0.03681,0 0.04823,0.0151 0.0014,0.0072 0.0065,0.01087 0.01288,0.01012 0.03313,0.0099 0.03313,-0.0044 0.06055,0.02374 0.02798,0.02798 0.05098,0.02431 0.08264,0.04454 0.02797,0.01859 0.05172,0.04454 0.08264,0.06037 0.0028,0.0035 0.0057,0.0086 0.0079,0.01288 0.0072,0.0037 0.0151,0.0044 0.023,0.0014 0.02374,0.0037 0.02872,0 0.04822,0.01288 0.05025,0.03239 0.07896,0.04896 0.141538,0.04675 0.01584,-7.05e-4 0.03663,-0.0035 0.05319,-0.0014 0.03094,0.0037 0.05043,0.0309 0.08061,0.03387 0.02798,0.0028 0.04086,-0.01803 0.06608,-0.0021 0.01231,0.02173 0.0302,0.03461 0.05466,0.04031 l 0.03957,-0.0014 c 0.01288,-0.01288 0.02797,-0.01436 0.04528,-0.0065 0.04454,0.02522 0.08908,0.05172 0.1316,0.08135 0.01288,0.0057 0.02448,0.01069 0.03736,0.01637 0.02723,-0.01213 0.05098,-0.0302 0.07252,-0.05172 0.05319,-0.04105 0.06258,-0.04896 0.120925,-0.02448 0.03443,0.0151 0.06902,0.02946 0.104175,0.04325 0.05172,0.0151 0.102888,0.01288 0.153134,-0.0079 0.06258,-0.01584 0.08632,-0.02667 0.145954,-0.02596 0.0079,0 0.01658,7.06e-4 0.02596,0.0014 0.0302,0.02522 0.06534,0.04381 0.104175,0.0554 0.08632,0.03369 0.179088,0.0099 0.27038,0.03443 0.04307,0.01161 0.07693,0.03534 0.117242,0.0497 0.03147,0.0092 0.0624,0.0035 0.09332,-0.0151 0.08779,-0.03957 0.171171,-0.08485 0.251788,-0.137308 0.134362,-0.07915 0.265225,-0.164733 0.391858,-0.256025 0.140067,-0.101417 0.278843,-0.204121 0.417622,-0.306271 0.02374,-0.0072 0.04675,-0.01436 0.06976,-0.02152 0.0381,0.0114 0.0762,0.01711 0.115771,0.01711 0.124422,-0.02007 0.234305,-0.149458 0.319151,-0.223449 0.04399,-0.0381 0.08853,-0.07767 0.133075,-0.116509 0.03517,-0.04178 0.04951,-0.04749 0.04381,-0.01803 0.04969,-0.0589 0.09276,-0.12295 0.130129,-0.1905 0.0611,-0.102887 0.132334,-0.196204 0.214242,-0.281054 0.103621,-0.115775 0.217184,-0.220871 0.337926,-0.317133 0.06755,-0.05319 0.1316,-0.09921 0.187737,-0.166021 0.06037,-0.07049 0.109146,-0.159762 0.155896,-0.241667 0.04601,-0.08117 0.05687,-0.163812 0.0554,-0.255841 -0.0014,-0.09203 0.01231,-0.183505 0.02226,-0.274797 0.0014,-0.01658 0.0072,-0.0381 0.0037,-0.05467"
       style="fill:#21201d;fill-opacity:1;fill-rule:evenodd;stroke:none;stroke-width:0.184057"
       id="path614" />
  </g>
</svg>
