<?xml version="1.0" encoding="UTF-8" standalone="no"?>
<!-- Created with Inkscape (http://www.inkscape.org/) -->

<svg
   width="7.1118102mm"
   height="7.6283364mm"
   viewBox="0 0 7.1118102 7.6283364"
   version="1.1"
   id="svg1674"
   inkscape:version="1.1.2 (0a00cf5339, 2022-02-04)"
   sodipodi:docname="beyond_the_beyond.svg"
   xmlns:inkscape="http://www.inkscape.org/namespaces/inkscape"
   xmlns:sodipodi="http://sodipodi.sourceforge.net/DTD/sodipodi-0.dtd"
   xmlns="http://www.w3.org/2000/svg"
   xmlns:svg="http://www.w3.org/2000/svg">
  <sodipodi:namedview
     id="namedview1676"
     pagecolor="#ffffff"
     bordercolor="#666666"
     borderopacity="1.0"
     inkscape:pageshadow="2"
     inkscape:pageopacity="0.0"
     inkscape:pagecheckerboard="0"
     inkscape:document-units="mm"
     showgrid="false"
     inkscape:zoom="0.64052329"
     inkscape:cx="-1436.3256"
     inkscape:cy="589.36187"
     inkscape:window-width="2560"
     inkscape:window-height="1376"
     inkscape:window-x="0"
     inkscape:window-y="0"
     inkscape:window-maximized="1"
     inkscape:current-layer="layer1" />
  <defs
     id="defs1671" />
  <g
     inkscape:label="Layer 1"
     inkscape:groupmode="layer"
     id="layer1"
     transform="translate(-485.11371,7.5318308)">
    <path
       d="m 492.01692,-5.1074233 c 0.006,-0.010859 0.013,-0.018038 0.0208,-0.0208 0.008,-0.00293 0.0208,-0.00148 0.0374,0.00423 0.0166,0 0.0339,0.00148 0.0505,0.00442 0.0166,0.00275 0.0335,0.00423 0.0502,0.00423 h 0.0497 l -0.0166,0.3745579 c -0.006,0.1726463 -0.008,0.3861534 -0.008,0.6414418 -0.005,0.2501346 -0.008,0.4930912 -0.008,0.7296054 v 0.6119929 c 0,0.1717259 0.004,0.263755 0.008,0.2753504 0.006,0.016567 0.008,0.030187 0.008,0.040861 0,0.011596 -0.004,0.016566 -0.008,0.016566 -0.005,0.00589 -0.008,0.0173 -0.008,0.033867 v 0.066813 c 0.0109,0.061107 0.01,0.1165088 -0.004,0.1667563 -0.0138,0.049696 -0.0381,0.080617 -0.0705,0.091477 -0.0453,0.016379 -0.0712,0.00773 -0.0799,-0.025217 -0.008,-0.033129 -0.01,-0.1553446 -0.004,-0.3666433 0.005,-0.1058334 0.0106,-0.2216055 0.0162,-0.3495259 0.005,-0.1279204 0.0109,-0.2308087 0.0166,-0.3084812 0.005,-0.072519 0.0102,-0.1387796 0.0123,-0.1998867 0.004,-0.061107 0.004,-0.097735 0.004,-0.1084101 v 0.032946 -0.3077449 c 0,-0.033683 0,-0.087611 -0.004,-0.1630751 -0.004,-0.074912 -0.007,-0.1481666 -0.0123,-0.2201333 -0.006,-0.077672 -0.0113,-0.1581058 -0.0166,-0.2414842 -0.006,-0.083378 -0.008,-0.1474304 -0.008,-0.1919724 0,-0.044542 -0.004,-0.1028884 -0.008,-0.1754072 -0.006,-0.071967 -0.0116,-0.1352825 -0.0173,-0.1912362 z m -0.2746,1.25822 c -0.0109,-0.010858 -0.0166,-0.019325 -0.0166,-0.025217 0,-0.0057 0.0106,-0.00792 0.0332,-0.00792 0.0106,0 0.0222,0.00222 0.0328,0.00792 0.0116,0.00589 0.0222,0.00865 0.0339,0.00865 0.0166,0.010858 0.0279,0.043253 0.0328,0.09571 0.006,0.053193 0.004,0.117797 -0.008,0.1954695 0,0.033867 -0.004,0.076936 -0.008,0.1293926 -0.005,0.052457 -0.008,0.096447 -0.008,0.1293929 0,0.033129 -0.004,0.065524 -0.008,0.09571 -0.006,0.030187 -0.0116,0.048223 -0.0173,0.053929 -0.0109,0.022271 -0.0208,0.1071217 -0.0286,0.2545521 -0.008,0.1466942 -0.0152,0.4010621 -0.0208,0.7619996 l -0.009,0.7579505 -0.11575,0.142277 V -1.74119 c 0,-0.2998304 0.005,-0.5888013 0.0166,-0.8663605 0.0106,-0.2782958 0.0215,-0.4334566 0.0328,-0.466587 0.0109,-0.027425 0.0222,-0.079145 0.0332,-0.1546087 0.0113,-0.074727 0.0222,-0.159578 0.0332,-0.2538159 0.006,-0.027242 0.009,-0.058162 0.009,-0.092029 0,-0.033129 -0.004,-0.055402 -0.009,-0.066077 -0.005,-0.016566 -0.006,-0.032396 -0.004,-0.046015 0.004,-0.013621 0.006,-0.023742 0.0123,-0.02945 0.0106,-0.010859 0.0152,-0.031658 0.0127,-0.061844 -0.004,-0.030921 -0.0127,-0.053929 -0.0293,-0.07123 m -0.1338,-0.9002272 c 0.0173,-0.010675 0.0293,0.00718 0.0381,0.054665 0.008,0.047487 0.0152,0.1459579 0.0208,0.295597 v 0.2587855 c 0,0.049696 -0.004,0.074727 -0.008,0.074727 -0.0166,0 -0.0303,-0.012884 -0.0418,-0.0381 -0.0109,-0.024479 -0.0166,-0.048223 -0.0166,-0.070494 0,-0.010675 0,-0.022271 -0.004,-0.032946 -0.004,-0.011596 -0.006,-0.019509 -0.0123,-0.025217 -0.006,-0.0057 -0.008,-0.015092 -0.008,-0.02945 0,-0.013621 0.004,-0.031658 0.008,-0.053929 0.006,-0.022271 0.0102,-0.056874 0.0123,-0.1043609 0.004,-0.047303 0.004,-0.092581 0.004,-0.1365708 0,-0.050248 0,-0.094054 0.004,-0.1301292 0.004,-0.035891 0.004,-0.05669 0.004,-0.06258 m -0.0166,-0.3824725 c 0.006,-0.011412 0.0102,-0.0057 0.013,0.016567 0.004,0.021533 0.006,0.061107 0.012,0.1165084 0,0.088348 -0.004,0.1459579 -0.008,0.1704378 -0.005,0.025033 -0.0138,0.035154 -0.0243,0.02945 -0.0113,-0.0057 -0.0166,-0.010859 -0.0166,-0.016566 0,-0.0057 0.005,-0.010858 0.0166,-0.016566 0.006,-0.0057 0.008,-0.0208 0.008,-0.046015 v -0.096262 c -0.005,-0.033129 -0.008,-0.064788 -0.008,-0.09571 0,-0.030184 0.004,-0.050984 0.008,-0.061843 m -0.0999,-1.217175 c 0.0282,-0.027242 0.0475,-0.041045 0.0584,-0.041045 0.0113,0 0.0173,0.016566 0.0173,0.049696 0,0.016566 0.004,0.030921 0.008,0.041597 0.006,0.011596 0.0145,0.019509 0.0254,0.025217 0.0166,0.010858 0.0268,0.032395 0.0286,0.06258 0.004,0.030187 0.005,0.120742 0.005,0.2703812 0,0.1724621 -0.004,0.3235738 -0.009,0.454255 -0.006,0.130865 -0.0145,0.1956534 -0.0251,0.1956534 -0.0106,0 -0.0222,-0.022271 -0.0332,-0.066813 -0.0113,-0.04399 -0.0138,-0.080617 -0.008,-0.1078579 0.006,-0.022271 0.007,-0.043254 0.004,-0.06258 -0.004,-0.019512 -0.01,-0.037364 -0.0208,-0.053929 -0.006,-0.0173 -0.0102,-0.030921 -0.0124,-0.041781 -0.004,-0.011412 -0.004,-0.017117 0.004,-0.017117 0.0106,-0.010859 0.018,-0.048223 0.0208,-0.1122754 0.004,-0.063868 0,-0.1316013 -0.012,-0.2041204 -0.0117,-0.038836 -0.018,-0.080617 -0.0212,-0.1251592 -0.004,-0.043806 -0.004,-0.074727 -0.004,-0.091293 0,-0.022271 -0.004,-0.041597 -0.012,-0.058162 -0.008,-0.016566 -0.0187,-0.030921 -0.0296,-0.041781 l -0.0328,-0.033683 z m 0.0173,2.7579238 c 0.005,-0.049511 0.0138,-0.06534 0.0243,-0.045278 0.0106,0.018775 0.0166,0.059083 0.0166,0.1207417 -0.006,0.066261 -0.0138,0.1273683 -0.0243,0.1835058 -0.0116,0.055218 -0.0339,0.1358346 -0.0668,0.2407479 -0.0166,0.044542 -0.0317,0.090556 -0.046,0.1380434 -0.0138,0.047487 -0.018,0.079145 -0.0123,0.09571 0,0.010675 -0.004,0.027975 -0.009,0.050248 -0.005,0.022271 -0.008,0.041781 -0.008,0.058346 -0.0169,0.032946 -0.031,0.1012321 -0.0416,0.2033842 -0.0116,0.1036246 -0.0166,0.1905 -0.0166,0.2632029 0,0.094053 0,0.1551608 -0.005,0.1833217 -0.004,0.027241 -0.007,0.049511 -0.0123,0.066077 -0.005,0.0057 -0.0106,0.059082 -0.0166,0.158842 -0.006,0.099391 -0.0113,0.2136913 -0.0162,0.3416113 0,0.1330741 -0.004,0.2451654 -0.008,0.3371942 -0.005,0.091293 -0.0109,0.1373071 -0.0166,0.1373071 -0.0166,0 -0.0286,-0.023742 -0.0374,-0.070494 -0.008,-0.047487 -0.0123,-0.1207417 -0.0123,-0.2206854 0,-0.056137 0,-0.1041767 -0.004,-0.1459579 -0.004,-0.041781 -0.007,-0.065341 -0.0131,-0.070494 v -0.058898 c 0.006,-0.016566 0.0131,-0.061107 0.0215,-0.1330737 0.008,-0.071783 0.012,-0.1501916 0.012,-0.2335696 0.005,-0.088532 0.0123,-0.1746712 0.0208,-0.2582333 0.008,-0.083378 0.0152,-0.1415405 0.0208,-0.1754071 l -0.008,0.067549 c 0.006,-0.050248 0.0113,-0.1034404 0.0166,-0.158842 0.006,-0.055401 0.0138,-0.1222146 0.025,-0.1998867 0.006,-0.049512 0.0123,-0.098471 0.0212,-0.145958 0.008,-0.046751 0.0152,-0.084115 0.0208,-0.1120916 0.006,-0.022271 0.0102,-0.043069 0.0127,-0.06258 0.004,-0.019325 0.004,-0.031658 0.004,-0.037364 -0.006,0 -0.006,-0.0057 -0.004,-0.0173 0.004,-0.010125 0.01,-0.019325 0.0201,-0.024479 0.0113,-0.01638 0.0251,-0.046014 0.0423,-0.087611 0.0159,-0.041781 0.0275,-0.08706 0.0332,-0.1373075 0.006,-0.022271 0.0106,-0.046014 0.0166,-0.070494 0.006,-0.025217 0.0106,-0.046014 0.0162,-0.06258 0.006,-0.016567 0.0109,-0.035891 0.0166,-0.058162 0.006,-0.022271 0.0116,-0.042517 0.0173,-0.059083 m -0.56727,-3.1238309 c 0.006,-0.050432 0.0117,-0.077673 0.0166,-0.083378 0.006,-0.00589 0.0229,0 0.0502,0.01638 0.0166,0.010859 0.0268,0.053193 0.0293,0.1251596 0.004,0.071966 0.007,0.2882346 0.0123,0.6491721 0.006,0.4450521 0.0166,0.7391767 0.0332,0.8836621 0.0173,0.1444854 0.0639,0.3581767 0.14227,0.6419942 0.0109,0.027425 0.0222,0.056874 0.0332,0.087059 0.0106,0.030921 0.0215,0.056874 0.0328,0.079145 0.006,0.016566 0.0124,0.040309 0.0212,0.071231 0.008,0.030184 0.0152,0.05669 0.0208,0.078961 0.006,0.066261 0.0166,0.1373071 0.0332,0.2122188 0.0169,0.075464 0.031,0.117797 0.0423,0.1293925 0.005,0.011412 0.008,0.023008 0.008,0.037364 0,0.013621 -0.008,0.031658 -0.0254,0.053929 -0.0106,0.022271 -0.0194,0.047487 -0.0251,0.075464 -0.006,0.027242 -0.008,0.052457 -0.008,0.074728 0,0.022271 0,0.041781 -0.005,0.058346 -0.004,0.016383 -0.007,0.027975 -0.012,0.033683 -0.006,0 -0.0145,-0.00349 -0.0254,-0.00939 -0.0109,-0.00497 -0.0254,-0.013621 -0.0416,-0.024296 -0.0226,-0.016566 -0.0346,-0.030187 -0.0375,-0.041781 -0.004,-0.011412 0,-0.025216 0.0124,-0.041781 0.0166,-0.027242 0.0222,-0.09976 0.0166,-0.2162683 -0.005,-0.1165084 -0.0166,-0.2028317 -0.0332,-0.258233 -0.0116,-0.023008 -0.0194,-0.044542 -0.0254,-0.066813 -0.005,-0.022271 -0.008,-0.038836 -0.008,-0.050248 0,-0.00515 -0.004,-0.015092 -0.009,-0.028896 -0.005,-0.014358 -0.0106,-0.026504 -0.0162,-0.037364 -0.006,-0.011412 -0.0116,-0.023745 -0.0166,-0.037364 -0.006,-0.014358 -0.008,-0.026504 -0.008,-0.0381 0,-0.010675 -0.004,-0.027975 -0.008,-0.049512 -0.005,-0.022271 -0.0109,-0.044726 -0.0166,-0.066997 -0.005,-0.016566 -0.012,-0.037364 -0.0208,-0.06258 -0.008,-0.025033 -0.0152,-0.046015 -0.0208,-0.062396 -0.005,-0.016566 -0.0109,-0.037548 -0.0166,-0.06258 -0.005,-0.025216 -0.0109,-0.048223 -0.0166,-0.070494 -0.006,-0.016566 -0.0123,-0.040309 -0.0208,-0.070494 -0.008,-0.030921 -0.013,-0.060371 -0.013,-0.088348 -0.005,-0.021717 -0.0106,-0.046015 -0.0159,-0.070494 -0.006,-0.024479 -0.0113,-0.040309 -0.0166,-0.046015 -0.0113,-0.022271 -0.0201,-0.1108029 -0.0258,-0.2659637 -0.0109,-0.1610505 -0.0187,-0.3386663 -0.0243,-0.5335838 -0.006,-0.1941812 -0.009,-0.3802637 -0.009,-0.5586158 0,-0.1825855 0.006,-0.3048 0.0166,-0.3659071 m -0.69095,-0.1251596 c 0.005,-0.111355 0.01,-0.2013592 0.0123,-0.2703809 0.004,-0.070494 0.007,-0.1049129 0.0127,-0.1049129 0.005,0 0.0152,0.00423 0.0286,0.012883 0.0138,0.00792 0.0293,0.018038 0.046,0.028896 0.0159,0.017117 0.0359,0.032212 0.0583,0.046015 0.0222,0.013621 0.0387,0.026504 0.0495,0.037364 l 0.0589,0.025033 v 0.283265 c 0,0.077672 0,0.1496392 0.004,0.2164521 0.004,0.066813 0.007,0.1085942 0.0131,0.1251596 0.005,0.027975 0.008,0.050248 0.008,0.066813 0,0.016566 -0.006,0.035891 -0.0166,0.058346 -0.0106,0.027975 -0.018,0.048039 -0.0208,0.062396 -0.004,0.013804 0,0.028896 0.004,0.046014 0.006,0.010859 0.0109,0.059819 0.0166,0.1452217 0.006,0.086323 0.0109,0.1827695 0.0166,0.2876828 0,0.1056492 0.004,0.2085376 0.008,0.3084809 0.005,0.099943 0.0109,0.1638117 0.0166,0.1919725 0.006,0.032946 0.0106,0.066077 0.0166,0.099207 0.006,0.033683 0.009,0.058899 0.009,0.075464 0,0.016566 0.004,0.038836 0.012,0.066077 0.008,0.028162 0.018,0.053193 0.0296,0.075464 l -0.0173,-0.025033 c 0.0116,0.027242 0.0229,0.055401 0.0339,0.083378 0.0109,0.027975 0.0243,0.064052 0.0418,0.1085942 0.0328,0.094053 0.0683,0.187555 0.10417,0.2781113 0.0359,0.092029 0.0626,0.1518479 0.0791,0.1798246 0.0106,0.016566 0.0236,0.040309 0.0374,0.070494 0.0138,0.030921 0.0236,0.057426 0.0286,0.079145 0.006,0.028713 0.0145,0.054481 0.0261,0.078961 0.0106,0.025216 0.0215,0.046015 0.0328,0.06258 0.0219,0.039572 0.0332,0.1229508 0.0332,0.2501349 0,0.1281042 -0.0113,0.2164521 -0.0332,0.2668838 -0.0328,0.083378 -0.0849,0.2293362 -0.15462,0.4371375 -0.0688,0.2083537 -0.11208,0.3515508 -0.12866,0.4292233 -0.0169,0.077672 -0.0279,0.1724621 -0.0328,0.2832651 -0.006,0.111355 -0.01,0.4082404 -0.01,0.8913925 v 1.01673584 l -0.13306,0.0747275 c -0.0718,0.0388362 -0.1178,0.0554016 -0.13731,0.0504321 -0.0194,-0.005891 -0.0324,-0.0388363 -0.0381,-0.0999434 0,-0.0222709 -0.004,-0.0640524 -0.008,-0.12515956 -0.006,-0.0611071 -0.0138,-0.1251592 -0.0243,-0.19123624 -0.0113,-0.11153916 -0.0166,-0.22583916 -0.0166,-0.34161124 0,-0.1170609 0.005,-0.24719 0.0166,-0.3918596 0.005,-0.039388 0.006,-0.066813 0.004,-0.083378 -0.004,-0.017117 -0.0123,-0.030921 -0.0286,-0.041597 -0.0173,-0.016566 -0.0254,-0.028162 -0.0254,-0.033867 0,-0.00497 0.008,-0.016567 0.0254,-0.032946 0.0106,-0.016566 0.0194,-0.047487 0.025,-0.092029 0.005,-0.04399 0.0109,-0.1303129 0.0166,-0.2582333 0.006,-0.083378 0.01,-0.1588421 0.0123,-0.2286 0.004,-0.069022 0.007,-0.1128275 0.0127,-0.1293926 0.0332,-0.1049133 0.0554,-0.1761437 0.0661,-0.2127712 0.0109,-0.036075 0.0222,-0.059819 0.0332,-0.070494 0.006,-0.00515 0.0145,-0.0208 0.0261,-0.045278 0.0106,-0.025216 0.0215,-0.051904 0.0328,-0.079881 0.0109,-0.033683 0.0215,-0.06258 0.0332,-0.087612 0.0106,-0.024479 0.0194,-0.042518 0.025,-0.053929 0.0381,-0.061107 0.0826,-0.1870026 0.13285,-0.3789751 0.0497,-0.1919725 0.0748,-0.3292796 0.0748,-0.4126579 -0.005,-0.061107 -0.0162,-0.1316013 -0.0328,-0.2122188 -0.0166,-0.080433 -0.0359,-0.1373071 -0.0584,-0.1709899 -0.006,-0.010858 -0.0106,-0.022271 -0.0162,-0.033129 -0.006,-0.010858 -0.008,-0.019325 -0.008,-0.025217 0,-0.0057 -0.004,-0.022271 -0.0131,-0.050248 -0.009,-0.027425 -0.0208,-0.054665 -0.0374,-0.082642 -0.0173,-0.033867 -0.0324,-0.069758 -0.046,-0.1085942 -0.0145,-0.038836 -0.0236,-0.069758 -0.0286,-0.092029 -0.0116,-0.021533 -0.0215,-0.044542 -0.0293,-0.066261 -0.009,-0.022271 -0.0152,-0.038652 -0.0212,-0.050248 -0.0279,-0.043806 -0.0711,-0.1610505 -0.12939,-0.350078 -0.0582,-0.1884754 -0.0955,-0.327255 -0.11208,-0.4163391 -0.006,-0.038836 -0.0166,-0.1466942 -0.0339,-0.3250463 -0.0162,-0.1774317 -0.0243,-0.2882346 -0.0243,-0.3327767 v -0.099943 c -0.006,-0.0057 -0.007,-0.025217 -0.005,-0.058347 0.004,-0.033683 0.006,-0.069758 0.0123,-0.10841 0.006,-0.038836 0.0106,-0.1100666 0.0162,-0.212955 0.006,-0.1019679 0.0116,-0.2063288 0.0173,-0.3119783 m -0.6672,1.7995346 c 0,-0.0057 0.006,-0.00423 0.0173,0.00442 0.0106,0.00791 0.025,0.0208 0.041,0.037364 0.0169,0.016566 0.0394,0.043806 0.0668,0.083378 0.0279,0.038836 0.0525,0.074727 0.0755,0.1085942 0.0332,0.061108 0.0569,0.1078579 0.0705,0.1415408 0.0145,0.032396 0.0236,0.085587 0.0293,0.1575534 0.0109,0.050248 0.0194,0.1085941 0.0254,0.1754071 -0.0116,0.010859 -0.0229,0.00293 -0.0339,-0.025217 -0.0109,-0.027975 -0.0194,-0.058162 -0.0243,-0.091292 -0.006,-0.038836 -0.0127,-0.072519 -0.0215,-0.099944 -0.008,-0.027975 -0.0229,-0.063868 -0.0453,-0.1085942 -0.0279,-0.044542 -0.0668,-0.1177971 -0.11723,-0.2206854 -0.0495,-0.1027042 -0.0777,-0.1573696 -0.0834,-0.162523 m 0.59175,0.5830955 c 0,-0.016566 0,-0.023742 0.004,-0.0208 0.004,0.00293 0.0102,0.010125 0.0212,0.0208 0.0272,0.039572 0.0581,0.087795 0.0913,0.1459579 0.0335,0.058346 0.0502,0.092765 0.0502,0.1043608 0,0.0057 0.006,0.023008 0.0166,0.053929 0.0116,0.030921 0.0254,0.06258 0.0418,0.095526 0.0162,0.033867 0.0321,0.065525 0.046,0.096446 0.0145,0.030187 0.0208,0.048039 0.0208,0.053929 0,0.00497 0.004,0.017854 0.008,0.037364 0.006,0.019325 0.0113,0.040125 0.0166,0.06258 0.0279,0.077488 0.031,0.1890275 0.01,0.3335129 -0.0233,0.1437492 -0.0618,0.2639392 -0.11726,0.3579925 -0.0554,0.094974 -0.0999,0.1676771 -0.13307,0.2208696 -0.0335,0.052457 -0.0582,0.081906 -0.0755,0.087612 -0.006,0.00515 -0.0109,0.012333 -0.0166,0.020246 -0.006,0.00847 -0.008,0.017854 -0.008,0.02945 0,0.0057 -0.004,0.014355 -0.008,0.025033 -0.006,0.010859 -0.0113,0.019509 -0.0166,0.024479 -0.0106,0.0057 -0.0222,0.015829 -0.0328,0.02945 -0.0117,0.014541 -0.0201,0.026688 -0.0251,0.0381 -0.006,0.010859 -0.0138,0.024479 -0.0254,0.041045 -0.0113,0.016566 -0.0222,0.033867 -0.0339,0.050248 -0.0275,0.027425 -0.0569,0.070494 -0.0871,0.1288404 -0.0303,0.058162 -0.046,0.098471 -0.046,0.1207421 0,0.011412 0,0.023742 -0.004,0.0381 -0.004,0.013621 -0.007,0.023742 -0.0123,0.02945 -0.0166,0.0381 -0.0416,0.1122754 -0.0747,0.2199491 -0.0339,0.1085942 -0.0532,0.193445 -0.0582,0.2545525 -0.006,0.033129 -0.013,0.074911 -0.0208,0.1251592 -0.009,0.049512 -0.0152,0.091293 -0.0208,0.1251595 0,0.032946 -0.004,0.1177971 -0.008,0.2538159 -0.006,0.1358346 -0.008,0.28749833 -0.008,0.45351872 0,0.2394592 0,0.40198216 0.005,0.48756922 0.004,0.0863233 0.006,0.14080419 0.012,0.16252331 0.0109,0.0279753 0.0166,0.0473029 0.0166,0.05889836 0,0.0108585 -0.009,0.02447925 -0.0254,0.04104499 -0.0335,0.03368322 -0.0567,0.02797528 -0.0705,-0.01656644 -0.0138,-0.04398963 -0.0265,-0.16105046 -0.0381,-0.35026211 -0.006,-0.0717825 -0.01,-0.13583461 -0.0123,-0.19123625 -0.004,-0.0552171 -0.004,-0.0861392 -0.004,-0.0920288 v -0.26596375 c 0,-0.20559285 0.0145,-0.41707535 0.0418,-0.63334335 0.0279,-0.2164521 0.0641,-0.3745579 0.10862,-0.4752375 0.0113,-0.028162 0.0201,-0.05264 0.0293,-0.074912 0.008,-0.022271 0.012,-0.035891 0.012,-0.041597 0,-0.0057 0.005,-0.018038 0.0166,-0.037364 0.0116,-0.019509 0.0254,-0.040309 0.0418,-0.06258 0.0166,-0.027425 0.0317,-0.058346 0.0453,-0.091293 0.0145,-0.033867 0.0236,-0.064788 0.0293,-0.092029 0.0109,-0.044542 0.0279,-0.087796 0.0502,-0.1293929 0.0226,-0.041045 0.0663,-0.1209259 0.13307,-0.2372505 0.0885,-0.1446696 0.15684,-0.2661479 0.20433,-0.3668275 0.0473,-0.099943 0.0762,-0.1833217 0.0876,-0.2493983 0.0159,-0.117245 0.0208,-0.2350421 0.0123,-0.3544958 -0.008,-0.1192696 -0.0317,-0.2263913 -0.0712,-0.3206288 -0.0332,-0.066813 -0.0618,-0.1345463 -0.0871,-0.2041204 -0.0254,-0.069022 -0.0353,-0.1100667 -0.0293,-0.1209259 m -0.61624,-2.932595 -0.025,-0.050432 h 0.092 c 0.0438,0.00589 0.0703,0.010125 0.079,0.013067 0.008,0.00275 0.007,0.012146 -0.004,0.02945 -0.006,0.021534 -0.0152,0.1509275 -0.0286,0.3867054 -0.0145,0.2365146 -0.0219,0.4264621 -0.0219,0.5709479 0,0.061107 0.004,0.1207417 0.008,0.1790884 0.006,0.058162 0.0109,0.095526 0.0166,0.1128275 0.006,0.027242 0.008,0.050984 0.008,0.070494 0,0.020062 -0.004,0.037364 -0.008,0.054665 -0.0166,0.038652 -0.0303,0.046567 -0.0416,0.024296 -0.0116,-0.022271 -0.0226,-0.080433 -0.0332,-0.1746712 -0.006,-0.050248 -0.0116,-0.1056492 -0.0173,-0.1667563 -0.005,-0.061107 -0.0106,-0.1135638 -0.0166,-0.15829 -0.0106,-0.083378 -0.0166,-0.140068 -0.0166,-0.1709896 0,-0.030184 0.004,-0.08209 0.008,-0.1538725 0.006,-0.027975 0.006,-0.059635 0.005,-0.09571 -0.004,-0.035891 -0.005,-0.06258 -0.005,-0.078961 -0.006,-0.0173 -0.008,-0.035339 -0.008,-0.053929 0,-0.020246 0.004,-0.035339 0.008,-0.046015 0.006,-0.0173 0.008,-0.032396 0.008,-0.046014 0,-0.014358 -0.004,-0.02945 -0.008,-0.046015 -0.006,-0.010859 -0.008,-0.025216 -0.008,-0.041781 0,-0.016566 0.004,-0.033129 0.008,-0.049512 0.006,-0.022454 0.008,-0.041781 0.008,-0.058346 0,-0.0173 -0.004,-0.033683 -0.008,-0.050248 m 0.40845,3.1497833 c 0,-0.011596 0,-0.020062 0.004,-0.025216 0.004,-0.0057 0.007,-0.00865 0.0131,-0.00865 0.0166,0.00589 0.0388,0.036075 0.0661,0.091477 0.0282,0.055954 0.0532,0.1200058 0.0755,0.1917883 0.0219,0.055402 0.0361,0.1058333 0.0418,0.1496392 0.006,0.045278 0.008,0.1085941 0.008,0.1919725 0,0.1056491 -0.004,0.187555 -0.012,0.2459012 -0.008,0.058163 -0.0268,0.1207421 -0.0539,0.187555 -0.006,0.016567 -0.0109,0.036075 -0.0166,0.058346 -0.006,0.022271 -0.009,0.035892 -0.009,0.041597 0,0.010858 -0.01,0.040309 -0.0293,0.08706 -0.0194,0.047487 -0.0433,0.099207 -0.0705,0.1546088 -0.0279,0.055401 -0.0532,0.1093304 -0.0747,0.1625229 -0.0229,0.053193 -0.0368,0.087612 -0.0418,0.1041771 0,0.010859 -0.0145,0.037364 -0.0423,0.079145 -0.0275,0.041597 -0.0584,0.08117 -0.0913,0.1207421 -0.0885,0.1165087 -0.14669,0.1956537 -0.17488,0.2372508 -0.0279,0.041781 -0.0416,0.07123 -0.0416,0.087795 0,0.010675 -0.004,0.022271 -0.008,0.032946 -0.006,0.010858 -0.0117,0.016566 -0.0166,0.016566 -0.0166,0.0057 -0.043,0.059635 -0.0791,0.1632592 -0.0359,0.1021525 -0.0683,0.212035 -0.0955,0.3285437 -0.0282,0.1610505 -0.0482,0.3055359 -0.0626,0.4329042 -0.0145,0.12792001 -0.0215,0.29762164 -0.0215,0.50892 0,0.14448543 0,0.24516503 -0.004,0.30351165 -0.004,0.0588984 -0.01,0.0933171 -0.0208,0.10491293 -0.0222,0.0272415 -0.0388,0.0366275 -0.0502,0.0287126 -0.0109,-0.00865 -0.0194,-0.0344205 -0.0244,-0.0789608 -0.0116,-0.0554013 -0.0166,-0.098655 -0.0166,-0.12957669 0,-0.0301872 0.005,-0.12865664 0.0166,-0.29541293 0.005,-0.0833783 0.0106,-0.16105081 0.0166,-0.23375372 0.006,-0.0717825 0.008,-0.12147794 0.008,-0.15019124 0.006,-0.082642 0.0201,-0.1927088 0.0423,-0.3285434 0.0222,-0.1358346 0.0418,-0.2236304 0.0581,-0.2624666 0.005,-0.022271 0.0138,-0.050984 0.0243,-0.087611 0.0116,-0.036075 0.0222,-0.067733 0.0339,-0.09571 0.0106,-0.055401 0.0243,-0.1056492 0.0409,-0.149455 0.0173,-0.044726 0.0368,-0.092029 0.0591,-0.1424609 0.005,-0.021534 0.012,-0.04307 0.0208,-0.061843 0.008,-0.019325 0.012,-0.035154 0.012,-0.046015 0,-0.011412 0.004,-0.022271 0.008,-0.033683 0.006,-0.010859 0.0109,-0.018775 0.0166,-0.024479 0.0109,-0.00589 0.0254,-0.018037 0.0418,-0.0381 0.0166,-0.019512 0.0303,-0.040309 0.0416,-0.061844 0.0109,-0.0173 0.0332,-0.047487 0.067,-0.092029 0.0328,-0.044542 0.0639,-0.085587 0.0913,-0.1251596 0.0328,-0.038836 0.0653,-0.083378 0.0955,-0.1330738 0.031,-0.050248 0.0517,-0.091293 0.0626,-0.1249754 0.0611,-0.1387796 0.10711,-0.24811 0.13804,-0.3285433 0.0303,-0.081354 0.0482,-0.1380434 0.0539,-0.1711738 l 0.008,-0.033867 c 0.006,-0.027975 0.0116,-0.053929 0.0173,-0.078409 0.006,-0.025033 0.008,-0.040125 0.008,-0.046015 0.0166,-0.061659 0.0222,-0.1373071 0.0166,-0.2293359 -0.005,-0.091293 -0.0187,-0.1573695 -0.0418,-0.1954695 -0.005,-0.011596 -0.0109,-0.025217 -0.0166,-0.042517 -0.005,-0.015646 -0.009,-0.027241 -0.009,-0.032209 0,-0.011596 -0.004,-0.026688 -0.012,-0.046015 -0.008,-0.020246 -0.018,-0.040309 -0.0296,-0.06258 -0.0109,-0.022271 -0.0201,-0.044542 -0.0289,-0.066813 -0.008,-0.022454 -0.012,-0.039572 -0.012,-0.049695 m -0.90815,-2.9412455 c 0.005,-0.033867 0.0124,-0.056138 0.0212,-0.066997 0.008,-0.010675 0.0201,-0.0057 0.0373,0.016566 0,0.0057 0.004,0.038836 0.008,0.099943 0.006,0.061844 0.0113,0.1338103 0.0166,0.2171883 0.006,0.1610508 0.0159,0.301855 0.0293,0.4240696 0.0138,0.1222145 0.0265,0.199887 0.0374,0.2337537 0.006,0.010859 0.0109,0.038836 0.0166,0.083378 0.006,0.044542 0.008,0.091293 0.008,0.1417246 0,0.055217 0.005,0.1027045 0.0127,0.1415408 0.008,0.038836 0.0159,0.066261 0.0208,0.083378 0.006,0.016566 0.0138,0.040308 0.0251,0.070494 0.0116,0.030921 0.0173,0.060371 0.0173,0.087796 0.005,0.038836 0.0138,0.071782 0.0244,0.099943 0.0106,0.027975 0.0243,0.055217 0.0416,0.083378 0.0166,0.016566 0.0303,0.034417 0.0418,0.053929 0.0106,0.019325 0.0166,0.034417 0.0166,0.046014 0,0.0057 0.004,0.017854 0.008,0.037364 0.006,0.019325 0.0138,0.037364 0.0243,0.054665 0.0116,0.021533 0.0194,0.040125 0.025,0.053929 0.005,0.013621 0.005,0.023008 0,0.028713 -0.006,0.0057 -0.0194,0 -0.0418,-0.016566 -0.0222,-0.016566 -0.0328,-0.033129 -0.0328,-0.049512 0,-0.00589 -0.005,-0.015829 -0.0131,-0.029633 -0.008,-0.013621 -0.018,-0.023742 -0.0286,-0.02945 -0.006,-0.010675 -0.012,-0.024479 -0.0208,-0.041597 -0.008,-0.015829 -0.0152,-0.033129 -0.0208,-0.049695 -0.006,-0.016566 -0.0102,-0.030921 -0.0123,-0.041597 -0.004,-0.010859 -0.007,-0.019509 -0.012,-0.025217 -0.006,0 -0.0102,-0.00442 -0.0127,-0.012333 -0.004,-0.00792 -0.005,-0.017854 -0.005,-0.02945 0,-0.010675 -0.004,-0.023745 -0.008,-0.037364 -0.005,-0.013621 -0.0106,-0.026504 -0.0166,-0.037364 -0.0106,-0.010859 -0.018,-0.022271 -0.0208,-0.033129 -0.004,-0.011412 0,-0.019325 0.005,-0.025033 0,-0.00589 0,-0.020983 -0.005,-0.046015 -0.004,-0.025217 -0.01,-0.051168 -0.0208,-0.079145 -0.0109,-0.033129 -0.0194,-0.064052 -0.0243,-0.091293 -0.006,-0.027975 -0.009,-0.047487 -0.009,-0.058346 0,-0.011412 -0.004,-0.027975 -0.008,-0.050248 -0.006,-0.022271 -0.0113,-0.043806 -0.0173,-0.066813 -0.0106,-0.016566 -0.0222,-0.070494 -0.0328,-0.1625233 -0.0116,-0.091293 -0.0222,-0.1927088 -0.0339,-0.3040638 -0.006,-0.1058333 -0.0138,-0.1985984 -0.0243,-0.2790317 -0.0113,-0.080617 -0.0194,-0.123687 -0.025,-0.1286566 -0.005,-0.00589 -0.008,-0.028162 -0.008,-0.066997 0,-0.039388 0.006,-0.1056492 0.0173,-0.1997026 m -0.14228,2.1906572 c 0,-0.061107 0.006,-0.08982 0.0173,-0.087059 0.0106,0.00222 0.025,0.037364 0.0416,0.1036246 0.006,0.023008 0.0124,0.046014 0.0201,0.071046 0.009,0.025216 0.0159,0.040309 0.0208,0.046015 0.0116,0.016566 0.013,0.028896 0.005,0.037548 -0.008,0.00791 -0.0243,0.012884 -0.046,0.012884 -0.0166,0 -0.031,-0.015829 -0.0416,-0.046015 -0.0117,-0.030921 -0.0173,-0.0762 -0.0173,-0.1380434 m -0.0826,-0.5328475 c -0.006,-0.032946 -0.006,-0.075464 0,-0.1249754 0.005,0 0.012,0.0057 0.0208,0.016383 0.008,0.011596 0.0152,0.027425 0.0201,0.050432 0.0166,0.021534 0.0268,0.044542 0.0296,0.066077 0.004,0.022271 0,0.044726 -0.004,0.066997 v 0.058162 c 0,0.0173 0.004,0.027241 0.008,0.033129 0.0116,0.011412 0.018,0.033683 0.0208,0.066813 0.004,0.033867 0.005,0.066813 0.005,0.099944 0,0.022271 0,0.033129 -0.005,0.033129 -0.004,0 -0.009,-0.00515 -0.0208,-0.016566 -0.0113,-0.010859 -0.0194,-0.027425 -0.0254,-0.049696 l -0.0166,-0.066813 c 0,-0.022271 -0.004,-0.042333 -0.008,-0.06258 -0.005,-0.018588 -0.0109,-0.028713 -0.0166,-0.028713 0,-0.0057 0,-0.0208 -0.005,-0.046015 -0.004,-0.025217 -0.004,-0.056874 -0.004,-0.09571 m 0.79953,2.6329484 c 0.0162,-0.038836 0.0321,-0.068285 0.046,-0.087795 0.0138,-0.019325 0.0208,-0.026504 0.0208,-0.0208 0.006,0.0057 0.0138,0.013067 0.025,0.0208 0.0106,0.00865 0.0215,0.015829 0.0328,0.020983 0.0222,0.011412 0.0361,0.019325 0.0418,0.025033 0.006,0.00515 0,0.010858 -0.0166,0.016566 -0.006,0.00589 -0.0194,0.023742 -0.0418,0.053929 -0.0222,0.030921 -0.0446,0.06258 -0.0668,0.096446 -0.0396,0.071782 -0.0942,0.159578 -0.16676,0.2622825 -0.072,0.1021521 -0.12735,0.1763275 -0.16675,0.2208696 -0.0381,0.050248 -0.0821,0.1271838 -0.12884,0.232833 -0.0473,0.1058333 -0.0876,0.2164524 -0.12075,0.3329608 -0.0166,0.061844 -0.0303,0.1200058 -0.0416,0.1754075 -0.0109,0.056137 -0.0166,0.088532 -0.0166,0.099943 0,0.016567 -0.004,0.0381 -0.008,0.06258 -0.006,0.025217 -0.0109,0.046015 -0.0166,0.06258 -0.0166,0.032946 -0.0254,0.055217 -0.0254,0.066813 0,0.011596 0.008,0.021534 0.0254,0.033129 0.0166,0.010675 0.0254,0.019325 0.0254,0.025033 0,0.00589 -0.006,0.010859 -0.0173,0.016566 -0.0166,0.016566 -0.0286,0.069758 -0.0374,0.1582896 -0.008,0.0890842 -0.018,0.27535086 -0.0286,0.55787964 -0.006,0.1279204 -0.0116,0.23651457 -0.0166,0.32559836 -0.006,0.08853205 -0.009,0.13601912 -0.009,0.14098834 -0.005,0.00570442 -0.0123,0.00717903 -0.0208,0.00423334 -0.008,-0.0020108 -0.0152,-0.00644172 -0.0212,-0.0121461406 -0.0106,-0.005704419 -0.0194,-0.0193251694 -0.025,-0.0415970894 -0.005,-0.0224543 -0.0109,-0.05834662 -0.0166,-0.10859417 0,-0.0388362 -0.004,-0.0762 -0.008,-0.1122754 -0.006,-0.0358913 -0.009,-0.0625796 -0.009,-0.0789608 0,-0.0165664 0,-0.0353392 0.004,-0.0539291 0.004,-0.0195086 0.007,-0.0375475 0.0124,-0.054665 0.0113,-0.0222709 0.0166,-0.0417812 0.0166,-0.0583463 0,-0.0165664 -0.004,-0.0329459 -0.008,-0.0495116 -0.006,-0.0115958 -0.008,-0.0237455 -0.008,-0.0381 0,-0.0136208 0.004,-0.0230082 0.008,-0.0287126 0,-0.005891 0,-0.0173002 0.004,-0.0338667 0.004,-0.0165664 0.004,-0.0331294 0.004,-0.0496958 0,-0.0163795 0.004,-0.0517204 0.008,-0.10417669 0.006,-0.0531929 0.0109,-0.10712168 0.0166,-0.16252331 l -0.008,0.0833783 c 0.0116,-0.0668129 0.0219,-0.13730708 0.0296,-0.21277088 0.008,-0.074728 0.0159,-0.1625233 0.0208,-0.2624666 0.006,-0.055218 0.012,-0.1041767 0.0208,-0.1452217 0.008,-0.041597 0.0152,-0.068285 0.0208,-0.079697 0.006,-0.010859 0.008,-0.020246 0.008,-0.028896 0,-0.00865 -0.004,-0.017854 -0.008,-0.02945 -0.006,-0.00497 -0.008,-0.01215 -0.008,-0.0208 0,-0.00792 0.005,-0.015092 0.0166,-0.020062 0.006,-0.00589 0.0138,-0.023008 0.0243,-0.050432 0.0116,-0.027975 0.0194,-0.055401 0.0254,-0.083378 0.006,-0.033129 0.0166,-0.07123 0.0335,-0.1120913 0.0166,-0.041781 0.0303,-0.0762 0.0411,-0.1043608 0.0173,-0.027975 0.031,-0.054665 0.0418,-0.078961 0.0113,-0.025217 0.0166,-0.040309 0.0166,-0.046015 0,-0.011596 0.004,-0.023742 0.008,-0.037548 0.006,-0.014358 0.0138,-0.026504 0.025,-0.0381 0.006,-0.010675 0.0124,-0.023008 0.0208,-0.036627 0.008,-0.014358 0.0123,-0.023742 0.0123,-0.02945 0,-0.0057 0.004,-0.012884 0.008,-0.0208 0.006,-0.00792 0.0113,-0.018038 0.0173,-0.028896 0.0387,-0.033683 0.10566,-0.1170608 0.19971,-0.2501346 0.095,-0.1336262 0.15536,-0.2278637 0.18351,-0.2832653 m -0.81685,-3.1576976 c 0,-0.0057 0.004,-0.0057 0.008,0 v 0.049512 c -0.006,0.00589 -0.008,0.00718 -0.008,0.00442 z m -0.0166,0.2746145 c 0.006,-0.0057 0.0145,-0.016566 0.025,-0.033129 0.0166,0 0.0265,0.00644 0.0293,0.020983 0.004,0.013621 0,0.028713 -0.0127,0.046015 -0.0116,0.027242 -0.0222,0.035891 -0.0332,0.024296 -0.0113,-0.010675 -0.0138,-0.030187 -0.008,-0.058162 m -0.008,-0.8161129 c 0,-0.023008 0,-0.035154 0.004,-0.037364 0.004,-0.00275 0.007,0.00368 0.0127,0.020246 0.0109,0.011412 0.0166,0.0208 0.0166,0.02945 0,0.00865 -0.006,0.015092 -0.0166,0.0208 -0.006,0.0057 -0.0102,0.0057 -0.0127,0 -0.004,-0.0057 -0.004,-0.016567 -0.004,-0.033129 m -0.008,0.1741188 c -0.006,-0.015829 -0.007,-0.031658 -0.004,-0.045278 0.004,-0.013804 0.007,-0.020983 0.0127,-0.020983 0.0109,0 0.0194,0.019509 0.0243,0.058346 0.006,0.038836 0.004,0.089084 -0.008,0.1501912 l -0.008,0.1165088 -0.008,-0.099943 c 0,-0.022271 -0.004,-0.050248 -0.004,-0.083378 -0.004,-0.033129 -0.005,-0.058346 -0.005,-0.075464 m 0,-0.3285434 c 0.006,-0.00791 0.0116,-0.013067 0.0166,-0.013067 0.0166,0 0.0251,0.0057 0.0251,0.0173 0,0.011412 -0.008,0.027975 -0.0251,0.050248 -0.0106,0.010859 -0.018,0.016566 -0.0208,0.016566 -0.004,0 -0.004,-0.011412 -0.004,-0.033683 0,-0.016567 0.004,-0.028896 0.008,-0.037364 m -0.0328,-0.5120492 0.0166,-0.058899 0.008,0.050248 c 0,0.016566 0.004,0.031658 0.008,0.046015 0.006,0.013804 0.0116,0.023742 0.0166,0.028896 0.006,0.011412 0.008,0.0208 0.008,0.02945 0,0.00791 -0.004,0.020062 -0.008,0.037364 -0.005,0.0057 -0.012,0.0173 -0.0208,0.037364 -0.008,0.019512 -0.0152,0.034604 -0.0208,0.046015 -0.006,0.022271 -0.01,0.030184 -0.0123,0.024479 -0.004,-0.0057 -0.004,-0.030187 -0.004,-0.074727 0,-0.027425 0,-0.058346 0.004,-0.091292 0.004,-0.033867 0.005,-0.058347 0.005,-0.074912 m -0.0332,3.2326093 c 0.0166,-0.0057 0.0374,-0.011596 0.0618,-0.0173 0.0254,-0.00497 0.0431,-0.00791 0.0547,-0.00791 0.0389,0 0.0804,0.013621 0.12496,0.041781 0.044,0.027241 0.0828,0.063868 0.11652,0.1078583 0.0222,0.033683 0.036,0.061659 0.0418,0.083378 0.005,0.022271 0.008,0.055954 0.008,0.099944 0,0.044542 -0.004,0.077672 -0.008,0.1006796 -0.006,0.021533 -0.0173,0.043806 -0.0339,0.066813 -0.0495,0.060371 -0.0955,0.1021521 -0.1373,0.1244233 -0.0416,0.022271 -0.0955,0.035891 -0.16252,0.041597 -0.0718,0.0057 -0.13215,0.00148 -0.1789,-0.01215 -0.0475,-0.014358 -0.0848,-0.0381 -0.11229,-0.07123 -0.0173,-0.016566 -0.0279,-0.035891 -0.0335,-0.058162 -0.005,-0.022271 -0.009,-0.069758 -0.009,-0.1417246 0,-0.066813 0.004,-0.1120913 0.004,-0.1373071 0.004,-0.025217 0.0131,-0.046015 0.0293,-0.06258 0.0109,-0.010675 0.0212,-0.025217 0.0289,-0.041597 0.008,-0.016566 0.0159,-0.033129 0.0215,-0.049696 0.005,-0.0173 0.0138,-0.027975 0.0243,-0.033867 0.0106,-0.0057 0.0251,-0.00773 0.0416,-0.00773 0.0109,0 0.0275,-0.00293 0.0504,-0.00865 0.0222,-0.00589 0.0438,-0.011596 0.0668,-0.016566 m -0.35006,-3.4661788 c 0.0106,-0.011596 0.0243,-0.025217 0.0416,-0.041781 0.005,0 0.008,0.00865 0.008,0.025217 0,0.016566 -0.004,0.033683 -0.008,0.049511 -0.006,0.022454 -0.007,0.043254 -0.005,0.06258 0.004,0.020246 0.007,0.031658 0.0127,0.037364 0.0109,0.011596 0.0138,0.023008 0.008,0.033867 -0.006,0.010859 -0.0194,0.016566 -0.0416,0.016566 -0.006,0 -0.0109,-0.00293 -0.0166,-0.00865 -0.006,-0.00497 -0.008,-0.013621 -0.008,-0.024479 0,-0.011412 0,-0.023742 -0.004,-0.0381 -0.004,-0.013621 -0.008,-0.023008 -0.0127,-0.028713 -0.006,-0.0173 -0.007,-0.030921 -0.004,-0.041781 0.004,-0.010675 0.012,-0.024479 0.0293,-0.041597 m -0.24169,6.5570635 v -0.0252166 c 0,-0.005704 0.004,-0.005704 0.008,0 v 0.0425171 c -0.006,0.004971 -0.008,0.006442 -0.008,0.003493 z m 0.0166,-0.3581767 c 0.005,0.016566 0.008,0.05761 0.008,0.1251592 0,0.061108 -0.004,0.1014162 -0.008,0.1207421 -0.006,0.018775 -0.0145,0.012333 -0.025,-0.021534 -0.0113,-0.015829 -0.0152,-0.058163 -0.012,-0.1244233 0.004,-0.066813 0.006,-0.1027042 0.012,-0.1084101 0.0109,-0.010858 0.0194,-0.00865 0.025,0.00847 m -0.0582,-0.1919725 c 0.006,0 0.009,0.00736 0.0124,0.020983 0.004,0.014358 0.004,0.02945 0.004,0.046015 0,0.022271 0,0.038836 -0.004,0.049512 -0.004,0.011596 -0.006,0.014358 -0.0124,0.00865 -0.0116,-0.027979 -0.0166,-0.049512 -0.0166,-0.066813 0,-0.016567 0.005,-0.035891 0.0166,-0.058346 m 0.0328,0.80819834 c 0,-0.0215336 0.004,-0.0415971 0.008,-0.0581621 0.005,-0.0165665 0.0109,-0.0222709 0.0166,-0.0165665 0.005,0 0.01,0.034417 0.012,0.10417669 0.004,0.0690217 0.005,0.15166375 0.005,0.24516538 0,0.16105046 -0.004,0.25952167 -0.008,0.29633298 -0.005,0.03589161 -0.0138,0.06257995 -0.0243,0.07896083 -0.0113,0.01159581 -0.0222,0.01950861 -0.0335,0.0252165577 -0.0109,0.005704412 -0.0226,0.005704412 -0.0332,0 -0.0173,-0.005704418 -0.025,-0.0114123577 -0.025,-0.0165664477 0,-0.0057044 0.008,-0.02227086 0.025,-0.0502479 0.0106,-0.01656644 0.0194,-0.04822296 0.025,-0.09571002 0.006,-0.0474871 0.008,-0.10988251 0.008,-0.18755501 0.006,-0.0611071 0.01,-0.12295081 0.0131,-0.18773915 0.004,-0.063868 0.006,-0.10933042 0.012,-0.13730711 m -0.16676,-1.15827634 c -0.0166,-0.027241 -0.0243,-0.046015 -0.0243,-0.053929 0,-0.00865 0.005,-0.012146 0.0166,-0.012146 0.005,0 0.012,0.00275 0.0208,0.00791 0.008,0.0057 0.0123,0.014358 0.0123,0.025033 0.006,0.00589 0.012,0.018038 0.0208,0.037548 0.008,0.019325 0.0152,0.040125 0.0208,0.062396 0.0109,0.0173 0.0194,0.037548 0.0243,0.06258 0.006,0.025217 0.01,0.046015 0.01,0.06258 0,0.027975 -0.004,0.04307 -0.005,0.045278 -0.004,0.00368 -0.01,-0.00349 -0.0208,-0.020063 -0.005,-0.0057 -0.012,-0.018037 -0.0201,-0.037364 -0.008,-0.019512 -0.0127,-0.037364 -0.0127,-0.054665 -0.005,-0.016566 -0.0123,-0.037364 -0.0212,-0.06258 -0.008,-0.024479 -0.0152,-0.045278 -0.0208,-0.06258 m 1.25821,-2.2324387 -0.0999,-0.074727 -0.2172,0.00791 c -0.12718,0 -0.22141,0.00423 -0.28251,0.012883 -0.0611,0.00791 -0.1222,0.028896 -0.18334,0.061843 -0.0279,0.011596 -0.0525,0.0208 -0.0755,0.02945 -0.0215,0.00792 -0.0353,0.013067 -0.041,0.013067 -0.006,0 -0.0582,0.032209 -0.15886,0.099207 -0.0992,0.066813 -0.16327,0.111355 -0.19124,0.1336262 -0.0332,0.033129 -0.0611,0.074911 -0.0834,0.1251592 -0.0222,0.049512 -0.0275,0.085587 -0.0173,0.1085942 0.0279,0.043806 0.0883,0.086875 0.17981,0.1286566 0.092,0.041781 0.23432,0.08982 0.42923,0.1459579 0.0388,0.010858 0.1294,0.013621 0.27019,0.00791 0.14245,-0.00497 0.23227,-0.013621 0.27111,-0.024479 0.0166,-0.0057 0.0388,-0.012884 0.0668,-0.0208 0.0275,-0.00865 0.0583,-0.015829 0.0913,-0.0208 0.0611,-0.022271 0.15036,-0.061107 0.26688,-0.117245 0.11631,-0.055401 0.19399,-0.099207 0.23283,-0.1330737 0.0339,-0.022271 0.0519,-0.038836 0.0539,-0.050248 0.004,-0.010858 0,-0.027425 -0.012,-0.049695 -0.0275,-0.050248 -0.0648,-0.096999 -0.11229,-0.1415408 -0.0473,-0.044542 -0.10121,-0.080617 -0.16231,-0.1085941 -0.0332,-0.016567 -0.0705,-0.037364 -0.11229,-0.06258 -0.0423,-0.025216 -0.0789,-0.048223 -0.11282,-0.070494 m -1.3747,1.3574271 c 0.006,-0.00497 0.0109,-0.00939 0.0166,-0.011412 0.006,-0.00368 0.0116,-0.00515 0.0166,-0.00515 0.0113,0 0.0712,0.056138 0.17907,0.1669404 0.10841,0.1106188 0.17893,0.1890275 0.21276,0.2335696 0.0279,0.038836 0.0698,0.1122754 0.12517,0.2206854 0.0552,0.1085942 0.0913,0.1847942 0.10841,0.2293362 0.0219,0.055401 0.0403,0.1647317 0.0539,0.3287275 0.0138,0.1638113 0.0289,0.4319838 0.046,0.8045172 0.0109,0.38817796 0.0166,0.61033588 0.0166,0.66647376 0,0.05540128 -0.008,0.09699836 -0.0254,0.1251592 -0.0162,0.0272415 -0.031,0.04233334 -0.0416,0.04527832 -0.0109,0.0027517 -0.0222,-0.003683 -0.0339,-0.02098322 0,-0.0057044 -0.006,-0.01214966 -0.0201,-0.02079978 -0.0145,-0.0079163 -0.0325,-0.01214966 -0.0546,-0.01214966 -0.0272,0 -0.046,-0.0044168 -0.0539,-0.01306689 -0.008,-0.0079163 -0.0159,-0.02576689 -0.0208,-0.05392914 -0.0116,-0.03294591 -0.0166,-0.06239545 -0.0166,-0.0876113 0,-0.0244792 0.005,-0.0762 0.0166,-0.15387249 0.005,-0.0274249 0.008,-0.0583463 0.008,-0.0912929 0,-0.0338667 -0.004,-0.0590825 -0.008,-0.0749113 -0.006,-0.0171168 -0.007,-0.0366275 -0.004,-0.0588987 0.004,-0.0215336 0.008,-0.0495117 0.0201,-0.0833783 0.0222,-0.0719667 0.0346,-0.22215792 0.0381,-0.4492854 0.004,-0.2280475 -0.005,-0.3861534 -0.0219,-0.4752375 -0.0386,-0.1669405 -0.0804,-0.3027751 -0.12422,-0.4084246 -0.0447,-0.1049129 -0.1029,-0.2085375 -0.1754,-0.3077446 -0.0166,-0.033867 -0.0332,-0.064788 -0.0504,-0.092029 -0.0166,-0.027975 -0.0272,-0.047487 -0.0332,-0.058898 -0.005,-0.015829 -0.0106,-0.028896 -0.0162,-0.036812 -0.005,-0.00847 -0.0109,-0.012883 -0.0166,-0.012883 -0.0109,0 -0.018,-7.409e-4 -0.0212,-0.00423 -0.004,-0.00222 -0.004,-0.00939 -0.004,-0.020983 0.0109,-0.016383 0.007,-0.048039 -0.012,-0.095526 -0.0194,-0.046751 -0.0433,-0.08117 -0.0712,-0.1036245 -0.0109,-0.011412 -0.0187,-0.023559 -0.0244,-0.0381 -0.006,-0.013621 -0.008,-0.023745 -0.008,-0.02945 m -0.009,0.7003404 c 0,-0.010858 0.0102,-0.013621 0.0293,-0.00791 0.0194,0.00497 0.0346,0.016566 0.046,0.033129 0.0116,0.022271 0.0152,0.035892 0.0123,0.041597 -0.004,0.00515 -0.0102,0.00792 -0.0208,0.00792 -0.0109,0 -0.0254,-0.00939 -0.0418,-0.028713 -0.0166,-0.019509 -0.0254,-0.034604 -0.0254,-0.046015 m 0.51703,-5.2241159 c 0,-0.0057 0.005,-0.013621 0.0166,-0.024479 0.0222,0 0.0374,0.039573 0.0453,0.1201896 0.01,0.080433 0.0127,0.1789046 0.0127,0.2961496 -0.006,0.010858 -0.007,0.033129 -0.004,0.066077 0.004,0.033867 0.004,0.069758 0.004,0.1085942 0.006,0.038836 0.007,0.079145 0.005,0.1207421 -0.004,0.041781 -0.0102,0.08209 -0.0208,0.1209259 -0.006,0.027975 -0.013,0.06534 -0.0208,0.1128275 -0.008,0.046751 -0.0159,0.087059 -0.0208,0.120742 -0.0166,0.1444855 -0.0332,0.2538159 -0.0497,0.3285434 -0.0169,0.075648 -0.0416,0.1682288 -0.0755,0.2797679 -0.0166,0.033129 -0.0303,0.069022 -0.0416,0.1078579 -0.0116,0.038836 -0.0194,0.069758 -0.0254,0.092029 -0.005,0.016566 -0.0152,0.037364 -0.0286,0.06258 -0.0138,0.025033 -0.0268,0.046015 -0.0381,0.06258 -0.0325,0.038652 -0.0606,0.078961 -0.0828,0.1207421 -0.0222,0.041597 -0.0388,0.086875 -0.0502,0.1373071 -0.0222,0.094238 -0.0525,0.1954695 -0.0913,0.3040637 -0.0388,0.1078579 -0.0611,0.1682291 -0.067,0.1790884 -0.005,0 -0.0152,0.00293 -0.0286,0.00792 -0.0145,0.0057 -0.0265,0.011412 -0.0374,0.0173 -0.0173,0.00497 -0.0265,0.00644 -0.0293,0.00423 -0.004,-0.00293 0,-0.018038 0.004,-0.046015 l 0.0166,-0.1415405 c 0.006,-0.0173 0.0124,-0.036812 0.0208,-0.058347 0.008,-0.022271 0.0152,-0.039573 0.0208,-0.050248 0.0113,-0.010859 0.0208,-0.024479 0.0286,-0.041781 0.008,-0.016566 0.0159,-0.033129 0.0208,-0.050248 0.0229,-0.049696 0.0562,-0.117245 0.10068,-0.2035679 0.044,-0.086323 0.0885,-0.1652842 0.13307,-0.2379871 0.0222,-0.038836 0.0411,-0.074727 0.0582,-0.1078579 0.0166,-0.032946 0.0251,-0.055954 0.0251,-0.066813 0,-0.0057 0,-0.015092 0.004,-0.02945 0.004,-0.013621 0.01,-0.028713 0.0208,-0.045278 0.0173,-0.039573 0.0396,-0.1266321 0.0668,-0.2624667 0.0279,-0.1358346 0.0418,-0.2343058 0.0418,-0.2961492 0,-0.016566 0.004,-0.031658 0.008,-0.045278 0.005,-0.013804 0.008,-0.023742 0.008,-0.029633 0.0229,-0.022271 0.043,-0.1581059 0.0631,-0.4082405 0.0187,-0.2495825 0.0201,-0.3854171 0.004,-0.4084245 -0.006,-0.010858 -0.009,-0.023008 -0.009,-0.036628 0,-0.014354 0.004,-0.02945 0.009,-0.046015 0.0106,-0.0173 0.0166,-0.032396 0.0166,-0.046014 0,-0.014358 -0.004,-0.026688 -0.008,-0.037364 -0.006,-0.011596 -0.0117,-0.020983 -0.0173,-0.029633 -0.005,-0.00791 -0.008,-0.015092 -0.008,-0.0208 m 0.29118,2.8744326 c 0.0611,-0.011412 0.14891,-0.016567 0.26321,-0.016567 0.11356,0 0.18976,0.00515 0.2286,0.016567 0.0222,0.00589 0.0517,0.018038 0.0876,0.0381 0.0361,0.018775 0.0705,0.040309 0.10436,0.061843 0.0272,0.022271 0.0582,0.044542 0.0913,0.066997 0.0339,0.022271 0.0582,0.036627 0.0747,0.041597 0.0229,0.016566 0.0618,0.058347 0.11727,0.1251595 0.0554,0.066813 0.10784,0.1437492 0.15808,0.2328334 0.0282,0.050432 0.046,0.086323 0.0539,0.1085941 0.008,0.022271 0.0123,0.049695 0.0123,0.083378 -0.005,0.038836 -0.0109,0.064052 -0.0166,0.074911 -0.005,0.010675 -0.0187,0.019325 -0.0418,0.024296 -0.0106,0.00589 -0.0257,0.014541 -0.046,0.02595 -0.0187,0.010858 -0.0346,0.021534 -0.0453,0.033129 -0.0335,0.027242 -0.0747,0.05669 -0.12516,0.086875 -0.0495,0.030921 -0.0883,0.048959 -0.11631,0.054665 -0.0116,0 -0.0254,0.00442 -0.0418,0.012333 -0.0166,0.00865 -0.0279,0.015829 -0.0339,0.0208 -0.0106,0.011412 -0.0258,0.019325 -0.0453,0.025217 -0.0194,0.00497 -0.0401,0.010675 -0.0624,0.016566 -0.0226,0.0057 -0.049,0.01215 -0.0791,0.0208 -0.031,0.00791 -0.0569,0.017854 -0.0792,0.02945 -0.0611,0.027975 -0.13159,0.048223 -0.21202,0.06258 -0.0813,0.013621 -0.17392,0.020062 -0.27975,0.020062 -0.0884,0 -0.15022,-7.408e-4 -0.18334,-0.00349 -0.0328,-0.00293 -0.0747,-0.015829 -0.12496,-0.037364 -0.1331,-0.061291 -0.26394,-0.1380437 -0.3913,-0.2295204 -0.12791,-0.092029 -0.20341,-0.1652838 -0.22493,-0.2206854 -0.0109,-0.027975 -0.0159,-0.047487 -0.0127,-0.058162 0.004,-0.011596 0.0127,-0.030921 0.0293,-0.058347 0.0445,-0.066813 0.11575,-0.1459579 0.21202,-0.2379867 0.097,-0.091293 0.17117,-0.1479825 0.2214,-0.1702537 0.0215,-0.016566 0.0589,-0.038836 0.11229,-0.066997 0.0532,-0.027241 0.10122,-0.052456 0.14595,-0.074727 0.0495,-0.027975 0.0985,-0.053192 0.14524,-0.074727 0.0473,-0.022271 0.0819,-0.033867 0.10417,-0.033867 m -1.016,2.4661922 v -0.020983 c 0,-0.00792 -0.004,-0.015092 -0.008,-0.0208 -0.0109,-0.010675 -0.0194,-0.00939 -0.0244,0.00515 -0.006,0.013621 -0.004,0.028713 0.008,0.045278 0.006,0.010675 0.01,0.016379 0.012,0.016379 0.004,0 0.007,-0.00791 0.013,-0.025033 m -0.13363,-1.2245375 c 0,-0.011412 0.004,-0.021534 0.004,-0.02945 0.004,-0.00792 0.006,-0.01215 0.0123,-0.01215 0.006,0 0.01,0.00275 0.0131,0.00792 0.004,0.0057 0.004,0.011412 0.004,0.0173 0.0166,0.027242 0.0303,0.049511 0.0411,0.066077 0.0279,0.027975 0.0433,0.05172 0.046,0.07123 0.004,0.019325 -0.006,0.028713 -0.0293,0.028713 -0.0166,0 -0.0353,-0.0173 -0.0576,-0.053929 -0.0229,-0.035891 -0.0335,-0.06755 -0.0335,-0.09571 m -0.0999,-0.2753505 c 0,-0.010675 0,-0.020062 0.004,-0.028713 0.004,-0.00865 0.007,-0.012883 0.0131,-0.012883 0.005,0 0.0145,0.017854 0.0286,0.054665 0.0138,0.035891 0.0201,0.062396 0.0201,0.078961 0,0.028162 -0.01,0.025217 -0.0321,-0.00865 -0.0226,-0.032946 -0.0339,-0.061107 -0.0339,-0.083378 m 1.17485,-4.0908713 c 0.0106,-0.010858 0.0222,-0.020983 0.0335,-0.028896 0.0109,-0.00791 0.0187,-0.012146 0.0243,-0.012146 0.0109,0 0.0201,0.033129 0.0254,0.099207 0.006,0.066813 0.008,0.2171883 0.008,0.4500217 0.006,0.2668841 0.004,0.5422346 -0.008,0.8255 -0.0109,0.283265 -0.0254,0.4745012 -0.0418,0.5744446 0,0.027975 -0.004,0.064052 -0.012,0.1085941 -0.009,0.043806 -0.0152,0.086323 -0.0208,0.1249755 -0.006,0.033129 -0.0116,0.066997 -0.0166,0.099943 -0.006,0.033129 -0.008,0.055402 -0.008,0.066261 0,0.016566 -0.006,0.039573 -0.0166,0.066813 -0.0113,0.027979 -0.0222,0.055402 -0.0332,0.083378 -0.0113,0.028162 -0.0208,0.056874 -0.0293,0.087796 -0.009,0.030187 -0.0131,0.05172 -0.0131,0.061843 0,0.061843 -0.0604,0.1516637 -0.18256,0.2716695 -0.12224,0.1187172 -0.23947,0.2092738 -0.35028,0.2703809 -0.0106,0.0057 -0.0208,0.012884 -0.0286,0.0208 -0.008,0.00865 -0.0159,0.015092 -0.0215,0.020983 0,0.011412 -0.004,0.019325 -0.008,0.025033 -0.005,0.00515 -0.0102,0.00791 -0.0159,0.00791 -0.0279,0 -0.0834,0.035339 -0.16676,0.1043609 -0.0834,0.069758 -0.12517,0.1150362 -0.12517,0.1380437 0,0.010675 0,0.020062 -0.004,0.028712 -0.004,0.00792 -0.006,0.01215 -0.0123,0.01215 -0.0166,0.011596 -0.0346,0.043253 -0.0539,0.096446 -0.0201,0.052457 -0.0321,0.1006796 -0.0381,0.1452217 0,0.022271 -0.004,0.048775 -0.008,0.079697 -0.006,0.030187 -0.0113,0.053929 -0.0162,0.070494 -0.006,0.033867 -0.008,0.053929 -0.005,0.06258 0.004,0.00792 0.01,0.015092 0.0208,0.020063 0.0116,0 0.018,0.00368 0.0208,0.00939 0.004,0.00515 0.004,0.010859 0.004,0.016566 -0.0173,0.00497 -0.0366,-0.0057 -0.0581,-0.033867 -0.0222,-0.027242 -0.0368,-0.055217 -0.0418,-0.083378 -0.006,-0.010675 -0.007,-0.030187 -0.004,-0.058162 0.004,-0.027242 0.006,-0.053193 0.012,-0.074727 0.006,-0.050432 0.0268,-0.117245 0.0626,-0.199887 0.0359,-0.083378 0.0625,-0.13381 0.0791,-0.1503754 0.0113,0 0.018,-0.00497 0.0208,-0.016379 0.004,-0.010859 0.004,-0.019512 0.004,-0.025217 0,-0.010859 0.005,-0.022271 0.0123,-0.033129 0.008,-0.010859 0.018,-0.022271 0.0286,-0.033683 0.0173,-0.00515 0.0353,-0.016566 0.0547,-0.033129 0.0194,-0.016566 0.0353,-0.033129 0.046,-0.049695 0.0166,-0.017117 0.0388,-0.036628 0.0668,-0.058162 0.0275,-0.022271 0.0525,-0.039573 0.0747,-0.050432 0.0497,-0.022271 0.1222,-0.077488 0.21646,-0.1667567 0.0942,-0.088348 0.14245,-0.1444854 0.14245,-0.1667562 0,-0.00497 0,-0.012146 0.004,-0.020063 0.004,-0.00865 0.0102,-0.015829 0.0208,-0.02172 0.0109,-0.00497 0.0332,-0.040125 0.067,-0.1034408 0.0328,-0.064052 0.0639,-0.1402521 0.0913,-0.2293359 0.0166,-0.049696 0.0346,-0.1345466 0.0546,-0.2545521 0.0194,-0.1192696 0.0346,-0.2538159 0.0453,-0.4032709 0.006,-0.023008 0.0113,-0.046015 0.0166,-0.07123 0.006,-0.025216 0.0113,-0.040309 0.0173,-0.046015 0.006,-0.00515 0.0109,-0.027425 0.0159,-0.066261 0.006,-0.039388 0.0116,-0.080433 0.0173,-0.1249754 0,-0.044542 0.004,-0.1115392 0.0131,-0.1998871 0.008,-0.089268 0.0145,-0.1754071 0.0201,-0.2587854 0.006,-0.088532 0.01,-0.1704375 0.013,-0.245165 0.004,-0.075648 0,-0.1352825 -0.004,-0.1790884 -0.006,-0.050432 -0.007,-0.090557 -0.004,-0.120742 0.004,-0.030921 0.006,-0.05761 0.0124,-0.079881 0.006,-0.022271 0.008,-0.037364 0.008,-0.045278 0,-0.00865 -0.005,-0.018038 -0.0162,-0.02945 -0.0166,-0.0057 -0.0251,-0.011596 -0.0251,-0.016566 0,-0.0057 0.008,-0.019509 0.0251,-0.041781 0.0113,-0.022271 0.0162,-0.038836 0.0162,-0.050248 0,-0.010858 -0.008,-0.030184 -0.0251,-0.058162 l -0.0332,-0.058346 z m -1.04969,2.7500092 c 0.0328,-0.027975 0.0525,-0.036627 0.0582,-0.025216 0.006,0.011596 -0.006,0.036075 -0.0332,0.075648 -0.0446,0.066077 -0.0725,0.1091462 -0.0841,0.1286563 -0.01,0.019325 -0.0159,0.034421 -0.0159,0.045278 0,0.0057 -0.004,0.015829 -0.009,0.02945 -0.006,0.014358 -0.0138,0.026688 -0.0243,0.037364 -0.0339,0.039573 -0.0641,0.1043609 -0.092,0.19639 -0.0282,0.091292 -0.0554,0.2206854 -0.0834,0.3867058 -0.006,0.045278 -0.009,0.078408 -0.009,0.1006796 0,0.021534 0.004,0.0381 0.009,0.049695 0.006,0.010675 0.008,0.022271 0.008,0.033683 0,0.010858 -0.004,0.021533 -0.008,0.033129 -0.0109,0.022271 -0.01,0.1027042 0.004,0.2414838 0.0138,0.1387796 0.0286,0.2530796 0.046,0.3416117 0.0215,0.089084 0.0467,0.1667563 0.0747,0.2335692 0.0282,0.066261 0.0525,0.1021525 0.0747,0.1078583 0.006,0.00589 0.0102,0.011596 0.013,0.0173 0.004,0.00497 0,0.013621 -0.005,0.024479 -0.006,0.010675 -0.006,0.023742 0,0.037364 0.006,0.013621 0.0159,0.032396 0.0332,0.053929 0.0166,0.011412 0.0286,0.023742 0.0374,0.037364 0.008,0.014355 0.0127,0.023742 0.0127,0.02945 0,0.0057 0.0243,0.037364 0.0749,0.09571 0.0502,0.058162 0.0941,0.1098829 0.13285,0.1546087 0.0173,0.01638 0.0282,0.038652 0.0339,0.066077 0.005,0.027975 0,0.044542 -0.0166,0.050248 -0.006,0.00589 -0.0102,0.00663 -0.0127,0.00442 -0.004,-0.00293 -0.005,-0.00718 -0.005,-0.012333 -0.0495,-0.078225 -0.0913,-0.1385955 -0.12421,-0.1833217 -0.10068,-0.1336258 -0.17265,-0.2350417 -0.2172,-0.3040634 -0.0445,-0.069758 -0.0727,-0.1244233 -0.0834,-0.1625233 -0.006,-0.022271 -0.0152,-0.05172 -0.0293,-0.087612 -0.0137,-0.036075 -0.0261,-0.067733 -0.0368,-0.09571 -0.0113,-0.033867 -0.0236,-0.0762 -0.0381,-0.1293928 -0.0138,-0.052456 -0.0236,-0.1014159 -0.0286,-0.145958 -0.0113,-0.049695 -0.0208,-0.092765 -0.0293,-0.1286563 -0.008,-0.036628 -0.0152,-0.05761 -0.0201,-0.06258 -0.006,-0.011596 -0.008,-0.019509 -0.008,-0.025216 0,-0.0057 0.004,-0.013621 0.008,-0.025217 0.005,-0.0057 0.0123,-0.032946 0.0201,-0.083378 0.008,-0.049511 0.0159,-0.1078579 0.0208,-0.1746708 0.0116,-0.1387796 0.0212,-0.2414842 0.0296,-0.3084813 0.008,-0.066077 0.0208,-0.1192692 0.0376,-0.1581054 0.0718,-0.1444855 0.13011,-0.2580492 0.1754,-0.3416117 0.0445,-0.083378 0.0797,-0.1365708 0.10785,-0.1581058 m 0.19124,-2.6329484 c 0.0396,-0.022271 0.071,-0.035154 0.0963,-0.037364 0.025,-0.00275 0.0482,0.00148 0.0705,0.012333 0.0113,0.0057 0.0187,0.038836 0.0215,0.099944 0.004,0.061107 0,0.1969417 -0.005,0.4082405 0,0.2330171 -0.004,0.4516779 -0.0124,0.6543258 -0.008,0.2028317 -0.0229,0.4069521 -0.046,0.6125446 -0.0106,0.1165088 -0.0401,0.2466379 -0.0876,0.3911233 -0.0467,0.1444855 -0.0871,0.222158 -0.12019,0.2330172 -0.0113,0 -0.0194,0.00865 -0.0251,0.025954 -0.006,0.015646 -0.0116,0.035892 -0.0173,0.057426 -0.005,0.023008 -0.0116,0.043069 -0.0201,0.063316 -0.008,0.018591 -0.0208,0.037364 -0.0375,0.053929 -0.0279,0.027242 -0.0891,0.1027042 -0.1833,0.2241826 -0.0948,0.1223983 -0.15593,0.2085375 -0.18334,0.2589695 -0.0113,0.022271 -0.0236,0.049511 -0.0374,0.082642 -0.0145,0.033867 -0.0236,0.061107 -0.0296,0.084115 l -0.008,0.041045 c -0.0106,0.027975 -0.0208,0.055954 -0.0286,0.084115 -0.008,0.027242 -0.0152,0.04675 -0.0208,0.058162 -0.0222,0.071967 -0.0346,0.17191 -0.0376,0.2998304 -0.004,0.1271842 0.005,0.2330175 0.0212,0.3163954 0.0106,0.038836 0.0208,0.074728 0.0286,0.1085942 0.008,0.032946 0.0152,0.055217 0.0208,0.066077 0,0.0057 0,0.015092 0.005,0.028713 0.004,0.014358 0.004,0.024479 0.004,0.030187 0,0.04399 0.0243,0.1108029 0.0747,0.1991508 0.0504,0.089268 0.13085,0.2193971 0.24165,0.3918592 0.1,0.1452217 0.16824,0.2503188 0.20412,0.3163955 0.0367,0.066813 0.0598,0.1229508 0.0712,0.1667566 0.0109,0.028162 0.0222,0.059083 0.0332,0.092029 0.0106,0.033129 0.0194,0.055402 0.0251,0.066813 0.0226,0.049696 0.0388,0.168965 0.0504,0.3581767 0.0102,0.1882912 0.0159,0.43861 0.0159,0.74985204 0,0.28897086 0,0.46235337 0.004,0.52051549 0.004,0.0583466 0.0131,0.0935016 0.0293,0.10436084 0.0166,0.016383 0.0254,0.0265042 0.0254,0.0287126 0,0.002752 -0.008,0.009938 -0.0254,0.02153355 -0.0279,0.0108585 -0.0582,0.01656645 -0.092,0.01656645 -0.0328,0 -0.0581,-0.0086501 -0.0747,-0.02521656 -0.0113,-0.0108585 -0.018,-0.04527797 -0.0208,-0.10417668 -0.004,-0.0583463 -0.005,-0.18773916 -0.005,-0.38762587 0,-0.16105081 -0.004,-0.28749871 -0.008,-0.37879125 -0.006,-0.0920291 -0.0113,-0.15976251 -0.0162,-0.20430421 -0.0116,-0.038836 -0.0201,-0.086323 -0.0261,-0.1415408 -0.005,-0.056137 -0.0109,-0.1028883 -0.0166,-0.1417246 0,-0.049511 -0.004,-0.094237 -0.012,-0.1336258 -0.008,-0.038836 -0.018,-0.071967 -0.0289,-0.099207 -0.0113,-0.0173 -0.018,-0.036812 -0.0215,-0.058347 -0.004,-0.022271 -0.004,-0.036628 -0.004,-0.042333 0.0113,-0.033129 -0.0166,-0.1496391 -0.0834,-0.3495259 -0.067,-0.199887 -0.11652,-0.3169478 -0.15039,-0.3500783 -0.005,-0.010859 -0.012,-0.022271 -0.0201,-0.033129 -0.008,-0.011412 -0.0127,-0.022271 -0.0127,-0.033683 0,-0.00589 -0.006,-0.016567 -0.0166,-0.033129 -0.0109,-0.016567 -0.0254,-0.035891 -0.0418,-0.058162 -0.0166,-0.016566 -0.0303,-0.033867 -0.0416,-0.049696 -0.0116,-0.0173 -0.0166,-0.030921 -0.0166,-0.042333 0,-0.00515 -0.007,-0.022454 -0.0215,-0.049695 -0.0138,-0.027975 -0.031,-0.056138 -0.0539,-0.083378 -0.0166,-0.033867 -0.0346,-0.069758 -0.0539,-0.1085942 -0.0194,-0.0381 -0.0317,-0.069022 -0.0375,-0.091293 -0.0279,-0.099943 -0.046,-0.2567608 -0.0539,-0.4710042 -0.008,-0.2135071 0,-0.3651708 0.0201,-0.4535187 0.0113,-0.061291 0.0293,-0.1187172 0.0547,-0.1711738 0.025,-0.052457 0.0539,-0.1014159 0.0876,-0.1459579 0.0109,-0.016567 0.0243,-0.035891 0.0411,-0.058346 0.0173,-0.022271 0.0311,-0.041597 0.0418,-0.058162 l 0.008,-0.016566 c 0.006,-0.011412 0.0131,-0.023745 0.0208,-0.037364 0.008,-0.014358 0.0152,-0.023745 0.0208,-0.02945 l 0.0503,-0.074728 0.008,-0.00865 c 0.0116,-0.022271 0.0236,-0.041781 0.0381,-0.058347 0.0137,-0.01638 0.0261,-0.033683 0.0368,-0.050248 0.0113,-0.016566 0.0236,-0.037364 0.0381,-0.061844 0.0138,-0.025954 0.0236,-0.046014 0.0286,-0.06258 l 0.0503,-0.13289 c 0.0116,-0.033867 0.0208,-0.060555 0.0289,-0.079881 0.008,-0.019512 0.007,-0.00939 -0.004,0.02945 0.0109,-0.033867 0.0208,-0.066813 0.0286,-0.099943 0.008,-0.033129 0.0123,-0.056138 0.0123,-0.066813 0,-0.010859 0,-0.023742 0.004,-0.037364 0.004,-0.013804 0.007,-0.023742 0.0127,-0.02945 0.005,-0.00589 0.0124,-0.023742 0.0212,-0.053929 0.008,-0.030187 0.0152,-0.06847 0.0201,-0.1130116 l 0.009,-0.040861 c 0.0113,-0.045278 0.0194,-0.087796 0.0251,-0.1295767 0.006,-0.041597 0.0106,-0.071047 0.0166,-0.087612 0.0339,-0.155345 0.0532,-0.3717971 0.0582,-0.6499087 0.006,-0.2775592 -0.004,-0.5637692 -0.0243,-0.8577097 l -0.008,-0.1503754 z m -0.50765,0.4746854 c 0,-0.1446696 0,-0.231545 0.004,-0.2624667 0.004,-0.030184 0.013,-0.046014 0.0296,-0.046014 0.0106,0 0.0194,0.00994 0.025,0.02945 0.006,0.019325 0.0109,0.056874 0.0166,0.1128275 0.0166,0.2273117 0.018,0.4665871 0.004,0.7161696 -0.0138,0.2501346 -0.0396,0.4557275 -0.0784,0.616778 -0.0109,0.0381 -0.0201,0.084115 -0.025,0.1373074 -0.006,0.05264 -0.0113,0.098655 -0.0166,0.1374913 0,0.032946 -0.004,0.066813 -0.008,0.099943 -0.005,0.032946 -0.008,0.052456 -0.008,0.058162 -0.0109,0.0173 -0.0243,0.046014 -0.0418,0.087796 -0.0166,0.041597 -0.0411,0.1128275 -0.0748,0.2120346 -0.0109,0.050248 -0.0258,0.1027045 -0.0453,0.158842 -0.0194,0.055401 -0.0353,0.099943 -0.046,0.1330738 -0.0116,0.033683 -0.0212,0.068285 -0.0296,0.104177 -0.008,0.036075 -0.012,0.06258 -0.012,0.079145 0,0.066813 -0.012,0.099944 -0.0374,0.099944 -0.0254,0 -0.0403,-0.035891 -0.046,-0.1085942 -0.005,-0.027975 -0.005,-0.052457 0,-0.074728 0.006,-0.022271 0.0138,-0.047487 0.0254,-0.074727 0.0106,-0.022454 0.0222,-0.048959 0.0328,-0.079145 0.0116,-0.030921 0.0194,-0.056874 0.0254,-0.079145 0.006,-0.027975 0.0152,-0.064052 0.0286,-0.1085941 0.0145,-0.044542 0.0268,-0.086139 0.0381,-0.1249754 0.0166,-0.038836 0.0318,-0.079145 0.046,-0.1209259 0.0138,-0.041597 0.0201,-0.07031 0.0201,-0.086875 0.0166,-0.044542 0.0396,-0.1625233 0.0668,-0.3544955 0.0279,-0.1919724 0.0475,-0.3401391 0.0582,-0.4457883 0.006,-0.050248 0.0116,-0.099944 0.0166,-0.1501912 0.006,-0.049696 0.0116,-0.085587 0.0173,-0.107858 0.006,-0.0173 0.008,-0.034604 0.008,-0.053929 0,-0.020246 -0.004,-0.032396 -0.008,-0.0381 -0.006,-0.010859 -0.009,-0.024479 -0.009,-0.041045 0,-0.0173 0.004,-0.033867 0.009,-0.050248 0.006,-0.016566 0.01,-0.061107 0.012,-0.1338104 0.004,-0.071967 0.004,-0.1524 0.004,-0.2414838 m -0.56653,2.6831963 c 0.0272,-0.011596 0.0539,-0.020983 0.079,-0.02945 0.0243,-0.00792 0.0375,-0.00736 0.0375,0.00423 -0.0275,0.061107 -0.0504,0.1108029 -0.067,0.1501912 -0.0495,0.1108029 -0.0848,0.2315446 -0.10343,0.36241 -0.0201,0.1308651 -0.0159,0.2459013 0.012,0.3451084 0.0166,0.072703 0.0403,0.1424608 0.0705,0.2085379 0.0303,0.066813 0.0569,0.111355 0.0799,0.13381 0.0106,0.011412 0.0208,0.021534 0.0286,0.032946 0.008,0.010858 0.012,0.019509 0.012,0.025217 0,0.0057 0.0102,0.027975 0.0293,0.066077 0.0194,0.039573 0.0403,0.086323 0.0626,0.1424608 l -0.0747,-0.1833216 c 0.0215,0.044542 0.0453,0.096998 0.0705,0.1581058 0.0251,0.061107 0.0683,0.1581055 0.12936,0.2911796 l 0.008,0.033867 c 0.0113,0.022271 0.0208,0.040861 0.0293,0.058162 0.008,0.016566 0.0152,0.027242 0.0208,0.033129 0.006,0.011412 0.0109,0.027975 0.0166,0.050248 0.006,0.022271 0.008,0.043806 0.008,0.066261 v 0.046015 c 0,0.014355 0.004,0.023559 0.008,0.02945 0.006,0.00497 0.0138,0.038836 0.0254,0.099943 0.0106,0.061107 0.0279,0.1610508 0.0495,0.2998304 0.006,0.027975 0.0102,0.053929 0.0131,0.078961 0.004,0.025217 0.004,0.040309 0.004,0.046015 v 0.033129 c 0,0.027975 0,0.053192 -0.004,0.074728 -0.004,0.022271 -0.005,0.038836 -0.005,0.050432 0,0.032946 0,0.07031 0.005,0.1128275 0.004,0.041045 0.006,0.072519 0.012,0.095526 0,0.027425 0,0.087795 0.004,0.1790883 0.004,0.091293 0.004,0.19050001 0.004,0.2955971 0,0.17246211 0,0.27884754 0.004,0.32062878 0.004,0.0415971 0.0131,0.0682854 0.0296,0.0789608 0.006,0 0.01,0.002928 0.0127,0.00865 0.004,0.005891 0.004,0.0108585 0.004,0.0165664 -0.0106,0.0115958 -0.0431,0.0115958 -0.0955,0 -0.0532,-0.0106751 -0.0935,-0.0252166 -0.12072,-0.0410446 -0.0447,-0.0279788 -0.0713,-0.063132 -0.0792,-0.10491328 -0.008,-0.0408608 -0.007,-0.1257113 0.004,-0.25381585 0.0166,-0.14448542 0.0243,-0.31915635 0.0243,-0.52474915 0,-0.2055926 -0.008,-0.372533 -0.0243,-0.4997172 -0.0222,-0.2228941 -0.0388,-0.36241 -0.0502,-0.4213087 -0.0109,-0.058346 -0.0222,-0.1036246 -0.0332,-0.1373071 -0.006,-0.00589 -0.0131,-0.022271 -0.0208,-0.050432 -0.008,-0.027242 -0.0187,-0.052457 -0.0293,-0.074728 -0.0166,-0.066077 -0.0539,-0.1568175 -0.11225,-0.2703812 -0.0582,-0.1143 -0.10989,-0.1984146 -0.15445,-0.2545521 -0.0166,-0.022271 -0.0317,-0.043806 -0.0454,-0.066813 -0.0138,-0.021534 -0.0208,-0.035891 -0.0208,-0.040861 0,-0.011596 -0.006,-0.030921 -0.0166,-0.059083 -0.0113,-0.027241 -0.0222,-0.055401 -0.0335,-0.082642 -0.0222,-0.050248 -0.0361,-0.086323 -0.0411,-0.1085942 -0.006,-0.022271 -0.006,-0.041597 0,-0.058162 0.005,-0.016567 0.008,-0.034604 0.008,-0.053929 v -0.046015 c -0.006,-0.0173 -0.008,-0.033867 -0.008,-0.050432 v -0.032946 c 0.005,-0.00589 0.009,-0.019509 0.0124,-0.041781 0.004,-0.022271 0.004,-0.044542 0.004,-0.066813 0.006,-0.038836 0.0254,-0.1122754 0.0589,-0.2206854 0.0332,-0.107858 0.0583,-0.1733826 0.0749,-0.1956538 0.006,-0.00497 0.0162,-0.014354 0.0328,-0.025216 0.0166,-0.010675 0.0339,-0.022271 0.0504,-0.032946 m -0.12513,-1.9081284 c 0.005,-0.00589 0.0194,-0.00589 0.0418,0 0.0215,0.0057 0.0381,0.013621 0.0495,0.025033 0.0173,0.022271 0.0173,0.1689654 0,0.441555 -0.0166,0.2716695 -0.0416,0.4802071 -0.0747,0.6246925 -0.006,0.038836 -0.0123,0.080618 -0.0208,0.1251596 -0.009,0.044542 -0.0124,0.074727 -0.0124,0.092029 0,0.0381 -0.0187,0.1157725 -0.0546,0.2328334 -0.0359,0.1165087 -0.0733,0.2164521 -0.11286,0.2998304 -0.0272,0.061107 -0.0546,0.1345462 -0.0826,0.2208696 -0.0275,0.086139 -0.0418,0.1430129 -0.0418,0.1709896 0,0.010858 0,0.027425 -0.004,0.050432 -0.004,0.021534 -0.006,0.043806 -0.0123,0.066077 -0.0162,0.061107 -0.0162,0.1481667 0,0.2624667 0.0166,0.1143 0.0497,0.2401954 0.0999,0.378975 0.12735,0.3832088 0.21075,0.6650013 0.2503,0.8461146 0.0381,0.1805608 0.0639,0.3955404 0.0747,0.645675 0.006,0.1108029 0.006,0.1855304 0,0.2251029 -0.006,0.038836 -0.0166,0.058162 -0.0339,0.058162 -0.0272,0 -0.0467,-0.023742 -0.0582,-0.07123 -0.0109,-0.04675 -0.0194,-0.1430129 -0.0243,-0.2874983 -0.006,-0.1610508 -0.0127,-0.2703813 -0.0208,-0.3285434 -0.009,-0.059083 -0.0215,-0.1043608 -0.0381,-0.1380433 -0.0109,-0.010858 -0.0166,-0.022271 -0.0166,-0.033129 0,-0.010859 0.004,-0.019512 0.008,-0.024479 0.0106,-0.011412 0.012,-0.042333 0.004,-0.092029 -0.008,-0.050248 -0.0265,-0.1387796 -0.0546,-0.2667 -0.0272,-0.094237 -0.0503,-0.1711738 -0.0661,-0.2293363 -0.0166,-0.058346 -0.0698,-0.2063287 -0.15811,-0.4457883 -0.0229,-0.066077 -0.0396,-0.1489026 -0.0504,-0.2459013 -0.0106,-0.096998 -0.0106,-0.1870029 0,-0.2703809 0.006,-0.039572 0.0109,-0.075464 0.0166,-0.1085945 0.006,-0.032946 0.0109,-0.052456 0.0166,-0.058162 0.006,-0.011412 0.008,-0.023742 0.008,-0.037364 v -0.037364 c -0.005,-0.011596 -0.007,-0.022271 -0.004,-0.033867 0.004,-0.010675 0.0102,-0.018591 0.0208,-0.024479 0.006,-0.0057 0.0106,-0.013621 0.0166,-0.025033 0.006,-0.011596 0.008,-0.019509 0.008,-0.025217 0,-0.011596 0.0123,-0.048223 0.0375,-0.1120912 0.025,-0.064052 0.0624,-0.1518479 0.11282,-0.2632029 0.005,-0.016566 0.0106,-0.033129 0.0166,-0.048959 0.005,-0.0173 0.008,-0.028713 0.008,-0.033683 0,-0.00589 0.004,-0.020983 0.009,-0.046014 0.006,-0.025216 0.0106,-0.051168 0.0162,-0.079145 0.006,-0.027979 0.0116,-0.064052 0.0173,-0.1085941 0.005,-0.044542 0.008,-0.086323 0.008,-0.1251596 0,-0.038836 0,-0.074728 0.005,-0.1076738 0.004,-0.033129 0.006,-0.058346 0.012,-0.074912 0.0166,-0.027975 0.0293,-0.09479 0.0374,-0.1998867 0.009,-0.1063858 0.018,-0.2587855 0.0293,-0.4586725 0.005,-0.088348 0.01,-0.1639955 0.0123,-0.2251029 0.004,-0.061107 0.004,-0.094053 0.004,-0.099759 m -0.56653,3.2497263 c -0.006,-0.022271 -0.009,-0.036628 -0.009,-0.042517 0,-0.00497 0.0117,-0.00497 0.0332,0 0.0222,0 0.0502,0.02945 0.0841,0.087795 0.0328,0.058162 0.0661,0.1408045 0.0999,0.2459016 0.0272,0.072519 0.0446,0.1373071 0.0495,0.1954692 0.006,0.058347 0.0145,0.2070654 0.0254,0.4457884 0.0109,0.13381 0.0208,0.2768233 0.0286,0.4292233 0.008,0.1531358 0.013,0.2681721 0.013,0.3458446 0.0106,0.1503754 0.0138,0.24295666 0.008,0.27903171 -0.006,0.0366279 -0.0229,0.0381 -0.0503,0.004233 -0.0109,-0.010675 -0.0194,-0.0316583 -0.0254,-0.0625796 -0.005,-0.0301837 -0.0106,-0.0868754 -0.0166,-0.17098961 0,-0.060555 -0.004,-0.1150363 -0.012,-0.1617871 -0.009,-0.047487 -0.0159,-0.0762 -0.0208,-0.087795 -0.006,-0.010675 -0.008,-0.0208 -0.008,-0.028713 0,-0.00865 0.004,-0.018775 0.008,-0.02945 0.0106,-0.0057 0.0166,-0.018037 0.0166,-0.037364 0,-0.019509 -0.006,-0.048223 -0.0166,-0.087795 -0.006,-0.027979 -0.0102,-0.059635 -0.0131,-0.095526 -0.004,-0.036075 -0.004,-0.065525 -0.004,-0.087795 0,-0.1108029 0,-0.2278637 -0.004,-0.3500783 -0.004,-0.1222145 -0.007,-0.2214217 -0.0131,-0.2998304 -0.0106,-0.077672 -0.0222,-0.1360188 -0.0332,-0.174855 -0.0106,-0.038652 -0.031,-0.086139 -0.0582,-0.1415404 -0.0173,-0.033867 -0.0332,-0.068285 -0.0502,-0.1041767 -0.0166,-0.036075 -0.0275,-0.059819 -0.0332,-0.070495 m 0.19124,-3.5992525 c 0.0113,-0.011412 0.0208,-0.023008 0.0293,-0.033867 0.009,-0.011412 0.0152,-0.01638 0.0208,-0.01638 0.0166,0 0.0261,0.091293 0.0289,0.2746142 0.004,0.1833217 0,0.3522871 -0.0123,0.508368 -0.005,0.089084 -0.01,0.1754074 -0.012,0.2580491 -0.004,0.083378 -0.004,0.1422771 -0.004,0.1754075 0,0.033129 0,0.071967 -0.004,0.1165084 -0.004,0.044542 -0.007,0.080433 -0.012,0.1085942 -0.0116,0.049512 -0.0159,0.081906 -0.0131,0.095526 0.004,0.013621 0.0102,0.026688 0.0212,0.037364 0.0106,0.00589 0.0162,0.011596 0.0162,0.016567 0,0.0057 -0.004,0.011596 -0.008,0.016566 -0.0113,0.0173 -0.025,0.066813 -0.0416,0.1501913 -0.0166,0.083562 -0.0254,0.1525841 -0.0254,0.2085375 0,0.027425 -0.004,0.055402 -0.008,0.082642 -0.005,0.028162 -0.0106,0.048223 -0.0166,0.059083 -0.005,0.010675 -0.012,0.028713 -0.0208,0.053929 -0.008,0.024479 -0.0152,0.050984 -0.0201,0.078961 -0.006,0.028162 -0.0131,0.053929 -0.0215,0.079881 -0.008,0.024479 -0.0152,0.040308 -0.0208,0.045278 0,0.010859 -0.004,0.026688 -0.012,0.045278 -0.008,0.020246 -0.0131,0.041045 -0.0131,0.06258 l -0.0166,0.066813 c -0.0109,0.028162 -0.0187,0.053192 -0.0243,0.074912 -0.006,0.023008 -0.009,0.027975 -0.009,0.017117 -0.006,0.027425 -0.0113,0.069758 -0.0166,0.1251596 -0.005,0.054665 -0.0106,0.1078579 -0.0166,0.1581058 0,0.094238 -0.004,0.1496388 -0.008,0.1662042 -0.005,0.017117 -0.0187,0.027975 -0.0416,0.033683 -0.0109,0.00589 -0.0222,0.010125 -0.0332,0.012333 -0.0113,0.00275 -0.0166,0.00148 -0.0166,-0.00442 0.005,-0.1106187 0.009,-0.2048566 0.009,-0.2825287 0.005,-0.089084 0.0109,-0.1617871 0.0166,-0.2171887 0.005,-0.055217 0.0138,-0.092029 0.0243,-0.1076738 0.0113,-0.022454 0.0236,-0.061291 0.0374,-0.117245 0.0145,-0.055401 0.0403,-0.1746709 0.0792,-0.3581767 0.0113,-0.027975 0.0215,-0.078961 0.0293,-0.1536883 0.009,-0.075648 0.0159,-0.1518476 0.0208,-0.2295201 0,-0.077488 0.005,-0.1472462 0.0124,-0.2083537 0.008,-0.061107 0.0159,-0.092029 0.0215,-0.092029 0.0106,-0.016566 0.0152,-0.040309 0.012,-0.070494 -0.004,-0.030187 -0.012,-0.051168 -0.0293,-0.06258 -0.0109,-0.010859 -0.0166,-0.019509 -0.0166,-0.025217 0,-0.00497 0.008,-0.015829 0.0254,-0.032946 0.0106,-0.010859 0.0194,-0.046015 0.0254,-0.1043608 0.006,-0.057426 0.008,-0.1954696 0.008,-0.4119217 0,-0.13381 0,-0.2516071 0.004,-0.3544954 0.004,-0.1028884 0.007,-0.1566333 0.012,-0.1625233 0,-0.010675 0.005,-0.024479 0.0131,-0.041597 0.009,-0.016567 0.018,-0.030187 0.0286,-0.041045 m -0.65782,2.6487776 c 0,-0.021721 0.004,-0.036075 0.012,-0.041781 0.008,-0.00497 0.0293,-0.00497 0.0626,0 l 0.0755,0.00865 0.008,0.2501349 c 0,0.066997 0.005,0.1293926 0.0124,0.1877389 0.008,0.057426 0.0155,0.095526 0.0208,0.1120912 0.006,0.010858 0.0131,0.046015 0.0215,0.1036246 0.008,0.058162 0.0152,0.1244233 0.0201,0.1962058 0.0116,0.066813 0.0208,0.1316017 0.0296,0.1956537 0.008,0.064604 0.0152,0.1071217 0.0208,0.1293926 l -0.008,-0.00865 c 0.0113,0.044542 0.0208,0.092029 0.0293,0.1422767 0.008,0.049695 0.012,0.099207 0.012,0.1496391 v 0.00865 c 0,0.015829 0,0.035891 0.005,0.058162 0.004,0.022271 0.007,0.038836 0.0131,0.049695 0.005,0.016566 0.006,0.032946 0.004,0.050248 -0.004,0.016566 -0.007,0.030184 -0.0123,0.041781 -0.006,0.016566 -0.008,0.034417 -0.008,0.053929 0,0.019325 0.004,0.040125 0.008,0.06258 0.005,0.022271 0.0109,0.074727 0.0166,0.1581055 0.006,0.083378 0.008,0.1724625 0.008,0.2667 l 0.008,0.3579929 -0.0668,-0.066077 c -0.0166,-0.023008 -0.0317,-0.042333 -0.0453,-0.058162 -0.0138,-0.0173 -0.0208,-0.028162 -0.0208,-0.033867 0,-0.0057 -0.004,-0.016566 -0.012,-0.033129 -0.008,-0.016566 -0.018,-0.036628 -0.0296,-0.058162 -0.0279,-0.033129 -0.0433,-0.064052 -0.046,-0.092029 -0.004,-0.027241 -0.004,-0.1056491 -0.004,-0.2330174 -0.006,-0.072519 -0.0113,-0.1501913 -0.0173,-0.2335696 -0.006,-0.083378 -0.0116,-0.1466942 -0.0166,-0.1912359 -0.006,-0.050432 -0.0123,-0.1130117 -0.0208,-0.1877392 -0.008,-0.075464 -0.0127,-0.1402521 -0.0127,-0.1954695 -0.005,-0.056138 -0.0124,-0.1214784 -0.0201,-0.1963897 -0.008,-0.074728 -0.0159,-0.1373074 -0.0212,-0.1868191 -0.006,-0.050432 -0.0113,-0.1085941 -0.0162,-0.1754071 -0.006,-0.066261 -0.008,-0.1223983 -0.008,-0.1669404 0,-0.071782 -0.005,-0.140068 -0.0124,-0.2033842 -0.008,-0.064052 -0.0187,-0.1157725 -0.0293,-0.1546083 -0.006,-0.0057 -0.007,-0.010858 -0.004,-0.016567 0.004,-0.0057 0.01,-0.00865 0.0208,-0.00865 0.0109,0 0.018,-0.00349 0.0208,-0.012146 0.004,-0.00865 0.005,-0.018038 0.005,-0.02945 m -0.24169,-1.4573705 c 0,-0.00589 0.004,-0.010125 0.008,-0.013067 0.006,-0.00275 0.0116,0.00148 0.0166,0.013067 0.006,0.00497 0.0102,0.042333 0.0131,0.1120912 0.004,0.069758 0.005,0.1905 0.005,0.3624101 -0.006,0.2558404 -0.008,0.5319275 -0.008,0.8289967 0,0.2968854 0.004,0.5952433 0.008,0.89581 0,0.199887 0,0.3206291 -0.005,0.36241 -0.004,0.041597 -0.009,0.067549 -0.0208,0.078961 -0.0113,0.011596 -0.0208,0.018038 -0.0286,0.020983 -0.008,0.00275 -0.0159,0.00131 -0.0208,-0.00442 -0.006,0 -0.0102,-0.022271 -0.0131,-0.066813 -0.004,-0.043806 0,-0.094238 0.004,-0.1501912 0,-0.13878 -0.005,-0.27259 -0.0159,-0.403455 -0.0116,-0.1308654 -0.0222,-0.2041204 -0.0332,-0.2206854 -0.0113,-0.0057 -0.0173,-0.012333 -0.0173,-0.0208 v -0.029633 c 0.0116,-0.010675 0.0152,-0.1343621 0.0124,-0.3701404 -0.004,-0.2365145 -0.01,-0.4875696 -0.0208,-0.7550054 0,-0.010675 0.004,-0.037364 0.004,-0.078409 0.004,-0.041597 0.007,-0.090557 0.012,-0.1459579 0,-0.071783 0.005,-0.1235029 0.013,-0.1536883 0.008,-0.030921 0.018,-0.054665 0.0293,-0.07123 0.006,-0.0057 0.012,-0.019512 0.0208,-0.041781 0.008,-0.022271 0.0152,-0.041597 0.0208,-0.058162 0,-0.016566 0,-0.034604 0.004,-0.054665 0.004,-0.019509 0.006,-0.031658 0.012,-0.036627"
       style="fill:#21201d;fill-opacity:1;fill-rule:nonzero;stroke:none;stroke-width:0.184057"
       id="path556" />
  </g>
</svg>
