<?xml version="1.0" encoding="UTF-8" standalone="no"?>
<!-- Created with Inkscape (http://www.inkscape.org/) -->

<svg
   width="3.8046501mm"
   height="7.7664957mm"
   viewBox="0 0 3.8046501 7.7664957"
   version="1.1"
   id="svg1786"
   inkscape:version="1.1.2 (0a00cf5339, 2022-02-04)"
   sodipodi:docname="cleanup_crew.svg"
   xmlns:inkscape="http://www.inkscape.org/namespaces/inkscape"
   xmlns:sodipodi="http://sodipodi.sourceforge.net/DTD/sodipodi-0.dtd"
   xmlns="http://www.w3.org/2000/svg"
   xmlns:svg="http://www.w3.org/2000/svg">
  <sodipodi:namedview
     id="namedview1788"
     pagecolor="#ffffff"
     bordercolor="#666666"
     borderopacity="1.0"
     inkscape:pageshadow="2"
     inkscape:pageopacity="0.0"
     inkscape:pagecheckerboard="0"
     inkscape:document-units="mm"
     showgrid="false"
     inkscape:zoom="0.64052329"
     inkscape:cx="7.8061174"
     inkscape:cy="14.831623"
     inkscape:window-width="2560"
     inkscape:window-height="1376"
     inkscape:window-x="0"
     inkscape:window-y="0"
     inkscape:window-maximized="1"
     inkscape:current-layer="layer1" />
  <defs
     id="defs1783" />
  <g
     inkscape:label="Layer 1"
     inkscape:groupmode="layer"
     id="layer1"
     transform="translate(-103.01862,-144.61616)">
    <path
       d="m 106.18866,147.44578 c -0.15314,-0.0116 -0.34879,-0.018 -0.58457,-0.0208 -0.23577,-0.003 -0.35946,-0.001 -0.37032,0.004 -0.006,0.005 -0.008,0.0121 -0.008,0.0208 0,0.008 0.006,0.021 0.0164,0.0366 0.0223,0.0331 0.0677,0.0828 0.13602,0.14817 0.069,0.0663 0.11927,0.10712 0.1524,0.12368 0.0488,0.0331 0.10418,0.074 0.16454,0.12369 0.0604,0.0495 0.1259,0.11209 0.19787,0.18903 0.0876,0.0885 0.14798,0.15111 0.18111,0.18976 0.0331,0.0383 0.0604,0.0799 0.0826,0.12295 0.006,0.0166 0.018,0.0403 0.0366,0.0705 0.0195,0.0302 0.0374,0.0561 0.0532,0.0784 0.0223,0.0215 0.0418,0.0482 0.0583,0.0784 0.0158,0.0302 0.0272,0.0532 0.0331,0.0697 0.005,0.0166 0.0136,0.0366 0.0243,0.0618 0.0109,0.0243 0.0245,0.0453 0.041,0.0618 0.0114,0.0158 0.0237,0.0337 0.0374,0.0532 0.0136,0.0193 0.023,0.0344 0.0287,0.0453 0.0109,0.0272 0.0289,0.051 0.0532,0.0705 0.0252,0.0186 0.0396,0.023 0.0455,0.0121 0.006,-0.006 0.008,-0.0784 0.008,-0.21866 v -0.50616 l -0.008,-0.70807 -0.0907,-0.0497 c -0.0438,-0.0223 -0.079,-0.0359 -0.10638,-0.0409 -0.028,-0.006 -0.0884,-0.0116 -0.18185,-0.0165 m 0.404,2.14906 c -0.006,-0.0274 -0.009,-0.0475 -0.0129,-0.0618 -0.002,-0.013 -0.006,-0.0202 -0.0121,-0.0202 -0.0274,0 -0.0655,0.044 -0.11522,0.1316 -0.0495,0.0878 -0.0854,0.17339 -0.10712,0.25529 -0.0215,0.10418 -0.048,0.18111 -0.0782,0.23081 -0.0302,0.0495 -0.0972,0.13436 -0.20136,0.2551 -0.0712,0.0821 -0.1524,0.16326 -0.24295,0.24314 -0.0907,0.079 -0.18553,0.15535 -0.28474,0.2264 -0.0985,0.0712 -0.17982,0.13583 -0.2424,0.19344 -0.0631,0.0576 -0.0891,0.092 -0.0782,0.10289 0,0.005 0.071,0.008 0.21424,0.008 0.14227,0.005 0.29762,0.008 0.46511,0.008 0.16749,0 0.32283,-0.003 0.46511,-0.008 0.14319,0 0.21718,-0.004 0.22215,-0.008 0,-0.005 0.003,-0.026 0.009,-0.0618 0.006,-0.0353 0.0109,-0.0806 0.0166,-0.13602 0.005,-0.0654 0.008,-0.15093 0.008,-0.25511 0,-0.10436 -0.003,-0.26099 -0.008,-0.46953 0,-0.14817 -0.003,-0.28547 -0.009,-0.41118 -0.006,-0.12664 -0.008,-0.20063 -0.008,-0.2229 m -1.34232,-1.01232 c -0.0114,0 -0.0223,-0.004 -0.033,-0.009 -0.0109,-0.006 -0.0195,-0.008 -0.0245,-0.008 -0.0116,0 -0.0331,0.0121 -0.0663,0.0366 -0.0329,0.0252 -0.0552,0.0482 -0.0661,0.0705 -0.0324,0.0488 -0.0396,0.0876 -0.0201,0.11504 0.0186,0.0272 0.0639,0.0547 0.13509,0.0819 0.0497,0.0166 0.0871,0.0223 0.11136,0.0166 0.0252,-0.005 0.0512,-0.0215 0.0784,-0.0497 0.0223,-0.0322 0.0316,-0.0653 0.0287,-0.0985 -0.003,-0.0329 -0.0178,-0.0633 -0.0453,-0.0906 -0.0164,-0.0109 -0.0344,-0.0237 -0.0532,-0.0366 -0.0193,-0.0144 -0.0344,-0.0237 -0.0453,-0.0287 m -0.23872,0.27959 c -0.0223,-0.0272 -0.0446,-0.0438 -0.0661,-0.0495 -0.0223,-0.006 -0.0381,0 -0.0497,0.0164 -0.0107,0.0109 -0.0215,0.0331 -0.0329,0.0663 -0.0109,0.0329 -0.0158,0.0574 -0.0158,0.074 0,0.0274 0.0129,0.0453 0.0409,0.0532 0.0274,0.009 0.0606,0.007 0.0987,-0.004 0.0223,-0.006 0.0394,-0.0116 0.0539,-0.0165 0.0136,-0.006 0.0201,-0.0109 0.0201,-0.0166 0.006,-0.0116 0.004,-0.0287 -0.004,-0.0539 -0.008,-0.0245 -0.0236,-0.0482 -0.0453,-0.0697 m -0.0495,1.52344 c 0.0985,0 0.20265,-0.001 0.31345,-0.004 0.10933,-0.003 0.18829,-0.004 0.23798,-0.004 0.0827,0 0.1316,7e-4 0.1489,0.004 0.0164,0.003 0.0243,0.0121 0.0243,0.0295 0,0.0215 -0.0316,0.0381 -0.0948,0.0489 -0.0626,0.0107 -0.2043,0.0193 -0.42425,0.025 -0.11503,0.005 -0.21921,0.0101 -0.31271,0.0158 -0.0935,0.006 -0.14816,0.009 -0.16473,0.009 -0.028,0.006 -0.048,0.008 -0.0618,0.008 -0.0136,0 -0.0287,-0.008 -0.0453,-0.0245 -0.0604,-0.0386 -0.0705,-0.0646 -0.0287,-0.0782 0.041,-0.0138 0.17688,-0.0237 0.40769,-0.0289 m -0.15682,-1.73769 c -0.0329,-0.0438 -0.0626,-0.0668 -0.0905,-0.0698 -0.0272,-0.003 -0.074,0.0123 -0.13952,0.0453 l -0.0826,0.0411 0.009,0.0574 c 0,0.0166 0.002,0.0361 0.008,0.0576 0.006,0.0223 0.0107,0.041 0.0165,0.0574 0.0107,0.0223 0.0208,0.0346 0.0287,0.0374 0.008,0.003 0.026,0.004 0.0539,0.004 0.0431,0 0.0878,-0.009 0.13086,-0.0252 0.0445,-0.0166 0.0747,-0.0381 0.0906,-0.0653 0.0116,-0.0109 0.0195,-0.023 0.0252,-0.0374 0.005,-0.0138 0.008,-0.023 0.008,-0.0289 0,-0.006 -0.005,-0.0151 -0.0158,-0.0287 -0.0116,-0.0136 -0.0252,-0.0287 -0.0418,-0.0453 m -0.009,-0.63408 c 0.0388,-0.006 0.0871,-0.006 0.14467,-0.004 0.0582,0.003 0.11136,0.007 0.16032,0.0131 0.14301,0.0272 0.24589,0.0782 0.30902,0.1524 0.0633,0.074 0.0863,0.16602 0.0698,0.27535 -0.0107,0.0388 -0.0144,0.0676 -0.0121,0.0869 0.003,0.0188 0.0101,0.0475 0.0208,0.0863 0.0274,0.0769 0.0359,0.13012 0.0245,0.16031 -0.0109,0.0302 -0.0547,0.0755 -0.1316,0.13657 -0.0272,0.021 -0.0589,0.049 -0.095,0.0821 -0.0359,0.0331 -0.0646,0.0633 -0.0861,0.0906 -0.0215,0.0267 -0.0453,0.0532 -0.0705,0.0777 -0.0245,0.0252 -0.0418,0.0403 -0.0532,0.0453 -0.0274,0.0114 -0.0755,0.0173 -0.14375,0.0173 -0.069,0 -0.1143,-0.009 -0.13676,-0.0252 -0.01,0 -0.0258,-0.0121 -0.0445,-0.0374 -0.0193,-0.0245 -0.0396,-0.051 -0.0618,-0.0777 -0.0438,-0.0661 -0.0755,-0.10712 -0.0948,-0.12369 -0.0195,-0.0166 -0.0482,-0.0302 -0.0863,-0.041 -0.0381,-0.0171 -0.0633,-0.0453 -0.0747,-0.0861 -0.0101,-0.0418 -0.0267,-0.19713 -0.049,-0.46604 l -0.008,-0.10712 0.0569,-0.0574 c 0.0445,-0.0497 0.0977,-0.092 0.16105,-0.12793 0.0631,-0.0353 0.13013,-0.0591 0.20117,-0.0697 m -0.0819,-3.39293 c 0.0388,-0.006 0.11945,-0.006 0.24295,0 0.12369,0.006 0.21793,0.0144 0.284,0.0252 0.0339,0.005 0.0677,0.0136 0.10289,0.0245 0.0359,0.0107 0.0618,0.0223 0.0784,0.0329 l -0.0166,-0.009 c 0.0166,0.0116 0.0331,0.021 0.0495,0.0289 0.0165,0.009 0.0388,0.0208 0.0655,0.0374 0.0114,0.005 0.0208,0.0121 0.0295,0.0208 0.008,0.008 0.0151,0.0151 0.0201,0.0208 0,0.005 0.006,0.0109 0.0173,0.0158 0.0109,0.005 0.0237,0.0109 0.041,0.0165 0.0331,0.0109 0.0502,0.0252 0.0532,0.041 0.003,0.0166 -0.007,0.0468 -0.0287,0.0906 -0.0116,0.0165 -0.0237,0.041 -0.0374,0.074 -0.0131,0.0331 -0.023,0.0633 -0.0281,0.0907 -0.006,0.028 -0.0173,0.0617 -0.033,0.10344 -0.0173,0.0411 -0.0304,0.0777 -0.0418,0.1108 l -0.0497,0.10713 -0.39462,-0.009 c -0.10435,-0.005 -0.20485,-0.009 -0.30056,-0.0116 -0.0963,-0.003 -0.15534,-0.007 -0.17761,-0.0129 -0.0329,-0.005 -0.0567,-0.008 -0.074,-0.008 -0.0158,0 -0.0331,0.003 -0.0497,0.008 -0.0215,0.0109 -0.0409,0.006 -0.0567,-0.0166 -0.0173,-0.0215 -0.0281,-0.0596 -0.0331,-0.11504 0,-0.0272 -0.003,-0.0547 -0.009,-0.0819 -0.006,-0.0282 -0.0136,-0.0468 -0.0245,-0.0583 -0.006,-0.0164 -0.0121,-0.0409 -0.0208,-0.074 -0.008,-0.0331 -0.0151,-0.0683 -0.0201,-0.10712 l -0.0166,-0.13952 0.041,-0.0416 c 0.0329,-0.0331 0.0861,-0.0663 0.16105,-0.0986 0.0733,-0.0329 0.14945,-0.0545 0.22565,-0.0661 m -0.51831,5.54254 v -0.0495 l 0.0488,0.008 c 0.0109,0 0.092,0.002 0.24388,0.004 0.15018,0.003 0.32209,0.006 0.51406,0.0123 0.23578,0.006 0.41413,0.009 0.53487,0.0129 0.12148,0.002 0.18406,0.006 0.18976,0.0121 0.006,0.005 0.008,0.0123 0.008,0.0203 v 0.0208 c 0,0.0109 -0.0109,0.018 -0.0324,0.0201 -0.0223,0.004 -0.069,0.007 -0.14025,0.0131 -0.0495,0.006 -0.14651,0.009 -0.29173,0.0121 -0.14596,0.002 -0.29854,0.004 -0.45738,0.004 -0.32431,0 -0.50763,-0.003 -0.55217,-0.009 -0.0438,-0.006 -0.0653,-0.0331 -0.0653,-0.0821 m 1.37453,-1.11226 c 0.0281,-0.0265 0.0663,-0.0596 0.11577,-0.0985 0.0109,0 0.0532,0.0289 0.12737,0.0863 0.074,0.0576 0.11706,0.095 0.12792,0.11136 0.0109,0.0166 0.0151,0.0274 0.0121,0.0324 -0.003,0.006 -0.01,0.0203 -0.0208,0.041 -0.0215,0.0331 -0.0574,0.0582 -0.10712,0.0747 -0.0488,0.0166 -0.12074,0.0274 -0.21424,0.0331 -0.0539,0.006 -0.10417,0.0121 -0.14816,0.0208 -0.0431,0.008 -0.0762,0.0144 -0.0985,0.0203 -0.0329,0.0164 -0.0661,0.0359 -0.0992,0.0574 -0.0324,0.0223 -0.0488,0.041 -0.0488,0.0576 0,0.0223 0.0582,0.048 0.17319,0.0782 0.11504,0.0302 0.2251,0.0482 0.32928,0.0532 0.0878,0.006 0.14375,0.0145 0.16823,0.0252 0.0252,0.0109 0.0453,0.0381 0.0618,0.0826 0.0166,0.0274 0.0237,0.0547 0.0201,0.0821 -0.002,0.0272 -0.008,0.0517 -0.0201,0.074 -0.0109,0.0109 -0.0245,0.0193 -0.041,0.0245 -0.0164,0.006 -0.0409,0.0114 -0.074,0.0165 -0.0272,0 -0.0517,0.003 -0.074,0.008 -0.0223,0.006 -0.0388,0.0109 -0.0497,0.0166 -0.0107,0.005 -0.0186,0.007 -0.0245,0.004 -0.006,-0.002 -0.0114,-0.0123 -0.0166,-0.0287 -0.006,-0.005 -0.0107,-0.0188 -0.0164,-0.041 0,-0.0166 -0.026,-0.0411 -0.0784,-0.074 -0.0517,-0.0331 -0.12442,-0.0712 -0.21792,-0.11578 l -0.18185,-0.09 h -0.19694 c -0.0663,0 -0.11651,0.001 -0.1524,0.004 -0.0361,0.004 -0.0561,0.007 -0.0618,0.0121 -0.006,0 -0.0166,0.004 -0.0331,0.009 -0.0166,0.006 -0.0302,0.0116 -0.041,0.0166 -0.0166,0 -0.0359,0.004 -0.0574,0.0121 -0.0223,0.009 -0.0388,0.018 -0.0497,0.0289 -0.0165,0.0114 -0.0401,0.0223 -0.0705,0.0329 -0.0294,0.0109 -0.0589,0.0224 -0.0861,0.0331 -0.0331,0.0109 -0.0655,0.0245 -0.0985,0.041 -0.0331,0.0166 -0.0606,0.0329 -0.0828,0.0495 -0.0381,0.0274 -0.074,0.0489 -0.10639,0.0655 -0.0331,0.0165 -0.0611,0.025 -0.0826,0.025 -0.006,0 -0.0136,-0.003 -0.0252,-0.008 -0.0107,-0.005 -0.0186,-0.0109 -0.0245,-0.0165 -0.0107,-0.0109 -0.0164,-0.023 -0.0164,-0.0366 v -0.0698 c 0.0114,-0.0777 0.0315,-0.12939 0.0618,-0.15681 0.0302,-0.0272 0.0948,-0.0438 0.19326,-0.0495 0.072,-0.006 0.14448,-0.0188 0.21866,-0.041 0.074,-0.0216 0.12221,-0.041 0.14448,-0.0576 0.0158,-0.0114 0.0144,-0.023 -0.004,-0.0374 -0.0203,-0.0136 -0.0648,-0.0366 -0.13676,-0.0698 -0.0653,-0.0329 -0.12,-0.0517 -0.16381,-0.0574 -0.0445,-0.006 -0.0826,-0.003 -0.11577,0.008 -0.0109,0.006 -0.023,0.004 -0.0366,-0.004 -0.0138,-0.008 -0.0346,-0.023 -0.0626,-0.0453 -0.0596,-0.0547 -0.10067,-0.10271 -0.12294,-0.14375 -0.0223,-0.041 -0.0166,-0.0618 0.0166,-0.0618 0.006,0 0.023,-0.006 0.0532,-0.0166 0.0302,-0.0107 0.0626,-0.0245 0.0948,-0.0409 0.0604,-0.0331 0.0992,-0.0512 0.11504,-0.0532 0.0166,-0.004 0.0331,7.1e-4 0.0497,0.0121 0.0114,0.006 0.0193,0.0109 0.0245,0.0166 0.006,0.005 0.009,0.0107 0.009,0.0165 0,0.0166 0.0243,0.0473 0.074,0.0941 0.0495,0.0468 0.0876,0.0784 0.11503,0.095 h 0.009 c 0.0215,0.0116 0.0423,0.023 0.0618,0.0374 0.0186,0.0136 0.0366,0.026 0.0532,0.0366 0.0329,0.0223 0.0849,0.0482 0.1559,0.0784 0.072,0.0302 0.11871,0.0453 0.14098,0.0453 0.0109,0 0.0245,-0.004 0.041,-0.0121 0.0166,-0.009 0.0351,-0.0151 0.0574,-0.0208 0.0166,-0.0116 0.0396,-0.0224 0.0698,-0.0331 0.0302,-0.0109 0.0561,-0.0195 0.0784,-0.0245 0.0495,-0.0166 0.11006,-0.0482 0.18111,-0.095 0.0712,-0.046 0.14025,-0.10271 0.20559,-0.16897 m -0.55143,-1.5724 c -0.0107,-0.0164 -0.023,-0.0287 -0.0366,-0.0374 -0.0144,-0.008 -0.0237,-0.0121 -0.0294,-0.0121 -0.0158,0 -0.0819,0.0539 -0.19768,0.16031 -0.11503,0.10713 -0.29044,0.27609 -0.5264,0.5069 -0.17025,0.1697 -0.29394,0.29615 -0.37087,0.37824 -0.0769,0.0826 -0.16749,0.18976 -0.27185,0.32136 -0.12572,0.15958 -0.20633,0.26228 -0.23872,0.30904 -0.0329,0.0468 -0.0438,0.0806 -0.0329,0.10289 0,0.006 0.009,0.026 0.0287,0.0618 0.0193,0.0359 0.0423,0.0755 0.0705,0.11927 0.0438,0.072 0.0941,0.14522 0.15167,0.22216 0.0574,0.0769 0.14945,0.18405 0.27608,0.32136 0.0272,0.0324 0.0604,0.0742 0.0992,0.12369 0.0381,0.0497 0.0712,0.0935 0.0985,0.1316 0.0547,0.0878 0.10712,0.16031 0.15681,0.21866 0.0488,0.0574 0.12866,0.1408 0.23799,0.25087 0.0883,0.0935 0.19988,0.19492 0.33424,0.3048 0.13455,0.10933 0.21572,0.16473 0.24296,0.16473 0.0109,0 0.0289,-0.0123 0.0532,-0.0374 0.0245,-0.0252 0.0532,-0.0561 0.0863,-0.095 0.0388,-0.049 0.0712,-0.0863 0.0992,-0.11081 0.0274,-0.0243 0.0517,-0.0423 0.0742,-0.0537 0.0215,-0.0109 0.0517,-0.0274 0.0906,-0.049 0.0388,-0.0223 0.074,-0.0445 0.10638,-0.0663 0.11577,-0.0767 0.25161,-0.1997 0.40769,-0.37087 0.15663,-0.1697 0.24369,-0.29044 0.25952,-0.36168 0.006,-0.0114 0.0144,-0.028 0.0252,-0.0497 0.0107,-0.0215 0.0193,-0.0387 0.0243,-0.0495 0.0166,-0.0223 0.0361,-0.064 0.0576,-0.12719 0.0223,-0.0633 0.0418,-0.12516 0.0574,-0.18553 0.006,-0.0165 0.0138,-0.0346 0.0252,-0.0539 0.0109,-0.0188 0.0215,-0.0339 0.0331,-0.0453 0.0166,-0.0158 0.0351,-0.0433 0.0574,-0.0821 0.0217,-0.0388 0.0361,-0.0769 0.041,-0.11504 0.006,-0.0171 0.006,-0.0329 0,-0.0503 -0.005,-0.0158 -0.0193,-0.041 -0.041,-0.0734 -0.0114,-0.0215 -0.0287,-0.0567 -0.0532,-0.1027 -0.025,-0.0468 -0.0488,-0.092 -0.0705,-0.13657 -0.0215,-0.0433 -0.0453,-0.0863 -0.0703,-0.12737 -0.0245,-0.0409 -0.0447,-0.0725 -0.0611,-0.0948 -0.0166,-0.0158 -0.0316,-0.0353 -0.0453,-0.0576 -0.0138,-0.0215 -0.0267,-0.0381 -0.0375,-0.0488 -0.0272,-0.0611 -0.0933,-0.14965 -0.19768,-0.26818 -0.10417,-0.11798 -0.1754,-0.18774 -0.2135,-0.21001 -0.0114,-0.006 -0.0193,-0.0109 -0.0252,-0.0166 -0.005,-0.005 -0.008,-0.0109 -0.008,-0.0165 0,-0.005 -0.01,-0.0158 -0.0295,-0.0329 -0.0186,-0.0158 -0.0416,-0.0353 -0.069,-0.0576 -0.0223,-0.0166 -0.0633,-0.051 -0.12442,-0.10289 -0.0604,-0.0525 -0.12074,-0.10565 -0.18037,-0.16031 -0.0554,-0.0552 -0.1086,-0.10565 -0.16105,-0.1524 -0.0517,-0.0468 -0.0863,-0.0755 -0.10289,-0.0863 m -1.64712,2.07507 c -0.0158,-0.0331 -0.0294,-0.0547 -0.041,-0.0661 -0.0107,-0.0109 -0.0223,-0.0166 -0.0329,-0.0166 -0.0109,0 -0.018,0.006 -0.0203,0.0166 -0.003,0.0114 -0.002,0.0495 0.004,0.11559 0,0.0381 10e-4,0.13307 0.004,0.284 0.003,0.15111 0.007,0.31419 0.0123,0.49033 l 0.008,0.63353 0.0582,0.0661 c 0.0216,0.0274 0.0425,0.0482 0.0618,0.0618 0.0188,0.0136 0.0396,0.023 0.0619,0.0287 0.0215,0.005 0.0777,0.009 0.16823,0.0123 0.0913,0.003 0.24295,0.004 0.45719,0.004 0.15387,0 0.29136,-0.001 0.4121,-0.004 0.12074,-0.003 0.18903,-0.007 0.20559,-0.0123 0.0388,-0.006 0.0574,-0.0151 0.0574,-0.0287 0,-0.0136 -0.0186,-0.0316 -0.0574,-0.0539 -0.0388,-0.0215 -0.1108,-0.0819 -0.21865,-0.18038 -0.10713,-0.0992 -0.20412,-0.19491 -0.29173,-0.28915 -0.0712,-0.071 -0.14964,-0.16381 -0.23523,-0.27958 -0.0848,-0.11504 -0.1408,-0.20063 -0.16822,-0.25529 -0.006,-0.0114 -0.0287,-0.0409 -0.0698,-0.0906 -0.0416,-0.0497 -0.0869,-0.10142 -0.13657,-0.15682 -0.0653,-0.0653 -0.11798,-0.12221 -0.15608,-0.16822 -0.0388,-0.0468 -0.0661,-0.0841 -0.0826,-0.11136 m 0.3624,-2.12458 c -0.0438,0 -0.0878,-0.003 -0.1316,-0.009 -0.0438,-0.005 -0.0769,-0.008 -0.0985,-0.008 -0.0331,-0.005 -0.0554,-0.007 -0.0661,-0.004 -0.0109,0.003 -0.0281,0.0151 -0.0497,0.0374 -0.0109,0.0107 -0.023,0.0302 -0.0366,0.0574 -0.0136,0.0274 -0.026,0.0519 -0.0374,0.0742 -0.0166,0.0388 -0.0274,0.0725 -0.0331,0.10271 -0.006,0.0302 -0.0109,0.092 -0.0166,0.18553 -0.0107,0.11503 -0.0166,0.284 -0.0166,0.50616 0,0.22289 0.004,0.37235 0.009,0.44873 0.006,0.0386 0.009,0.0661 0.0123,0.0826 0.003,0.0171 0.01,0.0272 0.0208,0.0329 0.0107,0.005 0.0366,-0.0151 0.0784,-0.0618 0.0409,-0.0466 0.0697,-0.092 0.0861,-0.13584 0.0109,-0.0223 0.0217,-0.0409 0.0331,-0.0574 0.0109,-0.0166 0.0188,-0.0274 0.0245,-0.0331 0.0107,0 0.023,-0.006 0.0374,-0.0201 0.0129,-0.0144 0.023,-0.0296 0.0287,-0.0453 0.0109,-0.0166 0.023,-0.0316 0.0366,-0.0455 0.0138,-0.0136 0.0237,-0.0208 0.0289,-0.0208 0.006,-0.006 0.0114,-0.0121 0.0166,-0.0208 0.006,-0.008 0.008,-0.0151 0.008,-0.0208 0,-0.0109 0.12369,-0.13952 0.37032,-0.38689 0.24738,-0.24664 0.42278,-0.41708 0.52696,-0.51039 0.0388,-0.0331 0.0685,-0.0618 0.0907,-0.0863 0.0223,-0.0245 0.0329,-0.0425 0.0329,-0.0532 0,-0.0173 -0.0238,-0.0252 -0.0698,-0.0252 -0.0468,0 -0.18608,0.006 -0.41615,0.0165 -0.12663,0.005 -0.22216,0.009 -0.28842,0.0121 -0.0653,0.003 -0.12644,-0.001 -0.18111,-0.0121 m 0.66721,-1.88585 c 0.1754,-0.0109 0.41909,-0.0123 0.72831,-0.004 0.3105,0.009 0.48167,0.018 0.5148,0.0289 0.0173,0.006 0.0317,0.0223 0.0453,0.0495 0.0144,0.0274 0.0208,0.0576 0.0208,0.0906 0,0.0223 -0.006,0.0374 -0.0166,0.0453 -0.0107,0.008 -0.0409,0.018 -0.0906,0.0289 -0.0158,0.006 -0.0272,0.0121 -0.0331,0.0208 -0.005,0.008 -0.008,0.0287 -0.008,0.0618 0,0.0166 -10e-4,0.0339 -0.004,0.0532 -0.003,0.0193 -0.004,0.0346 -0.004,0.0453 -0.006,0.0109 -0.004,0.0223 0.004,0.0331 0.008,0.0107 0.0238,0.0272 0.0453,0.0495 0.0116,0.0109 0.0223,0.0245 0.0331,0.0411 0.0107,0.0166 0.0166,0.0272 0.0166,0.0331 0,0.006 -0.006,0.0166 -0.0166,0.0322 -0.0109,0.0166 -0.0215,0.0331 -0.0331,0.0497 -0.0158,0.0223 -0.0351,0.0495 -0.0574,0.0826 0,0.0274 0.009,0.0806 0.0243,0.16031 0.0173,0.0799 0.0282,0.13013 0.0331,0.1524 0.0223,0.0497 0.069,0.0957 0.14025,0.14026 0.0718,0.0438 0.15387,0.0712 0.24737,0.0819 0.0876,0.0166 0.18111,0.0418 0.27959,0.0742 0.0992,0.0329 0.16472,0.0633 0.19767,0.0906 0.0331,0.028 0.0769,0.0755 0.1316,0.14449 0.0554,0.0683 0.0965,0.12737 0.12368,0.17688 0.0381,0.0712 0.0604,0.1732 0.0655,0.3048 0.006,0.1316 0.008,0.53781 0.008,1.21865 0,0.46087 -0.001,0.80322 -0.004,1.02538 -0.002,0.22216 -0.006,0.38027 -0.0121,0.47377 l -0.0245,0.25528 0.0653,0.0409 -0.0329,0.0489 c -0.0109,0.0173 -0.0173,0.0344 -0.0203,0.0539 -0.003,0.0193 -0.001,0.0569 0.004,0.11136 0,0.0274 0.003,0.0604 0.008,0.0987 0.006,0.0387 0.008,0.069 0.008,0.0906 0.006,0.028 0.008,0.051 0.008,0.0698 0,0.0193 -0.006,0.0431 -0.0164,0.0703 -0.0158,0.0381 -0.0245,0.0618 -0.0245,0.0705 0,0.008 0.009,0.0203 0.0245,0.0366 0.0107,0.0109 0.0179,0.021 0.0208,0.0289 0.003,0.008 -0.001,0.0258 -0.0129,0.0532 -0.0109,0.0223 -0.0158,0.0403 -0.0158,0.0539 0,0.0136 0.003,0.0344 0.008,0.0618 0.006,0.0215 0.007,0.0453 0.004,0.0703 -0.003,0.0237 -0.0151,0.0692 -0.0374,0.13528 -0.0274,0.10418 -0.0547,0.17835 -0.0826,0.22289 -0.0267,0.0431 -0.0677,0.0928 -0.12295,0.14799 -0.0935,0.0878 -0.20283,0.15755 -0.32928,0.21001 -0.12663,0.0517 -0.26099,0.0834 -0.40345,0.0942 -0.1316,0.0165 -0.33001,0.0257 -0.59303,0.0294 -0.26394,0.002 -0.42866,-0.002 -0.49401,-0.0129 -0.0331,0 -0.0769,-0.004 -0.13233,-0.0123 -0.0547,-0.008 -0.10418,-0.0121 -0.14798,-0.0121 -0.15387,-0.0165 -0.31787,-0.0468 -0.49401,-0.0906 -0.1754,-0.044 -0.32136,-0.0935 -0.4364,-0.14817 -0.0655,-0.0331 -0.12368,-0.072 -0.17338,-0.11504 -0.0488,-0.0445 -0.0955,-0.0992 -0.13933,-0.16528 -0.0109,-0.0217 -0.0223,-0.0368 -0.0331,-0.0455 -0.0109,-0.008 -0.0223,-0.0121 -0.0331,-0.0121 -0.0107,0.006 -0.0179,0.006 -0.0201,0.004 -0.003,-0.003 0.001,-0.0151 0.0121,-0.0374 0.005,-0.0164 0.008,-0.0351 0.008,-0.0574 0,-0.0223 -0.003,-0.0525 -0.008,-0.0906 -0.0107,-0.0992 -0.0223,-0.24314 -0.0329,-0.43217 -0.0116,-0.18976 -0.0195,-0.42996 -0.0252,-0.72114 0,-0.18038 -0.002,-0.32633 -0.008,-0.4364 -0.006,-0.10933 -0.0116,-0.17265 -0.0158,-0.18903 -0.006,-0.0223 -0.0101,-0.11375 -0.0129,-0.27608 -0.003,-0.16179 -0.004,-0.42426 -0.004,-0.78667 l -0.008,-1.0044 0.041,-0.0906 c 0.0109,-0.0223 0.0208,-0.0497 0.0287,-0.0819 0.009,-0.0331 0.0151,-0.0604 0.0208,-0.0828 0.0109,-0.0488 0.0331,-0.11504 0.0655,-0.19768 0.0331,-0.0819 0.0633,-0.15093 0.0905,-0.20559 0.0166,-0.0331 0.0331,-0.0561 0.0497,-0.0698 0.0164,-0.0144 0.0416,-0.0294 0.074,-0.0453 0.0216,-0.0114 0.0604,-0.0252 0.11577,-0.0418 0.0547,-0.0164 0.10639,-0.0295 0.15608,-0.0409 0.10988,-0.0274 0.2113,-0.0547 0.3048,-0.0821 0.0935,-0.028 0.15589,-0.0525 0.18902,-0.074 0.0223,-0.0114 0.0381,-0.0237 0.0497,-0.0374 0.0107,-0.0136 0.0216,-0.0344 0.0329,-0.0618 0.0166,-0.0438 0.0289,-0.10417 0.0374,-0.18111 0.008,-0.0769 0.009,-0.13455 0.004,-0.17338 0,-0.0329 -0.004,-0.0532 -0.0121,-0.0611 -0.008,-0.009 -0.026,-0.0178 -0.0532,-0.0295 -0.0166,-0.005 -0.0304,-0.0136 -0.0418,-0.0245 -0.0109,-0.0107 -0.0165,-0.0186 -0.0165,-0.0243 0,-0.006 0.004,-0.013 0.0123,-0.021 0.008,-0.008 0.0178,-0.0179 0.0294,-0.0287 0.0381,-0.0223 0.0683,-0.0497 0.0906,-0.0819 0.0216,-0.0339 0.0324,-0.0663 0.0324,-0.0992 0,-0.0217 -0.002,-0.0388 -0.008,-0.0497 -0.005,-0.0109 -0.0188,-0.0215 -0.041,-0.0324 -0.0554,-0.0388 -0.0898,-0.0661 -0.10344,-0.0826 -0.013,-0.0166 -0.0173,-0.041 -0.0123,-0.074 0,-0.0497 0.0151,-0.0814 0.0453,-0.095 0.0302,-0.0136 0.0977,-0.023 0.2021,-0.0287"
       style="fill:#21201d;fill-opacity:1;fill-rule:nonzero;stroke:none;stroke-width:0.184057"
       id="path558" />
  </g>
</svg>
