<?xml version="1.0" encoding="UTF-8" standalone="no"?>
<!-- Created with Inkscape (http://www.inkscape.org/) -->

<svg
   width="7.1213675mm"
   height="7.304564mm"
   viewBox="0 0 7.1213675 7.304564"
   version="1.1"
   id="svg1809"
   inkscape:version="1.1.2 (0a00cf5339, 2022-02-04)"
   sodipodi:docname="congress_of_the_keys.svg"
   xmlns:inkscape="http://www.inkscape.org/namespaces/inkscape"
   xmlns:sodipodi="http://sodipodi.sourceforge.net/DTD/sodipodi-0.dtd"
   xmlns="http://www.w3.org/2000/svg"
   xmlns:svg="http://www.w3.org/2000/svg">
  <sodipodi:namedview
     id="namedview1811"
     pagecolor="#ffffff"
     bordercolor="#666666"
     borderopacity="1.0"
     inkscape:pageshadow="2"
     inkscape:pageopacity="0.0"
     inkscape:pagecheckerboard="0"
     inkscape:document-units="mm"
     showgrid="false"
     inkscape:zoom="0.64052329"
     inkscape:cx="-1277.0808"
     inkscape:cy="362.98446"
     inkscape:window-width="2560"
     inkscape:window-height="1376"
     inkscape:window-x="0"
     inkscape:window-y="0"
     inkscape:window-maximized="1"
     inkscape:current-layer="layer1" />
  <defs
     id="defs1806" />
  <g
     inkscape:label="Layer 1"
     inkscape:groupmode="layer"
     id="layer1"
     transform="translate(-442.97273,-52.525829)">
    <path
       d="m 449.5656,56.115537 c 0.0482,-0.02667 0.11209,-0.04307 0.19271,-0.04822 0.0804,-0.005 0.13878,0.0021 0.17688,0.02374 0.0589,0.02741 0.10491,0.108592 0.13657,0.2459 0.0324,0.135833 0.0294,0.225841 -0.008,0.268908 -0.0109,0.01087 -0.023,0.02448 -0.0359,0.04031 -0.0136,0.01584 -0.023,0.02946 -0.0289,0.04013 -0.005,0.01584 -0.0193,0.0267 -0.0438,0.03238 -0.0245,0.0052 -0.0683,0.01086 -0.13289,0.01584 -0.11227,0.0052 -0.19712,-0.0014 -0.25307,-0.02007 -0.0561,-0.01877 -0.10786,-0.05246 -0.15682,-0.100679 -0.0316,-0.04252 -0.051,-0.0727 -0.0561,-0.0878 -0.006,-0.01637 -0.006,-0.04602 0,-0.08908 0.005,-0.06976 0.0281,-0.133812 0.0683,-0.192709 0.0403,-0.0589 0.087,-0.102154 0.14098,-0.128658 m -0.14522,-1.479641 c 0.0265,-0.03239 0.0497,-0.05117 0.0683,-0.05688 0.0195,-0.005 0.0604,-0.0072 0.12516,-0.0072 0.0797,0 0.15092,0.01161 0.21277,0.03608 0.0618,0.02357 0.10288,0.05448 0.12515,0.09203 0.0158,0.03221 0.0223,0.100495 0.0193,0.205595 -0.002,0.104175 -0.0114,0.183321 -0.028,0.23725 -0.0101,0.05319 -0.0361,0.0935 -0.0762,0.120004 -0.0403,0.02741 -0.09,0.04307 -0.1489,0.04823 -0.0639,0.0057 -0.12148,-0.0021 -0.17246,-0.02374 -0.0512,-0.02152 -0.10362,-0.06184 -0.15755,-0.120742 -0.0374,-0.03736 -0.0596,-0.067 -0.0683,-0.08853 -0.008,-0.02152 -0.0114,-0.05319 -0.0114,-0.09626 0,-0.06976 0.009,-0.135283 0.028,-0.197128 0.0186,-0.06184 0.0445,-0.111355 0.0762,-0.148717 z m -0.0963,2.886579 c 0.0208,-0.01566 0.0431,-0.02649 0.0639,-0.03221 0.0223,-0.0052 0.0626,-0.0052 0.12074,0 0.0698,0.01069 0.11448,0.01933 0.13307,0.02431 0.0188,0.0052 0.028,0.01877 0.028,0.04031 0,0.0052 0.004,0.01436 0.0123,0.02815 0.008,0.01362 0.0201,0.02579 0.0359,0.03663 0.0109,0.0151 0.023,0.03164 0.0366,0.04749 0.0131,0.01637 0.0274,0.03221 0.044,0.04804 0.0107,0.01658 0.0215,0.02815 0.0322,0.03681 0.0109,0.0077 0.0217,0.01214 0.0317,0.01214 0.006,0 0.0131,0.0021 0.0203,0.0079 0.008,0.005 0.0121,0.01087 0.0121,0.01584 0,0.0057 -0.003,0.01012 -0.008,0.01214 -0.005,0.0028 -0.0107,0.0044 -0.0158,0.0044 -0.006,0 -0.009,0.0099 -0.0121,0.03164 -0.003,0.02152 -0.004,0.04601 -0.004,0.07252 0,0.04252 -0.005,0.0762 -0.0158,0.100679 -0.0107,0.02448 -0.0322,0.06037 -0.0646,0.108596 -0.0482,0.06387 -0.0898,0.10565 -0.12442,0.124421 -0.0351,0.01859 -0.0819,0.02798 -0.14098,0.02798 -0.0532,0 -0.1005,-0.01087 -0.14081,-0.03238 -0.0396,-0.02081 -0.0893,-0.06111 -0.14816,-0.120005 l -0.10492,-0.104912 0.0245,-0.128842 c 0.0158,-0.07473 0.0416,-0.147246 0.0762,-0.217004 0.0344,-0.06976 0.071,-0.117246 0.10859,-0.144671 m -0.46603,-4.044121 c 0.0374,-0.01655 0.0663,-0.023 0.0885,-0.02078 0.0208,0.0028 0.0532,0.0099 0.0963,0.02078 0.0374,0.01069 0.0655,0.02522 0.0841,0.04381 0.0188,0.01877 0.0438,0.06553 0.0762,0.140988 0.0433,0.08043 0.0655,0.129392 0.069,0.148717 0.002,0.01877 -0.002,0.04399 -0.0121,0.0762 -0.0215,0.04252 -0.0569,0.08283 -0.10491,0.120191 -0.0482,0.03736 -0.0907,0.05669 -0.12884,0.05669 -0.0423,0 -0.10712,-0.0151 -0.19271,-0.04455 -0.0854,-0.02872 -0.14724,-0.05742 -0.1846,-0.08411 -0.0217,-0.01087 -0.0418,-0.02798 -0.0606,-0.05246 -0.0186,-0.02374 -0.0315,-0.04675 -0.0359,-0.06828 -0.006,-0.01584 -0.0144,-0.03313 -0.0245,-0.05246 -0.0107,-0.01877 -0.0216,-0.03313 -0.0322,-0.04399 -0.0109,-0.01069 -0.0158,-0.01711 -0.0158,-0.02007 0,-0.0028 0.005,-0.0042 0.0158,-0.0042 0.0107,0 0.0216,-0.0052 0.0322,-0.01584 0.0101,-0.01087 0.0188,-0.02667 0.0245,-0.04823 0.0208,-0.04822 0.0438,-0.08264 0.0676,-0.104359 0.0245,-0.02226 0.0604,-0.03295 0.10859,-0.03295 0.0215,0 0.046,-0.0021 0.0727,-0.0072 0.0272,-0.0059 0.046,-0.0079 0.0567,-0.0079 m -0.85329,5.475725 c 0.0596,-0.0052 0.11062,-0.0086 0.15368,-0.0086 0.15535,0 0.26891,0.03387 0.34088,0.100679 0.0727,0.06755 0.11724,0.17835 0.13307,0.33425 0.005,0.07988 0.001,0.129392 -0.0123,0.1489 -0.0129,0.01859 -0.0574,0.04086 -0.13215,0.06829 -0.10215,0.03164 -0.17559,0.04822 -0.22086,0.04822 -0.046,0 -0.0876,-0.01379 -0.12498,-0.04031 -0.0482,-0.03238 -0.0992,-0.08853 -0.1524,-0.168962 -0.0539,-0.08062 -0.0806,-0.139517 -0.0806,-0.17688 0,-0.0267 0.0116,-0.07767 0.0359,-0.153137 0.0245,-0.07473 0.0447,-0.125896 0.0598,-0.1524 m -0.44947,-6.216371 c 0.0208,-0.0099 0.0626,-0.0092 0.12442,0.0044 0.0618,0.01362 0.10289,0.02872 0.12516,0.0438 0.0315,0.02152 0.0532,0.05246 0.0639,0.0935 0.0109,0.03957 0.0158,0.118533 0.0158,0.236516 v 0.192709 l -0.0883,0.08043 c -0.0274,0.02741 -0.0547,0.04896 -0.0849,0.06479 -0.0287,0.01584 -0.0547,0.02649 -0.0762,0.03238 -0.0475,0.01069 -0.11356,0.01143 -0.19712,0.0035 -0.0834,-0.0079 -0.13215,-0.02007 -0.14872,-0.03589 -0.0532,-0.04307 -0.0856,-0.113563 -0.0964,-0.213508 -0.0107,-0.09921 0.003,-0.186267 0.0403,-0.260992 0.0267,-0.05319 0.0641,-0.102154 0.11282,-0.144487 0.0482,-0.04325 0.0915,-0.06976 0.12884,-0.08062 0.0158,-0.0057 0.0322,-0.0094 0.048,-0.01214 0.0158,-0.0028 0.0267,-0.0044 0.0324,-0.0044 m -0.97348,5.966787 c 0.006,-0.005 0.0109,-0.0079 0.0166,-0.0079 0.0109,0 0.0188,0.0028 0.0238,0.0079 0.006,0.0052 0.008,0.01087 0.008,0.01584 0,0.0057 -0.002,0.0094 -0.008,0.01235 -0.005,0.0028 -0.0129,0.0042 -0.0238,0.0042 -0.006,0 -0.0109,-0.0014 -0.0166,-0.0042 -0.005,-0.0028 -0.008,-0.0066 -0.008,-0.01235 0,-0.005 0.003,-0.01069 0.008,-0.01584 m 0,0.491067 c 0.0166,-0.01069 0.0418,-0.01933 0.0769,-0.02448 0.0346,-0.005 0.0655,-0.0077 0.092,-0.0077 0.0539,0 0.0913,0.005 0.11283,0.01563 0.0217,0.01087 0.0611,0.04546 0.12092,0.105099 l 0.12,0.120005 -0.0158,0.128658 c -0.0166,0.113008 -0.0431,0.1905 -0.0806,0.23375 -0.0374,0.04233 -0.0992,0.06387 -0.18461,0.06387 -0.0324,0 -0.0683,-0.0014 -0.1086,-0.0042 -0.0403,-0.0021 -0.0712,-0.0065 -0.0928,-0.01214 -0.0482,-0.01087 -0.0791,-0.02226 -0.0928,-0.03608 -0.0129,-0.01288 -0.0302,-0.04086 -0.0517,-0.08411 -0.0324,-0.06976 -0.049,-0.147246 -0.049,-0.233571 0,-0.08559 0.0166,-0.147429 0.049,-0.184795 0.0107,-0.01584 0.0265,-0.03238 0.048,-0.04822 0.0217,-0.01658 0.0403,-0.02649 0.0561,-0.03164 m -0.78003,-6.610254 c 0.0381,-0.02649 0.0705,-0.04455 0.097,-0.05246 0.0267,-0.0079 0.069,-0.0094 0.12866,-0.0035 0.0425,0 0.0762,0.0021 0.0999,0.0079 0.0245,0.005 0.0368,0.01069 0.0368,0.01566 0,0.01087 0.004,0.023 0.0114,0.03608 0.009,0.01362 0.0173,0.02798 0.028,0.04454 0.0116,0.01087 0.021,0.02723 0.0281,0.04822 0.009,0.02152 0.0121,0.04013 0.0121,0.05595 0,0.01087 0.003,0.02522 0.009,0.04473 0.005,0.01859 0.0109,0.03369 0.0158,0.0438 0.0158,0.02723 0.0109,0.07252 -0.0158,0.137308 -0.0272,0.06405 -0.0618,0.115037 -0.10491,0.1524 -0.0532,0.05393 -0.10712,0.08559 -0.16031,0.097 -0.0539,0.01013 -0.11504,0.0072 -0.18553,-0.0086 -0.0698,-0.02152 -0.11798,-0.04657 -0.14449,-0.0762 -0.0267,-0.02946 -0.0374,-0.06534 -0.0316,-0.108408 0.005,-0.02173 0.006,-0.03884 0.004,-0.05264 -0.003,-0.01288 -0.0121,-0.02501 -0.0287,-0.03589 l -0.0396,-0.03239 0.0396,-0.05595 c 0.0116,-0.01658 0.0208,-0.03238 0.0287,-0.04822 0.008,-0.01658 0.0116,-0.02724 0.0116,-0.03239 0,-0.02152 0.0151,-0.04951 0.0445,-0.08412 0.0295,-0.03443 0.0683,-0.06608 0.11651,-0.09276 m -1.10158,6.183975 c 0.0166,-0.01658 0.0361,-0.02596 0.0606,-0.02797 0.0243,-0.0028 0.0683,-0.0021 0.13215,0.0035 0.0433,0.0057 0.0834,0.01087 0.12093,0.01584 0.0381,0.0057 0.0646,0.01087 0.0804,0.01658 0.0272,0.01584 0.051,0.04822 0.0727,0.09626 0.0215,0.04822 0.0344,0.107121 0.0401,0.17688 0.005,0.05393 0.005,0.09276 0,0.116508 -0.006,0.02448 -0.0186,0.05761 -0.0401,0.100679 -0.0267,0.05393 -0.0677,0.09498 -0.12093,0.125159 -0.0532,0.02872 -0.11779,0.04381 -0.19325,0.04381 -0.0907,0 -0.15608,-0.03238 -0.19713,-0.09645 -0.0396,-0.06461 -0.0547,-0.166758 -0.0438,-0.305537 0.0109,-0.08043 0.0215,-0.138046 0.0324,-0.1732 0.0107,-0.03461 0.0295,-0.06553 0.0559,-0.09203 m 2.14702,-4.326834 c -0.13381,-0.02081 -0.28768,-0.03443 -0.46235,-0.04031 -0.17412,-0.0042 -0.33075,-0.0021 -0.47026,0.0086 -0.0646,0.0057 -0.12719,0.0094 -0.18903,0.01235 -0.0618,0.0021 -0.10565,0.0035 -0.13234,0.0035 -0.0482,0 -0.10067,0.01087 -0.15681,0.03238 -0.0567,0.02152 -0.0955,0.04822 -0.11633,0.08043 -0.0109,0.0052 -0.021,0.01161 -0.0289,0.02025 -0.008,0.0079 -0.0171,0.01214 -0.028,0.01214 -0.0265,0 -0.0942,0.04823 -0.20136,0.144487 -0.10712,0.09645 -0.17688,0.171909 -0.20909,0.225104 -0.0376,0.0589 -0.0705,0.125896 -0.0999,0.201359 -0.0296,0.07473 -0.0497,0.136571 -0.0606,0.184792 0,0.01584 -0.004,0.03295 -0.0121,0.05172 -0.008,0.01933 -0.0144,0.03164 -0.0201,0.03663 -0.0215,0.03164 -0.0453,0.101416 -0.072,0.209274 -0.0272,0.107121 -0.041,0.192709 -0.041,0.257313 0,0.03736 0.004,0.08062 0.009,0.128655 0.005,0.04749 0.0136,0.08779 0.0238,0.120191 0.006,0.02723 0.0136,0.0819 0.0245,0.164546 0.0109,0.08338 0.0188,0.164733 0.0237,0.245166 0.0109,0.193446 0.026,0.320813 0.0445,0.382659 0.0188,0.0611 0.0554,0.119267 0.1086,0.172458 0.0374,0.03238 0.0618,0.0589 0.072,0.08062 0.0107,0.02152 0.0164,0.04601 0.0164,0.07178 0,0.0381 0.0109,0.07418 0.0324,0.109333 0.0215,0.03443 0.0591,0.07325 0.11227,0.116509 0.0157,0.01584 0.0344,0.03662 0.0567,0.06037 0.0215,0.02374 0.0374,0.0438 0.0482,0.06037 0.0482,0.08559 0.14375,0.168967 0.28547,0.2494 0.14154,0.08062 0.27682,0.128104 0.40621,0.144667 0.0423,0.005 0.0869,0.01288 0.13216,0.02374 0.046,0.01069 0.0791,0.02431 0.10068,0.04013 0.0591,0.02741 0.1754,0.05761 0.34952,0.09276 0.17393,0.03461 0.3256,0.05467 0.45443,0.06037 0.0963,0.0052 0.1675,0.0065 0.21351,0.0037 0.0453,-0.0021 0.1027,-0.01436 0.17246,-0.03607 0.0433,-0.01637 0.0871,-0.03147 0.13307,-0.04804 0.0453,-0.01584 0.0792,-0.02946 0.10068,-0.04031 0.0215,-0.01087 0.0467,-0.02374 0.0762,-0.04031 0.0295,-0.01584 0.0517,-0.02946 0.0683,-0.04012 0.0532,-0.03239 0.11062,-0.07988 0.17247,-0.144667 0.0618,-0.06461 0.10067,-0.123504 0.1165,-0.176883 0.006,-0.02649 0.0216,-0.06607 0.049,-0.116321 0.0265,-0.05117 0.0532,-0.100683 0.0797,-0.148904 0.0267,-0.04896 0.0512,-0.09424 0.0727,-0.137309 0.0215,-0.04252 0.0324,-0.06902 0.0324,-0.07988 0,-0.01069 0.002,-0.02152 0.008,-0.03221 0.005,-0.01086 0.0107,-0.01877 0.0164,-0.02448 0.0101,-0.01087 0.018,-0.023 0.0237,-0.03608 0.005,-0.01288 0.0109,-0.02797 0.0158,-0.04454 0.006,-0.01584 0.0123,-0.03957 0.0203,-0.07178 0.008,-0.03238 0.0178,-0.06479 0.028,-0.09645 0.0374,-0.123688 0.0582,-0.217005 0.0604,-0.281792 0.003,-0.06405 -0.004,-0.179088 -0.0201,-0.345846 -0.0101,-0.08559 -0.0215,-0.164733 -0.0316,-0.236516 -0.0109,-0.0727 -0.0188,-0.119451 -0.0245,-0.140988 -0.005,-0.01655 -0.009,-0.03238 -0.0121,-0.04804 -0.002,-0.01658 -0.004,-0.02963 -0.004,-0.04031 0,-0.01658 -0.0208,-0.06405 -0.0604,-0.144487 -0.0403,-0.08062 -0.0898,-0.174854 -0.14945,-0.281975 -0.026,-0.04307 -0.0519,-0.09129 -0.0764,-0.145221 -0.0236,-0.0532 -0.0387,-0.09553 -0.0438,-0.127921 -0.0158,-0.07546 -0.051,-0.142279 -0.10418,-0.201359 -0.0539,-0.0589 -0.16105,-0.144487 -0.3221,-0.257316 -0.0589,-0.04252 -0.14595,-0.08337 -0.26099,-0.120741 -0.11577,-0.03755 -0.23154,-0.06405 -0.35007,-0.08062 m -2.43599,-1.181284 c 0.0158,-0.02226 0.0346,-0.03514 0.0561,-0.04104 0.0215,-0.005 0.056,-0.0072 0.10418,-0.0072 0.0697,0 0.12589,0.0066 0.16896,0.01951 0.0425,0.01362 0.0834,0.0416 0.12074,0.08485 0.0591,0.05319 0.0915,0.09773 0.0965,0.132337 0.006,0.03514 -0.005,0.08688 -0.0324,0.156634 -0.0158,0.02741 -0.0359,0.05761 -0.0596,0.09277 -0.0252,0.03461 -0.0445,0.05743 -0.0604,0.06828 -0.0274,0.02741 -0.0512,0.04252 -0.0734,0.04823 -0.0208,0.0057 -0.0582,0.0057 -0.11209,0 -0.0317,-0.0057 -0.0705,-0.01235 -0.11651,-0.02025 -0.0453,-0.0079 -0.0819,-0.01711 -0.10859,-0.02798 -0.048,-0.01087 -0.079,-0.02152 -0.092,-0.03238 -0.0136,-0.0099 -0.023,-0.03164 -0.0287,-0.06387 -0.0101,-0.05908 -0.002,-0.127367 0.0245,-0.205038 0.0265,-0.07768 0.0641,-0.146513 0.11282,-0.204859 m 1.54368,0.771388 c 0.0431,-0.01069 0.0992,-0.01711 0.16823,-0.02007 0.0698,-0.0021 0.14522,-0.0042 0.22565,-0.0042 0.11798,0 0.19565,0.0042 0.23302,0.01213 0.0381,0.0086 0.0885,0.02522 0.15313,0.05246 0.0589,0.03239 0.11007,0.05246 0.1524,0.06037 0.0433,0.0079 0.13657,0.01453 0.28197,0.02025 l 0.29762,0.0079 0.17688,0.104912 c 0.11209,0.06976 0.18038,0.116509 0.20486,0.140251 0.0237,0.02448 0.0359,0.05246 0.0359,0.08485 0,0.02649 0.0136,0.05595 0.0403,0.08761 0.0267,0.03238 0.0777,0.08633 0.15314,0.16105 0.0905,0.0913 0.1524,0.158292 0.18479,0.201362 0.0324,0.04307 0.072,0.120742 0.12001,0.233754 l 0.0972,0.216267 c 0.0265,0.04896 0.048,0.09 0.0639,0.125159 0.0166,0.03443 0.013,0.02226 -0.008,-0.03663 0.0109,0.02152 0.0203,0.04602 0.0282,0.07252 0.008,0.02671 0.0151,0.05117 0.0201,0.0727 0.005,0.01584 0.0151,0.04104 0.028,0.0762 0.0138,0.03443 0.0252,0.06534 0.0368,0.09203 0.0265,0.04896 0.0409,0.08908 0.0438,0.120742 0.003,0.03238 10e-4,0.104913 -0.004,0.217188 0,0.0646 -0.004,0.125158 -0.0114,0.181112 -0.008,0.05614 -0.0151,0.09 -0.0201,0.10068 -0.0109,0.03736 -0.0245,0.0935 -0.0403,0.168229 -0.0166,0.07546 -0.0295,0.156083 -0.0403,0.241667 -0.0109,0.08559 -0.0215,0.159579 -0.0324,0.221424 -0.0107,0.0611 -0.0317,0.175405 -0.0639,0.341425 -0.0539,0.2575 -0.10363,0.431434 -0.14891,0.522725 -0.0453,0.09129 -0.13509,0.187738 -0.26964,0.289709 -0.10141,0.07491 -0.18405,0.128841 -0.24516,0.160312 -0.0618,0.03238 -0.18332,0.07767 -0.3659,0.137308 -0.10713,0.03755 -0.23449,0.06773 -0.38173,0.09203 -0.14743,0.02374 -0.24811,0.0309 -0.30131,0.02025 -0.0116,0 -0.0596,-0.0037 -0.14522,-0.01235 -0.0856,-0.0079 -0.17908,-0.01436 -0.28105,-0.02007 -0.15037,-0.01069 -0.25897,-0.02007 -0.32651,-0.02798 -0.0661,-0.0079 -0.11578,-0.02025 -0.14817,-0.03608 -0.0265,-0.01069 -0.0539,-0.01859 -0.0804,-0.02431 -0.0267,-0.0052 -0.0482,-0.0079 -0.0648,-0.0079 -0.0208,0 -0.0374,-0.0021 -0.048,-0.0079 -0.0101,-0.0059 -0.0158,-0.01305 -0.0158,-0.02448 0,-0.02081 -0.0316,-0.05761 -0.0965,-0.108596 -0.0646,-0.05025 -0.12073,-0.08411 -0.16896,-0.100679 -0.16602,-0.06405 -0.27461,-0.112092 -0.32559,-0.144484 -0.0512,-0.03164 -0.1432,-0.110066 -0.27756,-0.233016 -0.0755,-0.07473 -0.16749,-0.174675 -0.27756,-0.297625 -0.11006,-0.123687 -0.1754,-0.203383 -0.1962,-0.240746 -0.006,-0.0059 -0.0116,-0.01803 -0.0166,-0.03681 -0.006,-0.01859 -0.008,-0.03884 -0.008,-0.06037 0,-0.02152 -0.006,-0.04804 -0.0166,-0.08043 -0.0101,-0.03164 -0.0208,-0.06184 -0.0324,-0.08853 -0.0158,-0.02649 -0.0287,-0.07105 -0.0396,-0.13215 -0.0107,-0.06185 -0.0215,-0.133075 -0.0322,-0.212958 -0.0158,-0.139513 -0.0346,-0.263017 -0.0561,-0.370138 -0.0215,-0.107125 -0.0403,-0.168967 -0.0569,-0.184796 -0.0107,-0.01087 -0.0158,-0.02173 -0.0158,-0.03238 0,-0.01087 0.005,-0.02448 0.0158,-0.04031 0.006,-0.01584 0.0124,-0.04307 0.0203,-0.08043 0.009,-0.03755 0.0121,-0.07767 0.0121,-0.120188 0.006,-0.0381 0.0109,-0.07823 0.0158,-0.120742 0.006,-0.04307 0.0109,-0.0727 0.0166,-0.08908 0.0374,-0.138783 0.0762,-0.264679 0.1165,-0.377504 0.0401,-0.112829 0.0733,-0.200625 0.10068,-0.265413 0.0158,-0.04307 0.0302,-0.08338 0.0438,-0.120741 0.0136,-0.03736 0.0201,-0.0589 0.0201,-0.06387 0,-0.02173 0.0166,-0.05835 0.049,-0.108596 0.0316,-0.05117 0.069,-0.100679 0.11209,-0.148904 0.0374,-0.04307 0.11301,-0.104912 0.2251,-0.185529 0.11283,-0.0797 0.18259,-0.120742 0.20927,-0.120742 0.006,0 0.0201,-0.0035 0.0438,-0.01143 0.0245,-0.0079 0.0525,-0.02025 0.0848,-0.03607 0.0272,-0.01655 0.0641,-0.03238 0.11283,-0.04804 0.0482,-0.01658 0.0935,-0.02741 0.13656,-0.03239 0.18204,-0.03736 0.30775,-0.06332 0.3775,-0.0762 0.0698,-0.01379 0.13731,-0.02815 0.20136,-0.04472 m -2.46893,3.587104 c 0.0223,-0.01087 0.0431,-0.01803 0.0646,-0.02081 0.0217,-0.0021 0.0346,-0.0037 0.0403,-0.0037 0.0109,0.005 0.0201,0.0079 0.028,0.0079 h 0.0203 c 0.0215,0 0.0725,0.03884 0.15239,0.116508 0.0804,0.07841 0.12866,0.132154 0.14522,0.16455 0.005,0.02226 0.0144,0.04325 0.028,0.06479 0.0131,0.02155 0.0223,0.03736 0.0281,0.04822 0.0166,0.01584 0.0243,0.02501 0.0243,0.02798 0,0.0028 -0.008,0.0042 -0.0243,0.0042 -0.006,0 -0.0166,0.0079 -0.0324,0.02374 -0.0166,0.01654 -0.0317,0.0381 -0.0482,0.06479 -0.0107,0.02649 -0.0265,0.05025 -0.0482,0.07178 -0.0215,0.02173 -0.0431,0.03755 -0.0639,0.04822 -0.0697,0.03239 -0.14963,0.04252 -0.23798,0.02872 -0.0878,-0.01362 -0.14817,-0.0473 -0.18056,-0.100496 -0.0215,-0.03238 -0.0388,-0.09 -0.0517,-0.173379 -0.0144,-0.08265 -0.018,-0.145959 -0.0129,-0.188292 0.0107,-0.04896 0.0302,-0.08706 0.0567,-0.117246 0.0267,-0.02946 0.0641,-0.05246 0.11228,-0.06755 m -0.20928,-3.35335 c 0.0274,-0.01658 0.051,-0.02946 0.0727,-0.04031 0.0215,-0.01069 0.0351,-0.01362 0.0401,-0.0086 0.0109,0 0.0267,0.0028 0.0482,0.0086 0.0215,0.0052 0.0431,0.01087 0.0648,0.01584 0.0208,0 0.0401,0.0028 0.0559,0.0079 0.0158,0.0057 0.0267,0.01087 0.0324,0.01658 0,0.005 0.005,0.0086 0.0158,0.01161 0.0109,0.0028 0.0215,0.0035 0.0324,0.0035 0.0107,0 0.0245,0.0079 0.0403,0.02081 0.0157,0.01305 0.0287,0.0302 0.0401,0.05246 0.0109,0.01584 0.0223,0.03164 0.0361,0.04749 0.0136,0.01658 0.023,0.02448 0.028,0.02448 0.0109,0.01087 0.0109,0.04602 0,0.104913 -0.0109,0.05908 -0.0267,0.112275 -0.0482,0.160499 -0.0107,0.03221 -0.0272,0.05743 -0.048,0.0762 -0.0217,0.01859 -0.0539,0.03939 -0.0964,0.06111 -0.0913,0.0473 -0.15019,0.07178 -0.17688,0.07178 -0.0265,0 -0.0698,-0.01859 -0.12865,-0.05595 -0.0698,-0.04896 -0.11283,-0.08632 -0.12939,-0.113013 -0.0151,-0.02649 -0.0238,-0.07473 -0.0238,-0.144487 0,-0.02723 -0.002,-0.05098 -0.008,-0.07252 -0.006,-0.02173 -0.0109,-0.03461 -0.0158,-0.04031 -0.0166,-0.01087 -0.0223,-0.02152 -0.0166,-0.03238 0.006,-0.01013 0.0195,-0.01859 0.0403,-0.02374 0.0107,0 0.0215,-0.0057 0.0324,-0.01658 0.0107,-0.0099 0.0158,-0.02081 0.0158,-0.03164 0.006,-0.01584 0.0179,-0.03369 0.0366,-0.05246 0.0186,-0.01859 0.0388,-0.03663 0.0596,-0.05172 m -0.21645,1.808921 c 0.0374,-0.03736 0.0655,-0.06185 0.0841,-0.07252 0.0188,-0.01012 0.0497,-0.01584 0.092,-0.01584 0.0913,0 0.16694,0.03443 0.22583,0.104179 0.0589,0.06976 0.0935,0.163996 0.10418,0.281792 0.0109,0.08559 0.003,0.143196 -0.0237,0.172646 -0.0272,0.02946 -0.0913,0.06037 -0.19326,0.09277 l -0.16105,0.04804 -0.0799,-0.08043 c -0.0589,-0.0589 -0.097,-0.108592 -0.11283,-0.148901 -0.0158,-0.04012 -0.0245,-0.09774 -0.0245,-0.172462 0,-0.05964 0.004,-0.09774 0.0121,-0.117246 0.008,-0.01859 0.0339,-0.04877 0.0769,-0.09203"
       style="fill:#21201d;fill-opacity:1;fill-rule:nonzero;stroke:none;stroke-width:0.184057"
       id="path562" />
  </g>
</svg>
