<?xml version="1.0" encoding="UTF-8" standalone="no"?>
<!-- Created with Inkscape (http://www.inkscape.org/) -->

<svg
   width="4.7874012mm"
   height="7.7031598mm"
   viewBox="0 0 4.7874012 7.7031598"
   version="1.1"
   id="svg1921"
   inkscape:version="1.1.2 (0a00cf5339, 2022-02-04)"
   sodipodi:docname="crimson_conspiracy.svg"
   xmlns:inkscape="http://www.inkscape.org/namespaces/inkscape"
   xmlns:sodipodi="http://sodipodi.sourceforge.net/DTD/sodipodi-0.dtd"
   xmlns="http://www.w3.org/2000/svg"
   xmlns:svg="http://www.w3.org/2000/svg">
  <sodipodi:namedview
     id="namedview1923"
     pagecolor="#ffffff"
     bordercolor="#666666"
     borderopacity="1.0"
     inkscape:pageshadow="2"
     inkscape:pageopacity="0.0"
     inkscape:pagecheckerboard="0"
     inkscape:document-units="mm"
     showgrid="false"
     inkscape:zoom="0.64052329"
     inkscape:cx="9.3673409"
     inkscape:cy="14.831623"
     inkscape:window-width="2560"
     inkscape:window-height="1376"
     inkscape:window-x="0"
     inkscape:window-y="0"
     inkscape:window-maximized="1"
     inkscape:current-layer="layer1" />
  <defs
     id="defs1918" />
  <g
     inkscape:label="Layer 1"
     inkscape:groupmode="layer"
     id="layer1"
     transform="translate(-102.52698,-144.648)">
    <path
       d="m 105.632,145.41525 c -0.056,-0.0418 -0.12792,-0.0554 -0.21277,-0.0425 -0.0849,0.0121 -0.15092,0.0445 -0.19767,0.097 -0.041,0.0411 -0.0683,0.0965 -0.0812,0.16621 -0.0131,0.0697 -0.007,0.13583 0.0193,0.19768 0.0411,0.0883 0.11356,0.14595 0.21718,0.17467 0.10271,0.0282 0.19327,0.0136 0.27094,-0.0431 0.0986,-0.072 0.14595,-0.16473 0.14319,-0.27903 -0.002,-0.11357 -0.0554,-0.20412 -0.15902,-0.27094 m 0.20209,5.06877 c -0.026,-0.0158 -0.0547,-0.026 -0.0856,-0.0309 -0.0309,-0.005 -0.0955,-0.0101 -0.19345,-0.0151 -0.14448,0 -0.24295,0.008 -0.29467,0.0265 -0.0517,0.018 -0.10363,0.0583 -0.15461,0.12 -0.0316,0.0468 -0.0453,0.0836 -0.0431,0.1086 0.003,0.026 0.0245,0.0598 0.0661,0.10068 0.0675,0.0777 0.1732,0.12736 0.31786,0.14743 0.14449,0.0208 0.26302,0.005 0.35652,-0.0468 0.046,-0.0252 0.0863,-0.0582 0.12,-0.0963 0.0339,-0.0388 0.0504,-0.0712 0.0504,-0.0972 0,-0.0309 -0.0144,-0.0683 -0.0431,-0.11209 -0.0281,-0.0438 -0.0606,-0.0791 -0.0964,-0.10491 m -0.0618,-5.47941 c -0.0158,-0.006 -0.0482,-0.0121 -0.097,-0.0193 -0.0497,-0.008 -0.10215,-0.0116 -0.15884,-0.0116 -0.10362,-0.006 -0.18405,-0.001 -0.24093,0.0116 -0.0561,0.0129 -0.1108,0.0374 -0.16252,0.0733 -0.0151,0.0151 -0.0295,0.0272 -0.0423,0.0351 -0.0131,0.008 -0.0217,0.0116 -0.0274,0.0116 -0.005,0 -0.0186,0.0101 -0.0423,0.0309 -0.023,0.0208 -0.0504,0.0468 -0.0814,0.0777 -0.0416,0.0409 -0.0703,0.0747 -0.0856,0.10068 -0.0151,0.0258 -0.0228,0.0495 -0.0228,0.0697 0,0.0151 -0.003,0.0309 -0.008,0.0466 -0.005,0.0151 -0.013,0.0282 -0.023,0.0388 -0.0109,0.0151 -0.0173,0.0396 -0.0195,0.0735 -0.003,0.0337 -0.004,0.0812 -0.004,0.14301 0,0.0727 0.003,0.12736 0.008,0.16326 0.005,0.0359 0.0178,0.0777 0.0388,0.12368 0.0307,0.0725 0.0631,0.13013 0.097,0.17467 0.0337,0.0438 0.0812,0.0863 0.14301,0.12719 0.0878,0.0677 0.18259,0.11006 0.28327,0.1281 0.10068,0.0186 0.19197,0.0114 0.27461,-0.0195 0.0368,-0.01 0.0742,-0.023 0.11301,-0.0381 0.0388,-0.0158 0.071,-0.0257 0.0963,-0.0309 0.0569,-0.0215 0.11503,-0.0582 0.17467,-0.11283 0.0591,-0.0539 0.10509,-0.11209 0.13602,-0.17393 0.0258,-0.0468 0.0396,-0.0871 0.0423,-0.12093 0.002,-0.0329 0.004,-0.10123 0.004,-0.20486 -0.004,-0.10344 -0.0116,-0.17467 -0.0195,-0.21351 -0.007,-0.0381 -0.0245,-0.0891 -0.0503,-0.15092 -0.0361,-0.0677 -0.0683,-0.12019 -0.0972,-0.15903 -0.028,-0.0388 -0.0525,-0.0582 -0.0733,-0.0582 -0.0208,0 -0.026,0.0144 -0.0151,0.0431 0.0101,0.0289 0.0331,0.0705 0.0698,0.1281 0.041,0.0668 0.0705,0.13934 0.0891,0.21627 0.018,0.0777 0.0245,0.1605 0.0195,0.24885 -0.006,0.0977 -0.0215,0.17393 -0.0468,0.2286 -0.026,0.0539 -0.0727,0.10933 -0.13952,0.1662 -0.0675,0.0617 -0.12939,0.10492 -0.18626,0.12792 -0.0567,0.023 -0.13952,0.0403 -0.24793,0.0503 l -0.20135,0.0237 -0.10068,-0.0856 c -0.0676,-0.0517 -0.11872,-0.097 -0.15535,-0.13584 -0.0359,-0.0381 -0.0747,-0.0883 -0.1165,-0.15093 l -0.0619,-0.10859 0.0153,-0.21719 c 0.006,-0.12368 0.0201,-0.21571 0.0431,-0.27461 0.023,-0.0596 0.0633,-0.11283 0.12,-0.15958 0.0468,-0.0359 0.11154,-0.072 0.19345,-0.10786 0.0834,-0.0359 0.16031,-0.0626 0.23301,-0.0777 0.0619,-0.005 0.10565,-0.006 0.13142,-0.004 0.026,0.003 0.0618,0.0121 0.10933,0.0272 0.0302,0.0101 0.0591,0.0193 0.0848,0.0272 0.026,0.008 0.041,0.009 0.046,0.004 0.0158,-0.0101 0.0195,-0.023 0.0116,-0.0388 -0.007,-0.0151 -0.0245,-0.0309 -0.0497,-0.046 m -1.0158,6.0452 c -0.0467,-0.0418 -0.0749,-0.0663 -0.0848,-0.0742 -0.0109,-0.007 -0.0151,-0.004 -0.0151,0.0123 0,0.0257 0.0136,0.0604 0.0423,0.10491 0.028,0.0433 0.0604,0.0834 0.0965,0.12019 0.0725,0.0668 0.15736,0.12075 0.25584,0.16234 0.0977,0.0411 0.21221,0.0698 0.3416,0.0856 0.0928,0.0151 0.20983,0.0151 0.35228,0 0.14228,-0.0158 0.23081,-0.0388 0.2667,-0.0698 0.0158,-0.0107 0.0324,-0.0208 0.051,-0.0316 0.018,-0.01 0.0346,-0.0158 0.0504,-0.0158 0.0517,-0.0201 0.10859,-0.0624 0.17044,-0.12719 0.0617,-0.0648 0.0933,-0.11798 0.0933,-0.15884 0,-0.026 -0.009,-0.0346 -0.0237,-0.0274 -0.0158,0.008 -0.0488,0.0324 -0.10049,0.0742 -0.0777,0.0567 -0.16253,0.10638 -0.25603,0.15093 -0.0928,0.0438 -0.18111,0.0705 -0.26393,0.0812 -0.0769,0.0109 -0.18038,0.0109 -0.30977,0 -0.12884,-0.0107 -0.22215,-0.0258 -0.27903,-0.0468 -0.0567,-0.0208 -0.12147,-0.0525 -0.19344,-0.097 -0.0725,-0.0431 -0.13731,-0.0913 -0.194,-0.14302 m -1.13176,-3.45679 c -0.0309,-0.0361 -0.0618,-0.0403 -0.0928,-0.0116 -0.0309,0.028 -0.0381,0.0661 -0.023,0.11209 0.0151,0.026 0.0324,0.044 0.0504,0.0547 0.0178,0.0101 0.0374,0.008 0.0582,-0.008 0.0158,-0.0158 0.0245,-0.0401 0.0267,-0.0733 0.003,-0.0339 -0.004,-0.0583 -0.0195,-0.074 m 0.19418,-0.43364 c -0.005,-0.0109 -0.0158,-0.018 -0.0309,-0.0237 -0.0158,-0.005 -0.0287,-0.008 -0.0388,-0.008 -0.0208,0 -0.0698,0.0223 -0.14743,0.0663 -0.0777,0.0445 -0.1316,0.0812 -0.16252,0.11209 -0.0257,0.026 -0.0438,0.0648 -0.0545,0.11651 -0.0101,0.0517 -0.005,0.0856 0.0156,0.10067 0.0101,0.0107 0.0245,0.0114 0.0425,0.004 0.018,-0.008 0.0475,-0.0302 0.0891,-0.0661 0.0519,-0.0468 0.0957,-0.0791 0.1316,-0.0972 0.0359,-0.0178 0.0698,-0.0265 0.10142,-0.0265 0.051,0 0.0826,-0.0203 0.0928,-0.0583 0.01,-0.0388 -0.003,-0.079 -0.0388,-0.12 m 0.69021,2.77448 c 0.0151,-0.0107 0.0302,-0.0179 0.046,-0.0237 0.0158,-0.005 0.026,-0.007 0.0309,-0.007 0.0208,-0.005 0.0245,0.006 0.0121,0.0346 -0.0136,0.0287 -0.0381,0.0604 -0.074,0.097 l -0.0698,0.0856 -1.00807,0.0151 -0.1,-0.10859 c -0.0366,-0.0359 -0.0582,-0.0618 -0.0661,-0.0777 -0.008,-0.0151 -0.006,-0.0257 0.004,-0.0309 0.01,0 0.0243,0.003 0.0431,0.008 0.018,0.005 0.0344,0.013 0.0497,0.023 0.0466,0.021 0.11503,0.0339 0.20559,0.0396 0.0906,0.005 0.24719,0.002 0.46934,-0.009 0.13381,-0.01 0.23743,-0.0179 0.30921,-0.023 0.0727,-0.005 0.12222,-0.0129 0.14817,-0.023 m 0.68156,-1.11576 0.008,-1.2481 h -0.27902 c -0.0309,0 -0.0488,0.003 -0.0547,0.008 -0.005,0.005 -0.0747,0.0178 -0.20835,0.0381 -0.13528,0.0208 -0.24093,0.0337 -0.3186,0.0394 l -0.0928,0.007 -0.008,0.14743 c -0.005,0.0418 -0.007,0.0893 -0.007,0.1432 0,0.0545 0.002,0.097 0.007,0.12792 0.005,0.0359 0.006,0.0791 0.004,0.12792 -0.003,0.049 -0.007,0.0893 -0.0116,0.12019 -0.006,0.0416 -0.008,0.0826 -0.008,0.12424 0,0.041 0.005,0.0856 0.0151,0.1316 0.005,0.0468 0.008,0.0826 0.008,0.10859 0,0.026 -0.003,0.0468 -0.008,0.0618 -0.005,0.0101 -0.007,0.0223 -0.007,0.0344 0,0.0138 0.002,0.0252 0.007,0.0361 0.005,0.01 0.0109,0.0272 0.0158,0.0539 0.005,0.0251 0.007,0.0517 0.007,0.0769 0,0.0935 0.0245,0.21847 0.0742,0.37677 0.0488,0.15663 0.10196,0.28253 0.15884,0.37529 0.0158,0.0258 0.0265,0.0503 0.0344,0.074 0.008,0.023 0.0116,0.0396 0.0116,0.0503 -0.0101,0.0151 -0.0791,0.0281 -0.20928,0.0381 -0.12865,0.0109 -0.30185,0.0158 -0.51903,0.0158 -0.21719,0 -0.34879,-0.01 -0.39554,-0.0309 -0.046,-0.0208 -0.046,-0.0675 0,-0.13934 0.026,-0.0368 0.0613,-0.12295 0.1051,-0.2597 0.0438,-0.13657 0.0762,-0.25161 0.097,-0.34511 0.0201,-0.0876 0.0346,-0.30756 0.0425,-0.65856 0.008,-0.35155 0.004,-0.53782 -0.0116,-0.55788 -0.0109,-0.0158 -0.0208,-0.0223 -0.0309,-0.0193 -0.0107,0.002 -0.0337,0.0136 -0.0698,0.0344 -0.0208,0.0101 -0.0445,0.0223 -0.0698,0.0353 -0.0257,0.0129 -0.0445,0.0193 -0.0547,0.0193 l -0.0466,0.0151 0.0696,0.0777 c 0.0368,0.0468 0.0547,0.0812 0.0547,0.10491 0,0.023 -0.0208,0.0425 -0.0618,0.0576 -0.0359,0.0107 -0.0582,0.025 -0.0661,0.0431 -0.008,0.018 -0.001,0.0425 0.0193,0.0734 0.0158,0.0309 0.023,0.0617 0.023,0.0926 0,0.0309 -0.01,0.0576 -0.0307,0.0777 -0.005,0.0109 -0.009,0.0252 -0.0116,0.0433 -0.002,0.0179 -0.004,0.0344 -0.004,0.0495 0.005,0.0158 0.005,0.0339 0,0.0547 -0.005,0.0201 -0.0157,0.0418 -0.0307,0.0618 -0.0109,0.0208 -0.0203,0.0438 -0.0274,0.0705 -0.008,0.0252 -0.0114,0.0488 -0.0114,0.069 0,0.0208 -0.004,0.0453 -0.0116,0.074 -0.008,0.0287 -0.0173,0.0532 -0.0272,0.0734 -0.0109,0.0208 -0.0195,0.0416 -0.0274,0.0618 -0.008,0.0208 -0.0114,0.0366 -0.0114,0.0466 0,0.005 -0.004,0.0165 -0.0116,0.0346 -0.008,0.0188 -0.0173,0.0352 -0.0272,0.051 -0.0101,0.021 -0.018,0.041 -0.023,0.0618 -0.006,0.021 -0.008,0.0361 -0.008,0.046 0,0.0158 -0.004,0.0309 -0.0116,0.0468 -0.008,0.0158 -0.0144,0.026 -0.0193,0.0316 -0.0109,0.004 -0.0195,0.0166 -0.0274,0.0346 -0.008,0.0179 -0.0114,0.0374 -0.0114,0.0582 -0.005,0.0208 -0.0109,0.0403 -0.0158,0.0582 -0.005,0.018 -0.0101,0.0316 -0.0151,0.0425 -0.005,0.01 -0.009,0.0216 -0.0116,0.0344 -0.003,0.0131 -0.004,0.0223 -0.004,0.0274 0,0.01 -0.004,0.0302 -0.0116,0.0582 -0.008,0.0287 -0.0171,0.0583 -0.0272,0.0893 -0.072,0.23209 -0.12221,0.41615 -0.15093,0.54996 -0.0289,0.1351 -0.0396,0.24296 -0.0353,0.3256 0.0158,0.14467 0.0468,0.25234 0.0935,0.32136 0.046,0.0705 0.12147,0.1259 0.22436,0.16695 0.0468,0.0158 0.0898,0.0237 0.12792,0.0237 0.0388,0 0.12295,-0.006 0.25234,-0.0158 0.13454,-0.0109 0.21792,-0.0144 0.25161,-0.0116 0.0339,0.003 0.0633,0.0116 0.0893,0.0274 0.0309,0.0151 0.0517,0.0215 0.0619,0.0186 0.0107,-0.002 0.0366,-0.0215 0.0777,-0.0574 0.0208,-0.0158 0.0567,-0.0418 0.10841,-0.0777 0.0519,-0.0366 0.10583,-0.0676 0.16252,-0.0935 0.13454,-0.0769 0.23522,-0.14172 0.30203,-0.19344 0.0675,-0.0517 0.1121,-0.0985 0.13234,-0.13952 0.0208,-0.0416 0.0567,-0.0861 0.10859,-0.1351 0.0517,-0.0497 0.1005,-0.0871 0.14725,-0.11282 0.0519,-0.026 0.0928,-0.0569 0.12368,-0.0928 0.0316,-0.0366 0.0569,-0.0806 0.0777,-0.13234 0.0158,-0.041 0.0245,-0.13657 0.0274,-0.28694 0.002,-0.14946 0.006,-0.50101 0.0114,-1.05318 m -2.39494,1.18202 c -0.005,-0.003 -0.0129,-0.004 -0.023,-0.004 -0.006,0 -0.0107,0.001 -0.0158,0.004 -0.005,0.002 -0.008,0.006 -0.008,0.0114 0,0.005 0.003,0.0101 0.008,0.0151 0.005,0.005 0.0101,0.008 0.0158,0.008 0.0101,0 0.018,-0.003 0.023,-0.008 0.005,-0.005 0.008,-0.01 0.008,-0.0151 0,-0.005 -0.003,-0.009 -0.008,-0.0114 m 2.55746,-5.32903 c 0.0257,-0.0151 0.0423,-0.023 0.051,-0.023 0.007,0 0.0245,0.008 0.0497,0.023 0.006,0.01 0.0201,0.0178 0.0431,0.023 0.023,0.006 0.0425,0.008 0.0582,0.008 0.11872,0 0.25032,0.041 0.39554,0.12368 0.14448,0.0828 0.26099,0.18627 0.34805,0.30996 0.0315,0.0468 0.0582,0.12221 0.0812,0.2286 0.0237,0.10565 0.0359,0.21074 0.0359,0.31345 0,0.16031 -0.0223,0.28971 -0.0661,0.38836 -0.0445,0.0977 -0.13086,0.2113 -0.25952,0.34069 -0.0576,0.0517 -0.10638,0.0942 -0.14742,0.12792 -0.0418,0.0331 -0.0777,0.0554 -0.1086,0.0663 -0.0208,0.0101 -0.0403,0.0201 -0.0582,0.0309 -0.0188,0.01 -0.0274,0.0201 -0.0274,0.0309 0,0.005 0.006,0.023 0.0195,0.0539 0.0129,0.0309 0.0272,0.0646 0.0423,0.10068 l 0.0618,0.12424 -0.0151,0.5969 c -0.005,0.16031 -0.008,0.38818 -0.008,0.6858 v 0.8255 c 0.005,0.41836 0.0109,0.68433 0.0158,0.79789 0.005,0.11375 0.018,0.2043 0.0388,0.27185 0.0208,0.0827 0.041,0.13952 0.0618,0.17044 0.0208,0.0309 0.0517,0.046 0.0935,0.046 0.0151,0 0.0316,0.005 0.0495,0.0158 0.018,0.01 0.0353,0.0208 0.0504,0.0309 0.0158,0.0158 0.0302,0.0272 0.0431,0.0344 0.0129,0.008 0.0215,0.0124 0.0267,0.0124 0.0158,0 0.048,0.0438 0.097,0.13142 0.0497,0.0878 0.0791,0.15534 0.0898,0.20135 0.0101,0.0366 0.023,0.0663 0.0381,0.0893 0.0158,0.0236 0.0468,0.056 0.0928,0.097 0.0316,0.026 0.069,0.0539 0.11283,0.0856 0.044,0.0309 0.0843,0.0539 0.12019,0.0698 0.0359,0.0201 0.0747,0.0423 0.11577,0.0653 0.0416,0.023 0.0755,0.0453 0.10123,0.0663 0.11872,0.0876 0.19989,0.16896 0.24387,0.24369 0.0446,0.0747 0.069,0.17762 0.074,0.30627 0,0.0928 -0.005,0.1559 -0.0158,0.18977 -0.0107,0.0339 -0.0388,0.0582 -0.0856,0.074 -0.01,0.005 -0.028,0.0145 -0.0539,0.0274 -0.0258,0.0121 -0.0488,0.0265 -0.0698,0.0423 -0.0618,0.041 -0.11853,0.0712 -0.17025,0.0893 -0.0519,0.0178 -0.12939,0.0344 -0.23228,0.0495 -0.0517,0.006 -0.10141,0.0136 -0.14742,0.0237 -0.0468,0.0101 -0.0777,0.018 -0.0935,0.0237 -0.0359,0.0151 -0.15092,0.0267 -0.34437,0.0346 -0.19399,0.008 -0.43786,0.0114 -0.73254,0.0114 -0.30995,0 -0.53137,-0.004 -0.66297,-0.0114 -0.1316,-0.008 -0.22289,-0.0245 -0.27461,-0.0504 -0.026,-0.0101 -0.0653,-0.023 -0.11651,-0.0388 -0.0517,-0.0158 -0.10068,-0.028 -0.14743,-0.0388 -0.10841,-0.0258 -0.20412,-0.0619 -0.28676,-0.1086 -0.0819,-0.0468 -0.13657,-0.0928 -0.16252,-0.13933 -0.0101,-0.026 -0.0188,-0.0554 -0.023,-0.0893 -0.005,-0.0337 -0.009,-0.0841 -0.009,-0.15092 0,-0.13952 -0.009,-0.22069 -0.0265,-0.24443 -0.018,-0.023 -0.0712,-0.0267 -0.15902,-0.0116 -0.0359,0.0109 -0.0725,0.0158 -0.10859,0.0158 -0.0359,0 -0.0797,-0.005 -0.13142,-0.0158 -0.0418,-0.005 -0.0806,-0.01 -0.11651,-0.0151 -0.0359,-0.006 -0.0618,-0.008 -0.0777,-0.008 -0.0201,0 -0.0359,-0.004 -0.046,-0.0114 -0.0101,-0.008 -0.0237,-0.0245 -0.0388,-0.0512 -0.0101,-0.0201 -0.0208,-0.0344 -0.0316,-0.0423 -0.0101,-0.008 -0.0201,-0.009 -0.0302,-0.004 -0.0158,0.005 -0.0287,0.004 -0.0388,-0.004 -0.0107,-0.007 -0.0215,-0.0215 -0.0309,-0.0425 -0.006,-0.0151 -0.0151,-0.028 -0.0272,-0.0386 -0.0131,-0.0101 -0.0223,-0.0151 -0.0274,-0.0151 -0.0208,0 -0.0532,-0.0252 -0.097,-0.0742 -0.0438,-0.0488 -0.0655,-0.0834 -0.0655,-0.10418 0,-0.005 -0.004,-0.013 -0.0121,-0.023 -0.007,-0.0109 -0.0144,-0.0188 -0.0186,-0.023 -0.0368,-0.0215 -0.0598,-0.095 -0.0705,-0.22142 -0.0101,-0.12663 -0.004,-0.27756 0.0158,-0.4537 l 0.0158,-0.13161 0.0769,-0.008 c 0.0466,0 0.0725,-0.009 0.0775,-0.0272 0.006,-0.018 -0.0129,-0.0317 -0.0545,-0.0425 -0.0361,-0.005 -0.0547,-0.018 -0.0576,-0.0388 -0.003,-0.0201 0.0144,-0.0388 0.0502,-0.0539 0.0309,-0.0158 0.0475,-0.0309 0.0504,-0.046 0.003,-0.0158 -0.0144,-0.0316 -0.0504,-0.0468 -0.0359,-0.0208 -0.0473,-0.0381 -0.0351,-0.0503 0.0129,-0.0129 0.051,-0.0223 0.11283,-0.0274 0.0309,0 0.067,-0.005 0.10785,-0.0158 0,-0.005 -0.005,-0.0129 -0.0151,-0.023 -0.01,-0.01 -0.0258,-0.0179 -0.046,-0.0236 -0.0416,-0.0252 -0.0589,-0.0489 -0.051,-0.0697 0.008,-0.0203 0.0374,-0.0339 0.0891,-0.0381 0.021,-0.005 0.0388,-0.009 0.0547,-0.0123 0.0151,-0.002 0.023,-0.006 0.023,-0.0114 0,-0.005 -0.006,-0.013 -0.0193,-0.023 -0.0131,-0.0101 -0.0294,-0.021 -0.0504,-0.0309 -0.0668,-0.0361 -0.0977,-0.0611 -0.0928,-0.0742 0.005,-0.0121 0.049,-0.0243 0.1316,-0.0344 0.0569,-0.006 0.0863,-0.0144 0.0893,-0.0274 0.002,-0.0129 -0.0195,-0.0272 -0.0663,-0.0423 -0.0517,-0.0158 -0.0733,-0.0351 -0.0653,-0.0582 0.008,-0.023 0.0423,-0.0403 0.10417,-0.0504 0.0267,0 0.0475,-0.004 0.0661,-0.0114 0.018,-0.008 0.0274,-0.0144 0.0274,-0.0195 0,-0.0107 -0.0144,-0.0252 -0.0425,-0.0431 -0.0287,-0.018 -0.0639,-0.0346 -0.10491,-0.0497 -0.005,-0.006 -0.005,-0.0136 0,-0.0237 0.005,-0.01 0.0129,-0.0201 0.023,-0.0309 0.0158,-0.0201 0.0295,-0.0322 0.0425,-0.0351 0.0129,-0.002 0.0351,10e-4 0.0661,0.0121 0.0569,0.0151 0.0878,0.0123 0.0928,-0.008 0.006,-0.0208 -0.0201,-0.0466 -0.0769,-0.0775 -0.026,-0.0151 -0.0425,-0.0296 -0.0503,-0.0425 -0.008,-0.0129 -0.0123,-0.0272 -0.0123,-0.0431 0.005,-0.0151 0.0136,-0.0267 0.0237,-0.0346 0.0101,-0.008 0.0287,-0.0114 0.0539,-0.0114 0.0826,-0.006 0.13307,-0.018 0.15093,-0.0388 0.018,-0.021 -0.004,-0.0418 -0.0653,-0.0618 -0.0208,-0.006 -0.0388,-0.0123 -0.0547,-0.0203 -0.0151,-0.007 -0.023,-0.0136 -0.023,-0.0186 -0.0101,-0.0208 -0.004,-0.0388 0.0193,-0.0547 0.023,-0.0151 0.0583,-0.026 0.10509,-0.0309 0.0618,-0.0109 0.0928,-0.0265 0.0928,-0.0503 0,-0.023 -0.0289,-0.0584 -0.0856,-0.10436 -0.0569,-0.0468 -0.0834,-0.079 -0.0814,-0.097 0.003,-0.018 0.0346,-0.0245 0.0972,-0.0195 0.0309,0 0.0554,-10e-4 0.0733,-0.004 0.018,-0.002 0.0295,-0.009 0.0353,-0.0188 0,-0.006 -0.008,-0.0193 -0.0237,-0.0431 -0.0151,-0.023 -0.0361,-0.0475 -0.0618,-0.0733 l -0.0856,-0.0928 0.0626,-0.0547 c 0.0258,-0.0309 0.0409,-0.0517 0.046,-0.0618 0.006,-0.0101 0,-0.026 -0.0151,-0.0468 -0.0101,-0.026 -0.0144,-0.0445 -0.0116,-0.0582 0.002,-0.0131 0.0144,-0.0375 0.0346,-0.0734 0.0208,-0.0416 0.0322,-0.0762 0.0351,-0.10491 0.002,-0.0282 10e-4,-0.0863 -0.004,-0.17412 -0.005,-0.0926 -0.005,-0.15314 0,-0.17817 0.006,-0.026 0.0208,-0.0618 0.0468,-0.1086 0.0359,-0.0626 0.0762,-0.11356 0.12001,-0.15534 0.0438,-0.0409 0.10215,-0.0747 0.17467,-0.0999 l 0.11577,-0.0547 0.10859,0.0388 c 0.0567,0.0203 0.0985,0.0445 0.12442,0.0734 0.0258,0.0287 0.0381,0.0582 0.0381,0.0891 0,0.0366 0.0136,0.0661 0.0396,0.0891 0.0258,0.023 0.0617,0.0375 0.10767,0.0425 0.0217,0.005 0.0425,0.0114 0.0663,0.0193 0.0237,0.008 0.0374,0.0144 0.0423,0.0195 0.0158,0.0258 0.0432,0.0468 0.0813,0.0626 0.0396,0.0151 0.071,0.023 0.097,0.023 0.0158,0 0.0403,-0.003 0.074,-0.008 0.0339,-0.006 0.0685,-0.013 0.10436,-0.0237 0.0359,-0.009 0.0869,-0.0215 0.15093,-0.0346 0.0648,-0.0129 0.12295,-0.0245 0.17467,-0.0344 0.0569,-0.0109 0.10638,-0.0195 0.14743,-0.0281 0.041,-0.007 0.0648,-0.0136 0.0697,-0.0186 0.0151,-0.0158 0.0245,-0.0626 0.0272,-0.13952 0.002,-0.0777 -0.001,-0.13951 -0.0121,-0.18627 -0.005,-0.0359 -0.006,-0.0604 -0.004,-0.0733 0.003,-0.0129 0.0114,-0.0272 0.0272,-0.0431 0.0309,-0.0309 0.0569,-0.0633 0.0769,-0.0972 0.0208,-0.0329 0.0316,-0.0633 0.0316,-0.0883 0,-0.0158 -0.006,-0.0274 -0.0195,-0.0353 -0.0129,-0.007 -0.0401,-0.0166 -0.0819,-0.0265 -0.10786,-0.026 -0.21921,-0.0885 -0.33296,-0.18627 -0.11356,-0.0985 -0.20117,-0.21203 -0.26301,-0.34069 -0.0366,-0.0727 -0.0591,-0.1259 -0.0663,-0.15902 -0.008,-0.0337 -0.0144,-0.10271 -0.0193,-0.2056 0,-0.0935 0.002,-0.15737 0.008,-0.19344 0.005,-0.0366 0.018,-0.0834 0.0388,-0.14007 0.0151,-0.0309 0.0272,-0.0633 0.0344,-0.0972 0.008,-0.0329 0.0116,-0.0554 0.0116,-0.0653 0,-0.026 0.0287,-0.0727 0.0856,-0.13952 0.0567,-0.0675 0.11853,-0.12939 0.18608,-0.18627 0.0151,-0.0201 0.0475,-0.0438 0.0964,-0.0698 0.0488,-0.0257 0.1,-0.0517 0.15093,-0.0777 0.0517,-0.0201 0.0985,-0.0409 0.13952,-0.0618 0.0418,-0.0208 0.0675,-0.0337 0.0777,-0.0387"
       style="fill:#21201d;fill-opacity:1;fill-rule:nonzero;stroke:none;stroke-width:0.184057"
       id="path556" />
  </g>
</svg>
