<?xml version="1.0" encoding="UTF-8" standalone="no"?>
<!-- Created with Inkscape (http://www.inkscape.org/) -->

<svg
   width="7.3820434mm"
   height="6.1572542mm"
   viewBox="0 0 7.3820434 6.1572542"
   version="1.1"
   id="svg1944"
   inkscape:version="1.1.2 (0a00cf5339, 2022-02-04)"
   sodipodi:docname="dancing_mad.svg"
   xmlns:inkscape="http://www.inkscape.org/namespaces/inkscape"
   xmlns:sodipodi="http://sodipodi.sourceforge.net/DTD/sodipodi-0.dtd"
   xmlns="http://www.w3.org/2000/svg"
   xmlns:svg="http://www.w3.org/2000/svg">
  <sodipodi:namedview
     id="namedview1946"
     pagecolor="#ffffff"
     bordercolor="#666666"
     borderopacity="1.0"
     inkscape:pageshadow="2"
     inkscape:pageopacity="0.0"
     inkscape:pagecheckerboard="0"
     inkscape:document-units="mm"
     showgrid="false"
     inkscape:zoom="0.64052329"
     inkscape:cx="14.051011"
     inkscape:cy="11.709176"
     inkscape:window-width="2560"
     inkscape:window-height="1376"
     inkscape:window-x="0"
     inkscape:window-y="0"
     inkscape:window-maximized="1"
     inkscape:current-layer="layer1" />
  <defs
     id="defs1941" />
  <g
     inkscape:label="Layer 1"
     inkscape:groupmode="layer"
     id="layer1"
     transform="translate(-101.22977,-145.42262)">
    <path
       d="m 108.2511,150.76337 c 0.0159,-0.01 0.0282,-0.0208 0.0388,-0.0309 0.0102,-0.01 0.018,-0.0158 0.0229,-0.0158 0.0208,0 0.0598,0.0173 0.11653,0.0512 0.0569,0.0329 0.0927,0.0604 0.10858,0.0812 0.0254,0.0309 0.0388,0.0655 0.0388,0.10418 0,0.0388 -0.0109,0.069 -0.0318,0.0893 -0.0411,0.0366 -0.1215,0.0661 -0.23946,0.0891 -0.11928,0.0237 -0.20412,0.0245 -0.25658,0.004 -0.046,-0.0158 -0.0576,-0.0368 -0.0346,-0.0618 0.0229,-0.0267 0.0762,-0.0519 0.15903,-0.0784 0.0416,-0.0101 0.0646,-0.023 0.0696,-0.0381 0.006,-0.0158 -0.004,-0.0517 -0.0229,-0.1086 -0.005,-0.0158 -0.005,-0.0295 0,-0.0431 0.005,-0.0123 0.0152,-0.0267 0.031,-0.0425 m 0.0698,-0.852 c 0.046,-0.0468 0.0863,-0.0834 0.12019,-0.10859 0.0328,-0.0265 0.0532,-0.0366 0.0581,-0.0315 0.046,0.005 0.0799,0.0466 0.10068,0.12424 0.0201,0.0769 0.0152,0.13381 -0.0159,0.17043 -0.0359,0.0359 -0.072,0.0618 -0.10859,0.0777 -0.0359,0.0151 -0.0905,0.028 -0.16252,0.0388 -0.0359,0.005 -0.0732,0.0129 -0.11208,0.023 -0.0388,0.0109 -0.0661,0.018 -0.0819,0.0237 -0.0201,0.0151 -0.0361,0.0215 -0.046,0.0186 -0.0109,-0.002 -0.031,-0.0186 -0.0618,-0.0495 l -0.0618,-0.0626 0.10784,-0.0388 c 0.0468,-0.0208 0.0861,-0.0423 0.12002,-0.0653 0.0339,-0.023 0.0812,-0.0633 0.14376,-0.12019 m -0.54279,0.39481 c 0,-0.0309 0.008,-0.0446 0.0275,-0.0425 0.018,0.002 0.10714,0.0296 0.26744,0.0814 0.0567,0.0208 0.10841,0.0403 0.15441,0.0582 0.0467,0.018 0.0727,0.0294 0.0784,0.0346 0.005,0.006 0.007,0.0144 0.007,0.0272 v 0.0353 c -0.0106,0.0257 -0.0697,0.0926 -0.17815,0.20117 -0.10859,0.1086 -0.17043,0.16031 -0.18553,0.15461 -0.006,-0.005 -0.0138,-0.0186 -0.0236,-0.0423 -0.0102,-0.023 -0.0208,-0.0482 -0.031,-0.0734 -0.005,-0.0317 -0.0159,-0.0711 -0.0311,-0.12001 -0.0159,-0.0497 -0.0286,-0.092 -0.0388,-0.12792 -0.0159,-0.0368 -0.0272,-0.0727 -0.0346,-0.10859 -0.008,-0.0361 -0.012,-0.0618 -0.012,-0.0777 m -0.72831,0.1086 c 0.046,-0.0203 0.0906,-0.0381 0.13158,-0.0539 0.0411,-0.0158 0.0646,-0.0237 0.0697,-0.0237 0.005,0 0.0159,0.008 0.0318,0.0237 0.0152,0.0158 0.03,0.0337 0.046,0.0539 0.0106,0.0208 0.0293,0.0468 0.0582,0.0777 0.0286,0.0309 0.0554,0.0567 0.0812,0.0769 0.0208,0.0156 0.0403,0.0337 0.0584,0.0545 0.018,0.021 0.0272,0.0361 0.0272,0.0468 0,0.026 -0.0416,0.0705 -0.12425,0.13528 -0.0828,0.0653 -0.15257,0.10271 -0.20927,0.11283 -0.0159,0.005 -0.0388,0.005 -0.0697,0 -0.031,-0.006 -0.0698,-0.0158 -0.11652,-0.0317 -0.0359,-0.009 -0.0762,-0.0215 -0.11928,-0.0344 -0.0447,-0.0131 -0.0769,-0.0217 -0.0972,-0.0267 -0.0782,-0.0158 -0.13215,-0.0339 -0.16305,-0.0547 -0.031,-0.0208 -0.049,-0.0468 -0.0547,-0.0777 0,-0.0208 0.004,-0.0388 0.008,-0.0539 0.006,-0.0158 0.0208,-0.0337 0.0468,-0.0547 0.0159,-0.0156 0.0374,-0.0295 0.0661,-0.0423 0.0279,-0.0129 0.0525,-0.0223 0.0732,-0.0272 0.0212,-0.005 0.0554,-0.018 0.10509,-0.0388 0.0488,-0.021 0.0992,-0.041 0.15095,-0.0618 m -0.0468,-2.72792 c 0.15536,-0.0309 0.29192,-0.0574 0.41119,-0.0777 0.11871,-0.0208 0.18553,-0.0287 0.20137,-0.0236 0.041,0.005 0.10566,0.0337 0.19343,0.0854 0.0885,0.0519 0.16824,0.10583 0.2402,0.16325 0.10915,0.0878 0.20853,0.2056 0.29909,0.35671 0.0906,0.14945 0.14301,0.28106 0.15885,0.39462 0.0102,0.0569 0.0102,0.12663 0,0.20927 -0.0109,0.0827 -0.0339,0.22713 -0.0705,0.4342 -0.0201,0.11871 -0.0423,0.22362 -0.0653,0.31418 -0.0229,0.09 -0.0475,0.15829 -0.0734,0.20504 -0.031,0.0618 -0.0905,0.12148 -0.17889,0.17817 -0.0878,0.0569 -0.19343,0.10068 -0.31711,0.1316 -0.0359,0.0109 -0.0755,0.0237 -0.11653,0.0388 -0.041,0.0158 -0.0777,0.0287 -0.10858,0.0388 -0.0311,0.0109 -0.0683,0.0223 -0.11208,0.0352 -0.0438,0.0123 -0.0819,0.0217 -0.11285,0.0274 -0.0618,0.009 -0.12513,0.0252 -0.18994,0.046 -0.0639,0.0208 -0.13014,0.0468 -0.19766,0.0777 -0.0409,0.0151 -0.0784,0.0258 -0.11211,0.0309 -0.0339,0.005 -0.0504,0.002 -0.0504,-0.008 0,-0.0101 0.0159,-0.0287 0.0467,-0.0539 0.031,-0.026 0.067,-0.0547 0.10858,-0.0856 0.051,-0.0359 0.0734,-0.0648 0.0655,-0.0856 -0.008,-0.0201 -0.0475,-0.046 -0.12015,-0.0769 -0.0359,-0.0158 -0.0777,-0.0317 -0.12369,-0.0468 -0.0468,-0.0158 -0.0854,-0.028 -0.11634,-0.0388 -0.067,-0.0208 -0.11504,-0.0374 -0.14394,-0.0502 -0.0279,-0.0129 -0.0423,-0.0274 -0.0423,-0.0425 -0.005,-0.0257 -0.004,-0.0467 0.004,-0.0618 0.008,-0.0157 0.0215,-0.0337 0.0425,-0.0545 0.0468,-0.0468 0.0876,-0.0907 0.12369,-0.1316 0.0359,-0.0418 0.0547,-0.067 0.0547,-0.0777 0,-0.0158 -0.013,-0.0287 -0.0388,-0.0388 -0.0258,-0.0109 -0.067,-0.018 -0.12443,-0.023 -0.0769,-0.006 -0.15607,-0.0173 -0.23576,-0.0351 -0.0806,-0.018 -0.12093,-0.0316 -0.12093,-0.0425 0,-0.0101 0.0145,-0.0272 0.0433,-0.0502 0.0286,-0.0238 0.0502,-0.0353 0.0653,-0.0353 0.0367,-0.0208 0.0648,-0.0388 0.0856,-0.0547 0.0208,-0.009 0.0468,-0.0243 0.0769,-0.0416 0.0318,-0.018 0.0604,-0.0353 0.0856,-0.0512 l 0.0935,-0.046 v -0.12423 c 0,-0.0979 -0.013,-0.16897 -0.0388,-0.21296 -0.0261,-0.0438 -0.0777,-0.0819 -0.15536,-0.11283 -0.031,-0.0151 -0.0626,-0.028 -0.0965,-0.0381 -0.0335,-0.0109 -0.0611,-0.0186 -0.0811,-0.0237 -0.0215,-0.005 -0.0381,-0.01 -0.051,-0.0151 -0.0131,-0.005 -0.0215,-0.0101 -0.0275,-0.0158 0,-0.005 0.006,-0.0144 0.0201,-0.0265 0.012,-0.0131 0.0293,-0.0245 0.0495,-0.0353 0.0208,-0.0107 0.0532,-0.0309 0.0972,-0.0618 0.0438,-0.0309 0.0841,-0.0646 0.12001,-0.10067 0.0366,-0.0359 0.0784,-0.0725 0.12443,-0.10841 0.0467,-0.0361 0.0826,-0.0618 0.10858,-0.0777 0.0258,-0.0151 0.046,-0.0309 0.0617,-0.0468 0.0159,-0.0151 0.0229,-0.028 0.0229,-0.0388 -0.005,-0.005 -0.018,-0.0151 -0.0387,-0.0309 -0.0201,-0.0151 -0.044,-0.0309 -0.0692,-0.0468 -0.0985,-0.046 -0.1616,-0.0769 -0.18976,-0.0928 -0.0286,-0.0151 -0.048,-0.0309 -0.0589,-0.046 -0.004,-0.0107 -0.007,-0.0193 -0.007,-0.0272 0,-0.008 0.005,-0.0144 0.0152,-0.0195 0.006,-0.005 0.0633,-0.0208 0.1747,-0.0468 0.11077,-0.0258 0.24165,-0.0539 0.39109,-0.0848 m -1.01522,-1.36461 c 0.0102,-0.0409 0.0289,-0.0626 0.0539,-0.0661 0.0268,-0.002 0.0935,0.0144 0.20211,0.051 0.046,0.0151 0.097,0.0302 0.15092,0.046 0.0547,0.0158 0.0972,0.026 0.12809,0.0317 0.031,0.005 0.0604,0.0116 0.0891,0.0188 0.0279,0.008 0.0475,0.0144 0.0584,0.0193 0.0258,0.005 0.0359,0.0274 0.031,0.0663 -0.005,0.0388 -0.0233,0.0812 -0.0547,0.12792 -0.031,0.0517 -0.0769,0.14448 -0.13948,0.27903 -0.0618,0.13437 -0.10069,0.22492 -0.11579,0.27167 -0.041,0.11798 -0.0841,0.21645 -0.12865,0.29413 -0.0433,0.0777 -0.0784,0.11356 -0.10436,0.10859 -0.01,0 -0.0201,-0.003 -0.031,-0.008 -0.01,-0.006 -0.0152,-0.013 -0.0152,-0.023 -0.006,-0.006 -0.0187,-0.0289 -0.0396,-0.0698 -0.0201,-0.0418 -0.0431,-0.0878 -0.0696,-0.13952 l -0.0928,-0.18626 0.0159,-0.21719 c 0.005,-0.13363 0.0145,-0.25805 0.0272,-0.37161 0.0131,-0.1143 0.0243,-0.19124 0.0346,-0.23302 m 0.28692,3.68907 c 0.0102,-0.01 0.0229,-0.0186 0.0388,-0.0265 0.0152,-0.008 0.0261,-0.0123 0.031,-0.0123 0.0208,0 0.0732,0.0223 0.15882,0.0663 0.0856,0.0445 0.12813,0.071 0.12813,0.0812 0,0.0158 -0.0116,0.0353 -0.0353,0.0584 -0.0229,0.023 -0.0423,0.0351 -0.0582,0.0351 -0.046,0.041 -0.0856,0.0747 -0.11575,0.10067 -0.031,0.0258 -0.0663,0.0539 -0.10491,0.0856 -0.0388,0.0309 -0.0705,0.0539 -0.0972,0.0698 -0.031,0.0201 -0.0639,0.0453 -0.0999,0.0733 -0.0366,0.028 -0.0675,0.0532 -0.0935,0.0733 -0.0359,0.0418 -0.0616,0.0663 -0.0775,0.0742 -0.0152,0.007 -0.0282,0.006 -0.0388,-0.004 -0.031,-0.0151 -0.0697,-0.0488 -0.11578,-0.10068 -0.0467,-0.0517 -0.0705,-0.0847 -0.0705,-0.10049 0,-0.021 0.0173,-0.0468 0.051,-0.0777 0.0332,-0.0302 0.0834,-0.0698 0.15113,-0.11578 0.031,-0.0208 0.0653,-0.0468 0.10418,-0.0777 0.0388,-0.0309 0.0712,-0.0569 0.097,-0.0777 0.0261,-0.026 0.0532,-0.0502 0.0814,-0.074 0.0286,-0.023 0.051,-0.0396 0.0661,-0.0504 m 0.99226,1.00808 c 0.13363,-0.0101 0.25806,-0.0144 0.37162,-0.0116 0.11355,0.002 0.18129,0.0116 0.2021,0.0267 0.0152,0.0107 0.0229,0.0265 0.0229,0.0468 0,0.0208 -0.008,0.0388 -0.0229,0.0547 -0.006,0.005 -0.0517,0.0114 -0.14026,0.0193 -0.0876,0.007 -0.18828,0.0166 -0.30184,0.0267 -0.11949,0.006 -0.24462,0.0129 -0.37606,0.0238 -0.13159,0.01 -0.22878,0.0201 -0.29062,0.0309 -0.10343,0.01 -0.18902,0.0156 -0.25583,0.0156 -0.0668,0 -0.16253,-0.004 -0.28695,-0.008 -0.0876,-0.004 -0.16528,-0.0101 -0.2321,-0.0151 -0.067,-0.005 -0.10858,-0.008 -0.12368,-0.008 -0.0159,0 -0.0339,-0.005 -0.0546,-0.0151 -0.0212,-0.0109 -0.0438,-0.0289 -0.0698,-0.0547 -0.0159,-0.0203 -0.031,-0.0403 -0.0467,-0.0583 -0.0152,-0.0179 -0.0229,-0.0295 -0.0229,-0.0344 0,-0.0158 0.0131,-0.0238 0.0388,-0.0238 0.0258,0 0.0826,0.008 0.17043,0.0238 0.10343,0.0208 0.25806,0.0309 0.4651,0.0309 0.20634,0 0.38248,-0.0101 0.52698,-0.0309 0.0618,-0.006 0.13452,-0.0131 0.21717,-0.0238 0.0827,-0.0101 0.1524,-0.0151 0.20927,-0.0151 m -1.82196,-1.17061 c 0.006,-0.01 0.0445,-0.0156 0.11649,-0.0156 0.0727,0 0.13455,0.006 0.18627,0.0156 0.0409,0.006 0.0653,0.0109 0.0733,0.0158 0.008,0.005 0.0123,0.018 0.0123,0.0388 0,0.0309 -0.01,0.0762 -0.0275,0.13529 -0.018,0.0596 -0.0353,0.0941 -0.0502,0.10491 -0.006,0 -0.0173,-0.006 -0.0353,-0.0193 -0.018,-0.0138 -0.0374,-0.0324 -0.0582,-0.0583 -0.0254,-0.0258 -0.0525,-0.0517 -0.0812,-0.0777 -0.0289,-0.0258 -0.0534,-0.0438 -0.0734,-0.0539 -0.0367,-0.0258 -0.0582,-0.0445 -0.0661,-0.0547 -0.008,-0.01 -0.006,-0.0201 0.004,-0.0309 m -0.11578,-4.39439 c 0.031,-0.0307 0.0791,-0.0401 0.14319,-0.0272 0.0646,0.0129 0.097,0.0403 0.097,0.0812 0,0.021 -0.0293,0.0633 -0.0891,0.12884 -0.0598,0.0639 -0.0964,0.0963 -0.11225,0.0963 -0.0106,-0.005 -0.0201,-0.0151 -0.0272,-0.0309 -0.008,-0.0158 -0.0173,-0.0359 -0.0275,-0.0626 -0.0152,-0.0618 -0.0215,-0.1027 -0.0194,-0.12369 0.004,-0.0208 0.0145,-0.0416 0.0353,-0.0618 m -0.11631,3.72073 c 0.0775,-0.0158 0.24645,-0.0171 0.50744,-0.004 0.26098,0.0129 0.39976,0.0272 0.41486,0.0423 0.0102,0.0109 0.005,0.0289 -0.0152,0.0547 -0.0208,0.0252 -0.0446,0.0438 -0.0705,0.0539 -0.0152,0.005 -0.0604,0.0116 -0.13511,0.0195 -0.0755,0.008 -0.16454,0.0144 -0.26745,0.0193 -0.0935,0.005 -0.17832,0.0116 -0.25601,0.0195 -0.0777,0.008 -0.12146,0.0114 -0.13158,0.0114 -0.0307,0.005 -0.0624,0.001 -0.0934,-0.0114 -0.031,-0.0131 -0.0539,-0.0353 -0.069,-0.0663 -0.0318,-0.046 -0.0388,-0.079 -0.0236,-0.0963 0.0159,-0.018 0.0619,-0.0331 0.13953,-0.0425 m -0.17047,-2.30219 c 0.0359,-0.0157 0.0633,-0.0164 0.0812,-0.004 0.018,0.0129 0.0303,0.0453 0.0346,0.097 0.0106,0.0878 0.0187,0.21424 0.0236,0.37971 0.005,0.16528 0.004,0.25879 -0.008,0.27903 l -0.0159,0.0466 -0.0848,-0.0854 c -0.0212,-0.0252 -0.0504,-0.0618 -0.0893,-0.10786 -0.0388,-0.0468 -0.0762,-0.0935 -0.11208,-0.14025 -0.0318,-0.0411 -0.0648,-0.0849 -0.10068,-0.13161 -0.0366,-0.046 -0.0626,-0.0797 -0.0777,-0.10067 -0.0517,-0.0618 -0.0683,-0.10418 -0.0502,-0.12793 0.018,-0.023 0.0883,-0.0425 0.21276,-0.0583 0.0367,-0.005 0.074,-0.0129 0.11212,-0.0228 0.0388,-0.0101 0.0633,-0.018 0.0742,-0.0232 m 0.031,3.77466 c 0.01,0 0.0215,-0.003 0.0353,-0.008 0.013,-0.006 0.0215,-0.008 0.0268,-0.008 0.0106,0 0.0303,0.0195 0.0582,0.0583 0.0279,0.0388 0.0611,0.0841 0.097,0.13583 0.0361,0.0517 0.0764,0.1086 0.1202,0.1697 0.0438,0.0626 0.0789,0.10933 0.10417,0.14025 0.0261,0.0309 0.0482,0.0589 0.0662,0.0849 0.018,0.0258 0.0272,0.0416 0.0272,0.0468 0,0.01 -0.0403,0.0552 -0.11998,0.13509 -0.0799,0.0804 -0.13603,0.13087 -0.16694,0.15167 -0.031,0.026 -0.0597,0.0309 -0.0849,0.0151 -0.0264,-0.0151 -0.0703,-0.0668 -0.13215,-0.15461 -0.0519,-0.0725 -0.12146,-0.15019 -0.20926,-0.23283 -0.0878,-0.0828 -0.17244,-0.15461 -0.25602,-0.21646 -0.0567,-0.0418 -0.0913,-0.0697 -0.10417,-0.0856 -0.0127,-0.0158 -0.0194,-0.0359 -0.0194,-0.0618 -0.005,-0.0208 0.0173,-0.0403 0.0662,-0.0582 0.049,-0.0188 0.13233,-0.0374 0.2516,-0.0583 0.0569,-0.0107 0.10858,-0.0208 0.15462,-0.0309 0.0468,-0.0107 0.0755,-0.0179 0.0856,-0.023 m -0.89948,-1.29411 c 0.0727,-0.0109 0.12866,-0.0173 0.16676,-0.0201 0.0388,-0.002 0.0663,0.001 0.0814,0.0114 0.0467,0.0267 0.0517,0.0517 0.0159,0.0777 -0.0361,0.026 -0.0986,0.0438 -0.18626,0.0547 -0.046,0.0101 -0.087,0.008 -0.12369,-0.008 -0.0359,-0.0158 -0.0539,-0.0388 -0.0539,-0.0698 0,-0.0101 0.007,-0.0193 0.0229,-0.0272 0.0152,-0.007 0.041,-0.0138 0.0769,-0.0188 m 0.54278,-0.17835 c 0.006,-0.0107 0.0124,-0.0201 0.0194,-0.0272 0.008,-0.008 0.0138,-0.0123 0.0194,-0.0123 0.0159,0 0.0546,0.0339 0.11649,0.10068 0.0618,0.0677 0.10068,0.11945 0.11578,0.15534 0.0208,0.0468 0.0257,0.10216 0.0159,0.16676 -0.0102,0.0648 -0.0418,0.15111 -0.0927,0.25952 -0.0261,0.0519 -0.0468,0.0965 -0.0626,0.13602 -0.0152,0.0388 -0.0229,0.0604 -0.0229,0.0661 0,0.0203 -0.0113,0.0381 -0.0353,0.0539 -0.0229,0.0158 -0.0475,0.023 -0.0734,0.023 -0.0517,0 -0.14799,-0.0337 -0.29044,-0.10068 -0.14227,-0.0668 -0.24148,-0.12645 -0.29838,-0.17835 l -0.0776,-0.0696 0.0539,-0.0468 c 0.0268,-0.0203 0.0547,-0.0368 0.0856,-0.0504 0.0311,-0.0129 0.0906,-0.0324 0.17837,-0.0582 0.0827,-0.0252 0.14301,-0.0561 0.1826,-0.0928 0.0381,-0.0359 0.0705,-0.0928 0.097,-0.17043 0.01,-0.0309 0.0212,-0.0611 0.0346,-0.0891 0.0127,-0.0287 0.0243,-0.0504 0.0346,-0.0655 m -1.03883,1.29429 c 0,-0.021 0.0173,-0.0289 0.051,-0.0237 0.0339,0.006 0.0812,0.0258 0.14302,0.0618 0.0361,0.0208 0.0762,0.0416 0.12093,0.0618 0.0431,0.0215 0.0777,0.0366 0.10417,0.0466 0.0311,0.0109 0.0554,0.021 0.0735,0.0317 0.0187,0.0101 0.0272,0.018 0.0272,0.023 0,0.0151 -0.0173,0.044 -0.0504,0.0856 -0.0335,0.041 -0.071,0.0769 -0.11208,0.10786 l -0.0777,0.0626 -0.0546,-0.0468 c -0.0152,-0.0158 -0.0423,-0.0351 -0.0812,-0.0582 -0.0388,-0.023 -0.0792,-0.0453 -0.12002,-0.0655 -0.0677,-0.0366 -0.10858,-0.0596 -0.12368,-0.0705 -0.0159,-0.01 -0.0236,-0.0309 -0.0236,-0.0618 0,-0.0208 0.004,-0.0374 0.012,-0.0503 0.007,-0.0129 0.0243,-0.0272 0.0497,-0.0423 0.0159,-0.0109 0.0293,-0.0224 0.0431,-0.0353 0.0127,-0.0129 0.0187,-0.0216 0.0187,-0.0265 m -0.10785,-4.33328 c 0.01,-0.0151 0.0229,-0.0331 0.0388,-0.0539 0.01,0 0.0928,0.0272 0.24719,0.0812 0.15536,0.0547 0.26102,0.095 0.31789,0.12074 0.0935,0.0353 0.14742,0.0655 0.16326,0.0893 0.0152,0.023 -0.005,0.0445 -0.0619,0.0653 -0.0258,0.0109 -0.0663,0.018 -0.12016,0.023 -0.0545,0.005 -0.14376,0.008 -0.26744,0.008 -0.17025,0 -0.28032,-0.004 -0.32928,-0.0114 -0.0488,-0.008 -0.074,-0.0267 -0.074,-0.0583 0,-0.0258 0.0102,-0.0683 0.031,-0.12792 0.0208,-0.0589 0.0388,-0.10437 0.0547,-0.13584 m -0.58956,4.66605 c 0.0258,-0.0208 0.0517,-0.0302 0.0777,-0.0272 0.0258,0.003 0.0696,0.0223 0.13215,0.0582 0.072,0.0359 0.21425,0.0891 0.42574,0.15884 0.21202,0.0698 0.35651,0.11301 0.4342,0.12811 0.0359,0.005 0.0892,0.0107 0.15882,0.0158 0.0698,0.005 0.141,0.01 0.21297,0.0151 0.0933,0.005 0.1603,0.0114 0.20189,0.0193 0.0411,0.008 0.0697,0.0173 0.0849,0.0274 0.0411,0.0257 0.0453,0.0438 0.0123,0.0545 -0.0339,0.0101 -0.12093,0.018 -0.26024,0.023 -0.13953,0 -0.26028,-0.005 -0.36389,-0.0157 -0.10344,-0.0109 -0.20137,-0.0309 -0.29468,-0.0618 -0.0418,-0.0101 -0.0878,-0.0237 -0.13952,-0.0388 -0.0519,-0.0158 -0.0957,-0.026 -0.13233,-0.0309 -0.0769,-0.0151 -0.1905,-0.0569 -0.34015,-0.12443 -0.15017,-0.0668 -0.23004,-0.11356 -0.24073,-0.13951 0,-0.0101 0.004,-0.0201 0.008,-0.0309 0.005,-0.0101 0.0131,-0.0208 0.0229,-0.0309 m -0.39479,-0.22437 c 0.0261,-0.0315 0.0425,-0.0495 0.0504,-0.0545 0.007,-0.005 0.0187,0 0.0346,0.0156 0.0208,0.0203 0.0425,0.0526 0.0661,0.0965 0.0229,0.0438 0.0346,0.0733 0.0346,0.0891 0,0.0158 -0.018,0.0339 -0.0539,0.0547 -0.0359,0.0202 -0.0905,0.0438 -0.16252,0.0697 -0.0467,0.0201 -0.0777,0.0316 -0.0928,0.0351 -0.0159,0.002 -0.0265,-10e-4 -0.0318,-0.0121 -0.005,-0.0158 0.0102,-0.0582 0.0467,-0.12718 0.0361,-0.0705 0.072,-0.12589 0.10859,-0.16694 m -0.15533,-0.6593 c 0.0569,-0.025 0.11299,-0.0359 0.16693,-0.0309 0.0547,0.006 0.0762,0.0237 0.0661,0.0547 0,0.005 -0.0138,0.0165 -0.0388,0.0346 -0.0265,0.0179 -0.0569,0.0374 -0.0935,0.0582 -0.10273,0.0569 -0.16309,0.10565 -0.17836,0.14743 -0.0152,0.041 0.004,0.0955 0.0547,0.16252 0.031,0.0409 0.0475,0.0777 0.0504,0.1086 0.004,0.0309 -0.006,0.0668 -0.0275,0.10841 -0.0359,0.0519 -0.0718,0.0655 -0.10841,0.0425 -0.0361,-0.023 -0.0698,-0.0784 -0.10068,-0.16675 -0.031,-0.0828 -0.0482,-0.1467 -0.0504,-0.19345 -0.004,-0.046 0.01,-0.0935 0.0346,-0.13951 0.0265,-0.0359 0.0559,-0.0698 0.0891,-0.10068 0.0339,-0.0317 0.0792,-0.0596 0.13586,-0.0856 m 0.76789,-2.54221 c 0.041,-0.0252 0.0863,-0.0403 0.13525,-0.0425 0.0488,-0.002 0.1178,0.009 0.2056,0.0353 0.046,0.01 0.0898,0.0245 0.13162,0.0423 0.0409,0.018 0.0826,0.0396 0.12369,0.0663 0.0675,0.046 0.1373,0.0876 0.20905,0.12368 0.0727,0.0359 0.17339,0.0827 0.30279,0.13934 0.16528,0.0727 0.28399,0.13454 0.35652,0.18626 0.072,0.0517 0.13159,0.11872 0.17762,0.20136 0.0268,0.0567 0.0482,0.11504 0.0663,0.17394 0.0187,0.0596 0.0215,0.10288 0.012,0.12792 -0.006,0.0158 -0.0159,0.0252 -0.0318,0.0274 -0.0152,0.003 -0.0569,0.001 -0.12368,-0.004 -0.0409,0 -0.0869,-0.006 -0.13586,-0.0158 -0.0489,-0.01 -0.0942,-0.023 -0.13508,-0.0388 -0.0368,-0.01 -0.0749,-0.0215 -0.11652,-0.0344 -0.0418,-0.0129 -0.0755,-0.0245 -0.10068,-0.0346 -0.0258,-0.006 -0.0504,-0.0121 -0.0742,-0.0201 -0.0229,-0.008 -0.0401,-0.0136 -0.0502,-0.0193 -0.0261,-0.0151 -0.0604,-0.0217 -0.10492,-0.0188 -0.044,0.002 -0.0655,0.0116 -0.0655,0.0267 -0.005,0.005 0.004,0.0223 0.0229,0.0503 0.0212,0.0287 0.0468,0.0611 0.0777,0.097 l 0.17836,0.20135 c 0.0258,0.0309 0.0431,0.0532 0.0502,0.0661 0.008,0.0131 0.006,0.0217 -0.004,0.0274 -0.0109,0.0101 -0.0222,0.0151 -0.0353,0.0151 -0.0127,0 -0.0342,-0.005 -0.0653,-0.0151 -0.0261,-0.006 -0.0532,-0.0109 -0.0812,-0.0158 -0.0289,-0.005 -0.0504,-0.008 -0.0662,-0.008 -0.0258,0 -0.0423,0.001 -0.0502,0.004 -0.008,0.002 -0.0123,0.0138 -0.0123,0.0346 -0.005,0.0109 0.004,0.0295 0.0275,0.0582 0.0229,0.0282 0.0631,0.0742 0.11998,0.13601 0.0467,0.0409 0.0856,0.0797 0.11652,0.11633 0.031,0.0361 0.0467,0.0591 0.0467,0.069 0,0.0158 -0.0275,0.0217 -0.0814,0.0158 -0.0545,-0.005 -0.15885,-0.023 -0.31418,-0.0545 -0.12369,-0.0252 -0.20264,-0.0396 -0.23651,-0.0425 -0.0332,-0.002 -0.0503,0.004 -0.0503,0.0195 0,0.005 0.0145,0.0272 0.0423,0.0661 0.0286,0.0381 0.0641,0.0812 0.10509,0.12792 0.0876,0.10859 0.14083,0.1754 0.15886,0.20136 0.018,0.026 0.0243,0.041 0.0194,0.0468 -0.005,0.005 -0.0222,0.0101 -0.051,0.0151 -0.0275,0.006 -0.0626,0.0101 -0.10417,0.0151 -0.0979,0.0215 -0.16253,0.0381 -0.19347,0.051 -0.031,0.0131 -0.0467,0.0346 -0.0467,0.0663 0,0.0258 0.0208,0.0769 0.0618,0.15443 0.0416,0.0777 0.0883,0.15258 0.14027,0.2251 0.046,0.0618 0.0653,0.10068 0.0574,0.11577 -0.008,0.0158 -0.0475,0.0237 -0.11998,0.0237 -0.18129,0 -0.28917,-0.004 -0.32579,-0.0116 -0.0359,-0.008 -0.095,-0.0381 -0.17762,-0.0891 -0.0416,-0.0309 -0.0999,-0.069 -0.17466,-0.11282 -0.0747,-0.0438 -0.14302,-0.0834 -0.2056,-0.1202 -0.0927,-0.0517 -0.1675,-0.0977 -0.22437,-0.13933 -0.0567,-0.0418 -0.11927,-0.0928 -0.18626,-0.1546 -0.11854,-0.1086 -0.18606,-0.19271 -0.20116,-0.25235 -0.0159,-0.0591 -0.005,-0.18479 0.031,-0.37529 0.0208,-0.0935 0.0272,-0.16823 0.0194,-0.22584 -0.008,-0.0561 -0.0272,-0.10565 -0.0582,-0.1467 -0.031,-0.0409 -0.0814,-0.0876 -0.1511,-0.13951 -0.0697,-0.0517 -0.14079,-0.0933 -0.2135,-0.12424 -0.0254,-0.0151 -0.0653,-0.0375 -0.12001,-0.0655 -0.0539,-0.0287 -0.10711,-0.0561 -0.15882,-0.0819 -0.0468,-0.0252 -0.0913,-0.049 -0.13603,-0.0698 -0.0438,-0.0201 -0.0705,-0.0302 -0.0812,-0.0302 -0.0258,0 -0.049,-0.008 -0.069,-0.0237 -0.0215,-0.0158 -0.0318,-0.0359 -0.0318,-0.0618 0,-0.0418 0.0467,-0.14228 0.13952,-0.30204 0.0935,-0.16032 0.15533,-0.24866 0.18627,-0.26376 0.01,0 0.0229,0.004 0.0388,0.0114 0.0152,0.008 0.0359,0.0245 0.0617,0.0512 0.0258,0.025 0.0611,0.0495 0.1051,0.0733 0.0431,0.023 0.1071,0.0525 0.18976,0.0891 0.0618,0.0252 0.12516,0.0526 0.18976,0.0813 0.0648,0.028 0.11225,0.0503 0.14393,0.0653 0.046,0.026 0.0834,0.0418 0.11208,0.0468 0.0279,0.005 0.0784,0.008 0.15091,0.008 h 0.16253 l 0.20927,-0.19399 c 0.0567,-0.0569 0.11285,-0.1086 0.16676,-0.15461 0.0539,-0.0468 0.092,-0.0777 0.11285,-0.0935"
       style="fill:#21201d;fill-opacity:1;fill-rule:nonzero;stroke:none;stroke-width:0.184057"
       id="path560" />
  </g>
</svg>
