<?xml version="1.0" encoding="UTF-8" standalone="no"?>
<!-- Created with Inkscape (http://www.inkscape.org/) -->

<svg
   width="6.8113599mm"
   height="7.5335498mm"
   viewBox="0 0 6.8113599 7.5335498"
   version="1.1"
   id="svg2056"
   inkscape:version="1.1.2 (0a00cf5339, 2022-02-04)"
   sodipodi:docname="dark_veiling.svg"
   xmlns:inkscape="http://www.inkscape.org/namespaces/inkscape"
   xmlns:sodipodi="http://sodipodi.sourceforge.net/DTD/sodipodi-0.dtd"
   xmlns="http://www.w3.org/2000/svg"
   xmlns:svg="http://www.w3.org/2000/svg">
  <sodipodi:namedview
     id="namedview2058"
     pagecolor="#ffffff"
     bordercolor="#666666"
     borderopacity="1.0"
     inkscape:pageshadow="2"
     inkscape:pageopacity="0.0"
     inkscape:pagecheckerboard="0"
     inkscape:document-units="mm"
     showgrid="false"
     inkscape:zoom="0.64052329"
     inkscape:cx="12.489788"
     inkscape:cy="14.831623"
     inkscape:window-width="2560"
     inkscape:window-height="1376"
     inkscape:window-x="0"
     inkscape:window-y="0"
     inkscape:window-maximized="1"
     inkscape:current-layer="layer1" />
  <defs
     id="defs2053" />
  <g
     inkscape:label="Layer 1"
     inkscape:groupmode="layer"
     id="layer1"
     transform="translate(-101.515,-144.7335)">
    <path
       d="m 105.42315,145.73748 c 0,-0.0107 -0.001,-0.0208 -0.004,-0.0316 -0.002,-0.01 -0.007,-0.0158 -0.0116,-0.0158 -0.026,0 -0.046,0.0123 -0.0589,0.0361 -0.0131,0.0238 -0.0245,0.0718 -0.0353,0.14523 -0.006,0.0359 -0.0144,0.0942 -0.0272,0.17246 -0.0129,0.0784 -0.0281,0.15387 -0.0432,0.22731 -0.0208,0.13584 -0.0344,0.23283 -0.0394,0.29045 -0.005,0.0574 0,0.0863 0.0158,0.0863 0.0208,0 0.0386,-0.0245 0.0545,-0.0742 0.0158,-0.0502 0.0368,-0.15387 0.0633,-0.3105 0.0361,-0.18332 0.0596,-0.30996 0.0705,-0.38045 0.0101,-0.0703 0.0158,-0.11927 0.0158,-0.14522 m -0.14173,3.29648 c -0.0151,0 -0.0322,-0.002 -0.0502,-0.004 -0.0188,-0.003 -0.0331,-0.004 -0.0438,-0.004 -0.0109,-0.005 -0.021,-0.005 -0.0309,0 -0.0109,0.005 -0.021,0.0136 -0.0316,0.0236 -0.0158,0.0158 -0.026,0.0368 -0.0309,0.0626 -0.006,0.0267 -0.0109,0.0755 -0.0166,0.14964 0,0.0733 0.001,0.12296 0.004,0.14872 0.002,0.026 0.009,0.0447 0.0195,0.0554 0.0265,0.0203 0.14375,0.0374 0.35302,0.0512 0.21001,0.0129 0.37161,0.0144 0.48664,0.004 0.0942,-0.0109 0.1662,-0.0272 0.21572,-0.051 0.0497,-0.0237 0.0985,-0.067 0.14521,-0.1294 0.021,-0.0316 0.0346,-0.0561 0.0396,-0.0749 0.005,-0.0179 0.005,-0.046 0,-0.0819 -0.0107,-0.0841 -0.0366,-0.13087 -0.079,-0.14173 -0.041,-0.0107 -0.19565,-0.0156 -0.46235,-0.0156 h -0.34952 c -0.10197,0 -0.15811,0.003 -0.16897,0.008 m -0.0624,-3.32022 c -0.0158,-0.005 -0.0433,-0.01 -0.0828,-0.0151 -0.0394,-0.006 -0.0905,-0.009 -0.1524,-0.009 -0.11061,0 -0.18755,0.004 -0.23228,0.0123 -0.0438,0.008 -0.0661,0.0223 -0.0661,0.0431 0,0.005 -0.001,0.0173 -0.004,0.0353 -0.002,0.0179 -0.006,0.0381 -0.0116,0.0589 l -0.0158,0.0705 -0.0158,-0.0863 c -0.0151,-0.0733 -0.0401,-0.11136 -0.074,-0.11356 -0.0346,-0.003 -0.049,0.0294 -0.0438,0.0977 0,0.0215 0.003,0.0482 0.008,0.0826 0.006,0.0339 0.0107,0.0641 0.0158,0.09 0.0107,0.0257 0.0179,0.0539 0.0236,0.0826 0.005,0.0287 0.008,0.051 0.008,0.0668 0,0.0158 0.003,0.0331 0.008,0.051 0.005,0.018 0.0101,0.0353 0.0158,0.0512 0.005,0.01 0.0138,0.0374 0.0274,0.0819 0.0129,0.0445 0.0252,0.0928 0.0351,0.14522 0.0158,0.0893 0.0302,0.14817 0.0433,0.17688 0.0129,0.0287 0.0223,0.0353 0.0272,0.0195 0.005,-0.0109 0.001,-0.0734 -0.0114,-0.18774 -0.013,-0.11577 -0.0281,-0.22068 -0.0433,-0.31419 -0.0107,-0.0633 -0.0158,-0.11282 -0.0158,-0.14964 0,-0.0366 0.005,-0.0552 0.0158,-0.0552 0.0151,0.0107 0.026,0.0166 0.0316,0.0166 0.0101,0.01 0.0166,0.0193 0.0195,0.0272 0.002,0.007 -0.001,0.0193 -0.0123,0.0351 -0.005,0.0158 -0.009,0.0302 -0.0114,0.0433 -0.002,0.0129 -10e-4,0.0272 0.004,0.0431 0.005,0.0101 0.0129,0.0396 0.023,0.0863 0.0109,0.0468 0.0188,0.097 0.0237,0.1489 0.005,0.0574 0.0114,0.10988 0.0193,0.15737 0.008,0.0475 0.0145,0.0784 0.0202,0.0942 l 0.007,0.0468 h 0.3221 l 0.0158,-0.10215 c 0.005,-0.026 0.01,-0.0576 0.0158,-0.0942 0.005,-0.0366 0.01,-0.0676 0.0151,-0.0942 0.0107,-0.0208 0.0201,-0.0545 0.028,-0.10123 0.007,-0.0475 0.0144,-0.092 0.0195,-0.13381 0.0257,-0.17762 0.0386,-0.28621 0.0386,-0.3256 0,-0.0396 -0.0129,-0.067 -0.0386,-0.0828 m -0.2748,-0.8706 c -0.005,-0.0525 -0.006,-0.0834 -0.004,-0.0942 0.004,-0.0107 0.0144,-0.0158 0.0359,-0.0158 0.0366,0 0.0604,0.0109 0.0698,0.0309 0.0109,0.0216 0.0136,0.0633 0.009,0.12589 -0.005,0.0475 -0.009,0.0762 -0.009,0.0863 0,0.0107 0.0109,0.0157 0.0316,0.0157 0.0215,0 0.0554,0.0237 0.10289,0.0705 0.0468,0.0475 0.0884,0.10216 0.12497,0.16547 0.0158,0.0309 0.0418,0.0733 0.0784,0.12498 0.0366,0.0526 0.0734,0.10215 0.11007,0.14963 0.0626,0.0834 0.10068,0.14099 0.11356,0.17247 0.0129,0.0309 0.006,0.0468 -0.0195,0.0468 -0.005,0 -0.0114,0.005 -0.0201,0.0158 -0.007,0.0109 -0.0136,0.021 -0.0193,0.0316 -0.0101,0.026 -0.0274,0.10363 -0.0512,0.23081 -0.023,0.12866 -0.0431,0.25013 -0.0582,0.36517 -0.0109,0.0526 -0.0201,0.10068 -0.028,0.14522 -0.007,0.0447 -0.0116,0.0749 -0.0116,0.0907 -0.005,0.0208 -0.005,0.0337 0,0.0396 0.005,0.004 0.0208,0.007 0.0475,0.007 0.0208,0 0.0337,0.003 0.0388,0.008 0.005,0.005 0.008,0.0158 0.008,0.0315 0,0.0309 -0.0116,0.0532 -0.0353,0.0663 -0.0237,0.0136 -0.0718,0.0223 -0.14522,0.028 -0.0316,0.005 -0.0626,0.009 -0.094,0.0116 -0.0316,0.003 -0.0497,0.006 -0.0554,0.0114 -0.0101,0.006 -0.0166,0.0302 -0.0195,0.0747 -0.002,0.0447 -0.004,0.12737 -0.004,0.24737 v 0.31419 l 0.0396,0.007 c 0.0309,0 0.048,0.0109 0.051,0.0316 0.002,0.0208 -0.007,0.0425 -0.028,0.0626 -0.021,0.0208 -0.0339,0.0503 -0.0396,0.0863 -0.005,0.0374 -0.0101,0.13086 -0.0151,0.28326 -0.0109,0.20339 -0.021,0.38027 -0.0316,0.52917 -0.0101,0.14946 -0.0208,0.2286 -0.0316,0.23946 -0.0151,0.0315 0.003,0.0611 0.0554,0.0906 0.0525,0.0287 0.0992,0.0324 0.1408,0.0114 0.0217,-0.005 0.0814,-0.006 0.18056,-0.004 0.0992,0.003 0.24369,0.009 0.43217,0.0201 0.0834,0.005 0.12939,0.002 0.1373,-0.008 0.007,-0.01 -0.009,-0.0445 -0.0512,-0.10197 -0.0265,-0.0418 -0.0446,-0.0893 -0.0552,-0.14173 -0.0109,-0.0517 -0.007,-0.10417 0.008,-0.15681 0.0109,-0.0466 0.0396,-0.0869 0.0863,-0.12148 0.0475,-0.0337 0.0972,-0.051 0.14963,-0.051 0.0151,0 0.0324,-0.003 0.0503,-0.008 0.0188,-0.005 0.0331,-0.008 0.0433,-0.008 0.006,-0.005 0.023,-0.006 0.0517,-0.004 0.0287,0.002 0.0639,0.009 0.10565,0.0195 0.11503,0.026 0.17245,0.0445 0.17245,0.0547 0,0.0107 -0.0574,0.0237 -0.17245,0.0396 -0.0942,0.0107 -0.15608,0.0265 -0.1848,0.0473 -0.0287,0.021 -0.0482,0.0598 -0.0589,0.11798 -0.0101,0.041 -0.0101,0.0992 0,0.17265 0.0107,0.0725 0.0265,0.12 0.0475,0.1408 0.005,0.005 0.0618,0.0101 0.16823,0.0158 0.10785,0.005 0.21056,0.005 0.3105,0 0.13583,-0.006 0.29118,-0.0287 0.46732,-0.0712 0.17467,-0.0409 0.30921,-0.0854 0.40419,-0.13289 0.0151,-0.0109 0.0409,-0.0302 0.0775,-0.0591 0.0368,-0.0287 0.0712,-0.0589 0.10215,-0.0898 0.0734,-0.0733 0.13381,-0.1524 0.18112,-0.23578 0.0468,-0.0841 0.0705,-0.15682 0.0705,-0.21921 0,-0.1 -0.0475,-0.19713 -0.14154,-0.29063 -0.0942,-0.0941 -0.20136,-0.15166 -0.32136,-0.17246 -0.0267,-0.006 -0.0525,-0.0109 -0.0784,-0.0166 -0.0267,-0.005 -0.0475,-0.007 -0.0633,-0.007 -0.026,-0.006 -0.0431,-0.006 -0.051,-0.004 -0.008,0.003 -0.0144,0.009 -0.0195,0.0201 -0.005,0.0101 -0.0144,0.023 -0.0272,0.0388 -0.0136,0.0158 -0.0274,0.0317 -0.0431,0.0475 -0.0633,0.0626 -0.10068,0.12939 -0.11448,0.19988 -0.0129,0.0703 0.002,0.14007 0.044,0.20781 0.0151,0.0257 0.0245,0.0495 0.0272,0.071 0.002,0.021 -10e-4,0.0309 -0.0121,0.0309 -0.0151,0 -0.044,-0.0237 -0.0863,-0.0705 -0.0418,-0.0466 -0.0675,-0.0861 -0.0784,-0.1178 -0.0208,-0.0517 -0.0265,-0.11154 -0.0158,-0.17614 0.0109,-0.0655 0.0346,-0.12222 0.0712,-0.16897 0.0309,-0.0475 0.072,-0.0913 0.12147,-0.13381 0.0497,-0.0416 0.0898,-0.0646 0.12148,-0.0705 0.0101,-0.005 0.0331,-0.008 0.067,-0.008 0.0337,0 0.0661,0.003 0.0977,0.008 0.1467,0.006 0.27093,0.0532 0.37308,0.14522 0.10142,0.0915 0.17615,0.21571 0.22363,0.37253 0.0208,0.0733 0.0272,0.164 0.0193,0.27112 -0.008,0.10712 -0.0272,0.18682 -0.0589,0.23927 -0.0525,0.0942 -0.17393,0.20928 -0.36517,0.34511 -0.1905,0.13676 -0.33866,0.21498 -0.44284,0.23596 -0.0841,0.0158 -0.17908,0.0272 -0.28621,0.0352 -0.10785,0.007 -0.16896,0.006 -0.18479,-0.004 -0.0267,-0.0101 -0.0683,-0.0131 -0.12589,-0.008 -0.0574,0.006 -0.0861,0.0164 -0.0861,0.0315 0.0158,0.0519 0.0236,0.1073 0.0236,0.16473 0,0.0574 -0.008,0.0999 -0.0236,0.12589 -0.0576,0.11504 -0.19068,0.20265 -0.39977,0.26302 -0.20927,0.0598 -0.48959,0.09 -0.83985,0.09 h -0.24369 l -0.0151,0.25879 v 0.38467 l 0.0151,0.12572 h 0.14964 c 0.0416,0 0.1027,-0.003 0.18405,-0.008 0.0812,-0.005 0.15884,-0.0107 0.2321,-0.0158 0.0727,-0.005 0.1524,-0.009 0.23872,-0.0114 0.0863,-0.003 0.15019,-0.006 0.19271,-0.0123 0.0468,0 0.0883,-0.003 0.12516,-0.008 0.0366,-0.005 0.0574,-0.01 0.0624,-0.0156 0.006,-0.005 0.0225,-0.008 0.0512,-0.008 0.0294,0 0.064,0.003 0.10638,0.008 0.12516,0.0156 0.26449,0.0156 0.4156,0 0.15166,-0.0153 0.25161,-0.0418 0.29836,-0.0784 0.0158,-0.0101 0.0316,-0.021 0.0475,-0.0309 0.0151,-0.0109 0.0258,-0.0158 0.0309,-0.0158 0.0107,0 0.0316,-0.009 0.0624,-0.0274 0.0317,-0.0186 0.0655,-0.0409 0.10216,-0.0668 0.10509,-0.0733 0.18331,-0.12221 0.23577,-0.14522 0.0526,-0.0237 0.10436,-0.0351 0.15681,-0.0351 0.0784,0 0.14026,0.009 0.18406,0.0272 0.0453,0.018 0.0799,0.0482 0.10639,0.0906 0.0418,0.0576 0.0611,0.11007 0.0589,0.15682 -0.002,0.0467 -0.0251,0.0942 -0.0668,0.1408 -0.0316,0.0317 -0.0524,0.0512 -0.0633,0.0591 -0.01,0.008 -0.023,0.007 -0.0388,-0.004 -0.0156,-0.0158 -0.023,-0.0366 -0.023,-0.0631 0,-0.026 0.013,-0.0497 0.0388,-0.0705 0.0158,-0.021 0.023,-0.0353 0.023,-0.0433 0,-0.008 -0.004,-0.0193 -0.0151,-0.0352 -0.0315,-0.026 -0.0653,-0.0468 -0.10196,-0.0626 -0.0368,-0.0158 -0.0683,-0.0186 -0.0942,-0.008 -0.0576,0.0158 -0.11503,0.0374 -0.17265,0.0661 -0.0574,0.0289 -0.097,0.0512 -0.11779,0.067 -0.0734,0.0683 -0.1662,0.13657 -0.27829,0.20412 -0.11283,0.0683 -0.2078,0.11283 -0.28676,0.13381 -0.026,0.0107 -0.10068,0.0107 -0.22363,0 -0.12295,-0.0109 -0.23946,-0.0267 -0.34879,-0.0468 -0.0582,-0.0109 -0.10933,-0.0166 -0.15313,-0.0166 -0.0446,0 -0.10639,0.006 -0.1848,0.0166 -0.0574,0.004 -0.1408,0.0114 -0.25086,0.0193 -0.11007,0.007 -0.21425,0.0136 -0.31419,0.0195 l -0.36885,0.0151 -0.0151,0.0475 c -0.006,0.0107 -0.008,0.0322 -0.008,0.0668 0,0.0337 0.002,0.069 0.008,0.10565 l 0.007,0.13307 0.0863,0.009 c 0.0216,0.005 0.0567,0.008 0.10639,0.0114 0.0495,0.002 0.0977,0.004 0.14522,0.004 0.13086,0 0.28473,0.006 0.46308,0.0193 0.17743,0.0129 0.33719,0.0295 0.47873,0.051 0.10933,0.0158 0.22363,0.0245 0.34161,0.0274 0.11706,0.002 0.36443,0.004 0.7412,0.004 0.23007,0 0.42995,0.002 0.60038,0.004 0.1697,0.002 0.25732,0.004 0.26229,0.004 l 0.0237,0.0158 -0.0237,0.0158 c -0.005,0 -0.0208,0.002 -0.0466,0.004 -0.026,0.002 -0.0526,0.006 -0.0784,0.0114 -0.0267,0 -0.0512,0.002 -0.0747,0.004 -0.0237,0.003 -0.0383,0.006 -0.0433,0.0121 -0.0208,0.0201 -0.2078,0.0374 -0.56082,0.0503 -0.35375,0.0138 -0.80451,0.0203 -1.35447,0.0203 h -1.06697 v 0.34511 l 0.27535,0.008 c 0.26099,0.0101 0.45591,0.0265 0.58456,0.0468 0.12792,0.0208 0.29909,0.0631 0.51407,0.12571 0.0366,0.0109 0.0705,0.0195 0.10141,0.0274 0.0316,0.008 0.0495,0.0121 0.0552,0.0121 0.0109,0.005 0.0158,0.0101 0.0158,0.0158 0,0.005 -0.005,0.0129 -0.0158,0.023 -0.0208,0.0158 -0.0495,0.0237 -0.0861,0.0237 -0.0368,0 -0.13657,-0.008 -0.29835,-0.0237 -0.11007,-0.005 -0.17909,-0.007 -0.2078,-0.007 -0.0289,0 -0.0512,0.004 -0.067,0.0151 -0.01,0.0109 -0.0193,0.0173 -0.0272,0.0201 -0.008,0.002 -0.0144,-0.002 -0.0201,-0.0121 -0.0101,-0.005 -0.0468,-0.0101 -0.11006,-0.0158 -0.0626,-0.005 -0.16675,-0.007 -0.31345,-0.007 l -0.39259,-0.009 -0.0151,0.0396 c 0,0.0109 -0.003,0.0339 -0.008,0.0705 -0.006,0.0366 -0.0109,0.0755 -0.0166,0.1178 -0.004,0.0418 -0.0151,0.0942 -0.0309,0.15682 -0.005,0.0109 -0.0554,0.0158 -0.14872,0.0158 -0.0942,0 -0.15184,-0.005 -0.17338,-0.0158 -0.0151,-0.005 -0.023,-0.009 -0.023,-0.0114 0,-0.003 0.005,-0.009 0.0158,-0.0195 0.0109,-0.0109 0.018,-0.0287 0.0237,-0.0554 0.005,-0.0265 0.007,-0.0705 0.007,-0.13289 v -0.16547 h -0.15663 c -0.0418,0 -0.0848,0.003 -0.12958,0.009 -0.0445,0.004 -0.0797,0.0129 -0.10565,0.023 -0.0524,0.0158 -0.21847,0.0272 -0.49897,0.0352 -0.27958,0.008 -0.45076,0.007 -0.51334,-0.004 -0.0366,-0.005 -0.0554,-0.0158 -0.0554,-0.0316 0,-0.0158 0.021,-0.0287 0.0626,-0.0388 l 0.1259,-0.0237 c 0.0366,-0.0107 0.069,-0.0208 0.0985,-0.0316 0.0287,-0.01 0.0324,-0.0129 0.0114,-0.008 0.1259,-0.0366 0.25676,-0.0668 0.39186,-0.0906 0.13675,-0.023 0.28547,-0.0423 0.44799,-0.0582 0.0733,-0.006 0.14025,-0.0109 0.19989,-0.0158 0.0604,-0.005 0.0928,-0.008 0.0977,-0.008 0.006,0 0.0109,-0.0129 0.0165,-0.0388 0.005,-0.026 0.007,-0.074 0.007,-0.14172 v -0.18829 l -0.38467,0.008 c -0.10418,0.005 -0.20339,0.0109 -0.29763,0.0158 -0.0942,0.005 -0.15681,0.0107 -0.18828,0.0158 -0.0317,0.005 -0.11504,0.009 -0.25106,0.0114 -0.13656,0.003 -0.28252,0.004 -0.43989,0.004 -0.23523,0.005 -0.39259,0.009 -0.471,0.0114 -0.0784,0.003 -0.12295,0.009 -0.13307,0.0195 -0.0107,0.0107 -0.0193,0.0158 -0.0272,0.0158 -0.008,0 -0.0223,-0.005 -0.0438,-0.0158 -0.0151,-0.0158 -0.0361,-0.0245 -0.0626,-0.0274 -0.026,-0.002 -0.0705,-0.002 -0.13307,0.004 -0.0416,0.005 -0.0841,0.007 -0.12571,0.007 h -0.0784 c -0.0158,0 -0.0539,0 -0.11357,-0.004 -0.0604,-0.003 -0.12736,-0.004 -0.20062,-0.004 h -0.17614 c -0.0497,0 -0.0742,-0.003 -0.0742,-0.008 0,-0.0109 0.0195,-0.0237 0.0583,-0.0396 0.0396,-0.0158 0.0955,-0.0287 0.16823,-0.0388 0.0475,-0.006 0.097,-0.0121 0.14946,-0.0201 0.0526,-0.008 0.0915,-0.0145 0.11798,-0.0195 0.0316,-0.005 0.0611,-0.009 0.0898,-0.0114 0.0289,-0.003 0.0512,-0.004 0.067,-0.004 0.0158,0 0.0401,-0.002 0.0747,-0.008 0.0337,-0.005 0.069,-0.0107 0.10564,-0.0158 0.24093,-0.0309 0.4342,-0.0517 0.58089,-0.0626 0.14669,-0.0107 0.42351,-0.0186 0.83193,-0.0237 0.23007,-0.005 0.43272,-0.01 0.60831,-0.0156 0.17467,-0.005 0.27019,-0.008 0.28602,-0.008 l 0.0626,-0.007 v -0.18847 c 0,-0.0574 -0.002,-0.10289 -0.007,-0.13363 -0.006,-0.0316 -0.0109,-0.0475 -0.0165,-0.0475 -0.005,0 -0.0502,0.004 -0.13731,0.0121 -0.0863,0.008 -0.18626,0.0166 -0.30204,0.0274 -0.15166,0.0107 -0.28749,0.0179 -0.4075,0.0236 -0.12018,0.005 -0.24387,0.008 -0.36885,0.008 l -0.35301,-0.008 -0.20431,-0.0861 c -0.0524,-0.026 -0.10491,-0.0512 -0.15737,-0.0749 -0.0517,-0.0236 -0.0863,-0.0409 -0.10141,-0.051 -0.0158,-0.0101 -0.0423,-0.0245 -0.0784,-0.0431 -0.0366,-0.018 -0.0703,-0.0381 -0.1027,-0.0591 -0.1143,-0.0574 -0.19841,-0.12295 -0.25032,-0.19547 -0.0524,-0.0734 -0.0861,-0.17614 -0.1027,-0.30701 -0.0101,-0.0517 -0.0144,-0.0913 -0.0116,-0.11724 0.003,-0.0265 0.0116,-0.0596 0.0281,-0.10197 0.0624,-0.18848 0.16032,-0.33223 0.29394,-0.43143 0.13307,-0.1 0.28915,-0.14964 0.46658,-0.14964 0.0893,0.006 0.17412,0.0331 0.25529,0.0828 0.0806,0.0495 0.14246,0.11357 0.18405,0.19198 0.0208,0.0473 0.0316,0.10344 0.0316,0.16878 0,0.0655 -0.0158,0.12166 -0.0467,0.16896 -0.0215,0.0368 -0.049,0.069 -0.0826,0.0979 -0.0346,0.0287 -0.0648,0.0431 -0.0906,0.0431 -0.0101,0 -0.0144,-0.004 -0.0116,-0.0114 0.003,-0.008 0.0144,-0.0224 0.0353,-0.0433 0.0208,-0.0265 0.0351,-0.0495 0.0431,-0.0712 0.008,-0.0201 0.0144,-0.0495 0.0201,-0.0861 0.0101,-0.0626 0.004,-0.11872 -0.0201,-0.16823 -0.0237,-0.0504 -0.064,-0.10068 -0.12148,-0.15314 l -0.0784,-0.0784 -0.13363,0.008 c -0.0885,0.01 -0.18479,0.0396 -0.2862,0.0863 -0.10215,0.0466 -0.17394,0.097 -0.21572,0.14872 -0.0576,0.0734 -0.0928,0.1467 -0.10565,0.21995 -0.0138,0.0727 -0.002,0.14099 0.0351,0.2043 0.0203,0.0468 0.0799,0.11927 0.17614,0.21498 0.097,0.097 0.16896,0.15884 0.21571,0.1848 0.0576,0.0265 0.15167,0.0559 0.28253,0.0906 0.13087,0.0339 0.2459,0.0561 0.34511,0.0668 0.13657,0.0151 0.39682,0.023 0.78076,0.023 0.38468,0 0.5853,-0.008 0.6004,-0.023 0.0158,-0.0158 0.0267,-0.12571 0.0316,-0.33002 0.006,-0.20412 0,-0.32431 -0.0158,-0.36093 -0.0101,-0.0208 -0.0208,-0.0322 -0.0309,-0.0351 -0.0109,-0.003 -0.0366,-0.002 -0.0784,0.004 -0.0891,0.0109 -0.16675,0.0267 -0.23154,0.0475 -0.0661,0.0208 -0.12424,0.0497 -0.1767,0.0863 -0.0526,0.0316 -0.0841,0.0539 -0.0942,0.0668 -0.0109,0.013 -0.0131,0.0324 -0.008,0.0591 0,0.01 10e-4,0.0251 0.004,0.0431 0.003,0.018 0.004,0.0324 0.004,0.0431 0,0.0101 0.005,0.026 0.0151,0.0468 0.0107,0.021 0.0238,0.0396 0.0396,0.0554 0.0366,0.0467 0.0488,0.0769 0.0351,0.0898 -0.0129,0.0131 -0.051,0.009 -0.11356,-0.0114 -0.0626,-0.0215 -0.10565,-0.0475 -0.12939,-0.0784 -0.0237,-0.0316 -0.0353,-0.0791 -0.0353,-0.14172 0,-0.094 0.0339,-0.18682 0.10215,-0.27885 0.0675,-0.0913 0.15682,-0.16325 0.2667,-0.21571 0.0525,-0.0208 0.0992,-0.0374 0.14098,-0.0503 0.0423,-0.0138 0.12369,-0.0309 0.2437,-0.0512 l 0.10141,-0.0158 -0.0151,-0.10988 v -0.0942 c 0,-0.0316 0.002,-0.0583 0.008,-0.0784 0.005,-0.0158 0.007,-0.0316 0.007,-0.0475 v -0.0316 c -0.0151,-0.0201 -0.0596,-0.0359 -0.13307,-0.0468 -0.0733,-0.0107 -0.21203,-0.0178 -0.4156,-0.0236 -0.12074,-0.005 -0.22786,-0.0101 -0.32209,-0.0158 -0.0941,-0.005 -0.14651,-0.0101 -0.15664,-0.0151 -0.0576,-0.0158 -0.12939,-0.0381 -0.21571,-0.067 -0.0871,-0.0287 -0.14522,-0.051 -0.17688,-0.0668 -0.0475,-0.0208 -0.0863,-0.0611 -0.11798,-0.12148 -0.0309,-0.0604 -0.0466,-0.12147 -0.0466,-0.18479 0,-0.0676 0.0156,-0.12645 0.0466,-0.17614 0.0316,-0.0497 0.0841,-0.10363 0.15756,-0.16105 0.0366,-0.0208 0.0705,-0.046 0.10141,-0.0747 0.0316,-0.0289 0.0552,-0.0504 0.071,-0.0663 0.0576,-0.079 0.072,-0.16381 0.0433,-0.25511 -0.0287,-0.0913 -0.0849,-0.14522 -0.16896,-0.16031 -0.0158,0 -0.0366,-0.004 -0.0626,-0.0123 -0.0267,-0.008 -0.0525,-0.0144 -0.0784,-0.0193 -0.0891,-0.026 -0.10988,-0.049 -0.0633,-0.067 0.0475,-0.0186 0.13878,-0.0223 0.27553,-0.0121 0.0775,0 0.13068,0.003 0.15664,0.008 0.026,0.006 0.0547,0.0208 0.0863,0.0475 0.0158,0.0107 0.0324,0.0257 0.051,0.0468 0.018,0.0215 0.0295,0.0396 0.0353,0.0552 0.0158,0.026 0.0236,0.0497 0.0236,0.0705 0,0.021 -0.006,0.0554 -0.0164,0.10215 -0.0151,0.0784 -0.0361,0.14025 -0.0619,0.18406 -0.0267,0.0445 -0.0712,0.0906 -0.1338,0.13731 -0.0891,0.0733 -0.14743,0.12442 -0.17688,0.15313 -0.0287,0.0287 -0.051,0.064 -0.0668,0.10639 -0.026,0.0626 -0.0272,0.12019 -0.004,0.17264 0.023,0.0517 0.0769,0.10712 0.16104,0.16455 l 0.0942,0.0547 0.47891,-0.007 c 0.25087,-0.006 0.41192,-0.0136 0.48242,-0.0245 0.0705,-0.01 0.11356,-0.0309 0.12939,-0.0618 0.0208,-0.0374 0.0366,-0.22933 0.0475,-0.5772 0.01,-0.34806 0.008,-0.5588 -0.009,-0.63206 -0.0101,-0.0309 -0.0136,-0.0517 -0.0116,-0.0626 0.003,-0.0101 0.0144,-0.0237 0.0353,-0.0388 0.0208,-0.0215 0.0337,-0.0475 0.0396,-0.079 0.005,-0.0309 0.007,-0.12019 0.007,-0.26615 v -0.30627 l -0.0935,-0.008 c -0.026,-0.006 -0.0569,-0.006 -0.0906,-0.004 -0.0339,0.003 -0.0611,0.007 -0.0828,0.0121 -0.0359,0.005 -0.0596,0.006 -0.0703,0.004 -0.0101,-0.002 -0.023,-0.0116 -0.0388,-0.0274 -0.005,-0.01 -0.0109,-0.0237 -0.0158,-0.0396 -0.006,-0.0151 -0.008,-0.028 -0.008,-0.0388 0,-0.0156 0.001,-0.0265 0.004,-0.0315 0.002,-0.005 0.0144,-0.005 0.0353,0 0.0359,0.0107 0.0589,0.004 0.0661,-0.0195 0.008,-0.0237 0.001,-0.0799 -0.0193,-0.16823 -0.0109,-0.0482 -0.0195,-0.0935 -0.0274,-0.13804 -0.008,-0.0445 -0.0121,-0.074 -0.0121,-0.0898 0,-0.0166 -0.002,-0.0346 -0.007,-0.0554 -0.006,-0.0208 -0.0109,-0.0366 -0.0158,-0.0468 -0.0109,-0.0158 -0.0173,-0.0331 -0.0195,-0.0517 -0.003,-0.018 -0.004,-0.0324 -0.004,-0.0425 0,-0.0107 -0.003,-0.025 -0.007,-0.0438 -0.006,-0.018 -0.0136,-0.0324 -0.0245,-0.0423 -0.005,-0.0158 -0.0116,-0.0353 -0.0195,-0.0591 -0.008,-0.0238 -0.0114,-0.0453 -0.0114,-0.0668 -0.006,-0.0366 -0.0158,-0.0653 -0.0316,-0.0863 -0.0158,-0.0208 -0.0339,-0.0337 -0.0547,-0.0396 -0.006,-0.005 -0.004,-0.0136 0.004,-0.0272 0.008,-0.0129 0.0223,-0.0302 0.0431,-0.051 0.0158,-0.021 0.0302,-0.0388 0.0431,-0.0547 0.0131,-0.0158 0.0203,-0.0267 0.0203,-0.0317 0,-0.026 0.0574,-0.10859 0.17173,-0.24737 0.11577,-0.13878 0.20706,-0.23357 0.27553,-0.28621 l 0.0703,-0.0466 z"
       style="fill:#21201d;fill-opacity:1;fill-rule:nonzero;stroke:none;stroke-width:0.184057"
       id="path562" />
  </g>
</svg>
