<?xml version="1.0" encoding="UTF-8" standalone="no"?>
<!-- Created with Inkscape (http://www.inkscape.org/) -->

<svg
   width="6.9380207mm"
   height="7.7218738mm"
   viewBox="0 0 6.9380207 7.7218738"
   version="1.1"
   id="svg2355"
   inkscape:version="1.1.2 (0a00cf5339, 2022-02-04)"
   sodipodi:docname="dead_heat.svg"
   xmlns:inkscape="http://www.inkscape.org/namespaces/inkscape"
   xmlns:sodipodi="http://sodipodi.sourceforge.net/DTD/sodipodi-0.dtd"
   xmlns="http://www.w3.org/2000/svg"
   xmlns:svg="http://www.w3.org/2000/svg">
  <sodipodi:namedview
     id="namedview2357"
     pagecolor="#ffffff"
     bordercolor="#666666"
     borderopacity="1.0"
     inkscape:pageshadow="2"
     inkscape:pageopacity="0.0"
     inkscape:pagecheckerboard="0"
     inkscape:document-units="mm"
     showgrid="false"
     inkscape:zoom="0.64052329"
     inkscape:cx="12.489788"
     inkscape:cy="14.831623"
     inkscape:window-width="2560"
     inkscape:window-height="1376"
     inkscape:window-x="0"
     inkscape:window-y="0"
     inkscape:window-maximized="1"
     inkscape:current-layer="layer1" />
  <defs
     id="defs2352" />
  <g
     inkscape:label="Layer 1"
     inkscape:groupmode="layer"
     id="layer1"
     transform="translate(-101.45171,-144.63906)">
    <g
       id="g574"
       transform="matrix(0.18405616,0,0,0.18405792,52.919785,-48.180383)">
      <path
         d="m 282.309,1063.102 c -0.086,0.011 -0.184,0.175 -0.297,0.488 -0.086,0.254 -0.137,0.496 -0.149,0.722 -0.015,0.231 0.02,0.344 0.106,0.344 0.086,0 0.191,-0.148 0.316,-0.449 0.133,-0.297 0.18,-0.543 0.153,-0.746 0,-0.254 -0.043,-0.375 -0.129,-0.359 m -0.34,1.98 c -0.028,-0.141 -0.078,-0.207 -0.153,-0.191 -0.07,0.015 -0.132,0.093 -0.187,0.234 -0.059,0.172 -0.086,0.484 -0.086,0.937 0,0.454 0.027,0.77 0.086,0.938 0.027,0.086 0.055,0.191 0.082,0.32 0.031,0.129 0.059,0.25 0.09,0.364 0.027,0.199 0.074,0.347 0.148,0.449 0.071,0.097 0.149,0.117 0.231,0.062 0,-0.027 -0.028,-0.511 -0.082,-1.449 -0.059,-0.941 -0.102,-1.492 -0.129,-1.664 m -1.024,11.895 c -0.086,-0.114 -0.156,-0.165 -0.211,-0.149 -0.058,0.016 -0.129,0.094 -0.214,0.234 -0.141,0.172 -0.2,0.563 -0.172,1.172 0.031,0.61 0.113,1.145 0.257,1.602 0.055,0.195 0.114,0.391 0.168,0.574 0.059,0.184 0.086,0.305 0.086,0.363 0.032,0.172 0.071,0.247 0.129,0.235 0.059,-0.016 0.141,-0.121 0.254,-0.32 0.086,-0.172 0.137,-0.536 0.153,-1.086 0.011,-0.555 -0.024,-0.934 -0.11,-1.133 -0.027,-0.082 -0.055,-0.199 -0.082,-0.34 -0.031,-0.141 -0.058,-0.301 -0.086,-0.469 -0.027,-0.14 -0.062,-0.277 -0.109,-0.406 -0.043,-0.129 -0.063,-0.219 -0.063,-0.277 m 1.746,-29.247 c 0.032,-0.058 0.118,-0.093 0.258,-0.109 0.141,-0.012 0.442,-0.019 0.895,-0.019 h 1.152 l 0.383,0.425 c 0.113,0.114 0.234,0.262 0.363,0.45 0.129,0.183 0.235,0.347 0.32,0.488 0.114,0.23 0.184,0.414 0.211,0.555 0.032,0.144 0.043,0.441 0.043,0.898 v 0.937 l -0.55,1.153 c -0.176,0.312 -0.317,0.594 -0.43,0.851 -0.113,0.254 -0.168,0.399 -0.168,0.422 0,0.059 0.02,0.133 0.062,0.215 0.043,0.086 0.094,0.172 0.149,0.254 0.113,0.172 0.172,0.371 0.172,0.602 0,0.226 -0.059,0.496 -0.172,0.808 -0.055,0.199 -0.094,0.461 -0.106,0.789 -0.011,0.324 -0.023,0.957 -0.023,1.895 0,1.195 -0.02,2.133 -0.062,2.816 -0.043,0.684 -0.137,1.293 -0.278,1.832 -0.055,0.254 -0.094,0.442 -0.105,0.555 -0.012,0.117 0.004,0.187 0.062,0.215 0.031,0.054 0.086,0.07 0.172,0.043 0.086,-0.032 0.242,-0.129 0.469,-0.301 0.398,-0.258 0.68,-0.375 0.851,-0.363 0.172,0.015 0.469,0.207 0.895,0.574 0.371,0.285 0.848,0.578 1.43,0.875 0.582,0.301 0.972,0.453 1.171,0.453 0.172,0 0.379,0.059 0.618,0.187 0.242,0.129 0.433,0.25 0.578,0.364 0.199,0.199 0.418,0.449 0.66,0.746 0.242,0.301 0.363,0.476 0.363,0.531 0,0.113 -0.285,0.109 -0.851,-0.019 -0.571,-0.125 -1.024,-0.293 -1.368,-0.489 -0.14,-0.09 -0.277,-0.16 -0.402,-0.215 -0.129,-0.058 -0.223,-0.086 -0.277,-0.086 -0.031,0 -0.129,-0.042 -0.301,-0.128 -0.168,-0.082 -0.355,-0.168 -0.555,-0.254 -0.34,-0.2 -0.597,-0.313 -0.765,-0.344 -0.168,-0.027 -0.469,-0.055 -0.899,-0.082 -0.367,-0.027 -0.621,-0.035 -0.765,-0.024 -0.141,0.016 -0.27,0.067 -0.383,0.153 -0.227,0.14 -0.383,0.351 -0.469,0.637 -0.086,0.285 -0.043,0.468 0.129,0.554 0.055,0.031 0.07,0.051 0.043,0.067 -0.031,0.011 -0.102,0.035 -0.215,0.062 -0.117,0.027 -0.199,0.07 -0.258,0.129 -0.054,0.055 -0.125,0.184 -0.211,0.383 -0.14,0.34 -0.277,0.867 -0.406,1.578 -0.129,0.707 -0.191,1.32 -0.191,1.832 v 0.937 l -0.598,0.68 c -0.426,0.543 -0.816,1.149 -1.172,1.813 -0.355,0.672 -0.547,1.187 -0.574,1.558 -0.027,0.227 -0.016,0.731 0.043,1.512 0.055,0.785 0.113,1.273 0.172,1.473 0.082,0.257 0.226,0.328 0.422,0.211 0.199,-0.11 0.5,-0.411 0.898,-0.891 0.172,-0.203 0.402,-0.469 0.703,-0.813 0.297,-0.339 0.586,-0.652 0.875,-0.937 0.395,-0.426 0.672,-0.738 0.828,-0.938 0.157,-0.199 0.266,-0.398 0.321,-0.597 0.086,-0.199 0.222,-0.418 0.406,-0.66 0.184,-0.243 0.59,-0.676 1.215,-1.301 0.797,-0.852 1.355,-1.395 1.683,-1.621 0.328,-0.227 0.805,-0.41 1.43,-0.555 0.227,-0.058 0.496,-0.141 0.809,-0.254 0.312,-0.113 0.582,-0.226 0.812,-0.344 0.34,-0.195 0.852,-0.425 1.531,-0.679 0.684,-0.258 1.098,-0.387 1.239,-0.387 0.14,0.117 0.242,0.215 0.3,0.301 0.196,0.199 0.426,0.355 0.68,0.469 0.258,0.113 0.539,0.171 0.852,0.171 0.226,0 0.422,0.012 0.574,0.039 0.156,0.032 0.351,0.102 0.578,0.215 0.141,0.086 0.289,0.149 0.449,0.192 0.153,0.043 0.262,0.062 0.317,0.062 0.199,0 0.422,0.094 0.664,0.278 0.238,0.187 0.445,0.406 0.617,0.664 0.258,0.453 0.434,0.867 0.531,1.234 0.102,0.371 0.164,0.941 0.195,1.707 0,0.598 0.02,1.024 0.063,1.277 0.043,0.258 0.137,0.598 0.277,1.024 0.172,0.597 0.27,1.09 0.297,1.473 0.031,0.382 -0.027,0.687 -0.168,0.917 -0.058,0.083 -0.109,0.157 -0.152,0.211 -0.043,0.059 -0.078,0.086 -0.106,0.086 -0.082,0 -0.339,-0.062 -0.765,-0.191 -0.426,-0.129 -0.77,-0.25 -1.024,-0.363 -0.23,-0.086 -0.441,-0.2 -0.64,-0.34 -0.2,-0.145 -0.426,-0.34 -0.68,-0.598 -0.402,-0.398 -0.801,-0.726 -1.195,-0.98 -0.399,-0.258 -0.797,-0.453 -1.196,-0.598 -0.367,-0.113 -0.859,-0.184 -1.472,-0.215 -0.61,-0.027 -1.469,0 -2.578,0.09 -0.512,0.055 -0.879,0.098 -1.11,0.125 -0.226,0.027 -0.41,0.086 -0.551,0.168 -0.285,0.145 -0.601,0.273 -0.941,0.387 -0.34,0.113 -0.582,0.172 -0.723,0.172 -0.171,0 -0.363,-0.051 -0.574,-0.153 -0.215,-0.097 -0.406,-0.234 -0.578,-0.406 -0.055,-0.055 -0.129,-0.109 -0.211,-0.168 -0.086,-0.055 -0.156,-0.086 -0.215,-0.086 -0.285,0 -0.601,0.156 -0.961,0.469 -0.351,0.312 -0.687,0.699 -1,1.152 -0.086,0.141 -0.215,0.328 -0.382,0.555 -0.172,0.226 -0.344,0.426 -0.516,0.598 -0.395,0.425 -0.645,0.722 -0.742,0.894 -0.102,0.172 -0.235,0.484 -0.407,0.938 -0.085,0.226 -0.183,0.519 -0.3,0.875 -0.114,0.355 -0.227,0.671 -0.34,0.957 -0.168,0.457 -0.281,0.816 -0.34,1.089 -0.059,0.27 -0.102,0.602 -0.129,1 -0.027,0.286 -0.055,0.555 -0.086,0.813 -0.027,0.254 -0.055,0.426 -0.082,0.508 -0.031,0.086 -0.066,0.265 -0.109,0.535 -0.039,0.269 -0.074,0.562 -0.106,0.875 -0.086,0.598 -0.172,1.101 -0.254,1.512 -0.086,0.414 -0.172,0.66 -0.257,0.746 -0.055,0.058 -0.129,0.058 -0.215,0 -0.082,-0.055 -0.141,-0.172 -0.168,-0.34 -0.032,-0.086 -0.059,-0.215 -0.086,-0.383 l -0.086,-0.516 c -0.059,-0.253 -0.078,-0.515 -0.063,-0.785 0.012,-0.269 0.036,-0.691 0.063,-1.258 0.086,-0.824 0.14,-1.828 0.172,-3.007 0.027,-1.18 0.027,-1.883 0,-2.11 -0.032,-0.113 -0.078,-0.207 -0.153,-0.277 -0.07,-0.07 -0.203,-0.18 -0.402,-0.32 -0.141,-0.059 -0.285,-0.121 -0.426,-0.192 -0.144,-0.07 -0.242,-0.105 -0.301,-0.105 -0.14,0 -0.226,0.019 -0.253,0.062 -0.028,0.043 -0.059,0.223 -0.086,0.531 0,0.313 -0.043,0.543 -0.129,0.684 -0.082,0.145 -0.27,0.301 -0.551,0.469 -0.113,0.086 -0.238,0.183 -0.363,0.301 -0.129,0.109 -0.223,0.226 -0.278,0.339 -0.172,0.258 -0.336,0.426 -0.492,0.512 -0.156,0.086 -0.418,0.172 -0.789,0.254 -0.168,0.031 -0.336,0.067 -0.492,0.109 -0.152,0.043 -0.258,0.079 -0.317,0.106 -0.031,0.027 -0.113,0.062 -0.257,0.105 -0.141,0.043 -0.297,0.082 -0.469,0.106 -0.141,0.058 -0.316,0.129 -0.531,0.215 -0.215,0.086 -0.379,0.156 -0.493,0.215 -0.14,0.085 -0.324,0.175 -0.55,0.273 -0.231,0.102 -0.446,0.195 -0.641,0.281 -0.484,0.172 -0.805,0.321 -0.961,0.449 -0.156,0.125 -0.406,0.434 -0.746,0.915 -0.398,0.597 -0.644,0.98 -0.746,1.152 -0.102,0.168 -0.164,0.355 -0.191,0.555 -0.059,0.226 -0.129,0.359 -0.211,0.406 -0.086,0.039 -0.204,-0.012 -0.344,-0.153 -0.113,-0.113 -0.234,-0.382 -0.363,-0.808 -0.125,-0.426 -0.204,-0.824 -0.231,-1.195 -0.031,-0.141 -0.066,-0.286 -0.109,-0.426 -0.043,-0.145 -0.094,-0.242 -0.153,-0.301 -0.082,-0.141 -0.14,-0.297 -0.168,-0.469 -0.027,-0.168 -0.054,-0.523 -0.086,-1.062 0,-0.77 0.036,-1.309 0.11,-1.621 0.07,-0.317 0.234,-0.653 0.488,-1.024 0.113,-0.172 0.219,-0.328 0.32,-0.469 0.102,-0.144 0.149,-0.242 0.149,-0.3 0.059,-0.168 0.234,-0.446 0.531,-0.828 0.301,-0.387 0.563,-0.676 0.793,-0.875 0.199,-0.2 0.434,-0.372 0.703,-0.512 0.27,-0.145 0.629,-0.297 1.086,-0.469 0.113,-0.031 0.289,-0.113 0.535,-0.258 0.239,-0.14 0.461,-0.297 0.657,-0.468 0.285,-0.227 0.492,-0.375 0.621,-0.446 0.125,-0.074 0.25,-0.109 0.363,-0.109 0.055,0.031 0.25,0.066 0.574,0.109 0.324,0.039 0.676,0.094 1.043,0.145 0.77,0.117 1.262,0.207 1.473,0.281 0.211,0.07 0.449,0.234 0.703,0.488 0.168,0.172 0.269,0.301 0.301,0.387 0.027,0.082 0.039,0.297 0.039,0.637 0,0.453 0.043,0.726 0.129,0.812 0.086,0.082 0.328,0.114 0.722,0.082 l 0.598,-0.082 -0.039,-0.386 c -0.031,-0.083 -0.066,-0.235 -0.106,-0.446 -0.046,-0.215 -0.109,-0.422 -0.195,-0.617 -0.055,-0.199 -0.121,-0.473 -0.191,-0.813 -0.071,-0.343 -0.137,-0.656 -0.192,-0.937 -0.058,-0.313 -0.121,-0.613 -0.191,-0.895 -0.07,-0.285 -0.121,-0.5 -0.152,-0.64 -0.055,-0.113 -0.106,-0.25 -0.149,-0.406 -0.039,-0.157 -0.074,-0.289 -0.105,-0.407 -0.028,-0.195 -0.157,-0.539 -0.383,-1.019 -0.227,-0.485 -0.399,-0.797 -0.512,-0.938 -0.086,-0.117 -0.242,-0.172 -0.469,-0.172 -0.226,0 -0.511,0.055 -0.855,0.172 -0.449,0.114 -0.867,0.114 -1.234,0 -0.372,-0.117 -1.024,-0.457 -1.961,-1.023 -0.086,-0.059 -0.293,-0.156 -0.618,-0.301 -0.328,-0.141 -0.664,-0.269 -1.003,-0.383 -0.852,-0.312 -1.442,-0.468 -1.77,-0.468 -0.324,0 -0.828,0.156 -1.512,0.468 -0.285,0.114 -0.554,0.227 -0.808,0.34 -0.258,0.117 -0.446,0.172 -0.559,0.172 -0.226,0.027 -0.434,0.102 -0.617,0.215 -0.184,0.113 -0.43,0.281 -0.742,0.512 -0.145,0.109 -0.309,0.218 -0.492,0.316 -0.184,0.102 -0.336,0.164 -0.45,0.195 -0.199,0.055 -0.328,0.075 -0.383,0.063 -0.058,-0.012 -0.128,-0.063 -0.214,-0.149 -0.114,-0.086 -0.168,-0.164 -0.168,-0.234 0,-0.074 0.054,-0.223 0.168,-0.449 0.027,-0.114 0.074,-0.27 0.129,-0.469 0.058,-0.199 0.101,-0.383 0.128,-0.555 0.028,-0.172 0.071,-0.332 0.125,-0.492 0.059,-0.152 0.102,-0.258 0.129,-0.316 0.059,-0.059 0.141,-0.172 0.258,-0.34 0.113,-0.172 0.242,-0.344 0.383,-0.516 0.113,-0.195 0.293,-0.445 0.531,-0.746 0.242,-0.297 0.465,-0.558 0.66,-0.789 0.204,-0.254 0.387,-0.488 0.555,-0.703 0.172,-0.211 0.274,-0.344 0.301,-0.402 0.113,-0.145 0.285,-0.293 0.512,-0.45 0.226,-0.156 0.695,-0.402 1.406,-0.746 0.738,-0.398 1.273,-0.617 1.597,-0.66 0.329,-0.043 0.876,0.035 1.645,0.235 0.34,0.058 0.699,0.128 1.086,0.21 0.383,0.09 0.672,0.161 0.875,0.215 0.453,0.055 0.871,0.172 1.258,0.344 0.383,0.168 0.785,0.41 1.215,0.723 0.398,0.285 0.718,0.574 0.957,0.875 0.242,0.297 0.449,0.644 0.621,1.043 0.222,0.566 0.359,1.004 0.402,1.3 0.043,0.297 0.008,0.704 -0.105,1.215 -0.145,0.571 -0.207,0.957 -0.192,1.172 0.012,0.215 0.09,0.477 0.235,0.789 0.086,0.199 0.164,0.328 0.234,0.387 0.07,0.055 0.148,0.082 0.234,0.082 0.145,0 0.313,-0.156 0.512,-0.469 0.199,-0.312 0.285,-0.57 0.254,-0.765 0,-0.086 -0.012,-0.266 -0.043,-0.532 -0.027,-0.273 -0.059,-0.578 -0.082,-0.922 -0.059,-0.624 -0.129,-1.148 -0.215,-1.574 -0.086,-0.426 -0.242,-0.898 -0.469,-1.406 -0.086,-0.227 -0.172,-0.465 -0.254,-0.707 -0.085,-0.238 -0.144,-0.418 -0.171,-0.531 -0.028,-0.141 -0.071,-0.313 -0.129,-0.512 -0.059,-0.199 -0.114,-0.371 -0.168,-0.512 -0.059,-0.144 -0.121,-0.347 -0.196,-0.617 -0.07,-0.273 -0.121,-0.535 -0.148,-0.789 -0.141,-0.797 -0.293,-1.266 -0.449,-1.406 -0.157,-0.145 -0.617,-0.215 -1.383,-0.215 -0.344,0 -0.621,-0.016 -0.832,-0.043 -0.215,-0.027 -0.32,-0.055 -0.32,-0.082 -0.059,-0.09 0.023,-0.215 0.234,-0.387 0.211,-0.168 0.535,-0.367 0.961,-0.597 0.512,-0.227 0.922,-0.356 1.234,-0.383 0.317,-0.028 0.641,0.043 0.981,0.215 0.258,0.109 0.457,0.281 0.597,0.511 0.141,0.227 0.329,0.641 0.555,1.235 0.145,0.426 0.242,0.683 0.297,0.769 0.059,0.082 0.129,0.125 0.215,0.125 0.113,0 0.183,-0.019 0.211,-0.062 0.031,-0.043 0.074,-0.176 0.129,-0.406 0,-0.141 0.007,-0.376 0.019,-0.704 0.02,-0.328 0.012,-0.66 -0.019,-1 -0.028,-0.738 -0.106,-1.273 -0.235,-1.597 -0.125,-0.328 -0.472,-0.793 -1.043,-1.387 -0.511,-0.598 -0.84,-0.996 -0.98,-1.195 -0.145,-0.2 -0.285,-0.555 -0.43,-1.067 -0.14,-0.398 -0.246,-0.652 -0.316,-0.769 -0.074,-0.11 -0.18,-0.211 -0.321,-0.297 -0.144,-0.086 -0.25,-0.16 -0.32,-0.234 -0.074,-0.071 -0.121,-0.192 -0.148,-0.36 -0.059,-0.258 -0.207,-0.578 -0.45,-0.961 -0.238,-0.383 -0.531,-0.816 -0.871,-1.301 -0.257,-0.339 -0.492,-0.605 -0.707,-0.789 -0.211,-0.183 -0.461,-0.347 -0.746,-0.488 -0.14,-0.086 -0.254,-0.121 -0.34,-0.109 -0.086,0.015 -0.312,0.093 -0.679,0.238 -0.2,0.055 -0.422,0.125 -0.664,0.211 -0.239,0.086 -0.418,0.129 -0.532,0.129 -0.257,0.054 -0.511,0.14 -0.769,0.254 -0.254,0.113 -0.496,0.242 -0.723,0.386 -0.172,0.114 -0.336,0.188 -0.492,0.235 -0.156,0.039 -0.234,0.019 -0.234,-0.067 0,-0.086 0.113,-0.269 0.34,-0.554 0.23,-0.282 0.527,-0.625 0.898,-1.024 0.367,-0.367 0.746,-0.668 1.129,-0.894 0.383,-0.227 0.847,-0.414 1.387,-0.555 0.453,-0.113 0.828,-0.133 1.128,-0.062 0.297,0.07 0.762,0.304 1.387,0.703 0.34,0.226 0.649,0.445 0.914,0.66 0.274,0.215 0.461,0.39 0.578,0.531 l 0.809,0.938 c 0.113,0.144 0.234,0.308 0.363,0.492 0.125,0.183 0.219,0.363 0.278,0.531 0.113,0.23 0.253,0.441 0.425,0.641 0.168,0.199 0.469,0.496 0.895,0.894 0.285,0.285 0.547,0.551 0.789,0.789 0.242,0.242 0.379,0.391 0.406,0.449 0.028,0.086 0.063,0.215 0.106,0.383 0.043,0.172 0.078,0.344 0.105,0.512 0.059,0.371 0.129,0.633 0.215,0.789 0.086,0.156 0.211,0.234 0.383,0.234 0.226,0 0.398,0.129 0.512,0.383 0.117,0.258 0.171,0.684 0.171,1.282 0,0.281 0.02,0.476 0.063,0.574 0.043,0.101 0.121,0.105 0.234,0.023 0,-0.027 0.024,-0.18 0.063,-0.449 0.047,-0.27 0.082,-0.574 0.109,-0.918 0.086,-1.422 0.172,-2.453 0.258,-3.09 0.082,-0.64 0.184,-1.086 0.297,-1.344 0.113,-0.168 0.191,-0.347 0.234,-0.531 0.043,-0.187 0.078,-0.433 0.106,-0.746 0.027,-0.34 0.062,-0.621 0.105,-0.832 0.047,-0.211 0.121,-0.449 0.235,-0.703 0.085,-0.172 0.16,-0.348 0.214,-0.535 0.059,-0.184 0.086,-0.305 0.086,-0.36 0,-0.144 -0.105,-0.398 -0.32,-0.769 -0.215,-0.367 -0.418,-0.637 -0.621,-0.809 -0.109,-0.086 -0.203,-0.148 -0.274,-0.191 -0.074,-0.043 -0.179,-0.051 -0.32,-0.024 -0.172,0 -0.285,-0.015 -0.344,-0.039 -0.054,-0.031 -0.054,-0.101 0,-0.215"
         style="fill:#21201d;fill-opacity:1;fill-rule:nonzero;stroke:none"
         id="path572" />
    </g>
  </g>
</svg>
