<?xml version="1.0" encoding="UTF-8" standalone="no"?>
<!-- Created with Inkscape (http://www.inkscape.org/) -->

<svg
   width="5.4242468mm"
   height="7.7471209mm"
   viewBox="0 0 5.4242468 7.7471209"
   version="1.1"
   id="svg2191"
   inkscape:version="1.1.2 (0a00cf5339, 2022-02-04)"
   sodipodi:docname="dealings_in_the_dark.svg"
   xmlns:inkscape="http://www.inkscape.org/namespaces/inkscape"
   xmlns:sodipodi="http://sodipodi.sourceforge.net/DTD/sodipodi-0.dtd"
   xmlns="http://www.w3.org/2000/svg"
   xmlns:svg="http://www.w3.org/2000/svg">
  <sodipodi:namedview
     id="namedview2193"
     pagecolor="#ffffff"
     bordercolor="#666666"
     borderopacity="1.0"
     inkscape:pageshadow="2"
     inkscape:pageopacity="0.0"
     inkscape:pagecheckerboard="0"
     inkscape:document-units="mm"
     showgrid="false"
     inkscape:zoom="0.64052329"
     inkscape:cx="10.928564"
     inkscape:cy="14.831623"
     inkscape:window-width="2560"
     inkscape:window-height="1376"
     inkscape:window-x="0"
     inkscape:window-y="0"
     inkscape:window-maximized="1"
     inkscape:current-layer="layer1" />
  <defs
     id="defs2188" />
  <g
     inkscape:label="Layer 1"
     inkscape:groupmode="layer"
     id="layer1"
     transform="translate(-102.20986,-144.62873)">
    <path
       d="m 106.71596,145.23812 c -0.01,-0.0309 -0.0223,-0.0468 -0.0344,-0.0468 -0.0138,0 -0.0252,0.0158 -0.0353,0.0468 -0.0151,0.0316 -0.0359,0.0985 -0.0618,0.2021 -0.0258,0.1027 -0.0388,0.16749 -0.0388,0.19344 0,0.005 -0.002,0.0201 -0.008,0.0431 -0.005,0.023 -0.0121,0.0446 -0.023,0.0655 -0.0208,0.0567 -0.0503,0.16161 -0.0891,0.31419 -0.0388,0.1524 -0.0661,0.27462 -0.0812,0.36812 -0.006,0.0409 -0.0131,0.0861 -0.0237,0.1351 -0.0101,0.0495 -0.021,0.0871 -0.0309,0.11282 -0.0101,0.0309 -0.0195,0.0777 -0.0267,0.13952 -0.008,0.0618 -0.0171,0.1316 -0.0272,0.20928 -0.005,0.11356 -0.0116,0.19123 -0.0195,0.23209 -0.008,0.0418 -0.0223,0.0878 -0.0431,0.13952 -0.0309,0.0826 -0.0517,0.16676 -0.0618,0.25234 -0.0101,0.0848 -0.0129,0.20283 -0.008,0.35229 0.006,0.17614 0.0201,0.30921 0.0431,0.39977 0.023,0.09 0.0633,0.16326 0.12019,0.22069 0.0258,0.0309 0.0582,0.0526 0.0963,0.0655 0.0396,0.0129 0.0769,0.0144 0.11301,0.004 0.0258,-0.005 0.0596,-0.0304 0.1005,-0.0769 0.0418,-0.0468 0.067,-0.0907 0.0777,-0.1316 0.005,-0.0158 0.0109,-0.0316 0.0151,-0.0468 0.006,-0.0158 0.0109,-0.026 0.0158,-0.0316 0.0309,-0.051 0.0611,-0.12369 0.0893,-0.21646 0.0287,-0.0935 0.0473,-0.17835 0.0582,-0.25602 0.0158,-0.11356 0.0193,-0.29965 0.0116,-0.55788 -0.007,-0.25805 -0.0225,-0.47597 -0.0425,-0.65064 0,-0.0416 -0.004,-0.11927 -0.0114,-0.23302 -0.008,-0.11357 -0.0145,-0.2321 -0.0195,-0.35652 -0.006,-0.23228 -0.0144,-0.42996 -0.028,-0.59322 -0.0123,-0.16234 -0.021,-0.26173 -0.0267,-0.29836 m -1.02298,3.99185 c 0.0416,-0.026 0.0698,-0.041 0.0854,-0.0468 0.0151,-0.005 0.049,-0.005 0.10068,0 0.0569,0.006 0.12166,0.0178 0.19344,0.0388 0.0727,0.0208 0.1143,0.0388 0.12442,0.0539 0.005,0.006 0.0144,0.0223 0.0272,0.051 0.0123,0.028 0.0245,0.0633 0.0346,0.10418 l 0.0468,0.1316 -0.0388,0.11724 c -0.0101,0.0302 -0.023,0.0604 -0.0388,0.0883 -0.0158,0.0289 -0.0309,0.0512 -0.046,0.0663 -0.0267,0.0309 -0.0648,0.0596 -0.11651,0.0849 -0.0517,0.0265 -0.0906,0.0396 -0.11651,0.0396 -0.0517,0 -0.13086,-0.0195 -0.23651,-0.0583 -0.10565,-0.0388 -0.16675,-0.069 -0.18185,-0.0891 -0.005,-0.0158 -0.004,-0.0245 0.004,-0.0274 0.008,-0.003 0.0173,0.002 0.0274,0.0116 0.0208,0.0158 0.0438,0.0173 0.0698,0.004 0.0257,-0.0121 0.0547,-0.0344 0.0856,-0.0653 0.025,-0.0309 0.0409,-0.0539 0.046,-0.0697 0.005,-0.0158 0.005,-0.0468 0,-0.0935 -0.005,-0.0618 -0.0153,-0.10713 -0.0309,-0.1351 -0.0151,-0.0287 -0.0388,-0.0504 -0.0697,-0.0655 -0.0361,-0.0158 -0.0512,-0.0351 -0.0468,-0.0582 0.005,-0.0237 0.0309,-0.051 0.0777,-0.0819 m 0.50395,-0.1165 c -0.0309,-0.0151 -0.0611,-0.0274 -0.0891,-0.0346 -0.0289,-0.008 -0.0685,-0.0114 -0.12019,-0.0114 -0.0725,-0.006 -0.1316,-0.004 -0.17835,0.004 -0.0466,0.008 -0.0854,0.0245 -0.11632,0.0504 -0.0309,0.0208 -0.0648,0.0532 -0.10068,0.097 -0.0361,0.0438 -0.0539,0.0762 -0.0539,0.0972 0,0.005 -0.004,0.0129 -0.0116,0.023 -0.008,0.01 -0.0193,0.0179 -0.0351,0.023 -0.0727,0.0416 -0.12148,0.079 -0.14743,0.11283 -0.026,0.0337 -0.0416,0.0812 -0.0468,0.14302 0,0.0517 0.0116,0.0928 0.0353,0.12368 0.023,0.0316 0.0733,0.0727 0.15093,0.12442 0.0675,0.0468 0.1581,0.0935 0.27166,0.13952 0.11301,0.0468 0.19639,0.0725 0.24811,0.0777 0.0668,0 0.15166,-0.0418 0.25528,-0.12369 0.10344,-0.0828 0.16326,-0.15828 0.17836,-0.2251 0.01,-0.0468 0.0158,-0.10565 0.0158,-0.17835 0,-0.0725 -0.006,-0.13215 -0.0158,-0.17817 -0.0101,-0.041 -0.0403,-0.0893 -0.0893,-0.14393 -0.0488,-0.0539 -0.0992,-0.0935 -0.15093,-0.12 m -0.89083,1.51203 c -0.0316,-0.0109 -0.069,-0.0158 -0.11283,-0.0158 -0.044,0 -0.0814,0.005 -0.11282,0.0158 -0.0561,0.0208 -0.12369,0.0639 -0.20136,0.1316 -0.0777,0.0668 -0.11651,0.11559 -0.11651,0.14651 0,0.006 -0.004,0.0158 -0.0116,0.0316 -0.007,0.0158 -0.0164,0.0282 -0.0265,0.0388 -0.026,0.0309 -0.0468,0.0683 -0.0618,0.11228 -0.0158,0.0438 -0.0287,0.10197 -0.0396,0.17393 -0.0151,0.1086 -0.0186,0.19197 -0.0114,0.24885 0.008,0.0559 0.0272,0.12645 0.0582,0.20909 0.0418,0.0979 0.0777,0.16547 0.10859,0.20136 0.0309,0.0359 0.0698,0.0539 0.11651,0.0539 0.0309,0 0.0639,0.003 0.10068,0.008 0.0359,0.005 0.0876,0.0158 0.15516,0.0309 0.0309,0.005 0.0618,-0.007 0.0928,-0.0388 0.0309,-0.0309 0.0648,-0.0799 0.10068,-0.1467 0.0366,-0.0725 0.0675,-0.15019 0.0928,-0.23301 0.026,-0.0826 0.0366,-0.13657 0.0316,-0.16234 0,-0.006 7.1e-4,-0.0144 0.004,-0.0274 0.002,-0.0129 0.007,-0.0245 0.0116,-0.0351 0.0208,-0.0252 0.0309,-0.11228 0.0309,-0.25952 0,-0.14669 -0.0101,-0.24388 -0.0309,-0.29044 -0.0208,-0.0418 -0.0475,-0.0814 -0.0812,-0.1202 -0.0339,-0.0388 -0.0663,-0.0633 -0.0964,-0.0733 m 0.046,-2.62798 c -0.046,-0.0258 -0.10492,-0.0409 -0.17468,-0.0466 -0.0697,-0.005 -0.13307,0.003 -0.18976,0.0236 -0.12884,0.046 -0.23227,0.12221 -0.30995,0.22878 -0.0777,0.10565 -0.1165,0.22345 -0.1165,0.35229 0,0.0366 0.004,0.069 0.0116,0.097 0.008,0.0287 0.0223,0.0653 0.0431,0.11283 0.0359,0.072 0.0698,0.12736 0.10068,0.1662 0.0309,0.0388 0.0799,0.0869 0.14743,0.14301 0.0928,0.0777 0.16675,0.12442 0.22068,0.14025 0.0547,0.0151 0.11504,0.007 0.18185,-0.0237 0.0361,-0.0151 0.0906,-0.0569 0.16326,-0.12369 0.0725,-0.0676 0.10859,-0.10859 0.10859,-0.12368 0,-0.006 -0.006,-0.0109 -0.0158,-0.0158 -0.0109,-0.005 -0.0203,-0.008 -0.0309,-0.008 -0.026,0 -0.0431,-0.003 -0.0504,-0.008 -0.008,-0.005 -0.0193,-0.0252 -0.0352,-0.0618 -0.0101,-0.0158 -0.0215,-0.0359 -0.0344,-0.0618 -0.013,-0.0258 -0.0245,-0.0446 -0.0353,-0.0547 -0.0151,-0.025 -0.0295,-0.0409 -0.0423,-0.0466 -0.0131,-0.005 -0.0374,-0.007 -0.0734,-0.007 -0.0725,0 -0.12571,0.007 -0.15884,0.0195 -0.0339,0.0121 -0.069,0.0344 -0.10491,0.0661 -0.0361,0.0411 -0.0591,0.0799 -0.0698,0.11577 -0.0101,0.0361 -0.005,0.0727 0.0151,0.1086 0.0208,0.0309 0.0265,0.0453 0.0158,0.0423 -0.0101,-0.002 -0.0339,-0.0216 -0.0698,-0.0582 -0.0411,-0.051 -0.0762,-0.10934 -0.10436,-0.17394 -0.0287,-0.0648 -0.048,-0.1281 -0.0582,-0.18976 0,-0.0519 0.001,-0.0885 0.004,-0.10859 0.003,-0.021 0.0166,-0.0547 0.0433,-0.10142 0.0302,-0.0618 0.0547,-0.1 0.0733,-0.11578 0.018,-0.0158 0.0633,-0.041 0.13528,-0.0769 0.0468,-0.0265 0.0834,-0.0418 0.10859,-0.0475 0.0265,-0.005 0.0596,-0.007 0.10123,-0.007 0.072,0 0.13528,0.018 0.18995,0.0547 0.0539,0.0359 0.10712,0.0928 0.1581,0.1697 0.0158,0.0317 0.0265,0.0567 0.0316,0.0777 0.005,0.0208 0.008,0.0517 0.008,0.0928 0,0.0309 -0.001,0.0676 -0.004,0.10915 -0.002,0.041 -0.006,0.0749 -0.0114,0.10068 -0.0109,0.067 -0.0109,0.10712 0,0.12019 0.0101,0.0121 0.0287,0 0.0547,-0.0353 0.025,-0.0309 0.046,-0.0698 0.0611,-0.11651 0.0158,-0.046 0.0208,-0.0826 0.0158,-0.10786 v -0.0394 c 0,-0.0151 0.003,-0.0309 0.008,-0.046 0.005,-0.026 0.004,-0.0648 -0.004,-0.11651 -0.008,-0.0517 -0.0201,-0.0928 -0.0351,-0.12369 l -0.046,-0.0848 c -0.0158,-0.0316 -0.0453,-0.0676 -0.09,-0.10933 -0.0431,-0.0416 -0.0883,-0.0747 -0.13509,-0.10068 m -1.20134,1.02318 c 0.0309,-0.005 0.0747,-0.004 0.13215,0.004 0.0569,0.007 0.095,0.0188 0.11577,0.0346 0.0101,0.005 0.0296,0.0223 0.0583,0.0503 0.028,0.0282 0.0582,0.0604 0.0891,0.0972 l 0.11651,0.11651 h -0.0936 c -0.0517,0.005 -0.0898,0.0164 -0.11651,0.0344 -0.0258,0.018 -0.0438,0.0475 -0.0539,0.0891 -0.005,0.021 -0.008,0.0376 -0.008,0.0504 0,0.0129 0.005,0.0245 0.0158,0.0352 0.005,0.0101 0.0101,0.0215 0.0151,0.0346 0.005,0.0129 0.008,0.0245 0.008,0.0344 0,0.0267 0.018,0.0547 0.0547,0.0856 0.0361,0.0309 0.072,0.049 0.10859,0.0539 0.0769,0.0158 0.0878,0.0302 0.0302,0.0431 -0.0567,0.0131 -0.13363,0.0145 -0.23228,0.004 -0.0775,-0.005 -0.15093,-0.018 -0.22068,-0.0381 -0.0698,-0.0208 -0.11725,-0.0446 -0.14375,-0.0698 -0.0517,-0.0626 -0.0834,-0.13731 -0.0963,-0.22584 -0.0131,-0.0876 -0.001,-0.16455 0.0344,-0.2321 0.0208,-0.046 0.0503,-0.09 0.0891,-0.1316 0.0388,-0.0411 0.0712,-0.0648 0.0972,-0.0698 m 0.20118,-0.1316 c -0.0258,-0.0107 -0.0661,-0.0179 -0.12001,-0.0237 -0.0539,-0.005 -0.0942,-0.002 -0.12,0.008 -0.11357,0.0418 -0.2078,0.11007 -0.28253,0.20559 -0.0756,0.0957 -0.11301,0.19271 -0.11301,0.29118 0,0.11798 0.0267,0.21498 0.0777,0.28989 0.0517,0.0747 0.1316,0.13289 0.2402,0.17468 0.0985,0.0416 0.17688,0.0661 0.23651,0.0733 0.0596,0.008 0.12516,0.004 0.19767,-0.0114 0.17615,-0.0361 0.29339,-0.0769 0.35229,-0.12368 0.0598,-0.0468 0.0893,-0.12443 0.0893,-0.23302 v -0.0856 l -0.25603,-0.27093 c -0.072,-0.0769 -0.13804,-0.14449 -0.19694,-0.20136 -0.0596,-0.0569 -0.0942,-0.0878 -0.10509,-0.0928 m -0.85973,-3.68907 c -0.021,-0.0416 -0.0403,-0.0791 -0.0583,-0.11283 -0.0178,-0.0339 -0.0302,-0.0504 -0.0352,-0.0504 -0.0101,-0.005 -0.0274,0.007 -0.0504,0.0353 -0.023,0.028 -0.0453,0.0661 -0.0653,0.11209 -0.0109,0.021 -0.023,0.0584 -0.0388,0.11227 -0.0158,0.0545 -0.0309,0.10989 -0.0468,0.16676 -0.0309,0.13952 -0.0618,0.26099 -0.0928,0.36444 -0.0316,0.10362 -0.0626,0.18847 -0.0935,0.25528 -0.0151,0.0316 -0.028,0.0611 -0.0381,0.0891 -0.0107,0.0289 -0.0158,0.046 -0.0158,0.0512 0,0.01 -0.003,0.0252 -0.008,0.046 -0.005,0.0208 -0.0129,0.0438 -0.023,0.0698 -0.0359,0.0985 -0.0611,0.23504 -0.074,0.41119 -0.0129,0.1754 -0.0136,0.34878 -0.004,0.51904 0.0153,0.18056 0.0274,0.30995 0.0346,0.38762 0.008,0.0769 0.0173,0.12148 0.0272,0.13161 0.006,0.005 0.009,0.0151 0.0116,0.0309 0.003,0.0158 0.004,0.0309 0.004,0.0468 0,0.0409 0.007,0.0906 0.0188,0.14725 0.0129,0.0569 0.0245,0.0979 0.0351,0.12368 0.005,0.0101 0.0109,0.0223 0.0158,0.0346 0.005,0.0136 0.007,0.025 0.007,0.0359 0,0.0252 0.0202,0.0611 0.0583,0.10786 0.0388,0.0468 0.0841,0.0849 0.13584,0.11651 0.026,0.0208 0.0517,0.0374 0.0777,0.0503 0.026,0.013 0.0416,0.0195 0.0467,0.0195 0.0101,0 0.028,0.004 0.0539,0.0114 0.0258,0.008 0.0539,0.0166 0.0849,0.0267 0.0366,0.0107 0.071,0.0201 0.10491,0.028 0.0339,0.008 0.0611,0.0109 0.0812,0.0109 0.0158,0 0.0316,0.002 0.0468,0.004 0.0158,0.002 0.026,0.009 0.0309,0.0195 0.0309,0.0359 0.1051,0.0582 0.22087,0.0661 0.11632,0.007 0.19473,-0.006 0.23651,-0.0431 0.0359,-0.0252 0.0725,-0.0648 0.10859,-0.11577 0.0359,-0.0519 0.0617,-0.10362 0.0775,-0.15535 0.0309,-0.0928 0.0453,-0.19418 0.0425,-0.30203 -0.003,-0.1086 -0.0215,-0.18829 -0.0584,-0.24075 -0.005,-0.0101 -0.0114,-0.023 -0.0193,-0.0381 -0.007,-0.0158 -0.0116,-0.0289 -0.0116,-0.0396 -0.005,-0.0151 -0.0114,-0.0309 -0.0193,-0.046 -0.007,-0.0158 -0.0144,-0.0287 -0.0188,-0.0388 -0.0107,-0.0101 -0.0223,-0.028 -0.0352,-0.0539 -0.0129,-0.026 -0.0272,-0.0547 -0.0431,-0.0856 -0.0158,-0.026 -0.0331,-0.0582 -0.0539,-0.097 -0.021,-0.0381 -0.041,-0.0712 -0.0618,-0.0965 -0.0208,-0.0366 -0.0403,-0.0747 -0.0583,-0.1165 -0.0179,-0.0416 -0.0381,-0.0955 -0.0582,-0.16234 -0.0158,-0.0468 -0.0324,-0.10142 -0.0502,-0.16326 -0.018,-0.0618 -0.0324,-0.11154 -0.0425,-0.14743 l -0.0309,-0.12369 c -0.0107,-0.0416 -0.0186,-0.0725 -0.0237,-0.0935 l -0.0158,-0.10768 c -0.009,-0.0418 -0.0186,-0.0777 -0.0265,-0.10859 -0.008,-0.0316 -0.009,-0.0388 -0.004,-0.0237 -0.01,-0.041 -0.023,-0.1051 -0.0388,-0.18976 -0.0151,-0.0856 -0.0302,-0.16105 -0.046,-0.22879 -0.0107,-0.0725 -0.023,-0.1408 -0.0388,-0.20559 -0.0151,-0.0641 -0.0258,-0.10418 -0.0309,-0.12001 -0.0107,-0.0151 -0.0193,-0.0346 -0.0272,-0.0583 -0.008,-0.023 -0.0116,-0.0423 -0.0116,-0.0574 -0.005,-0.0158 -0.0151,-0.0445 -0.0307,-0.0856 -0.0158,-0.0416 -0.0361,-0.0827 -0.0618,-0.12369 m -0.17909,-0.51978 c 0.006,-0.0151 0.0158,-0.0331 0.0316,-0.0539 0.0151,0 0.0403,0.023 0.0733,0.0698 0.0339,0.046 0.0561,0.0826 0.0663,0.10859 0.005,0.0158 0.0178,0.0468 0.0388,0.0928 0.0201,0.0468 0.0438,0.0928 0.0696,0.13933 0.0569,0.11375 0.0957,0.2043 0.11651,0.27185 0.0203,0.0668 0.041,0.15958 0.0618,0.27903 0.0151,0.10271 0.0374,0.21922 0.0655,0.34861 0.0287,0.12866 0.0582,0.24296 0.0891,0.34088 0.026,0.0769 0.0705,0.18829 0.13234,0.33351 0.0618,0.14448 0.11356,0.25823 0.1546,0.34087 0.0158,0.0309 0.0401,0.0812 0.0733,0.15093 0.0339,0.0698 0.0661,0.13878 0.097,0.20559 0.0316,0.067 0.0598,0.12369 0.0856,0.17044 0.026,0.046 0.041,0.072 0.0467,0.0769 0.005,0 0.0188,-0.009 0.0425,-0.0265 0.023,-0.018 0.0502,-0.0425 0.0812,-0.0734 0.0668,-0.0725 0.14227,-0.12939 0.2251,-0.17118 0.0826,-0.0409 0.16252,-0.0639 0.24001,-0.0696 0.0468,0 0.0799,0.002 0.10068,0.004 0.021,0.002 0.041,0.009 0.0618,0.0186 l -0.0151,-0.007 c 0.0208,0.0109 0.041,0.021 0.0618,0.0309 0.0201,0.0101 0.0468,0.023 0.0777,0.0388 0.046,0.026 0.11725,0.0863 0.21277,0.18204 0.0957,0.0955 0.1489,0.15884 0.15903,0.18976 0.005,0.0366 0.0156,0.0661 0.0307,0.0891 0.0158,0.0237 0.026,0.0324 0.0309,0.0274 0.006,-0.005 0.0123,-0.0324 0.0195,-0.0814 0.008,-0.0488 0.0144,-0.10491 0.0201,-0.16676 0.0151,-0.13951 0.0331,-0.2516 0.0539,-0.33719 0.021,-0.0849 0.0618,-0.19989 0.12442,-0.34511 0.0252,-0.0618 0.049,-0.11872 0.069,-0.17043 0.0208,-0.0517 0.0339,-0.0849 0.0388,-0.10069 0,-0.01 0.005,-0.0243 0.0158,-0.0423 0.0101,-0.0188 0.0208,-0.0324 0.0309,-0.0433 0.0101,-0.01 0.018,-0.0251 0.023,-0.046 0.005,-0.0208 0.0109,-0.0488 0.0158,-0.0854 0.005,-0.0309 0.0114,-0.067 0.0193,-0.10859 0.008,-0.041 0.0166,-0.0769 0.0267,-0.1086 0.0366,-0.0977 0.0653,-0.18976 0.0856,-0.27461 0.0208,-0.0856 0.0287,-0.13805 0.023,-0.15903 -0.005,-0.0107 -0.006,-0.0228 -0.004,-0.0386 0.003,-0.0151 0.009,-0.0309 0.0195,-0.0468 0.005,-0.0101 0.0129,-0.0309 0.023,-0.0619 0.0107,-0.0309 0.0208,-0.0648 0.0309,-0.10068 0.005,-0.0309 0.0144,-0.0676 0.0272,-0.10859 0.0129,-0.041 0.0245,-0.0727 0.0346,-0.0928 l -0.007,0.023 c 0.0109,-0.026 0.021,-0.0517 0.0309,-0.0777 0.0101,-0.0257 0.021,-0.0596 0.0309,-0.10068 0.0158,-0.0409 0.0353,-0.0797 0.0583,-0.11577 0.0237,-0.0366 0.0423,-0.0545 0.0582,-0.0545 0.0361,0 0.0604,0.0295 0.0734,0.0891 0.0129,0.0589 0.0302,0.21847 0.0502,0.4767 0.005,0.0517 0.0109,0.10197 0.0158,0.15093 0.005,0.049 0.0101,0.0841 0.0158,0.10418 0.005,0.0158 0.007,0.0339 0.007,0.0547 0,0.021 -0.002,0.0361 -0.007,0.0468 v 0.0583 c 0,0.028 0.002,0.0574 0.007,0.0891 0.006,0.0309 0.0116,0.095 0.0195,0.19345 0.008,0.0977 0.0164,0.20136 0.0272,0.30977 0.005,0.11375 0.0114,0.21075 0.0193,0.29063 0.008,0.0804 0.0145,0.12571 0.0195,0.13583 0.0101,0.0258 0.0201,0.10565 0.0309,0.24075 0.0101,0.13381 0.0178,0.32008 0.023,0.55806 l 0.008,0.4953 -0.0547,0.11651 c -0.0151,0.0309 -0.0294,0.0646 -0.0425,0.10068 -0.0121,0.0359 -0.0215,0.0646 -0.0265,0.0849 -0.006,0.0158 -0.0144,0.0388 -0.0274,0.0705 -0.0129,0.0309 -0.0272,0.0589 -0.0431,0.0847 -0.0359,0.0569 -0.0683,0.11946 -0.0963,0.18627 -0.0289,0.0668 -0.0433,0.11154 -0.0433,0.1316 0,0.0101 0.006,0.0309 0.0158,0.0618 0.0101,0.0317 0.023,0.0626 0.0388,0.0935 l 0.0547,0.12368 v 0.28676 c 0,0.11357 0.002,0.19566 0.007,0.24443 0.005,0.049 0.0129,0.0893 0.023,0.1202 0.0109,0.046 0.0302,0.0848 0.0584,0.1165 0.0287,0.0307 0.0661,0.0559 0.11282,0.0768 0.0409,0.0158 0.10989,0.0353 0.20486,0.0583 0.0957,0.023 0.15958,0.0351 0.18976,0.0351 0.0519,0 0.11007,0.0217 0.17486,0.0663 0.0646,0.0431 0.092,0.0782 0.0812,0.10418 0,0.0109 -0.0151,0.026 -0.046,0.046 -0.0316,0.0215 -0.0806,0.049 -0.14743,0.0856 -0.0626,0.0309 -0.13878,0.0762 -0.22933,0.13509 -0.0898,0.0604 -0.14817,0.1029 -0.17394,0.12885 -0.0101,0.01 -0.0252,0.0201 -0.0467,0.0307 -0.0201,0.0101 -0.0388,0.021 -0.0539,0.0309 -0.0359,0.0101 -0.11797,0.0519 -0.24368,0.12442 -0.12737,0.072 -0.20357,0.11577 -0.22934,0.1316 -0.005,0.0101 -0.018,0.0215 -0.0381,0.0346 -0.021,0.0129 -0.0418,0.0243 -0.0626,0.0351 -0.026,0.0101 -0.0554,0.0272 -0.0893,0.0502 -0.0337,0.023 -0.0631,0.0475 -0.0883,0.0734 -0.0267,0.0258 -0.0547,0.0503 -0.0856,0.0733 -0.0309,0.0237 -0.0569,0.0403 -0.0777,0.0512 -0.0517,0.0302 -0.0856,0.0589 -0.10068,0.0849 -0.0158,0.0257 -0.0265,0.0775 -0.0309,0.15516 -0.005,0.0828 -0.0129,0.13951 -0.023,0.17043 -0.0107,0.0309 -0.0316,0.0648 -0.0626,0.10069 -0.0157,0.0158 -0.0337,0.0388 -0.0539,0.0697 -0.0208,0.0309 -0.0416,0.0596 -0.0617,0.0856 -0.0475,0.0725 -0.0856,0.12645 -0.11651,0.16252 -0.0309,0.0359 -0.0648,0.0646 -0.10068,0.0847 -0.0418,0.0217 -0.0727,0.0304 -0.0935,0.0282 -0.0201,-0.004 -0.0438,-0.0203 -0.069,-0.051 -0.0109,-0.0153 -0.0215,-0.0282 -0.0316,-0.0388 -0.01,-0.0101 -0.0178,-0.0151 -0.023,-0.0151 -0.006,0 -0.0129,-0.003 -0.0237,-0.008 -0.01,-0.005 -0.023,-0.013 -0.0388,-0.023 -0.0201,-0.021 -0.0396,-0.0324 -0.0582,-0.0353 -0.018,-0.002 -0.0626,-0.004 -0.1351,-0.004 -0.0618,0 -0.10583,0.002 -0.1316,0.004 -0.026,0.003 -0.0445,0.009 -0.0547,0.0195 -0.0203,0.01 -0.0539,0.0287 -0.10068,0.0547 -0.046,0.025 -0.0727,0.0387 -0.0777,0.0387 -0.0517,-0.0517 -0.0977,-0.0955 -0.13952,-0.13215 -0.0359,-0.0361 -0.0762,-0.0749 -0.12,-0.11578 -0.0438,-0.0418 -0.0812,-0.0747 -0.11209,-0.10142 -0.0368,-0.0309 -0.0663,-0.0604 -0.0893,-0.0883 -0.023,-0.0289 -0.0453,-0.0663 -0.0653,-0.11301 -0.0216,-0.0359 -0.0396,-0.0705 -0.0547,-0.10418 -0.0158,-0.0339 -0.026,-0.0583 -0.0309,-0.074 -0.005,-0.021 -0.0158,-0.044 -0.0309,-0.0698 -0.0158,-0.026 -0.0316,-0.0468 -0.0467,-0.0618 -0.0101,-0.0203 -0.0223,-0.0425 -0.0351,-0.0663 -0.0131,-0.023 -0.0217,-0.0396 -0.0267,-0.0503 0,-0.0101 -0.003,-0.0202 -0.008,-0.0309 -0.005,-0.0101 -0.0109,-0.0151 -0.0151,-0.0151 -0.006,0 -0.0173,-0.006 -0.0359,-0.0203 -0.018,-0.0121 -0.0396,-0.0295 -0.0655,-0.0495 -0.0567,-0.0468 -0.13086,-0.0999 -0.22068,-0.15884 -0.0905,-0.0598 -0.16399,-0.10289 -0.22142,-0.12811 -0.0252,-0.0107 -0.0596,-0.0302 -0.10417,-0.0582 -0.044,-0.0287 -0.0814,-0.0582 -0.11228,-0.0891 -0.11853,-0.0928 -0.21056,-0.164 -0.27535,-0.2137 -0.0648,-0.0488 -0.12515,-0.0883 -0.18184,-0.12 -0.0309,-0.0201 -0.0655,-0.0453 -0.1051,-0.0733 -0.0387,-0.0282 -0.071,-0.0554 -0.097,-0.0821 -0.0258,-0.0201 -0.0489,-0.0396 -0.069,-0.0574 -0.0208,-0.018 -0.0337,-0.0274 -0.0388,-0.0274 -0.006,0 -0.0114,-0.005 -0.0193,-0.0151 -0.008,-0.0107 -0.0143,-0.0208 -0.0203,-0.0316 -0.009,-0.0151 -0.0201,-0.0295 -0.0302,-0.0423 -0.0107,-0.0129 -0.0186,-0.0223 -0.023,-0.0272 -0.0216,-0.0151 -0.0302,-0.0346 -0.028,-0.0576 0.004,-0.0237 0.0144,-0.0403 0.0351,-0.051 0.0109,-0.004 0.0433,-0.0101 0.0972,-0.0151 0.0539,-0.005 0.12221,-0.0101 0.20559,-0.0151 0.13363,-0.006 0.21498,-0.009 0.24369,-0.0123 0.0287,-0.002 0.0532,-0.0136 0.0734,-0.0344 0.0157,-0.0109 0.0302,-0.021 0.0431,-0.0309 0.0129,-0.0109 0.0215,-0.0158 0.0265,-0.0158 0.0316,0 0.0742,-0.0497 0.12811,-0.14743 0.0547,-0.0985 0.0891,-0.18829 0.10491,-0.27111 0.0101,-0.0567 0.0101,-0.1351 0,-0.23652 -0.0101,-0.10068 -0.0339,-0.22565 -0.0698,-0.37603 -0.0208,-0.0977 -0.0388,-0.16896 -0.0547,-0.21277 -0.0151,-0.0438 -0.0359,-0.0784 -0.0618,-0.10491 -0.0107,-0.0101 -0.0193,-0.0245 -0.0265,-0.0425 -0.009,-0.0179 -0.0116,-0.0344 -0.0116,-0.0503 -0.006,-0.0203 -0.0121,-0.0468 -0.0201,-0.0777 -0.007,-0.0309 -0.0195,-0.0596 -0.0346,-0.0848 -0.0258,-0.0676 -0.0559,-0.16897 -0.0891,-0.30627 -0.0339,-0.13731 -0.0582,-0.26468 -0.074,-0.38395 -0.0101,-0.0826 -0.0166,-0.15737 -0.0195,-0.22436 -0.002,-0.0676 -7.1e-4,-0.16602 0.004,-0.29468 0.005,-0.18627 0.0151,-0.32799 0.0309,-0.42646 0.0151,-0.0977 0.0468,-0.24296 0.0933,-0.4342 l -0.0624,0.28695 c 0.0158,-0.067 0.0351,-0.14467 0.0582,-0.23228 0.023,-0.0885 0.0582,-0.23799 0.10418,-0.45021 0.0109,-0.025 0.0202,-0.0524 0.0274,-0.0812 0.008,-0.028 0.0144,-0.0475 0.0193,-0.0582 0.005,-0.0203 0.0158,-0.0554 0.0309,-0.10436 0.0158,-0.0495 0.049,-0.15093 0.10142,-0.30627 0.0151,-0.051 0.0331,-0.10565 0.0539,-0.16252 0.0208,-0.0567 0.0359,-0.0985 0.0468,-0.12424 0.0151,-0.026 0.028,-0.0554 0.0381,-0.0893 0.0109,-0.0329 0.0188,-0.0582 0.0237,-0.0733 0.005,-0.0208 0.0114,-0.0425 0.0193,-0.0663 0.008,-0.023 0.0144,-0.0394 0.0188,-0.0503"
       style="fill:#21201d;fill-opacity:1;fill-rule:nonzero;stroke:none;stroke-width:0.184057"
       id="path560" />
  </g>
</svg>
