<?xml version="1.0" encoding="UTF-8" standalone="no"?>
<!-- Created with Inkscape (http://www.inkscape.org/) -->

<svg
   width="7.8583813mm"
   height="5.4796953mm"
   viewBox="0 0 7.8583813 5.4796953"
   version="1.1"
   id="svg2583"
   inkscape:version="1.1.2 (0a00cf5339, 2022-02-04)"
   sodipodi:docname="dogs_of_war.svg"
   xmlns:inkscape="http://www.inkscape.org/namespaces/inkscape"
   xmlns:sodipodi="http://sodipodi.sourceforge.net/DTD/sodipodi-0.dtd"
   xmlns="http://www.w3.org/2000/svg"
   xmlns:svg="http://www.w3.org/2000/svg">
  <sodipodi:namedview
     id="namedview2585"
     pagecolor="#ffffff"
     bordercolor="#666666"
     borderopacity="1.0"
     inkscape:pageshadow="2"
     inkscape:pageopacity="0.0"
     inkscape:pagecheckerboard="0"
     inkscape:document-units="mm"
     showgrid="false"
     inkscape:zoom="0.64052329"
     inkscape:cx="-654.15264"
     inkscape:cy="128.80094"
     inkscape:window-width="2560"
     inkscape:window-height="1376"
     inkscape:window-x="0"
     inkscape:window-y="0"
     inkscape:window-maximized="1"
     inkscape:current-layer="layer1" />
  <defs
     id="defs2580">
    <clipPath
       clipPathUnits="userSpaceOnUse"
       id="clipPath248">
      <path
         d="M 784.707,1057 H 828 v 31 h -43.293 z"
         id="path246" />
    </clipPath>
  </defs>
  <g
     inkscape:label="Layer 1"
     inkscape:groupmode="layer"
     id="layer1"
     transform="translate(-278.20016,-114.57309)">
    <g
       id="g570"
       transform="matrix(0.18405616,0,0,0.18405792,133.77,-80.131753)">
      <g
         clip-path="url(#clipPath248)"
         id="g568">
        <path
           d="m 823.305,1065.988 c 0,-0.14 -0.035,-0.218 -0.102,-0.23 -0.07,-0.016 -0.207,0.035 -0.402,0.144 -0.196,0.086 -0.301,0.141 -0.317,0.172 -0.011,0.028 0.024,0.082 0.106,0.168 0.055,0.028 0.14,0.07 0.254,0.125 0.109,0 0.215,-0.043 0.316,-0.125 0.098,-0.086 0.145,-0.168 0.145,-0.254 m -9.094,3.285 c 0,-0.054 0.016,-0.113 0.043,-0.168 0.785,0.114 1.445,0.196 1.976,0.25 0.536,0.086 1.082,0.165 1.645,0.235 0.559,0.07 0.969,0.121 1.219,0.148 0.285,0.024 0.519,0.063 0.715,0.106 0.199,0.039 0.308,0.062 0.339,0.062 0.114,0.082 0.161,0.18 0.149,0.293 -0.016,0.113 -0.078,0.168 -0.192,0.168 -0.054,0 -0.14,0.035 -0.253,0.106 -0.11,0.07 -0.223,0.148 -0.336,0.234 -0.899,0.727 -1.5,1.203 -1.809,1.43 -0.312,0.226 -0.492,0.351 -0.547,0.379 -0.086,0.054 -0.437,-0.016 -1.055,-0.211 -0.617,-0.196 -1.023,-0.364 -1.218,-0.504 -0.059,-0.059 -0.121,-0.102 -0.192,-0.125 -0.07,-0.031 -0.136,-0.043 -0.187,-0.043 -0.086,0 -0.137,-0.024 -0.149,-0.067 -0.015,-0.039 -0.023,-0.132 -0.023,-0.273 0,-0.109 0.008,-0.223 0.023,-0.336 0.012,-0.113 0.036,-0.211 0.063,-0.297 0.027,-0.055 0.035,-0.152 0.023,-0.293 -0.019,-0.14 -0.05,-0.281 -0.109,-0.422 -0.027,-0.136 -0.055,-0.269 -0.082,-0.398 -0.027,-0.129 -0.043,-0.219 -0.043,-0.274 m -1.137,5.813 0.125,-0.125 c 0.059,0 0.196,0.059 0.422,0.187 0.227,0.125 0.379,0.231 0.465,0.317 0.055,0.055 0.125,0.101 0.207,0.144 0.086,0.043 0.168,0.079 0.254,0.106 0.086,0 0.148,0.023 0.187,0.062 0.043,0.043 0.067,0.078 0.067,0.106 0,0.027 -0.043,0.125 -0.125,0.297 -0.086,0.168 -0.199,0.351 -0.34,0.547 -0.141,0.222 -0.266,0.433 -0.379,0.632 -0.109,0.196 -0.168,0.321 -0.168,0.379 -0.027,0.082 -0.055,0.145 -0.086,0.188 -0.027,0.043 -0.055,0.066 -0.082,0.066 -0.055,0 -0.238,0.25 -0.547,0.754 -0.308,0.508 -0.519,0.899 -0.633,1.18 -0.168,0.476 -0.457,1.035 -0.863,1.664 -0.406,0.633 -0.625,0.863 -0.652,0.695 0,-0.027 0.062,-0.258 0.191,-0.695 0.125,-0.434 0.274,-0.934 0.442,-1.496 0.195,-0.559 0.371,-1.106 0.527,-1.641 0.152,-0.535 0.242,-0.898 0.273,-1.094 0.082,-0.367 0.2,-0.808 0.356,-1.328 0.152,-0.519 0.273,-0.836 0.359,-0.945 m -0.59,-1.434 c 0,-0.054 -0.035,-0.09 -0.105,-0.105 -0.07,-0.012 -0.219,0.01 -0.445,0.062 -0.11,0.028 -0.243,0.051 -0.399,0.067 -0.152,0.012 -0.273,0.019 -0.355,0.019 -0.196,0 -0.317,0.028 -0.36,0.082 -0.043,0.059 0.02,0.118 0.192,0.168 0.281,0.059 0.593,0.059 0.945,0 0.352,-0.05 0.527,-0.152 0.527,-0.293 m 0,-2.359 c -0.113,-0.25 -0.316,-0.309 -0.613,-0.168 -0.293,0.145 -0.566,0.395 -0.82,0.758 -0.082,0.14 -0.172,0.262 -0.274,0.359 -0.097,0.098 -0.175,0.16 -0.23,0.192 -0.141,0.054 -0.211,0.144 -0.211,0.273 0,0.125 0.07,0.215 0.211,0.27 0.141,0.085 0.394,0.085 0.758,0 0.363,-0.082 0.617,-0.18 0.757,-0.293 0.141,-0.141 0.262,-0.368 0.36,-0.676 0.098,-0.309 0.117,-0.543 0.062,-0.715 m 0.211,-1.219 c -0.14,-0.113 -0.254,-0.191 -0.336,-0.23 -0.086,-0.043 -0.242,-0.051 -0.464,-0.024 -0.731,0 -1.293,0.149 -1.684,0.442 -0.391,0.297 -0.703,0.781 -0.926,1.453 -0.113,0.394 -0.367,1.578 -0.758,3.558 -0.394,1.981 -0.66,3.461 -0.8,4.446 -0.059,0.277 -0.09,0.539 -0.106,0.777 -0.016,0.238 -0.019,0.371 -0.019,0.399 0.027,0.085 0.054,0.128 0.082,0.128 0.027,0 0.086,-0.043 0.168,-0.128 0.058,-0.055 0.105,-0.145 0.148,-0.274 0.043,-0.125 0.078,-0.273 0.105,-0.441 0.028,-0.172 0.055,-0.336 0.086,-0.504 0.028,-0.172 0.051,-0.297 0.082,-0.383 0.086,-0.391 0.247,-1.121 0.485,-2.188 0.238,-1.066 0.414,-1.894 0.527,-2.484 0.195,-1.094 0.391,-1.875 0.586,-2.336 0.199,-0.465 0.492,-0.867 0.887,-1.199 0.336,-0.34 0.668,-0.559 0.988,-0.652 0.324,-0.098 0.598,-0.082 0.824,0.058 0.055,0.059 0.11,0.086 0.164,0.086 0.059,0 0.102,-0.027 0.129,-0.086 0.055,-0.023 0.071,-0.074 0.039,-0.144 -0.023,-0.071 -0.097,-0.164 -0.207,-0.274 m -3.707,12.844 c -0.136,-0.086 -0.23,-0.121 -0.273,-0.106 -0.043,0.012 -0.176,0.09 -0.399,0.231 -0.254,0.141 -0.429,0.301 -0.527,0.484 -0.098,0.184 -0.23,0.582 -0.398,1.2 -0.032,0.168 0.011,0.296 0.125,0.378 0.113,0.086 0.293,0.125 0.546,0.125 0.336,0 0.606,-0.082 0.801,-0.25 0.196,-0.168 0.321,-0.46 0.379,-0.886 0.086,-0.364 0.106,-0.629 0.063,-0.801 -0.043,-0.168 -0.145,-0.293 -0.317,-0.375 m -0.461,-10.445 c 0,-0.028 -0.218,-0.047 -0.656,-0.063 -0.433,-0.012 -1.004,-0.023 -1.703,-0.023 h -2.316 v 0.551 l 2.277,-0.043 c 0.922,0 1.535,-0.016 1.828,-0.043 0.297,-0.028 0.457,-0.071 0.484,-0.125 0.028,-0.028 0.051,-0.071 0.063,-0.125 0.016,-0.059 0.023,-0.102 0.023,-0.129 m -4.339,10.652 c -0.168,-0.109 -0.344,-0.176 -0.524,-0.187 -0.184,-0.012 -0.332,0.023 -0.445,0.105 -0.141,0.082 -0.207,0.316 -0.207,0.695 0,0.379 0.066,0.68 0.207,0.907 0.113,0.25 0.367,0.433 0.758,0.546 0.394,0.11 0.675,0.086 0.843,-0.086 0.141,-0.14 0.133,-0.46 -0.019,-0.968 -0.156,-0.504 -0.36,-0.844 -0.613,-1.012 m -1.262,-17.937 c 0.422,-0.055 1.578,-0.086 3.472,-0.086 1.895,0 2.969,0.031 3.223,0.086 0.25,0.058 0.469,0.148 0.652,0.273 0.184,0.129 0.344,0.289 0.485,0.484 0.082,0.141 0.129,0.274 0.129,0.403 0,0.125 -0.032,0.371 -0.086,0.738 -0.059,0.418 -0.149,0.785 -0.274,1.094 -0.129,0.308 -0.289,0.574 -0.484,0.797 l -0.254,0.296 -1.43,-0.085 c -0.73,-0.055 -1.652,-0.071 -2.757,-0.04 -1.11,0.028 -1.848,0.071 -2.215,0.125 -0.364,0.055 -0.68,-0.027 -0.946,-0.253 -0.265,-0.227 -0.468,-0.618 -0.609,-1.176 -0.168,-0.535 -0.262,-0.895 -0.277,-1.074 -0.012,-0.184 0.023,-0.418 0.109,-0.696 0.109,-0.312 0.25,-0.519 0.418,-0.633 0.172,-0.113 0.453,-0.195 0.844,-0.253 m -1.727,6.613 c -0.308,-0.336 -0.527,-0.551 -0.652,-0.633 -0.129,-0.082 -0.262,-0.125 -0.402,-0.125 -0.223,0 -0.364,0.031 -0.418,0.105 -0.059,0.071 -0.086,0.231 -0.086,0.485 0,0.191 0.027,0.344 0.086,0.441 0.054,0.098 0.168,0.231 0.332,0.399 0.394,0.367 0.8,0.578 1.226,0.632 0.418,0.055 0.629,-0.07 0.629,-0.378 0,-0.059 -0.07,-0.176 -0.211,-0.36 -0.137,-0.183 -0.308,-0.371 -0.504,-0.566 m -0.801,1.808 c -0.113,-0.027 -0.238,-0.054 -0.378,-0.082 -0.141,-0.027 -0.25,-0.058 -0.336,-0.086 -0.141,-0.027 -0.219,-0.035 -0.231,-0.023 -0.015,0.016 0.02,0.082 0.102,0.191 0.172,0.227 0.371,0.368 0.613,0.422 0.238,0.055 0.625,0.028 1.156,-0.086 0.227,-0.05 0.317,-0.109 0.278,-0.168 -0.047,-0.054 -0.18,-0.082 -0.403,-0.082 -0.113,0 -0.246,-0.01 -0.398,-0.019 -0.156,-0.016 -0.289,-0.039 -0.403,-0.067 m 1.391,-3.621 c -0.449,-0.195 -0.984,-0.246 -1.601,-0.144 -0.618,0.097 -0.926,0.301 -0.926,0.605 0,0.059 0.023,0.094 0.062,0.11 0.043,0.011 0.106,-0.01 0.192,-0.067 0.277,-0.054 0.589,-0.066 0.925,-0.043 0.336,0.031 0.618,0.102 0.844,0.211 0.195,0.117 0.344,0.242 0.442,0.383 0.097,0.141 0.273,0.449 0.527,0.926 0.137,0.336 0.266,0.652 0.379,0.945 0.109,0.297 0.179,0.516 0.207,0.652 0,0.145 0.039,0.368 0.105,0.676 0.071,0.309 0.149,0.617 0.231,0.926 0.086,0.281 0.156,0.555 0.211,0.824 0.058,0.266 0.086,0.442 0.086,0.524 0,0.168 0.179,1.031 0.547,2.589 0.367,1.559 0.578,2.407 0.632,2.547 0.055,0.086 0.055,0.133 0,0.149 -0.054,0.015 -0.226,0.019 -0.507,0.019 -0.278,0 -0.446,0.01 -0.504,0.024 -0.055,0.011 -0.039,0.051 0.043,0.105 0.25,0.25 0.828,0.418 1.726,0.504 0.899,0.082 1.656,0.055 2.274,-0.086 0.644,-0.168 1.011,-0.293 1.093,-0.375 0.086,-0.086 -0.097,-0.156 -0.547,-0.211 -0.195,0 -0.316,-0.015 -0.359,-0.043 -0.039,-0.027 -0.062,-0.086 -0.062,-0.172 0.027,-0.164 -0.012,-0.242 -0.125,-0.23 -0.114,0.016 -0.168,0.105 -0.168,0.277 -0.028,0.196 -0.125,0.321 -0.293,0.379 -0.172,0.055 -0.52,0.067 -1.055,0.039 -0.254,0 -0.492,-0.011 -0.715,-0.039 -0.226,-0.031 -0.351,-0.058 -0.379,-0.086 -0.031,-0.027 -0.058,-0.097 -0.086,-0.211 -0.027,-0.109 -0.054,-0.238 -0.086,-0.379 -0.023,-0.308 -0.125,-0.906 -0.293,-1.789 -0.168,-0.882 -0.308,-1.566 -0.421,-2.043 -0.028,-0.195 -0.083,-0.496 -0.168,-0.906 -0.086,-0.406 -0.153,-0.805 -0.211,-1.199 l -0.039,-0.293 c -0.118,-0.676 -0.243,-1.32 -0.383,-1.938 -0.141,-0.617 -0.278,-1.168 -0.418,-1.644 -0.086,-0.281 -0.239,-0.566 -0.465,-0.859 -0.227,-0.297 -0.461,-0.516 -0.715,-0.657 m -3.793,5.391 c 0.145,-0.109 0.27,-0.211 0.383,-0.293 0.109,-0.086 0.18,-0.125 0.207,-0.125 0.086,0 0.199,0.156 0.34,0.48 0.14,0.325 0.433,1.075 0.883,2.254 0.394,1.094 0.695,1.914 0.906,2.465 0.211,0.547 0.344,0.848 0.398,0.902 0.059,0.086 0.141,0.333 0.254,0.739 0.113,0.406 0.153,0.625 0.125,0.652 -0.027,0.027 -0.054,0.043 -0.082,0.043 -0.027,0 -0.058,-0.016 -0.086,-0.043 -0.054,-0.027 -0.211,-0.246 -0.465,-0.652 -0.25,-0.406 -0.461,-0.75 -0.629,-1.031 -0.085,-0.2 -0.335,-0.59 -0.757,-1.18 -0.422,-0.59 -0.676,-0.926 -0.758,-1.012 -0.031,-0.027 -0.055,-0.062 -0.086,-0.105 -0.027,-0.039 -0.043,-0.09 -0.043,-0.149 0,-0.082 -0.18,-0.426 -0.543,-1.031 -0.367,-0.602 -0.621,-0.977 -0.758,-1.113 -0.086,-0.114 -0.129,-0.211 -0.129,-0.297 0,-0.082 0.055,-0.125 0.168,-0.125 0.059,0 0.149,-0.035 0.274,-0.106 0.129,-0.07 0.261,-0.16 0.398,-0.273 m -1.344,-6.191 c 0.141,-0.055 0.371,-0.083 0.696,-0.083 0.32,0 0.523,0.028 0.609,0.083 0.055,0.031 0.078,0.085 0.063,0.167 -0.012,0.086 -0.063,0.227 -0.149,0.422 -0.027,0.141 -0.07,0.309 -0.125,0.508 -0.055,0.195 -0.098,0.375 -0.129,0.547 0,0.141 -0.019,0.273 -0.062,0.398 -0.039,0.125 -0.075,0.219 -0.102,0.274 -0.058,0.086 -0.34,0.262 -0.844,0.527 -0.507,0.27 -0.816,0.403 -0.925,0.403 -0.032,0 -0.086,0.011 -0.168,0.039 -0.086,0.027 -0.157,0.07 -0.215,0.129 -0.11,0.054 -0.207,0.066 -0.289,0.043 -0.086,-0.032 -0.297,-0.184 -0.633,-0.465 -0.367,-0.336 -0.789,-0.696 -1.266,-1.075 -0.476,-0.378 -0.812,-0.656 -1.011,-0.82 -0.055,-0.058 -0.098,-0.113 -0.125,-0.168 -0.028,-0.058 -0.028,-0.097 0,-0.129 0.027,0 0.156,-0.019 0.378,-0.062 0.227,-0.043 0.493,-0.078 0.801,-0.106 0.278,-0.058 0.574,-0.105 0.883,-0.144 0.313,-0.047 0.535,-0.082 0.676,-0.11 0.14,-0.054 0.312,-0.105 0.527,-0.148 0.211,-0.039 0.41,-0.063 0.61,-0.063 0.168,-0.027 0.336,-0.054 0.503,-0.082 0.168,-0.027 0.266,-0.054 0.297,-0.085 m -11.918,-10.739 c -0.058,-0.504 -0.023,-0.691 0.106,-0.566 0.125,0.125 0.301,0.512 0.527,1.156 0.25,0.785 0.461,1.387 0.629,1.793 0.172,0.406 0.383,0.805 0.633,1.199 l -0.043,-0.086 c 0.086,0.114 0.156,0.219 0.211,0.317 0.055,0.097 0.129,0.218 0.211,0.359 0.027,0.027 0.086,0.109 0.168,0.25 0.086,0.141 0.168,0.281 0.254,0.422 0.199,0.367 0.527,0.789 0.988,1.266 0.465,0.476 0.809,0.757 1.035,0.839 0.699,0.282 1.438,0.465 2.207,0.547 0.774,0.086 2.113,0.129 4.024,0.129 h 2.863 c 0.027,0 0.047,0.047 0.062,0.145 0.012,0.097 0.008,0.273 -0.023,0.527 v 0.527 c 0,0.125 0.031,0.204 0.086,0.231 0.031,0 0.051,0.027 0.062,0.086 0.016,0.055 0.024,0.109 0.024,0.168 0,0.054 0.019,0.125 0.062,0.211 0.039,0.082 0.09,0.168 0.149,0.25 l -0.043,-0.039 c 0.054,0.082 0.113,0.168 0.168,0.25 0.054,0.086 0.125,0.183 0.211,0.297 0.082,0.168 0.246,0.316 0.484,0.441 0.238,0.125 0.387,0.148 0.441,0.062 0.028,-0.027 0.028,-0.089 0,-0.187 -0.027,-0.102 -0.113,-0.219 -0.253,-0.359 -0.309,-0.422 -0.532,-0.86 -0.672,-1.305 -0.141,-0.449 -0.157,-0.828 -0.043,-1.137 0.086,-0.222 0.195,-0.379 0.34,-0.465 0.136,-0.086 0.418,-0.14 0.839,-0.168 l 0.672,-0.043 v 1.141 c 0,0.672 0.063,1.199 0.192,1.578 0.125,0.375 0.332,0.723 0.609,1.031 l 0.379,0.336 1.852,0.039 c 0.507,0.032 1.148,0.047 1.917,0.047 0.774,0 1.442,-0.015 2,-0.047 l 2.149,-0.039 0.336,-0.336 c 0.254,-0.254 0.441,-0.57 0.57,-0.949 0.125,-0.379 0.203,-0.836 0.231,-1.367 0,-0.254 -0.008,-0.492 -0.02,-0.715 -0.016,-0.226 -0.035,-0.383 -0.066,-0.465 l -0.082,-0.254 0.547,0.043 c 0.39,0.028 0.671,0.114 0.843,0.254 0.164,0.137 0.266,0.336 0.293,0.586 0.055,0.309 0.051,0.684 -0.019,1.117 -0.074,0.438 -0.164,0.723 -0.274,0.864 -0.058,0.086 -0.109,0.168 -0.148,0.254 -0.043,0.086 -0.063,0.14 -0.063,0.168 0,0.027 -0.007,0.062 -0.023,0.105 -0.012,0.043 -0.035,0.078 -0.063,0.105 -0.054,0.028 -0.07,0.079 -0.043,0.149 0.032,0.07 0.098,0.105 0.211,0.105 0.086,0 0.254,-0.203 0.508,-0.609 0.25,-0.41 0.379,-0.668 0.379,-0.781 0,-0.055 0.02,-0.133 0.063,-0.235 0.039,-0.097 0.074,-0.187 0.101,-0.273 0.059,-0.109 0.094,-0.219 0.11,-0.313 0.011,-0.097 -0.008,-0.23 -0.067,-0.398 -0.023,-0.113 -0.047,-0.227 -0.062,-0.34 -0.012,-0.113 -0.008,-0.183 0.019,-0.211 0.031,-0.054 0.262,-0.09 0.699,-0.105 0.434,-0.016 1.297,-0.02 2.586,-0.02 1.856,0 3.153,-0.043 3.899,-0.129 0.742,-0.082 1.379,-0.25 1.914,-0.504 0.308,-0.168 0.547,-0.324 0.715,-0.464 0.172,-0.141 0.437,-0.418 0.8,-0.84 0.45,-0.563 0.907,-1.242 1.372,-2.043 0.461,-0.801 0.691,-1.34 0.691,-1.621 0,-0.086 0.016,-0.16 0.043,-0.231 0.027,-0.07 0.059,-0.105 0.086,-0.105 0.082,-0.059 0.211,-0.254 0.379,-0.59 0.168,-0.336 0.308,-0.703 0.422,-1.094 0.082,-0.367 0.16,-0.547 0.23,-0.547 0.07,0 0.09,0.168 0.063,0.504 -0.114,0.926 -0.274,1.867 -0.485,2.821 -0.211,0.957 -0.398,1.585 -0.57,1.898 -0.055,0.109 -0.125,0.266 -0.207,0.461 -0.086,0.195 -0.156,0.379 -0.211,0.547 -0.086,0.195 -0.191,0.422 -0.316,0.676 -0.125,0.25 -0.247,0.46 -0.36,0.628 -0.418,0.731 -0.875,1.293 -1.367,1.688 -0.492,0.391 -1.133,0.715 -1.918,0.965 -0.727,0.226 -1.484,0.379 -2.273,0.465 -0.786,0.082 -1.938,0.152 -3.454,0.211 -1.57,0.027 -2.429,0.066 -2.566,0.125 -0.141,0.058 -0.129,0.351 0.039,0.886 0.086,0.25 0.129,0.453 0.129,0.61 0,0.152 -0.043,0.457 -0.129,0.902 -0.055,0.309 -0.144,0.668 -0.273,1.074 -0.125,0.41 -0.285,0.879 -0.481,1.414 -0.172,0.422 -0.312,0.813 -0.422,1.176 -0.113,0.367 -0.168,0.59 -0.168,0.676 0,0.14 -0.183,0.808 -0.55,2 -0.364,1.191 -0.645,2.027 -0.84,2.504 -0.028,0.113 -0.067,0.23 -0.106,0.359 -0.043,0.129 -0.062,0.215 -0.062,0.274 0,0.058 -0.024,0.148 -0.067,0.273 -0.039,0.125 -0.089,0.246 -0.144,0.359 -0.113,0.227 -0.168,0.457 -0.168,0.696 0,0.238 0.07,0.539 0.211,0.906 0.109,0.418 0.07,0.91 -0.129,1.473 -0.195,0.558 -0.504,1.039 -0.926,1.429 -0.195,0.196 -0.32,0.336 -0.379,0.422 -0.054,0.086 -0.07,0.195 -0.039,0.336 0.024,0.086 0.035,0.168 0.016,0.254 -0.012,0.086 -0.059,0.168 -0.145,0.25 -0.054,0.086 -0.097,0.164 -0.129,0.234 -0.023,0.071 -0.039,0.118 -0.039,0.149 0,0.14 -0.035,0.144 -0.105,0.019 -0.07,-0.125 -0.133,-0.316 -0.188,-0.566 -0.086,-0.34 -0.199,-0.555 -0.34,-0.652 -0.14,-0.098 -0.308,-0.094 -0.503,0.015 -0.114,0.059 -0.653,0.102 -1.622,0.129 -0.968,0.027 -1.621,0.016 -1.96,-0.043 -0.11,-0.027 -0.18,-0.019 -0.211,0.024 -0.024,0.043 -0.055,0.148 -0.082,0.316 -0.028,0.195 -0.082,0.383 -0.168,0.566 -0.082,0.184 -0.168,0.274 -0.254,0.274 -0.028,0 -0.043,-0.02 -0.043,-0.063 v -0.148 c 0.058,-0.195 0.031,-0.434 -0.082,-0.715 -0.11,-0.281 -0.309,-0.562 -0.59,-0.844 -0.395,-0.445 -0.633,-0.769 -0.715,-0.968 -0.086,-0.196 -0.129,-0.602 -0.129,-1.219 0,-0.309 0.008,-0.59 0.024,-0.844 0.015,-0.254 0.035,-0.422 0.062,-0.504 0.027,-0.086 -0.008,-0.289 -0.105,-0.609 -0.098,-0.324 -0.301,-0.891 -0.61,-1.707 -0.226,-0.563 -0.457,-1.153 -0.695,-1.77 -0.238,-0.617 -0.402,-1.078 -0.488,-1.39 -0.11,-0.309 -0.235,-0.629 -0.375,-0.965 -0.141,-0.34 -0.239,-0.594 -0.297,-0.758 -0.278,-0.617 -0.528,-1.231 -0.735,-1.836 -0.211,-0.602 -0.359,-1.086 -0.441,-1.449 -0.031,-0.199 -0.008,-0.5 0.062,-0.906 0.071,-0.407 0.176,-0.852 0.313,-1.329 0.117,-0.281 0.172,-0.468 0.172,-0.566 0,-0.098 -0.031,-0.16 -0.086,-0.191 -0.027,-0.028 -0.309,-0.051 -0.844,-0.063 -0.531,-0.016 -1.164,-0.019 -1.894,-0.019 -0.7,0 -1.368,-0.016 -2,-0.043 -0.633,-0.028 -1.043,-0.059 -1.239,-0.086 l -1.351,-0.168 c -0.364,-0.055 -0.84,-0.196 -1.43,-0.422 -0.59,-0.223 -0.996,-0.418 -1.219,-0.59 -0.254,-0.168 -0.523,-0.391 -0.8,-0.672 -0.286,-0.281 -0.493,-0.519 -0.633,-0.715 -0.196,-0.281 -0.5,-0.832 -0.907,-1.644 -0.406,-0.813 -0.613,-1.262 -0.613,-1.348 0,-0.027 -0.015,-0.117 -0.062,-0.269 -0.039,-0.157 -0.09,-0.332 -0.145,-0.528 -0.058,-0.199 -0.125,-0.465 -0.211,-0.801 -0.086,-0.339 -0.156,-0.632 -0.211,-0.882 -0.027,-0.282 -0.07,-0.539 -0.129,-0.782 -0.054,-0.238 -0.097,-0.382 -0.125,-0.441 0,-0.086 -0.011,-0.211 -0.039,-0.379 -0.031,-0.168 -0.058,-0.336 -0.086,-0.508"
           style="fill:#21201d;fill-opacity:1;fill-rule:nonzero;stroke:none"
           id="path566" />
      </g>
    </g>
  </g>
</svg>
