<?xml version="1.0" encoding="UTF-8" standalone="no"?>
<!-- Created with Inkscape (http://www.inkscape.org/) -->

<svg
   width="6.2939048mm"
   height="7.3984051mm"
   viewBox="0 0 6.2939048 7.3984051"
   version="1.1"
   id="svg1580"
   inkscape:version="1.1.2 (0a00cf5339, 2022-02-04)"
   sodipodi:docname="globetrotting.svg"
   xmlns:inkscape="http://www.inkscape.org/namespaces/inkscape"
   xmlns:sodipodi="http://sodipodi.sourceforge.net/DTD/sodipodi-0.dtd"
   xmlns="http://www.w3.org/2000/svg"
   xmlns:svg="http://www.w3.org/2000/svg">
  <sodipodi:namedview
     id="namedview1582"
     pagecolor="#ffffff"
     bordercolor="#666666"
     borderopacity="1.0"
     inkscape:pageshadow="2"
     inkscape:pageopacity="0.0"
     inkscape:pagecheckerboard="0"
     inkscape:document-units="mm"
     showgrid="false"
     inkscape:zoom="0.64052329"
     inkscape:cx="-907.07084"
     inkscape:cy="617.46389"
     inkscape:window-width="2560"
     inkscape:window-height="1376"
     inkscape:window-x="0"
     inkscape:window-y="0"
     inkscape:window-maximized="1"
     inkscape:current-layer="layer1" />
  <defs
     id="defs1577" />
  <g
     inkscape:label="Layer 1"
     inkscape:groupmode="layer"
     id="layer1"
     transform="translate(-345.07457,14.852199)">
    <path
       d="m 351.12506,-11.514662 c -0.0109,-0.02724 -0.0381,-0.03515 -0.0806,-0.02448 -0.0423,0.01086 -0.11779,0.04031 -0.22491,0.08853 -0.17688,0.08632 -0.31492,0.150191 -0.41413,0.192708 -0.0994,0.04307 -0.16252,0.06755 -0.18921,0.07252 -0.0166,0.0059 -0.0309,0.01233 -0.0445,0.02025 -0.0129,0.0079 -0.023,0.01712 -0.028,0.02797 -0.005,0.005 -0.0101,0.03387 -0.0158,0.08485 -0.006,0.05098 -0.0138,0.108594 -0.0245,0.172462 -0.0158,0.198599 -0.041,0.358913 -0.0762,0.4826 -0.0346,0.122951 -0.092,0.270934 -0.17264,0.4428435 -0.0215,0.042333 -0.0401,0.082642 -0.0567,0.1200059 -0.0158,0.037364 -0.0237,0.058898 -0.0237,0.064788 0,0.042333 0.0589,0.034417 0.17687,-0.024479 0.1178,-0.058899 0.22492,-0.1345467 0.32137,-0.2251024 0.0913,-0.08559 0.19841,-0.199888 0.32209,-0.341428 0.12295,-0.142461 0.2113,-0.253816 0.26523,-0.334433 0.0591,-0.0854 0.12148,-0.232834 0.18921,-0.442107 0.0668,-0.208538 0.092,-0.334986 0.0762,-0.377503 m -1.062,-2.324467 c -0.0265,-0.01583 -0.0502,-0.03092 -0.0718,-0.04381 -0.0217,-0.01362 -0.0375,-0.02006 -0.049,-0.02006 -0.0316,0 -0.13878,0.05393 -0.32136,0.160315 -0.18185,0.107858 -0.27535,0.171726 -0.28124,0.193445 -0.006,0.0057 10e-4,0.02153 0.0203,0.04804 0.0186,0.02743 0.0416,0.05614 0.0683,0.08853 0.0265,0.03239 0.0532,0.06828 0.0804,0.108594 0.0267,0.04012 0.0482,0.07105 0.0641,0.09276 0.0482,0.09056 0.11154,0.205593 0.18903,0.345661 0.0777,0.138779 0.12221,0.214427 0.13234,0.225103 0.0223,0.02153 0.16252,-0.02595 0.42277,-0.140989 0.26026,-0.115036 0.40621,-0.193997 0.43861,-0.237251 0.0151,-0.02724 0.0173,-0.05448 0.004,-0.08485 -0.0136,-0.02945 -0.0653,-0.09976 -0.15663,-0.212771 -0.0697,-0.08559 -0.1546,-0.175407 -0.25381,-0.268909 -0.0992,-0.09405 -0.19418,-0.178168 -0.28547,-0.253815 m -0.0561,2.806146 c -0.005,-0.0099 -0.0144,-0.01712 -0.028,-0.01932 -0.0136,-0.0037 -0.0252,-0.0042 -0.0366,-0.0042 -0.0425,0 -0.16179,0.04012 -0.35726,0.120742 -0.19565,0.08043 -0.31491,0.138779 -0.35817,0.176879 l -0.0559,0.04031 0.0639,0.160867 -0.0238,-0.05669 c 0.0267,0.0589 0.0512,0.119269 0.0727,0.181113 0.0215,0.06111 0.048,0.135282 0.0804,0.220869 0.0158,0.05374 0.0361,0.111355 0.0596,0.173199 0.0245,0.061844 0.0447,0.1106184 0.0606,0.1489026 0.0164,0.042333 0.0309,0.079697 0.0445,0.1120912 0.0129,0.032396 0.0201,0.053929 0.0201,0.064605 0,0.010858 0.002,0.0173 0.008,0.020246 0.005,0.00275 0.0158,0.00349 0.0316,0.00349 0.0166,-0.00497 0.0324,-0.021534 0.049,-0.047303 0.0158,-0.027425 0.0431,-0.080617 0.0804,-0.1610508 0.0641,-0.155344 0.11798,-0.297805 0.16031,-0.427198 0.0433,-0.12792 0.0727,-0.237987 0.0885,-0.32928 l 0.0158,-0.112091 c 0.006,-0.04325 0.0121,-0.08209 0.0201,-0.117245 0.009,-0.03442 0.0101,-0.04381 0.004,-0.02797 0.0109,-0.03166 0.0158,-0.05908 0.0158,-0.08062 0,-0.0208 -0.005,-0.03442 -0.0158,-0.04031 m 0.94918,-1.624126 c -0.0158,-0.05319 -0.0324,-0.09847 -0.0482,-0.136571 -0.0166,-0.03736 -0.0295,-0.0589 -0.0403,-0.06405 -0.0166,-0.0057 -0.0351,-0.0064 -0.0567,-0.0042 -0.021,0.0029 -0.0532,0.01215 -0.0965,0.02797 l 0.35376,-0.128656 c -0.0532,0.02227 -0.12148,0.05043 -0.20412,0.08485 -0.0834,0.0346 -0.24019,0.09497 -0.471,0.18056 -0.0589,0.02724 -0.11356,0.05099 -0.16455,0.07252 -0.0512,0.02153 -0.0848,0.03736 -0.10067,0.04822 -0.0109,0.01068 -0.026,0.02153 -0.0446,0.0324 -0.0188,0.01068 -0.0361,0.01859 -0.0519,0.0243 -0.0107,0 -0.0215,0.0052 -0.0322,0.01583 -0.0109,0.01086 -0.0188,0.02153 -0.0245,0.03166 -0.005,0.02227 -0.0144,0.03387 -0.0281,0.03663 -0.0129,0.0029 -0.0359,0.0044 -0.0683,0.0044 -0.0423,-0.0057 -0.11779,0.01583 -0.22491,0.06387 -0.10713,0.04822 -0.2229,0.110067 -0.34585,0.184794 -0.0324,0.02172 -0.0641,0.03884 -0.0964,0.05264 -0.0324,0.01288 -0.051,0.02006 -0.0567,0.02006 -0.005,0 -0.0316,0.01086 -0.0806,0.0324 -0.0475,0.0208 -0.10141,0.04528 -0.16031,0.07178 -0.12295,0.05982 -0.19418,0.102152 -0.2135,0.128841 -0.018,0.0265 -0.006,0.07546 0.0366,0.145221 0.0166,0.02153 0.0403,0.06829 0.0727,0.140069 0.0322,0.0727 0.0646,0.148902 0.0963,0.229336 0.0747,0.17688 0.1259,0.293388 0.15314,0.350262 0.0267,0.05595 0.051,0.08688 0.072,0.09203 0.0216,0.01068 0.0604,0.0079 0.11707,-0.0079 0.0554,-0.01583 0.11871,-0.04325 0.18847,-0.08062 0.0324,-0.01583 0.0698,-0.03368 0.11282,-0.05172 0.0425,-0.01933 0.0769,-0.03092 0.10437,-0.03663 0.0747,-0.02669 0.14724,-0.05761 0.217,-0.09276 0.0697,-0.0346 0.11006,-0.05964 0.12092,-0.0762 0.0215,-0.02153 0.0315,-0.125896 0.0315,-0.313451 0,-0.187739 -0.01,-0.337194 -0.0315,-0.450206 -0.0109,-0.08043 -0.0165,-0.159578 -0.0165,-0.237251 0,-0.07822 0.006,-0.100679 0.0165,-0.06829 0.0315,0.08062 0.0574,0.167493 0.0762,0.260994 0.0186,0.09424 0.0302,0.210746 0.0359,0.350262 0.006,0.0854 0.0121,0.161603 0.0201,0.2286 0.008,0.06755 0.0123,0.103441 0.0123,0.108594 0.0107,0.02724 0.0294,0.03939 0.0559,0.03663 0.0267,-0.0029 0.0806,-0.02025 0.16105,-0.05246 0.0698,-0.03166 0.1697,-0.07418 0.3013,-0.125159 0.1316,-0.05025 0.25382,-0.097 0.36664,-0.140252 0.026,-0.01068 0.0512,-0.02301 0.072,-0.03589 0.0215,-0.01362 0.0344,-0.02301 0.0403,-0.02798 0.0158,-0.0324 0.005,-0.146694 -0.0324,-0.342348 -0.0374,-0.195469 -0.0856,-0.38965 -0.14448,-0.583095 m -1.71264,-0.780038 c -0.0166,-0.0208 -0.0339,-0.03663 -0.0525,-0.04822 -0.0188,-0.01067 -0.0309,-0.01583 -0.0366,-0.01583 -0.0158,0 -0.0841,0.02374 -0.2043,0.0727 -0.12074,0.04822 -0.21848,0.09129 -0.29394,0.12792 -0.0324,0.0116 -0.067,0.02448 -0.10436,0.04031 -0.0374,0.01657 -0.0675,0.02945 -0.0883,0.04105 -0.0648,0.0208 -0.12866,0.05025 -0.19271,0.08835 -0.0648,0.03736 -0.097,0.06405 -0.097,0.07988 0,0.005 0.0136,0.03884 0.0401,0.100496 0.0274,0.06184 0.0591,0.133073 0.0964,0.213691 0.0374,0.0797 0.0755,0.164547 0.11283,0.253079 0.0374,0.08761 0.0641,0.150928 0.0799,0.189028 0.0381,0.112091 0.0675,0.181849 0.0891,0.208537 0.0208,0.02724 0.0503,0.0381 0.0883,0.0324 0.0158,-0.0052 0.0388,-0.01454 0.0685,-0.02816 0.0294,-0.01288 0.0574,-0.02797 0.0841,-0.04454 0.0215,-0.01583 0.048,-0.03019 0.0804,-0.04381 0.0324,-0.01362 0.0589,-0.02522 0.0806,-0.03663 0.048,-0.01086 0.14301,-0.04749 0.28528,-0.112275 0.14247,-0.06387 0.23155,-0.107122 0.26965,-0.128656 l -0.0403,0.02448 c 0.0158,-0.01086 0.0361,-0.02301 0.0598,-0.03663 0.0243,-0.01307 0.0574,-0.03092 0.10068,-0.0519 0.0374,-0.02153 0.0653,-0.04601 0.0847,-0.07252 0.0188,-0.02669 0.023,-0.05393 0.0124,-0.08062 -0.006,-0.005 -0.018,-0.02448 -0.0366,-0.05595 -0.0188,-0.0324 -0.0388,-0.067 -0.0604,-0.104361 -0.021,-0.03239 -0.044,-0.06976 -0.0685,-0.112827 -0.0236,-0.04307 -0.0409,-0.07767 -0.0517,-0.104361 -0.0215,-0.05374 -0.0646,-0.122214 -0.12865,-0.205592 -0.0648,-0.08264 -0.12369,-0.145958 -0.17688,-0.189028 m -0.1697,-0.932437 c -0.0582,-0.02172 -0.11725,-0.03534 -0.17614,-0.04031 -0.0596,-0.0052 -0.16896,-0.0079 -0.33001,-0.0079 -0.10142,-0.0057 -0.19418,-0.0064 -0.27756,-0.0037 -0.0826,0.0022 -0.13215,0.0037 -0.14872,0.0037 -0.0425,0.0057 -0.0806,0.01657 -0.11227,0.03166 -0.0322,0.01657 -0.0488,0.03019 -0.0488,0.04086 0,0.01583 0.0193,0.03019 0.0567,0.04399 0.0374,0.01362 0.12369,0.03589 0.2575,0.06828 0.13951,0.0381 0.26964,0.08835 0.39038,0.153136 0.12,0.06387 0.24737,0.155345 0.38173,0.273142 0.0267,0.02743 0.0532,0.0497 0.0806,0.06829 0.0265,0.01877 0.0453,0.02816 0.0559,0.02816 0.0158,0 0.0979,-0.03608 0.24517,-0.108594 0.14742,-0.0727 0.23227,-0.119454 0.25307,-0.140252 0.0109,-0.01086 0.0203,-0.0208 0.0281,-0.02798 0.009,-0.0087 0.0121,-0.01509 0.0121,-0.02098 -0.005,-0.01067 -0.0186,-0.0265 -0.0403,-0.04804 -0.0208,-0.02098 -0.051,-0.04325 -0.0883,-0.06405 -0.0589,-0.04896 -0.1316,-0.09129 -0.21718,-0.128656 -0.0863,-0.03736 -0.19271,-0.07767 -0.3221,-0.120742 m -0.0237,3.731406 c -0.0208,-0.02724 -0.0467,-0.0381 -0.0762,-0.0324 -0.0295,0.0052 -0.0948,0.0324 -0.19694,0.08062 -0.0482,0.0265 -0.10859,0.05466 -0.1813,0.08411 -0.0718,0.02945 -0.13509,0.05246 -0.18902,0.06829 -0.26744,0.097 -0.43272,0.158105 -0.49456,0.18553 -0.0611,0.0265 -0.092,0.05025 -0.092,0.07178 0,0.02669 0.0876,0.09792 0.26173,0.2135073 0.17393,0.1150363 0.29541,0.1835059 0.36517,0.2050408 0.0166,0.00497 0.0339,0.010675 0.0524,0.015829 0.0188,0.00497 0.028,0.010675 0.028,0.015829 0.0166,0.027242 0.13675,0.060371 0.36167,0.1004955 0.22583,0.040309 0.38118,0.05761 0.46658,0.052641 0.0539,0 0.0821,-0.012333 0.0849,-0.036812 0.002,-0.023742 -0.0179,-0.073255 -0.0604,-0.1479825 -0.0158,-0.032396 -0.0337,-0.069022 -0.0525,-0.1085942 -0.0186,-0.041045 -0.0331,-0.073991 -0.0438,-0.1006796 v -0.016566 c -0.0109,-0.031659 -0.0215,-0.06258 -0.0324,-0.09203 -0.0109,-0.02945 -0.0215,-0.05743 -0.0324,-0.08485 -0.0107,-0.0265 -0.0252,-0.06534 -0.0438,-0.116509 -0.0188,-0.05098 -0.0339,-0.100495 -0.0445,-0.148719 -0.0158,-0.04252 -0.0324,-0.08559 -0.0482,-0.128104 -0.0158,-0.04307 -0.0272,-0.06957 -0.0324,-0.08043 m -1.10139,-3.594836 c -0.16105,-0.04252 -0.24664,-0.04104 -0.2575,0.0042 -0.0107,0.04528 0.0403,0.212771 0.15313,0.502662 0.0591,0.155161 0.11007,0.268909 0.15259,0.342164 0.0431,0.07197 0.0804,0.115772 0.11282,0.132337 0.005,0 0.0173,-0.0022 0.0359,-0.0044 0.0188,-0.0028 0.0359,-0.0064 0.0517,-0.01215 l -0.0639,0.02448 c 0.0324,-0.01657 0.0683,-0.03092 0.10859,-0.04454 0.0401,-0.01307 0.0948,-0.03313 0.16455,-0.06056 0.0913,-0.03148 0.19344,-0.07325 0.30627,-0.124239 0.11227,-0.05117 0.18479,-0.08706 0.21645,-0.108594 0.0165,-0.01086 0.0294,-0.02301 0.0403,-0.03589 0.0107,-0.0138 0.0166,-0.02522 0.0166,-0.03607 0,-0.02153 -0.0245,-0.0554 -0.0727,-0.10068 -0.0482,-0.04602 -0.0963,-0.08191 -0.14449,-0.109147 h -0.008 c -0.0215,-0.01012 -0.0418,-0.02245 -0.0611,-0.03608 -0.018,-0.01288 -0.0359,-0.02503 -0.0517,-0.03589 -0.0697,-0.04822 -0.17411,-0.102889 -0.31344,-0.164732 -0.13952,-0.06184 -0.26817,-0.105649 -0.38615,-0.13289 m 0.63481,2.484782 c -0.005,-0.01583 -0.0129,-0.02816 -0.0238,-0.03608 -0.0107,-0.0085 -0.0186,-0.01215 -0.0237,-0.01215 -0.033,0 -0.1143,0.02798 -0.2459,0.08411 -0.13141,0.05687 -0.31491,0.143749 -0.55069,0.261731 -0.14449,0.06976 -0.32136,0.155344 -0.53063,0.257312 -0.005,0 -0.0129,0.0037 -0.0238,0.01233 -0.0114,0.0079 -0.0215,0.0173 -0.0322,0.02798 -0.0166,0.01583 -0.023,0.03313 -0.0202,0.05246 0.002,0.01877 0.0252,0.06755 0.0683,0.148166 0.0591,0.112828 0.12589,0.225839 0.20136,0.337931 0.0747,0.112827 0.13381,0.1905 0.17614,0.233017 0.049,0.04307 0.10215,0.0646 0.16105,0.0646 0.0596,0 0.14246,-0.02374 0.24958,-0.07252 0.10123,-0.04252 0.20117,-0.08411 0.29688,-0.124424 0.097,-0.04031 0.15093,-0.06037 0.16105,-0.06037 0.005,0 0.0339,-0.01086 0.0849,-0.03166 0.051,-0.02153 0.10859,-0.04896 0.17246,-0.08062 l 0.24958,-0.104913 v -0.08062 c 0,-0.0208 -0.005,-0.05246 -0.0158,-0.09203 -0.0109,-0.04086 -0.0245,-0.07675 -0.0403,-0.108411 l 0.10436,0.265228 c -0.0267,-0.0589 -0.0591,-0.131602 -0.0964,-0.217189 -0.0374,-0.08559 -0.0963,-0.227863 -0.17688,-0.426278 -0.0324,-0.06976 -0.0618,-0.134546 -0.0883,-0.192708 -0.0274,-0.05964 -0.0453,-0.09424 -0.0569,-0.104913 m -0.74764,1.752784 c -0.0532,-0.048223 -0.0964,-0.082642 -0.12884,-0.104178 -0.0316,-0.02153 -0.0582,-0.03239 -0.0797,-0.03239 -0.0109,0 -0.0353,0.0072 -0.0727,0.02006 -0.0374,0.0138 -0.0755,0.02816 -0.11283,0.04473 -0.0374,0.0208 -0.072,0.03884 -0.10418,0.05172 -0.0324,0.01362 -0.0532,0.020062 -0.0648,0.020062 -0.0109,0 -0.0302,0.0057 -0.0596,0.016566 -0.0295,0.010121 -0.0604,0.026688 -0.0928,0.048223 -0.0324,0.015829 -0.0626,0.030187 -0.0928,0.043806 -0.0287,0.013621 -0.0497,0.023008 -0.0596,0.028713 -0.0324,0.010121 -0.0418,0.028896 -0.0289,0.056138 0.0138,0.026504 0.0497,0.058898 0.10859,0.096262 0.2251,0.155345 0.48535,0.2589696 0.78021,0.3092175 0.29468,0.050984 0.6061,0.047487 0.93317,-0.011412 0.12792,-0.021721 0.19694,-0.040309 0.20485,-0.056138 0.008,-0.016566 -0.0416,-0.035339 -0.14872,-0.056874 -0.0856,-0.016566 -0.19418,-0.048039 -0.32578,-0.096262 -0.1316,-0.048223 -0.2481,-0.099207 -0.35007,-0.1524 -0.0425,-0.022271 -0.0935,-0.053929 -0.1524,-0.097183 -0.0591,-0.042333 -0.11006,-0.085403 -0.15314,-0.1286567 m 0.30554,-2.8140611 c -0.0316,-0.0589 -0.0596,-0.108595 -0.0841,-0.148719 -0.0245,-0.04031 -0.0388,-0.06056 -0.0445,-0.06056 -0.005,0 -0.0304,0.0087 -0.0764,0.02374 -0.0453,0.01657 -0.0977,0.03534 -0.15663,0.05687 -0.0539,0.02153 -0.11209,0.04454 -0.17688,0.06828 -0.0641,0.02448 -0.11503,0.04454 -0.1524,0.06037 -0.12368,0.04307 -0.24442,0.0935 -0.3624,0.1524 -0.11798,0.05908 -0.18185,0.102153 -0.19271,0.128657 -0.0265,0.04822 -0.0265,0.233753 0,0.555118 0.0267,0.321365 0.0591,0.522725 0.0964,0.603158 0.005,0.01583 0.0136,0.03092 0.0243,0.04399 0.0101,0.01362 0.0188,0.02006 0.0237,0.02006 0.0217,0.0057 0.095,-0.01859 0.22142,-0.07197 0.1259,-0.05393 0.29339,-0.134363 0.50266,-0.241484 0.0856,-0.04252 0.16252,-0.08062 0.2286,-0.112092 0.0676,-0.0324 0.10362,-0.04896 0.10859,-0.04896 0.0166,0 0.0769,-0.02522 0.18111,-0.0762 0.1051,-0.05098 0.16252,-0.08411 0.17338,-0.10068 0.0107,-0.01012 0.0121,-0.03019 0.004,-0.06037 -0.008,-0.02945 -0.028,-0.08706 -0.0604,-0.172646 -0.0265,-0.05393 -0.051,-0.109882 -0.0718,-0.168965 -0.0217,-0.0589 -0.0375,-0.104177 -0.049,-0.136571 -0.0109,-0.02724 -0.0295,-0.07105 -0.0561,-0.132338 -0.0265,-0.06166 -0.0532,-0.122214 -0.0804,-0.181113 m -0.53854,-1.141711 c -0.0215,-0.04307 -0.0431,-0.08191 -0.0641,-0.116509 -0.0216,-0.03515 -0.0352,-0.0554 -0.0409,-0.06037 -0.021,-0.0057 -0.0475,0.0094 -0.0799,0.04381 -0.0324,0.03534 -0.0618,0.08209 -0.0883,0.140988 -0.0109,0.0324 -0.0309,0.08559 -0.0606,0.160315 -0.0294,0.07546 -0.0574,0.153136 -0.0841,0.233754 l -0.61972,1.977886 c -0.0265,0.08043 -0.0295,0.07767 -0.008,-0.0079 0.0215,-0.08632 0.17485,-0.584568 0.45867,-1.496207 -0.0272,0.08043 -0.0473,0.153872 -0.0604,0.21774 -0.0136,0.06405 -0.0121,0.09645 0.004,0.09645 0.006,0 0.13308,-0.05172 0.38247,-0.156818 0.2494,-0.104913 0.39186,-0.164547 0.42996,-0.181113 0.0532,-0.02669 0.0913,-0.04896 0.11282,-0.06829 0.0208,-0.01877 0.0317,-0.03884 0.0317,-0.06037 0,-0.02153 -0.023,-0.08559 -0.0683,-0.192709 -0.0453,-0.107121 -0.0791,-0.177616 -0.10068,-0.209274 -0.0101,-0.01583 -0.0215,-0.03368 -0.0324,-0.05172 -0.01,-0.01877 -0.0158,-0.03663 -0.0158,-0.05246 -0.005,-0.01086 -0.0171,-0.0381 -0.0359,-0.08062 -0.0186,-0.04307 -0.0388,-0.08835 -0.0604,-0.136571 m -0.56303,2.910508 c -0.0216,-0.02172 -0.0431,-0.03313 -0.0639,-0.03608 -0.0215,-0.0028 -0.0569,0.0094 -0.1051,0.03608 -0.0158,0.01068 -0.0532,0.02871 -0.11208,0.05246 -0.0589,0.0243 -0.12075,0.04951 -0.1848,0.0762 -0.13436,0.04877 -0.22142,0.08485 -0.26173,0.108594 -0.0401,0.0243 -0.0604,0.04657 -0.0604,0.06828 0,0.02724 0.0309,0.101232 0.0928,0.221422 0.0618,0.120742 0.1165,0.212771 0.16473,0.277559 l 0.008,0.0079 c 0.0272,0.03736 0.0552,0.07326 0.0847,0.108411 0.0296,0.0346 0.0605,0.06829 0.0928,0.100679 l 0.0957,0.1122758 0.0725,-0.040309 c 0.0217,-0.015829 0.0655,-0.038836 0.13307,-0.068286 0.0668,-0.02945 0.13804,-0.05761 0.21277,-0.08411 0.0756,-0.0324 0.14246,-0.06037 0.20062,-0.08485 0.0596,-0.02374 0.092,-0.03884 0.0972,-0.04381 0.0157,-0.01657 0.0171,-0.03608 0.004,-0.06056 -0.0136,-0.02356 -0.0525,-0.07105 -0.11725,-0.140804 -0.0265,-0.03166 -0.0547,-0.07049 -0.0841,-0.116509 -0.0295,-0.04528 -0.0554,-0.09497 -0.0769,-0.148903 -0.0423,-0.09129 -0.0784,-0.163075 -0.10859,-0.217004 -0.0287,-0.05319 -0.0574,-0.09645 -0.0841,-0.128656 m 0.0727,-2.709885 c 0.0646,-0.13381 0.0977,-0.217188 0.10068,-0.248846 0.002,-0.03221 -0.023,-0.03019 -0.0769,0.0079 -0.0697,0.04252 -0.17687,0.124423 -0.32136,0.245165 -0.14522,0.120926 -0.22013,0.186267 -0.2251,0.197126 -0.006,0.01068 -0.0158,0.0243 -0.0324,0.04012 -0.0158,0.01657 -0.0324,0.02963 -0.048,0.04031 -0.0915,0.06405 -0.18627,0.171173 -0.28547,0.321365 -0.0992,0.150375 -0.15958,0.279031 -0.1813,0.386153 -0.0158,0.0589 -0.0243,0.144485 -0.0243,0.257313 0,0.112275 0.006,0.17688 0.0164,0.192709 0.0109,0.0057 0.0252,0.0044 0.0447,-0.0042 0.0186,-0.0072 0.0495,-0.02522 0.092,-0.0519 0.0322,-0.01565 0.0683,-0.03515 0.10915,-0.05595 0.0396,-0.02153 0.0762,-0.0381 0.1086,-0.04896 0.0799,-0.03166 0.15534,-0.06608 0.2251,-0.104177 0.069,-0.03736 0.11503,-0.06976 0.13583,-0.09645 0.0215,-0.01657 0.0381,-0.04381 0.049,-0.08412 0.0107,-0.04012 0.0237,-0.100679 0.0396,-0.181113 0.0272,-0.144485 0.0604,-0.279031 0.1005,-0.401982 0.0403,-0.123687 0.0979,-0.260258 0.17338,-0.410449 m -0.35376,1.319327 c -0.0265,-0.02669 -0.074,-0.03019 -0.14099,-0.0087 -0.0668,0.02153 -0.18608,0.07546 -0.35799,0.16105 -0.13951,0.07546 -0.21847,0.127184 -0.23725,0.156633 -0.0188,0.02963 -0.028,0.132338 -0.028,0.309954 0,0.122951 0.004,0.217189 0.0121,0.281057 0.009,0.06479 0.023,0.139515 0.0438,0.225102 0.0116,0.0589 0.0245,0.1143 0.041,0.165468 0.0158,0.05025 0.0287,0.08411 0.0396,0.09994 l -0.008,-0.0079 c 0.0109,0.01565 0.0201,0.03368 0.028,0.05246 0.009,0.01859 0.0173,0.03589 0.0281,0.05246 0.006,0.01583 0.0121,0.02871 0.0208,0.04031 0.007,0.01068 0.0173,0.01583 0.028,0.01583 0.0101,0 0.0525,-0.0173 0.12443,-0.05264 0.0727,-0.03442 0.15681,-0.07325 0.25307,-0.116324 0.18774,-0.09645 0.29486,-0.159763 0.32136,-0.189212 0.0274,-0.02945 0.0245,-0.08687 -0.008,-0.173198 -0.0374,-0.08559 -0.072,-0.220686 -0.10417,-0.40548 -0.0324,-0.184794 -0.0453,-0.336458 -0.0403,-0.454439 0,-0.0324 -10e-4,-0.06258 -0.004,-0.09276 -0.004,-0.02871 -0.007,-0.04951 -0.0121,-0.05963 m 1.40711,-2.154766 c 0.0804,-0.01657 0.16308,-0.03019 0.2494,-0.04105 0.0856,-0.01013 0.1524,-0.01583 0.20062,-0.01583 0.16602,0 0.3394,0.0208 0.51904,0.06405 0.17908,0.04307 0.32283,0.09921 0.42995,0.168965 0.0267,0.01657 0.0698,0.0416 0.12866,0.0762 0.0591,0.03515 0.11227,0.06608 0.16105,0.09276 0.0532,0.0324 0.11798,0.07178 0.1927,0.120742 0.0747,0.04822 0.13952,0.0935 0.19271,0.136572 0.15535,0.107121 0.32357,0.256024 0.50321,0.446524 0.17909,0.189764 0.3013,0.341427 0.36535,0.454439 0.0589,0.112091 0.11651,0.291916 0.1732,0.538553 0.0561,0.246454 0.0841,0.450022 0.0841,0.611073 0.006,0.117797 -7e-4,0.267436 -0.0201,0.450022 -0.0188,0.182585 -0.0381,0.322101 -0.0604,0.418547 -0.0324,0.144486 -0.0856,0.278112 -0.16031,0.401798 -0.0755,0.123688 -0.1905,0.268173 -0.34585,0.434377 l 0.0158,-0.01657 c -0.0432,0.04307 -0.0841,0.08614 -0.12442,0.129392 -0.0403,0.04233 -0.0848,0.08761 -0.13307,0.1365709 -0.0316,0.037364 -0.0762,0.0762 -0.13215,0.1165087 -0.0569,0.040308 -0.12737,0.086875 -0.21369,0.1402521 -0.0698,0.04307 -0.13363,0.079697 -0.19252,0.10841 -0.0591,0.029633 -0.0942,0.047487 -0.1051,0.052641 -0.0158,0.00497 -0.0561,0.021534 -0.12,0.048039 -0.0648,0.026688 -0.13455,0.059083 -0.20928,0.096446 -0.2516,0.1185333 -0.47744,0.1976783 -0.67585,0.237987 -0.19768,0.040125 -0.45002,0.054665 -0.75555,0.043806 -0.26246,-0.0057 -0.46382,-0.024479 -0.60334,-0.056138 -0.13933,-0.032396 -0.30553,-0.096262 -0.49824,-0.1932608 -0.14448,-0.069758 -0.27314,-0.1597622 -0.38597,-0.2689084 -0.11227,-0.1100667 -0.21221,-0.2401958 -0.29761,-0.3905705 l -0.008,-0.02356 c -0.0217,-0.03755 -0.0425,-0.07418 -0.0641,-0.108595 -0.0215,-0.03534 -0.0431,-0.06626 -0.0648,-0.09276 -0.0582,-0.09645 -0.12423,-0.245165 -0.1962,-0.445788 -0.0733,-0.201359 -0.14098,-0.43861 -0.20559,-0.711752 -0.0324,-0.123687 -0.0512,-0.316395 -0.0561,-0.579598 -0.006,-0.262283 0.003,-0.462906 0.0237,-0.603158 0.0215,-0.112092 0.0574,-0.236514 0.10859,-0.373822 0.051,-0.136019 0.10344,-0.245165 0.15663,-0.325046 0.0591,-0.08632 0.17191,-0.210562 0.33793,-0.373822 0.1662,-0.163995 0.30277,-0.283265 0.40989,-0.357992 0.18259,-0.123687 0.39462,-0.233754 0.63555,-0.330016 0.24166,-0.09645 0.48811,-0.168966 0.7399,-0.216452 m -0.91678,-0.233754 c 0.0482,-0.02153 0.0819,-0.0324 0.10068,-0.0324 0.0188,0 0.0309,0.0079 0.0359,0.02448 0.0109,0.02669 -0.003,0.05614 -0.0401,0.08853 -0.0376,0.0324 -0.12093,0.07767 -0.24885,0.136571 -0.0705,0.03736 -0.14099,0.07473 -0.2135,0.112091 -0.0727,0.0381 -0.12443,0.067 -0.15682,0.08927 -0.0317,0.0208 -0.0683,0.04381 -0.10859,0.06755 -0.0401,0.02448 -0.0711,0.0416 -0.0928,0.05246 -0.16031,0.09129 -0.32928,0.226391 -0.5067,0.406215 -0.17615,0.179825 -0.31566,0.360202 -0.41708,0.542787 -0.0863,0.150375 -0.15736,0.326519 -0.2135,0.530639 -0.0561,0.203568 -0.0841,0.388914 -0.0841,0.555119 0,0.181849 0.0143,0.400326 0.0438,0.654878 0.0295,0.255288 0.0655,0.457384 0.10859,0.607575 0.0107,0.04822 0.0223,0.09921 0.0366,0.1524 0.0129,0.05393 0.0223,0.09424 0.028,0.120742 0.0316,0.17688 0.11374,0.391123 0.24534,0.643651 0.13069,0.2516061 0.27094,0.4636411 0.42186,0.6355511 0.13381,0.149455 0.25455,0.2551042 0.36167,0.3169475 0.10712,0.061844 0.30277,0.1409884 0.58677,0.2372508 0.21498,0.074912 0.38394,0.1209259 0.50689,0.136755 0.12295,0.016383 0.30259,0.021534 0.53837,0.016383 0.17688,-0.0057 0.32283,-0.019325 0.4386,-0.040125 0.11504,-0.021534 0.35229,-0.078409 0.71175,-0.1697017 0.1927,-0.053192 0.31639,-0.082642 0.36958,-0.087795 0.0539,-0.0057 0.0913,0.00222 0.11302,0.023742 0.01,0.021534 0.0171,0.052457 0.0201,0.092765 0.002,0.040308 -10e-4,0.068285 -0.0121,0.084114 -0.0166,0.021534 -0.0836,0.050984 -0.20136,0.088532 -0.11797,0.0381 -0.23798,0.066813 -0.36166,0.089084 -0.16602,0.031658 -0.29339,0.061107 -0.38174,0.087796 -0.0885,0.027242 -0.14098,0.050984 -0.15681,0.072519 -0.0166,0.015829 -0.0252,0.040309 -0.0287,0.071967 -0.002,0.032946 -0.004,0.099207 -0.004,0.2011754 0,0.1560809 0.008,0.251055 0.0245,0.2854738 0.0158,0.035339 0.0611,0.063316 0.13657,0.084115 0.0749,0.016566 0.18701,0.035339 0.33719,0.056874 0.15038,0.021534 0.30848,0.040309 0.47524,0.056138 0.0641,0.0057 0.12368,0.010675 0.18056,0.016383 0.0561,0.00515 0.087,0.00792 0.0928,0.00792 0.0208,0.010858 0.0351,0.028896 0.0438,0.056137 0.008,0.027242 0.009,0.061844 0.004,0.104177 -0.005,0.027425 -0.0131,0.044726 -0.0238,0.052641 -0.0109,0.00847 -0.0294,0.015092 -0.0561,0.020062 -0.0431,0.010859 -0.21498,0.016566 -0.51481,0.016566 -0.29467,0 -0.61107,-0.00148 -0.94899,-0.00442 -0.33793,-0.00275 -0.64567,-0.00644 -0.92452,-0.012146 -0.27903,-0.010859 -0.42351,-0.018775 -0.43437,-0.023746 -0.005,-0.0057 -0.008,-0.019325 -0.008,-0.040309 v -0.064604 c 0,-0.032396 0.004,-0.056138 0.0116,-0.071967 0.009,-0.016566 0.023,-0.027242 0.0445,-0.032396 0.0166,-0.010675 0.0675,-0.021534 0.15314,-0.032209 0.0856,-0.010858 0.17909,-0.018775 0.28105,-0.024479 0.20357,-0.015829 0.37382,-0.033129 0.51057,-0.051904 0.13658,-0.018591 0.22934,-0.038652 0.27738,-0.060371 0.0324,-0.015829 0.0526,-0.030921 0.0606,-0.044542 0.008,-0.012883 0.0151,-0.05172 0.0201,-0.1165087 0.0109,-0.1012317 0.0144,-0.1927087 0.0121,-0.2731421 -0.003,-0.080617 -0.009,-0.1229504 -0.0201,-0.1286563 -0.006,-0.00515 -0.0324,-0.010859 -0.0804,-0.015829 -0.0482,-0.0057 -0.10436,-0.011596 -0.16896,-0.016566 -0.28915,-0.0208 -0.51996,-0.04896 -0.69095,-0.084115 -0.17191,-0.034604 -0.37823,-0.092029 -0.6199,-0.1726463 -0.11779,-0.032209 -0.24645,-0.099944 -0.38523,-0.2011754 -0.13951,-0.1021521 -0.28473,-0.2251029 -0.43511,-0.3703246 -0.14448,-0.1496391 -0.29467,-0.3552317 -0.45001,-0.6154896 -0.15535,-0.2595209 -0.26026,-0.4859119 -0.31345,-0.6786209 -0.0216,-0.07546 -0.0561,-0.257497 -0.10491,-0.547204 -0.0482,-0.288971 -0.0749,-0.487386 -0.0806,-0.594507 -0.0208,-0.274063 -0.0252,-0.494748 -0.0114,-0.66445 0.0136,-0.168228 0.0468,-0.338666 0.10068,-0.509656 0.0265,-0.08559 0.0827,-0.216452 0.16823,-0.390387 0.0861,-0.174118 0.16381,-0.312162 0.23357,-0.41413 0.0589,-0.09129 0.1524,-0.202095 0.28105,-0.333697 0.12884,-0.131601 0.23081,-0.221422 0.30572,-0.268909 0.097,-0.05963 0.22216,-0.127184 0.37805,-0.205592 0.15534,-0.07767 0.29192,-0.138044 0.4099,-0.180561 0.0589,-0.02227 0.11724,-0.04454 0.17319,-0.06884 0.0561,-0.02374 0.095,-0.04104 0.11651,-0.0519"
       style="fill:#21201d;fill-opacity:1;fill-rule:nonzero;stroke:none;stroke-width:0.184057"
       id="path570" />
  </g>
</svg>
