<?xml version="1.0" encoding="UTF-8" standalone="no"?>
<!-- Created with Inkscape (http://www.inkscape.org/) -->

<svg
   width="5.7520385mm"
   height="7.5197616mm"
   viewBox="0 0 5.7520385 7.5197616"
   version="1.1"
   id="svg1559"
   inkscape:version="1.1.2 (0a00cf5339, 2022-02-04)"
   sodipodi:docname="mysteries_abound.svg"
   xmlns:inkscape="http://www.inkscape.org/namespaces/inkscape"
   xmlns:sodipodi="http://sodipodi.sourceforge.net/DTD/sodipodi-0.dtd"
   xmlns="http://www.w3.org/2000/svg"
   xmlns:svg="http://www.w3.org/2000/svg">
  <sodipodi:namedview
     id="namedview1561"
     pagecolor="#ffffff"
     bordercolor="#666666"
     borderopacity="1.0"
     inkscape:pageshadow="2"
     inkscape:pageopacity="0.0"
     inkscape:pagecheckerboard="0"
     inkscape:document-units="mm"
     showgrid="false"
     inkscape:zoom="0.64052329"
     inkscape:cx="-1355.142"
     inkscape:cy="505.0558"
     inkscape:window-width="2560"
     inkscape:window-height="1376"
     inkscape:window-x="0"
     inkscape:window-y="0"
     inkscape:window-maximized="1"
     inkscape:current-layer="layer1" />
  <defs
     id="defs1556">
    <clipPath
       clipPathUnits="userSpaceOnUse"
       id="clipPath252">
      <path
         d="m 265,35 h 32 v 41.754 h -32 z"
         id="path250" />
    </clipPath>
  </defs>
  <g
     inkscape:label="Layer 1"
     inkscape:groupmode="layer"
     id="layer1"
     transform="translate(-463.48421,-14.828436)">
    <g
       id="g580"
       transform="matrix(0.18405616,0,0,0.18405792,414.69047,8.2926182)">
      <g
         clip-path="url(#clipPath252)"
         id="g578">
        <path
           d="m 288.406,39.348 c 0.055,-0.082 0.098,-0.137 0.121,-0.164 0.032,-0.028 0.055,-0.028 0.082,0 0.086,0.082 0.282,0.785 0.598,2.113 0.313,1.328 0.527,2.359 0.637,3.101 0,0.11 0.019,0.293 0.058,0.555 0.043,0.258 0.078,0.5 0.106,0.719 0.082,0.465 0.156,1.129 0.226,1.988 0.067,0.863 0.075,1.336 0.02,1.418 0,0.027 -0.027,0.055 -0.082,0.082 -0.055,0.028 -0.121,0.043 -0.207,0.043 H 289.68 V 48.34 c 0,-0.496 -0.035,-1.07 -0.102,-1.727 -0.07,-0.656 -0.16,-1.242 -0.269,-1.765 -0.055,-0.192 -0.129,-0.555 -0.227,-1.086 -0.094,-0.532 -0.195,-1.09 -0.309,-1.664 -0.078,-0.575 -0.164,-1.086 -0.246,-1.539 -0.082,-0.454 -0.132,-0.704 -0.164,-0.758 -0.027,-0.086 -0.031,-0.16 -0.019,-0.227 0.015,-0.07 0.035,-0.144 0.062,-0.226 m 2.914,-3.735 c 0.11,-0.113 0.227,-0.133 0.352,-0.062 0.121,0.066 0.238,0.211 0.348,0.429 0.109,0.219 0.234,0.356 0.371,0.411 0.132,0.058 0.406,0.109 0.82,0.164 l 0.453,0.039 0.039,0.578 c 0,0.137 0.012,0.355 0.039,0.656 0.028,0.301 0.043,0.59 0.043,0.863 0.027,0.711 0.07,1.344 0.125,1.907 0.051,0.562 0.106,0.914 0.164,1.05 0.024,0.055 0.059,0.141 0.102,0.266 0.039,0.121 0.062,0.254 0.062,0.391 0.028,0.164 0.086,0.437 0.184,0.82 0.094,0.383 0.25,0.996 0.473,1.848 0.027,0.082 0.046,0.211 0.058,0.39 0.016,0.18 0.024,0.36 0.024,0.555 0,0.465 -0.051,0.781 -0.145,0.945 -0.098,0.16 -0.336,0.34 -0.719,0.532 l -0.574,0.289 v 0.574 c 0,0.164 0.004,0.355 0.02,0.574 0.015,0.219 0.035,0.398 0.062,0.535 0.027,0.16 0.07,0.403 0.121,0.715 0.055,0.316 0.113,0.609 0.168,0.883 0.024,0.301 0.067,0.582 0.121,0.844 0.055,0.257 0.098,0.418 0.121,0.472 0.055,0.082 0.086,0.164 0.086,0.246 v 0.246 c -0.058,0.247 -0.015,1.055 0.121,2.422 0.137,1.367 0.262,2.203 0.371,2.504 0.028,0.055 0.063,0.199 0.102,0.43 0.039,0.234 0.063,0.488 0.063,0.762 0.027,0.273 0.054,0.547 0.082,0.82 0.027,0.273 0.05,0.453 0.082,0.535 0.027,0.109 0.054,0.246 0.082,0.41 0.027,0.164 0.054,0.328 0.082,0.492 0.027,0.301 0.093,0.786 0.203,1.457 0.113,0.672 0.207,1.227 0.289,1.665 0.027,0.136 0.058,0.292 0.101,0.472 0.043,0.176 0.075,0.32 0.106,0.43 0,0.082 0.004,0.219 0.019,0.41 0.012,0.191 0.02,0.356 0.02,0.492 0,0.164 0.019,0.418 0.062,0.762 0.039,0.34 0.075,0.676 0.102,1.004 0.137,0.961 0.211,1.535 0.227,1.722 0.011,0.192 -0.024,0.305 -0.106,0.333 -0.082,0.054 -0.168,0.054 -0.266,0 -0.093,-0.055 -0.183,-0.165 -0.265,-0.333 -0.11,-0.132 -0.192,-0.402 -0.246,-0.796 -0.055,-0.399 -0.121,-1.036 -0.207,-1.911 0,-0.328 -0.02,-0.644 -0.063,-0.945 -0.039,-0.301 -0.074,-0.508 -0.101,-0.613 -0.028,-0.113 -0.063,-0.301 -0.102,-0.578 -0.043,-0.27 -0.09,-0.559 -0.144,-0.86 -0.028,-0.273 -0.059,-0.547 -0.102,-0.824 -0.043,-0.269 -0.078,-0.461 -0.105,-0.574 -0.024,-0.109 -0.067,-0.313 -0.122,-0.617 -0.054,-0.297 -0.093,-0.614 -0.125,-0.942 -0.078,-0.738 -0.148,-1.32 -0.203,-1.746 -0.054,-0.422 -0.097,-0.718 -0.121,-0.883 -0.027,-0.082 -0.058,-0.23 -0.086,-0.449 -0.027,-0.219 -0.054,-0.437 -0.078,-0.656 -0.055,-0.387 -0.215,-1.398 -0.476,-3.039 -0.258,-1.645 -0.446,-2.699 -0.551,-3.164 -0.028,-0.137 -0.063,-0.387 -0.106,-0.758 -0.039,-0.371 -0.074,-0.746 -0.101,-1.129 -0.028,-0.383 -0.063,-0.762 -0.102,-1.129 -0.043,-0.371 -0.078,-0.637 -0.101,-0.801 -0.032,-0.136 -0.071,-0.41 -0.125,-0.82 -0.055,-0.41 -0.094,-0.824 -0.121,-1.234 -0.086,-0.821 -0.18,-1.528 -0.289,-2.114 -0.11,-0.585 -0.204,-0.976 -0.29,-1.171 -0.027,-0.055 -0.062,-0.192 -0.101,-0.411 -0.039,-0.214 -0.074,-0.449 -0.102,-0.695 -0.027,-0.246 -0.062,-0.519 -0.105,-0.824 -0.039,-0.297 -0.086,-0.531 -0.141,-0.695 -0.082,-0.383 -0.152,-0.743 -0.207,-1.067 -0.054,-0.332 -0.094,-0.672 -0.125,-1.027 l -0.039,-0.535 -2.586,0.039 c -1.066,0.031 -1.758,0.043 -2.074,0.043 -0.313,0 -0.473,-0.028 -0.473,-0.082 0,-0.082 0.117,-0.168 0.352,-0.266 0.23,-0.098 0.457,-0.16 0.676,-0.184 0.109,-0.027 0.355,-0.054 0.738,-0.085 0.387,-0.024 0.809,-0.051 1.273,-0.082 0.875,-0.051 1.512,-0.106 1.911,-0.161 0.394,-0.058 0.621,-0.109 0.675,-0.164 m -3.859,26.438 c -0.106,-0.133 -0.195,-0.223 -0.266,-0.266 -0.066,-0.043 -0.144,-0.062 -0.226,-0.062 -0.246,0 -0.996,0.121 -2.258,0.371 -1.258,0.246 -1.996,0.394 -2.219,0.449 -0.707,0.25 -1.347,0.426 -1.906,0.535 -0.563,0.11 -1.434,0.203 -2.606,0.285 -0.441,0.032 -0.835,0.063 -1.191,0.106 -0.359,0.043 -0.562,0.074 -0.617,0.101 -0.082,0 -0.215,0.016 -0.391,0.043 -0.179,0.028 -0.351,0.039 -0.511,0.039 -0.165,0 -0.352,0.008 -0.555,0.024 -0.207,0.012 -0.379,0.031 -0.516,0.058 -0.133,0 -0.304,0.012 -0.511,0.043 -0.208,0.028 -0.391,0.055 -0.555,0.082 -0.383,0.051 -0.672,0.11 -0.863,0.164 -0.192,0.055 -0.325,0.149 -0.411,0.286 -0.132,0.164 -0.183,0.418 -0.144,0.761 0.043,0.34 0.144,0.555 0.308,0.637 0.11,0.055 0.239,0.074 0.391,0.059 0.152,-0.012 0.418,-0.086 0.801,-0.223 0.355,-0.109 0.738,-0.199 1.148,-0.27 0.41,-0.066 1.18,-0.168 2.301,-0.308 0.301,-0.027 0.602,-0.059 0.902,-0.102 0.301,-0.039 0.52,-0.09 0.661,-0.144 0.132,-0.028 0.308,-0.055 0.511,-0.078 0.203,-0.028 0.375,-0.059 0.512,-0.086 0.164,-0.028 0.379,-0.067 0.637,-0.121 0.258,-0.055 0.484,-0.11 0.679,-0.164 0.219,-0.055 0.512,-0.125 0.879,-0.208 0.371,-0.082 0.723,-0.164 1.047,-0.246 0.715,-0.136 1.711,-0.367 3,-0.695 1.285,-0.328 1.985,-0.523 2.094,-0.578 0.109,-0.027 0.156,-0.074 0.144,-0.141 -0.015,-0.07 -0.101,-0.187 -0.269,-0.351 m 1.066,-3.324 -0.285,-0.329 h -0.656 c -0.383,0.028 -1.156,0.122 -2.32,0.286 -1.164,0.164 -2.059,0.316 -2.692,0.453 -0.875,0.191 -1.578,0.343 -2.113,0.453 -0.531,0.109 -1.086,0.203 -1.66,0.285 -0.328,0.027 -0.653,0.078 -0.969,0.145 -0.312,0.066 -0.523,0.117 -0.633,0.144 -0.14,0.055 -0.32,0.109 -0.554,0.164 -0.235,0.051 -0.461,0.098 -0.68,0.121 -0.547,0.082 -1.02,0.172 -1.414,0.27 -0.399,0.093 -1.035,0.293 -1.91,0.593 -0.875,0.274 -1.375,0.458 -1.5,0.555 -0.121,0.094 -0.157,0.321 -0.102,0.676 0.055,0.164 0.098,0.266 0.125,0.312 0.027,0.04 0.121,0.059 0.285,0.059 0.11,0.027 0.215,0.027 0.309,0 0.097,-0.027 0.211,-0.082 0.351,-0.164 0.188,-0.109 0.469,-0.215 0.84,-0.309 0.371,-0.097 0.813,-0.187 1.336,-0.265 0.106,-0.028 0.258,-0.067 0.449,-0.125 0.192,-0.055 0.356,-0.11 0.493,-0.164 0.136,-0.055 0.293,-0.094 0.472,-0.121 0.18,-0.028 0.321,-0.043 0.434,-0.043 0.191,0 0.879,-0.102 2.07,-0.309 1.192,-0.203 1.813,-0.32 1.867,-0.348 0.032,-0.027 0.098,-0.046 0.207,-0.062 0.11,-0.012 0.246,-0.035 0.411,-0.063 0.136,-0.023 0.355,-0.066 0.656,-0.121 0.301,-0.054 0.586,-0.109 0.863,-0.164 0.984,-0.218 1.922,-0.41 2.813,-0.574 0.89,-0.164 1.648,-0.301 2.277,-0.41 0.355,-0.027 0.668,-0.07 0.945,-0.125 0.274,-0.055 0.438,-0.094 0.492,-0.121 0.082,-0.086 0.114,-0.18 0.082,-0.289 -0.027,-0.11 -0.121,-0.246 -0.289,-0.41 m 2.793,14.328 c 0.465,-0.082 0.883,-0.157 1.254,-0.227 0.371,-0.066 0.578,-0.101 0.637,-0.101 0.082,0 0.137,0.011 0.16,0.039 0.031,0.031 0.043,0.097 0.043,0.207 0.027,0.054 0.035,0.109 0.02,0.164 -0.012,0.054 -0.032,0.097 -0.063,0.125 -0.078,0.082 -0.262,0.164 -0.551,0.242 -0.289,0.082 -0.652,0.152 -1.086,0.207 -0.222,0.027 -0.418,0.055 -0.597,0.082 -0.18,0.031 -0.297,0.043 -0.348,0.043 -0.055,0.027 -0.18,0.055 -0.371,0.082 -0.191,0.023 -0.398,0.051 -0.617,0.082 -0.219,0.027 -0.477,0.059 -0.778,0.102 -0.3,0.043 -0.546,0.089 -0.738,0.144 l -0.988,0.121 c -0.438,0.055 -0.875,0.098 -1.313,0.125 -1.066,0.082 -1.808,0.156 -2.218,0.223 -0.411,0.07 -0.723,0.16 -0.942,0.269 -0.058,0.028 -0.191,0.063 -0.41,0.102 -0.223,0.043 -0.437,0.062 -0.66,0.062 -0.246,0.028 -0.555,0.071 -0.922,0.122 -0.371,0.058 -0.691,0.113 -0.965,0.164 -0.683,0.113 -1.23,0.191 -1.64,0.25 -0.415,0.054 -0.879,0.093 -1.399,0.121 -0.273,0.027 -0.629,0.062 -1.066,0.101 -0.438,0.043 -0.836,0.078 -1.192,0.106 -0.355,0.054 -0.718,0.093 -1.09,0.125 -0.367,0.023 -0.632,0.051 -0.8,0.078 -0.192,0 -0.387,0.008 -0.594,0.023 -0.203,0.012 -0.359,0.032 -0.473,0.059 -0.355,0.082 -0.675,0.09 -0.965,0.023 -0.285,-0.07 -0.347,-0.16 -0.183,-0.269 0.137,-0.055 0.672,-0.156 1.601,-0.309 0.93,-0.148 1.739,-0.238 2.422,-0.262 0.301,-0.031 0.617,-0.058 0.942,-0.085 0.332,-0.028 0.59,-0.055 0.781,-0.083 l -0.285,0.043 c 0.246,-0.054 0.504,-0.097 0.777,-0.125 0.277,-0.027 0.59,-0.054 0.945,-0.082 0.438,-0.027 0.84,-0.07 1.211,-0.121 0.371,-0.058 0.692,-0.109 0.965,-0.164 0.086,-0.027 0.317,-0.07 0.699,-0.125 0.383,-0.054 0.793,-0.109 1.231,-0.164 0.469,-0.054 0.941,-0.117 1.418,-0.183 0.476,-0.071 0.828,-0.129 1.047,-0.188 0.246,-0.055 0.586,-0.109 1.027,-0.164 0.438,-0.055 0.875,-0.109 1.313,-0.164 0.437,-0.027 0.847,-0.063 1.23,-0.102 0.383,-0.039 0.629,-0.089 0.738,-0.144 l -0.082,0.043 c 0.114,-0.027 0.235,-0.063 0.371,-0.106 0.137,-0.039 0.301,-0.074 0.493,-0.101 0.082,-0.027 0.324,-0.082 0.718,-0.164 0.399,-0.082 0.828,-0.164 1.293,-0.246 m -2.625,-17.203 c -0.054,-0.055 -0.144,-0.086 -0.269,-0.102 -0.121,-0.016 -0.364,-0.02 -0.719,-0.02 -0.547,0 -0.957,0.012 -1.23,0.04 -0.274,0.027 -0.875,0.109 -1.805,0.246 -1.125,0.191 -2.02,0.363 -2.692,0.515 -0.671,0.149 -1.484,0.375 -2.441,0.676 -0.496,0.164 -1,0.328 -1.519,0.492 -0.52,0.164 -0.903,0.274 -1.153,0.328 -0.246,0.055 -0.488,0.118 -0.734,0.184 -0.25,0.07 -0.41,0.117 -0.496,0.144 -0.274,0.11 -0.672,0.207 -1.188,0.29 -0.523,0.082 -1.207,0.164 -2.054,0.246 -0.93,0.082 -1.536,0.152 -1.809,0.203 -0.274,0.054 -0.438,0.14 -0.488,0.246 -0.059,0.086 -0.086,0.219 -0.086,0.41 0,0.191 0.027,0.332 0.086,0.414 0.05,0.082 0.34,0.102 0.859,0.059 0.52,-0.039 1.039,-0.114 1.559,-0.223 0.218,-0.059 0.515,-0.117 0.882,-0.188 0.372,-0.066 0.707,-0.128 1.008,-0.183 0.301,-0.027 0.582,-0.07 0.84,-0.125 0.262,-0.051 0.418,-0.094 0.477,-0.121 0.078,-0.028 0.218,-0.071 0.41,-0.121 0.191,-0.055 0.367,-0.098 0.531,-0.125 0.191,-0.028 0.391,-0.063 0.594,-0.102 0.207,-0.043 0.363,-0.09 0.472,-0.144 0.961,-0.274 2.141,-0.563 3.551,-0.864 1.414,-0.297 2.992,-0.601 4.742,-0.902 0.36,-0.027 0.7,-0.082 1.028,-0.164 l 0.656,-0.164 c 0.383,-0.137 0.672,-0.301 0.863,-0.492 0.192,-0.192 0.231,-0.344 0.125,-0.453 m -11.66,-14.657 c 0.192,-0.027 0.375,-0.043 0.555,-0.043 0.176,0 0.32,0.016 0.43,0.043 0.054,0.028 0.101,0.063 0.144,0.102 0.039,0.043 0.074,0.129 0.102,0.265 0.027,0.168 0.164,0.672 0.41,1.52 0.246,0.848 0.476,1.672 0.699,2.465 0.246,0.793 0.445,1.484 0.594,2.074 0.152,0.586 0.281,1.129 0.39,1.621 0.11,0.547 0.168,0.914 0.184,1.106 0.016,0.195 -0.02,0.289 -0.102,0.289 -0.027,0 -0.07,0.015 -0.121,0.043 -0.058,0.027 -0.125,0.054 -0.207,0.082 -0.054,0.027 -0.136,0.062 -0.246,0.101 -0.109,0.039 -0.219,0.063 -0.328,0.063 -0.082,0.027 -0.18,0.054 -0.289,0.078 -0.109,0.031 -0.191,0.074 -0.246,0.125 -0.137,0.086 -0.508,0.226 -1.109,0.43 -0.602,0.211 -1.051,0.339 -1.356,0.394 -0.434,0.078 -0.906,0.176 -1.414,0.285 -0.508,0.11 -0.773,0.192 -0.801,0.246 -0.027,0.032 -0.101,0.059 -0.226,0.082 -0.121,0.028 -0.282,0.071 -0.473,0.125 -0.164,0.028 -0.34,0.067 -0.535,0.121 -0.192,0.055 -0.34,0.11 -0.449,0.168 -0.219,0.079 -0.364,0.122 -0.43,0.122 -0.07,0 -0.16,-0.055 -0.266,-0.164 -0.113,-0.137 -0.215,-0.329 -0.308,-0.575 -0.098,-0.246 -0.215,-0.699 -0.352,-1.359 -0.082,-0.324 -0.164,-0.633 -0.246,-0.922 -0.082,-0.285 -0.148,-0.484 -0.207,-0.594 -0.078,-0.164 -0.176,-0.433 -0.285,-0.8 -0.109,-0.372 -0.317,-1.141 -0.617,-2.321 -0.11,-0.437 -0.219,-0.847 -0.328,-1.23 -0.11,-0.383 -0.192,-0.629 -0.247,-0.739 -0.109,-0.277 -0.21,-0.597 -0.308,-0.964 -0.094,-0.372 -0.129,-0.571 -0.102,-0.598 0.028,0 0.125,-0.02 0.289,-0.059 0.164,-0.043 0.356,-0.089 0.575,-0.148 0.246,-0.051 0.531,-0.129 0.859,-0.223 0.328,-0.097 0.617,-0.172 0.863,-0.226 0.246,-0.082 0.508,-0.157 0.781,-0.227 0.274,-0.066 0.481,-0.113 0.614,-0.144 0.113,0 0.226,-0.02 0.351,-0.059 0.121,-0.043 0.2,-0.074 0.227,-0.102 0.051,-0.058 0.141,-0.089 0.266,-0.101 0.125,-0.016 0.32,-0.024 0.593,-0.024 0.219,0 0.489,-0.011 0.805,-0.039 0.312,-0.027 0.578,-0.07 0.797,-0.125 0.246,-0.027 0.473,-0.062 0.68,-0.101 0.207,-0.043 0.335,-0.063 0.39,-0.063 m 9.36,-4.023 c 0.628,-0.027 1.328,-0.016 2.093,0.039 0.766,0.059 1.207,0.125 1.313,0.207 0.058,0.055 0.117,0.254 0.187,0.598 0.067,0.339 0.157,0.812 0.266,1.414 0.027,0.191 0.082,0.5 0.164,0.925 0.082,0.422 0.164,0.813 0.246,1.168 0.109,0.629 0.246,1.387 0.41,2.278 0.164,0.89 0.422,2.429 0.781,4.621 0.083,0.41 0.172,0.957 0.266,1.64 0.094,0.684 0.184,1.286 0.27,1.809 0.082,0.547 0.168,1.094 0.265,1.641 0.098,0.547 0.172,0.929 0.227,1.148 0.137,0.684 0.281,1.528 0.429,2.528 0.149,1 0.309,2.25 0.473,3.753 0.027,0.301 0.07,0.618 0.125,0.946 0.051,0.328 0.094,0.574 0.121,0.738 0.055,0.305 0.117,0.773 0.184,1.418 0.07,0.645 0.172,1.609 0.308,2.895 0.028,0.437 0.067,0.89 0.122,1.355 0.058,0.465 0.113,0.793 0.164,0.984 0.054,0.465 0.078,0.774 0.062,0.926 -0.012,0.149 -0.086,0.266 -0.226,0.348 -0.133,0.082 -0.235,0.097 -0.305,0.039 -0.07,-0.055 -0.063,-0.152 0.019,-0.285 0.028,-0.082 0.039,-0.262 0.039,-0.535 0,-0.274 -0.039,-0.793 -0.121,-1.559 -0.027,-0.52 -0.07,-1.035 -0.125,-1.539 -0.054,-0.508 -0.093,-0.844 -0.121,-1.008 -0.027,-0.164 -0.062,-0.375 -0.105,-0.637 -0.039,-0.257 -0.071,-0.5 -0.102,-0.718 -0.027,-0.192 -0.054,-0.383 -0.082,-0.575 -0.027,-0.191 -0.051,-0.328 -0.078,-0.41 -0.031,-0.082 -0.059,-0.219 -0.086,-0.41 -0.027,-0.195 -0.055,-0.398 -0.082,-0.617 0,-0.219 -0.019,-0.442 -0.062,-0.676 -0.039,-0.234 -0.075,-0.406 -0.102,-0.512 -0.055,-0.113 -0.09,-0.214 -0.102,-0.308 -0.015,-0.098 -0.007,-0.145 0.02,-0.145 0.055,-0.109 0,-0.734 -0.164,-1.871 -0.164,-1.133 -0.301,-1.797 -0.41,-1.988 -0.028,-0.027 -0.055,-0.137 -0.082,-0.328 -0.028,-0.192 -0.055,-0.41 -0.082,-0.66 -0.028,-0.215 -0.055,-0.485 -0.082,-0.797 -0.028,-0.317 -0.071,-0.582 -0.125,-0.801 -0.028,-0.191 -0.051,-0.453 -0.078,-0.781 -0.028,-0.328 -0.059,-0.618 -0.086,-0.864 -0.028,-0.246 -0.055,-0.457 -0.082,-0.636 -0.024,-0.176 -0.051,-0.282 -0.082,-0.309 -0.028,-0.023 -0.047,-0.086 -0.059,-0.183 -0.016,-0.094 -0.035,-0.196 -0.063,-0.309 0,-0.078 -0.019,-0.231 -0.062,-0.449 -0.039,-0.219 -0.074,-0.426 -0.102,-0.618 l 0.082,0.536 c -0.054,-0.301 -0.117,-0.618 -0.187,-0.946 -0.066,-0.328 -0.156,-0.765 -0.266,-1.312 -0.054,-0.274 -0.109,-0.547 -0.16,-0.82 -0.058,-0.278 -0.098,-0.469 -0.125,-0.579 -0.027,-0.078 -0.062,-0.23 -0.105,-0.449 -0.039,-0.219 -0.075,-0.453 -0.102,-0.699 -0.027,-0.219 -0.066,-0.527 -0.121,-0.926 -0.059,-0.394 -0.125,-0.758 -0.207,-1.086 l 0.082,0.492 c -0.055,-0.382 -0.117,-0.785 -0.187,-1.211 -0.067,-0.425 -0.153,-0.937 -0.262,-1.539 -0.082,-0.628 -0.231,-1.355 -0.434,-2.175 -0.203,-0.821 -0.347,-1.258 -0.429,-1.317 -0.028,0 -0.075,-0.004 -0.145,-0.015 -0.07,-0.016 -0.145,-0.024 -0.227,-0.024 -0.082,0 -0.199,-0.012 -0.347,-0.039 -0.153,-0.027 -0.297,-0.058 -0.434,-0.086 -0.191,-0.055 -0.383,-0.086 -0.574,-0.101 -0.188,-0.012 -0.492,-0.004 -0.902,0.019 -0.629,0.027 -1.274,0.082 -1.93,0.168 -0.656,0.078 -1.246,0.164 -1.766,0.246 -0.437,0.082 -0.992,0.164 -1.664,0.242 -0.668,0.086 -1.359,0.153 -2.07,0.207 -0.277,0.028 -0.59,0.071 -0.945,0.125 -0.356,0.055 -0.629,0.11 -0.821,0.165 -0.41,0.109 -0.816,0.191 -1.211,0.246 -0.398,0.054 -1.089,0.121 -2.074,0.203 -0.355,0.031 -0.738,0.078 -1.152,0.144 -0.406,0.071 -0.75,0.129 -1.024,0.184 -0.246,0.027 -0.582,0.078 -1.007,0.144 -0.422,0.071 -0.801,0.133 -1.129,0.188 -0.328,0.051 -0.664,0.109 -1.004,0.164 -0.344,0.055 -0.598,0.105 -0.762,0.164 -0.355,0.109 -0.719,0.172 -1.086,0.184 -0.367,0.015 -0.555,-0.02 -0.555,-0.102 0,-0.082 0.055,-0.141 0.164,-0.164 0.11,-0.027 0.422,-0.098 0.946,-0.207 0.191,-0.027 0.402,-0.074 0.633,-0.145 0.234,-0.066 0.433,-0.14 0.597,-0.226 0.192,-0.078 0.418,-0.149 0.676,-0.203 0.262,-0.055 0.582,-0.11 0.965,-0.164 l 0.332,-0.043 c 0.355,-0.028 0.703,-0.067 1.043,-0.121 0.344,-0.055 0.613,-0.11 0.805,-0.164 0.902,-0.165 1.66,-0.29 2.277,-0.372 0.613,-0.082 1.719,-0.218 3.305,-0.41 0.82,-0.082 1.605,-0.172 2.359,-0.265 0.754,-0.098 1.254,-0.172 1.5,-0.227 0.492,-0.082 1.25,-0.191 2.277,-0.328 1.028,-0.137 1.719,-0.219 2.075,-0.246 m -3.493,1.887 c 0.715,-0.106 1.235,-0.157 1.563,-0.141 0.328,0.012 0.863,0.074 1.601,0.18 0.657,0.086 1.075,0.152 1.25,0.207 0.18,0.054 0.297,0.152 0.352,0.289 0.055,0.082 0.109,0.398 0.164,0.945 0.055,0.547 0.109,1.285 0.164,2.215 0.027,0.578 0.055,0.953 0.082,1.133 0.027,0.175 0.067,0.304 0.125,0.386 0.082,0.082 0.121,0.145 0.121,0.188 0,0.039 -0.027,0.086 -0.082,0.144 -0.054,0.051 -0.074,0.161 -0.062,0.325 0.015,0.164 0.129,0.793 0.347,1.886 l -0.121,-0.695 c 0.082,0.359 0.16,0.734 0.227,1.129 0.066,0.398 0.156,0.938 0.265,1.621 0.055,0.246 0.102,0.461 0.145,0.637 0.039,0.18 0.074,0.293 0.102,0.351 0.027,0.028 0.082,0.055 0.164,0.079 0.082,0.027 0.164,0.042 0.246,0.042 0.218,0.032 0.406,0.09 0.554,0.184 0.153,0.098 0.27,0.242 0.348,0.434 0.027,0.054 0.09,0.289 0.188,0.699 0.093,0.41 0.183,0.859 0.265,1.351 0.192,1.098 0.317,1.817 0.371,2.157 0.055,0.343 0.082,0.664 0.082,0.965 0,0.136 0.004,0.265 0.02,0.39 0.012,0.121 0.035,0.211 0.062,0.266 0.051,0.086 0.121,0.461 0.203,1.129 0.086,0.672 0.262,2.211 0.536,4.621 0.136,1.34 0.25,2.324 0.347,2.953 0.098,0.633 0.172,1.07 0.227,1.312 0.027,0.086 0.047,0.188 0.062,0.313 0.012,0.121 0.035,0.226 0.063,0.305 0,0.086 0.004,0.214 0.019,0.39 0.012,0.18 0.036,0.352 0.059,0.516 0.027,0.164 0.059,0.457 0.086,0.879 0.027,0.426 0.055,0.844 0.082,1.254 0.051,0.851 0.062,1.336 0.019,1.457 -0.039,0.125 -0.253,0.226 -0.636,0.308 -0.11,0.028 -0.246,0.063 -0.41,0.102 -0.164,0.043 -0.286,0.09 -0.368,0.144 -0.14,0.032 -0.324,0.063 -0.558,0.106 -0.231,0.039 -0.5,0.07 -0.797,0.101 -0.715,0.055 -1.254,0.102 -1.621,0.145 -0.371,0.039 -1.129,0.156 -2.281,0.348 -1.016,0.191 -1.829,0.347 -2.442,0.472 -0.617,0.121 -1.078,0.239 -1.375,0.348 -0.086,0.055 -0.234,0.098 -0.453,0.125 -0.219,0.023 -0.437,0.055 -0.656,0.082 -0.985,0.105 -1.641,0.184 -1.973,0.223 -0.328,0.043 -0.629,0.101 -0.902,0.187 -0.274,0.082 -0.68,0.137 -1.211,0.164 -0.535,0.028 -1.813,0.094 -3.84,0.203 -0.574,0.032 -1.012,0.059 -1.313,0.086 -0.3,0.024 -0.507,0.067 -0.617,0.121 -0.164,0.082 -0.441,0.157 -0.84,0.227 -0.398,0.066 -0.64,0.09 -0.718,0.062 -0.082,-0.031 -0.153,-0.152 -0.207,-0.371 -0.051,-0.218 -0.11,-0.535 -0.164,-0.945 0,-0.246 -0.012,-0.438 -0.039,-0.574 -0.028,-0.137 -0.071,-0.231 -0.125,-0.289 -0.055,-0.028 -0.086,-0.09 -0.102,-0.184 -0.016,-0.094 -0.02,-0.211 -0.02,-0.348 0,-0.113 -0.007,-0.242 -0.023,-0.39 -0.012,-0.149 -0.031,-0.266 -0.059,-0.348 -0.031,-0.082 -0.062,-0.262 -0.105,-0.535 -0.039,-0.273 -0.086,-0.563 -0.145,-0.863 -0.023,-0.274 -0.066,-0.539 -0.121,-0.801 -0.054,-0.258 -0.082,-0.414 -0.082,-0.469 -0.027,-0.086 -0.062,-0.332 -0.101,-0.742 -0.043,-0.41 -0.074,-0.859 -0.106,-1.355 -0.054,-0.985 -0.109,-1.704 -0.16,-2.153 -0.058,-0.453 -0.125,-0.816 -0.207,-1.09 -0.027,-0.082 -0.07,-0.254 -0.125,-0.511 -0.051,-0.262 -0.094,-0.528 -0.121,-0.801 -0.027,-0.278 -0.063,-0.555 -0.102,-0.844 -0.043,-0.285 -0.078,-0.484 -0.101,-0.594 0,-0.136 -0.024,-0.328 -0.063,-0.574 -0.043,-0.246 -0.062,-0.48 -0.062,-0.699 -0.027,-0.219 -0.063,-0.543 -0.102,-0.965 -0.043,-0.426 -0.09,-0.828 -0.144,-1.211 -0.164,-1.426 -0.293,-2.476 -0.391,-3.16 -0.098,-0.684 -0.238,-1.574 -0.43,-2.672 -0.085,-0.355 -0.152,-0.695 -0.207,-1.023 -0.054,-0.328 -0.082,-0.547 -0.082,-0.66 -0.027,-0.137 -0.054,-0.293 -0.082,-0.469 -0.027,-0.18 -0.054,-0.324 -0.082,-0.434 -0.027,-0.109 -0.054,-0.254 -0.082,-0.43 -0.027,-0.175 -0.043,-0.335 -0.043,-0.472 -0.027,-0.137 -0.054,-0.301 -0.078,-0.492 -0.031,-0.192 -0.058,-0.34 -0.086,-0.453 -0.027,-0.11 -0.066,-0.376 -0.121,-0.797 -0.055,-0.426 -0.097,-0.887 -0.125,-1.375 -0.027,-0.496 -0.062,-0.961 -0.101,-1.399 -0.039,-0.437 -0.075,-0.711 -0.102,-0.82 -0.027,-0.137 -0.051,-0.274 -0.062,-0.41 -0.016,-0.141 -0.036,-0.235 -0.063,-0.289 0,-0.082 -0.019,-0.164 -0.062,-0.246 -0.04,-0.082 -0.075,-0.149 -0.102,-0.204 -0.109,-0.136 -0.16,-0.222 -0.145,-0.25 0.016,-0.027 0.075,-0.054 0.188,-0.082 0.383,-0.082 1.559,-0.211 3.527,-0.386 1.973,-0.18 3,-0.242 3.082,-0.188 0,0.028 -0.007,0.059 -0.019,0.086 -0.016,0.024 -0.051,0.039 -0.106,0.039 -0.082,0.028 -0.414,0.11 -1.007,0.246 -0.586,0.137 -1.223,0.274 -1.907,0.41 -0.437,0.11 -0.765,0.192 -0.984,0.247 -0.219,0.054 -0.387,0.109 -0.492,0.164 -0.082,0.054 -0.145,0.136 -0.188,0.246 -0.039,0.113 -0.019,0.207 0.063,0.289 0,0.027 0.027,0.101 0.082,0.222 0.054,0.125 0.097,0.27 0.125,0.434 0.051,0.137 0.113,0.301 0.183,0.492 0.071,0.192 0.118,0.344 0.145,0.453 0.055,0.11 0.109,0.242 0.164,0.41 0.055,0.165 0.082,0.301 0.082,0.411 0.027,0.273 0.137,0.785 0.328,1.539 0.191,0.754 0.426,1.582 0.699,2.484 l -2.425,-9.484 c 0.191,0.656 0.488,1.711 0.882,3.16 0.399,1.453 1.293,4.887 2.688,10.308 0.332,1.204 0.562,1.997 0.703,2.379 0.133,0.383 0.246,0.602 0.324,0.657 0.031,0 0.098,-0.012 0.207,-0.039 0.11,-0.028 0.235,-0.059 0.371,-0.086 0.11,-0.055 0.274,-0.106 0.492,-0.164 0.219,-0.051 0.411,-0.094 0.575,-0.122 0.191,-0.027 0.398,-0.074 0.617,-0.144 0.219,-0.067 0.383,-0.129 0.492,-0.184 0.137,-0.054 0.328,-0.109 0.574,-0.164 0.246,-0.054 0.465,-0.097 0.657,-0.125 0.218,-0.027 0.472,-0.078 0.757,-0.16 0.289,-0.086 0.543,-0.152 0.762,-0.211 0.219,-0.078 0.426,-0.144 0.617,-0.203 0.188,-0.055 0.313,-0.082 0.367,-0.082 0.028,0 0.102,-0.012 0.227,-0.039 0.125,-0.027 0.254,-0.059 0.391,-0.082 0.109,-0.055 0.316,-0.117 0.613,-0.188 0.305,-0.066 0.605,-0.14 0.906,-0.222 0.629,-0.137 1.25,-0.289 1.867,-0.453 0.618,-0.164 0.95,-0.274 1.004,-0.328 0.059,-0.028 0.051,-0.219 -0.015,-0.575 -0.071,-0.359 -0.176,-0.765 -0.309,-1.234 -0.113,-0.383 -0.269,-0.965 -0.473,-1.742 -0.207,-0.782 -0.379,-1.43 -0.515,-1.953 -0.055,-0.215 -0.117,-0.43 -0.184,-0.633 -0.07,-0.207 -0.113,-0.352 -0.144,-0.434 -0.055,-0.082 -0.102,-0.199 -0.145,-0.347 -0.039,-0.153 -0.062,-0.282 -0.062,-0.391 -0.051,-0.574 -0.168,-1.195 -0.348,-1.867 -0.176,-0.672 -0.391,-1.309 -0.633,-1.91 -0.086,-0.219 -0.168,-0.457 -0.25,-0.719 -0.082,-0.262 -0.148,-0.473 -0.203,-0.637 -0.059,-0.137 -0.109,-0.281 -0.164,-0.43 -0.059,-0.148 -0.098,-0.254 -0.125,-0.308 -0.027,-0.055 -0.047,-0.106 -0.063,-0.145 -0.011,-0.039 -0.003,-0.074 0.024,-0.101 0.023,-0.028 0.176,-0.055 0.449,-0.082 0.274,-0.028 0.59,-0.071 0.945,-0.125 0.383,-0.028 0.809,-0.067 1.274,-0.121 0.465,-0.055 0.836,-0.098 1.105,-0.125"
           style="fill:#21201d;fill-opacity:1;fill-rule:nonzero;stroke:none"
           id="path576" />
      </g>
    </g>
  </g>
</svg>
