<?xml version="1.0" encoding="UTF-8" standalone="no"?>
<!-- Created with Inkscape (http://www.inkscape.org/) -->

<svg
   width="6.9992528mm"
   height="4.9856944mm"
   viewBox="0 0 6.9992528 4.9856944"
   version="1.1"
   id="svg1715"
   inkscape:version="1.1.2 (0a00cf5339, 2022-02-04)"
   sodipodi:docname="on_thin_ice.svg"
   xmlns:inkscape="http://www.inkscape.org/namespaces/inkscape"
   xmlns:sodipodi="http://sodipodi.sourceforge.net/DTD/sodipodi-0.dtd"
   xmlns="http://www.w3.org/2000/svg"
   xmlns:svg="http://www.w3.org/2000/svg">
  <sodipodi:namedview
     id="namedview1717"
     pagecolor="#ffffff"
     bordercolor="#666666"
     borderopacity="1.0"
     inkscape:pageshadow="2"
     inkscape:pageopacity="0.0"
     inkscape:pagecheckerboard="0"
     inkscape:document-units="mm"
     showgrid="false"
     inkscape:zoom="0.64052329"
     inkscape:cx="12.489788"
     inkscape:cy="10.147953"
     inkscape:window-width="2560"
     inkscape:window-height="1376"
     inkscape:window-x="0"
     inkscape:window-y="0"
     inkscape:window-maximized="1"
     inkscape:current-layer="layer1" />
  <defs
     id="defs1712" />
  <g
     inkscape:label="Layer 1"
     inkscape:groupmode="layer"
     id="layer1"
     transform="translate(-101.42173,-146.00679)">
    <path
       d="m 108.01394,149.58113 c -0.005,-0.003 -0.0107,-0.004 -0.0158,-0.004 -0.006,0 -0.0107,10e-4 -0.0158,0.004 -0.006,0.003 -0.0107,0.007 -0.0164,0.0123 0,0.006 0.003,0.009 0.008,0.0122 0.006,0.003 0.0136,0.004 0.0243,0.004 0.0109,0 0.0188,-7.4e-4 0.0245,-0.004 0.005,-0.003 0.005,-0.006 0,-0.0122 0,-0.006 -0.003,-0.009 -0.009,-0.0123 m 0.16105,-3.53373 c 0.0109,-0.0107 0.0446,-0.0179 0.10068,-0.0201 0.0561,-0.003 0.095,0.001 0.11651,0.0121 0.0166,0.0101 0.0252,0.0374 0.028,0.0799 0.003,0.0431 -7.1e-4,0.10491 -0.0114,0.18479 -0.0116,0.0488 -0.0208,0.12001 -0.0287,0.21351 -0.008,0.0942 -0.0151,0.18627 -0.0202,0.27683 -0.005,0.092 -0.0129,0.20412 -0.0238,0.33866 -0.0107,0.0158 -0.025,0.11357 -0.0445,0.29321 -0.0186,0.17908 -0.0331,0.35523 -0.0438,0.52714 -0.0109,0.28326 -0.0281,0.59892 -0.0525,0.94403 -0.0245,0.34566 -0.0418,0.55641 -0.0525,0.63187 -0.021,0.12295 -0.0425,0.20633 -0.064,0.24885 -0.0216,0.0431 -0.0539,0.0589 -0.0965,0.0488 -0.0107,-0.006 -0.0243,-0.01 -0.0401,-0.0129 -0.0166,-0.002 -0.0302,-0.006 -0.0403,-0.0114 -0.0215,0 -0.0366,-0.006 -0.0446,-0.0158 -0.008,-0.0109 -0.0144,-0.0302 -0.0202,-0.0569 -0.006,-0.0374 -10e-4,-0.1581 0.0123,-0.36167 0.0136,-0.20412 0.025,-0.35376 0.0366,-0.45002 0.005,-0.0324 0.0101,-0.0663 0.0158,-0.10068 0.005,-0.0351 0.008,-0.0604 0.008,-0.0762 0.005,-0.0223 0.009,-0.0569 0.0114,-0.10491 0.004,-0.0482 0.0101,-0.0992 0.021,-0.15314 0.005,-0.0532 0.0144,-0.16694 0.028,-0.34161 0.0129,-0.17394 0.0252,-0.35799 0.0359,-0.5507 0.0109,-0.19345 0.023,-0.37254 0.0361,-0.53856 0.0136,-0.16602 0.0251,-0.26817 0.0366,-0.30553 0.005,-0.0431 0.0136,-0.10492 0.0245,-0.1848 0.01,-0.0804 0.0186,-0.15608 0.0237,-0.22584 0.006,-0.0854 0.0121,-0.1524 0.0201,-0.20043 0.008,-0.049 0.0173,-0.0777 0.028,-0.0885 m -1.91381,4.27788 c -0.0109,-0.0265 -0.0245,-0.0401 -0.0403,-0.0401 -0.0158,0 -0.0403,0.0107 -0.072,0.0322 -0.0488,0.0317 -0.0767,0.0561 -0.0847,0.072 -0.008,0.0166 -0.001,0.0351 0.0201,0.0561 0.0215,0.0272 0.0475,0.0401 0.0762,0.0401 0.0294,0 0.0574,-0.008 0.0849,-0.0236 0.0208,-0.0166 0.0331,-0.0361 0.0359,-0.0606 0.003,-0.0243 -0.004,-0.0495 -0.0201,-0.0762 m -1.08575,-4.22965 0.15314,0.008 c 0.0375,0.006 0.17264,0.0107 0.40621,0.0158 0.23301,0.006 0.4918,0.0107 0.77579,0.0166 0.55217,0.006 0.91679,0.0121 1.09366,0.0201 0.17688,0.008 0.27609,0.0201 0.29762,0.0359 0.0215,0.0109 0.0359,0.0468 0.0438,0.1086 0.009,0.0618 0.009,0.13307 0.004,0.2135 l -0.0166,0.12811 -0.0885,0.009 c -0.0532,0.005 -0.19473,0.01 -0.42553,0.0156 -0.23081,0.005 -0.48039,0.009 -0.74782,0.0123 -0.26817,0.003 -0.52052,0.003 -0.75629,0.003 -0.23578,0 -0.38321,-0.003 -0.4421,-0.007 -0.17117,-0.0114 -0.26817,-0.0258 -0.28916,-0.0445 -0.0223,-0.0186 -0.0329,-0.0906 -0.0329,-0.21351 0,-0.0532 0.002,-0.10712 0.004,-0.16031 0.003,-0.0539 0.006,-0.0891 0.0121,-0.10492 z m -0.0322,0.89231 0.0164,-0.1605 h 2.74225 l 0.008,0.0965 c 0.0107,0.0804 0.0151,0.14227 0.0114,0.18479 -0.002,0.0431 -0.0114,0.0755 -0.028,0.0963 -0.0158,0.0215 -0.0388,0.0353 -0.0683,0.0403 -0.0287,0.006 -0.095,0.0109 -0.19694,0.0166 -0.064,0.005 -0.22362,0.009 -0.47817,0.0121 -0.25455,0.002 -0.54573,7.4e-4 -0.87206,-0.004 l -1.11814,-0.008 -0.0164,-0.0569 c -0.005,-0.0158 -0.007,-0.0453 -0.004,-0.0883 0.003,-0.0433 0.004,-0.0856 0.004,-0.12866 m -0.0237,2.54147 v -0.19344 l 0.36166,0.009 c 0.097,0.005 0.26817,0.0101 0.51462,0.0151 0.24664,0.006 0.49548,0.0109 0.74783,0.0166 0.30553,0.006 0.5356,0.0109 0.69168,0.0158 0.15534,0.006 0.23872,0.0136 0.24939,0.0245 0.0216,0.005 0.0331,0.0158 0.0361,0.0324 0.003,0.0158 10e-4,0.048 -0.004,0.0963 -0.005,0.0317 -0.009,0.0633 -0.0121,0.0928 -0.002,0.0294 -0.004,0.0517 -0.004,0.0683 v 0.0482 h -0.59523 c -0.26744,0 -0.44229,-0.001 -0.52272,-0.004 -0.0806,-0.003 -0.14964,-0.0121 -0.20854,-0.028 -0.0755,-0.0215 -0.14595,-0.0331 -0.2135,-0.0366 -0.0668,-0.002 -0.11872,0.004 -0.15608,0.0208 -0.0322,0.0101 -0.14007,0.0201 -0.3221,0.0274 -0.18258,0.008 -0.31915,0.007 -0.41045,-0.004 l -0.15239,-0.008 z m 0.0165,-1.32724 0.0151,-0.0403 1.17465,0.009 c 0.62192,0 1.02096,0.004 1.19784,0.0116 0.17687,0.008 0.27608,0.0201 0.29761,0.0359 0.0158,0.0109 0.0252,0.026 0.0282,0.0445 0.003,0.0188 -0.001,0.0604 -0.0123,0.12442 -0.0158,0.0913 -0.0309,0.15461 -0.0438,0.18903 -0.0136,0.0346 -0.0366,0.0606 -0.0683,0.0764 -0.0272,0.0107 -0.11006,0.0136 -0.24958,0.008 -0.13933,-0.006 -0.27314,-0.0164 -0.40179,-0.0322 -0.0539,-0.0109 -0.17044,-0.018 -0.35008,-0.0202 -0.17908,-0.003 -0.41136,-0.004 -0.69536,-0.004 -0.42922,0 -0.68377,-0.002 -0.7642,-0.008 -0.0799,-0.005 -0.12295,-0.0158 -0.12792,-0.0324 -0.0116,-0.0265 -0.0166,-0.0871 -0.0166,-0.18038 0,-0.0942 0.005,-0.15461 0.0166,-0.1813 m 0.0394,-0.73899 c 0.0109,-0.006 0.0942,-0.009 0.24958,-0.009 0.15019,-0.006 0.33351,-0.008 0.55069,-0.008 h 0.68727 c 0.24166,0.005 0.45885,0.008 0.65211,0.008 l 0.55438,0.0158 v 0.22492 c 0,0.0863 -0.002,0.14596 -0.008,0.18203 -0.006,0.0344 -0.0107,0.0574 -0.0166,0.0676 -0.0208,0.0158 -0.12424,0.028 -0.30903,0.0366 -0.18479,0.008 -0.59394,0.0114 -1.226,0.0114 -0.43492,0.006 -0.73401,0.007 -0.89727,0.004 -0.16307,-0.003 -0.25087,-0.009 -0.26154,-0.0201 -0.0101,-0.0109 -0.0195,-0.0791 -0.0274,-0.20578 -0.009,-0.12571 -0.007,-0.20707 0.004,-0.24443 0,-0.0107 0.006,-0.023 0.0158,-0.0366 0.0114,-0.0129 0.0223,-0.023 0.0322,-0.0272 m 0.3221,1.26963 c 0.20927,-0.005 0.41781,-0.005 0.62708,0 0.20909,0.005 0.38597,0.0166 0.53045,0.0324 0.0698,0.005 0.164,0.0107 0.28198,0.0158 0.11779,0.006 0.23577,0.008 0.35375,0.008 0.16031,0 0.26743,0.004 0.32136,0.009 0.0539,0.005 0.0834,0.0136 0.0884,0.0236 0.0158,0.0109 0.0215,0.0821 0.0158,0.21369 -0.005,0.13161 -0.0158,0.20781 -0.0316,0.22934 -0.0107,0.0158 -0.0604,0.0258 -0.14872,0.0317 -0.0885,0.006 -0.17338,0.003 -0.25308,-0.008 -0.0433,-0.005 -0.17485,-0.0131 -0.3948,-0.0237 -0.21921,-0.0116 -0.46308,-0.0195 -0.73125,-0.0245 -0.26817,-0.006 -0.501,-0.0121 -0.69942,-0.0201 -0.19841,-0.008 -0.30056,-0.0151 -0.30627,-0.0203 -0.0101,0 -0.0195,-0.005 -0.0274,-0.0158 -0.009,-0.0107 -0.0151,-0.0245 -0.0201,-0.0403 -0.006,-0.0273 -10e-4,-0.0926 0.0114,-0.19768 0.0136,-0.10418 0.026,-0.16455 0.0361,-0.18038 0.006,-0.005 0.0394,-0.0109 0.10049,-0.0158 0.0619,-0.006 0.14394,-0.0116 0.2459,-0.0166 m -1.37527,1.57609 c 0.0107,-0.005 0.0856,-0.0101 0.22566,-0.0158 0.13877,-0.005 0.29982,-0.008 0.48241,-0.008 h 0.6672 l 0.0238,0.048 c 0.0109,0.0374 0.0123,0.0828 0.004,0.13675 -0.007,0.0537 -0.0195,0.0883 -0.0353,0.10492 -0.0164,0.0101 -0.0567,0.0173 -0.12074,0.0193 -0.0646,0.003 -0.1905,10e-4 -0.37823,-0.003 -0.41266,-0.0109 -0.6499,-0.0203 -0.71175,-0.0287 -0.0618,-0.008 -0.10859,-0.0304 -0.1408,-0.0677 -0.0374,-0.0374 -0.0576,-0.0747 -0.0598,-0.11282 -0.003,-0.0374 0.0116,-0.0618 0.044,-0.0725 m 0.64346,-4.28597 c 0.0158,-0.0107 0.0423,-0.0164 0.0797,-0.0164 0.0381,0 0.0734,0.003 0.10509,0.008 0.0107,0.006 0.0216,0.0145 0.0324,0.0282 0.0107,0.0136 0.0186,0.0287 0.0236,0.0438 0.006,0.0166 0.009,0.21001 0.009,0.57942 0,0.36958 -0.003,0.77727 -0.009,1.22232 -0.005,0.44506 -0.0107,0.85495 -0.0158,1.23025 -0.005,0.37529 -0.0107,0.57647 -0.0157,0.60315 -0.006,0.0215 -0.0123,0.0388 -0.021,0.0517 -0.007,0.0136 -0.0193,0.023 -0.0351,0.0289 -0.0166,0.0107 -0.0223,0.0171 -0.0166,0.0201 0.005,0.002 0.0295,0.006 0.0727,0.0121 0.0265,0.005 0.0762,0.009 0.14872,0.0116 0.072,0.003 0.14301,0.004 0.21277,0.004 0.15534,0 0.25897,0.004 0.30921,0.0123 0.051,0.008 0.0799,0.023 0.0849,0.0438 0.005,0.0215 0.0136,0.0324 0.0237,0.0324 0.0109,0 0.0324,-0.0138 0.0646,-0.0403 0.0217,-0.0166 0.0757,-0.0403 0.16123,-0.072 0.0854,-0.0322 0.14449,-0.0488 0.1767,-0.0488 0.0217,0 0.0777,0.023 0.16896,0.0683 0.0907,0.046 0.16105,0.0848 0.20854,0.11651 0.0482,0.0431 0.0799,0.0646 0.0928,0.0646 0.0136,0 0.009,-0.0186 -0.0121,-0.0561 -0.0109,-0.0215 -0.0158,-0.0366 -0.0158,-0.0446 0,-0.008 0.005,-0.0171 0.0158,-0.028 0.006,-0.006 0.079,-0.008 0.22142,-0.008 h 0.51039 c 0.28474,0 0.47321,0.002 0.56726,0.008 0.0935,0.005 0.14596,0.0129 0.15682,0.0237 0.0107,0.0215 0.0186,0.0596 0.0237,0.11283 0.006,0.0539 0.003,0.0863 -0.008,0.0972 -0.0109,0.01 -0.19841,0.0151 -0.56303,0.0151 -0.36443,0 -0.60039,-0.005 -0.70751,-0.0151 l -0.12866,-0.009 0.0324,0.12074 c 0.0267,0.0804 0.0403,0.15664 0.0403,0.2286 0,0.0734 -0.0136,0.13087 -0.0403,0.1732 -0.0215,0.0482 -0.0633,0.10363 -0.12516,0.16547 -0.0611,0.0611 -0.11632,0.10491 -0.16454,0.13234 -0.0747,0.0374 -0.16621,0.0532 -0.27333,0.048 -0.10712,-0.006 -0.20117,-0.0294 -0.28179,-0.0718 -0.0532,-0.0324 -0.10638,-0.0863 -0.16104,-0.16105 -0.0532,-0.0747 -0.0876,-0.14246 -0.10418,-0.20136 -0.0109,-0.0482 -0.0158,-0.0871 -0.0158,-0.11724 0,-0.0287 0.008,-0.0782 0.0245,-0.14798 0.01,-0.0433 0.0186,-0.0806 0.0237,-0.11302 0.006,-0.0322 0.006,-0.0473 0,-0.0473 0,-0.006 -0.0274,-0.007 -0.0806,-0.004 -0.0532,0.002 -0.11798,0.006 -0.19271,0.0116 -0.0698,0.006 -0.18111,0.0114 -0.33424,0.0164 -0.1524,0.005 -0.29836,0.0109 -0.43787,0.0158 l -0.51481,0.008 -0.064,-0.0963 c -0.0431,-0.0641 -0.071,-0.1143 -0.0841,-0.1489 -0.0136,-0.0344 -0.0179,-0.0547 -0.0121,-0.0604 0.005,-0.005 0.0438,-0.0101 0.11651,-0.0158 0.0718,-0.005 0.15663,-0.008 0.25308,-0.008 0.0963,-0.005 0.18111,-0.0107 0.25308,-0.0158 0.0725,-0.006 0.11135,-0.0114 0.1165,-0.0166 0.0107,-0.0156 0.023,-0.20486 0.0366,-0.56653 0.0136,-0.36223 0.0171,-0.65286 0.0121,-0.8728 -0.006,-0.12792 -0.007,-0.27885 -0.004,-0.45003 0.003,-0.17191 0.006,-0.34879 0.0121,-0.53137 0.005,-0.15535 0.0109,-0.32634 0.0158,-0.51407 0.006,-0.18756 0.008,-0.33499 0.008,-0.44211 -0.005,-0.18259 -0.006,-0.29486 -0.004,-0.33793 0.004,-0.0425 0.0129,-0.0698 0.0287,-0.0806 m -1.24606,4.24566 c -0.0322,-0.0101 -0.0596,-0.0158 -0.0804,-0.0158 -0.0215,0 -0.049,0.0107 -0.0806,0.0324 -0.0381,0.0215 -0.0596,0.0453 -0.0646,0.0725 -0.005,0.026 0.003,0.0532 0.0245,0.0806 0.0208,0.0317 0.0495,0.0473 0.0841,0.0473 0.0351,0 0.0683,-0.0129 0.10049,-0.0401 0.0482,-0.0374 0.0742,-0.0705 0.0764,-0.1 0.003,-0.0294 -0.0173,-0.0554 -0.0598,-0.0769 m -0.41835,-0.4099 c 0.0423,-0.0215 0.0791,-0.0352 0.10859,-0.0403 0.0295,-0.005 0.092,-0.005 0.18903,0 0.0856,0 0.14743,0.004 0.18479,0.0123 0.0374,0.009 0.0777,0.023 0.12074,0.0438 0.0641,0.0324 0.11724,0.0734 0.16031,0.12074 0.0433,0.0482 0.0777,0.11007 0.1051,0.18479 0.0423,0.12885 0.0468,0.25897 0.0114,0.39039 -0.0344,0.1316 -0.0999,0.22934 -0.19693,0.29339 -0.0583,0.0433 -0.11357,0.0698 -0.16473,0.0806 -0.051,0.0107 -0.12425,0.0158 -0.22069,0.0158 -0.097,-0.005 -0.18037,-0.021 -0.24939,-0.0482 -0.0698,-0.0267 -0.13087,-0.0697 -0.18553,-0.12865 -0.0583,-0.0532 -0.0972,-0.10712 -0.11577,-0.16032 -0.0188,-0.0539 -0.0287,-0.1316 -0.0287,-0.23375 0,-0.0482 0.003,-0.0977 0.008,-0.14817 0.006,-0.051 0.0107,-0.0849 0.0164,-0.10123 0.0158,-0.0532 0.0482,-0.10712 0.0964,-0.1605 0.0482,-0.0539 0.10215,-0.0933 0.16104,-0.12074 m -0.9893,-0.38597 v -0.19271 l 0.11283,0.008 c 0.0316,0.006 0.16105,0.0107 0.38615,0.0158 0.22491,0.006 0.47946,0.0107 0.76346,0.0164 0.28971,0.005 0.5415,0.0109 0.75574,0.0158 0.21497,0.005 0.33001,0.0109 0.34584,0.0158 0.0381,0.006 0.0611,0.021 0.0683,0.0447 0.008,0.0243 0.009,0.0841 0.004,0.18038 0,0.0648 -0.003,0.10344 -0.008,0.11724 -0.006,0.0136 -0.0186,0.0223 -0.0403,0.028 -0.0374,0.0109 -0.15516,0.0158 -0.35357,0.0158 -0.1986,0 -0.35173,-0.005 -0.45885,-0.0158 -0.12866,-0.0158 -0.24517,-0.0245 -0.34934,-0.0245 -0.10492,0 -0.22934,0.009 -0.37456,0.0245 -0.0583,0.005 -0.14025,0.009 -0.24442,0.0116 -0.1051,0.003 -0.19989,0.004 -0.28547,0.004 -0.17762,0 -0.27535,-0.008 -0.29339,-0.0237 -0.0186,-0.0166 -0.0287,-0.0963 -0.0287,-0.24149 m 0.10491,-0.75574 c 0.14964,-0.0107 0.42205,-0.0144 0.81611,-0.0122 0.39388,0.003 0.6442,0.009 0.75132,0.0201 0.0697,0 0.15589,0.004 0.25804,0.0121 0.10142,0.008 0.18977,0.0145 0.26541,0.0202 0.0955,0.005 0.16602,0.0107 0.20835,0.0158 0.0433,0.006 0.0677,0.0136 0.0727,0.0245 0.0109,0.01 0.0136,0.0718 0.008,0.18479 -0.006,0.11209 -0.0109,0.18185 -0.0158,0.20909 -0.006,0.005 -0.11798,0.0109 -0.33866,0.0158 -0.21921,0.006 -0.46585,0.008 -0.73917,0.008 -0.27314,0 -0.5334,-0.002 -0.78003,-0.008 -0.24149,-0.005 -0.38321,-0.0107 -0.42628,-0.0158 -0.0697,-0.0107 -0.12074,-0.0287 -0.15239,-0.0525 -0.0324,-0.0237 -0.0561,-0.0604 -0.0727,-0.10859 -0.0107,-0.0374 -0.0158,-0.0913 -0.0158,-0.16105 0,-0.0698 0.005,-0.11209 0.0158,-0.12792 0.006,-0.006 0.0216,-0.0109 0.0482,-0.0166 0.0272,-0.006 0.0596,-0.008 0.097,-0.008 m -0.0804,-0.60316 c 0.0431,-0.005 0.18903,-0.008 0.43787,-0.008 0.2494,0 0.49161,0.005 0.72757,0.0158 0.1178,0.006 0.25879,0.0107 0.42205,0.0166 0.1638,0.005 0.30185,0.0107 0.41412,0.0158 0.11283,0.006 0.21056,0.0107 0.29394,0.0164 0.0828,0.005 0.12737,0.008 0.13234,0.008 0.006,0.005 0.0101,0.0294 0.0121,0.0727 0.003,0.0423 0.007,0.0906 0.0124,0.14448 v 0.19271 l -0.0482,0.0158 c -0.0265,0.006 -0.1178,0.004 -0.27314,-0.004 -0.15535,-0.009 -0.34585,-0.0201 -0.57168,-0.0366 -0.12295,-0.0109 -0.24866,-0.0173 -0.37732,-0.0193 -0.12884,-0.003 -0.31363,-0.001 -0.55511,0.003 -0.31069,0.005 -0.50118,0.005 -0.57094,0 -0.0698,-0.005 -0.11504,-0.0237 -0.13657,-0.0561 -0.0107,-0.0157 -0.0165,-0.0762 -0.0165,-0.18111 0,-0.10418 0.009,-0.15958 0.0245,-0.16455 0.006,-0.006 0.0144,-0.0109 0.028,-0.0158 0.0138,-0.006 0.0281,-0.0109 0.0447,-0.0166 m -0.15313,-0.41854 v -0.20854 h 1.27827 c 0.40768,-0.006 0.72408,-0.006 0.94899,-0.004 0.2251,0.003 0.34087,0.006 0.34585,0.0121 0.0109,0.0109 0.018,0.0361 0.0201,0.0764 0.003,0.0401 10e-4,0.10344 -0.004,0.18902 v 0.24075 h -0.27314 c -0.11798,0 -0.37897,-0.006 -0.78372,-0.0193 -0.40474,-0.0136 -0.80303,-0.026 -1.19415,-0.0366 -0.0756,-0.005 -0.14172,-0.0101 -0.20136,-0.0158 -0.0589,-0.005 -0.0935,-0.008 -0.10436,-0.008 -0.006,-0.006 -0.0107,-0.0252 -0.0164,-0.0604 -0.004,-0.0346 -0.0101,-0.09 -0.0158,-0.16547 m 2.25892,-0.8763 c 0.19344,-0.0267 0.30204,-0.0331 0.32652,-0.0203 0.0236,0.0136 0.0359,0.0821 0.0359,0.20559 0,0.12884 -0.004,0.21149 -0.0123,0.24885 -0.008,0.0381 -0.0302,0.0589 -0.0683,0.0648 -0.0158,0.005 -0.15737,0.008 -0.42554,0.008 -0.26817,-0.005 -0.55935,-0.009 -0.8728,-0.0123 -0.31344,-0.002 -0.60186,-0.009 -0.86432,-0.0201 -0.26228,-0.005 -0.39683,-0.0109 -0.40253,-0.0158 -0.0151,-0.0109 -0.0316,-0.0791 -0.0482,-0.20504 -0.0158,-0.12645 -0.018,-0.194 -0.008,-0.20486 0,-0.006 0.10639,-0.01 0.31787,-0.0121 0.21203,-0.003 0.46216,-0.004 0.75205,-0.004 0.42333,0 0.71966,-0.002 0.88789,-0.008 0.16896,-0.006 0.29688,-0.0129 0.38173,-0.0243 m -2.26683,-0.74709 h 0.27387 c 0.064,0 0.22216,0.002 0.47376,0.007 0.25235,0.006 0.52272,0.008 0.81169,0.008 0.29044,0.006 0.53781,0.0101 0.74414,0.0129 0.20706,0.002 0.30995,0.006 0.30995,0.0116 0,0.006 0.002,0.0324 0.008,0.0804 0.006,0.0482 0.0129,0.10712 0.0245,0.17688 0.005,0.0749 0.009,0.13602 0.0114,0.1813 0.003,0.0453 0.001,0.0703 -0.004,0.0762 -0.006,0.006 -0.0453,0.0107 -0.12093,0.0158 -0.0747,0.006 -0.16307,0.009 -0.26596,0.009 -0.22436,0.005 -0.46308,0.01 -0.71469,0.0156 -0.24719,0.005 -0.47726,0.0109 -0.69168,0.0158 -0.21424,0.006 -0.39167,0.0109 -0.53045,0.0166 -0.14522,0.005 -0.22584,0.008 -0.24167,0.008 -0.0589,0.0158 -0.10215,-0.006 -0.12865,-0.0683 -0.0267,-0.0618 -0.0403,-0.17044 -0.0403,-0.3256 0,-0.10215 0.004,-0.16473 0.0123,-0.18921 0.008,-0.0238 0.0309,-0.0416 0.0683,-0.0517 m -0.28547,1.66812 c -0.003,-0.003 -0.006,-0.004 -0.0116,-0.004 -0.006,0 -0.0114,0.002 -0.0164,0.007 -0.006,0.006 -0.009,0.0136 -0.009,0.0245 0,0.006 0.003,0.009 0.009,0.0122 0.005,0.003 0.0107,0.004 0.0164,0.004 0.005,-0.005 0.009,-0.0101 0.0116,-0.0158 0.003,-0.005 0.004,-0.0109 0.004,-0.0158 0,-0.006 -7.1e-4,-0.009 -0.004,-0.0121 m -0.0849,-1.30644 c 0,-0.0166 -0.005,-0.026 -0.0158,-0.028 -0.0109,-0.003 -0.0216,5.7e-4 -0.0316,0.0114 -0.0107,0.0109 -0.0136,0.0201 -0.009,0.028 0.005,0.009 0.0138,0.0123 0.0237,0.0123 0.0116,0 0.0195,-0.003 0.0252,-0.008 0.005,-0.006 0.007,-0.0109 0.007,-0.0158 m -0.16031,-0.37824 c 0.0158,-0.0158 0.0482,-0.0258 0.0963,-0.028 0.0482,-0.003 0.0913,-0.001 0.12884,0.003 0.0265,0.0116 0.0438,0.0418 0.0525,0.0928 0.008,0.0512 0.0143,0.16179 0.0201,0.3337 0,0.0804 0.005,0.18185 0.0158,0.30554 0.0109,0.12368 0.0188,0.23301 0.0245,0.32928 0.0374,0.35449 0.0653,0.64125 0.0841,0.86139 0.0186,0.21921 0.0337,0.42057 0.0438,0.60316 0.006,0.10141 0.0123,0.20062 0.0208,0.29688 0.008,0.0965 0.0145,0.16105 0.0195,0.19345 0.006,0.0317 0.0107,0.092 0.0166,0.18056 0.005,0.0883 0.0107,0.18111 0.0158,0.27737 l 0.008,0.3372 0.45076,0.009 c 0.12295,0 0.23007,0.003 0.32136,0.008 0.0913,0.006 0.13951,0.0109 0.14448,0.0158 0.006,0.006 -0.006,0.0366 -0.0359,0.0928 -0.0295,0.0569 -0.0604,0.10362 -0.0928,0.14098 l -0.0324,0.0396 h -1.06126 l -0.007,-0.10436 c 0,-0.0482 0.002,-0.0804 0.007,-0.0955 0.006,-0.0166 0.0188,-0.0381 0.0403,-0.0655 0.0274,-0.0265 0.0418,-0.0431 0.0446,-0.0517 0.003,-0.008 -0.001,-0.023 -0.0121,-0.0438 -0.0109,-0.0166 -0.0201,-0.046 -0.028,-0.0893 -0.008,-0.0423 -0.0151,-0.0985 -0.0202,-0.16823 -0.006,-0.0589 -0.0121,-0.12645 -0.0201,-0.20136 -0.009,-0.0755 -0.0173,-0.13362 -0.028,-0.17688 -0.0158,-0.10767 -0.0309,-0.24369 -0.0447,-0.40971 -0.0129,-0.16602 -0.025,-0.37032 -0.0359,-0.61107 -0.005,-0.16694 -0.0237,-0.40567 -0.0561,-0.71617 -0.0322,-0.31069 -0.0618,-0.55788 -0.0883,-0.73918 -0.006,-0.0329 -0.0101,-0.0841 -0.0121,-0.15387 -0.003,-0.069 -0.004,-0.13657 -0.004,-0.20044 0,-0.0965 0.001,-0.16252 0.004,-0.19712 0.002,-0.0344 0.009,-0.0574 0.0201,-0.0683"
       style="fill:#21201d;fill-opacity:1;fill-rule:nonzero;stroke:none;stroke-width:0.184057"
       id="path568" />
  </g>
</svg>
