<?xml version="1.0" encoding="UTF-8" standalone="no"?>
<!-- Created with Inkscape (http://www.inkscape.org/) -->

<svg
   width="5.5159793mm"
   height="8.4447546mm"
   viewBox="0 0 5.5159793 8.4447546"
   version="1.1"
   id="svg1720"
   inkscape:version="1.1.2 (0a00cf5339, 2022-02-04)"
   sodipodi:docname="outsiders.svg"
   xmlns:inkscape="http://www.inkscape.org/namespaces/inkscape"
   xmlns:sodipodi="http://sodipodi.sourceforge.net/DTD/sodipodi-0.dtd"
   xmlns="http://www.w3.org/2000/svg"
   xmlns:svg="http://www.w3.org/2000/svg">
  <sodipodi:namedview
     id="namedview1722"
     pagecolor="#ffffff"
     bordercolor="#666666"
     borderopacity="1.0"
     inkscape:pageshadow="2"
     inkscape:pageopacity="0.0"
     inkscape:pagecheckerboard="0"
     inkscape:document-units="mm"
     showgrid="false"
     inkscape:zoom="0.64052329"
     inkscape:cx="-1208.387"
     inkscape:cy="711.1373"
     inkscape:window-width="2560"
     inkscape:window-height="1376"
     inkscape:window-x="0"
     inkscape:window-y="0"
     inkscape:window-maximized="1"
     inkscape:current-layer="layer1" />
  <defs
     id="defs1717">
    <clipPath
       clipPathUnits="userSpaceOnUse"
       id="clipPath248">
      <path
         d="m 791,33 h 31 v 46.559 h -31 z"
         id="path246" />
    </clipPath>
  </defs>
  <g
     inkscape:label="Layer 1"
     inkscape:groupmode="layer"
     id="layer1"
     transform="translate(-424.77331,39.746716)">
    <g
       id="g574"
       transform="matrix(0.18405616,0,0,0.18405792,279.13464,-45.945047)">
      <g
         clip-path="url(#clipPath248)"
         id="g572">
        <path
           d="m 808.836,40.266 c -0.363,-0.153 -0.754,-0.243 -1.176,-0.274 -0.426,-0.027 -0.695,0 -0.816,0.09 -0.059,0.063 -0.106,0.137 -0.133,0.227 -0.031,0.089 -0.031,0.304 0,0.632 0,0.457 0.027,0.789 0.086,0.997 0.062,0.214 0.168,0.394 0.32,0.546 0.086,0.09 0.27,0.192 0.543,0.317 0.274,0.121 0.465,0.179 0.59,0.179 0.027,0 0.094,0.016 0.199,0.043 0.11,0.032 0.207,0.094 0.297,0.184 0.09,0.059 0.195,0.109 0.316,0.16 0.122,0.043 0.211,0.082 0.274,0.113 0.301,0.059 0.828,0.442 1.582,1.153 0.754,0.707 1.312,1.332 1.676,1.879 0.121,0.179 0.293,0.422 0.523,0.722 0.223,0.301 0.426,0.575 0.61,0.817 0.39,0.449 0.648,0.808 0.769,1.062 0.121,0.258 0.285,0.719 0.496,1.383 0.242,0.754 0.414,1.445 0.52,2.082 0.109,0.633 0.16,1.234 0.16,1.809 0,0.785 -0.031,1.359 -0.09,1.722 -0.059,0.36 -0.168,0.692 -0.316,0.996 -0.094,0.149 -0.168,0.286 -0.231,0.407 -0.058,0.121 -0.09,0.195 -0.09,0.226 0,0.028 -0.011,0.074 -0.043,0.133 -0.031,0.063 -0.058,0.125 -0.09,0.184 -0.062,0.058 -0.109,0.121 -0.136,0.179 -0.031,0.063 -0.047,0.106 -0.047,0.137 0,0.059 -0.035,0.149 -0.113,0.274 -0.075,0.121 -0.157,0.253 -0.246,0.406 -0.09,0.148 -0.211,0.347 -0.364,0.59 0,0.058 -0.136,0.218 -0.406,0.472 -0.273,0.258 -0.516,0.461 -0.727,0.61 -0.089,0.062 -0.179,0.14 -0.269,0.23 -0.09,0.09 -0.168,0.164 -0.227,0.227 -0.062,0.148 -0.355,0.382 -0.886,0.699 -0.524,0.316 -1,0.566 -1.422,0.746 -0.453,0.18 -0.899,0.332 -1.336,0.453 -0.438,0.121 -0.824,0.195 -1.156,0.227 -0.18,0 -0.352,0.015 -0.52,0.043 -0.164,0.031 -0.266,0.062 -0.293,0.093 -0.121,0.09 -0.195,0.543 -0.226,1.36 -0.032,0.812 0,1.445 0.089,1.898 0.032,0.094 0.114,0.153 0.25,0.18 0.133,0.031 0.641,0.094 1.516,0.183 l 1.043,0.09 1.445,-0.316 c 0.696,-0.152 1.188,-0.274 1.473,-0.363 0.285,-0.09 0.519,-0.196 0.699,-0.317 0.063,-0.031 0.152,-0.074 0.274,-0.136 0.121,-0.059 0.242,-0.102 0.363,-0.133 0.601,-0.184 1.484,-0.809 2.648,-1.879 1.16,-1.074 1.895,-1.942 2.196,-2.606 l 0.089,-0.132 c 0.122,-0.274 0.243,-0.532 0.364,-0.77 0.117,-0.242 0.242,-0.469 0.359,-0.68 0.063,-0.121 0.121,-0.273 0.184,-0.453 0.062,-0.183 0.105,-0.347 0.136,-0.5 0.028,-0.148 0.067,-0.32 0.114,-0.519 0.043,-0.196 0.097,-0.34 0.156,-0.43 0.09,-0.301 0.164,-0.746 0.226,-1.336 0.063,-0.586 0.09,-1.41 0.09,-2.465 0,-0.844 -0.015,-1.367 -0.047,-1.562 -0.027,-0.196 -0.105,-0.43 -0.222,-0.703 -0.063,-0.18 -0.129,-0.407 -0.203,-0.676 -0.078,-0.274 -0.145,-0.516 -0.207,-0.727 -0.211,-0.754 -0.496,-1.488 -0.86,-2.195 -0.363,-0.707 -0.843,-1.457 -1.449,-2.238 -0.723,-0.969 -1.508,-1.836 -2.352,-2.606 -0.847,-0.769 -1.433,-1.168 -1.765,-1.199 -0.031,0 -0.082,-0.016 -0.16,-0.047 -0.075,-0.027 -0.141,-0.074 -0.203,-0.137 -0.18,-0.211 -0.454,-0.414 -0.813,-0.609 -0.363,-0.195 -0.816,-0.383 -1.359,-0.566 -0.301,-0.122 -0.621,-0.235 -0.953,-0.336 -0.332,-0.11 -0.575,-0.192 -0.723,-0.25 m 0.094,12.718 c -0.485,-0.242 -0.778,-0.339 -0.887,-0.296 -0.105,0.046 -0.109,0.281 -0.02,0.703 0.18,0.636 0.247,1.132 0.204,1.496 -0.047,0.359 -0.204,0.675 -0.477,0.949 -0.211,0.242 -0.469,0.437 -0.77,0.59 -0.3,0.148 -0.632,0.242 -0.996,0.269 -0.238,0 -0.406,-0.007 -0.5,-0.019 -0.086,-0.02 -0.211,-0.086 -0.359,-0.207 -0.273,-0.27 -0.461,-0.625 -0.566,-1.063 -0.106,-0.437 -0.098,-0.929 0.019,-1.472 0.063,-0.329 0.102,-0.571 0.117,-0.723 0.016,-0.152 -0.007,-0.242 -0.07,-0.273 -0.059,-0.032 -0.277,0.039 -0.656,0.207 -0.375,0.164 -0.867,0.414 -1.469,0.746 -0.664,0.328 -1.117,0.578 -1.359,0.746 -0.243,0.164 -0.391,0.308 -0.453,0.429 -0.09,0.122 -0.09,0.235 0,0.34 0.093,0.106 0.359,0.34 0.816,0.703 0.601,0.481 1.16,0.829 1.676,1.039 0.511,0.211 1.16,0.364 1.945,0.454 0.422,0.031 0.73,0.046 0.93,0.046 0.195,0 0.562,-0.062 1.105,-0.183 0.332,-0.059 0.664,-0.129 0.996,-0.203 0.332,-0.074 0.574,-0.145 0.723,-0.203 0.152,-0.063 0.312,-0.121 0.476,-0.184 0.168,-0.059 0.297,-0.105 0.387,-0.133 0.211,-0.062 0.543,-0.207 0.992,-0.43 0.457,-0.226 0.789,-0.417 1,-0.566 0.09,-0.062 0.168,-0.121 0.227,-0.184 0.059,-0.058 0.09,-0.101 0.09,-0.132 0,-0.032 -0.031,-0.094 -0.09,-0.184 -0.059,-0.09 -0.137,-0.18 -0.227,-0.273 -0.179,-0.176 -0.613,-0.516 -1.293,-1.016 -0.679,-0.496 -1.183,-0.82 -1.511,-0.973 m -3.625,-1.269 c 0.484,-0.059 0.937,-0.09 1.359,-0.09 0.422,0 0.906,0.059 1.449,0.184 0.512,0.089 0.883,0.187 1.11,0.293 0.222,0.105 0.64,0.324 1.246,0.656 0.601,0.359 1.015,0.648 1.242,0.859 0.227,0.211 0.43,0.469 0.609,0.77 0.184,0.363 0.282,0.679 0.297,0.949 0.012,0.273 -0.055,0.531 -0.203,0.773 -0.246,0.391 -0.574,0.723 -1,0.996 -0.422,0.27 -1.008,0.512 -1.762,0.723 -0.242,0.063 -0.468,0.129 -0.679,0.203 -0.211,0.078 -0.348,0.129 -0.411,0.157 -0.269,0.152 -0.867,0.273 -1.785,0.363 -0.922,0.094 -1.652,0.094 -2.199,0 -0.633,-0.09 -1.293,-0.317 -1.988,-0.68 -0.695,-0.359 -1.387,-0.828 -2.082,-1.402 -0.391,-0.328 -0.656,-0.61 -0.793,-0.836 -0.137,-0.227 -0.188,-0.414 -0.156,-0.567 0.058,-0.211 0.187,-0.445 0.382,-0.703 0.196,-0.254 0.43,-0.461 0.7,-0.609 0.847,-0.543 1.648,-0.981 2.402,-1.313 0.754,-0.332 1.508,-0.574 2.262,-0.726 m 0.093,-8.375 c -0.093,-0.059 -0.25,-0.102 -0.476,-0.133 -0.227,-0.031 -0.508,-0.047 -0.84,-0.047 -0.512,-0.031 -0.848,-0.031 -0.996,0 -0.148,0.031 -0.391,0.094 -0.723,0.18 -0.09,0.062 -0.242,0.117 -0.453,0.16 -0.211,0.047 -0.422,0.098 -0.633,0.16 -0.179,0.028 -0.371,0.074 -0.566,0.137 -0.199,0.058 -0.34,0.121 -0.43,0.18 -0.09,0.031 -0.211,0.082 -0.363,0.16 -0.152,0.074 -0.285,0.14 -0.406,0.203 -0.153,0.027 -0.301,0.082 -0.453,0.156 -0.153,0.074 -0.274,0.129 -0.364,0.16 -0.269,0.149 -0.593,0.356 -0.972,0.61 -0.375,0.257 -0.582,0.414 -0.614,0.476 0,0.031 -0.054,0.098 -0.179,0.203 -0.118,0.106 -0.258,0.203 -0.407,0.293 -0.453,0.305 -0.843,0.621 -1.175,0.953 -0.332,0.332 -0.575,0.649 -0.723,0.95 -0.094,0.179 -0.207,0.41 -0.344,0.679 -0.133,0.27 -0.277,0.528 -0.429,0.77 -0.243,0.422 -0.43,0.82 -0.567,1.199 -0.133,0.379 -0.308,0.914 -0.519,1.606 -0.18,0.636 -0.293,1.343 -0.34,2.128 -0.043,0.786 -0.02,1.676 0.07,2.668 0.031,0.395 0.074,0.75 0.133,1.067 0.062,0.316 0.183,0.746 0.363,1.289 0.211,0.754 0.438,1.406 0.68,1.949 0.242,0.543 0.527,1.098 0.859,1.672 0.512,0.785 1.004,1.457 1.473,2.016 0.465,0.558 1.078,1.168 1.832,1.832 0.512,0.422 0.875,0.711 1.086,0.859 0.211,0.152 0.68,0.379 1.402,0.68 0.395,0.215 0.774,0.394 1.133,0.543 0.363,0.152 0.617,0.257 0.77,0.32 0.121,0.031 0.273,0.082 0.453,0.156 0.179,0.078 0.332,0.145 0.453,0.203 0.301,0.153 0.664,0.305 1.086,0.453 0.422,0.153 0.695,0.227 0.816,0.227 0.059,0 0.125,-0.016 0.199,-0.047 0.078,-0.027 0.145,-0.074 0.207,-0.133 0.09,-0.062 0.145,-0.152 0.161,-0.273 0.015,-0.117 0.003,-0.453 -0.024,-0.992 0,-0.395 -0.008,-0.688 -0.023,-0.887 -0.016,-0.195 -0.051,-0.324 -0.114,-0.383 -0.031,-0.062 -0.105,-0.121 -0.226,-0.183 -0.121,-0.059 -0.242,-0.121 -0.363,-0.18 -0.153,-0.063 -0.372,-0.149 -0.657,-0.27 -0.285,-0.121 -0.566,-0.257 -0.836,-0.41 -0.484,-0.211 -0.816,-0.387 -0.996,-0.519 -0.179,-0.133 -0.511,-0.446 -0.996,-0.93 -0.844,-0.844 -1.66,-1.766 -2.445,-2.762 -0.785,-0.992 -1.176,-1.613 -1.176,-1.855 0,-0.117 -0.055,-0.352 -0.156,-0.699 -0.11,-0.348 -0.192,-0.555 -0.25,-0.61 -0.031,0 -0.055,-0.031 -0.067,-0.094 -0.019,-0.058 -0.023,-0.121 -0.023,-0.179 0,-0.059 -0.016,-0.164 -0.047,-0.317 -0.031,-0.152 -0.062,-0.304 -0.094,-0.453 -0.117,-0.39 -0.195,-0.84 -0.222,-1.336 -0.032,-0.496 -0.016,-1.093 0.043,-1.789 0.031,-0.633 0.093,-1.109 0.179,-1.426 0.094,-0.316 0.231,-0.593 0.411,-0.835 0.058,-0.09 0.148,-0.235 0.269,-0.43 0.125,-0.195 0.227,-0.403 0.316,-0.613 0.243,-0.454 0.461,-0.797 0.657,-1.04 0.199,-0.242 0.429,-0.421 0.703,-0.542 0.094,-0.063 0.234,-0.145 0.433,-0.25 0.196,-0.106 0.368,-0.219 0.52,-0.34 0.148,-0.09 0.363,-0.203 0.629,-0.34 0.273,-0.137 0.531,-0.266 0.773,-0.383 0.785,-0.332 1.313,-0.535 1.582,-0.613 0.274,-0.074 0.422,-0.035 0.453,0.113 0.032,0.063 0.016,0.105 -0.043,0.137 -0.062,0.031 -0.152,0.058 -0.273,0.09 -0.148,0.058 -0.461,0.195 -0.93,0.406 -0.464,0.215 -0.894,0.406 -1.289,0.59 -0.242,0.121 -0.558,0.324 -0.949,0.613 -0.394,0.285 -0.68,0.504 -0.859,0.656 -0.215,0.18 -0.434,0.442 -0.657,0.789 -0.226,0.348 -0.507,0.824 -0.839,1.43 l -0.543,0.992 0.047,1.723 0.046,1.765 0.45,1.403 c 0.152,0.453 0.296,0.859 0.433,1.222 0.133,0.36 0.262,0.649 0.383,0.856 0.391,0.668 0.926,1.375 1.606,2.133 0.679,0.754 1.367,1.386 2.062,1.898 0.301,0.242 0.785,0.539 1.445,0.887 0.664,0.344 1.071,0.515 1.223,0.515 0.184,0 0.285,-0.109 0.316,-0.339 0.032,-0.227 0.047,-0.911 0.047,-2.059 -0.027,-1.113 -0.023,-2.086 0.024,-2.918 0.047,-0.832 0.113,-1.293 0.203,-1.383 0.09,-0.09 0.219,-0.117 0.383,-0.09 0.168,0.032 0.297,0.09 0.386,0.18 0.063,0.094 0.09,0.184 0.09,0.274 0,0.089 -0.015,0.257 -0.043,0.496 -0.062,0.332 -0.086,0.656 -0.07,0.976 0.016,0.317 0.07,0.578 0.16,0.789 0.059,0.094 0.113,0.16 0.156,0.203 0.047,0.047 0.118,0.086 0.207,0.114 0.153,0.031 0.45,0.019 0.907,-0.043 0.449,-0.059 0.707,-0.121 0.765,-0.18 0.031,0 0.067,-0.008 0.113,-0.023 0.047,-0.016 0.098,-0.024 0.161,-0.024 0.058,0 0.152,-0.019 0.269,-0.066 0.125,-0.047 0.227,-0.098 0.317,-0.16 0.816,-0.422 1.445,-0.766 1.882,-1.039 0.434,-0.274 0.715,-0.469 0.836,-0.59 l 0.043,-0.047 c 0.121,-0.149 0.25,-0.285 0.387,-0.406 0.137,-0.122 0.246,-0.243 0.34,-0.364 0.211,-0.242 0.398,-0.488 0.566,-0.746 0.164,-0.254 0.414,-0.715 0.746,-1.379 l 0.77,-1.586 -0.043,-3.441 -0.363,-1.086 c -0.184,-0.633 -0.364,-1.129 -0.543,-1.492 -0.184,-0.363 -0.485,-0.879 -0.907,-1.539 -0.183,-0.274 -0.347,-0.532 -0.5,-0.77 -0.148,-0.242 -0.242,-0.406 -0.269,-0.5 -0.09,-0.179 -0.41,-0.535 -0.949,-1.062 -0.547,-0.528 -1.012,-0.946 -1.407,-1.242 -0.359,-0.274 -0.703,-0.5 -1.019,-0.68 -0.317,-0.184 -0.699,-0.363 -1.152,-0.543 -0.391,-0.152 -0.657,-0.231 -0.793,-0.231 -0.137,0 -0.219,0.079 -0.246,0.231 -0.032,0.058 -0.047,0.414 -0.047,1.062 v 2.286 c 0,1.265 -0.008,2.128 -0.024,2.578 -0.015,0.453 -0.055,0.711 -0.113,0.773 -0.031,0.059 -0.09,0.102 -0.18,0.133 -0.094,0.031 -0.199,0.059 -0.316,0.09 h -0.41 v -0.996 c 0,-0.633 -0.028,-1.004 -0.09,-1.11 -0.063,-0.101 -0.305,-0.156 -0.723,-0.156 -0.242,0 -0.402,-0.008 -0.476,-0.023 -0.079,-0.012 -0.114,-0.051 -0.114,-0.114 0,-0.058 0.059,-0.113 0.18,-0.156 0.121,-0.047 0.316,-0.102 0.59,-0.16 0.363,-0.059 0.566,-0.18 0.609,-0.359 0.047,-0.184 0.071,-0.833 0.071,-1.946 -0.032,-0.547 -0.055,-1.023 -0.071,-1.429 -0.015,-0.407 -0.019,-0.625 -0.019,-0.657 -0.032,-0.058 -0.086,-0.113 -0.16,-0.156 -0.075,-0.047 -0.161,-0.086 -0.247,-0.117 m 0.723,-9.504 c 0.031,-0.121 0.067,-0.176 0.109,-0.156 0.047,0.011 0.071,0.082 0.071,0.203 0,0.058 0.015,0.187 0.047,0.383 0.027,0.195 0.074,0.402 0.132,0.609 0.063,0.242 0.098,0.516 0.114,0.816 0.015,0.305 0.039,0.606 0.07,0.907 0,0.269 0.004,0.527 0.024,0.769 0.011,0.242 0.023,0.395 0.023,0.453 0.027,0.121 0.074,0.196 0.133,0.227 0.062,0.031 0.258,0.074 0.59,0.137 0.421,0.058 0.836,0.148 1.246,0.269 0.406,0.121 0.867,0.285 1.379,0.5 0.242,0.09 0.484,0.188 0.722,0.293 0.242,0.102 0.422,0.172 0.543,0.203 0.121,0.031 0.274,0.094 0.453,0.18 0.184,0.09 0.332,0.18 0.453,0.273 0.153,0.121 0.356,0.254 0.614,0.407 0.254,0.152 0.504,0.285 0.746,0.41 0.39,0.211 0.851,0.504 1.379,0.879 0.527,0.379 0.945,0.703 1.246,0.976 0.121,0.09 0.422,0.43 0.906,1.016 0.481,0.59 0.875,1.094 1.176,1.519 0.484,0.633 1.004,1.508 1.562,2.625 0.559,1.114 0.946,2.051 1.153,2.805 0.09,0.391 0.152,0.754 0.179,1.086 0.032,0.332 0.051,1.27 0.051,2.809 v 3.121 l -0.273,0.726 c -0.063,0.211 -0.121,0.43 -0.184,0.657 -0.058,0.222 -0.105,0.386 -0.133,0.472 0,0.152 -0.031,0.297 -0.09,0.43 -0.062,0.14 -0.14,0.265 -0.226,0.387 -0.063,0.121 -0.152,0.289 -0.274,0.496 -0.121,0.215 -0.226,0.406 -0.316,0.589 -0.394,0.754 -0.824,1.407 -1.293,1.95 -0.465,0.543 -1.137,1.191 -2.012,1.945 -0.664,0.57 -1.168,0.965 -1.519,1.176 -0.348,0.211 -0.668,0.347 -0.973,0.41 -0.117,0.027 -0.23,0.066 -0.336,0.109 -0.105,0.047 -0.175,0.086 -0.203,0.114 -0.062,0.093 -0.258,0.191 -0.59,0.296 -0.332,0.106 -0.664,0.188 -0.996,0.247 -0.152,0 -0.34,0.031 -0.566,0.093 -0.227,0.059 -0.414,0.121 -0.567,0.18 -0.3,0.121 -0.671,0.188 -1.105,0.203 -0.438,0.016 -1.051,0.008 -1.836,-0.019 -0.395,-0.032 -0.648,-0.051 -0.77,-0.051 -0.121,0 -0.226,0.031 -0.316,0.094 -0.062,0.058 -0.105,0.332 -0.137,0.812 -0.027,0.484 -0.047,2.039 -0.047,4.664 -0.031,2.625 -0.058,4.293 -0.089,5 -0.032,0.711 -0.075,1.051 -0.133,1.02 -0.094,-0.059 -0.176,-0.418 -0.25,-1.086 -0.074,-0.664 -0.129,-1.645 -0.16,-2.942 l -0.09,-1.539 c -0.031,-0.515 -0.043,-0.859 -0.043,-1.039 l -0.047,-0.726 -0.316,-0.047 c -0.274,-0.028 -0.653,-0.117 -1.133,-0.27 -0.485,-0.152 -0.891,-0.285 -1.223,-0.41 -0.148,-0.09 -0.359,-0.18 -0.633,-0.269 -0.273,-0.09 -0.496,-0.18 -0.679,-0.27 -0.543,-0.215 -1.266,-0.551 -2.172,-1.019 -0.907,-0.469 -1.524,-0.84 -1.856,-1.11 -0.484,-0.363 -0.929,-0.723 -1.336,-1.086 -0.406,-0.363 -0.656,-0.605 -0.75,-0.726 -0.027,-0.059 -0.109,-0.164 -0.246,-0.317 -0.136,-0.148 -0.265,-0.301 -0.386,-0.453 -0.122,-0.152 -0.239,-0.293 -0.364,-0.43 -0.117,-0.132 -0.191,-0.23 -0.222,-0.293 -0.032,-0.062 -0.129,-0.218 -0.293,-0.476 -0.168,-0.254 -0.344,-0.535 -0.524,-0.836 -0.18,-0.305 -0.371,-0.621 -0.566,-0.949 -0.196,-0.332 -0.324,-0.59 -0.383,-0.774 -0.059,-0.179 -0.137,-0.359 -0.227,-0.539 -0.089,-0.183 -0.152,-0.304 -0.179,-0.363 -0.032,-0.09 -0.071,-0.219 -0.114,-0.387 -0.046,-0.164 -0.07,-0.324 -0.07,-0.476 -0.031,-0.118 -0.066,-0.297 -0.113,-0.539 -0.043,-0.243 -0.113,-0.454 -0.203,-0.637 -0.153,-0.422 -0.258,-0.867 -0.317,-1.336 -0.058,-0.465 -0.09,-1.137 -0.09,-2.012 0,-1.418 0.051,-2.453 0.157,-3.101 0.105,-0.649 0.34,-1.489 0.703,-2.512 0.148,-0.395 0.437,-0.996 0.859,-1.813 0.422,-0.812 0.723,-1.355 0.906,-1.628 0.211,-0.27 0.512,-0.583 0.907,-0.93 0.39,-0.344 0.949,-0.789 1.675,-1.336 0.844,-0.66 1.637,-1.168 2.375,-1.512 0.739,-0.347 1.457,-0.566 2.149,-0.66 0.211,-0.031 0.402,-0.066 0.566,-0.113 0.168,-0.043 0.297,-0.098 0.387,-0.156 0.117,-0.063 0.277,-0.106 0.473,-0.137 0.195,-0.031 0.672,-0.047 1.425,-0.047 0.454,0 1.012,-0.027 1.676,-0.09 0.063,-0.059 0.114,-0.355 0.16,-0.883 0.043,-0.527 0.098,-1.472 0.157,-2.828 0.031,-1.238 0.066,-2.269 0.117,-3.098 0.043,-0.832 0.094,-1.339 0.156,-1.519"
           style="fill:#21201d;fill-opacity:1;fill-rule:nonzero;stroke:none"
           id="path570" />
      </g>
    </g>
  </g>
</svg>
