<?xml version="1.0" encoding="UTF-8" standalone="no"?>
<!-- Created with Inkscape (http://www.inkscape.org/) -->

<svg
   width="7.0269022mm"
   height="7.0535164mm"
   viewBox="0 0 7.0269022 7.0535164"
   version="1.1"
   id="svg1850"
   inkscape:version="1.1.2 (0a00cf5339, 2022-02-04)"
   sodipodi:docname="red_coterie.svg"
   xmlns:inkscape="http://www.inkscape.org/namespaces/inkscape"
   xmlns:sodipodi="http://sodipodi.sourceforge.net/DTD/sodipodi-0.dtd"
   xmlns="http://www.w3.org/2000/svg"
   xmlns:svg="http://www.w3.org/2000/svg">
  <sodipodi:namedview
     id="namedview1852"
     pagecolor="#ffffff"
     bordercolor="#666666"
     borderopacity="1.0"
     inkscape:pageshadow="2"
     inkscape:pageopacity="0.0"
     inkscape:pagecheckerboard="0"
     inkscape:document-units="mm"
     showgrid="false"
     inkscape:zoom="0.64052329"
     inkscape:cx="-1289.5706"
     inkscape:cy="398.8926"
     inkscape:window-width="2560"
     inkscape:window-height="1376"
     inkscape:window-x="0"
     inkscape:window-y="0"
     inkscape:window-maximized="1"
     inkscape:current-layer="layer1" />
  <defs
     id="defs1847" />
  <g
     inkscape:label="Layer 1"
     inkscape:groupmode="layer"
     id="layer1"
     transform="translate(-446.32299,-43.150567)">
    <path
       d="m 452.462,47.653417 c 0.026,-0.02596 0.10639,-0.0028 0.2402,0.06975 0.13436,0.07178 0.2019,0.12645 0.2019,0.162525 0,0.0309 -0.0193,0.04675 -0.0582,0.04675 -0.0388,0 -0.0792,-0.01584 -0.12001,-0.04675 -0.0109,-0.01087 -0.0289,-0.02226 -0.0539,-0.03534 -0.0267,-0.01214 -0.0519,-0.02152 -0.0777,-0.02649 -0.0208,-0.01012 -0.0425,-0.02226 -0.0663,-0.03534 -0.0228,-0.01288 -0.0374,-0.02152 -0.0423,-0.02649 -0.0158,-0.01584 -0.026,-0.03534 -0.0309,-0.05835 -0.006,-0.02374 -0.003,-0.04013 0.007,-0.05025 m 0.23302,-2.906829 c 0.0668,-0.02078 0.10859,-0.023 0.12368,-0.0079 0.0158,0.01584 -0.005,0.04178 -0.0618,0.07767 -0.0618,0.0416 -0.15387,0.08908 -0.27535,0.14375 -0.12092,0.05393 -0.19786,0.08135 -0.22878,0.08135 -0.0359,0.005 -0.0604,0.0021 -0.0732,-0.0079 -0.0129,-0.01013 -0.0144,-0.02596 -0.004,-0.04675 0.006,-0.0052 0.079,-0.04031 0.22142,-0.104358 0.14154,-0.06461 0.24148,-0.109883 0.29836,-0.135837 m -0.2251,-1.069192 c 0.0208,-0.01584 0.0388,-0.02723 0.0547,-0.03514 0.0151,-0.0079 0.026,-0.01161 0.0302,-0.01161 0.0109,0 0.0201,0.0094 0.028,0.02741 0.008,0.01803 0.0138,0.04233 0.0195,0.07325 0.005,0.02596 0.005,0.04675 0,0.06184 -0.006,0.0151 -0.0237,0.03884 -0.0547,0.06976 -0.0158,0.02081 -0.0453,0.05043 -0.0891,0.08927 -0.044,0.03865 -0.0863,0.07399 -0.12811,0.104912 -0.0409,0.03589 -0.0985,0.08485 -0.17043,0.147429 -0.0725,0.06184 -0.13731,0.118534 -0.194,0.170255 -0.0569,0.0519 -0.10712,0.09718 -0.15093,0.135283 -0.044,0.03883 -0.0685,0.05816 -0.0734,0.05816 -0.0158,0 -0.0388,-0.01288 -0.0698,-0.03884 -0.0309,-0.02575 -0.0495,-0.04602 -0.0547,-0.06184 -0.0151,-0.02081 -0.01,-0.04528 0.0158,-0.07326 0.026,-0.02872 0.0906,-0.08411 0.19344,-0.166754 0.0418,-0.03607 0.097,-0.08559 0.16675,-0.147433 0.0698,-0.06184 0.13602,-0.118717 0.19768,-0.170438 0.0569,-0.05172 0.11301,-0.101413 0.16694,-0.147429 0.0547,-0.04675 0.0913,-0.07473 0.11209,-0.08485 m -0.86783,4.812929 c 0.0101,-0.01584 0.0195,-0.02374 0.0267,-0.02374 0.008,0 0.0272,0.01087 0.0582,0.03164 0.026,0.0151 0.15883,0.145959 0.39976,0.391122 0.2402,0.245166 0.37033,0.38597 0.39113,0.422783 0.0208,0.0309 0.0245,0.05098 0.0116,0.06184 -0.0131,0.0099 -0.0346,0.005 -0.0655,-0.01584 -0.0265,-0.0151 -0.15535,-0.139517 -0.38818,-0.371796 -0.23227,-0.232833 -0.36387,-0.369588 -0.3948,-0.41045 -0.0107,-0.01584 -0.0193,-0.03238 -0.0272,-0.05117 -0.008,-0.01785 -0.0116,-0.02946 -0.0116,-0.03443 m -0.48094,-5.014105 c 0.0208,-0.02667 0.0366,-0.0381 0.0468,-0.03608 0.0101,0.0037 0.0158,0.01729 0.0158,0.04325 0,0.01584 -0.006,0.03221 -0.0158,0.05025 -0.0101,0.01803 -0.023,0.03534 -0.0388,0.05043 l -0.0468,0.05448 0.008,-0.0624 c 0,-0.0151 0.004,-0.03312 0.0121,-0.05393 0.007,-0.02099 0.0138,-0.03607 0.0188,-0.04601 m -0.1316,5.758251 c 0,-0.04178 0.009,-0.05246 0.0274,-0.03534 0.0179,0.01803 0.0453,0.06405 0.0812,0.136017 0.0359,0.08264 0.0618,0.148721 0.0777,0.197679 0.0151,0.04896 0.0201,0.08412 0.0151,0.104179 -0.005,0.01584 -0.0136,0.02374 -0.0267,0.02374 -0.0129,0 -0.0223,-0.01069 -0.0272,-0.03164 -0.005,-0.0042 -0.0158,-0.02649 -0.0309,-0.06534 -0.0158,-0.03883 -0.0309,-0.08135 -0.0467,-0.127917 -0.0201,-0.04105 -0.0374,-0.08283 -0.0503,-0.123687 -0.0131,-0.04178 -0.0195,-0.06773 -0.0195,-0.07767 m 0.23301,-4.557642 c -0.0267,-0.04675 -0.0497,-0.07767 -0.0698,-0.09276 -0.0208,-0.01584 -0.0366,-0.01584 -0.0468,0 -0.0158,0.0151 -0.0272,0.06828 -0.0352,0.158842 -0.007,0.09074 -0.0166,0.269642 -0.0267,0.538554 l -0.023,0.480388 -0.0467,0.03939 c -0.0109,0.01012 -0.0302,0.023 -0.0582,0.0381 -0.0281,0.01528 -0.0561,0.02889 -0.0821,0.03883 -0.14945,0.0727 -0.27167,0.133075 -0.36811,0.182033 -0.0948,0.04877 -0.17394,0.09203 -0.23578,0.127921 l 0.0698,-0.03884 c -0.0418,0.02596 -0.0826,0.05025 -0.12369,0.07399 -0.0416,0.023 -0.0985,0.0554 -0.17117,0.09645 -0.0307,0.01584 -0.0604,0.03369 -0.0891,0.05467 -0.028,0.02081 -0.0503,0.03884 -0.0653,0.05393 l -0.0547,0.04675 -0.008,0.945321 c -0.004,0.542971 -0.004,0.841329 0.004,0.895258 0.007,0.05448 0.0584,0.08982 0.15111,0.104913 0.0257,0 0.0696,0.0028 0.13142,0.0079 0.0618,0.0042 0.12166,0.01013 0.17835,0.0151 0.0977,0.005 0.16031,0.0065 0.18626,0.0042 0.0258,-0.0028 0.0468,-0.01143 0.0619,-0.02723 0.0151,-0.0151 0.0309,-0.05466 0.046,-0.116509 0.0158,-0.06184 0.0237,-0.118533 0.0237,-0.170437 0,-0.0309 -0.006,-0.04877 -0.0195,-0.05393 -0.0129,-0.0057 -0.0502,-0.01288 -0.11209,-0.02374 -0.0158,-0.005 -0.0339,-0.01143 -0.0547,-0.01859 -0.0201,-0.0086 -0.0359,-0.01729 -0.046,-0.02741 -0.0158,-0.02081 -0.0245,-0.03865 -0.0272,-0.05448 -0.003,-0.0151 -0.001,-0.0519 0.004,-0.107858 0,-0.03164 0.003,-0.06258 0.008,-0.09424 0.005,-0.0302 0.0101,-0.05319 0.0158,-0.06902 0.0101,-0.02081 0.023,-0.03238 0.0388,-0.03514 0.0151,-0.0021 0.0589,-0.0037 0.1316,-0.0037 0.0517,0 0.0955,0.0014 0.1316,0.0037 0.0366,0.0028 0.0646,0.0092 0.0854,0.02007 0.0569,0.02522 0.0928,0.06681 0.10785,0.123684 0.0158,0.05669 0.0289,0.1905 0.0396,0.402537 0.005,0.0935 0.009,0.173383 0.0109,0.240929 0.004,0.06681 0.007,0.102704 0.0121,0.108596 0.17541,-0.171175 0.32578,-0.317867 0.44947,-0.442292 0.21203,-0.217004 0.39535,-0.3983 0.55069,-0.54205 0.15461,-0.145221 0.2783,-0.250871 0.37161,-0.318421 0.0569,-0.04104 0.18627,-0.159762 0.38762,-0.356704 0.20136,-0.196204 0.30701,-0.3048 0.31768,-0.325046 0.005,-0.01069 0.005,-0.02226 0,-0.03514 -0.005,-0.01214 -0.0129,-0.02448 -0.023,-0.03443 -0.0107,-0.01584 -0.0258,-0.03681 -0.0467,-0.06258 -0.0208,-0.02596 -0.0387,-0.05393 -0.0545,-0.08485 -0.0151,-0.02596 -0.0849,-0.103625 -0.20927,-0.232283 -0.12866,-0.135096 -0.27259,-0.281792 -0.42996,-0.442104 -0.15755,-0.160317 -0.31124,-0.3129 -0.46087,-0.457384 -0.15019,-0.150191 -0.25879,-0.255841 -0.32578,-0.317687 -0.0517,-0.04675 -0.0941,-0.08779 -0.12792,-0.123684 -0.0337,-0.03663 -0.0582,-0.06755 -0.0733,-0.0935 m -1.27127,-1.200609 c -0.0617,-0.02667 -0.11283,-0.0381 -0.15166,-0.03607 -0.0381,0.0037 -0.0834,0.02226 -0.1351,0.05908 -0.0727,0.05595 -0.18259,0.1524 -0.32928,0.286025 -0.14743,0.134546 -0.29835,0.279767 -0.4537,0.434376 l -0.30995,0.30977 -0.008,0.170438 c -0.01,0.202096 -0.0164,0.375295 -0.0193,0.519779 -0.002,0.144487 -10e-4,0.227312 0.004,0.248112 0.005,0.01584 0.0166,0.0309 0.0346,0.04675 0.018,0.0151 0.0423,0.0302 0.074,0.04601 0.0252,0.01584 0.0576,0.03514 0.0964,0.05816 0.0388,0.023 0.0711,0.04749 0.097,0.07344 0.0569,0.0416 0.1316,0.09056 0.22437,0.14725 0.0935,0.05687 0.17098,0.100679 0.23283,0.1316 l 0.0928,0.04675 0.0237,-0.03884 c 0.0151,-0.0099 0.0245,-0.0309 0.0267,-0.06184 0.003,-0.0309 0.004,-0.08761 0.004,-0.170254 0,-0.0519 0.001,-0.09994 0.004,-0.143934 0.003,-0.0438 0.004,-0.07031 0.004,-0.08117 0.005,-0.0151 0.023,-0.023 0.0539,-0.023 0.0309,0 0.0727,0.0079 0.12368,0.023 0.0525,0.01584 0.0856,0.04031 0.10142,0.07399 0.0151,0.03313 0.023,0.109333 0.023,0.2286 0,0.0878 0.001,0.139517 0.004,0.154609 0.003,0.0151 0.0151,0.02596 0.0353,0.03094 0.0517,0.01087 0.15239,-0.01143 0.30185,-0.06534 0.15037,-0.05467 0.27682,-0.115038 0.38044,-0.182587 0.1027,-0.067 0.17762,-0.118717 0.22437,-0.154609 0.0466,-0.03608 0.0696,-0.06479 0.0696,-0.08559 0.005,-0.005 0.009,-0.07473 0.0116,-0.209271 0.003,-0.133629 0.006,-0.288971 0.0114,-0.465117 l 0.008,-0.650642 -0.20117,-0.194183 c -0.11375,-0.108596 -0.2367,-0.214242 -0.36811,-0.317867 -0.1316,-0.102704 -0.22878,-0.172462 -0.29063,-0.208354 m 0.67457,5.331788 c -0.006,-0.005 -0.12166,-0.0099 -0.34952,-0.01584 -0.22142,0 -0.46732,0.0014 -0.73623,0.0044 -0.26817,0.0021 -0.51628,0.0065 -0.74414,0.0114 -0.22215,0.0052 -0.34069,0.01012 -0.35578,0.0151 -0.006,0.0059 -0.009,0.01086 -0.0123,0.01584 -0.002,0.0052 -0.004,0.01012 -0.004,0.01584 0,0.0151 0.0495,0.07693 0.14724,0.185529 0.10362,0.113563 0.21719,0.235042 0.34087,0.364617 0.12443,0.129396 0.24093,0.247929 0.34861,0.356521 0.11448,0.102888 0.18129,0.157554 0.20209,0.162525 0.0302,0.01013 0.0849,-0.01658 0.16252,-0.08135 0.0777,-0.0646 0.21921,-0.20265 0.42627,-0.414683 0.21149,-0.211484 0.36315,-0.365355 0.45297,-0.46088 0.0906,-0.09571 0.13086,-0.148904 0.12092,-0.159029 m -2.36401,-5.339704 c 0,-0.02596 0.007,-0.03387 0.023,-0.02374 0.0158,0.01069 0.0337,0.03589 0.0539,0.07767 0.0258,0.05172 0.0416,0.09405 0.0467,0.127921 0.005,0.03387 0,0.04749 -0.0151,0.04233 -0.0109,-0.005 -0.0316,-0.03736 -0.0626,-0.097 -0.0302,-0.0589 -0.046,-0.101416 -0.046,-0.127187 m 0.023,5.998266 c 0.0208,-0.02575 0.0351,-0.03737 0.0423,-0.03517 0.008,0.0037 0.0116,0.02007 0.0116,0.05099 0,0.0309 -0.0136,0.07693 -0.0425,0.139514 -0.028,0.06185 -0.0552,0.102891 -0.0812,0.124424 l -0.0388,0.0302 0.0158,-0.05393 c 0.005,-0.03663 0.018,-0.08117 0.0388,-0.135837 0.0201,-0.05393 0.0381,-0.09424 0.0539,-0.120188 m -1.43362,-5.82065 c 0.005,-0.0052 0.01,-0.0086 0.0151,-0.01161 0.005,-0.0021 0.0129,-7.06e-4 0.023,0.0042 0.006,0 0.0121,0.0014 0.0201,0.0037 0.007,0.0028 0.0136,0.0037 0.0188,0.0037 0.0107,0 0.0626,0.04657 0.15516,0.139333 0.0928,0.08853 0.19565,0.187738 0.30645,0.298358 0.11136,0.111538 0.21277,0.215717 0.30627,0.314188 0.0926,0.0935 0.14449,0.147429 0.15516,0.162521 0.004,0.01087 0.002,0.02448 -0.008,0.04325 -0.0107,0.01785 -0.0237,0.02649 -0.0394,0.02649 -0.009,0 -0.0526,-0.03736 -0.12736,-0.112092 -0.0755,-0.07473 -0.164,-0.163996 -0.26744,-0.267434 -0.23301,-0.237253 -0.38468,-0.394808 -0.45719,-0.472479 -0.0727,-0.07767 -0.10584,-0.121479 -0.10068,-0.132154 m 1.35594,1.317855 c -0.005,-0.01087 -0.0101,-0.01803 -0.0151,-0.023 -0.005,-0.0059 -0.0109,-0.0079 -0.0158,-0.0079 -0.0109,0 -0.0661,0.04877 -0.16676,0.147246 -0.0999,0.09865 -0.21865,0.214429 -0.35228,0.348792 -0.23301,0.233016 -0.41633,0.411921 -0.55014,0.538554 -0.13437,0.126446 -0.25087,0.230808 -0.3486,0.31345 -0.0317,0.02081 -0.0517,0.03883 -0.0626,0.05466 -0.0101,0.0151 -0.0151,0.03369 -0.0151,0.05467 0,0.04086 0.0554,0.158842 0.16602,0.352287 0.11154,0.193263 0.27755,0.466588 0.50045,0.818138 0.0819,0.123687 0.19344,0.273142 0.33295,0.449284 0.13933,0.175591 0.27388,0.332962 0.40327,0.472478 0.0569,0.06755 0.0913,0.08559 0.10418,0.05393 0.013,-0.0309 0.0225,-0.156817 0.0274,-0.379713 0.0101,-0.222158 0.0223,-0.348604 0.0344,-0.379529 0.0131,-0.0309 0.0742,-0.05172 0.18277,-0.06184 h 0.0618 c 0.0416,-0.005 0.0797,-0.0094 0.11632,-0.01161 0.0361,-0.0028 0.0598,-0.0035 0.0698,-0.0035 l 0.10068,-0.0079 0.023,0.05393 c 0.0158,0.03589 0.023,0.097 0.023,0.182587 0,0.08485 -0.007,0.135097 -0.023,0.150926 -0.005,0.0052 -0.0186,0.01012 -0.0423,0.0151 -0.023,0.0059 -0.0504,0.0079 -0.0814,0.0079 -0.0409,0.0052 -0.0697,0.01161 -0.0856,0.01951 -0.0151,0.0079 -0.028,0.01933 -0.0388,0.03443 -0.0151,0.02596 -0.0243,0.0705 -0.0272,0.132337 -0.002,0.06184 0.007,0.100679 0.0272,0.116508 0.0158,0.02007 0.0957,0.03313 0.2402,0.0381 0.14522,0.005 0.27903,0.005 0.40345,0 0.0826,-0.005 0.13288,-0.01087 0.15092,-0.0151 0.018,-0.005 0.0324,-0.01584 0.0431,-0.03165 0.0101,-0.0309 0.0202,-0.173933 0.0309,-0.429958 0.0101,-0.256025 0.018,-0.543525 0.023,-0.864154 l 0.0158,-0.619721 -0.0698,-0.06185 c -0.0416,-0.04178 -0.0948,-0.08411 -0.15884,-0.128104 -0.0648,-0.0438 -0.13877,-0.08908 -0.22068,-0.135833 -0.0366,-0.01584 -0.0769,-0.03589 -0.12092,-0.06184 -0.0438,-0.02596 -0.0755,-0.04675 -0.097,-0.06185 -0.0258,-0.01584 -0.0554,-0.03369 -0.0891,-0.05467 -0.0331,-0.02078 -0.0604,-0.03589 -0.0813,-0.04601 -0.0258,-0.01584 -0.0473,-0.02872 -0.0653,-0.03884 -0.018,-0.01069 -0.0295,-0.01785 -0.0353,-0.02374 0,-0.005 -0.008,-0.01436 -0.0265,-0.02723 -0.0188,-0.01288 -0.0403,-0.02667 -0.0661,-0.04178 -0.021,-0.01584 -0.0467,-0.03369 -0.0777,-0.05448 -0.0309,-0.02099 -0.0539,-0.03884 -0.0697,-0.05467 l -0.0698,-0.04601 v -0.333696 c 0,-0.08761 -0.001,-0.166021 -0.004,-0.236517 -0.003,-0.06902 -0.004,-0.107121 -0.004,-0.112091 m -1.61196,-0.217188 c 0.0101,-0.02078 0.0366,-0.02448 0.0777,-0.01161 0.041,0.01305 0.11651,0.04546 0.22437,0.09645 0.13436,0.06258 0.24295,0.117245 0.32559,0.163262 0.0828,0.04675 0.12443,0.07767 0.12443,0.09332 0,0.03037 -0.0238,0.03957 -0.0698,0.02741 -0.0468,-0.01362 -0.15314,-0.06111 -0.31768,-0.14375 -0.16547,-0.07767 -0.27038,-0.130866 -0.31419,-0.159025 -0.044,-0.02872 -0.0611,-0.05025 -0.0504,-0.06608 m -0.008,3.006771 c 0.026,-0.0094 0.0482,-0.01087 0.0663,-0.0028 0.0179,0.0072 0.0272,0.02155 0.0272,0.04252 0,0.0151 -0.0324,0.04528 -0.097,0.08909 -0.0648,0.0438 -0.10712,0.06552 -0.1281,0.06552 -0.0158,0 -0.0322,-0.01013 -0.0503,-0.0309 -0.018,-0.02025 -0.0267,-0.03883 -0.0267,-0.05393 0,-0.01087 0.0252,-0.02889 0.0769,-0.05466 0.0519,-0.02596 0.0957,-0.04399 0.1316,-0.05467 m 3.10024,-4.572 c 0.0109,-0.01087 0.0208,-0.01877 0.0309,-0.02374 0.0107,-0.005 0.018,-0.0072 0.0237,-0.0072 0.01,0 0.0309,0.0086 0.0618,0.02667 0.0309,0.01785 0.0639,0.03737 0.10067,0.05816 l -0.0388,-0.023 c 0.0517,0.03589 0.10344,0.07197 0.15516,0.108592 0.0519,0.03589 0.1108,0.07473 0.17835,0.116509 0.10859,0.07178 0.29909,0.214979 0.5737,0.429958 0.27332,0.214245 0.41063,0.329283 0.41063,0.345112 0,0.0042 0.0208,0.0302 0.0618,0.07693 0.0409,0.04675 0.0898,0.100495 0.14669,0.162341 0.0624,0.06773 0.13087,0.142459 0.2056,0.2251 0.0755,0.08264 0.13583,0.150192 0.18258,0.201362 0.046,0.05172 0.1524,0.165284 0.31786,0.341426 0.16529,0.175408 0.34069,0.356704 0.52696,0.542233 0.19123,0.191238 0.35522,0.359467 0.4918,0.503954 0.1373,0.144484 0.21055,0.219213 0.22142,0.2251 0.005,0.0151 0.009,0.02798 0.0114,0.03865 0.002,0.01013 -10e-4,0.02025 -0.0114,0.0309 0,0.01012 -0.0339,0.04749 -0.10068,0.112275 -0.0676,0.0646 -0.14743,0.138042 -0.24093,0.220687 -0.17026,0.160313 -0.33278,0.315658 -0.48812,0.465113 -0.15534,0.149637 -0.30995,0.301304 -0.46437,0.452966 -0.15535,0.153138 -0.3129,0.309217 -0.47395,0.469533 -0.15957,0.160313 -0.3278,0.332959 -0.50321,0.519042 -0.13951,0.144671 -0.31915,0.317867 -0.53854,0.519963 -0.21995,0.201175 -0.39186,0.350816 -0.51555,0.449287 -0.0567,0.04601 -0.12,0.0992 -0.18976,0.158105 -0.0698,0.05982 -0.12497,0.107858 -0.16675,0.143933 -0.0418,0.03663 -0.0784,0.06829 -0.1121,0.097 -0.0339,0.02798 -0.0534,0.03957 -0.0583,0.03443 -0.005,0 -0.0208,-0.0072 -0.0468,-0.02283 -0.0258,-0.01584 -0.0517,-0.03607 -0.0777,-0.06258 -0.0309,-0.02522 -0.0683,-0.05264 -0.11209,-0.08135 -0.0438,-0.02797 -0.0812,-0.05025 -0.11209,-0.06534 -0.0418,-0.02596 -0.0856,-0.05835 -0.1316,-0.09718 -0.0467,-0.03884 -0.11946,-0.107121 -0.21719,-0.205592 -0.15534,-0.159579 -0.28823,-0.303329 -0.39977,-0.429958 -0.11062,-0.12645 -0.22068,-0.259525 -0.32927,-0.399038 -0.051,-0.06681 -0.11577,-0.149458 -0.19345,-0.247928 -0.0777,-0.09792 -0.14724,-0.183321 -0.20909,-0.256022 -0.0626,-0.07197 -0.12019,-0.143016 -0.17411,-0.212774 -0.0547,-0.06976 -0.092,-0.11798 -0.11283,-0.143747 l -0.008,-0.0151 c -0.0208,-0.0309 -0.041,-0.06129 -0.0618,-0.08927 -0.0208,-0.02872 -0.0416,-0.0554 -0.0618,-0.08117 -0.0468,-0.05172 -0.10712,-0.134546 -0.18258,-0.248109 -0.0747,-0.113562 -0.13805,-0.214242 -0.18977,-0.302591 l -0.023,-0.04675 c -0.026,-0.04105 -0.0517,-0.08135 -0.0777,-0.120192 -0.026,-0.0381 -0.0438,-0.06755 -0.0547,-0.08835 -0.0359,-0.05172 -0.0977,-0.155346 -0.18553,-0.309954 -0.0876,-0.155346 -0.1467,-0.260996 -0.17835,-0.317683 -0.01,-0.01584 0.0101,-0.05117 0.0618,-0.105096 0.0519,-0.05467 0.19915,-0.199888 0.44229,-0.437875 0.13951,-0.134363 0.28675,-0.27535 0.44136,-0.422596 0.15461,-0.147433 0.26891,-0.253817 0.34161,-0.321367 l 0.0388,-0.0309 c 0.0928,-0.08853 0.18405,-0.174854 0.27461,-0.259708 0.0906,-0.0854 0.17688,-0.166754 0.25952,-0.244429 l -0.0238,0.023 c 0.187,-0.175408 0.37677,-0.352287 0.57021,-0.530638 0.194,-0.17817 0.4018,-0.365171 0.62395,-0.561379 0.0777,-0.0727 0.14596,-0.136017 0.20559,-0.1905 0.0591,-0.05393 0.0942,-0.08632 0.10436,-0.09645 m -2.45678,5.262216 c 0.0309,-0.02596 0.0517,-0.0381 0.0618,-0.0381 0.0109,0 0.026,0.0072 0.0467,0.023 0.0151,0.01012 0.0245,0.02007 0.0267,0.03094 0.003,0.01013 0.004,0.01803 0.004,0.023 -0.005,0.01069 -0.0388,0.04528 -0.10068,0.104175 -0.0618,0.05964 -0.13657,0.130867 -0.22492,0.213509 -0.0828,0.07767 -0.16896,0.160312 -0.2597,0.248108 -0.0906,0.0878 -0.15884,0.154608 -0.20559,0.201362 -0.0409,0.04675 -0.0797,0.08687 -0.11577,0.120005 -0.0359,0.03387 -0.0574,0.05098 -0.0618,0.05098 -0.0158,0 -0.0322,-0.01362 -0.051,-0.03939 -0.018,-0.02522 -0.0267,-0.04602 -0.0267,-0.06111 0,-0.01086 0.13233,-0.145221 0.39903,-0.404191 0.26615,-0.257313 0.43511,-0.415601 0.50763,-0.472292"
       style="fill:#21201d;fill-opacity:1;fill-rule:nonzero;stroke:none;stroke-width:0.184057"
       id="path574" />
  </g>
</svg>
