<?xml version="1.0" encoding="UTF-8" standalone="no"?>
<!-- Created with Inkscape (http://www.inkscape.org/) -->

<svg
   width="7.8168025mm"
   height="6.3013835mm"
   viewBox="0 0 7.8168025 6.3013835"
   version="1.1"
   id="svg1877"
   inkscape:version="1.1.2 (0a00cf5339, 2022-02-04)"
   sodipodi:docname="riddles_and_rain.svg"
   xmlns:inkscape="http://www.inkscape.org/namespaces/inkscape"
   xmlns:sodipodi="http://sodipodi.sourceforge.net/DTD/sodipodi-0.dtd"
   xmlns="http://www.w3.org/2000/svg"
   xmlns:svg="http://www.w3.org/2000/svg">
  <sodipodi:namedview
     id="namedview1879"
     pagecolor="#ffffff"
     bordercolor="#666666"
     borderopacity="1.0"
     inkscape:pageshadow="2"
     inkscape:pageopacity="0.0"
     inkscape:pagecheckerboard="0"
     inkscape:document-units="mm"
     showgrid="false"
     inkscape:zoom="0.64052329"
     inkscape:cx="-1116.2748"
     inkscape:cy="378.59669"
     inkscape:window-width="2560"
     inkscape:window-height="1376"
     inkscape:window-x="0"
     inkscape:window-y="0"
     inkscape:window-maximized="1"
     inkscape:current-layer="layer1" />
  <defs
     id="defs1874" />
  <g
     inkscape:label="Layer 1"
     inkscape:groupmode="layer"
     id="layer1"
     transform="translate(-400.07871,-48.483597)">
    <path
       d="m 406.40031,50.145116 c -0.0107,-0.01069 -0.0295,-0.02155 -0.0567,-0.03221 -0.0532,0.0057 -0.0668,0.04013 -0.0396,0.104179 0.0267,0.06534 0.0826,0.134546 0.16822,0.210009 0.049,0.03737 0.15314,0.142278 0.31419,0.31345 0.16031,0.170991 0.27314,0.296887 0.33719,0.377504 0.0431,0.05393 0.0819,0.111354 0.11651,0.173199 0.0351,0.06184 0.0525,0.103438 0.0525,0.124422 0,0.0057 -10e-4,0.01143 -0.004,0.01658 -0.002,0.005 -0.007,0.0079 -0.0116,0.0079 -0.006,0 -0.0482,-0.03755 -0.12865,-0.113008 -0.0806,-0.07473 -0.17191,-0.163076 -0.27314,-0.265229 -0.16694,-0.166021 -0.2805,-0.276088 -0.34235,-0.32928 -0.0618,-0.05393 -0.12718,-0.09921 -0.19693,-0.137308 -0.15535,-0.08559 -0.27038,-0.138042 -0.34585,-0.156817 -0.0747,-0.01859 -0.12295,-0.0065 -0.14448,0.03663 -0.006,0.01584 -0.0136,0.02667 -0.0245,0.03238 -0.0109,0.005 -0.0295,0.0072 -0.0561,0.0072 -0.0532,0 -0.0711,0.01012 -0.0525,0.02872 0.0195,0.01877 0.074,0.0519 0.16547,0.100679 0.12295,0.05908 0.18184,0.09995 0.17688,0.124425 -0.006,0.02374 -0.0749,0.01729 -0.20927,-0.02007 -0.0591,-0.02152 -0.16253,-0.04325 -0.30922,-0.06405 -0.14816,-0.02152 -0.23228,-0.02723 -0.25381,-0.01655 -0.0107,0.0059 -0.0158,0.01087 -0.0158,0.01655 0,0.005 0.005,0.01877 0.0158,0.04031 0.0215,0.03737 0.0683,0.07326 0.14098,0.107859 0.0725,0.03517 0.17044,0.06608 0.29339,0.09277 0.15019,0.03221 0.27811,0.06976 0.38597,0.112092 0.10712,0.04307 0.30553,0.134546 0.59542,0.273879 0.33719,0.166204 0.56211,0.282712 0.67512,0.349525 0.11282,0.06755 0.20632,0.148717 0.28105,0.245166 0.0324,0.0381 0.0539,0.04877 0.0646,0.03238 0.0109,-0.01584 0.008,-0.05908 -0.008,-0.128841 -0.0166,-0.06976 -0.0403,-0.133625 -0.0727,-0.192709 -0.0316,-0.0589 -0.0777,-0.125708 -0.13657,-0.201175 -0.0267,-0.02667 -0.0619,-0.067 -0.1051,-0.120188 -0.0423,-0.05393 -0.0826,-0.104178 -0.12,-0.153137 -0.12866,-0.171725 -0.29615,-0.375295 -0.50248,-0.611071 -0.20632,-0.235779 -0.33148,-0.364437 -0.374,-0.386154 m -1.10213,0.06479 c 0.0431,-0.02152 0.074,-0.0309 0.0928,-0.02798 0.0188,0.0021 0.028,0.01637 0.028,0.0438 0,0.03238 -0.004,0.05467 -0.0121,0.06829 -0.008,0.01362 -0.0252,0.02797 -0.0525,0.0438 -0.0208,0.01087 -0.0366,0.0151 -0.0475,0.01305 -0.0109,-0.0028 -0.0245,-0.01013 -0.0403,-0.02099 -0.0272,-0.01584 -0.0396,-0.03443 -0.0366,-0.05595 0.003,-0.02099 0.026,-0.04252 0.0683,-0.06405 m 0.0727,0.787954 c -0.0433,-0.02152 -0.0705,-0.03369 -0.0841,-0.03663 -0.0138,-0.0028 -0.0289,0.0042 -0.0447,0.02007 -0.0315,0.03238 -0.0243,0.08209 0.0245,0.148904 0.0482,0.06755 0.15534,0.178351 0.32136,0.334247 0.11798,0.106387 0.22013,0.194183 0.30554,0.260995 0.0863,0.067 0.19565,0.145959 0.32945,0.23725 0.1883,0.128842 0.31695,0.212955 0.38597,0.25308 0.0698,0.04031 0.11007,0.0554 0.12074,0.04472 0.0109,-0.01087 -0.004,-0.03681 -0.0445,-0.07693 -0.0396,-0.04031 -0.12939,-0.121662 -0.26891,-0.245166 -0.0589,-0.05319 -0.10988,-0.09921 -0.15313,-0.136755 -0.0423,-0.03736 -0.0639,-0.0589 -0.0639,-0.06387 -0.0482,-0.04896 -0.0913,-0.08632 -0.12884,-0.113012 -0.0374,-0.03147 -0.0926,-0.08191 -0.16454,-0.14872 -0.0727,-0.06681 -0.14301,-0.132338 -0.21277,-0.196942 -0.0698,-0.06976 -0.13602,-0.130863 -0.19713,-0.184792 -0.0618,-0.0532 -0.10344,-0.08559 -0.12497,-0.09645 m 0.0639,-0.941091 c -0.0374,-0.03736 -0.0653,-0.06184 -0.0841,-0.07197 -0.0186,-0.01069 -0.0438,-0.01658 -0.0762,-0.01658 -0.0913,0 -0.14743,0.04896 -0.16897,0.144667 -0.0215,0.097 0.008,0.184795 0.0885,0.265229 0.0324,0.03238 0.0552,0.05319 0.0683,0.06037 0.0136,0.0079 0.0359,0.01013 0.0683,0.0044 0.0646,-0.01087 0.11927,-0.04325 0.16528,-0.09645 0.0453,-0.05393 0.0598,-0.10215 0.044,-0.144483 -0.006,-0.01658 -0.0173,-0.0381 -0.0361,-0.06479 -0.0186,-0.02649 -0.0416,-0.05393 -0.069,-0.08043 m -0.53837,2.026846 c -0.0101,-0.0059 -0.0361,-0.0072 -0.0764,-0.0044 -0.0401,0.0028 -0.0762,0.0094 -0.10841,0.02025 -0.0591,0.02649 -0.13013,0.09479 -0.21295,0.204858 -0.0834,0.110066 -0.13584,0.204854 -0.15664,0.285475 -0.006,0.02152 -0.0123,0.08982 -0.0208,0.205591 -0.007,0.115038 -0.0116,0.242221 -0.0116,0.381734 -0.006,0.219216 -0.007,0.358729 -0.004,0.417812 0.003,0.0589 0.009,0.08835 0.0201,0.08835 0.0109,0 0.023,-0.0094 0.0359,-0.02797 0.0136,-0.01877 0.0309,-0.05246 0.0525,-0.09994 0.005,-0.01658 0.0138,-0.05963 0.0245,-0.129392 0.0109,-0.06976 0.021,-0.144671 0.0316,-0.225104 0.0381,-0.240933 0.0819,-0.437875 0.13307,-0.591008 0.051,-0.1524 0.11357,-0.271855 0.18903,-0.357259 0.0431,-0.04896 0.072,-0.08632 0.0885,-0.113012 0.0158,-0.02649 0.0208,-0.04528 0.0158,-0.05595 m -0.64291,0.208354 c 0,-0.01069 -0.009,-0.01143 -0.0243,-0.0042 -0.0158,0.0086 -0.0324,0.02081 -0.0482,0.03663 -0.0433,0.04822 -0.0863,0.133075 -0.12866,0.253816 -0.0433,0.120188 -0.0698,0.242404 -0.0806,0.365355 -0.005,0.04877 -0.0136,0.110617 -0.0245,0.185345 -0.005,0.03736 10e-4,0.05761 0.0202,0.05982 0.0186,0.0028 0.0366,-0.0094 0.0525,-0.03608 0.006,-0.02152 0.0136,-0.06037 0.0238,-0.116508 0.0114,-0.05595 0.0272,-0.159575 0.0488,-0.309767 0.006,-0.03737 0.0158,-0.07988 0.0317,-0.128658 0.0166,-0.04823 0.0353,-0.09571 0.0569,-0.144671 0.0158,-0.04307 0.0324,-0.07896 0.0482,-0.108408 0.0157,-0.02963 0.0243,-0.04675 0.0243,-0.05264 m -1.07765,-1.856959 c 0.0641,-0.02667 0.0977,-0.02963 0.10068,-0.0079 0.002,0.02152 -0.0317,0.06387 -0.10068,0.128658 -0.0267,0.02649 -0.0497,0.04951 -0.0683,0.06755 -0.0188,0.01877 -0.0287,0.0309 -0.0287,0.03663 0,0.0052 -0.002,0.01436 -0.008,0.02815 -0.005,0.01362 -0.0131,0.02575 -0.0238,0.03663 -0.006,0.01584 -0.0138,0.03443 -0.0245,0.05614 -0.0101,0.02081 -0.0215,0.04307 -0.0324,0.06387 -0.005,0.02152 -0.0129,0.04675 -0.0237,0.07694 -0.0107,0.02946 -0.0215,0.05466 -0.0324,0.0762 -0.0107,0.02152 -0.0295,0.06405 -0.056,0.128104 -0.0267,0.06534 -0.0539,0.131417 -0.0806,0.201175 -0.0482,0.134546 -0.0869,0.233751 -0.11651,0.297621 -0.0294,0.06405 -0.0495,0.09645 -0.0604,0.09645 -0.0158,0 -0.0215,-0.05467 -0.0158,-0.164733 0.005,-0.109883 0.013,-0.204855 0.0237,-0.285288 0.0166,-0.08559 0.0396,-0.164733 0.0683,-0.23725 0.0294,-0.0727 0.0712,-0.153875 0.12516,-0.24535 0.0482,-0.06958 0.10859,-0.140804 0.18037,-0.212771 0.0727,-0.07252 0.13013,-0.11927 0.17338,-0.140804 m -0.46658,2.074146 0.0488,-0.08761 0.007,0.457934 c 0.006,0.128658 0.009,0.246638 0.0123,0.353762 0.003,0.107121 0.006,0.171725 0.0121,0.192709 0.006,0.0381 0.006,0.06755 0,0.08835 -0.006,0.02152 -0.0186,0.05963 -0.0403,0.112829 -0.0157,0.03239 -0.0309,0.05908 -0.0445,0.08062 -0.0129,0.02152 -0.0223,0.03239 -0.0272,0.03239 -0.0274,0 -0.0512,-0.05687 -0.0727,-0.1697 -0.0216,-0.112275 -0.0322,-0.237987 -0.0322,-0.377504 0,-0.08558 0.003,-0.153871 0.008,-0.204854 0.006,-0.05117 0.0188,-0.116509 0.0403,-0.197125 0.0166,-0.0532 0.0324,-0.108413 0.0482,-0.165287 0.0158,-0.05614 0.0295,-0.09497 0.0403,-0.116509 m 1.30275,-4.020559 c 0.0431,-0.005 0.12221,-0.0065 0.23725,-0.0035 0.11503,0.0028 0.20209,0.0094 0.26099,0.02007 0.10215,0.02099 0.23228,0.06332 0.39038,0.124424 0.15811,0.06184 0.27977,0.116509 0.36591,0.164733 0.0856,0.05393 0.18479,0.108409 0.29706,0.165284 0.11283,0.0554 0.19326,0.09497 0.24149,0.116508 0.0856,0.02649 0.1754,0.07915 0.26964,0.156634 0.0942,0.07767 0.19418,0.177616 0.3013,0.3013 0.0804,0.102154 0.13012,0.175408 0.14872,0.221425 0.0188,0.04527 0.026,0.113562 0.0203,0.204854 l -0.008,0.144671 0.11209,0.097 c 0.0272,0.02667 0.0618,0.05614 0.10492,0.08835 0.0425,0.03164 0.0777,0.05835 0.10436,0.07988 0.0265,0.02152 0.0604,0.05245 0.10068,0.09276 0.0401,0.04031 0.0762,0.07914 0.1084,0.116508 0.0317,0.03737 0.0762,0.08982 0.13308,0.156633 0.0561,0.067 0.1108,0.130129 0.16473,0.189213 0.10123,0.112091 0.17099,0.196941 0.20909,0.253816 0.0374,0.05522 0.0828,0.147983 0.13675,0.276821 0.0639,0.145225 0.11356,0.306825 0.14871,0.48665 0.0346,0.179825 0.0438,0.314925 0.0274,0.406217 l -0.0153,0.06405 -0.17743,-0.144484 c -0.0482,-0.04325 -0.10289,-0.09277 -0.16473,-0.148904 -0.0618,-0.05614 -0.11135,-0.103624 -0.14872,-0.14025 -0.11798,-0.129395 -0.20504,-0.216454 -0.26099,-0.262467 -0.0569,-0.04528 -0.13013,-0.09203 -0.2216,-0.14007 -0.048,-0.02152 -0.10418,-0.0497 -0.16897,-0.08411 -0.0639,-0.03534 -0.11503,-0.06332 -0.1524,-0.08485 -0.0804,-0.04823 -0.13804,-0.07915 -0.17245,-0.09277 -0.0359,-0.01288 -0.0633,-0.01436 -0.0849,-0.0037 -0.0109,0.01086 -0.0151,0.01877 -0.0123,0.02374 0.003,0.0057 0.0123,0.01658 0.0281,0.03238 0.0114,0.01087 0.0265,0.03514 0.0482,0.0727 0.0215,0.03737 0.0431,0.07473 0.0646,0.112092 0.0215,0.03737 0.0561,0.09553 0.10436,0.1732 0.0488,0.07767 0.0963,0.148904 0.14522,0.212954 0.12792,0.198416 0.23008,0.370141 0.30554,0.514625 0.0747,0.144671 0.10141,0.22805 0.0804,0.248846 -0.006,0.0057 -0.0193,0.0021 -0.0409,-0.0114 -0.021,-0.01379 -0.0482,-0.03094 -0.0799,-0.05264 -0.13436,-0.107121 -0.24167,-0.186821 -0.3221,-0.241484 -0.0804,-0.05319 -0.17117,-0.109329 -0.27314,-0.168229 -0.0641,-0.03736 -0.1373,-0.08191 -0.21719,-0.133075 -0.0806,-0.05025 -0.14521,-0.09203 -0.19344,-0.124421 -0.11209,-0.06976 -0.20209,-0.116325 -0.2689,-0.140804 -0.0675,-0.02374 -0.14081,-0.04105 -0.22142,-0.05172 -0.0856,-0.0059 -0.14449,-0.0044 -0.17688,0.0035 -0.0324,0.0086 -0.0532,0.0309 -0.0639,0.06828 -0.006,0.01658 -0.0217,0.04969 -0.0482,0.100682 -0.0274,0.05098 -0.0596,0.103625 -0.0972,0.156817 -0.0797,0.133625 -0.13216,0.241484 -0.15663,0.321363 -0.0238,0.08043 -0.0438,0.203387 -0.0604,0.370142 -0.0101,0.07491 -0.0188,0.142462 -0.0237,0.200624 -0.005,0.05963 -0.008,0.09129 -0.008,0.09718 0,0.02649 -0.008,0.02649 -0.0245,0 -0.0158,-0.02741 -0.0265,-0.05908 -0.0324,-0.09718 -0.005,-0.04233 -0.0171,-0.07326 -0.0359,-0.09203 -0.0188,-0.01859 -0.0359,-0.02007 -0.0525,-0.0042 -0.0158,0.01655 -0.0281,0.04527 -0.0361,0.08908 -0.008,0.04252 -0.0201,0.144484 -0.0359,0.3048 -0.0324,0.27903 -0.0834,0.506896 -0.15314,0.683775 -0.0697,0.17688 -0.18976,0.375292 -0.36167,0.594692 -0.0532,0.06976 -0.0928,0.115771 -0.11632,0.137308 -0.0237,0.02152 -0.0468,0.03238 -0.0685,0.03238 -0.006,0 -0.008,-0.0059 -0.008,-0.01658 0,-0.01087 0.003,-0.02374 0.008,-0.04031 0.0316,-0.08558 0.0547,-0.181846 0.0685,-0.289704 0.0129,-0.106388 0.0228,-0.23578 0.028,-0.385417 0.006,-0.171175 0.004,-0.293391 -0.004,-0.365908 -0.008,-0.0727 -0.0223,-0.108596 -0.0438,-0.108596 -0.006,0 -0.0121,0.0065 -0.0201,0.02007 -0.009,0.01379 -0.0123,0.03607 -0.0123,0.06829 -0.0265,0.155342 -0.10491,0.328726 -0.23283,0.518492 -0.12865,0.1905 -0.26817,0.336455 -0.41854,0.438608 -0.10712,0.06958 -0.2113,0.124238 -0.31345,0.164547 -0.10215,0.04031 -0.1524,0.04675 -0.1524,0.02025 0,-0.0052 0.0116,-0.03238 0.0359,-0.08062 0.0238,-0.04822 0.0519,-0.104176 0.0841,-0.168963 0.0913,-0.192709 0.14669,-0.325783 0.16473,-0.397567 0.0186,-0.0727 0.0287,-0.199887 0.0287,-0.381737 0,-0.08632 -0.001,-0.184055 -0.004,-0.294121 -0.002,-0.109333 -0.004,-0.202096 -0.004,-0.276825 -0.005,-0.123687 -0.006,-0.201359 -0.004,-0.233571 0.002,-0.03239 0.0171,-0.0727 0.0438,-0.120925 0.0109,-0.02649 0.0245,-0.05319 0.0403,-0.08043 0.0166,-0.02667 0.0302,-0.04252 0.0403,-0.04749 0.0215,-0.01655 0.0344,-0.02448 0.0401,-0.02448 0.006,0 0.0166,0.0079 0.0324,0.02448 0.0374,0.04749 0.0633,0.193446 0.0762,0.437875 0.0136,0.243692 0.009,0.462354 -0.0121,0.655613 -0.0109,0.06902 -0.0195,0.136758 -0.0282,0.200625 -0.008,0.06479 -0.0144,0.107121 -0.0193,0.128654 -0.006,0.02671 -0.0101,0.05117 -0.0123,0.0727 -0.003,0.02081 -0.002,0.03461 0.004,0.04031 0.005,0.01584 0.0109,0.02374 0.0158,0.02374 0.006,0 0.0166,-0.0052 0.0324,-0.01584 0.0431,-0.03238 0.0834,-0.08062 0.12074,-0.145221 0.0374,-0.06405 0.064,-0.128108 0.0806,-0.192712 0.0423,-0.198413 0.0841,-0.429959 0.12424,-0.695921 0.0403,-0.264675 0.0769,-0.518492 0.10859,-0.759238 0.0109,-0.08632 0.0215,-0.156083 0.0324,-0.209275 0.0109,-0.05393 0.0295,-0.112829 0.0561,-0.176879 0.0374,-0.107121 0.0604,-0.173937 0.069,-0.201362 0.007,-0.02649 0.004,-0.04031 -0.0131,-0.04031 -0.0158,0 -0.0626,0.04031 -0.14006,0.120928 -0.0777,0.08043 -0.13805,0.150192 -0.1813,0.209088 -0.0324,0.04325 -0.0547,0.06553 -0.0683,0.06829 -0.0136,0.0028 -0.0201,-0.0151 -0.0201,-0.05246 0.005,-0.03736 0.028,-0.09479 0.0683,-0.172462 0.0403,-0.07767 0.0869,-0.157554 0.14025,-0.23725 0.0381,-0.04822 0.0617,-0.08485 0.0733,-0.108596 0.0101,-0.02448 0.0129,-0.03589 0.007,-0.03589 -0.0423,-0.02741 -0.13381,0.0035 -0.27314,0.09203 -0.13878,0.08835 -0.26246,0.191971 -0.36958,0.309767 -0.0747,0.08559 -0.12075,0.125896 -0.13657,0.120008 -0.0158,-0.005 0.003,-0.0532 0.056,-0.14375 0.0539,-0.10197 0.12663,-0.20412 0.21719,-0.306274 0.0913,-0.102151 0.20927,-0.211297 0.35375,-0.32928 l 0.14522,-0.112825 h -0.0648 c -0.0272,-0.005 -0.0624,0 -0.10841,0.01584 -0.046,0.01654 -0.11375,0.04307 -0.20505,0.08043 -0.16104,0.06976 -0.2516,0.106384 -0.27313,0.108592 -0.0215,0.0028 -0.006,-0.02797 0.0482,-0.09203 0.0265,-0.03736 0.12295,-0.115771 0.28897,-0.233017 0.16602,-0.118533 0.32136,-0.220683 0.46658,-0.305537 0.0648,-0.04307 0.14596,-0.08908 0.24516,-0.137305 0.0992,-0.04804 0.2021,-0.09626 0.30995,-0.144487 0.0532,-0.02152 0.0653,-0.03736 0.0359,-0.04822 -0.0294,-0.01069 -0.10564,-0.01637 -0.22859,-0.01637 -0.10215,0 -0.16602,0.0021 -0.19344,0.0042 -0.0272,0.0028 -0.0589,0.01729 -0.097,0.04454 -0.0368,0.02596 -0.0683,0.04105 -0.092,0.04381 -0.0237,0.0028 -0.0361,-0.0065 -0.0361,-0.02798 0,-0.01584 0.0123,-0.03443 0.0361,-0.05614 0.0237,-0.02152 0.071,-0.05098 0.1408,-0.08908 0.0965,-0.0589 0.14099,-0.09497 0.13308,-0.107858 -0.009,-0.01362 -0.074,-0.01214 -0.19768,0.0037 -0.0532,0.005 -0.0999,0.01214 -0.14025,0.02007 -0.0403,0.0079 -0.0762,0.02007 -0.10933,0.03589 -0.0265,0.01658 -0.0532,0.02741 -0.0797,0.03238 -0.0274,0.0057 -0.0433,0.0079 -0.0482,0.0079 -0.0166,0 -0.026,-0.0021 -0.028,-0.0079 -0.004,-0.005 0.004,-0.01859 0.0193,-0.04031 0.006,-0.01069 0.0215,-0.02431 0.049,-0.03957 0.0265,-0.01637 0.0532,-0.03295 0.0804,-0.04878 0.0482,-0.02078 0.12295,-0.04822 0.2251,-0.08062 0.10215,-0.03147 0.30774,-0.09332 0.61898,-0.184792 0.21424,-0.06387 0.3948,-0.0913 0.54278,-0.08043 0.14743,0.01087 0.2991,0.06479 0.45444,0.16105 0.0906,0.05319 0.1754,0.08706 0.25307,0.10068 0.0777,0.01362 0.15682,0.0094 0.23725,-0.01235 0.0806,-0.02152 0.12811,-0.05595 0.14449,-0.104912 0.0158,-0.04749 0.003,-0.112092 -0.0401,-0.192708 -0.0425,-0.08559 -0.12092,-0.189763 -0.23301,-0.313451 -0.11283,-0.12295 -0.21498,-0.214242 -0.30554,-0.273141 -0.0215,-0.01658 -0.0512,-0.03663 -0.0885,-0.06037 -0.0374,-0.02448 -0.0668,-0.04675 -0.0883,-0.06829 -0.0267,-0.01584 -0.0532,-0.02963 -0.0806,-0.04031 -0.0265,-0.01087 -0.0453,-0.01584 -0.0567,-0.01584 -0.0158,0 -0.0331,-0.0028 -0.0517,-0.0086 -0.0188,-0.005 -0.0361,-0.01288 -0.0526,-0.02374 -0.0322,-0.01658 -0.10418,-0.04178 -0.217,-0.0762 -0.11228,-0.03514 -0.20062,-0.06037 -0.26541,-0.07694 -0.0265,-0.0057 -0.079,-0.0094 -0.15663,-0.01214 -0.0777,-0.0021 -0.15682,-0.0037 -0.23725,-0.0037 -0.12295,-0.005 -0.20559,-0.005 -0.24958,0 -0.0423,0.0057 -0.0804,0.01362 -0.11209,0.02448 -0.0324,0.01584 -0.10639,0.04031 -0.22142,0.07197 -0.11504,0.03221 -0.25529,0.06958 -0.42204,0.112829 -0.0583,0.01069 -0.1432,0.03589 -0.25308,0.0762 -0.11006,0.04031 -0.22142,0.08411 -0.33369,0.133075 -0.0646,0.02649 -0.16105,0.0589 -0.28971,0.09626 -0.12865,0.03737 -0.23872,0.06682 -0.32927,0.08835 -0.0324,0.0052 -0.0446,0 -0.0366,-0.01637 0.009,-0.01584 0.0337,-0.03755 0.0762,-0.06405 0.0804,-0.05393 0.21995,-0.125158 0.41836,-0.213508 0.19841,-0.0878 0.38321,-0.161787 0.55511,-0.220683 0.13436,-0.04822 0.26375,-0.08559 0.38965,-0.113013 0.12663,-0.02649 0.27258,-0.05025 0.43861,-0.07178 0.0697,-0.0059 0.13012,-0.01235 0.18037,-0.02099 0.0512,-0.0072 0.0791,-0.0114 0.0849,-0.0114 0.0324,-0.02152 0.0267,-0.04381 -0.0158,-0.06829 -0.0431,-0.02448 -0.11062,-0.04178 -0.20117,-0.05246 -0.13455,-0.02667 -0.2043,-0.04675 -0.20928,-0.06037 -0.005,-0.01379 0.051,-0.03607 0.16897,-0.06847 m -0.95691,1.318591 c 0.0854,-0.02152 0.194,-0.03147 0.3256,-0.03147 0.1316,0 0.19694,0.0099 0.19694,0.03147 0,0.01161 -0.0144,0.02173 -0.0446,0.03239 -0.0294,0.01087 -0.0869,0.02448 -0.17245,0.04031 -0.10713,0.02152 -0.20928,0.05098 -0.30554,0.08835 -0.0972,0.03755 -0.20927,0.08853 -0.33793,0.153321 -0.14448,0.06957 -0.2516,0.129392 -0.32136,0.180375 -0.0698,0.05098 -0.13381,0.1143 -0.19344,0.189029 -0.0208,0.03239 -0.0425,0.06037 -0.0641,0.08485 -0.0215,0.02374 -0.0344,0.03607 -0.0403,0.03607 -0.0265,-0.01086 -0.0186,-0.05908 0.0245,-0.14467 0.0425,-0.08614 0.10215,-0.171725 0.17688,-0.257313 0.0532,-0.05393 0.11798,-0.107858 0.19271,-0.16105 0.0747,-0.05393 0.12589,-0.08062 0.15313,-0.08062 0.0109,0 0.0237,-0.0021 0.0396,-0.0079 0.0166,-0.005 0.0302,-0.01362 0.041,-0.02357 0.0322,-0.02173 0.0762,-0.04325 0.13215,-0.06479 0.0561,-0.02152 0.12221,-0.04307 0.19712,-0.06479 m -0.92469,1.946413 c 0.0641,-0.04325 0.10068,-0.05761 0.10859,-0.04399 0.008,0.01305 -0.004,0.06553 -0.0366,0.156817 -0.005,0.02081 -0.0129,0.05319 -0.0237,0.09626 -0.0109,0.04252 -0.0188,0.08559 -0.0237,0.128841 -0.0109,0.04307 -0.023,0.09626 -0.0366,0.16105 -0.0136,0.06387 -0.0281,0.12295 -0.044,0.176142 -0.0381,0.139333 -0.0631,0.258787 -0.0768,0.357996 -0.0131,0.0992 -0.0225,0.240195 -0.0274,0.422779 -0.006,0.160316 -0.0114,0.259521 -0.0166,0.296887 -0.006,0.0381 -0.0215,0.08558 -0.048,0.144484 -0.0158,0.03239 -0.0339,0.06332 -0.0526,0.09277 -0.0186,0.02946 -0.0337,0.05246 -0.0438,0.06828 l -0.0324,0.04031 -0.0166,-0.04031 v -0.196942 c 0,-0.115033 0.003,-0.248108 0.009,-0.3983 0.0101,-0.251608 0.0188,-0.4191 0.0237,-0.501925 0.006,-0.08338 0.0216,-0.184058 0.0482,-0.301858 0.0489,-0.230071 0.0898,-0.383208 0.12515,-0.458117 0.0344,-0.07547 0.0891,-0.142279 0.16455,-0.201175 m -0.4745,-0.184796 c 0.0698,-0.06976 0.12718,-0.12295 0.1732,-0.16105 0.0455,-0.03737 0.0734,-0.05614 0.0843,-0.05614 0.0107,0 0.0186,0.0014 0.0243,0.0037 0.005,0.0028 0.007,0.0099 0.007,0.02081 0,0.01012 -0.0547,0.10933 -0.16381,0.296884 -0.11007,0.187741 -0.17614,0.291917 -0.19768,0.313454 -0.0158,0.02173 -0.0418,0.06975 -0.0764,0.145221 -0.0351,0.07491 -0.0525,0.12295 -0.0525,0.144667 0,0.02155 -0.0151,0.05448 -0.0438,0.100496 -0.0295,0.04546 -0.0661,0.08927 -0.1086,0.132337 -0.0697,0.07547 -0.10215,0.08982 -0.0963,0.04454 0.005,-0.04528 0.0532,-0.210559 0.14449,-0.494563 l 0.0883,-0.273325 z m -0.58659,0.31345 c 0.0423,-0.03239 0.0762,-0.04969 0.1,-0.05245 0.0243,-0.0021 0.0416,0.0094 0.0524,0.03663 0.0107,0.02081 0.0107,0.04307 0,0.06405 -0.0109,0.02152 -0.0403,0.06387 -0.0885,0.128655 -0.0431,0.04822 -0.0869,0.111354 -0.13289,0.189029 -0.0455,0.07767 -0.0979,0.175408 -0.15608,0.293387 -0.0489,0.09626 -0.0928,0.179642 -0.13307,0.2494 -0.0401,0.06976 -0.0633,0.104359 -0.0683,0.104359 -0.0107,0.0057 -0.0173,-0.0052 -0.0201,-0.03239 -0.003,-0.02649 -0.001,-0.09056 0.004,-0.192709 0.006,-0.107124 0.0109,-0.178354 0.0166,-0.212771 0.005,-0.03517 0.0188,-0.07399 0.0403,-0.116511 0.0158,-0.02723 0.0331,-0.05669 0.0517,-0.08835 0.0188,-0.03238 0.0366,-0.05687 0.0525,-0.0727 l -0.048,0.05614 c 0.0208,-0.02667 0.0453,-0.05466 0.0718,-0.08411 0.0274,-0.02946 0.0618,-0.07417 0.1051,-0.133075 0.0215,-0.02152 0.0466,-0.04749 0.0762,-0.0762 0.0302,-0.02946 0.0552,-0.04969 0.0769,-0.06037 m 1.75277,-2.492696 c 0.23007,-0.04307 0.34584,-0.05393 0.34584,-0.03239 0,0.02152 -0.11007,0.08062 -0.33002,0.17688 -0.2308,0.102154 -0.42424,0.196208 -0.58308,0.281795 -0.15737,0.08559 -0.30995,0.184792 -0.45444,0.297067 -0.0265,0.01637 -0.0589,0.03663 -0.0963,0.06037 -0.0374,0.02448 -0.0698,0.04381 -0.0965,0.06037 -0.0431,0.02155 -0.10988,0.07547 -0.20117,0.161054 -0.0907,0.08558 -0.22804,0.222158 -0.40989,0.410446 -0.13952,0.138783 -0.26247,0.259524 -0.37032,0.360937 -0.10712,0.102154 -0.16308,0.159029 -0.16823,0.168967 -0.0166,0.01161 -0.0245,0.01362 -0.0245,0.0086 0,-0.0057 0.005,-0.02448 0.0158,-0.05669 0.0109,-0.02099 0.021,-0.04178 0.0282,-0.06056 0.009,-0.01859 0.0178,-0.0302 0.028,-0.03514 l 0.29762,-0.427013 c 0.049,-0.06976 0.0863,-0.122217 0.11301,-0.156817 0.0265,-0.03443 -0.006,0.01803 -0.0964,0.156817 0.0589,-0.08559 0.12939,-0.179825 0.21276,-0.281242 0.0834,-0.101967 0.15977,-0.187554 0.22934,-0.257312 0.0433,-0.04823 0.11154,-0.10565 0.20504,-0.173384 0.0935,-0.06681 0.24516,-0.164546 0.45425,-0.293204 0.17688,-0.117979 0.3221,-0.19915 0.43437,-0.245163 0.11209,-0.04528 0.26817,-0.08706 0.46658,-0.124424 m -1.47963,1.430683 c 0.0482,-0.02081 0.0935,-0.03295 0.13658,-0.03589 0.0431,-0.0021 0.0641,0.0042 0.0641,0.02078 0,0.0052 -0.0252,0.03461 -0.0762,0.08853 -0.0512,0.05319 -0.11154,0.117246 -0.18056,0.191971 -0.0698,0.0705 -0.1408,0.145225 -0.21351,0.225658 -0.0725,0.08062 -0.12442,0.139513 -0.15663,0.176879 -0.0756,0.09645 -0.16105,0.24093 -0.25749,0.434375 -0.0963,0.192709 -0.17173,0.369405 -0.2251,0.530455 -0.048,0.155345 -0.11504,0.332962 -0.20118,0.530641 -0.0856,0.198413 -0.1338,0.29265 -0.14448,0.281975 -0.0109,-0.0059 -0.0138,-0.03884 -0.008,-0.100679 0.005,-0.06184 0.0157,-0.138042 0.0322,-0.229337 0.021,-0.117243 0.0527,-0.251055 0.092,-0.398484 0.0403,-0.147246 0.0742,-0.250134 0.10068,-0.309033 0.0109,-0.02667 0.0215,-0.05393 0.0324,-0.08062 0.0109,-0.02649 0.0158,-0.04804 0.0158,-0.06387 0.0324,-0.118716 0.10859,-0.284737 0.22933,-0.498979 0.12001,-0.214245 0.22363,-0.367379 0.30922,-0.458671 0.0431,-0.04749 0.11429,-0.1051 0.2135,-0.17265 0.0985,-0.06681 0.17835,-0.1108 0.23725,-0.133071"
       style="fill:#21201d;fill-opacity:1;fill-rule:nonzero;stroke:none;stroke-width:0.184057"
       id="path584" />
  </g>
</svg>
