<?xml version="1.0" encoding="UTF-8" standalone="no"?>
<!-- Created with Inkscape (http://www.inkscape.org/) -->

<svg
   width="6.9339299mm"
   height="7.3204427mm"
   viewBox="0 0 6.9339299 7.3204427"
   version="1.1"
   id="svg2012"
   inkscape:version="1.1.2 (0a00cf5339, 2022-02-04)"
   sodipodi:docname="scarlet_sorcery.svg"
   xmlns:inkscape="http://www.inkscape.org/namespaces/inkscape"
   xmlns:sodipodi="http://sodipodi.sourceforge.net/DTD/sodipodi-0.dtd"
   xmlns="http://www.w3.org/2000/svg"
   xmlns:svg="http://www.w3.org/2000/svg">
  <sodipodi:namedview
     id="namedview2014"
     pagecolor="#ffffff"
     bordercolor="#666666"
     borderopacity="1.0"
     inkscape:pageshadow="2"
     inkscape:pageopacity="0.0"
     inkscape:pagecheckerboard="0"
     inkscape:document-units="mm"
     showgrid="false"
     inkscape:zoom="0.64052329"
     inkscape:cx="-1511.2643"
     inkscape:cy="383.28037"
     inkscape:window-width="2560"
     inkscape:window-height="1376"
     inkscape:window-x="0"
     inkscape:window-y="0"
     inkscape:window-maximized="1"
     inkscape:current-layer="layer1" />
  <defs
     id="defs2009" />
  <g
     inkscape:label="Layer 1"
     inkscape:groupmode="layer"
     id="layer1"
     transform="translate(-504.61353,-47.147865)">
    <path
       d="m 509.21046,48.744765 c 0.005,-0.03164 0.006,-0.06258 0.004,-0.09277 -0.003,-0.03164 -0.006,-0.05246 -0.0114,-0.06258 -0.005,-0.01584 -0.0101,-0.02226 -0.0158,-0.01933 -0.005,0.0028 -0.0121,0.01436 -0.023,0.03443 -0.005,0.01584 -0.009,0.0381 -0.0116,0.06626 -0.002,0.02872 -0.004,0.05595 -0.004,0.08117 0,0.02596 -0.002,0.05043 -0.007,0.07399 -0.005,0.02318 -0.0109,0.04031 -0.0158,0.05043 -0.0151,0.02081 -0.0245,0.04233 -0.0267,0.06534 -0.003,0.02374 0.004,0.03313 0.0195,0.02741 0.026,-0.01012 0.0475,-0.03461 0.0661,-0.07344 0.018,-0.03883 0.0267,-0.08908 0.0267,-0.150925 m -0.0928,0.340875 c 0,-0.01087 -0.003,-0.01951 -0.008,-0.02741 -0.005,-0.0079 -0.0109,-0.0114 -0.0158,-0.0114 -0.0101,-0.0052 -0.018,-0.0052 -0.023,0 -0.006,0.005 -0.008,0.01584 -0.008,0.0309 0,0.0099 -0.005,0.02431 -0.0158,0.04233 -0.0101,0.01803 -0.023,0.03534 -0.0388,0.05117 -0.0151,0.0151 -0.028,0.03073 -0.0381,0.04601 -0.0107,0.01566 -0.0158,0.02575 -0.0158,0.03073 0,0.0052 -0.005,0.01305 -0.0151,0.023 -0.0107,0.01087 -0.0215,0.02099 -0.0309,0.03164 -0.0316,0.0151 -0.0777,0.06184 -0.14006,0.139517 -0.0618,0.07767 -0.0928,0.123684 -0.0928,0.139513 0,0.02596 0.0144,0.02723 0.0431,0.0037 0.028,-0.02318 0.0784,-0.07344 0.15019,-0.151113 0.0777,-0.0935 0.13731,-0.168229 0.17835,-0.224366 0.0418,-0.05669 0.0648,-0.09847 0.0705,-0.124238 m -0.38762,-0.372533 c 0,-0.0099 -0.005,-0.01658 -0.0157,-0.01859 -0.0109,-0.0028 -0.021,7.06e-4 -0.0309,0.01143 -0.0109,0.01013 -0.0131,0.01951 -0.008,0.02741 0.005,0.0072 0.0129,0.01143 0.023,0.01143 0.0107,0 0.0179,-0.0028 0.023,-0.0079 0.006,-0.0057 0.008,-0.01288 0.008,-0.02374 m -0.10841,0.954154 c 0,-0.02152 -0.0116,-0.0302 -0.0353,-0.02815 -0.023,0.0037 -0.0453,0.01729 -0.0661,0.04325 -0.0101,0.01069 -0.0295,0.02448 -0.0576,0.04233 -0.0287,0.01803 -0.0582,0.03736 -0.0891,0.05835 -0.0569,0.03164 -0.0891,0.05172 -0.097,0.06184 -0.008,0.01069 -10e-4,0.023 0.0193,0.03884 0.005,0.0057 0.0144,0.0065 0.0274,0.0042 0.0121,-0.0028 0.0322,-0.01214 0.0582,-0.02723 0.0151,-0.01584 0.0302,-0.02741 0.046,-0.03461 0.0158,-0.0086 0.026,-0.0114 0.0309,-0.0114 0.0158,0 0.0467,-0.02247 0.0935,-0.06626 0.046,-0.0438 0.0698,-0.07105 0.0698,-0.08117 m -1.16268,0.08485 c -0.0158,-0.05687 -0.0337,-0.0878 -0.0547,-0.09276 -0.0201,-0.0057 -0.0309,0.01803 -0.0309,0.06976 0,0.03589 0.0173,0.07693 0.0504,0.123687 0.0337,0.04675 0.0712,0.0854 0.11209,0.116321 0.0418,0.02596 0.0742,0.04178 0.0972,0.04675 0.023,0.0052 0.069,0.0072 0.13583,0.0072 0.0928,0 0.17043,-0.0065 0.23228,-0.01859 0.0624,-0.01362 0.11135,-0.03313 0.14724,-0.05835 0.0368,-0.02579 0.0468,-0.04013 0.0309,-0.04307 -0.0158,-0.0021 -0.0698,0.0065 -0.16234,0.02724 -0.12442,0.02025 -0.22878,0.02741 -0.31436,0.01951 -0.0854,-0.0079 -0.14578,-0.03239 -0.18185,-0.07399 -0.0151,-0.01012 -0.0287,-0.02667 -0.0388,-0.0497 -0.01,-0.02374 -0.0179,-0.04822 -0.023,-0.07399 m -0.39535,1.178342 c -0.0777,-0.07768 -0.13584,-0.132338 -0.17467,-0.163259 -0.0381,-0.03094 -0.0584,-0.03589 -0.0584,-0.0151 0,0.0151 0.0136,0.04105 0.0388,0.07694 0.026,0.03608 0.0727,0.08779 0.14025,0.155345 0.0309,0.03589 0.0639,0.07473 0.0999,0.116509 0.0366,0.04104 0.0626,0.07472 0.0784,0.100679 0.0309,0.05172 0.11559,0.146696 0.2551,0.286762 0.13951,0.139517 0.22804,0.219396 0.2632,0.240196 0.026,0.01012 0.0431,0.01288 0.051,0.0079 0.007,-0.005 0.004,-0.02081 -0.0114,-0.04675 -0.006,-0.02081 -0.0856,-0.115037 -0.2402,-0.282529 -0.15534,-0.168229 -0.30259,-0.327071 -0.4421,-0.476708 m 2.06916,-3.727909 c 0.026,-0.01584 0.051,-0.02872 0.074,-0.03884 0.023,-0.01069 0.0396,-0.01584 0.0504,-0.01584 0.0258,0 0.046,0.01161 0.0618,0.03461 0.0151,0.02374 0.023,0.05319 0.023,0.08982 0,0.03094 -0.0223,0.104362 -0.0655,0.220687 -0.0438,0.115771 -0.0819,0.199887 -0.11283,0.251792 -0.0101,0.01566 -0.018,0.03369 -0.023,0.05374 -0.005,0.02099 -0.008,0.03681 -0.008,0.04675 0,0.01013 -0.003,0.02099 -0.008,0.0309 -0.005,0.01087 -0.0129,0.02099 -0.023,0.0309 -0.0777,0.06184 -0.17044,0.189212 -0.27903,0.379712 -0.10841,0.191238 -0.14228,0.284738 -0.10123,0.279584 0.0107,0 0.0251,-0.0092 0.0431,-0.02723 0.018,-0.01803 0.0351,-0.04031 0.0503,-0.06552 0.021,-0.0473 0.0618,-0.09056 0.12442,-0.132154 0.0618,-0.04178 0.13878,-0.08283 0.23228,-0.123688 0.0668,-0.02596 0.11853,-0.04896 0.1546,-0.06976 0.0366,-0.02081 0.0596,-0.03957 0.0705,-0.05467 0.01,-0.0151 0.0215,-0.02798 0.0344,-0.03883 0.0129,-0.01013 0.0245,-0.01803 0.0352,-0.023 0.0101,-0.005 0.0245,-0.01143 0.0425,-0.01933 0.018,-0.0079 0.0324,-0.01729 0.0431,-0.02741 0.009,-0.0099 0.023,-0.01785 0.0381,-0.023 0.0158,-0.005 0.0289,-0.0079 0.0388,-0.0079 0.0158,0 0.0374,-0.0065 0.0655,-0.01933 0.0287,-0.01305 0.0589,-0.02741 0.0898,-0.04252 0.031,-0.01584 0.0618,-0.0302 0.0928,-0.04233 0.031,-0.01288 0.0517,-0.01951 0.0618,-0.01951 0.0159,0 0.0626,-0.01069 0.13953,-0.03164 0.0776,-0.02007 0.15733,-0.04602 0.23999,-0.07694 0.0109,-0.0057 0.031,-0.01143 0.0626,-0.01933 0.0311,-0.0079 0.0618,-0.01436 0.0928,-0.01933 0.031,-0.0052 0.0604,-0.01305 0.0893,-0.02374 0.0279,-0.01012 0.0502,-0.01803 0.0661,-0.023 0.0359,-0.01087 0.0705,-0.01379 0.10418,-0.01161 0.0339,0.0021 0.0741,0.01658 0.12019,0.04252 0.0725,0.03663 0.11927,0.08411 0.13931,0.143747 0.0212,0.0589 0.013,0.127921 -0.0229,0.204858 -0.01,0.02081 -0.0359,0.04178 -0.0775,0.06258 -0.0418,0.02007 -0.10583,0.04307 -0.19346,0.06976 -0.0784,0.02081 -0.15957,0.04528 -0.24441,0.07325 -0.0849,0.02889 -0.14319,0.05319 -0.17413,0.07418 l -0.0545,0.023 h 0.0545 c 0.0152,0 0.0411,-0.0028 0.0769,-0.0079 0.0368,-0.0059 0.0727,-0.01305 0.10859,-0.02374 0.0366,-0.01013 0.0727,-0.01877 0.10858,-0.02667 0.0367,-0.0079 0.0618,-0.01214 0.0777,-0.01214 0.0159,0 0.0475,-0.0021 0.097,-0.0072 0.0489,-0.0052 0.10139,-0.01309 0.15829,-0.023 0.1603,-0.02596 0.27809,-0.03534 0.35299,-0.02741 0.0755,0.0079 0.13014,0.03736 0.16676,0.08927 0.0152,0.0309 0.0236,0.07105 0.0236,0.120008 0,0.04896 -0.008,0.09203 -0.0236,0.127917 -0.0208,0.03608 -0.0663,0.06829 -0.13582,0.09645 -0.0697,0.02872 -0.19199,0.05816 -0.36813,0.08908 -0.23724,0.05172 -0.40417,0.08853 -0.49971,0.108592 -0.0957,0.02081 -0.16693,0.03884 -0.2135,0.05467 -0.0618,0.02081 -0.11373,0.04031 -0.15462,0.05816 -0.0418,0.01803 -0.0618,0.03164 -0.0618,0.04252 0,0.005 0.0812,0.005 0.2437,0 0.16252,-0.0052 0.29044,-0.01305 0.38322,-0.023 0.0418,-0.0057 0.0769,-0.0079 0.10491,-0.0079 0.0289,0 0.046,0.0021 0.0504,0.0079 0.0106,0.005 0.0229,0.0072 0.0388,0.0072 0.0159,0 0.0339,-0.0021 0.0547,-0.0072 0.0152,-0.0057 0.0487,-0.01087 0.10047,-0.01584 0.0519,-0.005 0.10657,-0.01013 0.16252,-0.0151 0.10361,-0.0057 0.16694,-0.0057 0.18994,0 0.0236,0.005 0.0532,0.01803 0.0891,0.0381 0.0208,0.01584 0.0403,0.02723 0.0581,0.03514 0.018,0.0079 0.0325,0.0094 0.0425,0.0037 h 0.0201 c 0.007,0 0.0116,0.0028 0.0116,0.0079 0.005,0.005 0.005,0.0099 0,0.01584 -0.006,0.005 -0.0131,0.0099 -0.0236,0.0151 -0.0201,0.0057 -0.0346,0.01711 -0.0425,0.03514 -0.008,0.01803 -0.006,0.04252 0.004,0.07344 0.0106,0.02579 0.0127,0.04657 0.008,0.0624 -0.005,0.0151 -0.0152,0.03607 -0.031,0.06111 -0.0159,0.02099 -0.0325,0.03828 -0.0504,0.05117 -0.018,0.01214 -0.0321,0.02155 -0.0423,0.02723 -0.0359,0.01013 -0.10637,0.02025 -0.20927,0.0309 -0.10344,0.01013 -0.23008,0.02025 -0.38026,0.0309 -0.21643,0.0151 -0.38467,0.03534 -0.50338,0.05835 -0.11927,0.023 -0.17819,0.0473 -0.17819,0.07325 0,0.01013 0.0166,0.01658 0.0503,0.01933 0.0332,0.0021 0.0965,0.0014 0.18976,-0.0042 0.067,0 0.13949,-0.0021 0.21717,-0.0072 0.0777,-0.005 0.13656,-0.01087 0.17837,-0.01584 0.046,-0.005 0.0891,-0.0072 0.12791,-0.0072 0.0381,0 0.0683,0.0021 0.0885,0.0072 0.0215,0.005 0.046,0.0094 0.074,0.01161 0.0286,0.0028 0.0502,0.0042 0.0653,0.0042 0.0467,0 0.0784,0.0086 0.0935,0.02723 0.0152,0.01803 0.0229,0.05264 0.0229,0.104362 0,0.04675 -0.004,0.0762 -0.008,0.08908 -0.005,0.01305 -0.0229,0.02741 -0.0539,0.04325 -0.0208,0.0092 -0.0408,0.01859 -0.0618,0.02649 -0.0208,0.0079 -0.0359,0.01436 -0.0467,0.01951 -0.005,0 -0.0208,0.0035 -0.046,0.01143 -0.0258,0.0079 -0.0495,0.01436 -0.0703,0.01951 -0.0261,0.0099 -0.0606,0.01933 -0.10435,0.02723 -0.0438,0.0072 -0.0841,0.01362 -0.12001,0.01933 -0.0366,0.0052 -0.0727,0.01013 -0.10859,0.01528 -0.0367,0.005 -0.0648,0.01069 -0.0856,0.01563 -0.0152,0.0052 -0.051,0.01161 -0.10862,0.01951 -0.0567,0.0072 -0.11575,0.01362 -0.17815,0.01859 -0.0618,0.0059 -0.12221,0.01379 -0.18204,0.02374 -0.0589,0.01013 -0.10195,0.01803 -0.12792,0.023 -0.0201,0.0059 -0.0423,0.01087 -0.0655,0.01584 -0.0236,0.0052 -0.0401,0.0079 -0.0503,0.0079 -0.0265,0 -0.0826,0.02946 -0.17116,0.08927 -0.0876,0.0589 -0.14449,0.107125 -0.17026,0.143017 -0.046,0.06258 -0.12368,0.135833 -0.23227,0.220683 -0.1086,0.08559 -0.21995,0.156083 -0.3337,0.213508 -0.0517,0.02597 -0.1027,0.05688 -0.15516,0.0935 -0.0512,0.03607 -0.0871,0.06405 -0.10786,0.08485 -0.0519,0.04602 -0.0906,0.07344 -0.1165,0.08135 -0.026,0.0079 -0.0569,-0.0014 -0.0928,-0.02741 -0.0158,-0.01013 -0.0403,-0.02596 -0.074,-0.04601 -0.0339,-0.02081 -0.0655,-0.03884 -0.0964,-0.05467 -0.0366,-0.02007 -0.0777,-0.04675 -0.12443,-0.07767 0,-0.005 -0.004,-0.0086 -0.0114,-0.01143 -0.008,-0.0028 -0.0166,-0.0037 -0.0274,-0.0037 -0.0157,0 -0.0295,-0.0042 -0.0423,-0.0114 -0.0129,-0.0079 -0.0245,-0.01951 -0.0351,-0.03534 -0.005,-0.0099 -0.0195,-0.023 -0.0425,-0.03883 -0.023,-0.0151 -0.0503,-0.02872 -0.0812,-0.0381 -0.026,-0.01069 -0.0532,-0.02226 -0.0813,-0.03517 -0.0287,-0.01288 -0.048,-0.02448 -0.0582,-0.03514 -0.0101,-0.01012 -0.0238,-0.01951 -0.0388,-0.02667 -0.0158,-0.0079 -0.0287,-0.01143 -0.0388,-0.01143 -0.005,0 -0.0208,-0.0066 -0.0467,-0.02025 -0.0252,-0.01214 -0.051,-0.02649 -0.0769,-0.04233 -0.0265,-0.01584 -0.0626,-0.03736 -0.10859,-0.06626 -0.0467,-0.02797 -0.0906,-0.04951 -0.13216,-0.06534 -0.041,-0.02081 -0.0885,-0.04381 -0.14319,-0.06976 -0.0539,-0.02596 -0.0992,-0.0497 -0.1351,-0.06976 -0.0366,-0.01584 -0.0834,-0.03663 -0.14025,-0.06258 -0.0567,-0.02575 -0.10859,-0.04602 -0.15461,-0.06185 -0.0777,-0.02505 -0.14227,-0.05393 -0.19399,-0.08559 -0.0519,-0.0302 -0.0749,-0.05669 -0.0698,-0.07693 0,-0.005 0.01,-0.01143 0.0316,-0.01933 0.0201,-0.0079 0.0438,-0.01658 0.069,-0.02723 0.0257,-0.01012 0.0559,-0.02173 0.0891,-0.03461 0.0339,-0.01362 0.0611,-0.02226 0.0819,-0.02723 0.0252,-0.01584 0.0591,-0.02741 0.0999,-0.03534 0.0418,-0.0072 0.0906,-0.01362 0.14742,-0.01859 0.0935,-0.0059 0.1697,-0.01877 0.22934,-0.03883 0.0589,-0.02099 0.11945,-0.05761 0.18184,-0.108595 0.026,-0.02596 0.0641,-0.07767 0.11578,-0.155346 0.0519,-0.07693 0.0856,-0.137305 0.10141,-0.17835 0,-0.0099 0.005,-0.023 0.0151,-0.03884 0.0101,-0.0151 0.0208,-0.02797 0.0309,-0.0381 0.0109,-0.01584 0.0195,-0.0381 0.0272,-0.06607 0.008,-0.02872 0.0145,-0.06111 0.0195,-0.097 0.005,-0.03094 0.0114,-0.06258 0.0193,-0.09277 0.008,-0.0309 0.0145,-0.04896 0.0195,-0.05466 0.005,-0.01013 0.0144,-0.03313 0.0272,-0.06976 0.0131,-0.03589 0.0267,-0.07767 0.0425,-0.123688 0.01,-0.0416 0.0272,-0.08761 0.0503,-0.139516 0.0237,-0.05172 0.0453,-0.09055 0.0663,-0.116325 l -0.0158,0.0151 c 0.0258,-0.03094 0.0503,-0.06553 0.0733,-0.104362 0.0237,-0.03884 0.0482,-0.08117 0.074,-0.127921 0.0777,-0.124421 0.1835,-0.265963 0.31787,-0.426463 0.13436,-0.159579 0.21645,-0.240012 0.2481,-0.240012 0.005,0 0.0151,-0.0052 0.0309,-0.01584 0.0158,-0.01013 0.0309,-0.023 0.0467,-0.03883 0.0409,-0.03589 0.11062,-0.08853 0.20835,-0.158291 0.0987,-0.06958 0.17614,-0.120742 0.23302,-0.150925 m -2.5501,3.952275 c -0.0361,-0.05172 -0.0712,-0.08633 -0.10436,-0.104362 -0.0337,-0.01859 -0.0423,-0.01143 -0.0272,0.01951 0.01,0.0309 0.0388,0.08117 0.0849,0.150926 0.0468,0.06976 0.0834,0.117983 0.10914,0.143196 0.0101,0.01584 0.0202,0.03147 0.0309,0.04657 0.0101,0.01584 0.0151,0.02815 0.0151,0.03884 0,0.0052 0.007,0.02448 0.0202,0.05835 0.0121,0.03369 0.0295,0.0705 0.0495,0.112091 0.021,0.03607 0.044,0.08485 0.0697,0.147429 0,0.0151 0.0381,0.08909 0.11283,0.220688 0.0749,0.1316 0.12019,0.204858 0.13602,0.220683 0.01,0.0059 0.0201,0.01087 0.0302,0.01584 0.0107,0.0052 0.0186,0.0072 0.0237,0.0072 0.01,-0.0099 0.0129,-0.02798 0.007,-0.05393 -0.004,-0.02575 -0.018,-0.06166 -0.0381,-0.108409 -0.0158,-0.02596 -0.0339,-0.05835 -0.0547,-0.09718 -0.0203,-0.0381 -0.0381,-0.07546 -0.0539,-0.112092 -0.0158,-0.03589 -0.0359,-0.07767 -0.0618,-0.123687 -0.026,-0.04675 -0.049,-0.08559 -0.0698,-0.116509 l 0.023,0.03884 c -0.0208,-0.0416 -0.0438,-0.08264 -0.0698,-0.123688 -0.0257,-0.0416 -0.0547,-0.0935 -0.0856,-0.155162 -0.0151,-0.03164 -0.0374,-0.06976 -0.0653,-0.116508 -0.0287,-0.04601 -0.0561,-0.08283 -0.0819,-0.108592 m -0.54223,0.247925 c -0.0107,-0.0099 -0.0193,-0.02081 -0.0272,-0.03073 -0.008,-0.01013 -0.0136,-0.01584 -0.0195,-0.01584 -0.0208,0 -0.025,0.01436 -0.0158,0.04233 0.0109,0.02872 0.0339,0.07197 0.0705,0.127921 0.0309,0.04749 0.0648,0.106384 0.10068,0.17835 0.0359,0.0727 0.0878,0.191975 0.15461,0.356705 0.026,0.05669 0.049,0.106387 0.0697,0.147246 0.0208,0.04105 0.0337,0.06479 0.0388,0.06976 0.006,0.0052 0.009,0.01305 0.0121,0.02374 0.002,0.01012 0.004,0.02025 0.004,0.0309 0,0.02596 0.0114,0.04896 0.0344,0.06976 0.0238,0.02007 0.0433,0.02596 0.0583,0.0151 0.0107,-0.0151 0,-0.07325 -0.0309,-0.173933 -0.0309,-0.10068 -0.072,-0.210746 -0.12369,-0.32928 -0.0418,-0.08779 -0.0972,-0.187741 -0.16693,-0.298358 -0.0696,-0.111541 -0.11283,-0.166941 -0.12792,-0.166941 -0.005,0 -0.0101,-0.005 -0.0151,-0.01584 -0.006,-0.01069 -0.0107,-0.02007 -0.0158,-0.0309 m -0.38026,-1.60388 c 0.10344,-0.0519 0.17761,-0.07491 0.22068,-0.06976 0.0445,0.005 0.095,0.04601 0.15166,0.123687 0.0158,0.02078 0.0309,0.04012 0.0468,0.05816 0.0151,0.01803 0.026,0.02723 0.0309,0.02723 0.005,0 0.0151,0.0037 0.0309,0.01161 0.0151,0.0079 0.0309,0.01658 0.0467,0.02723 0.046,0.03608 0.15166,0.09277 0.31786,0.170438 0.16528,0.07767 0.28897,0.126633 0.37161,0.146695 0.0101,0.0057 0.0223,0.01214 0.0353,0.02007 0.0129,0.0079 0.0243,0.01655 0.0344,0.02667 0.005,0.01013 0.0144,0.01933 0.0272,0.02724 0.013,0.0072 0.0217,0.01161 0.0267,0.01161 0.0215,0 0.0935,0.02946 0.21792,0.08982 0.1235,0.0589 0.20338,0.101416 0.24001,0.12737 0.0151,0.01069 0.0316,0.02081 0.0497,0.03094 0.0186,0.0099 0.0302,0.01584 0.0351,0.01584 0.026,0 0.0814,0.02226 0.16676,0.06534 0.0848,0.0438 0.17982,0.09994 0.28271,0.166755 0.0466,0.0309 0.0869,0.05835 0.12074,0.08135 0.0331,0.023 0.0524,0.03514 0.0574,0.03514 0.0101,0 0.0705,0.03313 0.17909,0.10068 0.10785,0.06681 0.17835,0.11062 0.20853,0.131603 l 0.0467,0.03883 -0.0388,0.100679 c -0.0101,0.03147 -0.023,0.05816 -0.0381,0.08117 -0.0158,0.02374 -0.0289,0.0381 -0.0396,0.04307 -0.0101,0.0052 -0.028,0.0072 -0.0547,0.0072 h -0.0928 l -0.11577,-0.0151 0.0618,0.05467 c 0.0158,0.0151 0.0324,0.02946 0.0504,0.04252 0.0186,0.01288 0.0322,0.01933 0.0431,0.01933 0.026,0.01013 0.0683,0.0381 0.12718,0.08485 0.0598,0.04675 0.12019,0.100679 0.18277,0.163258 0.32486,0.314921 0.51904,0.504687 0.58088,0.569475 0.0618,0.0646 0.11062,0.130129 0.14743,0.197679 0.0151,0.03589 0.0295,0.06976 0.0423,0.100679 0.0129,0.0309 0.0195,0.04877 0.0195,0.05393 0,0.01069 0.001,0.01933 0.004,0.02724 0.002,0.0079 0.006,0.01161 0.0114,0.01161 0.021,0.01584 0.0267,0.0416 0.0188,0.07749 -0.007,0.03681 -0.0245,0.06773 -0.0497,0.09276 -0.0257,0.02596 -0.0466,0.04178 -0.0617,0.04749 -0.0158,0.0044 -0.0418,0.0044 -0.0784,0 -0.0512,-0.0057 -0.12147,-0.0302 -0.20853,-0.07399 -0.0883,-0.04454 -0.1732,-0.09994 -0.25602,-0.166754 -0.0416,-0.03094 -0.0826,-0.06111 -0.12424,-0.08927 -0.041,-0.02872 -0.0698,-0.04527 -0.0848,-0.05025 -0.021,-0.01012 -0.0374,-0.02081 -0.0504,-0.0309 -0.0129,-0.01087 -0.0201,-0.01803 -0.0201,-0.023 0,-0.0057 -0.007,-0.01436 -0.023,-0.02815 -0.0151,-0.01214 -0.0339,-0.02649 -0.0539,-0.04233 -0.026,-0.0151 -0.0583,-0.03589 -0.0972,-0.06184 -0.0387,-0.02596 -0.0733,-0.05172 -0.10418,-0.07694 -0.0675,-0.05172 -0.13233,-0.097 -0.19418,-0.135833 -0.0618,-0.03884 -0.10049,-0.05835 -0.11632,-0.05835 -0.0202,0 -0.026,0.01379 -0.0151,0.04252 0.01,0.02798 0.0309,0.06111 0.0617,0.097 0.021,0.02099 0.0388,0.04325 0.0547,0.06626 0.0151,0.023 0.023,0.03939 0.023,0.05025 0.005,0.01012 0.0166,0.0309 0.0346,0.06184 0.018,0.0309 0.0374,0.06184 0.0582,0.09277 0.021,0.0309 0.0467,0.07252 0.0777,0.124421 0,0.005 0.008,0.01637 0.023,0.03443 0.0158,0.01803 0.0339,0.04031 0.0547,0.06626 0.0201,0.02575 0.0418,0.0532 0.0618,0.08117 0.0208,0.02872 0.0339,0.05025 0.0388,0.06608 0.0101,0.0151 0.0193,0.02946 0.0272,0.04252 0.007,0.01288 0.0138,0.01933 0.0195,0.01933 0.005,0 0.0121,0.0065 0.023,0.01951 0.0107,0.01288 0.0208,0.02946 0.0309,0.05025 0.0258,0.06184 0.0646,0.134546 0.11651,0.217188 0.0517,0.08264 0.0955,0.149454 0.13141,0.201358 0.0519,0.0624 0.0828,0.112092 0.0935,0.150929 0.009,0.03884 0.009,0.10215 0,0.189763 l -0.009,0.147429 -0.11577,0.01584 c -0.0985,0.01012 -0.17393,-0.0057 -0.2286,-0.04675 -0.0547,-0.04178 -0.17964,-0.175405 -0.37603,-0.403271 -0.0309,-0.03608 -0.071,-0.08135 -0.12,-0.135283 -0.049,-0.05466 -0.092,-0.102151 -0.12792,-0.143013 -0.041,-0.04178 -0.0791,-0.08135 -0.11227,-0.120742 -0.0337,-0.03883 -0.0554,-0.06332 -0.0661,-0.07344 -0.005,-0.01013 -0.0144,-0.01933 -0.0267,-0.02723 -0.0129,-0.0072 -0.0243,-0.01161 -0.0351,-0.01161 -0.0158,0 -0.026,-0.0028 -0.0309,-0.0079 -0.005,-0.005 -0.008,-0.0151 -0.008,-0.0302 0,-0.01069 -0.003,-0.02226 -0.008,-0.03589 -0.005,-0.01231 -0.0101,-0.02448 -0.0151,-0.03461 -0.0101,-0.005 -0.0193,-0.0151 -0.0272,-0.03094 -0.008,-0.01584 -0.0166,-0.02872 -0.0274,-0.03883 -0.0158,-0.03589 -0.0445,-0.0797 -0.0891,-0.13142 -0.044,-0.0519 -0.0734,-0.07767 -0.0893,-0.07767 -0.0151,0 -0.023,0.01436 -0.023,0.04233 0,0.02872 0.008,0.05319 0.023,0.07418 0.0109,0.0099 0.0188,0.02152 0.0237,0.03443 0.005,0.01288 0.007,0.02226 0.007,0.02741 0,0.02575 0.0316,0.09847 0.0935,0.217004 0.0618,0.118717 0.10068,0.178351 0.1165,0.178351 0.0101,0.005 0.018,0.01288 0.023,0.023 0.005,0.01012 0.008,0.02596 0.008,0.04675 0,0.0151 0.006,0.0381 0.0188,0.06976 0.0136,0.03094 0.0302,0.06681 0.051,0.108596 0.0208,0.0309 0.0388,0.06037 0.0539,0.08835 0.0158,0.02872 0.0237,0.04823 0.0237,0.05816 0,0.0059 0.005,0.02025 0.0151,0.04326 0.01,0.023 0.0208,0.04749 0.0309,0.07399 0.0151,0.0302 0.0302,0.06037 0.0423,0.08853 0.013,0.02872 0.0223,0.0473 0.0274,0.05816 0,0.01087 0.005,0.02448 0.0158,0.04307 0.01,0.01803 0.0178,0.03164 0.023,0.04252 0.01,0.0151 0.0193,0.03737 0.0272,0.06534 0.008,0.02889 0.0144,0.06332 0.0195,0.105096 0.005,0.07178 0,0.129395 -0.0158,0.170254 -0.0158,0.04105 -0.044,0.07491 -0.0849,0.100679 -0.0468,0.0309 -0.0856,0.04178 -0.1165,0.0309 -0.0309,-0.0099 -0.0777,-0.04877 -0.13952,-0.115771 -0.0309,-0.0309 -0.0569,-0.06111 -0.0777,-0.08982 -0.0201,-0.02797 -0.0309,-0.04454 -0.0309,-0.04951 0,-0.0059 -0.003,-0.01231 -0.008,-0.02025 -0.005,-0.0072 -0.0129,-0.01362 -0.023,-0.01859 -0.005,-0.01087 -0.0151,-0.02889 -0.0309,-0.05467 -0.0158,-0.02596 -0.0309,-0.05393 -0.0467,-0.08485 -0.0158,-0.03164 -0.0388,-0.07197 -0.0698,-0.120742 -0.0309,-0.04896 -0.0618,-0.09424 -0.0926,-0.135283 -0.0316,-0.03663 -0.0677,-0.08761 -0.10859,-0.155345 -0.0418,-0.06681 -0.0777,-0.128655 -0.10859,-0.185346 -0.0675,-0.134546 -0.12939,-0.244429 -0.18627,-0.32928 -0.0567,-0.08559 -0.0928,-0.128841 -0.10859,-0.128841 -0.0151,0 -0.023,0.03387 -0.023,0.100679 0,0.06755 0.008,0.116512 0.023,0.147433 0.005,0.01087 0.0109,0.02448 0.0158,0.04307 0.005,0.01803 0.008,0.03461 0.008,0.05043 0,0.0151 0.002,0.0309 0.007,0.04602 0.005,0.01584 0.0109,0.02374 0.0158,0.02374 0.005,0.005 0.009,0.01143 0.0116,0.01933 0.002,0.0079 0.004,0.01436 0.004,0.01951 0,0.0099 0.004,0.02448 0.0123,0.04233 0.008,0.01803 0.0136,0.03736 0.0193,0.05835 0.0252,0.04086 0.0525,0.107121 0.0812,0.196941 0.0282,0.09056 0.0425,0.151663 0.0425,0.182584 0,0.03094 -0.0116,0.0705 -0.0351,0.120008 -0.023,0.04896 -0.0447,0.07915 -0.0655,0.08927 -0.0101,0.005 -0.0223,0.0086 -0.0344,0.01214 -0.0131,0.0021 -0.0245,0.0037 -0.0353,0.0037 -0.0258,0 -0.0675,-0.02374 -0.12442,-0.06976 -0.0567,-0.04675 -0.0928,-0.08559 -0.10841,-0.116508 -0.0101,-0.02596 -0.0217,-0.05025 -0.0346,-0.07399 -0.0129,-0.023 -0.0423,-0.07841 -0.0891,-0.166204 -0.0727,-0.134363 -0.14595,-0.281792 -0.22086,-0.442108 -0.0755,-0.160313 -0.11283,-0.250134 -0.11283,-0.271117 0,-0.0099 -7.1e-4,-0.01933 -0.004,-0.02723 -0.003,-0.0072 -0.007,-0.01362 -0.0116,-0.01951 -0.005,0 -0.009,-0.0035 -0.0114,-0.01143 -0.003,-0.0072 -0.004,-0.01655 -0.004,-0.02741 0,-0.02007 -0.0201,-0.06957 -0.0618,-0.146509 -0.0409,-0.07767 -0.0697,-0.119454 -0.0856,-0.124424 -0.005,-0.0052 -0.0114,-0.01288 -0.0186,-0.023 -0.008,-0.01087 -0.0144,-0.023 -0.0195,-0.03884 -0.006,-0.0309 -0.028,-0.07473 -0.0661,-0.1316 -0.0388,-0.05687 -0.12792,-0.170437 -0.26743,-0.341429 -0.0517,-0.07197 -0.0985,-0.136754 -0.13952,-0.194179 -0.041,-0.05614 -0.0618,-0.08706 -0.0618,-0.09277 0,-0.03589 -0.0646,-0.145958 -0.19344,-0.329279 -0.12939,-0.183321 -0.20983,-0.280504 -0.24075,-0.290445 -0.0101,0 -0.0281,-0.0028 -0.0539,-0.0079 -0.026,-0.0052 -0.0524,-0.0079 -0.0777,-0.0079 -0.0316,-0.0044 -0.0596,-0.01235 -0.0856,-0.023 -0.0252,-0.01013 -0.046,-0.01803 -0.0618,-0.023 -0.0201,-0.01584 -0.0337,-0.03238 -0.0388,-0.05043 -0.005,-0.01785 -0.008,-0.05319 -0.008,-0.104913 0,-0.07197 0.008,-0.130129 0.023,-0.174671 0.0158,-0.04325 0.0445,-0.09645 0.0856,-0.158104 0.0359,-0.05687 0.10142,-0.138779 0.19418,-0.244613 0.0928,-0.10565 0.17817,-0.199887 0.25584,-0.282529 0.041,-0.04675 0.10712,-0.09995 0.19786,-0.158842 0.0898,-0.05964 0.18682,-0.112828 0.2897,-0.158841"
       style="fill:#21201d;fill-opacity:1;fill-rule:nonzero;stroke:none;stroke-width:0.184057"
       id="path582" />
  </g>
</svg>
