<?xml version="1.0" encoding="UTF-8" standalone="no"?>
<!-- Created with Inkscape (http://www.inkscape.org/) -->

<svg
   width="7.1124792mm"
   height="5.6639152mm"
   viewBox="0 0 7.1124792 5.6639152"
   version="1.1"
   id="svg2120"
   inkscape:version="1.1.2 (0a00cf5339, 2022-02-04)"
   sodipodi:docname="secret_war.svg"
   xmlns:inkscape="http://www.inkscape.org/namespaces/inkscape"
   xmlns:sodipodi="http://sodipodi.sourceforge.net/DTD/sodipodi-0.dtd"
   xmlns="http://www.w3.org/2000/svg"
   xmlns:svg="http://www.w3.org/2000/svg">
  <sodipodi:namedview
     id="namedview2122"
     pagecolor="#ffffff"
     bordercolor="#666666"
     borderopacity="1.0"
     inkscape:pageshadow="2"
     inkscape:pageopacity="0.0"
     inkscape:pagecheckerboard="0"
     inkscape:document-units="mm"
     showgrid="false"
     inkscape:zoom="0.64052329"
     inkscape:cx="14.051011"
     inkscape:cy="10.147953"
     inkscape:window-width="2560"
     inkscape:window-height="1376"
     inkscape:window-x="0"
     inkscape:window-y="0"
     inkscape:window-maximized="1"
     inkscape:current-layer="layer1" />
  <defs
     id="defs2117" />
  <g
     inkscape:label="Layer 1"
     inkscape:groupmode="layer"
     id="layer1"
     transform="translate(-101.36429,-145.66773)">
    <path
       d="m 105.15158,145.70031 c -0.0151,-0.0186 -0.0136,-0.0302 0.004,-0.0322 0.0164,-0.002 0.0495,0.004 0.0977,0.0178 0.0245,0.005 0.0525,0.007 0.0834,0.007 0.0316,0 0.074,-0.002 0.12718,-0.007 0.092,-0.0144 0.15535,-0.0121 0.18921,0.007 0.0337,0.0195 0.10418,0.0898 0.21056,0.21074 0.10142,0.11136 0.17412,0.17688 0.21792,0.19621 0.0438,0.0195 0.11357,0.0215 0.21057,0.007 0.0727,-0.0144 0.17908,-0.0265 0.32007,-0.0359 0.14007,-0.0101 0.35578,-0.0195 0.64622,-0.0295 0.10215,-0.004 0.19344,-0.0101 0.27259,-0.018 0.0797,-0.007 0.12792,-0.0129 0.14154,-0.018 0.0101,-0.005 0.023,-0.0144 0.0403,-0.0295 0.0173,-0.0136 0.0302,-0.0309 0.0403,-0.051 0.0144,-0.0136 0.0337,-0.0316 0.0574,-0.0539 0.0245,-0.0215 0.0512,-0.0403 0.0806,-0.0547 0.0438,-0.0245 0.0733,-0.0388 0.0906,-0.0431 0.0173,-0.005 0.0351,-0.003 0.0539,0.007 0.0396,0.0186 0.12,0.0646 0.24443,0.1373 0.12295,0.0733 0.187,0.1143 0.19197,0.12369 0.0101,0.01 0.004,0.023 -0.018,0.0403 -0.0223,0.0164 -0.0453,0.0251 -0.069,0.0251 -0.01,0 -0.0265,-0.004 -0.051,-0.0144 -0.0245,-0.009 -0.0482,-0.0193 -0.072,-0.0295 -0.025,-0.0136 -0.0552,-0.026 -0.0913,-0.0359 -0.0366,-0.0101 -0.0668,-0.0166 -0.0913,-0.0217 -0.0388,0 -0.0668,0.003 -0.0834,0.007 -0.0166,0.005 -0.0445,0.0223 -0.0834,0.051 -0.0287,0.0201 -0.0547,0.0416 -0.0762,0.0661 -0.0215,0.0237 -0.0351,0.046 -0.0396,0.0648 l -0.0295,0.0582 -0.21074,0.007 c -0.0869,0.005 -0.14798,0.007 -0.18185,0.004 -0.0337,-0.002 -0.0633,-0.009 -0.0869,-0.0188 -0.0195,-0.009 -0.0375,-0.0144 -0.0547,-0.0144 -0.0166,0 -0.0497,0.0121 -0.0979,0.0366 l -0.10914,0.0433 -0.10859,-0.0361 c -0.0683,-0.0243 -0.12866,-0.0329 -0.18185,-0.0258 -0.0534,0.008 -0.14541,0.0401 -0.27608,0.0985 -0.0534,0.0193 -0.10786,0.0381 -0.164,0.0582 -0.0554,0.0195 -0.0957,0.0309 -0.12001,0.0361 -0.0331,0 -0.0561,-0.002 -0.069,-0.007 -0.0116,-0.005 -0.0274,-0.0217 -0.0467,-0.0512 -0.009,-0.0193 -0.0245,-0.0388 -0.044,-0.0574 -0.0193,-0.0203 -0.0388,-0.0346 -0.0582,-0.044 -0.0143,-0.01 -0.0359,-0.0302 -0.0648,-0.0617 -0.0295,-0.0316 -0.056,-0.0648 -0.0804,-0.0987 -0.0626,-0.092 -0.11577,-0.14724 -0.15957,-0.16676 -0.044,-0.0193 -0.12295,-0.0223 -0.2402,-0.007 -0.0532,0.005 -0.0856,0.0101 -0.0977,0.0151 -0.0123,0.004 -0.018,0.0188 -0.018,0.0431 0,0.0145 -0.004,0.0346 -0.0114,0.0618 -0.007,0.0267 -0.018,0.0497 -0.0324,0.069 l -0.0438,0.0799 0.0733,0.13804 c 0.0381,0.0819 0.0626,0.1524 0.072,0.21056 0.01,0.0584 0.005,0.10933 -0.0138,0.15258 -0.0243,0.0582 -0.0309,0.12222 -0.0186,0.19271 0.0121,0.0703 0.0374,0.13142 0.0762,0.18535 0.0144,0.0195 0.0245,0.0403 0.0295,0.0611 0.005,0.0223 0.007,0.0598 0.007,0.11301 0,0.0582 0.002,0.0955 0.007,0.11283 0.004,0.0165 0.0144,0.0324 0.0287,0.0475 0.0195,0.009 0.0296,0.0179 0.0296,0.025 0,0.007 -0.005,0.018 -0.0151,0.0324 -0.009,0.005 -0.0237,0.026 -0.0433,0.0618 -0.0193,0.0366 -0.0388,0.074 -0.0582,0.11283 -0.0339,0.0633 -0.0547,0.10932 -0.0618,0.13804 -0.007,0.0289 -0.0109,0.0727 -0.0109,0.13086 0,0.13529 0.0302,0.2229 0.0906,0.261 0.0605,0.0396 0.21719,0.0705 0.46879,0.095 0.0828,0.009 0.13731,0.0144 0.16326,0.0144 0.0267,0 0.0497,-0.007 0.069,-0.0216 0.0101,-0.009 0.0245,-0.0173 0.0438,-0.0215 l -0.0215,-0.0799 c 0.004,0.0136 0.009,0.0309 0.0143,0.0504 0.005,0.0193 0.0144,0.056 0.0295,0.10915 0.009,0.0289 0.0195,0.0504 0.0289,0.0655 0.009,0.0144 0.0237,0.0265 0.0431,0.0359 0.0396,0.0195 0.0705,0.026 0.095,0.018 0.0243,-0.007 0.046,-0.0302 0.0654,-0.069 0.009,-0.0237 0.0208,-0.0381 0.0324,-0.0433 0.0121,-0.005 0.0475,-0.007 0.10565,-0.007 h 0.14522 c 0.0195,0 0.0366,-0.0287 0.0512,-0.0876 0.0144,-0.0584 0.0236,-0.14025 0.0287,-0.24664 0.005,-0.0777 0.01,-0.13804 0.0143,-0.18111 0.005,-0.044 0.0151,-0.0784 0.0295,-0.10215 0.0144,-0.0438 0.0287,-0.0935 0.0431,-0.1489 0.0151,-0.056 0.0245,-0.1178 0.0296,-0.18553 0.004,-0.0337 0.004,-0.0617 0,-0.0834 -0.005,-0.0223 -0.0123,-0.0423 -0.0217,-0.0618 l -0.0295,-0.0582 c -0.009,-0.0195 -0.0193,-0.0339 -0.0287,-0.0438 -0.005,-0.009 -0.009,-0.0195 -0.0109,-0.0289 -0.003,-0.01 -0.001,-0.0144 0.004,-0.0144 0.009,-0.01 0.0445,0.007 0.10492,0.0504 0.0604,0.0438 0.0906,0.0725 0.0906,0.0876 0,0.0237 0.0274,0.0762 0.0799,0.15608 0.0539,0.0799 0.0898,0.12222 0.10933,0.12718 0.0193,0.005 0.0287,0.009 0.0287,0.0109 0,0.002 -0.009,0.006 -0.0287,0.0109 -0.0195,0.005 -0.0324,0.0158 -0.0403,0.0329 -0.006,0.0166 -0.0151,0.0539 -0.0252,0.11228 -0.009,0.0876 -0.0193,0.14301 -0.0287,0.16749 -0.0101,0.0237 -0.0388,0.0532 -0.0871,0.0869 -0.0388,0.0339 -0.0611,0.0591 -0.0661,0.0764 -0.004,0.0164 0.005,0.0394 0.0294,0.0688 0.0195,0.0289 0.0287,0.0569 0.0287,0.0843 0,0.0265 -0.0144,0.0466 -0.0431,0.0611 -0.0101,0.01 -0.0287,0.0295 -0.0582,0.0582 -0.0289,0.0295 -0.0604,0.0633 -0.0942,0.10141 -0.0294,0.0344 -0.0655,0.0733 -0.10933,0.11651 -0.0438,0.0438 -0.0797,0.0804 -0.10933,0.10915 -0.0532,0.0482 -0.0891,0.0762 -0.1084,0.0834 -0.0195,0.007 -0.046,0.0109 -0.0799,0.0109 -0.0193,-0.005 -0.0453,-0.0114 -0.0769,-0.0215 -0.0309,-0.0101 -0.0589,-0.0223 -0.0834,-0.0366 -0.0339,-0.0145 -0.064,-0.0252 -0.0905,-0.0324 -0.0267,-0.007 -0.0591,-0.0116 -0.0985,-0.0116 -0.0289,0 -0.0605,-0.002 -0.0942,-0.006 -0.0339,-0.005 -0.0584,-0.0101 -0.0727,-0.0144 -0.0388,-0.0201 -0.0812,-0.0295 -0.12719,-0.0295 -0.046,0 -0.0928,0.009 -0.14172,0.0295 l -0.0653,0.0208 -0.0799,-0.0646 c -0.0237,-0.0245 -0.046,-0.041 -0.0653,-0.0512 -0.0195,-0.01 -0.0366,-0.0144 -0.0504,-0.0144 -0.0201,0.004 -0.0295,0.0173 -0.0295,0.0361 0,0.0193 0.002,0.10197 0.007,0.24719 0,0.0433 -7.1e-4,0.0799 -0.004,0.10934 -0.002,0.0287 -0.009,0.0532 -0.018,0.072 -0.0193,0.0344 -0.0331,0.0733 -0.0403,0.11706 -0.007,0.0433 -0.008,0.0821 -0.004,0.11578 0.005,0.0245 0.0173,0.0425 0.0366,0.0547 0.0188,0.0123 0.0727,0.0324 0.15957,0.0618 0.11154,0.0388 0.18774,0.0604 0.2286,0.0655 0.0418,0.004 0.10289,0.002 0.18553,-0.008 0.0675,-0.005 0.11154,-0.006 0.13086,-0.003 0.0195,0.002 0.0482,0.0129 0.0871,0.0324 0.0245,0.0144 0.0438,0.0287 0.0582,0.0438 0.0144,0.0144 0.0245,0.0267 0.0295,0.0359 0.004,0.0151 0.018,0.0381 0.0396,0.069 0.0215,0.0316 0.0497,0.0641 0.0834,0.0979 0.0296,0.0344 0.0584,0.0703 0.0871,0.10914 0.0295,0.0388 0.051,0.0677 0.0661,0.0878 0.009,0.0193 0.0203,0.0359 0.0324,0.0502 0.0123,0.0151 0.0208,0.0225 0.0252,0.0225 0.005,0 0.023,0.0272 0.0547,0.0834 0.0316,0.0552 0.0475,0.0906 0.0475,0.10492 0,0.0101 0.004,0.0208 0.0107,0.0331 0.007,0.0121 0.0158,0.025 0.0252,0.0394 0.0144,0.0195 0.023,0.0361 0.026,0.0475 0.002,0.0123 -0.001,0.0331 -0.0116,0.0618 -0.0144,0.044 -0.0129,0.0827 0.004,0.11651 0.0166,0.0339 0.0468,0.0582 0.0907,0.0727 0.0193,0.004 0.0374,0.0107 0.0547,0.0179 0.0164,0.007 0.0251,0.0136 0.0251,0.0188 0.005,0.004 0.009,0.0179 0.0144,0.0396 0.005,0.0216 0.0101,0.0473 0.0151,0.0762 0.004,0.0287 0.0123,0.0631 0.0217,0.10124 0.009,0.0388 0.0193,0.0734 0.0287,0.10215 0.0101,0.0245 0.0186,0.0512 0.0258,0.0799 0.007,0.0295 0.0109,0.051 0.0109,0.0653 0.005,0.0195 0.0129,0.0366 0.0252,0.0512 0.0121,0.0144 0.0403,0.0366 0.0841,0.0653 0.0287,0.0195 0.0596,0.0425 0.0942,0.069 0.0337,0.0267 0.0604,0.0468 0.0797,0.0611 0.0144,0.0201 0.0316,0.0353 0.051,0.0475 0.0188,0.0121 0.0339,0.0186 0.0433,0.0186 0.0193,0 0.0381,0.004 0.0547,0.0145 0.0171,0.01 0.0208,0.0193 0.0107,0.0287 -0.004,0.005 -0.0114,0.0101 -0.0215,0.0151 -0.0101,0.004 -0.0223,0.007 -0.0359,0.007 -0.049,0 -0.13233,-0.023 -0.25086,-0.069 -0.11872,-0.046 -0.18774,-0.0791 -0.20707,-0.0985 -0.005,-0.009 -0.0123,-0.018 -0.0225,-0.0252 -0.009,-0.007 -0.0164,-0.0109 -0.0215,-0.0109 -0.0193,0 -0.0495,-0.028 -0.0906,-0.0841 -0.041,-0.0552 -0.0791,-0.11706 -0.11283,-0.18461 -0.0144,-0.0339 -0.0282,-0.0655 -0.0403,-0.0942 -0.0114,-0.0295 -0.018,-0.046 -0.018,-0.0512 0,-0.0243 -0.0158,-0.0631 -0.0467,-0.11633 -0.0315,-0.0532 -0.0545,-0.0799 -0.069,-0.0799 -0.0243,0 -0.046,-0.0144 -0.0653,-0.0438 -0.0193,-0.0287 -0.0388,-0.0821 -0.0582,-0.15958 -0.0195,-0.049 -0.0368,-0.0885 -0.0512,-0.12019 -0.0144,-0.0317 -0.0316,-0.0547 -0.051,-0.069 -0.0144,-0.0245 -0.028,-0.0475 -0.0396,-0.069 -0.0121,-0.0216 -0.0208,-0.0495 -0.026,-0.0834 -0.0236,-0.14523 -0.0941,-0.25732 -0.21057,-0.33425 -0.11577,-0.0777 -0.27829,-0.11651 -0.48682,-0.11651 -0.092,0 -0.15093,0.007 -0.17817,0.0215 -0.026,0.0151 -0.0396,0.049 -0.0396,0.10215 0,0.0144 0.005,0.0409 0.0144,0.0797 0.0101,0.0388 0.0193,0.0777 0.0295,0.11651 0.0237,0.0576 0.0374,0.10289 0.0396,0.13454 0.002,0.0317 0.001,0.0812 -0.004,0.14872 l -0.007,0.1524 0.11651,0.25455 c 0.0339,0.0676 0.0618,0.13087 0.0834,0.18921 0.0215,0.0582 0.0324,0.092 0.0324,0.10124 0,0.005 -0.004,0.018 -0.0144,0.0403 -0.009,0.0215 -0.0215,0.0425 -0.0359,0.0611 -0.0195,0.0252 -0.0316,0.0453 -0.0368,0.0626 -0.005,0.0166 -0.005,0.0374 0,0.0611 0.005,0.0438 -10e-4,0.0648 -0.0179,0.0618 -0.0173,-0.002 -0.0403,-0.0252 -0.069,-0.0683 -0.0144,-0.0295 -0.0252,-0.0596 -0.0331,-0.0913 -0.007,-0.0316 -0.0129,-0.0784 -0.018,-0.14172 l -0.007,-0.16031 -0.0941,-0.10142 c -0.0777,-0.0826 -0.12589,-0.14301 -0.14595,-0.18185 -0.0188,-0.0388 -0.0309,-0.0963 -0.0361,-0.17393 l -0.0151,-0.13805 0.15314,-0.15957 -0.0216,-0.0655 c -0.0101,-0.0151 -0.0208,-0.0316 -0.0331,-0.051 -0.0121,-0.0195 -0.0201,-0.0316 -0.025,-0.0368 -0.0195,-0.0143 -0.0403,-0.0661 -0.0619,-0.15589 -0.0215,-0.0893 -0.0281,-0.1467 -0.018,-0.17044 0.004,-0.005 0.0116,-0.0121 0.0216,-0.0223 0.0101,-0.009 0.0195,-0.0165 0.0289,-0.0215 0.0295,-0.0144 0.0503,-0.046 0.0624,-0.0942 0.0116,-0.0489 0.0151,-0.11853 0.0109,-0.2113 -0.0151,-0.17411 -0.026,-0.29412 -0.0331,-0.35946 -0.007,-0.0655 -0.0179,-0.10731 -0.0329,-0.12737 -0.009,-0.0186 -0.0166,-0.0482 -0.0217,-0.0871 -0.004,-0.0388 -0.004,-0.10914 0,-0.21056 0,-0.1259 0.003,-0.20854 0.008,-0.24664 0.004,-0.0396 0.0237,-0.097 0.0576,-0.17467 0.0295,-0.0826 0.0582,-0.15608 0.0871,-0.22142 0.0294,-0.0655 0.0611,-0.12295 0.0948,-0.17117 0.0195,-0.0245 0.0324,-0.0618 0.0396,-0.11283 0.008,-0.0504 0.006,-0.10289 -0.003,-0.15608 l -0.008,-0.0799 h -0.0941 c -0.0583,0 -0.10215,-0.006 -0.13087,-0.0179 -0.0295,-0.0123 -0.0532,-0.0324 -0.0727,-0.0618 -0.0143,-0.0339 -0.0166,-0.0668 -0.008,-0.0985 0.0101,-0.0316 0.0374,-0.0784 0.0806,-0.14172 0.0388,-0.0438 0.0604,-0.092 0.0653,-0.14522 0.005,-0.0532 0,-0.13087 -0.0144,-0.23228 -0.0144,-0.0876 -0.023,-0.194 -0.0252,-0.3199 -0.003,-0.12571 0.003,-0.22068 0.018,-0.28326 0.005,-0.0295 0.007,-0.0525 0.007,-0.069 0,-0.0173 -0.002,-0.0324 -0.007,-0.0475 m -0.66867,0.38542 c 0.0482,-0.0101 0.0863,-0.0121 0.11227,-0.007 0.0272,0.005 0.0453,0.0173 0.0552,0.0359 0.004,0.0151 0.0109,0.0274 0.018,0.0361 0.007,0.01 0.0158,0.0201 0.0252,0.0294 0.0144,0.0193 0.0215,0.15167 0.0215,0.39609 0,0.24443 -0.005,1.03312 -0.0144,2.36478 -0.004,0.91587 -0.0123,1.45369 -0.0215,1.61327 -0.0101,0.16031 -0.0388,0.2424 -0.0871,0.24737 -0.0339,0.005 -0.0547,-0.006 -0.0618,-0.0331 -0.007,-0.0258 -0.0158,-0.10988 -0.026,-0.25013 -0.004,-0.0633 -0.0107,-0.1259 -0.0178,-0.18903 -0.007,-0.0633 -0.0136,-0.10933 -0.018,-0.13805 -0.005,-0.0289 -0.009,-0.0604 -0.0114,-0.0942 -0.002,-0.0346 -0.003,-0.0582 -0.003,-0.0727 0.004,-0.0193 0.007,-0.0582 0.007,-0.11632 0,-0.0583 -0.003,-0.11872 -0.007,-0.18204 v -0.21773 h -0.0661 c -0.0769,0 -0.20209,0.0287 -0.374,0.0869 -0.17172,0.0583 -0.31621,0.12093 -0.43198,0.18921 -0.12147,0.0725 -0.22289,0.15884 -0.30553,0.25805 -0.0821,0.0992 -0.18203,0.25529 -0.2978,0.46806 -0.0675,0.12663 -0.15019,0.23799 -0.24719,0.33425 -0.0964,0.0972 -0.20578,0.17485 -0.32725,0.23302 -0.0532,0.0287 -0.15811,0.0676 -0.31566,0.1165 -0.15737,0.0482 -0.24369,0.0676 -0.25805,0.0574 -0.0143,-0.009 -0.018,-0.0215 -0.0109,-0.0359 0.007,-0.0151 0.0203,-0.0265 0.0403,-0.0359 0.0143,-0.005 0.0433,-0.0188 0.0871,-0.0403 0.0431,-0.0223 0.0891,-0.0453 0.13804,-0.069 0.0819,-0.0388 0.14154,-0.072 0.17835,-0.0985 0.0359,-0.0267 0.0928,-0.0784 0.17025,-0.15608 0.0482,-0.048 0.092,-0.0955 0.13086,-0.14154 0.0388,-0.046 0.0655,-0.0814 0.0799,-0.10584 0.0193,-0.0381 0.0475,-0.0869 0.0834,-0.14522 0.0366,-0.0582 0.11725,-0.18111 0.24369,-0.37014 0.0532,-0.0777 0.0979,-0.13878 0.13455,-0.18479 0.0359,-0.0468 0.0639,-0.0742 0.0834,-0.0841 0.009,-0.0101 0.0193,-0.018 0.0287,-0.0252 0.0101,-0.008 0.0144,-0.0136 0.0144,-0.0188 0,-0.004 0.0353,-0.0287 0.10564,-0.0725 0.0705,-0.0438 0.12019,-0.0727 0.14891,-0.0871 0.0151,-0.005 0.0331,-0.0114 0.0547,-0.0215 0.0215,-0.0101 0.0423,-0.0193 0.0618,-0.0295 0.0144,-0.009 0.0403,-0.0215 0.0762,-0.0359 0.0359,-0.0144 0.069,-0.0245 0.0985,-0.0296 l 0.0871,-0.0287 c 0.0287,-0.009 0.046,-0.0173 0.051,-0.0215 0.009,-0.005 0.0418,-0.0151 0.0977,-0.0294 0.0561,-0.0144 0.11724,-0.0287 0.18479,-0.0438 l 0.24737,-0.0648 0.008,-0.0878 c 0.009,-0.0431 0.009,-0.15516 0,-0.33425 -0.0101,-0.17909 -0.0201,-0.28106 -0.0294,-0.3048 -0.009,-0.0295 -0.0215,-0.0453 -0.0366,-0.0475 -0.0138,-0.002 -0.0388,0.006 -0.0727,0.0252 -0.0725,0.0294 -0.15461,0.0539 -0.24664,0.0733 -0.092,0.0188 -0.17688,0.0317 -0.25455,0.0359 -0.0725,0 -0.12939,-0.002 -0.17025,-0.007 -0.0418,-0.005 -0.10068,-0.0193 -0.17835,-0.0431 -0.0532,-0.0151 -0.10289,-0.0309 -0.1489,-0.0475 -0.046,-0.0171 -0.0762,-0.0302 -0.0906,-0.0403 -0.0396,-0.0243 -0.10712,-0.0847 -0.20338,-0.18111 -0.0972,-0.097 -0.17265,-0.17964 -0.2251,-0.24737 -0.0589,-0.0676 -0.0963,-0.12498 -0.11356,-0.17099 -0.0166,-0.046 -0.0274,-0.11946 -0.0324,-0.22143 -0.009,-0.0972 -0.009,-0.17688 0,-0.23946 0.009,-0.0633 0.0267,-0.10932 0.051,-0.13804 0.044,-0.0532 0.0907,-0.10565 0.14172,-0.15681 0.051,-0.051 0.0784,-0.0712 0.0834,-0.0618 0,0.005 -0.004,0.0195 -0.0109,0.044 -0.007,0.0243 -0.0178,0.048 -0.0322,0.0725 -0.0151,0.0295 -0.0295,0.0633 -0.044,0.10215 -0.0144,0.0388 -0.0265,0.0725 -0.0366,0.10142 -0.0144,0.0532 -0.0215,0.0898 -0.0215,0.10915 0,0.0195 0.007,0.0532 0.0215,0.10141 0.0295,0.11154 0.074,0.21351 0.13454,0.3048 0.0611,0.0928 0.13216,0.16749 0.21425,0.22584 0.0245,0.0193 0.0631,0.0445 0.1165,0.0762 0.0532,0.0316 0.10418,0.0596 0.1524,0.0834 l 0.16749,0.0871 h 0.17394 c 0.0675,0 0.12368,-0.002 0.16749,-0.007 0.0433,-0.004 0.0942,-0.0166 0.1524,-0.0361 0.0677,-0.0193 0.1373,-0.0495 0.20706,-0.0906 0.0698,-0.0416 0.11301,-0.074 0.12736,-0.0985 0.005,-0.0144 0.0114,-0.0799 0.0215,-0.19547 0.005,-0.12166 0.0109,-0.26468 0.018,-0.42941 0.007,-0.16454 0.0136,-0.33922 0.0178,-0.52327 0.005,-0.18406 0.008,-0.34364 0.008,-0.47966 v -0.19621 l -1.40269,-0.006 c -0.66794,-0.0101 -1.10654,-0.018 -1.3149,-0.026 -0.20853,-0.007 -0.33443,-0.023 -0.37823,-0.0475 -0.0237,-0.009 -0.0287,-0.0216 -0.0144,-0.0359 0.0144,-0.0151 0.046,-0.0287 0.0942,-0.0438 0.0589,-0.0144 0.24517,-0.026 0.56009,-0.0361 0.31473,-0.01 0.76273,-0.0171 1.34361,-0.0223 0.2862,-0.005 0.53855,-0.009 0.75647,-0.0144 0.21774,-0.004 0.33645,-0.009 0.35578,-0.0144"
       style="fill:#21201d;fill-opacity:1;fill-rule:nonzero;stroke:none;stroke-width:0.184057"
       id="path578" />
  </g>
</svg>
