<?xml version="1.0" encoding="UTF-8" standalone="no"?>
<!-- Created with Inkscape (http://www.inkscape.org/) -->

<svg
   width="7.0063782mm"
   height="8.1119747mm"
   viewBox="0 0 7.0063782 8.1119747"
   version="1.1"
   id="svg1538"
   inkscape:version="1.1.2 (0a00cf5339, 2022-02-04)"
   sodipodi:docname="set.svg"
   xmlns:inkscape="http://www.inkscape.org/namespaces/inkscape"
   xmlns:sodipodi="http://sodipodi.sourceforge.net/DTD/sodipodi-0.dtd"
   xmlns="http://www.w3.org/2000/svg"
   xmlns:svg="http://www.w3.org/2000/svg">
  <sodipodi:namedview
     id="namedview1540"
     pagecolor="#ffffff"
     bordercolor="#666666"
     borderopacity="1.0"
     inkscape:pageshadow="2"
     inkscape:pageopacity="0.0"
     inkscape:pagecheckerboard="0"
     inkscape:document-units="mm"
     showgrid="false"
     inkscape:zoom="0.64052329"
     inkscape:cx="591.7037"
     inkscape:cy="278.67839"
     inkscape:window-width="2560"
     inkscape:window-height="1376"
     inkscape:window-x="0"
     inkscape:window-y="0"
     inkscape:window-maximized="1"
     inkscape:current-layer="layer1" />
  <defs
     id="defs1535" />
  <g
     inkscape:label="Layer 1"
     inkscape:groupmode="layer"
     id="layer1"
     transform="translate(51.832832,-74.841159)">
    <path
       d="m -45.863864,78.010956 c -0.02649,-0.07473 -0.0416,-0.101416 -0.0438,-0.08062 -0.0028,0.02173 0.0037,0.08927 0.02007,0.201358 0.02667,0.150192 0.05117,0.273879 0.0727,0.370325 0.02155,0.09626 0.0532,0.201358 0.09626,0.31345 0.05908,0.171909 0.09645,0.276087 0.112275,0.31345 0.01658,0.03736 0.02723,0.05614 0.03238,0.05614 0.01069,0 0.01436,-0.01305 0.01214,-0.04031 -0.0028,-0.02667 -0.023,-0.09626 -0.06037,-0.208537 -0.01087,-0.04822 -0.02946,-0.122213 -0.05614,-0.221421 -0.02723,-0.09921 -0.05098,-0.194183 -0.07252,-0.285475 -0.02173,-0.09129 -0.04473,-0.178167 -0.06829,-0.260992 -0.02448,-0.08338 -0.03883,-0.135837 -0.04472,-0.157371 m -0.892118,1.648605 c -0.0052,-0.02152 -0.01379,-0.03589 -0.02374,-0.04454 -0.01161,-0.0079 -0.01877,-0.0037 -0.02448,0.01214 -0.0057,0 -0.0151,0.02741 -0.02797,0.08062 -0.01379,0.05393 -0.0309,0.115037 -0.05264,0.184608 -0.01584,0.06479 -0.03737,0.140991 -0.06387,0.229521 -0.02741,0.08835 -0.04822,0.15737 -0.06479,0.204858 -0.02649,0.09129 -0.0416,0.145958 -0.0438,0.165283 -0.0028,0.01877 0.0042,0.02815 0.01933,0.02815 0.01087,0 0.02596,-0.01379 0.04472,-0.04031 0.01859,-0.02671 0.04454,-0.0727 0.0762,-0.136571 0.0381,-0.08062 0.06037,-0.133075 0.06828,-0.157554 0.0086,-0.02374 0.0072,-0.04878 -0.0044,-0.0762 -0.0099,-0.03164 -0.0099,-0.07178 0,-0.120742 0.01161,-0.04749 0.03238,-0.106387 0.06479,-0.176883 0.01584,-0.03663 0.02724,-0.06755 0.03239,-0.09203 0.005,-0.02448 0.005,-0.04381 0,-0.06037 m -0.257496,-1.696829 c -0.02649,-0.01584 -0.05098,-0.02946 -0.07178,-0.04031 -0.02226,-0.01069 -0.03534,-0.01584 -0.04105,-0.01584 -0.01013,0 0.0114,0.02374 0.06479,0.0727 0.05319,0.04822 0.109883,0.09626 0.168779,0.144483 0.02667,0.02152 0.04399,0.03239 0.05264,0.03239 0.0079,0 0.01933,-0.005 0.03589,-0.01658 0.01087,-0.01584 0.01436,-0.02649 0.01214,-0.03238 -0.0028,-0.005 -0.02007,-0.01785 -0.05246,-0.03958 l -0.860644,-0.514625 c -0.02649,-0.01658 -0.01711,-0.01231 0.02815,0.01214 0.04602,0.02374 0.267434,0.156816 0.663522,0.397563 m -1.350969,-1.543692 c 0.01087,-0.02155 0.01584,-0.03369 0.01584,-0.03589 0,-0.0028 -0.01288,-0.0042 -0.03957,-0.0042 -0.01637,0 -0.03094,0.0018 -0.04454,0.0042 -0.01362,0.0021 -0.023,0.0037 -0.02797,0.0037 -0.0057,0.0057 -0.03387,0.0151 -0.08485,0.02872 -0.05025,0.01288 -0.108592,0.02798 -0.172462,0.0438 -0.128838,0.03736 -0.257493,0.08338 -0.386147,0.136571 -0.127921,0.05393 -0.203567,0.09129 -0.225101,0.113013 -0.01069,0.01584 -0.01069,0.02374 0,0.02374 0.01087,0 0.04252,-0.0028 0.09718,-0.0079 0.03147,-0.0052 0.07252,-0.01086 0.1235,-0.01584 0.05117,-0.0059 0.09865,-0.0086 0.141725,-0.0086 0.05319,-0.01012 0.09847,-0.02099 0.136571,-0.03164 0.03736,-0.01086 0.08558,-0.03239 0.144484,-0.06405 0.04325,-0.02226 0.08558,-0.04454 0.128654,-0.06902 0.04325,-0.02374 0.07197,-0.03884 0.08853,-0.0438 0.02081,-0.01086 0.04178,-0.02448 0.05964,-0.04105 0.01877,-0.01584 0.03387,-0.02649 0.04454,-0.03164 m -0.844085,3.152729 c -0.005,-0.01658 -0.02946,-0.02226 -0.07252,-0.01658 -0.04307,0.0052 -0.06405,0.01658 -0.06405,0.03164 0,0.0059 0.0021,0.01231 0.0079,0.02025 0.0052,0.0079 0.01305,0.0151 0.02448,0.02007 0.01584,0.0057 0.03957,0.0021 0.07197,-0.01214 0.03221,-0.01305 0.04307,-0.02815 0.03221,-0.04325 m -0.426272,-0.547758 c -0.03736,-0.02099 -0.06258,-0.03461 -0.07694,-0.04031 -0.01288,-0.005 -0.01933,0 -0.01933,0.01658 0,0.01069 0.01859,0.03238 0.05595,0.06387 0.03736,0.03238 0.06479,0.04896 0.08062,0.04896 0.02152,0 0.02946,-0.0086 0.02448,-0.02448 -0.0059,-0.01584 -0.02741,-0.03736 -0.06479,-0.0646 m 2.210883,-2.251213 c -0.07491,-0.01584 -0.19418,-0.02649 -0.357438,-0.03221 -0.163075,-0.0052 -0.291176,-0.0021 -0.381734,0.0077 -0.150188,0.01658 -0.312709,0.04969 -0.486643,0.100679 -0.174117,0.05117 -0.327988,0.111538 -0.46235,0.181296 -0.123684,0.0646 -0.227859,0.127187 -0.313447,0.189029 -0.08559,0.06111 -0.168963,0.135099 -0.24958,0.220683 -0.219212,0.220134 -0.342162,0.449471 -0.365904,0.688196 -0.02374,0.237987 0.04675,0.477996 0.212771,0.719666 l 0.08135,0.112092 0.06387,-0.08043 c 0.04822,-0.0532 0.0878,-0.117983 0.116508,-0.192712 0.02946,-0.07546 0.06037,-0.179822 0.09276,-0.31345 0.06405,-0.27903 0.1143,-0.462354 0.148904,-0.551621 0.03443,-0.08835 0.08411,-0.169517 0.148717,-0.244429 0.05319,-0.0589 0.125159,-0.109884 0.217184,-0.153138 0.09056,-0.04307 0.184796,-0.06976 0.281055,-0.08043 0.04325,-0.0057 0.08411,-0.0094 0.125158,-0.01231 0.03957,-0.0021 0.06755,0 0.08411,0.0044 0.02081,0 0.04307,-0.0028 0.06405,-0.0086 0.02152,-0.0042 0.04307,-0.01288 0.0646,-0.02374 0.04822,-0.03164 0.132334,-0.04951 0.253076,-0.05245 0.120742,-0.0021 0.242401,0.01013 0.365905,0.03663 0.07988,0.01584 0.158288,0.03884 0.233013,0.06829 0.07546,0.02889 0.206329,0.09 0.394067,0.180562 0.225651,0.112825 0.367376,0.179638 0.426272,0.201175 0.0589,0.02173 0.136571,0.04031 0.233017,0.05687 0.02723,0.005 0.05669,0.01013 0.08908,0.0151 0.03164,0.0057 0.05319,0.0086 0.06405,0.0086 0.01658,0.005 0.02649,0.0079 0.03164,0.0079 0.0057,0 0.0057,-0.005 0,-0.01658 -0.0052,-0.005 -0.01012,-0.02596 -0.0151,-0.06405 -0.0059,-0.03736 -0.01161,-0.07749 -0.01658,-0.120742 0,-0.05319 -0.0044,-0.0935 -0.01235,-0.120004 -0.0079,-0.0267 -0.01436,-0.04325 -0.02007,-0.04823 l 0.04896,0.02374 c -0.02226,-0.01087 -0.04602,-0.02226 -0.07344,-0.03589 -0.02649,-0.01362 -0.06387,-0.03094 -0.112089,-0.05191 -0.08062,-0.0381 -0.130866,-0.07326 -0.1524,-0.104916 -0.02173,-0.03239 -0.03239,-0.07767 -0.03239,-0.136571 0.005,-0.06479 -0.0028,-0.110066 -0.02448,-0.13657 -0.02155,-0.02741 -0.05614,-0.04031 -0.104179,-0.04031 -0.02152,0 -0.06184,-0.0086 -0.120922,-0.02448 -0.0589,-0.01584 -0.123504,-0.03736 -0.192525,-0.06387 -0.06479,-0.02667 -0.130125,-0.05117 -0.197125,-0.0727 -0.06755,-0.02152 -0.116505,-0.03443 -0.149451,-0.04031 m -0.707513,-1.849967 c 0.04307,-0.02078 0.08043,-0.04086 0.112825,-0.05963 0.03238,-0.01859 0.05117,-0.02505 0.05687,-0.02081 0.01013,0 -0.0057,0.02081 -0.04896,0.06111 -0.04233,0.04031 -0.186817,0.170438 -0.433455,0.38965 -0.09718,0.08633 -0.193442,0.173384 -0.290438,0.260996 -0.09571,0.08927 -0.166205,0.154608 -0.208538,0.196942 -0.04252,0.03828 -0.09773,0.08779 -0.165467,0.1489 -0.06608,0.06185 -0.129388,0.120008 -0.188288,0.1732 -0.05393,0.04823 -0.117979,0.113012 -0.193442,0.192708 0,0.0059 0.01655,0 0.04822,-0.01584 0.03238,-0.01637 0.07252,-0.04012 0.120742,-0.07252 0.107858,-0.0589 0.230805,-0.122954 0.370321,-0.192709 0.139513,-0.06976 0.265226,-0.122954 0.377501,-0.161054 0.08043,-0.03239 0.143746,-0.05098 0.189025,-0.05614 0.04528,-0.0057 0.135834,-0.01069 0.269642,-0.01658 0.12295,0 0.209272,0.0021 0.257309,0.0044 0.04823,0.0028 0.0935,0.01013 0.136571,0.02007 0.07491,0.02667 0.151109,0.06184 0.229517,0.105096 0.07749,0.04233 0.145955,0.0854 0.204855,0.127921 0.03238,0.02723 0.0935,0.06755 0.184792,0.120742 0.09129,0.05319 0.201175,0.115771 0.329276,0.184795 0.278846,0.140251 0.488117,0.252342 0.627634,0.33793 0.139513,0.08632 0.254547,0.168966 0.345838,0.249399 0.235779,0.203567 0.432718,0.46088 0.591005,0.772305 0.158105,0.310508 0.269643,0.65635 0.333509,1.0368 0.02173,0.134362 0.03461,0.241483 0.04031,0.3221 0.005,0.08043 0.0079,0.219213 0.0079,0.418363 0,0.235779 -0.005,0.411924 -0.01584,0.530641 -0.01069,0.117979 -0.03736,0.261729 -0.08043,0.433454 -0.03239,0.123688 -0.06405,0.229338 -0.09645,0.317871 -0.03239,0.08835 -0.08043,0.202646 -0.145221,0.342163 -0.03736,0.07491 -0.07473,0.159025 -0.112088,0.253079 -0.03736,0.0935 -0.06479,0.167492 -0.08062,0.220687 -0.03736,0.113009 -0.08411,0.224367 -0.140804,0.333696 -0.05614,0.110804 -0.108592,0.194917 -0.156813,0.253817 -0.08043,0.09626 -0.191237,0.198412 -0.333513,0.305533 -0.142458,0.107125 -0.327988,0.227867 -0.558793,0.361675 -0.04804,0.02649 -0.09129,0.05246 -0.128654,0.0762 -0.03737,0.02448 -0.06185,0.04178 -0.07252,0.05246 -0.01584,0.01658 -0.02815,0.023 -0.03607,0.02025 -0.0079,-0.0028 -0.01214,-0.01453 -0.01214,-0.03607 0,-0.01069 0.0079,-0.02522 0.02374,-0.04454 0.01658,-0.01877 0.04307,-0.03884 0.08043,-0.05964 0.07491,-0.04822 0.191234,-0.151663 0.346579,-0.309954 0.155343,-0.158105 0.267434,-0.285472 0.337189,-0.381734 0.09129,-0.129395 0.163996,-0.248112 0.217188,-0.358729 0.05393,-0.109333 0.097,-0.222896 0.128654,-0.340875 0.01087,-0.05393 0.02946,-0.127184 0.05614,-0.221421 0.02723,-0.09424 0.04877,-0.178354 0.0646,-0.253083 0.02152,-0.07546 0.04031,-0.142275 0.05614,-0.201358 0.01658,-0.0589 0.02374,-0.09332 0.02374,-0.104913 0,-0.01013 0.0057,-0.03443 0.01658,-0.07197 0.01069,-0.03736 0.02448,-0.07767 0.04031,-0.120741 0.01637,-0.04307 0.03073,-0.09203 0.04454,-0.148721 0.01288,-0.05614 0.01933,-0.09994 0.01933,-0.132338 l 0.01658,-0.120741 -0.112826,-0.128838 c -0.02667,-0.03737 -0.05245,-0.06976 -0.0762,-0.09626 -0.02448,-0.02671 -0.04178,-0.04031 -0.05264,-0.04031 -0.005,0 -0.01288,0.005 -0.02357,0.01584 -0.01087,0.01161 -0.01877,0.02448 -0.02448,0.04031 -0.0052,0.01584 -0.03238,0.07399 -0.07988,0.173196 -0.04877,0.09921 -0.102151,0.210012 -0.161047,0.3337 l -0.217188,0.450021 -0.177429,0.136571 c -0.04749,0.03736 -0.101417,0.08338 -0.160313,0.137304 -0.05908,0.0532 -0.107121,0.09921 -0.145221,0.136021 -0.03164,0.0381 -0.06184,0.06829 -0.0878,0.09277 -0.02741,0.02431 -0.04031,0.03369 -0.04031,0.02798 0,-0.0052 0.0021,-0.01877 0.0079,-0.04031 0.005,-0.02081 0.01362,-0.04528 0.02374,-0.07197 0.01087,-0.02152 0.03094,-0.07105 0.06037,-0.148721 0.02946,-0.07767 0.05835,-0.159576 0.08485,-0.245163 0.03164,-0.08633 0.06681,-0.177616 0.104359,-0.273325 0.03736,-0.097 0.06681,-0.16952 0.08835,-0.217742 0.02155,-0.05319 0.04454,-0.118716 0.06829,-0.196941 0.02448,-0.07767 0.04454,-0.148167 0.06037,-0.212955 0.01584,-0.0589 0.03883,-0.138045 0.06828,-0.237253 0.0302,-0.0992 0.0554,-0.18608 0.0762,-0.26173 0.05393,-0.16602 0.09571,-0.303325 0.125158,-0.413392 0.02872,-0.109883 0.0438,-0.186083 0.0438,-0.229337 0,-0.02723 -0.01143,-0.05246 -0.03589,-0.0762 -0.02374,-0.02448 -0.08706,-0.07123 -0.189026,-0.140988 -0.02667,-0.02155 -0.05319,-0.04602 -0.08062,-0.07178 -0.02649,-0.02741 -0.04528,-0.04896 -0.05595,-0.06479 -0.03755,-0.05964 -0.06847,-0.09774 -0.09276,-0.117063 -0.02374,-0.01877 -0.05467,-0.02815 -0.09203,-0.02815 h -0.04473 c -0.01288,0 -0.01933,0.0028 -0.01933,0.0086 0.02081,0.10215 0.04233,0.184792 0.06405,0.248846 0.04233,0.176879 0.07031,0.320629 0.08411,0.430695 0.01362,0.109146 0.01785,0.234305 0.01214,0.373821 -0.005,0.133626 -0.01877,0.245167 -0.04031,0.333513 -0.02152,0.08853 -0.05595,0.180562 -0.104175,0.277558 -0.03238,0.06976 -0.06681,0.124425 -0.104912,0.164734 -0.03755,0.04012 -0.07491,0.06828 -0.112275,0.08485 -0.02152,0.0099 -0.04454,0.02797 -0.06828,0.05172 -0.02448,0.02448 -0.04454,0.04951 -0.06037,0.0762 -0.112825,0.171726 -0.226571,0.32063 -0.342159,0.447259 -0.115037,0.124979 -0.314921,0.314188 -0.598922,0.566533 -0.128837,0.112825 -0.247371,0.217004 -0.357434,0.31345 -0.109883,0.09626 -0.176142,0.1524 -0.197679,0.168967 -0.05319,0.04233 -0.121475,0.08835 -0.204855,0.13657 -0.08264,0.04822 -0.129388,0.06681 -0.140984,0.05614 0.02741,-0.04325 0.05098,-0.07547 0.0727,-0.09645 0.03736,-0.04307 0.132888,-0.157367 0.285288,-0.342162 0.153133,-0.184792 0.243138,-0.295596 0.269642,-0.333696 0.0052,-0.01069 0.0094,-0.01933 0.01161,-0.02797 0.0028,-0.0079 0.0042,-0.01436 0.0042,-0.02007 -0.005,0 -0.02374,0.0028 -0.05595,0.0079 -0.03238,0.0057 -0.0727,0.01637 -0.120925,0.03221 -0.04233,0.01087 -0.08982,0.02173 -0.1408,0.03239 -0.05043,0.01087 -0.09001,0.01877 -0.115775,0.02448 -0.02741,0.005 -0.06331,0.0114 -0.108592,0.01933 -0.04601,0.0086 -0.08982,0.01803 -0.133071,0.02889 l 0.144483,-0.03238 c -0.05319,0.01584 -0.115033,0.03094 -0.184608,0.04381 -0.06976,0.01362 -0.166204,0.03387 -0.289888,0.06037 -0.05393,0.01086 -0.115034,0.02448 -0.184792,0.04104 -0.06958,0.0151 -0.125713,0.02872 -0.168963,0.03957 -0.04804,0.01584 -0.108412,0.03239 -0.181113,0.04822 -0.07197,0.01637 -0.138042,0.03221 -0.196204,0.04804 -0.11798,0.02667 -0.200621,0.03662 -0.245163,0.02889 -0.04601,-0.0086 -0.154605,-0.04969 -0.326514,-0.125158 -0.230071,-0.101417 -0.444313,-0.215717 -0.642725,-0.341613 -0.198413,-0.126449 -0.353755,-0.247925 -0.466584,-0.365908 -0.03238,-0.03239 -0.07344,-0.09626 -0.124422,-0.193445 -0.05098,-0.09626 -0.0762,-0.157367 -0.0762,-0.184792 0,-0.005 -0.0028,-0.02007 -0.0086,-0.04381 -0.005,-0.02448 -0.01362,-0.04951 -0.02374,-0.0762 -0.05963,-0.182584 -0.100679,-0.35155 -0.124975,-0.506893 -0.02374,-0.155345 -0.03883,-0.353762 -0.04399,-0.595245 -0.0057,-0.225101 -0.0028,-0.391121 0.0079,-0.498246 0.01087,-0.107121 0.03736,-0.241667 0.08062,-0.401979 0.03238,-0.102154 0.0819,-0.227867 0.147983,-0.378242 0.06773,-0.150191 0.11448,-0.238537 0.140984,-0.265225 0.01086,-0.01087 0.01803,-0.01288 0.02007,-0.0079 0.0028,0.005 0.0044,0.02081 0.0044,0.04822 0,0.01584 -0.0021,0.04233 -0.0079,0.08043 -0.0057,0.03736 -0.01087,0.0727 -0.01658,0.104358 -0.005,0.03221 -0.01362,0.09277 -0.02374,0.181113 -0.01069,0.08853 -0.01859,0.178354 -0.02448,0.268912 -0.0099,0.246637 -0.0028,0.4745 0.02448,0.683775 0.02667,0.209271 0.07472,0.407688 0.144484,0.595242 0.03736,0.08559 0.08706,0.164733 0.1489,0.23725 0.06184,0.0727 0.189029,0.197125 0.381734,0.374008 0.107858,0.09626 0.240192,0.206326 0.398296,0.329279 0.158288,0.123501 0.250871,0.1905 0.276822,0.201175 0.01161,0.0052 0.02596,0.01436 0.04454,0.02815 0.01877,0.01362 0.03884,0.02798 0.06111,0.04381 0.05319,0.04307 0.133808,0.09552 0.240929,0.157367 0.107121,0.06185 0.179638,0.09718 0.217184,0.108596 0.02649,0.01086 0.05319,0.01584 0.08043,0.01584 0.02667,0 0.0589,-0.0028 0.09626,-0.0086 0.03238,-0.005 0.07049,-0.01143 0.116505,-0.01933 0.04528,-0.0086 0.08412,-0.0151 0.116508,-0.02025 0.198413,-0.03221 0.402717,-0.09258 0.611068,-0.181113 0.209271,-0.08761 0.40198,-0.199887 0.579593,-0.333513 0.127917,-0.09129 0.264488,-0.2078 0.409709,-0.350262 0.144667,-0.141542 0.246634,-0.255104 0.305717,-0.341425 0.107121,-0.166205 0.181846,-0.324313 0.224917,-0.474504 0.04325,-0.149638 0.05614,-0.291917 0.04031,-0.425725 -0.04823,-0.311242 -0.1489,-0.55788 -0.3013,-0.740467 -0.153134,-0.182033 -0.347867,-0.286208 -0.583826,-0.312713 -0.181847,-0.02244 -0.357255,-0.01012 -0.526218,0.03514 -0.168963,0.04602 -0.319888,0.125159 -0.454434,0.237987 -0.06387,0.04823 -0.111354,0.09921 -0.140804,0.1524 -0.02963,0.05319 -0.04675,0.110067 -0.0519,0.168967 0,0.0589 0.01161,0.107121 0.03608,0.145221 0.02448,0.03736 0.06534,0.07473 0.124238,0.112091 0.04896,0.03239 0.09571,0.05761 0.140984,0.07638 0.04602,0.01933 0.127367,0.04454 0.245163,0.07675 0.01658,0.0052 0.04454,0.01161 0.08412,0.01951 0.04104,0.0086 0.0819,0.0151 0.125155,0.02007 0.07547,0.0059 0.167492,0.02667 0.277559,0.06479 0.109883,0.03736 0.165283,0.0646 0.165283,0.08043 0,0.01087 -0.0151,0.01951 -0.04454,0.02815 -0.02946,0.0079 -0.08706,0.01711 -0.173197,0.02797 l -0.05614,0.0079 c -0.0589,0.0057 -0.115038,0.01214 -0.168967,0.02007 -0.05392,0.0086 -0.09129,0.0151 -0.112825,0.02025 -0.04749,0.005 -0.09497,0.01214 -0.14025,0.02007 -0.04601,0.0079 -0.07914,0.0151 -0.10068,0.02025 -0.01658,0 -0.02946,0.0021 -0.04031,0.0079 -0.01069,0.0057 -0.01584,0.01069 -0.01584,0.01637 0.0052,0 0.02889,0.01379 0.07197,0.03957 0.04307,0.02741 0.097,0.05687 0.16105,0.08927 0.192705,0.101233 0.3013,0.164549 0.325042,0.188291 0.02505,0.02448 0.0042,0.0554 -0.05982,0.09277 -0.02155,0.01584 -0.05319,0.03957 -0.09626,0.07252 -0.04307,0.03239 -0.08062,0.0611 -0.112825,0.08779 -0.166205,0.150928 -0.298355,0.252345 -0.398297,0.306274 -0.09865,0.05319 -0.231546,0.09626 -0.397746,0.128655 -0.04804,0.01012 -0.08411,0.01436 -0.108409,0.01161 -0.02448,-0.0021 -0.06055,-0.01161 -0.108596,-0.02815 -0.02667,-0.01069 -0.06552,-0.0309 -0.116505,-0.05964 -0.05098,-0.02946 -0.09773,-0.0611 -0.140987,-0.09276 -0.375292,-0.268174 -0.585114,-0.423333 -0.63113,-0.466587 -0.04546,-0.04307 -0.08135,-0.101417 -0.108592,-0.176879 -0.01087,-0.03736 -0.02522,-0.08043 -0.04399,-0.128658 -0.01859,-0.04822 -0.03865,-0.08835 -0.06037,-0.120742 -0.0381,-0.06976 -0.0762,-0.165467 -0.116325,-0.289154 -0.04031,-0.123504 -0.07417,-0.252342 -0.100679,-0.385971 -0.03238,-0.144484 -0.04822,-0.319338 -0.04822,-0.522725 0,-0.203567 0.01859,-0.38615 0.05614,-0.547204 0.01069,-0.06387 0.023,-0.133625 0.03589,-0.208538 0.01362,-0.07546 0.023,-0.134362 0.02798,-0.177429 0.01658,-0.08559 0.04178,-0.176146 0.07693,-0.273325 0.03461,-0.09626 0.07344,-0.173937 0.116509,-0.232834 0.01584,-0.02741 0.04675,-0.06976 0.09203,-0.128841 0.04601,-0.0589 0.09055,-0.117796 0.133071,-0.176879 0.09129,-0.1178 0.166017,-0.199704 0.225654,-0.245167 0.05835,-0.04601 0.200622,-0.127183 0.425722,-0.2459 0.03736,-0.02081 0.12295,-0.06958 0.257309,-0.144487 0.133809,-0.07473 0.27903,-0.156634 0.434372,-0.245163 0.155162,-0.08835 0.308296,-0.172463 0.458667,-0.253083 0.144488,-0.08558 0.248663,-0.147246 0.312713,-0.185529"
       style="fill:#21201d;fill-opacity:1;fill-rule:nonzero;stroke:none;stroke-width:0.184057"
       id="path492" />
  </g>
</svg>
