<?xml version="1.0" encoding="UTF-8" standalone="no"?>
<!-- Created with Inkscape (http://www.inkscape.org/) -->

<svg
   width="7.5232401mm"
   height="7.0673633mm"
   viewBox="0 0 7.5232401 7.0673633"
   version="1.1"
   id="svg2147"
   inkscape:version="1.1.2 (0a00cf5339, 2022-02-04)"
   sodipodi:docname="shades_of_suffering.svg"
   xmlns:inkscape="http://www.inkscape.org/namespaces/inkscape"
   xmlns:sodipodi="http://sodipodi.sourceforge.net/DTD/sodipodi-0.dtd"
   xmlns="http://www.w3.org/2000/svg"
   xmlns:svg="http://www.w3.org/2000/svg">
  <sodipodi:namedview
     id="namedview2149"
     pagecolor="#ffffff"
     bordercolor="#666666"
     borderopacity="1.0"
     inkscape:pageshadow="2"
     inkscape:pageopacity="0.0"
     inkscape:pagecheckerboard="0"
     inkscape:document-units="mm"
     showgrid="false"
     inkscape:zoom="0.64052329"
     inkscape:cx="-1425.397"
     inkscape:cy="124.11727"
     inkscape:window-width="2560"
     inkscape:window-height="1376"
     inkscape:window-x="0"
     inkscape:window-y="0"
     inkscape:window-maximized="1"
     inkscape:current-layer="layer1" />
  <defs
     id="defs2144" />
  <g
     inkscape:label="Layer 1"
     inkscape:groupmode="layer"
     id="layer1"
     transform="translate(-482.01432,-115.84523)">
    <path
       d="m 488.71359,116.84237 c -0.0368,0 -0.0655,0.002 -0.0863,0.008 -0.0158,0.005 -0.023,0.0158 -0.0193,0.0309 0.002,0.0158 0.0136,0.0267 0.0351,0.0316 0.0158,0.006 0.0445,0 0.0863,-0.0158 0.0416,-0.0158 0.0574,-0.0287 0.0467,-0.0388 -0.005,-0.0107 -0.026,-0.0158 -0.0626,-0.0158 m -1.31858,-0.10989 c -0.0418,-0.006 -0.0813,-0.0101 -0.11798,-0.0153 -0.0359,-0.006 -0.0574,-0.008 -0.0626,-0.008 -0.0158,0 -0.0237,0.002 -0.0237,0.004 0,0.003 0.008,0.009 0.0237,0.0195 0.005,0.0107 0.0144,0.0171 0.0274,0.0193 0.0136,0.003 0.0223,0.004 0.0272,0.004 0.0109,0 0.028,0.004 0.051,0.0123 0.0237,0.007 0.0519,0.0166 0.0828,0.0265 0.0265,0.0109 0.0624,0.0223 0.10988,0.0353 0.0475,0.0136 0.0913,0.025 0.13381,0.0359 0.0834,0.0151 0.1408,0.0309 0.17246,0.0468 0.0309,0.0158 0.0519,0.0366 0.0626,0.0633 0.005,0.0208 0.0144,0.0324 0.0274,0.0351 0.0129,0.002 0.0589,0.004 0.13731,0.004 0.0468,0 0.0928,0.002 0.1373,0.004 0.0445,0.003 0.0747,0.004 0.0906,0.004 0.0359,0.0107 0.0589,0.0144 0.0661,0.0114 0.008,-0.002 0.0173,-0.0144 0.0274,-0.0352 0.006,-0.0151 0.0151,-0.0302 0.028,-0.0433 0.0129,-0.0129 0.0274,-0.0223 0.0433,-0.0272 0.0208,-0.005 0.023,-0.0101 0.008,-0.0158 -0.0157,-0.005 -0.0711,-0.0101 -0.16528,-0.0158 -0.13087,-0.005 -0.26247,-0.018 -0.39609,-0.0388 -0.13307,-0.0208 -0.22363,-0.0416 -0.27038,-0.0633 -0.0215,-0.01 -0.0539,-0.0201 -0.0985,-0.0309 -0.0445,-0.0107 -0.0848,-0.0208 -0.12148,-0.0315 m -0.22731,-0.36885 c 0,-0.0109 0.009,-0.0145 0.0274,-0.0116 0.0179,0.002 0.0324,0.0116 0.0431,0.0274 0.0158,0.0157 0.0173,0.0287 0.004,0.0394 -0.0131,0.0101 -0.0274,0.007 -0.0433,-0.008 -0.01,-0.0101 -0.0179,-0.0195 -0.023,-0.0267 -0.006,-0.008 -0.008,-0.0144 -0.008,-0.0201 m -1.56153,1.2711 c 0.0201,-0.005 0.0351,-0.006 0.0431,-0.004 0.008,0.003 0.0195,0.0173 0.0346,0.0433 0.0215,0.0366 0.0777,0.19271 0.1697,0.46658 0.0913,0.27462 0.18902,0.58733 0.29393,0.93833 0.0467,0.15167 0.0935,0.30333 0.14099,0.45426 0.0475,0.1524 0.0784,0.25676 0.0942,0.31419 0.0215,0.0525 0.0589,0.16896 0.11356,0.34952 0.0554,0.18038 0.11356,0.36738 0.17688,0.56083 l 0.47873,1.75775 c 0.0576,0.16767 0.0913,0.26025 0.10215,0.27903 0.0101,0.0188 -0.0812,-0.32854 -0.27461,-1.03956 0.0258,0.0782 0.0482,0.15019 0.0661,0.21553 0.0188,0.0655 0.0282,0.10584 0.0282,0.12167 0,0.0366 0.006,0.0849 0.0193,0.14522 0.0129,0.0604 0.0302,0.12148 0.051,0.18479 0.0158,0.0466 0.0316,0.0804 0.0467,0.10123 0.0158,0.0217 0.0525,0.0526 0.11006,0.0942 0.0208,0.0158 0.0352,0.0482 0.0431,0.0985 0.008,0.0497 0.004,0.0871 -0.0114,0.11356 -0.0208,0.0418 -0.0618,0.0685 -0.12148,0.0784 -0.0604,0.0109 -0.10142,-0.002 -0.12148,-0.0396 0,-0.005 -0.003,-0.0295 -0.009,-0.074 -0.005,-0.0445 -0.0101,-0.0928 -0.0151,-0.14522 0,-0.0576 -0.003,-0.11081 -0.008,-0.16105 -0.006,-0.0497 -0.0109,-0.0819 -0.0158,-0.0977 -0.005,-0.026 -0.0482,-0.17044 -0.1294,-0.43217 -0.0814,-0.26099 -0.17687,-0.57297 -0.28694,-0.93317 -0.026,-0.0841 -0.0532,-0.17467 -0.0819,-0.27112 -0.0289,-0.097 -0.0512,-0.17117 -0.067,-0.22363 -0.0151,-0.0524 -0.0322,-0.10565 -0.051,-0.16105 -0.018,-0.0547 -0.0324,-0.0955 -0.0431,-0.12148 -0.021,-0.0574 -0.0626,-0.18626 -0.12515,-0.38468 -0.0633,-0.19915 -0.15461,-0.4918 -0.27535,-0.8785 -0.0418,-0.14173 -0.0898,-0.29984 -0.14522,-0.47524 -0.0547,-0.17467 -0.0977,-0.31216 -0.12866,-0.41211 -0.0633,-0.18829 -0.0999,-0.31124 -0.11006,-0.36812 -0.0109,-0.0574 -0.008,-0.0891 0.008,-0.0948 m -1.35815,-0.25087 c 0,-0.021 -0.008,-0.0274 -0.023,-0.0195 -0.0158,0.008 -0.0339,0.0252 -0.0554,0.051 l -0.008,0.008 c -0.0208,0.021 -0.0403,0.0433 -0.0582,0.0663 -0.0188,0.0237 -0.0359,0.0438 -0.051,0.0589 -0.0526,0.0576 -0.14172,0.16603 -0.26762,0.32579 -0.12571,0.15958 -0.19841,0.25805 -0.21921,0.29468 -0.0215,0.0316 -0.0604,0.0742 -0.11798,0.12939 -0.0574,0.0547 -0.0992,0.0878 -0.12497,0.0979 -0.0267,0.01 -0.0388,0.0236 -0.0361,0.0388 0.003,0.0157 0.0202,0.0344 0.0512,0.0552 l 0.0473,0.0316 0.10933,-0.10215 c 0.0475,-0.0416 0.0856,-0.0718 0.1143,-0.0906 0.0289,-0.0179 0.0749,-0.0381 0.13731,-0.0589 0.0368,-0.0101 0.069,-0.0193 0.0986,-0.0272 0.028,-0.007 0.0453,-0.0116 0.0503,-0.0116 0.0109,0 0.0129,0.0144 0.008,0.0431 -0.005,0.0289 -0.018,0.0641 -0.0388,0.10583 -0.0317,0.0683 -0.0438,0.10492 -0.0359,0.10989 0.008,0.006 0.033,-0.0178 0.0747,-0.0705 0.0834,-0.10989 0.14301,-0.18406 0.17688,-0.22345 0.0339,-0.0396 0.072,-0.072 0.11356,-0.0987 0.026,-0.0151 0.0453,-0.0295 0.0589,-0.0431 0.0131,-0.0129 0.0166,-0.0193 0.0116,-0.0193 -0.005,0 -0.0351,0.008 -0.0898,0.0238 -0.0554,0.0158 -0.11946,0.0366 -0.19271,0.0624 -0.0734,0.026 -0.13878,0.0482 -0.19639,0.067 -0.0574,0.0186 -0.0883,0.0272 -0.094,0.0272 -0.021,0 -0.018,-0.0208 0.008,-0.0633 0.0265,-0.0409 0.0891,-0.13012 0.18829,-0.26596 0.15166,-0.19915 0.24958,-0.33149 0.29412,-0.39683 0.0445,-0.0648 0.0668,-0.0999 0.0668,-0.10565 m -1.43582,1.23945 c -0.0107,0 -0.0258,0.009 -0.0468,0.0237 -0.0166,0.0107 -0.028,0.0252 -0.0359,0.0431 -0.008,0.0188 -0.004,0.0281 0.0121,0.0281 0.0109,0 0.0274,-0.009 0.0512,-0.0281 0.0237,-0.0178 0.0352,-0.0324 0.0352,-0.0431 0,-0.0151 -0.005,-0.0237 -0.0158,-0.0237 m 2.23683,-2.73068 c 0.0158,-0.0366 0.0359,-0.0525 0.0624,-0.0468 0.026,0.005 0.0683,0.0396 0.12589,0.10215 0.026,0.0258 0.051,0.0554 0.074,0.0863 0.0237,0.0309 0.0411,0.0552 0.0519,0.0703 0.0151,0.0316 0.0409,0.0554 0.0775,0.0705 0.0368,0.0158 0.0942,0.0287 0.17265,0.0396 0.11006,0.0101 0.31124,0.0388 0.60462,0.0863 0.29265,0.0468 0.56008,0.0941 0.80028,0.1408 0.0784,0.0158 0.16749,0.0316 0.26743,0.0475 0.0992,0.0158 0.17762,0.026 0.23504,0.0316 0.0576,0.005 0.16326,0.018 0.31787,0.0388 0.1546,0.0208 0.30976,0.0445 0.46658,0.0712 0.15681,0.0201 0.31915,0.0416 0.48683,0.0626 0.16749,0.0201 0.2897,0.0366 0.36866,0.0468 0.17265,0.0208 0.2783,0.0351 0.31787,0.0431 0.0396,0.008 0.0589,0.0201 0.0589,0.0351 0,0.0109 -0.0121,0.0195 -0.0352,0.0281 -0.0237,0.008 -0.0539,0.0114 -0.0898,0.0114 -0.0217,0 -0.0361,0.003 -0.044,0.008 -0.008,0.005 -0.0114,0.0208 -0.0114,0.0468 -0.005,0.0316 -0.005,0.0611 0,0.0905 0.005,0.0287 0.0158,0.0482 0.0309,0.0591 0.006,0 0.0107,0.005 0.0158,0.0151 0.005,0.0107 0.009,0.0208 0.009,0.0315 0,0.021 -0.009,0.0353 -0.0245,0.0433 -0.0151,0.008 -0.0361,0.0114 -0.0626,0.0114 -0.0101,0 -0.0339,0.0144 -0.0705,0.044 -0.0366,0.028 -0.0762,0.0639 -0.11798,0.10565 -0.0466,0.0366 -0.0913,0.0733 -0.13289,0.10988 -0.0425,0.0368 -0.0683,0.0598 -0.0791,0.0705 -0.0258,0.0158 -0.0416,0.0289 -0.0467,0.0396 -0.005,0.0101 -0.005,0.026 0,0.0468 0.005,0.0366 0,0.0589 -0.0158,0.0668 -0.0158,0.008 -0.0517,0.006 -0.10989,-0.004 -0.0418,-0.0101 -0.0705,-0.0144 -0.0863,-0.0116 -0.0158,0.003 -0.0366,0.0116 -0.0626,0.0274 -0.0158,0.01 -0.0574,0.0337 -0.12589,0.071 -0.0675,0.0361 -0.14375,0.0756 -0.22713,0.11724 -0.0841,0.0366 -0.1581,0.072 -0.22363,0.10639 -0.0653,0.0339 -0.10067,0.0532 -0.10638,0.0591 -0.0151,0.01 -0.0237,0.0193 -0.0237,0.0272 0,0.007 0.009,0.0195 0.0237,0.0353 0.0215,0.0208 0.0316,0.0374 0.0316,0.051 0,0.0129 -0.008,0.0245 -0.0237,0.0351 -0.0101,0.0101 -0.0215,0.0144 -0.0344,0.0116 -0.0138,-0.003 -0.0361,-0.0144 -0.0677,-0.0353 -0.0517,-0.0258 -0.0898,-0.0396 -0.11357,-0.0396 -0.0237,0 -0.0639,0.0138 -0.12147,0.0396 -0.0574,0.026 -0.19344,0.0769 -0.40842,0.1524 -0.21425,0.0764 -0.36094,0.12737 -0.43916,0.15387 -0.0784,0.021 -0.12516,0.0396 -0.14099,0.0547 -0.0158,0.0158 -0.0158,0.0418 0,0.0784 0.0158,0.0576 0.018,0.0891 0.007,0.0942 -0.0101,0.005 -0.0388,-0.0131 -0.0863,-0.0547 l -0.0861,-0.0791 -0.1489,0.0396 c -0.0525,0.0158 -0.0913,0.0267 -0.11798,0.0316 -0.0258,0.005 -0.0416,0.005 -0.0467,0 -0.005,-0.005 -0.0158,-0.026 -0.0315,-0.0626 -0.0151,-0.0366 -0.0309,-0.0812 -0.0467,-0.13363 -0.0158,-0.0468 -0.0317,-0.0928 -0.0475,-0.13749 -0.0158,-0.0445 -0.026,-0.074 -0.0309,-0.0905 -0.006,-0.01 -0.0144,-0.0344 -0.0274,-0.074 -0.0129,-0.0396 -0.028,-0.0826 -0.0438,-0.12939 -0.0675,-0.2251 -0.10142,-0.35229 -0.10142,-0.38118 0,-0.0287 0.0289,-0.0453 0.0863,-0.051 l 0.0784,-0.007 0.10215,0.15682 c 0.0624,0.094 0.1027,0.14669 0.12148,0.15663 0.0179,0.0101 0.0114,-0.0258 -0.0195,-0.10988 -0.0107,-0.021 -0.0201,-0.0468 -0.028,-0.0784 -0.007,-0.0316 -0.0144,-0.0576 -0.0195,-0.0784 -0.005,-0.0468 0,-0.0799 0.0158,-0.0985 0.0158,-0.018 0.0604,-0.0381 0.13307,-0.0584 0.0532,-0.0158 0.14375,-0.0394 0.27461,-0.0703 0.1316,-0.0324 0.20706,-0.0475 0.22805,-0.0475 0.005,0 0.0208,0.005 0.0473,0.0151 0.026,0.0107 0.0547,0.0237 0.0863,0.0396 0.0626,0.0316 0.0999,0.0473 0.11356,0.0473 0.0131,0 0.006,-0.0129 -0.0201,-0.0394 -0.0208,-0.026 -0.0309,-0.0453 -0.0309,-0.0591 0,-0.0129 0.0101,-0.0193 0.0309,-0.0193 0.0107,0 0.0252,-0.004 0.0438,-0.0116 0.018,-0.008 0.0353,-0.0171 0.0512,-0.0272 0.0201,-0.0158 0.0545,-0.0331 0.10124,-0.051 0.0475,-0.0188 0.0999,-0.0361 0.15755,-0.0512 l 0.19546,-0.0547 0.10289,0.0388 c 0.0725,0.0309 0.11725,0.044 0.13308,0.0388 0.0156,-0.005 0.0236,-0.0337 0.0236,-0.0863 0,-0.0416 -10e-4,-0.0661 -0.004,-0.0747 -0.002,-0.007 -0.0144,-0.0114 -0.0352,-0.0114 -0.0109,0 -0.0324,0.003 -0.067,0.008 -0.0337,0.005 -0.0661,0.0107 -0.0977,0.0158 -0.19914,0.0525 -0.34804,0.0891 -0.44725,0.10988 -0.0999,0.021 -0.15958,0.0289 -0.18038,0.023 -0.0109,-0.005 -0.0324,-0.0166 -0.0668,-0.0351 -0.0339,-0.018 -0.069,-0.0403 -0.10657,-0.0661 -0.0567,-0.0425 -0.18534,-0.1165 -0.38376,-0.22436 -0.19914,-0.10712 -0.31933,-0.16823 -0.36093,-0.18406 h -0.0158 c -0.005,0 -0.008,0.005 -0.008,0.0158 0,0.01 0.0258,0.0337 0.0782,0.0705 0.0526,0.0366 0.12019,0.0782 0.2043,0.12572 0.0316,0.0151 0.0639,0.0339 0.0985,0.0547 0.0339,0.0208 0.0554,0.0396 0.0661,0.0554 0.0158,0.01 0.0396,0.0272 0.0712,0.051 0.0309,0.0237 0.0618,0.0453 0.0935,0.0661 0.0683,0.0418 0.1086,0.0698 0.12221,0.0828 0.0129,0.0129 0.009,0.025 -0.0121,0.0351 -0.021,0.0158 -0.13307,0.0539 -0.33719,0.11356 -0.20431,0.0604 -0.31713,0.0906 -0.33719,0.0906 -0.006,0 -0.0158,-0.005 -0.0317,-0.0157 -0.0158,-0.0101 -0.0289,-0.021 -0.0396,-0.0316 -0.0208,-0.0309 -0.069,-0.10068 -0.14522,-0.2078 -0.0755,-0.10712 -0.13952,-0.20559 -0.19197,-0.29412 -0.021,-0.0316 -0.0425,-0.0604 -0.0626,-0.0863 -0.0215,-0.0265 -0.0374,-0.0394 -0.0475,-0.0394 -0.0158,0 -0.0208,0.0107 -0.0158,0.0315 0.006,0.021 0.0237,0.0497 0.0554,0.0863 0.0151,0.0158 0.028,0.0324 0.0388,0.051 0.0107,0.018 0.0158,0.0304 0.0158,0.0353 0,0.0101 0.0237,0.0611 0.0705,0.15313 0.0467,0.0913 0.0891,0.16823 0.12571,0.23081 0.026,0.0366 0.0433,0.0646 0.0512,0.0826 0.008,0.0188 0.006,0.0331 -0.004,0.0438 -0.005,0.005 -0.0223,0.0131 -0.051,0.023 -0.0287,0.0109 -0.0611,0.021 -0.0977,0.0316 l -0.0309,0.008 c -0.0475,0.0109 -0.09,0.0223 -0.12589,0.0353 -0.0366,0.0129 -0.0683,0.0243 -0.0942,0.0352 -0.0733,0.0208 -0.12866,0.0331 -0.16455,0.0351 -0.0366,0.003 -0.0604,-0.006 -0.0712,-0.028 0,-0.004 -0.002,-0.0503 -0.008,-0.13657 -0.005,-0.0863 -0.0101,-0.18406 -0.0151,-0.29486 -0.005,-0.18756 -0.0109,-0.31051 -0.0158,-0.36886 -0.006,-0.0574 -0.0129,-0.0861 -0.0237,-0.0861 -0.0158,0 -0.0258,0.0316 -0.0316,0.0948 -0.005,0.0626 -0.01,0.19841 -0.0158,0.40769 -0.005,0.12074 -0.009,0.22657 -0.0114,0.31786 -0.003,0.092 -0.006,0.14301 -0.0116,0.1524 0,0.0107 -0.0129,0.023 -0.0396,0.0359 -0.0258,0.0129 -0.0653,0.0302 -0.1178,0.051 l -0.10141,0.0309 c -0.0366,0.0109 -0.0712,0.023 -0.10215,0.0361 -0.0315,0.0129 -0.0416,0.0166 -0.0315,0.0114 -0.0418,0.0208 -0.0727,0.0302 -0.0942,0.0274 -0.0208,-0.003 -0.0309,-0.0116 -0.0309,-0.0274 0,-0.005 0.007,-0.0366 0.023,-0.0941 0.0158,-0.0576 0.0366,-0.12295 0.0633,-0.19639 0.0258,-0.0733 0.048,-0.13951 0.0661,-0.19988 0.0188,-0.0604 0.0272,-0.0955 0.0272,-0.10639 0,-0.0208 -0.002,-0.0309 -0.007,-0.0309 -0.006,0 -0.0136,0.005 -0.0243,0.0158 -0.0101,0.0109 -0.0217,0.026 -0.0353,0.0468 -0.0129,0.0208 -0.0215,0.0416 -0.0265,0.0633 -0.0425,0.0884 -0.0821,0.17964 -0.11798,0.27462 -0.0366,0.0935 -0.0554,0.14872 -0.0554,0.16454 0,0.0151 -0.0165,0.0512 -0.0503,0.10584 -0.0346,0.0552 -0.0618,0.0876 -0.0826,0.0985 -0.021,0.01 -0.0289,0.0201 -0.0237,0.0309 0.005,0.0107 0.0258,0.0237 0.0624,0.0396 0.0316,0.01 0.0526,0.0158 0.0633,0.0158 0.0101,0 0.021,-0.006 0.0309,-0.0158 0.005,-0.0109 0.009,-0.0195 0.0123,-0.0274 0.003,-0.008 0.004,-0.0144 0.004,-0.0193 0,-0.0109 0.0403,-0.0346 0.12148,-0.0712 0.0814,-0.0366 0.13528,-0.0547 0.16105,-0.0547 0.021,0 0.0339,0.004 0.0396,0.0116 0.005,0.008 0.0101,0.0243 0.0151,0.051 v 0.0784 c 0,0.0366 -0.002,0.0703 -0.007,0.10197 -0.0109,0.0784 -0.0158,0.14099 -0.0158,0.18847 0,0.0475 0.005,0.0705 0.0158,0.0705 0.0101,0 0.0215,-0.018 0.0351,-0.0547 0.013,-0.0366 0.0296,-0.11503 0.0512,-0.23596 0.0309,-0.14577 0.0596,-0.23927 0.0863,-0.27811 0.0258,-0.0396 0.0596,-0.0353 0.10123,0.0114 0.0316,0.0267 0.0569,0.0366 0.0749,0.0316 0.0179,-0.005 0.0351,-0.0265 0.051,-0.0633 0.0158,-0.0309 0.0381,-0.0567 0.0668,-0.0782 0.0287,-0.021 0.0611,-0.0309 0.0985,-0.0309 0.0203,0 0.0403,0.0129 0.0584,0.0394 0.0179,0.026 0.028,0.0519 0.028,0.0777 0,0.0109 0.0116,0.0539 0.0353,0.13013 0.023,0.0756 0.0532,0.16326 0.0898,0.2632 0.0317,0.0992 0.0604,0.19271 0.0863,0.28253 0.0258,0.0885 0.0423,0.14393 0.0473,0.16399 0.005,0.0475 10e-4,0.0777 -0.0114,0.0906 -0.0136,0.0129 -0.051,0.0245 -0.1143,0.0351 -0.0208,0.005 -0.0705,0.0173 -0.14964,0.0353 -0.0782,0.018 -0.16454,0.0381 -0.25805,0.0589 -0.095,0.0208 -0.17982,0.041 -0.25528,0.0589 -0.0762,0.018 -0.12442,0.0274 -0.14522,0.0274 -0.0258,0.005 -0.0431,0.0121 -0.051,0.0201 -0.008,0.007 -0.0173,0.0295 -0.0274,0.0663 -0.005,0.0158 -0.0114,0.0316 -0.0201,0.0475 -0.008,0.0151 -0.0144,0.0258 -0.0193,0.0307 -0.0109,0.006 -0.0245,0 -0.0433,-0.0157 -0.0186,-0.0151 -0.0272,-0.0289 -0.0272,-0.0388 0,-0.0158 -0.0116,-0.0316 -0.0353,-0.0475 -0.0237,-0.0151 -0.0488,-0.023 -0.0747,-0.023 -0.0158,0 -0.0482,0.004 -0.0977,0.0114 -0.0504,0.008 -0.10067,0.0195 -0.15313,0.0353 -0.0576,0.01 -0.13455,0.0223 -0.23154,0.0351 -0.097,0.0129 -0.187,0.0252 -0.27038,0.0359 -0.0841,0.0101 -0.15737,0.0195 -0.22069,0.0274 -0.0618,0.007 -0.0992,0.0136 -0.10933,0.0193 -0.01,0.005 -0.0237,0.0166 -0.0396,0.0353 -0.0151,0.0178 -0.0337,0.0381 -0.0545,0.0589 -0.0158,0.0208 -0.0304,0.0381 -0.0433,0.051 -0.0129,0.0131 -0.0223,0.0195 -0.0272,0.0195 -0.0109,-0.026 -0.0188,-0.0497 -0.0237,-0.0705 l -0.008,-0.0633 -0.49475,0.0158 c -0.13583,0 -0.25731,0.002 -0.36443,0.004 -0.10712,0.002 -0.16601,0.004 -0.17688,0.004 -0.0208,0 -0.0339,-0.002 -0.0396,-0.004 -0.005,-0.003 -0.007,-0.0116 -0.007,-0.0281 0.005,-0.0359 0,-0.0626 -0.0158,-0.0782 -0.0158,-0.0151 -0.0445,-0.023 -0.0863,-0.023 -0.0316,0 -0.051,-0.003 -0.0589,-0.008 -0.008,-0.005 -0.0114,-0.013 -0.0114,-0.0237 0,-0.0158 0.0179,-0.0418 0.0545,-0.0784 0.0368,-0.0366 0.1489,-0.13381 0.33719,-0.29044 0.12093,-0.11007 0.28842,-0.26026 0.50266,-0.4515 0.21424,-0.19068 0.40769,-0.36462 0.58014,-0.52125 0.0683,-0.0685 0.13731,-0.13381 0.20854,-0.19639 0.0705,-0.0633 0.12148,-0.10988 0.1524,-0.14154 0.0316,-0.026 0.0712,-0.0604 0.11798,-0.10215 0.0475,-0.0418 0.0891,-0.0812 0.12571,-0.11725 0.0368,-0.0316 0.0769,-0.0668 0.12166,-0.10638 0.0445,-0.0388 0.0797,-0.0712 0.10565,-0.0977 0.0683,-0.0576 0.13233,-0.1108 0.1927,-0.16105 0.0604,-0.0497 0.1559,-0.13731 0.28603,-0.26246 l 0.23522,-0.21204 v -0.18056 c 0,-0.0475 0.002,-0.094 0.004,-0.14154 0.003,-0.0467 0.006,-0.0784 0.0124,-0.0942"
       style="fill:#21201d;fill-opacity:1;fill-rule:nonzero;stroke:none;stroke-width:0.184057"
       id="path588" />
  </g>
</svg>
