<?xml version="1.0" encoding="UTF-8" standalone="no"?>
<!-- Created with Inkscape (http://www.inkscape.org/) -->

<svg
   width="7.19275mm"
   height="6.9568048mm"
   viewBox="0 0 7.19275 6.9568048"
   version="1.1"
   id="svg2255"
   inkscape:version="1.1.2 (0a00cf5339, 2022-02-04)"
   sodipodi:docname="shadow_of_a_doubt.svg"
   xmlns:inkscape="http://www.inkscape.org/namespaces/inkscape"
   xmlns:sodipodi="http://sodipodi.sourceforge.net/DTD/sodipodi-0.dtd"
   xmlns="http://www.w3.org/2000/svg"
   xmlns:svg="http://www.w3.org/2000/svg">
  <sodipodi:namedview
     id="namedview2257"
     pagecolor="#ffffff"
     bordercolor="#666666"
     borderopacity="1.0"
     inkscape:pageshadow="2"
     inkscape:pageopacity="0.0"
     inkscape:pagecheckerboard="0"
     inkscape:document-units="mm"
     showgrid="false"
     inkscape:zoom="0.64052329"
     inkscape:cx="14.051011"
     inkscape:cy="13.2704"
     inkscape:window-width="2560"
     inkscape:window-height="1376"
     inkscape:window-x="0"
     inkscape:window-y="0"
     inkscape:window-maximized="1"
     inkscape:current-layer="layer1" />
  <defs
     id="defs2252" />
  <g
     inkscape:label="Layer 1"
     inkscape:groupmode="layer"
     id="layer1"
     transform="translate(-101.32434,-145.02285)">
    <path
       d="m 106.79654,150.35091 c 0.0826,-0.0101 0.16823,-0.0158 0.25584,-0.0158 h 0.27903 c 0.0826,0.006 0.19638,0.009 0.34087,0.009 h 0.40326 c 0.13455,0 0.24167,0 0.32137,0.004 0.0799,0.003 0.12018,0.006 0.12018,0.0116 0,0.01 -0.0267,0.0272 -0.0814,0.0503 -0.0539,0.023 -0.11209,0.0403 -0.17467,0.0504 -0.0309,0.0107 -0.0604,0.0193 -0.0885,0.0272 -0.0287,0.008 -0.051,0.0136 -0.0661,0.0195 -0.0468,0.0158 -0.10068,0.0258 -0.16326,0.0309 -0.0618,0.005 -0.12866,0 -0.20117,-0.0151 -0.0619,-0.0109 -0.12019,-0.0158 -0.17412,-0.0158 -0.0547,0 -0.13878,0.005 -0.25234,0.0158 -0.0208,0.005 -0.0668,0.01 -0.13952,0.0151 -0.0718,0.005 -0.1524,0.01 -0.24001,0.0157 -0.3359,0.0153 -0.5645,0.0282 -0.68597,0.0381 -0.12148,0.0109 -0.21572,0.0217 -0.28253,0.0309 -0.0418,0.006 -0.10859,0.0151 -0.20209,0.0274 -0.0928,0.0129 -0.18829,0.0245 -0.28603,0.0351 -0.0935,0.0158 -0.18552,0.0295 -0.27535,0.0425 -0.0907,0.0129 -0.15184,0.0245 -0.18276,0.0351 -0.0618,0.0151 -0.10915,0.0245 -0.14301,0.0267 -0.0339,0.003 -0.0604,-0.002 -0.0812,-0.0116 -0.0109,-0.005 -0.0145,-0.0114 -0.0116,-0.0193 0.002,-0.007 0.009,-0.0245 0.0195,-0.0504 0.01,-0.0151 0.0193,-0.0344 0.0265,-0.0582 0.008,-0.023 0.0116,-0.0453 0.0116,-0.0655 l 0.0158,-0.0545 0.10841,-0.0151 c 0.0309,0 0.0712,-0.002 0.12019,-0.004 0.0488,-0.002 0.0913,-0.004 0.12792,-0.004 0.0418,0 0.0841,-0.002 0.12791,-0.008 0.044,-0.005 0.0791,-0.0101 0.10437,-0.0151 0.0208,-0.0109 0.0596,-0.018 0.1165,-0.0237 0.0567,-0.005 0.11136,-0.0101 0.16234,-0.0158 0.0576,0 0.13455,-0.003 0.23302,-0.0116 0.0977,-0.007 0.19123,-0.0166 0.27903,-0.0265 0.0876,-0.0109 0.18608,-0.021 0.29467,-0.0309 0.10859,-0.0109 0.19639,-0.018 0.2632,-0.0237 m -1.13176,1.17834 c 0.0418,-0.005 0.0878,-0.008 0.13951,-0.008 0.0517,0 0.0878,0.003 0.1086,0.008 0.0309,0.0101 0.041,0.023 0.0309,0.0388 -0.0101,0.0151 -0.0331,0.028 -0.0698,0.0381 -0.0151,0.006 -0.0344,0.0109 -0.0582,0.0158 -0.023,0.005 -0.0403,0.0129 -0.0504,0.023 -0.0151,0.006 -0.0309,0.009 -0.0468,0.0121 -0.0151,0.003 -0.0302,0.004 -0.046,0.004 -0.0107,-0.005 -0.0287,-0.005 -0.0539,0 -0.0265,0.006 -0.0517,0.0129 -0.0775,0.0237 -0.12442,0.0411 -0.30351,0.0747 -0.53855,0.1 -0.23522,0.026 -0.55217,0.0445 -0.94973,0.0547 -0.0569,0 -0.12369,0.005 -0.20136,0.0158 -0.0777,0.01 -0.16031,0.023 -0.24811,0.0381 -0.15534,0.0317 -0.29191,0.0517 -0.41044,0.0626 -0.11945,0.01 -0.2459,0.0179 -0.38044,0.023 -0.14449,0 -0.23504,0 -0.27093,-0.004 -0.0361,-0.002 -0.0547,-0.009 -0.0547,-0.0186 0,-0.0309 0.11651,-0.0677 0.3486,-0.10859 0.23302,-0.0411 0.56874,-0.0856 1.00808,-0.1316 0.041,-0.006 0.0942,-0.0109 0.15884,-0.0158 0.0648,-0.005 0.12019,-0.0101 0.16675,-0.0151 0.0467,-0.006 0.10437,-0.0121 0.17412,-0.0195 0.0698,-0.008 0.13087,-0.0114 0.18258,-0.0114 h 0.0302 c 0.0626,-0.006 0.12148,-0.0109 0.17835,-0.0158 0.0574,-0.005 0.10639,-0.0109 0.14743,-0.0158 0.1143,-0.0158 0.26522,-0.0339 0.45351,-0.0539 0.18848,-0.0208 0.29836,-0.0337 0.32928,-0.0388 m 0.0698,-6.50313 c 0.026,-0.004 0.0497,-0.006 0.0698,-0.004 0.021,0.002 0.0547,0.0114 0.10067,0.0265 0.0576,0.0215 0.097,0.0403 0.12074,0.0589 0.023,0.018 0.0346,0.0425 0.0346,0.0734 0,0.0107 0.001,0.0245 0.004,0.0431 0.003,0.018 0.007,0.0346 0.0116,0.0504 0.0107,0.0201 0.0151,0.0381 0.0114,0.0539 -0.002,0.0151 -0.0136,0.0388 -0.0344,0.0698 -0.0101,0.0208 -0.026,0.0473 -0.0467,0.0812 -0.0201,0.0339 -0.0381,0.0633 -0.0539,0.0891 -0.0208,0.026 -0.0388,0.0504 -0.0547,0.0742 -0.0151,0.023 -0.023,0.0423 -0.023,0.0582 -0.005,0.009 -0.009,0.0201 -0.0114,0.0309 -0.002,0.0101 -0.007,0.018 -0.0116,0.023 -0.0107,0.0101 -0.0208,0.0503 -0.0309,0.12001 -0.0107,0.0697 -0.0178,0.14393 -0.023,0.22086 -0.006,0.0416 -0.0107,0.079 -0.0158,0.11283 -0.006,0.0331 -0.0129,0.0554 -0.0237,0.0653 -0.005,0.0158 -0.01,0.0309 -0.0151,0.0468 -0.005,0.0151 -0.008,0.0282 -0.008,0.0381 0,0.0109 -0.001,0.0353 -0.004,0.0742 -0.003,0.0388 -0.006,0.0812 -0.0123,0.12792 -0.01,0.0777 -0.0136,0.12369 -0.0114,0.13952 0.003,0.0151 0.0151,0.0359 0.0351,0.0618 0.021,0.0208 0.0532,0.0431 0.0972,0.0661 0.0438,0.023 0.079,0.0352 0.10418,0.0352 0.0569,0 0.20136,0.0734 0.43419,0.22086 0.23228,0.14725 0.34878,0.23873 0.34878,0.27462 0,0.005 -0.006,0.0129 -0.0193,0.023 -0.0131,0.0109 -0.0274,0.0186 -0.0425,0.0237 -0.041,0.0158 -0.0856,0.0158 -0.1316,0 -0.0468,-0.0158 -0.1373,-0.0596 -0.27093,-0.1316 -0.12442,-0.0668 -0.22436,-0.11798 -0.29909,-0.15093 -0.0749,-0.0339 -0.14098,-0.0512 -0.19786,-0.0512 -0.0409,-0.005 -0.0668,-0.005 -0.0769,0 -0.0107,0.006 -0.0238,0.021 -0.0388,0.0468 -0.0107,0.0158 -0.0193,0.0324 -0.0272,0.0504 -0.008,0.0179 -0.0121,0.0352 -0.0121,0.0503 0,0.0109 -0.002,0.0245 -0.007,0.0431 -0.005,0.018 -0.0109,0.0346 -0.0158,0.0504 -0.0101,0.0151 -0.0166,0.0309 -0.0195,0.046 -0.002,0.0158 -7.1e-4,0.0309 0.004,0.0468 0.005,0.0158 0.007,0.0337 0.007,0.0547 0,0.0201 -0.005,0.046 -0.0151,0.0769 -0.005,0.0208 -0.0116,0.0468 -0.0195,0.0777 -0.008,0.0307 -0.0144,0.0567 -0.0193,0.0775 -0.005,0.0252 -0.013,0.0532 -0.023,0.0814 -0.0101,0.0287 -0.021,0.0532 -0.0309,0.0733 -0.0109,0.0215 -0.021,0.046 -0.0309,0.0742 -0.0109,0.0287 -0.018,0.0532 -0.0237,0.0733 -0.005,0.0208 -0.0123,0.0438 -0.023,0.0705 -0.0109,0.0252 -0.0208,0.046 -0.0309,0.0611 -0.006,0.0158 -0.0131,0.0388 -0.0237,0.0705 -0.0101,0.0309 -0.0201,0.0611 -0.0309,0.0928 -0.005,0.0258 -0.0143,0.0552 -0.0267,0.0891 -0.0136,0.0331 -0.0223,0.0604 -0.0272,0.0812 -0.0109,0.0158 -0.0208,0.0375 -0.0309,0.0663 -0.0109,0.028 -0.018,0.0554 -0.0237,0.0812 -0.005,0.0208 -0.0129,0.0468 -0.023,0.0769 -0.0101,0.0316 -0.0208,0.0569 -0.0309,0.0784 -0.0101,0.0252 -0.0208,0.0554 -0.0309,0.0883 -0.0107,0.0339 -0.0186,0.0633 -0.023,0.09 -0.006,0.0302 -0.0121,0.0618 -0.0201,0.0928 -0.008,0.0309 -0.0136,0.0545 -0.0195,0.0696 -0.009,0.021 -0.0186,0.046 -0.0265,0.0777 -0.008,0.0309 -0.0166,0.0591 -0.0274,0.0849 -0.0158,0.0675 -0.0374,0.15185 -0.0653,0.25161 -0.0287,0.10141 -0.0532,0.18773 -0.074,0.2597 -0.0309,0.0775 -0.0697,0.20983 -0.11577,0.39536 -0.0475,0.18626 -0.0756,0.31566 -0.0856,0.38818 -0.005,0.0252 -0.0131,0.0561 -0.023,0.0928 -0.0109,0.0361 -0.021,0.0618 -0.0316,0.0769 -0.0101,0.0158 -0.0188,0.0381 -0.0267,0.0663 -0.008,0.0287 -0.0114,0.0532 -0.0114,0.0733 -0.005,0.0208 -0.0109,0.0431 -0.0158,0.0663 -0.005,0.0228 -0.0109,0.0431 -0.0158,0.0582 -0.0101,0.0107 -0.0166,0.0208 -0.0193,0.0309 -0.002,0.0107 -0.004,0.0186 -0.004,0.023 0,0.0158 0.0208,0.0223 0.0618,0.0201 0.0416,-0.003 0.0985,-0.0121 0.17117,-0.0272 0.0977,-0.0158 0.23578,-0.0287 0.41413,-0.0388 0.17817,-0.0101 0.47449,-0.023 0.88715,-0.0388 0.20706,-0.005 0.39903,-0.0116 0.57812,-0.0195 0.17743,-0.008 0.28749,-0.0136 0.32928,-0.0193 0.0769,-0.0101 0.13933,-0.0144 0.18608,-0.0116 0.046,0.002 0.15976,0.0195 0.34013,0.0504 0.0366,0.005 0.0547,0.0173 0.0547,0.0351 0,0.018 -0.018,0.0346 -0.0547,0.0497 -0.051,0.026 -0.14172,0.0446 -0.27111,0.0547 -0.12866,0.01 -0.33572,0.0179 -0.61972,0.0237 -0.20706,0.004 -0.37455,0.01 -0.50321,0.0151 -0.13013,0.005 -0.25087,0.0129 -0.36535,0.023 -0.35081,0.0416 -0.6269,0.0755 -0.82899,0.10068 -0.20117,0.0265 -0.33572,0.0495 -0.40253,0.0696 -0.0418,0.0109 -0.095,0.021 -0.15958,0.0316 -0.0641,0.009 -0.12221,0.018 -0.17412,0.023 -0.0517,0.005 -0.10196,0.0131 -0.15092,0.023 -0.0488,0.0109 -0.0841,0.018 -0.10418,0.0238 -0.0215,0.005 -0.0433,0.0101 -0.0663,0.0151 -0.0236,0.005 -0.0401,0.008 -0.0502,0.008 -0.0109,0 -0.0287,0.002 -0.0547,0.007 -0.0252,0.006 -0.0517,0.0109 -0.0769,0.0158 -0.17615,0.0468 -0.46438,0.0806 -0.86488,0.10068 -0.39977,0.0208 -0.68304,0.0129 -0.84832,-0.023 -0.021,-0.005 -0.0324,-0.0151 -0.0346,-0.0309 -0.003,-0.0158 0.006,-0.0257 0.0267,-0.0309 0.0675,-0.0258 0.15811,-0.0482 0.27167,-0.0661 0.11283,-0.018 0.23449,-0.0324 0.36388,-0.0425 0.16528,-0.01 0.2932,-0.0208 0.38394,-0.0309 0.0898,-0.01 0.16381,-0.0237 0.22068,-0.0388 0.0258,-0.005 0.0712,-0.0129 0.13584,-0.023 0.064,-0.0107 0.13013,-0.0208 0.19767,-0.0315 0.072,-0.005 0.13952,-0.013 0.20136,-0.023 0.0618,-0.0101 0.10363,-0.018 0.12369,-0.023 0.026,-0.006 0.0554,-0.0109 0.0891,-0.0158 0.0339,-0.005 0.0633,-0.008 0.0893,-0.008 0.0366,0 0.0639,-0.002 0.0819,-0.007 0.018,-0.005 0.0374,-0.0131 0.0576,-0.0237 0.0258,-0.026 0.0488,-0.0814 0.0703,-0.16621 0.0203,-0.0856 0.0381,-0.20043 0.0532,-0.3451 0.0109,-0.0567 0.0203,-0.10989 0.0281,-0.15885 0.007,-0.049 0.0136,-0.0791 0.0186,-0.0891 0.006,-0.0109 0.0116,-0.0309 0.0195,-0.0618 0.008,-0.0317 0.0144,-0.0626 0.0193,-0.0928 0.021,-0.10933 0.0482,-0.22786 0.0821,-0.35744 0.0329,-0.12939 0.0812,-0.28897 0.14302,-0.48021 0.026,-0.0777 0.0502,-0.16031 0.0733,-0.24811 0.0237,-0.0876 0.0403,-0.15737 0.0504,-0.20908 0.0107,-0.046 0.0245,-0.11504 0.0431,-0.20578 0.018,-0.0906 0.0346,-0.17173 0.0504,-0.24369 0.0208,-0.0777 0.0388,-0.15388 0.0539,-0.2286 0.0158,-0.0747 0.0258,-0.12793 0.0309,-0.15885 0.006,-0.0309 0.0121,-0.0633 0.0193,-0.0972 0.008,-0.0337 0.0144,-0.0582 0.0201,-0.074 0.0151,-0.0302 0.023,-0.0589 0.023,-0.0848 0,-0.0258 -0.005,-0.0468 -0.0158,-0.0618 -0.01,-0.005 -0.0143,-0.0107 -0.0114,-0.0158 0.003,-0.005 0.009,-0.0129 0.0193,-0.023 0.021,-0.0258 0.0361,-0.0517 0.046,-0.0777 0.0109,-0.0258 0.0188,-0.0696 0.0238,-0.13142 0.005,-0.0467 0.0116,-0.0841 0.0195,-0.11301 0.008,-0.028 0.0245,-0.0653 0.0502,-0.11209 0.0361,-0.0569 0.0618,-0.11651 0.0777,-0.17835 0.0151,-0.0618 0.0208,-0.11854 0.0151,-0.17044 0,-0.0258 -0.004,-0.0438 -0.0114,-0.0539 -0.008,-0.0107 -0.0245,-0.0186 -0.0504,-0.023 -0.0151,-0.006 -0.0554,-0.0121 -0.12001,-0.0201 -0.0648,-0.008 -0.13584,-0.0136 -0.21277,-0.0188 -0.0727,-0.006 -0.13878,-0.0107 -0.19786,-0.0157 -0.0596,-0.006 -0.092,-0.0109 -0.097,-0.0158 -0.0208,-0.0101 -0.0503,-0.0151 -0.0891,-0.0151 -0.0388,0 -0.0893,0.005 -0.15111,0.0151 -0.0416,0.01 -0.071,0.0144 -0.0891,0.0114 -0.0188,-0.002 -0.0351,-0.009 -0.0503,-0.0193 -0.0158,-0.0101 -0.0289,-0.0217 -0.0388,-0.0346 -0.0109,-0.0129 -0.018,-0.0245 -0.0237,-0.0344 -0.005,-0.0158 -0.0116,-0.0302 -0.0188,-0.0433 -0.008,-0.0129 -0.0173,-0.0245 -0.0272,-0.0351 -0.0158,-0.0201 -0.0158,-0.0346 0,-0.0425 0.0151,-0.007 0.0589,-0.0186 0.1316,-0.0344 0.0826,-0.0158 0.1962,-0.0223 0.34069,-0.0195 0.14522,0.003 0.28694,0.0145 0.42627,0.0353 0.0569,0.0101 0.11651,0.0186 0.17835,0.0265 0.0618,0.008 0.10639,0.0116 0.1316,0.0116 h 0.0856 l 0.008,-0.0618 c 0.0101,-0.046 0.0272,-0.11504 0.0502,-0.20486 0.023,-0.0907 0.0554,-0.19786 0.0972,-0.3221 0.0668,-0.20136 0.10915,-0.35891 0.12718,-0.47248 0.018,-0.1143 0.0151,-0.194 -0.0114,-0.24075 -0.005,-0.0101 -0.007,-0.0252 -0.004,-0.046 0.002,-0.021 0.0144,-0.0519 0.0346,-0.0935 0.0208,-0.0512 0.0431,-0.0913 0.0661,-0.12001 0.023,-0.0282 0.0503,-0.0504 0.0812,-0.0663 m -1.85197,5.61948 0.16252,-0.0238 0.008,0.1086 c 0,0.0677 -0.005,0.1143 -0.0158,0.13952 -0.0101,0.0267 -0.0309,0.0388 -0.0618,0.0388 -0.0101,0 -0.0339,0.002 -0.0697,0.004 -0.0359,0.002 -0.0698,0.009 -0.10068,0.0195 -0.0359,0.005 -0.0891,0.0114 -0.15884,0.0193 -0.0698,0.007 -0.13602,0.0138 -0.19786,0.0195 -0.0617,0.005 -0.12792,0.0114 -0.19768,0.0186 -0.0698,0.009 -0.12497,0.0173 -0.16675,0.0274 -0.0769,0.0158 -0.19841,0.0208 -0.36388,0.0158 -0.16528,-0.005 -0.3048,-0.018 -0.41836,-0.0388 -0.0418,-0.005 -0.10289,-0.0116 -0.18258,-0.0195 -0.0799,-0.008 -0.15609,-0.0144 -0.22787,-0.0193 -0.18626,-0.0101 -0.32725,-0.0267 -0.42277,-0.0503 -0.0957,-0.023 -0.14394,-0.0504 -0.14394,-0.0814 0,-0.0151 0.0324,-0.0258 0.0972,-0.0309 0.0646,-0.006 0.21644,-0.0107 0.45369,-0.0158 0.13363,-0.005 0.2667,-0.01 0.39904,-0.0151 0.13142,-0.005 0.22068,-0.0107 0.26743,-0.0158 0.0517,-0.005 0.13436,-0.01 0.24792,-0.0158 0.11375,-0.005 0.22437,-0.01 0.33296,-0.0151 0.1143,-0.005 0.21995,-0.01 0.31787,-0.0151 0.0985,-0.006 0.16031,-0.0107 0.18608,-0.0158 0.026,-0.005 0.0648,-0.0114 0.11651,-0.0193 0.0517,-0.008 0.0977,-0.0144 0.13951,-0.0195"
       style="fill:#21201d;fill-opacity:1;fill-rule:nonzero;stroke:none;stroke-width:0.184057"
       id="path576" />
  </g>
</svg>
