<?xml version="1.0" encoding="UTF-8" standalone="no"?>
<!-- Created with Inkscape (http://www.inkscape.org/) -->

<svg
   width="7.7753077mm"
   height="6.2282133mm"
   viewBox="0 0 7.7753077 6.2282133"
   version="1.1"
   id="svg2282"
   inkscape:version="1.1.2 (0a00cf5339, 2022-02-04)"
   sodipodi:docname="spacial_anomaly.svg"
   xmlns:inkscape="http://www.inkscape.org/namespaces/inkscape"
   xmlns:sodipodi="http://sodipodi.sourceforge.net/DTD/sodipodi-0.dtd"
   xmlns="http://www.w3.org/2000/svg"
   xmlns:svg="http://www.w3.org/2000/svg">
  <sodipodi:namedview
     id="namedview2284"
     pagecolor="#ffffff"
     bordercolor="#666666"
     borderopacity="1.0"
     inkscape:pageshadow="2"
     inkscape:pageopacity="0.0"
     inkscape:pagecheckerboard="0"
     inkscape:document-units="mm"
     showgrid="false"
     inkscape:zoom="0.64052329"
     inkscape:cx="14.051011"
     inkscape:cy="11.709176"
     inkscape:window-width="2560"
     inkscape:window-height="1376"
     inkscape:window-x="0"
     inkscape:window-y="0"
     inkscape:window-maximized="1"
     inkscape:current-layer="layer1" />
  <defs
     id="defs2279" />
  <g
     inkscape:label="Layer 1"
     inkscape:groupmode="layer"
     id="layer1"
     transform="translate(-101.03396,-145.38529)">
    <path
       d="m 108.34567,149.52231 c 0.0166,-0.0265 0.0293,-0.0453 0.0403,-0.056 0.0106,-0.0109 0.0187,-0.0138 0.0243,-0.008 0.0109,0.0158 0.0109,0.0401 0,0.0718 -0.0113,0.0324 -0.0265,0.0569 -0.0481,0.0727 -0.0275,0.0158 -0.0418,0.0158 -0.0447,0 -0.004,-0.0158 0.007,-0.0425 0.0282,-0.0806 m -0.26543,-1.95414 c 0.0219,-0.0109 0.0447,-0.0193 0.0685,-0.028 0.0243,-0.008 0.0446,-0.0123 0.0604,-0.0123 0.0215,0 0.031,0.004 0.0279,0.009 -0.004,0.005 -0.0194,0.0267 -0.0517,0.0641 -0.0433,0.0482 -0.10213,0.0883 -0.17759,0.12074 -0.0748,0.0324 -0.11211,0.0353 -0.11211,0.008 0,-0.0215 0.0201,-0.0482 0.0604,-0.0804 0.0401,-0.0316 0.0819,-0.0591 0.12422,-0.0806 m -0.32135,3.83576 c -0.0166,-0.0215 -0.0416,-0.0316 -0.0762,-0.0316 -0.0353,0 -0.0604,0.008 -0.0762,0.0237 -0.0166,0.0215 -0.0215,0.0366 -0.0166,0.0445 0.006,0.008 0.0268,0.0173 0.0641,0.028 0.0431,0.0109 0.0769,0.008 0.10069,-0.008 0.0243,-0.0166 0.0261,-0.0353 0.004,-0.0569 m -0.35376,-4.30162 c 0,-0.0374 0.008,-0.0569 0.0243,-0.0569 0.0159,0 0.0396,0.0136 0.072,0.0403 0.0265,0.0272 0.0416,0.0561 0.0438,0.0883 0.004,0.0324 -0.01,0.0512 -0.0359,0.0569 -0.0215,0.0101 -0.0445,0 -0.0683,-0.0324 -0.0236,-0.0322 -0.0361,-0.0639 -0.0361,-0.0963 m 0.15258,0.50616 c 0.006,-0.0208 0.009,-0.0331 0.0123,-0.0359 0.004,-0.002 0.012,0.006 0.0279,0.028 0.006,0.0107 0.0109,0.0309 0.0166,0.0604 0.005,0.0302 0.008,0.0653 0.008,0.1086 0,0.0589 -0.004,0.1027 -0.012,0.13233 -0.008,0.0302 -0.031,0.079 -0.0683,0.14872 -0.0591,0.10215 -0.0992,0.1675 -0.12093,0.19695 -0.0215,0.0304 -0.0401,0.0425 -0.056,0.0368 -0.0275,-0.0109 -0.0374,-0.0294 -0.0325,-0.0561 0.005,-0.0272 0.0236,-0.0618 0.0562,-0.10492 0.0272,-0.0374 0.0552,-0.0942 0.0848,-0.16896 0.0293,-0.0749 0.0495,-0.14743 0.0604,-0.21645 v -0.0166 c 0.005,-0.0215 0.009,-0.0431 0.0113,-0.064 0.004,-0.0215 0.007,-0.0381 0.0123,-0.0488 m -0.28124,1.16619 c 0.0215,-0.0374 0.0411,-0.0698 0.0604,-0.0964 0.0187,-0.0265 0.0311,-0.0401 0.0361,-0.0401 0.0381,0 0.0401,0.0409 0.008,0.12424 -0.0318,0.0834 -0.0828,0.16252 -0.1524,0.23725 -0.059,0.0648 -0.0848,0.0742 -0.0764,0.0282 0.008,-0.0453 0.049,-0.12939 0.12443,-0.25308 m 0.11229,2.35613 c -0.0425,-0.0324 -0.0792,-0.0554 -0.10862,-0.0685 -0.0286,-0.0136 -0.0517,-0.0201 -0.0675,-0.0201 -0.092,0.005 -0.19198,0.0173 -0.30205,0.0366 -0.11007,0.0188 -0.16471,0.0361 -0.16471,0.0519 0.0749,0.0431 0.13874,0.0755 0.19342,0.0963 0.0799,0.0431 0.13731,0.0698 0.17265,0.0806 0.0346,0.0107 0.0784,0.0136 0.13215,0.008 0.0648,0 0.12443,-0.006 0.1813,-0.0201 0.0561,-0.0129 0.0841,-0.0309 0.0841,-0.0517 0,-0.006 -0.0123,-0.0202 -0.0359,-0.0445 -0.0243,-0.0245 -0.0526,-0.0468 -0.0848,-0.0683 m -1.01307,-5.70156 c 0,-0.0267 0.006,-0.0418 0.0159,-0.0438 0.0106,-0.003 0.0243,0.006 0.0401,0.028 0.0166,0.0158 0.0229,0.0287 0.0201,0.0359 -0.004,0.008 -0.0145,0.0123 -0.0361,0.0123 -0.0155,0 -0.0265,-0.002 -0.0321,-0.008 -0.005,-0.005 -0.008,-0.0136 -0.008,-0.0245 m 1.0935,4.56832 c -0.0641,-0.0272 -0.11652,-0.0445 -0.15663,-0.0532 -0.0403,-0.008 -0.13752,-0.0114 -0.29341,-0.0114 l -0.32134,-0.009 -0.13656,0.0733 c -0.0863,0.0368 -0.17763,0.0727 -0.27408,0.10785 -0.0963,0.0346 -0.1581,0.0525 -0.18479,0.0525 -0.0374,0 -0.0495,0.008 -0.0359,0.0245 0.0129,0.0151 0.0468,0.0346 0.0999,0.0561 0.0963,0.0374 0.22143,0.0797 0.37383,0.12866 0.15314,0.0475 0.23798,0.072 0.25378,0.072 0.0325,0 0.14747,-0.0374 0.34513,-0.11227 0.1984,-0.0747 0.32505,-0.12571 0.37825,-0.15313 0.0215,-0.0158 0.0416,-0.0322 0.0604,-0.0481 0.0187,-0.0158 0.0286,-0.0267 0.0286,-0.0324 0,-0.0109 -0.0145,-0.0237 -0.0403,-0.0403 -0.0272,-0.0158 -0.0596,-0.0344 -0.097,-0.0554 m -2.09071,-2.38907 c 0,-0.0316 0.009,-0.0438 0.0245,-0.0359 0.0157,0.008 0.0344,0.0337 0.056,0.0762 0.0215,0.0381 0.0339,0.0725 0.0366,0.10492 0.002,0.0324 -0.002,0.0482 -0.0129,0.0482 -0.0151,0 -0.0366,-0.026 -0.064,-0.0762 -0.0265,-0.0512 -0.0401,-0.09 -0.0401,-0.11724 m -0.0561,0.80451 c 0,-0.0215 0.008,-0.0237 0.0245,-0.008 0.0158,0.0158 0.0423,0.051 0.0804,0.10418 0.0316,0.0539 0.0532,0.095 0.064,0.12515 0.0109,0.0295 0.008,0.0438 -0.009,0.0438 -0.0208,0 -0.0532,-0.0344 -0.0955,-0.10418 -0.0433,-0.0698 -0.0648,-0.12368 -0.0648,-0.16105 m -0.0482,-1.64069 c 0.0158,-0.0215 0.0346,-0.0331 0.0561,-0.0359 0.0216,-0.003 0.0374,0.007 0.0482,0.028 0.006,0.0158 -0.004,0.0374 -0.0282,0.0646 -0.0237,0.0267 -0.0466,0.0396 -0.0683,0.0396 -0.0215,0 -0.0329,-0.008 -0.0359,-0.0237 -0.003,-0.0158 0.006,-0.0401 0.028,-0.0725 m 0.61917,4.34267 c -0.0749,-0.0109 -0.13381,-0.0166 -0.17688,-0.0166 -0.0433,0 -0.10712,0.006 -0.19271,0.0166 -0.12865,0.0158 -0.21718,0.0374 -0.26596,0.0639 -0.0482,0.0274 -0.0425,0.0512 0.0164,0.0727 0.0532,0.0208 0.17982,0.0438 0.37823,0.0683 0.19768,0.0245 0.36738,0.0388 0.50616,0.0438 0.17761,0.006 0.26817,0.002 0.27314,-0.0114 0.006,-0.0138 -0.0696,-0.0576 -0.22492,-0.13307 -0.064,-0.0324 -0.11872,-0.0561 -0.16473,-0.0727 -0.0453,-0.0156 -0.0955,-0.0265 -0.14872,-0.0315 m -0.072,-0.78814 c -0.0755,-0.0164 -0.15811,-0.0295 -0.2494,-0.0401 -0.0915,-0.0109 -0.16105,-0.0188 -0.20927,-0.0245 l -0.18553,-0.008 0.049,0.0403 c 0.0208,0.0215 0.0762,0.0468 0.16454,0.0769 0.0885,0.0287 0.20486,0.0618 0.35008,0.1 0.0907,0.0272 0.21719,0.0416 0.3775,0.0445 0.16105,0.002 0.2387,-0.007 0.23302,-0.0281 -0.005,-0.0164 -0.0584,-0.0401 -0.16032,-0.0733 -0.10215,-0.0316 -0.22583,-0.0611 -0.36958,-0.0878 m -0.78795,-3.96442 c 0,-0.0374 7.1e-4,-0.0589 0.004,-0.0646 0.003,-0.005 0.009,-0.002 0.0203,0.009 0.0107,0.005 0.0186,0.0158 0.0243,0.0317 0.005,0.0156 0.008,0.0322 0.008,0.048 0,0.0166 -0.003,0.0294 -0.008,0.041 -0.006,0.0101 -0.0136,0.0158 -0.0243,0.0158 -0.0109,0 -0.0173,-0.007 -0.0203,-0.0203 -0.003,-0.0136 -0.004,-0.0337 -0.004,-0.0604 m 0.10418,0.89231 c 0.005,-0.0374 0.0109,-0.0604 0.0158,-0.0683 0.005,-0.008 0.0136,-0.002 0.0237,0.0201 0.0114,0.0374 0.0136,0.0942 0.009,0.16897 -0.005,0.0755 -0.0158,0.13381 -0.0324,0.17688 -0.0215,0.0482 -0.051,0.095 -0.0884,0.14098 -0.0374,0.0453 -0.0618,0.0683 -0.0727,0.0683 -0.0158,0 -0.0193,-0.0173 -0.0114,-0.0525 0.008,-0.0346 0.028,-0.095 0.0604,-0.18129 0.0208,-0.0473 0.0401,-0.0985 0.0559,-0.1524 0.0158,-0.0539 0.0296,-0.0942 0.0403,-0.12075 m 1.6889,3.41796 c -0.0381,-0.0107 -0.24444,-0.0179 -0.61972,-0.0201 -0.37529,-0.003 -0.59247,0.004 -0.65137,0.0201 -0.069,0.0158 -0.2078,0.0655 -0.41339,0.14817 -0.20706,0.0834 -0.32652,0.13878 -0.35817,0.16473 -0.0215,0.0164 -0.0272,0.0337 -0.0166,0.0532 0.0116,0.0186 0.0381,0.0388 0.0806,0.0596 l 0.0883,0.0403 0.20927,-0.064 c 0.15038,-0.0532 0.29412,-0.0856 0.43069,-0.0964 0.13657,-0.0114 0.39757,-0.0164 0.78373,-0.0164 0.36957,0.005 0.59376,0.004 0.67144,-0.004 0.0776,-0.008 0.10562,-0.0339 0.0841,-0.0769 -0.0106,-0.0208 -0.051,-0.0574 -0.12075,-0.10859 -0.0697,-0.0502 -0.12587,-0.0841 -0.16821,-0.0999 m -1.55234,-0.82826 c -0.0423,-0.0539 -0.0762,-0.0861 -0.10068,-0.097 -0.0243,-0.0109 -0.0517,-0.0109 -0.0841,0 -0.0696,0.0215 -0.15957,0.0569 -0.26945,0.10491 -0.11007,0.0482 -0.17559,0.0777 -0.19713,0.0885 -0.0215,0.0107 -0.0324,0.0201 -0.0324,0.028 0,0.008 0.006,0.0201 0.0166,0.0359 0.0109,0.006 0.0282,0.0145 0.0519,0.0282 0.0243,0.0136 0.0503,0.0258 0.0762,0.0366 0.0272,0.0109 0.051,0.0215 0.0725,0.0324 0.0215,0.0107 0.0353,0.0158 0.0403,0.0158 0.006,0.01 0.12295,0.0136 0.35375,0.008 0.23081,-0.005 0.35155,-0.0131 0.36167,-0.0238 0.006,-0.006 -7e-4,-0.0166 -0.0195,-0.0324 -0.0186,-0.0166 -0.0416,-0.0324 -0.069,-0.0482 -0.0316,-0.0215 -0.0668,-0.0495 -0.10417,-0.0849 -0.0374,-0.0344 -0.0698,-0.0653 -0.0965,-0.092 m -1.02942,-1.35889 c 0,-0.006 0.007,-0.01 0.0208,-0.0121 0.0129,-0.003 0.0252,-0.004 0.0359,-0.004 0.0532,0 0.092,0.0136 0.11651,0.0401 0.0237,0.0274 0.0143,0.0482 -0.0287,0.0648 -0.0316,0.0101 -0.0663,0.002 -0.10436,-0.0245 -0.0374,-0.0265 -0.051,-0.0482 -0.0401,-0.0641 m 0.5391,1.91328 c -0.0913,-0.0374 -0.16529,-0.0574 -0.22142,-0.0604 -0.0561,-0.003 -0.13234,0.0101 -0.22934,0.0366 -0.15019,0.0431 -0.2459,0.0712 -0.28897,0.0841 -0.0433,0.0136 -0.0648,0.0287 -0.0648,0.0445 0,0.0267 0.0539,0.0828 0.16104,0.16897 0.10712,0.0856 0.21149,0.15534 0.31345,0.20854 0.0648,0.0324 0.1086,0.046 0.13307,0.0403 0.0238,-0.005 0.0841,-0.0453 0.18038,-0.12074 0.0381,-0.0267 0.0821,-0.0561 0.13307,-0.0885 0.051,-0.0317 0.0957,-0.0561 0.13308,-0.072 0.0856,-0.0431 0.12939,-0.0762 0.13233,-0.10049 0.003,-0.0238 -0.0361,-0.0447 -0.1165,-0.0604 -0.0274,-0.005 -0.067,-0.0158 -0.12093,-0.0317 -0.0532,-0.0166 -0.10197,-0.0331 -0.14448,-0.049 m -0.83691,-0.98066 c 0.0217,-0.0215 0.0418,-0.0339 0.0606,-0.0359 0.0186,-0.003 0.0287,0.006 0.0287,0.0272 0,0.0166 -0.0101,0.0352 -0.0287,0.0569 -0.0188,0.0216 -0.0361,0.0322 -0.0519,0.0322 -0.0166,0 -0.0258,-0.009 -0.028,-0.0243 -0.003,-0.0158 0.004,-0.0346 0.0193,-0.0561 m -0.0876,1.23797 c -0.0972,-0.0265 -0.20283,-0.0337 -0.31787,-0.0201 -0.11503,0.0136 -0.22712,0.0497 -0.33351,0.1086 -0.0913,0.0482 -0.19049,0.11007 -0.29761,0.1848 -0.10713,0.0755 -0.16326,0.12074 -0.16897,0.13657 -0.0109,0.0215 0.001,0.049 0.0359,0.0804 0.0351,0.0324 0.10068,0.0749 0.19694,0.12958 0.12866,0.0747 0.22013,0.11706 0.27406,0.12792 0.0532,0.0109 0.13363,0.006 0.24075,-0.0158 0.17191,-0.0374 0.29486,-0.0668 0.37032,-0.0883 0.0747,-0.0217 0.1581,-0.0512 0.24866,-0.0885 0.10712,-0.0431 0.18553,-0.0804 0.23375,-0.11283 0.0475,-0.0324 0.0668,-0.0583 0.0561,-0.0806 -0.0109,-0.0158 -0.0433,-0.0423 -0.0965,-0.0797 -0.0539,-0.0374 -0.0883,-0.0569 -0.10491,-0.0569 -0.005,0 -0.0144,0.009 -0.028,0.0245 -0.013,0.0158 -0.0281,0.0351 -0.044,0.0561 -0.0166,0.0272 -0.0366,0.0495 -0.0604,0.0683 -0.0245,0.0186 -0.0495,0.0359 -0.0769,0.0524 -0.0589,0.0265 -0.0935,0.0337 -0.10418,0.0201 -0.0109,-0.0136 0.005,-0.0416 0.048,-0.0848 0.0375,-0.0475 0.0618,-0.092 0.0727,-0.13216 0.0109,-0.0403 0.005,-0.0849 -0.0166,-0.13234 -0.0101,-0.0274 -0.0237,-0.046 -0.0403,-0.0569 -0.0158,-0.0107 -0.0445,-0.0237 -0.0876,-0.0403 m -1.15036,-0.217 c 0,-0.006 0.004,-0.0101 0.0121,-0.0158 0.008,-0.005 0.0173,-0.009 0.0282,-0.009 0.0215,0 0.0351,0.0101 0.0401,0.0287 0.005,0.0188 -0.003,0.0309 -0.0237,0.0361 -0.0164,0.005 -0.0294,0.005 -0.0409,0 -0.0101,-0.005 -0.0158,-0.0188 -0.0158,-0.0403 m -0.0561,-2.67749 c 0,-0.0166 0.0245,-0.0202 0.072,-0.0123 0.0488,0.008 0.11578,0.0252 0.20136,0.0526 0.048,0.0164 0.094,0.0309 0.13731,0.0445 0.0423,0.0129 0.0698,0.0193 0.0797,0.0193 0.0374,0 0.0324,0.0101 -0.0158,0.0289 -0.0488,0.0186 -0.0913,0.028 -0.12939,0.028 -0.069,0 -0.14374,-0.0188 -0.22436,-0.0569 -0.0804,-0.0374 -0.12074,-0.0725 -0.12074,-0.10418 m 0.98065,2.06624 c -0.13363,-0.0216 -0.28547,-0.0216 -0.4537,0 -0.16896,0.0217 -0.32063,0.0591 -0.45499,0.11301 -0.064,0.0265 -0.11798,0.0532 -0.16031,0.0804 -0.0433,0.0267 -0.0641,0.0482 -0.0641,0.064 0,0.006 0.0129,0.0136 0.0396,0.0245 0.0265,0.0107 0.0596,0.0237 0.097,0.0401 0.064,0.0158 0.12295,0.0267 0.17614,0.0324 0.0539,0.005 0.15037,0.008 0.2897,0.008 0.15038,0 0.25382,-0.003 0.30995,-0.008 0.0561,-0.006 0.14302,-0.0245 0.261,-0.0567 0.12865,-0.0376 0.2135,-0.0655 0.25381,-0.0841 0.0403,-0.0188 0.0547,-0.0388 0.0438,-0.0606 -0.005,-0.0215 -0.0468,-0.0495 -0.12442,-0.0847 -0.0775,-0.0346 -0.14871,-0.0576 -0.2135,-0.0685 m -1.23447,1.00956 c -0.16823,-0.003 -0.2551,-0.002 -0.26099,0.004 -0.005,0.0101 0.006,0.0282 0.0361,0.0519 0.0294,0.0243 0.074,0.0495 0.13288,0.0768 0.0641,0.0267 0.1086,0.041 0.13234,0.044 0.0245,0.003 0.0661,-0.0123 0.12516,-0.044 0.0589,-0.0272 0.10068,-0.051 0.12498,-0.0725 0.0237,-0.0215 0.0252,-0.0352 0.004,-0.0403 -0.0267,-0.0107 -0.12442,-0.0178 -0.29412,-0.0201 m -0.29338,-3.94436 c 0,-0.0431 0.0281,-0.0359 0.0849,0.0201 0.0561,0.0561 0.10859,0.13031 0.15681,0.2216 0.0482,0.0906 0.0812,0.16455 0.10068,0.22069 0.0186,0.0561 0.0252,0.0955 0.0201,0.11651 -0.0114,0.0322 -0.0215,0.0431 -0.0324,0.0322 -0.0107,-0.0107 -0.0265,-0.0423 -0.048,-0.0963 -0.0215,-0.0755 -0.0497,-0.14523 -0.0841,-0.20928 -0.0361,-0.0639 -0.0742,-0.12571 -0.11725,-0.18479 -0.0208,-0.0272 -0.0403,-0.051 -0.0561,-0.0725 -0.0158,-0.0215 -0.0245,-0.0374 -0.0245,-0.0482 m 2.18787,3.2569 c -0.0166,-0.006 -0.0324,-0.0107 -0.0488,-0.0164 -0.0158,-0.006 -0.0267,-0.008 -0.0316,-0.008 -0.0109,0 -0.0596,0.009 -0.14522,0.028 -0.0856,0.0188 -0.18774,0.0388 -0.30572,0.0604 -0.19841,0.0431 -0.3335,0.0683 -0.40547,0.0769 -0.0725,0.008 -0.19768,0.0116 -0.37382,0.0116 -0.10215,0 -0.20927,-0.002 -0.3221,-0.004 -0.11209,-0.003 -0.20412,-0.0101 -0.27314,-0.0208 -0.13454,-0.0158 -0.22436,-0.0188 -0.26964,-0.007 -0.0453,0.01 -0.10289,0.0473 -0.17265,0.11209 -0.0431,0.0374 -0.069,0.0648 -0.0762,0.0806 -0.009,0.0158 -0.01,0.0374 -0.004,0.0639 0.0107,0.0648 0.0468,0.10215 0.1086,0.11282 0.0618,0.0109 0.23651,0.0158 0.52695,0.0158 h 0.51407 l 0.26522,-0.10417 c 0.15038,-0.0589 0.26965,-0.10345 0.35818,-0.13308 0.0883,-0.0295 0.22142,-0.0653 0.39829,-0.10841 0.14946,-0.0425 0.24222,-0.0734 0.27682,-0.092 0.0351,-0.0188 0.0287,-0.0418 -0.0195,-0.0685 m -2.29997,0.0158 c -0.0107,-0.0107 -0.0215,-0.0171 -0.0324,-0.0201 -0.0107,-0.003 -0.0186,-0.004 -0.0243,-0.004 -0.0158,0 -0.0375,0.0215 -0.064,0.0646 -0.0267,0.0425 -0.0374,0.0698 -0.0324,0.0806 0.006,0.0216 0.023,0.0309 0.0525,0.028 0.0294,-0.003 0.0576,-0.0151 0.0849,-0.0366 0.0324,-0.026 0.0497,-0.049 0.0517,-0.0676 0.002,-0.0195 -0.009,-0.0339 -0.0359,-0.0447 m -0.20136,-0.67586 c 0,-0.005 0.004,-0.008 0.0123,-0.008 h 0.0201 c 0.0215,0 0.0433,0.023 0.0648,0.0683 0.0208,0.046 0.0237,0.074 0.008,0.0849 -0.006,0.01 -0.0138,0.0121 -0.0245,0.004 -0.0109,-0.008 -0.0215,-0.028 -0.0324,-0.0596 -0.0158,-0.0223 -0.0316,-0.051 -0.0482,-0.0893 m -0.16897,-2.85418 c 0,-0.0158 0.0109,-0.023 0.0324,-0.0195 0.0215,0.002 0.0433,0.009 0.0641,0.0195 0.0223,0.0107 0.0337,0.0272 0.0366,0.048 0.002,0.0217 -0.004,0.0324 -0.0201,0.0324 -0.0215,0 -0.0453,-0.0107 -0.0727,-0.0324 -0.0265,-0.0208 -0.0403,-0.0374 -0.0403,-0.048 m 4.47919,0.98139 c 0.0965,-0.0433 0.18627,-0.0576 0.26963,-0.0445 0.0827,0.0129 0.18334,0.0574 0.30131,0.13289 0.13437,0.0906 0.22934,0.18553 0.28547,0.28547 0.0567,0.0992 0.0869,0.22934 0.0928,0.38965 0.005,0.12866 0,0.24812 -0.0166,0.358 -0.0159,0.11007 -0.0453,0.22087 -0.0885,0.3337 -0.0374,0.10712 -0.0732,0.17982 -0.10859,0.21718 -0.0342,0.0374 -0.10841,0.0777 -0.22066,0.12001 -0.0698,0.0324 -0.13289,0.0539 -0.18905,0.0648 -0.0561,0.0107 -0.14667,0.0215 -0.26962,0.0322 -0.23578,0.0267 -0.40695,0.0526 -0.51481,0.0762 -0.10712,0.0245 -0.16105,0.0526 -0.16105,0.0849 0,0.0267 0.018,0.064 0.0532,0.11227 0.0346,0.048 0.0705,0.0834 0.10785,0.10491 0.0539,0.0267 0.13657,0.0374 0.24958,0.0324 0.11283,-0.006 0.24646,-0.0302 0.40178,-0.0727 0.1561,-0.0431 0.28843,-0.0869 0.39832,-0.13289 0.11007,-0.0453 0.22084,-0.10289 0.33369,-0.17265 0.043,-0.0272 0.0883,-0.0539 0.13656,-0.0804 0.049,-0.0267 0.0834,-0.0433 0.10492,-0.049 0.0159,-0.0101 0.0425,-0.0252 0.0806,-0.0438 0.0374,-0.0188 0.069,-0.0388 0.0963,-0.0604 0.0747,-0.0532 0.16179,-0.10436 0.26099,-0.15258 0.0992,-0.0488 0.19194,-0.0861 0.27756,-0.11283 0.064,-0.0215 0.11501,-0.0344 0.15311,-0.0403 0.0374,-0.005 0.0827,-0.005 0.13659,0 0.0806,0 0.15681,0.0151 0.2286,0.0447 0.0727,0.0294 0.136,0.0683 0.1892,0.11632 0.0324,0.0267 0.0618,0.0606 0.0883,0.10068 0.0275,0.0403 0.0353,0.0655 0.0243,0.0762 -0.0482,-0.0107 -0.0856,-0.0237 -0.11282,-0.0401 -0.0747,-0.0324 -0.14595,-0.0526 -0.21276,-0.0604 -0.067,-0.008 -0.15462,-0.007 -0.26099,0.004 -0.13455,0.0158 -0.26469,0.0453 -0.39059,0.0883 -0.1257,0.0425 -0.25361,0.0992 -0.38171,0.16896 -0.12866,0.0749 -0.21057,0.1259 -0.24518,0.15259 -0.0353,0.0265 -0.0475,0.0453 -0.0366,0.0559 0.006,0.006 0.0268,0.0151 0.0648,0.0287 0.0374,0.0131 0.0804,0.0282 0.12792,0.044 0.0488,0.0166 0.0992,0.0337 0.15314,0.0524 0.0539,0.0186 0.097,0.0337 0.12866,0.0446 0.0698,0.0316 0.12075,0.0468 0.15314,0.0438 0.0318,-0.003 0.0799,-0.023 0.1445,-0.0604 0.0648,-0.0431 0.13158,-0.0725 0.20133,-0.0884 0.069,-0.0158 0.1259,-0.0158 0.16824,0 0.0166,0.005 0.0359,0.0173 0.0604,0.0366 0.0243,0.018 0.0475,0.0381 0.069,0.0596 0.0257,0.0324 0.044,0.0591 0.0517,0.0806 0.008,0.0215 0.0123,0.051 0.0123,0.0883 0,0.0433 -0.006,0.0777 -0.0159,0.10436 -0.0109,0.0272 -0.0275,0.0409 -0.0482,0.0409 -0.0106,-0.0166 -0.0166,-0.0324 -0.0166,-0.0488 0,-0.0109 -0.004,-0.0281 -0.012,-0.0526 -0.008,-0.0236 -0.0173,-0.0466 -0.0279,-0.0683 -0.0219,-0.0374 -0.0388,-0.0596 -0.0519,-0.0683 -0.0138,-0.008 -0.0473,-0.0114 -0.10124,-0.0114 -0.0584,-0.006 -0.11229,0.003 -0.16031,0.0237 -0.0482,0.0216 -0.0727,0.048 -0.0727,0.0804 0,0.0158 0.0353,0.0438 0.10491,0.0841 0.0697,0.0403 0.13656,0.0712 0.20063,0.0928 0.0539,0.0158 0.10361,0.0388 0.1489,0.0683 0.046,0.0295 0.0604,0.0525 0.0445,0.0683 -0.006,0.006 -0.0229,0.0101 -0.0524,0.0123 -0.0296,0.003 -0.0633,0.004 -0.10069,0.004 -0.064,0 -0.11356,-0.006 -0.1489,-0.0166 -0.0346,-0.0107 -0.0977,-0.0374 -0.18828,-0.0797 l -0.18553,-0.0885 -0.25731,0.13584 c -0.0697,0.0383 -0.1432,0.0742 -0.22088,0.10859 -0.0776,0.0353 -0.13582,0.0611 -0.17318,0.0769 -0.0374,0.0101 -0.069,0.0217 -0.0963,0.0316 -0.0268,0.0109 -0.0403,0.0188 -0.0403,0.0245 -0.0109,0.005 0.043,0.0604 0.16105,0.16474 0.11779,0.10491 0.18478,0.15663 0.20062,0.15663 0.0222,0 0.10841,-0.0237 0.26173,-0.072 0.15314,-0.048 0.24789,-0.0834 0.28529,-0.10417 0.0215,-0.0114 0.046,-0.026 0.072,-0.0445 0.0272,-0.0188 0.051,-0.0359 0.0725,-0.0525 l 0.0641,-0.064 v 0.064 c 0,0.0913 -0.0475,0.17541 -0.14376,0.25382 -0.0972,0.0769 -0.20705,0.11853 -0.33002,0.12368 -0.0697,0 -0.10859,0.0129 -0.11723,0.0366 -0.008,0.0245 0.0127,0.0631 0.0611,0.11651 l 0.0885,0.0804 0.0962,-0.0324 c 0.18775,-0.0639 0.3429,-0.10418 0.46585,-0.12075 0.12368,-0.0158 0.20433,-0.0101 0.24168,0.0166 0.0215,0.0158 0.031,0.0258 0.0279,0.028 -0.004,0.003 -0.0194,0.006 -0.0517,0.0123 -0.0222,0.005 -0.0503,0.009 -0.0849,0.0121 -0.0346,0.002 -0.0683,0.006 -0.10068,0.0114 -0.0698,0.006 -0.15663,0.0339 -0.26172,0.0849 -0.10418,0.0512 -0.1559,0.09 -0.1559,0.11651 0,0.0215 0.01,0.0374 0.0321,0.0482 0.0208,0.0109 0.0749,0.0265 0.1603,0.0482 0.0433,0.0107 0.0756,0.0215 0.0965,0.0322 0.0215,0.0109 0.0324,0.0217 0.0324,0.0324 0.005,0.0215 -0.01,0.0331 -0.0446,0.0361 -0.0346,0.003 -0.0843,-0.007 -0.14888,-0.0282 -0.0425,-0.0166 -0.0734,-0.0237 -0.092,-0.0237 -0.0187,0 -0.0576,0.013 -0.11652,0.0396 -0.0374,0.0109 -0.0762,0.023 -0.11648,0.0366 -0.0401,0.013 -0.0718,0.023 -0.0928,0.0281 -0.048,0.0158 -0.14446,0.0208 -0.2897,0.0158 -0.14446,-0.005 -0.23576,-0.0158 -0.27312,-0.0324 -0.0215,-0.0109 -0.0604,-0.0158 -0.11652,-0.0158 h -0.22934 c -0.0806,0 -0.18976,0.002 -0.32999,0.004 -0.13878,0.002 -0.26523,0.004 -0.3775,0.004 -0.21995,0 -0.36444,-0.006 -0.43419,-0.0165 -0.0698,-0.0109 -0.2251,-0.0589 -0.46658,-0.14449 -0.11228,-0.0324 -0.18056,-0.0497 -0.20431,-0.0525 -0.025,-0.003 -0.0582,0.009 -0.10141,0.0359 -0.0423,0.0265 -0.0804,0.0468 -0.11283,0.0604 -0.0316,0.0136 -0.0532,0.0151 -0.064,0.004 -0.005,-0.006 -7.1e-4,-0.0166 0.0123,-0.0324 0.0136,-0.0158 0.0309,-0.0353 0.0517,-0.0561 0.0215,-0.0215 0.0403,-0.0418 0.0569,-0.0604 0.0158,-0.0188 0.0237,-0.0309 0.0237,-0.0359 0,-0.006 -0.004,-0.0151 -0.0116,-0.0289 -0.008,-0.0129 -0.0179,-0.0258 -0.0287,-0.0359 -0.0366,-0.0324 -0.0871,-0.0416 -0.14817,-0.028 -0.0618,0.0129 -0.17835,0.0626 -0.35007,0.14872 -0.0906,0.0374 -0.17835,0.0749 -0.261,0.11227 -0.0834,0.0374 -0.13804,0.0618 -0.16473,0.0725 -0.11282,0.0374 -0.23724,0.0497 -0.37381,0.0361 -0.13657,-0.0131 -0.2783,-0.0497 -0.42278,-0.1086 -0.0963,-0.0425 -0.2078,-0.0856 -0.33351,-0.12884 -0.12589,-0.0431 -0.20209,-0.0639 -0.22933,-0.0639 -0.0158,0 -0.0381,0.004 -0.0683,0.0121 -0.0296,0.008 -0.0605,0.0173 -0.092,0.0281 -0.0482,0.0215 -0.095,0.0344 -0.14098,0.0401 -0.046,0.006 -0.12516,0.008 -0.23725,0.008 -0.11798,0 -0.19565,-0.002 -0.23302,-0.008 -0.0374,-0.006 -0.0777,-0.0166 -0.12074,-0.0322 -0.0539,-0.0324 -0.11006,-0.0727 -0.16896,-0.12093 -0.0589,-0.048 -0.10712,-0.0963 -0.14448,-0.14448 -0.0381,-0.0589 -0.0525,-0.0898 -0.0446,-0.0928 0.008,-0.003 0.0416,0.0203 0.10068,0.0683 0.0906,0.0755 0.16234,0.12093 0.21351,0.13657 0.0502,0.0166 0.14006,0.0245 0.2689,0.0245 0.11283,0 0.19842,-0.003 0.25731,-0.008 0.0589,-0.006 0.0885,-0.0136 0.0885,-0.0243 0,-0.005 -0.0123,-0.0188 -0.0361,-0.0403 -0.0245,-0.0208 -0.0554,-0.0425 -0.0928,-0.0641 -0.0374,-0.0324 -0.0718,-0.0641 -0.10417,-0.0963 -0.0324,-0.0324 -0.0569,-0.0618 -0.0727,-0.0885 -0.0158,-0.0265 -0.0359,-0.0554 -0.0604,-0.0849 -0.0238,-0.0295 -0.0438,-0.0547 -0.0604,-0.0762 l -0.064,-0.0639 -0.16087,0.0156 c -0.0915,0.005 -0.14596,0.004 -0.16473,-0.004 -0.0188,-0.008 -10e-4,-0.0252 0.0524,-0.0517 0.0158,-0.0109 0.0316,-0.0215 0.0482,-0.0324 0.0158,-0.0109 0.0265,-0.0215 0.0324,-0.0324 0.0107,-0.0107 0.0208,-0.0173 0.0316,-0.0201 0.0107,-0.003 0.0265,0 0.0488,0.004 0.0208,0.005 0.0453,0 0.072,-0.0158 0.0265,-0.0164 0.0401,-0.0322 0.0401,-0.0488 0.005,-0.0532 0.0153,-0.12092 0.0282,-0.20062 0.0129,-0.0806 0.028,-0.1316 0.0445,-0.15313 0.0101,-0.0267 0.0158,-0.0438 0.0158,-0.0525 0,-0.008 -0.0109,-0.0223 -0.0324,-0.044 -0.0107,-0.0107 -0.0403,-0.0322 -0.0883,-0.0646 -0.0482,-0.0324 -0.0992,-0.0641 -0.15313,-0.0965 -0.12811,-0.0747 -0.21719,-0.13657 -0.26541,-0.18461 -0.0475,-0.0482 -0.0718,-0.0915 -0.0718,-0.12884 0,-0.0265 0.002,-0.0431 0.008,-0.048 0.006,-0.006 0.0164,-0.003 0.0316,0.008 0.0431,0.0107 0.11706,0.0438 0.22142,0.1005 0.10491,0.0561 0.19694,0.10859 0.27738,0.15681 0.0425,0.0267 0.0836,0.0497 0.12092,0.0683 0.0374,0.0195 0.0618,0.028 0.0725,0.028 0.0101,0 0.0316,-0.008 0.064,-0.028 0.0316,-0.0186 0.0668,-0.0388 0.10491,-0.0604 0.0747,-0.0582 0.16473,-0.1086 0.26891,-0.1489 0.10491,-0.0401 0.19197,-0.0604 0.26099,-0.0604 0.0324,0 0.0589,0.002 0.0806,0.004 0.0215,0.003 0.0322,0.006 0.0322,0.0121 0,0.005 -0.0144,0.0158 -0.0438,0.0324 -0.0295,0.0158 -0.0653,0.0316 -0.1086,0.0475 -0.13951,0.0547 -0.24718,0.10491 -0.3221,0.15314 -0.0747,0.048 -0.11209,0.0913 -0.11209,0.12865 0,0.0272 0.028,0.0532 0.0841,0.0804 0.0561,0.0267 0.10859,0.0403 0.15736,0.0403 0.0316,0.005 0.0677,0 0.1086,-0.0166 0.0396,-0.0151 0.10289,-0.0453 0.18847,-0.0883 0.24075,-0.12295 0.43566,-0.20063 0.58309,-0.23302 0.14725,-0.0316 0.32854,-0.0351 0.54278,-0.008 0.1178,0.0158 0.2113,0.0339 0.28106,0.0525 0.0697,0.018 0.17412,0.0576 0.31418,0.11651 0.0316,0.0158 0.0596,0.021 0.0841,0.0158 0.0237,-0.005 0.0849,-0.0265 0.18129,-0.0639 0.048,-0.0217 0.10712,-0.0468 0.17614,-0.0764 0.0703,-0.0294 0.12645,-0.0502 0.16897,-0.0604 0.0374,-0.0164 0.0725,-0.0322 0.10491,-0.0488 0.0324,-0.0158 0.051,-0.0267 0.0561,-0.0317 0.006,-0.0215 -0.0433,-0.17835 -0.14467,-0.471 -0.10197,-0.29192 -0.16602,-0.45941 -0.19326,-0.50248 -0.0158,-0.0208 -0.041,-0.0532 -0.0762,-0.0965 -0.0346,-0.0423 -0.0683,-0.0804 -0.10068,-0.11208 -0.0856,-0.0856 -0.16326,-0.14302 -0.23302,-0.1732 -0.0697,-0.0296 -0.17393,-0.044 -0.31344,-0.044 l -0.19271,-0.008 -0.2251,0.12093 c -0.12939,0.0582 -0.21921,0.11356 -0.26946,0.16455 -0.0512,0.051 -0.0957,0.12147 -0.13307,0.21277 l -0.0324,0.0885 0.0648,0.12074 c 0.0374,0.0747 0.0856,0.14025 0.14449,0.19694 0.0589,0.0561 0.11282,0.0871 0.16105,0.0928 0.0216,0.005 0.0453,0.006 0.072,0.004 0.0272,-0.003 0.051,-0.007 0.0725,-0.0123 0.0431,-0.01 0.0806,-0.0171 0.11283,-0.0201 0.0324,-0.002 0.0482,0.004 0.0482,0.0201 0,0.0158 -0.0309,0.0403 -0.0928,0.0727 -0.0618,0.0324 -0.11062,0.051 -0.14817,0.0561 -0.0646,0.005 -0.12221,-0.002 -0.1732,-0.0203 -0.051,-0.0186 -0.10565,-0.0547 -0.16454,-0.10859 -0.0324,-0.0265 -0.0591,-0.0495 -0.0806,-0.0683 -0.0215,-0.0186 -0.0344,-0.028 -0.0403,-0.028 v 0.12865 c 0.0109,0.0747 0.009,0.11357 -0.004,0.11651 -0.0129,0.003 -0.0388,-0.0309 -0.0762,-0.10068 -0.0215,-0.0431 -0.0346,-0.0804 -0.0403,-0.11283 -0.005,-0.0316 -0.009,-0.0906 -0.009,-0.17614 0.006,-0.11283 0.018,-0.19768 0.0366,-0.25381 0.0188,-0.0561 0.0633,-0.1294 0.13307,-0.22069 0.0532,-0.0698 0.12074,-0.14099 0.20136,-0.21351 0.0797,-0.072 0.16252,-0.13234 0.24866,-0.18056 0.0591,-0.0374 0.10435,-0.0596 0.13675,-0.0646 0.0315,-0.005 0.1178,-0.0101 0.25731,-0.0158 h 0.27314 l 0.14522,0.0804 c 0.13381,0.0806 0.2424,0.16896 0.32578,0.26523 0.0826,0.0964 0.15092,0.21222 0.20485,0.34584 0.0374,0.0913 0.0977,0.22216 0.1813,0.39407 0.0826,0.17117 0.14301,0.28695 0.18037,0.34511 l 0.0648,0.097 0.13657,-0.0166 c 0.0374,0 0.0826,-0.005 0.13657,-0.0156 0.0539,-0.0109 0.0963,-0.0188 0.12866,-0.0237 0.0374,-0.0109 0.0885,-0.021 0.15239,-0.0282 0.0648,-0.009 0.1259,-0.0151 0.1848,-0.0208 0.11871,-0.0109 0.19839,-0.0252 0.24164,-0.0438 0.0431,-0.0188 0.10989,-0.0734 0.20063,-0.16474 0.10784,-0.10785 0.18535,-0.22142 0.23357,-0.34216 0.0482,-0.12074 0.072,-0.26394 0.072,-0.42996 -0.005,-0.12866 -0.0187,-0.22786 -0.0403,-0.29762 -0.0208,-0.069 -0.0661,-0.13657 -0.13582,-0.20062 -0.0913,-0.0913 -0.19198,-0.15167 -0.30204,-0.1813 -0.11005,-0.0295 -0.20999,-0.0201 -0.30128,0.0281 -0.13933,0.0698 -0.2343,0.15958 -0.28529,0.26964 -0.0512,0.10989 -0.0497,0.22363 0.004,0.34143 0.0324,0.0856 0.0871,0.15829 0.16473,0.21719 0.0782,0.0589 0.13583,0.0725 0.1732,0.0403 0.0216,-0.0166 0.0374,-0.0188 0.0482,-0.008 0.0107,0.0107 0.0107,0.0265 0,0.048 -0.0109,0.0267 -0.0361,0.0497 -0.0762,0.0683 -0.0403,0.0188 -0.0769,0.0282 -0.10859,0.0282 -0.11798,0 -0.21995,-0.0964 -0.30553,-0.28915 -0.0856,-0.19326 -0.0992,-0.35947 -0.0403,-0.4988 0.0423,-0.0915 0.0935,-0.16179 0.15313,-0.21295 0.0582,-0.051 0.1524,-0.10345 0.28106,-0.15664 m -3.68242,0.26523 c 0,-0.0166 0.0171,-0.0215 0.0525,-0.0166 0.0344,0.006 0.0705,0.0188 0.10859,0.0403 0.0423,0.0272 0.0812,0.0784 0.11559,0.15314 0.0353,0.0747 0.0605,0.1581 0.0769,0.24958 0.0267,0.19768 0.007,0.3694 -0.0604,0.51407 -0.0668,0.14522 -0.17541,0.25235 -0.3256,0.3221 -0.0698,0.0265 -0.16896,0.051 -0.29762,0.0718 -0.12884,0.0216 -0.25179,0.0324 -0.37032,0.0324 -0.35873,-0.005 -0.56505,-0.0109 -0.61843,-0.0158 -0.0539,-0.006 -0.0755,-0.0166 -0.0646,-0.0324 0.005,-0.0107 0.0201,-0.0237 0.0445,-0.0403 0.0237,-0.0156 0.0517,-0.0322 0.0841,-0.048 0.0482,-0.0215 0.0856,-0.0339 0.11209,-0.0368 0.0274,-0.002 0.0863,0.002 0.17688,0.0131 0.0539,0.0101 0.12663,0.0173 0.21792,0.0193 0.0906,0.003 0.17688,0.002 0.25732,-0.004 0.16546,-0.005 0.2827,-0.0188 0.34952,-0.0396 0.0668,-0.0215 0.14301,-0.0727 0.22859,-0.15314 0.0589,-0.0582 0.10492,-0.12147 0.13731,-0.18902 0.0324,-0.067 0.0512,-0.13805 0.0561,-0.21296 0,-0.048 -0.004,-0.0869 -0.0116,-0.11632 -0.008,-0.0296 -0.0287,-0.0734 -0.0611,-0.13308 -0.0215,-0.0374 -0.0453,-0.0799 -0.0718,-0.12865 -0.0267,-0.0482 -0.049,-0.0885 -0.0648,-0.12019 -0.0215,-0.0322 -0.0381,-0.0604 -0.0525,-0.0841 -0.0129,-0.025 -0.0193,-0.0396 -0.0193,-0.0445"
       style="fill:#21201d;fill-opacity:1;fill-rule:nonzero;stroke:none;stroke-width:0.184057"
       id="path586" />
  </g>
</svg>
