<?xml version="1.0" encoding="UTF-8" standalone="no"?>
<!-- Created with Inkscape (http://www.inkscape.org/) -->

<svg
   width="6.627368mm"
   height="6.551477mm"
   viewBox="0 0 6.627368 6.551477"
   version="1.1"
   id="svg1742"
   inkscape:version="1.1.2 (0a00cf5339, 2022-02-04)"
   sodipodi:docname="spreading_corruption.svg"
   xmlns:inkscape="http://www.inkscape.org/namespaces/inkscape"
   xmlns:sodipodi="http://sodipodi.sourceforge.net/DTD/sodipodi-0.dtd"
   xmlns="http://www.w3.org/2000/svg"
   xmlns:svg="http://www.w3.org/2000/svg">
  <sodipodi:namedview
     id="namedview1744"
     pagecolor="#ffffff"
     bordercolor="#666666"
     borderopacity="1.0"
     inkscape:pageshadow="2"
     inkscape:pageopacity="0.0"
     inkscape:pagecheckerboard="0"
     inkscape:document-units="mm"
     showgrid="false"
     inkscape:zoom="0.64052329"
     inkscape:cx="-588.58125"
     inkscape:cy="495.68846"
     inkscape:window-width="2560"
     inkscape:window-height="1376"
     inkscape:window-x="0"
     inkscape:window-y="0"
     inkscape:window-maximized="1"
     inkscape:current-layer="layer1" />
  <defs
     id="defs1739" />
  <g
     inkscape:label="Layer 1"
     inkscape:groupmode="layer"
     id="layer1"
     transform="translate(-260.63887,-17.377875)">
    <path
       d="m 264.89903,17.49229 c 0.0151,-0.005 0.0396,-0.0086 0.0727,-0.01141 0.033,-0.0022 0.0646,-0.0037 0.0955,-0.0037 0.051,0 0.0856,0.0015 0.10362,0.0037 0.0171,0.0028 0.0416,0.01657 0.0725,0.04233 0.0151,0.01012 0.0295,0.02025 0.0418,0.03019 0.0129,0.01012 0.0223,0.01583 0.0272,0.01583 0.0101,0 0.023,0.02153 0.0381,0.06479 0.0151,0.04381 0.023,0.07546 0.023,0.09553 0,0.01012 0.005,0.03166 0.0151,0.06479 0.0101,0.03368 0.0202,0.06829 0.0309,0.10344 0.0202,0.04601 0.0346,0.09 0.0418,0.130865 0.008,0.04031 0.0136,0.08632 0.0193,0.137308 0.005,0.06626 0.005,0.110802 0,0.13381 -0.006,0.02301 -0.023,0.05963 -0.0539,0.110619 -0.0151,0.03608 -0.028,0.067 -0.0381,0.09203 -0.0101,0.02595 -0.0151,0.04104 -0.0151,0.04601 0,0.02098 -0.0245,0.05264 -0.0725,0.09571 -0.049,0.04307 -0.10142,0.07767 -0.15682,0.103441 -0.0309,0.01528 -0.0604,0.03166 -0.0883,0.04969 -0.0282,0.01804 -0.0447,0.02945 -0.0497,0.0346 -0.0101,0.02006 -0.0193,0.02798 -0.0272,0.02301 -0.007,-0.0059 -0.0116,-0.02301 -0.0116,-0.05393 0,-0.02522 0.008,-0.05687 0.023,-0.09571 0.0158,-0.0381 0.0287,-0.05743 0.0388,-0.05743 0.046,-0.04105 0.0812,-0.07344 0.10712,-0.09939 0.1121,-0.112092 0.18112,-0.207065 0.20633,-0.283265 0.026,-0.0762 0.0208,-0.173199 -0.0151,-0.290444 -0.0359,-0.09203 -0.0661,-0.159578 -0.092,-0.203384 -0.0258,-0.04325 -0.0661,-0.08264 -0.12221,-0.118717 -0.046,-0.03019 -0.0804,-0.04804 -0.10344,-0.05319 -0.023,-0.005 -0.0756,-0.0099 -0.15682,-0.01583 l -0.16105,-0.0072 0.069,-0.0381 c 0.0208,-0.005 0.0438,-0.01288 0.069,-0.02301 0.026,-0.01012 0.049,-0.01785 0.069,-0.02301 m -0.90298,3.076528 c 0.0251,0 0.048,-7.41e-4 0.0683,-0.0035 0.0208,-0.0029 0.0359,-0.0037 0.046,-0.0037 0.005,-0.005 0.0193,0.0029 0.0423,0.02301 0.0223,0.02006 0.0475,0.04602 0.0727,0.0762 l 0.0841,0.09994 -0.046,0.04601 c -0.0151,0.0094 -0.0267,0.02153 -0.0346,0.0346 -0.007,0.01215 -0.0114,0.02356 -0.0114,0.03368 0,0.005 -0.004,0.01288 -0.0109,0.02301 -0.009,0.01012 -0.0165,0.0208 -0.0272,0.03092 -0.0101,0.01012 -0.0252,0.01657 -0.046,0.01877 -0.0202,0.0028 -0.0561,0.0042 -0.10712,0.0042 -0.0561,0 -0.092,-0.0015 -0.10712,-0.0042 -0.0151,-0.0022 -0.0309,-0.0138 -0.046,-0.0346 -0.0202,-0.02522 -0.0309,-0.05172 -0.0309,-0.08043 0,-0.02816 0.0107,-0.07491 0.0309,-0.140988 l 0.0381,-0.115036 z m 0.69592,-0.826052 c 0.10786,-0.01086 0.21203,-0.01307 0.31419,-0.0079 0.10215,0.005 0.17319,0.01785 0.21423,0.0381 0.0354,0.01583 0.10418,0.06681 0.20633,0.153136 0.10215,0.08706 0.19713,0.173935 0.28327,0.260258 0.0762,0.0762 0.12147,0.138043 0.1338,0.184058 0.0129,0.04528 0.0193,0.173198 0.0193,0.382472 v 0.359465 l -0.069,0.138044 c -0.0151,0.04105 -0.033,0.07915 -0.0539,0.1143 -0.0201,0.03608 -0.0322,0.05908 -0.0374,0.06976 -0.0107,0.01012 -0.0193,0.02301 -0.0272,0.03736 -0.007,0.01583 -0.0116,0.03092 -0.0116,0.04602 -0.005,0.01583 -0.0114,0.02595 -0.0186,0.03092 -0.008,0.0052 -0.0166,0.0079 -0.0274,0.0079 -0.01,0 -0.0201,7.4e-4 -0.0302,0.0037 -0.01,0.002 -0.0179,0.0064 -0.023,0.01141 -0.005,0.0052 -0.0245,0.01013 -0.0574,0.01509 -0.0331,0.0052 -0.0648,0.0079 -0.0957,0.0079 -0.0151,-0.005 -0.0215,-0.0094 -0.0186,-0.01141 0.002,-0.0029 0.0114,-0.01436 0.0265,-0.0346 0.0101,-0.0099 0.0202,-0.01932 0.0302,-0.0265 0.0109,-0.0079 0.018,-0.0116 0.023,-0.0116 0.005,0 0.0151,-0.0064 0.0309,-0.01932 0.0151,-0.01233 0.0309,-0.02669 0.046,-0.04252 0.0814,-0.08117 0.13381,-0.163075 0.15682,-0.244429 0.0223,-0.0819 0.0337,-0.214243 0.0337,-0.397565 0,-0.08706 -0.002,-0.157369 -0.007,-0.210746 -0.005,-0.05393 -0.01,-0.09129 -0.0158,-0.111355 -0.009,-0.03515 -0.0453,-0.09129 -0.10638,-0.168229 -0.0611,-0.07694 -0.10712,-0.125159 -0.13804,-0.145222 -0.0151,-0.01086 -0.0344,-0.02301 -0.0574,-0.0381 -0.0223,-0.01583 -0.0447,-0.03313 -0.0648,-0.05393 -0.0208,-0.01509 -0.0524,-0.03589 -0.0955,-0.06111 -0.044,-0.02595 -0.0828,-0.04822 -0.11872,-0.06902 -0.072,-0.03589 -0.12147,-0.05687 -0.14945,-0.06552 -0.0282,-0.0072 -0.0856,-0.01068 -0.17265,-0.01068 -0.10141,-0.0057 -0.20927,0 -0.32062,0.01509 -0.11283,0.01583 -0.19915,0.03589 -0.26026,0.06111 -0.0203,0.01012 -0.0445,0.02522 -0.0727,0.04601 -0.0287,0.02006 -0.0503,0.04086 -0.0653,0.06111 -0.046,0.04602 -0.10565,0.118534 -0.17982,0.217741 -0.074,0.09994 -0.11062,0.154608 -0.11062,0.164732 0,0.0057 -0.003,0.01288 -0.008,0.02301 -0.005,0.01086 -0.0151,0.02006 -0.0309,0.03092 -0.0101,0.01012 -0.0202,0.02374 -0.0302,0.04178 -0.0101,0.01859 -0.018,0.03442 -0.023,0.05025 -0.0109,0.03019 -0.026,0.05172 -0.046,0.06479 -0.021,0.01288 -0.0331,0.0092 -0.0381,-0.01159 -0.006,-0.005 -0.008,-0.01877 -0.008,-0.04178 v -0.08043 c 0.005,-0.06111 0.0295,-0.13381 0.0733,-0.21866 0.0433,-0.08338 0.0898,-0.148719 0.14098,-0.194734 0.046,-0.04105 0.10418,-0.08559 0.17614,-0.13381 0.0711,-0.04877 0.13013,-0.08264 0.17541,-0.103441 0.0569,-0.0208 0.13805,-0.04454 0.2459,-0.0727 0.10712,-0.02798 0.19344,-0.04454 0.25952,-0.04951 M 262.932,18.081825 c 0.0663,-0.01067 0.12369,-0.01436 0.17191,-0.01141 0.049,0.0022 0.0906,0.01141 0.12663,0.0265 0.0158,0.01012 0.0344,0.01951 0.0574,0.02669 0.023,0.0079 0.0425,0.01141 0.0576,0.01141 0.0409,0.01012 0.0861,0.02301 0.13805,0.03884 0.0502,0.01509 0.1143,0.03534 0.19123,0.06111 0.0453,0.02025 0.079,0.03608 0.0992,0.04601 0.0201,0.0094 0.0309,0.02025 0.0309,0.03019 0,0.01012 0.005,0.02172 0.0151,0.0346 0.01,0.01288 0.0201,0.02153 0.0309,0.02724 0.01,0.0044 0.0223,0.01878 0.0374,0.04178 0.0158,0.02301 0.0287,0.04675 0.0388,0.07252 0.01,0.02595 0.023,0.04969 0.0381,0.0727 0.0151,0.02301 0.0258,0.03957 0.0309,0.04951 0.01,0.01012 0.0179,0.02319 0.0223,0.03828 0.006,0.01565 0.008,0.02577 0.008,0.03092 0,0.01068 0.003,0.02227 0.008,0.03442 0.005,0.01288 0.01,0.02448 0.0151,0.03442 0.0151,0.02522 0.028,0.0727 0.0381,0.141725 0.0107,0.06829 0.0158,0.151664 0.0158,0.248846 0,0.0762 -0.004,0.143749 -0.0116,0.202648 -0.008,0.05835 -0.0245,0.13381 -0.0503,0.225839 -0.0101,0.03515 -0.0611,0.105649 -0.15313,0.210562 -0.0913,0.104361 -0.17541,0.187003 -0.25234,0.248846 -0.0504,0.04528 -0.10436,0.102705 -0.16032,0.171726 -0.0561,0.06902 -0.095,0.128841 -0.11503,0.179825 -0.026,0.05614 -0.0289,0.13878 -0.0116,0.248847 0.018,0.109146 0.0475,0.200438 0.0878,0.271669 0.0309,0.05172 0.0589,0.08853 0.0849,0.111539 0.025,0.02227 0.0732,0.04951 0.14522,0.0797 0.0559,0.02595 0.097,0.04105 0.12221,0.04602 0.0258,0.005 0.0762,0.005 0.15313,0 0.0718,0 0.12148,-0.0028 0.14946,-0.0072 0.0281,-0.0057 0.0598,-0.01583 0.095,-0.03092 0.0265,-0.01068 0.0525,-0.02006 0.0812,-0.03092 0.0274,-0.01013 0.0519,-0.01509 0.0727,-0.01509 l 0.0611,-0.01509 -0.069,0.0762 c -0.046,0.04601 -0.0957,0.08062 -0.1489,0.103625 -0.0539,0.02301 -0.12148,0.03663 -0.20339,0.0416 -0.0504,0 -0.0928,-7.41e-4 -0.12663,-0.0035 -0.0322,-0.0022 -0.0668,-0.0087 -0.1027,-0.01951 -0.11227,-0.03019 -0.21148,-0.07896 -0.29835,-0.145222 -0.0871,-0.06608 -0.15314,-0.143013 -0.19915,-0.229336 -0.0252,-0.04602 -0.0396,-0.08191 -0.0418,-0.107122 -0.003,-0.02595 -0.004,-0.09203 -0.004,-0.199151 0,-0.148166 0.009,-0.250871 0.0272,-0.309953 0.018,-0.0589 0.0626,-0.120742 0.13381,-0.187555 0.0302,-0.02522 0.0611,-0.05319 0.0913,-0.08412 0.0309,-0.03092 0.0517,-0.05098 0.0618,-0.06111 0.0661,-0.05614 0.1027,-0.12019 0.11062,-0.191236 0.008,-0.07197 -0.0166,-0.133074 -0.0725,-0.184058 -0.026,-0.02522 -0.0482,-0.04325 -0.069,-0.05319 -0.0202,-0.01012 -0.0482,-0.01804 -0.0841,-0.02301 -0.0561,-0.01012 -0.0979,-0.01307 -0.12664,-0.0079 -0.0272,0.005 -0.0596,0.02301 -0.0955,0.05393 -0.0302,0.02006 -0.046,0.0265 -0.046,0.01859 0,-0.0072 0.0107,-0.03166 0.0309,-0.07252 0.025,-0.04601 0.0589,-0.0762 0.0992,-0.09203 0.0409,-0.01509 0.10197,-0.02301 0.18406,-0.02301 0.071,0 0.12718,0.0057 0.16822,0.01583 0.0409,0.0099 0.0661,0.02503 0.0762,0.04602 0.005,0.0099 0.0129,0.01859 0.023,0.0265 0.0107,0.0079 0.0208,0.01436 0.0309,0.01951 0.0151,0.005 0.025,0.01215 0.0309,0.02301 0.005,0.0099 0.007,0.02503 0.007,0.04528 0,0.03092 0.006,0.06387 0.0193,0.09994 0.0131,0.03516 0.0245,0.05319 0.0339,0.05319 0.0107,0 0.023,-0.02025 0.0388,-0.06111 0.0151,-0.04031 0.0302,-0.09424 0.046,-0.160315 0.0251,-0.128104 0.028,-0.253815 0.007,-0.378975 -0.0202,-0.125895 -0.0611,-0.236515 -0.12222,-0.332961 -0.0403,-0.06166 -0.10067,-0.132889 -0.17982,-0.214243 -0.079,-0.08191 -0.13878,-0.13289 -0.17964,-0.153873 -0.0158,-0.005 -0.0346,-0.01362 -0.0576,-0.02577 -0.023,-0.01288 -0.0445,-0.02448 -0.0646,-0.0346 -0.0158,-0.01067 -0.0324,-0.01859 -0.0504,-0.02301 -0.0173,-0.005 -0.0317,-0.0079 -0.0423,-0.0079 -0.004,0 -0.0144,-0.002 -0.0302,-0.0079 -0.0151,-0.005 -0.0281,-0.0099 -0.0381,-0.01509 -0.0361,-0.02006 -0.0893,-0.03148 -0.16105,-0.03442 -0.0712,-0.0029 -0.12736,0.0015 -0.1684,0.01141 -0.0201,0.01012 -0.0409,0.0173 -0.0611,0.02301 -0.0201,0.0052 -0.0359,0.0079 -0.046,0.0079 -0.025,0 -0.0661,0.01804 -0.12221,0.05319 -0.0567,0.03608 -0.10196,0.0762 -0.13804,0.122214 -0.0302,0.03092 -0.051,0.05043 -0.0611,0.05761 -0.01,0.0072 -0.0201,0.0064 -0.0302,-0.0037 -0.0158,-0.02577 -0.01,-0.06755 0.0151,-0.125711 0.0252,-0.05964 0.0611,-0.11154 0.10712,-0.157554 0.0203,-0.02577 0.0411,-0.04086 0.0611,-0.04601 0.0203,-0.005 0.0561,-0.0099 0.10712,-0.01509 0.0361,-0.005 0.069,-0.0099 0.0994,-0.01509 0.0307,-0.0057 0.0488,-0.01067 0.0537,-0.01583 0.0101,-0.005 0.0252,-0.0099 0.046,-0.01509 0.0202,-0.005 0.041,-0.0099 0.0611,-0.01509 m 3.71996,2.671049 c 0.0101,-0.01012 0.0217,0.0079 0.0346,0.05393 0.0121,0.04601 0.026,0.106385 0.0418,0.183321 0.01,0.06111 0.0151,0.107122 0.0151,0.138044 0,0.03019 -0.005,0.07841 -0.0151,0.145221 -0.0101,0.07123 -0.0274,0.143013 -0.0504,0.214244 -0.023,0.07123 -0.0569,0.168229 -0.10289,0.291179 -0.01,0.03534 -0.023,0.07344 -0.0381,0.1143 -0.0158,0.04105 -0.028,0.07123 -0.0381,0.09203 -0.005,0.02025 -0.0114,0.0381 -0.0193,0.05319 -0.007,0.01583 -0.0144,0.02595 -0.0188,0.03092 0,0.0052 -0.002,0.01233 -0.004,0.02301 -0.003,0.01012 -0.004,0.02227 -0.004,0.0381 0,0.01086 -10e-4,0.02172 -0.004,0.0346 -0.003,0.01288 -0.007,0.02153 -0.0116,0.0265 -0.005,0.0052 -0.0114,0.02025 -0.0193,0.04601 -0.008,0.02595 -0.0173,0.05319 -0.0267,0.08411 -0.0258,0.08706 -0.0725,0.163996 -0.14155,0.230073 -0.069,0.06626 -0.15755,0.119453 -0.26467,0.160498 -0.025,0.0099 -0.0495,0.02153 -0.0725,0.03442 -0.023,0.01288 -0.0396,0.02448 -0.0497,0.0346 -0.0258,0.02503 -0.0574,0.04454 -0.0955,0.05743 -0.0388,0.01215 -0.0878,0.02374 -0.14963,0.0346 -0.0302,0.005 -0.074,0.01215 -0.13013,0.02227 -0.0559,0.01067 -0.10639,0.0208 -0.1524,0.03092 -0.046,0.0099 -0.0999,0.0208 -0.16105,0.03092 -0.0611,0.0099 -0.11007,0.01785 -0.14522,0.02301 -0.0661,0.0099 -0.13436,0.02724 -0.20338,0.05319 -0.0685,0.02503 -0.1108,0.04804 -0.1259,0.06902 -0.005,0.005 -0.0129,0.0099 -0.023,0.01509 -0.0101,0.005 -0.018,0.0079 -0.0223,0.0079 -0.0109,0 -0.023,0.0035 -0.0388,0.01141 -0.0151,0.0079 -0.028,0.01657 -0.0381,0.02669 -0.0208,0.02006 -0.0346,0.04086 -0.0425,0.06111 -0.007,0.0208 -0.0136,0.05099 -0.0186,0.09203 0,0.04602 7.1e-4,0.07896 0.004,0.09921 0.003,0.0208 0.009,0.04601 0.0195,0.07694 0.0302,0.06111 0.0784,0.108594 0.14522,0.14154 0.0661,0.03313 0.15534,0.05466 0.26743,0.06479 0.0668,0.0057 0.13455,0.0015 0.20283,-0.0116 0.069,-0.01288 0.12148,-0.02871 0.15737,-0.04951 0.0151,-0.0052 0.0287,-0.01804 0.0418,-0.0381 0.0129,-0.02025 0.0243,-0.05172 0.0344,-0.09203 0.0158,-0.04601 0.0245,-0.08062 0.0267,-0.103624 0.003,-0.02301 -7e-4,-0.05467 -0.0109,-0.09479 -0.006,-0.04602 -0.009,-0.09129 -0.0114,-0.134547 -0.003,-0.04307 -0.001,-0.0646 0.004,-0.0646 0.0353,0 0.069,0.03166 0.0992,0.09553 0.0309,0.06332 0.046,0.13381 0.046,0.21001 0,0.08191 -0.006,0.147983 -0.0186,0.199151 -0.0138,0.05098 -0.0353,0.09424 -0.0655,0.130129 -0.041,0.04601 -0.0841,0.07915 -0.13013,0.09921 -0.046,0.0208 -0.11209,0.03589 -0.19915,0.04602 l -0.15313,0.01583 -0.19124,-0.07694 c -0.051,-0.02024 -0.0977,-0.03957 -0.14098,-0.05761 -0.0438,-0.01785 -0.0711,-0.0265 -0.0812,-0.0265 -0.005,0 -0.018,-0.0022 -0.0381,-0.0079 -0.0201,-0.01509 -0.051,-0.05761 -0.0913,-0.125896 -0.041,-0.06902 -0.0618,-0.113564 -0.0618,-0.133626 0,-0.0059 -0.004,-0.01583 -0.0116,-0.03092 -0.007,-0.01509 -0.0164,-0.03313 -0.0265,-0.05393 -0.0202,-0.02522 -0.0309,-0.04178 -0.0309,-0.0497 0,-0.0079 0.005,-0.01932 0.0158,-0.03368 0.0151,-0.01583 0.023,-0.03736 0.023,-0.06552 0,-0.02798 -0.005,-0.04454 -0.0158,-0.04951 -0.005,-0.0052 -0.0124,-0.0052 -0.023,0 -0.009,0.005 -0.023,0.01215 -0.0381,0.02301 -0.0101,0.005 -0.0252,0.01215 -0.046,0.02301 -0.0201,0.0099 -0.0381,0.02006 -0.0532,0.03019 -0.0151,0.005 -0.0361,0.01583 -0.0611,0.03092 -0.026,0.01509 -0.046,0.03092 -0.0618,0.04528 -0.0203,0.01583 -0.0403,0.03092 -0.0611,0.04601 -0.0202,0.01583 -0.0381,0.02301 -0.0532,0.02301 -0.0158,0.005 -0.0295,0.01436 -0.0425,0.02724 -0.0121,0.01233 -0.0215,0.02375 -0.0265,0.0346 -0.0158,0.02006 -0.0525,0.05595 -0.1108,0.107121 -0.0589,0.05098 -0.11651,0.097 -0.17246,0.137308 -0.0663,0.04086 -0.17117,0.08559 -0.31419,0.133626 -0.14245,0.04896 -0.24737,0.07344 -0.31344,0.07344 -0.14246,0 -0.25382,-0.01878 -0.33296,-0.05393 -0.0791,-0.03534 -0.15958,-0.101416 -0.24093,-0.198415 -0.0251,-0.03166 -0.0423,-0.05761 -0.0503,-0.08062 -0.007,-0.02301 -0.0136,-0.06755 -0.0188,-0.134362 -0.005,-0.07123 -0.006,-0.117245 -0.004,-0.138044 0.003,-0.02025 0.0173,-0.05319 0.0423,-0.09921 0.0519,-0.102152 0.12018,-0.160315 0.20706,-0.175407 0.0871,-0.01583 0.17044,0.01509 0.25234,0.09129 0.041,0.04086 0.0705,0.07546 0.0885,0.103441 0.0173,0.02816 0.0215,0.0497 0.0114,0.06553 -0.006,0.0099 -0.0158,0.0099 -0.0309,0 -0.0151,-0.01086 -0.0409,-0.03387 -0.0769,-0.06902 l -0.0913,-0.08485 h -0.10712 c -0.046,0 -0.0782,0.0015 -0.0963,0.0042 -0.0173,0.0022 -0.0316,0.0086 -0.0418,0.01877 -0.0151,0.0208 -0.023,0.07546 -0.023,0.164548 0,0.08927 0.008,0.141725 0.023,0.156818 0.0101,0.01068 0.0188,0.02301 0.0267,0.03884 0.008,0.01509 0.0166,0.02798 0.0265,0.0381 0.021,0.04086 0.0504,0.07546 0.0885,0.102704 0.0381,0.0289 0.0826,0.04822 0.13362,0.05761 0.0611,0.01068 0.12369,0.01215 0.18774,0.0042 0.0633,-0.0079 0.14669,-0.02724 0.24884,-0.05743 0.0913,-0.02522 0.16823,-0.05761 0.22934,-0.09571 0.0611,-0.0381 0.13804,-0.09847 0.23007,-0.17964 0.0351,-0.03092 0.0683,-0.06037 0.0992,-0.0878 0.0309,-0.02871 0.048,-0.04749 0.0539,-0.05743 0.01,-0.0059 0.0287,-0.01583 0.0574,-0.03092 0.0274,-0.01509 0.0547,-0.03092 0.0799,-0.04601 0.0309,-0.01012 0.0705,-0.02945 0.11853,-0.05761 0.049,-0.02798 0.0935,-0.05246 0.13454,-0.07252 0.0409,-0.02595 0.0797,-0.04675 0.1178,-0.06479 0.0388,-0.01859 0.0655,-0.03018 0.0806,-0.03442 0.0151,0 0.0374,-0.0052 0.0653,-0.01583 0.0282,-0.01012 0.0547,-0.02301 0.0806,-0.0381 0.0403,-0.02025 0.0841,-0.03534 0.12939,-0.04601 0.046,-0.01013 0.12516,-0.02025 0.23725,-0.03019 0.092,-0.01583 0.17265,-0.02963 0.24167,-0.04252 0.069,-0.01288 0.13362,-0.02945 0.19473,-0.04951 0.046,-0.01583 0.0999,-0.03037 0.16105,-0.04601 0.0611,-0.01509 0.11227,-0.02816 0.15313,-0.0381 0.046,-0.01012 0.0893,-0.02172 0.1294,-0.0346 0.0418,-0.01288 0.072,-0.02448 0.092,-0.03442 0.0871,-0.05117 0.17909,-0.140252 0.27609,-0.268172 0.0964,-0.127368 0.16546,-0.247374 0.20632,-0.359649 0.0101,-0.02503 0.0202,-0.05246 0.0309,-0.08043 0.0101,-0.02798 0.018,-0.04454 0.023,-0.0497 0.0203,-0.03092 0.0497,-0.09774 0.0878,-0.202648 0.0388,-0.105097 0.0648,-0.181849 0.0804,-0.233753 v -0.02301 c 0.0101,-0.03515 0.0188,-0.06829 0.0267,-0.09921 0.008,-0.03092 0.0166,-0.05595 0.0265,-0.07694 0.0101,-0.03515 0.018,-0.07325 0.0232,-0.1143 0.005,-0.04105 0.008,-0.08908 0.008,-0.145222 v -0.118533 c 0,-0.03313 0.002,-0.05264 0.008,-0.05761 m -3.67394,-2.020404 c 0.026,-0.0057 0.0576,-0.01067 0.0957,-0.01565 0.0381,-0.0044 0.0755,-0.0079 0.1108,-0.0079 0.051,0 0.0876,0.0035 0.11135,0.0079 0.023,0.005 0.0517,0.01785 0.0878,0.03865 0.0359,0.01527 0.0611,0.0289 0.0762,0.04178 0.0158,0.01288 0.0287,0.0346 0.0388,0.06552 0.004,0.01509 0.009,0.03019 0.0114,0.04602 0.002,0.01509 0.001,0.02503 -0.004,0.03019 -0.0468,-0.02098 -0.0821,-0.04104 -0.10785,-0.06111 -0.0353,-0.02025 -0.0641,-0.0346 -0.0841,-0.04252 -0.0202,-0.0072 -0.0381,-0.01141 -0.0539,-0.01141 -0.009,0.005 -0.0252,0.01067 -0.0453,0.01565 -0.021,0.0052 -0.0381,0.0074 -0.0539,0.0074 -0.0202,0.005 -0.046,0.01288 -0.0762,0.02301 -0.0309,0.0099 -0.0591,0.01786 -0.0841,0.02301 -0.026,0.0099 -0.0504,0.01932 -0.0734,0.02724 -0.023,0.0072 -0.0366,0.01141 -0.0418,0.01141 -0.0302,0 -0.079,0.03884 -0.14522,0.117982 -0.0668,0.07914 -0.12001,0.159578 -0.16032,0.240931 -0.0359,0.08688 -0.0631,0.198415 -0.0812,0.332777 -0.0173,0.136019 -0.0188,0.274615 -0.004,0.417812 0.0101,0.107121 0.021,0.186266 0.0309,0.23725 0.0101,0.05098 0.0252,0.09424 0.046,0.130129 0.0101,0.01509 0.018,0.03019 0.023,0.04602 0.004,0.01509 0.007,0.02724 0.007,0.0381 0,0.02595 0.0274,0.08117 0.0806,0.168229 0.0532,0.08632 0.11356,0.171173 0.17982,0.252343 0.0359,0.04602 0.074,0.08853 0.11485,0.126632 0.0403,0.0381 0.0814,0.07546 0.1224,0.111355 0.0409,0.02522 0.074,0.04896 0.0999,0.07197 0.025,0.02374 0.0401,0.03442 0.046,0.03442 0,0.01583 -0.0361,0.02227 -0.10786,0.01951 -0.0712,-0.0029 -0.12019,-0.0116 -0.14522,-0.02669 -0.0309,-0.01583 -0.0769,-0.05098 -0.13749,-0.107122 -0.0618,-0.05669 -0.12001,-0.115036 -0.17614,-0.176143 -0.0409,-0.04105 -0.0769,-0.08835 -0.10712,-0.141541 -0.0309,-0.05338 -0.074,-0.13878 -0.13013,-0.256761 -0.0668,-0.137307 -0.10786,-0.225839 -0.12222,-0.263939 -0.0158,-0.0381 -0.023,-0.08761 -0.023,-0.148719 -0.006,-0.06184 -0.003,-0.141724 0.007,-0.240931 0.0101,-0.09994 0.021,-0.165285 0.0302,-0.19547 0.0109,-0.02595 0.0296,-0.09718 0.0583,-0.214243 0.0272,-0.117982 0.0416,-0.186267 0.0416,-0.206329 0,-0.01086 0.003,-0.02595 0.008,-0.04602 0.005,-0.02098 0.0124,-0.03884 0.023,-0.05393 0.0101,-0.02025 0.0188,-0.04601 0.0267,-0.0762 0.007,-0.03092 0.0136,-0.05908 0.0186,-0.08485 0.0109,-0.04602 0.021,-0.0762 0.0309,-0.09203 0.0101,-0.01454 0.0331,-0.03534 0.069,-0.06111 0.0512,-0.03019 0.11227,-0.06111 0.18332,-0.09148 0.072,-0.03074 0.13308,-0.05098 0.18406,-0.06111 m 1.40066,1.767325 c -0.026,-0.03515 -0.0316,-0.05319 -0.0195,-0.05319 0.0131,0 0.0425,0.01509 0.0885,0.04601 0.041,0.03019 0.0777,0.06976 0.11062,0.118718 0.0331,0.04804 0.0526,0.09553 0.0576,0.14154 0.005,0.03589 0,0.105649 -0.0151,0.210746 -0.0151,0.104177 -0.0339,0.179641 -0.0539,0.224919 -0.046,0.122951 -0.12222,0.233018 -0.22934,0.32928 -0.10786,0.09718 -0.22436,0.163996 -0.35228,0.199151 -0.10712,0.03092 -0.28694,0.05117 -0.54002,0.06184 -0.25234,0.0094 -0.44726,0.0022 -0.5853,-0.02301 l -0.16823,-0.02301 -0.20632,-0.21498 c -0.0668,-0.07105 -0.12295,-0.133626 -0.16823,-0.186819 -0.046,-0.05393 -0.0769,-0.0935 -0.092,-0.119453 -0.0258,-0.04602 -0.0445,-0.104177 -0.0574,-0.175408 -0.0131,-0.07197 -0.0116,-0.112827 0.004,-0.12295 0.0101,-0.01509 0.021,-0.01509 0.0309,0 0.0101,0.01583 0.023,0.04896 0.0381,0.09994 0.0202,0.0762 0.0475,0.140252 0.0799,0.191236 0.0337,0.05117 0.0732,0.09718 0.11926,0.138044 0.0561,0.04528 0.13234,0.09276 0.22934,0.140988 0.0972,0.04877 0.1662,0.07546 0.20706,0.08043 0.0151,0 0.0317,0.0029 0.049,0.0079 0.0188,0.0052 0.0324,0.01307 0.0425,0.02301 0.0409,0.02025 0.0955,0.03534 0.16454,0.04601 0.069,0.01013 0.16473,0.01509 0.28695,0.01509 0.0869,0 0.1581,-0.002 0.21424,-0.0079 0.056,-0.005 0.10491,-0.0099 0.14595,-0.01509 0.0352,-0.0099 0.0711,-0.01933 0.10639,-0.0265 0.0359,-0.0079 0.0618,-0.01436 0.0769,-0.01951 0.046,-0.0099 0.0955,-0.03295 0.14946,-0.06902 0.0532,-0.03515 0.11577,-0.08908 0.187,-0.160314 0.0819,-0.07694 0.13436,-0.134363 0.15737,-0.171726 0.023,-0.03884 0.0447,-0.09921 0.0648,-0.180561 0.0109,-0.06111 0.0166,-0.105649 0.0193,-0.133626 0.003,-0.02816 -0.001,-0.06479 -0.0114,-0.110803 -0.005,-0.04601 -0.0166,-0.08706 -0.0346,-0.122951 -0.0179,-0.03589 -0.0495,-0.08117 -0.0955,-0.138043 m 2.37249,-0.542787 c 0.0153,0 0.0331,-0.0015 0.0534,-0.0044 0.0208,-0.002 0.0381,-0.0035 0.0539,-0.0035 0.0409,0.005 0.0941,0.02301 0.16105,0.05393 0.0661,0.03018 0.10639,0.05816 0.12221,0.08411 0.0201,0.02522 0.0416,0.07325 0.0646,0.145222 0.023,0.07123 0.0374,0.140252 0.0425,0.206329 0.005,0.05172 0.006,0.08338 0.004,0.09571 -0.002,0.01288 -0.0114,0.02227 -0.0265,0.02724 -0.0101,0.005 -0.0281,0.01436 -0.0539,0.0265 -0.0252,0.01307 -0.0482,0.02669 -0.069,0.04252 -0.0762,0.04528 -0.11798,0.06332 -0.1259,0.05319 -0.008,-0.01013 0.0166,-0.05098 0.0727,-0.122215 0.0409,-0.04601 0.0639,-0.07694 0.069,-0.09203 0.005,-0.01509 0.005,-0.04105 0,-0.0762 -0.005,-0.05098 -0.0166,-0.101415 -0.0346,-0.149639 -0.018,-0.04877 -0.0396,-0.0854 -0.0646,-0.110618 -0.0158,-0.01583 -0.0324,-0.02448 -0.0504,-0.02743 -0.018,-0.002 -0.0547,-5.65e-4 -0.11062,0.0044 -0.0361,0.005 -0.0705,0.0094 -0.10362,0.01509 -0.0331,0.005 -0.0574,0.01012 -0.0725,0.01509 -0.0252,0.01583 -0.0591,0.04896 -0.0994,0.09921 -0.0409,0.05172 -0.074,0.09994 -0.0992,0.145958 -0.0208,0.04105 -0.0445,0.110067 -0.0733,0.206329 -0.028,0.097 -0.0467,0.181113 -0.0576,0.252344 -0.01,0.03092 -0.0186,0.06331 -0.0265,0.09645 -0.007,0.03295 -0.0136,0.05963 -0.0188,0.0797 -0.006,0.01583 -0.0107,0.0324 -0.0158,0.05043 -0.005,0.01785 -0.007,0.03147 -0.007,0.0416 0,0.02025 -0.0272,0.110066 -0.0804,0.268172 -0.0539,0.15829 -0.0856,0.249583 -0.0957,0.275351 -0.01,0.02025 -0.0475,0.06902 -0.11062,0.145222 -0.0641,0.07694 -0.10142,0.117981 -0.11154,0.12295 0,0.0052 -0.008,0.01804 -0.023,0.0381 -0.0151,0.02025 -0.033,0.04325 -0.0539,0.06902 -0.0201,0.02522 -0.0401,0.0497 -0.0604,0.07197 -0.0208,0.02301 -0.0409,0.04031 -0.0618,0.05025 -0.0151,0.0052 -0.0329,0.01509 -0.0532,0.03092 -0.0208,0.01509 -0.0388,0.03019 -0.0532,0.04528 -0.0158,0.01583 -0.0309,0.02743 -0.046,0.0346 -0.0158,0.0079 -0.026,0.01141 -0.0309,0.01141 -0.006,0 -0.0201,0.0052 -0.046,0.01509 -0.0258,0.01086 -0.051,0.02319 -0.0762,0.03884 -0.046,0.02522 -0.0819,0.04252 -0.10785,0.0497 -0.0252,0.0072 -0.0582,0.01141 -0.0992,0.01141 -0.0302,0 -0.0762,7.41e-4 -0.13804,0.0044 -0.0611,0.0022 -0.12222,0.0057 -0.18332,0.01086 -0.0561,0.005 -0.11007,0.0077 -0.16105,0.0077 h -0.0913 c -0.0208,-0.005 -0.0425,-0.01786 -0.0655,-0.03865 -0.023,-0.02025 -0.0394,-0.04031 -0.0495,-0.06111 -0.0101,-0.01528 -0.018,-0.02319 -0.023,-0.02319 -0.005,0 -0.0151,0.0079 -0.0302,0.02319 -0.006,0.01067 -0.0173,0.02724 -0.0346,0.05025 -0.0178,0.02227 -0.0352,0.04675 -0.0502,0.07252 -0.0353,0.07123 -0.10417,0.156817 -0.20632,0.256761 -0.10215,0.09921 -0.16823,0.148902 -0.19915,0.148902 -0.0151,0 -0.0353,0.005 -0.0611,0.01509 l -0.0762,0.03092 c -0.0309,0.01509 -0.0626,0.02798 -0.0964,0.0381 -0.033,0.0099 -0.0698,0.01785 -0.11062,0.02301 -0.0712,0.0099 -0.15461,0.0099 -0.24884,0 -0.0942,-0.01012 -0.16179,-0.02522 -0.20265,-0.04601 -0.0202,-0.01013 -0.0396,-0.01804 -0.0576,-0.02301 -0.018,-0.0052 -0.0295,-0.0072 -0.0344,-0.0072 -0.005,0 -0.0202,-0.0052 -0.046,-0.01583 -0.0252,-0.01012 -0.0532,-0.02301 -0.0836,-0.0381 -0.14301,-0.07694 -0.28326,-0.123687 -0.4213,-0.141725 -0.13804,-0.01804 -0.26026,-0.0064 -0.36738,0.0346 -0.0409,0.01583 -0.0769,0.03442 -0.10712,0.05743 -0.0309,0.02301 -0.069,0.05761 -0.11503,0.103625 -0.0351,0.03515 -0.0646,0.06608 -0.0876,0.09129 -0.023,0.02577 -0.0346,0.04086 -0.0346,0.04601 0,0.005 -0.004,0.01583 -0.0114,0.03092 -0.008,0.01509 -0.0165,0.03092 -0.0267,0.04602 -0.0201,0.02503 -0.0337,0.04804 -0.0381,0.06828 -0.005,0.0208 -0.008,0.05098 -0.008,0.09203 0,0.05595 0.005,0.09479 0.0151,0.115036 0.0109,0.02006 0.0482,0.07105 0.11503,0.153136 0.0151,0.02006 0.023,0.03442 0.023,0.0416 0,0.0079 -0.003,0.01436 -0.008,0.01951 -0.0151,0.0099 -0.0309,0.01509 -0.046,0.01509 -0.0151,0 -0.046,-0.0072 -0.0913,-0.02301 -0.0416,-0.01509 -0.072,-0.03019 -0.092,-0.04602 -0.0208,-0.01509 -0.0359,-0.0381 -0.046,-0.06828 0,-0.01583 -0.004,-0.02945 -0.0114,-0.04252 -0.008,-0.01215 -0.0166,-0.02153 -0.0274,-0.0265 -0.004,-0.01012 -0.009,-0.02025 -0.0107,-0.03092 -0.003,-0.01012 7e-4,-0.02227 0.0107,-0.0381 0,-0.01086 0.004,-0.02945 0.0116,-0.05761 0.008,-0.02798 0.0114,-0.05743 0.0114,-0.08761 l 0.0158,-0.115035 0.11503,-0.138044 c 0.0353,-0.03534 0.0668,-0.06829 0.0957,-0.09921 0.0272,-0.03092 0.0468,-0.04822 0.0567,-0.05393 0.0158,-0.01509 0.0223,-0.03019 0.0195,-0.04602 -0.003,-0.01454 -0.0144,-0.02227 -0.0346,-0.02227 -0.01,-0.0052 -0.0265,-0.01012 -0.0495,-0.01509 -0.023,-0.0059 -0.0447,-0.01086 -0.0648,-0.01583 -0.026,0 -0.051,-0.0052 -0.0769,-0.01509 -0.0252,-0.01012 -0.0482,-0.02025 -0.069,-0.03092 -0.0409,-0.02025 -0.10565,-0.07915 -0.19547,-0.176144 -0.0893,-0.09645 -0.15111,-0.175591 -0.187,-0.236698 -0.0151,-0.03092 -0.0331,-0.06184 -0.0539,-0.09276 -0.0201,-0.03019 -0.0381,-0.05025 -0.0532,-0.06037 -0.026,-0.03589 -0.0547,-0.08559 -0.0878,-0.149455 -0.0337,-0.06405 -0.0552,-0.120742 -0.0653,-0.17191 -0.0101,-0.05669 -0.0144,-0.104914 -0.0116,-0.145958 0.003,-0.04086 0.009,-0.08117 0.0188,-0.122215 0.0109,-0.02006 0.0173,-0.03957 0.0193,-0.05743 0.003,-0.01804 10e-4,-0.02945 -0.004,-0.0346 0,-0.0099 0.009,-0.02798 0.0267,-0.05319 0.0179,-0.02577 0.0322,-0.03368 0.0416,-0.02301 0.005,0.0052 0.009,0.02669 0.0116,0.06479 0.003,0.0381 0.007,0.08338 0.0114,0.133626 0,0.06184 0.003,0.110067 0.008,0.145958 0.005,0.03534 0.0109,0.0554 0.0151,0.06111 0.006,0.0052 0.0109,0.01509 0.0158,0.03092 0.005,0.01509 0.007,0.03313 0.007,0.05319 0,0.04105 0.0158,0.08559 0.046,0.13381 0.0309,0.04877 0.0871,0.111355 0.16897,0.187555 0.0963,0.09718 0.18055,0.173383 0.25234,0.230072 0.0712,0.05614 0.12221,0.08632 0.15313,0.09129 0.0151,0 0.0381,0.0037 0.069,0.0116 0.0302,0.0079 0.0561,0.01657 0.0762,0.02669 0.026,0.0099 0.0626,0.01932 0.11154,0.02724 0.048,0.0072 0.0948,0.01141 0.1408,0.01141 0.072,0.0052 0.12295,0.0059 0.15314,0.0037 0.0302,-0.0029 0.067,-0.01141 0.10712,-0.02669 0.0361,-0.01067 0.072,-0.01785 0.10712,-0.02301 0.0361,-0.0057 0.0871,-0.0077 0.15313,-0.0077 0.10215,0 0.19418,0.01288 0.27609,0.0381 0.0813,0.02577 0.17044,0.06902 0.26761,0.130129 0.0769,0.05098 0.13805,0.07896 0.18333,0.08467 0.046,0.0052 0.10712,-0.0077 0.18405,-0.03865 l -0.12221,0.04602 c 0.0351,-0.01509 0.079,-0.03313 0.13013,-0.05338 0.0502,-0.0208 0.12423,-0.05098 0.22141,-0.09203 0.0409,-0.01509 0.0784,-0.03074 0.11062,-0.04602 0.0339,-0.01509 0.0554,-0.02577 0.0655,-0.03074 l 0.0841,-0.04602 c 0.0611,-0.03534 0.12792,-0.09792 0.19915,-0.187003 0.0712,-0.08982 0.16823,-0.2286 0.29117,-0.417811 0.0252,-0.04012 0.0554,-0.08338 0.092,-0.129393 0.0351,-0.04601 0.0661,-0.08485 0.0913,-0.115036 0.0769,-0.08117 0.12792,-0.144486 0.15313,-0.187555 0.026,-0.04325 0.0438,-0.09847 0.0532,-0.164732 0.0109,-0.05614 0.0166,-0.138779 0.0195,-0.248662 0.003,-0.10933 -0.001,-0.202832 -0.0116,-0.279032 -0.005,-0.07197 -0.0381,-0.158106 -0.0999,-0.260258 -0.0604,-0.102152 -0.1143,-0.158105 -0.15958,-0.168965 -0.006,-0.005 -0.0144,-0.01215 -0.0274,-0.02301 -0.0129,-0.01013 -0.0223,-0.02301 -0.0265,-0.03736 -0.0109,-0.01583 -0.0245,-0.03092 -0.0425,-0.04601 -0.0178,-0.01583 -0.0416,-0.03092 -0.0725,-0.04602 -0.026,-0.01013 -0.0475,-0.0208 -0.0648,-0.03092 -0.0179,-0.01013 -0.0272,-0.01804 -0.0272,-0.02301 0,-0.005 0.0101,-0.01012 0.0309,-0.01509 0.0201,-0.005 0.046,-0.0079 0.0762,-0.0079 0.046,0 0.0791,0.0029 0.0999,0.0079 0.0201,0.005 0.0539,0.02301 0.0992,0.05319 0.051,0.03589 0.10215,0.08043 0.15313,0.133626 0.051,0.05393 0.097,0.111539 0.13731,0.172646 0.0158,0.0208 0.0309,0.04104 0.046,0.06111 0.0158,0.02006 0.026,0.03589 0.0309,0.04601 0.0151,0.01509 0.028,0.04528 0.0381,0.08835 0.0109,0.04325 0.018,0.09792 0.023,0.164731 0.005,0.04601 0.004,0.115773 -0.004,0.210011 -0.008,0.09479 -0.0217,0.200439 -0.0425,0.317684 -0.005,0.03608 -0.0331,0.08559 -0.0841,0.148902 -0.051,0.06461 -0.12222,0.144486 -0.21425,0.241485 -0.11208,0.107121 -0.18111,0.181296 -0.20632,0.222157 -0.026,0.04031 -0.0381,0.09129 -0.0381,0.153136 0,0.04602 0.002,0.07491 0.007,0.0878 0.005,0.01288 0.0201,0.03166 0.046,0.05743 0.046,0.04105 0.10215,0.06773 0.16823,0.07988 0.0668,0.01288 0.14025,0.0064 0.22215,-0.01878 0.0712,-0.01509 0.15314,-0.04307 0.24443,-0.08411 0.092,-0.04086 0.14301,-0.07178 0.15387,-0.09203 0.0101,-0.0099 0.0188,-0.01785 0.0267,-0.02301 0.007,-0.005 0.0136,-0.0072 0.0186,-0.0072 0.0208,0 0.0777,-0.03884 0.17264,-0.115036 0.0941,-0.07694 0.17964,-0.153136 0.25584,-0.229336 0.11798,-0.117797 0.19841,-0.2286 0.24167,-0.333513 0.0431,-0.104361 0.0725,-0.251055 0.0883,-0.440083 0.009,-0.09203 0.0144,-0.155345 0.0144,-0.191236 0,-0.03515 -0.005,-0.05816 -0.0144,-0.06902 -0.006,-0.005 -0.009,-0.01215 -0.009,-0.02301 0,-0.01012 0.005,-0.02227 0.0158,-0.0381 0.005,-0.01012 0.0124,-0.02945 0.023,-0.05743 0.0101,-0.02742 0.018,-0.05761 0.023,-0.08779 0.0101,-0.05614 0.0317,-0.108595 0.0648,-0.156818 0.0331,-0.04878 0.0935,-0.116324 0.18038,-0.202647 0.0554,-0.05614 0.10288,-0.09718 0.14098,-0.122951 0.0388,-0.02522 0.0804,-0.04307 0.12645,-0.05319 m -4.01832,-2.502819 0.19197,-0.0762 0.20651,0.0072 c 0.056,0 0.10841,0.0022 0.15664,0.0079 0.0482,0.005 0.0806,0.01012 0.0957,0.01509 0.0151,0.005 0.0473,0.01288 0.0955,0.02301 0.049,0.01012 0.0985,0.01804 0.14964,0.02301 0.11209,0.02025 0.19767,0.04325 0.25584,0.06902 0.0591,0.02522 0.12939,0.07123 0.21074,0.137307 0.0359,0.02595 0.0718,0.05117 0.10712,0.07694 0.0359,0.02595 0.0611,0.04031 0.0762,0.04528 0.046,0.02595 0.0856,0.05908 0.11927,0.09994 0.0331,0.04031 0.0677,0.09718 0.10288,0.168229 0.0158,0.03608 0.0344,0.07694 0.0574,0.12295 0.023,0.04528 0.0425,0.07915 0.0576,0.09921 0.0158,0.02522 0.028,0.05117 0.0388,0.07694 0.009,0.02522 0.0143,0.04325 0.0143,0.05319 0,0.01012 0.004,0.02669 0.0114,0.04969 0.008,0.02301 0.0145,0.04454 0.0195,0.06534 0.0252,0.05117 0.041,0.122951 0.046,0.217924 0.005,0.09424 -0.003,0.184795 -0.023,0.271854 -0.005,0.03515 -0.0101,0.06755 -0.0151,0.09553 -0.005,0.02797 -0.008,0.04454 -0.008,0.0497 0,0.0099 0.0309,0.01288 0.0913,0.0079 0.0618,-0.0052 0.11283,-0.01804 0.15388,-0.0381 0.1581,-0.06184 0.32854,-0.09718 0.51259,-0.107858 0.18332,-0.01012 0.35155,0.0057 0.50468,0.04601 0.026,0.0099 0.0539,0.01933 0.0848,0.02724 0.0302,0.0072 0.0532,0.0116 0.0683,0.0116 l 0.023,0.0072 c 0.0202,0.005 0.0381,0.0092 0.0539,0.01141 0.0151,0.0029 0.0252,0.0044 0.0302,0.0044 0.0158,0.0042 0.0361,0.0042 0.0618,0 0.0252,-0.0059 0.0561,-0.01307 0.0913,-0.02301 0.046,-0.01583 0.0821,-0.03092 0.10786,-0.04602 0.0252,-0.01583 0.0554,-0.04105 0.0913,-0.07638 0.021,-0.0208 0.0396,-0.04381 0.0576,-0.06884 0.018,-0.02595 0.0295,-0.04399 0.0339,-0.05393 0,-0.01013 0.004,-0.02301 0.0114,-0.0381 0.009,-0.01583 0.0151,-0.02595 0.0195,-0.03092 0.0208,-0.02522 0.0309,-0.06111 0.0309,-0.107122 0,-0.04602 -0.0101,-0.102152 -0.0309,-0.168965 -0.0309,-0.08632 -0.0482,-0.184058 -0.0534,-0.294125 -0.005,-0.110067 0.002,-0.192709 0.0225,-0.248846 0.0208,-0.04602 0.0552,-0.09276 0.10344,-0.141541 0.0489,-0.04822 0.0935,-0.08559 0.13454,-0.110803 l 0.069,-0.03092 0.0992,0.05393 c 0.071,0.03534 0.1235,0.0762 0.15663,0.122215 0.0331,0.04601 0.0445,0.08632 0.0346,0.122214 -0.0101,0.02025 -0.0217,0.02669 -0.0346,0.01951 -0.0129,-0.0079 -0.0265,-0.02945 -0.0416,-0.06553 -0.0158,-0.03515 -0.0274,-0.05595 -0.0346,-0.06111 -0.008,-0.005 -0.0295,-0.0072 -0.0653,-0.0072 -0.0561,0 -0.10068,0.0086 -0.13381,0.02669 -0.0331,0.0173 -0.0653,0.04951 -0.0955,0.09552 -0.0361,0.06626 -0.0512,0.131602 -0.046,0.195654 0.005,0.06332 0.0337,0.130865 0.0841,0.201912 0.0258,0.04601 0.0423,0.09203 0.0503,0.138043 0.007,0.04602 0.0109,0.125159 0.0109,0.237435 0,0.08614 -0.009,0.151663 -0.0267,0.194733 -0.018,0.04381 -0.0547,0.08853 -0.11062,0.134546 -0.046,0.04602 -0.12884,0.103441 -0.24885,0.172463 -0.12,0.06828 -0.20558,0.110803 -0.25675,0.125895 -0.0409,0.01509 -0.071,0.02153 -0.092,0.01933 -0.0201,-0.0028 -0.0611,-0.01141 -0.12222,-0.02724 -0.0351,-0.0052 -0.079,-0.01657 -0.13012,-0.0346 -0.051,-0.0173 -0.097,-0.03442 -0.13804,-0.04877 -0.0963,-0.04602 -0.2078,-0.0762 -0.33204,-0.08853 -0.12516,-0.01288 -0.22879,-0.0064 -0.31069,0.01951 -0.0201,0.0042 -0.0495,0.01362 -0.0876,0.02651 -0.0381,0.01233 -0.0756,0.02153 -0.11154,0.02669 -0.0561,0.01583 -0.14375,0.05098 -0.26393,0.107122 -0.12001,0.05595 -0.23283,0.115036 -0.34069,0.176143 -0.0201,0.0099 -0.0388,0.01859 -0.0569,0.0265 -0.0179,0.0079 -0.0272,0.0087 -0.0272,0.0037 0.0158,-0.03534 0.0309,-0.06405 0.046,-0.08411 0.041,-0.05043 0.0733,-0.102152 0.0963,-0.153136 0.023,-0.05117 0.0447,-0.109331 0.0648,-0.175407 0.0309,-0.09718 0.0495,-0.202096 0.0574,-0.314187 0.008,-0.112276 0.004,-0.19639 -0.0114,-0.252528 -0.0109,-0.02006 -0.0173,-0.04086 -0.0195,-0.06111 -0.002,-0.02006 -0.004,-0.03589 -0.004,-0.04657 0,-0.0094 -0.006,-0.0289 -0.0195,-0.05687 -0.0121,-0.02798 -0.0265,-0.05761 -0.0416,-0.08853 -0.0151,-0.03019 -0.028,-0.06037 -0.0381,-0.09129 -0.0109,-0.03092 -0.0158,-0.05098 -0.0158,-0.06111 0,-0.01067 -0.004,-0.0265 -0.0116,-0.04951 -0.007,-0.02301 -0.0193,-0.04749 -0.0344,-0.07344 -0.046,-0.0762 -0.12866,-0.163812 -0.24885,-0.263755 -0.11927,-0.09921 -0.2078,-0.151664 -0.26375,-0.156818 -0.0158,0 -0.0302,-0.002 -0.046,-0.0079 -0.0151,-0.005 -0.0252,-0.01215 -0.0302,-0.02301 -0.0361,-0.03092 -0.12019,-0.05393 -0.25308,-0.06828 -0.13233,-0.01583 -0.25031,-0.01583 -0.35154,0 -0.0361,0 -0.0784,0.0057 -0.12664,0.01877 -0.049,0.01288 -0.0928,0.0265 -0.13435,0.0416 -0.0353,0.01086 -0.0749,0.02227 -0.11798,0.0346 -0.0438,0.01362 -0.0784,0.02227 -0.10363,0.02724 -0.0559,0.01509 -0.12148,0.03957 -0.19547,0.0727 -0.0734,0.03295 -0.13381,0.06755 -0.17908,0.103441 -0.0208,0.01509 -0.0423,0.03166 -0.0653,0.04969 -0.023,0.0173 -0.0425,0.02871 -0.0576,0.03442 -0.0309,0.02025 -0.079,0.06332 -0.14523,0.130129 -0.0661,0.06626 -0.11705,0.125159 -0.15313,0.176143 -0.0151,0.01509 -0.028,0.0346 -0.0381,0.05761 -0.0107,0.02301 -0.0179,0.04381 -0.023,0.06461 -0.0107,0.03608 -0.0258,0.08559 -0.046,0.148903 -0.0208,0.06405 -0.0359,0.111355 -0.046,0.141724 -0.0151,0.03074 -0.0237,0.06387 -0.0265,0.09994 -0.003,0.03515 7e-4,0.09405 0.0114,0.175407 0.005,0.06184 0.0116,0.111355 0.0188,0.149455 0.008,0.0381 0.0166,0.07049 0.0272,0.09571 0.0151,0.02503 0.0223,0.04454 0.0223,0.05743 0,0.01288 -0.005,0.02743 -0.0151,0.04178 -0.005,0.01067 -0.0114,0.02577 -0.0186,0.04602 -0.008,0.0208 -0.0116,0.04086 -0.0116,0.06184 -0.0107,0.07105 -0.0495,0.150191 -0.11853,0.23725 -0.069,0.08614 -0.13952,0.147983 -0.21075,0.183323 -0.0668,0.03092 -0.15019,0.04822 -0.25234,0.05393 -0.10215,0.005 -0.17908,-0.0057 -0.23007,-0.03092 -0.0252,-0.01509 -0.0574,-0.04454 -0.0957,-0.0878 -0.0381,-0.04381 -0.0675,-0.08338 -0.0883,-0.118534 -0.0101,-0.02595 -0.0173,-0.05117 -0.0223,-0.07694 -0.005,-0.02595 -0.008,-0.05614 -0.008,-0.09129 0,-0.04601 0.001,-0.07565 0.004,-0.08853 0.002,-0.01288 0.0138,-0.02448 0.0346,-0.03442 0.009,-0.01012 0.0186,-0.01951 0.0265,-0.02669 0.007,-0.0072 0.0116,-0.01657 0.0116,-0.02724 0,-0.01012 0.005,-0.01436 0.0151,-0.01436 0.0101,0 0.0201,0.0042 0.0309,0.01436 0.004,0.01067 0.007,0.02448 0.007,0.04233 v 0.05761 c -0.005,0.03589 -0.006,0.06258 -0.004,0.08043 0.002,0.01804 0.0116,0.03957 0.0267,0.06479 0.051,0.08687 0.12516,0.135099 0.22216,0.145958 0.0963,0.0099 0.19915,-0.02025 0.30553,-0.09203 0.0208,-0.02098 0.0396,-0.04252 0.0576,-0.06552 0.0179,-0.02301 0.0394,-0.05467 0.0653,-0.09553 0.0302,-0.06626 0.0482,-0.120925 0.0532,-0.163995 0.006,-0.04381 -0.002,-0.111355 -0.023,-0.203384 -0.0101,-0.07123 -0.0201,-0.161787 -0.0302,-0.271117 -0.0101,-0.110067 -0.0101,-0.180561 0,-0.210747 0,-0.0099 0.007,-0.02945 0.023,-0.05816 0.0151,-0.02724 0.0331,-0.05687 0.0532,-0.0878 0.0203,-0.02503 0.041,-0.05963 0.0618,-0.102704 0.0201,-0.04381 0.0324,-0.07767 0.0381,-0.103625 0.0353,-0.112091 0.0992,-0.219213 0.19123,-0.321365 0.0913,-0.101968 0.19639,-0.181113 0.31345,-0.23725 0.026,-0.01583 0.049,-0.02798 0.069,-0.03884 0.021,-0.0092 0.0331,-0.01712 0.0388,-0.02301 0.009,-0.0042 0.026,-0.01215 0.049,-0.02301 0.0237,-0.0092 0.0502,-0.02006 0.0804,-0.03019 0.026,-0.0099 0.067,-0.02503 0.12295,-0.04602 0.0561,-0.02006 0.10933,-0.0381 0.16031,-0.05319 m -1.79086,3.137635 c 0.0668,-0.02522 0.14448,-0.02945 0.23375,-0.01141 0.0891,0.01859 0.17743,0.05246 0.26375,0.10344 0.046,0.03092 0.0834,0.07049 0.1108,0.118718 0.0287,0.04804 0.0502,0.110618 0.0653,0.187555 0.005,0.02595 0.0116,0.04969 0.0195,0.0727 0.008,0.02301 0.0136,0.03939 0.0186,0.04951 0.005,0.01012 0.0109,0.02025 0.0158,0.03092 l 0.0144,0.03092 c 0.006,0.03534 0.0504,0.110803 0.13454,0.225103 0.0841,0.115036 0.16455,0.218476 0.24075,0.310505 0.0871,0.09645 0.14595,0.156818 0.17614,0.179825 0.0309,0.02301 0.10712,0.06258 0.23007,0.118533 0.005,0.0052 0.0101,0.0116 0.0151,0.01878 0.005,0.0079 0.007,0.01435 0.007,0.01932 0,0.01013 -0.007,0.01509 -0.0223,0.01509 -0.0158,0 -0.0639,-0.0072 -0.14522,-0.02301 -0.0316,-0.005 -0.0639,-0.01215 -0.0999,-0.02301 -0.0359,-0.0099 -0.0639,-0.02006 -0.0841,-0.03019 -0.0869,-0.03589 -0.19124,-0.113563 -0.31419,-0.233569 -0.12221,-0.12019 -0.20338,-0.223631 -0.24442,-0.309954 -0.0101,-0.02006 -0.0208,-0.04951 -0.0309,-0.08835 -0.0101,-0.0381 -0.0178,-0.0727 -0.023,-0.102889 -0.0101,-0.07178 -0.0265,-0.136571 -0.0495,-0.195469 -0.023,-0.05835 -0.0519,-0.105097 -0.0885,-0.141725 -0.0913,-0.097 -0.19197,-0.146694 -0.30185,-0.148719 -0.10933,-0.0029 -0.20578,0.04233 -0.28694,0.133626 -0.0351,0.04602 -0.0626,0.08559 -0.0806,0.118718 -0.0179,0.03295 -0.0243,0.06534 -0.0186,0.09553 0.004,0.02595 7e-4,0.04454 -0.0116,0.05761 -0.0129,0.01288 -0.0243,0.0086 -0.0344,-0.0116 -0.0101,-0.01509 -0.0129,-0.06608 -0.008,-0.153136 0.005,-0.08632 0.0129,-0.145222 0.023,-0.175407 0.0252,-0.05172 0.0611,-0.097 0.10712,-0.138044 0.046,-0.04105 0.10215,-0.07399 0.16823,-0.09994"
       style="fill:#21201d;fill-opacity:1;fill-rule:nonzero;stroke:none;stroke-width:0.184057"
       id="path564" />
  </g>
</svg>
