<?xml version="1.0" encoding="UTF-8" standalone="no"?>
<!-- Created with Inkscape (http://www.inkscape.org/) -->

<svg
   width="2.9795301mm"
   height="7.2051091mm"
   viewBox="0 0 2.9795301 7.2051091"
   version="1.1"
   id="svg1516"
   inkscape:version="1.1.2 (0a00cf5339, 2022-02-04)"
   sodipodi:docname="strange_happenings.svg"
   xmlns:inkscape="http://www.inkscape.org/namespaces/inkscape"
   xmlns:sodipodi="http://sodipodi.sourceforge.net/DTD/sodipodi-0.dtd"
   xmlns="http://www.w3.org/2000/svg"
   xmlns:svg="http://www.w3.org/2000/svg">
  <sodipodi:namedview
     id="namedview1518"
     pagecolor="#ffffff"
     bordercolor="#666666"
     borderopacity="1.0"
     inkscape:pageshadow="2"
     inkscape:pageopacity="0.0"
     inkscape:pagecheckerboard="0"
     inkscape:document-units="mm"
     showgrid="false"
     inkscape:zoom="0.64052329"
     inkscape:cx="-1456.6215"
     inkscape:cy="709.57607"
     inkscape:window-width="2560"
     inkscape:window-height="1376"
     inkscape:window-x="0"
     inkscape:window-y="0"
     inkscape:window-maximized="1"
     inkscape:current-layer="layer1" />
  <defs
     id="defs1513" />
  <g
     inkscape:label="Layer 1"
     inkscape:groupmode="layer"
     id="layer1"
     transform="translate(-490.47847,39.126603)">
    <path
       d="m 492.87735,-33.755883 c -0.005,-0.01013 -0.0123,-0.02301 -0.0202,-0.03608 -0.008,-0.01288 -0.0144,-0.02006 -0.0201,-0.02006 -0.0158,-0.005 -0.028,0.04178 -0.0359,0.140988 -0.008,0.09921 -0.004,0.153873 0.0114,0.164548 0.0116,0.0057 0.023,0.0057 0.0368,0 0.0136,-0.005 0.0251,-0.01362 0.0359,-0.02374 0.0107,-0.01657 0.0151,-0.04951 0.0121,-0.10068 -0.002,-0.05098 -0.009,-0.09258 -0.0201,-0.124975 m 0.0883,0.39462 c 0,-0.0057 -0.008,-0.0099 -0.0237,-0.01215 -0.0164,-0.0029 -0.0381,-0.0044 -0.0646,-0.0044 h -0.0806 v 0.168965 c 0,0.09074 0.004,0.178352 0.0123,0.260994 0.008,0.08356 0.0171,0.130865 0.028,0.140988 h 0.12073 l 0.12093,-0.0079 -0.009,-0.104177 c 0,-0.05908 -0.005,-0.113012 -0.0158,-0.161051 -0.0109,-0.04822 -0.0215,-0.08559 -0.0317,-0.113011 -0.0116,-0.01067 -0.0188,-0.02503 -0.0245,-0.04381 -0.006,-0.01859 -0.008,-0.03663 -0.008,-0.05246 -0.006,-0.01583 -0.009,-0.03092 -0.0121,-0.0438 -0.003,-0.0138 -0.006,-0.02301 -0.0124,-0.02816 m -1.15753,-4.58341 c -0.006,-0.0057 -0.0245,-0.0087 -0.0567,-0.0087 -0.0324,0 -0.0698,0.0029 -0.11301,0.0087 h -0.0473 v 0.0878 c -0.006,0.02153 -0.007,0.05098 -0.004,0.08908 0.003,0.03663 0.004,0.06902 0.004,0.09626 0.005,0.0324 0.008,0.06037 0.008,0.08411 0,0.02448 -0.003,0.04473 -0.008,0.06056 -0.006,0.01638 -0.008,0.02945 -0.008,0.04012 0,0.01086 0.002,0.02153 0.008,0.0324 0.005,0.01086 0.0144,0.0173 0.028,0.02006 0.0129,0.0022 0.0445,0.0044 0.0928,0.0044 0.0324,0 0.0596,-0.0022 0.0841,-0.0044 0.0245,-0.0028 0.0388,-0.0042 0.0438,-0.0042 0.0158,-0.005 0.023,-0.01877 0.0201,-0.04031 -0.002,-0.02153 -0.0114,-0.04804 -0.028,-0.08043 -0.0107,-0.02153 -0.0173,-0.0346 -0.0201,-0.04031 -0.002,-0.005 0.001,-0.01086 0.0121,-0.01583 0.0158,-0.01086 0.0252,-0.02945 0.0282,-0.05614 0.003,-0.02724 -10e-4,-0.04877 -0.0123,-0.0646 0,-0.01013 -0.002,-0.02669 -0.008,-0.04822 l -0.0158,-0.06405 c 0,-0.02153 -0.001,-0.0416 -0.004,-0.06037 -0.002,-0.01859 -0.004,-0.03092 -0.004,-0.03589 m 0.63481,2.637182 c -0.0215,-0.005 -0.0775,-0.0094 -0.16896,-0.01215 -0.0906,-0.0029 -0.18976,-0.0037 -0.29762,-0.0037 -0.17099,-0.0057 -0.27811,-0.0072 -0.32136,-0.0042 -0.0423,0.0028 -0.0668,0.0064 -0.0718,0.01141 0,0.0057 -0.002,0.03387 -0.004,0.08485 -0.003,0.05117 -10e-4,0.108594 0.004,0.173383 0,0.09626 7.1e-4,0.161603 0.004,0.196942 0.003,0.03442 0.006,0.05466 0.0123,0.05963 0.01,0.0057 0.0394,0.0094 0.0883,0.01215 0.0482,0.0029 0.13952,0.0015 0.27314,-0.0035 0.0965,0 0.19344,-0.0015 0.28989,-0.0042 0.0963,-0.0022 0.16308,-0.0044 0.20118,-0.0044 h 0.15239 v -0.168229 c 0,-0.09129 -0.006,-0.163996 -0.0164,-0.217189 -0.0109,-0.05393 -0.0267,-0.08835 -0.0482,-0.104913 -0.005,0 -0.0173,-0.0022 -0.0359,-0.0079 -0.0188,-0.005 -0.0388,-0.0079 -0.0606,-0.0079 m -0.74763,1.946228 h -0.028 c -0.008,0 -0.0203,-0.0028 -0.0361,-0.0079 -0.0166,-0.0057 -0.0272,-0.0087 -0.0322,-0.0087 -0.006,0 -0.0109,0.0029 -0.0158,0.0087 -0.006,0.01509 -0.007,0.06626 -0.004,0.1524 0.002,0.08559 0.004,0.168413 0.004,0.248846 l 0.008,0.128657 0.25731,0.0087 c 0.0747,0 0.16473,7.41e-4 0.26891,0.0037 0.10491,0.0028 0.19418,0.0064 0.26964,0.01215 l 0.28106,0.0079 -0.008,-0.273142 c 0,-0.07546 -0.003,-0.17191 -0.008,-0.289155 -0.005,-0.01067 -0.0374,-0.01638 -0.0963,-0.01638 h -0.37824 c -0.13951,0.0057 -0.25308,0.0092 -0.34142,0.01215 -0.0893,0.0022 -0.13602,0.0064 -0.14099,0.01215 m 0.0725,-0.675861 c -0.0381,-0.01583 -0.074,-0.02153 -0.10841,-0.01583 -0.0353,0.0052 -0.0554,0.01878 -0.0604,0.04031 -0.006,0.0052 -0.009,0.03387 -0.0123,0.08411 -0.003,0.05117 -0.004,0.108594 -0.004,0.172647 l -0.009,0.233569 0.0401,0.0079 c 0.0109,0 0.0685,0.0015 0.17338,0.0044 0.10418,0.0028 0.22363,7.41e-4 0.35725,-0.0044 0.19345,0 0.32505,-0.0015 0.39407,-0.0042 0.0698,-0.0022 0.10786,-0.0064 0.11283,-0.0116 0.0109,-0.005 0.0173,-0.02724 0.0202,-0.06461 0.002,-0.03736 0.004,-0.09921 0.004,-0.184794 v -0.225102 l -0.42553,-0.0079 c -0.18277,0 -0.30278,-0.0028 -0.36241,-0.0087 -0.0589,-0.005 -0.0992,-0.01067 -0.12019,-0.01583 m 0.71543,-0.634816 c -0.0265,-0.0057 -0.0898,-0.0099 -0.18903,-0.01215 -0.0992,-0.0029 -0.20485,-0.0044 -0.31786,-0.0044 l -0.4018,-0.0079 0.009,0.257497 c 0,0.09626 7.1e-4,0.164547 0.004,0.204856 0.003,0.04031 0.006,0.06332 0.0123,0.06829 0.01,0.01086 0.18461,0.01583 0.52254,0.01583 0.33719,0 0.51204,-0.005 0.52272,-0.01583 0,-0.005 10e-4,-0.02724 0.004,-0.06461 0.003,-0.03736 10e-4,-0.09645 -0.004,-0.176879 -0.006,-0.09645 -0.009,-0.159578 -0.0121,-0.188476 -0.003,-0.02945 -0.009,-0.04951 -0.0202,-0.06037 -0.005,0 -0.0201,-0.0028 -0.0445,-0.0086 -0.0237,-0.005 -0.0517,-0.0072 -0.0841,-0.0072 m -0.13657,-1.174105 -0.0403,-0.137308 -0.72316,-0.0079 -0.009,0.0727 v 0.273142 l 0.009,0.20136 h 0.28897 c 0.17173,0.005 0.30701,0.005 0.40621,0 0.0992,-0.0057 0.15682,-0.01362 0.1732,-0.02448 0.0101,-0.01012 0.0151,-0.01859 0.0151,-0.02374 0,-0.005 -0.008,-0.01859 -0.0237,-0.04086 -0.0107,-0.01509 -0.0186,-0.0346 -0.0236,-0.05614 -0.006,-0.0208 -0.0109,-0.03957 -0.0166,-0.05614 0,-0.02153 -0.006,-0.05246 -0.0158,-0.09203 -0.0109,-0.04031 -0.0245,-0.0762 -0.0403,-0.108594 m -0.16105,-0.7239 -0.0316,-0.06405 h -0.57941 v 0.506159 l 0.31345,0.01657 c 0.16105,0.005 0.25731,0.0064 0.28971,0.0035 0.0324,-0.0028 0.0482,-0.01712 0.0482,-0.04381 0,-0.0057 -10e-4,-0.01215 -0.004,-0.02006 -0.003,-0.0087 -0.006,-0.01804 -0.0121,-0.02871 -0.006,-0.01012 -0.008,-0.01877 -0.008,-0.02374 0,-0.0059 0.005,-0.01086 0.0158,-0.01657 0.0215,-0.01583 0.0351,-0.04252 0.0403,-0.08062 0.005,-0.03736 -0.003,-0.07178 -0.0237,-0.104177 l -0.0166,-0.03166 c -0.006,-0.01086 -0.008,-0.01933 -0.008,-0.02448 0,-0.01067 -0.003,-0.02448 -0.008,-0.04031 -0.006,-0.01583 -0.0109,-0.03147 -0.0166,-0.04804 m -0.33001,-0.724083 c -0.0158,0 -0.0396,-7.41e-4 -0.072,-0.0035 -0.0322,-0.0029 -0.0646,-0.0044 -0.0963,-0.0044 l -0.11283,-0.0079 0.009,0.249583 c 0,0.06387 7e-4,0.12295 0.004,0.176879 0.003,0.05319 0.006,0.08264 0.0123,0.08835 0,0.005 0.004,0.01086 0.0114,0.01583 0.009,0.0057 0.0151,0.01086 0.0208,0.01657 0.021,0.005 0.10142,0.0064 0.24093,0.0035 0.13952,-0.002 0.21719,-0.0064 0.23302,-0.01215 l 0.0322,-0.0079 -0.0322,-0.09626 c -0.005,-0.02172 -0.0203,-0.05761 -0.044,-0.108595 -0.0237,-0.05117 -0.0468,-0.09792 -0.0683,-0.140252 l -0.0883,-0.169701 z m -0.39333,0.249582 v -0.265412 h -0.24148 v 0.563034 l 0.11282,-0.0079 c 0.0267,0 0.0517,-0.0015 0.0762,-0.0044 0.0245,-0.002 0.0359,-0.0064 0.0359,-0.01215 0.006,-0.106385 0.0109,-0.197678 0.0166,-0.273142 m -0.0401,-0.893049 c -0.0324,-0.01012 -0.0712,-0.01583 -0.11651,-0.01583 -0.046,0 -0.0712,0.0029 -0.0769,0.0087 -0.005,0.005 -0.008,0.0324 -0.008,0.07988 v 0.176695 l 0.008,0.241668 0.0561,-0.0079 c 0.0114,0 0.0228,0.0015 0.0366,0.0042 0.0129,0.0022 0.023,0.0037 0.028,0.0037 0.005,0.0057 0.0136,0.0094 0.0237,0.01215 0.0109,0.0022 0.0223,0.0044 0.0324,0.0044 0.0223,-0.0057 0.0351,-0.02301 0.0401,-0.05319 0.006,-0.02945 0.008,-0.105649 0.008,-0.2286 l 0.009,-0.209274 z m 0.0401,1.36755 -0.009,-0.05687 h -0.10417 c -0.0423,0 -0.074,0.0022 -0.0928,0.0044 -0.0186,0.0028 -0.0302,0.0092 -0.0359,0.02006 -0.005,0.0057 -0.009,0.02448 -0.0123,0.05614 -0.002,0.03221 -0.004,0.09129 -0.004,0.177431 0,0.122951 0.005,0.195654 0.0158,0.217189 0.0107,0.02153 0.0482,0.03166 0.11282,0.03166 0.069,0 0.10933,-0.0064 0.12001,-0.02006 0.0109,-0.01307 0.0166,-0.07344 0.0166,-0.181297 0,-0.05319 -10e-4,-0.104177 -0.004,-0.1524 -0.003,-0.04822 -0.004,-0.0797 -0.004,-0.09626 m 0,3.449614 v -0.257491 l -0.27388,-0.0077 v 0.257313 l 0.009,0.257313 h 0.26523 z m -0.13657,-0.924707 c -0.0107,0 -0.0272,-0.0057 -0.0488,-0.01638 -0.0101,0.01638 -0.021,0.02945 -0.0316,0.04012 -0.0274,0.02172 -0.0433,0.05117 -0.0482,0.08927 -0.006,0.03663 -0.009,0.112092 -0.009,0.224919 v 0.200623 h 0.12866 c 0.0324,0 0.0618,-7.41e-4 0.0885,-0.0035 0.0272,-0.0029 0.0401,-0.0072 0.0401,-0.01233 0.006,0 0.009,-0.02503 0.0124,-0.0762 0.003,-0.05099 0.004,-0.111355 0.004,-0.181114 0.005,-0.139516 0.005,-0.219949 0,-0.241668 -0.006,-0.0208 -0.0272,-0.0265 -0.0646,-0.01583 -0.0101,0.0052 -0.023,0.0079 -0.0361,0.0079 -0.0136,0 -0.0258,-0.005 -0.0359,-0.01583 m 0.0965,-0.635552 c -0.0166,0 -0.0381,-0.0013 -0.0648,-0.0035 -0.0265,-0.0029 -0.0539,-0.0044 -0.0804,-0.0044 l -0.0885,-0.0079 v 0.257496 c 0,0.07473 0.001,0.139517 0.004,0.192709 0.002,0.05319 0.004,0.08338 0.004,0.08908 0.0101,0.01012 0.0482,0.01436 0.11209,0.0116 0.064,-0.0029 0.10712,-0.0116 0.12884,-0.02816 0.0107,-0.0057 0.0186,-0.01509 0.0243,-0.02797 0.005,-0.01288 0.0101,-0.04178 0.0158,-0.08485 v -0.240932 l -0.0158,-0.153136 z m 0.048,-1.052444 v -0.266147 h -0.0559 c -0.0166,0 -0.0396,0.0015 -0.069,0.0044 -0.0296,0.0028 -0.0547,0.0035 -0.0762,0.0035 h -0.0806 v 0.555119 l 0.11282,-0.0079 c 0.0324,-0.0057 0.0618,-0.0094 0.0885,-0.01215 0.0265,-0.0029 0.0431,-0.0037 0.0482,-0.0037 l 0.0322,-0.0087 z m 0,0.497509 -0.008,-0.08062 h -0.2897 l 0.008,0.04105 c 0,0.005 10e-4,0.0324 0.004,0.0797 0.003,0.04896 0.004,0.09939 0.004,0.15332 0,0.05374 0.001,0.100496 0.004,0.140804 0.002,0.04031 0.004,0.06258 0.004,0.06829 0.005,0.0052 0.0201,0.01086 0.0438,0.01583 0.0238,0.0057 0.0576,0.0079 0.10068,0.0079 l 0.13657,0.0079 v -0.325598 c 0,-0.05043 -0.003,-0.08632 -0.008,-0.108594 m 0.15313,-3.353352 c -0.0164,-0.01012 -0.0381,-0.01657 -0.0653,-0.01951 -0.026,-0.0028 -0.0747,-0.0042 -0.14375,-0.0042 h -0.19344 c -0.0215,0.01086 -0.0359,0.0381 -0.0445,0.08062 -0.007,0.04233 -0.007,0.09332 0.004,0.153136 l 0.008,0.04012 h 0.23375 c 0.11779,0 0.19767,-0.002 0.24148,-0.0042 0.0425,-0.0029 0.0661,-0.0094 0.072,-0.02006 0.005,-0.01583 -0.008,-0.05466 -0.0403,-0.116508 -0.0317,-0.06184 -0.0569,-0.09792 -0.072,-0.109331 m -0.22565,-0.529902 c 0.0747,-0.01086 0.11926,-0.01086 0.13233,0 0.0136,0.01086 0.0315,0.05098 0.0532,0.120005 0.01,0.0324 0.0295,0.08356 0.0552,0.153136 0.0274,0.06976 0.0547,0.136755 0.0806,0.200624 0.0272,0.06479 0.051,0.125159 0.0725,0.181297 0.0217,0.05669 0.0353,0.08982 0.0403,0.100679 0.006,0.01565 0.0109,0.05098 0.0166,0.104177 0.005,0.05393 0.0109,0.110619 0.0158,0.168965 0.0101,0.134363 0.0265,0.263755 0.0482,0.390387 0.0215,0.125896 0.0423,0.212771 0.0639,0.260994 0.006,0.02153 0.0123,0.04307 0.0203,0.06479 0.009,0.0208 0.0121,0.03442 0.0121,0.03939 0,0.02172 0.006,0.05393 0.0201,0.09718 0.0138,0.04307 0.0282,0.08043 0.0447,0.112827 0.005,0.01013 0.0107,0.02374 0.0158,0.03957 0.006,0.01657 0.008,0.02945 0.008,0.04031 0,0.0057 0.003,0.01509 0.008,0.02871 0.005,0.01288 0.0107,0.02227 0.0164,0.02724 0.005,0.0059 0.009,0.01233 0.0116,0.02025 0.003,0.0087 0.004,0.01509 0.004,0.02006 0,0.005 0.004,0.0173 0.0123,0.03663 0.008,0.01878 0.0151,0.0381 0.0201,0.06037 0.0324,0.06902 0.0655,0.171174 0.0999,0.304984 0.0351,0.134362 0.0554,0.241484 0.0611,0.322102 0.0101,0.05393 0.0237,0.115036 0.0403,0.184794 0.0158,0.07031 0.0403,0.145221 0.0718,0.225655 0.006,0.02595 0.0138,0.05614 0.0237,0.08779 0.0109,0.03221 0.0195,0.0589 0.0245,0.08043 0.005,0.02153 0.0136,0.0497 0.0245,0.08485 0.0109,0.0346 0.0208,0.06332 0.0317,0.08412 0.0697,0.160314 0.11282,0.282529 0.12865,0.365907 0.0166,0.08283 0.0274,0.240195 0.0324,0.470268 0.005,0.161051 0.0121,0.2667 0.0201,0.317868 0.008,0.05098 0.0309,0.119269 0.0683,0.204856 0.0433,0.09129 0.0762,0.173199 0.10068,0.245166 0.0237,0.0727 0.0467,0.154608 0.0683,0.245165 0.0158,0.08632 0.0324,0.14743 0.0482,0.18553 0.0158,0.03736 0.0403,0.07473 0.0727,0.112091 0.0322,0.04325 0.0574,0.0878 0.0762,0.133074 0.0186,0.04528 0.0309,0.09479 0.0366,0.148167 0.004,0.02724 0.0101,0.05374 0.0158,0.08043 0.005,0.02724 0.0129,0.04896 0.0245,0.06479 0.0151,0.03221 0.0344,0.08264 0.056,0.152399 0.021,0.06976 0.0396,0.139517 0.0561,0.20909 0.006,0.03755 0.0121,0.07418 0.0201,0.108594 0.008,0.03534 0.0144,0.06037 0.0203,0.07694 0.0107,0.02098 0.023,0.07197 0.0359,0.1524 0.0136,0.08062 0.023,0.150375 0.028,0.209273 0.006,0.02153 0.006,0.03534 0,0.04031 -0.005,0.005 -0.0158,0.01013 -0.0316,0.01583 -0.0107,0 -0.15314,0.0028 -0.42628,0.0079 -0.27314,0 -0.57664,0.0015 -0.90868,0.0042 -0.33222,0.0022 -0.64365,0.0044 -0.93335,0.0044 -0.29394,0 -0.46585,-0.0029 -0.51407,-0.0086 l -0.16105,-0.0079 v -0.108594 c 0,-0.01877 0.003,-0.03313 0.008,-0.0438 l 0.008,-0.0324 h 0.0727 c 0.0324,0.005 0.0547,0.0064 0.0683,0.0042 0.0136,-0.0035 0.023,-0.0072 0.028,-0.01215 v -0.217924 c 0,-0.13878 10e-4,-0.332041 0.004,-0.578679 0.003,-0.245901 0.004,-0.541498 0.004,-0.884398 v -1.101402 c 0,-1.324481 0.002,-2.195811 0.008,-2.613439 0.005,-0.417811 0.0158,-0.64862 0.0324,-0.690953 0,-0.01086 0.005,-0.02301 0.0158,-0.03681 0.0107,-0.01362 0.0208,-0.02301 0.0324,-0.02797 0.0215,-0.02153 0.0359,-0.05098 0.0438,-0.08835 0.008,-0.0381 0.0121,-0.107122 0.0121,-0.209274 0,-0.112827 0.004,-0.184794 0.0123,-0.217188 0.008,-0.0324 0.0251,-0.06184 0.0517,-0.08835 0.0431,-0.04325 0.12074,-0.09 0.23357,-0.140988 0.11227,-0.05098 0.20577,-0.08117 0.28124,-0.09203"
       style="fill:#21201d;fill-opacity:1;fill-rule:nonzero;stroke:none;stroke-width:0.184057"
       id="path554" />
  </g>
</svg>
