<?xml version="1.0" encoding="UTF-8" standalone="no"?>
<!-- Created with Inkscape (http://www.inkscape.org/) -->

<svg
   width="7.7032843mm"
   height="7.8776355mm"
   viewBox="0 0 7.7032843 7.8776355"
   version="1.1"
   id="svg1885"
   inkscape:version="1.1.2 (0a00cf5339, 2022-02-04)"
   sodipodi:docname="without_a_trace.svg"
   xmlns:inkscape="http://www.inkscape.org/namespaces/inkscape"
   xmlns:sodipodi="http://sodipodi.sourceforge.net/DTD/sodipodi-0.dtd"
   xmlns="http://www.w3.org/2000/svg"
   xmlns:svg="http://www.w3.org/2000/svg">
  <sodipodi:namedview
     id="namedview1887"
     pagecolor="#ffffff"
     bordercolor="#666666"
     borderopacity="1.0"
     inkscape:pageshadow="2"
     inkscape:pageopacity="0.0"
     inkscape:pagecheckerboard="0"
     inkscape:document-units="mm"
     showgrid="false"
     inkscape:zoom="0.64052329"
     inkscape:cx="-719.72403"
     inkscape:cy="656.49448"
     inkscape:window-width="2560"
     inkscape:window-height="1376"
     inkscape:window-x="0"
     inkscape:window-y="0"
     inkscape:window-maximized="1"
     inkscape:current-layer="layer1" />
  <defs
     id="defs1882">
    <clipPath
       clipPathUnits="userSpaceOnUse"
       id="clipPath248">
      <path
         d="m 785,32 h 42 v 43.918 h -42 z"
         id="path246" />
    </clipPath>
  </defs>
  <g
     inkscape:label="Layer 1"
     inkscape:groupmode="layer"
     id="layer1"
     transform="translate(-295.21373,25.005577)">
    <g
       id="g562"
       transform="matrix(0.18405616,0,0,0.18405792,150.71252,-31.013455)">
      <g
         clip-path="url(#clipPath248)"
         id="g560">
        <path
           d="m 823.426,63.742 c -0.145,-0.285 -0.27,-0.394 -0.367,-0.324 -0.102,0.074 -0.11,0.266 -0.02,0.586 0.023,0.113 0.039,0.242 0.039,0.387 0,0.144 -0.016,0.273 -0.039,0.386 0,0.149 -0.012,0.289 -0.023,0.434 -0.016,0.141 -0.008,0.258 0.023,0.344 0.023,0.117 -0.012,0.246 -0.113,0.39 -0.098,0.145 -0.379,0.446 -0.84,0.907 -0.258,0.257 -0.504,0.496 -0.734,0.71 -0.231,0.215 -0.372,0.34 -0.43,0.368 -0.059,0.031 -0.094,0.058 -0.11,0.086 -0.011,0.027 -0.019,0.058 -0.019,0.086 0.055,0.058 0.691,0.101 1.895,0.128 1.21,0.028 2.031,0.016 2.464,-0.042 l 0.774,-0.043 -0.301,-0.559 0.086,0.129 c -0.113,-0.176 -0.223,-0.363 -0.32,-0.563 -0.102,-0.203 -0.223,-0.433 -0.368,-0.691 -0.089,-0.141 -0.171,-0.277 -0.261,-0.406 -0.086,-0.133 -0.145,-0.211 -0.172,-0.239 -0.031,-0.031 -0.07,-0.093 -0.129,-0.195 -0.059,-0.101 -0.117,-0.211 -0.172,-0.324 -0.031,-0.117 -0.086,-0.254 -0.176,-0.41 -0.086,-0.16 -0.172,-0.293 -0.258,-0.41 -0.054,-0.114 -0.136,-0.247 -0.238,-0.387 -0.097,-0.145 -0.164,-0.258 -0.191,-0.348 m -1.512,-1.078 c -0.027,-0.059 -0.062,-0.113 -0.109,-0.172 -0.043,-0.058 -0.078,-0.086 -0.106,-0.086 -0.117,0 -0.273,0.172 -0.476,0.516 -0.2,0.348 -0.348,0.707 -0.43,1.082 -0.031,0.113 -0.082,0.238 -0.152,0.363 -0.071,0.129 -0.137,0.238 -0.192,0.324 -0.058,0.059 -0.148,0.176 -0.261,0.348 -0.114,0.172 -0.215,0.332 -0.301,0.473 -0.117,0.172 -0.254,0.383 -0.41,0.625 -0.157,0.246 -0.309,0.457 -0.454,0.629 -0.23,0.257 -0.367,0.429 -0.41,0.515 -0.043,0.086 -0.023,0.157 0.063,0.215 0.144,0.09 0.445,0.094 0.906,0.024 0.461,-0.071 0.836,-0.168 1.125,-0.278 0.285,-0.148 0.59,-0.371 0.906,-0.672 0.317,-0.3 0.473,-0.511 0.473,-0.625 0,-0.031 0.016,-0.093 0.043,-0.195 0.027,-0.102 0.059,-0.195 0.086,-0.281 0.058,-0.086 0.105,-0.223 0.129,-0.41 0.031,-0.188 0.047,-0.411 0.047,-0.668 0.027,-0.348 0.027,-0.579 0,-0.692 -0.032,-0.113 -0.09,-0.219 -0.176,-0.301 -0.086,-0.058 -0.141,-0.125 -0.172,-0.195 -0.027,-0.074 -0.027,-0.121 0,-0.148 0,-0.032 -0.008,-0.09 -0.02,-0.176 -0.015,-0.086 -0.054,-0.156 -0.109,-0.215 m -1.726,-1.035 c -0.032,-0.09 -0.239,-0.145 -0.626,-0.172 -0.39,-0.031 -0.71,-0.016 -0.972,0.043 -0.141,0.027 -0.309,0.078 -0.496,0.148 -0.188,0.075 -0.282,0.125 -0.282,0.153 0,0.086 0.188,0.453 0.563,1.101 0.375,0.649 0.59,0.985 0.648,1.012 0.114,0.09 0.219,0.09 0.321,0 0.101,-0.082 0.152,-0.199 0.152,-0.344 0,-0.058 0.024,-0.144 0.066,-0.258 0.043,-0.117 0.11,-0.23 0.196,-0.347 0.168,-0.285 0.301,-0.567 0.387,-0.84 0.085,-0.273 0.101,-0.437 0.043,-0.496 m -1.426,2.891 c -0.028,-0.059 -0.114,-0.094 -0.258,-0.11 -0.145,-0.012 -0.445,-0.019 -0.906,-0.019 -0.692,0.027 -1.121,0.058 -1.297,0.086 -0.168,0.027 -0.242,0.085 -0.215,0.171 0.031,0.059 0.059,0.145 0.086,0.258 0.031,0.117 0.043,0.246 0.043,0.391 0.058,0.258 0.195,0.566 0.41,0.926 0.219,0.363 0.383,0.543 0.496,0.543 0.145,0 0.469,-0.34 0.973,-1.016 0.504,-0.676 0.726,-1.086 0.668,-1.23 m -1.77,-17.915 c -0.14,-0.14 -0.281,-0.261 -0.41,-0.363 -0.129,-0.101 -0.207,-0.152 -0.238,-0.152 -0.055,0 -0.149,0.094 -0.282,0.281 -0.128,0.188 -0.351,0.512 -0.664,0.969 l -0.39,0.562 0.691,1.34 c 0.172,0.375 0.352,0.719 0.539,1.035 0.188,0.317 0.324,0.516 0.41,0.602 0.059,0.086 0.157,0.238 0.301,0.457 0.145,0.215 0.274,0.449 0.391,0.707 l 0.172,0.305 c 0.144,0.257 0.281,0.496 0.41,0.714 0.129,0.215 0.223,0.379 0.281,0.493 l -0.176,-0.254 c 0.118,0.168 0.239,0.363 0.371,0.578 0.125,0.215 0.278,0.496 0.454,0.844 0.171,0.343 0.488,0.882 0.949,1.617 0.461,0.734 0.761,1.187 0.906,1.359 0.055,0.086 0.113,0.145 0.168,0.172 0.059,0.031 0.105,0.031 0.133,0 0,-0.574 -0.016,-1.051 -0.043,-1.422 -0.031,-0.406 -0.051,-0.793 -0.067,-1.168 -0.011,-0.371 -0.023,-0.617 -0.023,-0.73 0,-0.321 -0.063,-0.77 -0.191,-1.36 -0.129,-0.593 -0.254,-0.972 -0.368,-1.148 -0.027,-0.055 -0.07,-0.156 -0.128,-0.301 -0.059,-0.144 -0.114,-0.285 -0.172,-0.43 -0.059,-0.23 -0.161,-0.503 -0.305,-0.82 -0.141,-0.316 -0.414,-0.82 -0.816,-1.512 -0.176,-0.343 -0.446,-0.738 -0.821,-1.187 -0.375,-0.445 -0.734,-0.84 -1.082,-1.188 m -1.554,3.497 c -0.141,-0.258 -0.278,-0.485 -0.407,-0.688 -0.133,-0.203 -0.211,-0.316 -0.238,-0.348 -0.027,0 -0.113,0.102 -0.262,0.305 -0.14,0.199 -0.301,0.445 -0.472,0.731 -0.172,0.293 -0.352,0.586 -0.539,0.886 -0.188,0.301 -0.325,0.524 -0.411,0.668 -0.086,0.145 -0.164,0.282 -0.238,0.41 -0.07,0.129 -0.109,0.211 -0.109,0.239 0,0.058 0.074,0.246 0.218,0.562 0.141,0.317 0.317,0.688 0.516,1.121 0.203,0.403 0.383,0.778 0.543,1.125 0.156,0.344 0.25,0.555 0.281,0.645 0.028,0.058 0.071,0.172 0.129,0.344 0.059,0.175 0.129,0.332 0.215,0.476 0.086,0.145 0.156,0.277 0.215,0.41 0.055,0.129 0.086,0.207 0.086,0.239 0,0.027 0.027,0.097 0.086,0.214 0.058,0.118 0.129,0.243 0.219,0.391 0.082,0.141 0.191,0.305 0.32,0.492 0.129,0.188 0.222,0.367 0.281,0.543 0.086,0.141 0.215,0.344 0.391,0.602 0.172,0.258 0.343,0.504 0.515,0.734 0.289,0.402 0.473,0.641 0.563,0.711 0.086,0.074 0.199,0.094 0.344,0.066 0.461,-0.113 0.804,-0.187 1.035,-0.214 0.23,-0.028 0.562,-0.047 0.992,-0.047 h 0.953 l 0.086,-0.254 c 0.086,-0.348 0.098,-0.656 0.043,-0.93 -0.059,-0.273 -0.203,-0.609 -0.434,-1.015 l 0.215,0.386 c -0.144,-0.254 -0.301,-0.523 -0.472,-0.797 -0.176,-0.273 -0.391,-0.64 -0.649,-1.101 -0.086,-0.168 -0.187,-0.352 -0.301,-0.539 -0.117,-0.188 -0.203,-0.324 -0.257,-0.41 -0.059,-0.055 -0.137,-0.172 -0.239,-0.344 -0.101,-0.172 -0.195,-0.348 -0.281,-0.52 -0.086,-0.172 -0.18,-0.336 -0.281,-0.496 -0.102,-0.16 -0.18,-0.254 -0.235,-0.281 -0.031,-0.055 -0.058,-0.106 -0.089,-0.148 -0.028,-0.043 -0.043,-0.094 -0.043,-0.153 0,-0.086 -0.071,-0.265 -0.215,-0.539 -0.145,-0.273 -0.418,-0.726 -0.821,-1.359 -0.199,-0.317 -0.425,-0.684 -0.668,-1.102 -0.246,-0.418 -0.441,-0.754 -0.585,-1.015 m -1.637,-6.344 c -0.375,-0.231 -0.641,-0.367 -0.801,-0.41 -0.156,-0.043 -0.238,-0.004 -0.238,0.109 0,0.086 0.312,0.719 0.929,1.898 0.618,1.18 0.957,1.782 1.016,1.813 0.027,0 0.105,-0.078 0.238,-0.238 0.129,-0.157 0.266,-0.368 0.407,-0.625 l 0.519,-0.864 -0.691,-0.648 c -0.172,-0.172 -0.395,-0.359 -0.668,-0.559 -0.274,-0.203 -0.512,-0.359 -0.711,-0.476 m 0.387,25.25 c -0.344,-0.028 -0.958,-0.043 -1.833,-0.043 -0.878,0 -1.46,0.015 -1.75,0.043 -0.257,0.027 -0.402,0.082 -0.429,0.152 -0.031,0.07 0.012,0.223 0.129,0.453 V 69.57 c 0.086,0.114 0.164,0.239 0.238,0.368 0.07,0.128 0.133,0.261 0.191,0.41 0.118,0.257 0.239,0.414 0.368,0.472 0.128,0.059 0.312,0.059 0.539,0 0.23,-0.086 0.82,-0.371 1.769,-0.863 0.949,-0.488 1.426,-0.762 1.426,-0.82 0,-0.028 -0.066,-0.047 -0.195,-0.067 -0.129,-0.011 -0.282,-0.035 -0.453,-0.062 m -1.512,-12.645 c -0.055,-0.086 -0.114,-0.16 -0.168,-0.218 -0.059,-0.055 -0.106,-0.086 -0.133,-0.086 -0.059,0.347 -0.102,0.648 -0.129,0.906 -0.058,1.039 -0.367,2 -0.926,2.89 -0.562,0.895 -1.304,1.586 -2.226,2.075 -0.199,0.086 -0.43,0.215 -0.688,0.386 0,0.032 0.078,0.059 0.239,0.09 0.156,0.028 0.335,0.039 0.535,0.039 0.777,0.059 1.425,0.125 1.941,0.2 0.52,0.07 0.824,0.136 0.91,0.191 0.141,0.086 0.813,0.078 2.008,-0.02 1.191,-0.101 1.832,-0.195 1.918,-0.281 0.059,-0.058 0.051,-0.183 -0.023,-0.367 -0.071,-0.188 -0.207,-0.48 -0.411,-0.887 -0.14,-0.285 -0.285,-0.574 -0.429,-0.863 -0.141,-0.285 -0.242,-0.473 -0.301,-0.563 -0.086,-0.226 -0.211,-0.457 -0.367,-0.687 -0.156,-0.23 -0.324,-0.445 -0.496,-0.648 -0.086,-0.086 -0.153,-0.165 -0.196,-0.239 -0.043,-0.07 -0.062,-0.133 -0.062,-0.191 0,-0.086 -0.125,-0.348 -0.371,-0.778 -0.242,-0.433 -0.449,-0.75 -0.625,-0.949 m -1.727,-13.855 c -0.23,-0.086 -0.445,-0.137 -0.644,-0.153 -0.203,-0.011 -0.317,0.024 -0.348,0.11 0,0.027 -0.012,0.078 -0.043,0.152 -0.027,0.071 -0.043,0.149 -0.043,0.235 -0.027,0.086 -0.121,0.23 -0.281,0.433 -0.156,0.199 -0.336,0.403 -0.539,0.602 -0.199,0.234 -0.371,0.425 -0.52,0.586 -0.14,0.156 -0.211,0.25 -0.211,0.277 0,0.031 0.012,0.066 0.039,0.109 0.032,0.043 0.059,0.094 0.09,0.153 0.059,0.027 0.137,0.156 0.235,0.386 0.101,0.231 0.211,0.477 0.324,0.735 0.519,1.238 1.019,2.273 1.512,3.109 0.488,0.832 0.976,1.508 1.468,2.028 0.2,0.23 0.367,0.343 0.496,0.343 0.129,0 0.223,-0.113 0.278,-0.343 0.031,-0.086 0.117,-0.258 0.261,-0.52 0.145,-0.258 0.301,-0.531 0.473,-0.82 0.578,-0.864 0.879,-1.407 0.906,-1.641 0.032,-0.23 -0.156,-0.66 -0.558,-1.293 -0.114,-0.23 -0.297,-0.558 -0.543,-0.992 -0.242,-0.434 -0.465,-0.848 -0.664,-1.254 -0.407,-0.777 -0.715,-1.309 -0.93,-1.598 -0.219,-0.285 -0.469,-0.5 -0.758,-0.644 m 0.262,21.926 c -0.289,-0.032 -0.684,-0.067 -1.188,-0.11 -0.503,-0.043 -0.957,-0.078 -1.359,-0.105 -0.664,-0.031 -1.078,-0.035 -1.25,-0.024 -0.176,0.016 -0.262,0.051 -0.262,0.11 0,0.058 0.051,0.179 0.153,0.363 0.097,0.187 0.207,0.398 0.32,0.629 l -0.258,-0.477 c 0.145,0.231 0.297,0.477 0.457,0.735 0.156,0.261 0.379,0.633 0.668,1.125 0.086,0.14 0.188,0.293 0.301,0.449 0.113,0.16 0.199,0.269 0.258,0.328 0.086,0.082 0.152,0.172 0.195,0.258 0.043,0.086 0.063,0.172 0.063,0.258 v 0.257 h 6.519 l 0.305,-0.343 c 0.168,-0.231 0.265,-0.395 0.277,-0.496 0.016,-0.102 -0.066,-0.297 -0.238,-0.582 -0.145,-0.262 -0.301,-0.625 -0.473,-1.102 -0.176,-0.477 -0.261,-0.801 -0.261,-0.973 v -0.257 l -1.594,0.043 c -0.633,0.031 -1.137,0.035 -1.512,0.019 -0.375,-0.012 -0.746,-0.047 -1.121,-0.105 m -2.117,-22.489 c -0.086,0 -0.196,-0.007 -0.324,-0.019 -0.125,-0.016 -0.25,-0.024 -0.364,-0.024 h -1.168 l -0.777,0.043 0.691,1.035 c 0.172,0.29 0.344,0.532 0.52,0.735 0.172,0.203 0.273,0.305 0.301,0.305 0.058,0 0.215,-0.133 0.476,-0.391 0.258,-0.258 0.473,-0.504 0.645,-0.731 0.058,-0.089 0.109,-0.191 0.152,-0.304 0.043,-0.117 0.063,-0.231 0.063,-0.344 0,-0.117 -0.012,-0.195 -0.039,-0.238 -0.032,-0.043 -0.09,-0.067 -0.176,-0.067 m -2.285,-7.207 c -0.118,-0.203 -0.239,-0.375 -0.368,-0.519 -0.132,-0.145 -0.211,-0.215 -0.238,-0.215 -0.027,0 -0.078,0.051 -0.152,0.152 -0.071,0.098 -0.133,0.207 -0.192,0.321 -0.058,0.144 -0.14,0.296 -0.238,0.457 -0.101,0.156 -0.18,0.277 -0.238,0.367 -0.145,0.199 -0.469,0.769 -0.969,1.703 -0.508,0.934 -0.742,1.418 -0.715,1.445 0.031,0 0.121,-0.027 0.281,-0.086 0.161,-0.058 0.352,-0.129 0.582,-0.215 0.344,-0.175 0.614,-0.273 0.797,-0.3 0.188,-0.032 0.5,-0.047 0.93,-0.047 0.461,0 0.777,0.015 0.949,0.047 0.176,0.027 0.418,0.125 0.735,0.3 0.261,0.114 0.441,0.188 0.539,0.215 0.101,0.032 0.168,0.032 0.195,0 0,-0.086 -0.109,-0.351 -0.324,-0.801 -0.215,-0.445 -0.383,-0.738 -0.496,-0.882 -0.028,-0.028 -0.078,-0.114 -0.153,-0.258 -0.07,-0.145 -0.148,-0.289 -0.238,-0.434 -0.058,-0.172 -0.156,-0.383 -0.301,-0.625 -0.144,-0.242 -0.273,-0.453 -0.386,-0.625 m -0.864,7.336 c 0,-0.054 -0.039,-0.094 -0.109,-0.105 -0.07,-0.016 -0.238,-0.024 -0.496,-0.024 -0.434,0 -0.856,0.032 -1.274,0.086 -0.418,0.059 -0.652,0.117 -0.711,0.176 -0.058,0.082 0,0.309 0.172,0.668 0.172,0.359 0.344,0.637 0.52,0.84 0.199,0.172 0.375,0.265 0.515,0.281 0.145,0.012 0.305,-0.078 0.477,-0.281 0.172,-0.172 0.367,-0.461 0.582,-0.863 0.215,-0.403 0.324,-0.661 0.324,-0.778 m 1.766,-3.363 c -0.227,-0.09 -0.422,-0.145 -0.578,-0.176 -0.16,-0.027 -0.426,-0.043 -0.801,-0.043 -0.602,0 -1.059,0.059 -1.359,0.172 -0.301,0.117 -0.641,0.375 -1.016,0.777 -0.227,0.231 -0.402,0.457 -0.516,0.672 -0.113,0.211 -0.144,0.364 -0.086,0.449 0.028,0.059 0.309,0.083 0.84,0.067 0.535,-0.012 1.086,-0.067 1.664,-0.152 0.516,-0.059 1.071,-0.086 1.661,-0.086 0.589,0 1.011,0.058 1.273,0.171 0.285,0.118 0.418,0.032 0.387,-0.257 -0.028,-0.285 -0.2,-0.586 -0.516,-0.907 -0.117,-0.113 -0.269,-0.238 -0.453,-0.367 -0.188,-0.129 -0.352,-0.234 -0.5,-0.32 m -0.731,7.121 c -0.261,-0.402 -0.488,-0.578 -0.691,-0.52 -0.199,0.059 -0.488,0.403 -0.863,1.036 -0.114,0.175 -0.211,0.343 -0.281,0.519 -0.071,0.172 -0.106,0.289 -0.106,0.344 0,0.059 -0.031,0.144 -0.086,0.262 -0.058,0.113 -0.129,0.215 -0.219,0.3 -0.086,0.114 -0.218,0.325 -0.41,0.625 -0.183,0.301 -0.367,0.625 -0.539,0.973 -0.172,0.344 -0.371,0.703 -0.601,1.078 -0.231,0.371 -0.418,0.649 -0.563,0.821 -0.375,0.515 -0.547,0.828 -0.516,0.925 0.028,0.102 0.243,-0.007 0.645,-0.32 0.547,-0.434 1.145,-0.738 1.793,-0.91 0.645,-0.172 1.375,-0.242 2.176,-0.215 0.605,0.059 1.117,0.152 1.535,0.281 0.418,0.129 0.812,0.34 1.184,0.625 0.144,0.117 0.289,0.231 0.433,0.348 0.145,0.113 0.246,0.184 0.305,0.215 0.199,0.086 0.273,0.051 0.215,-0.106 -0.059,-0.164 -0.203,-0.383 -0.434,-0.672 -0.23,-0.289 -0.473,-0.632 -0.73,-1.035 -0.262,-0.402 -0.391,-0.66 -0.391,-0.777 0,-0.086 -0.102,-0.34 -0.305,-0.754 -0.199,-0.418 -0.375,-0.715 -0.515,-0.887 -0.055,-0.058 -0.129,-0.179 -0.215,-0.367 -0.09,-0.187 -0.16,-0.367 -0.215,-0.539 -0.059,-0.199 -0.148,-0.418 -0.262,-0.644 -0.113,-0.231 -0.23,-0.434 -0.344,-0.606 m 0.778,6.082 c -0.375,-0.113 -0.84,-0.176 -1.403,-0.191 -0.562,-0.016 -1.031,0.035 -1.402,0.152 -0.605,0.168 -1.195,0.488 -1.769,0.949 -0.579,0.457 -1.008,0.949 -1.297,1.465 -0.52,0.981 -0.699,2 -0.539,3.066 0.16,1.063 0.64,1.985 1.445,2.762 0.516,0.516 1.059,0.899 1.621,1.145 0.559,0.242 1.184,0.367 1.875,0.367 1.238,0 2.316,-0.406 3.238,-1.211 0.922,-0.805 1.481,-1.824 1.684,-3.063 0.172,-1.179 -0.07,-2.289 -0.734,-3.324 -0.665,-1.035 -1.571,-1.742 -2.719,-2.117 m 1.207,17.094 c -0.258,-0.059 -1.527,-0.094 -3.797,-0.106 -2.273,-0.015 -4.086,-0.007 -5.438,0.02 -0.835,0 -1.41,0.016 -1.726,0.043 -0.32,0.031 -0.461,0.058 -0.434,0.09 0.059,0.199 0.618,0.578 1.684,1.14 1.066,0.563 1.941,0.942 2.633,1.145 0.488,0.172 1.086,0.308 1.793,0.41 0.703,0.102 1.187,0.121 1.441,0.066 0.117,-0.031 0.391,-0.066 0.824,-0.109 0.43,-0.043 0.891,-0.082 1.379,-0.109 1.238,-0.059 2.039,-0.118 2.395,-0.172 0.363,-0.059 0.554,-0.145 0.586,-0.258 0,-0.059 -0.043,-0.195 -0.129,-0.41 -0.09,-0.219 -0.188,-0.469 -0.305,-0.758 -0.258,-0.461 -0.422,-0.73 -0.496,-0.82 -0.07,-0.086 -0.207,-0.145 -0.41,-0.172 m -8.633,-13.379 c 0,-0.031 -0.012,-0.043 -0.039,-0.043 h -0.133 c -0.027,0 -0.086,0.07 -0.172,0.215 -0.086,0.144 -0.172,0.301 -0.258,0.476 -0.117,0.2 -0.246,0.43 -0.39,0.688 -0.141,0.262 -0.258,0.476 -0.344,0.648 -0.117,0.172 -0.23,0.36 -0.348,0.563 -0.113,0.199 -0.199,0.359 -0.257,0.476 -0.059,0.114 -0.114,0.227 -0.172,0.344 -0.059,0.113 -0.102,0.188 -0.129,0.215 -0.145,0.086 -0.41,0.379 -0.797,0.883 -0.391,0.504 -0.672,0.886 -0.844,1.148 -0.23,0.344 -0.359,0.625 -0.39,0.84 -0.028,0.215 0.031,0.352 0.175,0.41 0.055,0.028 0.446,0.063 1.164,0.106 0.719,0.047 1.567,0.082 2.547,0.109 1.668,0.027 2.899,0.035 3.692,0.02 0.789,-0.012 1.215,-0.047 1.269,-0.106 0.032,-0.031 -0.011,-0.07 -0.129,-0.129 -0.113,-0.058 -0.257,-0.117 -0.429,-0.176 -0.836,-0.285 -1.524,-0.683 -2.075,-1.187 -0.543,-0.5 -1.003,-1.156 -1.378,-1.961 -0.204,-0.43 -0.325,-0.75 -0.368,-0.949 -0.043,-0.203 -0.078,-0.621 -0.105,-1.254 -0.031,-0.371 -0.059,-0.82 -0.09,-1.336 m 6.648,9.41 -0.261,-0.605 h -4.961 c -1.356,-0.032 -2.524,-0.036 -3.516,-0.024 -0.996,0.016 -1.504,0.024 -1.535,0.024 0,0.027 -0.008,0.093 -0.023,0.195 -0.012,0.098 -0.02,0.207 -0.02,0.32 0,0.289 -0.051,0.535 -0.148,0.735 -0.102,0.203 -0.328,0.519 -0.672,0.949 l -0.563,0.777 0.907,0.863 4.32,-0.085 c 1.176,0 2.25,-0.008 3.211,-0.02 0.965,-0.016 1.535,-0.008 1.707,0.02 h 2.008 c 0.793,0 1.199,-0.012 1.23,-0.043 0.027,-0.028 0.027,-0.079 0,-0.149 -0.031,-0.07 -0.074,-0.141 -0.133,-0.195 -0.054,-0.086 -0.136,-0.227 -0.234,-0.41 -0.098,-0.188 -0.195,-0.368 -0.281,-0.539 -0.086,-0.172 -0.18,-0.352 -0.282,-0.543 -0.097,-0.184 -0.179,-0.309 -0.238,-0.364 -0.082,-0.09 -0.172,-0.218 -0.258,-0.39 -0.086,-0.172 -0.172,-0.344 -0.258,-0.516 m -4.488,-22.617 c -0.117,-0.059 -0.222,-0.086 -0.324,-0.086 -0.102,0 -0.254,0.043 -0.453,0.129 -0.317,0.113 -0.531,0.223 -0.649,0.324 -0.113,0.098 -0.273,0.352 -0.472,0.754 -0.145,0.203 -0.36,0.547 -0.649,1.035 -0.289,0.488 -0.59,0.992 -0.906,1.512 -0.289,0.488 -0.57,0.972 -0.844,1.445 -0.273,0.477 -0.453,0.785 -0.539,0.93 l -0.043,0.086 c -0.113,0.199 -0.222,0.394 -0.32,0.582 -0.105,0.187 -0.211,0.351 -0.328,0.496 -0.285,0.433 -0.524,0.82 -0.711,1.164 -0.188,0.344 -0.281,0.578 -0.281,0.695 0,0.055 -0.02,0.117 -0.067,0.192 -0.039,0.07 -0.09,0.136 -0.148,0.195 -0.028,0.059 -0.086,0.148 -0.172,0.277 -0.09,0.129 -0.172,0.266 -0.258,0.41 -0.117,0.231 -0.18,0.376 -0.195,0.434 -0.016,0.059 0.019,0.102 0.109,0.129 0.055,0.031 0.293,0.051 0.711,0.066 0.418,0.012 0.899,0.02 1.445,0.02 h 2.028 l 0.433,-0.863 c 0.114,-0.231 0.274,-0.504 0.473,-0.821 0.203,-0.316 0.375,-0.562 0.52,-0.734 0.14,-0.199 0.308,-0.438 0.496,-0.711 0.187,-0.273 0.336,-0.496 0.453,-0.668 0.113,-0.203 0.238,-0.41 0.367,-0.629 0.129,-0.215 0.238,-0.379 0.324,-0.496 0.086,-0.113 0.156,-0.23 0.215,-0.344 0.059,-0.113 0.086,-0.199 0.086,-0.257 0,-0.059 0.016,-0.118 0.043,-0.176 0.027,-0.055 0.059,-0.098 0.086,-0.129 0.117,-0.082 0.281,-0.34 0.496,-0.754 0.219,-0.418 0.383,-0.785 0.5,-1.102 0.055,-0.113 0.141,-0.285 0.258,-0.515 0.086,-0.059 0.086,-0.153 0,-0.282 -0.09,-0.128 -0.258,-0.312 -0.52,-0.539 -0.23,-0.171 -0.394,-0.332 -0.496,-0.476 -0.101,-0.145 -0.195,-0.344 -0.277,-0.602 -0.059,-0.144 -0.125,-0.289 -0.199,-0.433 -0.071,-0.145 -0.133,-0.231 -0.192,-0.258 m -6.949,21.969 c -0.316,-0.059 -0.719,-0.086 -1.211,-0.086 -0.488,0 -0.762,0.027 -0.816,0.086 -0.059,0.027 -0.082,0.086 -0.067,0.171 0.016,0.086 0.067,0.231 0.153,0.434 0.226,0.488 0.464,0.899 0.71,1.227 0.247,0.332 0.426,0.515 0.54,0.543 0.171,0 0.402,-0.231 0.691,-0.696 0.289,-0.457 0.43,-0.89 0.43,-1.293 0.027,-0.172 0.023,-0.273 -0.02,-0.3 -0.047,-0.028 -0.18,-0.059 -0.41,-0.086 m -1.598,-2.934 c -0.203,-0.09 -0.531,-0.133 -0.992,-0.133 -0.461,0 -0.734,0.043 -0.82,0.133 -0.059,0.027 -0.074,0.094 -0.043,0.191 0.027,0.102 0.086,0.266 0.172,0.497 0.113,0.375 0.265,0.742 0.453,1.101 0.187,0.359 0.308,0.555 0.367,0.586 0.059,0.055 0.137,0.004 0.238,-0.152 0.102,-0.16 0.196,-0.356 0.282,-0.586 0.027,-0.114 0.078,-0.258 0.148,-0.43 0.074,-0.172 0.152,-0.316 0.238,-0.434 0.086,-0.113 0.16,-0.222 0.215,-0.324 0.059,-0.097 0.09,-0.164 0.09,-0.191 0,-0.027 -0.035,-0.067 -0.109,-0.11 -0.071,-0.043 -0.153,-0.093 -0.239,-0.148 m 5.051,-7.641 c -0.031,-0.031 -0.262,-0.054 -0.691,-0.066 -0.434,-0.012 -0.922,-0.023 -1.469,-0.023 l -2.027,-0.039 -0.387,0.644 c -0.117,0.172 -0.281,0.426 -0.5,0.758 -0.215,0.328 -0.406,0.637 -0.582,0.926 -0.199,0.289 -0.422,0.632 -0.668,1.039 -0.246,0.402 -0.453,0.761 -0.625,1.074 -0.317,0.578 -0.504,1.008 -0.563,1.297 -0.058,0.289 -0.015,0.574 0.129,0.863 0.09,0.145 0.164,0.231 0.239,0.262 0.07,0.027 0.281,0.027 0.628,0 0.227,0 0.473,0.008 0.731,0.019 0.258,0.016 0.504,0.051 0.734,0.11 0.43,0.113 0.711,0.152 0.844,0.105 0.129,-0.043 0.191,-0.18 0.191,-0.41 0,-0.113 0.016,-0.199 0.043,-0.258 0.028,-0.058 0.086,-0.097 0.172,-0.129 0.086,-0.027 0.285,-0.23 0.582,-0.605 0.305,-0.375 0.7,-0.891 1.188,-1.551 0.09,-0.148 0.262,-0.434 0.519,-0.867 0.258,-0.43 0.504,-0.891 0.735,-1.379 0.371,-0.664 0.609,-1.117 0.711,-1.359 0.101,-0.247 0.121,-0.383 0.066,-0.411 m 0.906,-10.445 c 0,-0.059 -0.066,-0.07 -0.195,-0.047 -0.129,0.031 -0.25,0.09 -0.367,0.176 -0.086,0.059 -0.266,0.156 -0.539,0.301 -0.274,0.144 -0.582,0.301 -0.93,0.476 -0.633,0.317 -1.078,0.598 -1.336,0.84 -0.258,0.246 -1.078,1.188 -2.461,2.828 -0.461,0.547 -0.875,1.137 -1.25,1.77 -0.375,0.633 -0.648,1.211 -0.82,1.726 -0.059,0.172 -0.133,0.368 -0.215,0.582 -0.086,0.219 -0.16,0.383 -0.219,0.497 -0.058,0.144 -0.093,0.265 -0.105,0.367 -0.016,0.101 -0.024,0.168 -0.024,0.195 0.059,0.086 0.168,0.129 0.325,0.129 0.156,0 0.308,-0.027 0.453,-0.086 0.058,-0.027 0.109,-0.043 0.148,-0.043 0.047,0 0.067,0.016 0.067,0.043 0.027,0.031 0.136,0.051 0.324,0.066 0.187,0.012 0.41,0.02 0.668,0.02 h 0.906 l 0.305,-0.606 c 0.058,-0.171 0.16,-0.394 0.301,-0.667 0.144,-0.274 0.273,-0.528 0.39,-0.754 l -0.305,0.558 c 0.172,-0.254 0.344,-0.547 0.52,-0.863 0.172,-0.313 0.402,-0.758 0.691,-1.336 0.141,-0.231 0.293,-0.481 0.45,-0.758 0.16,-0.273 0.281,-0.48 0.371,-0.625 0.113,-0.14 0.238,-0.34 0.367,-0.582 0.125,-0.242 0.25,-0.469 0.363,-0.668 0.086,-0.199 0.238,-0.472 0.457,-0.82 0.215,-0.348 0.422,-0.676 0.625,-0.992 0.344,-0.493 0.602,-0.887 0.778,-1.188 0.171,-0.301 0.257,-0.48 0.257,-0.539 m -6.172,10.402 c -0.027,-0.027 -0.074,-0.046 -0.128,-0.046 -0.032,0 -0.145,0.011 -0.348,0.023 -0.203,0.012 -0.43,0.035 -0.692,0.066 -0.691,0.059 -1.085,0.164 -1.187,0.321 -0.102,0.16 -0.148,0.758 -0.148,1.793 0,1.125 0.046,1.691 0.148,1.707 0.102,0.011 0.469,-0.485 1.105,-1.492 0.426,-0.688 0.754,-1.25 0.969,-1.68 0.215,-0.434 0.309,-0.664 0.281,-0.692 m -2.636,9.063 c -0.141,-0.344 -0.266,-0.539 -0.364,-0.582 -0.101,-0.043 -0.222,0.008 -0.367,0.152 -0.199,0.258 -0.351,0.66 -0.457,1.207 -0.097,0.547 -0.105,1.094 -0.015,1.641 0.086,0.43 0.312,0.848 0.687,1.25 0.375,0.402 0.789,0.691 1.254,0.863 0.227,0.059 0.523,0.094 0.883,0.11 0.359,0.015 0.566,-0.008 0.625,-0.067 0.031,0 0.035,-0.043 0.023,-0.129 -0.015,-0.086 -0.051,-0.172 -0.109,-0.258 -0.113,-0.203 -0.324,-0.566 -0.625,-1.101 -0.301,-0.535 -0.582,-1.027 -0.84,-1.488 -0.117,-0.204 -0.211,-0.391 -0.281,-0.563 -0.074,-0.172 -0.11,-0.273 -0.11,-0.301 0,-0.031 -0.031,-0.113 -0.086,-0.258 -0.054,-0.144 -0.128,-0.304 -0.218,-0.476 m -1.942,0.777 c 0,-0.054 -0.011,-0.109 -0.043,-0.148 -0.027,-0.047 -0.054,-0.067 -0.086,-0.067 -0.054,0 -0.121,0.067 -0.191,0.196 -0.07,0.125 -0.324,0.566 -0.754,1.312 -0.176,0.289 -0.32,0.539 -0.433,0.758 -0.118,0.215 -0.176,0.336 -0.176,0.367 -0.258,0.403 -0.457,0.735 -0.602,0.992 -0.172,0.231 -0.316,0.446 -0.433,0.645 -0.114,0.203 -0.172,0.32 -0.172,0.348 0,0.027 0.031,0.058 0.09,0.086 0.054,0.031 0.128,0.058 0.21,0.086 0.235,0.031 1.145,0.042 2.743,0.042 1.597,0 2.398,-0.011 2.398,-0.042 0,-0.028 -0.09,-0.106 -0.262,-0.239 -0.171,-0.129 -0.386,-0.281 -0.648,-0.453 -0.402,-0.254 -0.668,-0.453 -0.797,-0.582 -0.129,-0.129 -0.266,-0.32 -0.41,-0.582 -0.117,-0.23 -0.195,-0.437 -0.238,-0.625 -0.043,-0.187 -0.067,-0.484 -0.067,-0.887 -0.027,-0.285 -0.047,-0.543 -0.062,-0.777 -0.012,-0.231 -0.035,-0.371 -0.067,-0.43 m 16.965,-30.816 c 0.086,-0.086 0.164,-0.137 0.238,-0.152 0.071,-0.016 0.106,0.019 0.106,0.105 0,0.031 0.047,0.133 0.129,0.305 0.09,0.172 0.187,0.359 0.305,0.562 0.23,0.375 0.523,0.883 0.882,1.531 0.364,0.649 0.77,1.418 1.231,2.309 0.144,0.231 0.297,0.481 0.453,0.754 0.16,0.273 0.281,0.484 0.367,0.629 0.086,0.14 0.199,0.336 0.348,0.582 0.144,0.242 0.273,0.465 0.386,0.668 0.258,0.461 0.481,0.785 0.668,0.972 0.188,0.184 0.395,0.293 0.629,0.321 0.114,0.031 0.235,0.066 0.368,0.109 0.128,0.043 0.25,0.094 0.363,0.153 l -0.778,-0.344 c 0.231,0.113 0.485,0.234 0.758,0.363 0.274,0.129 0.696,0.34 1.274,0.625 0.312,0.145 0.617,0.313 0.906,0.5 0.289,0.184 0.547,0.379 0.773,0.582 0.235,0.172 0.434,0.328 0.61,0.473 0.168,0.144 0.285,0.218 0.344,0.218 0.113,0.059 0.23,0.012 0.343,-0.132 0.118,-0.141 0.258,-0.371 0.43,-0.688 l 0.09,-0.262 c 0.113,-0.199 0.215,-0.386 0.301,-0.558 0.086,-0.172 0.16,-0.289 0.218,-0.348 0.227,-0.429 0.387,-0.64 0.473,-0.625 0.086,0.016 0.258,0.239 0.52,0.668 0.082,0.145 0.171,0.278 0.257,0.391 0.086,0.113 0.145,0.172 0.172,0.172 0.059,0.027 0.114,0.101 0.172,0.218 0.059,0.11 0.117,0.243 0.172,0.387 0.059,0.172 0.133,0.36 0.215,0.559 0.086,0.203 0.187,0.375 0.305,0.519 0.144,0.231 0.281,0.461 0.41,0.692 0.129,0.23 0.32,0.574 0.582,1.035 0.113,0.23 0.308,0.547 0.582,0.949 0.273,0.402 0.496,0.707 0.672,0.906 0.086,0.086 0.148,0.18 0.191,0.282 0.043,0.097 0.066,0.164 0.066,0.191 0,0.059 0.028,0.133 0.086,0.219 0.059,0.086 0.118,0.172 0.172,0.258 0.059,0.085 0.156,0.246 0.305,0.476 0.144,0.227 0.273,0.461 0.387,0.691 0.113,0.227 0.238,0.446 0.367,0.645 0.129,0.203 0.207,0.316 0.238,0.348 0.027,0.027 0.055,0.062 0.086,0.105 0.027,0.043 0.043,0.078 0.043,0.11 0,0.027 0.051,0.136 0.152,0.324 0.098,0.187 0.223,0.394 0.368,0.625 l 0.472,0.82 -0.301,0.301 c -0.23,0.203 -0.429,0.316 -0.585,0.348 -0.157,0.027 -0.305,-0.032 -0.454,-0.176 -0.054,-0.055 -0.113,-0.129 -0.172,-0.211 -0.054,-0.09 -0.101,-0.164 -0.128,-0.219 0,-0.059 -0.02,-0.121 -0.067,-0.195 -0.043,-0.071 -0.078,-0.137 -0.105,-0.196 -0.145,-0.14 -0.438,-0.671 -0.887,-1.593 -0.445,-0.922 -0.668,-1.442 -0.668,-1.555 0,-0.117 -0.035,-0.254 -0.105,-0.41 -0.075,-0.16 -0.27,-0.426 -0.586,-0.797 -0.086,-0.145 -0.243,-0.406 -0.473,-0.777 -0.231,-0.375 -0.449,-0.766 -0.648,-1.168 -0.2,-0.403 -0.399,-0.762 -0.583,-1.079 -0.187,-0.316 -0.308,-0.503 -0.367,-0.562 -0.058,-0.059 -0.113,-0.129 -0.172,-0.215 -0.058,-0.086 -0.089,-0.172 -0.089,-0.258 0,-0.23 -0.071,-0.484 -0.215,-0.754 -0.141,-0.277 -0.27,-0.398 -0.387,-0.371 -0.059,0 -0.238,0.239 -0.539,0.715 -0.305,0.473 -0.453,0.754 -0.453,0.844 0,0.082 0.113,0.285 0.344,0.601 0.23,0.317 0.546,0.708 0.953,1.165 0.425,0.519 0.976,1.289 1.636,2.308 0.661,1.024 0.993,1.621 0.993,1.793 0.086,0.172 0.144,0.301 0.172,0.387 0.085,0.172 0.21,0.586 0.367,1.23 0.16,0.649 0.281,1.246 0.367,1.793 0.031,0.203 0.07,0.41 0.129,0.625 0.058,0.219 0.101,0.367 0.133,0.453 0.054,0.145 0.086,0.254 0.086,0.325 0,0.07 -0.032,0.152 -0.086,0.238 -0.09,0.113 -0.137,0.367 -0.153,0.754 -0.015,0.39 0.02,0.742 0.11,1.058 0,0.059 0.004,0.121 0.019,0.196 0.016,0.07 0.024,0.148 0.024,0.234 0,0.059 -0.008,0.125 -0.024,0.195 -0.015,0.071 -0.019,0.153 -0.019,0.239 -0.032,0.113 -0.059,0.3 -0.09,0.562 -0.028,0.258 -0.059,0.516 -0.086,0.778 l -0.043,0.949 0.992,1.594 c 0.262,0.46 0.535,0.906 0.82,1.339 0.289,0.43 0.493,0.731 0.606,0.907 0.117,0.171 0.215,0.324 0.301,0.453 0.089,0.129 0.132,0.207 0.132,0.238 0,0.027 0.028,0.078 0.086,0.152 0.059,0.071 0.114,0.149 0.172,0.235 0.055,0.086 0.137,0.23 0.235,0.433 0.101,0.2 0.195,0.387 0.285,0.559 0.144,0.375 0.301,0.726 0.472,1.058 0.176,0.333 0.301,0.497 0.391,0.497 0.027,0.058 0.039,0.117 0.039,0.171 0,0.059 0.016,0.122 0.043,0.196 0.031,0.07 0.074,0.136 0.129,0.195 0.059,0.086 0.082,0.141 0.066,0.172 -0.011,0.027 -0.093,0.059 -0.238,0.086 -0.086,0.027 -0.609,0.051 -1.574,0.062 -0.961,0.016 -2.067,0.024 -3.301,0.024 -1.957,0 -3.223,0.015 -3.801,0.043 -0.574,0.027 -0.89,0.074 -0.949,0.129 -0.055,0.031 -0.133,0.082 -0.234,0.152 -0.102,0.074 -0.211,0.137 -0.324,0.191 -0.086,0.032 -0.231,0.118 -0.434,0.262 -0.199,0.145 -0.402,0.289 -0.602,0.434 -0.492,0.398 -0.922,0.726 -1.296,0.969 -0.376,0.242 -0.762,0.441 -1.165,0.582 -0.203,0.089 -0.386,0.175 -0.562,0.261 -0.172,0.082 -0.301,0.157 -0.387,0.215 l -0.262,0.172 0.219,0.434 c 0.231,0.402 0.43,0.812 0.606,1.226 0.172,0.418 0.258,0.656 0.258,0.715 0,0.055 -0.032,0.121 -0.086,0.191 -0.059,0.075 -0.118,0.153 -0.172,0.239 -0.09,0.09 -0.16,0.136 -0.219,0.152 -0.055,0.012 -0.129,-0.008 -0.215,-0.062 -0.058,-0.032 -0.164,-0.047 -0.324,-0.047 -0.16,0 -0.383,0.015 -0.668,0.047 -0.203,0.027 -0.906,0.054 -2.117,0.082 -1.207,0.031 -2.559,0.046 -4.055,0.046 l -5.441,0.043 -0.043,-0.261 c -0.028,-0.055 -0.035,-0.137 -0.02,-0.239 0.016,-0.097 0.035,-0.191 0.063,-0.281 0.027,-0.14 0.074,-0.234 0.132,-0.277 0.059,-0.043 0.2,-0.094 0.43,-0.153 0.145,0 0.746,-0.007 1.813,-0.019 1.066,-0.016 2.273,-0.008 3.625,0.019 h 3.691 c 1.109,0 1.762,-0.015 1.965,-0.042 l 0.734,-0.043 -0.261,-0.516 c -0.258,-0.52 -0.5,-0.836 -0.731,-0.949 -0.23,-0.118 -0.562,-0.09 -0.996,0.082 -0.344,0.117 -0.969,0.203 -1.879,0.261 -0.902,0.059 -1.961,0.071 -3.168,0.043 l -2.203,-0.043 -1.293,-0.433 c -0.777,-0.258 -1.633,-0.625 -2.57,-1.098 -0.934,-0.476 -1.688,-0.93 -2.266,-1.363 -0.059,-0.055 -0.121,-0.106 -0.195,-0.149 -0.071,-0.042 -0.121,-0.066 -0.149,-0.066 -0.031,0 -0.109,-0.043 -0.238,-0.129 -0.133,-0.086 -0.266,-0.199 -0.41,-0.344 l -0.52,-0.519 h -4.054 c -2.219,0 -3.774,-0.016 -4.664,-0.043 -0.891,-0.027 -1.321,-0.086 -1.297,-0.172 0,-0.027 0.058,-0.137 0.176,-0.324 0.117,-0.188 0.246,-0.395 0.386,-0.625 0.321,-0.516 0.817,-1.348 1.489,-2.481 0.679,-1.14 1.019,-1.718 1.019,-1.75 0.199,-0.402 0.387,-0.718 0.559,-0.949 0.144,-0.262 0.324,-0.57 0.539,-0.93 0.218,-0.359 0.383,-0.668 0.496,-0.929 0.23,-0.489 0.367,-0.789 0.41,-0.903 0.043,-0.117 0.035,-0.289 -0.023,-0.519 -0.086,-0.258 -0.157,-0.879 -0.215,-1.856 -0.059,-0.976 -0.086,-1.828 -0.086,-2.546 v -0.95 l -0.516,0.086 c -0.117,0.028 -0.316,0.043 -0.605,0.043 h -1.727 v -0.347 c -0.031,-0.082 -0.016,-0.215 0.043,-0.387 0.059,-0.172 0.129,-0.344 0.219,-0.516 0.082,-0.172 0.156,-0.34 0.211,-0.5 0.058,-0.156 0.086,-0.25 0.086,-0.281 0,-0.055 0.058,-0.184 0.175,-0.387 0.114,-0.199 0.247,-0.418 0.387,-0.644 0.348,-0.52 0.625,-0.969 0.844,-1.34 0.215,-0.375 0.351,-0.664 0.41,-0.863 0.027,-0.086 0.086,-0.204 0.172,-0.344 0.086,-0.145 0.187,-0.274 0.301,-0.391 0.289,-0.347 0.578,-0.769 0.863,-1.273 0.289,-0.5 0.551,-1.028 0.777,-1.574 0.118,-0.289 0.239,-0.571 0.368,-0.844 0.128,-0.27 0.222,-0.453 0.281,-0.539 0.086,-0.114 0.148,-0.215 0.195,-0.301 0.039,-0.086 0.063,-0.145 0.063,-0.172 0,-0.027 0.031,-0.082 0.089,-0.152 0.055,-0.071 0.114,-0.137 0.172,-0.192 0.086,-0.058 0.184,-0.168 0.301,-0.328 0.117,-0.156 0.215,-0.304 0.301,-0.449 0.086,-0.145 0.18,-0.27 0.281,-0.371 0.102,-0.098 0.168,-0.149 0.195,-0.149 0.086,0 0.215,0.079 0.387,0.239 0.176,0.156 0.258,0.281 0.258,0.367 -0.082,0.141 -0.156,0.258 -0.215,0.344 -0.055,0.058 -0.164,0.23 -0.324,0.519 -0.156,0.285 -0.309,0.59 -0.453,0.903 l -0.903,1.902 c -0.203,0.316 -0.347,0.566 -0.433,0.754 -0.09,0.187 0,-0.02 0.258,-0.625 -0.117,0.23 -0.235,0.465 -0.367,0.711 -0.129,0.246 -0.223,0.41 -0.282,0.496 -0.027,0.117 -0.097,0.246 -0.215,0.387 -0.113,0.148 -0.214,0.277 -0.3,0.39 -0.176,0.172 -0.664,0.891 -1.469,2.16 -0.805,1.266 -1.309,2.071 -1.508,2.414 -0.086,0.176 -0.086,0.282 0,0.329 0.082,0.042 0.328,0.089 0.731,0.148 0.519,0.059 0.843,0.027 0.972,-0.086 0.129,-0.117 0.324,-0.52 0.582,-1.207 0.344,-0.949 0.598,-1.633 0.754,-2.051 0.16,-0.418 0.254,-0.64 0.281,-0.672 0.028,0 0.067,-0.039 0.11,-0.129 0.043,-0.085 0.09,-0.183 0.148,-0.3 0.031,-0.086 0.129,-0.246 0.305,-0.473 0.172,-0.23 0.359,-0.445 0.558,-0.648 0.204,-0.204 0.454,-0.493 0.758,-0.864 0.301,-0.375 0.567,-0.718 0.797,-1.039 0.461,-0.601 0.863,-1.062 1.207,-1.379 0.348,-0.316 0.75,-0.59 1.211,-0.82 0.172,-0.086 0.344,-0.18 0.516,-0.281 0.176,-0.102 0.304,-0.18 0.39,-0.239 0.086,-0.054 0.325,-0.187 0.711,-0.386 0.391,-0.199 0.817,-0.418 1.274,-0.649 l 1.683,-0.859 0.606,-0.867 c 0.172,-0.258 0.336,-0.512 0.496,-0.754 0.16,-0.246 0.254,-0.41 0.277,-0.496 0.059,-0.086 0.117,-0.184 0.176,-0.281 0.059,-0.102 0.102,-0.165 0.129,-0.196 0.086,-0.113 0.348,-0.597 0.777,-1.445 0.434,-0.852 0.649,-1.317 0.649,-1.402 0,-0.028 0.019,-0.075 0.062,-0.133 0.043,-0.055 0.098,-0.114 0.153,-0.172 0.054,-0.028 0.101,-0.07 0.128,-0.129 0.032,-0.055 0.043,-0.098 0.043,-0.125 0,-0.059 0.211,-0.41 0.625,-1.059 0.418,-0.648 0.7,-1.058 0.844,-1.23"
           style="fill:#21201d;fill-opacity:1;fill-rule:nonzero;stroke:none"
           id="path558" />
      </g>
    </g>
  </g>
</svg>
