<?xml version="1.0" encoding="UTF-8" standalone="no"?>
<!-- Created with Inkscape (http://www.inkscape.org/) -->

<svg
   width="7.0141549mm"
   height="6.4666209mm"
   viewBox="0 0 7.0141549 6.4666209"
   version="1.1"
   id="svg1571"
   inkscape:version="1.1.2 (0a00cf5339, 2022-02-04)"
   sodipodi:docname="z1.svg"
   xmlns:inkscape="http://www.inkscape.org/namespaces/inkscape"
   xmlns:sodipodi="http://sodipodi.sourceforge.net/DTD/sodipodi-0.dtd"
   xmlns="http://www.w3.org/2000/svg"
   xmlns:svg="http://www.w3.org/2000/svg">
  <sodipodi:namedview
     id="namedview1573"
     pagecolor="#ffffff"
     bordercolor="#666666"
     borderopacity="1.0"
     inkscape:pageshadow="2"
     inkscape:pageopacity="0.0"
     inkscape:pagecheckerboard="0"
     inkscape:document-units="mm"
     showgrid="false"
     inkscape:zoom="0.64052329"
     inkscape:cx="-722.84647"
     inkscape:cy="684.5965"
     inkscape:window-width="2560"
     inkscape:window-height="1376"
     inkscape:window-x="0"
     inkscape:window-y="0"
     inkscape:window-maximized="1"
     inkscape:current-layer="layer1" />
  <defs
     id="defs1568" />
  <g
     inkscape:label="Layer 1"
     inkscape:groupmode="layer"
     id="layer1"
     transform="translate(-295.97097,32.561502)">
    <path
       d="m 299.68794,-30.363429 c 0.0302,0.07841 0.0604,0.156634 0.0933,0.23357 0.0361,0.08853 0.0734,0.176143 0.11301,0.263939 10e-4,0.0029 0.003,0.0064 0.004,0.0094 -0.12572,0.01067 -0.28621,0.02503 -0.46585,0.04233 z m 2.03107,3.598517 -0.0705,-0.01086 -0.0351,-0.0057 -0.0173,-0.0037 -0.007,-0.0022 c -0.0223,-0.0079 -0.0532,-0.02945 -0.0769,-0.05522 -0.0245,-0.02595 -0.0418,-0.05466 -0.0532,-0.0878 l -0.0504,-0.124423 c -0.0668,-0.16602 -0.14025,-0.329279 -0.217,-0.491802 -7e-4,-0.0028 -0.003,-0.0072 -0.005,-0.0099 l 0.65211,-1.417062 c 0.0668,0.162339 0.13731,0.32339 0.20633,0.485176 0.14595,0.327992 0.29338,0.654326 0.46455,0.972747 0.0322,0.06184 0.0654,0.124423 0.0985,0.187003 l 0.25878,0.602605 c 0.0101,0.02227 0.0129,0.0416 0.0129,0.05522 0,0.01509 -0.004,0.02301 -0.006,0.02522 -0.002,0.0022 -0.004,0.0042 -0.0151,0.0042 h -0.006 l -0.93961,-0.09203 c -0.0648,-0.0099 -0.12884,-0.02153 -0.19271,-0.03148 m -1.97069,-1.471175 c -0.0324,-0.07473 -0.0641,-0.148718 -0.0972,-0.223446 -0.0718,-0.160498 -0.14301,-0.320077 -0.21774,-0.478919 0.0309,-0.0029 0.0611,-0.0057 0.0906,-0.0094 0.19694,-0.01859 0.39112,-0.04528 0.5853,-0.07123 z m 0.61033,1.744318 c 0.0109,0.02301 0.0151,0.0438 0.0144,0.05816 0,0.01583 -0.004,0.02375 -0.008,0.02743 -0.003,0.0028 -0.007,0.0064 -0.0223,0.0072 l -0.007,-7.41e-4 -1.01304,-0.09424 c -0.069,-0.01067 -0.13878,-0.02153 -0.2078,-0.03239 l -0.0948,-0.01436 -0.0569,-0.0086 -0.0186,-0.002 -0.009,-0.0037 c -0.007,-0.0022 -0.0145,-0.005 -0.0217,-0.0087 -0.0151,-0.0079 -0.0309,-0.01712 -0.046,-0.02945 -0.0295,-0.02448 -0.0552,-0.05614 -0.071,-0.08761 -0.005,-0.0087 -0.007,-0.01454 -0.0116,-0.02448 l -0.0151,-0.03387 -0.028,-0.06608 c -0.0755,-0.177616 -0.15829,-0.352287 -0.24295,-0.526406 -0.0225,-0.04601 -0.0455,-0.09129 -0.069,-0.136571 l 0.71745,-1.483139 0.0287,0.0042 0.0144,0.0029 0.0166,0.03736 c 0.0755,0.177615 0.15608,0.353023 0.23522,0.52843 0.0624,0.133074 0.12498,0.265964 0.1883,0.398301 0.10343,0.215716 0.21055,0.430696 0.3278,0.641994 0.0361,0.06755 0.072,0.13381 0.10859,0.200623 z m -3.18141,-2.949161 c 0.0977,-0.0138 0.19492,-0.02669 0.29265,-0.03884 0.004,0.0416 0.0265,0.07473 0.0639,0.08908 7.1e-4,0 7.1e-4,0 10e-4,7.41e-4 0.009,0.0035 0.0195,0.0057 0.0302,0.0064 l 1.43435,0.137307 c 0.0331,0.0037 0.0698,-0.005 0.10509,-0.02301 0.0158,-0.0079 0.0322,-0.01859 0.0473,-0.03092 0.0388,-0.03018 0.0734,-0.07049 0.095,-0.116509 l 0.0977,-0.209089 c 0.0683,-0.0044 0.13657,-0.0079 0.2043,-0.0138 l 0.43923,-0.03736 c 0.004,0.0064 0.008,0.01233 0.0131,0.01877 0.0208,0.02577 0.051,0.05393 0.0883,0.06976 0.0366,0.01509 0.0747,0.01785 0.0999,0.01859 l 0.2286,0.0173 c 0.0403,0.0029 0.0799,0.0057 0.12092,0.0087 l 0.63039,0.08191 0.45444,0.05835 7e-4,7.41e-4 c 0.006,0 0.0121,5.65e-4 0.018,5.65e-4 0.0237,0 0.046,-0.0057 0.0661,-0.01638 0.0121,-0.0066 0.023,-0.01454 0.0316,-0.02374 0.0166,-0.01804 0.0252,-0.03884 0.0302,-0.06037 0.046,0.0072 0.0928,0.01288 0.13804,0.0208 0.0445,0.0064 0.0891,0.01362 0.12939,0.02724 0.0195,0.0064 0.0403,0.0173 0.0445,0.02945 0.004,0.01012 -0.007,0.02595 -0.0215,0.03755 -0.0769,0.0085 -0.1546,0.01509 -0.23154,0.02227 -0.028,0.0028 -0.0554,0.0057 -0.0819,0.0079 -0.0596,0.0057 -0.11872,0.0092 -0.17762,0.01362 -0.0107,7.41e-4 -0.0215,0.0015 -0.0331,0.0028 -0.0985,0.0074 -0.19694,0.01454 -0.29615,0.02025 -0.0653,0.005 -0.13013,0.0094 -0.19491,0.01362 -0.0891,0.0064 -0.17817,0.0116 -0.26744,0.01878 -0.10639,0.0085 -0.21424,0.01712 -0.32062,0.02798 -0.0129,0.0015 -0.0258,0.0029 -0.0388,0.0037 -0.003,5.64e-4 -0.005,5.64e-4 -0.008,0.0013 -0.0151,0.0015 -0.0309,0.0029 -0.0468,0.0052 -0.0166,0.0013 -0.0322,0.0028 -0.048,0.0042 -0.002,7.41e-4 -0.004,7.41e-4 -0.007,7.41e-4 -0.0337,0.0037 -0.0676,0.0072 -0.10123,0.01086 -0.0237,0.0028 -0.0475,0.005 -0.0712,0.0072 l -0.63775,0.07031 c -0.0539,0.0066 -0.10491,0.01086 -0.15663,0.01509 -0.004,0 -0.007,0 -0.0109,0 -0.0116,0.0015 -0.0193,0.0044 -0.0453,-5.65e-4 l -0.0215,-0.0022 -0.0583,-0.0072 -0.008,-0.0015 -0.0114,-7.41e-4 -0.10068,-0.01215 -0.19988,-0.02448 -0.43419,-0.05172 -0.20578,-0.02448 c -0.21277,-0.02448 -0.42627,-0.04749 -0.64052,-0.06681 l -0.0502,-0.0052 -0.0576,-0.005 -0.018,-0.0015 -0.19547,-0.01878 -0.0769,-0.0079 c -0.0201,-0.002 -0.0396,-0.0085 -0.0475,-0.01436 l -0.006,-0.0072 c -10e-4,-0.002 -0.002,-0.0057 0,-0.01215 0.002,-0.01012 0.0114,-0.02227 0.0223,-0.03515 m 4.45968,-0.195654 0.0188,0.04031 c 0.009,0.0208 0.0121,0.0381 0.0129,0.05319 0,0.0022 7.1e-4,0.005 7.1e-4,0.0072 0,0.0022 -7.1e-4,0.0029 -7.1e-4,0.005 0,0.0044 -7.1e-4,0.0086 -10e-4,0.01233 -0.002,0.0064 -0.004,0.01067 -0.006,0.01215 -0.004,0.0037 -0.006,0.0057 -0.0186,0.0064 l -0.007,-7.41e-4 -1.08409,-0.140069 c -0.0136,-0.0029 -0.0267,-0.0052 -0.0396,-0.0079 -0.0267,-0.0052 -0.0532,-0.0094 -0.0799,-0.01509 l -0.1502,-0.02816 -0.0747,-0.01362 c -0.0245,-0.0042 -0.0374,-0.0094 -0.0467,-0.01583 -0.008,-0.005 -0.0136,-0.01141 -0.0215,-0.02522 -0.004,-0.0072 -0.009,-0.01712 -0.0138,-0.02798 -0.003,-0.0064 -0.006,-0.01362 -0.008,-0.02153 -0.007,-0.02025 -0.0158,-0.04105 -0.0237,-0.06184 -0.002,-0.005 -0.004,-0.0086 -0.006,-0.01288 -0.007,-0.01951 -0.0151,-0.03884 -0.023,-0.05761 -0.0344,-0.08909 -0.0703,-0.177616 -0.10914,-0.264492 -0.0361,-0.08853 -0.0762,-0.176143 -0.11651,-0.262466 -0.0173,-0.03884 -0.0366,-0.07694 -0.0547,-0.115773 l 0.70457,-1.514244 0.0381,0.08927 c 0.0742,0.176143 0.15313,0.350078 0.2308,0.524749 0.15958,0.34879 0.32063,0.695371 0.50542,1.03459 0.0359,0.06626 0.0712,0.132337 0.10638,0.198414 z m 1.32796,2.873697 -0.25878,-0.603158 c -0.023,-0.06553 -0.0453,-0.132338 -0.0675,-0.198415 -0.1108,-0.340139 -0.24663,-0.671627 -0.38394,-1.002195 -0.0705,-0.163995 -0.14025,-0.329464 -0.21424,-0.492539 l -0.0554,-0.122214 c -0.0114,-0.02669 -0.0267,-0.05319 -0.0438,-0.07694 0.0653,-0.0087 0.1143,-0.01509 0.14154,-0.01877 l 0.0331,-0.0042 0.0237,-0.02098 c 0.074,-0.06313 0.0675,-0.124975 0.0567,-0.156633 -0.0315,-0.09276 -0.15516,-0.116509 -0.26946,-0.130129 l -0.16897,-0.02816 c -0.002,-0.0042 -0.003,-0.0092 -0.005,-0.01436 v -7.41e-4 l -0.28528,-0.64273 c -0.0252,-0.06976 -0.0504,-0.140069 -0.0756,-0.209827 -0.12571,-0.361673 -0.27535,-0.713224 -0.42627,-1.064222 -0.0784,-0.174671 -0.15461,-0.350078 -0.23504,-0.523277 l -0.0611,-0.130865 c -0.009,-0.01804 -0.0237,-0.05117 -0.0403,-0.07546 -0.0166,-0.02669 -0.0353,-0.05043 -0.0569,-0.0727 -0.0431,-0.04381 -0.0928,-0.08338 -0.16749,-0.107858 -0.009,-0.0029 -0.0193,-0.005 -0.0295,-0.0079 -0.009,-0.0015 -0.0245,-0.0035 -0.0295,-0.0035 l -0.0381,-0.0037 -0.0755,-0.0057 c -0.20209,-0.0173 -0.40493,-0.03387 -0.60684,-0.04675 -0.10141,-0.0064 -0.20282,-0.01288 -0.30424,-0.01804 l -0.30976,-0.01656 c -0.0381,-0.0013 -0.0885,0.01951 -0.11007,0.05687 -0.007,0.0094 -0.0114,0.02006 -0.0144,0.03019 -10e-4,0.005 -0.002,0.0094 -0.004,0.01362 -7e-4,0.0029 -10e-4,0.0052 -0.002,0.0087 -7e-4,0.0064 -10e-4,0.01362 -0.002,0.02153 -0.0525,0.03018 -0.10141,0.08062 -0.12939,0.139516 l -1.24312,2.673257 c -0.20283,0.02153 -0.34013,0.03589 -0.36388,0.03884 l -0.0337,0.0035 -0.026,0.02153 c -0.10271,0.08853 -0.0891,0.173382 -0.0777,0.205592 0.0109,0.0324 0.0519,0.110067 0.19491,0.128105 l 0.13087,0.01785 c -0.002,0.0022 -0.004,0.0059 -0.006,0.0079 l -1.33164,2.75369 c -0.0495,0.105097 -0.0151,0.19639 0.0791,0.205593 l 1.51699,0.139516 c 0.0935,0.0094 0.21074,-0.06902 0.26099,-0.173935 l 0.48462,-1.000907 c 0,7.41e-4 10e-4,0.0015 10e-4,0.0029 0.0733,0.178352 0.1502,0.355232 0.23284,0.529903 l 0.0316,0.06534 0.0151,0.0324 c 0.006,0.01233 0.0136,0.02816 0.0215,0.04031 0.0339,0.05098 0.0749,0.09424 0.1259,0.129392 0.0252,0.0173 0.0532,0.03313 0.0849,0.04454 0.0151,0.0064 0.0324,0.01159 0.051,0.01436 0.009,0.0022 0.0195,0.0029 0.0281,0.0037 l 0.0201,0.0015 0.15387,0.005 c 0.0698,0.0022 0.13952,0.0044 0.20928,0.0064 l 1.01378,0.0935 c 0.006,0 0.0114,7.41e-4 0.0179,7.41e-4 0.0381,0 0.0762,-0.01288 0.10068,-0.03884 0.004,-0.0042 0.007,-0.0087 0.0101,-0.01288 l 0.0171,0.0015 c 0.0848,0.0085 0.19068,-0.06552 0.23596,-0.164732 l 0.37953,-0.824027 c 0.0475,0.117245 0.0964,0.233753 0.1489,0.350262 l 0.0554,0.122215 c 0.0236,0.04951 0.0589,0.097 0.10049,0.133625 0.0433,0.03755 0.0915,0.0705 0.16105,0.08559 0.009,0.0015 0.0188,0.0022 0.0274,0.0037 l 0.0186,7.41e-4 0.0361,0.0015 0.0705,0.002 c 0.0653,0.0022 0.13086,0.0037 0.19546,0.0052 l 0.94035,0.09129 0.004,-0.03884 -0.004,0.03884 c 0.006,7.41e-4 0.0116,0.0015 0.0173,0.0015 0.0361,0 0.072,-0.0138 0.0957,-0.03884 0.023,-0.02595 0.0324,-0.05761 0.0324,-0.09 0,-0.02945 -0.007,-0.06037 -0.021,-0.09203"
       style="fill:#21201d;fill-opacity:1;fill-rule:nonzero;stroke:none;stroke-width:0.184057"
       id="path382" />
  </g>
</svg>
