<?xml version="1.0" encoding="UTF-8" standalone="no"?>
<!-- Created with Inkscape (http://www.inkscape.org/) -->

<svg
   width="6.2215199mm"
   height="5.5153189mm"
   viewBox="0 0 6.2215199 5.5153189"
   version="1.1"
   id="svg1706"
   inkscape:version="1.1.2 (0a00cf5339, 2022-02-04)"
   sodipodi:docname="z2.svg"
   xmlns:inkscape="http://www.inkscape.org/namespaces/inkscape"
   xmlns:sodipodi="http://sodipodi.sourceforge.net/DTD/sodipodi-0.dtd"
   xmlns="http://www.w3.org/2000/svg"
   xmlns:svg="http://www.w3.org/2000/svg">
  <sodipodi:namedview
     id="namedview1708"
     pagecolor="#ffffff"
     bordercolor="#666666"
     borderopacity="1.0"
     inkscape:pageshadow="2"
     inkscape:pageopacity="0.0"
     inkscape:pagecheckerboard="0"
     inkscape:document-units="mm"
     showgrid="false"
     inkscape:zoom="0.64052329"
     inkscape:cx="-1167.7952"
     inkscape:cy="681.47405"
     inkscape:window-width="2560"
     inkscape:window-height="1376"
     inkscape:window-x="0"
     inkscape:window-y="0"
     inkscape:window-maximized="1"
     inkscape:current-layer="layer1" />
  <defs
     id="defs1703" />
  <g
     inkscape:label="Layer 1"
     inkscape:groupmode="layer"
     id="layer1"
     transform="translate(-414.0889,31.673291)">
    <path
       d="m 420.1415,-29.884681 c 0.0243,0.04307 0.048,0.08264 0.0718,0.118533 0.0245,0.03534 0.0359,0.07988 0.0359,0.132337 0,0.01509 -7.1e-4,0.02669 -0.004,0.03663 -0.002,0.0094 -0.004,0.0208 -0.004,0.03534 -0.004,0.0099 -0.007,0.0208 -0.007,0.03221 v 0.03239 c -0.004,0.02374 -0.0114,0.04675 -0.0215,0.06829 -0.009,0.02153 -0.0143,0.04454 -0.0143,0.06828 -0.004,0.01951 -0.006,0.0381 -0.004,0.05761 0.003,0.01933 0.001,0.0381 -0.004,0.05743 -0.004,0.02374 -0.007,0.04896 -0.007,0.07546 0,0.02595 -0.004,0.05117 -0.0144,0.07565 -0.004,0.0092 -0.008,0.01785 -0.0101,0.0243 -0.003,0.0074 -0.004,0.01583 -0.004,0.02595 -0.004,0.01362 -0.009,0.02595 -0.0144,0.03589 -0.004,0.0094 -0.009,0.01877 -0.0138,0.02816 -0.01,0.01933 -0.0179,0.03736 -0.0251,0.05393 -0.008,0.01712 -0.0138,0.03515 -0.0188,0.05393 -0.009,0.01933 -0.0188,0.04086 -0.0287,0.06461 -0.009,0.02374 -0.0166,0.04822 -0.0216,0.07197 -0.004,0.02374 -0.009,0.04896 -0.0138,0.07546 -0.005,0.02669 -0.009,0.05393 -0.0144,0.08264 -0.005,0.01436 -0.01,0.03092 -0.0144,0.0497 -0.005,0.01932 -0.009,0.03663 -0.0144,0.05098 -0.005,0.01435 -0.0121,0.02595 -0.0215,0.03534 -0.0101,0.0099 -0.0195,0.01932 -0.0287,0.02871 -0.0195,0.0099 -0.0526,0.01933 -0.10068,0.02871 -0.0482,0.01013 -0.0791,0.0029 -0.0935,-0.0208 -0.005,-0.01012 -0.006,-0.02448 -0.004,-0.04399 0.002,-0.01859 0.004,-0.03515 0.004,-0.05025 v -0.09276 c 0.0237,-0.04307 0.0561,-0.08632 0.097,-0.129393 0.041,-0.04307 0.0683,-0.09129 0.0821,-0.143749 0.0201,-0.07197 0.0287,-0.144485 0.0287,-0.218661 0,-0.07473 -0.004,-0.14743 -0.0136,-0.219212 -0.0101,-0.09571 -0.021,-0.19639 -0.0324,-0.30204 -0.0124,-0.104913 -0.0468,-0.196205 -0.10436,-0.272405 0,-0.01436 7.1e-4,-0.02743 0.004,-0.03957 0.002,-0.01215 0.004,-0.02301 0.004,-0.0324 0,-0.02375 -0.008,-0.05246 -0.025,-0.08632 -0.0166,-0.03368 -0.0302,-0.05963 -0.0396,-0.07896 -0.009,-0.0094 -0.0166,-0.01804 -0.0216,-0.02522 -0.004,-0.0072 -0.0123,-0.01583 -0.0215,-0.02522 -0.009,-0.0094 -0.0166,-0.02006 -0.0217,-0.0324 -0.005,-0.01141 -0.009,-0.02503 -0.0144,-0.03939 -0.004,-0.0138 -0.007,-0.0289 -0.007,-0.04252 0,-0.01509 -0.002,-0.02871 -0.007,-0.04381 0,-0.01362 -0.004,-0.02595 -0.0144,-0.03534 -0.009,-0.0099 -0.0166,-0.01933 -0.0215,-0.02871 -0.0144,-0.01933 -0.026,-0.04233 -0.0354,-0.06829 -0.01,-0.0265 -0.0287,-0.0416 -0.0574,-0.04675 -0.0101,0 -0.0188,7.41e-4 -0.026,0.0037 -0.006,0.002 -0.0158,0.0035 -0.0245,0.0035 -0.0151,-0.005 -0.0287,-0.0086 -0.0431,-0.01067 -0.0144,-0.0029 -0.0287,-0.0037 -0.0431,-0.0037 -0.0237,-0.005 -0.0467,-0.0028 -0.0683,0.0072 -0.0217,0.0094 -0.0447,0.01436 -0.0685,0.01436 l 0.3948,-0.55291 c 0.0381,-0.01932 0.0769,-0.03939 0.11503,-0.06111 0.0381,-0.02153 0.0792,-0.0416 0.12222,-0.06111 -0.005,0.02374 -0.006,0.04675 -0.004,0.06828 0.002,0.02172 0.008,0.04399 0.0171,0.06847 0.005,0.01436 0.013,0.02724 0.0223,0.03939 0.009,0.0116 0.0166,0.02522 0.0217,0.03957 0.005,0.0094 0.008,0.01657 0.0107,0.02098 0.002,0.005 0.006,0.01215 0.0109,0.02153 0.0144,0.02448 0.0309,0.04602 0.0495,0.06534 0.0195,0.01878 0.0339,0.04031 0.044,0.06405 0.009,0.01933 0.0179,0.03957 0.0243,0.06111 0.007,0.02153 0.0138,0.04233 0.018,0.06111 0,0.01436 -7.1e-4,0.02871 -0.003,0.04307 -0.003,0.01436 -0.006,0.0289 -0.0107,0.04325 0,0.01436 7e-4,0.02724 0.003,0.03957 0.003,0.01215 0.001,0.02503 -0.003,0.03939 0,0.0289 0.002,0.05761 0.006,0.08632 0.005,0.02871 0.007,0.05761 0.007,0.08632 v 0.272405 c 0.005,0.01436 0.0121,0.0289 0.0215,0.04325 0.0101,0.01436 0.0173,0.02871 0.0223,0.04307 0.004,0.0094 0.007,0.02153 0.007,0.03589 0,0.01436 0.003,0.02669 0.007,0.03608 m -1.12017,-1.034037 c -0.004,0 -0.0109,0.0022 -0.018,0.0074 -0.007,0.0042 -0.0129,0.0092 -0.018,0.01436 l -0.0718,0.03589 c 0,-0.01933 0.003,-0.03387 0.007,-0.04381 0.005,-0.0094 0.01,-0.02153 0.0151,-0.03534 0.0136,-0.02871 0.0265,-0.05595 0.0396,-0.08264 0.0114,-0.0265 0.0243,-0.05393 0.0388,-0.08264 0.01,-0.01951 0.0164,-0.0381 0.0215,-0.05761 0.005,-0.01933 0.007,-0.0381 0.007,-0.05743 0.005,-0.01436 0.01,-0.02595 0.0144,-0.03589 0.005,-0.0094 0.0101,-0.01878 0.0144,-0.0289 0,-0.0092 10e-4,-0.01657 0.004,-0.02153 0.002,-0.0042 0.004,-0.0094 0.004,-0.01362 0.004,0.0042 0.007,0.0094 0.007,0.01362 v 0.01436 c 0,0.01436 0.001,0.0289 0.004,0.04325 0.003,0.01436 0.004,0.02871 0.004,0.04307 0,0.02871 -0.002,0.05742 -0.007,0.08632 -0.005,0.02871 -0.009,0.0554 -0.0144,0.07896 0,0.01877 -0.004,0.0381 -0.0109,0.05687 -0.007,0.01933 -0.0107,0.03884 -0.0107,0.05761 -0.004,0 -0.009,0.0013 -0.0143,0.0042 -0.005,0.0022 -0.0101,0.0035 -0.0144,0.0035 m -0.17191,-0.244429 c -0.0101,-0.005 -0.0245,-0.01436 -0.0431,-0.02871 -0.0195,-0.01436 -0.0267,-0.02871 -0.0223,-0.04307 h 0.41689 c 0.0433,0 0.0826,-0.0022 0.11798,-0.0072 0.0366,-0.0044 0.0733,-0.0072 0.11209,-0.0072 h 0.0425 c -0.005,0.005 -0.008,0.01067 -0.0109,0.01785 -0.002,0.0072 -0.006,0.01307 -0.0101,0.01804 l -0.0933,0.0646 c -0.0145,0.0052 -0.0304,0.0079 -0.0467,0.01086 -0.0173,0.0022 -0.0324,0.01086 -0.0468,0.02522 -0.005,0.005 -0.0101,0.0094 -0.0144,0.01436 -0.005,0.0042 -0.009,0.0094 -0.0145,0.01436 -0.0144,-0.005 -0.0302,-0.0072 -0.0466,-0.0072 -0.0166,0 -0.0324,-0.0029 -0.0468,-0.0072 -0.0188,-0.005 -0.0361,-0.01215 -0.0504,-0.02153 -0.0143,-0.01012 -0.0337,-0.01657 -0.0574,-0.02153 -0.0101,0 -0.0203,-0.0015 -0.0324,-0.0037 -0.0121,-0.0022 -0.0252,-0.0037 -0.0396,-0.0037 -0.0186,-0.0042 -0.0381,-0.0057 -0.0567,-0.0035 -0.0195,0.0022 -0.0388,-7.4e-4 -0.0576,-0.01086 m -0.35228,0.675124 c -0.0193,0.0094 -0.0359,0.02172 -0.0503,0.03608 -0.0145,0.01436 -0.026,0.03295 -0.0361,0.05743 l -0.0935,0.05043 c 0.005,-0.0289 0.0123,-0.05908 0.0217,-0.09001 0.01,-0.03092 0.0193,-0.06111 0.0287,-0.08982 0.0144,-0.0381 0.028,-0.07694 0.0396,-0.115036 0.0121,-0.0381 0.025,-0.07694 0.0396,-0.115036 0.005,-0.02374 0.009,-0.04528 0.0143,-0.06405 0.005,-0.01933 0.0121,-0.04086 0.0215,-0.06534 0,-0.0044 0.002,-0.0116 0.007,-0.02153 0.005,-0.0094 0.009,-0.01657 0.0144,-0.02153 0,-0.0044 0.004,-0.0138 0.0109,-0.0289 0.007,-0.01362 0.0158,-0.0208 0.0251,-0.0208 0,0.01435 -0.001,0.02945 -0.004,0.04675 -0.002,0.01657 -0.006,0.0324 -0.0109,0.04602 0,0.03884 -0.001,0.07546 -0.004,0.111355 -0.003,0.03608 -0.006,0.07344 -0.0109,0.111539 -0.005,0.02374 -0.007,0.05025 -0.007,0.07915 v 0.08614 c 0,0.0044 -0.002,0.0072 -0.007,0.0072 m -0.21571,-0.215715 c -0.0186,-0.0092 -0.0351,-0.01785 -0.0503,-0.02503 -0.0138,-0.0072 -0.0289,-0.02025 -0.0425,-0.03957 0.0374,-0.0094 0.0777,-0.0116 0.11798,-0.0072 0.0409,0.005 0.0804,0.0072 0.11854,0.0072 h 0.11503 c 0.0525,0 0.1051,-0.0022 0.15755,-0.0072 0.0532,-0.0044 0.10565,-0.0094 0.15885,-0.01362 -0.005,0 -0.009,0.0028 -0.0107,0.0099 -0.003,0.0072 -0.004,0.01307 -0.004,0.01804 v 0.02153 h -0.007 v 0.02153 c 0,0.0052 0.003,0.0072 0.007,0.0072 -0.0136,0.01012 -0.0245,0.01951 -0.0316,0.0289 -0.007,0.0099 -0.0136,0.02153 -0.0179,0.03589 -0.0101,0.005 -0.0195,0.0087 -0.0289,0.01086 -0.01,0.002 -0.0215,0.0057 -0.0366,0.01067 -0.009,0.0052 -0.0201,0.01012 -0.0316,0.01436 -0.0121,0.0052 -0.0208,0.0116 -0.0257,0.02153 -0.009,-0.005 -0.0188,-0.0085 -0.0289,-0.01067 -0.009,-0.0022 -0.0186,-0.0057 -0.0287,-0.01086 -0.023,-0.0092 -0.0482,-0.01657 -0.0747,-0.02153 -0.0267,-0.005 -0.0517,-0.01141 -0.0755,-0.02153 -0.0289,-0.005 -0.0584,-0.01159 -0.09,-0.02153 -0.0309,-0.0094 -0.0611,-0.01877 -0.0898,-0.0289 m -0.47377,0.682487 v -0.06479 c 0,-0.02374 0.003,-0.04675 0.007,-0.06828 0.005,-0.02153 0.007,-0.04381 0.007,-0.06829 0.005,-0.0094 0.007,-0.02025 0.007,-0.0324 0,-0.0116 0.003,-0.02227 0.007,-0.03166 0,-0.01933 0.004,-0.03736 0.0109,-0.05393 0.007,-0.0173 0.0136,-0.0324 0.0179,-0.04675 0.004,-0.01436 0.009,-0.0265 0.0109,-0.03589 0.002,-0.01012 0.006,-0.01951 0.0109,-0.02871 0.005,-0.01012 0.009,-0.01951 0.0144,-0.0289 0.005,-0.0099 0.007,-0.01932 0.007,-0.02871 v -0.02871 c 0,-0.0044 0.001,-0.0087 0.004,-0.01086 0.002,-0.002 0.004,-0.0057 0.004,-0.01068 0.005,0.08117 0.009,0.161787 0.0144,0.240748 0.005,0.07915 0.0101,0.159026 0.0144,0.240196 -0.009,0.005 -0.018,0.0086 -0.0252,0.01086 -0.007,0.002 -0.0129,0.0064 -0.0179,0.01068 -0.005,0.0094 -0.009,0.0173 -0.0143,0.02153 -0.004,0.0052 -0.009,0.01233 -0.0145,0.02172 z m 0.0503,-0.165468 c -0.0144,-0.0042 -0.0631,-0.01859 -0.14724,-0.04233 -0.0836,-0.02448 -0.1086,-0.04822 -0.0749,-0.07197 0.004,-0.005 0.0138,-0.0072 0.0289,-0.0072 h 0.0926 c 0.0388,-0.005 0.0756,-0.0044 0.11153,0.0029 0.0359,0.0079 0.0733,0.01067 0.11136,0.01067 0.0331,0 0.0655,0.0015 0.0964,0.0044 0.0316,0.002 0.0639,0.0035 0.0977,0.0035 0.0144,0 0.026,7.41e-4 0.0359,0.0029 0.009,0.0028 0.0188,0.0064 0.0289,0.01068 -0.0101,0.0052 -0.0188,0.01086 -0.026,0.01804 -0.006,0.0079 -0.0129,0.01583 -0.0173,0.02595 -0.0144,0.01362 -0.0265,0.02374 -0.0359,0.02871 -0.0101,0.0042 -0.0215,0.01141 -0.0359,0.0208 -0.005,0 -0.0101,0.0015 -0.0144,0.0037 -0.005,0.0028 -0.0101,0.0064 -0.0145,0.01068 -0.005,-0.0042 -0.0107,-0.0072 -0.0186,-0.0072 -0.006,0 -0.0129,-0.0022 -0.0173,-0.0072 h -0.0574 c -0.0237,-0.005 -0.049,-0.0057 -0.0756,-0.0035 -0.0258,0.0028 -0.0488,0.0013 -0.0683,-0.0037 m -0.45222,0.467323 c 0.005,-0.02448 0.007,-0.04951 0.007,-0.07546 v -0.08264 c 0.005,-0.04325 0.009,-0.08632 0.0138,-0.129393 0.005,-0.04325 0.0129,-0.08356 0.0223,-0.121662 -0.0245,0.02816 -0.0396,0.05908 -0.0468,0.09276 -0.007,0.03387 -0.0158,0.067 -0.0252,0.10068 -0.009,0.01436 -0.018,0.02871 -0.0252,0.04325 -0.007,0.01436 -0.0129,0.02871 -0.0179,0.04307 -0.005,0.01878 -0.0109,0.03663 -0.018,0.05393 -0.007,0.01657 -0.0129,0.0324 -0.018,0.04675 -0.005,0.0094 -0.009,0.02006 -0.0144,0.0324 -0.004,0.01141 -0.007,0.02227 -0.007,0.03166 z m -0.0144,-0.122215 c -0.0337,-0.01932 -0.0718,-0.03736 -0.11504,-0.05393 -0.0431,-0.01657 -0.0762,-0.04454 -0.10067,-0.08264 0.0143,-0.005 0.0339,-0.0057 0.0576,-0.0037 0.0238,0.0022 0.0431,0.0037 0.0574,0.0037 h 0.24443 c 0.0331,0 0.0641,0.0035 0.0928,0.01067 0.0289,0.0074 0.0604,0.01307 0.0935,0.01804 0.0144,0 0.0267,0.0022 0.0359,0.0072 0.0101,0.0044 0.0217,0.0072 0.0361,0.0072 l -0.0504,0.03608 c -0.0186,0.005 -0.0366,0.01141 -0.0539,0.02153 -0.0166,0.0094 -0.0344,0.01657 -0.0532,0.02153 -0.0287,0.0042 -0.0532,0.01215 -0.0718,0.02153 -0.0195,0.0094 -0.0361,0.02374 -0.0512,0.04325 -0.0186,-0.0052 -0.0388,-0.01233 -0.0604,-0.02172 -0.0216,-0.0099 -0.0416,-0.01932 -0.0611,-0.02871 m -0.43143,0.430696 c -0.009,0.005 -0.0208,0.0086 -0.0351,0.01067 -0.0144,0.0022 -0.0267,0.0059 -0.0359,0.01086 l -0.0576,0.0072 v -0.05743 c 0,-0.01877 0.005,-0.0381 0.0144,-0.05761 0.004,-0.02374 0.0109,-0.04749 0.0173,-0.07178 0.008,-0.02374 0.0136,-0.04749 0.0188,-0.07197 0,-0.0094 0.002,-0.0381 0.007,-0.08559 0.004,-0.04822 0.0114,-0.07197 0.0215,-0.07197 0.004,0.0094 0.007,0.02025 0.007,0.0324 v 0.02448 c 0,0.01932 7e-4,0.03663 0.003,0.05025 0.003,0.01509 10e-4,0.0289 -0.003,0.04399 0,0.02871 0.002,0.05466 0.007,0.07841 0.004,0.02429 0.0114,0.04804 0.0215,0.07178 0.004,0.01012 0.007,0.01951 0.007,0.02871 v 0.0289 c 0,0.005 7.1e-4,0.0099 0.004,0.01435 0.002,0.005 0.003,0.0094 0.003,0.01436 m -0.12866,-0.158106 c -0.0144,-0.0044 -0.0337,-0.01012 -0.0574,-0.0173 -0.0237,-0.0079 -0.041,-0.01583 -0.0504,-0.02595 -0.0144,-0.01362 -0.0166,-0.02448 -0.007,-0.0324 0.009,-0.0072 0.0237,-0.0079 0.0433,-0.0028 h 0.0502 c 0.0287,0.0042 0.0576,0.0079 0.0863,0.01067 0.0287,0.0022 0.0574,0.0029 0.0861,0.0029 0.0331,0 0.0692,0.0042 0.10731,0.01086 0.0381,0.0072 0.0747,0.01583 0.10767,0.02577 -0.009,0.0044 -0.0193,0.0079 -0.0287,0.01086 -0.009,0.002 -0.0186,0.0079 -0.0287,0.0173 -0.0144,0.0099 -0.026,0.0208 -0.0359,0.03221 -0.009,0.01233 -0.0188,0.02522 -0.0289,0.03957 l -0.0359,0.01436 c -0.0287,0 -0.051,-0.0072 -0.0675,-0.02153 -0.0173,-0.01436 -0.0374,-0.02374 -0.0611,-0.02871 -0.0144,-0.0044 -0.028,-0.0094 -0.0396,-0.01362 -0.0121,-0.0052 -0.0252,-0.01233 -0.0396,-0.02227 m -0.45296,0.510393 c -0.004,0 -0.009,7.41e-4 -0.0136,0.0037 -0.005,0.002 -0.0101,0.0057 -0.0143,0.01068 l -0.1086,-0.07197 c 0,-0.0099 0.003,-0.01933 0.008,-0.02871 0.005,-0.0099 0.007,-0.01933 0.007,-0.02871 0.004,-0.01436 0.0116,-0.02871 0.0215,-0.04307 0.009,-0.01454 0.0188,-0.0289 0.0289,-0.04325 0.009,-0.01436 0.0186,-0.02798 0.0287,-0.03957 0.009,-0.01215 0.0186,-0.02798 0.0287,-0.04675 v -0.02871 c 0.004,-0.01435 0.0109,-0.02871 0.018,-0.04307 0.006,-0.01435 0.0129,-0.02669 0.0179,-0.03589 0,-0.0044 7.1e-4,-0.01086 0.004,-0.01804 0.002,-0.0072 0.003,-0.01288 0.003,-0.01804 v -0.0173 c 0,-0.0077 0.003,-0.01362 0.007,-0.01859 0.01,0.01012 0.0136,0.02798 0.0107,0.05393 -0.002,0.0265 -0.006,0.04454 -0.0107,0.05393 -0.004,0.02871 -0.0101,0.0589 -0.018,0.08982 -0.007,0.03092 -0.0109,0.06332 -0.0109,0.097 v 0.08632 c 0,0.02871 -0.002,0.05761 -0.007,0.08632 m -0.12148,-0.230072 c -0.0101,-0.005 -0.0287,-0.01436 -0.0574,-0.02871 -0.0289,-0.01435 -0.0388,-0.0289 -0.0289,-0.04325 0.0425,-0.0092 0.0849,-0.01067 0.12589,-0.0035 0.0403,0.0072 0.0799,0.01583 0.11798,0.02522 0.0337,0.0092 0.0661,0.01436 0.097,0.01436 0.0316,0 0.0611,0.005 0.0898,0.01435 0.0144,0.005 0.0287,0.0086 0.0433,0.01067 0.0144,0.0022 0.0265,0.0059 0.0359,0.01086 -0.0144,0.0094 -0.0274,0.02153 -0.0396,0.03589 -0.0114,0.01436 -0.0252,0.03092 -0.0396,0.05043 -0.009,0.0094 -0.0186,0.01785 -0.0287,0.02503 -0.009,0.0072 -0.0188,0.01509 -0.0287,0.02522 -0.0144,-0.005 -0.026,-0.01067 -0.0361,-0.01804 -0.009,-0.0072 -0.0186,-0.01362 -0.0287,-0.01785 h -0.0431 c -0.004,-0.005 -0.009,-0.0087 -0.0136,-0.01086 -0.005,-0.0028 -0.008,-0.0057 -0.008,-0.01068 -0.004,-0.0052 -0.009,-0.0072 -0.0138,-0.0072 h -0.0151 c -0.0237,-0.01012 -0.0453,-0.02172 -0.0639,-0.03608 -0.0195,-0.01436 -0.0411,-0.0265 -0.0648,-0.03589 m -0.33793,0.531375 v -0.0935 c 0,-0.01436 -7e-4,-0.02595 -0.004,-0.03589 -0.002,-0.0094 -0.004,-0.01877 -0.004,-0.0289 0,-0.01859 -7.1e-4,-0.03589 -0.004,-0.05025 -0.002,-0.01436 -0.006,-0.02871 -0.0109,-0.04252 v -0.04657 c 0,-0.0173 -0.004,-0.0324 -0.0143,-0.04675 0,0.0042 -7.1e-4,0.0099 -0.004,0.01785 -0.002,0.0072 -0.004,0.01307 -0.004,0.01804 -0.009,0.02374 -0.0202,0.04749 -0.0324,0.07123 -0.0116,0.02429 -0.0223,0.05025 -0.0316,0.07896 -0.005,0.03387 -0.0101,0.06976 -0.0151,0.107858 -0.004,0.0381 -0.009,0.07418 -0.0136,0.107858 z m 0.67512,0.746907 c -0.0331,0.17191 -0.0482,0.348053 -0.0431,0.527694 0.005,0.179824 0.005,0.358177 0,0.535056 -0.005,0.01436 -0.0109,0.02871 -0.018,0.04307 -0.007,0.01436 -0.0129,0.02669 -0.018,0.03589 -0.009,0.01454 -0.0186,0.0289 -0.0287,0.04325 -0.009,0.01435 -0.0186,0.02871 -0.0287,0.04307 -0.009,0.01435 -0.0188,0.02945 -0.0287,0.04675 -0.009,0.01657 -0.0188,0.02945 -0.0281,0.03957 -0.0151,0.01436 -0.0317,0.02724 -0.0503,0.03957 -0.0195,0.01141 -0.0359,0.02227 -0.051,0.03166 -0.004,0.005 -0.009,0.0086 -0.0138,0.01141 -0.005,0.0022 -0.01,0.0057 -0.0151,0.01086 v 0.02153 c -0.004,0.0042 -0.0114,0.0094 -0.0208,0.01362 -0.0237,0.02448 -0.0445,0.05043 -0.0611,0.07915 -0.0173,0.02871 -0.0331,0.0554 -0.0468,0.07896 -0.0193,0.03387 -0.0396,0.05761 -0.0611,0.07197 -0.0215,0.01435 -0.049,0.02153 -0.0827,0.02153 -0.0143,0 -0.0287,-0.0035 -0.0433,-0.01067 -0.0143,-0.0072 -0.0236,-0.01583 -0.0287,-0.02522 -0.0144,-0.01436 -0.0186,-0.0324 -0.0144,-0.05393 0.005,-0.02153 0.0101,-0.03957 0.0144,-0.05393 0.005,-0.01362 0.0109,-0.02945 0.018,-0.04675 0.007,-0.01657 0.0158,-0.0324 0.0252,-0.04601 0.005,-0.005 0.007,-0.01068 0.007,-0.01785 0,-0.0079 0.003,-0.0138 0.007,-0.01804 0.0574,-0.03387 0.10786,-0.07473 0.15093,-0.122215 0.0431,-0.04822 0.0626,-0.113011 0.0576,-0.194181 0,-0.01933 -10e-4,-0.03736 -0.004,-0.05393 -0.002,-0.01657 -0.006,-0.03442 -0.0109,-0.05393 v -0.107858 c -0.005,-0.01362 -0.0107,-0.02724 -0.0179,-0.03957 -0.007,-0.01141 -0.0109,-0.0243 -0.0109,-0.03939 -0.005,-0.0138 -0.007,-0.02595 -0.007,-0.03534 0,-0.01012 -0.002,-0.01933 -0.007,-0.02871 -0.005,-0.01013 -0.009,-0.0208 -0.0144,-0.0324 -0.005,-0.01215 -0.009,-0.02301 -0.0143,-0.0324 0,-0.01436 -0.001,-0.0265 -0.004,-0.03589 -0.002,-0.01012 -0.004,-0.01933 -0.004,-0.02871 -0.005,-0.01435 -0.005,-0.03018 0,-0.04675 0.005,-0.01657 0.007,-0.0346 0.007,-0.05393 v -0.08632 c 0,-0.01859 -10e-4,-0.03663 -0.004,-0.05393 -0.002,-0.01657 -0.006,-0.0324 -0.0107,-0.04675 v -0.1143 c -0.005,-0.03368 -0.0109,-0.07326 -0.018,-0.118533 -0.007,-0.04601 -0.0272,-0.08062 -0.0611,-0.104361 -0.0237,-0.01436 -0.049,-0.02301 -0.0755,-0.02503 -0.026,-0.0029 -0.0517,-0.0059 -0.0755,-0.01086 -0.0144,-0.005 -0.0274,-0.0094 -0.0396,-0.01435 -0.0116,-0.0052 -0.0274,-0.0072 -0.0468,-0.0072 l 0.97697,-0.345109 c -0.0386,0.06258 -0.0703,0.125712 -0.097,0.1905 -0.0258,0.0646 -0.0468,0.138043 -0.0611,0.219213 m -0.79756,-0.89079 c -0.0136,-0.0042 -0.0287,-0.0092 -0.0423,-0.01435 -0.0145,-0.0042 -0.0267,-0.01141 -0.0368,-0.02153 -0.033,-0.01859 -0.0381,-0.03092 -0.0136,-0.03589 0.0237,-0.0044 0.0425,-0.0044 0.0576,0 0.0423,0.005 0.0856,0.005 0.12866,0 0.0431,-0.0044 0.0863,-0.0072 0.12939,-0.0072 0.0195,-0.0044 0.0374,-0.0044 0.0539,0 0.0166,0.005 0.0344,0.0072 0.0532,0.0072 0.0101,-0.0044 0.0201,-0.0072 0.0287,-0.0072 h 0.0289 c -0.004,0.005 -0.0101,0.0087 -0.0173,0.01141 -0.007,0.0022 -0.0131,0.0059 -0.018,0.01086 -0.0238,0.01859 -0.0446,0.03884 -0.0611,0.06037 -0.0166,0.02153 -0.0324,0.04178 -0.0467,0.06111 l -0.0287,0.02153 c -0.0331,-0.02871 -0.0698,-0.04528 -0.10786,-0.05025 -0.0381,-0.0044 -0.074,-0.01657 -0.10785,-0.03608 m -0.33001,0.538553 c -0.0245,0.01509 -0.0468,0.02816 -0.0683,0.03957 -0.0215,0.01215 -0.0445,0.02301 -0.0683,0.03239 0.005,-0.03313 0.007,-0.06681 0.007,-0.10068 0,-0.03313 0.003,-0.06681 0.007,-0.09994 0.005,-0.02871 0.0116,-0.0554 0.0215,-0.07915 0.0101,-0.02374 0.0188,-0.05025 0.0289,-0.07896 0,-0.0052 10e-4,-0.01086 0.004,-0.01804 0.002,-0.0072 0.004,-0.01288 0.004,-0.01804 0.005,0.01436 0.009,0.02945 0.0143,0.04675 0.005,0.01657 0.007,0.0324 0.007,0.04675 0.005,0.01436 0.009,0.02871 0.0107,0.04325 0.002,0.01435 0.006,0.02871 0.0109,0.04307 0,0.01436 10e-4,0.02577 0.004,0.03515 0.002,0.01012 0.007,0.01951 0.0109,0.0289 v 0.05025 c 0.005,0.005 0.007,0.01012 0.007,0.01509 z m -0.21574,-0.136572 c -0.0329,-0.01877 -0.0396,-0.03166 -0.0179,-0.03884 0.0215,-0.0072 0.0394,-0.01067 0.0539,-0.01067 0.0431,0 0.0861,-0.0052 0.12939,-0.01454 0.0431,-0.0092 0.0834,-0.01933 0.12221,-0.02871 h 0.0574 c 0.0188,0 0.0381,-0.0022 0.0576,-0.0072 h 0.0144 c 0.004,0 0.007,-0.0022 0.007,-0.0072 -0.005,0.0094 -0.0109,0.01804 -0.018,0.02522 -0.008,0.0072 -0.0158,0.01288 -0.025,0.01786 -0.0145,0.01951 -0.0289,0.03957 -0.0433,0.06111 -0.0144,0.02172 -0.0317,0.04399 -0.0503,0.06828 -0.0339,-0.01932 -0.0683,-0.02871 -0.10436,-0.02871 -0.0359,0 -0.0703,-0.005 -0.10418,-0.01435 -0.009,-0.005 -0.0223,-0.0087 -0.0396,-0.01141 -0.0166,-0.0022 -0.0295,-0.0059 -0.0396,-0.01086 m -0.2078,0.575182 c 0.0425,-0.02871 0.0655,-0.04822 0.0683,-0.05743 0.002,-0.0094 7.1e-4,-0.0173 -0.004,-0.02172 -0.004,-0.01436 -0.008,-0.0265 -0.0109,-0.03589 -0.002,-0.0094 -0.006,-0.02153 -0.0107,-0.03589 -0.004,-0.01951 -0.0116,-0.03957 -0.0208,-0.06111 -0.0101,-0.02172 -0.0195,-0.04178 -0.0289,-0.06111 -0.005,-0.01436 -0.009,-0.0289 -0.0107,-0.04325 -0.003,-0.01435 -0.004,-0.02871 -0.004,-0.04307 -0.005,0.01012 -0.009,0.01804 -0.0107,0.02522 -0.003,0.0072 -0.004,0.01583 -0.004,0.02503 -0.005,0.0094 -0.0109,0.01951 -0.018,0.0289 -0.007,0.0092 -0.0107,0.01932 -0.0107,0.02871 -0.005,0.005 -0.008,0.01215 -0.008,0.02153 0,0.0094 0.003,0.01951 0.008,0.02871 v 0.0324 c 0,0.01215 0.002,0.02301 0.007,0.03239 0.004,0.01436 0.008,0.02724 0.0107,0.03957 0.002,0.01215 0.006,0.02503 0.0109,0.03957 0.005,0.0092 0.009,0.02006 0.0144,0.03221 0.004,0.0116 0.0116,0.02025 0.0215,0.02522 m 0.15037,-0.143749 c 0,-0.0052 -0.004,-0.0072 -0.0136,-0.0072 -0.0195,0 -0.0353,-0.0015 -0.0467,-0.0037 -0.0131,-0.0022 -0.0282,-0.0035 -0.0475,-0.0035 -0.0136,-0.0052 -0.0274,-0.0072 -0.0388,-0.0072 -0.0123,0 -0.0252,-0.0022 -0.0396,-0.0072 -0.0388,-0.0094 -0.074,-0.0094 -0.10786,0 -0.0339,0.0092 -0.0668,0.01141 -0.10068,0.0072 0.0144,-0.0094 0.0302,-0.01804 0.0467,-0.02522 0.0166,-0.0072 0.0346,-0.01509 0.0539,-0.02522 0.0136,-0.005 0.0252,-0.0072 0.0324,-0.0072 h 0.0388 c 0.0245,-0.005 0.0495,-0.01288 0.0762,-0.02522 0.026,-0.01215 0.051,-0.02006 0.0755,-0.02503 h 0.0425 c 0.0151,0 0.0265,-0.0022 0.0359,-0.0072 l 0.0359,0.07178 c -0.004,0.0094 -0.0107,0.01951 -0.0173,0.02871 -0.008,0.0094 -0.0158,0.02172 -0.0258,0.03608 m 5.11326,-3.59778 0.007,-0.0072 c 0,0.0042 -0.001,0.0094 -0.004,0.01436 -0.002,0.0042 -0.006,0.0094 -0.0109,0.01436 0,0.0044 -0.003,0.0072 -0.007,0.0072 -0.0144,0.01436 -0.026,0.02743 -0.0359,0.03957 -0.009,0.0116 -0.0188,0.02227 -0.0289,0.03166 -0.0144,0.01932 -0.0272,0.0381 -0.0388,0.05466 -0.0129,0.01657 -0.0258,0.03442 -0.0394,0.05319 -0.0151,0.01509 -0.0289,0.03019 -0.044,0.04749 -0.0136,0.01638 -0.0309,0.03442 -0.0502,0.05319 -0.0237,0.0243 -0.0445,0.04454 -0.0641,0.06111 -0.0193,0.01657 -0.0381,0.03442 -0.0574,0.05393 -0.0289,0.03368 -0.0611,0.06828 -0.0972,0.104177 -0.0359,0.03589 -0.0725,0.07049 -0.11135,0.104361 -0.0238,0.02356 -0.0504,0.04877 -0.0791,0.07546 -0.0287,0.02577 -0.0574,0.05098 -0.0863,0.07473 l -0.0315,0.03313 c -0.008,0.0064 -0.0138,0.01712 -0.018,0.03221 -0.005,0.01877 -0.0136,0.03884 -0.026,0.06055 -0.0114,0.02153 -0.0201,0.04454 -0.0245,0.06829 -0.005,0.03368 -0.0208,0.07178 -0.0466,0.115036 -0.0267,0.04307 -0.0685,0.08338 -0.1259,0.122214 -0.0431,0.02871 -0.0891,0.05964 -0.13656,0.09332 -0.0475,0.03313 -0.0965,0.06405 -0.14394,0.09276 -0.009,0.01509 -0.0179,0.0289 -0.025,0.04325 -0.006,0.01509 -0.0151,0.02651 -0.0252,0.03589 v 0.01086 c 0,0.0028 -0.002,0.0064 -0.007,0.01068 v 0.0072 c 0,0.0052 -7.1e-4,0.01086 -0.003,0.01804 -0.003,0.0072 -0.006,0.01583 -0.0107,0.02522 -0.005,0.0243 -0.0101,0.04804 -0.0151,0.07178 -0.004,0.02375 -0.009,0.04528 -0.0136,0.06479 l 0.006,-0.0072 c 0,0.01933 -7e-4,0.03663 -0.004,0.05393 -0.002,0.01657 -0.003,0.0324 -0.003,0.04675 -0.005,0.02871 -0.0101,0.05963 -0.0151,0.0935 -0.004,0.03295 -0.004,0.0646 0,0.09332 0.005,0.0381 0.0157,0.07418 0.0329,0.107858 0.0166,0.03313 0.0346,0.06626 0.0532,0.09994 0.0143,0.02375 0.0252,0.04822 0.0324,0.07197 0.007,0.02375 0.0136,0.04822 0.018,0.07178 0,0.01878 -0.004,0.03608 -0.0109,0.05043 -0.007,0.01436 -0.0129,0.02871 -0.018,0.04307 v 0.125895 c 0,0.01657 0.005,0.03442 0.0145,0.05393 0.01,0.02374 0.0136,0.04749 0.0107,0.07123 -0.002,0.02429 -0.006,0.05025 -0.0107,0.07896 -0.009,0.04325 -0.0188,0.08412 -0.0289,0.122215 -0.009,0.0381 -0.0144,0.07915 -0.0144,0.122214 0,0.07197 0.003,0.140988 0.007,0.207802 0.005,0.06755 0.007,0.136571 0.007,0.208537 v 0.06111 c 0,0.02153 0.003,0.04252 0.007,0.06111 0.0101,0.01951 0.0158,0.0381 0.018,0.05761 0.003,0.01932 0.004,0.04086 0.004,0.0646 v 0.122215 c -0.004,0.02816 -0.0145,0.04896 -0.0289,0.06111 -0.0144,0.0116 -0.0309,0.02448 -0.0495,0.03957 -0.0151,0.0094 -0.0245,0.02153 -0.0287,0.03534 -0.005,0.01509 -0.0101,0.02871 -0.0151,0.04381 -0.009,0.02374 -0.0138,0.04602 -0.0138,0.06755 0,0.02153 -0.005,0.04233 -0.0151,0.06111 -0.004,0.01012 -0.008,0.0208 -0.0107,0.03239 -0.002,0.01215 -0.006,0.02301 -0.0109,0.0324 -0.004,0.0092 -0.0114,0.02153 -0.0208,0.03589 -0.0101,0.01435 -0.0195,0.0265 -0.0287,0.03589 -0.005,0.0052 -0.0101,0.01086 -0.0145,0.01804 -0.005,0.0072 -0.009,0.01288 -0.0143,0.01804 -0.01,0.0092 -0.0179,0.02006 -0.025,0.03221 -0.007,0.01233 -0.0158,0.02301 -0.0252,0.0324 -0.0339,0.04325 -0.0633,0.08485 -0.0898,0.125896 -0.0267,0.04012 -0.049,0.08687 -0.0685,0.139515 -0.009,0.03865 -0.0272,0.07546 -0.0539,0.111355 -0.0258,0.03589 -0.0517,0.0705 -0.0755,0.104177 -0.0186,0.02374 -0.0359,0.04822 -0.0502,0.07197 -0.0144,0.02374 -0.0287,0.04528 -0.0431,0.06479 -0.009,0.01436 -0.026,0.03092 -0.0504,0.05025 -0.0237,0.01877 -0.0453,0.02871 -0.0641,0.02871 -0.0243,0 -0.0394,-0.0072 -0.0466,-0.02153 -0.008,-0.01436 -0.0109,-0.03368 -0.0109,-0.05743 0,-0.02448 0.003,-0.04822 0.0109,-0.07197 0.007,-0.02374 0.0129,-0.04822 0.0179,-0.07197 0.004,-0.01436 0.0109,-0.02651 0.018,-0.03589 0.006,-0.0094 0.0179,-0.02153 0.0324,-0.03589 0,-0.0052 0.002,-0.0094 0.007,-0.01436 0.004,-0.0044 0.006,-0.0094 0.006,-0.01454 0.0245,-0.01859 0.0495,-0.0381 0.0755,-0.05743 0.0267,-0.01877 0.0467,-0.0381 0.0611,-0.05761 0.0381,-0.0473 0.0697,-0.09921 0.0935,-0.154424 0.0237,-0.05466 0.0503,-0.108595 0.0791,-0.161051 0.0525,-0.110067 0.0933,-0.221422 0.12221,-0.334433 0.0287,-0.112091 0.0401,-0.230809 0.0359,-0.355048 -0.005,-0.09571 -0.018,-0.197862 -0.0396,-0.30572 -0.0215,-0.107122 -0.0589,-0.20909 -0.11135,-0.3048 0,-0.005 -0.001,-0.01067 -0.004,-0.01804 -0.002,-0.0072 -0.006,-0.01288 -0.0109,-0.01785 -0.009,-0.01436 -0.0157,-0.03018 -0.0178,-0.04675 -0.002,-0.01657 -0.009,-0.0346 -0.018,-0.05393 0,-0.0094 -0.004,-0.02153 -0.0107,-0.03589 -0.007,-0.01454 -0.0109,-0.0289 -0.0109,-0.04325 -0.009,-0.02871 -0.0166,-0.05467 -0.0215,-0.07896 -0.004,-0.02374 -0.0166,-0.04749 -0.0361,-0.07123 -0.0144,-0.01951 -0.0309,-0.03736 -0.0503,-0.05393 -0.0193,-0.0173 -0.0403,-0.03018 -0.0641,-0.03957 -0.0337,-0.01932 -0.0639,-0.04822 -0.0898,-0.08632 -0.0265,-0.0381 -0.0589,-0.06461 -0.097,-0.07896 h -0.018 c -0.007,0 -0.0129,-0.0022 -0.018,-0.0072 -0.01,0 -0.0178,-0.0022 -0.0257,-0.0074 -0.006,-0.005 -0.0151,-0.0092 -0.0245,-0.01435 -0.0101,0 -0.0173,0.0015 -0.0215,0.0037 -0.005,0.0022 -0.0123,0.0057 -0.0215,0.01068 h -0.0145 c -0.005,0.0052 -0.008,0.0087 -0.0107,0.01086 -0.002,0.0022 -0.006,0.0057 -0.0109,0.01086 -0.0144,0.005 -0.0272,0.0092 -0.0396,0.01435 -0.0121,0.005 -0.025,0.0094 -0.0394,0.01436 -0.0863,0.04749 -0.17412,0.09921 -0.26247,0.154609 -0.0885,0.05466 -0.16601,0.110619 -0.23375,0.168229 -0.033,0.02448 -0.0604,0.04822 -0.0819,0.07178 -0.0215,0.02448 -0.0517,0.04546 -0.0898,0.06479 -0.0381,0.02375 -0.0705,0.04602 -0.0972,0.06479 -0.0257,0.01932 -0.0539,0.04307 -0.0826,0.07178 -0.0337,0.0381 -0.0596,0.07546 -0.0784,0.111539 -0.0193,0.03589 -0.0337,0.07252 -0.0431,0.111355 -0.0287,0.0094 -0.0554,0.02025 -0.0791,0.0324 -0.0243,0.01141 -0.0431,0.02448 -0.0574,0.03957 -0.0287,0.01859 -0.046,0.0381 -0.0504,0.05743 -0.005,0.01878 -0.0243,0.0381 -0.0574,0.05687 -0.0381,0.01933 -0.0769,0.03957 -0.11503,0.06111 -0.0381,0.02153 -0.074,0.04233 -0.10786,0.06111 -0.0525,0.02871 -0.10362,0.0589 -0.15387,0.08982 -0.0503,0.03092 -0.0992,0.0589 -0.14816,0.08264 -0.0374,0.01877 -0.0762,0.03957 -0.1143,0.06111 -0.0381,0.02172 -0.074,0.04399 -0.10786,0.06773 -0.0237,0.0099 -0.0488,0.02227 -0.0755,0.03663 -0.026,0.01362 -0.0488,0.02871 -0.0676,0.04233 -0.005,0.0052 -0.0109,0.01233 -0.018,0.02227 -0.008,0.0094 -0.0158,0.01657 -0.0257,0.02172 -0.0289,0.02871 -0.0641,0.05448 -0.10712,0.07822 -0.0433,0.02374 -0.0841,0.05043 -0.12221,0.07915 -0.10068,0.06258 -0.19786,0.125895 -0.29118,0.1905 -0.0928,0.06479 -0.18479,0.130129 -0.27608,0.197126 -0.0383,0.0243 -0.0769,0.04804 -0.11504,0.07178 -0.0381,0.02448 -0.069,0.05043 -0.0935,0.07915 -0.0237,0.01932 -0.0433,0.04233 -0.0576,0.06829 -0.0144,0.0265 -0.0287,0.04896 -0.0431,0.06828 -0.0237,0.03387 -0.0453,0.06479 -0.0641,0.0935 -0.0201,0.02871 -0.0409,0.05963 -0.0646,0.0935 -0.0101,0.01436 -0.021,0.03092 -0.0324,0.05025 -0.0123,0.01878 -0.0252,0.0381 -0.0396,0.05761 -0.0101,0.0092 -0.0216,0.02006 -0.0359,0.03148 -0.0144,0.01233 -0.0267,0.02595 -0.0361,0.03957 -0.01,0.01013 -0.0144,0.02098 -0.0144,0.03313 0,0.01141 -0.005,0.02448 -0.0143,0.03957 -0.0193,0.02375 -0.0381,0.04454 -0.0574,0.06387 l -0.0576,0.05761 c -0.0193,0.03387 -0.0403,0.06608 -0.0646,0.097 -0.0237,0.03092 -0.046,0.06332 -0.0648,0.09718 0.005,-0.01436 0.0101,-0.0289 0.0144,-0.04325 0.004,-0.01436 0.009,-0.02871 0.0144,-0.04307 0.0101,-0.01951 0.018,-0.03736 0.0252,-0.05393 0.007,-0.01657 0.0158,-0.0346 0.0252,-0.05393 0.01,-0.03313 0.023,-0.06681 0.0396,-0.100679 0.0164,-0.03313 0.0344,-0.06681 0.0537,-0.09994 0.0237,-0.05319 0.0512,-0.104177 0.0821,-0.154608 0.0316,-0.05025 0.0618,-0.09921 0.0906,-0.147247 0.0143,-0.02374 0.0272,-0.04822 0.0396,-0.07197 0.0114,-0.02374 0.0272,-0.05043 0.046,-0.07914 0.0151,-0.02871 0.0302,-0.05743 0.0467,-0.08632 0.0171,-0.02871 0.0396,-0.05742 0.0683,-0.08614 0.0287,-0.0289 0.0532,-0.05687 0.0718,-0.08559 0.0195,-0.02871 0.0433,-0.05761 0.072,-0.08632 0.0238,-0.02448 0.0453,-0.04822 0.0648,-0.07197 0.0193,-0.02356 0.0381,-0.04804 0.0574,-0.07178 0.0482,-0.05761 0.0863,-0.111539 0.11503,-0.161787 0.0287,-0.05025 0.072,-0.104177 0.12939,-0.161787 0.0712,-0.07123 0.13731,-0.143013 0.19713,-0.214979 0.0596,-0.07197 0.12295,-0.14375 0.1905,-0.215716 0.0287,-0.02871 0.0502,-0.05466 0.0646,-0.07896 0.0144,-0.02375 0.0331,-0.04749 0.0576,-0.07197 0.0237,-0.02374 0.0475,-0.04528 0.0718,-0.06405 0.0237,-0.01932 0.0504,-0.03884 0.0791,-0.05743 0.0475,-0.03387 0.0893,-0.06976 0.12515,-0.107858 0.0359,-0.03884 0.0777,-0.07694 0.12571,-0.115036 0.0289,-0.01951 0.0611,-0.03589 0.0972,-0.05043 0.0359,-0.01435 0.0725,-0.02871 0.11061,-0.04307 0.0576,-0.02871 0.1108,-0.05614 0.15829,-0.08264 0.048,-0.02595 0.0985,-0.05614 0.15093,-0.08927 0.072,-0.04381 0.13657,-0.08614 0.19418,-0.129392 0.0574,-0.04307 0.11706,-0.08908 0.17964,-0.136571 0.0618,-0.04822 0.1281,-0.0935 0.19712,-0.136571 0.069,-0.04307 0.1351,-0.08853 0.19768,-0.135835 0.0718,-0.05835 0.15313,-0.110803 0.24442,-0.15829 0.0906,-0.04804 0.17688,-0.09847 0.25805,-0.150927 0.0433,-0.02871 0.0849,-0.0589 0.1259,-0.08982 0.041,-0.03092 0.0804,-0.06111 0.11853,-0.09 0.0475,-0.0381 0.0979,-0.07546 0.15111,-0.111355 0.0525,-0.03589 0.1027,-0.07049 0.15019,-0.103625 0.0195,-0.01933 0.0396,-0.03589 0.0611,-0.05025 0.0215,-0.01436 0.0418,-0.02871 0.0611,-0.04307 0.0339,-0.0289 0.0626,-0.05761 0.0863,-0.08632 0.0238,-0.02871 0.0503,-0.05761 0.0792,-0.08632 0.0329,-0.02448 0.074,-0.05319 0.12221,-0.08632 0.0473,-0.03368 0.0906,-0.06184 0.12939,-0.08614 0.0381,-0.02374 0.074,-0.04822 0.10712,-0.07197 0.0337,-0.02375 0.069,-0.05025 0.10786,-0.07841 0.0913,-0.06755 0.18405,-0.135834 0.28032,-0.204856 0.095,-0.06902 0.19123,-0.138044 0.28694,-0.204857 0.0525,-0.0289 0.10068,-0.05982 0.14375,-0.0935 0.0431,-0.03313 0.0885,-0.06681 0.13583,-0.09994 0.0532,-0.03884 0.10583,-0.07546 0.15829,-0.112275 0.0532,-0.03515 0.10344,-0.07252 0.15093,-0.110619"
       style="fill:#21201d;fill-opacity:1;fill-rule:nonzero;stroke:none;stroke-width:0.184057"
       id="path480" />
  </g>
</svg>
