<?xml version="1.0" encoding="UTF-8" standalone="no"?>
<!-- Created with Inkscape (http://www.inkscape.org/) -->

<svg
   width="6.2349629mm"
   height="6.4330897mm"
   viewBox="0 0 6.2349629 6.4330897"
   version="1.1"
   id="svg1853"
   inkscape:version="1.1.2 (0a00cf5339, 2022-02-04)"
   sodipodi:docname="z3.svg"
   xmlns:inkscape="http://www.inkscape.org/namespaces/inkscape"
   xmlns:sodipodi="http://sodipodi.sourceforge.net/DTD/sodipodi-0.dtd"
   xmlns="http://www.w3.org/2000/svg"
   xmlns:svg="http://www.w3.org/2000/svg">
  <sodipodi:namedview
     id="namedview1855"
     pagecolor="#ffffff"
     bordercolor="#666666"
     borderopacity="1.0"
     inkscape:pageshadow="2"
     inkscape:pageopacity="0.0"
     inkscape:pagecheckerboard="0"
     inkscape:document-units="mm"
     showgrid="false"
     inkscape:zoom="0.64052329"
     inkscape:cx="-916.43819"
     inkscape:cy="437.92319"
     inkscape:window-width="2560"
     inkscape:window-height="1376"
     inkscape:window-x="0"
     inkscape:window-y="0"
     inkscape:window-maximized="1"
     inkscape:current-layer="layer1" />
  <defs
     id="defs1850" />
  <g
     inkscape:label="Layer 1"
     inkscape:groupmode="layer"
     id="layer1"
     transform="translate(-347.58235,-32.720877)">
    <path
       d="m 350.54841,32.745015 c 7e-4,0 0.002,-7.05e-4 0.004,-7.05e-4 -0.0504,-0.0381 -0.0289,-0.02374 -0.004,7.05e-4"
       style="fill:#21201d;fill-opacity:1;fill-rule:nonzero;stroke:none;stroke-width:0.184057"
       id="path482" />
    <path
       d="m 352.43995,37.593102 c -0.051,-0.03755 -0.0933,-0.08927 -0.13878,-0.134545 -0.0653,-0.06534 -0.14374,-0.110621 -0.21277,-0.171729 -0.0777,-0.06847 -0.16104,-0.130313 -0.2516,-0.17835 -0.0898,-0.04822 -0.17541,-0.10565 -0.26743,-0.151113 -0.0589,-0.0302 -0.10712,-0.07473 -0.15811,-0.119267 -0.0893,-0.07547 -0.16399,-0.167495 -0.2481,-0.2494 -0.0554,-0.05467 -0.11504,-0.103625 -0.17265,-0.156083 -0.0388,-0.03514 -0.071,-0.06607 -0.11356,-0.09571 -0.0639,-0.0438 -0.13013,-0.08117 -0.19621,-0.121479 -0.0769,-0.04675 -0.15111,-0.09773 -0.22657,-0.14743 -0.1027,-0.06755 -0.17393,-0.181112 -0.25878,-0.27167 -0.11357,-0.121479 -0.2459,-0.212034 -0.37603,-0.310688 -0.11282,-0.08485 -0.24369,-0.147983 -0.34363,-0.251608 -0.0475,-0.04951 -0.0906,-0.102705 -0.14375,-0.145221 -0.0217,-0.0151 -0.0433,-0.03164 -0.0641,-0.04675 -0.023,-0.0042 -0.0381,-0.01584 -0.0438,-0.03369 0.0935,0.03369 0.19547,0.05816 0.28602,0.102704 0.0792,0.03884 0.1583,0.09129 0.24315,0.1143 0.0955,0.02741 0.19123,0.05687 0.28602,0.08559 0.0368,0.01086 0.072,0.02448 0.10712,0.03883 0.0381,0.01436 0.0655,0.03534 0.0979,0.06111 0.0769,0.06258 0.1697,0.113563 0.25234,0.166758 0.0251,0.01655 0.0525,0.02815 0.0769,0.04601 0.0237,0.01729 0.0467,0.03387 0.0711,0.04969 0.0655,0.04105 0.1281,0.08338 0.19712,0.117983 l 0.0381,0.01933 -0.17191,-0.151663 c 0.0777,0.01584 0.14743,0.04454 0.22216,0.06828 0.0856,0.02723 0.17467,0.05467 0.25455,0.09626 0.12663,0.06553 0.25676,0.122213 0.38468,0.184058 0.0826,0.04031 0.16399,0.08411 0.24737,0.122213 0.0906,0.04105 0.18479,0.07344 0.27737,0.107125 0.0749,0.02741 0.15259,0.04252 0.2251,0.07344 0.0799,0.03313 0.16179,0.06387 0.23872,0.104913 0.0396,0.02152 0.074,0.05098 0.11209,0.07546 0.044,0.02815 0.0893,0.04675 0.1316,0.07694 0.0777,0.0554 0.15461,0.113012 0.23081,0.171175 7.1e-4,-0.03387 0.002,-0.06755 0.006,-0.102154 0.0101,-0.07178 0.0215,-0.14375 0.0324,-0.214979 0.006,-0.0416 0.0166,-0.08264 0.0223,-0.124975 0.007,-0.04675 0.0136,-0.09129 0.023,-0.137308 -0.004,-0.0037 -0.007,-0.0086 -0.0114,-0.01305 -0.0841,-0.09424 -0.19418,-0.156634 -0.2805,-0.250134 -0.0416,-0.04602 -0.0834,-0.08982 -0.1316,-0.128658 -0.0265,-0.02226 -0.0552,-0.04105 -0.0804,-0.06479 -0.0957,-0.09129 -0.19124,-0.18185 -0.28327,-0.276088 -0.0734,-0.0762 -0.1662,-0.130866 -0.2481,-0.194917 -0.0403,-0.03073 -0.0841,-0.05448 -0.12645,-0.08264 -0.0519,-0.03295 -0.0979,-0.07546 -0.1524,-0.106388 -0.0598,-0.03369 -0.12515,-0.04307 -0.18847,-0.06828 -0.0977,-0.03737 -0.19418,-0.07767 -0.29339,-0.110067 -0.0532,-0.01711 -0.10785,-0.01711 -0.16233,-0.03443 -0.1051,-0.03461 -0.2078,-0.07546 -0.31566,-0.09994 -0.0806,-0.01877 -0.15755,-0.02872 -0.23375,-0.06553 -0.069,-0.03369 -0.13234,-0.08264 -0.19915,-0.120004 -0.0431,-0.02448 -0.0863,-0.04602 -0.13086,-0.06682 -0.0733,-0.03313 -0.14596,-0.06902 -0.22142,-0.09847 -0.0388,-0.01584 -0.0777,-0.03387 -0.11283,-0.05761 -0.0504,-0.03313 -0.0898,-0.06976 -0.1489,-0.08761 -0.0295,-0.0086 -0.0604,-0.01655 -0.0913,-0.01729 0.0173,-0.0037 0.0331,-0.01013 0.0504,-0.01436 0.0107,-0.0028 0.0193,-7.06e-4 0.0287,-0.0014 0.0129,-7.05e-4 0.0245,-0.0057 0.0381,-0.0079 0.0403,-0.0057 0.0826,-0.0028 0.12442,-0.0079 0.10988,-0.01362 0.22565,0.01143 0.33498,0.02374 0.11209,0.01214 0.2251,0.01214 0.33719,0.02522 0.10418,0.01143 0.20927,0.01143 0.31418,0.01859 0.0503,0.0037 0.10142,0.01584 0.15167,0.01584 0.0359,7.05e-4 0.0705,-0.005 0.10565,0.0014 0.0237,0.0042 0.041,0.0086 0.0648,0.0094 0.018,7.05e-4 0.0324,-7.06e-4 0.0495,0.005 0.0641,0.02007 0.12295,0.05687 0.18553,0.08062 0.0388,0.0151 0.0762,0.02798 0.11301,0.04878 0.0208,0.01086 0.0416,0.02226 0.0624,0.03387 0.0987,0.0057 0.19712,0.01214 0.29338,0.04013 0.0898,0.02667 0.18259,0.04749 0.27259,0.07694 0.0431,0.01453 0.10786,0.02173 0.13878,0.06055 l -0.15608,0.0092 c 0.0999,0.04528 0.19841,0.07988 0.30406,0.110067 0.046,0.01362 0.0863,0.03238 0.12865,0.0554 0.0447,0.02448 0.0935,0.0416 0.14099,0.06184 0.0418,0.01732 0.0856,0.03295 0.12516,0.05669 0.0344,0.01877 0.0646,0.04528 0.0977,0.06626 0.0517,0.03295 0.10639,0.06037 0.15885,0.0913 0.008,0.005 0.0166,0.0099 0.0245,0.0151 0.006,-0.187004 0.003,-0.375295 0.003,-0.563033 0,-0.147983 0,-0.295413 0,-0.443579 0,-0.132338 -0.0158,-0.263755 -0.0173,-0.39683 -7e-4,-0.06037 -0.005,-0.12295 -0.009,-0.183321 -10e-4,-0.02741 -0.008,-0.05172 -0.009,-0.07915 -0.002,-0.03884 -0.007,-0.07767 -0.009,-0.115771 -7e-4,-0.02007 -0.005,-0.04307 -0.009,-0.06258 -0.026,-0.0072 -0.0525,0.0059 -0.0769,0.01309 -0.0403,0.01362 -0.0791,0.0309 -0.11871,0.0473 -0.0683,0.02741 -0.14154,0.05393 -0.21204,0.07418 -0.0977,0.02723 -0.19914,0.0416 -0.30056,0.04307 -0.10712,7.06e-4 -0.2113,-0.0014 -0.31842,-0.01143 -0.0871,-0.0086 -0.17043,-0.03736 -0.25528,-0.05614 -0.0381,-0.0079 -0.074,-0.02374 -0.11228,-0.03165 -0.0359,-0.0072 -0.071,-0.01288 -0.10638,-0.02374 -0.16032,-0.04951 -0.32339,-0.09203 -0.47947,-0.153137 -0.0468,-0.01785 -0.10436,-0.03369 -0.14669,-0.06387 -0.0237,-0.01729 -0.0438,-0.03755 -0.069,-0.0519 -0.0201,-0.01069 -0.0403,-0.01785 -0.0604,-0.02872 -0.0359,-0.02152 -0.069,-0.0497 -0.10436,-0.07123 -0.0243,-0.01362 -0.051,-0.02448 -0.0711,-0.04455 -0.0123,-0.01139 -0.0223,-0.02596 -0.0346,-0.03663 -0.0388,-0.03534 -0.0849,-0.05963 -0.12074,-0.09847 -0.003,-0.0021 -0.006,-0.0052 -0.009,-0.0079 -0.0403,0.01143 -0.0604,0.0416 -0.0876,0.07547 -0.026,0.03313 -0.0547,0.0646 -0.0828,0.09553 -0.0171,0.01951 -0.0272,0.04178 -0.0423,0.06184 -0.0195,0.02889 -0.0467,0.04602 -0.072,0.06773 -0.0359,0.03094 -0.0697,0.06387 -0.10565,0.09405 -0.0316,0.02815 -0.0668,0.04969 -0.0992,0.0762 -0.0468,0.03736 -0.0871,0.08485 -0.13804,0.117245 -0.1143,0.07123 -0.26468,0.104913 -0.39609,0.117246 -0.046,0.0042 -0.0841,0.02448 -0.1281,0.0381 -0.1502,0.04822 -0.30057,0.097 -0.45646,0.116508 -0.18903,0.02431 -0.3753,0.03295 -0.56506,0.03295 -0.0539,0 -0.10509,-0.0099 -0.15829,-0.0092 -0.0547,0 -0.10491,-7.05e-4 -0.15883,-0.01161 -0.0576,-0.01143 -0.11283,-0.02374 -0.17191,-0.02522 -0.0317,-7.05e-4 -0.0604,-0.0151 -0.0913,-0.02152 -0.0265,-0.0057 -0.0547,-0.01362 -0.0792,-0.02798 -0.0409,-0.02448 -0.0841,-0.06405 -0.12866,-0.08135 -0.006,0.01951 -0.001,0.04969 -0.001,0.06902 v 0.09865 c 0,0.112091 -0.005,0.226391 0.002,0.338483 0.007,0.108596 0.006,0.216454 0.018,0.325046 0.0114,0.107121 0.006,0.215717 0.006,0.323575 v 0.615488 c 0,0.127187 0,0.253079 0.0129,0.379529 0.0165,0.17467 0.0353,0.348787 0.0519,0.523462 0.005,0.05743 0.0121,0.115771 0.0136,0.173196 7.1e-4,0.04178 0.007,0.08264 0.009,0.124425 10e-4,0.04178 -10e-4,0.08411 -7e-4,0.126446 0.002,0.07767 0.0151,0.161787 0.0316,0.237437 0.009,0.04454 0.023,0.08687 0.0309,0.132888 0.008,0.0554 0.0186,0.110804 0.0329,0.164733 0.0109,0.0381 0.0173,0.07767 0.0309,0.115034 0.021,0.06111 0.0519,0.120008 0.0777,0.178904 0.0331,0.07418 0.0747,0.128104 0.12295,0.190687 0.0425,0.05669 0.0863,0.107858 0.14172,0.150925 0.0624,0.04896 0.13289,0.07915 0.19988,0.118534 0.0582,0.03461 0.11504,0.07565 0.16823,0.117983 0.0582,0.04749 0.12148,0.08632 0.18038,0.133808 0.0453,0.03663 0.0885,0.06958 0.13583,0.102704 0.0986,0.06902 0.19989,0.132338 0.29909,0.199888 0.14173,0.097 0.30277,0.165467 0.46088,0.224366 0.0742,0.02723 0.14025,0.06976 0.21074,0.102151 0.0942,0.04307 0.19197,0.07473 0.28676,0.116325 0.0598,0.02741 0.12093,0.05043 0.18203,0.07491 0.0337,0.01362 0.0711,0.02431 0.10271,0.04307 0.0388,0.02226 0.0769,0.04749 0.11503,0.07049 0.0361,0.02152 0.0683,0.04951 0.1051,0.06755 0.0171,0.0086 0.0309,0.01087 0.048,0.0151 0.0294,0.0086 0.0547,0.03313 0.0863,0.03736 0.0532,0.0065 0.11945,-0.03514 0.16546,-0.0554 0.0747,-0.03147 0.14449,-0.07178 0.21204,-0.116321 0.0173,-0.01161 0.0344,-0.023 0.051,-0.03461 -0.0107,-0.0079 -0.0215,-0.01584 -0.033,-0.02374 -0.0907,-0.06111 -0.1835,-0.127918 -0.26541,-0.202646 -0.0539,-0.0497 -0.10491,-0.09571 -0.16252,-0.141725 -0.0401,-0.03313 -0.0646,-0.05246 -0.0963,-0.0878 -0.0878,-0.09626 -0.18258,-0.18185 -0.2632,-0.284554 -0.0438,-0.05687 -0.0913,-0.111538 -0.13289,-0.170438 -0.0304,-0.04178 -0.0554,-0.08706 -0.0849,-0.128654 -0.0561,-0.07988 -0.11154,-0.159763 -0.16547,-0.240933 -0.0683,-0.104176 -0.13583,-0.204855 -0.19123,-0.318421 -0.028,-0.05614 -0.0589,-0.10933 -0.0848,-0.167675 -0.0173,-0.0381 -0.0324,-0.07749 -0.0468,-0.116325 -0.0208,-0.05393 -0.0409,-0.106571 -0.0589,-0.160317 -0.0101,-0.03164 -0.0331,-0.07344 -0.0309,-0.107855 l 0.0245,0.0065 c -0.0173,-0.02741 -0.0346,-0.05393 -0.0525,-0.07988 -0.046,-0.06534 -0.0821,-0.1316 -0.11872,-0.202095 -0.0871,-0.163813 -0.16896,-0.331305 -0.25308,-0.497509 -0.11006,-0.219212 -0.20927,-0.443579 -0.30259,-0.671442 0.007,0.01933 0.0223,0.03589 0.0329,0.05319 0.0188,0.03164 0.0339,0.06479 0.0554,0.09553 0.0316,0.04675 0.0698,0.08559 0.10492,0.129579 0.044,0.05595 0.0712,0.125709 0.11153,0.184058 0.0166,0.023 0.033,0.0438 0.0482,0.06828 0.0179,0.02872 0.0416,0.05743 0.0559,0.08761 0.0316,0.067 0.0705,0.125896 0.10859,0.189213 0.0346,0.05595 0.0576,0.120004 0.0942,0.174671 0.10344,0.156079 0.21995,0.315658 0.3659,0.42775 0.12222,0.09424 0.21203,0.227125 0.33075,0.326517 0.0295,0.02505 0.0561,0.05522 0.0871,0.07749 0.028,0.02025 0.0589,0.03534 0.0883,0.05466 0.1165,0.0727 0.21498,0.170437 0.31197,0.269645 0.0532,0.05393 0.10639,0.09645 0.17412,0.127184 0.048,0.02244 0.097,0.04325 0.14375,0.067 0.1027,0.05319 0.21056,0.08835 0.31842,0.124425 0.12295,0.04086 0.24663,0.07749 0.36737,0.124237 0.0618,0.02374 0.18203,0.0381 0.21719,0.107859 l -0.0475,0.125895 c 0.009,0.0028 0.018,0.0072 0.0274,0.01012 0.0351,0.01214 0.0618,0.02357 0.0928,0.04528 0.0468,0.03295 0.0933,0.06607 0.1408,0.09847 0.0727,-0.04675 0.1489,-0.09203 0.20706,-0.156083 0.0374,-0.0416 0.0698,-0.08706 0.11301,-0.124421 0.0243,-0.02007 0.0488,-0.04013 0.0725,-0.06037 0.0274,-0.02448 0.051,-0.05393 0.0769,-0.0797 0.0359,-0.03534 0.072,-0.06902 0.10712,-0.106383 0.009,-0.0094 0.0188,-0.01729 0.028,-0.02596 -0.0387,-0.03313 -0.0797,-0.06332 -0.12276,-0.08982 -0.044,-0.02667 -0.0885,-0.05393 -0.12958,-0.08411"
       style="fill:#21201d;fill-opacity:1;fill-rule:nonzero;stroke:none;stroke-width:0.184057"
       id="path484" />
    <path
       d="m 353.81393,35.859644 c 0,-0.03608 0.009,-0.07915 -0.0173,-0.106383 -0.01,-0.01013 -0.0236,-0.01803 -0.0337,-0.02741 -0.0267,-0.02649 -0.0504,-0.04951 -0.0799,-0.07123 -0.0381,-0.02649 -0.0698,-0.06258 -0.1086,-0.08908 -0.0804,-0.05614 -0.15958,-0.115771 -0.24001,-0.172646 -0.0475,-0.03369 -0.0935,-0.06166 -0.14522,-0.08835 -0.002,-7.05e-4 -0.004,-0.0021 -0.006,-0.0028 -0.0561,-0.02872 -0.11449,-0.05522 -0.1697,-0.0854 -0.0482,-0.02667 -0.0992,-0.03957 -0.14817,-0.06111 -0.069,-0.02963 -0.14227,-0.04748 -0.21645,-0.05466 l 0.0648,0.108409 0.0136,0.02173 c 7e-4,0 0.002,7.05e-4 0.004,7.05e-4 0.0224,0.0014 0.0455,0.0302 0.0613,0.04381 0.0251,0.02152 0.0532,0.03957 0.0782,0.06258 0.0425,0.0381 0.0935,0.06258 0.13602,0.101966 0.0265,0.02374 0.0517,0.04325 0.0804,0.06332 0.0223,0.01658 0.0346,0.0381 0.0517,0.0589 0.0101,0.01305 0.021,0.02374 0.0324,0.03461 0.0166,0.0151 0.0324,0.0302 0.046,0.04823 0.0237,0.03164 0.0381,0.05963 0.069,0.08485 0.0985,0.08191 0.18055,0.168229 0.22583,0.294679 0.0223,0.06258 0.0646,0.116508 0.10123,0.168963 0.0309,0.04528 0.0534,0.09847 0.0705,0.150929 0,-0.01214 0.009,-0.02357 0.013,-0.03514 0.007,-0.01584 0.0107,-0.03313 0.0171,-0.04896 0.0124,-0.0309 0.0331,-0.05743 0.0468,-0.08761 0.0188,-0.04031 0.0324,-0.07988 0.0453,-0.121479 0.018,-0.05982 0.009,-0.129395 0.009,-0.191237"
       style="fill:#21201d;fill-opacity:1;fill-rule:nonzero;stroke:none;stroke-width:0.184057"
       id="path486" />
    <path
       d="m 352.64205,36.895707 c 0.009,0.0072 0.0195,0.01362 0.0302,0.01933 0.0274,0.01658 0.0517,0.03514 0.0792,0.05098 0.0158,0.01012 0.0287,0.02226 0.0467,0.02963 0.01,0.0042 0.0171,0.0042 0.0272,0.0099 0.0274,0.01584 0.0517,0.03736 0.0769,0.0554 0.0302,0.02007 0.0641,0.04105 0.0992,0.05963 0.0166,0.0086 0.0339,0.01658 0.0504,0.02374 0.0251,0.01161 0.0438,0.023 0.0668,0.03663 0.0258,0.01436 0.0495,0.03094 0.0747,0.04473 0.0123,0.0077 0.0324,0.02226 0.0482,0.01933 0.0201,-0.07197 0.0252,-0.148904 0.0331,-0.223629 10e-4,-0.01288 0.004,-0.0381 -0.007,-0.05172 -0.008,-0.01012 -0.0315,-0.0151 -0.0445,-0.02007 -0.0186,-0.0079 -0.0381,-0.01454 -0.0559,-0.02374 -0.0195,-0.01087 -0.0361,-0.02025 -0.0547,-0.03239 -0.0281,-0.01803 -0.0561,-0.03461 -0.0841,-0.05117 -0.0295,-0.01711 -0.0591,-0.03369 -0.0885,-0.05099 -0.0604,-0.03443 -0.12147,-0.06976 -0.17964,-0.107858 -0.0296,-0.01859 -0.0604,-0.04307 -0.0907,-0.0611 -0.0351,-0.02081 -0.0755,-0.03589 -0.11357,-0.05098 -0.0351,-0.0151 -0.0718,-0.03313 -0.10914,-0.04455 -0.0158,0.04675 -0.0224,0.06037 -0.021,0.06829 0.006,0.02226 0.0158,0.04601 0.023,0.06828 0.0131,0.0416 0.0295,0.08485 0.0504,0.124979 0.004,0.0086 0.009,0.01729 0.0129,0.02596 0.0136,0.02798 0.028,0.05688 0.0418,0.08485 0.0186,0.03589 0.046,0.07988 0.0883,0.102154 0.008,-0.0072 0.001,-0.023 -10e-4,-0.03164 0,-0.0014 0,-0.0037 0,-0.005 -0.003,-0.01379 -0.003,-0.02889 -0.006,-0.04252 -0.002,-0.01086 -0.0109,-0.0302 -0.008,-0.04105 0.008,0.0037 0.009,0.0094 0.0151,0.01453"
       style="fill:#21201d;fill-opacity:1;fill-rule:nonzero;stroke:none;stroke-width:0.184057"
       id="path488" />
    <path
       d="m 351.67428,39.025257 c -0.0324,-0.02448 -0.0611,-0.05393 -0.0928,-0.08062 -0.0121,-0.0099 -0.0243,-0.02152 -0.0366,-0.03295 -0.0438,-0.0381 -0.0856,-0.07914 -0.12571,-0.121479 -0.0396,-0.04252 -0.0777,-0.08632 -0.11301,-0.133812 -0.056,-0.07473 -0.10565,-0.156079 -0.15811,-0.233016 -0.0281,-0.04086 -0.0576,-0.07896 -0.0893,-0.117796 -0.009,-0.01161 -0.0294,-0.03239 -0.0344,-0.0497 l -0.17909,-0.05393 c -0.0337,0 -0.0631,0 -0.0955,0.01086 -0.0158,0.0057 -0.0274,0.0079 -0.0433,0.0099 -0.004,0.0014 -0.01,0.0021 -0.0151,0.0028 -0.009,0.0014 -0.0201,0.0044 -0.0237,0.01161 -0.0136,0.02501 0.0267,0.06111 0.0396,0.07325 0.0425,0.03663 0.0849,0.07914 0.11577,0.125896 0.0101,0.01637 0.0131,0.02007 0.0302,0.03589 0.0123,0.01087 0.0215,0.02596 0.0346,0.03589 0.0258,0.02226 0.0438,0.05393 0.0668,0.08135 0.0517,0.05964 0.11927,0.102704 0.17467,0.158842 0.0245,0.02522 0.0539,0.04381 0.0799,0.06829 0.0223,0.02081 0.0396,0.04601 0.0604,0.06828 0.004,0.0044 0.008,0.0094 0.0121,0.01288 0.0475,0.04399 0.095,0.08632 0.1467,0.12295 0.0215,0.01729 0.0433,0.03534 0.0648,0.05319 0.0324,0.02173 0.0675,0.03755 0.10564,0.04749 0.0151,0.0059 0.0317,0.01362 0.049,0.02025 0.0237,0.0092 0.0467,0.01584 0.0683,0.0099 0.0186,-0.0042 0.0374,-0.02152 0.0423,-0.04086 0.002,-0.01087 10e-4,-0.02173 -0.005,-0.0309 -0.0116,-0.0151 -0.0683,-0.04602 -0.0791,-0.05467"
       style="fill:#21201d;fill-opacity:1;fill-rule:nonzero;stroke:none;stroke-width:0.184057"
       id="path490" />
    <path
       d="m 352.54928,38.545602 c -0.0438,-0.02798 -0.12516,-0.04602 -0.18332,-0.05595 -0.0374,-0.0065 -0.0648,-0.01012 -0.069,-0.01087 -0.049,-0.0086 -0.0992,-0.01214 -0.14743,-0.04233 -0.0251,-0.01584 -0.0468,-0.01951 -0.0718,-0.02374 -0.0289,-0.0044 -0.0569,-0.0151 -0.0848,-0.02741 -0.0123,-0.0057 -0.0245,-0.01069 -0.0368,-0.01711 -0.0366,-0.01729 -0.074,-0.02448 -0.10988,-0.04252 -0.0215,-0.01013 -0.0453,-0.023 -0.0683,-0.0309 -0.009,-0.0035 -0.0173,-0.0065 -0.026,-0.0072 -0.0107,-0.0028 -0.0201,-0.0014 -0.0309,-0.0057 -0.0215,-0.0072 -0.0475,-0.02946 -0.0675,-0.02741 -0.004,0.07565 0.0351,0.132338 0.074,0.17338 0.0173,0.01933 0.0353,0.03443 0.0504,0.04749 0.0215,0.01933 0.0359,0.02431 0.0589,0.03147 7.1e-4,7.06e-4 10e-4,7.06e-4 0.002,0.0014 0.0416,0.01436 0.0826,0.03663 0.10859,-0.07399 0.0733,0.0381 0.14945,0.05743 0.22142,0.104176 0.0532,0.03461 0.10491,0.09056 0.15884,0.120191 0.0423,0.02374 0.0856,0.0302 0.12865,0.05319 0.023,0.01214 0.023,0.01288 0.041,-0.0065 0.0186,-0.01951 0.0359,-0.04473 0.0525,-0.06902 0.005,-0.0074 0.0302,-0.03313 0.0309,-0.04823 0,-0.01658 -0.0121,-0.0302 -0.0316,-0.04252"
       style="fill:#21201d;fill-opacity:1;fill-rule:nonzero;stroke:none;stroke-width:0.184057"
       id="path492" />
    <path
       d="m 353.25974,37.467207 c -0.044,-0.01087 -0.0871,-0.01803 -0.1316,-0.02226 -0.0123,-0.0014 -0.0245,-0.0028 -0.0368,-0.005 -0.0446,-0.0059 -0.0876,-0.01305 -0.13215,-0.02244 -0.005,-0.0014 -0.009,-0.0021 -0.0144,-0.0035 -0.0885,-0.02152 -0.17688,-0.04252 -0.2632,-0.07344 l -0.0287,0.02596 -0.10068,0.0878 c 0.0223,0.04877 0.0891,0.09405 0.12571,0.124975 0.0267,0.02173 0.0554,0.0381 0.0806,0.06111 0.0114,0.01012 0.023,0.02099 0.0337,0.03164 0.0252,0.023 0.049,0.04602 0.0769,0.06552 0.0346,0.02374 0.072,0.03958 0.10933,0.05743 0.0596,0.02815 0.12001,0.06037 0.18406,0.06184 0.0144,0 0.028,-7.06e-4 0.0425,-0.0042 0.028,-0.0059 0.0431,-0.0065 0.0552,-0.03312 7e-4,-0.0014 0.002,-0.0035 0.003,-0.0057 0.0136,-0.03534 0.0166,-0.07344 0.0272,-0.110067 0.0188,-0.05963 0.0237,-0.116509 0.002,-0.177613 -0.009,-0.02579 -0.009,-0.04878 -0.0329,-0.0589"
       style="fill:#21201d;fill-opacity:1;fill-rule:nonzero;stroke:none;stroke-width:0.184057"
       id="path494" />
  </g>
</svg>
