<?xml version="1.0" encoding="UTF-8" standalone="no"?>
<!-- Created with Inkscape (http://www.inkscape.org/) -->

<svg
   width="7.1071401mm"
   height="7.187252mm"
   viewBox="0 0 7.1071401 7.187252"
   version="1.1"
   id="svg2112"
   inkscape:version="1.1.2 (0a00cf5339, 2022-02-04)"
   sodipodi:docname="z4.svg"
   xmlns:inkscape="http://www.inkscape.org/namespaces/inkscape"
   xmlns:sodipodi="http://sodipodi.sourceforge.net/DTD/sodipodi-0.dtd"
   xmlns="http://www.w3.org/2000/svg"
   xmlns:svg="http://www.w3.org/2000/svg">
  <sodipodi:namedview
     id="namedview2114"
     pagecolor="#ffffff"
     bordercolor="#666666"
     borderopacity="1.0"
     inkscape:pageshadow="2"
     inkscape:pageopacity="0.0"
     inkscape:pagecheckerboard="0"
     inkscape:document-units="mm"
     showgrid="false"
     inkscape:zoom="0.64052329"
     inkscape:cx="14.051011"
     inkscape:cy="13.2704"
     inkscape:window-width="2560"
     inkscape:window-height="1376"
     inkscape:window-x="0"
     inkscape:window-y="0"
     inkscape:window-maximized="1"
     inkscape:current-layer="layer1" />
  <defs
     id="defs2109" />
  <g
     inkscape:label="Layer 1"
     inkscape:groupmode="layer"
     id="layer1"
     transform="translate(-101.36716,-144.90637)">
    <path
       d="m 104.94705,149.53653 -0.026,-2.22728 0.94035,1.28049 z"
       style="fill:#21201d;fill-opacity:1;fill-rule:nonzero;stroke:none;stroke-width:0.184057"
       id="path384" />
    <path
       d="m 104.92109,147.45374 1.03238,0.91311 0.34879,-0.3221 z"
       style="fill:#21201d;fill-opacity:1;fill-rule:nonzero;stroke:none;stroke-width:0.184057"
       id="path386" />
    <path
       d="m 106.23894,147.87652 0.0633,-1.965 -1.3819,1.5667 z"
       style="fill:#21201d;fill-opacity:1;fill-rule:nonzero;stroke:none;stroke-width:0.184057"
       id="path388" />
    <path
       d="m 106.37348,147.57963 -0.0712,-1.66811 0.6672,0.84832 z"
       style="fill:#21201d;fill-opacity:1;fill-rule:nonzero;stroke:none;stroke-width:0.184057"
       id="path390" />
    <path
       d="m 104.92109,145.51321 1.19784,0.29836 -1.19784,1.68892 z"
       style="fill:#21201d;fill-opacity:1;fill-rule:nonzero;stroke:none;stroke-width:0.184057"
       id="path392" />
    <path
       d="m 104.92109,144.90637 0.66574,0.14099 -0.66574,0.21774 z"
       style="fill:#21201d;fill-opacity:1;fill-rule:nonzero;stroke:none;stroke-width:0.184057"
       id="path394" />
    <path
       d="m 104.92109,145.53327 0.55935,-0.51407 0.82182,0.30278 -0.10713,0.33719 z"
       style="fill:#21201d;fill-opacity:1;fill-rule:nonzero;stroke:none;stroke-width:0.184057"
       id="path396" />
    <path
       d="m 106.30226,145.32198 0.0324,0.37897 0.63408,1.05833 -0.26173,-1.24607 z"
       style="fill:#21201d;fill-opacity:1;fill-rule:nonzero;stroke:none;stroke-width:0.184057"
       id="path398" />
    <path
       d="m 105.72984,148.91037 0.31639,-0.38026 2.04487,-0.42647 -1.24827,0.74268 -0.81519,0.0893 z"
       style="fill:#21201d;fill-opacity:1;fill-rule:nonzero;stroke:none;stroke-width:0.184057"
       id="path400" />
    <path
       d="m 106.19513,149.01675 -0.54572,-0.0812 0.18184,-0.33867 -0.80303,0.94477 0.61751,-0.10712 z"
       style="fill:#21201d;fill-opacity:1;fill-rule:nonzero;stroke:none;stroke-width:0.184057"
       id="path402" />
    <path
       d="m 106.19513,149.01675 -0.43787,0.38616 -0.21424,0.55714 0.32633,-0.51113 z"
       style="fill:#21201d;fill-opacity:1;fill-rule:nonzero;stroke:none;stroke-width:0.184057"
       id="path404" />
    <path
       d="m 105.35897,150.2124 0.42204,-0.90078 -0.80967,0.28897 z"
       style="fill:#21201d;fill-opacity:1;fill-rule:nonzero;stroke:none;stroke-width:0.184057"
       id="path406" />
    <path
       d="m 105.54302,149.96005 0.046,0.30204 0.45222,-0.4156 0.13013,-0.70034 z"
       style="fill:#21201d;fill-opacity:1;fill-rule:nonzero;stroke:none;stroke-width:0.184057"
       id="path408" />
    <path
       d="m 106.02967,149.71212 0.24958,0.89784 -0.61549,-0.31547 z"
       style="fill:#21201d;fill-opacity:1;fill-rule:nonzero;stroke:none;stroke-width:0.184057"
       id="path410" />
    <path
       d="m 106.19513,149.01675 0.65488,0.0898 -0.65488,0.60555 z"
       style="fill:#21201d;fill-opacity:1;fill-rule:nonzero;stroke:none;stroke-width:0.184057"
       id="path412" />
    <path
       d="m 106.36189,149.64513 0.48812,-0.53856 0.11945,0.44948 -0.3337,-0.0267 z"
       style="fill:#21201d;fill-opacity:1;fill-rule:nonzero;stroke:none;stroke-width:0.184057"
       id="path414" />
    <path
       d="m 106.36189,149.79182 0.38394,-0.3429 1.21514,0.3429 -1.15035,0.16823 z"
       style="fill:#21201d;fill-opacity:1;fill-rule:nonzero;stroke:none;stroke-width:0.184057"
       id="path416" />
    <path
       d="m 107.31162,149.99097 0.64935,-0.19915 0.51259,0.55586 z"
       style="fill:#21201d;fill-opacity:1;fill-rule:nonzero;stroke:none;stroke-width:0.184057"
       id="path418" />
    <path
       d="m 107.72648,150.26209 0.74782,0.0856 -0.14743,0.67641 z"
       style="fill:#21201d;fill-opacity:1;fill-rule:nonzero;stroke:none;stroke-width:0.184057"
       id="path420" />
    <path
       d="m 107.8279,150.64309 0.49897,0.381 -1.4984,0.21369 z"
       style="fill:#21201d;fill-opacity:1;fill-rule:nonzero;stroke:none;stroke-width:0.184057"
       id="path422" />
    <path
       d="m 106.18943,150.08447 0.0898,0.52623 h 0.53063 z"
       style="fill:#21201d;fill-opacity:1;fill-rule:nonzero;stroke:none;stroke-width:0.184057"
       id="path424" />
    <path
       d="m 106.54447,151.17944 -0.12442,-0.47156 0.38983,-0.0979 z"
       style="fill:#21201d;fill-opacity:1;fill-rule:nonzero;stroke:none;stroke-width:0.184057"
       id="path426" />
    <path
       d="m 106.10955,148.39409 0.85991,-0.10841 -0.6672,-0.24093 z"
       style="fill:#21201d;fill-opacity:1;fill-rule:nonzero;stroke:none;stroke-width:0.184057"
       id="path428" />
    <path
       d="m 104.97134,149.60059 0.42002,0.51407 0.4629,1.06478 c 0,0 -0.90666,0.93464 -0.89083,0.91384 0.0144,-0.0208 -0.006,-1.76143 -0.006,-1.76143 l 0.82752,0.76568 -0.84979,-0.89084 z"
       style="fill:#21201d;fill-opacity:1;fill-rule:nonzero;stroke:none;stroke-width:0.184057"
       id="path430" />
    <path
       d="m 104.89441,149.53653 0.026,-2.22728 -0.94034,1.28049 z"
       style="fill:#21201d;fill-opacity:1;fill-rule:nonzero;stroke:none;stroke-width:0.184057"
       id="path432" />
    <path
       d="m 104.92109,147.45374 -1.0331,0.91311 -0.34879,-0.3221 z"
       style="fill:#21201d;fill-opacity:1;fill-rule:nonzero;stroke:none;stroke-width:0.184057"
       id="path434" />
    <path
       d="m 103.60178,147.87652 -0.0626,-1.965 1.38189,1.5667 z"
       style="fill:#21201d;fill-opacity:1;fill-rule:nonzero;stroke:none;stroke-width:0.184057"
       id="path436" />
    <path
       d="m 103.46797,147.57963 0.0712,-1.66811 -0.6672,0.84832 z"
       style="fill:#21201d;fill-opacity:1;fill-rule:nonzero;stroke:none;stroke-width:0.184057"
       id="path438" />
    <path
       d="m 104.92109,145.51321 -1.19857,0.29836 1.19857,1.68892 z"
       style="fill:#21201d;fill-opacity:1;fill-rule:nonzero;stroke:none;stroke-width:0.184057"
       id="path440" />
    <path
       d="m 104.92109,144.90637 -0.66646,0.14099 0.66646,0.21774 z"
       style="fill:#21201d;fill-opacity:1;fill-rule:nonzero;stroke:none;stroke-width:0.184057"
       id="path442" />
    <path
       d="m 104.92109,145.53327 -0.56008,-0.51407 -0.82181,0.30278 0.10712,0.33719 z"
       style="fill:#21201d;fill-opacity:1;fill-rule:nonzero;stroke:none;stroke-width:0.184057"
       id="path444" />
    <path
       d="m 103.5392,145.32198 -0.0324,0.37897 -0.63407,1.05833 0.26172,-1.24607 z"
       style="fill:#21201d;fill-opacity:1;fill-rule:nonzero;stroke:none;stroke-width:0.184057"
       id="path446" />
    <path
       d="m 104.11143,148.91037 -0.3162,-0.38026 -2.04413,-0.42647 1.24753,0.74268 0.81592,0.0893 z"
       style="fill:#21201d;fill-opacity:1;fill-rule:nonzero;stroke:none;stroke-width:0.184057"
       id="path448" />
    <path
       d="m 103.64632,149.01675 0.54647,-0.0812 -0.18259,-0.33867 0.80378,0.94477 -0.61843,-0.10712 z"
       style="fill:#21201d;fill-opacity:1;fill-rule:nonzero;stroke:none;stroke-width:0.184057"
       id="path450" />
    <path
       d="m 103.64632,149.01675 0.43787,0.38616 0.21425,0.55714 -0.3256,-0.51113 z"
       style="fill:#21201d;fill-opacity:1;fill-rule:nonzero;stroke:none;stroke-width:0.184057"
       id="path452" />
    <path
       d="m 104.48249,150.2124 -0.42204,-0.90078 0.80966,0.28897 z"
       style="fill:#21201d;fill-opacity:1;fill-rule:nonzero;stroke:none;stroke-width:0.184057"
       id="path454" />
    <path
       d="m 104.29844,149.96005 -0.046,0.30204 -0.45223,-0.4156 -0.13012,-0.70034 z"
       style="fill:#21201d;fill-opacity:1;fill-rule:nonzero;stroke:none;stroke-width:0.184057"
       id="path456" />
    <path
       d="m 103.81234,149.71212 -0.25013,0.89784 0.61548,-0.31547 z"
       style="fill:#21201d;fill-opacity:1;fill-rule:nonzero;stroke:none;stroke-width:0.184057"
       id="path458" />
    <path
       d="m 103.64632,149.01675 -0.65487,0.0898 0.65487,0.60555 z"
       style="fill:#21201d;fill-opacity:1;fill-rule:nonzero;stroke:none;stroke-width:0.184057"
       id="path460" />
    <path
       d="m 103.47957,149.64513 -0.48812,-0.53856 -0.11871,0.44948 0.33369,-0.0267 z"
       style="fill:#21201d;fill-opacity:1;fill-rule:nonzero;stroke:none;stroke-width:0.184057"
       id="path462" />
    <path
       d="m 103.47957,149.79182 -0.38394,-0.3429 -1.21514,0.3429 1.15035,0.16823 z"
       style="fill:#21201d;fill-opacity:1;fill-rule:nonzero;stroke:none;stroke-width:0.184057"
       id="path464" />
    <path
       d="m 102.52984,149.99097 -0.64935,-0.19915 -0.5126,0.55586 z"
       style="fill:#21201d;fill-opacity:1;fill-rule:nonzero;stroke:none;stroke-width:0.184057"
       id="path466" />
    <path
       d="m 102.11498,150.26209 -0.74782,0.0856 0.14742,0.67641 z"
       style="fill:#21201d;fill-opacity:1;fill-rule:nonzero;stroke:none;stroke-width:0.184057"
       id="path468" />
    <path
       d="m 102.01356,150.64309 -0.49898,0.381 1.49914,0.21369 z"
       style="fill:#21201d;fill-opacity:1;fill-rule:nonzero;stroke:none;stroke-width:0.184057"
       id="path470" />
    <path
       d="m 103.65277,150.08447 -0.0906,0.52623 h -0.5299 z"
       style="fill:#21201d;fill-opacity:1;fill-rule:nonzero;stroke:none;stroke-width:0.184057"
       id="path472" />
    <path
       d="m 103.29698,151.17944 0.12498,-0.47156 -0.38965,-0.0979 z"
       style="fill:#21201d;fill-opacity:1;fill-rule:nonzero;stroke:none;stroke-width:0.184057"
       id="path474" />
    <path
       d="m 103.73191,148.39409 -0.85917,-0.10841 0.66646,-0.24093 z"
       style="fill:#21201d;fill-opacity:1;fill-rule:nonzero;stroke:none;stroke-width:0.184057"
       id="path476" />
    <path
       d="m 104.87011,149.60059 -0.42001,0.51407 -0.4629,1.06478 c 0,0 0.90647,0.93464 0.89138,0.91384 -0.0151,-0.0208 0.005,-1.76143 0.005,-1.76143 l -0.82678,0.76568 0.84905,-0.89084 z"
       style="fill:#21201d;fill-opacity:1;fill-rule:nonzero;stroke:none;stroke-width:0.184057"
       id="path478" />
  </g>
</svg>
