<?xml version="1.0" encoding="UTF-8" standalone="no"?>
<!-- Created with Inkscape (http://www.inkscape.org/) -->

<svg
   width="6.9476647mm"
   height="6.3322144mm"
   viewBox="0 0 6.9476647 6.3322144"
   version="1.1"
   id="svg2484"
   inkscape:version="1.1.2 (0a00cf5339, 2022-02-04)"
   sodipodi:docname="z5.svg"
   xmlns:inkscape="http://www.inkscape.org/namespaces/inkscape"
   xmlns:sodipodi="http://sodipodi.sourceforge.net/DTD/sodipodi-0.dtd"
   xmlns="http://www.w3.org/2000/svg"
   xmlns:svg="http://www.w3.org/2000/svg">
  <sodipodi:namedview
     id="namedview2486"
     pagecolor="#ffffff"
     bordercolor="#666666"
     borderopacity="1.0"
     inkscape:pageshadow="2"
     inkscape:pageopacity="0.0"
     inkscape:pagecheckerboard="0"
     inkscape:document-units="mm"
     showgrid="false"
     inkscape:zoom="0.64052329"
     inkscape:cx="-819.64233"
     inkscape:cy="8.5867292"
     inkscape:window-width="2560"
     inkscape:window-height="1376"
     inkscape:window-x="0"
     inkscape:window-y="0"
     inkscape:window-maximized="1"
     inkscape:current-layer="layer1" />
  <defs
     id="defs2481" />
  <g
     inkscape:label="Layer 1"
     inkscape:groupmode="layer"
     id="layer1"
     transform="translate(-321.61483,-146.36643)">
    <path
       d="m 328.18346,151.21354 c -0.0164,0.002 -0.0136,-0.013 -0.0208,-0.023 -0.0107,-0.0151 -0.0258,-0.0245 -0.0388,-0.0368 -0.0208,-0.0215 -0.0416,-0.0409 -0.0646,-0.0589 -0.0331,-0.0252 -0.0705,-0.0396 -0.10363,-0.0641 -0.0287,-0.0208 -0.0517,-0.0423 -0.0841,-0.0552 -0.0381,-0.0151 -0.0777,-0.0245 -0.11504,-0.0418 -0.0388,-0.018 -0.074,-0.046 -0.11356,-0.0641 -0.0791,-0.0374 -0.16105,-0.0797 -0.24295,-0.10712 -0.10363,-0.0329 -0.20854,-0.0567 -0.31069,-0.092 -0.15313,-0.0525 -0.30406,-0.1027 -0.45517,-0.1616 -0.0453,-0.018 -0.0941,-0.0296 -0.13583,-0.0584 -0.0352,-0.0252 -0.0705,-0.049 -0.10565,-0.0733 -0.0675,-0.0467 -0.13657,-0.09 -0.20486,-0.13529 -0.0799,-0.0532 -0.16252,-0.0992 -0.2424,-0.15313 -0.0532,-0.0374 -0.10786,-0.0646 -0.16252,-0.0977 -0.0596,-0.0359 -0.11209,-0.0878 -0.17246,-0.11927 -0.0339,-0.0166 -0.0705,-0.0274 -0.10362,-0.0447 -0.0322,-0.0164 -0.0618,-0.0394 -0.0913,-0.0611 -0.0431,-0.0316 -0.0755,-0.0653 -0.11136,-0.10786 -0.0309,-0.0366 -0.0648,-0.069 -0.0849,-0.11503 -0.0166,-0.0366 -0.0381,-0.069 -0.0525,-0.10639 -0.013,-0.0316 -0.018,-0.0661 -0.0302,-0.0977 -0.0238,-0.0611 -0.041,-0.12221 -0.0604,-0.18479 -0.008,-0.0265 -0.0188,-0.0482 -0.0296,-0.0718 -0.0272,-0.0591 -0.0423,-0.12516 -0.0631,-0.18774 -0.0294,-0.0863 -0.0683,-0.16473 -0.092,-0.25382 -0.0144,-0.0539 -0.0374,-0.10068 -0.0388,-0.15884 -10e-4,-0.0438 7e-4,-0.0878 0,-0.1316 -7.1e-4,-0.0799 0.0309,-0.14375 0.0589,-0.21498 0.0396,-0.10068 0.072,-0.20412 0.13509,-0.28897 0.0324,-0.044 0.0591,-0.0935 0.09,-0.13952 0.0186,-0.0282 0.0416,-0.0525 0.0618,-0.0799 0.0208,-0.0272 0.051,-0.0409 0.0683,-0.0698 0.009,-0.0129 0.009,-0.0223 0.0208,-0.0322 0.007,-0.006 0.0267,-0.0109 0.0331,-0.0138 0.0272,-0.0151 0.0468,-0.0374 0.0747,-0.0495 0.0324,-0.0144 0.0661,-0.0295 0.0992,-0.041 0.14449,-0.0495 0.29615,-0.0532 0.44358,-0.0913 0.0208,-0.006 0.0388,-0.0245 0.0583,-0.028 0.0158,-0.003 0.0315,-0.004 0.048,-0.008 0.0309,-0.006 0.0655,-0.003 0.0972,-0.003 0.0374,0 0.0524,0.003 0.0854,0.0208 0.0267,0.0138 0.0519,0.0245 0.0784,0.0403 0.041,0.026 0.0942,0.0589 0.1165,0.10785 7.1e-4,0.002 0.0101,0.0267 0.0109,0.0287 0.004,0.006 0.009,0.0109 0.0166,0.0138 0.001,0.006 0.002,0.0129 0.003,0.0193 0.0158,0.0316 0.0366,0.0668 0.0641,0.0812 0.0136,-0.048 -0.003,-0.1005 -0.0223,-0.14155 -0.0124,-0.0252 -0.0188,-0.0517 -0.0295,-0.0769 -0.0101,-0.0252 -0.0289,-0.0438 -0.0433,-0.0648 -0.0208,-0.0295 -0.0403,-0.0574 -0.0668,-0.0804 -0.051,-0.0425 -0.11006,-0.0641 -0.16399,-0.0985 -0.0251,-0.0158 -0.048,-0.0302 -0.0762,-0.0381 -0.0539,-0.0166 -0.10933,-0.0223 -0.16381,-0.0403 -0.0455,-0.0158 -0.0871,-0.009 -0.13307,-0.0158 -0.0747,-0.0101 -0.14025,-0.0331 -0.21424,-0.0331 -0.0863,0 -0.17191,0 -0.25805,0 -0.0468,0 -0.0885,-0.002 -0.13381,0.0151 -0.0502,0.018 -0.0999,0.0388 -0.15019,0.0591 -0.0289,0.0114 -0.0418,0.023 -0.0655,0.0423 -0.0208,0.0173 -0.046,0.0252 -0.0683,0.0396 -0.0366,0.0237 -0.0732,0.0641 -0.10344,0.0999 -0.0316,0.0374 -0.0727,0.0589 -0.10583,0.0928 -0.0309,0.0287 -0.051,0.0683 -0.0769,0.10141 -0.0431,0.0552 -0.0797,0.12645 -0.11209,0.19197 -0.0151,0.0295 -0.0287,0.0611 -0.046,0.0876 -0.0201,0.0309 -0.046,0.0547 -0.0655,0.0871 -0.0171,0.0287 -0.0322,0.0561 -0.0532,0.0826 -0.0265,0.0359 -0.0589,0.0633 -0.0804,0.10418 -0.0195,0.0361 -0.0418,0.0705 -0.0604,0.10712 -0.0109,0.0217 -0.021,0.0447 -0.0366,0.0618 -0.0131,0.0151 -0.0289,0.0282 -0.0425,0.0418 -0.0173,0.018 -0.041,0.0344 -0.0561,0.0547 -0.0178,0.023 -0.0302,0.051 -0.0488,0.074 -0.023,0.0274 -0.0339,0.0517 -0.0453,0.0863 -0.0173,0.0495 -0.046,0.0928 -0.0663,0.14025 -0.0151,0.0359 -0.0243,0.0747 -0.0431,0.10915 -0.018,0.0324 -0.0287,0.067 -0.049,0.0979 -0.0423,0.0668 -0.0883,0.12866 -0.12939,0.19621 -0.0114,0.0188 -0.0166,0.046 -0.0272,0.0668 -0.0136,0.0267 -0.0295,0.0519 -0.0433,0.0791 -0.0223,0.0445 -0.0394,0.0935 -0.0639,0.13657 -0.0195,0.0339 -0.0346,0.0569 -0.046,0.0957 -0.0216,0.0784 -0.0195,0.16032 -0.0195,0.24222 0,0.0366 -0.006,0.0676 -0.009,0.10289 -0.003,0.0351 -0.0208,0.0718 -0.0337,0.10344 -0.0109,0.0274 -0.0116,0.0396 -0.0136,0.0683 -0.003,0.0374 -0.0203,0.069 -0.0282,0.10436 -0.009,0.0359 -0.0121,0.0661 -0.0114,0.10417 0.001,0.0539 -0.0208,0.10363 -0.0374,0.15093 -0.026,0.072 -0.0309,0.16105 -0.0309,0.2367 0,0.0618 -0.009,0.13933 0.009,0.19989 0.0121,0.0401 0.0337,0.0804 0.048,0.12074 0.0374,0.10565 0.0999,0.19989 0.12811,0.30922 0.0121,0.051 0.023,0.1027 0.0366,0.1524 0.0208,0.0725 0.0503,0.14154 0.0718,0.21424 0.0217,0.074 0.0324,0.15461 0.0626,0.22492 0.0188,0.0433 0.0324,0.09 0.0497,0.13455 0.0287,0.0718 0.0826,0.1143 0.13215,0.16528 0.044,0.044 0.0863,0.0878 0.13031,0.1316 0.0668,0.0668 0.10712,0.16473 0.16308,0.2459 0.0512,0.0755 0.10933,0.13013 0.16822,0.19492 0.0374,0.0401 0.0712,0.0848 0.10584,0.12792 0.0366,-0.0324 0.0179,-0.13455 0.0114,-0.17982 -0.0144,-0.0906 -0.0381,-0.17891 -0.0475,-0.27094 -0.0136,-0.14522 -0.0114,-0.28989 -0.0208,-0.43511 -0.007,-0.10123 -0.0116,-0.1997 -0.0121,-0.30112 -0.001,-0.0878 0.005,-0.16749 0.0423,-0.24443 0.023,-0.0468 0.0388,-0.10657 0.0539,-0.15829 0.0166,-0.0539 0.0388,-0.10638 0.0582,-0.15884 0.0237,-0.0626 0.049,-0.12516 0.0683,-0.18976 0.0166,-0.0539 0.041,-0.10639 0.0475,-0.164 0.0569,0.0388 0.092,0.11356 0.14743,0.15461 0.0453,0.0331 0.0942,0.0604 0.14375,0.0804 0.16031,0.067 0.32578,0.11798 0.47891,0.20707 0.13013,0.0762 0.26449,0.13454 0.40971,0.14964 0.069,0.006 0.13951,0.002 0.20927,0.002 h 0.34879 c 0.10417,0 0.21056,-0.009 0.31418,0.0107 0.0589,0.0123 0.1178,0.0274 0.17761,0.0366 0.10841,0.0151 0.21627,0.041 0.3256,0.0561 0.14246,0.0201 0.28326,0.0482 0.42499,0.0705 0.0416,0.006 0.0834,0.0114 0.12423,0.0193 0.046,0.007 0.0893,0.0267 0.13455,0.0346 0.0834,0.0158 0.1697,0.0423 0.24369,0.0963 0.0814,0.0591 0.17393,0.0893 0.26743,0.11374 0.0497,0.0129 0.11872,0.0171 0.16326,0.051 -0.0668,-0.0482 -0.12792,-0.10786 -0.18774,-0.16823 -0.0329,-0.0331 -0.0596,-0.0655 -0.0804,-0.11154 -0.0129,-0.0309 -0.0208,-0.051 -0.041,-0.0755 -0.0718,-0.0863 -0.1524,-0.14449 -0.2437,-0.20339"
       style="fill:#21201d;fill-opacity:1;fill-rule:nonzero;stroke:none;stroke-width:0.184057"
       id="path542" />
    <path
       d="m 323.17805,151.25956 c 0.0359,-0.0101 -0.0107,-0.26173 -0.0114,-0.27112 -0.0109,-0.0878 -0.023,-0.17541 -0.0375,-0.26173 -0.008,-0.0532 -0.0179,-0.10068 -0.0186,-0.15535 -0.003,-0.16233 -0.0445,-0.3221 -7e-4,-0.48315 0.0101,-0.0374 0.0252,-0.0683 0.0295,-0.10859 0.004,-0.0488 0.0188,-0.0898 0.0359,-0.13216 0.023,-0.0561 0.0316,-0.12442 0.0497,-0.18332 0.018,-0.0598 0.0272,-0.12736 0.0403,-0.18921 0.0265,-0.12424 0.0668,-0.24295 0.0963,-0.36664 0.0151,-0.0646 0.049,-0.11927 0.0648,-0.18332 0.0136,-0.0582 0.0215,-0.1086 0.0468,-0.16326 0.0215,-0.0468 0.0503,-0.0827 0.074,-0.12645 0.0245,-0.0453 0.0351,-0.10436 0.0675,-0.1432 0.0316,-0.0381 0.049,-0.0854 0.0747,-0.13141 0.026,-0.0482 0.049,-0.0957 0.0742,-0.14394 0.0374,-0.0725 0.0898,-0.13933 0.13657,-0.20412 0.0438,-0.0589 0.0999,-0.0935 0.14522,-0.1489 0.0445,-0.0552 0.095,-0.10271 0.13804,-0.15884 0.0136,-0.0173 0.0193,-0.0403 0.0324,-0.0574 0.046,-0.0633 0.0834,-0.12737 0.14025,-0.17909 0.0315,-0.0287 0.0574,-0.0589 0.0861,-0.0913 0.0418,-0.0445 0.0913,-0.0799 0.13528,-0.12074 0.0322,-0.0302 0.0675,-0.0532 0.10068,-0.0814 0.0315,-0.0265 0.0596,-0.0574 0.0933,-0.0819 0.0353,-0.0267 0.0705,-0.0547 0.10859,-0.0755 0.0425,-0.0245 0.0893,-0.0324 0.13381,-0.0504 0.0732,-0.0302 0.14669,-0.0567 0.22289,-0.0777 0.0495,-0.0144 0.10123,-0.0129 0.1524,-0.0144 0.0388,-0.002 0.0755,-0.0129 0.1143,-0.0121 0.12147,0 0.24295,0.003 0.36516,0 0.0806,-0.002 0.15535,0.0388 0.2286,0.0725 0.0309,0.0138 0.0618,0.0296 0.092,0.0447 0.0289,0.0151 0.0613,0.0272 0.09,0.0445 0.0215,0.0129 0.0374,0.0302 0.0574,0.0468 0.018,0.0158 0.0403,0.0223 0.0596,0.0337 0.0383,0.021 0.0764,0.0611 0.1051,0.0965 0.0179,0.0215 0.0309,0.0381 0.0438,0.0639 0.0116,0.023 0.0316,0.041 0.0425,0.0655 0.0114,0.0252 0.007,0.0547 0.0151,0.0797 0.005,0.0145 0.0164,0.0274 0.0201,0.0425 0.004,0.0166 0.002,0.0302 0.009,0.046 0.008,0.0201 0.0215,0.0351 0.0302,0.0554 0.0121,0.0302 0.0272,0.0626 0.0309,0.0955 0.002,0.0346 0.01,0.0705 0.0166,0.10436 0.003,0.0158 7.1e-4,0.0302 0.002,0.046 0.002,0.0193 0.0101,0.0272 0.0151,0.0468 0.006,0.0215 0.006,0.0409 0.0138,0.0617 0.0129,0.0361 0.0337,0.0663 0.0495,0.10068 0.0201,0.0447 0.0467,0.0806 0.072,0.12019 0.0129,0.0201 0.0193,0.0438 0.0337,0.0618 0.0166,0.0208 0.0403,0.0374 0.0591,0.0547 0.0359,0.0344 0.0604,0.0552 0.10123,0.0755 0.0224,0.01 0.0453,0.0223 0.0677,0.0322 0.0394,0.0203 0.0782,0.0245 0.12147,0.0309 0.0366,0.004 0.13363,0.0296 0.15387,-0.0251 0.008,-0.0223 0.0136,-0.0705 0.0107,-0.0942 -0.003,-0.0287 -0.0201,-0.051 -0.0302,-0.0777 -0.0201,-0.0589 -0.0589,-0.0871 -0.10988,-0.10491 -0.0316,-0.0109 -0.067,-0.0109 -0.0987,-0.018 -0.0208,-0.004 -0.0466,-0.0107 -0.0539,-0.0359 -0.003,-0.0109 -0.001,-0.0547 0.003,-0.0655 0.0438,-0.005 0.0891,-0.002 0.13381,-0.002 0.0223,0 0.0661,0.0114 0.0775,-0.0166 0.003,-0.008 0.004,-0.0475 0,-0.0539 -0.01,-0.0203 -0.0532,-0.009 -0.0683,-0.0101 -0.0344,-0.002 -0.0747,-0.0216 -0.0913,-0.0589 -0.023,-0.0532 0.044,-0.0683 0.0777,-0.069 0.0611,-0.002 0.12222,0 0.18332,0 0.0762,0 0.15756,0.0114 0.23302,0 0.0223,-0.004 0.0416,-0.0166 0.0641,-0.0223 0.0201,-0.006 0.0388,-0.0123 0.0589,-0.018 0.006,-0.002 0.0208,-0.002 0.026,-0.007 10e-4,-0.002 0.0121,-0.0346 0.0107,-0.0302 0.004,-0.007 0.0109,-0.0129 0.0144,-0.0208 0.007,-0.0158 0.006,-0.0309 0.005,-0.049 -0.001,-0.0431 -0.023,-0.0999 -0.0626,-0.10712 -0.095,-0.0173 -0.18995,0.0173 -0.27977,0.046 -0.0316,0.009 -0.0559,0.0121 -0.0883,0.0121 -0.0158,0 -0.0388,0.006 -0.0539,0.002 -0.018,-0.006 -0.041,-0.0337 -0.0561,-0.0482 -0.0208,-0.0208 -0.0302,-0.0495 -0.0151,-0.0804 0.0252,-0.0525 0.0963,-0.0396 0.12792,-0.0841 0.0346,-0.0468 0.002,-0.11871 -0.0295,-0.15166 -0.0324,-0.0331 -0.0532,-0.044 -0.0942,-0.0425 -0.0668,0.003 -0.10565,0.0769 -0.16878,0.0814 -0.044,0.004 -0.049,-0.0217 -0.0641,-0.0641 -0.009,-0.026 -0.0188,-0.0489 -0.0295,-0.0727 -0.009,-0.0193 -0.004,-0.0315 -0.0101,-0.051 -0.005,-0.0166 -0.0201,-0.0265 -0.0287,-0.0411 -0.0116,-0.0186 -0.0151,-0.0287 -0.0324,-0.0423 -0.0245,-0.0188 -0.046,-0.0317 -0.0733,-0.0438 -0.0237,-0.0101 -0.044,-0.0316 -0.0677,-0.041 -0.0107,-0.004 -0.0272,0 -0.0351,-0.0129 -0.0101,-0.0138 -0.005,-0.0519 -0.002,-0.0683 0.0173,-0.0828 0.0554,-0.2078 0.004,-0.2805 -0.0346,-0.0482 -0.0871,-0.0777 -0.13307,-0.10565 -0.0193,-0.0116 -0.0653,-0.0482 -0.0906,-0.0431 -0.041,0.008 -0.0396,0.051 -0.0433,0.0883 -0.004,0.0351 -0.009,0.0733 -0.0201,0.10639 -0.0121,0.0388 -0.0245,0.0878 -0.0503,0.11724 -0.0158,0.0186 -0.0756,0.0151 -0.10068,0.0114 -0.0366,-0.006 -0.067,-0.0295 -0.10141,-0.0473 -0.041,-0.0225 -0.0819,-0.0497 -0.1259,-0.0611 -0.0416,-0.0109 -0.0834,-0.0158 -0.12369,-0.0252 -0.0495,-0.0116 -0.10564,-0.006 -0.15663,-0.006 h -0.58308 c -0.14817,0 -0.29763,-0.0101 -0.44579,0 -0.0416,0.003 -0.0812,0.0316 -0.11504,0.0582 -0.0445,0.0339 -0.095,0.072 -0.14301,0.0977 -0.10141,0.0532 -0.20135,0.11724 -0.30627,0.16105 -0.023,0.009 -0.0482,0.0123 -0.0712,0.021 -0.0287,0.0114 -0.0569,0.0294 -0.0856,0.0438 -0.0633,0.0302 -0.1408,0.0582 -0.19271,0.11283 -0.0316,0.0331 -0.0725,0.0482 -0.10859,0.0727 -0.0201,0.0144 -0.0374,0.0329 -0.0589,0.046 -0.0208,0.0136 -0.0381,0.0258 -0.0561,0.0445 -0.025,0.0252 -0.0567,0.0351 -0.0849,0.0567 -0.0309,0.0245 -0.0639,0.0388 -0.0955,0.0618 -0.023,0.0158 -0.0431,0.0346 -0.0675,0.0482 -0.0287,0.0166 -0.0611,0.028 -0.0885,0.0482 -0.0388,0.0302 -0.0718,0.0661 -0.11283,0.0913 -0.0188,0.0114 -0.0316,0.0272 -0.0503,0.0396 -0.026,0.0179 -0.0554,0.0302 -0.0821,0.0468 -0.0547,0.0337 -0.10344,0.0804 -0.1559,0.11854 -0.0878,0.0648 -0.15534,0.15461 -0.2194,0.25032 -0.0344,0.0502 -0.0705,0.0985 -0.10785,0.14227 -0.0309,0.0366 -0.046,0.0871 -0.0733,0.12866 -0.0166,0.0267 -0.0374,0.0497 -0.0561,0.0755 -0.0144,0.0188 -0.0201,0.0425 -0.0366,0.0598 -0.0223,0.023 -0.046,0.0409 -0.0655,0.0683 -0.0258,0.0366 -0.0438,0.0797 -0.0661,0.11927 -0.0245,0.0425 -0.0503,0.0834 -0.0725,0.12737 -0.0418,0.079 -0.069,0.16749 -0.11724,0.24222 -0.0769,0.12221 -0.16252,0.24166 -0.22142,0.3775 -0.0101,0.0223 -0.021,0.0352 -0.0346,0.0524 -0.0151,0.0186 -0.0201,0.0396 -0.0295,0.0633 -0.0193,0.048 -0.0445,0.0869 -0.0574,0.13878 -0.0217,0.0826 -0.0539,0.16308 -0.069,0.24793 -0.0309,0.16896 -0.0928,0.33148 -0.0907,0.50615 0.001,0.22216 -0.01,0.44727 7e-4,0.66869 0.002,0.0503 0.004,0.10638 0.0195,0.15387 0.0158,0.0482 0.0366,0.0935 0.0525,0.14173 0.0388,0.1143 0.0992,0.21774 0.14669,0.32707 0.0316,0.0705 0.0797,0.14099 0.12792,0.19473 0.028,0.0309 0.0524,0.0519 0.0871,0.0685 0.0388,0.0171 0.0769,0.0423 0.11706,0.0545 0.0821,0.0252 0.16252,0.0583 0.24737,0.0606 0.0374,0.002 0.0742,0.0114 0.11154,0.0121 0.0574,0 0.11503,0 0.17246,0 0.0489,0 0.0819,-0.006 0.12515,-0.0324 0.0344,-0.0208 0.0646,-0.0618 0.092,-0.0942 0.0272,-0.0315 0.0445,-0.0718 0.069,-0.10639 0.0374,-0.051 0.0733,-0.10123 0.10271,-0.15884 0.0188,-0.0366 0.0381,-0.0683 0.0482,-0.1108 0.009,-0.0416 0.0166,-0.0861 0.0245,-0.12866"
       style="fill:#21201d;fill-opacity:1;fill-rule:nonzero;stroke:none;stroke-width:0.184057"
       id="path544" />
  </g>
</svg>
