<?xml version="1.0" encoding="UTF-8" standalone="no"?>
<!-- Created with Inkscape (http://www.inkscape.org/) -->

<svg
   width="6.2256632mm"
   height="6.07934mm"
   viewBox="0 0 6.2256632 6.07934"
   version="1.1"
   id="svg2200"
   inkscape:version="1.1.2 (0a00cf5339, 2022-02-04)"
   sodipodi:docname="e1.svg"
   xmlns:inkscape="http://www.inkscape.org/namespaces/inkscape"
   xmlns:sodipodi="http://sodipodi.sourceforge.net/DTD/sodipodi-0.dtd"
   xmlns="http://www.w3.org/2000/svg"
   xmlns:svg="http://www.w3.org/2000/svg">
  <sodipodi:namedview
     id="namedview2202"
     pagecolor="#ffffff"
     bordercolor="#666666"
     borderopacity="1.0"
     inkscape:pageshadow="2"
     inkscape:pageopacity="0.0"
     inkscape:pagecheckerboard="0"
     inkscape:document-units="mm"
     showgrid="false"
     inkscape:zoom="0.64052329"
     inkscape:cx="12.489788"
     inkscape:cy="11.709176"
     inkscape:window-width="2560"
     inkscape:window-height="1376"
     inkscape:window-x="0"
     inkscape:window-y="0"
     inkscape:window-maximized="1"
     inkscape:current-layer="layer1" />
  <defs
     id="defs2197" />
  <g
     inkscape:label="Layer 1"
     inkscape:groupmode="layer"
     id="layer1"
     transform="translate(-101.80913,-145.46067)">
    <path
       d="m 107.77222,146.17008 c 0.0145,-0.0287 0.0236,-0.074 0.0289,-0.13583 0,-0.0482 -0.004,-0.0806 -0.007,-0.097 -0.005,-0.0166 -0.0187,-0.0447 -0.0425,-0.0821 -0.0335,-0.0525 -0.0755,-0.0913 -0.12573,-0.11504 -0.0504,-0.0237 -0.0972,-0.0337 -0.14023,-0.0287 -0.0814,0.0144 -0.13585,0.0396 -0.16474,0.0755 -0.0286,0.0353 -0.0431,0.10362 -0.0431,0.20431 0,0.0762 0.008,0.13012 0.0215,0.16105 0.0145,0.0309 0.0433,0.0539 0.0863,0.0683 0.0339,0.009 0.0834,0.0151 0.15017,0.0171 0.067,0.003 0.1202,-7.1e-4 0.1583,-0.01 0.0381,-0.009 0.0646,-0.0289 0.0782,-0.0576 m -1.72036,2.98229 -0.0286,-0.0144 c -0.0138,-0.009 -0.0226,-0.0252 -0.0243,-0.0468 -0.004,-0.0215 0,-0.0777 0.004,-0.16823 0.004,-0.0525 0.008,-0.12074 0.0102,-0.20412 0.004,-0.0841 0.006,-0.15682 0.0109,-0.21866 0.005,-0.12939 0.012,-0.20706 0.0222,-0.23357 0.009,-0.026 0.0353,-0.0418 0.0782,-0.046 0.0145,-0.005 0.0251,-0.006 0.0325,-0.004 0.007,0.002 0.0109,0.008 0.0109,0.0173 0.01,0.0482 0.018,0.0826 0.0251,0.10418 0.007,0.0217 0.018,0.0418 0.0321,0.0613 0.01,0.009 0.0173,0.0215 0.0243,0.0359 0.008,0.0144 0.0109,0.0237 0.0109,0.028 0,0.0339 -0.006,0.0878 -0.0208,0.16178 -0.0145,0.074 -0.0335,0.15167 -0.0574,0.23302 -0.0145,0.0475 -0.0275,0.0955 -0.0396,0.14375 l -0.0254,0.0999 c -0.004,0.0287 -0.009,0.0468 -0.0145,0.0539 -0.005,0.007 -0.0113,0.008 -0.0215,0.004 -0.01,0 -0.0187,-0.003 -0.0286,-0.007 m -0.73477,0.40125 c -0.0116,-0.005 -0.0201,-0.009 -0.0243,-0.0144 -0.005,-0.005 -0.0102,-0.0309 -0.0145,-0.0784 -0.005,-0.0482 -0.0102,-0.10565 -0.0145,-0.17246 -0.0102,-0.0907 -0.0145,-0.17191 -0.0145,-0.24388 0,-0.071 0.005,-0.16234 0.0145,-0.27167 0.004,-0.0769 0.008,-0.16547 0.0106,-0.26541 0.004,-0.10049 0.004,-0.18185 0.004,-0.24443 V 148.048 h 0.0431 c 0.01,0 0.0236,-0.004 0.0431,-0.0107 0.0187,-0.007 0.0354,-0.0151 0.0497,-0.0245 0.0145,-0.0101 0.0286,-0.018 0.0431,-0.026 0.0145,-0.006 0.0219,-0.008 0.0219,-0.003 0.004,0 0.008,0.0287 0.0106,0.0856 0.004,0.0574 0.004,0.12645 0.004,0.20835 0,0.14817 0.004,0.2575 0.0106,0.32928 0.007,0.072 0.0201,0.14099 0.0395,0.20781 0.0138,0.0433 0.0208,0.0878 0.0208,0.13233 0,0.046 -0.009,0.11651 -0.0286,0.21204 -0.0187,0.12442 -0.0366,0.21866 -0.0532,0.28271 -0.0173,0.0646 -0.03,0.10491 -0.0396,0.11853 -0.0145,0.0144 -0.0254,0.0216 -0.0325,0.0216 -0.007,0 -0.025,-0.005 -0.0539,-0.0144 -0.0145,-0.005 -0.0272,-0.009 -0.0394,-0.0144 m -0.82825,0.32284 v -0.48021 c 0,-0.12957 0,-0.26173 -0.004,-0.3983 -0.004,-0.13602 -0.006,-0.23302 -0.0109,-0.28989 -0.0194,-0.19621 -0.0296,-0.38247 -0.0321,-0.55935 -0.004,-0.17688 0.004,-0.30848 0.018,-0.39388 0.0145,-0.0814 0.0268,-0.14026 0.036,-0.17615 0.009,-0.0361 0.0187,-0.0512 0.0286,-0.0467 0.005,0 0.0201,0.01 0.0468,0.0287 0.0258,0.0193 0.0559,0.0431 0.0891,0.072 l 0.1222,0.1005 -0.007,0.91753 c 0,0.29615 0,0.52843 -0.004,0.69518 -0.004,0.1675 -0.006,0.25805 -0.0109,0.2726 -0.005,0.0136 -0.0102,0.0381 -0.0145,0.071 -0.005,0.0339 -0.01,0.0648 -0.0145,0.0935 -0.005,0.0576 -0.01,0.092 -0.0145,0.10436 -0.005,0.0114 -0.0166,0.0223 -0.0361,0.0315 -0.0475,0.0195 -0.0812,0.0282 -0.10068,0.026 -0.0187,-0.003 -0.0381,-0.0136 -0.0567,-0.0324 z m -1.01744,-0.43419 c -0.0236,-0.021 -0.0481,-0.0388 -0.0718,-0.0534 -0.0332,-0.0236 -0.0576,-0.0466 -0.0712,-0.0683 -0.0145,-0.0215 -0.0366,-0.0631 -0.0648,-0.12571 -0.0619,-0.12865 -0.10492,-0.25676 -0.12866,-0.38321 -0.0243,-0.12663 -0.0243,-0.22068 0,-0.28326 0.005,-0.0188 0.0138,-0.0512 0.0279,-0.0964 0.0145,-0.0453 0.0268,-0.0898 0.0361,-0.1329 0.0339,-0.10933 0.0611,-0.18553 0.0827,-0.22583 0.0215,-0.041 0.0539,-0.0777 0.0962,-0.11081 0.0526,-0.0387 0.10788,-0.0755 0.16549,-0.11135 0.0574,-0.0359 0.11207,-0.0683 0.16453,-0.0963 l 0.0863,-0.044 0.0286,0.0289 c 0.0187,0.0243 0.0258,0.0431 0.0212,0.0574 -0.005,0.0144 -0.0236,0.0316 -0.0569,0.0504 -0.0769,0.0381 -0.13656,0.0847 -0.17964,0.13933 -0.0425,0.0554 -0.0878,0.14247 -0.13599,0.26247 -0.048,0.10933 -0.079,0.19345 -0.0935,0.25087 -0.0138,0.0569 -0.0208,0.12369 -0.0208,0.19989 0,0.11504 0.0166,0.21424 0.0497,0.2978 0.0335,0.0841 0.0862,0.17099 0.15812,0.26155 0.0332,0.0331 0.0525,0.0591 0.0569,0.0756 0.005,0.0164 0.008,0.0488 0.008,0.097 0,0.0475 0,0.0762 -0.005,0.0863 -0.004,0.009 -0.0106,0.0136 -0.0243,0.0136 -0.01,0 -0.0229,-0.004 -0.0394,-0.0109 -0.0173,-0.007 -0.0303,-0.0178 -0.0396,-0.0316 -0.01,-0.01 -0.0268,-0.0258 -0.0504,-0.0473 m 1.55582,0.99281 c 0.0332,-0.009 0.0591,-0.0166 0.0784,-0.0208 0.0243,-0.005 0.0532,-0.0116 0.0863,-0.018 0.0332,-0.007 0.0648,-0.0136 0.0935,-0.0179 0.0286,-0.005 0.0581,-0.0109 0.0891,-0.018 0.0318,-0.007 0.0561,-0.0109 0.0755,-0.0109 0.0194,-0.005 0.0361,-0.009 0.0504,-0.0107 0.0145,-0.002 0.0236,-0.006 0.0279,-0.0109 0.005,-0.005 0.0173,-0.009 0.0359,-0.0144 l 0.0576,-0.0144 c 0.0574,-0.0144 0.13233,-0.0467 0.22638,-0.0964 0.0928,-0.0503 0.15829,-0.0948 0.19713,-0.13289 l 0.0611,-0.0611 c 0.031,-0.0309 0.0653,-0.0633 0.10343,-0.0964 0.0332,-0.0337 0.0618,-0.0646 0.0863,-0.0935 0.0236,-0.0287 0.0353,-0.0453 0.0353,-0.0502 0,-0.005 0.005,-0.0129 0.0145,-0.0245 0.01,-0.0121 0.0219,-0.023 0.036,-0.0331 0.0718,-0.0567 0.13163,-0.14799 0.17967,-0.27167 0.0475,-0.12442 0.0742,-0.25603 0.0784,-0.39481 0,-0.0186 0,-0.0416 0.004,-0.0683 0.004,-0.0258 0.006,-0.046 0.0106,-0.0604 0.0102,-0.0482 0.0131,-0.19989 0.0109,-0.45499 -0.004,-0.25603 -0.006,-0.39554 -0.0109,-0.41929 -0.005,-0.01 -0.008,-0.0193 -0.0106,-0.0287 -0.004,-0.0101 -0.004,-0.0173 -0.004,-0.0223 0,-0.0136 -0.004,-0.026 -0.0106,-0.0353 -0.007,-0.01 -0.0226,-0.0164 -0.0468,-0.0215 -0.0381,-0.01 -0.0776,-0.0302 -0.11797,-0.0611 -0.041,-0.0309 -0.0732,-0.0653 -0.097,-0.10418 -0.01,-0.0136 -0.0229,-0.0287 -0.0395,-0.0425 -0.0166,-0.0151 -0.0346,-0.0265 -0.0532,-0.0359 -0.0433,-0.0193 -0.11155,-0.0524 -0.20503,-0.10068 -0.0926,-0.0475 -0.1445,-0.0762 -0.15371,-0.0863 -0.072,-0.0525 -0.16841,-0.1027 -0.29062,-0.15019 -0.12146,-0.0475 -0.25657,-0.0834 -0.40474,-0.10786 -0.0286,-0.004 -0.0618,-0.0114 -0.10068,-0.0208 -0.0381,-0.0101 -0.069,-0.0166 -0.0927,-0.0215 -0.0194,-0.005 -0.048,-0.0109 -0.0861,-0.018 -0.0381,-0.007 -0.0742,-0.0129 -0.10785,-0.018 -0.0332,-0.005 -0.0712,-0.01 -0.1143,-0.0144 -0.0433,-0.005 -0.0784,-0.009 -0.10788,-0.0144 -0.0381,-0.005 -0.069,-0.007 -0.0935,-0.007 -0.0236,0 -0.0547,0.007 -0.0928,0.0215 -0.0236,0.004 -0.0611,0.0123 -0.11078,0.0215 -0.0503,0.0101 -0.097,0.0188 -0.14008,0.0289 -0.12884,0.0186 -0.22935,0.0359 -0.30131,0.0503 -0.0712,0.0143 -0.12863,0.0287 -0.17191,0.0425 -0.043,0.0144 -0.0868,0.0359 -0.13215,0.0646 -0.046,0.0287 -0.0683,0.0525 -0.0683,0.072 0,0.0144 -0.0145,0.0329 -0.0433,0.0574 -0.0286,0.0237 -0.0597,0.0453 -0.0928,0.0641 -0.0152,0.0101 -0.0318,0.0208 -0.0502,0.0324 -0.0194,0.0121 -0.0359,0.023 -0.0505,0.0322 -0.009,0.009 -0.0265,0.023 -0.0502,0.0396 -0.0236,0.0166 -0.0453,0.0294 -0.0648,0.0396 -0.0187,0.0136 -0.0487,0.0366 -0.0891,0.0683 -0.0403,0.0309 -0.0806,0.0655 -0.1187,0.10362 -0.0381,0.0337 -0.0775,0.0668 -0.1178,0.0999 -0.0411,0.0337 -0.0712,0.0552 -0.0898,0.0646 -0.0194,0.0144 -0.0433,0.0316 -0.072,0.0504 -0.005,0.12 -0.01,0.22216 -0.0145,0.3083 0,0.0863 -0.004,0.17688 -0.007,0.27259 -0.005,0.0955 -0.01,0.16675 -0.0145,0.21498 l -0.007,0.17908 0.0425,0.0718 c 0.0145,0.0195 0.0265,0.0353 0.0359,0.0504 0.0102,0.0136 0.0145,0.0236 0.0145,0.0287 0.0145,0.0331 0.0289,0.0589 0.0433,0.0784 0.01,0.0193 0.0187,0.0394 0.0286,0.0611 0.01,0.0215 0.0166,0.0374 0.0215,0.0468 0.005,0.0431 0.0332,0.10123 0.0863,0.17541 0.0525,0.074 0.12369,0.15387 0.21495,0.24001 0.0475,0.0526 0.0943,0.0979 0.13952,0.13602 0.0453,0.0388 0.0725,0.0626 0.0827,0.0718 0.0138,0.005 0.0359,0.018 0.064,0.0396 0.0286,0.0215 0.0574,0.0418 0.0862,0.0611 0.11504,0.0906 0.19272,0.14964 0.23301,0.17541 0.0403,0.0267 0.092,0.0539 0.15388,0.0828 0.11007,0.0567 0.21424,0.0941 0.31196,0.11061 0.0978,0.0166 0.24021,0.023 0.42647,0.018 0.11063,0 0.18186,-0.002 0.21552,-0.007 0.0332,-0.005 0.0713,-0.0166 0.11451,-0.0361 0.0286,-0.009 0.0596,-0.0186 0.0933,-0.0287 m -0.54131,1.06846 c -0.22715,-0.005 -0.36886,-0.002 -0.42629,0.007 -0.0388,0.0101 -0.0648,0.0129 -0.0791,0.0107 -0.0145,-0.002 -0.0381,-0.0158 -0.072,-0.0394 -0.0381,-0.0237 -0.0856,-0.046 -0.14301,-0.0685 -0.0576,-0.0215 -0.11007,-0.0344 -0.15812,-0.0386 -0.0187,-0.005 -0.0504,-0.0158 -0.0927,-0.0324 -0.0433,-0.0166 -0.0863,-0.0346 -0.1294,-0.0539 -0.0433,-0.0195 -0.0871,-0.0396 -0.13233,-0.0611 -0.0453,-0.0208 -0.0827,-0.0346 -0.11155,-0.0388 -0.0328,-0.0101 -0.0618,-0.0223 -0.0856,-0.0359 -0.0236,-0.0153 -0.0481,-0.0339 -0.0718,-0.0576 -0.0194,-0.0193 -0.0381,-0.0374 -0.0576,-0.0539 -0.0194,-0.0166 -0.031,-0.0272 -0.0353,-0.0324 -0.005,0 -0.0152,-0.009 -0.0286,-0.025 -0.0152,-0.0166 -0.0289,-0.0346 -0.0433,-0.0539 -0.0769,-0.0999 -0.18758,-0.23008 -0.33352,-0.39057 -0.14598,-0.16032 -0.23523,-0.2494 -0.26892,-0.26873 -0.01,-0.004 -0.0166,-0.0123 -0.0215,-0.0217 -0.004,-0.009 -0.004,-0.0257 0,-0.0495 l 0.0145,-0.0438 c 0.005,-0.0138 0.007,-0.026 0.007,-0.0353 0.0102,-0.0144 0.0303,-0.0309 0.0611,-0.0503 0.031,-0.0195 0.0517,-0.026 0.0611,-0.0215 0.004,0 0.0131,0.001 0.025,0.004 0.0113,0.003 0.0222,0.006 0.0321,0.0109 0.0138,0 0.046,0.0223 0.0964,0.0683 0.0503,0.0453 0.12075,0.11356 0.21131,0.20412 0.11504,0.11503 0.22013,0.2135 0.31566,0.29762 0.0957,0.0834 0.15311,0.12516 0.17191,0.12516 0.0286,0.0193 0.0524,0.0339 0.0718,0.0431 0.0433,0.0289 0.11229,0.0611 0.20782,0.0965 0.0957,0.0359 0.1984,0.0661 0.30847,0.0898 0.12866,0.0388 0.26172,0.0633 0.39754,0.0755 0.1366,0.0116 0.32653,0.0203 0.57023,0.0245 0.18112,0 0.30921,-7e-4 0.38319,-0.003 0.074,-0.003 0.15462,-0.008 0.24021,-0.0179 0.0574,-0.009 0.11207,-0.0195 0.16453,-0.0287 0.0532,-0.009 0.0893,-0.0166 0.10785,-0.0217 0.0863,-0.0287 0.21995,-0.0861 0.40199,-0.17172 0.18111,-0.0863 0.30554,-0.15314 0.37235,-0.20063 0.0236,-0.0144 0.0504,-0.0324 0.0791,-0.0539 0.0279,-0.0215 0.0525,-0.0374 0.071,-0.0468 0.0339,-0.0237 0.0863,-0.0683 0.15829,-0.13233 0.0712,-0.0646 0.13804,-0.12793 0.20063,-0.1905 l 0.0567,-0.0567 0.0152,0.0423 c 0.005,0.0101 0.01,0.023 0.0138,0.0396 0.005,0.0166 0.01,0.0324 0.0145,0.0468 0.005,0.01 0.01,0.0237 0.0145,0.0431 -0.005,0 -0.0166,0.006 -0.0353,0.018 -0.0194,0.0114 -0.0409,0.0252 -0.0646,0.0396 -0.0339,0.0186 -0.0697,0.0453 -0.10784,0.0782 -0.0381,0.0339 -0.0792,0.072 -0.1215,0.11503 -0.0339,0.0381 -0.067,0.0742 -0.10068,0.10786 -0.0332,0.0331 -0.0576,0.0547 -0.072,0.0641 -0.0475,0.0431 -0.11998,0.11578 -0.21847,0.21866 -0.0977,0.10271 -0.1662,0.17817 -0.2043,0.22566 -0.0236,0.0287 -0.0517,0.0539 -0.0819,0.0755 -0.0311,0.0216 -0.095,0.0591 -0.1905,0.11154 -0.15755,0.0762 -0.26025,0.12074 -0.30847,0.13216 -0.0475,0.0123 -0.15737,0.018 -0.32928,0.018 -0.0812,0 -0.15533,-7e-4 -0.22289,-0.004 -0.0661,-0.002 -0.10417,-0.007 -0.11356,-0.0109 -0.0286,-0.009 -0.15755,-0.0166 -0.38393,-0.0215 m -0.11874,-0.70255 c -0.0423,-0.004 -0.0948,-0.009 -0.15734,-0.0144 -0.15811,-0.0186 -0.31789,-0.051 -0.4802,-0.097 -0.16252,-0.0453 -0.27682,-0.092 -0.34438,-0.13952 -0.0145,-0.009 -0.0275,-0.018 -0.0388,-0.0252 -0.0123,-0.007 -0.0212,-0.0107 -0.0261,-0.0107 -0.0138,0 -0.10488,-0.0777 -0.27185,-0.23302 -0.16746,-0.15535 -0.26815,-0.25658 -0.30109,-0.3048 -0.01,-0.009 -0.0254,-0.0237 -0.0468,-0.0425 -0.0215,-0.0193 -0.044,-0.0388 -0.0675,-0.0574 -0.0236,-0.0195 -0.0447,-0.0359 -0.0611,-0.0502 -0.0173,-0.0145 -0.025,-0.0237 -0.025,-0.0289 0,-0.005 -0.005,-0.0166 -0.0145,-0.0359 -0.01,-0.0188 -0.0194,-0.0403 -0.0289,-0.0641 -0.009,-0.0237 -0.0201,-0.0495 -0.0321,-0.0755 -0.0116,-0.0265 -0.0222,-0.0468 -0.0325,-0.0611 -0.005,-0.0136 -0.0138,-0.0344 -0.0286,-0.0611 -0.0138,-0.026 -0.0289,-0.051 -0.0425,-0.0747 -0.0381,-0.0626 -0.0718,-0.1259 -0.10065,-0.1905 -0.0286,-0.0641 -0.0453,-0.11302 -0.0503,-0.1467 -0.01,-0.0287 -0.0166,-0.0468 -0.0215,-0.0539 -0.004,-0.007 -0.0145,-0.0131 -0.0282,-0.018 -0.0431,0 -0.0876,-0.004 -0.13289,-0.0107 -0.0453,-0.007 -0.0777,-0.0131 -0.0964,-0.018 -0.01,-0.004 -0.0222,-0.0151 -0.0359,-0.0317 -0.0152,-0.0173 -0.0268,-0.0344 -0.0366,-0.0539 -0.0236,-0.0381 -0.0389,-0.0883 -0.046,-0.15093 -0.007,-0.0618 -0.0109,-0.2194 -0.0109,-0.47248 0,-0.17246 0,-0.27737 0.004,-0.31566 0.004,-0.0387 0.0106,-0.0676 0.025,-0.0861 0.0236,-0.0287 0.0475,-0.0519 0.072,-0.0683 0.0236,-0.0166 0.0497,-0.0252 0.0784,-0.0252 0.0194,0 0.0335,-7e-4 0.0431,-0.004 0.0102,-0.002 0.0145,-0.006 0.0145,-0.0107 0.005,-0.0237 0.007,-0.0445 0.007,-0.0641 0,-0.0144 0.008,-0.0431 0.0254,-0.0863 0.0166,-0.0431 0.0346,-0.0861 0.0532,-0.12866 0.0194,-0.0482 0.0367,-0.0891 0.0505,-0.12221 0.0145,-0.0331 0.0215,-0.0525 0.0215,-0.0574 0,-0.004 0.004,-0.0116 0.007,-0.0217 0.005,-0.009 0.01,-0.0164 0.0145,-0.0208 0.0145,-0.0144 0.0381,-0.0554 0.072,-0.12222 0.0335,-0.0668 0.0502,-0.10491 0.0502,-0.11503 0,-0.004 0.005,-0.0151 0.0145,-0.0324 0.01,-0.0158 0.0208,-0.0344 0.0359,-0.0532 0.0138,-0.0144 0.0311,-0.0374 0.0497,-0.0683 0.0194,-0.0309 0.0359,-0.0582 0.0502,-0.0827 0.0713,-0.13804 0.15904,-0.26467 0.26173,-0.37971 0.10291,-0.11504 0.20634,-0.20559 0.31217,-0.27241 0.0328,-0.0195 0.0683,-0.0418 0.10344,-0.0675 0.0359,-0.0267 0.0611,-0.0445 0.0755,-0.0547 0.0145,-0.0136 0.0425,-0.0331 0.0863,-0.0569 0.0423,-0.0238 0.0834,-0.046 0.1215,-0.0646 0.0906,-0.0425 0.15459,-0.0705 0.18976,-0.0821 0.0361,-0.0121 0.09,-0.028 0.16104,-0.0466 0.0289,-0.0101 0.0641,-0.021 0.10435,-0.0324 0.0409,-0.0123 0.0755,-0.023 0.10418,-0.0324 0.10932,-0.0339 0.18203,-0.0532 0.21498,-0.0576 0.0332,-0.005 0.0834,-0.007 0.15039,-0.007 0.12421,0.0101 0.25876,0.023 0.40178,0.0396 0.14319,0.0166 0.2553,0.0346 0.33644,0.0539 0.11945,0.0287 0.27041,0.0791 0.45152,0.15037 0.182,0.0718 0.33514,0.13878 0.45883,0.20118 0.0769,0.0425 0.13289,0.0784 0.16898,0.10712 0.0359,0.0289 0.10121,0.0907 0.19692,0.18626 0.12442,0.12442 0.21646,0.22142 0.27608,0.29045 0.0596,0.069 0.0992,0.12516 0.11853,0.16822 0.0236,0.0433 0.0547,0.11504 0.0928,0.21572 0.0381,0.0999 0.0576,0.15756 0.0576,0.17191 0,0.005 0,0.0114 0.004,0.0208 0.004,0.0101 0.008,0.0195 0.0173,0.0287 0.0152,0.0245 0.0388,0.0791 0.0719,0.16547 0.0335,0.0856 0.0532,0.14301 0.0574,0.17173 0.005,0.0388 0.0145,0.067 0.0286,0.0863 0.0145,0.0188 0.0339,0.0287 0.0576,0.0287 0.0286,0 0.0576,0.0131 0.0856,0.0396 0.0286,0.026 0.0482,0.0532 0.0574,0.0821 0.01,0.0431 0.0201,0.0755 0.0325,0.097 0.0116,0.0215 0.0254,0.0344 0.0396,0.0396 0.0431,0.0186 0.0834,0.0201 0.12149,0.003 0.0381,-0.0158 0.0626,-0.048 0.072,-0.0963 0.01,-0.0339 0.0145,-0.19271 0.0145,-0.47671 0,-0.28474 -0.005,-0.44579 -0.0145,-0.48389 -0.005,-0.0144 -0.0116,-0.0302 -0.0215,-0.0468 -0.01,-0.0166 -0.0219,-0.0302 -0.0361,-0.0396 -0.0145,-0.009 -0.0243,-0.0223 -0.0324,-0.0388 -0.006,-0.0171 -0.0152,-0.0374 -0.0243,-0.0611 -0.0102,-0.0574 -0.0303,-0.1027 -0.0611,-0.13657 -0.031,-0.0329 -0.0777,-0.0618 -0.13949,-0.0856 -0.0576,-0.0193 -0.0992,-0.0409 -0.12591,-0.0646 -0.0258,-0.0237 -0.0559,-0.0648 -0.0891,-0.12222 -0.0388,-0.0618 -0.0641,-0.11798 -0.0755,-0.16822 -0.0123,-0.0504 -0.0187,-0.12093 -0.0187,-0.21149 0,-0.0431 0.004,-0.0834 0.004,-0.12221 0.004,-0.0381 0.006,-0.0618 0.0106,-0.0712 0.01,-0.0287 0.0346,-0.0683 0.0747,-0.11853 0.041,-0.0503 0.0784,-0.0848 0.11151,-0.10363 0.0431,-0.0243 0.0955,-0.0431 0.15738,-0.0574 0.0626,-0.0144 0.13158,-0.0215 0.20778,-0.0215 h 0.1366 l 0.0648,0.0718 c 0.0187,0.0188 0.0418,0.0447 0.0683,0.0784 0.0261,0.0339 0.051,0.0626 0.0747,0.0863 0.0187,0.0287 0.0411,0.0574 0.0648,0.0863 0.0236,0.0287 0.0403,0.0495 0.0502,0.0639 0.0138,0.0195 0.0236,0.0388 0.0289,0.0576 0.004,0.0193 0.009,0.0453 0.0138,0.079 0.005,0.0576 0.004,0.10141 -0.007,0.13233 -0.01,0.0317 -0.0289,0.0611 -0.0569,0.09 -0.0152,0.009 -0.0286,0.0272 -0.0431,0.0537 -0.0145,0.026 -0.0268,0.049 -0.0361,0.0677 -0.009,0.0243 -0.0215,0.0468 -0.0359,0.0683 -0.0145,0.0215 -0.0265,0.0344 -0.0359,0.0396 -0.0194,0.0144 -0.0293,0.0401 -0.0325,0.0782 -0.004,0.0388 -0.006,0.20135 -0.0109,0.4883 0,0.0525 0.004,0.11578 0.008,0.18977 0.005,0.074 0.0116,0.14963 0.0208,0.22583 0.0194,0.13363 0.0303,0.27609 0.0325,0.42628 0.004,0.15093 0,0.25235 -0.0109,0.3048 -0.01,0.0238 -0.018,0.0396 -0.0243,0.0468 -0.008,0.007 -0.0208,0.0101 -0.0396,0.0101 -0.0626,0 -0.11134,0.008 -0.14743,0.0223 -0.0359,0.0144 -0.097,0.0502 -0.1826,0.10712 -0.0335,0.0237 -0.0539,0.0416 -0.0611,0.0539 -0.007,0.0114 -0.0106,0.0344 -0.0106,0.0683 0,0.0618 -0.0109,0.14523 -0.0325,0.25087 -0.0208,0.1051 -0.0418,0.17192 -0.0611,0.20063 -0.0145,0.0237 -0.0381,0.0468 -0.0712,0.0676 -0.0332,0.0217 -0.0668,0.0346 -0.10069,0.0396 -0.0236,0.005 -0.0381,0.0158 -0.0431,0.0324 -0.005,0.0173 -0.0145,0.0898 -0.0286,0.21848 -0.005,0.0433 -0.0201,0.10786 -0.0468,0.19418 -0.0258,0.0863 -0.0532,0.15958 -0.0821,0.22216 -0.0194,0.0381 -0.0293,0.064 -0.0321,0.0784 -0.004,0.0144 0,0.0287 0.004,0.0431 l 0.0145,0.0289 c 0.005,0.009 0.007,0.0164 0.007,0.0215 0,0.0186 -0.0668,0.0928 -0.20045,0.22216 -0.13381,0.12865 -0.23153,0.21277 -0.29411,0.25087 -0.0286,0.0195 -0.0547,0.0366 -0.0792,0.0539 -0.0236,0.0166 -0.0423,0.0294 -0.0567,0.0396 -0.0243,0.0186 -0.0972,0.0596 -0.21868,0.12148 -0.12221,0.0626 -0.23079,0.11209 -0.32632,0.15093 -0.0626,0.0281 -0.13159,0.0512 -0.20779,0.0677 -0.0769,0.0171 -0.15536,0.0302 -0.23654,0.0394 -0.0433,0 -0.1912,0.002 -0.4445,0.007 -0.25361,0.005 -0.38026,0.005 -0.38026,0 -0.005,0 -0.0286,-0.002 -0.072,-0.007"
       style="fill:#21201d;fill-opacity:1;fill-rule:nonzero;stroke:none;stroke-width:0.184057"
       id="path624" />
  </g>
</svg>
