<?xml version="1.0" encoding="UTF-8" standalone="no"?>
<!-- Created with Inkscape (http://www.inkscape.org/) -->

<svg
   width="6.6634998mm"
   height="6.8095345mm"
   viewBox="0 0 6.6634998 6.8095345"
   version="1.1"
   id="svg2335"
   inkscape:version="1.1.2 (0a00cf5339, 2022-02-04)"
   sodipodi:docname="e2.svg"
   xmlns:inkscape="http://www.inkscape.org/namespaces/inkscape"
   xmlns:sodipodi="http://sodipodi.sourceforge.net/DTD/sodipodi-0.dtd"
   xmlns="http://www.w3.org/2000/svg"
   xmlns:svg="http://www.w3.org/2000/svg">
  <sodipodi:namedview
     id="namedview2337"
     pagecolor="#ffffff"
     bordercolor="#666666"
     borderopacity="1.0"
     inkscape:pageshadow="2"
     inkscape:pageopacity="0.0"
     inkscape:pagecheckerboard="0"
     inkscape:document-units="mm"
     showgrid="false"
     inkscape:zoom="0.64052329"
     inkscape:cx="-983.57079"
     inkscape:cy="39.811199"
     inkscape:window-width="2560"
     inkscape:window-height="1376"
     inkscape:window-x="0"
     inkscape:window-y="0"
     inkscape:window-maximized="1"
     inkscape:current-layer="layer1" />
  <defs
     id="defs2332" />
  <g
     inkscape:label="Layer 1"
     inkscape:groupmode="layer"
     id="layer1"
     transform="translate(-365.12958,-137.86622)">
    <path
       d="m 368.3518,142.01494 c -0.0208,-0.0101 -0.033,-0.018 -0.0381,-0.023 -0.0158,-0.0151 -0.023,-0.0252 -0.023,-0.0302 0,-0.005 0.007,-0.013 0.023,-0.023 0.0101,-0.005 0.0237,-0.018 0.0418,-0.0374 0.0173,-0.021 0.0337,-0.044 0.0495,-0.0683 0.0151,-0.021 0.0447,-0.0591 0.0871,-0.11448 0.0431,-0.056 0.0849,-0.10915 0.12516,-0.15958 0.046,-0.0559 0.097,-0.12148 0.1524,-0.19768 0.0554,-0.0755 0.10141,-0.13878 0.13657,-0.18976 0.0351,-0.0561 0.0732,-0.11283 0.1143,-0.17118 0.0403,-0.0582 0.0683,-0.0999 0.0826,-0.12516 0.021,-0.0309 0.0539,-0.0747 0.0992,-0.13289 0.046,-0.0583 0.0942,-0.11577 0.14449,-0.17117 0.046,-0.0554 0.09,-0.11007 0.13307,-0.16326 0.0433,-0.0532 0.072,-0.0876 0.0871,-0.1027 0.0158,-0.0203 0.0295,-0.0374 0.0416,-0.0532 0.0131,-0.0151 0.0223,-0.023 0.0274,-0.023 0.0151,0 0.0396,0.0186 0.0718,0.0574 0.0331,0.0374 0.0526,0.0698 0.0569,0.095 0.005,0.0201 0.005,0.0366 0,0.0488 -0.004,0.0131 -0.0201,0.0296 -0.0453,0.0497 -0.0359,0.0252 -0.0698,0.0648 -0.10215,0.11798 -0.0329,0.0532 -0.0955,0.16308 -0.18681,0.33002 -0.0353,0.0769 -0.0749,0.14872 -0.11725,0.217 -0.0438,0.0683 -0.0747,0.11799 -0.0957,0.14817 -0.0351,0.0503 -0.0718,0.1 -0.10988,0.14817 -0.0374,0.048 -0.0799,0.0999 -0.12516,0.15589 -0.0151,0.0203 -0.0331,0.044 -0.0532,0.072 -0.0201,0.028 -0.0381,0.0495 -0.0532,0.0646 -0.0151,0.0202 -0.0396,0.044 -0.0727,0.072 -0.0322,0.028 -0.0668,0.0547 -0.10271,0.0799 l -0.0906,0.0762 c -0.0302,0.0258 -0.0504,0.0453 -0.0611,0.0611 -0.0151,0.0252 -0.0304,0.0396 -0.0455,0.0416 -0.0151,0.002 -0.046,-0.004 -0.0913,-0.0186 -0.0201,-0.0109 -0.0401,-0.0208 -0.0604,-0.0309 m -0.90445,-0.72905 c -0.0252,-0.026 -0.0453,-0.0589 -0.0611,-0.0992 l -0.0223,-0.0683 0.0834,-0.0762 c 0.0252,-0.0202 0.0517,-0.0418 0.0799,-0.0648 0.028,-0.0223 0.0517,-0.0416 0.0725,-0.0567 0.12093,-0.0863 0.21645,-0.15829 0.28474,-0.21645 0.0683,-0.0583 0.14522,-0.13013 0.23154,-0.21645 0.0863,-0.0913 0.16326,-0.17468 0.23154,-0.25088 0.0683,-0.0762 0.12571,-0.14448 0.17099,-0.20503 0.0101,-0.0151 0.0331,-0.0381 0.0685,-0.0683 0.0359,-0.0309 0.071,-0.0611 0.10639,-0.0913 0.0401,-0.0258 0.0777,-0.051 0.10988,-0.0762 0.0331,-0.0252 0.0519,-0.0431 0.0576,-0.0532 0.0151,-0.0201 0.0302,-0.0302 0.0453,-0.0302 0.0151,0 0.0302,0.007 0.046,0.0223 0.0101,0.0158 0.0121,0.028 0.007,0.0381 -0.005,0.0101 -0.0151,0.0309 -0.0302,0.0611 -0.0158,0.0151 -0.0272,0.0331 -0.0346,0.0525 -0.007,0.021 -0.0114,0.0331 -0.0114,0.0388 0,0.0203 -0.0812,0.12736 -0.24296,0.3221 -0.16178,0.19565 -0.31933,0.37676 -0.47099,0.54426 -0.0351,0.0353 -0.0712,0.0727 -0.10639,0.11356 -0.0352,0.0411 -0.0604,0.0712 -0.0762,0.0915 -0.0554,0.071 -0.12369,0.15093 -0.20485,0.23927 -0.0814,0.0885 -0.12664,0.13308 -0.13676,0.13308 -0.005,0 -0.0164,-0.002 -0.0344,-0.004 -0.0173,-0.002 -0.0366,-0.009 -0.0569,-0.0188 -0.0453,-0.0151 -0.0812,-0.0351 -0.10638,-0.0604 m -0.6234,-0.55512 c -0.0351,-0.0201 -0.0683,-0.0416 -0.0985,-0.0646 -0.0302,-0.023 -0.048,-0.0396 -0.0532,-0.0497 -0.01,-0.01 -0.0144,-0.0173 -0.0114,-0.0223 0.002,-0.006 0.0136,-0.0101 0.0344,-0.0151 0.0302,-0.005 0.0618,-0.0245 0.0942,-0.0574 0.0339,-0.0331 0.0574,-0.0641 0.0725,-0.095 0.0109,-0.0252 0.0497,-0.0683 0.11798,-0.12866 0.0683,-0.0611 0.20413,-0.17541 0.40622,-0.34234 0.0512,-0.0409 0.1143,-0.0948 0.1905,-0.16308 0.0755,-0.0683 0.14172,-0.13307 0.19712,-0.19418 0.10638,-0.10639 0.17025,-0.16676 0.18976,-0.18185 0.0208,-0.0158 0.046,-0.018 0.0762,-0.008 0.0101,0.005 0.0265,0.0166 0.0495,0.0344 0.023,0.0173 0.0418,0.0339 0.0569,0.049 0.0309,0.0309 0.0468,0.0495 0.0497,0.0574 0.002,0.007 -0.004,0.021 -0.0188,0.0418 -0.0208,0.0193 -0.0648,0.0532 -0.13381,0.0985 -0.0683,0.0453 -0.14006,0.0913 -0.21552,0.13657 -0.0561,0.0302 -0.15259,0.11283 -0.28916,0.24738 -0.13657,0.13381 -0.2459,0.24885 -0.32633,0.34585 -0.0359,0.0403 -0.0712,0.0883 -0.10712,0.14375 -0.0353,0.0561 -0.0633,0.10215 -0.0826,0.1373 l -0.0618,0.12148 z m 3.09306,2.33238 c 0.0806,-0.0755 0.12148,-0.12074 0.12148,-0.13657 0,-0.005 0.0203,-0.0302 0.0604,-0.0755 0.041,-0.046 0.0915,-0.0992 0.15258,-0.15958 0.0552,-0.0611 0.10988,-0.12093 0.16308,-0.17909 0.0532,-0.0582 0.0878,-0.0977 0.10288,-0.11798 0.0201,-0.025 0.041,-0.0517 0.064,-0.079 0.023,-0.0281 0.0423,-0.0497 0.0567,-0.0648 0.0158,-0.0208 0.0396,-0.0503 0.0727,-0.0913 0.0329,-0.041 0.0618,-0.0812 0.0876,-0.12148 0.0913,-0.14173 0.14964,-0.22786 0.17411,-0.25879 0.0258,-0.0302 0.0718,-0.0606 0.13731,-0.0907 0.0913,-0.051 0.15019,-0.0992 0.17817,-0.14522 0.0281,-0.0453 0.0467,-0.12369 0.0569,-0.23504 0.0109,-0.12663 0.003,-0.21793 -0.0223,-0.27314 -0.0252,-0.0561 -0.0813,-0.10933 -0.16749,-0.15977 -0.0302,-0.0151 -0.0618,-0.0359 -0.095,-0.0611 -0.0324,-0.025 -0.0596,-0.048 -0.0797,-0.0683 -0.0203,-0.0151 -0.0497,-0.0366 -0.0871,-0.0646 -0.0381,-0.0274 -0.0727,-0.0519 -0.10289,-0.072 -0.0302,-0.0252 -0.0683,-0.0561 -0.11429,-0.0913 -0.0453,-0.0351 -0.0834,-0.0683 -0.11357,-0.0985 -0.10141,-0.0913 -0.18258,-0.16105 -0.24295,-0.20928 -0.0611,-0.0482 -0.13952,-0.10215 -0.23596,-0.16381 -0.0503,-0.0296 -0.10491,-0.0685 -0.16308,-0.11375 -0.0583,-0.046 -0.10509,-0.0834 -0.14098,-0.11356 -0.0351,-0.0309 -0.0799,-0.0633 -0.13234,-0.0992 -0.0532,-0.0351 -0.10491,-0.0653 -0.1559,-0.0906 -0.10141,-0.051 -0.17835,-0.0928 -0.23154,-0.1259 -0.0539,-0.0329 -0.12865,-0.0869 -0.22436,-0.16308 -0.0403,-0.0309 -0.0826,-0.0598 -0.12571,-0.0878 -0.0433,-0.028 -0.0749,-0.0468 -0.095,-0.0569 -0.0403,-0.0201 -0.0784,-0.0416 -0.1143,-0.0646 -0.0353,-0.023 -0.11871,-0.0769 -0.25031,-0.16326 -0.0352,-0.0252 -0.0747,-0.0503 -0.1178,-0.0762 -0.0433,-0.0252 -0.0747,-0.0453 -0.095,-0.0604 -0.0252,-0.0101 -0.0547,-0.028 -0.0871,-0.0532 -0.0329,-0.0252 -0.0624,-0.051 -0.0876,-0.0762 -0.0453,-0.0453 -0.0898,-0.0769 -0.13307,-0.095 -0.0431,-0.0179 -0.0848,-0.0215 -0.12498,-0.0114 -0.046,0.01 -0.10785,0.0431 -0.18626,0.0985 -0.0784,0.0561 -0.12792,0.10142 -0.1489,0.13731 -0.009,0.0201 -0.0237,0.0418 -0.0416,0.0648 -0.0173,0.0223 -0.0339,0.0387 -0.049,0.0495 -0.13657,0.0957 -0.25307,0.187 -0.34934,0.27314 -0.0964,0.0856 -0.20577,0.19271 -0.32725,0.31934 -0.19767,0.20707 -0.36296,0.37603 -0.4975,0.50543 -0.13436,0.12865 -0.22142,0.20338 -0.26247,0.22436 -0.0401,0.0193 -0.0755,0.0525 -0.10638,0.0985 -0.0302,0.0453 -0.0453,0.0884 -0.0453,0.12866 0,0.046 0.0166,0.0928 0.0497,0.14099 0.0329,0.048 0.0769,0.0928 0.13288,0.13289 0.0302,0.0203 0.0712,0.049 0.12093,0.0871 0.051,0.0381 0.097,0.0747 0.1373,0.1108 0.0351,0.0302 0.0913,0.0733 0.16676,0.12865 0.0762,0.056 0.14945,0.10639 0.22068,0.15167 0.0663,0.046 0.13455,0.0942 0.20486,0.14448 0.0712,0.051 0.12442,0.0885 0.15976,0.1143 0.0302,0.0202 0.0812,0.0604 0.1524,0.12148 0.0705,0.0611 0.14154,0.12166 0.21203,0.18277 0.16749,0.15167 0.35523,0.30756 0.56303,0.46659 0.20706,0.16031 0.32633,0.24001 0.35652,0.24001 0.005,0 0.023,0.007 0.0532,0.023 0.0309,0.0145 0.0633,0.0353 0.0992,0.0605 0.0403,0.0251 0.09,0.0532 0.14817,0.0834 0.0582,0.0302 0.10712,0.0552 0.14816,0.0762 0.0453,0.0201 0.0948,0.0453 0.14799,0.0755 0.0532,0.0302 0.0979,0.0582 0.13307,0.0841 0.11651,0.0755 0.19694,0.12516 0.24295,0.14743 0.0453,0.023 0.0806,0.0374 0.10639,0.0423 0.0101,0 0.0245,0.002 0.0418,0.007 0.018,0.005 0.0346,0.0158 0.0497,0.0302 0.0503,0.0411 0.0999,0.0663 0.14798,0.0762 0.0482,0.0101 0.10215,0.003 0.16326,-0.0223 0.0302,-0.0151 0.0863,-0.0611 0.16749,-0.1373 m -0.40253,1.55013 c -0.0361,-0.0201 -0.0742,-0.0403 -0.1143,-0.0604 -0.21295,-0.11154 -0.40768,-0.22069 -0.5853,-0.32707 -0.17761,-0.10657 -0.3797,-0.23523 -0.60756,-0.38763 -0.13657,-0.0906 -0.26891,-0.17835 -0.39536,-0.26173 -0.12663,-0.0841 -0.21001,-0.13804 -0.25105,-0.16381 -0.0653,-0.0403 -0.15314,-0.10215 -0.26155,-0.18553 -0.10932,-0.0834 -0.17117,-0.13584 -0.18626,-0.15608 -0.005,-0.005 -0.0195,-0.0166 -0.0418,-0.0344 -0.023,-0.0173 -0.0488,-0.0388 -0.0797,-0.0641 -0.0361,-0.026 -0.0777,-0.0582 -0.12589,-0.0992 -0.0482,-0.0403 -0.092,-0.0784 -0.13307,-0.11356 -0.0906,-0.0863 -0.17541,-0.164 -0.25437,-0.23155 -0.0784,-0.069 -0.15037,-0.12865 -0.21645,-0.17909 -0.0302,-0.025 -0.0583,-0.048 -0.0834,-0.0683 -0.0252,-0.0201 -0.0403,-0.0331 -0.0453,-0.0381 0,-0.005 -0.0131,-0.018 -0.0388,-0.0381 -0.0252,-0.0201 -0.0526,-0.0403 -0.0834,-0.0604 -0.0655,-0.0561 -0.15185,-0.12589 -0.25823,-0.20927 -0.10638,-0.0834 -0.21774,-0.17393 -0.33425,-0.26964 -0.0504,-0.046 -0.0985,-0.0876 -0.14374,-0.12498 -0.046,-0.0388 -0.0764,-0.0648 -0.0915,-0.0799 l -0.0532,-0.046 0.0604,-1.04821 0.0915,-0.1143 c 0.0302,-0.0353 0.12644,-0.13455 0.28896,-0.29634 0.15663,-0.16234 0.33149,-0.33719 0.52346,-0.52401 0.19271,-0.18774 0.37308,-0.36241 0.53984,-0.52493 0.16675,-0.15663 0.27111,-0.25308 0.31142,-0.28824 0.0309,-0.0203 0.0661,-0.0468 0.10638,-0.0799 0.0409,-0.0331 0.074,-0.0626 0.0992,-0.0876 0.0302,-0.0203 0.0611,-0.0455 0.0913,-0.0756 0.0302,-0.0309 0.0532,-0.0559 0.0683,-0.0762 0.009,-0.0201 0.0374,-0.0552 0.0834,-0.10638 0.0453,-0.0503 0.0942,-0.10142 0.14448,-0.1524 l 0.18203,-0.17394 0.12939,0.0453 c 0.0762,0.0252 0.14669,0.0596 0.21277,0.1027 0.0661,0.0425 0.15737,0.11725 0.27314,0.22437 0.0512,0.0453 0.10289,0.0906 0.15608,0.13657 0.0532,0.0453 0.0928,0.0784 0.11798,0.0987 0.0251,0.0201 0.0539,0.0416 0.0876,0.0646 0.0331,0.023 0.0569,0.0418 0.072,0.0569 0.0201,0.0151 0.0488,0.0366 0.0876,0.0646 0.0374,0.0282 0.0749,0.0547 0.11006,0.0799 0.0351,0.0252 0.0841,0.0596 0.14743,0.1027 0.0633,0.0425 0.12074,0.0849 0.17099,0.12516 0.0561,0.0353 0.12093,0.0799 0.19418,0.13308 0.0734,0.0532 0.13528,0.0977 0.18626,0.13289 0.0503,0.0353 0.11504,0.0821 0.19345,0.14025 0.079,0.0583 0.14595,0.11283 0.20117,0.164 0.0611,0.0453 0.13951,0.1027 0.23596,0.17043 0.0963,0.0683 0.17964,0.12572 0.25087,0.17099 0.0762,0.0512 0.14816,0.1 0.21645,0.14817 0.0683,0.0482 0.11283,0.0826 0.13289,0.10289 0.0203,0.0201 0.0519,0.048 0.095,0.0834 0.0431,0.0351 0.0849,0.0661 0.1259,0.0913 0.0351,0.0257 0.0755,0.0547 0.12147,0.0876 0.0453,0.0324 0.0812,0.0569 0.10565,0.072 0.0309,0.0201 0.0712,0.0547 0.12221,0.10289 0.0503,0.048 0.10142,0.0948 0.15167,0.14006 l 0.17466,0.17541 -0.0374,1.50412 -0.22068,0.25106 c -0.0963,0.11632 -0.20486,0.24516 -0.32707,0.38744 -0.12148,0.14172 -0.25823,0.30627 -0.40989,0.49401 -0.0963,0.11577 -0.17891,0.21995 -0.24737,0.31124 -0.0683,0.0913 -0.12277,0.16474 -0.16308,0.21995 -0.0403,0.0663 -0.0826,0.11798 -0.12516,0.15608 -0.0438,0.0381 -0.16822,0.13584 -0.37602,0.29192 -0.0208,0.0158 -0.046,0.0359 -0.0762,0.0618 -0.0309,0.0245 -0.0554,0.0453 -0.0762,0.0604 -0.0403,0.0309 -0.0698,0.0482 -0.0871,0.0532 -0.0179,0.005 -0.0396,-0.003 -0.0646,-0.0223 -0.0101,-0.006 -0.0331,-0.018 -0.0683,-0.0388"
       style="fill:#21201d;fill-opacity:1;fill-rule:nonzero;stroke:none;stroke-width:0.184057"
       id="path620" />
  </g>
</svg>
