<?xml version="1.0" encoding="UTF-8" standalone="no"?>
<!-- Created with Inkscape (http://www.inkscape.org/) -->

<svg
   width="5.29951mm"
   height="5.3011246mm"
   viewBox="0 0 5.29951 5.3011246"
   version="1.1"
   id="svg2470"
   inkscape:version="1.1.2 (0a00cf5339, 2022-02-04)"
   sodipodi:docname="e3.svg"
   xmlns:inkscape="http://www.inkscape.org/namespaces/inkscape"
   xmlns:sodipodi="http://sodipodi.sourceforge.net/DTD/sodipodi-0.dtd"
   xmlns="http://www.w3.org/2000/svg"
   xmlns:svg="http://www.w3.org/2000/svg">
  <sodipodi:namedview
     id="namedview2472"
     pagecolor="#ffffff"
     bordercolor="#666666"
     borderopacity="1.0"
     inkscape:pageshadow="2"
     inkscape:pageopacity="0.0"
     inkscape:pagecheckerboard="0"
     inkscape:document-units="mm"
     showgrid="false"
     inkscape:zoom="0.64052329"
     inkscape:cx="9.3673409"
     inkscape:cy="10.147953"
     inkscape:window-width="2560"
     inkscape:window-height="1376"
     inkscape:window-x="0"
     inkscape:window-y="0"
     inkscape:window-maximized="1"
     inkscape:current-layer="layer1" />
  <defs
     id="defs2467" />
  <g
     inkscape:label="Layer 1"
     inkscape:groupmode="layer"
     id="layer1"
     transform="translate(-102.271,-145.84964)">
    <path
       d="m 107.07507,150.55509 c -0.0169,-0.18461 -0.0236,-0.62967 -0.0194,-1.33497 0,-0.42002 0.004,-0.8025 0.006,-1.14613 0.005,-0.34806 0.0116,-0.65433 0.0194,-0.91735 0.008,-0.2632 0.0173,-0.48462 0.0258,-0.66297 0.0123,-0.17836 0.0275,-0.30554 0.0446,-0.38174 0.005,-0.0346 0.008,-0.0663 0.0123,-0.0957 0.004,-0.0295 0.006,-0.051 0.006,-0.0639 0,-0.0123 0.004,-0.0252 0.0102,-0.0381 0.006,-0.0131 0.0159,-0.023 0.0286,-0.0316 0.0208,-0.0131 0.0633,-0.023 0.12718,-0.0289 0.0633,-0.006 0.11006,-0.006 0.14026,0.004 l 0.0445,0.0121 0.0123,0.42076 c 0,0.0589 0.004,0.15515 0.007,0.28676 0,0.1316 0,0.28621 0.006,0.46456 0.004,0.1789 0.006,0.37456 0.006,0.58659 0.004,0.21204 0.006,0.42426 0.006,0.63703 0.008,0.71745 0.0127,1.1741 0.0127,1.36902 0,0.19547 -0.006,0.36591 -0.0194,0.50966 -0.004,0.0898 -0.01,0.17761 -0.0159,0.26467 -0.006,0.0869 -0.01,0.14725 -0.01,0.18185 0.004,0.0762 0,0.15461 -0.0131,0.23578 -0.013,0.0806 -0.0254,0.14025 -0.0381,0.17835 -0.013,0.0295 -0.0381,0.0611 -0.0769,0.0955 -0.0374,0.0339 -0.0676,0.0504 -0.0885,0.0504 -0.004,0 -0.0152,-0.0116 -0.0321,-0.0346 -0.0173,-0.0237 -0.036,-0.0525 -0.0576,-0.0861 -0.0804,-0.1316 -0.12866,-0.28989 -0.14595,-0.47468 m -2.99738,-1.06331 c -0.007,-0.003 -0.0145,-0.004 -0.0222,-0.004 -0.008,0 -0.0166,-0.004 -0.0222,-0.013 -0.006,-0.009 -0.0102,-0.0258 -0.0102,-0.051 -0.004,-0.0208 -0.0106,-0.0425 -0.0187,-0.0633 -0.008,-0.0215 -0.0173,-0.0388 -0.0261,-0.051 -0.0166,-0.026 -0.0272,-0.0554 -0.0317,-0.0898 -0.004,-0.0331 -0.006,-0.12093 -0.006,-0.26044 -0.004,-0.12792 -0.004,-0.23431 0,-0.31842 0.004,-0.0856 0.0152,-0.20854 0.0318,-0.37033 0.0138,-0.10142 0.0236,-0.19197 0.0325,-0.27038 0.008,-0.0782 0.0145,-0.1178 0.0187,-0.1178 0.005,-0.004 0.0159,-0.009 0.0353,-0.0129 0.0194,-0.004 0.0409,-0.009 0.0668,-0.0131 l 0.0891,-0.006 0.0131,0.0453 c 0.004,0.0123 0.0113,0.0316 0.0222,0.0576 0.01,0.025 0.0222,0.046 0.0353,0.0631 l 0.0504,0.0762 0.007,0.24885 c 0.004,0.072 0.008,0.13878 0.012,0.20062 0.004,0.0618 0.008,0.10271 0.0127,0.12443 0.0173,0.051 0.018,0.16675 0.004,0.34639 -0.0145,0.1813 -0.0325,0.29266 -0.0539,0.33518 -0.004,0.0129 -0.008,0.0272 -0.0127,0.0445 -0.005,0.0166 -0.006,0.0316 -0.006,0.0445 0,0.0215 -0.004,0.0353 -0.006,0.041 -0.004,0.006 -0.0138,0.0101 -0.0258,0.0101 -0.008,0 -0.0159,0 -0.0222,0.004 -0.007,0.002 -0.0117,0.005 -0.0159,0.009 -0.005,0.004 -0.0138,0.009 -0.0289,0.0121 -0.0152,0.004 -0.031,0.006 -0.0481,0.006 -0.0166,0 -0.0318,-0.002 -0.044,-0.006 -0.0127,-0.004 -0.0194,-0.008 -0.0194,-0.0121 0,-0.004 -0.004,-0.008 -0.01,-0.009 m 0.42351,0.77359 c 0.012,-0.009 0.0261,-0.0151 0.0381,-0.0193 0.0131,-0.004 0.0332,-0.018 0.0604,-0.041 0.0279,-0.0237 0.0569,-0.0482 0.0863,-0.0733 0.0258,-0.0217 0.0532,-0.044 0.0826,-0.067 0.0293,-0.0237 0.051,-0.0374 0.0641,-0.0416 0.0166,-0.004 0.0359,-0.0136 0.0567,-0.0287 0.0215,-0.0153 0.0381,-0.0304 0.0512,-0.0475 0.0169,-0.0173 0.0381,-0.0361 0.0639,-0.0576 0.0131,0 0.064,-0.0445 0.1524,-0.13362 0.09,-0.0893 0.14464,-0.15111 0.1662,-0.1848 0.0258,-0.0381 0.0423,-0.0648 0.051,-0.0791 0.008,-0.0151 0.0229,-0.0482 0.0446,-0.0992 0.0166,-0.0344 0.0289,-0.0863 0.0346,-0.15608 0.007,-0.0703 0.01,-0.16455 0.01,-0.28326 0,-0.14007 -0.005,-0.24149 -0.0152,-0.30333 -0.0109,-0.0611 -0.0354,-0.13013 -0.0735,-0.20707 -0.0173,-0.0295 -0.0339,-0.0675 -0.051,-0.1143 0.004,-0.004 0.005,-0.0101 0.004,-0.0195 -0.004,-0.008 -0.006,-0.0166 -0.01,-0.0245 -0.004,-0.009 -0.0109,-0.023 -0.0187,-0.0423 -0.008,-0.0188 -0.0173,-0.0388 -0.0261,-0.0596 -0.008,-0.0173 -0.0159,-0.0353 -0.0222,-0.0547 -0.006,-0.0188 -0.01,-0.0331 -0.01,-0.0418 0,-0.008 -0.0106,-0.0366 -0.0321,-0.0856 -0.0212,-0.0488 -0.0361,-0.0775 -0.0446,-0.0861 -0.008,-0.004 -0.0201,-0.0252 -0.0346,-0.0641 -0.0152,-0.0374 -0.0268,-0.0653 -0.0353,-0.0826 0,-0.0123 -0.004,-0.0238 -0.01,-0.0346 -0.007,-0.0107 -0.0145,-0.0179 -0.0222,-0.0223 -0.005,-0.009 -0.008,-0.0171 -0.013,-0.0257 -0.004,-0.009 -0.006,-0.0144 -0.006,-0.0188 0,-0.005 -0.007,-0.0186 -0.0222,-0.0416 -0.0152,-0.023 -0.031,-0.0475 -0.0482,-0.0734 -0.0208,-0.0252 -0.0416,-0.0539 -0.0631,-0.0856 -0.0215,-0.0316 -0.0361,-0.0559 -0.0446,-0.0733 -0.008,-0.0215 -0.0219,-0.0425 -0.0383,-0.0641 -0.0169,-0.0208 -0.0335,-0.0403 -0.051,-0.0567 -0.0683,-0.0598 -0.11854,-0.10216 -0.15314,-0.12811 -0.0339,-0.025 -0.0546,-0.0381 -0.0633,-0.0381 -0.004,0 -0.0138,-0.005 -0.0286,-0.0158 -0.0152,-0.0107 -0.0311,-0.0245 -0.0482,-0.0416 -0.0293,-0.0381 -0.0524,-0.0598 -0.0697,-0.0633 -0.0169,-0.004 -0.0423,0.002 -0.0768,0.0188 -0.0166,0.008 -0.0325,0.0151 -0.0475,0.0193 -0.0145,0.004 -0.0243,0.006 -0.0289,0.006 -0.004,0 -0.009,0.002 -0.0155,0.004 -0.007,0.002 -0.01,0.005 -0.01,0.009 -0.005,0.008 -0.0236,0.0216 -0.0576,0.0381 -0.0339,0.0171 -0.0554,0.0257 -0.0639,0.0257 -0.008,0 -0.0381,0.0116 -0.0892,0.0353 -0.051,0.023 -0.14598,0.069 -0.28604,0.13657 -0.0261,0.0129 -0.0512,0.0265 -0.0769,0.0416 -0.0254,0.0145 -0.0447,0.0267 -0.0569,0.0353 -0.008,0.008 -0.0261,0.0208 -0.0517,0.0381 -0.0254,0.0173 -0.0505,0.0316 -0.0762,0.0445 -0.0591,0.0295 -0.12168,0.074 -0.18775,0.13381 -0.0661,0.0589 -0.10933,0.10988 -0.1301,0.1524 -0.009,0.0171 -0.0173,0.0344 -0.0261,0.051 -0.008,0.0173 -0.0145,0.0302 -0.0187,0.0388 -0.005,0.004 -0.0127,0.0166 -0.0261,0.0374 -0.0131,0.0215 -0.0272,0.0453 -0.0445,0.0705 -0.0173,0.0337 -0.0303,0.0626 -0.0381,0.0863 -0.008,0.0237 -0.0127,0.0453 -0.0127,0.0668 0,0.0166 -0.004,0.0331 -0.006,0.0475 -0.005,0.0151 -0.008,0.0251 -0.0131,0.0287 -0.004,0.004 -0.008,0.0324 -0.012,0.0834 -0.005,0.051 -0.008,0.11006 -0.013,0.17761 -0.004,0.0683 -0.01,0.12645 -0.0159,0.17541 -0.007,0.049 -0.0124,0.0734 -0.0166,0.0734 -0.008,0.004 -0.0123,0.025 -0.0123,0.0639 0,0.0381 0.005,0.0589 0.0123,0.0633 0.004,0.004 0.008,0.0287 0.01,0.0733 0.004,0.0447 0.005,0.0992 0.01,0.16252 0.004,0.0762 0.008,0.13583 0.0131,0.17835 0.004,0.0423 0.0106,0.0698 0.0187,0.0826 0.0215,0.0467 0.0418,0.0913 0.0611,0.13455 0.0187,0.0416 0.0332,0.0804 0.0411,0.1143 0.004,0.0171 0.012,0.0396 0.0222,0.0668 0.0109,0.0272 0.0201,0.0497 0.0286,0.0668 0.0127,0.0173 0.0222,0.0353 0.0286,0.0539 0.007,0.0195 0.0102,0.0309 0.0102,0.0353 0,0.009 0.004,0.0179 0.008,0.0287 0.006,0.0107 0.0145,0.0201 0.0222,0.028 0.008,0.009 0.0194,0.0215 0.0324,0.0388 0.0131,0.0166 0.0236,0.0359 0.0318,0.0576 0.008,0.0166 0.0187,0.0344 0.0325,0.0539 0.012,0.0193 0.0229,0.0329 0.0314,0.0416 0.008,0.008 0.0159,0.0165 0.0222,0.0252 0.007,0.009 0.01,0.0151 0.01,0.0188 0,0.008 0.004,0.0151 0.006,0.0193 0.004,0.004 0.008,0.006 0.0131,0.006 0.004,0 0.0145,0.006 0.0318,0.0188 0.0169,0.0129 0.0359,0.028 0.0574,0.0453 0.0208,0.0208 0.0431,0.0403 0.0668,0.0567 0.0229,0.0173 0.0389,0.0282 0.0482,0.0316 0.072,0.0388 0.12294,0.0618 0.1524,0.0705 0.0293,0.009 0.0848,0.0151 0.16545,0.0195 0.14873,0.004 0.28032,0.003 0.39536,-0.004 0.1143,-0.006 0.17836,-0.0136 0.19124,-0.0215 0.005,-0.009 0.0123,-0.0173 0.0251,-0.026 m -1.11795,0.67513 c -0.12588,-0.0295 -0.22215,-0.0639 -0.28988,-0.10216 -0.0258,-0.0121 -0.0453,-0.0287 -0.0604,-0.0473 -0.0152,-0.0195 -0.0328,-0.0504 -0.0547,-0.0928 -0.0162,-0.0294 -0.0381,-0.069 -0.0639,-0.11798 -0.0254,-0.0489 -0.0482,-0.0942 -0.0698,-0.13657 -0.0208,-0.0381 -0.0467,-0.0913 -0.0762,-0.15958 -0.03,-0.0675 -0.0554,-0.13086 -0.0762,-0.19123 -0.0215,-0.0547 -0.046,-0.11872 -0.0734,-0.1905 -0.0279,-0.0727 -0.0525,-0.12958 -0.074,-0.17191 -0.0418,-0.0891 -0.0848,-0.19271 -0.12718,-0.30922 -0.0425,-0.11706 -0.0742,-0.21774 -0.0957,-0.30259 -0.0173,-0.0806 -0.0293,-0.16252 -0.0374,-0.24517 -0.01,-0.0828 -0.0127,-0.20062 -0.0127,-0.35375 v -0.28621 l 0.0502,-0.0963 c 0.0261,-0.0467 0.0547,-0.0985 0.0863,-0.15608 0.0318,-0.0569 0.071,-0.12442 0.11779,-0.20062 0.0296,-0.0468 0.0871,-0.12497 0.17191,-0.23578 0.0856,-0.11007 0.15536,-0.19694 0.21075,-0.26099 0.0208,-0.0252 0.0552,-0.0582 0.10195,-0.0985 0.046,-0.0403 0.0928,-0.0777 0.13952,-0.11153 0.0425,-0.0344 0.0878,-0.069 0.13455,-0.10492 0.0466,-0.0366 0.0782,-0.0611 0.0948,-0.074 0.0215,-0.0166 0.0396,-0.0302 0.0547,-0.041 0.0145,-0.0109 0.0243,-0.0158 0.0286,-0.0158 0.004,0 0.0187,-0.008 0.044,-0.0223 0.0258,-0.0151 0.0539,-0.0331 0.0834,-0.0547 0.0339,-0.0208 0.0762,-0.0453 0.12717,-0.0733 0.051,-0.0274 0.0977,-0.049 0.14027,-0.0663 0.0381,-0.0171 0.0747,-0.0337 0.11133,-0.051 0.0361,-0.0173 0.0584,-0.028 0.067,-0.0324 0.0339,-0.0252 0.0762,-0.0423 0.12717,-0.051 0.051,-0.008 0.1294,-0.0123 0.2358,-0.0123 0.14023,0 0.27333,-0.006 0.39829,-0.0157 0.12516,-0.0109 0.22013,-0.0245 0.28328,-0.0418 l 0.10858,-0.0316 0.11504,0.11504 c 0.0293,0.0294 0.0569,0.0589 0.0826,0.0885 0.0254,0.0302 0.0381,0.051 0.0381,0.0639 0.005,0.009 0.0102,0.0215 0.0187,0.0381 0.009,0.0173 0.0173,0.0316 0.0261,0.0445 0.004,0.009 0.012,0.0296 0.025,0.0641 0.0131,0.0339 0.0215,0.0698 0.0251,0.10786 0.0388,0.17043 0.0656,0.28768 0.0799,0.35375 0.0152,0.0661 0.0311,0.12793 0.0481,0.1883 0.0504,0.15681 0.0893,0.28547 0.11501,0.38541 0.0254,0.0992 0.044,0.18774 0.0569,0.26394 0.008,0.0473 0.0194,0.10565 0.0318,0.17541 0.0131,0.0698 0.0236,0.13087 0.0325,0.18185 0.008,0.0589 0.0162,0.15884 0.025,0.29909 0.008,0.14449 0.0138,0.29118 0.0159,0.43935 0.004,0.14872 0.004,0.28253 0.004,0.4018 -0.005,0.12295 -0.0109,0.19712 -0.0194,0.22289 -0.004,0.0166 -0.0187,0.0468 -0.0446,0.0893 -0.0254,0.0416 -0.0554,0.0848 -0.0891,0.12719 -0.0596,0.0806 -0.11726,0.16252 -0.1719,0.24516 -0.0554,0.0826 -0.0834,0.12866 -0.0834,0.13731 0,0.0166 -0.0325,0.0755 -0.0985,0.17467 -0.0655,0.0999 -0.1071,0.15387 -0.12369,0.16252 -0.008,0.009 -0.0208,0.0173 -0.0353,0.026 -0.0152,0.008 -0.0268,0.0166 -0.0354,0.0252 -0.0208,0.0215 -0.074,0.0495 -0.15886,0.0854 -0.0856,0.0368 -0.16178,0.0633 -0.23004,0.0799 -0.051,0.0173 -0.10439,0.0267 -0.16179,0.0287 -0.0574,0.002 -0.17762,0.006 -0.36022,0.0101 -0.11081,0 -0.22066,-0.002 -0.33073,-0.004 -0.11063,-0.002 -0.18757,-0.005 -0.23008,-0.009 -0.12294,-0.009 -0.24737,-0.0274 -0.37236,-0.0576"
       style="fill:#21201d;fill-opacity:1;fill-rule:nonzero;stroke:none;stroke-width:0.184057"
       id="path626" />
  </g>
</svg>
