<?xml version="1.0" encoding="UTF-8" standalone="no"?>
<!-- Created with Inkscape (http://www.inkscape.org/) -->

<svg
   width="4.9207654mm"
   height="7.6533942mm"
   viewBox="0 0 4.9207654 7.6533942"
   version="1.1"
   id="svg1778"
   inkscape:version="1.1.2 (0a00cf5339, 2022-02-04)"
   sodipodi:docname="e4.svg"
   xmlns:inkscape="http://www.inkscape.org/namespaces/inkscape"
   xmlns:sodipodi="http://sodipodi.sourceforge.net/DTD/sodipodi-0.dtd"
   xmlns="http://www.w3.org/2000/svg"
   xmlns:svg="http://www.w3.org/2000/svg">
  <sodipodi:namedview
     id="namedview1780"
     pagecolor="#ffffff"
     bordercolor="#666666"
     borderopacity="1.0"
     inkscape:pageshadow="2"
     inkscape:pageopacity="0.0"
     inkscape:pagecheckerboard="0"
     inkscape:document-units="mm"
     showgrid="false"
     inkscape:zoom="0.64052329"
     inkscape:cx="-871.1627"
     inkscape:cy="711.1373"
     inkscape:window-width="2560"
     inkscape:window-height="1376"
     inkscape:window-x="0"
     inkscape:window-y="0"
     inkscape:window-maximized="1"
     inkscape:current-layer="layer1" />
  <defs
     id="defs1775" />
  <g
     inkscape:label="Layer 1"
     inkscape:groupmode="layer"
     id="layer1"
     transform="translate(-335.43323,39.764096)">
    <path
       d="m 339.79178,-38.473226 c 0.0109,-0.06387 -0.005,-0.143013 -0.048,-0.239275 -0.0151,-0.03166 -0.0324,-0.06332 -0.0519,-0.09571 -0.0186,-0.03166 -0.0359,-0.05319 -0.0517,-0.06332 -0.0101,-0.01067 -0.0193,-0.02301 -0.0272,-0.03589 -0.009,-0.01362 -0.0123,-0.02522 -0.0123,-0.03589 0,-0.04325 -0.0201,-0.08283 -0.0596,-0.12019 -0.0403,-0.03736 -0.0863,-0.0554 -0.13952,-0.0554 -0.0215,0 -0.0331,0.0022 -0.0359,0.0079 -0.003,0.0052 0.001,0.01877 0.0114,0.03957 0.0158,0.05319 0.004,0.101416 -0.0359,0.143934 -0.0396,0.04233 -0.0884,0.0589 -0.14743,0.04804 -0.0423,-0.0057 -0.0755,-0.0015 -0.0999,0.0116 -0.0237,0.01288 -0.0351,0.03295 -0.0351,0.05963 0,0.02669 0.003,0.04105 0.008,0.04381 0.006,0.0029 0.0186,0.0015 0.0396,-0.0042 0.0374,-0.005 0.0718,0.0042 0.10417,0.02871 0.0316,0.02374 0.0584,0.06479 0.0792,0.123687 0.0215,0.04233 0.0416,0.07399 0.0604,0.09497 0.0186,0.02153 0.049,0.04804 0.0913,0.0797 0.0316,0.01657 0.0596,0.03534 0.0834,0.05614 0.0245,0.0208 0.0388,0.03736 0.0446,0.04822 0.0109,0.01583 0.021,0.02374 0.0316,0.02374 0.0109,0 0.0346,-0.0059 0.072,-0.01657 0.069,-0.03166 0.10859,-0.07914 0.11926,-0.143198 m -0.6937,2.073597 c 0.0265,-0.01657 0.0532,-0.02945 0.0797,-0.04031 0.0584,-0.0265 0.13013,-0.0819 0.21498,-0.167492 0.0856,-0.08485 0.18332,-0.199151 0.2956,-0.3429 0.10068,-0.133074 0.16307,-0.21498 0.18681,-0.246638 0.0245,-0.03166 0.0468,-0.07767 0.0683,-0.135835 0.0324,-0.06902 0.0519,-0.127368 0.0598,-0.175591 0.008,-0.0473 0.004,-0.09553 -0.0123,-0.143749 -0.005,-0.0208 -0.0121,-0.04307 -0.0201,-0.06755 -0.007,-0.02374 -0.0144,-0.0438 -0.0195,-0.05963 0,-0.02153 -0.003,-0.0346 -0.008,-0.03957 -0.006,-0.0057 -0.0136,-0.0057 -0.0236,0 -0.0324,0.01583 -0.0863,0.01583 -0.16399,0 -0.0769,-0.01657 -0.13952,-0.03736 -0.18701,-0.06405 -0.0215,-0.01067 -0.048,-0.02301 -0.0797,-0.03589 -0.0324,-0.01362 -0.0618,-0.02595 -0.0878,-0.03589 -0.0482,-0.01583 -0.0935,-0.03608 -0.13584,-0.05982 -0.0425,-0.0243 -0.072,-0.04877 -0.0878,-0.07546 -0.005,-0.0057 -0.0158,-0.01362 -0.0316,-0.0243 -0.0157,-0.01086 -0.0294,-0.01583 -0.0401,-0.01583 -0.0101,-0.0059 -0.0267,-0.01307 -0.0475,-0.02374 -0.0215,-0.01086 -0.0403,-0.02374 -0.0561,-0.04031 l -0.0482,-0.05614 -0.0236,0.06405 c -0.005,0.01583 -0.0145,0.03589 -0.0282,0.06037 -0.0129,0.02374 -0.0252,0.04601 -0.0352,0.06755 -0.0109,0.01583 -0.0252,0.03736 -0.0438,0.06405 -0.0188,0.02577 -0.0331,0.04749 -0.044,0.06332 -0.0265,0.03736 -0.0559,0.06976 -0.0883,0.09553 -0.0316,0.02669 -0.0604,0.04031 -0.0878,0.04031 -0.01,0 -0.0208,0.0035 -0.0317,0.01141 -0.0107,0.0087 -0.0208,0.02301 -0.0316,0.04399 -0.0164,0.03221 -0.0243,0.05246 -0.0243,0.05964 0,0.0087 0.0107,0.02006 0.0317,0.03663 0.006,0.01086 0.0208,0.02374 0.0445,0.03957 0.0237,0.01583 0.0488,0.03166 0.0755,0.04822 0.0215,0.01067 0.0438,0.02448 0.0675,0.04381 0.0245,0.01804 0.0418,0.03313 0.0525,0.04307 0.021,0.02172 0.0547,0.04031 0.0992,0.05614 0.0453,0.01583 0.092,0.02374 0.13952,0.02374 0.0267,0 0.0418,0.0042 0.0438,0.01215 0.003,0.0079 0.002,0.02816 -0.004,0.06037 -0.005,0.03681 -0.028,0.0935 -0.0675,0.170437 -0.0403,0.07767 -0.092,0.17688 -0.15607,0.299094 -0.074,0.122951 -0.11578,0.218661 -0.12369,0.287683 -0.008,0.06902 0.0123,0.127184 0.0604,0.175407 0.0366,0.03663 0.0799,0.05669 0.12737,0.05964 0.0473,0.0029 0.0928,-0.01215 0.1351,-0.04381 0.0109,-0.0052 0.0302,-0.01583 0.0561,-0.03166 m -1.90535,0.01141 c 0.0208,-0.02871 0.0453,-0.07252 0.0712,-0.131417 0.0158,-0.02669 0.0337,-0.05614 0.0517,-0.0878 0.0195,-0.03166 0.0309,-0.05816 0.0366,-0.07988 0.0101,-0.01565 0.021,-0.03884 0.0316,-0.06755 0.0109,-0.02945 0.018,-0.05743 0.0238,-0.08338 0.005,-0.05393 0.0468,-0.155344 0.12368,-0.307744 0.0769,-0.150928 0.13952,-0.253816 0.187,-0.306273 0.0107,-0.02153 0.006,-0.0589 -0.0116,-0.111355 -0.0186,-0.05393 -0.0467,-0.09847 -0.0834,-0.136018 -0.0431,-0.04233 -0.0812,-0.101232 -0.11577,-0.175408 -0.0344,-0.07399 -0.0495,-0.124975 -0.0438,-0.151663 0.005,-0.02595 -0.001,-0.05025 -0.0203,-0.07197 -0.0186,-0.0208 -0.0466,-0.03148 -0.0841,-0.03148 -0.0265,0 -0.0394,-0.0094 -0.0394,-0.02816 0,-0.01859 0.0107,-0.04381 0.0322,-0.07546 0.021,-0.02724 0.0381,-0.04233 0.0519,-0.04822 0.0129,-0.005 0.0351,-0.0079 0.0668,-0.0079 0.0431,0 0.0856,-0.005 0.12792,-0.01583 0.0425,-0.01067 0.0742,-0.02429 0.0957,-0.03939 0.0107,-0.01086 0.0186,-0.02374 0.0237,-0.04031 0.006,-0.01583 0.006,-0.04252 0,-0.07988 0,-0.0265 0.003,-0.05246 0.008,-0.0797 0.005,-0.02669 0.0101,-0.04528 0.0153,-0.05614 0.0164,-0.02595 0.0401,-0.04896 0.0725,-0.06681 0.0317,-0.01951 0.0611,-0.02301 0.0878,-0.01307 0.0208,0.0059 0.0445,-0.002 0.0718,-0.02374 0.026,-0.0208 0.0396,-0.04233 0.0396,-0.06387 0,-0.005 0.006,-0.01288 0.0158,-0.02374 0.0109,-0.01013 0.0237,-0.0208 0.0396,-0.03166 l 0.0482,-0.03166 -0.0641,-0.02374 c -0.074,-0.02724 -0.11153,-0.0762 -0.11153,-0.147982 0,-0.07123 0.0403,-0.125896 0.12018,-0.16326 l 0.0633,-0.03166 -0.0475,-0.223631 h -0.35946 c -0.20706,0 -0.3359,0.005 -0.38615,0.01583 -0.051,0.01086 -0.0977,0.04252 -0.13951,0.09645 -0.0374,0.0473 -0.069,0.08338 -0.0955,0.107122 -0.0267,0.02356 -0.0591,0.04877 -0.0957,0.07546 -0.0431,0.03221 -0.0826,0.0762 -0.12,0.132154 -0.0374,0.0554 -0.0561,0.101416 -0.0561,0.139516 0,0.02595 0.004,0.04601 0.0121,0.05982 0.008,0.01288 0.023,0.02503 0.044,0.03515 0.0423,0.02153 0.0718,0.05743 0.0876,0.107858 0.0158,0.05025 0.0237,0.126448 0.0237,0.227864 0,0.07988 10e-4,0.128656 0.004,0.14743 0.002,0.01859 0.0121,0.03019 0.028,0.03589 0.0208,0.0044 0.041,0.02227 0.0596,0.05172 0.018,0.0289 0.0281,0.05393 0.0281,0.07565 0,0.0265 -0.0101,0.05466 -0.0281,0.08338 -0.0186,0.02945 -0.0388,0.04675 -0.0596,0.05172 -0.0109,0 -0.0215,0.0094 -0.0324,0.02797 -0.0107,0.01877 -0.0208,0.03884 -0.0317,0.06037 -0.0107,0.02098 -0.0215,0.04105 -0.0316,0.05982 -0.0107,0.01859 -0.0186,0.03018 -0.0243,0.03589 -0.0109,0.005 -0.021,0.02374 -0.0316,0.0554 -0.0109,0.03166 -0.0215,0.06902 -0.0317,0.111355 -0.069,0.255288 -0.12147,0.440083 -0.15607,0.554382 -0.0344,0.1143 -0.0596,0.187556 -0.0755,0.219214 -0.0208,0.04822 -0.0374,0.103624 -0.0482,0.167676 -0.0107,0.06387 -0.008,0.1143 0.009,0.151664 0.005,0.01067 0.0188,0.02871 0.0396,0.0554 0.0215,0.02724 0.0453,0.05319 0.072,0.08043 0.0423,0.03166 0.0769,0.0554 0.10344,0.07123 0.0267,0.01583 0.0641,0.02945 0.11228,0.04013 0.0525,0.01583 0.0977,0.02245 0.1351,0.01951 0.0374,-0.0022 0.069,-0.0116 0.0955,-0.02724 0.021,-0.01657 0.0425,-0.03884 0.0641,-0.06847 m 0.65358,3.947306 c -0.11153,-0.1143 -0.18332,-0.192709 -0.21571,-0.235226 -0.0265,-0.03148 -0.049,-0.07326 -0.0675,-0.123503 -0.0188,-0.05043 -0.0359,-0.105097 -0.0517,-0.163996 0,-0.01012 -0.007,-0.0346 -0.0195,-0.07123 -0.0136,-0.03736 -0.028,-0.07694 -0.0445,-0.120006 -0.026,-0.05835 -0.0418,-0.103624 -0.0475,-0.135282 -0.005,-0.03147 -0.008,-0.08264 -0.008,-0.151664 0,-0.08485 0.006,-0.167493 0.0203,-0.247374 0.0129,-0.0797 0.0302,-0.140068 0.0517,-0.183322 0.0107,-0.01583 0.0265,-0.04086 0.0475,-0.07546 0.0215,-0.03442 0.0453,-0.06755 0.0718,-0.09994 0.0749,-0.101416 0.13454,-0.202648 0.17908,-0.307008 0.046,-0.103441 0.0871,-0.235042 0.12369,-0.39462 0.0166,-0.07418 0.0215,-0.132338 0.0166,-0.175408 -0.006,-0.04252 -0.0217,-0.07914 -0.0482,-0.111539 -0.0158,-0.01583 -0.0267,-0.03884 -0.0316,-0.06755 -0.006,-0.02945 -0.008,-0.09994 -0.008,-0.211299 0,-0.106569 -0.003,-0.175591 -0.008,-0.207801 -0.006,-0.03166 -0.0165,-0.05835 -0.0324,-0.07914 -0.0322,-0.04307 -0.071,-0.06405 -0.11927,-0.06405 -0.0482,0 -0.0878,0.02098 -0.12001,0.06405 -0.0151,0.0208 -0.026,0.04454 -0.0316,0.07123 -0.005,0.0265 -0.008,0.07252 -0.008,0.135834 0,0.07988 -0.002,0.127921 -0.008,0.143749 -0.006,0.01583 -0.0188,0.02595 -0.0403,0.03166 -0.0366,0.01086 -0.0675,0.02798 -0.0913,0.05172 -0.0237,0.02374 -0.0418,0.05466 -0.0517,0.09203 -0.006,0.01583 -0.0173,0.04749 -0.0361,0.09571 -0.0186,0.04749 -0.0359,0.09553 -0.0517,0.143013 -0.0215,0.04822 -0.0453,0.104361 -0.072,0.167493 -0.0265,0.06405 -0.0453,0.1143 -0.0552,0.151848 -0.0166,0.04233 -0.0339,0.08338 -0.0526,0.123502 -0.0179,0.03957 -0.0351,0.0705 -0.0517,0.09203 -0.0107,0.02098 -0.0215,0.04472 -0.0316,0.07123 -0.0107,0.02669 -0.0186,0.05043 -0.0237,0.07197 -0.0215,0.07399 -0.051,0.168965 -0.0876,0.283265 -0.0374,0.1143 -0.0589,0.171173 -0.0641,0.171173 -0.0107,0 -0.028,-0.04472 -0.0517,-0.135282 -0.0237,-0.09056 -0.041,-0.175407 -0.0517,-0.255288 -0.0109,-0.106386 -0.009,-0.189028 0.008,-0.24719 0.0158,-0.05908 0.0559,-0.140989 0.11927,-0.247374 0.0316,-0.04233 0.0589,-0.08338 0.0799,-0.123687 0.0208,-0.03957 0.0344,-0.0646 0.0403,-0.07546 0.005,-0.01086 0.0114,-0.02374 0.0193,-0.04031 0.009,-0.01583 0.0173,-0.02871 0.028,-0.03957 0.0425,-0.05816 0.0828,-0.140804 0.12019,-0.247189 0.0366,-0.105834 0.0631,-0.212955 0.079,-0.318605 0,-0.02153 0.004,-0.04307 0.0123,-0.06405 0.008,-0.02153 0.0173,-0.03939 0.028,-0.05595 0.0316,-0.03737 0.0396,-0.08209 0.0237,-0.135835 -0.0158,-0.05264 -0.0532,-0.103625 -0.11136,-0.151112 -0.0849,-0.07399 -0.14392,-0.122214 -0.17558,-0.143749 -0.0322,-0.0208 -0.0582,-0.03166 -0.0797,-0.03166 -0.0267,0 -0.0532,0.0094 -0.0799,0.02724 -0.0265,0.01951 -0.0475,0.04473 -0.0639,0.07638 -0.0109,0.02153 -0.0282,0.09129 -0.0519,0.211299 -0.0238,0.119269 -0.0517,0.26173 -0.0841,0.426277 0,0.01657 -0.004,0.03387 -0.0114,0.0519 -0.008,0.01933 -0.0173,0.03368 -0.0281,0.04454 -0.0107,0.01012 -0.025,0.02871 -0.0438,0.0554 -0.018,0.02651 -0.0359,0.05319 -0.0517,0.0797 -0.0158,0.02669 -0.0374,0.05466 -0.0641,0.08338 -0.0265,0.02945 -0.0503,0.0519 -0.071,0.06829 -0.13308,0.09571 -0.24885,0.19639 -0.34732,0.302775 -0.0985,0.106386 -0.16031,0.199151 -0.18773,0.279032 -0.0258,0.06387 -0.0366,0.163812 -0.0317,0.299094 0.006,0.135835 0.0217,0.237987 0.0482,0.307009 0.0158,0.04233 0.0252,0.148719 0.0274,0.319156 0.003,0.170438 -0.007,0.255289 -0.0274,0.255289 -0.0165,0 -0.0309,-0.01086 -0.0438,-0.0324 -0.0136,-0.0208 -0.023,-0.05835 -0.028,-0.111539 -0.005,-0.03148 -0.0158,-0.07031 -0.0324,-0.115588 -0.0158,-0.04546 -0.0346,-0.08927 -0.0561,-0.131602 -0.0366,-0.06902 -0.0653,-0.140988 -0.0871,-0.214979 -0.0208,-0.07491 -0.0502,-0.186267 -0.0876,-0.33517 -0.0215,-0.101232 -0.0302,-0.167493 -0.0281,-0.199151 0.003,-0.03166 0.0173,-0.08264 0.044,-0.151663 0.0166,-0.03736 0.0337,-0.07326 0.0517,-0.107858 0.0188,-0.03442 0.0339,-0.05964 0.0438,-0.07546 0.0109,-0.01583 0.0282,-0.03957 0.0519,-0.07197 0.0243,-0.03147 0.0495,-0.06387 0.0762,-0.09553 0.0208,-0.03166 0.0423,-0.06258 0.0639,-0.09129 0.021,-0.02945 0.0346,-0.04675 0.0396,-0.05246 0.0101,-0.0052 0.0208,-0.01583 0.0316,-0.03166 0.0109,-0.01583 0.0188,-0.03166 0.0238,-0.04822 0.0324,-0.05816 0.0712,-0.112827 0.11577,-0.163259 0.0453,-0.05025 0.0863,-0.08338 0.12368,-0.09921 0.0374,-0.02153 0.0624,-0.0416 0.0755,-0.06037 0.0136,-0.01804 0.0388,-0.06755 0.0762,-0.147431 0.0374,-0.08485 0.0626,-0.167492 0.0755,-0.247189 0.0136,-0.07988 0.026,-0.207066 0.0359,-0.382657 v -0.135098 l -0.0797,-0.159578 c -0.0267,-0.04252 -0.0504,-0.08411 -0.072,-0.123687 -0.0208,-0.04031 -0.0366,-0.06258 -0.0475,-0.06829 -0.006,-0.01012 -0.0121,-0.02871 -0.0201,-0.0554 -0.008,-0.0265 -0.0144,-0.05816 -0.0201,-0.09553 -0.005,-0.0324 -0.0116,-0.06405 -0.0195,-0.09571 -0.009,-0.03166 -0.0151,-0.05098 -0.0201,-0.05614 -0.006,-0.01583 -0.008,-0.03295 -0.008,-0.05172 v -0.06755 c 0.005,-0.02669 0.006,-0.05466 0.004,-0.08411 -0.002,-0.02871 -0.0114,-0.06479 -0.0272,-0.107122 -0.0158,-0.05393 -0.026,-0.102888 -0.0281,-0.148167 -0.003,-0.04454 -10e-4,-0.13657 0.004,-0.274614 0,-0.154608 0.009,-0.287498 0.0245,-0.399037 0.0158,-0.111356 0.0366,-0.183322 0.0633,-0.21498 0.006,-0.01086 0.0107,-0.02301 0.0158,-0.03589 0.006,-0.01307 0.008,-0.02301 0.008,-0.02816 0,-0.02153 0.0353,-0.101968 0.10786,-0.242956 0.0712,-0.140805 0.12884,-0.240748 0.17117,-0.299094 0.0425,-0.06405 0.10215,-0.135835 0.17909,-0.215716 0.0777,-0.0797 0.14522,-0.140068 0.20338,-0.183322 0.0482,-0.03166 0.0928,-0.0646 0.13528,-0.09921 0.0431,-0.03442 0.0827,-0.06534 0.12001,-0.09203 0.0158,-0.01583 0.0388,-0.03442 0.0675,-0.05614 0.0295,-0.0208 0.0576,-0.03939 0.0841,-0.05522 0.15958,-0.09074 0.28547,-0.153136 0.37824,-0.187739 0.0935,-0.03442 0.17467,-0.04307 0.24369,-0.02724 0.0158,0 0.0539,0.0013 0.11577,0.0035 0.0604,0.0029 0.12295,0.0044 0.187,0.0044 0.13362,0 0.24148,0.005 0.32707,0.01583 0.0848,0.0099 0.15957,0.02945 0.22289,0.05522 0.0215,0.0059 0.0482,0.01233 0.0804,0.02025 0.0317,0.0079 0.0584,0.01436 0.0791,0.02006 0.0208,0.005 0.0482,0.01288 0.0799,0.02374 0.0315,0.01086 0.0582,0.02374 0.0797,0.03957 0.0267,0.01067 0.0517,0.02006 0.0762,0.02871 0.0237,0.0072 0.0381,0.0116 0.0433,0.0116 0.006,0 0.0171,0.005 0.0366,0.01583 0.018,0.01067 0.0351,0.02153 0.0517,0.03148 0.0158,0.01086 0.0366,0.02301 0.0633,0.03681 0.0265,0.01288 0.0482,0.0243 0.0639,0.03515 0.0158,0.01086 0.0309,0.02153 0.044,0.03166 0.0136,0.01086 0.0201,0.02153 0.0201,0.0324 0,0.0057 0.009,0.01712 0.028,0.03589 l 0.0598,0.06037 c 0.0208,0.01509 0.0445,0.03534 0.0718,0.0589 0.026,0.02374 0.0447,0.04399 0.0554,0.05982 0.0109,0.01638 0.0267,0.03663 0.0482,0.06037 0.0208,0.02374 0.0396,0.04601 0.0554,0.06755 0.0582,0.05816 0.10491,0.117981 0.14006,0.179825 0.0346,0.06037 0.0834,0.16602 0.14743,0.314739 0.0208,0.05835 0.0438,0.12884 0.0675,0.211482 0.0237,0.08191 0.049,0.184058 0.0755,0.307009 0.0109,0.07399 0.009,0.230809 -0.004,0.470268 -0.0129,0.239275 -0.0302,0.399037 -0.0517,0.477998 -0.0101,0.0324 -0.0195,0.06976 -0.0274,0.111539 -0.009,0.04233 -0.0151,0.0797 -0.0201,0.112092 -0.006,0.06902 -0.0331,0.155345 -0.0834,0.258785 -0.051,0.104361 -0.095,0.168965 -0.1316,0.195654 -0.0272,0.0208 -0.0468,0.05172 -0.0604,0.09129 -0.0129,0.04031 -0.0144,0.07841 -0.004,0.115773 0.005,0.0265 0.023,0.06258 0.0519,0.107858 0.0294,0.04528 0.0488,0.06755 0.0596,0.06755 0.0107,0 0.0574,0.07197 0.13952,0.21498 0.0826,0.143749 0.15019,0.268908 0.20338,0.375294 0.0267,0.05319 0.0475,0.100679 0.064,0.143749 0.0158,0.04252 0.0258,0.07694 0.0317,0.103624 0.0215,0.24443 0.033,0.394621 0.0359,0.450758 0.002,0.0554 -0.004,0.1524 -0.0201,0.29118 -0.0217,0.207065 -0.0388,0.342164 -0.0519,0.406216 -0.0129,0.06405 -0.0409,0.140988 -0.0841,0.230809 -0.0582,0.12295 -0.1178,0.220685 -0.1789,0.295412 -0.0611,0.07418 -0.1848,0.199151 -0.37032,0.374743 l -0.0799,0.07178 -0.0165,-0.04031 c -0.01,-0.01583 -0.0129,-0.03589 -0.008,-0.05963 0.006,-0.02374 0.0186,-0.06755 0.0401,-0.131602 0.021,-0.06313 0.0453,-0.130129 0.0712,-0.19915 0.0272,-0.06902 0.0561,-0.143014 0.0878,-0.222895 0.0107,-0.01638 0.0258,-0.0438 0.0438,-0.08411 0.0186,-0.03939 0.0359,-0.07823 0.0525,-0.115773 0.0475,-0.09552 0.0819,-0.180376 0.10344,-0.255104 0.0217,-0.07418 0.0346,-0.156817 0.0396,-0.246637 0.006,-0.03736 0.009,-0.08559 0.0123,-0.143749 0.003,-0.05835 0.006,-0.108595 0.0121,-0.151848 0.005,-0.111355 -0.003,-0.219213 -0.0245,-0.322654 -0.0208,-0.103625 -0.0611,-0.214428 -0.11927,-0.330752 -0.0215,-0.04325 -0.0425,-0.08411 -0.0641,-0.123687 -0.0215,-0.04031 -0.0374,-0.06258 -0.0475,-0.06829 -0.0215,-0.02098 -0.0467,-0.05687 -0.0762,-0.107122 -0.0287,-0.05043 -0.0547,-0.102889 -0.0755,-0.155345 -0.0208,-0.05393 -0.0453,-0.09497 -0.0718,-0.123687 -0.0267,-0.02945 -0.0561,-0.04381 -0.0878,-0.04381 -0.0267,0 -0.0561,0.0086 -0.0878,0.02724 -0.0315,0.01877 -0.0503,0.03884 -0.0559,0.06037 -0.005,0.0052 -0.0116,0.0116 -0.0195,0.01951 -0.008,0.0086 -0.0144,0.01509 -0.0201,0.02006 -0.005,0 -0.0188,0.0064 -0.0403,0.02006 -0.0208,0.0138 -0.0416,0.02743 -0.0633,0.04399 l -0.0797,0.04749 0.0316,0.10344 c 0.0107,0.02743 0.0186,0.06829 0.0245,0.124423 0.005,0.0554 0.0107,0.107122 0.0157,0.155345 0.005,0.08485 0.007,0.145958 0.004,0.183322 -0.002,0.03736 -0.0144,0.09276 -0.0352,0.167493 -0.0381,0.143013 -0.0605,0.255288 -0.0685,0.334985 -0.008,0.07914 -0.009,0.219949 -0.004,0.422045 0.006,0.170438 0.0109,0.280504 0.0166,0.331488 0.005,0.05025 0.0158,0.09129 0.0317,0.122951 0.0158,0.03736 0.0245,0.06037 0.0245,0.06829 0,0.0079 -0.009,0.01657 -0.0245,0.02724 -0.0158,0.0059 -0.0282,0.0059 -0.0361,0 -0.008,-0.005 -0.0223,-0.0208 -0.0438,-0.0473 -0.0107,-0.01583 -0.028,-0.03736 -0.0517,-0.06405 -0.0237,-0.02669 -0.0438,-0.05025 -0.0596,-0.07197 -0.0217,-0.0208 -0.0425,-0.0473 -0.064,-0.07896 -0.0208,-0.0324 -0.0396,-0.06111 -0.0554,-0.08853 l -0.0403,-0.08761 0.008,-0.334433 c 0.006,-0.196942 0.004,-0.350815 -0.004,-0.462906 -0.008,-0.111539 -0.0245,-0.212219 -0.0517,-0.302776 -0.0101,-0.03166 -0.0237,-0.07252 -0.0396,-0.123686 -0.0158,-0.05025 -0.0267,-0.097 -0.0316,-0.139516 -0.0109,-0.05319 -0.023,-0.09277 -0.0359,-0.11927 -0.0136,-0.02669 -0.0281,-0.04822 -0.044,-0.06405 -0.0265,-0.0265 -0.056,-0.04086 -0.0876,-0.04381 -0.0324,-0.0029 -0.0641,0.0094 -0.0957,0.03589 -0.0208,0.01583 -0.0401,0.04528 -0.0559,0.08779 -0.0158,0.04233 -0.0188,0.07399 -0.008,0.09553 0.006,0.01583 10e-4,0.03884 -0.0123,0.06773 -0.0129,0.02945 -0.0272,0.0438 -0.0438,0.0438 -0.0101,0 -0.0129,0.03092 -0.008,0.09203 0.006,0.06111 0.0136,0.09994 0.0245,0.115773 0.005,0.005 0.009,0.03663 0.0114,0.09553 0.003,0.05835 0.004,0.124423 0.004,0.19915 0,0.143934 -0.004,0.240932 -0.0124,0.29118 -0.008,0.05043 -0.0329,0.139516 -0.0755,0.266884 -0.0158,0.04804 -0.0503,0.122214 -0.10344,0.223446 -0.0532,0.101416 -0.10933,0.19639 -0.16749,0.286947 -0.0532,0.07988 -0.0856,0.148903 -0.0957,0.207801 -0.0109,0.05816 -0.0166,0.156081 -0.0166,0.294861 0,0.138043 0.004,0.230072 0.0123,0.274614 0.008,0.04528 0.0409,0.155161 0.0999,0.331305 0.0265,0.08485 0.0503,0.144669 0.0718,0.179088 0.0208,0.0346 0.0475,0.05963 0.0799,0.0762 0.0265,0.0208 0.0517,0.04896 0.0755,0.08338 0.0237,0.0346 0.0438,0.07841 0.0596,0.131601 l 0.0158,0.04822 c 0.005,0.01583 0.008,0.02871 0.008,0.03957 0.0109,0.0208 0.008,0.02798 -0.008,0.02006 -0.0158,-0.0079 -0.0503,-0.03368 -0.10344,-0.0762 -0.0641,-0.05246 -0.15185,-0.136571 -0.2632,-0.250871"
       style="fill:#21201d;fill-opacity:1;fill-rule:nonzero;stroke:none;stroke-width:0.184057"
       id="path536" />
  </g>
</svg>
