<?xml version="1.0" encoding="UTF-8" standalone="no"?>
<!-- Created with Inkscape (http://www.inkscape.org/) -->

<svg
   width="5.9796777mm"
   height="5.8343091mm"
   viewBox="0 0 5.9796777 5.8343091"
   version="1.1"
   id="svg1913"
   inkscape:version="1.1.2 (0a00cf5339, 2022-02-04)"
   sodipodi:docname="e5.svg"
   xmlns:inkscape="http://www.inkscape.org/namespaces/inkscape"
   xmlns:sodipodi="http://sodipodi.sourceforge.net/DTD/sodipodi-0.dtd"
   xmlns="http://www.w3.org/2000/svg"
   xmlns:svg="http://www.w3.org/2000/svg">
  <sodipodi:namedview
     id="namedview1915"
     pagecolor="#ffffff"
     bordercolor="#666666"
     borderopacity="1.0"
     inkscape:pageshadow="2"
     inkscape:pageopacity="0.0"
     inkscape:pagecheckerboard="0"
     inkscape:document-units="mm"
     showgrid="false"
     inkscape:zoom="0.64052329"
     inkscape:cx="-1328.6012"
     inkscape:cy="689.28017"
     inkscape:window-width="2560"
     inkscape:window-height="1376"
     inkscape:window-x="0"
     inkscape:window-y="0"
     inkscape:window-maximized="1"
     inkscape:current-layer="layer1" />
  <defs
     id="defs1910" />
  <g
     inkscape:label="Layer 1"
     inkscape:groupmode="layer"
     id="layer1"
     transform="translate(-456.34787,33.897685)">
    <path
       d="m 462.06055,-30.876909 c 0.0611,-0.02798 0.0913,-0.04012 0.0913,-0.03515 0.005,0.005 -0.0212,0.0208 -0.0769,0.04896 -0.0562,0.02798 -0.0893,0.04233 -0.0979,0.04233 -0.005,0 -0.007,-0.0029 -0.007,-0.0072 0,-0.0042 0.0303,-0.0208 0.0907,-0.04896 m -1.1001,-0.833966 c 0.0279,-0.0094 0.0497,-0.02301 0.0633,-0.04233 0.0138,-0.01878 0.0325,-0.05319 0.0561,-0.105097 0.0517,-0.116324 0.0933,-0.207801 0.12569,-0.273142 0.0332,-0.06534 0.0611,-0.119269 0.0841,-0.16105 0.0467,-0.07988 0.0747,-0.130129 0.0841,-0.150928 0.01,-0.02098 0.0123,-0.04528 0.007,-0.07344 0,-0.02797 -0.0201,-0.09921 -0.0596,-0.213507 -0.0396,-0.1143 -0.0641,-0.17688 -0.0733,-0.186267 -0.005,-0.0042 -0.01,-0.01362 -0.0138,-0.02724 -0.005,-0.01436 -0.01,-0.02871 -0.0145,-0.04252 -0.01,-0.05595 -0.0293,-0.115588 -0.0596,-0.178904 -0.0303,-0.06258 -0.0547,-0.101416 -0.0733,-0.115772 -0.01,-0.0094 -0.0236,-0.0173 -0.0425,-0.02374 -0.0187,-0.0072 -0.0325,-0.01086 -0.0416,-0.01086 -0.0324,0 -0.067,0.01877 -0.10142,0.05614 -0.0353,0.03736 -0.0604,0.07694 -0.0742,0.118717 -0.009,0.04233 -0.0279,0.08908 -0.0559,0.140804 -0.0282,0.05117 -0.0512,0.08853 -0.0698,0.111539 -0.0102,0.0092 -0.0187,0.02153 -0.0282,0.03516 -0.01,0.01436 -0.0162,0.02595 -0.0215,0.03515 -0.008,0.01877 -0.0438,0.06976 -0.10488,0.153872 -0.0604,0.08411 -0.10491,0.142461 -0.1331,0.175591 -0.0236,0.03221 -0.0353,0.06534 -0.0353,0.09847 0,0.03221 0.0145,0.06258 0.0423,0.09056 0.0145,0.01436 0.0289,0.02595 0.0453,0.03515 0.0166,0.0094 0.0296,0.0138 0.0388,0.0138 0.0138,0 0.0254,0.0072 0.0346,0.02153 0.0102,0.01362 0.0145,0.0324 0.0145,0.05595 0,0.01877 0.0187,0.06773 0.0561,0.146694 0.0374,0.07988 0.0747,0.14743 0.11211,0.203568 0.0187,0.02798 0.0374,0.05098 0.0561,0.06976 0.0187,0.01933 0.0346,0.03295 0.0488,0.04233 0.0375,0.01362 0.0605,0.0208 0.0697,0.0208 0.0102,0 0.0332,-0.0072 0.0705,-0.0208 z m -0.23799,0.578126 c -0.0229,-0.03957 -0.051,-0.104361 -0.0841,-0.192709 -0.01,-0.02797 -0.0236,-0.06111 -0.0418,-0.09774 -0.0194,-0.0381 -0.0381,-0.06828 -0.0567,-0.09129 -0.0374,-0.04675 -0.0826,-0.122951 -0.13656,-0.228048 -0.0532,-0.104913 -0.092,-0.194734 -0.11504,-0.269645 -0.0102,-0.03295 -0.0244,-0.06313 -0.046,-0.09129 -0.0212,-0.02797 -0.0525,-0.06534 -0.0943,-0.112091 -0.0517,-0.05614 -0.0834,-0.0935 -0.095,-0.112091 -0.0113,-0.01878 -0.0173,-0.04252 -0.0173,-0.06976 0,-0.03313 0.0152,-0.07767 0.0453,-0.13381 0.03,-0.0554 0.0668,-0.104914 0.10859,-0.146694 0.009,-0.01436 0.0222,-0.03166 0.0386,-0.05246 0.0166,-0.02153 0.0289,-0.04307 0.0383,-0.06681 0.0145,-0.01877 0.0394,-0.05614 0.0775,-0.112275 0.0368,-0.05595 0.0749,-0.1143 0.11155,-0.174671 0.0423,-0.05669 0.0797,-0.109883 0.11282,-0.161787 0.0325,-0.05098 0.0532,-0.08614 0.0626,-0.104913 0.0747,-0.135835 0.14891,-0.258786 0.2207,-0.371797 0.0727,-0.111355 0.11574,-0.167493 0.12936,-0.167493 0.0145,0 0.0374,0.01583 0.0705,0.04896 0.0332,0.0324 0.0489,0.05393 0.0489,0.06332 0,0.0042 0.0152,0.02724 0.0453,0.06976 0.031,0.04233 0.0668,0.09129 0.10932,0.14651 0.0416,0.05687 0.0769,0.107122 0.10418,0.151112 0.0286,0.04454 0.0425,0.06902 0.0425,0.07325 0,0.0052 0.005,0.01804 0.0145,0.03884 0.009,0.02153 0.0208,0.04601 0.0346,0.07399 0.0145,0.02816 0.0258,0.05264 0.0353,0.07344 0.009,0.0208 0.0145,0.03589 0.0145,0.04528 0,0.005 0.004,0.01436 0.0138,0.02798 0.01,0.01436 0.0215,0.02816 0.0353,0.04252 0.01,0.01362 0.0261,0.03957 0.049,0.07694 0.0236,0.03736 0.0445,0.07473 0.0633,0.112091 0.0187,0.03736 0.0388,0.07344 0.0596,0.108594 0.0208,0.03516 0.0335,0.05964 0.0388,0.07326 0.01,0.01454 0.0194,0.03166 0.031,0.05264 0.0113,0.0208 0.0201,0.04381 0.0243,0.06681 0.0145,0.03736 0.018,0.06681 0.0106,0.08761 -0.007,0.02098 -0.0317,0.06184 -0.0733,0.12295 -0.0145,0.02301 -0.0293,0.04749 -0.0453,0.07344 -0.0166,0.02577 -0.0293,0.04528 -0.0388,0.05964 -0.0102,0.01877 -0.0243,0.04381 -0.046,0.07694 -0.0212,0.0324 -0.0433,0.06037 -0.0663,0.08411 -0.0236,0.02798 -0.0467,0.05816 -0.0703,0.09129 -0.0229,0.0324 -0.0395,0.05835 -0.0489,0.07694 -0.01,0.01878 -0.0243,0.04454 -0.0453,0.07694 -0.0215,0.0324 -0.041,0.06332 -0.0596,0.09056 -0.0145,0.02816 -0.0339,0.06479 -0.0598,0.109331 -0.0258,0.04381 -0.048,0.08485 -0.0668,0.122214 -0.0325,0.06111 -0.0697,0.124423 -0.11208,0.189028 -0.0418,0.06552 -0.0885,0.133074 -0.13952,0.203568 -0.0187,0.02797 -0.0388,0.04307 -0.0604,0.04601 -0.0201,0.0015 -0.0525,-0.0044 -0.0942,-0.01804 -0.0279,-0.01362 -0.0532,-0.04086 -0.0769,-0.08043 m -1.17041,0.209826 c 0.0145,-0.04878 0.0166,-0.117061 0.007,-0.206329 -0.005,-0.04675 -0.006,-0.07841 -0.004,-0.09479 0.004,-0.01657 0.008,-0.03166 0.0173,-0.04528 0.0236,-0.02816 0.0346,-0.06184 0.0317,-0.101416 -0.004,-0.04031 -0.013,-0.07418 -0.0317,-0.102152 -0.0272,-0.0324 -0.0697,-0.05246 -0.12587,-0.05964 -0.056,-0.0064 -0.10989,0.0035 -0.16107,0.03239 -0.0328,0.01362 -0.0675,0.04381 -0.10492,0.09056 -0.0374,0.04675 -0.0611,0.08632 -0.0705,0.11927 -0.009,0.03736 -0.0138,0.09203 -0.0138,0.164731 0,0.07178 0.005,0.127184 0.0138,0.164548 0.0187,0.07915 0.0633,0.133074 0.13381,0.161051 0.0698,0.02816 0.1445,0.02301 0.22437,-0.01436 0.0416,-0.02301 0.0696,-0.0589 0.0834,-0.108594 m -0.56011,0.245901 c -0.0519,-0.04454 -0.0892,-0.08761 -0.11299,-0.130129 -0.0138,-0.02798 -0.0229,-0.05816 -0.0272,-0.09129 -0.005,-0.0324 -0.005,-0.09056 0,-0.17467 0,-0.112092 0.006,-0.194182 0.0208,-0.245166 0.0138,-0.05172 0.0467,-0.117245 0.0979,-0.196205 0.0466,-0.0705 0.0926,-0.117245 0.13656,-0.140252 0.0446,-0.02374 0.10858,-0.03534 0.19272,-0.03534 0.0328,0 0.0703,0.0022 0.11208,0.0072 0.0423,0.0044 0.0769,0.0116 0.10491,0.02098 0.0425,0.0094 0.0742,0.0208 0.095,0.03515 0.0208,0.01362 0.0482,0.03736 0.0804,0.06976 0.0187,0.02374 0.0388,0.04896 0.0598,0.07694 0.0208,0.02797 0.0359,0.05172 0.0453,0.07049 0.0187,0.04675 0.0374,0.112092 0.0567,0.19547 0.018,0.08485 0.0254,0.157553 0.0201,0.217924 0,0.04675 -0.004,0.07841 -0.006,0.09497 -0.005,0.01638 -0.0166,0.0381 -0.0353,0.06608 -0.0145,0.01436 -0.0258,0.02798 -0.0353,0.04233 -0.01,0.0138 -0.0138,0.02301 -0.0138,0.02816 0,0.01362 -0.0208,0.0381 -0.0633,0.07325 -0.0418,0.0346 -0.0841,0.06184 -0.12587,0.08062 -0.0475,0.02301 -0.12001,0.03736 -0.22069,0.04233 -0.10069,0.0044 -0.17907,-0.0028 -0.23503,-0.02153 -0.0468,-0.01436 -0.0957,-0.04307 -0.14672,-0.08706 m -1.32499,-1.742108 c 0.005,-0.01362 0.0113,-0.02577 0.0208,-0.03442 0.01,-0.01435 0.0159,-0.02006 0.018,-0.0173 0.004,0.0015 0,0.01233 -0.004,0.03092 -0.01,0.03736 -0.0187,0.06332 -0.0279,0.07767 -0.01,0.01362 -0.0138,0.0064 -0.0138,-0.02153 0,-0.0094 0.004,-0.0208 0.007,-0.03534 m 0.36809,0.676597 c 0.0346,-0.03957 0.069,-0.08264 0.10124,-0.129393 0.0332,-0.04233 0.067,-0.08559 0.10217,-0.130129 0.0353,-0.04381 0.0569,-0.07326 0.0661,-0.08761 0.0332,-0.0324 0.0576,-0.06976 0.0742,-0.111539 0.0159,-0.04233 0.0243,-0.0819 0.0243,-0.119269 0,-0.01877 -0.007,-0.0497 -0.0208,-0.09129 -0.0145,-0.04178 -0.031,-0.08632 -0.0495,-0.133074 -0.0655,-0.153872 -0.11081,-0.265411 -0.13656,-0.332961 -0.0254,-0.06755 -0.0411,-0.127184 -0.0455,-0.178904 -0.005,-0.05614 -0.0145,-0.09994 -0.0279,-0.133074 -0.0145,-0.0324 -0.0396,-0.07694 -0.0769,-0.133074 -0.0517,-0.07896 -0.1064,-0.113563 -0.16454,-0.101231 -0.0591,0.01141 -0.10438,0.06387 -0.13677,0.157369 -0.0187,0.05614 -0.0661,0.161051 -0.14079,0.315659 -0.0747,0.153873 -0.1373,0.273142 -0.18849,0.35652 -0.0423,0.07988 -0.0646,0.146695 -0.0668,0.200624 -0.004,0.05319 0.0152,0.115036 0.0525,0.18553 0.0145,0.02797 0.0282,0.05246 0.0418,0.07326 0.0145,0.02172 0.0236,0.03387 0.0279,0.03884 0.0145,0.0044 0.041,0.03957 0.0806,0.105097 0.0401,0.06534 0.074,0.128657 0.10196,0.189028 0.0332,0.06111 0.0633,0.102888 0.0913,0.125895 0.0275,0.02375 0.0648,0.03515 0.11155,0.03515 0.0145,0 0.0317,-0.0029 0.0525,-0.01086 0.0215,-0.0064 0.0388,-0.01215 0.0532,-0.01712 0.0138,-0.0094 0.0381,-0.03387 0.0734,-0.07344 m -0.25601,0.683039 c -0.01,-0.01362 -0.0222,-0.03368 -0.0381,-0.0589 -0.0166,-0.02595 -0.0293,-0.05098 -0.0388,-0.07399 -0.0145,-0.02301 -0.03,-0.04896 -0.049,-0.07694 -0.0187,-0.02816 -0.0353,-0.0519 -0.0495,-0.06976 -0.0138,-0.01436 -0.0303,-0.03608 -0.049,-0.06332 -0.018,-0.02798 -0.0346,-0.05172 -0.0488,-0.07049 -0.01,-0.02374 -0.0236,-0.04951 -0.0418,-0.08043 -0.0187,-0.03018 -0.0353,-0.05761 -0.049,-0.08062 -0.0145,-0.02301 -0.0401,-0.06405 -0.0776,-0.12295 -0.0374,-0.05816 -0.0748,-0.117245 -0.11138,-0.178352 -0.0381,-0.06534 -0.0769,-0.130865 -0.11578,-0.196206 -0.0395,-0.06534 -0.069,-0.112091 -0.0883,-0.140252 -0.0229,-0.03736 -0.0396,-0.06755 -0.049,-0.09056 -0.01,-0.02374 -0.0138,-0.04031 -0.0138,-0.04951 0.004,-0.0094 0.0152,-0.02669 0.0317,-0.05264 0.0162,-0.02503 0.0335,-0.05246 0.0525,-0.08043 0.0559,-0.07473 0.11356,-0.164732 0.1717,-0.269645 0.0583,-0.104913 0.13162,-0.248846 0.22087,-0.431432 0.046,-0.0935 0.0883,-0.178168 0.12573,-0.255104 0.0374,-0.07767 0.0611,-0.125159 0.0697,-0.143933 0.0102,-0.01436 0.0222,-0.03663 0.0388,-0.06681 0.0166,-0.03019 0.0318,-0.05964 0.046,-0.0878 0.0138,-0.02301 0.0279,-0.04381 0.0418,-0.06313 0.0138,-0.01804 0.0257,-0.02945 0.0353,-0.0346 0.0229,-0.005 0.0791,0.03736 0.16824,0.125896 0.0885,0.08908 0.16323,0.180376 0.22436,0.273142 0.0747,0.107858 0.14817,0.233753 0.22066,0.378975 0.072,0.144486 0.14376,0.308481 0.21351,0.49033 0.0229,0.05614 0.0388,0.11927 0.0453,0.189028 0.007,0.06976 0.0109,0.166204 0.0109,0.287682 0,0.02798 -0.0116,0.05964 -0.0353,0.09405 -0.0233,0.03534 -0.0843,0.10933 -0.18203,0.22087 -0.0985,0.11706 -0.18683,0.224182 -0.2667,0.322837 -0.0791,0.09774 -0.15607,0.196206 -0.23079,0.293941 l -0.14743,0.203568 z m 2.54088,2.530061 c 0.17025,-0.02798 0.29249,-0.05816 0.36739,-0.09129 0.0841,-0.0324 0.19473,-0.10068 0.33277,-0.202648 0.13804,-0.103625 0.24169,-0.194181 0.31217,-0.274062 0.0653,-0.07473 0.13216,-0.18185 0.19915,-0.322102 0.0683,-0.140068 0.10195,-0.235778 0.10195,-0.287498 0,-0.0324 -0.0152,-0.06626 -0.0453,-0.101416 -0.031,-0.03442 -0.0626,-0.05246 -0.0948,-0.05246 -0.01,0 -0.0303,0.0072 -0.0633,0.0208 -0.0324,0.01436 -0.0675,0.03092 -0.10491,0.0497 -0.0605,0.0324 -0.13233,0.05816 -0.21442,0.07694 -0.0812,0.01785 -0.19198,0.03736 -0.33203,0.05595 -0.0791,0.0094 -0.15756,0.01951 -0.23524,0.03092 -0.0769,0.01159 -0.14301,0.02227 -0.19914,0.03166 -0.0328,0.01012 -0.0703,0.01657 -0.11282,0.02153 -0.0416,0.0044 -0.0747,0.0094 -0.0978,0.0138 -0.0229,0.005 -0.0445,0.0079 -0.0633,0.01067 -0.0187,0.0022 -0.0303,0.0029 -0.0346,0.0029 -0.0187,0.01436 -0.17615,0.01804 -0.47322,0.01067 -0.29686,-0.0072 -0.50098,-0.01785 -0.61327,-0.03147 -0.0374,-0.0044 -0.0913,-0.0094 -0.16178,-0.0138 -0.0697,-0.0042 -0.13931,-0.0092 -0.20909,-0.01436 -0.14521,-0.0042 -0.25527,-0.01288 -0.32929,-0.02448 -0.0756,-0.01141 -0.18274,-0.03368 -0.32282,-0.06681 -0.0799,-0.02301 -0.14965,-0.04601 -0.21001,-0.06976 -0.0611,-0.02301 -0.13085,-0.05319 -0.21057,-0.09129 -0.0935,-0.04675 -0.15184,-0.07841 -0.17558,-0.09424 -0.0229,-0.01638 -0.0416,-0.04086 -0.0559,-0.07325 -0.0187,-0.0381 -0.041,-0.06479 -0.0662,-0.08062 -0.0258,-0.01638 -0.0619,-0.02503 -0.10859,-0.02503 -0.0423,0 -0.0812,0.0087 -0.11927,0.02503 -0.0374,0.01583 -0.0633,0.03884 -0.0769,0.06626 -0.0145,0.02798 -0.0187,0.06681 -0.0145,0.115772 0.005,0.04877 0.0187,0.09921 0.0423,0.150927 0.0325,0.0554 0.10287,0.151664 0.21001,0.286947 0.10785,0.135834 0.19622,0.235778 0.2667,0.301119 0.046,0.04178 0.12591,0.102888 0.23799,0.182769 0.11225,0.07896 0.21717,0.14651 0.31566,0.202648 0.0138,0.0094 0.03,0.0208 0.0489,0.03534 0.0187,0.01435 0.0328,0.02301 0.0416,0.02797 0.0236,0.02301 0.0591,0.04878 0.10562,0.07694 0.0468,0.02798 0.0863,0.04878 0.11871,0.06332 0.0279,0.01436 0.10421,0.03442 0.2279,0.06313 0.12439,0.02743 0.20852,0.04399 0.25601,0.04896 0.0324,0.0042 0.19268,0.0057 0.4802,0.0037 0.28695,-0.0029 0.49622,-0.0066 0.62706,-0.01086 0.13071,-0.0044 0.28106,-0.0208 0.45223,-0.04896 m -1.7386,0.42002 c -0.0769,-0.01877 -0.17099,-0.04601 -0.28398,-0.08356 -0.32209,-0.117061 -0.52991,-0.19547 -0.62322,-0.235042 -0.0935,-0.03957 -0.19198,-0.09203 -0.29485,-0.15737 -0.051,-0.03239 -0.0928,-0.06479 -0.12591,-0.09497 -0.0321,-0.03018 -0.0747,-0.07841 -0.12569,-0.143013 -0.0332,-0.04252 -0.0648,-0.08356 -0.095,-0.12295 -0.0303,-0.03957 -0.0475,-0.06479 -0.0525,-0.07344 -0.0653,-0.117245 -0.1215,-0.222158 -0.16824,-0.31566 -0.0467,-0.09332 -0.0791,-0.163075 -0.0977,-0.210562 -0.0145,-0.02743 -0.031,-0.06626 -0.0497,-0.115036 -0.0187,-0.04896 -0.0366,-0.09276 -0.0559,-0.129393 -0.0275,-0.06626 -0.0554,-0.146694 -0.0836,-0.242404 -0.0279,-0.09553 -0.0495,-0.171726 -0.0631,-0.227864 -0.005,-0.0324 -0.0201,-0.09203 -0.046,-0.178352 -0.0257,-0.08614 -0.0453,-0.148719 -0.059,-0.18553 -0.009,-0.02871 -0.0113,-0.04804 -0.007,-0.05964 0.005,-0.01215 0.0261,-0.03368 0.0626,-0.06681 0.0425,-0.04178 0.0849,-0.06902 0.12665,-0.08062 0.0423,-0.01141 0.0769,-0.0057 0.10562,0.0173 0.0138,0.0052 0.0346,0.01583 0.0626,0.03166 0.0279,0.01657 0.0559,0.03166 0.0841,0.04528 0.0279,0.01436 0.0581,0.03166 0.0913,0.05319 0.0324,0.02098 0.0582,0.04105 0.0769,0.05964 0.0935,0.07915 0.22288,0.161051 0.3889,0.244613 0.16602,0.08411 0.31863,0.143013 0.45868,0.175407 0.0236,0.0092 0.0467,0.01785 0.0705,0.02448 0.0229,0.0072 0.0418,0.01288 0.0562,0.01785 0.079,0.02816 0.22638,0.06553 0.44062,0.112276 0.21572,0.04657 0.38834,0.07694 0.51922,0.09129 0.11207,0.01362 0.25234,0.02301 0.42058,0.02724 0.17244,0.0094 0.3429,0.01509 0.5111,0.01804 0.16824,0.002 0.3199,0.0015 0.45593,-0.0037 0.13508,-0.005 0.22638,-0.01436 0.27312,-0.02798 0.0279,-0.005 0.0618,-0.01159 0.10143,-0.0208 0.0396,-0.0094 0.074,-0.01657 0.10213,-0.02098 0.0416,-0.005 0.1156,-0.02374 0.21995,-0.05595 0.10566,-0.03313 0.18408,-0.06111 0.23506,-0.08485 0.01,-0.0044 0.0332,-0.01436 0.0697,-0.03092 0.0381,-0.01657 0.0769,-0.03166 0.11945,-0.04602 0.0423,-0.01362 0.0827,-0.03019 0.12277,-0.04896 0.0396,-0.01859 0.067,-0.03018 0.0806,-0.03515 0.0145,-0.0086 0.0359,-0.02098 0.0668,-0.0346 0.0303,-0.01436 0.0611,-0.02871 0.0942,-0.04233 0.0279,-0.0094 0.0582,-0.02227 0.0913,-0.03884 0.0325,-0.01583 0.0562,-0.02871 0.0698,-0.0381 0.0236,-0.01877 0.095,-0.05761 0.21424,-0.115772 0.11871,-0.05835 0.18055,-0.08485 0.18553,-0.08062 -0.0145,0.04675 -0.0282,0.08412 -0.0425,0.112276 -0.0279,0.07473 -0.051,0.140068 -0.0698,0.196205 -0.0187,0.05614 -0.0353,0.121479 -0.0487,0.19639 -0.005,0.03736 -0.0131,0.07896 -0.0244,0.125712 -0.012,0.04675 -0.0229,0.08853 -0.0317,0.126632 -0.0145,0.06976 -0.0525,0.184058 -0.11574,0.343636 -0.0633,0.158105 -0.11783,0.282529 -0.16457,0.370876 -0.0519,0.0935 -0.11945,0.200624 -0.20356,0.322102 -0.0841,0.121662 -0.14449,0.19639 -0.18185,0.224366 -0.0236,0.02301 -0.0705,0.05835 -0.14023,0.10565 -0.0698,0.04601 -0.11709,0.07694 -0.14009,0.09074 -0.13529,0.07473 -0.25382,0.130865 -0.35377,0.168229 -0.10064,0.03736 -0.20503,0.06037 -0.31213,0.06976 -0.0423,0.005 -0.0933,0.01067 -0.15389,0.01785 -0.0611,0.0072 -0.10989,0.01509 -0.14724,0.02448 -0.0374,0.0042 -0.0863,0.01086 -0.14743,0.0173 -0.0604,0.0072 -0.1143,0.01067 -0.16104,0.01067 -0.051,0.0044 -0.10859,0.0094 -0.17191,0.0138 -0.0626,0.005 -0.11504,0.0092 -0.15738,0.01436 -0.0747,0.0092 -0.19988,0.01657 -0.37528,0.0208 -0.17466,0.005 -0.28843,0.005 -0.33941,0 -0.0985,-0.0094 -0.18552,-0.02374 -0.26321,-0.04233"
       style="fill:#21201d;fill-opacity:1;fill-rule:nonzero;stroke:none;stroke-width:0.184057"
       id="path542" />
  </g>
</svg>
