<?xml version="1.0" encoding="UTF-8" standalone="no"?>
<!-- Created with Inkscape (http://www.inkscape.org/) -->

<svg
   width="5.9276748mm"
   height="6.6615191mm"
   viewBox="0 0 5.9276748 6.6615191"
   version="1.1"
   id="svg2048"
   inkscape:version="1.1.2 (0a00cf5339, 2022-02-04)"
   sodipodi:docname="e6.svg"
   xmlns:inkscape="http://www.inkscape.org/namespaces/inkscape"
   xmlns:sodipodi="http://sodipodi.sourceforge.net/DTD/sodipodi-0.dtd"
   xmlns="http://www.w3.org/2000/svg"
   xmlns:svg="http://www.w3.org/2000/svg">
  <sodipodi:namedview
     id="namedview2050"
     pagecolor="#ffffff"
     bordercolor="#666666"
     borderopacity="1.0"
     inkscape:pageshadow="2"
     inkscape:pageopacity="0.0"
     inkscape:pagecheckerboard="0"
     inkscape:document-units="mm"
     showgrid="false"
     inkscape:zoom="0.64052329"
     inkscape:cx="-1147.4993"
     inkscape:cy="476.95377"
     inkscape:window-width="2560"
     inkscape:window-height="1376"
     inkscape:window-x="0"
     inkscape:window-y="0"
     inkscape:window-maximized="1"
     inkscape:current-layer="layer1" />
  <defs
     id="defs2045" />
  <g
     inkscape:label="Layer 1"
     inkscape:groupmode="layer"
     id="layer1"
     transform="translate(-408.45863,-22.279778)">
    <path
       d="m 414.02398,27.684337 c 0,-0.03736 -0.0136,-0.06976 -0.0418,-0.097 -0.0186,-0.01877 -0.0366,-0.03164 -0.0552,-0.03883 -0.0188,-0.0065 -0.046,-0.01013 -0.0834,-0.01013 -0.046,-0.0042 -0.0764,-0.0057 -0.0907,-0.0035 -0.0136,0.0021 -0.0295,0.01288 -0.048,0.03164 -0.0324,0.03239 -0.0482,0.06755 -0.0482,0.107121 0,0.03957 0.0158,0.07767 0.0482,0.1143 0.023,0.02798 0.0409,0.04307 0.0525,0.04528 0.0107,0.0021 0.0403,0.0037 0.0863,0.0037 0.0374,-0.0051 0.0646,-0.0094 0.0834,-0.01379 0.0186,-0.005 0.0366,-0.01658 0.0552,-0.03517 0.0282,-0.03238 0.0418,-0.06681 0.0418,-0.103625 m -0.49253,-0.07694 c 0.046,-0.04601 0.0569,-0.09626 0.0309,-0.1524 -0.0252,-0.0554 -0.0683,-0.08338 -0.12792,-0.08338 -0.023,0 -0.0418,0.0021 -0.0561,0.0072 -0.0136,0.0044 -0.0294,0.01584 -0.0482,0.03461 -0.0416,0.04675 -0.051,0.09773 -0.0272,0.153137 0.0223,0.0554 0.0668,0.08338 0.1316,0.08338 0.023,0 0.0416,-0.0037 0.0554,-0.01086 0.0136,-0.0065 0.028,-0.01711 0.0416,-0.03165 m -0.0136,0.381921 c 0.0136,-0.01803 0.0237,-0.03461 0.0309,-0.04822 0.007,-0.01436 0.0109,-0.03737 0.0109,-0.06976 0,-0.04602 -0.0131,-0.08338 -0.0388,-0.110804 -0.0252,-0.02798 -0.0591,-0.0416 -0.0999,-0.0416 -0.0467,0 -0.0813,0.01362 -0.10436,0.0416 -0.0237,0.02741 -0.0344,0.06479 -0.0344,0.110804 0,0.05098 0.0107,0.08908 0.0344,0.1143 0.023,0.02596 0.0576,0.0381 0.10436,0.0381 0.023,0 0.0409,-0.0021 0.0552,-0.0065 0.0138,-0.005 0.0274,-0.01436 0.0418,-0.02798 m -0.028,-1.213676 c 0.004,-0.01436 0.007,-0.03461 0.007,-0.06258 0,-0.05098 -0.0116,-0.09055 -0.0353,-0.117979 -0.023,-0.02724 -0.0574,-0.0416 -0.10343,-0.0416 -0.0282,0 -0.0475,0.0035 -0.0596,0.01012 -0.0116,0.0072 -0.026,0.02226 -0.0447,0.04528 -0.051,0.05098 -0.0646,0.104912 -0.0416,0.163075 0.023,0.05761 0.0698,0.08632 0.13878,0.08632 0.0272,0 0.048,-0.0021 0.0626,-0.0065 0.0136,-0.005 0.0272,-0.01362 0.0416,-0.02797 0.018,-0.01877 0.0302,-0.03461 0.0346,-0.04822 m 0,-0.649175 c 0.004,-0.01161 0.007,-0.03534 0.007,-0.0727 0,-0.03663 -0.003,-0.06258 -0.007,-0.0762 -0.004,-0.01362 -0.0166,-0.03238 -0.0346,-0.0554 -0.023,-0.023 -0.0403,-0.03736 -0.0517,-0.0416 -0.0123,-0.0052 -0.0366,-0.0072 -0.0734,-0.0072 -0.0374,0 -0.0611,0.0021 -0.0725,0.0072 -0.0116,0.0042 -0.0317,0.02081 -0.0589,0.04877 -0.023,0.02741 -0.0368,0.04822 -0.0418,0.06184 -0.005,0.01436 -0.007,0.03958 -0.007,0.07694 0,0.03165 0.002,0.05467 0.007,0.06902 0.005,0.01362 0.0188,0.03239 0.0418,0.0554 0.0366,0.03238 0.0762,0.04748 0.11779,0.04528 0.0418,-0.0028 0.0814,-0.01933 0.11798,-0.05245 0.0324,-0.02741 0.051,-0.04675 0.0554,-0.0589 m -1.15183,1.668671 c 0.005,-0.01362 0.007,-0.03663 0.007,-0.06902 0,-0.03313 -0.002,-0.05761 -0.007,-0.07326 -0.004,-0.01655 -0.0188,-0.03828 -0.0418,-0.06553 -0.0272,-0.02374 -0.0467,-0.03883 -0.0582,-0.04528 -0.0123,-0.0072 -0.0388,-0.01087 -0.0799,-0.01087 -0.0329,0 -0.0567,0.0028 -0.0733,0.0072 -0.0158,0.0044 -0.0331,0.01877 -0.0517,0.04178 -0.023,0.01877 -0.0375,0.03443 -0.0418,0.04822 -0.005,0.01362 -0.007,0.0416 -0.007,0.08412 0,0.04086 0.002,0.06902 0.007,0.08264 0.004,0.01362 0.0188,0.03239 0.0418,0.0554 0.023,0.02374 0.0401,0.03736 0.0517,0.0416 0.0114,0.0052 0.0403,0.0052 0.0871,0 0.0366,-0.0042 0.0631,-0.0092 0.0797,-0.01362 0.0158,-0.0042 0.0331,-0.01658 0.0517,-0.03517 0.0188,-0.01803 0.0302,-0.03461 0.0346,-0.04822 m -0.15884,-2.448892 c 0.0409,-0.0416 0.0503,-0.09129 0.0272,-0.149454 -0.023,-0.05761 -0.0668,-0.08632 -0.1316,-0.08632 -0.023,0 -0.0416,0.0037 -0.0561,0.01012 -0.0136,0.0072 -0.0272,0.01711 -0.0409,0.03164 -0.0418,0.04601 -0.0512,0.097 -0.0282,0.1524 0.023,0.05595 0.0648,0.08338 0.12515,0.08338 0.023,0 0.0418,-0.0028 0.0554,-0.0072 0.0136,-0.0044 0.0295,-0.01658 0.049,-0.03461 m -0.0734,1.494733 c 0.006,-0.01637 0.0109,-0.04012 0.0109,-0.07252 0,-0.03239 -0.003,-0.0554 -0.007,-0.06976 -0.004,-0.01362 -0.0166,-0.02741 -0.0346,-0.04178 -0.0324,-0.02723 -0.0604,-0.0473 -0.0834,-0.0589 -0.023,-0.01087 -0.051,-0.01658 -0.0834,-0.01658 -0.023,0 -0.0403,0.0044 -0.0517,0.01362 -0.0116,0.0086 -0.0289,0.02522 -0.0525,0.04822 -0.0232,0.023 -0.0383,0.04325 -0.0447,0.0589 -0.007,0.01658 -0.0107,0.03884 -0.0107,0.06626 0,0.023 0.004,0.0416 0.0107,0.0554 0.006,0.01436 0.0237,0.03443 0.0519,0.0624 0.028,0.02815 0.048,0.04546 0.0624,0.0519 0.0138,0.0072 0.0388,0.01069 0.0762,0.01069 0.0324,0 0.0554,-0.0028 0.069,-0.0065 0.0145,-0.005 0.0304,-0.01933 0.049,-0.04233 0.0188,-0.023 0.0309,-0.04252 0.0381,-0.05908 m -0.20485,1.148337 c 0.0423,-0.04601 0.051,-0.09718 0.028,-0.1524 -0.023,-0.0554 -0.0646,-0.08356 -0.12497,-0.08356 -0.0274,0 -0.0475,0.0021 -0.0591,0.0072 -0.0114,0.0044 -0.0265,0.01379 -0.0446,0.02741 -0.0418,0.04675 -0.051,0.09773 -0.028,0.153138 0.023,0.0554 0.0668,0.08264 0.1316,0.08264 0.0236,0 0.0416,-0.0021 0.0552,-0.0065 0.0143,-0.005 0.0281,-0.01436 0.0418,-0.02798 m -0.0727,-3.264267 c 0.007,-0.01143 0.0109,-0.03295 0.0109,-0.06534 v -0.06976 h 0.0482 c 0.023,0 0.0416,-0.0044 0.0559,-0.01362 0.0138,-0.0094 0.0316,-0.023 0.0547,-0.04178 0.0237,-0.02798 0.0388,-0.04822 0.0453,-0.06258 0.007,-0.01362 0.0109,-0.03443 0.0109,-0.06258 0,-0.023 -0.002,-0.0416 -0.007,-0.05522 -0.004,-0.01379 -0.0158,-0.03238 -0.0346,-0.0554 -0.023,-0.01877 -0.0416,-0.0309 -0.0552,-0.0381 -0.0138,-0.0072 -0.0418,-0.01012 -0.0836,-0.01012 -0.0416,0 -0.0696,0.0014 -0.0834,0.0065 -0.0136,0.0052 -0.028,0.01658 -0.0416,0.03461 -0.018,0.01859 -0.0302,0.03443 -0.0346,0.04877 -0.004,0.01379 -0.007,0.03461 -0.007,0.06258 0,0.03239 -0.002,0.05172 -0.006,0.05908 -0.005,0.0072 -0.0166,0.0099 -0.0351,0.0099 -0.0138,0 -0.0274,0.0037 -0.0418,0.01087 -0.0136,0.0065 -0.0294,0.01933 -0.0482,0.0381 -0.0186,0.023 -0.0302,0.04233 -0.0344,0.0589 -0.005,0.01584 -0.007,0.04252 -0.007,0.07988 0,0.03238 0.002,0.05669 0.007,0.07252 0.004,0.01584 0.0136,0.0309 0.028,0.04528 0.0274,0.03239 0.0618,0.04749 0.10362,0.04472 0.0416,-0.0021 0.0782,-0.01729 0.11062,-0.04472 0.0237,-0.02356 0.0388,-0.04086 0.0453,-0.05246 m -0.30186,2.202991 0.0698,-0.06976 -0.007,-0.138783 c -0.004,-0.06902 -0.0101,-0.111354 -0.0173,-0.127917 -0.007,-0.01658 -0.0245,-0.0381 -0.0517,-0.06626 l -0.0561,-0.0624 -0.1108,0.0072 c -0.0596,0.0042 -0.097,0.0092 -0.11062,0.01362 -0.0144,0.005 -0.0346,0.02374 -0.0626,0.05614 l -0.0554,0.05522 v 0.29118 l 0.0626,0.05614 c 0.0272,0.02226 0.0495,0.03589 0.0653,0.04105 0.0158,0.005 0.0497,0.0072 0.10068,0.0072 h 0.1108 z m -0.2078,-2.525091 c 0.0416,-0.04675 0.051,-0.09774 0.028,-0.1524 -0.0237,-0.05614 -0.0676,-0.08412 -0.13233,-0.08412 -0.023,0 -0.0409,0.0028 -0.0552,0.0072 -0.0138,0.0044 -0.0274,0.01658 -0.0418,0.03461 -0.0418,0.04233 -0.051,0.09129 -0.028,0.149454 0.0237,0.05761 0.0653,0.08706 0.12498,0.08706 0.0281,0 0.0489,-0.0037 0.0626,-0.01087 0.0136,-0.0072 0.0282,-0.01729 0.0418,-0.0309 m -0.0281,1.907575 c 0.0418,-0.04601 0.0512,-0.09718 0.0281,-0.152584 -0.023,-0.05522 -0.0668,-0.08338 -0.1316,-0.08338 -0.0237,0 -0.0418,0.0021 -0.0554,0.0072 -0.0143,0.0044 -0.028,0.01584 -0.0423,0.03461 -0.0418,0.04601 -0.0504,0.097 -0.0274,0.1524 0.023,0.0554 0.0648,0.08338 0.12516,0.08338 0.023,0 0.041,-0.0035 0.0554,-0.01086 0.0136,-0.0065 0.0302,-0.01711 0.048,-0.03073 m -0.16308,0.881454 c 0.007,-0.01379 0.0107,-0.03313 0.0107,-0.05614 0,-0.023 -0.004,-0.04252 -0.0107,-0.0589 -0.006,-0.01584 -0.0195,-0.03313 -0.0381,-0.0519 -0.018,-0.01859 -0.0346,-0.0309 -0.0482,-0.0381 -0.0144,-0.0072 -0.0374,-0.0099 -0.069,-0.0099 -0.028,0 -0.049,0.0028 -0.0626,0.0099 -0.0144,0.0072 -0.0324,0.01951 -0.0561,0.0381 -0.023,0.01877 -0.0366,0.03313 -0.0409,0.04528 -0.005,0.01161 -0.007,0.0309 -0.007,0.05908 0,0.02724 0.002,0.04877 0.007,0.06258 0.004,0.01362 0.0179,0.02946 0.0409,0.04804 0.0188,0.01877 0.0361,0.0302 0.0526,0.03534 0.0158,0.0042 0.0381,0.0065 0.0661,0.0065 0.023,0 0.0423,-0.0021 0.0589,-0.0065 0.0158,-0.0052 0.0353,-0.01658 0.0583,-0.03534 0.0186,-0.01859 0.0317,-0.03443 0.0381,-0.04804 m -0.1143,-3.912704 c 0.0416,-0.04675 0.051,-0.09773 0.028,-0.153138 -0.023,-0.05466 -0.0676,-0.08264 -0.1316,-0.08264 -0.0237,0 -0.0416,0.0021 -0.0561,0.0065 -0.0136,0.005 -0.0272,0.01658 -0.0409,0.03517 -0.0418,0.04601 -0.0512,0.09645 -0.0281,0.1524 0.023,0.0554 0.0648,0.08264 0.12516,0.08264 0.023,0 0.0418,-0.0028 0.0554,-0.0099 0.0136,-0.0072 0.0302,-0.01729 0.0482,-0.0309 m -0.0309,3.412988 c 0.007,-0.01436 0.01,-0.03957 0.01,-0.0762 0,-0.03681 -0.003,-0.06258 -0.01,-0.0762 -0.007,-0.01454 -0.0223,-0.03239 -0.0453,-0.05614 -0.0274,-0.02798 -0.0482,-0.04454 -0.0626,-0.05172 -0.0138,-0.0072 -0.0366,-0.01086 -0.069,-0.01086 -0.0282,0 -0.0497,0.0037 -0.0663,0.01086 -0.0158,0.0072 -0.0381,0.02226 -0.0661,0.04528 -0.0272,0.023 -0.0446,0.0416 -0.0517,0.0554 -0.006,0.01362 -0.0101,0.0416 -0.0101,0.08338 0,0.04086 0.004,0.07049 0.0101,0.08614 0.007,0.01658 0.0223,0.03608 0.0453,0.05908 0.023,0.023 0.0416,0.0381 0.0554,0.04528 0.0144,0.0072 0.0394,0.01012 0.0769,0.01012 0.0315,0 0.0545,-0.0028 0.069,-0.01012 0.0136,-0.0072 0.0344,-0.02448 0.0624,-0.05172 0.0274,-0.02815 0.0447,-0.04896 0.0519,-0.06258 m -0.1143,1.796588 c 0.004,-0.01436 0.006,-0.0438 0.006,-0.09056 0,-0.06037 -0.006,-0.102704 -0.0173,-0.127921 -0.0116,-0.02596 -0.0445,-0.06608 -0.10068,-0.120741 l -0.0898,-0.09056 h -0.0898 c -0.0375,0 -0.0641,0.0021 -0.0799,0.0065 -0.0166,0.005 -0.0339,0.01658 -0.0525,0.03443 -0.0136,0.01436 -0.0252,0.02815 -0.0346,0.04178 -0.009,0.01436 -0.0136,0.02579 -0.0136,0.03514 0,0.0044 -0.004,0.01161 -0.0109,0.02081 -0.007,0.0094 -0.0129,0.01803 -0.0171,0.02741 -0.0138,0.0094 -0.023,0.02226 -0.0281,0.0381 -0.004,0.01658 -0.006,0.04031 -0.006,0.07325 0,0.03681 0.003,0.06332 0.0101,0.07988 0.007,0.01584 0.0265,0.04233 0.0589,0.07988 0.0467,0.05963 0.0814,0.097 0.10436,0.110621 0.023,0.01362 0.0646,0.02078 0.12498,0.02078 0.0512,0 0.0828,-0.0035 0.0972,-0.01069 0.0136,-0.0065 0.0388,-0.02667 0.0762,-0.05835 0.0366,-0.03295 0.0574,-0.05595 0.0626,-0.06976 m -0.45811,-5.029197 v -0.117799 c 0,-0.05614 -0.002,-0.09203 -0.007,-0.107858 -0.004,-0.01655 -0.0208,-0.04031 -0.0482,-0.07344 l -0.0552,-0.06184 -0.13878,0.0072 c -0.0742,0.0044 -0.12866,0.01235 -0.16326,0.02374 -0.0351,0.01161 -0.0705,0.0381 -0.10786,0.07988 -0.023,0.01859 -0.0366,0.03663 -0.0416,0.0554 -0.004,0.01859 -0.009,0.05098 -0.0138,0.097 l -0.0136,0.111354 0.069,0.08283 c 0.0188,0.02374 0.0374,0.04454 0.0554,0.06258 0.0188,0.01859 0.0324,0.0302 0.0423,0.03514 0.004,0.0042 0.018,0.0079 0.041,0.01012 0.023,0.0021 0.0468,0.0035 0.0698,0.0035 h 0.097 l 0.10436,-0.104179 z m -0.63481,3.745947 c 0.0208,-0.0094 0.0403,-0.023 0.0589,-0.04178 0.0324,-0.02798 0.0532,-0.0611 0.0626,-0.10068 0.009,-0.03884 0.0136,-0.104912 0.0136,-0.197679 0,-0.06037 -10e-4,-0.101413 -0.003,-0.124421 -0.003,-0.02374 -0.0109,-0.04454 -0.0252,-0.06313 -0.004,-0.01379 -0.0101,-0.02741 -0.0173,-0.04105 -0.006,-0.01436 -0.01,-0.023 -0.01,-0.02798 0,-0.01877 -0.0188,-0.04601 -0.0554,-0.08356 -0.0374,-0.03663 -0.0698,-0.0624 -0.097,-0.0762 -0.0418,-0.01362 -0.0928,-0.02152 -0.15258,-0.02431 -0.0604,-0.0021 -0.12074,0.0035 -0.18037,0.01711 -0.051,0.01379 -0.0985,0.04105 -0.14228,0.08062 -0.044,0.03957 -0.0799,0.08835 -0.10786,0.14872 -0.018,0.03238 -0.0289,0.05982 -0.0309,0.08356 -0.002,0.023 -0.004,0.06902 -0.004,0.138042 0.005,0.06976 0.009,0.115774 0.0136,0.138595 0.005,0.02374 0.0188,0.04896 0.0418,0.07694 0.009,0.01803 0.023,0.03828 0.0416,0.05908 0.0188,0.02007 0.0353,0.0381 0.049,0.05172 0.018,0.01362 0.0381,0.023 0.0589,0.02797 0.021,0.0052 0.0655,0.0066 0.13528,0.0066 0.0416,0 0.0869,-0.0014 0.1351,-0.0066 0.0482,-0.005 0.0891,-0.0092 0.12148,-0.01436 0.0418,-0.0086 0.0727,-0.01785 0.0935,-0.02724 m -0.48242,0.728317 c 0.009,-0.01877 0.0121,-0.05835 0.007,-0.117983 -0.004,-0.05098 -0.0101,-0.08485 -0.0173,-0.100679 -0.007,-0.01637 -0.0223,-0.0381 -0.0453,-0.06534 -0.0272,-0.02798 -0.0482,-0.04528 -0.0626,-0.05246 -0.0136,-0.0072 -0.0416,-0.01012 -0.0834,-0.01012 -0.046,0 -0.0755,0.0028 -0.0898,0.01012 -0.0136,0.0072 -0.0346,0.02649 -0.0626,0.0589 -0.0272,0.03238 -0.0445,0.05614 -0.0517,0.06976 -0.007,0.01362 -0.0101,0.0438 -0.0101,0.08982 0,0.04602 0.003,0.0762 0.0101,0.08982 0.007,0.01453 0.0265,0.03958 0.0589,0.07694 0.0324,0.03239 0.0569,0.05338 0.0727,0.06184 0.0166,0.0094 0.0381,0.01453 0.0661,0.01453 0.023,0 0.0438,-0.0037 0.0626,-0.01087 0.018,-0.0065 0.0388,-0.01729 0.0626,-0.0309 0.046,-0.03737 0.074,-0.06479 0.0827,-0.08338 m 0.88862,0.936854 c -0.17172,-0.01877 -0.33572,-0.03957 -0.49327,-0.06332 -0.092,-0.01288 -0.18903,-0.03514 -0.29118,-0.06552 -0.10123,-0.0302 -0.26099,-0.08411 -0.47873,-0.163076 -0.0965,-0.03238 -0.16399,-0.06332 -0.20062,-0.0935 -0.0374,-0.0302 -0.074,-0.0819 -0.11154,-0.156083 -0.0596,-0.106383 -0.0985,-0.203383 -0.11429,-0.291913 -0.0164,-0.08761 -0.0265,-0.2494 -0.0309,-0.485179 -0.005,-0.226575 -0.003,-0.383945 0.007,-0.471738 0.009,-0.08761 0.0374,-0.182587 0.0834,-0.284003 0.0186,-0.03736 0.0416,-0.08117 0.0698,-0.132338 0.0272,-0.05025 0.0502,-0.09479 0.069,-0.131417 0.023,-0.03238 0.048,-0.07049 0.0762,-0.114483 0.028,-0.04381 0.0488,-0.0797 0.0626,-0.107675 0.0186,-0.03239 0.051,-0.09 0.097,-0.173383 0.046,-0.08338 0.0928,-0.166755 0.13878,-0.250134 0.16178,-0.281975 0.27755,-0.500454 0.34731,-0.655062 0.0688,-0.155346 0.12001,-0.306271 0.1524,-0.454438 0.023,-0.10197 0.0366,-0.173937 0.0416,-0.214979 0.004,-0.0416 0.004,-0.113566 0,-0.214983 -0.005,-0.09258 -0.009,-0.158842 -0.0136,-0.197675 -0.005,-0.03957 -0.0166,-0.08485 -0.0351,-0.1351 -0.009,-0.03313 -0.0195,-0.06405 -0.0309,-0.09424 -0.0123,-0.0302 -0.0223,-0.04951 -0.0316,-0.0589 -0.018,-0.04178 -0.0482,-0.127367 -0.09,-0.256759 -0.0416,-0.129392 -0.0696,-0.224183 -0.0834,-0.284738 -0.004,-0.03221 -0.009,-0.0797 -0.0136,-0.141541 -0.005,-0.06258 -0.007,-0.121479 -0.007,-0.176879 v -0.194917 l 0.0554,-0.103442 c 0.0374,-0.07399 0.0797,-0.140254 0.12866,-0.197679 0.049,-0.05835 0.0891,-0.09424 0.12148,-0.107858 0.018,-0.0094 0.0445,-0.01877 0.0799,-0.02815 0.0344,-0.0085 0.0705,-0.01584 0.10712,-0.02081 0.0366,-0.0042 0.074,-0.01143 0.11061,-0.02007 0.0374,-0.0094 0.0648,-0.01877 0.0841,-0.02815 0.0368,-0.01362 0.11448,-0.02081 0.23228,-0.02081 0.11724,0 0.21792,0.0072 0.3013,0.02081 0.0561,0.0052 0.12865,0.02522 0.21847,0.06258 0.0907,0.03663 0.18406,0.08135 0.28124,0.132338 0.22639,0.115033 0.40897,0.248108 0.54849,0.3983 0.13804,0.150191 0.26541,0.352287 0.38099,0.606837 0.0368,0.07915 0.0742,0.142279 0.11081,0.191238 0.0374,0.04823 0.11577,0.1351 0.23577,0.259521 0.11154,0.115774 0.18995,0.202833 0.23651,0.260258 0.046,0.05835 0.0806,0.1143 0.10363,0.170438 0.10638,0.226391 0.18829,0.382471 0.24663,0.468058 0.0574,0.08559 0.15093,0.186267 0.28032,0.302041 0.0977,0.09258 0.17044,0.153871 0.2194,0.183321 0.048,0.0309 0.16233,0.08761 0.34289,0.170254 0.0366,0.01803 0.072,0.03608 0.10418,0.0519 0.0324,0.01655 0.0532,0.02872 0.0626,0.03884 0.0274,0.01785 0.0589,0.0611 0.0935,0.127917 0.0344,0.06682 0.0589,0.127921 0.0727,0.183325 0.009,0.04675 0.0208,0.170437 0.0352,0.371796 0.0136,0.200437 0.018,0.350079 0.0136,0.447075 0,0.06479 0.0252,0.16547 0.0762,0.302041 0.0512,0.135834 0.10436,0.248663 0.15957,0.336458 0.0188,0.02724 0.0302,0.05172 0.0346,0.0727 0.005,0.02081 0.007,0.0473 0.007,0.0797 0,0.08338 -0.0201,0.183321 -0.0589,0.298355 -0.0396,0.115775 -0.0848,0.199154 -0.13602,0.249583 -0.023,0.03221 -0.0631,0.06976 -0.12148,0.111355 -0.0574,0.04178 -0.1143,0.07841 -0.1697,0.110804 -0.0834,0.04675 -0.24792,0.109146 -0.49529,0.18682 -0.24737,0.07914 -0.42204,0.125159 -0.5242,0.138779 -0.0186,0.0052 -0.0495,0.01231 -0.0935,0.02099 -0.0438,0.0099 -0.0848,0.01859 -0.12147,0.02798 -0.0698,0.01859 -0.14081,0.03443 -0.21498,0.04896 -0.074,0.01362 -0.15958,0.02946 -0.25657,0.04804 -0.0834,0.01362 -0.19492,0.03736 -0.3337,0.06976 -0.13804,0.03164 -0.24442,0.05963 -0.31842,0.08264 -0.0512,0.01436 -0.17687,0.023 -0.37823,0.02815 -0.20136,0.0042 -0.36664,0 -0.49603,-0.01379 -0.1524,-0.01859 -0.31492,-0.03736 -0.48536,-0.05522"
       style="fill:#21201d;fill-opacity:1;fill-rule:nonzero;stroke:none;stroke-width:0.184057"
       id="path538" />
  </g>
</svg>
