<?xml version="1.0" encoding="UTF-8" standalone="no"?>
<!-- Created with Inkscape (http://www.inkscape.org/) -->

<svg
   width="5.1329598mm"
   height="6.7582202mm"
   viewBox="0 0 5.1329598 6.7582202"
   version="1.1"
   id="svg2277"
   inkscape:version="1.1.2 (0a00cf5339, 2022-02-04)"
   sodipodi:docname="e7.svg"
   xmlns:inkscape="http://www.inkscape.org/namespaces/inkscape"
   xmlns:sodipodi="http://sodipodi.sourceforge.net/DTD/sodipodi-0.dtd"
   xmlns="http://www.w3.org/2000/svg"
   xmlns:svg="http://www.w3.org/2000/svg">
  <sodipodi:namedview
     id="namedview2279"
     pagecolor="#ffffff"
     bordercolor="#666666"
     borderopacity="1.0"
     inkscape:pageshadow="2"
     inkscape:pageopacity="0.0"
     inkscape:pagecheckerboard="0"
     inkscape:document-units="mm"
     showgrid="false"
     inkscape:zoom="0.64052329"
     inkscape:cx="9.3673409"
     inkscape:cy="13.2704"
     inkscape:window-width="2560"
     inkscape:window-height="1376"
     inkscape:window-x="0"
     inkscape:window-y="0"
     inkscape:window-maximized="1"
     inkscape:current-layer="layer1" />
  <defs
     id="defs2274" />
  <g
     inkscape:label="Layer 1"
     inkscape:groupmode="layer"
     id="layer1"
     transform="translate(-102.35701,-145.12018)">
    <path
       d="m 104.87375,151.14655 c 0.01,-0.0144 0.0138,-0.0237 0.0138,-0.028 0,-0.004 0.005,-0.0166 0.0145,-0.0353 0.01,-0.0186 0.0187,-0.0374 0.0282,-0.0559 0.0145,-0.0195 0.0251,-0.0381 0.0321,-0.0561 0.007,-0.0195 0.0102,-0.0316 0.0102,-0.0359 0,-0.009 0.004,-0.0224 0.0102,-0.0388 0.008,-0.0158 0.0138,-0.0316 0.018,-0.0453 0.0332,-0.0756 0.0534,-0.12368 0.0598,-0.14466 0.007,-0.0216 0.006,-0.0337 -0.004,-0.0388 -0.0138,-0.009 -0.0243,-0.0129 -0.0311,-0.01 -0.007,0.002 -0.018,0.0129 -0.0324,0.0316 -0.004,0.0136 -0.0113,0.0265 -0.0208,0.0381 -0.01,0.0121 -0.0166,0.0201 -0.0208,0.025 -0.0663,0.0705 -0.11282,0.13804 -0.14097,0.20357 -0.0279,0.0661 -0.0475,0.13878 -0.0559,0.21848 -0.005,0.0519 0,0.0784 0.01,0.0806 0.0123,0.003 0.0366,-0.0173 0.0742,-0.0589 0.0145,-0.0195 0.0258,-0.0353 0.0353,-0.0497 m -0.21795,-0.92894 c 0.009,-0.0423 0.0229,-0.0755 0.0418,-0.0985 0.005,-0.0101 0.01,-0.0201 0.0145,-0.0324 0.004,-0.0114 0.007,-0.0193 0.007,-0.0245 0,-0.009 0,-0.0164 0.004,-0.0208 0.004,-0.005 0.006,-0.007 0.0106,-0.007 0.005,0 0.008,-0.001 0.0109,-0.004 0.004,-0.002 0.004,-0.008 0.004,-0.0178 0,-0.004 0,-0.0101 0.004,-0.0173 0.004,-0.007 0.006,-0.0129 0.0109,-0.018 0.008,-0.004 0.0173,-0.0136 0.0236,-0.028 0.007,-0.0136 0.0131,-0.0302 0.018,-0.049 0.005,-0.0144 0.0116,-0.028 0.0208,-0.0423 0.0102,-0.0136 0.0166,-0.0237 0.0219,-0.028 0.009,-0.004 0.0159,-0.0124 0.0208,-0.021 0.005,-0.01 0.007,-0.0164 0.007,-0.0215 0,-0.009 0.004,-0.0245 0.007,-0.0453 0.004,-0.0215 0.01,-0.041 0.0138,-0.0596 0.005,-0.0188 0.0102,-0.0353 0.0145,-0.0497 0.004,-0.0144 0.004,-0.0215 0,-0.0215 0,-0.004 -0.004,-0.004 -0.0145,0 -0.01,0.005 -0.0208,0.009 -0.0346,0.0144 -0.0145,0.005 -0.031,0.0109 -0.0497,0.0173 -0.0187,0.007 -0.0353,0.0129 -0.0488,0.018 -0.0145,0 -0.0296,0.004 -0.046,0.0107 -0.0166,0.006 -0.0275,0.013 -0.0324,0.0173 -0.008,0.009 -0.0215,0.0201 -0.0381,0.0316 -0.0166,0.0114 -0.0339,0.0223 -0.0525,0.0324 -0.0799,0.056 -0.13307,0.1121 -0.15903,0.16823 -0.0258,0.056 -0.0293,0.1294 -0.0106,0.21848 0.005,0.023 0.0113,0.0504 0.0215,0.0806 0.008,0.0309 0.0166,0.0554 0.0208,0.074 0.005,0.0144 0.01,0.0309 0.0145,0.0497 0.005,0.0186 0.007,0.0329 0.007,0.0423 0,0.018 0.0123,0.0396 0.0381,0.0626 0.0261,0.0237 0.0482,0.0331 0.0677,0.0287 0.0138,0 0.0229,-0.007 0.0272,-0.0215 0.005,-0.0136 0.0102,-0.0438 0.0145,-0.0913 0.005,-0.0561 0.0116,-0.10565 0.0215,-0.14743 m -0.22564,-0.65857 c 0.0332,-0.0302 0.0725,-0.0648 0.11928,-0.10215 0.0475,-0.0374 0.0927,-0.0782 0.1373,-0.12295 0.0453,-0.0445 0.0762,-0.0782 0.0957,-0.1027 l 0.0633,-0.0841 -0.0282,-0.0346 c -0.01,-0.0144 -0.0166,-0.0265 -0.0215,-0.0359 -0.004,-0.009 -0.007,-0.0158 -0.007,-0.0208 0,-0.009 -0.012,-0.0296 -0.0381,-0.0604 -0.0261,-0.0304 -0.0438,-0.0455 -0.0532,-0.0455 -0.0145,0 -0.0229,0.009 -0.0279,0.0282 -0.005,0.0186 -0.0116,0.0611 -0.0212,0.12718 0,0.0274 -0.004,0.0539 -0.007,0.0769 -0.005,0.0237 -0.007,0.0374 -0.007,0.0425 -0.004,0.004 -0.007,0.0144 -0.007,0.028 v 0.0423 c 0.005,0.0282 0,0.049 -0.0106,0.0633 -0.0116,0.0144 -0.0403,0.0445 -0.0878,0.0913 -0.0279,0.0237 -0.0561,0.0475 -0.0841,0.0705 -0.0286,0.0237 -0.0497,0.0403 -0.0633,0.0497 -0.01,0.004 -0.018,0.0114 -0.0254,0.0208 -0.007,0.009 -0.01,0.0166 -0.01,0.0208 0,0.0144 0.004,0.0215 0.01,0.0215 0.007,0 0.0138,-0.005 0.018,-0.0144 0.005,-0.009 0.0236,-0.0295 0.0561,-0.0596 m -0.29192,2.12955 c 0.0254,-0.0661 0.0482,-0.11062 0.0668,-0.13362 0.0229,-0.0238 0.0482,-0.0596 0.0742,-0.10933 0.0258,-0.049 0.0359,-0.0784 0.0314,-0.0878 -0.005,-0.005 -0.004,-0.0144 0.007,-0.0287 0.009,-0.0136 0.0187,-0.028 0.0282,-0.0416 0.0374,-0.0374 0.0797,-0.10583 0.12644,-0.20431 0.0467,-0.0992 0.0755,-0.17393 0.0841,-0.22492 0.005,-0.0237 0.01,-0.0539 0.0145,-0.092 0.005,-0.0375 0.007,-0.0727 0.007,-0.10583 l 0.007,-0.10491 h -0.0633 c -0.0229,0 -0.0418,-0.004 -0.0562,-0.0109 -0.0145,-0.007 -0.031,-0.0179 -0.0495,-0.0315 -0.0282,-0.0324 -0.0561,-0.0497 -0.0841,-0.0497 -0.0289,0 -0.0562,0.0173 -0.0841,0.0497 -0.0194,0.0186 -0.0296,0.0322 -0.0317,0.0423 -0.004,0.009 0,0.0237 0.01,0.0418 0.005,0.0144 0.008,0.0272 0.0109,0.0388 0.004,0.0121 0.004,0.0201 0.004,0.0243 -0.0332,0.005 -0.0611,0.007 -0.0841,0.007 h -0.0784 l -0.0282,-0.0631 c -0.004,-0.0138 -0.0113,-0.0353 -0.0208,-0.0633 -0.01,-0.028 -0.0166,-0.0539 -0.0208,-0.0777 -0.0187,-0.0561 -0.051,-0.13087 -0.0957,-0.22511 -0.0438,-0.0933 -0.0733,-0.15019 -0.0876,-0.16896 -0.0137,-0.0136 -0.0222,-0.0243 -0.0243,-0.0315 -0.004,-0.007 0,-0.0203 0.0109,-0.0388 0.009,-0.009 0.0222,-0.0296 0.0381,-0.0606 0.0162,-0.0302 0.0346,-0.0611 0.0532,-0.0941 0.0653,-0.10363 0.13215,-0.19989 0.20041,-0.28916 0.0677,-0.0891 0.12298,-0.14945 0.16549,-0.18258 0.0229,-0.0144 0.0445,-0.0324 0.0633,-0.0532 0.0187,-0.0208 0.0311,-0.0388 0.0353,-0.0524 0.01,-0.0188 0.0131,-0.0339 0.0109,-0.046 -0.004,-0.0114 -0.0109,-0.0339 -0.0254,-0.0668 -0.01,-0.0188 -0.0194,-0.0374 -0.0317,-0.0561 -0.0113,-0.0186 -0.0194,-0.0302 -0.0244,-0.0351 -0.01,-0.005 -0.0166,-0.0158 -0.0208,-0.0317 -0.005,-0.0166 -0.01,-0.0346 -0.0145,-0.0532 -0.005,-0.0418 -0.0131,-0.0806 -0.0243,-0.11651 -0.0113,-0.0346 -0.0222,-0.0589 -0.0318,-0.0734 -0.005,-0.005 -0.01,-0.01 -0.0145,-0.0178 -0.004,-0.007 -0.006,-0.0123 -0.006,-0.0173 0,-0.005 -0.004,-0.0151 -0.008,-0.0316 -0.005,-0.0166 -0.0116,-0.0316 -0.0201,-0.0453 -0.0194,-0.0431 -0.0275,-0.0784 -0.0254,-0.10638 0.004,-0.028 0.013,-0.0582 0.0318,-0.0906 0.0279,-0.0381 0.0408,-0.072 0.0388,-0.10289 -0.004,-0.0309 -0.0173,-0.0574 -0.0453,-0.0804 -0.0194,-0.0144 -0.0346,-0.0237 -0.046,-0.0289 -0.0116,-0.004 -0.0275,-0.004 -0.046,0 -0.0236,0 -0.0641,0.021 -0.12294,0.0641 -0.0591,0.0418 -0.10714,0.0819 -0.14468,0.11945 -0.009,0.009 -0.0201,0.0179 -0.0314,0.0243 -0.0116,0.007 -0.0201,0.0109 -0.0254,0.0109 -0.008,0 -0.0159,0.002 -0.0208,0.006 -0.005,0.005 -0.01,0.007 -0.0145,0.007 0,0.005 -0.006,0.009 -0.0201,0.0109 -0.0145,0.002 -0.0286,0.004 -0.043,0.004 h -0.049 v -0.14081 c 0.005,-0.0935 0,-0.15608 -0.0145,-0.18626 -0.0138,-0.0309 -0.0467,-0.0554 -0.0985,-0.074 -0.0138,-0.005 0.0243,-0.0539 0.11649,-0.14817 0.0913,-0.0935 0.1537,-0.15019 0.18609,-0.16823 0.0145,-0.0144 0.0318,-0.0295 0.0532,-0.046 0.0208,-0.0165 0.0388,-0.0346 0.0524,-0.0532 0.0187,-0.023 0.0339,-0.0381 0.046,-0.0453 0.0116,-0.008 0.0339,-0.0109 0.067,-0.0109 0.0416,0 0.0769,-0.0107 0.10566,-0.0317 0.0279,-0.0215 0.0418,-0.048 0.0418,-0.0812 0,-0.0324 -0.0159,-0.0633 -0.049,-0.0913 -0.0332,-0.0289 -0.0799,-0.0561 -0.14097,-0.0841 -0.0286,-0.0101 -0.0574,-0.0216 -0.0876,-0.0361 -0.0311,-0.0136 -0.0504,-0.025 -0.0596,-0.0352 -0.0848,-0.0604 -0.20578,-0.12516 -0.36315,-0.19344 -0.15681,-0.0675 -0.27827,-0.11136 -0.36241,-0.13013 -0.0653,-0.009 -0.1301,-0.0223 -0.19343,-0.0388 -0.0631,-0.0166 -0.0955,-0.0265 -0.0955,-0.0316 0.0102,-0.0186 0.0166,-0.0322 0.0215,-0.0416 0.0229,-0.0331 0.0243,-0.0668 0.004,-0.10215 -0.0219,-0.0351 -0.0677,-0.0834 -0.13751,-0.14449 -0.0328,-0.0331 -0.0646,-0.0648 -0.0955,-0.0957 -0.0303,-0.0302 -0.0475,-0.0524 -0.0525,-0.0661 -0.008,-0.0144 -0.0243,-0.0344 -0.046,-0.0604 -0.0208,-0.0252 -0.041,-0.0503 -0.0596,-0.074 l -0.0769,-0.0915 0.0208,-0.13363 c 0.005,-0.0425 0.008,-0.0856 0.0106,-0.13013 0.004,-0.0445 0.004,-0.0856 0.004,-0.12295 -0.004,-0.0331 -0.008,-0.0777 -0.0102,-0.13381 -0.004,-0.0559 -0.006,-0.10841 -0.0106,-0.15442 l -0.006,-0.16253 0.0416,0.0352 c 0.01,0.009 0.0215,0.0223 0.0353,0.0388 0.0145,0.0166 0.0236,0.0339 0.0279,0.0525 0.0279,0.0517 0.0569,0.092 0.0849,0.12018 0.0279,0.028 0.0725,0.0631 0.13359,0.10565 0.0332,0.0186 0.0633,0.0374 0.0915,0.056 0.0279,0.0188 0.0466,0.0304 0.0567,0.0353 0.009,0.005 0.0194,0.0114 0.0311,0.0215 0.012,0.009 0.025,0.0158 0.0388,0.0208 0.0236,0.0138 0.0762,0.0539 0.15882,0.11945 0.0821,0.0653 0.14393,0.11725 0.18626,0.15461 0.0145,0.0144 0.0332,0.0366 0.0569,0.0676 0.0229,0.0302 0.0416,0.0618 0.056,0.0948 0.0145,0.0282 0.031,0.0611 0.0489,0.0987 0.0187,0.0374 0.0353,0.0683 0.0495,0.0913 0.01,0.0237 0.0296,0.0532 0.0598,0.0876 0.031,0.0361 0.0597,0.0698 0.0876,0.10216 0.0381,0.0423 0.0697,0.0733 0.0957,0.092 0.0254,0.0188 0.0546,0.0352 0.0876,0.049 0.0332,0.0144 0.0576,0.0272 0.0742,0.0386 0.0166,0.0116 0.0318,0.0317 0.046,0.0598 0.0279,0.0423 0.0683,0.0884 0.11927,0.13731 0.0517,0.0495 0.0964,0.0863 0.13381,0.10933 0.0236,0.0144 0.046,0.0329 0.0668,0.056 0.0208,0.0237 0.0431,0.0475 0.0668,0.0712 0.0145,0.0272 0.0339,0.0561 0.0596,0.0834 0.0261,0.0287 0.046,0.0497 0.0598,0.0641 0.0328,0.028 0.0797,0.0574 0.1408,0.0883 0.0611,0.0302 0.10364,0.0453 0.12664,0.0453 0.0194,0 0.0488,0.0223 0.0883,0.067 0.0403,0.0445 0.0648,0.0854 0.0742,0.1235 0.004,0.0138 0.01,0.0289 0.0173,0.0455 0.007,0.0157 0.0109,0.0265 0.0109,0.0315 0.005,0.005 0.008,0.0109 0.0109,0.0173 0.004,0.007 0,0.0129 -0.004,0.018 0,0.004 0.004,0.0129 0.0109,0.0245 0.006,0.0121 0.0194,0.025 0.0381,0.0388 0.0236,0.0186 0.0438,0.0295 0.0604,0.0315 0.0166,0.002 0.0574,0.001 0.12295,-0.004 0.0849,-0.004 0.1524,-0.0116 0.20415,-0.0215 0.0517,-0.009 0.0935,-0.0203 0.12661,-0.0346 0.0423,-0.0237 0.0891,-0.0784 0.14079,-0.16528 0.0517,-0.0871 0.10365,-0.20063 0.15463,-0.34161 0.005,-0.0238 0.0109,-0.0539 0.018,-0.092 0.007,-0.0374 0.012,-0.0718 0.0169,-0.10491 0.005,-0.0705 0,-0.13437 -0.0138,-0.19419 -0.0145,-0.0582 -0.0445,-0.13436 -0.092,-0.2286 -0.0138,-0.0374 -0.0325,-0.0841 -0.056,-0.14025 0.0187,0.009 0.0328,0.021 0.0423,0.0346 0.0229,0.0188 0.0482,0.0295 0.074,0.0324 0.0261,0.002 0.0482,-0.004 0.067,-0.018 0.004,-0.004 0.0166,-0.0173 0.0353,-0.0388 0.0187,-0.0208 0.0374,-0.0453 0.0561,-0.074 0.0187,-0.023 0.0409,-0.0517 0.0668,-0.0841 0.0258,-0.0331 0.0482,-0.0611 0.0668,-0.0841 0.0145,-0.0237 0.0374,-0.0569 0.0705,-0.0992 0.0332,-0.0418 0.0655,-0.0821 0.0985,-0.11945 0.0282,-0.0423 0.0727,-0.0985 0.13381,-0.16897 0.0611,-0.0705 0.1222,-0.13583 0.1826,-0.19694 0.0569,-0.0611 0.10933,-0.12 0.15882,-0.17614 0.0497,-0.0561 0.0807,-0.0913 0.095,-0.10565 0.01,-0.0188 0.0318,-0.0482 0.0668,-0.0878 0.0353,-0.0403 0.072,-0.0812 0.10933,-0.12368 0.0332,-0.0416 0.0654,-0.0804 0.0985,-0.11577 0.0332,-0.0359 0.0517,-0.0582 0.0561,-0.0668 0.0145,-0.0186 0.0243,-0.028 0.0318,-0.028 0.007,0 0.0251,0.004 0.0532,0.0136 0.0416,0.023 0.0898,0.0812 0.1445,0.17246 0.0539,0.0915 0.092,0.18203 0.11578,0.27111 0.0138,0.0747 0.0236,0.13731 0.0279,0.18627 0.005,0.0495 0.0102,0.17044 0.0145,0.36296 l 0.007,0.34511 -0.0559,0.18995 c -0.0194,0.0559 -0.0361,0.1143 -0.0497,0.17246 -0.0145,0.0584 -0.0236,0.10142 -0.0286,0.13013 -0.0229,0.14964 -0.0467,0.27462 -0.0697,0.37327 -0.0236,0.0985 -0.0497,0.1732 -0.0777,0.22492 -0.0145,0.0282 -0.0279,0.0539 -0.0423,0.0777 -0.0138,0.023 -0.0212,0.0374 -0.0212,0.0425 -0.004,0.004 -0.0201,0.01 -0.046,0.0171 -0.0258,0.007 -0.0552,0.013 -0.0876,0.018 -0.0475,0.009 -0.0978,0.026 -0.15166,0.049 -0.0539,0.0237 -0.13237,0.0589 -0.23598,0.10565 -0.16453,0.0841 -0.2818,0.15019 -0.35154,0.19694 -0.0705,0.0475 -0.13878,0.10565 -0.20486,0.17614 -0.0747,0.0799 -0.16178,0.19639 -0.26024,0.34879 -0.0978,0.1524 -0.16824,0.27756 -0.21149,0.37603 -0.008,0.0186 -0.0194,0.0388 -0.031,0.0604 -0.012,0.0208 -0.0222,0.0366 -0.0321,0.0453 -0.0138,0.0186 -0.0208,0.0316 -0.0208,0.0388 0,0.007 0.007,0.0201 0.0208,0.0388 0.005,0.009 0.018,0.0238 0.0388,0.0423 0.0215,0.0188 0.046,0.0346 0.074,0.049 0.0611,0.0423 0.11854,0.0948 0.17244,0.1581 0.0539,0.0641 0.0907,0.12369 0.10933,0.18056 0.005,0.0136 0.008,0.0431 0.0109,0.0876 0.004,0.0445 0.004,0.0942 0.004,0.15112 0,0.10785 -0.006,0.17816 -0.0208,0.21129 -0.0145,0.0331 -0.0611,0.10363 -0.14101,0.2113 -0.0328,0.0468 -0.0696,0.09 -0.11208,0.13031 -0.0423,0.0394 -0.092,0.0854 -0.14816,0.13731 -0.0466,0.0374 -0.0891,0.0696 -0.12644,0.0985 -0.0381,0.028 -0.0589,0.0423 -0.0633,0.0423 -0.0145,0.004 -0.0215,0.008 -0.0215,0.0101 0,0.002 0.005,0.006 0.0145,0.0107 0.01,0 0.0159,0.006 0.0208,0.0173 0.005,0.0123 0.007,0.0223 0.007,0.0324 0,0.028 0.01,0.051 0.0282,0.0698 0.0187,0.0186 0.0403,0.0287 0.0633,0.0287 0.009,0 0.0194,7e-4 0.0279,0.004 0.0102,0.002 0.0166,0.006 0.0215,0.01 0.0138,0.009 0.0109,0.0202 -0.0106,0.0316 -0.0208,0.0123 -0.0576,0.0223 -0.10932,0.0316 -0.0512,0.005 -0.0893,0.0151 -0.11226,0.0316 -0.0236,0.0166 -0.0394,0.0438 -0.0495,0.0812 -0.005,0.0145 -0.0138,0.0339 -0.0282,0.0605 -0.0138,0.0251 -0.0279,0.0473 -0.0423,0.0661 -0.0325,0.0423 -0.0539,0.0762 -0.0633,0.10215 -0.009,0.0257 -0.0145,0.0646 -0.0145,0.11633 -0.004,0.0324 -0.008,0.0576 -0.0138,0.0734 -0.005,0.0166 -0.0145,0.0324 -0.0279,0.046 l -0.0289,0.0351 -0.0559,-0.056 c -0.0425,-0.0475 -0.0821,-0.0813 -0.11946,-0.10289 -0.0373,-0.0201 -0.0683,-0.0267 -0.0913,-0.0173 -0.0279,0.005 -0.0554,0.0173 -0.0812,0.0388 -0.0258,0.0215 -0.0482,0.0482 -0.067,0.0814 -0.009,0.0186 -0.0215,0.0337 -0.0353,0.0453 -0.0145,0.0121 -0.031,0.0223 -0.049,0.0316 -0.0187,0.01 -0.0394,0.0201 -0.0604,0.0322 -0.0208,0.0116 -0.0367,0.0203 -0.0453,0.0237 -0.0145,0.0101 -0.0293,0.0195 -0.046,0.0289 -0.0166,0.009 -0.0293,0.0144 -0.0388,0.0144 -0.0187,0.004 -0.0488,0.0302 -0.0913,0.0769 -0.0423,0.0468 -0.0705,0.0898 -0.0841,0.12645 l -0.0215,0.0431 v -0.0431 c 0,-0.0324 0.013,-0.0812 0.0388,-0.14743"
       style="fill:#21201d;fill-opacity:1;fill-rule:nonzero;stroke:none;stroke-width:0.184057"
       id="path544" />
  </g>
</svg>
