<?xml version="1.0" encoding="UTF-8" standalone="no"?>
<!-- Created with Inkscape (http://www.inkscape.org/) -->

<svg
   width="7.1982698mm"
   height="6.6764698mm"
   viewBox="0 0 7.1982698 6.6764698"
   version="1.1"
   id="svg2412"
   inkscape:version="1.1.2 (0a00cf5339, 2022-02-04)"
   sodipodi:docname="e8.svg"
   xmlns:inkscape="http://www.inkscape.org/namespaces/inkscape"
   xmlns:sodipodi="http://sodipodi.sourceforge.net/DTD/sodipodi-0.dtd"
   xmlns="http://www.w3.org/2000/svg"
   xmlns:svg="http://www.w3.org/2000/svg">
  <sodipodi:namedview
     id="namedview2414"
     pagecolor="#ffffff"
     bordercolor="#666666"
     borderopacity="1.0"
     inkscape:pageshadow="2"
     inkscape:pageopacity="0.0"
     inkscape:pagecheckerboard="0"
     inkscape:document-units="mm"
     showgrid="false"
     inkscape:zoom="0.64052329"
     inkscape:cx="-1099.1013"
     inkscape:cy="-5.4642822"
     inkscape:window-width="2560"
     inkscape:window-height="1376"
     inkscape:window-x="0"
     inkscape:window-y="0"
     inkscape:window-maximized="1"
     inkscape:current-layer="layer1" />
  <defs
     id="defs2409" />
  <g
     inkscape:label="Layer 1"
     inkscape:groupmode="layer"
     id="layer1"
     transform="translate(-395.84317,-149.91254)">
    <path
       d="m 401.71347,153.09009 c -0.0295,-0.0532 -0.0396,-0.11503 -0.0287,-0.18405 0.006,-0.0324 0.0136,-0.0591 0.0245,-0.0806 0.0107,-0.0208 0.0322,-0.051 0.0639,-0.0876 0.0215,-0.0274 0.0468,-0.0554 0.0762,-0.0848 0.0302,-0.0296 0.0547,-0.0519 0.0762,-0.0683 0.0217,-0.0217 0.0482,-0.0482 0.0806,-0.0799 0.0317,-0.0324 0.0611,-0.0618 0.0883,-0.0884 0.0324,-0.0267 0.0762,-0.0685 0.13234,-0.12442 0.0561,-0.0569 0.1108,-0.10859 0.16472,-0.15682 0.12793,-0.11779 0.21627,-0.20209 0.26449,-0.25234 0.0482,-0.051 0.10142,-0.11651 0.16032,-0.19694 0.0539,-0.069 0.0856,-0.10786 0.0964,-0.11578 0.0107,-0.009 0.0237,-0.007 0.0401,0.004 0.005,0.0109 0.0145,0.0237 0.0282,0.0403 0.0129,0.0158 0.023,0.0317 0.028,0.0482 l 0.0324,0.0641 -0.0482,0.0401 c -0.0215,0.0166 -0.0468,0.0512 -0.0762,0.10436 -0.0294,0.0532 -0.0819,0.15019 -0.15663,0.28897 -0.0433,0.0856 -0.14595,0.25014 -0.30921,0.49328 -0.16326,0.24369 -0.27388,0.39756 -0.33296,0.46143 -0.048,0.0534 -0.0804,0.0871 -0.0963,0.10068 -0.0158,0.013 -0.0374,0.0195 -0.0641,0.0195 -0.0166,0 -0.0351,-0.002 -0.0567,-0.008 -0.021,-0.005 -0.0425,-0.0109 -0.0641,-0.0158 -0.0532,-0.0267 -0.095,-0.0668 -0.12369,-0.12074 m -2.6285,-0.72188 0.008,-0.17688 c 0,-0.0482 -7.1e-4,-0.10933 -0.003,-0.18406 -0.004,-0.0747 -0.007,-0.14172 -0.0129,-0.20062 -0.005,-0.0589 -0.0101,-0.12589 -0.0158,-0.20062 -0.005,-0.0747 -0.0109,-0.13363 -0.0158,-0.17688 -0.0109,-0.11706 -0.0188,-0.38174 -0.0245,-0.7944 -0.005,-0.41192 -0.003,-0.63352 0.008,-0.66574 0.006,-0.0109 0.0109,-0.023 0.0166,-0.0361 0.005,-0.0136 0.0109,-0.0208 0.0158,-0.0208 0.006,0 0.0186,0.009 0.0403,0.0245 0.0208,0.0158 0.0453,0.0374 0.0718,0.0646 0.0324,0.0316 0.0576,0.0618 0.0762,0.0878 0.0188,0.0272 0.0339,0.0589 0.0447,0.0963 0.01,0.0324 0.025,0.0705 0.0438,0.1165 0.0186,0.0453 0.0359,0.0871 0.0517,0.12443 l 0.0648,0.14448 v 0.25676 c 0,0.0698 7.1e-4,0.14798 0.004,0.23652 0.002,0.0883 0.006,0.15958 0.0121,0.21277 0.0101,0.0964 0.0158,0.16749 0.0158,0.21277 0,0.0453 -0.0107,0.12939 -0.0322,0.25308 -0.0109,0.069 -0.0202,0.13602 -0.0281,0.19989 -0.008,0.0648 -0.0151,0.10509 -0.0201,0.12092 -0.006,0.0157 -0.0109,0.0423 -0.0166,0.0797 -0.005,0.0374 -0.0101,0.0747 -0.0158,0.11283 -0.005,0.0376 -0.0158,0.0856 -0.0324,0.14467 -0.0158,0.0107 -0.0468,0.0144 -0.092,0.0121 -0.0453,-0.003 -0.0812,-0.0101 -0.10786,-0.0208 z m 0.91512,3.68337 c 0.0749,-0.0591 0.13381,-0.13676 0.17614,-0.23302 0.0166,-0.0267 0.0331,-0.0547 0.0526,-0.0841 0.0186,-0.0295 0.0329,-0.0497 0.0438,-0.0604 0.0324,-0.0425 0.0539,-0.0878 0.0641,-0.13657 0.0107,-0.0482 0.0164,-0.12296 0.0164,-0.22437 v -0.20063 l -0.056,-0.12 c -0.0374,-0.0648 -0.0712,-0.11301 -0.10067,-0.14467 -0.0295,-0.0322 -0.0734,-0.0618 -0.13234,-0.0883 -0.0216,-0.0109 -0.0468,-0.0252 -0.0762,-0.0445 -0.0295,-0.0188 -0.0517,-0.0331 -0.0683,-0.0438 -0.0641,-0.0482 -0.11504,-0.0791 -0.1524,-0.092 -0.0374,-0.0138 -0.0965,-0.0203 -0.17614,-0.0203 -0.0965,-0.006 -0.17541,-0.003 -0.23652,0.008 -0.0618,0.0109 -0.11153,0.0352 -0.1489,0.0727 -0.0158,0.01 -0.0374,0.025 -0.0641,0.0438 -0.0272,0.0186 -0.051,0.0339 -0.0725,0.0438 -0.0856,0.0482 -0.16473,0.12222 -0.23651,0.22069 -0.0727,0.0992 -0.12148,0.20504 -0.1489,0.31713 -0.005,0.0267 -0.0114,0.0561 -0.0193,0.0885 -0.009,0.0322 -0.0173,0.0589 -0.0282,0.0797 -0.0107,0.0374 -0.0151,0.0769 -0.0121,0.11651 0.002,0.0403 0.0121,0.0791 0.0272,0.11651 0.006,0.0107 0.0215,0.0309 0.049,0.0604 0.0265,0.0294 0.0561,0.0604 0.0883,0.092 0.069,0.0641 0.15755,0.12442 0.26467,0.18037 0.10712,0.0561 0.20854,0.0979 0.3048,0.12443 0.0964,0.0267 0.16473,0.0431 0.20485,0.0482 0.0403,0.006 0.0972,0 0.17265,-0.0158 0.10141,-0.0109 0.18976,-0.0453 0.26448,-0.10418 m -1.06329,0.41689 c -0.0777,-0.0482 -0.14595,-0.10141 -0.20485,-0.16031 -0.0267,-0.0215 -0.0576,-0.0539 -0.092,-0.0963 -0.0346,-0.0433 -0.0655,-0.0856 -0.092,-0.12884 -0.0906,-0.13363 -0.15829,-0.26891 -0.20136,-0.40474 -0.0423,-0.13658 -0.0611,-0.27462 -0.0554,-0.4134 0.005,-0.0698 0.0109,-0.11927 0.0158,-0.1489 0.005,-0.0295 0.021,-0.0703 0.0482,-0.1235 0.0316,-0.0598 0.0791,-0.12811 0.14025,-0.20505 0.0618,-0.0777 0.1408,-0.16455 0.23651,-0.26099 0.0539,-0.0539 0.0942,-0.0883 0.12001,-0.10418 0.0274,-0.0158 0.0893,-0.0403 0.18479,-0.072 0.0963,-0.0322 0.16473,-0.0525 0.20485,-0.0604 0.0403,-0.009 0.10583,-0.0121 0.19712,-0.0121 0.0797,-0.005 0.14375,-0.005 0.19197,0 0.048,0.005 0.1178,0.0158 0.20909,0.0324 0.0583,0.0107 0.11375,0.0223 0.164,0.0359 0.051,0.0136 0.0871,0.0252 0.10859,0.0359 0.0374,0.0158 0.0948,0.0663 0.17246,0.14816 0.0777,0.0834 0.14025,0.16455 0.18847,0.24517 0.0215,0.0316 0.0488,0.0791 0.0804,0.14025 0.0324,0.0618 0.0583,0.11927 0.0799,0.17246 0.0381,0.0913 0.0633,0.15811 0.0762,0.20062 0.0136,0.0431 0.023,0.0992 0.0287,0.16823 0.0158,0.15535 -0.001,0.2991 -0.0525,0.42997 -0.051,0.13086 -0.14301,0.2632 -0.27682,0.39683 -0.0641,0.0697 -0.11007,0.11356 -0.13657,0.13233 -0.0267,0.0188 -0.0611,0.0339 -0.10418,0.0445 -0.0267,0.005 -0.0561,0.0129 -0.0878,0.0238 -0.0324,0.0109 -0.0589,0.0188 -0.0806,0.0245 -0.0747,0.0215 -0.15958,0.0388 -0.25308,0.0517 -0.0933,0.0136 -0.19123,0.023 -0.29246,0.028 -0.0856,0 -0.1489,-0.002 -0.18921,-0.004 -0.0403,-0.003 -0.0812,-0.009 -0.12369,-0.0201 -0.0589,-0.0158 -0.12718,-0.0482 -0.20485,-0.0964 m -2.19505,-3.04487 c 0.006,-0.009 0.0138,-0.0151 0.0245,-0.0208 0.006,-0.005 0.0158,-0.0129 0.0316,-0.0237 0.0166,-0.0109 0.0324,-0.0215 0.049,-0.0317 0.0208,-0.0215 0.0295,-0.0272 0.0238,-0.0166 -0.005,0.0109 -0.0238,0.0374 -0.0561,0.0806 -0.0274,0.0316 -0.0445,0.0495 -0.0517,0.0524 -0.008,0.002 -0.018,-0.004 -0.0289,-0.0208 0,-0.005 0.003,-0.0116 0.008,-0.0195 m -0.0797,1.88954 c -0.0215,-0.0158 -0.0353,-0.0245 -0.0403,-0.0245 -0.005,-0.005 0.0144,-0.0618 0.0604,-0.16822 0.0453,-0.10713 0.0871,-0.18977 0.12443,-0.24885 0.0208,-0.0423 0.0589,-0.12645 0.11208,-0.25234 0.0532,-0.12571 0.0834,-0.20486 0.0885,-0.23725 0.005,-0.0216 0.0136,-0.0438 0.0245,-0.0676 0.01,-0.0245 0.0208,-0.0445 0.0315,-0.0604 0.0158,-0.0267 0.0497,-0.0965 0.10068,-0.20854 0.0504,-0.11283 0.0755,-0.17393 0.0755,-0.1848 0,-0.0215 0.0606,-0.0898 0.18056,-0.20485 0.12074,-0.11504 0.22142,-0.19915 0.3013,-0.25308 0.0747,-0.0475 0.14448,-0.0957 0.20835,-0.14375 0.0648,-0.0482 0.13675,-0.10142 0.21719,-0.16105 0.11724,-0.0907 0.19197,-0.14522 0.22436,-0.164 0.0324,-0.0188 0.0725,-0.0309 0.12074,-0.0366 0.0532,-0.0151 0.12148,-0.0346 0.20431,-0.0554 0.0834,-0.0215 0.19123,-0.0539 0.32485,-0.0963 l 0.19271,-0.0569 h 0.28897 c 0.11798,0 0.2043,0.003 0.26025,0.009 0.0561,0.005 0.1086,0.0129 0.15682,0.0237 0.0804,0.0215 0.21921,0.0725 0.41707,0.1524 0.19841,0.0797 0.34511,0.14743 0.44137,0.20062 0.0697,0.0374 0.20633,0.12295 0.40916,0.25658 0.20338,0.13381 0.35872,0.24093 0.46584,0.32137 0.0482,0.0368 0.0906,0.0893 0.12866,0.15608 0.0374,0.0668 0.10436,0.21277 0.19988,0.43787 0.0166,0.0475 0.0351,0.0876 0.0561,0.12001 0.0223,0.0316 0.0431,0.0591 0.0646,0.0806 0.021,0.0208 0.0388,0.0453 0.0519,0.0718 0.0136,0.0267 0.028,0.0698 0.0445,0.12884 0.0107,0.0366 0.025,0.0826 0.0438,0.13583 0.0188,0.0539 0.0359,0.0963 0.0525,0.12866 0.0425,0.0856 0.072,0.14816 0.0878,0.18848 0.0166,0.0401 0.0245,0.071 0.0245,0.092 0,0.0215 -0.023,0.0574 -0.0685,0.1084 -0.0453,0.0512 -0.0841,0.0848 -0.11633,0.10068 -0.0158,0.0109 -0.0294,0.009 -0.0403,-0.004 -0.0109,-0.013 -0.0316,-0.0576 -0.0641,-0.13234 -0.0697,-0.14945 -0.14798,-0.30774 -0.23651,-0.47303 -0.0883,-0.1662 -0.14872,-0.27038 -0.18037,-0.31345 -0.0109,-0.021 -0.026,-0.0468 -0.044,-0.0762 -0.0186,-0.0296 -0.0337,-0.0547 -0.0445,-0.0764 -0.0107,-0.0216 -0.0309,-0.0532 -0.0604,-0.0963 -0.0295,-0.0423 -0.0569,-0.0826 -0.0841,-0.12001 -0.0267,-0.0374 -0.0532,-0.0777 -0.0806,-0.12093 -0.0265,-0.0423 -0.0473,-0.0747 -0.0639,-0.0963 -0.0799,-0.13878 -0.17688,-0.27387 -0.28842,-0.40474 -0.11283,-0.1316 -0.20909,-0.21793 -0.28897,-0.261 -0.0374,-0.0215 -0.0898,-0.0403 -0.15663,-0.0561 -0.067,-0.0166 -0.12166,-0.0238 -0.16473,-0.0238 -0.005,0 -0.0265,-0.003 -0.0641,-0.009 -0.0374,-0.005 -0.0797,-0.0107 -0.12866,-0.0158 -0.0532,-0.005 -0.13233,-0.009 -0.23651,-0.0121 -0.10417,-0.002 -0.22068,-0.004 -0.34934,-0.004 -0.19786,0 -0.32872,0.002 -0.39259,0.004 -0.0641,0.003 -0.15037,0.0151 -0.25749,0.0366 -0.13363,0.0267 -0.24719,0.0576 -0.34069,0.092 -0.0935,0.0346 -0.17265,0.0791 -0.23651,0.13234 -0.0267,0.0158 -0.0561,0.0359 -0.0885,0.0604 -0.0316,0.0237 -0.0589,0.0438 -0.0797,0.0604 -0.0217,0.0109 -0.0482,0.0289 -0.0806,0.0554 -0.0324,0.0272 -0.0618,0.0539 -0.0883,0.0806 -0.0267,0.0216 -0.0576,0.0473 -0.092,0.0762 -0.0346,0.0295 -0.0655,0.0545 -0.0928,0.0762 -0.021,0.0215 -0.0504,0.0495 -0.0878,0.0849 -0.0374,0.0344 -0.0725,0.0675 -0.10418,0.1 -0.064,0.0696 -0.11503,0.13436 -0.15239,0.1962 -0.0376,0.0619 -0.0828,0.15167 -0.13676,0.26891 -0.0107,0.0272 -0.0257,0.0574 -0.0438,0.0928 -0.0186,0.0344 -0.0366,0.0626 -0.0525,0.0841 -0.0856,0.12792 -0.14375,0.22069 -0.17614,0.27682 -0.0324,0.056 -0.0698,0.12443 -0.11209,0.20412 -0.0217,0.0433 -0.0447,0.0898 -0.069,0.14099 -0.0237,0.0503 -0.044,0.0891 -0.0598,0.11578 -0.0107,0.0215 -0.0201,0.0416 -0.028,0.0604 -0.008,0.0186 -0.0151,0.028 -0.0201,0.028 -0.006,0 -0.0188,-0.006 -0.0403,-0.0193 -0.0215,-0.0138 -0.0482,-0.0316 -0.0806,-0.0525 -0.0265,-0.0166 -0.0502,-0.0324 -0.0718,-0.0482 m 0.26099,-2.19434 c -0.0138,-0.0136 -0.023,-0.0287 -0.0281,-0.0445 -0.0166,-0.0425 -0.0351,-0.0749 -0.0567,-0.0965 -0.0215,-0.0215 -0.0561,-0.0502 -0.10436,-0.0883 -0.0316,-0.0208 -0.069,-0.0512 -0.11209,-0.0878 -0.0423,-0.0374 -0.0799,-0.0747 -0.11209,-0.11283 -0.0324,-0.0316 -0.067,-0.0655 -0.10436,-0.0999 -0.0381,-0.0344 -0.0639,-0.0576 -0.0804,-0.0683 -0.0158,-0.0158 -0.0425,-0.0403 -0.0799,-0.0727 -0.0381,-0.0315 -0.0725,-0.0639 -0.10418,-0.0955 -0.0324,-0.0324 -0.0683,-0.0648 -0.10859,-0.0964 -0.0403,-0.0322 -0.0712,-0.0539 -0.092,-0.0646 -0.0381,-0.0215 -0.0633,-0.0425 -0.0762,-0.0641 -0.0136,-0.0215 -0.0208,-0.0532 -0.0208,-0.0955 0,-0.0217 0.007,-0.0526 0.0208,-0.0928 0.0129,-0.0403 0.028,-0.0683 0.0438,-0.0848 0.0109,-0.0158 0.0576,-0.009 0.14099,0.0208 0.0819,0.0295 0.15589,0.0626 0.21994,0.1 0.0215,0.0166 0.0532,0.0351 0.0963,0.0569 0.0433,0.0208 0.0777,0.0394 0.10436,0.0559 0.0265,0.0151 0.0683,0.0411 0.12442,0.0762 0.056,0.0346 0.10841,0.0648 0.15664,0.092 0.13877,0.0856 0.22583,0.14173 0.26025,0.16823 0.0353,0.0267 0.0604,0.067 0.0762,0.12093 0.0109,0.0215 0.0215,0.0438 0.0324,0.0676 0.0109,0.0245 0.0188,0.0445 0.0245,0.0604 0.0107,0.0109 0.0186,0.0309 0.0237,0.0604 0.005,0.0294 0.0107,0.0626 0.0158,0.0999 0,0.0589 0.009,0.10859 0.0245,0.1489 0.0158,0.0396 0.0374,0.0762 0.0639,0.10786 l 0.0324,0.0401 -0.0648,0.0237 c -0.0473,0.0215 -0.0933,0.0324 -0.13583,0.0324 -0.0431,0 -0.0856,-0.0109 -0.12866,-0.0324 -0.0208,-0.01 -0.0388,-0.0223 -0.0517,-0.0352"
       style="fill:#21201d;fill-opacity:1;fill-rule:nonzero;stroke:none;stroke-width:0.184057"
       id="path540" />
  </g>
</svg>
