<?xml version="1.0" encoding="UTF-8" standalone="no"?>
<!-- Created with Inkscape (http://www.inkscape.org/) -->

<svg
   width="7.3861494mm"
   height="3.8141832mm"
   viewBox="0 0 7.3861494 3.8141832"
   version="1.1"
   id="svg2347"
   inkscape:version="1.1.2 (0a00cf5339, 2022-02-04)"
   sodipodi:docname="m1.svg"
   xmlns:inkscape="http://www.inkscape.org/namespaces/inkscape"
   xmlns:sodipodi="http://sodipodi.sourceforge.net/DTD/sodipodi-0.dtd"
   xmlns="http://www.w3.org/2000/svg"
   xmlns:svg="http://www.w3.org/2000/svg">
  <sodipodi:namedview
     id="namedview2349"
     pagecolor="#ffffff"
     bordercolor="#666666"
     borderopacity="1.0"
     inkscape:pageshadow="2"
     inkscape:pageopacity="0.0"
     inkscape:pagecheckerboard="0"
     inkscape:document-units="mm"
     showgrid="false"
     inkscape:zoom="0.64052329"
     inkscape:cx="245.11209"
     inkscape:cy="364.54568"
     inkscape:window-width="2560"
     inkscape:window-height="1376"
     inkscape:window-x="0"
     inkscape:window-y="0"
     inkscape:window-maximized="1"
     inkscape:current-layer="layer1" />
  <defs
     id="defs2344" />
  <g
     inkscape:label="Layer 1"
     inkscape:groupmode="layer"
     id="layer1"
     transform="translate(-40.092516,-35.682651)">
    <path
       d="m 44.70924,36.877515 c -0.01288,-0.04675 -0.04086,-0.102704 -0.08614,-0.167492 -0.03957,-0.05466 -0.06902,-0.09276 -0.08927,-0.115035 -0.01933,-0.02301 -0.05246,-0.0438 -0.097,-0.06332 -0.03884,-0.02577 -0.07049,-0.0416 -0.09276,-0.04877 -0.02301,-0.0072 -0.05614,-0.01159 -0.100679,-0.01159 -0.03442,0 -0.06111,0.0029 -0.07841,0.0079 -0.01712,0.0044 -0.03092,0.01233 -0.04086,0.02227 -0.02963,0.03018 -0.03239,0.05835 -0.0072,0.08559 0.0243,0.02742 0.06681,0.04104 0.126447,0.04104 0.0346,0 0.07473,0.01509 0.118716,0.04454 0.04528,0.02945 0.08761,0.0727 0.127183,0.126631 0.01509,0.02503 0.03018,0.0473 0.04454,0.06755 0.01509,0.01933 0.02227,0.03221 0.02227,0.03663 0,0.005 0.0029,0.01362 0.0072,0.0265 0.0052,0.01233 0.01012,0.02595 0.01509,0.04104 0.01012,0.01951 0.02025,0.03313 0.02963,0.04104 0.0099,0.0072 0.02301,0.01067 0.0381,0.01067 0.01436,0 0.0265,-0.002 0.03663,-0.0072 0.0099,-0.005 0.0173,-0.01215 0.02227,-0.02227 0.01509,-0.02945 0.01656,-0.06828 0.0042,-0.115771 m -0.291177,0.208535 c 0.01804,-0.03166 0.02669,-0.06829 0.02669,-0.107857 0,-0.08908 -0.04031,-0.155343 -0.119452,-0.197676 -0.0797,-0.04178 -0.153871,-0.03516 -0.223444,0.01877 -0.05466,0.04454 -0.08062,0.113562 -0.07841,0.204854 0.0028,0.09203 0.03368,0.153135 0.0935,0.18332 0.02945,0.0094 0.06681,0.01288 0.111354,0.01067 0.04454,-0.0028 0.0819,-0.01362 0.112091,-0.03368 0.0346,-0.02025 0.06055,-0.04601 0.07767,-0.07841 m 0.07123,0.271851 c 0.06479,-0.02963 0.106385,-0.05687 0.126631,-0.08209 0.01509,-0.01436 0.02356,-0.03295 0.02577,-0.05522 0.0029,-0.02246 -0.0035,-0.04104 -0.01859,-0.05614 -0.01012,-0.01509 -0.02816,-0.0208 -0.0554,-0.01877 -0.02816,0.0029 -0.05614,0.0138 -0.08632,0.03387 -0.04454,0.03019 -0.106385,0.05963 -0.185529,0.08908 -0.0797,0.03019 -0.139515,0.04528 -0.178903,0.04528 -0.02522,0 -0.04399,0.0022 -0.05614,0.0072 -0.01233,0.0052 -0.02374,0.01233 -0.03387,0.02246 -0.03442,0.04951 -0.0208,0.08467 0.04104,0.104176 0.06258,0.02006 0.140988,0.01509 0.23504,-0.01509 0.05908,-0.01951 0.121477,-0.04454 0.186265,-0.07473 m -0.592477,-0.170436 c 0.0022,-0.02522 -0.0035,-0.04325 -0.01859,-0.05246 -0.01436,-0.01012 -0.0173,-0.05393 -0.0072,-0.130864 0.0099,-0.07693 0.02724,-0.137306 0.05172,-0.182583 0.02006,-0.05393 0.03092,-0.09497 0.03368,-0.12295 0.0022,-0.02669 -0.0064,-0.04528 -0.0265,-0.0554 -0.02448,-0.01509 -0.04675,-0.01804 -0.06608,-0.0079 -0.02025,0.01012 -0.04031,0.03239 -0.06055,0.06681 -0.03442,0.0554 -0.05669,0.09994 -0.06681,0.134545 -0.01012,0.03515 -0.01509,0.097 -0.01509,0.186081 -0.005,0.08485 -0.0057,0.136754 -0.0035,0.156816 0.0028,0.02006 0.01141,0.03736 0.02577,0.05172 0.02025,0.02025 0.04031,0.03166 0.05963,0.03387 0.02025,0.0028 0.04031,-0.0064 0.06055,-0.02595 0.01933,-0.01012 0.03019,-0.02724 0.03295,-0.05172 m -0.715242,2.212171 c -0.191418,-0.04951 -0.311423,-0.08687 -0.36167,-0.111354 l -0.03663,-0.02227 0.06681,-0.02301 c 0.07896,-0.01951 0.234303,-0.07049 0.46511,-0.152398 0.231542,-0.08209 0.419096,-0.152399 0.563028,-0.212217 0.08908,-0.03442 0.166018,-0.06608 0.230806,-0.09332 0.0646,-0.02742 0.141539,-0.0554 0.231359,-0.08559 0.104359,-0.03957 0.322834,-0.145221 0.655792,-0.316393 0.332221,-0.171908 0.538548,-0.284735 0.618244,-0.3394 0.0346,-0.03019 0.05835,-0.04454 0.07049,-0.04454 0.01288,0 0.02669,0.01215 0.04178,0.03663 0.0092,0.03018 0.01436,0.05117 0.01436,0.06405 0,0.01215 -0.01012,0.0381 -0.02945,0.07767 -0.01012,0.01509 -0.01804,0.03018 -0.02301,0.04528 -0.0052,0.01436 -0.0072,0.02448 -0.0072,0.03019 0,0.0042 -0.0066,0.01656 -0.01804,0.03663 -0.01362,0.02025 -0.02669,0.04252 -0.04178,0.06681 -0.01933,0.02522 -0.03515,0.04749 -0.04454,0.06773 -0.01012,0.01933 -0.01509,0.03442 -0.01509,0.04381 0,0.005 -0.0035,0.01141 -0.01067,0.01933 l -0.01877,0.01877 c -0.01012,0.005 -0.02153,0.01509 -0.03387,0.02945 -0.01215,0.01509 -0.02374,0.02945 -0.03368,0.04454 -0.01012,0.01509 -0.02448,0.03608 -0.04454,0.06332 -0.01951,0.02724 -0.03957,0.05319 -0.05982,0.07841 -0.01933,0.02522 -0.0381,0.04951 -0.05522,0.07473 -0.01804,0.02448 -0.0289,0.04252 -0.03387,0.05246 -0.01509,0.02945 -0.04951,0.07123 -0.104176,0.126631 -0.05466,0.05393 -0.09921,0.09405 -0.134545,0.118532 -0.01436,0.01012 -0.03589,0.02669 -0.06332,0.04896 -0.02724,0.02227 -0.04804,0.04104 -0.06313,0.0554 -0.07491,0.06976 -0.181295,0.129391 -0.320073,0.178902 -0.139331,0.0497 -0.288232,0.08209 -0.447073,0.09718 -0.109329,0.0099 -0.214977,0.01583 -0.317129,0.01859 -0.101414,0.0022 -0.167491,0.0037 -0.19694,0.0037 -0.104359,-0.01509 -0.252341,-0.04749 -0.443575,-0.09718 m -0.920281,-0.771379 c -0.0052,-0.0022 -0.01233,-0.0029 -0.02246,-0.0029 -0.01436,0 -0.03368,-0.01288 -0.05522,-0.03736 -0.02301,-0.02503 -0.03387,-0.04528 -0.03387,-0.05963 0,-0.01012 -0.0018,-0.0173 -0.0042,-0.02227 -0.0022,-0.005 -0.0059,-0.0079 -0.01086,-0.0079 -0.005,0 -0.01141,-0.01362 -0.01877,-0.04104 -0.0072,-0.02724 -0.01564,-0.06111 -0.02577,-0.100679 -0.01012,-0.03939 -0.02025,-0.07399 -0.03019,-0.10344 -0.01012,-0.03019 -0.0173,-0.04528 -0.02227,-0.04528 -0.0052,0 -0.0072,-0.0015 -0.0072,-0.0037 v -0.01859 c 0.005,-0.0052 0.0064,-0.0094 0.0035,-0.01436 -0.0022,-0.0052 -0.0057,-0.01012 -0.01067,-0.01509 -0.0052,0 -0.0094,-0.0066 -0.0116,-0.01877 -0.0029,-0.01288 -0.0035,-0.02871 -0.0035,-0.04896 0,-0.01436 -0.0018,-0.03589 -0.0044,-0.06313 -0.0022,-0.02743 -0.0087,-0.05319 -0.01804,-0.07767 -0.005,-0.02522 -0.0099,-0.05687 -0.01509,-0.0935 -0.005,-0.03736 -0.0099,-0.06828 -0.01509,-0.0935 -0.005,-0.02945 -0.0085,-0.05466 -0.01067,-0.07399 -0.0029,-0.02025 -0.0064,-0.03019 -0.0116,-0.03019 -0.0099,-0.0052 -0.01436,-0.07693 -0.01436,-0.215714 0,-0.139514 0.0044,-0.21645 0.01436,-0.230806 0.0052,-0.01012 0.01233,-0.03387 0.02227,-0.07123 0.01012,-0.03736 0.02025,-0.07841 0.03018,-0.122949 0.0094,-0.04454 0.01951,-0.08485 0.02963,-0.119269 0.0099,-0.0346 0.01712,-0.05246 0.02227,-0.05246 0.005,-0.0052 0.01141,-0.0173 0.01859,-0.03681 0.0079,-0.02006 0.01583,-0.04233 0.02595,-0.06681 0.01012,-0.03019 0.02153,-0.0554 0.03368,-0.07473 0.01233,-0.02006 0.01877,-0.03239 0.01877,-0.03736 0.005,0 0.01215,-0.0072 0.02227,-0.02227 0.01012,-0.01509 0.02025,-0.03019 0.03019,-0.04454 0.0044,-0.01528 0.01583,-0.03387 0.03313,-0.05614 0.0173,-0.02227 0.03092,-0.04325 0.04104,-0.06332 0.01509,-0.01509 0.02724,-0.02871 0.03736,-0.04104 0.0099,-0.01215 0.01509,-0.02153 0.01509,-0.0265 0,-0.0044 0.03221,-0.04104 0.09626,-0.107857 0.06479,-0.06681 0.102151,-0.100679 0.112274,-0.100679 0.05448,-0.03957 0.097,-0.07399 0.126446,-0.103439 0.03516,-0.03019 0.06681,-0.05466 0.097,-0.07491 0.02963,-0.02006 0.04749,-0.03019 0.0519,-0.03019 0.0099,0 0.02006,-0.0035 0.03019,-0.01067 0.0092,-0.0072 0.01933,-0.01657 0.02945,-0.02669 0.01012,-0.0094 0.02301,-0.01933 0.03736,-0.02945 0.01509,-0.01012 0.02724,-0.01509 0.03736,-0.01509 0.01436,-0.005 0.02945,-0.01086 0.04454,-0.01877 0.01509,-0.0072 0.02522,-0.01288 0.03019,-0.01785 0.01436,-0.01509 0.06184,-0.03534 0.140987,-0.05964 0.07988,-0.02521 0.1316,-0.03755 0.156816,-0.03755 0.0099,0 0.01785,-0.0013 0.02227,-0.0035 0.005,-0.0029 0.0079,-0.0064 0.0079,-0.0116 0,-0.02006 0.118532,-0.03295 0.357253,-0.04086 0.237984,-0.0072 0.390383,-0.0015 0.454434,0.01859 0.02006,0.0052 0.03589,0.01012 0.04804,0.01436 0.01307,0.0052 0.02172,0.0079 0.02669,0.0079 0,0.0052 0.0087,0.0116 0.02595,0.01877 0.01712,0.0072 0.03884,0.01362 0.06313,0.01859 0.02522,0.01012 0.0519,0.02246 0.08209,0.03755 0.03019,0.01436 0.05466,0.02945 0.07473,0.04381 0.02448,0.01012 0.04749,0.02153 0.06681,0.03387 0.02025,0.01288 0.0346,0.02154 0.04454,0.0265 0.01012,0 0.01877,0.0037 0.02669,0.0116 l 0.01804,0.01785 c 0,0.0052 0.0028,0.01012 0.0079,0.01509 0.005,0.0052 0.0099,0.0072 0.01509,0.0072 0.005,0 0.01859,0.0064 0.04012,0.01877 0.02301,0.01288 0.04675,0.02871 0.07123,0.04877 0.02448,0.01951 0.04896,0.03607 0.07049,0.04822 0.02227,0.01233 0.03663,0.01877 0.0416,0.01877 0.0044,0 0.01233,0.005 0.02172,0.01509 0,0.005 0.0018,0.0087 0.0042,0.01068 0.0022,0.0022 0.0057,0.0015 0.01086,-0.0035 h 0.01141 c 0.0022,0 0.0037,0.0028 0.0037,0.0072 0,0.005 0.0018,0.0086 0.0035,0.01141 0.0029,0.0029 0.0087,0.0037 0.01877,0.0037 0.01509,0 0.07104,0.05246 0.167491,0.15608 0.097,0.104912 0.153135,0.171724 0.168227,0.201173 0.005,0.01509 0.01215,0.03019 0.02154,0.04528 0.01012,0.01509 0.01804,0.02448 0.02301,0.02963 0.0044,0.005 0.0094,0.01141 0.01436,0.01859 0.0052,0.0079 0.0072,0.01362 0.0072,0.01877 0,0.005 0.0029,0.01141 0.0079,0.01859 0.0052,0.0072 0.01233,0.01583 0.02227,0.02595 0.0052,0.005 0.01159,0.01509 0.01877,0.03019 0.0072,0.01436 0.01362,0.02945 0.01877,0.04454 0.005,0.01509 0.01564,0.03589 0.03295,0.06332 0.01804,0.02724 0.04675,0.05816 0.08632,0.0935 0.05393,0.05393 0.08706,0.08982 0.097,0.107121 0.0094,0.01785 0.01436,0.0438 0.01436,0.07841 0,0.03018 -0.002,0.05246 -0.0072,0.06755 -0.005,0.01436 -0.01712,0.03239 -0.03736,0.05246 -0.01509,0.01436 -0.02798,0.0265 -0.04086,0.03663 -0.01233,0.01012 -0.02098,0.01509 -0.02595,0.01509 -0.005,0 -0.01362,0.0037 -0.02669,0.01159 -0.01215,0.0072 -0.02577,0.01583 -0.04086,0.02503 -0.01436,0.01509 -0.03663,0.03313 -0.06681,0.05246 -0.02963,0.02025 -0.05687,0.03957 -0.08209,0.05982 -0.02945,0.02006 -0.05466,0.03736 -0.07473,0.05246 -0.01933,0.01436 -0.03166,0.02724 -0.03663,0.03663 -0.0052,0.005 -0.01012,0.0094 -0.01509,0.01159 -0.0052,0.0028 -0.01233,0.0035 -0.02227,0.0035 -0.01012,0 -0.03736,0.01509 -0.08209,0.04528 -0.04528,0.02945 -0.07473,0.05393 -0.08908,0.07417 -0.005,0.005 -0.01288,0.0099 -0.02227,0.01509 -0.01012,0.005 -0.01804,0.0072 -0.02227,0.0072 -0.01012,0 -0.02025,0.0028 -0.03019,0.0079 -0.01012,0.005 -0.0173,0.01215 -0.02227,0.02227 l -0.01877,0.01859 c -0.0072,0.0072 -0.01583,0.01086 -0.02595,0.01086 -0.005,0 -0.01288,0.0022 -0.02301,0.0072 -0.0099,0.005 -0.01712,0.01012 -0.02227,0.01509 -0.0042,0.005 -0.01288,0.01141 -0.02577,0.01877 -0.01233,0.0072 -0.02595,0.01067 -0.04104,0.01067 -0.01436,0.005 -0.03239,0.01288 -0.05246,0.02301 0,0.005 -0.0022,0.0087 -0.0072,0.01086 -0.0052,0.0028 -0.01012,0.0035 -0.01436,0.0035 -0.01012,0 -0.05761,0.01951 -0.141724,0.05614 -0.08485,0.03736 -0.151662,0.07049 -0.201357,0.100679 -0.01509,0.005 -0.03442,0.01362 -0.05963,0.02577 -0.02522,0.01307 -0.04454,0.02374 -0.05963,0.03387 -0.02006,0.005 -0.04105,0.01362 -0.06332,0.02595 -0.02227,0.01288 -0.04086,0.0208 -0.0554,0.02577 -0.0099,0.01012 -0.0265,0.02025 -0.04877,0.03018 -0.02227,0.01012 -0.04104,0.0173 -0.05614,0.02227 -0.01509,0.01012 -0.03092,0.01877 -0.04822,0.02595 -0.01712,0.0079 -0.02871,0.01362 -0.03368,0.01877 -0.01012,0.005 -0.02871,0.01141 -0.05614,0.01859 -0.02724,0.0072 -0.05816,0.01583 -0.09276,0.02595 -0.03018,0.0099 -0.06258,0.02006 -0.097,0.03018 -0.0346,0.0094 -0.05687,0.01933 -0.06681,0.03019 -0.04473,0.01933 -0.09792,0.0381 -0.160313,0.0554 -0.06184,0.01785 -0.107857,0.02577 -0.138042,0.02577 -0.01528,0 -0.02963,0.0015 -0.04473,0.0037 -0.01436,0.0028 -0.02227,0.0064 -0.02227,0.01141 -0.005,0 -0.0173,0.0037 -0.03663,0.0116 -0.02006,0.0072 -0.04528,0.01362 -0.07473,0.01804 -0.03019,0.005 -0.05835,0.01141 -0.08559,0.01859 -0.02798,0.0072 -0.04896,0.01656 -0.06405,0.02669 -0.0099,0.005 -0.02724,0.01215 -0.05172,0.02227 -0.005,0 -0.0087,0.0015 -0.01159,0.0035 -0.002,0.0022 -0.0064,0.0037 -0.01068,0.0037 -0.005,0.005 -0.02374,0.01141 -0.05614,0.01859 -0.03239,0.0072 -0.06828,0.0138 -0.108593,0.01877 -0.03884,0.01012 -0.07399,0.02006 -0.10344,0.03018 -0.03018,0.0094 -0.04749,0.0173 -0.05246,0.02154 -0.0052,0.0052 -0.01159,0.0087 -0.01877,0.01159 -0.0072,0.002 -0.01362,0.0035 -0.01859,0.0035 -0.01012,0 -0.02522,0.0052 -0.04473,0.01509 -0.01933,0.01012 -0.0416,0.02227 -0.06681,0.03736 -0.04454,0.02025 -0.08117,0.03239 -0.107857,0.03736 -0.02724,0.0044 -0.0416,0.0022 -0.0416,-0.0077 0,-0.0052 -0.0022,-0.0086 -0.0072,-0.01159 m -1.937007,0.81316 c -0.04031,-0.01288 -0.06184,-0.02154 -0.06681,-0.02669 0,-0.005 -0.005,-0.01141 -0.01509,-0.01859 -0.01012,-0.0079 -0.02227,-0.01583 -0.03736,-0.02595 -0.01509,-0.0099 -0.0289,-0.02374 -0.04105,-0.04086 -0.01288,-0.0173 -0.0208,-0.03884 -0.02595,-0.06332 -0.005,-0.02521 -0.01141,-0.04528 -0.01859,-0.05963 -0.0079,-0.01509 -0.01436,-0.02227 -0.01951,-0.02227 -0.0042,-0.02448 -0.0072,-0.04472 -0.0072,-0.05982 0,-0.01509 0.0029,-0.03516 0.0072,-0.05963 0.0052,0 0.01159,-0.0072 0.01951,-0.02227 0.0072,-0.01509 0.01362,-0.03516 0.01859,-0.05963 0.01012,-0.04454 0.02246,-0.08209 0.03681,-0.112274 0.01509,-0.02945 0.03019,-0.05172 0.04528,-0.06681 0.0042,-0.005 0.0092,-0.01012 0.01436,-0.01509 0.005,-0.005 0.0079,-0.01012 0.0079,-0.01436 0,-0.01012 0.02301,-0.04454 0.07049,-0.104912 0.0473,-0.05908 0.07822,-0.09129 0.09332,-0.09644 0.0044,-0.005 0.0094,-0.01141 0.01454,-0.01859 0.005,-0.0079 0.0079,-0.0138 0.0079,-0.01877 0,-0.01436 0.07031,-0.09276 0.212033,-0.234303 0.141539,-0.141723 0.219947,-0.212953 0.234303,-0.212953 0.0052,0 0.01307,-0.0035 0.02301,-0.01067 0.01012,-0.0079 0.0173,-0.01656 0.02227,-0.02669 0.0052,-0.0099 0.01233,-0.01859 0.02246,-0.02577 0.0099,-0.0072 0.01712,-0.0116 0.02227,-0.0116 0.005,0 0.01638,-0.0072 0.03368,-0.02153 0.0173,-0.01509 0.0381,-0.0346 0.06331,-0.05963 0.01933,-0.02025 0.04105,-0.04031 0.06332,-0.05963 0.02153,-0.02025 0.04086,-0.03239 0.05522,-0.03755 0.01012,-0.005 0.02816,-0.01638 0.05264,-0.03295 0.02503,-0.01804 0.04951,-0.03663 0.07399,-0.05687 0.129392,-0.103439 0.21645,-0.166754 0.260992,-0.189762 0.04454,-0.02227 0.097,-0.03092 0.156816,-0.02595 0.04012,0 0.06681,0.0037 0.08191,0.01159 0.01509,0.0072 0.03239,0.0208 0.05172,0.04031 0.02522,0.02503 0.04031,0.04528 0.04528,0.06037 0.0052,0.01436 0.0072,0.03939 0.0072,0.07399 0,0.03442 -0.002,0.05964 -0.0072,0.07473 -0.005,0.01436 -0.0173,0.03239 -0.03736,0.05172 -0.01012,0.01528 -0.02595,0.02742 -0.04822,0.03755 -0.02301,0.0099 -0.0416,0.01712 -0.05595,0.02227 -0.02025,0.005 -0.03736,0.01141 -0.05264,0.01859 -0.01436,0.0079 -0.0243,0.01362 -0.02945,0.01877 0,0.005 -0.0072,0.01288 -0.02227,0.02227 -0.01509,0.01012 -0.03019,0.02006 -0.04528,0.03019 -0.01436,0.0094 -0.03442,0.02595 -0.0589,0.04822 -0.02522,0.02227 -0.04528,0.04601 -0.05963,0.07031 -0.06976,0.09 -0.114483,0.148165 -0.134545,0.175589 -0.02006,0.02724 -0.03957,0.05816 -0.05963,0.09276 -0.04454,0.08908 -0.07197,0.147981 -0.08117,0.175405 -0.01012,0.02724 -0.01307,0.06313 -0.0079,0.107857 0.005,0.05963 0.01564,0.107121 0.03295,0.141539 0.01804,0.03534 0.0438,0.05964 0.07841,0.07473 0.04031,0.01436 0.149453,0.02227 0.327804,0.02227 0.179086,0 0.300563,-0.0079 0.365351,-0.02227 0.02006,-0.0099 0.04454,-0.01712 0.07473,-0.02227 0.03018,-0.005 0.05669,-0.0099 0.0819,-0.01509 0.01951,0 0.03957,-0.002 0.05963,-0.0072 0.01951,-0.005 0.03239,-0.0099 0.03681,-0.01509 0.005,-0.005 0.02154,-0.01141 0.04877,-0.01859 0.02743,-0.0072 0.05614,-0.01656 0.08559,-0.02595 0.03516,-0.01012 0.06608,-0.01877 0.0935,-0.02669 0.02724,-0.0072 0.04601,-0.01288 0.05614,-0.01785 0.0092,-0.0052 0.03019,-0.01307 0.06313,-0.02301 0.03166,-0.01012 0.06552,-0.0173 0.09994,-0.02154 0.04031,-0.01086 0.07491,-0.02025 0.10436,-0.03019 0.03018,-0.01012 0.04749,-0.01509 0.05246,-0.01509 0.005,-0.0052 0.0208,-0.01159 0.04822,-0.01877 0.02798,-0.0072 0.0589,-0.01583 0.09332,-0.02595 0.0346,-0.005 0.07049,-0.01215 0.107857,-0.02227 0.03736,-0.0099 0.06552,-0.02006 0.08559,-0.03019 0.01509,-0.0042 0.04252,-0.01362 0.08209,-0.02577 0.04012,-0.01233 0.07675,-0.02374 0.111354,-0.03387 0.04031,-0.01012 0.07914,-0.01951 0.115771,-0.02945 0.03736,-0.01012 0.06111,-0.0173 0.07123,-0.02227 0.01509,-0.0052 0.02871,-0.01012 0.04086,-0.01509 0.01233,-0.0044 0.02098,-0.0072 0.02595,-0.0072 0.005,0 0.01583,-0.0044 0.03368,-0.0116 0.0173,-0.0072 0.03607,-0.01583 0.0554,-0.02595 0.02025,-0.005 0.03883,-0.01067 0.05614,-0.01859 0.0173,-0.0072 0.02871,-0.0116 0.03387,-0.0116 0.01509,-0.0042 0.02724,-0.0092 0.03736,-0.01436 0.005,0 0.01933,-0.0042 0.04454,-0.01067 0.02448,-0.0079 0.05172,-0.0138 0.0819,-0.01877 0.02945,-0.01012 0.05687,-0.01933 0.0819,-0.0265 0.02522,-0.0072 0.03755,-0.0138 0.03755,-0.01804 0.005,-0.01086 0.01583,-0.01877 0.03368,-0.02669 0.0173,-0.0072 0.03534,-0.01362 0.0554,-0.01859 0.01509,-0.0052 0.03589,-0.01159 0.06331,-0.01877 0.02724,-0.0072 0.04877,-0.01583 0.06313,-0.02577 0.01528,-0.0052 0.0346,-0.01233 0.05982,-0.02227 0.02503,-0.01012 0.04454,-0.01804 0.05964,-0.02246 0.01509,-0.005 0.03092,-0.01067 0.04822,-0.01859 0.01712,-0.0079 0.03166,-0.01583 0.0416,-0.02595 0.0094,-0.005 0.02595,-0.01436 0.04822,-0.0265 0.02227,-0.01233 0.04307,-0.02595 0.06331,-0.04104 0.07473,-0.03442 0.140067,-0.06902 0.19694,-0.104176 0.05743,-0.0346 0.108593,-0.06902 0.153135,-0.10436 0.02448,-0.02006 0.05172,-0.03957 0.0819,-0.05963 0.02945,-0.01933 0.0519,-0.03239 0.067,-0.03736 0.02006,-0.01012 0.04233,-0.02448 0.06681,-0.04454 0.02521,-0.01951 0.04749,-0.03663 0.06755,-0.0519 0.01951,-0.01509 0.04104,-0.03018 0.06332,-0.04528 0.02227,-0.01436 0.0381,-0.0243 0.04822,-0.02945 0.0099,0 0.0208,-0.005 0.03368,-0.01509 0.01233,-0.0099 0.02301,-0.0173 0.03313,-0.02227 0.005,-0.01012 0.01656,-0.0208 0.03368,-0.03313 0.0173,-0.01288 0.03387,-0.02356 0.04822,-0.03368 0.01012,-0.0052 0.02521,-0.01509 0.04454,-0.02945 0.02025,-0.01509 0.0381,-0.02816 0.05246,-0.0381 0.01012,-0.0094 0.0289,-0.02595 0.05614,-0.04822 0.02742,-0.02227 0.05319,-0.04307 0.07841,-0.06331 0.02448,-0.01509 0.05964,-0.03957 0.104176,-0.07399 0.04473,-0.03534 0.08411,-0.06755 0.119453,-0.097 0.03442,-0.03037 0.07049,-0.05835 0.107857,-0.08632 0.03736,-0.02669 0.06313,-0.04528 0.07841,-0.0554 0.02945,-0.01509 0.06166,-0.03957 0.097,-0.07473 0.03442,-0.0346 0.05172,-0.05963 0.05172,-0.07417 0,-0.005 0.0037,-0.01638 0.01159,-0.03368 0.0072,-0.0173 0.01785,-0.03387 0.03295,-0.04896 0.03534,-0.0438 0.05835,-0.08632 0.07123,-0.126447 0.01215,-0.03957 0.01583,-0.08411 0.01086,-0.133808 -0.0052,-0.03515 -0.01086,-0.05816 -0.01877,-0.07049 -0.0072,-0.01288 -0.02374,-0.02374 -0.04822,-0.03368 -0.0099,-0.01012 -0.0208,-0.0173 -0.03368,-0.02227 -0.01233,-0.0052 -0.02098,-0.0079 -0.02595,-0.0079 0,0.005 -0.005,0.005 -0.01509,0 -0.01012,-0.0044 -0.01933,-0.0094 -0.02945,-0.01509 -0.02521,-0.01454 -0.138042,-0.01951 -0.339399,-0.01454 -0.201358,0.0044 -0.309215,0.01454 -0.323571,0.02963 -0.005,0.005 -0.01288,0.0079 -0.02301,0.0079 0,-0.0052 -0.002,-0.0066 -0.0072,-0.0044 -0.005,0.0029 -0.0099,0.0064 -0.01509,0.01159 -0.0099,0.0099 -0.02945,0.01509 -0.05963,0.01509 -0.02945,0 -0.04454,-0.0052 -0.04454,-0.01509 0,-0.0052 0,-0.0086 -0.0037,-0.01159 -0.002,-0.0022 -0.0064,-7.36e-4 -0.01141,0.0044 -0.01012,0 -0.01951,-0.0029 -0.02945,-0.0079 -0.01012,-0.0044 -0.01951,-0.01233 -0.02945,-0.02172 -0.01012,-0.01068 -0.02025,-0.01933 -0.03037,-0.0265 -0.0099,-0.0072 -0.01712,-0.0116 -0.02227,-0.0116 -0.0099,0 -0.02871,-0.01436 -0.05595,-0.04454 -0.02742,-0.02945 -0.04325,-0.05466 -0.04822,-0.07399 -0.01509,-0.03019 -0.0173,-0.06332 -0.0079,-0.100678 0.01012,-0.03736 0.03019,-0.07123 0.05963,-0.100679 0.01509,-0.01012 0.03534,-0.02006 0.05963,-0.02945 0.02522,-0.01012 0.05761,-0.01804 0.09718,-0.02301 0.03515,-0.01012 0.06828,-0.01877 0.100678,-0.02595 0.03221,-0.0072 0.05319,-0.01362 0.06313,-0.01859 0.01509,-0.01012 0.04969,-0.02025 0.105096,-0.02945 0.05393,-0.01012 0.113562,-0.02025 0.178166,-0.02963 0.06479,-0.0099 0.121661,-0.02006 0.171172,-0.03018 0.0497,-0.0099 0.07694,-0.01785 0.08191,-0.02301 0,-0.0042 0.04601,-0.0085 0.138042,-0.0099 0.09203,-0.0037 0.217187,-0.0072 0.376027,-0.0116 h 0.506891 l 0.09718,0.03663 c 0.0646,0.03018 0.104176,0.05043 0.119269,0.05982 0.01436,0.0099 0.02945,0.03221 0.0438,0.06681 0.02025,0.03019 0.03313,0.07988 0.0381,0.149454 0.0044,0.06902 0,0.109329 -0.01509,0.119452 0,0.005 -0.0035,0.01436 -0.01141,0.02945 -0.0072,0.01509 -0.01362,0.03018 -0.01877,0.04454 -0.005,0.01509 -0.01436,0.03534 -0.02945,0.05963 -0.01509,0.02448 -0.02945,0.04969 -0.04454,0.07491 -0.02006,0.01933 -0.03515,0.03884 -0.04528,0.05595 -0.0094,0.0173 -0.01436,0.02816 -0.01436,0.03313 l -0.02945,0.03019 c -0.01012,0.005 -0.02025,0.01436 -0.03019,0.02945 -0.01012,0.01509 -0.02025,0.03018 -0.03037,0.04528 -0.0092,0.02963 -0.04657,0.07767 -0.111354,0.14522 -0.06479,0.067 -0.141724,0.134545 -0.230807,0.205039 -0.02945,0.02448 -0.05816,0.04877 -0.08559,0.07399 -0.02724,0.02522 -0.0438,0.03957 -0.04877,0.04454 -0.0052,0.0052 -0.01951,0.01656 -0.04472,0.03387 -0.02503,0.0173 -0.04951,0.03589 -0.07399,0.05614 -0.02522,0.0243 -0.05393,0.04804 -0.08632,0.07031 -0.03221,0.02227 -0.05816,0.04104 -0.07822,0.05614 -0.01454,0.01436 -0.03092,0.02724 -0.04822,0.03736 -0.0173,0.0094 -0.02871,0.01436 -0.03387,0.01436 -0.005,0 -0.0087,0.0015 -0.01067,0.0044 -0.0022,0.002 -0.0037,0.0057 -0.0037,0.01068 0,0.0052 -0.0079,0.01233 -0.02301,0.02227 -0.01436,0.01012 -0.02945,0.02227 -0.0438,0.03755 -0.02025,0.0099 -0.0438,0.0243 -0.07123,0.04454 -0.02724,0.02006 -0.04822,0.03736 -0.06332,0.05246 -0.0646,0.05393 -0.120741,0.100679 -0.167491,0.138043 -0.04749,0.03663 -0.07325,0.0554 -0.07841,0.0554 -0.005,0 -0.01362,0.0035 -0.0265,0.01068 -0.0116,0.0079 -0.02301,0.01951 -0.03313,0.03387 -0.01509,0.01012 -0.02871,0.02006 -0.04086,0.02945 -0.01233,0.01086 -0.02172,0.01583 -0.02595,0.01583 -0.01012,0 -0.03239,0.01012 -0.06681,0.02945 -0.03534,0.02006 -0.07491,0.04178 -0.120189,0.06681 -0.18332,0.119453 -0.422777,0.25455 -0.718187,0.406212 -0.29541,0.151846 -0.515541,0.25455 -0.659289,0.309214 -0.06037,0.02448 -0.129391,0.05319 -0.209272,0.08559 -0.0797,0.03239 -0.143748,0.05816 -0.193443,0.07841 -0.109145,0.04454 -0.271667,0.105648 -0.488117,0.182583 -0.21645,0.07694 -0.343633,0.120005 -0.383941,0.130128 -0.01509,0 -0.02798,0.0029 -0.04104,0.0079 -0.01215,0.0042 -0.0208,0.0094 -0.02577,0.01436 -0.005,0 -0.02227,0.005 -0.05246,0.01509 -0.02945,0.01012 -0.06405,0.02006 -0.10436,0.02945 -0.03957,0.01012 -0.07326,0.01951 -0.09994,0.02669 -0.02798,0.0072 -0.04086,0.01362 -0.04086,0.01859 0,0.0052 -0.0052,0.0087 -0.01509,0.01086 -0.01012,0.0029 -0.02227,0.0064 -0.03736,0.01141 -0.03534,0.0052 -0.07914,0.01583 -0.134545,0.03313 -0.05393,0.01804 -0.08411,0.02871 -0.08908,0.03387 0,0.005 -0.0052,0.0092 -0.01509,0.01141 -0.01012,0.0022 -0.01951,0.0057 -0.02963,0.01086 -0.04012,0.0099 -0.100495,0.02503 -0.182584,0.04528 -0.08191,0.01933 -0.130864,0.03442 -0.14522,0.0438 -0.02006,0.0052 -0.06313,0.01509 -0.130864,0.03019 -0.06681,0.01509 -0.122213,0.02742 -0.167491,0.03736 -0.01933,0 -0.0381,0.0022 -0.0554,0.0072 -0.01785,0.0052 -0.0265,0.01012 -0.0265,0.01509 -0.005,0.0052 -0.01362,0.0086 -0.02595,0.01159 -0.01215,0.0022 -0.02577,0.0035 -0.04086,0.0035 -0.01454,0 -0.03957,0.0022 -0.07491,0.0074 -0.03442,0.005 -0.06902,0.0099 -0.104176,0.01509 -0.05393,0.0092 -0.199885,0.01583 -0.435661,0.01859 -0.23596,0.0022 -0.38118,7.36e-4 -0.435661,-0.0042 -0.03037,-0.0052 -0.06479,-0.01381 -0.10436,-0.02522"
       style="fill:#21201d;fill-opacity:1;fill-rule:nonzero;stroke:none;stroke-width:0.184056"
       id="path608" />
  </g>
</svg>
