<?xml version="1.0" encoding="UTF-8" standalone="no"?>
<!-- Created with Inkscape (http://www.inkscape.org/) -->

<svg
   width="5.9500327mm"
   height="6.3981781mm"
   viewBox="0 0 5.9500327 6.3981781"
   version="1.1"
   id="svg2496"
   inkscape:version="1.1.2 (0a00cf5339, 2022-02-04)"
   sodipodi:docname="m2.svg"
   xmlns:inkscape="http://www.inkscape.org/namespaces/inkscape"
   xmlns:sodipodi="http://sodipodi.sourceforge.net/DTD/sodipodi-0.dtd"
   xmlns="http://www.w3.org/2000/svg"
   xmlns:svg="http://www.w3.org/2000/svg">
  <sodipodi:namedview
     id="namedview2498"
     pagecolor="#ffffff"
     bordercolor="#666666"
     borderopacity="1.0"
     inkscape:pageshadow="2"
     inkscape:pageopacity="0.0"
     inkscape:pagecheckerboard="0"
     inkscape:document-units="mm"
     showgrid="false"
     inkscape:zoom="0.64052329"
     inkscape:cx="-85.867292"
     inkscape:cy="470.70888"
     inkscape:window-width="2560"
     inkscape:window-height="1376"
     inkscape:window-x="0"
     inkscape:window-y="0"
     inkscape:window-maximized="1"
     inkscape:current-layer="layer1" />
  <defs
     id="defs2493" />
  <g
     inkscape:label="Layer 1"
     inkscape:groupmode="layer"
     id="layer1"
     transform="translate(-127.5541,-24.063886)">
    <path
       d="m 132.11417,29.952109 c 0.004,-0.0072 0.006,-0.01288 0.006,-0.01656 0,-0.0092 0.0131,-0.02798 0.0403,-0.05669 0.0267,-0.02871 0.046,-0.04381 0.0596,-0.04381 0.004,0 0.0101,-0.0037 0.0166,-0.01307 0.006,-0.0094 0.0144,-0.02006 0.023,-0.03368 0.005,-0.01307 0.0116,-0.02374 0.021,-0.03313 0.008,-0.0086 0.0151,-0.01288 0.0193,-0.01288 0.004,0 0.009,-0.0022 0.0136,-0.0072 0.004,-0.0044 0.006,-0.0086 0.006,-0.01307 0,-0.0042 0.004,-0.01288 0.0101,-0.02301 0.006,-0.01141 0.0166,-0.02153 0.0294,-0.03018 0.009,-0.01362 0.0374,-0.0438 0.0834,-0.08982 0.0468,-0.04675 0.0972,-0.101415 0.15038,-0.163994 0.0532,-0.05743 0.10215,-0.109882 0.14669,-0.156632 0.0445,-0.04601 0.071,-0.07197 0.0797,-0.0762 0.009,-0.0087 0.0158,-0.01804 0.0203,-0.02669 0.004,-0.0086 0.006,-0.01583 0.006,-0.01932 0,-0.0094 0.002,-0.01509 0.007,-0.0173 0.004,-0.0022 0.009,-0.0037 0.0129,-0.0037 0.009,0 0.0267,-0.01436 0.0532,-0.04307 0.0267,-0.02871 0.0403,-0.04749 0.0403,-0.05687 0,-0.0042 0.004,-0.01068 0.0129,-0.02006 0.009,-0.0087 0.0203,-0.01509 0.0339,-0.01933 0.0223,-0.01804 0.0352,-0.04105 0.0396,-0.06976 0.005,-0.0289 -0.004,-0.04399 -0.0267,-0.04399 -0.004,0 -0.0107,-0.002 -0.0201,-0.0064 -0.009,-0.0042 -0.0129,-0.01067 -0.0129,-0.02006 -0.009,-0.01804 -0.0447,-0.0589 -0.10657,-0.12295 -0.0624,-0.06479 -0.10049,-0.097 -0.11356,-0.097 -0.004,0 -0.009,-0.0022 -0.0136,-0.0066 -0.004,-0.0042 -0.006,-0.0087 -0.006,-0.01288 0,-0.005 -0.0331,-0.04381 -0.0999,-0.117244 -0.0668,-0.07325 -0.1489,-0.15884 -0.24664,-0.256574 -0.0935,-0.09276 -0.17467,-0.175406 -0.24295,-0.245899 -0.069,-0.07123 -0.10363,-0.10933 -0.10363,-0.113563 0,-0.01804 -0.0121,-0.04473 -0.0366,-0.08062 -0.0245,-0.03515 -0.0482,-0.05963 -0.0698,-0.07252 l -0.0604,-0.03387 -0.10638,0.04031 c -0.049,0.01785 -0.0856,0.03663 -0.10933,0.05669 -0.0252,0.01951 -0.0596,0.0519 -0.10344,0.09645 -0.0267,0.03092 -0.0561,0.06681 -0.0871,0.107121 -0.0309,0.03957 -0.0554,0.07252 -0.0733,0.09921 -0.018,0.02227 -0.0388,0.04896 -0.0633,0.07988 -0.0245,0.03147 -0.0433,0.05595 -0.0569,0.07399 -0.0173,0.0173 -0.0352,0.03957 -0.0532,0.06681 -0.0173,0.02595 -0.0309,0.04822 -0.0396,0.06626 -0.009,0.02227 -0.0178,0.03939 -0.0272,0.05319 -0.009,0.01362 -0.0151,0.02006 -0.0195,0.02006 -0.004,0 -0.008,7.36e-4 -0.01,0.0037 -0.003,0.002 -0.004,0.005 -0.004,0.0092 0,0.0044 -0.008,0.01583 -0.0237,0.03387 -0.0151,0.0173 -0.0317,0.0381 -0.0495,0.05963 -0.0215,0.02227 -0.0468,0.05393 -0.0734,0.0935 0,0.0042 -0.002,0.0079 -0.006,0.01012 -0.004,0.002 -0.0109,0.0035 -0.0201,0.0035 -0.009,0 -0.0368,0.02301 -0.0834,0.06976 -0.046,0.04601 -0.072,0.07914 -0.0769,0.09626 -0.004,0.0094 -0.002,0.02025 0.007,0.03387 0.009,0.01288 0.0223,0.02595 0.0396,0.03957 0.0186,0.01362 0.0344,0.02798 0.0503,0.04307 l 0.0366,0.03736 c 0.009,0.0087 0.018,0.01509 0.0267,0.01951 0.009,0.0042 0.0158,0.0064 0.0201,0.0064 0.004,0 0.009,0.0029 0.0136,0.0072 0.004,0.0044 0.006,0.0087 0.006,0.01288 0,0.0138 0.0145,0.03387 0.0433,0.05982 0.0287,0.02724 0.0475,0.04012 0.0561,0.04012 0.005,0 0.0114,0.0037 0.0208,0.01012 0.008,0.0064 0.0151,0.01656 0.0193,0.03018 0.009,0.0087 0.018,0.01804 0.0267,0.02669 0.009,0.0086 0.0178,0.01288 0.0272,0.01288 0.004,0 0.009,0.0022 0.0131,0.0072 0.004,0.0042 0.006,0.0086 0.006,0.01362 0,0.0086 0.004,0.01583 0.01,0.02301 0.007,0.0064 0.0145,0.01233 0.0237,0.01656 0.009,0 0.0166,0.0029 0.023,0.01012 0.006,0.0064 0.0101,0.01436 0.0101,0.02301 0,0.005 0.003,0.0099 0.0101,0.01656 0.007,0.0072 0.0121,0.01215 0.0166,0.01638 0.0223,0.0094 0.0453,0.02522 0.0703,0.04675 0.0237,0.02227 0.0361,0.04031 0.0361,0.05393 0,0.0044 0.002,0.0087 0.006,0.01307 0.005,0.005 0.009,0.0072 0.0136,0.0072 0.004,0 0.0223,0.01141 0.0539,0.03589 0.0309,0.02522 0.0641,0.05466 0.0992,0.09056 0.0403,0.03534 0.0863,0.07693 0.13657,0.12663 0.0512,0.04804 0.095,0.08835 0.13013,0.120005 0.0361,0.03092 0.0675,0.06037 0.0964,0.08908 0.0294,0.02963 0.048,0.04601 0.0567,0.05043 0.0138,0.01804 0.026,0.02798 0.0368,0.03019 0.0114,0.0022 0.028,-0.0037 0.0502,-0.01656 0.009,-0.0042 0.0158,-0.01012 0.0201,-0.01657 m -0.18332,0.359462 c -0.0468,-0.0416 -0.10344,-0.0854 -0.17044,-0.129391 -0.14596,-0.09773 -0.28105,-0.202646 -0.40327,-0.313448 -0.12148,-0.111354 -0.27829,-0.271115 -0.46953,-0.479466 -0.0574,-0.06258 -0.11779,-0.123686 -0.17963,-0.184056 -0.0626,-0.05982 -0.10639,-0.100679 -0.13308,-0.12295 -0.0317,-0.02227 -0.0648,-0.04969 -0.0999,-0.08338 -0.0359,-0.03313 -0.0646,-0.06332 -0.0876,-0.09 l -0.0791,-0.0935 0.0661,-0.05964 c 0.0223,-0.01785 0.046,-0.03663 0.0705,-0.05669 0.0245,-0.02025 0.0453,-0.03681 0.0633,-0.04969 0.0173,-0.01362 0.0374,-0.03166 0.0596,-0.05319 l 0.0596,-0.06037 c 0.0848,-0.09773 0.15037,-0.176878 0.19712,-0.236512 0.0466,-0.05963 0.0812,-0.103623 0.10271,-0.130128 0.009,-0.0173 0.0274,-0.04104 0.0539,-0.07049 0.0267,-0.02798 0.051,-0.05393 0.0734,-0.0762 0.0223,-0.02669 0.048,-0.0554 0.0769,-0.08632 0.0287,-0.03092 0.0495,-0.05614 0.0631,-0.07325 0.0173,-0.02227 0.0433,-0.05117 0.0762,-0.08706 0.0331,-0.03515 0.0633,-0.06902 0.0907,-0.09994 0.0302,-0.0265 0.0646,-0.06111 0.1027,-0.102887 0.0374,-0.04233 0.0676,-0.07694 0.0898,-0.10344 0.0353,-0.04896 0.0611,-0.07914 0.0769,-0.08982 0.0151,-0.0116 0.0381,-0.0173 0.0697,-0.0173 0.018,0 0.0374,-0.0015 0.0596,-0.0064 0.0224,-0.0037 0.0425,-0.0086 0.0606,-0.01307 l 0.0532,-0.0265 0.16675,0.172461 c 0.0482,0.04969 0.0906,0.09276 0.12645,0.130864 0.0353,0.03755 0.0554,0.06111 0.0598,0.06976 0.004,0.0044 0.0258,0.02448 0.0631,0.05982 0.0381,0.03589 0.0836,0.07546 0.13675,0.120005 0.10712,0.0935 0.20117,0.179639 0.28326,0.260255 0.0826,0.07988 0.17467,0.173197 0.27682,0.279582 0.0394,0.04399 0.0861,0.09074 0.14007,0.14025 0.0532,0.04822 0.095,0.08853 0.12663,0.120189 0.0309,0.02577 0.0653,0.05743 0.1027,0.09258 0.0381,0.03608 0.0655,0.06479 0.0834,0.08706 l 0.067,0.07988 -0.0871,0.0797 c -0.14669,0.133072 -0.31198,0.303508 -0.49603,0.509835 -0.18479,0.206327 -0.32357,0.380996 -0.41707,0.523456 -0.0438,0.07105 -0.10418,0.143748 -0.17964,0.219211 -0.0756,0.0762 -0.14173,0.133625 -0.19989,0.173933 -0.0309,0.01804 -0.0512,0.02669 -0.0598,0.02669 -0.009,0 -0.0223,-0.01583 -0.0401,-0.04675 -0.018,-0.02743 -0.0497,-0.06111 -0.0964,-0.103624 M 130.14145,27.573 c -0.0223,-0.0646 -0.0158,-0.130128 0.0201,-0.196941 0.0129,-0.0265 0.0287,-0.04951 0.0468,-0.06976 0.0173,-0.02006 0.0423,-0.04086 0.0733,-0.06313 0.0841,-0.05338 0.14393,-0.08356 0.17982,-0.09 0.0352,-0.0072 0.0777,0.0052 0.12645,0.03663 0.0396,0.02669 0.072,0.05614 0.0964,0.09 0.0245,0.03295 0.0409,0.07252 0.0502,0.116508 0.004,0.03147 0.003,0.05319 -0.004,0.06681 -0.006,0.01288 -0.0274,0.03957 -0.0633,0.0797 -0.0712,0.07565 -0.13657,0.125895 -0.19621,0.149638 -0.0606,0.02448 -0.1281,0.02595 -0.20356,0.0035 -0.0618,-0.01785 -0.10418,-0.0589 -0.12645,-0.122949 m 0.006,0.332957 c -0.049,-0.06405 -0.064,-0.104912 -0.0468,-0.123686 0.004,-0.0035 0.0144,-0.005 0.0302,-0.0028 0.0158,0.002 0.0324,0.0057 0.0503,0.0099 0.018,0.0087 0.0489,0.01509 0.0935,0.02025 0.0445,0.0042 0.0863,0.0085 0.12663,0.01288 0.0661,0.0042 0.11282,0.0042 0.13933,0 0.0267,-0.0044 0.0534,-0.01288 0.0799,-0.02669 0.018,-0.0092 0.0425,-0.02006 0.074,-0.03295 0.009,0.01785 0.0151,0.03515 0.0195,0.05319 0,0.0173 -0.002,0.03368 -0.006,0.05025 -0.004,0.01509 -0.018,0.03884 -0.0403,0.06976 -0.0445,0.06184 -0.10418,0.103624 -0.17983,0.12295 -0.0755,0.02006 -0.14227,0.01436 -0.19988,-0.01656 -0.0445,-0.0265 -0.0913,-0.07178 -0.14007,-0.13657 m -0.10288,-0.796595 c 0.0109,-0.02153 0.023,-0.04381 0.0359,-0.06608 0.0403,-0.05761 0.0957,-0.10436 0.16694,-0.140251 0.0718,-0.03589 0.14448,-0.05319 0.21994,-0.05319 0.10712,0 0.20559,0.0265 0.29689,0.0797 0.0907,0.05319 0.12736,0.107121 0.11006,0.159761 -0.009,0.03147 -0.0201,0.05246 -0.0339,0.06387 -0.0129,0.01086 -0.0265,0.01233 -0.0401,0.0029 -0.009,-0.0044 -0.0289,-0.01288 -0.0598,-0.02669 -0.0309,-0.01288 -0.0639,-0.0265 -0.0999,-0.04012 -0.10197,-0.03019 -0.19473,-0.04178 -0.27958,-0.03313 -0.0849,0.0094 -0.16897,0.04031 -0.25308,0.0935 -0.0403,0.02227 -0.0633,0.03295 -0.0705,0.03295 -0.006,0 -0.009,-0.01067 -0.009,-0.03295 0,-0.0044 0.005,-0.01804 0.0166,-0.04031 m -0.11357,0.672909 c 0.002,-0.0035 0.006,-0.0064 0.0101,-0.0064 0.004,0.0094 0.006,0.01583 0.006,0.02006 0,0.0052 -0.002,0.0079 -0.006,0.01012 -0.004,0.0022 -0.009,0.0037 -0.0138,0.0037 -0.004,0 -0.008,-0.0015 -0.009,-0.0037 -0.003,-0.0022 -0.002,-0.005 0.003,-0.01012 0.004,-0.0042 0.008,-0.0092 0.0101,-0.01362 M 129.738,27.60613 c -0.0193,-0.0381 -0.0302,-0.08338 -0.0302,-0.13657 0,-0.04454 0.009,-0.08485 0.0274,-0.120005 0.0171,-0.03534 0.0488,-0.07123 0.0926,-0.106384 0.0224,-0.01804 0.0425,-0.0289 0.0606,-0.03387 0.0179,-0.0044 0.0374,-0.0064 0.0596,-0.0064 0.0223,0.0042 0.0366,0.0086 0.0438,0.01362 0.006,0.0042 0.009,0.01288 0.009,0.02669 -0.004,0.0085 -0.009,0.01859 -0.0166,0.02945 -0.006,0.01141 -0.0144,0.01933 -0.023,0.02374 -0.0223,0.01785 -0.0302,0.05963 -0.0237,0.126447 0.006,0.06608 0.028,0.140251 0.0633,0.219947 0.005,0.0094 0.004,0.0173 -0.003,0.02669 -0.006,0.0087 -0.0166,0.01583 -0.0302,0.02006 -0.0265,0.01307 -0.0495,0.02025 -0.0698,0.02025 -0.0201,0 -0.046,-0.0072 -0.0769,-0.02025 -0.0352,-0.01785 -0.0631,-0.04601 -0.0834,-0.08338 m 0.0633,-0.586587 c -0.0173,-0.0064 -0.0309,-0.01012 -0.0396,-0.01012 -0.0136,-0.0042 -0.0265,-0.02301 -0.0403,-0.05614 -0.0136,-0.03368 -0.0223,-0.06828 -0.0265,-0.103439 -0.004,-0.0087 -0.008,-0.02816 -0.0101,-0.05687 -0.002,-0.02871 -0.006,-0.0589 -0.0101,-0.08982 -0.008,-0.06681 -0.0208,-0.134545 -0.0366,-0.203566 -0.0158,-0.06902 -0.0567,-0.214241 -0.12295,-0.436397 -0.0179,-0.06681 -0.0265,-0.107857 -0.0265,-0.12295 0,-0.01583 0.0151,-0.02798 0.0468,-0.03663 0.0171,-0.0094 0.0337,-0.01215 0.0495,-0.01012 0.0158,0.0022 0.0346,0.0079 0.0569,0.01656 0.0438,0.01804 0.12865,0.03092 0.25308,0.04031 0.12442,0.0087 0.24866,0.01288 0.37308,0.01288 0.12865,-0.0042 0.2251,-0.01583 0.28621,-0.03368 0.0626,-0.0173 0.15589,-0.05761 0.28031,-0.119452 0.0977,-0.04878 0.17762,-0.100679 0.2402,-0.156632 0.0618,-0.0554 0.12644,-0.129392 0.1927,-0.223628 0.071,-0.105649 0.11927,-0.194916 0.14375,-0.265962 0.0245,-0.07123 0.0366,-0.157552 0.0366,-0.259703 0,-0.168963 -0.0302,-0.294674 -0.0906,-0.377315 -0.0589,-0.08209 -0.15608,-0.136017 -0.28897,-0.162521 -0.067,-0.0094 -0.19914,-0.01436 -0.39682,-0.01657 -0.19786,-0.0022 -0.32578,0.0029 -0.38339,0.01657 -0.0223,0.0042 -0.0653,0.01067 -0.13013,0.02006 -0.0639,0.0086 -0.13141,0.01509 -0.20338,0.01951 -0.11927,0.01362 -0.23725,0.03368 -0.35302,0.05963 -0.11503,0.02724 -0.20633,0.05393 -0.27314,0.08043 -0.0885,0.03957 -0.16326,0.07197 -0.22289,0.09645 -0.0604,0.02448 -0.095,0.03736 -0.10362,0.03736 -0.004,0 -0.0144,0.0029 -0.0302,0.0094 -0.0151,0.0064 -0.0317,0.01436 -0.0495,0.02301 -0.0138,0.0094 -0.0361,0.02154 -0.067,0.03736 -0.0309,0.01509 -0.0596,0.02945 -0.0869,0.04307 -0.11945,0.06184 -0.21148,0.14025 -0.27609,0.233015 -0.0648,0.0935 -0.10141,0.202093 -0.11006,0.327067 v 0.110066 c 0,0.03736 0.002,0.06534 0.006,0.08264 0.009,0.04454 0.0309,0.08485 0.0668,0.120005 0.0361,0.03608 0.0777,0.06258 0.12663,0.07988 0.0265,0.0087 0.0525,0.01804 0.0769,0.02743 0.0245,0.0085 0.041,0.01712 0.0502,0.02577 0.0131,0.0094 0.0361,0.01583 0.0697,0.02025 0.0331,0.0042 0.0742,0.0092 0.12295,0.01362 0.0799,0.0042 0.12866,0.01068 0.1467,0.01933 0.018,0.0094 0.0109,0.02521 -0.0201,0.04749 -0.018,0.0173 -0.0821,0.02522 -0.1927,0.02301 -0.11154,-0.0022 -0.18903,-0.01215 -0.23375,-0.03018 -0.10197,-0.03515 -0.19989,-0.08117 -0.29321,-0.13657 -0.0928,-0.0554 -0.15111,-0.100678 -0.17338,-0.136569 -0.0403,-0.067 -0.0653,-0.114483 -0.0762,-0.143196 -0.0114,-0.02871 -0.0166,-0.0762 -0.0166,-0.143012 0,-0.06258 0.003,-0.105648 0.009,-0.130127 0.007,-0.02448 0.023,-0.06111 0.0502,-0.110066 0.0173,-0.03092 0.0396,-0.06331 0.067,-0.09626 0.0258,-0.03387 0.048,-0.06184 0.0661,-0.08338 0.0267,-0.02742 0.0769,-0.06902 0.14963,-0.12663 0.074,-0.05816 0.1351,-0.102704 0.18332,-0.133625 0.005,-0.0044 0.0238,-0.01656 0.0567,-0.03681 0.0339,-0.02006 0.0683,-0.04307 0.10363,-0.06976 0.0977,-0.0624 0.19914,-0.117796 0.30332,-0.166755 0.10436,-0.04877 0.18774,-0.0797 0.24958,-0.0935 0.0223,-0.0042 0.0475,-0.01067 0.0769,-0.01933 0.0287,-0.0094 0.0525,-0.01583 0.0698,-0.02006 0.0179,-0.0094 0.0366,-0.01583 0.0567,-0.02025 0.0203,-0.0042 0.0366,-0.0064 0.0504,-0.0064 0.008,0 0.0409,-0.0042 0.0963,-0.01362 0.0554,-0.0087 0.1165,-0.02025 0.18332,-0.03313 0.2043,-0.04454 0.36535,-0.07325 0.48314,-0.08706 0.11725,-0.01288 0.25382,-0.02006 0.4099,-0.02006 0.15092,0 0.26375,0.0072 0.33921,0.02006 0.0764,0.0138 0.14246,0.0381 0.20062,0.07344 0.0173,0.0094 0.0445,0.02227 0.0799,0.04031 0.0352,0.01785 0.069,0.03515 0.1,0.05319 l 0.12644,0.06681 0.0396,0.139515 c 0.0274,0.111354 0.0446,0.192707 0.0539,0.24369 0.009,0.05025 0.0129,0.118716 0.0129,0.203382 0,0.07988 -0.006,0.165467 -0.0201,0.256022 -0.0129,0.09129 -0.0324,0.181112 -0.0596,0.269643 -0.0223,0.06258 -0.0504,0.111354 -0.0834,0.147429 -0.0331,0.03515 -0.10362,0.08614 -0.21001,0.153134 -0.0445,0.0265 -0.0928,0.05743 -0.14669,0.0935 -0.0532,0.03516 -0.0977,0.06387 -0.13289,0.08614 -0.0361,0.02669 -0.0836,0.0554 -0.14393,0.08632 -0.0596,0.03166 -0.11135,0.05816 -0.15589,0.08062 -0.0848,0.03515 -0.14025,0.05522 -0.16694,0.05963 -0.0265,0.0042 -0.069,0.0042 -0.12645,0 -0.0403,-0.0044 -0.0755,-0.0057 -0.10638,-0.0029 -0.0317,0.0022 -0.0539,0.0072 -0.0668,0.01657 -0.0267,0.0042 -0.0468,0.005 -0.0598,0.0029 -0.0136,-0.0022 -0.0337,-0.01233 -0.0604,-0.03018 -0.0223,-0.0173 -0.0445,-0.02963 -0.0661,-0.03608 -0.0223,-0.0072 -0.0512,-0.0099 -0.0871,-0.0099 -0.0668,0 -0.10418,0.0085 -0.11356,0.0265 -0.009,0.01804 -0.0129,0.08191 -0.0129,0.192707 0.004,0.147429 0.0186,0.259519 0.0431,0.337191 0.0245,0.07767 0.0655,0.138778 0.12295,0.18332 0.0188,0.0173 0.0294,0.03313 0.0339,0.04675 0.004,0.01288 0.004,0.03957 0,0.07988 -0.004,0.02154 -0.009,0.04233 -0.0131,0.05964 -0.005,0.01785 -0.009,0.02871 -0.0136,0.03368 -0.0136,0.01307 -0.0359,0.02098 -0.0668,0.02301 -0.0309,0.0022 -0.0626,-0.0035 -0.0935,-0.01638 -0.0173,-0.0094 -0.0352,-0.0173 -0.0532,-0.02374 m -0.64273,2.739123 c 0.0245,-0.05098 0.0431,-0.119268 0.0567,-0.203382 0.0217,-0.155343 0.044,-0.298355 0.0663,-0.429955 0.0223,-0.130864 0.0401,-0.218474 0.0532,-0.2632 0.0136,-0.05743 0.009,-0.108409 -0.0131,-0.153135 -0.0223,-0.04454 -0.0646,-0.0819 -0.12644,-0.112826 -0.0445,-0.02301 -0.0935,-0.03313 -0.14669,-0.03018 -0.0532,0.0022 -0.11357,0.01877 -0.17964,0.04969 -0.067,0.03147 -0.16547,0.07105 -0.29707,0.120004 -0.13086,0.04877 -0.24075,0.08632 -0.33001,0.113563 -0.0935,0.02595 -0.15958,0.05963 -0.19915,0.09921 -0.0401,0.04031 -0.0604,0.09129 -0.0604,0.153871 0,0.04454 0.0208,0.08559 0.0633,0.12295 0.0423,0.0381 0.11209,0.08338 0.20983,0.136569 0.0799,0.04031 0.1489,0.08485 0.20651,0.133809 0.0582,0.04877 0.10197,0.101967 0.13362,0.159577 0.004,0.0094 0.0223,0.02798 0.0532,0.05687 0.0309,0.02871 0.064,0.05669 0.0999,0.08338 0.0576,0.04454 0.0992,0.07325 0.12295,0.08614 0.0245,0.0138 0.0504,0.02025 0.0769,0.02025 0.0173,0 0.0388,-0.0037 0.0633,-0.01012 0.0245,-0.0064 0.0431,-0.01436 0.0567,-0.02301 0.0353,-0.02227 0.0655,-0.0589 0.09,-0.110066 m -0.21645,0.473209 c -0.0532,-0.04252 -0.10289,-0.08338 -0.14669,-0.123686 -0.12001,-0.106384 -0.21719,-0.189762 -0.29044,-0.24958 -0.0733,-0.06037 -0.13381,-0.10344 -0.18332,-0.130128 -0.10142,-0.05742 -0.23651,-0.147245 -0.40272,-0.269458 -0.16675,-0.122397 -0.25013,-0.194915 -0.25013,-0.217186 -0.0223,-0.03534 -0.0396,-0.06184 -0.0532,-0.07988 -0.0532,-0.06258 -0.0712,-0.116507 -0.0532,-0.163073 0.0173,-0.04675 0.0777,-0.09497 0.17964,-0.143196 0.0626,-0.03092 0.16546,-0.07546 0.30995,-0.132889 0.14448,-0.05834 0.22289,-0.08706 0.23724,-0.08706 0.004,0 0.0274,-0.01012 0.0698,-0.02945 0.0418,-0.02098 0.092,-0.04601 0.14964,-0.07767 0.11559,-0.05761 0.21203,-0.100679 0.2897,-0.129391 0.0784,-0.0289 0.13657,-0.04325 0.17688,-0.04325 0.0129,0 0.0302,-0.0035 0.0503,-0.0099 0.0195,-0.0072 0.0359,-0.01436 0.0497,-0.02374 0.0179,-0.0086 0.0366,-0.01656 0.0567,-0.02301 0.0203,-0.0064 0.0366,-0.01012 0.0497,-0.01012 0.0136,0 0.0381,-0.0022 0.0733,-0.0064 0.0361,-0.0044 0.0712,-0.01159 0.10639,-0.02006 0.0361,-0.0044 0.0734,-0.01012 0.11374,-0.01656 0.0401,-0.0064 0.0688,-0.01012 0.0869,-0.01012 l 0.0663,-0.0064 v 0.193443 c 0.004,0.04804 0.004,0.108593 0,0.179639 -0.004,0.07123 -0.009,0.130864 -0.0131,0.179823 -0.009,0.09773 -0.0245,0.21056 -0.0468,0.339399 -0.0223,0.129392 -0.0381,0.20191 -0.0468,0.220683 -0.004,0.0087 -0.0107,0.03442 -0.0201,0.0762 -0.009,0.04233 -0.018,0.09056 -0.0265,0.143011 -0.004,0.04896 -0.0109,0.0935 -0.0202,0.133809 -0.009,0.03957 -0.0151,0.06184 -0.0201,0.06681 -0.004,0.0042 -0.009,0.01933 -0.0166,0.04675 -0.006,0.02595 -0.0116,0.05466 -0.0166,0.08632 -0.004,0.03092 -0.0101,0.06111 -0.0166,0.08982 -0.006,0.02871 -0.0122,0.04528 -0.0166,0.04951 -0.005,0.0094 -0.009,0.02595 -0.0136,0.05043 -0.004,0.02448 -0.0107,0.04951 -0.0201,0.07694 -0.004,0.0265 -0.0123,0.05319 -0.023,0.0797 -0.0116,0.02669 -0.0188,0.04675 -0.023,0.05982 -0.009,0.01362 -0.0173,0.02577 -0.0237,0.03663 -0.006,0.01141 -0.0101,0.01859 -0.0101,0.02374 0,0.0042 -0.002,0.0086 -0.003,0.01288 -0.002,0.005 -0.005,0.0064 -0.009,0.0064 -0.005,0 -0.0116,0.0015 -0.0203,0.0037 -0.009,0.0022 -0.0156,0.0028 -0.0201,0.0028 -0.004,0.0052 -0.0201,0 -0.0468,-0.01288 -0.0265,-0.01288 -0.0554,-0.02871 -0.0863,-0.04675 -0.0309,-0.02227 -0.0733,-0.05393 -0.12645,-0.09626"
       style="fill:#21201d;fill-opacity:1;fill-rule:nonzero;stroke:none;stroke-width:0.184056"
       id="path610" />
  </g>
</svg>
