<?xml version="1.0" encoding="UTF-8" standalone="no"?>
<!-- Created with Inkscape (http://www.inkscape.org/) -->

<svg
   width="6.4243202mm"
   height="6.4369478mm"
   viewBox="0 0 6.4243202 6.4369478"
   version="1.1"
   id="svg2631"
   inkscape:version="1.1.2 (0a00cf5339, 2022-02-04)"
   sodipodi:docname="m3.svg"
   xmlns:inkscape="http://www.inkscape.org/namespaces/inkscape"
   xmlns:sodipodi="http://sodipodi.sourceforge.net/DTD/sodipodi-0.dtd"
   xmlns="http://www.w3.org/2000/svg"
   xmlns:svg="http://www.w3.org/2000/svg">
  <sodipodi:namedview
     id="namedview2633"
     pagecolor="#ffffff"
     bordercolor="#666666"
     borderopacity="1.0"
     inkscape:pageshadow="2"
     inkscape:pageopacity="0.0"
     inkscape:pagecheckerboard="0"
     inkscape:document-units="mm"
     showgrid="false"
     inkscape:zoom="0.64052329"
     inkscape:cx="-92.112186"
     inkscape:cy="461.34154"
     inkscape:window-width="2560"
     inkscape:window-height="1376"
     inkscape:window-x="0"
     inkscape:window-y="0"
     inkscape:window-maximized="1"
     inkscape:current-layer="layer1" />
  <defs
     id="defs2628" />
  <g
     inkscape:label="Layer 1"
     inkscape:groupmode="layer"
     id="layer1"
     transform="translate(-129.38443,-26.522904)">
    <path
       d="m 131.88823,31.616766 c 0.0237,-0.0029 0.0401,-0.0015 0.0503,0.0035 0.0158,0 0.0259,-0.0015 0.0309,-0.0035 0.005,-0.0029 0.008,-0.0116 0.008,-0.02669 0,-0.01068 0.003,-0.02374 0.008,-0.03957 0.005,-0.01509 0.0129,-0.02503 0.023,-0.03092 0.0259,-0.02577 0.0453,-0.05393 0.0582,-0.08485 0.0131,-0.03074 0.0223,-0.07252 0.0274,-0.123501 0.005,-0.04178 0.0122,-0.0727 0.023,-0.0935 0.01,-0.02025 0.0359,-0.05117 0.0769,-0.09276 0.0626,-0.06184 0.12001,-0.101415 0.17394,-0.120005 0.0547,-0.01804 0.14595,-0.02669 0.27535,-0.02669 0.0826,0 0.14816,0.0029 0.19767,0.0079 0.049,0.005 0.10639,0.01804 0.17412,0.03884 0.16528,0.04105 0.2897,0.0589 0.37529,0.05393 0.0848,-0.005 0.15884,-0.03589 0.21995,-0.09276 0.0626,-0.05687 0.0999,-0.113562 0.11209,-0.170436 0.0131,-0.05669 0.004,-0.121477 -0.0265,-0.193443 -0.0151,-0.03147 -0.0259,-0.0646 -0.0309,-0.100494 -0.005,-0.03608 -0.008,-0.105833 -0.008,-0.209272 0,-0.108593 0.003,-0.178351 0.008,-0.209272 0.005,-0.03092 0.018,-0.06681 0.0388,-0.107857 0.0302,-0.07252 0.0517,-0.126446 0.0618,-0.163258 0.01,-0.03589 0.0129,-0.06902 0.008,-0.09994 -0.006,-0.03589 -0.0267,-0.07252 -0.0626,-0.108409 -0.0359,-0.03607 -0.0769,-0.06479 -0.12369,-0.08485 -0.0569,-0.02595 -0.10068,-0.067 -0.1316,-0.124422 -0.0309,-0.05687 -0.0567,-0.139515 -0.0777,-0.247372 -0.0151,-0.102703 -0.0329,-0.173933 -0.0539,-0.212768 -0.0208,-0.03884 -0.0488,-0.07123 -0.0848,-0.09645 -0.0359,-0.0208 -0.0841,-0.03295 -0.14301,-0.03515 -0.0596,-0.0029 -0.12792,0.0064 -0.20559,0.02669 -0.0252,0.005 -0.0576,0.01141 -0.0965,0.02006 -0.0386,0.0072 -0.071,0.01362 -0.097,0.01877 -0.0309,0 -0.0589,0.0028 -0.0848,0.0085 -0.0258,0.0044 -0.0438,0.0072 -0.0547,0.0072 -0.0201,0 -0.0611,-0.01436 -0.12369,-0.04307 -0.0617,-0.02724 -0.11061,-0.05743 -0.14724,-0.08835 -0.0252,-0.02098 -0.0447,-0.04031 -0.0576,-0.05835 -0.0129,-0.01785 -0.0223,-0.04031 -0.0272,-0.06608 -0.005,-0.02025 -0.0144,-0.04252 -0.0267,-0.06552 -0.0129,-0.02301 -0.0272,-0.04528 -0.0431,-0.06534 -0.0101,-0.01583 -0.0202,-0.03239 -0.0309,-0.05043 -0.0101,-0.01785 -0.0151,-0.02945 -0.0151,-0.03515 0,-0.02595 -0.009,-0.05246 -0.0274,-0.08117 -0.0179,-0.02816 -0.0322,-0.03957 -0.0423,-0.0346 -0.005,0 -0.0151,-0.0015 -0.0309,-0.0042 -0.0158,-0.0022 -0.0309,-0.0059 -0.0468,-0.01159 -0.0101,-0.0099 -0.0359,-0.01785 -0.0769,-0.02301 -0.0416,-0.005 -0.0826,-0.0099 -0.12442,-0.01583 -0.0718,-0.005 -0.12074,-0.005 -0.14669,0 -0.0258,0.0059 -0.0668,0.01804 -0.1235,0.03884 -0.0828,0.03608 -0.14467,0.06184 -0.18627,0.07767 -0.041,0.01509 -0.10289,0.03589 -0.18553,0.06184 -0.0928,0.02595 -0.1754,0.06184 -0.2481,0.108594 -0.0718,0.04601 -0.14449,0.105648 -0.21627,0.177614 -0.0777,0.07252 -0.12884,0.132888 -0.15461,0.182583 -0.0259,0.04896 -0.0339,0.09626 -0.0237,0.142276 0.005,0.01583 0.008,0.03092 0.008,0.04675 v 0.03092 c -0.0208,0.05687 -0.0282,0.09718 -0.023,0.120188 0.005,0.02301 0.0258,0.05816 0.0618,0.104176 0.0208,0.02595 0.0423,0.04822 0.0653,0.06608 0.0237,0.01804 0.0403,0.02945 0.0512,0.0346 0.025,0.01012 0.0574,0.03663 0.0963,0.07767 0.0388,0.04086 0.0712,0.08485 0.097,0.131601 0.0101,0.02577 0.0173,0.05172 0.023,0.07693 0.005,0.02577 0.008,0.05963 0.008,0.101231 0,0.07694 -0.0144,0.144484 -0.0431,0.201357 -0.028,0.05614 -0.0913,0.135834 -0.18903,0.239457 -0.0576,0.06184 -0.092,0.108594 -0.10509,0.139515 -0.0129,0.03092 -0.0136,0.07473 -0.004,0.131416 0.01,0.113747 0.0337,0.196388 0.0698,0.248108 0.0359,0.05117 0.0955,0.08982 0.17816,0.115771 0.067,0.02006 0.17265,0.07694 0.31713,0.1697 0.14449,0.09276 0.23946,0.168227 0.28621,0.225101 0.0208,0.02006 0.0416,0.04601 0.0618,0.07693 0.0208,0.03092 0.0366,0.05743 0.0468,0.07749 0.0208,0.04104 0.0453,0.07344 0.0733,0.09718 0.0287,0.02301 0.0683,0.04454 0.12,0.06534 0.0468,0.01509 0.0749,0.02374 0.0849,0.02374 0.0109,0 0.0388,-0.0087 0.0856,-0.02374 0.0201,-0.005 0.0425,-0.0094 0.0655,-0.01141 m -1.65227,1.327229 c -0.0668,-0.01509 -0.13804,-0.03736 -0.21277,-0.06552 -0.0747,-0.02871 -0.17412,-0.07896 -0.29835,-0.150926 -0.067,-0.03663 -0.12369,-0.0819 -0.17044,-0.135834 -0.046,-0.05393 -0.0871,-0.122213 -0.12295,-0.205038 -0.0267,-0.05595 -0.0403,-0.09921 -0.0431,-0.127183 -0.002,-0.02871 -0.004,-0.08908 -0.004,-0.181848 0,-0.08282 0.002,-0.140987 0.008,-0.174853 0.005,-0.03368 0.018,-0.07325 0.0388,-0.120004 0.0101,-0.02522 0.0186,-0.04951 0.0265,-0.07325 0.008,-0.02301 0.0123,-0.03736 0.0123,-0.04252 0,-0.01509 0.0359,-0.07841 0.10785,-0.189762 0.0718,-0.110802 0.12645,-0.187001 0.16252,-0.227861 0.0258,-0.03166 0.0668,-0.067 0.12351,-0.108593 0.0569,-0.04105 0.1165,-0.07767 0.17835,-0.108593 0.0259,-0.01509 0.0512,-0.03239 0.0777,-0.05025 0.0252,-0.01804 0.0433,-0.0346 0.0539,-0.05043 0.0208,-0.02522 0.041,-0.08835 0.0618,-0.189762 0.0208,-0.09994 0.0339,-0.202094 0.0381,-0.305533 0.006,-0.07197 0.0122,-0.121477 0.0201,-0.146693 0.007,-0.02595 0.0296,-0.06681 0.0655,-0.124422 0.0309,-0.05098 0.0502,-0.08706 0.0582,-0.107857 0.008,-0.0208 0.0116,-0.05466 0.0116,-0.100679 0,-0.04086 -0.004,-0.07473 -0.0116,-0.100678 -0.008,-0.02577 -0.0215,-0.06184 -0.0423,-0.108409 -0.0158,-0.03092 -0.0359,-0.06552 -0.0626,-0.10436 -0.0252,-0.03884 -0.051,-0.07123 -0.0769,-0.097 -0.0618,-0.067 -0.10068,-0.119452 -0.11577,-0.158288 -0.0158,-0.03884 -0.0238,-0.107121 -0.0238,-0.205591 0,-0.09773 0.008,-0.167491 0.0238,-0.208536 0.0151,-0.04086 0.0589,-0.108409 0.13086,-0.201173 0.0259,-0.03092 0.0482,-0.06184 0.0661,-0.09276 0.018,-0.03166 0.0274,-0.0519 0.0274,-0.06184 0.005,-0.0727 0.006,-0.12295 0.004,-0.15111 -0.003,-0.02871 -0.0114,-0.05595 -0.0265,-0.08117 -0.0158,-0.0208 -0.0403,-0.04105 -0.074,-0.06184 -0.0339,-0.0208 -0.0756,-0.0416 -0.12736,-0.06258 -0.0265,-0.0099 -0.0676,-0.0589 -0.12442,-0.146693 -0.0567,-0.08761 -0.1,-0.170252 -0.1316,-0.247187 -0.0201,-0.05687 -0.0344,-0.103624 -0.0423,-0.140251 -0.008,-0.03589 -0.0114,-0.09994 -0.0114,-0.192707 -0.005,-0.113562 -0.002,-0.194915 0.0114,-0.244426 0.0129,-0.04896 0.0475,-0.122214 0.10418,-0.219947 0.0777,-0.134546 0.17835,-0.248108 0.30203,-0.340872 0.12443,-0.09276 0.24811,-0.149454 0.3718,-0.170436 0.0359,-0.0099 0.0848,-0.01785 0.14724,-0.02301 0.0618,-0.0057 0.12093,-0.0079 0.17762,-0.0079 0.0826,-0.005 0.14319,-0.0064 0.18184,-0.0035 0.0388,0.0028 0.0843,0.01141 0.13602,0.0265 0.0718,0.02098 0.12939,0.04178 0.17394,0.06258 0.0438,0.02025 0.0705,0.04381 0.0806,0.06976 0.0107,0.02006 0.0381,0.05687 0.0812,0.107857 0.0445,0.05098 0.097,0.113563 0.15884,0.186265 0.0569,0.06184 0.0985,0.117796 0.12442,0.1697 0.026,0.05172 0.049,0.124238 0.069,0.217002 0.0158,0.07197 0.0237,0.133809 0.0237,0.185529 0,0.05172 -0.008,0.139514 -0.0237,0.2632 0,0.03589 0.002,0.06184 0.004,0.07767 0.003,0.01509 0.0145,0.03589 0.0346,0.06184 0.0109,0.0099 0.0245,0.02153 0.0431,0.03442 0.018,0.01288 0.0346,0.02227 0.0497,0.02742 0.0107,0.005 0.0265,0.01638 0.0468,0.03442 0.0208,0.01804 0.0359,0.03515 0.046,0.05025 0.0158,0.01583 0.0324,0.03387 0.051,0.05466 0.018,0.02025 0.0346,0.03313 0.0504,0.0381 0.0151,0.01086 0.0322,0.02595 0.0503,0.04675 0.018,0.02098 0.0346,0.04105 0.0497,0.06184 0.0158,0.02098 0.0351,0.04454 0.0589,0.06976 0.023,0.02595 0.0423,0.04675 0.0574,0.06184 0.021,0.01509 0.0403,0.03239 0.0583,0.05025 l 0.0423,0.04252 c 0.0101,0.02595 0.0339,0.04031 0.0698,0.04233 0.0359,0.0029 0.16546,-5.52e-4 0.38688,-0.01141 0.0309,0 0.0596,0.0029 0.0848,0.0079 0.0265,0.0057 0.0495,0.01288 0.0698,0.02374 0.0208,0.01012 0.0431,0.01859 0.0661,0.02651 0.023,0.0079 0.0396,0.01159 0.0503,0.01159 0.0151,0 0.0282,0.0028 0.0381,0.0079 0.0109,0.005 0.0188,0.01068 0.0238,0.01509 0.005,0.01583 0.046,0.05025 0.12368,0.104912 0.0777,0.05393 0.12663,0.08632 0.14743,0.09645 0.005,0 0.0114,0.02006 0.0193,0.0589 0.007,0.0381 0.0116,0.08835 0.0116,0.15019 0.0101,0.09276 0.018,0.155344 0.023,0.185529 0.006,0.03092 0.018,0.06258 0.0388,0.0935 l 0.0467,0.07694 0.1697,0.0079 h 0.13584 c 0.028,0 0.0475,-0.005 0.0582,-0.01583 0.005,-0.005 0.0202,-0.01215 0.046,-0.02301 0.026,-0.01012 0.0539,-0.01804 0.0856,-0.02301 0.0769,-0.02595 0.22786,-0.0438 0.45223,-0.05393 0.2251,-0.01086 0.37032,-0.005 0.43787,0.01509 0.10785,0.02595 0.19694,0.06681 0.26669,0.124422 0.069,0.05595 0.13013,0.136569 0.18203,0.239457 0.0201,0.03589 0.0409,0.07252 0.0618,0.108409 0.0208,0.03608 0.0329,0.06184 0.0381,0.07693 0.0265,0.03608 0.0495,0.09203 0.0703,0.166939 0.0202,0.07473 0.0309,0.143012 0.0309,0.204855 0,0.06184 -0.007,0.140987 -0.0193,0.236512 -0.0129,0.09497 -0.0302,0.19197 -0.0504,0.289704 -0.0156,0.0727 -0.0488,0.143196 -0.10049,0.212953 -0.0519,0.06957 -0.11081,0.124974 -0.17836,0.166755 -0.046,0.03019 -0.11577,0.06387 -0.20853,0.100679 -0.0928,0.03589 -0.16326,0.0589 -0.20927,0.06976 -0.0201,0.005 -0.0604,0.0085 -0.12001,0.01141 -0.0596,0.0022 -0.11724,0.0037 -0.17393,0.0037 h -0.20927 l -0.16252,-0.07767 c -0.0416,-0.02595 -0.0848,-0.05117 -0.1316,-0.07767 -0.046,-0.02522 -0.0827,-0.04822 -0.10786,-0.06902 -0.0574,-0.04675 -0.11283,-0.07123 -0.16676,-0.07344 -0.0539,-0.0028 -0.10215,0.01656 -0.14301,0.05835 -0.0109,0.0094 -0.0339,0.0265 -0.0697,0.04951 -0.0359,0.02301 -0.0727,0.04325 -0.1086,0.05835 l -0.1316,0.06976 -0.43271,0.0079 -0.12443,-0.06976 c -0.0517,-0.03166 -0.0898,-0.04896 -0.11577,-0.05466 -0.0259,-0.0044 -0.0618,-0.0072 -0.10859,-0.0072 -0.0668,0 -0.12148,0.0072 -0.16252,0.02301 -0.0409,0.01583 -0.0718,0.03884 -0.0928,0.06976 -0.0208,0.04601 -0.0388,0.09921 -0.0539,0.158841 -0.0158,0.0589 -0.0238,0.114299 -0.0238,0.166018 0,0.0519 -0.002,0.08632 -0.008,0.10436 -0.005,0.01785 -0.0201,0.04528 -0.046,0.08117 -0.0156,0.02669 -0.0359,0.04969 -0.0624,0.06976 -0.0252,0.0208 -0.0561,0.03884 -0.0928,0.05466 -0.046,0.02595 -0.0799,0.04105 -0.0999,0.04601 -0.021,0.0057 -0.0648,0.0057 -0.1316,0 -0.0935,-0.01012 -0.15387,-0.01436 -0.18185,-0.01159 -0.0289,0.0029 -0.0532,0.01159 -0.0742,0.02742 -0.0359,0.02577 -0.0618,0.05393 -0.0769,0.08485 -0.0158,0.03166 -0.0287,0.06976 -0.0388,0.115771 -0.0208,0.124238 -0.0955,0.270931 -0.22492,0.441367 -0.12865,0.170436 -0.24737,0.281054 -0.35596,0.332957 -0.046,0.02006 -0.0863,0.03368 -0.12001,0.03884 -0.0331,0.005 -0.11724,0.0079 -0.25087,0.0079 -0.0828,0 -0.16049,-0.0015 -0.23301,-0.0044 -0.072,-0.0022 -0.12866,-0.0087 -0.1697,-0.01933 z"
       style="fill:#21201d;fill-opacity:1;fill-rule:nonzero;stroke:none;stroke-width:0.184056"
       id="path616" />
  </g>
</svg>
