<?xml version="1.0" encoding="UTF-8" standalone="no"?>
<!-- Created with Inkscape (http://www.inkscape.org/) -->

<svg
   width="6.5272298mm"
   height="6.319818mm"
   viewBox="0 0 6.5272298 6.319818"
   version="1.1"
   id="svg2766"
   inkscape:version="1.1.2 (0a00cf5339, 2022-02-04)"
   sodipodi:docname="m4.svg"
   xmlns:inkscape="http://www.inkscape.org/namespaces/inkscape"
   xmlns:sodipodi="http://sodipodi.sourceforge.net/DTD/sodipodi-0.dtd"
   xmlns="http://www.w3.org/2000/svg"
   xmlns:svg="http://www.w3.org/2000/svg">
  <sodipodi:namedview
     id="namedview2768"
     pagecolor="#ffffff"
     bordercolor="#666666"
     borderopacity="1.0"
     inkscape:pageshadow="2"
     inkscape:pageopacity="0.0"
     inkscape:pagecheckerboard="0"
     inkscape:document-units="mm"
     showgrid="false"
     inkscape:zoom="0.64052329"
     inkscape:cx="12.489788"
     inkscape:cy="11.709176"
     inkscape:window-width="2560"
     inkscape:window-height="1376"
     inkscape:window-x="0"
     inkscape:window-y="0"
     inkscape:window-maximized="1"
     inkscape:current-layer="layer1" />
  <defs
     id="defs2763" />
  <g
     inkscape:label="Layer 1"
     inkscape:groupmode="layer"
     id="layer1"
     transform="translate(-101.65751,-145.34081)">
    <path
       d="m 105.95037,150.52299 c -0.005,-0.005 -0.006,-0.009 -0.004,-0.0116 0.003,-0.003 0.006,-0.004 0.0116,-0.004 0.01,0.006 0.0151,0.0107 0.0151,0.0158 0,0.004 -0.002,0.01 -0.007,0.0151 -0.005,0 -0.009,-0.002 -0.0116,-0.004 -0.003,-0.003 -0.004,-0.007 -0.004,-0.0114 m -1.55067,0.61898 c -0.23725,-0.12442 -0.40768,-0.23651 -0.5091,-0.33866 -0.0705,-0.0705 -0.1373,-0.13381 -0.20136,-0.18976 -0.0631,-0.0554 -0.11209,-0.0906 -0.14798,-0.10639 -0.0151,-0.0101 -0.0324,-0.0224 -0.0532,-0.0381 -0.0202,-0.0145 -0.0375,-0.0274 -0.0526,-0.0376 -0.046,-0.0352 -0.0926,-0.0611 -0.1408,-0.0762 -0.0482,-0.0151 -0.11798,-0.025 -0.20927,-0.0302 -0.16676,-0.0151 -0.26596,-0.0265 -0.29615,-0.0344 -0.0302,-0.007 -0.046,-0.0339 -0.046,-0.0799 v -0.0453 l 0.16031,-0.0151 c 0.10638,-0.0107 0.20264,-0.009 0.28823,0.004 0.0863,0.0129 0.1697,0.0394 0.25087,0.0797 0.0252,0.0151 0.0519,0.0302 0.0799,0.0453 0.028,0.0151 0.0467,0.023 0.0569,0.023 0.01,0.005 0.0295,0.0166 0.0574,0.0346 0.0274,0.0173 0.0561,0.0366 0.0871,0.0567 0.0252,0.0252 0.0495,0.0453 0.0718,0.0611 0.023,0.0145 0.0375,0.0225 0.0425,0.0225 0.004,0 0.0173,0.008 0.0374,0.023 0.0208,0.0151 0.0431,0.0352 0.069,0.0604 0.0201,0.0208 0.0517,0.0468 0.095,0.0797 0.0431,0.0331 0.0819,0.0596 0.11706,0.0799 0.0762,0.051 0.17983,0.10638 0.31143,0.16749 0.13233,0.0611 0.22142,0.0963 0.26669,0.10639 0.0151,0 0.0403,0.002 0.0762,0.007 0.0352,0.005 0.0683,0.0131 0.0985,0.023 0.0302,0.005 0.0747,0.0129 0.13308,0.023 0.0582,0.0101 0.11006,0.0202 0.15608,0.0302 0.0502,0.005 0.097,0.0136 0.13933,0.0267 0.044,0.0129 0.0705,0.0215 0.0806,0.0265 0.005,0.005 0.0215,0.0101 0.0495,0.0151 0.0274,0.005 0.0569,0.0101 0.0871,0.0151 0.0302,0.005 0.0648,0.0101 0.10289,0.0151 0.0381,0.006 0.0668,0.008 0.0869,0.008 0.0353,0.005 0.0596,0.007 0.0727,0.004 0.0121,-0.002 0.0215,-0.009 0.0265,-0.0188 0.0202,-0.0208 0.0252,-0.0445 0.0151,-0.0725 -0.01,-0.0282 -0.0359,-0.0799 -0.0762,-0.15535 -0.071,-0.12147 -0.15239,-0.22786 -0.24295,-0.31915 -0.0913,-0.0913 -0.17982,-0.15461 -0.26596,-0.18995 -0.0302,-0.0151 -0.0749,-0.0309 -0.13307,-0.046 -0.0582,-0.0151 -0.12001,-0.028 -0.18627,-0.0374 -0.025,-0.006 -0.0416,-0.0107 -0.0495,-0.0158 -0.007,-0.004 -0.0109,-0.0179 -0.0109,-0.0381 0,-0.0201 0.004,-0.0322 0.0109,-0.0374 0.008,-0.006 0.0245,-0.008 0.0495,-0.008 0.0151,0 0.0331,0.002 0.0532,0.008 0.021,0.005 0.0361,0.0101 0.0453,0.0151 0.0158,0.005 0.0339,0.0101 0.0539,0.0151 0.0203,0.005 0.0403,0.0101 0.0606,0.0151 0.051,0.005 0.10271,0.018 0.1559,0.0381 0.0532,0.0203 0.10289,0.0453 0.14816,0.0762 0.0201,0.0101 0.0416,0.0203 0.0646,0.0302 0.0225,0.0101 0.0418,0.0153 0.0569,0.0153 0.0252,0 0.0438,0.007 0.0569,0.0228 0.0129,0.0153 0.0467,0.0613 0.1027,0.13675 0.0353,0.0604 0.0871,0.12148 0.15608,0.18185 0.0676,0.0611 0.11503,0.0913 0.14025,0.0913 0.005,0 0.0151,0.003 0.0302,0.008 0.0158,0.005 0.0309,0.0101 0.0453,0.0151 0.0158,0.005 0.0359,0.0121 0.0611,0.023 0.005,0 0.008,-0.0129 0.008,-0.0381 0,-0.0252 -0.003,-0.0561 -0.008,-0.0913 -0.005,-0.0604 -0.004,-0.13013 0.004,-0.20927 0.008,-0.0784 0.0245,-0.18553 0.0497,-0.32283 0.0107,-0.0552 0.0403,-0.16032 0.0913,-0.31492 0.051,-0.15443 0.0812,-0.24222 0.0913,-0.26228 0.0101,-0.0101 0.018,-0.0151 0.023,-0.0151 0.005,0 0.0122,0.003 0.023,0.008 0.009,0.009 0.0144,0.0208 0.0144,0.0337 0,0.0129 -0.007,0.0425 -0.0223,0.0878 -0.0259,0.0703 -0.0445,0.16455 -0.0574,0.28106 -0.0123,0.11651 -0.0158,0.24516 -0.0116,0.38744 0.005,0.13675 0.0136,0.2251 0.023,0.26614 0.0101,0.0403 0.0331,0.0604 0.0683,0.0604 0.0208,0 0.0361,-0.004 0.046,-0.0116 0.0101,-0.008 0.0203,-0.0236 0.0309,-0.0488 0.0445,-0.0762 0.092,-0.16473 0.13951,-0.26614 0.0482,-0.10123 0.0804,-0.17743 0.095,-0.22787 0.0208,-0.0661 0.0431,-0.12791 0.069,-0.18626 0.025,-0.0582 0.0604,-0.12792 0.10638,-0.20909 0.0201,-0.0353 0.0374,-0.067 0.0532,-0.095 0.0151,-0.028 0.023,-0.0445 0.023,-0.0495 0,-0.009 0.002,-0.0188 0.007,-0.0267 0.005,-0.007 0.0101,-0.0136 0.0151,-0.0186 0.0101,-0.0153 0.028,-0.067 0.0532,-0.15608 0.0252,-0.0885 0.0453,-0.16823 0.0611,-0.23946 0.0101,-0.0705 0.018,-0.20412 0.023,-0.39829 0.005,-0.19492 0.0101,-0.4191 0.0144,-0.67291 0,-0.24811 0.007,-0.41137 0.0195,-0.49033 0.0129,-0.0784 0.0394,-0.11227 0.0797,-0.10215 0.0203,0.004 0.0317,0.018 0.0346,0.0381 0.002,0.0201 0.006,0.0856 0.0114,0.19768 0.004,0.0554 0.009,0.12018 0.0144,0.19344 0.006,0.0734 0.0109,0.12792 0.0158,0.16326 0.005,0.0409 0.0116,0.0834 0.0188,0.12939 0.007,0.0453 0.0144,0.0834 0.0186,0.11356 0.021,0.11651 0.0217,0.28694 0.004,0.5091 -0.018,0.22289 -0.0418,0.37235 -0.072,0.44854 -0.0101,0.0252 -0.0193,0.0517 -0.0265,0.0799 -0.008,0.028 -0.0145,0.0495 -0.0195,0.0639 -0.0151,0.0965 -0.0252,0.17044 -0.0309,0.22161 -0.005,0.0502 -0.007,0.12074 -0.007,0.21203 -0.005,0.10638 -0.005,0.16455 0,0.17467 0.005,0.0101 0.0203,-0.0121 0.046,-0.0683 0,-0.005 0.005,-0.0166 0.0151,-0.0339 0.009,-0.0179 0.023,-0.0344 0.0374,-0.0495 0.0109,-0.0201 0.0195,-0.0366 0.0274,-0.0497 0.007,-0.0121 0.0114,-0.0215 0.0114,-0.0265 0.0144,-0.0252 0.0245,-0.0433 0.0302,-0.0532 0.0453,-0.0604 0.1051,-0.17466 0.17835,-0.3416 0.0733,-0.16749 0.12516,-0.30406 0.15608,-0.41045 0.0453,-0.14172 0.0718,-0.32651 0.079,-0.55511 0.008,-0.22786 -0.006,-0.40253 -0.0409,-0.52401 -0.0259,-0.10142 -0.0512,-0.19271 -0.0762,-0.27332 -0.0259,-0.0812 -0.0611,-0.17762 -0.10638,-0.28897 -0.10142,-0.24296 -0.19142,-0.42628 -0.27038,-0.5507 -0.0777,-0.12368 -0.20853,-0.27755 -0.39112,-0.46014 -0.10565,-0.1108 -0.19841,-0.20136 -0.27756,-0.2689 -0.0784,-0.069 -0.15534,-0.1259 -0.2308,-0.17118 -0.15737,-0.10141 -0.29044,-0.17117 -0.39977,-0.20927 -0.10859,-0.0381 -0.29191,-0.0797 -0.5507,-0.12497 -0.20283,-0.0361 -0.35596,-0.0598 -0.4594,-0.0727 -0.10363,-0.0129 -0.21645,-0.0166 -0.33793,-0.0114 h -0.1373 c -0.0101,0 0.005,0.003 0.046,0.008 0.0252,0.005 0.0525,0.01 0.0834,0.0151 0.0302,0.005 0.0502,0.01 0.0604,0.0151 0.0309,0.01 0.0727,0.0215 0.12589,0.0344 0.0532,0.0123 0.10491,0.0267 0.15516,0.0418 0.0158,0.005 0.0346,0.0121 0.0576,0.0223 0.023,0.0107 0.0445,0.0201 0.0648,0.0309 0.0151,0.01 0.0381,0.0238 0.0683,0.0416 0.0302,0.018 0.0582,0.0317 0.0834,0.0418 0.0502,0.0302 0.11651,0.0834 0.19768,0.15958 0.0812,0.0762 0.15166,0.15166 0.21277,0.22786 0.0604,0.0813 0.12221,0.19639 0.18552,0.34584 0.0641,0.1489 0.10786,0.29265 0.13308,0.42922 0.0309,0.16694 0.0409,0.32081 0.0309,0.45941 -0.0101,0.13951 -0.0403,0.31068 -0.0913,0.51333 -0.0101,0.0455 -0.0418,0.11798 -0.095,0.21645 -0.0532,0.0985 -0.11006,0.19344 -0.17117,0.28473 -0.0653,0.0965 -0.14798,0.19915 -0.24663,0.30848 -0.0992,0.10859 -0.17615,0.17541 -0.2321,0.20136 -0.0101,0.005 -0.0252,0.0144 -0.0453,0.0295 -0.0202,0.0158 -0.041,0.0309 -0.0611,0.046 -0.0403,0.0352 -0.10215,0.0733 -0.18627,0.1143 -0.0834,0.0403 -0.14522,0.0653 -0.18626,0.0755 -0.0101,0 -0.028,0.004 -0.0525,0.0116 -0.0259,0.008 -0.046,0.0164 -0.0611,0.0265 -0.0201,0.005 -0.0482,0.0144 -0.0834,0.0267 -0.0359,0.0121 -0.0683,0.0237 -0.0992,0.0344 -0.0504,0.0151 -0.0957,0.0237 -0.13657,0.0267 -0.0403,0.002 -0.1316,0.002 -0.27332,-0.004 -0.0913,-0.006 -0.17541,-0.0107 -0.25087,-0.0158 -0.0762,-0.004 -0.13455,-0.0121 -0.17467,-0.023 -0.0814,-0.0151 -0.16326,-0.0416 -0.24737,-0.079 -0.0834,-0.0383 -0.15314,-0.0828 -0.20854,-0.13381 -0.0252,-0.0201 -0.0468,-0.0374 -0.0646,-0.0525 -0.018,-0.0151 -0.0289,-0.023 -0.0346,-0.023 -0.0352,-0.0252 -0.0633,-0.046 -0.0834,-0.0604 -0.0201,-0.021 -0.046,-0.0425 -0.0762,-0.0655 -0.0302,-0.0223 -0.0554,-0.0416 -0.0755,-0.0559 -0.0561,-0.046 -0.12443,-0.12368 -0.20559,-0.23228 -0.0806,-0.10933 -0.14394,-0.21148 -0.18995,-0.30774 -0.0913,-0.18774 -0.14945,-0.3394 -0.17467,-0.45591 -0.0252,-0.11632 -0.0403,-0.27387 -0.0453,-0.47081 v -0.28124 l -0.0841,0.22013 c -0.0252,0.0559 -0.0503,0.12442 -0.0755,0.20559 -0.0252,0.0804 -0.046,0.1489 -0.0604,0.20486 -0.026,0.0913 -0.0418,0.15957 -0.046,0.20503 -0.005,0.046 -0.008,0.14154 -0.008,0.28897 0,0.16676 0.005,0.31989 0.0151,0.45941 0.0107,0.13951 0.0302,0.29467 0.0611,0.46732 0.025,0.13657 0.0668,0.29541 0.12497,0.47523 0.0583,0.17982 0.11798,0.32504 0.17835,0.4364 0.0208,0.041 0.0468,0.0928 0.0799,0.15608 0.0329,0.0633 0.0626,0.12 0.0876,0.17098 0.0806,0.15185 0.1524,0.26044 0.21296,0.32652 0.0611,0.0661 0.15442,0.13436 0.28105,0.20485 0.1316,0.0663 0.26743,0.12369 0.40621,0.17191 0.13952,0.0475 0.26523,0.079 0.37603,0.0941 0.0208,0.005 0.049,0.0116 0.0841,0.0195 0.0352,0.007 0.0683,0.0136 0.0985,0.0186 0.0302,0.006 0.0675,0.0116 0.11007,0.0188 0.0431,0.008 0.0777,0.0144 0.1027,0.0195 0.11651,0.01 0.24093,0.023 0.37253,0.0381 0.13234,0.0151 0.21498,0.025 0.25087,0.0302 0.0252,0 0.0532,0.002 0.0834,0.004 0.0302,0.003 0.0561,0.004 0.0762,0.004 h 0.0755 l -0.0604,-0.008 c -0.14725,-0.0302 -0.33922,-0.10712 -0.57794,-0.23154 m 0.37676,0.4975 c -0.0482,-0.005 -0.0957,-0.0101 -0.14098,-0.0151 -0.22786,-0.0201 -0.52051,-0.0576 -0.87721,-0.11006 -0.35726,-0.0532 -0.56358,-0.0906 -0.61972,-0.10989 -0.0653,-0.0259 -0.16602,-0.0712 -0.29983,-0.13749 -0.13436,-0.0653 -0.217,-0.1084 -0.24663,-0.12865 -0.0913,-0.0661 -0.16529,-0.12939 -0.22069,-0.18976 -0.0561,-0.0611 -0.12442,-0.15461 -0.20559,-0.28106 -0.10638,-0.15755 -0.17908,-0.2805 -0.21995,-0.36884 -0.0403,-0.0885 -0.0712,-0.17836 -0.0913,-0.26965 -0.0101,-0.0812 -0.0289,-0.18111 -0.0569,-0.30056 -0.028,-0.11853 -0.0569,-0.23154 -0.0871,-0.33793 -0.0158,-0.0561 -0.0272,-0.10933 -0.0344,-0.15957 -0.008,-0.051 -0.0116,-0.13952 -0.0116,-0.26597 -0.01,-0.16178 -0.01,-0.35596 0,-0.58161 0.0101,-0.2251 0.0252,-0.39112 0.046,-0.49769 0.005,-0.0401 0.0158,-0.0933 0.0339,-0.15958 0.018,-0.0653 0.0388,-0.12644 0.0646,-0.18185 0.0756,-0.21276 0.13087,-0.36737 0.16326,-0.46382 0.0331,-0.0963 0.0569,-0.16749 0.072,-0.21277 0.0107,-0.0351 0.0245,-0.0683 0.0416,-0.0985 0.018,-0.0302 0.0425,-0.0661 0.0727,-0.10712 0.0502,-0.0554 0.10142,-0.11871 0.15167,-0.18976 0.051,-0.0705 0.10933,-0.15387 0.17467,-0.25031 0.0309,-0.0352 0.0591,-0.0683 0.0841,-0.0992 0.0252,-0.0302 0.0425,-0.048 0.0526,-0.0532 0.0107,-0.004 0.0243,-0.0121 0.0416,-0.023 0.0188,-0.009 0.0346,-0.0193 0.0497,-0.0302 0.051,-0.0403 0.13804,-0.097 0.26228,-0.17117 0.12442,-0.0725 0.22437,-0.12424 0.30056,-0.15516 0.12148,-0.0554 0.26817,-0.10638 0.44008,-0.15166 0.17246,-0.046 0.34732,-0.0856 0.52475,-0.11798 0.17688,-0.0331 0.34657,-0.0569 0.5091,-0.0727 0.16178,-0.01 0.28823,-0.01 0.3797,0 0.13731,0.0202 0.28603,0.0526 0.44855,0.095 0.16178,0.0431 0.36958,0.10786 0.62266,0.19418 0.14743,0.0453 0.26743,0.0898 0.36094,0.13289 0.0935,0.0433 0.16822,0.0871 0.22436,0.13307 0.0151,0.0151 0.0315,0.028 0.0495,0.0381 0.0173,0.0101 0.0317,0.0173 0.0418,0.0223 0.005,0.005 0.023,0.0195 0.0532,0.0425 0.0309,0.0223 0.0631,0.0466 0.0985,0.0718 0.17762,0.14172 0.33075,0.27756 0.45941,0.40621 0.13013,0.12939 0.22712,0.24443 0.29338,0.34584 0.0804,0.12222 0.13289,0.21149 0.15516,0.26965 0.023,0.0589 0.0519,0.17393 0.0878,0.34657 0.0101,0.0503 0.0252,0.10989 0.0453,0.17836 0.0201,0.0675 0.0381,0.12497 0.0532,0.17025 l 0.0611,0.15957 -0.008,0.44873 c 0,0.28327 -0.0122,0.50763 -0.0381,0.67218 -0.0252,0.16473 -0.0733,0.36093 -0.14375,0.58898 -0.0201,0.071 -0.074,0.19767 -0.16031,0.38026 -0.0856,0.18184 -0.15166,0.31123 -0.19694,0.38743 -0.0512,0.0814 -0.12295,0.17762 -0.21719,0.28842 -0.0935,0.11135 -0.19049,0.21277 -0.29191,0.30406 -0.0359,0.0353 -0.0734,0.0734 -0.1143,0.1143 -0.0403,0.0403 -0.0712,0.0705 -0.0913,0.0906 -0.0453,0.0403 -0.0906,0.0777 -0.13657,0.1108 -0.0455,0.0324 -0.11651,0.0747 -0.21295,0.12516 -0.0963,0.0554 -0.19694,0.0963 -0.30406,0.12147 -0.10565,0.0252 -0.23007,0.0431 -0.3718,0.0532 -0.1524,0.0109 -0.3486,0.0166 -0.58879,0.0188 -0.24075,0.003 -0.38394,0.002 -0.42922,-0.004 -0.0208,-0.004 -0.0547,-0.009 -0.10271,-0.0151"
       style="fill:#21201d;fill-opacity:1;fill-rule:nonzero;stroke:none;stroke-width:0.184056"
       id="path612" />
  </g>
</svg>
