<?xml version="1.0" encoding="UTF-8" standalone="no"?>
<!-- Created with Inkscape (http://www.inkscape.org/) -->

<svg
   width="6.6258183mm"
   height="5.56845mm"
   viewBox="0 0 6.6258183 5.56845"
   version="1.1"
   id="svg2901"
   inkscape:version="1.1.2 (0a00cf5339, 2022-02-04)"
   sodipodi:docname="m5.svg"
   xmlns:inkscape="http://www.inkscape.org/namespaces/inkscape"
   xmlns:sodipodi="http://sodipodi.sourceforge.net/DTD/sodipodi-0.dtd"
   xmlns="http://www.w3.org/2000/svg"
   xmlns:svg="http://www.w3.org/2000/svg">
  <sodipodi:namedview
     id="namedview2903"
     pagecolor="#ffffff"
     bordercolor="#666666"
     borderopacity="1.0"
     inkscape:pageshadow="2"
     inkscape:pageopacity="0.0"
     inkscape:pagecheckerboard="0"
     inkscape:document-units="mm"
     showgrid="false"
     inkscape:zoom="0.64052329"
     inkscape:cx="-758.75461"
     inkscape:cy="455.09665"
     inkscape:window-width="2560"
     inkscape:window-height="1376"
     inkscape:window-x="0"
     inkscape:window-y="0"
     inkscape:window-maximized="1"
     inkscape:current-layer="layer1" />
  <defs
     id="defs2898" />
  <g
     inkscape:label="Layer 1"
     inkscape:groupmode="layer"
     id="layer1"
     transform="translate(-305.66557,-28.196291)">
    <path
       d="m 310.71288,32.704951 c 0.0258,-0.01086 0.0495,-0.0208 0.0712,-0.03166 0.0315,-0.0208 0.0661,-0.03663 0.10271,-0.04749 0.0366,-0.01067 0.10289,-0.02374 0.19694,-0.03957 0.12166,-0.0265 0.2078,-0.04749 0.25749,-0.06313 0.0503,-0.01583 0.0985,-0.03957 0.1467,-0.07123 0.0683,-0.04749 0.12644,-0.09645 0.17393,-0.146693 0.0475,-0.04969 0.0841,-0.103624 0.1108,-0.161785 0.0309,-0.06332 0.051,-0.115772 0.0589,-0.158105 0.008,-0.04252 0.0122,-0.105832 0.0122,-0.189946 v -0.150189 l -0.0473,-0.04749 c -0.0583,-0.05246 -0.1697,-0.08043 -0.33664,-0.08264 -0.16601,-0.0029 -0.32485,0.01933 -0.47799,0.06681 -0.021,0.0052 -0.0519,0.0116 -0.0913,0.02025 -0.0396,0.0072 -0.0777,0.01436 -0.1143,0.01933 -0.0482,0 -0.0836,0.0037 -0.1073,0.0116 -0.0236,0.0085 -0.0488,0.02006 -0.0747,0.03589 -0.0166,0.01583 -0.0401,0.03166 -0.0711,0.04749 -0.0324,0.01583 -0.0583,0.02871 -0.0791,0.03957 -0.0475,0.0208 -0.10289,0.06184 -0.16602,0.12295 -0.0633,0.06037 -0.10362,0.111354 -0.11872,0.153687 -0.0158,0.04252 -0.0252,0.09939 -0.028,0.1697 -0.003,0.07197 0.002,0.128103 0.0121,0.170436 0.0158,0.05246 0.0418,0.109329 0.0784,0.169699 0.0374,0.06111 0.069,0.102152 0.0948,0.12295 0.064,0.04749 0.11798,0.07546 0.16252,0.08338 0.0453,0.0072 0.0985,0.0037 0.16179,-0.01215 0.0215,-0.01086 0.0453,-0.02098 0.072,-0.03166 m -0.36019,-1.886576 c 0.0237,-0.0762 0.0675,-0.177614 0.13086,-0.304245 0.0366,-0.08467 0.0582,-0.148717 0.0631,-0.193995 0.005,-0.04454 -0.003,-0.08559 -0.0236,-0.122213 -0.0217,-0.03166 -0.044,-0.05466 -0.0677,-0.06755 -0.0237,-0.01307 -0.0639,-0.02245 -0.12221,-0.02742 -0.10068,-0.02154 -0.16602,-0.03589 -0.19842,-0.0438 -0.0309,-0.0079 -0.0468,-0.01951 -0.0468,-0.03534 -0.006,-0.01583 -0.003,-0.02503 0.007,-0.02798 0.0109,-0.0029 0.0482,-0.0018 0.11154,0.0037 0.0366,0 0.0784,0.0042 0.12645,0.01215 0.0475,0.0079 0.0871,0.0173 0.11871,0.02798 0.10491,0.03166 0.16676,0.05393 0.18553,0.067 0.0186,0.01288 0.0329,0.04877 0.0431,0.106385 0.006,0.04804 0.0173,0.09921 0.0359,0.154607 0.0188,0.05522 0.0331,0.08835 0.044,0.09921 0.005,0.005 0.01,0.01141 0.0158,0.01933 0.005,0.0079 0.008,0.0173 0.008,0.02798 0,0.0052 0,0.01012 0.003,0.01583 0.003,0.0052 0.006,0.0079 0.0122,0.0079 0.0109,0 0.021,0.01307 0.0317,0.03957 0.0101,0.02595 0.0158,0.0497 0.0158,0.07123 0,0.01086 -0.0107,0.02871 -0.0317,0.0554 -0.0215,0.02651 -0.0374,0.03884 -0.048,0.03884 -0.005,0 -0.009,-0.0037 -0.0116,-0.01159 -0.002,-0.0079 -0.006,-0.0173 -0.0114,-0.02724 -0.006,-0.03166 -0.0202,-0.05687 -0.044,-0.07491 -0.023,-0.01933 -0.051,-0.02577 -0.0826,-0.02006 -0.0317,0.005 -0.0539,0.01436 -0.0675,0.02742 -0.0129,0.01288 -0.0223,0.03295 -0.0272,0.05963 0,0.01583 -0.006,0.03515 -0.0158,0.0589 -0.0109,0.02448 -0.0217,0.04675 -0.0317,0.06755 -0.0109,0.02098 -0.0202,0.04104 -0.0282,0.05908 -0.008,0.01859 -0.0114,0.03092 -0.0114,0.03589 0,0.005 -0.004,0.01067 -0.0123,0.01583 -0.008,0.005 -0.0171,0.01012 -0.0272,0.01583 -0.0265,0.005 -0.041,0.0094 -0.0438,0.01141 -0.002,0.0029 -0.006,-0.0018 -0.0116,-0.01141 -0.0166,-0.01086 -0.0122,-0.05393 0.0116,-0.130864 m -1.46307,-0.162521 c -0.008,-0.01012 -0.0123,-0.01804 -0.0123,-0.02374 0,-0.01012 0.0158,-0.03092 0.0475,-0.06258 0.0317,-0.03166 0.074,-0.06902 0.12645,-0.110617 0.0849,-0.06332 0.14669,-0.126631 0.18626,-0.189946 0.0396,-0.06313 0.0648,-0.134361 0.0747,-0.213505 0.0109,-0.05319 0.0309,-0.121478 0.0598,-0.205591 0.0287,-0.08485 0.0488,-0.126447 0.0589,-0.126447 0.006,-0.0059 0.0144,-0.0059 0.028,0 0.0131,0.005 0.0252,0.01288 0.0353,0.02301 0.0317,0.02154 0.0488,0.04528 0.0517,0.07178 0.003,0.02595 -0.009,0.0554 -0.0352,0.08706 -0.0166,0.01012 -0.0282,0.02374 -0.0361,0.03957 -0.008,0.01509 -0.0122,0.02871 -0.0122,0.03884 v 0.05963 c 0,0.02945 -0.002,0.05669 -0.008,0.08264 l -0.007,0.110802 0.0468,0.04804 c 0.0215,0.02098 0.0401,0.0346 0.0552,0.03957 0.0166,0.0052 0.0504,0.01012 0.10288,0.01583 0.0532,0.0052 0.11357,0.01656 0.18259,0.03534 0.0683,0.01859 0.11871,0.03589 0.15037,0.05172 0.0158,0.01012 0.025,0.02227 0.0272,0.03515 0.002,0.01362 0,0.03092 -0.0114,0.05172 l -0.0237,0.03957 -0.12663,-0.0079 c -0.0374,-0.0057 -0.0725,-0.01068 -0.10713,-0.01583 -0.0344,-0.0057 -0.0589,-0.01068 -0.0755,-0.01583 -0.0158,-0.0057 -0.0324,-0.0092 -0.051,-0.01215 -0.0188,-0.0022 -0.0361,-0.0035 -0.0512,-0.0035 -0.0114,0 -0.025,-0.0029 -0.0438,-0.0087 -0.0188,-0.0044 -0.0331,-0.01012 -0.0438,-0.01509 -0.0309,-0.01583 -0.0648,-0.01877 -0.0985,-0.0079 -0.0346,0.0099 -0.0915,0.04454 -0.17044,0.102703 -0.0841,0.05246 -0.14098,0.09 -0.1697,0.110066 -0.0287,0.02154 -0.0517,0.03442 -0.0675,0.04031 -0.005,0.005 -0.0116,0.005 -0.0195,0 -0.008,-0.0059 -0.0201,-0.01583 -0.0352,-0.03166 -0.0109,-0.01086 -0.0201,-0.02154 -0.028,-0.03239 m 1.50687,2.911032 c 0.0208,-0.0099 0.0396,-0.02374 0.0554,-0.03939 0.0208,-0.02098 0.0337,-0.0381 0.0388,-0.05117 0.006,-0.01362 0.009,-0.0438 0.009,-0.09129 0,-0.04675 -0.003,-0.08043 -0.009,-0.09847 -0.005,-0.01877 -0.018,-0.04601 -0.0388,-0.08338 -0.0158,-0.02595 -0.0317,-0.0554 -0.0482,-0.08706 -0.0158,-0.03166 -0.0259,-0.05816 -0.0309,-0.07914 -0.0158,-0.02577 -0.0294,-0.04877 -0.0396,-0.06681 -0.0107,-0.01859 -0.0238,-0.03295 -0.0396,-0.0438 -0.0374,-0.02154 -0.0849,-0.06552 -0.14301,-0.134546 -0.0574,-0.06828 -0.0942,-0.118532 -0.11006,-0.150189 -0.0164,-0.03663 -0.0287,-0.0935 -0.0394,-0.170436 -0.0109,-0.0762 -0.0158,-0.153871 -0.0158,-0.232831 0,-0.06902 -0.008,-0.117244 -0.0245,-0.146693 -0.0151,-0.02871 -0.0467,-0.04896 -0.0942,-0.05908 -0.0582,-0.01565 -0.18976,-0.02798 -0.39535,-0.03589 -0.20633,-0.0079 -0.37455,-0.0087 -0.50615,-0.0035 -0.17412,0.0057 -0.27977,0.01859 -0.3164,0.03939 -0.0374,0.02098 -0.0561,0.07123 -0.0561,0.150374 0,0.07399 0.0294,0.163257 0.0871,0.268906 0.0582,0.105648 0.15019,0.237248 0.27682,0.395352 0.0317,0.04252 0.0626,0.07123 0.0913,0.08706 0.0287,0.01583 0.0985,0.05025 0.21001,0.102703 0.0107,0 0.0416,0.02522 0.094,0.07565 0.0532,0.04951 0.10859,0.10344 0.1662,0.161786 0.11633,0.116323 0.19768,0.192522 0.2459,0.229334 0.0466,0.03736 0.10491,0.06313 0.1732,0.07896 0.0423,0.01086 0.10859,0.0173 0.19767,0.02025 0.0898,0.002 0.15608,-0.0018 0.19842,-0.01233 0.021,-0.005 0.0418,-0.01288 0.0633,-0.02374 m -3.8996,-2.463776 c 0,-0.0072 0.0107,-0.02448 0.0315,-0.05117 0.0158,-0.01068 0.0331,-0.02006 0.0512,-0.02798 0.0186,-0.0079 0.0388,-0.0116 0.0596,-0.0116 0.0475,-0.01067 0.095,-0.0265 0.14228,-0.0473 0.0475,-0.02154 0.0841,-0.04749 0.1108,-0.07914 0.0267,-0.02669 0.051,-0.06608 0.0755,-0.118716 0.0237,-0.05319 0.0353,-0.09203 0.0353,-0.118532 0,-0.03166 0.0171,-0.07123 0.0517,-0.118717 0.0344,-0.0473 0.0618,-0.07105 0.0826,-0.07105 0.006,0 0.0144,0.005 0.0272,0.01583 0.0138,0.01068 0.0282,0.02374 0.044,0.03939 0.0423,0.04252 0.0992,0.07491 0.1697,0.09865 0.071,0.02374 0.14945,0.0381 0.2343,0.04307 0.0683,0.0057 0.11927,0.0022 0.15314,-0.0116 0.0346,-0.01288 0.0655,-0.0381 0.0913,-0.07473 0.0158,-0.0265 0.0438,-0.04878 0.0834,-0.06755 0.0396,-0.01859 0.0828,-0.03239 0.13012,-0.04307 l 0.0554,-0.0079 -0.0475,0.06313 c -0.0683,0.08927 -0.14375,0.161786 -0.22492,0.217187 -0.0821,0.0554 -0.16252,0.09129 -0.24093,0.10712 -0.0532,0.01086 -0.0992,0.01086 -0.13878,0 -0.0396,-0.01067 -0.0784,-0.03239 -0.11503,-0.06331 -0.0475,-0.03663 -0.092,-0.05025 -0.13436,-0.03939 -0.0425,0.0099 -0.0762,0.05025 -0.10289,0.118532 -0.0208,0.04749 -0.0646,0.09994 -0.13013,0.158104 -0.0661,0.05761 -0.12792,0.09497 -0.18626,0.110802 -0.0317,0.01012 -0.0762,0.01583 -0.13436,0.01583 -0.0584,0 -0.10289,-0.0057 -0.13455,-0.01583 -0.0265,-0.005 -0.0394,-0.01215 -0.0394,-0.02006 m 3.29774,0.747636 c 0.0425,-0.01068 0.0692,-0.03442 0.0799,-0.07123 0.0101,-0.03147 0.009,-0.07105 -0.004,-0.118533 -0.0131,-0.04749 -0.0353,-0.107857 -0.067,-0.181847 -0.0315,-0.06332 -0.0517,-0.113747 -0.0596,-0.150374 -0.008,-0.03663 -0.006,-0.07896 0.004,-0.126447 0.01,-0.05246 0.0238,-0.08411 0.0388,-0.09497 0.0164,-0.01067 0.0294,0.0022 0.0401,0.03957 0.005,0.01012 0.0101,0.02227 0.0151,0.03589 0.006,0.01307 0.009,0.02227 0.009,0.02742 0,0.03166 0.0237,0.09626 0.0712,0.193443 0.0467,0.09773 0.0812,0.154423 0.10215,0.170252 0.006,0 0.0107,0.0052 0.0164,0.01583 0.005,0.01012 0.007,0.0208 0.007,0.03166 0.006,0.02669 0.0186,0.04601 0.0401,0.0589 0.021,0.01381 0.0468,0.02025 0.0792,0.02025 0.0259,0 0.0539,-0.0086 0.0826,-0.02374 0.0287,-0.01583 0.0698,-0.04749 0.12295,-0.09497 0.0525,-0.04233 0.0999,-0.07104 0.14246,-0.08687 0.0416,-0.01583 0.097,-0.02374 0.16528,-0.02374 0.0267,0 0.0517,-0.0022 0.0755,-0.0079 0.0238,-0.0052 0.0438,-0.01086 0.0596,-0.01583 0.0101,-0.0052 0.0237,-0.01086 0.0388,-0.01583 0.0166,-0.0057 0.0294,-0.01086 0.0396,-0.01583 0.0215,0 0.0346,-0.0029 0.0403,-0.0079 0.005,-0.005 0.008,-0.01583 0.008,-0.03166 0,-0.005 0.002,-0.01362 0.008,-0.02374 0.005,-0.01068 0.0107,-0.01859 0.0158,-0.02374 0.0107,-0.01067 0.0238,-0.03663 0.0396,-0.07896 0.0158,-0.04252 0.0287,-0.09497 0.0394,-0.158288 0.005,-0.04233 0.0153,-0.08835 0.0317,-0.138779 0.0158,-0.05025 0.0339,-0.0935 0.0554,-0.130127 0.0101,-0.0265 0.0317,-0.04877 0.0633,-0.06755 0.0317,-0.01804 0.0604,-0.02724 0.0871,-0.02724 0.0366,0 0.0582,0.0064 0.0631,0.01933 0.005,0.01288 -0.005,0.04601 -0.0317,0.09921 -0.0164,0.02669 -0.0315,0.0589 -0.0473,0.09921 -0.0158,0.03884 -0.0296,0.07197 -0.0396,0.09847 -0.0109,0.03166 -0.023,0.06331 -0.0361,0.09497 -0.0129,0.03166 -0.0243,0.05246 -0.0352,0.06331 -0.0208,0.03166 -0.0316,0.05393 -0.0316,0.06681 0,0.01362 0.005,0.03313 0.0158,0.05963 0.0208,0.03166 0.0504,0.05117 0.0871,0.05908 0.0366,0.0085 0.12074,0.01215 0.25308,0.01215 0.10491,-0.005 0.17393,-0.0094 0.20559,-0.01215 0.0317,-0.0022 0.0604,-0.0087 0.0871,-0.01951 0.0948,-0.05246 0.15958,-0.09921 0.19326,-0.138778 0.0346,-0.03957 0.0806,-0.114299 0.13878,-0.224917 0.026,-0.06331 0.0418,-0.107121 0.0475,-0.130864 0.005,-0.02374 0.008,-0.06773 0.008,-0.130864 0,-0.05264 -0.002,-0.08927 -0.004,-0.110802 -0.003,-0.02006 -0.0123,-0.04454 -0.0282,-0.07049 -0.0158,-0.01583 -0.0302,-0.03295 -0.0438,-0.05172 -0.0129,-0.01804 -0.0252,-0.03313 -0.0353,-0.04307 -0.0215,-0.01086 -0.0381,-0.0173 -0.0517,-0.02025 -0.0129,-0.0028 -0.0352,-0.0035 -0.0668,-0.0035 -0.12147,0.01583 -0.19491,0.02374 -0.22142,0.02374 -0.0267,0 -0.0611,-0.0079 -0.10288,-0.02374 -0.0317,-0.01086 -0.0848,-0.02098 -0.15811,-0.03166 -0.074,-0.01086 -0.1316,-0.01583 -0.17393,-0.01583 -0.0109,0 -0.0188,-0.0029 -0.0237,-0.0079 -0.006,-0.005 -0.008,-0.01583 -0.008,-0.03166 0,-0.04749 0.0107,-0.07399 0.0317,-0.07988 0.0208,-0.005 0.0819,-0.002 0.18185,0.0086 0.0475,0.0052 0.0963,0.01307 0.14595,0.02374 0.0503,0.01086 0.0856,0.01804 0.10712,0.02374 0.0841,0.02595 0.16105,0.03313 0.22934,0.01951 0.0683,-0.01307 0.11062,-0.04105 0.12645,-0.08282 0.0109,-0.0265 0.0158,-0.08485 0.0158,-0.173933 0,-0.08982 -0.008,-0.155344 -0.0237,-0.197677 -0.0107,-0.03736 -0.0381,-0.08982 -0.0826,-0.158104 -0.0453,-0.06902 -0.0883,-0.126631 -0.13086,-0.174117 -0.0107,-0.01067 -0.0265,-0.02448 -0.0473,-0.03957 -0.0217,-0.01583 -0.0396,-0.02945 -0.0561,-0.03939 -0.026,-0.01656 -0.0438,-0.0289 -0.0547,-0.03957 -0.0109,-0.01086 -0.0188,-0.02374 -0.0237,-0.04031 -0.006,-0.05246 -0.0374,-0.09424 -0.095,-0.125894 -0.0582,-0.03166 -0.11854,-0.04528 -0.18185,-0.04012 -0.0215,0.0057 -0.0396,0.01215 -0.0554,0.02006 -0.0158,0.0079 -0.0344,0.02006 -0.0552,0.03589 -0.021,0.02595 -0.0331,0.04454 -0.0361,0.05466 -0.002,0.01086 -0.004,0.03957 -0.004,0.08779 0.006,0.03092 0.0122,0.0646 0.0201,0.09847 0.008,0.03442 0.023,0.07546 0.0433,0.12295 0.0265,0.05743 0.0431,0.09479 0.048,0.109881 0.005,0.01656 0.002,0.02963 -0.008,0.04031 l -0.0237,0.02301 c -0.006,0.0059 -0.0107,0.0086 -0.0164,0.0086 -0.0101,0 -0.044,-0.03166 -0.10215,-0.09553 -0.0583,-0.06258 -0.095,-0.110065 -0.11154,-0.142459 -0.0416,-0.06828 -0.0797,-0.106385 -0.1143,-0.114299 -0.0344,-0.0079 -0.0933,0.0094 -0.17817,0.05098 -0.0309,0.01086 -0.0633,0.02172 -0.0942,0.03239 -0.0324,0.01012 -0.0663,0.01583 -0.10289,0.01583 -0.0582,0.01086 -0.0935,0.0116 -0.10712,0.0037 -0.0129,-0.0079 -0.0201,-0.03018 -0.0201,-0.067 0.006,-0.0265 0.0107,-0.04233 0.0166,-0.04804 0.005,-0.0052 0.0258,-0.0079 0.0631,-0.0079 0.0792,-0.01012 0.15258,-0.02945 0.22087,-0.05908 0.069,-0.02871 0.13731,-0.07252 0.20633,-0.130128 0.074,-0.05319 0.12644,-0.10344 0.1581,-0.15019 0.0317,-0.04749 0.0475,-0.09571 0.0475,-0.142459 0,-0.02154 -0.004,-0.03736 -0.0121,-0.0473 -0.008,-0.01086 -0.0225,-0.02742 -0.0433,-0.04749 -0.0317,-0.02669 -0.0935,-0.06258 -0.18627,-0.107121 -0.092,-0.04528 -0.14872,-0.06755 -0.17025,-0.06755 -0.026,0 -0.0633,0.01583 -0.11007,0.04804 -0.0475,0.03092 -0.0898,0.07123 -0.12663,0.11798 -0.0265,0.03736 -0.0532,0.06608 -0.079,0.08706 -0.0267,0.02153 -0.0742,0.05025 -0.14246,0.08761 -0.0423,0.02595 -0.0834,0.04822 -0.12295,0.06681 -0.0394,0.01804 -0.0618,0.03037 -0.0668,0.03534 -0.0215,0.01583 -0.0517,0.02153 -0.0913,0.01583 -0.0396,-0.0052 -0.0618,-0.01288 -0.0676,-0.02301 0,-0.01583 0.0374,-0.04896 0.11062,-0.09921 0.0742,-0.05043 0.14596,-0.08853 0.21369,-0.114299 0.0631,-0.02742 0.11282,-0.05982 0.14651,-0.09921 0.0346,-0.03957 0.0519,-0.08062 0.0519,-0.122949 0,-0.03681 -0.0109,-0.06828 -0.0317,-0.09424 -0.0215,-0.02669 -0.0554,-0.05043 -0.10362,-0.07123 -0.0258,-0.01068 -0.051,-0.02448 -0.0747,-0.03957 -0.0237,-0.01638 -0.041,-0.02945 -0.0517,-0.04012 -0.0309,-0.02595 -0.0734,-0.05264 -0.12663,-0.07841 -0.0525,-0.02669 -0.10491,-0.04822 -0.1581,-0.06405 -0.0468,-0.0099 -0.0891,-0.01656 -0.12663,-0.01933 -0.0359,-0.0029 -0.10988,-0.0037 -0.22142,-0.0037 -0.12645,0.0052 -0.20486,0.0094 -0.23725,0.0116 -0.0309,0.0028 -0.0711,0.01509 -0.1178,0.03515 -0.0317,0.01583 -0.0611,0.03239 -0.0878,0.04749 -0.026,0.01583 -0.0445,0.0265 -0.0547,0.03166 -0.0107,0.01656 -0.0186,0.03295 -0.0237,0.05172 -0.006,0.01877 -0.009,0.05687 -0.009,0.115036 0,0.06332 0.003,0.106384 0.009,0.130127 0.005,0.02374 0.0151,0.05393 0.0309,0.09056 0.0215,0.04822 0.049,0.08706 0.0834,0.119452 0.0346,0.03092 0.067,0.04951 0.0986,0.05522 0.0107,0.0052 0.0265,0.0116 0.048,0.01951 0.021,0.0079 0.0418,0.0173 0.0633,0.02798 0.0208,0.01012 0.0431,0.02098 0.0668,0.03092 0.0237,0.01086 0.0433,0.01877 0.0591,0.02374 0.0164,0 0.0294,0.0044 0.0401,0.01233 0.0101,0.0079 0.0158,0.01436 0.0158,0.02006 0.005,0.0208 -0.003,0.03387 -0.0245,0.03957 -0.0208,0.005 -0.0604,0.0072 -0.11854,0.0072 -0.0524,0 -0.0863,0 -0.10215,-0.0037 -0.0166,-0.0028 -0.0294,-0.0092 -0.0403,-0.01933 -0.0107,-0.01583 -0.0201,-0.02521 -0.0307,-0.02816 -0.0109,-0.0028 -0.0267,-0.0035 -0.0482,-0.0035 -0.0418,0 -0.0734,0.01012 -0.095,0.03166 -0.0208,0.0208 -0.0366,0.05743 -0.0467,0.109882 -0.006,0.03239 -0.023,0.07565 -0.0517,0.130864 -0.0287,0.0554 -0.0618,0.107121 -0.0985,0.154607 -0.0215,0.02595 -0.072,0.07914 -0.15093,0.157552 -0.0791,0.0797 -0.12092,0.119269 -0.12663,0.119269 -0.005,0 -0.0129,-0.0042 -0.0237,-0.01215 -0.0107,-0.0079 -0.0208,-0.0173 -0.0317,-0.02742 -0.0208,-0.0265 -0.0272,-0.0473 -0.0193,-0.06313 0.008,-0.01656 0.0567,-0.07417 0.14669,-0.174117 0.079,-0.08485 0.1351,-0.155895 0.1697,-0.213505 0.0337,-0.05816 0.0567,-0.119268 0.0668,-0.181848 0.0215,-0.08982 0.028,-0.165466 0.0201,-0.225836 -0.008,-0.06111 -0.0329,-0.159577 -0.0755,-0.296883 -0.0101,-0.03663 -0.0208,-0.07123 -0.0317,-0.102887 -0.01,-0.03147 -0.0158,-0.05246 -0.0158,-0.06313 -0.005,-0.02595 -0.0208,-0.05246 -0.0468,-0.07841 -0.0265,-0.02669 -0.0532,-0.04252 -0.0797,-0.04822 -0.021,-0.0042 -0.0683,-0.0022 -0.14246,0.0079 -0.0733,0.01086 -0.15516,0.02669 -0.24516,0.04822 -0.0366,0.01012 -0.0762,0.01804 -0.11854,0.02301 -0.0418,0.0057 -0.0742,0.0086 -0.0942,0.0086 -0.0532,0 -0.097,0.0064 -0.13087,0.01933 -0.0344,0.01307 -0.0589,0.03313 -0.0755,0.05908 -0.0109,0.01068 -0.0208,0.02356 -0.0317,0.03939 -0.0101,0.01583 -0.0208,0.02945 -0.0317,0.03957 -0.0366,0.04252 -0.0445,0.08982 -0.0237,0.143196 0.021,0.05246 0.069,0.110618 0.1432,0.173933 0.0524,0.0416 0.10712,0.07325 0.16528,0.09479 0.0582,0.02098 0.11651,0.03092 0.17393,0.03092 0.0317,0 0.0554,0.0029 0.0712,0.0079 0.0158,0.0059 0.0294,0.0138 0.0396,0.02448 0.0109,0.01012 0.0166,0.01804 0.0166,0.02374 0,0.005 -0.006,0.0072 -0.0166,0.0072 -0.005,0.0057 -0.018,0.01362 -0.0396,0.02374 -0.0208,0.01086 -0.0416,0.02154 -0.0633,0.03239 -0.0265,0.0208 -0.0495,0.03368 -0.0711,0.03957 -0.021,0.005 -0.0447,0.0079 -0.0712,0.0079 -0.0309,0 -0.051,-0.0029 -0.0589,-0.0079 -0.008,-0.0059 -0.0202,-0.02448 -0.0361,-0.0554 -0.0208,-0.04252 -0.0401,-0.06976 -0.0596,-0.08338 -0.018,-0.01307 -0.0431,-0.02025 -0.0747,-0.02025 -0.0259,0 -0.0482,0.0059 -0.0668,0.01656 -0.0188,0.01012 -0.0539,0.04454 -0.10731,0.102887 -0.0473,0.04749 -0.0854,0.08117 -0.1143,0.102703 -0.0294,0.02098 -0.0646,0.03884 -0.10712,0.0554 l -0.0948,0.03957 0.008,-0.166755 0.0869,-0.05466 c 0.0267,-0.01583 0.0554,-0.03589 0.0871,-0.05963 0.0317,-0.02374 0.0582,-0.04325 0.0791,-0.05964 0.0374,-0.03166 0.0582,-0.05264 0.0631,-0.06258 0.005,-0.01086 0.008,-0.03239 0.008,-0.06405 0,-0.04178 -0.0114,-0.08485 -0.0352,-0.130128 -0.0237,-0.04454 -0.0626,-0.09626 -0.11503,-0.154607 -0.0423,-0.0416 -0.0725,-0.06976 -0.0906,-0.08264 -0.0188,-0.01288 -0.0359,-0.01951 -0.0517,-0.01951 -0.0267,0 -0.0512,0.0087 -0.0749,0.02742 -0.0237,0.01859 -0.0438,0.04601 -0.0596,0.08338 -0.0158,0.03092 -0.0431,0.06332 -0.0826,0.09424 -0.0403,0.03239 -0.0834,0.05319 -0.13087,0.06313 -0.0158,0.0059 -0.0366,0.01233 -0.0626,0.02025 -0.0265,0.0079 -0.051,0.0173 -0.0718,0.02798 -0.0158,0.01012 -0.0368,0.01951 -0.0633,0.02743 -0.026,0.0079 -0.0475,0.01141 -0.0633,0.01141 -0.0259,0.0057 -0.0633,0.02227 -0.1108,0.05172 -0.0473,0.0289 -0.1027,0.06773 -0.16602,0.115035 -0.0366,0.03166 -0.0935,0.09203 -0.17043,0.182032 -0.0762,0.08982 -0.1351,0.165282 -0.17762,0.229334 -0.0208,0.03092 -0.0423,0.06184 -0.0631,0.09056 -0.021,0.02945 -0.0368,0.04896 -0.0475,0.05963 -0.0366,0.04178 -0.0489,0.08135 -0.0353,0.118717 0.0131,0.03663 0.0512,0.06534 0.11448,0.08687 0.0215,0.01086 0.0416,0.01804 0.0631,0.02374 0.0217,0.0052 0.0368,0.0079 0.0475,0.0079 0.005,0 0.0208,0.0037 0.0475,0.01159 0.0267,0.0079 0.0554,0.01436 0.0871,0.02006 0.0366,0.01509 0.0725,0.02595 0.10639,0.03166 0.0344,0.005 0.0725,0.0079 0.11503,0.0079 0.0683,0 0.12148,-0.0079 0.1581,-0.02448 0.0366,-0.01509 0.0769,-0.04675 0.11872,-0.09424 l 0.048,-0.06313 0.007,-0.166939 c 0.005,-0.104912 0.0145,-0.176142 0.0282,-0.212769 0.0129,-0.03663 0.0351,-0.05614 0.0668,-0.05614 0.0267,0 0.041,0.0087 0.0431,0.02374 0.003,0.01656 -0.006,0.06626 -0.0272,0.15111 -0.0158,0.06828 -0.0237,0.119269 -0.0237,0.153871 0,0.03442 0.005,0.06976 0.0158,0.107121 0.0158,0.0416 0.0438,0.06828 0.0834,0.07896 0.0388,0.01086 0.13308,0.01804 0.2805,0.02374 l 0.25308,0.0079 0.13436,0.06331 c 0.10565,0.04675 0.17265,0.08559 0.20136,0.114299 0.0294,0.02871 0.0337,0.06184 0.0121,0.09921 -0.005,0.01583 -0.01,0.02154 -0.0158,0.01951 -0.005,-0.0029 -0.0208,-0.01159 -0.0467,-0.02742 -0.0107,-0.01067 -0.0265,-0.02154 -0.048,-0.03166 -0.021,-0.01067 -0.0396,-0.01859 -0.0547,-0.02374 -0.0166,-0.0057 -0.0361,-0.01215 -0.0596,-0.02006 -0.0237,-0.0079 -0.044,-0.01656 -0.0598,-0.02724 -0.0316,-0.01656 -0.0963,-0.03313 -0.19399,-0.0519 -0.0972,-0.01859 -0.18553,-0.03019 -0.26468,-0.03589 -0.0475,-0.005 -0.0999,-0.0035 -0.1581,0.0042 -0.0576,0.0079 -0.15313,0.03037 -0.28473,0.067 -0.074,0.02154 -0.15461,0.03295 -0.24167,0.03589 -0.0869,0.0029 -0.15663,-0.0035 -0.20909,-0.01933 -0.0158,-0.01086 -0.0381,-0.02025 -0.0677,-0.02816 -0.0287,-0.0079 -0.0559,-0.01436 -0.0826,-0.01933 -0.0208,-0.0057 -0.0502,-0.01362 -0.0869,-0.02374 -0.0374,-0.01086 -0.0712,-0.02154 -0.10288,-0.03166 -0.0633,-0.02154 -0.10565,-0.03166 -0.12645,-0.03166 -0.0217,0 -0.0425,0.0079 -0.0633,0.02374 -0.0158,0.01583 -0.0287,0.04031 -0.0396,0.07473 -0.0109,0.0346 -0.0237,0.10436 -0.0396,0.209272 -0.0109,0.100679 -0.003,0.1697 0.0237,0.206327 0.0267,0.03663 0.0871,0.06037 0.18185,0.07123 0.0893,0.01012 0.18627,0.04454 0.28842,0.102703 0.10344,0.05761 0.1546,0.105833 0.1546,0.14246 0,0.01012 -0.0252,0.0094 -0.0749,-0.0044 -0.0502,-0.01288 -0.0883,-0.02724 -0.11503,-0.04307 -0.0374,-0.02669 -0.0747,-0.04528 -0.1143,-0.0554 -0.0396,-0.01068 -0.0935,-0.01859 -0.16252,-0.02374 -0.0525,-0.0057 -0.0854,-0.0064 -0.0992,-0.0042 -0.0129,0.0029 -0.0272,0.01215 -0.0431,0.02798 -0.0208,0.02098 -0.0317,0.04601 -0.0317,0.07473 0,0.0289 0.008,0.09148 0.0237,0.186265 0.0423,0.237248 0.0841,0.387622 0.12644,0.450754 0.0425,0.06331 0.14246,0.113746 0.30057,0.150373 0.0633,0.0208 0.12295,0.03515 0.17761,0.04381 0.0554,0.0072 0.11228,0.01362 0.17044,0.01951 0.0423,0.005 0.0871,0.01067 0.13436,0.01583 0.0475,0.005 0.0841,0.01067 0.1108,0.01564 0.0532,0.01583 0.14817,0.02669 0.28474,0.03166 0.1373,0.0052 0.22436,0.0029 0.26099,-0.0079 0.0475,-0.01068 0.0834,-0.02871 0.10638,-0.05522 0.0238,-0.02595 0.0547,-0.0762 0.0913,-0.150374 0.0267,-0.06331 0.049,-0.107857 0.0676,-0.134361 0.018,-0.02669 0.0539,-0.06037 0.10639,-0.102888 0.095,-0.08411 0.16252,-0.130863 0.20135,-0.138778 0.0403,-0.0079 0.0517,0.02301 0.0366,0.09129 -0.006,0.04178 -0.023,0.07914 -0.0517,0.110802 -0.0287,0.03166 -0.0618,0.05246 -0.0985,0.06331 -0.0324,0.01067 -0.0611,0.02871 -0.0878,0.05522 -0.0258,0.02669 -0.0423,0.0554 -0.0475,0.08706 -0.005,0.01583 -0.0107,0.03313 -0.0156,0.05098 -0.005,0.01877 -0.0101,0.03608 -0.0158,0.0519 -0.021,0.07399 -0.0101,0.130128 0.0315,0.1697 0.0425,0.04012 0.1316,0.06957 0.26891,0.09129 0.0217,0.005 0.0455,0.01215 0.0712,0.01933 0.0267,0.0087 0.0475,0.01509 0.0633,0.02006 0.0582,0.02098 0.14669,0.0289 0.26449,0.02374 0.11945,-0.005 0.19418,-0.02154 0.22584,-0.0473 0.0109,-0.01086 0.0237,-0.03018 0.0396,-0.05982 0.0158,-0.02871 0.0317,-0.0589 0.0475,-0.09055 0.0532,-0.132337 0.0977,-0.224365 0.13509,-0.276821 0.0359,-0.05319 0.0841,-0.09479 0.14228,-0.126447 0.0309,-0.01656 0.0814,-0.03608 0.15037,-0.05963 0.0683,-0.02374 0.10491,-0.03037 0.10988,-0.01951 -0.005,0.01583 -0.0107,0.02945 -0.0156,0.03884 0,0.01656 -0.004,0.03239 -0.0116,0.04822 l -0.0193,0.03957 c 0,0.01067 -0.008,0.02356 -0.0238,0.03939 -0.0158,0.01583 -0.0324,0.0289 -0.0475,0.03957 -0.0374,0.02098 -0.0792,0.05908 -0.12737,0.114299 -0.0473,0.0554 -0.0819,0.10436 -0.10197,0.146693 -0.0166,0.03663 -0.0267,0.07767 -0.0324,0.122949 -0.005,0.04454 0,0.07694 0.0158,0.09847 0.0109,0.02098 0.0317,0.03957 0.0633,0.0554 0.0317,0.01583 0.0582,0.0208 0.0797,0.01583 0.0101,0 0.0525,-0.0018 0.1259,-0.0035 0.0747,-0.0029 0.1581,-0.0074 0.25381,-0.01233 0.18976,0 0.30553,-0.005 0.34713,-0.01583 m -0.24075,1.791051 c -0.0655,-0.05466 -0.12792,-0.135281 -0.18626,-0.24093 -0.0265,-0.03663 -0.0554,-0.06976 -0.0869,-0.09921 -0.0316,-0.02871 -0.0784,-0.06111 -0.14246,-0.09847 -0.0633,-0.03663 -0.12074,-0.0762 -0.17319,-0.118716 -0.0532,-0.04233 -0.1086,-0.08982 -0.16621,-0.142276 -0.069,-0.07399 -0.13509,-0.166018 -0.19767,-0.27682 -0.0633,-0.110802 -0.12222,-0.234304 -0.17467,-0.371794 -0.005,-0.0265 -0.0144,-0.05246 -0.0274,-0.07896 -0.0136,-0.02595 -0.0223,-0.04528 -0.028,-0.0554 -0.005,-0.01086 -0.0114,-0.02522 -0.0193,-0.0438 -0.008,-0.01804 -0.0143,-0.03534 -0.0202,-0.05117 -0.0158,-0.0473 -0.0539,-0.08687 -0.1143,-0.118532 -0.0611,-0.03166 -0.14154,-0.05319 -0.24148,-0.06331 -0.0525,0 -0.0935,-0.005 -0.12222,-0.01583 -0.0296,-0.01012 -0.0727,-0.02871 -0.13086,-0.0554 -0.0576,-0.0265 -0.11007,-0.0473 -0.15829,-0.06313 -0.0473,-0.01583 -0.12148,-0.0346 -0.22142,-0.05614 -0.1581,-0.03092 -0.27038,-0.05043 -0.33572,-0.0589 -0.0661,-0.0079 -0.14172,-0.0116 -0.22583,-0.0116 -0.0525,0.005 -0.0933,0.0094 -0.12295,0.0116 -0.0287,0.0028 -0.0532,0.0092 -0.0747,0.02006 -0.0215,0.01012 -0.0381,0.0173 -0.051,0.01933 -0.0136,0.0029 -0.0339,0 -0.0596,-0.01141 -0.0158,-0.005 -0.0425,-0.01288 -0.0791,-0.02374 -0.0374,-0.01086 -0.074,-0.01804 -0.11081,-0.02374 -0.0898,-0.0265 -0.16601,-0.05816 -0.22933,-0.09497 -0.0631,-0.03663 -0.11853,-0.0819 -0.16602,-0.134361 -0.0208,-0.0265 -0.041,-0.05172 -0.0589,-0.07473 -0.0188,-0.02448 -0.0309,-0.03884 -0.0361,-0.0438 -0.0265,-0.04749 -0.0503,-0.159761 -0.0711,-0.335903 -0.0217,-0.176878 -0.0368,-0.391855 -0.0475,-0.644933 l -0.008,-0.260991 0.0475,-0.08687 c 0.0208,-0.05319 0.0495,-0.104359 0.0869,-0.154607 0.0366,-0.0497 0.11081,-0.143748 0.22142,-0.280501 0.0317,-0.04233 0.0606,-0.08043 0.0871,-0.115036 0.0267,-0.03368 0.0425,-0.05669 0.0475,-0.06681 0.0158,-0.03239 0.0633,-0.08835 0.14227,-0.170436 0.0791,-0.0819 0.164,-0.164546 0.25308,-0.24866 l 0.1662,-0.158288 0.11854,-0.03221 c 0.0633,-0.01583 0.14374,-0.04675 0.24166,-0.09497 0.097,-0.04749 0.17246,-0.08908 0.22492,-0.125894 l 0.0712,-0.04804 0.45075,0.0087 0.0712,-0.04822 c 0.0215,-0.01012 0.0453,-0.02154 0.072,-0.03515 0.0258,-0.01307 0.0495,-0.02246 0.0703,-0.02816 0.0166,-0.0042 0.0388,-0.01436 0.0677,-0.02724 0.0287,-0.0138 0.0539,-0.02816 0.0747,-0.04399 l 0.0791,-0.04657 h 0.22142 c 0.0898,0 0.1559,0.002 0.19768,0.0072 0.0423,0.0057 0.0928,0.01638 0.15019,0.03147 0.10583,0.02669 0.17043,0.04031 0.19418,0.04031 0.0237,0 0.0675,-0.01656 0.13086,-0.04822 0.0525,-0.0208 0.092,-0.03368 0.11798,-0.03939 0.0265,-0.0052 0.0849,-0.01012 0.17467,-0.01583 0.0891,0 0.17467,0.0042 0.25657,0.01215 0.0821,0.0079 0.17762,0.02798 0.28915,0.0589 0.0309,0.0059 0.0683,0.0138 0.11062,0.02374 0.0418,0.01086 0.0762,0.01877 0.10289,0.02374 0.074,0.01086 0.13013,0.02374 0.1697,0.03957 0.0396,0.01583 0.0804,0.04031 0.12295,0.07197 0.0525,0.03663 0.092,0.06184 0.11853,0.07473 0.026,0.01288 0.0841,0.02724 0.17338,0.04307 0.069,0.01583 0.12148,0.03019 0.15884,0.04399 0.0366,0.01288 0.0869,0.03589 0.15019,0.06681 0.0366,0.02154 0.0727,0.04233 0.10712,0.06332 0.0339,0.02153 0.0561,0.03736 0.067,0.04804 0.01,0.01012 0.025,0.03092 0.0431,0.06331 0.0188,0.03092 0.0351,0.06332 0.0517,0.09424 0.0317,0.06387 0.0524,0.102151 0.0633,0.115035 0.0101,0.01288 0.0366,0.02798 0.0791,0.04381 0.0258,0.01012 0.0539,0.02374 0.0826,0.03957 0.0294,0.01583 0.0517,0.03166 0.0675,0.04749 0.0525,0.03092 0.10786,0.07896 0.16602,0.142276 0.0583,0.06331 0.095,0.11301 0.1108,0.150374 0.0109,0.03147 0.0223,0.05393 0.0359,0.06681 0.0123,0.01362 0.0274,0.02227 0.0433,0.02724 0.0158,0.0059 0.0315,0.01086 0.0473,0.01656 0.0158,0.0052 0.0289,0.0052 0.0396,0 0.0151,0 0.0282,0.0037 0.0353,0.0116 0.008,0.0079 0.0171,0.03018 0.028,0.06755 0.0158,0.0416 0.0252,0.08411 0.0272,0.126447 0.003,0.04178 0.007,0.1316 0.0123,0.268906 0.005,0.115771 0.0101,0.204302 0.0158,0.264673 0.005,0.06037 0.0129,0.109881 0.0238,0.146693 0.005,0.03092 0.0121,0.0589 0.0201,0.08264 0.007,0.02448 0.0136,0.0381 0.0195,0.04381 0,0.0052 0.002,0.0208 0.004,0.04675 0.003,0.02743 0.002,0.06111 -0.004,0.103624 -0.006,0.03663 -0.009,0.07749 -0.0123,0.122213 -0.002,0.04454 -0.004,0.08043 -0.004,0.107121 0,0.05246 -0.004,0.09056 -0.0116,0.114299 -0.009,0.02374 -0.0388,0.08264 -0.0913,0.17835 -0.0109,0.0208 -0.0223,0.04086 -0.0351,0.0589 -0.0138,0.01859 -0.026,0.03019 -0.0361,0.03589 -0.0374,0.0208 -0.0611,0.05393 -0.071,0.09921 -0.0109,0.04399 -0.0188,0.138042 -0.0238,0.280501 v 0.260992 l -0.0712,0.142275 c -0.0633,0.121477 -0.12,0.210744 -0.17043,0.268906 -0.0495,0.05761 -0.11725,0.110802 -0.20136,0.158104 -0.0416,0.01583 -0.0963,0.03239 -0.16234,0.0519 -0.0655,0.01785 -0.1281,0.03019 -0.18626,0.03515 -0.0784,0.01086 -0.15884,0.03019 -0.24093,0.0589 -0.0819,0.02963 -0.12792,0.05466 -0.13804,0.07565 -0.006,0.005 -0.0171,0.01436 -0.0359,0.02798 -0.0188,0.01288 -0.0381,0.02724 -0.0589,0.04307 -0.0475,0.02595 -0.0791,0.04969 -0.0957,0.07123 -0.0151,0.02153 -0.023,0.04749 -0.023,0.07914 0,0.0208 0.004,0.05522 0.0116,0.102703 0.008,0.04749 0.0201,0.09276 0.0352,0.134545 0.0109,0.04749 0.0151,0.08559 0.0129,0.115035 -0.003,0.02871 -0.0201,0.06976 -0.0517,0.122213 -0.0215,0.04233 -0.0532,0.08043 -0.095,0.114299 -0.0423,0.03442 -0.1027,0.07546 -0.18258,0.123686 l -0.0782,0.04675 h -0.21369 c -0.0582,0 -0.11357,0 -0.16602,-0.0037 -0.0532,-0.0029 -0.0871,-0.0042 -0.10344,-0.0042 -0.0893,-0.02098 -0.16694,-0.05908 -0.23302,-0.115035"
       style="fill:#21201d;fill-opacity:1;fill-rule:nonzero;stroke:none;stroke-width:0.184056"
       id="path618" />
  </g>
</svg>
