<?xml version="1.0" encoding="UTF-8" standalone="no"?>
<!-- Created with Inkscape (http://www.inkscape.org/) -->

<svg
   width="5.8447237mm"
   height="5.4610052mm"
   viewBox="0 0 5.8447237 5.4610052"
   version="1.1"
   id="svg1795"
   inkscape:version="1.1.2 (0a00cf5339, 2022-02-04)"
   sodipodi:docname="m6.svg"
   xmlns:inkscape="http://www.inkscape.org/namespaces/inkscape"
   xmlns:sodipodi="http://sodipodi.sourceforge.net/DTD/sodipodi-0.dtd"
   xmlns="http://www.w3.org/2000/svg"
   xmlns:svg="http://www.w3.org/2000/svg">
  <sodipodi:namedview
     id="namedview1797"
     pagecolor="#ffffff"
     bordercolor="#666666"
     borderopacity="1.0"
     inkscape:pageshadow="2"
     inkscape:pageopacity="0.0"
     inkscape:pagecheckerboard="0"
     inkscape:document-units="mm"
     showgrid="false"
     inkscape:zoom="0.64052329"
     inkscape:cx="145.19378"
     inkscape:cy="272.4335"
     inkscape:window-width="2560"
     inkscape:window-height="1376"
     inkscape:window-x="0"
     inkscape:window-y="0"
     inkscape:window-maximized="1"
     inkscape:current-layer="layer1" />
  <defs
     id="defs1792" />
  <g
     inkscape:label="Layer 1"
     inkscape:groupmode="layer"
     id="layer1"
     transform="translate(-66.474142,-76.579628)">
    <path
       d="m 71.774446,81.972109 c -0.01436,-0.02152 -0.02872,-0.05393 -0.04233,-0.09626 -0.005,-0.02872 -0.0072,-0.0497 -0.0072,-0.06405 0,-0.01436 0.0072,-0.03295 0.02081,-0.05669 0.01951,-0.03313 0.05117,-0.06902 0.09645,-0.107121 0.04528,-0.03736 0.08908,-0.06552 0.131596,-0.08485 0.02798,-0.0094 0.04804,-0.01309 0.05964,-0.01013 0.01214,0.0021 0.03238,0.01013 0.0611,0.02448 0.04233,0.01859 0.07325,0.04528 0.09277,0.07841 0.01859,0.03295 0.02798,0.07252 0.02798,0.120745 0,0.03736 -0.0057,0.07049 -0.01803,0.0992 -0.01143,0.02872 -0.02723,0.05393 -0.04601,0.07841 -0.03295,0.03737 -0.08117,0.06387 -0.145221,0.07841 -0.0646,0.01436 -0.120004,0.0092 -0.167492,-0.01454 -0.02797,-0.0092 -0.04951,-0.02505 -0.06405,-0.04602 m -1.130106,-0.04601 c -0.03313,-0.0381 -0.05466,-0.07178 -0.06405,-0.09994 -0.01436,-0.0381 -0.0151,-0.07473 -0.0035,-0.10988 0.0114,-0.03589 0.03221,-0.06553 0.06037,-0.08853 0.0381,-0.03369 0.103441,-0.05522 0.195467,-0.0646 0.09277,-0.0094 0.162525,-0.0028 0.210008,0.02152 0.05172,0.02798 0.08264,0.07197 0.09203,0.131604 0.01012,0.0589 -0.0021,0.115034 -0.03514,0.166755 -0.03313,0.04675 -0.08927,0.08264 -0.167675,0.107121 -0.07823,0.02374 -0.143013,0.02522 -0.194734,0.0065 -0.02872,-0.0094 -0.05963,-0.03295 -0.09276,-0.07049 M 69.80176,80.635724 c -0.01161,-0.0497 -0.02025,-0.171912 -0.02448,-0.366092 -0.005,-0.09479 -0.0079,-0.231362 -0.01087,-0.408978 -0.0021,-0.177613 -0.0035,-0.342347 -0.0035,-0.494009 v -0.401063 c 0,-0.116508 -0.0021,-0.179091 -0.0072,-0.188475 -0.01436,-0.05246 0,-0.09774 0.04307,-0.1351 0.04252,-0.0381 0.08908,-0.05043 0.141725,-0.03608 0.01933,0.0094 0.03221,0.01951 0.03884,0.02889 0.0079,0.0092 0.01584,0.0309 0.02575,0.06387 0.0037,0.02374 0.01231,0.0554 0.02448,0.09571 0.01161,0.04031 0.02448,0.07767 0.03883,0.109883 l 0.05687,0.114484 -0.0074,0.532662 c 0,0.142463 -7.05e-4,0.293388 -0.0028,0.451496 -0.0028,0.159025 -0.0065,0.278296 -0.01086,0.358729 -0.005,0.156817 -0.01362,0.253813 -0.02505,0.291179 -0.01161,0.0381 -0.03884,0.067 -0.08209,0.08559 -0.02797,0.01436 -0.04804,0.02173 -0.06037,0.02173 -0.01139,0 -0.03164,-0.0074 -0.06037,-0.02173 -0.03737,-0.01859 -0.06258,-0.0532 -0.07473,-0.102705 m -0.02099,-2.45975 c -0.02152,-0.0072 -0.03939,-0.01069 -0.05374,-0.01069 -0.04252,-0.0044 -0.07344,-0.01658 -0.09203,-0.03534 -0.01877,-0.01933 -0.03534,-0.04951 -0.0497,-0.09258 -0.01951,-0.06185 -0.02374,-0.113749 -0.01436,-0.15682 0.0094,-0.04252 0.03514,-0.09202 0.07841,-0.1489 0.04233,-0.0473 0.100492,-0.07896 0.17393,-0.09552 0.07326,-0.01658 0.1316,-0.01087 0.173933,0.01729 0.02374,0.02374 0.04528,0.06037 0.06405,0.109879 0.01933,0.05043 0.0309,0.110804 0.03589,0.182034 0,0.05172 -0.0014,0.08761 -0.0035,0.106387 -0.0028,0.01859 -0.0086,0.04012 -0.01803,0.06387 -0.02374,0.04749 -0.0589,0.07915 -0.106384,0.09645 -0.04749,0.01658 -0.09276,0.01288 -0.135096,-0.01087 -0.01453,-0.01013 -0.03239,-0.01785 -0.05338,-0.02522 m -0.593566,3.685578 c -0.01877,-0.03737 -0.02797,-0.07547 -0.02797,-0.112829 0,-0.0151 0.0021,-0.03387 0.0072,-0.05761 0.0042,-0.02374 0.01143,-0.04307 0.02081,-0.05669 0.01436,-0.02815 0.02872,-0.04896 0.04233,-0.06055 0.01436,-0.01214 0.04105,-0.02505 0.07841,-0.03884 0.04749,-0.01933 0.09645,-0.02872 0.145955,-0.02872 0.04969,0 0.08853,0.01235 0.117245,0.03607 0.0094,0.0042 0.02226,0.01785 0.03883,0.04233 0.01732,0.023 0.0302,0.04675 0.03957,0.07123 0.01859,0.03737 0.0309,0.06461 0.03514,0.08191 0.005,0.01658 0.0028,0.03387 -0.0072,0.05319 -0.0042,0.01362 -0.01161,0.02797 -0.02152,0.04252 -0.0086,0.01362 -0.01584,0.02575 -0.02081,0.03589 -0.03755,0.03238 -0.09994,0.05742 -0.184792,0.07399 -0.08559,0.01658 -0.149637,0.01305 -0.191971,-0.01069 -0.02889,-0.0094 -0.0519,-0.03313 -0.07123,-0.07123 m -0.746347,-1.318592 c -0.0094,-0.04031 -0.0094,-0.119454 0,-0.237987 0.0052,-0.05172 0.0094,-0.112275 0.01436,-0.181296 0.0044,-0.06902 0.0094,-0.124242 0.01436,-0.166758 0.0044,-0.04749 0.0079,-0.123688 0.01086,-0.227126 0.0021,-0.104916 7.06e-4,-0.235229 -0.0042,-0.391125 -0.0044,-0.284737 -7.06e-4,-0.452966 0.01069,-0.504687 0.01235,-0.05245 0.05172,-0.09276 0.11798,-0.121662 0.03312,-0.01785 0.05614,-0.02946 0.07123,-0.03147 0.01362,-0.0021 0.03221,0.0014 0.05595,0.01069 0.03387,0.0094 0.05687,0.02667 0.07123,0.05245 0.01436,0.02667 0.02374,0.06829 0.02872,0.125159 0.0052,0.02872 0.01087,0.0589 0.01803,0.09203 0.0072,0.03313 0.01288,0.05964 0.01729,0.07915 0.01933,0.06111 0.02575,0.14872 0.02152,0.262466 -0.0044,0.113563 -0.02152,0.220688 -0.0497,0.319892 -0.02872,0.113567 -0.04749,0.201913 -0.05742,0.2667 -0.0086,0.06405 -0.02522,0.2113 -0.0497,0.444317 -0.0094,0.109333 -0.02007,0.181112 -0.03164,0.216454 -0.0114,0.03589 -0.03443,0.06037 -0.06755,0.07473 -0.03313,0.01436 -0.05393,0.02152 -0.06387,0.02152 -0.0094,0 -0.02815,-0.0072 -0.05687,-0.02152 -0.0381,-0.01436 -0.06184,-0.0416 -0.07123,-0.0819 m -0.01436,-2.399196 c -0.01859,-0.03313 -0.02798,-0.06828 -0.02798,-0.106384 0,-0.03313 0.01658,-0.08853 0.04951,-0.166941 0.03313,-0.07841 0.06184,-0.12645 0.08558,-0.145959 0.01362,-0.0092 0.0302,-0.02007 0.04896,-0.03164 0.01933,-0.01214 0.0381,-0.02007 0.05743,-0.02505 0.05172,-0.01877 0.09644,-0.02099 0.1316,-0.0072 0.03534,0.01436 0.07473,0.0473 0.117242,0.09921 0.0381,0.04804 0.06332,0.08908 0.07473,0.124975 0.01161,0.03534 0.01086,0.07418 -0.0035,0.116508 -0.01453,0.04325 -0.03461,0.0762 -0.06111,0.100679 -0.02522,0.023 -0.07914,0.04896 -0.159022,0.07767 -0.08559,0.03313 -0.138779,0.05172 -0.160313,0.05688 -0.02152,0.0042 -0.04877,-0.0021 -0.08191,-0.02173 -0.02815,-0.01362 -0.05172,-0.03737 -0.07123,-0.07105 m -0.519039,3.717784 c -0.0094,-0.06626 0.0072,-0.130129 0.05025,-0.191971 0.01362,-0.02798 0.02872,-0.04823 0.04252,-0.06037 0.01436,-0.01161 0.03295,-0.02226 0.05669,-0.03164 0.02374,-0.0094 0.04399,-0.01288 0.06037,-0.01087 0.01658,0.0028 0.05393,0.01584 0.1108,0.03957 0.05172,0.01877 0.08632,0.03387 0.102888,0.04601 0.01637,0.01161 0.03147,0.02946 0.04602,0.0532 0.01436,0.03312 0.01637,0.06755 0.0072,0.102887 -0.0094,0.03589 -0.03607,0.07473 -0.0784,0.117796 -0.04749,0.0519 -0.097,0.08356 -0.149638,0.09571 -0.05172,0.01139 -0.103442,0.0057 -0.155896,-0.01803 -0.0519,-0.02797 -0.08282,-0.07547 -0.09277,-0.142278 m -1.105072,0.106387 c -0.01161,-0.01362 -0.02226,-0.03313 -0.03239,-0.05614 -0.01362,-0.04233 -0.01658,-0.08191 -0.0065,-0.117799 0.0094,-0.03534 0.03313,-0.07693 0.07123,-0.124421 0.08043,-0.08982 0.166755,-0.122951 0.259517,-0.09921 0.09203,0.02374 0.135834,0.08982 0.130867,0.19915 0,0.03313 -0.0079,0.06976 -0.02448,0.110067 -0.01658,0.04012 -0.03663,0.07031 -0.06037,0.08835 -0.01951,0.01436 -0.05117,0.02797 -0.09645,0.03957 -0.04454,0.01214 -0.08411,0.01785 -0.117058,0.01785 -0.0052,0 -0.0151,-0.0021 -0.03164,-0.0072 -0.01729,-0.0042 -0.03239,-0.0092 -0.04675,-0.01436 -0.01877,-0.0092 -0.03387,-0.02152 -0.04602,-0.03589 m 3.127484,-0.734762 c -0.06829,-0.0028 -0.150191,-0.0065 -0.245163,-0.01086 -0.09921,0 -0.214242,-0.0035 -0.344371,-0.0114 -0.130863,-0.0065 -0.237984,-0.01235 -0.323571,-0.01729 -0.104175,-0.005 -0.253813,-0.0072 -0.447805,-0.0072 H 67.85044 c -0.236513,0.005 -0.442839,0.0072 -0.618247,0.0072 h -0.276818 c -0.01951,0 -0.05098,-0.0072 -0.09645,-0.02081 -0.04454,-0.01436 -0.09552,-0.03387 -0.1524,-0.05761 -0.02872,-0.0094 -0.03295,-0.02007 -0.01436,-0.03164 0.01951,-0.01214 0.07123,-0.02797 0.15608,-0.04675 0.03369,-0.0042 0.07473,-0.01288 0.125158,-0.02431 0.04951,-0.01161 0.09331,-0.02025 0.130863,-0.02522 0.04307,-0.0094 0.0819,-0.02025 0.117796,-0.03164 0.03534,-0.0114 0.05963,-0.02226 0.07399,-0.03239 l 0.05043,-0.02797 0.68156,-0.0072 c 0.189763,0 0.381734,7.05e-4 0.576647,0.0035 0.19418,0.0021 0.335721,0.0059 0.425538,0.01086 0.38468,0.01859 0.673093,0.0309 0.867827,0.03514 0.194179,0.0052 0.397559,0.0072 0.611251,0.0072 0.293937,0 0.526213,-0.0021 0.696651,-0.0072 0.17025,-0.0042 0.267434,-0.01139 0.291176,-0.02078 0.0099,-0.005 0.02946,-0.0072 0.06111,-0.0072 h 0.102704 c 0.03313,0.0042 0.07197,0.0057 0.117242,0.0028 0.04528,-0.0021 0.08191,-0.0059 0.110067,-0.01012 0.02872,-0.005 0.06755,-0.0086 0.117796,-0.01087 0.0497,-0.0028 0.0935,-0.0057 0.130863,-0.01069 h 0.135283 l 0.02872,0.04951 c 0.0086,0.02448 0.0151,0.04178 0.01729,0.0532 0.0021,0.01231 -7.05e-4,0.02946 -0.01013,0.05319 -0.01436,0.04325 -0.04104,0.0705 -0.07914,0.08209 -0.03736,0.0114 -0.14375,0.02226 -0.319154,0.03221 -0.08558,0.0052 -0.16105,0.0094 -0.227863,0.01379 -0.06626,0.005 -0.106567,0.0079 -0.120922,0.0079 -0.01859,0.0042 -0.06111,0.01143 -0.127183,0.02081 -0.06681,0.0094 -0.171175,0.02152 -0.31345,0.03514 -0.0992,0.01436 -0.302034,0.02226 -0.607568,0.02522 -0.305534,0.0021 -0.463638,-7.05e-4 -0.472288,-0.01086 -0.0052,-0.0042 -0.04178,-0.0085 -0.110801,-0.0099 m 1.393303,-1.358162 c -0.03514,-0.02152 -0.06037,-0.03461 -0.07473,-0.03957 -0.03313,-0.01362 -0.06608,-0.03884 -0.09921,-0.07399 -0.03313,-0.03607 -0.0784,-0.09847 -0.135097,-0.188475 -0.07546,-0.104179 -0.146692,-0.239275 -0.213504,-0.405479 -0.06626,-0.165284 -0.120188,-0.336459 -0.163259,-0.51113 -0.05687,-0.218662 -0.08982,-0.379712 -0.09994,-0.483887 -0.0086,-0.104362 -0.01362,-0.331491 -0.01362,-0.682304 v -0.604629 h -2.42365 l 0.0072,0.07178 c 0.0042,0.01877 0.0079,0.07693 0.0099,0.174117 0.0028,0.097 0.0066,0.204858 0.01086,0.322837 0.005,0.246454 0.0028,0.407504 -0.0072,0.483704 -0.0094,0.07565 -0.03737,0.191975 -0.08559,0.348792 -0.05669,0.193442 -0.102704,0.337192 -0.138042,0.429958 -0.03514,0.09203 -0.07252,0.176142 -0.110617,0.251608 -0.04252,0.08062 -0.09571,0.171172 -0.159762,0.27038 -0.06387,0.09995 -0.105646,0.156633 -0.124238,0.171175 -0.0044,0.0042 -0.01658,0.01711 -0.03607,0.03865 -0.01859,0.02173 -0.03514,0.04399 -0.04877,0.06773 -0.04749,0.05669 -0.08706,0.10068 -0.117979,0.131604 -0.0309,0.0302 -0.06258,0.05319 -0.09571,0.06681 -0.01933,0.0099 -0.04307,0.023 -0.07105,0.03957 -0.02872,0.01637 -0.05246,0.03164 -0.07123,0.04602 -0.01877,0.01436 -0.03663,0.02431 -0.05319,0.03221 -0.01658,0.0074 -0.02723,0.0079 -0.03239,0.0028 -0.0094,-0.02797 -0.01658,-0.04951 -0.02078,-0.06332 -0.005,-0.01933 -0.0094,-0.03663 -0.01436,-0.05319 -0.0052,-0.01711 -0.0094,-0.02946 -0.01436,-0.03957 -0.0052,-0.01436 0,-0.03147 0.01436,-0.0532 0.01436,-0.02081 0.05669,-0.07252 0.127921,-0.153134 0.151659,-0.179641 0.268905,-0.329279 0.351547,-0.447812 0.08338,-0.117983 0.155342,-0.241671 0.217184,-0.368854 0.02374,-0.04749 0.04381,-0.09203 0.06037,-0.1316 0.01658,-0.04105 0.02723,-0.06534 0.03164,-0.07473 0,-0.0094 0.0028,-0.01951 0.0072,-0.02889 0.005,-0.0092 0.0094,-0.01637 0.01436,-0.02081 0.01436,-0.01933 0.03239,-0.07049 0.05319,-0.153133 0.02152,-0.08265 0.03663,-0.153138 0.04602,-0.209829 0.01012,-0.133071 0.01877,-0.235962 0.02872,-0.309217 0.0094,-0.07344 0.01877,-0.129392 0.02815,-0.166754 0.005,-0.01877 0.0099,-0.06056 0.0151,-0.124425 0.0042,-0.06405 0.0065,-0.133809 0.0065,-0.210009 0,-0.151666 -0.0057,-0.241483 -0.01803,-0.269645 -0.01139,-0.02872 -0.04804,-0.05963 -0.109883,-0.09277 -0.02815,-0.01436 -0.06037,-0.02357 -0.09571,-0.02797 -0.03589,-0.005 -0.122212,-0.0079 -0.259517,-0.0079 -0.08062,0 -0.172646,0.0028 -0.277559,0.0079 -0.104175,0.0044 -0.186817,0.0086 -0.248658,0.01362 -0.06626,0.0052 -0.131601,0.0072 -0.195655,0.0072 h -0.1316 c -0.04233,-0.005 -0.06976,-0.01069 -0.08117,-0.01785 -0.01235,-0.0065 -0.023,-0.0151 -0.03238,-0.02522 -0.0094,-0.02798 -0.0042,-0.0589 0.01436,-0.09203 0.01877,-0.03313 0.04528,-0.05687 0.07841,-0.07123 0.08043,-0.02374 0.291175,-0.0381 0.632601,-0.04233 0.340871,-0.0052 0.554376,0.0042 0.639963,0.02872 0.02374,0.0042 0.07841,0.0079 0.163259,0.01012 0.08558,0.0021 0.227125,0.0014 0.426272,-0.0037 0.246637,-0.0042 0.437134,-0.0099 0.572413,-0.01729 0.1351,-0.0072 0.309034,-0.01785 0.522538,-0.03147 0.118717,-0.01013 0.340872,-0.0151 0.667939,-0.0151 0.327251,0 0.53358,0.005 0.619164,0.0151 0.03221,0.0042 0.07822,0.0085 0.138042,0.01362 0.05964,0.0042 0.112829,0.0094 0.160313,0.01436 0.0473,0.0042 0.09552,0.0094 0.145221,0.01436 0.04951,0.0042 0.08688,0.0094 0.109883,0.01362 0.01951,0.0052 0.06552,0.0094 0.138776,0.01436 0.07417,0.0052 0.151112,0.01012 0.230808,0.01453 0.218659,0.0092 0.352284,0.01637 0.40198,0.02081 0.05025,0.005 0.07693,0.01729 0.0819,0.03589 0,0.005 -0.0014,0.01436 -0.0035,0.02798 -0.0021,0.01453 -0.0059,0.02889 -0.01086,0.04325 -0.01951,0.04749 -0.05816,0.07473 -0.117242,0.08117 -0.0589,0.0079 -0.245163,0.01086 -0.557876,0.01086 -0.180375,0 -0.321363,-7.05e-4 -0.422776,-0.0028 -0.10215,-0.0028 -0.162521,-0.0065 -0.181846,-0.01143 -0.02815,-0.0086 -0.0554,-0.0079 -0.08136,0.0035 -0.02575,0.01235 -0.05098,0.03239 -0.07473,0.06037 -0.01362,0.01951 -0.02226,0.05043 -0.02448,0.09276 -0.0028,0.04252 -0.0042,0.163996 -0.0042,0.362412 0,0.222893 0.0065,0.388913 0.01803,0.498243 0.0114,0.108595 0.03443,0.255287 0.06755,0.440083 0.005,0.01933 0.0094,0.04528 0.01436,0.07823 0.0042,0.03387 0.0094,0.06184 0.01436,0.08559 0.0042,0.02374 0.01087,0.05319 0.01803,0.08927 0.0065,0.03514 0.01214,0.0646 0.01711,0.08835 0.0052,0.04252 0.02173,0.102887 0.04969,0.181296 0.02872,0.07823 0.06902,0.171725 0.120742,0.280321 0.05246,0.123687 0.103622,0.222892 0.153134,0.299092 0.0497,0.07547 0.1143,0.156083 0.19565,0.241487 0.08043,0.08558 0.139517,0.148166 0.177617,0.188475 0.0381,0.04031 0.05669,0.06534 0.05669,0.07473 0,0.0044 -0.01069,0.01877 -0.03164,0.04252 -0.02152,0.02374 -0.03736,0.03589 -0.04675,0.03589 -0.0042,0 -0.02007,-0.0086 -0.04601,-0.02522 -0.02575,-0.01658 -0.05522,-0.03663 -0.08835,-0.06037 -0.0381,-0.02374 -0.07546,-0.04601 -0.110804,-0.06755"
       style="fill:#21201d;fill-opacity:1;fill-rule:nonzero;stroke:none;stroke-width:0.184057"
       id="path616" />
  </g>
</svg>
