<?xml version="1.0" encoding="UTF-8" standalone="no"?>
<!-- Created with Inkscape (http://www.inkscape.org/) -->

<svg
   width="5.9985099mm"
   height="5.7308211mm"
   viewBox="0 0 5.9985099 5.7308211"
   version="1.1"
   id="svg1930"
   inkscape:version="1.1.2 (0a00cf5339, 2022-02-04)"
   sodipodi:docname="m7.svg"
   xmlns:inkscape="http://www.inkscape.org/namespaces/inkscape"
   xmlns:sodipodi="http://sodipodi.sourceforge.net/DTD/sodipodi-0.dtd"
   xmlns="http://www.w3.org/2000/svg"
   xmlns:svg="http://www.w3.org/2000/svg">
  <sodipodi:namedview
     id="namedview1932"
     pagecolor="#ffffff"
     bordercolor="#666666"
     borderopacity="1.0"
     inkscape:pageshadow="2"
     inkscape:pageopacity="0.0"
     inkscape:pagecheckerboard="0"
     inkscape:document-units="mm"
     showgrid="false"
     inkscape:zoom="0.64052329"
     inkscape:cx="-1284.8869"
     inkscape:cy="740.80054"
     inkscape:window-width="2560"
     inkscape:window-height="1376"
     inkscape:window-x="0"
     inkscape:window-y="0"
     inkscape:window-maximized="1"
     inkscape:current-layer="layer1" />
  <defs
     id="defs1927" />
  <g
     inkscape:label="Layer 1"
     inkscape:groupmode="layer"
     id="layer1"
     transform="translate(-444.77294,47.477487)">
    <path
       d="m 449.85753,-43.282879 c -0.048,-0.04601 -0.0977,-0.08706 -0.14799,-0.123687 -0.0317,-0.02301 -0.0663,-0.05172 -0.10361,-0.08632 -0.0359,-0.03442 -0.0849,-0.07914 -0.1445,-0.134362 -0.0359,-0.03681 -0.0604,-0.05687 -0.072,-0.06184 -0.0113,-0.0044 -0.0222,-0.0029 -0.0317,0.0064 -0.0127,0.01859 -0.018,0.03663 -0.0127,0.0554 0.005,0.01859 0.0222,0.04601 0.0546,0.08264 0.0597,0.07841 0.11927,0.140252 0.17984,0.185531 0.0589,0.04675 0.1329,0.08835 0.21993,0.124239 0.0547,0.02319 0.0871,0.03607 0.0963,0.03828 0.008,0.002 0.0187,-0.0015 0.0275,-0.01012 0.005,-0.005 -0.0173,-0.03019 -0.0655,-0.0762 m -0.35799,0.537081 c 0.025,-0.01307 0.0423,-0.02448 0.0517,-0.03387 l 0.0346,-0.02798 -0.0964,0.0072 c -0.0782,0.0094 -0.13805,0.01933 -0.1789,0.03092 -0.0418,0.01141 -0.0626,0.02374 -0.0626,0.03736 0,0.0094 0.0106,0.02595 0.031,0.04896 0.0208,0.02301 0.0359,0.03442 0.0453,0.03442 0.0411,-0.01859 0.0733,-0.03442 0.0963,-0.04822 0.0275,-0.01859 0.0539,-0.03515 0.0791,-0.04878 m -0.45791,-1.415037 c -0.0229,-0.01141 -0.044,-0.02448 -0.0618,-0.0381 -0.0367,-0.02301 -0.0618,-0.03515 -0.0762,-0.03736 -0.0138,-0.0029 -0.0275,-0.0022 -0.0411,0.0029 -0.01,0.0042 -0.0229,0.0079 -0.041,0.01068 -0.0187,0.0015 -0.0374,0.0029 -0.0553,0.0029 -0.0187,0 -0.0395,0.0022 -0.0625,0.0072 0,0.0042 0.0152,0.01215 0.0453,0.02374 0.0293,0.01141 0.0653,0.02448 0.10639,0.0381 0.0418,0.0094 0.0799,0.0208 0.1143,0.03442 0.0339,0.0138 0.0561,0.02301 0.0655,0.02742 0.018,0.0094 0.0296,0.01288 0.0339,0.01068 0.005,-0.002 0.0116,-0.0085 0.0208,-0.01785 0.01,-0.0087 0.0131,-0.01583 0.0102,-0.02025 -0.004,-0.0042 -0.008,-0.01141 -0.0173,-0.0208 -0.004,-0.0042 -0.018,-0.01215 -0.0408,-0.02374 m -0.25457,0.96704 c -0.0279,-0.02227 -0.046,-0.03368 -0.0554,-0.03368 -0.0325,-0.0094 -0.0863,-0.03092 -0.16179,-0.06552 -0.0762,-0.03442 -0.13659,-0.06608 -0.18259,-0.09276 -0.0418,-0.02798 -0.0777,-0.04749 -0.11007,-0.0589 -0.0321,-0.01159 -0.048,-0.01288 -0.048,-0.0037 0,0.01877 0.0374,0.05982 0.11356,0.124423 0.0755,0.06405 0.13363,0.10565 0.17544,0.123687 0.0229,0.0094 0.0574,0.02522 0.10343,0.04822 0.046,0.02301 0.0915,0.04381 0.13748,0.06184 0.10989,0.05522 0.17247,0.08043 0.18609,0.0762 0.0138,-0.0052 -0.0113,-0.03957 -0.0762,-0.103625 -0.0272,-0.02798 -0.0547,-0.05246 -0.0819,-0.0762 m -0.53414,-1.487556 c -0.0208,-0.03166 -0.0268,-0.05743 -0.0173,-0.07546 0,-0.005 -0.004,-0.01362 -0.006,-0.02798 -0.005,-0.01307 -0.01,-0.02743 -0.0145,-0.04104 -0.018,-0.03663 -0.0275,-0.06976 -0.0275,-0.09994 0,-0.02945 0.01,-0.06332 0.0275,-0.09921 0.0229,-0.05043 0.0589,-0.08191 0.10714,-0.0935 0.048,-0.01141 0.0999,-0.0057 0.15441,0.0173 0.0229,0.01362 0.0403,0.0265 0.0526,0.03736 0.0106,0.01215 0.0215,0.02724 0.0303,0.04528 0.005,0.01362 0.0106,0.02945 0.0169,0.04822 0.007,0.01859 0.0152,0.03239 0.0243,0.04086 0.0275,0.04601 0.0446,0.08062 0.0517,0.103625 0.007,0.02301 0.006,0.04896 -0.004,0.07546 -0.01,0.0324 -0.0268,0.05761 -0.0517,0.0762 -0.0254,0.01877 -0.0677,0.0346 -0.12735,0.04822 -0.0554,0.01859 -0.0869,0.02798 -0.0963,0.02798 -0.01,0 -0.0282,-0.0072 -0.0554,-0.0208 -0.0229,-0.0094 -0.0445,-0.03019 -0.0653,-0.06258 m 0.69226,2.252501 c -0.0597,-0.04601 -0.11928,-0.101232 -0.17893,-0.165284 -0.0229,-0.02301 -0.0519,-0.0497 -0.0863,-0.07915 -0.0346,-0.03019 -0.0656,-0.05393 -0.0928,-0.07252 -0.0279,-0.01307 -0.0569,-0.03092 -0.0863,-0.05172 -0.0303,-0.02098 -0.0517,-0.03313 -0.0653,-0.03755 -0.01,-0.0092 -0.0254,-0.01933 -0.0482,-0.03092 -0.0229,-0.01141 -0.0438,-0.02227 -0.0618,-0.03092 -0.0187,-0.0092 -0.0346,-0.01859 -0.0482,-0.02798 -0.0138,-0.0094 -0.0236,-0.01583 -0.0279,-0.0208 -0.004,-0.0044 -0.0113,-0.01086 -0.0201,-0.02025 -0.01,-0.0092 -0.0187,-0.01564 -0.0282,-0.0208 -0.009,-0.0042 -0.0236,-0.01509 -0.0446,-0.03092 -0.0208,-0.01583 -0.0403,-0.03313 -0.0589,-0.05172 -0.018,-0.01362 -0.0396,-0.03092 -0.0648,-0.05172 -0.0258,-0.02098 -0.0453,-0.03534 -0.0589,-0.04454 -0.092,-0.07344 -0.1524,-0.132338 -0.1826,-0.175591 -0.0293,-0.04381 -0.0445,-0.09332 -0.0445,-0.147983 -0.005,-0.05982 0.0173,-0.151848 0.0653,-0.275351 0.0482,-0.124423 0.12516,-0.284737 0.23078,-0.4826 0.0272,-0.05963 0.0827,-0.112091 0.16531,-0.158842 0.0828,-0.04528 0.16031,-0.06829 0.23446,-0.06829 0.018,0 0.0374,-0.0015 0.0582,-0.0035 0.0212,-0.0029 0.0353,-0.0059 0.0446,-0.01012 0.064,-0.03663 0.14961,-0.06111 0.25527,-0.0727 0.10566,-0.01141 0.18129,-0.0079 0.22733,0.01012 0.0187,0.0094 0.0328,0.01436 0.0445,0.01436 0.0113,0 0.0265,-0.005 0.0446,-0.01436 0.0325,-0.01362 0.0646,-0.01436 0.0962,-0.0029 0.0325,0.0116 0.0828,0.04031 0.15187,0.08632 0.0782,0.05043 0.14006,0.09571 0.18606,0.137307 0.046,0.04178 0.11726,0.112275 0.21354,0.213507 0.21145,0.225103 0.34434,0.386153 0.39902,0.481864 0.0554,0.097 0.0849,0.209826 0.09,0.33793 0,0.08191 -0.0102,0.153688 -0.031,0.213507 -0.0208,0.05964 -0.0749,0.169701 -0.16182,0.330752 -0.0138,0.02724 -0.0275,0.05246 -0.0418,0.07546 -0.0138,0.02301 -0.0229,0.03663 -0.0272,0.0416 -0.005,0.0044 -0.0138,0.01804 -0.0275,0.04105 -0.0145,0.02301 -0.0303,0.04601 -0.048,0.06902 -0.0554,0.100679 -0.11504,0.173198 -0.17981,0.217188 -0.0641,0.04381 -0.12149,0.05393 -0.1719,0.03092 -0.0229,-0.0094 -0.0402,-0.01436 -0.0518,-0.01436 -0.0113,0 -0.0286,0.0072 -0.0517,0.0208 -0.0453,0.01859 -0.0928,0.02577 -0.14097,0.0208 -0.0481,-0.0042 -0.10841,-0.02301 -0.1826,-0.05466 -0.069,-0.03736 -0.13307,-0.07841 -0.19269,-0.124423 m -1.53282,-1.573695 c -0.0106,-0.0116 -0.0194,-0.02448 -0.0236,-0.03736 -0.004,-0.01454 -0.0138,-0.03166 -0.0279,-0.05191 -0.0131,-0.0208 -0.0275,-0.04012 -0.0411,-0.0589 -0.0554,-0.06405 -0.092,-0.113564 -0.10989,-0.148167 -0.0187,-0.03442 -0.0303,-0.07252 -0.0346,-0.113563 0,-0.05025 0.007,-0.09277 0.0201,-0.127184 0.0145,-0.0346 0.0396,-0.05835 0.0764,-0.0727 l 0.048,-0.02724 0.10365,0.109883 c 0.0272,0.02816 0.0524,0.05687 0.0755,0.08632 0.0229,0.03018 0.0366,0.04896 0.0416,0.05816 0.0131,0.02319 0.0396,0.05191 0.0791,0.08632 0.0388,0.0346 0.072,0.05393 0.0992,0.05835 0.0282,0.005 0.0438,0.0208 0.049,0.04804 0.004,0.02816 -0.005,0.06258 -0.0279,0.103625 -0.0138,0.03239 -0.0275,0.05319 -0.041,0.06184 -0.0138,0.0094 -0.0418,0.0208 -0.0827,0.03442 -0.0546,0.01877 -0.0885,0.02945 -0.0999,0.03166 -0.0116,0.0022 -0.031,-0.0035 -0.0583,-0.0173 -0.0187,-0.005 -0.0335,-0.01288 -0.0453,-0.0243 m -0.3199,-1.904632 c -0.074,-0.05025 -0.13159,-0.09129 -0.17265,-0.123687 -0.0408,-0.03239 -0.11779,-0.09773 -0.23079,-0.196206 -0.11211,-0.09921 -0.20267,-0.182769 -0.27167,-0.251607 -0.0275,-0.02319 -0.0539,-0.04473 -0.0792,-0.06552 -0.0251,-0.0208 -0.0403,-0.03313 -0.0453,-0.03736 -0.008,-0.005 -0.013,-0.01086 -0.013,-0.01804 0,-0.0064 0.004,-0.01933 0.013,-0.0381 0.005,-0.01288 0.0109,-0.02448 0.0173,-0.03368 0.007,-0.0094 0.0131,-0.0138 0.0173,-0.0138 0.009,0 0.0222,0.0059 0.0381,0.0173 0.0162,0.0116 0.0335,0.02669 0.0517,0.04454 0.069,0.06405 0.22511,0.181297 0.46803,0.351551 0.2437,0.168965 0.42997,0.289155 0.55789,0.358177 0.0374,0.02227 0.0705,0.04307 0.10068,0.06184 0.0293,0.01859 0.0467,0.02798 0.051,0.02798 0.01,0.0087 0.007,0.03019 -0.006,0.06479 -0.0145,0.03442 -0.0272,0.0589 -0.0416,0.07252 -0.018,0.01362 -0.0374,0.01951 -0.0584,0.0173 -0.0208,-0.0029 -0.0423,-0.01012 -0.0653,-0.02448 -0.14746,-0.09203 -0.25753,-0.16326 -0.33076,-0.213507 m 0.42351,1.06772 c -0.13085,-0.128657 -0.21425,-0.204305 -0.25178,-0.227312 -0.018,-0.0087 -0.046,-0.0265 -0.0819,-0.05172 -0.0374,-0.02522 -0.069,-0.04896 -0.097,-0.07178 -0.0324,-0.02319 -0.0655,-0.04601 -0.0999,-0.06921 -0.0339,-0.02282 -0.0604,-0.03939 -0.0792,-0.04877 -0.0325,-0.02227 -0.0848,-0.06828 -0.15812,-0.137307 -0.0734,-0.06829 -0.16545,-0.16326 -0.27608,-0.282529 -0.0361,-0.03681 -0.0755,-0.07565 -0.11649,-0.116509 -0.0418,-0.04178 -0.074,-0.07123 -0.0963,-0.08982 -0.0368,-0.02301 -0.0618,-0.04252 -0.0764,-0.05908 -0.0138,-0.01583 -0.025,-0.03736 -0.0346,-0.06534 -0.004,-0.01804 -0.012,-0.04031 -0.0236,-0.06479 -0.0113,-0.02577 -0.0215,-0.04749 -0.031,-0.06608 -0.0187,-0.03166 -0.0272,-0.05761 -0.0272,-0.07546 0,-0.01804 0.008,-0.02743 0.0272,-0.02743 0.005,0 0.0102,0.0029 0.0173,0.01012 0.006,0.0064 0.0127,0.01509 0.0173,0.02374 0.0138,0.02797 0.0661,0.08559 0.15808,0.172462 0.092,0.0878 0.17911,0.161051 0.26173,0.220869 0.0416,0.02724 0.0935,0.06755 0.15536,0.120006 0.0618,0.05319 0.11575,0.104913 0.16179,0.155345 0.0639,0.05964 0.11557,0.105649 0.15441,0.137307 0.0388,0.03239 0.0749,0.05522 0.10714,0.06902 0.0229,0.01436 0.0467,0.02798 0.072,0.04086 0.0251,0.01454 0.0475,0.02816 0.0653,0.04178 0.0145,0.0094 0.0282,0.0173 0.0418,0.02448 0.0138,0.0064 0.0229,0.0099 0.0272,0.0099 0.0145,0 0.0611,0.03884 0.14175,0.117245 0.0806,0.07841 0.15017,0.150927 0.21,0.219949 0.0321,0.03755 0.0661,0.07491 0.1027,0.114484 0.0374,0.03884 0.0648,0.06957 0.0834,0.09258 0.0275,0.02743 0.0453,0.04822 0.0547,0.06184 0.01,0.0138 0.0116,0.02816 0.006,0.04178 -0.004,0.01804 -0.0159,0.03516 -0.0335,0.05172 -0.0187,0.01583 -0.044,0.02595 -0.0762,0.03092 -0.0138,0.0044 -0.0254,0.0044 -0.0346,0 -0.008,-0.005 -0.0201,-0.01859 -0.0335,-0.0416 -0.0282,-0.04601 -0.1071,-0.133074 -0.23798,-0.261731 m -1.06772,-0.179088 c -0.10361,-0.115036 -0.17981,-0.1905 -0.23079,-0.227128 -0.008,-0.0052 -0.0194,-0.01509 -0.031,-0.03092 -0.0113,-0.01656 -0.0215,-0.03166 -0.031,-0.04528 -0.0187,-0.04104 -0.0539,-0.0935 -0.1064,-0.158289 -0.0532,-0.06387 -0.0957,-0.109883 -0.12735,-0.137308 -0.0321,-0.02301 -0.051,-0.0416 -0.0552,-0.0554 -0.005,-0.01362 0.004,-0.02724 0.0272,-0.0416 0.0138,-0.0087 0.0332,-0.0022 0.0584,0.0208 0.025,0.02301 0.0955,0.09203 0.21053,0.206329 0.0641,0.06479 0.13014,0.132337 0.19915,0.203568 0.069,0.07105 0.11726,0.12295 0.14449,0.15516 0.0282,0.0324 0.0626,0.06902 0.10361,0.110067 0.0416,0.04105 0.0784,0.07344 0.11064,0.097 0.0683,0.05466 0.1108,0.09276 0.12735,0.113011 0.0159,0.0208 0.0173,0.04307 0.004,0.06534 -0.004,0.01877 -0.0215,0.03589 -0.051,0.05246 -0.0303,0.01509 -0.0539,0.02374 -0.0725,0.02374 -0.0233,-0.02798 -0.0411,-0.05319 -0.0554,-0.0762 -0.0453,-0.06902 -0.12019,-0.160315 -0.22363,-0.275351 m 2.676,3.188619 c -0.0648,-0.02301 -0.12369,-0.05025 -0.17907,-0.0819 -0.046,-0.02798 -0.13088,-0.07399 -0.2551,-0.138044 -0.12372,-0.06405 -0.24094,-0.124423 -0.35101,-0.179088 -0.069,-0.03221 -0.13215,-0.06976 -0.18976,-0.113564 -0.0574,-0.04381 -0.17117,-0.136571 -0.34089,-0.279584 -0.0272,-0.02227 -0.0675,-0.05466 -0.11998,-0.09571 -0.0532,-0.04105 -0.10491,-0.07841 -0.15536,-0.110067 -0.10986,-0.08761 -0.19989,-0.165284 -0.26889,-0.234305 -0.069,-0.06902 -0.13511,-0.149455 -0.19971,-0.241484 -0.0591,-0.08209 -0.16841,-0.204305 -0.32653,-0.365355 -0.15882,-0.160315 -0.26098,-0.252344 -0.30698,-0.274615 -0.0138,-0.0094 -0.0258,-0.0173 -0.0374,-0.02448 -0.0117,-0.0072 -0.0173,-0.01288 -0.0173,-0.0173 -0.005,-0.0042 -0.0187,-0.01583 -0.0416,-0.03442 -0.0229,-0.01804 -0.0482,-0.03663 -0.0755,-0.0554 -0.0648,-0.05025 -0.14393,-0.120006 -0.23799,-0.21001 -0.0942,-0.08908 -0.16693,-0.16602 -0.21717,-0.230624 -0.0229,-0.02301 -0.0482,-0.05043 -0.0755,-0.08209 -0.0282,-0.03295 -0.0512,-0.05743 -0.069,-0.0762 -0.018,-0.01859 -0.0374,-0.03884 -0.0584,-0.06184 -0.0208,-0.02301 -0.0359,-0.04086 -0.0453,-0.0554 -0.009,-0.01362 -0.0222,-0.03221 -0.0409,-0.05448 -0.0187,-0.02301 -0.0368,-0.04601 -0.0554,-0.06902 -0.041,-0.04601 -0.072,-0.08411 -0.0928,-0.113748 -0.0208,-0.03018 -0.0475,-0.07473 -0.0791,-0.134362 -0.0138,-0.02301 -0.0303,-0.0497 -0.0482,-0.07915 -0.0187,-0.03018 -0.0321,-0.05466 -0.0416,-0.07252 -0.01,-0.01362 -0.0243,-0.04031 -0.0475,-0.07914 -0.0229,-0.03884 -0.046,-0.07915 -0.069,-0.120006 -0.0229,-0.04178 -0.0453,-0.07841 -0.0661,-0.110802 -0.0201,-0.0324 -0.0332,-0.05319 -0.0374,-0.06184 -0.005,-0.0042 -0.0187,-0.02871 -0.0418,-0.07252 -0.0229,-0.04399 -0.0482,-0.09074 -0.0755,-0.141724 l -0.0893,-0.185531 0.0475,-0.02006 c 0.046,-0.01877 0.0878,-0.01657 0.12442,0.0064 0.0367,0.02301 0.0597,0.05964 0.069,0.110067 0,0.01859 0.0102,0.0438 0.031,0.0762 0.0208,0.03239 0.0517,0.07325 0.0928,0.123686 0.046,0.05964 0.0791,0.107858 0.0999,0.144486 0.0208,0.03663 0.0445,0.08761 0.0725,0.151664 0.041,0.110066 0.0892,0.213507 0.14464,0.309953 0.0552,0.09626 0.10788,0.172462 0.15811,0.227128 0.046,0.05963 0.13381,0.148166 0.26173,0.265963 0.12866,0.116509 0.23008,0.202832 0.30332,0.258234 0.0735,0.05466 0.20433,0.163811 0.3926,0.326334 0.18846,0.16326 0.29634,0.25805 0.32357,0.28621 0.0138,0.01362 0.0325,0.03515 0.0554,0.06534 0.0229,0.03019 0.0453,0.06111 0.069,0.09276 0.0222,0.02743 0.0488,0.05761 0.079,0.08982 0.0296,0.0324 0.0539,0.05761 0.072,0.07565 0.0187,0.01362 0.0502,0.04233 0.0963,0.08614 0.046,0.04399 0.092,0.08632 0.13804,0.127368 0.046,0.0416 0.0999,0.09203 0.16178,0.151664 0.0618,0.05964 0.11374,0.107858 0.15459,0.144486 0.0468,0.04105 0.0978,0.08485 0.15536,0.130865 0.0574,0.04601 0.10418,0.08062 0.14171,0.103624 0.0366,0.02724 0.0841,0.06184 0.1445,0.103441 0.0596,0.04105 0.11208,0.07988 0.15808,0.116509 0.10143,0.07399 0.16972,0.122214 0.20634,0.144485 0.0374,0.02301 0.0992,0.05098 0.18627,0.08338 0.0366,0.01804 0.0819,0.03736 0.13437,0.05835 0.0525,0.02006 0.0979,0.04012 0.13455,0.0589 0.10986,0.05025 0.20853,0.08706 0.29612,0.109331 0.0871,0.02374 0.17689,0.03516 0.26893,0.03516 h 0.15811 l 0.11649,-0.08264 c 0.0742,-0.05117 0.14816,-0.113564 0.22436,-0.189764 0.0755,-0.07565 0.12718,-0.141725 0.15463,-0.19639 0.01,-0.01859 0.0243,-0.04601 0.0453,-0.08264 0.0201,-0.03663 0.0396,-0.06902 0.0582,-0.09626 0.064,-0.09148 0.11007,-0.191973 0.13804,-0.299831 0.0275,-0.107858 0.041,-0.230808 0.041,-0.368852 0,-0.146694 -0.0229,-0.277559 -0.069,-0.391859 -0.046,-0.115036 -0.11871,-0.230072 -0.21996,-0.345109 -0.0368,-0.04104 -0.0799,-0.08632 -0.12735,-0.137307 -0.048,-0.05043 -0.0861,-0.08927 -0.1143,-0.117245 -0.0777,-0.07767 -0.19844,-0.189027 -0.36167,-0.333513 -0.16235,-0.144669 -0.2739,-0.240195 -0.33352,-0.28621 -0.0279,-0.02301 -0.0604,-0.04896 -0.0999,-0.07914 -0.0388,-0.03019 -0.0727,-0.05614 -0.0999,-0.07914 -0.0272,-0.01859 -0.0547,-0.0381 -0.0827,-0.0589 -0.0275,-0.0208 -0.0482,-0.03515 -0.0618,-0.04454 -0.0138,-0.0042 -0.0346,-0.0173 -0.0618,-0.0381 -0.0275,-0.0208 -0.0554,-0.04031 -0.0827,-0.05816 -0.0282,-0.01804 -0.0655,-0.04546 -0.11373,-0.07914 -0.0487,-0.0346 -0.0906,-0.06553 -0.12792,-0.09276 -0.041,-0.02374 -0.0812,-0.0497 -0.12001,-0.07988 -0.0388,-0.02945 -0.0655,-0.05172 -0.0791,-0.06534 -0.046,-0.04528 -0.11356,-0.102888 -0.20338,-0.17191 -0.0893,-0.06902 -0.16178,-0.11927 -0.21646,-0.151664 -0.0279,-0.01877 -0.0589,-0.03884 -0.0935,-0.06184 -0.0346,-0.02301 -0.0633,-0.04104 -0.0863,-0.0554 -0.0187,-0.01362 -0.0423,-0.03092 -0.0718,-0.05172 -0.0303,-0.02006 -0.0547,-0.03736 -0.0727,-0.05172 -0.0187,-0.01362 -0.0438,-0.03313 -0.0762,-0.05835 -0.0317,-0.02503 -0.0618,-0.04951 -0.0883,-0.07252 -0.0282,-0.02301 -0.0591,-0.04675 -0.0935,-0.07197 -0.0346,-0.02577 -0.0633,-0.04454 -0.0863,-0.0589 -0.0229,-0.01362 -0.0418,-0.02595 -0.0547,-0.03736 -0.0145,-0.0116 -0.0208,-0.01951 -0.0208,-0.02448 0,-0.0042 -0.005,-0.01012 -0.0145,-0.0173 -0.009,-0.0064 -0.0201,-0.01215 -0.0339,-0.0173 -0.0145,-0.0092 -0.0286,-0.01933 -0.0453,-0.03074 -0.0159,-0.01159 -0.0303,-0.02374 -0.0446,-0.0381 -0.01,-0.0087 -0.0208,-0.01877 -0.0346,-0.03037 -0.0137,-0.01141 -0.025,-0.02006 -0.0346,-0.0243 -0.0275,-0.01877 -0.0697,-0.0497 -0.12735,-0.0935 -0.0574,-0.04325 -0.1064,-0.08338 -0.14799,-0.12019 -0.0229,-0.01859 -0.0576,-0.04601 -0.10365,-0.08264 -0.046,-0.03736 -0.0869,-0.06902 -0.12368,-0.09626 -0.10562,-0.08264 -0.17685,-0.140988 -0.2135,-0.175407 -0.0366,-0.0346 -0.0618,-0.06828 -0.0755,-0.09994 -0.01,-0.02301 -0.0145,-0.04178 -0.0145,-0.0554 0,-0.01362 0.004,-0.02743 0.007,-0.04178 l 0.0138,-0.04086 0.0755,0.03442 c 0.0187,0.0094 0.0418,0.02301 0.069,0.04104 0.0282,0.01859 0.0512,0.03442 0.069,0.04822 0.0138,0.01435 0.0303,0.02797 0.0482,0.0416 0.018,0.01362 0.0325,0.02301 0.041,0.02743 0.0187,0.0092 0.051,0.03368 0.097,0.07252 0.046,0.03884 0.10784,0.09497 0.18626,0.168965 0.1603,0.141725 0.29337,0.252344 0.39903,0.330016 0.10566,0.07841 0.23008,0.153873 0.37236,0.227864 0.087,0.04602 0.20503,0.117981 0.35447,0.216452 0.1489,0.09921 0.25604,0.177616 0.3199,0.237987 0.0282,0.01804 0.0633,0.04822 0.10713,0.08908 0.0433,0.04105 0.0863,0.08062 0.12736,0.117981 0.0777,0.07694 0.13878,0.13381 0.18185,0.168229 0.0445,0.0346 0.0913,0.06755 0.14172,0.09994 0.0229,0.01362 0.0539,0.0346 0.0926,0.06184 0.0396,0.02743 0.0777,0.0554 0.11452,0.08264 0.0359,0.02743 0.0876,0.06479 0.15441,0.110067 0.0662,0.04601 0.12735,0.08761 0.18277,0.124423 0.0545,0.03663 0.11134,0.07546 0.16895,0.117061 0.0574,0.04104 0.0977,0.07049 0.12001,0.08927 0.0646,0.05098 0.1675,0.146694 0.31052,0.288971 0.14171,0.14246 0.23593,0.239459 0.28197,0.289707 0.0187,0.02742 0.0517,0.06902 0.0999,0.123687 0.0488,0.0554 0.0977,0.107858 0.14796,0.158842 0.0965,0.105097 0.15755,0.179824 0.1826,0.22363 0.0254,0.04399 0.0655,0.1524 0.12093,0.327255 0.0229,0.07326 0.0342,0.17099 0.0342,0.292652 0,0.122215 -0.0145,0.226391 -0.0416,0.313451 -0.0138,0.05025 -0.0425,0.117061 -0.0863,0.199887 -0.0431,0.08264 -0.0834,0.144485 -0.11998,0.185346 -0.0187,0.02816 -0.0376,0.05393 -0.0554,0.07988 -0.018,0.02522 -0.0325,0.04454 -0.041,0.05816 -0.01,0.01381 -0.0201,0.03019 -0.0318,0.04822 -0.0113,0.01877 -0.0194,0.03239 -0.0236,0.04178 -0.009,0.01362 -0.0229,0.03166 -0.0416,0.05466 -0.018,0.02301 -0.0346,0.04601 -0.0482,0.06902 -0.041,0.05963 -0.0927,0.122214 -0.15459,0.189763 -0.0618,0.06608 -0.11356,0.113564 -0.15536,0.140805 -0.018,0.01877 -0.0445,0.03681 -0.079,0.05466 -0.0346,0.01877 -0.0655,0.03239 -0.0928,0.04178 -0.046,0.01804 -0.0834,0.03019 -0.11007,0.03442 -0.0279,0.0044 -0.0718,0.0072 -0.13085,0.0072 -0.0416,0 -0.0856,-0.0028 -0.13158,-0.0072 -0.046,-0.0042 -0.0847,-0.01141 -0.11635,-0.02006 -0.0604,-0.01436 -0.1222,-0.03313 -0.18627,-0.05614"
       style="fill:#21201d;fill-opacity:1;fill-rule:nonzero;stroke:none;stroke-width:0.184057"
       id="path622" />
  </g>
</svg>
