<?xml version="1.0" encoding="UTF-8" standalone="no"?>
<!-- Created with Inkscape (http://www.inkscape.org/) -->

<svg
   width="7.1680589mm"
   height="7.2197795mm"
   viewBox="0 0 7.1680589 7.2197795"
   version="1.1"
   id="svg2065"
   inkscape:version="1.1.2 (0a00cf5339, 2022-02-04)"
   sodipodi:docname="m8.svg"
   xmlns:inkscape="http://www.inkscape.org/namespaces/inkscape"
   xmlns:sodipodi="http://sodipodi.sourceforge.net/DTD/sodipodi-0.dtd"
   xmlns="http://www.w3.org/2000/svg"
   xmlns:svg="http://www.w3.org/2000/svg">
  <sodipodi:namedview
     id="namedview2067"
     pagecolor="#ffffff"
     bordercolor="#666666"
     borderopacity="1.0"
     inkscape:pageshadow="2"
     inkscape:pageopacity="0.0"
     inkscape:pagecheckerboard="0"
     inkscape:document-units="mm"
     showgrid="false"
     inkscape:zoom="0.64052329"
     inkscape:cx="-1091.2952"
     inkscape:cy="487.88234"
     inkscape:window-width="2560"
     inkscape:window-height="1376"
     inkscape:window-x="0"
     inkscape:window-y="0"
     inkscape:window-maximized="1"
     inkscape:current-layer="layer1" />
  <defs
     id="defs2062" />
  <g
     inkscape:label="Layer 1"
     inkscape:groupmode="layer"
     id="layer1"
     transform="translate(-393.79263,-19.52221)">
    <path
       d="m 398.95247,24.261795 c -0.0166,-0.02946 -0.0243,-0.05245 -0.0243,-0.06828 0,-0.0059 0.005,-0.0094 0.0157,-0.01235 0.0109,-0.0021 0.0324,-0.0042 0.0648,-0.0042 0.0482,0.0057 0.0957,-0.0021 0.14098,-0.02374 0.046,-0.02152 0.0985,-0.06185 0.15737,-0.120742 0.0539,-0.05393 0.11283,-0.09921 0.17688,-0.137308 0.0648,-0.03736 0.12663,-0.067 0.18553,-0.08853 0.0272,-0.0057 0.0539,-0.0151 0.0804,-0.02797 0.0274,-0.01362 0.046,-0.023 0.0569,-0.02872 0.0158,-0.02173 0.0324,-0.04823 0.0482,-0.08062 0.0164,-0.03239 0.0243,-0.0589 0.0243,-0.08043 0,-0.01658 0.005,-0.02522 0.0165,-0.02815 0.0109,-0.0028 0.0403,-0.0014 0.0885,0.0037 0.0431,0.0057 0.0725,0.0065 0.0891,0.0042 0.0151,-0.0028 0.0374,-0.01214 0.0641,-0.02798 0.0107,-0.01087 0.0237,-0.02448 0.0403,-0.04031 0.0157,-0.01658 0.0265,-0.03238 0.0322,-0.04896 0.0158,-0.02155 0.0245,-0.03589 0.0245,-0.04454 0,-0.0079 -0.009,-0.02226 -0.0245,-0.04381 -0.0166,-0.02152 -0.0309,-0.05245 -0.0445,-0.09277 -0.0136,-0.04031 -0.0173,-0.06258 -0.0114,-0.06828 0.01,-0.01087 -0.002,-0.02667 -0.0368,-0.04896 -0.0351,-0.02081 -0.0819,-0.04233 -0.1408,-0.06387 -0.0972,-0.03736 -0.22068,-0.09718 -0.37105,-0.177613 -0.15093,-0.08062 -0.26376,-0.145224 -0.33867,-0.193446 -0.0589,-0.04307 -0.10712,-0.07123 -0.14522,-0.08485 -0.0374,-0.01288 -0.0804,-0.02007 -0.12865,-0.02007 l -0.0725,0.0079 -0.0245,-0.05614 c -0.0109,-0.03736 -0.0109,-0.07546 0,-0.112825 0.0107,-0.03737 0.0272,-0.0727 0.048,-0.1051 l 0.0403,-0.04012 0.12939,0.0646 c 0.0374,0.02099 0.0834,0.04528 0.13731,0.0727 0.0532,0.02649 0.0992,0.05098 0.13675,0.07252 0.0381,0.02099 0.079,0.04252 0.12498,0.06479 0.0453,0.02152 0.0791,0.03736 0.10067,0.04749 0.0216,0.0057 0.0512,0.01785 0.0885,0.03663 0.0381,0.01877 0.0703,0.03589 0.097,0.05246 0.0272,0.01584 0.0648,0.03589 0.11283,0.06037 0.0482,0.02448 0.0885,0.04178 0.12092,0.05245 0.0374,0.01658 0.0804,0.03755 0.12866,0.06405 0,0.01087 0.0302,0.0302 0.0891,0.05687 0.0589,0.02649 0.10492,0.04012 0.13731,0.04012 0.0158,0.0052 0.0438,0.01584 0.0841,0.03239 0.0403,0.01584 0.0799,0.03238 0.11725,0.04822 0.0431,0.02152 0.0834,0.04031 0.12074,0.05669 0.0374,0.01584 0.0618,0.02667 0.0727,0.03238 0.0324,0.0052 0.0675,0.02815 0.10491,0.06828 0.0374,0.04031 0.0589,0.0762 0.0641,0.109333 0.0215,0.07473 0.006,0.144484 -0.0482,0.209272 -0.0532,0.06405 -0.12074,0.08835 -0.20136,0.07252 -0.0107,0 -0.0294,0.0037 -0.0567,0.01161 -0.0267,0.0086 -0.0641,0.02872 -0.11301,0.06111 -0.0374,0.01584 -0.079,0.03589 -0.12423,0.06037 -0.046,0.02448 -0.0849,0.04178 -0.11725,0.05245 -0.0267,0.01087 -0.0648,0.02946 -0.11282,0.05614 -0.049,0.02649 -0.0915,0.05172 -0.12958,0.07252 -0.0423,0.02173 -0.0804,0.04031 -0.11209,0.05688 -0.0324,0.01584 -0.0517,0.02374 -0.0569,0.02374 -0.0215,0 -0.0775,0.01729 -0.16952,0.05246 -0.0907,0.03461 -0.16105,0.06607 -0.20927,0.0935 -0.0425,0.02575 -0.11651,0.06111 -0.22142,0.104176 -0.1051,0.04325 -0.17614,0.067 -0.21424,0.0727 -0.005,0.005 -0.0144,0.005 -0.0281,0 -0.0129,-0.0057 -0.0251,-0.01086 -0.0359,-0.01658 -0.0166,-0.01087 -0.0324,-0.0309 -0.0482,-0.06037 m -1.36662,-0.552171 c -0.008,-0.07547 -0.0123,-0.120742 -0.0123,-0.137308 0,-0.0052 -10e-4,-0.03608 -0.004,-0.09277 -0.003,-0.05614 -0.007,-0.119454 -0.0123,-0.189025 -0.006,-0.161237 -0.003,-0.272592 0.008,-0.334434 0.0109,-0.06258 0.0374,-0.117245 0.0806,-0.165287 0.0265,-0.03238 0.0473,-0.05245 0.0604,-0.06037 0.0136,-0.0086 0.0309,-0.01231 0.0525,-0.01231 h 0.0324 c 0.0107,0 0.0158,0.0028 0.0158,0.0079 -0.0101,0.04822 -0.0188,0.09129 -0.0245,0.128658 -0.0101,0.07049 -0.0173,0.149638 -0.0195,0.237987 -0.003,0.08927 7.1e-4,0.155343 0.0123,0.197863 0.005,0.02152 0.0107,0.05374 0.0158,0.097 0.006,0.04233 0.0107,0.08559 0.0158,0.128658 0.006,0.08062 0.007,0.133075 0.004,0.157554 -0.003,0.02357 -0.0121,0.05742 -0.0287,0.100496 -0.0208,0.05393 -0.0453,0.100679 -0.072,0.140988 -0.0272,0.04031 -0.046,0.06037 -0.0567,0.06037 -0.0101,0 -0.0188,-0.0079 -0.0237,-0.02448 -0.006,-0.01584 -0.0109,-0.03663 -0.0166,-0.06387 -0.0109,-0.04325 -0.0195,-0.10215 -0.028,-0.177613 m -0.49179,0.245901 c -0.003,-0.02374 -0.004,-0.0554 -0.004,-0.09277 0,-0.05393 -0.007,-0.117246 -0.0237,-0.189025 -0.0165,-0.0727 -0.0322,-0.127371 -0.0488,-0.165471 -0.005,-0.01086 -0.0123,-0.02448 -0.0195,-0.04031 -0.009,-0.01655 -0.0121,-0.03221 -0.0121,-0.04804 -0.006,-0.01658 -0.0109,-0.03681 -0.0166,-0.06111 -0.005,-0.02374 -0.0109,-0.04399 -0.0158,-0.05982 -0.0109,-0.04877 -0.0151,-0.109149 -0.0121,-0.18185 0.002,-0.07252 0.009,-0.141541 0.0201,-0.205592 0.0109,-0.05393 0.0215,-0.09424 0.0324,-0.120745 0.0107,-0.02741 0.0324,-0.06479 0.0646,-0.113009 0.0641,-0.09626 0.10142,-0.151666 0.11301,-0.165283 0.0107,-0.01362 0.0322,-0.02007 0.0639,-0.02007 0.0274,0 0.0418,0.0065 0.0445,0.02007 0.002,0.01362 -0.006,0.04675 -0.028,0.100679 -0.006,0.02152 -0.0107,0.04528 -0.0166,0.07252 -0.005,0.02741 -0.008,0.04822 -0.008,0.06479 0,0.01584 -0.003,0.03884 -0.008,0.06829 -0.006,0.02946 -0.0107,0.0554 -0.0158,0.0762 -0.0107,0.0438 -0.0164,0.08062 -0.0164,0.112829 0,0.03239 0.006,0.09994 0.0164,0.202092 0.005,0.0589 0.0131,0.119271 0.0237,0.181116 0.0109,0.06184 0.0188,0.103622 0.0245,0.125159 0.0215,0.05963 0.0302,0.112825 0.028,0.16105 -0.003,0.04896 -0.0171,0.115771 -0.0445,0.201358 -0.0158,0.05964 -0.0294,0.097 -0.0401,0.113566 -0.0109,0.01584 -0.0217,0.02374 -0.0317,0.02374 -0.0109,0 -0.0217,-0.0014 -0.0324,-0.0037 -0.0109,-0.0028 -0.0188,-0.0072 -0.0245,-0.01214 -0.005,-0.0057 -0.009,-0.02007 -0.0121,-0.04454 m 0.78573,0.237988 c 0.10786,-0.04325 0.21793,-0.120742 0.33075,-0.233754 0.11283,-0.112829 0.19842,-0.2286 0.25805,-0.347134 0.0217,-0.04822 0.0331,-0.08485 0.0361,-0.108595 0.003,-0.02448 10e-4,-0.06828 -0.004,-0.133072 0,-0.08043 -0.009,-0.14375 -0.0287,-0.189029 -0.0188,-0.04601 -0.0497,-0.08779 -0.0928,-0.125158 -0.026,-0.02724 -0.0453,-0.0497 -0.0561,-0.06829 -0.0107,-0.01951 -0.0186,-0.04454 -0.0243,-0.07693 -0.0158,-0.07473 -0.0418,-0.142462 -0.0764,-0.201362 -0.0351,-0.0589 -0.0869,-0.123687 -0.15737,-0.193442 -0.0482,-0.05393 -0.0898,-0.09405 -0.12442,-0.120745 -0.0351,-0.02724 -0.0718,-0.04896 -0.10933,-0.06534 l -0.0963,-0.04822 -0.24222,0.0086 c -0.10785,0.005 -0.17982,0.0099 -0.21792,0.01584 -0.0374,0.005 -0.0826,0.01859 -0.13657,0.04012 -0.0324,0.01086 -0.0648,0.02173 -0.097,0.03238 -0.0324,0.01087 -0.0539,0.01655 -0.0648,0.01655 -0.0208,0.005 -0.0532,0.02081 -0.0965,0.04823 -0.0431,0.02649 -0.0755,0.05319 -0.097,0.08043 -0.0101,0.01086 -0.0245,0.02173 -0.0396,0.03238 -0.0166,0.01013 -0.0302,0.02081 -0.0409,0.03239 -0.0324,0.01584 -0.0626,0.03957 -0.092,0.07252 -0.0302,0.03165 -0.0554,0.06976 -0.0769,0.112275 -0.0109,0.02152 -0.0173,0.04878 -0.0203,0.08043 -0.003,0.03238 -0.004,0.08062 -0.004,0.145958 0,0.04822 10e-4,0.09497 0.004,0.14025 0.003,0.04602 0.004,0.07767 0.004,0.09277 0.0215,0.097 0.0366,0.165283 0.0445,0.206329 0.009,0.03957 0.0151,0.08982 0.0201,0.148904 0.006,0.08043 0.023,0.150188 0.0526,0.209088 0.0294,0.05982 0.074,0.120925 0.13289,0.185529 0.0324,0.03238 0.0633,0.05835 0.0928,0.07694 0.0295,0.01877 0.0604,0.03589 0.0928,0.05246 0.0267,0.01086 0.0576,0.023 0.0928,0.03608 0.0344,0.01362 0.0633,0.023 0.0849,0.02797 0.0804,0.0381 0.14449,0.06037 0.19344,0.06902 0.048,0.0079 0.12369,0.0094 0.22565,0.0035 0.0965,0 0.16105,-0.0028 0.19345,-0.0079 0.0324,-0.005 0.0777,-0.01859 0.13657,-0.04013 z m -1.35023,-2.749459 c -0.0245,-0.02649 -0.0416,-0.0589 -0.0525,-0.09626 -0.005,-0.02152 -0.006,-0.04325 -0.004,-0.06479 0.002,-0.02152 0.0121,-0.05595 0.028,-0.104912 0.006,-0.02667 0.0158,-0.0589 0.0324,-0.09626 0.0158,-0.03755 0.0294,-0.06773 0.0401,-0.08853 0.0109,-0.02152 0.0202,-0.04031 0.0281,-0.05687 0.009,-0.01584 0.0121,-0.02649 0.0121,-0.03221 0,-0.0052 0.008,-0.02448 0.0237,-0.05688 0.0166,-0.03164 0.0353,-0.06976 0.0569,-0.112092 0.0265,-0.04399 0.0552,-0.09129 0.0849,-0.145221 0.0294,-0.05393 0.0525,-0.09424 0.0683,-0.120925 0.0166,-0.03221 0.0416,-0.0819 0.0762,-0.149454 0.0351,-0.06681 0.0718,-0.130129 0.10933,-0.189029 0.0322,-0.06479 0.071,-0.137492 0.11706,-0.217925 0.0453,-0.08062 0.0821,-0.147429 0.10859,-0.201359 0.0589,-0.113562 0.0977,-0.175408 0.11725,-0.185529 0.0186,-0.01069 0.0596,0.0028 0.12442,0.04031 0.0539,0.02667 0.0985,0.06681 0.13289,0.120741 0.0353,0.05393 0.072,0.136755 0.10933,0.249583 0.0697,0.21498 0.12074,0.359463 0.15313,0.431984 0.0324,0.07197 0.0863,0.164729 0.16105,0.277558 0.049,0.08062 0.0898,0.162525 0.12516,0.245901 0.0344,0.08338 0.0631,0.176145 0.0849,0.278295 0.0208,0.0913 0.0329,0.148904 0.0359,0.173937 0.003,0.02374 -10e-4,0.04325 -0.0121,0.05982 -0.0158,0.0381 -0.0482,0.06829 -0.0964,0.09258 -0.0488,0.02448 -0.0883,0.0309 -0.12148,0.02025 -0.0158,-0.0052 -0.0374,-0.03884 -0.064,-0.100679 -0.0265,-0.06111 -0.0431,-0.116509 -0.0488,-0.165471 -0.005,-0.02152 -0.0144,-0.05393 -0.0281,-0.09626 -0.0136,-0.04307 -0.028,-0.08338 -0.0438,-0.120742 -0.0165,-0.0381 -0.0316,-0.07988 -0.0445,-0.125158 -0.0136,-0.04601 -0.023,-0.07988 -0.028,-0.101417 -0.0109,-0.02081 -0.0202,-0.04528 -0.0289,-0.07178 -0.008,-0.02741 -0.0171,-0.04896 -0.028,-0.06479 -0.0215,-0.04307 -0.0547,-0.08908 -0.10068,-0.137308 -0.0453,-0.04822 -0.0871,-0.08043 -0.12516,-0.09626 -0.0164,-0.01087 -0.0309,-0.02448 -0.0438,-0.04031 -0.0136,-0.01655 -0.0287,-0.04031 -0.0446,-0.0727 -0.0109,-0.02152 -0.0245,-0.04877 -0.0403,-0.08117 -0.006,0 -0.0136,0.01013 -0.0245,0.02872 -0.0107,0.01877 -0.0215,0.04178 -0.0322,0.06829 -0.0158,0.02741 -0.0324,0.05246 -0.0482,0.07693 -0.0158,0.02374 -0.0324,0.03884 -0.0482,0.04381 -0.0107,0.01087 -0.028,0.03681 -0.0525,0.07693 -0.0245,0.04031 -0.0524,0.09277 -0.0848,0.157554 -0.0265,0.0532 -0.0539,0.104913 -0.0804,0.1524 -0.0274,0.04896 -0.046,0.08117 -0.0569,0.097 l -0.028,0.05614 c -0.0138,0.02741 -0.023,0.04822 -0.0281,0.06479 -0.0158,0.04381 -0.0559,0.127921 -0.12074,0.253816 -0.0648,0.126447 -0.10215,0.192525 -0.11283,0.197679 -0.0274,-0.0052 -0.049,-0.01087 -0.0648,-0.01584 -0.0374,-0.01087 -0.0683,-0.02946 -0.0928,-0.05688 m 0.8104,5.119204 c -0.0158,-0.02667 -0.0267,-0.04822 -0.0324,-0.06405 -0.005,-0.01087 -0.0188,-0.03369 -0.0403,-0.06902 -0.0215,-0.03443 -0.0453,-0.06829 -0.0725,-0.100679 -0.0217,-0.03238 -0.0497,-0.07767 -0.0848,-0.136571 -0.0346,-0.05963 -0.0655,-0.113563 -0.0928,-0.16105 -0.0532,-0.09203 -0.10362,-0.168229 -0.1489,-0.230075 -0.0453,-0.06184 -0.0871,-0.100679 -0.12442,-0.117242 l -0.0366,-0.03589 c -0.0136,-0.01362 -0.023,-0.03387 -0.0287,-0.06037 -0.0208,-0.05393 -0.0561,-0.120742 -0.10436,-0.201362 -0.048,-0.08117 -0.094,-0.145221 -0.13731,-0.19418 -0.0423,-0.04804 -0.0725,-0.09258 -0.0883,-0.132891 -0.0166,-0.04031 -0.0188,-0.07914 -0.008,-0.116509 0.0158,-0.04896 0.0374,-0.08632 0.0646,-0.112825 0.026,-0.02741 0.067,-0.04602 0.12093,-0.05688 0.0158,-0.0057 0.0265,-0.0057 0.0316,0 0.006,0.0057 0.0107,0.01658 0.0164,0.03239 0.005,0.01584 0.0138,0.03589 0.0237,0.06037 0.0109,0.02448 0.0245,0.0497 0.0403,0.07693 0.0166,0.02649 0.0381,0.06258 0.0648,0.108595 0.0272,0.04601 0.048,0.08761 0.0646,0.125159 0.0216,0.04307 0.0433,0.08338 0.0648,0.120742 0.0215,0.0381 0.0344,0.0646 0.0403,0.08043 0.0107,0.01087 0.0223,0.03239 0.0359,0.06479 0.0136,0.03239 0.0258,0.06387 0.0366,0.09626 0.0208,0.04896 0.0497,0.109333 0.0841,0.182033 0.0351,0.07178 0.074,0.140805 0.11724,0.204858 0.0166,0.03238 0.0416,0.05669 0.0769,0.07325 0.0344,0.01584 0.0732,0.02099 0.11651,0.01584 0.0322,0 0.0539,0.0014 0.0646,0.0044 0.0109,0.0021 0.0188,0.0092 0.0237,0.01933 0,0.0057 0.006,0.01362 0.0165,0.02448 0.0101,0 0.0495,-0.05761 0.1165,-0.173383 0.0675,-0.115588 0.12222,-0.221421 0.16529,-0.318421 0.0215,-0.04307 0.0497,-0.08485 0.0848,-0.125158 0.0346,-0.04012 0.0977,-0.108596 0.18902,-0.204858 0.092,-0.08632 0.16547,-0.161788 0.22216,-0.226392 0.0569,-0.06405 0.10068,-0.12295 0.13307,-0.176879 0,-0.0059 0.0129,0.0028 0.0403,0.02374 0.0265,0.02152 0.0453,0.04012 0.0567,0.05669 0.005,0.01086 0.004,0.02596 -0.004,0.04454 -0.008,0.01877 -0.026,0.0554 -0.0525,0.108596 -0.0374,0.07546 -0.0819,0.151663 -0.13307,0.230071 -0.051,0.07767 -0.1086,0.156817 -0.1732,0.23725 -0.0747,0.102891 -0.13307,0.187004 -0.17338,0.253817 -0.0401,0.06755 -0.0955,0.173933 -0.16528,0.318604 -0.0913,0.188291 -0.14817,0.31345 -0.1697,0.375295 -0.0215,0.06184 -0.0295,0.1143 -0.0237,0.156634 0.005,0.03313 0.004,0.05245 -0.004,0.0611 -0.008,0.0079 -0.0281,0.01732 -0.0604,0.02815 -0.0217,0.01069 -0.0381,0.01214 -0.0482,0.0035 -0.0109,-0.0079 -0.0295,-0.03589 -0.0569,-0.08411 -0.0158,-0.03238 -0.0322,-0.06184 -0.048,-0.08908 m -0.12884,-1.975126 c -0.0272,-0.005 -0.0517,-0.01069 -0.0725,-0.01584 -0.0596,-0.01069 -0.13878,-0.03939 -0.23799,-0.08485 -0.0992,-0.04601 -0.17908,-0.08982 -0.23725,-0.132888 -0.0547,-0.03736 -0.11503,-0.09277 -0.18184,-0.165467 -0.0677,-0.07178 -0.1224,-0.138045 -0.16547,-0.196941 -0.0374,-0.06479 -0.0804,-0.148167 -0.12865,-0.250137 -0.0482,-0.102151 -0.0784,-0.177617 -0.0893,-0.225838 -0.01,-0.05393 -0.0157,-0.139517 -0.0157,-0.25805 0,-0.11798 0.006,-0.206329 0.0157,-0.266146 0.0166,-0.06387 0.0677,-0.181116 0.15332,-0.350817 0.0861,-0.168966 0.15368,-0.28032 0.20191,-0.334249 0.0641,-0.07473 0.14319,-0.140988 0.23798,-0.197676 0.0935,-0.05614 0.1813,-0.09203 0.26173,-0.108595 0.0158,0 0.0388,-0.0044 0.0683,-0.01235 0.0295,-0.0079 0.0554,-0.01139 0.0762,-0.01139 0.0223,-0.0057 0.0734,-0.01012 0.15387,-0.01235 0.0806,-0.0028 0.16897,-0.0042 0.26541,-0.0042 0.16161,0.0057 0.26376,0.0094 0.30701,0.01214 0.0431,0.0021 0.0854,0.01235 0.12866,0.02815 0.12939,0.05319 0.24718,0.130867 0.35504,0.230071 0.10712,0.09921 0.19068,0.207804 0.24958,0.326337 0.0804,0.150375 0.13307,0.290442 0.15737,0.418547 0.0245,0.129391 0.0331,0.291179 0.0281,0.484441 -0.006,0.09074 -0.0109,0.155346 -0.0166,0.192708 -0.005,0.0381 -0.0188,0.08411 -0.0403,0.137309 -0.0265,0.08135 -0.0503,0.139513 -0.072,0.177613 -0.0215,0.03737 -0.0537,0.08632 -0.097,0.145224 -0.0697,0.09645 -0.14227,0.17338 -0.21773,0.229334 -0.0749,0.05687 -0.16897,0.111541 -0.28197,0.16547 -0.0374,0.01655 -0.0797,0.03238 -0.12498,0.04804 -0.046,0.01658 -0.0762,0.02741 -0.0928,0.03239 -0.0539,0.01087 -0.14742,0.01803 -0.28252,0.02025 -0.13381,0.0028 -0.21719,0.0014 -0.24958,-0.0037 -0.0109,-0.0057 -0.0295,-0.01069 -0.0561,-0.01655 m -1.53558,-0.354495 c -0.0353,-0.01637 -0.0712,-0.03517 -0.10933,-0.05669 -0.0747,-0.03164 -0.1489,-0.06332 -0.22142,-0.09277 -0.0727,-0.02946 -0.14669,-0.05466 -0.22142,-0.0762 -0.0274,-0.01087 -0.0677,-0.02946 -0.12166,-0.05687 -0.0532,-0.02649 -0.10712,-0.05595 -0.16105,-0.08835 -0.0913,-0.04822 -0.17816,-0.09129 -0.26154,-0.128655 -0.0836,-0.03737 -0.14099,-0.05688 -0.17338,-0.05688 -0.006,0 -0.0201,-0.0035 -0.0445,-0.01213 -0.0245,-0.0079 -0.0475,-0.02025 -0.0683,-0.03608 -0.0274,-0.01069 -0.0554,-0.02152 -0.0849,-0.03221 -0.0295,-0.01087 -0.0524,-0.01584 -0.0683,-0.01584 -0.0589,-0.01087 -0.11007,-0.02173 -0.15314,-0.03238 -0.0433,-0.01087 -0.0755,-0.02152 -0.0972,-0.03239 -0.0215,-0.01087 -0.0431,-0.03239 -0.0646,-0.06479 -0.0208,-0.03147 -0.0317,-0.05595 -0.0317,-0.07252 0,-0.01087 0.0116,-0.02522 0.0359,-0.0438 0.0238,-0.01877 0.0527,-0.03957 0.0849,-0.06111 0.0317,-0.02099 0.0806,-0.05319 0.14522,-0.09645 0.0641,-0.04307 0.12296,-0.08338 0.17688,-0.120741 0.0539,-0.03737 0.10639,-0.07399 0.15755,-0.108596 0.051,-0.03514 0.0849,-0.05743 0.10068,-0.06828 0.0158,-0.01143 0.0374,-0.02596 0.0646,-0.04454 0.0267,-0.01877 0.0512,-0.03663 0.072,-0.05246 0.0324,-0.02173 0.0582,-0.03534 0.0769,-0.04031 0.0186,-0.0057 0.0525,-0.0086 0.10068,-0.0086 0.0272,0 0.0552,-0.0021 0.0849,-0.0079 0.0294,-0.005 0.0552,-0.01087 0.0762,-0.01584 0.0272,-0.01069 0.074,-0.03663 0.14155,-0.07693 0.0668,-0.04031 0.12515,-0.0762 0.17338,-0.108595 0.0215,-0.01584 0.074,-0.0381 0.15663,-0.0646 0.0834,-0.02667 0.14172,-0.04031 0.17412,-0.04031 0.0156,0 0.0201,0.01362 0.0121,0.04031 -0.009,0.02649 -0.023,0.04878 -0.0445,0.0646 -0.0274,0.01658 -0.0663,0.04252 -0.11724,0.08062 -0.051,0.0381 -0.12222,0.08835 -0.21351,0.153137 -0.0539,0.03736 -0.0928,0.06976 -0.11724,0.09626 -0.0237,0.02741 -0.0388,0.04896 -0.0438,0.06479 -0.0109,0.02649 -0.046,0.06332 -0.10491,0.109329 -0.0591,0.04528 -0.14246,0.100496 -0.25032,0.16455 -0.0589,0.03239 -0.0928,0.05466 -0.10068,0.06479 -0.008,0.01069 -0.006,0.02152 0.004,0.03239 0.005,0.01069 0.0144,0.02007 0.028,0.02797 0.0136,0.0079 0.0252,0.0151 0.0366,0.02081 0.0109,0.005 0.0216,0.01584 0.0317,0.03164 0.0116,0.01655 0.0188,0.03238 0.0245,0.04896 0.0166,0.03736 0.0495,0.0819 0.10068,0.132888 0.051,0.05117 0.10859,0.09497 0.17393,0.133075 0.064,0.03736 0.13528,0.07197 0.21277,0.104179 0.0784,0.03238 0.13013,0.04822 0.15756,0.04822 0.0158,0 0.0554,0.0302 0.11724,0.08908 0.0618,0.05908 0.13013,0.131603 0.20485,0.217924 0.0166,0.01658 0.0324,0.02946 0.0488,0.04031 0.0158,0.01069 0.0316,0.01859 0.0482,0.02374 0.0166,0 0.0252,0.0028 0.0282,0.0079 0.003,0.0057 10e-4,0.01362 -0.004,0.02431 -0.006,0.01584 -0.0188,0.02597 -0.041,0.02815 -0.0208,0.0028 -0.0453,-0.0014 -0.0725,-0.01235 -0.004,0 -0.0252,-0.0079 -0.0596,-0.02374"
       style="fill:#21201d;fill-opacity:1;fill-rule:nonzero;stroke:none;stroke-width:0.184057"
       id="path618" />
  </g>
</svg>
