<?xml version="1.0" encoding="UTF-8" standalone="no"?>
<!-- Created with Inkscape (http://www.inkscape.org/) -->

<svg
   width="7.2355223mm"
   height="6.6144385mm"
   viewBox="0 0 7.2355223 6.6144385"
   version="1.1"
   id="svg2623"
   inkscape:version="1.1.2 (0a00cf5339, 2022-02-04)"
   sodipodi:docname="abyssal_gifts.svg"
   xmlns:inkscape="http://www.inkscape.org/namespaces/inkscape"
   xmlns:sodipodi="http://sodipodi.sourceforge.net/DTD/sodipodi-0.dtd"
   xmlns="http://www.w3.org/2000/svg"
   xmlns:svg="http://www.w3.org/2000/svg">
  <sodipodi:namedview
     id="namedview2625"
     pagecolor="#ffffff"
     bordercolor="#666666"
     borderopacity="1.0"
     inkscape:pageshadow="2"
     inkscape:pageopacity="0.0"
     inkscape:pagecheckerboard="0"
     inkscape:document-units="mm"
     showgrid="false"
     inkscape:zoom="0.64052329"
     inkscape:cx="64.010163"
     inkscape:cy="658.0557"
     inkscape:window-width="2560"
     inkscape:window-height="1376"
     inkscape:window-x="0"
     inkscape:window-y="0"
     inkscape:window-maximized="1"
     inkscape:current-layer="layer1" />
  <defs
     id="defs2620" />
  <g
     inkscape:label="Layer 1"
     inkscape:groupmode="layer"
     id="layer1"
     transform="translate(-88.084635,25.613197)">
    <path
       d="m 90.818985,-25.613197 c 0.184792,0.0324 0.369584,0.06681 0.55493,0.097 0.07196,0.0116 0.145955,0.01583 0.218658,0.02025 0.179822,0.0092 0.339397,0.07252 0.501919,0.148719 0.513334,0.238723 1.000714,0.519779 1.446498,0.872802 0.424801,0.337195 0.871322,0.650829 1.276798,1.010295 0.33075,0.293204 0.567997,0.657086 0.486092,1.143183 -0.01362,0.07767 0.0021,0.161051 -0.0094,0.239275 -0.03295,0.217189 -0.06755,0.434377 -0.110617,0.649357 -0.06902,0.344372 -0.136754,0.689481 -0.222154,1.02962 -0.05191,0.204856 -0.131601,0.402535 -0.207801,0.599477 -0.023,0.05835 -0.07049,0.113747 -0.120925,0.153872 -0.168229,0.135283 -0.299642,0.300566 -0.415413,0.480391 -0.01584,0.02448 -0.03164,0.04951 -0.05043,0.07252 -0.116509,0.141724 -0.196938,0.129393 -0.260992,-0.0381 -0.07178,-0.189764 -0.10068,-0.20412 -0.291913,-0.154609 -0.178167,0.04528 -0.351547,0.06976 -0.54131,0.0346 -0.294858,-0.05319 -0.596709,-0.06626 -0.895064,-0.10068 -0.09424,-0.01159 -0.187,-0.03589 -0.279029,-0.0589 -0.341426,-0.08283 -0.68156,-0.171174 -1.023169,-0.249582 -0.219209,-0.05099 -0.379522,-0.184058 -0.528426,-0.339403 -0.01139,-0.01215 -0.0065,-0.04086 -0.0099,-0.06681 0.0854,-0.06184 0.166017,-0.0265 0.249396,0.0015 0.311976,0.10565 0.622664,0.217925 0.938319,0.310506 0.209825,0.06184 0.428483,0.09424 0.643459,0.138044 0.02081,0.0044 0.04381,0.0037 0.06534,0.0022 0.307005,-0.02301 0.614009,-0.04749 0.921014,-0.06976 0.110067,-0.0079 0.220134,-0.01067 0.330751,-0.01435 0.311421,-0.01067 0.524192,-0.148719 0.633521,-0.451495 0.08467,-0.233017 0.19473,-0.4572 0.289705,-0.687272 0.0302,-0.07418 0.05742,-0.151848 0.06976,-0.230808 0.04381,-0.29707 0.08687,-0.593955 0.118533,-0.892313 0.01161,-0.09921 0.0028,-0.207802 -0.023,-0.304064 -0.122213,-0.443027 -0.30553,-0.856421 -0.644931,-1.180548 -0.159575,-0.152399 -0.326333,-0.295596 -0.493822,-0.43861 -0.223629,-0.189763 -0.451492,-0.37603 -0.677326,-0.563033 -0.02797,-0.02301 -0.05816,-0.04601 -0.09056,-0.06184 -0.583826,-0.28529 -1.15256,-0.600949 -1.814791,-0.696659 -0.378788,-0.05467 -0.786472,0.239459 -0.781505,0.660767 7.05e-4,0.06553 0.0028,0.133811 0.01951,0.196943 0.07049,0.268908 0.143746,0.53708 0.222892,0.803965 0.01785,0.06166 0.05595,0.120005 0.09276,0.173934 0.107121,0.154609 0.150192,0.166757 0.33351,0.112828 0.04252,-0.01215 0.08485,-0.03018 0.127366,-0.0324 0.0854,-0.0057 0.153688,0.06626 0.147246,0.1524 -0.0035,0.04399 -0.01362,0.0878 -0.02797,0.129577 -0.03589,0.110619 0.01013,0.184794 0.102888,0.237987 0.145954,0.08485 0.29688,0.161603 0.439155,0.252343 0.491063,0.307745 0.99151,0.600949 1.461774,0.938144 0.251604,0.18056 0.504683,0.380447 0.678617,0.652853 0.02374,0.03663 0.05043,0.0727 0.06828,0.112275 0.06258,0.140068 0.02448,0.276087 -0.118534,0.327071 -0.120925,0.04381 -0.256758,0.06902 -0.383938,0.06332 -0.211483,-0.01012 -0.423514,-0.04178 -0.630576,-0.08338 -0.193446,-0.03884 -0.386151,-0.09074 -0.570943,-0.159026 -0.330567,-0.120742 -0.652664,-0.144486 -0.981939,0.0079 -0.18553,0.08632 -0.383205,0.146694 -0.573889,0.220686 -0.107858,0.04178 -0.177429,0.118717 -0.232096,0.222157 -0.115771,0.22087 -0.244609,0.433641 -0.36535,0.651565 -0.123684,0.220686 -0.344368,0.282529 -0.562106,0.352287 -0.07049,0.02227 -0.140254,0.05025 -0.205775,-0.01086 -0.005,-0.01362 -0.01637,-0.02871 -0.01436,-0.04031 0.07694,-0.439898 0.19565,-0.869122 0.330013,-1.294111 0.02025,-0.06258 0.05614,-0.120006 0.08559,-0.179089 0.05393,-0.109882 0.01161,-0.196205 -0.06332,-0.278848 -0.07105,-0.07767 -0.148717,-0.117244 -0.254367,-0.07418 -0.04748,0.01877 -0.09644,0.04178 -0.145955,0.04675 -0.03755,0.0029 -0.08706,-0.0099 -0.113746,-0.03442 -0.01637,-0.01583 -0.01362,-0.0727 7.05e-4,-0.09994 0.05761,-0.110802 0.115038,-0.222157 0.187738,-0.322837 0.09203,-0.12792 0.05393,-0.25308 0.0079,-0.37603 -0.04528,-0.122951 -0.148904,-0.17688 -0.281238,-0.153873 -0.06387,0.01141 -0.139329,0.05466 -0.175404,-0.02227 -0.02448,-0.05246 -0.0151,-0.127184 -0.0035,-0.188475 0.01069,-0.05595 0.05098,-0.105649 0.06608,-0.161603 0.04969,-0.174855 -0.0028,-0.245165 -0.181113,-0.25897 -0.0497,-0.0035 -0.09773,-0.01435 -0.167492,-0.02503 0.02152,-0.133074 0.0416,-0.253079 0.06111,-0.374742 -0.08209,-0.07473 -0.186267,-0.115588 -0.212217,-0.241484 -0.01214,-0.05687 -0.10068,-0.09847 -0.153871,-0.14743 v -0.264491 c 0.0302,-0.02025 0.05834,-0.05117 0.09074,-0.05835 0.119271,-0.02724 0.272405,-0.0935 0.353572,0 0.117246,0.13381 0.244613,0.117245 0.376763,0.09571 0.113563,-0.01877 0.187738,0.0035 0.267434,0.09056 0.129575,0.142277 0.175592,0.13381 0.3221,-0.0079 0.05466,-0.05319 0.09792,-0.131602 0.191971,-0.113564 0.0094,0.0094 0.01584,0.01435 0.01951,0.02006 0.0302,0.05964 0.01785,0.170437 0.120742,0.148903 0.09203,-0.01951 0.06331,-0.117245 0.06755,-0.18774 7.05e-4,-0.01435 -7.06e-4,-0.02945 -0.0028,-0.0438 -0.03313,-0.193445 -0.07123,-0.38689 -0.09792,-0.580887 -0.03369,-0.238723 -0.04804,-0.477446 0.0059,-0.717642 0.06534,-0.291916 0.210558,-0.441371 0.50468,-0.496772 0.04031,-0.0079 0.07841,-0.02945 0.117246,-0.04528 z"
       style="fill:#21201d;fill-opacity:1;fill-rule:nonzero;stroke:none;stroke-width:0.184057"
       id="path580" />
  </g>
</svg>
