<?xml version="1.0" encoding="UTF-8" standalone="no"?>
<!-- Created with Inkscape (http://www.inkscape.org/) -->

<svg
   width="4.8847919mm"
   height="6.9249749mm"
   viewBox="0 0 4.8847919 6.9249749"
   version="1.1"
   id="svg2758"
   inkscape:version="1.1.2 (0a00cf5339, 2022-02-04)"
   sodipodi:docname="abyssal_tribute.svg"
   xmlns:inkscape="http://www.inkscape.org/namespaces/inkscape"
   xmlns:sodipodi="http://sodipodi.sourceforge.net/DTD/sodipodi-0.dtd"
   xmlns="http://www.w3.org/2000/svg"
   xmlns:svg="http://www.w3.org/2000/svg">
  <sodipodi:namedview
     id="namedview2760"
     pagecolor="#ffffff"
     bordercolor="#666666"
     borderopacity="1.0"
     inkscape:pageshadow="2"
     inkscape:pageopacity="0.0"
     inkscape:pagecheckerboard="0"
     inkscape:document-units="mm"
     showgrid="false"
     inkscape:zoom="0.64052329"
     inkscape:cx="-285.7039"
     inkscape:cy="690.84139"
     inkscape:window-width="2560"
     inkscape:window-height="1376"
     inkscape:window-x="0"
     inkscape:window-y="0"
     inkscape:window-maximized="1"
     inkscape:current-layer="layer1" />
  <defs
     id="defs2755" />
  <g
     inkscape:label="Layer 1"
     inkscape:groupmode="layer"
     id="layer1"
     transform="translate(-180.54969,34.443086)">
    <path
       d="m 183.08885,-32.359301 c 0.13804,-0.07049 0.25731,-0.124423 0.36958,-0.189211 0.0718,-0.04233 0.14872,-0.08908 0.19768,-0.153873 0.0963,-0.12792 0.18682,-0.263755 0.25657,-0.407688 0.0705,-0.145222 0.0655,-0.294677 -0.0559,-0.426278 -0.17762,-0.191236 -0.39554,-0.312714 -0.64217,-0.383209 -0.079,-0.02153 -0.16896,-0.01933 -0.25161,-0.0087 -0.0574,0.0064 -0.12368,0.03387 -0.16325,0.07399 -0.1005,0.105097 -0.19198,0.220133 -0.2818,0.335169 -0.0977,0.125712 -0.0856,0.254552 0.004,0.383209 0.0438,0.06258 0.092,0.126447 0.11577,0.197678 0.0834,0.243693 0.25235,0.416339 0.45149,0.578862 m -0.0282,-2.08372 c 0.18479,0.07049 0.36756,0.150376 0.55585,0.21001 0.17191,0.05393 0.28897,0.177616 0.41191,0.291916 0.10786,0.09847 0.19713,0.216452 0.30131,0.319157 0.17467,0.170437 0.20632,0.368852 0.14301,0.595427 -0.10988,0.398302 -0.3048,0.73752 -0.66132,0.967592 -0.005,0.0029 -0.007,0.01307 -0.0166,0.03681 0.0272,0.01638 0.0552,0.04233 0.0876,0.05172 0.3013,0.08485 0.60186,0.115037 0.90592,-0.0037 0.13454,-0.05319 0.2805,-0.07767 0.42351,-0.115772 0.24149,0.273326 0.25161,0.578125 0.19124,0.919737 -0.2021,0.04012 -0.38744,-0.01307 -0.57021,-0.09865 -0.38891,-0.184058 -0.79218,-0.295413 -1.22434,-0.242957 -0.18405,0.210747 -0.21921,0.453703 -0.21719,0.714697 0.004,0.426278 0.0598,0.845563 0.12884,1.263926 0.0265,0.158842 0.0329,0.322102 0.0416,0.483152 0.0252,0.492539 0.0468,0.984342 0.0698,1.482587 -0.21793,0.07694 -0.42775,0.0208 -0.63058,0.04601 -0.21774,0.02577 -0.39682,-0.107858 -0.5945,-0.10933 -0.0151,-0.02871 -0.0309,-0.04528 -0.0282,-0.0554 0.0893,-0.252343 0.072,-0.513337 0.0814,-0.774331 0.009,-0.222158 0.0423,-0.442844 0.0683,-0.664265 0.0468,-0.388915 0.0812,-0.779486 0.16179,-1.163246 0.0179,-0.08927 -10e-4,-0.185531 0.003,-0.278296 0.0109,-0.230072 0.0245,-0.460881 0.0361,-0.69169 0.002,-0.06037 0,-0.121478 0,-0.194181 -0.11227,-0.03515 -0.22583,-0.01509 -0.33571,0.0052 -0.24167,0.04454 -0.47542,-0.01086 -0.7112,-0.04749 -0.17393,-0.02742 -0.3486,-0.05393 -0.524,-0.06902 -0.0569,-0.0052 -0.12019,0.01933 -0.17615,0.0416 -0.0705,0.02742 -0.13749,0.06626 -0.20209,0.09865 -0.23007,-0.162523 -0.28694,-0.364619 -0.17467,-0.611256 0.0468,-0.102705 0.0409,-0.232833 0.17099,-0.311978 0.0885,0.03589 0.19068,0.06976 0.28547,0.117245 0.14172,0.07178 0.29044,0.09773 0.44652,0.105649 0.28547,0.01288 0.57094,0.03313 0.85623,0.04877 0.0368,0.0029 0.0734,-0.0042 0.14393,-0.0085 -0.1489,-0.145957 -0.2689,-0.276087 -0.40124,-0.391123 -0.2078,-0.179824 -0.28179,-0.391859 -0.2194,-0.660768 0.0252,-0.110066 0.0166,-0.228047 0.0346,-0.340875 0.0129,-0.08338 0.0324,-0.169701 0.0698,-0.244429 0.13233,-0.264491 0.28032,-0.519043 0.5853,-0.621932 0.071,-0.02448 0.15019,-0.02871 0.22418,-0.04749 0.0561,-0.01362 0.1108,-0.03516 0.16694,-0.05319 z"
       style="fill:#21201d;fill-opacity:1;fill-rule:nonzero;stroke:none;stroke-width:0.184057"
       id="path584" />
  </g>
</svg>
