<?xml version="1.0" encoding="UTF-8" standalone="no"?>
<!-- Created with Inkscape (http://www.inkscape.org/) -->

<svg
   width="4.8785625mm"
   height="7.5162225mm"
   viewBox="0 0 4.8785625 7.5162225"
   version="1.1"
   id="svg2143"
   inkscape:version="1.1.2 (0a00cf5339, 2022-02-04)"
   sodipodi:docname="brotherhood_of_the_beast.svg"
   xmlns:inkscape="http://www.inkscape.org/namespaces/inkscape"
   xmlns:sodipodi="http://sodipodi.sourceforge.net/DTD/sodipodi-0.dtd"
   xmlns="http://www.w3.org/2000/svg"
   xmlns:svg="http://www.w3.org/2000/svg">
  <sodipodi:namedview
     id="namedview2145"
     pagecolor="#ffffff"
     bordercolor="#666666"
     borderopacity="1.0"
     inkscape:pageshadow="2"
     inkscape:pageopacity="0.0"
     inkscape:pagecheckerboard="0"
     inkscape:document-units="mm"
     showgrid="false"
     inkscape:zoom="0.64052329"
     inkscape:cx="343.46917"
     inkscape:cy="-22.637741"
     inkscape:window-width="2560"
     inkscape:window-height="1376"
     inkscape:window-x="0"
     inkscape:window-y="0"
     inkscape:window-maximized="1"
     inkscape:current-layer="layer1" />
  <defs
     id="defs2140" />
  <g
     inkscape:label="Layer 1"
     inkscape:groupmode="layer"
     id="layer1"
     transform="translate(-14.083668,-154.44934)">
    <path
       d="m 17.528538,158.16345 c 0.217738,0.11724 0.395351,0.20927 0.568547,0.30848 0.110067,0.0633 0.199333,0.14872 0.265409,0.26302 0.05025,0.0848 0.139516,0.14595 0.198413,0.22805 0.242954,0.34216 0.378237,0.72463 0.399034,1.14447 0.0072,0.14319 -0.005,0.28694 -0.0037,0.42996 0.0044,0.33793 -0.148717,0.59248 -0.411184,0.79163 -0.140984,0.10565 -0.286205,0.20706 -0.417068,0.32431 -0.12645,0.11209 -0.25805,0.18038 -0.43198,0.16179 -0.1697,-0.018 -0.333696,0.023 -0.488855,0.0869 -0.202829,0.0843 -0.411367,0.0712 -0.619163,0.0376 -0.164547,-0.0267 -0.325597,-0.069 -0.500268,-0.10712 0.02575,-0.0534 0.06884,-0.0762 0.13013,-0.0655 0.02356,0.004 0.04601,0.0223 0.06957,0.0252 0.19068,0.0245 0.382651,0.12497 0.568731,0.0646 0.268171,-0.0876 0.537813,-0.19252 0.77948,-0.33572 0.144484,-0.0848 0.23283,-0.26026 0.353755,-0.38818 0.309767,-0.33002 0.339217,-0.71175 0.275347,-1.14245 -0.06552,-0.43713 -0.327988,-0.6823 -0.685977,-0.8636 -0.07767,-0.0394 -0.183321,-0.0631 -0.265225,-0.0445 -0.358172,0.0819 -0.677326,0.21866 -0.875739,0.56948 -0.17338,0.30553 -0.323571,0.61972 -0.475234,0.93538 -0.158838,0.32928 -0.304243,0.66224 -0.42848,1.0425 -0.105834,-0.48389 -0.0935,-0.93114 -0.0028,-1.37822 0.01013,-0.049 0.0309,-0.0979 0.02946,-0.14596 -0.0094,-0.23799 0.0762,-0.44303 0.210009,-0.63279 0.101413,-0.14375 0.196938,-0.29321 0.309764,-0.42702 0.06902,-0.0806 0.16105,-0.14816 0.25455,-0.20062 0.09424,-0.0539 0.16105,-0.11651 0.191234,-0.24664 -0.05319,-0.0223 -0.107855,-0.0574 -0.166755,-0.069 -0.122213,-0.0245 -0.247371,-0.0438 -0.371609,-0.051 -0.05264,-0.002 -0.117242,0.018 -0.159025,0.0502 -0.159576,0.12517 -0.324122,0.22732 -0.52548,0.28198 -0.178351,0.048 -0.342343,0.14651 -0.455168,0.30186 -0.05743,0.0799 -0.102154,0.17043 -0.140804,0.26026 -0.0497,0.1143 -0.0727,0.24314 -0.135284,0.34878 -0.09847,0.16971 -0.09129,0.33278 -0.02872,0.50616 0.115771,0.31916 0.2286,0.6385 0.358726,1.0022 -0.10215,-0.10639 -0.181847,-0.18185 -0.253076,-0.26449 -0.233017,-0.26891 -0.4156,-0.57316 -0.512597,-0.91311 -0.07767,-0.27462 -0.07546,-0.55807 0.04528,-0.83415 0.10068,-0.23137 0.203564,-0.45647 0.348051,-0.66574 0.155893,-0.22786 0.367376,-0.36665 0.621189,-0.44063 0.182583,-0.0525 0.376026,-0.0727 0.564314,-0.1051 0.132337,-0.023 0.263937,-0.0423 0.396091,-0.0618 0.09865,-0.0136 0.200622,-0.046 0.295593,-0.0322 0.218475,0.0316 0.433451,0.002 0.649168,-0.007 0.253813,-0.009 0.47523,-0.13381 0.649347,-0.30056 0.172462,-0.16621 0.334984,-0.34953 0.450017,-0.56874 0.137309,-0.26468 0.136571,-0.53487 0.04454,-0.80452 -0.08338,-0.24443 -0.187,-0.48168 -0.288967,-0.7204 -0.03238,-0.0747 -0.0727,-0.16179 -0.136571,-0.2056 -0.327251,-0.22657 -0.668676,-0.42204 -1.090715,-0.38118 -0.04178,0.004 -0.09773,-0.007 -0.12295,0.0151 -0.179821,0.16473 -0.436397,0.21424 -0.596709,0.4099 -0.108592,0.13307 -0.196388,0.26596 -0.154609,0.45149 0.01214,0.0547 -0.0014,0.11725 -0.01161,0.17467 -0.03957,0.2402 0.02152,0.44303 0.198413,0.61549 0.163258,0.15958 0.325779,0.3164 0.536342,0.41413 0.01877,0.009 0.03037,0.0339 0.05466,0.0626 -0.07822,0.0488 -0.14798,0.0438 -0.215713,0.008 -0.221421,-0.11798 -0.437688,-0.24663 -0.662789,-0.35817 -0.159575,-0.0782 -0.235038,-0.21848 -0.283996,-0.36867 -0.06184,-0.18995 -0.09847,-0.38836 -0.140988,-0.58383 -0.0092,-0.0381 -0.01143,-0.0871 0.0052,-0.12093 0.118533,-0.2378 0.191971,-0.50027 0.380996,-0.7031 0.08485,-0.0913 0.17835,-0.14522 0.299092,-0.16823 0.230068,-0.0438 0.453697,-0.0999 0.649901,-0.24517 0.154605,-0.1143 0.345843,-0.0799 0.514805,-0.046 0.391855,0.0791 0.743402,0.25234 1.033107,0.53634 0.09645,0.0942 0.19565,0.18554 0.287679,0.28401 0.135834,0.14522 0.195467,0.33369 0.240193,0.51849 0.05743,0.24295 0.05964,0.49953 0.123504,0.74046 0.04031,0.15093 0.023,0.28032 -0.03221,0.41192 -0.03883,0.092 -0.09792,0.17615 -0.153134,0.25953 -0.111538,0.16823 -0.232279,0.32928 -0.3394,0.49898 -0.08982,0.14246 -0.210005,0.23301 -0.369584,0.28198 -0.125159,0.0394 -0.245897,0.0926 -0.395351,0.15018"
       style="fill:#21201d;fill-opacity:1;fill-rule:nonzero;stroke:none;stroke-width:0.184057"
       id="path586" />
  </g>
</svg>
