<?xml version="1.0" encoding="UTF-8" standalone="no"?>
<!-- Created with Inkscape (http://www.inkscape.org/) -->

<svg
   width="7.706615mm"
   height="5.6852746mm"
   viewBox="0 0 7.706615 5.6852746"
   version="1.1"
   id="svg3478"
   inkscape:version="1.1.2 (0a00cf5339, 2022-02-04)"
   sodipodi:docname="sands_of_egypt.svg"
   xmlns:inkscape="http://www.inkscape.org/namespaces/inkscape"
   xmlns:sodipodi="http://sodipodi.sourceforge.net/DTD/sodipodi-0.dtd"
   xmlns="http://www.w3.org/2000/svg"
   xmlns:svg="http://www.w3.org/2000/svg">
  <sodipodi:namedview
     id="namedview3480"
     pagecolor="#ffffff"
     bordercolor="#666666"
     borderopacity="1.0"
     inkscape:pageshadow="2"
     inkscape:pageopacity="0.0"
     inkscape:pagecheckerboard="0"
     inkscape:document-units="mm"
     showgrid="false"
     inkscape:zoom="0.64052329"
     inkscape:cx="568.28535"
     inkscape:cy="464.46399"
     inkscape:window-width="2560"
     inkscape:window-height="1376"
     inkscape:window-x="0"
     inkscape:window-y="0"
     inkscape:window-maximized="1"
     inkscape:current-layer="layer1" />
  <defs
     id="defs3475" />
  <g
     inkscape:label="Layer 1"
     inkscape:groupmode="layer"
     id="layer1"
     transform="translate(45.573751,-25.65945)">
    <path
       d="m -42.68499,31.344724 c -0.02723,-0.0611 -0.0819,-0.06902 -0.140804,-0.07693 -0.125893,-0.01803 -0.251605,-0.03737 -0.376764,-0.06258 -0.09644,-0.01933 -0.189025,-0.03221 -0.279026,0.02099 -0.05172,0.0302 -0.106387,0.04602 -0.164546,0.01436 -0.01087,-0.0052 -0.02522,-0.0065 -0.03737,-0.0052 -0.183501,0.01803 -0.362405,0.0052 -0.544251,-0.03295 -0.167676,-0.03608 -0.342347,-0.04031 -0.513518,-0.06037 -0.0762,-0.0086 -0.150925,-0.023 -0.227125,-0.03534 -0.08761,-0.01362 -0.180375,-0.02007 -0.227863,-0.127921 0.09553,-0.128658 0.242955,-0.179091 0.374555,-0.250871 0.163258,-0.0878 0.334246,-0.161787 0.494559,-0.255291 0.174117,-0.102888 0.309951,-0.2459 0.38983,-0.4364 0.03443,-0.08338 0.07822,-0.161788 0.116325,-0.243142 0.03387,-0.07399 0.04252,-0.1524 -0.01143,-0.218475 -0.133809,-0.161787 -0.244426,-0.347317 -0.440076,-0.447262 -0.02081,-0.0114 -0.04528,-0.01711 -0.08687,-0.03369 -0.0037,0.193259 -0.05246,0.343634 -0.276084,0.321363 -0.05117,0.1351 0.02007,0.235042 0.06976,0.33425 0.06829,0.136571 0.150191,0.2667 0.223446,0.401246 0.03164,0.05816 0.04546,0.120008 -0.01214,0.187554 -0.03589,0 -0.08632,0.01379 -0.122947,-0.0021 -0.130129,-0.05614 -0.253079,-0.01584 -0.376763,0.01711 -0.320629,0.08632 -0.557138,-0.01711 -0.719659,-0.329283 0.07196,-0.05816 0.138775,-0.127917 0.219946,-0.174671 0.103621,-0.05963 0.159759,-0.1524 0.188472,-0.255288 0.02797,-0.09773 0.08117,-0.171725 0.144483,-0.245163 0.133075,-0.154425 0.299092,-0.282529 0.374555,-0.483891 0.02226,-0.0611 0.0878,-0.07675 0.147429,-0.04454 0.06681,0.03663 0.136571,0.07418 0.189763,0.125896 0.199884,0.194183 0.434188,0.335721 0.69518,0.479471 0.04325,-0.05466 0.08559,-0.117796 0.138042,-0.1697 0.08135,-0.0797 0.159025,-0.177433 0.258967,-0.222158 0.145221,-0.06461 0.237247,-0.174671 0.322097,-0.292467 0.204121,-0.286212 0.407684,-0.573892 0.555667,-0.894521 0.07767,-0.167496 0.237984,-0.243696 0.369585,-0.351554 0.03461,-0.02798 0.07694,-0.04675 0.111537,-0.07399 0.188292,-0.148904 0.331301,-0.169704 0.521247,-0.023 0.172463,0.132888 0.353021,0.250134 0.53413,0.368117 0.316396,0.204854 0.561555,0.480941 0.777822,0.786479 0.07344,0.103625 0.172646,0.188475 0.256759,0.284 0.1143,0.130129 0.225101,0.262467 0.337926,0.392596 0.02081,0.023 0.04675,0.0416 0.07547,0.06607 0.146692,-0.122213 0.226572,-0.282529 0.304797,-0.442842 0.09276,-0.187554 0.09202,-0.189763 0.225834,-0.288233 0.187004,0.09994 0.379525,0.196204 0.520513,0.371612 0.108592,0.133809 0.223629,0.262467 0.340134,0.391121 0.023,0.02522 0.06313,0.03534 0.09626,0.05246 v 0.07694 c -0.158105,-0.05964 -0.294676,-0.145959 -0.404005,-0.27885 -0.05172,-0.06184 -0.125892,-0.106384 -0.193442,-0.153137 -0.06755,-0.04748 -0.13878,-0.09 -0.209272,-0.133072 -0.0309,-0.01877 -0.06184,-0.03589 -0.1143,-0.06608 0.0044,0.05319 -0.0021,0.08614 0.01087,0.109883 0.04454,0.08412 0.09423,0.166941 0.145217,0.248108 0.05098,0.08191 0.09847,0.162525 0.04951,0.278296 -0.07399,-0.0086 -0.142275,-0.01379 -0.210559,-0.02522 -0.06111,-0.0094 -0.097,0.0079 -0.110067,0.07197 -0.01143,0.06037 -0.0302,0.118534 -0.05025,0.196942 0.215713,0.230808 0.448543,0.460142 0.723156,0.707517 -0.0762,-0.01877 -0.1143,-0.02025 -0.144484,-0.03755 -0.173196,-0.097 -0.34713,-0.192525 -0.514071,-0.298912 -0.11853,-0.07565 -0.23283,-0.159763 -0.336455,-0.253817 -0.196938,-0.181296 -0.385413,-0.371796 -0.576647,-0.55935 -0.154421,-0.152584 -0.313447,-0.302038 -0.460139,-0.462354 -0.172462,-0.188475 -0.326333,-0.393333 -0.533396,-0.548675 -0.04031,-0.03094 -0.07049,-0.07399 -0.107855,-0.108413 -0.155346,-0.142458 -0.308479,-0.287683 -0.470263,-0.422779 -0.07105,-0.05982 -0.163813,-0.08559 -0.288971,-0.06902 0.110067,0.149454 0.196204,0.291913 0.307742,0.411184 0.130129,0.138045 0.225101,0.287499 0.291913,0.46585 0.05743,0.154608 0.05393,0.283266 -0.0497,0.41137 -0.09129,0.112092 -0.134359,0.268171 -0.291913,0.318421 -0.02431,0.0079 -0.05025,0.0079 -0.0762,0.01214 -0.182584,0.02596 -0.365905,0.05393 -0.549226,0.07841 -0.04896,0.0065 -0.09994,0.0037 -0.149638,-0.0014 -0.260254,-0.02357 -0.520509,-0.04951 -0.780764,-0.07252 -0.02081,-0.0021 -0.04307,0.02081 -0.07896,0.04031 0.04307,0.03589 0.07252,0.06902 0.108409,0.08909 0.08062,0.04528 0.141725,0.102887 0.187004,0.185529 0.03313,0.06111 0.08632,0.111354 0.135096,0.162525 0.163258,0.170988 0.327251,0.342163 0.492534,0.511863 0.107121,0.110066 0.214976,0.219212 0.32578,0.3256 0.115033,0.110066 0.234304,0.215716 0.351546,0.325045 0.08043,0.07546 0.07915,0.16473 0.04454,0.268171 -0.108592,-0.0094 -0.209271,-0.02596 -0.309951,-0.02596 -0.135096,0 -0.264488,-0.0065 -0.396088,-0.0473 -0.210562,-0.06626 -0.327067,0.01143 -0.391855,0.234304 z"
       style="fill:#21201d;fill-opacity:1;fill-rule:nonzero;stroke:none;stroke-width:0.184057"
       id="path596" />
    <path
       d="m -40.991675,26.372216 c -0.03755,0.04546 -0.06975,0.08356 -0.105829,0.128104 0.01235,0.07915 0.01305,0.164549 0.04104,0.240749 0.0554,0.152584 0.243692,0.255288 0.403267,0.230071 0.08853,-0.01362 0.175592,-0.03514 0.261729,-0.05522 0.294122,-0.0705 0.540022,0.01362 0.746348,0.2286 0.0302,0.03238 0.05742,0.06755 0.08706,0.100679 0.08982,0.100679 0.197676,0.1351 0.327805,0.08485 0.01655,-0.0066 0.03589,-0.0059 0.05393,-0.0059 0.005,-7.06e-4 0.01013,0.0072 0.02078,0.01584 -0.005,0.01379 -0.0065,0.03313 -0.01729,0.04528 -0.153133,0.187004 -0.1524,0.185533 -0.360196,0.05043 -0.03663,-0.02374 -0.0797,-0.03884 -0.121479,-0.05614 -0.111355,-0.04528 -0.222155,-0.08706 -0.321363,-0.163258 -0.137305,-0.104913 -0.209271,-0.09056 -0.33498,0.03238 -0.204304,0.198416 -0.255288,0.20357 -0.521984,0.0913 -0.13528,-0.05595 -0.220684,-0.171728 -0.337192,-0.247928 -0.08706,-0.05687 -0.141722,-0.134546 -0.198413,-0.222892 -0.127367,-0.194917 -0.06184,-0.371796 0.01584,-0.546467 0.0797,-0.179091 0.22142,-0.18185 0.326333,-0.01877 0.01087,0.01584 0.01729,0.03461 0.03461,0.06828"
       style="fill:#21201d;fill-opacity:1;fill-rule:nonzero;stroke:none;stroke-width:0.184057"
       id="path598" />
    <path
       d="m -42.045764,27.289745 c -0.04601,-0.02741 -0.09423,-0.05614 -0.142275,-0.08485 -0.167675,-0.097 -0.340872,-0.1732 -0.532843,-0.213509 -0.117242,-0.02522 -0.229334,-0.07767 -0.342896,-0.120187 -0.119451,-0.04381 -0.237984,-0.08982 -0.356701,-0.137309 -0.202646,-0.07896 -0.295409,-0.239275 -0.273875,-0.466587 0.0094,-0.09552 0.01213,-0.192708 0.01362,-0.288234 0.0028,-0.129391 0.07418,-0.215716 0.176142,-0.280504 0.103625,-0.06534 0.229333,-0.04675 0.314921,0.04031 0.0589,0.05963 0.06626,0.113562 -0.0042,0.16105 -0.184059,0.123687 -0.167492,0.3048 -0.143934,0.482416 0.0079,0.06258 0.05835,0.127921 0.105096,0.175408 0.135834,0.13528 0.312713,0.193443 0.493822,0.237984 0.08062,0.01951 0.162521,0.03164 0.244429,0.04455 0.20283,0.0309 0.349522,0.149637 0.47468,0.302037 0.04233,0.05172 0.05098,0.101417 -0.02596,0.14743"
       style="fill:#21201d;fill-opacity:1;fill-rule:nonzero;stroke:none;stroke-width:0.184057"
       id="path600" />
    <path
       d="m -42.941565,28.179112 c -0.04252,-0.01288 -0.05908,-0.01288 -0.06626,-0.02081 -0.128655,-0.135284 -0.299643,-0.122217 -0.462164,-0.130129 -0.245163,-0.01235 -0.484621,-0.03755 -0.70328,-0.163259 -0.02575,-0.01584 -0.06037,-0.02025 -0.09203,-0.02448 -0.09405,-0.01362 -0.171725,-0.06184 -0.224917,-0.1351 -0.08853,-0.120191 -0.184055,-0.222895 -0.332221,-0.269645 -0.03165,-0.01012 -0.04951,-0.06111 -0.08632,-0.108596 0.19915,-0.06902 0.354493,-0.02872 0.507626,0.09921 0.02374,-0.125158 0.04675,-0.223629 0.06037,-0.323571 0.0079,-0.05669 0.02374,-0.111358 0.08559,-0.106387 0.0589,0.005 0.121475,0.02946 0.171908,0.06184 0.01436,0.0086 0.0028,0.08338 -0.01729,0.115774 -0.08558,0.138042 -0.06608,0.265963 0.01584,0.395355 0.08043,0.128841 0.183321,0.207804 0.346579,0.192708 0.144484,-0.01362 0.286759,-0.03883 0.434926,-0.0094 0.0762,0.01528 0.135096,0.03681 0.179821,0.09497 0.07031,0.09424 0.150192,0.184795 0.181847,0.331487"
       style="fill:#21201d;fill-opacity:1;fill-rule:nonzero;stroke:none;stroke-width:0.184057"
       id="path602" />
  </g>
</svg>
