<?xml version="1.0" encoding="UTF-8" standalone="no"?>
<!-- Created with Inkscape (http://www.inkscape.org/) -->

<svg
   width="8.1326675mm"
   height="5.3285627mm"
   viewBox="0 0 8.1326675 5.3285627"
   version="1.1"
   id="svg1677"
   inkscape:version="1.1.2 (0a00cf5339, 2022-02-04)"
   sodipodi:docname="set.svg"
   xmlns:inkscape="http://www.inkscape.org/namespaces/inkscape"
   xmlns:sodipodi="http://sodipodi.sourceforge.net/DTD/sodipodi-0.dtd"
   xmlns="http://www.w3.org/2000/svg"
   xmlns:svg="http://www.w3.org/2000/svg">
  <sodipodi:namedview
     id="namedview1679"
     pagecolor="#ffffff"
     bordercolor="#666666"
     borderopacity="1.0"
     inkscape:pageshadow="2"
     inkscape:pageopacity="0.0"
     inkscape:pagecheckerboard="0"
     inkscape:document-units="mm"
     showgrid="false"
     inkscape:zoom="0.64052329"
     inkscape:cx="-1372.3154"
     inkscape:cy="359.86201"
     inkscape:window-width="2560"
     inkscape:window-height="1376"
     inkscape:window-x="0"
     inkscape:window-y="0"
     inkscape:window-maximized="1"
     inkscape:current-layer="layer1" />
  <defs
     id="defs1674" />
  <g
     inkscape:label="Layer 1"
     inkscape:groupmode="layer"
     id="layer1"
     transform="translate(-468.0766,-53.10064)">
    <path
       d="m 476.16228,57.385867 c -0.13602,-0.118717 -0.27535,-0.234305 -0.40769,-0.357992 -0.14817,-0.139517 -0.29486,-0.280504 -0.4329,-0.429959 -0.10141,-0.108595 -0.20062,-0.224366 -0.27829,-0.350999 -0.12939,-0.210563 -0.26302,-0.406217 -0.47873,-0.546284 -0.164,-0.106387 -0.29689,-0.260258 -0.44358,-0.392596 -0.0504,-0.04528 -0.0972,-0.09994 -0.15608,-0.130866 -0.15461,-0.0819 -0.27387,-0.204121 -0.38744,-0.33075 -0.14816,-0.165284 -0.31639,-0.300567 -0.51775,-0.392596 -0.25731,-0.117796 -0.49326,-0.263021 -0.6845,-0.475975 -0.0129,-0.01436 -0.0322,-0.02374 -0.069,-0.05025 -0.0151,0.0819 -0.0366,0.151663 -0.0394,0.222892 -0.0158,0.346583 -0.0309,0.692979 -0.0353,1.039558 -0.002,0.176883 0.0223,0.353025 0.0295,0.529904 0.018,0.437875 -0.0179,0.872067 -0.0747,1.304971 -0.0173,0.127921 -0.0331,0.256025 -0.051,0.383946 -0.002,0.0151 -0.0173,0.02946 -0.046,0.0762 -0.0173,-0.0878 -0.0274,-0.14375 -0.0374,-0.200625 -0.067,-0.350813 -0.0777,-0.703837 -0.0734,-1.059804 0.004,-0.464379 0.0124,-0.929492 -0.004,-1.394054 -0.0101,-0.324313 -0.0576,-0.6477 -0.0907,-0.997226 -0.0567,0.02448 -0.097,0.03883 -0.13436,0.0589 -0.12001,0.06405 -0.23155,0.15332 -0.35799,0.19142 -0.26964,0.0797 -0.46456,0.251609 -0.64217,0.453521 -0.0272,0.0309 -0.0552,0.0611 -0.0777,0.09571 -0.094,0.148166 -0.21847,0.259521 -0.38247,0.326333 -0.0309,0.01235 -0.0611,0.03387 -0.0834,0.05835 -0.24075,0.265966 -0.54131,0.454992 -0.8382,0.6477 -0.21571,0.139517 -0.36535,0.348054 -0.5321,0.535058 -0.0633,0.07105 -0.0812,0.186083 -0.10859,0.284 -0.0309,0.110621 -0.0561,0.224183 -0.0712,0.338483 -0.0158,0.125896 0.008,0.154609 0.1281,0.192709 0.0381,0.01235 0.0777,0.02522 0.11779,0.02946 0.30628,0.03239 0.59966,0.115771 0.88734,0.225104 0.40695,0.154608 0.8196,0.29265 1.23005,0.4364 0.33645,0.117246 0.69315,0.142462 1.02317,0.27535 0.0359,0.01436 0.10141,0.0037 0.1316,-0.02152 0.20559,-0.169704 0.46013,-0.208538 0.7053,-0.244429 0.29467,-0.04307 0.59671,-0.03957 0.8958,-0.05319 0.0747,-0.0037 0.14945,0.0072 0.2251,0.0086 0.13013,0.0028 0.25013,-0.02099 0.37584,-0.0705 0.21369,-0.08411 0.43787,-0.153871 0.67457,-0.137308 0.14725,0.01013 0.28253,-0.0072 0.40897,-0.09424 0.0985,-0.06755 0.19768,-0.04878 0.23523,0.02007 0.0401,0.0727 0.0136,0.170437 -0.0705,0.23302 -0.0433,0.03238 -0.0935,0.05614 -0.14319,0.07841 -0.0495,0.02152 -0.10915,0.02649 -0.1524,0.05669 -0.17467,0.12295 -0.37235,0.125896 -0.57002,0.110067 -0.31364,-0.02575 -0.60831,0.05761 -0.90519,0.133812 -0.026,0.0065 -0.0519,0.01711 -0.0762,0.02872 -0.32578,0.14375 -0.66794,0.165283 -1.01949,0.173934 -0.23301,0.0059 -0.47542,0.023 -0.67659,0.182033 -0.0878,0.06958 -0.15037,0.05172 -0.25749,-0.02963 -0.10271,-0.07823 -0.20191,-0.163813 -0.31272,-0.227863 -0.21055,-0.120742 -0.44799,-0.16455 -0.68652,-0.177617 -0.45297,-0.02575 -0.88807,-0.129392 -1.30717,-0.296887 -0.15682,-0.06258 -0.29983,-0.162521 -0.47597,-0.171171 -0.0611,-0.0028 -0.12222,-0.0079 -0.18185,-0.01785 -0.0806,-0.01235 -0.15957,-0.0302 -0.23945,-0.04675 -0.0653,-0.01436 -0.1316,-0.0302 -0.19695,-0.04675 -0.0591,-0.01436 -0.12147,-0.023 -0.1754,-0.04969 -0.17044,-0.08485 -0.22087,-0.09479 -0.11725,-0.308299 0.0416,-0.08559 0.0827,-0.173384 0.10565,-0.265413 0.0641,-0.250871 0.20063,-0.459408 0.35799,-0.659292 0.1316,-0.165287 0.25676,-0.335724 0.38542,-0.503954 0.10362,-0.13657 0.22289,-0.252342 0.36885,-0.349525 0.12295,-0.08117 0.21865,-0.20412 0.32706,-0.307558 0.0885,-0.08485 0.17191,-0.176329 0.26817,-0.251058 0.24167,-0.189026 0.4918,-0.366642 0.7342,-0.55438 0.16749,-0.128658 0.3429,-0.252896 0.48591,-0.405479 0.21222,-0.227129 0.45094,-0.413396 0.71322,-0.573712 0.092,-0.05595 0.15185,-0.06184 0.19565,0.01362 0.0977,0.168229 0.26099,0.258233 0.40548,0.368854 0.29835,0.228046 0.59395,0.458671 0.92598,0.639233 0.1489,0.07988 0.28179,0.191971 0.41137,0.302775 0.22786,0.194734 0.4456,0.401797 0.67291,0.598188 0.0712,0.0624 0.15461,0.112092 0.23651,0.159579 0.20485,0.120004 0.35946,0.280321 0.48094,0.488121 0.18626,0.316396 0.36811,0.63555 0.60334,0.9225 0.1373,0.167492 0.23853,0.365171 0.35007,0.552171 0.0287,0.04804 0.0344,0.109883 0.0503,0.166021 -0.0158,0.01087 -0.0315,0.02152 -0.0473,0.03164"
       style="fill:#21201d;fill-opacity:1;fill-rule:nonzero;stroke:none;stroke-width:0.184057"
       id="path630" />
  </g>
</svg>
