<?xml version="1.0" encoding="UTF-8" standalone="no"?>
<!-- Created with Inkscape (http://www.inkscape.org/) -->

<svg
   width="7.2261677mm"
   height="6.5091319mm"
   viewBox="0 0 7.2261677 6.5091319"
   version="1.1"
   id="svg3628"
   inkscape:version="1.1.2 (0a00cf5339, 2022-02-04)"
   sodipodi:docname="the_eternal_slumber.svg"
   xmlns:inkscape="http://www.inkscape.org/namespaces/inkscape"
   xmlns:sodipodi="http://sodipodi.sourceforge.net/DTD/sodipodi-0.dtd"
   xmlns="http://www.w3.org/2000/svg"
   xmlns:svg="http://www.w3.org/2000/svg">
  <sodipodi:namedview
     id="namedview3630"
     pagecolor="#ffffff"
     bordercolor="#666666"
     borderopacity="1.0"
     inkscape:pageshadow="2"
     inkscape:pageopacity="0.0"
     inkscape:pagecheckerboard="0"
     inkscape:document-units="mm"
     showgrid="false"
     inkscape:zoom="0.64052329"
     inkscape:cx="-899.26473"
     inkscape:cy="547.20883"
     inkscape:window-width="2560"
     inkscape:window-height="1376"
     inkscape:window-x="0"
     inkscape:window-y="0"
     inkscape:window-maximized="1"
     inkscape:current-layer="layer1" />
  <defs
     id="defs3625" />
  <g
     inkscape:label="Layer 1"
     inkscape:groupmode="layer"
     id="layer1"
     transform="translate(-342.95605,-3.7676767)">
    <path
       d="m 347.71632,6.8681856 c -0.0576,0.027234 -0.10362,0.049512 -0.1489,0.072521 -0.18829,0.094238 -0.24442,0.2100086 -0.19767,0.4076876 0.0445,0.1877377 0.19841,0.2652254 0.38467,0.2048545 0.14596,-0.04675 0.22639,-0.1479797 0.27241,-0.2860251 -0.0193,-0.097917 -0.0388,-0.1956541 -0.0574,-0.2919166 -0.0826,-0.035338 -0.16252,-0.069021 -0.25308,-0.107121 m -2.02167,0.5311916 c 0.0718,0 0.10197,0.00282 0.13068,-7.055e-4 0.18995,-0.02226 0.33296,-0.138042 0.36388,-0.2924669 0.0431,-0.2171876 -0.12001,-0.4630914 -0.3394,-0.5048709 -0.0351,-0.0072 -0.074,-0.00847 -0.10915,0 -0.21645,0.048958 -0.37253,0.3221003 -0.30774,0.5328462 0.051,0.166758 0.16234,0.2639412 0.26173,0.2652289 m 2.67875,1.4652836 c 0.0871,-0.073254 0.092,-0.1501916 0.10215,-0.2300711 0.006,-0.044542 0.0366,-0.1143 0.0683,-0.1222128 0.14816,-0.036629 0.24884,-0.1538746 0.38247,-0.2085375 0.29412,-0.1222163 0.46584,-0.3530247 0.60186,-0.6246953 0.0826,-0.1632585 0.0179,-0.3171296 -0.0381,-0.4601422 -0.0583,-0.1437499 -0.19344,-0.201362 -0.35891,-0.1862667 0.0101,0.02152 0.0138,0.046013 0.0274,0.05908 0.28179,0.2528958 0.19768,0.6815667 -0.0252,0.8928665 -0.14945,0.1417249 -0.31713,0.2481086 -0.50045,0.3416123 -0.14522,0.073992 -0.28676,0.083379 -0.43989,0.083379 -0.1294,7.056e-4 -0.26026,0.018591 -0.38965,0.032209 -0.21718,0.021731 -0.43363,0.0381 -0.64567,0.096446 -0.0202,0.00572 -0.0453,0.0079 -0.0655,0.00212 -0.16455,-0.052642 -0.32854,-0.02667 -0.49309,-7.055e-4 -0.0425,0.0072 -0.0878,-0.00212 -0.1316,-0.0079 -0.0712,-0.00938 -0.14319,-0.02152 -0.21498,-0.034607 -0.15534,-0.026494 -0.31069,-0.066813 -0.46805,-0.080433 -0.21074,-0.018027 -0.39259,-0.1546084 -0.60978,-0.1417249 -0.0201,0.00141 -0.0473,-0.0079 -0.0596,-0.021519 -0.10859,-0.1192706 -0.26448,-0.1509289 -0.39976,-0.2192125 -0.18112,-0.090742 -0.37805,-0.1531373 -0.48094,-0.3502625 -0.006,-0.012136 -0.0195,-0.023001 -0.0324,-0.028716 -0.11577,-0.049696 -0.16896,-0.159579 -0.23577,-0.2530793 -0.20357,-0.2817918 -0.19915,-0.5801501 -0.0418,-0.8807167 0.0217,-0.041046 0.0663,-0.073992 0.10712,-0.1006793 0.10712,-0.068287 0.21866,-0.1301291 0.33222,-0.197679 -0.0698,-0.096446 -0.17541,-0.08485 -0.23872,-0.041783 -0.18111,0.121479 -0.34934,0.2646751 -0.41983,0.4860996 -0.0641,0.1984128 -0.0324,0.3903838 0.051,0.572971 0.0784,0.1719086 0.17412,0.335721 0.25676,0.5054212 0.0856,0.1733832 0.18111,0.3314912 0.3832,0.3933331 0.0898,0.027975 0.14817,0.092029 0.14522,0.1962044 -0.002,0.069758 0.0381,0.1165119 0.0955,0.1833245 0.0289,-0.082642 0.0433,-0.1437499 0.0705,-0.197679 0.026,-0.050983 0.10363,-0.049512 0.1259,0.00212 0.0287,0.066075 0.0453,0.1365708 0.0675,0.2055918 0.0351,0.1093329 0.0935,0.2028331 0.20135,0.2990956 0.005,-0.087058 0.008,-0.1437499 0.0114,-0.2013585 0.004,-0.065342 0.0353,-0.1091495 0.11007,-0.1229537 0.17687,0.1323376 0.22362,0.3559705 0.34805,0.5543833 0.0502,-0.107121 0.0171,-0.1882917 0.0309,-0.2637543 0.006,-0.038284 0.0329,-0.091475 0.0631,-0.1014166 0.0295,-0.010866 0.0878,0.013617 0.11081,0.040862 0.0547,0.066259 0.0962,0.1424587 0.143,0.2149792 0.0339,0.052454 0.0663,0.105096 0.0999,0.1582879 l 0.0302,-0.0079 c -0.0107,-0.1056499 -0.0215,-0.2114832 -0.0329,-0.3206291 0.0401,-0.064788 0.10841,-0.063317 0.17246,-0.047487 0.0569,0.013617 0.069,0.066079 0.0762,0.1207417 0.006,0.042333 0.0331,0.081171 0.041,0.1229501 0.025,0.1338121 0.10344,0.2278662 0.20412,0.315662 0.0223,-0.1402538 0.0381,-0.2681746 0.0641,-0.3955415 0.0258,-0.1293918 0.0589,-0.1479832 0.19915,-0.1343624 0.11927,0.01143 0.14025,0.030903 0.14872,0.1689664 0.005,0.087058 7e-4,0.1739336 7e-4,0.2746128 0.11798,-0.091292 0.11798,-0.091292 0.13234,-0.1538711 0.009,-0.0416 0.023,-0.082642 0.0366,-0.1236874 0.0604,-0.1761454 0.0611,-0.1761454 0.2632,-0.1387792 0.041,0.1352832 0.0712,0.2725878 0.0871,0.4494671 0.1084,-0.1244212 0.10344,-0.2459002 0.13932,-0.3515501 0.0166,-0.048221 0.0195,-0.1058334 0.0497,-0.141725 0.028,-0.033867 0.0834,-0.058896 0.12866,-0.063317 0.0583,-0.00497 0.0856,0.044545 0.0972,0.1006827 0.0171,0.092029 0.0374,0.1825837 0.0646,0.3127128 0.0425,-0.099208 0.0784,-0.1674918 0.10142,-0.2400123 0.0265,-0.082088 0.0431,-0.1674918 0.0641,-0.2481086 0.15884,-0.018027 0.15957,-0.018768 0.20909,0.086321 0.0245,0.050987 0.0467,0.1034415 0.0769,0.1724624 M 342.95605,6.9111646 V 6.6904774 c 0.0143,-0.029457 0.0352,-0.058346 0.0416,-0.089821 0.018,-0.089267 0.0539,-0.1654669 0.12663,-0.2243666 0.11927,-0.096446 0.23652,-0.1949168 0.35155,-0.2897047 0.003,-0.019509 0.009,-0.034607 0.006,-0.048225 -0.0324,-0.183321 -0.0252,-0.1847921 0.13951,-0.2817918 0.074,-0.043991 0.14522,-0.1065707 0.19123,-0.1768793 0.0482,-0.074175 0.0913,-0.1222163 0.18627,-0.1266331 0.0782,-0.00353 0.11209,-0.064604 0.10491,-0.1395165 -0.004,-0.050246 -0.0237,-0.098471 -0.0351,-0.1479797 -0.0203,-0.082829 -0.0396,-0.1662077 -0.0583,-0.2451665 0.1316,-0.1014165 0.2632,-0.090742 0.39185,-0.061845 0.10712,0.024483 0.21001,0.030939 0.33498,0.00497 -0.0394,-0.056875 -0.0703,-0.096262 -0.0955,-0.1395165 -0.0561,-0.097734 -0.0366,-0.1625212 0.0661,-0.2063292 0.046,-0.018591 0.0979,-0.025224 0.14817,-0.030903 0.17761,-0.020779 0.34658,0.033126 0.51978,0.057612 0.13307,0.018591 0.25823,0.091292 0.4178,0.065338 -0.072,-0.1179795 -0.13381,-0.2214209 -0.19712,-0.3243086 -0.0631,-0.1019669 -0.20117,-0.1509289 -0.2113,-0.3055373 0.18038,-0.077671 0.36167,-0.042333 0.52916,0.0079 0.33499,0.1014166 0.66077,0.2300711 0.95986,0.4178089 0.079,0.048779 0.16528,0.086879 0.25455,0.1328913 0.0237,-0.056691 0.0438,-0.1019668 0.0639,-0.1509289 -0.0718,-0.1056463 -0.13436,-0.2135046 -0.2135,-0.3077421 -0.0826,-0.097737 -0.18259,-0.1811126 -0.29836,-0.2946788 0.0661,-0.0079 0.10418,-0.02226 0.13952,-0.01584 0.31841,0.059637 0.61824,0.1840582 0.89083,0.3478706 0.3105,0.187004 0.5945,0.4200207 0.89065,0.6305832 0.0304,0.02226 0.0698,0.030903 0.12663,0.054663 -0.0582,-0.1509254 -0.10565,-0.2738755 -0.15387,-0.3960918 0.14246,-0.051167 0.21866,0.043808 0.28105,0.1120916 0.23872,0.263204 0.47321,0.5321123 0.69316,0.8124331 0.18773,0.2409296 0.34087,0.4960338 0.38541,0.8174002 0.0324,0.2401958 0.074,0.4846249 0.16602,0.7169044 0.0517,0.1330748 0.0762,0.2825291 0.0814,0.4257287 0.006,0.1437463 -0.0282,0.2889708 -0.0447,0.4364002 -0.0178,0.010689 -0.0351,0.026494 -0.0552,0.032209 -0.11651,0.030939 -0.16178,0.1043622 -0.16326,0.2258413 -0.001,0.1150337 -0.0173,0.2322794 -0.0445,0.344371 -0.0482,0.2006248 -0.15037,0.3537585 -0.37179,0.408425 -0.14522,0.035892 -0.28032,0.124975 -0.31051,0.2768212 -0.0497,0.2493997 -0.23522,0.3738245 -0.42498,0.4658536 -0.16749,0.081904 -0.24148,0.2236294 -0.33425,0.3537585 -0.0677,0.095525 -0.10362,0.1984132 -0.24167,0.2249172 -0.12,0.02318 -0.23301,0.09498 -0.36166,0.05835 -0.17891,-0.05246 -0.36296,-0.0302 -0.545,-0.02872 -0.0653,7.05e-4 -0.12939,0.05669 -0.19546,0.08338 -0.0799,0.03239 -0.15884,0.07178 -0.24167,0.08835 -0.1027,0.02099 -0.21203,0.01013 -0.31492,0.01436 -0.16749,0.0086 -0.30829,-0.01584 -0.45149,-0.09994 -0.079,-0.04602 -0.17467,-0.06534 -0.26449,-0.09056 -0.11945,-0.03164 -0.24093,-0.05393 -0.36093,-0.08485 -0.10436,-0.026494 -0.2078,-0.081171 -0.31271,-0.084113 -0.25308,-0.00995 -0.44303,-0.1264496 -0.60904,-0.3033289 -0.14025,-0.1481666 -0.26449,-0.3163958 -0.43935,-0.4235167 -0.22417,-0.1387793 -0.32485,-0.346583 -0.38596,-0.5860415 -0.009,-0.035137 -0.0109,-0.074725 -0.0302,-0.1019669 -0.0987,-0.1365709 -0.19492,-0.2746163 -0.30425,-0.4012459 -0.0883,-0.1028912 -0.13509,-0.2055954 -0.0891,-0.339404 0.009,-0.025753 0.018,-0.057425 0.0114,-0.082642 -0.0676,-0.2753501 -0.18185,-0.5306378 -0.33922,-0.7664168"
       style="fill:#21201d;fill-opacity:1;fill-rule:nonzero;stroke:none;stroke-width:0.184057"
       id="path582" />
  </g>
</svg>
