<?xml version="1.0" encoding="UTF-8" standalone="no"?>
<!-- Created with Inkscape (http://www.inkscape.org/) -->

<svg
   width="6.5424018mm"
   height="6.6047564mm"
   viewBox="0 0 6.5424018 6.6047564"
   version="1.1"
   id="svg2291"
   inkscape:version="1.1.2 (0a00cf5339, 2022-02-04)"
   sodipodi:docname="the_nights_usurper.svg"
   xmlns:inkscape="http://www.inkscape.org/namespaces/inkscape"
   xmlns:sodipodi="http://sodipodi.sourceforge.net/DTD/sodipodi-0.dtd"
   xmlns="http://www.w3.org/2000/svg"
   xmlns:svg="http://www.w3.org/2000/svg">
  <sodipodi:namedview
     id="namedview2293"
     pagecolor="#ffffff"
     bordercolor="#666666"
     borderopacity="1.0"
     inkscape:pageshadow="2"
     inkscape:pageopacity="0.0"
     inkscape:pagecheckerboard="0"
     inkscape:document-units="mm"
     showgrid="false"
     inkscape:zoom="0.64052329"
     inkscape:cx="67.13261"
     inkscape:cy="-38.249975"
     inkscape:window-width="2560"
     inkscape:window-height="1376"
     inkscape:window-x="0"
     inkscape:window-y="0"
     inkscape:window-maximized="1"
     inkscape:current-layer="layer1" />
  <defs
     id="defs2288" />
  <g
     inkscape:label="Layer 1"
     inkscape:groupmode="layer"
     id="layer1"
     transform="translate(-87.160311,-158.60669)">
    <path
       d="m 91.019961,161.20275 c 0.14098,-0.11503 0.2459,-0.24884 0.31786,-0.40327 0.0503,-0.11006 0.13068,-0.20283 0.22418,-0.25381 0.10068,-0.0547 0.15958,-0.14246 0.24093,-0.21075 0.0547,-0.0475 0.0596,-0.13234 0.0208,-0.19271 -0.0863,-0.13289 -0.18406,-0.26173 -0.31345,-0.35008 -0.14946,-0.10288 -0.27461,-0.22068 -0.37235,-0.37308 -0.0569,-0.0885 -0.1281,-0.16897 -0.1986,-0.24811 -0.0552,-0.0618 -0.10638,-0.0611 -0.16454,-0.009 -0.12939,0.11283 -0.25805,0.22787 -0.38615,0.34235 -0.0223,0.0186 -0.0388,0.0473 -0.0631,0.0604 -0.11375,0.0619 -0.2251,0.12939 -0.34455,0.17743 -0.11927,0.0482 -0.21774,0.15259 -0.36223,0.13676 -0.0217,-0.002 -0.046,0.028 -0.0697,0.0416 -0.0965,0.0539 -0.11007,0.0841 -0.0547,0.18259 0.0554,0.0965 0.12866,0.1813 0.18406,0.27682 0.0935,0.15903 0.22068,0.30278 0.26596,0.48316 0.0281,0.11374 0.0942,0.18129 0.15884,0.24737 0.31437,0.006 0.61622,-0.028 0.91678,0.0928 m 1.17759,4.00823 c -0.0144,-0.0453 -0.056,-0.10914 -0.0394,-0.13288 0.10491,-0.14817 0.069,-0.33646 0.15239,-0.48905 0.0158,-0.0287 0.005,-0.0725 0.0208,-0.10123 0.0359,-0.0626 -0.10418,-0.0878 -0.0295,-0.15185 0.0618,-0.0524 -0.0433,-0.0703 -0.0215,-0.12718 0.0151,-0.041 -0.0173,-0.10639 -0.0403,-0.15461 -0.0517,-0.11209 -0.11227,-0.21921 -0.16749,-0.3256 -0.37032,0.0856 -0.51057,0.25161 -0.50045,0.64844 -0.0287,-0.008 -0.0611,-0.007 -0.0747,-0.023 -0.13161,-0.14817 -0.16897,-0.32929 -0.13087,-0.51408 0.0158,-0.0804 0.0928,-0.15535 0.15534,-0.21995 0.12866,-0.13381 0.26597,-0.25952 0.40622,-0.39407 -0.009,-0.0287 -0.0388,-0.0747 -0.0361,-0.11927 0.006,-0.0878 -0.0166,-0.15461 -0.0876,-0.20853 -0.0309,-0.0237 -0.0784,-0.17836 -0.0928,-0.24738 -0.0101,-0.046 -0.0309,-0.0891 -0.0445,-0.12792 -0.26541,0.097 -0.33002,0.35726 -0.49475,0.55217 -0.0547,-0.0906 -0.0475,-0.17982 -0.028,-0.24369 0.046,-0.1489 0.0848,-0.30498 0.18479,-0.42922 0.0423,-0.0526 0.13013,-0.0757 0.15663,-0.13086 0.0237,-0.0497 -0.0166,-0.1259 -0.0144,-0.18995 0.004,-0.0999 -0.0438,-0.16529 -0.14448,-0.17688 -0.0554,-0.006 -0.11504,0.0195 -0.16474,-0.0351 -0.008,-0.008 -0.0581,0.0431 -0.12073,0.0136 -0.0856,-0.0388 -0.19547,-0.0208 -0.29192,-0.0401 -0.0942,-0.0195 -0.17688,-0.0791 -0.27884,-0.072 -0.0482,0.003 -0.0987,0.0158 -0.14246,-0.0324 -0.0179,-0.0193 -0.0725,-0.0193 -0.10344,-0.008 -0.14522,0.0532 -0.29633,0.0339 -0.44505,0.046 -0.0339,0.003 -0.0755,0.0561 -0.092,0.095 -0.0237,0.0554 -0.0267,0.11927 -0.0418,0.19418 0.12001,0.10049 0.20927,0.2343 0.27609,0.39756 0.074,0.18111 -0.0166,0.30775 -0.0804,0.4572 -0.10289,-0.092 -0.14025,-0.21921 -0.20062,-0.33296 -0.0396,-0.074 -0.0871,-0.092 -0.13455,-0.0401 -0.0316,0.0351 -0.0718,0.079 -0.0762,0.12147 -0.0186,0.18903 -0.1316,0.34511 -0.17246,0.52402 -0.0173,0.0764 -0.0131,0.15682 -0.0195,0.24387 0.11006,0.0782 0.21866,0.1559 0.32799,0.23155 0.1465,0.1005 0.29688,0.3048 0.33719,0.47229 0.01,0.0411 0.001,0.0863 0.001,0.14099 -0.0517,-0.0138 -0.0992,0.0488 -0.13804,-0.0504 -0.0423,-0.1086 -0.19197,-0.18406 -0.36885,-0.25603 -0.0438,-0.0178 -0.0797,-0.0559 -0.1235,-0.074 -0.0145,-0.006 -0.0425,0.0223 -0.0698,0.0388 0.0582,0.0806 0.10123,0.17191 0.17172,0.2286 0.0806,0.0648 0.10363,0.15755 0.12369,0.23651 0.0216,0.0856 0.10785,0.17762 0.0287,0.28345 -0.0208,-0.009 -0.0539,-0.0116 -0.0574,-0.0237 -0.0324,-0.11081 -0.10565,-0.21222 -0.095,-0.33517 0.007,-0.079 -0.0337,-0.11062 -0.10418,-0.13436 -0.10289,-0.0353 -0.19989,-0.0863 -0.30995,-0.13528 -0.0698,0.072 -0.1524,0.13528 -0.16105,0.25528 -0.007,0.0893 -0.0631,0.16602 -0.0948,0.24664 -0.0561,0.14228 -0.0848,0.27977 -0.0828,0.42996 7e-4,0.0445 -0.0272,0.0891 -0.0445,0.14099 -0.0762,-0.0626 -0.15314,-0.0791 -0.19198,-0.17265 -0.0324,-0.0777 -0.13215,-0.12718 -0.20117,-0.18976 -0.0856,-0.0777 -0.20283,-0.14099 -0.24811,-0.23725 -0.072,-0.15167 -0.19694,-0.31345 -0.0215,-0.49678 0.0804,-0.0841 0.11357,-0.21571 0.16106,-0.32799 0.0178,-0.0445 0.0186,-0.0963 0.028,-0.14374 -0.11927,-0.0705 -0.23154,-0.11799 -0.35449,-0.0287 -0.0158,0.0114 -0.0359,0.0165 -0.0495,0.0295 -0.0841,0.0791 -0.13952,0.0733 -0.17688,-0.0215 -0.0432,-0.10639 -0.0287,-0.15903 0.0876,-0.29634 -0.0374,-0.0344 -0.0703,-0.0883 -0.11632,-0.10565 -0.15534,-0.0574 -0.21369,-0.20412 -0.30277,-0.31842 -0.046,-0.0591 -0.0423,-0.14743 0.007,-0.22142 0.0497,-0.0734 0.0891,-0.15534 0.14227,-0.22657 0.0432,-0.0569 0.0893,-0.10215 0.18277,-0.0596 0.0552,0.0245 0.13657,-0.009 0.22565,-0.0195 -0.01,0.0712 -0.007,0.12958 -0.028,0.17762 -0.0554,0.13657 -0.0195,0.24958 0.0784,0.34511 0.097,0.0942 0.20854,0.13528 0.34511,0.0755 0.0438,-0.0186 0.10123,-0.004 0.14522,-0.0223 0.0834,-0.0344 0.18332,-0.0329 0.20982,-0.16749 0.0202,-0.10859 0.0532,-0.22639 0.1432,-0.31566 0.0532,-0.0532 0.0381,-0.12424 -0.0289,-0.16179 -0.15092,-0.0849 -0.29246,-0.18111 -0.43639,-0.27682 -0.12148,-0.079 -0.15958,-0.20338 -0.21424,-0.32136 -0.0604,-0.12939 -0.0309,-0.18332 -0.0107,-0.36223 0.0193,-0.18203 0.17614,-0.21866 0.24939,-0.33149 h 0.40125 c 0.0856,0.0871 0.19473,0.16676 0.0804,0.31769 -0.0272,-0.0186 -0.056,-0.0366 -0.0834,-0.056 -0.0653,-0.0482 -0.14154,-0.0569 -0.19473,-0.0223 -0.0698,0.0468 -0.067,0.13805 -0.0381,0.17467 0.0488,0.0626 0.0243,0.12443 0.0401,0.18406 0.0979,0.092 0.18203,0.19271 0.31861,0.24222 0.1754,0.064 0.17761,0.0655 0.25381,-0.10344 0.0683,-0.1489 0.15313,-0.29044 0.24222,-0.42849 0.0576,-0.0885 0.15681,-0.0992 0.29559,-0.0433 -0.018,-0.0589 -0.0203,-0.11135 -0.046,-0.14301 -0.12019,-0.14596 -0.21719,-0.30922 -0.33223,-0.45665 -0.11429,-0.14651 -0.14448,-0.32486 -0.23651,-0.478 -0.0747,-0.12516 0.023,-0.25952 0.092,-0.36664 0.0604,-0.0942 0.14596,-0.1848 0.25878,-0.21866 0.10639,-0.0316 0.17394,-0.11283 0.25382,-0.17467 0.14154,-0.10933 0.27038,-0.23578 0.40474,-0.35524 0.0215,-0.0193 0.0403,-0.0445 0.0655,-0.0559 0.23928,-0.11301 0.4802,-0.22363 0.72113,-0.33296 0.0223,-0.0101 0.0545,-0.0173 0.074,-0.009 0.19345,0.0913 0.38671,0.19271 0.54205,0.33296 0.0965,0.0876 0.16473,0.22418 0.27535,0.29615 0.11227,0.0727 0.21295,0.15755 0.28547,0.25805 0.16749,0.23228 0.39259,0.40695 0.57959,0.62193 0.0473,0.13381 -0.0252,0.25529 -0.09,0.35026 -0.18829,0.27314 -0.29688,0.58512 -0.46088,0.86912 -0.0164,0.0281 -0.028,0.0893 -0.0151,0.0992 0.12663,0.0985 0.11577,0.26467 0.19989,0.38192 0.009,0.0121 0.021,0.0215 0.0295,0.0294 0.16694,-0.0554 0.33075,-0.11577 0.49897,-0.16399 0.18627,-0.0532 0.35302,-0.1316 0.46161,-0.30627 -0.0201,-0.0942 -0.17466,-0.12074 -0.12718,-0.25235 0.12001,-0.0589 0.23578,0.002 0.33646,0.049 0.12442,0.0589 0.20412,0.19989 0.21847,0.32063 0.0151,0.12571 -0.0201,0.27959 -0.12147,0.38395 -0.1,0.10123 -0.2056,0.20338 -0.3256,0.27755 -0.11007,0.0668 -0.24443,0.0933 -0.37676,0.0985 -0.11725,0.004 -0.23578,-0.005 -0.35229,0.004 -0.0403,0.004 -0.14172,0.018 -0.0497,0.10418 -0.0324,0.14172 0.09,0.2424 0.0985,0.38044 0.008,0.11504 0.0871,0.22566 0.13601,0.34217 0.16308,0.0281 0.31621,-0.003 0.46585,-0.0784 0.092,-0.0466 0.15019,-0.0992 0.14154,-0.21204 -0.0114,-0.12865 0.0799,-0.20209 0.16547,-0.28749 0.18829,0.13012 0.29614,0.29044 0.2724,0.51904 0.15534,0.0826 0.1813,0.16455 0.0799,0.27314 -0.074,0.0791 -0.11209,0.21719 -0.23007,0.22511 -0.11871,0.007 -0.19271,0.11503 -0.31492,0.10141 -0.0661,-0.008 -0.12645,0.0525 -0.2021,0.0416 -0.0639,-0.009 -0.13086,-0.002 -0.22215,-0.002 0.0223,0.0466 0.0504,0.0797 0.0504,0.1121 0,0.0999 0.0554,0.18626 0.0547,0.29044 0,0.0799 0.0854,0.14964 0.0854,0.24958 0,0.0545 0.046,0.1143 0.0836,0.16087 0.12222,0.15387 0.12571,0.26044 -0.0289,0.37603 -0.0683,0.0512 -0.13142,0.11577 -0.2286,0.13951 -0.12295,0.0295 -0.23154,0.11081 -0.35652,0.14744 -0.021,0.006 -0.0324,0.0438 -0.0475,0.0668 h -0.0885 z"
       style="fill:#21201d;fill-opacity:1;fill-rule:nonzero;stroke:none;stroke-width:0.184057"
       id="path604" />
  </g>
</svg>
