<?xml version="1.0" encoding="UTF-8" standalone="no"?>
<!-- Created with Inkscape (http://www.inkscape.org/) -->

<svg
   width="6.7180128mm"
   height="7.5894408mm"
   viewBox="0 0 6.7180128 7.5894408"
   version="1.1"
   id="svg2358"
   inkscape:version="1.1.2 (0a00cf5339, 2022-02-04)"
   sodipodi:docname="e1.svg"
   xmlns:inkscape="http://www.inkscape.org/namespaces/inkscape"
   xmlns:sodipodi="http://sodipodi.sourceforge.net/DTD/sodipodi-0.dtd"
   xmlns="http://www.w3.org/2000/svg"
   xmlns:svg="http://www.w3.org/2000/svg">
  <sodipodi:namedview
     id="namedview2360"
     pagecolor="#ffffff"
     bordercolor="#666666"
     borderopacity="1.0"
     inkscape:pageshadow="2"
     inkscape:pageopacity="0.0"
     inkscape:pagecheckerboard="0"
     inkscape:document-units="mm"
     showgrid="false"
     inkscape:zoom="0.64052329"
     inkscape:cx="-1416.0297"
     inkscape:cy="537.84149"
     inkscape:window-width="2560"
     inkscape:window-height="1376"
     inkscape:window-x="0"
     inkscape:window-y="0"
     inkscape:window-maximized="1"
     inkscape:current-layer="layer1" />
  <defs
     id="defs2355" />
  <g
     inkscape:label="Layer 1"
     inkscape:groupmode="layer"
     id="layer1"
     transform="translate(-479.52412,-6.1190514)">
    <path
       d="m 482.72139,6.2880129 c 0.006,0.00716 -0.19272,0.4940088 -0.17117,0.5249333 0.23947,0.3421627 -0.0229,0.6246918 0.0525,0.9237839 0.17762,0.7132249 -0.0582,1.0964333 -0.0552,1.6451121 0.004,0.3478671 0.0532,0.6778838 0.10841,1.0108458 0.0569,0.339401 -0.005,0.542787 0,0.882188 0.008,0.469533 0.12294,0.866362 0.0655,1.327979 -0.0268,0.212033 -0.0871,0.408975 -0.0591,0.629846 0.0208,0.161604 0.0757,0.331304 0.0734,0.475791 -0.004,-0.01362 0,-0.02649 0,-0.04012 0.15515,0.0381 0.12146,-0.408425 0.14153,-0.538554 0.0453,-0.292654 0.18553,-0.5888 0.14669,-0.887896 -0.051,-0.400508 -0.24021,-0.569475 -0.0582,-1.18202 0.0668,-0.22363 -0.0633,-0.406217 -0.0841,-0.549963 -0.0289,-0.202096 0.0243,-0.5234625 0.004,-0.724821 -0.0467,-0.4191 0.12665,-0.6011333 0.0381,-1.0051415 -0.0777,-0.3565207 0,-0.5492291 0,-1.0202333 0,-0.3314876 0.0353,-0.5578792 0.0296,-0.8921291 -0.004,-0.1704375 -0.0526,-0.6364711 -0.14816,-0.7485627 -0.0596,0.089084 -0.0173,0.2516082 -0.0841,0.1689665"
       style="fill:#21201d;fill-opacity:1;fill-rule:evenodd;stroke:none;stroke-width:0.184057"
       id="path506" />
    <path
       d="m 481.18564,11.883742 c -0.0641,0.05908 -0.16034,0.0554 -0.22366,0.102888 -0.0797,0.05963 -0.0797,0.123687 -0.10562,0.212033 0.2595,0.04602 0.0418,0.496958 0.15384,0.660033 0.0762,0.110801 0.11505,0.05393 0.19989,0.07049 0.12573,0.02522 0.11927,0.05687 0.20708,0.112092 0.10068,0.06332 0.22288,0.04178 0.31566,0.117983 0.0574,-0.06258 0.12792,-0.09497 0.18828,-0.158842 0.051,-0.0554 0.0928,-0.121479 0.14669,-0.175408 0.0712,-0.06976 0.1791,-0.120191 0.23798,-0.198416 0.0884,-0.119451 0.0109,-0.162521 -0.0201,-0.291179 -0.0282,-0.11798 -0.0201,-0.225838 -0.0806,-0.335905 -0.0906,-0.166758 -0.43988,-0.320629 -0.64051,-0.262283 -0.0123,0.0028 -0.0229,0.07105 -0.0482,0.08614 -0.0254,0.01436 -0.11504,0.03164 -0.14743,0.04325 -0.0777,0.02797 -0.16675,0.07031 -0.1833,0.01711"
       style="fill:#21201d;fill-opacity:1;fill-rule:nonzero;stroke:none;stroke-width:0.184057"
       id="path508" />
    <path
       d="m 484.63888,12.425238 c 0.01,-0.0094 0.0201,-0.01951 0.0293,-0.02946 -0.01,0.0099 -0.0194,0.02007 -0.0293,0.02946 0.22144,-0.211483 0.2934,-0.315658 0.0467,-0.502662 -0.0519,-0.03939 -0.13381,-0.08338 -0.18845,-0.107121 -0.0258,-0.01069 -0.0653,0.0072 -0.0977,-0.0086 -0.0554,-0.02724 -0.0856,-0.08614 -0.14598,-0.107121 -0.17117,-0.05669 -0.37455,0.02596 -0.50687,0.102888 -0.14874,0.08706 -0.30777,0.09773 -0.36097,0.296883 -0.0395,0.150375 0.049,0.276088 0.0236,0.387629 -0.0272,0.122213 -0.14446,0.168229 -0.0396,0.309033 0.0893,0.120925 0.3186,0.140988 0.45018,0.188475 0.13935,0.04951 0.26229,0.05466 0.40898,-0.02797 0.14965,-0.08485 0.26617,-0.577388 0.40989,-0.531375"
       style="fill:#21201d;fill-opacity:1;fill-rule:nonzero;stroke:none;stroke-width:0.184057"
       id="path510" />
    <path
       d="m 479.6657,12.238972 c 0.0885,0.04822 0.0769,-0.06037 0.11945,-0.10933 0.0812,-0.09405 0.19399,-0.146695 0.30554,-0.1905 0.22786,-0.08982 0.45223,-0.246637 0.65285,-0.384683 0.0935,-0.0646 0.19343,-0.132888 0.29189,-0.184792 0.0552,-0.02946 0.17762,-0.08835 0.24645,-0.08191 0.0698,0.0057 0.0848,0.06902 0.15388,0.0705 0.10784,0.0028 0.57517,-0.327071 0.62706,-0.200621 0.0856,-0.0114 0.17689,-0.01288 0.26028,-0.0302 0.0639,-0.01288 0.14302,-0.06829 0.20705,-0.06755 0.0409,7.06e-4 0.0396,0.04381 0.0675,0.04602 0.21499,0.01933 0.42701,-0.0086 0.64495,-0.0267 0.0381,0.09921 0.48535,7.06e-4 0.59172,0.0079 0.25439,0.01729 0.54924,0.09994 0.73974,0.29118 0.11797,0.117979 0.14446,0.09497 0.31143,0.155345 0.20704,0.07473 0.41539,0.156817 0.62964,0.226575 0.10216,0.03369 0.20355,0.06755 0.30571,0.09847 0.0861,0.02649 0.13088,0.08117 0.18684,0.107858 0.0611,0.02872 0.18129,0.02431 0.19709,0.10068 0.23065,-0.1605 -0.67804,-0.698867 -0.77579,-0.781696 -0.2503,-0.210562 -0.61475,-0.382471 -0.92322,-0.472292 -0.15533,-0.04454 -0.2976,-0.05098 -0.45149,-0.08117 -0.19914,-0.04031 -0.37602,-0.137305 -0.57813,-0.17338 -0.1524,-0.02723 -0.30109,-0.03238 -0.45423,-0.04528 -0.1964,-0.01658 -0.37402,0.01803 -0.56875,0.01161 -0.34435,-0.01161 -0.6162,-0.03681 -0.95046,0.06111 -0.17483,0.05098 -0.37969,0.07252 -0.54222,0.155896 -0.10841,0.05614 -0.18185,0.148904 -0.27389,0.219396 -0.25527,0.193996 -0.50687,0.345108 -0.73914,0.564321 -0.15593,0.146695 -0.28678,0.260995 -0.35433,0.462354 -0.0388,0.115774 -0.0187,0.23725 -0.069,0.347316 0.0646,0.05246 0.14228,-0.04178 0.21495,-0.07491 0,-0.01362 0,-0.02505 -0.0734,-0.02152"
       style="fill:#21201d;fill-opacity:1;fill-rule:nonzero;stroke:none;stroke-width:0.184057"
       id="path512" />
    <path
       d="m 481.58611,7.6763592 c -0.0222,0.035892 0.0279,0.030939 0.0495,0.048225 0.0433,0.032949 0.0677,0.078962 0.0878,0.1249751 0.041,0.092766 0.11208,0.1840583 0.1754,0.2661461 0.0296,0.0381 0.0611,0.078962 0.0848,0.1192707 0.0127,0.02226 0.0403,0.071967 0.0366,0.1006792 -0.004,0.027975 -0.0317,0.034608 -0.0324,0.062579 -0.004,0.044542 0.14891,0.2350418 0.0907,0.2565788 0.004,0.035338 0.005,0.071967 0.0127,0.1065707 0.006,0.026494 0.031,0.058896 0.031,0.08485 0,0.016369 -0.0201,0.015628 -0.0215,0.027234 -0.01,0.08835 0.004,0.1746709 0.01,0.2644916 -0.046,0.01584 0,0.1985998 -0.005,0.2424042 -0.008,0.1041788 -0.0482,0.2249206 -0.13731,0.3040662 -0.0546,0.048221 -0.0438,0.058896 -0.072,0.1273669 -0.0353,0.085404 -0.074,0.1709914 -0.10711,0.2587843 -0.0159,0.0416 -0.0317,0.08338 -0.046,0.125712 -0.0131,0.03534 -0.0388,0.05319 -0.051,0.07638 -0.013,0.02575 -0.0116,0.07473 -0.0475,0.08117 0.0742,0.09424 0.32579,-0.279033 0.36389,-0.319892 0.0985,-0.1028876 0.17889,-0.2530792 0.2214,-0.3797123 0.0208,-0.063317 0.0243,-0.1222128 0.0388,-0.1855294 0.0187,-0.081171 0.0646,-0.1538746 0.0819,-0.2365163 0.0131,-0.062579 0.0159,-0.1236874 0.0222,-0.186817 0.008,-0.079883 -0.007,-0.1525835 -0.004,-0.2330168 0.006,-0.1402539 0.0187,-0.2523455 -0.025,-0.388179 -0.0229,-0.071967 -0.0332,-0.1553457 -0.0712,-0.2221583 -0.0254,-0.044725 -0.0683,-0.074175 -0.0999,-0.1115377 -0.0891,-0.1034415 -0.15812,-0.2063292 -0.2588,-0.301304 -0.0675,-0.063133 -0.11924,-0.1165084 -0.21276,-0.1437499 -0.0525,-0.015099 -0.10933,-0.00646 -0.1603,-0.026494 -0.0236,0.025753 0.0194,0.058162 0.0346,0.087612 0.006,0 0.0116,-7.056e-4 0.0102,-0.030198"
       style="fill:#21201d;fill-opacity:1;fill-rule:nonzero;stroke:none;stroke-width:0.184057"
       id="path514" />
    <path
       d="m 484.0328,10.238813 c 0.0222,-0.03589 -0.0282,-0.0309 -0.0504,-0.04822 -0.0431,-0.03313 -0.0676,-0.07915 -0.0876,-0.125158 -0.0403,-0.092583 -0.11229,-0.1840585 -0.17543,-0.2659664 -0.0293,-0.0381 -0.0611,-0.078959 -0.0841,-0.1192672 -0.0138,-0.02226 -0.0403,-0.071967 -0.0374,-0.1006827 0.004,-0.027975 0.0314,-0.034607 0.0328,-0.062579 0,-0.044542 -0.14947,-0.2350417 -0.0913,-0.2565753 -0.004,-0.035338 -0.005,-0.071967 -0.0127,-0.1065706 -0.006,-0.026494 -0.031,-0.058896 -0.031,-0.08485 0,-0.016369 0.0201,-0.01584 0.0215,-0.027234 0.0102,-0.088346 -0.004,-0.1746709 -0.0102,-0.2646751 0.046,-0.015628 0,-0.1984128 0.005,-0.2422207 0.009,-0.1041753 0.0488,-0.2251005 0.1373,-0.3040627 0.0547,-0.048221 0.0438,-0.059083 0.0725,-0.1273669 0.0353,-0.085404 0.0742,-0.1709914 0.10637,-0.2587872 0.0159,-0.041596 0.0317,-0.083375 0.0468,-0.1258958 0.0124,-0.035137 0.0381,-0.053192 0.0504,-0.0762 0.0131,-0.025753 0.0113,-0.074725 0.0475,-0.081167 -0.0734,-0.094238 -0.32579,0.2790296 -0.36389,0.3198918 -0.0985,0.1028877 -0.17907,0.2530793 -0.22066,0.3797124 -0.0215,0.063313 -0.0254,0.1222128 -0.0396,0.1855293 -0.0187,0.081171 -0.064,0.1538711 -0.0812,0.2365128 -0.0138,0.062583 -0.0166,0.1236874 -0.0226,0.1860832 -0.008,0.080617 0.007,0.4064 0.004,0.4860996 -0.006,0.1402503 -0.0187,0 0.0261,0.1358335 0.0229,0.071967 0.0321,0.1553457 0.0705,0.2221583 0.0251,0.044725 0.0683,0.074175 0.0998,0.1115378 0.0892,0.1034415 0.15829,0.2063289 0.25897,0.3013039 0.0676,0.06313 0.11928,0.116325 0.21276,0.14375 0.0532,0.0151 0.10933,0.0065 0.1603,0.02649 0.0243,-0.02575 -0.0194,-0.05816 -0.0346,-0.08761 -0.006,0 -0.0116,7.06e-4 -0.01,0.0302"
       style="fill:#21201d;fill-opacity:1;fill-rule:nonzero;stroke:none;stroke-width:0.184057"
       id="path516" />
  </g>
</svg>
