<?xml version="1.0" encoding="UTF-8" standalone="no"?>
<!-- Created with Inkscape (http://www.inkscape.org/) -->

<svg
   width="7.0220656mm"
   height="6.5134263mm"
   viewBox="0 0 7.0220656 6.5134263"
   version="1.1"
   id="svg2528"
   inkscape:version="1.1.2 (0a00cf5339, 2022-02-04)"
   sodipodi:docname="e2.svg"
   xmlns:inkscape="http://www.inkscape.org/namespaces/inkscape"
   xmlns:sodipodi="http://sodipodi.sourceforge.net/DTD/sodipodi-0.dtd"
   xmlns="http://www.w3.org/2000/svg"
   xmlns:svg="http://www.w3.org/2000/svg">
  <sodipodi:namedview
     id="namedview2530"
     pagecolor="#ffffff"
     bordercolor="#666666"
     borderopacity="1.0"
     inkscape:pageshadow="2"
     inkscape:pageopacity="0.0"
     inkscape:pagecheckerboard="0"
     inkscape:document-units="mm"
     showgrid="false"
     inkscape:zoom="0.64052329"
     inkscape:cx="-1033.5299"
     inkscape:cy="170.95397"
     inkscape:window-width="2560"
     inkscape:window-height="1376"
     inkscape:window-x="0"
     inkscape:window-y="0"
     inkscape:window-maximized="1"
     inkscape:current-layer="layer1" />
  <defs
     id="defs2525" />
  <g
     inkscape:label="Layer 1"
     inkscape:groupmode="layer"
     id="layer1"
     transform="translate(-378.16913,-103.3163)">
    <path
       d="m 385.14175,107.36871 c -0.0948,-0.35229 -0.14007,-0.73329 -0.22712,-1.08779 -0.0381,-0.1524 -0.097,-0.27903 -0.17467,-0.42131 -0.10639,-0.19491 -0.17614,-0.47376 -0.31143,-0.64494 -0.21847,-0.27535 -0.47873,-0.41781 -0.75131,-0.62046 -0.2078,-0.1546 -0.30775,-0.38467 -0.54573,-0.48609 -0.28823,-0.12222 -0.5356,-0.24738 -0.81021,-0.41266 -0.44137,-0.26467 -0.81666,-0.16675 -1.256,-0.27609 -0.0928,-0.0237 -0.1813,-0.0611 -0.27388,-0.0841 -0.41284,-0.10215 -0.74561,0.2459 -1.12458,0.15535 -0.092,0.028 -0.18406,0.0552 -0.27682,0.0782 -0.19271,0.0482 -0.29983,0.23798 -0.43916,0.36536 -0.0849,0.0769 -0.30848,0.3451 -0.40125,0.37234 0.35523,-0.11209 0.665,-0.35578 1.05189,-0.39186 0.36958,-0.0344 0.73107,-0.14227 1.09716,-0.17393 0.24939,-0.0215 0.51535,0.0784 0.74984,0.1524 0.018,0.005 0.0359,0.0109 0.0532,0.0158 0.20559,0.0596 0.44211,0.0648 0.65506,0.16823 0.21774,0.10638 0.41192,0.26891 0.61898,0.39407 0.194,0.1165 0.37382,0.25952 0.56082,0.40474 0.28252,0.21848 0.53781,0.35008 0.74193,0.66003 0.21498,0.32633 0.65064,0.71672 0.5472,1.14171 -0.002,0.0121 -0.007,0.0215 -0.0123,0.0309 0.0403,0.11577 0.0814,0.23007 0.12369,0.33941 0.10491,0.27093 0.15387,0.97127 0.0841,1.4235 0.028,0.002 0.0525,0.009 0.0734,0.0195 0.0847,-0.10933 0.21553,-0.22363 0.24443,-0.36241 0.0639,-0.30278 0.074,-0.49401 0.003,-0.75998"
       style="fill:#21201d;fill-opacity:1;fill-rule:evenodd;stroke:none;stroke-width:0.184057"
       id="path524" />
    <path
       d="m 382.57435,104.56403 c 0.0648,0 0.39259,0.20706 0.41984,0.33278 -0.33793,0.1165 -0.8901,0.1905 -1.11152,0.52567 -0.23872,0.35946 -0.097,0.75132 -0.26743,1.14171 -0.0963,0.21921 -0.24811,0.47082 -0.47947,0.55788 -0.27333,0.10362 -0.60113,-0.0309 -0.86783,0.12442 -0.38541,0.22437 -0.34013,0.72408 -0.50394,1.07766 -0.19989,0.43217 -0.32357,0.65727 -0.70107,0.92029 0.17246,-0.16897 0.34142,-0.3602 0.41118,-0.59451 0.0928,-0.30995 -0.005,-0.6823 0.14099,-0.98508 0.0431,-0.0891 0.10288,-0.12791 0.14743,-0.19694 0.0782,-0.12147 0.0777,-0.1962 0.13951,-0.31989 0.0841,-0.16749 0.22216,-0.26891 0.38744,-0.32854 0.17835,-0.0655 0.37529,-0.0453 0.54204,-0.10786 0.16474,-0.0611 0.19989,-0.15903 0.35947,-0.23725 -10e-4,-0.88882 0.62339,-1.45737 1.35023,-1.85512 -0.0359,0 -0.071,0.002 0.0331,-0.0552"
       style="fill:#21201d;fill-opacity:1;fill-rule:nonzero;stroke:none;stroke-width:0.184057"
       id="path526" />
    <path
       d="m 378.60058,104.45102 c 0.16179,-0.0302 0.34437,-0.0582 0.50339,-0.10841 -0.0791,0.23651 -0.43713,0.40327 -0.50486,0.64273 -0.092,0.32284 0.26964,0.44358 0.40419,0.66923 0.34215,0.57739 -0.49107,0.96281 -0.51481,1.53008 -0.0158,0.36959 0.24148,0.58162 0.0906,0.95544 -0.0878,-0.47155 -0.57591,-0.98066 -0.35154,-1.49032 0.0999,-0.22583 0.50321,-0.46235 0.39756,-0.755 -0.0955,-0.26376 -0.33222,-0.31271 -0.36241,-0.65488 -0.0171,-0.19345 0.18553,-0.73053 0.33793,-0.78887"
       style="fill:#21201d;fill-opacity:1;fill-rule:nonzero;stroke:none;stroke-width:0.184057"
       id="path528" />
    <path
       d="m 384.57523,107.77639 c 0,0.19474 -0.0166,0.56874 0.0245,0.81317 -0.15387,0.002 -0.29909,0.0913 -0.44579,0.11853 -0.21497,0.0396 -0.44007,0.0101 -0.6556,0.0611 -0.40124,0.095 -0.56524,0.29836 -0.75353,0.61476 -0.39609,0.66444 -1.07341,0.34805 -1.72055,0.28253 -0.38965,-0.0394 -0.66942,-0.0999 -0.98139,0.16325 0.50541,-0.65064 1.11869,-0.3013 1.7708,-0.33351 0.82752,-0.0418 0.84776,-0.99944 1.57884,-1.15036 0.28915,-0.0598 1.05979,-0.002 1.18274,-0.56948"
       style="fill:#21201d;fill-opacity:1;fill-rule:nonzero;stroke:none;stroke-width:0.184057"
       id="path530" />
    <path
       d="m 383.78655,105.83145 c 0.0648,-0.0129 0.31786,0.23302 0.32633,0.42352 -0.32339,0.17394 -0.82163,0.21645 -1.09992,0.44947 -0.25455,0.21351 -0.18774,0.63757 -0.41781,0.86912 -0.19694,0.19915 -0.62542,0.11651 -0.88715,0.23725 -0.36958,0.1697 -0.36811,0.3718 -0.58806,0.65506 -0.21424,0.27609 -0.7434,0.49033 -0.93537,0.49033 0.2343,-0.11926 0.52842,-0.25529 0.67217,-0.48168 0.18258,-0.28547 0.20706,-0.58088 0.52272,-0.7931 0.27958,-0.18903 0.67291,-0.18627 0.9282,-0.41266 0.2573,-0.22786 0.21645,-0.60463 0.4213,-0.85918 0.20338,-0.25087 0.61972,-0.41339 0.92525,-0.51628 -0.0547,0.0289 -0.11356,0.0361 0.13234,-0.0618"
       style="fill:#21201d;fill-opacity:1;fill-rule:nonzero;stroke:none;stroke-width:0.184057"
       id="path532" />
    <path
       d="m 380.5871,103.9629 c -0.009,0.0188 -0.0237,0.0351 -0.0416,0.0482 -0.0316,0.023 -0.0648,0.0431 -0.0979,0.0626 -0.0826,0.12571 -0.0718,0.24866 -0.13804,0.35302 -0.0661,0.10271 -0.1962,0.17817 -0.27737,0.27167 -0.27406,0.31345 -0.0791,0.43364 -0.0526,0.76421 0.0267,0.33738 -0.2113,0.29339 -0.38818,0.47542 -0.32559,0.33204 -0.45369,1.20705 -0.42056,1.6672 0.13012,-0.32781 0.0769,-0.72906 0.26964,-1.07122 0.19694,-0.34952 0.46805,-0.25749 0.74561,-0.48757 0.3105,-0.25731 0.079,-0.62616 0.10565,-0.95618 0.0351,-0.44137 0.43345,-0.45223 0.68505,-0.732 0.351,-0.38965 -0.0683,-0.40327 -0.38964,-0.39535"
       style="fill:#21201d;fill-opacity:1;fill-rule:nonzero;stroke:none;stroke-width:0.184057"
       id="path534" />
  </g>
</svg>
