<?xml version="1.0" encoding="UTF-8" standalone="no"?>
<!-- Created with Inkscape (http://www.inkscape.org/) -->

<svg
   width="7.2201777mm"
   height="6.3601556mm"
   viewBox="0 0 7.2201777 6.3601556"
   version="1.1"
   id="svg2732"
   inkscape:version="1.1.2 (0a00cf5339, 2022-02-04)"
   sodipodi:docname="m6.svg"
   xmlns:inkscape="http://www.inkscape.org/namespaces/inkscape"
   xmlns:sodipodi="http://sodipodi.sourceforge.net/DTD/sodipodi-0.dtd"
   xmlns="http://www.w3.org/2000/svg"
   xmlns:svg="http://www.w3.org/2000/svg">
  <sodipodi:namedview
     id="namedview2734"
     pagecolor="#ffffff"
     bordercolor="#666666"
     borderopacity="1.0"
     inkscape:pageshadow="2"
     inkscape:pageopacity="0.0"
     inkscape:pagecheckerboard="0"
     inkscape:document-units="mm"
     showgrid="false"
     inkscape:zoom="0.64052329"
     inkscape:cx="14.051011"
     inkscape:cy="11.709176"
     inkscape:window-width="2560"
     inkscape:window-height="1376"
     inkscape:window-x="0"
     inkscape:window-y="0"
     inkscape:window-maximized="1"
     inkscape:current-layer="layer1" />
  <defs
     id="defs2729" />
  <g
     inkscape:label="Layer 1"
     inkscape:groupmode="layer"
     id="layer1"
     transform="translate(-101.31063,-145.31957)">
    <path
       d="m 101.34888,148.61364 c -0.0109,0.0272 -0.0194,0.0552 -0.0261,0.0841 -0.0574,0.25732 0.0992,0.51039 0.24811,0.72906 0.20062,0.2932 0.4005,0.58733 0.60113,0.88145 0.0194,0.0287 0.0401,0.0582 0.069,0.0762 0.0553,0.0329 0.12499,0.0179 0.18832,0.006 0.13084,-0.0237 0.26814,-0.0309 0.38742,-0.0878 0.12093,-0.0567 0.22218,-0.18406 0.19565,-0.31419 -0.0381,-0.1905 -0.31419,-0.27885 -0.31271,-0.47303 0,-0.13307 0.14799,-0.22712 0.28032,-0.21847 0.13307,0.008 0.24811,0.0891 0.35154,0.1732 0.11505,0.0928 0.22585,0.19491 0.29838,0.3243 0.0727,0.12866 0.10213,0.28824 0.0475,0.42555 -0.071,0.18056 -0.26247,0.27756 -0.42281,0.38762 -0.1603,0.10989 -0.31693,0.28971 -0.26299,0.47727 0.0194,0.0705 0.0668,0.12957 0.11779,0.18203 0.29411,0.30553 0.73843,0.45941 1.15828,0.40033 0.067,-0.009 0.13656,-0.0258 0.18552,-0.0725 0.0618,-0.0582 0.0755,-0.1502 0.0747,-0.23578 0,-0.11872 -0.0265,-0.24167 -0.0977,-0.33646 -0.0713,-0.0957 -0.1942,-0.15755 -0.31051,-0.13307 -0.11653,0.0252 -0.20779,0.15166 -0.17414,0.26596 0.0187,-0.069 0.0943,-0.11209 0.16549,-0.10933 0.0718,0.002 0.1373,0.0418 0.18902,0.092 0.0279,0.0274 0.0539,0.0591 0.0604,0.0972 0.0201,0.10933 -0.11282,0.18111 -0.22288,0.1905 -0.19915,0.0166 -0.40401,-0.0539 -0.55069,-0.18976 -0.0891,-0.0834 -0.1596,-0.20504 -0.13307,-0.32358 0.0201,-0.0863 0.0856,-0.1524 0.14464,-0.21792 0.15166,-0.16897 0.27665,-0.36444 0.33849,-0.58236 0.0618,-0.21774 0.0554,-0.45941 -0.0453,-0.66279 -0.10714,-0.2194 -0.31623,-0.37898 -0.54575,-0.46309 -0.2286,-0.0848 -0.47798,-0.10142 -0.72242,-0.0898 -0.0942,0.005 -0.19067,0.0144 -0.27477,0.0567 -0.0841,0.0425 -0.15445,0.12516 -0.1559,0.21939 -0.004,0.11854 0.0977,0.23431 0.0546,0.34511 -0.16104,-0.0433 -0.24314,-0.23081 -0.24388,-0.3983 0,-0.16749 0.0554,-0.33075 0.0641,-0.49824 0.0138,-0.26394 -0.0884,-0.545 0.0254,-0.78372 0.0561,-0.11725 0.15956,-0.20854 0.20927,-0.32928 0.0696,-0.1697 0.0286,-0.38837 0.15663,-0.51978 0.0418,-0.0433 0.0977,-0.0698 0.14742,-0.10363 0.0985,-0.069 0.27037,-0.29909 0.31271,-0.41118 -0.069,0.005 -0.1524,0.0891 -0.22144,0.0948 -0.0438,0.0856 -0.22638,0.22436 -0.32135,0.21295 -0.0467,0.17541 -0.14816,0.29192 -0.23872,0.44782 -0.0532,0.092 -0.11649,0.16546 -0.1603,0.26173 -0.1064,0.23301 -0.17322,0.50984 -0.14175,0.76494 0.009,0.0734 0.0282,0.14743 0.0159,0.22087 -0.012,0.0703 -0.051,0.13363 -0.0718,0.20191 -0.0282,0.0898 -0.0834,0.19197 -0.0734,0.28621 0.0396,0.36665 0.24441,0.60113 0.51333,0.76863 0.0173,0.0107 0.067,0.0812 0.0856,0.0755 0.0166,-0.006 0.0999,0.0324 0.10933,0.0179 0.11927,-0.17743 -0.12076,-0.44781 0.0102,-0.61751 0.0388,-0.051 0.10121,-0.0784 0.16235,-0.0935 0.63849,-0.15093 0.77008,0.0935 0.99148,0.19344 0.10068,0.046 0.25753,0.47892 0.1905,0.37953 -0.0201,-0.0287 -0.23502,-0.25161 -0.35154,-0.34069 -0.27387,-0.21075 -0.39536,-0.23155 -0.69589,-0.15885 -0.0735,0.0171 -0.14891,0.0495 -0.18627,0.11504 -0.0222,0.0381 -0.0279,0.0841 -0.0286,0.12866 -0.004,0.20485 0.0906,0.40971 0.24864,0.53984 -0.12276,0.0769 -0.29171,0.18056 -0.42478,0.12295 -0.13307,-0.0574 -0.23724,-0.27019 -0.34512,-0.36664 -0.0806,-0.0725 -0.16178,-0.1467 -0.21276,-0.24149 -0.0475,-0.0885 -0.01,-0.21939 -0.0821,-0.28841 -0.1143,-0.1086 -0.22289,-0.3372 -0.13363,-0.58236 0.0258,-0.0698 0.17247,-0.18977 0.18478,-0.26302 0.013,-0.0769 0.005,-0.15461 0.005,-0.23228 0,-0.24241 -0.0325,-0.57592 0.0411,-0.80673 0.0438,-0.13657 0.19474,-0.17761 0.2781,-0.29486 0.0512,-0.0733 0.11726,-0.13657 0.15314,-0.21774 0.0418,-0.092 0.0403,-0.19915 0.0791,-0.29265 0.0388,-0.0928 0.11285,-0.16529 0.16178,-0.25235 0.0497,-0.0871 0.069,-0.20706 0,-0.28032 -0.11797,0.12351 -0.2365,0.24793 -0.35521,0.37235 -0.0769,0.0799 -0.15812,0.17467 -0.14947,0.28474 0.005,0.0668 0.0438,0.1316 0.031,0.19768 -0.0166,0.0834 -0.10583,0.12718 -0.17762,0.17393 -0.18405,0.12093 -0.29835,0.34235 -0.2897,0.56303 0.007,0.18333 0.092,0.36315 0.0639,0.54426 -0.0286,0.18333 -0.16675,0.32929 -0.23431,0.50046"
       style="fill:#21201d;fill-opacity:1;fill-rule:evenodd;stroke:none;stroke-width:0.184057"
       id="path640" />
    <path
       d="m 108.49246,148.61364 c 0.0109,0.0272 0.0194,0.0552 0.0261,0.0841 0.0576,0.25732 -0.0985,0.51039 -0.24737,0.72906 -0.20062,0.2932 -0.40107,0.58733 -0.60095,0.88145 -0.0201,0.0287 -0.0403,0.0582 -0.0698,0.0762 -0.0554,0.0329 -0.12516,0.0179 -0.18775,0.006 -0.13158,-0.0237 -0.26818,-0.0309 -0.38816,-0.0878 -0.12075,-0.0567 -0.22144,-0.18406 -0.19565,-0.31419 0.0381,-0.1905 0.31419,-0.27885 0.31345,-0.47303 0,-0.13307 -0.14799,-0.22712 -0.28106,-0.21847 -0.13233,0.008 -0.24811,0.0891 -0.35155,0.1732 -0.1143,0.0928 -0.22584,0.19491 -0.29834,0.3243 -0.0727,0.12866 -0.10216,0.28824 -0.0475,0.42555 0.072,0.18056 0.26247,0.27756 0.42281,0.38762 0.1603,0.10989 0.31711,0.28971 0.26373,0.47727 -0.0201,0.0705 -0.0675,0.12957 -0.11779,0.18203 -0.29485,0.30553 -0.73918,0.45941 -1.15828,0.40033 -0.0668,-0.009 -0.1373,-0.0258 -0.18626,-0.0725 -0.0611,-0.0582 -0.0755,-0.1502 -0.074,-0.23578 0,-0.11872 0.0265,-0.24167 0.0977,-0.33646 0.0705,-0.0957 0.1942,-0.15755 0.30995,-0.13307 0.11635,0.0252 0.20835,0.15166 0.1747,0.26596 -0.0194,-0.069 -0.095,-0.11209 -0.16602,-0.10933 -0.072,0.002 -0.13751,0.0418 -0.18849,0.092 -0.0279,0.0274 -0.0539,0.0591 -0.0611,0.0972 -0.0194,0.10933 0.11356,0.18111 0.22362,0.1905 0.19841,0.0166 0.40401,-0.0539 0.54995,-0.18976 0.0893,-0.0834 0.1596,-0.20504 0.1331,-0.32358 -0.0201,-0.0863 -0.0849,-0.1524 -0.14375,-0.21792 -0.15188,-0.16897 -0.27757,-0.36444 -0.33941,-0.58236 -0.0611,-0.21774 -0.0554,-0.45941 0.0453,-0.66279 0.10788,-0.2194 0.31641,-0.37898 0.54575,-0.46309 0.2286,-0.0848 0.47872,-0.10142 0.72259,-0.0898 0.094,0.005 0.1905,0.0144 0.2746,0.0567 0.0841,0.0425 0.15463,0.12516 0.15664,0.21939 0.004,0.11854 -0.0977,0.23431 -0.0552,0.34511 0.16104,-0.0433 0.24296,-0.23081 0.2437,-0.3983 0,-0.16749 -0.0554,-0.33075 -0.0641,-0.49824 -0.0138,-0.26394 0.0891,-0.545 -0.025,-0.78372 -0.056,-0.11725 -0.15959,-0.20854 -0.20909,-0.32928 -0.0698,-0.1697 -0.0282,-0.38837 -0.15684,-0.51978 -0.0416,-0.0433 -0.097,-0.0698 -0.14669,-0.10363 -0.0992,-0.069 -0.27093,-0.29909 -0.31344,-0.41118 0.0697,0.005 0.1524,0.0891 0.22144,0.0948 0.044,0.0856 0.22655,0.22436 0.32208,0.21295 0.046,0.17541 0.14817,0.29192 0.23873,0.44782 0.0532,0.092 0.11578,0.16546 0.15956,0.26173 0.10714,0.23301 0.17413,0.50984 0.14175,0.76494 -0.009,0.0734 -0.0275,0.14743 -0.0159,0.22087 0.012,0.0703 0.051,0.13363 0.0725,0.20191 0.0275,0.0898 0.0828,0.19197 0.0734,0.28621 -0.0396,0.36665 -0.24515,0.60113 -0.51407,0.76863 -0.0173,0.0107 -0.0661,0.0812 -0.0856,0.0755 -0.0159,-0.006 -0.0992,0.0324 -0.10932,0.0179 -0.11853,-0.17743 0.12093,-0.44781 -0.009,-0.61751 -0.0388,-0.051 -0.10143,-0.0784 -0.16327,-0.0935 -0.63849,-0.15093 -0.76934,0.0935 -0.99148,0.19344 -0.0999,0.046 -0.25732,0.47892 -0.18976,0.37953 0.0194,-0.0287 0.23502,-0.25161 0.35154,-0.34069 0.27386,-0.21075 0.3948,-0.23155 0.69589,-0.15885 0.0735,0.0171 0.14891,0.0495 0.18553,0.11504 0.0222,0.0381 0.0279,0.0841 0.0286,0.12866 0.005,0.20485 -0.0898,0.40971 -0.24789,0.53984 0.12294,0.0769 0.29114,0.18056 0.42403,0.12295 0.13381,-0.0574 0.23728,-0.27019 0.34513,-0.36664 0.0806,-0.0725 0.16178,-0.1467 0.21367,-0.24149 0.0466,-0.0885 0.008,-0.21939 0.0812,-0.28841 0.1143,-0.1086 0.22362,-0.3372 0.13363,-0.58236 -0.0257,-0.0698 -0.17173,-0.18977 -0.18461,-0.26302 -0.0131,-0.0769 -0.005,-0.15461 -0.004,-0.23228 0,-0.24241 0.0325,-0.57592 -0.0416,-0.80673 -0.0433,-0.13657 -0.19495,-0.17761 -0.27757,-0.29486 -0.0519,-0.0733 -0.11726,-0.13657 -0.15388,-0.21774 -0.041,-0.092 -0.0403,-0.19915 -0.0791,-0.29265 -0.0381,-0.0928 -0.11211,-0.16529 -0.16178,-0.25235 -0.0488,-0.0871 -0.0683,-0.20706 0,-0.28032 0.11871,0.12351 0.23724,0.24793 0.35521,0.37235 0.0769,0.0799 0.15886,0.17467 0.15021,0.28474 -0.006,0.0668 -0.0438,0.1316 -0.031,0.19768 0.0166,0.0834 0.10583,0.12718 0.17688,0.17393 0.18479,0.12093 0.29834,0.34235 0.28988,0.56303 -0.007,0.18333 -0.092,0.36315 -0.064,0.54426 0.0286,0.18333 0.16672,0.32929 0.23428,0.50046"
       style="fill:#21201d;fill-opacity:1;fill-rule:nonzero;stroke:none;stroke-width:0.184057"
       id="path642" />
    <path
       d="m 103.41951,147.31658 c 0.0346,0.0272 0.22289,0.22363 0.24737,0.22511 -0.11081,-0.007 -0.24444,0.10491 -0.31641,0.18681 -0.12072,0.13657 -0.43861,0.24443 -0.43067,0.42775 0.21922,0.16032 0.83467,-0.0955 1.10137,0.18553 0.11081,0.11651 0.32579,0.36959 0.32579,0.5415 0,0.16749 -0.008,0.19547 0.0138,0.35652 0.0145,0.11504 -0.0293,0.27904 0.0411,0.37107 0.10269,0.13362 0.30624,0.24865 0.33422,0.42701 0.0222,0.14227 0.0325,0.43069 0.0124,0.57094 -0.0117,0.0797 -0.0913,0.15958 -0.16973,0.20633 -0.17335,0.10344 -0.53428,-0.1143 -0.37821,-0.33296 0.0547,-0.0252 0.12146,-0.026 0.15533,0.0272 -0.0992,0.0203 -0.0109,0.19418 0.0733,0.1697 0.23523,-0.0703 0.1754,-0.58088 -0.0755,-0.83028 -0.0582,-0.0583 -0.16972,-0.2229 -0.19914,-0.29486 -0.0388,-0.095 -0.0243,-0.19547 -0.0374,-0.29984 -0.0229,-0.18479 -0.0885,-0.37529 -0.1905,-0.51186 -0.13232,-0.17835 -0.31344,-0.27609 -0.53135,-0.28621 -0.19621,-0.009 -0.3278,0.0992 -0.49971,0.15038 -0.3199,0.0955 -0.42481,-0.38119 -0.2934,-0.63132 0.0519,-0.0985 0.15536,-0.18829 0.21297,-0.28897 0.0525,-0.0935 0.0985,-0.19566 0.18753,-0.26744 0.12298,-0.0994 0.39628,-0.11872 0.41709,-0.10215"
       style="fill:#21201d;fill-opacity:1;fill-rule:nonzero;stroke:none;stroke-width:0.184057"
       id="path644" />
    <path
       d="m 106.46434,147.11302 c -0.0346,0.0289 -0.0928,0.11871 -0.11797,0.12018 0.11081,-0.007 0.19914,0.17099 0.27185,0.25805 0.12001,0.14375 0.31196,0.3221 0.30406,0.51555 -0.21996,0.1697 -0.86635,-0.0747 -1.05978,0.19124 -0.0978,0.13362 -0.32562,0.39038 -0.32562,0.57223 0,0.17762 0.008,0.20633 -0.013,0.37677 -0.0145,0.12221 0.0296,0.29486 -0.0409,0.39259 -0.10365,0.14154 -0.30628,0.26321 -0.33443,0.45223 -0.0222,0.15019 -0.0321,0.45518 -0.012,0.60316 0.0113,0.0841 0.0906,0.16897 0.16972,0.2194 0.17318,0.10915 0.53411,-0.12093 0.37748,-0.35229 -0.0547,-0.0274 -0.1209,-0.0282 -0.15533,0.0287 0.0999,0.0208 0.0113,0.20485 -0.0727,0.17982 -0.23502,-0.0756 -0.1754,-0.61475 0.0756,-0.87943 0.0574,-0.0611 0.16954,-0.23504 0.19917,-0.31197 0.0381,-0.1 0.0243,-0.20633 0.0374,-0.3164 0.0229,-0.19547 0.0883,-0.39683 0.18976,-0.54131 0.13233,-0.18922 0.31419,-0.29192 0.53136,-0.30278 0.19695,-0.0101 0.32854,0.10436 0.49953,0.15884 0.32007,0.10142 0.42573,-0.40253 0.2934,-0.66721 -0.0517,-0.10491 -0.15462,-0.19988 -0.21205,-0.30627 -0.0532,-0.0992 -0.58381,-0.40824 -0.60537,-0.39112"
       style="fill:#21201d;fill-opacity:1;fill-rule:nonzero;stroke:none;stroke-width:0.184057"
       id="path646" />
    <path
       d="m 104.08746,145.68877 c 0.30258,-0.0252 0.60886,0.0777 0.91087,0.0641 0.29542,-0.0136 0.55365,-0.0165 0.84484,0.0258 0.12442,0.0173 0.25527,0.0309 0.38244,0.026 0.15314,-0.007 0.30851,-0.0806 0.45794,-0.0777 -0.0675,0.20356 -0.2976,0.33295 -0.43988,0.4745 -0.18129,0.18129 -0.19787,0.39627 -0.33648,0.59101 -0.0618,0.0871 -0.12957,0.13878 -0.16047,0.24664 -0.0314,0.10491 -0.0222,0.2135 -0.0661,0.31345 -0.0589,0.13657 -0.14817,0.24663 -0.20062,0.38836 -0.0525,0.1408 -0.0869,0.20485 -0.20984,0.26743 -0.21075,0.10565 -0.17409,0.25731 -0.25378,0.46144 -0.0368,-0.0906 -0.0749,-0.16161 -0.12298,-0.21553 -0.0841,-0.0942 -0.0957,-0.16179 -0.15184,-0.27186 -0.12499,-0.24737 -0.34068,-0.40124 -0.46217,-0.65138 -0.087,-0.17835 -0.22507,-0.36885 -0.26466,-0.56303 -0.0325,-0.16381 0.0116,-0.22216 -0.14742,-0.29983 -0.12792,-0.0624 -0.16602,-0.0503 -0.23008,-0.16878 -0.0559,-0.10363 -0.0891,-0.21498 -0.1257,-0.32505 -0.0346,-0.10215 -0.0965,-0.18774 -0.13659,-0.27314 0.22786,0.0295 0.47875,0.008 0.7125,-0.0123 m -1.36828,-0.16455 c 0.0403,0.0696 0.0878,0.0423 0.14594,0.0985 0.0539,0.051 0.0381,0.1143 0.0906,0.16602 0.0403,0.0388 0.11377,0.19768 0.15039,0.24591 0.0318,0.0423 0.069,0.46585 0.0891,0.51333 0.0913,0.21075 0.26962,0.18259 0.39683,0.381 0.136,0.21075 0.17117,0.17265 0.32576,0.3718 0.15092,0.19492 0.14376,0.33498 0.2969,0.52769 0.0626,0.0791 0.16676,0.16897 0.21075,0.2575 0.0475,0.0933 0.0848,0.15737 0.10858,0.25308 0.0208,0.0819 0.0826,0.16031 0.10989,0.24148 0.0152,0.0445 0.0109,0.0957 0.0381,0.14099 0.041,0.0668 0.10711,0.0762 0.14595,0.14596 0.0303,0.0539 0.14026,0.38671 0.13455,0.44137 0.15956,0.0166 0.16305,-0.38891 0.19621,-0.50837 0.0318,-0.11706 0.0303,-0.19694 0.10785,-0.30332 0.0898,-0.12369 0.31859,-0.23155 0.42848,-0.34162 0.12792,-0.12718 0.15829,-0.18184 0.17265,-0.34216 0.009,-0.10859 0.0152,-0.23154 0.0559,-0.33572 0.0354,-0.0898 0.10213,-0.17688 0.15974,-0.2575 0.0948,-0.13141 0.0926,-0.17467 0.12721,-0.31989 0.0935,-0.39259 0.49897,-0.60242 0.67144,-0.94679 0.0539,-0.10786 0.0784,-0.2194 0.1682,-0.31217 0.0591,-0.0596 0.12168,-0.1027 0.17689,-0.16381 -0.0251,0.002 -0.0668,0 -0.097,-0.009 -0.10417,-0.0331 -0.15091,-0.018 -0.25876,-0.0151 -0.13952,0.004 -0.27831,0 -0.42132,0.0114 -0.10435,0.009 -0.21072,0.0388 -0.31066,0.044 -0.0236,-0.12516 -0.33076,-0.021 -0.43144,-0.044 -0.0532,-0.0121 -0.0876,-0.0525 -0.14302,-0.0646 -0.11007,-0.0267 -0.24017,0.002 -0.35521,-0.023 -0.16309,-0.0339 -0.33059,-0.067 -0.50176,-0.0554 -0.19692,0.0144 -0.38467,0.0791 -0.58878,0.0876 -0.45371,0.0188 -0.94993,-0.0431 -1.42149,0.0339 0.008,0.0237 0.009,0.0569 0.0215,0.0806"
       style="fill:#21201d;fill-opacity:1;fill-rule:nonzero;stroke:none;stroke-width:0.184057"
       id="path648" />
  </g>
</svg>
