<?xml version="1.0" encoding="UTF-8" standalone="no"?>
<!-- Created with Inkscape (http://www.inkscape.org/) -->

<svg
   width="7.2945547mm"
   height="6.2975221mm"
   viewBox="0 0 7.2945547 6.2975221"
   version="1.1"
   id="svg2722"
   inkscape:version="1.1.2 (0a00cf5339, 2022-02-04)"
   sodipodi:docname="e4.svg"
   xmlns:inkscape="http://www.inkscape.org/namespaces/inkscape"
   xmlns:sodipodi="http://sodipodi.sourceforge.net/DTD/sodipodi-0.dtd"
   xmlns="http://www.w3.org/2000/svg"
   xmlns:svg="http://www.w3.org/2000/svg">
  <sodipodi:namedview
     id="namedview2724"
     pagecolor="#ffffff"
     bordercolor="#666666"
     borderopacity="1.0"
     inkscape:pageshadow="2"
     inkscape:pageopacity="0.0"
     inkscape:pagecheckerboard="0"
     inkscape:document-units="mm"
     showgrid="false"
     inkscape:zoom="0.64052329"
     inkscape:cx="14.051011"
     inkscape:cy="11.709176"
     inkscape:window-width="2560"
     inkscape:window-height="1376"
     inkscape:window-x="0"
     inkscape:window-y="0"
     inkscape:window-maximized="1"
     inkscape:current-layer="layer1" />
  <defs
     id="defs2719" />
  <g
     inkscape:label="Layer 1"
     inkscape:groupmode="layer"
     id="layer1"
     transform="translate(-101.27396,-145.35112)">
    <path
       d="m 101.58085,146.93275 c -0.0166,0.0166 0.0194,0.004 0.0425,-0.009 0.0624,-0.0366 0.1215,-0.1 0.18038,-0.14522 0.0792,-0.0589 0.10932,-0.13878 0.1754,-0.21498 0.0425,-0.0495 0.0525,-0.10197 0.11155,-0.14302 0.12499,-0.0884 0.27389,-0.10859 0.39902,-0.20706 0.19124,-0.15019 0.37162,-0.23873 0.57521,-0.3637 0.2214,-0.13676 0.56208,-0.28547 0.81019,-0.32726 0.23872,-0.0409 0.48168,-0.0683 0.72189,-0.12 0.25308,-0.0547 0.44852,-0.0604 0.70382,-0.0418 0.21717,0.0158 0.37822,0.0942 0.59027,0.12295 0.069,0.0101 0.14228,0.0388 0.20338,0.072 0.0727,0.0374 0.0856,0.0769 0.164,0.10638 0.11152,0.0411 0.23005,0.0804 0.32855,0.15958 0.16178,0.1316 0.36808,0.22933 0.50412,0.39904 0.0668,0.0826 0,0.12 0.0617,0.19565 0.0605,0.074 0.18701,0.16105 0.2654,0.21571 -0.0187,0.0797 0.0883,0.10565 0.11726,0.16161 0.0194,0.0375 0.0113,0.0885 0.0353,0.13086 -0.0856,0.0611 -0.17043,-0.11209 -0.21573,-0.17246 -0.10491,-0.13804 -0.25657,-0.24296 -0.3817,-0.35376 -0.16108,-0.14228 -0.30628,-0.30333 -0.51629,-0.37971 -0.31052,-0.11209 -0.6017,-0.2551 -0.92453,-0.3464 -0.24588,-0.0705 -0.51904,-0.10362 -0.77727,-0.0979 -0.11501,0.002 -0.23005,-0.006 -0.34509,-0.006 -0.10343,0 -0.28254,-0.0324 -0.37751,0.0245 -0.0201,0.0121 -0.0236,0.0532 -0.046,0.069 -0.0646,0.0475 -0.15515,0.0547 -0.2286,0.0733 -0.18828,0.0475 -0.40326,0.0613 -0.57665,0.16473 -0.0596,0.0351 -0.0992,0.0913 -0.1524,0.12939 -0.0935,0.0663 -0.20779,0.0906 -0.30332,0.15388 -0.13878,0.0913 -0.18186,0.24663 -0.33076,0.31068 -0.13011,0.056 -0.23799,0.10418 -0.35006,0.19916 -0.0698,0.0589 -0.0712,0.12423 -0.15389,0.16528 -0.0677,0.0331 -0.11722,0.051 -0.15109,0.12148 -0.0328,0.069 -0.0279,0.17338 -0.11063,0.19271 -0.0604,0.0144 -0.1511,0.049 -0.1281,-0.0265 0.0102,-0.0526 0.0243,-0.10435 0.0201,-0.15534 0.0272,-0.0237 0.0712,-0.0366 0.0596,-0.0576"
       style="fill:#21201d;fill-opacity:1;fill-rule:evenodd;stroke:none;stroke-width:0.184057"
       id="path548" />
    <path
       d="m 107.65177,146.98465 c -0.0453,-0.021 -0.20761,0.1005 -0.26303,0.13437 -0.13159,0.0812 -0.24663,0.17191 -0.39331,0.19694 -0.20853,0.0368 -0.42775,0.10786 -0.62544,0.18406 -0.17265,0.0655 -0.30128,0.1662 -0.45368,0.25602 -0.0841,0.049 -0.18848,0.0495 -0.27114,0.10215 -0.0747,0.0473 -0.11134,0.14154 0.0131,0.14375 0.0361,-0.0633 0.17833,-0.11798 0.24737,-0.16031 0.11007,-0.0683 0.22511,-0.10068 0.33221,-0.1467 0.0777,-0.0324 0.17392,-0.0898 0.25457,-0.12442 0.12717,-0.0554 0.26962,-0.0725 0.40767,-0.11577 0.39609,-0.12369 0.84261,-0.0589 1.21496,0.11503 0.17265,0.0806 0.29559,0.20284 0.34583,0.36168 0.0229,-0.12443 0.0261,-0.17191 -0.0332,-0.28032 -0.0416,-0.0784 -0.0532,-0.15535 -0.0913,-0.22878 -0.10566,-0.20339 -0.30554,-0.3372 -0.47671,-0.43714 -0.0653,-0.0381 -0.21128,-0.13934 -0.20778,0"
       style="fill:#21201d;fill-opacity:1;fill-rule:nonzero;stroke:none;stroke-width:0.184057"
       id="path550" />
    <path
       d="m 107.32616,147.49505 c -0.0964,0.0525 -0.092,0.27461 -0.0777,0.37032 0.0138,0.0928 0.004,0.17394 0.01,0.26891 0.008,0.11504 0.0653,0.20191 0.10989,0.30554 0.0957,0.22068 0.1892,0.43934 0.27902,0.65414 0.10565,0.25455 0.22786,0.48757 0.26246,0.76071 0.0194,0.15755 0.11007,0.31345 0.10143,0.47598 -0.004,0.0814 -0.0611,0.13657 -0.0683,0.21645 -0.0893,0.0158 -0.10933,0.0524 -0.13529,-0.046 -0.0243,-0.0898 0.0208,-0.19123 0.005,-0.27903 -0.0403,-0.23504 -0.12735,-0.46861 -0.16969,-0.70881 -0.0453,-0.25805 -0.0791,-0.47027 -0.22288,-0.68948 -0.067,-0.10215 -0.14817,-0.18774 -0.19713,-0.30351 -0.0545,-0.12792 -0.18186,-0.30185 -0.16306,-0.44358 0.009,-0.0683 0.0646,-0.13878 0.0826,-0.20982 0.0127,-0.0534 0.008,-0.1202 0.0201,-0.16621 0.0159,-0.0661 0.0769,-0.18038 0.16397,-0.20559"
       style="fill:#21201d;fill-opacity:1;fill-rule:nonzero;stroke:none;stroke-width:0.184057"
       id="path552" />
    <path
       d="m 105.81415,147.90053 c 0.0648,0.0668 0.097,0.14301 0.12442,0.23375 0.0396,0.1351 0.0697,0.22289 0.13879,0.34584 0.0732,0.13216 0.12146,0.29045 0.19914,0.42408 0.0604,0.10509 0.10195,0.13951 0.12146,0.26025 0.0113,0.069 0.0145,0.1432 0.004,0.19124 0.0396,-0.22216 -0.0861,-0.33646 -0.15812,-0.52622 -0.0296,-0.0784 -0.0396,-0.1351 -0.0891,-0.20412 -0.0396,-0.0561 -0.0827,-0.10363 -0.10788,-0.16897 -0.0467,-0.12019 -0.0332,-0.25032 -0.0814,-0.36388 -0.0229,-0.0561 -0.0718,-0.0928 -0.0977,-0.14596 -0.0201,-0.041 -0.0145,-0.0841 -0.0416,-0.10712 0.0113,0.0136 0.0258,0.006 -0.0117,0.0611"
       style="fill:#21201d;fill-opacity:1;fill-rule:nonzero;stroke:none;stroke-width:0.184057"
       id="path554" />
    <path
       d="m 105.92422,147.81218 c 0.0732,-0.0144 0.18404,0.20982 0.23078,0.27535 0.0928,0.12792 0.14672,0.2321 0.19474,0.38818 0.0497,0.1581 0.14746,0.2424 0.16108,0.41486 0.0109,0.12295 0.0626,0.26321 0.0403,0.38818 0.0272,-0.14798 0.049,-0.27093 0.018,-0.41983 -0.0346,-0.16529 -0.15113,-0.29192 -0.20708,-0.44653 -0.0526,-0.14227 -0.12093,-0.24443 -0.19988,-0.37382 -0.0611,-0.10068 -0.11578,-0.19271 -0.17614,-0.29044 -0.0201,0.002 -0.0418,0.0151 -0.0618,0.0641"
       style="fill:#21201d;fill-opacity:1;fill-rule:nonzero;stroke:none;stroke-width:0.184057"
       id="path556" />
    <path
       d="m 106.06871,147.70708 c 0.0826,0.003 0.25584,0.30131 0.30054,0.38247 0.0748,0.13602 0.17967,0.2518 0.26176,0.3834 0.0559,0.092 0.0955,0.15019 0.11356,0.25289 0.01,0.0633 0.0215,0.16124 0.046,0.2194 0.0381,0.0955 0.12717,0.17614 0.15589,0.27756 -0.0596,-0.27038 -0.14594,-0.57242 -0.3048,-0.80176 -0.0985,-0.14154 -0.23872,-0.27756 -0.27958,-0.44855 -0.0282,-0.11872 -0.0799,-0.28694 -0.22087,-0.29762 0.0296,-0.002 0.0591,0 0.0885,0.008"
       style="fill:#21201d;fill-opacity:1;fill-rule:nonzero;stroke:none;stroke-width:0.184057"
       id="path558" />
    <path
       d="m 106.34035,147.59352 c 0.0296,0.11356 0.18553,0.1905 0.24314,0.29835 0.0856,0.1583 0.14524,0.28474 0.27093,0.41984 0.0381,0.0403 0.0512,0.0425 0.0821,0.0856 0.0187,0.026 0.0381,0.0705 0.0567,0.10068 0.0339,0.0561 0.0576,0.11651 0.0913,0.16897 0.067,0.10491 0.14817,0.21497 0.19565,0.33369 -0.007,-0.0604 0,-0.12884 -0.0215,-0.18774 -0.0346,-0.10638 -0.12812,-0.18111 -0.18058,-0.27682 -0.0668,-0.12074 -0.10418,-0.27038 -0.19343,-0.38321 -0.094,-0.12 -0.17964,-0.22216 -0.26155,-0.35155 -0.0453,-0.0712 -0.14319,-0.19842 -0.28272,-0.2078"
       style="fill:#21201d;fill-opacity:1;fill-rule:nonzero;stroke:none;stroke-width:0.184057"
       id="path560" />
    <path
       d="m 107.21757,148.23202 c -0.01,-0.0898 -0.11134,-0.16897 -0.1603,-0.23873 -0.0576,-0.0819 -0.10714,-0.17909 -0.17392,-0.25234 -0.0841,-0.0906 -0.19421,-0.14817 -0.29782,-0.21148 0.1432,0.0994 0.23947,0.27111 0.36389,0.39406 0.0856,0.0841 0.16528,0.2575 0.26815,0.30849"
       style="fill:#21201d;fill-opacity:1;fill-rule:nonzero;stroke:none;stroke-width:0.184057"
       id="path562" />
    <path
       d="m 106.56398,147.5094 c 0.0598,0.0195 0.1029,0.051 0.16252,0.0799 0.0166,0.009 0.0339,0.0165 0.0504,0.0245 -0.0792,-0.0598 -0.16104,-0.11301 -0.24588,-0.1489 z"
       style="fill:#21201d;fill-opacity:1;fill-rule:nonzero;stroke:none;stroke-width:0.184057"
       id="path564" />
    <path
       d="m 107.30887,147.94949 c -0.0898,-0.11228 -0.15533,-0.26026 -0.27316,-0.34364 -0.087,-0.0611 -0.17409,-0.0972 -0.26613,-0.13952 0.10657,0.0804 0.20708,0.1732 0.30205,0.25584 0.0927,0.0814 0.12146,0.17615 0.20485,0.27535 0.0814,0.0965 0.1964,0.17265 0.28621,0.25898 0.0841,0.0804 0.16969,0.15957 0.25601,0.23872 -0.0332,-0.0346 -0.0641,-0.0698 -0.0985,-0.10583 -0.13804,-0.14725 -0.28917,-0.28824 -0.41137,-0.4399"
       style="fill:#21201d;fill-opacity:1;fill-rule:nonzero;stroke:none;stroke-width:0.184057"
       id="path566" />
    <path
       d="m 107.12408,147.45272 c -0.0201,-0.021 -0.0401,-0.0411 -0.0589,-0.0626 l 0.005,0.0287 c -0.0388,-0.0195 -0.0804,-0.0309 -0.1294,-0.0302 0.0512,0.009 0.0943,0.0295 0.13455,0.0539 l 0.005,0.0272 c 0.0236,0.0446 0.0618,0.0755 0.0935,0.11946 0.0488,0.0697 0.0863,0.15092 0.14672,0.21571 0.0574,0.0624 0.12495,0.12148 0.18827,0.18038 0.049,0.0453 0.0755,0.10565 0.12369,0.14596 -0.004,-0.10713 -0.10785,-0.19198 -0.18112,-0.25805 -0.0806,-0.0742 -0.10509,-0.14025 -0.16397,-0.23007 -0.0243,-0.0361 -0.0482,-0.0705 -0.0747,-0.10289 0.018,0.0123 0.0374,0.0245 0.0574,0.0366 -0.0286,-0.0215 -0.0567,-0.0446 -0.0841,-0.0676 -0.0194,-0.0215 -0.0403,-0.0403 -0.0619,-0.0567"
       style="fill:#21201d;fill-opacity:1;fill-rule:nonzero;stroke:none;stroke-width:0.184057"
       id="path568" />
    <path
       d="m 108.56783,148.24785 c -0.16179,-0.0957 -0.33648,-0.14523 -0.50617,-0.23155 -0.164,-0.0848 -0.34583,-0.15958 -0.50394,-0.25676 -0.0957,-0.0582 -0.1826,-0.12148 -0.27979,-0.17743 -0.004,-0.002 -0.006,-0.004 -0.008,-0.005 0.072,0.0554 0.14669,0.10712 0.21721,0.15902 0.12146,0.0898 0.25732,0.19547 0.39038,0.25952 0.18976,0.0928 0.39607,0.14744 0.58879,0.23357 0.0243,0.0109 0.0539,0.0245 0.0863,0.0396 0.005,-0.007 0.0102,-0.0144 0.0159,-0.0208"
       style="fill:#21201d;fill-opacity:1;fill-rule:nonzero;stroke:none;stroke-width:0.184057"
       id="path570" />
    <path
       d="m 101.49749,149.36158 c -0.0109,0.003 0.006,0.0532 0.0374,0.0812 0.0626,0.0554 0.15607,0.0129 0.21717,0.0648 0.0416,0.0351 0.0683,0.15737 0.11652,0.20338 0.0732,0.069 0.15018,0.072 0.24296,0.0906 0.11208,0.023 0.18754,0.0554 0.25527,0.18406 0.0532,0.10215 0.071,0.20503 0.14302,0.28547 0.1029,0.11356 0.25601,0.18056 0.38745,0.22069 0.0482,0.0151 0.0964,0.006 0.13233,0.0425 0.0475,0.0475 0.0769,0.13804 0.14891,0.18038 0.0977,0.0591 0.56208,0.36738 0.66202,0.22289 0.0972,0.2783 0.43071,0.32579 0.62195,0.39113 0.23872,0.0806 0.52197,0.15884 0.77946,0.12295 0.11635,-0.0166 0.22419,-0.12148 0.33203,-0.14302 0.11653,-0.0237 0.29782,0.0653 0.41928,0.0777 0.13363,0.0129 0.2286,0.005 0.36022,-0.0519 0.0525,-0.023 0.11134,-0.0582 0.16253,-0.0302 -0.0618,0.0821 -0.14542,0.10713 -0.2194,0.12093 -0.15388,0.0272 -0.30187,0.0725 -0.45868,0.0849 -0.0589,0.004 -0.17762,0.051 -0.22712,0.0223 -0.0289,-0.0173 -0.0243,-0.0999 -0.0539,-0.10657 -0.0368,-0.008 -0.064,0.0569 -0.0972,0.0791 -0.13804,0.092 -0.29188,0.10859 -0.43416,0.12221 -0.19696,0.018 -0.49477,0.0619 -0.65857,-0.071 -0.0755,-0.0598 -0.0957,-0.10216 -0.18626,-0.11154 -0.10859,-0.0114 -0.25234,-0.005 -0.34862,-0.0812 -0.0655,-0.0519 -0.0843,-0.15038 -0.15458,-0.18056 -0.0799,-0.0337 -0.19417,0.0116 -0.2805,-0.0101 -0.0856,-0.0215 -0.16178,-0.0775 -0.24147,-0.11927 -0.0913,-0.0482 -0.34661,-0.12516 -0.31493,-0.33866 -0.0885,-0.0884 -0.26321,-0.023 -0.37035,-0.0718 -0.1143,-0.0532 -0.27312,-0.13087 -0.32854,-0.29413 -0.0286,-0.0856 -0.0173,-0.19197 -0.0747,-0.25087 -0.0569,-0.0583 -0.16894,-0.0519 -0.23724,-0.10289 -0.0871,-0.0641 -0.13804,-0.11135 -0.17117,-0.2251 -0.007,-0.0265 0.0152,-0.0653 0.004,-0.0992 -0.0109,-0.0316 -0.0554,-0.051 -0.0749,-0.0683 -0.14669,-0.1294 -0.34714,-0.26449 -0.30904,-0.56285 0.0265,0.14006 0.1789,0.34934 0.21996,0.3221"
       style="fill:#21201d;fill-opacity:1;fill-rule:nonzero;stroke:none;stroke-width:0.184057"
       id="path572" />
    <path
       d="m 105.37353,146.80851 c 0.009,0.0129 0.0187,0.0265 0.0279,0.0401 0.005,0.008 0.01,0.0158 0.0145,0.0245 0.0279,0.0215 0.0576,0.0425 0.0849,0.0431 0,-0.005 0.004,-0.009 0.004,-0.0136 -0.0258,-0.0683 -0.0236,-0.16676 -0.0582,-0.23872 -0.0286,-0.0582 -0.18626,-0.23725 -0.26024,-0.19768 -0.10933,0.0583 0.0626,0.16473 0.0935,0.19915 0.0328,0.0374 0.0654,0.0898 0.0943,0.1432"
       style="fill:#21201d;fill-opacity:1;fill-rule:nonzero;stroke:none;stroke-width:0.184057"
       id="path574" />
    <path
       d="m 105.0356,146.6309 c 0.046,-0.11007 -0.16033,-0.20781 -0.23449,-0.26247 -0.0524,-0.0403 -0.23946,-0.14743 -0.26892,-0.0438 0.0999,0.0567 0.21276,0.0898 0.31418,0.14725 0.0777,0.0453 0.11007,0.1051 0.18923,0.15903"
       style="fill:#21201d;fill-opacity:1;fill-rule:nonzero;stroke:none;stroke-width:0.184057"
       id="path576" />
    <path
       d="m 104.63785,146.58341 c 0.11006,-0.13731 -0.71247,-0.34879 -0.89066,-0.24885 0.13141,0.11081 0.30187,0.0762 0.45794,0.0885 0.14817,0.0121 0.28677,0.0755 0.43272,0.16032"
       style="fill:#21201d;fill-opacity:1;fill-rule:nonzero;stroke:none;stroke-width:0.184057"
       id="path578" />
    <path
       d="m 103.6802,146.72145 c 0,-0.008 -0.0208,-0.0129 0,-0.0339 -0.0431,0.0144 -0.13804,0.0554 -0.11208,0.11724 0.0303,0.0747 0.18605,-0.0144 0.22712,-0.0309 0.12516,-0.0503 0.25379,-0.0913 0.3876,-0.11081 0.0661,-0.009 0.1524,0 0.20835,-0.0193 -0.19544,-0.0339 -0.47153,-0.0641 -0.71247,0.0777"
       style="fill:#21201d;fill-opacity:1;fill-rule:nonzero;stroke:none;stroke-width:0.184057"
       id="path580" />
    <path
       d="m 104.67538,147.38866 c 0.0106,0.0646 -0.18552,0.0532 -0.22436,0 -0.0208,-0.0287 -0.13159,-0.13583 0,-0.16547 0.012,-0.0322 0.12075,0.0475 0.12149,0.0116 0.0244,0.0265 0.0928,0.0913 0.10287,0.15387 m 0.762,0.13584 c 0.004,-0.0539 0.0222,-0.1524 0.0123,-0.20063 -0.0138,-0.0697 -0.10583,-0.14448 -0.14891,-0.19547 -0.12791,-0.14963 -0.24147,-0.28915 -0.43935,-0.33719 -0.0631,-0.0151 -0.26818,-0.0425 -0.21699,0.0309 -0.14467,-0.0445 -0.22013,0.006 -0.34879,0.0604 -0.10142,0.0431 -0.18757,0.0495 -0.24737,0.17044 -0.0567,0.11356 -0.13162,0.34437 -0.0661,0.45499 0.0804,0.13676 0.16968,0.33867 0.3013,0.38763 0.21425,0.0804 0.34361,0.092 0.50744,0.10491 0.16397,0.0136 0.23594,-0.023 0.37751,-0.11062 0.12294,-0.0764 0.25894,-0.21296 0.26888,-0.36536"
       style="fill:#21201d;fill-opacity:1;fill-rule:nonzero;stroke:none;stroke-width:0.184057"
       id="path582" />
  </g>
</svg>
