<?xml version="1.0" encoding="UTF-8" standalone="no"?>
<!-- Created with Inkscape (http://www.inkscape.org/) -->

<svg
   width="6.3130236mm"
   height="6.9278769mm"
   viewBox="0 0 6.3130236 6.9278769"
   version="1.1"
   id="svg2331"
   inkscape:version="1.1.2 (0a00cf5339, 2022-02-04)"
   sodipodi:docname="m4.svg"
   xmlns:inkscape="http://www.inkscape.org/namespaces/inkscape"
   xmlns:sodipodi="http://sodipodi.sourceforge.net/DTD/sodipodi-0.dtd"
   xmlns="http://www.w3.org/2000/svg"
   xmlns:svg="http://www.w3.org/2000/svg">
  <sodipodi:namedview
     id="namedview2333"
     pagecolor="#ffffff"
     bordercolor="#666666"
     borderopacity="1.0"
     inkscape:pageshadow="2"
     inkscape:pageopacity="0.0"
     inkscape:pagecheckerboard="0"
     inkscape:document-units="mm"
     showgrid="false"
     inkscape:zoom="0.64052329"
     inkscape:cx="-1562.7847"
     inkscape:cy="419.18851"
     inkscape:window-width="2560"
     inkscape:window-height="1376"
     inkscape:window-x="0"
     inkscape:window-y="0"
     inkscape:window-maximized="1"
     inkscape:current-layer="layer1" />
  <defs
     id="defs2328" />
  <g
     inkscape:label="Layer 1"
     inkscape:groupmode="layer"
     id="layer1"
     transform="translate(-518.5549,-37.430364)">
    <path
       d="m 524.63473,42.810491 c -0.0797,0.119271 -0.43568,0.214246 -0.5601,0.295416 -0.0841,0.05466 -0.14005,0.151109 -0.22638,0.199334 -0.12516,0.07031 -0.29616,0.07546 -0.43067,0.120742 -0.25382,0.08411 -0.48888,0.299829 -0.74196,0.376029 -0.11077,0.03369 -0.22581,0.09056 -0.33793,0.110621 -0.11797,0.02099 -0.21865,0.06479 -0.32925,0.1108 -0.0403,0.01658 -0.1108,0.02374 -0.16972,0.04086 -0.0131,-0.226391 -0.0445,-0.487383 -0.0445,-0.674387 0,-0.435667 -0.0992,-0.856975 -0.0999,-1.288405 0,-0.435666 0.0639,-0.869858 0.0502,-1.304787 -0.006,-0.156083 0.0532,-0.300567 0.0648,-0.453704 0.1905,-0.102888 0.42354,-0.141725 0.59672,-0.279767 0.20486,-0.162525 0.43935,-0.222158 0.68873,-0.293941 0.39906,-0.116509 0.80324,-0.35965 1.17485,-0.535055 0.0497,-0.023 0.14962,-0.04307 0.24092,-0.07031 -0.0282,0.160316 -0.004,0.350079 -0.005,0.505425 0,0.385233 -0.0173,0.841879 0,1.227296 0.012,0.253633 0.0215,0.527695 0.0611,0.775621 0.0374,0.235962 0.10142,0.444316 0.10068,0.691691 0,0.158288 0.0539,0.31345 -0.0346,0.446521 m -3.90253,0.918083 c -0.15462,-0.04013 -0.27609,-0.1143 -0.41268,-0.186083 -0.19989,-0.104362 -0.38964,-0.270379 -0.61105,-0.325046 -0.17614,-0.0438 -0.34015,-0.09129 -0.5069,-0.179087 -0.0819,-0.04454 -0.29337,-0.150929 -0.33497,-0.234308 -0.0626,-0.12663 0.0342,-0.340875 0.0624,-0.464563 0.0633,-0.28455 0.0999,-0.585854 0.0403,-0.872063 -0.092,-0.442108 -0.12573,-0.923787 -0.17174,-1.377491 -0.0324,-0.314925 0.1,-0.675125 0.0624,-0.985813 0.0554,0.03607 0.12019,0.06902 0.15314,0.0878 0.14817,0.08761 0.3646,0.07841 0.44429,0.198412 0.12517,0.0762 0.27111,0.181113 0.40421,0.245901 0.18627,0.09056 0.36735,0.08909 0.53062,0.204858 0.13585,0.09718 0.26155,0.116508 0.41338,0.173933 0.14743,0.0554 0.29192,0.128105 0.44432,0.166205 0.16969,0.0416 0.35504,0.01214 0.28473,0.209274 -0.0569,0.159579 -0.0561,0.263755 -0.0275,0.435667 0.0525,0.31345 -0.0113,0.568738 -0.0683,0.877034 -0.0388,0.208537 -0.069,0.311428 -0.0106,0.523462 0.079,0.284737 0.15441,0.592483 0.17667,0.887158 0.0102,0.136021 -0.0624,0.666659 0.007,0.969984 -0.13158,-0.02872 -0.23597,-0.112088 -0.36756,-0.156817 -0.16675,-0.05522 -0.34512,-0.155896 -0.51258,-0.198413 m -1.42,-5.038587 c 0.1071,-0.0646 0.22655,-0.097 0.33221,-0.155159 0.18775,-0.103625 0.37031,-0.131603 0.57591,-0.199887 0.22218,-0.07418 0.35669,-0.254554 0.57591,-0.3221 0.19988,-0.06185 0.41635,-0.09074 0.61034,-0.171912 0.0727,-0.0302 0.12883,-0.103442 0.19787,-0.127921 0.0933,-0.03461 0.056,-0.01013 0.13434,0.04675 0.14227,0.100496 0.34438,0.122216 0.50616,0.207066 0.20486,0.107859 0.35081,0.298359 0.56946,0.385971 0.22436,0.09129 0.42058,0.151663 0.63482,0.282529 0.0963,0.05908 0.18038,0.06773 0.2818,0.112275 0.092,0.0416 0.16178,0.122213 0.25308,0.168229 0.0762,0.03883 0.17685,0.06111 0.27753,0.06976 -0.0977,0.06037 -0.19766,0.145221 -0.27386,0.180375 -0.0935,0.04325 -0.17614,0.08412 -0.27756,0.1143 -0.27111,0.08135 -0.53062,0.204304 -0.79806,0.299095 -0.27241,0.09718 -0.6247,0.159026 -0.85548,0.336459 -0.0908,0.06975 -0.20433,0.194916 -0.32505,0.193442 -0.11928,-7.06e-4 -0.2818,-0.118533 -0.40125,-0.159576 -0.1984,-0.06829 -0.381,-0.166758 -0.58734,-0.217191 -0.22363,-0.05466 -0.29983,-0.101967 -0.48239,-0.234304 -0.0848,-0.06184 -0.18408,-0.09773 -0.28123,-0.14375 -0.18976,-0.09074 -0.37014,-0.188475 -0.55789,-0.282529 -0.13656,-0.06976 -0.28621,-0.155346 -0.44284,-0.195654 0.005,-0.0072 0.0109,-0.01362 0.0159,-0.023 0.10269,-0.0037 0.23078,-0.110067 0.31767,-0.163262 m 5.53106,3.48845 c -0.0201,-0.25363 -0.0517,-0.502476 -0.0848,-0.753347 -0.0265,-0.207804 0.004,-0.422783 -0.0328,-0.628375 -0.09,-0.50487 -0.0275,-1.113733 -0.0317,-1.627808 -0.0123,-0.01877 -0.0243,-0.04381 -0.0425,-0.06479 0.0212,-0.01436 0.0367,-0.0302 0.044,-0.04804 -0.0821,-0.04822 -0.136,-0.128104 -0.23799,-0.136017 -0.26613,-0.283266 -0.69959,-0.353762 -1.06344,-0.508921 -0.29468,-0.126633 -0.5636,-0.346583 -0.84117,-0.508366 -0.20281,-0.118721 -0.44153,-0.175409 -0.63277,-0.299096 -0.0611,-0.03884 -0.12644,-0.119454 -0.18186,-0.150192 -0.0898,-0.05043 -0.0581,-0.0094 -0.15607,0.03736 -0.11134,0.05246 -0.25308,0.03517 -0.36939,0.08761 -0.0828,0.03736 -0.13233,0.09774 -0.20504,0.1524 -0.092,0.06902 -0.1905,0.08062 -0.29192,0.128842 -0.0812,0.0381 -0.15018,0.100496 -0.22712,0.143012 -0.18553,0.102154 -0.3429,0.144488 -0.54998,0.2113 -0.0977,0.0309 -0.1984,0.0935 -0.29411,0.139513 -0.15092,0.07344 -0.3278,0.108596 -0.46877,0.199888 -0.10862,0.06902 -0.32064,0.179825 -0.40474,0.302041 -0.004,0 -0.009,0 -0.0131,0 0,0.005 0.004,0.0099 0.004,0.0151 -0.006,0.0099 -0.0106,0.02081 -0.0152,0.0309 0.007,0.0021 0.0138,0.0035 0.0215,0.0057 0.004,0.02872 0,0.06037 -0.004,0.0935 h -0.004 c 0,0.0014 0,0.0035 0.004,0.005 -0.0201,0.144483 -0.0913,0.316395 -0.1143,0.423516 -0.0497,0.231542 -0.0935,0.46585 -0.0927,0.704572 0,0.414866 0.006,0.848324 0.0604,1.256749 0.0467,0.363146 0.0769,0.726109 0.0891,1.087046 0.007,0.168967 -0.0187,0.318604 -0.0106,0.486096 0.13088,0.03461 0.19198,0.06681 0.29912,0.156817 0.0819,0.06902 0.22214,0.222158 0.31418,0.268908 0.0574,0.02872 0.16821,0.0035 0.23503,0.01362 0.10142,0.01436 0.21646,0.0381 0.31492,0.07178 0.11871,0.04178 0.18701,0.115771 0.28547,0.187738 0.13804,0.102153 0.2969,0.124424 0.45148,0.189028 0.17466,0.07418 0.33574,0.155346 0.52843,0.195655 0.14817,0.0302 0.55217,0.358729 0.68873,0.293941 0.004,0.0066 0.006,0.01235 0.008,0.01584 0.1524,0.01584 0.3035,-0.120746 0.43215,-0.14725 0.18186,-0.0381 0.34657,-0.149637 0.52476,-0.204304 0.32999,-0.101413 0.62911,-0.350075 0.95342,-0.46235 0.14742,-0.05025 0.30624,-0.08909 0.44799,-0.162342 0.1106,-0.05687 0.20059,-0.220133 0.30258,-0.289891 0.11299,-0.07693 0.22934,-0.0151 0.32579,-0.06902 0.0581,-0.03295 0.0408,-0.08411 0.0475,-0.150192 0.0286,-0.278296 0.01,-0.4156 -0.0124,-0.693162"
       style="fill:#21201d;fill-opacity:1;fill-rule:evenodd;stroke:none;stroke-width:0.184057"
       id="path592" />
    <path
       d="m 521.43546,38.997733 c 0.10051,0.03387 0.40034,0.04896 0.45943,-0.03663 0.0473,-0.06682 0.0243,-0.20412 -0.0512,-0.248112 -0.1222,-0.07105 -0.2516,-0.0114 -0.37381,0.07123 -0.18037,-0.0072 -0.17247,0.167495 -0.0346,0.213508"
       style="fill:#21201d;fill-opacity:1;fill-rule:nonzero;stroke:none;stroke-width:0.184057"
       id="path594" />
    <path
       d="m 523.14718,41.634179 c 0,-0.0021 0.004,-0.0028 0.005,-0.005 0,-0.0042 0.004,-0.0094 0.004,-0.01436 z"
       style="fill:#21201d;fill-opacity:1;fill-rule:nonzero;stroke:none;stroke-width:0.184057"
       id="path596" />
    <path
       d="m 523.13208,41.665837 0.0152,-0.03164 c -0.006,0.0086 -0.012,0.01877 -0.0152,0.03164"
       style="fill:#21201d;fill-opacity:1;fill-rule:nonzero;stroke:none;stroke-width:0.184057"
       id="path598" />
    <path
       d="m 523.15233,41.629208 c -0.0418,0.137308 -0.19639,0.324312 -0.0425,0.414133 0.10788,0.06331 0.32212,0.02152 0.38467,-0.08338 0.12516,-0.209275 -0.24293,-0.434929 -0.34216,-0.330754"
       style="fill:#21201d;fill-opacity:1;fill-rule:nonzero;stroke:none;stroke-width:0.184057"
       id="path600" />
    <path
       d="m 520.08873,41.471841 c -0.0898,0.005 -0.17688,0.112825 -0.16972,0.245163 0.006,0.100496 0.0311,0.205595 0.1432,0.2286 0.0359,0.0079 0.20267,-0.108592 0.21702,-0.149638 0.0222,-0.06387 -0.0215,-0.145221 -0.0453,-0.203383 -0.0366,-0.08927 -0.0913,-0.123688 -0.14521,-0.120742"
       style="fill:#21201d;fill-opacity:1;fill-rule:nonzero;stroke:none;stroke-width:0.184057"
       id="path602" />
  </g>
</svg>
