<?xml version="1.0" encoding="UTF-8" standalone="no"?>
<!-- Created with Inkscape (http://www.inkscape.org/) -->

<svg
   width="4.5013742mm"
   height="8.1979141mm"
   viewBox="0 0 4.5013742 8.1979141"
   version="1.1"
   id="svg2188"
   inkscape:version="1.1.2 (0a00cf5339, 2022-02-04)"
   sodipodi:docname="e6.svg"
   xmlns:inkscape="http://www.inkscape.org/namespaces/inkscape"
   xmlns:sodipodi="http://sodipodi.sourceforge.net/DTD/sodipodi-0.dtd"
   xmlns="http://www.w3.org/2000/svg"
   xmlns:svg="http://www.w3.org/2000/svg">
  <sodipodi:namedview
     id="namedview2190"
     pagecolor="#ffffff"
     bordercolor="#666666"
     borderopacity="1.0"
     inkscape:pageshadow="2"
     inkscape:pageopacity="0.0"
     inkscape:pagecheckerboard="0"
     inkscape:document-units="mm"
     showgrid="false"
     inkscape:zoom="0.64052329"
     inkscape:cx="-768.12195"
     inkscape:cy="356.73957"
     inkscape:window-width="2560"
     inkscape:window-height="1376"
     inkscape:window-x="0"
     inkscape:window-y="0"
     inkscape:window-maximized="1"
     inkscape:current-layer="layer1" />
  <defs
     id="defs2185" />
  <g
     inkscape:label="Layer 1"
     inkscape:groupmode="layer"
     id="layer1"
     transform="translate(-307.96766,-54.144434)">
    <path
       d="m 310.1778,59.117697 c -7e-4,0.725555 0.0302,1.433075 0.0302,2.153476 0,0.164549 0.0525,0.792187 0.0898,1.035879 0.008,0.04896 0.0791,0.04601 0.0826,-0.0028 0.0223,-0.294858 0.0374,-0.983604 0.0742,-1.229504 0.0812,-0.552912 -7.1e-4,-1.148154 -0.001,-1.712659 -7.1e-4,-0.583649 0.25381,-1.067537 0.0777,-1.60977 -0.12663,-0.386708 -0.009,-1.201346 -0.0215,-1.566517 -0.21075,0.01214 -0.39112,0.01362 -0.60408,0.06313 0,0.0044 0.0626,0.0072 0.0633,0.01013 -0.006,-0.0057 -0.0166,-0.01143 -0.0351,-0.01729 0.004,0.788691 0.24516,2.064212 0.24443,2.875908"
       style="fill:#21201d;fill-opacity:1;fill-rule:evenodd;stroke:none;stroke-width:0.184057"
       id="path536" />
    <path
       d="m 309.25605,58.324776 c 0.0136,-0.09277 1.35741,0.04748 1.57883,0.03663 0.25455,-0.01214 0.49751,-0.06184 0.73917,-0.107121 0.0179,0.148904 -0.023,0.35155 -0.0294,0.506895 -0.0101,0.242221 -0.10363,0.462905 -0.12093,0.693713 -0.0171,0.229338 0.26541,0.824766 0.0482,1.006613 -0.19621,-0.08485 -0.5299,-0.02374 -0.74985,-0.03443 -0.25676,-0.01305 -0.50542,0 -0.76291,0 -0.2702,-7.06e-4 -0.53781,0.03514 -0.79292,-0.03957 -0.0144,-0.353758 0.01,-0.705309 -0.0475,-1.047655 -0.0346,-0.207066 -0.0366,-0.404008 -0.0166,-0.616041 0.0143,-0.148167 0.0675,-0.266887 0.0648,-0.414133 0.0223,7.05e-4 0.0653,0.01859 0.0861,0.03663 0.0151,0.227125 -0.028,0.454437 -0.028,0.685983 0,0.25805 0.0554,0.492354 0.0849,0.741938 0.0287,0.246637 -0.0547,0.515546 0.19491,0.544258 0.35229,0.03957 0.73107,-0.01877 1.08777,-0.01877 0.26173,0 0.54628,-0.0554 0.79734,0.01584 0.0186,-0.138779 -0.0403,-0.223629 -0.0784,-0.341425 -0.0589,-0.184059 -0.0274,-0.337196 -0.0129,-0.527696 0.0121,-0.166938 0.0423,-0.336642 0.0337,-0.505605 -0.008,-0.123503 -0.0948,-0.274616 -0.0495,-0.395358 -0.2135,-0.01584 -0.42075,0.03589 -0.63278,0.01143 -0.23155,-0.02723 -0.4918,0.06332 -0.71598,-0.0021 -0.26044,-0.07546 -0.51057,-0.07344 -0.755,-0.102888 0.046,0 0.092,0 0.0769,-0.127183"
       style="fill:#21201d;fill-opacity:1;fill-rule:nonzero;stroke:none;stroke-width:0.184057"
       id="path538" />
    <path
       d="m 308.06116,55.798947 c 0.0618,0.09129 0.33792,0.847771 0.14798,0.859921 -0.13933,0.0086 -0.19989,-0.464379 -0.22216,-0.572975 -0.0237,-0.115033 -0.048,-0.253816 0.0742,-0.286946"
       style="fill:#21201d;fill-opacity:1;fill-rule:nonzero;stroke:none;stroke-width:0.184057"
       id="path540" />
    <path
       d="m 312.44611,55.724218 c -0.046,-0.0072 -0.0957,0.0035 -0.13657,0.023 -0.0433,0.128658 -0.0433,0.317683 -0.0554,0.454441 -0.006,0.07399 -0.028,0.294675 0.0252,0.347867 0.0985,0.100679 0.14669,-0.0646 0.15589,-0.132338 0.021,-0.137308 -0.0136,-0.284554 -0.0107,-0.4191 0.003,-0.07197 0.0826,-0.227125 0.0215,-0.273879"
       style="fill:#21201d;fill-opacity:1;fill-rule:nonzero;stroke:none;stroke-width:0.184057"
       id="path542" />
    <path
       d="m 309.79883,54.482564 c -0.0913,-0.04528 -0.33866,-0.05245 -0.35578,-0.158288 -0.0237,-0.144487 0.25363,-0.155162 0.35725,-0.162341 0.11136,-0.0094 1.23373,-0.09792 1.0217,0.236516 -0.0641,0.101233 -0.44155,0.0381 -0.5645,0.0381"
       style="fill:#21201d;fill-opacity:1;fill-rule:nonzero;stroke:none;stroke-width:0.184057"
       id="path544" />
    <path
       d="m 310.538,56.128227 c 0.20559,-0.07326 0.53708,-0.04749 0.76199,-0.06037 0.27903,-0.0151 0.59469,-0.01655 0.8693,0.01288 0.11798,-0.0021 0.0611,0.110067 0.0906,0.173383 -0.58512,0.02946 -1.136,-0.133808 -1.72185,-0.125895 m -0.29982,-1.397 c -0.20854,0.179091 -0.33793,-0.254367 -0.14891,-0.270196 l -0.0322,-0.01087 c 0.0703,-0.0309 0.16455,0.02723 0.21204,0.07473 0.0675,0.06755 0.0582,0.13013 -0.0309,0.20633 m -0.10068,0.386891 c -0.0834,-0.03164 -0.11725,-0.227129 -0.006,-0.232283 0.0554,-0.0057 0.097,0.02025 0.1467,0.03387 0.0164,0.09774 0,0.253079 -0.14099,0.198416 m 0.0769,0.365171 c -0.11578,0.03387 -0.14375,-0.162525 -0.0403,-0.189029 l 0.0109,-0.01087 c 0.0683,0.0309 0.16455,0.160313 0.0295,0.199888 m -0.80524,0.713225 c -0.15811,0.0151 -0.3221,0.03608 -0.47377,0.05835 -0.17411,0.02575 -0.35375,0.03736 -0.52769,0.06313 -0.26172,0.03884 -0.13454,-0.02431 -0.24019,-0.185346 0.47082,0.136571 1.01231,-0.01379 1.50908,-0.01379 0.051,-0.01362 0.17117,-0.0035 0.27111,0.0028 -0.14025,0.06976 -0.38615,0.05963 -0.53854,0.07473 m 2.9679,-0.403271 c -0.26247,0.09479 -0.69518,0.04307 -0.972,0.0611 -0.18774,0.01143 -0.34161,0.02649 -0.52051,0.06608 -0.17265,0.03736 -0.25823,0.03313 -0.42351,0.02522 -0.0591,-0.213508 -0.0596,-0.534137 -0.007,-0.753533 0.0784,-0.326337 -0.0747,-0.773596 0.22215,-0.97698 -0.25086,-0.111541 -0.7283,-0.03239 -1.01028,-0.0267 -0.008,0.180562 0.0512,0.240196 0.1259,0.378979 0.10417,0.191233 0.0784,0.349341 0.1143,0.555671 0.0504,0.286208 0.0366,0.524196 0.092,0.795312 -0.0891,0.05963 -0.76567,0.117796 -0.92028,0.130129 -0.29983,0.02152 -0.7642,0.0014 -0.99924,-0.190683 -0.11007,0.194917 0.0992,0.494746 0.0898,0.731262 0.284,-0.08117 0.64052,-0.06976 0.94531,-0.143012 0.34014,-0.08135 0.72334,-0.15185 1.05262,-0.1905 0.76291,-0.09 1.49343,0.302588 2.24328,0.236513 -0.0504,-0.2286 -0.0576,-0.455913 -0.0324,-0.698867"
       style="fill:#21201d;fill-opacity:1;fill-rule:nonzero;stroke:none;stroke-width:0.184057"
       id="path546" />
  </g>
</svg>
