<?xml version="1.0" encoding="UTF-8" standalone="no"?>
<!-- Created with Inkscape (http://www.inkscape.org/) -->

<svg
   width="6.7806325mm"
   height="7.392879mm"
   viewBox="0 0 6.7806325 7.392879"
   version="1.1"
   id="svg2033"
   inkscape:version="1.1.2 (0a00cf5339, 2022-02-04)"
   sodipodi:docname="e7.svg"
   xmlns:inkscape="http://www.inkscape.org/namespaces/inkscape"
   xmlns:sodipodi="http://sodipodi.sourceforge.net/DTD/sodipodi-0.dtd"
   xmlns="http://www.w3.org/2000/svg"
   xmlns:svg="http://www.w3.org/2000/svg">
  <sodipodi:namedview
     id="namedview2035"
     pagecolor="#ffffff"
     bordercolor="#666666"
     borderopacity="1.0"
     inkscape:pageshadow="2"
     inkscape:pageopacity="0.0"
     inkscape:pagecheckerboard="0"
     inkscape:document-units="mm"
     showgrid="false"
     inkscape:zoom="0.64052329"
     inkscape:cx="-1252.1012"
     inkscape:cy="708.01485"
     inkscape:window-width="2560"
     inkscape:window-height="1376"
     inkscape:window-x="0"
     inkscape:window-y="0"
     inkscape:window-maximized="1"
     inkscape:current-layer="layer1" />
  <defs
     id="defs2030" />
  <g
     inkscape:label="Layer 1"
     inkscape:groupmode="layer"
     id="layer1"
     transform="translate(-436.11961,38.807701)">
    <path
       d="m 442.80481,-35.135683 c 0.10361,-0.268909 0.12792,-0.530455 0.046,-0.804518 -0.13878,-0.462169 -0.43271,-0.837463 -0.68523,-1.230059 -0.15314,-0.238723 -0.29965,-0.45812 -0.49823,-0.644202 -0.13511,-0.05614 -0.2588,-0.14375 -0.34569,-0.256761 -0.39698,-0.232834 -0.87866,-0.366644 -1.28912,-0.558616 -0.30056,-0.140988 -0.6048,-0.193445 -0.93757,-0.173935 -0.046,0.002 -0.0935,0.0064 -0.14172,0.01215 -0.5982,0.07399 -1.32429,0.404744 -1.25673,1.105084 0.0433,0.4572 0.2884,0.934647 0.81389,1.006613 0.28177,0.03884 1.12882,-0.13381 1.17334,-0.471004 0.60318,0.0554 1.07269,0.194917 1.50781,0.660768 0.0941,0.10068 0.17667,0.207065 0.24864,0.315659 0.13804,0.0797 0.20926,0.230809 0.21498,0.385418 0.0561,0.0762 0.10933,0.15516 0.14376,0.24222 0.0583,0.04031 0.09,0.110803 0.0554,0.200623 -0.006,0.01362 -0.0109,0.02724 -0.0159,0.0416 -0.004,0.0519 -0.0145,0.104361 -0.0286,0.154609 0.0236,0.183321 0.0303,0.37106 0.0215,0.560088 -0.005,0.08632 -0.0152,0.173382 -0.0303,0.259522 0.0272,0.114484 0.007,0.228784 -0.0332,0.336641 0.006,0.01933 0.01,0.04086 0.008,0.06608 0,0.01288 0,0.02595 -0.004,0.03884 0.004,0.03736 -0.005,0.07399 -0.0201,0.107122 -0.0661,0.230809 -0.25234,0.379528 -0.39977,0.578126 -0.0215,0.02871 -0.0466,0.04951 -0.0733,0.0646 -0.0712,0.09497 -0.14817,0.186267 -0.22934,0.271854 -0.20207,0.212035 -0.45717,0.374558 -0.66294,0.581623 -0.18905,0.1905 -0.41836,0.240012 -0.67938,0.282529 -0.68083,0.111355 -1.42275,0.177616 -1.86852,-0.112828 0.50542,0.371613 1.34729,0.965568 2.609,0.570764 0.0712,-0.09994 0.17833,-0.168965 0.30572,-0.208538 0.0854,-0.02577 0.1912,-0.03295 0.29118,-0.05172 0.0215,-0.01215 0.043,-0.02448 0.0631,-0.03736 0.0863,-0.148902 0.18994,-0.286946 0.31641,-0.406952 0.064,-0.06037 0.13381,-0.115772 0.20556,-0.166756 0.0317,-0.05835 0.0727,-0.112828 0.12517,-0.162523 0.0762,-0.07197 0.16475,-0.127921 0.24941,-0.189764 0.069,-0.107122 0.136,-0.219949 0.20207,-0.340139 0.24811,-0.454439 0.66298,-0.960598 0.69318,-1.481114 0.0166,-0.287499 -0.1905,-0.295413 -0.095,-0.545732"
       style="fill:#21201d;fill-opacity:1;fill-rule:evenodd;stroke:none;stroke-width:0.184057"
       id="path518" />
    <path
       d="m 437.81082,-33.686779 c -0.20267,-0.177616 -0.40824,-0.386154 -0.56579,-0.602606 -0.11137,-0.1524 -0.16033,-0.263203 -0.17046,-0.385417 -0.0208,-0.02724 -0.0408,-0.05595 -0.0596,-0.08614 -0.046,-0.07565 -0.0303,-0.173383 0.0275,-0.236699 0,-0.04233 0,-0.08614 0.008,-0.129393 0.0137,-0.07105 0.0332,-0.14154 0.0562,-0.211298 0,-0.05835 0.008,-0.117981 0.0275,-0.172647 0,-0.07896 0.018,-0.158105 0.0589,-0.234305 0.0661,-0.120742 0.17763,-0.204121 0.30262,-0.255289 0.10858,-0.119269 0.23004,-0.225655 0.36315,-0.310505 0.0258,-0.01583 0.0517,-0.0289 0.0791,-0.03884 0.0567,-0.03608 0.11653,-0.07123 0.18186,-0.105097 -0.41487,-0.233569 -0.77361,-0.759791 -0.73402,-1.26595 -0.2273,0.113564 -0.43071,0.303327 -0.59101,0.470084 -0.12661,0.131601 -0.24017,0.29118 -0.33719,0.467323 -0.008,0.102152 -0.0289,0.203568 -0.0675,0.304248 -0.0131,0.03295 -0.0317,0.06184 -0.0539,0.08559 -0.0236,0.06884 -0.0611,0.131417 -0.11377,0.182585 -0.0106,0.0381 -0.0208,0.0762 -0.0296,0.115036 -0.008,0.147247 -0.0208,0.293941 -0.0222,0.441371 0,0.05687 -0.0208,0.09921 -0.051,0.131602 0,0.210562 0.0279,0.416339 0.092,0.603894 0.10064,0.08209 0.1905,0.173382 0.24292,0.296333 0.0279,0.06608 0.0317,0.13289 0.005,0.189764 0.50024,0.764208 1.36956,1.207051 2.30421,1.214414 -0.35948,-0.121662 -0.64993,-0.203568 -0.95268,-0.468059"
       style="fill:#21201d;fill-opacity:1;fill-rule:nonzero;stroke:none;stroke-width:0.184057"
       id="path520" />
    <path
       d="m 439.67952,-36.730361 c -0.13307,0.21001 -0.46528,0.317132 -0.69885,0.397749 0.2897,0.04086 0.785,0.370877 0.93757,0.600949 0.23432,0.353023 0.51612,0.826788 0.47008,1.242391 -0.0747,0.679542 -0.23576,1.164718 -0.75847,1.616213 -0.25954,0.224366 -0.6779,0.190684 -1.0195,0.276086 0.40619,0.0289 0.6845,0.215716 1.04102,-0.0079 0.3394,-0.212035 0.83414,-0.534872 1.0469,-0.841881 0.65416,-0.941088 0.70164,-1.980095 -0.0848,-2.604052 -0.22363,-0.177615 -0.66372,-0.889367 -0.93391,-0.679541"
       style="fill:#21201d;fill-opacity:1;fill-rule:nonzero;stroke:none;stroke-width:0.184057"
       id="path522" />
  </g>
</svg>
