<?xml version="1.0" encoding="UTF-8" standalone="no"?>
<!-- Created with Inkscape (http://www.inkscape.org/) -->

<svg
   width="5.2240601mm"
   height="7.4234962mm"
   viewBox="0 0 5.2240601 7.4234962"
   version="1.1"
   id="svg1864"
   inkscape:version="1.1.2 (0a00cf5339, 2022-02-04)"
   sodipodi:docname="e8.svg"
   xmlns:inkscape="http://www.inkscape.org/namespaces/inkscape"
   xmlns:sodipodi="http://sodipodi.sourceforge.net/DTD/sodipodi-0.dtd"
   xmlns="http://www.w3.org/2000/svg"
   xmlns:svg="http://www.w3.org/2000/svg">
  <sodipodi:namedview
     id="namedview1866"
     pagecolor="#ffffff"
     bordercolor="#666666"
     borderopacity="1.0"
     inkscape:pageshadow="2"
     inkscape:pageopacity="0.0"
     inkscape:pagecheckerboard="0"
     inkscape:document-units="mm"
     showgrid="false"
     inkscape:zoom="0.64052329"
     inkscape:cx="-800.90765"
     inkscape:cy="756.41278"
     inkscape:window-width="2560"
     inkscape:window-height="1376"
     inkscape:window-x="0"
     inkscape:window-y="0"
     inkscape:window-maximized="1"
     inkscape:current-layer="layer1" />
  <defs
     id="defs1861" />
  <g
     inkscape:label="Layer 1"
     inkscape:groupmode="layer"
     id="layer1"
     transform="translate(-316.69395,51.628303)">
    <path
       d="m 319.04563,-49.443344 c -0.22565,0.01362 -0.3694,0.188292 -0.58953,0.21995 -0.18829,0.332224 -0.36958,0.674388 -0.6707,0.928204 -0.0626,0.02227 -0.11301,0.01233 -0.1697,-0.04749 0.15589,-0.378791 0.53928,-0.632607 0.64567,-1.066248 -0.0749,-0.224919 -0.27608,-0.365907 -0.45738,-0.523277 -0.40768,-0.35155 -0.75279,-0.758502 -1.11004,-1.200793 0.14448,-0.08835 0.20062,-0.226392 0.29486,-0.314187 0.0755,-0.02503 0.13804,-0.03019 0.17466,0.01362 0.20854,0.240932 0.47744,0.425726 0.67218,0.692426 0.19418,0.269645 0.44505,0.49622 0.67659,0.737704 0.0316,0.03387 0.0883,0.04896 0.15092,0.08411 0.16252,-0.351551 0.43861,-0.58015 0.68304,-0.828261 0.29559,0.08485 0.38246,0.373086 0.6464,0.511866 0.50837,-0.464378 1.00366,-0.975507 1.54938,-1.392583 0.18112,0.0094 0.17541,0.191237 0.30701,0.2286 -0.0123,0.04031 -0.0245,0.07841 -0.0374,0.115773 -0.0633,0.157369 -0.18203,0.263939 -0.31419,0.360937 -0.40124,0.298358 -0.75205,0.655615 -1.13452,0.997226 0.21921,0.539842 0.60739,0.944033 0.97844,1.363869 -0.14448,0.08485 -0.25086,0.04104 -0.3451,-0.05319 -0.18259,-0.181113 -0.37032,-0.360202 -0.49529,-0.589538 -0.10068,-0.178352 -0.23873,-0.316395 -0.36388,-0.454439 -0.18259,-0.01215 -0.22566,0.16602 -0.35799,0.206329 -0.0878,-0.04675 -0.0366,-0.106385 0,-0.171726 -0.0366,-0.06056 -0.0814,-0.125159 -0.12516,-0.197862 0.0195,-0.05595 0.0438,-0.116325 0.0683,-0.178168 -0.0683,-0.157554 -0.20062,-0.244429 -0.37602,-0.291916 -0.18185,0.150191 -0.34437,0.331304 -0.48886,0.504687 -0.0252,0.169701 0.16326,0.191236 0.18829,0.344372"
       style="fill:#21201d;fill-opacity:1;fill-rule:evenodd;stroke:none;stroke-width:0.184057"
       id="path492" />
    <path
       d="m 318.95158,-48.928534 c -0.006,0.160315 0.069,0.304064 0.2135,0.442107 -0.63996,0.60187 -1.19857,1.2827 -1.96921,1.758674 -0.10712,-0.09424 -0.21369,-0.1905 -0.30701,-0.278296 -0.0376,-0.148166 0.0431,-0.213507 0.12497,-0.288971 0.48904,-0.420572 0.9779,-0.840592 1.46104,-1.266134 0.10713,-0.09497 0.19473,-0.216452 0.29468,-0.327071 0.0376,-0.04031 0.0878,-0.05908 0.18203,-0.04031"
       style="fill:#21201d;fill-opacity:1;fill-rule:evenodd;stroke:none;stroke-width:0.184057"
       id="path494" />
    <path
       d="m 319.58492,-48.909944 c 0.21994,-0.01583 0.35154,-0.07178 0.47026,-0.219213 0.63904,0.674388 1.37324,1.225826 1.86283,2.028319 -0.13878,0.0473 -0.15755,0.20412 -0.3013,0.291731 -0.40051,-0.265963 -0.65211,-0.689481 -0.99077,-1.027963 -0.3256,-0.332225 -0.65285,-0.670891 -1.04102,-1.072874"
       style="fill:#21201d;fill-opacity:1;fill-rule:evenodd;stroke:none;stroke-width:0.184057"
       id="path496" />
    <path
       d="m 318.7631,-47.730685 c 0.0576,-0.09074 0.10068,-0.159762 0.22014,-0.129392 0.0307,0.217004 0.0747,0.439162 0.0933,0.665737 0.0381,0.580151 -0.17467,1.103611 -0.38173,1.627624 -0.2078,0.527142 -0.58953,0.918265 -0.90942,1.323009 -0.12589,0.05319 -0.22013,0.04031 -0.3013,0.02798 -0.0129,-0.0438 -0.0309,-0.07546 -0.0188,-0.09056 0.044,-0.08191 0.069,-0.191973 0.14393,-0.238723 0.40768,-0.278848 0.59671,-0.727581 0.82826,-1.125883 0.26301,-0.457936 0.41338,-0.981396 0.36958,-1.536515 -0.0123,-0.181849 0.0438,-0.366644 -0.044,-0.523277"
       style="fill:#21201d;fill-opacity:1;fill-rule:evenodd;stroke:none;stroke-width:0.184057"
       id="path498" />
    <path
       d="m 320.07451,-48.113157 c 0.26964,0.185346 0.23154,0.439162 0.21866,0.680094 -0.0245,0.307009 0.0639,1.044713 0.12,1.345095 0.11872,0.63997 0.53928,1.123122 0.83396,1.689652 -0.0884,0.08264 -0.20707,0 -0.27609,0.02301 -0.95322,-1.100666 -0.99132,-2.393489 -0.89653,-3.737848"
       style="fill:#21201d;fill-opacity:1;fill-rule:evenodd;stroke:none;stroke-width:0.184057"
       id="path500" />
    <path
       d="m 319.79198,-44.372364 c -0.26964,0.0094 -0.51407,0.02503 -0.77138,-0.01233 -0.026,-0.301118 0.0186,-0.545731 0.27608,-0.715249 0.13805,-0.0094 0.26946,-0.04105 0.42628,0.04381 -0.0129,0.21001 0.12516,0.41413 0.069,0.683775"
       style="fill:#21201d;fill-opacity:1;fill-rule:evenodd;stroke:none;stroke-width:0.184057"
       id="path502" />
    <path
       d="m 319.16508,-49.013384 c -0.0626,0 -0.0942,-0.03736 -0.14448,-0.118718 0.0626,-0.109882 0.15737,-0.213507 0.26946,-0.288971 0.16252,-0.04307 0.25749,0.110067 0.40124,0.08191 -0.0309,0.172646 -0.11282,0.288419 -0.22492,0.388362 -0.10712,0 -0.23945,0.103441 -0.307,-0.06828 0.14375,0.0092 0.26872,-0.0094 0.31842,-0.176144 -0.0114,-0.05982 -0.0438,-0.09718 -0.10639,-0.118717 -0.1316,0.0497 -0.21203,0.143749 -0.20633,0.300567"
       style="fill:#21201d;fill-opacity:1;fill-rule:evenodd;stroke:none;stroke-width:0.184057"
       id="path504" />
  </g>
</svg>
