<?xml version="1.0" encoding="UTF-8" standalone="no"?>
<!-- Created with Inkscape (http://www.inkscape.org/) -->

<svg
   width="5.8333564mm"
   height="6.7736573mm"
   viewBox="0 0 5.8333564 6.7736573"
   version="1.1"
   id="svg1874"
   inkscape:version="1.1.2 (0a00cf5339, 2022-02-04)"
   sodipodi:docname="m1.svg"
   xmlns:inkscape="http://www.inkscape.org/namespaces/inkscape"
   xmlns:sodipodi="http://sodipodi.sourceforge.net/DTD/sodipodi-0.dtd"
   xmlns="http://www.w3.org/2000/svg"
   xmlns:svg="http://www.w3.org/2000/svg">
  <sodipodi:namedview
     id="namedview1876"
     pagecolor="#ffffff"
     bordercolor="#666666"
     borderopacity="1.0"
     inkscape:pageshadow="2"
     inkscape:pageopacity="0.0"
     inkscape:pagecheckerboard="0"
     inkscape:document-units="mm"
     showgrid="false"
     inkscape:zoom="0.66368547"
     inkscape:cx="-1063.7569"
     inkscape:cy="785.76378"
     inkscape:window-width="2560"
     inkscape:window-height="1376"
     inkscape:window-x="0"
     inkscape:window-y="0"
     inkscape:window-maximized="1"
     inkscape:current-layer="layer1" />
  <defs
     id="defs1871" />
  <g
     inkscape:label="Layer 1"
     inkscape:groupmode="layer"
     id="layer1"
     transform="translate(-382.58547,64.780105)">
    <path
       d="m 385.04413,-64.735829 c -0.0821,-0.08338 -0.2308,-0.03019 -0.32577,0.0072 -0.1178,0.04675 -0.17541,0.08191 -0.0381,0.140068 0.0683,0.0289 0.1662,-0.02797 0.21718,0.04031 0.0488,0.06479 0.0144,0.180561 0.0173,0.260258 0.004,0.09921 0.0388,0.201359 0.0466,0.3048 0.009,0.133073 -0.0228,0.253815 -0.0473,0.384681 -0.0532,0.287682 -0.0641,0.55291 -0.0762,0.846298 -0.0101,0.22363 0.0223,0.702365 -0.0813,0.893049 -0.24866,0.0243 -0.51554,0.401062 -0.67659,0.60463 -0.15369,0.193261 -0.26596,0.449285 -0.40033,0.664265 -0.1754,0.280505 -0.34381,0.54426 -0.49548,0.841881 -0.13583,0.266148 -0.34068,0.379712 -0.4421,0.668682 -0.0834,0.236515 -0.18406,0.473766 -0.14964,0.722612 0.0309,0.217741 0.0245,0.202096 0.17688,0.204856 0.47248,0.0094 0.93464,0.05393 1.40711,0.08191 0.19694,0.0116 0.39609,0.05043 0.59101,0.06129 0.25455,0.01362 0.5148,-0.03166 0.77432,-0.01583 0.13804,0.0085 0.28253,0.03589 0.41836,-0.0087 0.12148,-0.03957 0.22934,-0.115036 0.3602,-0.12884 0.26688,-0.02871 0.54296,-0.03019 0.80672,-0.02356 0.2516,0.0064 0.50688,-0.06258 0.75996,-0.05614 0.13657,0.0035 0.27314,0.02227 0.4099,0.02871 0.0545,0.0029 0.097,-0.05172 0.0999,-0.118533 0.005,-0.09497 0.0431,-0.218661 0.006,-0.284001 -0.1546,-0.269645 -0.0504,-0.434377 -0.2516,-0.654326 -0.21572,-0.235042 -0.351,-0.435666 -0.52272,-0.695923 -0.16473,-0.251608 -0.22805,-0.462354 -0.53634,-0.999435 -0.0871,-0.150927 -0.30701,-0.199887 -0.40345,-0.33793 -0.0611,-0.08632 -0.12148,-0.219949 -0.20062,-0.284738 -0.11633,-0.09553 -0.19124,-0.191972 -0.26302,-0.334249 -0.0712,-0.140252 -0.0497,-0.395541 -0.0784,-0.564506 -0.049,-0.281792 -0.074,-0.554198 -0.0727,-0.843353 10e-4,-0.24222 0.0324,-0.616042 0.0224,-0.856974 -0.004,-0.110618 -0.0138,-0.26173 0.079,-0.335721 0.0697,-0.05687 0.17835,0.02227 0.24313,-0.04454 0.11062,-0.1143 -0.021,-0.151848 -0.11577,-0.162523 -0.27332,-0.03166 -0.42075,0.0554 -0.43639,0.433456 -0.007,0.181297 0.009,0.491067 0,0.679542 -0.0166,0.31842 -0.0282,0.676597 0.0302,0.943297 0.0611,0.283265 -0.072,0.669234 0.0532,0.920289 0.0646,0.129393 0.19768,0.174671 0.28897,0.268173 0.15608,0.159578 0.29835,0.35652 0.43934,0.534136 0.14798,0.188475 0.26522,0.370324 0.39461,0.574445 0.0762,0.121478 0.18977,0.201359 0.26173,0.325782 0.0554,0.09479 0.0856,0.229336 0.13528,0.324126 0.10989,0.212955 0.32413,0.35744 0.42628,0.575181 0.0547,0.118717 0.0769,0.257497 0.15884,0.36241 0.0445,0.05835 0.10859,0.08927 0.12295,0.157554 -0.25529,0.117797 -0.63702,0.0819 -0.90869,0.06755 -0.21718,-0.01086 -0.46235,-0.05835 -0.67309,-0.02301 -0.22934,0.0381 -0.43989,0.10344 -0.65929,0.183321 -0.3048,0.110067 -0.66352,0.0554 -0.98212,0.06829 -0.36222,0.01509 -0.72905,-0.06902 -1.09275,-0.08982 -0.10417,-0.0064 -0.68873,0.137307 -0.66149,-0.116509 -0.12148,-0.04105 -0.25584,-0.03515 -0.38026,-0.04749 -0.0202,-0.150191 0.16528,-0.355784 0.23651,-0.471556 0.16823,-0.269645 0.26817,-0.611993 0.42351,-0.900964 0.16897,-0.314187 0.33793,-0.524749 0.5888,-0.746355 0.0503,-0.04454 0.007,-0.08761 0.041,-0.1524 0.0171,-0.03295 0.11209,-0.08117 0.13013,-0.115772 0.0769,-0.143749 0.21424,-0.230073 0.32339,-0.334986 0.10859,-0.104176 0.35099,-0.258785 0.40989,-0.390386 0.0396,-0.08632 0.0331,-0.204857 0.0295,-0.305537 -0.009,-0.242404 0.002,-0.483888 0.0136,-0.727581 0.007,-0.145221 0.0361,-0.244429 0.0712,-0.381184 0.0453,-0.178904 0.0136,-0.287498 0.0109,-0.462905 -0.002,-0.1143 0.16032,-1.289878 -0.072,-1.156804 0.0425,0.002 0.0856,0.0042 0.018,0"
       style="fill:#21201d;fill-opacity:1;fill-rule:nonzero;stroke:none;stroke-width:0.184057"
       id="path576" />
    <path
       d="m 383.35376,-59.918849 c 0.23578,0.0066 0.35523,-0.134362 0.56156,-0.176144 0.16896,-0.03442 0.24866,0.143934 0.42922,0.132338 0.072,-0.005 0.16454,-0.07252 0.2343,-0.06184 0.0907,0.01436 0.11872,0.143197 0.21295,0.165467 0.0703,0.01712 0.15958,-0.02374 0.23357,-0.0289 0.0849,-0.0057 0.19197,0.04031 0.2667,0.0289 0.11577,-0.01804 0.13601,-0.114299 0.23228,-0.176879 0.097,-0.06332 0.26817,-0.107858 0.38099,-0.115036 0.30701,-0.01951 0.57315,0.05319 0.87225,-0.02374 0.2343,-0.05964 0.52621,0.0079 0.66278,0.220685 -0.13013,0.130129 -0.40548,-0.02797 -0.568,-0.0416 -0.12644,-0.0116 -0.25657,0.0042 -0.3832,-0.0015 -0.12148,-0.0052 -0.24516,-0.01804 -0.36885,-0.01012 -0.17964,0.01012 -0.23081,0.07399 -0.36149,0.135099 -0.11227,0.05117 -0.24958,0.0324 -0.36958,0.08062 -0.14173,0.05669 -0.22289,0.07325 -0.3983,0.07325 -0.33369,7.41e-4 -0.6615,-0.002 -0.98359,-0.04601 -0.1294,-0.01712 -0.2402,-0.08338 -0.37382,-0.07399 -0.13308,0.0086 -0.3013,0.122951 -0.41928,0.102889 -0.005,-0.06258 0.006,-0.123688 0.13951,-0.183506"
       style="fill:#21201d;fill-opacity:1;fill-rule:nonzero;stroke:none;stroke-width:0.184057"
       id="path578" />
    <path
       d="m 386.97028,-60.552193 c -0.21001,-0.01435 -0.39057,-0.158105 -0.60978,-0.120005 -0.0856,0.01509 -0.35725,0.09479 -0.37897,0.163811 0.21443,0.01307 0.42425,0.04896 0.64567,0.04896 0.10142,0 0.19786,0.005 0.29633,0.01657 0.0631,0.0079 0.28105,0.04105 0.23504,0.02945"
       style="fill:#21201d;fill-opacity:1;fill-rule:nonzero;stroke:none;stroke-width:0.184057"
       id="path580" />
    <path
       d="m 386.92132,-60.841163 c -0.27755,0.02301 -0.63278,0.01509 -0.89727,-0.03313 0.0381,-0.150191 0.62413,-0.227127 0.89727,0.03313"
       style="fill:#21201d;fill-opacity:1;fill-rule:nonzero;stroke:none;stroke-width:0.184057"
       id="path582" />
    <path
       d="m 386.45106,-61.199892 c -0.15387,-0.07841 -0.33425,-0.03884 -0.501,-0.04896 -0.0403,-0.191236 0.54057,-0.265964 0.57941,-0.01288"
       style="fill:#21201d;fill-opacity:1;fill-rule:nonzero;stroke:none;stroke-width:0.184057"
       id="path584" />
    <path
       d="m 387.56773,-59.57871 c -0.0913,7.41e-4 -1.23023,-0.188291 -1.12385,0.06976 0.0584,0.142276 0.63352,0.104176 0.76144,0.115036 0.24148,0.0208 0.34584,0.01657 0.54573,-0.09626 -0.0166,-0.06111 -0.0482,-0.122215 -0.18332,-0.08853"
       style="fill:#21201d;fill-opacity:1;fill-rule:nonzero;stroke:none;stroke-width:0.184057"
       id="path586" />
    <path
       d="m 388.181,-58.976841 c -0.25234,7.41e-4 -0.52198,-0.159762 -0.7953,-0.169701 -0.22713,-0.0087 -0.45941,-0.02743 -0.67512,0.01859 -0.023,0.0289 -0.0401,0.08338 -0.0388,0.117245 0.23449,0.08264 0.52861,0.01951 0.77377,0.08135 0.25805,0.06534 0.45646,0.122214 0.73549,-0.04749"
       style="fill:#21201d;fill-opacity:1;fill-rule:nonzero;stroke:none;stroke-width:0.184057"
       id="path588" />
    <path
       d="m 387.36343,-60.196224 c -0.20412,0.0072 -0.41615,-0.06258 -0.61825,-0.04528 -0.13455,0.01141 -0.25528,0.08485 -0.38762,0.125712 0.0957,0.110803 0.25897,0.05172 0.39259,0.07123 0.12516,0.01859 0.23375,0.08485 0.36167,0.09626 0.12939,0.01233 0.24958,-0.02227 0.37677,-0.03221"
       style="fill:#21201d;fill-opacity:1;fill-rule:nonzero;stroke:none;stroke-width:0.184057"
       id="path590" />
  </g>
</svg>
