<?xml version="1.0" encoding="UTF-8" standalone="no"?>
<!-- Created with Inkscape (http://www.inkscape.org/) -->

<svg
   width="6.3148026mm"
   height="7.7171831mm"
   viewBox="0 0 6.3148026 7.7171831"
   version="1.1"
   id="svg2044"
   inkscape:version="1.1.2 (0a00cf5339, 2022-02-04)"
   sodipodi:docname="m2.svg"
   xmlns:inkscape="http://www.inkscape.org/namespaces/inkscape"
   xmlns:sodipodi="http://sodipodi.sourceforge.net/DTD/sodipodi-0.dtd"
   xmlns="http://www.w3.org/2000/svg"
   xmlns:svg="http://www.w3.org/2000/svg">
  <sodipodi:namedview
     id="namedview2046"
     pagecolor="#ffffff"
     bordercolor="#666666"
     borderopacity="1.0"
     inkscape:pageshadow="2"
     inkscape:pageopacity="0.0"
     inkscape:pagecheckerboard="0"
     inkscape:document-units="mm"
     showgrid="false"
     inkscape:zoom="0.64052329"
     inkscape:cx="-1361.3869"
     inkscape:cy="867.25965"
     inkscape:window-width="2560"
     inkscape:window-height="1376"
     inkscape:window-x="0"
     inkscape:window-y="0"
     inkscape:window-maximized="1"
     inkscape:current-layer="layer1" />
  <defs
     id="defs2041" />
  <g
     inkscape:label="Layer 1"
     inkscape:groupmode="layer"
     id="layer1"
     transform="translate(-465.26916,81.103234)">
    <path
       d="m 470.78343,-76.059043 c -0.006,0.01141 -0.0138,0.02153 -0.0215,0.0324 -0.0194,0.02503 -0.0431,0.04601 -0.0582,0.07399 -0.0159,0.02945 -0.0208,0.06608 -0.044,0.09056 -0.0215,0.02227 -0.0532,0.03092 -0.0834,0.03736 -0.26373,0.06184 -0.53706,0.08411 -0.80673,0.05982 -0.18827,-0.01657 -0.40104,-0.07638 -0.4802,-0.247374 -0.0265,-0.05835 -0.043,-0.140252 -0.051,-0.203568 -0.0194,-0.163075 0.15536,-0.288235 0.30056,-0.288235 0.17247,0 0.27813,0.102889 0.39388,0.425542 -0.018,-0.1143 0.0366,-0.229336 0.0293,-0.344372 -0.007,-0.123687 -0.0848,-0.234306 -0.1826,-0.311242 -0.0977,-0.0762 -0.11998,-0.08411 -0.23502,-0.130129 -0.0913,-0.03663 -0.35525,-0.05393 -0.42206,0.0173 -0.10785,0.112091 -0.15166,0.134362 -0.22857,0.319157 0.012,-0.0589 0,-0.199151 0,-0.236515 0.004,-0.0935 0.0159,-0.188475 0.0106,-0.282529 -0.0339,-0.621932 -0.16969,-0.788136 0.14668,-0.353023 0.0286,0.03884 0.0792,0.05319 0.11356,0.08559 0.0935,0.08835 0.20708,0.168965 0.33591,0.168229 0.0374,0 0.074,-0.0072 0.11138,7.41e-4 0.10858,0.02153 0.16675,0.158842 0.27608,0.175407 0.0438,0.0064 0.092,-0.0072 0.13011,0.01436 0.0268,0.01436 0.0425,0.04233 0.0582,0.06755 0.0611,0.09553 0.14891,0.173199 0.25178,0.222158 0.0718,0.0346 0.15021,0.05393 0.22288,0.0878 0.10273,0.04804 0.19403,0.126448 0.23929,0.229336 0.041,0.09203 0.041,0.203384 -0.007,0.289707 m -2.60625,-3.080209 c -0.0293,0.01012 -0.0618,0.0074 -0.0913,-0.005 -0.0173,-7.41e-4 -0.0342,-7.41e-4 -0.0517,-7.41e-4 -0.0236,0 -0.0445,-0.005 -0.0618,-0.01362 -0.0885,0.06479 -0.18055,0.135099 -0.17391,0.197679 0.0113,0.0116 0.0222,0.02227 0.0335,0.03313 0,0.0022 0.004,0.0042 0.005,0.0057 0.10195,0.03957 0.16231,0.13381 0.20337,0.230808 0.0366,0.08632 0.0819,0.213507 0.0346,0.301303 -0.0254,-0.04675 -0.0598,-0.08338 -0.10713,-0.110066 -0.17558,-0.09994 -0.27609,-0.248663 -0.43068,-0.373822 -0.0525,-0.04252 -0.0403,-0.126632 0,-0.169702 0.004,-0.005 0.01,-0.0094 0.0145,-0.01362 0.1524,-0.156082 0.30258,-0.305537 0.42626,-0.478919 0.004,-0.005 0.008,-0.0099 0.0131,-0.01509 0.0152,0.0094 0.0314,0.02301 0.0473,0.03736 0.031,-0.0035 0.0626,0.0044 0.0893,0.01878 0.0152,-0.0057 0.0321,-0.0094 0.051,-0.0094 0.12443,0 0.24589,0.0057 0.36813,0.02595 0.0194,0.0035 0.0359,0.01141 0.0504,0.02301 0.0963,-0.04528 0.20687,-0.06405 0.3048,-0.03019 0.018,-0.0064 0.0374,-0.01086 0.0574,-0.0086 0.0152,-0.0094 0.03,-0.01804 0.0467,-0.02871 0.0906,0.106386 0.16546,0.239276 0.25034,0.309034 0.0321,0.02742 0.0955,0.05835 0.13066,0.08411 0.0159,0.01233 0.0166,0.04325 0.0201,0.07197 0.012,0.09497 0.11854,0.161787 0.0906,0.263202 -0.0187,0.07031 -0.0963,0.104914 -0.16602,0.126448 -0.11871,0.03663 -0.16178,0.07841 -0.22143,0.180561 -0.0504,0.08761 -0.113,0.183322 -0.20208,0.06902 -0.0303,-0.0381 -0.0353,-0.08632 -0.0254,-0.138044 0.0236,-0.124423 0.13159,-0.268908 0.17466,-0.346581 0.007,-0.01233 0.0166,-0.02227 0.0275,-0.03092 -0.0576,-0.06828 -0.10139,-0.145958 -0.15092,-0.218661 -0.25177,0.0878 -0.49971,0.0324 -0.75646,0.01362 m -0.0293,2.635157 c -0.049,-0.03589 -0.12516,-0.20412 -0.20704,-0.285473 -0.077,-0.0762 -0.12369,-0.05669 -0.27464,-0.0762 -0.0655,-0.0087 -0.11575,0.04178 -0.16471,0.06681 -0.20063,0.102889 -0.60685,0.286947 -0.53855,0.726293 0.0254,-0.105833 0.18055,-0.340139 0.27333,-0.358177 0.0747,-0.01583 0.24073,0.09203 0.30056,0.146694 0.14373,0.133075 0.0525,0.376031 -0.11578,0.426463 -0.14375,0.0416 -0.26539,0.130865 -0.40767,0.170253 -0.16531,0.04528 -0.32653,0.02669 -0.47893,-0.04878 -0.006,-0.0029 -0.01,-0.0064 -0.0145,-0.01013 -0.0215,0.0079 -0.046,0.01013 -0.0732,0.0022 -0.11578,-0.03166 -0.24811,-0.01509 -0.33443,-0.117982 -0.0138,-0.01657 -0.0236,-0.03515 -0.0286,-0.0554 -0.012,-0.01215 -0.0236,-0.02724 -0.031,-0.04601 -0.097,-0.24443 0.0512,-0.565795 0.32928,-0.577942 0.0116,-7.41e-4 0.0229,7.4e-4 0.0332,0.0028 0.007,-0.0028 0.0138,-0.0057 0.0222,-0.0079 0.13733,-0.03939 0.17191,-0.09056 0.31199,-0.119269 0.0244,-0.005 0.16546,-0.120006 0.18405,-0.113564 0.17117,-0.188475 0.35599,-0.17688 0.37825,-0.184058 0.28621,-0.09203 0.25012,-0.124423 0.35228,-0.222158 0.0109,-0.01086 0.0194,-0.02375 0.0254,-0.03884 0.0335,-0.08706 0.36241,-0.506159 0.3968,-0.436401 0.0403,0.0797 0.0747,0.407688 0.0582,0.467323 -0.008,0.03092 0.0201,0.14743 0.005,0.171726 0,0.101416 0,0.416339 0,0.517755 m 3.40008,0.0208 c -0.0229,-0.05466 -0.0258,-0.116508 -0.0254,-0.178904 -0.0863,-0.07841 -0.16969,-0.159026 -0.26099,-0.226575 -0.0258,0.0037 -0.0525,-7.41e-4 -0.074,-0.01509 -0.0212,-0.01362 -0.0418,-0.02724 -0.0626,-0.03884 -0.004,-0.0015 -0.0109,-0.0057 -0.0173,-0.01012 -0.0113,-0.005 -0.025,-0.0079 -0.0366,-0.01141 -0.0325,-0.0087 -0.0561,-0.03019 -0.0705,-0.05614 -0.006,-0.0022 -0.0113,-0.0028 -0.0173,-0.0042 -0.006,0.0072 -0.0145,0.01362 -0.0229,0.01932 -0.0524,0.03387 -0.13656,0.01307 -0.16453,-0.04307 -0.0123,-0.02448 -0.0254,-0.04896 -0.0374,-0.07344 -0.0388,0.0059 -0.0799,-0.0035 -0.10361,-0.03295 -0.0102,-0.01307 -0.018,-0.02595 -0.0254,-0.03884 -0.007,7.41e-4 -0.0138,0.0015 -0.0208,0.0015 -0.14097,-0.0059 -0.24737,-0.08706 -0.38026,-0.120926 -0.044,-0.01068 -0.072,-0.0473 -0.0821,-0.08761 -0.0159,-0.01509 -0.0257,-0.0324 -0.031,-0.05043 -0.0438,-0.01638 -0.0841,-0.03442 -0.11282,-0.05743 -0.10068,-0.07988 -0.0943,-0.21866 -0.0438,-0.327807 0.018,-0.03884 0.0804,-0.08209 0.0848,-0.128104 0.004,-0.03166 -0.005,-0.05466 -0.0166,-0.07178 -0.1301,-0.16694 -0.27534,-0.187003 -0.34287,0.06534 -0.0116,0.04178 0.10122,0.196942 0.0891,0.238723 -0.0265,0.09276 -0.11356,0.05466 -0.1905,0.02301 -0.10068,-0.04104 -0.16401,-0.16602 -0.21205,-0.255288 -0.0539,-0.09774 -0.0454,-0.161051 0.0229,-0.245165 0.0683,-0.08485 0.12936,-0.163076 0.22712,-0.212035 0.0215,-0.02448 0.0475,-0.04601 0.0799,-0.05964 0.0401,-0.0173 0.0804,-0.01951 0.1143,-0.0022 0.1143,-0.01583 0.22712,0.0072 0.30904,0.08908 0.007,0.0059 0.0152,0.01233 0.0229,0.01877 0.0116,0.01141 0.0201,0.02448 0.0261,0.03884 0.0898,0.03239 0.16105,0.09497 0.19269,0.186267 0.0639,0.188291 -0.0784,0.159578 -0.2063,0.253631 -0.15681,0.115773 0.007,0.162524 0.12368,0.207249 0.18038,0.06829 0.50818,0.118534 0.61457,0.289708 0.0633,0.0072 0.0915,0.05816 0.15258,0.05098 0.0173,0.118717 0.12644,0.06608 0.2098,0.106385 0.0841,0.03957 0.141,0.04675 0.20634,0.09847 -0.0453,-0.130865 -0.18405,-0.207801 -0.26025,-0.321365 -0.0848,-0.125711 -0.12223,-0.256577 -0.22641,-0.375294 -0.14594,-0.164548 -0.32501,-0.292652 -0.46087,-0.468796 -0.17043,-0.220685 -0.35376,-0.396828 -0.60607,-0.523276 -0.16676,-0.156081 -0.31493,-0.32928 -0.49181,-0.473213 -0.28402,-0.230809 -0.45371,-0.60463 -0.62911,-0.915872 -0.0524,-0.09571 -0.13158,-0.197126 -0.1675,-0.299831 -0.0618,-0.176143 -0.10435,-0.39554 -0.13952,-0.581623 0.0145,0.0762 -0.0697,0.171726 -0.0913,0.242221 -0.0317,0.09921 -0.0359,0.1905 -0.0755,0.28897 -0.0878,0.21498 -0.16545,0.414131 -0.29411,0.606103 -0.0646,0.102152 -0.12643,0.205777 -0.19343,0.306273 -0.14668,0.225102 -0.35503,0.378239 -0.52623,0.579598 -0.0546,0.0646 -0.0826,0.158106 -0.14817,0.212771 -0.0962,0.08117 -0.2286,0.120742 -0.32632,0.205593 -0.22363,0.191972 -0.48884,0.354495 -0.65783,0.598188 -0.069,0.09921 -0.16693,0.168229 -0.23798,0.271853 -0.0251,0.03663 -0.0497,0.09774 -0.0769,0.127921 -0.0388,0.04252 -0.0697,0.03589 -0.10509,0.06332 -0.0631,0.04749 -0.10785,0.112091 -0.14651,0.18553 -0.0396,0.07473 -0.13674,0.207065 -0.13233,0.288235 0.0539,-0.03516 0.0928,-0.09847 0.14947,-0.132338 0.11575,-0.06829 0.24166,-0.06976 0.36386,-0.115036 0.0819,-0.02945 0.14947,-0.08982 0.23008,-0.121479 0.0797,-0.03239 0.18627,-0.09276 0.27093,-0.107857 0.0927,-0.01583 0.16327,0.01583 0.25527,-0.0208 0.11286,-0.04454 0.15681,-0.097 0.072,-0.196206 -0.069,-0.08135 -0.17688,-0.06332 -0.23872,-0.120926 -0.14743,-0.136571 0.095,-0.364435 0.22934,-0.425542 0.004,-0.0015 0.004,-0.0015 0.006,-0.0029 0.0109,-0.04749 0.0482,-0.08908 0.11225,-0.08908 0.004,0 0.008,7.41e-4 0.0113,0.0015 0.004,-0.0022 0.004,-0.0029 0.005,-0.0044 0.0526,-0.03313 0.11574,-0.04454 0.17688,-0.04528 0.0109,-7.4e-4 0.0201,7.41e-4 0.0293,0.0037 0.01,-0.0029 0.0187,-0.0044 0.0289,-0.0037 0.17046,0.0037 0.30261,0.177616 0.40107,0.299831 0.10291,0.129392 0.0685,0.534136 -0.16676,0.491802 -0.0272,-0.005 -0.051,-0.01951 -0.0784,-0.02153 -0.0208,-0.0022 0.004,-0.193445 0,-0.214244 -0.0475,-0.290443 -0.17413,-0.232281 -0.23227,-0.162523 h -0.004 c -0.007,0 -0.0159,-7.41e-4 -0.0229,0 -0.007,0 -0.0145,7.41e-4 -0.0208,0.0015 -0.0661,0.09847 -0.10491,0.148719 -0.0547,0.278111 0.0286,0.0727 0.10361,0.205777 0.0742,0.299831 0.0394,0.04601 0.0314,0.115772 -0.006,0.159578 -0.004,0.0052 -0.006,0.0094 -0.01,0.01454 -0.0109,0.01565 -0.0222,0.03148 -0.0353,0.04601 -0.0173,0.01859 -0.0396,0.02945 -0.0626,0.03295 -0.0194,0.05319 -0.0711,0.09718 -0.14154,0.08485 -0.16894,-0.02945 -0.29189,0.04822 -0.43067,0.133074 -0.0468,0.02871 -0.092,0.0208 -0.12517,-0.0044 -0.0194,0.0289 -0.0502,0.0497 -0.0948,0.05043 -0.049,0 -0.0928,0.0035 -0.13381,0.01068 -0.051,0.04749 -0.12001,0.07417 -0.19416,0.09 -0.018,0.01583 -0.0353,0.03221 -0.0525,0.05246 -0.0517,0.06037 -0.12076,0.04454 -0.16309,0 -0.004,7.41e-4 -0.004,0.0029 -0.006,0.0042 -0.0676,0.04031 -0.13656,0.0762 -0.20412,0.116509 -0.0137,0.0079 -0.0279,0.0116 -0.0431,0.01362 0,0.0044 0,0.0087 0,0.01307 -0.004,0.102704 -0.0286,0.208353 -0.0891,0.293204 -0.004,0.0044 -0.007,0.0087 -0.0109,0.01307 0,0.01141 0.004,0.02374 0.004,0.03515 0.0109,0.130865 0.0683,0.265964 0.15388,0.371061 0.0935,0.113564 0.15663,0.259521 0.28621,0.333513 0.13656,0.07915 0.2976,0.115036 0.43271,0.186266 0.40474,0.213507 1.01011,0.225839 1.42568,0.03442 0.0885,-0.04086 0.15537,-0.122214 0.24518,-0.150927 0.0374,-0.01215 0.092,0.0029 0.1294,-0.0079 0.0685,-0.01859 0.0749,-0.04031 0.12221,-0.107858 0.0159,-0.02153 0.0317,-0.04233 0.0475,-0.06258 -0.004,0.365355 -0.0138,0.626349 -0.0366,0.665921 -0.13363,0.227864 -0.21276,0.309034 -0.29908,0.545548 -0.10788,0.295597 -0.32636,0.471741 -0.57591,0.636289 -0.18408,0.122398 -0.31493,0.358176 -0.57002,0.35247 0.013,0.04012 0.0473,0.169518 0.0811,0.189764 0.0229,0.01362 0.1791,-0.0208 0.21794,-0.02025 0.0473,0.0015 0.0977,0.01583 0.14725,0.0094 0.0519,-0.0079 0.0935,-0.04454 0.13804,-0.05246 0.0453,-0.0087 0.15311,0.0087 0.18772,0.03736 -0.0366,-0.102704 -0.0569,-0.163259 0.0272,-0.245165 0.12093,-0.117797 0.24592,-0.186267 0.38248,-0.290444 0.0806,-0.06111 0.0799,-0.06037 0.0979,-0.146694 0.0159,-0.07252 0.0208,-0.12792 0.0559,-0.199151 0,-0.0015 0.004,-0.0035 0.004,-0.0042 0.10859,-0.05264 0.16105,0.120742 0.17173,0.188291 0.0219,0.137308 -0.0668,0.199887 -0.009,0.344373 0.0222,0.05614 0.0468,0.112275 0.0475,0.172646 0,0.05098 -0.0219,0.09994 -0.0641,0.131602 0.28402,-0.04822 0.57023,-0.03534 0.85348,0.03019 0.0208,-0.07988 -0.0863,-0.166941 -0.11575,-0.24811 -0.0381,-0.107122 -0.0527,-0.222158 -0.0433,-0.335722 0.004,-0.04528 0.10862,-0.281976 0.0577,-0.315659 0.008,0.0057 0.0127,0.01288 0.0173,0.02227 0.0624,0.135834 0.14651,0.176879 0.26155,0.268172 0.12517,0.09921 0.18994,0.187003 0.27683,0.314187 0.0569,0.08338 0.0769,0.21001 0.16619,0.271117 0.12369,-0.1143 0.49033,0.05246 0.62322,0.03589 0.0835,-0.01012 0.11578,-0.09847 0.0835,-0.179824 -0.0361,-0.09258 -0.19068,-0.126448 -0.27827,-0.182586 -0.0863,-0.05595 -0.18405,-0.08411 -0.26893,-0.136571 -0.0913,-0.05466 -0.19194,-0.143749 -0.27975,-0.211298 -0.16379,-0.127368 -0.26172,-0.31566 -0.3357,-0.498981 -0.0683,-0.17191 -0.11504,-0.342348 -0.18757,-0.510577 -0.0159,-0.03736 -0.0159,-0.172462 -0.0102,-0.611072 0.0272,0.06037 0.0641,0.09626 0.14523,0.156633 0.0791,0.05835 0.069,0.04325 0.1754,0.06921 0.0734,0.01712 0.15957,0.07546 0.23301,0.105649 0.1408,0.05669 0.29263,0.06184 0.44359,0.03515 0.15017,-0.0265 0.29118,-0.01933 0.43988,-0.03368 0.13747,-0.0138 0.21367,-0.08559 0.3394,-0.125896 0.16031,-0.05098 0.29045,-0.06111 0.40125,-0.193444 0.10637,-0.127184 0.20133,-0.255841 0.31048,-0.376767 0.13307,-0.147982 0.20137,-0.181849 0.12093,-0.367379"
       style="fill:#21201d;fill-opacity:1;fill-rule:evenodd;stroke:none;stroke-width:0.184057"
       id="path604" />
  </g>
</svg>
