<?xml version="1.0" encoding="UTF-8" standalone="no"?>
<!-- Created with Inkscape (http://www.inkscape.org/) -->

<svg
   width="6.1227198mm"
   height="6.606792mm"
   viewBox="0 0 6.1227198 6.606792"
   version="1.1"
   id="svg2181"
   inkscape:version="1.1.2 (0a00cf5339, 2022-02-04)"
   sodipodi:docname="m3.svg"
   xmlns:inkscape="http://www.inkscape.org/namespaces/inkscape"
   xmlns:sodipodi="http://sodipodi.sourceforge.net/DTD/sodipodi-0.dtd"
   xmlns="http://www.w3.org/2000/svg"
   xmlns:svg="http://www.w3.org/2000/svg">
  <sodipodi:namedview
     id="namedview2183"
     pagecolor="#ffffff"
     bordercolor="#666666"
     borderopacity="1.0"
     inkscape:pageshadow="2"
     inkscape:pageopacity="0.0"
     inkscape:pagecheckerboard="0"
     inkscape:document-units="mm"
     showgrid="false"
     inkscape:zoom="0.64052329"
     inkscape:cx="-1086.6115"
     inkscape:cy="484.75989"
     inkscape:window-width="2560"
     inkscape:window-height="1376"
     inkscape:window-x="0"
     inkscape:window-y="0"
     inkscape:window-maximized="1"
     inkscape:current-layer="layer1" />
  <defs
     id="defs2178" />
  <g
     inkscape:label="Layer 1"
     inkscape:groupmode="layer"
     id="layer1"
     transform="translate(-392.24934,-20.24181)">
    <path
       d="m 395.21162,24.602519 c 0.0208,0.005 0.0418,0.0086 0.0633,0.01143 -0.12589,-0.24443 -0.41192,-0.380263 -0.52198,-0.632609 -0.0576,-0.133071 -0.0589,-0.284 -0.0359,-0.427012 0.0179,-0.05614 0.0359,-0.111542 0.0539,-0.167679 0.0337,-0.107121 0.069,-0.215713 0.1351,-0.306271 0.13583,-0.18553 0.28695,-0.18185 0.48959,-0.115771 0.0891,0.02889 0.14172,0.109329 0.23651,0.138042 0.1524,0.04675 0.26468,0.116508 0.38247,0.222895 0.0482,0.04325 0.0749,0.05319 0.1467,0.07693 7e-4,0.01436 0.003,0.02946 0.0116,0.04399 0.0121,0.023 0.048,0.03663 0.0596,0.05669 0.0166,0.02596 -10e-4,0.05964 -0.007,0.08485 -0.0109,0.05043 0.0302,0.153134 0.007,0.187 -0.0151,0.02081 -0.0396,0.03663 -0.0475,0.06185 -0.004,0.01362 -0.004,0.02798 -0.002,0.0416 0.006,0.0497 0.0195,0.09718 0.0418,0.140987 0.0121,0.02522 -0.009,-0.02596 0,0 0.026,0.07694 -0.023,0.163813 -0.0633,0.234308 -0.0582,0.101413 -0.14946,0.14743 -0.26026,0.183321 -0.1524,0.05117 -0.29191,0.01087 -0.45149,0.0309 -0.0755,0.0094 -0.32504,-0.115771 -0.4386,-0.164547 -0.002,0.0302 -0.0517,0.145959 -0.0661,0.172463 -0.0166,-0.0042 0.27756,0.139513 0.284,0.13528 0.11724,0.04877 0.24369,0.06037 0.36811,0.08614 0.023,0.0044 0.0641,0.01729 0.0856,0.01803 0.023,7.05e-4 0.0193,-0.0086 0.0374,-0.01069 0.0797,-0.01087 0.14945,-0.01803 0.21774,-0.04325 0.0655,-0.02374 0.16399,-0.04233 0.22087,-0.07252 0.0416,-0.02173 0.0639,-0.06626 0.10196,-0.09074 0.0346,-0.023 0.0769,-0.04307 0.10436,-0.06958 0.046,-0.04325 0.0488,-0.09995 0.0812,-0.148166 0.0366,-0.05393 0.0453,-0.1143 0.0826,-0.166758 0.0353,-0.04822 0.0532,-0.09074 0.0626,-0.146693 0.0136,-0.07915 -0.0841,-0.153874 -0.0804,-0.230808 0.002,-0.04528 0.0136,-0.08191 0.006,-0.131604 -0.005,-0.03239 -0.0116,-0.0611 -0.008,-0.09203 0.009,-0.06405 -0.002,-0.110066 -0.0359,-0.179825 -0.0677,-0.143746 -0.12516,-0.238537 -0.25234,-0.336454 -0.1143,-0.08835 -0.18774,-0.183325 -0.30921,-0.2667 -0.0396,-0.02649 -0.0611,-0.06111 -0.10363,-0.08706 -0.0179,-0.0114 -0.0344,-0.01288 -0.0503,-0.02374 -0.35449,-0.247926 -0.82181,0.06405 -1.12439,0.262466 -0.0928,0.06111 -0.18774,0.124421 -0.24885,0.215717 -0.12645,0.191234 -0.074,0.445787 -0.007,0.665 0.041,0.133809 0.0863,0.268908 0.17043,0.380446 0.0747,0.09847 0.17541,0.1732 0.27461,0.246638 0.12001,0.08835 0.24664,0.178907 0.38965,0.213508"
       style="fill:#21201d;fill-opacity:1;fill-rule:nonzero;stroke:none;stroke-width:0.184057"
       id="path636" />
    <path
       d="m 392.25015,20.25691 c 0.007,-0.0021 0.0123,-0.0065 0.0158,-0.0151 7.1e-4,0.02374 -0.0208,0.06405 -0.0158,0.08283 0.006,0.02226 0.0403,0.02505 0.0539,0.03369 0.0433,0.02815 0.0604,0.04675 0.0626,0.113566 0.001,0.02815 0,0.06184 0.004,0.08853 0.008,0.05393 0.006,0.01859 0.0295,0.04749 0.023,0.02946 0.0186,0.03589 0.0223,0.0819 0.006,0.06479 10e-4,0.06608 0.0388,0.102892 0.0631,0.06184 0.0646,0.153133 0.0985,0.247925 0.0223,0.06332 0.0445,0.125896 0.0668,0.189212 0.0388,0.109146 0.0784,0.232833 0.0819,0.356521 0.002,0.05043 0,0.07693 0.0195,0.1108 0.0215,0.03663 0.0569,0.04675 0.0791,0.08412 0.0272,0.04307 0.0351,0.116508 0.0675,0.165283 0.0604,0.09129 0.1316,0.168229 0.20927,0.223629 0.0223,0.01584 0.0453,0.0309 0.0639,0.05467 0.0316,0.0381 0.0468,0.097 0.0618,0.151663 0.0584,0.222158 0.11651,0.444316 0.17467,0.665737 0.0138,0.05117 0.0274,0.103625 0.0526,0.144487 0.0228,0.03755 0.0537,0.06258 0.0826,0.09148 0.1351,0.143012 0.16307,0.332041 0.17964,0.552725 0.002,0.02448 0.004,0.05043 0.0151,0.06847 0.009,0.01566 0.023,0.023 0.0361,0.0302 0.13657,0.07399 0.19988,0.10915 0.27461,0.294679 0.0179,0.04454 0.0438,0.07915 0.0618,0.121479 0.0245,0.0554 0.0302,0.145958 0.0403,0.210009 0.01,0.06184 0.0186,0.0935 0.0366,0.143012 0.0475,0.125159 0.0718,0.16105 0.15811,0.248846 0.018,0.01785 0.0366,0.03737 0.0482,0.06332 0.0151,0.03514 0.0193,0.08412 0.0445,0.102704 0.0114,0.0079 0.0245,0.0086 0.0339,0.02025 0.01,0.01214 0.0121,0.03221 0.0144,0.05098 0.005,0.05172 0.009,0.104178 0.0136,0.156633 0.14098,0.02741 0.29909,0.07197 0.37823,0.244616 0.0193,0.04454 0.0359,0.09847 0.0698,0.119267 0.028,0.01729 0.0617,0.005 0.0876,0.02797 0.0144,0.01235 0.0237,0.03387 0.0331,0.05393 0.0718,0.162521 0.13951,0.327254 0.2078,0.4918 0.0215,0.05043 0.0618,0.08264 0.0826,0.128658 0.0186,0.04399 0.0193,0.0878 0.0416,0.129575 0.046,0.08761 0.0784,0.18185 0.12018,0.270934 0.008,0.01803 0.0173,0.03239 0.0309,0.04031 0.0554,-0.09203 0.0797,-0.235042 0.14227,-0.337929 0.0871,-0.143013 0.19713,-0.256025 0.31989,-0.328542 0.0153,-0.0086 0.0309,-0.01729 0.0403,-0.03663 0.0223,-0.04399 0.007,-0.124425 0.0195,-0.178354 0.0151,-0.06405 0.0532,-0.112825 0.0646,-0.180559 0.0237,-0.132891 0.0856,-0.250133 0.15902,-0.332779 0.0107,-0.01235 0.023,-0.02448 0.0366,-0.02522 0.0136,-0.0021 0.0272,0.0079 0.0409,0.0065 0.0188,-0.0014 0.0339,-0.023 0.0467,-0.0416 0.0611,-0.08927 0.14393,-0.161784 0.21369,-0.245163 0.0906,-0.110066 0.0517,-0.09203 0.0473,-0.266149 -0.006,-0.198413 0.044,-0.466584 0.12664,-0.623955 0.079,-0.151112 0.17245,-0.287683 0.27608,-0.404745 0.0423,-0.04748 0.0883,-0.09497 0.11135,-0.165467 0.0173,-0.05098 0.021,-0.107859 0.0331,-0.16105 0.0366,-0.160317 0.14301,-0.25805 0.23872,-0.353025 0.14872,-0.147429 0.2632,-0.40695 0.29541,-0.666471 0.009,-0.07767 0.0295,-0.154609 0.0339,-0.233571 0.005,-0.08927 7e-4,-0.166942 0.0136,-0.257496 0.0173,-0.128658 -0.008,-0.200625 0.0747,-0.289708 0.0396,-0.04325 0.0799,-0.08706 0.12019,-0.130867 0.0423,-0.04675 0.0861,-0.0935 0.11779,-0.154608 0.0828,-0.154608 0.15314,-0.397563 0.17835,-0.580887 0.008,-0.06111 0.051,-0.09129 0.0539,-0.155343 0.002,-0.05687 -0.0158,-0.102153 0.006,-0.153874 0.0109,-0.02575 0.026,-0.03313 0.0295,-0.06755 0.002,-0.03094 -0.006,-0.05466 0.004,-0.08632 -0.0361,-0.01658 -0.0274,0.04031 -0.0374,0.06755 -0.005,0.0151 -0.0203,0.0519 -0.0309,0.06184 -0.0151,0.01436 -0.0396,0.0086 -0.0576,0.023 -0.0208,0.01584 -0.0438,0.03312 -0.0653,0.05043 -0.0361,0.02872 -0.049,0.08688 -0.0821,0.118533 -0.14448,0.107855 -0.25878,0.284738 -0.40474,0.403454 -0.0403,0.03221 -0.0819,0.06258 -0.11706,0.104913 -0.15185,0.184058 -0.36885,0.565792 -0.38118,0.862863 -0.002,0.05743 0.005,0.117062 -0.007,0.171725 -0.006,0.02522 -0.0158,0.04896 -0.0257,0.07123 -0.10657,0.235041 -0.26246,0.35652 -0.39977,0.542784 -0.0361,0.04822 -0.0396,0.07326 -0.0396,0.136574 0,0.151663 -0.0878,0.281792 -0.12737,0.4156 -0.0624,0.215717 -0.10712,0.447263 -0.16031,0.667946 -0.006,0.02649 -0.0121,0.05246 -0.023,0.07473 -0.0114,0.02374 -0.028,0.04178 -0.0438,0.0589 -0.0475,0.05264 -0.095,0.105833 -0.14227,0.159025 -0.0331,0.03663 -0.0677,0.07473 -0.0942,0.121479 -0.0425,0.07399 -0.0668,0.1697 -0.11798,0.23228 -0.0388,0.04804 -0.0928,0.07694 -0.11282,0.144487 -0.0188,0.0589 -0.005,0.127917 -10e-4,0.191971 0.009,0.147983 -0.051,0.136571 -0.11503,0.189763 -0.0223,0.01803 -0.0344,0.07988 -0.0554,0.104178 -0.0223,0.02522 -0.0574,0.04325 -0.069,0.08853 -0.009,0.03737 0,0.05669 -0.0151,0.09277 -0.0151,0.03589 -0.0272,0.0554 -0.0381,0.09626 -0.008,0.02815 -0.0136,0.05172 -0.0272,0.07491 -0.003,0.0042 -0.32725,-0.398487 -0.35523,-0.420758 -0.0488,-0.03884 -0.10142,-0.07031 -0.14449,-0.122213 -0.0423,-0.05099 -0.0733,-0.11927 -0.10215,-0.188291 -0.11356,-0.271117 -0.20835,-0.560825 -0.34639,-0.8082 -0.1108,-0.19915 -0.17117,-0.376029 -0.25326,-0.595979 -0.0646,-0.174671 -0.13013,-0.350079 -0.19547,-0.524196 -0.0524,-0.141542 -0.10638,-0.286025 -0.19271,-0.388179 -0.0502,-0.05963 -0.11798,-0.122213 -0.11429,-0.214979 -0.0381,0.005 -0.0755,-0.02152 -0.11007,-0.04675 -0.15019,-0.109332 -0.30627,-0.227866 -0.40327,-0.426279 -0.10362,-0.212954 -0.12221,-0.486833 -0.2078,-0.715433 -0.15608,-0.417075 -0.4802,-0.570212 -0.71616,-0.866362 -0.0144,-0.01803 -0.0302,-0.03534 -0.0473,-0.04675 -0.0158,-0.01087 -0.0618,-0.04749 -0.0791,-0.04104 0.0302,-7.06e-4 0.0611,-0.0021 -0.0641,-0.06258"
       style="fill:#21201d;fill-opacity:1;fill-rule:nonzero;stroke:none;stroke-width:0.184057"
       id="path638" />
  </g>
</svg>
