<?xml version="1.0" encoding="UTF-8" standalone="no"?>
<!-- Created with Inkscape (http://www.inkscape.org/) -->

<svg
   width="7.724mm"
   height="7.2812161mm"
   viewBox="0 0 7.724 7.2812161"
   version="1.1"
   id="svg2044"
   inkscape:version="1.1.2 (0a00cf5339, 2022-02-04)"
   sodipodi:docname="m4.svg"
   xmlns:inkscape="http://www.inkscape.org/namespaces/inkscape"
   xmlns:sodipodi="http://sodipodi.sourceforge.net/DTD/sodipodi-0.dtd"
   xmlns="http://www.w3.org/2000/svg"
   xmlns:svg="http://www.w3.org/2000/svg">
  <sodipodi:namedview
     id="namedview2046"
     pagecolor="#ffffff"
     bordercolor="#666666"
     borderopacity="1.0"
     inkscape:pageshadow="2"
     inkscape:pageopacity="0.0"
     inkscape:pagecheckerboard="0"
     inkscape:document-units="mm"
     showgrid="false"
     inkscape:zoom="0.64052329"
     inkscape:cx="-74.938727"
     inkscape:cy="895.36167"
     inkscape:window-width="2560"
     inkscape:window-height="1376"
     inkscape:window-x="0"
     inkscape:window-y="0"
     inkscape:window-maximized="1"
     inkscape:current-layer="layer1" />
  <defs
     id="defs2041" />
  <g
     inkscape:label="Layer 1"
     inkscape:groupmode="layer"
     id="layer1"
     transform="translate(-124.60392,88.32073)">
    <path
       d="m 129.42256,-86.672804 c -0.18184,-0.11927 -0.35007,-0.215716 -0.52345,-0.368116 -0.10988,-0.09553 -0.19197,-0.259522 -0.28897,-0.379528 -0.069,-0.01436 -0.1373,-0.02595 -0.20485,-0.0138 -0.0453,0.0079 -0.0885,0.02669 -0.12884,0.0497 -0.0545,0.07841 -0.10491,0.170438 -0.15166,0.232281 -0.12442,0.165284 -0.26376,0.29118 -0.41413,0.374558 -0.1351,0.0762 -0.76126,0.657087 -1.0309,0.714697 -0.004,0.005 -0.0131,0.09276 0,0.161787 0.11283,-0.03166 0.21921,-0.01233 0.32136,-0.07197 0.21572,-0.126632 0.40106,-0.313451 0.61677,-0.453703 0.12148,-0.07915 0.2575,-0.149455 0.38468,-0.227127 0,0 0,-7.41e-4 0,-7.41e-4 0.0655,-0.117245 0.17835,-0.195654 0.27333,-0.28621 0.0215,-0.04822 0.0445,-0.09479 0.0762,-0.12516 0.0992,-0.09258 0.15589,0.02301 0.23007,0.110803 0.0237,-0.01933 0.0596,-0.02669 0.0849,-0.0064 0.0589,0.04749 0.097,0.108594 0.13583,0.172462 0.0237,0.01307 0.0488,0.02595 0.074,0.03736 0.21277,0.09718 0.33719,0.202832 0.53487,0.352471 0.1892,0.142276 0.4329,0.189027 0.61474,0.398301 0.10289,0.118533 0.12811,0.263755 0.21572,0.419836 -0.17173,-0.602606 -0.45867,-0.855685 -0.81961,-1.091463"
       style="fill:#21201d;fill-opacity:1;fill-rule:nonzero;stroke:none;stroke-width:0.184057"
       id="path564" />
    <path
       d="m 130.40892,-86.769067 c -0.0948,-0.09847 -0.17319,-0.214243 -0.24516,-0.332961 -0.023,-0.0381 -0.0107,-0.0762 0.0151,-0.09773 -0.0144,-0.02375 -0.0272,-0.04749 -0.0388,-0.07344 -0.002,-0.0035 -0.005,-0.0057 -0.007,-0.0085 -0.20044,-0.117981 -0.21498,-0.41413 -0.22786,-0.665922 -0.0388,-0.140804 -0.0913,-0.195469 -0.27682,-0.277375 -0.12516,-0.05393 -0.25731,-0.02669 -0.38891,-0.01583 -0.0676,0.05172 -0.16252,0.05172 -0.24664,0.0265 -0.0344,-0.01012 -0.051,-0.03736 -0.0532,-0.06681 -0.17044,-0.05319 -0.32063,-0.0589 -0.49824,0.0208 -0.097,0.04325 -0.19565,0.07841 -0.29762,0.09424 -0.005,0.0035 -0.0109,0.0064 -0.018,0.0087 -0.13307,0.0416 -0.25878,0.05319 -0.37234,-0.04325 -7.1e-4,-0.0013 -10e-4,-0.002 -10e-4,-0.002 -0.14172,-0.0289 -0.37456,-0.05761 -0.44284,0.01932 -0.11945,0.13381 -0.29412,0.589538 -0.35891,0.823291 -0.0473,0.174671 -0.0121,0.332777 -0.046,0.511865 -0.0322,0.168966 -0.13289,0.31069 -0.23651,0.442844 -0.0316,0.04031 -0.0453,0.108594 -0.0388,0.174118 0.0131,0.1143 0.092,0.607392 0.049,0.293205 -0.0245,-0.301119 0.16896,-0.59101 0.32357,-0.792185 0.13362,-0.173383 0.13657,-0.60187 0.20633,-0.865073 0.18184,-0.6858 0.71469,-0.311242 1.0331,-0.391123 0.38818,-0.09773 0.63628,-0.10344 1.00016,0.0044 0.11854,0.03515 0.19768,0.01509 0.261,0.04749 0.20853,0.05319 0.28528,0.277559 0.21424,0.483152 -7.1e-4,7.41e-4 -7.1e-4,7.41e-4 -7.1e-4,7.41e-4 0.074,0.24222 0.14669,0.429959 0.31271,0.614017 0.22069,0.243693 0.28179,0.310506 0.33002,0.758503 0.0316,0.293204 -0.21719,0.473029 -0.24093,0.75206 0.0856,-0.198598 0.33516,-0.6731 0.35891,-0.916056 0.0165,-0.173199 -0.0138,-0.358729 -0.067,-0.526958"
       style="fill:#21201d;fill-opacity:1;fill-rule:nonzero;stroke:none;stroke-width:0.184057"
       id="path566" />
    <path
       d="m 127.90705,-86.736673 c -0.33793,0.08411 -0.19989,1.128644 -0.11228,1.469519 0.11945,0.463642 0.25105,0.851268 0.47248,1.199873 -0.30554,-0.373821 -0.63426,-0.86047 -0.76144,-1.491053 -0.0366,-0.179824 -0.13731,-0.50984 -0.11283,-0.708254 0.0438,-0.355785 0.27166,-0.162524 0.51407,-0.470085"
       style="fill:#21201d;fill-opacity:1;fill-rule:nonzero;stroke:none;stroke-width:0.184057"
       id="path568" />
    <path
       d="m 128.98046,-86.752501 c -0.0878,0.352286 0.14596,0.917344 0.10639,1.346567 -0.0388,0.415603 -0.16547,0.745619 -0.27682,1.099378 -0.0302,0.02503 -0.0856,0.232833 -0.0928,0.239275 0.43566,-0.411185 0.61622,-1.711002 0.5564,-2.4811 -0.0201,-0.01012 -0.0409,-0.01215 -0.2932,-0.20412"
       style="fill:#21201d;fill-opacity:1;fill-rule:nonzero;stroke:none;stroke-width:0.184057"
       id="path570" />
    <path
       d="m 129.55987,-84.746638 c -0.18037,0.198414 -0.16675,0.271117 -0.24442,0.519778 -0.0641,0.20357 -0.14449,0.381187 -0.20854,0.580337 -0.0812,0.251605 -0.0351,0.614017 -0.16326,0.826788 -0.12295,0.205591 -0.23577,-0.107859 -0.42057,-0.107859 -0.13288,0 -0.37161,0.387442 -0.46658,0.309771 -0.13307,-0.109883 -0.0554,-0.602425 -0.0891,-0.836175 -0.0425,-0.289708 -0.13381,-0.487387 -0.28842,-0.650646 -0.19271,-0.202648 -0.23577,-0.287499 -0.3659,-0.568739 -0.16455,-0.353575 -0.37382,-1.041768 -0.63334,-1.227851 -7.1e-4,0.01638 -10e-4,0.03368 -0.003,0.05098 0.0475,0.126448 0.0475,0.322102 0.0712,0.482416 0.001,0.0015 0.002,0.0029 0.003,0.005 0.046,0.0935 0.10786,0.176879 0.14964,0.273326 10e-4,0.002 0.002,0.0042 0.003,0.0064 0.004,0.0042 0.009,0.0072 0.0136,0.01141 0.009,0.0052 0.0166,0.01307 0.0237,0.02374 0.0797,0.120926 0.15516,0.225103 0.2135,0.363146 0.0639,0.150192 0.0977,0.306273 0.20339,0.428487 0.0554,0.06479 0.021,0.107856 0.0403,0.174672 0.0208,0.07491 0.0827,0.155343 0.12793,0.215713 0.021,0.02815 0.0396,0.05393 0.0569,0.07841 0.041,0.02649 0.0769,0.0611 0.10638,0.106384 0.0596,0.09203 0.0727,0.203567 0.0604,0.311979 0.0144,0.09921 0.0203,0.218659 0.0295,0.379712 0.002,0.03736 0.004,0.07767 0.004,0.119267 0.0294,0.05761 0.0351,0.127371 0.0351,0.199888 0,0.02448 -0.009,0.04399 -0.0223,0.05761 0.006,0.0611 0.10289,0.452963 0.22787,0.31345 0.0151,-0.01729 0.0223,-0.04105 0.0339,-0.06111 0.0366,-0.06479 0.0963,-0.06755 0.14817,-0.107121 0.0624,-0.04749 0.10123,-0.121479 0.16896,-0.163996 0.0438,-0.02723 0.0985,-0.03957 0.14522,-0.02007 0.0257,0.01143 0.048,0.03164 0.069,0.05172 0.0431,0.04104 0.0869,0.0819 0.11578,0.135096 0.0107,0.02099 0.0201,0.04473 0.0366,0.05982 0.0963,0.08264 0.21848,0.04528 0.28179,-0.05043 0.051,-0.07693 0.0885,-0.171726 0.12074,-0.258784 0.0388,-0.103442 0.0158,-0.201362 0.0282,-0.307009 0.0121,-0.110803 0.0624,-0.198416 0.11504,-0.292653 0.0272,-0.1524 0.0438,-0.27038 0.0653,-0.387442 -0.0136,-0.06828 -0.007,-0.138779 0.0324,-0.205042 0.005,-0.0085 0.0107,-0.0151 0.0166,-0.02007 0.0107,-0.04031 0.0223,-0.0819 0.0359,-0.127183 0.0554,-0.176143 0.10712,-0.356704 0.18975,-0.520515 0.0368,-0.0727 0.0799,-0.154609 0.14247,-0.205777 0.0532,-0.04381 0.12791,-0.06184 0.1754,-0.113564 0.0589,-0.0646 0.0582,-0.145221 0.0898,-0.224366 0.0195,-0.04657 0.19915,-0.46806 0.20707,-0.463642 -0.18756,-0.09276 -0.47524,0.605366 -0.6823,0.834703"
       style="fill:#21201d;fill-opacity:1;fill-rule:nonzero;stroke:none;stroke-width:0.184057"
       id="path572" />
    <path
       d="m 128.61235,-82.827652 c 0.0431,-0.309217 0.11577,-0.680829 0.0777,-0.992992 0.0926,0.377504 0.12866,0.652854 0.13289,1.113734 -0.0582,-0.01013 -0.14522,-0.01436 -0.20927,-0.03589 0.007,-0.03461 0.013,-0.194183 -0.001,-0.08485"
       style="fill:#21201d;fill-opacity:1;fill-rule:nonzero;stroke:none;stroke-width:0.184057"
       id="path574" />
    <path
       d="m 128.29449,-83.819906 c -0.0646,0.414129 -0.12719,0.684512 -0.11798,1.155516 0.0685,-0.0079 0.13528,-0.02815 0.18276,-0.09148 -0.0425,-0.273141 -0.0885,-0.828812 -0.0648,-1.064037"
       style="fill:#21201d;fill-opacity:1;fill-rule:nonzero;stroke:none;stroke-width:0.184057"
       id="path576" />
    <path
       d="m 127.49071,-87.977775 c -0.11282,-0.01141 -0.18626,0.09074 -0.21074,0.230072 -0.0144,0.08411 -0.0351,0.251055 0,0.31566 0.0928,0.05172 0.24958,0.143749 0.34584,0.03092 0.0433,-0.05098 0.0755,-0.188292 0.0742,-0.272406 -0.004,-0.129393 -0.072,-0.148903 -0.0965,-0.243877 -0.0245,-0.01859 -0.0136,0.0022 -0.0287,-0.02871 -0.0475,-0.005 -0.0964,-0.0099 -0.13307,-0.04528 0.0633,-0.173198 0.25381,-0.01215 0.29909,0.101416 0.0683,0.170438 0.0381,0.335722 -0.0337,0.480944 -0.13951,0.282529 -0.52198,0.266699 -0.54223,-0.144486 -0.005,-0.08835 0.0289,-0.224366 0.067,-0.287498 0.0582,-0.09497 0.20412,-0.130865 0.25878,-0.136755"
       style="fill:#21201d;fill-opacity:1;fill-rule:nonzero;stroke:none;stroke-width:0.184057"
       id="path578" />
    <path
       d="m 129.42625,-87.942436 c -0.11651,0.117797 -0.27406,0.2286 -0.14246,0.466587 0.0569,0.103441 0.16896,0.201359 0.2667,0.153872 0.11006,-0.05246 0.19638,-0.2286 0.15902,-0.38965 -0.0224,-0.09866 -0.13013,-0.220134 -0.19418,-0.230809 0.12866,0.01068 0.19547,0.101968 0.23081,0.268909 0.0351,0.165284 0.0712,0.33204 -0.0663,0.420572 -0.12645,0.08117 -0.30903,0.09129 -0.40106,-0.0727 -0.0453,-0.0819 -0.19271,-0.322101 -0.15387,-0.445788 0.0193,-0.06313 0.13583,-0.132154 0.1789,-0.155161 0.0677,-0.03607 0.18626,-0.03313 0.1224,-0.01583"
       style="fill:#21201d;fill-opacity:1;fill-rule:nonzero;stroke:none;stroke-width:0.184057"
       id="path580" />
    <path
       d="m 129.90277,-86.194622 0.29835,0.580151"
       style="fill:#21201d;fill-opacity:1;fill-rule:nonzero;stroke:none;stroke-width:0.184057"
       id="path582" />
    <g
       transform="matrix(0.18405616,0,0,-0.18405792,76.713484,-94.861909)"
       id="g586">
      <path
         d="m 289.066,-47.09 1.622,-3.152"
         style="fill:#21201d;fill-opacity:1;fill-rule:nonzero;stroke:#21201d;stroke-width:1;stroke-linecap:round;stroke-linejoin:miter;stroke-miterlimit:10;stroke-dasharray:none;stroke-opacity:1"
         id="path584" />
    </g>
    <path
       d="m 126.64737,-86.2399 0.16031,0.853292"
       style="fill:#21201d;fill-opacity:1;fill-rule:nonzero;stroke:none;stroke-width:0.184057"
       id="path588" />
    <g
       transform="matrix(0.18405616,0,0,-0.18405792,76.713484,-94.861909)"
       id="g592">
      <path
         d="m 271.297,-46.844 0.871,-4.636"
         style="fill:#21201d;fill-opacity:1;fill-rule:nonzero;stroke:#21201d;stroke-width:1;stroke-linecap:round;stroke-linejoin:miter;stroke-miterlimit:10;stroke-dasharray:none;stroke-opacity:1"
         id="path590" />
    </g>
    <path
       d="m 129.45349,-82.779427 c -0.074,-0.03957 -0.12074,0.276087 -0.20283,0.301854 0.0806,-0.01288 0.15976,0.01584 0.24019,-0.01362 0.0928,-0.03461 0.16399,-0.097 0.26817,-0.112825 0.19418,-0.02741 0.38045,-0.02671 0.57738,-0.05043 0.13878,-0.01729 0.12645,-0.08485 0.14375,-0.226392 0.007,-0.05687 0,-0.118717 0.0188,-0.176142 0.0265,-0.07988 0.0876,-0.133075 0.11062,-0.212221 0.026,-0.09055 0.0438,-0.25087 0.0173,-0.332775 0.0554,0.04878 0.19271,0.09626 0.27038,0.1316 0.12424,0.05669 0.22859,0.10565 0.35375,0.139334 0.005,0.08062 0.22786,0.1489 0.29247,0.200621 0.0841,0.067 0.14319,0.134546 0.21295,0.210012 0.17099,-0.115775 -0.40051,-0.401983 -0.47321,-0.440821 -0.19988,-0.109146 -0.39461,-0.231358 -0.58511,-0.347133 0.0992,-0.05466 0.17614,-0.200621 0.27737,-0.278296 0.12663,-0.097 0.20209,-0.245164 0.3359,-0.328542 0.18111,-0.112828 0.41118,-0.195653 0.61107,-0.249583 0.11503,-0.03166 0.30627,-0.05025 0.40548,-0.11706 -0.13363,-0.03755 -0.28474,-0.0066 -0.42131,0.02006 -0.14448,0.02724 -0.31842,0.05964 -0.45572,0.121478 -0.17983,0.08135 -0.39186,0.179089 -0.5264,0.33572 -0.0712,0.08338 -0.19271,0.218662 -0.2402,0.317871 -0.0309,-0.160317 -0.0826,-0.343637 -0.0841,-0.509841 -7.1e-4,-0.155898 0.0519,-0.298358 0.0309,-0.454255 -0.15092,-0.06184 0.0606,-0.494012 0.10142,-0.583096 0.0675,-0.145958 0.1546,-0.380448 0.31639,-0.399774 -0.0208,0.09774 0.0302,0.221422 0.0646,0.311978 0.0289,0.07399 0.067,0.148167 0.0965,0.220686 0.049,0.12019 0.11007,0.150375 0.2078,0.228048 0.15019,0.120742 0.25381,0.176879 0.4386,0.240747 0.0762,0.02522 0.25235,0.12019 0.31769,0.03884 -0.10344,-0.0265 -0.18682,-0.0589 -0.28547,-0.09847 -0.19326,-0.07914 -0.41119,-0.09129 -0.52125,-0.311978 -0.0891,-0.178353 -0.18406,-0.498245 -0.18682,-0.693899 -0.001,-0.122951 0.0863,-0.22363 0.10418,-0.350814 0.0151,-0.107858 0.0101,-0.219397 0.0641,-0.312715 0.0475,-0.08209 0.13362,-0.136019 0.19547,-0.21001 0.044,-0.05172 0.0791,-0.106385 0.13307,-0.145222 -0.12,-0.0173 -0.27535,0.191973 -0.33645,0.287499 -0.0992,0.157553 -0.22787,0.290627 -0.3221,0.452414 -0.0848,0.14375 -0.19418,0.241484 -0.29689,0.368116 -0.0979,0.120742 -0.12092,0.301119 -0.17982,0.447077 -0.0668,0.165468 -0.15387,0.327807 -0.17982,0.506159 -0.0243,0.169702 -7.1e-4,0.412658 0.0331,0.583095 0.0453,0.231544 0.14743,0.452231 0.14025,0.689481 -0.009,0.272592 -0.23448,0.493275 -0.2078,0.771571 0.001,-0.08706 -0.0683,-0.107858 -0.11208,-0.168229 -0.009,0.0646 0.0351,0.132891 -0.0188,0.180379 -0.004,0.0037 -0.11504,-0.0021 -0.1316,7.05e-4 -0.0574,0.01143 -0.10786,0.04896 -0.16326,0.06608 -0.13142,0.04031 -0.38523,0.0727 -0.44854,-0.0473"
       style="fill:#21201d;fill-opacity:1;fill-rule:nonzero;stroke:none;stroke-width:0.184057"
       id="path594" />
    <path
       d="m 131.45086,-83.860215 c 0.0453,-0.05098 0.13363,-0.07252 0.20339,-0.113562 0.0878,-0.05172 0.16601,-0.149458 0.2459,-0.215717 0.10141,-0.08338 0.21129,-0.208354 0.32209,-0.259523 0.004,0.145958 -0.1581,0.28474 -0.19123,0.434377 -0.0331,0.1524 -0.008,0.279584 -0.006,0.426279 0.003,0.200622 0.0201,0.388176 0.0287,0.591746 0.004,0.08761 -0.0339,0.186817 -0.0237,0.27038 0.006,0.05098 0.0554,0.113566 0.0661,0.167492 -0.24663,-0.371059 -0.19049,-0.949738 -0.23356,-1.386322 -0.0712,0.05393 -0.22934,0.0878 -0.31713,0.09718 -0.0604,0.0065 -0.11724,-0.0302 -0.16381,0.01803 0.0151,0.0021 0.0121,0.0077 0.069,-0.03037"
       style="fill:#21201d;fill-opacity:1;fill-rule:nonzero;stroke:none;stroke-width:0.184057"
       id="path596" />
    <path
       d="m 130.48236,-82.70691 c 0.13234,0.05761 0.26449,0.20357 0.37529,0.302779 0.1178,0.10712 0.18755,0.101229 0.35873,0.06608 0.23504,-0.04896 0.70677,-0.277559 0.93114,-0.08264 -0.11154,-0.01086 -0.29781,-0.04399 -0.37106,0.06755 -0.17117,-0.0065 -0.33498,0.118533 -0.48462,0.192708 -0.0777,0.03883 -0.1143,0.09129 -0.18259,0.141542 -0.0871,0.06552 -0.143,0.05761 -0.20779,0.15755 -0.046,0.07123 -0.0992,0.1559 -0.13584,0.229338 -0.0381,0.07694 -0.0482,0.173933 -0.0935,0.247375 -0.0495,0.08043 -0.0849,0.133625 -0.12718,0.217004 -0.0296,0.05761 -0.0512,0.130863 -0.11798,0.05835 0.007,0.02797 0.0109,0.04675 0.026,0.06976 -0.018,-0.09074 -0.11228,-0.288421 -0.16897,-0.365354 -0.0504,-0.06829 -0.15111,-0.121479 -0.21571,-0.179642 -0.0705,-0.06479 -0.10068,-0.116508 -0.15461,-0.191971 -0.10712,-0.1524 -0.28252,-0.230075 -0.44799,-0.260258 -0.16896,-0.03094 -0.3602,-0.132338 -0.52125,-0.115775 0.0742,-0.02152 0.20283,-0.07988 0.28547,-0.07915 0.0935,7.06e-4 0.20927,0.04307 0.3048,0.05761 0.28842,0.04307 0.5853,0.222158 0.74414,0.491617 0.0648,0.110804 0.0698,0.294862 0.16896,0.372533 -0.0547,-0.189025 -0.0834,-0.42278 -0.10638,-0.632788 -0.0144,-0.132154 -0.0733,-0.255108 -0.0618,-0.387445 0.009,-0.102151 0.005,-0.194917 0.0282,-0.294122 0.10841,0.05043 0.10196,0.457384 0.12718,0.578859 0.0237,0.1143 0.0468,0.230812 0.0648,0.3429 0.0121,0.07767 0.0552,0.158845 0.0532,0.232283 0.0611,-0.145958 0.13583,-0.277558 0.22713,-0.404191 0.0445,-0.06111 0.11927,-0.153138 0.0985,-0.243692 -0.0201,-0.08835 -0.16326,-0.213508 -0.21848,-0.2875 -0.0698,-0.09276 -0.13804,-0.187004 -0.18994,-0.289708 0.0151,-7.06e-4 0.0274,0.0028 0.0123,-0.01161"
       style="fill:#21201d;fill-opacity:1;fill-rule:nonzero;stroke:none;stroke-width:0.184057"
       id="path598" />
    <path
       d="m 127.47838,-82.779427 c 0.0749,-0.03957 0.12166,0.276087 0.20357,0.301854 -0.0812,-0.01288 -0.16031,0.01584 -0.24093,-0.01362 -0.092,-0.03461 -0.16308,-0.097 -0.26817,-0.112825 -0.194,-0.02741 -0.37953,-0.02671 -0.57647,-0.05043 -0.13878,-0.01729 -0.12663,-0.08485 -0.14393,-0.226392 -0.007,-0.05687 0,-0.118717 -0.0186,-0.176142 -0.0267,-0.07988 -0.0878,-0.133075 -0.1108,-0.212221 -0.0258,-0.09055 -0.0438,-0.25087 -0.0179,-0.332775 -0.0547,0.04878 -0.19197,0.09626 -0.26964,0.1316 -0.12442,0.05669 -0.22878,0.10565 -0.35376,0.139334 -0.006,0.08062 -0.22804,0.1489 -0.29264,0.200621 -0.0849,0.067 -0.14302,0.134546 -0.21277,0.210012 -0.17117,-0.115775 0.40032,-0.401983 0.47228,-0.440821 0.19989,-0.109146 0.39554,-0.231358 0.58604,-0.347133 -0.0999,-0.05466 -0.17614,-0.200621 -0.27829,-0.278296 -0.12663,-0.097 -0.20136,-0.245164 -0.33499,-0.328542 -0.18203,-0.112828 -0.4121,-0.195653 -0.61124,-0.249583 -0.11578,-0.03166 -0.30701,-0.05025 -0.40622,-0.11706 0.13455,-0.03755 0.28547,-0.0066 0.42131,0.02006 0.14466,0.02724 0.3186,0.05964 0.4559,0.121478 0.18038,0.08135 0.39186,0.179089 0.52696,0.33572 0.0705,0.08338 0.1927,0.218662 0.23945,0.317871 0.0309,-0.160317 0.0834,-0.343637 0.0841,-0.509841 7e-4,-0.155898 -0.0517,-0.298358 -0.0302,-0.454255 0.15093,-0.06184 -0.0604,-0.494012 -0.10141,-0.583096 -0.0683,-0.145958 -0.15535,-0.380448 -0.31695,-0.399774 0.0215,0.09774 -0.0296,0.221422 -0.0648,0.311978 -0.0287,0.07399 -0.0668,0.148167 -0.0963,0.220686 -0.049,0.12019 -0.10933,0.150375 -0.20706,0.228048 -0.15111,0.120742 -0.25381,0.176879 -0.43934,0.240747 -0.0762,0.02522 -0.25234,0.12019 -0.31787,0.03884 0.10362,-0.0265 0.18774,-0.0589 0.28621,-0.09847 0.19344,-0.07914 0.41044,-0.09129 0.52125,-0.311978 0.0891,-0.178353 0.18405,-0.498245 0.18626,-0.693899 0.002,-0.122951 -0.0863,-0.22363 -0.10362,-0.350814 -0.0151,-0.107858 -0.0107,-0.219397 -0.0646,-0.312715 -0.0475,-0.08209 -0.13307,-0.136019 -0.19491,-0.21001 -0.0438,-0.05172 -0.0799,-0.106385 -0.13308,-0.145222 0.11946,-0.0173 0.27535,0.191973 0.33591,0.287499 0.0992,0.157553 0.2286,0.290627 0.32265,0.452414 0.0843,0.14375 0.19344,0.241484 0.29707,0.368116 0.0977,0.120742 0.12,0.301119 0.1789,0.447077 0.067,0.165468 0.15461,0.327807 0.17982,0.506159 0.0245,0.169702 7.1e-4,0.412658 -0.0324,0.583095 -0.0453,0.231544 -0.14798,0.452231 -0.1408,0.689481 0.009,0.272592 0.2343,0.493275 0.20761,0.771571 -0.001,-0.08706 0.0692,-0.107858 0.11301,-0.168229 0.008,0.0646 -0.0353,0.132891 0.0186,0.180379 0.004,0.0037 0.11504,-0.0021 0.13087,7.05e-4 0.0583,0.01143 0.10859,0.04896 0.16399,0.06608 0.1316,0.04031 0.38542,0.0727 0.44781,-0.0473"
       style="fill:#21201d;fill-opacity:1;fill-rule:nonzero;stroke:none;stroke-width:0.184057"
       id="path600" />
    <path
       d="m 125.48192,-83.860215 c -0.046,-0.05098 -0.1338,-0.07252 -0.2043,-0.113562 -0.0876,-0.05172 -0.16602,-0.149458 -0.24571,-0.215717 -0.10068,-0.08338 -0.21148,-0.208354 -0.32155,-0.259523 -0.004,0.145958 0.15829,0.28474 0.19068,0.434377 0.0329,0.1524 0.008,0.279584 0.006,0.426279 -0.003,0.200622 -0.021,0.388176 -0.0295,0.591746 -0.004,0.08761 0.0344,0.186817 0.0236,0.27038 -0.006,0.05098 -0.0545,0.113566 -0.0661,0.167492 0.24737,-0.371059 0.19124,-0.949738 0.23375,-1.386322 0.0718,0.05393 0.22934,0.0878 0.31695,0.09718 0.0604,0.0065 0.11798,-0.0302 0.16473,0.01803 -0.0151,0.0021 -0.0129,0.0077 -0.069,-0.03037"
       style="fill:#21201d;fill-opacity:1;fill-rule:nonzero;stroke:none;stroke-width:0.184057"
       id="path602" />
    <path
       d="m 126.44969,-82.70691 c -0.1316,0.05761 -0.26467,0.20357 -0.37529,0.302779 -0.11724,0.10712 -0.18774,0.101229 -0.35891,0.06608 -0.2343,-0.04896 -0.70659,-0.277559 -0.93022,-0.08264 0.11062,-0.01086 0.29688,-0.04399 0.37087,0.06755 0.17044,-0.0065 0.33517,0.118533 0.48463,0.192708 0.0769,0.03883 0.11356,0.09129 0.18184,0.141542 0.0871,0.06552 0.1432,0.05761 0.2078,0.15755 0.046,0.07123 0.0999,0.1559 0.13675,0.229338 0.0381,0.07694 0.0473,0.173933 0.0933,0.247375 0.049,0.08043 0.0841,0.133625 0.12737,0.217004 0.0294,0.05761 0.0503,0.130863 0.11706,0.05835 -0.007,0.02797 -0.01,0.04675 -0.0258,0.06976 0.0186,-0.09074 0.11283,-0.288421 0.1697,-0.365354 0.0495,-0.06829 0.15019,-0.121479 0.21572,-0.179642 0.0703,-0.06479 0.10049,-0.116508 0.15368,-0.191971 0.10731,-0.1524 0.28271,-0.230075 0.44873,-0.260258 0.16896,-0.03094 0.35946,-0.132338 0.52125,-0.115775 -0.074,-0.02152 -0.20283,-0.07988 -0.28621,-0.07915 -0.0928,7.06e-4 -0.20909,0.04307 -0.30406,0.05761 -0.28823,0.04307 -0.5853,0.222158 -0.74414,0.491617 -0.0653,0.110804 -0.0698,0.294862 -0.1697,0.372533 0.0554,-0.189025 0.0841,-0.42278 0.10639,-0.632788 0.0151,-0.132154 0.0734,-0.255108 0.0626,-0.387445 -0.009,-0.102151 -0.006,-0.194917 -0.0287,-0.294122 -0.10859,0.05043 -0.10215,0.457384 -0.12663,0.578859 -0.0237,0.1143 -0.0468,0.230812 -0.0646,0.3429 -0.013,0.07767 -0.0561,0.158845 -0.0539,0.232283 -0.0604,-0.145958 -0.13584,-0.277558 -0.22658,-0.404191 -0.0453,-0.06111 -0.12,-0.153138 -0.0985,-0.243692 0.0195,-0.08835 0.16326,-0.213508 0.21866,-0.2875 0.069,-0.09276 0.13804,-0.187004 0.18903,-0.289708 -0.0151,-7.06e-4 -0.0272,0.0028 -0.0121,-0.01161"
       style="fill:#21201d;fill-opacity:1;fill-rule:nonzero;stroke:none;stroke-width:0.184057"
       id="path604" />
  </g>
</svg>
