<?xml version="1.0" encoding="UTF-8" standalone="no"?>
<!-- Created with Inkscape (http://www.inkscape.org/) -->

<svg
   width="4.5266318mm"
   height="8.2164755mm"
   viewBox="0 0 4.5266318 8.2164755"
   version="1.1"
   id="svg2374"
   inkscape:version="1.1.2 (0a00cf5339, 2022-02-04)"
   sodipodi:docname="m5.svg"
   xmlns:inkscape="http://www.inkscape.org/namespaces/inkscape"
   xmlns:sodipodi="http://sodipodi.sourceforge.net/DTD/sodipodi-0.dtd"
   xmlns="http://www.w3.org/2000/svg"
   xmlns:svg="http://www.w3.org/2000/svg">
  <sodipodi:namedview
     id="namedview2376"
     pagecolor="#ffffff"
     bordercolor="#666666"
     borderopacity="1.0"
     inkscape:pageshadow="2"
     inkscape:pageopacity="0.0"
     inkscape:pagecheckerboard="0"
     inkscape:document-units="mm"
     showgrid="false"
     inkscape:zoom="0.64052329"
     inkscape:cx="-590.14248"
     inkscape:cy="884.4331"
     inkscape:window-width="2560"
     inkscape:window-height="1376"
     inkscape:window-x="0"
     inkscape:window-y="0"
     inkscape:window-maximized="1"
     inkscape:current-layer="layer1" />
  <defs
     id="defs2371" />
  <g
     inkscape:label="Layer 1"
     inkscape:groupmode="layer"
     id="layer1"
     transform="translate(-260.86465,85.483752)">
    <path
       d="m 264.20416,-82.043409 c -0.0201,0.156818 -0.10565,0.268909 -0.20062,0.382473 -0.13933,0.166756 -0.27388,0.214243 -0.47799,0.29983 -0.19198,0.08062 -0.41266,0.113564 -0.62763,0.08485 -0.13952,-0.01804 -0.48039,-0.05614 -0.52567,-0.203384 -0.18038,0.122214 -0.3775,-0.25308 -0.40179,-0.364619 -0.0361,-0.163995 -0.16253,-0.291916 -0.14467,-0.456464 0.0145,-0.130865 0.0188,-0.281976 0.0188,-0.424253 0,-0.09056 0.0208,-0.196942 0.0784,-0.271118 0.0539,-0.07105 0.1178,-0.07546 0.19271,-0.120741 0.0337,-0.0208 0.0388,-0.05816 0.069,-0.07914 0.0545,-0.03736 0.14651,-0.07473 0.20191,-0.107122 0.0784,-0.04675 0.13657,-0.07546 0.23652,-0.06681 -0.11633,-0.04601 0.19565,-0.07694 0.2827,-0.09276 0.18903,-0.03516 0.36867,-0.01509 0.53837,0.03239 0.14964,0.04233 0.21295,0.08485 0.3186,0.191973 0.11356,0.115772 0.2343,0.16105 0.29762,0.322101 0.0539,0.140252 0.15534,0.259522 0.15608,0.417076 10e-4,0.143012 0.006,0.311241 -0.0124,0.455727 m -1.38042,-2.41576 c 0.0346,-0.07767 0.17412,-0.107122 0.22805,-0.04602 -0.007,-0.0079 -7.1e-4,-0.01012 0.009,-0.01141 h -0.005 c 0.0574,-0.02669 0.14817,0.01509 0.1962,0.0473 0.0648,0.04399 0.0606,0.128841 0.12443,0.15829 -0.0316,0.08485 -0.0503,0.131601 -0.0388,0.222158 -0.10859,0.04749 -0.12295,0.13289 -0.284,0.118533 -0.0769,-0.0064 -0.28473,-7.4e-4 -0.28032,-0.102704 -0.17761,-0.02595 -0.0769,-0.355968 0.0503,-0.386153 m -0.13878,-0.464378 c 0.002,0.002 0.003,0.0035 0.004,0.0057 -10e-4,0.0022 -0.003,0.0028 -0.005,0.005 7.1e-4,-0.0042 10e-4,-0.0079 7.1e-4,-0.01068 m 1.7327,2.642887 c -0.0315,-0.182585 0.0942,-0.302775 0.002,-0.479471 -0.0626,-0.12019 -0.15093,-0.208538 -0.21774,-0.31934 -0.0915,-0.151664 -0.14595,-0.237251 -0.29909,-0.334986 -0.19271,-0.12295 -0.52272,-0.300566 -0.49971,-0.563033 0.0171,0.0022 0.0416,-0.0057 0.0589,-0.0035 0.0295,-0.103625 0.0547,-0.478183 -0.0596,-0.490331 -0.018,-0.121662 0.097,-0.398301 -0.0136,-0.500453 -0.0777,0.02797 -0.22289,-0.0037 -0.31418,7.41e-4 -0.14467,0.0072 -0.28345,-0.01288 -0.42278,-7.41e-4 0.0144,0.01436 0.0179,0.02595 0.0258,0.0381 -10e-4,-7.41e-4 -0.002,-0.0022 -0.004,-0.0037 -0.049,0.08632 7.1e-4,0.163996 0,0.253079 -7e-4,0.06626 -0.0245,0.153873 -0.0374,0.222895 -0.10786,-0.112092 -0.10068,0.122214 -0.0985,0.18056 0.004,0.102705 -0.0158,0.209274 0.0121,0.311979 0.0208,-0.0042 0.051,0.0072 0.0712,0.0037 -10e-4,0.0797 0.001,0.09056 -0.0237,0.158841 -0.0208,0.0589 -0.0554,0.10068 -0.064,0.159579 -0.092,0.04031 -0.14227,0.104913 -0.22142,0.155345 -0.092,0.0589 -0.18552,0.09626 -0.27535,0.158106 -0.16675,0.113563 -0.30479,0.24314 -0.40842,0.440082 -0.0985,0.186266 -0.046,0.478182 -0.0215,0.681566 0.0324,0.267437 0.13087,0.464378 0.26026,0.69666 0.0777,0.138043 0.15884,0.212218 0.3048,0.296885 0.0633,0.03607 0.13877,0.07694 0.21148,0.09497 0.0935,0.023 0.29117,-0.0381 0.27958,0.0935 0.19049,0.0438 0.29707,0.115038 0.5126,0.08761 0.19123,-0.023 0.34307,-0.06534 0.51333,-0.145225 0.17632,-0.0819 0.27608,-0.195466 0.42277,-0.292465 0.16473,-0.10933 0.24958,-0.189947 0.29707,-0.377502 0.0215,-0.08706 0.0589,-0.175408 0.0718,-0.261731 0.0173,-0.1143 -0.0453,-0.162523 -0.0626,-0.26173"
       style="fill:#21201d;fill-opacity:1;fill-rule:nonzero;stroke:none;stroke-width:0.184057"
       id="path624" />
    <path
       d="m 260.91416,-80.404925 c 0.009,0.02741 -0.048,0.100679 -0.0495,0.14467 -7.1e-4,0.04878 0.0294,0.124975 0.0258,0.182584 -0.009,0.133629 -0.0265,0.254554 0.0138,0.381737 0.2286,0.02081 0.47229,-0.03957 0.70659,-0.0309 0.23155,0.0079 0.45665,-0.04896 0.68819,-0.04381 0.14227,0.0028 0.28474,0.03164 0.43069,0.03295 0.15958,7.06e-4 0.31271,-0.04012 0.4629,-0.04454 0.11007,-0.0028 0.2194,0.03884 0.32854,0.04454 0.2956,0.01379 0.61991,-0.09773 0.90593,-0.04233 0.13086,0.02522 0.26467,0.0762 0.40695,0.06461 0.072,-0.0065 0.13381,-0.04454 0.20411,-0.05669 0.11154,-0.01877 0.22952,0.023 0.33002,0.04381 -0.0251,-0.04031 -0.0136,-0.0797 -0.0223,-0.130129 -0.0121,-0.0797 -0.0416,-0.151663 -0.0445,-0.22363 -0.008,-0.158104 0.0547,-0.291916 0.0547,-0.44137 -0.22289,0.03239 -0.4537,0.05742 -0.68303,0.08338 -0.20707,0.02374 -0.41836,0.03387 -0.62763,0.01658 -0.16326,-0.01436 -0.3221,0.02078 -0.48021,0.01436 -0.13528,-0.0057 -0.27755,-0.0497 -0.42075,-0.04178 -0.17964,0.01087 -0.36149,0.0021 -0.54131,0.0021 -0.34805,0 -0.72113,0.03589 -1.062,7.06e-4 -0.20835,-0.02078 -0.4745,-0.07123 -0.67438,-7.06e-4 0.0267,0.01729 0.0482,0.0086 0.0475,0.04381"
       style="fill:#21201d;fill-opacity:1;fill-rule:nonzero;stroke:none;stroke-width:0.184057"
       id="path626" />
    <path
       d="m 260.96017,-78.108434 c -0.0166,-0.005 -0.0316,-0.0057 -0.0559,0.01214 -0.044,0.143933 0.23725,0.168966 0.3313,0.210746 0.18773,0.08338 0.39038,0.11927 0.5853,0.194183 0.23007,0.08908 0.46308,0.162337 0.70107,0.2286 0.0948,0.02649 0.18681,0.04601 0.2724,0.08632 0.0611,0.02797 0.23725,0.0762 0.2575,0.107675 0.0998,-0.0028 0.12221,0.01584 0.20908,-0.02946 0.0871,-0.04528 0.14173,-0.07823 0.24093,-0.107121 0.2875,-0.08485 0.55935,-0.194734 0.85126,-0.276821 0.33793,-0.09479 0.66941,-0.239275 0.97918,-0.383209 -0.0337,-0.08761 -0.19344,-0.0416 -0.26375,-0.0079 -0.15535,0.07491 -0.29854,0.136021 -0.46382,0.194183 -0.35523,0.123684 -0.73328,0.273142 -1.09422,0.369588 -0.1338,0.03589 -0.31933,0.07841 -0.46014,0.07914 -0.1373,0 -0.24516,-0.09148 -0.36535,-0.143199 -0.16675,-0.07178 -0.32633,-0.108592 -0.50615,-0.142275 -0.0933,-0.01729 -0.17246,-0.02872 -0.25437,-0.06755 -0.0534,-0.02596 -0.0935,-0.06184 -0.1489,-0.08209 -0.24516,-0.09055 -0.54204,-0.201175 -0.79236,-0.256575 0.018,-0.0021 0.0289,-0.02667 -0.023,0.01362"
       style="fill:#21201d;fill-opacity:1;fill-rule:nonzero;stroke:none;stroke-width:0.184057"
       id="path628" />
    <path
       d="m 263.54855,-81.90242 c -0.023,-0.04454 -0.0648,-0.0727 -0.0893,-0.117981 l 0.0497,-0.07197 c -0.0215,0.01509 -0.049,0.02522 -0.0712,0.02301 0,-0.01288 0.006,-0.04454 0.0101,-0.05669 0.0999,-0.01583 0.26744,-0.03957 0.30922,0.07252 0.0552,0.148167 -0.10933,0.161787 -0.20854,0.151112 m -0.35375,-0.207802 c -0.11209,0.04804 -0.39609,0.02448 -0.48959,-0.05835 -0.0433,-0.0381 -0.0584,-0.111355 -0.0619,-0.162339 -0.009,-0.118718 0.0705,-0.145958 0.12498,-0.227312 -10e-4,-0.10344 0.18921,-0.138043 0.3243,-0.104913 0.23726,0.05816 0.36812,0.437874 0.10216,0.55291 m -0.74709,0.353024 c -0.10067,-0.02025 -0.15313,-0.138044 -0.0178,-0.156082 l 0.025,-0.02374 c 0.0604,-0.03019 0.12092,-0.04233 0.18626,-0.02227 0.0129,0.04749 0.0158,0.04104 0.0381,0.0727 -0.006,0.104913 -0.12718,0.150927 -0.23154,0.129392 m -0.18259,-1.003667 c 0.0267,-0.0381 0.0633,-0.05614 0.10786,-0.05908 -0.002,-7.41e-4 -0.004,-7.41e-4 -0.006,-0.0013 h 0.0121 c -0.002,0 -0.004,5.64e-4 -0.006,0.0013 0.0582,0.01012 0.12221,0.01509 0.18111,0.03681 0.0131,0.04013 0.018,0.08264 0.0116,0.127921 -0.074,0.01583 -0.10565,0.08761 -0.18848,0.06405 -0.0913,-0.02595 -0.0524,-0.108594 -0.11209,-0.169701 m 1.24385,-0.04822 c 0.0396,-0.0173 0.0653,-0.03019 0.10933,-0.01362 0.003,-0.0079 0.009,-0.0138 0.0158,-0.01804 0.20044,0.08706 -0.041,0.365171 -0.12737,0.20136 -0.0215,-7.41e-4 -0.0388,-0.0079 -0.0582,-0.01657 -0.0116,-0.0589 -0.007,-0.132337 0.0604,-0.153136 m 0.49033,0.262466 c -10e-4,-0.140988 -0.15534,-0.311425 -0.25161,-0.41413 -0.0777,-0.08283 -0.17982,-0.126632 -0.27608,-0.179088 -0.0848,-0.04675 -0.1697,-0.133074 -0.25381,-0.170438 -0.11504,-0.04951 -0.26026,-0.04749 -0.38045,-0.01785 -0.094,0.02301 -0.28105,0.02871 -0.3221,0.110619 -0.0762,0.03957 -0.14522,0.07914 -0.13583,0.157554 -0.0747,-0.01657 -0.18037,0.08117 -0.22565,0.133625 -0.0799,0.09424 -0.0166,0.14964 -0.0396,0.248111 -0.0158,0.06387 -0.0972,0.116508 -0.11301,0.17964 -0.0136,0.05908 0.009,0.163259 0.0145,0.225839 0.009,0.103441 0.0525,0.151664 0.10068,0.240196 0.0933,0.172462 0.12221,0.346397 0.28603,0.453703 0.14816,0.09773 0.35743,0.140804 0.54149,0.168781 0.27387,0.04105 0.39038,-0.01859 0.60959,-0.150928 0.18406,-0.111355 0.36093,-0.180377 0.40769,-0.406216 0.0143,-0.07123 -7.1e-4,-0.160314 0,-0.232281 7e-4,-0.116324 0.0396,-0.23725 0.0381,-0.347133"
       style="fill:#21201d;fill-opacity:1;fill-rule:nonzero;stroke:none;stroke-width:0.184057"
       id="path630" />
    <path
       d="m 262.39102,-85.396023 c 0.069,-0.002 0.1697,0.263938 0.22289,0.355231 0.1178,-0.07049 0.35873,-0.0173 0.50101,-0.01086 0.0821,0.0044 0.23651,0.04454 0.30627,-0.002 0.0447,-0.03019 0.0972,-0.156081 0.1316,-0.206329 0.0467,-0.06552 0.10491,-0.142461 0.13804,-0.21001 -0.21203,0.0028 -0.42351,-0.0015 -0.63334,-0.01012 -0.1432,-0.0072 -0.28694,-0.0015 -0.42995,-0.0015 -0.097,-7.41e-4 -0.23652,0.03884 -0.3221,-0.0013 0.0245,0.02724 0.0596,0.05522 0.097,0.0646 0.002,0.01086 -0.001,0.02448 -0.0114,0.02227"
       style="fill:#21201d;fill-opacity:1;fill-rule:nonzero;stroke:none;stroke-width:0.184057"
       id="path632" />
    <path
       d="m 263.80881,-81.504855 c 0.12865,0.01583 0.15092,0.46088 0.15313,0.597451 0.004,0.131603 10e-4,0.326337 0.0351,0.439346 0.0532,0.17467 0.21001,0.396829 0.39259,0.21277 -0.14595,-0.171908 -0.0475,-0.52125 -0.16105,-0.743408 -0.0517,-0.09994 -0.0977,-0.156817 -0.12074,-0.265964 -0.0144,-0.07123 10e-4,-0.155345 -0.0512,-0.201359"
       style="fill:#21201d;fill-opacity:1;fill-rule:nonzero;stroke:none;stroke-width:0.184057"
       id="path634" />
    <path
       d="m 262.96104,-79.814651 c 0.0289,-0.02649 0.0166,0.0094 0.0339,0.05614 0.0287,0.07988 0.0245,0.158842 0.0324,0.242404 0.0143,0.161604 0.0374,0.347871 0.0265,0.508184 -0.004,0.06258 -0.0416,0.107858 -0.0567,0.166204 -0.0245,0.09258 0.0179,0.159579 0.0208,0.2494 7e-4,0.0302 -0.0317,0.06607 -0.0324,0.100679 -7e-4,0.02152 0.0188,0.06681 0.0215,0.09203 0.006,0.05614 -0.007,0.1143 -0.001,0.170438 0.0121,0.110617 0.002,0.2286 0.0236,0.339954 0.0145,0.07344 0.0475,0.141725 0.0447,0.217187 -0.004,0.08062 -0.005,0.112829 0.01,0.187742 0.0116,0.05742 0.0309,0.113562 -0.007,0.16105 0.0366,-0.0037 0.0762,-0.01584 0.11227,-0.03313 0.0129,-0.05393 0.0488,-0.103621 0.0589,-0.163258 0.0173,-0.09994 -0.0116,-0.213509 -0.0116,-0.316396 7.1e-4,-0.307009 -0.097,-0.607392 -0.0826,-0.911638 0.007,-0.163812 0.0799,-0.31345 0.0762,-0.4572 -0.003,-0.109329 -0.0525,-0.210009 -0.0423,-0.317133 0.009,-0.08908 0.0337,-0.170254 0.0258,-0.263017 -0.0107,-0.124425 -0.0604,-0.15185 -0.18111,-0.205042 0.0144,0 0.0287,0 0.0438,0"
       style="fill:#21201d;fill-opacity:1;fill-rule:nonzero;stroke:none;stroke-width:0.184057"
       id="path636" />
    <path
       d="m 261.53388,-79.781521 c -0.0179,0.01086 -0.15738,0.213508 -0.17688,0.269646 -0.0201,0.05743 7e-4,0.104912 -0.028,0.168966 -0.0374,0.08338 -0.0826,0.147429 -0.1178,0.230071 -0.026,0.06111 -0.0195,0.138042 -0.0388,0.201359 -0.0296,0.09552 -0.0727,0.181112 -0.10068,0.27535 -0.0353,0.122216 -0.09,0.24222 -0.12369,0.363699 -0.0129,0.04675 -0.0539,0.136017 -0.0237,0.181296 0.0683,0.106388 0.11725,0.0028 0.13584,-0.06258 0.0418,-0.147429 0.0906,-0.285475 0.11798,-0.435666 0.0366,-0.204304 0.12221,-0.359463 0.21773,-0.546467 0.0821,-0.16105 0.16326,-0.345108 0.2078,-0.515546 0.009,-0.03369 0.0339,-0.1524 0.023,-0.183321 -0.0351,-0.09847 -0.0782,-0.05393 -0.0928,0.05319"
       style="fill:#21201d;fill-opacity:1;fill-rule:nonzero;stroke:none;stroke-width:0.184057"
       id="path638" />
    <path
       d="m 264.60043,-79.814651 c 0.15019,0.145959 0.23504,0.345846 0.33351,0.527142 0.0841,0.155159 0.18259,0.310505 0.24167,0.480208 0.0782,0.226575 0.28529,0.506159 0.19197,0.751322 -0.0455,-0.0065 -0.0972,-0.0151 -0.14541,-0.02152 -0.0114,-0.135833 -0.046,-0.283266 -0.1084,-0.405479 -0.0957,-0.184795 -0.15388,-0.394067 -0.24885,-0.577391 -0.0423,-0.08117 -0.10288,-0.140988 -0.15387,-0.217188 -0.0495,-0.07325 -0.0331,-0.112092 -0.0539,-0.187554 -0.0166,-0.06258 -0.0668,-0.09994 -0.092,-0.154609 -0.0265,-0.05687 -0.0158,-0.12295 -0.0359,-0.182587 -0.0173,-0.0021 -0.0381,-0.0044 0.0712,-0.01231"
       style="fill:#21201d;fill-opacity:1;fill-rule:nonzero;stroke:none;stroke-width:0.184057"
       id="path640" />
    <path
       d="m 261.38442,-80.776538 c 0.187,0.0065 0.36314,-0.03164 0.54996,-0.05614 0.20927,-0.02649 0.44155,-0.0151 0.65432,-0.02152 0.4364,-0.01214 0.87427,-0.02723 1.31066,-0.03164 0.24517,-0.0028 0.84335,-0.08761 0.95194,0.172646 -0.10436,0.04601 -0.26467,0.04804 -0.37897,0.05743 -0.23081,0.01877 -0.46658,0.01087 -0.69886,0.01012 -0.30701,-7.06e-4 -0.60315,-0.03313 -0.91365,-0.03313 -0.13087,0 -1.52289,0.08633 -1.50927,-0.05245 0.0245,-0.0037 0.0756,-0.01584 0.0339,-0.04528"
       style="fill:#21201d;fill-opacity:1;fill-rule:nonzero;stroke:none;stroke-width:0.184057"
       id="path642" />
    <path
       d="m 262.28022,-79.836188 c -0.10068,-0.02081 -0.0747,0.291917 -0.0942,0.358179 -0.0359,0.127921 -0.094,0.241484 -0.12295,0.374558 -0.0351,0.155159 -0.046,0.310505 -0.0718,0.470084 -0.0202,0.127367 -0.10141,0.240933 -0.14669,0.35965 -0.0223,0.0589 -0.17191,0.407504 -0.0525,0.444313 0.0999,0.03094 0.12791,-0.251788 0.14448,-0.303509 0.0574,-0.171729 0.18479,-0.312716 0.20559,-0.496037 0.0309,-0.269646 0.0712,-0.508367 0.1143,-0.767888 0.026,-0.158108 0.10786,-0.313454 0.13731,-0.471004 -0.0495,-0.0028 -0.01,-0.0021 -0.11357,0.03164"
       style="fill:#21201d;fill-opacity:1;fill-rule:nonzero;stroke:none;stroke-width:0.184057"
       id="path644" />
    <path
       d="m 263.72745,-79.814651 c -0.028,0.02173 0.0584,0.192709 0.0799,0.251055 0.0295,0.0797 0.0957,0.1351 0.1143,0.219212 0.018,0.07988 0.028,0.127921 0.0569,0.204858 0.0473,0.13013 0.1027,0.260259 0.13362,0.395538 0.0267,0.1178 0.0346,0.241487 0.0683,0.357258 0.0512,0.175409 0.16546,0.475975 0.3186,0.571684 0.14522,-0.0554 -0.002,-0.341612 -0.0504,-0.417812 -0.0747,-0.116509 -0.0826,-0.221421 -0.11578,-0.357255 -0.0294,-0.122216 -0.0876,-0.238725 -0.11282,-0.360938 -0.0101,-0.05043 -0.009,-0.102153 -0.0215,-0.153137 -0.0166,-0.06111 -0.0388,-0.08633 -0.0589,-0.140987 -0.0403,-0.106388 -0.0878,-0.194183 -0.13878,-0.293942 -0.0346,-0.06902 -0.1546,-0.314921 -0.27332,-0.275534"
       style="fill:#21201d;fill-opacity:1;fill-rule:nonzero;stroke:none;stroke-width:0.184057"
       id="path646" />
    <path
       d="m 262.57931,-79.814651 c -0.0641,0.01655 -0.0453,0.644938 -0.069,0.765863 -0.0331,0.166758 -0.0151,0.334988 -0.023,0.505425 -0.007,0.158105 -0.0532,0.315659 -0.10142,0.465113 -0.023,0.07326 -0.13509,0.337195 -0.071,0.405479 0.0985,0.10565 0.11706,-0.118533 0.12644,-0.176879 0.0309,-0.175405 0.0906,-0.327805 0.12516,-0.497508 0.0445,-0.217188 0.13731,-0.408425 0.13878,-0.637759 0.001,-0.185533 -0.0554,-0.377504 -0.0109,-0.554937 0.0151,-0.05982 0.10363,-0.358176 -0.11503,-0.274797"
       style="fill:#21201d;fill-opacity:1;fill-rule:nonzero;stroke:none;stroke-width:0.184057"
       id="path648" />
    <path
       d="m 263.32566,-79.814651 c 0.0935,0.0021 0.0733,0.284738 0.0935,0.362409 0.0309,0.117246 0.0711,0.213508 0.0782,0.330017 0.0173,0.264675 0.0942,0.514808 0.11504,0.782983 0.0145,0.176142 0.0606,0.36885 0.10289,0.537079 0.0223,0.08412 0.0453,0.202833 0.069,0.263204 -10e-4,-0.0072 -7.1e-4,-0.0151 0.003,-0.02152 0.006,-7.06e-4 0.0287,0.0085 0.0295,0.0085 0.0237,-0.03589 0.0265,-0.02007 0.0604,-0.03884 0.005,0.0021 0.0166,0.01379 0.0208,0.01658 0.026,-0.107125 -0.0725,-0.174675 -0.1027,-0.271671 -0.0497,-0.159579 -0.0274,-0.349525 -0.0561,-0.514812 -0.0295,-0.174671 -0.0641,-0.365905 -0.0576,-0.547204 0.005,-0.150926 -0.0574,-0.265963 -0.10344,-0.41413 -0.0453,-0.148717 -0.0309,-0.416891 -0.25234,-0.492537"
       style="fill:#21201d;fill-opacity:1;fill-rule:nonzero;stroke:none;stroke-width:0.184057"
       id="path650" />
    <path
       d="m 264.07183,-79.858458 c 0.0252,0.104916 0.0734,0.189766 0.11577,0.281058 0.0396,0.08559 0.0569,0.171174 0.11153,0.25455 0.13805,0.210012 0.19621,0.47395 0.27682,0.711754 0.0431,0.129575 0.0488,0.219396 0.12443,0.339404 0.0653,0.105096 0.0755,0.299829 0.23356,0.304246 0.0596,-0.129575 -0.11356,-0.248109 -0.13951,-0.36885 -0.0525,-0.250321 -0.0762,-0.502663 -0.19473,-0.734946 -0.0885,-0.173196 -0.23228,-0.306271 -0.31419,-0.480942 -0.0396,-0.08338 -0.0467,-0.184795 -0.21368,-0.306274"
       style="fill:#21201d;fill-opacity:1;fill-rule:nonzero;stroke:none;stroke-width:0.184057"
       id="path652" />
    <path
       d="m 261.84456,-79.803792 c 0.002,0.08485 0.004,0.187738 -0.0109,0.270383 -0.0208,0.108592 -0.11503,0.184792 -0.14871,0.277558 -0.0641,0.174671 -0.0324,0.360938 -0.10436,0.539842 -0.0352,0.08706 -0.0567,0.172646 -0.0928,0.256759 -0.0322,0.07399 -0.0848,0.130866 -0.12571,0.208537 -0.0445,0.08265 -0.0906,0.209829 -0.11356,0.292471 0.048,-0.0014 0.10344,0.0059 0.14301,0.023 -0.026,-0.115034 -0.0101,-0.166755 0.0547,-0.261729 0.10343,-0.151663 0.16325,-0.297621 0.24148,-0.459409 0.11945,-0.242221 0.0834,-0.549963 0.16252,-0.801571 0.0195,-0.06111 0.0396,-0.130866 0.0633,-0.192708 0.0158,-0.0416 0.0272,-0.07694 0.0366,-0.111355 0.0116,-0.04399 -0.0173,-0.06056 0.0339,-0.09203 -0.0361,0.0072 -0.069,0.0021 -0.13952,0.05025"
       style="fill:#21201d;fill-opacity:1;fill-rule:nonzero;stroke:none;stroke-width:0.184057"
       id="path654" />
    <path
       d="m 262.06598,-81.64069 c -0.17191,0.141541 -0.0539,0.471557 -0.10289,0.661319 -0.0272,0.105833 -0.0574,0.209275 -0.0876,0.312162 -0.0339,0.115775 -0.0136,0.247192 -0.0396,0.356521 0.0675,-0.04233 0.15092,-0.01362 0.21995,-0.0309 0.001,-0.01288 0.002,-0.02649 0.003,-0.03957 0.0863,-0.03517 0.0359,-0.113566 0.041,-0.201179 0.005,-0.09148 0.0359,-0.182767 0.0423,-0.271117 0.009,-0.101416 0.028,-0.184792 0.0425,-0.283262 0.0164,-0.112829 0.006,-0.215717 0.0186,-0.325048 -0.003,0.01509 -0.009,0.01086 -0.018,0.01804"
       style="fill:#21201d;fill-opacity:1;fill-rule:nonzero;stroke:none;stroke-width:0.184057"
       id="path656" />
  </g>
</svg>
