<?xml version="1.0" encoding="UTF-8" standalone="no"?>
<!-- Created with Inkscape (http://www.inkscape.org/) -->

<svg
   width="6.8631468mm"
   height="7.9749513mm"
   viewBox="0 0 6.8631468 7.9749513"
   version="1.1"
   id="svg2601"
   inkscape:version="1.1.2 (0a00cf5339, 2022-02-04)"
   sodipodi:docname="m6.svg"
   xmlns:inkscape="http://www.inkscape.org/namespaces/inkscape"
   xmlns:sodipodi="http://sodipodi.sourceforge.net/DTD/sodipodi-0.dtd"
   xmlns="http://www.w3.org/2000/svg"
   xmlns:svg="http://www.w3.org/2000/svg">
  <sodipodi:namedview
     id="namedview2603"
     pagecolor="#ffffff"
     bordercolor="#666666"
     borderopacity="1.0"
     inkscape:pageshadow="2"
     inkscape:pageopacity="0.0"
     inkscape:pagecheckerboard="0"
     inkscape:document-units="mm"
     showgrid="false"
     inkscape:zoom="0.64052329"
     inkscape:cx="-73.377504"
     inkscape:cy="484.75989"
     inkscape:window-width="2560"
     inkscape:window-height="1376"
     inkscape:window-x="0"
     inkscape:window-y="0"
     inkscape:window-maximized="1"
     inkscape:current-layer="layer1" />
  <defs
     id="defs2598" />
  <g
     inkscape:label="Layer 1"
     inkscape:groupmode="layer"
     id="layer1"
     transform="translate(-124.20803,-20.383873)">
    <path
       d="m 130.5803,24.253778 c -0.0136,0.3129 -0.0532,0.694637 -0.17467,0.986553 -0.1489,0.357992 -0.37529,0.764943 -0.6615,1.018022 -0.21995,0.19492 -0.36167,0.475237 -0.58659,0.655062 -0.20503,0.162342 -0.42351,0.350817 -0.6672,0.444317 -0.29707,0.112829 -0.57518,0.175408 -0.89801,0.143012 -0.29265,-0.02946 -0.62837,-0.06534 -0.91108,-0.146692 -0.12074,-0.03517 -0.25878,-0.05393 -0.37087,-0.11062 -0.13731,-0.06976 -0.23154,-0.189946 -0.34308,-0.297071 -0.12645,-0.120741 -0.26302,-0.235775 -0.39683,-0.350075 -0.11209,-0.09571 -0.25234,-0.157554 -0.35449,-0.25805 -0.21277,-0.207804 -0.21056,-0.584567 -0.33498,-0.849979 -0.10712,-0.226392 -0.13013,-0.391125 -0.13013,-0.63905 0,-0.124425 0.003,-0.248846 0,-0.373271 -0.006,-0.314738 -0.0661,-0.594505 0.0727,-0.882188 0.1351,-0.281058 0.30185,-0.543524 0.41836,-0.831758 0.11357,-0.281058 0.27259,-0.509104 0.448,-0.746354 0.0567,-0.06185 0.11853,-0.104179 0.16896,-0.148721 0.31565,-0.283263 0.78077,-0.4918 1.2387,-0.51205 0.27829,-0.01288 0.56081,0 0.83764,0.01379 0.44578,0.02152 0.88071,0.205592 1.25379,0.451492 0.54149,0.357258 1.1728,0.775804 1.34379,1.436388 0.092,0.351737 0.0618,0.635 0.0475,0.997225 m 0.42204,-0.425542 c 0,-0.158104 0.008,-0.274613 -0.0532,-0.4156 -0.11946,-0.277562 -0.17265,-0.559354 -0.26468,-0.845563 -0.0596,-0.185346 -0.0755,-0.1524 -0.20559,-0.222158 -0.1905,-0.102704 -0.37455,-0.276088 -0.54775,-0.41045 -0.12295,-0.09424 -0.26173,-0.175408 -0.39333,-0.255288 -0.15608,-0.0935 -0.27111,-0.202649 -0.41412,-0.314187 -0.26173,-0.202096 -0.7758,-0.386154 -1.12164,-0.381 -0.30185,0.005 -0.59597,0.05319 -0.90445,0.05319 -0.21001,0 -0.41763,-0.0302 -0.60757,0.06111 -0.12424,0.05963 -0.22289,0.140804 -0.33922,0.215716 -0.15461,0.09921 -0.34161,0.140067 -0.46805,0.278113 -0.021,0.02244 -0.0361,0.05761 0.007,0.05835 -0.26099,0.05669 -0.58161,0.581621 -0.72113,0.757029 -0.10786,0.135834 -0.12939,0.230808 -0.18773,0.383208 -0.069,0.181297 -0.17099,0.372534 -0.25529,0.551438 -0.0775,0.164733 -0.20265,0.317133 -0.2702,0.478921 -0.0418,0.100679 -0.0418,0.262466 -0.046,0.369587 -0.018,0.439163 0.14522,0.854763 0.25657,1.278283 0.0985,0.37603 0.16676,0.735493 0.40051,1.056859 0.097,0.133075 0.28768,0.304246 0.4364,0.394067 0.15534,0.0935 0.26246,0.196942 0.39977,0.332041 0.13951,0.138042 0.28252,0.260996 0.46382,0.341613 0.15737,0.06976 0.32854,0.08485 0.48885,0.130863 0.0834,0.02374 0.15535,0.04675 0.24222,0.05319 0.30921,0.02649 0.71469,0.205592 1.01231,0.1316 0.22142,-0.0554 0.44008,-0.161787 0.66371,-0.223629 0.15166,-0.04252 0.31841,-0.05614 0.45369,-0.125159 0.056,-0.02872 0.10712,-0.06976 0.16676,-0.09921 0.0985,-0.05025 0.21424,-0.06829 0.30185,-0.139516 0.0569,-0.04675 0.10068,-0.118534 0.15976,-0.168967 0.13289,-0.113562 0.26302,-0.216267 0.35652,-0.372346 0.0747,-0.124425 0.10491,-0.261733 0.19694,-0.368117 0.12221,-0.14375 0.29062,-0.250871 0.38118,-0.419837 0.20485,-0.382471 0.4537,-0.831204 0.47873,-1.275521 0.0166,-0.309217 -0.0668,-0.583833 -0.0668,-0.888633"
       style="fill:#21201d;fill-opacity:1;fill-rule:nonzero;stroke:none;stroke-width:0.184057"
       id="path606" />
    <path
       d="m 127.98198,27.567557 c -0.0223,0.107125 0.0158,0.231546 -0.002,0.340141 -0.0136,0.0762 -0.0339,0.189026 -0.12295,0.222892 -0.051,0.01859 -0.31345,-0.01161 -0.35376,-0.03736 -0.16178,-0.101417 -0.2516,-0.927467 -0.14871,-1.086496 0.13657,-0.209825 0.38817,-0.311975 0.56873,-0.08982 0.0725,0.08927 0.0762,0.242404 0.0992,0.357438 0.0302,0.145221 -0.0138,0.166021 -0.0403,0.293204 m 0.26025,-0.492354 c -0.0871,-0.272588 -0.11282,-0.340138 -0.46455,-0.360384 -0.13068,-0.0072 -0.75408,-0.11062 -0.68359,0.21645 0.0171,0.436401 -0.0605,0.855688 0.13087,1.276259 0.22491,0.02007 0.64419,0.2459 0.89138,0.10565 0.14448,-0.08191 0.11503,-0.399775 0.14172,-0.552913 0.0388,-0.219946 0.0547,-0.468058 -0.0158,-0.685062"
       style="fill:#21201d;fill-opacity:1;fill-rule:nonzero;stroke:none;stroke-width:0.184057"
       id="path608" />
    <path
       d="m 127.87412,26.280624 c -0.0324,0.123687 -0.0166,0.273879 -0.046,0.399775 -0.0208,0.08779 -0.0525,0.219212 -0.13233,0.248112 -0.0445,0.01637 -0.26173,-0.0497 -0.29265,-0.08412 -0.12221,-0.138779 -0.0906,-1.122383 0.0166,-1.295583 0.0475,-0.118717 0.18626,-0.19418 0.31566,-0.19418 0.25602,-7.05e-4 0.20485,0.425542 0.21055,0.585305 0.007,0.173933 -0.0322,0.193996 -0.0718,0.340688 m 0.28326,-0.549963 c -0.0381,-0.330754 -0.051,-0.413396 -0.34437,-0.477446 -0.10859,-0.02374 -0.61898,-0.217191 -0.6026,0.175405 -0.0416,0.516283 -0.1616,1.000908 -0.0559,1.517741 0.18681,0.05043 0.50965,0.363883 0.73622,0.226575 0.1316,-0.07914 0.14798,-0.456646 0.1905,-0.633525 0.0618,-0.254367 0.10638,-0.544996 0.0762,-0.80875"
       style="fill:#21201d;fill-opacity:1;fill-rule:nonzero;stroke:none;stroke-width:0.184057"
       id="path610" />
    <path
       d="m 127.87265,24.901665 c -0.0114,0.109329 0.0396,0.229334 0.0309,0.3394 -0.006,0.07694 -0.0136,0.191975 -0.0999,0.235042 -0.0482,0.02374 -0.31271,0.01951 -0.35523,-0.0014 -0.17099,-0.08633 -0.34289,-0.901517 -0.25657,-1.069746 0.0423,-0.153871 0.11356,-0.126629 0.17963,-0.163996 0.0388,-0.02226 0.0302,-0.09424 0.0871,-0.100679 0.0698,-0.0086 0.25235,0.07915 0.29045,0.117983 0.0806,0.0819 0.0992,0.235042 0.13454,0.34658 0.0445,0.142275 0.003,0.167491 -0.0109,0.296887 m 0.21,-0.517758 c -0.1143,-0.263017 -0.14669,-0.327805 -0.49823,-0.312713 -0.13087,0.0057 -0.76145,-0.03589 -0.65856,0.284 0.0604,0.433642 0.0243,0.859184 0.25658,1.260429 0.22657,-0.0014 0.66573,0.18185 0.89801,0.01658 0.13583,-0.09645 0.074,-0.4099 0.0863,-0.565242 0.0166,-0.223446 0.007,-0.472295 -0.0841,-0.683041"
       style="fill:#21201d;fill-opacity:1;fill-rule:nonzero;stroke:none;stroke-width:0.184057"
       id="path612" />
    <path
       d="m 127.74675,21.211853 c -0.009,0.108595 0.0447,0.227866 0.0396,0.337933 -0.004,0.07693 -0.01,0.191971 -0.0948,0.234304 -0.0475,0.02374 -0.31216,0.02247 -0.35597,7.06e-4 -0.17246,-0.08338 -0.36443,-0.894338 -0.28105,-1.062567 0.0388,-0.153137 0.11062,-0.12737 0.17614,-0.16547 0.0388,-0.02226 0.0272,-0.09258 0.0849,-0.100493 0.069,-0.0086 0.25381,0.07749 0.29265,0.115771 0.0826,0.08043 0.10565,0.232834 0.14301,0.344371 0.0475,0.140805 0.006,0.166021 -0.004,0.295413 m 0.1986,-0.517571 c -0.12093,-0.260992 -0.15461,-0.325046 -0.50616,-0.307742 -0.13086,0.0072 -0.76291,-0.02889 -0.65284,0.288234 0.071,0.431433 0.046,0.856237 0.28675,1.253987 0.22731,-0.0037 0.67089,0.175405 0.89949,0.0092 0.13307,-0.09626 0.0641,-0.408975 0.0727,-0.564321 0.0114,-0.222158 -0.004,-0.471004 -0.0999,-0.679358"
       style="fill:#21201d;fill-opacity:1;fill-rule:nonzero;stroke:none;stroke-width:0.184057"
       id="path614" />
    <path
       d="m 127.74252,22.520323 c -0.0359,0.102888 -0.023,0.230809 -0.0561,0.335167 -0.023,0.07399 -0.0582,0.183325 -0.13878,0.204858 -0.0445,0.01214 -0.26025,-0.05098 -0.2897,-0.08191 -0.11853,-0.120925 -0.0626,-0.949184 0.0497,-1.092196 0.13804,-0.178354 0.37529,-0.256579 0.49032,-0.01658 0.046,0.09718 0.0237,0.249584 0.0258,0.365355 0.001,0.147246 -0.0381,0.163075 -0.0812,0.285291 m 0.29688,-0.454258 c -0.0295,-0.280504 -0.0401,-0.350259 -0.3313,-0.414866 -0.10786,-0.02374 -0.61328,-0.205592 -0.6061,0.126449 -0.0561,0.433642 -0.18774,0.838384 -0.095,1.278467 0.18553,0.04877 0.49971,0.325596 0.72905,0.218475 0.13435,-0.06258 0.16031,-0.380263 0.20706,-0.528429 0.0675,-0.212771 0.12074,-0.455913 0.0963,-0.680096"
       style="fill:#21201d;fill-opacity:1;fill-rule:nonzero;stroke:none;stroke-width:0.184057"
       id="path616" />
    <path
       d="m 127.83823,23.712465 c -0.0368,0.103442 -0.0158,0.231546 -0.0497,0.336458 -0.0237,0.07344 -0.0589,0.182584 -0.1524,0.203567 -0.0524,0.01143 -0.30847,-0.05466 -0.3451,-0.08559 -0.14596,-0.123688 -0.12074,-0.954892 0.003,-1.096434 0.0775,-0.138779 0.14081,-0.09571 0.21424,-0.116508 0.0431,-0.01231 0.051,-0.08411 0.10786,-0.07693 0.069,0.0079 0.22565,0.136571 0.25436,0.183321 0.0591,0.09773 0.041,0.250134 0.049,0.36738 0.009,0.147429 -0.0374,0.162524 -0.0812,0.284737 m 0.32633,-0.452229 c -0.049,-0.281058 -0.0648,-0.352288 -0.41045,-0.420575 -0.1281,-0.02522 -0.73125,-0.213505 -0.70677,0.119271 -0.044,0.435112 -0.17909,0.83912 -0.0475,1.2827 0.22068,0.05098 0.60389,0.332225 0.86856,0.227862 0.15442,-0.06111 0.16896,-0.380262 0.217,-0.527692 0.069,-0.212037 0.11872,-0.456466 0.0792,-0.681566"
       style="fill:#21201d;fill-opacity:1;fill-rule:nonzero;stroke:none;stroke-width:0.184057"
       id="path618" />
  </g>
</svg>
