<?xml version="1.0" encoding="UTF-8" standalone="no"?>
<!-- Created with Inkscape (http://www.inkscape.org/) -->

<svg
   width="7.684473mm"
   height="7.4752178mm"
   viewBox="0 0 7.684473 7.4752178"
   version="1.1"
   id="svg2768"
   inkscape:version="1.1.2 (0a00cf5339, 2022-02-04)"
   sodipodi:docname="m7.svg"
   xmlns:inkscape="http://www.inkscape.org/namespaces/inkscape"
   xmlns:sodipodi="http://sodipodi.sourceforge.net/DTD/sodipodi-0.dtd"
   xmlns="http://www.w3.org/2000/svg"
   xmlns:svg="http://www.w3.org/2000/svg">
  <sodipodi:namedview
     id="namedview2770"
     pagecolor="#ffffff"
     bordercolor="#666666"
     borderopacity="1.0"
     inkscape:pageshadow="2"
     inkscape:pageopacity="0.0"
     inkscape:pagecheckerboard="0"
     inkscape:document-units="mm"
     showgrid="false"
     inkscape:zoom="0.64052329"
     inkscape:cx="-604.19349"
     inkscape:cy="481.63744"
     inkscape:window-width="2560"
     inkscape:window-height="1376"
     inkscape:window-x="0"
     inkscape:window-y="0"
     inkscape:window-maximized="1"
     inkscape:current-layer="layer1" />
  <defs
     id="defs2765" />
  <g
     inkscape:label="Layer 1"
     inkscape:groupmode="layer"
     id="layer1"
     transform="translate(-264.65605,-21.046821)">
    <path
       d="m 270.61646,27.743319 c 0.11945,-0.177617 0.3186,-0.311429 0.47891,-0.430696 0.006,-0.005 0.0136,-0.01143 0.0208,-0.01658 0.1143,-0.146696 0.22069,-0.300567 0.35082,-0.433458 0.10509,-0.106384 0.23006,-0.1905 0.33516,-0.297067 0.14227,-0.142279 0.15884,-0.29118 0.21277,-0.472292 0.0331,-0.110067 0.10344,-0.171912 0.16105,-0.264492 0.0883,-0.142462 0.1316,-0.290629 0.16455,-0.445791 -0.0869,0.08117 -0.22566,0.144487 -0.3048,0.1905 -0.2494,0.141541 -0.37161,0.05467 -0.478,-0.207063 -0.0727,-0.176879 -0.18405,-0.42775 -0.21939,-0.624141 -0.0337,-0.188292 0.17264,-0.397563 0.12516,-0.537817 -0.0287,-0.08485 -0.1143,-0.100679 -0.16749,-0.148721 -0.0992,-0.09 -0.20136,-0.194917 -0.26615,-0.30995 -0.16602,-0.293942 -0.21571,-0.572238 -0.47799,-0.803046 -0.0151,0.0035 -0.0309,0.0035 -0.046,-0.0021 -0.22086,-0.08688 -0.45369,0.03313 -0.6672,-0.04675 -0.021,-0.0079 -0.0368,-0.01658 -0.0497,-0.02579 -0.0834,0.01933 -0.18259,-0.01161 -0.27388,-0.0519 -0.15608,0.03239 -0.31934,0.01732 -0.38394,-0.128655 -0.0539,-0.01658 -0.10786,-0.0416 -0.16031,-0.0797 -0.2402,-0.171171 -0.35947,-0.556588 -0.36462,-0.836909 -0.005,-0.268908 0.0316,-0.527142 -0.24001,-0.67807 -0.0396,-0.02226 -0.0813,-0.03736 -0.12516,-0.04601 -0.17467,0.0094 -0.35302,0.07399 -0.52916,0.08062 -0.2251,0.0085 -0.39112,0.122951 -0.60186,0.163076 -0.0668,0.01305 -0.13363,0.0059 -0.20118,0.0021 -0.0475,-0.0028 -0.0878,-0.0014 -0.12442,0.0028 -0.0173,0.0028 -0.0346,0.0065 -0.0524,0.0092 -0.0648,0.01453 -0.12442,0.03884 -0.20504,0.07344 -0.10271,0.04307 -0.18903,0.05098 -0.29118,0.0381 -0.0387,0.01288 -0.0775,0.02798 -0.11356,0.04528 -0.13657,0.06479 -0.27461,0.111355 -0.41413,0.157367 -0.18037,0.05982 -0.3451,0.237437 -0.32486,0.447263 0.0265,0.283262 0.34787,0.315658 0.57371,0.319891 0.21847,0.0037 0.39976,-0.06037 0.58088,0.08633 0.10141,0.08135 0.34161,0.296884 0.37381,0.423517 0.0547,0.222158 -0.23927,0.394621 -0.41486,0.422042 -0.13583,0.02081 -0.42922,-0.023 -0.32707,-0.239458 -0.0547,0.0554 -0.0618,0.16602 -0.0445,0.265966 0.0295,0.17835 0.14228,0.200621 0.31198,0.197859 0.37823,-0.0052 0.9512,-0.430693 0.61475,-0.830467 -0.29192,-0.348054 -0.63058,-0.639234 -1.12735,-0.657088 -0.0388,-0.171908 0.0906,-0.317867 0.26246,-0.317133 0.069,0 0.12793,0.03443 0.19474,0.03313 0.0885,-0.0021 0.17835,-0.06111 0.25528,-0.08633 0.40548,-0.1351 0.78868,-0.182583 1.20502,-0.241667 0.22436,-0.03147 0.26817,-0.01859 0.37971,0.163259 0.0725,0.119454 0.12865,0.289708 0.12865,0.433641 7.1e-4,0.204121 -0.0381,0.3429 0.0409,0.550701 0.0821,0.214241 0.23449,0.153137 0.36609,0.272404 0.092,0.08283 0.0675,0.298358 0.14596,0.395541 0.0718,0.08835 0.23135,0.137309 0.34216,0.158108 0.17908,0.03387 0.53634,0.04031 0.65929,-0.122216 -0.0295,0.155346 0.18111,0.159579 0.26743,0.181113 0.14448,0.03681 0.3013,0.112275 0.40474,0.233754 0.13675,0.158841 0.11798,0.35155 0.33222,0.458671 -0.0569,0.147433 -0.11798,0.46162 -0.072,0.6177 0.0504,0.166758 0.12442,0.05246 0.0173,0.217741 -0.0618,0.09645 -0.12075,0.14375 -0.15167,0.258233 -0.0712,0.261546 -0.0151,0.529717 0.21645,0.643467 -0.24884,-0.101417 -0.29559,-0.260996 -0.38689,-0.550887 -0.0302,-0.09626 -0.0697,-0.201175 -0.0769,-0.299092 -0.006,-0.09479 0.0245,-0.166021 -0.0237,-0.262283 -0.16896,-0.343821 -0.8023,-0.318605 -1.11004,-0.467325 -0.12792,-0.06258 -0.13308,-0.1697 -0.21351,-0.298542 -0.10638,-0.170988 -0.24019,-0.298358 -0.43566,-0.37235 -0.19565,-0.07399 -0.38044,-0.10215 -0.54646,0.03094 -0.0747,0.0589 -0.074,0.143012 -0.19768,0.145955 -0.34013,0.0065 -0.29909,-0.487384 -0.11871,-0.471555 -0.0589,-0.02374 -0.10915,-0.0727 -0.19124,-0.03608 -0.12295,0.05614 -0.15534,0.259521 -0.13362,0.371796 0.0646,0.337196 0.32854,0.191975 0.50689,0.393883 0.18829,-0.156633 0.18037,-0.362962 0.42774,-0.189025 0.0359,-0.118717 0.31051,-0.04528 0.39609,0.0057 0.26596,0.158291 0.0151,0.321367 0.0999,0.524196 0.0366,0.08559 0.17043,0.142279 0.25528,0.159579 0.10491,0.02081 0.1559,-0.02872 0.23798,-0.03238 0.20486,-0.0099 0.32137,0.330013 0.50966,0.260255 7e-4,0.178354 0.0863,0.34732 0.14025,0.512787 0.0532,0.163075 0.0129,0.243692 7e-4,0.408242 -0.0109,0.150375 7.1e-4,0.309216 0.11578,0.424987 0.0582,0.05816 0.13877,0.07473 0.19988,0.124425 -0.1143,-0.0151 -0.24884,0.05025 -0.3451,0.10565 -0.25879,0.148167 -0.45223,0.31713 -0.77874,0.259521 -0.2113,-0.03737 -0.44708,-0.151666 -0.37677,-0.378241 0.0403,-0.132151 0.15387,-0.259521 0.29486,-0.235776 -0.0438,0.574442 0.27038,0.01013 0.5126,0.06902 0.1489,-0.179087 0.14448,-0.365171 -0.009,-0.529904 -0.10196,-0.109329 -0.18755,-0.155345 -0.14724,-0.319892 0.0158,-0.06258 0.0329,-0.110066 0.071,-0.140987 -0.0841,0.0079 -0.16601,-0.02007 -0.21276,0.136571 -0.0733,0.248108 0.14669,0.253816 0.22436,0.42867 0.0646,0.144484 -0.0698,0.330017 -0.2286,0.316213 -0.16546,-0.01436 -0.0928,-0.234308 -0.284,-0.196208 -0.35817,0.06976 -0.5818,0.717458 -0.31713,0.954158 0.2229,0.197675 0.46659,0.27535 0.74911,0.217004 0.1524,-0.03164 0.65212,-0.268908 0.69813,0.05117 -0.0646,-0.01305 -0.13216,-0.05337 -0.20136,-0.04399 -0.11135,0.01584 -0.28381,0.179091 -0.37235,0.238724 -0.27387,0.187004 -0.77137,0.494746 -0.9742,0.06037 -0.15019,-0.319158 -0.44137,-0.703837 -0.35449,-1.056858 0.0856,-0.348608 0.18847,-0.702367 0.12221,-1.067721 -0.0216,-0.117062 -0.074,-0.347134 -0.23007,-0.365908 -0.15443,-0.01877 -0.33351,0.115771 -0.51683,0.09203 -0.48039,-0.06184 -0.17467,-0.606838 -0.66371,-0.621933 -0.40768,-0.01214 -0.77432,0.145958 -1.069,-0.212771 -0.18553,-0.225838 -0.31933,-0.575917 -0.63849,-0.646409 0,0 -0.0683,-0.279587 -0.0683,-0.303329 0,-0.06902 0.0252,-0.138779 0.064,-0.201358 -0.0396,-0.126634 -0.13952,-0.213509 -0.27829,-0.09774 -0.11651,0.09774 -0.24443,0.239463 -0.29836,0.383946 -0.008,0.02226 -0.023,0.03514 -0.0403,0.03957 -0.018,0.09202 -0.0173,0.184055 0.006,0.269459 0.0166,0.06405 0.0906,0.115774 0.095,0.177616 0.006,0.09424 -0.0834,0.10565 -0.12019,0.185529 -0.14154,0.312717 0.2367,0.388179 0.42352,0.463826 -0.002,0.0079 -0.003,0.01711 -0.004,0.02649 0.13731,0.07914 0.10786,0.277559 0.0747,0.42775 -0.0396,0.179825 -0.0646,0.309951 0.0532,0.472476 0.0633,0.08687 0.15461,0.145221 0.23302,0.217004 0.069,0.06332 0.12497,0.189949 0.1316,0.299829 0.007,0.112275 -0.12884,0.167495 -0.17265,0.171912 -0.37234,0.03514 -0.59744,-0.478183 -0.23725,-0.413395 -0.49677,-0.369588 -0.47229,0.777829 0.34364,0.601687 0.1719,-0.03737 0.24369,-0.172463 0.26669,-0.189766 0.023,-0.03883 -0.0559,-0.209272 -0.0524,-0.256576 0.0166,-0.197862 -0.19197,-0.366829 -0.25952,-0.530637 -0.0567,-0.137309 -0.0252,-0.221425 0.0123,-0.366646 0.0466,-0.182767 0.0453,-0.314921 -0.0468,-0.483887 -0.0368,-0.06773 -0.0821,-0.113013 -0.1316,-0.162525 -0.023,-0.02226 -0.0999,-0.02374 -0.11503,-0.04528 -0.0475,-0.06626 7.1e-4,-0.175408 0.023,-0.264675 0.0913,0.189763 0.23431,0.394067 0.34216,0.417075 0.13805,0.02946 0.0813,-0.100679 0.21222,0.0381 0.0653,0.07049 0.0933,0.142276 0.17743,0.196942 0.12516,0.08062 0.32283,0.14025 0.46309,0.184792 0.072,0.023 0.16252,0.06111 0.23725,0.05172 0.074,-0.0086 0.12073,-0.08191 0.20706,-0.08559 0.11209,0.173384 0.0769,0.390571 0.28179,0.521438 0.0979,0.06166 0.22086,0.06037 0.33075,0.06958 0.16822,0.01305 0.41983,-0.0021 0.52124,0.156816 0.0626,0.09921 0.0252,0.246638 0.0245,0.35155 -0.001,0.184796 0.0366,0.347317 0.0539,0.525671 0.0215,0.216267 0.023,0.422779 0.0769,0.634817 0.0403,0.156629 -0.004,0.265962 0.009,0.4156 0.0166,0.181113 0.26099,0.324125 0.41339,0.399038 -0.22363,0.03164 -0.64493,0.255104 -0.83248,-0.0044 -0.0526,-0.07399 -0.0173,-0.195471 -0.009,-0.276825 0.0216,-0.2078 0.0309,-0.399771 -0.007,-0.6061 -0.0552,-0.310508 -0.11632,-0.75335 -0.41045,-0.936121 -0.12589,-0.07822 -0.34363,-0.197675 -0.49455,-0.166754 -0.2783,0.05761 -0.46161,0.373083 -0.58254,0.591746 -0.0898,0.163258 -0.0223,0.301303 0.002,0.471004 0.0267,0.177433 -0.0114,0.366642 0.0589,0.535608 0.0957,0.227863 0.43511,0.415604 0.6731,0.250134 0.17964,-0.125159 0.21571,-0.441371 0.01,-0.560088 -0.11779,-0.06681 -0.23504,-0.01933 -0.19325,0.138779 -0.002,-0.0151 0.005,-0.05319 0.006,-0.07325 0.21571,-0.03957 0.18111,0.224183 0.0257,0.284 -0.22491,0.08614 -0.26301,-0.259704 -0.25234,-0.406213 10e-4,-0.01877 0.004,-0.0381 0.008,-0.05835 -0.007,-0.01288 -0.009,-0.02872 -0.004,-0.04822 0.0265,-0.09056 0.0173,-0.167492 -0.0525,-0.235042 -0.041,-0.03957 -0.0245,-0.132338 0.0431,-0.128658 0.12442,0.0079 0.22786,-0.140988 0.32928,-0.196388 0.12589,-0.06829 0.22584,-0.0151 0.2862,0.103625 0.0374,0.02448 0.0675,0.0589 0.0861,0.107121 0.002,0.0042 0.003,0.0086 0.004,0.01214 0.0863,0.08062 0.14099,0.201362 0.1524,0.325784 0.018,0.196204 0.0705,0.416337 0.0653,0.610337 -0.005,0.177616 -0.0861,0.343083 -0.12865,0.510575 -0.0423,0.165284 -0.0438,0.38965 0.16749,0.443579 0.10657,0.02724 0.21866,0 0.33369,0.03313 0.097,0.02797 0.19842,0.08687 0.29909,0.09773 0.0871,0.0094 0.27903,0.0072 0.34014,-0.07473 0.0574,-0.02889 0.13289,-0.0309 0.1962,-0.05761 0.0755,-0.03238 0.1143,-0.07546 0.19768,-0.07988 0.10068,-0.0057 0.21498,0.07767 0.31492,0.04252 0.0777,-0.02798 0.18921,-0.139517 0.27332,-0.179825 0.0812,-0.03939 0.16381,-0.09203 0.26026,-0.104179 0.0703,-0.0094 0.16602,0.02946 0.23853,-0.005 0.0848,-0.04105 0.1259,-0.136758 0.22087,-0.176146 0.0725,-0.0302 0.1697,-0.03957 0.25731,-0.03534 0.0453,-0.03957 0.0977,-0.07252 0.1524,-0.104912"
       style="fill:#21201d;fill-opacity:1;fill-rule:nonzero;stroke:none;stroke-width:0.184057"
       id="path620" />
    <path
       d="m 271.32544,24.601448 c 0.0337,-0.07565 0.0804,-0.14467 0.11577,-0.22087 0.0848,-0.184055 0.12498,-0.388176 0.16252,-0.587326 0.0683,-0.365908 -0.0841,-0.645678 -0.28768,-0.944033 -0.2251,-0.329283 -0.32633,-0.672183 -0.41633,-1.053366 -0.0309,-0.127921 -0.0488,-0.213505 -0.1581,-0.286763 -0.0497,-0.03387 -0.13805,-0.09994 -0.19565,-0.113562 -0.0446,-0.01012 -0.1005,0.01933 -0.14596,0.01859 -0.0589,-0.0021 -0.11357,-0.01658 -0.17172,-0.01069 -0.14302,0.01214 -0.1143,0.08761 -0.12664,0.212033 -0.0473,0.462354 -0.91015,0.143013 -0.6383,-0.184058 0.0539,-0.06608 0.24074,-0.108596 0.25436,0.01803 0.0101,0.08835 -0.14871,0.153137 -0.14006,0.04602 -0.0101,0.06239 0.0381,0.097 0.10196,0.107855 0.11504,0.02007 0.17044,-0.217921 0.14817,-0.279029 -0.051,-0.13878 -0.2667,-0.140254 -0.38615,-0.0057 -0.0315,0.03589 -0.0431,0.05099 -0.0812,0.08191 -0.0641,0.05393 -0.092,0.0554 -0.10068,0.133075 -0.0107,0.08982 0.0898,0.302588 0.14743,0.365905 0.0856,0.09277 0.33572,0.197679 0.47229,0.157371 0.0583,-0.01711 0.11651,-0.08761 0.16031,-0.120742 0.0606,-0.04454 0.13013,-0.06534 0.17909,-0.123688 0.0359,-0.0416 0.0403,-0.120741 0.0799,-0.156633 0.0755,-0.06976 0.31989,0.01859 0.35431,0.115771 0.0274,0.0762 -0.0446,0.122217 0.005,0.207804 0.0532,0.09055 0.0928,0.121475 0.11061,0.232096 0.0302,0.187738 0.10657,0.3602 0.18277,0.540762 0.0186,0.04528 0.0466,0.08411 0.046,0.132888 -10e-4,0.05687 -0.0705,0.113013 -0.0641,0.171175 0.004,0.03884 0.0567,0.08264 0.0769,0.116508 0.0381,0.06608 0.0698,0.149455 0.0849,0.222896 0.0351,0.176879 -0.0863,0.350079 -0.0942,0.515546"
       style="fill:#21201d;fill-opacity:1;fill-rule:nonzero;stroke:none;stroke-width:0.184057"
       id="path622" />
  </g>
</svg>
