<?xml version="1.0" encoding="UTF-8" standalone="no"?>
<!-- Created with Inkscape (http://www.inkscape.org/) -->

<svg
   width="8.3921204mm"
   height="8.3447065mm"
   viewBox="0 0 8.3921204 8.3447065"
   version="1.1"
   id="svg3102"
   inkscape:version="1.1.2 (0a00cf5339, 2022-02-04)"
   sodipodi:docname="m9.svg"
   xmlns:inkscape="http://www.inkscape.org/namespaces/inkscape"
   xmlns:sodipodi="http://sodipodi.sourceforge.net/DTD/sodipodi-0.dtd"
   xmlns="http://www.w3.org/2000/svg"
   xmlns:svg="http://www.w3.org/2000/svg">
  <sodipodi:namedview
     id="namedview3104"
     pagecolor="#ffffff"
     bordercolor="#666666"
     borderopacity="1.0"
     inkscape:pageshadow="2"
     inkscape:pageopacity="0.0"
     inkscape:pagecheckerboard="0"
     inkscape:document-units="mm"
     showgrid="false"
     inkscape:zoom="0.64052329"
     inkscape:cx="-747.82605"
     inkscape:cy="291.16818"
     inkscape:window-width="2560"
     inkscape:window-height="1376"
     inkscape:window-x="0"
     inkscape:window-y="0"
     inkscape:window-maximized="1"
     inkscape:current-layer="layer1" />
  <defs
     id="defs3099" />
  <g
     inkscape:label="Layer 1"
     inkscape:groupmode="layer"
     id="layer1"
     transform="translate(-302.71853,-71.420152)">
    <path
       d="m 309.75041,75.48343 c -0.2078,0.06037 -0.43567,0.09847 -0.61402,0.216266 -0.19049,0.125896 -0.37234,0.248109 -0.56008,0.385417 -0.18534,0.135837 -0.40179,0.163259 -0.51977,0.375296 -0.1178,0.210746 -0.28032,0.393329 -0.40474,0.615488 -0.15093,0.270933 -0.27535,0.592483 -0.46014,0.83047 -0.10639,0.138042 -0.19124,0.317684 -0.2459,0.499534 -0.0366,-0.140067 -0.11283,-0.233571 -0.1697,-0.387442 -0.0589,-0.158842 -0.0755,-0.326334 -0.18111,-0.459409 -0.14964,-0.187741 -0.28474,-0.425725 -0.40051,-0.659295 -0.0576,-0.03663 -0.10859,-0.08264 -0.14669,-0.14375 -0.0403,-0.06553 -0.0646,-0.139517 -0.0871,-0.214979 -0.11706,-0.138042 -0.29467,-0.153138 -0.37879,-0.314188 -0.0418,-0.03607 -0.0849,-0.07197 -0.13233,-0.107858 -0.17835,-0.138042 -0.38818,-0.195654 -0.57297,-0.29265 -0.43934,-0.22805 -0.83838,-0.3337 -1.30569,-0.422783 0.45517,-0.09203 0.93905,-0.250871 1.3668,-0.452967 0.18552,-0.0878 0.39535,-0.14025 0.5737,-0.265225 0.27756,-0.194183 0.44873,-0.304984 0.6061,-0.61273 0.13086,-0.255104 0.35523,-0.532662 0.53928,-0.742674 0.10491,-0.120005 0.0604,-0.148717 0.11927,-0.292651 0.0569,-0.139333 0.13307,-0.224183 0.1697,-0.351553 0.0547,0.164733 0.13951,0.327257 0.2459,0.451495 0.18479,0.216454 0.30921,0.508367 0.46014,0.753534 0.12442,0.201358 0.28694,0.366641 0.40474,0.557879 0.11798,0.192708 0.33443,0.217187 0.51977,0.340137 0.18774,0.125163 0.36959,0.23578 0.56008,0.349342 0.17835,0.107308 0.40622,0.141725 0.61402,0.196392 0.10141,0.02649 0.20927,0.05025 0.32062,0.07123 -0.11135,0.02156 -0.21921,0.04804 -0.32062,0.07767 m 1.35741,-0.09148 c -0.01,0 -0.0208,0 -0.0322,0 -0.0705,-0.01658 -0.14393,-0.02741 -0.21718,-0.03534 -0.0935,-0.02081 -0.17983,-0.04675 -0.23375,-0.06332 -0.25731,-0.08117 -0.51407,-0.130129 -0.77635,-0.182583 -0.21792,-0.04381 -0.51849,-0.08559 -0.70972,-0.209275 -0.14522,-0.09405 -0.25805,-0.260258 -0.41983,-0.343637 -0.11946,-0.06184 -0.23375,-0.06976 -0.33149,-0.162522 -0.0453,-0.04307 -0.10418,-0.102704 -0.15534,-0.1524 -0.14798,-0.14007 -0.30259,-0.319158 -0.43861,-0.477262 -0.14375,-0.166204 -0.079,-0.38045 -0.22271,-0.558066 -0.0928,-0.113563 -0.20577,-0.198413 -0.29982,-0.311976 -0.0965,-0.113566 -0.0999,-0.147433 -0.12737,-0.272408 -0.0388,-0.176879 -0.0725,-0.373267 -0.13878,-0.5588 -0.004,-0.01069 -0.007,-0.02226 -0.0107,-0.03295 0.0107,-0.06828 0.0186,-0.133809 0,-0.210746 -0.0289,-0.121479 -0.0784,-0.265225 -0.0992,-0.400509 -0.005,0 -0.0101,0 -0.0151,0.0018 -7e-4,0.0021 -7e-4,0.0044 -0.001,0.0057 l 7.1e-4,-0.0057 c -0.003,0 -0.004,0 -0.007,0 -0.003,0.01288 -0.004,0.02596 -0.007,0.04031 -0.003,0.0065 -0.006,0.01362 -0.009,0.02078 0.002,0.0018 0.004,0.0021 0.006,0.0037 -0.003,0.023 -0.005,0.0473 -0.006,0.07252 -0.0302,0.148904 -0.0777,0.28842 -0.0777,0.456649 0,0.199151 -7.1e-4,0.324863 -0.0755,0.493826 -0.17338,0.394804 -0.28179,0.728317 -0.58604,1.064041 -0.097,0.107855 -0.17117,0.280504 -0.26448,0.412104 -0.0648,0.09056 -0.1813,0.131601 -0.23946,0.224367 -0.1108,0.17743 -0.33222,0.315475 -0.51628,0.425542 -0.40253,0.238721 -0.89875,0.4745 -1.34379,0.547941 -0.19197,0.03094 -0.37309,0.07546 -0.568,0.09479 -0.0906,0.0151 -0.18185,0.03094 -0.2724,0.04749 -0.0482,0.01214 -0.0977,0.023 -0.14596,0.0309 -0.0158,0.0037 -0.0324,0.0079 -0.0482,0.01143 v 0 c 0.018,0.01161 0.0361,0.02522 0.0532,0.03884 0.003,0 0.005,0 0.009,0 0.10583,0.02152 0.20854,0.05245 0.30922,0.08706 0.11429,0 0.2308,0.01803 0.32706,0.08264 0.002,0.0018 0.004,0.0037 0.007,0.0057 0.10933,0.02099 0.21718,0.04602 0.32928,0.06626 0.44504,0.0797 0.87941,0.260258 1.28194,0.524012 0.15387,0.100679 0.32137,0.2078 0.43714,0.352288 0.11945,0.148904 0.23872,0.214979 0.35228,0.368116 0.11154,0.149638 0.27038,0.262467 0.35523,0.428671 0.0755,0.147983 0.0849,0.328542 0.18258,0.463642 0.0482,0.06552 0.11504,0.117245 0.15535,0.188475 0.0977,0.176142 0.10786,0.430512 0.18553,0.624692 0.0747,0.187004 0.0755,0.325783 0.0755,0.545733 0,0.186266 0.0475,0.340875 0.0777,0.506158 10e-4,0.02649 0.004,0.05319 0.006,0.07694 -0.002,0.0021 -0.004,0.0035 -0.006,0.005 0.004,0.0065 0.006,0.01362 0.009,0.02099 7.1e-4,0.0028 7.1e-4,0.0065 10e-4,0.0092 0.0123,0 0.0237,0.0018 0.0353,0.0021 0.023,-0.138042 0.0661,-0.281792 0.0928,-0.404742 0.0186,-0.08485 0.0107,-0.158291 -7.1e-4,-0.233754 0.004,-0.01214 0.008,-0.02448 0.0114,-0.03663 0.0663,-0.204121 0.0999,-0.421308 0.13878,-0.616779 0.0274,-0.137491 0.0309,-0.174854 0.12736,-0.300566 0.0941,-0.124422 0.20707,-0.218659 0.29983,-0.344372 0.14375,-0.194916 0.079,-0.431433 0.22271,-0.614754 0.13602,-0.174117 0.29062,-0.371796 0.4386,-0.527692 0.0512,-0.0532 0.11007,-0.119454 0.15535,-0.166204 0.0977,-0.102704 0.21203,-0.112091 0.33148,-0.180379 0.16179,-0.09203 0.27462,-0.27535 0.41983,-0.378975 0.19124,-0.136571 0.4918,-0.18185 0.70973,-0.230808 0.26228,-0.05816 0.51903,-0.111354 0.77634,-0.200625 0.0698,-0.02505 0.19492,-0.06534 0.31861,-0.08982 0.0329,-0.005 0.0661,-0.01013 0.0992,-0.01658 0.0237,-0.0028 0.046,-0.0028 0.0675,-0.0028 -7e-4,-0.0094 -0.001,-0.01951 -0.002,-0.02889"
       style="fill:#21201d;fill-opacity:1;fill-rule:nonzero;stroke:none;stroke-width:0.184057"
       id="path674" />
    <path
       d="m 308.90853,73.098405 c -0.006,0.0028 -0.0109,0.0052 -0.0166,0.0074 -0.007,0.005 -0.0144,0.01069 -0.023,0.01637 -0.0547,0.03461 -0.11779,0.04601 -0.17393,0.06902 -0.005,0.0052 -0.0109,0.01086 -0.0173,0.0151 -0.0445,0.03313 -0.0777,0.07491 -0.10417,0.121662 0.0136,0.02505 0.0193,0.05595 0.0121,0.09056 -0.0287,0.138779 -0.0302,0.281792 -0.0769,0.416155 -0.0265,0.07638 -0.0977,0.100679 -0.16031,0.08927 -0.0698,0.1178 -0.15608,0.235779 -0.24517,0.332779 -0.0151,0.01803 -0.0324,0.03387 -0.051,0.04896 -0.0878,0.19915 -0.30848,0.279767 -0.51554,0.33425 -0.0561,0.06902 -0.0841,0.158287 -0.0611,0.285471 0.0173,0.03461 0.0374,0.07123 0.0596,0.110804 -0.0668,0 0.0985,0.0099 0.11356,0 0.0368,-0.023 0.0561,-0.0519 0.0828,-0.08927 0.0337,-0.04951 0.0157,-0.113563 0.0661,-0.162341 0.0841,-0.08135 0.17541,-0.04252 0.26449,-0.07693 0.16547,-0.06405 0.21939,-0.230808 0.28271,-0.370325 0.0525,-0.117983 0.16307,-0.224367 0.26301,-0.321366 0.16105,-0.154609 0.14964,-0.174117 0.13087,-0.364617 -0.0121,-0.118534 -0.004,-0.209829 0.0784,-0.299096 0.0668,-0.07049 0.21571,-0.101967 0.27038,-0.188292 0.028,-0.04528 0.0245,-0.173383 0.0257,-0.302775 -0.0431,0.09921 -0.10786,0.18553 -0.20486,0.236517"
       style="fill:#21201d;fill-opacity:1;fill-rule:nonzero;stroke:none;stroke-width:0.184057"
       id="path676" />
    <path
       d="m 306.31297,74.525592 c -0.0755,-0.120008 -0.16381,-0.107858 -0.29541,-0.140804 -0.17117,-0.04399 -0.22215,-0.133075 -0.30774,-0.26615 -0.097,-0.150925 -0.0777,-0.191971 -0.25381,-0.263754 -0.11356,-0.04675 -0.34713,-0.04749 -0.43566,-0.130129 -0.0661,-0.06184 -0.0151,-0.10565 -0.0403,-0.176879 -0.0237,-0.06681 -0.10418,-0.110804 -0.15387,-0.155346 -0.1143,-0.10215 -0.20706,-0.184058 -0.3486,-0.251608 -0.0324,-0.0151 -0.0668,-0.02667 -0.10068,-0.03883 -0.007,0.01087 -0.0158,0.02078 -0.0245,0.0302 0.009,0.01214 0.0166,0.02448 0.0245,0.03589 0.11135,0.04896 0.19418,0.128842 0.26025,0.226575 0.0216,0.0151 0.0438,0.0302 0.0668,0.04675 0.12369,0.08761 0.0742,0.155346 0.0957,0.284004 0.0215,0.124975 0.0661,0.138042 0.18184,0.203384 0.0655,0.0381 0.20633,0.08485 0.2459,0.151662 0.0848,0.141725 -0.0503,0.136755 0.14172,0.188475 0.12148,0.03313 0.19547,0.0913 0.2991,0.145225 0.0755,0.03957 0.18332,0.04822 0.25436,0.0992 0.14319,0.09921 0.31289,0.253079 0.4156,0.380266 0.0539,-0.01288 0.0158,-0.01637 0.0755,-0.09995 -0.0596,-0.02649 -0.0574,-0.19915 -0.10068,-0.268171"
       style="fill:#21201d;fill-opacity:1;fill-rule:nonzero;stroke:none;stroke-width:0.184057"
       id="path678" />
    <path
       d="m 306.12321,75.80185 c -0.13289,-0.0028 -0.24222,-0.0057 -0.34584,0.08706 -0.0468,0.04233 -0.069,0.11927 -0.1027,0.161787 -0.0742,0.09332 -0.16326,0.131417 -0.26891,0.202646 -0.12148,0.08191 -0.37032,0.256025 -0.44081,0.38045 -0.0834,0.147246 -0.0201,0.192521 -0.19842,0.296146 -0.12294,0.07252 -0.32559,0.185533 -0.3867,0.308483 -0.026,0.05172 -0.004,0.109884 -0.0252,0.154425 -0.0445,0.09571 -0.0813,0.09074 -0.16823,0.153871 -0.1108,0.08209 -0.12295,0.182034 -0.19841,0.279767 -0.0109,0.01214 -0.0217,0.02448 -0.0331,0.03589 0,0 0,0.0018 0,0.0018 7.1e-4,0 0.001,0 0.001,0 0.13731,-0.1143 0.31124,-0.174671 0.44063,-0.288971 0.17191,-0.151663 0.1524,-0.29615 0.38248,-0.379712 0.24958,-0.09129 0.28546,-0.387442 0.51553,-0.529167 0.15038,-0.09203 0.27535,-0.141538 0.35155,-0.3048 0.0727,-0.154608 0.10142,-0.211296 0.27038,-0.291179 0.072,-0.03369 0.32063,-0.09626 0.34235,-0.187001 0.0294,-0.122766 -0.0994,-0.104916 -0.13602,-0.08043"
       style="fill:#21201d;fill-opacity:1;fill-rule:nonzero;stroke:none;stroke-width:0.184057"
       id="path680" />
    <path
       d="m 309.05302,77.522422 c 0.0136,0.0151 0.026,0.03164 0.0425,0.04307 0.1581,0.01288 0.30258,0.05172 0.40547,0.166755 0.0107,0.0028 0.0223,0.0072 0.0329,0.0094 0.004,-0.04951 -0.009,-0.0992 -0.0295,-0.14743 -0.002,-0.0057 -0.006,-0.01143 -0.008,-0.01729 -0.0344,-0.02431 -0.074,-0.04454 -0.12221,-0.0589 -0.10123,-0.0302 -0.1467,-0.06902 -0.22418,-0.112829 -0.0475,-0.02667 -0.0972,-0.05761 -0.14596,-0.09055 -0.0116,0.0021 -0.0237,0.0021 -0.0388,-0.0021 -0.13233,-0.04602 -0.24019,-0.132337 -0.28326,-0.251608 -0.11375,-0.10215 -0.24314,-0.179825 -0.35596,-0.283266 -0.11504,-0.107121 -0.13307,-0.248109 -0.20707,-0.379709 -0.0755,-0.1351 -0.19418,-0.232833 -0.34087,-0.291917 -0.097,-0.03884 -0.14375,-0.03443 -0.2286,-0.109146 -0.0488,-0.04252 -0.11429,-0.194183 -0.17246,-0.207803 -0.17411,-0.03957 -0.12368,0.182587 -0.11301,0.193262 0.044,0.174854 0.1813,0.120925 0.34088,0.187738 0.10564,0.04381 0.15681,0.120008 0.17687,0.236516 0.0302,0.179825 0.0101,0.137308 0.16823,0.236513 0.0561,0.03534 0.0992,0.07988 0.15019,0.124424 0.0539,0.04601 0.0655,0.04749 0.13675,0.08559 0.11504,0.06184 0.1502,0.121475 0.217,0.225654 0.0683,0.105834 0.14817,0.197125 0.25897,0.260442 0.11356,0.0646 0.24866,0.08117 0.33996,0.183321"
       style="fill:#21201d;fill-opacity:1;fill-rule:nonzero;stroke:none;stroke-width:0.184057"
       id="path682" />
    <path
       d="m 307.40958,75.325875 c -0.15534,-0.07767 -0.28694,-0.199887 -0.36811,-0.342162 -0.0606,-0.067 -0.11448,-0.136758 -0.15755,-0.212221 -0.21848,0.164733 -0.38616,0.413396 -0.63132,0.568004 0.284,-0.0042 0.47818,0.367379 0.56377,0.568738 0.16822,-0.215717 0.35651,-0.443579 0.59321,-0.582359"
       style="fill:#21201d;fill-opacity:1;fill-rule:nonzero;stroke:none;stroke-width:0.184057"
       id="path684" />
  </g>
</svg>
