<?xml version="1.0" encoding="UTF-8" standalone="no"?>
<!-- Created with Inkscape (http://www.inkscape.org/) -->

<svg
   width="7.5468583mm"
   height="7.1003656mm"
   viewBox="0 0 7.5468583 7.1003656"
   version="1.1"
   id="svg2080"
   inkscape:version="1.1.2 (0a00cf5339, 2022-02-04)"
   sodipodi:docname="re1.svg"
   xmlns:inkscape="http://www.inkscape.org/namespaces/inkscape"
   xmlns:sodipodi="http://sodipodi.sourceforge.net/DTD/sodipodi-0.dtd"
   xmlns="http://www.w3.org/2000/svg"
   xmlns:svg="http://www.w3.org/2000/svg">
  <sodipodi:namedview
     id="namedview2082"
     pagecolor="#ffffff"
     bordercolor="#666666"
     borderopacity="1.0"
     inkscape:pageshadow="2"
     inkscape:pageopacity="0.0"
     inkscape:pagecheckerboard="0"
     inkscape:document-units="mm"
     showgrid="false"
     inkscape:zoom="0.64052329"
     inkscape:cx="-1192.7747"
     inkscape:cy="505.0558"
     inkscape:window-width="2560"
     inkscape:window-height="1376"
     inkscape:window-x="0"
     inkscape:window-y="0"
     inkscape:window-maximized="1"
     inkscape:current-layer="layer1" />
  <defs
     id="defs2077" />
  <g
     inkscape:label="Layer 1"
     inkscape:groupmode="layer"
     id="layer1"
     transform="translate(-420.45326,-15.038154)">
    <path
       d="m 421.65046,15.228336 c 0.004,0.01729 0.0339,0.04896 0.044,0.06479 0.0639,0.102705 0.12866,0.196942 0.20118,0.293938 0.0972,0.130129 0.16822,0.278296 0.26173,0.412108 0.0433,0.0624 0.092,0.119267 0.14245,0.176696 0.0468,0.05393 0.0827,0.112275 0.12148,0.172646 -0.0151,0.005 -0.0252,0.0042 -0.0403,0.01288 -0.0201,0.01087 -0.028,0.03534 -0.0468,0.04454 -0.0158,0.0086 -0.0359,0.0079 -0.0539,0.01658 -0.0179,0.0086 -0.0351,0.02099 -0.0502,0.02815 -0.0109,-0.01584 -0.0158,-0.03313 -0.026,-0.04896 -0.0252,-0.04233 -0.0574,-0.07841 -0.0819,-0.122213 -0.0274,-0.04822 -0.0576,-0.08706 -0.095,-0.127187 -0.0324,-0.03461 -0.0532,-0.07049 -0.0819,-0.107858 -0.023,-0.0302 -0.0525,-0.05393 -0.0784,-0.08135 -0.0359,-0.03663 -0.0653,-0.07896 -0.10142,-0.116508 -0.0344,-0.03589 -0.0733,-0.06829 -0.10417,-0.106387 -0.0295,-0.03443 -0.049,-0.07473 -0.0826,-0.10565 -0.0374,-0.03387 -0.0828,-0.06681 -0.0871,-0.11798 -0.004,-0.04381 0.002,-0.06957 -0.0136,-0.111354 -0.0123,-0.03239 -0.0274,-0.05964 0.001,-0.08633 0.0179,-0.01729 0.0488,-0.02723 0.0698,-0.0438 0.0445,-0.03589 0.0884,-0.03387 0.10123,-0.04675"
       style="fill:#21201d;fill-opacity:1;fill-rule:evenodd;stroke:none;stroke-width:0.184057"
       id="path590" />
    <path
       d="m 420.81503,16.034328 c 0.007,0.03589 0.0913,0.08338 0.11154,0.09847 0.0725,0.0554 0.15019,0.103625 0.22068,0.160313 0.0712,0.05688 0.13584,0.120192 0.20283,0.179825 0.0703,0.06185 0.13933,0.125713 0.21774,0.176879 0.0317,0.02081 0.0683,0.03737 0.0957,0.06258 0.0186,0.01711 0.023,0.04012 0.0388,0.05669 -0.049,-0.01436 -0.12442,0.117246 -0.14246,0.142462 -0.0208,0.02649 -0.0503,0.04233 -0.0698,0.07031 -0.0136,0.01877 -0.0107,0.03884 -0.0381,0.02889 -0.008,-0.0037 -0.0179,-0.02226 -0.0223,-0.02741 -0.0302,-0.0381 -0.069,-0.06755 -0.10565,-0.09921 -0.12718,-0.107121 -0.25528,-0.206329 -0.39186,-0.299829 -0.074,-0.05099 -0.14448,-0.107858 -0.22068,-0.154612 -0.0512,-0.03221 -0.10785,-0.07178 -0.11227,-0.135833 -0.003,-0.04454 0.003,-0.08761 0.0173,-0.13013 0.006,-0.01933 0.0188,-0.04528 0.0388,-0.0554 0.0188,-0.0035 0.0381,-0.0035 0.0576,0 0.0322,0 0.0618,-0.0099 0.10197,-0.07399"
       style="fill:#21201d;fill-opacity:1;fill-rule:nonzero;stroke:none;stroke-width:0.184057"
       id="path592" />
    <path
       d="m 425.52227,15.055874 -0.004,-0.01305 c -0.028,0.0052 -0.046,0.07767 -0.0547,0.100679 -0.0618,0.157554 -0.13878,0.310692 -0.20412,0.467325 -0.0519,0.122213 -0.10933,0.242404 -0.15958,0.365354 -0.0188,0.04528 -0.0769,0.134363 -0.0512,0.187555 0.0252,0.0028 0.0517,-0.005 0.0762,-0.0014 0.0655,0.01012 0.10436,0.111538 0.16326,0.14375 0.007,-0.02007 0.006,-0.03663 0.0158,-0.05816 0.0252,-0.06534 0.0547,-0.128658 0.0871,-0.1905 0.0898,-0.176146 0.18534,-0.360938 0.30332,-0.518308 0.0475,-0.06332 0.0784,-0.118717 0.10142,-0.193446 0.0114,-0.03461 0.0223,-0.06976 0.0396,-0.101417 0.005,-0.0086 0.0114,-0.02226 0.0171,-0.0302 0.0101,-0.01288 0.0339,-0.02448 0.0396,-0.04381 -0.006,-0.01584 -0.046,-0.02963 -0.0596,-0.03957 -0.0576,-0.04675 -0.1108,-0.08062 -0.18774,-0.08927 -0.0387,-0.005 -0.0841,-0.0092 -0.10915,0.02741 -0.041,0.05816 0.0488,0.07399 -0.0136,-0.01288"
       style="fill:#21201d;fill-opacity:1;fill-rule:nonzero;stroke:none;stroke-width:0.184057"
       id="path594" />
    <path
       d="m 427.10607,16.135744 c -0.0267,-0.0065 -0.0819,0.02575 -0.10639,0.03514 -0.11503,0.04252 -0.19693,0.149638 -0.2862,0.231546 -0.18976,0.17467 -0.41339,0.307742 -0.61751,0.465112 -0.0245,0.01877 -0.0762,0.04454 -0.0712,0.08209 0.004,0.03295 0.0208,0.01362 0.0467,0.02078 0.0633,0.01933 0.069,0.118534 0.12001,0.149458 0.0195,0.01161 0.0403,0.01087 0.0655,0.0094 0.0309,-0.0028 0.0438,-0.0151 0.0711,-0.03239 0.0425,-0.02505 0.0913,-0.03884 0.1373,-0.05595 0.0584,-0.02152 0.11228,-0.05117 0.164,-0.08485 0.0893,-0.05835 0.17393,-0.120192 0.25381,-0.1905 0.0633,-0.0554 0.11872,-0.113013 0.19197,-0.155346 0.0712,-0.04031 0.14743,-0.06681 0.22068,-0.101416 0.0361,-0.01729 0.0633,-0.02596 0.0698,-0.06332 0.006,-0.03164 -0.004,-0.05522 -0.0237,-0.07896 -0.0769,-0.09277 -0.17394,-0.174854 -0.26247,-0.255287 -0.007,0.0151 -0.002,0.03514 0.0267,0.02448"
       style="fill:#21201d;fill-opacity:1;fill-rule:nonzero;stroke:none;stroke-width:0.184057"
       id="path596" />
    <path
       d="m 426.01186,20.122436 c 0.0351,0.03165 0.0732,0.05816 0.10785,0.09277 0.0703,0.0705 0.1351,0.144487 0.20339,0.216454 0.0999,0.104175 0.20853,0.19915 0.31068,0.300379 0.0985,0.09792 0.17743,0.222159 0.28676,0.308483 0.0611,0.04749 0.12866,0.08264 0.17909,0.142459 -0.0151,0.01436 -0.0331,-7.06e-4 -0.0525,-0.0028 -0.0712,-0.01012 -0.12368,0.05963 -0.16896,0.104912 -0.0302,0.02946 -0.12221,0.161051 -0.17614,0.130863 -0.0138,-0.0072 -0.0166,-0.02723 -0.0237,-0.03957 -0.044,-0.07896 -0.11228,-0.151662 -0.17615,-0.214979 -0.0856,-0.08338 -0.1719,-0.16105 -0.25234,-0.2494 -0.0742,-0.08062 -0.14467,-0.166754 -0.22289,-0.242954 -0.0799,-0.07694 -0.16031,-0.156817 -0.24443,-0.228784 -0.023,-0.02007 -0.0885,-0.06755 -0.0893,-0.102704 -7.1e-4,-0.01087 0.026,-0.03313 0.0302,-0.04031 0.0166,-0.02723 0.0223,-0.06331 0.0453,-0.08632 0.0267,-0.02723 0.0633,-0.02374 0.0957,-0.03663 0.0381,-0.01584 0.069,-0.05816 0.1143,-0.05025 7.1e-4,0.0042 0.003,0.0092 0.0331,-0.0014"
       style="fill:#21201d;fill-opacity:1;fill-rule:nonzero;stroke:none;stroke-width:0.184057"
       id="path598" />
    <path
       d="m 425.27766,20.842103 c -0.002,0.03589 0.0101,0.04822 0.0281,0.08062 0.0668,0.116322 0.13509,0.231359 0.20264,0.347134 0.0762,0.129391 0.14393,0.261729 0.21645,0.391858 0.0173,0.03164 0.0381,0.0611 0.0611,0.08853 0.009,0.01214 0.0611,0.0589 0.0525,0.08485 -0.0178,0 -0.0316,0.0042 -0.0475,0.0072 -0.0438,0.0086 -0.0841,0.0099 -0.12295,0.03517 -0.0257,0.01729 -0.0955,0.102887 -0.13215,0.08982 -0.023,-0.0079 -0.006,-0.0151 -0.0123,-0.02946 -0.0151,-0.03589 -0.0329,-0.07178 -0.0495,-0.107858 -0.0626,-0.140805 -0.12368,-0.276088 -0.19841,-0.411188 -0.0475,-0.08706 -0.10583,-0.163995 -0.15829,-0.248108 -0.0144,-0.023 -0.0245,-0.04602 -0.0351,-0.0705 -0.0109,-0.02374 -0.0309,-0.04528 -0.0353,-0.07105 -0.006,-0.03238 0.009,-0.04325 0.0304,-0.06184 0.0782,-0.06902 0.14154,-0.123687 0.20044,-0.125162"
       style="fill:#21201d;fill-opacity:1;fill-rule:nonzero;stroke:none;stroke-width:0.184057"
       id="path600" />
    <path
       d="m 422.39902,20.698357 c -0.018,0.0021 -0.0346,0.01213 -0.049,0.02226 -0.041,0.02797 -0.0848,0.06037 -0.12,0.09424 -0.0893,0.08485 -0.164,0.184059 -0.24517,0.276084 -0.0834,0.09479 -0.17264,0.183325 -0.24516,0.286763 -0.0648,0.09056 -0.11945,0.187741 -0.19197,0.271854 -0.0433,0.05025 -0.0992,0.08908 -0.13528,0.144487 -0.0237,0.03662 -0.051,0.07123 -0.0639,0.112825 -0.008,0.02448 -0.0324,0.09056 -0.0596,0.04602 10e-4,-0.01436 0.002,-0.02872 0.003,-0.04307 10e-4,-0.01877 -0.002,-0.03608 -0.0101,-0.05245 -0.0193,-0.06405 -0.048,-0.117983 -0.0631,-0.184796 -0.0109,-0.05172 -0.0223,-0.09498 -0.0561,-0.137308 -0.0272,-0.03238 -0.0633,-0.05761 -0.0913,-0.09 -0.0374,-0.0438 0.0201,-0.05816 0.0554,-0.0854 0.0359,-0.02741 0.0777,-0.04602 0.11504,-0.07197 0.0812,-0.05761 0.15516,-0.125896 0.23578,-0.184059 0.0712,-0.05043 0.14595,-0.09203 0.21847,-0.139516 0.0633,-0.04031 0.0987,-0.08043 0.14541,-0.137308 0.0841,-0.101417 0.20485,-0.161051 0.28455,-0.265963 0.0583,-0.07841 0.1108,-0.162525 0.18994,-0.222896 0.0287,-0.02152 0.0525,-0.04749 0.0804,-0.06976 0.0188,-0.01436 0.0374,-0.01803 0.0569,-0.02946 0.0344,-0.02099 0.0646,-0.08209 0.10786,-0.08412 0.0351,-0.0021 0.0359,0.02798 0.0552,0.05393 0.0475,0.06184 0.15902,0.0797 0.22437,0.115771 -0.10492,0.03663 -0.19345,0.1351 -0.26449,0.214796 -0.0445,0.05393 -0.0928,0.104362 -0.14394,0.152583 -0.033,0.02946 -0.069,0.05595 -0.10712,0.08043 -0.0337,0.03164 -0.0272,0.05687 0.0742,-0.07399"
       style="fill:#21201d;fill-opacity:1;fill-rule:nonzero;stroke:none;stroke-width:0.184057"
       id="path602" />
    <path
       d="m 421.30462,19.820399 c 0.004,0.01803 0.0252,0.0302 0.0353,0.04528 0.0129,0.01803 0.0539,0.06332 0.0532,0.08411 0,0.0079 -0.0195,0.03737 -0.0223,0.04252 -0.0237,0.03589 -0.0655,0.06038 -0.0977,0.08688 -0.0598,0.04822 -0.11798,0.08558 -0.18848,0.116508 -0.0589,0.02522 -0.10638,0.04031 -0.15534,0.07988 -0.0438,0.03514 -0.0913,0.06829 -0.13215,0.106387 -0.0245,0.02152 -0.0433,0.0589 -0.0799,0.05614 -0.026,-0.04105 -0.0223,-0.09995 -0.0374,-0.146695 -0.0124,-0.03736 -0.0604,-0.1316 -0.0381,-0.171175 0.009,-0.01658 0.0208,-0.01658 0.0359,-0.02575 0.13307,-0.07767 0.26099,-0.172646 0.38541,-0.262466 0.051,-0.03736 0.095,-0.06184 0.15608,-0.06976 0.0574,-0.0079 0.0646,0.0014 0.0854,0.05816"
       style="fill:#21201d;fill-opacity:1;fill-rule:nonzero;stroke:none;stroke-width:0.184057"
       id="path604" />
    <path
       d="m 426.58777,18.294744 c -0.007,0.0044 -0.0166,0.0079 -0.0237,0.01161 0.0186,-0.023 0.0639,-0.01161 0.0891,-0.01086 0.13307,0 0.26964,-0.0079 0.40327,-0.01729 0.17908,-0.01143 0.35523,-0.05669 0.53358,-0.07031 0.097,-0.0066 0.17319,-0.03534 0.26172,-0.0727 0.0302,-0.01214 0.0985,-0.04749 0.13436,-0.02872 0.0195,0.0099 0.0136,0.03589 0.0116,0.05816 -0.007,0.08927 -0.0576,0.1697 -0.0591,0.258783 -0.001,0.04528 0.0296,0.08633 0.0296,0.128842 -0.046,0.01288 -0.10657,0 -0.15387,0.0035 -0.0734,0.0057 -0.13951,0.02815 -0.21295,0.02667 -0.11357,-0.0037 -0.2229,-0.0497 -0.33719,-0.04325 -0.0539,0.0037 -0.10418,0.0302 -0.15737,0.04031 -0.0561,0.01087 -0.11283,0.01362 -0.16897,0.02078 -0.0655,0.0094 -0.12515,0.01087 -0.19123,0.01087 -0.0295,7.05e-4 -0.0655,0.0072 -0.0942,-7.06e-4 -0.0151,-0.0042 -0.023,-0.01584 -0.0359,-0.02152 -0.0267,-0.01161 -0.0374,-0.0044 -0.0561,-0.02946 -0.0129,-0.01729 -0.0317,-0.0497 -0.0302,-0.07123 0.003,-0.02667 0.023,-0.05246 0.0272,-0.08062 0.005,-0.02724 -0.006,-0.08687 0.0304,-0.112825"
       style="fill:#21201d;fill-opacity:1;fill-rule:nonzero;stroke:none;stroke-width:0.184057"
       id="path606" />
    <path
       d="m 425.93989,16.653315 c 0.0151,-0.0086 0.0287,-0.0072 0.0431,-0.01362 0.0245,-0.01087 0.0396,-0.03313 0.0569,-0.05393 0.0272,-0.0309 0.0547,-0.05614 0.0863,-0.08264 0.0151,-0.01305 0.0302,-0.03884 0.0467,-0.04822 0.0401,-0.023 0.0703,0.02946 0.0913,0.05393 0.0467,0.0532 0.071,0.118717 0.11853,0.170438 0.018,0.02007 0.0223,0.03313 0.0331,0.05319 0.0121,0.023 0.0316,0.04307 0.0495,0.06331 0.0173,0.02081 0.0274,0.03517 0.0388,0.0589 0.018,0.03663 0.0482,0.06258 0.0663,0.09847 0.009,0.01729 0.0114,0.03589 0.0193,0.05319 0.0131,0.02946 0.0388,0.05117 0.0524,0.08062 0.004,0.0072 0.001,0.01785 0.005,0.02649 0.007,0.0151 0.0193,0.02596 0.0272,0.04031 0.0116,0.02226 0.0188,0.04454 0.0267,0.06828 0.0747,0.225104 0.15534,0.446525 0.20633,0.680829 0.009,0.04105 0.0101,0.07547 0.0107,0.117246 0,0.04528 0.0123,0.08633 0.0158,0.130867 10e-4,0.0381 -7.1e-4,0.07841 -0.001,0.116508 -10e-4,0.05742 0.0114,0.09994 0.0265,0.153871 0.0101,0.03884 -0.003,0.07694 -0.009,0.115037 -0.005,0.0302 -0.004,0.06184 -0.004,0.09277 7e-4,0.04951 -0.0144,0.08982 -0.0144,0.140804 7.1e-4,0.03387 0.0164,0.105096 -0.0173,0.125896 -0.0101,0.0065 -0.0418,0.0114 -0.0539,0.01436 -0.0331,0.0072 -0.072,0.0151 -0.10491,0.01803 -0.0274,0.0028 -0.0569,0 -0.0841,-7.06e-4 -0.0267,0 -0.0368,-0.0052 -0.0425,0.02152 -0.006,0.02226 7.1e-4,0.05466 7.1e-4,0.07767 0,0.0416 -0.0109,0.104912 0.002,0.144487 0.0445,0.0086 0.0933,0.0072 0.13804,0.01436 0.071,0.01288 0.1408,0.04602 0.21203,0.0589 0.0366,0.0065 0.0532,0.0065 0.0906,0.02596 0.0324,0.01584 0.0489,0.01658 0.0826,0.01732 0.0368,0 0.0749,-0.0065 0.10362,0.01288 0.0101,-0.01362 0.0121,-0.02723 0.018,-0.04178 0.008,-0.02078 0.0201,-0.03736 0.0302,-0.05669 0.0151,-0.03164 0.0107,-0.06111 0.0158,-0.0935 0.008,-0.05025 0.0344,-0.0935 0.0394,-0.144487 0.006,-0.04307 -0.003,-0.08706 0.002,-0.130129 0.004,-0.04178 0.0201,-0.08062 0.0267,-0.121479 0.0129,-0.08853 0.0329,-0.176142 0.0431,-0.264675 0.004,-0.04454 0.0129,-0.08559 0.0215,-0.129392 0.0101,-0.04823 0.009,-0.0935 0.009,-0.143013 0,-0.09718 -10e-4,-0.189763 -0.0114,-0.286212 -0.003,-0.03589 10e-4,-0.07252 -0.005,-0.107855 -0.009,-0.04602 -0.0295,-0.08909 -0.0381,-0.135099 -0.0151,-0.08136 -0.0475,-0.156817 -0.0762,-0.234492 -0.0438,-0.115771 -0.12221,-0.214979 -0.17246,-0.327071 -0.0331,-0.07546 -0.0893,-0.136571 -0.11154,-0.21645 -0.0216,-0.07767 -0.0554,-0.1351 -0.10491,-0.198416 -0.0468,-0.0589 -0.0769,-0.13013 -0.12443,-0.189763 -0.0547,-0.06976 -0.1049,-0.141725 -0.1581,-0.212217 -0.0388,-0.05025 -0.0791,-0.09203 -0.1051,-0.147983 -0.0143,-0.03164 -0.0243,-0.0381 -0.0495,-0.06258 -0.0353,-0.03461 -0.0517,-0.07049 -0.10565,-0.07841 -0.0188,0.04104 -0.0705,0.03589 -0.1,0.06828 -0.0403,0.04399 -0.0734,0.0935 -0.12092,0.1316 -0.0589,0.04675 -0.13013,0.06479 -0.18534,0.115037 -0.0368,0.03387 -0.0757,0.03884 -0.10786,0.07767 -0.0237,0.02872 -0.0532,0.04822 -0.0683,0.08264 -0.0123,0.02815 -0.0324,0.06405 -0.0173,0.09129 0.009,0.0151 0.0258,0.023 0.0366,0.03608 0.0101,0.01436 0.0158,0.02946 0.0267,0.04307 0.0193,0.02448 0.0532,0.06534 0.0733,0.02872"
       style="fill:#21201d;fill-opacity:1;fill-rule:nonzero;stroke:none;stroke-width:0.184057"
       id="path608" />
    <path
       d="m 425.50773,16.178077 c 0.004,-0.02226 0.0173,-0.04086 0.0252,-0.05964 0.0188,-0.04104 0.0309,-0.08706 0.0475,-0.130863 0.0173,-0.04528 0.0265,-0.09424 0.0423,-0.140987 0.0123,-0.03517 0.0324,-0.06534 0.044,-0.100496 0.006,-0.01877 0.007,-0.03829 0.0136,-0.05761 0.002,-0.0035 0.003,-0.02007 0.004,-0.02522 7e-4,-0.0057 0.013,-0.0086 0.013,-0.01711 -0.001,-0.01877 -0.0289,-0.03238 -0.0433,-0.03957 -0.0208,-0.01086 -0.0453,-0.01584 -0.0668,-0.02522 -0.041,-0.01933 -0.0705,-0.04822 -0.10712,-0.07197 -0.0403,-0.02649 -0.0863,-0.03514 -0.12792,-0.06184 -0.041,-0.02649 -0.0784,-0.02649 -0.11945,-0.04804 -0.11209,-0.06111 -0.24516,-0.104359 -0.36811,-0.138042 -0.0525,-0.0151 -0.10565,-0.04675 -0.16179,-0.04749 -0.0502,-7.06e-4 -0.094,-0.0057 -0.14448,-0.01803 -0.051,-0.01362 -0.10271,-0.0086 -0.15314,-0.02723 -0.0604,-0.023 -0.10638,-0.03884 -0.17246,-0.04178 -0.046,-0.0021 -0.0906,-0.0057 -0.13454,-0.02007 -0.0646,-0.02007 -0.10565,-0.0381 -0.17393,-0.03663 -0.0633,7.05e-4 -0.12664,0 -0.18977,0 -0.0769,0 -0.1489,-0.01235 -0.22436,-0.0151 -0.0698,-0.0021 -0.13455,0.01214 -0.20357,0.0151 -0.0309,0.0014 -0.0552,-0.0014 -0.0841,0.01288 -0.0158,0.0079 -0.0287,0.02152 -0.0445,0.0302 -0.0388,0.01951 -0.0812,0.0309 -0.11577,0.05687 -0.0826,0.0624 -0.16602,0.08688 -0.26744,0.104916 -0.0661,0.0114 -0.12074,0.03313 -0.18405,0.05466 -0.0446,0.01584 -0.0834,0.02226 -0.12443,0.04602 -0.0322,0.01933 -0.0618,0.02872 -0.0977,0.03589 -0.0524,0.01013 -0.10344,0.04178 -0.14522,0.07546 -0.0316,0.02596 -0.0503,0.06184 -0.0732,0.09 -0.046,0.05669 -0.11375,0.09773 -0.1662,0.147983 -0.0388,0.03663 -0.0898,0.07473 -0.13161,0.106384 -0.0322,0.02374 -0.0703,0.05117 -0.0782,0.09497 -0.006,0.04105 0.0179,0.03461 0.0431,0.05172 0.0144,0.01012 0.0245,0.02889 0.0352,0.04252 0.0339,0.04528 0.0677,0.08982 0.10067,0.135834 0.0166,0.023 0.0324,0.04381 0.0526,0.06534 0.0151,0.01658 0.033,0.0497 0.0537,0.05614 0.001,-0.02448 0.009,-0.03514 0.0304,-0.04601 0.025,-0.01288 0.0668,0.0014 0.0861,-0.01214 0.0324,-0.02448 0.0144,-0.08559 0.002,-0.113563 -0.0109,-0.02522 -0.0331,-0.04399 -0.041,-0.07197 -0.004,-0.01213 -0.004,-0.02723 -0.006,-0.04104 -10e-4,-0.005 -0.0101,-0.0035 -0.0101,-0.01143 -0.003,-0.03736 0.0526,-0.04822 0.0777,-0.06405 0.0324,-0.02081 0.0512,-0.05467 0.0806,-0.07694 0.0294,-0.02226 0.0626,-0.02724 0.0913,-0.05025 0.0351,-0.02889 0.0698,-0.03957 0.11006,-0.05835 0.051,-0.02374 0.0963,-0.06258 0.14725,-0.08412 0.072,-0.0309 0.15387,-0.04086 0.22584,-0.07399 0.0495,-0.02374 0.10067,-0.02724 0.1524,-0.04252 0.0475,-0.01436 0.0878,-0.04086 0.13583,-0.05172 0.0482,-0.01069 0.0972,-0.01658 0.14448,-0.02797 0.0361,-0.0086 0.0698,-0.0267 0.10584,-0.03387 0.0495,-0.01069 0.1049,0.0094 0.15313,-0.005 0.0179,-0.0042 0.033,-0.01877 0.0488,-0.02667 0.0282,-0.01436 0.0576,-0.01436 0.0878,-0.0151 0.0856,-7.05e-4 0.16896,-0.01785 0.25381,-0.01362 0.0554,0.0014 0.11357,0.0086 0.16749,0.01803 0.0495,0.0086 0.097,0.0079 0.1467,0.01362 0.0604,0.0072 0.11724,0.02872 0.17687,0.0381 0.0532,0.0079 0.10344,-0.0065 0.15387,0.01584 0.0502,0.02226 0.10345,0.04822 0.15885,0.05614 0.0215,0.0035 0.0438,0 0.0653,0.0035 0.0396,0.0044 0.0663,0.02152 0.10068,0.03884 0.0425,0.02078 0.0893,0.0381 0.13308,0.05761 0.0418,0.01785 0.0791,0.04454 0.12,0.06313 0.0252,0.01012 0.0482,0.01379 0.072,0.02596 0.0554,0.0302 0.10344,0.07123 0.15884,0.09994 0.018,0.0086 0.0324,0.02007 0.0482,0.0302 0.0129,0.0079 0.0317,0.0151 0.0374,0.02797 0.009,0.01877 -0.006,0.04178 -0.0121,0.05835 -0.0116,0.0381 -0.0151,0.07841 -0.0316,0.115771 -0.0151,0.03443 -0.0374,0.06258 -0.0475,0.09994 -0.006,0.02226 -0.0302,0.07105 -0.0267,0.09479 0.007,0.04031 0.0762,-0.0042 0.11448,0.0086 0,0.01436 0.006,0.0309 0.0164,-0.04601"
       style="fill:#21201d;fill-opacity:1;fill-rule:nonzero;stroke:none;stroke-width:0.184057"
       id="path610" />
    <path
       d="m 421.33352,16.250778 c -0.0165,0 -0.026,-0.0086 -0.0267,-0.02374 0.023,0.02798 0.0532,0.05319 0.0806,0.07841 0.0193,0.01711 0.0416,0.02872 0.0611,0.04454 0.0215,0.01859 0.0374,0.04307 0.0589,0.06037 0.0252,0.01933 0.0374,0.03443 0.028,0.07123 -0.002,0.0099 -0.0114,0.01288 -0.0136,0.02226 -0.004,0.01655 0.002,0.0302 -0.0107,0.0438 -0.0353,-0.02007 -0.0915,-0.08117 -0.13234,-0.07988 7e-4,0.02596 -0.0195,0.05043 -0.0339,0.0705 -0.023,0.03238 -0.0366,0.06902 -0.0646,0.09773 -0.0245,0.02596 -0.0482,0.04602 -0.0655,0.07767 -0.0121,0.023 -0.028,0.04675 -0.0403,0.06976 -0.0121,0.023 -0.0158,0.04749 -0.0272,0.07197 -0.0166,0.03663 -0.046,0.06332 -0.0582,0.102151 -0.0138,0.03865 -0.023,0.07252 -0.0396,0.109883 -0.018,0.04031 -0.0418,0.08135 -0.0584,0.122216 -0.006,0.0151 -0.009,0.0309 -0.0129,0.04675 -0.009,0.03387 -0.0252,0.05043 -0.0418,0.07914 -0.0251,0.04528 -0.0179,0.102154 -0.0374,0.148721 -0.006,0.01305 -0.0193,0.02667 -0.023,0.04031 -0.008,0.02597 -0.006,0.05688 -0.01,0.08338 -0.007,0.04675 -0.021,0.09424 -0.0223,0.140988 -0.001,0.03164 7.1e-4,0.0589 -0.007,0.08982 -0.006,0.02946 -0.0193,0.05614 -0.0223,0.08632 -0.003,0.03461 0.004,0.06829 -0.002,0.102154 -0.009,0.03957 -0.0123,0.07178 -0.0116,0.113562 0,0.0554 -0.0114,0.104179 -0.0158,0.158842 -0.002,0.05043 0,0.09498 -0.0101,0.14375 -0.0179,0.08853 -0.003,0.197863 -0.003,0.287683 0,0.107859 10e-4,0.2113 0.0121,0.317684 0.004,0.03681 0.003,0.06902 0.0158,0.104362 0.009,0.02522 0.0203,0.04675 0.0267,0.07178 0.0136,0.05466 0.0208,0.09203 0.0445,0.141722 0.0252,0.05246 0.0561,0.102153 0.0732,0.157554 0.021,0.06534 0.049,0.130129 0.072,0.19547 0.0208,0.05816 0.0582,0.110804 0.0871,0.166021 0.0179,0.03313 0.0287,0.06828 0.0453,0.10215 0.0201,0.03884 0.0374,0.06829 0.0401,0.111358 0.003,0.03534 0.0123,0.08853 0.0504,0.101413 0.0517,0.01658 0.0784,-0.0094 0.10712,-0.04307 0.0114,-0.01362 0.0532,-0.05835 0.0683,-0.05835 0.0302,7.06e-4 0.0193,0.03755 0.0193,0.06129 -7e-4,0.06829 0,0.102708 0.0468,0.151666 0.0116,0.01214 0.0339,0.02374 0.023,0.04307 -0.006,0.0094 -0.0243,0.01161 -0.0337,0.01658 -0.0302,0.01877 -0.0512,0.04823 -0.0799,0.06976 -0.0388,0.0302 -0.0718,0.06608 -0.11503,0.08982 -0.0344,0.01951 -0.0777,0.03884 -0.10786,0.06405 -0.0475,0.04031 -0.0589,0.109883 -0.13436,0.09203 -0.001,-0.02815 -0.0144,-0.03883 -0.0339,-0.05835 -0.0265,-0.02649 -0.0409,-0.05245 -0.0633,-0.0819 -0.0517,-0.06829 -0.10491,-0.136571 -0.15019,-0.210562 -0.0166,-0.02667 -0.0317,-0.05338 -0.046,-0.08135 -0.0173,-0.03514 -0.0525,-0.07325 -0.0561,-0.113563 -0.002,-0.02596 0.002,-0.04528 -0.004,-0.07123 -0.0123,-0.0438 -0.0201,-0.08338 -0.0223,-0.127183 -0.003,-0.03534 -0.0158,-0.06828 -0.0215,-0.103625 -0.008,-0.0416 -0.0109,-0.0854 -0.0252,-0.125709 -0.0151,-0.04178 -0.0346,-0.08062 -0.0482,-0.124425 -0.0151,-0.05246 -0.0193,-0.104912 -0.0344,-0.15737 -0.0512,-0.181296 -0.0584,-0.366092 -0.0584,-0.552172 0,-0.07418 0.006,-0.149641 -0.007,-0.221608 -0.0158,-0.0854 -0.006,-0.176879 -0.006,-0.263754 0,-0.09773 0.001,-0.191237 0.0136,-0.288417 0.006,-0.0473 0.0101,-0.09553 0.0158,-0.14375 0.006,-0.05393 0.026,-0.102154 0.0381,-0.154608 0.0223,-0.09277 0.0633,-0.180379 0.0791,-0.274616 0.009,-0.05319 0.0324,-0.08908 0.0547,-0.136571 0.0208,-0.0438 0.0366,-0.08982 0.0574,-0.133075 0.0418,-0.08908 0.0972,-0.171725 0.13731,-0.260992 0.0173,-0.03663 0.0267,-0.07473 0.0381,-0.113563 0.0123,-0.04105 0.0375,-0.07915 0.0547,-0.118533 0.0331,-0.07565 0.0663,-0.155346 0.11504,-0.222896 0.044,-0.05982 0.0705,-0.128104 0.10859,-0.191237 0.0237,-0.04104 0.0438,-0.06902 0.0784,-0.09994 0.0173,-0.0151 0.0344,-0.03461 0.0574,-0.04031 0.0381,-0.01012 0.0281,0.01933 0.0289,0.05466"
       style="fill:#21201d;fill-opacity:1;fill-rule:nonzero;stroke:none;stroke-width:0.184057"
       id="path612" />
    <path
       d="m 425.55098,20.985853 c -0.0136,-0.0014 -0.018,-0.0099 -0.0144,-0.02374 7.1e-4,0.023 -7e-4,0.03534 0.008,0.0554 0.0164,0.03884 0.0453,0.08633 0.0668,0.12295 0.051,0.08706 0.10344,0.172646 0.14872,0.263204 0.0267,0.05393 0.0418,0.111355 0.0662,0.164546 0.007,0.01658 0.0186,0.03534 0.0265,0.05264 0.009,0.01711 0.0289,0.03221 0.0282,0.05375 -0.0295,0.0079 -0.0569,0 -0.0863,0.01086 -0.046,0.01658 -0.087,0.04252 -0.1316,0.06111 -0.0438,0.01729 -0.087,0.01288 -0.12718,0.0381 -0.041,0.02667 -0.0863,0.0438 -0.12884,0.06902 -0.0768,0.04528 -0.15884,0.06755 -0.24148,0.097 -0.0482,0.01729 -0.0849,0.03037 -0.13583,0.02889 -0.0353,-7.06e-4 -0.0547,-0.0028 -0.0849,0.01436 -0.018,0.0094 -0.023,0.01933 -0.044,0.02522 -0.0265,0.0079 -0.0453,0.0014 -0.0696,0.01711 -0.0145,0.0094 -0.0173,0.02152 -0.0346,0.02741 -0.0438,0.01436 -0.0999,0.01436 -0.14522,0.02374 -0.10344,0.02226 -0.21719,0.0014 -0.32284,0.0065 -0.092,0.005 -0.18405,0.02152 -0.27313,0.02872 -0.0504,0.0044 -0.095,0.01584 -0.14596,0.0151 -0.0611,0 -0.12295,0 -0.18406,0 -0.0346,0 -0.0675,0 -0.10141,7.05e-4 -0.0698,0.0021 -0.12074,-0.04233 -0.18829,-0.04528 -0.10712,-0.005 -0.20209,-0.06902 -0.30627,-0.09571 -0.0613,-0.01584 -0.10933,-0.04602 -0.16897,-0.06829 -0.0655,-0.02575 -0.13454,-0.03663 -0.19914,-0.0646 -0.0482,-0.02025 -0.0843,-0.04325 -0.13602,-0.05393 -0.069,-0.01362 -0.12497,-0.05687 -0.18608,-0.09 -0.0764,-0.0416 -0.14964,-0.0854 -0.22657,-0.127918 -0.0208,-0.01139 -0.0475,-0.02152 -0.0661,-0.0381 -0.0101,-0.0094 -0.0151,-0.023 -0.0237,-0.03239 -0.0324,-0.03164 -0.0841,-0.03884 -0.11154,-0.0762 -0.0381,-0.05172 -0.0777,-0.07767 -0.1351,-0.110621 -0.0504,-0.02946 -0.0885,-0.0762 -0.14099,-0.10215 -0.0144,-0.0072 -0.0272,-0.0057 -0.0438,-0.0151 -0.0237,-0.01362 -0.0482,-0.03313 -0.0683,-0.05099 -0.0302,-0.02741 -0.0561,-0.06184 -0.0878,-0.08706 -0.0401,-0.03238 -0.097,-0.03957 -0.10197,-0.101416 -0.002,-0.03369 0.0179,-0.04454 0.0351,-0.07049 0.0101,-0.01637 0.0129,-0.03221 0.0252,-0.04804 0.0193,-0.02448 0.0539,-0.04472 0.0762,-0.067 0.0331,-0.03221 0.0475,-0.07546 0.0863,-0.101233 0.025,-0.01658 0.0567,-0.04325 0.0876,-0.04969 0.0237,-0.0057 0.0641,-0.0057 0.0871,0.005 0.0208,0.01012 0.0826,0.06976 0.0769,0.09203 -0.0366,0.0079 -0.0287,0.0028 -0.0554,0.02815 -0.0201,0.01729 -0.046,0.02078 -0.0661,0.03883 -0.0131,0.01069 -0.021,0.02448 -0.0361,0.03369 -0.006,0.0044 -0.0186,0 -0.0251,0.0059 -0.007,0.0057 -0.0101,0.01362 -0.0158,0.02007 -0.001,0.005 -0.003,0.01087 -0.004,0.01584 -0.006,0.0035 -0.0121,0.0072 -0.0179,0.01214 -0.009,0.01803 -0.0116,0.04252 -0.008,0.06405 0.004,0.03312 0.0243,0.03957 0.046,0.07049 0.0453,0.06313 0.0948,0.118533 0.1465,0.173937 0.0447,0.04675 0.10436,0.07472 0.15332,0.115034 0.0604,0.04969 0.12571,0.0913 0.18608,0.140253 0.0381,0.0309 0.0734,0.04233 0.11872,0.06037 0.0431,0.01729 0.079,0.04528 0.12295,0.06258 0.1027,0.04031 0.20191,0.08688 0.30553,0.125713 0.046,0.01729 0.0804,0.02667 0.12866,0.02741 0.0482,0.0014 0.0891,0.02872 0.1373,0.0302 0.0525,0.0021 0.10142,0.01013 0.15314,0.01436 0.0512,0.0042 0.0977,0.02226 0.14816,0.02724 0.0438,0.0044 0.0841,0.01012 0.12718,0.01951 0.0475,0.01069 0.092,0.005 0.13952,0.01362 0.0525,0.0086 0.10141,0.0302 0.15314,0.03884 0.0611,0.01013 0.13012,0.02078 0.1927,0.01584 0.0245,-0.0014 0.0475,-0.0079 0.072,-0.01161 0.0322,-0.0042 0.0675,0.0037 0.0992,-0.0035 0.051,-0.01087 0.0963,-0.05393 0.1467,-0.0727 0.0539,-0.02007 0.11503,-0.03589 0.17098,-0.05246 0.0245,-0.0079 0.049,-0.0086 0.0734,-0.01658 0.0401,-0.01436 0.0705,-0.04233 0.10712,-0.06313 0.0582,-0.03387 0.12222,-0.03534 0.18038,-0.067 0.0403,-0.02152 0.0742,-0.05522 0.11503,-0.07399 0.0281,-0.01288 0.0584,-0.01436 0.0863,-0.02667 0.0193,-0.0092 0.0366,-0.02226 0.0561,-0.03147 0.0653,-0.02815 0.13657,-0.0037 0.20118,-0.04178 0.0455,-0.02723 0.0863,-0.0302 0.13454,-0.04601 0.0151,-0.005 0.0287,-0.01732 0.0431,-0.023 0.0252,-0.01012 0.0576,-0.0072 0.0821,-0.01729 0.0164,-0.0072 0.0329,-0.01933 0.0445,-0.03589 0.0245,-0.03313 0.009,-0.03884 -0.0173,-0.06755 -0.0351,-0.03884 -0.0626,-0.0762 -0.0841,-0.123688 -0.0158,-0.03517 -0.0482,-0.07767 -0.0539,-0.115037 -0.005,-0.0309 0.0101,-0.03589 0.0403,-0.04307 0.0409,-0.0094 0.0884,-0.0037 0.11504,0.02501"
       style="fill:#21201d;fill-opacity:1;fill-rule:nonzero;stroke:none;stroke-width:0.184057"
       id="path614" />
  </g>
</svg>
