<?xml version="1.0" encoding="UTF-8" standalone="no"?>
<!-- Created with Inkscape (http://www.inkscape.org/) -->

<svg
   width="5.1622086mm"
   height="7.9030099mm"
   viewBox="0 0 5.1622086 7.9030099"
   version="1.1"
   id="svg2698"
   inkscape:version="1.1.2 (0a00cf5339, 2022-02-04)"
   sodipodi:docname="re2.svg"
   xmlns:inkscape="http://www.inkscape.org/namespaces/inkscape"
   xmlns:sodipodi="http://sodipodi.sourceforge.net/DTD/sodipodi-0.dtd"
   xmlns="http://www.w3.org/2000/svg"
   xmlns:svg="http://www.w3.org/2000/svg">
  <sodipodi:namedview
     id="namedview2700"
     pagecolor="#ffffff"
     bordercolor="#666666"
     borderopacity="1.0"
     inkscape:pageshadow="2"
     inkscape:pageopacity="0.0"
     inkscape:pagecheckerboard="0"
     inkscape:document-units="mm"
     showgrid="false"
     inkscape:zoom="0.64052329"
     inkscape:cx="9.3673409"
     inkscape:cy="14.831623"
     inkscape:window-width="2560"
     inkscape:window-height="1376"
     inkscape:window-x="0"
     inkscape:window-y="0"
     inkscape:window-maximized="1"
     inkscape:current-layer="layer1" />
  <defs
     id="defs2695" />
  <g
     inkscape:label="Layer 1"
     inkscape:groupmode="layer"
     id="layer1"
     transform="translate(-102.33974,-144.54807)">
    <path
       d="m 104.93528,150.09309 c -0.008,-0.5104 -0.0152,-1.0195 -0.0201,-1.5299 0,-0.0841 0.0116,-0.16749 0.0187,-0.2689 0.5148,0.31345 0.95839,0.68304 1.37618,1.08557 -0.0145,0.0237 -0.018,0.0353 -0.0254,0.0403 -0.35228,0.24958 -0.70457,0.49972 -1.05904,0.74562 -0.0396,0.0272 -0.0913,0.041 -0.13952,0.0497 -0.12866,0.0243 -0.14873,0.008 -0.15092,-0.1224 m 0.0318,-3.86154 c 0.37529,0.29192 0.74193,0.57665 1.12663,0.87575 -0.36096,0.27535 -0.72905,0.56653 -1.1303,0.8139 -0.0113,-0.005 -0.0229,-0.0101 -0.0346,-0.0151 0.0127,-0.55512 0.025,-1.11097 0.0381,-1.67456 m -1.77744,3.16138 c 0.20211,-0.13086 0.37899,-0.24443 0.55588,-0.35817 0.0268,-0.0179 0.0618,-0.0272 0.0819,-0.0503 0.1719,-0.20412 0.41486,-0.30995 0.62709,-0.45794 0.0567,-0.0396 0.12147,-0.069 0.20412,-0.11577 0.0127,0.61475 0.0261,1.20356 0.0388,1.82254 -0.50765,-0.28253 -0.99374,-0.55365 -1.50781,-0.84041 m 1.14833,-1.81039 c -0.159,-0.12074 -0.3206,-0.23725 -0.47173,-0.36812 -0.10933,-0.0942 -0.10418,-0.2424 0.0138,-0.3221 0.24461,-0.16473 0.499,-0.31639 0.7493,-0.47303 0.005,-0.003 0.0138,0 0.031,0.001 v 1.39627 c -0.118,-0.0848 -0.22144,-0.15737 -0.32212,-0.23431 m 2.67455,3.84147 c -0.15462,-0.095 -0.312,-0.18902 -0.47452,-0.27038 -0.11282,-0.0554 -0.22656,-0.10067 -0.29983,-0.21277 -0.0208,-0.0324 -0.0676,-0.051 -0.10636,-0.0668 -0.14101,-0.0604 -0.28402,-0.11504 -0.42573,-0.17614 -0.16031,-0.0683 -0.31916,-0.14099 -0.47872,-0.21149 -0.0468,-0.0208 -0.0943,-0.0416 -0.16034,-0.0697 0.0401,-0.0193 0.0574,-0.0302 0.0769,-0.0366 0.56801,-0.20928 1.09054,-0.49751 1.55582,-0.88569 0.0777,-0.0655 0.0978,-0.21001 0.018,-0.26964 -0.12347,-0.0935 -0.25583,-0.18553 -0.39828,-0.2459 -0.12866,-0.0547 -0.25658,-0.10216 -0.36368,-0.19566 -0.27464,-0.23651 -0.55072,-0.47229 -0.8327,-0.71322 0.0426,-0.046 0.0677,-0.0762 0.0957,-0.10271 0.29467,-0.27406 0.62339,-0.50119 0.97846,-0.68874 0.20853,-0.1108 0.23079,-0.1986 0.0742,-0.37474 -0.0166,-0.0186 -0.0339,-0.0366 -0.0539,-0.051 -0.30702,-0.2343 -0.61549,-0.46732 -0.92177,-0.70107 -0.0584,-0.0438 -0.32431,-0.0933 -0.3968,-0.15443 l -0.0943,-1.4489 c 0.0748,0.046 -0.14446,1.51571 -0.21424,1.56394 -0.1682,0.1143 -0.33792,0.22639 -0.50115,0.34787 -0.22292,0.16749 -0.43935,0.3429 -0.66503,0.51978 -0.004,-0.004 0.008,0.018 0.0254,0.0346 0.3083,0.31842 0.63409,0.61751 1.00073,0.87059 0.25029,0.17265 0.24091,0.22087 -0.0159,0.39186 -0.40693,0.27112 -0.80874,0.5507 -1.20576,0.83691 -0.13931,0.10068 -0.25509,0.23228 -0.40749,0.37382 0.28106,0.15977 0.54204,0.31217 0.808,0.45665 0.26744,0.14522 0.53929,0.28253 0.82751,0.43419 -0.0431,0.0245 -0.0661,0.0396 -0.0905,0.0497 -0.17392,0.0733 -0.34858,0.14375 -0.52271,0.217 -0.2437,0.10142 -0.50247,0.17762 -0.67145,0.40493 -0.0243,0.0337 -0.0734,0.0503 -0.0971,0.0841 -0.0409,0.0596 -0.0725,0.12571 -0.1077,0.18976 0.01,0.008 0.0201,0.0158 0.0303,0.0237 0.31694,-0.17761 0.6398,-0.34584 0.94901,-0.53487 0.22289,-0.13731 0.46584,-0.20707 0.71173,-0.28842 0.0411,0.65064 0.0799,1.28914 0.11927,1.9269 0.031,-0.0554 0.0512,-0.11006 0.0547,-0.16675 0.025,-0.38763 0.0475,-0.77507 0.0712,-1.1627 0.0102,-0.17099 0.0187,-0.34143 0.0346,-0.51186 0.004,-0.0215 0.0495,-0.0604 0.0617,-0.0554 0.20856,0.0828 0.43437,0.14172 0.61697,0.26467 0.34657,0.23431 0.69021,0.46585 1.09788,0.58586 0.13804,0.0403 0.26744,0.11154 0.40125,0.16896 0.008,-0.009 0.0152,-0.0186 0.0229,-0.0272 -0.0418,-0.0418 -0.0769,-0.0935 -0.12587,-0.12296"
       style="fill:#21201d;fill-opacity:1;fill-rule:evenodd;stroke:none;stroke-width:0.184057"
       id="path556" />
    <path
       d="m 103.92647,149.48643 c -0.10124,0 -0.17247,-0.0598 -0.17099,-0.1432 0.004,-0.0834 0.0962,-0.15736 0.19915,-0.15534 0.10343,10e-4 0.16104,0.0526 0.16104,0.14246 0,0.11283 -0.0525,0.15608 -0.1892,0.15608"
       style="fill:#21201d;fill-opacity:1;fill-rule:nonzero;stroke:none;stroke-width:0.184057"
       id="path558" />
    <path
       d="m 105.55204,149.18789 c 0.11652,0 0.20577,0.0705 0.20062,0.15755 -0.005,0.0812 -0.13363,0.1732 -0.24147,0.17246 -0.13381,0 -0.1826,-0.0416 -0.1813,-0.15313 0,-0.12645 0.0648,-0.17688 0.22215,-0.17688"
       style="fill:#21201d;fill-opacity:1;fill-rule:nonzero;stroke:none;stroke-width:0.184057"
       id="path560" />
    <path
       d="m 104.74975,151.51309 c -0.004,0.0388 -0.008,0.0777 -0.01,0.11725 0,0.007 -0.008,0.0158 -0.0236,0.0216 -0.0328,-0.0316 -0.0547,-0.0567 -0.0646,-0.074 -0.0482,-0.0433 -0.0913,-0.0806 -0.1301,-0.11154 -0.018,-0.0136 -0.0261,-0.0272 -0.0215,-0.0431 -0.0173,-0.0129 -0.0258,-0.0252 -0.0258,-0.0344 0,-0.0316 0.0626,-0.0468 0.0999,-0.0455 0.074,-0.006 0.12643,0.0138 0.15956,0.0569 0.0116,0.0173 0.018,0.0547 0.0159,0.11283 m 0.53781,-0.40971 c -0.0286,-0.0116 -0.0547,-0.009 -0.0762,0.004 -0.072,0.049 -0.13232,0.0727 -0.1791,0.0705 -0.0272,0 -0.0525,0 -0.0784,0.002 -0.0346,-0.002 -0.0545,-0.0158 -0.0582,-0.0433 -0.01,-0.0631 -0.0152,-0.092 -0.0152,-0.0876 l -0.16602,0.0539 c 0,0.0302 -0.018,0.0884 -0.018,0.10915 -0.0423,-0.006 -0.0755,-0.0129 -0.097,-0.0228 -0.0116,0.002 -0.031,0.01 -0.0605,0.0251 -0.0286,0.0158 -0.0466,0.0237 -0.051,0.0237 -0.0856,-0.008 -0.14026,-0.006 -0.16383,0.006 -0.0131,0.007 -0.0208,0.018 -0.0243,0.0296 l -0.0102,0.0812 c -0.018,0.0237 -0.025,0.0489 -0.025,0.074 0,0.0453 0.025,0.0885 0.0755,0.12884 0.12164,0.10123 0.18348,0.15442 0.18771,0.16031 l 0.0229,0.0618 c 0.0604,0.0431 0.11133,0.13657 0.1524,0.28326 0.006,0.023 0.004,0.0545 -0.006,0.0933 -0.006,0.0158 -0.0268,0.0663 -0.0268,0.0742 0.0212,0.0409 0.0388,0.0683 0.0519,0.0834 0.006,0.0453 0,0.0935 0.0453,0.11504 0.008,0.004 0.0138,0.006 0.0201,0.006 0.0446,0 0.0641,-0.0626 0.0626,-0.11503 -0.008,-0.0784 -0.0127,-0.12148 -0.0127,-0.13087 0,-0.0532 0.0145,-0.11853 0.0438,-0.19841 0.007,-0.041 0.0138,-0.0727 0.0152,-0.0942 0.14027,-0.19841 0.25383,-0.35302 0.33941,-0.46014 -0.0152,-0.0366 -0.0353,-0.0547 -0.0569,-0.0547 -0.0215,0 -0.0524,0.0237 -0.097,0.0705 -0.0453,0.049 -0.0762,0.0784 -0.0977,0.0878 -0.0229,0.0193 -0.0411,0.0352 -0.0504,0.0488 -0.0335,-0.004 -0.0488,-0.0409 -0.0467,-0.11357 0,0 -0.004,-0.0186 -0.008,-0.0582 -0.004,-0.0274 -0.004,-0.0445 0.006,-0.0524 0.0567,-0.0512 0.13433,-0.0762 0.23576,-0.0762 0.0293,0 0.0488,0.004 0.0559,0.0136 0.0354,-0.009 0.0626,-0.0116 0.0841,-0.007 0.018,-0.004 0.031,-0.009 0.0411,-0.0123 0.0236,-0.0705 0.0353,-0.10712 0.0353,-0.10915 0,-0.0309 -0.0152,-0.0547 -0.049,-0.0705"
       style="fill:#21201d;fill-opacity:1;fill-rule:nonzero;stroke:none;stroke-width:0.184057"
       id="path562" />
    <path
       d="m 105.3264,150.45623 c -0.006,0.006 -0.0116,0.0123 -0.0173,0.018 0.0353,-0.018 0.031,-0.018 0.0173,-0.018"
       style="fill:#21201d;fill-opacity:1;fill-rule:nonzero;stroke:none;stroke-width:0.184057"
       id="path564" />
    <path
       d="m 105.3264,150.45623 c 0,-7e-4 0,-0.001 0,-0.002 -0.004,0 -0.008,0 -0.0131,0.001 0.004,0 0.008,7e-4 0.0116,7e-4"
       style="fill:#21201d;fill-opacity:1;fill-rule:nonzero;stroke:none;stroke-width:0.184057"
       id="path566" />
    <path
       d="m 106.5408,151.63752 c -0.0289,0.009 -0.0547,0.0101 -0.0828,0.0173 -0.0138,0.004 -0.0328,0.0179 -0.0335,-0.003 0,-0.01 0.007,-0.0223 0.012,-0.0295 0.007,-0.0114 0.0131,-0.0158 0.0187,-0.0302 0.007,-0.0193 0.018,-0.0331 0.025,-0.0532 0.0138,-0.0396 0.0243,-0.0819 0.0447,-0.11927 0.009,-0.0188 0.0169,-0.0353 0.0416,-0.0339 0.0194,7e-4 0.0325,0.0158 0.049,0.0237 0.01,0.004 0.0173,0.007 0.0265,0.0136 0.0201,0.0136 0.0403,0.0267 0.0611,0.0403 0.0166,0.0107 0.0346,0.0295 0.0532,0.0381 0.007,0.003 0.0138,7.1e-4 0.0194,0.004 0.0166,0.007 0.0113,0.0324 0.005,0.0447 -0.006,0.0114 -0.0159,0.0107 -0.0265,0.0171 -0.0123,0.008 -0.0268,0.0144 -0.0403,0.0188 -0.0561,0.0201 -0.11575,0.0344 -0.17318,0.0517 m 0.17244,-0.5299 c 0.01,-0.0201 0.0159,-0.0431 0.0268,-0.0626 0.004,-0.006 0.006,-0.0151 0.0138,-0.0158 0.006,0.009 0.01,0.0245 0.012,0.0353 0.005,0.0144 0.01,0.0245 0.0166,0.0374 0.01,0.0173 0.0113,0.0366 0.0173,0.0547 0.008,0.023 0.025,0.0423 0.0367,0.0639 0.0145,0.0274 0.0236,0.0539 0.0366,0.0828 0.008,0.0186 0.0187,0.0366 0.031,0.0539 0.008,0.0107 0.018,0.0237 0.0215,0.0374 0.004,0.0151 -0.005,0.0158 -0.0173,0.0151 -0.0187,-0.002 -0.0332,-0.003 -0.0468,-0.0166 -0.0236,-0.023 -0.0525,-0.0431 -0.0799,-0.0611 -0.0265,-0.018 -0.0547,-0.0309 -0.0799,-0.0517 -0.0208,-0.0173 -0.0423,-0.0346 -0.0632,-0.0525 0.0265,-0.0388 0.0554,-0.0764 0.0747,-0.12019 m 0.77579,0.79514 c 0.004,-0.004 0.0106,-0.01 0.0131,-0.0157 0,-0.007 0,-0.0138 0,-0.0195 0,-0.0136 0,-0.0265 0,-0.0403 0,-0.007 -0.006,-0.0136 -0.006,-0.0208 0,-0.005 0.004,-0.009 0.004,-0.0158 -0.0131,-0.004 -0.0268,-0.008 -0.0395,-0.0136 -0.0131,-0.005 -0.0261,-0.0101 -0.0396,-0.0151 -0.006,-0.002 -0.0166,-0.003 -0.0222,-0.006 -0.008,-0.005 -0.0166,-0.0116 -0.0229,-0.0173 -0.008,-0.007 -0.0166,-0.018 -0.0243,-0.026 -0.0194,-0.0193 -0.0425,-0.0352 -0.0641,-0.0525 -0.0359,-0.0295 -0.0733,-0.0633 -0.0928,-0.10712 -0.006,-0.0151 -0.0113,-0.0265 -0.0229,-0.0388 -0.012,-0.0136 -0.0258,-0.0245 -0.0346,-0.0409 -0.0145,-0.023 -0.0222,-0.0475 -0.0396,-0.069 -0.007,-0.0101 -0.0159,-0.0217 -0.0229,-0.0331 0,-0.002 -0.004,-0.005 -0.004,-0.007 0,-0.004 -0.004,-0.009 -0.004,-0.0123 v 0.001 c -0.01,-0.025 -0.0138,-0.0517 -0.0265,-0.0769 -0.0208,-0.0381 -0.0475,-0.0747 -0.0762,-0.10859 -0.0208,-0.025 -0.0374,-0.0445 -0.0512,-0.0755 -0.0138,-0.0309 -0.0265,-0.0618 -0.0416,-0.092 -0.008,-0.0179 -0.0208,-0.0337 -0.0282,-0.0525 -0.006,-0.0166 -0.009,-0.0344 -0.0145,-0.0525 -0.004,-0.009 -0.005,-0.026 -0.0106,-0.0346 -0.006,-0.008 -0.004,-0.006 -0.0152,-0.006 -0.0131,0.001 -0.0275,0.0123 -0.0374,0.0188 -0.0388,0.0245 -0.0727,0.0589 -0.10287,0.0935 -0.0166,0.0193 -0.0303,0.0423 -0.0426,0.0654 -0.01,0.018 -0.0229,0.0359 -0.0314,0.0547 -0.0116,0.0252 -0.0368,0.0374 -0.0633,0.0416 -0.0194,0.003 -0.0318,-0.004 -0.0467,-0.0144 -0.0504,-0.0344 -0.10566,-0.0596 -0.15533,-0.0955 -0.0408,-0.0287 -0.0848,-0.0482 -0.12866,-0.072 0.008,0.0208 0,0.0497 -0.0109,0.0663 -0.01,0.0144 -0.018,0.0295 -0.0272,0.0445 -0.006,0.0114 -0.0208,0.0237 -0.0208,0.0366 0.0503,0.023 0.0948,0.0611 0.14083,0.0906 0.0324,0.0208 0.067,0.0359 0.0992,0.0576 0.008,0.006 0.0194,0.0114 0.0268,0.0193 0.004,0.005 0.006,0.0166 0.008,0.0237 0.004,0.0158 0.01,0.0324 0.005,0.0497 0,0.005 -0.004,0.008 -0.006,0.0136 -0.0194,0.0324 -0.0403,0.0633 -0.0554,0.0985 -0.008,0.0188 -0.0145,0.0331 -0.0194,0.0517 -0.005,0.0158 -0.0131,0.0274 -0.0201,0.0425 -0.007,0.0151 -0.007,0.0295 -0.0131,0.0445 -0.004,0.007 -0.007,0.0136 -0.008,0.0216 -0.004,0.0173 0.007,0.0173 0.0102,0.0324 0,0.007 0,0.0136 0,0.0223 0.004,0.0144 0.005,0.028 0.007,0.0431 0.004,0.0203 0.0113,0.0583 0.0229,0.0769 0.0359,-0.004 0.0697,-0.0223 0.10636,-0.0265 0.0626,-0.008 0.12295,-0.0267 0.18553,-0.0368 0.0517,-0.008 0.10273,-0.0208 0.15388,-0.0307 0.0488,-0.009 0.0948,-0.0296 0.14376,-0.0381 0.0106,0.001 0.0215,0.004 0.0325,0.006 0.0243,0.004 0.0488,0.004 0.0733,0.008 0.0625,0.0114 0.12791,0.0366 0.18108,0.071 0.0447,0.0282 0.0856,0.0598 0.12739,0.0907 0.018,0.0129 0.0374,0.023 0.0546,0.0359 0.012,0.009 0.0222,0.0193 0.0339,0.028 0.0109,0.009 0.0289,0.0281 0.0433,0.0274 0.01,-7.1e-4 0.0159,-0.008 0.0222,-0.0138"
       style="fill:#21201d;fill-opacity:1;fill-rule:nonzero;stroke:none;stroke-width:0.184057"
       id="path568" />
    <path
       d="m 103.31246,151.34063 c 0.0123,0.009 0.0425,0.0381 0.0243,0.0539 -0.004,0.002 -0.0353,0.003 -0.0403,0.004 -0.0155,0.002 -0.0321,-0.003 -0.0481,-0.001 -0.0123,7.1e-4 -0.0166,0.005 -0.0275,0.009 -0.0113,0.004 -0.0229,0.002 -0.0346,0.005 -0.0517,0.0114 -0.10435,0.0237 -0.15533,0.0366 -0.0353,0.009 -0.0661,0.018 -0.10216,0.0215 -0.005,0 -0.009,7e-4 -0.0138,0.001 0.007,-0.005 0.0138,-0.0116 0.018,-0.0173 0.004,-0.005 0.004,-0.0109 0.006,-0.0165 0,-0.004 0,-0.006 0.004,-0.009 0,-0.002 0.0106,-0.008 0.0131,-0.009 0.0173,-0.0151 0.0342,-0.0302 0.0525,-0.0453 0.0159,-0.0138 0.0325,-0.026 0.0497,-0.0375 0.0303,-0.0193 0.0567,-0.0503 0.0812,-0.0775 0.004,-0.005 0.01,-0.0116 0.0152,-0.0158 0.0222,-0.0151 0.0734,-0.009 0.0841,0.0171 0.007,0.0166 0.0116,0.0282 0.0261,0.0418 0.0152,0.0144 0.0318,0.0272 0.0481,0.0396 m 0.24388,-0.55586 c -0.0296,0.0144 -0.0576,0.0309 -0.0856,0.049 -0.0769,0.0482 -0.15092,0.10565 -0.2122,0.17117 -0.0296,0.0315 -0.0926,0.0322 -0.12499,0.007 -0.007,-0.006 -0.0145,-0.0116 -0.0222,-0.0158 -0.0109,-0.006 -0.0243,-0.008 -0.0346,-0.0144 -0.0201,-0.0138 -0.0208,-0.0361 -0.0488,-0.0381 -0.0229,-0.001 -0.0261,0.006 -0.0418,0.0201 -0.0127,0.0109 -0.0102,0.0238 -0.0102,0.0403 0,0.009 0,0.0186 -0.004,0.0272 0,0.009 -0.006,0.0151 -0.007,0.0245 0,0.0136 -0.006,0.041 0,0.0517 0.005,0.007 0.0123,0.008 0.0187,0.0101 0.0145,0.006 0.0261,0.0144 0.0403,0.0201 0.0187,0.009 0.0401,0.0173 0.0611,0.021 -0.0173,0.0201 -0.0346,0.0409 -0.0539,0.0589 -0.0236,0.0223 -0.0519,0.0324 -0.0806,0.0468 -0.0187,0.009 -0.0381,0.0193 -0.0559,0.0302 -0.006,0.003 -0.0102,0.005 -0.0123,0.0121 -0.004,0.007 0,0.009 -0.007,0.0109 -0.0138,0.004 -0.0561,-0.005 -0.0597,-0.0208 -0.004,-0.008 0.008,-0.0166 0.0113,-0.0217 0.0236,-0.0344 0.0318,-0.0826 0.0396,-0.12296 0.004,-0.0129 0.008,-0.0243 0.018,-0.0337 0,-0.001 0,-0.004 0,-0.005 0.004,-0.0157 0.008,-0.0294 0.008,-0.046 0,-0.0151 0,-0.0302 0,-0.0453 0,-0.0136 0.008,-0.0258 0.0138,-0.0396 0.008,-0.0208 0.0222,-0.0386 0.0317,-0.0596 0.012,-0.0272 0.007,-0.0567 -0.0145,-0.0777 -0.0116,-0.009 -0.0243,-0.0164 -0.0361,-0.0265 -0.0106,-0.0109 -0.0215,-0.0123 -0.0353,-0.008 -0.0187,0.006 -0.0353,0.0173 -0.0418,0.0359 -0.008,0.0203 -0.01,0.0418 -0.0169,0.0619 -0.0117,0.0346 -0.0219,0.0683 -0.0332,0.10288 -0.018,0.056 -0.0411,0.11357 -0.0517,0.171 -0.005,0.0195 -0.007,0.041 -0.0152,0.0591 -0.01,0.0215 -0.0219,0.0396 -0.0282,0.0618 -0.004,0.0151 -0.008,0.0309 -0.01,0.046 -0.004,0.0129 0,0.0351 -0.006,0.0468 -0.004,0.007 -0.004,0.005 -0.009,0.01 -0.0102,0.006 -0.0201,0.0123 -0.0282,0.0215 -0.01,0.0116 -0.018,0.0245 -0.0254,0.0375 -0.008,0.0136 -0.0113,0.0295 -0.0194,0.0438 -0.012,0.0208 -0.0254,0.0453 -0.0403,0.0646 -0.01,0.0138 -0.0194,0.0267 -0.0265,0.0425 -0.008,0.0186 -0.0166,0.0359 -0.0361,0.0423 -0.006,0.001 -0.0137,0.001 -0.0201,0.005 -0.006,0.003 -0.0109,0.009 -0.0166,0.0136 -0.01,0.006 -0.0194,0.0114 -0.0264,0.0208 -0.018,0.0208 -0.0254,0.0497 -0.0425,0.072 -0.0145,0.0173 -0.031,0.046 -0.008,0.0626 0.0166,0.0129 0.03,0.0129 0.0519,0.0136 0.0152,7e-4 0.0328,-0.003 0.0423,-0.0173 0.004,-0.004 0.004,-0.0101 0.006,-0.0144 0.0123,-0.0151 0.0374,-0.0129 0.0532,-0.0245 0.0152,-0.0114 0.0339,-0.0166 0.0475,-0.0295 0.0102,-0.009 0.0187,-0.0208 0.0275,-0.0316 0.007,-0.0101 0.01,-0.023 0.0187,-0.0309 0.008,-0.01 0.0236,-0.0201 0.0346,-0.0272 0.0145,-0.0109 0.03,-0.0203 0.0453,-0.0294 0.008,-7.1e-4 0.018,-0.003 0.0272,-0.006 0.0138,-0.004 0.0661,-0.0121 0.0381,-0.009 0.0293,-0.005 0.0584,-0.0158 0.0871,-0.021 0.0725,-0.0129 0.14524,-0.0208 0.21699,-0.0337 0.031,-0.006 0.0598,-0.0158 0.0915,-0.0203 0.0438,-0.006 0.0861,-0.0121 0.13014,-0.0208 0.048,-0.009 0.1005,-0.0109 0.1465,-0.0265 0.008,-0.004 0.0166,-0.009 0.0261,-0.0109 0.0127,-0.004 0.0243,0 0.0374,-0.001 0.013,-0.001 0.0194,-0.0107 0.0317,-0.0151 0.008,-0.003 0.0166,-0.006 0.0254,-0.0101 0.0166,-0.009 0.0187,-0.0388 0.01,-0.0545 -0.01,-0.018 -0.0296,-0.0267 -0.0425,-0.0418 -0.0159,-0.0195 -0.0332,-0.0381 -0.0495,-0.0576 -0.0201,-0.023 -0.0375,-0.048 -0.0554,-0.0733 -0.0145,-0.0208 -0.0275,-0.0468 -0.0525,-0.0554 -0.0194,-0.006 -0.041,-0.009 -0.0447,-0.0324 -0.004,-0.0129 0.008,-0.0201 0.0159,-0.0287 0.008,-0.009 0.0138,-0.0208 0.0229,-0.0295 0.007,-0.006 0.0145,-0.0101 0.0212,-0.0144 0.0272,-0.0173 0.051,-0.0396 0.0804,-0.0517 0.0166,-0.006 0.0339,-0.0123 0.0512,-0.0188 0.0208,-0.009 0.0374,-0.0158 0.0431,-0.0396 0,-0.006 0,-0.0121 0.004,-0.0171 0.008,-0.013 0.0282,-0.009 0.0411,-0.008 0.018,7e-4 0.0403,-0.001 0.0569,0.004 0.004,10e-4 0.0152,0.0109 0.0187,0.0101 0.01,-7e-4 0.004,-0.0195 0,-0.0252 -0.004,-0.009 -0.0113,-0.0129 -0.0145,-0.0208 -0.004,-0.006 0,-0.0116 -0.004,-0.0173 -0.004,-0.0445 -0.0321,-0.0826 -0.0539,-0.12148 -0.012,-0.002 -0.0229,0.007 -0.0328,0.0121"
       style="fill:#21201d;fill-opacity:1;fill-rule:nonzero;stroke:none;stroke-width:0.184057"
       id="path570" />
  </g>
</svg>
