<?xml version="1.0" encoding="UTF-8" standalone="no"?>
<!-- Created with Inkscape (http://www.inkscape.org/) -->

<svg
   width="6.073842mm"
   height="7.9441824mm"
   viewBox="0 0 6.073842 7.9441824"
   version="1.1"
   id="svg2519"
   inkscape:version="1.1.2 (0a00cf5339, 2022-02-04)"
   sodipodi:docname="re3.svg"
   xmlns:inkscape="http://www.inkscape.org/namespaces/inkscape"
   xmlns:sodipodi="http://sodipodi.sourceforge.net/DTD/sodipodi-0.dtd"
   xmlns="http://www.w3.org/2000/svg"
   xmlns:svg="http://www.w3.org/2000/svg">
  <sodipodi:namedview
     id="namedview2521"
     pagecolor="#ffffff"
     bordercolor="#666666"
     borderopacity="1.0"
     inkscape:pageshadow="2"
     inkscape:pageopacity="0.0"
     inkscape:pagecheckerboard="0"
     inkscape:document-units="mm"
     showgrid="false"
     inkscape:zoom="0.64052329"
     inkscape:cx="-1108.4687"
     inkscape:cy="41.372422"
     inkscape:window-width="2560"
     inkscape:window-height="1376"
     inkscape:window-x="0"
     inkscape:window-y="0"
     inkscape:window-maximized="1"
     inkscape:current-layer="layer1" />
  <defs
     id="defs2516" />
  <g
     inkscape:label="Layer 1"
     inkscape:groupmode="layer"
     id="layer1"
     transform="translate(-398.05784,-137.71156)">
    <path
       d="m 403.71893,138.63199 c 7e-4,0.004 7e-4,0.008 7e-4,0.0116 0.008,0.002 0.0165,0.004 0.0252,0.005 -0.0116,-0.002 -0.0203,-0.009 -0.026,-0.0166"
       style="fill:#21201d;fill-opacity:1;fill-rule:evenodd;stroke:none;stroke-width:0.184057"
       id="path576" />
    <path
       d="m 404.12735,139.22668 c -0.0121,-0.0504 -0.0589,-0.0992 -0.0928,-0.1432 -0.0497,-0.0646 -0.11209,-0.12221 -0.15681,-0.1905 -0.0366,-0.0567 -0.0322,-0.12497 -0.0366,-0.18829 -0.15957,-0.0339 -0.19344,-0.0863 -0.25381,-0.0965 -0.0733,-0.0121 -0.14946,0.0217 -0.19915,0.0606 -0.0416,0.0322 -0.0797,0.0683 -0.12074,0.10197 -0.009,0.009 -0.0208,0.0188 -0.0331,0.0237 -0.007,0.004 -0.0121,0.004 -0.0171,0.004 -0.0316,-0.0554 -0.067,-0.1086 -0.10509,-0.1605 -0.01,-0.0179 -0.0201,-0.0366 -0.0295,-0.0552 -0.0173,-0.0374 -0.0431,-0.0698 -0.0618,-0.10638 -0.023,-0.0447 -0.0639,-0.0742 -0.10197,-0.10437 -0.0289,-0.023 -0.0633,-0.0337 -0.0915,-0.0561 -0.0438,-0.0329 -0.0718,-0.0683 -0.12221,-0.0898 -0.0488,-0.0208 -0.0891,-0.0554 -0.1351,-0.0819 -0.0755,-0.0475 -0.15608,-0.0913 -0.23945,-0.13086 -0.0193,-0.0144 -0.0381,-0.028 -0.0596,-0.0396 -0.0618,-0.0344 -0.12589,-0.0438 -0.1905,-0.0683 -0.0294,-0.0116 -0.0596,-0.0201 -0.0906,-0.028 -0.003,0 -0.007,0 -0.0101,-0.002 -0.23301,-0.072 -0.48609,-0.11283 -0.74911,-0.11946 -0.023,-0.008 -0.0453,-0.0151 -0.0683,-0.0208 -0.0584,-0.0129 -0.11228,-0.009 -0.17044,-0.0144 -0.0618,-0.006 -0.12295,-0.0151 -0.18405,-0.004 -0.0512,0.0101 -0.10363,0.0138 -0.15111,0.0353 -0.0898,0.0431 -0.18829,0.0633 -0.28032,0.10141 -0.0101,0.004 -0.0193,0.009 -0.028,0.0136 -0.0497,0.0151 -0.0979,0.0316 -0.14596,0.0482 -0.0151,0.004 -0.0302,0.008 -0.044,0.0136 -0.005,0.002 -0.0107,0.006 -0.0158,0.009 -0.0157,0.006 -0.0315,0.0129 -0.0473,0.0193 -0.021,0.006 -0.0425,0.0101 -0.0626,0.018 -0.0208,0.008 -0.041,0.0179 -0.0626,0.0245 -0.0136,0.004 -0.0324,0.006 -0.0445,0.0151 -0.0109,0.008 -0.0151,0.0193 -0.021,0.0302 -0.12939,0.0675 -0.25013,0.14449 -0.35946,0.23007 -0.007,0.006 -0.0144,0.0114 -0.023,0.0166 -0.0302,0.0208 -0.0639,0.0366 -0.0963,0.0552 -0.049,0.0267 -0.0957,0.0633 -0.14228,0.095 -0.0519,0.0344 -0.092,0.0834 -0.13086,0.13086 -0.0526,0.0626 -0.10712,0.12443 -0.15608,0.18977 -0.0445,0.0611 -0.0633,0.13657 -0.0999,0.20136 -0.0475,0.0834 -0.0849,0.15461 -0.0891,0.25381 -7e-4,0.0237 -10e-4,0.0488 -0.004,0.074 -0.0799,-0.0166 -0.11006,-0.0331 -0.15608,-0.0374 -0.0732,-0.006 -0.14945,0.0116 -0.19841,0.0324 -0.0396,0.0166 -0.0777,0.0344 -0.1143,0.0517 -0.0351,0.0166 -0.0438,0.0346 -0.0532,0.0561 -0.008,0.0166 -0.008,0.0344 -0.0201,0.0495 -0.0131,0.0166 -0.0374,0.0317 -0.0584,0.046 -0.0265,0.0195 -0.0265,0.0381 -0.0431,0.0591 -0.0109,0.0136 -0.0287,0.0243 -0.0445,0.0366 -0.0396,0.0324 -0.0504,0.0755 -0.0561,0.11135 -0.006,0.0361 0.0116,0.0641 0.0497,0.095 0.0223,0.0186 0.0416,0.0366 0.0559,0.0569 -0.001,0.0179 0,0.0359 0.004,0.0538 0.009,0.0512 0.0114,0.0986 0.006,0.14816 -0.009,0.0777 -0.0475,0.15093 -0.0539,0.2286 -0.004,0.0396 -0.0101,0.0784 -0.0144,0.11798 -10e-4,0.003 -0.003,0.006 -0.005,0.009 -0.0203,0.028 -0.0425,0.0524 -0.0433,0.0826 -10e-4,0.0561 -0.005,0.1143 0.026,0.16896 0.0316,0.0569 0.0445,0.1143 0.069,0.17191 0.0337,0.0819 0.0755,0.16308 0.092,0.24591 0.0223,0.10988 0.0352,0.22068 0.0596,0.33056 0.0274,0.12664 0.0245,0.25308 0.046,0.37972 0.009,0.0561 0.0309,0.11135 0.0388,0.16822 0.006,0.0468 0.0165,0.0942 0.0208,0.14099 0.009,0.10565 0,0.2113 -0.0107,0.31695 -0.004,0.0309 -7.1e-4,0.0618 -10e-4,0.0935 -7.1e-4,0.0317 0.0129,0.0596 0.026,0.0906 0.0144,0.0361 0.0171,0.0712 0.0272,0.10638 0.0121,0.044 0.028,0.0878 0.0418,0.1316 0.0193,0.0648 0.0488,0.1294 0.069,0.19492 -0.007,-0.0425 -0.005,-0.0893 0.006,-0.13086 0.0151,-0.0561 0.006,-0.11357 0.0158,-0.16971 0.023,-0.14172 0.0208,-0.28473 0.0381,-0.42627 0.0151,-0.12811 0.0316,-0.25529 0.0503,-0.38321 0.0101,-0.0712 0.0158,-0.14246 0.023,-0.21296 0.0237,0.067 0.0512,0.13455 0.0712,0.20136 0.0151,0.0532 0.007,0.10713 0.0129,0.16105 0.005,0.0497 0.0109,0.0992 0.0223,0.1502 0.023,0.10141 0.041,0.2043 0.0742,0.307 0.0488,0.15388 0.0309,0.30499 0.0423,0.45591 0.006,0.0668 0,0.13382 0.0287,0.20137 0.007,0.0151 0.0202,0.0309 0.023,0.046 0.0151,-0.12663 0.0282,-0.25308 0.0418,-0.37971 0.007,-0.0653 0.0144,-0.1316 0.0215,-0.19768 0.0101,-0.0876 -0.0114,-0.17762 -7e-4,-0.26449 0.013,-0.10068 0.023,-0.20136 0.0346,-0.30131 0.006,-0.0596 0.006,-0.11945 0.025,-0.17687 0.006,0.0215 0.0116,0.0423 0.0166,0.0633 0.0123,0.048 0.0166,0.0977 0.026,0.14596 0.0101,0.0525 0.0309,0.1027 0.0423,0.15443 0.0188,0.0841 0.0131,0.16841 0.0131,0.25307 7.1e-4,0.0346 -10e-4,0.0698 -7e-4,0.10436 10e-4,0.0359 0.0173,0.0668 0.0245,0.10216 0.009,0.0488 -0.009,0.0985 0.0136,0.14596 0.0193,0.0431 0.0675,0.0733 0.0928,0.1143 0.0359,0.0574 0.0718,0.12295 0.0841,0.18534 0.0158,0.0799 0.0423,0.15976 0.0718,0.23799 0.0124,0.0316 0.0331,0.0583 0.0447,0.0907 0.0107,0.0315 0.0302,0.0661 0.0351,0.0985 0.004,0.028 -0.007,0.0475 -0.0144,0.0725 -0.004,0.0151 0.001,0.0331 -0.002,0.049 -0.003,0.0151 -0.009,0.028 -0.0101,0.0431 -0.002,0.0396 0.0188,0.0648 0.0296,0.10215 0.0107,0.0352 0.0136,0.072 0.0251,0.10638 0.0123,0.0359 0.0245,0.0705 0.0294,0.10713 0.007,0.046 7.1e-4,0.0893 -0.0151,0.13307 -0.0416,0.11927 -0.0179,0.24222 -0.0179,0.36517 0,0.0683 -0.004,0.13804 0.005,0.20633 0.009,0.0648 7e-4,0.12866 0.005,0.19345 0.004,0.049 0.018,0.0963 0.0188,0.14522 7.1e-4,0.0655 0.006,0.12516 0.0166,0.18976 10e-4,0.007 10e-4,0.0123 10e-4,0.0188 0.008,-0.0438 0.0166,-0.0871 0.0201,-0.13013 0.007,-0.0878 0.0109,-0.17615 0.018,-0.26541 0.008,-0.1 0.0223,-0.19971 0.0309,-0.29965 0.0129,-0.1432 0.0344,-0.28474 0.0495,-0.4272 0.0173,-0.17044 0.0237,-0.34142 0.0339,-0.5126 0.006,-0.10215 0.0179,-0.20559 0.0193,-0.30848 10e-4,-0.0552 -0.003,-0.10859 0.005,-0.16307 0.008,-0.0606 0.0186,-0.11872 0.0238,-0.17836 0.005,-0.072 0.006,-0.14375 0.0129,-0.21571 0.0107,-0.11578 0.0503,-0.22437 0.0611,-0.33941 0.006,-0.0639 10e-4,-0.12939 7e-4,-0.19399 -7e-4,-0.0685 0.009,-0.13234 0.0201,-0.19989 0.002,-0.0158 0.006,-0.0309 0.009,-0.046 0.004,0.0453 0.009,0.0906 0.0166,0.13657 0.009,0.0559 0.0316,0.11135 0.0388,0.16823 0.006,0.0468 0.0166,0.0942 0.0208,0.1408 0.009,0.10657 7e-4,0.21148 -0.0109,0.31713 -0.004,0.0309 -7.1e-4,0.0618 -0.001,0.0928 -7.1e-4,0.0324 0.0129,0.0604 0.0257,0.0913 0.0136,0.0353 0.0173,0.0712 0.0274,0.10638 0.0121,0.044 0.028,0.0878 0.0416,0.1316 0.0195,0.0655 0.0497,0.1294 0.0698,0.19492 -0.008,-0.0425 -0.006,-0.0893 0.005,-0.13086 0.0151,-0.0561 0.007,-0.11356 0.0158,-0.16971 0.023,-0.14172 0.021,-0.284 0.0381,-0.42645 0.0158,-0.12792 0.0316,-0.25511 0.0504,-0.38322 0.018,-0.12644 0.0208,-0.25363 0.0475,-0.38026 0.0179,-0.0863 0.0245,-0.17246 0.046,-0.25878 0.01,-0.041 0.0295,-0.0826 0.051,-0.12443 0.0121,0.051 0.006,0.10142 0.0109,0.15167 0.006,0.0497 0.0107,0.0992 0.0223,0.14964 0.0238,0.1027 0.0416,0.20559 0.074,0.30829 0.049,0.15332 0.0309,0.30499 0.0431,0.45592 0.005,0.0661 0,0.13307 0.0281,0.20062 0.006,0.0158 0.0201,0.0309 0.023,0.046 0.0158,-0.12589 0.028,-0.25308 0.0423,-0.37897 0.007,-0.0661 0.0136,-0.13216 0.021,-0.19768 0.01,-0.0883 -0.0109,-0.17835 0,-0.26523 0.0121,-0.10068 0.023,-0.20062 0.0337,-0.3013 0.009,-0.0762 0.006,-0.1524 0.046,-0.2251 0.0151,-0.0272 0.0274,-0.0552 0.0374,-0.0841 0.0136,0.0324 0.0252,0.0641 0.0309,0.0985 0.008,0.0532 -0.004,0.1086 -0.0129,0.16105 -0.008,0.0433 -0.0366,0.0806 -0.046,0.12295 -0.006,0.0316 -0.001,0.0655 -0.002,0.0979 0,0.0725 0.0129,0.14228 0.0129,0.21498 v 0.22787 c 0,0.041 -10e-4,0.0826 0,0.12368 7.1e-4,0.0423 0.0123,0.0841 0.0131,0.12572 10e-4,0.0769 -0.0109,0.15681 0.002,0.23228 0.008,0.049 0.008,0.0977 0.0164,0.14669 0.007,0.049 0.007,0.0928 0,0.14228 -0.006,0.0339 -0.0121,0.0677 -0.0179,0.10068 -10e-4,0.0109 -0.004,0.0245 -10e-4,0.0346 0.005,0.0324 0.0482,0.0431 0.0698,0.0711 0.0396,0.0526 0.0791,0.11651 0.0948,0.17633 0.0569,0.21498 0.0368,0.4364 0.0368,0.65487 0,0.13584 10e-4,0.27259 0.0151,0.40769 0.0151,0.14302 0.0121,0.28695 0.0316,0.4307 0.0179,0.12718 0.0309,0.25658 0.0539,0.38394 0.0136,0.0784 0.025,0.15737 0.0351,0.23652 0.002,0.0136 0,0.0295 0.005,0.0423 0.0569,-0.003 0.0353,-0.19915 0.0353,-0.22786 0,-0.11357 0.009,-0.2264 0.0114,-0.3394 0.002,-0.0631 0.0144,-0.12425 0.0136,-0.18683 0,-0.0539 0.002,-0.10215 0.0116,-0.1546 0.009,-0.0583 10e-4,-0.12295 -0.009,-0.1813 -0.0144,-0.0782 -0.008,-0.17246 0.006,-0.25087 0.0144,-0.0718 -0.004,-0.14301 0.0223,-0.21425 0.0123,-0.0344 0.0101,-0.0755 0.0309,-0.10712 0.0116,-0.018 0.0346,-0.0438 0.0512,-0.0589 0.025,-0.023 0.0574,-0.006 0.0854,0.0114 0.009,-0.0245 0.002,-0.0596 0.002,-0.0856 0,-0.0114 -0.002,-0.0243 7e-4,-0.0366 0.002,-0.0107 0.0109,-0.0129 0.0116,-0.028 0.007,-0.0834 0,-0.16823 0,-0.2516 v -0.39333 c 0,-0.11504 -0.007,-0.23008 -7.1e-4,-0.34511 0.002,-0.0351 0.0179,-0.069 0.023,-0.10418 0.004,-0.0274 0.006,-0.0475 0.0151,-0.0742 0.0107,-0.0309 0.0201,-0.0631 0.028,-0.0948 0.003,0.0121 0.005,0.025 0.007,0.0374 0.006,0.0475 0.0166,0.0948 0.0208,0.14154 0.009,0.10565 0,0.21148 -0.0107,0.31713 -0.003,0.0309 -7.1e-4,0.0618 -0.001,0.0928 -7.1e-4,0.0324 0.0129,0.0604 0.026,0.092 0.0144,0.0351 0.0179,0.0705 0.0272,0.10564 0.0121,0.0438 0.028,0.0878 0.041,0.13161 0.0201,0.0646 0.0495,0.12939 0.0703,0.19473 -0.008,-0.0423 -0.006,-0.0891 0.006,-0.13068 0.0144,-0.0561 0.006,-0.11375 0.0151,-0.1697 0.023,-0.14173 0.0208,-0.28474 0.0381,-0.42646 0.0158,-0.12792 0.0316,-0.25511 0.0502,-0.38321 0.0151,-0.10639 0.0202,-0.21204 0.0366,-0.31842 0.004,0.0287 0.007,0.0567 0.006,0.0863 0,0.0646 -0.006,0.13013 10e-4,0.194 0.0144,0.11503 0.0668,0.22363 0.0804,0.3394 0.009,0.072 0.0109,0.14375 0.018,0.21571 0.006,0.0596 0.0201,0.1178 0.0316,0.17836 0.01,0.0545 0.004,0.10785 0.006,0.16307 0.002,0.10289 0.0186,0.20633 0.0258,0.30848 0.0138,0.17118 0.0225,0.34217 0.0455,0.5126 0.0193,0.14247 0.048,0.28401 0.0653,0.4272 0.0116,0.1 0.0302,0.19971 0.041,0.29965 0.009,0.0893 0.0136,0.17762 0.0238,0.26541 0.005,0.0431 0.0164,0.0856 0.0257,0.12939 10e-4,-0.006 10e-4,-0.0121 0.002,-0.018 0.0143,-0.0646 0.0208,-0.12424 0.0223,-0.18977 0.001,-0.049 0.0201,-0.0963 0.0245,-0.14522 0.006,-0.0648 -0.004,-0.12866 0.007,-0.19344 0.0121,-0.0683 0.006,-0.13805 0.006,-0.20633 0,-0.0913 0.004,-0.17836 0.0158,-0.26818 0.018,-0.13878 0,-0.27756 0.0309,-0.4156 0.005,-0.0223 0.0129,-0.0438 0.0151,-0.0653 10e-4,-0.0151 -0.004,-0.0316 7e-4,-0.0453 0.004,-0.0173 0.0114,-0.0274 0.0317,-0.0302 0.0611,-0.0101 0.0869,0.0869 0.0963,0.12001 0.0136,0.051 0.0576,0.0942 0.0712,0.14596 0.0136,0.0561 0.0331,0.10859 0.0582,0.16252 0.0245,0.0547 0.0425,0.11062 0.0604,0.16676 0.0166,-0.002 0.009,-0.0223 0.009,-0.0344 7e-4,-0.0158 0.006,-0.0217 0.0109,-0.0353 0.0287,-0.0841 0.0114,-0.17761 0.0136,-0.26375 7.1e-4,-0.0475 0.0223,-0.092 0.026,-0.13952 0.005,-0.0547 0.0129,-0.10786 0.0129,-0.16252 -7.1e-4,-0.10418 -7.1e-4,-0.20854 -7.1e-4,-0.31271 0,-0.0482 0.002,-0.0972 7.1e-4,-0.14596 -7.1e-4,-0.0366 -0.0101,-0.072 -0.0129,-0.10859 -0.003,-0.0388 -0.0151,-0.0727 -0.023,-0.11007 -0.006,-0.0324 -0.002,-0.0676 -0.002,-0.1 v -0.20197 c 0,-0.026 -0.003,-0.0526 -7.1e-4,-0.0784 0.002,-0.0282 0.0129,-0.0547 0.0136,-0.0827 10e-4,-0.0526 0.004,-0.10141 0.0131,-0.15313 0.0107,-0.0598 0.0381,-0.12093 0.0539,-0.17982 0.0374,-0.13161 0.0574,-0.2667 0.1143,-0.39408 0.01,-0.0215 0.0208,-0.0416 0.0302,-0.0624 0.0129,0.0567 0.0265,0.1143 0.0446,0.17173 0.0489,0.15387 0.0309,0.3048 0.0431,0.45591 0.005,0.0661 0,0.13215 0.0287,0.20062 0.007,0.0156 0.0195,0.0309 0.0225,0.046 0.0151,-0.12664 0.028,-0.25309 0.0416,-0.37971 0.007,-0.0654 0.0144,-0.13161 0.0223,-0.19695 0.009,-0.0885 -0.0114,-0.17835 -0.001,-0.26541 0.0101,-0.0804 0.0195,-0.16105 0.0281,-0.24148 0.0324,0.14025 0.069,0.28032 0.0841,0.42278 0.0223,0.20633 0.0351,0.41192 0.0596,0.61825 0.0272,0.23504 0.0245,0.47174 0.046,0.70678 0.009,0.10491 0.0309,0.20854 0.0388,0.31345 0.006,0.0878 0.0166,0.17615 0.0208,0.26394 0.009,0.19694 7e-4,0.39389 -0.0107,0.59101 -0.004,0.0574 -7.1e-4,0.11559 -10e-4,0.1732 -7.1e-4,0.0596 0.0129,0.11209 0.0258,0.17044 0.0138,0.0661 0.0173,0.1316 0.0274,0.19768 0.0121,0.0819 0.028,0.16326 0.0416,0.24516 0.0195,0.12222 0.049,0.24167 0.069,0.36388 -0.007,-0.0791 -0.005,-0.1662 0.006,-0.24461 0.0151,-0.10418 0.006,-0.2113 0.0158,-0.31547 0.023,-0.26542 0.0201,-0.53065 0.0381,-0.79605 0.0151,-0.23799 0.0316,-0.47598 0.0503,-0.71378 0.018,-0.2367 0.0208,-0.47469 0.0468,-0.71047 0.0188,-0.16031 0.0252,-0.32136 0.0467,-0.48168 0.0193,-0.14595 0.0697,-0.29338 0.11061,-0.4364 0.0613,-0.21498 0.11302,-0.4329 0.11302,-0.65359 0,-0.0646 0.003,-0.12718 -0.0124,-0.1905 -0.023,-0.0935 -0.0287,-0.18976 -0.0631,-0.28253 -0.0173,-0.0453 -0.0252,-0.0742 -0.0252,-0.12092 0,-0.0287 -0.003,-0.0582 -7e-4,-0.0869 0.002,-0.0324 0.0129,-0.0633 0.0136,-0.0957 7e-4,-0.0401 0,-0.0804 0,-0.12147 v -0.32358 c 0,-0.10123 -0.009,-0.19842 0.0374,-0.2932 0.021,-0.0433 0.041,-0.0856 0.0626,-0.12958 0.0173,-0.0344 0.0475,-0.0617 0.0712,-0.0933 0.0374,-0.0519 0.0683,-0.10068 0.0891,-0.15829 0.0202,-0.0539 0.0388,-0.11651 0.026,-0.17246"
       style="fill:#21201d;fill-opacity:1;fill-rule:nonzero;stroke:none;stroke-width:0.184057"
       id="path578" />
    <path
       d="m 402.06169,145.38323 c 10e-4,-0.0359 -0.005,-0.072 -0.0129,-0.10712 -0.003,0.0352 0.006,0.0712 0.0129,0.10712"
       style="fill:#21201d;fill-opacity:1;fill-rule:nonzero;stroke:none;stroke-width:0.184057"
       id="path580" />
    <path
       d="m 399.50643,145.27684 c -0.006,0.0359 -0.0107,0.0712 -0.009,0.10639 0.004,-0.0351 0.0114,-0.0705 0.009,-0.10639"
       style="fill:#21201d;fill-opacity:1;fill-rule:nonzero;stroke:none;stroke-width:0.184057"
       id="path582" />
    <path
       d="m 400.49518,142.81507 c -7e-4,0.006 -0.001,0.0114 -0.002,0.0173 0.004,-0.006 0.004,-0.0116 0.002,-0.0173"
       style="fill:#21201d;fill-opacity:1;fill-rule:nonzero;stroke:none;stroke-width:0.184057"
       id="path584" />
    <path
       d="m 402.88847,142.60304 c -7.1e-4,0.006 -7.1e-4,0.0114 -10e-4,0.0171 0.003,-0.006 0.003,-0.0114 10e-4,-0.0171"
       style="fill:#21201d;fill-opacity:1;fill-rule:nonzero;stroke:none;stroke-width:0.184057"
       id="path586" />
    <path
       d="m 398.84862,143.16883 c -7.1e-4,0.006 -7.1e-4,0.0114 -10e-4,0.0171 0.003,-0.006 0.003,-0.0114 10e-4,-0.0171"
       style="fill:#21201d;fill-opacity:1;fill-rule:nonzero;stroke:none;stroke-width:0.184057"
       id="path588" />
  </g>
</svg>
