<?xml version="1.0" encoding="UTF-8" standalone="no"?>
<!-- Created with Inkscape (http://www.inkscape.org/) -->

<svg
   width="7.6983447mm"
   height="7.3067775mm"
   viewBox="0 0 7.6983447 7.3067775"
   version="1.1"
   id="svg2890"
   inkscape:version="1.1.2 (0a00cf5339, 2022-02-04)"
   sodipodi:docname="re4.svg"
   xmlns:inkscape="http://www.inkscape.org/namespaces/inkscape"
   xmlns:sodipodi="http://sodipodi.sourceforge.net/DTD/sodipodi-0.dtd"
   xmlns="http://www.w3.org/2000/svg"
   xmlns:svg="http://www.w3.org/2000/svg">
  <sodipodi:namedview
     id="namedview2892"
     pagecolor="#ffffff"
     bordercolor="#666666"
     borderopacity="1.0"
     inkscape:pageshadow="2"
     inkscape:pageopacity="0.0"
     inkscape:pagecheckerboard="0"
     inkscape:document-units="mm"
     showgrid="false"
     inkscape:zoom="0.64052329"
     inkscape:cx="14.051011"
     inkscape:cy="13.2704"
     inkscape:window-width="2560"
     inkscape:window-height="1376"
     inkscape:window-x="0"
     inkscape:window-y="0"
     inkscape:window-maximized="1"
     inkscape:current-layer="layer1" />
  <defs
     id="defs2887" />
  <g
     inkscape:label="Layer 1"
     inkscape:groupmode="layer"
     id="layer1"
     transform="translate(-101.07179,-144.84624)">
    <path
       d="m 107.04256,152.03246 h -0.007 c 0.0215,0.004 0.0208,-0.002 0.0286,-0.0173 0.0318,-0.0545 0.0243,-0.14375 0.0286,-0.20412 0.005,-0.064 0.0123,-0.12792 0.0123,-0.19197 0,-0.0906 -0.0187,-0.17835 -0.0368,-0.2667 -0.0473,-0.23155 -0.0861,-0.46456 -0.1071,-0.70034 -0.0187,-0.20559 -0.0394,-0.41119 -0.0409,-0.61752 0,-0.1905 -0.0109,-0.37971 -0.018,-0.57021 -0.006,-0.19473 -0.006,-0.39112 0,-0.58604 0.007,-0.20559 0.0303,-0.40971 0.0293,-0.6153 -0.004,-0.73697 0,-1.47394 0,-2.21091 0,-0.21001 0.0116,-0.42351 0,-0.63334 -0.005,-0.0698 -0.0187,-0.13602 -0.0194,-0.20633 0,-0.0433 0,-0.0871 0,-0.13013 0,-0.046 0.0109,-0.10657 -0.004,-0.15038 -0.01,0 -0.0293,-0.008 -0.0381,-0.0129 -0.0222,-0.0123 -0.0229,-0.018 -0.0503,-0.018 -0.0332,0 -0.0683,-0.004 -0.10069,0.002 -0.041,0.007 -0.0683,0.0193 -0.11225,0.0193 -0.0394,0 -0.0797,-0.005 -0.12001,-0.009 -0.11007,-0.009 -0.21996,-0.0201 -0.32929,-0.0329 -0.10343,-0.0123 -0.2063,-0.0109 -0.30995,-0.018 -0.14869,-0.0107 -0.30035,-0.002 -0.45,-0.002 -0.0869,0 -0.17247,-0.006 -0.25954,-0.009 -0.10287,-0.005 -0.20556,-0.002 -0.30847,-0.002 -0.1071,0 -0.21996,-0.0101 -0.32632,0.006 -0.0813,0.0136 -0.16326,0.023 -0.24518,0.0302 -0.21145,0.018 -0.42129,0.0445 -0.63204,0.0604 -0.10216,0.009 -0.20485,0.007 -0.30698,0.0203 -0.0468,0.006 -0.0992,0.009 -0.1445,0.0257 0.0604,-0.002 0.11927,0.0101 0.17907,0.0101 0.0547,0 0.10862,0.002 0.16252,-0.006 0.0653,-0.009 0.12866,0.002 0.19548,0.004 0.0863,0.004 0.17265,0 0.2588,0 0.10932,0.002 0.21865,0.009 0.32797,0.0101 0.1064,0.002 0.21202,0.0107 0.31916,0.0107 0.11578,0 0.23227,0 0.34858,0 0.0992,0 0.19918,0 0.29912,0 0.0841,0 0.16895,0.009 0.25379,0.0116 0.1215,0.005 0.24169,0.0193 0.36315,0.0193 0.12368,0 0.24592,0 0.36812,0.0195 0.0705,0.0114 0.14097,0.0344 0.21202,0.0403 0.0311,0.003 0.0641,-0.004 0.0943,0.002 0,0.0151 -0.0152,0.0331 -0.0201,0.0482 -0.0138,0.0388 -0.0173,0.0849 -0.0201,0.1259 -0.004,0.0582 0.006,0.1143 0.0145,0.17098 0.0145,0.10934 0.0346,0.21646 0.0569,0.32432 0.018,0.0891 0.0366,0.17908 0.046,0.26964 0.009,0.0841 0.013,0.16823 0.0243,0.25234 0.0215,0.16105 0.0293,0.32358 0.0423,0.48537 0.0138,0.16105 0.0318,0.32136 0.0411,0.48241 0.0109,0.19547 0.0325,0.39112 0.0366,0.58733 0.004,0.2078 0.031,0.41413 0.0396,0.62193 0.006,0.15829 0.004,0.31861 0.004,0.47745 0,0.32854 0.0265,0.65929 0.008,0.98857 -0.007,0.13878 -0.0425,0.27535 -0.0482,0.41413 -0.005,0.1316 -0.005,0.26744 0.006,0.3983 0.0243,0.28106 0.0589,0.56009 0.10438,0.83912 0.0293,0.1848 0.0596,0.37162 0.1027,0.55346 0.006,-0.004 0.0116,-0.006 0.049,-0.12074"
       style="fill:#21201d;fill-opacity:1;fill-rule:evenodd;stroke:none;stroke-width:0.184057"
       id="path616" />
    <path
       d="m 103.09251,145.1936 c 0.006,0 0.01,-0.002 0.0106,-0.006 0,0.0438 0.0116,0.0913 0.0159,0.13509 0.0152,0.14523 0.0145,0.28971 0.0145,0.43567 0,0.18995 -0.004,0.37898 0.008,0.568 0.0131,0.2021 0.0332,0.40272 0.064,0.60335 0.0633,0.41615 0.14027,0.83028 0.21001,1.24588 0.0646,0.38045 0.10347,0.76366 0.15021,1.14613 0.0388,0.31419 0.0517,0.63187 0.0517,0.94827 0,0.1351 0,0.26964 -0.01,0.404 -0.0102,0.12443 -0.0268,0.24885 -0.0296,0.37327 -0.004,0.11062 -0.0127,0.21922 -0.0208,0.32928 -0.01,0.12572 -0.0166,0.25585 -0.0482,0.37824 -0.0159,0.0617 -0.0394,0.12074 -0.0539,0.18406 -0.008,0.0394 -0.0138,0.0775 -0.0194,0.11706 -0.004,0.0151 -0.004,0.0346 -0.0127,0.0475 -0.0109,-0.003 -0.0145,-0.0963 -0.0152,-0.10418 -0.0131,-0.11301 0.007,-0.22584 0.008,-0.33793 0,-0.10639 0.004,-0.21295 -0.004,-0.3186 -0.0102,-0.17246 -0.0102,-0.34437 -0.0208,-0.51684 -0.0254,-0.38394 -0.0229,-0.7701 -0.0856,-1.15036 -0.0366,-0.22437 -0.064,-0.44652 -0.0885,-0.6731 -0.0215,-0.18608 -0.0416,-0.37235 -0.056,-0.56009 -0.0123,-0.16307 -0.0254,-0.3256 -0.0296,-0.48959 -0.006,-0.18406 -0.0394,-0.36664 -0.0488,-0.54997 -0.005,-0.0826 -0.004,-0.16399 -0.0116,-0.24664 -0.009,-0.0841 -0.0215,-0.16822 -0.031,-0.25307 -0.0229,-0.20854 -0.0236,-0.41708 -0.0374,-0.62617 -0.018,-0.27682 -0.0131,-0.55364 -0.0131,-0.83047 v -0.22142 c 0,-0.0267 -0.005,-0.0589 0,-0.0849 0.005,-0.0201 0.018,-0.0351 0.0208,-0.0561 0.0166,0.004 0.004,0.0274 0.007,0.0403 0.005,0.0129 0.018,0.0158 0.0712,0.0698"
       style="fill:#21201d;fill-opacity:1;fill-rule:nonzero;stroke:none;stroke-width:0.184057"
       id="path618" />
    <path
       d="m 108.33443,147.25413 c -0.0159,0 -0.0258,0 -0.0396,-0.004 -0.0208,-0.008 -0.0394,-0.026 -0.0596,-0.0359 -0.0863,-0.0433 -0.1754,-0.0447 -0.26892,-0.0598 -0.0797,-0.0136 -0.15385,-0.0215 -0.23576,-0.0208 -0.0725,0 -0.14521,-0.008 -0.21848,-0.0109 -0.067,-0.003 -0.12661,0.0145 -0.19198,0.0252 -0.0769,0.0123 -0.15459,0.0158 -0.22656,0.0468 -0.25731,0.11007 -0.52842,0.17762 -0.79364,0.26468 -0.15536,0.0503 -0.31789,0.10123 -0.47967,0.12295 -0.16454,0.0223 -0.32854,0.0257 -0.49456,0.0257 -0.22655,0 -0.46087,-0.0712 -0.67659,-0.13878 -0.25601,-0.0804 -0.50338,-0.18903 -0.75922,-0.26965 -0.12442,-0.0388 -0.25086,-0.0495 -0.3775,-0.0762 -0.0849,-0.0186 -0.17043,-0.0216 -0.25601,-0.0302 -0.0884,-0.009 -0.17174,-0.0208 -0.26099,-0.0201 -0.10199,0 -0.20708,-0.006 -0.30759,0.0114 -0.11373,0.0203 -0.21791,0.0863 -0.32797,0.11945 -0.0626,0.0186 -0.12147,0.0503 -0.1789,0.0812 -0.0497,0.0267 -0.10435,0.0411 -0.15681,0.0604 -0.0841,0.0309 -0.16383,0.046 -0.25456,0.0411 -0.0718,-0.004 -0.15166,-0.0403 -0.20264,-0.0906 -0.0102,-0.0109 -0.0159,-0.0245 -0.0254,-0.0353 -0.008,-0.0107 -0.0229,-0.0193 -0.0293,-0.0315 -0.007,-0.0116 -0.0124,-0.0361 0,-0.046 -0.0173,0.002 -0.0282,-0.002 -0.0418,0.01 -0.0257,0.0215 -0.0353,0.0784 -0.046,0.10933 -0.012,0.0359 -0.0251,0.0863 -0.0201,0.12442 0.004,0.0468 0.0453,0.0547 0.069,0.0891 -0.0145,0.004 -0.0346,0.003 -0.0482,0 -0.0258,-0.007 -0.0517,-0.0136 -0.0797,-0.009 -0.0821,0.0131 -0.10361,0.0979 -0.13306,0.16473 -0.0339,0.0777 -0.0339,0.15535 -0.0303,0.23799 0.004,0.0488 0.0187,0.0898 0.0403,0.13307 0.018,0.0359 0.0473,0.0711 0.0617,0.10841 -0.004,-0.0315 -0.008,-0.0775 0.008,-0.10565 0.0166,-0.0309 0.0455,-0.0561 0.0648,-0.0856 0.0261,-0.0396 0.0475,-0.0762 0.0826,-0.10915 0.0648,-0.0598 0.14245,-0.11228 0.22144,-0.15185 0.0598,-0.0294 0.12735,-0.0438 0.1892,-0.0675 0.0639,-0.0245 0.12643,-0.0502 0.19272,-0.0698 0.12351,-0.0351 0.24296,-0.0725 0.37087,-0.0935 0.13159,-0.0208 0.2654,-0.0394 0.39829,-0.0416 0.13158,-0.003 0.26818,-0.007 0.39903,0.007 0.049,0.006 0.095,0.0166 0.14319,0.028 0.0703,0.0173 0.14153,0.0289 0.21131,0.0453 0.14669,0.0353 0.28695,0.0913 0.42849,0.14098 0.16252,0.0576 0.32208,0.1259 0.48461,0.18185 0.12368,0.0433 0.24736,0.0675 0.37528,0.0913 0.0827,0.0158 0.16253,0.0346 0.24589,0.044 0.10068,0.0114 0.20136,0.0223 0.30279,0.0317 0.0948,0.009 0.18976,0.006 0.28381,0.006 0.0928,0 0.18626,0.004 0.2783,0 0.14447,-0.006 0.30424,-0.006 0.4408,-0.0576 0.0597,-0.0215 0.12075,-0.0366 0.18186,-0.0574 0.0502,-0.0173 0.0992,-0.0396 0.15091,-0.051 0.0583,-0.0138 0.11579,-0.026 0.17339,-0.0411 0.056,-0.0136 0.11282,-0.0158 0.17026,-0.0223 0.0942,-0.009 0.19988,-0.0302 0.29061,0.008 0.0438,0.0178 0.0978,0.0409 0.11282,0.0876 0.013,0.0403 0.0367,0.0841 0.005,0.12019 -0.0194,0.023 -0.0487,0.0618 -0.0755,0.0762 -0.0201,0.0107 -0.0324,0.0114 -0.0467,0.0294 0.0152,-0.002 0.0324,0.008 0.0475,0.0114 0.0497,0.0138 0.0992,0.0316 0.15092,0.0374 0.0576,0.007 0.12019,0.004 0.17837,0.002 0.041,0 0.0848,-0.006 0.12001,-0.0295 0.0346,-0.0223 0.0605,-0.0574 0.0856,-0.0898 0.0243,-0.0302 0.0517,-0.0641 0.0591,-0.10362 0.0113,-0.0574 0.005,-0.13013 -0.0258,-0.17965 -0.0374,-0.0611 -0.11081,-0.12442 -0.1754,-0.15313 -0.0482,-0.0215 -0.10143,-0.041 -0.15389,-0.0418 -0.0453,0 -0.0871,0.009 -0.12791,-0.0158 -0.0591,-0.0366 0.0279,-0.0711 0.0596,-0.0834 0.0431,-0.0178 0.0804,-0.0438 0.12791,-0.0495 0.0539,-0.007 0.11155,0 0.16602,-0.002 0.0455,0 0.0836,0.006 0.12665,0.0193 0.0388,0.0138 0.0705,0.0366 0.1071,0.0539 0.0856,0.041 0.18408,0.067 0.27905,0.069 0.0545,0 0.11927,0.009 0.17099,-0.0114 0.0388,-0.0151 0.10068,-0.0445 0.12294,-0.0813 0.0243,-0.0401 0.0318,-0.0941 0.0547,-0.13657 0.0187,-0.0352 0.0318,-0.0604 0.0279,-0.10141 0,-0.0158 -0.0473,-0.15811 -0.0696,-0.13363 -0.007,0.007 -0.007,0.0423 -0.0109,0.0532 -0.0159,0.0374 -0.0353,0.074 -0.0675,0.0999 -0.0512,0.0409 -0.0957,0.0525 -0.1583,0.0604 -0.0467,0.006 -0.0928,0.023 -0.14079,0.0188 -0.0539,-0.004 -0.11007,-0.0309 -0.16252,-0.0447 -0.0325,-0.01 -0.0656,-0.0164 -0.1,-0.0208 -0.0222,0 -0.0353,0.0116 -0.0388,0.0346"
       style="fill:#21201d;fill-opacity:1;fill-rule:nonzero;stroke:none;stroke-width:0.184057"
       id="path620" />
    <path
       d="m 107.80971,149.32478 c 0,-0.0294 0,-0.0539 0.0401,-0.0388 0.0152,0.006 0.0289,0.0267 0.0383,0.0381 0.0138,0.018 0.0353,0.0433 0.0416,0.0641 0.007,0.0215 0.004,0.0524 0,0.0755 0,0.0339 -0.004,0.0641 -0.0194,0.095 -0.0353,0.0646 -0.12076,0.10988 -0.18902,0.13086 -0.0525,0.0158 -0.10143,0.0201 -0.15537,0.0193 -0.0445,0 -0.0905,0.007 -0.13215,-0.0114 -0.0504,-0.0223 -0.10509,-0.0755 -0.1108,-0.13234 -0.004,-0.046 0,-0.0653 0.0411,-0.0856 0.0303,-0.0151 0.0582,-0.004 0.0876,-0.0144 -0.0201,-0.0173 -0.0353,-0.0173 -0.0596,-0.026 -0.0215,-0.008 -0.0388,-0.0114 -0.0618,-0.0129 -0.0265,-0.002 -0.051,-0.0109 -0.0777,-0.0109 -0.046,-0.002 -0.0546,0.0188 -0.0769,0.0512 -0.0113,0.0166 -0.031,0.0238 -0.0423,0.0403 -0.0109,0.0164 -0.0131,0.0329 -0.0286,0.046 -0.0166,0.0136 -0.0383,0.0208 -0.0583,0.0272 -0.0201,0.006 -0.0388,0.0208 -0.0582,0.0267 -0.0236,0.007 -0.0561,0.002 -0.0806,0.002 -0.0293,0 -0.0597,0.003 -0.0884,0 -0.0504,-0.004 -0.1071,-0.0316 -0.15314,-0.051 -0.0368,-0.0151 -0.0755,-0.0302 -0.11356,-0.0396 -0.046,-0.0114 -0.0843,-0.0309 -0.12883,-0.046 -0.0861,-0.028 -0.17466,-0.0502 -0.26173,-0.0762 -0.097,-0.0294 -0.19124,-0.0517 -0.29245,-0.051 -0.0749,0 -0.14965,0 -0.22437,0 -0.0742,0 -0.1489,-0.008 -0.22013,0.0129 -0.0589,0.018 -0.11486,0.0396 -0.17173,0.0626 -0.0554,0.0223 -0.10435,0.0488 -0.15755,0.0762 -0.0215,0.0114 -0.0431,0.0215 -0.0624,0.0374 -0.0138,0.0109 -0.0275,0.0237 -0.0433,0.0331 -0.0328,0.0208 -0.0653,0.0258 -0.10269,0.0322 -0.0475,0.009 -0.0935,0.009 -0.14171,0.008 -0.0554,-0.002 -0.10714,-0.028 -0.14948,-0.0631 -0.069,-0.0569 -0.1489,-0.10933 -0.23226,-0.14393 -0.0683,-0.0287 -0.14027,-0.0547 -0.21351,-0.0698 -0.031,-0.007 -0.0784,-0.0157 -0.10932,-0.004 0.005,0.0121 0.0222,0.0201 0.0332,0.0267 0.0396,0.025 0.0755,0.051 0.10915,0.0826 0.0396,0.0374 0.0618,0.0683 0.0598,0.12368 0,0.0366 -0.005,0.0574 -0.0418,0.0661 -0.0641,0.0136 -0.14228,0.002 -0.20634,0.002 -0.0381,0 -0.0697,0.002 -0.10563,-0.0101 -0.049,-0.0144 -0.0985,-0.0158 -0.14742,-0.0295 -0.0475,-0.0129 -0.0928,-0.0418 -0.13952,-0.0589 -0.0416,-0.0158 -0.0841,-0.0289 -0.12517,-0.0455 -0.0552,-0.0223 -0.1064,-0.0453 -0.16454,-0.0589 -0.0482,-0.0107 -0.097,-0.0287 -0.14742,-0.0302 -0.0396,-0.002 -0.0797,0 -0.11928,0 -0.0512,0 -0.10509,-0.006 -0.15536,0.002 -0.0208,0.006 -0.0418,0.0107 -0.0626,0.0166 -0.0173,0.002 -0.0335,0.002 -0.051,0.004 -0.0215,0.005 -0.0403,0.0208 -0.0626,0.0267 -0.0258,0.007 -0.0525,0.0107 -0.0769,0.0215 -0.0324,0.0136 -0.0611,0.0351 -0.092,0.0517 -0.17392,0.0905 -0.35669,0.15958 -0.55365,0.17909 -0.0353,0.004 -0.0791,0.008 -0.1143,0 -0.0236,-0.005 -0.0254,-0.0101 -0.0381,-0.0274 -0.0243,-0.0329 -0.0626,-0.0611 -0.0799,-0.0985 -0.0138,-0.0309 -0.0113,-0.0618 -0.012,-0.0942 0,-0.0171 -0.004,-0.0208 0.0102,-0.0302 0.007,-0.006 0.0286,-0.0107 0.0381,-0.01 -0.03,0 -0.0604,0.002 -0.0905,-0.002 -0.0626,-0.009 -0.11303,-0.008 -0.17561,0.006 -0.0416,0.009 -0.0812,0.0123 -0.11504,0.0418 -0.025,0.0223 -0.0473,0.0547 -0.0611,0.0863 -0.0106,0.0243 -0.0208,0.0545 -0.0279,0.0804 -0.004,0.0158 -0.005,0.0431 0,0.0589 0.007,0.018 0.031,0.0353 0.0418,0.0519 0.0113,0.0193 0.0152,0.0366 0.0339,0.0517 -0.0328,0.003 -0.0646,-0.0144 -0.0992,-0.0116 -0.0589,0.004 -0.0985,0.0475 -0.13159,0.0907 -0.0841,0.10988 -0.13659,0.25436 -0.0661,0.38449 0.0127,-0.004 0.005,-0.01 0.007,-0.0215 0.004,-0.0245 0.01,-0.0309 0.0293,-0.046 0.0433,-0.0329 0.0777,-0.0755 0.12443,-0.10491 0.069,-0.0431 0.1452,-0.0611 0.22288,-0.0806 0.0618,-0.0151 0.1373,-0.0164 0.19989,-0.007 0.0502,0.008 0.0992,0.0274 0.15092,0.0289 0.0762,0.002 0.15314,0 0.2286,-0.0109 0.0893,-0.0129 0.1754,-0.0245 0.26394,-0.041 0.0495,-0.009 0.10069,-0.0158 0.14874,-0.0309 0.0554,-0.0179 0.10509,-0.0473 0.16047,-0.0639 0.0977,-0.0274 0.19622,-0.0504 0.29542,-0.0742 0.10492,-0.0251 0.20853,-0.0322 0.31567,-0.0401 0.21201,-0.0151 0.43564,-0.0274 0.63919,0.0503 0.12722,0.049 0.25513,0.10639 0.39169,0.12737 0.0749,0.0114 0.1511,0.0193 0.22585,0.0302 0.0576,0.008 0.11924,0.002 0.17759,0.002 0.0755,0 0.15021,0 0.22567,0 0.0992,0 0.18846,-0.007 0.28547,-0.0322 0.0913,-0.0245 0.17981,-0.0504 0.26818,-0.0843 0.11945,-0.0445 0.24441,-0.11633 0.37529,-0.11633 0.0433,0 0.11648,-0.003 0.15109,0.0302 0.0201,0.0201 0.0208,0.0567 0.0265,0.0812 0.009,0.0359 0.0229,0.0633 -0.004,0.0957 -0.0113,0.0136 -0.0574,0.046 -0.0381,0.0675 0.01,0.0101 0.0942,-0.0166 0.10435,-0.0208 0.018,-0.009 0.0359,-0.0245 0.051,-0.0381 0.0222,-0.021 0.0201,-0.0368 0.0194,-0.0663 0,-0.0337 -0.0123,-0.069 0.018,-0.0863 0.0426,-0.0243 0.1143,-0.0258 0.16108,-0.023 0.0353,0.002 0.069,0.0101 0.10435,0.0109 0.046,0.002 0.0856,0 0.13085,0.009 0.0718,0.0158 0.14083,0.0403 0.21279,0.0559 0.0797,0.018 0.14944,0.0576 0.22508,0.0885 0.0827,0.0331 0.1688,0.0841 0.25731,0.097 0.0453,0.007 0.092,0 0.13804,0.004 0.0453,0.004 0.0898,0.01 0.13586,0.009 0.046,-0.002 0.0885,-0.0109 0.13381,-0.0217 0.0589,-0.0136 0.12442,-0.0121 0.18182,-0.0315 0.0293,-0.009 0.0604,-0.0238 0.0878,-0.0368 0.0366,-0.0179 0.0769,-0.0359 0.11137,-0.0567 0.0504,-0.0302 0.0999,-0.0742 0.12146,-0.12885 0.0229,-0.0596 0.0396,-0.11209 0.0254,-0.1754 -0.0127,-0.0525 -0.0423,-0.10915 -0.0668,-0.15663 -0.0254,-0.0482 -0.0863,-0.10639 -0.13088,-0.13952 -0.1071,-0.0799 -0.23375,-0.0324 -0.35302,-0.0727"
       style="fill:#21201d;fill-opacity:1;fill-rule:nonzero;stroke:none;stroke-width:0.184057"
       id="path622" />
    <path
       d="m 105.34499,145.98155 c 0.0201,0.006 0.0517,-0.0302 0.069,-0.0396 0.0906,-0.0488 0.17191,-0.0933 0.27608,-0.11283 0.0942,-0.0186 0.18772,-0.0158 0.28325,-0.0215 0.0633,-0.004 0.12591,-0.009 0.18976,-0.009 0.16767,-0.002 0.30776,0.051 0.45886,0.11725 0.0574,0.0245 0.11578,0.0423 0.17392,0.0639 0.0589,0.0217 0.1143,0.0519 0.17321,0.0742 0.12809,0.0482 0.25823,0.0488 0.39261,0.0495 0.0596,0 0.12439,0.007 0.18055,-0.0186 0.0416,-0.0188 0.0755,-0.0453 0.11059,-0.0747 0.031,-0.026 0.0633,-0.0468 0.0972,-0.0697 0.018,-0.0116 0.046,-0.0223 0.051,-0.0453 -0.0123,0.007 -0.01,0.0164 -0.0127,0.0287 -0.0123,0.0468 -0.0339,0.0948 -0.0512,0.13952 -0.0201,0.0539 -0.0562,0.0884 -0.0955,0.12866 -0.0447,0.0445 -0.0841,0.0797 -0.14172,0.10638 -0.0589,0.0272 -0.11726,0.0475 -0.18185,0.0582 -0.0734,0.0123 -0.14669,0.009 -0.2207,0.009 -0.067,0 -0.1301,-0.005 -0.19639,-0.0186 -0.0789,-0.0173 -0.15166,-0.0504 -0.23005,-0.072 -0.0777,-0.0223 -0.15536,-0.0381 -0.23008,-0.0712 -0.0596,-0.0265 -0.1143,-0.0445 -0.18038,-0.0503 -0.0742,-0.007 -0.14964,-0.0188 -0.22436,-0.0188 -0.0611,0 -0.11871,0.0188 -0.17763,0.0346 -0.0668,0.0166 -0.13084,0.023 -0.19988,0.0258 -0.0596,0.003 -0.11853,0.0151 -0.17833,0.0188 -0.0797,0.005 -0.1537,-0.0136 -0.23008,-0.0346 -0.0387,-0.01 -0.12425,-0.0302 -0.1294,-0.0812 0.0243,0.023 0.0633,0.0366 0.0935,0.0554"
       style="fill:#21201d;fill-opacity:1;fill-rule:nonzero;stroke:none;stroke-width:0.184057"
       id="path624" />
    <path
       d="m 102.06218,150.54785 c 0.0366,0.007 0.0856,-0.0388 0.11077,-0.0554 0.0518,-0.0344 0.11138,-0.0431 0.171,-0.0582 0.0943,-0.0237 0.18774,-0.044 0.28476,-0.0547 0.11151,-0.0123 0.20927,-0.0188 0.31933,0.007 0.0913,0.0208 0.194,0.0381 0.27884,0.0769 0.0467,0.0223 0.0769,0.0547 0.11797,0.0856 0.0589,0.046 0.12647,0.0769 0.19473,0.10786 0.067,0.0309 0.12958,0.0574 0.20285,0.069 0.0819,0.0129 0.17042,0.0129 0.25308,0.0136 0.19766,0.003 0.3968,-0.005 0.58529,-0.0712 0.0955,-0.0339 0.18405,-0.0891 0.27312,-0.13658 0.0814,-0.0433 0.16549,-0.0834 0.2424,-0.13381 0.0517,-0.0337 0.0884,-0.0869 0.14157,-0.11632 0.0229,-0.0138 0.0482,-0.0225 0.0747,-0.0282 -0.0265,0.0158 -0.0409,0.0532 -0.0552,0.0799 -0.0236,0.0468 -0.0418,0.0898 -0.0727,0.13362 -0.0325,0.0447 -0.0683,0.092 -0.1064,0.1316 -0.0359,0.0366 -0.0791,0.0784 -0.11871,0.1108 -0.0438,0.0366 -0.0985,0.0582 -0.14376,0.0928 -0.0395,0.0309 -0.0712,0.069 -0.11796,0.0898 -0.0495,0.023 -0.11138,0.0324 -0.16454,0.0475 -0.0935,0.0265 -0.18775,0.0468 -0.28547,0.0431 -0.0374,-0.002 -0.069,-0.0107 -0.10417,-0.0208 -0.0374,-0.0109 -0.0748,-0.0158 -0.11229,-0.0281 -0.0303,-0.01 -0.0604,-0.0243 -0.0906,-0.0309 -0.0201,-0.004 -0.0403,0 -0.0604,-0.003 -0.0446,-0.004 -0.0841,-0.009 -0.1294,-0.009 0.0856,0 0.16676,0.0359 0.21717,0.10638 0.018,0.0252 0.0321,0.049 0.046,0.0747 0.0162,0.0316 0.0374,0.0539 0.0567,0.0814 0.0102,0.0144 0.0366,0.0596 0.03,0.0769 -0.0201,-0.004 -0.0328,-0.0223 -0.0495,-0.0339 -0.0475,-0.0316 -0.10361,-0.0604 -0.15607,-0.0834 -0.0525,-0.0238 -0.10273,-0.0317 -0.16034,-0.0309 -0.0596,0 -0.12146,-0.006 -0.18037,0.002 -0.0569,0.008 -0.11081,0.0294 -0.16471,0.0482 -0.0611,0.0201 -0.13438,0.0178 -0.19696,0.005 -0.10435,-0.0215 -0.1905,-0.0906 -0.26465,-0.16326 -0.0755,-0.074 -0.17893,-0.10988 -0.27609,-0.14669 -0.0725,-0.028 -0.15737,-0.0366 -0.23579,-0.0272 -0.0346,0.004 -0.0769,0.0252 -0.10069,0.0517 -0.0222,0.0252 -0.0222,0.0604 -0.0215,0.092 0,0.0309 -0.008,0.072 0.0106,0.0977 0.0166,0.0217 0.0519,0.0453 0.0784,0.0526 -0.13953,-0.018 -0.27884,-0.044 -0.38524,-0.14467 -0.0275,-0.0258 -0.0712,-0.0631 -0.0878,-0.0985 -0.0145,-0.0324 -0.0116,-0.0698 -0.0116,-0.10418 0,-0.0482 0.0138,-0.0683 0.0482,-0.0992 0.0985,-0.0871 0.22582,-0.13583 0.34731,-0.18129"
       style="fill:#21201d;fill-opacity:1;fill-rule:nonzero;stroke:none;stroke-width:0.184057"
       id="path626" />
  </g>
</svg>
