<?xml version="1.0" encoding="UTF-8" standalone="no"?>
<!-- Created with Inkscape (http://www.inkscape.org/) -->

<svg
   width="7.8800273mm"
   height="7.7276773mm"
   viewBox="0 0 7.8800273 7.7276773"
   version="1.1"
   id="svg886"
   inkscape:version="1.1.2 (0a00cf5339, 2022-02-04)"
   sodipodi:docname="re5.svg"
   xmlns:inkscape="http://www.inkscape.org/namespaces/inkscape"
   xmlns:sodipodi="http://sodipodi.sourceforge.net/DTD/sodipodi-0.dtd"
   xmlns="http://www.w3.org/2000/svg"
   xmlns:svg="http://www.w3.org/2000/svg">
  <sodipodi:namedview
     id="namedview888"
     pagecolor="#ffffff"
     bordercolor="#666666"
     borderopacity="1.0"
     inkscape:pageshadow="2"
     inkscape:pageopacity="0.0"
     inkscape:pagecheckerboard="0"
     inkscape:document-units="mm"
     showgrid="false"
     inkscape:zoom="0.64052329"
     inkscape:cx="-1108.4687"
     inkscape:cy="612.78022"
     inkscape:window-width="2560"
     inkscape:window-height="1376"
     inkscape:window-x="0"
     inkscape:window-y="0"
     inkscape:window-maximized="1"
     inkscape:current-layer="layer1" />
  <defs
     id="defs883" />
  <g
     inkscape:label="Layer 1"
     inkscape:groupmode="layer"
     id="layer1"
     transform="translate(-398.39378,13.777611)">
    <path
       d="m 403.50208,-12.251949 c 0.0123,-0.002 0.0223,0.0059 0.0339,0.01012 0.0265,0.01233 0.0532,0.02374 0.0797,0.03589 0.0309,0.01509 0.0633,0.02522 0.095,0.03957 0.051,0.02448 0.1,0.0519 0.15167,0.07491 0.13086,0.05743 0.25234,0.126448 0.35946,0.222158 0.0849,0.0762 0.16252,0.153873 0.22804,0.247927 0.0525,0.07344 0.10565,0.14743 0.14522,0.2286 0.0193,0.04031 0.0344,0.08356 0.0532,0.123686 0.0208,0.04528 0.0374,0.08338 0.0475,0.131602 0.008,0.03957 0.0208,0.07694 0.0272,0.117245 0.007,0.0416 0.0116,0.08411 0.0195,0.126447 0.008,0.04749 0.0107,0.0935 0.01,0.142461 0,0.05743 0.005,0.1143 0.007,0.17099 0.004,0.107858 -0.0215,0.217925 -0.0409,0.323574 -0.0223,0.119453 -0.0381,0.238723 -0.0584,0.3581768 -0.008,0.047303 -0.025,0.092029 -0.0359,0.1380433 -0.0101,0.047303 -0.0215,0.093317 -0.0366,0.1393321 -0.0123,0.033867 -0.021,0.068469 -0.0339,0.102152 -0.018,0.050984 -0.0438,0.098471 -0.0697,0.1452217 -0.0223,0.041781 -0.0366,0.08485 -0.0547,0.1279201 -0.0208,0.049696 -0.0475,0.097183 -0.0733,0.1439333 -0.0539,0.095526 -0.11356,0.1825854 -0.18552,0.2644912 -0.0331,0.036628 -0.072,0.066261 -0.10639,0.1006796 -0.026,0.026688 -0.0482,0.055402 -0.0762,0.078409 -0.0762,0.063316 -0.16473,0.1192696 -0.25804,0.1516637 -0.0561,0.018775 -0.11081,0.030187 -0.16621,0.053193 -0.0611,0.026688 -0.12865,0.043253 -0.19546,0.056874 -0.0576,0.011412 -0.11651,0.020062 -0.17486,0.02945 -0.0322,0.00497 -0.0646,0.00865 -0.097,0.012883 -0.0503,0.00718 -0.0999,0.019509 -0.15019,0.030187 -0.0596,0.012333 -0.12093,0.023008 -0.18203,0.030184 -0.0683,0.00865 -0.13731,0.00792 -0.20486,0.0173 -0.12866,0.018038 -0.26173,0.016566 -0.38965,-0.00423 -0.1165,-0.018038 -0.23007,-0.050432 -0.34142,-0.090004 -0.0534,-0.019325 -0.10731,-0.035154 -0.15755,-0.061107 -0.0539,-0.027242 -0.10565,-0.059635 -0.15737,-0.08982 -0.0482,-0.027979 -0.0885,-0.064605 -0.1316,-0.098471 -0.041,-0.031658 -0.0834,-0.060371 -0.12442,-0.092765 -0.10639,-0.083378 -0.20927,-0.1761433 -0.28897,-0.2869462 -0.12166,-0.1682292 -0.19915,-0.364435 -0.26615,-0.5593521 -0.0388,-0.111355 -0.0611,-0.2278637 -0.0955,-0.3406913 -0.0144,-0.044542 -0.0295,-0.087796 -0.041,-0.1330742 -0.008,-0.02945 -0.0136,-0.06037 -0.0215,-0.08908 -0.007,-0.02816 -0.018,-0.05466 -0.0237,-0.08209 -0.009,-0.04601 -0.0136,-0.09405 -0.0208,-0.140068 -0.007,-0.04454 -0.0109,-0.08927 -0.0109,-0.134546 7.1e-4,-0.05098 7.1e-4,-0.101416 0.007,-0.151664 0.006,-0.05172 0.0215,-0.09921 0.0309,-0.150191 0.0158,-0.09203 0.0374,-0.183322 0.0591,-0.274799 0.0186,-0.07822 0.0453,-0.148719 0.0819,-0.220685 0.0186,-0.0381 0.0388,-0.07546 0.0561,-0.1143 0.0208,-0.04749 0.0488,-0.08706 0.079,-0.129393 0.0618,-0.08411 0.13233,-0.173198 0.21792,-0.233754 0.0819,-0.05816 0.17541,-0.09921 0.26449,-0.143013 0.0618,-0.03019 0.12019,-0.06828 0.18056,-0.101415 0.0295,-0.01583 0.0567,-0.03589 0.0883,-0.04804 0.0309,-0.01159 0.0569,-0.02816 0.0863,-0.04252 0.0339,-0.01657 0.0705,-0.02374 0.10565,-0.03515 0.0361,-0.0116 0.0683,-0.02669 0.10215,-0.04178 0.0351,-0.01583 0.0755,-0.0208 0.11209,-0.03166 0.0331,-0.0099 0.0675,-0.01859 0.10215,-0.0265 0.0324,-0.0072 0.0661,-0.0116 0.0985,-0.01307 0.023,-0.002 0.0532,-0.005 0.0755,0 0.001,0.01454 0,0.03037 7.1e-4,0.04546 0,0.02006 0.005,0.02301 0.0129,0.03939 0.007,0.0173 0.007,0.03755 0.0124,0.0554 0.007,0.0208 0.0121,0.04454 0.0201,0.06479 0.0101,0.02798 0.0381,0.05466 0.0554,0.07767 0.026,0.03147 0.0346,0.06681 0.0554,0.09994 0.0351,0.05816 0.0712,0.116324 0.0977,0.178904 0.0309,0.07417 0.0698,0.145222 0.0963,0.220685 0.0245,0.06902 0.0331,0.143934 0.0252,0.215716 -0.003,0.02025 -0.006,0.03957 -0.0121,0.05835 -0.007,0.01933 -0.0144,0.0381 -0.0208,0.05743 -0.006,0.02227 -0.009,0.04454 -0.0101,0.067 -0.009,0.08117 -0.0655,0.14651 -0.0871,0.224182 -0.0193,0.06829 -0.0633,0.12516 -0.0733,0.197126 -0.0123,0.08264 -0.006,0.166757 -0.0136,0.250135 -0.004,0.04307 -0.0109,0.08559 -0.0145,0.128657 -0.005,0.04454 -0.004,0.08982 -0.008,0.134546 -0.006,0.07767 0.004,0.1516641 0.0203,0.2271278 0.0186,0.085587 0.0409,0.1652838 0.0777,0.2444288 0.023,0.049696 0.0539,0.091293 0.0834,0.1373075 0.0245,0.039572 0.0482,0.075464 0.0804,0.10933 0.0611,0.065341 0.11651,0.1350988 0.17485,0.2013596 0.0387,0.043806 0.0696,0.083378 0.0977,0.1350984 0.0173,0.033129 0.0352,0.064052 0.0554,0.096447 -0.006,-0.0381 0.0121,-0.074175 0.0337,-0.1058334 0.0208,-0.030187 0.0482,-0.057426 0.0698,-0.088348 0.026,-0.0381 0.051,-0.076936 0.0806,-0.1135637 0.0618,-0.076936 0.092,-0.1741188 0.12866,-0.2646754 0.0186,-0.046014 0.0396,-0.091292 0.0559,-0.1380434 0.0225,-0.061107 0.0296,-0.1257116 0.0411,-0.1890275 0.0101,-0.054665 0.0116,-0.1093304 0.0188,-0.1639947 0.007,-0.05393 0.006,-0.108595 -0.002,-0.162524 -0.007,-0.05448 -0.0215,-0.107858 -0.0331,-0.161786 -0.0107,-0.04878 -0.0166,-0.09921 -0.0316,-0.146511 -0.0223,-0.0727 -0.0344,-0.14743 -0.0604,-0.219397 -0.0251,-0.07325 -0.0639,-0.146694 -0.10197,-0.214243 -0.0388,-0.06902 -0.0928,-0.133626 -0.12368,-0.207065 -0.0331,-0.07767 -0.0791,-0.144486 -0.0834,-0.232281 -10e-4,-0.03589 -10e-4,-0.07252 0.006,-0.108411 0.009,-0.04252 0.0287,-0.07841 0.0495,-0.115772 0.0331,-0.05908 0.0618,-0.125895 0.0863,-0.188475 0.0116,-0.02724 0.0295,-0.04951 0.0388,-0.07767 0.006,-0.0208 0.009,-0.04454 0.0116,-0.06608 0.001,-0.02006 0.008,-0.03663 0.0144,-0.05614 0.006,-0.01933 0.009,-0.03957 0.0171,-0.0589 0.0151,-0.0324 0.0316,-0.06332 0.0512,-0.0935 0.0193,-0.03092 0.0495,-0.05614 0.0668,-0.08835 0.009,-0.01877 0.0144,-0.02522 0.0346,-0.02816 0.0171,-0.0028 0.0272,-0.0092 0.0416,-0.01638 0.0129,-0.0066 0.0359,-0.0086 0.0517,-0.0037 0.009,0.0037 0.0145,0.01012 0.021,0.01657 0.009,0.01012 0.0144,0.01436 0.0243,0.02227 0.009,0.0057 0.0158,0.01657 0.0252,0.0208 0.0195,0.0079 0.0596,0.0072 0.007,-0.0324"
       style="fill:#21201d;fill-opacity:1;fill-rule:nonzero;stroke:none;stroke-width:0.184057"
       id="path216" />
    <path
       d="m 401.45592,-12.678963 c 0,-0.03368 0.001,-0.06681 7.1e-4,-0.10068 -7.1e-4,-0.02871 -0.0121,-0.05319 -0.0216,-0.08043 -0.0151,-0.04749 -0.0324,-0.0935 -0.0504,-0.140252 -0.0136,-0.03442 -0.0258,-0.07049 -0.051,-0.09921 -0.018,-0.0208 -0.0381,-0.0381 -0.0589,-0.05614 -0.0554,-0.04749 -0.11724,-0.08688 -0.18203,-0.120005 -0.0215,-0.0116 -0.0431,-0.02448 -0.0646,-0.03589 -0.0425,-0.02172 -0.092,-0.02963 -0.13804,-0.04252 -0.0972,-0.02724 -0.19492,-0.06037 -0.28474,-0.104913 -0.0906,-0.04381 -0.16105,-0.115036 -0.23375,-0.181849 -0.0295,-0.02669 -0.0589,-0.05393 -0.0891,-0.07988 -0.0109,-0.0094 -0.028,-0.01933 -0.0344,-0.02871 0.008,0.0028 0.0107,0.0099 0.0158,0.01657 0.0243,0.03092 0.048,0.05964 0.0703,0.09258 0.0302,0.04252 0.0604,0.08485 0.0957,0.123686 0.0388,0.04528 0.0826,0.08412 0.12645,0.124424 0.0648,0.06037 0.13454,0.122951 0.18847,0.193445 0.056,0.07252 0.0725,0.153136 0.092,0.240195 0.0186,0.07694 0.0352,0.150191 0.0869,0.212771 0.0225,0.0265 0.0504,0.04951 0.0764,0.07325 0.0201,0.01951 0.0315,0.02522 0.0589,0.0324 0.0792,0.02006 0.16179,0.04822 0.24443,0.0381 0.0208,-0.0022 0.0582,-0.0029 0.0732,-0.0173 0.007,-0.0064 0.0101,-0.0265 0.0792,-0.05963"
       style="fill:#21201d;fill-opacity:1;fill-rule:nonzero;stroke:none;stroke-width:0.184057"
       id="path218" />
    <path
       d="m 403.8573,-12.714119 c 0,-0.07694 0.009,-0.1524 0.0252,-0.228047 0.0287,-0.143013 0.17816,-0.224183 0.31123,-0.254369 0.0633,-0.0138 0.1259,-0.01951 0.18701,-0.04252 0.074,-0.02798 0.14871,-0.07473 0.19988,-0.136571 0.0265,-0.0324 0.0394,-0.07841 0.0547,-0.116508 0.0201,-0.04951 0.0438,-0.09921 0.0747,-0.142277 0.0201,-0.02945 0.0423,-0.05614 0.0653,-0.08209 0.0131,-0.01436 0.0403,-0.03884 0.0425,-0.06111 -0.004,0.0044 -0.005,0.0087 -0.007,0.0138 -0.0116,0.02577 -0.0223,0.05246 -0.0331,0.07822 -0.0453,0.107858 -0.0863,0.216452 -0.14374,0.319341 -0.044,0.07767 -0.0762,0.157369 -0.0863,0.246637 -0.006,0.06387 -0.0129,0.133626 -0.051,0.188291 -0.0396,0.05687 -0.10068,0.097 -0.14964,0.146695 -0.0561,0.05687 -0.11283,0.110066 -0.18755,0.14154 -0.0806,0.03313 -0.15756,0.0079 -0.23007,-0.03019 -0.0547,-0.02724 -0.11577,-0.06608 -0.17835,-0.06976"
       style="fill:#21201d;fill-opacity:1;fill-rule:nonzero;stroke:none;stroke-width:0.184057"
       id="path220" />
    <path
       d="m 403.08298,-12.870936 c 0.008,-0.0022 0.0165,-0.01362 0.0193,-0.02153 0.0101,-0.02595 0.005,-0.03957 0.0252,-0.06479 0.0287,-0.03736 0.0648,-0.05669 0.0799,-0.10344 0.0166,-0.05246 0.0193,-0.1143 0.0186,-0.169702 0,-0.04896 -0.0136,-0.08706 -0.0366,-0.129392 -0.028,-0.05319 -0.0438,-0.09994 -0.0554,-0.159579 -0.0136,-0.0727 -0.0158,-0.141724 -0.0158,-0.215716 0,0.01013 7.1e-4,0.01785 -0.004,0.02577 -0.004,0.0074 -0.009,0.01307 -0.0136,0.02098 -0.0124,0.02577 -0.0195,0.05466 -0.0309,0.08191 -0.0302,0.06976 -0.0611,0.147431 -0.10933,0.207802 -0.0512,0.06331 -0.10436,0.121478 -0.12792,0.201359 -0.0166,0.05466 -0.0316,0.111355 -0.0455,0.167493 -0.009,0.03515 -0.0164,0.06111 0.007,0.09203 0.0295,0.03663 0.0782,0.08982 0.12424,0.107122 0.0539,0.02006 0.0878,-0.02522 0.164,-0.04031"
       style="fill:#21201d;fill-opacity:1;fill-rule:nonzero;stroke:none;stroke-width:0.184057"
       id="path222" />
    <path
       d="m 402.41504,-12.842223 c -0.0101,-0.0013 -0.009,-0.01067 -0.0144,-0.01859 -0.0136,-0.02816 -0.0309,-0.0554 -0.0445,-0.08412 -0.023,-0.04749 -0.0388,-0.09847 -0.0598,-0.146694 -0.0208,-0.0497 -0.0401,-0.09921 -0.0574,-0.150191 -0.0309,-0.09074 -0.051,-0.189212 -0.10638,-0.268173 -0.0267,-0.03681 -0.0569,-0.06976 -0.0878,-0.100679 -0.0388,-0.03957 -0.0827,-0.07197 -0.11357,-0.117981 10e-4,0.02227 -0.0101,0.04454 -0.0121,0.06681 -0.006,0.07767 0.0179,0.154608 0.0107,0.232281 -0.004,0.04454 -0.0223,0.08632 -0.025,0.131601 -10e-4,0.02448 -10e-4,0.04951 -7.1e-4,0.07399 0,0.05835 -0.006,0.119454 0.01,0.175408 0.0131,0.04896 0.0374,0.09571 0.069,0.135282 0.0361,0.04602 0.0828,0.0935 0.13804,0.115037 0.0633,0.02374 0.12939,0.01657 0.19492,0.02724 0.0151,0.0029 0.0302,0.0072 0.0467,0.0057 0.0359,-0.005 0.0574,-0.002 0.0525,-0.07694"
       style="fill:#21201d;fill-opacity:1;fill-rule:nonzero;stroke:none;stroke-width:0.184057"
       id="path224" />
    <path
       d="m 404.5893,-11.698303 c 0.0611,-0.0015 0.11632,-0.03368 0.17319,-0.0554 0.0769,-0.02945 0.1524,-0.05816 0.22713,-0.09332 0.0972,-0.04528 0.19712,-0.08927 0.28197,-0.157554 0.0394,-0.03092 0.0747,-0.06331 0.10491,-0.104176 0.0114,-0.01509 0.0223,-0.02871 0.0403,-0.03736 0.0129,-0.0066 0.0552,-0.02522 0.069,-0.01307 0.0216,0.01877 -0.0361,0.06111 -0.0418,0.06773 -0.041,0.04086 -0.0497,0.06313 -0.0618,0.121479 -0.006,0.04307 -0.018,0.08485 -0.0374,0.123687 -0.0151,0.02227 -0.0331,0.04012 -0.0539,0.05595 -0.0411,0.0324 -0.0653,0.06405 -0.0884,0.111539 -0.0188,0.03884 -0.0353,0.0762 -0.0712,0.102705 -0.0475,0.03607 -0.11154,0.04675 -0.16749,0.05908 -0.0569,0.01141 -0.11577,0.03295 -0.17412,0.02301 -0.0596,-0.01086 -0.10344,-0.05264 -0.14871,-0.08927 -0.018,-0.01509 -0.0769,-0.04951 -0.0856,-0.07896 0.0114,0 0.0215,0.0208 0.0339,-0.03608"
       style="fill:#21201d;fill-opacity:1;fill-rule:nonzero;stroke:none;stroke-width:0.184057"
       id="path226" />
    <path
       d="m 404.83078,-10.887896 c 0.0403,7.41e-4 0.0799,0.0035 0.12074,0.0064 0.0742,0.0057 0.14743,0.02374 0.22215,0.02797 0.0727,0.0044 0.14449,0.0094 0.21793,0.01583 0.1373,0.01086 0.29688,-0.0086 0.42204,0.06037 0.0136,0.0064 0.0567,0.02669 0.0574,0.04896 7.1e-4,0.03019 -0.0381,0.05595 -0.0596,0.07049 -0.046,0.03019 -0.10492,0.03148 -0.15811,0.04086 -0.0992,0.01657 -0.20559,0.03884 -0.307,0.02595 -0.11724,-0.01509 -0.22934,-0.05964 -0.34584,-0.08338 -0.0374,-0.0079 -0.0712,-0.02098 -0.10565,-0.03608 -0.0158,-0.0072 -0.0447,-0.01638 -0.0554,-0.03368 -0.007,-0.01436 -0.0101,-0.04105 -0.009,-0.05687 0.0158,-0.0064 0.0339,-0.01067 0,-0.08687"
       style="fill:#21201d;fill-opacity:1;fill-rule:nonzero;stroke:none;stroke-width:0.184057"
       id="path228" />
    <path
       d="m 404.34045,-8.6784646 v -0.012333 c -0.002,0.012333 0.007,0.0208 0.0136,0.030184 0.0309,0.045278 0.0583,0.092765 0.0913,0.1365712 0.0698,0.090004 0.16326,0.1531363 0.24442,0.2315447 0.0942,0.090557 0.17118,0.1941812 0.25603,0.2933883 0.0661,0.0762 0.13951,0.1474304 0.19767,0.2308087 0.0403,0.05669 0.0742,0.1192696 0.11154,0.1789042 0.0438,0.067733 0.0891,0.1330741 0.13363,0.2006233 0.0331,0.048959 0.0655,0.097919 0.0972,0.1474304 0.005,0.015092 0.0144,0.027975 0.028,0.035891 -0.0136,-0.013621 -0.0316,-0.023008 -0.0482,-0.032946 -0.0517,-0.031658 -0.1027,-0.064789 -0.1524,-0.099944 -0.1697,-0.1236867 -0.33645,-0.2516071 -0.49106,-0.394068 -0.0705,-0.063316 -0.14081,-0.1264479 -0.21001,-0.1905 -0.0359,-0.033129 -0.0725,-0.06534 -0.10344,-0.1028883 -0.0295,-0.035891 -0.0547,-0.073991 -0.0863,-0.1078579 -0.0344,-0.0381 -0.0711,-0.072519 -0.10786,-0.1071217 -0.0337,-0.031475 -0.0883,-0.069574 -0.0948,-0.1185333 -0.004,-0.033129 -0.0138,-0.066261 -0.0151,-0.1006796 -0.001,-0.034421 0.006,-0.068285 0.0151,-0.1021521 0.006,-0.027242 0.0114,-0.063132 0.0265,-0.087612 0.0158,-0.025216 0.0396,-0.021534 0.0942,-0.028713"
       style="fill:#21201d;fill-opacity:1;fill-rule:nonzero;stroke:none;stroke-width:0.184057"
       id="path230" />
    <path
       d="m 404.54678,-9.0618575 c 0.0144,-0.00275 0.0302,0.00865 0.0418,0.015279 0.0322,0.019325 0.0639,0.0381 0.0955,0.057426 0.0532,0.027241 0.10565,0.055402 0.15885,0.081906 0.0964,0.051904 0.19417,0.1036246 0.28841,0.15829 0.13952,0.080433 0.2724,0.1724621 0.41339,0.2516071 0.0791,0.044542 0.16105,0.084851 0.23946,0.1301287 0.0423,0.024479 0.0861,0.047487 0.12074,0.082642 0.0216,0.022271 0.0503,0.068285 -0.004,0.061107 -0.0933,-0.012883 -0.18756,-0.060371 -0.27609,-0.092029 -0.15368,-0.054665 -0.30038,-0.111355 -0.44633,-0.1855304 -0.1467,-0.075464 -0.29118,-0.1501912 -0.44358,-0.2120346 -0.0375,-0.015829 -0.0749,-0.032396 -0.11153,-0.050248 -0.0388,-0.015829 -0.0755,-0.036075 -0.11136,-0.05761 -0.0188,-0.016566 -0.0403,-0.031658 -0.0302,-0.057426 0.009,-0.013804 0.0158,-0.028162 0.0215,-0.04399 0.006,-0.018591 0.0107,-0.037364 0.0166,-0.055954 0.0164,-0.040309 0.0466,-0.036075 0.0272,-0.083562"
       style="fill:#21201d;fill-opacity:1;fill-rule:nonzero;stroke:none;stroke-width:0.184057"
       id="path232" />
    <path
       d="m 404.85949,-9.7585167 c 0.003,-0.023742 0.0806,0.00644 0.0821,0.00718 0.0589,0.018038 0.11853,0.037364 0.17614,0.060555 0.11209,0.044542 0.22639,0.081906 0.33921,0.1257117 0.20283,0.079145 0.39481,0.1897637 0.58899,0.2897071 0.0589,0.030187 0.11779,0.061843 0.17614,0.092765 0.009,0.00515 0.0532,0.021533 0.0517,0.034604 -0.028,0.00644 -0.0626,-0.00148 -0.0898,-0.00589 -0.0878,-0.013621 -0.17486,-0.035154 -0.26247,-0.049512 -0.0769,-0.012883 -0.15387,-0.023742 -0.23154,-0.035154 -0.13583,-0.020983 -0.27112,-0.04399 -0.40547,-0.073439 -0.092,-0.020062 -0.18406,-0.036628 -0.26965,-0.0762 -0.0331,-0.015092 -0.0633,-0.025217 -0.0977,-0.035154 -0.041,-0.010859 -0.0749,-0.04896 -0.0799,-0.092029 -0.006,-0.051168 0.0245,-0.1085942 0.051,-0.150375 0.0131,-0.019325 0.0304,-0.038836 0.0376,-0.059635 0.008,-0.022271 0.005,-0.045278 -0.0663,-0.033129"
       style="fill:#21201d;fill-opacity:1;fill-rule:nonzero;stroke:none;stroke-width:0.184057"
       id="path234" />
    <path
       d="m 405.10115,-10.29118 c -0.006,-0.02025 0.0151,-0.01307 0.0258,-0.01012 0.0374,0.01086 0.0727,0.03019 0.10933,0.04252 0.0841,0.02871 0.17043,0.05098 0.25602,0.07749 0.0963,0.02963 0.19547,0.05466 0.29118,0.08779 0.0955,0.03387 0.18902,0.07399 0.28105,0.1157729 0.049,0.021534 0.0957,0.04896 0.14596,0.069758 0.0158,0.00644 0.0331,0.012883 0.0504,0.014358 -0.0791,0.014354 -0.16326,0.00939 -0.2424,0.00718 -0.16105,-0.00423 -0.3221,-0.013621 -0.48241,-0.033867 -0.12516,-0.016379 -0.2459,-0.041597 -0.36959,-0.064605 -0.074,-0.013621 -0.15958,-0.011596 -0.23007,-0.035892 0.007,-0.01583 0.0223,-0.02245 0.0223,-0.04252 0,-0.02871 -7e-4,-0.04951 0.0144,-0.07767 0.0309,-0.05743 0.0769,-0.109331 0.1281,-0.150191"
       style="fill:#21201d;fill-opacity:1;fill-rule:nonzero;stroke:none;stroke-width:0.184057"
       id="path236" />
    <path
       d="m 403.96369,-8.3370371 c 0.0109,-0.00148 0.0129,-0.00865 0.0215,-0.013621 0.006,-0.00293 0.0136,-7.408e-4 0.0188,-0.00644 -0.0116,-0.00663 -0.026,0.00131 -0.0366,0.0057 -0.12166,0.050984 -0.26246,0.053193 -0.39112,0.071783 -0.16252,0.021717 -0.32136,0.065525 -0.48315,0.094238 -0.20062,0.035892 -0.39774,0.051168 -0.59965,0.025217 -0.0935,-0.011596 -0.18701,-0.027425 -0.28051,-0.036627 -0.0869,-0.00792 -0.17393,-0.010125 -0.26099,-0.013804 -0.16178,-0.00773 -0.32633,-0.025767 -0.48314,-0.06534 -0.13216,-0.032396 -0.261,-0.085587 -0.38818,-0.1323376 -0.0497,-0.017854 -0.11135,-0.036628 -0.14816,-0.076936 0.0101,-0.00792 0.0188,0.00589 0.026,0.013067 0.0344,0.032946 0.0618,0.061107 0.10344,0.086875 0.14596,0.089268 0.3013,0.1647317 0.45665,0.2365145 0.15608,0.071966 0.31713,0.1150359 0.48738,0.1345463 0.20632,0.023008 0.41412,0.053193 0.62192,0.053929 0.19565,7.408e-4 0.38965,0 0.58383,-0.023742 0.095,-0.011596 0.19123,-0.019509 0.28694,-0.030187 0.0683,-0.00865 0.14154,-0.016567 0.20338,-0.050984 0.0525,-0.029633 0.0906,-0.074912 0.13952,-0.1093304 0.0423,-0.028713 0.0777,-0.032396 0.12295,-0.050432 0.0596,-0.023008 0.049,-0.073991 -7.1e-4,-0.1120913"
       style="fill:#21201d;fill-opacity:1;fill-rule:nonzero;stroke:none;stroke-width:0.184057"
       id="path238" />
    <path
       d="m 400.83768,-12.17851 c -0.0131,0.0035 -0.0138,0.0086 -0.023,0.01435 -0.008,0.0042 -0.0158,0.0042 -0.0217,0.01013 0.0145,7.41e-4 0.0309,-0.0086 0.0433,-0.01435 0.13436,-0.067 0.30204,-0.102889 0.45443,-0.140989 0.19124,-0.04822 0.37879,-0.102888 0.57223,-0.140988 0.24093,-0.0473 0.48242,-0.06902 0.72905,-0.05319 0.1143,0.0079 0.22713,0.02025 0.34087,0.03092 0.10639,0.0094 0.2113,0.0173 0.31695,0.02816 0.19491,0.02006 0.39259,0.05595 0.57664,0.111355 0.15535,0.04601 0.30057,0.110067 0.44432,0.173199 0.0554,0.02374 0.12516,0.05319 0.16178,0.08927 -0.0136,0.0028 -0.0208,-0.0086 -0.0287,-0.01509 -0.0346,-0.03092 -0.0626,-0.05687 -0.10786,-0.08485 -0.15829,-0.09645 -0.33517,-0.181297 -0.51702,-0.256025 -0.18111,-0.07546 -0.37676,-0.126448 -0.58585,-0.154609 -0.25381,-0.03295 -0.50983,-0.06037 -0.76862,-0.05448 -0.24166,0.0057 -0.48314,0.02282 -0.72039,0.06534 -0.11651,0.02153 -0.23375,0.04307 -0.34952,0.06902 -0.0827,0.01877 -0.17173,0.04031 -0.24148,0.07694 -0.0611,0.03166 -0.0999,0.07123 -0.15387,0.106385 -0.0468,0.02945 -0.0878,0.04178 -0.13952,0.06608 -0.0668,0.03166 -0.046,0.06111 0.018,0.07344"
       style="fill:#21201d;fill-opacity:1;fill-rule:nonzero;stroke:none;stroke-width:0.184057"
       id="path240" />
    <path
       d="m 402.94052,-10.895074 c 0.0124,0.01141 0.0188,0.01141 0.0289,0.02724 0.0309,0.04951 0.0626,0.09847 0.0928,0.148903 0.0782,0.130681 0.092,0.297622 0.0928,0.447077 0.001,0.101416 -0.018,0.197678 -0.0447,0.2955969 -0.0179,0.067549 -0.0374,0.1316013 -0.0769,0.1905 -0.0287,0.038836 -0.0582,0.075464 -0.0898,0.1106188 -0.023,0.027425 -0.0453,0.053929 -0.0676,0.081354 -0.0144,0.013621 -0.0467,0.053929 -0.0698,0.055401 -0.002,-0.00865 0.003,-0.018038 0.002,-0.02595 -0.002,-0.0173 -0.0245,-0.035891 -0.0353,-0.047487 -0.0243,-0.027975 -0.051,-0.054665 -0.0755,-0.082642 -0.0762,-0.081906 -0.14522,-0.1697013 -0.2021,-0.2666996 -0.0502,-0.086324 -0.0876,-0.1704381 -0.0768,-0.2725901 0.0107,-0.09203 0.0466,-0.184058 0.0826,-0.268173 0.0374,-0.08982 0.0725,-0.194733 0.13731,-0.269645 0.0257,-0.03019 0.0582,-0.04951 0.0898,-0.07325 0.0346,-0.02522 0.0668,-0.05246 0.10141,-0.07767 0.0309,-0.02301 0.0705,-0.04307 0.11062,-0.04307 7e-4,0.005 10e-4,0.0092 0,0.0705"
       style="fill:#21201d;fill-opacity:1;fill-rule:nonzero;stroke:none;stroke-width:0.184057"
       id="path242" />
    <path
       d="m 400.78081,-11.861378 c -0.0582,-0.05264 -0.14228,-0.08485 -0.21351,-0.114485 -0.0977,-0.03939 -0.19915,-0.06828 -0.29835,-0.10344 -0.12516,-0.04381 -0.24664,-0.09626 -0.36885,-0.146694 -0.12222,-0.05025 -0.2402,-0.109331 -0.3602,-0.163259 -0.0898,-0.04086 -0.17983,-0.07896 -0.26596,-0.125712 -0.12295,-0.06626 -0.24958,-0.129393 -0.38836,-0.155345 -0.004,0.01509 0.0353,0.03515 0.046,0.04454 0.046,0.03736 0.0878,0.07841 0.13455,0.1143 0.071,0.05466 0.14724,0.105097 0.22491,0.149639 0.10142,0.0589 0.20927,0.106386 0.3129,0.160314 0.0675,0.03515 0.12571,0.08191 0.19123,0.122215 0.0488,0.03092 0.0999,0.05964 0.15093,0.0878 0.0482,0.02724 0.0992,0.05025 0.14522,0.08117 0.0331,0.02301 0.0574,0.05319 0.0891,0.07841 0.044,0.03515 0.092,0.0646 0.13529,0.101968 0.0223,0.01951 0.0438,0.02374 0.074,0.01657 0.0302,-0.0079 0.0589,-0.02797 0.0863,-0.0416 0.0324,-0.01583 0.0804,-0.03092 0.10491,-0.05835 0.0166,-0.0173 0.026,-0.03663 0.0359,-0.05816 0.004,-0.01086 0.0131,-0.03313 0.0289,-0.0324"
       style="fill:#21201d;fill-opacity:1;fill-rule:nonzero;stroke:none;stroke-width:0.184057"
       id="path244" />
    <path
       d="m 400.31201,-10.980661 c -0.0438,0 -0.0863,-0.0072 -0.13086,-0.0064 -0.0777,5.64e-4 -0.1524,-0.0029 -0.23007,-0.0074 -0.15663,-0.0092 -0.31345,-0.0079 -0.47008,-0.0079 -0.14099,7.41e-4 -0.28473,0.0087 -0.42498,-0.0064 -0.10786,-0.01288 -0.21425,-0.03294 -0.32211,-0.0438 -0.0705,-0.0064 -0.14172,-0.01086 -0.21276,-0.0208 -0.0324,-0.0044 -0.0942,-0.02669 -0.12737,-0.01086 0.006,0.01362 0.0302,0.02025 0.0433,0.02595 0.0453,0.0208 0.0891,0.04086 0.13657,0.05595 0.10712,0.03534 0.22216,0.05117 0.33149,0.07694 0.0653,0.01509 0.13086,0.03239 0.19547,0.05264 0.2078,0.06387 0.42774,0.07546 0.63628,0.140805 0.0734,0.02301 0.15037,0.04454 0.22786,0.05043 0.0353,0.002 0.0705,0.0064 0.10657,0.0072 0.0151,7.41e-4 0.0388,0.0042 0.0525,-0.0044 0.0158,-0.0092 0.0186,-0.0243 0.0237,-0.0416 0.01,-0.04031 0.0272,-0.07123 0.051,-0.105097 0.0475,-0.06829 0.10786,-0.153136 0.0977,-0.241483 -0.0114,0 -0.0208,0.005 0.0158,0.08632"
       style="fill:#21201d;fill-opacity:1;fill-rule:nonzero;stroke:none;stroke-width:0.184057"
       id="path246" />
    <path
       d="m 400.27612,-10.20633 c -0.006,0.01067 -0.0195,0.0072 -0.0302,0.0064 -0.0517,-7.41e-4 -0.10491,0.0094 -0.15534,0.01859 -0.20485,0.03884 -0.40124,0.113012 -0.60315,0.163996 -0.10068,0.025216 -0.2021,0.04896 -0.3013,0.078409 -0.0863,0.024479 -0.17191,0.050248 -0.25878,0.069758 -0.0512,0.010675 -0.10216,0.0208 -0.15314,0.032946 -0.0202,0.00442 -0.0742,0.00663 -0.0813,0.028896 0.008,0.014358 0.0547,0.017117 0.0677,0.018591 0.13584,0.018038 0.27737,0.016567 0.41468,0.015829 0.09,0 0.17982,-7.409e-4 0.27038,7.408e-4 0.0799,0.00148 0.16031,0.00644 0.24093,0.00718 0.0985,0 0.19546,-7.408e-4 0.29394,0.00865 0.026,0.00222 0.0512,0.00368 0.0769,0.00423 0.0403,0.00222 0.0769,0.010125 0.11724,0.013804 0.0381,0.00349 0.0814,0.00994 0.10565,-0.024479 0.021,-0.028713 0.026,-0.064052 0.0331,-0.097735 0.009,-0.041045 0.023,-0.080617 0.0294,-0.1216625 0.008,-0.048775 0.006,-0.099207 0.005,-0.1487193 -7e-4,-0.02448 0.006,-0.07197 -0.072,-0.07546"
       style="fill:#21201d;fill-opacity:1;fill-rule:nonzero;stroke:none;stroke-width:0.184057"
       id="path248" />
    <path
       d="m 400.35453,-9.2897213 c -0.001,0.010125 -0.0123,0.013067 -0.0203,0.015829 -0.0272,0.00718 -0.0547,0.013621 -0.0826,0.0173 -0.049,0.00644 -0.0963,0.0173 -0.14448,0.031658 -0.23008,0.069758 -0.42628,0.2105621 -0.64494,0.3097692 -0.1316,0.059819 -0.2667,0.1108029 -0.40326,0.15829 -0.11081,0.0381 -0.21719,0.084114 -0.32652,0.1257116 -0.0503,0.018775 -0.0999,0.036075 -0.15093,0.053193 -0.026,0.00939 -0.051,0.02172 -0.074,0.035339 -0.0131,0.00994 -0.0195,0.023008 -0.0309,0.033683 -0.0109,-0.00497 -0.0324,-0.013621 -0.0455,-0.013621 0.013,0 0.0173,0.00865 0.0274,0.013621 0.009,0.00368 0.0215,0.00148 0.0317,0.00148 0.0294,-7.408e-4 0.0589,0 0.0883,-0.00148 0.0893,-0.00644 0.18332,-0.0057 0.27112,-0.021533 0.0856,-0.015092 0.16326,-0.048223 0.24737,-0.070494 0.12424,-0.031475 0.2551,-0.053193 0.38173,-0.075464 0.14522,-0.025217 0.28897,-0.049512 0.43272,-0.084115 0.11945,-0.027242 0.23449,-0.070494 0.35302,-0.101968 0.0346,-0.00939 0.0705,-0.013804 0.10509,-0.02172 0.0114,-0.00275 0.0295,-0.015092 0.0409,-0.013621 0.004,0.00865 0.007,0.025954 0.0144,0.032395 0.007,0.00497 0.0317,0.00865 0.0368,0.00939 0.0186,0.00497 0.0582,0.017117 0.0769,0.00791 0.0344,-0.0173 0.009,-0.097919 0.001,-0.1222142 -0.0383,-0.1244234 -0.14098,-0.2208696 -0.1927,-0.3386667 -0.004,-0.010125 -0.0145,-0.025954 0,-0.031658 0.0129,-0.00515 0.028,0.049512 0.007,0.050984"
       style="fill:#21201d;fill-opacity:1;fill-rule:nonzero;stroke:none;stroke-width:0.184057"
       id="path250" />
    <path
       d="m 400.6816,-8.3939113 c 10e-4,0.010858 0.006,0.013067 0.0136,0.022271 0.0317,0.037548 0.0633,0.074911 0.0957,0.1115388 0.0381,0.04307 0.0804,0.086323 0.11062,0.135835 0.0109,0.018038 0.0274,0.039573 0.0331,0.059635 -0.0883,0.034604 -0.18111,0.050432 -0.26394,0.099207 -0.0302,0.020983 -0.0604,0.043253 -0.0876,0.066997 -0.0403,0.032946 -0.0841,0.061843 -0.13013,0.086323 -0.0898,0.047303 -0.18773,0.075464 -0.27534,0.1279204 -0.0965,0.058898 -0.18922,0.1165087 -0.29413,0.1603142 -0.0848,0.035892 -0.16896,0.066813 -0.25086,0.1120912 -0.0668,0.037364 -0.13234,0.078409 -0.2021,0.1143 -0.0258,0.013804 -0.0596,0.025954 -0.0834,0.045463 0.0346,-0.066261 0.10492,-0.1085942 0.16252,-0.1518479 0.14743,-0.111355 0.28898,-0.2315446 0.42996,-0.350078 0.16031,-0.1358349 0.3256,-0.2674362 0.48812,-0.4019825 0.0655,-0.054665 0.12295,-0.1163246 0.18479,-0.1754074 0.0287,-0.027975 0.0569,-0.055401 0.0841,-0.08485 0.008,0.00148 0.0121,0.00644 -0.0151,0.022271"
       style="fill:#21201d;fill-opacity:1;fill-rule:nonzero;stroke:none;stroke-width:0.184057"
       id="path252" />
    <path
       d="m 401.62636,-7.725965 c -0.0208,-0.027241 -0.0366,0.020246 -0.046,0.030921 -0.13454,0.1496391 -0.17835,0.3666433 -0.23651,0.5521737 -0.0331,0.1063854 -0.067,0.2114825 -0.11945,0.3114262 -0.048,0.093317 -0.10933,0.1796405 -0.1581,0.2731418 -0.0346,0.066813 -0.0633,0.1365712 -0.0942,0.2048566 -0.001,7.408e-4 -0.0567,0.097919 -0.0453,0.1058333 0.0109,-0.020246 0.0309,-0.034604 0.0467,-0.050432 0.0287,-0.028713 0.0503,-0.057426 0.0705,-0.093501 0.0396,-0.068285 0.0747,-0.1343625 0.12791,-0.1939971 0.0618,-0.069758 0.1259,-0.1360187 0.18553,-0.2078013 0.0611,-0.0762 0.12222,-0.1524 0.1905,-0.2228941 0.0819,-0.086323 0.17909,-0.1575538 0.25161,-0.25308 0.0482,-0.065525 0.0885,-0.1373071 0.14374,-0.1984142 0.0158,-0.0173 0.0539,-0.042517 0.0648,-0.064788 -0.0725,-0.022271 -0.13307,-0.07123 -0.19841,-0.1100667 -0.0547,-0.032209 -0.11356,-0.068285 -0.17761,-0.083378 -0.0129,-0.00275 -0.069,-0.0057 -0.0762,-0.016567 0.0223,0.00515 0.0431,0.013804 0.0705,0.016567"
       style="fill:#21201d;fill-opacity:1;fill-rule:nonzero;stroke:none;stroke-width:0.184057"
       id="path254" />
    <path
       d="m 402.62063,-7.5978608 h -0.0675 c 0.046,5.644e-4 0.092,-0.00515 0.13805,-0.00865 0.0834,-0.00644 0.16601,-0.013067 0.24939,-0.013621 0.0497,0 0.10068,-0.00222 0.15037,0.00644 0.005,0.01215 -0.0252,0.02945 -0.0324,0.034421 -0.0554,0.046015 -0.0942,0.1165087 -0.12645,0.1805608 -0.0591,0.1177971 -0.0942,0.2486621 -0.13381,0.3738217 -0.0351,0.1128275 -0.074,0.2243666 -0.10933,0.3364579 -0.0245,0.077673 -0.048,0.1553446 -0.0668,0.2350417 -0.0173,0.077673 -0.0252,0.1568175 -0.0431,0.2337537 -0.0131,0.05669 -0.0267,0.1135638 -0.0418,0.1697013 -0.0144,-0.023742 -0.009,-0.112275 -0.0101,-0.1266317 -0.003,-0.055954 -0.008,-0.111355 -0.0158,-0.1674929 -0.0164,-0.1343621 -0.0351,-0.2632025 -0.0394,-0.3990375 -0.002,-0.1027042 -0.003,-0.2063288 -0.007,-0.3092171 -0.005,-0.1400683 -0.0252,-0.2803204 -0.0396,-0.4205725 -0.006,-0.061843 -0.0158,-0.1264479 -0.0173,-0.1890275 0.0344,-0.00368 0.0755,0.0173 0.10712,0.027979"
       style="fill:#21201d;fill-opacity:1;fill-rule:nonzero;stroke:none;stroke-width:0.184057"
       id="path256" />
    <path
       d="m 403.94289,-7.8330867 c 7.1e-4,-0.00497 -10e-4,-0.00718 -0.006,-0.00644 -0.007,0.019509 -0.002,0.048223 -0.001,0.068285 0.004,0.094974 0.0272,0.1976783 0.0467,0.289155 0.028,0.13289 0.0624,0.263755 0.10068,0.3938842 0.0302,0.1014158 0.051,0.1998867 0.0661,0.3055359 0.0129,0.097919 0.0295,0.1934449 0.051,0.2897074 0.0144,0.06258 0.0309,0.1258955 0.0388,0.1892113 10e-4,0.018591 0.0109,0.054665 0,0.070494 -0.0136,-0.018038 -0.0223,-0.038836 -0.0257,-0.061843 -0.0145,-0.060371 -0.0331,-0.12019 -0.0554,-0.1798246 -0.0596,-0.158842 -0.15037,-0.3092174 -0.23006,-0.4601449 -0.0705,-0.1336259 -0.14099,-0.2674359 -0.21719,-0.3990376 -0.0403,-0.070494 -0.074,-0.1509275 -0.12516,-0.2142433 -0.005,-0.00644 -0.028,-0.024479 -0.028,-0.035891 0,-0.00791 0.0129,-0.031658 0.0158,-0.036628 0.0252,-0.040309 0.0733,-0.069758 0.10933,-0.097182 0.051,-0.038836 0.10491,-0.06258 0.26026,-0.1150362"
       style="fill:#21201d;fill-opacity:1;fill-rule:nonzero;stroke:none;stroke-width:0.184057"
       id="path258" />
  </g>
</svg>
