<?xml version="1.0" encoding="UTF-8" standalone="no"?>
<!-- Created with Inkscape (http://www.inkscape.org/) -->

<svg
   width="6.7138mm"
   height="6.9786396mm"
   viewBox="0 0 6.7138 6.9786396"
   version="1.1"
   id="svg1132"
   inkscape:version="1.1.2 (0a00cf5339, 2022-02-04)"
   sodipodi:docname="re6.svg"
   xmlns:inkscape="http://www.inkscape.org/namespaces/inkscape"
   xmlns:sodipodi="http://sodipodi.sourceforge.net/DTD/sodipodi-0.dtd"
   xmlns="http://www.w3.org/2000/svg"
   xmlns:svg="http://www.w3.org/2000/svg">
  <sodipodi:namedview
     id="namedview1134"
     pagecolor="#ffffff"
     bordercolor="#666666"
     borderopacity="1.0"
     inkscape:pageshadow="2"
     inkscape:pageopacity="0.0"
     inkscape:pagecheckerboard="0"
     inkscape:document-units="mm"
     showgrid="false"
     inkscape:zoom="0.64052329"
     inkscape:cx="12.489788"
     inkscape:cy="13.2704"
     inkscape:window-width="2560"
     inkscape:window-height="1376"
     inkscape:window-x="0"
     inkscape:window-y="0"
     inkscape:window-maximized="1"
     inkscape:current-layer="layer1" />
  <defs
     id="defs1129" />
  <g
     inkscape:label="Layer 1"
     inkscape:groupmode="layer"
     id="layer1"
     transform="translate(-101.56354,-145.01069)">
    <path
       d="m 105.01262,147.80914 c 0,-0.072 -0.004,-0.14467 -0.012,-0.21571 -0.01,-0.0828 -0.0152,-0.16694 -0.0268,-0.24885 -0.008,-0.0589 -0.0236,-0.11724 -0.0258,-0.17762 -0.004,-0.046 0,-0.0913 0.007,-0.13657 0.0106,-0.0668 0.0162,-0.13436 0.0279,-0.20136 0.0152,-0.092 0.031,-0.18258 0.0403,-0.27535 0.0159,-0.16031 0.006,-0.32357 0.006,-0.48389 0,-0.0596 -0.0116,-0.11282 -0.0275,-0.1697 -0.0208,-0.074 -0.0328,-0.14945 -0.0481,-0.22492 -0.0208,-0.10067 -0.0453,-0.19988 -0.0648,-0.30056 -0.008,-0.0418 -0.0145,-0.0826 -0.0258,-0.12295 -0.008,-0.0294 -0.018,-0.0574 -0.0229,-0.0878 -0.004,-0.0156 -0.006,-0.0307 -0.005,-0.0466 l -0.0236,-0.10657 c -0.009,0.0403 -0.0173,0.0799 -0.0243,0.12019 -0.004,0.0151 0,0.0309 -0.004,0.0453 -0.004,0.0129 -0.006,0.0208 -0.006,0.0352 0,0.0309 -0.006,0.0618 -0.0123,0.0913 -0.0106,0.0583 -0.007,0.11945 -0.0131,0.17835 -0.005,0.0604 -0.0159,0.12001 -0.0258,0.18056 -0.0187,0.1178 -0.0194,0.23854 -0.0453,0.35579 -0.009,0.0453 -0.018,0.0841 -0.0208,0.13013 -0.004,0.0317 -0.004,0.0626 -0.007,0.0935 -0.008,0.0641 -0.0109,0.12718 -0.0145,0.19123 -0.004,0.0683 -0.006,0.13805 -0.0159,0.2056 -0.007,0.0524 -0.0194,0.10436 -0.0215,0.15829 0,0.0302 0,0.0611 0,0.092 0,0.0733 0,0.14669 0,0.21994 0,0.0611 0.008,0.12075 0.018,0.17983 0.008,0.0545 0.0286,0.10712 0.0409,0.16105 0.0159,0.0668 0.0374,0.13068 0.0532,0.19694 0.0289,0.12148 0.0482,0.24369 0.0475,0.36812 0,0.0725 0,0.14596 -0.004,0.21774 -0.004,0.0641 -0.007,0.12737 -0.008,0.19123 0,0.0376 -0.007,0.0742 -0.0109,0.11154 -0.004,0.0302 0,0.0611 0,0.0906 0,0.0482 0,0.0957 0,0.14375 0,0.0655 0,0.1316 0,0.19786 0,0.0374 -0.006,0.0725 -0.0113,0.10915 -0.006,0.0396 -0.0109,0.0756 -0.0222,0.11375 -0.0145,0.0445 -0.018,0.0891 -0.0187,0.13583 -0.004,0.0532 -0.0102,0.10418 -0.0201,0.15663 -0.0236,0.13308 -0.007,0.26615 -0.0187,0.39978 -0.008,0.0972 -0.0166,0.20062 -0.006,0.29762 0.018,0.15755 0.0582,0.30995 0.0849,0.46677 0.0106,0.0668 0.0159,0.1351 0.0272,0.20191 0.0138,0.0698 0.0303,0.13805 0.0403,0.20854 0.01,0.0596 0.0159,0.11872 0.0279,0.17762 0.0152,0.0697 0.0243,0.1373 0.0275,0.20853 0.004,0.0819 0,0.16455 0.007,0.24664 0.01,0.0869 0.0303,0.17394 0.0482,0.25952 0,-0.002 0.006,0.0517 0.0208,0.0381 0.01,-0.009 0,-0.0554 0,-0.0698 0,-0.0346 -0.005,-0.0683 -0.006,-0.10362 -0.004,-0.27167 -0.0532,-0.54131 -0.0473,-0.8139 0.004,-0.13805 0.0162,-0.27535 0.0314,-0.41193 0.007,-0.0633 0.01,-0.12718 0.0187,-0.18976 0.0109,-0.074 0.0272,-0.14743 0.0359,-0.22142 0.009,-0.0826 0.0201,-0.16473 0.0254,-0.24811 0.004,-0.0698 0,-0.14025 -0.004,-0.21056 -0.007,-0.14523 -0.0254,-0.28621 -0.0569,-0.42849 -0.007,-0.0346 -0.0173,-0.069 -0.0152,-0.1051 0,-0.0186 0.004,-0.0388 0.006,-0.0567 0.007,-0.0418 0.0229,-0.0821 0.0332,-0.12295 0.0258,-0.10712 0.0359,-0.22013 0.0409,-0.33001 0.004,-0.0878 0.0166,-0.17486 0.0212,-0.26247 0.004,-0.0618 0.004,-0.12516 0.0113,-0.187 0.01,-0.0711 0.0166,-0.14523 0.01,-0.21701 -0.006,-0.0677 -0.0173,-0.13086 -0.0166,-0.19915"
       style="fill:#21201d;fill-opacity:1;fill-rule:evenodd;stroke:none;stroke-width:0.184057"
       id="path260" />
    <path
       d="m 102.91031,145.62345 c -0.004,-0.004 -0.004,-0.007 -0.005,-0.0109 0.009,0 0.0159,0.006 0.0229,0.0109 0.0236,0.0122 0.051,0.0208 0.0762,0.0309 0.0388,0.0156 0.0747,0.0359 0.11356,0.0517 0.041,0.0158 0.0841,0.0272 0.12294,0.0468 0.0532,0.028 0.11282,0.0431 0.16602,0.0705 0.0468,0.0236 0.0979,0.0394 0.14595,0.0604 0.0332,0.0144 0.0655,0.0287 0.0992,0.0409 0.0296,0.0116 0.0598,0.0223 0.0885,0.0361 0.0446,0.0201 0.0856,0.0468 0.13014,0.0683 0.0138,0.006 0.0279,0.0129 0.041,0.0193 0.0265,0.0129 0.0481,0.0366 0.0755,0.0482 0.0138,0.006 0.0547,0.0173 0.0582,0.0337 -0.004,0.007 -0.0106,0.007 -0.0173,0.009 -0.0113,0.005 -0.0215,0.0109 -0.0307,0.0195 -0.0131,0.0107 -0.0346,0.0337 -0.0325,0.0517 0.0423,0.0245 0.0856,0.049 0.12792,0.074 0.0438,0.0252 0.0906,0.0453 0.13455,0.0705 0.012,0.007 0.0631,0.026 0.0661,0.046 0,0.004 -0.005,0.0123 -0.006,0.0173 -0.004,0.0114 -0.004,0.0223 -0.006,0.0352 -0.004,0.007 -0.0113,0.0309 -0.005,0.0403 0,0.002 0.009,0.004 0.0109,0.006 0.006,0.006 0.006,0.008 0.012,0.0136 0.0166,0.0123 0.0482,0.0188 0.0661,0.0274 0.0425,0.0193 0.0841,0.0403 0.12587,0.0611 0.0582,0.0317 0.11653,0.0633 0.17322,0.097 0.0598,0.0353 0.11575,0.0747 0.17688,0.10785 0.0489,0.0252 0.0999,0.049 0.14887,0.0755 0.0243,0.0131 0.0482,0.0282 0.0725,0.0396 0.0226,0.009 0.046,0.0166 0.0677,0.0267 0.0804,0.0401 0.15388,0.0898 0.20189,0.16749 0.0275,0.0431 0.0591,0.0819 0.0878,0.12295 0.0353,0.0503 0.069,0.10271 0.10216,0.15461 0.0353,0.0547 0.0683,0.10841 0.10711,0.16032 0.0401,0.0547 0.0854,0.0985 0.13934,0.13877 0.0482,0.0359 0.1051,0.0668 0.15974,0.0913 0.0446,0.0201 0.0898,0.0359 0.13363,0.0589 0.12369,0.0661 0.26025,0.10712 0.38965,0.16399 0.1259,0.056 0.25033,0.11209 0.36611,0.18756 0.0898,0.0576 0.17889,0.13013 0.23354,0.22436 0.0236,0.0411 0.0433,0.0856 0.0626,0.12866 0.0236,0.0547 0.051,0.10712 0.0755,0.16031 0.0618,0.13234 0.12019,0.26744 0.20856,0.38395 0.0604,0.0806 0.12866,0.15682 0.21848,0.2043 0.0296,0.0151 0.0655,0.0158 0.0971,0.028 0.0396,0.0158 0.0804,0.0302 0.1215,0.0431 0.0611,0.0188 0.1222,0.041 0.18186,0.0655 0.0425,0.0173 0.0893,0.0359 0.12661,0.0626 0.0502,0.0352 0.10343,0.0698 0.13363,0.12498 -0.008,-0.005 -0.0152,-0.0114 -0.0229,-0.0171 -0.0286,-0.0224 -0.0646,-0.0376 -0.0955,-0.0554 -0.0547,-0.0309 -0.10859,-0.0742 -0.16972,-0.0913 -0.0524,-0.0138 -0.10711,-0.004 -0.15956,-0.021 -0.0222,-0.007 -0.0446,-0.0171 -0.0676,-0.0208 -0.0194,-0.002 -0.0395,-0.003 -0.0591,-0.005 -0.0359,-0.002 -0.0705,-0.009 -0.10565,-0.0188 -0.0303,-0.008 -0.0618,-0.0144 -0.0906,-0.0265 -0.0467,-0.018 -0.0893,-0.0433 -0.13307,-0.0677 -0.15589,-0.0876 -0.31768,-0.20191 -0.40845,-0.36075 -0.0394,-0.0698 -0.0868,-0.13308 -0.12717,-0.2021 -0.0229,-0.0403 -0.0497,-0.0734 -0.0791,-0.10933 -0.0416,-0.051 -0.0827,-0.10418 -0.13363,-0.14669 -0.0433,-0.0359 -0.0928,-0.0626 -0.14027,-0.092 -0.0395,-0.0245 -0.0776,-0.0502 -0.11722,-0.0755 -0.0353,-0.0223 -0.0725,-0.0423 -0.10915,-0.0618 -0.0173,-0.009 -0.0353,-0.0151 -0.0519,-0.0245 -0.0265,-0.0144 -0.0503,-0.0329 -0.0769,-0.0468 -0.0653,-0.0329 -0.12866,-0.0703 -0.19325,-0.10491 -0.0764,-0.0396 -0.15113,-0.0834 -0.22363,-0.13013 -0.0388,-0.0252 -0.0799,-0.0468 -0.11652,-0.0762 -0.0374,-0.0294 -0.0655,-0.0633 -0.0965,-0.0985 -0.0353,-0.0403 -0.0718,-0.0791 -0.10565,-0.11946 -0.012,-0.0164 -0.0236,-0.0337 -0.0353,-0.051 -0.0208,-0.0309 -0.0453,-0.0618 -0.0633,-0.095 -0.0187,-0.0374 -0.0359,-0.0688 -0.0611,-0.10197 -0.0286,-0.0374 -0.0561,-0.0762 -0.0891,-0.10933 -0.0755,-0.0777 -0.16031,-0.14375 -0.24737,-0.20633 -0.0453,-0.0331 -0.0957,-0.0596 -0.14524,-0.0848 -0.051,-0.0265 -0.10142,-0.0554 -0.15459,-0.0799 -0.0626,-0.0287 -0.11927,-0.0661 -0.18185,-0.0963 -0.0641,-0.0317 -0.1294,-0.0589 -0.19199,-0.0942 -0.0626,-0.0352 -0.12735,-0.0631 -0.19416,-0.0906 -0.072,-0.0294 -0.14101,-0.0661 -0.21425,-0.0913 -0.0596,-0.0215 -0.12075,-0.0403 -0.17981,-0.0618 -0.0359,-0.0121 -0.0804,-0.023 -0.11211,-0.0431 0.0102,-0.006 0.0438,-0.001 0.0547,-0.003 0.0317,-0.002 0.0618,-0.004 0.0927,-0.004 0.0201,-7.4e-4 0.0468,-0.002 0.0661,-0.008 0.004,-7.4e-4 0.0131,-0.006 0.0138,-0.008 0.006,-0.0138 -0.0222,-0.0195 -0.0293,-0.023 -0.0539,-0.026 -0.10492,-0.0591 -0.1596,-0.0856 -0.0712,-0.0361 -0.14301,-0.0712 -0.21643,-0.10289 -0.004,-7.4e-4 -0.10273,-0.0344 -0.10343,-0.0453 0.0286,0.003 0.0581,7.4e-4 0.0876,7.4e-4 0.031,0 0.0662,0.004 0.0979,-7.4e-4 0.008,-7.4e-4 0.0604,-0.009 0.0596,-0.0223 0,-0.0101 -0.0374,-0.0188 -0.0453,-0.0223 -0.0928,-0.0445 -0.18556,-0.0878 -0.2818,-0.12516 -0.14393,-0.0554 -0.28991,-0.10712 -0.43437,-0.16031 -0.12443,-0.0453 -0.25086,-0.0871 -0.37088,-0.14154 -0.0972,-0.0447 -0.19417,-0.0915 -0.29192,-0.13308 -0.0546,-0.023 -0.10657,-0.0482 -0.15755,-0.0769 -0.0102,-0.006 -0.0325,-0.0122 -0.0403,-0.0223 -0.0201,-0.0282 0.0749,-0.0195 0.087,-0.0195 h 0.22641 c 0.004,0 0.0346,0.004 0.041,-7.4e-4 0.0353,-0.0236 -0.0475,-0.0941 -0.0561,-0.11633 0.008,-0.003 0.0166,7.4e-4 0.0243,0.003 0.0222,0.008 0.0418,0.0203 0.0633,0.0267 0.11134,0.0352 0.22655,0.0589 0.33719,0.0963 0.0279,0.009 0.0561,0.021 0.0848,0.026 0.0173,0.003 0.0324,0.006 0.0482,0.0144 0.0106,0.005 0.0229,0.018 0.0353,0.0208 0.0145,0.004 0.0332,-0.002 0.0468,-0.005"
       style="fill:#21201d;fill-opacity:1;fill-rule:nonzero;stroke:none;stroke-width:0.184057"
       id="path262" />
    <path
       d="m 102.05116,146.84781 c -0.004,0 -0.004,-7.4e-4 -0.006,-0.001 0,-0.0186 0.0411,-0.006 0.0467,-0.004 0.0626,0.0164 0.12369,0.0401 0.18479,0.0596 0.11726,0.0388 0.2358,0.074 0.35228,0.11724 0.1826,0.069 0.35303,0.16381 0.53489,0.23357 0.0769,0.0287 0.15165,0.0626 0.22658,0.0957 0.0502,0.023 0.10196,0.0431 0.15092,0.069 0.006,0.004 0.0547,0.0223 0.0525,0.0374 -0.004,0.0121 -0.0416,0.0151 -0.049,0.0166 -0.0359,0.008 -0.074,0.0186 -0.10767,0.0315 -0.0512,0.0195 -0.0972,0.0475 -0.14598,0.0705 -0.0346,0.0151 -0.0697,0.0289 -0.10361,0.0433 -0.0236,0.01 -0.0641,0.0223 -0.0747,0.0495 0.01,0.0166 0.0388,0.018 0.0561,0.023 0.0335,0.009 0.0653,0.0302 0.097,0.0453 0.0517,0.0238 0.10417,0.0468 0.15663,0.0698 0.0626,0.0282 0.12369,0.0576 0.18627,0.0856 0.0532,0.023 0.1071,0.0431 0.15956,0.069 0.0749,0.0366 0.15039,0.0727 0.22585,0.1086 0.0324,0.0151 0.0589,0.0381 0.0913,0.0532 0.0208,0.009 0.0381,0.0201 0.0582,0.0317 0.0123,0.007 0.0212,0.0129 0.0289,-0.003 0.005,-0.009 0.004,-0.0201 0.004,-0.0317 0,-0.009 -0.005,-0.0317 0,-0.0401 0.004,-0.005 0.0123,-0.009 0.0173,-0.0116 0.0236,-0.0173 0.0453,-0.0366 0.0747,-0.0438 0.0547,-0.0131 0.10932,0.028 0.15829,0.0453 0.0552,0.0186 0.10767,0.0416 0.16309,0.0589 0.0159,0.004 0.044,0.0101 0.0519,0.023 0,7.4e-4 0.004,0.0109 0.004,0.0131 0.004,0.006 0.006,0.009 0.0109,0.0136 0.0145,0.0144 0.0314,0.0265 0.0466,0.0416 0.0145,0.0138 0.0275,0.0267 0.044,0.0374 0.0611,0.0396 0.12791,0.0734 0.19473,0.10068 0.03,0.0123 0.0569,0.023 0.0841,0.041 0.0109,0.006 0.0368,0.0208 0.0447,0.0331 0.009,0.0129 0.0106,0.0329 0.018,0.048 0.0396,0.0878 0.10565,0.16032 0.14446,0.24811 0.0187,0.0438 0.0303,0.0891 0.0475,0.13234 0.0159,0.0388 0.0453,0.0762 0.0748,0.10418 0.0208,0.018 0.0388,0.0403 0.0611,0.0576 0.0226,0.0166 0.0475,0.028 0.072,0.0423 0.0502,0.0287 0.0992,0.0475 0.15681,0.0583 0.0668,0.0129 0.13364,0.028 0.20119,0.0387 0.0749,0.0131 0.15533,0.0195 0.22656,0.046 0.069,0.026 0.13511,0.0591 0.19914,0.095 0.0453,0.0252 0.0819,0.0569 0.1064,0.10362 0.0187,0.0351 0.0272,0.0762 0.041,0.1143 0.0187,0.0495 0.0318,0.1027 0.0552,0.14946 0.0258,0.0512 0.0547,0.10215 0.0915,0.14522 0.0162,0.0188 0.0272,0.041 0.0423,0.0604 0.0194,0.026 0.0502,0.0482 0.0776,0.0655 0.0353,0.0215 0.0748,0.0265 0.11285,0.0359 0.0346,0.009 0.0675,0.0245 0.10139,0.0339 0.0423,0.0107 0.0871,0.0173 0.1294,0.0265 0.0403,0.008 0.0834,0.0123 0.12368,0.0223 0.0453,0.0109 0.0898,0.0274 0.13511,0.0425 0.0353,0.0114 0.0734,0.018 0.10785,0.0324 0.0332,0.0144 0.0655,0.0322 0.095,0.0525 0.0539,0.0359 0.10142,0.0826 0.14449,0.13012 0.012,0.0144 0.0254,0.028 0.0374,0.0431 0.0268,0.0317 0.0453,0.0676 0.0676,0.10289 0.041,0.0661 0.0727,0.13878 0.11575,0.20412 0.0152,0.0223 0.0303,0.0433 0.0475,0.0633 0.006,0.007 0.0525,0.0698 0.0656,0.0604 -0.0102,-0.0208 -0.0275,-0.0416 -0.0447,-0.0574 -0.031,-0.0289 -0.0676,-0.0569 -0.10124,-0.0836 -0.0791,-0.0611 -0.17043,-0.0999 -0.26173,-0.13933 -0.0675,-0.0302 -0.13673,-0.0519 -0.20778,-0.0727 -0.0381,-0.0114 -0.0747,-0.0238 -0.11229,-0.0374 -0.0453,-0.0173 -0.0933,-0.0237 -0.13875,-0.041 -0.0453,-0.0179 -0.0869,-0.0453 -0.12866,-0.069 -0.0396,-0.0215 -0.0797,-0.0401 -0.11709,-0.0661 -0.0814,-0.0576 -0.15681,-0.12369 -0.23593,-0.1848 -0.0303,-0.0245 -0.0632,-0.0482 -0.0898,-0.0762 -0.0261,-0.0267 -0.0467,-0.0569 -0.072,-0.0841 -0.0201,-0.0237 -0.0409,-0.046 -0.0597,-0.0712 -0.0208,-0.0294 -0.0416,-0.0604 -0.0653,-0.0869 -0.0504,-0.0576 -0.0942,-0.12295 -0.15829,-0.1662 -0.0546,-0.0381 -0.11133,-0.0718 -0.17392,-0.097 -0.0633,-0.0245 -0.12717,-0.0445 -0.19417,-0.0604 -0.0431,-0.0101 -0.0876,-0.0166 -0.13088,-0.0267 -0.0265,-0.006 -0.0488,-0.0186 -0.074,-0.0287 -0.0236,-0.0101 -0.049,-0.0158 -0.0725,-0.0267 -0.0388,-0.0186 -0.0756,-0.0438 -0.11504,-0.0624 -0.0425,-0.021 -0.0828,-0.046 -0.12019,-0.0742 -0.0423,-0.0309 -0.0869,-0.056 -0.12936,-0.0861 -0.0403,-0.0296 -0.0777,-0.0613 -0.1136,-0.095 -0.0373,-0.0346 -0.0734,-0.0705 -0.1071,-0.1086 -0.0438,-0.0502 -0.0878,-0.10491 -0.13952,-0.14595 -0.0346,-0.028 -0.0683,-0.0525 -0.10566,-0.0747 -0.0512,-0.0309 -0.0964,-0.069 -0.14817,-0.0985 -0.0561,-0.0331 -0.11574,-0.0618 -0.17466,-0.09 -0.0236,-0.0114 -0.0475,-0.023 -0.072,-0.0309 -0.01,-0.003 -0.0272,-0.0144 -0.0366,-0.0144 -0.0102,-7.5e-4 -0.01,-0.001 -0.0102,0.0101 -0.004,0.0136 0,0.0252 -0.004,0.0396 -0.004,0.0144 -0.0396,0.0826 -0.0109,0.0913 -0.0208,-0.0109 -0.0408,-0.0252 -0.0631,-0.0352 -0.0757,-0.0346 -0.15388,-0.0618 -0.2323,-0.0893 -0.0957,-0.0324 -0.1905,-0.0675 -0.28547,-0.10141 -0.10784,-0.0374 -0.21791,-0.0755 -0.32283,-0.12222 -0.16675,-0.0725 -0.32356,-0.16307 -0.48316,-0.25013 -0.0762,-0.0418 -0.15663,-0.0762 -0.23799,-0.10786 -0.03,-0.0116 -0.0589,-0.0245 -0.087,-0.0411 -0.009,-0.006 -0.0359,-0.0166 -0.0353,-0.0294 0.0201,-0.008 0.0425,-0.0331 0.0561,-0.0475 0.0359,-0.0366 0.0733,-0.0747 0.10418,-0.11577 0.0222,-0.0315 0.0512,-0.0747 0.0906,-0.0876 0.0289,-0.009 0.0598,-0.0116 0.09,-0.0136 0.01,-7.4e-4 0.0293,0.002 0.0353,-0.007 -0.005,-0.0151 -0.0272,-0.018 -0.0396,-0.0237 -0.0453,-0.021 -0.0834,-0.0604 -0.12368,-0.0893 -0.0604,-0.0431 -0.1222,-0.0782 -0.18828,-0.11135 -0.0712,-0.0346 -0.1373,-0.0712 -0.21424,-0.0935 -0.0517,-0.0151 -0.0992,-0.0388 -0.14817,-0.0596 -0.0596,-0.0252 -0.12001,-0.0445 -0.18037,-0.0668 -0.0697,-0.0259 -0.14027,-0.0534 -0.20634,-0.0885 -0.008,-0.004 -0.0539,-0.023 -0.0519,-0.0374 0.008,-0.001 0.0212,-0.003 0.0229,-0.0101 0.004,-0.009 -0.0127,-0.0265 -0.018,-0.0324 -0.0152,-0.0171 -0.0324,-0.0315 -0.0475,-0.0473 -0.0254,-0.0282 -0.0445,-0.0626 -0.0569,-0.0979 -0.004,-0.008 -0.0138,-0.0302 -0.004,-0.0374 0.0145,-0.008 0.0545,0.0123 0.0661,0.0151 0.031,0.007 0.0675,0.0223 0.0992,0.021 0.0138,0 0.0438,-0.009 0.051,-0.0202 0.0159,-0.0252 -0.0468,-0.0712 -0.0619,-0.0863 -0.0279,-0.028 -0.0574,-0.0495 -0.0883,-0.0725 0.004,-0.006 0.0346,-0.007 0.041,-0.009"
       style="fill:#21201d;fill-opacity:1;fill-rule:nonzero;stroke:none;stroke-width:0.184057"
       id="path264" />
    <path
       d="m 102.26335,148.46126 c -0.004,-0.003 -0.007,-0.005 -0.0102,-0.007 0.012,0 0.0261,0.0101 0.0353,0.0158 0.0626,0.0353 0.12591,0.0633 0.19124,0.0935 0.11797,0.0539 0.23724,0.10362 0.35302,0.16105 0.12369,0.0618 0.24811,0.12221 0.37324,0.18129 0.12298,0.0582 0.2509,0.10841 0.37014,0.17394 0.0152,0.008 0.0289,0.0173 0.0433,0.0252 0.008,0.005 0.0381,0.0144 0.0388,0.0258 -0.0102,0.004 -0.0243,0 -0.0353,0.001 -0.0453,0.003 -0.0869,0.0352 -0.11579,0.0683 -0.0243,0.028 -0.0438,0.0611 -0.0725,0.0849 -0.0303,0.0252 -0.0648,0.0418 -0.0957,0.0648 -0.0169,0.0129 -0.03,0.0265 -0.0431,0.0438 -0.006,0.008 -0.0268,0.028 -0.0208,0.0374 0.0208,0.003 0.0339,0.0151 0.0524,0.0272 0.0532,0.0388 0.0948,0.0871 0.14302,0.1316 0.0243,0.023 0.0525,0.0425 0.0747,0.0675 0.005,0.006 0.0123,0.018 0.0187,0.021 0.0102,0.004 0.0272,0 0.0353,-0.003 0.0123,-0.005 0.0229,-0.0121 0.0361,-0.0166 0.031,-0.01 0.0611,-0.0171 0.0913,-0.028 0.0482,-0.0173 0.097,-0.0346 0.14079,-0.0611 0.0289,-0.0166 0.0626,-0.0346 0.0878,-0.0569 0.0116,-0.0107 0.0318,-0.0409 0.0497,-0.0388 0,0.0101 0.009,0.0252 0.0145,0.0353 0.0236,0.0532 0.0517,0.0891 0.10195,0.12222 0.0173,0.0114 0.0368,0.0186 0.0532,0.0302 0.0152,0.0101 0.0226,0.0252 0.0375,0.0351 0.0127,0.009 0.0402,0.0294 0.0582,0.0223 0.004,-0.0121 0.004,-0.023 0.0173,-0.028 0.0173,-0.005 0.0431,-0.001 0.0597,0.004 0.008,0.003 0.0102,0.005 0.018,0.009 0.004,0.003 0.006,0.003 0.0106,0.004 0.0173,0.006 0.03,0.0107 0.0482,0.018 0.0618,0.0272 0.12862,0.0401 0.19343,0.0596 0.012,0.003 0.0416,0.007 0.0517,0.0171 0.006,0.006 0.006,0.0173 0.0138,0.0237 0.0275,0.0267 0.0589,0.0519 0.0906,0.0742 0.0526,0.0366 0.10784,0.0683 0.16327,0.10067 0.0254,0.0158 0.0502,0.0315 0.0754,0.0468 0.0215,0.0121 0.0468,0.0223 0.0655,0.0374 0.0222,0.0179 0.0258,0.0329 0.0222,0.0589 -0.005,0.0331 -0.0109,0.0648 0.004,0.097 0.0155,0.0361 0.0394,0.069 0.0574,0.10362 0.0187,0.0352 0.041,0.0675 0.0683,0.097 0.0194,0.0215 0.0374,0.0381 0.064,0.0504 0.0229,0.01 0.0416,0.01 0.0653,0.0136 0.0361,0.005 0.0713,0.0179 0.1064,0.0272 0.0576,0.0144 0.11726,0.0203 0.1754,0.0302 0.0403,0.007 0.0799,0.0151 0.12167,0.0166 0.0286,7.4e-4 0.0567,-7.4e-4 0.0854,0 0.0618,0.001 0.12587,0.0101 0.18701,0.0208 0.0524,0.009 0.10636,0.0274 0.15681,0.044 0.0487,0.0158 0.0977,0.0423 0.14079,0.0705 0.0366,0.0243 0.0821,0.0545 0.0827,0.10123 0,0.0425 0.0268,0.0799 0.0339,0.12093 0.01,0.051 0.0374,0.097 0.072,0.13583 0.0243,0.0272 0.0604,0.0475 0.092,0.0675 0.0374,0.0245 0.0812,0.0482 0.12368,0.0626 0.0359,0.0122 0.0755,0.0151 0.11282,0.0201 0.0438,0.007 0.0876,0.009 0.13162,0.0101 0.0173,0 0.0321,0.003 0.0487,0.006 0.0293,0.005 0.0611,0.004 0.09,0.0116 0.0381,0.009 0.0782,0.0243 0.11356,0.0409 0.0409,0.0188 0.0841,0.0453 0.10989,0.0821 0.0173,0.0265 0.0152,0.0495 0.0268,0.0762 0.0159,0.0401 0.0396,0.0784 0.0569,0.1178 0.008,0.0173 0.0328,0.0504 0.0243,0.0705 -0.0113,-0.007 -0.0194,-0.0193 -0.0272,-0.0302 -0.0152,-0.0193 -0.0353,-0.0317 -0.0547,-0.046 -0.0381,-0.0265 -0.0725,-0.0582 -0.1143,-0.0797 -0.0359,-0.0203 -0.0732,-0.0252 -0.11282,-0.0346 -0.0676,-0.0166 -0.13529,-0.0252 -0.20355,-0.0374 -0.0367,-0.006 -0.0705,-0.0201 -0.10199,-0.0381 -0.0332,-0.0195 -0.0655,-0.0331 -0.0999,-0.0482 -0.03,-0.0129 -0.0576,-0.0331 -0.0856,-0.0503 -0.031,-0.0203 -0.0611,-0.0403 -0.0913,-0.0611 -0.0662,-0.0475 -0.12019,-0.11375 -0.17335,-0.17412 -0.092,-0.10712 -0.19399,-0.20633 -0.32487,-0.26449 -0.0332,-0.0151 -0.067,-0.0202 -0.10143,-0.0267 -0.0359,-0.006 -0.0697,-0.0144 -0.10636,-0.0144 -0.0828,-0.002 -0.16253,0.004 -0.24518,0.0151 -0.0381,0.005 -0.0749,0.0136 -0.11374,0.0158 -0.0446,0.004 -0.0898,0.004 -0.13437,0.007 -0.0396,0.004 -0.0799,0.006 -0.11927,7.4e-4 -0.044,-0.006 -0.0841,-0.0252 -0.12587,-0.0388 -0.0532,-0.0173 -0.10069,-0.0574 -0.13953,-0.097 -0.0453,-0.046 -0.0891,-0.0964 -0.12866,-0.14669 -0.0272,-0.0352 -0.0517,-0.072 -0.0819,-0.10491 -0.0346,-0.0381 -0.0697,-0.0756 -0.10509,-0.11301 -0.0335,-0.0344 -0.0676,-0.0676 -0.1106,-0.0891 -0.0361,-0.018 -0.0734,-0.0331 -0.10862,-0.0502 -0.046,-0.0225 -0.0935,-0.041 -0.14097,-0.0583 -0.0532,-0.0193 -0.0999,-0.0488 -0.14873,-0.0762 -0.0229,-0.0129 -0.0504,-0.0208 -0.0712,-0.0359 -0.008,-0.006 -0.0152,-0.0151 -0.025,-0.0203 -0.018,-0.008 -0.0353,-0.003 -0.0502,0.005 -0.0282,0.0136 -0.0697,0.003 -0.0942,-0.0116 -0.0254,-0.0151 -0.046,-0.0344 -0.0733,-0.0453 0,-0.0136 -0.008,-0.0179 -0.0201,-0.0166 -0.025,0.002 -0.0567,0.0346 -0.0769,0.0475 -0.0574,0.0381 -0.1143,0.0777 -0.17396,0.11209 -0.0254,0.0153 -0.0589,0.0232 -0.0826,0.041 -0.007,0.005 -0.0166,0.0136 -0.0173,0.0223 0,-0.0166 -0.0127,-0.0265 -0.0254,-0.0352 -0.0208,-0.0123 -0.0423,-0.023 -0.0639,-0.0331 -0.031,-0.0158 -0.0611,-0.0337 -0.0907,-0.0525 -0.0423,-0.026 -0.0841,-0.0532 -0.12792,-0.0777 -0.0258,-0.0136 -0.0525,-0.0265 -0.079,-0.041 -0.0116,-0.006 -0.0236,-0.0114 -0.0361,-0.0144 0,-0.003 -0.004,-0.006 -0.004,-0.009 -0.004,-0.002 -0.008,-0.005 -0.012,-0.008 -0.0208,-0.0153 -0.0416,-0.0296 -0.0653,-0.0418 -0.0475,-0.0252 -0.0987,-0.0438 -0.14523,-0.0698 -0.0152,-0.008 -0.0576,-0.0287 -0.0626,-0.0497 -0.005,-0.0171 0.0222,-0.0287 0.0328,-0.0394 0.0374,-0.0381 0.0591,-0.0972 0.0841,-0.14393 0.0226,-0.0409 0.0433,-0.0826 0.0734,-0.12001 0.0222,-0.0265 0.0653,-0.0569 0.0725,-0.0928 0,-0.009 0,-0.0166 -0.004,-0.0245 -0.0109,-0.0144 -0.0403,-0.0317 -0.0525,-0.0409 -0.0712,-0.0561 -0.15314,-0.10142 -0.23227,-0.14449 -0.0418,-0.0217 -0.0834,-0.0425 -0.12442,-0.0641 -0.0138,-0.004 -0.025,-0.0123 -0.0346,-0.023 0.0152,-0.001 0.0264,0.0151 0.0264,0.0287 -0.048,0.0136 -0.11133,-0.0151 -0.15734,-0.0252 -0.15165,-0.0352 -0.3013,-0.079 -0.45148,-0.11854 -0.10068,-0.026 -0.20062,-0.049 -0.30205,-0.072 -0.0325,-0.006 -0.0653,-0.0144 -0.0978,-0.023 -0.0109,-7.4e-4 -0.0187,-0.004 -0.0236,-0.0129 0.0173,-0.023 0.0633,-0.023 0.0898,-0.0267 0.0539,-0.008 0.10862,-0.0129 0.164,-0.0144 0.0286,-7.4e-4 0.0582,-7.4e-4 0.0869,0 0.0102,0.002 0.0201,0.002 0.0303,-0.001 -0.007,-0.008 -0.0194,-0.01 -0.0282,-0.0164 -0.0106,-0.007 -0.008,-0.007 -0.008,-0.0195 0,-0.0337 -0.005,-0.0596 -0.018,-0.0913 -0.0194,-0.046 -0.0569,-0.0848 -0.0841,-0.1259 -0.0201,-0.0295 -0.0532,-0.069 -0.0641,-0.10418 -0.006,-0.0201 -0.008,-0.0396 0.004,-0.0582 0.0124,-0.018 0.0339,-0.0223 0.0467,-0.0388 0.0303,-0.0374 0.0116,-0.1051 0.01,-0.14964 0,-0.0129 -0.007,-0.0403 0.013,-0.0416 0.007,0.003 0.0145,0.006 0.0208,0.0107 0.0152,0.0131 0.0286,0.0282 0.0401,0.0445 0.0282,0.0375 0.0576,0.0705 0.0935,0.0994 0.0388,0.0302 0.0814,0.0453 0.12664,0.0639 0.008,0.002 0.0152,0.006 0.0208,0.0109 0.004,7.5e-4 0.004,0.002 0.004,0.005 0.0145,0.004 0.0321,7.4e-4 0.0467,7.4e-4"
       style="fill:#21201d;fill-opacity:1;fill-rule:nonzero;stroke:none;stroke-width:0.184057"
       id="path266" />
  </g>
</svg>
