<?xml version="1.0" encoding="UTF-8" standalone="no"?>
<!-- Created with Inkscape (http://www.inkscape.org/) -->

<svg
   width="8.6408796mm"
   height="8.6884384mm"
   viewBox="0 0 8.6408796 8.6884384"
   version="1.1"
   id="svg2006"
   inkscape:version="1.1.2 (0a00cf5339, 2022-02-04)"
   sodipodi:docname="rm1.svg"
   xmlns:inkscape="http://www.inkscape.org/namespaces/inkscape"
   xmlns:sodipodi="http://sodipodi.sourceforge.net/DTD/sodipodi-0.dtd"
   xmlns="http://www.w3.org/2000/svg"
   xmlns:svg="http://www.w3.org/2000/svg">
  <sodipodi:namedview
     id="namedview2008"
     pagecolor="#ffffff"
     bordercolor="#666666"
     borderopacity="1.0"
     inkscape:pageshadow="2"
     inkscape:pageopacity="0.0"
     inkscape:pagecheckerboard="0"
     inkscape:document-units="mm"
     showgrid="false"
     inkscape:zoom="0.64052329"
     inkscape:cx="-800.90765"
     inkscape:cy="856.33108"
     inkscape:window-width="2560"
     inkscape:window-height="1376"
     inkscape:window-x="0"
     inkscape:window-y="0"
     inkscape:window-maximized="1"
     inkscape:current-layer="layer1" />
  <defs
     id="defs2003" />
  <g
     inkscape:label="Layer 1"
     inkscape:groupmode="layer"
     id="layer1"
     transform="translate(-316.64094,77.871127)">
    <path
       d="m 323.61403,-71.280014 c -0.004,0.02816 -0.008,0.05466 -0.009,0.07841 -0.004,0.07767 -0.0547,0.136571 -0.12001,0.136571 h -0.004 c -0.0539,-0.0028 -0.10859,-0.0072 -0.16252,-0.01215 -0.0631,-0.0057 -0.12939,-0.01086 -0.19326,-0.01288 -0.009,0 -0.0202,-7.4e-4 -0.0296,-7.4e-4 -0.0977,0 -0.19842,0.01288 -0.29689,0.02503 -0.0992,0.01159 -0.20209,0.02448 -0.30406,0.02448 -0.0101,0 -0.0195,0 -0.0295,0 -0.0727,-0.002 -0.13951,-0.0028 -0.20283,-0.0028 -0.18553,0 -0.34731,0.0072 -0.494,0.02301 -0.0661,0.0072 -0.12571,0.03368 -0.18903,0.06258 -0.0374,0.01712 -0.0762,0.03442 -0.11724,0.04804 -0.048,0.01583 -0.10068,0.02301 -0.16381,0.02301 -0.0468,0 -0.095,-0.0035 -0.14025,-0.0079 -0.0245,-0.002 -0.049,-0.0042 -0.0727,-0.0057 -0.0315,-0.0022 -0.0653,-0.0035 -0.10196,-0.0035 -0.0784,0 -0.15884,0.005 -0.23799,0.0099 -0.0784,0.0044 -0.15958,0.0094 -0.23872,0.0094 -0.0339,0 -0.0648,-7.41e-4 -0.0942,-0.0029 -0.0863,-0.005 -0.17468,-0.01583 -0.26026,-0.0265 -0.0834,-0.01012 -0.1697,-0.02153 -0.25382,-0.02595 -0.13656,-0.0079 -0.27461,-0.01859 -0.40823,-0.02797 -0.26615,-0.01878 -0.54076,-0.0381 -0.81316,-0.04325 h -0.0252 c -0.13455,-0.002 -0.13805,-0.03148 -0.16105,-0.193997 l -0.001,-0.01509 c -0.0287,-0.200623 0.0403,-0.392595 0.10713,-0.577389 0.008,-0.02227 0.0158,-0.04528 0.0237,-0.06681 0.051,-0.146694 0.13381,-0.245165 0.21277,-0.340138 0.0604,-0.07252 0.12295,-0.147431 0.17338,-0.245902 0.12,-0.235778 0.25087,-0.445052 0.38964,-0.665738 l 0.0431,-0.06902 c 0.0425,-0.06829 0.0841,-0.143749 0.12368,-0.216452 0.069,-0.126448 0.14025,-0.255841 0.22639,-0.363699 0.0145,-0.01951 0.0309,-0.03957 0.0475,-0.06184 0.14596,-0.186267 0.34382,-0.440083 0.545,-0.475238 0.0576,-0.125159 0.0569,-0.385417 0.0569,-0.57739 0,-0.06258 0,-0.121478 10e-4,-0.167492 0.0107,-0.251055 0.0201,-0.48757 0.0675,-0.740649 0.003,-0.0208 0.008,-0.04086 0.0114,-0.06184 0.0173,-0.08908 0.0346,-0.173198 0.0289,-0.263018 -0.003,-0.04104 -0.0116,-0.08411 -0.0203,-0.12516 -0.009,-0.04601 -0.0186,-0.0935 -0.0201,-0.140988 -0.001,-0.02374 10e-4,-0.04951 0.003,-0.07546 0.005,-0.05025 0.0101,-0.102704 -0.0114,-0.131601 -0.007,-0.0099 -0.0173,-0.01583 -0.0445,-0.01583 -0.009,0 -0.021,7.4e-4 -0.0316,0.0015 -0.0129,7.41e-4 -0.0252,0.0022 -0.0381,0.0022 -0.0237,0 -0.0425,-0.0037 -0.0596,-0.01141 -0.0453,-0.01877 -0.092,-0.04399 -0.0913,-0.08779 7.1e-4,-0.04675 0.0552,-0.07123 0.12571,-0.09921 0.0618,-0.02448 0.12737,-0.04675 0.1905,-0.04675 0.0425,0 0.0784,0.01012 0.10786,0.03018 0.004,0 0.007,-7.41e-4 0.0116,-7.41e-4 0.0208,0 0.0408,0.0094 0.0574,0.02669 0.0878,0.09626 0.0576,0.505423 0.0223,0.881454 -0.007,0.06902 -0.0114,0.123687 -0.0114,0.140804 7e-4,0.04473 0.004,0.08338 0.006,0.120926 0.006,0.09056 0.0129,0.175407 -0.0166,0.29118 l -0.009,0.03515 c -0.0258,0.09994 -0.0467,0.179088 -0.0517,0.288235 -0.009,0.205777 -0.0193,0.418548 -0.0114,0.629846 v 0.01012 c 0.004,0.08982 0.008,0.191236 -0.0289,0.271853 -0.0388,0.08614 -0.15166,0.176144 -0.25086,0.255105 -0.0438,0.0346 -0.0848,0.06755 -0.11283,0.09424 -0.0281,0.02724 -0.0576,0.05319 -0.0871,0.07767 -0.0705,0.05963 -0.14375,0.121478 -0.18755,0.205592 -0.0124,0.02153 -0.0388,0.04178 -0.0677,0.06258 -0.0157,0.01067 -0.0416,0.03018 -0.046,0.0381 -0.008,0.0173 -0.008,0.03166 -0.008,0.04896 7.1e-4,0.02503 0.001,0.06111 -0.0346,0.09332 -0.20781,0.183322 -0.34585,0.353759 -0.48168,0.597452 0.0396,-0.01436 0.0769,-0.03148 0.11503,-0.05025 0.0611,-0.02945 0.12516,-0.05964 0.2021,-0.0762 0.0151,-0.0029 0.0302,-0.0042 0.0445,-0.0042 0.0676,0 0.11927,0.03147 0.1697,0.06239 0.048,0.0289 0.0933,0.05687 0.1524,0.05687 0.004,0 0.008,0 0.0114,0 0.0223,-0.0022 0.0517,-0.01362 0.0799,-0.02522 0.0366,-0.01436 0.0755,-0.02945 0.11283,-0.02945 0.006,0 0.0129,7.41e-4 0.0188,0.0015 0.0532,0.0087 0.0854,0.04822 0.1143,0.08264 0.023,0.02797 0.0453,0.05393 0.074,0.06111 0.006,0.0022 0.0143,0.0029 0.0245,0.0029 0.026,0 0.0567,-0.0072 0.0863,-0.01362 0.0265,-0.0066 0.0547,-0.01307 0.0812,-0.01509 0.006,0 0.0109,0 0.0166,0 0.0351,0 0.072,0.0072 0.10786,0.01436 0.0316,0.0064 0.0618,0.01215 0.0869,0.01215 0.006,0 0.0123,-7.41e-4 0.0173,-0.0015 0.049,-0.0072 0.072,-0.03368 0.10436,-0.07049 0.0223,-0.02503 0.0473,-0.05393 0.0841,-0.07749 0.0913,-0.05982 0.24792,-0.09939 0.3486,-0.105833 0.0331,-0.002 0.0683,-0.0028 0.1051,-0.0028 0.0668,0 0.13288,0.0035 0.1962,0.0072 0.0495,0.002 0.097,0.005 0.14595,0.0057 0.018,-0.0064 0.0351,-0.01362 0.0525,-0.0208 0.0727,-0.03019 0.14817,-0.06111 0.23007,-0.06755 0.0188,-0.0022 0.0396,-0.0029 0.0611,-0.0029 0.0769,0 0.15534,0.01086 0.2308,0.02153 0.009,0.0015 0.0188,0.0022 0.0287,0.0037 -0.023,-0.02595 -0.0445,-0.05466 -0.0646,-0.08559 l -0.0158,-0.02448 -0.003,-0.0057 c -0.0337,-0.0044 -0.0661,-0.0087 -0.0834,-0.01086 -0.0812,-0.0094 -0.16178,-0.01435 -0.25455,-0.01435 -0.11853,0 -0.23356,-0.01141 -0.3451,-0.02301 -0.0718,-0.0072 -0.14522,-0.01509 -0.217,-0.01932 -0.0116,0 -0.0217,-0.0059 -0.0281,-0.01509 -0.006,-0.0094 -0.008,-0.02098 -0.004,-0.03092 0.0309,-0.09921 0.35376,-0.166204 0.35652,-0.16694 0.0237,-0.0042 0.0482,-0.0064 0.0727,-0.0064 0.092,0 0.17541,0.02945 0.25658,0.05761 0.0418,0.01436 0.0821,0.02798 0.12295,0.0381 -0.0381,-0.05687 -0.074,-0.107858 -0.10988,-0.157553 -0.0403,0.0015 -0.0806,0.0022 -0.12222,0.0022 -0.18847,0 -0.37032,-0.01362 -0.51278,-0.03957 -0.009,-0.0022 -0.0186,-0.0072 -0.0237,-0.01583 -0.005,-0.0087 -0.006,-0.01859 -0.004,-0.02797 0.0252,-0.10068 0.2113,-0.146694 0.37235,-0.146694 0.041,0 0.0828,0.0029 0.12295,0.0087 -0.002,-0.0029 -0.004,-0.0057 -0.006,-0.0079 -0.0245,-0.03166 -0.0488,-0.06332 -0.0725,-0.09424 -0.004,7.41e-4 -0.006,0.0015 -0.0101,0.0015 -0.006,0 -0.0114,-0.0015 -0.0166,-0.0042 -0.069,-0.03534 -0.14669,-0.03884 -0.2135,-0.03884 -0.0245,0 -0.0495,0 -0.0747,5.65e-4 -0.0252,7.4e-4 -0.0504,0.0015 -0.0762,0.0015 -0.0195,0 -0.0388,0 -0.0576,-0.0015 -0.0158,-5.65e-4 -0.0295,-0.01215 -0.0324,-0.02871 -0.007,-0.03442 0.001,-0.06828 0.026,-0.09847 0.0418,-0.05098 0.12866,-0.08632 0.22934,-0.09497 -0.0265,-0.0243 -0.056,-0.04601 -0.0883,-0.06902 -0.0611,-0.04307 -0.12442,-0.08835 -0.16399,-0.167492 -0.0661,-0.13289 -0.0554,-0.304064 -0.0446,-0.468796 0.008,-0.11706 0.0166,-0.239275 -0.005,-0.339218 -0.0519,-0.238724 -0.041,-0.553647 -0.0274,-0.829734 0.004,-0.08485 0.003,-0.200623 7.1e-4,-0.311978 -10e-4,-0.104361 -0.003,-0.202832 0,-0.278295 0.0116,-0.287683 0.11356,-0.416339 0.33148,-0.416339 0.0265,0 0.0554,0.0022 0.0869,0.0057 0.0928,0.01086 0.14891,0.03884 0.16473,0.08338 0.0129,0.03608 -0.001,0.07565 -0.0423,0.117981 -0.0309,0.0324 -0.0685,0.03534 -0.0935,0.03534 -0.0151,0 -0.0295,-0.0015 -0.044,-0.0022 -0.0121,-0.0015 -0.0243,-0.0022 -0.0366,-0.0022 -0.0186,0 -0.0302,0.0029 -0.0403,0.01012 -0.0639,0.05246 -0.0596,0.163812 -0.056,0.254552 l 7.1e-4,0.0085 c 0.005,0.125895 -0.002,0.29118 -0.009,0.450942 -0.005,0.108594 -0.0101,0.211298 -0.0101,0.296149 -0.002,0.240196 0.018,0.471004 0.0626,0.726845 0.009,0.05466 0.0121,0.117244 0.0166,0.182585 0.006,0.111539 0.0121,0.225839 0.0482,0.298542 0.0604,0.11927 0.12369,0.200439 0.21922,0.278112 0.0517,0.04252 0.0928,0.110803 0.1316,0.176879 0.0173,0.02816 0.0337,0.0554 0.0495,0.07841 0.0354,0.05025 0.0942,0.08706 0.15682,0.125896 0.074,0.04601 0.15093,0.09332 0.19547,0.170253 0.13602,0.235963 0.21719,0.399774 0.28197,0.532112 0.0639,0.127184 0.11357,0.227127 0.18406,0.334249 0.15387,0.235226 0.26891,0.403455 0.45002,0.601133 0.10362,0.112827 0.12,0.210746 0.13804,0.313451 0.0144,0.07988 0.0287,0.161786 0.0856,0.26173 0.0287,0.0497 0.0186,0.120006 0.009,0.188291 m 1.66295,-1.816835 c -0.0144,-0.06829 -0.0453,-0.127921 -0.0324,-0.20633 0.0136,-0.07694 -0.0359,-0.150927 -0.0819,-0.218476 v 0.04601 c -0.005,0 -0.0109,7.41e-4 -0.0166,7.41e-4 -10e-4,-0.03607 -0.0109,-0.07417 -0.005,-0.10933 0.0193,-0.115773 0.0468,-0.230809 0.0668,-0.345845 0.006,-0.0324 0.004,-0.06829 -0.004,-0.09994 -0.0251,-0.107121 -0.0539,-0.21277 -0.0834,-0.317868 -0.0251,-0.08761 -0.0495,-0.17467 -0.0797,-0.260257 -0.018,-0.05099 -0.0447,-0.09994 -0.0697,-0.147247 -0.0109,-0.02025 -0.0289,-0.03534 -0.0433,-0.05319 -0.005,-0.0079 -0.009,-0.0173 -0.0121,-0.02669 -0.0195,-0.05466 0.0245,-0.110803 -0.006,-0.165284 -0.0101,-0.01877 -0.0158,-0.04104 -0.018,-0.06184 -0.009,-0.06037 -0.0136,-0.121478 -0.0208,-0.182033 -7.1e-4,-0.01067 -0.004,-0.02227 -0.009,-0.03018 -0.0337,-0.04601 -0.0683,-0.09129 -0.10142,-0.138043 -0.006,-0.0087 -0.002,-0.02227 -0.004,-0.0381 -0.0755,-0.06829 -0.10933,-0.174671 -0.18903,-0.252343 -0.0712,-0.06902 -0.1165,-0.165285 -0.17412,-0.248663 -0.0381,-0.0554 -0.0769,-0.110067 -0.11356,-0.166204 -0.0316,-0.04878 -0.0841,-0.08117 -0.0891,-0.1524 -0.003,-0.0381 -0.0447,-0.07841 -0.0769,-0.108594 -0.0648,-0.06111 -0.13601,-0.115773 -0.2043,-0.172462 -10e-4,0.0099 -0.003,0.02153 -0.004,0.03368 -0.004,0.0015 -0.009,0.0037 -0.0129,0.0052 -0.0274,-0.04031 -0.0534,-0.08062 -0.0814,-0.120926 -0.018,-0.02503 -0.0374,-0.05025 -0.0561,-0.07546 -0.0136,-0.01932 -0.0272,-0.03736 -0.0401,-0.05743 -0.0223,-0.0324 -0.0433,-0.06553 -0.0655,-0.09774 -0.008,-0.0116 -0.0179,-0.02025 -0.0265,-0.03018 -0.0324,-0.04399 -0.0633,-0.08853 -0.0985,-0.130129 -0.009,-0.01012 -0.0316,-0.01086 -0.0482,-0.01307 -0.0237,-0.0028 -0.0497,0 -0.072,-0.0057 -0.097,-0.02797 -0.1927,-0.05614 -0.28676,-0.09056 -0.0381,-0.01362 -0.0756,-0.03736 -0.10509,-0.06626 -0.0898,-0.08614 -0.20117,-0.144486 -0.28529,-0.240012 -0.044,-0.05043 -0.11577,-0.07767 -0.17835,-0.110066 -0.069,-0.03589 -0.14098,-0.06681 -0.21277,-0.09921 -0.0388,-0.0173 -0.0777,-0.04031 -0.11871,-0.04601 -0.0799,-0.0116 -0.16179,-0.0116 -0.24296,-0.01932 -0.0935,-0.0087 -0.1905,-0.0015 -0.27682,-0.04896 -0.0928,-0.05098 -0.19418,-0.04178 -0.29412,-0.04381 -0.007,0 -0.0165,0.002 -0.0208,0.0057 -0.0445,0.04233 -0.0957,0.02448 -0.14522,0.01509 -0.007,-7.41e-4 -0.0116,-0.02006 -0.0195,-0.0346 -0.023,-0.0035 -0.0525,-0.0099 -0.0812,-0.01067 -0.0626,-7.41e-4 -0.12442,0.0015 -0.187,0.002 -0.0646,0.0015 -0.13013,0.0066 -0.194,0.0015 -0.0606,-0.005 -0.12018,-0.0208 -0.18056,-0.03221 -7e-4,0 -0.001,-0.0029 -0.002,-0.0029 -0.0243,-0.0029 -0.0517,-0.01288 -0.0725,-0.005 -0.0569,0.01859 -0.11227,0.04086 -0.16326,0.07031 -0.0265,0.01583 -0.0698,0.02374 -0.0683,0.0705 0,0.0072 -0.0114,0.01583 -0.0193,0.02025 -0.0309,0.01712 -0.0626,0.03294 -0.0942,0.04951 0,-0.0042 7.1e-4,-0.0094 7.1e-4,-0.01436 -0.009,-0.0022 -0.0188,-0.0072 -0.0267,-0.005 -0.046,0.0087 -0.0906,0.02227 -0.13657,0.03018 -0.018,0.0028 -0.0396,-0.0079 -0.0574,-0.0052 -0.0712,0.01233 -0.14246,0.02742 -0.21369,0.04104 -0.0869,0.01657 -0.17393,0.03387 -0.26154,0.05025 -0.0123,0.0029 -0.0245,0.01159 -0.0361,0.01012 -0.0797,-0.01141 -0.14799,0.03166 -0.2229,0.04675 -0.0129,0.0037 -0.023,0.02006 -0.0344,0.03018 0.002,0.0022 0.005,0.0044 0.007,0.0064 l 0.0676,-0.02153 c 0.002,0.0044 0.004,0.0087 0.005,0.01288 -0.0473,0.03166 -0.094,0.06405 -0.14153,0.09571 -0.002,-0.0064 -0.004,-0.01362 -0.007,-0.01951 -0.0158,7.41e-4 -0.0361,-0.0028 -0.049,0.0044 -0.041,0.02301 -0.0791,0.05025 -0.11853,0.0762 -0.0633,0.0416 -0.12442,0.08908 -0.19124,0.125159 -0.0482,0.02503 -0.10859,0.02871 -0.15681,0.05319 -0.11577,0.05743 -0.23154,0.118533 -0.30774,0.230808 -0.0272,0.04086 -0.0589,0.0797 -0.0955,0.127184 -0.008,-0.01657 -0.0131,-0.02522 -0.0158,-0.03166 -0.0878,0.07344 -0.11945,0.17688 -0.17338,0.264675 -0.0503,0.0797 -0.10141,0.162339 -0.16675,0.2286 -0.0792,0.08117 -0.17615,0.144485 -0.26247,0.218477 -0.0856,0.07344 -0.10141,0.181297 -0.12718,0.283265 -0.0109,0.04105 -0.0202,0.08283 -0.0302,0.123687 -0.005,-7.41e-4 -0.0101,-0.0015 -0.0151,-0.0028 10e-4,-0.01233 0.003,-0.02448 0.004,-0.03736 -0.0201,0.0208 -0.028,0.04528 -0.041,0.06681 -0.0287,0.04528 -0.0604,0.08982 -0.0906,0.133626 -0.008,0.01159 -0.0193,0.02025 -0.0272,0.03239 -0.0482,0.07049 -0.0964,0.142461 -0.14301,0.214243 -0.008,0.01233 -0.0109,0.02871 -0.0145,0.04381 -0.0186,0.08135 -0.0351,0.162524 -0.0574,0.242405 -0.0201,0.07399 -0.046,0.145222 -0.0698,0.21774 l -0.0116,-0.0028 c -0.003,-0.0072 -0.005,-0.01436 -0.006,-0.01878 -0.009,0.04601 -0.0215,0.09276 -0.0258,0.140252 -0.007,0.06037 -0.004,0.122214 -0.009,0.182586 -0.006,0.06258 0.006,0.127368 -0.0274,0.187002 -0.0186,0.03313 -0.0351,0.07049 -0.0416,0.107858 -0.0274,0.163812 -0.0482,0.327071 -0.13307,0.475974 -0.0611,0.106386 -0.0661,0.227864 -0.0445,0.345109 0.0344,0.192708 0.0683,0.385233 0.14374,0.567266 0.005,0.01067 0.0166,0.01785 0.023,0.02871 0.026,0.0381 0.0512,0.07767 0.0755,0.116509 -0.003,0.0015 -0.006,0.0035 -0.008,0.0057 -0.009,-0.0042 -0.0193,-0.0079 -0.028,-0.01215 0.0423,0.05595 0.0497,0.124976 0.0302,0.17688 -0.0223,0.05816 -0.0193,0.10344 0.005,0.153872 0.003,-0.0044 0.006,-0.0094 0.0145,-0.02448 0.004,0.04454 0.007,0.07823 0.01,0.112091 0.003,0.03516 0.004,0.07197 0.0101,0.107122 0.0344,0.199887 0.1143,0.384681 0.18405,0.574445 0.0698,0.189211 0.19621,0.345108 0.29762,0.516282 0.0532,0.08982 0.12663,0.171726 0.21498,0.237251 0.0992,0.07326 0.20062,0.143013 0.27038,0.25308 0.0482,0.07841 0.12516,0.139516 0.19344,0.20412 0.10841,0.101416 0.21848,0.202832 0.3313,0.298358 0.17615,0.150375 0.34879,0.308481 0.58898,0.351734 0.0158,0.0035 0.033,5.65e-4 0.0488,0.0035 0.0569,0.0094 0.11651,0.0116 0.16749,0.03387 0.0532,0.02227 0.0979,0.06313 0.14669,0.09626 0.008,0.005 0.0202,0.0044 0.0302,0.0057 0.0158,0.0029 0.0361,0 0.0475,0.0087 0.095,0.06755 0.19344,0.12516 0.30848,0.156081 0.0804,0.02153 0.15957,0.05246 0.23945,0.08117 0.0258,0.0094 0.0503,0.03239 0.0762,0.03313 0.0977,0.0029 0.18553,0.04675 0.27885,0.06608 0.1373,0.02816 0.27479,0.06553 0.40842,-0.01509 0.0151,-0.0087 0.0388,-0.0035 0.0583,-0.0013 0.0193,0.0013 0.0387,0.01288 0.0567,0.01068 0.1813,-0.02227 0.36167,-0.04601 0.54278,-0.06976 0.09,-0.01141 0.1813,-0.02153 0.27259,-0.03295 0.0725,-0.0094 0.14449,-0.01657 0.21645,-0.02963 0.0891,-0.01583 0.17817,-0.03736 0.26744,-0.05522 0.004,-7.41e-4 0.009,0 0.0143,-7.41e-4 0.0416,-0.0064 0.0883,-0.0037 0.12443,-0.02227 0.10712,-0.05614 0.20982,-0.120926 0.31492,-0.182033 0.0315,-0.01859 0.0589,-0.05522 0.1027,-0.02227 0.004,0.0029 0.0173,-0.0042 0.0252,-0.0079 0.1086,-0.05595 0.22565,-0.08338 0.34437,-0.101416 0.0841,-0.01362 0.12074,-0.07896 0.16823,-0.13289 0.005,-0.0052 0.003,-0.0173 0.004,-0.03313 -0.0166,0.01436 -0.0289,0.02522 -0.041,0.03589 -0.004,-0.002 -0.007,-0.005 -0.0109,-0.0064 0.0131,-0.02153 0.021,-0.04804 0.0388,-0.06313 0.0742,-0.06184 0.14669,-0.125159 0.22013,-0.187739 0.10786,-0.09276 0.19123,-0.212771 0.32136,-0.281793 0.0495,-0.02595 0.0876,-0.07417 0.13142,-0.111539 0.009,-0.0079 0.021,-0.01141 0.0324,-0.01583 0.1,-0.0381 0.19492,-0.08043 0.24241,-0.187555 0.0401,-0.09129 0.0819,-0.183322 0.12865,-0.271854 0.023,-0.04233 0.0567,-0.08191 0.0928,-0.115036 0.14301,-0.135835 0.29467,-0.262467 0.38596,-0.444316 0.0317,-0.06258 0.0742,-0.119269 0.1108,-0.17964 0.0116,-0.01804 0.0208,-0.0381 0.028,-0.05835 0.0324,-0.08687 0.0677,-0.172462 0.0942,-0.260994 0.0245,-0.08191 0.041,-0.166756 0.0589,-0.250135 0.0138,-0.06258 0.0188,-0.126631 0.0353,-0.187738 0.0215,-0.08338 0.0639,-0.163076 0.0718,-0.24719 0.008,-0.08559 0.026,-0.166941 0.0455,-0.249583 0.008,-0.03368 0.0265,-0.07049 0.0201,-0.101416"
       style="fill:#21201d;fill-opacity:1;fill-rule:nonzero;stroke:none;stroke-width:0.184057"
       id="path576" />
    <path
       d="m 318.90183,-71.73795 c -0.0596,0.08264 -0.13878,0.192709 -0.14596,0.278296 0.0202,7.4e-4 0.0403,0.0022 0.0604,0.0029 0.0821,0.005 0.1662,0.0092 0.24737,0.03663 0.0158,0.0057 0.026,0.0208 0.0245,0.0381 -0.004,0.02798 0.006,0.0416 0.0129,0.04951 0.0173,0.01951 0.0618,0.04252 0.17467,0.04252 0.0806,0 0.16841,-0.0116 0.23872,-0.02025 0.0467,-0.0064 0.0834,-0.01068 0.10639,-0.01068 0.003,0 0.006,0 0.009,7.41e-4 0.12369,0.0064 0.24884,0.02227 0.37032,0.03736 0.16473,0.02006 0.33498,0.0416 0.50045,0.0416 0.025,0 0.0503,-7.4e-4 0.0755,-0.0013 0.0317,-0.0015 0.0648,-0.0022 0.10289,-0.0022 0.0488,0 0.0977,7.4e-4 0.14724,0.0022 0.0497,5.65e-4 0.10068,0.002 0.15038,0.002 0.13804,0 0.29835,-0.0072 0.44284,-0.05964 0.16178,-0.0589 0.35798,-0.124423 0.57867,-0.160314 0.0468,-0.0087 0.0972,-0.01215 0.15608,-0.01215 0.0871,0 0.17761,0.0085 0.26467,0.01712 0.0604,0.0059 0.11632,0.0116 0.17172,0.01436 0.0238,7.41e-4 0.0482,0.0022 0.0742,0.0044 0.0834,0.0042 0.17743,0.0094 0.2702,0.0094 0.1719,0 0.29909,-0.01804 0.39829,-0.05614 -0.009,-0.01583 -0.0243,-0.02945 -0.0409,-0.04528 -0.0151,-0.01509 -0.0331,-0.03092 -0.0482,-0.05098 -0.0158,-0.02025 -0.0295,-0.04178 -0.0431,-0.06847 -0.0453,0.01086 -0.0913,0.01657 -0.13951,0.01657 -0.10363,0 -0.20486,-0.0265 -0.31272,-0.05319 l -0.0145,-0.0042 c -0.0941,-0.02375 -0.20118,-0.02522 -0.30554,-0.02669 -0.12497,-0.002 -0.2551,-0.0042 -0.37013,-0.04528 -0.0138,-0.0042 -0.0238,-0.0173 -0.0238,-0.0324 -0.001,-0.0381 0.0171,-0.09277 0.0416,-0.124239 0.006,-0.0066 0.013,-0.0116 0.021,-0.01307 0.0841,-0.01785 0.17817,-0.0265 0.29394,-0.0265 0.0712,0 0.14448,0.0028 0.21497,0.0064 0.0287,0.0015 0.0576,0.0022 0.0856,0.0029 0.12221,0.005 0.24222,0.0416 0.35799,0.07749 0.0252,0.0079 0.0497,0.01509 0.0742,0.02227 -0.007,-0.01785 -0.0144,-0.03589 -0.0223,-0.05319 -0.0403,-0.08614 -0.10362,-0.16105 -0.16693,-0.232097 -0.0826,0.03589 -0.15387,0.05025 -0.24793,0.05025 -0.0497,0 -0.10436,-0.0035 -0.15534,-0.0087 -0.0223,-0.0015 -0.0648,-0.0015 -0.1143,-0.0015 -0.27829,-5.64e-4 -0.53284,-0.0099 -0.57812,-0.120006 -0.0166,-0.04104 -0.006,-0.07123 0.006,-0.08908 0.0361,-0.05393 0.13748,-0.07841 0.31786,-0.07841 0.19271,0 0.43143,0.02871 0.5737,0.04528 0.0123,0.0015 0.0245,0.0037 0.0361,0.0044 -0.0151,-0.02319 -0.0289,-0.04601 -0.041,-0.06847 -0.0208,-0.04013 -0.0374,-0.08835 -0.0547,-0.134362 -7e-4,-0.0022 -10e-4,-0.0044 -0.002,-0.0064 -0.0179,0.0035 -0.0388,0.0057 -0.0604,0.0057 -0.0718,0 -0.15019,-0.02301 -0.22639,-0.04528 -0.0539,-0.01657 -0.10583,-0.0324 -0.14595,-0.03515 -0.026,-0.0022 -0.0547,-0.0029 -0.0871,-0.0029 -0.0317,0 -0.0626,7.41e-4 -0.0935,0.0015 -0.0317,0.0015 -0.0639,0.002 -0.0948,0.002 -0.0188,0 -0.0381,-5.64e-4 -0.0561,-0.0013 -0.028,-7.41e-4 -0.0554,-0.0029 -0.0826,-0.0044 -0.0547,-0.0035 -0.1108,-0.0072 -0.16694,-0.0072 -0.0243,0 -0.0466,0.0015 -0.0683,0.0022 -0.10418,0.0064 -0.15314,0.03368 -0.21553,0.06976 -0.026,0.01436 -0.0526,0.02945 -0.0856,0.04454 -0.0547,0.02595 -0.11503,0.03313 -0.17412,0.04031 -0.0525,0.0064 -0.1027,0.01215 -0.14871,0.03092 -0.13087,0.05172 -0.20854,0.06681 -0.35946,0.06681 h -0.007 c -0.29118,0 -0.57518,-0.0037 -0.852,-0.04104 -0.0482,-0.0057 -0.092,-0.01859 -0.13454,-0.0324 -0.0554,-0.01638 -0.1086,-0.03221 -0.16455,-0.03221 -0.006,0 -0.0131,7.41e-4 -0.0195,7.41e-4 -0.046,0.0028 -0.10141,0.02374 -0.15589,0.04381 -0.0124,0.0042 -0.0245,0.0094 -0.0368,0.01362 -0.0237,0.05393 -0.0475,0.10933 -0.0698,0.163259 -0.0624,0.149455 -0.12792,0.3048 -0.21129,0.437874 -0.0144,0.02374 -0.0346,0.05172 -0.0554,0.08117"
       style="fill:#21201d;fill-opacity:1;fill-rule:nonzero;stroke:none;stroke-width:0.184057"
       id="path578" />
  </g>
</svg>
