<?xml version="1.0" encoding="UTF-8" standalone="no"?>
<!-- Created with Inkscape (http://www.inkscape.org/) -->

<svg
   width="8.6413403mm"
   height="8.6887856mm"
   viewBox="0 0 8.6413403 8.6887856"
   version="1.1"
   id="svg2152"
   inkscape:version="1.1.2 (0a00cf5339, 2022-02-04)"
   sodipodi:docname="rm2.svg"
   xmlns:inkscape="http://www.inkscape.org/namespaces/inkscape"
   xmlns:sodipodi="http://sodipodi.sourceforge.net/DTD/sodipodi-0.dtd"
   xmlns="http://www.w3.org/2000/svg"
   xmlns:svg="http://www.w3.org/2000/svg">
  <sodipodi:namedview
     id="namedview2154"
     pagecolor="#ffffff"
     bordercolor="#666666"
     borderopacity="1.0"
     inkscape:pageshadow="2"
     inkscape:pageopacity="0.0"
     inkscape:pagecheckerboard="0"
     inkscape:document-units="mm"
     showgrid="false"
     inkscape:zoom="0.64052329"
     inkscape:cx="-1142.8156"
     inkscape:cy="631.5149"
     inkscape:window-width="2560"
     inkscape:window-height="1376"
     inkscape:window-x="0"
     inkscape:window-y="0"
     inkscape:window-maximized="1"
     inkscape:current-layer="layer1" />
  <defs
     id="defs2149" />
  <g
     inkscape:label="Layer 1"
     inkscape:groupmode="layer"
     id="layer1"
     transform="translate(-407.09954,18.388963)">
    <path
       d="m 413.22373,-13.725772 c -0.0611,-0.0289 -0.12719,-0.04528 -0.18829,-0.07491 -0.0878,-0.04086 -0.16179,-0.107122 -0.21351,-0.188291 -0.0144,-0.02153 -0.0267,-0.04454 -0.0497,-0.05687 -0.0322,-0.01859 -0.0732,-0.0064 -0.10988,-0.01215 -0.0928,-0.01362 -0.14245,-0.130865 -0.23522,-0.149455 -0.0302,-0.0059 -0.0626,0 -0.0935,0 -0.10915,0 -0.20559,-0.06847 -0.28455,-0.142461 -0.0296,-0.02798 -0.0727,-0.04031 -0.0965,-0.07252 -0.2689,-0.369589 -0.15387,-0.228784 -0.12516,0.299094 0.004,0.0797 -0.006,0.159578 -0.008,0.240011 -10e-4,0.03092 0.01,0.14964 -7.1e-4,0.199887 0.0653,-0.156633 0.1027,-0.174671 0.19399,-0.271117 0.0569,-0.0589 0.28124,-0.04454 0.35818,-0.01362 0.0985,0.0381 0.11651,0.04601 0.19988,0.110067 0.0827,0.06479 0.14872,0.158842 0.15516,0.264491 0.005,0.09792 -0.0401,0.194918 -0.0257,0.29118 -0.0977,-0.273142 -0.187,-0.360202 -0.33443,-0.360202 -0.12295,0 -0.27093,0.105834 -0.25437,0.244613 0.006,0.05393 0.0201,0.122951 0.0431,0.171726 0.0676,0.145222 0.24738,0.195654 0.40769,0.210011 0.22859,0.0208 0.46014,0.002 0.68377,-0.05043 0.0257,-0.0057 0.0524,-0.01288 0.0703,-0.03221 0.0195,-0.02025 0.0245,-0.05117 0.0381,-0.0762 0.0124,-0.02374 0.0324,-0.04178 0.049,-0.06332 0.007,-0.0079 0.0129,-0.01804 0.018,-0.02743 0.0416,-0.07325 0.0416,-0.167493 0.006,-0.245165 -0.0388,-0.08761 -0.11578,-0.154609 -0.20357,-0.194733"
       style="fill:#21201d;fill-opacity:1;fill-rule:evenodd;stroke:none;stroke-width:0.184057"
       id="path620" />
    <path
       d="m 411.98006,-15.724641 c -0.009,0.0072 -0.0166,0.01583 -0.023,0.02669 -0.0368,0.06534 -0.1281,0.188292 -0.14817,0.293389 -0.008,0.04381 -0.004,0.08485 0.0215,0.117061 0.0755,0.09718 0.12792,0.01583 0.17117,-0.05816 0.0503,-0.08706 0.0869,-0.12295 0.18756,-0.153136 0.0598,-0.01804 0.12516,-0.04749 0.14172,-0.107122 0.023,-0.08706 -0.0668,-0.143197 -0.0777,-0.22363 -0.002,-0.02448 -0.003,-0.05025 -0.0173,-0.06037 -0.0294,-0.02301 -0.0826,-0.04822 -0.11061,-0.07197 -0.072,-0.0589 -0.13529,-0.171726 -0.21222,-0.26173 -0.0136,0.0094 -0.0265,0.01657 -0.0401,0.02374 -0.0165,-0.0015 -0.0324,0.0015 -0.0482,0.0072 -0.0826,-0.02871 -0.17688,-0.01215 -0.25804,0.02595 -0.0124,-0.01013 -0.0274,-0.01657 -0.0433,-0.01933 -0.10417,-0.0173 -0.20633,-0.02172 -0.31197,-0.02172 -0.0166,0 -0.0302,0.0022 -0.0433,0.0072 -0.023,-0.01215 -0.0495,-0.01859 -0.0755,-0.01583 -0.0136,-0.01215 -0.0272,-0.02356 -0.0416,-0.03148 -0.003,0.0042 -0.007,0.0085 -0.0101,0.01288 -0.10491,0.147431 -0.23228,0.273878 -0.36093,0.406952 -0.004,0.0028 -0.009,0.0064 -0.0129,0.01068 -0.0346,0.03755 -0.0445,0.107858 0,0.14467 0.13086,0.105649 0.21645,0.232097 0.3659,0.316211 0.0396,0.02227 0.069,0.05393 0.0906,0.09424 0.0403,-0.07473 0.001,-0.183322 -0.0287,-0.256025 -0.0351,-0.08338 -0.0863,-0.162339 -0.17319,-0.196205 -10e-4,-0.0015 -0.002,-0.0029 -0.004,-0.0042 -0.009,-0.0094 -0.0193,-0.01951 -0.0295,-0.02816 -0.005,-0.05319 0.0732,-0.113564 0.14816,-0.167493 0.0144,0.0072 0.0329,0.0116 0.0525,0.01086 0.0151,0 0.0295,7.41e-4 0.0445,7.41e-4 0.0245,0.0099 0.0525,0.01288 0.0777,0.0042 0.21719,0.01583 0.42775,0.06258 0.64126,-0.01215 0.0418,0.0624 0.0784,0.128656 0.12736,0.186082"
       style="fill:#21201d;fill-opacity:1;fill-rule:nonzero;stroke:none;stroke-width:0.184057"
       id="path622" />
    <path
       d="m 413.96731,-13.333177 c -0.092,0.101968 -0.17338,0.210562 -0.2632,0.319157 -0.0942,0.112091 -0.2043,0.120742 -0.34013,0.163811 -0.10639,0.0346 -0.17173,0.09497 -0.28824,0.10657 -0.12663,0.01215 -0.24589,0.0064 -0.37326,0.02871 -0.12792,0.02301 -0.25658,0.01859 -0.37603,-0.03019 -0.0624,-0.02448 -0.1351,-0.07473 -0.19767,-0.08982 -0.0906,-0.02098 -0.0812,-0.0079 -0.14872,-0.05835 -0.069,-0.05098 -0.0999,-0.08117 -0.12369,-0.133074 -0.005,0.372533 -0.005,0.486833 0.009,0.518491 0.0618,0.143013 0.10123,0.287498 0.16031,0.43272 0.0618,0.156081 0.14448,0.315659 0.284,0.423517 0.074,0.05761 0.16031,0.133074 0.23651,0.179825 0.0718,0.04454 0.15534,0.06828 0.2286,0.115772 0.0747,0.04749 0.20559,0.0762 0.23651,0.154609 0.0267,0.06902 -7.1e-4,0.143749 -0.0712,0.1524 -0.11283,0.01436 -0.42406,-0.127368 -0.52843,-0.03092 -0.0755,-0.05043 -0.0928,-0.15829 -0.14153,-0.229336 -0.0727,-0.107858 -0.12793,-0.182033 -0.23449,-0.266884 -0.097,-0.07694 -0.16897,-0.111355 -0.22142,-0.227127 -0.004,-0.0079 -0.008,-0.01436 -0.0151,-0.01877 0.0433,0.02816 -0.0453,0.22952 -0.0488,0.26762 -0.008,0.09626 0.004,0.193997 0.0366,0.28529 0.0252,0.06828 0.11577,0.141724 0.0985,0.21001 -0.24019,-0.05614 -0.48241,-0.06608 -0.72408,-0.02522 0.0361,-0.02724 0.0539,-0.06902 0.0539,-0.112091 0,-0.05098 -0.0208,-0.09921 -0.0401,-0.145958 -0.0482,-0.122951 0.0265,-0.176144 0.008,-0.292652 -0.009,-0.05743 -0.0532,-0.20412 -0.14522,-0.159578 -0.001,7.4e-4 -0.003,0.0028 -0.004,0.0035 -0.0295,0.06056 -0.0339,0.107858 -0.0475,0.169701 -0.0151,0.0727 -0.0144,0.07197 -0.0826,0.123687 -0.11577,0.08853 -0.22215,0.145958 -0.32357,0.245902 -0.0718,0.07049 -0.0554,0.121478 -0.0237,0.208538 -0.0295,-0.02374 -0.12148,-0.03884 -0.15958,-0.03166 -0.0381,0.0064 -0.0725,0.0381 -0.11724,0.04454 -0.0416,0.0052 -0.0841,-0.0064 -0.12424,-0.0079 -0.0331,-7.41e-4 -0.16547,0.02871 -0.18479,0.0173 -0.0289,-0.0173 -0.0584,-0.126631 -0.069,-0.161787 0.21627,0.005 0.32707,-0.194917 0.48315,-0.297621 0.2113,-0.140253 0.39756,-0.290444 0.48812,-0.540026 0.0732,-0.200623 0.14099,-0.269645 0.25455,-0.463642 0.0193,-0.03313 0.028,-0.254552 0.0309,-0.564506 -0.0136,0.0173 -0.0267,0.0346 -0.0403,0.05319 -0.0403,0.05761 -0.046,0.07491 -0.10344,0.09148 -0.0316,0.0092 -0.0791,-0.0037 -0.1108,0.0064 -0.0747,0.02448 -0.13307,0.09405 -0.20706,0.128657 -0.35302,0.161787 -0.86635,0.150927 -1.20925,-0.02945 -0.1143,-0.06037 -0.25179,-0.09129 -0.36737,-0.157554 -0.11007,-0.06313 -0.164,-0.186818 -0.24241,-0.284001 -0.0725,-0.08835 -0.12147,-0.202648 -0.13086,-0.314187 -7.1e-4,-0.01068 -10e-4,-0.02006 -0.003,-0.03018 0.004,-0.0035 0.007,-0.0064 0.009,-0.01068 0.0512,-0.07197 0.0742,-0.16105 0.0756,-0.248846 0,-0.0035 -7.1e-4,-0.0072 -7.1e-4,-0.01086 0.0129,-0.0013 0.025,-0.005 0.0366,-0.01215 0.0567,-0.03387 0.11577,-0.06405 0.17246,-0.09774 0.002,-0.0015 0.004,-0.0037 0.006,-0.0044 0.0351,0.0381 0.0941,0.0519 0.13805,0 0.0143,-0.01712 0.0294,-0.03092 0.0445,-0.04454 0.0626,-0.01362 0.12148,-0.03515 0.16454,-0.0762 0.0353,-0.0064 0.072,-0.0094 0.11302,-0.0094 0.0381,-7.41e-4 0.0646,-0.01785 0.0804,-0.04233 0.028,0.02153 0.0668,0.02871 0.10638,0.0035 0.11798,-0.07178 0.22216,-0.137308 0.36535,-0.112828 0.0604,0.01086 0.10344,-0.02724 0.12001,-0.07197 0.0201,-0.0028 0.0381,-0.01215 0.0525,-0.02798 0.0116,-0.01215 0.0215,-0.02577 0.0309,-0.03884 0.003,-0.0042 0.006,-0.0079 0.008,-0.01215 0.0324,-0.03736 0.0388,-0.09645 0.005,-0.135283 0.0252,-0.08043 -0.0381,-0.192524 -0.0624,-0.254368 -0.0433,-0.110067 -0.009,-0.1524 0.046,-0.235962 0.006,-7.41e-4 0.0114,-0.0013 0.0171,-0.0013 0.007,0 0.0144,0 0.021,0 h 0.002 c 0.0497,-0.05908 0.15608,-0.108595 0.19712,0.137307 0.004,0.01785 -0.0158,0.180376 0.002,0.181849 0.0223,0.0022 0.0433,0.01436 0.0655,0.01859 0.19989,0.03608 0.22933,-0.307561 0.14154,-0.416891 -0.0834,-0.104361 -0.19547,-0.251607 -0.33995,-0.254552 -0.009,0 -0.0166,7.41e-4 -0.0245,0.0029 -0.008,-0.0015 -0.0158,-0.0029 -0.0252,-0.0029 -0.0517,7.41e-4 -0.10491,0.01013 -0.14945,0.03884 -0.001,7.41e-4 -0.004,0.0022 -0.005,0.0029 -0.003,0 -0.006,-7.41e-4 -0.009,-7.41e-4 -0.0547,0 -0.0856,0.03442 -0.095,0.0762 -0.002,7.41e-4 -0.004,7.41e-4 -0.006,0.002 -0.1143,0.0519 -0.31933,0.245349 -0.19418,0.360386 0.0525,0.04951 0.14375,0.03442 0.2021,0.102704 0.0725,0.08485 0.0344,0.12792 -0.0606,0.166756 -0.0782,0.03092 -0.13859,0.0044 -0.217,0.0173 -0.0712,0.01288 -0.16252,0.06479 -0.23007,0.09129 -0.0675,0.02742 -0.12589,0.07841 -0.19492,0.103624 -0.10417,0.0381 -0.20982,0.03957 -0.30847,0.09774 -0.048,0.02797 -0.0812,0.08191 -0.12645,0.112091 -0.004,-0.06976 0.0784,-0.181849 0.11135,-0.244429 0.0331,-0.06258 0.0712,-0.117797 0.12442,-0.157369 0.0302,-0.02301 0.0561,-0.01877 0.0893,-0.05393 0.023,-0.02522 0.0445,-0.07694 0.0653,-0.108595 0.0604,-0.08779 0.14302,-0.145958 0.2021,-0.230072 0.14227,-0.207065 0.36811,-0.345108 0.55787,-0.507632 0.0826,-0.07123 0.19547,-0.105649 0.27682,-0.174671 0.0547,-0.04675 0.0797,-0.125159 0.12645,-0.18056 0.14393,-0.170254 0.32136,-0.301119 0.44578,-0.491067 0.0561,-0.0854 0.10933,-0.173935 0.16399,-0.260258 0.1086,-0.163075 0.17468,-0.331304 0.24867,-0.514073 0.0346,-0.08338 0.0381,-0.161051 0.0648,-0.245166 0.018,-0.05963 0.0891,-0.140804 0.0769,-0.205592 0.0302,0.157553 0.0661,0.344372 0.11853,0.494011 0.0309,0.08687 0.0972,0.173199 0.14246,0.253816 0.14817,0.263755 0.29265,0.580887 0.5334,0.776356 0.15037,0.122399 0.27534,0.269645 0.41707,0.401983 0.2135,0.107857 0.36958,0.257313 0.51407,0.443579 0.11503,0.149639 0.26669,0.258233 0.39111,0.398302 0.0883,0.09994 0.12001,0.211482 0.19198,0.318604 0.0646,0.09553 0.18184,0.16105 0.22068,0.27167 -0.0561,-0.04381 -0.10418,-0.04951 -0.17467,-0.08338 -0.0712,-0.03442 -0.16326,0.01013 -0.17835,-0.08982 -0.0517,0.0057 -0.0755,-0.0381 -0.13013,-0.04381 -0.0891,-0.145222 -0.36737,-0.187739 -0.52051,-0.245901 -0.0992,-0.03736 -0.23872,-0.07694 -0.10418,-0.175407 0.10841,-0.07988 0.22787,-0.0554 0.17394,-0.21498 -0.026,-0.07694 -0.0871,-0.130129 -0.16326,-0.15829 -0.005,-0.01141 -0.0121,-0.02301 -0.0223,-0.03295 -0.006,-0.0059 -0.0129,-0.01086 -0.0193,-0.01583 -0.0698,-0.06902 -0.16547,-0.08853 -0.26173,-0.0762 -0.0289,-0.0138 -0.0633,-0.01233 -0.0972,0.002 -0.0272,0.01233 -0.0495,0.03019 -0.0675,0.05117 -0.0834,0.0416 -0.1351,0.107858 -0.19271,0.179641 -0.0582,0.07123 -0.0653,0.125159 -0.0201,0.208537 0.0411,0.07546 0.0955,0.181113 0.17982,0.216452 0.0653,0.0265 0.13933,0.0589 0.16234,-0.02025 0.0101,-0.03515 -0.0856,-0.166756 -0.0755,-0.201911 0.0569,-0.213508 0.18055,-0.197126 0.29044,-0.05614 0.0101,0.01509 0.0158,0.03387 0.0136,0.06184 -0.004,0.03884 -0.056,0.07546 -0.0718,0.108595 -0.0425,0.09276 -0.0482,0.209826 0.0366,0.277559 0.0245,0.01933 0.0589,0.03515 0.0964,0.04878 0.004,0.01509 0.0129,0.03018 0.0265,0.04325 0.009,0.03368 0.0324,0.0646 0.069,0.07399 0.11283,0.02871 0.20283,0.09773 0.32284,0.102153 0.006,7.4e-4 0.0121,0 0.018,-7.41e-4 0.006,0.01141 0.0121,0.02153 0.0215,0.03239 0.0193,0.02503 0.0547,0.03368 0.0869,0.02798 0.0109,0.0208 0.0217,0.0416 0.0316,0.06258 0.0245,0.04749 0.0957,0.06461 0.14025,0.03663 0.007,-0.005 0.0136,-0.01086 0.0195,-0.01657 0.005,7.41e-4 0.01,0.0022 0.0144,0.0037 0.0129,0.02227 0.0322,0.04012 0.0596,0.0473 0.0101,0.0037 0.0223,0.0059 0.0309,0.01013 0.006,0.0037 0.0129,0.0072 0.0144,0.0086 0.0188,0.0094 0.0366,0.0208 0.0539,0.03313 0.018,0.01215 0.0403,0.01583 0.0626,0.01288 0.0777,0.05687 0.14798,0.125159 0.22142,0.191235 -7e-4,0.05319 0.002,0.10565 0.0215,0.151664 0.0675,0.15829 0.0101,0.187003 -0.1027,0.312899 m 1.74117,-0.486833 c 0.0131,-0.07694 -0.0359,-0.150928 -0.0819,-0.218661 v 0.04601 c -0.006,0 -0.0107,0 -0.0158,7.41e-4 -0.003,-0.03663 -0.0121,-0.07399 -0.006,-0.109146 0.0201,-0.115773 0.046,-0.230809 0.0668,-0.345845 0.006,-0.03313 0.004,-0.06829 -0.004,-0.10068 -0.0252,-0.106385 -0.0539,-0.212035 -0.0841,-0.317132 -0.0245,-0.08761 -0.0497,-0.175407 -0.0792,-0.260994 -0.018,-0.05025 -0.0453,-0.09921 -0.0705,-0.14743 -0.0101,-0.01932 -0.0287,-0.03442 -0.0416,-0.05319 -0.007,-0.0079 -0.0101,-0.01712 -0.0138,-0.0265 -0.0193,-0.05393 0.0245,-0.110067 -0.006,-0.164732 -0.0101,-0.01859 -0.0158,-0.04086 -0.0186,-0.06184 -0.008,-0.06037 -0.0131,-0.121479 -0.0202,-0.182586 -10e-4,-0.0099 -0.004,-0.02153 -0.009,-0.02945 -0.0337,-0.04675 -0.069,-0.09129 -0.10123,-0.138044 -0.006,-0.0086 -0.002,-0.02301 -0.004,-0.0381 -0.0755,-0.06828 -0.10988,-0.175407 -0.18903,-0.252343 -0.0712,-0.06902 -0.11724,-0.165468 -0.17393,-0.249582 -0.0376,-0.05448 -0.0769,-0.109147 -0.11449,-0.165285 -0.0315,-0.04896 -0.0834,-0.0819 -0.0891,-0.152399 -0.002,-0.03884 -0.0438,-0.07915 -0.0755,-0.109331 -0.0661,-0.06037 -0.13657,-0.115036 -0.20559,-0.172462 -7.1e-4,0.01068 -0.002,0.02227 -0.004,0.03442 -0.004,0.0015 -0.009,0.0037 -0.0129,0.005 -0.0274,-0.04012 -0.0539,-0.08043 -0.0813,-0.120742 -0.0179,-0.02522 -0.0374,-0.05025 -0.0559,-0.07546 -0.0131,-0.01933 -0.0274,-0.0381 -0.0411,-0.05743 -0.0215,-0.0324 -0.0423,-0.06553 -0.0646,-0.09792 -0.008,-0.01141 -0.0188,-0.02006 -0.0267,-0.03019 -0.0331,-0.04381 -0.0633,-0.08908 -0.0985,-0.130129 -0.009,-0.0099 -0.0309,-0.01141 -0.0482,-0.01288 -0.0245,-0.0037 -0.0495,0 -0.0725,-0.0064 -0.0957,-0.02816 -0.19197,-0.0554 -0.28621,-0.09001 -0.0381,-0.01362 -0.0762,-0.0381 -0.10491,-0.06608 -0.09,-0.08632 -0.20136,-0.144485 -0.28547,-0.240195 -0.0445,-0.05025 -0.11651,-0.07749 -0.17835,-0.109883 -0.0698,-0.03663 -0.14099,-0.06755 -0.21277,-0.09994 -0.0388,-0.0173 -0.0777,-0.04031 -0.11872,-0.04602 -0.0804,-0.0116 -0.16252,-0.0116 -0.24295,-0.01877 -0.0935,-0.0094 -0.1905,-0.0015 -0.27756,-0.04951 -0.0928,-0.05117 -0.19344,-0.04178 -0.29338,-0.04325 -0.007,0 -0.0164,0.0015 -0.0208,0.0059 -0.0445,0.0416 -0.0955,0.0243 -0.14522,0.01509 -0.007,-0.0015 -0.0114,-0.02025 -0.0201,-0.03534 -0.0223,-0.0028 -0.0512,-0.0094 -0.0806,-0.0099 -0.0626,-0.0015 -0.12497,0.0013 -0.18682,0.002 -0.0648,7.41e-4 -0.13012,0.0064 -0.19418,7.41e-4 -0.0604,-0.0042 -0.12,-0.02006 -0.18055,-0.03166 -7.1e-4,0 -10e-4,-0.0028 -0.002,-0.0035 -0.0245,-0.0022 -0.0519,-0.01233 -0.0734,-0.0052 -0.0559,0.01951 -0.11209,0.04105 -0.16252,0.07123 -0.0265,0.01509 -0.0696,0.02374 -0.069,0.07049 0,0.0064 -0.0107,0.01509 -0.0186,0.02006 -0.0309,0.0173 -0.0626,0.03313 -0.0942,0.0497 7e-4,-0.0052 7e-4,-0.01012 7e-4,-0.01509 -0.009,-0.0015 -0.0186,-0.0064 -0.0265,-0.0052 -0.046,0.0094 -0.0915,0.02245 -0.13676,0.03092 -0.0186,0.0022 -0.0388,-0.0079 -0.0574,-0.005 -0.0712,0.01215 -0.14246,0.02724 -0.21351,0.04105 -0.087,0.01657 -0.17467,0.03368 -0.26172,0.05025 -0.0123,0.0022 -0.0245,0.0116 -0.0359,0.0094 -0.0806,-0.0116 -0.1489,0.0324 -0.22289,0.04749 -0.0131,0.0028 -0.023,0.02006 -0.0346,0.03018 0.002,0.0022 0.004,0.0042 0.007,0.0064 l 0.0676,-0.02227 c 0.001,0.005 0.003,0.0094 0.004,0.01362 -0.0467,0.03166 -0.0942,0.06405 -0.14099,0.09571 -0.002,-0.0066 -0.004,-0.0138 -0.007,-0.01951 -0.0166,7.41e-4 -0.0359,-0.0035 -0.049,0.0037 -0.0409,0.02301 -0.079,0.05098 -0.11854,0.07694 -0.0633,0.0416 -0.12368,0.08908 -0.19123,0.124239 -0.0482,0.02595 -0.10859,0.0289 -0.15755,0.05393 -0.11577,0.05761 -0.23136,0.117981 -0.30701,0.230809 -0.0272,0.04105 -0.0589,0.07988 -0.0955,0.127368 -0.009,-0.01657 -0.0129,-0.02522 -0.0158,-0.0324 -0.0871,0.07399 -0.11927,0.17688 -0.17394,0.264491 -0.0497,0.08062 -0.10068,0.162524 -0.1662,0.228785 -0.0797,0.08117 -0.17688,0.144485 -0.26301,0.219212 -0.0856,0.07325 -0.10142,0.181113 -0.12737,0.282529 -0.0107,0.04178 -0.0201,0.08338 -0.0295,0.124424 -0.005,-7.41e-4 -0.0101,-0.0015 -0.0151,-0.0029 10e-4,-0.01288 0.003,-0.02503 0.004,-0.03736 -0.0208,0.02098 -0.028,0.04528 -0.0416,0.067 -0.028,0.04528 -0.0596,0.08908 -0.0898,0.133626 -0.008,0.0116 -0.0195,0.02006 -0.0281,0.03166 -0.0475,0.07123 -0.0948,0.142277 -0.14228,0.21498 -0.008,0.01215 -0.0116,0.02871 -0.0144,0.04381 -0.0195,0.08062 -0.0353,0.162523 -0.0576,0.241668 -0.0201,0.07399 -0.046,0.145958 -0.0698,0.218476 -0.004,-0.0015 -0.008,-0.0022 -0.0114,-0.0028 -0.003,-0.0072 -0.005,-0.01509 -0.006,-0.01877 -0.009,0.04601 -0.021,0.09276 -0.026,0.140252 -0.006,0.05963 -0.003,0.121478 -0.008,0.182585 -0.006,0.06258 0.006,0.127185 -0.0272,0.186267 -0.0188,0.03368 -0.0353,0.07105 -0.0418,0.10841 -0.0272,0.16326 -0.0482,0.327255 -0.13307,0.475238 -0.0618,0.106569 -0.0668,0.228048 -0.0453,0.345845 0.0346,0.191972 0.069,0.385417 0.14449,0.567266 0.005,0.01013 0.0166,0.0173 0.0237,0.02816 0.0252,0.03884 0.0497,0.07767 0.0749,0.117061 -0.003,0.0015 -0.006,0.0037 -0.009,0.0059 -0.009,-0.0044 -0.0188,-0.0087 -0.0274,-0.01307 0.0418,0.05614 0.0497,0.125159 0.0295,0.177616 -0.0215,0.05835 -0.0193,0.102888 0.006,0.153872 0.002,-0.005 0.006,-0.0094 0.0136,-0.02448 0.004,0.04399 0.008,0.07767 0.0101,0.111539 0.004,0.03589 0.004,0.07252 0.0107,0.107858 0.0346,0.199887 0.1143,0.384681 0.18406,0.574445 0.0698,0.189028 0.19639,0.345108 0.29762,0.515546 0.0526,0.09056 0.12589,0.172462 0.21424,0.237987 0.0999,0.07252 0.20062,0.143013 0.27038,0.25308 0.049,0.07767 0.12589,0.139332 0.19418,0.203384 0.10859,0.102152 0.21847,0.202832 0.33148,0.299094 0.17688,0.149639 0.3486,0.308481 0.5888,0.35155 0.0158,0.0029 0.0324,0 0.049,0.0037 0.0559,0.0094 0.11558,0.01141 0.16822,0.03368 0.0517,0.02172 0.097,0.06405 0.14596,0.09571 0.008,0.005 0.0201,0.0042 0.0302,0.0057 0.0158,0.0037 0.0351,7.41e-4 0.0467,0.0087 0.0955,0.06829 0.194,0.1258954 0.30829,0.156817 0.0821,0.021534 0.16032,0.052456 0.23946,0.080433 0.0267,0.010121 0.051,0.033129 0.0769,0.033867 0.0977,0.00201 0.18552,0.04675 0.27902,0.065341 0.13731,0.028162 0.27388,0.066261 0.40824,-0.014358 0.0145,-0.00865 0.0381,-0.00423 0.0576,-0.00148 0.0193,0.00148 0.0396,0.013067 0.0574,0.010858 0.18056,-0.022271 0.36167,-0.046751 0.54223,-0.069758 0.0913,-0.011596 0.18185,-0.021533 0.27314,-0.033129 0.0727,-0.00939 0.14448,-0.016566 0.21571,-0.030187 0.0898,-0.015092 0.17909,-0.036627 0.26817,-0.054665 0.004,-7.408e-4 0.009,0 0.0136,-7.408e-4 0.0425,-0.00644 0.0893,-0.00349 0.12442,-0.022271 0.10786,-0.055954 0.2113,-0.1207412 0.31566,-0.1825852 0.0316,-0.01804 0.0589,-0.05466 0.1027,-0.02153 0.004,0.0029 0.0173,-0.0042 0.026,-0.0079 0.10786,-0.05614 0.2251,-0.08338 0.34364,-0.102153 0.0841,-0.01288 0.12019,-0.07822 0.16822,-0.132889 0.005,-0.0052 0.002,-0.0173 0.004,-0.03313 -0.0173,0.01509 -0.0294,0.02595 -0.041,0.03663 l -0.0107,-0.0064 c 0.0121,-0.02153 0.0208,-0.04822 0.0388,-0.06332 0.074,-0.06184 0.1465,-0.124975 0.21994,-0.187555 0.10786,-0.09276 0.19124,-0.212955 0.32136,-0.281976 0.0495,-0.02577 0.0871,-0.07399 0.1316,-0.111355 0.009,-0.0079 0.0208,-0.01215 0.0324,-0.01583 0.0999,-0.0381 0.19473,-0.08043 0.24148,-0.187555 0.0418,-0.09203 0.0819,-0.183506 0.12939,-0.271854 0.023,-0.04252 0.0569,-0.08191 0.0928,-0.115036 0.14246,-0.136571 0.29486,-0.263203 0.38615,-0.444316 0.0316,-0.06258 0.074,-0.119454 0.11062,-0.179824 0.0109,-0.01859 0.021,-0.0381 0.0289,-0.0589 0.0315,-0.08632 0.0668,-0.172462 0.0933,-0.260258 0.0245,-0.08191 0.041,-0.166756 0.0591,-0.250871 0.0129,-0.06184 0.0186,-0.125895 0.0351,-0.187003 0.0215,-0.08411 0.064,-0.163995 0.072,-0.247374 0.008,-0.08559 0.0258,-0.166756 0.0453,-0.250134 0.008,-0.03313 0.0265,-0.06976 0.0201,-0.101416 -0.0144,-0.06755 -0.0453,-0.127184 -0.0324,-0.205593"
       style="fill:#21201d;fill-opacity:1;fill-rule:nonzero;stroke:none;stroke-width:0.184057"
       id="path624" />
    <path
       d="m 411.18273,-14.24776 c 0.0144,-0.05117 -0.0151,-0.328544 -0.049,-0.397013 -0.0295,-0.0589 -0.30774,0.296333 -0.33646,0.370324 -0.005,0.01233 -0.0123,0.02374 -0.0215,0.03313 -0.0871,0.08264 -0.0561,0.110619 -0.29909,0.188292 -0.0188,0.0064 -0.17614,-0.0035 -0.32081,0.156081 -0.0156,-0.005 -0.13583,0.09203 -0.15589,0.097 -0.11946,0.02448 -0.14817,0.067 -0.26541,0.10068 -0.006,0.0022 -0.0121,0.0044 -0.0179,0.0072 -0.009,-0.002 -0.018,-0.0035 -0.0287,-0.0028 -0.23596,0.01067 -0.36093,0.283265 -0.27903,0.49033 0.006,0.01657 0.0151,0.02871 0.0258,0.03957 0.005,0.01638 0.0131,0.03221 0.0252,0.04657 0.0734,0.08706 0.18479,0.07344 0.28326,0.09994 0.023,0.0066 0.044,0.0052 0.0618,-0.002 0.004,0.0028 0.007,0.0057 0.0123,0.0087 0.12939,0.06387 0.26596,0.08043 0.40547,0.0416 0.12148,-0.03368 0.22418,-0.10933 0.34658,-0.145221 0.14301,-0.04233 0.21995,-0.24811 0.0977,-0.360938 -0.0504,-0.04675 -0.19123,-0.137307 -0.25455,-0.125159 -0.0784,0.01583 -0.21,0.214427 -0.23227,0.304247 -0.0567,-0.373269 0.28768,-0.529166 0.45737,-0.616225 0.0416,-0.02153 0.0841,-0.06332 0.14007,-0.05614 0.12737,0.01583 0.16694,0 0.23302,0.06405 0.0698,0.06902 0.13381,0.211482 0.17467,0.242956 -7.1e-4,-0.08688 0.003,-0.353575 7e-4,-0.439898 0.0136,-0.02025 -0.0107,-0.119454 -0.004,-0.145222"
       style="fill:#21201d;fill-opacity:1;fill-rule:nonzero;stroke:none;stroke-width:0.184057"
       id="path626" />
  </g>
</svg>
