<?xml version="1.0" encoding="UTF-8" standalone="no"?>
<!-- Created with Inkscape (http://www.inkscape.org/) -->

<svg
   width="8.6417465mm"
   height="8.6885691mm"
   viewBox="0 0 8.6417465 8.6885691"
   version="1.1"
   id="svg2324"
   inkscape:version="1.1.2 (0a00cf5339, 2022-02-04)"
   sodipodi:docname="rm3.svg"
   xmlns:inkscape="http://www.inkscape.org/namespaces/inkscape"
   xmlns:sodipodi="http://sodipodi.sourceforge.net/DTD/sodipodi-0.dtd"
   xmlns="http://www.w3.org/2000/svg"
   xmlns:svg="http://www.w3.org/2000/svg">
  <sodipodi:namedview
     id="namedview2326"
     pagecolor="#ffffff"
     bordercolor="#666666"
     borderopacity="1.0"
     inkscape:pageshadow="2"
     inkscape:pageopacity="0.0"
     inkscape:pagecheckerboard="0"
     inkscape:document-units="mm"
     showgrid="false"
     inkscape:zoom="0.64052329"
     inkscape:cx="-857.11169"
     inkscape:cy="419.18851"
     inkscape:window-width="2560"
     inkscape:window-height="1376"
     inkscape:window-x="0"
     inkscape:window-y="0"
     inkscape:window-maximized="1"
     inkscape:current-layer="layer1" />
  <defs
     id="defs2321" />
  <g
     inkscape:label="Layer 1"
     inkscape:groupmode="layer"
     id="layer1"
     transform="translate(-331.50909,-37.789193)">
    <path
       d="m 333.83135,44.150992 c -0.0433,0.04675 -0.10786,0.117246 -0.11651,0.154609 -0.0109,0.04454 0.0337,0.105833 0.0668,0.150375 l 0.0109,0.01436 c 0.0473,0.06681 0.0898,0.132337 0.12718,0.200621 0.001,-0.0052 0.002,-0.01013 0.003,-0.0151 0.0171,-0.109329 0.0396,-0.220133 0.0589,-0.314187 0.006,-0.02667 0.009,-0.07418 0.0136,-0.13013 0.0123,-0.145404 0.0252,-0.274062 0.0641,-0.356704 -0.003,-0.0014 -0.006,-0.0028 -0.009,-0.0042 -0.0453,0.08043 -0.10068,0.155162 -0.14891,0.220687 -0.0179,0.02374 -0.0431,0.05025 -0.0696,0.0797"
       style="fill:#21201d;fill-opacity:1;fill-rule:evenodd;stroke:none;stroke-width:0.184057"
       id="path660" />
    <path
       d="m 333.71687,41.317605 c -0.006,-0.01436 -0.0129,-0.02946 -0.0201,-0.04454 -0.0344,-0.07767 -0.0797,-0.179088 -0.13657,-0.235963 -0.0116,0.067 -0.0366,0.133075 -0.0576,0.184796 l -0.004,0.01161 c -0.0151,0.04031 -0.0331,0.07914 -0.0503,0.117243 -0.006,0.01436 -0.013,0.02872 -0.0188,0.04233 l -0.007,0.0151 c -0.003,0.0086 -0.007,0.01729 -0.0109,0.02667 -0.0438,0.107121 -0.10068,0.151663 -0.16822,0.202646 -0.0129,0.0094 -0.0265,0.01951 -0.0401,0.03094 -0.14466,0.115033 -0.24166,0.168962 -0.41928,0.229333 -0.0107,0.0037 -0.023,0.0094 -0.0396,0.01584 -0.004,0.0014 -0.009,0.0037 -0.0144,0.0057 l 0.0151,0.0028 c 0.13455,0.02596 0.28621,0.05467 0.41266,0.112092 0.0633,0.02889 0.13675,0.06185 0.21001,0.102154 0.12939,0.06902 0.22142,0.139516 0.29044,0.21995 l 0.0215,0.02448 c 0.0339,0.03957 0.0742,0.08559 0.11006,0.132338 0.0208,-0.097 0.0396,-0.196208 0.0403,-0.286212 7.1e-4,-0.05466 -0.007,-0.110617 -0.0151,-0.163809 -0.0123,-0.08135 -0.0245,-0.16547 -0.0116,-0.256762 0.003,-0.02374 0.0195,-0.04528 0.0418,-0.05393 0,0 10e-4,-7.06e-4 0.002,-0.0035 0.01,-0.02522 0.0171,-0.116509 -0.12295,-0.417075 z"
       style="fill:#21201d;fill-opacity:1;fill-rule:nonzero;stroke:none;stroke-width:0.184057"
       id="path662" />
    <path
       d="m 337.60376,43.854842 c 0.0381,0.08264 0.0517,0.2113 0.0631,0.356705 0.005,0.05595 0.009,0.103441 0.0145,0.130683 0.0193,0.0935 0.0409,0.205041 0.0589,0.313633 7e-4,0.005 0.002,0.0099 0.003,0.0151 0.0374,-0.06828 0.079,-0.133809 0.12718,-0.200621 l 0.0109,-0.01436 c 0.0322,-0.04454 0.0768,-0.105834 0.0668,-0.150375 -0.009,-0.03736 -0.0734,-0.107859 -0.11724,-0.154609 -0.026,-0.02872 -0.051,-0.05595 -0.069,-0.0797 -0.049,-0.06626 -0.10344,-0.140987 -0.1489,-0.21995 -0.003,0.0014 -0.006,0.0021 -0.009,0.0035"
       style="fill:#21201d;fill-opacity:1;fill-rule:nonzero;stroke:none;stroke-width:0.184057"
       id="path664" />
    <path
       d="m 335.11036,44.032459 c -0.0101,-0.0014 -0.0215,-0.0021 -0.0346,-0.0021 -0.0136,0 -0.0272,7.06e-4 -0.0416,0.0014 -0.0166,7.06e-4 -0.0331,0.0014 -0.049,0.0014 -0.0252,0 -0.0641,-0.0014 -0.10565,-0.01658 -0.0359,-0.01362 -0.0675,-0.0302 -0.0977,-0.04675 -0.0453,-0.02374 -0.0841,-0.04454 -0.13086,-0.05172 -0.092,-0.01288 -0.1813,-0.01877 -0.27609,-0.02522 -0.0468,-0.0028 -0.0906,-0.0065 -0.13233,-0.01012 0.006,0.04325 0.009,0.08632 0.0109,0.128838 0.001,0.02649 0.003,0.0532 0.005,0.08043 0.007,0.08412 -0.0116,0.161054 -0.0302,0.235045 -0.0101,0.04325 -0.0208,0.08706 -0.026,0.129576 -0.004,0.03443 -0.008,0.06902 -0.0114,0.104175 0.15516,-0.204117 0.40105,-0.350076 0.66278,-0.38965 0.0309,-0.0052 0.0648,-0.01305 0.10142,-0.02226 0.0611,-0.01436 0.12515,-0.0302 0.18626,-0.03094 0.0359,0 0.0747,0.0086 0.11504,0.02007 -0.0309,-0.04602 -0.0532,-0.103442 -0.069,-0.155346 -0.008,0.02963 -0.0353,0.05043 -0.0663,0.05043 -0.004,0 -0.007,0 -0.0107,-7.05e-4"
       style="fill:#21201d;fill-opacity:1;fill-rule:nonzero;stroke:none;stroke-width:0.184057"
       id="path666" />
    <path
       d="m 339.36665,42.025859 c -0.0747,0.05025 -0.187,0.07252 -0.2862,0.09258 -0.0374,0.0074 -0.0733,0.01453 -0.10271,0.023 -0.15037,0.04105 -0.36535,0.111541 -0.53431,0.217925 -0.0567,0.03517 -0.10197,0.0878 -0.15019,0.144487 -0.0438,0.05117 -0.0898,0.104359 -0.14817,0.148904 -0.0359,0.02723 -0.0705,0.06975 -0.10417,0.10988 -0.0223,0.0267 -0.0453,0.05393 -0.0698,0.07915 l 0.0215,0.01288 0.003,0.0021 c 0.13584,0.08338 0.27737,0.169703 0.4191,0.246637 l 0.0188,0.0094 c 0.27884,0.147433 0.42259,0.255288 0.46216,0.349342 -0.0272,-0.166755 -0.0337,-0.341426 -0.0403,-0.506159 -0.002,-0.07473 -0.006,-0.145221 -0.01,-0.213508 -0.0712,0.02596 -0.15681,0.04381 -0.21866,0.05043 -0.007,7.06e-4 -0.0144,7.06e-4 -0.0216,7.06e-4 -0.0186,0 -0.0366,-0.0021 -0.0502,-0.0042 -0.004,-7.05e-4 -0.008,-0.0014 -0.0116,-0.0014 -0.023,0.01436 -0.041,0.02226 -0.0633,0.02226 -0.006,0 -0.0107,0 -0.0193,-0.0014 -0.0252,-0.0042 -0.0467,-0.02155 -0.0554,-0.04602 -0.009,-0.02501 -0.002,-0.05172 0.0158,-0.07031 0.0208,-0.02173 0.046,-0.03534 0.0762,-0.04105 0.0353,-0.0309 0.0791,-0.05098 0.11945,-0.06828 0.023,-0.01013 0.0468,-0.02081 0.0661,-0.03238 0.0418,-0.02448 0.0856,-0.06755 0.12718,-0.108595 0.0281,-0.02798 0.0569,-0.05595 0.0863,-0.08043 0.0267,-0.02226 0.0539,-0.04748 0.0834,-0.07473 0.0705,-0.06553 0.14393,-0.133075 0.22216,-0.1697 0.009,-0.0044 0.0195,-0.0065 0.0302,-0.0065 0.0123,0 0.0252,0.0028 0.0361,0.0099 0.0193,0.01231 0.0316,0.03387 0.033,0.05688 0.002,0.09405 -0.0488,0.176142 -0.0985,0.255288 -0.0324,0.05245 -0.0661,0.106383 -0.0762,0.154425 -0.0193,0.08927 -0.0144,0.170437 -0.009,0.256024 0.002,0.03663 0.004,0.07473 0.006,0.115034 10e-4,0.110067 0.008,0.214246 0.0144,0.324312 0.004,0.06828 0.009,0.137305 0.0114,0.209088 10e-4,0.04399 -0.006,0.0878 -0.0129,0.129579 -0.006,0.04086 -0.0129,0.07896 -0.009,0.109146 0.001,0.01231 0.0136,0.03681 0.023,0.05614 0.0151,0.02872 0.0294,0.05816 0.0366,0.09129 0.004,0.02081 -0.003,0.04252 -0.0164,0.05816 0.0129,0.0086 0.0272,0.01729 0.0394,0.02889 0.023,0.01933 0.0302,0.05098 0.018,0.07841 -0.0109,0.02575 -0.0359,0.04233 -0.0633,0.04233 -0.002,0 -0.004,-7.06e-4 -0.006,-7.06e-4 -0.0101,-0.0014 -0.0215,-0.0021 -0.0324,-0.0035 -0.0351,-0.0037 -0.0747,-0.0079 -0.11283,-0.0079 -0.0883,0 -0.1143,0.02357 -0.12644,0.0416 -0.0131,0.01951 -0.0339,0.0309 -0.0598,0.0309 h -0.01 c -0.095,0 -0.19639,0.05761 -0.29412,0.112091 -0.0346,0.01951 -0.0683,0.0381 -0.10215,0.0554 -0.0344,0.01729 -0.0574,0.03883 -0.0869,0.06553 -0.0202,0.01859 -0.041,0.03736 -0.067,0.05669 -0.033,0.02448 -0.0618,0.0381 -0.0849,0.05043 -0.0388,0.02007 -0.0589,0.0309 -0.0869,0.07325 -0.044,0.06755 -0.0893,0.139517 -0.11945,0.201359 -0.0129,0.02596 -0.0215,0.05687 -0.0309,0.08908 -0.0144,0.04675 -0.0287,0.09571 -0.0567,0.140991 l -0.0252,0.03957 c -0.0316,0.05172 -0.0574,0.09277 -0.0878,0.150928 -0.002,0.005 -0.005,0.01087 -0.008,0.01658 -0.0136,0.02872 -0.033,0.06976 -0.0696,0.08908 -0.006,0.01951 -0.0202,0.03534 -0.0388,0.04326 -0.009,0.0035 -0.018,0.005 -0.0274,0.005 -0.023,0 -0.0438,-0.01087 -0.0567,-0.02946 -0.0188,-0.02797 -0.0252,-0.05245 -0.0309,-0.07473 l -0.003,-0.0094 c -10e-4,-0.0057 -0.002,-0.01161 -0.002,-0.01729 -0.0322,-0.0819 -0.0826,-0.183321 -0.11632,-0.227862 -0.0217,-0.0302 -0.0633,-0.06037 -0.10436,-0.08927 -0.028,-0.02007 -0.0561,-0.0416 -0.0819,-0.06313 -0.0591,-0.05393 -0.0906,-0.09994 -0.1281,-0.154609 -0.006,-0.0094 -0.0136,-0.02025 -0.0215,-0.0309 -0.0935,-0.133812 -0.24866,-0.186267 -0.36223,-0.207066 -0.0605,-0.01087 -0.12239,-0.03164 -0.18276,-0.05098 -0.0841,-0.02667 -0.17025,-0.05467 -0.24296,-0.05467 -0.009,0 -0.018,7.05e-4 -0.026,0.0014 -0.003,7.05e-4 -0.005,7.05e-4 -0.007,7.05e-4 -0.0329,0 -0.0611,-0.02374 -0.0675,-0.05595 -0.006,-0.03534 0.0136,-0.06902 0.0482,-0.07988 0.0173,-0.005 0.0381,-0.01214 0.0626,-0.02081 0.069,-0.02522 0.14798,-0.05319 0.21626,-0.05319 0.0591,7.06e-4 0.12295,0.01584 0.18406,0.03094 0.0361,0.0086 0.0705,0.01711 0.10068,0.02152 0.26246,0.04031 0.50836,0.186267 0.6637,0.390384 -0.004,-0.03514 -0.008,-0.07049 -0.0116,-0.104175 -0.004,-0.04252 -0.0158,-0.08706 -0.0258,-0.128842 -0.0188,-0.07473 -0.0374,-0.1524 -0.0302,-0.235779 0.002,-0.02723 0.004,-0.05466 0.005,-0.08043 0.002,-0.04325 0.004,-0.08558 0.0101,-0.128838 -0.041,0.0037 -0.0849,0.0072 -0.1316,0.01012 -0.095,0.0057 -0.18405,0.01161 -0.27608,0.02522 -0.0475,0.0072 -0.0856,0.02723 -0.13013,0.05172 -0.0309,0.01658 -0.0626,0.03313 -0.0985,0.04675 -0.041,0.0151 -0.0799,0.01729 -0.1051,0.01729 -0.0171,0 -0.033,-7.05e-4 -0.0502,-0.0028 -0.0144,0 -0.0274,-7.06e-4 -0.041,-7.06e-4 -0.0136,0 -0.0245,7.06e-4 -0.0344,0.0021 -0.004,7.06e-4 -0.007,0.0014 -0.0109,0.0014 -0.0324,0 -0.0604,-0.02226 -0.0676,-0.05392 -0.008,-0.03238 0.0101,-0.067 0.041,-0.07915 0.01,-0.01143 0.0272,-0.04823 0.0517,-0.108596 0.0374,-0.09276 0.0698,-0.173196 0.14669,-0.173196 0.0151,0 0.0302,0.0035 0.0438,0.01069 0.0121,0.0066 0.0223,0.01658 0.0287,0.02889 0.0131,0.02431 0.0626,0.03884 0.13086,0.03884 0.0712,0 0.14669,-0.0151 0.19344,-0.02963 0.0173,-0.0057 0.0351,-0.01362 0.0539,-0.023 0.0295,-0.01436 0.0633,-0.0309 0.10142,-0.03884 0.008,-7.05e-4 0.0179,-0.0021 0.0359,-0.0021 0.0121,0 0.028,7.05e-4 0.0431,0.0014 h 0.009 c -7e-4,-0.0086 -0.002,-0.01803 -0.004,-0.023 -0.003,-0.02244 -0.007,-0.05117 -0.003,-0.08135 0.003,-0.02872 0.0237,-0.05098 0.051,-0.05743 0.006,-0.0021 0.0116,-0.0028 0.0173,-0.0028 0.0203,0 0.0396,0.0094 0.0525,0.02522 0.0195,-0.0727 0.0497,-0.140988 0.0791,-0.207067 0.0438,-0.101416 0.0863,-0.196388 0.0891,-0.297067 0.004,-0.130129 -0.0315,-0.255841 -0.0696,-0.389653 -0.021,-0.07105 -0.0418,-0.143747 -0.0561,-0.218476 -0.0295,-0.148904 -0.0547,-0.382471 -0.0302,-0.552175 0.0186,-0.1316 0.0705,-0.25087 0.12148,-0.367379 0.0158,-0.03534 0.0309,-0.07049 0.0453,-0.106383 0.0166,-0.04105 0.0295,-0.08633 0.0445,-0.133813 0.0295,-0.100679 0.0604,-0.205591 0.12811,-0.288233 0.0322,-0.03884 0.0639,-0.07491 0.0948,-0.109329 0.0618,-0.06902 0.12019,-0.133813 0.16822,-0.216454 0.0482,-0.0819 0.10565,-0.156634 0.16105,-0.2286 0.0453,-0.0589 0.092,-0.119454 0.13234,-0.18185 0.0554,-0.0878 0.20136,-0.294125 0.34934,-0.294125 0.008,0 0.0151,7.05e-4 0.023,0.0014 0.0282,0.005 0.0504,0.02448 0.0569,0.05246 0.007,0.02723 -0.004,0.0554 -0.0267,0.07197 -0.0287,0.02081 -0.0532,0.05172 -0.079,0.08412 -0.009,0.01214 -0.0188,0.02356 -0.0287,0.03663 -0.0252,0.02946 -0.0526,0.05467 -0.0791,0.0797 -0.0359,0.03313 -0.0698,0.06405 -0.0913,0.09994 -0.0287,0.05117 -0.0346,0.115775 -0.041,0.184059 -0.002,0.02448 -0.005,0.04896 -0.008,0.07418 -0.009,0.06111 -0.0309,0.112829 -0.0525,0.163075 -0.0223,0.05264 -0.0418,0.09792 -0.041,0.143933 0.002,0.169704 0.0856,0.445788 0.16179,0.598188 0.0633,0.127187 0.17614,0.163075 0.30627,0.20412 0.0425,0.01362 0.0871,0.02741 0.13013,0.04528 0.0964,0.03884 0.16473,0.06479 0.24958,0.08633 0.0223,0.0065 0.0409,0.023 0.0475,0.04528 0.005,0.01362 0.005,0.0267 0.002,0.04031 0.0316,0.0021 0.0618,0.0079 0.0907,0.01584 0.0265,0.0072 0.0453,0.02872 0.0502,0.05522 0.004,0.02667 -0.007,0.05337 -0.0295,0.06847 m -3.33032,2.056113 c -0.023,-0.02007 -0.0351,-0.04454 -0.0445,-0.06313 l -0.005,-0.01012 c -0.021,-0.03884 -0.0561,-0.07197 -0.0907,-0.104913 -0.0151,-0.01379 -0.0302,-0.02815 -0.0431,-0.03313 -0.005,-0.0021 -0.0116,-0.0037 -0.018,-0.0037 -0.0151,0 -0.033,0.0059 -0.0495,0.01655 -0.0245,0.0151 -0.046,0.04031 -0.069,0.067 -0.023,0.02649 -0.0467,0.05393 -0.0784,0.07822 -0.0223,0.01658 -0.0453,0.02815 -0.0641,0.03681 -0.0287,0.01436 -0.0416,0.02081 -0.0517,0.03884 -0.003,0.0042 -0.005,0.0092 -0.007,0.0151 -0.007,0.0151 -0.0165,0.03443 -0.0324,0.0532 -0.0144,0.0151 -0.028,0.02431 -0.0409,0.03221 0.0193,0.01584 0.0294,0.04105 0.0243,0.067 -0.006,0.03221 -0.0351,0.05595 -0.0675,0.05595 -0.003,0 -0.005,0 -0.007,-7.05e-4 -0.009,-7.06e-4 -0.0166,-0.0014 -0.0258,-0.0014 -0.0727,0 -0.15902,0.02797 -0.24314,0.05467 -0.0604,0.01933 -0.12295,0.04013 -0.18332,0.05098 -0.11283,0.02081 -0.26817,0.07325 -0.36167,0.207066 -0.008,0.01069 -0.0151,0.02152 -0.0223,0.03164 -0.0374,0.05393 -0.0683,0.09994 -0.12792,0.153871 -0.0252,0.02152 -0.0539,0.04307 -0.0819,0.06313 -0.0403,0.02889 -0.0821,0.05908 -0.10363,0.08927 -0.0339,0.04454 -0.0841,0.145221 -0.1165,0.226392 v 7.05e-4 c 0,0.0072 -7.1e-4,0.01436 -0.004,0.02152 l -10e-4,0.0059 c -0.006,0.02226 -0.0116,0.04675 -0.0317,0.07473 -0.0129,0.01859 -0.0331,0.02946 -0.0561,0.02946 -0.009,0 -0.0186,-0.0014 -0.0272,-0.005 -0.0188,-0.0079 -0.0331,-0.02374 -0.0388,-0.04325 -0.0366,-0.01933 -0.0569,-0.06037 -0.0705,-0.08908 -0.003,-0.0057 -0.005,-0.01161 -0.008,-0.01658 -0.0295,-0.05816 -0.0554,-0.09921 -0.0876,-0.150929 l -0.0245,-0.04031 c -0.0281,-0.04454 -0.0425,-0.0935 -0.0569,-0.140254 -0.009,-0.03221 -0.0179,-0.06313 -0.0309,-0.08908 -0.0309,-0.06184 -0.0755,-0.133809 -0.11926,-0.201359 -0.0282,-0.04233 -0.049,-0.05319 -0.0871,-0.07325 -0.023,-0.01235 -0.0525,-0.02596 -0.0849,-0.05043 -0.0258,-0.01933 -0.0467,-0.0381 -0.0668,-0.05669 -0.0295,-0.0267 -0.0525,-0.04823 -0.0878,-0.06553 -0.0337,-0.01732 -0.0668,-0.03589 -0.10123,-0.0554 -0.0979,-0.05448 -0.19915,-0.112091 -0.29486,-0.112091 h -0.0121 c -0.023,0 -0.0447,-0.0114 -0.0576,-0.0309 -0.0121,-0.01803 -0.0374,-0.0416 -0.12645,-0.0416 -0.0375,0 -0.0769,0.0042 -0.11227,0.0079 -0.0107,0.0014 -0.0223,0.0021 -0.0324,0.0035 -0.002,0 -0.004,7.06e-4 -0.006,7.06e-4 -0.0272,0 -0.0525,-0.01658 -0.0631,-0.04233 -0.0123,-0.02741 -0.005,-0.05908 0.0179,-0.07841 0.0124,-0.01161 0.026,-0.02025 0.0403,-0.02889 -0.0144,-0.01566 -0.0215,-0.03736 -0.0173,-0.05816 0.006,-0.03313 0.0215,-0.06258 0.0361,-0.09129 0.01,-0.01933 0.0223,-0.04381 0.023,-0.05614 0.004,-0.0302 -0.002,-0.06829 -0.009,-0.109146 -0.007,-0.04178 -0.0151,-0.08559 -0.0131,-0.129579 0.003,-0.07178 0.007,-0.140804 0.0116,-0.209088 0.007,-0.110066 0.0129,-0.214245 0.0151,-0.324312 0,-0.04031 0.003,-0.07841 0.004,-0.115034 0.006,-0.08559 0.0109,-0.166758 -0.009,-0.256025 -0.01,-0.04804 -0.0438,-0.10197 -0.0762,-0.154425 -0.0495,-0.07914 -0.10049,-0.161237 -0.0977,-0.255287 7e-4,-0.023 0.0123,-0.04454 0.0324,-0.05687 0.0109,-0.0072 0.0237,-0.0099 0.0359,-0.0099 0.0109,0 0.021,0.0021 0.0295,0.0065 0.0791,0.03663 0.1524,0.104176 0.22289,0.169701 0.0295,0.02723 0.0569,0.05245 0.0834,0.07473 0.0296,0.02448 0.0583,0.05246 0.0856,0.08043 0.0425,0.04105 0.0856,0.08412 0.12811,0.108596 0.0193,0.01161 0.0431,0.02226 0.0661,0.03238 0.0396,0.01729 0.0848,0.03736 0.11927,0.06828 0.0296,0.0057 0.0547,0.01933 0.0762,0.04105 0.0173,0.01785 0.023,0.04528 0.0145,0.07031 -0.009,0.02448 -0.0309,0.04178 -0.0554,0.04602 -0.006,7.06e-4 -0.0123,0.0014 -0.0188,0.0014 -0.0208,0 -0.0396,-0.0079 -0.0633,-0.02226 -0.004,0 -0.007,7.06e-4 -0.0107,0.0014 -0.0143,0.0021 -0.0316,0.0042 -0.051,0.0042 -0.007,0 -0.0138,0 -0.021,-7.06e-4 -0.0618,-0.0066 -0.14743,-0.02448 -0.21921,-0.05043 -0.004,0.06829 -0.007,0.139516 -0.009,0.213508 -0.007,0.164733 -0.0136,0.339404 -0.0403,0.506159 0.0396,-0.09405 0.18276,-0.201909 0.46235,-0.348605 l 0.018,-0.01012 c 0.0661,-0.03589 0.13013,-0.07325 0.1789,-0.10215 0.0841,-0.04951 0.16823,-0.100679 0.25032,-0.150192 l 0.0144,-0.0094 c -0.0237,-0.02522 -0.0467,-0.05245 -0.0698,-0.07915 -0.0331,-0.04013 -0.0683,-0.08264 -0.10418,-0.10988 -0.0583,-0.04454 -0.10362,-0.09774 -0.14816,-0.148904 -0.0252,-0.02946 -0.0482,-0.05669 -0.0734,-0.08191 -0.0272,-0.02741 -0.0517,-0.04748 -0.0762,-0.06258 -0.16951,-0.106384 -0.38449,-0.176879 -0.53487,-0.217925 -0.0287,-0.0085 -0.0646,-0.01563 -0.1027,-0.023 -0.0994,-0.02007 -0.21074,-0.04233 -0.28547,-0.09258 -0.0223,-0.0151 -0.0339,-0.04178 -0.0295,-0.06847 0.004,-0.02649 0.0236,-0.04804 0.0495,-0.05522 0.0287,-0.0079 0.0589,-0.01379 0.092,-0.01584 -0.004,-0.01362 -0.004,-0.02667 7.1e-4,-0.04031 0.008,-0.02226 0.0252,-0.03883 0.0482,-0.04527 0.0849,-0.02155 0.15314,-0.04749 0.24939,-0.08633 0.0438,-0.01785 0.0871,-0.03164 0.13013,-0.04528 0.13013,-0.04104 0.24314,-0.07693 0.30628,-0.204121 0.0762,-0.1524 0.15957,-0.428483 0.16178,-0.598187 7e-4,-0.04601 -0.0186,-0.09129 -0.0409,-0.143934 -0.0217,-0.05025 -0.0447,-0.101966 -0.0526,-0.163075 -0.004,-0.02522 -0.006,-0.04969 -0.008,-0.07418 -0.006,-0.06828 -0.0129,-0.132891 -0.0416,-0.184058 -0.0208,-0.03589 -0.0547,-0.06681 -0.0906,-0.09994 -0.0267,-0.02505 -0.0547,-0.05025 -0.0792,-0.0797 -0.0109,-0.01305 -0.0201,-0.02448 -0.0295,-0.03663 -0.0252,-0.03239 -0.0497,-0.06332 -0.0791,-0.08412 -0.0223,-0.01655 -0.0331,-0.04472 -0.0265,-0.07197 0.006,-0.02797 0.0287,-0.04749 0.0574,-0.05245 0.007,-7.06e-4 0.0151,-0.0014 0.023,-0.0014 0.14816,0 0.29338,0.206329 0.34952,0.294125 0.0394,0.0624 0.0861,0.12295 0.13216,0.181849 0.0554,0.07197 0.113,0.146696 0.16104,0.2286 0.002,0.005 0.005,0.0094 0.009,0.01436 l 0.005,0.0079 c 0.0453,0.07197 0.0992,0.1316 0.15516,0.194916 0.0309,0.03443 0.0626,0.06976 0.0935,0.108596 0.0675,0.08264 0.0985,0.187554 0.12865,0.288234 0.0144,0.04749 0.0281,0.09277 0.0447,0.133812 0.0136,0.03589 0.0295,0.07105 0.0453,0.107121 0.0502,0.115771 0.1027,0.235041 0.12147,0.366642 0.0245,0.169703 -7e-4,0.40327 -0.0302,0.552174 -0.0151,0.07473 -0.0361,0.14743 -0.0561,0.218476 -0.0381,0.133812 -0.074,0.259524 -0.0698,0.389653 0.003,0.10068 0.0445,0.196388 0.0898,0.297805 l 0.0173,0.04013 c 0.0215,0.0497 0.0445,0.105833 0.0611,0.166204 0.0129,-0.01584 0.0324,-0.02522 0.0525,-0.02522 0.006,0 0.0116,7.06e-4 0.0173,0.0028 0.0274,0.0065 0.0475,0.02872 0.051,0.05742 0.004,0.0302 0,0.0589 -0.004,0.08135 -7e-4,0.005 -0.002,0.01436 -0.003,0.023 h 0.009 c 0.0151,-7.06e-4 0.0302,-0.0014 0.0431,-0.0014 0.0173,0 0.0274,0.0014 0.0353,0.0021 0.0388,0.0079 0.072,0.02448 0.10215,0.03884 0.0186,0.0094 0.0374,0.01729 0.0539,0.023 0.0466,0.01453 0.12221,0.02963 0.19326,0.02963 0.0677,0 0.11798,-0.01453 0.13086,-0.03884 0.006,-0.01235 0.0166,-0.02226 0.0289,-0.02889 0.0136,-0.0072 0.0287,-0.01069 0.0438,-0.01069 0.0769,0 0.10933,0.08043 0.14669,0.173196 0.0245,0.06037 0.0416,0.09718 0.051,0.108596 0.009,0.0028 0.0158,0.0086 0.0223,0.0151 -0.009,-0.03884 -0.0129,-0.06607 -0.0129,-0.06681 -0.002,-0.02152 0.005,-0.04178 0.0193,-0.0554 0,0 0,-0.0014 0,-0.0042 0,-0.0497 -0.003,-0.107125 -0.0245,-0.149641 -0.004,-0.0086 -0.007,-0.01859 -0.007,-0.02946 -7.1e-4,-0.03736 -10e-4,-0.0727 -0.004,-0.104913 v -0.01013 c -0.009,-0.140991 -0.0136,-0.242958 -0.026,-0.328545 -7.1e-4,-0.0057 -7.1e-4,-0.01161 0,-0.01729 0.0109,-0.09571 -0.004,-0.175408 -0.0446,-0.23725 -0.0193,-0.0309 -0.0453,-0.05614 -0.0755,-0.07547 -0.008,-0.0052 -0.0151,-0.01161 -0.0201,-0.01951 -0.0124,-0.01711 -0.0252,-0.03589 -0.0396,-0.05467 l -0.005,-0.0072 -0.004,-0.0065 -0.004,-0.0042 c -0.0445,-0.06037 -0.10049,-0.135834 -0.12276,-0.213505 -0.0101,-0.03239 -0.009,-0.05982 -0.009,-0.08135 0,-0.02723 0,-0.03443 -0.0138,-0.05025 -0.0775,-0.08982 -0.11559,-0.19565 -0.15387,-0.297621 -0.0129,-0.03608 -0.0265,-0.07344 -0.0416,-0.109329 -0.0431,-0.100679 -0.0985,-0.184058 -0.15755,-0.271854 l -0.0302,-0.04601 c -0.004,-0.0028 -0.008,-0.0057 -0.0129,-0.0099 -0.004,-0.0028 -0.006,-0.0052 -0.0101,-0.0086 -0.009,-0.0072 -0.0151,-0.01729 -0.0186,-0.02741 0,-7.06e-4 -7.1e-4,-0.0021 -7.1e-4,-0.0042 -0.0195,-0.04325 -0.0438,-0.08338 -0.069,-0.12663 -0.0215,-0.03663 -0.0438,-0.07326 -0.0633,-0.113566 -7.1e-4,-7.06e-4 -0.001,-0.0021 -0.002,-0.0028 -0.004,-0.0079 -0.007,-0.01584 -0.008,-0.02448 -0.007,-0.05043 -0.0123,-0.105096 -0.0173,-0.157551 -0.009,-0.097 -0.018,-0.196941 -0.0433,-0.265229 -0.004,-0.0094 -0.005,-0.01951 -0.004,-0.02946 7.1e-4,-0.01012 0.001,-0.01951 0.001,-0.02815 -0.0136,-0.08687 -0.0388,-0.245904 -0.0445,-0.303329 -0.009,-0.07841 0.0107,-0.157554 0.0495,-0.2078 0.0871,-0.110804 0.17393,-0.231546 0.20062,-0.371063 0.0121,-0.06755 0.0129,-0.135099 0.0144,-0.199887 10e-4,-0.0854 0.003,-0.174671 0.0287,-0.269459 0.0131,-0.04602 0.0309,-0.103625 0.0519,-0.16547 0.0265,-0.07693 0.16528,-0.46953 0.28676,-0.606838 0.041,-0.04602 0.11153,-0.06755 0.21718,-0.06755 0.0883,0 0.1848,0.01584 0.24866,0.02797 0.0123,0.0028 0.0237,0.0079 0.0331,0.01658 0,0 10e-4,0.0014 0.002,0.0021 0.041,0.03387 0.0826,0.0497 0.13583,0.0497 0.0374,0 0.0799,-0.0086 0.13454,-0.02596 0.008,-0.005 0.0164,-0.0079 0.0265,-0.0094 0.0755,-0.01214 0.15534,-0.03736 0.25032,-0.08043 0.0913,-0.04105 0.1789,-0.06037 0.26816,-0.06037 0.0733,0 0.14651,0.01214 0.2321,0.03865 0.0267,0.0079 0.0453,0.03094 0.049,0.06056 0.026,0.0079 0.0517,0.0114 0.0755,0.0114 0.0351,0 0.0641,-0.0079 0.0856,-0.02448 0.0109,-0.0072 0.0223,-0.01214 0.0351,-0.01362 0.0195,-0.0014 0.0388,-0.0035 0.0591,-0.0057 0.0453,-0.0052 0.092,-0.0094 0.14007,-0.0094 0.072,0 0.1316,0.01087 0.187,0.03514 0.18553,0.08135 0.24811,0.14467 0.28897,0.295599 10e-4,0.005 0.002,0.01012 0.002,0.01436 l 7e-4,0.005 c 0.0114,0.212955 0.0238,0.455175 0.17191,0.542234 0.006,0.0035 0.0121,0.0086 0.0179,0.01436 l 0.001,0.0028 0.005,0.0059 c 0.005,0.005 0.009,0.01143 0.0116,0.01785 0.007,0.01729 0.0166,0.03534 0.0294,0.05614 0.0173,0.02946 0.0114,0.06607 -0.0144,0.08706 0,0 7.1e-4,7.06e-4 0.001,0.0028 0.0762,0.127367 0.14227,0.216451 0.21276,0.289155 0.007,0.0072 0.0121,0.01711 0.0158,0.02723 0.0561,0.177613 0.0777,0.35155 0.0633,0.50395 -0.0145,0.1524 -0.1143,0.383942 -0.21075,0.592483 0,0.0028 0,0.0057 -7e-4,0.0086 0,7.05e-4 -7.1e-4,0.005 -10e-4,0.0057 -0.002,0.01087 -0.007,0.02025 -0.0136,0.02872 -0.0252,0.04675 -0.15535,0.347316 -0.17762,0.401983 -0.008,0.02007 -0.0136,0.04252 -0.0193,0.06405 -0.0129,0.05098 -0.0281,0.109146 -0.0747,0.159575 -0.0331,0.03589 -0.0727,0.05614 -0.10785,0.07473 -0.0217,0.01161 -0.0425,0.02152 -0.0584,0.03534 -0.0475,0.0381 -0.0841,0.11062 -0.11062,0.163075 -0.0648,0.129395 -0.10933,0.274616 -0.15313,0.414867 l -0.0144,0.04675 c -0.0109,0.03461 -0.021,0.06976 -0.0316,0.112088 -0.004,0.01309 -0.0109,0.02448 -0.023,0.03608 -0.0238,0.03957 -0.0309,0.08632 -0.021,0.137305 10e-4,0.0086 10e-4,0.01732 7e-4,0.02522 -0.009,0.04877 -0.0171,0.09773 -0.0258,0.151663 -0.009,0.06037 -0.0203,0.124975 -0.0339,0.199153 -7e-4,0.0072 -0.004,0.01436 -0.007,0.02078 l -0.004,0.0065 c -0.0431,0.07694 -0.0834,0.149641 -0.0926,0.232283 -0.004,0.0309 -0.003,0.06258 -0.003,0.09424 0,0.06037 7e-4,0.128655 -0.026,0.200622 -0.0316,0.08412 -0.0668,0.173199 -0.11706,0.247928 -0.0482,0.07418 -0.12516,0.11798 -0.20651,0.11798 -0.0538,0 -0.10565,-0.02025 -0.15019,-0.05835 m 4.11181,-1.518479 c -0.0143,-0.06755 -0.0453,-0.127184 -0.0324,-0.205592 0.0123,-0.07694 -0.0366,-0.150929 -0.0826,-0.218475 v 0.04528 c -0.005,7.06e-4 -0.0101,7.06e-4 -0.0158,0.0014 -0.002,-0.03681 -0.0116,-0.07418 -0.006,-0.110066 0.0201,-0.115038 0.0468,-0.230075 0.0675,-0.345109 0.005,-0.03238 0.004,-0.06902 -0.004,-0.100679 -0.0258,-0.106387 -0.0547,-0.212037 -0.0841,-0.317687 -0.025,-0.08706 -0.0495,-0.174854 -0.0797,-0.260258 -0.0173,-0.05117 -0.0445,-0.09939 -0.0697,-0.14743 -0.0109,-0.01951 -0.0287,-0.03461 -0.0425,-0.05245 -0.006,-0.0086 -0.009,-0.01803 -0.0129,-0.02741 -0.0193,-0.05467 0.0245,-0.110067 -0.006,-0.165283 -0.0101,-0.01803 -0.0158,-0.04031 -0.018,-0.06185 -0.009,-0.06037 -0.0136,-0.120925 -0.0208,-0.181296 -7e-4,-0.01069 -0.004,-0.02226 -0.009,-0.0302 -0.0331,-0.04601 -0.0683,-0.09129 -0.10068,-0.138042 -0.006,-0.0086 -0.003,-0.023 -0.004,-0.03884 -0.0755,-0.06828 -0.11006,-0.174671 -0.18976,-0.251608 -0.0712,-0.06902 -0.11651,-0.165283 -0.17411,-0.248659 -0.0374,-0.05614 -0.0769,-0.110067 -0.11357,-0.166204 -0.0316,-0.04878 -0.0841,-0.08117 -0.0891,-0.1524 -0.003,-0.0381 -0.044,-0.07915 -0.0762,-0.108596 -0.0655,-0.06111 -0.13657,-0.115771 -0.20504,-0.173199 -10e-4,0.01086 -0.003,0.02226 -0.004,0.03369 -0.004,0.0021 -0.008,0.0037 -0.0121,0.0051 -0.0274,-0.03957 -0.0539,-0.07988 -0.0813,-0.120004 -0.0186,-0.02522 -0.0374,-0.05043 -0.0561,-0.07639 -0.0136,-0.01859 -0.028,-0.03736 -0.0409,-0.05669 -0.0223,-0.03238 -0.0425,-0.06552 -0.0648,-0.09847 -0.008,-0.01087 -0.0179,-0.01951 -0.0272,-0.0302 -0.0324,-0.04399 -0.0633,-0.08779 -0.0977,-0.129575 -0.009,-0.0099 -0.0317,-0.01143 -0.0482,-0.01288 -0.0245,-0.0035 -0.0497,0 -0.0727,-0.0065 -0.0963,-0.02797 -0.1927,-0.05614 -0.28676,-0.08982 -0.0381,-0.01362 -0.0749,-0.0381 -0.10436,-0.06626 -0.0898,-0.08614 -0.20117,-0.144484 -0.28602,-0.240012 -0.044,-0.05043 -0.11577,-0.07767 -0.17835,-0.110067 -0.069,-0.03662 -0.14099,-0.06755 -0.21204,-0.0992 -0.0388,-0.01732 -0.0777,-0.04031 -0.11871,-0.04602 -0.0804,-0.01214 -0.16326,-0.01214 -0.24369,-0.02007 -0.0935,-0.0086 -0.18976,-0.0014 -0.27682,-0.04896 -0.0928,-0.05098 -0.19418,-0.04104 -0.29339,-0.04307 -0.007,0 -0.0166,0.0014 -0.0208,0.0057 -0.0453,0.04233 -0.0965,0.02374 -0.14522,0.0151 -0.008,-0.0014 -0.0116,-0.02025 -0.0195,-0.03534 -0.023,-0.0028 -0.0524,-0.0099 -0.0819,-0.01069 -0.0618,-7.06e-4 -0.12443,0.0021 -0.187,0.0028 -0.0646,0.0014 -0.1294,0.0057 -0.194,0.0014 -0.0604,-0.005 -0.11945,-0.02078 -0.17983,-0.03221 -10e-4,0 -10e-4,-0.0037 -0.002,-0.0037 -0.025,-0.0021 -0.0517,-0.01214 -0.0733,-0.0042 -0.0561,0.01859 -0.11208,0.04086 -0.16325,0.07031 -0.0265,0.01584 -0.069,0.02374 -0.0683,0.0705 0,0.0065 -0.0107,0.01584 -0.0186,0.02025 -0.0309,0.01711 -0.0626,0.03295 -0.0942,0.04951 0,-0.005 0,-0.0094 7.1e-4,-0.01436 -0.009,-0.0021 -0.0195,-0.0079 -0.0274,-0.0057 -0.046,0.0092 -0.0906,0.02226 -0.13657,0.0302 -0.0179,0.0035 -0.0388,-0.0072 -0.0574,-0.0052 -0.0712,0.01235 -0.14246,0.02741 -0.21295,0.04178 -0.0869,0.01655 -0.17541,0.03313 -0.26228,0.05025 -0.0116,0.0028 -0.0245,0.01087 -0.0361,0.01012 -0.0797,-0.01214 -0.14798,0.03164 -0.22215,0.04675 -0.0129,0.0028 -0.0237,0.01933 -0.0351,0.0302 0.003,0.0021 0.005,0.0044 0.007,0.0057 0.0223,-0.0072 0.0453,-0.01436 0.0675,-0.02152 0.002,0.0044 0.004,0.0094 0.005,0.01288 -0.0473,0.03238 -0.094,0.06405 -0.14154,0.09645 -0.002,-0.0072 -0.004,-0.01362 -0.006,-0.02007 -0.0166,0.0014 -0.0361,-0.0021 -0.0497,0.005 -0.0401,0.023 -0.079,0.05025 -0.11779,0.07547 -0.0641,0.04252 -0.12442,0.08982 -0.19197,0.125158 -0.0475,0.02575 -0.10786,0.02872 -0.15682,0.05319 -0.11651,0.05816 -0.23154,0.118534 -0.30701,0.231546 -0.028,0.04086 -0.0596,0.07896 -0.0955,0.127183 -0.009,-0.01729 -0.0138,-0.02596 -0.0158,-0.03238 -0.0878,0.07417 -0.11945,0.176142 -0.17412,0.264675 -0.0495,0.08043 -0.10068,0.162522 -0.16601,0.229334 -0.0799,0.08043 -0.17688,0.14375 -0.26321,0.218479 -0.0856,0.07344 -0.10123,0.181296 -0.12718,0.283263 -0.0109,0.04105 -0.0201,0.08209 -0.0302,0.123687 -0.005,-0.0014 -0.009,-0.0021 -0.0143,-0.0028 7e-4,-0.01235 0.003,-0.02448 0.004,-0.03755 -0.0208,0.02025 -0.0287,0.04546 -0.0416,0.067 -0.0281,0.04528 -0.0598,0.08982 -0.0907,0.133629 -0.007,0.01161 -0.0193,0.02025 -0.0272,0.03164 -0.0482,0.07123 -0.0957,0.143196 -0.14228,0.21498 -0.008,0.01235 -0.0116,0.02872 -0.0151,0.0438 -0.0195,0.08062 -0.0353,0.162525 -0.0569,0.242404 -0.0201,0.07325 -0.046,0.145221 -0.0698,0.217742 -0.004,-7.06e-4 -0.008,-0.0021 -0.0121,-0.0028 -0.002,-0.0072 -0.004,-0.01436 -0.006,-0.01877 -0.009,0.04528 -0.0208,0.09202 -0.0258,0.139513 -0.006,0.06111 -0.003,0.122953 -0.009,0.183324 -0.006,0.06258 0.007,0.12663 -0.0274,0.187001 -0.0186,0.03295 -0.0351,0.0705 -0.0409,0.107858 -0.0282,0.163812 -0.0482,0.327071 -0.13307,0.475237 -0.0618,0.107121 -0.0668,0.227863 -0.0453,0.345109 0.0344,0.192708 0.0683,0.38597 0.14449,0.568004 0.004,0.01069 0.0166,0.01785 0.023,0.02797 0.0252,0.0381 0.0504,0.07767 0.0747,0.116508 l -0.008,0.0065 c -0.009,-0.0042 -0.018,-0.0086 -0.0267,-0.01288 0.0418,0.05595 0.049,0.125712 0.0294,0.177616 -0.0215,0.05816 -0.0201,0.103442 0.006,0.153138 0.002,-0.0044 0.005,-0.0086 0.0138,-0.02448 0.004,0.04527 0.007,0.07896 0.01,0.112091 0.004,0.03589 0.004,0.0727 0.0101,0.107855 0.0351,0.199888 0.1143,0.384683 0.18405,0.573712 0.0698,0.189209 0.19694,0.345842 0.29762,0.51628 0.0532,0.08982 0.1259,0.172462 0.21498,0.23725 0.0992,0.07326 0.20062,0.14375 0.27038,0.253816 0.0489,0.07841 0.12515,0.139517 0.19344,0.203384 0.10859,0.102154 0.21847,0.202833 0.33204,0.299095 0.17614,0.149638 0.34805,0.307746 0.58824,0.351734 0.0158,0.0028 0.0329,7.06e-4 0.0488,0.0028 0.0569,0.01012 0.1165,0.01235 0.16822,0.03461 0.0532,0.02152 0.0972,0.06313 0.1467,0.09552 0.008,0.0057 0.0195,0.0052 0.0294,0.0065 0.0158,0.0021 0.0361,0 0.0475,0.0079 0.095,0.06829 0.19418,0.125896 0.30848,0.156083 0.0812,0.02226 0.16031,0.05319 0.23945,0.08117 0.0265,0.01012 0.051,0.03313 0.0769,0.03387 0.0977,0.0021 0.18479,0.04601 0.27811,0.06534 0.13804,0.02889 0.27479,0.06626 0.40916,-0.0151 0.0144,-0.0079 0.0381,-0.0028 0.0576,-0.0014 0.0193,0.0014 0.0388,0.01362 0.0567,0.01143 0.18184,-0.02226 0.36166,-0.04675 0.54222,-0.06976 0.0913,-0.01143 0.18259,-0.02152 0.27314,-0.03295 0.0725,-0.0094 0.14449,-0.01729 0.21572,-0.03038 0.0905,-0.01563 0.1789,-0.03663 0.26817,-0.05522 0.005,-7.06e-4 0.0101,7.05e-4 0.0136,0 0.0425,-0.0072 0.0898,-0.0037 0.12589,-0.023 0.10638,-0.05614 0.20983,-0.120191 0.31418,-0.181296 0.0317,-0.01859 0.0589,-0.05522 0.10271,-0.02226 0.005,0.0028 0.018,-0.0042 0.026,-0.0086 0.1086,-0.05522 0.22566,-0.08264 0.34437,-0.101233 0.0841,-0.01305 0.12001,-0.07841 0.16823,-0.133075 0.004,-0.005 0.002,-0.01655 0.003,-0.03238 -0.0166,0.01436 -0.0289,0.02522 -0.0403,0.03534 -0.004,-0.0014 -0.007,-0.0044 -0.0116,-0.0066 0.0131,-0.02081 0.0217,-0.0473 0.0388,-0.0624 0.0749,-0.06258 0.1467,-0.125896 0.22013,-0.188475 0.10841,-0.09203 0.19124,-0.212771 0.3221,-0.281058 0.0495,-0.02596 0.0876,-0.07491 0.1316,-0.112275 0.008,-0.0072 0.0208,-0.01143 0.0315,-0.01584 0.0999,-0.03736 0.19492,-0.08043 0.2424,-0.186817 0.0409,-0.09203 0.0819,-0.183324 0.12939,-0.271854 0.0223,-0.04233 0.0569,-0.08191 0.092,-0.115775 0.14301,-0.135096 0.29468,-0.261729 0.38615,-0.443579 0.0315,-0.06258 0.074,-0.119267 0.11062,-0.179638 0.0116,-0.01803 0.0215,-0.03884 0.0287,-0.05908 0.0324,-0.08614 0.067,-0.172463 0.0942,-0.260258 0.0237,-0.08264 0.041,-0.166758 0.0582,-0.250137 0.0138,-0.06258 0.0195,-0.12663 0.0353,-0.188475 0.0223,-0.08264 0.0641,-0.163076 0.072,-0.246451 0.008,-0.08559 0.0265,-0.167679 0.0453,-0.250321 0.009,-0.03369 0.0265,-0.07049 0.0208,-0.101416"
       style="fill:#21201d;fill-opacity:1;fill-rule:nonzero;stroke:none;stroke-width:0.184057"
       id="path668" />
    <path
       d="m 338.81007,43.632684 c -0.0193,0 -0.0381,-0.0079 -0.051,-0.02226 l -0.0215,-0.02374 c -0.0532,-0.05816 -0.0999,-0.10933 -0.16252,-0.158842 -0.0144,-0.01161 -0.0495,-0.02815 -0.0826,-0.04399 -0.0777,-0.0381 -0.15829,-0.07749 -0.1927,-0.135097 -0.10142,-0.03094 -0.18903,-0.07123 -0.28971,-0.117245 l -0.007,-0.0035 c -0.0173,-0.0079 -0.0381,-0.01658 -0.0618,-0.02596 -0.0237,-0.0099 -0.049,-0.02007 -0.0734,-0.0309 -0.003,0.0727 -0.0158,0.148167 -0.0295,0.195654 -0.0136,0.04675 -0.0381,0.08411 -0.0589,0.117059 -0.018,0.02667 -0.0331,0.05117 -0.0418,0.07768 -0.008,0.02374 -0.009,0.05319 -0.01,0.08411 -7.1e-4,0.01951 -0.001,0.04105 -0.004,0.06258 -0.002,0.0151 -0.003,0.0302 -0.005,0.04325 -10e-4,0.01785 -0.004,0.03736 -0.006,0.05522 0.094,0.04896 0.18405,0.134545 0.26449,0.211483 0.0223,0.02152 0.0453,0.04307 0.0661,0.06258 0.0519,0.04675 0.0849,0.06185 0.13234,0.06185 0.0324,0 0.072,-0.0066 0.13307,-0.01951 0.046,-0.0094 0.10786,-0.02872 0.1732,-0.04896 0.14522,-0.04528 0.30995,-0.09626 0.46087,-0.09626 0.0324,0 0.0633,0.0028 0.0928,0.0079 -0.0633,-0.108595 -0.10271,-0.232283 -0.12866,-0.363149 -0.001,0.03957 -0.0208,0.07417 -0.0576,0.09866 -0.0114,0.0079 -0.0243,0.01139 -0.0381,0.01139"
       style="fill:#21201d;fill-opacity:1;fill-rule:nonzero;stroke:none;stroke-width:0.184057"
       id="path670" />
    <path
       d="m 332.62836,43.885767 c 0.0296,-0.005 0.0606,-0.0086 0.0928,-0.0086 0.15111,0 0.31566,0.05172 0.46088,0.097 0.0655,0.02025 0.12737,0.03957 0.17338,0.04896 0.0604,0.01235 0.10068,0.01951 0.13289,0.01951 0.0475,0 0.0806,-0.01584 0.13233,-0.06258 0.0208,-0.01877 0.0431,-0.04031 0.0668,-0.06258 0.0799,-0.0762 0.1697,-0.161784 0.26393,-0.210746 -0.003,-0.01859 -0.005,-0.03736 -0.007,-0.05522 -10e-4,-0.01379 -0.003,-0.02815 -0.005,-0.04325 -0.002,-0.02152 -0.003,-0.04233 -0.004,-0.06332 -7e-4,-0.0309 -10e-4,-0.05963 -0.009,-0.08337 -0.004,-0.01143 -0.009,-0.02374 -0.0166,-0.03737 -0.008,-0.01362 -0.0164,-0.02649 -0.0251,-0.04086 -0.021,-0.03313 -0.0453,-0.06976 -0.0591,-0.116509 -0.0136,-0.04749 -0.0265,-0.123687 -0.0295,-0.196391 -0.0245,0.01087 -0.0502,0.02173 -0.0732,0.0309 -0.023,0.01013 -0.0445,0.01877 -0.0626,0.02671 -0.0539,0.02522 -0.10491,0.04822 -0.15682,0.06975 -0.051,0.02081 -0.0955,0.03737 -0.13933,0.05099 -0.0346,0.05761 -0.11503,0.097 -0.1927,0.134546 -0.0339,0.01637 -0.0683,0.03369 -0.0826,0.04454 -0.0626,0.04951 -0.10933,0.09994 -0.16253,0.158842 l -0.0223,0.02374 c -0.0123,0.01362 -0.0309,0.023 -0.0504,0.023 -0.0136,0 -0.0272,-0.005 -0.0381,-0.01288 -0.0366,-0.02448 -0.0561,-0.05908 -0.0589,-0.09865 -0.0245,0.130863 -0.0641,0.255288 -0.12737,0.363883"
       style="fill:#21201d;fill-opacity:1;fill-rule:nonzero;stroke:none;stroke-width:0.184057"
       id="path672" />
    <path
       d="m 338.87835,41.897755 c -0.17669,-0.06111 -0.27461,-0.1143 -0.41836,-0.229334 -0.0143,-0.01143 -0.028,-0.02226 -0.041,-0.03239 -0.0668,-0.05025 -0.1235,-0.09405 -0.16749,-0.201912 -0.0114,-0.02889 -0.0258,-0.05908 -0.0388,-0.08927 -0.0166,-0.03663 -0.0337,-0.07399 -0.048,-0.112092 l -0.005,-0.01161 c -0.0201,-0.05172 -0.046,-0.117063 -0.0567,-0.184059 -0.0569,0.05614 -0.10215,0.157555 -0.1373,0.235963 -0.007,0.01584 -0.0131,0.0302 -0.0202,0.04454 l -0.006,0.01362 c -0.14025,0.300567 -0.13307,0.392596 -0.12294,0.417812 7e-4,0.0021 0.001,0.0035 0.001,0.0035 0.023,0.0094 0.0388,0.02946 0.0423,0.05393 0.0123,0.09129 7.1e-4,0.174671 -0.0114,0.256025 -0.008,0.05393 -0.0158,0.109883 -0.0158,0.163812 7e-4,0.09074 0.0193,0.189209 0.0403,0.286946 0.0366,-0.04749 0.0762,-0.0935 0.11061,-0.132337 l 0.0208,-0.02448 c 0.13601,-0.158108 0.34658,-0.253083 0.50118,-0.322104 0.12663,-0.05743 0.27829,-0.08688 0.41266,-0.112825 l 0.0151,-0.0021 c -0.006,-0.0028 -0.0107,-0.005 -0.0158,-0.0072 -0.0151,-0.0057 -0.028,-0.01139 -0.0388,-0.01436"
       style="fill:#21201d;fill-opacity:1;fill-rule:nonzero;stroke:none;stroke-width:0.184057"
       id="path674" />
    <path
       d="m 336.53458,42.360109 c 0.0144,-0.04601 0.0252,-0.08559 0.0351,-0.120742 0.0383,-0.138042 0.0605,-0.221421 0.19988,-0.376029 0.0611,-0.067 0.13234,-0.186267 0.2078,-0.312163 0.12737,-0.212037 0.23872,-0.397566 0.3567,-0.454991 -0.0123,-0.02667 -0.023,-0.05246 -0.0339,-0.07841 -0.0316,-0.0762 -0.0589,-0.141725 -0.10786,-0.197679 -0.092,-0.10565 -0.20853,-0.164733 -0.32063,-0.220133 -0.0755,-0.03865 -0.15387,-0.07749 -0.22565,-0.131417 l -0.006,-0.0044 c 0.008,0.345843 -0.0272,0.741938 -0.0992,1.097905 -0.0676,0.339404 -0.19842,0.789425 -0.43419,1.013054 -7.1e-4,7.06e-4 -0.002,0.0021 -0.003,0.0028 -0.0121,0.0099 -0.0287,0.01566 -0.0453,0.01566 -0.0193,0 -0.0381,-0.0077 -0.051,-0.02226 -0.0195,-0.02152 -0.023,-0.05393 -0.009,-0.07823 0.002,-0.0079 0.008,-0.02448 0.0129,-0.04031 0.0309,-0.097 0.049,-0.148167 0.0697,-0.177616 0.0158,-0.05025 0.0324,-0.09921 0.0482,-0.148904 0.0863,-0.264492 0.16749,-0.514075 0.19547,-0.819609 0.0158,-0.171725 -0.0208,-0.376767 -0.056,-0.574446 -0.0361,-0.201358 -0.0698,-0.391121 -0.0547,-0.555671 -0.0136,-0.0072 -0.0267,-0.01305 -0.0396,-0.01951 -0.0223,-0.0099 -0.046,-0.02226 -0.072,-0.03589 -0.0107,-0.0057 -0.0193,-0.01436 -0.0258,-0.02522 -0.009,-0.01658 -0.0203,-0.03238 -0.0302,-0.04822 -0.0166,-0.02501 -0.0381,-0.05595 -0.0683,-0.08264 -0.0116,0.0094 -0.0267,0.01436 -0.0418,0.01436 -0.0201,0 -0.0396,-0.0092 -0.0525,-0.02431 -0.0116,-0.01379 -0.023,-0.02815 -0.0339,-0.04252 -0.0166,-0.02081 -0.0473,-0.06037 -0.0574,-0.0646 0,0 -0.006,0.0014 -0.0173,0.01288 -0.0193,0.01785 -0.0381,0.05669 -0.0539,0.09129 -0.004,0.0086 -0.009,0.01584 -0.0151,0.02226 -0.0223,0.02081 -0.046,0.04105 -0.069,0.06185 -0.0646,0.05687 -0.12644,0.1108 -0.16528,0.179821 -0.003,0.0057 -0.007,0.0099 -0.0101,0.0151 -0.004,0.0035 -0.009,0.0072 -0.0144,0.0099 -0.0517,0.03238 -0.10491,0.06258 -0.15682,0.09203 -0.0223,0.01362 -0.0445,0.02596 -0.0668,0.03884 -0.0648,0.305534 0.0101,0.831942 0.0668,1.049683 0.0346,0.136017 0.0698,0.257496 0.10639,0.37253 0.09,0.279587 0.18921,0.500454 0.31289,0.694454 0.0186,0.0302 0.0114,0.07123 -0.018,0.09276 -0.0116,0.0086 -0.026,0.01214 -0.0403,0.01214 -0.0208,0 -0.0403,-0.0085 -0.0539,-0.02431 -0.15737,-0.192709 -0.284,-0.374559 -0.38818,-0.557329 -0.1546,-0.270934 -0.25804,-0.540579 -0.31491,-0.823105 -0.007,-0.03681 -0.0188,-0.08135 -0.0295,-0.129395 -0.0282,-0.115034 -0.0611,-0.254551 -0.0734,-0.378238 -0.0769,0.06111 -0.16234,0.125712 -0.25234,0.17835 -0.0611,0.03589 -0.12369,0.04602 -0.18038,0.05172 0.14228,0.176879 0.26247,0.476712 0.36885,0.743412 0.0438,0.10933 0.0849,0.211296 0.12222,0.293388 0.11429,0.246637 0.15019,0.317683 0.31124,0.488121 l 0.008,0.0079 c 0.15314,0.162521 0.23946,0.355967 0.27829,0.6269 0.0114,0.07767 0.0101,0.179825 0.009,0.287683 -0.002,0.133626 -0.005,0.350813 0.0388,0.414867 10e-4,-7.05e-4 0.003,-0.0014 0.004,-0.0028 -0.004,-0.345109 0.0331,-0.568741 0.0799,-0.851267 0.009,-0.05743 0.0186,-0.117246 0.0294,-0.180379 0.005,-0.03461 0.0337,-0.05908 0.0675,-0.05908 0.003,0 0.006,0 0.009,7.06e-4 0.0374,0.005 0.064,0.0381 0.0604,0.07546 -0.0166,0.159579 0.004,0.501929 0.0346,0.767892 0.0309,-0.01933 0.0668,-0.03589 0.10344,-0.03589 0.0116,0 0.023,7.06e-4 0.0339,0.0028 0.0359,-0.238725 0.0762,-0.50837 0.0488,-0.733471 -0.005,-0.03589 0.0202,-0.06976 0.0561,-0.0762 0.004,-0.0014 0.008,-0.0014 0.0121,-0.0014 0.0324,0 0.0591,0.02155 0.067,0.0532 0.0769,0.312896 0.10915,0.540759 0.11854,0.857708 0.046,-0.09773 0.0589,-0.235042 0.0712,-0.367379 0.0107,-0.115775 0.0215,-0.235042 0.0547,-0.338483 0.028,-0.08853 0.0604,-0.172646 0.092,-0.254551 0.033,-0.08632 0.0675,-0.176145 0.097,-0.270383"
       style="fill:#21201d;fill-opacity:1;fill-rule:nonzero;stroke:none;stroke-width:0.184057"
       id="path676" />
    <path
       d="m 336.63379,39.410213 0.004,0.0065 c 0.0366,0.06037 0.0898,0.104175 0.12718,0.104175 0.006,0 0.0116,-7.06e-4 0.0173,-0.0035 0.071,-0.03461 0.13289,-0.162521 0.10712,-0.276087 -0.002,-0.0094 -0.006,-0.02099 -0.0144,-0.03607 -0.0151,-0.03164 -0.0388,-0.0646 -0.0648,-0.08982 -0.0186,-0.01087 -0.0381,-0.01933 -0.0589,-0.02448 -0.004,-0.0014 -0.009,-0.0028 -0.0136,-0.005 -0.002,-0.0014 -0.004,-0.0021 -0.007,-0.0028 -0.006,0.0059 -0.0114,0.01087 -0.0171,0.01655 -0.0987,0.09571 -0.16399,0.158842 -0.0828,0.307008 l 0.002,0.0037"
       style="fill:#21201d;fill-opacity:1;fill-rule:nonzero;stroke:none;stroke-width:0.184057"
       id="path678" />
    <path
       d="m 335.46761,39.690534 c 0.0216,-0.02872 0.0453,-0.06608 0.0697,-0.106388 0.0208,-0.03387 0.0425,-0.06828 0.0655,-0.10215 0.006,-0.0079 0.0136,-0.0151 0.0223,-0.02007 0.048,-0.02741 0.0935,-0.04454 0.13878,-0.05319 0.0208,-0.0037 0.0431,-0.0057 0.0661,-0.0057 0.0517,0 0.10216,0.0092 0.14523,0.01859 0.0158,0.0037 0.0294,0.01231 0.0396,0.02448 0.0351,0.04307 0.0683,0.09203 0.0999,0.139517 0.0468,0.06976 0.0955,0.141538 0.14743,0.189763 0.003,0.0014 0.004,0.0028 0.006,0.0057 0.12075,0.105649 0.24001,0.182033 0.36591,0.262466 0.0331,0.02155 0.0668,0.04252 0.0999,0.06479 0.25952,0.169517 0.52548,0.372347 0.70181,0.82108 0.028,-0.06553 0.048,-0.137492 0.0394,-0.217925 -0.0416,-0.381734 -0.0876,-0.432904 -0.28178,-0.647146 -0.11651,-0.129392 -0.18112,-0.260258 -0.22363,-0.366642 -0.001,0 -0.002,7.06e-4 -0.003,0.0014 -0.0633,0.04031 -0.13601,0.06258 -0.20503,0.06258 -0.10988,0 -0.20044,-0.05467 -0.2551,-0.153137 l -0.0131,-0.02226 c -0.009,-0.0151 -0.0186,-0.03313 -0.0302,-0.05246 -0.0977,-0.179087 -0.12939,-0.29707 -0.10196,-0.383391 0.0136,-0.04455 0.0539,-0.08467 0.0977,-0.118534 -0.13657,-0.03737 -0.25234,-0.05393 -0.36958,-0.05393 -0.12719,0 -0.26523,0.02007 -0.44652,0.06608 -0.0344,0.0086 -0.0725,0.01305 -0.11578,0.01305 -0.0661,0 -0.13362,-0.01013 -0.20485,-0.02025 l -0.0445,-0.0057 c -0.0144,-0.0021 -0.0295,-0.0042 -0.0453,-0.0065 0.002,0.005 0.004,0.01013 0.006,0.01436 0.0626,0.156083 0.051,0.321366 -0.0331,0.491804 -0.0646,0.129392 -0.18258,0.2113 -0.30977,0.2113 -0.0727,0 -0.14025,-0.02723 -0.1927,-0.07694 -0.028,0.190684 -0.0589,0.381921 -0.14375,0.491067 -0.0863,0.113012 -0.20136,0.276087 -0.25308,0.450942 0.16749,-0.08853 0.40824,-0.28345 0.57371,-0.418546 0.11061,-0.08835 0.18976,-0.153138 0.23356,-0.177617 0.12663,-0.07105 0.2459,-0.178904 0.35376,-0.320629"
       style="fill:#21201d;fill-opacity:1;fill-rule:nonzero;stroke:none;stroke-width:0.184057"
       id="path680" />
    <path
       d="m 334.96513,39.48715 c 0.023,0 0.0381,-0.0072 0.0532,-0.02448 0.023,-0.02741 0.0517,-0.130866 0.0503,-0.200624 -10e-4,-0.05025 -0.0158,-0.07197 -0.0359,-0.102888 -0.0129,-0.02007 -0.0274,-0.04233 -0.0388,-0.07178 -0.004,-0.0028 -0.008,-0.0059 -0.0109,-0.0094 -0.0171,-0.0021 -0.0351,-0.0057 -0.0545,-0.01214 -0.0346,0.02226 -0.0648,0.05319 -0.0915,0.09553 -0.006,0.0151 -0.008,0.02946 -0.0114,0.0438 -10e-4,0.0079 -0.002,0.01658 -0.004,0.02596 -0.0158,0.103438 -0.0151,0.169701 -0.008,0.200622 0.0438,0.02374 0.10344,0.0554 0.15167,0.0554"
       style="fill:#21201d;fill-opacity:1;fill-rule:nonzero;stroke:none;stroke-width:0.184057"
       id="path682" />
  </g>
</svg>
