<?xml version="1.0" encoding="UTF-8" standalone="no"?>
<!-- Created with Inkscape (http://www.inkscape.org/) -->

<svg
   width="8.6411505mm"
   height="8.6881161mm"
   viewBox="0 0 8.6411505 8.6881161"
   version="1.1"
   id="svg2552"
   inkscape:version="1.1.2 (0a00cf5339, 2022-02-04)"
   sodipodi:docname="rm4.svg"
   xmlns:inkscape="http://www.inkscape.org/namespaces/inkscape"
   xmlns:sodipodi="http://sodipodi.sourceforge.net/DTD/sodipodi-0.dtd"
   xmlns="http://www.w3.org/2000/svg"
   xmlns:svg="http://www.w3.org/2000/svg">
  <sodipodi:namedview
     id="namedview2554"
     pagecolor="#ffffff"
     bordercolor="#666666"
     borderopacity="1.0"
     inkscape:pageshadow="2"
     inkscape:pageopacity="0.0"
     inkscape:pagecheckerboard="0"
     inkscape:document-units="mm"
     showgrid="false"
     inkscape:zoom="0.64052329"
     inkscape:cx="15.612235"
     inkscape:cy="16.392847"
     inkscape:window-width="2560"
     inkscape:window-height="1376"
     inkscape:window-x="0"
     inkscape:window-y="0"
     inkscape:window-maximized="1"
     inkscape:current-layer="layer1" />
  <defs
     id="defs2549" />
  <g
     inkscape:label="Layer 1"
     inkscape:groupmode="layer"
     id="layer1"
     transform="translate(-100.59951,-144.15512)">
    <path
       d="m 105.3652,149.3806 c 0.12939,0.006 0.25952,-0.0208 0.39388,-0.0144 -0.005,-0.0121 -0.009,-0.025 -0.0136,-0.0381 -0.0129,-0.0416 -0.0193,-0.0963 -0.0237,-0.15461 -0.0574,-7e-4 -0.11577,-10e-4 -0.17319,-10e-4 -0.27038,0 -0.53137,-0.0289 -0.80451,-0.0289 -0.0539,7.1e-4 -0.35817,0.0173 -0.6615,0.0217 -0.003,0.0208 -0.006,0.0423 -0.007,0.0631 -0.003,0.049 0.0144,0.0942 0.007,0.12811 0.14669,-0.004 0.29394,-0.0109 0.43566,-0.0109 0.1581,0 0.31915,0.008 0.47671,-10e-4 0.12571,-0.007 0.2516,0.0309 0.37032,0.0366"
       style="fill:#21201d;fill-opacity:1;fill-rule:evenodd;stroke:none;stroke-width:0.184057"
       id="path580" />
    <path
       d="m 104.41603,151.02277 c 0.008,-0.1502 -0.009,-0.29762 0.021,-0.44505 0.0171,-0.0869 0.008,-0.47009 0.0359,-0.61678 -0.0539,-0.006 -0.10786,-0.0109 -0.16105,-0.0151 -0.0324,0.10859 -0.0806,0.21645 -0.0985,0.32486 -0.0381,0.22878 -0.0742,0.43935 -0.0999,0.6766 -0.0188,0.16105 -0.13087,0.28547 -0.1813,0.43713 -0.0121,0.0381 -0.0322,0.22069 -0.0913,0.26026 0.0267,0.0158 0.0512,0.0324 0.0799,0.046 0.072,0.0346 0.14227,0.0453 0.22436,0.0604 0.0374,0.007 0.074,0.0144 0.10915,0.0223 -0.0322,-0.0769 0.0532,-0.2818 0.0727,-0.3407 0.0423,-0.13233 0.0826,-0.27111 0.0891,-0.40989"
       style="fill:#21201d;fill-opacity:1;fill-rule:nonzero;stroke:none;stroke-width:0.184057"
       id="path582" />
    <path
       d="m 105.4068,151.20185 c -0.018,-0.23504 -0.0856,-0.45591 -0.10068,-0.68874 -0.007,-0.10215 -0.0423,-0.187 -0.069,-0.28971 -0.0136,-0.0497 -0.008,-0.19344 -0.0344,-0.27038 -0.049,-0.009 -0.0979,-0.0188 -0.14669,-0.0203 0.006,0.0806 -0.0158,0.15111 -0.023,0.22878 -0.009,0.0941 0.0344,0.18333 0.0374,0.27959 0.004,0.12589 -0.0604,0.2575 -0.0675,0.40198 -0.0123,0.26744 0.074,0.53119 0.0733,0.80231 -7.1e-4,0.0898 0.0252,0.1905 0.0101,0.2783 -0.004,0.023 -0.0121,0.0431 -0.0208,0.0639 0.0876,-0.0144 0.17817,-0.0352 0.25161,-0.0552 0.0755,-0.0203 0.15166,-0.0425 0.22786,-0.0675 -0.0166,-0.0554 -0.0324,-0.1316 -0.0468,-0.18995 -0.0381,-0.14798 -0.079,-0.31768 -0.0913,-0.47303"
       style="fill:#21201d;fill-opacity:1;fill-rule:nonzero;stroke:none;stroke-width:0.184057"
       id="path584" />
    <path
       d="m 104.93304,151.78918 c 0.002,-0.0661 -0.0267,-0.12644 -0.0396,-0.19123 -0.0188,-0.097 -0.009,-0.20063 -0.0208,-0.2991 -0.005,-0.0495 0.006,-0.10068 7.1e-4,-0.14945 -0.002,-0.0223 -0.0195,-0.0619 -0.0188,-0.0806 10e-4,-0.0309 0.0295,-0.0626 0.0287,-0.0891 -0.002,-0.0784 -0.0394,-0.13731 -0.0178,-0.21995 0.0129,-0.0512 0.0453,-0.09 0.0495,-0.14523 0.0101,-0.14245 -0.0107,-0.30572 -0.0237,-0.44799 -0.006,-0.0733 -0.003,-0.14301 -0.028,-0.21351 -7e-4,-7.1e-4 -7e-4,-0.001 -10e-4,-0.003 -0.0755,0.0101 -0.1524,0.0215 -0.23154,0.0208 h -0.006 c 0.005,0.0641 -0.0186,0.14743 -0.026,0.17486 -0.0386,0.1559 0.0109,0.32486 0.009,0.48812 -7e-4,0.20283 -0.0826,0.37032 -0.12221,0.56156 -0.0295,0.14945 -0.0826,0.28327 -0.10933,0.43787 -0.005,0.0316 -0.0136,0.11927 -0.0401,0.15885 0.0856,0.0215 0.16896,0.0475 0.25455,0.0841 0.10564,0.0453 0.20044,0.12589 0.32136,0.12516 0.0129,0 0.0258,-7e-4 0.0388,-0.001 -0.002,-0.0151 -0.006,-0.0295 -0.009,-0.0453 -0.013,-0.0655 -0.0116,-0.0942 -0.009,-0.16547"
       style="fill:#21201d;fill-opacity:1;fill-rule:nonzero;stroke:none;stroke-width:0.184057"
       id="path586" />
    <path
       d="m 106.95195,151.45199 c -0.0123,-0.001 -0.0252,-0.004 -0.0374,-0.006 -0.27111,0.12515 -0.56009,0.2516 -0.85642,0.33443 -0.25657,0.0725 -0.49603,0.16878 -0.7491,0.24369 -0.0871,0.025 -0.13455,0.0539 -0.21203,0.094 -0.0764,0.0396 -0.0957,0.023 -0.18406,0.0252 -0.0173,-0.0265 -0.17265,-0.0698 -0.22584,-0.0942 -0.0762,-0.0351 -0.15608,-0.0532 -0.24019,-0.0762 -0.20983,-0.0582 -0.41413,-0.12295 -0.61677,-0.20044 -0.17118,-0.0663 -0.34953,-0.0979 -0.51481,-0.17117 -0.0826,-0.0366 -0.33001,-0.0589 -0.29118,-0.18553 0.004,-0.004 0.008,-0.005 0.0121,-0.007 -0.0144,-0.0423 0.0158,-0.1108 0.026,-0.14816 0.0295,-0.10639 0.0777,-0.21204 0.1086,-0.3199 0.0245,-0.0826 0.0626,-0.1581 0.0883,-0.24222 0.018,-0.0554 0.0116,-0.12368 0.0346,-0.17761 0.0309,-0.072 0.0703,-0.12866 0.10344,-0.2021 0.0252,-0.0567 0.007,-0.0985 0.0245,-0.14872 0.0121,-0.0339 0.074,-0.12884 0.11577,-0.18774 -0.17191,0.008 -0.34731,0.0411 -0.51333,0.026 -0.0361,-0.11154 -0.0202,-0.21867 -0.0123,-0.33591 0.003,-0.051 -0.0237,-0.1178 -0.023,-0.16031 7.1e-4,-0.0396 0.0519,-0.10345 0.0433,-0.12792 7e-4,-0.0309 -0.018,-0.023 -0.0418,-0.0381 0.17614,-0.0626 0.41063,-0.0188 0.59394,7e-4 0.0891,0.009 0.17965,0.0114 0.27167,0.0121 0.004,-0.0639 0.004,-0.13013 0.0195,-0.19271 -0.25455,-0.002 -0.46382,-0.0186 -0.45867,-0.069 0.0215,-0.004 0.0661,-0.0144 0.0295,-0.0401 0.16105,0.006 0.31345,-0.0267 0.47376,-0.0482 0.0121,-0.0425 0.0245,-0.0863 0.0351,-0.12939 0.0245,-0.095 0.002,-0.22732 0.005,-0.34732 -0.0331,-0.0351 -0.0611,-0.0755 -0.0893,-0.12443 -0.11503,-0.20485 -0.20117,-0.37805 -0.22933,-0.61328 -0.0215,-0.1789 -0.0683,-0.4364 0.0188,-0.60021 0.0913,-0.17264 0.21203,-0.28768 0.35872,-0.38689 0.0806,-0.0547 0.16179,-0.0884 0.24296,-0.13951 0.069,-0.0438 0.1143,-0.10142 0.19491,-0.13657 0.007,-0.0517 0.0381,-0.0883 0.0569,-0.14099 0.0216,-0.0596 0.0193,-0.0698 0.0208,-0.13933 -0.0188,0.003 -0.0445,-0.007 -0.0626,-0.004 -0.0252,-0.0906 -0.007,-0.18332 -0.0109,-0.27388 -0.002,-0.0512 -0.008,-0.25823 0.0863,-0.15903 0.0116,-0.0611 0.0324,-0.13804 0.0331,-0.1962 7.1e-4,-0.0791 -0.0433,-0.1467 0,-0.22216 0.002,7.1e-4 0.002,0.002 0.004,0.003 -0.006,-0.0109 -0.01,-0.0217 -0.023,-0.0339 0.12295,-0.0114 0.24516,0.006 0.37253,7e-4 0.0797,-0.004 0.2078,0.0237 0.27608,-7e-4 0.0977,0.0891 -0.004,0.33369 0.0121,0.44081 0.10068,0.01 0.0784,0.33922 0.0525,0.43052 -0.0158,-0.001 -0.0366,0.006 -0.0517,0.004 -0.0201,0.23081 0.27038,0.3869 0.44008,0.4953 0.13436,0.0856 0.18259,0.16106 0.26302,0.29413 0.0583,0.0977 0.13675,0.17614 0.19197,0.28179 0.0806,0.15608 -0.0302,0.26173 -0.003,0.42205 0.0151,0.0878 0.0712,0.12939 0.0554,0.23081 -0.0109,0.0747 -0.044,0.15313 -0.0633,0.23007 -0.0418,0.16547 -0.11651,0.23578 -0.26099,0.33149 -0.004,0.003 -0.009,0.006 -0.0129,0.009 0.004,0.0302 0.004,0.0633 0.01,0.0928 0.0203,0.0963 0.0596,0.14596 0.10565,0.2343 0.0138,0.0267 0.0237,0.0561 0.0316,0.0863 0.2194,-0.004 0.45591,0.0186 0.51701,0.16528 -0.092,0.0403 -0.23375,0.0418 -0.33369,0.0504 -0.0517,0.004 -0.10418,0.006 -0.15663,0.009 0.004,0.0698 0.008,0.13933 0.0208,0.20191 0.10492,-0.001 0.20927,-0.009 0.31198,-0.0208 0.20209,-0.023 0.40566,-0.0453 0.60186,-0.074 0,0.13215 -0.0554,0.2494 -0.0497,0.38891 0.004,0.0626 0.0296,0.12719 0.041,0.19695 0.006,0.0445 -0.004,0.0784 0.0188,0.1143 -0.0885,-0.0179 -0.19198,-0.0547 -0.29044,-0.0388 -0.0618,0.0116 -0.11651,0.0447 -0.17983,0.0504 -0.046,0.004 -0.0905,0 -0.13509,-0.007 0.0906,0.11651 0.15313,0.2551 0.22289,0.38321 0.0747,0.1373 0.16105,0.27387 0.21277,0.42351 0.069,0.19915 0.2516,0.44561 0.1697,0.66133 m -2.41224,-6.53535 c 0.12663,0 0.25307,-0.005 0.37823,7.1e-4 0.18553,0.008 0.37161,0.0123 0.55787,0.009 -0.0287,0.0596 -0.0804,0.12737 -0.12147,0.18553 -0.0302,0.0431 -0.0762,0.15461 -0.11577,0.18111 -0.0618,0.0418 -0.19694,0.005 -0.26964,0.002 -0.12498,-0.006 -0.3372,-0.0525 -0.44063,0.009 -0.0468,-0.0799 -0.13529,-0.31418 -0.19639,-0.31197 0.009,10e-4 0.0123,-0.009 0.0101,-0.0195 -0.0331,-0.009 -0.0633,-0.0329 -0.0856,-0.0567 0.0747,0.0351 0.19767,7e-4 0.28326,7e-4 m 4.66822,3.80761 c 0.013,-0.0762 -0.0359,-0.15093 -0.0826,-0.21848 v 0.0453 c -0.005,7e-4 -0.01,7e-4 -0.0158,10e-4 -0.002,-0.0366 -0.0114,-0.074 -0.006,-0.10988 0.0201,-0.11504 0.0468,-0.22934 0.0675,-0.34511 0.006,-0.0324 0.004,-0.0683 -0.004,-0.10068 -0.0252,-0.10639 -0.0547,-0.21148 -0.0841,-0.31787 -0.0252,-0.0869 -0.0497,-0.17467 -0.0791,-0.26026 -0.0188,-0.051 -0.0445,-0.0985 -0.0712,-0.14724 -0.009,-0.0195 -0.028,-0.0353 -0.0416,-0.0526 -0.006,-0.008 -0.009,-0.0179 -0.0131,-0.0272 -0.0193,-0.0539 0.0245,-0.11006 -0.006,-0.16473 -0.0107,-0.0193 -0.0166,-0.0409 -0.0193,-0.0618 -0.007,-0.0611 -0.0131,-0.12148 -0.0195,-0.18259 -0.001,-0.01 -0.004,-0.0208 -0.01,-0.0294 -0.0331,-0.046 -0.0685,-0.0913 -0.10068,-0.13878 -0.006,-0.008 -0.003,-0.0223 -0.004,-0.0381 -0.0755,-0.0675 -0.10933,-0.17467 -0.18976,-0.25161 -0.0712,-0.0683 -0.11651,-0.16528 -0.1732,-0.2494 -0.0381,-0.0554 -0.0777,-0.10933 -0.11448,-0.16547 -0.0315,-0.049 -0.0841,-0.0819 -0.0884,-0.1524 -0.004,-0.0388 -0.0445,-0.0791 -0.0769,-0.10933 -0.0648,-0.0611 -0.13583,-0.11503 -0.20411,-0.17246 -0.002,0.0107 -0.004,0.0223 -0.004,0.0337 -0.005,0.002 -0.009,0.004 -0.0129,0.006 -0.0274,-0.0403 -0.0547,-0.0806 -0.0814,-0.12019 -0.0179,-0.0265 -0.0374,-0.051 -0.056,-0.0762 -0.0136,-0.0193 -0.0282,-0.0381 -0.041,-0.0574 -0.0215,-0.0324 -0.0431,-0.0655 -0.0653,-0.0979 -0.007,-0.0114 -0.018,-0.0201 -0.026,-0.0309 -0.0331,-0.0431 -0.0641,-0.0884 -0.0985,-0.1294 -0.009,-0.0107 -0.0316,-0.0107 -0.0482,-0.0129 -0.0245,-0.004 -0.0495,0 -0.0725,-0.006 -0.0965,-0.0289 -0.1927,-0.0569 -0.28694,-0.0906 -0.0374,-0.0138 -0.0747,-0.0383 -0.10418,-0.0663 -0.09,-0.0863 -0.20136,-0.14449 -0.28547,-0.23946 -0.0453,-0.051 -0.11651,-0.0782 -0.17909,-0.11135 -0.069,-0.0359 -0.1408,-0.0668 -0.21203,-0.0985 -0.0388,-0.018 -0.0777,-0.041 -0.11871,-0.0468 -0.0804,-0.0116 -0.16234,-0.0116 -0.24369,-0.0195 -0.0935,-0.009 -0.18977,-7.1e-4 -0.27609,-0.0488 -0.0928,-0.0512 -0.19418,-0.041 -0.29412,-0.0433 -0.007,0 -0.0164,0.001 -0.0215,0.006 -0.0438,0.0416 -0.0948,0.0237 -0.14449,0.0151 -0.007,-10e-4 -0.0114,-0.0203 -0.0193,-0.0353 -0.023,-0.003 -0.0525,-0.01 -0.0821,-0.0107 -0.0618,-7e-4 -0.12424,0.002 -0.18682,0.003 -0.064,10e-4 -0.13012,0.006 -0.19418,10e-4 -0.0604,-0.005 -0.12,-0.0208 -0.17982,-0.0324 -7.1e-4,0 -10e-4,-0.004 -0.002,-0.004 -0.0245,-0.002 -0.0517,-0.0123 -0.0734,-0.005 -0.0559,0.0195 -0.11209,0.0418 -0.16307,0.0712 -0.026,0.0158 -0.0698,0.0237 -0.0685,0.0712 0,0.006 -0.0107,0.0151 -0.0186,0.0193 -0.0309,0.0173 -0.0633,0.0331 -0.0942,0.0497 0,-0.005 7.1e-4,-0.0101 7.1e-4,-0.0144 -0.009,-0.002 -0.0186,-0.007 -0.0272,-0.006 -0.0453,0.009 -0.0907,0.0224 -0.13601,0.0304 -0.0186,0.003 -0.0394,-0.007 -0.0574,-0.004 -0.072,0.0123 -0.14246,0.0267 -0.2135,0.041 -0.0878,0.0166 -0.17468,0.0337 -0.26247,0.0503 -0.0116,0.002 -0.0245,0.0109 -0.0351,0.009 -0.0806,-0.0114 -0.14816,0.0324 -0.22289,0.0475 -0.013,0.003 -0.023,0.0201 -0.0353,0.0302 0.003,0.002 0.005,0.004 0.007,0.006 l 0.0675,-0.0223 c 0.002,0.005 0.004,0.009 0.006,0.0129 -0.0475,0.0324 -0.095,0.0641 -0.14246,0.0964 -0.002,-0.007 -0.004,-0.013 -0.006,-0.0195 -0.0166,7.1e-4 -0.0359,-0.004 -0.0488,0.004 -0.0418,0.023 -0.0799,0.051 -0.11872,0.0769 -0.0633,0.0423 -0.12442,0.0891 -0.19123,0.12442 -0.049,0.0258 -0.1086,0.0287 -0.15756,0.0538 -0.11559,0.0583 -0.23136,0.11798 -0.307,0.2308 -0.0272,0.0411 -0.0589,0.0791 -0.0963,0.12737 -0.008,-0.0166 -0.0121,-0.026 -0.0151,-0.0324 -0.0878,0.074 -0.11927,0.17688 -0.17394,0.26467 -0.0497,0.0804 -0.10068,0.16234 -0.16694,0.22934 -0.079,0.0804 -0.17614,0.14375 -0.26154,0.21848 -0.0856,0.0734 -0.10141,0.18111 -0.1281,0.28253 -0.01,0.0418 -0.0201,0.0834 -0.0302,0.12442 -0.004,-7e-4 -0.009,-0.002 -0.0144,-0.003 10e-4,-0.0129 0.003,-0.0243 0.004,-0.0374 -0.021,0.0203 -0.0289,0.0453 -0.0418,0.067 -0.0287,0.0453 -0.0596,0.0891 -0.0898,0.13363 -0.009,0.0116 -0.0203,0.0201 -0.0281,0.0316 -0.0475,0.0712 -0.0955,0.14228 -0.14228,0.21498 -0.008,0.0121 -0.0109,0.0295 -0.0144,0.0438 -0.0195,0.0806 -0.0353,0.16178 -0.0576,0.2424 -0.0201,0.0733 -0.046,0.14522 -0.0697,0.21774 l -0.0121,-0.003 c -0.002,-0.008 -0.004,-0.0151 -0.006,-0.0195 -0.009,0.046 -0.021,0.0935 -0.026,0.14099 -0.006,0.0604 -0.003,0.12221 -0.009,0.18259 -0.006,0.0626 0.007,0.12718 -0.0265,0.187 -0.0195,0.0329 -0.0353,0.0703 -0.0425,0.10841 -0.0265,0.16326 -0.0475,0.32652 -0.13289,0.47468 -0.0613,0.10639 -0.0663,0.22787 -0.0447,0.34566 0.0353,0.19198 0.0683,0.38542 0.14467,0.56727 0.004,0.0109 0.0164,0.018 0.0228,0.0281 0.0252,0.0388 0.0497,0.0777 0.0749,0.11651 -0.003,0.002 -0.005,0.004 -0.009,0.006 -0.009,-0.004 -0.018,-0.009 -0.0274,-0.0131 0.0425,0.0561 0.0497,0.12516 0.0309,0.17762 -0.0223,0.0576 -0.0208,0.10289 0.005,0.15387 0.003,-0.005 0.005,-0.009 0.0136,-0.0245 0.004,0.044 0.007,0.0784 0.0109,0.11154 0.003,0.0359 0.003,0.0725 0.01,0.10785 0.0346,0.19989 0.1143,0.38542 0.18405,0.57371 0.0698,0.18903 0.19639,0.34585 0.29707,0.51629 0.0532,0.0906 0.12571,0.17246 0.21498,0.23798 0.0992,0.0725 0.20044,0.14228 0.27019,0.25382 0.049,0.0777 0.12516,0.13878 0.19345,0.20265 0.10859,0.10215 0.21865,0.20283 0.33222,0.29909 0.17614,0.14964 0.34786,0.30848 0.58806,0.35155 0.0158,0.003 0.0331,7.1e-4 0.0497,0.004 0.0567,0.009 0.11559,0.0121 0.16749,0.0331 0.0532,0.0223 0.097,0.0646 0.14596,0.0963 0.009,0.006 0.0201,0.004 0.0309,0.006 0.0158,0.003 0.0351,0 0.0467,0.009 0.0948,0.0675 0.19399,0.12516 0.30756,0.15534 0.0821,0.0223 0.16104,0.0532 0.24019,0.0812 0.0267,0.0101 0.051,0.0339 0.0762,0.0346 0.0985,10e-4 0.18626,0.0453 0.27903,0.0646 0.13804,0.0289 0.27461,0.0663 0.40897,-0.0144 0.0145,-0.009 0.0388,-0.004 0.0576,-0.002 0.0193,0.002 0.0388,0.0138 0.0574,0.0109 0.18056,-0.0215 0.36094,-0.046 0.5415,-0.069 0.0913,-0.0116 0.18258,-0.0215 0.27387,-0.0339 0.072,-0.008 0.14449,-0.0158 0.21572,-0.0295 0.0898,-0.0158 0.17835,-0.0359 0.26817,-0.0547 0.004,-7.1e-4 0.009,0 0.0136,-7.1e-4 0.0418,-0.007 0.0893,-0.004 0.12516,-0.0223 0.10712,-0.0559 0.21001,-0.12 0.31419,-0.18185 0.0316,-0.0186 0.0596,-0.0547 0.10362,-0.0223 0.004,0.003 0.0171,-0.004 0.0251,-0.008 0.10859,-0.0561 0.22584,-0.0834 0.34437,-0.10216 0.0834,-0.0129 0.12092,-0.0782 0.16822,-0.13288 0.004,-0.005 0.001,-0.0173 0.004,-0.0331 -0.0173,0.0151 -0.0287,0.026 -0.041,0.0366 -0.004,-0.003 -0.008,-0.005 -0.0107,-0.007 0.0121,-0.0208 0.0201,-0.0475 0.0381,-0.0626 0.074,-0.0618 0.14724,-0.12571 0.22068,-0.18756 0.10786,-0.0928 0.19124,-0.2135 0.32136,-0.28179 0.0497,-0.0267 0.0878,-0.0749 0.13087,-0.11228 0.009,-0.007 0.0215,-0.0114 0.0324,-0.0151 0.0999,-0.0381 0.19547,-0.0804 0.24296,-0.18755 0.0403,-0.092 0.0812,-0.18406 0.12865,-0.27185 0.023,-0.0423 0.0569,-0.0819 0.092,-0.11578 0.1432,-0.13509 0.2956,-0.26246 0.38689,-0.44357 0.0309,-0.0626 0.074,-0.11927 0.11062,-0.17983 0.0116,-0.0186 0.021,-0.0381 0.0282,-0.0589 0.0324,-0.0863 0.0675,-0.17246 0.0935,-0.26026 0.0251,-0.0819 0.0409,-0.16675 0.0596,-0.25087 0.0129,-0.0626 0.0186,-0.12663 0.0344,-0.18774 0.0215,-0.0834 0.0648,-0.16325 0.072,-0.24663 0.009,-0.0854 0.0265,-0.1675 0.046,-0.25014 0.007,-0.0339 0.0265,-0.0705 0.0201,-0.10141 -0.0144,-0.0683 -0.0453,-0.12719 -0.0324,-0.2056"
       style="fill:#21201d;fill-opacity:1;fill-rule:nonzero;stroke:none;stroke-width:0.184057"
       id="path588" />
    <path
       d="m 103.98037,150.94307 c 0.0223,-0.14025 0.0324,-0.27682 0.0626,-0.41413 0.026,-0.11651 0.0769,-0.21645 0.10859,-0.32928 0.0114,-0.0388 0.005,-0.17614 0.0265,-0.25676 -0.0797,0.004 -0.15884,0.0123 -0.23798,0.0208 -0.008,0.026 -0.0164,0.0532 -0.0287,0.0849 -0.0208,0.0539 -0.0381,0.11503 -0.0554,0.16896 -0.0698,0.22142 -0.0374,0.49254 -0.14228,0.70605 -0.0697,0.14246 -0.12147,0.27038 -0.21276,0.40345 -0.044,0.0639 -0.0626,0.10565 -0.0584,0.1675 0.11301,0.0381 0.2251,0.0789 0.3278,0.11724 -0.028,-0.0928 0.0648,-0.30922 0.0806,-0.35174 0.0396,-0.10491 0.11136,-0.20485 0.12939,-0.31694"
       style="fill:#21201d;fill-opacity:1;fill-rule:nonzero;stroke:none;stroke-width:0.184057"
       id="path590" />
    <path
       d="m 104.59088,145.40753 c 0,0.003 0,0.007 -7.1e-4,0.009 0.001,-0.001 0.003,-0.002 0.004,-0.004 -0.001,-0.003 -0.003,-0.004 -0.004,-0.006"
       style="fill:#21201d;fill-opacity:1;fill-rule:nonzero;stroke:none;stroke-width:0.184057"
       id="path592" />
    <path
       d="m 106.50893,150.56777 c -0.0374,-0.072 -0.0906,-0.12442 -0.1351,-0.19123 -0.0431,-0.0648 -0.0295,-0.0987 -0.0475,-0.16473 -0.0151,-0.0554 -0.0589,-0.0884 -0.0812,-0.13657 -0.0173,-0.0366 -0.0166,-0.0777 -0.0223,-0.11872 -0.0331,-0.008 -0.067,-0.0164 -0.0992,-0.023 -0.0791,-0.0144 -0.16031,-0.0158 -0.24387,-0.01 0.0806,0.0819 0.0907,0.15167 0.11871,0.2113 0.0725,0.15314 0.19915,0.27112 0.27682,0.42352 0.10418,0.20338 0.12571,0.42628 0.17173,0.64641 0.0195,0.0926 0.13804,0.18406 0.13307,0.28106 0.0353,-0.0158 0.0712,-0.0324 0.10785,-0.0497 0.0309,-0.0151 0.0834,-0.0329 0.13087,-0.0366 -0.0129,-0.11062 -0.0403,-0.22565 -0.0913,-0.32431 -0.0834,-0.16307 -0.1351,-0.34566 -0.21866,-0.50745"
       style="fill:#21201d;fill-opacity:1;fill-rule:nonzero;stroke:none;stroke-width:0.184057"
       id="path594" />
    <path
       d="m 106.36371,151.26222 c -0.0661,-0.10638 -0.071,-0.18479 -0.10915,-0.29982 -0.0705,-0.20928 -0.12221,-0.44138 -0.24314,-0.62543 -0.0488,-0.0742 -0.0639,-0.14891 -0.0985,-0.22363 -0.0287,-0.0618 -0.0596,-0.12075 -0.0826,-0.18554 -0.0683,0.006 -0.1373,0.0158 -0.20559,0.0245 0.0574,0.0604 0.10492,0.15608 0.12369,0.19418 0.0445,0.0876 0.0869,0.16528 0.12221,0.25952 0.0178,0.0475 0.0374,0.069 0.0517,0.12368 0.0114,0.0445 0.0101,0.0898 0.0193,0.13437 0.0217,0.10712 0.0727,0.21001 0.0992,0.31786 0.0289,0.11927 0.0361,0.2113 0.10141,0.31419 0.0361,0.056 0.13161,0.24001 0.0885,0.32855 0.0158,-0.006 0.0322,-0.0123 0.0488,-0.018 0.0828,-0.028 0.15903,-0.0589 0.23375,-0.0906 -0.0863,-0.0431 -0.10068,-0.17614 -0.14963,-0.25381"
       style="fill:#21201d;fill-opacity:1;fill-rule:nonzero;stroke:none;stroke-width:0.184057"
       id="path596" />
    <path
       d="m 105.90651,151.16007 c -0.0294,-0.10123 -0.0366,-0.20982 -0.0604,-0.31345 -0.0274,-0.12 -0.0762,-0.23357 -0.11798,-0.3486 -0.0245,-0.0675 -0.0329,-0.1108 -0.0495,-0.18056 -0.0166,-0.074 -0.0749,-0.12222 -0.10068,-0.19271 -0.0123,-0.0329 -0.0467,-0.10639 -0.0648,-0.16032 -0.0631,0.006 -0.12572,0.009 -0.18682,0.006 -0.026,-7.1e-4 -0.0532,-0.005 -0.0791,-0.009 0.0985,0.0977 0.097,0.2702 0.1294,0.37603 0.0403,0.13013 0.0957,0.23081 0.0905,0.3637 -0.005,0.16032 0.0245,0.32726 0.0512,0.48168 0.0251,0.14522 0.006,0.31216 0.0488,0.45297 0.0216,0.0698 0.0826,0.12295 0.092,0.19123 0.1697,-0.0567 0.3394,-0.12 0.50542,-0.17964 -0.12369,-0.0985 -0.21571,-0.34161 -0.25805,-0.48757"
       style="fill:#21201d;fill-opacity:1;fill-rule:nonzero;stroke:none;stroke-width:0.184057"
       id="path598" />
    <path
       d="m 105.31404,147.41781 c 0.0755,0.14467 0.28841,-0.10124 0.11153,-0.17744 -0.006,0.004 -0.0116,0.009 -0.013,0.0164 -0.0394,-0.0151 -0.0618,-0.004 -0.097,0.0123 -0.0589,0.0178 -0.0626,0.0819 -0.0532,0.13436 0.0173,0.008 0.0331,0.0136 0.0517,0.0144"
       style="fill:#21201d;fill-opacity:1;fill-rule:nonzero;stroke:none;stroke-width:0.184057"
       id="path600" />
    <path
       d="m 104.36578,148.05704 c -0.11872,0.0158 -0.0727,0.11872 0.0166,0.13731 0.0913,0.0188 0.19841,-0.0216 0.20265,-0.1143 -0.0186,-0.0272 -0.0215,-0.0223 -0.0329,-0.0633 -0.0576,-0.0186 -0.1108,-0.007 -0.16399,0.0195 z"
       style="fill:#21201d;fill-opacity:1;fill-rule:nonzero;stroke:none;stroke-width:0.184057"
       id="path602" />
    <path
       d="m 105.03942,147.88311 c 0.23376,-0.10142 0.11872,-0.43512 -0.0906,-0.48684 -0.11872,-0.0287 -0.28547,0.001 -0.28474,0.0928 -0.0482,0.0712 -0.11797,0.0957 -0.1108,0.19988 0.004,0.0453 0.0173,0.10933 0.0547,0.14302 0.0826,0.0734 0.33296,0.0942 0.43142,0.0512"
       style="fill:#21201d;fill-opacity:1;fill-rule:nonzero;stroke:none;stroke-width:0.184057"
       id="path604" />
    <path
       d="m 104.31111,147.25823 c 0.001,0 0.003,0 0.005,7e-4 0.002,0 0.004,-7e-4 0.006,-7e-4 z"
       style="fill:#21201d;fill-opacity:1;fill-rule:nonzero;stroke:none;stroke-width:0.184057"
       id="path606" />
    <path
       d="m 104.66837,146.15609 c -0.004,0.0898 0.17982,0.0848 0.24737,0.0906 0.14099,0.0123 0.15387,-0.0626 0.24958,-0.10418 -0.0101,-0.0806 0.006,-0.12148 0.0337,-0.19565 -0.0559,-0.0258 -0.0517,-0.10142 -0.10933,-0.13952 -0.0423,-0.0287 -0.12148,-0.0653 -0.17246,-0.0416 h 0.004 c -0.008,7.1e-4 -0.0144,0.003 -0.008,0.01 -0.0475,-0.0545 -0.1697,-0.028 -0.20062,0.0403 -0.11227,0.0274 -0.19988,0.31713 -0.044,0.34014"
       style="fill:#21201d;fill-opacity:1;fill-rule:nonzero;stroke:none;stroke-width:0.184057"
       id="path608" />
    <path
       d="m 105.2717,147.9628 c 0.0215,0.0396 0.0589,0.0641 0.079,0.10363 0.0871,0.01 0.23227,-0.003 0.1835,-0.13308 -0.0376,-0.0985 -0.18406,-0.0777 -0.27185,-0.0639 -0.004,0.0107 -0.009,0.0386 -0.009,0.0495 0.0195,0.003 0.0438,-0.006 0.0626,-0.0193 z"
       style="fill:#21201d;fill-opacity:1;fill-rule:nonzero;stroke:none;stroke-width:0.184057"
       id="path610" />
    <path
       d="m 103.6187,150.87037 c 0.0633,-0.15737 0.0353,-0.32063 0.092,-0.4745 0.0295,-0.0819 0.11228,-0.14891 0.13013,-0.24443 0.0109,-0.0539 0.0116,-0.11872 0.0109,-0.17909 -0.0655,0.006 -0.1316,0.0109 -0.19842,0.009 -0.005,0.028 -0.0109,0.0539 -0.0144,0.0668 -0.0388,0.14964 -0.1108,0.31143 -0.18276,0.45297 -0.0841,0.16547 -0.15884,0.30131 -0.19197,0.48113 -0.0236,0.13215 -0.0668,0.25437 -0.10344,0.38321 -0.004,0.0129 -0.009,0.0272 -0.0144,0.0409 0.0653,0.0166 0.13362,0.0361 0.20338,0.0576 0.021,-0.0626 0.0497,-0.13234 0.0762,-0.18406 0.0361,-0.0683 0.0828,-0.11724 0.11153,-0.18259 0.0316,-0.0742 0.0495,-0.15037 0.0812,-0.22657"
       style="fill:#21201d;fill-opacity:1;fill-rule:nonzero;stroke:none;stroke-width:0.184057"
       id="path612" />
    <path
       d="m 105.47361,148.78389 c -0.14945,0.0705 -0.28326,0.10712 -0.45149,0.1281 -0.19049,0.0236 -0.28326,-0.0388 -0.45149,-0.0777 0.0109,-0.11577 -0.16325,-0.0611 -0.2459,-0.0821 -0.0567,-0.0144 -0.1165,-0.0453 -0.16896,-0.0747 -7e-4,0.0208 -0.002,0.0418 -0.006,0.0626 -0.0129,0.0871 -0.0295,0.16031 -0.0366,0.25014 0,0.001 -7e-4,0.003 -7e-4,0.004 0.1316,-0.005 0.26596,-10e-4 0.39259,-0.006 0.38468,-0.0109 0.7699,-0.0245 1.15385,-0.0282 0.0166,0 0.0353,-7.1e-4 0.0554,-10e-4 v -0.0171 c -10e-4,-0.0591 -0.006,-0.18406 -0.0252,-0.29781 -0.0631,0.0504 -0.12939,0.0994 -0.21571,0.13952"
       style="fill:#21201d;fill-opacity:1;fill-rule:nonzero;stroke:none;stroke-width:0.184057"
       id="path614" />
    <path
       d="m 104.31976,147.46032 c 0.0725,0.0201 0.10068,-0.0425 0.16602,-0.0569 0.006,-0.0396 7.1e-4,-0.0762 -0.01,-0.11209 -0.0526,-0.0195 -0.1086,-0.0237 -0.15976,-0.0324 -0.0396,0.002 -0.0718,0.0188 -0.0948,0.0517 0.0525,0.0539 0.0179,0.12663 0.0985,0.14963"
       style="fill:#21201d;fill-opacity:1;fill-rule:nonzero;stroke:none;stroke-width:0.184057"
       id="path616" />
    <path
       d="m 103.98902,147.54223 c 0.0136,-0.0561 0.0856,-0.10215 0.0992,-0.15811 0.0201,-0.0871 -0.0352,-0.13601 0.0346,-0.21792 0.0394,-0.0468 0.13289,-0.13234 0.19915,-0.11853 -0.009,-0.069 0.0525,-0.10363 0.11927,-0.13805 0.0366,-0.0727 0.20062,-0.0777 0.28399,-0.0979 0.10492,-0.0257 0.23228,-0.028 0.33425,0.0158 0.0742,0.0331 0.1489,0.1086 0.22363,0.14964 0.0849,0.046 0.17412,0.0848 0.2424,0.15811 0.0854,0.0906 0.21995,0.24019 0.22142,0.36462 10e-4,0.0963 -0.0331,0.20338 -0.0339,0.3048 -7e-4,0.0641 0.0131,0.14227 0,0.20485 -0.0403,0.19842 -0.1962,0.25953 -0.35872,0.35745 -0.19271,0.11632 -0.29486,0.16896 -0.53634,0.13215 -0.16179,-0.0237 -0.34658,-0.0624 -0.47671,-0.14798 -0.14375,-0.0942 -0.16822,-0.24738 -0.25087,-0.39904 -0.0425,-0.0784 -0.0806,-0.12093 -0.0893,-0.21148 -0.005,-0.0547 -0.0243,-0.1467 -0.0121,-0.19842 m 0.0561,0.75501 h 7e-4 c 0.0698,0.10859 0.17173,0.20706 0.26946,0.14227 0.0396,0.12866 0.34014,0.16253 0.46235,0.17836 0.18903,0.0252 0.38321,-0.004 0.55217,-0.0747 0.10289,-0.0433 0.18553,-0.0762 0.26026,-0.12295 -0.004,-0.001 -0.007,-0.003 -0.0114,-0.004 l 0.0143,0.002 c 0.0547,-0.0354 0.10565,-0.0784 0.15737,-0.13952 0.0841,-0.10068 0.15903,-0.19915 0.17688,-0.33646 0.0166,-0.12792 0.0116,-0.27609 0.0109,-0.40198 -7.1e-4,-0.13804 -0.0898,-0.24369 -0.13805,-0.36591 -0.0554,-0.14228 -0.16105,-0.18258 -0.26099,-0.284 -0.0928,-0.0942 -0.1489,-0.13234 -0.2805,-0.16897 -0.14945,-0.0423 -0.30756,-0.0589 -0.4745,-0.0287 -0.0755,0.0144 -0.35081,0.041 -0.24792,0.0819 -0.0878,-0.008 -0.13878,0.018 -0.20853,0.0589 -0.0482,0.0282 -0.1294,0.0613 -0.17762,0.0942 -0.0267,0.018 -0.0302,0.0517 -0.0611,0.0698 -0.0653,0.0396 -0.12147,0.0438 -0.1697,0.10565 -0.0502,0.0655 -0.0683,0.15902 -0.0683,0.23945 0,0.12517 -0.004,0.25805 -0.0166,0.37254 -0.0158,0.14596 0.0957,0.25805 0.12737,0.40253 0.008,0.0374 0.0394,0.11007 0.0834,0.17909"
       style="fill:#21201d;fill-opacity:1;fill-rule:nonzero;stroke:none;stroke-width:0.184057"
       id="path618" />
  </g>
</svg>
