<?xml version="1.0" encoding="UTF-8" standalone="no"?>
<!-- Created with Inkscape (http://www.inkscape.org/) -->

<svg
   width="8.6413937mm"
   height="8.6877203mm"
   viewBox="0 0 8.6413937 8.6877203"
   version="1.1"
   id="svg2812"
   inkscape:version="1.1.2 (0a00cf5339, 2022-02-04)"
   sodipodi:docname="rm5.svg"
   xmlns:inkscape="http://www.inkscape.org/namespaces/inkscape"
   xmlns:sodipodi="http://sodipodi.sourceforge.net/DTD/sodipodi-0.dtd"
   xmlns="http://www.w3.org/2000/svg"
   xmlns:svg="http://www.w3.org/2000/svg">
  <sodipodi:namedview
     id="namedview2814"
     pagecolor="#ffffff"
     bordercolor="#666666"
     borderopacity="1.0"
     inkscape:pageshadow="2"
     inkscape:pageopacity="0.0"
     inkscape:pagecheckerboard="0"
     inkscape:document-units="mm"
     showgrid="false"
     inkscape:zoom="0.64052329"
     inkscape:cx="-788.41786"
     inkscape:cy="160.02541"
     inkscape:window-width="2560"
     inkscape:window-height="1376"
     inkscape:window-x="0"
     inkscape:window-y="0"
     inkscape:window-maximized="1"
     inkscape:current-layer="layer1" />
  <defs
     id="defs2809" />
  <g
     inkscape:label="Layer 1"
     inkscape:groupmode="layer"
     id="layer1"
     transform="translate(-313.33141,-106.36023)">
    <path
       d="m 317.7263,108.34717 c -0.0856,-0.0698 -0.19915,-0.0453 -0.29338,0.0287 0.0848,0.009 0.23448,0.006 0.26816,-0.0114 0.009,-0.004 0.0173,-0.0109 0.0252,-0.0173"
       style="fill:#21201d;fill-opacity:1;fill-rule:evenodd;stroke:none;stroke-width:0.184057"
       id="path628" />
    <path
       d="m 317.18204,107.97537 c 0.023,0.0821 0.0495,0.15976 0.0792,0.22437 0.1373,-0.0567 0.38523,0.0295 0.45499,0.0445 0.0208,0.004 0.0396,0.009 0.0576,0.0144 0.009,-0.0366 0.0114,-0.0747 0.0129,-0.10639 0.003,-0.0552 -0.0114,-0.11356 -0.023,-0.17099 -0.19344,-0.009 -0.38817,-0.0138 -0.58162,-0.006"
       style="fill:#21201d;fill-opacity:1;fill-rule:nonzero;stroke:none;stroke-width:0.184057"
       id="path630" />
    <path
       d="m 317.24094,111.82918 c -0.20982,-0.36242 -0.17761,-0.74783 -0.23228,-1.14025 -0.0258,-0.0784 -0.001,-0.13233 0.049,-0.17043 -0.0797,-0.34161 0.006,-0.66077 0.0497,-0.99575 -0.009,-0.003 -0.0173,-0.006 -0.0252,-0.008 -0.074,-0.35155 0.0101,-0.67733 0.0653,-1.01949 h -0.006 c -0.0977,-0.16105 -0.14742,-0.32799 -0.17761,-0.49696 -0.34584,0.0591 -0.68009,0.22658 -0.92028,0.44082 -0.0453,0.041 -0.10142,0.0784 -0.15314,0.13436 -0.1581,0.21425 -0.30185,0.42131 -0.40473,0.67513 -0.10565,0.26025 -0.25603,0.49769 -0.37898,0.75132 -0.12497,0.26026 -0.0703,0.51407 -0.0646,0.79807 0.002,0.11228 0,0.22511 0,0.33794 0,0.22436 0.0201,0.37326 0.11724,0.57812 0.11283,0.23946 0.11062,0.57942 0.30259,0.76789 0.0928,0.0913 0.2194,0.14743 0.32063,0.23283 0.12092,0.10363 0.24442,0.20781 0.3589,0.31714 0.1005,0.097 0.18535,0.20559 0.31051,0.26891 0.10068,0.051 0.22584,0.0683 0.33498,0.0999 0.11651,0.0331 0.24387,0.0574 0.37253,0.0777 0,-0.15166 0.007,-0.30424 0.001,-0.46014 -0.0138,-0.0604 0,-0.10436 0.0302,-0.13584 -0.0425,-0.3567 0.0186,-0.69813 0.0582,-1.05336 -0.003,0 -0.006,0 -0.009,0"
       style="fill:#21201d;fill-opacity:1;fill-rule:nonzero;stroke:none;stroke-width:0.184057"
       id="path632" />
    <path
       d="m 317.16327,107.68934 c 0.2078,0 0.40769,-0.0245 0.60904,-0.0388 -0.003,-0.0195 -0.009,-0.0425 -0.018,-0.0705 -0.0337,-0.10141 -0.0539,-0.23872 -0.1294,-0.31124 -0.0344,-0.0346 -0.20209,-0.11301 -0.26449,-0.10436 -0.0512,0.006 -0.0418,0.0705 -0.0762,0.0906 -0.0591,0.0346 -0.12443,0.0109 -0.15977,0.1489 -0.0237,0.0495 -0.0223,0.15737 -0.004,0.28474 0.0144,0 0.0287,0 0.0431,0"
       style="fill:#21201d;fill-opacity:1;fill-rule:nonzero;stroke:none;stroke-width:0.184057"
       id="path634" />
    <path
       d="m 317.81115,111.50137 c 0.0295,0.006 0.0554,0.0136 0.0791,0.0201 7.1e-4,-0.0109 0.001,-0.0208 0.003,-0.0309 0.006,-0.0992 -0.0388,-0.2078 -0.0287,-0.30701 0.0129,-0.11724 0.0495,-0.14025 0.0101,-0.26817 -0.0109,-0.0359 -0.021,-0.0762 -0.0309,-0.11725 -0.16897,0.0532 -0.38468,-0.0502 -0.56598,-0.13362 -0.0107,0.0173 -0.0201,0.0396 -0.0287,0.0698 -0.0539,0.10491 0.004,0.48665 0.095,0.73973 0.13233,-0.0849 0.39609,0.0116 0.46732,0.0274"
       style="fill:#21201d;fill-opacity:1;fill-rule:nonzero;stroke:none;stroke-width:0.184057"
       id="path636" />
    <path
       d="m 317.96134,113.11537 c -0.0201,0.0561 -0.046,0.10068 -0.0804,0.12221 -0.14669,0.0885 -0.33867,-0.0324 -0.49677,-0.12442 -0.0296,0.0757 -0.0339,0.22952 -0.0202,0.3926 0.0841,0.0109 0.16823,0.0195 0.24737,0.0274 0.13013,0.0129 0.25161,0.008 0.37161,-0.009 0.0195,-0.0611 0.0376,-0.0963 0.0173,-0.19566 -0.0136,-0.0646 -0.0193,-0.14301 -0.0388,-0.21277"
       style="fill:#21201d;fill-opacity:1;fill-rule:nonzero;stroke:none;stroke-width:0.184057"
       id="path638" />
    <path
       d="m 319.055,108.39668 c -0.30995,-0.20339 -0.66591,-0.36075 -1.03458,-0.40033 -0.006,0.12222 0.0394,0.34787 -0.0267,0.46291 0.009,0.0433 0.0151,0.0957 0.0223,0.16031 0.0215,0.20284 -0.0265,0.42279 -0.0876,0.61476 -0.0101,0.0324 -0.0203,0.0742 -0.0296,0.11945 0.17687,0.0567 0.19344,0.13657 0.23007,0.34585 0.0353,0.20338 -0.01,0.42333 -0.0718,0.61604 -0.0223,0.067 -0.0361,0.17411 -0.0633,0.26964 0.0193,0.0359 0.0381,0.0784 0.0611,0.13013 0.0826,0.18977 0.0913,0.41487 0.0755,0.61696 -0.009,0.11578 0.0274,0.32928 -0.028,0.44929 0.006,0.0425 0.0129,0.0928 0.0193,0.15092 0.0281,0.23873 -0.0129,0.5012 -0.0683,0.73127 -0.0129,0.0524 -0.023,0.12516 -0.0351,0.20062 0.10068,0.0423 0.1294,0.12369 0.18112,0.284 0.0324,0.10068 0.0438,0.20854 0.0433,0.3164 0.0604,-0.0173 0.12001,-0.0381 0.18111,-0.0611 0.21995,-0.0841 0.41707,-0.25455 0.60242,-0.40198 0.2043,-0.16253 0.33148,-0.41634 0.53063,-0.59175 0.25878,-0.2286 0.46309,-0.59671 0.59818,-0.92029 0.11007,-0.26375 0.14596,-0.6096 0.15756,-0.89231 0.0136,-0.32781 0.0401,-0.58365 -0.0418,-0.90152 -0.15608,-0.59745 -0.7261,-0.97569 -1.21569,-1.29926"
       style="fill:#21201d;fill-opacity:1;fill-rule:nonzero;stroke:none;stroke-width:0.184057"
       id="path640" />
    <path
       d="m 317.42721,113.87314 c 0.028,0.0972 0.0633,0.17044 0.10288,0.19639 0.0366,0.023 0.27462,0.0503 0.3199,0.0337 0.0812,-0.0309 0.0992,-0.13363 0.11135,-0.20192 7.1e-4,-0.006 7.1e-4,-0.0116 0.002,-0.0173 -0.0223,0.006 -0.0438,0.0129 -0.0648,0.018 -0.13933,0.0344 -0.30553,0.008 -0.47155,-0.0289"
       style="fill:#21201d;fill-opacity:1;fill-rule:nonzero;stroke:none;stroke-width:0.184057"
       id="path642" />
    <path
       d="m 317.32359,108.51613 c -0.0574,0.15663 -0.0898,0.51628 -0.0676,0.74268 0.13601,-0.028 0.33792,0.0215 0.44725,0.0482 0.0208,-0.0893 0.0144,-0.19197 0.0438,-0.27682 0.0388,-0.11081 0.0747,-0.12443 0.0734,-0.2575 -7.1e-4,-0.0653 0.006,-0.14375 10e-4,-0.21498 -0.15019,0.0289 -0.34069,-0.0136 -0.49824,-0.0416"
       style="fill:#21201d;fill-opacity:1;fill-rule:nonzero;stroke:none;stroke-width:0.184057"
       id="path644" />
    <path
       d="m 317.49917,112.97162 c 0.0696,0.028 0.1767,0.0547 0.20486,0.0438 0.0403,-0.0144 0.0661,-0.0554 0.0849,-0.10418 -0.0979,-0.0403 -0.20283,-0.0109 -0.28971,0.0604"
       style="fill:#21201d;fill-opacity:1;fill-rule:nonzero;stroke:none;stroke-width:0.184057"
       id="path646" />
    <path
       d="m 317.92968,111.89451 c -0.1524,0.0316 -0.3451,-0.0129 -0.50542,-0.0438 -0.0567,0.21792 -0.0747,0.71102 -0.0302,0.95765 0.1489,-0.0143 0.32504,0.0116 0.38468,0.0151 0.0129,0 0.0252,0.002 0.0374,0.002 0.003,-0.0116 0.006,-0.023 0.008,-0.0339 0.0274,-0.11356 0.0124,-0.25013 0.0418,-0.36149 0.0351,-0.13233 0.0711,-0.15037 0.0653,-0.30848 -0.002,-0.0532 0.003,-0.13951 -10e-4,-0.22731"
       style="fill:#21201d;fill-opacity:1;fill-rule:nonzero;stroke:none;stroke-width:0.184057"
       id="path648" />
    <path
       d="m 320.75458,111.01674 c -0.0223,0.4018 -0.24738,0.80747 -0.43291,1.15313 -0.0819,0.15258 -0.23356,0.24958 -0.34436,0.37824 -0.0834,0.0977 -0.10989,0.22142 -0.17817,0.33369 -0.0849,0.14154 -0.20136,0.23357 -0.32283,0.3372 -0.0525,0.0453 -0.0928,0.10988 -0.14394,0.15166 -0.079,0.0653 -0.18405,0.0812 -0.27314,0.12645 -0.0539,0.0274 -0.0999,0.064 -0.15092,0.09 -0.12221,0.0626 -0.27259,0.0747 -0.40989,0.11357 -0.097,0.0265 -0.194,0.0633 -0.28971,0.0992 -0.0173,0.14596 -0.002,0.39904 -0.12369,0.46806 -0.22362,0.12645 -0.60241,-0.0769 -0.80598,-0.095 -0.0547,-0.11927 -0.0849,-0.23799 -0.10141,-0.35726 -0.0676,-0.0143 -0.13289,-0.0267 -0.19473,-0.0316 -0.0784,-0.006 -0.14375,-0.0267 -0.2194,-0.0482 -0.14448,-0.0416 -0.29909,-0.0554 -0.44137,-0.11853 -0.16399,-0.0727 -0.29412,-0.18406 -0.41983,-0.30848 -0.12368,-0.12295 -0.22068,-0.21571 -0.36093,-0.30056 -0.13528,-0.0819 -0.30701,-0.23652 -0.3948,-0.35653 -0.2113,-0.29044 -0.27314,-0.61622 -0.36222,-0.95489 -0.10068,-0.38394 -0.24811,-0.75924 -0.23155,-1.1568 0.004,-0.097 0.003,-0.24296 0.0409,-0.33351 0.0611,-0.14596 0.17486,-0.28474 0.24443,-0.43291 0.0764,-0.16252 0.16841,-0.33499 0.23154,-0.49898 0.0525,-0.13804 0.072,-0.22363 0.1697,-0.34658 0.1259,-0.15811 0.4156,-0.63335 0.65138,-0.68451 -0.0388,0 -0.0251,-0.0322 -0.006,-0.0525 0.1143,-0.12498 0.284,-0.16179 0.42352,-0.25161 0.10491,-0.0676 0.19418,-0.14099 0.307,-0.19547 0.0977,-0.0475 0.20191,-0.0583 0.30848,-0.0591 -0.0116,-0.10712 -0.023,-0.21498 -0.0403,-0.32357 -0.0999,-0.28677 0.47155,-0.25437 0.58953,-0.26026 0.31842,-0.0158 0.34879,0.0425 0.45793,0.27829 0.0381,0.0819 0.0611,0.17118 0.0755,0.26247 0.31142,0.004 0.75868,0.16602 0.9893,0.34437 0.13013,0.1 0.23448,0.19842 0.37474,0.284 0.11927,0.0712 0.24442,0.14449 0.35578,0.23081 0.15682,0.12148 0.32283,0.27756 0.49548,0.37107 0.11779,0.0624 0.13215,0.0329 0.18608,0.20043 0.0828,0.25897 0.13086,0.51408 0.23872,0.76439 0.0554,0.12793 0.049,0.23358 0.049,0.3753 0,0.27609 0.0747,0.52475 0.0596,0.80452 m 1.18624,-0.0885 c 0.0131,-0.0769 -0.0366,-0.15092 -0.0826,-0.21773 v 0.0453 c -0.005,0 -0.0101,0 -0.0158,0.002 -0.002,-0.0368 -0.0114,-0.0749 -0.006,-0.11007 0.0201,-0.11577 0.0467,-0.23007 0.0675,-0.34585 0.006,-0.0324 0.004,-0.0683 -0.004,-0.10068 -0.026,-0.10638 -0.0539,-0.21203 -0.0841,-0.31694 -0.0245,-0.0871 -0.0497,-0.17486 -0.0791,-0.26026 -0.018,-0.0512 -0.0453,-0.0994 -0.0705,-0.14743 -0.0109,-0.0202 -0.0287,-0.0353 -0.0423,-0.0532 -0.006,-0.008 -0.009,-0.018 -0.0131,-0.0274 -0.0193,-0.0539 0.0245,-0.10988 -0.006,-0.16455 -0.0109,-0.0188 -0.0158,-0.0403 -0.0188,-0.0618 -0.008,-0.0611 -0.0129,-0.12148 -0.0201,-0.18203 -10e-4,-0.0107 -0.004,-0.0216 -0.0101,-0.0302 -0.0329,-0.046 -0.0683,-0.0913 -0.10123,-0.13804 -0.005,-0.008 -0.002,-0.0223 -0.004,-0.0387 -0.0755,-0.0677 -0.11007,-0.17486 -0.18977,-0.25106 -0.0712,-0.069 -0.1165,-0.16528 -0.17393,-0.25013 -0.0376,-0.0547 -0.0769,-0.10934 -0.11375,-0.16547 -0.0316,-0.048 -0.0834,-0.0812 -0.0891,-0.1524 -0.003,-0.0381 -0.0438,-0.079 -0.0762,-0.10915 -0.0655,-0.0606 -0.13657,-0.11448 -0.20485,-0.17191 -7.1e-4,0.0101 -0.003,0.0223 -0.004,0.0339 -0.004,0.002 -0.008,0.004 -0.0121,0.005 -0.0274,-0.0403 -0.0539,-0.0806 -0.0814,-0.12 -0.0179,-0.026 -0.0374,-0.0512 -0.0559,-0.0764 -0.0138,-0.0193 -0.0281,-0.0381 -0.041,-0.0567 -0.0215,-0.0331 -0.0423,-0.0661 -0.0648,-0.0985 -0.008,-0.0109 -0.0186,-0.0202 -0.0265,-0.0309 -0.0331,-0.0432 -0.0633,-0.0878 -0.0992,-0.12939 -0.009,-0.0101 -0.0309,-0.0109 -0.0475,-0.0131 -0.0245,-0.004 -0.0503,0 -0.0725,-0.006 -0.0964,-0.0272 -0.19197,-0.0554 -0.28621,-0.0891 -0.0381,-0.0144 -0.0762,-0.0381 -0.10491,-0.0663 -0.09,-0.0869 -0.20209,-0.14523 -0.28621,-0.24002 -0.0438,-0.0504 -0.11577,-0.0784 -0.17835,-0.11154 -0.069,-0.0351 -0.14098,-0.0661 -0.21203,-0.0985 -0.0388,-0.0173 -0.0777,-0.0403 -0.11871,-0.046 -0.0804,-0.0121 -0.16252,-0.0121 -0.2437,-0.0193 -0.0935,-0.009 -0.18976,-0.002 -0.27682,-0.0497 -0.0928,-0.051 -0.19344,-0.041 -0.29338,-0.0423 -0.007,0 -0.0164,0.002 -0.0208,0.006 -0.0453,0.0416 -0.0955,0.0238 -0.14522,0.0144 -0.008,-0.002 -0.0116,-0.0201 -0.0201,-0.0346 -0.0223,-0.004 -0.0519,-0.0107 -0.0814,-0.0107 -0.0618,0 -0.12442,0.002 -0.18682,0.003 -0.0648,0 -0.12957,0.006 -0.19418,0 -0.0604,-0.005 -0.11945,-0.0208 -0.17982,-0.0315 -0.001,0 -0.001,-0.004 -0.003,-0.004 -0.0237,-0.003 -0.0512,-0.0121 -0.0727,-0.006 -0.0561,0.0193 -0.11209,0.0416 -0.16326,0.0712 -0.0265,0.0157 -0.069,0.0236 -0.0683,0.071 0,0.006 -0.0107,0.0151 -0.0186,0.0195 -0.0309,0.0171 -0.0626,0.0329 -0.0942,0.0502 0,-0.005 0,-0.0101 7e-4,-0.0151 -0.009,-0.002 -0.0188,-0.007 -0.0267,-0.006 -0.046,0.009 -0.0913,0.0223 -0.13731,0.0302 -0.0179,0.004 -0.0388,-0.007 -0.0567,-0.004 -0.072,0.0124 -0.1432,0.0274 -0.21351,0.041 -0.0871,0.0173 -0.17485,0.0339 -0.26247,0.0504 -0.0116,0.002 -0.0245,0.0114 -0.0353,0.009 -0.0804,-0.0107 -0.14872,0.0331 -0.2229,0.0475 -0.0136,0.004 -0.0236,0.0202 -0.0344,0.0309 0.002,0.002 0.004,0.004 0.007,0.006 l 0.0668,-0.0216 c 0.002,0.004 0.004,0.008 0.005,0.0131 -0.0468,0.0315 -0.0942,0.0631 -0.14099,0.0955 -0.003,-0.006 -0.005,-0.0129 -0.007,-0.0201 -0.0166,0.002 -0.0359,-0.003 -0.0497,0.005 -0.0401,0.023 -0.079,0.0502 -0.11779,0.0762 -0.0641,0.0425 -0.12442,0.0898 -0.19124,0.12516 -0.049,0.0258 -0.10859,0.0287 -0.15755,0.0532 -0.11651,0.0582 -0.23136,0.1178 -0.30701,0.23081 -0.028,0.0409 -0.0596,0.079 -0.0955,0.12792 -0.009,-0.0173 -0.0129,-0.0267 -0.0165,-0.0324 -0.0871,0.0742 -0.11871,0.17615 -0.1732,0.26468 -0.0497,0.0797 -0.10067,0.16178 -0.1662,0.2286 -0.0797,0.0804 -0.17688,0.14375 -0.26301,0.21847 -0.0856,0.0734 -0.10142,0.1813 -0.12737,0.28272 -0.0107,0.0416 -0.0201,0.0834 -0.0302,0.12424 -0.004,0 -0.009,-0.002 -0.0144,-0.003 0.001,-0.0123 0.003,-0.0245 0.004,-0.0366 -0.0208,0.0193 -0.0287,0.0445 -0.0416,0.0661 -0.0287,0.046 -0.0596,0.0898 -0.0906,0.13362 -0.008,0.0116 -0.0188,0.0203 -0.0274,0.0316 -0.0482,0.0712 -0.0955,0.14319 -0.14228,0.21497 -0.008,0.0131 -0.0116,0.0295 -0.0151,0.0446 -0.0188,0.0806 -0.0346,0.16178 -0.0569,0.24166 -0.0201,0.0733 -0.046,0.14523 -0.0698,0.21848 l -0.0121,-0.004 c -0.002,-0.008 -0.004,-0.0151 -0.006,-0.0188 -0.009,0.046 -0.021,0.0928 -0.026,0.14025 -0.006,0.0604 -0.003,0.12221 -0.009,0.18332 -0.006,0.0618 0.007,0.12663 -0.0265,0.18627 -0.0195,0.0339 -0.0361,0.0712 -0.0418,0.10859 -0.0272,0.16326 -0.0482,0.32707 -0.13381,0.4745 -0.0611,0.10712 -0.0661,0.22787 -0.0445,0.34585 0.0346,0.1927 0.0683,0.38541 0.14448,0.56726 0.004,0.0107 0.0166,0.018 0.023,0.028 0.0252,0.0388 0.0504,0.0784 0.0756,0.11651 -0.004,0.003 -0.006,0.005 -0.009,0.006 -0.009,-0.004 -0.0188,-0.008 -0.0274,-0.0121 0.0418,0.0554 0.049,0.12442 0.0295,0.17688 -0.0215,0.0582 -0.0201,0.1027 0.006,0.15387 0.002,-0.004 0.005,-0.009 0.0136,-0.0245 0.004,0.0445 0.007,0.0784 0.0101,0.11209 0.004,0.0359 0.004,0.0712 0.01,0.10712 0.0346,0.19989 0.11504,0.38542 0.1848,0.57371 0.0697,0.18994 0.19639,0.34584 0.29688,0.51628 0.0532,0.0906 0.12589,0.17265 0.21498,0.23799 0.0999,0.0727 0.20062,0.14301 0.27038,0.25381 0.0489,0.0777 0.12589,0.13878 0.19344,0.20284 0.10859,0.10196 0.21921,0.20264 0.33222,0.29909 0.17614,0.15019 0.34786,0.3083 0.58806,0.35155 0.0158,0.004 0.0331,0 0.049,0.004 0.0567,0.009 0.11632,0.0123 0.16822,0.0339 0.0525,0.0215 0.097,0.0639 0.14651,0.0955 0.008,0.006 0.0195,0.005 0.0304,0.007 0.0157,0.003 0.0351,0 0.0466,0.008 0.095,0.0683 0.19418,0.12516 0.30848,0.15608 0.0813,0.0215 0.16032,0.0525 0.23946,0.0812 0.0267,0.009 0.051,0.0331 0.0762,0.0339 0.0985,0.002 0.18553,0.046 0.27903,0.0648 0.13804,0.0287 0.27461,0.0661 0.40897,-0.0145 0.0144,-0.008 0.0381,-0.004 0.0576,-0.002 0.0193,0.002 0.0388,0.0143 0.0574,0.0114 0.18056,-0.0223 0.36094,-0.0468 0.5415,-0.0698 0.0913,-0.0114 0.18258,-0.0215 0.27387,-0.0329 0.072,-0.009 0.14375,-0.0166 0.21498,-0.0296 0.0906,-0.0164 0.17982,-0.0366 0.26817,-0.0552 0.005,-0.002 0.0101,0 0.0144,0 0.0418,-0.007 0.0893,-0.004 0.12442,-0.023 0.10786,-0.0561 0.21056,-0.12019 0.31492,-0.18204 0.0324,-0.0186 0.0589,-0.0552 0.10344,-0.0223 0.004,0.003 0.0173,-0.004 0.0252,-0.008 0.10859,-0.0552 0.2251,-0.0834 0.34437,-0.10123 0.0841,-0.0138 0.12019,-0.0791 0.16822,-0.13307 0.005,-0.006 0.002,-0.018 0.003,-0.0339 -0.0166,0.0151 -0.0287,0.026 -0.041,0.0368 -0.004,-0.002 -0.006,-0.004 -0.01,-0.007 0.0121,-0.021 0.0208,-0.0475 0.0387,-0.0626 0.0742,-0.0618 0.1467,-0.12516 0.2194,-0.18774 0.10859,-0.0928 0.19197,-0.21277 0.3221,-0.28105 0.0495,-0.0267 0.0876,-0.0747 0.1316,-0.11283 0.009,-0.007 0.0208,-0.0109 0.0324,-0.0153 0.0998,-0.0381 0.19474,-0.0804 0.24149,-0.18755 0.041,-0.092 0.0819,-0.18332 0.12865,-0.27112 0.023,-0.0431 0.0576,-0.0819 0.0928,-0.11577 0.14302,-0.13584 0.29486,-0.26229 0.38615,-0.44358 0.0316,-0.0633 0.0747,-0.12001 0.11062,-0.18038 0.0116,-0.0188 0.0217,-0.0381 0.0289,-0.0591 0.0322,-0.0861 0.0675,-0.17173 0.0933,-0.26026 0.0245,-0.0819 0.0418,-0.16602 0.0598,-0.25013 0.0129,-0.0626 0.0186,-0.12664 0.0344,-0.18774 0.0223,-0.0834 0.0648,-0.16308 0.072,-0.24719 0.009,-0.0856 0.0265,-0.16694 0.0453,-0.25032 0.009,-0.0337 0.0272,-0.0698 0.0208,-0.10068 -0.0144,-0.0683 -0.046,-0.12792 -0.0324,-0.20633"
       style="fill:#21201d;fill-opacity:1;fill-rule:nonzero;stroke:none;stroke-width:0.184057"
       id="path650" />
    <path
       d="m 317.74139,109.71177 c -0.13233,0.0626 -0.29688,-0.0173 -0.44136,-0.095 -0.0626,0.20357 -0.0727,0.63997 -0.006,0.82752 0.1281,-0.0151 0.25951,-0.009 0.30995,-0.0114 0.0725,-0.004 0.12939,-0.002 0.17688,0.003 0.003,-0.008 0.005,-0.0158 0.008,-0.0237 0.0302,-0.0942 0.0114,-0.21074 0.0445,-0.30425 0.0403,-0.10988 0.0812,-0.12368 0.0725,-0.25731 -0.006,-0.10565 0.009,-0.24369 -0.0431,-0.33222 -7.1e-4,0 -0.002,-0.002 -0.003,-0.003 -0.0258,0.0906 -0.0611,0.16952 -0.11854,0.19621"
       style="fill:#21201d;fill-opacity:1;fill-rule:nonzero;stroke:none;stroke-width:0.184057"
       id="path652" />
    <path
       d="m 317.85864,111.64512 c -0.0281,-0.0316 -0.0655,-0.0525 -0.11798,-0.0525 -0.092,0 -0.18829,0.0431 -0.24737,0.11283 0.0626,0.0151 0.2689,0.0166 0.30921,-0.004 0.0252,-0.0121 0.0431,-0.0322 0.0561,-0.0567"
       style="fill:#21201d;fill-opacity:1;fill-rule:nonzero;stroke:none;stroke-width:0.184057"
       id="path654" />
    <path
       d="m 317.68378,109.37163 c -0.0193,-0.009 -0.0381,-0.0171 -0.0517,-0.0186 -0.051,-0.006 -0.0582,0.0582 -0.097,0.069 -0.0547,0.0158 -0.10436,-0.008 -0.15885,0.0554 0.069,0.025 0.1675,0.0488 0.19474,0.0416 0.0596,-0.0166 0.0913,-0.0856 0.11282,-0.14743"
       style="fill:#21201d;fill-opacity:1;fill-rule:nonzero;stroke:none;stroke-width:0.184057"
       id="path656" />
    <path
       d="m 317.43512,110.55733 c 0.0804,0.0238 0.18553,0.046 0.21572,0.0388 0.0208,-0.004 0.0388,-0.0144 0.0547,-0.0274 -0.064,-0.0366 -0.16823,-0.0797 -0.21571,-0.074 -0.0353,0.004 -0.0425,0.0359 -0.0547,0.0626"
       style="fill:#21201d;fill-opacity:1;fill-rule:nonzero;stroke:none;stroke-width:0.184057"
       id="path658" />
  </g>
</svg>
