<?xml version="1.0" encoding="UTF-8" standalone="no"?>
<!-- Created with Inkscape (http://www.inkscape.org/) -->

<svg
   width="8.6414251mm"
   height="8.6884727mm"
   viewBox="0 0 8.6414251 8.6884727"
   version="1.1"
   id="svg3022"
   inkscape:version="1.1.2 (0a00cf5339, 2022-02-04)"
   sodipodi:docname="rm6.svg"
   xmlns:inkscape="http://www.inkscape.org/namespaces/inkscape"
   xmlns:sodipodi="http://sodipodi.sourceforge.net/DTD/sodipodi-0.dtd"
   xmlns="http://www.w3.org/2000/svg"
   xmlns:svg="http://www.w3.org/2000/svg">
  <sodipodi:namedview
     id="namedview3024"
     pagecolor="#ffffff"
     bordercolor="#666666"
     borderopacity="1.0"
     inkscape:pageshadow="2"
     inkscape:pageopacity="0.0"
     inkscape:pagecheckerboard="0"
     inkscape:document-units="mm"
     showgrid="false"
     inkscape:zoom="0.64052329"
     inkscape:cx="15.612235"
     inkscape:cy="16.392847"
     inkscape:window-width="2560"
     inkscape:window-height="1376"
     inkscape:window-x="0"
     inkscape:window-y="0"
     inkscape:window-maximized="1"
     inkscape:current-layer="layer1" />
  <defs
     id="defs3019" />
  <g
     inkscape:label="Layer 1"
     inkscape:groupmode="layer"
     id="layer1"
     transform="translate(-100.59948,-144.15573)">
    <path
       d="m 108.2963,149.7082 c -0.051,0.0828 -0.11356,0.13731 -0.14301,0.23522 -0.0482,0.16179 -0.0618,0.29395 -0.18903,0.42058 -0.0935,0.0948 -0.2043,0.1697 -0.2978,0.26449 -0.11559,0.11798 -0.21056,0.25529 -0.31345,0.38542 -0.006,0.005 -0.0114,0.0101 -0.0178,0.0151 -0.14246,0.10565 -0.31934,0.2251 -0.42572,0.38247 -0.0488,0.0289 -0.0948,0.0583 -0.1351,0.0942 -0.0784,-0.004 -0.16399,0.004 -0.22933,0.0309 -0.0849,0.0351 -0.12093,0.12001 -0.19639,0.15664 -0.0646,0.0309 -0.14945,-0.004 -0.21203,0.004 -0.0863,0.0109 -0.16032,0.0582 -0.23228,0.092 -0.0747,0.0366 -0.17394,0.13657 -0.24296,0.16031 -0.0891,0.0324 -0.19049,-0.0423 -0.2805,-0.0374 -0.0733,0.004 -0.10767,0.0423 -0.1754,0.0705 -0.056,0.0237 -0.12351,0.0257 -0.17467,0.0517 -0.0539,0.0725 -0.22565,0.0747 -0.30259,0.0661 -0.0893,-0.009 -0.17982,-0.0618 -0.26541,-0.0869 -0.10344,-0.0294 -0.20265,-0.005 -0.29762,-0.0294 -0.18755,-0.0482 -0.18626,-0.24738 -0.1489,-0.39481 0.0381,-0.1489 0.11007,-0.29615 0.11448,-0.45297 0.005,-0.17246 -0.0418,-0.36885 -0.0576,-0.54352 -0.0101,-0.1108 -0.0596,-0.21866 -0.13583,-0.2897 -0.001,-0.004 -0.002,-0.007 -0.004,-0.0116 -0.0166,-0.0416 -0.0438,-0.0733 -0.0769,-0.0955 -0.0539,-0.1051 -0.14227,-0.1524 -0.2551,-0.0913 -0.09,0.0488 -0.18203,0.18111 -0.29265,0.17467 -0.0598,-0.004 -0.0749,0.0797 -0.0388,0.1143 0.0633,0.0596 0.071,0.12866 0.0475,0.20927 -0.005,0.0164 -0.003,0.0309 0.003,0.0423 -0.003,0.018 -0.006,0.0351 -0.006,0.0517 -0.0101,0.13086 0.0237,0.43861 0.22436,0.36167 0.13804,-0.0532 0.16897,-0.2875 -0.023,-0.25234 -0.001,0.0173 -0.007,0.051 -0.006,0.0648 -0.0375,-0.14026 0.0676,-0.18333 0.17172,-0.12296 0.18332,0.10565 0.15093,0.38671 -0.009,0.49751 -0.2113,0.14744 -0.51334,-0.0195 -0.59819,-0.22215 -0.0631,-0.15038 -0.0294,-0.31787 -0.0524,-0.47671 -0.0223,-0.1502 -0.0812,-0.27315 -0.002,-0.41855 0.10712,-0.19474 0.27112,-0.4745 0.51849,-0.52622 0.13436,-0.028 0.3278,0.0784 0.43934,0.14816 0.26228,0.16253 0.31621,0.55715 0.3659,0.8325 0.0331,0.18406 0.0252,0.35449 0.006,0.53929 -0.008,0.0725 -0.0396,0.18037 0.008,0.2459 0.16676,0.23081 0.54149,0.0331 0.74064,0.004 -0.13602,-0.0668 -0.35375,-0.194 -0.36811,-0.35505 -0.0116,-0.13233 0.0287,-0.23007 -0.007,-0.36958 -0.0488,-0.18848 -0.0495,-0.37254 -0.0683,-0.56451 -0.0158,-0.15884 -0.0495,-0.30333 -0.0488,-0.46806 0.001,-0.0933 0.0344,-0.22418 -0.0216,-0.31198 -0.09,-0.14154 -0.31418,-0.12865 -0.46382,-0.14025 -0.0977,-0.008 -0.20706,-0.006 -0.29338,-0.0618 -0.18332,-0.11633 -0.15166,-0.30977 -0.25087,-0.46364 -0.0769,0.003 -0.11872,0.0683 -0.18406,0.0769 -0.0668,0.007 -0.14743,-0.0267 -0.21129,-0.0468 -0.12516,-0.0396 -0.3013,-0.0928 -0.4121,-0.16473 -0.0747,-0.048 -0.1,-0.11283 -0.15885,-0.17541 -0.11577,-0.12295 -0.0648,-0.007 -0.18773,-0.0337 -0.0955,-0.021 -0.22271,-0.20209 -0.30406,-0.37106 -0.0201,0.0799 -0.0633,0.17688 -0.0215,0.23578 0.0136,0.0195 0.0826,0.0202 0.10289,0.041 0.0445,0.0431 0.0841,0.0834 0.11705,0.14375 0.0821,0.15038 0.0834,0.26818 0.0418,0.4307 -0.0339,0.12865 -0.0618,0.20357 -0.0116,0.32578 0.0604,0.14596 0.2459,0.29615 0.23154,0.47156 -0.004,0.0433 0.0675,0.19491 0.0468,0.2286 -0.0208,0.0158 -0.0849,0.13602 -0.23725,0.1697 -0.72536,0.15608 -0.74837,-0.86489 -0.30627,-0.53561 -0.31989,-0.0574 -0.12,0.39904 0.2113,0.36738 0.0388,-0.004 0.15976,-0.0532 0.15314,-0.15313 -0.006,-0.0977 -0.0552,-0.21002 -0.11633,-0.26597 -0.0705,-0.064 -0.15111,-0.11577 -0.20706,-0.19344 -0.1051,-0.14522 -0.0828,-0.26026 -0.0482,-0.42058 0.0294,-0.13307 0.0561,-0.30995 -0.0663,-0.38044 0.001,-0.008 0.002,-0.0156 0.004,-0.0236 -0.16602,-0.067 -0.50247,-0.13455 -0.37603,-0.41211 0.0324,-0.071 0.1121,-0.0812 0.10565,-0.16602 -0.004,-0.0547 -0.069,-0.10068 -0.0841,-0.15755 -0.0201,-0.0755 -0.0201,-0.15811 -0.004,-0.24001 0.0151,-0.004 0.028,-0.0144 0.0351,-0.0346 0.049,-0.12865 0.16179,-0.25455 0.26615,-0.34142 0.1235,-0.10363 0.21203,-0.026 0.24718,0.0869 -0.0351,0.0554 -0.0574,0.11724 -0.0574,0.17835 0,0.0215 0.0611,0.27038 0.0611,0.27038 0.28399,0.0633 0.40326,0.37456 0.56799,0.57518 0.26228,0.31842 0.58806,0.17836 0.95121,0.18903 0.43492,0.0131 0.16307,0.49751 0.59026,0.55291 0.16308,0.0215 0.3221,-0.0977 0.46015,-0.0812 0.13804,0.0166 0.18553,0.22069 0.20411,0.3256 0.0589,0.32505 -0.0324,0.63923 -0.10933,0.94919 -0.0769,0.31419 0.18277,0.65709 0.31566,0.94035 0.18129,0.38689 0.6234,0.11356 0.86709,-0.0532 0.0784,-0.0532 0.23228,-0.19842 0.33075,-0.21204 0.0618,-0.009 0.12221,0.0265 0.17982,0.0387 -0.0418,-0.28528 -0.48536,-0.074 -0.62119,-0.046 -0.25179,0.0526 -0.46805,-0.0164 -0.66591,-0.19252 -0.23578,-0.21075 -0.0366,-0.78667 0.28197,-0.84925 0.1697,-0.0329 0.10565,0.16252 0.25234,0.17541 0.1408,0.0116 0.26099,-0.15369 0.20338,-0.28179 -0.0697,-0.15535 -0.26522,-0.16032 -0.19988,-0.381 0.0418,-0.14026 0.11503,-0.11504 0.18921,-0.12148 -0.0339,0.0265 -0.049,0.069 -0.0633,0.12497 -0.0353,0.1467 0.0403,0.18701 0.13087,0.28401 0.1373,0.14669 0.1408,0.31289 0.009,0.47173 -0.21571,-0.0517 -0.49548,0.45002 -0.45664,-0.0611 -0.12516,-0.0215 -0.22566,0.092 -0.26247,0.20927 -0.0618,0.20118 0.14743,0.30407 0.3359,0.3372 0.28971,0.051 0.46143,-0.0992 0.69224,-0.23081 0.0856,-0.0497 0.20504,-0.10786 0.30774,-0.0935 -0.0554,-0.0453 -0.12645,-0.0596 -0.17835,-0.11209 -0.10197,-0.10289 -0.11282,-0.24387 -0.1027,-0.3775 0.0107,-0.14596 0.046,-0.21792 -7.1e-4,-0.36314 -0.049,-0.14744 -0.12442,-0.29689 -0.12516,-0.45573 -0.16749,0.0617 -0.27166,-0.24093 -0.4537,-0.23228 -0.0725,0.004 -0.11779,0.0482 -0.21129,0.0287 -0.0755,-0.0151 -0.19492,-0.0661 -0.22713,-0.14154 -0.0757,-0.18056 0.14798,-0.32504 -0.0885,-0.46603 -0.0762,-0.0453 -0.32062,-0.11136 -0.35302,-0.006 -0.21995,-0.1546 -0.21277,0.0295 -0.38026,0.16823 -0.15902,-0.17964 -0.39333,-0.0502 -0.45094,-0.34934 -0.0193,-0.10068 0.009,-0.28124 0.11872,-0.33149 0.0727,-0.0331 0.11798,0.0107 0.17044,0.0324 -0.16105,-0.0144 -0.19713,0.4248 0.10491,0.41836 0.11006,-0.002 0.11006,-0.0762 0.17614,-0.12939 0.14816,-0.11798 0.31197,-0.0935 0.48609,-0.0272 0.17393,0.0661 0.29265,0.1789 0.38818,0.33204 0.0712,0.11356 0.0755,0.20927 0.18976,0.26467 0.27332,0.13289 0.8369,0.10988 0.98801,0.4156 0.0423,0.0854 0.0151,0.14872 0.0208,0.23357 0.006,0.0871 0.0409,0.18056 0.0683,0.26597 0.0804,0.25823 0.12221,0.39977 0.34363,0.49033 -0.20559,-0.10123 -0.25529,-0.33996 -0.19271,-0.57224 0.0282,-0.10215 0.0799,-0.14449 0.13602,-0.23007 0.0948,-0.14743 0.0287,-0.0453 -0.0158,-0.19418 -0.041,-0.13878 0.0136,-0.41763 0.0639,-0.5485 -0.1905,-0.0964 -0.17394,-0.26743 -0.29541,-0.40916 -0.092,-0.10786 -0.23154,-0.17393 -0.36094,-0.2078 -0.0762,-0.0186 -0.26393,-0.023 -0.23725,-0.16105 -0.10859,0.14522 -0.42719,0.13878 -0.58676,0.10933 -0.0977,-0.0186 -0.24075,-0.0618 -0.30407,-0.14099 -0.0697,-0.0861 -0.0482,-0.27737 -0.13012,-0.35155 -0.11725,-0.10638 -0.25234,-0.0517 -0.32505,-0.24222 -0.0705,-0.18479 -0.0359,-0.30848 -0.0366,-0.49033 0,-0.12792 -0.0495,-0.27977 -0.1143,-0.38615 -0.0999,-0.16105 -0.13805,-0.1732 -0.33867,-0.14522 -0.36958,0.0532 -0.71027,0.0957 -1.0712,0.21498 -0.069,0.023 -0.14817,0.0747 -0.22731,0.0769 -0.0596,0.002 -0.11209,-0.0287 -0.1732,-0.0287 -0.15313,0 -0.26817,0.12865 -0.23356,0.28179 0.4421,0.0166 0.7434,0.27461 1.00365,0.58457 0.29836,0.35578 -0.21074,0.73329 -0.54793,0.73899 -0.15019,0.002 -0.25087,-0.0171 -0.27756,-0.17614 -0.0144,-0.0891 -0.009,-0.18756 0.0403,-0.23726 -0.0906,0.19272 0.1697,0.23229 0.29044,0.21296 0.15608,-0.0237 0.41854,-0.17688 0.36885,-0.37474 -0.028,-0.11283 -0.24222,-0.3048 -0.33222,-0.37732 -0.16105,-0.12939 -0.32284,-0.0727 -0.51683,-0.0762 -0.20136,-0.004 -0.48609,-0.0331 -0.51057,-0.284 -0.0171,-0.18774 0.12883,-0.34511 0.28915,-0.3983 0.12423,-0.041 0.24718,-0.0828 0.36884,-0.14099 0.0322,-0.0151 0.0668,-0.028 0.10124,-0.0403 0.0907,0.0123 0.16749,0.005 0.25951,-0.0337 0.0705,-0.0302 0.12369,-0.0526 0.1813,-0.0655 0.0158,-0.002 0.0316,-0.005 0.0467,-0.007 0.0329,-0.004 0.0683,-0.006 0.11135,-0.003 0.0596,0.004 0.11872,0.009 0.17836,-0.002 0.187,-0.0361 0.33498,-0.1373 0.5356,-0.14522 0.15681,-0.006 0.31565,-0.0633 0.471,-0.072 0.0388,0.009 0.0762,0.0223 0.11062,0.041 0.2424,0.13436 0.20853,0.36444 0.2135,0.60389 0.005,0.24885 0.1108,0.59175 0.32431,0.74415 0.0475,0.0331 0.095,0.0561 0.14319,0.0712 0.0567,0.13013 0.20265,0.14302 0.34143,0.11504 0.0812,0.0351 0.1697,0.0624 0.24369,0.0453 0.0116,0.008 0.026,0.0158 0.0438,0.023 0.19068,0.071 0.39775,-0.0361 0.59395,0.0416 0.0129,0.006 0.0272,0.006 0.0403,0.002 0.2343,0.20486 0.27811,0.45223 0.42628,0.71396 7e-4,0.002 0.003,0.004 0.004,0.006 0.0316,-0.10344 0.0755,-0.20928 0.0539,-0.31695 -0.013,-0.0648 -0.041,-0.13952 -0.0755,-0.19786 -0.018,-0.0309 -0.0641,-0.0698 -0.0685,-0.10418 -0.006,-0.0517 0.0561,-0.10215 0.0569,-0.15166 7e-4,-0.044 -0.0238,-0.0777 -0.041,-0.11872 -0.0676,-0.16032 -0.1351,-0.31419 -0.16178,-0.48095 -0.0164,-0.0985 -0.0517,-0.12662 -0.0985,-0.20632 -0.0453,-0.0762 0.0202,-0.11725 -0.005,-0.18553 -0.0309,-0.0856 -0.24737,-0.16529 -0.31492,-0.10289 -0.0352,0.0316 -0.0396,0.10215 -0.0705,0.13952 -0.0445,0.0517 -0.10639,0.0705 -0.15958,0.10932 -0.0403,0.0295 -0.0913,0.0928 -0.14301,0.10786 -0.12148,0.0359 -0.34437,-0.0576 -0.42002,-0.13951 -0.051,-0.0569 -0.1408,-0.2459 -0.13141,-0.3256 0.008,-0.069 0.0322,-0.0705 0.0891,-0.11798 0.0344,-0.028 0.0445,-0.0418 0.0733,-0.0734 0.10584,-0.12001 0.2978,-0.11853 0.34308,0.005 0.0193,0.0539 -0.0302,0.26597 -0.1316,0.24793 -0.0569,-0.01 -0.0999,-0.0409 -0.0905,-0.0963 -0.009,0.0963 0.13289,0.0381 0.12424,-0.041 -0.0121,-0.11209 -0.17817,-0.0747 -0.22639,-0.0158 -0.24167,0.29118 0.52548,0.57518 0.56726,0.164 0.0116,-0.11007 -0.0136,-0.17762 0.11282,-0.18903 0.0525,-0.005 0.10068,0.009 0.15314,0.01 0.041,0 0.09,-0.025 0.13013,-0.0164 0.0512,0.0114 0.13013,0.071 0.17411,0.10049 0.0963,0.0655 0.11283,0.14173 0.14007,0.25603 0.0806,0.3394 0.17044,0.64346 0.37032,0.93612 0.18185,0.26596 0.31639,0.51481 0.25602,0.84041 -0.0331,0.17688 -0.0683,0.35891 -0.14448,0.52272 -0.004,0.0101 -0.009,0.0203 -0.0151,0.0295 -0.0403,0.0935 -0.0935,0.19565 -0.0764,0.29118 0.0316,0.17559 0.13013,0.39904 0.19491,0.55586 0.095,0.23301 0.20412,0.3105 0.42573,0.18405 0.0703,-0.0403 0.19325,-0.097 0.27093,-0.16896 -0.0295,0.13731 -0.0675,0.27038 -0.1467,0.39609 m 0.91163,-0.98416 c 0.0131,-0.0762 -0.0366,-0.15037 -0.0826,-0.21792 v 0.0453 c -0.005,0 -0.01,0 -0.0151,0 -0.003,-0.0359 -0.0121,-0.0733 -0.006,-0.10933 0.0193,-0.11578 0.046,-0.23008 0.0668,-0.34585 0.005,-0.0322 0.004,-0.0683 -0.004,-0.0999 -0.026,-0.10639 -0.0547,-0.21204 -0.0841,-0.31695 -0.0245,-0.0885 -0.049,-0.17541 -0.0799,-0.26099 -0.0173,-0.0504 -0.0445,-0.0992 -0.0698,-0.14744 -0.0107,-0.0193 -0.0287,-0.0344 -0.0416,-0.0532 -0.007,-0.008 -0.0101,-0.0173 -0.0138,-0.0267 -0.0193,-0.0545 0.0245,-0.10988 -0.006,-0.16528 -0.01,-0.018 -0.0151,-0.0411 -0.0178,-0.0618 -0.008,-0.0604 -0.0131,-0.12148 -0.0203,-0.18185 -0.001,-0.0101 -0.004,-0.0215 -0.01,-0.0294 -0.0331,-0.0468 -0.0685,-0.092 -0.10141,-0.13878 -0.006,-0.009 -0.002,-0.0223 -0.004,-0.0381 -0.0755,-0.0683 -0.10988,-0.17486 -0.18903,-0.25161 -0.072,-0.069 -0.11724,-0.16547 -0.17393,-0.24958 -0.0381,-0.0554 -0.0777,-0.10933 -0.11448,-0.16529 -0.0315,-0.0497 -0.0841,-0.0821 -0.0891,-0.15314 -0.002,-0.0381 -0.0438,-0.0784 -0.0762,-0.10859 -0.0653,-0.0611 -0.13656,-0.11577 -0.20485,-0.17265 -0.001,0.0101 -0.002,0.0216 -0.004,0.0339 -0.004,0.002 -0.009,0.004 -0.0129,0.006 -0.0274,-0.0403 -0.0539,-0.0812 -0.0814,-0.12074 -0.0186,-0.026 -0.0374,-0.0504 -0.056,-0.0762 -0.0136,-0.0188 -0.0274,-0.0374 -0.041,-0.0569 -0.0215,-0.0324 -0.0423,-0.0653 -0.0646,-0.0985 -0.008,-0.0109 -0.0188,-0.0193 -0.0267,-0.0302 -0.0331,-0.0438 -0.0633,-0.0883 -0.0992,-0.12939 -0.009,-0.0109 -0.0309,-0.0116 -0.0482,-0.0136 -0.0237,-0.003 -0.0495,0 -0.0718,-0.006 -0.0957,-0.028 -0.19271,-0.0559 -0.28621,-0.0898 -0.0388,-0.0136 -0.0762,-0.0381 -0.10491,-0.0661 -0.09,-0.0863 -0.20136,-0.14448 -0.28547,-0.24019 -0.0445,-0.0503 -0.11651,-0.0777 -0.17835,-0.11081 -0.0698,-0.0359 -0.14154,-0.0668 -0.21277,-0.0992 -0.0388,-0.0171 -0.0777,-0.0401 -0.11945,-0.046 -0.0797,-0.0114 -0.1616,-0.0114 -0.24222,-0.0193 -0.0935,-0.009 -0.1905,-0.002 -0.27756,-0.049 -0.0928,-0.051 -0.194,-0.0416 -0.29338,-0.0431 -0.008,0 -0.0164,0 -0.0208,0.006 -0.0453,0.0418 -0.0963,0.0237 -0.14522,0.0151 -0.007,-0.002 -0.0114,-0.0201 -0.0201,-0.0351 -0.0223,-0.003 -0.0517,-0.0101 -0.0814,-0.0101 -0.0618,-0.002 -0.12424,0 -0.18608,0.002 -0.0648,0.002 -0.13013,0.006 -0.19492,0.002 -0.0604,-0.004 -0.12,-0.0203 -0.17982,-0.0316 -7.1e-4,0 -0.001,-0.004 -0.003,-0.004 -0.0245,-0.002 -0.051,-0.0121 -0.0727,-0.005 -0.056,0.0188 -0.11209,0.041 -0.16307,0.0712 -0.026,0.0151 -0.069,0.023 -0.0685,0.0705 0,0.006 -0.0107,0.0151 -0.0186,0.0201 -0.0309,0.0173 -0.0626,0.0331 -0.0942,0.0495 7e-4,-0.005 7e-4,-0.01 7e-4,-0.0151 -0.009,-0.002 -0.0186,-0.007 -0.0272,-0.005 -0.046,0.009 -0.0907,0.0223 -0.13675,0.0302 -0.0179,0.004 -0.0387,-0.007 -0.0574,-0.005 -0.0712,0.0121 -0.14172,0.0272 -0.21277,0.0409 -0.0878,0.0173 -0.17467,0.0339 -0.26173,0.0512 -0.0123,0.002 -0.0245,0.0107 -0.0359,0.009 -0.0806,-0.0116 -0.1489,0.0315 -0.22289,0.0473 -0.0131,0.002 -0.023,0.0195 -0.0346,0.0302 0.002,0.002 0.004,0.004 0.006,0.006 l 0.0683,-0.0215 c 0.001,0.004 0.003,0.008 0.004,0.0136 -0.0475,0.0316 -0.0942,0.0631 -0.14172,0.0948 -10e-4,-0.006 -0.004,-0.0129 -0.006,-0.0193 -0.0166,0.002 -0.0359,-0.003 -0.0495,0.004 -0.0403,0.023 -0.0784,0.0504 -0.11798,0.0769 -0.0633,0.0418 -0.12442,0.0893 -0.19197,0.12443 -0.0482,0.026 -0.10786,0.0287 -0.15681,0.0532 -0.11559,0.0583 -0.23136,0.11871 -0.30701,0.23154 -0.0272,0.0411 -0.0596,0.0791 -0.0955,0.12719 -0.009,-0.0171 -0.0129,-0.0258 -0.0166,-0.0322 -0.0871,0.074 -0.11853,0.17669 -0.17319,0.26449 -0.0497,0.0806 -0.10068,0.16252 -0.1662,0.2286 -0.0797,0.0813 -0.17688,0.14448 -0.26302,0.21866 -0.0856,0.074 -0.10142,0.18185 -0.12737,0.28327 -0.0107,0.0409 -0.0201,0.0826 -0.0302,0.12442 -0.005,-0.002 -0.009,-0.002 -0.0144,-0.003 0.001,-0.0129 0.003,-0.0252 0.004,-0.0374 -0.021,0.0201 -0.0289,0.0453 -0.0418,0.0661 -0.0287,0.046 -0.0596,0.0898 -0.0906,0.13381 -0.007,0.0114 -0.0195,0.0208 -0.0274,0.0324 -0.048,0.0711 -0.0955,0.14228 -0.14228,0.21425 -0.008,0.0129 -0.0116,0.0294 -0.0151,0.0445 -0.0188,0.0804 -0.0353,0.16179 -0.0569,0.24148 -0.0201,0.0742 -0.046,0.14596 -0.0705,0.21866 l -0.0114,-0.004 c -0.002,-0.007 -0.005,-0.0143 -0.006,-0.0178 -0.009,0.0453 -0.0217,0.092 -0.026,0.13933 -0.006,0.0606 -0.004,0.1224 -0.009,0.18351 -0.006,0.0617 0.007,0.12719 -0.0272,0.18682 -0.0188,0.0324 -0.0353,0.0705 -0.041,0.10786 -0.028,0.16326 -0.0482,0.32651 -0.13363,0.47523 -0.0613,0.10639 -0.0663,0.22787 -0.0447,0.34511 0.0346,0.19271 0.0683,0.38616 0.14466,0.56801 0.004,0.0101 0.0164,0.018 0.0228,0.028 0.026,0.0381 0.0504,0.0777 0.0749,0.11651 -0.002,0.002 -0.005,0.004 -0.008,0.006 -0.009,-0.004 -0.0188,-0.008 -0.0274,-0.0121 0.0418,0.0561 0.0497,0.12516 0.0296,0.17762 -0.0217,0.0582 -0.0195,0.10288 0.006,0.15313 0.003,-0.004 0.005,-0.009 0.0136,-0.0245 0.004,0.0445 0.007,0.0784 0.0101,0.11228 0.004,0.0359 0.004,0.0718 0.01,0.10767 0.0346,0.19915 0.1143,0.38468 0.18406,0.57389 0.0697,0.18903 0.19712,0.34511 0.2978,0.5161 0.0532,0.09 0.12644,0.17264 0.21498,0.23725 0.0998,0.0734 0.20043,0.14393 0.27019,0.25382 0.049,0.0777 0.12516,0.13877 0.19344,0.20283 0.1086,0.1027 0.21866,0.20338 0.33222,0.29909 0.17615,0.15019 0.34787,0.30922 0.58806,0.35229 0.0166,0.003 0.0331,0 0.0497,0.003 0.056,0.01 0.11558,0.0121 0.16823,0.0337 0.0524,0.0223 0.0963,0.064 0.14522,0.0964 0.009,0.005 0.0201,0.004 0.0302,0.006 0.0158,0.003 0.0359,0 0.0475,0.009 0.0948,0.0683 0.19326,0.12498 0.30829,0.1559 0.0814,0.0217 0.16032,0.0532 0.23946,0.0821 0.026,0.009 0.051,0.0322 0.0762,0.0329 0.0985,0.003 0.18553,0.046 0.27977,0.0655 0.1373,0.028 0.27387,0.0653 0.40823,-0.0144 0.0145,-0.009 0.0383,-0.004 0.0576,-0.002 0.0193,0.002 0.0396,0.0129 0.0574,0.0114 0.18056,-0.0223 0.36167,-0.0466 0.54223,-0.0696 0.0905,-0.0123 0.18258,-0.0224 0.2724,-0.0331 0.0727,-0.009 0.14522,-0.0173 0.21645,-0.0295 0.0898,-0.0166 0.17835,-0.0374 0.26817,-0.0561 0.004,0 0.009,0 0.0136,0 0.0418,-0.006 0.0893,-0.004 0.12442,-0.023 0.10712,-0.0561 0.21074,-0.12001 0.31492,-0.18185 0.0324,-0.0188 0.0596,-0.0547 0.10289,-0.0223 0.005,0.004 0.0179,-0.004 0.0258,-0.008 0.1086,-0.0554 0.22584,-0.0828 0.34437,-0.10142 0.0841,-0.0129 0.12019,-0.0791 0.16823,-0.13307 0.005,-0.005 0.002,-0.0171 0.003,-0.0329 -0.0166,0.0151 -0.0287,0.025 -0.041,0.0359 -0.004,-0.002 -0.006,-0.004 -0.0107,-0.006 0.0129,-0.0216 0.0215,-0.0475 0.0388,-0.0626 0.0747,-0.0626 0.14725,-0.12663 0.21995,-0.18848 0.10859,-0.092 0.19197,-0.21277 0.32209,-0.28105 0.0497,-0.026 0.0878,-0.0747 0.1316,-0.11209 0.009,-0.007 0.0208,-0.0116 0.0324,-0.0158 0.0992,-0.0374 0.19473,-0.0806 0.24148,-0.18701 0.041,-0.092 0.0819,-0.18332 0.12866,-0.27166 0.023,-0.0433 0.0576,-0.0821 0.0928,-0.11578 0.1432,-0.13601 0.2956,-0.26246 0.38689,-0.44358 0.0309,-0.0626 0.0733,-0.12018 0.11062,-0.18055 0.0109,-0.018 0.021,-0.0381 0.0289,-0.0582 0.0316,-0.0863 0.0661,-0.17264 0.0928,-0.26099 0.0243,-0.0814 0.0416,-0.16621 0.0589,-0.25032 0.0136,-0.0618 0.0193,-0.12571 0.0351,-0.18756 0.0223,-0.0826 0.0648,-0.16326 0.0727,-0.24664 0.007,-0.0863 0.025,-0.16749 0.0453,-0.25013 0.008,-0.0339 0.0258,-0.0698 0.0201,-0.10142 -0.0144,-0.0683 -0.046,-0.1281 -0.0324,-0.20632"
       style="fill:#21201d;fill-opacity:1;fill-rule:evenodd;stroke:none;stroke-width:0.184057"
       id="path684" />
  </g>
</svg>
