<?xml version="1.0" encoding="UTF-8" standalone="no"?>
<!-- Created with Inkscape (http://www.inkscape.org/) -->

<svg
   width="8.6413116mm"
   height="8.6886902mm"
   viewBox="0 0 8.6413116 8.6886902"
   version="1.1"
   id="svg1774"
   inkscape:version="1.1.2 (0a00cf5339, 2022-02-04)"
   sodipodi:docname="rm7.svg"
   xmlns:inkscape="http://www.inkscape.org/namespaces/inkscape"
   xmlns:sodipodi="http://sodipodi.sourceforge.net/DTD/sodipodi-0.dtd"
   xmlns="http://www.w3.org/2000/svg"
   xmlns:svg="http://www.w3.org/2000/svg">
  <sodipodi:namedview
     id="namedview1776"
     pagecolor="#ffffff"
     bordercolor="#666666"
     borderopacity="1.0"
     inkscape:pageshadow="2"
     inkscape:pageopacity="0.0"
     inkscape:pagecheckerboard="0"
     inkscape:document-units="mm"
     showgrid="false"
     inkscape:zoom="0.64052329"
     inkscape:cx="-1178.7237"
     inkscape:cy="875.06576"
     inkscape:window-width="2560"
     inkscape:window-height="1376"
     inkscape:window-x="0"
     inkscape:window-y="0"
     inkscape:window-maximized="1"
     inkscape:current-layer="layer1" />
  <defs
     id="defs1771" />
  <g
     inkscape:label="Layer 1"
     inkscape:groupmode="layer"
     id="layer1"
     transform="translate(-416.6019,82.828199)">
    <path
       d="m 423.77351,-79.098175 c -0.12147,0.268172 -0.57793,0.381 -0.79733,0.467323 -0.23228,0.09129 -0.50045,0.263019 -0.74616,0.279584 -0.11724,0.0079 -0.21148,-0.03957 -0.31787,-0.05466 0.0898,0.323574 0.38891,0.439346 0.52916,0.775804 0.0898,0.215716 0.0898,0.594691 0.25879,0.760712 0.13657,0.135098 0.35449,0.04178 0.48388,0.144485 0.14817,0.118717 0.23154,0.437138 0.30351,0.627637 -0.3567,0.148903 -0.3891,-0.186818 -0.55806,-0.370876 -0.22418,-0.244429 -0.56008,-0.18277 -0.72113,-0.507632 -0.10123,-0.204304 -0.13583,-0.487569 -0.22639,-0.711016 -0.0683,-0.167676 -0.11651,-0.325782 -0.19123,-0.468059 -0.1662,0.01638 -0.43566,-0.08485 -0.568,-0.06773 -0.37382,0.04896 -0.6788,0.132337 -1.0447,0.157553 -0.0359,0.07546 -0.0791,0.148719 -0.11209,0.230809 -0.12093,0.29983 -0.0734,0.531375 -0.13087,0.830285 -0.0547,0.282713 -0.23081,0.493276 -0.43713,0.622668 -0.21571,0.135283 -0.62045,0.01436 -0.59469,0.399774 -0.0718,0.0052 -0.16749,0.02595 -0.27387,0.04896 -0.10933,-0.03166 -0.22142,-0.04601 -0.33793,-0.04601 -0.0416,-0.04104 -0.0826,-0.08338 -0.12221,-0.128657 -0.001,-0.0094 -0.001,-0.01951 -0.003,-0.02963 0.22087,0.01804 0.3983,-0.04013 0.61548,-0.245165 0.0992,-0.09479 0.16823,-0.270197 0.27186,-0.360938 0.13804,-0.120005 0.3429,-0.142276 0.46732,-0.278111 0.22491,-0.245902 0.0905,-0.535609 0.20632,-0.813168 0.0144,-0.03387 0.0316,-0.06479 0.0517,-0.0935 -0.20338,-0.288971 -0.36019,-0.42996 -0.69242,-0.455912 -0.22565,-0.01859 -0.35946,0.02595 -0.55493,-0.123503 -0.27755,-0.212218 -0.70677,-0.581071 -0.58677,-0.89673 -0.009,-5.65e-4 -0.0186,-5.65e-4 -0.0272,-5.65e-4 l 0.0445,-0.03828 c 0.0339,-0.06166 0.0898,-0.122214 0.1754,-0.177431 0.50616,-0.330752 1.15901,0.02374 1.69112,0.05246 0.28473,0.01509 0.55861,-0.09276 0.82383,-0.08485 0.29762,0.0094 0.4883,0.11927 0.78666,0.08264 0.3867,-0.04822 0.78352,-0.06976 1.15955,0.04307 0.42922,0.128104 0.87868,0.122951 1.32723,0.168965 0.007,0.124423 -0.051,0.207065 -0.1524,0.259706 m -1.83265,3.069166 c -10e-4,0.03736 0.0144,0.09276 -0.003,0.126632 -0.44008,-0.136571 -0.8923,-1.246809 -0.7018,-1.799535 0.049,0.0013 0.0675,-0.02816 0.10933,-0.04104 0.0359,0.177616 0.17761,0.561561 0.27755,0.904461 0.046,0.160314 0.0747,0.331488 0.14798,0.471004 0.0777,0.147247 0.19713,0.186083 0.22363,0.392412 -0.0252,0.01657 -0.0381,-0.0416 -0.0539,-0.05393 m -2.35665,0.245901 c 0.25731,-0.309769 0.43713,-0.406216 0.59744,-0.783534 0.14596,-0.343085 0.55788,-0.836175 0.54426,-1.212942 0.13362,0.0243 0.12295,0.04675 0.17688,0.04233 -0.25971,0.752061 -0.23007,1.917516 -1.31858,1.954143 m -0.52003,-5.218214 c 0.16032,-0.1143 0.2229,-0.301302 0.36167,-0.441555 0.17762,-0.180376 0.33499,-0.222894 0.58089,-0.309769 0.3832,-0.136571 0.70474,-0.245165 1.14114,-0.189948 0.22565,0.02816 0.20338,0.01086 0.3659,0.103625 0.14817,0.08485 0.18903,0.217188 0.37235,0.259521 0.24811,0.05835 0.40548,-0.05025 0.62708,0.133811 0.19252,0.159578 0.48444,0.663528 0.45351,0.910902 -0.10196,-0.112091 -0.26375,-0.163995 -0.42203,-0.146694 -0.0114,-0.340875 -0.65267,-0.532111 -0.91016,-0.645675 -0.38247,-0.169702 -0.84408,-0.283265 -1.26889,-0.200623 -0.3624,0.07049 -0.59468,0.22363 -0.85199,0.450205 -0.16749,0.147983 -0.42572,0.541315 -0.66077,0.542051 -0.0928,-0.327071 0.28677,-0.334985 0.2113,-0.465851 m 6.14435,2.741359 c 0.0136,-0.0762 -0.0359,-0.150928 -0.0826,-0.21774 v 0.04528 c -0.005,0 -0.0101,7.41e-4 -0.0158,7.41e-4 -10e-4,-0.03681 -0.0109,-0.07418 -0.005,-0.109331 0.0193,-0.115772 0.0467,-0.230072 0.0668,-0.345845 0.006,-0.0324 0.005,-0.06829 -0.004,-0.100679 -0.0251,-0.106386 -0.0539,-0.212035 -0.0834,-0.317684 -0.025,-0.08706 -0.0495,-0.174119 -0.0797,-0.259706 -0.018,-0.05172 -0.0447,-0.09994 -0.0698,-0.147246 -0.0109,-0.02025 -0.0289,-0.03608 -0.0433,-0.05393 -0.006,-0.0072 -0.009,-0.0173 -0.0121,-0.02595 -0.0195,-0.05467 0.0245,-0.111356 -0.006,-0.165284 -0.0109,-0.01877 -0.0158,-0.04104 -0.0188,-0.06258 -0.008,-0.05964 -0.0129,-0.120742 -0.0201,-0.181297 -7.1e-4,-0.0099 -0.004,-0.02154 -0.0101,-0.03019 -0.033,-0.04675 -0.0676,-0.09129 -0.10068,-0.138779 -0.006,-0.0079 -0.002,-0.02227 -0.004,-0.0381 -0.0755,-0.06755 -0.10933,-0.174671 -0.18903,-0.250871 -0.072,-0.06976 -0.11651,-0.165284 -0.17412,-0.249399 -0.0381,-0.0554 -0.0769,-0.10933 -0.1143,-0.166204 -0.0316,-0.04877 -0.0834,-0.08117 -0.0883,-0.1524 -0.003,-0.0381 -0.0447,-0.07841 -0.0769,-0.10933 -0.0648,-0.06037 -0.13602,-0.115037 -0.2043,-0.171726 -0.001,0.01012 -0.004,0.02153 -0.004,0.03368 -0.004,0.0022 -0.009,0.0037 -0.0129,0.0052 -0.0274,-0.04031 -0.0534,-0.08062 -0.0813,-0.12019 -0.018,-0.02577 -0.0374,-0.05098 -0.0561,-0.07694 -0.0136,-0.01785 -0.028,-0.03736 -0.0401,-0.05595 -0.0223,-0.03313 -0.0433,-0.06626 -0.0655,-0.09847 -0.008,-0.01086 -0.0179,-0.01951 -0.0265,-0.03092 -0.0324,-0.04325 -0.0633,-0.08853 -0.0985,-0.129392 -0.009,-0.01086 -0.0316,-0.01086 -0.0482,-0.01307 -0.0238,-0.0035 -0.0497,7.37e-4 -0.072,-0.0057 -0.097,-0.02871 -0.1927,-0.05614 -0.28676,-0.08982 -0.0381,-0.0138 -0.0756,-0.0381 -0.10509,-0.06626 -0.0891,-0.08614 -0.20118,-0.145222 -0.28529,-0.240012 -0.044,-0.05043 -0.11651,-0.07841 -0.17835,-0.110803 -0.069,-0.03663 -0.14099,-0.06755 -0.21277,-0.09921 -0.0388,-0.0173 -0.0777,-0.04031 -0.11872,-0.04675 -0.0806,-0.01141 -0.16178,-0.01141 -0.24369,-0.01859 -0.0928,-0.0094 -0.18976,-0.0022 -0.27608,-0.04896 -0.0928,-0.05098 -0.19418,-0.04178 -0.29412,-0.04307 -0.007,0 -0.0166,5.53e-4 -0.0208,0.005 -0.0445,0.04233 -0.0957,0.02448 -0.14449,0.01509 -0.008,-0.0015 -0.0123,-0.02006 -0.0202,-0.0346 -0.023,-0.0035 -0.0525,-0.0099 -0.0812,-0.01067 -0.0618,-7.38e-4 -0.12516,0.0015 -0.187,0.0022 -0.0646,5.54e-4 -0.12939,0.0064 -0.19399,0.0013 -0.0606,-0.005 -0.12019,-0.0208 -0.18056,-0.03166 -7.1e-4,0 -10e-4,-0.0042 -0.002,-0.0042 -0.0243,-0.0022 -0.0517,-0.01141 -0.0725,-0.005 -0.0569,0.01933 -0.11227,0.0416 -0.16325,0.07105 -0.0265,0.01583 -0.0698,0.02374 -0.0683,0.07123 0,0.0064 -0.0114,0.01509 -0.0193,0.01951 -0.0309,0.01712 -0.0626,0.03295 -0.0942,0.04951 0,-0.005 7e-4,-0.0094 7e-4,-0.01436 -0.009,-0.0022 -0.0188,-0.0072 -0.0267,-0.0057 -0.046,0.0099 -0.0906,0.02227 -0.13657,0.03019 -0.0188,0.0035 -0.0396,-0.0079 -0.0574,-0.0044 -0.0712,0.01233 -0.14246,0.02742 -0.21369,0.04104 -0.0869,0.01656 -0.17394,0.03313 -0.26154,0.05025 -0.0124,0.0029 -0.0245,0.01159 -0.0361,0.01012 -0.0797,-0.01141 -0.14798,0.03166 -0.22289,0.04749 -0.0129,0.0022 -0.023,0.01933 -0.0344,0.03019 0.002,0.0015 0.004,0.0037 0.007,0.0057 l 0.0675,-0.02154 c 0.002,0.0044 0.004,0.0087 0.005,0.01289 -0.0473,0.03166 -0.094,0.06405 -0.14154,0.09571 -0.003,-0.0064 -0.004,-0.01288 -0.006,-0.01951 -0.0166,7.37e-4 -0.0368,-0.0028 -0.0497,0.0044 -0.0411,0.02301 -0.0791,0.05025 -0.11854,0.0762 -0.0633,0.04233 -0.12442,0.08908 -0.19123,0.12516 -0.0482,0.02503 -0.10785,0.02871 -0.15755,0.05319 -0.11577,0.05816 -0.23081,0.117797 -0.307,0.230809 -0.0272,0.04086 -0.0589,0.0797 -0.095,0.12792 -0.009,-0.0173 -0.0136,-0.02595 -0.0164,-0.03239 -0.0878,0.07344 -0.11945,0.176143 -0.17338,0.264675 -0.0495,0.0797 -0.10141,0.162339 -0.16676,0.2286 -0.0799,0.08043 -0.17614,0.143749 -0.26246,0.218477 -0.0856,0.07417 -0.10142,0.181297 -0.12792,0.283265 -0.0101,0.04104 -0.0195,0.08283 -0.0295,0.124423 -0.005,-0.0015 -0.0101,-0.0028 -0.0151,-0.0035 0.001,-0.01233 0.003,-0.02522 0.004,-0.03681 -0.0201,0.02025 -0.028,0.04473 -0.0416,0.06626 -0.0281,0.04601 -0.0598,0.08982 -0.09,0.133626 -0.008,0.01159 -0.0193,0.02025 -0.0272,0.03166 -0.0482,0.07197 -0.0964,0.143197 -0.14301,0.214979 -0.008,0.01307 -0.0109,0.02871 -0.0145,0.04454 -0.0186,0.08062 -0.0351,0.161787 -0.0574,0.241668 -0.0201,0.07325 -0.046,0.145958 -0.0697,0.218477 l -0.0116,-0.0035 c -0.003,-0.0072 -0.005,-0.01509 -0.006,-0.01877 -0.009,0.04602 -0.0215,0.09276 -0.0265,0.140252 -0.005,0.06037 -0.003,0.121479 -0.008,0.182586 -0.006,0.06258 0.006,0.127368 -0.0274,0.187003 -0.0186,0.03313 -0.0351,0.07123 -0.0416,0.108594 -0.0274,0.163075 -0.0482,0.326334 -0.13307,0.474501 -0.0618,0.107122 -0.0661,0.227864 -0.0445,0.345845 0.0344,0.191973 0.0683,0.385233 0.14375,0.568003 0.005,0.0099 0.0166,0.01712 0.0237,0.02724 0.0252,0.03884 0.0504,0.07767 0.0747,0.117245 l -0.008,0.0057 c -0.01,-0.0035 -0.0193,-0.0087 -0.028,-0.01215 0.0423,0.05522 0.0497,0.124239 0.0302,0.176143 -0.0223,0.0589 -0.0201,0.104177 0.006,0.154609 0.002,-0.0044 0.004,-0.0094 0.0138,-0.02448 0.004,0.04454 0.007,0.07767 0.01,0.111355 0.003,0.03663 0.004,0.0727 0.0101,0.107858 0.0344,0.199887 0.11429,0.385417 0.18405,0.573709 0.0698,0.189947 0.19621,0.345844 0.29762,0.517018 0.0532,0.08982 0.1259,0.17191 0.21498,0.237251 0.0992,0.07326 0.20062,0.143013 0.27038,0.253816 0.0482,0.07694 0.12516,0.13878 0.19344,0.202648 0.10841,0.102152 0.21848,0.202831 0.3313,0.299094 0.17614,0.149639 0.34879,0.308481 0.58898,0.351734 0.0158,0.0028 0.0322,5.65e-4 0.0488,0.0035 0.0569,0.01012 0.11577,0.01233 0.16749,0.03387 0.0532,0.02227 0.0979,0.06387 0.14669,0.09626 0.008,0.005 0.0202,0.0044 0.0302,0.0057 0.0158,0.0029 0.0353,0 0.0475,0.0087 0.095,0.06829 0.19344,0.12516 0.30848,0.155345 0.0804,0.02227 0.15957,0.05319 0.23945,0.08191 0.0258,0.0094 0.0503,0.03313 0.0762,0.03313 0.0985,0.0029 0.18553,0.04675 0.27885,0.06608 0.1373,0.02816 0.27479,0.06553 0.40842,-0.01509 0.0151,-0.0087 0.0388,-0.0035 0.0576,-0.002 0.0201,0.002 0.0388,0.01362 0.0574,0.01141 0.1813,-0.02227 0.36167,-0.04601 0.54278,-0.06902 0.09,-0.01215 0.1813,-0.02227 0.27259,-0.03368 0.0725,-0.0094 0.14448,-0.01657 0.21645,-0.02963 0.0891,-0.01583 0.17817,-0.03663 0.26743,-0.05522 0.004,-0.0015 0.009,7.41e-4 0.0144,0 0.0416,-0.0072 0.0883,-0.0044 0.12443,-0.02301 0.10712,-0.05614 0.20982,-0.12019 0.31491,-0.182033 0.0322,-0.01859 0.0589,-0.05522 0.10271,-0.02227 0.004,0.0029 0.0173,-0.0035 0.0252,-0.0079 0.10859,-0.05595 0.22565,-0.08264 0.34437,-0.101969 0.0841,-0.01307 0.12074,-0.07841 0.16823,-0.133073 0.005,-0.005 0.002,-0.01657 0.004,-0.0324 -0.0173,0.01436 -0.0289,0.02522 -0.041,0.03589 l -0.0109,-0.0064 c 0.0131,-0.02153 0.021,-0.04804 0.0388,-0.06313 0.0742,-0.06184 0.14669,-0.125896 0.22013,-0.188476 0.10786,-0.09203 0.19123,-0.212034 0.32136,-0.281056 0.0495,-0.02595 0.0876,-0.07473 0.13215,-0.111539 0.008,-0.0079 0.0203,-0.01141 0.0317,-0.01583 0.0999,-0.0381 0.19492,-0.08043 0.2424,-0.187555 0.0401,-0.09203 0.0812,-0.183322 0.12866,-0.271854 0.023,-0.04233 0.0567,-0.08117 0.092,-0.115036 0.14374,-0.135835 0.29541,-0.262282 0.3867,-0.444316 0.0316,-0.06258 0.0742,-0.119269 0.1108,-0.17964 0.0116,-0.01877 0.0208,-0.0381 0.028,-0.05908 0.0324,-0.08614 0.0677,-0.172462 0.0942,-0.260258 0.0245,-0.08191 0.0418,-0.16602 0.0589,-0.250134 0.0138,-0.06258 0.0188,-0.126632 0.0353,-0.18774 0.0216,-0.08338 0.0639,-0.163075 0.0718,-0.247189 0.008,-0.08559 0.026,-0.167677 0.0455,-0.249583 0.008,-0.03368 0.0265,-0.07049 0.0201,-0.101416 -0.0143,-0.06829 -0.0453,-0.12792 -0.0324,-0.206329"
       style="fill:#21201d;fill-opacity:1;fill-rule:nonzero;stroke:none;stroke-width:0.184057"
       id="path552" />
    <path
       d="m 419.64311,-79.322541 c -0.47597,0.02577 -0.94899,-0.04749 -1.42644,-0.0727 0.32284,0.148903 0.74488,0.510576 0.93041,0.630582 0.20706,0.13381 0.64843,0.386154 0.76714,0.690954 0.11559,-0.102152 0.24793,-0.193445 0.32137,-0.339403 0.008,0.04399 0.01,0.08485 0.007,0.122951 0.30038,-0.187555 0.6118,-0.192709 0.87206,-0.17688 0.0302,0.0015 0.2632,0.0138 0.47376,0.04969 -0.0158,-0.01435 -0.0324,-0.02871 -0.0503,-0.04178 0.12443,0.01362 0.25455,-0.01657 0.34861,-0.117061 10e-4,0.0381 0.006,0.07252 0.0116,0.105649 0.24664,-0.137308 0.48094,-0.347318 0.7088,-0.420573 0.15185,-0.04896 0.28842,-0.102152 0.42351,-0.14743 -0.65929,-0.06681 -1.47539,-0.3048 -1.67803,-0.325046 -0.59175,-0.05743 -1.11594,0.0094 -1.7097,0.04104"
       style="fill:#21201d;fill-opacity:1;fill-rule:nonzero;stroke:none;stroke-width:0.184057"
       id="path554" />
  </g>
</svg>
