<?xml version="1.0" encoding="UTF-8" standalone="no"?>
<!-- Created with Inkscape (http://www.inkscape.org/) -->

<svg
   width="8.6435976mm"
   height="8.6888437mm"
   viewBox="0 0 8.6435976 8.6888437"
   version="1.1"
   id="svg1916"
   inkscape:version="1.1.2 (0a00cf5339, 2022-02-04)"
   sodipodi:docname="rm8.svg"
   xmlns:inkscape="http://www.inkscape.org/namespaces/inkscape"
   xmlns:sodipodi="http://sodipodi.sourceforge.net/DTD/sodipodi-0.dtd"
   xmlns="http://www.w3.org/2000/svg"
   xmlns:svg="http://www.w3.org/2000/svg">
  <sodipodi:namedview
     id="namedview1918"
     pagecolor="#ffffff"
     bordercolor="#666666"
     borderopacity="1.0"
     inkscape:pageshadow="2"
     inkscape:pageopacity="0.0"
     inkscape:pagecheckerboard="0"
     inkscape:document-units="mm"
     showgrid="false"
     inkscape:zoom="0.64052329"
     inkscape:cx="-1291.1318"
     inkscape:cy="678.3516"
     inkscape:window-width="2560"
     inkscape:window-height="1376"
     inkscape:window-x="0"
     inkscape:window-y="0"
     inkscape:window-maximized="1"
     inkscape:current-layer="layer1" />
  <defs
     id="defs1913" />
  <g
     inkscape:label="Layer 1"
     inkscape:groupmode="layer"
     id="layer1"
     transform="translate(-446.34555,30.781378)">
    <path
       d="m 454.29462,-26.543781 c -0.007,0.0072 -0.0159,0.01067 -0.0254,0.01067 -0.0215,0 -0.0388,0.0015 -0.0532,0.0022 -0.0286,0.0057 -0.0589,0.01086 -0.0856,0.01435 -0.10213,0.02025 -0.20631,0.05319 -0.27535,0.07694 -0.20559,0.0727 -0.40622,0.115772 -0.61824,0.163259 l -0.0663,0.01436 c -0.0293,0.0064 -0.0589,0.01288 -0.0913,0.02006 -0.16969,0.03534 -0.381,0.07915 -0.51756,0.17688 -0.0539,0.0381 -0.10216,0.09 -0.15388,0.143933 -0.0663,0.07031 -0.13381,0.143013 -0.21717,0.189764 -0.0403,0.02301 -0.0784,0.03884 -0.11652,0.05393 -0.0626,0.02448 -0.11723,0.04601 -0.16602,0.09773 -0.0194,0.02006 -0.041,0.04325 -0.0641,0.06829 -0.0131,0.01436 -0.0272,0.03019 -0.0416,0.04528 0.0155,0.02374 0.0314,0.04325 0.051,0.06037 0.0495,0.04546 0.10418,0.08632 0.15734,0.126632 0.0512,0.0381 0.10365,0.07694 0.15314,0.121478 0.005,0.0044 0.008,0.0094 0.0102,0.01436 0.0317,0.08927 0.11282,0.159579 0.22712,0.199151 0.004,7.41e-4 0.006,0.0022 0.008,0.0022 0,0 0.004,-7.41e-4 0.005,-0.0015 0.004,-7.41e-4 0.006,-7.41e-4 0.01,-7.41e-4 0.006,0 0.0138,0.0022 0.0194,0.0059 0.0445,0.03018 0.0878,0.05595 0.12661,0.07822 0.0173,0.01012 0.0321,0.01951 0.0473,0.0289 0.0425,0.02577 0.0792,0.04877 0.14175,0.06755 0.0438,0.01288 0.0834,0.03166 0.11722,0.05595 0.005,0.0037 0.009,0.0086 0.012,0.01454 l 0.004,0.005 c 0,0.0035 0.004,0.0072 0.005,0.01141 0.0159,0.03884 0.0339,0.09001 0.0286,0.145958 0,0.01086 -0.006,0.02025 -0.0159,0.02669 -0.006,0.0035 -0.012,0.0064 -0.0194,0.0064 -0.004,0 -0.006,-7.41e-4 -0.01,-0.0015 -0.01,-0.0028 -0.018,-0.005 -0.0258,-0.0079 l -0.005,-0.0015 c -0.006,-0.002 -0.0113,-0.0057 -0.0159,-0.0099 -0.0718,-0.08062 -0.17392,-0.121478 -0.3313,-0.13381 -0.007,-7.4e-4 -0.0131,-0.0035 -0.018,-0.0064 -0.0152,-0.01141 -0.0268,-0.02374 -0.0366,-0.03589 l -0.007,-0.0079 c -0.046,-0.05117 -0.10841,-0.07546 -0.17392,-0.101416 -0.0381,-0.01509 -0.0777,-0.03092 -0.11504,-0.05172 -0.0913,-0.0519 -0.1675,-0.128657 -0.23946,-0.240196 l -0.006,-0.01012 c -0.0547,-0.08559 -0.0819,-0.127921 -0.171,-0.175407 -0.013,-0.0072 -0.0236,-0.01288 -0.0332,-0.01785 -0.0127,-0.0072 -0.0236,-0.01233 -0.0332,-0.01804 -0.0943,0.108594 -0.18831,0.229336 -0.27315,0.336458 l -0.005,0.0072 c -0.0574,0.07399 -0.0732,0.159578 -0.0898,0.250871 -0.0187,0.09571 -0.0366,0.195653 -0.10418,0.287682 -0.044,0.05816 -0.092,0.110067 -0.13878,0.159578 -0.0425,0.04454 -0.0863,0.09129 -0.12517,0.142277 -0.074,0.09792 -0.0797,0.125896 -0.10068,0.230072 l -0.004,0.01951 c -0.007,0.03442 -0.0138,0.07049 -0.0201,0.106385 -0.0279,0.143749 -0.0559,0.292652 -0.10269,0.437874 l -0.006,0.0208 v 0.0029 c 0.01,0.06608 0.0166,0.131601 0,0.21001 -0.01,0.04086 -0.0201,0.08411 -0.0317,0.130129 -0.0187,0.07252 -0.0381,0.148719 -0.0502,0.222158 -0.004,0.01712 -0.018,0.02945 -0.0353,0.02945 v 0 l -0.0106,-7.41e-4 c -0.006,0 -0.0131,0 -0.0194,-7.41e-4 -0.0173,0 -0.0317,-0.01583 -0.0339,-0.03313 v -7.41e-4 c 0,-0.0035 -0.004,-0.0072 -0.005,-0.01067 -0.006,-0.01086 -0.006,-0.02374 0,-0.03387 0,-0.01657 -0.004,-0.03368 -0.004,-0.05098 -0.006,-0.0381 -0.0145,-0.0762 -0.0229,-0.112827 -0.0222,-0.104361 -0.0453,-0.212219 -0.0453,-0.33517 0,-0.184058 0,-0.306272 -0.0633,-0.464378 -0.0303,-0.07694 -0.0495,-0.163996 -0.0675,-0.247374 -0.0229,-0.104913 -0.0475,-0.213507 -0.0935,-0.296149 -0.018,-0.03313 -0.0445,-0.06111 -0.072,-0.09129 -0.0208,-0.02245 -0.0431,-0.04546 -0.0611,-0.07123 -0.0532,-0.07344 -0.0775,-0.15829 -0.10195,-0.240932 -0.018,-0.06037 -0.0346,-0.117797 -0.0611,-0.170438 -0.0425,-0.08264 -0.10713,-0.148718 -0.1754,-0.220685 -0.046,-0.04675 -0.0928,-0.09553 -0.13306,-0.149455 -0.051,-0.06829 -0.10143,-0.115773 -0.15611,-0.166204 -0.0381,-0.03442 -0.0762,-0.07031 -0.11575,-0.113564 -0.0265,0.01804 -0.0539,0.0346 -0.0841,0.05172 -0.0194,0.0116 -0.0401,0.02301 -0.0611,0.03608 -0.0856,0.05246 -0.14006,0.135099 -0.19326,0.21498 -0.0662,0.10068 -0.13529,0.20412 -0.26468,0.250871 -0.11078,0.04105 -0.14817,0.09774 -0.19417,0.168965 -0.031,0.04822 -0.0661,0.102152 -0.12866,0.158106 -0.0618,0.05393 -0.13363,0.09497 -0.20338,0.134546 -0.0633,0.03515 -0.12883,0.07252 -0.18404,0.11927 -0.007,0.0059 -0.0152,0.0086 -0.0236,0.0086 0,0 -0.004,0 -0.005,-7.41e-4 -0.009,-7.41e-4 -0.018,-0.0057 -0.0243,-0.01362 0,-7.4e-4 -0.004,-0.0029 -0.004,-0.0037 -0.008,-0.01436 -0.006,-0.03294 0.006,-0.04528 0.0109,-0.0085 0.0187,-0.01785 0.0261,-0.0265 0.0229,-0.02945 0.0388,-0.05964 0.0554,-0.09129 0.0286,-0.05466 0.0582,-0.110803 0.12573,-0.16105 0.0229,-0.01657 0.0425,-0.02816 0.0583,-0.0381 0.0374,-0.02301 0.0545,-0.0324 0.0782,-0.08338 0.005,-0.0116 0.006,-0.02816 0.006,-0.04749 0,-0.02669 0,-0.05761 0.0162,-0.08853 0.0554,-0.111355 0.22362,-0.209826 0.33517,-0.274614 l 0.018,-0.01012 c 0.0907,-0.05319 0.0992,-0.08117 0.1143,-0.132154 0.008,-0.03018 0.0194,-0.067 0.0468,-0.1143 0.0346,-0.06184 0.11726,-0.142461 0.24518,-0.238723 -0.0532,-0.0381 -0.10841,-0.07491 -0.16235,-0.110067 l -0.0102,-0.0072 c -0.35525,-0.232281 -0.72905,-0.385417 -1.11153,-0.454439 -0.0611,-0.01067 -0.12147,-0.02301 -0.17907,-0.03515 -0.0366,-0.0079 -0.074,-0.01583 -0.10989,-0.02227 -0.005,-0.0015 -0.0109,-0.0037 -0.0145,-0.0064 l -0.005,-0.0044 c -0.0668,-0.04454 -0.15166,-0.06534 -0.2667,-0.06681 -0.005,0 -0.008,0 -0.0116,-0.0015 -0.10125,-0.03442 -0.18609,-0.05816 -0.2667,-0.07473 0,0 -0.004,0 -0.006,-7.4e-4 -0.006,-7.41e-4 -0.0123,-0.0029 -0.0173,-0.0072 -0.0113,-0.0094 -0.0265,-0.02153 -0.0438,-0.03166 -0.0127,-0.0086 -0.0194,-0.02522 -0.0152,-0.04031 0.004,-0.01215 0.0138,-0.02227 0.0265,-0.02503 l 0.0145,-0.0037 0.0303,-0.0072 c 0.0423,-0.0072 0.0854,-0.01657 0.12718,-0.02669 0.0676,-0.01288 0.13511,-0.02429 0.20136,-0.03515 l 0.0401,-0.0072 c 0.10862,-0.01086 0.21074,-0.03018 0.31862,-0.05025 0.0574,-0.0116 0.11723,-0.02319 0.17759,-0.0324 0.41487,-0.06828 0.86343,-0.297069 1.16544,-0.475973 0.10862,-0.06479 0.23008,-0.139516 0.32635,-0.2286 -0.0229,-0.0094 -0.0488,-0.01951 -0.0784,-0.02816 -0.0926,-0.02448 -0.12718,-0.04031 -0.12294,-0.101415 0,-0.01712 0.004,-0.03865 -0.0222,-0.0797 -0.0187,-0.0324 -0.0884,-0.06553 -0.14008,-0.08927 -0.0229,-0.01067 -0.0447,-0.02006 -0.0626,-0.03074 l -0.0282,-0.01583 c -0.0834,-0.04602 -0.12866,-0.07197 -0.14799,-0.187739 -0.006,-0.03515 -0.006,-0.06461 -0.006,-0.09129 0,-0.06037 0,-0.09056 -0.0633,-0.134546 -0.0201,-0.01436 -0.0396,-0.02798 -0.0584,-0.04012 -0.004,-0.0029 -0.006,-0.0064 -0.009,-0.0094 -0.0598,-0.08853 -0.12936,-0.149639 -0.2135,-0.186267 -0.005,-0.0028 -0.0109,-0.0072 -0.0137,-0.01288 -0.008,-0.01012 -0.0145,-0.0208 -0.0215,-0.03092 -0.01,-0.01362 -0.007,-0.03166 0.004,-0.04454 0.007,-0.0072 0.0138,-0.01509 0.0194,-0.02301 0.006,-0.0094 0.0173,-0.01509 0.0289,-0.01509 0.004,0 0.008,7.37e-4 0.0113,0.002 l 0.01,0.0037 c 0.0272,0.0094 0.0554,0.01933 0.0826,0.03166 0.13162,0.06258 0.21572,0.138779 0.31344,0.226391 0.0116,0.01012 0.0243,0.02025 0.0381,0.03018 0.0411,0.03166 0.0878,0.06773 0.1064,0.120926 0.0116,0.03221 0.01,0.0589 0.008,0.08043 -0.004,0.02742 -0.004,0.03884 0.0187,0.05963 0.0403,0.0381 0.13363,0.05467 0.21646,0.06976 0.0582,0.01086 0.11356,0.02025 0.15515,0.03736 0.12369,0.05043 0.14817,0.08853 0.19273,0.167677 0.006,0.01288 0.0145,0.0265 0.0229,0.0416 0.0339,-0.02577 0.0655,-0.05025 0.0878,-0.08191 0.0332,-0.04675 0.0646,-0.100679 0.0948,-0.153136 0.0433,-0.07546 0.0878,-0.153136 0.14023,-0.211483 0.21721,-0.239275 0.31715,-0.475973 0.4329,-0.749115 0.0243,-0.05687 0.048,-0.1143 0.0747,-0.173935 0.0626,-0.142461 0.0626,-0.246638 0.0626,-0.418548 0,-0.112091 0.0229,-0.209826 0.046,-0.3048 0.008,-0.03313 0.0159,-0.06681 0.0222,-0.100679 0,-0.01509 0.004,-0.03092 0.004,-0.04602 -0.006,-0.01012 -0.006,-0.02374 0,-0.03442 0,-0.0022 0.004,-0.0044 0.004,-0.0072 v -0.0022 c 0,-0.0116 0.004,-0.02154 0.006,-0.03239 0.004,-0.01583 0.0159,-0.02724 0.0318,-0.02871 l 0.005,-7.38e-4 h 0.005 l 0.01,-7.37e-4 c 0,0 0.004,-7.37e-4 0.004,-7.37e-4 0.0173,0 0.0324,0.01288 0.0353,0.03019 0.0116,0.07546 0.0339,0.153873 0.0546,0.230073 0.012,0.04178 0.0229,0.08062 0.0325,0.118717 0.0166,0.07049 0.0102,0.132153 0,0.189764 0.004,0.0064 0.005,0.01362 0.007,0.02006 0.0467,0.131601 0.0747,0.267436 0.10269,0.397013 0.007,0.03368 0.0131,0.06608 0.0201,0.09774 l 0.004,0.01656 c 0.0201,0.09332 0.0261,0.11927 0.0999,0.207065 0.0388,0.04602 0.0827,0.08761 0.12443,0.128657 0.0468,0.04528 0.0957,0.09129 0.13878,0.145222 0.0683,0.08411 0.0871,0.17467 0.10492,0.262466 0.0166,0.08191 0.0324,0.159578 0.09,0.224919 l 0.007,0.0094 c 0.0906,0.104361 0.19251,0.222894 0.29245,0.325782 0.0467,-0.06111 0.0915,-0.125895 0.12957,-0.190499 0.006,-0.01086 0.018,-0.01804 0.0303,-0.01804 0.004,0 0.005,7.37e-4 0.007,0.0015 0.006,7.37e-4 0.013,0.0015 0.0194,0.0015 0.0187,0 0.0633,-0.0052 0.0813,-0.05687 0.0236,-0.06976 0.0335,-0.143013 0.0431,-0.219949 0.006,-0.04528 0.0127,-0.09276 0.0222,-0.139516 0.004,-0.02025 0,-0.03884 -0.007,-0.05614 -0.005,-0.01067 -0.005,-0.02374 0,-0.03442 0.0279,-0.04896 0.0611,-0.08706 0.10138,-0.117245 0.004,-0.0029 0.007,-0.0064 0.0106,-0.01012 0.004,-0.0035 0.008,-0.0057 0.0123,-0.0079 0.0169,-0.0072 0.0353,-0.01288 0.0539,-0.01859 0.0328,-0.01086 0.0646,-0.02098 0.0928,-0.03884 0.005,-0.0029 0.009,-0.0057 0.0127,-0.0094 l 0.005,-0.0037 c 0.004,-0.002 0.006,-0.0035 0.008,-0.005 l 0.004,-7.37e-4 c 0.004,-7.38e-4 0.005,-0.0015 0.007,-0.0035 0.0697,-0.03608 0.12425,-0.09994 0.16235,-0.189212 0,-0.002 0.004,-0.0042 0.004,-0.0064 0.004,-0.0035 0.005,-0.0064 0.008,-0.0087 0.004,-0.0035 0.0102,-0.0057 0.0166,-0.0072 h 0.005 c 0.0194,0 0.0353,0.01583 0.0353,0.03608 0,5.54e-4 0,0.002 0,0.0028 0,0.01657 0,0.03387 0,0.05043 0,0.116325 -0.004,0.1905 -0.0275,0.230809 -0.0324,0.05025 -0.0891,0.08043 -0.14446,0.10841 -0.0381,0.02025 -0.0748,0.03957 -0.097,0.06258 -0.0626,0.06681 -0.069,0.136571 -0.0598,0.234489 l 0.004,0.02301 c 0.0159,0.15516 0.0145,0.189027 -0.12717,0.325598 -0.0806,0.07767 -0.17117,0.164732 -0.21795,0.256761 0.009,0.0079 0.0166,0.01583 0.0236,0.02301 0.0495,0.04675 0.10347,0.06608 0.16676,0.08835 0.0374,0.01362 0.0755,0.02816 0.11578,0.04822 0.0834,0.04307 0.15166,0.108594 0.21791,0.171726 0.051,0.0497 0.0999,0.09645 0.15314,0.130865 0.13656,0.08927 0.34861,0.129577 0.5183,0.161051 0.0325,0.0059 0.0626,0.0116 0.0913,0.0173 l 0.067,0.01362 c 0.21132,0.04252 0.41194,0.08283 0.6175,0.14743 0.0482,0.01509 0.1215,0.03736 0.20063,0.0554 0.0683,0.0064 0.13014,0.01657 0.18976,0.03018 0.008,0 0.0152,0 0.0236,7.41e-4 0.018,0 0.0339,0.01436 0.0346,0.03313 v 0.0042 c 0,0.0072 0,0.01509 0,0.02227 0,0.0094 -0.004,0.01877 -0.01,0.02522 m 0.68947,0.537081 c -0.0145,-0.06828 -0.0453,-0.127368 -0.0318,-0.205592 0.012,-0.07694 -0.0367,-0.151848 -0.0834,-0.217925 v 0.04454 c -0.005,7.41e-4 -0.0102,7.41e-4 -0.0152,0.0015 -0.004,-0.03663 -0.0116,-0.07399 -0.006,-0.110067 0.0194,-0.115036 0.0468,-0.229336 0.067,-0.345109 0.006,-0.03221 0.004,-0.06828 -0.004,-0.100679 -0.0261,-0.106386 -0.0554,-0.212035 -0.0848,-0.317684 -0.0236,-0.08706 -0.0495,-0.173935 -0.0792,-0.259522 -0.018,-0.05172 -0.0445,-0.09921 -0.0703,-0.148167 -0.0102,-0.01933 -0.0282,-0.03515 -0.0418,-0.05246 -0.006,-0.0079 -0.0102,-0.01804 -0.0138,-0.02724 -0.0187,-0.05393 0.0254,-0.110066 -0.006,-0.164732 -0.0102,-0.01877 -0.0159,-0.04104 -0.0187,-0.06184 -0.008,-0.06111 -0.0127,-0.121478 -0.0194,-0.181849 -0.004,-0.01086 -0.005,-0.02227 -0.0109,-0.03019 -0.0332,-0.04601 -0.0683,-0.09129 -0.10065,-0.138779 -0.006,-0.0079 -0.004,-0.02227 -0.004,-0.0381 -0.0756,-0.06829 -0.11007,-0.174671 -0.18994,-0.251055 -0.0718,-0.06902 -0.11705,-0.166021 -0.17392,-0.250135 -0.0381,-0.0554 -0.0769,-0.10933 -0.11356,-0.165284 -0.0324,-0.04896 -0.0841,-0.08135 -0.0893,-0.1524 -0.004,-0.0381 -0.0438,-0.07915 -0.0769,-0.10933 -0.0646,-0.06111 -0.13582,-0.115037 -0.20411,-0.172647 0,0.01086 -0.004,0.02227 -0.004,0.03387 l -0.0131,0.0057 c -0.0265,-0.04031 -0.0539,-0.08043 -0.0812,-0.120006 -0.018,-0.02669 -0.0374,-0.05117 -0.0554,-0.07694 -0.0145,-0.01877 -0.0279,-0.03736 -0.0416,-0.05614 -0.0219,-0.03313 -0.0426,-0.06608 -0.0648,-0.09847 -0.007,-0.0116 -0.018,-0.02006 -0.0261,-0.03092 -0.0328,-0.04307 -0.0646,-0.0878 -0.0992,-0.129393 -0.009,-0.01086 -0.0317,-0.01086 -0.048,-0.01362 -0.0236,-0.0029 -0.0497,0.0013 -0.0727,-0.0059 -0.0955,-0.02798 -0.19198,-0.05522 -0.2862,-0.08982 -0.0381,-0.01362 -0.0755,-0.0381 -0.10492,-0.06608 -0.0898,-0.08632 -0.20137,-0.144485 -0.28547,-0.239459 -0.0446,-0.05098 -0.11578,-0.07841 -0.17819,-0.110803 -0.069,-0.03663 -0.14171,-0.06755 -0.21293,-0.09921 -0.0388,-0.01712 -0.0777,-0.04012 -0.11854,-0.04675 -0.0806,-0.01141 -0.16178,-0.01141 -0.24313,-0.01933 -0.0933,-0.0087 -0.1905,-0.0015 -0.27665,-0.04896 -0.0927,-0.05098 -0.19417,-0.04086 -0.29411,-0.04307 -0.007,0 -0.0159,0.0015 -0.0208,0.0057 -0.0447,0.04252 -0.0957,0.02374 -0.14521,0.01509 -0.007,-0.0015 -0.0116,-0.02006 -0.0194,-0.03515 -0.0229,-0.0029 -0.0525,-0.01012 -0.0819,-0.01086 -0.0618,-7.37e-4 -0.12369,0.0022 -0.18627,0.0029 -0.0648,0.0015 -0.13014,0.0064 -0.19417,0.0015 -0.0611,-0.0052 -0.12002,-0.02098 -0.17963,-0.03239 0,0 -0.004,-0.0037 -0.004,-0.0037 -0.0243,-0.002 -0.0517,-0.01215 -0.0725,-0.005 -0.0562,0.01933 -0.11229,0.04178 -0.164,0.07123 -0.0261,0.01583 -0.069,0.02374 -0.0683,0.07105 0,0.0066 -0.0109,0.01509 -0.0187,0.01951 -0.031,0.0173 -0.0624,0.03387 -0.094,0.04951 0,-0.005 0,-0.0099 0,-0.01436 -0.009,-0.002 -0.0187,-0.0072 -0.0272,-0.0057 -0.046,0.0094 -0.0913,0.02227 -0.13656,0.03018 -0.0187,0.0029 -0.0389,-0.0072 -0.0576,-0.0042 -0.0711,0.01215 -0.14228,0.0265 -0.2135,0.04086 -0.0869,0.01656 -0.17392,0.03313 -0.26173,0.05043 -0.012,0.0022 -0.0251,0.01067 -0.0353,0.0094 -0.0806,-0.0116 -0.14887,0.03221 -0.22288,0.0473 -0.0138,0.0029 -0.0236,0.02025 -0.0353,0.03018 0.004,0.0022 0.005,0.0044 0.006,0.0066 l 0.0683,-0.02227 c 0,0.005 0.004,0.0085 0.005,0.01289 -0.0475,0.03239 -0.0942,0.06405 -0.14154,0.09626 -0.004,-0.0064 -0.004,-0.01288 -0.007,-0.02006 -0.0162,0.0015 -0.0366,-0.0022 -0.0495,0.0042 -0.041,0.02301 -0.0799,0.05117 -0.11871,0.0762 -0.0631,0.04325 -0.12421,0.09 -0.19124,0.125159 -0.048,0.02595 -0.10859,0.02871 -0.15734,0.05319 -0.11578,0.0589 -0.23082,0.118717 -0.30628,0.231545 -0.0282,0.04105 -0.0596,0.07915 -0.0965,0.127184 -0.008,-0.01638 -0.012,-0.02577 -0.0159,-0.03221 -0.0876,0.07399 -0.11853,0.176879 -0.17392,0.264491 -0.0495,0.08062 -0.10068,0.162523 -0.16601,0.229336 -0.0799,0.08062 -0.17689,0.143749 -0.26247,0.218661 -0.0856,0.07399 -0.10142,0.180377 -0.12792,0.282529 -0.0102,0.0416 -0.0194,0.08338 -0.0293,0.124423 -0.005,-7.37e-4 -0.0102,-0.0022 -0.0152,-0.0029 0.004,-0.01288 0.004,-0.02448 0.005,-0.03736 -0.0201,0.02006 -0.0279,0.04528 -0.0418,0.06681 -0.0279,0.04528 -0.0589,0.08927 -0.0898,0.13381 -0.008,0.01141 -0.0201,0.02006 -0.0272,0.03166 -0.0482,0.07105 -0.0965,0.143013 -0.14319,0.214979 -0.008,0.01215 -0.0106,0.02945 -0.0145,0.04381 -0.0194,0.08043 -0.0353,0.161787 -0.0574,0.24222 -0.0201,0.07344 -0.046,0.145222 -0.0697,0.217925 l -0.0116,-0.0029 c -0.004,-0.0079 -0.005,-0.01509 -0.006,-0.01933 -0.008,0.04601 -0.0208,0.09276 -0.025,0.140804 -0.006,0.06056 -0.004,0.122215 -0.009,0.18277 -0.005,0.0624 0.007,0.127184 -0.0268,0.186818 -0.0187,0.03313 -0.0353,0.07049 -0.0416,0.108595 -0.0275,0.163259 -0.0482,0.326334 -0.13307,0.474501 -0.0618,0.107122 -0.0661,0.227864 -0.0453,0.345109 0.0353,0.192708 0.069,0.386153 0.14449,0.568002 0.004,0.01086 0.0166,0.01804 0.0229,0.02798 0.0261,0.03884 0.0503,0.07767 0.0754,0.116509 -0.004,0.0022 -0.006,0.0044 -0.008,0.0064 -0.01,-0.0042 -0.018,-0.0085 -0.0272,-0.01288 0.0416,0.05614 0.0495,0.125159 0.0303,0.177616 -0.0222,0.05816 -0.0201,0.102888 0.005,0.153872 0.004,-0.005 0.005,-0.0094 0.0145,-0.02522 0.004,0.04528 0.006,0.07914 0.0102,0.112275 0.004,0.03589 0.004,0.07178 0.0102,0.107674 0.0346,0.199887 0.1143,0.385417 0.18408,0.573893 0.0697,0.189027 0.19618,0.345844 0.2976,0.516098 0.0525,0.09074 0.12573,0.172646 0.21424,0.23725 0.0999,0.07344 0.20063,0.143934 0.27037,0.254553 0.0495,0.07767 0.12573,0.138779 0.19399,0.202832 0.10862,0.101968 0.21795,0.202647 0.33151,0.299094 0.17614,0.149455 0.34805,0.307744 0.58878,0.35155 0.0159,0.0029 0.0332,7.41e-4 0.049,0.0035 0.0569,0.0094 0.11649,0.01233 0.16824,0.03313 0.0524,0.02227 0.097,0.06479 0.14594,0.09645 0.008,0.0057 0.0201,0.0042 0.0303,0.0064 0.0159,0.0028 0.0353,0 0.0475,0.0086 0.0942,0.06829 0.19342,0.124239 0.30772,0.155161 0.0812,0.02227 0.16031,0.05319 0.24,0.08135 0.0261,0.0099 0.0505,0.03368 0.0764,0.03442 0.0977,0.0015 0.18531,0.04601 0.27884,0.06479 0.13804,0.02871 0.27386,0.06608 0.40841,-0.01436 0.0145,-0.0087 0.0388,-0.0037 0.0582,-0.0022 0.0194,0.0022 0.0381,0.01362 0.0576,0.01086 0.18037,-0.02172 0.36018,-0.04602 0.5413,-0.06902 0.0913,-0.01159 0.1826,-0.02172 0.27333,-0.03387 0.0718,-0.0086 0.14447,-0.01657 0.21552,-0.02945 0.09,-0.01583 0.17836,-0.03589 0.26818,-0.05467 0.005,-0.0015 0.01,0 0.0145,-7.4e-4 0.0408,-0.0072 0.0883,-0.0035 0.12425,-0.02227 0.1071,-0.05614 0.21001,-0.120006 0.31418,-0.181849 0.0325,-0.01877 0.0598,-0.0554 0.10361,-0.02227 0.004,0.0028 0.0173,-0.0044 0.0261,-0.0079 0.10841,-0.05614 0.2249,-0.08338 0.34364,-0.102152 0.0841,-0.01288 0.12072,-0.07841 0.16895,-0.133074 0.004,-0.005 0,-0.01657 0.004,-0.03295 -0.0173,0.01509 -0.0286,0.02577 -0.0409,0.03589 l -0.0109,-0.0064 c 0.013,-0.02098 0.0208,-0.04749 0.0388,-0.06258 0.074,-0.06184 0.14668,-0.125896 0.21995,-0.188475 0.10785,-0.09203 0.19124,-0.212035 0.32135,-0.281057 0.0497,-0.0265 0.0878,-0.07473 0.13162,-0.112091 0.01,-0.0072 0.0212,-0.0116 0.0325,-0.01509 0.0999,-0.0381 0.19565,-0.08062 0.24221,-0.187739 0.0403,-0.09203 0.0813,-0.184058 0.12884,-0.27167 0.0229,-0.04252 0.0567,-0.08135 0.092,-0.115772 0.14301,-0.135283 0.29541,-0.262467 0.38671,-0.44358 0.031,-0.06258 0.0742,-0.119453 0.11077,-0.179824 0.0113,-0.01878 0.0208,-0.0381 0.0286,-0.0589 0.0317,-0.08632 0.0668,-0.172646 0.0935,-0.260258 0.0243,-0.08283 0.041,-0.16694 0.0589,-0.250319 0.0131,-0.06331 0.0194,-0.127184 0.0346,-0.188291 0.0222,-0.08264 0.0646,-0.163259 0.0725,-0.245901 0.008,-0.08632 0.0258,-0.168229 0.0453,-0.250871 0.008,-0.03387 0.0268,-0.07049 0.0201,-0.101416"
       style="fill:#21201d;fill-opacity:1;fill-rule:evenodd;stroke:none;stroke-width:0.184057"
       id="path572" />
    <path
       d="m 451.04346,-26.620717 c -0.20211,0.117981 -0.36315,0.312715 -0.51058,0.501742 -0.006,0.0086 -0.0166,0.01307 -0.0272,0.01307 h -0.005 c -0.0131,-0.0015 -0.0229,-0.0094 -0.0286,-0.02098 -0.0747,-0.178168 -0.23506,-0.477262 -0.4572,-0.477262 h -0.004 c -0.0159,0 -0.0293,-0.01012 -0.0335,-0.02595 -0.005,-0.01509 0,-0.03166 0.0152,-0.04031 0.11705,-0.07325 0.21495,-0.17467 0.31048,-0.272405 0.0755,-0.07767 0.15314,-0.158106 0.2402,-0.222894 0.006,-0.005 0.0138,-0.0072 0.0208,-0.0072 0.004,0 0.005,0 0.007,7.41e-4 0.0102,0.0015 0.0194,0.0079 0.0236,0.01657 0.0359,0.06111 0.0806,0.121478 0.13381,0.179641 0.004,0.0029 0.004,0.0044 0.005,0.0064 0.0675,0.118717 0.17688,0.220869 0.30772,0.28621 0.0113,0.0057 0.0187,0.0173 0.0194,0.03019 0,0.01362 -0.006,0.02595 -0.0169,0.0324 m 1.90095,-0.01877 c -0.14672,-0.03442 -0.29708,-0.0705 -0.42355,-0.145958 -0.15533,-0.09277 -0.32208,-0.193997 -0.49251,-0.307009 -0.0539,-0.03515 -0.11282,-0.0624 -0.16898,-0.08761 -0.0423,-0.02025 -0.0856,-0.03957 -0.12644,-0.06258 -0.0353,0.03736 -0.0756,0.06479 -0.1222,0.08338 -0.0346,0.01288 -0.0685,0.01583 -0.0999,0.01804 -0.0475,0.0028 -0.0841,0.0057 -0.12019,0.04086 -0.0173,0.01657 -0.0215,0.03681 -0.0265,0.06258 -0.005,0.02301 -0.0109,0.05043 -0.0275,0.07491 l -0.004,0.0028 c -0.0222,0.03387 -0.0425,0.06258 -0.0806,0.08559 -0.01,0.0057 -0.0208,0.0079 -0.0574,0.0079 -0.0755,0 -0.10932,0 -0.10932,-0.03884 0,-0.0037 0,-0.0079 0,-0.01141 -0.0145,-0.02595 -0.0268,-0.04896 -0.0368,-0.07049 0,-0.0029 -0.004,-0.0059 -0.004,-0.0086 -0.0208,-0.112827 0,-0.204304 0.0604,-0.279032 0.005,-0.0057 0.0117,-0.0099 0.0187,-0.01215 0.13935,-0.03608 0.29175,-0.08853 0.38026,-0.195654 -0.0366,-0.05246 -0.0755,-0.101968 -0.11649,-0.154608 -0.0626,-0.0797 -0.12791,-0.162339 -0.18408,-0.253632 -0.0453,-0.07418 -0.0883,-0.15332 -0.13084,-0.230073 -0.0804,-0.148902 -0.16457,-0.303511 -0.26892,-0.425726 -0.074,-0.08632 -0.13953,-0.197678 -0.18976,-0.319156 -0.0138,0.02798 -0.0293,0.05595 -0.046,0.08411 -0.0236,0.0416 -0.0482,0.08559 -0.0698,0.137308 -0.018,0.04528 -0.0236,0.0762 -0.0286,0.10344 -0.01,0.04896 -0.018,0.09056 -0.0814,0.16326 -0.21993,0.250134 -0.3773,0.467323 -0.46729,0.644202 -0.0431,0.08264 -0.0876,0.1524 -0.13861,0.214244 0.008,0.0037 0.018,0.0057 0.0279,0.0079 0.0236,0.0064 0.0467,0.01086 0.0676,0.01509 0.0819,0.01509 0.1524,0.02945 0.21202,0.124423 0.0194,0.03092 0.0289,0.0762 0.0388,0.120006 0.007,0.03313 0.0201,0.09497 0.0339,0.101416 0.0102,0.0042 0.0173,0.01288 0.0201,0.02301 0.004,0.01086 0,0.02153 -0.006,0.03018 -0.0201,0.02797 -0.0254,0.04381 -0.0286,0.05393 -0.01,0.02797 -0.0229,0.03957 -0.0576,0.04822 -0.004,0 -0.006,7.41e-4 -0.008,7.41e-4 -0.0106,0 -0.0215,-0.0052 -0.0279,-0.0138 -0.0856,-0.105649 -0.22934,-0.23725 -0.35673,-0.326335 -0.0201,-0.01436 -0.0453,-0.02374 -0.0696,-0.0324 -0.0655,0.05466 -0.13949,0.105649 -0.22363,0.164732 l -0.0268,0.01859 c -0.1064,0.07418 -0.22363,0.12019 -0.33648,0.164732 -0.0604,0.02301 -0.11649,0.04454 -0.17244,0.07049 -0.32283,0.153136 -0.68672,0.279584 -1.04048,0.363698 0.34364,0.0727 0.65285,0.166205 0.98855,0.340876 0.0547,0.02798 0.11081,0.05246 0.17121,0.07841 0.11281,0.04877 0.23078,0.09921 0.33644,0.181112 0.0159,0.01215 0.031,0.02448 0.046,0.03589 0.0403,-0.0265 0.072,-0.05319 0.10217,-0.08982 0.01,-0.01215 0.0194,-0.03092 0.0293,-0.05098 0.0166,-0.0324 0.0346,-0.06902 0.064,-0.09497 0.0891,-0.07988 0.18259,-0.08632 0.27019,-0.08632 0.0152,0 0.031,0 0.0482,0 0.0194,-0.0094 0.0446,-0.01509 0.0676,-0.01509 0.0346,0 0.0633,0.01233 0.0806,0.0346 0.0194,0.02374 0.0236,0.05595 0.0145,0.09553 -0.0173,0.0727 -0.1259,0.117245 -0.25453,0.16326 -0.0272,0.0094 -0.051,0.01804 -0.0654,0.02448 -0.11575,0.05467 -0.14888,0.0935 -0.19269,0.183322 0.0243,0.01804 0.0517,0.03368 0.0797,0.05025 0.0561,0.03313 0.11504,0.06755 0.16401,0.125159 0.004,0.0035 0.006,0.0087 0.007,0.01288 0.018,0.06111 0.0381,0.125159 0.0727,0.179824 0.0265,0.04454 0.0646,0.08191 0.11631,0.1143 0.006,0.0035 0.0102,0.0087 0.0138,0.01436 0.11779,0.238723 0.23428,0.430696 0.34639,0.572236 0.0683,0.08559 0.0972,0.186267 0.12369,0.28345 0.0131,0.04307 0.025,0.08614 0.0403,0.128656 0.0215,0.05743 0.046,0.105649 0.0705,0.1524 0.0152,0.03018 0.0311,0.06037 0.0445,0.09129 0.0497,-0.13381 0.11504,-0.256025 0.18828,-0.350815 0.10513,-0.135282 0.18923,-0.305536 0.26966,-0.470267 0.0425,-0.08485 0.0856,-0.172647 0.13085,-0.253816 0.0562,-0.09994 0.1215,-0.191237 0.18408,-0.280321 0.018,-0.02522 0.0353,-0.04969 0.0525,-0.07418 -0.006,-0.0042 -0.012,-0.0079 -0.0173,-0.01067 -0.0828,-0.04896 -0.087,-0.06037 -0.10361,-0.163996 l -0.006,-0.03442 c -0.0159,-0.09424 -0.0561,-0.148903 -0.13381,-0.180561 -0.0408,-0.0173 -0.0804,-0.02448 -0.11924,-0.03166 -0.0819,-0.01509 -0.1675,-0.03092 -0.19992,-0.153873 -0.0145,-0.03295 -0.0236,-0.105649 -0.004,-0.155161 0.0173,-0.04252 0.0532,-0.06626 0.10142,-0.06626 0.0131,0 0.0272,0.0022 0.0423,0.0052 0.0447,0.01068 0.0791,0.0646 0.11574,0.121478 0.018,0.02798 0.0368,0.05743 0.0505,0.06902 0.0475,0.04086 0.0769,0.05098 0.12294,0.06534 0.0194,0.0064 0.0416,0.01362 0.0676,0.02374 0.11797,0.04749 0.21498,0.122951 0.28251,0.219213 0.0641,-0.06111 0.14026,-0.09921 0.21353,-0.135835 0.0569,-0.02871 0.11501,-0.05743 0.16895,-0.097 0.17117,-0.12516 0.33792,-0.236515 0.49255,-0.338667 0.12661,-0.08338 0.27753,-0.12295 0.42425,-0.16105 0.0416,-0.01086 0.0834,-0.02153 0.12442,-0.03313 0.0394,-0.01141 0.0797,-0.02227 0.11998,-0.03295 -0.0403,-0.0094 -0.0806,-0.01878 -0.11945,-0.0289 -0.0408,-0.01068 -0.0826,-0.0208 -0.12421,-0.03019"
       style="fill:#21201d;fill-opacity:1;fill-rule:nonzero;stroke:none;stroke-width:0.184057"
       id="path574" />
  </g>
</svg>
