<?xml version="1.0" encoding="UTF-8" standalone="no"?>
<!-- Created with Inkscape (http://www.inkscape.org/) -->

<svg
   width="6.7867389mm"
   height="6.614583mm"
   viewBox="0 0 6.7867389 6.614583"
   version="1.1"
   id="svg2913"
   inkscape:version="1.1.2 (0a00cf5339, 2022-02-04)"
   sodipodi:docname="set.svg"
   xmlns:inkscape="http://www.inkscape.org/namespaces/inkscape"
   xmlns:sodipodi="http://sodipodi.sourceforge.net/DTD/sodipodi-0.dtd"
   xmlns="http://www.w3.org/2000/svg"
   xmlns:svg="http://www.w3.org/2000/svg">
  <sodipodi:namedview
     id="namedview2915"
     pagecolor="#ffffff"
     bordercolor="#666666"
     borderopacity="1.0"
     inkscape:pageshadow="2"
     inkscape:pageopacity="0.0"
     inkscape:pagecheckerboard="0"
     inkscape:document-units="mm"
     showgrid="false"
     inkscape:zoom="0.64052329"
     inkscape:cx="950.7851"
     inkscape:cy="2.3418352"
     inkscape:window-width="2560"
     inkscape:window-height="1376"
     inkscape:window-x="0"
     inkscape:window-y="0"
     inkscape:window-maximized="1"
     inkscape:current-layer="layer1" />
  <defs
     id="defs2910" />
  <g
     inkscape:label="Layer 1"
     inkscape:groupmode="layer"
     id="layer1"
     transform="translate(146.72994,-147.87769)">
    <g
       id="g642"
       transform="matrix(0.35277777,0,0,-0.35277777,-157.26918,226.50162)">
      <path
         d="m 36.711,211.406 c -0.715,0 -1.297,0.578 -1.297,1.293 0,0.719 0.582,1.297 1.297,1.297 0.715,0 1.293,-0.578 1.293,-1.297 0,-0.715 -0.578,-1.293 -1.293,-1.293 m -4.094,3.246 -1.418,-2.175 v -8.356 h 2.5 v 5.18 h 6.184 v -5.18 h 2.164 l 0.058,8.43 -1.23,2.125 -4.164,2.883 z"
         style="fill:#211e1e;fill-opacity:1;fill-rule:nonzero;stroke:none"
         id="path644" />
      <path
         d="m 32.047,204.762 h 8.297 v -0.641 h -8.297 z"
         style="fill:#211e1e;fill-opacity:1;fill-rule:nonzero;stroke:none"
         id="path646" />
      <path
         d="m 40.559,209.371 -7,-5.25 -0.399,0.531 7,5.25 z"
         style="fill:#211e1e;fill-opacity:1;fill-rule:nonzero;stroke:none"
         id="path648" />
      <path
         d="m 33.16,209.371 7,-5.25 0.399,0.531 -7,5.25 z"
         style="fill:#211e1e;fill-opacity:1;fill-rule:nonzero;stroke:none"
         id="path650" />
      <path
         d="m 41.313,215.176 2.351,-3.766 0.602,0.399 -2.489,3.964 -0.031,-0.019 0.004,0.008 -5.062,3.301 -0.016,-0.024 -4.852,-3.305 v -0.004 l -0.031,0.02 -1.914,-3.187 0.598,-0.403 1.781,2.992 4.453,3.11 z"
         style="fill:#211e1e;fill-opacity:1;fill-rule:nonzero;stroke:none"
         id="path652" />
      <path
         d="m 49.113,220.164 c 0,1.496 -1.39,2.707 -3.105,2.707 -1.715,0 -3.11,-1.211 -3.11,-2.707 0,-0.121 0.016,-0.242 0.032,-0.363 v -15.68 h 6.183 v 16.035 c 0,0.004 0,0.008 0,0.008"
         style="fill:#211e1e;fill-opacity:1;fill-rule:nonzero;stroke:none"
         id="path654" />
    </g>
  </g>
</svg>
