<?xml version="1.0" encoding="UTF-8" standalone="no"?>
<!-- Created with Inkscape (http://www.inkscape.org/) -->

<svg
   width="5.4068718mm"
   height="7.6415167mm"
   viewBox="0 0 5.4068718 7.6415167"
   version="1.1"
   id="svg1753"
   inkscape:version="1.1.2 (0a00cf5339, 2022-02-04)"
   sodipodi:docname="alient_interference.svg"
   xmlns:inkscape="http://www.inkscape.org/namespaces/inkscape"
   xmlns:sodipodi="http://sodipodi.sourceforge.net/DTD/sodipodi-0.dtd"
   xmlns="http://www.w3.org/2000/svg"
   xmlns:svg="http://www.w3.org/2000/svg">
  <sodipodi:namedview
     id="namedview1755"
     pagecolor="#ffffff"
     bordercolor="#666666"
     borderopacity="1.0"
     inkscape:pageshadow="2"
     inkscape:pageopacity="0.0"
     inkscape:pagecheckerboard="0"
     inkscape:document-units="mm"
     showgrid="false"
     inkscape:zoom="0.64052329"
     inkscape:cx="-1447.2542"
     inkscape:cy="608.09655"
     inkscape:window-width="2560"
     inkscape:window-height="1376"
     inkscape:window-x="0"
     inkscape:window-y="0"
     inkscape:window-maximized="1"
     inkscape:current-layer="layer1" />
  <defs
     id="defs1750" />
  <g
     inkscape:label="Layer 1"
     inkscape:groupmode="layer"
     id="layer1"
     transform="translate(-488.02846,12.495307)">
    <path
       d="m 491.61222,-8.1582029 c 0.1143,-0.034421 0.19417,-0.058899 0.25732,-0.078409 v -0.3169479 c -0.22716,0 -0.22786,-7.409e-4 -0.36943,0.1314174 -0.0124,0.012333 -0.0166,0.031658 -0.0229,0.043254 0.0473,0.078408 0.0933,0.1531359 0.13511,0.2206854 m -1.4732,-2.379133 c 0.0848,0.06976 0.17265,0.166205 0.28049,0.223631 0.1517,0.07988 0.30406,0.09203 0.49312,0.0727 0.17981,-0.01951 0.34949,-0.102888 0.45737,-0.233017 0.15018,-0.179088 0.14006,-0.588065 0.006,-0.79513 -0.12076,-0.186267 -0.32854,-0.264675 -0.51336,-0.36241 -0.0626,-0.03313 -0.16472,-0.0079 -0.25824,0.03589 -0.19766,0.09276 -0.31471,0.263939 -0.45572,0.408425 -0.0596,0.06111 -0.10932,0.222894 -0.0734,0.268909 0.0935,0.122214 0.041,0.243692 0.064,0.380999 m -1.25674,3.7034297 c -0.0272,0.2574971 0.0423,0.4616171 0.11282,0.677333 0.12094,0.3688521 0.34513,0.5917462 0.71046,0.702365 0.14228,0.043254 0.31697,0.026688 0.41268,0.1798246 0.13307,-0.040309 0.25658,0.1825854 0.40326,0.00865 0.0296,-0.034604 0.13307,-0.012884 0.20137,-0.00718 0.40989,0.033129 0.74337,-0.155345 1.06973,-0.365355 0.0734,-0.048039 0.18129,-0.082642 0.21149,-0.1509275 0.11722,-0.2652275 0.32924,-0.485913 0.37031,-0.7879518 0.0106,-0.073439 0.0747,-0.1489029 0.0631,-0.2142437 -0.0381,-0.2135071 -0.0834,-0.4284867 -0.15664,-0.6320546 -0.072,-0.1984146 -0.17335,-0.4284871 -0.37031,-0.4945638 -0.21572,-0.071967 -0.46806,-0.1912362 -0.70456,-0.013621 -0.17191,-0.020983 -0.35726,0.1358349 -0.5183,-0.040309 -0.0138,-0.015092 -0.0375,-0.024479 -0.0576,-0.028713 -0.10785,-0.023742 -0.67511,0.028713 -0.79238,0.047303 -0.21551,0.033867 -0.3889,0.1625233 -0.54349,0.2827129 -0.26892,0.2098262 -0.5104,0.4673233 -0.41194,0.8367275 m -0.3127,-2.8549226 c 0.12866,0.1890275 0.22786,0.3609376 0.37381,0.5024784 0.17836,0.1733825 0.65782,0.3997737 0.89432,0.4178113 0.22437,0.016383 0.45886,-0.066261 0.67384,0.059635 0.10714,-0.1150359 0.25806,-0.027425 0.38524,-0.079881 V -8.897381 c -0.0346,-0.00497 -0.0668,-0.016383 -0.0985,-0.012883 -0.36813,0.042518 -0.66795,-0.1330738 -0.94679,-0.3278071 -0.25107,-0.1761434 -0.47029,-0.3975651 -0.68379,-0.5830955 -0.03,-0.2416684 -0.0467,-0.4544394 -0.0848,-0.6629774 -0.0396,-0.21774 0.0539,-0.404007 0.15811,-0.563585 0.17117,-0.26173 0.38834,-0.494011 0.58678,-0.737704 0.0293,-0.03589 0.0596,-0.08043 0.0992,-0.097 0.28748,-0.12019 0.51185,-0.345108 0.78003,-0.483888 0.21572,-0.112275 0.48736,-0.179825 0.74415,-0.08135 0.0539,0.02025 0.0648,0.01307 0.10361,-0.01068 0.0335,-0.02153 0.0898,-0.02742 0.13014,-0.01583 0.0394,0.01068 0.0811,0.04454 0.10417,0.0797 0.0898,0.140252 0.29337,0.168413 0.34142,0.341612 0.0381,0.136571 0.0705,0.283265 0.11797,0.406952 0.0502,0.130865 -0.008,0.251607 0.0438,0.378239 0.0332,0.08264 -0.0113,0.223446 -0.0639,0.312714 -0.16249,0.278112 -0.23799,0.626902 -0.57662,0.769178 -0.17984,0.07491 -0.312,0.2459019 -0.52624,0.2510557 -0.0403,7.408e-4 -0.10287,0.050247 -0.11578,0.0381 -0.1301,-0.1316017 -0.28691,-0.028713 -0.47244,-0.084851 0.0374,0.061107 0.0453,0.092765 0.064,0.1006796 0.26744,0.1192695 0.51188,0.2775595 0.83174,0.2781116 0.56875,7.408e-4 0.88809,-0.094054 1.29283,-0.4629059 0.12146,-0.110803 0.26098,-0.202096 0.39903,-0.308481 0.0633,0.230808 0.12499,0.4608811 0.18901,0.6902173 0.01,0.030921 0.0381,0.060371 0.0359,0.089084 -0.0279,0.4133938 0.11373,0.8153763 0.0799,1.2309792 -0.007,0.08117 -0.11208,0.1560812 -0.0173,0.263755 0.0353,0.039573 0.0243,0.1632596 -0.0317,0.2567608 -0.046,0.078409 0.005,0.2107463 -0.0353,0.298358 -0.0582,0.1301287 -0.0374,0.2659637 -0.0727,0.3911229 -0.0303,0.1085942 -0.12075,0.1949175 -0.15441,0.3198929 -0.0749,0.2827129 -0.20062,0.5457317 -0.35891,0.7953142 -0.12425,0.1954696 -0.2739,0.3550475 -0.46091,0.4851767 -0.19967,0.1387796 -0.38449,0.3042475 -0.59817,0.4156029 -0.15882,0.083378 -0.30109,0.2214217 -0.50542,0.2171883 -0.0718,-0.00148 -0.14302,0.059635 -0.21551,0.061107 -0.0598,0.00148 -0.13603,-0.0762 -0.17763,-0.058162 -0.1294,0.055954 -0.25823,0.063132 -0.39405,0.063868 -0.43219,0.00222 -0.80673,-0.1638117 -1.17485,-0.3723492 -0.29394,-0.1669405 -0.56946,-0.3515508 -0.79954,-0.5989246 -0.074,-0.079881 -0.15663,-0.1726463 -0.18112,-0.2725896 -0.0653,-0.2674363 -0.17318,-0.5276942 -0.14869,-0.8151925 0.0201,-0.2365146 -0.0942,-0.4608813 -0.0727,-0.70531 0.0187,-0.2243667 0.0977,-0.4371376 0.0834,-0.670155 -0.012,-0.2157159 0.0604,-0.4329042 0.13236,-0.641258 0.0769,-0.2243663 0.15459,-0.4487329 0.23725,-0.6708908 0.0109,-0.02945 0.0475,-0.050248 0.0856,-0.088348"
       style="fill:#21201d;fill-opacity:1;fill-rule:nonzero;stroke:none;stroke-width:0.184057"
       id="path560" />
    <path
       d="m 493.14229,-10.575436 c -0.12168,-0.03166 -0.19421,-0.03092 -0.20507,-0.05669 -0.0906,-0.216453 -0.22564,-0.398302 -0.37232,-0.579599 -0.10436,-0.129393 -0.19844,-0.285474 -0.19565,-0.473765 0.18404,0.02448 0.24165,0.189027 0.26962,0.296885 0.0433,0.161051 0.2424,0.197126 0.23799,0.397566 -0.004,0.115036 0.14245,0.23228 0.26543,0.415602"
       style="fill:#21201d;fill-opacity:1;fill-rule:nonzero;stroke:none;stroke-width:0.184057"
       id="path562" />
    <path
       d="m 492.02486,-10.21597 c 0.37031,-0.150928 0.40767,-0.129393 0.41487,0.2236296 -0.0876,0.045278 -0.1603,0.107122 -0.27958,0.0381 -0.10657,-0.061844 -0.14523,-0.1293926 -0.13529,-0.2617296"
       style="fill:#21201d;fill-opacity:1;fill-rule:nonzero;stroke:none;stroke-width:0.184057"
       id="path564" />
    <path
       d="m 490.2627,-7.2473004 c 0.21075,-0.2659637 0.46955,-0.3953562 0.78797,-0.4047433 0.16894,-0.1474304 0.30995,-0.041781 0.43508,0.063316 0.0733,0.061107 0.15811,0.1538725 0.16531,0.2387233 0.0113,0.1350984 0.11797,0.2637551 0.051,0.3990376 -0.0574,0.1163246 -0.0152,0.2466375 -0.13438,0.3666433 -0.21791,0.2199492 -0.43289,0.3285434 -0.71688,0.2422201 -0.0718,-0.021534 -0.14523,-0.042333 -0.21205,-0.073991 -0.0683,-0.033129 -0.14446,-0.067549 -0.18902,-0.124423 -0.044,-0.055402 -0.0583,-0.1373074 -0.0762,-0.2098262 -0.041,-0.1697013 -0.0762,-0.340875 -0.11081,-0.4969563"
       style="fill:#21201d;fill-opacity:1;fill-rule:nonzero;stroke:none;stroke-width:0.184057"
       id="path566" />
    <path
       d="m 489.82981,-5.8409137 c -0.092,0.025217 -0.18461,0.059635 -0.27958,0.074727 -0.1108,0.018038 -0.16749,-0.053929 -0.18259,-0.1531362 -0.0109,-0.068285 -0.004,-0.1395159 -0.004,-0.2085379 0.004,-0.2501346 0.0999,-0.3162113 0.34216,-0.2372505 0.041,0.013067 0.0813,0.028896 0.1222,0.041781 0.031,0.00939 0.0626,0.015092 0.0871,0.0208 -0.0279,0.1496391 -0.0547,0.2897071 -0.0871,0.4616174"
       style="fill:#21201d;fill-opacity:1;fill-rule:nonzero;stroke:none;stroke-width:0.184057"
       id="path568" />
  </g>
</svg>
