<?xml version="1.0" encoding="UTF-8" standalone="no"?>
<!-- Created with Inkscape (http://www.inkscape.org/) -->

<svg
   width="6.5002847mm"
   height="6.8109503mm"
   viewBox="0 0 6.5002847 6.8109503"
   version="1.1"
   id="svg1912"
   inkscape:version="1.1.2 (0a00cf5339, 2022-02-04)"
   sodipodi:docname="dark_rituals.svg"
   xmlns:inkscape="http://www.inkscape.org/namespaces/inkscape"
   xmlns:sodipodi="http://sodipodi.sourceforge.net/DTD/sodipodi-0.dtd"
   xmlns="http://www.w3.org/2000/svg"
   xmlns:svg="http://www.w3.org/2000/svg">
  <sodipodi:namedview
     id="namedview1914"
     pagecolor="#ffffff"
     bordercolor="#666666"
     borderopacity="1.0"
     inkscape:pageshadow="2"
     inkscape:pageopacity="0.0"
     inkscape:pagecheckerboard="0"
     inkscape:document-units="mm"
     showgrid="false"
     inkscape:zoom="0.64052329"
     inkscape:cx="-1317.6726"
     inkscape:cy="370.79058"
     inkscape:window-width="2560"
     inkscape:window-height="1376"
     inkscape:window-x="0"
     inkscape:window-y="0"
     inkscape:window-maximized="1"
     inkscape:current-layer="layer1" />
  <defs
     id="defs1909" />
  <g
     inkscape:label="Layer 1"
     inkscape:groupmode="layer"
     id="layer1"
     transform="translate(-453.60924,-50.294101)">
    <path
       d="m 457.73504,55.115572 c -0.18975,0.0611 -0.36166,0.116509 -0.55713,0.179088 -0.0217,0.208354 -0.041,0.442842 -0.0734,0.675859 -0.0201,0.145775 0.0388,0.273142 0.0906,0.393149 0.0791,0.181296 0.1373,0.378238 0.28399,0.542234 -0.18829,0.0646 -0.37308,0.127921 -0.57793,0.19915 -0.0203,-0.01087 -0.0633,-0.0309 -0.10363,-0.05466 -0.14153,-0.08264 -0.14153,-0.08338 -0.0804,-0.254554 0.10639,-0.303512 0.1143,-0.703837 0.0215,-1.075633 -0.006,-0.02872 0.007,-0.06332 -10e-4,-0.09129 -0.0351,-0.107858 -0.0569,-0.227129 -0.11926,-0.317133 -0.0655,-0.09405 -0.18921,-0.03514 -0.28621,-0.04012 -0.2078,-0.01013 -0.41983,0.02723 -0.61843,-0.06405 -0.0775,-0.03517 -0.15737,-0.06976 -0.22639,-0.118721 -0.0668,-0.04528 -0.11724,-0.105646 -0.10141,-0.202646 0.0245,-0.154608 -0.0475,-0.323575 0.0641,-0.464562 0.0755,-0.09552 0.15957,-0.186821 0.26743,-0.245717 0.0762,-0.04105 0.13878,-0.0079 0.35726,0.147246 -0.0466,0.01161 -0.0755,0.02226 -0.10565,0.02448 -0.14025,0.01087 -0.25805,0.103625 -0.261,0.216453 -10e-4,0.09424 0.0317,0.220684 0.11357,0.316396 0.0863,0.10068 0.21,0.09479 0.31363,0.137305 0.1027,0.0416 0.22933,-0.01584 0.34437,0.06037 0.0547,0.03663 0.12644,-0.04307 0.13509,-0.120742 0.0238,-0.225838 0.0339,-0.454438 0.0648,-0.679542 0.0287,-0.206329 0.0812,-0.408975 0.0589,-0.619721 -0.0208,-0.205595 -7e-4,-0.42775 -0.074,-0.613283 -0.0547,-0.138779 -0.0131,-0.287683 -0.0994,-0.422046 -0.0387,-0.0589 -0.051,-0.180375 -0.10344,-0.225837 -0.0648,-0.05522 -0.17835,-0.06037 -0.27259,-0.07252 -0.0891,-0.01087 -0.18608,0.0151 -0.24001,-0.0913 0.0712,-0.0309 0.15664,-0.103625 0.21498,-0.08559 0.0891,0.0267 0.1524,-0.117242 0.23154,-0.01584 0.0287,-0.02448 0.0589,-0.04822 0.0848,-0.0762 0.004,-0.0042 -0.0217,-0.03094 -0.018,-0.04178 0.0935,-0.25805 0.10638,-0.526221 0.0906,-0.796604 -10e-4,-0.02505 -0.0302,-0.04804 -0.041,-0.07473 -0.0891,-0.218478 -0.17817,-0.437137 -0.26302,-0.657824 -0.0123,-0.03387 -10e-4,-0.07693 -10e-4,-0.108592 0.0661,0.01161 0.12866,0.0438 0.164,0.02596 0.17099,-0.08853 0.34934,-0.123687 0.55934,-0.101416 0.0129,0.08761 0.023,0.163812 -0.0316,0.268174 -0.0712,0.134363 -0.0935,0.29615 -0.0799,0.457934 0.0116,0.142462 0.0101,0.286949 0,0.429962 -0.0107,0.155342 0.0596,0.276084 0.11503,0.412658 0.0576,0.141722 0.15958,0.18553 0.24664,0.136017 0.0992,-0.05614 0.1581,0.0065 0.23081,0.01436 0.10785,0.01069 0.19767,0.0992 0.32504,0.005 0.0503,-0.03736 0.20762,0.0021 0.26817,0.05816 0.10197,0.09497 0.15884,0.237437 0.2494,0.347317 0.0777,0.09424 0.051,0.199887 0.0339,0.288971 -0.018,0.09792 -0.0769,0.201362 -0.1489,0.271854 -0.0791,0.07767 -0.18774,0.149641 -0.29338,0.168966 -0.0898,0.01658 -0.20063,-0.03238 -0.28824,-0.07767 -0.0819,-0.04233 -0.0913,-0.12645 -0.0316,-0.207804 0.0201,0 0.0517,-0.0079 0.0589,0.0014 0.0683,0.09203 0.18627,0.08853 0.24664,0.05025 0.0849,-0.05319 0.15314,-0.155162 0.19344,-0.251608 0.0223,-0.05319 -0.004,-0.165283 -0.0482,-0.200621 -0.11853,-0.09405 -0.22436,-0.232833 -0.37603,-0.253633 -0.11209,-0.01527 -0.23504,0.0473 -0.35302,0.07473 -0.0374,0.0094 -0.074,0.02007 -0.11209,0.02649 -0.0777,0.0151 -0.1338,0.05908 -0.12736,0.138779 0.0101,0.112829 -0.0639,0.215716 -0.0567,0.312162 0.0258,0.344371 -0.0819,0.677884 -0.0648,1.018025 0.007,0.163075 0.0294,0.333513 0.0878,0.484625 0.0317,0.08043 -0.10859,0.145955 0.0151,0.22418 0.0547,0.03461 0.0532,0.156083 0.0777,0.237987 0.0245,0.08282 0.0488,0.164733 0.0834,0.281979 0.1524,0.02649 0.33222,0.05816 0.54499,0.09626"
       style="fill:#21201d;fill-opacity:1;fill-rule:nonzero;stroke:none;stroke-width:0.184057"
       id="path576" />
    <path
       d="m 459.25627,53.489235 c 0,-0.286946 0.007,-0.551437 -0.003,-0.816112 -0.005,-0.1351 -0.0438,-0.268725 -0.0569,-0.404742 -0.0136,-0.125713 -0.0201,-0.247929 -0.0525,-0.376033 -0.0569,-0.224183 -0.20265,-0.358729 -0.36167,-0.488121 -0.11283,-0.09277 -0.24664,-0.145958 -0.40769,-0.1316 -0.10122,0.0094 -0.20982,-0.06037 -0.3105,-0.04951 -0.12939,0.01436 -0.25308,-0.164733 -0.37971,-0.0066 h -0.42774 c -0.0403,-0.06387 -0.0453,-0.09258 0.0425,-0.127921 0.1546,-0.06111 0.32209,-0.01803 0.46437,-0.06534 0.18903,-0.06258 0.37382,-0.04105 0.56082,-0.0519 0.041,-0.0028 0.092,-0.01637 0.12147,0.0021 0.19695,0.126633 0.44008,0.118717 0.64273,0.227863 0.11724,0.06332 0.32854,0.322837 0.34952,0.463829 0.0329,0.209271 0.11706,0.403271 0.16528,0.607575 0.0158,0.06607 0.0195,0.137304 0.0202,0.205592 0.002,0.348054 7.1e-4,0.695921 7.1e-4,1.051891 0.0863,0.02448 0.16326,0.03295 0.25381,-0.01161 0.0641,-0.03239 0.14891,-0.02374 0.23155,-0.03443 v 0.362228 h -0.47524 c -0.004,0.08779 -0.009,0.165467 -0.009,0.243876 -0.008,0.451495 -0.30259,0.769912 -0.74763,0.812433 -0.0734,0.0072 -0.17044,0.06902 -0.21075,0.04086 -0.069,-0.04951 -0.14798,-0.0624 -0.1962,-0.03663 -0.14301,0.07546 -0.29118,0.04675 -0.43787,0.05687 -0.14891,0.01069 -0.26817,-0.04325 -0.38689,-0.170437 0.0907,-0.0057 0.16473,-0.01161 0.23946,-0.01436 0.31934,-0.01288 0.63922,0.02723 0.95764,-0.05835 0.24019,-0.0646 0.34235,-0.16952 0.35302,-0.421309 0.006,-0.135099 0.0237,-0.270199 0.0388,-0.428487 -0.0322,-0.0035 -0.0876,-0.01288 -0.14301,-0.01288 -0.15756,0.0021 -0.31492,0.0094 -0.4537,-0.09203 -0.0351,-0.02596 -0.092,-0.02723 -0.13952,-0.0302 -0.0819,-0.0044 -0.16528,-0.01161 -0.2459,7.05e-4 -0.28326,0.04233 -0.55216,-0.08412 -0.83396,-0.06829 -0.0582,0.0035 -0.12,-0.05043 -0.18331,-0.07988 0.0582,-0.09774 0.12368,-0.130867 0.24093,-0.07547 0.0747,0.03589 0.18461,0.0589 0.25804,0.03164 0.22437,-0.08338 0.43143,-0.06258 0.66003,-0.0057 0.13951,0.03514 0.307,0.0473 0.46805,-0.04031 0.0942,-0.05172 0.2402,-0.0094 0.39388,-0.0094"
       style="fill:#21201d;fill-opacity:1;fill-rule:nonzero;stroke:none;stroke-width:0.184057"
       id="path578" />
    <path
       d="m 453.85827,54.011223 c -0.0883,-0.03443 -0.15461,-0.05098 -0.20909,-0.08632 -0.0252,-0.0151 -0.0475,-0.08835 -0.0375,-0.09774 0.10509,-0.09056 0.0281,-0.212771 0.067,-0.325784 h 0.15093 c 0.0287,-0.08687 0.0504,-0.169516 0.0848,-0.245716 0.0676,-0.14743 0.10417,-0.320813 0.32707,-0.32578 0.0655,-0.0014 0.12957,-0.07547 0.19491,-0.115775 0.0547,0.1143 0.10786,-0.0094 0.16399,-0.0028 0.0804,0.0086 0.17247,0.02522 0.2437,-0.0028 0.17393,-0.06681 0.36167,-0.09203 0.52474,-0.04528 0.14596,0.04233 0.29062,0.03295 0.44229,0.0589 -0.0957,0.106383 -0.2078,0.120741 -0.33222,0.115771 -0.18332,-0.0065 -0.36812,-0.0094 -0.55144,7.05e-4 -0.13583,0.0079 -0.27608,0.02007 -0.40271,0.06405 -0.14946,0.05172 -0.21351,0.191237 -0.24148,0.339954 -0.0109,0.0589 -10e-4,0.121479 -10e-4,0.202833 h 2.18144 c -0.20136,0.127921 -0.36885,0.194733 -0.56082,0.189763 -0.11798,-0.0028 -0.23007,0 -0.34511,0.0554 -0.12221,0.05816 -0.26025,0.07473 -0.40198,0.06976 -0.30479,-0.01013 -0.61033,-0.0028 -0.94549,-0.0028 0.0281,0.08706 0.067,0.155346 0.067,0.222892 7.1e-4,0.07326 -0.0532,0.146696 -0.0532,0.21995 10e-4,0.241671 0.0186,0.483154 0.0258,0.72335 7.1e-4,0.03883 -0.0265,0.07693 -0.028,0.115034 -0.007,0.286212 0.051,0.563033 0.17044,0.818875 0.10638,0.230071 0.28178,0.362408 0.55143,0.431433 0.29191,0.07473 0.57591,0.117242 0.87206,0.107121 0.0957,-0.0028 0.19491,0.03164 0.28841,-0.05246 0.0302,-0.02596 0.13657,0.03312 0.24295,0.06258 -0.38964,0.186083 -0.76291,0.189766 -1.13672,0.1732 -0.0834,-0.0028 -0.16676,-0.0381 -0.25014,-0.05816 -0.0834,-0.02025 -0.1662,-0.04749 -0.2516,-0.05982 -0.0764,-0.01069 -0.15185,-0.04012 -0.22087,-0.05319 -0.2551,-0.0473 -0.37382,-0.23725 -0.44284,-0.432721 -0.10859,-0.307742 -0.22565,-0.628371 -0.18185,-0.962805 0.0114,-0.08908 -0.11724,-0.138045 -0.0252,-0.234307 0.0641,-0.06828 -0.0144,-0.143013 -0.0453,-0.212771 -0.0116,-0.02522 -0.0144,-0.06902 0,-0.08927 0.12001,-0.176879 0.0267,-0.375296 0.0661,-0.565058"
       style="fill:#21201d;fill-opacity:1;fill-rule:nonzero;stroke:none;stroke-width:0.184057"
       id="path580" />
  </g>
</svg>
