<?xml version="1.0" encoding="UTF-8" standalone="no"?>
<!-- Created with Inkscape (http://www.inkscape.org/) -->

<svg
   width="2.3331659mm"
   height="7.1798663mm"
   viewBox="0 0 2.3331659 7.1798663"
   version="1.1"
   id="svg2057"
   inkscape:version="1.1.2 (0a00cf5339, 2022-02-04)"
   sodipodi:docname="excelsior_management.svg"
   xmlns:inkscape="http://www.inkscape.org/namespaces/inkscape"
   xmlns:sodipodi="http://sodipodi.sourceforge.net/DTD/sodipodi-0.dtd"
   xmlns="http://www.w3.org/2000/svg"
   xmlns:svg="http://www.w3.org/2000/svg">
  <sodipodi:namedview
     id="namedview2059"
     pagecolor="#ffffff"
     bordercolor="#666666"
     borderopacity="1.0"
     inkscape:pageshadow="2"
     inkscape:pageopacity="0.0"
     inkscape:pagecheckerboard="0"
     inkscape:document-units="mm"
     showgrid="false"
     inkscape:zoom="0.64052329"
     inkscape:cx="4.6836705"
     inkscape:cy="13.2704"
     inkscape:window-width="2560"
     inkscape:window-height="1376"
     inkscape:window-x="0"
     inkscape:window-y="0"
     inkscape:window-maximized="1"
     inkscape:current-layer="layer1" />
  <defs
     id="defs2054" />
  <g
     inkscape:label="Layer 1"
     inkscape:groupmode="layer"
     id="layer1"
     transform="translate(-103.75361,-144.91052)">
    <path
       d="m 105.3692,146.15185 c 0.0732,-0.0725 0.1603,-0.13657 0.21477,-0.22142 0.0505,-0.0777 0.10143,-0.18185 0.0908,-0.26744 -0.0361,-0.28124 -0.2934,-0.3983 -0.55735,-0.27186 -0.0574,0.0274 -0.12368,0.044 -0.17096,0.0834 -0.1108,0.0907 -0.24518,0.0841 -0.34734,0.0339 -0.22786,-0.11283 -0.38026,-0.0497 -0.48091,0.10215 0.0243,0.20412 0.0445,0.36444 0.0618,0.50966 0.0985,0.0309 0.18828,0.0683 0.28251,0.0841 0.0589,0.0101 0.15314,0.0101 0.18037,-0.0252 0.10566,-0.13584 0.27111,-0.13731 0.36887,-0.0854 0.12516,0.0668 0.23872,0.0409 0.35743,0.0582 m 0.71745,-0.0272 c -0.20285,0.20559 -0.39536,0.42058 -0.71395,0.44708 -0.0325,0.002 -0.11653,0.0482 -0.0532,0.1697 0.0618,0.12074 0.0561,0.30848 -0.0525,0.44505 -0.0683,0.0848 -0.0697,0.1813 -0.0697,0.28253 0,0.59745 0.004,1.19435 0,1.7918 0,0.13087 0.0792,0.25511 0.006,0.39389 -0.0381,0.072 0.004,0.17338 0.0821,0.19786 0.0769,0.0236 0.16951,0.005 0.25361,-0.007 0.0268,-0.004 0.0455,-0.051 0.0742,-0.069 0.12442,-0.079 0.25012,-0.0329 0.27386,0.11154 0.0286,0.17044 0.0584,0.33866 0.12735,0.49971 0.0201,0.0445 0.0187,0.11651 -0.005,0.15885 -0.10784,0.19491 -0.031,0.4005 -0.0467,0.60039 -0.004,0.0416 0.0512,0.0883 0.0814,0.1351 -0.34307,0.164 -0.34307,0.164 -0.60406,-0.0849 -0.26024,0.17982 -0.25439,0.45076 -0.23929,0.73476 -0.0927,0.0554 -0.18478,0.1108 -0.26465,0.15829 -0.0762,-0.0317 -0.14598,-0.0438 -0.19124,-0.0834 -0.0453,-0.041 -0.0827,-0.1051 -0.0957,-0.16473 -0.0314,-0.16032 -0.0646,-0.30977 -0.16676,-0.4515 -0.0532,-0.074 -0.0222,-0.21 -0.0293,-0.31842 0.13014,-0.0339 -0.0697,-0.11577 0.0272,-0.17908 0.0411,-0.0267 0.0145,-0.14743 0.0303,-0.2229 0.0145,-0.0727 0.0532,-0.14099 0.0639,-0.2135 0.0116,-0.0791 -0.004,-0.16105 0.006,-0.24094 0.007,-0.0596 0.0527,-0.11651 0.0527,-0.17467 0,-0.0604 -0.0418,-0.12 -0.0539,-0.18185 -0.0317,-0.15829 0.0574,-0.30424 0.0631,-0.45444 0.0138,-0.42425 0.0403,-0.85421 -0.009,-1.27331 -0.0296,-0.24443 -0.0468,-0.48683 -0.0547,-0.73126 0,-0.0344 0.0138,-0.0884 -0.004,-0.10068 -0.1905,-0.14228 -0.12573,-0.34566 -0.13512,-0.53119 -0.008,-0.14669 -0.0561,-0.21645 -0.2021,-0.19713 -0.20779,0.0267 -0.29983,-0.0985 -0.33645,-0.24516 -0.0346,-0.13363 -0.11081,-0.261 -0.0891,-0.41542 0.012,-0.0893 -0.0863,-0.21793 -0.0504,-0.27333 0.0589,-0.0884 0.0626,-0.1697 0.0532,-0.25455 -0.0145,-0.11927 0.0353,-0.21848 0.0871,-0.30903 0.0431,-0.0749 0.15664,-0.0158 0.24148,-0.0856 0.0762,-0.0633 0.23301,0.0166 0.34731,-0.072 0.0303,-0.0237 0.14742,0.0302 0.19844,0.0769 0.0927,0.0834 0.19635,0.0734 0.28176,0.0331 0.28473,-0.13234 0.52716,0.026 0.78518,0.0871 0.12298,0.0295 0.12664,0.14375 0.17543,0.22272 0.0569,0.0915 0.15607,0.66665 0.15533,0.78887"
       style="fill:#21201d;fill-opacity:1;fill-rule:nonzero;stroke:none;stroke-width:0.184057"
       id="path558" />
  </g>
</svg>
