<?xml version="1.0" encoding="UTF-8" standalone="no"?>
<!-- Created with Inkscape (http://www.inkscape.org/) -->

<svg
   width="7.545701mm"
   height="7.3270016mm"
   viewBox="0 0 7.545701 7.3270016"
   version="1.1"
   id="svg1600"
   inkscape:version="1.1.2 (0a00cf5339, 2022-02-04)"
   sodipodi:docname="murder.svg"
   xmlns:inkscape="http://www.inkscape.org/namespaces/inkscape"
   xmlns:sodipodi="http://sodipodi.sourceforge.net/DTD/sodipodi-0.dtd"
   xmlns="http://www.w3.org/2000/svg"
   xmlns:svg="http://www.w3.org/2000/svg">
  <sodipodi:namedview
     id="namedview1602"
     pagecolor="#ffffff"
     bordercolor="#666666"
     borderopacity="1.0"
     inkscape:pageshadow="2"
     inkscape:pageopacity="0.0"
     inkscape:pagecheckerboard="0"
     inkscape:document-units="mm"
     showgrid="false"
     inkscape:zoom="0.64052329"
     inkscape:cx="-1010.1116"
     inkscape:cy="698.64751"
     inkscape:window-width="2560"
     inkscape:window-height="1376"
     inkscape:window-x="0"
     inkscape:window-y="0"
     inkscape:window-maximized="1"
     inkscape:current-layer="layer1" />
  <defs
     id="defs1597" />
  <g
     inkscape:label="Layer 1"
     inkscape:groupmode="layer"
     id="layer1"
     transform="translate(-372.12427,36.296306)">
    <path
       d="m 378.00174,-30.016033 c 0.17191,-0.0243 0.32008,-0.120006 0.40272,-0.251607 0.0482,-0.07694 0.10491,-0.142277 0.16178,-0.205593 0.1178,-0.132337 0.24866,-0.243692 0.27167,-0.442843 0.0109,-0.09718 0.0979,-0.191973 0.16749,-0.27259 0.12295,-0.140804 0.16252,-0.306272 0.16841,-0.483152 0.004,-0.121478 0.0186,-0.234306 0.0646,-0.353023 0.14817,-0.377319 0.092,-0.768442 -0.0143,-1.140975 -0.0633,-0.222894 -0.10492,-0.455175 -0.23007,-0.663529 -0.11209,-0.187739 0.0309,-0.307008 0.1754,-0.404927 0.1524,0.14246 0.16676,0.222894 0.23449,0.439346 0.0617,0.197678 0.16234,0.384681 0.20835,0.59101 0.004,0.01877 0.0433,0.0324 0.044,0.0497 0.003,0.137307 0.001,0.27535 7.1e-4,0.413394 -0.17191,0.120005 0.0545,0.231361 0.006,0.359465 -0.0453,0.120006 0.0488,0.271669 -0.0626,0.387442 0.004,0.289891 -0.13012,0.542234 -0.21497,0.808198 -0.1086,0.336458 -0.23873,0.657087 -0.51831,0.888632 -0.12589,0.104177 -0.20356,0.24811 -0.33001,0.352287 -0.22804,0.187739 -0.47174,0.350078 -0.72481,0.500453 -0.31124,0.184058 -0.64715,0.284001 -1.00366,0.327807 -0.051,0.0064 -0.0963,0.04454 -0.14743,0.06037 -0.092,0.02871 -0.18626,0.05043 -0.27885,0.07546 -0.0848,-0.137307 -0.16031,0.04031 -0.25602,0.0072 -0.092,-0.03221 -0.20485,0 -0.30774,-0.0092 -0.0977,-0.0087 -0.1732,-0.06111 -0.16105,-0.171174 0.0144,-0.140988 0.0517,-0.279768 0.064,-0.420572 0.0121,-0.135835 7.1e-4,-0.274615 0.0107,-0.41137 0.003,-0.03515 0.049,-0.06681 0.10142,-0.13289 -0.19841,-0.06405 -0.36241,-0.141724 -0.53487,-0.168229 -0.36093,-0.05687 -0.66647,-0.235225 -0.96206,-0.424989 -0.13215,-0.08559 -0.23283,-0.232281 -0.32412,-0.366643 -0.0814,-0.117982 -0.0769,-0.301303 -0.26818,-0.330016 -0.008,-0.245166 -0.2481,-0.410634 -0.22951,-0.664266 0.0109,-0.134546 -0.0473,-0.182033 -0.18112,-0.230072 -0.21203,-0.0762 -0.41706,-0.04528 -0.6464,-0.06332 0,0.209274 0,0.401799 0,0.594507 0,0.02301 -0.007,0.05908 0.004,0.06626 0.19399,0.131602 0.14743,0.377319 0.2632,0.549229 0.11558,0.172646 0.23283,0.3429 0.36664,0.503214 0.0963,0.115036 0.15663,0.25897 0.24866,0.378239 0.17908,0.233018 0.44578,0.353023 0.69536,0.486097 0.24295,0.129393 0.50321,0.227128 0.78353,0.351551 -0.0315,0.102152 -0.0624,0.200623 -0.0985,0.314923 -0.40621,0.02871 -0.74985,-0.102152 -1.03532,-0.390387 -0.0898,-0.09 -0.16602,-0.204304 -0.27314,-0.260994 -0.10068,-0.05319 -0.16105,-0.143749 -0.25031,-0.205593 -0.21204,-0.145957 -0.32928,-0.381184 -0.47376,-0.591746 -0.17044,-0.249582 -0.36517,-0.485361 -0.48094,-0.767153 -0.10933,-0.265412 -0.20412,-0.537081 -0.30056,-0.808199 -0.0136,-0.04104 -0.0186,-0.100679 0.001,-0.135098 0.1165,-0.201359 0.0431,-0.419836 0.0668,-0.628374 0.018,-0.163995 0.0309,-0.330016 0.072,-0.488305 0.0374,-0.142277 0.10932,-0.276088 0.16822,-0.413395 0.0755,-0.176879 0.14173,-0.354495 0.18406,-0.546283 0.0344,-0.159763 0.16325,-0.299095 0.25602,-0.4445 0.0589,-0.09129 0.12001,-0.18461 0.19621,-0.262283 0.10491,-0.107858 0.12368,-0.309217 0.30277,-0.330016 0.16749,-0.01951 0.25013,-0.163996 0.39535,-0.217188 0.2724,-0.09994 0.50836,-0.274615 0.75555,-0.42499 0.09,-0.05393 0.19197,-0.100495 0.29486,-0.117797 0.20706,-0.03663 0.42498,-0.02448 0.62413,-0.08135 0.17688,-0.05025 0.3486,-0.0589 0.52622,-0.06037 0.2113,-0.0028 0.40842,0.10068 0.62689,0.07344 0.19768,-0.02595 0.3775,0.07823 0.56524,0.127185 0.19841,0.05246 0.39167,0.117245 0.56505,0.217924 0.19841,0.113564 0.37529,0.262467 0.56156,0.396093 0.0804,0.05687 0.16823,0.105649 0.23798,0.17191 0.12645,0.121478 0.2875,0.223446 0.23283,0.483888 -0.19767,0.191236 -0.35154,0.537633 -0.7053,0.703838 0.069,0.244429 0.24167,0.445052 0.3013,0.699604 0.0475,0.200439 0.1259,0.392411 0.12,0.60463 -0.005,0.184058 -0.0107,0.368852 10e-4,0.552174 0.018,0.259522 -0.097,0.49033 -0.14375,0.735495 -0.0215,0.112092 -0.13087,0.164548 -0.23449,0.132338 -0.0804,-0.02522 -0.1559,-0.06552 -0.2551,-0.107858 0.18755,-0.291916 0.27958,-0.617698 0.28896,-0.995201 -0.0769,0 -0.14301,0.0066 -0.20706,-7.41e-4 -0.24737,-0.03019 -0.4421,0.0059 -0.49327,0.30572 -0.0107,0.06184 -0.11135,0.10841 -0.18479,0.174671 -0.10418,-0.01086 -0.25234,0.06037 -0.35725,-0.101416 0.0431,-0.1524 0.0992,-0.312714 0.1316,-0.478182 0.0237,-0.120742 0.0747,-0.189764 0.19694,-0.174671 0.284,0.03589 0.54995,-0.07123 0.83543,-0.08191 0.0158,-0.265964 0.0302,-0.512601 -0.19345,-0.716169 -0.0898,-0.08117 -0.10049,-0.235042 -0.13509,-0.353023 -0.0374,-0.127185 -0.12222,-0.143013 -0.21056,-0.187555 v -0.226576 c 0.079,-0.04877 0.20117,0.01804 0.22933,-0.143749 0.0164,-0.09424 0.15442,-0.161051 0.23651,-0.232281 0.1143,-0.09994 0.18332,-0.227864 0.32063,-0.332777 -0.15019,-0.102152 -0.27388,-0.203568 -0.41192,-0.274614 -0.16252,-0.0843 -0.32007,-0.186267 -0.48038,-0.258233 -0.22934,-0.102153 -0.45297,-0.269645 -0.73181,-0.231545 -0.0109,0.0015 -0.023,0.0015 -0.0339,0 -0.15589,-0.02374 -0.28473,-0.13289 -0.46953,-0.07896 -0.15884,0.04749 -0.34216,0.01141 -0.51462,0.0099 -0.4294,-0.0042 -0.42995,-0.0064 -0.77009,0.169702 -0.24663,0.128104 -0.50321,0.227311 -0.76567,0.317132 -0.14099,0.04822 -0.26744,0.134362 -0.43069,0.219213 0.18184,0.182033 0.34584,0.345845 0.50615,0.506159 -0.0396,0.203568 -0.18553,0.170438 -0.38026,0.161051 -0.0633,-0.06313 -0.15976,-0.158842 -0.27185,-0.270934 -0.2251,0.211299 -0.45941,0.434193 -0.52916,0.782983 -0.0201,0.101232 -0.0698,0.20909 -0.13804,0.284553 -0.11872,0.133074 -0.0747,0.337194 -0.17614,0.442292 -0.13455,0.139515 -0.0525,0.325598 -0.16253,0.455727 -0.0143,0.0173 0.005,0.06184 0.007,0.08135 0.0819,0.09277 0.12663,-0.08411 0.20356,-0.0059 0.0438,0.04546 0.11633,-0.06681 0.17743,0.02669 0.021,0.03166 0.13087,0.005 0.19989,0.005 h 0.23946 c -0.11854,-0.345845 -0.0611,-0.474501 0.22583,-0.956917 0.0309,0.02025 0.0596,0.04969 0.094,0.05761 0.0425,0.0099 0.09,0.002 0.13087,0.002 0.013,0.02669 0.0274,0.04528 0.0302,0.06552 0.0274,0.192709 -0.0711,0.363146 -0.094,0.547204 -0.13804,0.07031 0.10785,0.201912 -0.044,0.269461 0,0.115036 -0.008,0.231545 0.004,0.345109 0.009,0.09571 0.0317,0.193445 0.069,0.28124 0.0418,0.09774 0.10785,0.184794 0.16104,0.278112 0.0841,0.148903 0.164,0.300567 0.25161,0.447997 0.0274,0.04601 0.0727,0.08117 0.12516,0.13878 0.0834,-0.0762 0.15737,-0.141725 0.2286,-0.21001 0.0668,-0.06387 0.13086,-0.13013 0.18773,-0.186083 -0.0447,-0.06552 -0.0935,-0.125896 -0.1281,-0.193445 -0.0955,-0.189764 -0.21277,-0.37603 -0.26743,-0.578126 -0.0446,-0.160314 -0.009,-0.342163 -0.0101,-0.515546 h 0.31069 c 0.0574,0.05761 0.1143,0.1143 0.17117,0.170438 -0.13013,0.110066 -0.0878,0.273325 -0.0532,0.381 0.0322,0.10436 0.0287,0.234489 0.13215,0.325046 0.17264,0.151664 0.33075,0.320629 0.48977,0.486833 0.0589,0.06111 0.12075,0.08338 0.2056,0.09203 0.0675,0.0072 0.13012,0.06608 0.19197,0.101232 v 0.206513 c -0.0591,0.03074 -0.11577,0.06037 -0.15038,0.07749 -0.23577,-0.0797 -0.45149,-0.184058 -0.65413,-0.319156 -0.12884,0.181113 -0.24811,0.34879 -0.38689,0.544995 0.15092,0.06037 0.2897,0.113564 0.42701,0.170438 0.13731,0.05816 0.26817,0.142277 0.40989,0.173198 0.15314,0.0324 0.33646,-0.02724 0.47082,0.03313 0.1697,0.07546 0.28344,-0.06332 0.43934,-0.04031 0.13381,0.01951 0.28326,-0.07326 0.48536,-0.135098 0.004,0.0072 0.0151,0.05669 0.0445,0.09056 0.15608,0.179088 0.11724,0.232281 -0.1143,0.342164 -0.16179,0.07767 -0.32854,0.02374 -0.48609,0.08264 0,0.236698 0.0101,0.46677 -0.004,0.694634 -0.0109,0.182586 -0.0123,0.189028 0.14872,0.140989 0.20577,-0.06184 0.4121,-0.122951 0.62193,-0.164732 0.32577,-0.06534 0.70107,-0.273142 0.95837,-0.555119"
       style="fill:#21201d;fill-opacity:1;fill-rule:nonzero;stroke:none;stroke-width:0.184057"
       id="path552" />
    <path
       d="m 374.34363,-32.914945 c -0.0344,0 -0.0755,0.01233 -0.10197,-0.002 -0.0769,-0.04031 -0.14743,-0.09074 -0.24388,-0.152399 0.0309,-0.139517 -0.0186,-0.276088 0.0547,-0.440819 0.069,-0.153136 0.0109,-0.361674 0.0173,-0.544996 0.002,-0.06258 0.0151,-0.135835 0.0504,-0.184058 0.15589,-0.21001 0.23209,-0.440635 0.22418,-0.701076 -0.004,-0.124239 -7.1e-4,-0.248663 -7.1e-4,-0.416155 0.0821,0.04675 0.15185,0.06387 0.17983,0.107858 0.17835,0.278847 0.29338,0.59101 0.43143,0.890104 0.0381,0.08117 0.0725,0.177432 0.11135,0.262282 0.0517,0.113748 0.0596,0.209274 -0.0129,0.307009 0.0517,0.05466 0.10712,0.1143 0.16105,0.172646 0.0265,-0.0208 0.0517,-0.04178 0.074,-0.0589 0.0287,0.0064 0.0584,0.0042 0.069,0.01638 0.0755,0.09497 0.14375,0.194917 0.22216,0.286946 0.0712,0.08485 0.17043,0.145958 0.15111,0.28621 -0.004,0.03368 0.0718,0.08264 0.11559,0.120006 0.0727,0.06184 0.15387,0.113564 0.22086,0.179825 0.0618,0.06184 0.11136,0.136571 0.16381,0.207065 0.0396,0.05172 0.0784,0.104913 0.11357,0.159578 0.0742,0.1143 0.10583,0.254552 0.27037,0.303328 0.0641,0.01951 0.0928,0.140988 0.15038,0.204856 0.0992,0.110067 0.2078,0.210746 0.32412,0.327255 0.0403,-0.02871 0.072,-0.05964 0.10933,-0.07767 0.0675,-0.03166 0.006,-0.173934 0.13951,-0.150191 0.11927,0.02153 0.19768,0.07031 0.26891,0.18185 0.0856,0.132889 -0.0353,0.172462 -0.0755,0.229336 -0.0525,0.07473 -0.1524,0.116508 -0.23375,0.173198 0.0561,0.211483 0.2667,0.257497 0.36885,0.412106 0.0928,0.140068 0.26964,0.224919 0.42351,0.346397 -0.0295,0.154609 -0.0596,0.304248 -0.0885,0.452967 -0.12222,0.0029 -0.24148,0.0037 -0.35155,-0.06755 -0.13363,-0.08687 -0.26964,-0.143013 -0.35799,-0.311242 -0.0878,-0.168965 -0.28897,-0.275351 -0.28326,-0.506159 7e-4,-0.02669 -0.0504,-0.05466 -0.0826,-0.08632 -0.10362,0.201359 -0.18847,0.254552 -0.3394,0.21001 -0.0806,-0.02374 -0.15608,-0.067 -0.2402,-0.104361 -0.0265,-0.218477 0.14246,-0.342164 0.27903,-0.485177 -0.14743,-0.107121 -0.22289,-0.277559 -0.40124,-0.322837 -0.15884,-0.25897 -0.42775,-0.378239 -0.66499,-0.540762 -0.10639,-0.07399 -0.24167,-0.132338 -0.29909,-0.278296 -0.0274,-0.06829 -0.0992,-0.133626 -0.1675,-0.167493 -0.0813,-0.04012 -0.0151,-0.209826 -0.16473,-0.171726 -0.0705,-0.215716 -0.28179,-0.348053 -0.3243,-0.59101 -0.0386,-0.221421 -0.14154,-0.431432 -0.22345,-0.667946 -0.10288,0.243693 -0.10362,0.244429 -0.0289,0.406216 0.12092,0.263755 0.19271,0.526222 -0.008,0.785743"
       style="fill:#21201d;fill-opacity:1;fill-rule:nonzero;stroke:none;stroke-width:0.184057"
       id="path554" />
    <path
       d="m 375.55877,-33.746703 c -0.14449,-0.103625 -0.23375,-0.214243 -0.1489,-0.410633 0.0554,0 0.14172,0.02227 0.20632,-0.0057 0.069,-0.03018 0.13602,-0.09847 0.16694,-0.166756 0.0208,-0.04602 -0.0223,-0.121478 -0.0353,-0.184058 -0.004,-0.01509 -0.006,-0.03589 0.002,-0.04749 0.0582,-0.08264 0.069,-0.158106 -0.0101,-0.236514 -0.0876,-0.08559 -0.18405,-0.05246 -0.28031,-0.02595 -0.0403,0.01086 -0.0913,0.02098 -0.11504,0.0497 -0.0604,0.07546 -0.15092,0.09626 -0.21001,0.05319 -0.0935,-0.06902 -0.21276,-0.14743 -0.16307,-0.304799 0.19124,-0.09921 0.38173,-0.191973 0.61677,-0.174855 0.092,0.0066 0.17467,-0.107122 0.29983,-0.01638 0.051,0.0381 0.20209,-0.06976 0.26246,-0.0346 0.10933,0.06258 0.21277,0.04749 0.32137,0.06111 0.0948,0.01215 0.1927,0.0324 0.28031,0.07049 0.0979,0.0416 0.20854,0.08982 0.26891,0.168965 0.0403,0.05393 0.044,0.171174 -0.0272,0.250135 -0.0826,0.09129 -0.18774,0.07473 -0.27903,0.04528 -0.13087,-0.0416 -0.25087,-0.115772 -0.37953,-0.164548 -0.16399,-0.06331 -0.26743,0 -0.26246,0.169702 0.004,0.128656 0.0302,0.260258 0.0712,0.382472 0.0158,0.04601 0.0985,0.08191 0.15663,0.09774 0.1662,0.04675 0.35799,0.04381 0.46732,0.199887 0.10068,0.144485 0.33148,0.146694 0.37327,0.35652 0.004,0.01877 0.13288,0.02448 0.092,0.119454 -0.0346,0.07767 -0.2251,0.134362 -0.30129,0.09424 -0.0295,-0.01583 -0.051,-0.04601 -0.074,-0.07197 -0.13454,-0.1524 -0.307,-0.225839 -0.49401,-0.305536 -0.15957,-0.06755 -0.34436,0.05669 -0.47173,-0.09921 -0.0747,0.135835 -0.25013,-0.0044 -0.33351,0.130129"
       style="fill:#21201d;fill-opacity:1;fill-rule:nonzero;stroke:none;stroke-width:0.184057"
       id="path556" />
  </g>
</svg>
