<?xml version="1.0" encoding="UTF-8" standalone="no"?>
<!-- Created with Inkscape (http://www.inkscape.org/) -->

<svg
   width="6.3446064mm"
   height="5.6073308mm"
   viewBox="0 0 6.3446064 5.6073308"
   version="1.1"
   id="svg1906"
   inkscape:version="1.1.2 (0a00cf5339, 2022-02-04)"
   sodipodi:docname="zset.svg"
   xmlns:inkscape="http://www.inkscape.org/namespaces/inkscape"
   xmlns:sodipodi="http://sodipodi.sourceforge.net/DTD/sodipodi-0.dtd"
   xmlns="http://www.w3.org/2000/svg"
   xmlns:svg="http://www.w3.org/2000/svg">
  <sodipodi:namedview
     id="namedview1908"
     pagecolor="#ffffff"
     bordercolor="#666666"
     borderopacity="1.0"
     inkscape:pageshadow="2"
     inkscape:pageopacity="0.0"
     inkscape:pagecheckerboard="0"
     inkscape:document-units="mm"
     showgrid="false"
     inkscape:zoom="0.64052329"
     inkscape:cx="711.91791"
     inkscape:cy="542.52516"
     inkscape:window-width="2560"
     inkscape:window-height="1376"
     inkscape:window-x="0"
     inkscape:window-y="0"
     inkscape:window-maximized="1"
     inkscape:current-layer="layer1" />
  <defs
     id="defs1903" />
  <g
     inkscape:label="Layer 1"
     inkscape:groupmode="layer"
     id="layer1"
     transform="translate(83.308609,-5.044741)">
    <path
       d="m -81.622639,10.631846 c -0.291913,-0.0057 -0.586035,0.0044 -0.876477,-0.02081 -0.261725,-0.023 -0.519775,-0.08485 -0.779293,-0.130129 -0.01161,-0.0021 -0.02081,-0.01658 -0.0302,-0.02522 0.0086,-0.0065 0.01729,-0.01637 0.02649,-0.01859 0.332955,-0.06608 0.651373,-0.181116 0.958377,-0.319895 0.358176,-0.1617875 0.708251,-0.3451084 1.015256,-0.5974504 0.02596,-0.021731 0.04822,-0.047487 0.07049,-0.072704 0.314921,-0.3414253 0.566526,-0.725371 0.77506,-1.1395004 0.122216,-0.2416704 0.132337,-0.4976953 0.101416,-0.7579536 -0.01305,-0.1163249 -0.04178,-0.2313587 -0.06847,-0.346396 -0.0473,-0.2149793 0.0059,-0.339404 0.196388,-0.447996 0.02522,-0.013617 0.05613,-0.020073 0.07399,-0.039575 0.02946,-0.031644 0.067,-0.069021 0.0727,-0.107121 0.0302,-0.2127709 0.14743,-0.3745583 0.293201,-0.5183046 0.208534,-0.2063292 0.423513,-0.4054828 0.669413,-0.5659791 0.09847,-0.06387 0.204301,-0.121479 0.31271,-0.1660207 0.218658,-0.08835 0.440817,-0.1682291 0.662234,-0.2486625 0.06828,-0.024483 0.139517,-0.047487 0.210746,-0.056875 0.178167,-0.023742 0.347864,0.00282 0.493085,0.121479 0.07344,0.060371 0.147429,0.1207417 0.224366,0.1790877 0.04178,0.031644 0.07473,0.061108 0.06552,0.1244247 -0.0037,0.023001 0.02872,0.052454 0.04602,0.078225 0.04528,0.069021 0.10123,0.1330713 0.134359,0.2078002 0.0302,0.069021 -0.0021,0.1157711 -0.0762,0.1115378 -0.193442,-0.010866 -0.380997,0.032385 -0.566522,0.071783 -0.29633,0.063317 -0.591005,0.1380455 -0.864881,0.2725914 -0.04528,0.023001 -0.09129,0.044542 -0.138042,0.063316 -0.206513,0.084113 -0.38983,0.1991501 -0.539284,0.3681131 -0.0589,0.066816 -0.136571,0.1170622 -0.206329,0.173937 -0.0935,0.076934 -0.154605,0.1645462 -0.107121,0.2926504 0.01933,0.050983 0.01933,0.097737 -0.01305,0.1437499 -0.0416,0.059634 -0.0065,0.089821 0.03534,0.1387792 0.110066,0.1343625 0.215716,0.2753501 0.297621,0.4277501 0.03957,0.071233 0.0381,0.1754082 0.02872,0.2624667 -0.02575,0.2466375 -0.09552,0.4846249 -0.177613,0.7181955 -0.07252,0.2063292 -0.134363,0.4200208 -0.232834,0.6140168 -0.156816,0.3092168 -0.371792,0.5808878 -0.676589,0.7585038 -0.316392,0.184792 -0.649167,0.337192 -1.010838,0.415601 -0.130863,0.02797 -0.26596,0.03737 -0.399768,0.0554 z"
       style="fill:#21201d;fill-opacity:1;fill-rule:nonzero;stroke:none;stroke-width:0.184057"
       id="path380" />
  </g>
</svg>
