<?xml version="1.0" encoding="UTF-8" standalone="no"?>
<!-- Created with Inkscape (http://www.inkscape.org/) -->

<svg
   width="5.9893503mm"
   height="7.2749653mm"
   viewBox="0 0 5.9893503 7.2749653"
   version="1.1"
   id="svg2196"
   inkscape:version="1.1.2 (0a00cf5339, 2022-02-04)"
   sodipodi:docname="sins_of_the_past.svg"
   xmlns:inkscape="http://www.inkscape.org/namespaces/inkscape"
   xmlns:sodipodi="http://sodipodi.sourceforge.net/DTD/sodipodi-0.dtd"
   xmlns="http://www.w3.org/2000/svg"
   xmlns:svg="http://www.w3.org/2000/svg">
  <sodipodi:namedview
     id="namedview2198"
     pagecolor="#ffffff"
     bordercolor="#666666"
     borderopacity="1.0"
     inkscape:pageshadow="2"
     inkscape:pageopacity="0.0"
     inkscape:pagecheckerboard="0"
     inkscape:document-units="mm"
     showgrid="false"
     inkscape:zoom="0.64052329"
     inkscape:cx="-1311.4277"
     inkscape:cy="-39.811199"
     inkscape:window-width="2560"
     inkscape:window-height="1376"
     inkscape:window-x="0"
     inkscape:window-y="0"
     inkscape:window-maximized="1"
     inkscape:current-layer="layer1" />
  <defs
     id="defs2193" />
  <g
     inkscape:label="Layer 1"
     inkscape:groupmode="layer"
     id="layer1"
     transform="translate(-451.79985,-159.11308)">
    <path
       d="m 457.65693,160.12524 c 0.0655,0.12443 0.12442,0.1848 0.12589,0.24738 0.009,0.38026 0.007,0.76052 0.003,1.14097 -7.1e-4,0.11357 -0.069,0.164 -0.19345,0.16603 -0.12737,0.002 -0.19915,-0.0374 -0.2043,-0.15314 -0.008,-0.20063 -0.0711,-0.35505 -0.27461,-0.41763 -0.0705,-0.0217 -0.15093,-0.044 -0.21995,-0.0302 -0.32854,0.0624 -0.32707,0.0653 -0.61769,-0.002 -0.0423,-0.0101 -0.11136,-0.021 -0.12939,0.002 -0.0906,0.10915 -0.2078,0.0468 -0.31198,0.0631 -0.0727,0.0123 -0.14743,-0.0193 -0.21847,0.0453 -0.0309,0.0282 -0.11946,0.007 -0.17688,-0.01 -0.19713,-0.0576 -0.26615,-0.0188 -0.27112,0.17394 -0.004,0.17835 0.0295,0.36517 -0.0101,0.53487 -0.0324,0.1373 -0.0208,0.18553 0.1143,0.19639 0.0223,0.002 0.0467,-0.006 0.067,0.002 0.10713,0.0376 0.22418,0.0618 0.31621,0.12369 0.10933,0.0749 0.0252,0.2078 0.0554,0.32008 -0.17908,0.0374 -0.35376,0.0747 -0.52769,0.11135 0.0423,0.11283 0.074,0.42849 0.0554,0.54868 -0.004,0.0322 -0.0158,0.0733 -10e-4,0.0977 0.12369,0.21701 0.0403,0.45297 0.0646,0.67789 0.009,0.0863 -0.006,0.18277 0.0289,0.25676 0.0488,0.10215 -0.0727,0.15958 -0.0346,0.261 0.0295,0.0784 0.0223,0.18037 0.003,0.26522 -0.0871,0.39113 -0.0525,0.78667 -0.0683,1.18129 -0.006,0.14522 -0.0584,0.28841 -0.0957,0.46014 -0.0324,-0.0215 -0.0906,-0.0381 -0.0985,-0.0676 -0.12939,-0.48241 -0.22713,-0.97422 -0.3983,-1.44578 -0.0252,-0.069 -0.009,-0.1546 -0.007,-0.23227 0.001,-0.0977 -0.0165,-0.1848 -0.0641,-0.27609 -0.097,-0.18976 -0.12296,-0.40401 -0.1351,-0.61402 -0.0136,-0.24517 0.0201,-0.49475 -0.0129,-0.73623 -0.0166,-0.12369 0.0179,-0.23302 0.007,-0.37824 -0.11577,-0.0351 -0.2424,-0.074 -0.39111,-0.11927 -0.002,-0.0668 -0.0403,-0.15534 0.0329,-0.24885 0.0425,-0.0539 0.0381,-0.13657 0.1489,-0.12644 0.0445,0.003 0.14098,-0.0762 0.1373,-0.10786 -0.0344,-0.27388 0.0906,-0.53432 0.0733,-0.80525 -0.1143,-0.0123 -0.20559,-0.16823 -0.31768,-0.0208 -0.28253,-0.0316 -0.568,0.0539 -0.85126,-0.0526 -0.11798,-0.0431 -0.284,-0.0552 -0.39112,-0.004 -0.1316,0.0633 -0.25382,0.0468 -0.38026,0.0554 -0.15038,0.01 -0.18627,0.0337 -0.20706,0.18682 -0.0245,0.17982 -0.12737,0.32854 -0.18278,0.49622 -0.009,0.025 -0.046,0.0409 -0.0913,0.0782 -0.0675,-0.0718 -0.16454,-0.13013 -0.18902,-0.21056 -0.0302,-0.0999 -0.0173,-0.22216 0.009,-0.32725 0.0302,-0.12222 0.0948,-0.22419 0.0849,-0.36941 -0.007,-0.11227 0.0179,-0.22087 -0.0289,-0.3394 -0.0344,-0.0856 -0.006,-0.19621 -0.006,-0.28971 0.0547,-0.0289 0.0992,-0.0583 0.14743,-0.0762 0.14596,-0.0547 0.23872,-0.002 0.25455,0.14228 0.005,0.0445 -7e-4,0.0898 10e-4,0.13454 10e-4,0.0309 0.007,0.0617 0.0136,0.11283 0.0698,-0.0158 0.12939,-0.0281 0.18829,-0.0433 0.0295,-0.008 0.0698,-0.0394 0.0848,-0.0295 0.20559,0.1316 0.43143,0.0396 0.6464,0.0618 0.11578,0.0116 0.2402,0.0267 0.34069,-0.0646 0.10068,0.0883 0.22363,0.0661 0.34161,0.0676 0.12295,0 0.2459,0.002 0.36885,0 0.18976,-0.004 0.22933,-0.0411 0.23154,-0.22934 0.003,-0.25529 7.1e-4,-0.50984 7.1e-4,-0.75924 -0.0403,-0.009 -0.0606,-0.0173 -0.0813,-0.018 -0.31566,-0.0107 -0.38744,-0.0977 -0.31916,-0.40769 0.01,-0.048 0.0646,-0.12369 0.0955,-0.12148 0.187,0.007 0.36093,-0.14025 0.54002,-0.0712 0.26817,0.10363 0.54131,0.0375 0.80303,0.067 0.0604,0.092 0.11798,0.17964 0.18056,0.27461 -0.0769,0.1294 -0.21792,0.15664 -0.32578,0.21057 -0.0294,0.30921 -0.0582,0.61199 -0.0871,0.91384 -0.004,0.0418 0,0.0849 0,0.13381 h 1.92266 c 0.0977,-0.11154 0.23651,-0.18976 0.24442,-0.37106 0.003,-0.0618 0.092,-0.12001 0.18829,-0.23504"
       style="fill:#21201d;fill-opacity:1;fill-rule:nonzero;stroke:none;stroke-width:0.184057"
       id="path570" />
    <path
       d="m 452.21089,164.1874 c 0.0445,-0.16178 0.10767,-0.30406 0.32063,-0.33148 0.051,0.026 0.13086,0.067 0.2113,0.10785 0.15534,0.0202 0.0935,-0.1905 0.2424,-0.21774 0.0992,-0.0188 0.1616,-0.19639 0.26669,-0.23872 0.12369,-0.0497 0.18111,-0.15314 0.27609,-0.22289 0.0948,-0.069 0.19197,-0.13658 0.27958,-0.21351 0.0885,-0.0784 0.16749,-0.16676 0.26099,-0.26026 0.009,0.19989 -0.0438,0.31916 -0.16031,0.43419 -0.0503,0.0504 -0.0784,0.12369 -0.12074,0.18333 -0.16473,0.23375 -0.32505,0.47173 -0.49972,0.69665 -0.0712,0.0913 -0.0999,0.16032 -0.023,0.25603 0.0381,0.049 0.0611,0.10933 0.0965,0.16105 0.11504,0.17117 0.0782,0.25878 -0.11154,0.37106 -0.1316,0.0782 -0.21645,0.0611 -0.35007,-0.0131 -0.22087,-0.12147 -0.33149,-0.32927 -0.4861,-0.50247 0.0123,-0.1467 -0.13307,-0.14375 -0.20264,-0.21001"
       style="fill:#21201d;fill-opacity:1;fill-rule:nonzero;stroke:none;stroke-width:0.184057"
       id="path572" />
    <path
       d="m 455.31813,162.80992 c 0.24166,0.0653 0.39701,0.21994 0.51554,0.3983 0.0799,0.12 0.16823,0.20927 0.28694,0.2897 0.17762,0.11945 0.33425,0.26817 0.47726,0.38542 0.15037,-0.0267 0.27479,-0.049 0.36959,-0.0663 0.10638,0.1073 0.19049,0.19271 0.28694,0.28915 -0.20136,0.3048 -0.56303,0.45444 -0.77874,0.73624 -0.11853,-0.1259 -0.2229,-0.23652 -0.32486,-0.34438 0.13289,-0.10785 0.0639,-0.28197 0.009,-0.44505 -0.0584,-0.17191 -0.18056,-0.31271 -0.30572,-0.43437 -0.21921,-0.21278 -0.33571,-0.50028 -0.55143,-0.71323 -0.009,-0.009 0.006,-0.0394 0.0151,-0.0955"
       style="fill:#21201d;fill-opacity:1;fill-rule:nonzero;stroke:none;stroke-width:0.184057"
       id="path574" />
  </g>
</svg>
