<?xml version="1.0" encoding="UTF-8" standalone="no"?>
<!-- Created with Inkscape (http://www.inkscape.org/) -->

<svg
   width="6.268539mm"
   height="6.6637411mm"
   viewBox="0 0 6.268539 6.6637411"
   version="1.1"
   id="svg2341"
   inkscape:version="1.1.2 (0a00cf5339, 2022-02-04)"
   sodipodi:docname="vile_experiments.svg"
   xmlns:inkscape="http://www.inkscape.org/namespaces/inkscape"
   xmlns:sodipodi="http://sodipodi.sourceforge.net/DTD/sodipodi-0.dtd"
   xmlns="http://www.w3.org/2000/svg"
   xmlns:svg="http://www.w3.org/2000/svg">
  <sodipodi:namedview
     id="namedview2343"
     pagecolor="#ffffff"
     bordercolor="#666666"
     borderopacity="1.0"
     inkscape:pageshadow="2"
     inkscape:pageopacity="0.0"
     inkscape:pagecheckerboard="0"
     inkscape:document-units="mm"
     showgrid="false"
     inkscape:zoom="0.64052329"
     inkscape:cx="12.489788"
     inkscape:cy="13.2704"
     inkscape:window-width="2560"
     inkscape:window-height="1376"
     inkscape:window-x="0"
     inkscape:window-y="0"
     inkscape:window-maximized="1"
     inkscape:current-layer="layer1" />
  <defs
     id="defs2338" />
  <g
     inkscape:label="Layer 1"
     inkscape:groupmode="layer"
     id="layer1"
     transform="translate(-101.78693,-145.16823)">
    <path
       d="m 107.50379,149.7605 c -0.0712,-0.0711 -0.11945,-0.11927 -0.17615,-0.17614 -0.0102,0.0339 -0.0201,0.0611 -0.0286,0.0893 -0.0749,0.25455 -0.1373,0.4953 -0.40915,0.64991 -0.20063,0.1143 -0.358,0.31713 -0.41064,0.5715 -0.0187,0.0863 -0.30977,0.33738 -0.42629,0.39775 -0.01,0.005 -0.0222,0.006 -0.0272,0.0144 -0.13878,0.21056 -0.37179,0.27314 -0.58748,0.30259 -0.19843,0.0267 -0.33277,0.13602 -0.49456,0.22216 -0.0261,-0.0265 -0.0569,-0.0589 -0.0885,-0.092 0.0749,-0.0295 0.12093,-0.0819 0.1524,-0.16179 0.0806,-0.20191 0.24387,-0.32486 0.4307,-0.42131 0.17759,-0.092 0.36386,-0.17025 0.53062,-0.27811 0.0957,-0.0626 0.18055,-0.14522 0.1791,-0.29983 -0.004,-0.28621 0.10488,-0.4364 0.36883,-0.65064 0.12499,-0.10289 0.15166,-0.25676 0.16676,-0.40622 0.0127,-0.12295 0.004,-0.24958 0.004,-0.39407 -0.20931,0.0223 -0.29563,-0.15461 -0.44729,-0.28694 -0.17907,0 -0.381,0.002 -0.58307,0 -0.22437,-0.002 -0.50395,-0.18535 -0.53065,-0.39242 -0.0396,-0.31216 -0.19692,-0.60536 -0.14228,-0.93041 0,-0.007 -0.0138,-0.0166 -0.031,-0.0388 -0.0777,0.0856 -0.16898,0.14099 -0.17911,0.28547 -0.018,0.26817 0.074,0.47303 0.27757,0.62911 v 0.27885 c -0.0187,0.0116 -0.0361,0.0302 -0.0554,0.0309 -0.35376,0.0245 -0.70753,0.0418 -1.06129,0.0727 -0.13875,0.0121 -0.26741,-0.0208 -0.36664,-0.0999 -0.13508,-0.10639 -0.27884,-0.10933 -0.43343,-0.10786 -0.27259,0.002 -0.545,0 -0.83121,0 -0.14302,-0.10712 -0.23576,-0.2632 -0.31567,-0.42922 -0.0229,-0.0475 -0.0546,-0.0928 -0.0661,-0.14246 -0.0166,-0.0718 -0.19269,-0.079 -0.0856,-0.19271 0.0733,-0.0775 -0.10417,-0.1386 0,-0.22216 0.0215,-0.0164 -0.0661,-0.1408 -0.0467,-0.19621 0.0517,-0.14816 0.13582,-0.284 0.2056,-0.42554 0.1071,-0.21719 0.29118,-0.40345 0.26391,-0.67383 0.1294,-0.11633 0.22567,-0.29321 0.44581,-0.24002 0.34434,-0.24958 0.77854,-0.33572 1.10708,-0.62119 0.13233,-0.1143 0.2956,-0.2078 0.49622,-0.19842 0.1027,0.004 0.21276,-0.0712 0.31126,-0.0569 0.24091,0.0351 0.49032,0.0589 0.70897,0.17393 0.13141,0.0683 0.25951,0.10068 0.40549,0.0928 0.26246,-0.0129 0.50687,0.0906 0.75921,0.14099 0.0876,0.0173 0.18479,0.0797 0.23947,0.15092 0.0913,0.12075 0.20411,0.12222 0.3199,0.1143 0.19988,0.15167 0.29467,0.41064 0.55491,0.4804 0.12168,0.20982 0.26889,0.40695 0.30498,0.65635 0.008,0.0532 0.004,0.12368 0.0353,0.15387 0.15808,0.15019 0.10784,0.31566 0.0625,0.48886 -0.0222,0.0834 -0.0286,0.17338 -0.0279,0.26026 0,0.30995 -0.067,0.59966 -0.26466,0.84408 -0.15017,0.18627 -0.0698,0.38248 0,0.54942 0.0697,0.16749 0.0747,0.30756 0.0102,0.46585 -0.0532,0.12939 0.0279,0.28897 -0.0885,0.40621 0.0166,0.2402 -0.24663,0.32137 -0.30057,0.52273 0,0.008 -0.0423,0.0121 -0.0616,0.006 -0.0173,-0.005 -0.0455,-0.0294 -0.0433,-0.0403 0.0131,-0.0611 0.0208,-0.1294 0.0539,-0.18038 0.14965,-0.22805 0.21425,-0.42204 0.21647,-0.69611"
       style="fill:#21201d;fill-opacity:1;fill-rule:nonzero;stroke:none;stroke-width:0.184057"
       id="path582" />
  </g>
</svg>
