<?xml version="1.0" encoding="UTF-8" standalone="no"?>
<!-- Created with Inkscape (http://www.inkscape.org/) -->

<svg
   width="6.7567673mm"
   height="6.4913011mm"
   viewBox="0 0 6.7567673 6.4913011"
   version="1.1"
   id="svg3897"
   inkscape:version="1.1.2 (0a00cf5339, 2022-02-04)"
   sodipodi:docname="bayou.svg"
   xmlns:inkscape="http://www.inkscape.org/namespaces/inkscape"
   xmlns:sodipodi="http://sodipodi.sourceforge.net/DTD/sodipodi-0.dtd"
   xmlns="http://www.w3.org/2000/svg"
   xmlns:svg="http://www.w3.org/2000/svg">
  <sodipodi:namedview
     id="namedview3899"
     pagecolor="#ffffff"
     bordercolor="#666666"
     borderopacity="1.0"
     inkscape:pageshadow="2"
     inkscape:pageopacity="0.0"
     inkscape:pagecheckerboard="0"
     inkscape:document-units="mm"
     showgrid="false"
     inkscape:zoom="0.64052329"
     inkscape:cx="330.97938"
     inkscape:cy="469.14766"
     inkscape:window-width="2560"
     inkscape:window-height="1376"
     inkscape:window-x="0"
     inkscape:window-y="0"
     inkscape:window-maximized="1"
     inkscape:current-layer="layer1" />
  <defs
     id="defs3894" />
  <g
     inkscape:label="Layer 1"
     inkscape:groupmode="layer"
     id="layer1"
     transform="translate(-17.275302,-24.430296)">
    <path
       d="m 17.287328,28.892757 c -0.03957,-0.09847 0.02448,-0.171909 0.105096,-0.204305 0.196942,-0.0797 0.3429,-0.220683 0.484438,-0.368113 0.136017,-0.14007 0.299826,-0.20412 0.487564,-0.222158 0.301117,-0.02872 0.607571,-0.02579 0.901509,-0.107124 0.06681,-0.01785 0.134543,-0.0057 0.191234,-7.06e-4 0.243688,0.02374 0.426456,-0.08835 0.583826,-0.242958 0.10933,-0.109329 0.260992,-0.198413 0.268905,-0.385417 0.0014,-0.02946 0.03957,-0.06184 0.06755,-0.08411 0.117979,-0.09332 0.144484,-0.219216 0.107855,-0.352287 -0.02448,-0.08687 -0.01729,-0.175408 -0.03239,-0.268908 -0.09773,-0.110621 -0.193259,-0.2321 -0.304063,-0.337933 -0.06037,-0.05742 -0.140984,-0.09552 -0.222155,-0.132888 -0.136571,-0.06332 -0.288967,-0.122217 -0.398296,-0.245167 0.07399,-0.117245 0.154604,-0.09497 0.240192,-0.06111 0.155896,0.06185 0.307742,0.132892 0.472288,0.169704 0.08338,0.01859 0.158842,0.02078 0.237984,-0.02815 0.06479,-0.195467 0.04178,-0.376029 -0.09847,-0.52125 0.0079,-0.0646 0.03957,-0.09277 0.08982,-0.120008 0.09055,0.02798 0.1905,0.03589 0.293384,0.02155 0.08982,-0.01288 0.1524,-0.130129 0.2667,-0.06829 -0.01013,0.1143 -0.130129,0.138779 -0.174671,0.240195 -0.005,0.04086 -0.01288,0.09847 -0.02226,0.168967 0.02448,0.06313 0.05246,0.138042 0.07694,0.199887 0.07546,0.0797 0.170988,0.07675 0.247372,0.113563 0.230067,-0.0554 0.456459,-0.111538 0.662784,-0.226575 0.0727,-0.03957 0.151663,-0.05098 0.23228,-0.04086 0.02522,0.0035 0.04675,0.0302 0.07473,0.04951 -0.03957,0.06111 -0.07399,0.115771 -0.111354,0.172646 -0.167672,0.04086 -0.318601,0.109146 -0.418543,0.260258 -0.0151,0.023 -0.04601,0.03663 -0.07178,0.04951 -0.331488,0.163258 -0.424251,0.461616 -0.441551,0.795866 -0.01803,0.326517 0.09847,0.601867 0.342159,0.821817 0.0381,0.03387 0.07638,0.06902 0.127367,0.115775 0.09276,0.01305 0.198413,0.03239 0.273138,0.130129 0.04454,0.05835 0.115037,0.07197 0.194179,0.07123 0.305534,-7.05e-4 0.609043,-0.02226 0.903718,-0.107121 0.200622,-0.05614 0.39756,-0.12792 0.61769,-0.199887 0.169516,-0.142279 0.196204,-0.158108 0.339954,-0.193446 0.03387,0.07694 0.02226,0.150375 -0.01214,0.225104 -0.06037,0.127921 -0.135833,0.246638 -0.256758,0.324309 -0.11853,0.0762 -0.222893,0.167492 -0.334243,0.269462 -0.0727,0.02173 -0.163996,0.01729 -0.233754,0.08485 -0.02872,0.02889 -0.07896,0.03534 -0.119267,0.05264 -0.122213,0.05098 -0.259521,0.03295 -0.383943,0.0854 -0.117979,0.0497 -0.25013,-0.02501 -0.371792,0.02815 -0.160313,-0.0935 -0.348601,-0.03164 -0.510388,-0.09277 -0.106384,-0.03957 -0.211297,-0.05614 -0.321363,-0.06258 -0.244426,-0.0151 -0.476705,-0.09277 -0.713952,-0.142275 -0.337192,-0.0705 -0.675855,-0.121663 -1.02096,-0.109333 -0.363142,0.01288 -0.722605,0.05393 -1.079856,0.120742 -0.187738,0.03517 -0.354493,0.120008 -0.529901,0.183324 -0.223626,0.08062 -0.434188,0.21645 -0.706776,0.171171"
       style="fill:#21201d;fill-opacity:1;fill-rule:evenodd;stroke:none;stroke-width:0.184057"
       id="path486" />
    <path
       d="m 17.283832,30.037965 c -0.02374,-0.154425 0.08908,-0.219946 0.16105,-0.258784 0.188289,-0.101416 0.327068,-0.263204 0.513334,-0.369587 0.246634,-0.139334 0.506152,-0.225658 0.774323,-0.29118 0.246634,-0.06037 0.499713,-0.09921 0.751318,-0.136571 0.296146,-0.04381 0.58953,-0.01933 0.886414,0.02081 0.336455,0.04602 0.664443,0.151113 1.007339,0.153875 0.132888,7.06e-4 0.263751,0.0381 0.386701,0.067 0.179088,0.04233 0.360934,0.05098 0.537076,0.08982 0.193442,0.04233 0.384679,0.0151 0.570205,-0.023 0.234305,-0.04823 0.465113,-0.11798 0.694447,-0.188475 0.09,-0.02872 0.164729,-0.09332 0.238721,-0.156634 0.05908,-0.05025 0.120925,-0.104912 0.227309,-0.07988 -0.102154,0.125162 -0.214242,0.203571 -0.342346,0.279771 -0.215713,0.129391 -0.446335,0.21995 -0.663522,0.342162 -0.253076,0.141725 -0.514068,0.22805 -0.813897,0.177617 -0.148901,-0.02522 -0.304797,-0.0094 -0.457193,-0.01436 -0.167676,-0.0057 -0.333696,-0.0021 -0.499714,-0.0497 -0.2286,-0.0624 -0.467317,-0.06902 -0.706038,-0.06957 -0.09424,0 -0.205592,0.02152 -0.292651,-0.05264 -0.331484,-0.0042 -0.652847,-0.115037 -0.988564,-0.07749 -0.125896,0.01362 -0.245163,0.04804 -0.362409,0.0819 -0.237984,0.06829 -0.465846,0.168966 -0.688738,0.281058 -0.154605,0.07767 -0.317864,0.13528 -0.468789,0.225101 -0.142275,0.08412 -0.307009,0.05025 -0.464376,0.04877"
       style="fill:#21201d;fill-opacity:1;fill-rule:evenodd;stroke:none;stroke-width:0.184057"
       id="path488" />
    <path
       d="m 18.235034,30.920894 c -0.08209,0.0065 -0.13528,-0.03165 -0.161784,-0.132155 0.117796,-0.16547 0.27093,-0.313637 0.439893,-0.435849 0.123687,-0.09056 0.277558,-0.147246 0.442288,-0.158842 0.239272,-0.01658 0.472288,-0.08706 0.713955,-0.102704 0.376576,-0.02522 0.749843,0.01711 1.112249,0.09976 0.2459,0.05614 0.488854,0.136754 0.738988,0.177617 0.221417,0.03461 0.445784,0.03387 0.673643,0.0086 0.225838,-0.02374 0.443759,-0.0762 0.658001,-0.1316 0.06829,-0.02798 0.09405,-0.09626 0.160313,-0.144488 0.09479,-0.03883 0.204854,-0.07693 0.322834,-0.05466 0.05522,0.05043 0.04528,0.107855 0.02946,0.187738 -0.228046,0.231546 -0.518485,0.364434 -0.854206,0.429959 -0.309213,0.06037 -0.625422,0.04454 -0.932427,0.107858 -0.05393,0.01069 -0.1143,-0.0052 -0.171171,-0.01436 -0.322834,-0.04823 -0.654321,-0.0532 -0.967031,-0.145225 -0.182583,-0.05264 -0.372346,-0.06332 -0.552171,-0.122396 -0.151659,-0.04951 -0.303322,-0.04012 -0.455168,-7.05e-4 -0.182584,0.0473 -0.359463,0.11062 -0.54628,0.14872 -0.223629,0.04325 -0.423513,0.1697 -0.651376,0.282529"
       style="fill:#21201d;fill-opacity:1;fill-rule:evenodd;stroke:none;stroke-width:0.184057"
       id="path490" />
    <path
       d="m 22.526487,27.340414 c -0.05392,-0.0065 -0.07399,-0.04031 -0.102887,-0.06111 -0.02357,-0.01729 -0.05098,-0.02723 -0.08761,-0.04675 -0.01288,-0.121479 -0.01729,-0.244429 7.06e-4,-0.378054 0.0381,-0.293391 0.09202,-0.583096 0.143746,-0.873725 0.04675,-0.262283 -0.03387,-0.4572 -0.226388,-0.538371 -0.179088,-0.0762 -0.368113,-0.08485 -0.552171,-0.0014 -0.05264,0.02448 -0.102885,0.0554 -0.151847,0.08043 -0.03295,-0.01584 -0.0589,-0.02946 -0.09552,-0.0473 -0.01729,-0.06976 -0.03663,-0.146692 -0.05245,-0.212955 0.04528,-0.209087 0.223629,-0.198412 0.362959,-0.247925 0.38118,0.0151 0.645668,0.240746 0.891568,0.49033 0.0309,0.177616 0.0079,0.361674 0.137304,0.50395 0.05098,0.340141 0.111538,0.680095 -0.05393,1.009375 -0.05669,0.1143 -0.06331,0.260258 -0.213504,0.323574"
       style="fill:#21201d;fill-opacity:1;fill-rule:evenodd;stroke:none;stroke-width:0.184057"
       id="path492" />
    <path
       d="m 19.332194,27.213965 c -0.02099,0.01436 -0.03461,0.03221 -0.04399,0.02946 -0.1697,-0.04325 -0.318417,-0.131601 -0.36885,-0.302038 -0.04804,-0.161788 -0.102704,-0.317684 -0.185346,-0.477446 0.05816,-0.09479 -7.06e-4,-0.2286 0.09995,-0.317687 -0.01379,-0.112825 0.07749,-0.219396 0.05963,-0.310688 -0.02667,-0.135833 0.125709,-0.203383 0.07473,-0.314187 0.06111,-0.09203 0.156817,-0.131417 0.194917,-0.221421 0.141538,-0.0381 0.266697,-0.09773 0.347867,-0.196942 0.161784,-0.03313 0.297618,-0.0086 0.427743,0.04896 0.143934,0.06313 0.172646,0.184058 0.08135,0.332775 -0.06626,0.01087 -0.104358,-0.04951 -0.161783,-0.06405 -0.169701,0.02173 -0.345105,0.02448 -0.512597,0.07565 -0.218659,0.20412 -0.280501,0.452233 -0.176879,0.718195 0.0554,0.142276 0.101416,0.288234 0.09553,0.444317 -0.0079,0.1905 0.02667,0.376029 0.06773,0.555117"
       style="fill:#21201d;fill-opacity:1;fill-rule:evenodd;stroke:none;stroke-width:0.184057"
       id="path494" />
    <path
       d="m 20.83483,25.003798 c -0.214979,0.01436 -0.214979,0.01436 -0.358175,-0.09497 0.01305,-0.08485 0.02741,-0.176142 0.04252,-0.277558 0.05467,-0.05816 0.113563,-0.121479 0.168963,-0.179642 0.178167,-0.06184 0.285472,0.01658 0.362959,0.160316 -0.0028,0.164547 -0.01436,0.323575 -0.216263,0.391859"
       style="fill:#21201d;fill-opacity:1;fill-rule:evenodd;stroke:none;stroke-width:0.184057"
       id="path496" />
    <path
       d="m 21.790265,26.707069 c 0.04104,-0.06037 0.08338,-0.09718 0.143746,-0.112275 0.03957,0.0014 0.067,0.02667 0.09718,0.05264 0.02798,0.08043 0.01785,0.170254 0.05522,0.252342 0.01951,0.04381 0.023,0.106387 0.0079,0.150192 -0.05025,0.140254 -0.05025,0.286212 -0.06755,0.429225 -0.01012,0.0819 -0.04528,0.135096 -0.127183,0.164729 -0.02226,-0.0094 -0.04896,-0.02025 -0.08338,-0.03534 0.01637,-0.296149 0.0042,-0.594508 -0.02596,-0.901516"
       style="fill:#21201d;fill-opacity:1;fill-rule:evenodd;stroke:none;stroke-width:0.184057"
       id="path498" />
    <path
       d="m 19.687237,27.420294 c -0.0021,-0.101417 -0.08411,-0.158288 -0.143747,-0.229334 -0.01803,-0.24167 0.03239,-0.480392 0,-0.717645 -0.0072,-0.05595 0.0309,-0.09626 0.09497,-0.120742 0.07031,0.09571 0.123504,0.194183 0.136571,0.321367 0.02081,0.223629 0.05025,0.445787 0.02946,0.670891 -0.005,0.05319 -0.02522,0.08264 -0.117245,0.07546"
       style="fill:#21201d;fill-opacity:1;fill-rule:evenodd;stroke:none;stroke-width:0.184057"
       id="path500" />
  </g>
</svg>
