<?xml version="1.0" encoding="UTF-8" standalone="no"?>
<!-- Created with Inkscape (http://www.inkscape.org/) -->

<svg
   width="6.146513mm"
   height="6.5714197mm"
   viewBox="0 0 6.146513 6.5714197"
   version="1.1"
   id="svg3720"
   inkscape:version="1.1.2 (0a00cf5339, 2022-02-04)"
   sodipodi:docname="curse.svg"
   xmlns:inkscape="http://www.inkscape.org/namespaces/inkscape"
   xmlns:sodipodi="http://sodipodi.sourceforge.net/DTD/sodipodi-0.dtd"
   xmlns="http://www.w3.org/2000/svg"
   xmlns:svg="http://www.w3.org/2000/svg">
  <sodipodi:namedview
     id="namedview3722"
     pagecolor="#ffffff"
     bordercolor="#666666"
     borderopacity="1.0"
     inkscape:pageshadow="2"
     inkscape:pageopacity="0.0"
     inkscape:pagecheckerboard="0"
     inkscape:document-units="mm"
     showgrid="false"
     inkscape:zoom="0.64052329"
     inkscape:cx="-321.61204"
     inkscape:cy="539.40271"
     inkscape:window-width="2560"
     inkscape:window-height="1376"
     inkscape:window-x="0"
     inkscape:window-y="0"
     inkscape:window-maximized="1"
     inkscape:current-layer="layer1" />
  <defs
     id="defs3717" />
  <g
     inkscape:label="Layer 1"
     inkscape:groupmode="layer"
     id="layer1"
     transform="translate(-189.83173,-5.8019384)">
    <path
       d="m 192.63966,8.942297 0.0101,0.00792 0.002,-0.013621 z m -1.34306,1.0288838 c -0.0237,0.014354 -0.0208,0.030921 -0.003,0.04675 0.001,0.0022 0.0116,0 0.0138,-0.0029 0.0114,-0.018591 0.01,-0.033683 -0.0109,-0.043806 m 3.54234,-0.1566333 c -0.0561,0.00201 -0.0653,0.021534 -0.0524,0.055217 0.0339,0.00791 0.046,-0.011412 0.0524,-0.055217 m -0.0955,-1.935553 c 0.001,-0.0057 0.004,-0.013621 0.003,-0.018775 -0.0158,-0.046015 -0.0532,-0.071046 -0.0977,-0.083378 -0.002,-7.408e-4 -0.0188,0.022271 -0.018,0.033867 0.003,0.043806 0.0374,0.06258 0.072,0.075464 0.0114,0.00423 0.0272,-0.00423 0.041,-0.00718 m 1.02943,0.6721793 c -0.12718,0.019509 -0.18479,0.085587 -0.23209,0.1746712 0.0567,0.00515 0.10785,0.02172 0.15737,-0.010675 0.0425,-0.037364 0.049,-0.092029 0.0747,-0.1639958 m -1.60331,-0.8000996 c 0.0972,0.00201 0.17909,0.011412 0.25823,0.036627 0.0488,0.016566 0.10565,0.0173 0.12498,-0.052457 -0.12296,-0.097919 -0.24517,-0.1142996 -0.38321,0.015829 m 0.48186,0.78151 c -0.0245,-0.1575537 -0.14393,-0.2280479 -0.24516,-0.3257825 -0.0928,0.078409 -0.0561,0.1610504 -0.0554,0.2424042 0.0928,0.048775 0.16307,0.1328899 0.30056,0.083378 m -2.10671,0.9512113 c -0.0574,0.052457 -0.10933,0.1286563 -0.15019,0.2127708 -0.0252,0.1150363 -0.002,0.2243667 0.0351,0.3342496 0.0532,0.02098 0.0878,-0.0057 0.11356,-0.040125 -0.0171,-0.2654116 0.13804,-0.5033983 0.11375,-0.7730433 -0.11651,0.055402 -0.0547,0.1625233 -0.11228,0.2661479 m 0.30922,-2.0706517 c -0.17394,-0.1531363 -0.36738,-0.2552884 -0.60113,-0.2567609 -0.0883,-0.00148 -0.16455,-0.032396 -0.24442,-0.058898 -0.0374,-0.012333 -0.0784,-0.06258 -0.12075,-0.00368 0.008,0.098471 0.1121,0.1187175 0.15608,0.1905 0.18259,0.2990941 0.46732,0.5068954 0.69224,0.7686258 0.0316,0.037364 0.0821,0.044542 0.11356,-0.023742 -0.0359,-0.078225 -0.074,-0.1617871 -0.11485,-0.250135 0.0883,-0.094974 0.10767,-0.2135071 0.11927,-0.3659071 m 2.28064,1.4645488 c -0.006,-0.013067 0.006,-0.051904 -0.0309,-0.021534 l 0.0381,0.015646 c -0.0131,0.1172446 0.0703,0.1452216 0.19123,0.2013592 -0.0396,-0.1350984 -0.10068,-0.184058 -0.19841,-0.1954696 m -2.5582,1.5759039 c 0.0698,-0.07694 0.0346,-0.163259 0.0331,-0.258785 -0.072,0.09203 -0.0532,0.178352 -0.0274,0.264491 -0.0725,0.0289 -0.0589,0.05761 0,0.08853 -0.0114,0.06184 -0.11061,0.08632 -0.0775,0.170437 0.1143,-0.03239 0.1143,-0.03239 0.0703,-0.165468 0,-0.03368 7e-4,-0.06681 0.001,-0.09921 m -2.74428,-4.6474624 c 0.27903,0.02945 0.51112,0.1524 0.71671,0.3522868 0.067,0.00644 0.13749,0.013621 0.21001,0.041045 0.17835,0.067549 0.3659,0.107858 0.54996,0.1595784 0.26026,0.07123 0.51205,0.1632592 0.74414,0.3027754 0.072,0.043069 0.15461,0.067549 0.23302,0.1012317 0.0683,0.028162 0.1338,0.023742 0.20853,-0.027241 -0.0727,-0.1509275 -0.21719,-0.212035 -0.3451,-0.2961492 -0.13234,-0.087796 -0.25952,-0.1847942 -0.41781,-0.2978058 0.26817,-0.022271 0.45443,0.097919 0.65285,0.1892116 0.20283,0.092765 0.37455,0.2315446 0.5494,0.3451084 0.0884,-0.015829 0.0676,-0.089268 0.0998,-0.1135638 -0.008,-0.1236867 -0.19252,-0.1761433 -0.097,-0.3171317 0.0584,-0.012883 0.0827,0.028713 0.1143,0.06258 0.10786,0.1135637 0.23523,0.2006233 0.37253,0.2716695 0.0468,0.025217 0.0876,0.02945 0.12719,-0.035891 -0.0804,-0.2171884 -0.30333,-0.3968288 -0.25732,-0.695923 0.36296,0.1890275 0.64273,0.4658505 0.97495,0.6592955 0.0883,-0.1122754 -0.0972,-0.1595784 -0.0346,-0.27259 0.0834,0.079881 0.16602,0.1538725 0.24222,0.23449 0.22878,0.2414838 0.48978,0.4443158 0.76439,0.6311346 0.12792,0.086323 0.24792,0.181297 0.27461,0.3502621 0.0158,0.098471 0.097,0.1531362 0.15608,0.2199492 0.023,0.068285 0.002,0.1437491 0.0473,0.2041203 -0.0223,0.039572 -0.0438,0.079145 -0.0661,0.1194534 -0.15811,0.015829 -0.15811,0.015829 -0.21424,0.1704379 0.0913,-0.046751 0.16104,-0.098471 0.20853,-0.1768796 0.0626,0.048775 0.13804,0.063868 0.21719,0.058898 0.0151,0.1244233 0.11061,0.1962058 0.11485,0.3134508 0.004,0.1078579 -0.0913,0.2035679 -0.0258,0.3047996 -0.0374,0.053929 -0.0668,0.097919 -0.0964,0.1402521 0.0309,0.058347 0.0893,0.094974 0.0979,0.1610508 -0.0267,0.1395159 -0.17541,0.068285 -0.25032,0.1496392 -0.0316,0.090557 -0.001,0.2055925 -0.0547,0.2926521 0.067,0.1882912 0.0986,0.3694042 0.0979,0.5628491 -0.0195,0.052457 -0.0245,0.137307 -0.0663,0.162523 -0.12423,0.07694 -0.18681,0.202648 -0.28179,0.301303 -0.0295,0.03166 -0.0812,0.0416 -0.12792,0.06387 -0.0425,-0.06829 0.0416,-0.108595 0.023,-0.176144 -0.0935,7.41e-4 -0.15167,0.148903 -0.2667,0.07344 -0.021,-0.05835 0.0423,-0.113564 0.0151,-0.174855 -0.0123,-0.005 -0.0252,-0.01509 -0.0376,-0.01362 -0.0683,0.0057 -0.12074,0.07546 -0.21774,0.04104 0.004,-0.07049 0.0653,-0.153872 0.004,-0.232281 -0.0287,0.01583 -0.0604,0.03313 -0.0999,0.05466 -0.14725,-0.088348 -0.0747,-0.3127142 -0.23357,-0.3968287 -0.0339,0.16602 0.0252,0.3688527 -0.19271,0.4680597 -0.0992,-0.08853 -0.11798,-0.2214222 -0.21571,-0.3314889 -0.0396,0.181113 -0.13657,0.3163959 -0.2078,0.4623539 -0.17173,0.347869 -0.28474,0.708071 -0.10786,1.11944 0.0353,-0.133074 0.0663,-0.24811 0.0964,-0.360937 0.0963,0.01288 0.12295,0.08632 0.1732,0.130128 0.0309,0.07473 -0.0114,0.179641 0.10363,0.224367 0.0215,-0.0087 0.0495,-0.01951 0.0797,-0.03019 0.097,0.03092 0.0863,0.134362 0.12792,0.202648 0.11375,-0.04822 0.15682,-0.146694 0.19344,-0.258049 0.1,0.01785 0.13731,0.09921 0.18185,0.135834 0.15387,0.441371 -0.0574,0.654326 -0.54131,0.783719 -0.32357,0.05743 -0.73125,-0.04252 -1.14317,-0.198415 -0.0826,0.03736 -0.17835,0.0416 -0.28179,0.02651 -0.0777,-0.194733 -0.15755,-0.39186 -0.24093,-0.600213 0.0195,-0.09645 0.0497,-0.199887 0.044,-0.309954 -0.005,-0.09921 -0.006,-0.200623 0.0438,-0.284001 -0.026,-0.05172 -0.0576,-0.06479 -0.12589,-0.04601 -0.0136,0.253815 -0.0999,0.50395 -0.1027,0.773595 -0.004,0.265964 0.0891,0.509104 0.14375,0.791633 -0.19915,-0.08853 -0.25603,-0.276823 -0.39333,-0.373821 -0.0381,-0.184795 -0.10639,-0.35376 -0.18903,-0.522725 -0.10068,0.05098 -0.0747,0.201911 -0.20927,0.21498 -0.11209,-0.112276 -0.0517,-0.299831 -0.14945,-0.42996 0.009,-0.01086 0.0243,-0.02871 0.0488,-0.05687 -0.0977,-0.135098 -0.0158,-0.298358 -0.0467,-0.459408 -0.12295,-0.03166 -0.17172,0.04896 -0.21847,0.125895 -0.0561,0.09203 -0.0878,0.200624 -0.21075,0.263019 -0.028,-0.07105 -0.0352,-0.14154 -0.0171,-0.211298 0.0409,-0.171174 0.0238,-0.350815 0.11577,-0.517019 0.0466,-0.08485 0.0352,-0.207065 0.0891,-0.294677 -0.0525,-0.07418 -0.13307,-0.05835 -0.20357,-0.09847 -0.0193,-0.1704377 0.0828,-0.3314882 0.0663,-0.5212519 -0.14246,-0.00293 -0.22786,0.1120912 -0.34234,0.1623388 -0.11135,0.04896 -0.20265,0.126632 -0.31271,0.2050408 0.0497,-0.4997175 0.35302,-0.8081984 0.73401,-1.1036113 -0.15884,-0.013067 -0.24939,0.061843 -0.35228,0.121478 -0.0698,-0.1610505 0.0606,-0.1934447 0.1316,-0.2595217 -0.0302,-0.09074 -0.12645,-0.058346 -0.15166,-0.038836 -0.14375,0.1106188 -0.32505,0.1415404 -0.47156,0.2400113 -0.0569,0.0381 -0.10785,0.084851 -0.15975,0.1258958 -0.0423,-0.015092 -0.0503,-0.052457 -0.0394,-0.074727 0.0854,-0.1912363 0.12718,-0.4091608 0.32338,-0.5350566 0.0381,-0.025033 0.0712,-0.061107 0.10142,-0.095526 0.20136,-0.2278638 0.48241,-0.3005667 0.75573,-0.3881783 0.0272,-0.00865 0.0604,-7.409e-4 0.0992,-7.409e-4 0.0733,0.1128275 0.18037,0.1853463 0.30185,0.2400117 0.0698,0.030921 0.13657,0.074912 0.18406,0.1352825 0.13731,0.1746709 0.30995,0.2954129 0.51849,0.3666434 0.009,0.098471 0.0532,0.1645478 0.15515,0.1912362 0.0173,-0.1617871 0.0173,-0.1617871 -0.16105,-0.1840579 7.1e-4,-0.1120913 -0.0782,-0.1870029 -0.14374,-0.2545521 -0.17173,-0.1754071 -0.35082,-0.3429 -0.53984,-0.4982446 -0.13602,-0.1113554 -0.23946,-0.2357784 -0.284,-0.4062159 -0.007,-0.021534 -0.007,-0.048223 -0.0195,-0.065341 -0.26246,-0.3544954 -0.47302,-0.7557417 -0.88438,-0.9742184 -0.0747,-0.040309 -0.14302,-0.087796 -0.20339,-0.1496391 -0.0705,-0.072519 -0.15239,-0.1308654 -0.24737,-0.1704376 -0.13878,-0.055954 -0.24792,-0.1479828 -0.32412,-0.2788478 z"
       style="font-variation-settings:normal;opacity:1;vector-effect:none;fill:#21201d;fill-opacity:1;fill-rule:evenodd;stroke:none;stroke-width:0.184057;stroke-linecap:butt;stroke-linejoin:miter;stroke-miterlimit:4;stroke-dasharray:none;stroke-dashoffset:0;stroke-opacity:1;-inkscape-stroke:none;stop-color:#000000;stop-opacity:1"
       id="path484" />
  </g>
</svg>
