<?xml version="1.0" encoding="UTF-8" standalone="no"?>
<!-- Created with Inkscape (http://www.inkscape.org/) -->

<svg
   width="6.0466223mm"
   height="7.4454975mm"
   viewBox="0 0 6.0466223 7.4454975"
   version="1.1"
   id="svg3558"
   inkscape:version="1.1.2 (0a00cf5339, 2022-02-04)"
   sodipodi:docname="set.svg"
   xmlns:inkscape="http://www.inkscape.org/namespaces/inkscape"
   xmlns:sodipodi="http://sodipodi.sourceforge.net/DTD/sodipodi-0.dtd"
   xmlns="http://www.w3.org/2000/svg"
   xmlns:svg="http://www.w3.org/2000/svg">
  <sodipodi:namedview
     id="namedview3560"
     pagecolor="#ffffff"
     bordercolor="#666666"
     borderopacity="1.0"
     inkscape:pageshadow="2"
     inkscape:pageopacity="0.0"
     inkscape:pagecheckerboard="0"
     inkscape:document-units="mm"
     showgrid="false"
     inkscape:zoom="0.64052329"
     inkscape:cx="221.69373"
     inkscape:cy="608.09655"
     inkscape:window-width="2560"
     inkscape:window-height="1376"
     inkscape:window-x="0"
     inkscape:window-y="0"
     inkscape:window-maximized="1"
     inkscape:current-layer="layer1" />
  <defs
     id="defs3555" />
  <g
     inkscape:label="Layer 1"
     inkscape:groupmode="layer"
     id="layer1"
     transform="translate(-46.132468,12.397308)">
    <path
       d="m 50.297364,-6.0401228 c 0.36388,-0.36241 0.590268,-0.8067258 0.818314,-1.2574838 0.179638,-0.3544954 0.273875,-0.635552 0.393146,-1.0044041 0.02374,-0.074175 0.06847,-0.2020955 0.08779,-0.2760867 0.03239,-0.1258958 -0.01877,-0.4494696 -0.114296,-0.6456754 -0.156817,-0.3191563 -0.344371,-0.6269013 -0.404005,-0.9858142 -0.0302,-0.181113 -0.143933,-0.230808 -0.314921,-0.227864 -0.417071,0.0064 -0.834143,0.0022 -1.253236,0.0022 -0.09626,-0.187003 -0.0309,-0.345845 0.06111,-0.501926 0.237984,-0.404007 0.294121,-0.879981 0.501921,-1.297056 0.01933,-0.0381 0.03663,-0.07823 0.07546,-0.163075 0.124421,0.12295 0.256575,0.204856 0.320626,0.324125 0.241483,0.445789 0.365167,0.62635 0.724813,0.788136 0.183321,0.08264 0.322101,0.218477 0.54628,0.267437 0.0497,0.01068 0.160313,0.101967 0.144484,0.231545 -0.01637,0.131417 0.01013,0.268908 -0.0057,0.400325 -0.05816,0.4616175 0.08338,0.8972829 0.230808,1.3114129 0.103625,0.2919159 0.08908,0.5343204 -0.03238,0.7787492 -0.237246,0.473765 -0.503943,0.9331738 -0.798064,1.375465 -0.170254,0.2551042 -0.698126,0.7619996 -0.982126,0.8799809"
       style="fill:#21201d;fill-opacity:1;fill-rule:evenodd;stroke:none;stroke-width:0.184057"
       id="path464" />
    <path
       d="m 47.706959,-4.9523407 c -0.10565,0.00644 -0.175404,-0.047487 -0.198413,-0.068285 -0.501738,-0.4601446 -0.938318,-0.9714575 -1.207777,-1.6055371 -0.182029,-0.4277508 -0.252525,-1.1899346 -0.02596,-1.5429576 0.266696,-0.416155 0.177613,-0.77562 0.02797,-1.1682158 -0.02007,-0.051904 -0.03514,-0.1417246 -0.01436,-0.1654679 0.186267,-0.2320971 0.265413,-0.6419949 0.269646,-0.9957539 7.05e-4,-0.111355 0,-0.222158 0,-0.357256 0.09202,0.02503 0.138776,0.03092 0.179821,0.04951 0.211297,0.09645 0.384493,0.266148 0.640514,0.276087 0.237988,0.0086 0.473763,0.06258 0.711747,0.09424 0.08062,0.01086 0.174667,-0.01086 0.239455,0.02522 0.06111,0.03368 0.09277,0.124239 0.136571,0.189028 -0.04749,0.02945 -0.09847,0.05319 -0.141538,0.08835 -0.212954,0.1741195 -0.480388,0.2164528 -0.729047,0.2985428 -0.514805,0.1702534 -0.660026,0.4910666 -0.435109,0.98563 0.156817,0.3451088 0.137491,0.3903871 -0.166017,0.6442029 -0.187004,0.1560809 -0.293388,0.3515505 -0.353022,0.6075751 -0.05245,0.2249187 -0.07325,0.3925954 -0.0094,0.6305825 0.07767,0.2874983 0.145221,0.5751809 0.273326,0.8433533 0.189025,0.3990376 0.423513,0.8490592 0.801564,1.1711605"
       style="fill:#21201d;fill-opacity:1;fill-rule:nonzero;stroke:none;stroke-width:0.184057"
       id="path466" />
    <path
       d="m 51.036536,-9.6717696 c 0.07049,0.2911796 0.323571,0.473213 0.232276,0.7196663 -0.07546,0.2006233 -0.263197,0.3925955 -0.361668,0.5536463 -0.336455,0.5486767 -0.761443,0.956365 -1.247348,1.3265054 -0.214979,0.1647317 -0.55088,0.2495826 -0.811139,0.3767667 0.141725,-0.1847942 0.201359,-0.1847942 0.286209,-0.2538158 0.227125,-0.1825855 0.456459,-0.3609379 0.666468,-0.5707638 0.234488,-0.2344896 0.432163,-0.5026621 0.600392,-0.7089912 0.255284,-0.311978 0.362405,-0.6751242 0.480201,-1.1978488 0.0151,-0.068285 0.08136,-0.1336263 0.154609,-0.2451651"
       style="fill:#21201d;fill-opacity:1;fill-rule:nonzero;stroke:none;stroke-width:0.184057"
       id="path468" />
    <path
       d="m 48.175752,-8.8887874 c 0.950464,-0.013621 1.593924,-0.4846242 2.054066,-1.3257696 h 0.534313 c -0.542963,1.1619583 -1.436557,1.5372521 -2.588379,1.3257696"
       style="fill:#21201d;fill-opacity:1;fill-rule:nonzero;stroke:none;stroke-width:0.184057"
       id="path470" />
  </g>
</svg>
