<?xml version="1.0" encoding="UTF-8" standalone="no"?>
<!-- Created with Inkscape (http://www.inkscape.org/) -->

<svg
   width="6.2364969mm"
   height="6.3555136mm"
   viewBox="0 0 6.2364969 6.3555136"
   version="1.1"
   id="svg12747"
   inkscape:version="1.1.2 (0a00cf5339, 2022-02-04)"
   sodipodi:docname="elder.svg"
   xmlns:inkscape="http://www.inkscape.org/namespaces/inkscape"
   xmlns:sodipodi="http://sodipodi.sourceforge.net/DTD/sodipodi-0.dtd"
   xmlns="http://www.w3.org/2000/svg"
   xmlns:svg="http://www.w3.org/2000/svg">
  <sodipodi:namedview
     id="namedview12749"
     pagecolor="#ffffff"
     bordercolor="#666666"
     borderopacity="1.0"
     inkscape:pageshadow="2"
     inkscape:pageopacity="0.0"
     inkscape:pagecheckerboard="0"
     inkscape:document-units="mm"
     showgrid="false"
     inkscape:zoom="0.64052329"
     inkscape:cx="99.918303"
     inkscape:cy="39.811199"
     inkscape:window-width="1920"
     inkscape:window-height="1136"
     inkscape:window-x="0"
     inkscape:window-y="0"
     inkscape:window-maximized="1"
     inkscape:current-layer="layer1" />
  <defs
     id="defs12744" />
  <g
     inkscape:label="Layer 1"
     inkscape:groupmode="layer"
     id="layer1"
     transform="translate(-78.670347,-138.09345)">
    <g
       style="fill:#000000;fill-opacity:1"
       id="g8638"
       transform="matrix(0.35277777,0,0,0.35277777,-104.95854,-51.553881)">
      <g
         id="use8636"
         transform="translate(520.24799,551.33301)">
        <path
           style="stroke:none"
           d="m 11.984375,-2.671875 c 0.03125,-0.00781 0.04687,-0.00781 0.04687,0 0.0078,0 0.03125,0 0.0625,0 0.07031,0 0.148438,0.011719 0.234375,0.03125 0.08203,0.011719 0.160156,0.023437 0.234375,0.03125 0.257812,0.042969 0.503906,0.09375 0.734375,0.15625 0.238281,0.0625 0.484375,0.132813 0.734375,0.203125 0.0078,0.023438 0.03906,0.03125 0.09375,0.03125 h 0.03125 c 0,-0.03125 -0.0078,-0.046875 -0.01563,-0.046875 0,-0.00781 0,-0.019531 0,-0.03125 -0.125,-0.300781 -0.246094,-0.59375 -0.359375,-0.875 -0.117188,-0.289063 -0.242188,-0.582031 -0.375,-0.875 -0.0625,-0.144531 -0.109375,-0.25 -0.140625,-0.3125 -0.02344,-0.070313 -0.04297,-0.132813 -0.0625,-0.1875 -0.01172,-0.0625 -0.03906,-0.125 -0.07813,-0.1875 -0.03125,-0.0625 -0.08594,-0.160156 -0.15625,-0.296875 0,-0.00781 0.01563,-0.023438 0.04687,-0.046875 0.03125,-0.03125 0.06641,-0.0625 0.109375,-0.09375 0.05078,-0.03125 0.09375,-0.054687 0.125,-0.078125 0.03906,-0.03125 0.0625,-0.050781 0.0625,-0.0625 0.03125,-0.03125 0.06641,-0.050781 0.109375,-0.0625 0.03906,-0.00781 0.07813,-0.03125 0.109375,-0.0625 0.01953,-0.019531 0.05078,-0.039062 0.09375,-0.0625 0.03906,-0.03125 0.07031,-0.054688 0.09375,-0.078125 0.01953,0 0.04687,0.011719 0.07813,0.03125 0.09375,0.105469 0.179687,0.203125 0.265625,0.296875 0.09375,0.085938 0.179688,0.179688 0.265625,0.28125 0.257813,0.292969 0.507813,0.605469 0.75,0.9375 0.25,0.324219 0.476563,0.652344 0.6875,0.984375 0.21875,0.304687 0.421875,0.617187 0.609375,0.9375 0.195312,0.324219 0.382812,0.652344 0.5625,0.984375 l 0.984375,1.78125 c 0.01953,0.050781 0.03125,0.082031 0.03125,0.09375 0,0.019531 -0.0078,0.03125 -0.01563,0.03125 -0.0625,0 -0.121094,0 -0.171875,0 C 17.710938,0.78125 17.65625,0.769531 17.59375,0.75 17.4375,0.707031 17.28125,0.664062 17.125,0.625 16.96875,0.582031 16.8125,0.535156 16.65625,0.484375 c -0.292969,-0.085937 -0.578125,-0.167969 -0.859375,-0.25 -0.28125,-0.085937 -0.5625,-0.1679688 -0.84375,-0.25 -0.28125,-0.09375 -0.5625,-0.1875 -0.84375,-0.28125 -0.273437,-0.09375 -0.542969,-0.195313 -0.8125,-0.3125 C 13.035156,-0.710938 12.773438,-0.8125 12.515625,-0.90625 12.253906,-1.007812 12,-1.109375 11.75,-1.203125 11.226562,-1.410156 10.722656,-1.613281 10.234375,-1.8125 9.742188,-2.019531 9.253906,-2.25 8.765625,-2.5 8.441406,-2.644531 8.128906,-2.796875 7.828125,-2.953125 7.535156,-3.117188 7.234375,-3.289062 6.921875,-3.46875 6.816406,-3.53125 6.707031,-3.585938 6.59375,-3.640625 6.476562,-3.703125 6.375,-3.769531 6.28125,-3.84375 6.25,-3.863281 6.21875,-3.878906 6.1875,-3.890625 6.164062,-3.910156 6.144531,-3.929688 6.125,-3.953125 6.019531,-4.023438 5.988281,-4.117188 6.03125,-4.234375 c 0,-0.03125 0,-0.050781 0,-0.0625 C 6.03906,-4.304685 6.046875,-4.320312 6.046875,-4.34375 6.054688,-4.363281 6.082031,-4.375 6.125,-4.375 l 0.109375,0.0625 c 0.226563,0.105469 0.421875,0.1875 0.578125,0.25 0.15625,0.054688 0.296875,0.105469 0.421875,0.15625 0.132813,0.042969 0.28125,0.09375 0.4375,0.15625 0.15625,0.054688 0.347656,0.140625 0.578125,0.265625 0.257812,0.117187 0.515625,0.21875 0.765625,0.3125 0.257813,0.085937 0.523437,0.15625 0.796875,0.21875 0.175781,0.054687 0.359375,0.101563 0.546875,0.140625 0.195313,0.042969 0.382813,0.089844 0.5625,0.140625 L 10.9375,-2.6875 v -0.015625 l -0.09375,-0.09375 V -2.84375 h 0.07813 c 0,0 0.0078,0.00781 0.03125,0.015625 0.101563,0.03125 0.207031,0.0625 0.3125,0.09375 0.101563,0.03125 0.203125,0.0625 0.296875,0.09375 0.05078,0.011719 0.101562,0.023437 0.15625,0.03125 0.05078,0.011719 0.109375,0.023437 0.171875,0.03125 0.03125,0.023437 0.07813,0.03125 0.140625,0.03125 0,0 0,-0.015625 0,-0.046875 0,-0.00781 -0.01172,-0.015625 -0.03125,-0.015625 -0.01172,-0.00781 -0.01563,-0.03125 -0.01563,-0.0625 h 0.03125 z M 8.671875,-2 c -0.011719,0.023438 -0.023437,0.039062 -0.03125,0.046875 0,0.011719 -0.011719,0.023437 -0.03125,0.03125 -0.148437,0.21875 -0.296875,0.429687 -0.453125,0.625 C 8,-1.097656 7.84375,-0.894531 7.6875,-0.6875 7.601562,-0.582031 7.519531,-0.472656 7.4375,-0.359375 7.363281,-0.242188 7.289062,-0.132812 7.21875,-0.03125 7.0625,0.207031 6.921875,0.453125 6.796875,0.703125 c -0.117187,0.25 -0.21875,0.507813 -0.3125,0.78125 -0.125,0.351563 -0.210937,0.734375 -0.25,1.140625 -0.023437,0.113281 -0.03125,0.226562 -0.03125,0.34375 0,0.113281 0,0.222656 0,0.328125 0,0.03125 -0.011719,0.050781 -0.03125,0.0625 H 6.15625 C 6.15625,3.347656 6.148438,3.34375 6.140625,3.34375 6.128906,3.34375 6.125,3.332031 6.125,3.3125 6.0625,3.226562 6,3.144531 5.9375,3.0625 5.882812,2.976562 5.820312,2.890625 5.75,2.796875 5.726562,2.742188 5.703125,2.707031 5.671875,2.6875 H 5.65625 v 0.015625 c 0,0.00781 -0.00781,0.019531 -0.015625,0.03125 0,0.019531 0.00391,0.039063 0.015625,0.0625 L 5.78125,3.375 c 0.019531,0.113281 0.039062,0.234375 0.0625,0.359375 0.03125,0.125 0.054688,0.25 0.078125,0.375 0.019531,0.019531 0.03125,0.0625 0.03125,0.125 0,0.019531 -0.00781,0.03125 -0.015625,0.03125 -0.011719,0 -0.015625,-0.011719 -0.015625,-0.03125 C 5.898438,4.234375 5.882812,4.226562 5.875,4.21875 5.84375,4.175781 5.804688,4.140625 5.765625,4.109375 5.734375,4.078125 5.703125,4.046875 5.671875,4.015625 5.609375,3.929688 5.550781,3.847656 5.5,3.765625 5.457031,3.679688 5.410156,3.597656 5.359375,3.515625 5.253906,3.335938 5.15625,3.144531 5.0625,2.9375 4.976562,2.738281 4.894531,2.546875 4.8125,2.359375 4.613281,1.835938 4.457031,1.273438 4.34375,0.671875 4.269531,0.367188 4.226562,0.0664062 4.21875,-0.234375 V -0.40625 c 0,-0.007812 0.015625,-0.015625 0.046875,-0.015625 V -0.40625 C 4.273438,-0.375 4.289062,-0.320312 4.3125,-0.25 4.34375,-0.15625 4.375,-0.0664062 4.40625,0.015625 4.4375,0.109375 4.460938,0.207031 4.484375,0.3125 c 0,0.007812 0.015625,0.050781 0.046875,0.125 0,0 0.00391,0.003906 0.015625,0.015625 0.019531,0.03125 0.03125,0.019531 0.03125,-0.03125 C 4.578125,0.359375 4.570312,0.3125 4.5625,0.28125 4.550781,0.164062 4.539062,0.0507812 4.53125,-0.0625 4.519531,-0.175781 4.515625,-0.289062 4.515625,-0.40625 4.492188,-0.582031 4.476562,-0.75 4.46875,-0.90625 c 0,-0.164062 0,-0.335938 0,-0.515625 0.00781,-0.1875 0.019531,-0.375 0.03125,-0.5625 0.00781,-0.195313 0.019531,-0.382813 0.03125,-0.5625 L 4.578125,-3.1875 c 0.019531,-0.0625 0.03125,-0.128906 0.03125,-0.203125 0,-0.082031 0.00391,-0.15625 0.015625,-0.21875 C 4.644531,-3.816406 4.664062,-4.019531 4.6875,-4.21875 4.71875,-4.425781 4.75,-4.640625 4.78125,-4.859375 4.800781,-5.035156 4.820312,-5.21875 4.84375,-5.40625 4.875,-5.601562 4.90625,-5.789062 4.9375,-5.96875 4.96875,-6.1875 5,-6.40625 5.03125,-6.625 5.0625,-6.851562 5.097656,-7.078125 5.140625,-7.296875 c 0,-0.019531 0.00391,-0.035156 0.015625,-0.046875 0,-0.050781 0.023438,-0.078125 0.078125,-0.078125 0.03125,0.011719 0.0625,0.015625 0.09375,0.015625 0.03125,0 0.054687,0.00781 0.078125,0.015625 0.0625,0.011719 0.144531,0.023437 0.25,0.03125 0.101562,0.011719 0.1875,0.023437 0.25,0.03125 0.050781,0.011719 0.070312,0.042969 0.0625,0.09375 -0.03125,0.105469 -0.054688,0.199219 -0.0625,0.28125 -0.011719,0.085937 -0.027344,0.179687 -0.046875,0.28125 -0.074219,0.40625 -0.121094,0.859375 -0.140625,1.359375 -0.011719,0.492188 -0.00781,0.933594 0.015625,1.328125 0,0.125 0.00391,0.25 0.015625,0.375 0.019531,0.117187 0.035156,0.246094 0.046875,0.390625 0,0.105469 0,0.203125 0,0.296875 0.00781,0.085937 0.019531,0.179687 0.03125,0.28125 0.019531,0.09375 0.03125,0.183594 0.03125,0.265625 0.00781,0.085938 0.019531,0.171875 0.03125,0.265625 0.00781,0.117187 0.019531,0.234375 0.03125,0.359375 0.019531,0.117188 0.035156,0.230469 0.046875,0.34375 0,0.023438 -0.00781,0.03125 -0.015625,0.03125 0,0 0,0.00781 0,0.015625 0,0 -0.015625,-0.00391 -0.046875,-0.015625 C 5.882812,-1.394531 5.851562,-1.421875 5.8125,-1.453125 l -0.03125,0.03125 v 0.015625 c 0.019531,0.085938 0.039062,0.164062 0.0625,0.234375 0.019531,0.0625 0.039062,0.136719 0.0625,0.21875 0.03125,0.023437 0.054688,0.023437 0.078125,0 C 5.992188,-0.984375 6.019531,-1.019531 6.0625,-1.0625 6.15625,-1.1875 6.242188,-1.304688 6.328125,-1.421875 6.410156,-1.535156 6.5,-1.65625 6.59375,-1.78125 6.738281,-1.945312 6.875,-2.113281 7,-2.28125 c 0.125,-0.164062 0.257812,-0.332031 0.40625,-0.5 L 7.515625,-2.875 c 0.03125,-0.03125 0.085937,0 0.171875,0.09375 0.082031,0.09375 0.132812,0.152344 0.15625,0.171875 0.132812,0.105469 0.265625,0.199219 0.390625,0.28125 0.125,0.085937 0.25,0.179687 0.375,0.28125 0.019531,0 0.039063,0.015625 0.0625,0.046875 z M 2.71875,-7.671875 c 0,0.011719 0.015625,0.027344 0.046875,0.046875 0.039063,0.042969 0.078125,0.085938 0.109375,0.125 0.039062,0.042969 0.082031,0.074219 0.125,0.09375 0.070312,0.074219 0.128906,0.125 0.171875,0.15625 0.0625,0.0625 0.117187,0.121094 0.171875,0.171875 0.0625,0.054687 0.125,0.109375 0.1875,0.171875 0.101562,0.105469 0.203125,0.1875 0.296875,0.25 0.09375,0.0625 0.191406,0.148438 0.296875,0.25 0.0625,0.0625 0.132812,0.117188 0.21875,0.15625 C 4.425781,-6.21875 4.5,-6.171875 4.5625,-6.109375 4.675781,-6.015625 4.722656,-5.894531 4.703125,-5.75 4.691406,-5.726562 4.675781,-5.675781 4.65625,-5.59375 4.644531,-5.507812 4.640625,-5.457031 4.640625,-5.4375 4.628906,-5.382812 4.613281,-5.332031 4.59375,-5.28125 4.582031,-5.238281 4.570312,-5.191406 4.5625,-5.140625 H 4.53125 C 4.519531,-5.140625 4.5,-5.15625 4.46875,-5.1875 4.144531,-5.394531 3.832031,-5.613281 3.53125,-5.84375 3.238281,-6.082031 2.953125,-6.332031 2.671875,-6.59375 2.117188,-7.09375 1.644531,-7.632812 1.25,-8.21875 0.851562,-8.78125 0.546875,-9.398438 0.328125,-10.078125 c -0.03125,-0.07031 -0.046875,-0.125 -0.046875,-0.15625 -0.011719,-0.0078 -0.007812,-0.01953 0.015625,-0.03125 0.019531,-0.0078 0.039063,-0.01563 0.0625,-0.01563 0.082031,0.02344 0.140625,0.04687 0.171875,0.07813 0.019531,0.01172 0.035156,0.01563 0.046875,0.01563 0.132813,0.117188 0.285156,0.21875 0.453125,0.3125 0.164062,0.085938 0.335938,0.167969 0.515625,0.25 0.125,0.042969 0.242187,0.085938 0.359375,0.125 0.113281,0.042969 0.234375,0.085938 0.359375,0.125 C 2.597656,-9.28125 2.925781,-9.1875 3.25,-9.09375 3.570312,-9 3.898438,-8.90625 4.234375,-8.8125 4.460938,-8.75 4.695312,-8.691406 4.9375,-8.640625 c 0.238281,0.054687 0.476562,0.09375 0.71875,0.125 0.132812,0.023437 0.265625,0.042969 0.390625,0.0625 0.125,0.011719 0.257813,0.023437 0.40625,0.03125 l 0.453125,0.0625 c 0.15625,0.023437 0.304688,0.042969 0.453125,0.0625 0.144531,0.011719 0.289063,0.027344 0.4375,0.046875 0.070313,0.011719 0.144531,0.023438 0.21875,0.03125 0.082031,0 0.160156,0 0.234375,0 0.0625,0.023438 0.125,0.03125 0.1875,0.03125 0.0625,0 0.128906,0.00781 0.203125,0.015625 0.125,0.011719 0.25,0.023437 0.375,0.03125 0.125,0 0.253906,0 0.390625,0 0.070312,0.023437 0.148438,0.039063 0.234375,0.046875 0.082031,0 0.160156,0 0.234375,0 0.050781,0 0.117188,0.011719 0.203125,0.03125 0.0625,0.011719 0.125,0.054688 0.1875,0.125 0.0625,0.0625 0.117187,0.125 0.171875,0.1875 0.05078,0.0625 0.109375,0.125 0.171875,0.1875 l -0.01563,0.046875 c -0.03125,0 -0.05469,0.00781 -0.0625,0.015625 -0.01172,0 -0.03125,0 -0.0625,0 -0.375,0 -0.761719,0.00781 -1.15625,0.015625 -0.386719,0 -0.773438,-0.00781 -1.15625,-0.03125 C 8,-7.515625 7.84375,-7.519531 7.6875,-7.53125 7.539062,-7.539062 7.390625,-7.550781 7.234375,-7.5625 7.128906,-7.570312 7.03125,-7.578125 6.9375,-7.578125 6.84375,-7.585938 6.742188,-7.601562 6.640625,-7.625 6.578125,-7.632812 6.507812,-7.640625 6.4375,-7.640625 6.375,-7.640625 6.3125,-7.644531 6.25,-7.65625 5.9375,-7.695312 5.625,-7.738281 5.3125,-7.78125 5.007812,-7.832031 4.703125,-7.898438 4.390625,-7.984375 4.253906,-8.003906 4.125,-8.035156 4,-8.078125 3.875,-8.117188 3.742188,-8.15625 3.609375,-8.1875 c -0.03125,0 -0.0625,-0.00391 -0.09375,-0.015625 C 3.492188,-8.210938 3.472656,-8.21875 3.453125,-8.21875 L 3.4375,-8.1875 v 0.015625 c 0.050781,0.023437 0.078125,0.03125 0.078125,0.03125 0.132813,0.054687 0.273437,0.105469 0.421875,0.15625 0.144531,0.054687 0.289062,0.105469 0.4375,0.15625 0.039062,0.023437 0.082031,0.042969 0.125,0.0625 0.039062,0.011719 0.085938,0.027344 0.140625,0.046875 v 0.03125 c 0,0.011719 -0.00781,0.015625 -0.015625,0.015625 -0.09375,0 -0.179688,0 -0.25,0 C 4.300781,-7.679688 4.222656,-7.695312 4.140625,-7.71875 l -0.6875,-0.046875 c -0.023437,0 -0.042969,0.00781 -0.0625,0.015625 H 3.375 v 0.015625 l 0.109375,0.0625 c 0.03125,0.023437 0.070313,0.046875 0.125,0.078125 C 3.617188,-7.582031 3.625,-7.570312 3.625,-7.5625 L 3.609375,-7.546875 C 3.453125,-7.515625 3.3125,-7.519531 3.1875,-7.5625 3.125,-7.582031 3.054688,-7.597656 2.984375,-7.609375 c -0.0625,-0.019531 -0.125,-0.039063 -0.1875,-0.0625 -0.054687,0 -0.078125,0 -0.078125,0 z m 2.734375,-1.1875 c 0.00781,-0.0625 0.019531,-0.125 0.03125,-0.1875 0.00781,-0.070313 0.03125,-0.140625 0.0625,-0.203125 0.00781,-0.0625 0.019531,-0.128906 0.03125,-0.203125 0.019531,-0.070313 0.039063,-0.140625 0.0625,-0.203125 L 5.75,-10.046875 c 0.03125,-0.07031 0.046875,-0.140625 0.046875,-0.203125 0.00781,-0.0625 0.03125,-0.125 0.0625,-0.1875 l 0.109375,-0.40625 c 0.019531,-0.0625 0.035156,-0.125 0.046875,-0.1875 0.00781,-0.07031 0.023437,-0.144531 0.046875,-0.21875 l 0.109375,-0.390625 c 0.03125,-0.07031 0.046875,-0.140625 0.046875,-0.203125 0.00781,-0.0625 0.03125,-0.125 0.0625,-0.1875 L 6.5,-12.84375 c 0.019531,-0.113281 0.050781,-0.238281 0.09375,-0.375 0.03125,0 0.046875,0.0078 0.046875,0.01563 0.00781,0 0.019531,0 0.03125,0 0.03125,0.03125 0.046875,0.02344 0.046875,-0.03125 v -0.15625 c 0.00781,-0.0625 0.015625,-0.160156 0.015625,-0.296875 0,-0.0078 0,-0.01563 0,-0.01563 0.00781,-0.0078 0.015625,-0.01953 0.015625,-0.03125 0,0 0.00391,-0.0039 0.015625,-0.01563 h 0.03125 c 0.00781,0.01172 0.019531,0.01563 0.03125,0.01563 0.03125,0.07422 0.050781,0.125 0.0625,0.15625 0.070313,0.167969 0.148437,0.328125 0.234375,0.484375 0.082031,0.15625 0.164062,0.320312 0.25,0.484375 0.09375,0.179687 0.195312,0.359375 0.3125,0.546875 0.113281,0.179688 0.238281,0.351562 0.375,0.515625 0.289062,0.355469 0.601562,0.664063 0.9375,0.921875 0.019531,0.02344 0.046875,0.03906 0.078125,0.04687 0.00781,0.02344 0.015625,0.03906 0.015625,0.04687 -0.011719,0.01172 -0.03125,0.01563 -0.0625,0.01563 H 8.890625 c -0.023437,0 -0.03125,0.0078 -0.03125,0.01563 v 0.03125 c 0.03125,0.01172 0.046875,0.02344 0.046875,0.03125 0.00781,0.01172 0.023438,0.02344 0.046875,0.03125 0.40625,0.304688 0.78125,0.601562 1.125,0.890625 0.40625,0.335937 0.789063,0.679687 1.15625,1.03125 0.375,0.34375 0.742187,0.710937 1.109375,1.09375 0.01953,0.042969 0.04687,0.078125 0.07813,0.109375 0.03125,0.03125 0.0625,0.070312 0.09375,0.109375 0.01953,0.023437 0.01953,0.046875 0,0.078125 -0.04297,0.03125 -0.08594,0.070312 -0.125,0.109375 -0.03125,0.042969 -0.08594,0.074219 -0.15625,0.09375 -0.03125,0.03125 -0.07031,0.03125 -0.109375,0 -0.02344,-0.019531 -0.04297,-0.035156 -0.0625,-0.046875 -0.02344,-0.019531 -0.04687,-0.035156 -0.07813,-0.046875 -0.04297,-0.039063 -0.08594,-0.078125 -0.125,-0.109375 -0.04297,-0.039062 -0.08984,-0.070312 -0.140625,-0.09375 -0.105469,-0.082031 -0.203125,-0.15625 -0.296875,-0.21875 -0.08594,-0.070312 -0.179687,-0.144531 -0.28125,-0.21875 -0.09375,-0.0625 -0.1875,-0.117188 -0.28125,-0.171875 -0.09375,-0.0625 -0.1875,-0.125 -0.28125,-0.1875 C 10.460938,-8.066406 10.34375,-8.144531 10.21875,-8.21875 10.101562,-8.300781 9.988281,-8.390625 9.875,-8.484375 9.800781,-8.546875 9.722656,-8.601562 9.640625,-8.65625 9.566406,-8.71875 9.492188,-8.78125 9.421875,-8.84375 9.304688,-8.914062 9.191406,-8.988281 9.078125,-9.0625 8.972656,-9.132812 8.867188,-9.207031 8.765625,-9.28125 H 8.75 v 0.015625 l 0.109375,0.171875 c 0.019531,0.023438 0.035156,0.042969 0.046875,0.0625 0.00781,0.023438 0.019531,0.046875 0.03125,0.078125 V -8.9375 H 8.921875 c -0.023437,0 -0.03125,-0.00391 -0.03125,-0.015625 C 8.796875,-9.003906 8.707031,-9.050781 8.625,-9.09375 8.539062,-9.144531 8.453125,-9.203125 8.359375,-9.265625 c -0.1875,-0.101563 -0.375,-0.25 -0.5625,-0.4375 -0.03125,-0.019531 -0.054687,-0.03125 -0.0625,-0.03125 0,-0.00781 -0.015625,-0.019531 -0.046875,-0.03125 -0.023438,0.023437 -0.023438,0.046875 0,0.078125 0.03125,0.0625 0.050781,0.136719 0.0625,0.21875 0.00781,0.074219 0.03125,0.140625 0.0625,0.203125 V -9.25 H 7.765625 C 7.753906,-9.25 7.738281,-9.25781 7.71875,-9.28125 L 7.484375,-9.453125 C 7.378906,-9.535156 7.304688,-9.59375 7.265625,-9.625 7.234375,-9.65625 7.1875,-9.703125 7.125,-9.765625 L 6.984375,-9.90625 C 6.929688,-9.925781 6.90625,-9.9375 6.90625,-9.9375 6.882812,-9.94531 6.847656,-9.94141 6.796875,-9.921875 c -0.023437,0.011719 -0.042969,0.042969 -0.0625,0.09375 -0.011719,0.03125 -0.027344,0.0625 -0.046875,0.09375 -0.011719,0.023437 -0.023438,0.042969 -0.03125,0.0625 -0.042969,0.105469 -0.085938,0.214844 -0.125,0.328125 C 6.5,-9.226562 6.460938,-9.117188 6.421875,-9.015625 6.398438,-8.953125 6.390625,-8.90625 6.390625,-8.875 6.390625,-8.84375 6.375,-8.796875 6.34375,-8.734375 6.320312,-8.679688 6.289062,-8.664062 6.25,-8.6875 6.175781,-8.707031 6.054688,-8.726562 5.890625,-8.75 5.722656,-8.769531 5.601562,-8.789062 5.53125,-8.8125 5.488281,-8.832031 5.460938,-8.847656 5.453125,-8.859375 Z M 13.78125,-7.75 c -0.09375,-0.00781 -0.203125,-0.00781 -0.328125,0 -0.117187,0 -0.214844,0 -0.296875,0 -0.05469,0.011719 -0.101562,0.015625 -0.140625,0.015625 -0.04297,0 -0.08984,0.00781 -0.140625,0.015625 -0.148438,0 -0.261719,-0.035156 -0.34375,-0.109375 L 12.359375,-8 c -0.01172,0 -0.01563,-0.019531 -0.01563,-0.0625 0.0625,0 0.125,0 0.1875,0 0.0625,-0.00781 0.125,-0.019531 0.1875,-0.03125 0.0625,-0.00781 0.113281,-0.015625 0.15625,-0.015625 0.05078,0 0.101562,-0.00781 0.15625,-0.03125 0.0078,0 0.01563,-0.00391 0.01563,-0.015625 V -8.171875 C 13.023438,-8.179688 13,-8.191406 12.96875,-8.203125 12.94531,-8.222656 12.92188,-8.242188 12.89062,-8.265625 V -8.3125 c 0.03125,-0.00781 0.0625,-0.015625 0.09375,-0.015625 0.03125,0 0.05469,-0.00391 0.07813,-0.015625 0.164062,-0.03125 0.332031,-0.054688 0.5,-0.078125 0.164062,-0.03125 0.332031,-0.054687 0.5,-0.078125 0.125,-0.019531 0.25,-0.039062 0.375,-0.0625 0.132812,-0.019531 0.269531,-0.046875 0.40625,-0.078125 L 15.203125,-8.6875 c 0.03906,0 0.05078,-0.023438 0.03125,-0.078125 L 15.203125,-8.8125 c 0,-0.019531 0.01563,-0.03125 0.04687,-0.03125 0.05078,-0.03125 0.09766,-0.046875 0.140625,-0.046875 0.05078,-0.00781 0.101563,-0.023437 0.15625,-0.046875 0.363281,-0.101562 0.734375,-0.207031 1.109375,-0.3125 0.375,-0.101562 0.742188,-0.207031 1.109375,-0.3125 0.03125,0 0.08203,-0.00781 0.15625,-0.03125 0,0 0.0039,0.00781 0.01563,0.015625 V -9.5625 c 0,0 -0.01172,0.015625 -0.03125,0.046875 -0.304688,0.273437 -0.601562,0.546875 -0.890625,0.828125 -0.292969,0.273438 -0.589844,0.539062 -0.890625,0.796875 -0.28125,0.25 -0.570312,0.492187 -0.859375,0.71875 -0.292969,0.21875 -0.585937,0.433594 -0.875,0.640625 -0.261719,0.1875 -0.527344,0.382812 -0.796875,0.578125 -0.261719,0.1875 -0.523438,0.371094 -0.78125,0.546875 -0.25,0.179688 -0.5,0.367188 -0.75,0.5625 -0.25,0.1875 -0.507812,0.375 -0.765625,0.5625 -0.1875,0.15625 -0.375,0.320312 -0.5625,0.484375 -0.1875,0.167969 -0.371094,0.339844 -0.546875,0.515625 -0.02344,0.011719 -0.05469,0.039062 -0.09375,0.078125 -0.148438,0.105469 -0.289062,0.105469 -0.421875,0 -0.042969,-0.039063 -0.0625,-0.09375 -0.0625,-0.15625 0.00781,-0.019531 0.019531,-0.039063 0.03125,-0.0625 0.00781,-0.03125 0.019531,-0.0625 0.03125,-0.09375 l 0.09375,-0.09375 c 0.144531,-0.175781 0.289063,-0.34375 0.4375,-0.5 0.144531,-0.164063 0.300781,-0.332031 0.46875,-0.5 0.0625,-0.0625 0.125,-0.125 0.1875,-0.1875 0.07031,-0.070313 0.148437,-0.144531 0.234375,-0.21875 0.382812,-0.375 0.773438,-0.71875 1.171875,-1.03125 0.101563,-0.082031 0.203125,-0.164063 0.296875,-0.25 0.101562,-0.082031 0.207031,-0.171875 0.3125,-0.265625 0.07031,-0.0625 0.144531,-0.128906 0.21875,-0.203125 0.07031,-0.070313 0.140625,-0.148437 0.203125,-0.234375 0.05078,-0.113281 0.128906,-0.210938 0.234375,-0.296875 0.03125,-0.03125 0.07031,-0.085937 0.125,-0.171875 l 0.125,-0.21875 z m -5.25,0.453125 c 0.019531,-0.019531 0.046875,-0.023437 0.078125,-0.015625 0.03125,0 0.054687,0.015625 0.078125,0.046875 0.113281,0.074219 0.226562,0.15625 0.34375,0.25 0.113281,0.085937 0.222656,0.179687 0.328125,0.28125 0.082031,0.0625 0.148437,0.136719 0.203125,0.21875 0.0625,0.085937 0.125,0.171875 0.1875,0.265625 0.0625,0.09375 0.09375,0.214844 0.09375,0.359375 0,0.179687 -0.03125,0.375 -0.09375,0.59375 -0.011719,0.03125 -0.027344,0.070313 -0.046875,0.109375 -0.011719,0.03125 -0.023437,0.070312 -0.03125,0.109375 -0.011719,0.042969 -0.03125,0.105469 -0.0625,0.1875 -0.023437,0.105469 0,0.21875 0.0625,0.34375 0.019531,0.0625 0.066406,0.132813 0.140625,0.203125 0.00781,0.023438 0.015625,0.039062 0.015625,0.046875 v 0.015625 c -0.011719,0.011719 -0.027344,0.015625 -0.046875,0.015625 -0.335938,0.03125 -0.664062,-0.019531 -0.984375,-0.15625 -0.324219,-0.132813 -0.59375,-0.320313 -0.8125,-0.5625 -0.125,-0.132813 -0.1875,-0.304687 -0.1875,-0.515625 0,-0.132812 0.00391,-0.234375 0.015625,-0.296875 0.070312,-0.28125 0.191406,-0.53125 0.359375,-0.75 0.00781,0 0.023437,-0.00391 0.046875,-0.015625 0,0.011719 0,0.015625 0,0.015625 0.00781,0 0.015625,0.00781 0.015625,0.015625 v 0.078125 C 8.242188,-6.378906 8.25,-6.320312 8.25,-6.28125 c 0,0.042969 0.00391,0.09375 0.015625,0.15625 0.00781,0.148438 0.066406,0.261719 0.171875,0.34375 0.039062,0.042969 0.0625,0.042969 0.0625,0 C 8.50781,-5.78906 8.515625,-5.800781 8.515625,-5.8125 8.578125,-5.957031 8.625,-6.101562 8.65625,-6.25 c 0.039062,-0.144531 0.0625,-0.296875 0.0625,-0.453125 0,-0.207031 -0.054688,-0.390625 -0.15625,-0.546875 0,-0.03125 -0.011719,-0.046875 -0.03125,-0.046875 z M 7.890625,-4.21875 c -0.148437,0 -0.289063,-0.00391 -0.421875,-0.015625 -0.136719,-0.019531 -0.273438,-0.039063 -0.40625,-0.0625 -0.148438,-0.03125 -0.28125,-0.070313 -0.40625,-0.125 -0.125,-0.0625 -0.25,-0.125 -0.375,-0.1875 C 6.25,-4.628906 6.21875,-4.640625 6.1875,-4.640625 6.164062,-4.648438 6.144531,-4.671875 6.125,-4.703125 6.09375,-4.722656 6.0625,-4.742188 6.03125,-4.765625 c -0.023438,-0.03125 -0.042969,-0.0625 -0.0625,-0.09375 -0.199219,-0.238281 -0.203125,-0.570313 -0.015625,-1 0.050781,-0.09375 0.109375,-0.175781 0.171875,-0.25 0.0625,-0.082031 0.160156,-0.175781 0.296875,-0.28125 0.101563,-0.0625 0.207031,-0.117187 0.3125,-0.171875 0.101563,-0.050781 0.207031,-0.097656 0.3125,-0.140625 0.070313,-0.019531 0.144531,-0.039063 0.21875,-0.0625 0.082031,-0.019531 0.15625,-0.039063 0.21875,-0.0625 0.039063,-0.00781 0.082031,-0.015625 0.125,-0.015625 0.039063,0 0.082031,0 0.125,0 H 7.75 c 0,0.023438 -0.00781,0.03125 -0.015625,0.03125 -0.011719,0.03125 -0.039063,0.0625 -0.078125,0.09375 -0.0625,0.0625 -0.132812,0.167969 -0.203125,0.3125 -0.074219,0.136719 -0.136719,0.234375 -0.1875,0.296875 C 7.242188,-6.066406 7.21875,-5.988281 7.1875,-5.875 7.164062,-5.757812 7.15625,-5.644531 7.15625,-5.53125 7.175781,-5.269531 7.25,-5.082031 7.375,-4.96875 7.5,-4.851562 7.59375,-4.773438 7.65625,-4.734375 l 0.28125,0.171875 0.125,0.046875 c 0.03125,0.03125 0.046875,0.058594 0.046875,0.078125 0.019531,0.042969 0.039063,0.0625 0.0625,0.0625 0.039063,0.011719 0.078125,0.015625 0.109375,0.015625 0.03125,0 0.066406,0.00781 0.109375,0.015625 0.019531,0.023438 0.03125,0.03125 0.03125,0.03125 0.00781,0 0.03125,0.00781 0.0625,0.015625 V -4.28125 C 8.421875,-4.25 8.320312,-4.234375 8.1875,-4.234375 8.125,-4.222656 8.023438,-4.21875 7.890625,-4.21875 Z M 9.65625,-6.734375 C 9.664062,-6.742188 9.671875,-6.75 9.671875,-6.75 c 0,-0.00781 0.00391,-0.023438 0.015625,-0.046875 C 9.769531,-6.847656 9.847656,-6.875 9.921875,-6.875 c 0.050781,-0.019531 0.101563,-0.03125 0.15625,-0.03125 0.05078,0 0.101563,0 0.15625,0 0.03906,0 0.08203,0 0.125,0 0.05078,-0.00781 0.101563,-0.015625 0.15625,-0.015625 0.03906,0 0.04687,-0.023437 0.01563,-0.078125 0,0 -0.0078,-0.015625 -0.01563,-0.046875 v -0.03125 c 0,-0.03125 0.0039,-0.046875 0.01563,-0.046875 h 0.01563 c 0.3125,-0.03125 0.609375,0.015625 0.890625,0.140625 L 11.609375,-6.875 c 0.05078,0.042969 0.09766,0.089844 0.140625,0.140625 0.0625,0.09375 0.08203,0.242187 0.0625,0.4375 -0.01172,0.199219 -0.04687,0.34375 -0.109375,0.4375 -0.05469,0.085937 -0.101563,0.136719 -0.140625,0.15625 -0.0625,0.0625 -0.132812,0.121094 -0.203125,0.171875 -0.0625,0.054688 -0.125,0.105469 -0.1875,0.15625 -0.105469,0.085938 -0.210937,0.164062 -0.3125,0.234375 -0.09375,0.0625 -0.1875,0.125 -0.28125,0.1875 -0.09375,0.054687 -0.183594,0.089844 -0.265625,0.109375 -0.07422,0.023438 -0.152344,0.042969 -0.234375,0.0625 h -0.03125 c -0.01172,-0.00781 -0.03906,-0.00781 -0.078125,0 -0.03125,0 -0.046875,-0.00391 -0.046875,-0.015625 0.019531,-0.019531 0.03125,-0.03125 0.03125,-0.03125 L 10.03125,-4.90625 c 0.0625,-0.082031 0.144531,-0.171875 0.25,-0.265625 0.101562,-0.101563 0.1875,-0.191406 0.25,-0.265625 0.03125,-0.019531 0.0625,-0.078125 0.09375,-0.171875 0.03125,-0.09375 0.05078,-0.160156 0.0625,-0.203125 0.03906,-0.113281 0.03516,-0.234375 -0.01563,-0.359375 -0.0625,-0.113281 -0.140625,-0.195313 -0.234375,-0.25 C 10.300781,-6.535156 10.148438,-6.613281 9.984375,-6.65625 9.929688,-6.664062 9.878906,-6.675781 9.828125,-6.6875 9.773438,-6.707031 9.71875,-6.722656 9.65625,-6.734375 Z m 0,0"
           id="path12771" />
      </g>
    </g>
  </g>
</svg>
