<?xml version="1.0" encoding="UTF-8" standalone="no"?>
<!-- Created with Inkscape (http://www.inkscape.org/) -->

<svg
   width="3.556mm"
   height="3.556mm"
   viewBox="0 0 3.556 3.556"
   version="1.1"
   id="svg2309"
   inkscape:version="1.1.2 (0a00cf5339, 2022-02-04)"
   sodipodi:docname="rset.svg"
   xmlns:inkscape="http://www.inkscape.org/namespaces/inkscape"
   xmlns:sodipodi="http://sodipodi.sourceforge.net/DTD/sodipodi-0.dtd"
   xmlns="http://www.w3.org/2000/svg"
   xmlns:svg="http://www.w3.org/2000/svg">
  <sodipodi:namedview
     id="namedview2311"
     pagecolor="#ffffff"
     bordercolor="#666666"
     borderopacity="1.0"
     inkscape:pageshadow="2"
     inkscape:pageopacity="0.0"
     inkscape:pagecheckerboard="0"
     inkscape:document-units="mm"
     showgrid="false"
     inkscape:zoom="12.93475"
     inkscape:cx="2.8605114"
     inkscape:cy="26.324436"
     inkscape:window-width="2560"
     inkscape:window-height="1376"
     inkscape:window-x="0"
     inkscape:window-y="0"
     inkscape:window-maximized="1"
     inkscape:current-layer="layer1" />
  <defs
     id="defs2306">
    <clipPath
       clipPathUnits="userSpaceOnUse"
       id="clipPath488">
      <path
         d="m 312,664.56 h 10.08 v 10.08 H 312 Z"
         id="path486" />
    </clipPath>
  </defs>
  <g
     inkscape:label="Layer 1"
     inkscape:groupmode="layer"
     id="layer1"
     transform="translate(67.043646,-1.9396652)">
    <path
       id="path492"
       style="fill:#21201d;fill-opacity:1;fill-rule:nonzero;stroke:none;stroke-width:1.33333"
       d="M 6.7207031 0 C 3.0087044 -5.9211895e-16 0 3.0087033 0 6.7207031 C 0 10.432703 3.0087044 13.439453 6.7207031 13.439453 C 10.432702 13.439453 13.439453 10.432703 13.439453 6.7207031 C 13.439453 3.0087033 10.432702 0 6.7207031 0 z M 5.5527344 1.4941406 C 5.5685706 1.5181406 5.5875149 1.5397229 5.5996094 1.5664062 C 5.7689398 1.921073 5.9354511 2.2756094 6.1621094 2.5996094 C 6.3501069 2.8662762 6.5701845 3.1007801 6.8261719 3.3007812 C 6.848849 3.3181142 6.8688327 3.3365355 6.90625 3.3671875 C 6.8475917 3.3738773 6.8086583 3.3781137 6.75 3.3847656 C 6.7833354 3.4140985 6.8054478 3.435777 6.828125 3.453125 C 7.5067921 3.9651251 8.1485169 4.5199115 8.7285156 5.1425781 C 8.7538763 5.1705769 8.781569 5.1984562 8.8027344 5.2304688 C 8.8280572 5.269137 8.8785894 5.3383209 8.8691406 5.3476562 C 8.8158115 5.4023196 8.7529102 5.4544156 8.6835938 5.4824219 C 8.6542646 5.4944219 8.596628 5.4459749 8.5566406 5.4179688 C 8.2086406 5.1739685 7.8609604 4.9315949 7.515625 4.6835938 C 7.2502908 4.4942606 6.9911928 4.2968498 6.7285156 4.1035156 C 6.7232243 4.1075219 6.718182 4.1138115 6.7128906 4.1191406 C 6.7422198 4.1711394 6.7693478 4.2233919 6.7988281 4.2753906 C 6.5361585 4.1620558 6.297501 4.0147921 6.0761719 3.828125 C 6.0974884 3.9187921 6.1192085 4.0106143 6.1445312 4.1132812 C 6.1193219 4.1039837 6.098032 4.1024551 6.0859375 4.0917969 C 5.9565907 3.985131 5.826501 3.8801996 5.7011719 3.7695312 C 5.603849 3.6855162 5.5589884 3.6847801 5.5136719 3.8007812 C 5.4416719 3.9834481 5.3783783 4.1688017 5.3183594 4.3554688 C 5.2983279 4.4168028 5.2837301 4.4516343 5.2050781 4.4316406 C 5.0917679 4.4036457 4.9753687 4.3909874 4.859375 4.375 C 4.796786 4.3656646 4.7620378 4.3461527 4.7832031 4.2714844 C 4.8418614 4.0594842 4.8965199 3.8461479 4.9511719 3.6328125 C 5.0445262 3.2768128 5.1351991 2.9185013 5.2285156 2.5625 C 5.2898574 2.3304997 5.3552041 2.0998052 5.421875 1.8691406 C 5.4298876 1.8411381 5.4604373 1.8182915 5.4804688 1.7929688 L 5.5039062 1.8066406 C 5.5091976 1.7039735 5.516193 1.6026671 5.5214844 1.5 C 5.532445 1.4986772 5.5421517 1.495474 5.5527344 1.4941406 z M 1.8144531 3.5097656 C 1.8237012 3.509829 1.834374 3.5122896 1.8457031 3.515625 C 1.8816842 3.527625 1.9177853 3.5437292 1.9472656 3.5664062 C 2.2566011 3.801073 2.6072271 3.9422548 2.9765625 4.0449219 C 3.5112296 4.1942571 4.0420313 4.3551358 4.5820312 4.4804688 C 4.9113642 4.5564674 5.2564272 4.5711406 5.59375 4.6191406 C 6.1804196 4.7031406 6.7712788 4.7458614 7.3632812 4.7832031 C 7.4352813 4.7872019 7.5136074 4.8302873 7.5722656 4.8769531 C 7.6456263 4.9369531 7.702598 5.018089 7.78125 5.1074219 C 7.7292815 5.1167573 7.6917142 5.1302397 7.6542969 5.1289062 C 7.0502981 5.1195671 6.4457956 5.1264551 5.8417969 5.0917969 C 5.147131 5.0517981 4.4564448 4.9553342 3.7871094 4.75 C 3.7351409 4.7340126 3.6822354 4.7274551 3.6289062 4.7167969 C 3.6262607 4.7248095 3.623762 4.7322218 3.6210938 4.7402344 L 4.3066406 4.9941406 C 4.303995 5.0061217 4.3014965 5.0186386 4.2988281 5.0292969 C 4.0654952 5.0092956 3.8310043 4.9887437 3.5976562 4.96875 C 3.5950107 4.9754398 3.592512 4.980999 3.5898438 4.9863281 C 3.6311917 5.0169952 3.6737636 5.0491298 3.7324219 5.0917969 C 3.5324093 5.1517969 3.3788374 5.0500208 3.2148438 5.0273438 C 3.2080406 5.0339956 3.2021156 5.040223 3.1953125 5.046875 C 3.240629 5.0855396 3.2860844 5.121488 3.3300781 5.1601562 C 3.5620769 5.3628228 3.7914501 5.5675769 4.0234375 5.7675781 C 4.0674312 5.8062427 4.123875 5.8312688 4.171875 5.8632812 C 4.3399506 5.9739458 4.3748022 6.0444567 4.328125 6.203125 C 4.3002699 6.2964567 4.2876096 6.3947608 4.2675781 6.4960938 C 4.2384002 6.4867583 4.2234733 6.4851676 4.2128906 6.4785156 C 3.5208894 6.0038489 2.8807644 5.4737758 2.3847656 4.7871094 C 2.1300859 4.4351095 1.9347533 4.0533386 1.8027344 3.6386719 C 1.7959312 3.6160023 1.7900063 3.5929897 1.7832031 3.5703125 C 1.7712126 3.5253068 1.786709 3.5095755 1.8144531 3.5097656 z M 12.005859 3.9042969 C 12.008505 3.9109488 12.012957 3.9171762 12.015625 3.9238281 C 12.002472 3.941161 11.992437 3.9599448 11.976562 3.9746094 C 11.419231 4.489276 10.876387 5.0187966 10.261719 5.4667969 C 9.7763856 5.8214632 9.2822117 6.1654831 8.796875 6.5214844 C 8.3582117 6.8428175 7.9237777 7.1693545 7.5371094 7.5546875 C 7.4944385 7.598685 7.4356114 7.635626 7.3769531 7.6542969 C 7.3102823 7.6756285 7.2277553 7.6598906 7.2050781 7.5878906 C 7.1905269 7.5398906 7.2069745 7.4605433 7.2402344 7.421875 C 7.6775673 6.8885417 8.1723643 6.4131825 8.7070312 5.9785156 C 8.8656769 5.8491828 9.0218155 5.7167921 9.1738281 5.578125 C 9.2378533 5.5194592 9.2857843 5.4410481 9.3417969 5.3730469 C 9.3751323 5.3330481 9.4127452 5.2965733 9.4433594 5.2539062 C 9.5020176 5.1725709 9.5578989 5.0885252 9.6152344 5.0058594 C 9.6072974 4.9925176 9.5977807 4.9807311 9.5898438 4.96875 C 9.4338626 4.9780854 9.2751217 4.9814292 9.1191406 4.9960938 C 8.9658052 5.010762 8.8521895 4.9559735 8.7695312 4.8066406 C 8.9041883 4.7879811 9.034995 4.7719468 9.1816406 4.7519531 C 9.1429761 4.721286 9.1147253 4.6990509 9.0878906 4.6777344 L 9.0878906 4.6503906 C 9.3145565 4.6157248 9.5402896 4.5803104 9.765625 4.5429688 C 9.9909604 4.5069688 10.215278 4.46578 10.447266 4.4257812 C 10.441974 4.4004472 10.437624 4.3791386 10.429688 4.3417969 C 10.955022 4.1964623 11.47919 4.0509652 12.005859 3.9042969 z M 4.6542969 5.1738281 C 4.6679652 5.1724961 4.685075 5.1753505 4.7050781 5.1796875 C 4.7997553 5.2010418 4.8968178 5.2101449 4.9941406 5.2167969 C 5.0620209 5.2221298 5.0861865 5.2457405 5.0703125 5.3164062 C 4.9181865 5.9817395 4.9071782 6.6554113 4.9511719 7.3300781 C 4.980501 7.754078 5.0303251 8.1788957 5.0703125 8.6015625 C 5.0729771 8.6242283 5.0703125 8.6488317 5.0703125 8.6875 C 5.0343314 8.6688405 5.0083072 8.6561822 4.9589844 8.6308594 C 4.990997 8.7401935 5.0175215 8.8319796 5.0507812 8.9453125 C 5.0934521 8.8959783 5.123556 8.8627833 5.1503906 8.828125 C 5.3877261 8.5254585 5.6233813 8.2206332 5.859375 7.9179688 C 5.8631545 7.9126396 5.8664761 7.9076728 5.8691406 7.9023438 C 5.981128 7.7730083 5.9841459 7.7785301 6.1054688 7.8945312 C 6.1921332 7.9771971 6.2887656 8.0458065 6.3847656 8.1191406 C 6.4687845 8.1831394 6.5563437 8.2425456 6.6523438 8.3105469 C 6.5963312 8.3878836 6.5461469 8.4599652 6.4941406 8.5292969 C 6.2848077 8.8092967 6.0685229 9.0818558 5.8671875 9.3671875 C 5.5218445 9.856521 5.2964093 10.396714 5.2324219 10.998047 C 5.2176439 11.136712 5.2111209 11.275733 5.1816406 11.427734 C 5.0909698 11.299732 5.0008271 11.172923 4.9101562 11.044922 C 4.9033532 11.047605 4.895475 11.050068 4.8886719 11.052734 C 4.948653 11.346068 5.0102936 11.637689 5.0703125 11.929688 C 5.0623755 11.935053 5.0528589 11.940614 5.0449219 11.947266 C 4.9982447 11.897931 4.9436673 11.852876 4.90625 11.796875 C 4.8116106 11.652873 4.7120948 11.5088 4.6347656 11.355469 C 4.3374226 10.772802 4.1495948 10.155193 4.0722656 9.5058594 C 4.0616829 9.419191 4.0685517 9.3290408 4.0859375 9.234375 C 4.1405895 9.3997097 4.1939252 9.565286 4.2539062 9.7519531 C 4.2629771 9.7172911 4.2728185 9.7027949 4.2714844 9.6894531 C 4.2047757 9.2294533 4.184622 8.7654011 4.2246094 8.3027344 C 4.2779385 7.6920674 4.3381564 7.0826091 4.4101562 6.4746094 C 4.4581185 6.0692758 4.5311855 5.6676716 4.5898438 5.2636719 C 4.5978374 5.2086656 4.613292 5.1778241 4.6542969 5.1738281 z M 6.5566406 5.2246094 C 6.6033178 5.2379511 6.635526 5.239872 6.6582031 5.2558594 C 6.8755373 5.4065261 7.083723 5.5676371 7.234375 5.7929688 C 7.3090963 5.9049712 7.3417291 6.0223894 7.3164062 6.1503906 C 7.2910457 6.2890577 7.2608906 6.4279279 7.2128906 6.5585938 C 7.162245 6.7012595 7.1992843 6.8144015 7.2792969 6.9277344 C 7.2925252 6.9463977 7.3023586 6.9676573 7.3144531 6.9863281 C 7.3118075 6.9956636 7.3093052 7.0043364 7.3066406 7.0136719 C 7.1893241 7.0043364 7.069749 7.0037384 6.9550781 6.9824219 C 6.708411 6.9384206 6.4979102 6.8208702 6.3085938 6.6582031 C 6.1445812 6.5155365 6.0905718 6.3314796 6.1425781 6.1328125 C 6.1799199 5.9861468 6.2641376 5.850316 6.328125 5.7089844 C 6.3334163 5.6970033 6.3487923 5.6877001 6.359375 5.6796875 C 6.3635325 5.6770207 6.3695842 5.6796875 6.3828125 5.6796875 C 6.4174708 5.8370221 6.3751689 6.0139579 6.5351562 6.140625 C 6.6631688 5.840625 6.7299698 5.5486094 6.5566406 5.2246094 z M 7.8769531 5.3398438 C 8.0385148 5.3422804 8.1920282 5.3775625 8.3320312 5.4765625 C 8.4186958 5.5392271 8.4684989 5.6185625 8.4726562 5.7265625 C 8.4806688 5.9305629 8.4312417 6.109661 8.2539062 6.2363281 C 8.0965722 6.3483269 7.9438208 6.4674567 7.7851562 6.578125 C 7.6651526 6.6621212 7.529028 6.7016343 7.3730469 6.6816406 C 7.4770595 6.5749748 7.5876938 6.4753763 7.6796875 6.359375 C 7.8623521 6.1287082 7.8982354 5.8752765 7.6289062 5.7246094 C 7.5289001 5.6686081 7.4146595 5.6331298 7.3066406 5.5917969 C 7.2772737 5.579778 7.2472186 5.576472 7.1992188 5.5644531 C 7.3632086 5.4284582 7.5486968 5.487887 7.7207031 5.4492188 C 7.7180575 5.4158871 7.715559 5.3836751 7.7128906 5.3476562 C 7.7685574 5.3423225 7.8230992 5.3390315 7.8769531 5.3398438 z M 6.0039062 5.5019531 C 6.0357783 5.5000778 6.0696188 5.5039062 6.0996094 5.5039062 C 6.0195968 5.6372382 5.9438863 5.765911 5.8652344 5.8925781 C 5.6892596 6.1739114 5.7456656 6.4940734 6.0136719 6.6914062 C 6.0816656 6.7420746 6.1578385 6.779506 6.2285156 6.8261719 C 6.2644967 6.8488377 6.2914002 6.8842031 6.3261719 6.9082031 C 6.3515325 6.9255512 6.3826291 6.9359771 6.4121094 6.9453125 C 6.4494511 6.9573314 6.4886792 6.9652739 6.5273438 6.9746094 C 6.5273438 6.9839448 6.5267248 6.9926177 6.5253906 7.0019531 C 6.4480237 7.0099657 6.3702978 7.0207707 6.2929688 7.0234375 C 5.9116371 7.0394362 5.5442918 6.9879183 5.2109375 6.78125 C 5.0576021 6.686583 4.967116 6.524369 4.9882812 6.3457031 C 5.0176104 6.0883706 5.1432751 5.8906202 5.3632812 5.7519531 C 5.5526129 5.6319531 5.7606626 5.5645252 5.9726562 5.5058594 C 5.9826531 5.5031922 5.9932823 5.5025782 6.0039062 5.5019531 z M 9.5605469 6.25 C 9.5807366 6.2469546 9.6191912 6.2637555 9.6367188 6.28125 C 10.016716 6.6612497 10.337168 7.0880573 10.646484 7.5253906 C 11.166487 8.2573906 11.568623 9.0591304 12.001953 9.8417969 C 12.015181 9.8631285 12.02262 9.8881094 12.033203 9.9121094 C 12.029046 9.9214448 12.023689 9.9307481 12.019531 9.9414062 C 11.931544 9.9254076 11.841201 9.917901 11.755859 9.8925781 C 11.059859 9.6832448 10.353207 9.502619 9.671875 9.2519531 C 8.5518725 8.8399529 7.4317114 8.4258542 6.3730469 7.8671875 C 5.9770469 7.6578542 5.58731 7.4309362 5.1953125 7.2109375 C 5.1152243 7.1656021 5.0827916 7.0985721 5.1054688 7.0039062 C 5.1188104 6.9452556 5.1385073 6.9264415 5.2011719 6.953125 C 5.7051719 7.1624583 6.2047994 7.3869327 6.7167969 7.5722656 C 7.107464 7.7122669 7.5146827 7.8026827 7.9160156 7.9160156 C 7.9228188 7.9173385 7.9320842 7.9134428 7.9453125 7.9121094 C 7.9306479 7.8854448 7.9159478 7.8623606 7.890625 7.8183594 C 8.1292908 7.8810239 8.3474604 7.9386658 8.578125 8 C 8.5754982 7.9653531 8.5755528 7.9456749 8.5742188 7.9296875 C 8.5806438 7.9243584 8.5826502 7.9199219 8.5839844 7.9199219 C 9.0053185 7.9465902 9.4089327 8.0620747 9.8222656 8.1914062 C 9.8116829 8.1554139 9.8087183 8.1358584 9.8007812 8.1171875 C 9.6194358 7.6731875 9.4359405 7.2291562 9.2519531 6.7851562 C 9.2252697 6.722488 9.1874322 6.666184 9.1621094 6.6035156 C 9.1526606 6.5795156 9.156001 6.5309199 9.171875 6.5175781 C 9.2958889 6.4242427 9.4233989 6.3359531 9.5527344 6.2519531 C 9.5547375 6.2506194 9.5576626 6.2504351 9.5605469 6.25 z "
       transform="matrix(0.26458333,0,0,0.26458333,-67.043646,1.9396652)" />
  </g>
</svg>
