<?xml version="1.0" encoding="UTF-8" standalone="no"?>
<!-- Created with Inkscape (http://www.inkscape.org/) -->

<svg
   width="8.6176701mm"
   height="8.6724148mm"
   viewBox="0 0 8.6176701 8.6724148"
   version="1.1"
   id="svg4352"
   inkscape:version="1.1.2 (0a00cf5339, 2022-02-04)"
   sodipodi:docname="rte1.svg"
   xmlns:inkscape="http://www.inkscape.org/namespaces/inkscape"
   xmlns:sodipodi="http://sodipodi.sourceforge.net/DTD/sodipodi-0.dtd"
   xmlns="http://www.w3.org/2000/svg"
   xmlns:svg="http://www.w3.org/2000/svg">
  <sodipodi:namedview
     id="namedview4354"
     pagecolor="#ffffff"
     bordercolor="#666666"
     borderopacity="1.0"
     inkscape:pageshadow="2"
     inkscape:pageopacity="0.0"
     inkscape:pagecheckerboard="0"
     inkscape:document-units="mm"
     showgrid="false"
     inkscape:zoom="0.66368547"
     inkscape:cx="-1402.7729"
     inkscape:cy="362.37045"
     inkscape:window-width="2560"
     inkscape:window-height="1376"
     inkscape:window-x="0"
     inkscape:window-y="0"
     inkscape:window-maximized="1"
     inkscape:current-layer="layer1" />
  <defs
     id="defs4349" />
  <g
     inkscape:label="Layer 1"
     inkscape:groupmode="layer"
     id="layer1"
     transform="translate(-476.07264,-52.671786)">
    <path
       d="m 480.68393,52.746781 c 0.018,0 0.0258,-0.0021 0.0265,-0.0035 -0.0162,7.06e-4 -0.0303,0.0021 -0.0265,0.0035"
       style="fill:#21201d;fill-opacity:1;fill-rule:nonzero;stroke:none;stroke-width:0.184057"
       id="path714" />
    <path
       d="m 480.31065,52.71236 c -0.008,-0.0021 -0.0173,-0.0042 -0.0229,-0.0037 0.008,0.0014 0.0155,0.0028 0.0229,0.0037"
       style="fill:#21201d;fill-opacity:1;fill-rule:nonzero;stroke:none;stroke-width:0.184057"
       id="path716" />
    <path
       d="m 482.80479,53.48301 c -0.006,0.0052 0.0293,0.01379 0.0583,0.02374 z"
       style="fill:#21201d;fill-opacity:1;fill-rule:nonzero;stroke:none;stroke-width:0.184057"
       id="path718" />
    <path
       d="m 483.59717,54.251636 0.0109,0.01584 c 0.005,0.0028 0.01,0.0057 0.0155,0.0079 z"
       style="fill:#21201d;fill-opacity:1;fill-rule:nonzero;stroke:none;stroke-width:0.184057"
       id="path720" />
    <path
       d="m 484.01845,54.889398 c 0.0117,0.0042 0.0222,0.01288 0.0325,0.02522 0.004,-0.0021 0.004,-0.0057 0.005,-0.01362 -0.01,-0.0151 -0.0279,-0.01012 -0.0374,-0.01161"
       style="fill:#21201d;fill-opacity:1;fill-rule:nonzero;stroke:none;stroke-width:0.184057"
       id="path722" />
    <path
       d="m 484.50878,56.06056 0.0116,0.01877 c -0.004,-0.005 -0.008,-0.01288 -0.0116,-0.01877"
       style="fill:#21201d;fill-opacity:1;fill-rule:nonzero;stroke:none;stroke-width:0.184057"
       id="path724" />
    <path
       d="m 484.55058,57.001094 0.004,0.01143 c 0.004,7.05e-4 0.007,0.0014 0.0102,7.05e-4 z"
       style="fill:#21201d;fill-opacity:1;fill-rule:nonzero;stroke:none;stroke-width:0.184057"
       id="path726" />
    <path
       d="m 479.55804,52.868443 c 0,0 0.004,-7.05e-4 0.004,-7.05e-4 0.0166,-0.01161 0.006,-0.0059 -0.004,7.05e-4"
       style="fill:#21201d;fill-opacity:1;fill-rule:nonzero;stroke:none;stroke-width:0.184057"
       id="path728" />
    <path
       d="m 476.32843,57.887519 c -0.004,-0.005 -0.006,-0.0114 -0.01,-0.01288 -0.004,-0.0021 -0.0127,-0.01288 -0.0173,-0.01288 -0.004,-7.06e-4 -0.004,7.05e-4 -0.004,0.0042 0,0.0035 0,0.01214 0,0.01362 0,0.0021 0,0 0,0.0094 0,-0.0057 0,-0.0072 0,-0.0079 0,-7.06e-4 0,-0.0014 0.004,-0.0021 0,-7.05e-4 0.004,-0.0014 0.004,-7.05e-4 0.004,-0.005 0.0127,0.02889 0.0194,0.04178 0.007,0.0151 0.0117,0.01729 0.0117,-0.02797 0,0.0028 -0.004,0 -0.006,-0.0044"
       style="fill:#21201d;fill-opacity:1;fill-rule:nonzero;stroke:none;stroke-width:0.184057"
       id="path730" />
    <path
       d="m 477.99432,53.40681 c 0.004,0.0014 0.0113,7.06e-4 0.0187,0 0,-0.0014 -0.006,-0.0014 -0.0187,0"
       style="fill:#21201d;fill-opacity:1;fill-rule:nonzero;stroke:none;stroke-width:0.184057"
       id="path732" />
    <path
       d="m 479.17118,52.924394 -0.0317,-0.0014 c 0.0123,0.0014 0.0222,0.0014 0.0317,0.0014"
       style="fill:#21201d;fill-opacity:1;fill-rule:nonzero;stroke:none;stroke-width:0.184057"
       id="path734" />
    <path
       d="m 477.4679,53.908002 c 0.004,-7.06e-4 0.005,-0.0021 0.006,-0.005 0.004,-0.0079 0.008,-0.01803 0.0212,-0.03238 -0.0109,0.01362 -0.0159,0.01729 -0.0268,0.03737"
       style="fill:#21201d;fill-opacity:1;fill-rule:nonzero;stroke:none;stroke-width:0.184057"
       id="path736" />
    <path
       d="m 477.06813,54.377531 c 0.004,-0.0021 0.008,-0.0044 0.0116,-0.0057 0.005,-0.0044 0.0106,-0.01012 0.0159,-0.0151 z"
       style="fill:#21201d;fill-opacity:1;fill-rule:nonzero;stroke:none;stroke-width:0.184057"
       id="path738" />
    <path
       d="m 484.46719,56.013256 c 0.005,0.0085 0.01,0.01637 0.0152,0.02649 0,0.0037 0,0.0057 0,0.0086 z m -1.68392,1.614738 c 0,0.06902 -0.004,0.143016 -0.0159,0.210563 -0.0106,0.05393 -0.0166,0.102891 -0.0335,0.155345 -0.007,0.023 -0.008,0.04675 -0.0145,0.0705 -0.008,0.03313 -0.0293,0.06184 -0.0386,0.09571 -0.0138,0.04013 -0.0166,0.08191 -0.0282,0.122951 -0.0106,0.03884 -0.0293,0.08485 -0.0475,0.121479 -0.0138,0.02797 -0.031,0.04528 -0.0539,0.06534 -0.0632,0.0554 -0.0985,0.135834 -0.16235,0.191971 -0.0712,0.06185 -0.10142,0.156083 -0.17265,0.217188 -0.0633,0.0554 -0.13158,0.104179 -0.19766,0.155345 -0.0339,0.02505 -0.0668,0.05025 -0.0992,0.07749 -0.0346,0.02889 -0.0648,0.06405 -0.10068,0.08927 -0.0863,0.06111 -0.1905,0.1143 -0.24666,0.207801 -0.0222,0.0381 -0.0517,0.07105 -0.0769,0.10565 -0.0359,0.04749 -0.0683,0.097 -0.10417,0.143012 -0.0254,0.03239 -0.0547,0.06111 -0.0792,0.0935 -0.0268,0.03387 -0.0431,0.07197 -0.0653,0.107859 -0.0145,0.023 -0.0339,0.03589 -0.0539,0.0532 -0.0282,0.02596 -0.0512,0.05963 -0.0697,0.09276 -0.0425,0.07399 -0.0878,0.137308 -0.164,0.180379 -0.0366,0.02099 -0.0732,0.03883 -0.10637,0.06552 -0.0318,0.02596 -0.0676,0.06037 -0.10862,0.07197 -0.0159,0.005 -0.0324,0.0035 -0.0482,0.0035 -0.0388,0 -0.0755,0.01362 -0.11356,0.02025 -0.0431,0.0085 -0.087,0.01288 -0.1301,0.02431 -0.10492,0.02741 -0.20211,0.05393 -0.30777,0.01584 -0.0438,-0.0151 -0.0848,-0.01658 -0.13084,-0.0086 -0.0574,0.01012 -0.11282,0.0066 -0.17099,0.0044 -0.0641,-0.0021 -0.14246,-0.01012 -0.20285,-0.0302 -0.0381,-0.01305 -0.072,-0.03608 -0.10562,-0.0554 -0.0131,-0.0072 -0.0446,-0.02081 -0.0505,-0.03514 0.0828,-0.01951 0.16969,-0.0309 0.25601,-0.04178 0.1294,-0.0151 0.25806,-0.04104 0.38894,-0.04233 0.0906,-7.05e-4 0.16968,-0.05043 0.25178,-0.08485 0.0718,-0.02963 0.13014,-0.08209 0.19914,-0.117979 0.0834,-0.04307 0.15515,-0.07547 0.22638,-0.138046 0.0317,-0.02798 0.0604,-0.06037 0.0928,-0.08835 0.018,-0.01379 0.0359,-0.02889 0.0532,-0.04472 0.0113,-0.01288 0.0145,-0.01436 0.007,-0.0065 0.092,-0.097 0.17985,-0.201358 0.27609,-0.294121 0.0279,-0.02649 0.0626,-0.0416 0.0906,-0.06755 0.0317,-0.02872 0.049,-0.0705 0.0747,-0.103442 0.0447,-0.0554 0.09,-0.108595 0.13162,-0.165467 0.0374,-0.05025 0.0762,-0.100495 0.12369,-0.141541 0.0727,-0.06479 0.13084,-0.140988 0.18845,-0.21995 0.0639,-0.08853 0.13363,-0.170437 0.20782,-0.251791 0.0545,-0.0589 0.11998,-0.112826 0.16821,-0.17688 0.031,-0.04233 0.0639,-0.0797 0.10124,-0.117796 0.0539,-0.05614 0.10584,-0.113562 0.15463,-0.17412 0.0324,-0.03865 0.0712,-0.07896 0.0863,-0.128655 0.0145,-0.04602 0.0166,-0.09405 0.0317,-0.14007 0.0201,-0.05908 0.0374,-0.120925 0.0618,-0.177613 0,-0.0014 0.004,-0.0037 0.004,-0.0052 0.0102,-0.02226 0.0254,-0.04233 0.0332,-0.06608 0.008,-0.023 0.0102,-0.04896 0.0159,-0.0727 0.0215,-0.08264 0.0482,-0.16455 0.0661,-0.248663 -0.004,0.07049 0,0.140805 0,0.212034 0,0.01658 0,0.03387 0,0.05043 0,0.01933 0.006,0.03164 0.008,0.0473 0.009,0.0554 0.004,0.116508 0.004,0.172645 m -3.34395,1.596888 c -0.0653,-0.0028 -0.13434,-0.02152 -0.19692,-0.03663 -0.0453,-0.01087 -0.12224,0.0072 -0.10788,-0.06626 0.005,-0.0302 0.0303,-0.06534 0.0482,-0.08908 0.0286,-0.03884 0.0861,-0.06405 0.13088,-0.07546 0.0187,-0.0052 0.0374,-0.0094 0.0539,-0.01951 0.0222,-0.01362 0.0314,-0.02575 0.0566,-0.03164 0.0332,-0.0072 0.0604,-0.02078 0.095,-0.02078 0.0453,7.05e-4 0.0898,0.0037 0.13434,0.01288 0.0453,0.0094 0.0928,0.01951 0.13953,0.0072 0.0502,-0.01288 0.11006,-0.0014 0.15885,0.01305 0.0361,0.01069 0.0742,0.01214 0.10933,0.02374 0.0229,0.0065 0.0431,0.02374 0.0675,0.02226 0.0475,-0.0051 0.0834,-0.04454 0.13014,-0.05466 0.031,-0.0072 0.0641,-0.01013 0.0957,-0.01161 0.0194,0 0.0396,0.0014 0.0574,-0.0028 0.0145,-0.0037 0.0254,-0.0065 0.0396,-0.0065 0.0159,0 0.0353,-0.0037 0.051,0.0021 0.013,0.0052 0.0219,0.01658 0.0317,0.02522 0.0289,0.02448 0.0604,0.02649 0.0935,0.04178 0.0116,0.0065 0.0222,0.0151 0.0353,0.01933 0.0131,0.0057 0.0279,0.0072 0.0416,0.01087 0.0222,0.0057 0.0504,0.0085 0.0712,0.01859 0.0229,0.01235 0.0423,0.02152 0.0675,0.03094 0.01,0.0044 0.0187,0.0086 0.0272,0.01362 0.0289,0.01729 0.0512,0.04252 0.0799,0.05982 0.0215,0.01288 0.0532,0.02872 0.0668,0.05025 -0.10125,0.02155 -0.20634,0.03164 -0.30978,0.03164 -0.044,0 -0.0848,-0.0094 -0.12735,-0.01013 -0.0604,-7.06e-4 -0.11635,0.01161 -0.17247,0.0302 -0.0596,0.01951 -0.11504,0.03461 -0.17615,0.04749 -0.0532,0.01012 -0.1108,0.0042 -0.16545,0.0042 -0.0567,0 -0.1143,0.0037 -0.17025,7.05e-4 -0.0282,-0.0014 -0.0547,-0.0099 -0.0828,-0.0114 -0.0339,-0.0014 -0.0639,7.06e-4 -0.097,-0.0072 -0.0215,-0.0037 -0.0445,-0.01161 -0.0668,-0.01288 -0.0208,-0.0014 -0.0403,0.0014 -0.0611,-0.0021 -0.0512,-0.0079 -0.0979,-0.0052 -0.14891,-0.0072 m -0.39462,-0.548675 c -0.0282,0.06755 -0.0655,0.129392 -0.0999,0.193445 -0.046,0.08338 -0.0769,0.17688 -0.0999,0.268909 -0.0187,0.07399 -0.0374,0.150191 -0.0381,0.227125 0,0.08338 -0.008,0.174121 0.009,0.256762 0.0145,0.07049 0.0325,0.140251 0.0611,0.205592 0.0226,0.05043 0.0447,0.102888 0.0742,0.149638 0.0166,0.02649 0.0381,0.05025 0.051,0.07749 -0.0236,-0.01563 -0.0495,-0.0151 -0.0762,-0.023 -0.0229,-0.0072 -0.0423,-0.023 -0.0633,-0.03589 -0.0646,-0.03957 -0.12294,-0.09203 -0.17889,-0.143012 -0.0353,-0.03164 -0.0806,-0.04675 -0.1143,-0.08209 -0.0243,-0.02501 -0.0482,-0.04877 -0.0756,-0.07104 -0.0279,-0.02226 -0.0446,-0.04454 -0.0646,-0.07418 -0.0381,-0.05669 -0.092,-0.104912 -0.13585,-0.15737 -0.0219,-0.02667 -0.0425,-0.05246 -0.0633,-0.07988 -0.0222,-0.0302 -0.0475,-0.05246 -0.0727,-0.0797 -0.0257,-0.02872 -0.0423,-0.06902 -0.0604,-0.102891 -0.0201,-0.03589 -0.0416,-0.06976 -0.0581,-0.106383 -0.046,-0.102154 -0.0885,-0.202834 -0.12443,-0.30848 -0.0562,-0.159579 -0.10068,-0.322841 -0.15388,-0.483154 -0.0582,-0.175408 -0.12149,-0.353758 -0.16326,-0.534137 -0.0201,-0.0878 -0.0335,-0.175405 -0.0445,-0.265225 -0.01,-0.09148 -0.0258,-0.182771 -0.0279,-0.2748 -0.004,-0.161788 0.0152,-0.322838 0.0335,-0.483151 0.01,-0.08117 0.0116,-0.161053 0.0131,-0.24222 0.004,-0.106388 0.008,-0.212771 0.009,-0.318605 0,-0.07749 0,-0.155162 0.005,-0.232833 0.004,-0.03589 0.0127,-0.0727 0.0159,-0.109329 0,-0.01012 0,-0.02081 0,-0.03094 0,-0.03736 0.0152,-0.07325 0.0194,-0.110066 0.007,-0.06037 0,-0.127921 0.018,-0.186084 0.0152,-0.04399 0.0396,-0.08264 0.0518,-0.128104 0.0145,-0.04804 0.0317,-0.09332 0.0517,-0.138592 0.0576,-0.130867 0.13525,-0.248112 0.22507,-0.356708 0.0943,-0.113563 0.16676,-0.243692 0.24095,-0.371059 0.0222,-0.0381 0.0423,-0.07896 0.0841,-0.097 0.0473,-0.02007 0.0812,-0.05963 0.11705,-0.09553 0.0863,-0.08706 0.17614,-0.171908 0.26818,-0.252528 0.0353,-0.0302 0.0712,-0.06313 0.10933,-0.09056 0.0332,-0.023 0.0698,-0.03295 0.10491,-0.05172 0.0396,-0.02007 0.0742,-0.04896 0.11448,-0.06681 0.031,-0.01436 0.0582,-0.01436 0.0913,-0.01951 0.0834,-0.0114 0.1524,-0.06607 0.23505,-0.0819 0.095,-0.01729 0.18698,-0.04749 0.28106,-0.06902 0.10711,-0.02374 0.21643,-0.05043 0.32576,-0.06258 0.0554,-0.0065 0.10932,-0.01288 0.16326,-0.02649 0.0812,-0.02025 0.14873,-0.04031 0.2286,-0.0094 0.0279,0.0099 0.0532,0.01214 0.0819,0.0042 0.0359,-0.0099 0.0747,-0.02723 0.10932,-0.04307 0.0366,-0.01729 0.0848,-0.023 0.12517,-0.02798 0.0631,-0.0074 0.1336,7.06e-4 0.19766,0.0014 0.0374,0 0.0747,-0.0021 0.11134,0.0014 0.0475,0.0044 0.095,0.01584 0.14248,0.01658 0.0718,0.0014 0.13731,0.01933 0.20557,0.0438 0.0445,0.01584 0.0876,0.03607 0.13162,0.05172 0.009,0.0037 0.018,0.0074 0.0272,0.0079 0.0159,7.05e-4 0.0325,-0.0042 0.049,-0.005 0.051,-0.0035 0.1071,-0.0014 0.15589,0.01803 0.0317,0.01288 0.0648,0.02649 0.0979,0.03589 0.0321,0.01086 0.0488,0.0302 0.0762,0.0497 0.0166,0.01214 0.0346,0.01711 0.0495,0.03147 0.0102,0.01087 0.0194,0.02247 0.031,0.03239 0.0159,-0.01859 0.0293,-7.06e-4 0.041,0.01161 0.012,0.01362 0.0286,0.02226 0.0396,0.03663 0.0159,0.01933 0.0187,0.04178 0.0317,0.06258 0.0106,0.02152 0.0303,0.03164 0.0159,0.05614 -0.0116,0.01933 -0.0504,0.03663 -0.0677,0.05025 -0.0618,0.04675 -0.12294,0.104916 -0.17614,0.160316 -0.29908,0.307008 -0.62322,0.586775 -0.93888,0.876483 -0.0942,0.08559 -0.17043,0.193446 -0.26889,0.270934 -0.0166,0.01305 -0.0236,0.03755 -0.0482,0.03534 -0.0102,0.03517 -0.0279,0.05614 -0.0539,0.08043 -0.0201,0.02025 -0.0374,0.04252 -0.0547,0.06553 -0.0113,0.0416 -0.0251,0.08338 -0.0396,0.123687 -0.0215,0.05743 -0.0381,0.117063 -0.0517,0.17688 -0.006,0.02505 -0.006,0.06608 -0.0187,0.08761 -0.004,0.0057 0,0.0094 -0.007,0.01362 -0.006,0.0044 -0.0169,0.0014 -0.0215,0.0066 -0.006,0.0057 -0.006,0.03147 -0.008,0.04086 -0.008,0.05614 -0.0113,0.113562 -0.0215,0.1697 -0.0222,0.129392 -0.0431,0.25805 -0.0589,0.388179 -0.0127,0.108592 -0.031,0.214425 -0.0604,0.319341 -0.0208,0.07252 -0.0497,0.136571 -0.0806,0.204118 -0.0324,0.06976 -0.0604,0.138045 -0.10199,0.202833 -0.0353,0.0554 -0.0655,0.107858 -0.092,0.168229 -0.0187,0.04233 -0.0353,0.08043 -0.0482,0.125158 -0.01,0.03369 -0.0597,0.09553 -0.0438,0.131417 0.004,0.0086 0.008,0.01087 0.0169,0.01305 0.0229,0.0057 0.0562,-0.01012 0.0792,-0.01235 0.087,-0.0099 0.15166,0.08559 0.21498,0.133812 0.043,0.03313 0.10933,0.03957 0.16178,0.04104 0.0215,0 0.043,7.05e-4 0.064,0 0.0366,-7.06e-4 0.0559,-0.01729 0.0869,-0.03164 0.0243,-0.01087 0.0554,-0.0094 0.0777,-0.02173 0.012,-0.0065 0.0201,-0.01711 0.031,-0.02505 0.0109,-0.0079 0.0261,-0.01161 0.0359,-0.02152 0.0116,-0.01087 0.0123,-0.02522 0.0268,-0.03238 0.0152,-0.0079 0.0279,-7.06e-4 0.0423,0.0057 0.0354,0.01729 0.0742,0.03957 0.0965,0.0727 0.0208,0.0302 0.0254,0.06958 0.0258,0.10565 0,0.0028 0,0.005 0,0.0079 0,0.05172 -0.0293,0.13013 -0.0861,0.140805 -0.0159,0.0028 -0.0332,0.0021 -0.0489,0.0052 -0.0166,0.0035 -0.031,0.01362 -0.0475,0.01711 -0.0366,0.0079 -0.0812,0.0028 -0.118,0.0021 -0.0401,0 -0.079,0.0028 -0.11854,0.01231 -0.0303,0.0079 -0.0569,0.02872 -0.0856,0.04086 -0.0325,0.01362 -0.0611,0.03239 -0.0948,0.04178 -0.0173,0.005 -0.0375,0.0021 -0.0526,0.0072 -0.0201,0.0057 -0.0272,0.02374 -0.0488,0.02226 -0.0374,-0.0021 -0.0905,-0.04178 -0.12294,-0.06479 -0.0346,-0.02374 -0.072,-0.05246 -0.11356,-0.0589 -0.0519,-0.0086 -0.10287,-0.03238 -0.15388,-0.03164 -0.0317,7.06e-4 -0.0648,-0.005 -0.0935,0.0094 -0.0254,0.01288 -0.0425,0.02596 -0.0705,0.03387 -0.0293,0.0085 -0.0517,0.02357 -0.0747,0.0416 -0.0254,0.01877 -0.0525,0.02448 -0.0742,0.04822 -0.0243,0.02946 -0.0495,0.04877 -0.0827,0.06829 -0.004,0.0028 -0.0102,0.005 -0.0152,0.0065 -0.004,0.0065 -0.007,0.01362 -0.0102,0.01951 -0.0453,0.0762 -0.0797,0.157371 -0.12351,0.233571 -0.0289,0.05098 -0.0475,0.10565 -0.069,0.159579 m 3.08645,-2.66295 c 0.0159,0.01288 0.0279,0.03073 0.0438,0.0438 0.0145,0.01069 0.031,0.01933 0.0454,0.0309 0.009,0.0094 0.0353,0.02152 0.0353,0.03737 0,0.0151 -0.0467,0.03957 -0.0589,0.04675 -0.008,0.0057 -0.0159,0.0094 -0.0268,0.01069 -0.0173,0.0021 -0.0339,-0.0057 -0.051,-0.0014 -0.0243,0.0065 -0.0318,0.02797 -0.0446,0.04657 -0.0145,0.02173 -0.0381,0.02244 -0.0554,0.04031 -0.0124,0.01305 -0.0268,0.03313 -0.0367,0.04822 -0.0117,0.01933 -0.0208,0.03884 -0.0296,0.0589 -0.0173,0.04105 -0.0755,0.03094 -0.11504,0.03094 h -0.1632 c -0.0226,0 -0.0396,0.0021 -0.0611,0.0079 -0.0236,0.0057 -0.0376,0.01362 -0.0613,0.023 -0.0194,0.0065 -0.0408,0.01729 -0.0617,0.02025 -0.0116,0.0028 -0.0236,-0.0014 -0.0353,7.05e-4 -0.0166,0.0028 -0.0265,0.0086 -0.0438,0.0094 -0.0525,0.0014 -0.10435,-7.06e-4 -0.15607,0 -0.0396,0 -0.0891,-0.03221 -0.12647,-0.01436 -0.0138,0.0072 -0.0222,0.01877 -0.0368,0.02448 -0.0236,0.0079 -0.0517,0.0057 -0.0768,0.0079 -0.0375,0.0035 -0.0734,-0.01214 -0.10728,-0.02797 -0.0131,-0.0059 -0.0258,-0.01803 -0.0387,-0.02173 -0.0102,-0.0028 -0.0166,0.0021 -0.0275,-0.0042 -0.009,-0.005 -0.0222,-0.02374 -0.0293,-0.0302 -0.012,-0.01288 -0.0194,-0.0151 -0.0325,-0.02152 -0.0138,-0.0079 -0.0359,-0.02226 -0.0482,-0.03313 -0.01,-0.0086 -0.0194,-0.02522 -0.008,-0.03387 0.007,-0.0057 0.0159,-0.0042 0.0243,-0.01214 0.008,-0.0094 0.0109,-0.01877 0.0131,-0.0151 0.0162,-0.02152 0.0401,-0.04105 0.0581,-0.06111 0.0243,-0.02723 0.0482,-0.05761 0.0755,-0.08117 0.0243,-0.02099 0.0505,-0.0381 0.0735,-0.06055 0.025,-0.02357 0.046,-0.05393 0.074,-0.07473 0.0187,-0.01436 0.0418,-0.02575 0.0626,-0.03884 0.0482,-0.0302 0.0906,-0.0416 0.14524,-0.05172 0.0683,-0.01213 0.13159,-0.0028 0.19988,-0.0065 0.0567,-0.0028 0.1143,-0.0086 0.17174,-0.0094 0.0655,-7.06e-4 0.1301,0.01584 0.19565,0.01584 0.0324,0 0.0633,0.0079 0.095,0.01362 0.025,0.0037 0.051,0.0057 0.0755,0.01235 0.0303,0.0085 0.0574,0.02431 0.0849,0.03884 0.0194,0.0092 0.0408,0.01711 0.0574,0.0309 m 0.45445,4.745196 c 0.0138,-0.01655 0.0366,-0.04454 0.0453,-0.05761 0,-7.05e-4 0,-0.0028 0,-0.0035 0,0.0042 0,0.0086 0,0.0151 -0.005,0.0065 -0.018,0.023 -0.0251,0.0302 -0.008,0.0094 -0.0138,0.01436 -0.0173,0.01732 -0.005,7.06e-4 -0.008,7.06e-4 -0.0109,0 0.004,0 0.005,-7.05e-4 0.009,-0.0014 m 2.10227,-3.345437 -0.0109,-0.02797 -0.0208,-0.0554 c -0.0275,-0.126633 0.0423,0.01013 -0.005,-0.173383 -0.0226,-0.06681 -0.0799,-0.186083 -0.0792,-0.158842 0.006,0.02741 0.0127,0.07197 0.004,0.0762 l -0.0215,-0.06111 c -0.004,0 -0.004,-7.05e-4 -0.006,-7.05e-4 l -0.004,-0.0099 0.0898,-0.443762 -0.0797,-0.296888 0.006,0.0057 -0.0102,-0.02078 -0.0258,-0.09479 c 0.004,0.0021 0.01,0.0099 0.0166,0.02872 -0.004,-0.02815 -0.007,-0.04178 -0.0116,-0.0554 -0.0113,-0.01933 -0.0201,-0.02596 -0.0279,-0.06479 0,-0.0072 0,-0.005 0.005,7.05e-4 l -0.0359,-0.06037 c 0.01,0.01012 0.0113,-0.01785 0.0258,0.023 -0.0388,-0.120742 -0.10199,-0.176142 -0.10418,-0.226392 l 0.006,0.0086 c -0.0604,-0.115037 -0.0431,-0.06111 -0.0631,-0.07491 v -0.0035 l -0.0102,-0.07546 0.0236,-0.06405 -0.0208,-0.01436 c -0.004,-0.01803 -0.005,-0.05319 0.004,-0.04823 -0.0215,-0.06387 -0.006,0.01288 -0.0236,-0.02448 0.005,-0.06681 -0.0187,-0.162338 -0.0201,-0.222892 -0.0102,-0.01711 -0.0159,-0.03147 -0.0123,-0.03939 -0.031,-0.01729 0.0425,0.0762 -0.0222,0.005 0.0102,-0.04031 -0.0676,-0.0819 -0.10344,-0.154608 0.0279,0.01013 0.0653,0.07473 0.0303,0.0028 -0.0504,-0.02152 -0.0856,-0.126633 -0.1301,-0.176879 -0.0201,0.01069 -0.092,-0.111542 -0.16253,-0.197679 0.0102,0.0014 -0.1143,-0.176142 -0.164,-0.267621 h 0.005 c -0.0303,-0.0035 -0.0863,-0.09479 -0.13455,-0.156633 0.0131,-0.005 0.0254,0.0035 0.0539,0.03514 l -0.0409,-0.06037 c -0.0159,-0.01012 -0.0317,-0.02723 -0.0606,-0.0646 l 0.0243,0.0057 -0.0215,-0.02946 -0.0293,-0.02522 -0.0268,-0.02081 c -0.0173,-0.01379 -0.0359,-0.02889 -0.0539,-0.04325 -0.0374,-0.03094 -0.0754,-0.06387 -0.11355,-0.10565 -0.0106,0.0044 0.0131,0.04822 -0.004,0.05098 l -0.0504,-0.04602 c 0.006,-0.0021 0.0145,-7.06e-4 0.0286,0.01012 -0.009,-0.0072 -0.0346,-0.02226 -0.0495,-0.04031 l 0.0488,0.02522 c -0.0374,-0.04307 -0.0303,-0.01143 -0.0624,-0.04307 0.008,-0.0086 -0.0187,-0.02946 -0.008,-0.03239 0.009,0.0072 0.0258,0.03094 0.0423,0.03957 -0.018,-0.01803 -0.0416,-0.04325 -0.0525,-0.05834 -0.008,-0.0151 -0.0194,-0.03737 -0.0208,-0.04675 -0.004,0.0079 -0.0131,0.01012 -0.0374,-0.01933 -0.059,-0.07693 -0.008,-0.03514 -0.0375,-0.08411 -0.0208,-0.01362 -0.0517,-0.06902 -0.0668,-0.05964 -0.0173,-0.023 -0.0138,-0.03164 -0.0166,-0.04399 -0.01,-0.0092 -0.025,-0.02797 -0.0416,-0.04804 -0.0187,-0.023 -0.0395,-0.04896 -0.0561,-0.0705 -0.0596,-0.01436 -0.074,-0.0151 -0.0546,0 l 0.0145,0.005 c -0.004,0 -0.006,-7.05e-4 -0.01,-0.0014 -0.0683,-0.01214 -0.13677,-0.03295 -0.20504,-0.05522 l -0.10124,-0.03387 c -0.0325,-0.01087 -0.0648,-0.02081 -0.0957,-0.0309 l -0.0272,-0.023 -0.0317,-0.02575 0.004,-0.0044 c -0.079,-0.0589 -0.16824,-0.138783 -0.23008,-0.174671 -0.0222,-0.01877 -0.0446,-0.05246 -0.031,-0.0497 -0.008,-0.0072 -0.0166,-0.01362 -0.0222,-0.01711 -0.0138,-0.0059 -0.0258,-0.01012 -0.0366,-0.0151 -0.0109,-0.0044 -0.0201,-0.0079 -0.0303,-0.01305 -0.0215,-0.0099 -0.046,-0.02374 -0.0863,-0.04877 0.0727,0.02431 -0.0194,-0.01951 0.0727,0.02798 -0.0848,-0.04822 -0.0999,-0.06681 -0.20136,-0.09847 0.0388,0.0014 -0.0554,-0.0497 -0.10139,-0.06755 l 0.0576,0.04086 c -0.0138,-0.0057 -0.0268,-0.01143 -0.0388,-0.01729 -0.0145,-0.0072 -0.0282,-0.01436 -0.0418,-0.02081 -0.0229,-0.0035 -0.0445,-0.0072 -0.0668,-0.01069 l 0.0272,-0.01729 c -0.0963,-0.02522 -0.18683,-0.02596 -0.27093,-0.02872 -0.0425,-7.05e-4 -0.0828,-0.0028 -0.12168,-0.0079 -0.0388,-0.0052 -0.0755,-0.01803 -0.11063,-0.03461 -0.0539,0.0037 0.10418,0.0302 0.0554,0.0381 -0.0893,-0.02007 -0.17762,-0.06828 -0.20577,-0.07325 -0.0488,-0.01436 -0.0775,-0.01584 -0.10344,-0.0151 -0.0138,7.06e-4 -0.0254,0.0014 -0.0396,0.0021 -0.006,7.05e-4 -0.0138,7.05e-4 -0.0208,0 -0.008,0 -0.0145,0 -0.0293,-0.0021 -0.01,0 -0.0187,0 -0.0303,0 -0.01,0 -0.0201,-7.05e-4 -0.0325,-0.0014 0.0166,0.0079 0.0325,0.02723 -0.0662,0.03313 -0.0913,-0.0044 -0.11211,-0.03238 -0.0539,-0.03755 0.0219,0 0.0317,0.0014 0.0317,0.0044 0.0296,-0.0021 0.0683,-0.0044 0.0325,-0.01288 l -0.012,0.0072 c -0.0453,-0.0086 -0.17191,-0.0094 -0.14171,-0.02099 -0.0698,0.0059 -0.0303,0.01161 0.0215,0.01584 -0.0762,-0.0086 -0.13434,-0.0072 -0.19325,-0.0079 -0.0282,-0.0021 -0.0662,-0.0057 -0.10657,-0.01214 0.0187,0.0057 0.0361,0.01584 0.0166,0.01436 -0.17615,-0.02596 -0.079,0.0065 -0.19915,-0.0014 -0.0668,-0.01711 0.0268,-0.02448 -0.094,-0.02575 -0.0735,-0.01453 -0.0145,-0.02099 0.0152,-0.02374 -0.013,7.06e-4 -0.0257,7.06e-4 -0.0388,0 l -0.0268,-0.0014 c -0.0113,-0.0014 -0.0215,-0.0021 -0.0325,-0.0028 -0.0145,0.0072 -0.0286,0.0151 -0.0423,0.02226 -0.01,0.0044 -0.018,0.0079 -0.0261,0.01235 -0.0169,0.0072 -0.0325,0.01362 -0.0475,0.02007 -0.0303,0.01235 -0.0574,0.02226 -0.079,0.03313 l 0.048,-0.03313 c -0.0286,0.01951 -0.0537,0.03313 -0.079,0.04749 l 0.0359,-0.0037 c -0.031,0.01453 -0.0567,0.02815 -0.0589,0.02247 -0.0261,0.02505 0.0353,0.0079 -0.0194,0.05319 -0.0215,0.0079 -0.051,0.02575 -0.0782,0.04086 -0.0131,0.0079 -0.0261,0.0151 -0.0368,0.01951 -0.006,0.0014 -0.0106,0.0035 -0.0152,0.0035 -0.004,0 -0.004,-7.06e-4 -0.006,-0.0028 0.004,0 0.0109,-0.0052 0.0166,-0.0072 0.006,-0.0037 0.0109,-0.0066 0.0152,-0.0086 0.008,-0.0052 0.0138,-0.0079 0.0166,-0.01012 0.005,-0.005 0.004,-0.0065 -0.004,-0.0072 -0.008,-0.0021 -0.0208,-0.0044 0.0317,-0.03461 -0.0194,0.01305 -0.0438,0.02667 -0.0755,0.04104 -0.006,7.06e-4 0.004,-0.0057 0.0102,-0.01139 -0.009,0.0035 -0.0208,0.0092 -0.0229,0.0092 0,0 0,0 -0.004,0 0,0 0,0 -0.004,7.06e-4 -0.004,7.05e-4 -0.01,0.0014 -0.0127,0.0021 -0.01,0.0028 -0.0152,0.0065 -0.0222,0.01013 -0.0152,0.0072 -0.0359,0.01436 -0.0965,0.01584 0.0173,-0.01161 -0.0339,-0.02025 -0.0567,-0.01732 0.0574,-7.05e-4 0.0279,0.01732 -0.0243,0.02723 -0.0913,-0.0072 -0.0985,0.0079 -0.14595,0.0079 l 0.0539,0.0028 c -0.008,0.0057 -0.0236,0.0086 -0.0445,0.01013 -0.0208,0.0021 -0.0482,0.0035 -0.0806,0.005 -0.004,7.06e-4 -0.005,0.0021 -0.008,0.0035 -0.004,-0.0021 0,-0.0042 0.007,-0.0077 0.0236,-0.0028 0.0489,-0.0028 0.0339,-0.0059 -0.005,0.0021 -0.01,0.0028 -0.0138,0.0037 l -0.0201,0.0021 c -0.0236,0.0092 -0.0359,0.01214 -0.0538,0.01637 -0.018,0.0037 -0.0368,0.0065 -0.0554,0.01087 -0.0381,0.0072 -0.0784,0.01584 -0.11726,0.03443 -0.0453,0.0066 -0.0109,-0.01859 -0.0502,-0.01069 -0.0388,0.01859 -0.0655,0.02649 -0.0893,0.03164 -0.0123,0.0021 -0.0236,0.0035 -0.0359,0.0065 -0.006,0.0014 -0.0124,0.0028 -0.0187,0.0042 -0.004,7.06e-4 -0.007,0.0014 -0.0106,0.0028 -0.006,0.0014 -0.0131,0.0035 -0.0187,0.0057 -0.006,0.0037 -0.0127,0.0072 -0.0201,0.01161 -0.004,0.0028 -0.008,0.0057 -0.013,0.0086 -0.008,0.0057 -0.018,0.01214 -0.0279,0.02007 0.0366,-0.005 0.0396,-0.01161 -0.0229,0.0438 l 0.0927,-0.06387 0.0856,-0.03313 -0.0374,0.02007 c -0.0145,0.0079 -0.0215,0.01305 -0.044,0.02226 -0.0162,0.01235 -0.0229,0.01951 -0.0328,0.02815 0.0113,-0.0072 0.0243,-0.01584 0.0359,-0.023 0.0123,-0.0051 0.0243,-0.01012 0.0359,-0.01379 0.0109,-0.0042 0.0201,-0.0085 0.0303,-0.01214 0.0187,-0.0079 0.0361,-0.01436 0.049,-0.01803 -0.051,0.0302 -0.0468,0.02448 -0.0173,0.02741 -0.0159,7.06e-4 -0.0317,0.0035 -0.046,0.0079 -0.008,0.0014 -0.0152,0.0042 -0.0222,0.0072 l -0.0257,0.0094 c -0.0201,0.0151 -0.0418,0.0309 -0.0633,0.04675 -0.0201,0.01436 -0.0425,0.02872 -0.0683,0.03884 l -0.0173,-0.03164 c -0.0905,0.0416 -0.15808,0.101967 -0.24292,0.160313 -0.0268,0.01436 -0.0683,0.03443 -0.11007,0.05025 l 0.0546,-0.01803 c -0.0159,0.02318 -0.0985,0.04749 -0.14816,0.07694 0,-0.01362 -0.0346,-0.0021 -0.0604,7.05e-4 0.006,0.0072 -0.11727,0.05319 -0.12295,0.08209 l -0.0215,0.0065 -0.0187,0.01436 -0.0152,0.0086 -0.0265,0.01729 c -0.10859,0.09405 -0.095,0.138042 -0.19696,0.230071 0.0208,-0.0381 -0.0303,-7.06e-4 0.0303,-0.07123 -0.0332,0.03164 -0.0648,0.05816 -0.0598,0.0646 -0.005,0.0037 -0.012,0.0094 -0.0201,0.01803 -0.008,0.01012 -0.0194,0.02152 -0.0303,0.03387 -0.01,0.01785 -0.0201,0.03736 -0.0293,0.05522 -0.01,0.01584 -0.0187,0.02963 -0.0282,0.03755 -0.006,0.01933 0,0.03147 -0.0272,0.07399 -0.006,0.0035 -0.006,-0.0037 -0.006,-0.0037 0.006,0.0037 -0.0374,0.0727 0,0.04178 -0.025,0.02226 -0.0489,0.05025 -0.0727,0.08264 -0.0113,0.01584 -0.0229,0.03239 -0.0353,0.05043 -0.0109,0.01637 -0.0215,0.03295 -0.0325,0.04951 -0.0187,0.01658 -0.0374,0.03313 -0.0562,0.05043 -0.0201,0.01637 -0.0394,0.03369 -0.0589,0.04951 -0.0374,0.03164 -0.0733,0.05761 -0.10491,0.07344 -0.0403,0.03736 -0.0856,0.07896 -0.12665,0.117063 -0.0194,0.05614 -0.0366,0.107121 -0.0524,0.151109 0,-0.0066 -0.006,-0.0021 0,-0.01803 -0.0539,0.113566 0.006,0.08485 -0.0547,0.214245 -0.0438,0.06111 0.0159,-0.07473 -0.006,-0.03514 -0.013,0.0021 -0.0222,0.0151 -0.0317,0.03663 -0.004,0.0099 -0.008,0.02226 -0.013,0.03589 -0.004,0.01161 -0.0102,0.03165 -0.0102,0.03589 0,0.0028 -0.008,0.01379 -0.0159,0.02374 l -0.0208,0.0302 c -0.0145,0.01951 -0.0293,0.03755 -0.046,0.05117 l 0.012,-0.02025 c -0.0546,0.05117 -0.0948,0.152584 -0.16895,0.247375 0,0 0,-0.0065 -0.004,-0.0042 -0.004,0.0065 -0.007,0.01658 -0.0159,0.03094 -0.005,0.023 -0.009,0.04951 -0.0145,0.07823 -0.005,0.02596 -0.0116,0.05319 -0.018,0.08209 -0.0145,0.05595 -0.0303,0.115033 -0.0438,0.166017 -0.004,-0.03883 0.008,-0.05246 -0.0138,-0.03663 -0.0138,0.05025 0.0286,-0.0065 0,0.0935 -0.008,0.01288 -0.0166,0.02872 -0.0279,0.05098 -0.0109,0.03164 -0.0208,0.0554 -0.0318,0.06037 l 0.01,-0.06534 0.0113,-0.03681 c -0.004,0.0037 -0.007,0.0086 -0.01,0.01379 -0.004,0.005 -0.006,0.01069 -0.0109,0.02152 0,0.0065 -0.004,0.01362 -0.004,0.02152 l -0.004,0.01803 c 0,0.01214 0,0.02505 -0.004,0.03736 0,0.02522 -0.004,0.04877 -0.007,0.06828 l -0.008,-0.0079 c -0.018,0.144484 0.004,0.155346 -0.0187,0.301304 0,0.0021 0,0.005 -0.004,0.0079 0.004,-0.0028 0.004,-0.0052 0.006,-0.0072 0,-0.0014 0.004,-0.0021 0.004,-0.0052 0,0.0037 0,0.0052 0,0.0065 0,0.07988 -0.031,0.06258 -0.0346,0.148167 l -0.0303,0.02007 c -0.01,0.05688 -0.0236,0.202096 -0.0495,0.302779 0,-0.06038 0.0194,-0.181117 0.0279,-0.256025 -0.0145,0.05466 -0.0446,0.189208 -0.0418,0.220867 0.005,-0.023 0.005,-0.05264 0.0138,-0.07418 0.004,0.07418 -0.0173,0.164733 -0.049,0.274062 -0.0127,-0.01087 -0.0272,0.01566 -0.0438,0.05816 -0.008,0.02152 -0.0166,0.04749 -0.0243,0.07399 -0.0102,0.03094 -0.0201,0.06332 -0.0303,0.09424 0,0.01143 0.004,0.023 0.006,0.03387 0,0.0079 0,0.0151 0.004,0.02226 0,0.01436 0.004,0.02797 0.004,0.04086 0,0.02596 0,0.04749 -0.004,0.06258 0.0138,0.04896 0.0243,0.09718 0.0328,0.146692 0.005,0.02448 0.009,0.04896 0.013,0.07399 0.004,0.0267 0.008,0.05393 0.0127,0.08135 0.0166,0.05172 0.0332,0.104913 0.0502,0.158842 0.0173,0.05393 0.0368,0.107858 0.0569,0.163995 0.006,-0.09129 0.0243,0.06387 0.0554,0.03737 0.008,0.023 0.0145,0.03957 0.0194,0.05025 0,0.0079 0.004,0.01951 0,0.02099 v -0.01161 c 0,0.005 0,0.0079 0,0.01214 l 0.004,0.166942 c -0.004,0.04086 -0.0166,-0.0497 -0.0236,-0.04325 0.0162,0.118716 -0.008,0.0519 -0.005,0.132337 0.0109,-0.01859 0.0258,0.0381 0.0317,0.106387 v -0.09774 c 0.0222,0.07841 0.0208,0.110804 0.0201,0.1524 0.004,0.04602 0,0.07841 0.0339,0.163996 l -0.0244,-0.0497 c 0.0109,0.03313 0.0258,0.0878 0.0425,0.147433 0.008,0.0302 0.0169,0.06037 0.0258,0.08982 0.005,0.0151 0.0102,0.02946 0.0145,0.04325 0.005,0.01584 0.0109,0.0302 0.0159,0.04455 0.006,0.01436 0.008,0.01584 0.0116,0.023 0.004,0.0057 0.007,0.0114 0.0106,0.01584 0.006,0.01069 0.0131,0.01933 0.0194,0.02649 0,0.01584 0,0.03884 -0.0173,0.0044 0.0208,0.05595 0.046,0.1143 0.0732,0.1732 0.0282,0.05963 0.0562,0.121479 0.0828,0.179087 0.0152,0.02081 0.0303,0.04086 0.0438,0.05964 0.012,0.01877 0.0254,0.03589 0.0366,0.05319 0.0236,0.03387 0.0433,0.06608 0.0591,0.097 l -0.0159,-0.0085 c 0.0236,0.03073 0.0517,0.04657 0.071,0.09203 -0.004,0 -0.0166,-0.0079 -0.006,0.0072 0.005,0.005 0.0145,0.01637 0.0268,0.02946 0.006,0.0072 0.012,0.0151 0.0187,0.023 0.007,0.0086 0.0116,0.01362 0.0236,0.0302 0.008,0.0079 0.0173,0.01584 0.0261,0.02374 0.006,0.0065 0.012,0.01288 0.0173,0.01859 l -0.0387,-0.023 c 0.13804,0.149637 0.24073,0.197675 0.36865,0.310688 -0.0187,0.01933 0.0908,0.133625 0.14541,0.191237 l -0.005,7.05e-4 c 0.0418,0.03957 0.0812,0.0762 0.12001,0.109146 0.0368,0.03534 0.0727,0.06847 0.10859,0.09994 0.0366,0.03164 0.072,0.06332 0.10858,0.09571 0.018,0.01658 0.0366,0.03313 0.0554,0.0497 0.01,0.0085 0.0187,0.01711 0.0286,0.02575 0.0102,0.01012 0.0215,0.02081 0.0325,0.0309 0.004,0.0028 0.008,0.0057 0.0138,0.0086 0.0318,0.03387 0.0841,0.07473 0.14594,0.11927 0.0318,0.02247 0.0641,0.04546 0.0985,0.06976 0.0374,0.02667 0.0769,0.05319 0.11578,0.07988 0.0446,0.01288 0.0898,0.02596 0.13307,0.03737 0.0388,0.01161 0.0762,0.023 0.11063,0.03517 -0.0314,-0.01362 0.0109,-0.01933 0.0482,-0.01214 0.049,0.01803 0.14171,0.01729 0.12735,0.03884 l -0.0173,-0.0042 c 0.004,0.0042 0.0113,0.0092 0.0194,0.01436 0.004,0.0021 0.008,0.0042 0.0123,0.0065 0.006,0.0021 0.004,0.0021 0.005,0.0035 -0.004,7.06e-4 0.0138,0.01087 0.0243,0.01729 0.012,0.0072 0.0254,0.01436 0.0388,0.02226 0.0258,0.01436 0.0532,0.02946 0.0784,0.04252 l 0.0272,-0.02152 c 0.0286,0.02505 0.0626,0.04951 0.0992,0.07252 0.0187,0.01161 0.0374,0.023 0.0569,0.03387 0.0215,0.01214 0.0438,0.02374 0.0653,0.03589 l 0.0668,0.02152 c 0.0201,0.0065 0.0403,0.01235 0.0604,0.01803 0.0403,0.01288 0.0784,0.02448 0.11448,0.03514 0.0711,0.023 0.1294,0.04602 0.16104,0.07197 0.008,0.0014 0.01,0.0014 0.0272,0.0065 0.0243,0.0021 0.051,0.0057 0.0776,0.0086 0.0243,0.0035 0.049,0.0065 0.072,0.0072 l -0.007,0.01658 c 0.0554,0.01214 0.0999,0.02226 0.14594,0.03238 0.0229,0.005 0.046,0.0099 0.0705,0.01563 0.0286,0.0052 0.0589,0.01087 0.0935,0.01803 0.0201,-0.0021 0.0561,-0.0057 0.0977,-0.0094 l -0.0353,0.0151 c 0.0999,-0.0065 0.12224,-0.05964 0.21424,-0.06681 l 0.0286,0.02374 0.0762,-0.0042 0.0792,-0.0037 0.0962,-0.01288 0.092,-0.0151 c 0.0611,-0.01086 0.12149,-0.02374 0.18055,-0.04325 0,0.0044 -0.006,0.01305 -0.0332,0.01877 0.0236,-0.0037 0.0611,-0.0094 0.10068,-0.0151 0.0229,-0.0014 0.046,-0.0021 0.0676,-0.0037 0.0229,-0.0014 0.0453,-0.0035 0.0633,-0.0057 0.0353,-0.005 0.0567,-0.01362 0.0453,-0.02522 0.004,0.023 0.18038,-0.0092 0.27316,-0.02872 l -0.0131,0.01951 c 0.0777,-0.03164 0.0799,-0.0381 0.18906,-0.05761 0.0258,-0.0014 0.0243,0.01012 -0.0106,0.01012 0.0876,-0.0014 0.0653,-0.02448 0.17248,-0.02889 l -0.0381,0.01584 c 0.044,-0.0042 0.0648,-0.0079 0.0799,-0.01288 0.0152,-0.0042 0.0236,-0.01012 0.0547,-0.02007 0,-7.05e-4 0.004,-0.0021 0.004,-0.0028 0.008,-0.0057 0.0159,-0.01143 0.0254,-0.01803 0.007,-0.005 0.0145,-0.0092 0.0222,-0.0151 0.0159,-0.0099 0.0332,-0.01933 0.0504,-0.02872 0.0339,-0.01658 0.0639,-0.02797 0.074,-0.02522 0.004,-0.0151 0.0396,-0.05172 0.0863,-0.07749 0.009,0.0014 -0.005,0.0151 -0.0124,0.02152 0.031,-0.01658 0.0569,-0.03313 0.0799,-0.04896 0.0113,-0.0086 0.0222,-0.01584 0.0332,-0.02374 l 0.0145,-0.01069 0.008,-0.0072 c 0.005,-0.0028 0.0187,-0.0079 0.0314,-0.01231 0.0123,-0.0035 0.0236,-0.0079 0.0368,-0.01143 0.0243,-0.0072 0.0488,-0.01305 0.0777,-0.01584 0.004,0.005 0.01,0.0057 0.0194,0.0057 -0.0683,0.01732 -0.12792,0.03238 -0.16179,0.04105 -0.007,0.0042 -0.012,0.0079 -0.0152,0.0092 -0.005,0.0037 -0.007,0.0044 -0.006,0.0028 0.004,0.0065 0.0243,-0.0021 0.0265,0.0014 0.005,0.0014 0.006,0.0042 0.008,0.0065 0,0.0028 0,0.0072 0,0.01214 0,7.06e-4 0,0.0028 0,0.0052 v -0.0021 c 0,-0.0014 0,-0.0021 0,-0.0035 0.005,-0.0014 0.0102,-0.0044 0.0145,-0.0066 0.0109,-0.0042 0.0208,-0.0092 0.0325,-0.01436 0.0229,-0.0094 0.0467,-0.01933 0.0705,-0.02946 0.0488,-0.01933 0.1,-0.03737 0.14376,-0.04528 0.005,7.06e-4 0.0102,0.0014 0.0138,0.0021 l -0.01,0.0042 c 0.0215,-0.0035 0.0403,-0.01013 0.0576,-0.01803 0.0145,-0.0021 0.0272,-0.0042 0.0388,-0.0065 0.0138,-0.0028 0.0187,-0.0035 0.0468,-0.01069 0.005,0.0014 0.0166,0 0.0335,-0.0028 0.0109,-0.01013 0.0229,-0.02374 0.0368,-0.03958 0.008,-0.0092 0.0162,-0.01933 0.025,-0.02946 0.0159,-0.02007 0.0332,-0.04105 0.046,-0.05614 -0.0159,-0.0072 0.0268,-0.05393 -0.0222,-0.01785 0.006,-0.0052 -0.004,0.0079 -0.0251,0.03295 -0.004,0.0059 -0.009,0.01305 -0.0116,0.01729 0,-0.0014 0,-0.0028 0,-0.0035 l -0.0633,0.07546 -0.0532,0.01436 c 0.0117,-0.0057 0.0332,-0.01436 0.0497,-0.02007 0.006,-0.0086 0.0113,-0.01729 0.0173,-0.02522 0.006,-0.0072 0.0116,-0.01436 0.0166,-0.02152 0.0102,-0.01235 0.0215,-0.02374 0.0359,-0.03534 0.007,-0.02649 0.0166,-0.05466 0.0226,-0.06976 0.0604,-0.03443 0.15314,-0.124238 0.1754,-0.127921 0.0152,-0.02081 0.0317,-0.04233 0.048,-0.0646 0.0236,-0.01951 0.0475,-0.04031 0.0705,-0.05982 0.0261,-0.02226 0.0497,-0.0438 0.0734,-0.06387 0.046,-0.04252 0.0854,-0.08209 0.1071,-0.115774 0.0303,-0.02889 0.0431,-0.02226 0.0589,-0.02815 -0.0173,0.01803 -0.0403,0.03534 -0.0482,0.04675 0.0591,-0.06037 0.19915,-0.147246 0.20063,-0.17817 0.0927,-0.05264 -0.0359,0.05099 0.0806,-0.03534 l -0.0123,0.01658 c 0.031,-0.01658 0.0591,-0.03312 0.0863,-0.05025 0.0131,-0.01012 0.0261,-0.01803 0.0388,-0.02741 0.0159,-0.0114 0.031,-0.023 0.0467,-0.03443 l 0.0187,-0.03534 0.0123,-0.02448 0.0222,-0.04877 c 0.0145,-0.03238 0.0286,-0.06479 0.0438,-0.09847 0.0286,-0.06405 0.0633,-0.135283 0.10287,-0.19915 0.0279,-0.02667 0.0683,-0.06111 0.10915,-0.09074 -0.0173,0.01305 -0.0265,0.01951 -0.0314,0.02025 0.0423,-0.03736 0.0834,-0.0762 0.12424,-0.115034 l 0.0611,-0.06037 0.0641,-0.06405 c 0.0841,-0.1351 0.15533,-0.253816 0.24165,-0.387625 l 0.0258,-0.07823 0.0261,-0.07344 c 0.0173,-0.04877 0.0353,-0.097 0.0547,-0.14375 0.0286,-0.07399 0.0279,-0.097 0.0317,-0.137308 0,-0.01012 0,-0.023 0,-0.03736 l 0.0229,-0.01729 0.004,-0.107854 c 0.018,-0.148721 0.0992,-0.242221 0.11649,-0.432721 l -0.018,0.02081 c 0.018,-0.06626 0.044,-0.212034 0.0554,-0.196942 0,-0.0074 -0.008,-0.02448 0.005,-0.0497 l 0.01,7.06e-4 0.004,-0.02522 0.005,-0.03238 z"
       style="fill:#21201d;fill-opacity:1;fill-rule:nonzero;stroke:none;stroke-width:0.184057"
       id="path740" />
    <path
       d="m 479.67657,57.35559 c 0.008,-0.03461 0.008,-0.0705 0.0159,-0.105096 0.0268,-0.112829 0.0683,-0.22363 0.11504,-0.330017 0.0641,-0.14872 0.12001,-0.298358 0.16104,-0.454992 0.0109,-0.04252 0.0159,-0.08559 0.0261,-0.128104 0.0113,-0.0438 0.0324,-0.08485 0.0431,-0.129392 0.0102,-0.04031 0.0116,-0.08043 0.0236,-0.120008 0.0138,-0.04527 0.0332,-0.08779 0.0497,-0.1316 0.0187,-0.04822 0.0321,-0.09773 0.0374,-0.149637 0.004,-0.03221 0,-0.06037 0.007,-0.0913 0.0145,-0.05466 0.046,-0.106383 0.0646,-0.160313 0.008,-0.02226 0.008,-0.04233 0.0145,-0.0646 0.0145,-0.04031 0.0388,-0.07988 0.0569,-0.118717 0.0173,-0.03589 0.0317,-0.07252 0.0497,-0.107858 0.0286,-0.0554 0.0646,-0.09773 0.11064,-0.138779 0.0123,-0.01069 0.0268,-0.01859 0.0395,-0.02946 0.004,-0.0035 0.004,-0.0072 0.007,-0.01069 0,-0.0059 0,-0.01087 0.008,-0.01161 0.018,-0.02798 0.0366,-0.05614 0.0576,-0.0819 0.0155,-0.02099 0.0321,-0.02872 0.0538,-0.04178 0.0102,-0.0065 0.0173,-0.01288 0.0243,-0.02226 0.0374,-0.04749 0.0611,-0.107859 0.0935,-0.159579 0.041,-0.06405 0.0827,-0.133072 0.13878,-0.187001 0.0582,-0.05595 0.1222,-0.10565 0.17981,-0.163812 0.12792,-0.130867 0.26522,-0.245167 0.42132,-0.341612 0.0453,-0.02724 0.0869,-0.05816 0.13085,-0.08761 0.018,-0.01161 0.0279,-0.01231 0.046,-0.01231 -0.0124,0.0057 -0.0268,0.0086 -0.0361,0.01087 0.01,-0.0021 0.0286,-0.0052 0.0418,-0.01087 0,0 -0.004,0 -0.005,0 0.0583,-0.02723 -0.0321,-0.06534 -0.0539,-0.0762 -0.0293,-0.0151 -0.0574,-0.03239 -0.0862,-0.04602 -0.0604,-0.02724 -0.1259,-0.03369 -0.18923,-0.04822 -0.0438,-0.0085 -0.0841,-0.01859 -0.12866,-0.01785 -0.0236,0 -0.0475,0.0021 -0.0705,0.0065 -0.0359,0.0072 -0.0697,0.01877 -0.1071,0.01933 -0.0589,0.0014 -0.11706,-0.01436 -0.17466,-0.023 -0.0654,-0.01069 -0.13163,-0.01933 -0.1977,-0.01859 -0.11155,0.0014 -0.2214,0.0014 -0.33221,7.05e-4 -0.0906,-0.0014 -0.1789,0.0094 -0.26892,0.02156 -0.0992,0.01362 -0.18553,0.0554 -0.27884,0.09055 -0.28769,0.106388 -0.54645,0.279034 -0.79456,0.45665 -0.10915,0.07823 -0.21848,0.158842 -0.3048,0.263017 -0.0626,0.0762 -0.12224,0.156083 -0.18186,0.233754 -0.0648,0.08338 -0.11578,0.172463 -0.16471,0.265963 -0.01,0.02007 -0.0222,0.03884 -0.0367,0.05614 -0.0208,0.02522 -0.046,0.04602 -0.0648,0.07326 -0.0611,0.08853 -0.0733,0.207063 -0.1143,0.305534 -0.0353,0.08632 -0.0639,0.169704 -0.0856,0.260258 -0.0166,0.06847 -0.0314,0.136021 -0.0473,0.203571 -0.0361,0.151662 -0.0339,0.304062 -0.049,0.457933 -0.0145,0.14375 -0.0279,0.285475 -0.0261,0.429225 0,0.07915 0.009,0.158288 0.0102,0.237988 0,0.07841 0.004,0.155342 0.012,0.233016 0.0212,0.159579 0.0697,0.31345 0.10361,0.470267 0.0138,0.06829 0.0145,0.138596 0.0325,0.206329 0.0166,0.0624 0.0423,0.129392 0.074,0.185346 0.0201,0.03608 0.0467,0.06773 0.0668,0.102888 0.0201,0.03737 0.0482,0.143013 0.10361,0.140991 0.0131,-7.05e-4 0.0222,-0.0086 0.0303,-0.01729 0.0127,-0.01436 0.0208,-0.03238 0.0353,-0.04601 0.0187,-0.01803 0.0411,-0.03663 0.0611,-0.05246 0.0116,-0.0094 0.0275,-0.01436 0.0368,-0.02522 0.0131,-0.0151 0.0187,-0.02671 0.0366,-0.03957 0.041,-0.0309 0.0841,-0.0589 0.13088,-0.08043 0.0423,-0.01951 0.0826,-0.04178 0.12439,-0.06332 0.0359,-0.01803 0.0619,-0.02667 0.10051,-0.03514 0.0591,-0.01379 0.12516,-0.03164 0.17487,-0.06847 0.0187,-0.01362 0.0359,-0.0302 0.0552,-0.0438 0.0677,-0.04528 0.14393,-0.07694 0.21294,-0.120008 0.10417,-0.06479 0.18185,-0.16105 0.25456,-0.259521 0.0296,-0.07344 0.0711,-0.138779 0.1071,-0.210009 0.008,-0.01658 0.0145,-0.03238 0.018,-0.04951"
       style="fill:#21201d;fill-opacity:1;fill-rule:nonzero;stroke:none;stroke-width:0.184057"
       id="path742" />
    <path
       d="m 481.28065,56.092215 c -0.004,7.05e-4 -0.005,0.0021 -0.007,0.0028 l 0.0935,-0.02448 c -0.004,0 -0.004,7.06e-4 -0.006,7.06e-4 -0.0282,0.0057 -0.0539,0.0094 -0.0799,0.02081"
       style="fill:#21201d;fill-opacity:1;fill-rule:nonzero;stroke:none;stroke-width:0.184057"
       id="path744" />
    <path
       d="m 482.65021,60.653356 c 0.004,-0.0035 0.004,-0.0065 0.008,-0.01069 -0.006,0.0035 -0.0106,0.0079 -0.0159,0.01143 0,0.0044 -0.004,0.0086 -0.004,0.01305 0.004,-0.0044 0.007,-0.0094 0.0106,-0.01379"
       style="fill:#21201d;fill-opacity:1;fill-rule:nonzero;stroke:none;stroke-width:0.184057"
       id="path746" />
    <path
       d="m 482.88614,53.516143 c 0.004,0.0014 0.006,0.0028 0.008,0.005 -0.004,-0.0021 -0.004,-0.0028 -0.004,-0.0035 z"
       style="fill:#21201d;fill-opacity:1;fill-rule:nonzero;stroke:none;stroke-width:0.184057"
       id="path748" />
    <path
       d="m 484.34555,55.476173 c 0,-0.158288 -0.01,0.03443 -0.0286,-0.128838 l 0.0109,0.124421 c 0.004,-0.02226 0.01,-0.05172 0.018,0.0044"
       style="fill:#21201d;fill-opacity:1;fill-rule:nonzero;stroke:none;stroke-width:0.184057"
       id="path750" />
    <path
       d="m 484.1335,54.997993 c -0.03,-0.0302 -0.0374,-0.0381 -0.012,0.0057 0.0423,0.05172 0.007,-0.0065 0.012,-0.0057"
       style="fill:#21201d;fill-opacity:1;fill-rule:nonzero;stroke:none;stroke-width:0.184057"
       id="path752" />
    <path
       d="m 482.15342,53.097777 0.0102,-0.0059 0.007,-0.0028 c 0,-7.06e-4 -0.004,-0.0014 -0.004,-0.0021 -0.0559,-0.02596 -0.004,0.0057 -0.0138,0.01086"
       style="fill:#21201d;fill-opacity:1;fill-rule:nonzero;stroke:none;stroke-width:0.184057"
       id="path754" />
    <path
       d="m 481.36475,52.811569 c -0.0138,-0.0014 -0.0279,-0.0021 -0.0411,-0.0028 0.006,7.06e-4 0.0124,0.0014 0.0187,0.0021 z"
       style="fill:#21201d;fill-opacity:1;fill-rule:nonzero;stroke:none;stroke-width:0.184057"
       id="path756" />
    <path
       d="m 477.15022,54.28624 0.0244,0.005 c 0.0243,-0.02596 0.0159,-0.04675 -0.0244,-0.005"
       style="fill:#21201d;fill-opacity:1;fill-rule:nonzero;stroke:none;stroke-width:0.184057"
       id="path758" />
    <path
       d="m 476.32547,56.126081 c 0,0.0021 -0.004,0.005 -0.004,0.0065 -0.0124,0.01729 -0.0289,0.06681 -0.0282,0.0992 0.0109,-0.0381 0.0275,-0.07988 0.0318,-0.09847 0,-0.0028 0,-0.005 0,-0.0072"
       style="fill:#21201d;fill-opacity:1;fill-rule:nonzero;stroke:none;stroke-width:0.184057"
       id="path760" />
    <path
       d="m 478.89654,61.000673 0.0705,0.03238 -0.0317,-0.01803 z"
       style="fill:#21201d;fill-opacity:1;fill-rule:nonzero;stroke:none;stroke-width:0.184057"
       id="path762" />
  </g>
</svg>
