<?xml version="1.0" encoding="UTF-8" standalone="no"?>
<!-- Created with Inkscape (http://www.inkscape.org/) -->

<svg
   width="7.0739436mm"
   height="6.7223401mm"
   viewBox="0 0 7.0739436 6.7223401"
   version="1.1"
   id="svg4613"
   inkscape:version="1.1.2 (0a00cf5339, 2022-02-04)"
   sodipodi:docname="rte2.svg"
   xmlns:inkscape="http://www.inkscape.org/namespaces/inkscape"
   xmlns:sodipodi="http://sodipodi.sourceforge.net/DTD/sodipodi-0.dtd"
   xmlns="http://www.w3.org/2000/svg"
   xmlns:svg="http://www.w3.org/2000/svg">
  <sodipodi:namedview
     id="namedview4615"
     pagecolor="#ffffff"
     bordercolor="#666666"
     borderopacity="1.0"
     inkscape:pageshadow="2"
     inkscape:pageopacity="0.0"
     inkscape:pagecheckerboard="0"
     inkscape:document-units="mm"
     showgrid="false"
     inkscape:zoom="0.66368547"
     inkscape:cx="-1206.897"
     inkscape:cy="95.677852"
     inkscape:window-width="2560"
     inkscape:window-height="1376"
     inkscape:window-x="0"
     inkscape:window-y="0"
     inkscape:window-maximized="1"
     inkscape:current-layer="layer1" />
  <defs
     id="defs4610" />
  <g
     inkscape:label="Layer 1"
     inkscape:groupmode="layer"
     id="layer1"
     transform="translate(-424.2225,-123.01268)">
    <path
       d="m 427.96844,128.83148 c 7e-4,-0.0252 -0.004,-0.046 -0.008,-0.067 -0.003,-0.0151 -0.006,-0.0302 -0.006,-0.0468 -7.1e-4,-0.0164 7e-4,-0.0344 0.002,-0.0524 0.002,-0.0295 -0.15038,-0.42702 -0.17541,-0.41542 l -0.0267,0.0114 c -0.0272,0.0109 0.0351,0.17043 0.0366,0.18037 0.003,0.0101 -0.10492,0.20063 -0.097,0.21075 0.0344,0.0403 0.0344,0.13233 0.0344,0.16528 7.1e-4,0.0433 -0.0186,0.11725 -0.0193,0.1605 -7.1e-4,0.0144 -0.004,0.028 -0.007,0.0431 -0.004,0.0158 -0.006,0.0316 -0.008,0.0482 -7.1e-4,0.0144 -0.002,0.0201 -0.006,0.0309 -0.002,0.004 -0.004,0.01 -0.006,0.0178 -0.002,0.007 -0.004,0.0144 -0.005,0.0215 -0.004,0.0158 -0.006,0.0267 -0.0166,0.0388 -0.006,0.009 -0.0129,0.0165 -0.0193,0.0237 -0.0151,0.0173 -0.0302,0.0346 -0.0453,0.0611 -0.004,0.007 -0.0109,0.0188 -0.0158,0.0245 0,0 0,0 0,0 -0.004,-0.004 -0.0201,-0.0223 -0.0272,-0.0344 -0.0131,-0.0188 -0.0203,-0.0418 -0.0274,-0.0663 -0.009,-0.0309 -0.0186,-0.0624 -0.041,-0.092 -0.0223,-0.0287 -0.0401,-0.0604 -0.0596,-0.0933 -0.0107,-0.0195 -0.023,-0.0396 -0.0344,-0.0591 -0.0109,-0.0171 -0.0144,-0.0374 -0.0195,-0.0596 -0.004,-0.023 -0.009,-0.0467 -0.0215,-0.0697 -0.004,-0.008 -0.009,-0.0129 -0.0129,-0.0173 -10e-4,-0.002 -0.004,-0.004 -0.005,-0.005 -10e-4,-0.004 -0.004,-0.0143 -0.005,-0.0215 -10e-4,-0.008 -0.003,-0.0158 -0.005,-0.023 -0.004,-0.0116 -0.009,-0.0237 -0.0136,-0.0353 -0.007,-0.0144 -0.0124,-0.0272 -0.0138,-0.0394 -0.006,-0.0331 -0.0158,-0.0648 -0.0258,-0.0957 -0.006,-0.0201 -0.0131,-0.041 -0.0188,-0.0626 -0.004,-0.0129 -0.006,-0.0265 -0.008,-0.0403 -0.004,-0.0236 -0.009,-0.048 -0.0173,-0.0725 -0.005,-0.0129 -0.0107,-0.0267 -0.0171,-0.0396 -0.005,-0.0109 -0.0109,-0.0215 -0.0145,-0.0337 -0.0186,-0.0512 -0.0445,-0.0979 -0.0688,-0.14467 -0.0324,-0.0596 -0.0455,-0.11927 -0.0598,-0.18258 -0.008,-0.0337 -0.0151,-0.069 -0.0265,-0.10492 -0.0109,-0.0366 -0.0282,-0.0683 -0.0446,-0.0977 -0.0123,-0.023 -0.0245,-0.0455 -0.0339,-0.0698 -0.006,-0.0158 -0.0121,-0.0316 -0.0188,-0.0468 -0.0129,-0.0324 -0.0272,-0.067 -0.0366,-0.0999 -0.0136,-0.0438 -0.0316,-0.0878 -0.0475,-0.12866 l -0.0201,-0.0512 c -0.018,-0.0467 -0.0324,-0.0834 -0.0237,-0.12939 0.003,-0.0186 0.0116,-0.0403 0.0195,-0.0611 0.004,-0.0109 0.008,-0.0208 0.0114,-0.0294 0.008,-0.0208 0.009,-0.0374 0.009,-0.0517 0,-0.009 0,-0.018 0.002,-0.0267 0.001,-0.006 0.004,-0.0107 0.005,-0.0143 0.006,-0.0121 0.0109,-0.0252 0.0109,-0.049 0,-0.0151 0,-0.0302 0,-0.046 v -0.0237 c 0,-0.0164 -0.001,-0.0344 -0.003,-0.0532 -0.002,-0.0337 -0.004,-0.069 0.001,-0.0963 0.003,-0.0129 0.009,-0.0173 0.0316,-0.0287 0.0136,-0.006 0.0287,-0.0144 0.0438,-0.0274 0.0826,-0.0725 0.14522,-0.17688 0.20136,-0.27738 0.0626,-0.1108 0.0337,-0.24811 0.002,-0.36811 -0.005,-0.0203 -0.0114,-0.0396 -0.0179,-0.0591 -0.009,-0.0294 -0.018,-0.0567 -0.023,-0.0856 -0.0101,-0.0567 -0.044,-0.11707 -0.0712,-0.16308 -0.0166,-0.0274 -0.0374,-0.0504 -0.0569,-0.0734 -0.0136,-0.0166 -0.0265,-0.0316 -0.0387,-0.0482 -0.018,-0.025 -0.0158,-0.0272 0.0129,-0.0539 0.0144,-0.0136 0.0316,-0.0295 0.0445,-0.0525 0.0101,-0.0158 0.0158,-0.0316 0.0208,-0.0473 0.006,-0.0166 0.0109,-0.0316 0.0188,-0.044 0.0208,-0.0302 0.0295,-0.0445 0.0302,-0.0863 l 7.1e-4,-0.0179 c 0.002,-0.0445 0.004,-0.0942 -0.0223,-0.13731 -0.0295,-0.0482 -0.0346,-0.0848 -0.0346,-0.14743 0,-0.0188 0,-0.0497 0.009,-0.0604 10e-4,0 0.005,-0.004 0.0144,-0.004 0.001,0 0.006,0.003 0.009,0.004 0.008,0.004 0.0173,0.01 0.0295,0.0114 0.008,0.002 0.0158,0.002 0.0237,0.002 h 0.008 c 0.005,0.004 0.0114,0.0101 0.0215,0.0121 0.0129,0.003 0.026,0.002 0.0366,0 0.004,0 0.009,-0.002 0.0124,-0.002 0.009,0.002 0.0179,0.004 0.028,0.007 0.0116,0.003 0.026,0.007 0.0431,0.008 0.0353,0.002 0.0626,0.004 0.0942,0.0107 0.0438,0.009 0.0893,0.0223 0.13307,0.0353 l 0.0193,0.006 c 0.009,0.002 0.0195,0.006 0.0289,0.009 0.0374,0.0121 0.0804,0.0265 0.12221,0.0237 0.023,0 0.0416,-0.009 0.0545,-0.0237 0.0245,-0.0282 0.0217,-0.069 0.0188,-0.10584 -7.1e-4,-0.01 -0.001,-0.0193 -0.001,-0.0287 0,-0.007 7.1e-4,-0.018 0.002,-0.0302 0.004,-0.0618 0.0101,-0.1316 -0.0316,-0.15387 -0.0173,-0.009 -0.0403,-0.0121 -0.0633,-0.0144 -0.007,-0.002 -0.0144,-0.002 -0.0208,-0.004 -0.004,-0.004 -0.0114,-0.0107 -0.0223,-0.0129 -0.0144,-0.004 -0.0309,-0.002 -0.046,0 -0.006,0 -0.0109,0 -0.0151,0 h -0.0359 c -0.018,0 -0.0353,0 -0.0526,0 -0.009,0 -0.0144,-0.002 -0.023,-0.006 -0.008,-0.003 -0.0151,-0.006 -0.025,-0.009 -0.0131,-0.003 -0.0245,-0.002 -0.0339,0 -0.004,0 -0.009,0.002 -0.0114,0.002 -0.002,0 -0.006,-0.003 -0.0109,-0.004 -0.006,-0.004 -0.0129,-0.006 -0.0223,-0.008 -0.009,-0.002 -0.0166,-0.004 -0.0252,-0.006 -0.0179,-0.004 -0.0344,-0.006 -0.0495,-0.0151 l -0.0136,-0.009 c -0.0158,-0.008 -0.0309,-0.0178 -0.0467,-0.0251 -0.0145,-0.008 -0.0151,-0.009 -0.0224,-0.021 l -0.006,-0.0107 c -0.005,-0.008 -0.009,-0.0188 -0.0129,-0.0294 -0.007,-0.0151 -0.0136,-0.0316 -0.0237,-0.0447 -0.0215,-0.028 -0.0495,-0.0265 -0.069,-0.0258 h -0.0129 c -0.003,0 -0.007,0 -0.0116,0 -0.0121,-0.002 -0.0258,-0.002 -0.0381,0 -0.009,0.002 -0.0166,0.007 -0.0223,0.0121 -0.004,0 -0.006,0 -0.01,0 -0.0153,0.002 -0.0339,0.002 -0.0534,0.0166 -0.0144,0.0114 -0.0236,0.0265 -0.0315,0.0403 -0.005,0.008 -0.009,0.0158 -0.0138,0.0201 -0.009,0.008 -0.0158,0.0121 -0.0265,0.0188 -0.006,0.003 -0.0136,0.006 -0.0215,0.0114 -0.0145,0.0101 -0.0267,0.0208 -0.0396,0.0324 -0.0101,0.009 -0.0202,0.018 -0.0309,0.0252 -0.0136,0.01 -0.0281,0.0201 -0.041,0.0302 l -0.0166,0.0121 c -0.0351,0.028 -0.0639,0.0532 -0.092,0.0826 -0.0107,0.0109 -0.0309,0.0245 -0.046,0.0339 l -0.009,0.006 c -0.0346,0.0223 -0.0734,0.0482 -0.0893,0.0957 -0.0201,0.0639 0.0554,0.12498 0.12222,0.16602 l 0.006,0.004 c 0.041,0.0245 0.0972,0.0583 0.12663,0.0942 0.0265,0.0324 0.0309,0.0618 0.0166,0.0957 -0.0131,0.0309 -0.0525,0.0547 -0.09,0.0777 -0.0294,0.0171 -0.0552,0.0366 -0.0812,0.0552 l -0.0331,0.023 c -0.0144,0.0101 -0.0309,0.0195 -0.0473,0.0289 -0.0274,0.0158 -0.0554,0.0322 -0.0784,0.0517 l -0.0396,0.0359 0.0503,0.0173 c 0.0131,0.004 0.026,0.005 0.0368,0.005 0.006,0 0.0107,0 0.0158,0.002 0.004,0.002 0.008,0.003 0.0121,0.004 0.009,0.004 0.0223,0.007 0.0388,0.008 0.0302,0.002 0.0712,0.0129 0.0992,0.028 0.0316,0.0173 0.0876,0.0524 0.12074,0.097 0.0353,0.049 0.0663,0.10215 0.0957,0.16749 0.007,0.0166 0.0114,0.0396 0.0158,0.0618 0.002,0.0109 0.004,0.0217 0.006,0.0309 0.004,0.0144 0.008,0.0289 0.0114,0.044 0.006,0.0223 0.0131,0.0453 0.0173,0.0675 0.009,0.0567 -0.0166,0.12148 -0.0418,0.17891 -0.004,0.0101 -0.008,0.0203 -0.0121,0.0304 -0.009,0.025 -0.0173,0.0453 -0.0351,0.0646 -0.0195,0.0215 -0.026,0.0252 -0.0547,0.0316 -0.006,0.002 -0.0109,0.003 -0.0166,0.004 -0.0109,0.004 -0.0201,0.006 -0.0324,0.006 h -0.10271 c -0.006,0 -0.0116,-0.002 -0.0188,-0.004 -0.006,-0.002 -0.0121,-0.004 -0.0193,-0.006 l -0.0145,-0.004 c -0.0295,-0.005 -0.0525,-0.009 -0.0775,-0.0223 -0.006,-0.002 -0.0145,-0.009 -0.0225,-0.0166 -0.009,-0.008 -0.0201,-0.0171 -0.0322,-0.0236 -0.0109,-0.0447 -0.0116,-0.0482 -0.0123,-0.0519 l -0.004,-0.0178 -0.018,-0.006 c -0.0344,-0.01 -0.14153,-0.0215 -0.17908,0.0324 -0.0309,0.0446 0,0.12295 0.0217,0.16473 0.023,0.0468 0.0733,0.1351 0.14449,0.20063 0.0488,0.0445 0.0891,0.10123 0.12644,0.17964 0.049,0.10215 0.0727,0.20209 0.0742,0.31198 0,0.0281 0.004,0.0539 0.007,0.0799 0.003,0.0208 0.006,0.041 0.006,0.0626 7e-4,0.0151 0.005,0.0272 0.008,0.0374 10e-4,0.005 0.004,0.0109 0.004,0.0166 0.003,0.0166 0.003,0.0324 0.003,0.0482 7.1e-4,0.0186 7.1e-4,0.0366 0.003,0.0552 0.005,0.0346 0.0136,0.067 0.0216,0.0987 0.007,0.0294 0.0144,0.0567 0.0186,0.0847 10e-4,0.0116 0.003,0.023 0.004,0.0346 0.004,0.0339 0.008,0.0675 0.0186,0.0992 0.0151,0.0418 0.0374,0.0883 0.0576,0.12792 0.006,0.0144 0.0136,0.0289 0.0193,0.0425 0.0116,0.0252 0.0223,0.051 0.0381,0.0762 0.0445,0.0733 0.0863,0.14154 0.11798,0.21848 0.0129,0.0339 0.028,0.0662 0.0423,0.0986 0.0223,0.0473 0.0433,0.0926 0.0584,0.1408 0.0186,0.0561 0.0525,0.10363 0.0856,0.15038 0.0265,0.0366 0.0517,0.0711 0.0683,0.10915 0.004,0.009 0.009,0.0202 0.0151,0.0316 0.01,0.0203 0.0216,0.0433 0.0258,0.0604 0.004,0.0166 10e-4,0.0418 0,0.0648 -0.001,0.0136 -0.002,0.0272 -0.002,0.0396 10e-4,0.0891 0.0265,0.17541 0.051,0.25805 0.006,0.0201 0.0129,0.041 0.0188,0.0611 0.0136,0.0517 0.0545,0.18258 0.11927,0.2805 0.0374,0.056 0.0841,0.11706 0.16473,0.12222 0.005,0 0.009,0 0.0136,0 0.0329,0 0.0554,-0.01 0.0819,-0.0381 0.008,-0.008 0.0144,-0.0179 0.0215,-0.0272 0.008,-0.0121 0.0138,-0.0201 0.0195,-0.0215 0.0151,-0.003 0.0324,0.002 0.051,0.006 0.0317,0.009 0.0705,0.0195 0.10638,-0.009 0.0287,-0.0245 0.0324,-0.051 0.0353,-0.0718 7.1e-4,-0.006 0.002,-0.0116 0.003,-0.0173 0.004,-0.0151 0.0116,-0.0324 0.0195,-0.049 l 0.008,-0.0158 c 0.0143,-0.0329 0.0179,-0.0639 0.0208,-0.0933 0.002,-0.018 0.004,-0.0353 0.009,-0.0534 0.0144,-0.0567 0.0302,-0.11779 0.0423,-0.18111 0.004,-0.0166 0.008,-0.0331 0.0109,-0.0503 0.0129,-0.0554 0.026,-0.11375 0.0294,-0.16896 0.002,-0.0238 7.1e-4,-0.049 0,-0.0734 0,-0.0136 -7e-4,-0.028 -7e-4,-0.0416"
       style="fill:#21201d;fill-opacity:1;fill-rule:nonzero;stroke:none;stroke-width:0.184057"
       id="path648" />
    <path
       d="m 429.10866,126.56738 c -0.0272,-0.0287 -0.0453,-0.0388 -0.0869,-0.0381 -0.0166,0 -0.0353,0 -0.0547,0.003 -0.0445,0.002 -0.095,0.005 -0.13086,-0.005 -0.009,-0.003 -0.0193,-0.009 -0.0302,-0.0144 -0.009,-0.005 -0.0173,-0.009 -0.0252,-0.0129 -0.028,-0.0123 -0.0554,-0.0295 -0.0804,-0.0468 -0.0368,-0.0245 -0.0512,-0.0727 -0.0604,-0.11153 -0.002,-0.01 -0.007,-0.0215 -0.0109,-0.0322 l -0.004,-0.0109 c -10e-4,-0.004 -0.003,-0.008 -0.004,-0.0129 -0.002,-0.007 -0.004,-0.0138 -0.006,-0.0195 -0.0109,-0.0258 -0.0173,-0.0502 -0.0245,-0.0804 -0.0114,-0.0425 -0.0114,-0.12663 -0.004,-0.17043 0.008,-0.051 0.0423,-0.10786 0.074,-0.15811 0.0388,-0.0611 0.0791,-0.092 0.14448,-0.13086 0.0331,-0.0195 0.0576,-0.0316 0.0727,-0.0353 0.005,-0.002 0.0121,-0.002 0.0186,-0.002 0.0136,0 0.0359,-0.002 0.0482,-0.0201 0.0129,-0.0201 0.004,-0.0438 7.1e-4,-0.051 -0.009,-0.0274 -0.0295,-0.0453 -0.0467,-0.0618 l -0.0101,-0.009 c -0.0107,-0.0101 -0.0179,-0.023 -0.0258,-0.0366 -0.004,-0.006 -0.007,-0.0131 -0.0116,-0.0195 -0.008,-0.0129 -0.0188,-0.0245 -0.0294,-0.0359 -0.009,-0.009 -0.0188,-0.0195 -0.0238,-0.0267 -0.006,-0.0129 -0.0116,-0.0423 -0.0129,-0.0618 -0.003,-0.0503 0.0215,-0.0861 0.0517,-0.13142 l 0.0136,-0.0203 c 0.007,-0.0114 0.0173,-0.0237 0.0274,-0.0359 0.028,-0.0346 0.0596,-0.0733 0.0631,-0.11927 0.005,-0.0734 -0.0582,-0.12093 -0.10492,-0.15535 l -0.0136,-0.0109 c -0.0123,-0.0101 -0.0267,-0.0178 -0.0403,-0.0265 -0.0158,-0.009 -0.0309,-0.018 -0.0418,-0.0289 -0.005,-0.005 -0.009,-0.0107 -0.0136,-0.0164 -0.007,-0.009 -0.0136,-0.0188 -0.023,-0.0267 -0.0193,-0.018 -0.0445,-0.0346 -0.0661,-0.049 l -0.0353,-0.023 c -0.0171,-0.0107 -0.0322,-0.0201 -0.0473,-0.0344 -0.0361,-0.0331 -0.0626,-0.0403 -0.10215,-0.0517 -0.006,-0.002 -0.0116,-0.005 -0.0173,-0.008 -0.0121,-0.007 -0.0309,-0.018 -0.056,-0.0123 -0.0131,0.004 -0.0245,0.013 -0.0396,0.0267 -0.003,0.003 -0.006,0.005 -0.007,0.006 -0.0173,0.0136 -0.0353,0.0238 -0.0569,0.0339 -0.051,0.0223 -0.10565,0.0401 -0.16473,0.0545 -0.0186,0.005 -0.0387,0.008 -0.0582,0.0123 -0.0431,0.008 -0.0883,0.0158 -0.13013,0.0344 -0.0554,0.0252 -0.0589,0.0821 -0.0611,0.11651 -7e-4,0.0173 -0.004,0.0324 -0.007,0.0475 -0.002,0.009 -0.004,0.0173 -0.005,0.0265 -0.002,0.013 -10e-4,0.0245 -7.1e-4,0.0353 7.1e-4,0.008 7.1e-4,0.0151 7.1e-4,0.0201 -10e-4,0.007 -0.004,0.0144 -0.007,0.0216 -0.008,0.0217 -0.0166,0.0475 -0.009,0.0777 0.0171,0.0604 0.0861,0.0554 0.12295,0.0519 0.009,0 0.0158,0 0.0223,0 0.0215,0 0.0453,0 0.069,0.002 0.0554,0.003 0.11283,0.006 0.16528,-0.006 0.0381,-0.009 0.0792,-0.028 0.10639,-0.0416 0.009,-0.004 0.0202,-0.0109 0.0309,-0.018 0.0138,-0.0101 0.0309,-0.0208 0.041,-0.0223 0.0114,-0.003 0.0151,0 0.0165,0.002 0.0129,0.0107 0.0158,0.056 0.0173,0.0834 7.1e-4,0.018 0.002,0.0344 0.005,0.0468 0.006,0.028 0.0173,0.0525 0.028,0.0762 0.006,0.0121 0.0116,0.0245 0.0158,0.0374 0.001,0.004 0.002,0.0101 0.003,0.0165 0.001,0.01 0.002,0.0208 0.007,0.0317 0.006,0.0144 0.0158,0.0243 0.0237,0.0344 0.006,0.006 0.0107,0.0116 0.0136,0.0173 0.007,0.0136 0.0121,0.0272 0.0173,0.041 0.006,0.0164 0.0136,0.0329 0.0215,0.0488 0.009,0.0188 -0.004,0.0418 -0.0151,0.0589 -0.009,0.0123 -0.0173,0.0158 -0.0324,0.0217 -0.009,0.004 -0.0193,0.009 -0.0309,0.0158 -0.0201,0.0121 -0.0431,0.0344 -0.0611,0.0525 l -0.006,0.006 c -0.0166,0.0158 -0.0294,0.0339 -0.0425,0.051 -0.01,0.0144 -0.0208,0.0289 -0.033,0.041 -0.0215,0.0223 -0.0331,0.0445 -0.044,0.0661 -0.004,0.008 -0.008,0.0158 -0.0129,0.0245 -0.0344,0.0604 -0.0626,0.13381 -0.0797,0.21351 -10e-4,0.009 -0.004,0.0151 -0.007,0.0223 -0.004,0.0158 -0.008,0.0316 -0.01,0.0526 -10e-4,0.0344 0.004,0.0653 0.009,0.0948 10e-4,0.0109 0.004,0.0208 0.006,0.0316 0.006,0.0403 0.0151,0.0928 0.0366,0.13878 l 0.009,0.0173 c 0.0129,0.0287 0.026,0.0589 0.051,0.0841 l 0.0131,0.0129 c 0.0114,0.0121 0.0223,0.023 0.0329,0.0366 0.0396,0.046 0.11007,0.10215 0.17044,0.11651 0.009,0.002 0.0151,0.003 0.0208,0.004 0.0166,0.003 0.023,0.004 0.0396,0.0138 0.0202,0.0114 0.0403,0.0171 0.0584,0.0223 0.0178,0.005 0.0337,0.009 0.046,0.0178 0.008,0.006 0.0164,0.0116 0.0265,0.018 0.0274,0.018 0.0604,0.0396 0.0604,0.0626 0,0.0267 -0.0186,0.064 -0.0337,0.0935 l -0.007,0.0136 c -0.0136,0.028 -0.0186,0.0582 -0.0236,0.0863 -0.002,0.0173 -0.005,0.0329 -0.009,0.0488 -0.009,0.0302 -0.0195,0.0583 -0.0302,0.0878 -0.005,0.0136 -0.0101,0.0272 -0.0151,0.0416 -0.004,0.0131 -0.0123,0.0245 -0.0202,0.0375 -0.0114,0.0186 -0.0245,0.0394 -0.0309,0.0675 l -0.009,0.0396 c -0.006,0.0309 -0.0129,0.0611 -0.0201,0.0913 -10e-4,0.004 -0.004,0.009 -0.005,0.0129 -0.004,0.009 -0.008,0.0188 -0.009,0.0331 -7e-4,0.008 0,0.0158 0,0.0237 7.1e-4,0.006 0.001,0.0107 7.1e-4,0.0121 -0.001,0.002 -0.006,0.007 -0.009,0.0101 -0.006,0.006 -0.0109,0.0114 -0.0144,0.0166 -0.0173,0.025 -0.0245,0.048 -0.0309,0.0718 -10e-4,0.006 -0.004,0.0131 -0.005,0.0195 -0.005,0.0215 -0.0116,0.046 -0.0225,0.0589 -0.002,0.003 -0.0272,0.0245 -0.14945,-0.074 -0.0101,-0.009 -0.0195,-0.0173 -0.0287,-0.0267 -0.018,-0.0165 -0.0361,-0.0337 -0.0598,-0.0475 -0.0466,-0.028 -0.10123,-0.0381 -0.16528,-0.0294 -0.0238,0.002 -0.0445,0.009 -0.0653,0.0158 -0.0123,0.004 -0.0245,0.007 -0.0361,0.0101 -0.0245,0.006 -0.0532,0.004 -0.0812,0.004 -0.0274,-0.002 -0.0532,-0.002 -0.0799,0 -0.0265,0 -0.0532,0 -0.079,0 -0.023,-0.002 -0.0489,-0.008 -0.0742,-0.0151 -0.0114,-0.004 -0.0237,-0.006 -0.0351,-0.009 -0.0777,-0.018 -0.21719,-0.005 -0.27038,0.0812 l -0.009,0.0144 c -0.01,0.0166 -0.0151,0.026 -0.0287,0.0374 l -0.0129,0.0101 c -0.026,0.0208 -0.0497,0.0396 -0.0655,0.0762 -0.0287,0.0641 -0.0495,0.1719 -0.0302,0.25804 0.006,0.0282 0.0208,0.0547 0.0353,0.0799 0.006,0.0109 0.0129,0.0223 0.0179,0.0339 0.004,0.008 0.009,0.0186 0.0116,0.0295 0.008,0.0193 0.0151,0.0396 0.0251,0.0552 0.007,0.0109 0.0173,0.0188 0.0267,0.026 0.006,0.005 0.0121,0.009 0.0144,0.0136 0.006,0.007 0.009,0.0138 0.0116,0.021 0.002,0.006 0.005,0.0114 0.009,0.0186 0.0337,0.0655 0.0617,0.10859 0.1027,0.10786 h 0.0223 l 0.006,-0.0216 c 0.009,-0.0272 0.006,-0.0569 0.004,-0.0826 -7.1e-4,-0.0116 -10e-4,-0.023 -10e-4,-0.0331 7e-4,-0.0121 0.003,-0.0186 0.006,-0.028 0.002,-0.007 0.005,-0.0144 0.007,-0.0245 0.007,-0.0346 0.006,-0.0942 -0.0733,-0.12792 0.002,-0.003 0.004,-0.007 0.006,-0.0109 0.006,-0.0129 0.008,-0.0245 0.009,-0.0339 7.1e-4,-0.004 10e-4,-0.008 0.003,-0.0129 0.004,-0.0173 0.0136,-0.0359 0.0215,-0.0532 l 0.005,-0.0114 c 0.009,-0.0188 0.0144,-0.0375 0.0203,-0.0554 0.0107,-0.0361 0.0193,-0.0626 0.0473,-0.0834 0,0.002 0,0.002 0,0.003 0.003,0.0195 0.006,0.0252 0.0138,0.0403 0.005,0.0101 0.007,0.0188 0.01,0.0287 10e-4,0.006 0.003,0.0136 0.006,0.021 0.0145,0.0453 0.0425,0.0631 0.0641,0.071 0.0366,0.0131 0.0834,0.004 0.12737,-0.0237 0.0294,-0.0186 0.0409,-0.028 0.0589,-0.0596 l 0.005,-0.009 c 0.0116,-0.0201 0.0223,-0.0381 0.0324,-0.0611 l 0.005,-0.0121 c 0.002,-0.005 0.006,-0.0151 0.009,-0.0216 0.003,0.006 0.004,0.0151 0.006,0.0223 0.001,0.004 0.002,0.009 0.004,0.0136 0.0215,0.0784 0.0747,0.16031 0.16455,0.15681 0.023,0 0.0309,-0.003 0.044,-0.0123 0.003,-0.002 0.005,-0.004 0.009,-0.006 0.005,-0.003 0.01,-0.005 0.0151,-0.007 0.006,-0.003 0.0144,-0.006 0.0208,-0.0101 0.0223,-0.0121 0.0366,-0.0309 0.0495,-0.0475 0.007,-0.007 0.013,-0.0158 0.021,-0.023 7.1e-4,0.0195 -0.004,0.0339 -0.009,0.0532 l -0.004,0.0151 c -0.0158,0.0569 -0.0309,0.12442 -0.0309,0.19712 0,0.008 -7e-4,0.0166 -10e-4,0.0257 -10e-4,0.021 -0.003,0.0447 0.002,0.0663 0.002,0.0121 0.008,0.0208 0.0116,0.0272 0.002,0.004 0.003,0.006 0.004,0.007 7.1e-4,0.005 0,0.0158 -7e-4,0.0237 -7.1e-4,0.006 -7.1e-4,0.0129 -7.1e-4,0.0188 0,0.0151 -7e-4,0.0302 -7e-4,0.0453 -10e-4,0.051 -0.004,0.10343 0.009,0.15387 0.006,0.0257 0.01,0.0524 0.0136,0.079 10e-4,0.013 0.004,0.026 0.006,0.0381 0.004,0.0225 0.006,0.0447 0.009,0.0677 0.004,0.0315 0.008,0.0631 0.0136,0.0948 0.0101,0.0482 0.009,0.10142 0.008,0.15314 -7.1e-4,0.018 -7.1e-4,0.0353 -7.1e-4,0.0524 l -7.1e-4,0.0304 c 0,0.0208 0,0.0409 7.1e-4,0.0617 0,0.0195 -0.004,0.0368 -0.009,0.0569 -0.002,0.0101 -0.004,0.0201 -0.006,0.0295 -0.007,0.0453 -0.15957,0.19565 -0.18479,0.24443 -0.0272,0.0561 -0.0416,0.27185 -0.026,0.2805 0.009,0.004 0.33719,-0.29118 0.35817,-0.33296 0.0223,-0.0468 0.0488,-0.11927 0.0559,-0.18332 10e-4,-0.0158 0.004,-0.0309 0.007,-0.046 0.002,-0.0121 0.004,-0.0245 0.006,-0.0374 10e-4,-0.007 0.004,-0.0144 0.006,-0.0215 0.004,-0.0109 0.007,-0.023 0.009,-0.0366 0.001,-0.0109 0.001,-0.0203 7.1e-4,-0.0304 0,-0.009 -7.1e-4,-0.0178 10e-4,-0.0258 0.0151,-0.0697 0.0131,-0.14172 0.0123,-0.21148 -7e-4,-0.0193 -7e-4,-0.0388 -7e-4,-0.0582 v -0.27038 c 0,-0.0193 -10e-4,-0.0396 -0.002,-0.0604 -0.003,-0.0431 -0.005,-0.0876 0.002,-0.12295 0.001,-0.004 0.004,-0.009 0.005,-0.0136 0.004,-0.009 0.008,-0.0188 0.009,-0.0309 0.001,-0.0116 0,-0.0216 -10e-4,-0.0309 -7e-4,-0.004 -0.001,-0.0116 -7e-4,-0.0144 10e-4,-0.006 0.0138,-0.0158 0.021,-0.023 0.005,-0.004 0.01,-0.009 0.0136,-0.0123 0.0107,-0.0107 0.0208,-0.0216 0.0309,-0.0329 0.0186,-0.0203 0.0381,-0.041 0.0582,-0.0569 0.0353,-0.0272 0.0784,-0.0574 0.12221,-0.0841 0.0626,-0.0374 0.0871,-0.0712 0.11725,-0.13234 0.0129,-0.0243 0.0151,-0.0416 0.0173,-0.0604 7.1e-4,-0.006 0.001,-0.0114 0.003,-0.0178 0.004,-0.0245 0.0188,-0.0576 0.0309,-0.0856 0.006,-0.0116 0.0109,-0.0237 0.0151,-0.0346 l 0.007,-0.0178 c 0.0123,-0.0289 0.0237,-0.0584 0.0368,-0.0863 l 0.004,-0.009 c 0.009,-0.0215 0.0188,-0.0418 0.0252,-0.0661 0.003,-0.013 0.004,-0.0252 0.006,-0.0381 0.001,-0.0138 0.003,-0.026 0.007,-0.0375 0.0331,-0.0841 0.0641,-0.17393 0.0648,-0.26817 7.1e-4,-0.0193 0.004,-0.0374 0.007,-0.0567 0.003,-0.0173 0.006,-0.0339 0.008,-0.0525 0.003,-0.049 0.008,-0.0878 0.0158,-0.12885 0.005,-0.025 0.0144,-0.048 0.0237,-0.0732 0.0144,-0.0396 0.0302,-0.0799 0.0302,-0.13013 v -0.007 c 0,-0.0302 0,-0.0525 -0.0296,-0.0841"
       style="fill:#21201d;fill-opacity:1;fill-rule:nonzero;stroke:none;stroke-width:0.184057"
       id="path650" />
    <path
       d="m 428.62496,124.51477 c 0.002,0.0186 0.0539,0.0416 0.0676,0.0596 0.006,0.008 0.007,0.0193 0.0136,0.0287 0.007,0.0101 0.0193,0.0173 0.028,0.0267 0.0215,0.0265 0.046,0.0473 0.0705,0.0718 0.0195,0.0188 0.0374,0.0468 0.0589,0.0633 0.0504,0.0381 0.11227,0.0661 0.17043,0.092 0.0331,0.0136 0.0633,0.023 0.0985,0.0238 0.0475,0.002 0.0433,-0.0116 0.0425,-0.0561 0,-0.0337 0.0121,-0.0596 0.0215,-0.092 0.009,-0.0324 0.0116,-0.0698 0.0237,-0.10216 0.0114,-0.0287 0.0302,-0.051 0.0396,-0.0812 0.007,-0.0245 0.0193,-0.0495 0.0317,-0.0733 0.0237,-0.0475 0.0567,-0.0791 0.0913,-0.11945 0.0186,-0.0223 0.0337,-0.0468 0.0539,-0.0683 0.0258,-0.028 0.0366,-0.028 0.0769,-0.028 0.0646,0 0.11504,0 0.1697,0.028 0.0596,0.0309 0.10491,0.0683 0.14448,0.12443 0.0158,0.0223 0.0238,0.046 0.0381,0.0675 0.0201,0.0316 0.0547,0.0675 0.0812,0.0942 0.0208,0.0208 0.0418,0.0374 0.0596,0.0611 0.0131,0.0166 0.0274,0.0316 0.0403,0.0488 0.0136,0.018 0.026,0.0245 0.0418,0.041 0.051,0.0517 0.0948,0.0999 0.17246,0.0992 0.0663,0 0.1316,0 0.19694,0 0.0799,0.002 0.15976,-0.0121 0.22583,-0.0561 0.0791,-0.0532 0.15756,-0.0999 0.22584,-0.16878 0.046,-0.0467 0.0913,-0.0935 0.13436,-0.1432 0.0497,-0.0554 0.0777,-0.12369 0.11283,-0.18829 0.0388,-0.0712 0.0526,-0.15387 0.0655,-0.23375 0.0107,-0.0633 0.006,-0.12295 0.0114,-0.18627 0.003,-0.028 0.0138,-0.0539 0.0151,-0.0812 10e-4,-0.0237 0,-0.0475 0,-0.0705 0,-0.0784 0.0101,-0.15387 0.0245,-0.23081 0.007,-0.0366 7e-4,-0.074 0.006,-0.11062 0.006,-0.0425 0.0123,-0.0814 0.0116,-0.12442 -7.1e-4,-0.0633 0.0136,-0.14743 -0.002,-0.20854 -0.0482,0.0433 -0.0791,0.11872 -0.11061,0.17264 -0.041,0.069 -0.0799,0.14081 -0.0992,0.21922 -0.026,0.11006 -0.0705,0.2078 -0.10933,0.31345 -0.041,0.11283 -0.0762,0.23081 -0.13878,0.33443 -0.0188,0.0302 -0.0453,0.0539 -0.0618,0.0854 -0.0166,0.0304 -0.0346,0.0526 -0.0569,0.0784 -0.0467,0.0554 -0.0683,0.13381 -0.11927,0.1848 -0.0517,0.0532 -0.12443,0.0705 -0.19841,0.0618 -0.0641,-0.007 -0.1467,-0.0416 -0.16897,-0.10639 -0.0123,-0.0331 -0.006,-0.0697 -0.006,-0.10564 -7e-4,-0.0425 0.0179,-0.0618 0.0352,-0.0985 0.0374,-0.0784 0.0935,-0.15314 0.14448,-0.22585 0.0641,-0.092 0.10491,-0.1905 0.1373,-0.29762 0.0173,-0.0583 0.023,-0.11283 0.0361,-0.1697 0.007,-0.0331 -7.1e-4,-0.0747 -7.1e-4,-0.10933 0,-0.0215 0.004,-0.0502 -0.003,-0.0712 -0.0215,0 -0.0339,0.0519 -0.0423,0.0692 -0.0188,0.0344 -0.0512,0.0668 -0.0742,0.0985 -0.0524,0.0718 -0.10712,0.14007 -0.15958,0.21203 -0.0445,0.0619 -0.0891,0.12222 -0.13362,0.18332 -0.0232,0.0316 -0.0539,0.0482 -0.0813,0.074 -0.0193,0.018 -0.0331,0.041 -0.0554,0.0569 -0.0539,0.0366 -0.10344,0.0668 -0.17026,0.0668 -0.0655,0 -0.1338,-0.0359 -0.19417,-0.0604 -0.0208,-0.008 -0.0418,-0.0265 -0.0633,-0.0344 -0.0129,-0.006 -0.0265,-0.008 -0.0396,-0.0138 -0.006,-0.003 -0.0114,-0.0136 -0.0158,-0.0157 -0.009,-0.004 -0.0193,0 -0.0258,-0.002 -0.0188,-0.009 -0.0433,-0.0267 -0.0598,-0.0388 -0.0193,-0.0143 -0.0445,-0.0374 -0.0567,-0.0569 -0.0418,-0.0626 -0.0223,-0.15093 -0.0238,-0.22565 -7e-4,-0.0317 -0.0121,-0.0569 -0.0151,-0.0871 -0.004,-0.0366 0,-0.0769 7e-4,-0.11356 0,-0.0353 -0.007,-0.0604 -0.0129,-0.0935 -0.006,-0.0309 0.002,-0.0589 -0.0166,-0.0863 0.01,0.072 -0.0281,0.15037 -0.0561,0.21424 -0.0267,0.0626 -0.0582,0.12663 -0.0812,0.19068 -0.0166,0.0466 -0.0453,0.0854 -0.0705,0.12719 -0.0309,0.051 -0.0583,0.10141 -0.0942,0.1489 -0.0712,0.0963 -0.11853,0.20836 -0.20412,0.29173 -0.0519,0.0497 -0.10289,0.10363 -0.13951,0.16621 -0.0166,0.0287 -0.0353,0.0725 -0.0438,0.10491 -0.004,0.0136 -0.0188,0.0517 -0.0151,0.0504"
       style="fill:#21201d;fill-opacity:1;fill-rule:nonzero;stroke:none;stroke-width:0.184057"
       id="path652" />
    <path
       d="m 426.63476,124.60533 c -0.004,-0.0216 -0.0374,-0.0316 -0.0532,-0.046 -0.0144,-0.0136 -0.0252,-0.0295 -0.0374,-0.0445 -0.0438,-0.0532 -0.0727,-0.1051 -0.10289,-0.16621 -0.0611,-0.12221 -0.0913,-0.26375 -0.12718,-0.39314 -0.0158,-0.0561 -0.0547,-0.10363 -0.072,-0.15829 -0.005,-0.018 -0.002,-0.0295 -0.0107,-0.046 -0.007,-0.0129 -0.0173,-0.023 -0.0237,-0.0374 -0.009,-0.0223 -0.023,-0.046 -0.0316,-0.0676 -0.0101,-0.0245 -0.0144,-0.0504 -0.0267,-0.0769 -0.009,-0.0203 -0.0186,-0.041 -0.023,-0.0626 -0.005,-0.023 0.003,-0.0497 0,-0.074 -0.004,-0.0294 -0.0129,-0.0532 -0.025,-0.0821 -0.007,-0.0171 -0.004,-0.0381 -0.0274,-0.0416 -0.0144,0.0718 -0.0668,0.13583 -0.074,0.20982 -0.003,0.0403 -0.0188,0.0792 -0.0274,0.11651 -0.008,0.0353 -0.0144,0.0569 -0.0144,0.0957 0,0.0324 0.008,0.048 0.0144,0.0769 0.006,0.0272 -7.1e-4,0.0631 -7.1e-4,0.092 7.1e-4,0.0517 -0.0153,0.11136 -0.0554,0.14799 -0.0418,0.0381 -0.1165,0.0655 -0.17043,0.0777 -0.0302,0.007 -0.0596,0.0245 -0.0913,0.0281 -0.0445,0.006 -0.0893,0.0151 -0.1338,0.0265 -0.0547,0.0144 -0.13731,0.0309 -0.19842,0.0173 -0.0186,-0.004 -0.0258,-0.0195 -0.0416,-0.0267 -0.0166,-0.008 -0.0317,-0.006 -0.0482,-0.0171 -0.0215,-0.0143 -0.0438,-0.0302 -0.0655,-0.0453 -0.025,-0.0173 -0.046,-0.049 -0.0639,-0.0742 -0.0324,-0.0445 -0.0561,-0.0819 -0.0698,-0.13583 -0.0144,-0.0547 -0.0136,-0.11283 -0.0245,-0.16823 -0.0136,-0.0727 -0.026,-0.1524 -0.0245,-0.22584 0,-0.0329 0,-0.0661 0,-0.0992 0,-0.0121 0.007,-0.0525 -7e-4,-0.0626 -0.0215,-0.0287 -0.0488,0.008 -0.0547,0.0296 -0.025,0.0913 -0.0438,0.17816 -0.0438,0.27737 0,0.0957 -0.006,0.19418 0,0.28989 0.002,0.0344 0.0188,0.0631 0.0267,0.0955 0.009,0.0351 0.0166,0.0675 0.028,0.0985 0.0245,0.0618 0.0223,0.12369 -0.0295,0.17191 -0.0381,0.0352 -0.11503,0.018 -0.15829,0.003 -0.0228,-0.009 -0.0574,-0.0351 -0.0747,-0.0545 -0.0337,-0.0381 -0.0653,-0.0762 -0.0948,-0.12093 -0.0433,-0.0631 -0.0742,-0.13289 -0.10712,-0.20191 -0.0309,-0.067 -0.0376,-0.13731 -0.0606,-0.20559 -0.025,-0.0727 -0.0401,-0.14743 -0.0545,-0.22087 -0.0109,-0.0547 -0.0339,-0.10915 -0.0396,-0.16308 -0.006,-0.0547 -0.0136,-0.10436 -0.0136,-0.16105 0,-0.0576 -0.006,-0.11227 -0.0173,-0.16767 -0.0287,0.002 -0.0467,0.13233 -0.0504,0.15387 -0.0193,0.12737 -0.0164,0.25308 -0.0171,0.38192 -10e-4,0.10988 0.0401,0.21203 0.0703,0.31621 0.0302,0.10289 0.0547,0.2021 0.092,0.30277 0.0547,0.14302 0.13455,0.27756 0.25455,0.3753 0.0834,0.0675 0.16473,0.14817 0.26026,0.19492 0.10067,0.0502 0.21424,0.0374 0.3243,0.0374 0.0223,0 0.049,0.004 0.0712,0 0.0265,-0.004 0.0503,-0.023 0.0777,-0.0281 0.0467,-0.009 0.0928,-0.0193 0.1329,-0.0468 0.0381,-0.0258 0.0777,-0.0438 0.10638,-0.0812 0.0195,-0.0245 0.0467,-0.0468 0.064,-0.074 0.0195,-0.0304 0.023,-0.0497 0.0525,-0.0712 0.0316,-0.023 0.0618,-0.0504 0.0935,-0.0683 0.0388,-0.0223 0.12,-0.0216 0.16473,-0.0131 0.0193,0.003 0.0567,0.0138 0.071,0.0282 0.0195,0.0186 0.0203,0.0567 0.0267,0.0819 0.009,0.0309 0.0121,0.0569 0.0136,0.0885 0.002,0.0251 0.0116,0.0453 0.0151,0.0703 0.002,0.0245 0.0129,0.0453 0.0136,0.0705 10e-4,0.0294 0.005,0.049 0.0158,0.0777 0.023,0.0604 0.0611,0.0596 0.10712,0.0891 0.0158,-0.0201 0.0381,-0.0186 0.0611,-0.0258 0.0223,-0.007 0.0381,-0.018 0.0591,-0.0287 0.0466,-0.0237 0.0861,-0.0526 0.13141,-0.0784 0.0712,-0.041 0.14172,-0.0826 0.13307,-0.16105"
       style="fill:#21201d;fill-opacity:1;fill-rule:nonzero;stroke:none;stroke-width:0.184057"
       id="path654" />
  </g>
</svg>
