<?xml version="1.0" encoding="UTF-8" standalone="no"?>
<!-- Created with Inkscape (http://www.inkscape.org/) -->

<svg
   width="6.7267179mm"
   height="8.2811623mm"
   viewBox="0 0 6.7267179 8.2811623"
   version="1.1"
   id="svg4767"
   inkscape:version="1.1.2 (0a00cf5339, 2022-02-04)"
   sodipodi:docname="rte3.svg"
   xmlns:inkscape="http://www.inkscape.org/namespaces/inkscape"
   xmlns:sodipodi="http://sodipodi.sourceforge.net/DTD/sodipodi-0.dtd"
   xmlns="http://www.w3.org/2000/svg"
   xmlns:svg="http://www.w3.org/2000/svg">
  <sodipodi:namedview
     id="namedview4769"
     pagecolor="#ffffff"
     bordercolor="#666666"
     borderopacity="1.0"
     inkscape:pageshadow="2"
     inkscape:pageopacity="0.0"
     inkscape:pagecheckerboard="0"
     inkscape:document-units="mm"
     showgrid="false"
     inkscape:zoom="0.66368547"
     inkscape:cx="12.053903"
     inkscape:cy="15.820747"
     inkscape:window-width="2560"
     inkscape:window-height="1376"
     inkscape:window-x="0"
     inkscape:window-y="0"
     inkscape:window-maximized="1"
     inkscape:current-layer="layer1" />
  <defs
     id="defs4764" />
  <g
     inkscape:label="Layer 1"
     inkscape:groupmode="layer"
     id="layer1"
     transform="translate(-101.48412,-144.35942)">
    <path
       d="m 104.78717,144.35944 c -0.0482,-0.002 -0.0942,0.13013 -0.10639,0.16823 -0.0381,0.11853 -0.0208,0.26247 -0.0403,0.38671 -0.0229,0.15037 -0.051,0.29412 -0.0517,0.44431 0,0.1259 -0.0512,0.23155 -0.046,0.35891 0.01,0.28603 -0.0648,0.58163 -0.0791,0.86765 -0.0152,0.29063 -0.0482,0.58605 -0.0497,0.87649 0,0.17467 0.0229,0.33866 0.0497,0.50984 0.0113,0.0725 0.008,0.14669 0.0201,0.21921 0.0152,0.0935 0.0504,0.17762 0.0591,0.27186 0.0138,0.14153 0.0653,0.28253 0.0589,0.42627 -0.004,0.092 -0.031,0.17394 -0.0272,0.26744 0.004,0.0893 0.018,0.17835 0.0187,0.26817 0,0.13087 0.0116,0.26468 0.004,0.39407 -0.0123,0.16455 0.0194,0.31345 0.0431,0.47818 0.0229,0.15737 -0.0409,0.29891 -0.0215,0.46217 0.005,0.0445 0.0359,0.21645 -0.0102,0.24167 -0.025,-0.0403 -0.0812,-0.0841 -0.11282,-0.12148 -0.0453,-0.0534 -0.0784,-0.0836 -0.11081,-0.1489 -0.0611,-0.1259 -0.13511,-0.19768 -0.22144,-0.30554 -0.10989,-0.1373 -0.21773,-0.28547 -0.3429,-0.4099 -0.11282,-0.11209 -0.13433,-0.28823 -0.23943,-0.40621 -0.0611,0.0158 -0.0834,0.19492 -0.10273,0.25234 -0.0368,0.10712 0.0258,0.19639 0.006,0.31143 -0.0201,0.11779 -0.0286,0.2494 -0.0222,0.36959 0.004,0.0517 0.14446,0.0502 0.16894,0.0905 0.15886,-0.0777 -0.0381,-0.33719 0.17322,-0.0813 0.19491,0.23523 0.31859,0.51849 0.45663,0.7931 0.10841,0.21572 0.21626,0.43144 0.32414,0.64715 0.0368,0.0725 0.0734,0.14449 0.10932,0.21701 0.0353,0.0734 0.0812,0.11651 0.12587,0.17982 0.0488,0.0668 0.0755,0.2264 0.15886,0.25235 0.0166,-0.074 0,-0.15829 0.008,-0.23449 0.0138,-0.11854 0.0113,-0.23136 0.0222,-0.34935 0.0208,-0.23301 0.0152,-0.46953 0.0403,-0.6996 0.0222,-0.19694 0.004,-0.40106 0.0145,-0.60021 0.006,-0.12093 0.0366,-0.24093 0.009,-0.36462 -0.0138,-0.0589 -0.0346,-0.1 -0.0374,-0.16105 -0.005,-0.0725 0.0155,-0.14743 0.0113,-0.22142 -0.0109,-0.16179 -0.0265,-0.33002 -0.0152,-0.49181 0.006,-0.0863 0.0418,-0.15958 0.0272,-0.24884 -0.0106,-0.0725 -0.0159,-0.12939 -0.0162,-0.20339 -0.004,-0.22363 -0.0275,-0.45296 -0.0584,-0.67439 -0.01,-0.0697 -0.0258,-0.13509 -0.0388,-0.20411 -0.018,-0.0979 0,-0.1848 -0.005,-0.28548 -0.004,-0.0942 -0.005,-0.18774 -0.004,-0.28253 0,-0.049 -0.0258,-0.18332 0.0152,-0.20633 0.0784,0.0819 0.1108,0.21922 0.16696,0.31916 0.0841,0.15019 0.21277,0.27535 0.29394,0.42554 0.0229,0.0433 0.0381,0.0814 0.0683,0.12093 0.007,0.008 0.0346,0.0136 0.0467,0.0287 0.0426,0.0517 0.0619,0.13234 0.0943,0.19124 0.0561,0.10491 0.13306,0.18332 0.187,0.29413 0.0208,0.0431 0.0335,0.11356 0.0883,0.10343 0.0425,-0.008 0.0661,-0.0928 0.0777,-0.12571 0.0325,-0.0871 0.0604,-0.17412 0.0935,-0.26044 0.0883,-0.2286 0.0453,-0.12148 0.0482,-0.37585 -0.0583,0.1559 -0.0769,-0.0935 -0.14965,0.0567 -0.0762,-0.009 -0.15681,-0.25658 -0.19268,-0.32855 -0.0517,-0.10418 -0.1366,-0.22437 -0.16105,-0.33793 -0.0222,-0.10491 -0.0517,-0.21847 -0.0898,-0.32284 -0.0173,-0.0475 -0.0475,-0.0797 -0.0589,-0.13086 -0.0123,-0.0567 -0.0123,-0.0869 -0.0411,-0.14228 -0.0504,-0.0979 -0.0977,-0.19639 -0.14743,-0.29486 -0.0489,-0.0955 -0.064,-0.18479 -0.10068,-0.284 -0.0646,-0.17044 -0.1222,-0.34511 -0.18478,-0.51683 -0.0468,-0.12958 -0.0495,-0.26394 -0.11208,-0.38266 -0.0187,-0.14302 0.0467,-0.25658 0.0777,-0.33131 0.0409,-0.10141 0.0697,-0.20706 0.0318,-0.31418 -0.049,-0.14099 -0.20137,-0.29265 -0.19988,-0.44505"
       style="fill:#21201d;fill-opacity:1;fill-rule:nonzero;stroke:none;stroke-width:0.184057"
       id="path764" />
    <path
       d="m 105.33934,146.04541 c 0.11134,-0.0166 0.27093,0.0769 0.36664,0.12792 0.18976,0.10215 0.37031,0.21645 0.56007,0.3164 0.15537,0.0812 0.29616,0.16252 0.44136,0.26099 0.11578,0.0797 0.15903,0.16326 0.23947,0.26818 0.0814,0.10564 0.15039,0.18037 0.18129,0.32357 0.0303,0.1351 0.0394,0.25308 0.0517,0.39112 0.0208,0.23155 0.23505,0.42996 0.27464,0.64696 0.01,0.0539 -0.004,0.10786 0.006,0.16105 0.008,0.0526 0.0411,0.0712 0.0517,0.11799 0.0236,0.10712 0.007,0.30774 -0.008,0.41634 -0.008,0.0596 -0.0353,0.11282 -0.0561,0.1697 -0.0109,0.0295 0.007,0.0574 -0.0102,0.0869 -0.0113,0.0188 -0.0423,0.0252 -0.0539,0.044 -0.0311,0.0503 -0.0208,0.0955 -0.0467,0.14725 -0.007,0.0144 -0.0488,0.023 -0.0604,0.0381 -0.0286,0.0374 -0.0446,0.0791 -0.0697,0.11945 -0.0567,0.0876 0,0.17615 -0.0646,0.25952 -0.0677,0.0883 -0.16397,0.2783 -0.16397,0.2783 l -0.17191,0.20412 c 0,0 -0.71966,0.71617 -0.92159,0.82182 -0.13233,0.069 -0.2503,0.15884 -0.38615,0.21277 -0.051,0.0201 -0.092,0.0287 -0.15018,0.0445 -0.041,0.0116 -0.15607,0.0388 -0.19417,0.0611 0.0718,-0.0431 0.15459,-0.0158 0.23227,-0.0329 0.0653,-0.0145 0.13014,-0.0302 0.19766,-0.0453 0.0955,-0.021 0.14376,-0.0376 0.2474,-0.0331 0.0906,0.003 0.12072,-0.0252 0.19544,-0.046 0.26526,-0.0755 0.54427,-0.0742 0.76937,-0.25602 0.12718,-0.10271 0.23153,-0.21498 0.30406,-0.35578 0.0539,-0.1051 0.12866,-0.16474 0.21425,-0.25106 0.19766,-0.20118 0.33443,-0.44505 0.52916,-0.64697 0.2122,-0.22086 0.29411,-0.62763 0.35229,-0.93041 0.0243,-0.13013 0.0109,-0.3048 0.008,-0.4364 -0.004,-0.1108 -0.0812,-0.14669 -0.0999,-0.24516 -0.0152,-0.072 0.006,-0.1697 0.007,-0.24296 0.006,-0.34308 -0.0948,-0.63353 -0.29192,-0.91827 -0.15018,-0.21774 -0.30187,-0.48812 -0.50321,-0.66426 -0.12865,-0.11283 -0.28899,-0.13584 -0.4421,-0.20283 -0.0527,-0.023 -0.0979,-0.0718 -0.15536,-0.0891 -0.10287,-0.0316 -0.22066,-0.0423 -0.32706,-0.0769 -0.11871,-0.0381 -0.18919,-0.0755 -0.31291,-0.0791 -0.0819,-0.003 -0.16454,-0.004 -0.24663,-0.005 -0.0804,-0.002 -0.1675,0.007 -0.24719,-0.004 -0.0878,-0.0114 -0.14319,-0.0495 -0.23594,-0.0624 -0.004,-0.0131 -0.005,-0.0267 -0.01,0.10565"
       style="fill:#21201d;fill-opacity:1;fill-rule:nonzero;stroke:none;stroke-width:0.184057"
       id="path766" />
    <path
       d="m 104.17888,146.0259 c 0.01,0.004 0.018,0.007 0.0275,0.0101 -0.0697,0.0806 -0.21,0.14742 -0.29633,0.17467 -0.0539,0.0173 -0.12368,0.0433 -0.18037,0.0547 -0.0275,0.006 -0.0554,-0.007 -0.0834,-0.004 -0.0497,0.008 -0.0655,0.0366 -0.10713,0.0453 -0.0784,0.0171 -0.1432,0.0193 -0.21791,0.0423 -0.0668,0.0195 -0.10217,0.0294 -0.16327,0.0589 -0.0388,0.0188 -0.0819,0.0217 -0.12368,0.046 -0.0481,0.0289 -0.0977,0.0648 -0.14669,0.0885 -0.10269,0.0503 -0.20267,0.11927 -0.27241,0.2286 -0.0569,0.0898 -0.0942,0.2078 -0.13953,0.3048 -0.0561,0.12019 -0.1222,0.25234 -0.16252,0.37474 -0.0453,0.13934 -0.12718,0.2667 -0.16306,0.41193 -0.0303,0.12221 -0.0705,0.24442 -0.09,0.37382 -0.0106,0.0755 0.0173,0.15884 0.007,0.23375 -0.013,0.0869 -0.0439,0.14228 -0.0418,0.23431 0,0.0668 0.0166,0.17191 0.004,0.23577 -0.0116,0.0532 -0.0368,0.0777 -0.0433,0.13731 -0.0166,0.14964 0.004,0.3164 0.005,0.46806 0,0.2956 0.0999,0.47321 0.29114,0.67586 0.0639,0.0676 0.12499,0.14099 0.1898,0.20707 0.0992,0.10215 0.18623,0.18479 0.28324,0.2805 0.0928,0.0906 0.18902,0.17025 0.28032,0.2667 0.0863,0.0913 0.22014,0.23155 0.32872,0.28032 0.11561,0.0526 0.22934,0.0814 0.35154,0.1108 0.0145,0.004 0.0265,0.0324 0.048,0.0388 0.0374,0.009 0.0878,-0.009 0.12591,-0.005 0.0589,0.007 0.14668,0.0386 0.19269,0.0841 -0.0898,0.0446 -0.26745,-0.10933 -0.35522,-0.13086 -0.0317,-0.008 -0.069,0.006 -0.10142,0 -0.0272,-0.005 -0.0321,-0.0368 -0.0632,-0.0445 -0.0885,-0.0238 -0.1603,0.0144 -0.24881,-0.0304 -0.0589,-0.0302 -0.13014,-0.0826 -0.18831,-0.10049 -0.0712,-0.0217 -0.15385,-0.0245 -0.22437,-0.0482 -0.10859,-0.0366 -0.20556,-0.0856 -0.29633,-0.17467 -0.0948,-0.0928 -0.21276,-0.15037 -0.32135,-0.23154 -0.0963,-0.072 -0.17392,-0.1848 -0.23576,-0.29192 -0.0683,-0.11798 -0.14376,-0.22289 -0.17247,-0.35229 -0.031,-0.14098 -0.0769,-0.30351 -0.1294,-0.4364 -0.0212,-0.0504 -0.0633,-0.14964 -0.0742,-0.19841 -0.0106,-0.0455 0,-0.0885 -0.009,-0.13234 -0.006,-0.0324 -0.03,-0.0339 -0.0342,-0.0547 -0.0332,-0.14375 -0.0992,-0.28327 -0.12516,-0.41984 -0.0272,-0.13952 -0.0187,-0.3129 -0.0138,-0.45665 0.004,-0.10785 0.0618,-0.1754 0.0819,-0.27756 0.025,-0.12497 0.041,-0.26026 0.0683,-0.38817 0.0339,-0.15811 0.0762,-0.31272 0.13014,-0.45518 0.0546,-0.14522 0.1108,-0.30903 0.1905,-0.43787 0.0613,-0.097 0.18055,-0.18259 0.26391,-0.25732 0.11359,-0.10215 0.2474,-0.16455 0.35874,-0.27111 0.13381,-0.12719 0.31859,-0.2056 0.48316,-0.27315 0.12295,-0.0502 0.27976,-0.13086 0.41632,-0.13012 0.16326,0.002 0.3278,-0.002 0.49181,-0.004 0.0819,0 0.164,0 0.24588,-0.002 0.0359,0 0.0906,-0.0123 0.12517,-0.004 0.051,0.0136 0.0574,0.0705 -0.16546,0.14375"
       style="fill:#21201d;fill-opacity:1;fill-rule:nonzero;stroke:none;stroke-width:0.184057"
       id="path768" />
  </g>
</svg>
