<?xml version="1.0" encoding="UTF-8" standalone="no"?>
<!-- Created with Inkscape (http://www.inkscape.org/) -->

<svg
   width="8.4800663mm"
   height="8.6655169mm"
   viewBox="0 0 8.4800663 8.6655169"
   version="1.1"
   id="svg3528"
   inkscape:version="1.1.2 (0a00cf5339, 2022-02-04)"
   sodipodi:docname="rtm1.svg"
   xmlns:inkscape="http://www.inkscape.org/namespaces/inkscape"
   xmlns:sodipodi="http://sodipodi.sourceforge.net/DTD/sodipodi-0.dtd"
   xmlns="http://www.w3.org/2000/svg"
   xmlns:svg="http://www.w3.org/2000/svg">
  <sodipodi:namedview
     id="namedview3530"
     pagecolor="#ffffff"
     bordercolor="#666666"
     borderopacity="1.0"
     inkscape:pageshadow="2"
     inkscape:pageopacity="0.0"
     inkscape:pagecheckerboard="0"
     inkscape:document-units="mm"
     showgrid="false"
     inkscape:zoom="0.64052329"
     inkscape:cx="15.612235"
     inkscape:cy="16.392847"
     inkscape:window-width="2560"
     inkscape:window-height="1376"
     inkscape:window-x="0"
     inkscape:window-y="0"
     inkscape:window-maximized="1"
     inkscape:current-layer="layer1" />
  <defs
     id="defs3525" />
  <g
     inkscape:label="Layer 1"
     inkscape:groupmode="layer"
     id="layer1"
     transform="translate(-100.6804,-144.166)">
    <path
       d="m 109.06433,147.5261 c 0.001,0.004 0.001,0.006 0.002,0.009 l -0.0203,-0.0331 c 0.006,0.008 0.0116,0.0153 0.018,0.0245 m -1.97142,4.74961 c 0.008,-0.006 0.0166,-0.0116 0.0267,-0.0193 0.006,-0.005 0.0143,-0.009 0.0223,-0.0158 0,-10e-4 0.001,-0.003 0.001,-0.004 -7.1e-4,0.004 -0.001,0.009 -0.005,0.0136 -0.009,0.007 -0.0151,0.0116 -0.0223,0.0158 -0.01,0.006 -0.0165,0.0101 -0.0215,0.0123 -0.006,5.7e-4 -0.0101,5.7e-4 -0.0129,0 0.003,-7.4e-4 0.006,-10e-4 0.0114,-0.003 m -0.66867,-0.72759 c -0.025,0.0374 -0.0696,0.097 -0.12074,0.0777 -0.0302,-0.0116 -0.0733,-0.0418 -0.0977,-0.0611 -0.0554,-0.0445 -0.10565,-0.12019 -0.14522,-0.17614 -0.0849,-0.12093 -0.15092,-0.24664 -0.26669,-0.34088 -0.0289,-0.0237 -0.0834,-0.11007 -0.0907,-0.12 -0.051,-0.0727 -0.0985,-0.14891 -0.15092,-0.22069 -0.095,-0.13031 -0.19418,-0.25823 -0.28971,-0.38836 -0.15681,-0.21351 -0.32504,-0.41561 -0.43934,-0.65562 -0.11577,-0.2424 -0.22492,-0.48904 -0.35578,-0.72334 -0.11227,-0.2021 -0.2805,-0.3545 -0.40198,-0.5485 -0.0475,-0.0764 -0.0762,-0.13233 -0.0683,-0.22087 -0.0267,0.0828 -0.0252,-0.009 -0.0418,-0.0359 -0.0171,-0.0287 -0.0423,-0.0468 -0.0547,-0.0791 -0.0201,-0.0554 -0.01,-0.1559 0.0109,-0.2113 0.0438,-0.11725 0.20485,-0.14246 0.31345,-0.1316 0.0977,0.009 0.20485,0.0554 0.29044,0.10215 0.0339,0.0186 0.0799,0.0329 0.10786,0.0618 0.018,0.0179 0.023,0.0374 0.0361,0.0589 0.0129,0.0223 0.0302,0.041 0.0445,0.0618 0.0309,0.0438 0.051,0.0935 0.0797,0.13878 0.0203,0.0294 0.0433,0.0574 0.0633,0.0863 0.0576,0.0826 0.10142,0.16749 0.14596,0.25731 0.0589,0.11853 0.14522,0.22437 0.19344,0.34805 0.0403,0.10197 0.0661,0.20909 0.11007,0.30977 0.0438,0.1 0.0948,0.20063 0.14577,0.29763 0.11154,0.21424 0.22437,0.42646 0.32431,0.64641 0.0871,0.19123 0.17338,0.40769 0.31565,0.5645 0.0582,0.0639 0.097,0.12719 0.13455,0.20486 0.0374,0.0784 0.0847,0.14669 0.10767,0.23081 0.0225,0.0782 0.046,0.15019 0.0848,0.22216 0.018,0.0329 0.0532,0.0747 0.0604,0.11209 0.0101,0.0497 -0.0186,0.0942 -0.0453,0.13233 m -2.59262,-4.94379 c -0.0401,-0.0423 -0.0725,-0.0826 -0.10491,-0.12939 -0.0193,-0.0287 -0.0438,-0.0804 -0.0725,-0.097 -0.0203,0.046 -0.0173,0.10068 -0.0331,0.1489 -0.0158,0.048 -0.0425,0.0926 -0.0547,0.14301 -0.0245,0.1 -0.0339,0.20136 -0.0569,0.30259 -0.0287,0.12167 -0.0344,0.23449 -0.0344,0.35892 0,0.0453 0.007,0.0941 7.1e-4,0.13951 -0.004,0.0294 -0.0195,0.0532 -0.0215,0.0841 -0.007,0.0963 -0.0101,0.18111 0.0468,0.26743 0.046,0.0703 0.0631,0.14946 0.0503,0.2286 -0.0121,0.0683 -0.0272,0.13013 -0.0166,0.19989 0.009,0.0539 0.0252,0.10712 0.0353,0.16105 0.007,0.0453 0.01,0.0935 0.0359,0.13436 0.0309,0.0482 0.0834,0.0806 0.12442,0.12148 0.046,0.0447 -0.10141,0.0648 -0.17411,-0.004 -0.0703,-0.0668 -0.14081,-0.13087 -0.23136,-0.17983 -0.0734,-0.0394 -0.11081,-0.11135 -0.1489,-0.17467 -0.0418,-0.0676 -0.0324,-0.16178 -0.046,-0.23651 -0.009,-0.0121 -0.0195,-0.0252 -0.0272,-0.0381 -0.0158,-0.0267 -0.023,-0.0554 -0.044,-0.0806 -0.0223,-0.0265 -0.0517,-0.046 -0.0718,-0.0747 -0.0281,-0.0396 -0.0368,-0.0812 -0.0519,-0.12295 -0.0171,-0.0502 -0.0453,-0.0898 -0.074,-0.1351 -0.0569,-0.0871 -0.072,-0.18976 -0.0935,-0.28621 -0.0208,-0.0928 -0.0423,-0.20191 -0.0144,-0.29541 0.009,-0.0302 0.0295,-0.0519 0.046,-0.0784 0.0438,-0.0733 0.0302,-0.18332 0.0158,-0.25805 -0.0237,-0.12663 -0.0201,-0.25308 0.0188,-0.37824 0.0186,-0.0633 0.0366,-0.12718 0.0574,-0.1905 0.007,-0.0215 0.018,-0.0755 0.0547,-0.0777 0.006,0.0653 0.0445,0.12222 0.0596,0.18903 0.0215,0.0928 0.0109,0.18203 0.0584,0.2667 0.0223,0.0388 0.0388,0.0799 0.0545,0.12166 0.0124,-0.0353 0.0238,-0.0712 0.0296,-0.10436 0.0144,-0.0819 0.0114,-0.16749 0.0164,-0.2494 0.004,-0.0698 -0.005,-0.15387 0.0237,-0.22013 0.0138,-0.0322 0.0252,-0.0733 0.0475,-0.10123 0.0353,-0.044 0.0576,-0.0756 0.0705,-0.13013 0.028,-0.12019 0.0784,-0.23155 0.0999,-0.35174 0.0109,-0.0617 0.0129,-0.14301 0.0668,-0.19197 0.008,-0.007 0.0309,-0.028 0.0425,-0.0287 0.0366,-0.002 0.023,0.0267 0.0272,0.0482 0.009,0.0388 0.0346,0.0755 0.0482,0.11283 0.041,0.11577 -0.026,0.23007 0.049,0.34364 0.10491,0.15755 0.38817,-0.23505 0.40749,-0.26818 0.0238,-0.0409 0.0316,-0.0848 0.0497,-0.12792 0.0265,-0.0661 0.0604,-0.13086 0.0884,-0.19694 0.0403,-0.0957 0.0569,-0.19639 0.0999,-0.29118 0.0215,-0.0482 0.067,-0.0992 0.10215,-0.14099 0.0267,-0.0309 0.0574,-0.0554 0.064,0.001 0.006,0.0525 -0.0123,0.10713 -0.0101,0.15958 0.003,0.0942 0.0188,0.19915 0.041,0.29118 0.0121,0.0497 0.0401,0.0957 0.0589,0.14302 0.0272,0.0697 0.041,0.14319 0.0698,0.21295 0.097,0.23504 0.13233,0.50174 0.3105,0.71028 0.0403,0.046 0.0878,0.0777 0.14099,0.11283 0.069,0.0455 0.10343,0.10068 0.13951,0.16547 0.0431,0.0797 0.0532,0.18037 0.13289,0.24295 0.0267,0.0208 0.0569,0.0366 0.0814,0.0589 0.0992,0.0935 0.16749,0.23744 0.19418,0.3567 0.0129,0.0561 0.01,0.11357 0.025,0.16971 0.0648,0.23154 0.0289,0.46879 0.0136,0.70457 -0.008,0.10712 -0.0352,0.21424 -0.0834,0.31051 -0.0171,0.0346 -0.0468,0.0828 -0.0755,0.1108 -0.002,0.003 -0.0883,-0.11577 -0.0955,-0.1259 -0.026,-0.0401 -0.0519,-0.094 -0.0648,-0.13859 -0.0201,-0.0734 -0.0525,-0.13952 -0.0863,-0.20928 -0.0416,-0.0871 -0.0769,-0.17338 -0.10639,-0.26246 -0.0287,-0.0848 -0.046,-0.17615 -0.0841,-0.25805 -0.0329,-0.0705 -0.0812,-0.13805 -0.12,-0.20633 -0.0626,-0.11007 -0.0871,-0.22731 -0.14302,-0.3394 -0.044,-0.0885 -0.10436,-0.17118 -0.1835,-0.24167 -0.0999,-0.0891 -0.12571,-0.18259 -0.15811,-0.30554 -0.0324,-0.12221 -0.0468,-0.25878 -0.10711,-0.37382 -0.0374,0.0129 -0.041,0.0819 -0.0517,0.11135 -0.0316,0.0885 -0.0655,0.17191 -0.0906,0.26174 -0.0202,0.0734 -0.0388,0.14669 -0.0554,0.22068 -0.007,0.0309 -0.0215,0.0633 -0.026,0.0942 -0.002,0.0158 0.003,0.0366 -0.009,0.0497 -0.0394,-7.4e-4 -0.0596,-0.0274 -0.0906,-0.044 -0.0258,-0.0144 -0.0488,-0.0208 -0.0769,-0.0307 -0.0567,-0.0195 -0.0718,-0.046 -0.10933,-0.0843 m 5.29603,1.89819 c -7e-4,0.028 -0.006,0.072 -0.0151,0.074 l -0.006,-0.0639 c -0.002,-7.4e-4 -0.004,-10e-4 -0.005,-0.003 v -0.0101 l -0.0445,-0.43493 0.0374,-0.31769 0.004,0.008 -0.002,-0.023 0.0116,-0.097 c 0.003,0.003 0.006,0.0123 0.005,0.0317 0.008,-0.0267 0.009,-0.0468 0.009,-0.0596 -0.013,-0.0173 -0.0237,-0.0274 -0.0346,-0.0618 -0.001,-0.007 0.001,-0.005 0.005,0 l -0.0416,-0.0561 c 0.0114,0.009 0.009,-0.0193 0.028,0.0195 -0.051,-0.1143 -0.11927,-0.16326 -0.12645,-0.21369 l 0.006,0.009 c -0.072,-0.10841 -0.0497,-0.0567 -0.0705,-0.0683 l -0.0121,-0.0201 -0.009,-0.0554 0.0208,-0.0641 -0.0208,-0.0136 c -0.003,-0.0173 -0.007,-0.0525 0.001,-0.0482 -0.0245,-0.0624 -0.006,0.0138 -0.0252,-0.0228 0.002,-0.0769 -0.0344,-0.19271 -0.0287,-0.24314 -0.001,-0.008 -0.001,-0.0136 7e-4,-0.0186 -0.0131,-0.0109 -0.007,0.006 -0.002,0.0193 0,0.0144 0,0.0238 -0.006,0.002 -0.004,-0.004 -0.009,-0.0109 -0.0144,-0.0203 0.0158,-0.0388 -0.0561,-0.0906 -0.0806,-0.16676 0.026,0.0131 0.0539,0.0827 0.0287,0.006 -0.0466,-0.028 -0.0675,-0.13731 -0.10417,-0.19271 -0.0193,0.007 -0.0804,-0.12001 -0.14375,-0.21204 0.007,7.4e-4 -0.0517,-0.10638 -0.10363,-0.20412 -0.0193,-0.0267 -0.0381,-0.0524 -0.0525,-0.072 h 0.005 c -0.0309,-0.002 -0.094,-0.0871 -0.14724,-0.14449 0.0129,-0.006 0.0258,0.001 0.0567,0.0302 l -0.046,-0.0561 c -0.0166,-0.009 -0.0337,-0.0243 -0.0653,-0.0589 l 0.0245,0.003 c -0.0166,-0.0195 -0.0309,-0.0353 -0.0512,-0.0576 -0.0611,-0.0517 -0.12074,-0.0977 -0.18259,-0.16897 -0.0107,0.004 0.0116,0.0482 -0.004,0.0512 l -0.049,-0.0467 c 0.006,-0.003 0.0136,-7.4e-4 0.028,0.01 -0.009,-0.007 -0.0337,-0.0237 -0.048,-0.0416 l 0.0488,0.0265 c -0.0374,-0.0445 -0.0302,-0.0121 -0.0618,-0.0445 0.009,-0.009 -0.0178,-0.0302 -0.007,-0.0317 0.009,0.006 0.0252,0.0309 0.041,0.0396 -0.0173,-0.0186 -0.0359,-0.0403 -0.0517,-0.0596 -0.0158,-0.0195 -0.0252,-0.0346 -0.0361,-0.0517 0,0.004 -0.001,0.006 -0.006,0.006 -0.006,0.002 -0.0223,-0.002 -0.0423,-0.0123 -0.0856,-0.0445 -0.0217,-0.028 -0.069,-0.0604 -0.0245,-0.003 -0.0749,-0.0403 -0.0849,-0.025 -0.0252,-0.0138 -0.0252,-0.0232 -0.0331,-0.0324 -0.0475,-0.0166 -0.20707,-0.10859 -0.16676,-0.0655 l 0.0107,0.007 c -0.003,-10e-4 -0.005,-0.002 -0.008,-0.004 -0.13289,-0.0611 -0.25584,-0.16399 -0.37953,-0.23872 -0.0144,-0.0101 -0.0287,-0.0215 -0.0431,-0.0317 l 0.004,-0.005 c -0.0812,-0.0539 -0.17394,-0.13013 -0.23652,-0.16326 -0.023,-0.0173 -0.0475,-0.0503 -0.0331,-0.049 -0.0173,-0.0114 -0.0316,-0.0208 -0.0438,-0.0287 -0.0396,-0.0166 -0.0596,-0.0252 -0.12736,-0.0676 0.072,0.0245 -0.0186,-0.0201 0.0727,0.028 -0.0849,-0.048 -0.0999,-0.0668 -0.19989,-0.0992 0.0381,0.002 -0.0569,-0.0503 -0.0999,-0.0668 l 0.0554,0.0403 c -0.018,-0.007 -0.0346,-0.0158 -0.0504,-0.0245 -0.0193,-0.009 -0.0381,-0.0195 -0.0567,-0.0287 -0.0151,0 -0.0302,7.4e-4 -0.0445,7.4e-4 0.006,-0.007 0.0208,-0.0145 0.0344,-0.0217 -0.0144,-7.4e-4 -0.0287,-10e-4 -0.0431,-10e-4 -0.0109,0 -0.0215,-5.6e-4 -0.0316,-5.6e-4 -0.0208,0 -0.041,0.001 -0.0618,0.003 -0.0396,0.003 -0.0784,0.008 -0.11504,0.0136 -0.0374,0.006 -0.0734,0.0116 -0.10859,0.0151 -0.0173,0.001 -0.0344,0.003 -0.0517,0.004 h -0.0252 l -0.0136,-7.4e-4 c -0.003,0 -0.004,0 -0.006,-7.4e-4 -0.002,-0.001 -0.0116,-0.004 -0.021,-0.008 -0.008,-0.004 -0.0171,-0.007 -0.0258,-0.0114 -0.0188,0.001 -0.0123,0.006 0.002,0.01 0.007,0.003 0.0158,0.005 0.025,0.008 0.004,0.001 0.009,0.003 0.0131,0.004 0.003,10e-4 0.004,0.002 0.006,0.003 0.006,0.001 0.0136,0.005 0.003,0.0101 h -0.004 l -0.0287,-0.008 c -0.0109,-0.003 -0.0217,-0.006 -0.0316,-0.0101 -0.021,-0.006 -0.0403,-0.0144 -0.0583,-0.0215 -0.0359,-0.0144 -0.0639,-0.0265 -0.0777,-0.0294 -0.1143,-0.0317 -0.11706,0.004 -0.22787,-0.0186 -0.006,-7.4e-4 -0.0151,-0.002 -0.0252,-0.003 0.0165,0.009 0.0309,0.0294 -0.0675,0.0294 -0.0906,-0.0101 -0.10915,-0.0396 -0.0517,-0.041 0.0223,10e-4 0.0324,0.004 0.0309,0.007 0.0302,-7.4e-4 0.069,-7.4e-4 0.0331,-0.0116 l -0.0123,0.006 c -0.0438,-0.0107 -0.1697,-0.0186 -0.13952,-0.0287 -0.069,0.003 -0.0302,0.0101 0.0203,0.0173 -0.0438,-0.007 -0.0814,-0.0101 -0.1165,-0.0131 -0.0339,-0.002 -0.0661,-0.004 -0.10289,-0.007 -0.01,-0.003 -0.0208,-0.005 -0.0315,-0.008 -0.0131,-0.003 -0.0267,-0.007 -0.0403,-0.0114 0.0178,0.009 0.0329,0.0208 0.0144,0.0166 -0.17044,-0.0475 -0.0791,-0.004 -0.19639,-0.0267 -0.0639,-0.0258 0.0296,-0.0208 -0.0898,-0.0381 -0.0705,-0.0237 -0.0107,-0.0223 0.0188,-0.0215 -0.0215,-0.002 -0.041,-0.006 -0.0604,-0.009 -0.009,-0.002 -0.0195,-0.004 -0.0281,-0.006 -0.0144,-0.004 -0.028,-0.007 -0.0416,-0.0109 -0.013,0.002 -0.0252,0.004 -0.0366,0.007 -0.007,0 -0.0151,7.4e-4 -0.0217,0.001 -0.0136,0.001 -0.0272,0.002 -0.0394,0.004 -0.026,0.002 -0.0482,0.003 -0.0677,0.007 l 0.0554,-0.0173 c -0.0331,0.0101 -0.0611,0.0158 -0.0891,0.0215 l 0.0351,0.007 c -0.0337,0.004 -0.0619,0.01 -0.0626,0.004 -0.0324,0.0158 0.0309,0.018 -0.0344,0.0446 -0.046,0.002 -0.13381,0.0353 -0.15313,0.0195 0.1408,-0.0217 -0.0188,-0.0158 0.0985,-0.0433 -0.0215,0.007 -0.0497,0.0123 -0.0834,0.0166 -0.006,-7.4e-4 0.004,-0.005 0.0121,-0.007 -0.0178,10e-4 -0.0324,0.002 -0.0438,0.004 -0.006,7.4e-4 -0.0109,0.002 -0.0151,0.003 -0.009,0.001 -0.0158,0.004 -0.0223,0.005 -0.009,0.005 -0.0166,0.009 -0.0203,0.0123 -0.003,0.003 -0.006,0.005 -0.008,0.007 -0.004,0.005 -0.008,0.0101 -0.0136,0.0158 -0.0107,0.0121 -0.0302,0.0265 -0.0769,0.0482 0.0116,-0.0173 -0.0381,-0.005 -0.0582,0.007 0.051,-0.0237 0.0324,0.005 -0.0116,0.0344 -0.0854,0.0302 -0.0861,0.0475 -0.12939,0.0663 l 0.0504,-0.0188 c -0.0123,0.018 -0.0539,0.0352 -0.10933,0.0653 -0.009,-0.006 0.049,-0.0294 0.0272,-0.0237 -0.0121,0.0109 -0.0309,0.021 -0.0423,0.0259 -0.0532,0.0136 -0.12939,0.0151 -0.19638,0.046 -0.0453,0.006 -0.01,-0.018 -0.0495,-0.0114 -0.0445,0.0193 -0.0727,0.0258 -0.0985,0.0302 -0.0131,0.002 -0.026,0.004 -0.0403,0.007 -0.007,7.4e-4 -0.0144,0.003 -0.0223,0.004 -0.004,0.001 -0.008,0.002 -0.0129,0.004 -0.007,0.002 -0.0144,0.004 -0.0223,0.007 -0.0225,0.0129 -0.0282,0.0173 -0.0418,0.0272 0.0359,-0.003 0.0388,-0.01 -0.0245,0.0425 l 0.0755,-0.0482 0.10712,-0.0381 -0.048,0.0245 -0.0252,0.0121 -0.0116,0.006 -0.0171,0.008 c -0.005,0.004 -0.013,0.009 -0.0158,0.0123 0.006,-0.004 0.0114,-0.006 0.0171,-0.0101 0.0203,-0.006 0.0289,-0.0101 0.0425,-0.0144 0.0121,-0.005 0.0237,-0.009 0.0352,-0.0144 0.023,-0.008 0.044,-0.0158 0.0591,-0.0195 -0.0519,0.0282 -0.0475,0.023 -0.018,0.0267 -0.041,0.001 -0.0712,0.0136 -0.11503,0.0309 -0.0396,0.0272 -0.0698,0.051 -0.11504,0.0683 l -0.0151,-0.0331 c -0.0497,0.0215 -0.0913,0.0467 -0.13233,0.0755 -0.0208,0.0138 -0.0423,0.0289 -0.0646,0.044 -0.0109,0.007 -0.0217,0.0151 -0.0339,0.0237 l -0.018,0.0114 c -0.007,0.004 -0.0144,0.009 -0.0223,0.0136 -0.0136,0.0116 -0.0265,0.023 -0.0416,0.0361 -0.0131,0.0107 -0.0274,0.0223 -0.0425,0.0337 l 0.0475,-0.0317 c -0.009,0.026 -0.0826,0.0712 -0.12221,0.11228 -0.004,-0.0123 -0.0339,0.007 -0.0574,0.0166 0.008,0.005 -0.0999,0.0819 -0.0972,0.11136 l -0.0114,0.006 c -0.004,0.002 -0.005,0.002 -0.007,0.003 -0.003,7.4e-4 -0.004,0 -0.009,10e-4 l -0.0123,0.004 -0.0258,0.007 c -0.13087,0.0576 -0.13013,0.10288 -0.25455,0.16105 0.0309,-0.0302 -0.0287,-0.01 0.049,-0.0596 -0.041,0.0201 -0.0784,0.0366 -0.0756,0.0445 -0.006,10e-4 -0.0164,0.007 -0.0287,0.0144 -0.0158,0.009 -0.0337,0.0202 -0.0525,0.0309 -0.0101,0.018 -0.0216,0.0368 -0.0316,0.0532 -0.008,0.0131 -0.0166,0.0237 -0.0252,0.0309 -0.006,0.0188 7.1e-4,0.0309 -0.0287,0.0734 -0.006,0.003 -0.005,-0.004 -0.005,-0.004 0.005,0.004 -0.0388,0.0705 -0.003,0.0411 -0.0503,0.0431 -0.10565,0.12148 -0.15166,0.1905 -0.0683,0.0663 -0.14522,0.14099 -0.20357,0.17117 -0.0409,0.041 -0.0861,0.0856 -0.12644,0.12571 -0.028,0.046 -0.0539,0.0863 -0.0747,0.12166 0,-0.007 -0.005,-0.004 0.005,-0.0173 -0.0769,0.0985 -0.0121,0.0834 -0.0999,0.19621 -0.0554,0.0504 0.0324,-0.069 0.001,-0.0351 -0.0438,-0.006 -0.0878,0.14743 -0.16326,0.21203 l 0.0116,-0.0208 c -0.0525,0.0532 -0.0885,0.15535 -0.15903,0.25161 0,0 0,-0.006 -0.004,-0.004 -0.003,0.006 -0.004,0.01 -0.009,0.0193 -0.004,0.009 -0.009,0.0173 -0.0151,0.028 7e-4,0.0245 7e-4,0.0526 0.001,0.0821 -7.1e-4,0.025 -7.1e-4,0.0525 -0.001,0.0797 -0.002,0.0547 -0.005,0.11154 -0.007,0.16179 -0.0121,-0.0374 -0.003,-0.0532 -0.0208,-0.0329 -0.003,0.0517 0.0265,-0.0123 0.0208,0.0906 -0.004,0.0107 -0.008,0.0258 -0.0129,0.0423 -0.005,0.0151 -0.0101,0.0339 -0.0143,0.0396 -0.007,0.006 -0.0158,0.0144 -0.0217,0.0151 l 0.007,-0.0186 0.006,-0.0618 c -0.005,0.01 -0.009,0.0201 -0.0116,0.0315 -10e-4,0.006 -0.002,0.0116 -0.003,0.018 -7e-4,0.006 -7e-4,0.006 -7e-4,0.009 l -0.002,0.006 -0.004,0.0122 c -0.003,0.009 -0.006,0.018 -0.008,0.0267 -0.006,0.018 -0.0116,0.0346 -0.0188,0.0482 l -0.006,-0.0101 c -0.0569,0.13731 -0.0359,0.1489 -0.10141,0.29486 l 0.0129,-0.0123 c -0.004,0.0223 -0.006,0.0361 -0.0129,0.0504 -0.006,0.0423 -0.0237,0.0438 -0.0208,0.11209 l -0.0282,0.0223 c -0.003,0.0589 -0.006,0.20062 -0.0171,0.30775 v 7.4e-4 c 0,0 0,0 0,-7.4e-4 -0.008,-0.0648 -7e-4,-0.18185 0,-0.25879 -0.008,0.0567 -0.0267,0.19271 -0.0188,0.22363 7e-4,-0.023 -7.1e-4,-0.0526 0.006,-0.0749 0.004,0.0331 0.006,0.0633 0.004,0.11007 0.0107,0.0554 0.0186,0.10785 0.0245,0.17319 -0.0361,-0.0121 -0.0109,0.15461 -0.006,0.27112 -0.004,0.0396 -0.009,0.0826 -0.0193,0.10363 0.003,0.0552 0.003,0.10914 0.002,0.16381 -7.1e-4,0.0282 -0.002,0.0554 -0.004,0.0826 -0.001,0.0302 -0.003,0.0598 -0.004,0.09 0.004,0.0495 0.009,0.1 0.0144,0.15167 0.005,0.0503 0.0107,0.10215 0.0179,0.15534 0.026,-0.0878 0.0101,0.0675 0.0455,0.048 0.009,0.0532 0.0114,0.0742 0.01,0.0799 v -0.0116 c 0,0.005 0,0.008 0,0.0123 l 0.002,0.16676 c -0.005,0.0403 -0.0166,-0.0502 -0.0238,-0.0445 0.0151,0.11926 -0.008,0.0524 -0.006,0.13233 0.0109,-0.018 0.0252,0.0388 0.0302,0.10712 l 0.003,-0.0979 c 0.0144,0.0512 0.0186,0.0848 0.0186,0.11153 7.1e-4,0.0136 0,0.026 -7.1e-4,0.0381 l -7e-4,0.0173 c -7.1e-4,0.003 0,0.0193 7e-4,0.0294 0.0116,0.0302 0.0131,0.0381 0.0215,0.0589 0.009,0.0188 0.0195,0.0403 0.0361,0.0676 l -0.0331,-0.0438 c 0.0388,0.069 0.11209,0.24167 0.17541,0.33149 0.0123,0.0166 0.0173,0.0201 0.026,0.028 0.004,0.0151 0.005,0.0374 -0.0165,0.006 0.0502,0.09 0.11503,0.18626 0.17614,0.27756 0.0295,0.0467 0.0596,0.0905 0.0884,0.1316 0.0281,0.041 0.0519,0.0806 0.0697,0.11651 l -0.0158,-0.009 c 0.0237,0.0317 0.0519,0.0475 0.0705,0.0935 -0.005,0 -0.0166,-0.009 -0.007,0.006 0.006,0.007 0.0195,0.0223 0.0353,0.0403 0.007,0.009 0.0151,0.0193 0.023,0.0294 0.008,0.0107 0.0136,0.0179 0.0265,0.0381 0.006,0.006 0.0109,0.0107 0.0158,0.0143 0.003,0.004 0.006,0.006 0.009,0.009 l -0.0116,-0.006 -0.0186,-0.0123 c -0.006,-0.007 -0.0144,-0.0173 -0.018,-0.0201 0.005,0.008 0.0101,0.0166 0.0144,0.0237 0.0188,0.0179 0.0368,0.0344 0.0539,0.051 0.0151,0.0144 0.0302,0.0274 0.0447,0.0388 0.0294,0.0245 0.0574,0.046 0.0854,0.0653 0.0547,0.0403 0.11154,0.0784 0.16768,0.12516 0.004,0.004 0.008,0.007 0.0121,0.0116 -0.0201,0.0179 0.0804,0.14154 0.1316,0.20265 h -0.005 c 0.0224,0.0245 0.0433,0.0468 0.0633,0.069 0.023,0.023 0.0445,0.0453 0.0655,0.067 0.13215,0.0963 0.23209,0.15589 0.36738,0.25308 l 0.001,5.6e-4 c 0.10417,0.0987 0.38173,0.25529 0.56579,0.37824 -0.0267,-0.0215 0.0151,-0.0158 0.0503,0.001 0.0418,0.0302 0.13086,0.0547 0.11227,0.0725 l -0.0158,-0.009 c 0.0208,0.0423 0.11927,0.0812 0.19271,0.11927 l 0.0272,-0.023 c 0.0272,0.0223 0.0596,0.0438 0.0942,0.0648 0.0171,0.01 0.0359,0.0193 0.0547,0.0294 0.0201,0.0107 0.0409,0.0208 0.0611,0.0316 l 0.0683,0.0201 c 0.0215,0.006 0.0423,0.0121 0.0631,0.018 0.0418,0.0121 0.0821,0.0237 0.11946,0.0344 0.0747,0.0223 0.13583,0.044 0.1697,0.0698 0.002,7.4e-4 0.004,0.001 0.006,0.002 0.0574,0.005 0.11357,0.018 0.16529,0.0215 l -0.006,0.0166 c 0.0517,0.0136 0.0935,0.0245 0.13657,0.0359 0.021,0.005 0.0425,0.0101 0.0655,0.0158 0.0258,0.006 0.0532,0.0116 0.0841,0.0195 0.0245,-7.4e-4 0.0653,-7.4e-4 0.1143,-7.4e-4 l -0.0366,0.0121 c 0.0999,0.002 0.12571,-0.049 0.21848,-0.049 l 0.0267,0.0267 0.0661,0.001 0.0762,0.003 0.1051,-0.025 0.0948,-0.0252 c 0.0626,-0.0173 0.12442,-0.0374 0.18332,-0.0633 -0.001,0.004 -0.004,0.0131 -0.0309,0.0215 0.0215,-0.005 0.0532,-0.0136 0.0885,-0.0223 -7e-4,7.4e-4 0.006,-7.4e-4 0.0129,-0.001 l 0.0188,-0.002 c 0.0121,-0.001 0.0243,-0.003 0.0359,-0.004 0.0237,-0.003 0.046,-0.007 0.0646,-0.0114 0.0375,-0.007 0.0598,-0.0166 0.0467,-0.028 0.003,0.0107 0.0396,0.006 0.0878,-0.003 0.0237,-0.005 0.0502,-0.0109 0.0769,-0.0173 0.0136,-0.003 0.0272,-0.006 0.0396,-0.01 0.006,-0.001 0.0129,-0.003 0.0193,-0.005 0.006,-0.001 0.0131,-0.003 0.0144,-0.004 l 0.003,-7.4e-4 0.008,-10e-4 c 0.004,-7.4e-4 0.009,-7.4e-4 0.0129,-7.4e-4 l -0.0144,0.0166 c 0.0791,-0.0215 0.0819,-0.0274 0.19271,-0.0331 0.026,0.003 0.023,0.0144 -0.0121,0.0101 0.0876,0.009 0.0683,-0.0158 0.17467,-0.006 l -0.0396,0.0107 c 0.0423,7.4e-4 0.0633,0 0.0791,-0.003 0.008,-7.4e-4 0.0136,-0.003 0.0215,-0.004 0.0101,-0.002 0.0208,-0.005 0.0359,-0.008 7.1e-4,-7.4e-4 0.003,-0.002 0.004,-0.004 0.008,-0.006 0.0171,-0.0116 0.0258,-0.018 0.008,-0.003 0.0151,-0.009 0.0237,-0.0129 0.0158,-0.009 0.0339,-0.0188 0.0512,-0.0267 0.0344,-0.0151 0.0653,-0.025 0.0747,-0.0223 0.006,-0.0144 0.0416,-0.0503 0.0891,-0.0733 0.009,0.001 -0.005,0.0144 -0.0121,0.0208 0.0302,-0.0151 0.0574,-0.0302 0.0804,-0.0445 0.0116,-0.008 0.023,-0.0151 0.0331,-0.0223 0.0101,-0.006 0.0215,-0.0144 0.0252,-0.0173 0.005,-0.003 0.0208,-0.009 0.0322,-0.0129 0.0131,-0.004 0.0245,-0.009 0.0368,-0.0123 0.0243,-0.008 0.0495,-0.0143 0.0775,-0.0178 0.004,0.006 0.0109,0.006 0.0203,0.006 -0.069,0.0186 -0.13013,0.0352 -0.16399,0.0445 -0.007,0.004 -0.0121,0.007 -0.0158,0.009 -0.004,0.002 -0.006,0.003 -0.005,0.001 0.001,0.007 0.0245,-7.4e-4 0.0265,0.002 0.002,0.001 0.004,0.002 0.005,0.003 0.002,0.001 0.006,0.001 0.006,0.003 0.004,0.003 -0.006,0.009 -0.003,0.0136 0,0.001 0,0.003 7.1e-4,0.005 v -0.003 c 7e-4,-7.4e-4 -0.001,-7.4e-4 0.003,-0.003 0.005,-0.002 0.0101,-0.004 0.0144,-0.007 0.0109,-0.004 0.0215,-0.009 0.0324,-0.0143 0.0223,-0.0101 0.046,-0.021 0.0705,-0.0317 0.048,-0.0201 0.0985,-0.0388 0.14301,-0.0475 0.004,0 0.009,0 0.0129,0.001 l -0.009,0.004 c 0.0217,-0.004 0.0396,-0.0107 0.0569,-0.0179 0.0295,-0.006 0.0482,-0.009 0.0755,-0.0166 0.002,0.003 0.0151,7.5e-4 0.0331,-0.003 0.0101,-0.006 0.023,-0.0136 0.0366,-0.0223 0.009,-0.006 0.0201,-0.0136 0.0309,-0.0208 0.0215,-0.0136 0.0431,-0.0287 0.0582,-0.0396 -0.0129,-0.0121 0.041,-0.0453 -0.0158,-0.0237 0.007,-0.003 -0.006,0.006 -0.0322,0.0245 -0.006,0.005 -0.0131,0.0101 -0.0158,0.0129 0,-7.4e-4 7.1e-4,-0.002 0.001,-0.003 l -0.0734,0.0502 -0.046,0.0129 c 0.0116,-0.006 0.0223,-0.0121 0.0433,-0.0201 0.0171,-0.0136 0.0265,-0.0215 0.0394,-0.0302 0.0124,-0.009 0.0267,-0.0158 0.0433,-0.0238 0.0144,-0.023 0.0309,-0.0475 0.0401,-0.0604 0.0685,-0.0166 0.1813,-0.0762 0.2043,-0.0734 0.0208,-0.0164 0.0431,-0.0329 0.0661,-0.0503 0.026,-0.0237 0.0512,-0.0475 0.0777,-0.072 0.0245,-0.023 0.0482,-0.0468 0.0712,-0.069 0.0445,-0.0453 0.0826,-0.0876 0.10271,-0.12351 0.0289,-0.0304 0.0425,-0.0237 0.0576,-0.0304 -0.0158,0.018 -0.0381,0.0368 -0.0446,0.0482 0.0178,-0.0186 0.0388,-0.0381 0.0668,-0.0639 0.0547,-0.0626 0.10933,-0.12295 0.10785,-0.14541 0.0791,-0.069 -0.026,0.0576 0.0712,-0.0503 l -0.009,0.0193 c 0.0287,-0.023 0.0547,-0.0473 0.0784,-0.071 0.0114,-0.0123 0.023,-0.0245 0.0337,-0.0361 0.0136,-0.0151 0.0267,-0.0294 0.0388,-0.0438 0.0136,-0.0317 0.0166,-0.0416 0.023,-0.0604 l 0.0173,-0.0525 c 0.0114,-0.0346 0.023,-0.069 0.0344,-0.10362 0.0116,-0.0351 0.0237,-0.071 0.0375,-0.10712 0.007,-0.0179 0.0151,-0.0366 0.0236,-0.0547 0.007,-0.0179 0.0188,-0.0409 0.0245,-0.0524 0.013,-0.01 0.0267,-0.0215 0.041,-0.0329 0.0158,-0.0131 0.0324,-0.0252 0.0495,-0.0374 -0.0171,0.0129 -0.0265,0.0193 -0.0315,0.0201 0.0453,-0.0396 0.0905,-0.0799 0.1351,-0.12222 l 0.0668,-0.0641 0.0712,-0.0698 0.0898,-0.20982 c 0.0294,-0.0698 0.0576,-0.13308 0.0905,-0.20578 0.0238,-0.0999 0.0475,-0.18829 0.0769,-0.27811 0.0252,-0.0856 0.0202,-0.1108 0.0188,-0.15314 0,-0.004 0,-0.006 0.003,-0.0131 l 0.0258,-0.0114 0.028,-0.10362 c 0.0195,-0.051 0.0447,-0.092 0.072,-0.13289 0.0136,-0.021 0.028,-0.041 0.0425,-0.0618 0.007,-0.0109 0.0144,-0.0215 0.0215,-0.0331 l 0.0107,-0.0173 c 0.004,-0.008 0.009,-0.0171 0.0138,-0.0258 0.004,-0.0361 0.006,-0.0504 0.006,-0.0762 7e-4,-0.0237 0,-0.049 -0.002,-0.0756 l -0.0144,0.0237 c 0.008,-0.0675 0.009,-0.21498 0.0223,-0.20264 -0.002,-0.007 -0.0114,-0.023 -0.003,-0.049 l 0.009,-0.001 -0.001,-0.0725 -0.01,-0.0964 c 0.008,-0.12939 0.0388,0.0202 0.0401,-0.16823 -0.004,-0.071 -0.0272,-0.19989 -0.0344,-0.1732"
       style="fill:#21201d;fill-opacity:1;fill-rule:nonzero;stroke:none;stroke-width:0.184057"
       id="path580" />
  </g>
</svg>
