<?xml version="1.0" encoding="UTF-8" standalone="no"?>
<!-- Created with Inkscape (http://www.inkscape.org/) -->

<svg
   width="8.5355196mm"
   height="8.6288929mm"
   viewBox="0 0 8.5355196 8.6288929"
   version="1.1"
   id="svg3733"
   inkscape:version="1.1.2 (0a00cf5339, 2022-02-04)"
   sodipodi:docname="rtm2.svg"
   xmlns:inkscape="http://www.inkscape.org/namespaces/inkscape"
   xmlns:sodipodi="http://sodipodi.sourceforge.net/DTD/sodipodi-0.dtd"
   xmlns="http://www.w3.org/2000/svg"
   xmlns:svg="http://www.w3.org/2000/svg">
  <sodipodi:namedview
     id="namedview3735"
     pagecolor="#ffffff"
     bordercolor="#666666"
     borderopacity="1.0"
     inkscape:pageshadow="2"
     inkscape:pageopacity="0.0"
     inkscape:pagecheckerboard="0"
     inkscape:document-units="mm"
     showgrid="false"
     inkscape:zoom="0.66368547"
     inkscape:cx="-1425.374"
     inkscape:cy="713.44036"
     inkscape:window-width="2560"
     inkscape:window-height="1376"
     inkscape:window-x="0"
     inkscape:window-y="0"
     inkscape:window-maximized="1"
     inkscape:current-layer="layer1" />
  <defs
     id="defs3730" />
  <g
     inkscape:label="Layer 1"
     inkscape:groupmode="layer"
     id="layer1"
     transform="translate(-482.09656,40.19421)">
    <path
       d="m 488.85157,-39.400021 c -0.008,-0.0035 -0.0145,-0.0064 -0.0236,-0.0094 z"
       style="fill:#21201d;fill-opacity:1;fill-rule:nonzero;stroke:none;stroke-width:0.184057"
       id="path656" />
    <path
       d="m 486.65429,-40.153554 c 0.0187,7.41e-4 0.0261,-7.41e-4 0.0275,-0.002 -0.0173,0 -0.031,7.41e-4 -0.0275,0.002"
       style="fill:#21201d;fill-opacity:1;fill-rule:nonzero;stroke:none;stroke-width:0.184057"
       id="path658" />
    <path
       d="m 486.26243,-40.176562 c -0.009,0 -0.018,0.0015 -0.0229,0.0044 0.008,-0.0015 0.0152,-0.0029 0.0229,-0.0044"
       style="fill:#21201d;fill-opacity:1;fill-rule:nonzero;stroke:none;stroke-width:0.184057"
       id="path660" />
    <path
       d="m 488.82783,-39.409408 -0.0584,-0.0243 c -0.006,0.005 0.0296,0.01436 0.0584,0.0243"
       style="fill:#21201d;fill-opacity:1;fill-rule:nonzero;stroke:none;stroke-width:0.184057"
       id="path662" />
    <path
       d="m 489.56827,-38.689741 0.0138,0.01307 c 0.005,0.0028 0.0106,0.005 0.0166,0.0057 z"
       style="fill:#21201d;fill-opacity:1;fill-rule:nonzero;stroke:none;stroke-width:0.184057"
       id="path664" />
    <path
       d="m 490.05363,-38.04333 c 0,-0.0035 -0.004,-0.0064 -0.004,-0.0087 -0.0138,-0.01712 -0.0254,-0.0099 -0.0353,-0.01288 0.008,0.0037 0.0138,0.0072 0.0229,0.01877 0.004,0.005 0.006,0.01215 0.008,0.01509 0.004,-7.41e-4 0.006,-0.0022 0.008,-0.01233"
       style="fill:#21201d;fill-opacity:1;fill-rule:nonzero;stroke:none;stroke-width:0.184057"
       id="path666" />
    <path
       d="m 490.52021,-36.872722 0.0109,0.01933 c -0.004,-0.005 -0.007,-0.01362 -0.0109,-0.01933"
       style="fill:#21201d;fill-opacity:1;fill-rule:nonzero;stroke:none;stroke-width:0.184057"
       id="path668" />
    <path
       d="m 489.23035,-39.155592 c 0,-0.0028 0,-0.0064 -0.004,-0.0094 0,0.0022 0,0.0052 0.004,0.0094"
       style="fill:#21201d;fill-opacity:1;fill-rule:nonzero;stroke:none;stroke-width:0.184057"
       id="path670" />
    <path
       d="m 490.54617,-35.920958 0.004,0.01233 c 0.004,7.41e-4 0.007,0.0022 0.009,0.0015 z"
       style="fill:#21201d;fill-opacity:1;fill-rule:nonzero;stroke:none;stroke-width:0.184057"
       id="path672" />
    <path
       d="m 485.5205,-40.056372 h 0.004 c 0.0187,-0.0052 0.008,-0.0029 -0.004,0"
       style="fill:#21201d;fill-opacity:1;fill-rule:nonzero;stroke:none;stroke-width:0.184057"
       id="path674" />
    <path
       d="m 482.17952,-35.004166 c -0.004,-0.0044 -0.006,-0.0094 -0.01,-0.01288 -0.004,-0.0072 -0.007,-0.0138 -0.0109,-0.01804 -0.004,-0.01086 -0.007,-0.01509 -0.01,7.41e-4 0,0.0029 0,0.0094 0,0.01804 0,0.0057 0,0.01288 0.004,0.02227 -0.004,-0.07767 0.0497,0.116324 0.0381,7.4e-4 0,0.0028 -0.005,-0.0029 -0.0106,-0.01086"
       style="fill:#21201d;fill-opacity:1;fill-rule:nonzero;stroke:none;stroke-width:0.184057"
       id="path676" />
    <path
       d="m 483.98475,-39.427998 c 0,-7.41e-4 -0.006,0 -0.0173,0.0079 0.004,-0.0015 0.0106,-0.0044 0.0173,-0.0079"
       style="fill:#21201d;fill-opacity:1;fill-rule:nonzero;stroke:none;stroke-width:0.184057"
       id="path678" />
    <path
       d="m 485.10066,-40.00097 -0.0317,-7.41e-4 c 0.0127,7.41e-4 0.0222,7.41e-4 0.0317,7.41e-4"
       style="fill:#21201d;fill-opacity:1;fill-rule:nonzero;stroke:none;stroke-width:0.184057"
       id="path680" />
    <path
       d="m 483.40828,-39.022518 c 0.004,-0.0015 0.004,-0.0029 0.006,-0.005 0.004,-0.0079 0.008,-0.01804 0.0215,-0.03239 -0.0109,0.01288 -0.0159,0.01657 -0.0272,0.03736"
       style="fill:#21201d;fill-opacity:1;fill-rule:nonzero;stroke:none;stroke-width:0.184057"
       id="path682" />
    <path
       d="m 483.04072,-38.506236 c 0.004,-0.0029 0.007,-0.0059 0.0102,-0.0086 0.005,-0.0052 0.008,-0.0116 0.0124,-0.0173 z"
       style="fill:#21201d;fill-opacity:1;fill-rule:nonzero;stroke:none;stroke-width:0.184057"
       id="path684" />
    <path
       d="m 485.06111,-39.992504 c -0.0102,0.0029 -0.0187,0.0044 -0.0293,0.0059 0.0215,-0.0029 0.0488,-0.0044 0.0293,-0.0059"
       style="fill:#21201d;fill-opacity:1;fill-rule:nonzero;stroke:none;stroke-width:0.184057"
       id="path686" />
    <path
       d="m 489.46759,-36.685903 c -0.005,0.0057 -0.0977,0.01436 -0.11208,0.01804 -0.0403,0.01013 -0.0792,0.02153 -0.11853,0.0324 -0.0576,0.01583 -0.12298,0.03884 -0.18627,0.03736 -0.13878,-0.0015 -0.20708,-0.131601 -0.26596,-0.198414 -0.0261,-0.03018 -0.0547,-0.05982 -0.0843,-0.08853 -0.0611,-0.06037 -0.1064,-0.128657 -0.17173,-0.186267 -0.0346,-0.02945 -0.0589,-0.06608 -0.0856,-0.101968 -0.0194,-0.02595 -0.0395,-0.05043 -0.0618,-0.07417 -0.0324,-0.03515 -0.0675,-0.06755 -0.0962,-0.106386 -0.0425,-0.05816 -0.067,-0.126447 -0.10142,-0.189027 -0.0418,-0.07767 -0.0935,-0.148903 -0.14668,-0.218661 -0.0576,-0.07546 -0.12002,-0.150191 -0.18482,-0.219949 -0.0547,-0.05743 -0.11723,-0.106386 -0.17043,-0.165284 -0.074,-0.08135 -0.13804,-0.170438 -0.19914,-0.261731 -0.0495,-0.07197 -0.0999,-0.143197 -0.14669,-0.217188 -0.0222,-0.03589 -0.0409,-0.07326 -0.0703,-0.104177 -0.0268,-0.02871 -0.0562,-0.0554 -0.0871,-0.07988 -0.0215,-0.01583 -0.0446,-0.03018 -0.0648,-0.04822 -0.0159,-0.01509 -0.0303,-0.0416 -0.048,-0.05393 -0.0296,-0.01933 -0.0762,-0.01859 -0.11007,-0.03019 -0.0367,-0.01288 -0.074,-0.0243 -0.11137,-0.03589 -0.0685,-0.02153 -0.15035,-0.03313 -0.21368,-0.06461 -0.0597,-0.03037 -0.13215,-0.0554 -0.19914,-0.06332 -0.0303,-0.0037 -0.0582,-0.01804 -0.0876,-0.02522 -0.0346,-0.0079 -0.0683,-0.0029 -0.10287,-0.0072 -0.0296,-0.0042 -0.0525,-0.0208 -0.0819,-0.0324 -0.0856,-0.03368 -0.45148,0.280504 -0.50263,0.315659 -0.0597,0.04105 -0.10989,0.08853 -0.16383,0.136571 -0.0641,0.05687 -0.0965,0.127368 -0.14246,0.197126 -0.051,0.07823 -0.11504,0.151664 -0.18404,0.213507 -0.0453,0.04086 -0.0812,0.08559 -0.1215,0.129393 -0.0502,0.05393 -0.11063,0.09424 -0.16527,0.142277 -0.11081,0.09645 -0.20137,0.212955 -0.31218,0.31069 -0.0624,0.05466 -0.13433,0.09774 -0.19473,0.155345 -0.0293,0.02724 -0.051,0.05522 -0.069,0.08982 -0.006,0.01362 -0.007,0.02153 -0.0187,0.0324 -0.0236,0.02227 -0.0611,0.0381 -0.0861,0.0589 -0.0368,0.03019 -0.0712,0.06184 -0.10361,0.09553 -0.0554,0.05117 -0.11285,0.09792 -0.17247,0.142461 -0.15314,0.117245 -0.31436,0.230809 -0.45812,0.360201 -0.005,0.0035 -0.0676,0.05246 -0.0732,0.07399 -0.008,0.02595 -0.164,-0.01932 -0.18979,-0.0646 -0.0251,-0.04454 -0.0201,-0.09497 -0.0173,-0.143197 0.004,-0.0381 0.14595,-0.160314 0.15812,-0.178168 0.10636,-0.155345 0.27185,-0.306272 0.41063,-0.446524 0.1336,-0.135835 0.28325,-0.265412 0.41483,-0.401983 0.11504,-0.119269 0.2056,-0.248662 0.32138,-0.368116 0.15886,-0.164548 0.33867,-0.31345 0.49033,-0.482416 0.17963,-0.199887 0.41413,-0.368115 0.63186,-0.548492 0.0813,-0.067 0.15314,-0.138043 0.23375,-0.205777 0.074,-0.06111 0.15462,-0.117797 0.22289,-0.181849 0.0374,-0.03589 0.0438,-0.09921 0.11708,-0.08687 0.09,0.01509 0.17981,0.06957 0.2582,0.10344 0.11578,0.04896 0.22366,0.104177 0.33002,0.161787 0.0898,0.04951 0.18902,0.102889 0.26173,0.164548 0.0539,0.04675 0.0819,0.09497 0.11705,0.148166 0.10143,0.1524 0.35599,0.208538 0.50839,0.330752 0.0791,0.06405 0.13949,0.137308 0.20355,0.208538 0.092,0.102705 0.20264,0.194733 0.31493,0.287499 0.15885,0.132337 0.21057,0.296333 0.31767,0.44726 0.095,0.133074 0.16327,0.270381 0.24885,0.406216 0.0639,0.102889 0.14595,0.202096 0.21276,0.304064 0.0597,0.08927 0.1215,0.181297 0.21206,0.259706 0.0749,0.0646 0.15035,0.12792 0.22729,0.191972 0.0286,0.02503 0.0963,0.09129 0.0703,0.124976 m -0.79862,1.64787 c 0,0.113012 0.0113,0.232281 -0.01,0.343084 -0.0145,0.08191 -0.0332,0.154424 -0.0346,0.239275 -0.004,0.124423 -0.01,0.24811 -0.0145,0.372533 -0.006,0.145958 -0.0229,0.291916 -0.0335,0.437874 -0.0152,0.20909 -0.0381,0.429223 -0.0942,0.631871 -0.0268,0.09645 -0.0705,0.179825 -0.0892,0.279032 -0.008,0.04233 -0.006,0.155345 -0.0416,0.192709 -0.0109,-0.02669 -0.004,-0.06552 -0.004,-0.09424 0,-0.06902 0,-0.138044 0,-0.207065 0,-0.235042 -0.0475,-0.462354 -0.0668,-0.69666 -0.0229,-0.271117 -0.0261,-0.544995 -0.0261,-0.816849 0,-0.119269 -0.008,-0.238539 -0.006,-0.357256 0.004,-0.07197 0.0109,-0.143749 0.0152,-0.215716 0,-0.02006 0.004,-0.04086 0.004,-0.06111 0.008,-0.370877 0.0201,-0.739729 0.0388,-1.110053 0.01,-0.181114 0.0201,-0.361674 0.031,-0.542051 0.004,-0.05264 0.006,-0.103625 0.01,-0.155345 0,-0.01583 0.007,-0.03884 0.004,-0.0554 0.0145,-0.0086 0.0303,-0.03387 0.0475,-0.04675 0.0236,-0.01859 0.0495,-0.0324 0.074,-0.04454 0.0275,-0.01436 0.0791,-0.03166 0.10859,-0.0173 0.0423,0.02025 0.0596,0.140252 0.0675,0.197678 0.006,0.04325 0.018,0.08853 0.0208,0.133074 0.006,0.09571 0,0.196942 0,0.292652 0,0.306273 0,0.611808 0,0.918081 v 0.382472 m -0.87076,-2.161208 c -0.018,0.02153 -0.0475,0.04381 -0.074,0.05117 -0.0282,0.0077 -0.072,-0.0015 -0.10139,-0.0015 h -0.10936 c -0.0574,0 -0.11648,0.005 -0.17392,-0.0015 -0.0885,-0.01013 -0.15882,-0.06184 -0.24295,-0.07694 -0.0749,-0.01288 -0.1662,-0.01877 -0.24166,-0.01436 -0.0841,0.005 -0.15959,0.04307 -0.24736,0.04528 -0.0841,0.0029 -0.16951,-0.01233 -0.25235,0.01067 -0.0388,0.01013 -0.0769,0.02098 -0.11504,0.03092 -0.0631,0.0087 -0.12573,0.0059 -0.18757,-0.0057 -0.10287,-0.01012 -0.19491,0.01307 -0.29559,0.02522 -0.0625,0.0079 -0.12443,0 -0.1868,0.0064 -0.0893,0.0094 -0.17762,0.0208 -0.26818,0.0094 -0.0828,-0.01012 -0.15977,-0.03019 -0.24387,-0.02945 -0.0545,7.4e-4 -0.10915,0 -0.1638,0 -0.0208,0 -0.25605,-0.17191 -0.25605,-0.191237 0,-0.02172 0,-0.04105 0.004,-0.06258 0,0.0015 0.008,-0.03534 0.008,-0.03534 0.0152,-0.03295 0.0475,-0.05743 0.069,-0.0854 0.0215,-0.02743 0.0325,-0.04252 0.069,-0.04178 0.0346,0 0.0698,-0.0037 0.10343,-7.4e-4 0.0418,0.0029 0.0784,0.0173 0.12093,0.01657 0.0431,-7.41e-4 0.0854,0 0.12792,0 0.0604,0 0.12001,0.0022 0.17963,7.41e-4 0.0965,-0.0022 0.17911,-0.05117 0.27757,-0.0497 0.0755,7.41e-4 0.14524,0 0.21939,0.01307 0.0388,0.0064 0.0733,0.0035 0.10989,-0.0059 0.0972,-0.0243 0.20281,-0.0064 0.30205,-0.0064 0.0574,-7.41e-4 0.11649,-0.005 0.17392,7.41e-4 0.0388,0.0044 0.0769,0.01657 0.11652,0.01657 0.0791,7.41e-4 0.15734,-0.01877 0.23725,-0.0173 0.0438,7.41e-4 0.0878,-0.01141 0.13158,-0.01509 0.046,-0.0042 0.0913,0.0064 0.13656,0.01086 0.0762,0.0087 0.14965,0.0057 0.22292,0.03166 0.14887,0.05246 0.53485,0.140804 0.54275,0.150927 0.0303,0.03884 0.0361,0.187555 0.009,0.220686 m -0.0884,2.537975 c -0.0187,0.160314 -0.0381,0.318604 -0.0806,0.474501 -0.0258,0.09792 -0.0525,0.205041 -0.10343,0.293388 -0.0229,0.04178 -0.0604,0.07841 -0.0885,0.117981 -0.0159,0.02153 -0.0381,0.03957 -0.0567,0.0589 -0.0475,0.04969 -0.0806,0.08908 -0.13529,0.132338 -0.11652,0.09276 -0.25806,0.168229 -0.39832,0.220685 -0.10417,0.03884 -0.21495,0.0324 -0.32427,0.03166 -0.11504,0 -0.23065,0.0029 -0.34569,7.41e-4 -0.12238,-0.0015 -0.24589,-0.02098 -0.36608,-0.04381 -0.14594,-0.02816 -0.25012,-0.07123 -0.3738,-0.156817 -0.0653,-0.04454 -0.1366,-0.08117 -0.20137,-0.126632 -0.0582,-0.0416 -0.0978,-0.125711 -0.12865,-0.186819 -0.0626,-0.126631 -0.11579,-0.263202 -0.15389,-0.399037 -0.0332,-0.116509 -0.0826,-0.237251 -0.0883,-0.358729 -0.006,-0.126632 -0.0102,-0.259706 0,-0.385417 0.0138,-0.139516 0.0777,-0.263203 0.13162,-0.389651 0.0275,-0.06258 0.0525,-0.122951 0.0814,-0.183322 0,-7.4e-4 0,-7.4e-4 0,-7.4e-4 -0.092,-0.08411 -0.19417,-0.132338 -0.23502,-0.256761 0.0194,0.07841 -0.0166,0.0072 -0.0166,-0.01657 0,-0.02871 0.006,-0.06037 0.0353,-0.07473 0.03,-0.01583 0.0755,-0.0029 0.10213,0.01086 0.0303,0.01583 0.0416,0.04233 0.0675,0.06184 0.0279,0.02153 0.0554,0.03589 0.0819,0.06111 0.0187,0.01712 0.0381,0.03295 0.059,0.04804 0.0194,-0.0265 0.0416,-0.05319 0.0619,-0.0762 0.0145,-0.01583 0.0668,-0.07546 0.0999,-0.120742 0.0366,-0.05025 0.0841,-0.06681 0.1373,-0.09626 0.0381,-0.02098 0.0618,-0.05466 0.10047,-0.07491 0.0353,-0.01785 0.0712,-0.03092 0.10658,-0.04804 0.0381,-0.01878 0.0804,-0.02374 0.1215,-0.0324 0.0559,-0.0116 0.10985,-0.02871 0.16601,-0.03736 0.15755,-0.02522 0.32283,-0.02448 0.48165,-0.01951 0.0749,0.0029 0.14746,0.01657 0.22292,0.01583 0.0878,-7.41e-4 0.18256,-0.01288 0.26815,0.01435 0.0841,0.02669 0.17265,0.04749 0.2516,0.08853 0.0159,0.0087 0.0324,0.02006 0.049,0.03295 0.01,-0.01068 0.0194,-0.02153 0.0293,-0.03442 0.0361,-0.04675 0.092,-0.233017 0.17689,-0.160314 0.0268,0.02153 0.0324,0.05319 0.0467,0.07915 0.0109,0.01785 0.0561,0.05393 0.0596,0.07252 0.004,0.0173 -0.008,0.01877 -0.0145,0.03239 -0.0131,0.02724 -0.0222,0.05816 -0.0359,0.08485 -0.0208,0.04031 -0.0453,0.08117 -0.0712,0.120006 0.069,0.08264 0.12865,0.173382 0.16968,0.272589 0.0318,0.0762 0.0611,0.154425 0.0849,0.232834 0.0159,0.05319 0.0374,0.102152 0.0381,0.157554 0,0.02448 0,0.05025 0,0.07473 0,0.163259 0.008,0.327071 -0.0113,0.488858 m -3.23825,0.746355 c -0.0339,0.175407 -0.004,0.366643 -0.0138,0.546468 -0.0109,0.185346 -0.0368,0.377318 -0.087,0.556407 -0.0173,0.05098 -0.0317,0.102152 -0.0431,0.154608 -0.005,0.03092 -0.0109,0.06258 -0.018,0.09277 -0.0127,0.01141 -0.0201,0.0028 -0.0339,0.01288 -0.0169,0.0116 -0.0321,0.05964 -0.0589,0.04178 -0.0467,-0.03092 -0.0381,-0.153136 -0.046,-0.19915 -0.01,-0.05908 0,-0.118718 -0.004,-0.178352 -0.004,-0.09571 -0.031,-0.185531 -0.0431,-0.279768 -0.0396,-0.314923 -0.10213,-0.626902 -0.13953,-0.941825 -0.0236,-0.200623 -0.0502,-0.40051 -0.0661,-0.600949 -0.007,-0.09203 -0.0236,-0.195654 -0.0102,-0.287682 0.004,-0.02595 0.0145,-0.04951 0.0208,-0.0762 0.0275,-0.111355 0.008,-0.23946 0.008,-0.353024 0,-0.238723 -0.0314,-0.46585 -0.0431,-0.704573 -0.01,-0.179089 -0.0116,-0.360202 -0.008,-0.540026 0,-0.07823 -0.0293,-0.301119 -0.0286,-0.307009 0.0286,-0.01509 0.0639,-7.4e-4 0.0942,-0.0087 0.0381,-0.0099 0.0775,-0.03018 0.11708,-0.03663 0.0325,-0.0064 0.0675,0.0052 0.0999,-7.41e-4 0.0268,-0.0057 0.0892,0.402719 0.0878,0.62911 0,0.198414 0.004,0.409897 0.0317,0.605366 0.01,0.0727 0.0236,0.14467 0.0303,0.218661 0.009,0.107858 0.004,0.218477 0.0106,0.327071 0.0201,0.260994 0.0655,0.517755 0.0965,0.775804 0.012,0.097 0.0208,0.194918 0.0303,0.292652 0.007,0.08264 0.03,0.179089 0.0145,0.260994 m 4.05494,1.659467 c 0,-7.41e-4 0.004,-0.0022 0.004,-0.0037 0,0.0042 -0.004,0.0087 -0.008,0.01362 -0.0138,0.0079 -0.0236,0.01233 -0.031,0.01436 -0.005,0.0015 -0.005,-7.41e-4 -0.007,-0.0013 0.0113,-0.0066 0.0254,-0.01307 0.0431,-0.02301 m 1.96846,-4.639733 c 0,0.0044 0,0.0066 0,0.0086 l -0.0145,-0.03515 c 0.005,0.0079 0.008,0.01657 0.0138,0.0265 m 0.12664,1.143184 c -0.0116,-0.06957 -0.0503,-0.196206 -0.0539,-0.168965 0.004,0.02816 0.004,0.07197 -0.007,0.07565 l -0.0123,-0.06332 c -0.004,-7.41e-4 -0.004,-0.0015 -0.005,-0.0015 v -0.01086 l -0.0811,-0.431985 0.0467,-0.315659 0.004,0.0079 v -0.02301 l 0.0152,-0.097 c 0.004,0.0035 0.004,0.01288 0.004,0.03221 0.0102,-0.02871 0.0116,-0.0473 0.0124,-0.06184 -0.0102,-0.01785 -0.018,-0.02798 -0.0244,-0.06313 0,-0.0072 0.004,-0.0052 0.006,0 l -0.0346,-0.06111 c 0.0106,0.01067 0.012,-0.0173 0.025,0.02374 -0.0346,-0.121662 -0.094,-0.179089 -0.0948,-0.230072 l 0.006,0.0085 c -0.0569,-0.116324 -0.0411,-0.0646 -0.0597,-0.07546 l -0.006,-0.01436 -0.0289,-0.0589 0.004,-0.06681 -0.0243,-0.0079 c -0.007,-0.01583 -0.0215,-0.04822 -0.012,-0.04602 -0.0403,-0.05466 -0.004,0.01362 -0.0296,-0.01583 -0.018,-0.06479 -0.0749,-0.153872 -0.0913,-0.20504 -0.004,-0.01509 -0.004,-0.02797 0,-0.03442 -0.0243,-0.02374 0.0187,0.08043 -0.0229,-0.0015 0.0208,-0.03589 -0.0431,-0.09774 -0.0567,-0.17688 0.0243,0.0173 0.0423,0.09056 0.0286,0.01086 -0.0438,-0.0346 -0.0489,-0.145222 -0.0777,-0.205593 -0.004,0.0013 -0.008,-0.0015 -0.0145,-0.01307 -0.0293,-0.03092 -0.0792,-0.127184 -0.13233,-0.20412 0.004,7.41e-4 -0.008,-0.02153 -0.0258,-0.05614 -0.0187,-0.03515 -0.044,-0.08264 -0.069,-0.126447 -0.0145,-0.0173 -0.0289,-0.03313 -0.0418,-0.04822 -0.012,-0.01435 -0.0236,-0.02797 -0.0339,-0.03957 h 0.005 c -0.0303,0.0015 -0.10138,-0.07841 -0.15882,-0.130865 0.0113,-0.0072 0.0251,-0.0015 0.0589,0.02522 l -0.051,-0.05246 c -0.0173,-0.0072 -0.0368,-0.02098 -0.0712,-0.05319 l 0.0254,0.0013 -0.0166,-0.01638 c -0.006,-0.0059 -0.0124,-0.0116 -0.0145,-0.01307 -0.025,-0.03221 -0.0497,-0.06387 -0.0762,-0.09847 -0.0275,-0.03663 -0.0539,-0.0762 -0.0799,-0.122214 -0.0117,0.0022 0,0.05043 -0.0145,0.04896 l -0.0381,-0.05687 c 0.006,-7.41e-4 0.0138,0.0029 0.025,0.01657 -0.007,-0.0086 -0.0279,-0.02945 -0.0381,-0.05098 l 0.041,0.03589 c -0.0265,-0.05025 -0.0265,-0.01804 -0.0502,-0.05687 0.0106,-0.0057 -0.0116,-0.03221 0,-0.03221 0.007,0.0085 0.018,0.03589 0.0317,0.0473 -0.0102,-0.01712 -0.0219,-0.03589 -0.0303,-0.05393 -0.01,-0.0208 -0.0194,-0.03939 -0.0265,-0.05448 -0.009,-0.0079 -0.0166,-0.01657 -0.0187,-0.02025 0,0.0079 -0.01,0.01288 -0.0408,-0.0087 -0.0784,-0.05669 -0.018,-0.03092 -0.0598,-0.07049 -0.0243,-0.0072 -0.0688,-0.05098 -0.0812,-0.03736 -0.0229,-0.01712 -0.0222,-0.0265 -0.0279,-0.03736 -0.0152,-0.0079 -0.0418,-0.02577 -0.0683,-0.04528 -0.0138,-0.0094 -0.0275,-0.01859 -0.0395,-0.0265 -0.0152,-0.01012 -0.0282,-0.01877 -0.0381,-0.02522 -0.0303,-0.0064 -0.0367,-0.0044 -0.018,0.0079 l 0.0123,0.0042 0.004,0.0022 -0.004,-0.0015 -0.008,-0.0015 c -0.0777,-0.01509 -0.14672,-0.03663 -0.22013,-0.06184 -0.0359,-0.01215 -0.0718,-0.0243 -0.10862,-0.03663 l -0.0532,-0.01785 c -0.0159,-0.0052 -0.0317,-0.01013 -0.0473,-0.01509 -0.0117,-0.01086 -0.0229,-0.02098 -0.0346,-0.03092 l 0.004,-0.0052 c -0.0747,-0.06332 -0.15886,-0.148719 -0.21774,-0.188291 -0.0208,-0.02025 -0.0418,-0.0554 -0.0275,-0.05172 -0.0243,-0.02025 -0.0401,-0.0346 -0.0559,-0.04749 -0.044,-0.0022 -0.069,-0.0044 -0.13656,-0.0173 0.0754,-0.0029 -0.0254,-0.0116 0.0769,0 -0.0957,-0.01436 -0.11723,-0.02669 -0.22215,-0.02006 0.0366,-0.01233 -0.0712,-0.02669 -0.11726,-0.02595 l 0.0661,0.0173 c -0.046,-0.0022 -0.092,-0.0072 -0.12717,-0.01233 l -0.008,-0.0028 c 0.005,-0.0015 0.008,-0.0052 0.0102,-0.0072 0.004,-0.0037 0.004,-0.0066 0.01,-0.01012 -0.006,-7.4e-4 -0.007,-0.0015 -0.008,-0.0022 0,-7.41e-4 -0.006,-0.0028 -0.012,-0.005 l -0.0173,-0.005 c -0.0106,-0.0029 -0.0222,-0.0066 -0.0332,-0.01013 -0.0222,-0.0057 -0.0445,-0.01012 -0.0661,-0.01436 -0.0431,-0.0087 -0.0848,-0.01436 -0.12516,-0.01951 -0.0811,-0.01288 -0.15734,-0.02153 -0.22141,-0.06608 -0.0539,-0.0015 0.0999,0.04233 0.0512,0.04454 -0.087,-0.03019 -0.16895,-0.08706 -0.1964,-0.09553 -0.0539,-0.02245 -0.0834,-0.02522 -0.11207,-0.02669 -0.0145,-7.41e-4 -0.0286,-0.0015 -0.046,-0.0037 -0.008,-5.65e-4 -0.0173,-0.0028 -0.0275,-0.005 -0.0113,-0.0028 -0.0187,-0.005 -0.0394,-0.01141 -0.007,-7.41e-4 -0.0173,-0.0015 -0.0289,-0.0029 0.0166,0.0087 0.031,0.02945 -0.0676,0.02945 -0.0913,-0.01013 -0.11006,-0.03957 -0.0517,-0.04105 0.0222,7.4e-4 0.0324,0.0044 0.031,0.0066 0.0303,0 0.069,-7.41e-4 0.0332,-0.01086 l -0.0123,0.0057 c -0.0446,-0.01067 -0.17042,-0.01933 -0.14026,-0.02871 -0.069,0.0022 -0.0303,0.0094 0.0212,0.0173 -0.0453,-0.0072 -0.0828,-0.01086 -0.11797,-0.01362 -0.0396,-0.0022 -0.0769,-0.0052 -0.11854,-0.0079 -0.0138,0.0028 -0.0289,0.0064 -0.0447,0.0099 -0.012,0.0022 -0.025,0.0044 -0.0388,0.0072 0.0194,-7.41e-4 0.0388,0.0037 0.0201,0.0079 -0.1741,0.03313 -0.072,0.03166 -0.18845,0.06332 -0.069,0.005 0.0173,-0.03166 -0.0978,0.0057 -0.0732,0.01086 -0.0194,-0.01436 0.008,-0.02724 -0.0339,0.01288 -0.0725,0.02301 -0.0992,0.02724 -0.0589,0.0059 -0.11998,0.0044 -0.16031,0.0087 l 0.0561,-0.01436 c -0.0332,0.0086 -0.0618,0.01288 -0.0907,0.0173 l 0.0353,0.0094 c -0.0339,0.002 -0.0626,0.0064 -0.0626,7.41e-4 -0.0332,0.01509 0.0293,0.02006 -0.0374,0.04307 -0.046,-7.4e-4 -0.13529,0.02871 -0.15388,0.01141 0.14228,-0.01509 -0.0187,-0.01638 0.10068,-0.0381 -0.0229,0.0059 -0.0512,0.01012 -0.0848,0.01233 -0.006,-7.41e-4 0.004,-0.0044 0.0138,-0.0072 -0.0166,7.41e-4 -0.0286,0.0015 -0.0388,0.002 0,-5.65e-4 -0.004,-5.65e-4 -0.008,0 -0.004,0 -0.007,0 -0.0106,7.41e-4 -0.007,7.4e-4 -0.0124,0.0022 -0.0166,0.0029 -0.01,0.0029 -0.0152,0.0064 -0.0222,0.01012 -0.0152,0.0072 -0.036,0.01583 -0.0971,0.01785 0.0173,-0.01215 -0.0339,-0.01933 -0.0567,-0.01657 0.0574,-0.0013 0.0279,0.0173 -0.0236,0.02743 -0.0913,-0.005 -0.0985,0.01013 -0.14598,0.01141 l 0.0539,0.0015 c -0.008,0.0057 -0.0222,0.0079 -0.0418,0.01086 -0.0208,0.0022 -0.0396,0.0028 -0.0812,0.0064 -0.005,0.0022 -0.008,0.0057 -0.0138,0.0087 -0.004,-0.0015 0.004,-0.0064 0.0106,-0.01288 -0.008,0.0064 -0.018,0.01288 -0.0279,0.01859 -0.008,0.005 -0.0152,0.0086 -0.0236,0.01288 -0.0159,0.0086 -0.0339,0.01583 -0.0517,0.02448 -0.0361,0.01657 -0.0742,0.0346 -0.10859,0.06258 -0.0418,0.01804 -0.0138,-0.01509 -0.051,0.0015 -0.0325,0.02724 -0.0561,0.04104 -0.0784,0.05098 -0.0187,0.0086 -0.0353,0.01657 -0.0584,0.02743 l -0.004,7.41e-4 c -0.005,0.0013 -0.008,0.0028 -0.0145,0.0042 -0.0102,0.0037 -0.0219,0.0072 -0.0339,0.01215 0.0359,0.0052 0.0403,0 -0.0346,0.03608 l 0.0518,-0.0173 0.025,-0.0094 0.0131,-0.0035 0.005,-0.0029 c 0,-0.0015 0.0159,-0.01141 0.0268,-0.01877 l 0.0335,-0.02356 -0.0317,0.02798 c -0.009,0.0086 -0.0229,0.01932 -0.0243,0.02374 -0.004,0.0028 -0.0187,0.0099 -0.0303,0.01583 0.012,-0.0037 0.0279,-0.0086 0.0314,-0.01012 0.0173,-0.01215 0.0332,-0.02448 0.0482,-0.03442 0.0159,-0.0116 0.031,-0.02246 0.0425,-0.02816 -0.0433,0.04031 -0.0403,0.0346 -0.0109,0.03019 -0.0145,0.0044 -0.0286,0.01086 -0.0418,0.01804 -0.012,0.0064 -0.0279,0.0173 -0.0335,0.02227 -0.0102,0.0042 -0.0201,0.0072 -0.03,0.0116 -0.0124,0.005 -0.0236,0.0092 -0.0361,0.01436 -0.0243,0.0079 -0.0495,0.01583 -0.0782,0.01859 l -0.006,-0.03589 c -0.0512,0.0079 -0.0957,0.02153 -0.14023,0.0381 -0.0215,0.0079 -0.0446,0.01657 -0.0676,0.02522 -0.0254,0.0086 -0.0425,0.01583 -0.0893,0.03019 -0.0159,0.01785 -0.0328,0.03589 -0.0502,0.0554 -0.0138,0.01509 -0.0293,0.03019 -0.0453,0.04657 l 0.0438,-0.0381 c -0.006,0.02743 -0.074,0.08135 -0.10933,0.126632 -0.005,-0.0116 -0.0325,0.01141 -0.0546,0.02374 0.008,0.0035 -0.0906,0.09405 -0.0827,0.120742 l -0.008,0.0042 c -0.009,-5.64e-4 -0.0346,0.0066 -0.0539,0.01012 -0.13289,0.05319 -0.13437,0.09847 -0.26099,0.151663 0.0325,-0.02945 -0.0279,-0.01141 0.0519,-0.05743 -0.0418,0.01859 -0.0806,0.03368 -0.0769,0.0416 -0.007,7.4e-4 -0.0173,0.0052 -0.0282,0.01086 -0.0152,0.0087 -0.0328,0.01804 -0.0517,0.02871 -0.0116,0.01877 -0.0229,0.03884 -0.0339,0.05687 -0.008,0.01362 -0.018,0.02651 -0.0265,0.03313 -0.006,0.01933 0,0.03148 -0.0293,0.07399 -0.005,0.0022 -0.005,-0.0044 -0.005,-0.0044 0.005,0.0044 -0.0381,0.07123 -0.004,0.04178 -0.0561,0.04675 -0.10932,0.129392 -0.16471,0.208537 -0.0569,0.07767 -0.11137,0.153873 -0.16178,0.193445 -0.0286,0.04086 -0.0604,0.08614 -0.0891,0.12792 -0.0367,0.04233 -0.0712,0.07988 -0.0999,0.113564 0,-0.0072 -0.005,-0.0042 0.008,-0.01657 -0.0928,0.08485 -0.0261,0.08062 -0.13159,0.176879 -0.0641,0.04031 0.043,-0.06258 0.007,-0.03442 -0.012,-0.0037 -0.0254,0.005 -0.041,0.01933 -0.007,0.0072 -0.0159,0.01657 -0.0243,0.02669 -0.0109,0.01288 -0.0226,0.02724 -0.0346,0.0416 -0.0109,0.04178 -0.0138,0.05908 -0.0208,0.08559 -0.007,0.02448 -0.0159,0.04822 -0.0275,0.06755 l 0.004,-0.02301 c -0.0332,0.067 -0.0346,0.176144 -0.0697,0.290444 0,0 -0.004,-0.0064 -0.006,-0.002 0,0.0072 0,0.01436 0,0.01785 0,0.0044 -0.005,0.0173 -0.01,0.02816 -0.005,0.01141 -0.008,0.02301 -0.0138,0.03515 -0.0102,0.02448 -0.0219,0.05098 -0.0346,0.07767 -0.0243,0.05393 -0.0517,0.108594 -0.0754,0.156817 0.004,-0.03884 0.018,-0.05043 -0.006,-0.0381 -0.0222,0.04602 0.0303,-0.0015 -0.0159,0.09129 -0.0102,0.01068 -0.0215,0.0243 -0.0381,0.04602 -0.004,0.0085 -0.005,0.01785 -0.006,0.02577 -0.004,0.0072 -0.005,0.01362 -0.007,0.01951 -0.005,0.01067 -0.01,0.01933 -0.0145,0.02153 l 0.006,-0.07344 0.0208,-0.0381 c -0.008,0.0044 -0.0187,0.01877 -0.0293,0.03534 0,0.0087 -0.004,0.01785 -0.004,0.02724 v 0.02098 c 0,0.01215 0,0.02503 0,0.03736 0,0.02503 0,0.04951 -0.004,0.06976 l -0.01,-0.0072 c -0.0102,0.145222 0.0127,0.155161 0,0.303327 0,7.41e-4 0,0.0022 0,0.0037 l 0.004,-0.0037 c 0.004,-0.0022 0.004,-0.0037 0.005,-0.0072 0,0.0035 0.004,0.0064 0.004,0.0087 -0.004,0.07399 -0.0325,0.05963 -0.0374,0.143749 l -0.0303,0.01933 c -0.008,0.04969 -0.0236,0.162523 -0.0433,0.258233 0,0.01785 -0.004,0.03313 -0.004,0.04749 -0.004,-0.0138 -0.004,-0.02743 -0.004,-0.04896 0.006,-0.06608 0.0208,-0.150192 0.0282,-0.21001 -0.0131,0.04896 -0.0396,0.153136 -0.0453,0.205776 0,0.01215 0,0.01509 0,0.01933 0,-0.0057 0,-0.01141 0,-0.01859 0.004,-0.02448 0.005,-0.04252 0.0138,-0.05982 0,0.01951 0,0.03663 -0.004,0.06184 0,0.06552 -0.005,0.135283 -0.018,0.220134 -0.0131,-0.0086 -0.0243,0.01712 -0.0339,0.05963 -0.005,0.0208 -0.01,0.04675 -0.0138,0.07252 -0.005,0.03018 -0.0102,0.06111 -0.0159,0.09203 0.004,0.01878 0.006,0.03736 0.009,0.0554 0.004,0.01509 0.004,0.03019 0.006,0.04381 0,0.02743 0.004,0.05117 0,0.067 0.0127,0.04528 0.0229,0.09129 0.0328,0.138044 0.005,0.02301 0.01,0.04601 0.0131,0.06976 l 0.006,0.03515 c 0,0.01012 0.004,0.02798 0.004,0.02871 -0.004,0.05393 -0.006,0.107857 -0.009,0.163259 -0.004,0.05816 -0.005,0.118533 -0.006,0.181113 0.0381,-0.08264 0,0.06902 0.0374,0.05466 0,0.01877 0,0.03387 0,0.04454 0.005,0.01804 0.007,0.02595 0.008,0.0324 0,0.0057 0,0.01012 0,0.01159 l -0.004,-0.01159 c 0,0.005 0,0.0079 0,0.01233 v 0 l 0.018,0.16602 c 0,0.04104 -0.0208,-0.04822 -0.0275,-0.04178 0.0268,0.117245 -0.004,0.05319 0.007,0.132338 0.009,-0.01932 0.0286,0.03589 0.0401,0.103624 l -0.006,-0.09792 c 0.0131,0.03387 0.0212,0.05982 0.0243,0.08135 0.004,0.01067 0.004,0.0208 0.005,0.02945 0.004,0.01068 0,0.01362 0.004,0.03019 0.004,0.01012 0.004,0.01509 0.004,0.02006 l 0.004,0.01583 c 0,0.01086 0.004,0.02227 0.007,0.0346 0.007,0.02503 0.0187,0.05595 0.0425,0.09921 l -0.031,-0.04528 c 0.0381,0.07767 0.11631,0.297622 0.17614,0.365171 0.004,0.01583 0,0.03884 -0.0166,0.0044 0.0201,0.05448 0.0446,0.110619 0.0705,0.167493 0.0272,0.0589 0.0552,0.118533 0.0812,0.175407 0.0159,0.0208 0.0317,0.0416 0.0475,0.06184 0.0131,0.01859 0.0265,0.03663 0.0388,0.05393 0.025,0.03515 0.0467,0.06829 0.0639,0.09994 l -0.0162,-0.0079 c 0.0236,0.03019 0.0525,0.04528 0.0725,0.09056 -0.004,0 -0.0166,-0.0079 -0.006,0.0072 0.004,0.005 0.0138,0.01436 0.0236,0.02595 0.006,0.0057 0.0113,0.01215 0.0173,0.01933 l 0.01,0.01086 0.0152,0.01933 c 0.0116,0.0087 0.0236,0.0173 0.0346,0.02522 0.008,0.0072 0.0173,0.01362 0.0236,0.02006 l -0.041,-0.01859 c 0.15092,0.133625 0.26247,0.165283 0.3968,0.268908 -0.018,0.0208 0.0943,0.132154 0.15039,0.187555 l -0.005,7.41e-4 c 0.0821,0.07399 0.15607,0.134362 0.22878,0.193445 0.0366,0.02797 0.0725,0.05669 0.10989,0.08632 0.0187,0.01436 0.0374,0.02871 0.0561,0.04381 0.01,0.0079 0.0194,0.01583 0.0286,0.02301 0.0109,0.0094 0.0215,0.01785 0.0324,0.02724 0.0102,0.0059 0.0208,0.01159 0.0325,0.01877 0.0589,0.06037 0.19622,0.150192 0.32286,0.234306 0.0683,0.05614 0.14651,0.120926 0.20486,0.176144 -0.0229,-0.02503 0.0173,-0.01362 0.0488,0.0087 0.0166,0.01583 0.0418,0.03239 0.0641,0.04675 0.0109,0.0079 0.0208,0.01436 0.0279,0.02006 0.006,0.0052 0.0166,0.01528 0.0166,0.01951 0,0.0029 0,0.005 0,0.0064 l -0.004,-7.4e-4 -0.0187,-0.01583 c 0,0.0044 0.007,0.01307 0.0152,0.02153 0.0212,0.01509 0.0275,0.02025 0.0425,0.02963 0.0145,0.0085 0.0293,0.01638 0.046,0.02503 0.0339,0.01583 0.0705,0.03387 0.10272,0.04896 l 0.0268,-0.02375 c 0.0261,0.0208 0.0574,0.04031 0.0898,0.0589 0.0166,0.01012 0.0339,0.01951 0.0517,0.02816 0.0226,0.01068 0.0447,0.02153 0.067,0.03221 l 0.0819,0.0029 c 0.0229,0 0.0453,7.41e-4 0.0675,0.0015 0.0446,0 0.0878,7.41e-4 0.1281,0.0015 0.0401,7.41e-4 0.0775,0.002 0.10915,0.0064 0.0159,0.0015 0.031,0.0035 0.044,0.0064 0.0127,0.0029 0.0272,0.0064 0.0258,0.01012 0,-0.0029 0.018,0.0015 0.0303,0.005 0.0138,0.0029 0.0275,0.0057 0.0418,0.0094 0.0279,0.0072 0.0554,0.01362 0.0812,0.0173 l -0.008,0.01583 c 0.0504,0.01785 0.0913,0.03221 0.13306,0.04602 0.0208,0.0072 0.0418,0.01509 0.0641,0.02153 0.0243,0.0079 0.0502,0.01657 0.0804,0.02577 0.0243,0.0029 0.0655,0.0072 0.1143,0.01159 l -0.0374,0.0086 c 0.0992,0.01288 0.13159,-0.0346 0.22289,-0.02448 l 0.0243,0.02945 0.0639,0.0086 0.0784,0.01141 0.10932,-0.02301 0.097,-0.0208 c 0.0641,-0.01509 0.12739,-0.03313 0.18775,-0.05743 0,0.0042 -0.005,0.01288 -0.0318,0.0208 0.0812,-0.01436 0.30995,-0.0762 0.27185,-0.09921 0.004,0.01012 0.0408,0 0.0883,-0.01804 0.0229,-0.0094 0.0497,-0.02006 0.0755,-0.03092 0.0131,-0.0057 0.0261,-0.01067 0.0381,-0.01657 0.006,-0.0028 0.0124,-0.005 0.018,-0.0079 l 0.01,-0.0035 0.004,-0.0029 c 0.004,-7.4e-4 0.0131,-0.0028 0.0194,-0.005 l -0.0124,0.01933 c 0.0757,-0.03221 0.0769,-0.03884 0.18627,-0.06037 0.0268,-0.0015 0.0254,0.01012 -0.0106,0.01086 0.0883,-0.0029 0.0661,-0.02522 0.17243,-0.03092 l -0.0374,0.01583 c 0.0883,-0.01012 0.0812,-0.01509 0.12791,-0.0346 0.0561,-0.01436 0.17043,-0.01933 0.18553,-0.0064 0.0109,-0.01067 0.0576,-0.03018 0.11081,-0.03295 0.008,0.005 -0.0102,0.01067 -0.0194,0.01435 0.0325,-0.0022 0.0611,-0.0059 0.0863,-0.01012 0.0127,-0.0022 0.0254,-0.0042 0.0366,-0.0064 0.0166,-0.0029 0.0317,-0.0064 0.046,-0.0094 0.0258,-0.02374 0.0489,-0.04454 0.0712,-0.06608 0.0201,-0.01804 0.0416,-0.03534 0.0675,-0.05043 0.005,0.0037 0.0131,7.41e-4 0.0201,-0.0028 -0.0676,0.05522 -0.12644,0.103441 -0.15515,0.126448 -0.018,0.0022 -0.0289,0.0037 -0.0317,0.0037 0,0.005 0.0173,0.0064 0.0366,0.0072 0.0293,-0.01583 0.0762,-0.04602 0.0113,0.02577 0,0 0,7.4e-4 -0.004,7.4e-4 0,0 0,0 0.004,-7.4e-4 0.0124,-0.01215 0.0261,-0.02577 0.0403,-0.04012 0.008,-0.0079 0.0159,-0.0173 0.0236,-0.02669 0.0173,-0.01877 0.0353,-0.03884 0.0532,-0.0589 0.0381,-0.04031 0.0784,-0.07988 0.11723,-0.106386 0.004,-0.0022 0.008,-0.0037 0.012,-0.0037 l -0.006,0.0072 c 0.0173,-0.01288 0.0317,-0.02595 0.0438,-0.03957 0.0243,-0.0173 0.0418,-0.02871 0.0626,-0.04528 0.004,7.41e-4 0.004,0.0015 0.005,0.0015 0,0 0.004,7.41e-4 0.005,0 0.005,-0.0015 0.0102,-0.0037 0.0159,-0.0057 0.0106,-0.0052 0.0236,-0.01086 0.0359,-0.01657 0.025,-0.01233 0.0517,-0.02522 0.0705,-0.0346 -0.0109,-0.01362 0.0467,-0.03884 -0.012,-0.02577 0.007,-0.0022 -0.007,0.0057 -0.0361,0.02006 -0.006,0.0037 -0.0145,0.0072 -0.018,0.01012 0,-7.41e-4 0,-0.0015 0.004,-0.0029 l -0.074,0.03663 -0.0187,0.01509 c 0.007,-0.0079 0.0138,-0.01638 0.0152,-0.02006 0.004,-0.0042 0.0219,-0.01509 0.0353,-0.02153 0.0145,-0.0079 0.031,-0.01362 0.0503,-0.01951 0.0173,-0.0208 0.0374,-0.04233 0.0497,-0.05393 0.069,-0.0064 0.18976,-0.04877 0.21206,-0.04307 0.0102,-0.005 0.0194,-0.01012 0.0293,-0.01583 0.0109,-0.0057 0.0229,-0.01215 0.0346,-0.01859 0.0286,-0.02098 0.0582,-0.04325 0.0884,-0.06479 0.0275,-0.02153 0.0554,-0.04233 0.0821,-0.06258 0.0517,-0.0416 0.0963,-0.08043 0.12149,-0.115036 0.0339,-0.02724 0.0416,-0.0173 0.0633,-0.02577 -0.0236,0.0208 -0.0433,0.03295 -0.0534,0.04528 0.008,-0.0066 0.0187,-0.01454 0.0296,-0.02227 0.012,-0.01012 0.0265,-0.02025 0.0409,-0.03092 0.0123,-0.02098 0.0243,-0.04178 0.0368,-0.06184 0.01,-0.01804 0.0201,-0.03534 0.0279,-0.05043 0.0173,-0.03166 0.0272,-0.05669 0.0243,-0.06755 0.0653,-0.08338 -0.0145,0.06111 0.0604,-0.06258 l -0.005,0.02025 c 0.046,-0.05466 0.0814,-0.108594 0.11155,-0.162523 0.0325,-0.0519 0.0604,-0.104361 0.0883,-0.156817 0.0583,-0.105649 0.11578,-0.216452 0.23008,-0.327807 -0.0152,0.01583 -0.0229,0.02374 -0.0286,0.02522 0.0698,-0.08356 0.1373,-0.173382 0.20137,-0.260994 0.048,-0.05908 0.097,-0.116509 0.1452,-0.174855 l 0.0733,-0.08761 0.0806,-0.09276 0.0145,-0.08632 0.0152,-0.07694 c 0.0109,-0.05025 0.0215,-0.10068 0.0346,-0.150191 0.008,-0.04031 0.0123,-0.06626 0.013,-0.08706 0,-0.0099 0,-0.01932 0,-0.02871 v -0.01288 c 0,-0.0037 0,-0.0066 -0.004,-0.01012 0,-0.0029 0,-0.0064 0,-0.0094 0,-0.005 0.004,-0.01067 0.004,-0.01657 l 0.0261,-0.01141 0.0275,-0.10436 c 0.0173,-0.04878 0.0416,-0.08982 0.0676,-0.130129 0.0127,-0.01933 0.0265,-0.03939 0.0401,-0.05964 0.007,-0.01067 0.0138,-0.0208 0.0208,-0.0324 l 0.01,-0.01583 0.0138,-0.0243 c 0,-0.0138 0.004,-0.02816 0.006,-0.04252 0,-0.01215 0.004,-0.02448 0.004,-0.03736 0.004,-0.02522 0.004,-0.05246 0,-0.08117 l -0.0152,0.02301 c 0.0102,-0.06773 0.0166,-0.21498 0.0303,-0.202096 -0.004,-0.0072 -0.0106,-0.02374 0,-0.0497 l 0.0102,-5.64e-4 v -0.06773 l -0.0215,-0.104914 c -0.008,-0.129392 0.0403,0.01583 0.0215,-0.17191"
       style="fill:#21201d;fill-opacity:1;fill-rule:nonzero;stroke:none;stroke-width:0.184057"
       id="path688" />
    <path
       d="m 486.92173,-35.283198 c -0.0169,0.02025 -0.0335,0.03313 -0.0473,0.05614 -0.0131,0.02227 -0.0201,0.04896 -0.0346,0.06976 -0.049,0.06829 -0.10287,0.134362 -0.12147,0.217189 -0.0201,0.08761 -0.0784,0.160314 -0.11211,0.24222 -0.0226,0.05393 -0.0554,0.08117 -0.0935,0.123687 -0.0433,0.04822 -0.0742,0.102704 -0.12516,0.144485 -0.0208,0.0173 -0.0317,0.02595 -0.0482,0.04822 -0.0317,0.03957 -0.051,0.06111 -0.0941,0.02503 -0.0526,-0.0438 -0.0986,-0.10344 -0.14393,-0.154424 -0.0646,-0.0727 -0.13804,-0.136019 -0.20263,-0.209274 -0.0683,-0.0762 -0.1445,-0.148167 -0.21647,-0.220685 -0.0732,-0.07344 -0.14376,-0.151112 -0.22066,-0.22087 -0.0411,-0.03736 -0.0849,-0.07105 -0.12665,-0.107122 -0.0159,0.04178 -0.031,0.08356 -0.0467,0.125896 -0.0328,0.08706 -0.0646,0.158842 -0.079,0.251607 -0.006,0.03608 -0.0102,0.07197 -0.0123,0.107122 0.0282,0.01307 0.0561,0.02743 0.0799,0.03663 0.0381,0.01583 0.0784,0.03828 0.118,0.04969 0.0162,0.005 0.0314,7.41e-4 0.0453,0.01436 -0.0467,0.0116 -0.10509,0.04602 -0.14594,0.07123 -0.0332,0.01933 -0.0662,0.04105 -0.0979,0.06258 0.006,0.03589 0.0173,0.07105 0.0403,0.103441 0.0359,0.05172 0.0834,0.09847 0.12587,0.144485 0.046,0.05043 0.0941,0.09792 0.14009,0.148167 0.0289,0.03166 0.0504,0.06534 0.0821,0.09424 0.0381,0.03589 0.069,0.06829 0.10142,0.109883 0.0604,0.0762 0.14154,0.13878 0.2098,0.207065 0.0346,0.0346 0.0935,0.06976 0.1366,0.09148 0.0447,0.02227 0.0892,0.01859 0.13599,0.02503 0.0346,0.0052 0.0676,0.01233 0.10069,0.01804 0.0488,-0.102152 0.0574,-0.226576 0.11927,-0.325783 0.0166,0.0066 0.0431,0.02522 0.0554,0.0381 0.0152,0.01583 0.0208,0.0497 0.0286,0.06902 0.0166,0.0381 0.0381,0.07418 0.0539,0.112275 0.0113,0.02577 0.0166,0.0554 0.0254,0.08264 0,0.0035 0.005,0.01086 0.009,0.01933 0.004,-0.0013 0.007,-0.0013 0.0116,-0.002 0.0317,-0.0044 0.0503,0.002 0.0804,-0.0138 0.0173,-0.0092 0.0317,-0.02153 0.0505,-0.02871 0.0317,-0.01141 0.049,-0.0072 0.0804,-0.02871 0.0159,-0.01086 0.0317,-0.02301 0.0467,-0.03515 0.0942,-0.08485 0.19417,-0.197862 0.26025,-0.304984 0.0411,-0.06755 0.0633,-0.145222 0.0972,-0.217741 0.0303,-0.06626 0.0626,-0.131601 0.0913,-0.19915 0.0286,-0.06553 0.0683,-0.132338 0.0826,-0.202096 0.006,-0.02301 0.01,-0.04675 0.0116,-0.06976 -0.0712,0.0094 -0.14394,0.01804 -0.21075,7.41e-4 -0.004,-0.02871 0.0475,-0.07399 0.0653,-0.09626 0.0418,-0.0519 0.0863,-0.110067 0.14965,-0.126632 0,0 0.004,-7.41e-4 0.005,-7.41e-4 0,-0.03663 0,-0.07252 -0.005,-0.107122 -0.0102,-0.05743 -0.0317,-0.115772 -0.046,-0.172462 -0.0145,-0.05982 -0.0475,-0.110066 -0.074,-0.165468 -0.0289,-0.06313 -0.0547,-0.129393 -0.09,-0.189028 -0.004,-0.005 -0.007,-0.01012 -0.01,-0.01509 -0.0324,0.04307 -0.0648,0.08632 -0.0971,0.128656 -0.0446,0.0589 -0.0898,0.120006 -0.13878,0.174671"
       style="fill:#21201d;fill-opacity:1;fill-rule:nonzero;stroke:none;stroke-width:0.184057"
       id="path690" />
    <path
       d="m 485.64842,-35.311911 c 0.0303,0.03018 0.0648,0.05761 0.0893,0.09129 0.0201,0.02945 0.0317,0.0554 0.0596,0.07841 0.0769,0.06405 0.15017,0.136571 0.23375,0.193445 0.0438,0.02945 0.097,0.05466 0.12717,0.09847 0.0272,0.0416 0.0353,0.03957 0.0863,0.03957 0.0321,0 0.0718,-0.0072 0.10199,-0.01657 0.0583,-0.01878 0.0677,-0.08706 0.0964,-0.132338 0.0201,-0.03166 0.0495,-0.0554 0.0755,-0.08117 0.0201,-0.01951 0.0388,-0.03957 0.0547,-0.06111 0.0254,-0.0346 0.0403,-0.07123 0.0539,-0.110803 0.0438,-0.119269 0.10142,-0.242956 0.18553,-0.338666 0.031,-0.03515 0.0675,-0.05816 0.097,-0.09626 0.0254,-0.03313 0.0482,-0.06755 0.0727,-0.09994 -0.0138,-0.0057 -0.0289,-0.0116 -0.046,-0.01951 -0.0526,-0.02374 -0.0893,-0.0438 -0.15039,-0.0473 -0.0626,-0.0037 -0.12513,-0.01583 -0.18828,-0.01454 -0.0641,7.41e-4 -0.11229,-0.0079 -0.17265,-0.0243 0,7.41e-4 0,0.002 0,0.0028 -0.0166,0.03607 -0.0279,0.06828 -0.0381,0.106385 -0.004,0.01233 -0.008,0.0554 -0.0201,0.06184 -0.0317,0.02098 -0.0497,-0.03884 -0.0618,-0.06184 -0.031,-0.06111 -0.0668,-0.117061 -0.0977,-0.176879 -0.0727,-0.01362 -0.14171,-0.01565 -0.21643,-0.01565 -0.11007,0 -0.27905,0.106385 -0.2969,0.124975 -0.0561,0.05761 -0.10142,0.119454 -0.15183,0.181297 -0.0328,0.04086 -0.0661,0.08338 -0.0955,0.12792 0.008,0.01013 0.0152,0.02006 0.0254,0.02945 0.0559,0.0554 0.12072,0.104177 0.17742,0.161051"
       style="fill:#21201d;fill-opacity:1;fill-rule:nonzero;stroke:none;stroke-width:0.184057"
       id="path692" />
    <path
       d="m 485.0324,-39.986614 c 0,0 0,0 -0.004,0 0,0 0,7.41e-4 0,7.41e-4 0,0 0,-7.41e-4 0,-7.41e-4 0,0 0,0 0.004,0"
       style="fill:#21201d;fill-opacity:1;fill-rule:nonzero;stroke:none;stroke-width:0.184057"
       id="path694" />
    <path
       d="m 488.56388,-32.290784 c 0.005,-0.0029 0.006,-0.0042 0.0109,-0.0072 -0.006,0.0015 -0.0123,0.0029 -0.0187,0.0042 -0.004,0.0037 -0.005,0.0074 -0.008,0.01012 0.006,-0.0022 0.0109,-0.005 0.0159,-0.0072"
       style="fill:#21201d;fill-opacity:1;fill-rule:nonzero;stroke:none;stroke-width:0.184057"
       id="path696" />
    <path
       d="m 488.85157,-39.400021 c 0.004,0.0022 0.008,0.0037 0.01,0.0057 -0.004,-0.002 -0.004,-0.0028 -0.005,-0.0035 z"
       style="fill:#21201d;fill-opacity:1;fill-rule:nonzero;stroke:none;stroke-width:0.184057"
       id="path698" />
    <path
       d="m 490.29013,-37.45232 c -0.051,-0.150191 0,0.03589 -0.069,-0.112828 l 0.0512,0.115037 c -0.004,-0.02301 -0.008,-0.05246 0.018,-0.0022"
       style="fill:#21201d;fill-opacity:1;fill-rule:nonzero;stroke:none;stroke-width:0.184057"
       id="path700" />
    <path
       d="m 490.10185,-37.927558 c -0.0201,-0.0381 -0.0261,-0.04749 -0.0131,0.0022 0.0258,0.06184 0.008,-0.0044 0.0131,-0.0022"
       style="fill:#21201d;fill-opacity:1;fill-rule:nonzero;stroke:none;stroke-width:0.184057"
       id="path702" />
    <path
       d="m 488.14055,-39.826299 0.0155,-0.0064 c -0.0539,-0.04896 -0.004,0.0057 -0.0155,0.0064"
       style="fill:#21201d;fill-opacity:1;fill-rule:nonzero;stroke:none;stroke-width:0.184057"
       id="path704" />
    <path
       d="m 487.32517,-40.017535 -0.0841,-0.01509 0.0618,0.01141 z"
       style="fill:#21201d;fill-opacity:1;fill-rule:nonzero;stroke:none;stroke-width:0.184057"
       id="path706" />
    <path
       d="m 483.10126,-38.612069 0.025,-0.0013 c 0.018,-0.02963 0.004,-0.04822 -0.025,0.0013"
       style="fill:#21201d;fill-opacity:1;fill-rule:nonzero;stroke:none;stroke-width:0.184057"
       id="path708" />
    <path
       d="m 482.26786,-36.770017 c 0.004,-0.0064 0.004,-0.01067 0.006,-0.01583 v -0.0079 c -0.004,0.0037 -0.004,0.0044 -0.004,0.0072 -0.004,0.0015 -0.006,0.0072 -0.0102,0.01583 -0.004,0.0079 -0.006,0.01657 -0.008,0.02595 -0.006,0.01804 -0.0102,0.03663 -0.0102,0.05246 0.006,-0.01877 0.0127,-0.03736 0.0187,-0.05393 0.004,-0.0086 0.006,-0.01657 0.008,-0.02374"
       style="fill:#21201d;fill-opacity:1;fill-rule:nonzero;stroke:none;stroke-width:0.184057"
       id="path710" />
    <path
       d="m 484.84264,-31.844996 0.0718,0.02798 -0.0325,-0.01657 z"
       style="fill:#21201d;fill-opacity:1;fill-rule:nonzero;stroke:none;stroke-width:0.184057"
       id="path712" />
  </g>
</svg>
