<?xml version="1.0" encoding="UTF-8" standalone="no"?>
<!-- Created with Inkscape (http://www.inkscape.org/) -->

<svg
   width="8.5616798mm"
   height="8.5959148mm"
   viewBox="0 0 8.5616798 8.5959148"
   version="1.1"
   id="svg4054"
   inkscape:version="1.1.2 (0a00cf5339, 2022-02-04)"
   sodipodi:docname="rtm3.svg"
   xmlns:inkscape="http://www.inkscape.org/namespaces/inkscape"
   xmlns:sodipodi="http://sodipodi.sourceforge.net/DTD/sodipodi-0.dtd"
   xmlns="http://www.w3.org/2000/svg"
   xmlns:svg="http://www.w3.org/2000/svg">
  <sodipodi:namedview
     id="namedview4056"
     pagecolor="#ffffff"
     bordercolor="#666666"
     borderopacity="1.0"
     inkscape:pageshadow="2"
     inkscape:pageopacity="0.0"
     inkscape:pagecheckerboard="0"
     inkscape:document-units="mm"
     showgrid="false"
     inkscape:zoom="0.66368547"
     inkscape:cx="-1009.5143"
     inkscape:cy="425.65344"
     inkscape:window-width="2560"
     inkscape:window-height="1376"
     inkscape:window-x="0"
     inkscape:window-y="0"
     inkscape:window-maximized="1"
     inkscape:current-layer="layer1" />
  <defs
     id="defs4051" />
  <g
     inkscape:label="Layer 1"
     inkscape:groupmode="layer"
     id="layer1"
     transform="translate(-372.05307,-35.966373)">
    <path
       d="m 376.62965,36.09103 c 0.0171,0.0035 0.025,0.0035 0.0265,0.0021 -0.0166,-0.0028 -0.0302,-0.005 -0.0265,-0.0021"
       style="fill:#21201d;fill-opacity:1;fill-rule:nonzero;stroke:none;stroke-width:0.184057"
       id="path600" />
    <path
       d="m 376.23135,35.991822 c 0.008,7.05e-4 0.0158,0.0014 0.0236,0.0021 -0.009,-0.0021 -0.0179,-0.0035 -0.0236,-0.0021"
       style="fill:#21201d;fill-opacity:1;fill-rule:nonzero;stroke:none;stroke-width:0.184057"
       id="path602" />
    <path
       d="m 378.73249,36.766705 c -0.008,0.0014 0.0195,0.02596 0.0403,0.04896 z"
       style="fill:#21201d;fill-opacity:1;fill-rule:nonzero;stroke:none;stroke-width:0.184057"
       id="path604" />
    <path
       d="m 379.49964,37.541222 0.0116,0.01566 c 0.005,0.0028 0.0107,0.0059 0.0166,0.0072 z"
       style="fill:#21201d;fill-opacity:1;fill-rule:nonzero;stroke:none;stroke-width:0.184057"
       id="path606" />
    <path
       d="m 379.96567,38.176776 c -0.007,-0.0072 -0.0252,-0.0066 -0.0339,-0.0066 0.008,0.0028 0.0173,0.01012 0.023,0.01528 10e-4,7.05e-4 0.004,0.0028 0.008,0.0065 0.003,-0.0021 0.004,-0.0065 0.004,-0.01379 0,-7.06e-4 -7.1e-4,-0.0014 -10e-4,-0.0014"
       style="fill:#21201d;fill-opacity:1;fill-rule:nonzero;stroke:none;stroke-width:0.184057"
       id="path608" />
    <path
       d="m 380.42213,39.332843 0.006,0.02152 c -0.002,-0.0057 -0.004,-0.0151 -0.006,-0.02152"
       style="fill:#21201d;fill-opacity:1;fill-rule:nonzero;stroke:none;stroke-width:0.184057"
       id="path610" />
    <path
       d="m 379.15324,37.075188 c 7.1e-4,-0.0028 -7.1e-4,-0.0065 -0.002,-0.0094 -10e-4,0.0014 0,0.0052 0.002,0.0094"
       style="fill:#21201d;fill-opacity:1;fill-rule:nonzero;stroke:none;stroke-width:0.184057"
       id="path612" />
    <path
       d="m 380.49906,40.276139 0.004,0.01214 c 0.004,7.06e-4 0.007,0.0014 0.009,7.06e-4 z"
       style="fill:#21201d;fill-opacity:1;fill-rule:nonzero;stroke:none;stroke-width:0.184057"
       id="path614" />
    <path
       d="m 375.48721,36.019063 h 0.004 c 0.018,-0.005 0.007,-0.0028 -0.004,0"
       style="fill:#21201d;fill-opacity:1;fill-rule:nonzero;stroke:none;stroke-width:0.184057"
       id="path616" />
    <path
       d="m 372.15322,41.207105 c -0.006,-0.0042 -0.0144,-0.01362 -0.0151,-0.0079 0,0.0086 7.1e-4,0.01803 0.009,0.04031 -0.0193,-0.07546 0.0727,0.102891 0.0374,-0.0079 0,0.0065 -0.0179,-0.01362 -0.0309,-0.02448"
       style="fill:#21201d;fill-opacity:1;fill-rule:nonzero;stroke:none;stroke-width:0.184057"
       id="path618" />
    <path
       d="m 373.94353,36.766155 c 0.005,7.06e-4 0.0114,-0.0014 0.0186,-0.0037 -10e-4,-0.0014 -0.006,-7.05e-4 -0.0186,0.0037"
       style="fill:#21201d;fill-opacity:1;fill-rule:nonzero;stroke:none;stroke-width:0.184057"
       id="path620" />
    <path
       d="m 375.09462,36.25208 -0.0287,0.01214 c 0.0114,-0.0037 0.0201,-0.0079 0.0287,-0.01214"
       style="fill:#21201d;fill-opacity:1;fill-rule:nonzero;stroke:none;stroke-width:0.184057"
       id="path622" />
    <path
       d="m 373.43241,37.181572 c -0.0138,0.01012 -0.0195,0.01235 -0.0353,0.02963 0.002,-7.05e-4 0.004,-0.0014 0.006,-0.0028 0.005,-0.0072 0.0123,-0.0151 0.0289,-0.0267"
       style="fill:#21201d;fill-opacity:1;fill-rule:nonzero;stroke:none;stroke-width:0.184057"
       id="path624" />
    <path
       d="m 372.96932,37.689942 c 0.003,-0.0028 0.007,-0.0057 0.0101,-0.0086 0.004,-0.0057 0.008,-0.01214 0.0121,-0.01785 z"
       style="fill:#21201d;fill-opacity:1;fill-rule:nonzero;stroke:none;stroke-width:0.184057"
       id="path626" />
    <path
       d="m 380.40206,39.305418 c 0,0.0044 -7e-4,0.0066 -7e-4,0.0094 l -0.007,-0.03884 c 0.003,0.01012 0.006,0.01951 0.008,0.02946 m -1.38116,1.113 c -0.0504,-0.03369 -0.10859,-0.04528 -0.15958,-0.07767 -0.0598,-0.03736 -0.12019,-0.06902 -0.19123,-0.07473 -0.0821,-0.0065 -0.15037,0.01584 -0.22878,0.03607 -0.0653,0.01637 -0.13289,0.03221 -0.19694,0.05595 -0.0525,0.02025 -0.10418,0.0438 -0.15663,0.06331 -0.12664,0.04823 -0.23946,0.163996 -0.31216,0.275354 -0.0582,0.09203 -0.11062,0.1905 -0.15166,0.291913 -0.0173,0.04104 -0.0423,0.07988 -0.0554,0.122216 -0.0136,0.04454 -0.009,0.09055 -0.009,0.136571 -7.1e-4,0.05319 0.0123,0.103625 0.0237,0.155346 0.009,0.03957 0.018,0.07841 0.0331,0.115771 0.0381,0.09129 0.0777,0.179641 0.12589,0.265962 0.0438,0.07915 0.1143,0.120192 0.1789,0.180563 0.0403,0.03736 0.0814,0.06681 0.11081,0.115037 0.023,0.03736 0.0245,0.08614 0.0302,0.128654 0.006,0.04528 0.0295,0.097 0.0193,0.143013 -0.0129,0.05964 -0.0898,0.09847 -0.13436,0.133075 -0.0331,0.02596 -0.0663,0.05319 -0.10491,0.06976 -0.0512,0.02152 -0.1086,0.01785 -0.15977,0.03663 -0.0309,0.01161 -0.0344,0.01436 -0.051,-0.01436 -0.018,-0.02946 -0.0403,-0.03589 -0.069,-0.05319 -0.0252,-0.0151 -0.0497,-0.03313 -0.0698,-0.0554 -0.0107,-0.01139 -0.0201,-0.02374 -0.0287,-0.03663 -0.046,-0.06681 -0.0769,-0.145958 -0.10639,-0.221421 -0.0302,-0.07767 -0.0814,-0.145958 -0.11356,-0.222896 -0.041,-0.09847 -0.0893,-0.193445 -0.11375,-0.298358 -0.0215,-0.09571 -0.0114,-0.196388 -0.0114,-0.293387 0,-0.08264 0.006,-0.163259 0.0101,-0.245167 0.002,-0.04749 0.0144,-0.08853 0.0287,-0.133808 0.0144,-0.04528 0.0215,-0.09277 0.0351,-0.138046 0.0136,-0.04675 0.0317,-0.09479 0.0512,-0.138779 0.0216,-0.04951 0.0567,-0.08982 0.079,-0.138779 0.0655,-0.147984 0.1848,-0.264492 0.33002,-0.334984 0.0532,-0.02579 0.10933,-0.0416 0.16473,-0.06332 0.0374,-0.0151 0.0755,-0.03295 0.11356,-0.04804 0.0416,-0.0151 0.0819,-0.0079 0.12221,-0.02741 0.0351,-0.01711 0.0661,-0.04381 0.10418,-0.05743 0.023,-0.0072 0.0467,-0.0094 0.0697,-0.01803 0.0353,-0.01214 0.0675,-0.03164 0.10216,-0.04749 0.0502,-0.02374 0.1143,-0.03221 0.16896,-0.02078 0.0188,0.0037 0.0366,0.01012 0.0561,0.01288 0.0769,0.01235 0.1581,0.0044 0.2343,0.02448 0.0438,0.01086 0.0826,0.01012 0.12295,0.03164 0.0539,0.0302 0.0885,0.07546 0.13583,0.113563 0.0433,0.03534 0.0849,0.07123 0.12516,0.109332 0.0267,0.02448 0.0517,0.05025 0.0755,0.07693 0.0166,0.01803 0.0331,0.03663 0.049,0.05467 0.0238,0.02649 0.0468,0.05319 0.069,0.0797 0.0453,0.05319 0.0653,0.107121 0.0849,0.173383 0.0136,0.05025 0.0144,0.09056 0.0144,0.142275 0,0.0381 0.004,0.07915 -0.002,0.117983 -0.005,0.02872 -0.0114,0.05816 -0.0158,0.08706 -0.003,0.01933 0.001,0.04012 -0.004,0.0589 -0.007,0.02374 -0.0252,0.0438 -0.0339,0.06681 -0.0136,0.03736 -0.0144,0.09645 -0.0445,0.125159 -0.005,-0.02081 -10e-4,-0.04454 -10e-4,-0.06626 0,-0.0473 0.002,-0.09626 -0.001,-0.14375 -0.0114,-0.125712 -0.0762,-0.258787 -0.14302,-0.362963 -0.0252,-0.04104 -0.0547,-0.07841 -0.0804,-0.117983 -0.0346,-0.05245 -0.0633,-0.113562 -0.11724,-0.1489 m -3.55744,-3.551767 c 0.0322,-0.0085 0.069,-0.0028 0.10123,-0.0028 0.0519,7.06e-4 0.10289,-0.0014 0.15387,0.0021 0.09,0.0072 0.17762,0.0065 0.26688,0.0077 0.0596,0 0.10197,0.0021 0.1524,0.03037 0.0661,0.03737 0.13657,0.05099 0.20909,0.07178 0.0907,0.0267 0.17908,0.05687 0.25749,0.111541 0.0596,0.0416 0.11651,0.09276 0.16529,0.145959 0.0561,0.0611 0.1108,0.127183 0.16325,0.191233 0.1,0.122217 0.15093,0.271671 0.20357,0.418363 0.028,0.07694 0.0545,0.150379 0.0883,0.225104 0.0346,0.07473 0.0316,0.147429 0.026,0.227863 -0.0166,0.212037 -0.10509,0.397566 -0.20136,0.583833 -0.0985,0.193446 -0.21718,0.374558 -0.33295,0.557142 -0.0401,0.06332 -0.10123,0.120191 -0.12571,0.1905 -0.0109,0.03164 -0.0295,0.05467 -0.0482,0.08135 -0.0438,0.06184 -0.0733,0.123687 -0.10491,0.191975 -0.0749,0.157367 -0.12442,0.309767 -0.12884,0.484624 -0.003,0.09847 -0.01,0.196205 -0.01,0.294676 0,0.09497 0.008,0.189762 0.0151,0.284737 0.0151,0.184059 0.048,0.373821 0.10933,0.548676 0.0574,0.161053 0.16381,0.309033 0.25363,0.452783 0.0455,0.07344 0.0935,0.136754 0.14964,0.202096 0.0431,0.04896 0.0898,0.103624 0.11724,0.164733 0.006,0.01436 0.0114,0.02946 0.0179,0.0438 0.001,0.0035 0.004,0.0072 0.006,0.01087 0.0143,0.02575 0.0366,0.04307 0.0559,0.06387 0.0237,0.02741 0.0381,0.06037 0.0576,0.08982 0.0215,0.03681 0.0475,0.06553 0.074,0.09792 0.0201,0.02448 0.0339,0.06387 0.0237,0.09553 -0.0351,0.0065 -0.0618,-0.0035 -0.0957,0.01584 -0.0258,0.01436 -0.0502,0.03164 -0.0762,0.04381 -0.0208,0.0074 -0.0409,0.01658 -0.0604,0.02596 -0.0144,0.01161 -0.0302,0.02081 -0.0475,0.02798 -0.0265,0.01161 -0.0582,0.02173 -0.0861,0.02889 -0.0316,0.0079 -0.0633,0.02226 -0.0965,0.023 -0.0596,0.0028 -0.12,-7.06e-4 -0.17963,-7.06e-4 h -0.14891 c -0.028,0 -0.0683,0.0065 -0.0963,0.0014 -0.0131,-0.0028 -0.0245,-0.0094 -0.0331,-0.01951 -0.0114,-0.01013 -0.0252,-0.01362 -0.0396,-0.01288 -0.0173,-0.0057 -0.0302,-0.0094 -0.046,-0.02025 -0.0252,-0.01711 -0.0445,-0.03094 -0.0725,-0.04233 -0.0281,-0.01087 -0.0504,-0.03517 -0.0648,-0.06185 -0.0324,-0.0554 -0.0339,-0.121479 -0.0517,-0.181112 -0.0129,-0.04399 -0.026,-0.08853 -0.0403,-0.131601 -0.0166,-0.05172 -0.0561,-0.08706 -0.0834,-0.133074 -0.0762,-0.13013 -0.14246,-0.268909 -0.17687,-0.416892 -0.0295,-0.12295 -0.0309,-0.255288 -0.0431,-0.381921 -0.0158,-0.159575 -0.0282,-0.31842 -0.0282,-0.477996 0,-0.154608 -0.0171,-0.317133 0.023,-0.466771 0.0425,-0.158108 0.046,-0.324862 0.12148,-0.471558 0.0705,-0.138042 0.15829,-0.265963 0.24664,-0.392596 0.0591,-0.08411 0.11945,-0.166754 0.18056,-0.249396 0.071,-0.09792 0.1524,-0.18995 0.22068,-0.289158 0.0532,-0.07693 0.0928,-0.158841 0.14025,-0.238537 0.0272,-0.04601 0.0574,-0.08706 0.0762,-0.138042 0.01,-0.02815 0.0215,-0.05908 0.0265,-0.08853 0.006,-0.03164 0.005,-0.06037 0.0195,-0.08982 0.01,-0.02226 0.028,-0.0381 0.0409,-0.05908 0.023,-0.03514 0.0289,-0.07546 0.0475,-0.112825 0.0158,-0.03238 0.008,-0.0646 0.0208,-0.09626 0.0145,-0.03608 0.0245,-0.06185 0.0252,-0.101417 7e-4,-0.0302 -0.004,-0.05614 -0.008,-0.08485 -0.007,-0.03517 -0.003,-0.07399 -0.003,-0.110067 7.1e-4,-0.0416 -0.0109,-0.08043 -0.0101,-0.121479 0,-0.0302 -0.006,-0.05393 -0.0101,-0.08264 -0.009,-0.06608 -0.0302,-0.134363 -0.0611,-0.193446 -0.0208,-0.04086 -0.0611,-0.07325 -0.0928,-0.104913 -0.0171,-0.01729 -0.033,-0.03514 -0.0517,-0.05043 -0.0201,-0.01563 -0.0431,-0.02431 -0.0618,-0.04086 -0.018,-0.01658 -0.0331,-0.03737 -0.0517,-0.05246 -0.0245,-0.02025 -0.0532,-0.03534 -0.0814,-0.0519 -0.0517,-0.03147 -0.10914,-0.04454 -0.16031,-0.07823 -0.0589,-0.03883 -0.12147,-0.07693 -0.18534,-0.105833 -0.0224,-0.0099 -0.0455,-0.01785 -0.0663,-0.0302 -0.0272,-0.01584 -0.0403,-0.0309 -0.0718,-0.04013 -0.0447,-0.01379 -0.0841,-0.0072 -0.12811,-0.01379 -0.0245,-0.0028 -0.0475,-0.01143 -0.071,-0.01584 -0.0554,-0.0092 -0.11007,-0.02152 -0.16621,-0.0302 -0.0445,-0.0065 -0.0863,-0.02374 -0.13012,-0.03147 -0.0265,-0.0052 -0.0467,-0.0044 -0.0733,-0.01235 0.0165,-0.0072 0.0337,-0.01087 0.048,-0.02081 0.0381,-0.02741 0.0482,-0.07417 0.0979,-0.08927 m -1.90094,3.226167 c -0.0202,-0.04325 -0.0267,-0.08853 -0.0433,-0.132337 -0.0121,-0.03238 -0.0272,-0.06184 -0.0381,-0.09497 -0.0641,-0.19915 -0.051,-0.418363 -0.0114,-0.621746 0.0295,-0.152584 0.0883,-0.325784 0.20338,-0.434379 0.0201,-0.01933 0.0353,-0.0438 0.0561,-0.06258 0.0186,-0.01711 0.0396,-0.0309 0.0582,-0.04804 0.041,-0.03607 0.0913,-0.06185 0.12019,-0.110067 -0.009,0.02374 -0.0331,0.04307 -0.0447,0.06534 -0.0423,0.07841 -0.0639,0.164729 -0.10785,0.240929 -0.0129,0.02374 -0.0295,0.04602 -0.0401,0.07123 -0.0144,0.03295 -0.0173,0.06976 -0.0195,0.106384 -0.004,0.05172 -0.01,0.102704 -0.0201,0.153871 -0.0208,0.10197 -0.0124,0.214245 0.009,0.316212 0.0121,0.0519 0.0359,0.09718 0.0582,0.144671 0.0252,0.05393 0.0418,0.109883 0.0762,0.159579 0.0755,0.111354 0.17394,0.2286 0.29045,0.299092 0.0504,0.0302 0.10288,0.05669 0.1546,0.08412 0.0309,0.01658 0.0633,0.02946 0.0942,0.04601 0.0251,0.01436 0.046,0.03313 0.071,0.04602 0.0388,0.02078 0.0821,0.04454 0.1224,0.06037 0.0589,0.02226 0.12222,0.023 0.17467,0.0611 0.0186,0.01362 0.0344,0.03094 0.0547,0.04307 0.0294,0.01803 0.0618,0.02815 0.0913,0.04675 0.028,0.01803 0.0532,0.04031 0.0777,0.06332 0.0473,0.04528 0.0977,0.07694 0.13657,0.131604 0.0223,0.03238 0.0431,0.06607 0.0639,0.0992 0.0188,0.02946 0.044,0.05393 0.0626,0.08264 0.0295,0.04528 0.0425,0.09497 0.0604,0.14375 0.021,0.05908 0.0512,0.111542 0.0534,0.175592 7.1e-4,0.02007 -0.004,0.04086 0,0.06111 0.005,0.02872 0.0179,0.05522 0.0236,0.08338 0.0188,0.09773 -0.008,0.193996 7e-4,0.293204 0.007,0.08632 0.005,0.172646 0.004,0.258967 0,0.07841 0.0173,0.144488 0.0287,0.219213 0.009,0.05964 0.023,0.11872 0.0316,0.177616 0.006,0.05172 -10e-4,0.103442 7.1e-4,0.155346 0.002,0.02872 0.01,0.06313 0.0186,0.09129 0.004,0.01658 0.0252,0.05098 0.007,0.06332 -0.006,0.0042 -0.0179,-0.0014 -0.0251,0 -0.0116,0.0021 -0.0151,0.0099 -0.0245,0.0151 -0.0274,0.01288 -0.0576,7.06e-4 -0.0871,0.0065 -0.0151,0.0028 -0.025,0.01436 -0.0396,0.01785 -0.0136,0.0044 -0.0287,0.0021 -0.0431,0.0021 -0.0272,-7.05e-4 -0.0468,-0.0014 -0.072,-0.0079 -0.0582,-0.0151 -0.11209,-0.04454 -0.17025,-0.06111 -0.0554,-0.01658 -0.11375,-0.02081 -0.17044,-0.03369 -0.0309,-0.0066 -0.046,-0.02667 -0.0742,-0.03957 -0.0136,-0.0065 -0.025,-0.0079 -0.0374,-0.01803 -0.0121,-0.0094 -0.0302,-0.02226 -0.0401,-0.03387 -0.0131,-0.01436 -0.009,-0.03443 -0.009,-0.05246 0,-0.01711 7e-4,-0.02946 0.005,-0.04601 0.004,-0.01785 0.004,-0.03736 0.0109,-0.05522 0.0265,-0.067 0.0438,-0.134545 0.0618,-0.204304 0.002,-0.0079 0.004,-0.01584 0.006,-0.02448 0.0223,-0.08485 0.0495,-0.167496 0.0661,-0.253817 0.0131,-0.06902 0.0144,-0.139333 0.0144,-0.209829 0,-0.02741 -7.1e-4,-0.04822 0.0123,-0.0727 0.0252,-0.04749 0.008,-0.08412 0.007,-0.137308 0,-0.07325 -0.007,-0.131601 -0.0353,-0.199888 -0.0201,-0.05025 -0.0488,-0.08485 -0.0819,-0.12792 -0.0482,-0.06405 -0.0992,-0.124422 -0.1524,-0.184059 -0.0403,-0.04454 -0.0804,-0.08908 -0.1259,-0.127367 -0.0683,-0.0589 -0.14227,-0.08835 -0.22491,-0.124237 -0.10436,-0.04454 -0.19768,-0.105834 -0.29265,-0.167496 -0.0791,-0.05043 -0.15019,-0.115034 -0.21204,-0.186266 -0.0569,-0.06552 -0.10933,-0.134546 -0.14522,-0.214242 m 5.13627,2.746512 c -0.0834,0.104913 -0.18331,0.191971 -0.28252,0.283267 -0.0618,0.05669 -0.12737,0.111354 -0.19915,0.155896 -0.0554,0.03534 -0.1143,0.05687 -0.17412,0.08411 -0.0718,0.03238 -0.14448,0.06553 -0.21921,0.0913 -0.0898,0.03164 -0.18553,0.04822 -0.27608,0.07638 -0.0668,0.02152 -0.13234,0.03883 -0.20136,0.04657 -0.0826,0.01012 -0.16252,0.03828 -0.24148,0.06111 -0.0734,0.02173 -0.1489,0.02522 -0.22289,0.04252 -0.0698,0.01584 -0.13657,0.04233 -0.2078,0.0554 -0.0806,0.01362 -0.164,0.02797 -0.2459,0.03295 -0.0906,0.0072 -0.18259,0.0014 -0.27259,0.0021 -0.0883,0 -0.16676,0 -0.25234,-0.023 -0.0804,-0.02081 -0.16105,-0.03737 -0.24295,-0.0532 -0.0561,-0.01087 -0.10786,-0.02152 -0.16032,-0.04675 -0.0576,-0.02723 -0.1165,-0.04675 -0.17614,-0.06976 -0.046,-0.01711 -0.0891,-0.04013 -0.13234,-0.0646 -0.064,-0.03607 -0.13012,-0.05835 -0.20062,-0.07841 -0.0804,-0.02226 -0.15387,-0.05319 -0.23154,-0.08411 -0.0891,-0.03534 -0.1732,-0.06553 -0.25878,-0.109333 -0.0403,-0.02007 -0.0841,-0.03736 -0.12295,-0.05963 -0.0302,-0.01803 -0.0517,-0.04178 -0.0769,-0.06681 -0.0265,-0.02741 -0.051,-0.05614 -0.0777,-0.08282 -0.033,-0.03094 -0.0676,-0.06037 -0.0977,-0.09405 -0.0453,-0.0497 -0.0777,-0.107859 -0.12221,-0.156817 -0.0193,-0.02081 -0.0302,-0.04233 -0.0411,-0.06829 -0.0121,-0.0302 -0.0351,-0.06902 -0.0401,-0.10068 -0.004,-0.02448 -0.001,-0.04822 -0.006,-0.07252 -0.004,-0.02596 -0.0107,-0.0519 -0.0143,-0.07767 -0.004,-0.03313 0,-0.06976 -7.1e-4,-0.103625 0,-0.02374 0.007,-0.05319 0.023,-0.07178 0.0202,-0.02374 0.0512,-0.0381 0.0727,-0.05982 0.0223,-0.02155 0.0374,-0.0473 0.0482,-0.07694 0.0171,-0.05172 0.0237,-0.104912 0.0762,-0.135833 0.0401,-0.02374 0.0834,-0.04031 0.12423,-0.06111 0.0606,-0.03164 0.1259,-0.06534 0.19068,-0.08559 0.005,-0.0014 0.009,-0.0035 0.0136,-0.0042 0.0344,-0.01087 0.0611,-0.01951 0.0992,-0.01951 0.0208,0 0.051,-0.0079 0.0589,0.01803 -0.0431,0.02596 -0.0804,0.05393 -0.12719,0.07399 -0.049,0.02173 -0.0856,0.02099 -0.11577,0.06976 -0.0223,0.03461 -0.0388,0.0762 -0.0712,0.103622 -0.0114,0.0094 -0.023,0.01584 -0.0302,0.02872 -0.0223,0.04031 -0.0201,0.10215 -0.0316,0.145954 -0.0179,0.07197 -0.0251,0.158108 0.0116,0.226579 0.0173,0.03147 0.0525,0.06607 0.0769,0.09129 0.0351,0.03736 0.0711,0.06534 0.11577,0.08982 0.0453,0.02575 0.0854,0.05466 0.13657,0.0646 0.0488,0.01012 0.0826,0.03681 0.13013,0.05117 0.0438,0.0151 0.0876,0.02374 0.13013,0.04307 0.0416,0.01877 0.0804,0.03461 0.12442,0.0438 0.069,0.01453 0.13583,0.03681 0.20485,0.05117 0.0999,0.02226 0.20633,0.0014 0.30407,0.03517 0.0294,0.01012 0.0561,0.02741 0.0863,0.03607 0.049,0.01288 0.10215,0.01214 0.1524,0.02282 0.0569,0.01161 0.11871,0.01951 0.17687,0.02099 0.0641,0.0021 0.12516,-0.0014 0.18903,0.0072 0.0598,0.0086 0.12019,0.01658 0.17982,0.02152 0.45517,0.03663 0.91237,-0.09203 1.34656,-0.184792 0.0769,-0.01658 0.1546,-0.03369 0.23227,-0.04896 0.0655,-0.01362 0.1316,-0.01563 0.19639,-0.03147 0.0668,-0.01454 0.13584,-0.02741 0.20044,-0.04675 0.0605,-0.01729 0.10712,-0.04896 0.16326,-0.07344 0.0445,-0.01933 0.0698,-0.02501 0.0957,-0.06313 0.033,-0.04896 0.0525,-0.110067 0.0718,-0.163262 0.0215,-0.0589 0.0425,-0.110067 0.0425,-0.171909 0,-0.05319 0,-0.124424 -0.0388,-0.168229 -0.0287,-0.03313 -0.0734,-0.05025 -0.10362,-0.08117 -0.0322,-0.03164 -0.0574,-0.04896 -0.0985,-0.0727 -0.0272,-0.01658 -0.0517,-0.03737 -0.0804,-0.0532 -0.0151,-0.0094 -0.0324,-0.0151 -0.0453,-0.02522 -0.0165,-0.01214 -0.0252,-0.02797 -0.0425,-0.04012 -0.018,-0.01309 -0.041,-0.023 -0.0604,-0.03461 -0.0245,-0.01436 -0.0467,-0.0302 -0.0732,-0.0416 -0.0166,-0.0066 -0.0361,-0.0094 -0.0361,-0.0267 0.0215,-0.0065 0.0532,-0.0021 0.0755,-0.0021 h 0.11578 c 0.064,0 0.11945,-0.0079 0.1719,0.02667 0.018,0.01214 0.0359,0.01803 0.0554,0.02797 0.0243,0.01362 0.0438,0.03313 0.0676,0.04822 0.0295,0.01803 0.0633,0.0302 0.0906,0.05172 0.0316,0.02448 0.0525,0.05393 0.0885,0.0762 0.0215,0.01379 0.0445,0.02522 0.0617,0.04399 0.0166,0.01711 0.0252,0.03939 0.0403,0.05743 0.0173,0.01951 0.0374,0.03517 0.0525,0.05687 0.0151,0.02226 0.0339,0.0473 0.041,0.07252 0.0129,0.04528 -0.009,0.08982 -0.0114,0.135283 -0.002,0.04951 -0.006,0.09847 -0.0109,0.147983 -0.0151,0.127367 -0.0826,0.235963 -0.16032,0.334434 m -0.13951,1.13527 c 7.1e-4,-7.05e-4 0.001,-0.0028 0.002,-0.0044 -10e-4,0.0052 -0.002,0.0094 -0.006,0.01436 -0.0267,0.01803 -0.0376,0.02099 -0.0433,0.02025 0.0129,-0.0086 0.0274,-0.01803 0.0475,-0.0302 m 2.03603,-3.310283 -0.0157,-0.05319 c -0.0173,-0.127921 0.0416,0.01305 0.008,-0.172462 -0.0171,-0.06829 -0.0653,-0.191238 -0.0668,-0.163996 0.005,0.02797 0.008,0.07197 -0.002,0.0762 l -0.0164,-0.06258 c -0.002,0 -0.004,-7.06e-4 -0.006,-0.0014 l -0.002,-0.0099 0.0416,-0.440083 -0.0841,-0.303325 0.006,0.0057 -0.01,-0.02081 -0.0267,-0.09424 c 0.004,0.0014 0.0101,0.01013 0.0166,0.02798 -0.002,-0.02081 -0.006,-0.03517 -0.008,-0.04454 -0.006,-0.02522 -0.0158,-0.03313 -0.0129,-0.07694 7.1e-4,-0.0065 0.002,-0.0042 0.004,0.0021 l -0.0193,-0.06755 c 0.007,0.01288 0.0158,-0.01436 0.0193,0.02797 -0.008,-0.125162 -0.0547,-0.19492 -0.0438,-0.243695 l 0.003,0.01013 c -0.0136,-0.06258 -0.0201,-0.07988 -0.0258,-0.08485 -0.005,-0.0052 -0.008,0.005 -0.0166,-0.0021 l -0.0201,-0.07841 0.0158,-0.06608 -0.023,-0.01235 c -0.003,-0.01711 -0.0109,-0.05172 -10e-4,-0.04675 -0.0294,-0.06184 -0.006,0.01235 -0.0274,-0.02152 -0.004,-0.06184 -0.0337,-0.145959 -0.0453,-0.205592 -0.0173,-0.02152 -0.0258,-0.03737 -0.023,-0.04749 -0.0309,-0.01362 0.0468,0.06902 -0.0215,0.0065 0.007,-0.04086 -0.074,-0.07546 -0.11504,-0.144487 0.0287,0.0072 0.0712,0.06902 0.0302,0 -0.0525,-0.01729 -0.097,-0.118533 -0.14449,-0.164546 -0.003,0.0021 -0.009,0 -0.0136,-0.0028 -0.0267,-0.01933 -0.0878,-0.119267 -0.14669,-0.191234 0.009,0.0014 -0.11154,-0.178354 -0.1675,-0.265229 l 0.005,7.06e-4 c -0.0309,-0.0035 -0.0906,-0.09056 -0.14099,-0.150189 0.0123,-0.0057 0.026,0.0021 0.0554,0.03313 l -0.0438,-0.05908 c -0.0158,-0.0092 -0.0331,-0.02575 -0.0633,-0.06166 l 0.0245,0.0042 c -0.0576,-0.07767 -0.12792,-0.148167 -0.19049,-0.256762 -0.0116,0.0021 0.002,0.04969 -0.0136,0.04896 l -0.0388,-0.05466 c 0.006,-0.0021 0.0144,0.0014 0.0258,0.0151 -0.008,-0.0086 -0.0294,-0.02946 -0.0396,-0.04951 l 0.0425,0.03517 c -0.028,-0.05099 -0.0274,-0.01803 -0.0525,-0.05614 0.0107,-0.0065 -0.0116,-0.03295 0,-0.03295 0.007,0.0092 0.0179,0.03589 0.0324,0.0473 -0.008,-0.01288 -0.0153,-0.02505 -0.0232,-0.0381 -0.008,-0.0151 -0.0157,-0.02946 -0.0228,-0.0416 -0.026,-0.02226 -0.0316,-0.03164 -0.0388,-0.04105 0,0.0079 -0.009,0.01305 -0.041,-0.0072 -0.0791,-0.0554 -0.018,-0.0309 -0.0611,-0.06902 -0.0238,-0.0072 -0.069,-0.05025 -0.0813,-0.03663 -0.023,-0.01658 -0.0223,-0.02596 -0.028,-0.03663 -0.023,-0.01087 -0.0777,-0.04896 -0.11062,-0.06976 -0.0281,-0.02448 -0.0539,-0.04528 -0.0396,-0.01877 l 0.008,0.01013 c -10e-4,-0.0014 -0.004,-0.0037 -0.006,-0.0057 -0.0534,-0.04105 -0.10215,-0.09 -0.15038,-0.139516 l -0.0705,-0.0762 -0.0351,-0.03736 -0.041,-0.04252 c -0.0438,-0.01069 -0.0668,-0.01658 -0.0992,-0.023 l 10e-4,-0.0057 c -0.0963,-0.01658 -0.2113,-0.04749 -0.28253,-0.05098 -0.028,-0.0072 -0.0641,-0.02741 -0.0497,-0.03094 -0.006,-7.06e-4 -0.0107,-0.0014 -0.0129,-0.0014 -0.0114,-0.0065 -0.0208,-0.01161 -0.0295,-0.01584 -0.0101,-0.005 -0.0195,-0.01013 -0.0295,-0.01658 -0.0203,-0.01214 -0.0433,-0.02798 -0.0821,-0.0589 0.069,0.03238 -0.0164,-0.02152 0.069,0.03514 -0.079,-0.05669 -0.092,-0.07694 -0.18828,-0.119271 0.0381,0.0057 -0.049,-0.0554 -0.0935,-0.07841 l 0.0524,0.04749 c -0.0121,-0.0079 -0.0237,-0.01436 -0.0359,-0.02226 -0.0129,-0.0086 -0.026,-0.01658 -0.0388,-0.02522 -0.023,-0.0057 -0.0438,-0.01161 -0.0661,-0.01729 l 0.0295,-0.01362 c -0.0734,-0.02797 -0.14449,-0.04105 -0.21148,-0.05098 -0.0344,-0.0044 -0.0668,-0.0094 -0.0985,-0.01436 -0.0158,-0.0021 -0.0317,-0.0052 -0.0467,-0.0079 l -0.023,-0.0044 -0.0309,-0.0079 c -0.028,0.0028 -0.0416,0.0028 -0.0589,0.0028 -0.0166,0 -0.0331,-0.0014 -0.0495,-0.0037 -0.0504,0.02025 0.10767,-0.0035 0.0639,0.01951 -0.0913,0.0079 -0.18902,-0.0094 -0.21773,-0.0065 -0.0547,0.0021 -0.0828,0.01069 -0.1086,0.02007 -0.0123,0.005 -0.0245,0.01086 -0.0388,0.0151 -0.0123,0.005 -0.0353,0.01012 -0.0433,0.01143 -0.004,-7.06e-4 -0.008,-0.0014 -0.0114,-0.0028 -0.008,-0.0021 -0.0151,-0.0044 -0.023,-0.0065 0.0144,0.01069 0.0245,0.03369 -0.072,0.01658 -0.0876,-0.02448 -0.10123,-0.05687 -0.0438,-0.04823 0.0208,0.0042 0.0309,0.0094 0.0295,0.0114 0.0294,0.0044 0.0683,0.01087 0.0346,-0.005 l -0.0138,0.0035 c -0.0416,-0.01859 -0.16381,-0.04804 -0.13215,-0.05246 -0.0683,-0.0099 -0.0316,0.0044 0.0171,0.02025 -0.0401,-0.01379 -0.0747,-0.02374 -0.10712,-0.03239 -0.0344,-0.0086 -0.0683,-0.01584 -0.10418,-0.02596 -0.0158,-7.06e-4 -0.0316,-0.0014 -0.0482,-0.0028 -0.0151,-0.0014 -0.0309,-0.0028 -0.0475,-0.0044 0.0188,0.0052 0.0361,0.01436 0.0173,0.01362 -0.17688,-0.01711 -0.079,0.01013 -0.19842,0.0074 -0.0675,-0.01453 0.026,-0.02522 -0.095,-0.02244 -0.074,-0.0099 -0.0151,-0.01933 0.0145,-0.02357 -0.0166,7.05e-4 -0.0324,0.0021 -0.0482,0.0014 -0.008,0 -0.0158,-7.06e-4 -0.023,-7.06e-4 -0.0101,-7.05e-4 -0.0202,-7.05e-4 -0.0302,-0.0014 l -0.0203,0.0028 -0.0121,0.0014 c -0.009,0 -0.0173,7.05e-4 -0.0252,0.0014 -0.0158,7.05e-4 -0.0322,0.0021 -0.0467,0.0028 -0.0287,0.0014 -0.0552,0.0021 -0.0775,0.005 l 0.0559,-0.0151 c -0.0329,0.0086 -0.0618,0.01288 -0.0898,0.01785 l 0.0344,0.0094 c -0.033,0.0028 -0.0617,0.0072 -0.0617,0.0014 -0.0331,0.0151 0.0302,0.01951 -0.0368,0.04307 -0.0467,7.05e-4 -0.13215,0.03094 -0.15589,0.01453 0.14724,-0.01729 -0.0173,-0.01658 0.10197,-0.03957 -0.0223,0.0057 -0.0502,0.01069 -0.0841,0.01362 -0.006,-0.0014 0.004,-0.0042 0.0131,-0.0072 -0.009,0 -0.018,7.06e-4 -0.026,7.06e-4 -0.0129,0.0021 -0.0245,0.0035 -0.0346,0.005 -0.0351,0.01877 -0.0381,0.02152 -0.046,0.02797 -0.006,0.0066 -0.0107,0.01235 -0.0156,0.01951 -0.009,0.01288 -0.0252,0.02872 -0.0777,0.05816 0.01,-0.01785 -0.0388,-0.0021 -0.0583,0.01087 0.0497,-0.02723 0.0324,0.0028 -0.009,0.03443 -0.0841,0.03681 -0.0834,0.05393 -0.12572,0.07565 l 0.0503,-0.02244 c -0.01,0.01729 -0.0503,0.03828 -0.10068,0.0692 -7e-4,0 -0.001,7.05e-4 -0.003,0.0014 -10e-4,-0.0014 0,-0.0035 0.001,-0.005 0.007,-0.0079 0.0401,-0.02448 0.0223,-0.01877 -0.006,0.0066 -0.0166,0.01379 -0.0223,0.01803 -0.0547,0.02946 -0.13804,0.03737 -0.21,0.08117 -0.0445,0.01235 -0.0129,-0.01637 -0.051,-0.005 -0.0346,0.02226 -0.0598,0.03238 -0.0828,0.04031 -0.0107,0.0035 -0.0215,0.0057 -0.0322,0.01012 -0.0101,0.0028 -0.0202,0.0065 -0.0324,0.0099 7.1e-4,0 -0.004,0.0014 -0.0101,0.0028 -0.004,0.0014 -0.0101,0.0035 -0.0151,0.005 -0.0114,0.0044 -0.023,0.0094 -0.0366,0.0151 0.0366,0.0028 0.0403,-0.0021 -0.0324,0.03663 l 0.10288,-0.03939 0.0646,-0.03387 c -0.0201,0.01436 -0.0453,0.0302 -0.0618,0.04233 -0.008,0.0059 -0.025,0.01379 -0.0374,0.02025 0.0131,-0.0037 0.0302,-0.01012 0.0403,-0.01362 0.0331,-0.01803 0.0727,-0.04105 0.0957,-0.0497 -0.0482,0.03534 -0.044,0.02872 -0.0145,0.02872 -0.028,0.0044 -0.0567,0.01658 -0.0782,0.02889 -0.0433,0.01711 -0.0928,0.04454 -0.14964,0.05246 l -0.009,-0.03534 c -0.048,0.0094 -0.0906,0.02448 -0.13363,0.04105 -0.021,0.0086 -0.0425,0.01729 -0.0648,0.02667 -0.0107,0.005 -0.0223,0.0092 -0.0337,0.01436 l -0.0173,0.0072 c -0.009,0.0028 -0.0173,0.0065 -0.0267,0.0094 -0.0179,0.01436 -0.0374,0.02872 -0.0574,0.04454 -0.018,0.01288 -0.0374,0.02649 -0.0576,0.04012 l 0.049,-0.02872 c -0.0109,0.02596 -0.0871,0.06553 -0.12939,0.104362 -0.003,-0.01305 -0.0346,0.0042 -0.0591,0.01214 0.008,0.0057 -0.10565,0.07473 -0.10418,0.104178 l -0.0727,0.03313 c -0.11927,0.07988 -0.11062,0.125159 -0.22345,0.202096 0.025,-0.03461 -0.0302,-0.0044 0.0381,-0.06626 -0.0368,0.02671 -0.0712,0.04896 -0.067,0.05687 -0.008,0.0028 -0.0164,0.0094 -0.0329,0.02374 -0.0324,0.03369 -0.0675,0.07767 -0.0964,0.09203 -0.0107,0.01658 -0.006,0.0309 -0.046,0.06405 -0.006,0.0014 -0.004,-0.0052 -0.004,-0.0052 0.004,0.0052 -0.0547,0.05964 -0.0131,0.04031 -0.0503,0.02596 -0.10123,0.06755 -0.16234,0.121479 -0.0734,0.100679 -0.13731,0.202096 -0.19915,0.252345 -0.0554,0.08338 -0.12221,0.183321 -0.17338,0.258784 7.1e-4,-0.0072 -0.004,-0.0042 0.006,-0.01711 -0.0812,0.09553 -0.0158,0.08264 -0.10786,0.191971 -0.0582,0.04877 0.0346,-0.06755 0.002,-0.03534 -0.009,-0.0014 -0.0186,0.0044 -0.0287,0.0151 -0.005,0.0052 -0.0101,0.01161 -0.0158,0.01877 -0.006,0.01013 -0.0136,0.02081 -0.0215,0.03238 -0.002,0.0092 -0.004,0.02007 -0.007,0.0309 -10e-4,0.0072 -0.003,0.01436 -0.004,0.02226 -0.003,0.0151 -0.006,0.03094 -0.01,0.04749 -0.007,0.0309 -0.0166,0.06166 -0.0304,0.08688 l 0.004,-0.02374 c -0.0151,0.03313 -0.023,0.07491 -0.0309,0.12295 -0.004,0.02374 -0.008,0.04896 -0.0121,0.07547 -0.003,0.01235 -0.006,0.02596 -0.009,0.03957 -0.002,0.01161 -0.006,0.023 -0.008,0.03534 l -0.004,0.0065 c 7.1e-4,-7.06e-4 -10e-4,-0.0044 -0.005,-0.0037 -0.023,0.08062 -0.0942,0.218662 -0.1467,0.320629 0.004,-0.03865 0.0188,-0.04951 -0.006,-0.0381 -0.0237,0.04546 0.0294,-7.05e-4 -0.0173,0.09074 -0.004,0.0042 -0.008,0.0086 -0.0136,0.01584 -0.0195,0.03514 -0.0431,0.0819 -0.0596,0.08614 l 0.0309,-0.09553 c -0.004,0.0065 -0.009,0.01362 -0.0138,0.02081 -0.004,0.0057 -0.006,0.01214 -0.009,0.01951 -0.006,0.01362 -0.0101,0.02872 -0.0138,0.0438 -0.008,0.03094 -0.0129,0.06258 -0.023,0.08633 l -0.007,-0.0094 c -0.0394,0.129391 -0.025,0.145958 -0.0618,0.265229 -0.001,0.01288 -0.004,0.02815 -0.006,0.04454 l 0.0101,-0.0151 c 0.009,0.09001 -0.026,0.0705 -0.0215,0.159029 l -0.0287,0.023 c -10e-4,0.02872 -0.004,0.0797 -0.007,0.136575 -0.002,0.02798 -0.004,0.05743 -0.006,0.08632 -0.001,0.02946 -0.003,0.05742 -0.004,0.08338 -0.0144,-0.06111 -0.002,-0.181296 -10e-4,-0.257496 -0.009,0.05687 -0.0309,0.192708 -0.0195,0.224366 0,-0.023 -0.003,-0.0532 0.005,-0.07547 0.009,0.07252 0.01,0.165284 -0.002,0.27885 -0.0129,-0.0072 -0.0223,0.0151 -0.0294,0.0519 -0.004,0.01785 -0.007,0.04012 -0.0101,0.0646 -0.004,0.02667 -0.007,0.05466 -0.01,0.08264 0.003,0.02025 0.006,0.04105 0.008,0.06129 0.002,0.01785 0.004,0.03443 0.006,0.05098 0.003,0.03238 0.003,0.06037 -0.002,0.07841 0.0109,0.0416 0.0201,0.08411 0.028,0.126447 l 0.0109,0.06479 c 0.003,0.02007 0.006,0.04013 0.009,0.0611 -7.1e-4,0.05669 -7.1e-4,0.115775 -0.001,0.175409 -7.1e-4,0.06258 0,0.126449 0.002,0.193445 0.0344,-0.08338 0.004,0.06681 0.0401,0.05393 7e-4,0.0092 0.001,0.01785 0.001,0.02374 0.0144,0.02649 0.0201,0.0381 0.0237,0.04657 0.004,0.0094 0.006,0.01453 0.006,0.01584 l -0.003,-0.01069 c 0.001,0.005 0.002,0.0079 0.003,0.01139 h 7e-4 l 0.0517,0.159025 c 0.008,0.04012 -0.0295,-0.04325 -0.0351,-0.03534 0.0503,0.109329 0.008,0.05245 0.0331,0.12792 0.006,-0.02081 0.0359,0.02963 0.0611,0.09276 l -0.026,-0.09405 c 0.0158,0.02505 0.0274,0.04602 0.0359,0.06387 0.004,0.0086 0.008,0.01729 0.0109,0.02522 10e-4,0.0037 0.003,0.0072 0.004,0.01087 7.1e-4,0.0042 0,0.0035 7.1e-4,0.005 l -7.1e-4,0.0042 7.1e-4,0.0086 7e-4,0.01803 c 7.1e-4,0.01288 0.001,0.02448 0.004,0.0381 0.004,0.02723 0.0121,0.06111 0.0324,0.111355 l -0.0252,-0.04804 c 0.0107,0.02946 0.0245,0.07693 0.0403,0.130129 0.009,0.02575 0.0171,0.05319 0.0251,0.08117 0.0101,0.02872 0.0203,0.05835 0.0296,0.08559 0.0107,0.01933 0.0144,0.023 0.0201,0.03238 0.006,0.0079 0.0107,0.0151 0.0158,0.02226 0.0107,0.01362 0.0201,0.02596 0.0294,0.03369 0.004,0.01584 0.004,0.03883 -0.0166,0.0059 0.0453,0.0935 0.10491,0.192709 0.16105,0.2875 0.0589,0.09276 0.11577,0.179825 0.14743,0.254551 l -0.0158,-0.0094 c 0.0215,0.03238 0.0482,0.05043 0.0648,0.09645 -0.004,0 -0.0158,-0.0086 -0.007,0.0072 0.003,0.0035 0.008,0.0099 0.0145,0.01859 0.004,0.0044 0.007,0.0086 0.0107,0.01379 0.003,0.0035 0.0116,0.01637 0.0173,0.02505 0.0144,0.01235 0.0302,0.02448 0.0453,0.03736 0.0121,0.01013 0.0237,0.02099 0.0331,0.03094 l -0.0396,-0.02152 c 0.14154,0.144483 0.24516,0.191233 0.37529,0.299092 -0.018,0.01951 0.095,0.132337 0.15092,0.187741 l -0.004,0.0014 c 0.0151,0.01362 0.0302,0.02649 0.0445,0.04013 0.007,0.0065 0.0144,0.01235 0.0215,0.01877 l 0.0101,0.0086 c 10e-4,7.05e-4 10e-4,7.05e-4 10e-4,0.0014 0.0223,0.03037 0.0438,0.05908 0.0646,0.08632 0.023,0.0309 0.046,0.06037 0.069,0.09 0.0223,0.02872 0.0453,0.05816 0.069,0.08835 0.0123,0.0151 0.0238,0.0302 0.0353,0.04602 l 0.0201,0.02723 c 0.0101,0.01305 0.0188,0.02522 0.028,0.0381 0.018,0.0044 0.0388,0.0094 0.0605,0.01379 0.0394,0.02081 0.1005,0.04233 0.171,0.06387 0.0353,0.01012 0.0734,0.02173 0.11227,0.03238 0.0344,0.01013 0.0696,0.02007 0.10491,0.0302 0.0316,0.02448 0.0626,0.04822 0.092,0.07123 0.0337,0.02649 0.0646,0.05246 0.0935,0.07694 -0.0237,-0.02374 0.0171,-0.01362 0.0495,0.0072 0.0188,0.01729 0.0504,0.03443 0.0734,0.04951 0.0121,0.0074 0.0223,0.01453 0.028,0.02025 0.008,0.0079 0.0121,0.0151 0.006,0.01859 l -0.0193,-0.01584 c 10e-4,0.0074 0.0158,0.023 0.0337,0.03957 0.0101,0.0028 0.0215,0.0065 0.0331,0.01013 0.008,0.0014 0.0158,0.0037 0.0245,0.0065 0.0144,0.0028 0.0309,0.0072 0.0475,0.01013 0.0329,0.0065 0.0683,0.01288 0.10049,0.01859 l 0.0195,-0.02946 c 0.0324,0.01362 0.069,0.02522 0.10785,0.03534 0.0201,0.005 0.0396,0.0092 0.0604,0.01288 0.0173,0.0037 0.0344,0.0072 0.0517,0.01012 0.0769,0.03589 0.15608,0.07178 0.22437,0.103438 0.0351,0.01658 0.0668,0.03238 0.0935,0.04822 0.0136,0.0086 0.0258,0.01658 0.0359,0.02374 0.006,0.0042 0.0109,0.0079 0.0151,0.01143 l 0.006,0.0059 c 0.004,0.0035 0.008,0.0057 0.0116,0.0085 0.003,0.0014 0.006,0.0028 0.01,0.0044 0.0289,0.0028 0.0598,0.005 0.0915,0.0086 0.0272,0.0035 0.0545,0.0057 0.0797,0.0065 l -0.006,0.01658 c 0.0517,0.01069 0.0942,0.01933 0.13731,0.02872 0.0215,0.0042 0.0431,0.0079 0.0661,0.01288 0.0267,0.0044 0.0547,0.0094 0.0863,0.0151 0.0252,-0.0028 0.0668,-0.0072 0.1165,-0.01214 l -0.0346,0.0151 c 0.0987,-0.0079 0.12092,-0.06111 0.21221,-0.07049 l 0.0295,0.023 c 0.0423,-0.0035 0.0856,-0.0065 0.12939,-0.0079 l 0.13086,0.0014 c 0.0871,0 0.1732,-0.0028 0.25878,-0.01658 -0.003,0.0037 -0.007,0.01087 -0.0351,0.01288 0.0812,0.0014 0.31768,-0.0014 0.28547,-0.03295 0.001,0.0094 0.0351,0.0086 0.0804,0.0035 0.023,-0.0014 0.049,-0.0057 0.0747,-0.0094 0.0131,-0.0021 0.026,-0.0042 0.0388,-0.0065 l 0.0188,-0.0035 c 0.009,-7.05e-4 0.0193,-0.0028 0.0287,-0.0037 0.009,-0.005 0.0188,-0.0099 0.0281,-0.0151 0.006,-0.0035 0.0121,-0.0065 0.0179,-0.0094 l -0.007,0.02173 c 0.0641,-0.0519 0.0641,-0.05835 0.16326,-0.107859 0.0252,-0.0086 0.0265,0.0035 -0.007,0.01288 0.0841,-0.02596 0.056,-0.04178 0.15663,-0.07546 l -0.0316,0.02596 c 0.0289,-0.01305 0.0475,-0.02099 0.0598,-0.02741 0.006,-0.0035 0.0121,-0.0065 0.0151,-0.0094 l 0.007,-0.0072 c 0.004,-0.0035 0.009,-0.0065 0.0245,-0.01143 0.0559,-0.01087 0.17099,-0.0072 0.18461,0.0065 0.0116,-0.01012 0.0598,-0.02596 0.11301,-0.02522 0.008,0.005 -0.0116,0.01012 -0.021,0.01288 0.0304,0 0.0584,-0.0014 0.0828,-0.0035 0.0129,-0.0014 0.0245,-0.0028 0.0359,-0.0037 0.0151,-0.0021 0.0294,-0.0042 0.0438,-0.0057 0.0289,-0.02007 0.0547,-0.03884 0.0806,-0.05743 0.023,-0.01584 0.0475,-0.02963 0.0762,-0.04178 0.004,0.0037 0.0121,0.0028 0.0201,-7.05e-4 -0.079,0.04822 -0.14743,0.08982 -0.17467,0.106383 -0.0121,7.06e-4 -0.0193,7.06e-4 -0.0215,7.06e-4 7.1e-4,0.0044 0.0107,0.0065 0.0245,0.0079 0.0164,-0.0057 0.0431,-0.01729 0.0467,-0.01436 0.004,7.06e-4 0.006,0.0021 0.004,0.0072 -10e-4,0.0028 -10e-4,0.0044 -0.007,0.01013 -0.006,0.005 -0.0136,0.01288 -0.0252,0.02226 0.0381,-0.02741 0.0445,-0.03589 0.0663,-0.05393 0.0193,-0.01584 0.0401,-0.03313 0.0604,-0.05098 0.0431,-0.03534 0.0891,-0.06847 0.13087,-0.09 0.004,-0.0014 0.009,-0.0028 0.0129,-0.0021 l -0.007,0.0072 c 0.0193,-0.01012 0.0344,-0.02173 0.0495,-0.03387 0.026,-0.01362 0.044,-0.02152 0.0677,-0.03736 0.0171,0.0057 0.0992,-0.04896 0.1408,-0.0727 -0.0114,-0.01213 0.044,-0.04233 -0.0143,-0.02505 0.007,-0.0021 -0.007,0.0072 -0.0337,0.023 -0.007,0.0042 -0.0138,0.0092 -0.0166,0.01288 7e-4,-0.0014 0.001,-0.0021 0.002,-0.0037 -0.0272,0.01658 -0.0624,0.03755 -0.1027,0.06184 0.028,-0.02724 0.0589,-0.05393 0.10933,-0.07252 0.0158,-0.02152 0.033,-0.04528 0.0438,-0.05761 0.069,-0.01214 0.18479,-0.06461 0.20779,-0.06037 0.007,-0.005 0.0144,-0.0099 0.0223,-0.0151 0.0109,-0.0072 0.0223,-0.01362 0.0331,-0.02152 0.0243,-0.02946 0.0488,-0.06037 0.074,-0.09129 0.0223,-0.02872 0.0445,-0.05761 0.0653,-0.08338 0.0418,-0.0554 0.0762,-0.106383 0.092,-0.146692 0.023,-0.03239 0.041,-0.03239 0.049,-0.03387 -0.001,0.0037 -0.0114,0.01658 -0.018,0.02522 -0.007,0.01013 -0.0129,0.01803 -0.0158,0.02522 0.006,-0.0079 0.0116,-0.01658 0.0195,-0.02596 0.005,-0.0072 0.0107,-0.0151 0.0173,-0.023 l 0.007,-0.005 0.0129,-0.0094 0.0267,-0.01803 c 0.0178,-0.01214 0.0344,-0.02505 0.0495,-0.03589 0.0309,-0.02226 0.0525,-0.04178 0.0539,-0.0532 0.0942,-0.04822 -0.0388,0.04896 0.0812,-0.03164 l -0.0121,0.01658 c 0.0302,-0.01436 0.0596,-0.02946 0.0863,-0.04528 0.0136,-0.0086 0.0265,-0.01729 0.0396,-0.02448 0.0164,-0.0114 0.0329,-0.02226 0.0488,-0.03313 l 0.0203,-0.03663 0.0121,-0.02522 c 0.008,-0.01637 0.0158,-0.03295 0.0237,-0.04951 0.0144,-0.03313 0.0287,-0.06608 0.0438,-0.09921 0.0302,-0.06626 0.0633,-0.135833 0.10639,-0.204858 0.026,-0.03238 0.0569,-0.06902 0.0913,-0.103621 -0.0151,0.01584 -0.0223,0.02374 -0.028,0.02522 0.0353,-0.0438 0.0697,-0.08853 0.10435,-0.133808 l 0.0503,-0.06976 0.0532,-0.07325 c 0.0453,-0.120008 0.0906,-0.240933 0.13584,-0.3602 0.046,-0.117983 0.10215,-0.230075 0.15976,-0.337196 0.0171,-0.03239 0.0265,-0.0554 0.0322,-0.07418 0.006,-0.01785 0.009,-0.03147 0.0143,-0.05522 -0.002,-0.01436 -0.004,-0.0302 -0.006,-0.04969 l 0.0195,-0.02081 -0.0151,-0.10565 c -0.002,-0.0497 0.004,-0.09424 0.0114,-0.138042 0.009,-0.04105 0.0165,-0.08282 0.026,-0.12737 l 0.006,-0.0094 0.0101,-0.01711 c 0.006,-0.01161 0.0121,-0.02374 0.0179,-0.03662 0.0123,-0.02597 0.023,-0.05467 0.0324,-0.08559 l -0.0215,0.01637 c 0.0316,-0.06037 0.0871,-0.196942 0.095,-0.180375 7.1e-4,-0.0072 -0.002,-0.02596 0.0151,-0.04675 l 0.01,0.0021 0.0245,-0.06332 z"
       style="fill:#21201d;fill-opacity:1;fill-rule:nonzero;stroke:none;stroke-width:0.184057"
       id="path628" />
    <path
       d="m 378.59242,43.936501 c 0.004,-0.0028 0.006,-0.0052 0.0107,-0.0086 -0.006,0.0028 -0.0121,0.005 -0.0186,0.0065 -10e-4,0.0035 -0.004,0.0079 -0.006,0.01069 0.005,-0.0028 0.01,-0.0065 0.0144,-0.0085"
       style="fill:#21201d;fill-opacity:1;fill-rule:nonzero;stroke:none;stroke-width:0.184057"
       id="path630" />
    <path
       d="m 378.78863,36.833705 c 10e-4,0.0035 0.004,0.0057 0.004,0.0086 -10e-4,-0.0028 -7.1e-4,-0.0037 -0.002,-0.0052 z"
       style="fill:#21201d;fill-opacity:1;fill-rule:nonzero;stroke:none;stroke-width:0.184057"
       id="path632" />
    <path
       d="m 380.31648,38.718826 c -0.0201,-0.157554 -0.006,0.03443 -0.0446,-0.124425 l 0.0258,0.122216 c 10e-4,-0.023 0.003,-0.05246 0.0188,0.0021"
       style="fill:#21201d;fill-opacity:1;fill-rule:nonzero;stroke:none;stroke-width:0.184057"
       id="path634" />
    <path
       d="m 380.05254,38.26733 c -0.0322,-0.02815 -0.0401,-0.03461 -0.0114,0.0072 0.046,0.04749 0.006,-0.0072 0.0114,-0.0072"
       style="fill:#21201d;fill-opacity:1;fill-rule:nonzero;stroke:none;stroke-width:0.184057"
       id="path636" />
    <path
       d="m 378.05093,36.423072 c 0.004,-0.0035 0.007,-0.0079 0.0101,-0.01214 -0.003,-0.0014 -0.005,-0.0021 -0.006,-0.0028 -0.004,-0.0021 -0.005,-0.0028 -0.007,-0.0028 -0.002,-7.06e-4 -10e-4,7.05e-4 0,0.0035 0.005,0.0057 0.007,0.01087 0.004,0.01436"
       style="fill:#21201d;fill-opacity:1;fill-rule:nonzero;stroke:none;stroke-width:0.184057"
       id="path638" />
    <path
       d="m 377.28102,36.05293 0.023,0.0035 -0.0309,-0.0057 -0.0425,-0.0079 -0.0366,0.0065 0.0366,-0.0057 z"
       style="fill:#21201d;fill-opacity:1;fill-rule:nonzero;stroke:none;stroke-width:0.184057"
       id="path640" />
    <path
       d="m 373.02822,37.582821 0.0245,-0.0014 c 0.018,-0.0302 0.005,-0.04804 -0.0245,0.0014"
       style="fill:#21201d;fill-opacity:1;fill-rule:nonzero;stroke:none;stroke-width:0.184057"
       id="path642" />
    <path
       d="m 372.14328,39.528313 c 0.009,-0.04454 0.0237,-0.08835 0.0251,-0.111358 -0.0136,0.02007 -0.0287,0.07547 -0.0251,0.111358"
       style="fill:#21201d;fill-opacity:1;fill-rule:nonzero;stroke:none;stroke-width:0.184057"
       id="path644" />
    <path
       d="m 374.87891,44.248476 0.0762,0.0086 -0.0351,-0.0072 z"
       style="fill:#21201d;fill-opacity:1;fill-rule:nonzero;stroke:none;stroke-width:0.184057"
       id="path646" />
  </g>
</svg>
