<?xml version="1.0" encoding="UTF-8" standalone="no"?>
<!-- Created with Inkscape (http://www.inkscape.org/) -->

<svg
   width="7.7352705mm"
   height="5.7802825mm"
   viewBox="0 0 7.7352705 5.7802825"
   version="1.1"
   id="svg4246"
   inkscape:version="1.1.2 (0a00cf5339, 2022-02-04)"
   sodipodi:docname="carnevale.svg"
   xmlns:inkscape="http://www.inkscape.org/namespaces/inkscape"
   xmlns:sodipodi="http://sodipodi.sourceforge.net/DTD/sodipodi-0.dtd"
   xmlns="http://www.w3.org/2000/svg"
   xmlns:svg="http://www.w3.org/2000/svg">
  <sodipodi:namedview
     id="namedview4248"
     pagecolor="#ffffff"
     bordercolor="#666666"
     borderopacity="1.0"
     inkscape:pageshadow="2"
     inkscape:pageopacity="0.0"
     inkscape:pagecheckerboard="0"
     inkscape:document-units="mm"
     showgrid="false"
     inkscape:zoom="0.64052329"
     inkscape:cx="131.14277"
     inkscape:cy="-214.66823"
     inkscape:window-width="2560"
     inkscape:window-height="1376"
     inkscape:window-x="0"
     inkscape:window-y="0"
     inkscape:window-maximized="1"
     inkscape:current-layer="layer1" />
  <defs
     id="defs4243" />
  <g
     inkscape:label="Layer 1"
     inkscape:groupmode="layer"
     id="layer1"
     transform="translate(-70.072537,-205.29894)">
    <path
       d="m 71.043291,207.1226 c -0.154605,0.0361 -0.24093,0.13878 -0.303509,0.27112 -0.023,0.0482 -0.05025,0.0856 -0.09626,0.11062 -0.04602,0.0237 -0.07988,0.0633 -0.08559,0.11227 -0.02872,0.13731 -0.120742,0.23431 -0.212767,0.33425 -0.01729,0.0433 -0.0094,0.0856 -0.02152,0.12866 -0.04104,0.1316 -0.0302,0.27185 -0.06479,0.40566 0.04252,0.12295 0.02374,0.25161 0.02374,0.37382 0.0065,0.046 0.01877,0.0891 0.03387,0.12572 0.04086,0.10288 0.08614,0.20651 0.133622,0.29983 0.06681,0.0489 0.129392,0.092 0.193445,0.1316 0.01655,0.072 -0.01235,0.13657 0,0.19767 0.02226,0.11651 0.04601,0.23376 0.120005,0.33646 0.07914,0.11522 0.147429,0.22879 0.199884,0.36039 0.023,0.0631 0.05835,0.12295 0.103625,0.1767 0.09055,0.11227 0.204854,0.15755 0.33498,0.18553 0.06405,0.0173 0.1143,0.0497 0.166754,0.0863 0.05172,0.0316 0.09773,0.0683 0.136571,0.10068 0.103625,0.002 0.183321,-0.004 0.268171,-0.0403 0.251788,-0.1143 0.502656,-0.21995 0.765856,-0.30057 0.132888,-0.0423 0.251605,-0.12865 0.342897,-0.23136 0.121479,-0.1316 0.212033,-0.27976 0.3602,-0.38615 0.04031,-0.028 0.07473,-0.0683 0.109329,-0.11356 0.03295,-0.0519 0.0797,-0.1 0.138042,-0.13455 0.06387,-0.0344 0.114296,-0.0797 0.158104,-0.1143 0.07988,-0.0257 0.142276,0.023 0.211297,0.0173 0.06975,-0.004 0.121659,0.0223 0.159759,0.0683 0.16105,0.15682 0.327067,0.30554 0.47008,0.4745 0.130862,0.14596 0.273325,0.27682 0.399771,0.41708 0.210742,0.0374 0.404738,0.12295 0.611251,0.14522 0.05025,0.0403 0.108408,0.069 0.148717,0.1143 0.07988,0.023 0.159575,0.0265 0.228596,0.0633 0.08485,0.0488 0.159759,0.0257 0.222892,-0.0346 0.05172,-0.0396 0.09129,-0.0856 0.130129,-0.12571 h 0.171909 c 0.06902,-0.046 0.130863,-0.0915 0.189759,-0.1316 0.125159,-0.27112 0.258047,-0.5277 0.45738,-0.74268 0,-0.0848 -0.04675,-0.16252 -0.01729,-0.26835 0.103438,-0.15958 0.255101,-0.31622 0.370872,-0.48021 0.04675,-0.16823 0.06902,-0.32486 0.06405,-0.48536 0,-0.0683 -0.01729,-0.12866 -0.02448,-0.19198 -0.01729,-0.1373 -0.03957,-0.26228 -0.127921,-0.37658 -0.02741,-0.0375 -0.0497,-0.0885 -0.0589,-0.13951 -0.02448,-0.0742 -0.04675,-0.15167 -0.08135,-0.21793 -0.09553,-0.15387 -0.176879,-0.31418 -0.331484,-0.42278 -0.07399,-0.0488 -0.120742,-0.12497 -0.193996,-0.16307 -0.05191,-0.0618 -0.04675,-0.12885 -0.04675,-0.19418 -0.03239,-0.0425 -0.06184,-0.0827 -0.09129,-0.12792 -0.0519,-0.0935 -0.130863,-0.15112 -0.22363,-0.18553 -0.05687,-0.026 -0.100679,-0.0611 -0.147429,-0.1029 -0.16528,-0.15736 -0.319151,-0.32927 -0.508363,-0.4629 -0.183318,-0.12884 -0.370872,-0.23155 -0.583826,-0.30646 -0.193993,-0.069 -0.399585,-0.11926 -0.610331,-0.13068 -0.10215,-0.009 -0.211296,-0.003 -0.314917,-0.003 h -0.31345 c -0.107855,0 -0.217185,0.008 -0.32633,-0.006 -0.101417,-0.0151 -0.199884,0.0136 -0.302038,0.006 -0.02797,-0.004 -0.06258,0.003 -0.09203,0.008 -0.176879,0.0396 -0.347317,0.092 -0.530634,0.069 -0.177617,0.0942 -0.349338,0.18553 -0.521247,0.27462 -0.03443,0.0539 -0.06111,0.10289 -0.09553,0.1489 -0.0079,0.005 -0.01161,0.0107 -0.01732,0.0107 -0.19418,0.072 -0.394801,0.15166 -0.519773,0.34308 -0.01235,0.0223 -0.04104,0.0374 -0.06405,0.0567 -0.102151,0.0891 -0.222892,0.14025 -0.332222,0.18848 -0.09552,0.14945 -0.183317,0.29394 -0.164546,0.478 m -0.97071,1.3935 c 0.04399,-0.0282 0.02667,-0.0712 0.02667,-0.10583 -0.01658,-0.19695 0.04601,-0.37382 0.132888,-0.54574 0.175591,-0.36811 0.381917,-0.71672 0.632784,-1.03385 0.17835,-0.22216 0.378972,-0.41983 0.588797,-0.60536 0.218659,-0.1883 0.447255,-0.3545 0.687451,-0.51408 0.153134,-0.11209 0.324859,-0.20909 0.491059,-0.30903 0.05669,-0.0381 0.13068,-0.0381 0.19915,-0.0547 0.245901,-0.0633 0.498239,-0.0519 0.749844,-0.0368 0.09552,0.006 0.19915,0.0497 0.294675,0.0828 0.0519,0.0201 0.1143,0.028 0.16105,0.0114 0.194913,-0.0653 0.401243,-0.0747 0.600389,-0.092 0.137308,-0.0136 0.274613,0.0116 0.404742,0.0512 0.194913,0.0574 0.37253,0.13804 0.544251,0.23799 0.228047,0.13362 0.450201,0.28032 0.655793,0.4399 0.227863,0.17467 0.422042,0.37971 0.614013,0.59745 0.228597,0.26246 0.422776,0.54794 0.616772,0.83047 0.169701,0.24939 0.289888,0.52419 0.317126,0.82605 0.02448,0.19197 0.02448,0.38542 -0.005,0.58383 -0.02226,0.12221 -0.04472,0.24222 -0.08338,0.35946 -0.02963,0.0885 -0.05908,0.17118 -0.1108,0.24885 -0.03957,0.0646 -0.07915,0.13363 -0.09129,0.2229 0.03443,0.0935 0.01214,0.1789 -0.06828,0.25952 -0.09571,0.10859 -0.194179,0.22289 -0.285471,0.33719 -0.02448,0.0317 -0.04675,0.072 -0.06111,0.11136 -0.0762,0.17412 -0.206326,0.29486 -0.344368,0.41781 -0.02448,0.0173 -0.04675,0.028 -0.06405,0.0482 -0.130125,0.14798 -0.307004,0.1732 -0.491059,0.19124 -0.148721,0.0144 -0.291179,-0.0289 -0.434926,-0.0604 -0.265962,-0.0569 -0.502659,-0.19639 -0.724076,-0.351 -0.1143,-0.0797 -0.223446,-0.16252 -0.320626,-0.26597 -0.097,-0.0999 -0.194179,-0.19694 -0.29265,-0.29485 -0.06111,-0.0619 -0.124975,-0.12222 -0.193996,-0.17394 -0.06258,-0.0453 -0.1143,-0.10271 -0.148163,-0.16749 -0.04602,-0.0267 -0.08559,-0.009 -0.117983,-0.0346 -0.115034,0.0396 -0.207063,0.1051 -0.286759,0.19418 -0.09129,0.10491 -0.195651,0.19915 -0.285471,0.30554 -0.142276,0.16896 -0.320626,0.30553 -0.50321,0.42278 -0.160496,0.0972 -0.320072,0.18627 -0.486092,0.27461 -0.154605,0.0791 -0.319151,0.1 -0.486827,0.12222 -0.04528,0.005 -0.08467,0.026 -0.13657,0.026 -0.244426,0.006 -0.468055,-0.0574 -0.644935,-0.24295 -0.0057,-0.0281 -0.0057,-0.0596 -0.01069,-0.0848 -0.194179,-0.1294 -0.291175,-0.32063 -0.366638,-0.52052 -0.05117,-0.026 -0.09718,-0.049 -0.148167,-0.0777 -0.06331,-0.0935 -0.125892,-0.18848 -0.21645,-0.26891 0.07988,-0.14246 -0.01288,-0.25952 -0.05742,-0.38247 -0.0302,-0.0972 -0.102151,-0.17614 -0.136755,-0.27609 -0.04675,-0.11798 -0.08761,-0.23155 -0.09276,-0.36094 0,-0.009 -0.01139,-0.0195 -0.02152,-0.0282 z"
       style="fill:#21201d;fill-opacity:1;fill-rule:evenodd;stroke:none;stroke-width:0.184057"
       id="path502" />
    <path
       d="m 71.608346,208.81299 c -0.19418,-0.14817 -0.427747,-0.19713 -0.577385,-0.40272 0.08632,-0.0999 0.184792,-0.18755 0.279764,-0.28327 0.09129,-0.097 0.143012,-0.22215 0.247371,-0.3394 0.01069,-0.004 0.03369,-0.0257 0.0624,-0.0257 0.147429,-0.009 0.284,-0.051 0.411367,-0.13951 0.204855,0.0252 0.406209,-0.0324 0.611801,-0.023 0.107859,0.006 0.19418,0.0425 0.273876,0.11651 0.126629,0.1143 0.222155,0.2459 0.291176,0.4156 v 0.12497 c 0.09718,0.0828 0.182033,0.17118 0.189212,0.31069 0,0.0381 0.02872,0.0784 0.04454,0.1143 -0.01013,0.12074 -0.07399,0.19842 -0.171175,0.26026 -0.227126,0.14596 -0.468055,0.22584 -0.737697,0.23228 -0.153134,0.002 -0.301851,0.002 -0.450752,-0.0324 -0.097,-0.0195 -0.194179,-0.051 -0.284737,-0.0906 -0.09773,-0.0453 -0.172459,-0.12663 -0.189759,-0.23798"
       style="fill:#21201d;fill-opacity:1;fill-rule:evenodd;stroke:none;stroke-width:0.184057"
       id="path504" />
    <path
       d="m 76.008391,209.11632 c -0.02946,0.0173 -0.07473,0.0324 -0.1316,0.0282 -0.09203,-0.003 -0.182584,0.009 -0.273876,-0.0109 -0.023,-0.006 -0.05595,0.002 -0.08117,0.0109 -0.194176,0.0653 -0.371055,0.0208 -0.542227,-0.0482 -0.097,-0.0346 -0.189025,-0.0655 -0.28455,-0.051 -0.09074,-0.0742 -0.171175,-0.15387 -0.235225,-0.2632 0.01161,-0.0834 -0.04675,-0.16547 -0.02798,-0.2575 0.03957,-0.11633 0.108592,-0.21627 0.187551,-0.3083 0.04749,-0.0512 0.07565,-0.10785 0.09865,-0.16896 0.02723,-0.0942 0.0797,-0.17909 0.119271,-0.26817 0.10215,-0.0598 0.21645,-0.0972 0.32578,-0.13731 0.01637,-0.009 0.03443,-0.0145 0.05025,-0.0145 0.236513,0.006 0.475968,-0.028 0.709535,0.049 0.01803,0.009 0.04031,0.006 0.04602,0.009 0.05687,0.0173 0.05687,0.0683 0.09718,0.0942 0.08559,0.0114 0.176142,0.0394 0.263754,0.069 0.07841,0.0539 0.130126,0.13086 0.18203,0.20486 0.06184,0.0834 0.137308,0.14374 0.216267,0.19988 0.06405,0.0431 0.107858,0.0948 0.130129,0.17173 -0.0021,0.0375 -0.02226,0.069 -0.04878,0.10583 -0.332222,0.0941 -0.583092,0.30038 -0.801014,0.58586"
       style="fill:#21201d;fill-opacity:1;fill-rule:evenodd;stroke:none;stroke-width:0.184057"
       id="path506" />
  </g>
</svg>
