<?xml version="1.0" encoding="UTF-8" standalone="no"?>
<!-- Created with Inkscape (http://www.inkscape.org/) -->

<svg
   width="7.5406199mm"
   height="5.2744927mm"
   viewBox="0 0 7.5406199 5.2744927"
   version="1.1"
   id="svg3391"
   inkscape:version="1.1.2 (0a00cf5339, 2022-02-04)"
   sodipodi:docname="e1.svg"
   xmlns:inkscape="http://www.inkscape.org/namespaces/inkscape"
   xmlns:sodipodi="http://sodipodi.sourceforge.net/DTD/sodipodi-0.dtd"
   xmlns="http://www.w3.org/2000/svg"
   xmlns:svg="http://www.w3.org/2000/svg">
  <sodipodi:namedview
     id="namedview3393"
     pagecolor="#ffffff"
     bordercolor="#666666"
     borderopacity="1.0"
     inkscape:pageshadow="2"
     inkscape:pageopacity="0.0"
     inkscape:pagecheckerboard="0"
     inkscape:document-units="mm"
     showgrid="false"
     inkscape:zoom="0.64052329"
     inkscape:cx="-1195.8972"
     inkscape:cy="759.53522"
     inkscape:window-width="2560"
     inkscape:window-height="1376"
     inkscape:window-x="0"
     inkscape:window-y="0"
     inkscape:window-maximized="1"
     inkscape:current-layer="layer1" />
  <defs
     id="defs3388" />
  <g
     inkscape:label="Layer 1"
     inkscape:groupmode="layer"
     id="layer1"
     transform="translate(-421.2822,52.619125)">
    <path
       d="m 425.90093,-51.527108 c 0.0267,0.02522 0.0519,0.04822 0.0791,0.07123 0.0309,0.02522 0.051,0.06184 0.0777,0.09277 0.0101,0.01215 0.0215,0.02374 0.0344,0.03313 0.0403,0.02945 0.0821,0.05246 0.12369,0.07694 0.0151,0.0099 0.0208,0.01141 0.0396,0.01785 0.006,0.0015 0.004,0.0072 0.0136,0.0094 0.007,0.0015 0.0166,-0.0035 0.0237,-7.41e-4 0.0223,0.0044 0.0453,0.01877 0.0675,0.02374 0.0173,0.0037 0.0346,0 0.0526,0.005 0.0151,0.0037 0.0243,0.0066 0.0401,0.0059 0.0353,0 0.0596,-0.0029 0.0928,-0.0116 0.0663,-0.01785 0.13804,-0.01215 0.2043,-0.02227 0.0503,-0.0079 0.0992,-0.02522 0.14798,-0.04105 0.17688,-0.01215 0.374,-0.08338 0.53855,-0.118533 0.0525,-0.0116 0.12,-0.01435 0.16896,-0.03534 0.0418,-0.01712 0.0676,-0.0473 0.11136,-0.06166 0.11227,-0.03755 0.15184,-0.05908 0.2251,-0.153873 0.0431,-0.05466 0.11227,-0.07988 0.15092,-0.135282 0.0302,-0.04381 0.0296,-0.10565 0.0611,-0.150928 0.0188,-0.02669 0.0534,-0.06755 0.0791,-0.097 0.0109,5.65e-4 0.0223,0.0013 0.0324,0.0013 0.0431,0 0.0856,0.01012 0.1259,0.02595 0.0236,0.0094 0.0661,0.0381 0.0906,0.02945 -0.002,-0.01583 -0.044,-0.05669 -0.0561,-0.06681 -0.0151,-0.01362 -0.0267,-0.02448 -0.0403,-0.03884 -0.0107,-0.0116 -0.0258,-0.02945 -0.0396,-0.03884 -0.006,-0.005 -0.0143,-0.0087 -0.023,-0.01215 -0.0144,-0.0072 -0.0302,-0.01436 -0.0438,-0.02522 -0.0193,-0.01436 -0.0309,-0.03515 -0.0482,-0.05043 -0.0144,-0.01215 -0.033,-0.0208 -0.0503,-0.03148 -0.0324,-0.02025 -0.0641,-0.05393 -0.0992,-0.06626 -0.0504,-0.01583 -0.0957,-0.05246 -0.14448,-0.0762 -0.0396,-0.02006 -0.0806,-0.03313 -0.12074,-0.05025 -0.0101,-0.0037 -0.0202,-0.0072 -0.0304,-0.01233 -0.023,-0.01215 -0.0466,-0.01436 -0.0718,-0.02227 -0.028,-0.0079 -0.0532,-0.02301 -0.0814,-0.0324 -0.048,-0.01565 -0.0933,-0.03442 -0.14081,-0.05246 -0.023,-0.0092 -0.0489,-0.01067 -0.0727,-0.0208 -0.0201,-0.0086 -0.0388,-0.01933 -0.0596,-0.02669 -0.0359,-0.01141 -0.0668,-0.02871 -0.10344,-0.02871 -0.023,7.41e-4 -0.0727,-0.0094 -0.0928,-7.41e-4 -0.0245,0.0116 -0.004,0.04399 0.007,0.05835 0.009,0.01215 0.0245,0.01859 0.0287,0.03368 0.004,0.01509 -0.002,0.03166 0.002,0.04675 0.006,0.02669 0.0158,0.05319 0.0223,0.07988 0.004,0.01785 0.0107,0.03515 0.0151,0.05319 0.005,0.0208 0.003,0.0381 0.005,0.0589 0,0.0029 10e-4,0.0057 0.002,0.0087 0.003,0.0173 0.0101,0.03387 0.0101,0.05172 7.1e-4,0.02227 0.004,0.0381 0.008,0.05982 0.009,0.04307 0.003,0.09056 0.003,0.135099 0,0.01288 -0.002,0.0265 -0.004,0.04031 0.023,0.04528 0.0272,0.09203 0.0265,0.145221 0,0.04675 -0.004,0.09203 -0.009,0.138044 -0.004,0.03663 -10e-4,0.07399 -0.0193,0.107121 -0.0158,0.02871 -0.0418,0.168965 -0.0841,0.165284 -0.0101,-0.02945 7.1e-4,-0.06184 0.006,-0.09129 0.008,-0.03736 0.003,-0.07546 -0.006,-0.112092 -0.004,-0.02025 -0.007,-0.04104 -0.0101,-0.06184 -0.007,-0.04602 -0.0136,-0.09276 -0.0272,-0.136571 -0.009,-0.02742 -0.0224,-0.05264 -0.0316,-0.07988 -10e-4,-0.005 -0.002,-0.0094 -0.004,-0.01362 -0.002,-0.0116 -0.005,-0.02301 -0.007,-0.0346 -0.0173,-0.07767 -0.0245,-0.130129 -0.0668,-0.188291 -0.0388,-0.05246 -0.0554,-0.08632 -0.0826,-0.145958 -0.009,0.0079 -0.021,0.01141 -0.0309,0.0173 -0.0683,0.03884 -0.15111,0.04601 -0.22289,0.07896 -7.1e-4,7.41e-4 -0.001,0.0022 -0.002,0.0022 -0.0166,0.02871 -0.0215,0.05319 -0.0453,0.07767 -0.0403,0.04307 -0.0626,0.09626 -0.10933,0.133626 -0.0374,0.03092 -0.0712,0.06902 -0.11062,0.09645 -0.0274,0.02006 -0.0618,0.02871 -0.09,0.04896 -0.0215,0.01509 -0.0445,0.02724 -0.0668,0.04233 -0.0438,0.03019 -0.0906,0.05393 -0.14228,0.0727 -0.0497,0.01712 -0.0942,0.03442 -0.14595,0.04804 -0.0282,0.0072 -0.0606,0.01086 -0.0871,0.02374 -0.006,0.0029 -0.0121,0.0072 -0.018,0.0116 -0.0215,0.02871 -0.0295,0.05522 -0.0251,0.08264 0.0164,0.01215 0.0359,0.02301 0.048,0.03442"
       style="fill:#21201d;fill-opacity:1;fill-rule:nonzero;stroke:none;stroke-width:0.184057"
       id="path592" />
    <path
       d="m 421.63396,-51.962037 c 0.0179,-0.01141 0.0438,-0.02522 0.0639,-0.03092 0.0165,-0.0057 0.0374,-0.01859 0.0539,-0.02153 0.007,-7.41e-4 0.0123,0.0029 0.0195,0.0029 0.023,0 0.046,-0.0066 0.069,-0.0066 0.009,0 0.0208,-7.41e-4 0.0324,-0.0013 0.0257,0.02871 0.0604,0.07031 0.079,0.097 0.0316,0.04528 0.0302,0.106385 0.0611,0.150191 0.0388,0.05614 0.10785,0.08135 0.15037,0.136019 0.0733,0.09405 0.11283,0.116325 0.22566,0.153136 0.0433,0.01509 0.0697,0.04454 0.11153,0.0624 0.0488,0.02098 0.11651,0.02319 0.16823,0.0346 0.16454,0.03589 0.36167,0.107121 0.5391,0.119269 0.049,0.01583 0.0979,0.03313 0.14817,0.04105 0.0663,0.01012 0.13804,0.0044 0.20356,0.02227 0.0329,0.0087 0.0582,0.01086 0.0928,0.0116 0.0156,0 0.0258,-0.0015 0.0401,-0.0059 0.018,-0.005 0.0361,-0.0013 0.0532,-0.005 0.0217,-0.0057 0.0447,-0.01933 0.067,-0.02448 0.008,-0.002 0.0171,0.0029 0.0243,0.0015 0.009,-0.0022 0.007,-0.0079 0.0131,-0.01012 0.0193,-0.0057 0.025,-0.0072 0.0409,-0.01712 0.0361,-0.02227 0.0749,-0.04178 0.10933,-0.06626 0.018,-0.01288 0.0366,-0.06258 0.0561,-0.06534 0.0101,-0.0015 0.0201,-0.0029 0.0302,-0.0029 0.007,-0.0042 0.0114,-0.01509 0.0166,-0.0208 0.0158,-0.0173 0.0208,-0.0208 0.0245,-0.04601 0.056,7.41e-4 0.0374,-0.138044 0.0381,-0.171174 0,-0.03019 -0.0237,-0.05964 -0.0482,-0.07546 -0.0123,-0.0079 -0.028,-0.01509 -0.0433,-0.01436 -0.008,0 -0.0151,0.005 -0.0208,0.0057 -0.0121,0.0022 -0.0166,0.0015 -0.033,-0.0042 -0.026,-0.0094 -0.0425,-0.02945 -0.0677,-0.03957 -0.0144,-0.0057 -0.0316,7.41e-4 -0.0473,-0.0015 -0.0217,-0.0022 -0.0482,-0.01215 -0.069,-0.02227 -0.0145,-0.0072 -0.0317,-0.01362 -0.0455,-0.02227 -0.009,-0.0057 -0.0243,-0.01159 -0.0322,-0.0173 -0.0151,-0.01141 -0.0158,-0.01362 -0.0339,-0.01933 -0.0158,-0.0059 -0.0351,-0.01657 -0.049,-0.02595 -0.0243,-0.0173 -0.0344,-0.04528 -0.0589,-0.06258 -0.0186,-0.01288 -0.0316,-0.03018 -0.0495,-0.04233 -0.021,-0.01362 -0.041,-0.01951 -0.0576,-0.03957 -0.0201,-0.02301 -0.0339,-0.05393 -0.0554,-0.07546 -0.01,-0.0094 -0.0193,-0.0116 -0.0302,-0.01951 -0.007,-0.005 -0.0114,-0.01509 -0.0193,-0.02006 -0.0166,-0.01215 -0.0396,-0.01804 -0.0576,-0.02669 -0.0158,-0.0087 -0.023,-0.01215 -0.0401,-0.01583 -0.0138,-0.0028 -0.0166,-0.005 -0.0296,-0.0099 -0.0114,-0.0052 -0.0171,-0.0052 -0.0294,-0.01233 -0.0107,-0.0064 -0.0201,-0.01141 -0.0302,-0.01933 -0.0186,-0.01509 -0.0416,-0.04381 -0.0646,-0.04822 -0.0223,-0.005 -0.0482,0.0022 -0.0655,0.01509 -0.0173,0.01233 -0.0237,0.03166 -0.0366,0.04749 -0.0166,0.01804 -0.0188,0.03313 -0.0252,0.0554 -0.004,0.01067 -0.0136,0.02374 -0.0166,0.03663 -0.004,0.0173 -0.004,0.03166 -0.0107,0.04896 -0.0166,0.0416 -0.0173,0.08614 -0.0366,0.125712 -0.0116,0.02374 -0.0116,0.04969 -0.0138,0.07473 -0.002,0.02522 -0.01,0.04675 -0.0151,0.07049 -0.005,0.01951 -0.004,0.03608 -7.1e-4,0.0554 0.006,0.03019 10e-4,0.05687 -0.006,0.08779 -0.008,0.03589 -0.0129,0.07473 -0.006,0.111355 0.003,0.0116 0.0238,0.08135 7.1e-4,0.07988 -0.0136,-0.0015 -0.0245,-0.05761 -0.0324,-0.0705 -0.0121,-0.01804 -0.0252,-0.0346 -0.0396,-0.05043 -0.0151,-0.02301 -0.0107,-0.04877 -0.0201,-0.07325 -0.007,-0.0208 -0.0116,-0.03884 -0.0158,-0.06111 -0.004,-0.02153 -0.0144,-0.03736 -0.0151,-0.05964 -10e-4,-0.02301 0,-0.04675 0,-0.06976 0,-0.04381 -0.0302,-0.07988 -0.0388,-0.120742 -0.009,-0.03957 -0.0173,-0.08209 -0.006,-0.123686 0.005,-0.01878 0.006,-0.03884 0.0171,-0.05687 0.0123,-0.0208 0.0245,-0.0416 0.0353,-0.06258 0.005,-0.0099 0.009,-0.0208 0.0121,-0.03019 0.007,-0.01436 0.0158,-0.01859 0.0237,-0.03166 0.006,-0.01141 0.004,-0.0265 0.009,-0.03884 0.005,-0.01362 0.0151,-0.02503 0.0208,-0.0381 0.0101,-0.0265 0.0173,-0.05466 0.0267,-0.08117 0.0186,-0.04896 0.0453,-0.11154 0.0193,-0.16326 -0.0337,-0.06755 -0.12,-0.02577 -0.17099,-0.0094 -0.021,0.0074 -0.0396,0.01804 -0.0598,0.02595 -0.0236,0.01086 -0.0495,0.01233 -0.0725,0.02153 -0.0475,0.01804 -0.0928,0.03681 -0.14172,0.05246 -0.028,0.0086 -0.0532,0.02375 -0.0812,0.0324 -0.0245,0.0072 -0.0482,0.01012 -0.0712,0.02227 -0.01,0.0052 -0.0208,0.0087 -0.0302,0.01307 -0.0611,0.02503 -0.11927,0.05246 -0.17964,0.08043 -0.0361,0.0173 -0.0749,0.02227 -0.11301,0.03313 -0.051,0.01509 -0.092,0.04951 -0.13289,0.08264 -0.0482,0.0381 -0.0942,0.07988 -0.13528,0.125896 -0.0179,0.02006 -0.0401,0.03221 -0.0619,0.0473 -0.007,0.0044 -0.0136,0.0094 -0.0208,0.01454 -0.0265,0.02006 -0.0561,0.04307 -0.0871,0.05743 -0.0171,0.0086 -0.0639,0.03957 -0.0661,0.06037 0.0453,0.01436 0.10417,-0.02301 0.14098,-0.04528"
       style="fill:#21201d;fill-opacity:1;fill-rule:nonzero;stroke:none;stroke-width:0.184057"
       id="path594" />
    <path
       d="m 425.42423,-50.445768 c 0.005,0.0037 0.0123,0.0094 0.018,0.0116 0.006,0.0022 0.0121,-7.41e-4 0.0188,0.0022 0.004,0.0013 0.01,0.0064 0.0158,0.0085 0.006,0.0029 0.0129,0.0044 0.0201,0.0066 0.009,0.0028 0.0151,0.002 0.0252,0.0035 0.006,7.41e-4 0.009,0.0044 0.0144,0.005 0.0114,0.0037 0.028,0 0.0403,0 0.007,0 0.0151,7.41e-4 0.0215,-5.65e-4 0.006,-7.41e-4 0.008,-0.0044 0.0158,-0.0044 0.008,0 0.0121,-7.4e-4 0.0193,-0.0022 0.009,-0.002 0.0173,-5.64e-4 0.026,-0.0035 0.009,-0.0015 0.0151,-0.0044 0.0258,-0.0044 0.0101,0 0.0217,0.0022 0.0317,0 0.023,-0.0028 0.0433,-0.01436 0.0633,-0.02503 0.026,-0.01307 0.0547,-0.03387 0.0834,-0.04031 0.009,-0.0022 0.018,-0.0015 0.0267,-0.0037 0.0158,-0.002 0.0309,-0.0079 0.046,-0.01141 0.0416,-0.0086 0.0849,-0.01215 0.11135,-0.04822 0.0116,-0.01583 0.0267,-0.02375 0.0453,-0.02577 0.0237,-0.0022 0.0433,-0.01013 0.0675,-0.01013 0.0151,0 0.0316,-0.0022 0.0468,0 0.008,7.41e-4 0.0143,0.005 0.023,0.005 0.008,7.4e-4 0.0166,0 0.0245,0 0.0151,0 0.0302,0 0.0445,0 0.023,7.4e-4 0.0324,-0.0099 0.0453,-0.02724 0.0123,-0.01583 0.0116,-0.02669 0.007,-0.04602 -0.005,-0.02024 -0.004,-0.03957 -0.0173,-0.05614 -0.0123,-0.01509 -0.0309,-0.02227 -0.0475,-0.03018 -0.009,-0.0042 -0.0188,-0.0057 -0.0272,-0.01012 -0.0109,-0.0042 -0.0225,-0.0064 -0.0331,-0.01068 -0.0173,-0.0072 -0.0324,-0.01086 -0.0517,-0.01362 -0.018,-0.0029 -0.0381,0 -0.0569,0 -0.0201,0 -0.0396,0.005 -0.0604,0.005 -0.0158,0 -0.0317,0 -0.0468,0 -0.0109,-7.4e-4 -0.0201,-0.0044 -0.0309,-0.005 -0.0101,-0.0015 -0.018,0.0013 -0.0272,0.0035 -0.0101,0.0022 -0.0203,7.41e-4 -0.0302,7.41e-4 -0.009,7.41e-4 -0.0158,0.0042 -0.0252,0.0057 -0.0158,0.0022 -0.0281,7.41e-4 -0.0433,0.0072 -0.008,0.0029 -0.0179,0.0079 -0.0243,0.01307 -0.007,0.0042 -0.0101,0.01068 -0.0158,0.01362 -0.004,0.0028 -0.008,0.0028 -0.0123,0.005 -0.004,0.0029 -0.006,0.0079 -0.01,0.01086 -0.004,0.0035 -0.0101,0.0086 -0.0145,0.01067 -0.006,0.0044 -0.0144,0.0059 -0.0201,0.01013 -0.008,0.005 -0.0129,0.01086 -0.0201,0.01583 -0.0109,0.0057 -0.0195,0.01436 -0.0281,0.02374 -0.006,0.0057 -0.0114,0.0087 -0.0171,0.01436 -0.006,0.005 -0.008,0.0094 -0.0144,0.01362 -0.006,0.0037 -0.0123,0.0087 -0.0188,0.01307 -0.0129,0.0072 -0.0267,0.0085 -0.0381,0.01785 -0.0121,0.0094 -0.0215,0.01951 -0.0302,0.03313 -0.008,0.01141 -0.0173,0.02153 -0.0267,0.0324 -0.004,0.0042 -0.006,0.0099 -0.01,0.01509 -0.004,0.005 -0.009,0.0072 -0.0151,0.01067 -0.0217,0.01307 -0.0418,0.02743 -0.0663,0.03534 -0.0144,0.0042 -0.0272,0.0028 -0.0423,0.0035 -0.009,0 -0.0109,-0.002 -0.0124,0.0072 -0.003,0.01013 10e-4,0.01013 0.007,0.01509"
       style="fill:#21201d;fill-opacity:1;fill-rule:nonzero;stroke:none;stroke-width:0.184057"
       id="path596" />
    <path
       d="m 424.6407,-50.46086 -0.023,0.02301 c 0.005,0.0029 0.01,0.0066 0.0151,0.0079 0.003,-0.0099 0.005,-0.02006 0.008,-0.03092"
       style="fill:#21201d;fill-opacity:1;fill-rule:nonzero;stroke:none;stroke-width:0.184057"
       id="path598" />
    <path
       d="m 423.95252,-50.77063 c -0.0906,-7.41e-4 -0.17173,-0.0059 -0.20192,0.0935 0.0409,0.0208 0.0567,0.06829 0.097,0.08117 0.0238,0.0079 0.0589,-0.005 0.0841,0 0.0201,0.0042 0.0215,0.02374 0.041,0.02871 0.0475,0.0116 0.0618,0.0173 0.10271,0.03736 0.0497,0.02448 0.0972,0.02098 0.14448,0.04104 0.0396,0.0173 0.0598,0.05687 0.1108,0.06405 0.023,0.0035 0.049,-0.0087 0.0705,-0.0037 0.0186,0.0044 0.0272,0.02522 0.0409,0.02871 0.0468,0.0138 0.25327,0.03166 0.26468,-0.01933 -0.0351,-0.01086 -0.0633,-0.0079 -0.10068,-0.0072 l 0.0109,-0.0116 c -0.067,-0.03663 -0.13381,-0.161051 -0.20927,-0.205593 -0.0618,-0.03515 -0.11209,-0.10344 -0.18332,-0.124423 -0.0792,-0.02301 -0.18903,-0.0013 -0.27185,-0.0028"
       style="fill:#21201d;fill-opacity:1;fill-rule:nonzero;stroke:none;stroke-width:0.184057"
       id="path600" />
    <path
       d="m 424.77653,-49.442652 h -7e-4 c 0.002,-0.0015 0.002,-0.0022 7e-4,0 m 4.04629,-0.269645 c -0.0287,-7.41e-4 -0.0589,0.0035 -0.0861,0.0072 -0.0296,0.005 -0.0512,0.0015 -0.0814,-0.0029 -0.0287,-0.0057 -0.069,0.0037 -0.0928,0.01436 -0.0237,0.0087 -0.0488,0.01086 -0.0762,0.01012 -0.0525,-0.0015 -0.11577,-0.01215 -0.17467,-0.0022 -0.0287,0.0029 -0.0582,0.0064 -0.0898,0.01436 -0.0316,0.0094 -0.0547,0.02245 -0.0734,0.02522 h -0.10712 c -0.0329,0.0037 -0.0661,0.01233 -0.0977,0.02374 l 0.004,-7.41e-4 c -0.0366,0.0087 -0.069,0.01877 -0.0999,0.0208 -0.0295,0.0029 -0.0631,-0.002 -0.10344,-0.0028 -0.0215,7.41e-4 -0.041,0 -0.0698,0.0079 -0.0287,0.0099 -0.0423,0.01932 -0.046,0.01785 -0.0237,0.0044 -0.0569,7.41e-4 -0.0942,-0.002 -0.079,-0.0059 -0.15884,0.0013 -0.23504,0.01933 -0.0683,0.0173 -0.13804,0.02374 -0.21921,0.05043 -0.0396,0.01215 -0.0821,0.0381 -0.10289,0.04601 -0.0121,0.0042 -0.0166,0.0057 -0.0294,0.0057 -0.004,7.41e-4 -0.0101,7.41e-4 -0.0158,7.41e-4 -0.009,-7.41e-4 -0.0173,-0.0015 -0.0238,-0.0015 l -0.0683,-0.01086 c 0,0 0,7.41e-4 0,7.41e-4 -0.018,0.0044 -0.0339,0.0116 -0.0482,0.01804 -0.0114,0.005 -0.0237,0.01067 -0.0324,0.01288 -0.0468,0.0116 -0.0933,0.01877 -0.13013,0.02448 l -0.009,0.0015 c -0.0236,0.0028 -0.0567,0.0087 -0.0755,0.02945 -0.0891,-0.0037 -0.1732,-0.01509 -0.23154,-0.0554 -0.0517,-0.03166 -0.10492,-0.08485 -0.18112,-0.128656 -0.074,-0.04178 -0.13877,-0.06479 -0.18552,-0.09847 -0.0532,-0.03663 -0.10988,-0.08632 -0.18258,-0.129393 -0.0747,-0.04528 -0.15388,-0.07049 -0.23228,-0.08779 -0.0782,-0.01657 -0.15664,-0.02448 -0.23578,-0.02577 -0.0712,0 -0.14596,-0.0037 -0.22437,5.64e-4 -0.0782,0.0052 -0.16104,0.01233 -0.24866,0.0519 -0.0468,0.02153 -0.0826,0.05172 -0.10215,0.06313 -0.0107,0.0066 -0.0166,0.0094 -0.0316,0.01454 -0.0129,0.005 -0.0316,0.0099 -0.0539,0.01859 -0.028,0.01086 -0.0626,0.0324 -0.0849,0.06037 -0.0223,0.02816 -0.0316,0.05246 -0.0388,0.06552 -0.009,0.02006 -0.0201,0.03166 -0.0416,0.04804 -0.0223,0.0173 -0.0475,0.03037 -0.0878,0.05761 -0.0201,0.01583 -0.0409,0.02871 -0.0661,0.06681 -0.0101,0.01583 -0.0158,0.03313 -0.0195,0.04601 -7e-4,0 -7e-4,0 -0.001,0 -0.0101,-7.41e-4 -0.0245,-0.0015 -0.0396,0 -0.0166,0.0022 -0.0287,0.0015 -0.0591,0.01362 -0.01,0.0044 -0.0201,0.01086 -0.0287,0.01804 -0.0554,7.41e-4 -0.11503,-0.0042 -0.17835,-0.01583 l -0.42554,-0.08632 c -0.0675,-0.01362 -0.14099,-0.03442 -0.22142,-0.0438 -0.0697,-0.0087 -0.13878,-0.01933 -0.20633,-0.03442 -0.0641,-0.01583 -0.13951,-0.0381 -0.21148,-0.05393 -0.0366,-0.0087 -0.0733,-0.01583 -0.11061,-0.02301 l -0.0561,-0.0086 c -0.018,-0.0029 -0.0316,-0.0052 -0.049,-0.0094 -0.0624,-0.01288 -0.13859,-0.04031 -0.21277,-0.05172 l -0.21497,-0.0381 c -0.29983,-0.02669 -0.54849,-0.139516 -0.86065,-0.178352 l -0.1386,-0.0173 0.10124,0.09571 c 0.0195,0.01859 0.0302,0.02006 0.0418,0.02577 l 0.0287,0.0116 c 0.0188,0.0079 0.0302,0.01509 0.0547,0.02374 0.0438,0.01509 0.0792,0.01933 0.11725,0.03166 0.0423,0.01067 0.0819,0.01509 0.1178,0.02227 0.0131,0.002 0.0281,0.01141 0.0532,0.01859 0.026,0.0072 0.049,0.0072 0.0663,0.0079 l 0.0173,0.0022 c -7.1e-4,0 0,0 7e-4,7.41e-4 0.004,0.0015 0.0123,0.0072 0.0238,0.01288 0.0143,0.0072 0.0252,0.0079 0.0346,0.01012 l 0.0287,0.0072 c 0.0403,0.0094 0.0784,0.01804 0.11356,0.02945 0.0353,0.01086 0.0712,0.02522 0.0999,0.04325 0.0158,0.0099 0.0324,0.02282 0.0561,0.03295 0.0272,0.01013 0.0475,0.0094 0.0668,0.01086 0.0331,0.0028 0.0769,0.01362 0.1143,0.02006 0.0396,0.0072 0.0791,0.0116 0.11798,0.01657 0.0784,0.0079 0.15167,0.02374 0.23155,0.03884 0.0381,0.0072 0.0755,0.01509 0.10988,0.02724 0.0388,0.01307 0.0784,0.02301 0.11651,0.03166 0.0388,0.01013 0.0762,0.01877 0.11227,0.03092 10e-4,7.41e-4 0.004,0.0022 0.006,0.0029 -0.0294,-0.0037 -0.0489,0.0042 -0.0618,0.02798 -0.006,0.01159 -0.004,0.02522 -0.002,0.0381 7e-4,0.0029 0.001,0.0064 0.001,0.0087 0,0.01583 10e-4,0.03166 0.002,0.04749 10e-4,0.0416 0.004,0.08411 -0.006,0.123687 -0.0223,0.09276 -0.0193,0.189027 -0.0158,0.283265 0.001,0.03368 0.002,0.06681 0.002,0.09921 v 0.03884 c 7e-4,0.02798 7e-4,0.05614 0,0.08412 -7.1e-4,0.03442 0.0136,0.06405 0.0267,0.09203 0.008,0.0173 0.0158,0.0324 0.0201,0.04951 0.007,0.02374 0.0151,0.04601 0.023,0.06902 0.006,0.01951 0.0129,0.03884 0.0188,0.05908 0.01,0.03442 0.0272,0.06534 0.0431,0.09626 0.0129,0.02448 0.0252,0.04675 0.0339,0.07049 0.0201,0.05172 0.0567,0.09921 0.0933,0.144486 0.0381,0.04896 0.0742,0.09424 0.0907,0.144485 0.0121,0.03607 0.033,0.06479 0.0539,0.09497 l 0.0144,0.02006 c 0.0136,0.02025 0.0272,0.04105 0.0396,0.06111 0.0272,0.04105 0.0545,0.08338 0.0869,0.12516 0.0223,0.02724 0.0388,0.05687 0.0561,0.08835 0.004,0.0066 0.007,0.01307 0.0107,0.01878 0.0138,0.03387 0.0316,0.06976 0.0547,0.110067 l 0.004,0.0072 c 0.004,0.0064 0.007,0.01215 0.01,0.01785 0.003,0.0087 0.006,0.0173 0.008,0.02595 l 0.0705,-0.0064 c -10e-4,-0.0116 -0.005,-0.02227 -0.01,-0.03166 -0.0109,-0.0324 -0.0237,-0.06479 -0.044,-0.09497 -0.01,-0.01435 -0.0179,-0.02798 -0.0258,-0.04307 -0.009,-0.02227 -0.0173,-0.04307 -0.0237,-0.06534 -0.0267,-0.09571 -0.0697,-0.190684 -0.10712,-0.274062 -0.0361,-0.0797 -0.0633,-0.160315 -0.09,-0.238723 l -0.0158,-0.04528 c -0.008,-0.02374 -0.006,-0.05172 -0.004,-0.07896 0,-0.01086 7.1e-4,-0.02172 10e-4,-0.03166 0,-0.02227 -0.004,-0.03313 -0.0101,-0.04601 l -0.004,-0.01362 c -0.006,-0.0173 -0.005,-0.03608 -0.004,-0.0554 7e-4,-0.0087 7e-4,-0.01657 7e-4,-0.02448 v -0.313451 c 0,-0.04749 7.1e-4,-0.09497 0,-0.142461 0,-0.01712 0.004,-0.03368 0.007,-0.05098 0.005,-0.01877 0.0101,-0.03736 0.009,-0.0589 -7e-4,-0.0381 0.002,-0.06184 0.0193,-0.09424 0.0109,-0.0208 0.0195,-0.04233 0.0282,-0.06332 0.005,-0.01141 0.009,-0.02301 0.0143,-0.03368 0.0136,-0.03092 0.0215,-0.0519 0.0215,-0.08338 7.1e-4,-0.0087 -7e-4,-0.01583 -0.003,-0.02172 0.0418,0.01012 0.0836,0.01951 0.12442,0.02816 0.0769,0.01712 0.15534,0.02724 0.23302,0.0416 0.0718,0.01435 0.1524,0.03957 0.23227,0.05043 0.0804,0.01141 0.16308,0.02577 0.25732,0.0064 0.023,-0.0052 0.0475,-0.01288 0.0712,-0.02669 0.0121,-0.005 0.033,-0.02448 0.0396,-0.03295 0.008,-0.01086 0.0114,-0.01307 0.0114,-0.01233 0.003,-0.0022 0.0151,-0.0072 0.0359,-0.01509 0.0202,-0.0064 0.0519,-0.02153 0.0727,-0.04233 0.0237,-0.02227 0.0366,-0.04602 0.0453,-0.05687 0.009,-0.01215 0.0215,-0.02724 0.0339,-0.0416 0.0121,-0.01454 0.0258,-0.03037 0.0401,-0.04822 0.006,-0.0094 0.0158,-0.02153 0.021,-0.03019 l 0.0164,-0.0037 0.009,-0.0028 c 0.004,-0.0015 0.009,-0.0029 0.0136,-0.0052 0.0339,-0.01436 0.0526,-0.0324 0.0677,-0.04307 0.0236,-0.02006 0.0567,-0.04031 0.0861,-0.05614 0.0618,-0.03313 0.12737,-0.05246 0.18277,-0.04749 0.007,0 0.0136,0.0015 0.0201,0.0022 10e-4,0 0.004,7.41e-4 0.0114,0.0044 0.007,0.002 0.0166,0.0072 0.0324,0.01288 0.0166,0.005 0.0237,0.0064 0.0346,0.0094 0.0208,0.005 0.0381,0.0092 0.0532,0.01362 0.008,0.0028 0.0151,0.005 0.0215,0.0072 0.005,0.0029 0.009,0.0042 0.0136,0.0072 0.009,0.005 0.0223,0.01804 0.0438,0.0324 0.0217,0.01509 0.0447,0.02724 0.067,0.03663 0.0423,0.01804 0.0819,0.02945 0.11706,0.04105 0.0188,0.0064 0.0324,0.01067 0.0512,0.01785 0.0215,0.0087 0.0423,0.01583 0.0619,0.02153 0.0388,0.01233 0.0732,0.02172 0.0977,0.0346 0.006,0.0022 0.0109,0.0057 0.0151,0.0094 l 0.0272,0.01785 c 0.018,0.01307 0.0368,0.02301 0.0561,0.03387 0.0366,0.02006 0.0727,0.03736 0.10712,0.05467 l 0.1086,0.05246 0.0547,0.02595 c 0.0129,0.0057 0.007,0.0028 0.0201,0.0099 0.006,0.0037 0.018,0.01012 0.0316,0.01381 0.0123,0.0028 0.023,0.0042 0.0316,0.0042 0.0151,7.41e-4 0.0445,-0.0022 0.0626,-0.01141 0.009,-0.0037 0.0114,-0.0059 0.0114,-0.0059 0.007,-0.0015 0.021,-0.0015 0.0388,-7.41e-4 0.0188,0.0015 0.041,0.0037 0.0705,0.0015 0.0267,-0.0022 0.0497,-0.0079 0.072,-0.01436 0.0423,-0.01215 0.0769,-0.02797 0.10914,-0.04104 0.0151,0.05264 0.0304,0.105097 0.044,0.157554 0.0136,0.04749 0.0265,0.09553 0.0403,0.143749 0.004,0.01436 0.006,0.02945 0.006,0.04601 0.002,0.01804 0.004,0.0381 0.01,0.05687 l 0.004,0.01362 c 0.006,0.01436 0.008,0.02227 0.008,0.03957 -7.1e-4,0.03442 0.004,0.06755 0.009,0.09921 0.003,0.02153 0.006,0.04381 0.008,0.06608 0.004,0.06037 0.002,0.122215 7.1e-4,0.183322 -7.1e-4,0.03092 -7.1e-4,0.06184 -7.1e-4,0.09276 v 0.02301 c 0,0.03736 7.1e-4,0.07344 -0.008,0.108594 -0.005,0.01932 -0.0116,0.0381 -0.018,0.05614 -0.0101,0.02503 -0.0193,0.05025 -0.0245,0.08043 -0.003,0.0208 -0.0136,0.04178 -0.0252,0.06405 -0.004,0.0072 -0.007,0.01436 -0.0114,0.02227 -0.018,0.03884 -0.0396,0.08411 -0.0648,0.126448 -0.005,0.0074 -0.01,0.01527 -0.0151,0.02172 -0.0114,0.01583 -0.0237,0.03166 -0.0295,0.05466 -0.004,0.0099 -0.006,0.01859 -0.007,0.02798 -0.006,0.02522 -0.0121,0.04896 -0.0252,0.07399 -0.006,0.0116 -0.01,0.02522 -0.0151,0.03884 -0.002,0.0064 -0.004,0.01288 -0.006,0.01877 -0.008,0.0094 -0.0158,0.01859 -0.0237,0.02798 l -0.0114,0.01215 c -0.007,0.0052 -0.0203,0.01454 -0.0188,0.03313 l 0.005,0.04178 0.0512,-0.02374 c 0.0381,-0.0173 0.0539,-0.04528 0.0646,-0.07417 0.006,-0.0072 0.0109,-0.01362 0.0158,-0.0208 0.0223,-0.03295 0.0396,-0.06681 0.0554,-0.09994 0.0136,-0.02871 0.028,-0.05669 0.0445,-0.08338 0.0433,-0.06534 0.0834,-0.139515 0.12736,-0.233569 0.0114,-0.02374 0.0265,-0.04675 0.0409,-0.06902 0.0202,-0.03092 0.0403,-0.06184 0.0526,-0.09718 0.0114,-0.03295 0.0193,-0.06681 0.028,-0.09994 0.009,-0.0381 0.0186,-0.07767 0.0337,-0.115036 0.0188,-0.04675 0.0289,-0.097 0.0381,-0.143749 0.007,-0.03589 0.0145,-0.0727 0.0252,-0.107858 0.0131,-0.03957 0.0195,-0.08117 0.0252,-0.117245 0.002,-0.01509 0.009,-0.03019 0.0158,-0.04675 0.009,-0.0208 0.018,-0.04233 0.0186,-0.06608 7e-4,-0.0086 0,-0.01657 -7.1e-4,-0.02522 -7e-4,-0.01215 -0.001,-0.0243 10e-4,-0.03442 10e-4,-0.0057 0.004,-0.01086 0.006,-0.01583 0.004,-0.0094 0.009,-0.01951 0.01,-0.03166 0.003,-0.02301 0.002,-0.04675 7.1e-4,-0.06976 -7.1e-4,-0.01215 -7.1e-4,-0.02374 -7.1e-4,-0.03589 v -0.172647 c 0,-0.0064 0,-0.01288 7.1e-4,-0.01933 7e-4,-0.01362 0.002,-0.02871 -7.1e-4,-0.04325 0.0289,-0.005 0.0569,-0.0092 0.0856,-0.01638 0.0215,-0.0059 0.0425,-0.0116 0.0655,-0.02172 0.0223,-0.0099 0.0394,-0.01933 0.0545,-0.0265 0.0151,-0.0064 0.026,-0.01086 0.0447,-0.01436 l 0.0574,-0.01233 0.11429,-0.02375 0.0295,-0.0057 c 0.0131,-0.0028 0.0252,-0.0072 0.0368,-0.01141 0.0158,-0.0064 0.0287,-0.01307 0.0394,-0.01657 0.0151,-0.0015 0.0316,-0.0029 0.0497,-0.0072 0.0109,-0.0029 0.0188,-0.0057 0.026,-0.0087 0.0129,-0.0015 0.0272,-0.0022 0.0416,-0.0037 0.0195,-0.0013 0.0445,-0.0035 0.0641,-0.0092 l 0.041,-0.01012 c 0.0114,0 0.0228,0 0.0351,-0.0015 0.0302,-0.0042 0.0569,-0.01288 0.0826,-0.0208 0.0418,-0.0057 0.0841,-0.01013 0.12792,-0.01583 0.0403,-0.0044 0.0791,-0.0087 0.12019,-0.01877 0.0416,-0.0087 0.079,-0.02798 0.1143,-0.04013 0.0331,-0.01509 0.0683,-0.01233 0.11062,-0.01509 0.0425,-0.0022 0.0791,-0.01877 0.1165,-0.02025 v -0.0015 c 0.0158,-0.0028 0.0316,-0.0079 0.0467,-0.01436 0.003,-0.0015 0.005,-0.002 0.008,-0.0035 l 0.0769,-0.01435 c 0.0245,5.64e-4 0.0547,0.0013 0.0777,-0.0066 0.028,-0.0064 0.0547,-0.01288 0.0827,-0.01436 z"
       style="fill:#21201d;fill-opacity:1;fill-rule:nonzero;stroke:none;stroke-width:0.184057"
       id="path602" />
  </g>
</svg>
