<?xml version="1.0" encoding="UTF-8" standalone="no"?>
<!-- Created with Inkscape (http://www.inkscape.org/) -->

<svg
   width="7.1310949mm"
   height="6.8707638mm"
   viewBox="0 0 7.1310949 6.8707638"
   version="1.1"
   id="svg3809"
   inkscape:version="1.1.2 (0a00cf5339, 2022-02-04)"
   sodipodi:docname="e10.svg"
   xmlns:inkscape="http://www.inkscape.org/namespaces/inkscape"
   xmlns:sodipodi="http://sodipodi.sourceforge.net/DTD/sodipodi-0.dtd"
   xmlns="http://www.w3.org/2000/svg"
   xmlns:svg="http://www.w3.org/2000/svg">
  <sodipodi:namedview
     id="namedview3811"
     pagecolor="#ffffff"
     bordercolor="#666666"
     borderopacity="1.0"
     inkscape:pageshadow="2"
     inkscape:pageopacity="0.0"
     inkscape:pagecheckerboard="0"
     inkscape:document-units="mm"
     showgrid="false"
     inkscape:zoom="0.64052329"
     inkscape:cx="-744.7036"
     inkscape:cy="330.19877"
     inkscape:window-width="2560"
     inkscape:window-height="1376"
     inkscape:window-x="0"
     inkscape:window-y="0"
     inkscape:window-maximized="1"
     inkscape:current-layer="layer1" />
  <defs
     id="defs3806">
    <clipPath
       clipPathUnits="userSpaceOnUse"
       id="clipPath256">
      <path
         d="M 786.496,545 H 810 v 36.504 h -23.504 z"
         id="path254" />
    </clipPath>
  </defs>
  <g
     inkscape:label="Layer 1"
     inkscape:groupmode="layer"
     id="layer1"
     transform="translate(-302.109,-61.004117)">
    <path
       d="m 307.06987,67.615358 0.001,0.0014 c -0.002,0 -0.003,0 -0.001,-0.0014 m 0.9339,-2.533741 -0.0171,-0.05393 -0.008,-0.02798 c -0.004,-0.01161 -0.009,-0.02226 -0.0131,-0.03239 -0.0193,-0.04031 -0.0423,-0.07197 -0.0604,-0.10215 -0.0223,-0.03589 -0.0475,-0.06681 -0.0747,-0.097 -0.0136,-0.0151 -0.028,-0.02946 -0.0431,-0.04307 l -0.0418,-0.0381 c -0.028,-0.02522 -0.0596,-0.0532 -0.0963,-0.07565 -0.0368,-0.02357 -0.0777,-0.0381 -0.11154,-0.05172 -0.0351,-0.01288 -0.0589,-0.02575 -0.0935,-0.04601 l -0.0992,-0.05669 c -0.0676,-0.03681 -0.14006,-0.07123 -0.22068,-0.09203 -0.0431,-0.01087 -0.0812,-0.01305 -0.11135,-0.02025 -0.0274,-0.0057 -0.0641,-0.02374 -0.11228,-0.03295 -0.023,-0.0044 -0.0503,-0.0044 -0.0755,0 -0.0237,0.0042 -0.0431,0.0099 -0.0633,0.01637 -0.0114,0.0044 -0.0223,0.0079 -0.0344,0.01305 0.0107,-0.0086 0.0208,-0.01803 0.0302,-0.02741 0.0302,-0.02797 0.0561,-0.0646 0.0883,-0.08338 l 7.1e-4,0.0037 c -7.1e-4,0 -0.006,0.0065 -0.003,0.01362 0.004,0.0065 0.009,0.0079 0.0121,0.01013 0.009,0.0021 0.0158,0.0021 0.0245,0.0028 0.0151,0 0.0302,-0.0021 0.0453,-0.0072 0.0144,-0.005 0.0295,-0.01143 0.0423,-0.02374 0.0123,-0.0114 0.021,-0.0302 0.0195,-0.04878 -0.003,-0.03681 -0.0215,-0.0611 -0.0359,-0.08706 -0.0158,-0.02522 -0.0296,-0.04675 -0.0388,-0.07344 -0.0202,-0.05172 -0.0302,-0.107675 -0.046,-0.165284 l -0.0467,-0.168229 c -0.0316,-0.111358 -0.0611,-0.225104 -0.0992,-0.335724 -0.0195,-0.05614 -0.0403,-0.111538 -0.0626,-0.166205 -0.0116,-0.02797 -0.0245,-0.05319 -0.0346,-0.08043 l -0.0287,-0.07841 -0.002,-0.0079 -0.004,-0.0028 -0.0517,-0.06479 0.004,0.005 -0.0928,-0.144487 c -0.0287,-0.04528 -0.0547,-0.09773 -0.0906,-0.150926 -0.009,-0.01288 -0.018,-0.0267 -0.0287,-0.03957 l -0.0281,-0.03387 -0.0552,-0.06681 c -0.0361,-0.04528 -0.0712,-0.09055 -0.10657,-0.136571 -0.0711,-0.09129 -0.13804,-0.184795 -0.20117,-0.281054 -0.0166,-0.02522 -0.0282,-0.04602 -0.0504,-0.0762 -0.0208,-0.02741 -0.0423,-0.04896 -0.0618,-0.06903 -0.009,-0.01012 -0.0178,-0.02025 -0.0257,-0.02963 -0.009,-0.01288 -0.021,-0.02575 -0.0309,-0.03736 -0.0223,-0.02374 -0.0445,-0.04454 -0.0663,-0.06387 l -0.25804,-0.2367 c -0.0208,-0.02152 -0.051,-0.0438 -0.0755,-0.0589 -0.0252,-0.01729 -0.0475,-0.0309 -0.0683,-0.04748 -0.023,-0.01785 -0.049,-0.03737 -0.0777,-0.05393 -0.0144,-0.0079 -0.0287,-0.01584 -0.0438,-0.02226 -0.0123,-0.005 -0.0237,-0.0099 -0.0361,-0.01658 -0.0237,-0.01288 -0.0475,-0.02797 -0.0733,-0.04307 -0.0252,-0.01655 -0.0524,-0.0309 -0.0769,-0.0438 -0.051,-0.02872 -0.0985,-0.05319 -0.15461,-0.08559 -0.0272,-0.01436 -0.0561,-0.02597 -0.0848,-0.03663 -0.0265,-0.0086 -0.0503,-0.02025 -0.0797,-0.03238 -0.0267,-0.01288 -0.0655,-0.02226 -0.0957,-0.02152 -0.0324,-7.05e-4 -0.0626,0 -0.0985,0.01069 l -0.0309,0.01013 0.0121,0.02723 c 0.0136,0.02889 0.0294,0.03037 0.041,0.03755 0.0114,0.005 0.023,0.0085 0.0339,0.01143 0.0107,0.0037 0.0215,0.0065 0.0287,0.0094 l 0.0309,0.01214 c 0.0409,0.01658 0.079,0.03164 0.11135,0.0554 0.0166,0.01214 0.0295,0.02596 0.0467,0.04252 0.0173,0.0151 0.0351,0.02872 0.0525,0.04307 0.0353,0.02596 0.0705,0.05098 0.10068,0.08043 0.0569,0.06184 0.11798,0.128838 0.18185,0.187737 0.0331,0.02946 0.0648,0.06111 0.0992,0.08908 0.0346,0.02741 0.0677,0.05319 0.0935,0.08633 0.026,0.03164 0.0512,0.07123 0.0828,0.102887 0.0307,0.03221 0.0624,0.06313 0.0913,0.09479 0.0144,0.01584 0.0287,0.03164 0.0409,0.04896 l 0.0202,0.02522 c 0.008,0.0099 0.0164,0.01859 0.0251,0.02723 0.0173,0.01658 0.0339,0.02872 0.0467,0.04252 0.0136,0.01436 0.0252,0.03147 0.0403,0.05025 0.0173,0.01933 0.0316,0.03164 0.0431,0.04822 0.0131,0.01584 0.0245,0.03295 0.0353,0.05025 0.0107,0.01803 0.0208,0.03589 0.0302,0.05393 0.009,0.02081 0.0208,0.04105 0.0317,0.06037 0.0223,0.03884 0.0445,0.0762 0.0646,0.112828 0.0109,0.01951 0.0158,0.03387 0.0309,0.05982 0.0136,0.023 0.0282,0.04013 0.0388,0.05596 0.0109,0.01584 0.0166,0.02815 0.0237,0.04822 0.007,0.01877 0.0151,0.04252 0.028,0.06682 l 0.0583,0.115771 0.0287,0.05688 c 0.0101,0.01859 0.0158,0.03514 0.0223,0.05466 0.0123,0.03737 0.0215,0.0797 0.0346,0.124975 0.006,0.02247 0.0144,0.04546 0.0243,0.06773 l 0.0274,0.05964 0.0517,0.119267 0.10435,0.239462 c 0.0683,0.161788 0.14007,0.321363 0.21498,0.480205 l 0.0582,0.117246 c 0.009,0.01877 0.0193,0.03957 0.023,0.05614 0.006,0.02007 0.008,0.04233 0.0201,0.06755 0.005,0.01214 0.021,0.02741 0.0381,0.02946 0.004,7.05e-4 0.008,7.05e-4 0.0123,7.05e-4 -0.0123,0.0079 -0.0223,0.01584 -0.0295,0.02226 -0.0145,0.01235 -0.026,0.01951 -0.0316,0.02226 -0.006,0.0021 -0.0109,0.0028 -0.0245,0.0079 -0.008,0.0028 -0.0215,0.0094 -0.0287,0.01584 -0.008,0.0057 -0.0131,0.01087 -0.0173,0.01584 -0.0151,0.01658 -0.023,0.02596 -0.0339,0.03387 -0.008,0.0065 -0.0322,0.02374 -0.0467,0.03736 -0.0322,0.02946 -0.0574,0.06037 -0.0812,0.09056 l -0.0697,0.08908 -0.0698,0.09 c -0.0129,0.01658 -0.0208,0.02723 -0.0324,0.04086 l -0.0381,0.04104 c -0.0136,0.0151 -0.0272,0.03164 -0.0401,0.05025 -0.0131,0.01877 -0.0237,0.04105 -0.0309,0.05835 -0.0166,0.03736 -0.0289,0.07546 -0.0396,0.1143 -0.0208,0.0762 -0.0331,0.153871 -0.0403,0.230808 -0.004,0.0381 -0.006,0.0762 -0.008,0.115037 l -0.002,0.05669 c 0,0.01454 -0.002,0.02963 -0.006,0.04546 -0.008,0.03094 -0.0237,0.06534 -0.0344,0.107858 -0.005,0.01933 -0.008,0.0473 -0.009,0.06387 l -0.004,0.05466 c -0.008,0.07473 -0.0114,0.155346 -0.005,0.233017 0.007,0.07822 0.0245,0.161788 0.0727,0.2321 0.0237,0.03608 0.0545,0.067 0.0883,0.09074 l 0.049,0.0302 c 0.0144,0.0092 0.0287,0.02007 0.0438,0.0309 l 0.0445,0.03514 0.0237,0.01729 c 0.008,0.005 0.0129,0.0094 0.0201,0.0151 0.0252,0.02152 0.049,0.05098 0.0784,0.07896 0.0144,0.01379 0.0324,0.02741 0.0504,0.03755 0.0171,0.0099 0.0344,0.01859 0.051,0.02723 0.0166,0.0086 0.0294,0.01658 0.0431,0.02723 0.009,0.0066 0.0202,0.01584 0.041,0.01729 0.0208,0 0.0359,-0.0094 0.0468,-0.02649 0.009,-0.01951 0.006,-0.03607 0.002,-0.04675 -0.004,-0.01161 -0.008,-0.02025 -0.0123,-0.02872 l -0.0265,-0.05117 c -0.0173,-0.03369 -0.0346,-0.06681 -0.0532,-0.09994 -0.0749,-0.130867 -0.15755,-0.257313 -0.19639,-0.402537 l -0.006,0.0014 -0.005,0.0014 c 0.0114,0.06332 0.0329,0.12295 0.0574,0.182033 l 0.0467,0.163812 c -0.023,-0.0079 -0.0252,-0.03884 -0.0423,-0.06185 -0.0158,-0.02431 -0.0339,-0.04601 -0.0453,-0.07031 -0.026,-0.05117 -0.049,-0.102887 -0.0663,-0.156079 -0.0302,-0.106387 -0.0525,-0.220687 -0.0639,-0.330754 -0.0109,-0.110804 -0.002,-0.222896 0.0352,-0.324309 0.0396,-0.106387 0.0797,-0.212037 0.13436,-0.308483 0.19068,-0.350812 0.75923,-0.682854 1.07489,-0.345658 0.049,0.03147 0.0942,0.0589 0.12442,0.09405 0.0351,0.04325 0.0733,0.08706 0.10491,0.130129 0.0158,0.02226 0.0309,0.04399 0.044,0.067 0.0121,0.02152 0.0208,0.04528 0.0287,0.07031 0.0158,0.04969 0.0245,0.105833 0.0388,0.163995 0.0136,0.05963 0.0423,0.115038 0.0574,0.163996 0.0166,0.04675 0.0144,0.09921 0.0131,0.156634 -7e-4,0.115037 0.004,0.225103 0.005,0.337195 -0.004,0.01235 -0.008,0.02448 -0.0136,0.03736 -0.0151,0.0381 -0.0245,0.07491 -0.0366,0.10657 l -0.0433,0.104176 c -0.028,0.06902 -0.0561,0.136571 -0.097,0.194179 -0.0151,0.02081 -0.0282,0.0416 -0.0403,0.0624 -0.003,0.0021 -0.006,0.0052 -0.009,0.0074 -0.0121,0.0072 -0.0245,0.01436 -0.0381,0.02357 -0.0136,0.01012 -0.0245,0.02374 -0.0324,0.03239 -0.009,0.01086 -0.0156,0.01584 -0.0272,0.02081 -0.0116,0.0044 -0.0252,0.0074 -0.041,0.01305 -0.0316,0.0114 -0.0525,0.03443 -0.0747,0.04602 -0.0467,0.02649 -0.1027,0.04601 -0.15461,0.05319 -0.0258,0.0028 -0.0554,0.0014 -0.0861,0.005 -0.0131,7.05e-4 -0.0282,0.0079 -0.0383,0.01161 -0.0294,-0.0037 -0.0567,-0.01235 -0.0841,-0.02671 -0.0164,-0.0079 -0.0322,-0.0151 -0.0466,-0.023 -0.0145,-0.01069 -0.0289,-0.023 -0.0447,-0.03443 l -0.13289,-0.105833 0.10712,0.1316 c 7e-4,0.0014 0.002,0.0021 0.003,0.0037 0.0173,0.01933 0.0374,0.03239 0.0569,0.04307 0.005,0.0028 0.009,0.0057 0.0136,0.0094 0.0123,0.0079 0.0281,0.0151 0.041,0.01933 0.0107,0.0044 0.0238,0.01231 0.0396,0.01877 0.0107,0.0037 0.0223,0.0042 0.0337,0.0028 0.009,0.0014 0.018,0.0035 0.0267,0.0042 0.0396,0.0028 0.0769,0.0021 0.1143,0.0028 0.0151,0 0.0295,7.05e-4 0.0453,0 -0.001,7.05e-4 -0.003,0.0014 -0.004,0.0021 -0.0366,0.0079 -0.0747,0.0302 -0.0999,0.03884 -0.0157,0.0059 -0.0157,0.0052 -0.0302,0.0037 -0.0129,-7.05e-4 -0.0381,-0.0065 -0.071,0.0035 l -0.0583,0.01732 0.0245,0.05466 -0.16454,0.02671 0.18755,0.0085 c 0.004,0.0044 0.007,0.0079 0.009,0.01087 0.007,0.0079 0.006,0.0065 0.007,0.01087 7e-4,0.0035 0.001,0.0042 0.001,0.0151 7e-4,0.0099 0.003,0.02431 0.004,0.03589 0.004,0.0302 0.009,0.05743 0.0131,0.08264 l 7e-4,0.0037 c 0.001,0.01288 0.003,0.02448 0.003,0.03589 -10e-4,0.03957 -0.003,0.08338 -10e-4,0.12663 0,0.0021 -7e-4,0.0042 -10e-4,0.0057 -0.002,0.02872 -0.006,0.05595 -0.01,0.08043 -0.002,0.01235 -0.005,0.02448 -0.008,0.03607 -0.004,0.01288 -0.006,0.01711 -0.0123,0.0416 -0.006,0.04031 -0.002,0.06755 -0.006,0.08062 -0.004,0.01584 -0.0144,0.04528 -0.0215,0.0762 l -0.004,0.01785 c -0.001,0.0052 -0.004,0.01086 -0.005,0.01729 l -0.0129,0.04104 c -0.009,0.02946 -0.0203,0.06976 -0.004,0.113566 l 0.0151,0.04031 0.0339,-0.0086 c 0.0438,-0.01161 0.0567,-0.03534 0.0698,-0.05246 0.0129,-0.01877 0.0215,-0.03681 0.0302,-0.0554 0.0166,-0.03737 0.0287,-0.07123 0.0475,-0.104912 0.0359,-0.06773 0.0841,-0.128105 0.12866,-0.194183 0.0215,-0.03387 0.0403,-0.07123 0.051,-0.111538 0.0101,-0.04012 0.0144,-0.08191 0.0129,-0.12295 -0.002,-0.02649 -0.004,-0.05172 -0.008,-0.0762 0.009,-0.01362 0.018,-0.02798 0.0274,-0.04381 0.0173,-0.02872 0.0237,-0.06755 0.0252,-0.09626 l 0.003,-0.04252 c 10e-4,-0.01214 0.004,-0.02946 0.004,-0.04381 7.1e-4,-0.01436 0.001,-0.02671 0.003,-0.04031 l 7.1e-4,-0.01143 c 0.001,-0.0028 0.004,-0.0052 0.005,-0.0079 l 0.0337,-0.0611 c 0.0252,-0.01309 0.0482,-0.0302 0.0683,-0.0519 0.0576,-0.05964 0.0863,-0.132154 0.13013,-0.186821 0.009,-0.01161 0.0165,-0.023 0.0252,-0.03534 0.006,-0.0079 0.0129,-0.01584 0.0202,-0.023 0.0223,-0.02431 0.0359,-0.05172 0.048,-0.07896 0.0208,-0.0554 0.0418,-0.105096 0.0648,-0.159575 0.006,-0.01658 0.0129,-0.03461 0.0186,-0.05338 0.007,-0.02152 0.0151,-0.04307 0.023,-0.06166 0.0165,-0.03313 0.0302,-0.07491 0.041,-0.109329 0.0114,-0.03663 0.0215,-0.06552 0.0396,-0.09774 0.0201,-0.03608 0.0331,-0.08485 0.0344,-0.125159 10e-4,-0.04104 7e-4,-0.07694 10e-4,-0.115037 l 0.004,-0.2251 7e-4,-0.05614 c 0,-0.01637 0,-0.04307 -0.002,-0.06313 -0.006,-0.04252 -0.0166,-0.08135 -0.0274,-0.117983"
       style="fill:#21201d;fill-opacity:1;fill-rule:nonzero;stroke:none;stroke-width:0.184057"
       id="path656" />
    <path
       d="m 306.91894,64.824304 c 0.0208,-0.0028 0.041,7.06e-4 0.064,7.06e-4 0.0223,7.05e-4 0.0431,0.0014 0.0596,0.0079 0.0179,0.0072 0.0374,0.01637 0.0547,0.02649 0.0718,0.04104 0.13363,0.101413 0.18406,0.166017 0.0992,0.130129 0.11503,0.302775 0.1408,0.476712 0.003,0.02025 0.008,0.04749 0.009,0.06111 0.002,0.01729 7.1e-4,0.03534 -0.001,0.05393 -0.002,0.01877 -0.006,0.03737 -0.0129,0.05687 -0.008,0.023 -0.0121,0.04602 -0.0166,0.06902 -0.007,0.04455 -0.0114,0.08761 -0.023,0.123688 -0.0129,0.03663 -0.033,0.07399 -0.0547,0.112829 -0.01,0.01933 -0.0208,0.03884 -0.0309,0.06037 -0.01,0.02152 -0.0158,0.04104 -0.0265,0.05761 -0.0188,0.03663 -0.049,0.06111 -0.0834,0.08982 l -0.0504,0.0416 -0.0547,0.03461 c -0.0186,0.01087 -0.0344,0.02448 -0.0545,0.0302 -0.0101,0.0044 -0.021,0.0072 -0.0316,0.01214 -0.006,0.0028 -0.0109,0.0059 -0.0173,0.0094 -0.005,0.0044 -0.0136,0.0086 -0.0173,0.02226 l -0.005,0.01436 0.0151,0.0059 c 0.0604,0.02155 0.12075,0.03663 0.18829,0.0309 0.009,-0.0014 0.0173,-0.0021 0.0267,-0.0044 0.0107,-0.0035 0.0193,-0.0086 0.0265,-0.01362 0.0143,-0.01012 0.0267,-0.02078 0.0374,-0.0302 l 0.072,-0.05319 c 0.0503,-0.03461 0.10215,-0.07694 0.14301,-0.126633 0.0237,-0.02798 0.0381,-0.05963 0.0512,-0.08687 0.006,-0.01362 0.0129,-0.02667 0.0193,-0.0381 0.006,-0.01013 0.0144,-0.02226 0.023,-0.03608 0.0173,-0.02723 0.0339,-0.05448 0.0482,-0.08412 0.007,-0.0151 0.0129,-0.0302 0.0193,-0.04528 0.006,-0.01584 0.0101,-0.02374 0.0173,-0.03737 0.0123,-0.02448 0.0287,-0.05098 0.0433,-0.08411 0.006,-0.01658 0.0129,-0.03239 0.0171,-0.05614 0.003,-0.023 7e-4,-0.04086 7e-4,-0.05319 0,-0.01288 10e-4,-0.01711 0.005,-0.03147 0.003,-0.01235 0.008,-0.02815 0.0129,-0.04896 0.005,-0.03884 0.004,-0.06902 0.004,-0.101417 -7e-4,-0.03239 -7e-4,-0.0589 -7e-4,-0.09056 0,-0.03239 -10e-4,-0.06479 -0.005,-0.097 -0.008,-0.06552 -0.023,-0.130129 -0.0468,-0.191421 -0.0121,-0.0302 -0.0237,-0.06037 -0.0438,-0.09203 -0.0188,-0.0302 -0.0388,-0.05522 -0.0554,-0.07749 l -0.0265,-0.0381 c -0.0109,-0.01453 -0.0224,-0.02815 -0.0353,-0.04104 -0.0265,-0.02522 -0.0532,-0.04381 -0.0769,-0.06185 -0.0114,-0.0065 -0.0215,-0.01803 -0.0453,-0.0302 -0.0101,-0.0057 -0.023,-0.01012 -0.0339,-0.01288 l -0.0236,-0.0028 -0.0455,-0.0057 -0.0265,-0.0037 c -0.009,-0.0014 -0.018,-0.0014 -0.0274,-0.0014 -0.0344,0 -0.0631,0.0044 -0.0854,0.0014 -0.018,-0.0021 -0.0497,-0.01584 -0.0777,-0.02505 -0.0287,-0.01087 -0.0596,-0.02173 -0.092,-0.02815 -0.0324,-0.0079 -0.0683,-0.01143 -0.10565,-0.0028 -0.0188,0.0042 -0.0368,0.01362 -0.0526,0.02575 -0.008,0.0065 -0.0164,0.01658 -0.0215,0.02671 -0.004,0.0086 -0.006,0.0151 -0.009,0.02078 -0.008,0.02007 -0.0287,0.03443 -0.0589,0.05816 -0.009,0.01305 -0.007,0.01729 -0.008,0.02173 l -7.1e-4,0.01143 c -7e-4,0.0086 -10e-4,0.01803 0.001,0.02872 10e-4,0.01087 0.0116,0.02448 0.0245,0.02741 0.0114,0.0028 0.0215,0.0021 0.0294,-7.05e-4 0.0331,-0.0094 0.0589,-0.02872 0.0819,-0.04528 0.021,0 0.0447,-0.0057 0.0648,-0.0072"
       style="fill:#21201d;fill-opacity:1;fill-rule:nonzero;stroke:none;stroke-width:0.184057"
       id="path658" />
    <g
       id="g666"
       transform="matrix(0.18405616,0,0,0.18405792,157.34957,-39.155536)">
      <g
         clip-path="url(#clipPath256)"
         id="g664">
        <path
           d="m 807.699,581.055 c -0.344,-0.082 -0.66,0.007 -0.754,-0.055 -0.082,-0.027 -0.183,-0.094 -0.332,-0.164 -0.07,-0.039 -0.152,-0.074 -0.242,-0.098 -0.094,-0.027 -0.191,-0.039 -0.273,-0.039 -0.164,-0.004 -0.289,0.008 -0.364,-0.008 -0.054,-0.007 -0.179,-0.066 -0.289,-0.125 -0.113,-0.062 -0.25,-0.136 -0.41,-0.191 -0.082,-0.031 -0.168,-0.055 -0.258,-0.063 -0.082,-0.011 -0.144,-0.015 -0.218,-0.023 -0.141,-0.012 -0.27,-0.023 -0.391,-0.035 -0.121,-0.02 -0.23,-0.043 -0.371,-0.074 -0.137,-0.032 -0.281,-0.067 -0.442,-0.082 -0.164,-0.02 -0.312,-0.012 -0.449,-0.008 -0.133,0.004 -0.25,0.004 -0.347,-0.016 L 802.164,580 c -0.152,-0.027 -0.32,-0.047 -0.512,-0.02 l -0.418,0.086 -0.398,0.086 -0.195,0.043 c -0.016,0.004 -0.032,0.004 -0.051,0.004 l -0.035,-0.011 c -0.34,-0.102 -0.684,-0.211 -1.035,-0.297 -0.055,-0.063 -0.114,-0.133 -0.184,-0.215 -0.09,-0.106 -0.18,-0.227 -0.324,-0.344 -0.145,-0.113 -0.301,-0.191 -0.457,-0.242 -0.153,-0.051 -0.309,-0.082 -0.442,-0.106 -0.133,-0.023 -0.261,-0.046 -0.39,-0.074 -0.254,-0.055 -0.5,-0.121 -0.723,-0.215 -0.113,-0.047 -0.219,-0.105 -0.355,-0.172 -0.137,-0.066 -0.309,-0.132 -0.493,-0.148 -0.179,-0.016 -0.289,-0.008 -0.336,-0.031 -0.019,-0.004 -0.082,-0.035 -0.128,-0.063 -0.047,-0.027 -0.098,-0.062 -0.145,-0.097 -0.195,-0.141 -0.387,-0.325 -0.586,-0.512 -0.422,-0.395 -0.871,-0.727 -1.406,-0.992 -0.43,-0.196 -0.774,-0.578 -1.121,-0.989 -0.176,-0.207 -0.352,-0.421 -0.555,-0.629 -0.047,-0.05 -0.102,-0.101 -0.156,-0.152 l -0.141,-0.133 c -0.094,-0.089 -0.187,-0.187 -0.273,-0.281 -0.176,-0.195 -0.336,-0.398 -0.485,-0.613 -0.058,-0.09 -0.168,-0.258 -0.289,-0.363 -0.113,-0.11 -0.238,-0.196 -0.328,-0.27 -0.164,-0.145 -0.34,-0.355 -0.476,-0.559 -0.024,-0.027 -0.036,-0.062 -0.051,-0.093 0.035,0.039 0.074,0.082 0.117,0.121 0.094,0.09 0.199,0.156 0.297,0.219 0.215,0.121 0.41,0.214 0.582,0.367 0.207,0.164 0.445,0.222 0.637,0.32 0.093,0.051 0.195,0.125 0.304,0.184 0.102,0.054 0.211,0.105 0.321,0.152 l 0.644,0.273 c 0.227,0.094 0.453,0.153 0.664,0.235 0.203,0.074 0.426,0.195 0.653,0.265 0.222,0.082 0.457,0.145 0.691,0.196 0.141,0.031 0.277,0.015 0.375,0.019 0.098,0 0.172,0.028 0.285,0.067 0.102,0.043 0.262,0.093 0.399,0.089 0.132,0 0.23,-0.007 0.32,0.012 0.195,0.035 0.398,0.129 0.644,0.203 0.227,0.071 0.461,0.129 0.692,0.18 0.469,0.105 0.941,0.172 1.414,0.215 0.469,0.039 0.957,0.035 1.406,0.047 0.238,0.004 0.488,0.011 0.754,-0.039 l 0.687,-0.149 c 0.458,-0.097 0.918,-0.187 1.372,-0.277 l 1.375,-0.274 c 0.418,-0.101 0.91,-0.093 1.382,-0.25 0.848,-0.089 1.871,-0.406 2.7,-0.652 l -0.004,-0.027 -0.012,-0.028 h -0.008 l -0.781,-1.222 -0.02,-0.024 c -0.183,0.11 -0.394,0.078 -0.613,0.067 -0.23,-0.032 -0.465,0.078 -0.652,0.148 -0.106,0.039 -0.168,0.043 -0.274,0.031 -0.101,-0.007 -0.211,-0.039 -0.347,-0.027 -0.071,0.008 -0.141,0.027 -0.215,0.078 -0.074,0.055 -0.11,0.133 -0.129,0.164 -0.012,0.016 -0.016,0.024 -0.024,0.028 -0.015,0.011 -0.035,0.027 -0.05,0.035 -0.032,0.015 -0.055,0.023 -0.086,0.023 -0.071,0.004 -0.207,-0.019 -0.336,-0.008 -0.129,0.016 -0.25,0.063 -0.352,0.106 -0.105,0.043 -0.191,0.078 -0.285,0.101 l -0.48,0.153 -0.149,0.054 c -0.062,0.02 -0.179,0.036 -0.277,0.047 -0.207,0.028 -0.414,0.039 -0.621,0.039 -0.418,0.008 -0.856,-0.011 -1.289,-0.019 -0.434,-0.004 -0.86,-0.028 -1.313,-0.012 -0.215,0.012 -0.414,0.012 -0.582,-0.019 -0.09,-0.02 -0.187,-0.047 -0.301,-0.075 -0.054,-0.011 -0.117,-0.023 -0.179,-0.035 l -0.172,-0.023 c -0.406,-0.051 -0.817,-0.153 -1.231,-0.262 -0.41,-0.109 -0.836,-0.226 -1.273,-0.316 -0.219,-0.043 -0.445,-0.078 -0.672,-0.102 -0.25,-0.023 -0.398,-0.031 -0.613,-0.078 -0.199,-0.039 -0.414,-0.09 -0.649,-0.125 -0.117,-0.016 -0.238,-0.031 -0.363,-0.035 h -0.156 c -0.043,0 -0.086,-0.004 -0.129,-0.012 -0.172,-0.023 -0.348,-0.09 -0.547,-0.172 -0.191,-0.09 -0.426,-0.168 -0.598,-0.238 -0.375,-0.156 -0.754,-0.402 -1.25,-0.512 -0.234,-0.047 -0.39,-0.074 -0.566,-0.156 -0.172,-0.078 -0.379,-0.191 -0.551,-0.289 -0.355,-0.203 -0.699,-0.469 -1.086,-0.699 -0.082,-0.055 -0.176,-0.102 -0.265,-0.145 -0.016,-0.027 -0.028,-0.058 -0.043,-0.086 -0.071,-0.125 -0.137,-0.234 -0.18,-0.34 -0.043,-0.101 -0.09,-0.238 -0.125,-0.359 -0.078,-0.25 -0.141,-0.508 -0.199,-0.773 -0.114,-0.528 -0.203,-1.067 -0.36,-1.606 -0.086,-0.246 -0.097,-0.484 -0.144,-0.781 -0.024,-0.145 -0.07,-0.297 -0.11,-0.422 -0.042,-0.133 -0.066,-0.223 -0.082,-0.363 -0.148,-1.059 -0.082,-2.145 -0.128,-3.246 -0.012,-0.274 -0.028,-0.536 -0.008,-0.797 0.008,-0.063 0.015,-0.125 0.027,-0.188 l 0.031,-0.207 c 0.016,-0.14 0.032,-0.277 0.043,-0.414 0.028,-0.269 0.051,-0.539 0.098,-0.797 0.047,-0.258 0.125,-0.515 0.203,-0.777 l 0.465,-1.567 0.238,-0.781 c 0.078,-0.258 0.172,-0.527 0.219,-0.797 0.031,-0.125 0.066,-0.234 0.137,-0.351 0.066,-0.117 0.132,-0.235 0.195,-0.363 0.121,-0.262 0.191,-0.52 0.312,-0.754 0.051,-0.121 0.129,-0.223 0.196,-0.356 0.066,-0.129 0.113,-0.262 0.152,-0.398 0.078,-0.262 0.137,-0.528 0.266,-0.746 0.066,-0.11 0.152,-0.219 0.222,-0.344 0.075,-0.129 0.118,-0.266 0.161,-0.399 0.074,-0.265 0.168,-0.496 0.296,-0.738 0.258,-0.488 0.465,-0.996 0.711,-1.473 0.055,-0.109 0.11,-0.21 0.172,-0.312 0.196,-0.164 0.418,-0.34 0.602,-0.566 0.121,-0.145 0.226,-0.286 0.34,-0.407 0.121,-0.132 0.254,-0.277 0.363,-0.445 0.031,-0.051 0.059,-0.105 0.086,-0.16 0.125,-0.145 0.219,-0.305 0.305,-0.469 0.07,-0.074 0.14,-0.164 0.207,-0.265 0.086,-0.149 0.156,-0.29 0.222,-0.43 0.047,-0.047 0.09,-0.102 0.137,-0.16 0.172,-0.215 0.328,-0.438 0.496,-0.653 0.164,-0.211 0.336,-0.406 0.539,-0.566 0.203,-0.164 0.434,-0.32 0.641,-0.527 l 0.277,-0.274 h -0.383 c -0.273,0 -0.433,0.129 -0.593,0.234 -0.083,0.055 -0.153,0.118 -0.223,0.176 -0.07,0.055 -0.152,0.137 -0.211,0.215 -0.125,0.156 -0.215,0.32 -0.309,0.457 -0.093,0.149 -0.191,0.211 -0.347,0.371 -0.285,0.305 -0.407,0.668 -0.586,0.942 -0.078,0.121 -0.207,0.238 -0.336,0.398 -0.059,0.074 -0.125,0.188 -0.164,0.266 -0.031,0.074 -0.071,0.14 -0.114,0.207 -0.093,0.129 -0.207,0.254 -0.332,0.379 -0.132,0.136 -0.246,0.285 -0.359,0.414 -0.207,0.246 -0.508,0.433 -0.789,0.695 -0.297,0.266 -0.508,0.59 -0.699,0.902 l -0.27,0.473 c -0.082,0.145 -0.176,0.285 -0.281,0.418 -0.105,0.137 -0.219,0.27 -0.336,0.406 -0.125,0.137 -0.246,0.321 -0.336,0.481 -0.09,0.168 -0.172,0.316 -0.258,0.457 -0.09,0.14 -0.195,0.285 -0.3,0.441 -0.102,0.156 -0.207,0.328 -0.282,0.524 -0.07,0.183 -0.121,0.371 -0.164,0.543 -0.051,0.175 -0.09,0.339 -0.148,0.492 -0.051,0.133 -0.149,0.32 -0.203,0.504 -0.125,0.363 -0.192,0.722 -0.278,1.058 -0.047,0.176 -0.093,0.309 -0.16,0.492 -0.066,0.176 -0.125,0.407 -0.109,0.622 0.004,0.101 0.008,0.175 0,0.222 -0.004,0.047 -0.024,0.078 -0.071,0.168 -0.046,0.074 -0.097,0.223 -0.117,0.317 -0.023,0.101 -0.035,0.199 -0.043,0.293 -0.019,0.191 -0.031,0.332 -0.078,0.5 -0.039,0.167 -0.086,0.347 -0.125,0.535 -0.035,0.199 -0.047,0.351 -0.094,0.515 -0.043,0.164 -0.097,0.332 -0.148,0.508 -0.094,0.363 -0.18,0.703 -0.254,1.07 -0.039,0.18 -0.066,0.368 -0.082,0.555 -0.023,0.192 -0.016,0.391 -0.016,0.555 -0.003,0.179 -0.011,0.363 -0.007,0.551 0,0.093 0.004,0.187 0.015,0.285 0.012,0.101 0.028,0.195 0.039,0.277 0.051,0.34 0.067,0.684 0.063,1.039 -0.008,0.352 -0.028,0.715 0,1.094 0.039,0.383 0.105,0.723 0.156,1.082 l 0.082,0.535 c 0.024,0.184 0.082,0.379 0.145,0.551 0.062,0.176 0.129,0.336 0.183,0.5 0.028,0.082 0.047,0.164 0.067,0.246 l 0.07,0.266 c 0.094,0.351 0.207,0.703 0.344,1.039 0.269,0.687 0.66,1.304 1.035,1.918 0.191,0.304 0.39,0.605 0.601,0.898 0.106,0.148 0.215,0.293 0.329,0.434 0.113,0.14 0.23,0.289 0.378,0.406 0.149,0.121 0.317,0.207 0.477,0.285 0.012,0.004 0.02,0.012 0.031,0.016 0.293,0.343 0.43,0.773 0.742,1.152 0.086,0.086 0.176,0.156 0.235,0.234 0.066,0.086 0.121,0.18 0.172,0.282 0.105,0.195 0.203,0.422 0.382,0.601 0.18,0.18 0.383,0.285 0.532,0.438 0.148,0.152 0.328,0.336 0.492,0.484 0.336,0.309 0.66,0.641 1.109,0.875 0.219,0.106 0.426,0.172 0.586,0.297 0.086,0.062 0.176,0.137 0.278,0.207 0.054,0.035 0.109,0.07 0.171,0.102 0.063,0.031 0.129,0.05 0.176,0.066 0.887,0.305 1.793,0.469 2.625,0.785 0.11,0.039 0.207,0.078 0.317,0.121 0.113,0.051 0.226,0.09 0.336,0.125 0.179,0.055 0.359,0.106 0.535,0.149 0.054,0.062 0.109,0.125 0.176,0.187 0.121,0.117 0.273,0.219 0.425,0.285 0.332,0.145 0.633,0.16 0.953,0.149 0.079,-0.008 0.161,-0.02 0.247,-0.035 l 0.101,-0.024 0.84,0.274 c 0.211,0.078 0.426,0.168 0.664,0.238 0.242,0.074 0.496,0.101 0.707,0.133 0.223,0.031 0.387,0.078 0.582,0.175 0.195,0.09 0.395,0.207 0.621,0.313 0.223,0.105 0.492,0.18 0.75,0.195 0.258,0.02 0.512,-0.004 0.75,-0.043 l 0.676,-0.125 c 0.109,-0.015 0.215,-0.031 0.316,-0.039 0.098,-0.008 0.215,-0.008 0.368,-0.031 0.148,-0.023 0.3,-0.086 0.398,-0.133 0.051,-0.027 0.102,-0.051 0.148,-0.07 0.098,0.027 0.204,0.055 0.332,0.07 0.09,0.008 0.196,0.012 0.317,-0.023 0.121,-0.031 0.254,-0.121 0.328,-0.235 l 0.336,-0.519 -0.606,0.051 c -0.171,0.015 -0.41,-0.02 -0.699,0.039"
           style="fill:#21201d;fill-opacity:1;fill-rule:nonzero;stroke:none"
           id="path662" />
      </g>
    </g>
    <g
       id="g670"
       transform="matrix(0.18405616,0,0,0.18405792,157.34957,-39.155536)">
      <path
         d="m 819.586,567.41 c -0.008,0.028 -0.012,0.035 -0.012,0.039 0.008,-0.019 0.012,-0.043 0.012,-0.062 0,0.019 0,0.011 0,0.023 m -0.313,0.102 c 0.016,0.004 0.02,0.008 0,0 m 5.922,-6.278 0.032,-0.363 c 0.011,-0.121 0.023,-0.242 0,-0.367 -0.028,-0.242 -0.098,-0.481 -0.094,-0.711 0.004,-0.117 0.035,-0.234 0.035,-0.363 0.004,-0.129 -0.023,-0.25 -0.059,-0.371 -0.078,-0.235 -0.175,-0.45 -0.207,-0.688 -0.039,-0.23 -0.058,-0.48 -0.101,-0.719 -0.035,-0.234 -0.063,-0.476 -0.094,-0.718 -0.031,-0.243 -0.066,-0.485 -0.129,-0.727 -0.07,-0.25 -0.148,-0.473 -0.219,-0.707 l -0.433,-1.379 c -0.067,-0.226 -0.129,-0.469 -0.227,-0.711 -0.094,-0.25 -0.261,-0.472 -0.336,-0.644 -0.027,-0.067 -0.066,-0.219 -0.113,-0.336 -0.047,-0.121 -0.102,-0.242 -0.16,-0.356 -0.121,-0.234 -0.27,-0.445 -0.426,-0.64 -0.309,-0.383 -0.586,-0.758 -0.887,-1.145 -0.297,-0.387 -0.597,-0.773 -0.941,-1.137 -0.168,-0.179 -0.359,-0.367 -0.555,-0.515 -0.195,-0.16 -0.39,-0.297 -0.562,-0.446 -0.344,-0.316 -0.696,-0.668 -1.039,-1 l -0.508,-0.523 c -0.106,-0.094 -0.223,-0.164 -0.328,-0.227 -0.106,-0.058 -0.203,-0.117 -0.309,-0.183 -0.418,-0.25 -0.824,-0.52 -1.25,-0.75 l -1.277,-0.699 c -0.11,-0.059 -0.238,-0.121 -0.375,-0.137 -0.129,-0.016 -0.254,-0.004 -0.367,-0.016 -0.215,-0.004 -0.395,-0.156 -0.621,-0.277 -0.235,-0.133 -0.512,-0.129 -0.747,-0.145 -0.226,0 -0.46,-0.097 -0.75,-0.043 l -0.109,0.024 0.043,0.109 c 0.055,0.145 0.172,0.219 0.277,0.274 0.106,0.054 0.215,0.086 0.329,0.113 0.222,0.031 0.386,0.094 0.578,0.199 0.093,0.051 0.187,0.106 0.3,0.149 0.106,0.043 0.207,0.07 0.297,0.113 0.094,0.039 0.16,0.086 0.235,0.156 0.082,0.07 0.148,0.16 0.293,0.223 0.144,0.043 0.195,0.051 0.273,0.105 0.074,0.047 0.16,0.129 0.254,0.192 l 0.551,0.351 0.539,0.348 c 0.168,0.113 0.328,0.246 0.492,0.387 l 1.922,1.711 c 0.156,0.14 0.312,0.289 0.461,0.437 0.078,0.078 0.152,0.145 0.211,0.219 0.062,0.07 0.121,0.152 0.176,0.234 l 0.355,0.539 c 0.117,0.188 0.297,0.387 0.453,0.528 0.078,0.074 0.149,0.144 0.211,0.214 0.059,0.071 0.106,0.141 0.16,0.227 0.106,0.168 0.203,0.359 0.321,0.555 l 0.64,1.121 0.645,1.109 0.32,0.551 c 0.094,0.176 0.172,0.363 0.25,0.555 0.156,0.382 0.297,0.808 0.48,1.207 0.172,0.394 0.325,0.769 0.422,1.16 0.102,0.387 0.141,0.793 0.153,1.211 0.008,0.207 -0.004,0.41 0.011,0.656 0.012,0.227 0.043,0.449 0.075,0.664 l 0.004,0.012 -0.055,0.109 c -0.192,0.379 -0.371,0.762 -0.539,1.149 -0.168,0.371 -0.324,0.746 -0.477,1.117 -0.215,0.242 -0.429,0.48 -0.637,0.73 -0.23,0.242 -0.449,0.496 -0.664,0.758 l -0.031,0.035 -0.004,0.012 c -0.23,0.516 -0.445,1.039 -0.683,1.547 -0.258,0.219 -0.52,0.433 -0.789,0.637 -0.274,0.214 -0.555,0.421 -0.844,0.621 l -0.043,0.027 -0.004,0.082 -0.031,0.644 -0.008,0.122 0.156,0.035 c 0.039,0.008 0.078,0.015 0.113,0.023 0.008,0.004 0.02,0.008 0.028,0.012 0.004,0 0.004,0.004 0.008,0.008 0.121,0.152 0.379,-0.074 0.304,-0.047 0,-0.004 0,-0.004 0,-0.008 0.004,0 0.016,-0.008 0.024,-0.016 0.027,-0.019 0.058,-0.039 0.094,-0.062 l 0.445,-0.27 c 0.297,-0.183 0.601,-0.382 0.887,-0.621 0.554,-0.48 1.046,-1.008 1.464,-1.597 0.215,-0.289 0.403,-0.594 0.582,-0.903 0.09,-0.16 0.176,-0.312 0.258,-0.472 l 0.231,-0.461 c 0.074,-0.133 0.175,-0.274 0.273,-0.434 0.051,-0.078 0.098,-0.168 0.141,-0.262 0.019,-0.047 0.039,-0.097 0.054,-0.144 l 0.039,-0.125 c 0.016,-0.047 0.028,-0.098 0.043,-0.149 0,0.024 0.008,0.043 0.012,0.063 0.024,0.16 0.035,0.297 0.031,0.469 l 0.008,0.496 v 0.035 l 0.129,0.637 c 0.016,0.144 0.012,0.304 0,0.468 -0.015,0.161 -0.023,0.352 -0.043,0.504 -0.015,0.168 -0.039,0.344 -0.047,0.52 -0.004,0.086 -0.007,0.176 -0.004,0.269 0.004,0.047 0.008,0.098 0.02,0.149 0.019,0.051 0.019,0.129 0.137,0.191 l 0.113,0.063 0.043,-0.133 0.176,-0.543 c 0.027,-0.09 0.062,-0.172 0.082,-0.285 0.011,-0.102 0.011,-0.196 0.031,-0.27 0.016,-0.07 0.082,-0.125 0.141,-0.219 0.062,-0.109 0.066,-0.214 0.07,-0.312 0,-0.098 -0.004,-0.184 0.019,-0.27 0.02,-0.082 0.071,-0.164 0.102,-0.257 0.063,-0.2 0.051,-0.395 0.055,-0.582 -0.004,-0.188 0.019,-0.372 0.039,-0.563 0.019,-0.187 0.023,-0.387 0.004,-0.574 -0.02,-0.188 -0.043,-0.375 -0.028,-0.563"
         style="fill:#21201d;fill-opacity:1;fill-rule:nonzero;stroke:none"
         id="path668" />
    </g>
  </g>
</svg>
