<?xml version="1.0" encoding="UTF-8" standalone="no"?>
<!-- Created with Inkscape (http://www.inkscape.org/) -->

<svg
   width="5.7489896mm"
   height="6.9887376mm"
   viewBox="0 0 5.7489896 6.9887376"
   version="1.1"
   id="svg2162"
   inkscape:version="1.1.2 (0a00cf5339, 2022-02-04)"
   sodipodi:docname="e11.svg"
   xmlns:inkscape="http://www.inkscape.org/namespaces/inkscape"
   xmlns:sodipodi="http://sodipodi.sourceforge.net/DTD/sodipodi-0.dtd"
   xmlns="http://www.w3.org/2000/svg"
   xmlns:svg="http://www.w3.org/2000/svg">
  <sodipodi:namedview
     id="namedview2164"
     pagecolor="#ffffff"
     bordercolor="#666666"
     borderopacity="1.0"
     inkscape:pageshadow="2"
     inkscape:pageopacity="0.0"
     inkscape:pagecheckerboard="0"
     inkscape:document-units="mm"
     showgrid="false"
     inkscape:zoom="0.64052329"
     inkscape:cx="237.30597"
     inkscape:cy="806.37193"
     inkscape:window-width="2560"
     inkscape:window-height="1376"
     inkscape:window-x="0"
     inkscape:window-y="0"
     inkscape:window-maximized="1"
     inkscape:current-layer="layer1" />
  <defs
     id="defs2159" />
  <g
     inkscape:label="Layer 1"
     inkscape:groupmode="layer"
     id="layer1"
     transform="translate(-42.150533,65.042346)">
    <path
       d="m 45.595896,-59.320375 c 0.09553,-0.141725 0.171172,-0.281793 0.23651,-0.440083 0.06037,-0.146694 0.140987,-0.296885 0.21277,-0.436401 0.04252,-0.08117 0.05466,-0.169702 0.104359,-0.248662 0.05319,-0.08283 0.09553,-0.153137 0.135096,-0.243877 0.07123,-0.161051 0.125159,-0.347133 0.1351,-0.522541 0.0066,-0.120926 0.02025,-0.241668 0.02889,-0.36241 0.0042,-0.06258 0.02152,-0.121478 0.02797,-0.183321 0.0094,-0.08927 0.0028,-0.175408 0.01729,-0.263203 0.05669,-0.326335 0.02872,-0.655799 0.04528,-0.989312 0.0065,-0.139516 0.05816,-0.282528 0.023,-0.42775 -0.01235,-0.0519 -0.0151,-0.102888 -0.02798,-0.154609 -0.02173,-0.09129 -0.08356,-0.178352 -0.107858,-0.271117 -0.03238,-0.11927 -0.08485,-0.240748 -0.1316,-0.355784 -0.06111,-0.150376 -0.188475,-0.257497 -0.3013,-0.368116 -0.04454,-0.04528 -0.07841,-0.09921 -0.119268,-0.14467 -0.04399,-0.04951 -0.116508,-0.05448 -0.174854,-0.08043 -0.0416,-0.01932 -0.097,-0.03092 -0.132888,-0.05466 -0.05467,-0.03515 -0.101416,-0.09921 -0.162521,-0.127184 -0.104175,-0.04675 -0.23375,-0.03534 -0.345842,-0.03534 -0.08982,0 -0.231542,-0.02724 -0.315655,-0.0013 -0.09203,0.02798 -0.112829,0.137308 -0.155346,0.204857 -0.01859,0.03092 -0.0611,0.04601 -0.08338,0.07178 -0.05319,0.05982 -0.0309,0.154608 0.023,0.09276 -0.01214,0.04105 -0.02152,0.08411 -0.03094,0.126632 -0.01362,0.05963 -0.0473,0.164547 -0.01711,0.225655 0.02723,0.05466 0.112825,0.09921 0.153871,0.146694 0.124975,0.145958 0.186079,0.32431 0.298354,0.481127 0.108409,0.151664 0.230071,0.298358 0.329276,0.453519 0.08117,0.128841 0.192708,0.265411 0.223629,0.417075 0.02081,0.104913 0.06313,0.188291 0.09976,0.288235 0.02963,0.07914 0.03681,0.168229 0.05117,0.252527 0.03369,0.1905 -0.01012,0.390939 0.01362,0.583648 0.02226,0.180561 0.02226,0.350262 0.023,0.532111 0,0.183322 -0.03164,0.331489 -0.0302,0.514074 0.0014,0.151664 -0.03387,0.304064 -0.05245,0.453703 -0.0065,0.05172 -7.06e-4,0.104177 -0.01288,0.154609 -0.01161,0.04877 -0.04546,0.08835 -0.0554,0.138779 -0.0151,0.07546 0.01214,0.122215 -0.02815,0.191973 -0.03514,0.06111 -0.05172,0.09553 -0.06828,0.169517 -0.02723,0.132338 -0.102704,0.239459 -0.135834,0.368852 -0.02007,0.08135 -0.01584,0.08283 -0.06681,0.148167 -0.03387,0.04381 -0.05467,0.09424 -0.08135,0.143013 -0.04804,0.08927 -0.125709,0.157554 -0.179638,0.245901 -0.0438,0.07123 -0.05043,0.166941 -0.103625,0.230073 0.0079,-0.0064 0.01658,-0.01068 0.02448,-0.01583 0.02872,-0.0208 0.02081,-0.0087 0.04822,-0.0381 0.02522,-0.02724 0.03238,-0.0646 0.06037,-0.09405 0.03313,-0.03534 0.0589,-0.05761 0.08485,-0.09718 0.08706,-0.134362 0.200621,-0.241484 0.290439,-0.374558 0.03957,-0.05743 0.07988,-0.09626 0.127183,-0.148166 0.04472,-0.04804 0.067,-0.102705 0.103625,-0.156634"
       style="fill:#21201d;fill-opacity:1;fill-rule:nonzero;stroke:none;stroke-width:0.184057"
       id="path424" />
    <path
       d="m 44.845312,-58.382784 c 0.0042,-0.0037 0.0072,-0.0086 0.01143,-0.01307 -0.0042,0.0037 -0.0079,0.0072 -0.01143,0.01307"
       style="fill:#21201d;fill-opacity:1;fill-rule:nonzero;stroke:none;stroke-width:0.184057"
       id="path426" />
    <path
       d="m 45.649088,-58.60936 c 0.0028,-0.0094 0.0057,-0.0173 0.0086,-0.0265 -0.02025,0.02006 -0.04104,0.03884 -0.06332,0.05595 -0.05319,0.03957 -0.110617,0.09 -0.130126,0.157554 0.02596,0.01583 0.05098,0.02153 0.184792,-0.187003"
       style="fill:#21201d;fill-opacity:1;fill-rule:nonzero;stroke:none;stroke-width:0.184057"
       id="path428" />
    <path
       d="m 45.850443,-58.836487 c 0.08191,-0.06755 0.165284,-0.212771 0.281055,-0.180561 0.05687,0.01583 0.112091,0.04675 0.170437,0.05835 0.08558,0.01583 0.0611,-0.02816 0.0935,-0.09645 0.04528,-0.09405 0.222155,-0.08338 0.320626,-0.105649 0.04031,-0.0094 0.09773,-0.01141 0.134363,-0.02595 0.05319,-0.0208 0.0554,-0.07178 0.07546,-0.133626 0.03883,-0.117981 0.07344,-0.238723 0.117242,-0.355232 0.023,-0.05964 0.06258,-0.09994 0.08559,-0.159578 0.02872,-0.07399 0.0497,-0.150928 0.07473,-0.225839 0.0381,-0.115036 0.07123,-0.234306 0.116509,-0.346397 -0.04454,0.0099 -0.04896,0.05522 -0.06976,0.08908 -0.03883,0.06479 -0.08558,0.125895 -0.126446,0.189027 -0.04601,0.06976 -0.101416,0.133074 -0.146692,0.202832 -0.05319,0.08264 -0.124421,0.153872 -0.175405,0.236514 -0.09,0.147431 -0.219396,0.373086 -0.419279,0.344373 -0.03443,-0.005 -0.06681,-0.02945 -0.101234,-0.0324 -0.02596,-0.0028 -0.067,0.0066 -0.09497,0.0087 -0.07841,0.0057 -0.122213,-0.01583 -0.192708,0.03092 -0.05816,0.03884 -0.06405,0.06902 -0.08706,0.142461 -0.03443,0.111355 -0.08687,0.211299 -0.143746,0.313451 -0.04602,0.08264 -0.07546,0.160314 -0.104175,0.246637 0.06607,-0.06552 0.121475,-0.141724 0.191967,-0.200623"
       style="fill:#21201d;fill-opacity:1;fill-rule:nonzero;stroke:none;stroke-width:0.184057"
       id="path430" />
    <path
       d="m 44.26572,-58.695683 c -0.02798,-0.09994 -0.06387,-0.207801 -0.0854,-0.310505 -0.0059,-0.02743 -0.0014,-0.05964 -0.01235,-0.08559 -0.02081,-0.05319 -0.05963,-0.06184 -0.105646,-0.07988 -0.09203,-0.03515 -0.209272,-0.02301 -0.314184,-0.02227 -0.06184,0 -0.09847,0.0015 -0.148167,-0.02153 -0.06387,-0.03092 -0.07252,-0.05743 -0.112088,-0.110619 -0.03461,-0.04473 -0.08982,-0.08135 -0.129392,-0.12295 -0.03461,-0.03534 -0.05687,-0.08135 -0.08485,-0.115773 -0.06111,-0.07546 -0.157554,-0.04399 -0.251054,-0.04749 -0.05393,-0.0029 -0.0762,-0.01086 -0.117796,-0.04822 -0.06828,-0.05964 -0.141722,-0.107122 -0.212768,-0.163259 -0.117979,-0.09203 -0.211479,-0.178905 -0.340871,-0.254368 -0.05393,-0.03092 -0.142275,-0.121479 -0.200621,-0.130129 0.01436,0.05522 0.06681,0.0797 0.101413,0.120742 0.05963,0.07049 0.109329,0.157369 0.163258,0.233569 0.06111,0.08485 0.134363,0.135283 0.204117,0.208538 0.06037,0.06479 0.09626,0.143197 0.163259,0.199887 0.05172,0.0438 0.09277,0.0727 0.147983,0.105649 0.03387,0.01951 0.04748,0.05908 0.09203,0.05835 0.03164,-7.41e-4 0.08632,-0.02522 0.116508,-0.03534 0.03164,-0.0099 0.0727,-0.03884 0.100679,-0.05246 0.05761,0.06626 0.127918,0.112275 0.187738,0.175407 0.05098,0.05393 0.09626,0.111539 0.148717,0.164732 0.0381,0.0381 0.106384,0.113563 0.16105,0.10344 0.02226,-0.0042 0.05908,-0.04675 0.07914,-0.0589 0.02596,-0.01583 0.06037,-0.03516 0.08908,-0.04528 0.04601,-0.01583 0.04822,-0.02374 0.06111,0.02945 0.0086,0.0346 0.0021,0.09424 -0.0079,0.128656 -0.0092,0.03313 -0.04233,0.06553 -0.02081,0.109331 0.01951,0.04104 0.04822,0.0381 0.08706,0.05393 0.0589,0.02448 0.07399,0.06258 0.120739,0.09626 0.0302,0.02245 0.04822,0.03037 0.07694,0.06055 0.04749,0.04804 0.171171,0.187555 0.191971,0.166021 -0.0065,-0.03166 -0.04307,-0.06534 -0.06037,-0.09056 -0.04325,-0.06405 -0.06681,-0.143197 -0.08853,-0.219397"
       style="fill:#21201d;fill-opacity:1;fill-rule:nonzero;stroke:none;stroke-width:0.184057"
       id="path432" />
    <path
       d="m 43.864664,-61.098375 c -0.04822,0.161787 -0.0267,0.153136 -0.01436,0.13289 7.06e-4,0.06184 0.0072,0.124423 0.01436,0.187003 7.06e-4,-0.0042 0.0014,-0.0087 0.0021,-0.01288 0.0151,-0.110066 0.0086,-0.198414 -0.0021,-0.307008"
       style="fill:#21201d;fill-opacity:1;fill-rule:nonzero;stroke:none;stroke-width:0.184057"
       id="path434" />
    <path
       d="m 44.562053,-59.133557 c -0.03681,-0.102704 -0.05246,-0.209826 -0.08559,-0.312714 -0.03238,-0.09921 -0.09994,-0.182585 -0.1143,-0.288235 -0.0057,-0.04031 -0.0014,-0.08264 -0.01658,-0.121478 -0.01584,-0.04031 -0.04602,-0.06184 -0.06608,-0.09718 -0.03313,-0.05963 -0.05043,-0.12295 -0.07049,-0.189027 -0.02099,-0.07123 -0.04031,-0.110067 -0.07841,-0.17191 -0.01729,-0.02871 -0.04749,-0.0762 -0.05246,-0.10841 -0.04178,-0.0059 -0.107121,0.0013 -0.142459,-0.02743 -0.0381,-0.03166 -0.04675,-0.109331 -0.05098,-0.154609 -0.0057,-0.05743 -0.01288,-0.115772 -0.02007,-0.173935 -0.01729,0.120006 -0.03534,0.224367 -0.023,0.344373 0.0092,0.09203 0.0302,0.118717 0.07896,0.19915 0.03534,0.05761 0.06037,0.11154 0.08559,0.174671 0.02741,0.06976 0.07841,0.119454 0.1143,0.183322 0.05245,0.09276 0.08264,0.203568 0.115034,0.304248 0.03608,0.112091 0.0878,0.21774 0.145958,0.317684 0.07417,0.124423 0.166938,0.266884 0.214976,0.401982 0.02596,0.07049 0.04601,0.205593 0.115033,0.248111 0.01729,-0.0554 -0.01288,-0.10068 -0.03164,-0.14964 -0.0473,-0.122214 -0.07399,-0.254552 -0.117796,-0.378975"
       style="fill:#21201d;fill-opacity:1;fill-rule:nonzero;stroke:none;stroke-width:0.184057"
       id="path436" />
    <path
       d="m 47.898805,-58.968825 c -0.04104,-0.0015 -0.0878,0.06902 -0.118717,0.09497 -0.06902,0.05743 -0.152396,0.10068 -0.228596,0.147246 -0.158105,0.09921 -0.32578,0.197127 -0.494743,0.276087 -0.1235,0.05761 -0.210559,-0.06387 -0.319888,-0.109146 0.0065,-0.02025 0.01087,-0.05982 -0.01803,-0.06626 -0.03443,-0.0079 -0.02724,0.02025 -0.0416,0.03736 -0.02872,0.0346 -0.07196,0.09074 -0.09645,0.130129 -0.0309,0.05117 -0.01785,0.06552 -0.08411,0.0762 -0.08264,0.0138 -0.150926,0.04031 -0.230622,0.06773 -0.159025,0.05393 -0.323571,0.08688 -0.483884,0.134362 -0.04601,0.01436 -0.08706,0.02227 -0.133809,0.0324 -0.03387,0.0079 -0.06534,0.03663 -0.101416,0.03387 0.01436,-0.0044 -0.05595,-0.02595 -0.06976,0.03663 0.07491,0.06461 0.217184,-0.02301 0.299826,-0.02945 0.130866,-0.0116 0.261729,-0.02227 0.390384,-0.02448 0.02374,-7.41e-4 0.04031,-0.01012 0.06976,-0.0057 0.03164,0.005 0.0497,0.02153 0.08264,0.01785 0.03681,-0.0035 0.0843,-0.03663 0.120925,-0.04528 0.04307,-0.01141 0.08338,-0.01804 0.126446,-0.03387 0.03094,-0.01215 0.06828,-0.03148 0.103622,-0.04086 0.09277,-0.02669 0.232833,0.04086 0.323571,0.06902 0.07694,0.02301 0.08338,0.01068 0.150192,-0.03534 0.04675,-0.03221 0.10215,-0.06166 0.144483,-0.097 0.110801,-0.09203 0.204301,-0.204857 0.320626,-0.288971 0.09497,-0.06902 0.155342,-0.13381 0.218658,-0.230072 0.02946,-0.04454 0.07767,-0.08927 0.07049,-0.147431"
       style="fill:#21201d;fill-opacity:1;fill-rule:nonzero;stroke:none;stroke-width:0.184057"
       id="path438" />
  </g>
</svg>
