<?xml version="1.0" encoding="UTF-8" standalone="no"?>
<!-- Created with Inkscape (http://www.inkscape.org/) -->

<svg
   width="7.9425664mm"
   height="6.4664726mm"
   viewBox="0 0 7.9425664 6.4664726"
   version="1.1"
   id="svg3575"
   inkscape:version="1.1.2 (0a00cf5339, 2022-02-04)"
   sodipodi:docname="e2.svg"
   xmlns:inkscape="http://www.inkscape.org/namespaces/inkscape"
   xmlns:sodipodi="http://sodipodi.sourceforge.net/DTD/sodipodi-0.dtd"
   xmlns="http://www.w3.org/2000/svg"
   xmlns:svg="http://www.w3.org/2000/svg">
  <sodipodi:namedview
     id="namedview3577"
     pagecolor="#ffffff"
     bordercolor="#666666"
     borderopacity="1.0"
     inkscape:pageshadow="2"
     inkscape:pageopacity="0.0"
     inkscape:pagecheckerboard="0"
     inkscape:document-units="mm"
     showgrid="false"
     inkscape:zoom="0.64052329"
     inkscape:cx="-555.79556"
     inkscape:cy="653.37203"
     inkscape:window-width="2560"
     inkscape:window-height="1376"
     inkscape:window-x="0"
     inkscape:window-y="0"
     inkscape:window-maximized="1"
     inkscape:current-layer="layer1" />
  <defs
     id="defs3572">
    <clipPath
       clipPathUnits="userSpaceOnUse"
       id="clipPath276">
      <path
         d="m 784.352,61 h 43.547 v 4 h -43.547 z"
         id="path274" />
    </clipPath>
  </defs>
  <g
     inkscape:label="Layer 1"
     inkscape:groupmode="layer"
     id="layer1"
     transform="translate(-252.13442,24.299996)">
    <g
       id="g758"
       transform="matrix(0.18405616,0,0,0.18405792,107.7696,-31.045351)">
      <g
         clip-path="url(#clipPath276)"
         id="g756">
        <path
           d="m 827.234,62.125 h 0.11 c -2.012,0 -3.946,-0.246 -5.942,-0.453 -0.707,-0.074 -1.429,-0.027 -2.14,-0.039 -1.207,-0.012 -2.36,0.305 -3.563,0.336 -1.137,0.035 -2.289,-0.004 -3.429,-0.004 -1.192,0 -2.36,0.09 -3.543,0.16 -1.309,0.082 -2.618,0.301 -3.922,0.336 -0.746,0.019 -1.477,-0.051 -2.215,0.027 -0.629,0.067 -1.219,0.168 -1.856,0.137 -2.117,-0.102 -4.211,-0.289 -6.304,-0.629 -0.844,-0.137 -1.645,-0.004 -2.489,-0.238 -0.5,-0.141 -0.988,-0.086 -1.472,-0.238 -0.672,-0.204 -1.274,-0.192 -1.961,-0.204 -0.707,-0.011 -1.383,-0.171 -2.098,-0.168 -0.476,0.004 -0.961,-0.019 -1.441,-0.003 -0.543,0.015 -1.121,0.304 -1.672,0.339 0.242,0.016 0.418,0.078 0.687,0.188 0.524,0.211 1.118,0.273 1.653,0.453 0.418,0.141 0.804,0.348 1.234,0.457 1.133,0.281 2.293,0.195 3.449,0.195 0.637,0 1.325,-0.074 1.953,0.035 0.891,0.157 1.774,0.305 2.665,0.5 1.566,0.348 3.199,-0.007 4.773,-0.054 1.043,-0.031 2.098,0.008 3.141,0.008 1.238,0 2.519,-0.106 3.75,0.035 1.925,0.222 3.875,0.324 5.812,0.437 1.207,0.067 2.34,0.102 3.539,0.336 0.777,0.149 1.531,0.321 2.328,0.34 0.528,0.016 1.055,-0.035 1.582,-0.019 1.317,0.039 2.61,0.359 3.918,0.464 0.531,0.039 1.059,0.036 1.59,0.036 0.379,-0.004 0.844,0.085 1.203,-0.028 0.129,-0.805 -0.047,-1.5 0.379,-2.269 0.231,-0.403 0.934,-0.473 0.281,-0.473"
           style="fill:#21201d;fill-opacity:1;fill-rule:nonzero;stroke:none"
           id="path754" />
      </g>
    </g>
    <g
       id="g774"
       transform="matrix(0.18405616,0,0,0.18405792,107.7696,-31.045351)">
      <path
         d="m 787.543,69.594 c -0.086,0 -0.172,0 -0.258,0.011 0.098,0.016 0.184,0.008 0.258,-0.011"
         style="fill:#21201d;fill-opacity:1;fill-rule:nonzero;stroke:none"
         id="path760" />
      <path
         d="m 823.336,69.441 h -6.063 c -1.234,0 -2.433,-0.023 -3.656,0.129 -0.894,0.11 -1.793,-0.004 -2.687,0.118 -1.93,0.253 -3.93,0.062 -5.86,-0.083 -0.656,-0.046 -1.265,-0.167 -1.925,-0.164 -0.864,0.008 -1.723,0 -2.583,0 -1.48,0 -2.953,0.055 -4.421,-0.125 -1.504,-0.183 -3.153,-0.078 -4.664,-0.039 -0.504,0.012 -0.969,0.172 -1.477,0.164 -0.281,-0.003 -0.562,0 -0.844,0 -0.351,0 -0.758,-0.05 -1.105,-0.003 -0.199,0.027 -0.336,0.121 -0.508,0.16 0.691,0.004 1.437,0.281 2.109,0.382 0.946,0.133 1.903,0.149 2.852,0.254 0.711,0.082 1.473,0.153 2.16,0.336 0.93,0.25 1.77,0.364 2.719,0.461 1.168,0.114 2.347,0.297 3.519,0.36 0.828,0.05 1.614,0.304 2.442,0.336 1.164,0.039 2.398,0.07 3.558,-0.043 0.91,-0.094 1.848,-0.278 2.754,-0.293 1.555,-0.028 3.196,0.168 4.739,-0.036 0.863,-0.109 1.781,-0.296 2.628,0.036 0.547,0.218 1.125,0.191 1.723,0.293 0.914,0.148 1.996,0.097 2.93,0.039 0.465,-0.032 0.488,-0.231 0.676,-0.645 0.234,-0.508 0.515,-0.922 0.691,-1.449 0.344,-0.043 0.566,-0.25 0.293,-0.188"
         style="fill:#21201d;fill-opacity:1;fill-rule:nonzero;stroke:none"
         id="path762" />
      <path
         d="m 802.273,61.629 c -0.031,0.035 -0.058,0.074 -0.093,0.105 0.035,-0.015 0.062,-0.058 0.093,-0.105"
         style="fill:#21201d;fill-opacity:1;fill-rule:nonzero;stroke:none"
         id="path764" />
      <path
         d="m 809.676,60.824 c -0.008,-0.004 -0.008,-0.004 -0.016,-0.008 0.008,0.094 0.016,0.188 0.016,0.286 z"
         style="fill:#21201d;fill-opacity:1;fill-rule:nonzero;stroke:none"
         id="path766" />
      <path
         d="m 803.094,60.648 c 0.367,-0.199 0.851,-0.121 1.25,-0.183 0.496,-0.078 0.91,-0.129 1.422,-0.125 0.765,0 1.531,0 2.296,0 0.196,0 0.461,-0.055 0.645,-0.012 0.27,0.067 0.316,0.176 0.953,0.488 -0.047,-0.718 -0.207,-1.41 -0.289,-2.136 -0.168,-1.446 -0.531,-2.848 -0.75,-4.282 -0.226,-1.464 -0.711,-2.863 -0.933,-4.332 -0.211,-1.363 -0.309,-2.738 -0.481,-4.101 -0.148,-1.164 -0.336,-2.367 -0.543,-3.524 -0.129,-0.757 -0.148,-1.515 -0.273,-2.257 -0.063,-0.364 -0.09,-0.696 -0.121,-1.063 -0.028,-0.316 -0.071,-0.793 -0.165,-1.078 -0.152,-0.465 -0.328,-0.855 -0.328,-1.395 -0.011,0.629 -0.148,1.231 -0.172,1.856 -0.046,1.156 0,2.324 0.008,3.48 0.012,0.856 -0.191,1.739 -0.363,2.578 -0.129,0.598 -0.188,1.2 -0.293,1.801 -0.051,0.313 -0.148,0.649 -0.168,0.969 -0.012,0.277 0.051,0.543 -0.023,0.816 -0.125,0.485 -0.25,0.903 -0.325,1.407 -0.082,0.574 -0.285,1.156 -0.418,1.711 -0.062,0.257 -0.027,0.476 -0.035,0.738 0,0.297 -0.113,0.504 -0.148,0.777 -0.059,0.41 -0.117,0.813 -0.18,1.223 -0.027,0.207 -0.074,0.301 -0.125,0.508 -0.078,0.324 0.012,0.636 -0.051,0.957 -0.046,0.246 -0.14,0.418 -0.152,0.676 -0.016,0.253 0.027,0.488 -0.035,0.746 -0.082,0.367 -0.238,0.718 -0.293,1.089 -0.027,0.184 0.058,0.399 0.016,0.579 -0.036,0.132 -0.145,0.168 -0.18,0.308 -0.031,0.141 0.004,0.309 -0.028,0.461 -0.019,0.098 -0.109,0.301 -0.144,0.442 -0.051,0.21 -0.137,0.339 -0.148,0.57 -0.008,0.156 0.039,0.332 0.011,0.488 -0.031,0.172 -0.125,0.594 -0.254,0.801 0.266,-0.328 0.477,-0.793 0.817,-0.981"
         style="fill:#21201d;fill-opacity:1;fill-rule:nonzero;stroke:none"
         id="path768" />
      <path
         d="m 813.156,60.375 c 0.262,-0.211 0.532,-0.348 0.809,-0.492 0.383,-0.195 0.91,-0.184 1.289,0.043 0.422,0.25 0.902,0.23 1.281,0.652 0.192,0.211 0.465,0.477 0.613,0.348 0.012,-0.133 -0.039,-0.27 -0.058,-0.399 -0.078,-0.636 -0.059,-1.32 -0.059,-1.965 0.012,-1.671 -0.062,-3.406 -0.226,-5.062 -0.168,-1.715 -0.77,-3.223 -1.032,-4.906 -0.117,-0.742 -0.191,-1.508 -0.285,-2.258 -0.09,-0.758 -0.152,-1.527 -0.238,-2.285 -0.062,-0.551 -0.133,-1.113 -0.16,-1.672 -0.02,-0.461 -0.113,-0.887 -0.11,-1.348 0,0.129 0,0.25 -0.015,0.375 -0.039,0.34 -0.047,0.656 -0.043,1.008 0.004,0.41 -0.063,0.805 -0.059,1.215 0.008,0.539 -0.031,1.086 -0.07,1.621 -0.031,0.465 -0.094,0.945 -0.105,1.414 -0.004,0.211 0.011,0.414 -0.004,0.621 -0.028,0.34 -0.09,0.66 -0.106,1.004 -0.051,0.969 -0.308,1.906 -0.461,2.852 -0.125,0.777 -0.23,1.57 -0.32,2.355 -0.149,1.242 -0.27,2.5 -0.5,3.711 -0.051,0.273 -0.09,0.551 -0.145,0.824 -0.047,0.254 -0.132,0.449 -0.195,0.692 -0.062,0.254 -0.047,0.55 -0.09,0.824 -0.039,0.23 -0.055,0.453 -0.086,0.68 -0.019,0.14 -0.062,0.367 -0.019,0.503 0.129,-0.05 0.281,-0.257 0.394,-0.355"
         style="fill:#21201d;fill-opacity:1;fill-rule:nonzero;stroke:none"
         id="path770" />
      <path
         d="m 794.875,59.848 c 0.156,0.05 0.316,0.082 0.473,0.113 0.898,0.184 1.754,0.613 2.652,0.777 0.344,0.063 0.711,0.098 1.047,0.235 0.144,0.058 0.289,0.113 0.441,0.152 -0.73,-0.879 -0.793,-0.93 -0.812,-1.063 -0.035,-0.257 0,-0.535 -0.043,-0.8 -0.082,-0.539 -0.137,-1.086 -0.219,-1.621 -0.098,-0.645 -0.113,-1.309 -0.184,-1.957 -0.062,-0.575 -0.152,-1.133 -0.175,-1.715 -0.02,-0.481 -0.059,-0.957 -0.094,-1.442 -0.09,-1.117 -0.219,-2.234 -0.324,-3.347 -0.106,-1.09 -0.207,-2.215 -0.203,-3.313 0.011,-2.043 -0.098,-4.086 -0.059,-6.133 0.004,0.137 -0.051,0.282 -0.082,0.414 -0.082,0.407 -0.094,0.848 -0.172,1.266 -0.09,0.488 -0.086,0.996 -0.16,1.488 -0.109,0.676 -0.242,1.344 -0.348,2.024 -0.117,0.773 -0.277,1.558 -0.484,2.297 -0.133,0.484 -0.344,0.968 -0.375,1.492 -0.063,1.031 -0.234,2.035 -0.297,3.062 -0.062,1.047 -0.195,2.063 -0.297,3.102 -0.086,0.941 -0.156,1.867 -0.211,2.812 -0.031,0.586 -0.097,1.153 -0.238,1.707 -0.035,0.133 -0.113,0.274 -0.043,0.375 0.023,0.036 0.168,0.063 0.207,0.075"
         style="fill:#21201d;fill-opacity:1;fill-rule:nonzero;stroke:none"
         id="path772" />
    </g>
  </g>
</svg>
