<?xml version="1.0" encoding="UTF-8" standalone="no"?>
<!-- Created with Inkscape (http://www.inkscape.org/) -->

<svg
   width="6.1843328mm"
   height="6.2433186mm"
   viewBox="0 0 6.1843328 6.2433186"
   version="1.1"
   id="svg4604"
   inkscape:version="1.1.2 (0a00cf5339, 2022-02-04)"
   sodipodi:docname="e3.svg"
   xmlns:inkscape="http://www.inkscape.org/namespaces/inkscape"
   xmlns:sodipodi="http://sodipodi.sourceforge.net/DTD/sodipodi-0.dtd"
   xmlns="http://www.w3.org/2000/svg"
   xmlns:svg="http://www.w3.org/2000/svg">
  <sodipodi:namedview
     id="namedview4606"
     pagecolor="#ffffff"
     bordercolor="#666666"
     borderopacity="1.0"
     inkscape:pageshadow="2"
     inkscape:pageopacity="0.0"
     inkscape:pagecheckerboard="0"
     inkscape:document-units="mm"
     showgrid="false"
     inkscape:zoom="0.64052329"
     inkscape:cx="697.8669"
     inkscape:cy="3.9030587"
     inkscape:window-width="2560"
     inkscape:window-height="1376"
     inkscape:window-x="0"
     inkscape:window-y="0"
     inkscape:window-maximized="1"
     inkscape:current-layer="layer1" />
  <defs
     id="defs4601" />
  <g
     inkscape:label="Layer 1"
     inkscape:groupmode="layer"
     id="layer1"
     transform="translate(79.923802,-147.65012)">
    <path
       d="m -76.454371,151.81296 c -0.05963,-0.0287 -0.133808,-0.0186 -0.199883,-0.0409 -0.05467,-0.0173 -0.143197,-0.0626 -0.171172,-0.11725 -0.03514,-0.0668 0.0094,-0.13878 0.03313,-0.20062 0.02448,-0.0626 0.0554,-0.13087 0.09479,-0.17964 0.05614,-0.072 0.134546,-0.12811 0.166938,-0.21719 0.01859,-0.0512 0.01711,-0.10565 0.03884,-0.15829 0.023,-0.0574 0.05742,-0.1027 0.09055,-0.15369 0.08412,-0.1281 0.210562,-0.23154 0.318417,-0.3394 0.08559,-0.0849 0.185529,-0.16547 0.25455,-0.26394 0.08485,-0.12074 0.186267,-0.24222 0.254551,-0.37161 0.118533,-0.22658 0.366638,-0.4099 0.547197,-0.58954 l 0.339217,-0.3394 c 0.04675,-0.0468 0.251054,-0.19842 0.243875,-0.26965 0.0085,0.0129 0.01933,0.0252 0.03147,0.0359 l -0.380259,0.46585 c 0.02797,0.0361 -0.005,0.0698 -0.02081,0.10436 -0.03094,0.0668 -0.05835,0.13363 -0.09277,0.19915 -0.145954,0.27536 -0.316392,0.54279 -0.480384,0.80673 -0.05246,0.0841 -0.07031,0.18332 -0.1143,0.27093 -0.04086,0.0806 -0.07896,0.16621 -0.122213,0.24517 -0.08908,0.16105 -0.188292,0.3164 -0.288967,0.471 -0.03239,0.049 -0.06258,0.10363 -0.08117,0.15958 -0.02889,0.0885 -0.07565,0.15755 -0.112275,0.24093 -0.02724,0.0626 -0.06184,0.0985 -0.106384,0.1467 -0.0302,0.0329 -0.03313,0.0762 -0.0611,0.10859 -0.05614,0.0653 -0.122951,0.0144 -0.18185,-0.0138 m -1.406374,1.13324 -0.237246,-0.0791 c 0.01288,0.0101 0.02522,0.0193 0.03663,0.0257 0.03534,0.0217 0.06258,0.041 0.09424,0.0742 0.03514,0.0366 0.06332,0.0344 0.09552,0.0567 0.03534,0.0237 0.06479,0.0611 0.09498,0.092 0.06331,0.0626 0.128654,0.11007 0.08135,0.20707 -0.04675,0.095 -0.115771,0.0821 -0.196388,0.0526 -0.07123,-0.0274 -0.138041,-0.0274 -0.212767,-0.0425 -0.02872,-0.006 -0.06681,-0.0403 -0.09498,-0.0396 -0.0151,0 -0.02797,0.0223 -0.04233,0.0245 -0.01729,0.002 -0.03534,-0.005 -0.05245,-0.003 -0.01235,0.002 -0.03239,0.0203 -0.04252,0.0195 -0.023,-0.002 -0.03369,-0.0158 -0.05816,-0.0237 -0.03663,-0.0129 -0.08632,-0.006 -0.113009,-0.0344 -0.0473,-0.0504 0.03957,-0.13454 -0.023,-0.20357 0.01658,-0.0208 0.03238,-0.0418 0.0497,-0.0633 -0.0497,-0.0438 -0.0065,-0.11706 0.0065,-0.16897 0.02025,-0.0762 0.02946,-0.0725 0.106384,-0.074 0.05614,-0.002 0.112275,-0.009 0.168229,0 0.128838,0.0188 0.229333,0.11504 0.339397,0.18056 m 1.411344,0.1 c 0.01803,-0.0381 0.03514,-0.0769 0.07049,-0.10215 0.02226,-0.0166 0.04602,-0.0173 0.06258,-0.028 0.06387,-0.0403 0.09773,-0.0871 0.126446,-0.15608 0.05117,-0.12589 0.0878,-0.22069 0.185529,-0.31566 0.05098,-0.0503 0.110804,-0.0985 0.148901,-0.15884 0.115037,-0.1813 0.210562,-0.38119 0.324125,-0.56653 0.141721,-0.23155 0.242401,-0.49033 0.327988,-0.74636 0.01214,-0.0381 0.04086,-0.069 0.05393,-0.10362 0.01139,-0.0302 0.0028,-0.0532 0.01362,-0.0861 0.02723,-0.0799 0.08633,-0.15037 0.1143,-0.23302 0.01584,-0.049 0.0309,-0.0819 0.05467,-0.12644 0.108592,-0.20431 0.197675,-0.42647 0.306267,-0.62488 0.134363,-0.24664 0.226388,-0.51905 0.377501,-0.75924 0.155158,-0.24664 0.231358,-0.53064 0.311238,-0.80746 0.03514,-0.12369 0.05467,-0.25952 0.130129,-0.36517 0.04969,-0.069 0.09129,-0.12222 0.10215,-0.21719 -0.05908,0 -0.113562,0.0517 -0.168229,0.0769 -0.07767,0.0346 -0.162521,0.0497 -0.244425,0.072 -0.163993,0.0445 -0.335167,0.0942 -0.494006,0.15461 -0.05963,0.0223 -0.116508,0.069 -0.176142,0.0861 -0.06976,0.0217 -0.134545,-0.01 -0.20412,-0.004 -0.104359,0.009 -0.209272,0.0733 -0.305718,0.1086 -0.04878,0.0193 -0.09847,0.0193 -0.146692,0.0388 -0.07546,0.0309 -0.130125,0.069 -0.209087,0.0928 -0.130863,0.0409 -0.256022,0.10197 -0.387622,0.14449 -0.09479,0.0309 -0.214242,0.0517 -0.316209,0.0626 -0.115771,0.0114 -0.202829,0.0631 -0.297801,0.12792 -0.08412,0.0574 -0.138042,0.14945 -0.232833,0.19271 -0.05043,0.023 -0.09994,0.0396 -0.150372,0.0646 -0.100679,0.0512 -0.175408,0.0784 -0.253816,0.15903 -0.05319,0.0547 -0.100492,0.10914 -0.175405,0.13436 -0.05522,0.0188 -0.111354,0.0215 -0.164546,0.049 -0.132334,0.0653 -0.253813,0.10141 -0.391855,0.15093 -0.07988,0.0274 -0.139513,0.0468 -0.209271,0.0891 -0.06828,0.0433 -0.150192,0.0863 -0.217188,0.12166 -0.0624,0.0329 -0.135096,0.0416 -0.201171,0.0618 -0.0727,0.023 -0.140988,0.0696 -0.20283,0.10491 -0.06902,0.0396 -0.125712,0.074 -0.179088,0.14025 -0.06037,0.0747 -0.05963,0.19989 -0.101966,0.29118 -0.03313,0.071 -0.09847,0.12222 -0.154609,0.17743 -0.05025,0.0504 -0.190496,0.14891 -0.215713,0.21793 -0.03443,0.0935 0.05393,0.14448 0.09921,0.20633 0.0302,0.041 0.04104,0.0834 0.07694,0.12221 0.04031,0.0445 0.08927,0.0821 0.128655,0.12663 0.05319,0.0582 0.09203,0.14081 0.130863,0.20706 0.01729,0.0302 0.04969,0.0733 0.07988,0.092 0.03883,0.023 0.06405,0.004 0.097,0.0502 0.03663,0.0525 0.0267,0.11228 -0.0114,0.15885 -0.05319,0.067 -0.09994,0.0856 -0.180559,0.0697 -0.06975,-0.0143 -0.101413,-0.0653 -0.158838,-0.1027 -0.02723,-0.0173 -0.05393,-0.0195 -0.08485,-0.0517 -0.03239,-0.0339 -0.04749,-0.0526 -0.09498,-0.0539 -0.0797,-0.002 -0.117796,0.0725 -0.173933,0.1143 -0.03736,0.0265 -0.07988,0.0302 -0.112088,0.0639 -0.0381,0.041 -0.04105,0.0935 -0.05761,0.14025 -0.01859,0.0569 -0.02872,0.0705 -0.02374,0.13657 0.0028,0.046 0.01012,0.0806 -0.0065,0.12792 -0.01658,0.0475 -0.05098,0.0727 -0.05669,0.12295 -0.0028,0.0289 0.0092,0.0677 0.0072,0.0994 -0.0037,0.0755 -0.04675,0.11136 -0.04178,0.1905 0.005,0.0913 0.06258,0.12645 0.126629,0.1905 0.06681,0.0668 0.133625,0.13363 0.200438,0.20062 0.04252,0.0423 0.08706,0.0834 0.128104,0.12719 0.0416,0.0431 0.05816,0.0928 0.09405,0.13878 0.06976,0.0898 0.165467,0.15019 0.253816,0.21277 0.113009,0.0814 0.132334,0.20927 0.221418,0.30499 0.0519,0.0559 0.156817,0.19252 0.233017,0.2135 0.06037,0.0171 0.106383,-0.0433 0.166754,-0.0217 7.06e-4,0 0.0021,0.002 0.0037,0.002 0.0086,-0.0136 0.02374,-0.028 0.04233,-0.046 0.23725,0.12442 0.09718,0.13951 0.0028,0.0841 -0.01362,-0.008 -0.02946,-0.0302 -0.04528,-0.0381 -0.01362,0.0223 -0.0094,0.0418 0.03313,0.069 0.04233,0.0267 0.08835,0.023 0.136571,0.0223 0.06607,0 0.212034,0.0403 0.253079,-0.003 0.03736,0.0272 0.0992,0.0611 0.148717,0.0468 0.05466,-0.0151 0.07988,-0.0915 0.12663,-0.12019 0.0416,-0.025 0.06607,-0.0193 0.105646,-0.0611 0.0497,-0.0517 0.09847,-0.0547 0.148904,-0.10639 0.06387,-0.0653 0.128655,-0.12939 0.097,-0.23227 -0.01436,-0.0473 -0.03514,-0.0547 -0.0438,-0.10492 -0.0094,-0.0532 -0.02374,-0.12589 -0.0519,-0.17043 -0.04877,-0.0797 -0.204117,-0.14008 -0.225654,-0.2321 -0.01161,-0.0512 0.02374,-0.0742 0.05467,-0.10657 0.06755,-0.0683 0.08632,-0.0532 0.1697,-0.01 0.02946,0.0158 0.07031,0.0359 0.105647,0.0431 0.01933,0.003 0.04307,-0.005 0.06332,-0.002 0.023,0.004 0.0416,0.0203 0.06313,0.0237 0.06479,0.009 0.07565,-0.009 0.117983,0.0519 0.0042,0.006 0,0.0307 0.0072,0.0423 0.01584,0.026 0.06258,0.0661 0.08633,0.0856 0.07325,0.0554 0.167488,0.0791 0.23283,0.1467 0.04601,0.0475 0.193442,0.23872 0.25455,0.21498 0.107121,-0.0433 0.121476,-0.21719 0.162521,-0.30554"
       style="fill:#21201d;fill-opacity:1;fill-rule:nonzero;stroke:none;stroke-width:0.184057"
       id="path710" />
    <path
       d="m -78.45322,153.7082 c -0.01785,0.0173 -0.03443,0.0324 -0.04233,0.046 0.01584,0.008 0.03164,0.0302 0.04454,0.0388 0.09498,0.0547 0.235776,0.0396 -0.0021,-0.0848"
       style="fill:#21201d;fill-opacity:1;fill-rule:nonzero;stroke:none;stroke-width:0.184057"
       id="path712" />
    <path
       d="m -78.178424,152.84037 0.08043,0.0267 c -0.01933,-0.0151 -0.03884,-0.0309 -0.0589,-0.0403 -0.0072,0.004 -0.01436,0.009 -0.02152,0.0136"
       style="fill:#21201d;fill-opacity:1;fill-rule:nonzero;stroke:none;stroke-width:0.184057"
       id="path714" />
    <path
       d="m -78.178424,152.84037 0.08043,0.0267 c -0.01933,-0.0151 -0.03884,-0.0309 -0.0589,-0.0403 -0.0072,0.004 -0.01436,0.009 -0.02152,0.0136"
       style="fill:#21201d;fill-opacity:1;fill-rule:nonzero;stroke:none;stroke-width:0.184057"
       id="path716" />
    <g
       transform="matrix(0.18405616,0,0,-0.18405792,-128.40643,-46.269257)"
       id="g720">
      <path
         d="m 272.895,-1081.777 0.437,-0.149 c -0.105,0.086 -0.211,0.172 -0.32,0.223 -0.039,-0.024 -0.078,-0.051 -0.117,-0.074 z"
         style="fill:none;stroke:#2c2e35;stroke-width:1;stroke-linecap:butt;stroke-linejoin:miter;stroke-miterlimit:10;stroke-dasharray:none;stroke-opacity:1"
         id="path718" />
    </g>
  </g>
</svg>
