<?xml version="1.0" encoding="UTF-8" standalone="no"?>
<!-- Created with Inkscape (http://www.inkscape.org/) -->

<svg
   width="7.6174173mm"
   height="5.8758283mm"
   viewBox="0 0 7.6174173 5.8758283"
   version="1.1"
   id="svg4812"
   inkscape:version="1.1.2 (0a00cf5339, 2022-02-04)"
   sodipodi:docname="e4.svg"
   xmlns:inkscape="http://www.inkscape.org/namespaces/inkscape"
   xmlns:sodipodi="http://sodipodi.sourceforge.net/DTD/sodipodi-0.dtd"
   xmlns="http://www.w3.org/2000/svg"
   xmlns:svg="http://www.w3.org/2000/svg">
  <sodipodi:namedview
     id="namedview4814"
     pagecolor="#ffffff"
     bordercolor="#666666"
     borderopacity="1.0"
     inkscape:pageshadow="2"
     inkscape:pageopacity="0.0"
     inkscape:pagecheckerboard="0"
     inkscape:document-units="mm"
     showgrid="false"
     inkscape:zoom="0.64052329"
     inkscape:cx="-371.57119"
     inkscape:cy="448.85175"
     inkscape:window-width="2560"
     inkscape:window-height="1376"
     inkscape:window-x="0"
     inkscape:window-y="0"
     inkscape:window-maximized="1"
     inkscape:current-layer="layer1" />
  <defs
     id="defs4809">
    <clipPath
       clipPathUnits="userSpaceOnUse"
       id="clipPath272">
      <path
         d="M 784.754,550 H 814 v 18 h -29.246 z"
         id="path270" />
    </clipPath>
    <clipPath
       clipPathUnits="userSpaceOnUse"
       id="clipPath272-3">
      <path
         d="M 784.754,550 H 814 v 18 h -29.246 z"
         id="path270-6" />
    </clipPath>
  </defs>
  <g
     inkscape:label="Layer 1"
     inkscape:groupmode="layer"
     id="layer1"
     transform="translate(-203.05017,-29.648511)">
    <path
       d="m 209.06859,33.449212 c -0.0252,-0.0021 -0.0653,-0.02152 -0.0848,0 l 0.19639,0.0094 v -0.0094 c -0.0361,7.06e-4 -0.0756,0.0037 -0.11154,0"
       style="fill:#21201d;fill-opacity:1;fill-rule:nonzero;stroke:none;stroke-width:0.184057"
       id="path722" />
    <g
       id="g730"
       transform="matrix(0.18405616,0,0,0.18405792,58.572494,-71.102128)">
      <g
         clip-path="url(#clipPath272-3)"
         id="g728">
        <path
           d="m 809.891,564.215 h 0.004 c -0.012,0.008 -0.016,0.012 -0.004,0 m -18.739,0.297 c 0.078,0.265 0.192,0.539 0.235,0.808 0.039,0.297 0,0.575 0.105,0.868 0.07,0.21 0.172,0.48 0.36,0.671 0.07,0.071 0.062,0.082 0.195,0.106 0.18,0.023 0.379,0 0.57,0.031 0.309,0.047 0.567,0.047 0.879,0.07 0.492,0.036 1.035,0.047 1.508,0.133 0.605,0.106 1.266,0.246 1.898,0.281 0.692,0.036 1.368,-0.042 2.055,-0.042 -0.402,0.16 -0.055,0.203 0.414,0.058 0.149,-0.047 0.262,-0.031 0.406,-0.055 0.254,-0.043 0.172,-0.296 0.161,-0.41 -0.004,-0.129 -0.098,-0.16 -0.149,-0.258 -0.051,-0.089 -0.023,-0.187 0.004,-0.277 0.066,-0.246 0.078,-0.469 0.012,-0.691 0.117,-0.004 0.238,-0.012 0.351,-0.024 0.465,-0.051 0.918,-0.187 1.367,-0.312 0.739,-0.207 1.489,-0.531 2.247,-0.637 0.269,-0.039 0.57,-0.137 0.843,-0.09 0.336,0.055 0.696,0.168 1.004,0.281 0.149,0.051 0.305,0.094 0.453,0.157 0.2,0.082 0.399,0.222 0.61,0.277 0.265,0.063 0.675,0.039 0.937,-0.031 0.41,-0.11 0.906,-0.039 1.34,-0.039 0.348,0 0.594,0.164 0.934,0.226 0.421,0.082 1.007,0.028 1.414,-0.125 0.148,-0.054 0.222,-0.082 0.375,-0.101 0.179,-0.02 0.183,-0.078 0.304,-0.168 0.141,-0.102 0.278,-0.078 0.454,-0.074 0.156,0 0.195,-0.051 0.312,-0.079 0.246,-0.054 0.543,-0.007 0.75,0.063 -0.016,-0.129 -0.512,-0.203 -0.645,-0.25 -0.183,-0.063 -0.371,-0.223 -0.519,-0.344 -0.637,-0.527 -1.524,-0.375 -2.297,-0.367 0,0 0.004,-0.004 0.004,-0.004 -0.012,0.004 -0.016,0.004 -0.027,0.004 -0.098,0.004 -0.192,0.004 -0.286,0.047 -0.078,0.035 -0.121,0.074 -0.21,0.078 -0.106,0.004 -0.215,-0.004 -0.317,-0.004 -0.16,0 -0.289,0.016 -0.437,0.07 -0.125,0.047 -0.235,0.071 -0.36,0.098 -0.113,0.023 -0.195,0.078 -0.32,0.074 -0.055,0 -0.109,-0.008 -0.164,0 -0.067,0.008 -0.125,0.043 -0.192,0.047 -0.07,0.004 -0.136,-0.043 -0.207,-0.047 -0.066,-0.008 -0.125,0.004 -0.191,-0.008 -0.144,-0.027 -0.309,-0.05 -0.445,-0.097 -0.075,-0.024 -0.125,-0.055 -0.203,-0.059 -0.098,0 -0.176,0 -0.27,-0.035 -0.172,-0.07 -0.355,-0.133 -0.539,-0.184 -0.047,-0.011 -0.098,-0.011 -0.141,-0.027 -0.066,-0.016 -0.129,-0.062 -0.207,-0.078 -0.144,-0.031 -0.277,-0.027 -0.425,-0.051 -0.332,-0.043 -0.664,-0.027 -1,-0.027 h -1.223 c -0.203,0 -0.363,0.023 -0.563,0.062 -0.226,0.039 -0.461,0.024 -0.683,-0.011 -0.18,-0.032 -0.375,-0.012 -0.559,-0.012 -0.179,0 -0.359,-0.012 -0.531,0.019 -0.477,0.09 -0.953,-0.05 -1.402,-0.203 -0.004,-0.004 -0.012,-0.004 -0.02,-0.008 0.02,-0.449 0.09,-0.898 0.082,-1.351 -0.008,-0.492 0.082,-0.977 0.082,-1.473 -0.004,-0.601 -0.07,-1.222 0.012,-1.824 0.066,-0.48 0.297,-0.926 0.226,-1.41 -0.066,-0.438 -0.324,-0.859 -0.335,-1.305 -0.004,-0.125 0.011,-0.254 0.015,-0.379 0.027,-0.777 -0.254,-1.55 -0.414,-2.32 -0.121,-0.586 -0.039,-1.176 -0.133,-1.762 -0.043,-0.277 -0.105,-0.554 -0.105,-0.832 -0.004,-0.125 0.047,-0.281 -0.071,-0.394 -0.347,-0.344 -1.48,-0.375 -2.058,-0.332 -0.426,0.031 -0.836,0.125 -1.25,0.179 -0.406,0.051 -0.797,0.055 -1.211,0.051 -0.316,0 -0.637,0 -0.953,0 -0.188,-0.004 -0.289,-0.035 -0.399,0.063 -0.144,0.121 -0.07,0.367 -0.07,0.507 0,0.208 0.031,0.418 -0.055,0.618 -0.129,0.293 -0.355,0.488 -0.621,0.73 -0.164,0.149 -0.207,0.274 -0.222,0.449 -0.012,0.153 -0.098,0.266 -0.149,0.411 -0.105,0.308 -0.012,0.691 -0.012,1.003 0,0.262 0.059,0.551 -0.019,0.809 -0.098,0.332 -0.055,0.664 -0.063,1.004 -0.007,0.226 0,0.43 0.094,0.652 0.098,0.235 0.235,0.457 0.317,0.688 0.097,0.265 0.261,0.586 0.25,0.851 0,0.137 -0.102,0.258 -0.172,0.387 -0.09,0.156 -0.137,0.309 -0.184,0.469 -0.117,0.375 -0.144,0.722 -0.141,1.101 0.008,0.493 -0.152,0.946 -0.386,1.414 -0.203,0.407 -0.449,0.743 -0.418,1.176 0.004,0.02 0.008,0.039 0.012,0.063 -0.192,-0.032 -0.372,-0.071 -0.563,-0.071 -0.078,0 -0.168,0.02 -0.242,-0.004 -0.074,-0.023 -0.11,-0.07 -0.192,-0.078 -0.078,-0.004 -0.136,0 -0.214,-0.023 -0.129,-0.043 -0.262,-0.078 -0.395,-0.098 -0.086,-0.008 -0.242,-0.015 -0.328,0 -0.094,0.024 -0.156,0.082 -0.262,0.086 -0.179,0.004 -0.172,-0.058 -0.347,-0.043 -0.356,0.039 -0.676,0.117 -1.016,0.215 -0.074,0.02 -0.121,0.027 -0.203,0.027 -0.141,0 -0.301,0.024 -0.438,-0.007 -0.109,-0.024 -0.207,-0.079 -0.261,-0.18 -0.063,-0.113 -0.071,-0.223 -0.071,-0.359 0,-0.161 0.008,-0.297 0.043,-0.446 0.039,-0.16 0.106,-0.254 0.239,-0.344 0.082,-0.058 0.132,-0.066 0.226,-0.085 0.063,-0.016 0.137,-0.059 0.192,-0.071 0.124,-0.023 0.277,-0.019 0.386,0.028 0.059,-0.204 -0.129,-0.434 -0.316,-0.504 -0.196,-0.075 -0.531,-0.036 -0.731,0.015 -0.132,0.032 -0.25,0.075 -0.367,0.141 -0.105,0.062 -0.254,0.086 -0.348,0.168 -0.218,0.191 -0.445,0.402 -0.558,0.68 -0.055,0.14 -0.039,0.324 -0.027,0.468 0.003,0.098 0.039,0.192 0.043,0.293 0.003,0.067 -0.02,0.141 -0.004,0.207 0.023,0.106 0.054,0.231 0.101,0.325 0.047,0.089 0.074,0.179 0.153,0.242 0.117,0.097 0.199,0.207 0.332,0.289 0.093,0.054 0.191,0.113 0.289,0.16 0.308,0.137 0.589,0.144 0.918,0.074 0.156,-0.031 0.296,-0.101 0.441,-0.168 0.125,-0.054 0.262,-0.066 0.367,-0.156 0.086,-0.074 0.125,-0.156 0.227,-0.223 0.066,-0.039 0.125,-0.109 0.211,-0.097 0.066,0.011 0.117,0.07 0.179,0.089 0.039,0.016 0.075,0.016 0.118,0.016 0.253,-0.008 0.507,-0.027 0.765,-0.023 0.188,0 0.383,-0.012 0.574,-0.004 0.27,0.011 0.493,0.168 0.723,0.293 0.176,0.093 0.391,0.16 0.613,0.203 0.043,0.14 0.09,0.281 0.125,0.422"
           style="fill:#21201d;fill-opacity:1;fill-rule:nonzero;stroke:none"
           id="path726" />
      </g>
    </g>
    <g
       id="g752"
       transform="matrix(0.18405616,0,0,0.18405792,58.572494,-71.102128)">
      <path
         d="m 790.43,547.496 c 0.015,0.008 0.031,0.012 0.047,0.016 0.085,0.011 0.148,-0.207 -0.047,-0.016"
         style="fill:#21201d;fill-opacity:1;fill-rule:nonzero;stroke:none"
         id="path732" />
      <path
         d="m 790.113,547.906 c 0.008,0.18 0.043,0.36 0.075,0.532 0.039,0.207 0.058,0.41 0.074,0.624 0.011,0.157 0.05,0.29 0.082,0.438 0.019,0.082 0.004,0.152 0.019,0.23 0.012,0.082 0.047,0.067 0.098,0.098 0.137,0.074 0.238,0.09 0.379,0.086 0.066,-0.008 0.07,-0.027 0.125,-0.086 0.074,-0.078 0.183,-0.035 0.269,-0.039 0.078,0 0.114,0.004 0.172,0.094 0.059,0.082 0.055,0.105 0.133,0.109 0.125,0.004 0.25,0.039 0.379,0.039 0.078,0.004 0.152,0.004 0.23,-0.019 0.059,-0.02 0.11,-0.047 0.164,-0.059 0.153,-0.027 0.317,0 0.473,0 h 0.801 c 0.137,0 0.266,-0.039 0.402,-0.043 0.305,-0.012 0.61,0.004 0.914,0.004 0.18,0 0.368,-0.027 0.551,0.008 0.188,0.031 0.367,0.074 0.559,0.07 0.351,-0.004 0.703,0 1.054,0 0.27,0 0.536,0 0.805,0 0.117,0 0.234,-0.023 0.344,0.047 0.144,0.086 0.262,0.176 0.418,0.16 0.105,-0.011 0.191,-0.086 0.293,-0.117 0.109,-0.035 0.226,-0.035 0.344,-0.074 0.074,-0.024 0.144,-0.043 0.226,-0.051 0.07,-0.012 0.125,-0.019 0.195,-0.082 0.082,-0.074 0.137,-0.187 0.227,-0.242 0.039,-0.024 0.07,-0.043 0.113,-0.047 0.059,-0.008 0.047,0.012 0.071,-0.07 0.027,-0.11 0.046,-0.25 0.093,-0.352 0.016,-0.039 0.051,-0.066 0.063,-0.105 0.015,-0.039 -0.004,-0.129 0.015,-0.157 0.016,-0.027 0.071,-0.007 0.09,-0.015 0.035,-0.016 0.063,-0.051 0.059,-0.114 -0.004,-0.085 -0.051,-0.117 -0.051,-0.214 -0.004,-0.063 0,-0.125 0,-0.188 0,-0.133 -0.004,-0.262 0,-0.391 0,-0.058 0.008,-0.109 -0.019,-0.152 -0.055,-0.098 -0.227,-0.004 -0.29,0.008 -0.054,0.016 -0.121,0.023 -0.167,0.039 -0.04,0.02 -0.063,0.059 -0.102,0.078 -0.055,0.027 -0.105,-0.019 -0.16,-0.035 -0.082,-0.02 -0.156,-0.031 -0.231,-0.082 -0.058,-0.031 -0.097,-0.039 -0.16,-0.039 -0.109,0.004 -0.211,-0.039 -0.32,-0.039 -0.274,-0.012 -0.551,-0.004 -0.824,0 -0.301,0.004 -0.602,-0.086 -0.903,-0.082 -0.265,0.004 -0.531,0 -0.797,0 -0.14,0 -0.277,-0.008 -0.414,-0.004 -0.109,0.008 -0.195,0.055 -0.293,0.098 -0.129,0.054 -0.25,-0.008 -0.379,-0.016 -0.097,-0.004 -0.199,0.019 -0.304,-0.004 -0.219,-0.055 -0.457,-0.062 -0.672,0 -0.129,0.031 -0.266,0.008 -0.391,0.008 -0.101,0 -0.203,0 -0.304,0 -0.11,-0.004 -0.184,0.019 -0.282,0.082 -0.062,0.035 -0.113,0.043 -0.171,0.039 -0.11,-0.004 -0.215,0.004 -0.325,0 -0.125,-0.004 -0.242,-0.043 -0.367,-0.074 -0.211,-0.047 -0.422,-0.102 -0.633,-0.153 -0.168,-0.035 -0.336,0.004 -0.5,-0.027 -0.168,-0.023 -0.336,-0.043 -0.5,-0.082 -0.152,-0.035 -0.301,-0.027 -0.449,-0.027 0.004,-0.008 0.012,-0.016 0.016,-0.02 -0.055,-0.027 -0.114,-0.094 -0.168,-0.105 -0.043,-0.016 -0.067,0.004 -0.094,0.047 -0.023,0.046 -0.074,0.109 -0.082,0.164 -0.012,0.066 0.012,0.105 0.019,0.164 0.008,0.046 0.004,0.093 0.008,0.14"
         style="fill:#21201d;fill-opacity:1;fill-rule:nonzero;stroke:none"
         id="path734" />
      <path
         d="m 813.156,547.496 c 0.012,0.008 0.028,0.012 0.043,0.016 0.09,0.011 0.153,-0.207 -0.043,-0.016"
         style="fill:#21201d;fill-opacity:1;fill-rule:nonzero;stroke:none"
         id="path736" />
      <path
         d="m 812.836,547.906 c 0.012,0.18 0.043,0.36 0.074,0.532 0.043,0.207 0.063,0.41 0.078,0.624 0.012,0.157 0.047,0.29 0.082,0.438 0.02,0.082 0.004,0.152 0.016,0.23 0.012,0.082 0.051,0.067 0.102,0.098 0.136,0.074 0.238,0.09 0.374,0.086 0.071,-0.008 0.075,-0.027 0.129,-0.086 0.075,-0.078 0.184,-0.035 0.27,-0.039 0.074,0 0.113,0.004 0.172,0.094 0.055,0.082 0.055,0.105 0.133,0.109 0.125,0.004 0.25,0.039 0.379,0.039 0.078,0.004 0.152,0.004 0.23,-0.019 0.055,-0.02 0.109,-0.047 0.16,-0.059 0.156,-0.027 0.32,0 0.477,0 h 0.8 c 0.137,0 0.266,-0.039 0.403,-0.043 0.305,-0.012 0.609,0.004 0.914,0.004 0.18,0 0.367,-0.027 0.547,0.008 0.191,0.031 0.371,0.074 0.562,0.07 0.352,-0.004 0.703,0 1.055,0 0.266,0 0.535,0 0.805,0 0.113,0 0.234,-0.023 0.34,0.047 0.144,0.086 0.265,0.176 0.421,0.16 0.102,-0.011 0.192,-0.086 0.289,-0.117 0.114,-0.035 0.231,-0.035 0.344,-0.074 0.078,-0.024 0.149,-0.043 0.227,-0.051 0.074,-0.012 0.129,-0.019 0.199,-0.082 0.078,-0.074 0.137,-0.187 0.227,-0.242 0.039,-0.024 0.07,-0.043 0.113,-0.047 0.054,-0.008 0.043,0.012 0.07,-0.07 0.027,-0.11 0.047,-0.25 0.094,-0.352 0.016,-0.039 0.047,-0.066 0.062,-0.105 0.012,-0.039 -0.004,-0.129 0.016,-0.157 0.016,-0.027 0.066,-0.007 0.09,-0.015 0.035,-0.016 0.058,-0.051 0.058,-0.114 -0.003,-0.085 -0.05,-0.117 -0.054,-0.214 0,-0.063 0,-0.125 0,-0.188 0,-0.133 0,-0.262 0,-0.391 0,-0.058 0.011,-0.109 -0.016,-0.152 -0.055,-0.098 -0.226,-0.004 -0.293,0.008 -0.051,0.016 -0.117,0.023 -0.168,0.039 -0.035,0.02 -0.062,0.059 -0.097,0.078 -0.055,0.027 -0.106,-0.019 -0.161,-0.035 -0.086,-0.02 -0.156,-0.031 -0.234,-0.082 -0.059,-0.031 -0.098,-0.039 -0.16,-0.039 -0.106,0.004 -0.211,-0.039 -0.317,-0.039 -0.273,-0.012 -0.55,-0.004 -0.824,0 -0.301,0.004 -0.605,-0.086 -0.902,-0.082 -0.27,0.004 -0.531,0 -0.797,0 -0.141,0 -0.277,-0.008 -0.418,-0.004 -0.105,0.008 -0.191,0.055 -0.289,0.098 -0.129,0.054 -0.25,-0.008 -0.379,-0.016 -0.101,-0.004 -0.203,0.019 -0.305,-0.004 -0.218,-0.055 -0.457,-0.062 -0.675,0 -0.125,0.031 -0.262,0.008 -0.387,0.008 -0.102,0 -0.203,0 -0.305,0 -0.109,-0.004 -0.183,0.019 -0.285,0.082 -0.059,0.035 -0.109,0.043 -0.172,0.039 -0.105,-0.004 -0.211,0.004 -0.32,0 -0.129,-0.004 -0.246,-0.043 -0.371,-0.074 -0.207,-0.047 -0.418,-0.102 -0.629,-0.153 -0.168,-0.035 -0.336,0.004 -0.5,-0.027 -0.168,-0.023 -0.336,-0.043 -0.5,-0.082 -0.152,-0.035 -0.301,-0.027 -0.449,-0.027 0.004,-0.008 0.007,-0.016 0.015,-0.02 -0.058,-0.027 -0.113,-0.094 -0.168,-0.105 -0.043,-0.016 -0.066,0.004 -0.093,0.047 -0.028,0.046 -0.079,0.109 -0.086,0.164 -0.008,0.066 0.015,0.105 0.023,0.164 0.008,0.046 0,0.093 0.004,0.14"
         style="fill:#21201d;fill-opacity:1;fill-rule:nonzero;stroke:none"
         id="path738" />
      <path
         d="m 791.625,571.738 c 0.223,0.121 0.496,0.074 0.746,0.074 0.363,0 0.762,-0.05 1.109,0.04 0.473,0.128 0.985,0.371 1.489,0.269 0.359,-0.078 0.695,-0.094 1.062,-0.027 0.969,0.176 1.946,0.207 2.926,0.203 0.234,0 0.535,0.027 0.691,-0.195 0.09,-0.129 0.036,-0.321 0.059,-0.477 0.027,-0.148 0.063,-0.277 0.066,-0.426 0.012,-0.308 -0.085,-0.586 -0.085,-0.894 0.007,-0.328 0.011,-0.555 -0.118,-0.852 -0.156,-0.359 0.008,-0.891 -0.488,-0.894 -0.234,0 -0.477,0.023 -0.711,0.003 -0.183,-0.015 -0.344,-0.078 -0.531,-0.085 -0.141,-0.008 -0.285,0 -0.426,0 -0.23,0 -0.484,0.035 -0.707,-0.012 -0.363,-0.074 -0.66,-0.227 -1.043,-0.238 -0.676,-0.016 -1.355,0.019 -2.031,0.011 -0.426,-0.008 -0.836,-0.074 -1.262,-0.082 -0.172,0.282 -0.652,0.192 -0.973,0.395 -0.328,0.211 -0.492,0.472 -0.484,0.855 0.004,0.395 0.066,0.77 0.074,1.164 0.012,0.438 0.246,0.95 0.637,1.168"
         style="fill:#21201d;fill-opacity:1;fill-rule:nonzero;stroke:none"
         id="path740" />
      <path
         d="m 797.637,577.965 c -0.09,-0.137 -0.16,-0.289 -0.305,-0.387 -0.211,-0.148 -0.566,-0.078 -0.816,-0.078 -0.274,0 -0.551,-0.004 -0.828,0 -0.376,0.004 -0.727,-0.133 -1.098,-0.164 -0.188,-0.02 -0.375,0.008 -0.567,-0.016 -0.238,-0.031 -0.445,-0.062 -0.695,-0.062 -0.168,0 -0.738,-0.102 -0.793,0.16 0.07,-0.137 0.004,-0.082 -0.246,-0.078 -0.078,0 -0.254,-0.039 -0.328,-0.008 -0.145,0.063 -0.191,0.344 -0.141,0.496 0.059,0.168 0.246,0.309 0.383,0.402 0.184,0.129 0.391,0.184 0.578,0.305 0.184,0.117 0.348,0.215 0.547,0.289 0.563,0.203 1.141,0.141 1.734,0.141 0.641,0 1.29,0.035 1.93,0 0.242,-0.012 0.363,-0.172 0.586,-0.246 0.176,-0.063 0.395,-0.051 0.332,-0.321 -0.031,-0.152 -0.187,-0.3 -0.273,-0.433"
         style="fill:#21201d;fill-opacity:1;fill-rule:nonzero;stroke:none"
         id="path742" />
      <path
         d="m 821.211,570.273 c -0.164,-0.234 -0.098,-0.347 -0.133,-0.601 -0.027,-0.211 -0.094,-0.25 -0.277,-0.317 -0.274,-0.101 -0.535,-0.218 -0.809,-0.312 -0.269,-0.102 -0.519,-0.082 -0.797,-0.078 -0.375,0.004 -0.746,0 -1.117,0 h -1.73 c -0.575,0 -1.188,-0.067 -1.75,0.058 -0.118,0.028 -0.168,0.082 -0.27,0.11 -0.094,0.023 -0.23,-0.008 -0.332,-0.004 0.461,0.066 0.25,0.234 0.004,0.48 -0.164,0.172 -0.238,0.239 -0.25,0.477 -0.004,0.137 0.008,0.269 0.004,0.406 -0.004,0.531 0.672,1.332 1.219,1.317 0.425,-0.012 0.855,0.003 1.281,0 0.262,-0.004 0.5,0.074 0.758,0.086 0.191,0.011 0.383,-0.004 0.574,-0.004 0.551,0.004 1.086,-0.079 1.633,-0.079 0.488,0 0.961,0.079 1.441,0.079 0.414,0 0.496,-0.075 0.637,-0.473 0.086,-0.25 0.305,-0.551 0.187,-0.84 -0.046,-0.105 -0.203,-0.199 -0.273,-0.305"
         style="fill:#21201d;fill-opacity:1;fill-rule:nonzero;stroke:none"
         id="path744" />
      <path
         d="m 819.129,577.746 c -0.145,-0.047 -0.285,-0.082 -0.426,-0.148 -0.082,-0.036 -0.144,-0.082 -0.223,-0.121 -0.32,-0.149 -0.781,-0.149 -1.125,-0.204 -0.21,-0.031 -0.402,0 -0.613,-0.011 -0.265,-0.012 -0.512,-0.09 -0.785,-0.09 -0.203,0 -0.367,0.074 -0.562,0.101 -0.004,0.02 -0.008,0.043 -0.016,0.067 0.031,-0.488 -0.524,-0.266 -0.891,0.113 -0.062,0.067 -0.093,0.156 -0.156,0.211 -0.082,0.078 -0.215,0.051 -0.262,0.156 -0.043,0.098 -0.008,0.469 0.024,0.575 0.086,0.265 0.386,0.375 0.617,0.464 0.148,0.059 0.238,0.2 0.363,0.258 0.082,0.035 0.192,0 0.278,0.008 0.312,0.012 0.64,0.082 0.941,0.148 0.336,0.071 0.738,0.016 1.082,0.016 0.25,0 0.527,0.031 0.773,0.004 0.18,-0.02 0.524,-0.113 0.653,-0.246 0.125,-0.129 0.058,-0.129 0.23,-0.164 0.153,-0.031 0.274,0.019 0.34,-0.156 0.039,-0.102 -0.012,-0.192 0.07,-0.293 0.09,-0.118 0.196,-0.094 0.176,-0.282 -0.035,-0.273 -0.273,-0.336 -0.488,-0.406"
         style="fill:#21201d;fill-opacity:1;fill-rule:nonzero;stroke:none"
         id="path746" />
      <path
         d="m 826.312,560.293 c -0.007,-0.195 -0.011,-0.34 -0.078,-0.527 -0.105,-0.293 -0.289,-0.621 -0.496,-0.852 -0.293,-0.324 -0.648,-0.57 -1.082,-0.633 -0.308,-0.051 -0.586,0.028 -0.863,0.153 -0.137,0.062 -0.219,0.093 -0.32,0.203 -0.09,0.09 -0.157,0.16 -0.219,0.265 -0.047,0.082 -0.106,0.125 -0.109,0.223 -0.004,0.086 -0.016,0.152 0.043,0.203 0.07,0.07 0.136,0.027 0.207,0.008 0.062,-0.016 0.136,-0.02 0.187,-0.059 0.086,-0.062 0.141,-0.16 0.219,-0.222 0.133,-0.102 0.234,-0.176 0.398,-0.176 0.086,0 0.137,-0.004 0.207,0.043 0.047,0.031 0.082,0.074 0.129,0.109 0.106,0.082 0.246,0.141 0.317,0.254 0.074,0.121 0.039,0.305 0.039,0.449 0,0.223 -0.028,0.446 -0.129,0.653 -0.106,0.218 -0.211,0.422 -0.469,0.476 -0.156,0.032 -0.289,0.051 -0.449,0.051 -0.059,0 -0.125,-0.004 -0.192,-0.004 -0.203,-0.008 -0.425,-0.008 -0.601,0.074 -0.074,0.036 -0.121,0.102 -0.184,0.153 -0.191,0.168 -0.484,0.191 -0.719,0.265 -0.273,0.09 -0.578,0.141 -0.867,0.157 0,-0.043 -0.008,-0.09 -0.008,-0.133 0,-0.223 0.079,-0.395 0.125,-0.61 0.051,-0.203 0.043,-0.472 0.004,-0.679 -0.05,-0.297 -0.222,-0.555 -0.332,-0.836 -0.113,-0.285 -0.074,-0.645 -0.062,-0.934 0.023,-0.758 0.351,-1.492 0.34,-2.25 -0.016,-0.711 0.14,-1.402 0.191,-2.113 0.039,-0.578 0.203,-1.192 -0.07,-1.75 -0.125,-0.262 -0.258,-0.473 -0.328,-0.75 -0.036,-0.117 -0.067,-0.238 -0.094,-0.359 -0.051,-0.211 0.035,-0.481 -0.164,-0.657 -0.219,-0.187 -0.465,-0.152 -0.754,-0.105 -0.356,0.055 -0.699,0.078 -1.047,0.148 -0.496,0.106 -1.035,0.082 -1.539,0.145 -0.387,0.043 -0.711,0.195 -1.086,0.273 -0.219,0.043 -0.445,0.059 -0.664,0.098 -0.078,0.012 -0.293,0.039 -0.348,0.09 -0.093,0.082 0.024,0.261 0.02,0.383 -0.004,0.093 0,0.168 -0.133,0.218 -0.09,0.032 -0.156,0 -0.199,0.078 -0.067,0.129 -0.004,0.387 -0.004,0.524 0,0.832 -0.063,1.66 -0.133,2.488 -0.023,0.274 -0.062,0.535 -0.066,0.809 0,0.226 -0.063,0.433 -0.118,0.656 -0.132,0.512 -0.105,1.051 -0.156,1.57 -0.054,0.504 -0.047,1 -0.062,1.508 0,0.063 -0.012,0.109 -0.032,0.172 -0.042,0.141 -0.035,0.273 -0.035,0.426 0,0.082 -0.004,0.168 -0.007,0.25 -0.375,-0.121 -0.778,-0.219 -1.161,-0.27 -0.355,-0.047 -0.73,-0.011 -1.089,-0.011 -0.629,0 -1.274,-0.04 -1.899,-0.008 -0.269,0.015 -0.547,0.121 -0.805,0.191 -0.183,0.051 -0.406,0.102 -0.566,0.195 -0.199,0.114 -0.332,0.262 -0.551,0.356 -0.179,0.078 -0.367,0.176 -0.554,0.223 -0.524,0.125 -1.094,0.089 -1.618,0.199 -0.265,0.054 -0.523,0.035 -0.793,0.082 -0.281,0.043 -0.543,0.078 -0.828,0.062 -0.144,-0.004 -0.246,-0.054 -0.386,-0.101 -0.29,-0.098 -0.61,-0.168 -0.915,-0.211 -0.417,-0.055 -0.828,0 -1.246,-0.078 -0.359,-0.063 -0.738,0.007 -1.047,0.211 -0.195,0.129 -0.351,0.246 -0.562,0.339 -0.188,0.086 -0.324,0.086 -0.539,0.086 0.672,0 1.309,0.188 1.969,0.325 0.742,0.152 1.472,0.336 2.211,0.507 0.441,0.106 0.945,0.09 1.386,0.024 0.59,-0.09 1.168,-0.18 1.762,-0.25 0.508,-0.063 1.008,-0.051 1.508,-0.199 0.226,-0.067 0.441,-0.145 0.676,-0.188 0.25,-0.051 0.5,-0.051 0.742,-0.141 0.43,-0.156 0.941,-0.078 1.39,-0.078 0.45,0 0.903,0 1.352,-0.004 0.488,-0.003 0.922,0.086 1.367,0.27 -0.023,0.105 -0.043,0.211 -0.054,0.32 -0.02,0.188 -0.036,0.371 -0.094,0.555 -0.051,0.18 -0.114,0.344 -0.117,0.527 -0.004,0.203 -0.032,0.328 -0.09,0.52 -0.117,0.375 0.011,0.777 0.023,1.156 0.02,0.524 0.184,1.043 0.207,1.567 0.012,0.398 -0.004,0.789 -0.004,1.183 0,0.121 -0.07,0.438 0.059,0.52 0.168,0.105 0.605,0.027 0.781,-0.016 0.25,-0.062 0.496,-0.113 0.735,-0.195 0.312,-0.11 0.55,-0.106 0.89,-0.106 0.258,0 0.488,0.047 0.742,0.055 0.16,0.004 0.313,-0.012 0.473,0.008 0.086,0.011 0.258,0.043 0.332,0.086 0.063,0.043 0.066,0.058 0.066,0.105 0.024,0 0.051,0 0.079,0 0.324,-0.004 0.621,0.039 0.941,0.051 0.113,0.004 0.336,0.027 0.437,-0.012 0.133,-0.051 0.208,-0.23 0.274,-0.316 0.184,-0.227 0.402,-0.317 0.723,-0.418 0.214,-0.063 0.468,-0.098 0.648,-0.211 0.094,-0.059 0.063,-0.074 0.102,-0.145 0.046,-0.093 0.128,-0.172 0.199,-0.254 0.09,-0.109 0.273,-0.125 0.336,-0.222 0.05,-0.074 0.019,-0.293 0.004,-0.371 -0.024,-0.117 -0.086,-0.125 -0.168,-0.231 -0.325,-0.402 -0.192,-0.855 -0.301,-1.293 -0.149,-0.593 -0.199,-1.191 -0.199,-1.797 0,-0.093 -0.008,-0.187 -0.012,-0.281 h 0.547 c 0.16,0.004 0.39,0.055 0.531,-0.039 0.137,-0.086 0.199,-0.273 0.34,-0.371 0.234,-0.172 0.535,-0.16 0.808,-0.156 0.196,0 0.387,0.023 0.579,0.058 0.117,0.02 0.226,0.035 0.343,0.051 0.145,0.02 0.282,0.078 0.426,0.094 0.235,0.027 0.555,0 0.719,-0.203 0.043,-0.055 0.059,-0.106 0.117,-0.153 0.047,-0.035 0.074,-0.043 0.113,-0.093 0.055,-0.063 0.079,-0.133 0.121,-0.203 0.028,-0.04 0.063,-0.079 0.09,-0.118 0.035,-0.054 0.043,-0.097 0.071,-0.156 0.035,-0.07 0.086,-0.109 0.125,-0.18 0.027,-0.046 0.043,-0.128 0.058,-0.183 0.063,-0.207 0,-0.383 -0.012,-0.59"
         style="fill:#21201d;fill-opacity:1;fill-rule:nonzero;stroke:none"
         id="path748" />
      <path
         d="m 820.133,575.164 c -0.016,-0.008 -0.028,-0.016 -0.043,-0.019 0.062,-0.028 0.121,-0.055 0.183,-0.083 0.2,-0.082 0.418,-0.105 0.481,-0.328 0.055,-0.195 -0.004,-0.515 -0.066,-0.707 -0.114,-0.359 -0.27,-0.351 -0.594,-0.425 -0.246,-0.063 -0.469,-0.149 -0.727,-0.168 -0.207,-0.012 -0.394,-0.071 -0.601,-0.082 -0.286,-0.02 -0.578,0.023 -0.86,0.007 -0.23,-0.015 -0.461,-0.078 -0.691,-0.109 -0.399,-0.059 -0.715,0.008 -1.106,0.027 -0.277,0.012 -0.64,-0.062 -0.918,0 0.258,-0.339 0.016,-0.273 -0.175,-0.23 -0.254,0.058 -0.532,0.125 -0.77,0.219 -0.398,0.16 -0.726,0.328 -0.734,0.781 -0.004,0.195 -0.02,0.371 0.047,0.543 -0.079,-0.004 -0.157,-0.004 -0.235,-0.008 -0.094,-0.008 -0.187,-0.016 -0.285,-0.016 -0.137,0 -0.273,0.016 -0.41,-0.004 -0.168,-0.015 -0.324,-0.078 -0.477,-0.152 -0.101,-0.051 -0.203,-0.109 -0.308,-0.156 -0.106,-0.043 -0.219,-0.051 -0.324,-0.09 -0.098,-0.039 -0.196,-0.043 -0.286,-0.09 -0.043,-0.019 -0.078,-0.062 -0.117,-0.074 -0.058,-0.016 -0.09,0.02 -0.137,-0.027 -0.074,-0.071 0,-0.172 0.051,-0.215 0.055,-0.047 0.153,-0.078 0.211,-0.11 0.086,-0.046 0.133,-0.105 0.188,-0.183 0.058,-0.09 0.05,-0.215 0.05,-0.317 0,-0.101 0.016,-0.226 -0.011,-0.324 -0.028,-0.109 -0.067,-0.226 -0.11,-0.324 -0.05,-0.109 -0.121,-0.148 -0.175,-0.246 -0.075,-0.121 -0.137,-0.215 -0.235,-0.316 -0.109,-0.11 -0.211,-0.176 -0.355,-0.243 -0.18,-0.086 -0.379,-0.168 -0.582,-0.175 -0.078,-0.004 -0.203,-0.02 -0.282,0 -0.074,0.015 -0.14,0.07 -0.21,0.093 -0.082,0.032 -0.739,0.274 -0.633,0.434 0.019,-0.012 0.09,-0.027 0.105,-0.047 0.028,-0.027 0.02,-0.07 0.059,-0.102 0.011,-0.011 0.09,-0.046 0.109,-0.054 0.063,-0.016 0.09,0.023 0.133,0.035 0.086,0.019 0.152,0.016 0.234,0.051 0.082,0.035 0.157,0.031 0.235,0.09 0.148,0.121 0.269,0.261 0.347,0.437 0.063,0.148 0.047,0.445 0.028,0.609 -0.012,0.09 -0.055,0.18 -0.11,0.254 -0.058,0.075 -0.082,0.141 -0.172,0.153 -0.21,0.027 -0.441,0 -0.652,0 -0.129,0 -0.273,-0.02 -0.398,0.011 -0.117,0.028 -0.227,0.078 -0.344,0.11 -0.168,0.047 -0.348,0.133 -0.488,0.234 -0.055,0.043 -0.078,0.094 -0.125,0.145 -0.106,0.121 -0.328,0.117 -0.473,0.152 -0.348,0.086 -0.691,0.137 -1.047,0.18 -0.793,0.097 -1.594,0.289 -2.39,0.211 -0.739,-0.082 -1.442,-0.305 -2.157,-0.493 -0.324,-0.085 -0.648,-0.214 -0.976,-0.304 -0.336,-0.098 -0.668,-0.211 -0.996,-0.328 -0.45,-0.157 -0.891,-0.34 -1.344,-0.489 -0.653,-0.214 -1.301,-0.16 -1.977,-0.16 -0.172,0 -0.41,-0.043 -0.582,-0.004 -0.109,0.024 -0.207,0.074 -0.324,0.102 -0.266,0.062 -0.504,0.086 -0.738,0.23 -0.117,0.071 -0.223,0.18 -0.348,0.242 -0.016,0.008 -0.035,0.016 -0.055,0.024 -0.312,-0.047 -0.617,-0.16 -0.929,-0.231 -0.328,-0.074 -0.649,-0.144 -0.965,-0.226 -0.106,-0.024 -0.211,-0.027 -0.309,0 0.02,0.023 0.035,0.047 0.059,0.07 -0.109,0.246 -0.129,0.254 -0.149,0.258 -0.011,0.043 -0.023,0.09 -0.031,0.133 -0.277,0.043 -0.652,0.18 -0.887,0.332 -0.25,0.164 -0.136,0.273 -0.093,0.496 0.035,0.176 0,0.324 0.09,0.488 0.101,0.18 0.293,0.282 0.433,0.422 0.18,0.18 0.285,0.305 0.551,0.313 0.144,0.007 0.289,-0.008 0.43,-0.008 0.211,0.004 0.328,0.07 0.519,0.144 0.399,0.153 0.797,0.211 1.207,0.285 0.336,0.059 0.68,0.032 1.008,0.122 0.461,0.121 0.824,0.117 1.289,0.043 0.274,-0.047 0.547,0 0.824,-0.039 0.34,-0.04 0.731,-0.063 1.063,-0.165 0.094,-0.023 0.179,-0.066 0.254,-0.128 0.05,-0.024 0.105,-0.028 0.16,-0.012 0.039,-0.016 0.191,-0.071 0.219,-0.098 0.14,-0.133 0.105,-0.383 0.101,-0.547 -0.004,-0.183 0,-0.351 0.027,-0.527 0.676,0.031 1.344,0.121 2,0.277 0.661,0.16 1.29,0.457 1.938,0.668 0.887,0.289 1.816,0.5 2.746,0.61 0.477,0.058 0.961,0.097 1.442,0.046 0.464,-0.046 0.917,-0.191 1.363,-0.312 0.738,-0.207 1.484,-0.531 2.246,-0.637 0.269,-0.039 0.574,-0.133 0.848,-0.09 0.328,0.055 0.691,0.172 1.003,0.282 0.145,0.054 0.301,0.097 0.45,0.156 0.199,0.082 0.402,0.223 0.613,0.277 0.262,0.063 0.676,0.039 0.934,-0.031 0.414,-0.109 0.91,-0.035 1.339,-0.039 0.348,0 0.598,0.164 0.934,0.227 0.426,0.082 1.008,0.027 1.414,-0.122 0.148,-0.054 0.223,-0.085 0.379,-0.101 0.176,-0.024 0.18,-0.082 0.301,-0.168 0.14,-0.106 0.273,-0.082 0.457,-0.078 0.152,0 0.191,-0.047 0.312,-0.074 0.242,-0.059 0.535,-0.012 0.746,0.058 -0.011,-0.133 -0.511,-0.199 -0.644,-0.246"
         style="fill:#21201d;fill-opacity:1;fill-rule:nonzero;stroke:none"
         id="path750" />
    </g>
  </g>
</svg>
