<?xml version="1.0" encoding="UTF-8" standalone="no"?>
<!-- Created with Inkscape (http://www.inkscape.org/) -->

<svg
   width="7.5348911mm"
   height="7.5471225mm"
   viewBox="0 0 7.5348911 7.5471225"
   version="1.1"
   id="svg5575"
   inkscape:version="1.1.2 (0a00cf5339, 2022-02-04)"
   sodipodi:docname="e5.svg"
   xmlns:inkscape="http://www.inkscape.org/namespaces/inkscape"
   xmlns:sodipodi="http://sodipodi.sourceforge.net/DTD/sodipodi-0.dtd"
   xmlns="http://www.w3.org/2000/svg"
   xmlns:svg="http://www.w3.org/2000/svg">
  <sodipodi:namedview
     id="namedview5577"
     pagecolor="#ffffff"
     bordercolor="#666666"
     borderopacity="1.0"
     inkscape:pageshadow="2"
     inkscape:pageopacity="0.0"
     inkscape:pagecheckerboard="0"
     inkscape:document-units="mm"
     showgrid="false"
     inkscape:zoom="0.64052329"
     inkscape:cx="754.07094"
     inkscape:cy="-197.49477"
     inkscape:window-width="2560"
     inkscape:window-height="1376"
     inkscape:window-x="0"
     inkscape:window-y="0"
     inkscape:window-maximized="1"
     inkscape:current-layer="layer1" />
  <defs
     id="defs5572">
    <clipPath
       clipPathUnits="userSpaceOnUse"
       id="clipPath248">
      <path
         d="m 288,560 h 14.344 v 7 H 288 Z"
         id="path246" />
    </clipPath>
    <clipPath
       clipPathUnits="userSpaceOnUse"
       id="clipPath252">
      <path
         d="M 261.406,560 H 276 v 7 h -14.594 z"
         id="path250" />
    </clipPath>
    <clipPath
       clipPathUnits="userSpaceOnUse"
       id="clipPath256">
      <path
         d="m 279,567 h 6 v 15.262 h -6 z"
         id="path254" />
    </clipPath>
    <clipPath
       clipPathUnits="userSpaceOnUse"
       id="clipPath260">
      <path
         d="m 284,566 h 16 v 16.262 h -16 z"
         id="path258" />
    </clipPath>
    <clipPath
       clipPathUnits="userSpaceOnUse"
       id="clipPath264">
      <path
         d="M 261.406,566 H 277 v 16.262 h -15.594 z"
         id="path262" />
    </clipPath>
  </defs>
  <g
     inkscape:label="Layer 1"
     inkscape:groupmode="layer"
     id="layer1"
     transform="translate(94.643665,-200.69792)">
    <path
       d="m -90.436878,203.18621 c -0.0086,-0.0703 -0.03387,-0.11632 -0.03461,-0.18903 -0.0014,-0.11006 -0.02575,-0.2113 -0.03443,-0.31566 -0.0059,-0.0849 -0.0309,-0.19344 -0.05982,-0.26743 -0.03865,-0.0992 -0.0646,-0.20412 -0.08614,-0.31419 -0.02374,-0.12074 -0.06037,-0.23725 -0.07988,-0.35946 -0.023,-0.13805 -0.05614,-0.2818 -0.0935,-0.41414 -0.03443,-0.12074 -0.0438,-0.23651 -0.06184,-0.36388 -0.0092,-0.0639 -0.02007,-0.12939 -0.0079,-0.1927 -0.0381,-0.0782 -0.04601,-0.0703 -0.05319,-0.0589 -0.0085,0.003 -0.01362,-0.002 -0.0151,-0.0129 -0.04675,0.0819 -0.01933,0.19473 -0.03221,0.28897 -0.0079,0.0532 -0.03312,0.0957 -0.04546,0.14817 -0.01362,0.0604 -0.01143,0.1027 -0.0309,0.16381 -0.02575,0.0769 -0.0589,0.15037 -0.08191,0.22878 -0.01214,0.0423 -0.01933,0.0876 -0.03369,0.13013 -0.0151,0.046 -0.04399,0.0876 -0.05467,0.13584 -0.02448,0.10933 -0.02374,0.21277 -0.05982,0.32136 -0.04086,0.12442 -0.04013,0.24222 -0.05816,0.3718 -0.01584,0.10712 -0.04896,0.20559 -0.05466,0.31694 -0.005,0.0985 -0.005,0.19768 -0.0079,0.29689 -0.0035,0.10859 -0.0072,0.21645 -0.01069,0.32505 -7.06e-4,0.0359 -0.01584,0.11871 -7.06e-4,0.15037 0.01933,0.0423 0.07693,0.0351 0.107855,0.046 0.0309,0.0107 0.06111,0.0366 0.08835,0.0559 0.06037,0.0425 0.112275,0.10289 0.161787,0.1697 0.03736,0.051 0.05245,0.0928 0.07049,0.16105 0.01143,0.046 0.01933,0.11081 0.03957,0.14743 0.03589,-0.0295 0.05245,-0.0769 0.08264,-0.1143 0.04307,-0.0569 0.07546,-0.0893 0.112829,-0.15387 0.07123,-0.12589 0.174117,-0.23007 0.269642,-0.31934 0.02946,-0.0272 0.07914,-0.0366 0.0992,-0.0804 0.02374,-0.0497 -7.06e-4,-0.0906 -0.01069,-0.1316 -0.01453,-0.0604 -0.01584,-0.10934 -0.02448,-0.17044"
       style="fill:#21201d;fill-opacity:1;fill-rule:nonzero;stroke:none;stroke-width:0.184057"
       id="path604" />
    <path
       d="m -90.892049,200.75112 c -0.0014,0.006 -0.0014,0.0121 -0.0028,0.0186 0.0059,0.0109 0.01161,0.0237 0.01877,0.0396 0.0072,-0.0309 0.0028,-0.0532 -0.01584,-0.0582"
       style="fill:#21201d;fill-opacity:1;fill-rule:nonzero;stroke:none;stroke-width:0.184057"
       id="path606" />
    <path
       d="m -89.345609,204.23884 c -0.0079,-7.1e-4 -0.0151,-0.002 -0.023,-0.004 0.0014,0.0552 -0.01637,0.0589 -0.02575,0.0775 0.02081,0.002 0.03884,0.007 0.05669,0.0131 0.0028,-0.0302 0.0028,-0.0604 -0.0079,-0.0871"
       style="fill:#21201d;fill-opacity:1;fill-rule:nonzero;stroke:none;stroke-width:0.184057"
       id="path608" />
    <g
       id="g616"
       transform="matrix(0.18405616,0,0,0.18405792,-142.75705,101.07511)">
      <g
         clip-path="url(#clipPath248)"
         id="g614">
        <path
           d="m 299.551,562.586 c -1.246,0.012 -2.446,-0.383 -3.676,-0.449 -1.117,-0.055 -2.461,-0.305 -3.48,-0.66 -0.461,-0.161 -0.868,-0.352 -1.379,-0.418 -0.149,-0.02 -0.348,0.003 -0.493,-0.02 -0.097,-0.016 -0.191,-0.047 -0.285,-0.07 -0.008,0.117 -0.019,0.234 -0.019,0.343 0,0.27 -0.02,0.442 -0.133,0.672 -0.133,0.27 -0.262,0.465 -0.441,0.707 -0.165,0.223 -0.504,0.446 -0.622,0.668 -0.128,0.243 0.149,0.469 0.313,0.664 0.187,0.235 0.488,0.368 0.691,0.582 0.239,0.25 0.368,0.469 0.496,0.758 0.082,0.188 0.235,0.762 0.575,0.645 0.082,-0.028 0.32,-0.258 0.402,-0.32 0.184,-0.126 0.27,-0.157 0.504,-0.247 0.578,-0.211 1.105,-0.476 1.73,-0.613 0.52,-0.117 1.051,-0.199 1.559,-0.328 0.539,-0.133 1.086,-0.219 1.613,-0.359 0.528,-0.141 1.059,-0.278 1.567,-0.45 0.441,-0.148 0.906,-0.136 1.371,-0.304 0.289,-0.102 0.601,-0.133 0.886,-0.242 0.239,-0.09 0.415,-0.25 0.672,-0.317 0.485,-0.125 1.098,-0.125 1.606,-0.133 -1.164,0 -2.297,-0.117 -3.457,-0.109"
           style="fill:#21201d;fill-opacity:1;fill-rule:nonzero;stroke:none"
           id="path612" />
      </g>
    </g>
    <g
       id="g622"
       transform="matrix(0.18405616,0,0,0.18405792,-142.75705,101.07511)">
      <g
         clip-path="url(#clipPath252)"
         id="g620">
        <path
           d="m 264.078,563.707 c 0.438,0.059 0.82,0.207 1.262,0.277 0.265,0.047 0.469,0.184 0.738,0.235 0.184,0.035 0.332,0.015 0.508,0.078 0.496,0.172 1.031,0.289 1.555,0.426 0.519,0.129 1.023,0.261 1.547,0.41 0.394,0.109 0.75,0.183 1.132,0.332 0.336,0.129 0.684,0.273 1.035,0.347 0.547,0.11 0.848,0.211 1.274,0.536 0.504,0.379 0.594,-0.059 0.773,-0.438 0.118,-0.254 0.157,-0.551 0.282,-0.793 0.113,-0.215 0.269,-0.344 0.425,-0.539 0.274,-0.336 0.489,-0.703 0.75,-1.043 0.176,-0.219 0.512,-0.457 0.336,-0.777 -0.074,-0.137 -0.3,-0.266 -0.402,-0.379 -0.164,-0.18 -0.305,-0.399 -0.461,-0.578 -0.25,-0.289 -0.453,-0.625 -0.625,-0.953 -0.117,-0.223 -0.117,-0.754 -0.391,-0.84 -0.058,0.082 -0.078,0.168 -0.062,0.262 -0.684,0.339 -0.895,0.554 -1.156,0.656 -0.223,0.086 -0.469,0.117 -0.703,0.164 -0.278,0.058 -0.555,0.133 -0.844,0.156 -0.969,0.078 -2,0.094 -2.977,0.09 -1.316,-0.012 -2.777,0.043 -4.047,0.328 -0.902,0.199 -1.765,0.527 -2.683,0.691 -0.199,0.036 -0.906,0.051 -0.969,0.219 0.418,0.11 0.918,0.219 1.262,0.414 0.367,0.207 0.754,0.305 1.156,0.481 0.422,0.187 0.828,0.179 1.285,0.238"
           style="fill:#21201d;fill-opacity:1;fill-rule:nonzero;stroke:none"
           id="path618" />
      </g>
    </g>
    <g
       id="g630"
       transform="matrix(0.18405616,0,0,0.18405792,-142.75705,101.07511)">
      <g
         clip-path="url(#clipPath256)"
         id="g628">
        <path
           d="m 284.117,569.145 c -0.035,0.019 -0.074,0.027 -0.113,0.031 0.004,-0.004 0.008,-0.008 0.012,-0.012 -0.02,0.008 -0.036,0.008 -0.055,0.012 v 0.004 c -0.106,0 -0.211,-0.035 -0.273,-0.078 -0.09,-0.067 -0.157,-0.297 -0.235,-0.403 -0.098,-0.14 -0.183,-0.156 -0.297,-0.261 -0.215,-0.196 -0.422,-0.555 -0.59,-0.801 -0.175,-0.274 -0.339,-0.215 -0.48,-0.602 -0.25,0.156 -0.367,0.352 -0.59,0.676 -0.141,0.215 -0.293,0.355 -0.441,0.531 -0.129,0.153 -0.231,0.352 -0.352,0.504 -0.141,0.18 -0.426,0.449 -0.578,0.559 -0.078,0.054 -0.172,0.035 -0.262,0.105 -0.121,0.098 -0.156,0.258 -0.312,0.258 0,0.223 0.289,0.496 0.355,0.781 0.192,0.809 0.242,1.867 0.297,2.766 0.031,0.519 0.078,0.89 0.207,1.336 0.078,0.281 0.164,0.515 0.211,0.832 0.055,0.387 0.043,0.824 0.102,1.215 0.054,0.324 0.16,0.601 0.211,0.922 0.148,0.964 0.269,1.968 0.449,2.945 0.113,0.613 0.277,1.09 0.328,1.765 0.047,0.668 0.019,1.391 0.098,2.047 0.468,-1.644 0.726,-3.468 1.031,-5.207 0.144,-0.82 0.379,-1.578 0.488,-2.41 0.074,-0.555 0.219,-1.219 0.36,-1.746 0.3,-1.137 0.417,-2.301 0.55,-3.516 0.055,-0.476 0.102,-0.953 0.16,-1.433 0.067,-0.559 -0.003,-0.844 -0.281,-0.82"
           style="fill:#21201d;fill-opacity:1;fill-rule:nonzero;stroke:none"
           id="path624" />
        <path
           d="m 284.117,569.145 c 0.102,-0.047 0.184,-0.153 0.192,-0.348 -0.161,0.211 -0.247,0.316 -0.293,0.367 0.035,-0.012 0.07,-0.019 0.101,-0.019"
           style="fill:#21201d;fill-opacity:1;fill-rule:nonzero;stroke:none"
           id="path626" />
      </g>
    </g>
    <g
       id="g670"
       transform="matrix(0.18405616,0,0,0.18405792,-142.75705,101.07511)">
      <path
         d="m 289.785,549.621 c 0.129,-0.246 0.418,-0.508 0.289,-0.812 -0.109,-0.247 -0.441,-0.434 -0.695,-0.352 -0.152,0.574 -0.242,1.164 -0.469,1.727 -0.18,0.441 -0.476,0.804 -0.437,1.281 0.058,0.012 0.109,0.047 0.144,0.097 0.352,-0.187 0.469,-0.707 0.656,-1.042 0.165,-0.297 0.352,-0.59 0.512,-0.899"
         style="fill:#21201d;fill-opacity:1;fill-rule:nonzero;stroke:none"
         id="path632" />
      <path
         d="m 288.617,551.625 -0.133,-0.07 c 0,0.011 0,0.027 0.008,0.039 0.039,0.011 0.082,0.023 0.125,0.031"
         style="fill:#21201d;fill-opacity:1;fill-rule:nonzero;stroke:none"
         id="path634" />
      <path
         d="m 288.316,551.461 0.168,0.094 c -0.004,-0.032 -0.007,-0.063 -0.011,-0.09 -0.047,-0.012 -0.102,-0.016 -0.157,-0.004"
         style="fill:#21201d;fill-opacity:1;fill-rule:nonzero;stroke:none"
         id="path636" />
      <path
         d="m 293.711,556.891 c 0.125,0.015 0.219,-0.114 0.305,-0.243 -0.2,-0.093 -0.383,0.008 -0.305,0.243"
         style="fill:#21201d;fill-opacity:1;fill-rule:nonzero;stroke:none"
         id="path638" />
      <path
         d="m 295.691,556.113 c 0.364,-0.156 0.399,-0.312 0.45,-0.695 0.035,-0.281 -0.086,-0.422 -0.063,-0.691 -0.14,0.003 -0.258,0.105 -0.355,0.214 -0.27,0.297 -0.438,0.61 -0.75,0.887 -0.25,0.227 -0.559,0.391 -0.805,0.621 -0.051,0.047 -0.098,0.121 -0.152,0.199 0.007,0.004 0.015,0.004 0.023,0.008 l 0.141,0.336 c 0.195,-0.304 1.41,-0.836 1.511,-0.879"
         style="fill:#21201d;fill-opacity:1;fill-rule:nonzero;stroke:none"
         id="path640" />
      <path
         d="m 294.254,557.164 -0.074,-0.172 c -0.047,0.074 -0.035,0.137 0.074,0.172"
         style="fill:#21201d;fill-opacity:1;fill-rule:nonzero;stroke:none"
         id="path642" />
      <path
         d="m 293.344,571.195 -0.032,-0.16 c -0.054,-0.019 -0.105,-0.043 -0.156,-0.058 0.071,0.058 0.121,0.156 0.188,0.218"
         style="fill:#21201d;fill-opacity:1;fill-rule:nonzero;stroke:none"
         id="path644" />
      <path
         d="m 295.691,573.289 c 0.016,-0.351 0.27,-0.594 0.262,-0.953 -0.008,-0.348 -0.16,-0.738 -0.414,-0.965 -0.254,-0.23 -0.535,-0.363 -0.867,-0.43 -0.445,-0.093 -0.945,-0.253 -1.406,-0.23 l -0.051,-0.117 0.094,0.441 c 0.406,0.192 0.847,0.676 1.132,0.934 0.418,0.367 0.954,0.847 1.25,1.32"
         style="fill:#21201d;fill-opacity:1;fill-rule:nonzero;stroke:none"
         id="path646" />
      <path
         d="m 288.445,575.426 c -0.066,-0.012 -0.121,-0.043 -0.16,-0.102 -0.015,0.156 0.094,0.258 0.137,0.391 0.172,0.508 0.414,0.902 0.758,1.347 0.199,0.258 0.425,0.454 0.656,0.688 0.152,0.156 0.355,0.66 0.535,0.695 0.164,-0.465 0.141,-0.965 -0.199,-1.312 -0.594,-0.602 -1.156,-1.223 -1.715,-1.86 z"
         style="fill:#21201d;fill-opacity:1;fill-rule:nonzero;stroke:none"
         id="path648" />
      <path
         d="m 276.062,573.914 0.184,-0.519 c -0.43,0.097 -0.508,0.32 -0.785,0.644 -0.492,0.578 -0.848,1.09 -1.18,1.766 -0.176,0.355 -0.457,0.566 -0.679,0.875 -0.254,0.355 -0.461,0.828 -0.036,1.101 0.219,0.145 0.746,0.207 0.618,-0.207 0.281,-0.094 0.367,-0.371 0.441,-0.617 0.035,-0.109 0.016,-0.363 0.063,-0.449 0.14,-0.258 0.507,-0.34 0.66,-0.598 0.121,-0.203 0.09,-0.418 0.183,-0.644 0.078,-0.188 0.297,-0.325 0.36,-0.516 0.062,-0.191 -0.059,-0.285 -0.059,-0.473 0,-0.156 0.113,-0.308 0.176,-0.449 0.019,0.031 0.035,0.059 0.054,0.086"
         style="fill:#21201d;fill-opacity:1;fill-rule:nonzero;stroke:none"
         id="path650" />
      <path
         d="m 268.723,570.074 c -0.317,0.207 -0.438,0.199 -0.551,0.547 -0.07,0.215 -0.277,0.567 -0.059,0.715 0.305,0.211 0.989,-0.356 1.223,-0.492 0.273,-0.16 0.437,-0.227 0.664,-0.477 0.047,-0.055 0.125,-0.113 0.211,-0.176 l 0.133,-0.441 c 0.078,-0.574 -1.5,0.242 -1.621,0.324"
         style="fill:#21201d;fill-opacity:1;fill-rule:nonzero;stroke:none"
         id="path652" />
      <path
         d="m 270.609,569.855 c -0.214,-0.089 -0.32,0.141 -0.386,0.329 0.164,-0.118 0.347,-0.239 0.386,-0.329"
         style="fill:#21201d;fill-opacity:1;fill-rule:nonzero;stroke:none"
         id="path654" />
      <path
         d="m 270.223,570.184 c -0.004,0.004 -0.008,0.004 -0.012,0.007 l -0.043,0.145 c 0.016,-0.039 0.035,-0.094 0.055,-0.152"
         style="fill:#21201d;fill-opacity:1;fill-rule:nonzero;stroke:none"
         id="path656" />
      <path
         d="m 275.109,552.766 0.11,-0.754 c -0.145,-0.024 -0.403,-0.028 -0.621,-0.071 0.132,0.297 0.277,0.75 0.511,0.825"
         style="fill:#21201d;fill-opacity:1;fill-rule:nonzero;stroke:none"
         id="path658" />
      <path
         d="m 274.254,551.777 c 0.058,0.086 0.191,0.133 0.344,0.164 -0.028,-0.066 -0.059,-0.129 -0.086,-0.171 -0.086,-0.137 -0.184,-0.266 -0.285,-0.395 -0.032,0.137 -0.059,0.273 0.027,0.402"
         style="fill:#21201d;fill-opacity:1;fill-rule:nonzero;stroke:none"
         id="path660" />
      <path
         d="m 274.191,550.305 c -0.046,-0.457 -0.14,-0.828 -0.238,-1.266 -0.098,-0.434 -0.082,-0.473 -0.531,-0.539 -0.457,-0.066 -0.434,0.031 -0.707,0.359 -0.246,0.297 -0.574,0.563 -0.254,0.969 0.207,0.262 0.711,0.5 0.961,0.699 0.305,0.243 0.57,0.535 0.808,0.848 0.016,-0.078 0.04,-0.16 0.04,-0.242 0.003,-0.278 -0.051,-0.551 -0.079,-0.828"
         style="fill:#21201d;fill-opacity:1;fill-rule:nonzero;stroke:none"
         id="path662" />
      <path
         d="m 265.793,557.582 c 0.598,0.18 1.098,0.606 1.687,0.789 0.344,0.109 0.625,0.02 0.958,-0.059 l 0.542,0.352 c 0.184,-0.223 0.43,-0.344 0.262,-0.598 -0.207,-0.312 -0.801,-0.457 -1.133,-0.55 -0.605,-0.168 -0.781,-0.196 -1.062,-0.758 -0.098,-0.199 -0.285,-0.352 -0.348,-0.559 -0.269,0.133 -0.492,0.512 -0.441,0.828 -0.219,0.055 -0.492,0.332 -0.465,0.555"
         style="fill:#21201d;fill-opacity:1;fill-rule:nonzero;stroke:none"
         id="path664" />
      <path
         d="m 280.516,565.418 c 0.218,0.117 0.312,0.18 0.582,0.176 0.238,-0.004 0.488,0.031 0.714,-0.047 0.129,-0.047 0.235,-0.156 0.356,-0.211 0.094,-0.047 0.215,-0.063 0.312,-0.121 0.145,-0.086 0.297,-0.211 0.43,-0.309 0.152,-0.113 0.402,-0.297 0.485,-0.433 0.023,-0.032 -0.016,-0.102 0.003,-0.145 0.024,-0.047 0.075,-0.07 0.094,-0.109 0.047,-0.094 0.086,-0.141 0.129,-0.254 0.067,-0.188 0.199,-0.469 0.168,-0.653 -0.008,-0.062 -0.066,-0.207 -0.09,-0.269 -0.035,-0.086 -0.07,-0.168 -0.105,-0.254 -0.141,-0.32 -0.465,-0.641 -0.813,-0.766 -0.418,-0.148 -0.933,-0.304 -1.328,-0.507 -0.141,0.004 -0.937,0.097 -1.324,0.507 -0.16,0.172 -0.238,0.45 -0.402,0.618 -0.165,0.171 -0.364,0.289 -0.469,0.504 -0.07,0.152 0.019,0.136 0.051,0.265 0.023,0.117 -0.008,0.231 0.027,0.348 0.059,0.203 0.215,0.43 0.309,0.613 0.175,0.363 0.519,0.859 0.871,1.047"
         style="fill:#21201d;fill-opacity:1;fill-rule:nonzero;stroke:none"
         id="path666" />
      <path
         d="m 284.715,545.215 c 0.758,0 1.578,-0.09 2.324,-0.004 0.93,0.098 1.773,0.562 2.57,1.039 0.184,0.113 0.348,0.125 0.532,0.188 0.222,0.07 0.316,0.152 0.527,0.273 0.371,0.211 0.832,0.32 1.219,0.523 0.316,0.168 0.551,0.391 0.816,0.586 0.184,0.137 0.363,0.184 0.563,0.321 0.543,0.359 1.078,1.004 1.472,1.519 0.41,0.535 0.867,1.02 1.289,1.555 0.364,0.465 0.907,0.89 1.192,1.414 0.082,0.156 0.144,0.367 0.215,0.531 0.156,0.36 0.347,0.574 0.582,0.883 0.324,0.422 0.425,0.816 0.64,1.285 0.43,0.957 1.051,1.797 1.039,2.879 -0.007,0.395 0.11,0.695 0.149,1.07 0.027,0.227 0.113,0.379 0.16,0.602 0.055,0.25 -0.082,0.523 0.023,0.766 0.532,-0.047 0.285,-2.297 0.274,-2.747 -0.008,-0.429 -0.223,-0.738 -0.293,-1.148 -0.086,-0.504 -0.117,-0.965 -0.313,-1.453 -0.156,-0.399 -0.41,-0.774 -0.617,-1.152 -0.254,-0.481 -0.43,-0.957 -0.644,-1.45 -0.426,-0.965 -0.954,-1.886 -1.571,-2.746 -0.347,-0.488 -0.656,-1.004 -1.051,-1.449 -0.324,-0.371 -0.687,-0.633 -1.082,-0.922 -0.449,-0.336 -0.746,-0.863 -1.238,-1.14 -0.504,-0.278 -0.992,-0.684 -1.523,-0.907 -0.399,-0.164 -0.805,-0.273 -1.176,-0.472 -0.246,-0.133 -0.473,-0.133 -0.742,-0.231 -0.383,-0.14 -0.719,-0.457 -1.129,-0.523 -0.414,-0.067 -0.875,-0.125 -1.293,-0.16 -0.578,-0.047 -1.035,-0.297 -1.613,-0.305 -0.223,0 -0.332,-0.067 -0.539,-0.121 -0.247,-0.063 -0.481,0.015 -0.727,-0.024 -0.363,-0.054 -0.996,-0.523 -1.305,-0.203 -0.312,0.317 0.082,0.613 0.258,0.883 0.192,0.293 0.301,1.051 0.664,1.129 0.133,-0.234 0.305,-0.406 0.348,-0.289"
         style="fill:#21201d;fill-opacity:1;fill-rule:nonzero;stroke:none"
         id="path668" />
    </g>
    <g
       id="g676"
       transform="matrix(0.18405616,0,0,0.18405792,-142.75705,101.07511)">
      <g
         clip-path="url(#clipPath260)"
         id="g674">
        <path
           d="m 299.246,566.754 c -0.277,-0.121 -0.891,0.105 -0.164,0.164 0.004,0.316 -0.109,0.465 -0.156,0.754 -0.039,0.219 0.027,0.43 -0.024,0.652 -0.043,0.188 -0.191,0.391 -0.242,0.571 -0.34,1.144 -0.832,2.222 -1.144,3.378 -0.211,0.774 -0.672,1.59 -1.067,2.25 -0.461,0.77 -1.23,1.372 -1.801,2.059 -0.519,0.629 -1.281,1.016 -1.832,1.641 -0.25,0.285 -0.492,0.507 -0.765,0.765 -0.321,0.301 -0.739,0.489 -1.031,0.801 -0.274,0.289 -0.258,0.316 -0.614,0.43 -0.203,0.07 -0.426,0.105 -0.636,0.179 -0.481,0.168 -0.961,0.379 -1.43,0.579 -0.395,0.171 -0.789,0.203 -1.176,0.335 -0.113,0.04 -0.199,0.122 -0.305,0.168 -0.269,0.118 -0.5,0.075 -0.777,0.145 -0.215,0.051 -1.375,0.332 -1.387,0.574 -0.019,0.27 1.481,0.153 1.703,0.156 0.305,0 0.414,-0.054 0.676,-0.121 0.371,-0.093 0.742,-0.054 1.125,-0.148 0.313,-0.078 0.606,-0.125 0.914,-0.188 0.383,-0.078 0.614,-0.328 0.946,-0.503 0.375,-0.196 0.714,-0.407 1.074,-0.61 0.297,-0.168 0.648,-0.223 0.926,-0.414 0.179,-0.125 0.293,-0.23 0.48,-0.34 0.305,-0.176 0.484,-0.285 0.703,-0.582 0.082,-0.109 0.215,-0.371 0.34,-0.476 0.223,-0.184 0.523,-0.239 0.738,-0.442 0.567,-0.531 1,-1.191 1.59,-1.722 0.617,-0.559 1.059,-1.118 1.492,-1.825 0.457,-0.754 1.043,-1.632 1.192,-2.539 0.078,-0.488 0.234,-0.925 0.375,-1.406 0.164,-0.547 0.281,-1.105 0.465,-1.656 0.125,-0.387 0.089,-0.758 0.183,-1.153 0.082,-0.363 0.102,-0.566 -0.039,-0.89 -0.086,-0.195 -0.152,-0.504 -0.332,-0.586"
           style="fill:#21201d;fill-opacity:1;fill-rule:nonzero;stroke:none"
           id="path672" />
      </g>
    </g>
    <g
       id="g682"
       transform="matrix(0.18405616,0,0,0.18405792,-142.75705,101.07511)">
      <g
         clip-path="url(#clipPath264)"
         id="g680">
        <path
           d="m 274.051,580.363 c -0.465,-0.258 -0.977,-0.355 -1.446,-0.601 -0.457,-0.242 -0.925,-0.356 -1.378,-0.614 -0.364,-0.207 -0.825,-0.336 -1.106,-0.632 -0.176,-0.184 -0.359,-0.27 -0.539,-0.434 -0.148,-0.133 -0.273,-0.367 -0.414,-0.508 -0.18,-0.179 -0.391,-0.254 -0.563,-0.41 -0.148,-0.137 -0.23,-0.301 -0.394,-0.434 -0.356,-0.281 -0.574,-0.703 -0.848,-1.105 -0.136,-0.195 -0.218,-0.418 -0.367,-0.605 -0.133,-0.168 -0.32,-0.278 -0.437,-0.461 -0.282,-0.434 -0.301,-0.957 -0.485,-1.418 -0.148,-0.371 -0.41,-0.661 -0.574,-1.02 -0.191,-0.418 -0.469,-0.664 -0.684,-1.07 -0.257,-0.485 -0.589,-0.965 -0.886,-1.414 -0.254,-0.391 -0.364,-0.828 -0.606,-1.223 -0.16,-0.266 -0.41,-0.516 -0.535,-0.797 -0.09,-0.207 -0.059,-0.328 -0.078,-0.547 -0.016,-0.211 -0.074,-0.261 -0.125,-0.457 -0.051,-0.207 -0.004,-0.402 -0.063,-0.601 -0.351,0.035 -0.203,0.547 -0.265,0.761 -0.106,0.336 -0.344,0.329 -0.317,0.754 0.047,0.774 0.567,1.504 0.848,2.219 0.141,0.359 0.316,0.645 0.492,0.992 0.196,0.395 0.297,0.813 0.567,1.16 0.636,0.817 1.019,1.77 1.691,2.571 0.586,0.711 1.106,1.441 1.789,2.074 0.746,0.691 1.371,1.496 1.984,2.297 0.211,0.277 0.618,0.558 0.911,0.765 0.254,0.184 0.57,0.239 0.828,0.407 0.308,0.195 0.539,0.496 0.867,0.672 0.781,0.418 1.723,0.593 2.41,1.128 0.277,0.215 0.848,0.641 1.219,0.7 0.41,0.07 0.562,-0.02 0.726,-0.348 0.102,-0.211 0.059,-0.172 0.247,-0.293 0.101,-0.062 0.363,-0.109 0.398,-0.219 0.051,-0.144 -0.109,-0.226 -0.152,-0.355 -0.145,-0.031 -0.289,-0.059 -0.442,-0.121 -0.769,-0.305 -1.543,-0.41 -2.273,-0.813"
           style="fill:#21201d;fill-opacity:1;fill-rule:nonzero;stroke:none"
           id="path678" />
      </g>
    </g>
    <path
       d="m -91.817297,208.06669 c 0,0 7.06e-4,7.1e-4 7.06e-4,7.1e-4 0.02797,0.006 0.05595,0.0114 0.08485,0.026 -0.107855,-0.10859 -0.09497,-0.0576 -0.08558,-0.0267"
       style="fill:#21201d;fill-opacity:1;fill-rule:nonzero;stroke:none;stroke-width:0.184057"
       id="path684" />
    <path
       d="m -92.076818,201.28526 c -0.06258,0.026 -0.128838,0.0504 -0.191417,0.0777 -0.07252,0.0324 -0.156634,0.0583 -0.225654,0.0913 -0.04822,0.023 -0.0992,0.049 -0.149638,0.0734 -0.02946,0.0151 -0.04804,0.0351 -0.07896,0.0473 -0.03164,0.0138 -0.0705,0.0101 -0.100679,0.026 -0.01729,0.009 -0.03957,0.0453 -0.06111,0.0582 -0.0302,0.0173 -0.05172,0.0274 -0.07841,0.0482 -0.04601,0.0353 -0.09626,0.0742 -0.148163,0.10713 -0.03369,0.0223 -0.03443,7e-4 -0.06313,0.0324 -0.01584,0.0173 -0.02596,0.0468 -0.04178,0.0653 -0.02596,0.0304 -0.05743,0.0618 -0.09056,0.0836 -0.04031,0.028 -0.07344,0.0552 -0.112829,0.0841 -0.06331,0.048 -0.133071,0.0646 -0.197122,0.11283 -0.109145,0.0804 -0.202646,0.19124 -0.260254,0.30922 -0.03238,0.0668 -0.07325,0.12221 -0.113563,0.18332 -0.03737,0.0574 -0.04749,0.1027 -0.104179,0.14596 -0.06184,0.048 -0.08209,0.12368 -0.141721,0.17246 -0.03239,0.0267 -0.04233,0.0223 -0.06332,0.0589 -0.01362,0.0237 -0.0151,0.0569 -0.02723,0.0821 -0.01013,0.0208 -0.03663,0.0453 -0.04381,0.0661 -0.01379,0.0403 -7.06e-4,0.0814 -0.01087,0.12222 -0.01012,0.0396 -0.03663,0.072 -0.04528,0.11227 -0.0086,0.0416 0,0.0775 -0.0044,0.1178 -0.0072,0.0591 -0.03736,0.11357 -0.05172,0.16897 -0.0094,0.0381 0.0021,0.0697 -0.0042,0.10712 -0.0057,0.0331 -0.02946,0.0591 -0.03238,0.0913 -0.0028,0.0433 0.03461,0.1051 0.08835,0.0871 0.03534,-0.0129 0.04749,-0.1108 0.0554,-0.15019 0.01305,-0.0606 -7.05e-4,-0.0425 0.02671,-0.0849 0.02007,-0.0309 0.03883,-0.0433 0.05098,-0.0828 0.01362,-0.0467 0.01654,-0.0841 0.03461,-0.12939 0.0092,-0.025 0.02007,-0.0401 0.02872,-0.0683 0.0151,-0.0468 0.01288,-0.0955 0.03313,-0.14301 0.01711,-0.0381 0.04233,-0.0712 0.05816,-0.1108 0.03663,-0.0891 0.07988,-0.16179 0.125159,-0.24664 0.0302,-0.0559 0.07473,-0.0955 0.120741,-0.1408 0.06332,-0.0619 0.104913,-0.14375 0.173934,-0.19768 0.03387,-0.0267 0.0762,-0.0381 0.107121,-0.0677 0.02226,-0.0208 0.03534,-0.051 0.05614,-0.0733 0.02798,-0.0287 0.05246,-0.0388 0.08411,-0.0611 0.04105,-0.0287 0.05687,-0.0698 0.09055,-0.10068 0.02152,-0.0193 0.05319,-0.0265 0.07841,-0.0396 0.05245,-0.028 0.07546,-0.0618 0.112825,-0.10712 0.05043,-0.0611 0.102154,-0.11651 0.16105,-0.16823 0.06902,-0.0604 0.124422,-0.11725 0.204305,-0.16105 0.02374,-0.0129 0.04528,-0.0366 0.06902,-0.0475 0.0416,-0.0193 0.09405,-0.01 0.130863,-0.0431 0.02431,-0.0223 0.02501,-0.046 0.05172,-0.0655 0.03295,-0.0243 0.0797,-0.0315 0.114297,-0.0539 0.03387,-0.0228 0.05393,-0.0589 0.08908,-0.0804 0.04252,-0.026 0.0935,-0.0309 0.138042,-0.0547 0.02741,-0.0151 0.0554,-0.0337 0.08338,-0.0495 0.01951,-0.0101 0.06976,-0.0296 0.08356,-0.0403 0.02505,-0.0203 0.023,-0.0433 0.05393,-0.0532 0.03369,-0.0101 0.07473,0.007 0.110621,-0.002 0.0037,-0.0502 0.02152,-0.0848 0.0309,-0.12939 -0.06829,-0.003 -0.137308,-0.007 -0.203383,0.0208"
       style="fill:#21201d;fill-opacity:1;fill-rule:nonzero;stroke:none;stroke-width:0.184057"
       id="path686" />
    <path
       d="m -91.868467,201.23354 c -0.0014,0.0114 -0.0035,0.0208 -0.005,0.0309 0.0554,0.002 0.110801,0.004 0.16473,-0.0116 0.0021,-0.008 0.0035,-0.0157 0.005,-0.0236 -0.0935,7.1e-4 -0.128658,-0.005 -0.164733,0.004"
       style="fill:#21201d;fill-opacity:1;fill-rule:nonzero;stroke:none;stroke-width:0.184057"
       id="path688" />
  </g>
</svg>
