<?xml version="1.0" encoding="UTF-8" standalone="no"?>
<!-- Created with Inkscape (http://www.inkscape.org/) -->

<svg
   width="7.8700647mm"
   height="7.3586254mm"
   viewBox="0 0 7.8700647 7.3586254"
   version="1.1"
   id="svg6087"
   inkscape:version="1.1.2 (0a00cf5339, 2022-02-04)"
   sodipodi:docname="e6.svg"
   xmlns:inkscape="http://www.inkscape.org/namespaces/inkscape"
   xmlns:sodipodi="http://sodipodi.sourceforge.net/DTD/sodipodi-0.dtd"
   xmlns="http://www.w3.org/2000/svg"
   xmlns:svg="http://www.w3.org/2000/svg">
  <sodipodi:namedview
     id="namedview6089"
     pagecolor="#ffffff"
     bordercolor="#666666"
     borderopacity="1.0"
     inkscape:pageshadow="2"
     inkscape:pageopacity="0.0"
     inkscape:pagecheckerboard="0"
     inkscape:document-units="mm"
     showgrid="false"
     inkscape:zoom="0.64052329"
     inkscape:cx="-17.173458"
     inkscape:cy="11.709176"
     inkscape:window-width="2560"
     inkscape:window-height="1376"
     inkscape:window-x="0"
     inkscape:window-y="0"
     inkscape:window-maximized="1"
     inkscape:current-layer="layer1" />
  <defs
     id="defs6084">
    <clipPath
       clipPathUnits="userSpaceOnUse"
       id="clipPath268">
      <path
         d="M 784.754,1061 H 800 v 5 h -15.246 z"
         id="path266" />
    </clipPath>
  </defs>
  <g
     inkscape:label="Layer 1"
     inkscape:groupmode="layer"
     id="layer1"
     transform="translate(-109.66015,-145.43988)">
    <path
       d="m 114.52352,149.80958 c -0.0114,0.26449 0.008,0.3394 0.007,0.27461 7.1e-4,0.026 0.006,0.0554 0.002,0.0814 -0.004,0.0337 -0.007,0.0258 -0.0431,0.0307 -0.0403,0.006 -0.072,0.0153 -0.11283,0.0158 -0.0195,0 -0.0591,0.009 -0.0756,0.003 -0.0309,-0.0109 -0.0171,-0.0935 -0.0178,-0.12295 -0.001,-0.0295 0.005,-0.0539 0.0101,-0.0827 0.007,-0.0353 0.002,-0.072 0.001,-0.10712 -0.001,-0.0475 -0.0208,-0.13086 -0.001,-0.17541 0.008,-0.021 0.0315,-0.0289 0.0537,-0.0339 0.0116,-0.003 0.0245,-0.002 0.0368,-0.004 0.006,-0.002 0.0114,-0.0109 0.0193,-0.0131 0.0547,-0.0129 0.10712,0 0.15037,0.0267 l 0.0344,0.13013 c 0.002,-0.009 -0.0733,-0.018 -0.064,-0.0237 m -0.6764,0.40253 c -0.0151,0.007 -0.0526,0 -0.0705,0 -0.0388,0 -0.0683,-0.006 -0.10638,-0.0107 -0.0346,-0.003 -0.0361,0.005 -0.0425,-0.0294 -0.005,-0.0252 -0.0819,0.025 -0.0826,0 -0.003,-0.092 7.1e-4,-0.18553 -0.008,-0.27756 0.009,0.006 0.0144,-0.0675 0.0166,-0.0576 l 0.0309,-0.13013 c 0.0388,-0.028 0.0876,-0.0431 0.13952,-0.0329 0.008,0.002 0.0136,0.0107 0.0186,0.0114 0.0116,0.002 0.0237,0 0.0353,0.002 0.0208,0.004 0.0416,0.0107 0.0517,0.0309 0.0201,0.0438 0.006,0.12939 0.008,0.17762 0.001,0.0359 -0.002,0.0718 0.006,0.10712 0.006,0.0295 0.0136,0.0532 0.0144,0.0834 0,0.0302 0.0166,0.11282 -0.0114,0.12571 m -0.28197,1.58179 c -0.0136,0.007 -0.0488,0 -0.0653,0 -0.0351,0.002 -0.0633,-0.006 -0.0985,-0.0107 -0.0316,-0.004 -0.0339,0.005 -0.0388,-0.0304 -0.005,-0.0272 -0.0762,0.026 -0.0777,-0.002 -0.001,-0.0957 7e-4,-0.19271 -0.007,-0.28842 0.009,0.006 0.0136,-0.069 0.0158,-0.0589 l 0.0287,-0.1351 c 0.0359,-0.0296 0.0806,-0.046 0.12939,-0.0353 0.007,0.002 0.0123,0.0116 0.0166,0.0123 0.0109,0.002 0.0223,0 0.0331,0.002 0.0186,0.004 0.0396,0.0109 0.048,0.0331 0.0188,0.0453 0.006,0.13381 0.007,0.18406 7.1e-4,0.0366 -0.001,0.0747 0.006,0.11062 0.006,0.0309 0.0129,0.0554 0.0136,0.0878 0,0.0309 0.0158,0.11651 -0.0109,0.1294 m -0.24296,-4.31303 0.0374,-0.15111 c 0.0482,-0.0329 0.10639,-0.051 0.17044,-0.0388 0.009,0.002 0.0166,0.0123 0.0223,0.0138 0.0144,0.002 0.0302,0 0.0431,0.002 0.0252,0.004 0.0519,0.0123 0.0641,0.0361 0.0245,0.051 0.008,0.15019 0.009,0.2056 7e-4,0.0416 -0.002,0.0841 0.007,0.12497 0.009,0.0339 0.0173,0.0613 0.0173,0.0972 10e-4,0.0344 0.0215,0.1294 -0.0131,0.14522 -0.0186,0.007 -0.0646,0 -0.0869,0 -0.046,0.002 -0.0826,-0.008 -0.12939,-0.0123 -0.0418,-0.004 -0.044,0.005 -0.0512,-0.0337 -0.006,-0.0302 -0.10068,0.0287 -0.10141,-0.002 -0.004,-0.10712 7e-4,-0.21572 -0.01,-0.3221 0.0107,0.007 0.0173,-0.0777 0.0208,-0.0661 m -0.42922,3.82417 c -0.004,0.10712 0.004,0.21645 0.006,0.32358 7.1e-4,0.0309 0.006,0.0653 0.003,0.0955 -0.005,0.0403 -0.008,0.0302 -0.0438,0.0366 -0.0403,0.008 -0.0712,0.0188 -0.11228,0.0195 -0.0193,0 -0.0589,0.0109 -0.0755,0.003 -0.0309,-0.0131 -0.0173,-0.11007 -0.0186,-0.14467 -7.1e-4,-0.0359 0.006,-0.0639 0.0107,-0.0985 0.006,-0.0416 0.002,-0.0841 7e-4,-0.12571 -7e-4,-0.0561 -0.0201,-0.15461 -7e-4,-0.20707 0.009,-0.0245 0.0316,-0.0339 0.0532,-0.0396 0.0116,-0.003 0.0252,-0.002 0.0374,-0.004 0.006,-0.002 0.0116,-0.0129 0.0195,-0.0144 0.0547,-0.0158 0.10712,0 0.14945,0.0302 l 0.0346,0.15461 c 0.003,-0.0114 -0.0727,-0.0215 -0.0633,-0.0287 m 1.89597,1.38614 c 0.0252,-0.007 0.046,-0.0178 0.074,-0.0366 0.0116,-0.008 0.0252,-0.0109 0.0339,-0.023 0.006,-0.009 0.002,-0.018 0.004,-0.028 0.0109,-0.0598 -0.005,-0.13602 -0.007,-0.19713 -0.0201,-0.51334 -0.0403,-1.02594 -0.0403,-1.53854 0,-0.10638 -0.0409,-0.30406 0.0375,-0.38247 0.0812,-0.0806 0.22565,-0.0215 0.32927,-0.0445 0.009,-0.10859 -0.0972,-0.23799 -0.13877,-0.33664 -0.0453,-0.10492 -0.0576,-0.21701 -0.10712,-0.30904 -0.0195,-0.0158 -0.0388,-0.0324 -0.0569,-0.049 -0.0136,-0.0316 -0.0173,-0.0639 -0.009,-0.0977 -0.0193,-0.049 -0.0374,-0.0618 -0.0554,-0.11357 -0.0416,-0.12442 -0.0847,-0.2481 -0.10491,-0.37455 -0.0201,-0.1259 -0.0777,-0.24167 -0.10639,-0.36241 -0.0193,-0.0863 -0.0517,-0.12516 -0.0554,-0.22437 -0.003,-0.0661 10e-4,-0.13362 10e-4,-0.20062 -7.1e-4,-0.0396 -0.0223,-0.15093 0.001,-0.18259 0.0396,-0.0503 0.0488,-0.004 0.10418,-0.026 0.13528,-0.0525 0.0841,-0.13142 0.0418,-0.25658 -0.023,-0.0661 -0.0777,-0.14172 -0.10786,-0.21148 -0.0359,-0.0854 -0.051,-0.18829 -0.0928,-0.28106 -0.0999,-0.21921 -0.0985,-0.45296 -0.15811,-0.69095 -0.0309,-0.12497 -0.0799,-0.24222 -0.10362,-0.37014 -0.0129,-0.0698 0.0123,-0.14467 -10e-4,-0.21222 -0.0121,-0.0582 -0.048,-0.10068 -0.0589,-0.15958 -0.0346,-0.19491 0.0316,-0.45149 -0.22142,-0.51904 -0.0374,-0.0101 -0.10289,-0.0381 -0.13952,-0.004 -0.041,0.0374 0.0129,0.11504 -0.004,0.15534 -0.0361,0.0856 -0.15755,0.0497 -0.24314,0.049 -0.0431,0 -0.092,-0.007 -0.13362,0 -0.0475,0.006 -0.0856,0.0359 -0.11724,0.0423 -0.1467,0.0274 -0.0999,-0.003 -0.17247,-0.0963 -0.15828,-0.2043 -0.26541,0.12148 -0.30847,0.22364 -0.046,0.10712 -0.0497,0.20761 -0.0935,0.30755 -0.028,0.0648 -0.0381,0.1432 -0.0517,0.2137 -0.0446,0.22933 -0.0777,0.4629 -0.1051,0.69371 -0.0201,0.17614 -0.10565,0.34584 -0.14872,0.5299 -0.023,0.0957 -0.0281,0.18774 -0.09,0.2667 -0.0445,0.0569 -0.11485,0.0849 -0.13731,0.15609 -0.0201,0.0653 -0.008,0.18258 0.0403,0.2308 0.0742,0.074 0.17191,-0.002 0.24369,0.0747 0.0965,0.10215 -0.0144,0.1108 -0.0582,0.18553 -0.023,0.0396 -0.0116,0.0942 -0.0223,0.13804 -0.0109,0.0411 -0.0353,0.0596 -0.0425,0.11651 -0.023,0.17891 -0.0359,0.31566 -0.10712,0.478 -0.0329,0.0762 -0.0374,0.17191 -0.0631,0.25529 -0.0289,0.092 -0.0913,0.16897 -0.0957,0.27756 -0.004,0.0935 -0.0351,0.12939 -0.0547,0.20982 -0.0208,0.0856 -0.003,0.18627 -0.0237,0.26836 -0.0223,0.0869 -0.0782,0.22639 -0.0841,0.32063 -0.007,0.12718 0.0618,0.10859 0.16399,0.10491 0.23007,-0.006 0.24867,0.17265 0.21498,0.37382 -0.0129,0.0769 -0.0532,0.12369 -0.0569,0.21223 -0.003,0.0525 7e-4,0.10638 7e-4,0.1581 0.001,0.10712 0.006,0.21277 -0.0114,0.31916 -0.0252,0.15111 -0.0784,0.29559 -0.10638,0.44799 -0.0158,0.0878 -0.0381,0.17467 -0.0539,0.26321 -0.009,0.048 -0.0195,0.10638 0.0179,0.14669 0.0517,0.0545 0.14817,0.0387 0.21571,0.0552 0.0935,0.023 0.18406,0.0554 0.27683,0.0777 0.16896,0.041 0.34142,0.0396 0.51333,0.0366 0.0769,0 0.15019,0.018 0.2286,0.0173 0.0618,0 0.1143,0.0151 0.1754,0.0166 0.049,0 0.092,0.0166 0.14099,0.0158 0.0611,0 0.12147,0 0.18258,0 0.0663,0 0.13086,-0.003 0.19565,-0.0201 0.0453,-0.0116 0.0898,-0.0138 0.13436,-0.0252 0.0512,-0.0136 0.11228,-0.006 0.16621,-0.0166 0.0661,-0.0121 0.13436,0.004 0.20117,-0.003 0.0547,-0.005 0.10712,-0.0243 0.16105,-0.0344 0.0195,-0.003 0.0346,-0.006 0.0497,-0.0101"
       style="fill:#21201d;fill-opacity:1;fill-rule:nonzero;stroke:none;stroke-width:0.184057"
       id="path690" />
    <path
       d="m 114.94851,148.18251 c -0.003,0 -0.006,0 -0.009,0 0.0195,-0.0245 0.0554,-0.0403 0.0826,-0.0539 0.0381,-0.0201 0.0806,-0.023 0.12148,-0.0324 0.0497,-0.0107 0.0972,-0.023 0.14669,-0.0287 0.16105,-0.0201 0.33591,-0.0121 0.49898,-0.008 0.0604,0.002 0.11945,0.0158 0.17835,0.0272 0.0618,0.0131 0.12939,0.0145 0.19197,0.0188 0.14025,0.009 0.28897,0.0267 0.42627,0.0532 0.0972,0.0188 0.21369,0.0431 0.31069,0.008 0.0777,-0.0287 0.17044,-0.0366 0.22289,-0.10638 0.0445,-0.0596 0.0331,-0.1316 0.003,-0.19768 -0.0114,-0.0252 -0.0223,-0.0497 -0.046,-0.064 -0.0302,-0.0186 -0.0747,0.002 -0.0985,-0.0223 0.0223,-0.023 0.0388,-0.026 0.0663,-0.0374 0.0396,-0.0158 0.0769,-0.0403 0.12,-0.0438 0.0819,-0.007 0.18185,0.0171 0.25308,0.0559 0.028,0.0151 0.0733,0.0517 0.0885,0.0813 0.0107,0.0186 0.005,0.0396 0.01,0.0611 0.009,0.0337 0.0116,0.0589 0.0116,0.0948 0,0.0591 0.008,0.12369 -0.003,0.1813 -0.0173,0.0913 -0.0942,0.14154 -0.13436,0.21847 -0.0237,0.046 -0.0468,0.0972 -0.0913,0.12737 -0.0289,0.0201 -0.0655,0.0272 -0.0994,0.0302 -0.048,0.004 -0.0884,0.0151 -0.13731,0.0151 -0.092,0 -0.18405,0 -0.27534,0 -0.0804,0 -0.1467,-0.018 -0.22069,-0.0497 -0.0381,-0.0166 -0.0784,-0.0193 -0.11577,-0.0351 -0.0351,-0.0151 -0.0668,-0.0289 -0.10344,-0.0403 -0.0561,-0.0173 -0.1108,-0.0331 -0.16749,-0.0497 -0.0626,-0.0179 -0.12369,-0.0381 -0.18994,-0.0374 -0.051,0 -0.10142,0 -0.1524,0 -0.0438,0 -0.0876,0 -0.13087,0 -0.0445,0 -0.0733,0.006 -0.11356,0.018 -0.0309,0.0101 -0.0841,0.0302 -0.11283,0.051 -0.0418,0.0295 -0.0425,0.10068 -0.0216,0.14393 0.0186,0.0388 0.0517,0.0963 0.0876,0.12148 0.0366,0.0265 0.11007,0.0668 0.15608,0.0596 -0.0626,0 -0.11798,0.0193 -0.18258,0.0158 -0.044,-0.002 -0.0915,-0.0208 -0.12811,-0.0438 -0.0302,-0.0188 -0.0596,-0.0361 -0.0856,-0.0626 -0.0302,-0.0302 -0.048,-0.0591 -0.0733,-0.092 -0.0237,-0.0302 -0.0582,-0.0583 -0.095,-0.0604 -0.0473,-0.002 -0.0861,0 -0.13086,-0.0116 -0.0409,-0.0101 -0.1005,0.009 -0.13878,0.0274 -0.0359,0.0179 -0.0948,0.0423 -0.1178,0.0775 0.0272,-0.0272 0.0287,-0.0755 0.049,-0.10915 0.0186,-0.0309 0.0394,-0.0576 0.0545,-0.09 0.0116,-0.025 0.0316,-0.0582 0.0468,-0.0797 0.0123,-0.0173 0.0475,-0.0683 0.0482,-0.13233"
       style="fill:#21201d;fill-opacity:1;fill-rule:nonzero;stroke:none;stroke-width:0.184057"
       id="path692" />
    <g
       id="g700"
       transform="matrix(0.18405616,0,0,0.18405792,-34.781179,-47.585362)">
      <g
         clip-path="url(#clipPath268)"
         id="g698">
        <path
           d="m 787.508,1064.508 c 0.082,0.254 0.34,0.508 0.562,0.64 0.137,0.079 0.309,0.129 0.453,0.204 0.075,0.039 0.52,0.175 0.536,0.246 0.058,0.257 -1.18,0.386 -1.332,0.394 -0.297,0.012 -0.594,0.016 -0.883,-0.062 -0.293,-0.078 -0.621,-0.051 -0.879,-0.207 -0.266,-0.157 -0.504,-0.325 -0.719,-0.555 -0.109,-0.117 -0.32,-0.277 -0.375,-0.43 -0.035,-0.101 0.004,-0.191 -0.012,-0.297 -0.019,-0.125 -0.07,-0.214 -0.082,-0.343 -0.047,-0.422 0.09,-0.938 0.289,-1.305 0.305,-0.547 0.879,-0.797 1.426,-0.988 0.231,-0.078 0.477,-0.047 0.707,-0.094 0.172,-0.039 0.278,-0.09 0.465,-0.086 h 0.469 c 0.211,0 0.344,0.043 0.543,0.086 0.097,0.019 0.199,-0.012 0.301,0.012 0.007,0 0.156,0.058 0.168,0.066 0.128,0.047 0.25,0.063 0.39,0.098 0.274,0.07 0.531,0.222 0.797,0.293 0.145,0.043 0.242,0.019 0.375,0.105 0.121,0.074 0.254,0.153 0.391,0.223 0.281,0.148 0.527,0.332 0.797,0.496 0.281,0.176 0.507,0.187 0.839,0.187 0.309,0 0.641,-0.039 0.954,-0.01 0.304,0.031 0.601,0.144 0.91,0.168 0.289,0.023 0.586,0.121 0.863,0.183 0.109,0.024 0.211,0.098 0.316,0.129 0.133,0.039 0.274,0.047 0.395,0.121 0.086,0.051 0.137,0.106 0.23,0.149 0.071,0.035 0.16,0.043 0.235,0.078 0.375,0.176 0.761,0.343 1.168,0.472 0.125,0.039 0.25,0.086 0.375,0.125 0.168,0.055 0.293,0.036 0.465,0.059 0.101,0.016 0.238,0.109 0.335,0.094 0.086,-0.012 0.102,-0.11 0.2,-0.098 -0.145,0.199 -0.473,0.16 -0.657,0.274 -0.023,0.01 -0.078,0.101 -0.109,0.128 -0.059,0.043 -0.191,0.086 -0.262,0.129 -0.14,0.09 -0.289,0.18 -0.441,0.243 -0.473,0.179 -0.965,0.222 -1.465,0.222 -0.492,0 -1.07,0.09 -1.547,-0.019 -0.183,-0.043 -0.402,-0.168 -0.601,-0.227 -0.106,-0.035 -0.219,-0.062 -0.332,-0.102 -0.098,-0.035 -0.231,-0.07 -0.332,-0.121 -0.184,-0.097 -0.356,-0.183 -0.547,-0.273 -0.078,-0.035 -0.149,-0.094 -0.231,-0.125 -0.121,-0.043 -0.258,-0.066 -0.39,-0.121 -0.196,-0.078 -0.45,-0.133 -0.657,-0.074 -0.254,0.066 -0.304,0.242 -0.531,0.011 -0.305,-0.304 -0.648,-0.562 -0.996,-0.812 -0.18,-0.133 -0.344,-0.27 -0.586,-0.281 -0.258,-0.01 -0.473,-0.078 -0.738,-0.078 -0.352,0 -0.703,0 -1.055,0 -0.121,0 -0.277,-0.028 -0.394,0 -0.11,0.019 -0.184,0.101 -0.27,0.183 -0.238,0.231 -0.18,0.504 0.059,0.731 0.129,0.125 0.457,0.386 0.41,0.16"
           style="fill:#21201d;fill-opacity:1;fill-rule:nonzero;stroke:none"
           id="path696" />
      </g>
    </g>
    <path
       d="m 115.18943,149.3452 c 0.0186,-0.0526 0.0618,-0.0569 0.10492,-0.0814 0.0237,-0.0136 0.041,-0.0381 0.0646,-0.0525 0.0324,-0.0208 0.0663,-0.0245 0.10215,-0.0339 0.0554,-0.0136 0.10215,-0.0302 0.15958,-0.0302 0.0828,0 0.17117,-0.008 0.25179,0.008 0.0423,0.009 0.0797,0.0151 0.12074,0.0302 0.0539,0.0203 0.10786,0.0267 0.16307,0.0418 0.17559,0.0482 0.35026,0.12074 0.53505,0.11798 0.0856,0 0.17099,0 0.25658,0 0.0482,0 0.0964,0 0.14448,0 0.0252,0 0.0762,0.0107 0.0935,-0.013 -0.025,0.0173 -0.0596,0.0281 -0.0861,0.0468 -0.0225,0.0151 -0.0396,0.0351 -0.0618,0.051 -0.0331,0.0224 -0.0734,0.0361 -0.10583,0.0598 -0.0423,0.0317 -0.0891,0.051 -0.13933,0.0718 -0.0339,0.0138 -0.0663,0.0346 -0.10215,0.0418 -0.0453,0.009 -0.0885,0.0158 -0.13657,0.0144 -0.0598,-0.002 -0.11651,0.0158 -0.17762,0.0158 -0.0893,0 -0.19565,0.0158 -0.28326,-0.002 -0.0885,-0.0173 -0.17117,-0.0747 -0.25823,-0.10142 -0.0265,-0.008 -0.0545,-0.0114 -0.0812,-0.0186 -0.0245,-0.006 -0.0431,-0.0195 -0.0668,-0.0274 -0.0368,-0.0114 -0.0806,-0.0251 -0.11798,-0.0322 -0.0705,-0.0123 -0.13657,-0.0158 -0.21277,-0.0158 -0.0425,0 -0.0957,-0.009 -0.13657,0 -0.0316,0.006 -0.0539,0.023 -0.0893,0.0121 0.0136,-0.0309 0.0316,-0.0935 0.0591,-0.10271"
       style="fill:#21201d;fill-opacity:1;fill-rule:nonzero;stroke:none;stroke-width:0.184057"
       id="path702" />
    <path
       d="m 114.72985,147.07098 c 0.0153,-0.0445 0.0497,-0.0482 0.0849,-0.069 0.0188,-0.0109 0.0331,-0.0316 0.0526,-0.0438 0.0258,-0.0173 0.0532,-0.0202 0.0819,-0.0281 0.0445,-0.0114 0.0819,-0.0258 0.12939,-0.0258 0.0661,0 0.13805,-0.006 0.20338,0.007 0.0339,0.006 0.064,0.0129 0.0972,0.0252 0.0431,0.0171 0.0876,0.0223 0.13233,0.0351 0.14154,0.0403 0.28253,0.10141 0.43198,0.0992 0.069,0 0.13878,0 0.2078,0 0.0388,0 0.0777,0 0.11651,0 0.0208,0 0.0626,0.009 0.0762,-0.0101 -0.0208,0.0138 -0.0482,0.023 -0.0698,0.0381 -0.0186,0.0131 -0.0316,0.0309 -0.0502,0.044 -0.0267,0.0186 -0.0591,0.0295 -0.0849,0.0495 -0.0346,0.0267 -0.0734,0.0433 -0.11357,0.0604 -0.0267,0.0116 -0.0534,0.0295 -0.0828,0.0361 -0.0359,0.007 -0.0718,0.0121 -0.10989,0.0114 -0.0482,0 -0.0942,0.0129 -0.14393,0.0129 -0.0718,0 -0.1581,0.0138 -0.2286,0 -0.0718,-0.0145 -0.13877,-0.0633 -0.20908,-0.0849 -0.0217,-0.008 -0.044,-0.0101 -0.0663,-0.0165 -0.0186,-0.006 -0.0344,-0.0158 -0.0532,-0.0223 -0.0295,-0.0101 -0.0646,-0.0223 -0.0955,-0.0274 -0.0569,-0.0107 -0.11007,-0.0144 -0.17191,-0.0144 -0.0346,0 -0.0769,-0.007 -0.1108,0 -0.025,0.005 -0.0431,0.0195 -0.0718,0.0109 0.0114,-0.0267 0.0258,-0.0791 0.048,-0.0871"
       style="fill:#21201d;fill-opacity:1;fill-rule:nonzero;stroke:none;stroke-width:0.184057"
       id="path704" />
    <path
       d="m 111.96974,149.27821 c -0.004,0 -0.009,-0.004 -0.0151,-0.007 -0.006,-0.004 -0.0136,-0.007 -0.0208,-0.0101 -0.007,-0.002 -0.0136,-0.002 -0.0215,0 -0.004,-0.004 -0.0101,-0.0109 -0.0201,-0.0138 -0.006,-0.002 -0.0123,-0.002 -0.018,-0.002 l -7.1e-4,-0.026 c -0.0596,0 -0.11209,0.0316 -0.16325,0.0618 -0.023,0.0129 -0.0446,0.0252 -0.0668,0.0351 -0.0366,0.0173 -0.074,0.023 -0.11282,0.0282 l -0.0173,0.003 c -0.0109,0.002 -0.0215,0.004 -0.0324,0.006 -0.0337,0.006 -0.069,0.0129 -0.10215,0.008 -0.0747,-0.0109 -0.12277,-0.0282 -0.20265,-0.0561 l -0.0891,-0.0309 c -0.0475,-0.0166 -0.0957,-0.0331 -0.14246,-0.051 -0.0237,-0.009 -0.051,-0.0203 -0.0819,-0.0282 -0.0123,-0.004 -0.0237,-0.003 -0.0331,-0.002 -0.006,0 -0.0109,0 -0.0166,0 -0.006,0 -0.0107,-0.004 -0.0171,-0.007 -0.007,-0.003 -0.0158,-0.007 -0.0267,-0.008 -0.0316,-0.007 -0.0653,-0.004 -0.0992,-0.002 -0.0252,0.002 -0.049,0.002 -0.074,0.002 -0.0274,-0.002 -0.0554,-0.003 -0.0821,0.004 -0.0173,0.004 -0.0352,0.007 -0.0525,0.0101 -0.0272,0.004 -0.0547,0.009 -0.0804,0.0186 -0.0138,0.004 -0.0274,0.0116 -0.0403,0.018 -0.0144,0.007 -0.0274,0.0136 -0.0403,0.0173 -0.005,0.002 -0.0107,0.002 -0.0173,0.002 -0.009,0 -0.0186,0 -0.0295,0.004 -0.0151,0.004 -0.0302,0.0114 -0.0445,0.0186 -0.008,0.004 -0.0158,0.008 -0.023,0.0116 -0.0121,0.004 -0.026,0.0114 -0.0403,0.0193 -0.0245,0.0138 -0.0517,0.0282 -0.0725,0.0309 -0.004,0 -0.008,0 -0.0116,0 l -7.1e-4,0.0598 c 0.005,0 0.0101,0 0.0151,0 0.10583,-0.003 0.24314,-0.002 0.38192,0.0309 0.0431,0.01 0.0869,0.028 0.13068,0.046 0.0195,0.008 0.0396,0.0164 0.0583,0.0236 0.009,0.003 0.0158,0.007 0.023,0.0101 0.0136,0.007 0.0272,0.0144 0.0468,0.018 0.0258,0.005 0.0525,0.0101 0.074,0.023 0.006,0.004 0.0116,0.006 0.0166,0.01 0.0109,0.007 0.0215,0.0145 0.0359,0.0203 0.0151,0.006 0.0295,0.009 0.0433,0.0114 0.009,0.002 0.0171,0.003 0.0258,0.006 0.021,0.006 0.041,0.0129 0.0619,0.0193 0.0339,0.0116 0.069,0.023 0.10565,0.0317 0.067,0.0144 0.12442,0.0215 0.17558,0.0215 0.0374,0 0.0703,-0.004 0.1005,-0.0121 0.0267,-0.006 0.0512,-0.0166 0.0756,-0.026 0.0179,-0.006 0.0359,-0.0144 0.0547,-0.0201 l 0.0144,-0.004 c 0.0265,-0.008 0.056,-0.0166 0.0797,-0.0329 0.0331,-0.023 0.0611,-0.0526 0.0878,-0.0806 0.0178,-0.0193 0.0359,-0.0381 0.056,-0.0554 l 0.009,-0.008 c 0.0374,-0.0329 0.0676,-0.0589 0.11154,-0.0718 0.003,0 0.006,0 0.0114,0 0.006,0 0.0151,0 0.0237,-0.002 0.009,-0.003 0.0158,-0.006 0.0215,-0.0101 0.004,-0.002 0.006,-0.004 0.0109,-0.004 0.003,0 0.0114,0.003 0.0166,0.004 0.0166,0.007 0.0337,0.0123 0.0488,0 0.008,-0.006 0.0131,-0.0166 0.0145,-0.028 l 0.003,-0.0302 -0.0252,-0.003 z"
       style="fill:#21201d;fill-opacity:1;fill-rule:nonzero;stroke:none;stroke-width:0.184057"
       id="path706" />
    <path
       d="m 110.74466,147.22633 c 0.069,-0.002 0.12792,-0.064 0.19197,-0.0985 0.0388,-0.0217 0.0777,-0.026 0.11798,-0.0339 0.0388,-0.006 0.0804,-0.0201 0.12148,-0.0136 0.074,0.0129 0.11853,0.0337 0.20338,0.0698 0.0591,0.0245 0.11872,0.0475 0.17688,0.0747 0.023,0.0101 0.0445,0.0193 0.0683,0.0272 0.0138,0.004 0.0267,0 0.041,0.002 0.0136,0.002 0.0245,0.0129 0.0381,0.0166 0.0388,0.008 0.0834,0 0.12295,0 0.0287,0 0.0626,0.005 0.0913,-0.004 0.0359,-0.0116 0.0769,-0.0153 0.11283,-0.0296 0.0237,-0.009 0.0468,-0.0287 0.0705,-0.0366 0.0136,-0.004 0.0267,0 0.041,-0.006 0.0173,-0.006 0.0381,-0.0208 0.0561,-0.0295 0.0329,-0.0173 0.0797,-0.0576 0.1143,-0.0554 -0.11724,0.005 -0.23228,0 -0.34658,-0.0317 -0.0561,-0.0151 -0.11209,-0.0482 -0.16602,-0.0725 -0.021,-0.0101 -0.0346,-0.0225 -0.0569,-0.0274 -0.0237,-0.006 -0.0497,-0.0114 -0.0712,-0.0272 -0.0158,-0.0109 -0.0265,-0.0217 -0.0423,-0.0295 -0.0188,-0.009 -0.0381,-0.0109 -0.0576,-0.0173 -0.0488,-0.0166 -0.0948,-0.0381 -0.14449,-0.0517 -0.072,-0.0188 -0.1581,-0.0324 -0.23007,-0.0109 -0.0381,0.0121 -0.0733,0.0331 -0.11135,0.0475 -0.0237,0.009 -0.0547,0.0179 -0.0756,0.0359 -0.046,0.0381 -0.0804,0.0935 -0.12276,0.13805 -0.0376,0.0388 -0.067,0.072 -0.11227,0.0878 -0.0107,0.004 -0.0215,0 -0.0316,0.002 -0.0114,0.004 -0.0158,0.0131 -0.0295,0.0158 -0.0151,0.003 -0.0489,-0.0258 -0.0502,-0.004 0.0129,0.002 0.023,0.0129 0.0344,0.0179 0.006,0.002 0.0129,-0.002 0.0202,0 0.006,0.002 0.008,0.0116 0.0151,0.0138 0.0129,0.005 0.0287,-0.003 0.0416,0 0.0136,0.002 0.0274,0.0201 -0.0309,0.0295"
       style="fill:#21201d;fill-opacity:1;fill-rule:nonzero;stroke:none;stroke-width:0.184057"
       id="path708" />
  </g>
</svg>
