<?xml version="1.0" encoding="UTF-8" standalone="no"?>
<!-- Created with Inkscape (http://www.inkscape.org/) -->

<svg
   width="7.2094264mm"
   height="7.7920732mm"
   viewBox="0 0 7.2094264 7.7920732"
   version="1.1"
   id="svg3275"
   inkscape:version="1.1.2 (0a00cf5339, 2022-02-04)"
   sodipodi:docname="e7.svg"
   xmlns:inkscape="http://www.inkscape.org/namespaces/inkscape"
   xmlns:sodipodi="http://sodipodi.sourceforge.net/DTD/sodipodi-0.dtd"
   xmlns="http://www.w3.org/2000/svg"
   xmlns:svg="http://www.w3.org/2000/svg">
  <sodipodi:namedview
     id="namedview3277"
     pagecolor="#ffffff"
     bordercolor="#666666"
     borderopacity="1.0"
     inkscape:pageshadow="2"
     inkscape:pageopacity="0.0"
     inkscape:pagecheckerboard="0"
     inkscape:document-units="mm"
     showgrid="false"
     inkscape:zoom="0.64052329"
     inkscape:cx="396.55076"
     inkscape:cy="734.55565"
     inkscape:window-width="2560"
     inkscape:window-height="1376"
     inkscape:window-x="0"
     inkscape:window-y="0"
     inkscape:window-maximized="1"
     inkscape:current-layer="layer1" />
  <defs
     id="defs3272">
    <clipPath
       clipPathUnits="userSpaceOnUse"
       id="clipPath248">
      <path
         d="m 278,65 h 6 v 13.434 h -6 z"
         id="path246" />
    </clipPath>
  </defs>
  <g
     inkscape:label="Layer 1"
     inkscape:groupmode="layer"
     id="layer1"
     transform="translate(-0.11295061,46.02959)">
    <path
       d="m 4.6775949,-43.429975 c -0.018591,0.04601 -0.025964,0.07914 -0.059634,0.117981 -0.01584,0.01859 -0.023742,0.03663 -0.025224,0.05246 -0.05025,0.06037 -0.1021503,0.129392 -0.1459583,0.117061 -0.023742,-0.0064 -0.056688,-0.03221 -0.081167,-0.0381 -0.046016,-0.01068 -0.072704,0 -0.115771,-0.0243 -0.042517,-0.02448 -0.073992,-0.02963 -0.1236875,-0.01804 -0.030198,0.0079 -0.061842,0.02724 -0.101413,0.01859 -0.061845,-0.01436 -0.1207417,-0.03589 -0.1754081,-0.07326 -0.081905,-0.05687 -0.065338,-0.118717 -0.069755,-0.21001 -0.00141,-0.03589 -0.028716,-0.06957 -0.023001,-0.101231 0.0079,-0.03681 0.045279,-0.04473 0.048958,-0.08559 0.01143,-0.0029 0.023001,-0.0057 0.034431,-0.0094 0.00515,-0.05466 0.05043,-0.06184 0.083376,-0.09129 0.015099,-0.01288 0.031644,-0.02945 0.043991,-0.04454 0.00282,-0.01159 0.00571,-0.02374 0.00938,-0.03534 0.010689,-0.0035 0.021519,-0.0072 0.032949,-0.0092 0.018768,-0.01804 0.027411,-0.04325 0.047487,-0.05835 0.018027,-0.01509 0.038837,-0.01509 0.0589,-0.03313 0.036075,-0.03221 0.056871,-0.07896 0.1130088,-0.06387 0.029457,0.0087 0.040862,0.03166 0.063133,0.04749 0.02226,0.01583 0.043251,0.01141 0.065521,0.02153 0.025753,0.01215 0.031644,0.01933 0.062579,0.02374 0.014358,-7.41e-4 0.029457,-0.0015 0.043808,-0.0015 0.012136,0.0015 0.020073,0.0079 0.025964,0.01859 0.052454,0.0138 0.073254,0.02172 0.1063837,0.07197 0.025047,0.03736 0.048041,0.0762 0.070496,0.112828 0.048775,0.07841 0.043804,0.212955 0.010689,0.294861 m -0.7807677,0.815928 c -0.0079,0.01233 -0.023001,0.01086 -0.035338,0.0138 -0.01143,0.0028 -0.019332,0.0072 -0.029457,0.01436 -0.01711,0.01215 -0.036625,0.01509 -0.056688,0.0086 -0.010125,-0.0037 -0.018768,-0.0037 -0.028716,-0.0052 -0.013053,-0.002 -0.023742,-0.0085 -0.034607,-0.01583 -0.013617,-0.0079 -0.010125,-0.02356 -0.018027,-0.0381 -0.00141,-0.002 -0.00423,-0.0057 -0.00571,-0.0079 -7.056e-4,-0.0028 -0.00141,-0.0085 -0.00212,-0.01067 -0.00282,-0.0057 -0.00716,-0.0094 -0.010689,-0.01509 -0.015099,-0.02871 -0.015099,-0.05835 -0.025224,-0.08853 -0.0079,-0.02374 -0.024483,-0.0473 -0.051721,-0.02945 -0.018768,0.0116 0.00572,0.08191 7.055e-4,0.10565 -0.00646,0.0289 -0.021519,0.04473 -0.049696,0.04896 -0.012876,0.0022 -0.026494,0.0079 -0.037363,0.01583 -0.00571,0.0042 -0.010865,0.01012 -0.017321,0.01288 -0.0079,0.0029 -0.01584,0 -0.02226,0.0022 -0.00423,0.0015 -0.00571,0.0022 -0.00938,0.005 -0.00571,0.0066 -0.00646,0.0116 -0.01584,0.01509 -0.016369,0.0044 -0.03369,0 -0.05025,0 -0.011395,0 -0.027975,0.0037 -0.038834,0 -0.014358,-0.0042 -0.018591,-0.0208 -0.018027,-0.03368 7.055e-4,-0.01086 0.00663,-0.01583 0.00938,-0.02595 0.00141,-0.0028 0.00441,-0.01068 0.00441,-0.01362 0.00212,-0.0072 7.055e-4,-0.01436 0.00212,-0.02153 0.00141,-0.0087 0.00716,-0.01804 0.00938,-0.02595 0.00441,-0.01141 0.00716,-0.02301 0.013617,-0.03368 0.00589,-0.0116 0.012347,-0.02375 0.017321,-0.03681 0.00497,-0.01509 0.00571,-0.03092 0.010866,-0.04675 0.00423,-0.01288 0.01143,-0.02301 0.01584,-0.03663 0.00353,-0.01288 0.010689,-0.02871 0.014358,-0.04086 0.00141,-0.0066 0,-0.0116 7.055e-4,-0.0173 7.056e-4,-0.0057 0.00423,-0.0079 0.00646,-0.01233 0.00646,-0.01362 0.00864,-0.02153 0.018027,-0.03148 0.00847,-0.0079 0.01143,-0.02025 0.01785,-0.03037 0.00367,-0.0042 0.0079,-0.0092 0.010866,-0.01509 0.00353,-0.0072 0.00282,-0.01288 0.00353,-0.02227 7.055e-4,-0.0064 0.00367,-0.01141 0.00515,-0.01785 7.056e-4,-0.0059 -7.055e-4,-0.01159 0,-0.0173 0.00141,-0.01436 0.00646,-0.02945 0.010689,-0.04178 0.00367,-0.01362 0.00938,-0.02503 0.01584,-0.03663 0.00515,-0.0087 0.00938,-0.01657 0.013617,-0.02522 0.00515,-0.01068 -7.055e-4,-0.0092 0.011606,-0.01068 0.00571,-7.41e-4 0.012136,0 0.018591,0 0.012347,0 0.025224,0 0.038834,0 0.013053,0 0.02099,0.005 0.033126,0.005 0.00571,7.41e-4 0.012347,-7.4e-4 0.018027,0 0.00995,0.0015 0.00864,0.0015 0.012876,0.01086 0.00497,0.01141 0.00571,0.0208 0.0079,0.03295 0.00212,0.0086 0.0079,0.02025 0.012136,0.02963 0.017286,0.03442 0.026705,0.07252 0.047487,0.104913 0.028716,0.04822 0.045279,0.101416 0.06755,0.1524 0.00441,0.0094 0.00589,0.0208 0.011606,0.03019 0.00282,0.0044 0.0079,0.0064 0.010866,0.01086 0.00353,0.005 0.00353,0.0099 0.00646,0.01436 0.00864,0.0173 0.014358,0.03368 0.020073,0.05172 0.00938,0.02669 0.027411,0.05319 0.0381,0.07914 0.00367,0.0072 0.00646,0.03166 0.00141,0.04013 m -0.6026009,-0.593034 c -0.035172,0.01933 -0.072517,0.0079 -0.103438,0.01012 -0.050246,0.002 -0.079146,0.01509 -0.1135626,0.05025 -0.033867,0.03515 -0.063317,0.0324 -0.103625,0.0554 -0.023001,0.01215 -0.04675,0.04602 -0.067546,0.0589 -0.038837,0.02448 -0.1078583,-0.02871 -0.1731963,-0.07252 -0.00589,-0.01528 -0.018768,-0.03037 -0.039575,-0.04399 -0.043251,-0.02724 -0.059634,-0.05743 -0.090554,-0.097 -0.054663,-0.06902 -0.097917,-0.196942 -0.072701,-0.285475 0.011606,-0.0416 0.02152,-0.08485 0.035338,-0.12792 0.01711,-0.05687 0.036625,-0.07049 0.082642,-0.09847 0.00141,-0.0116 0.0079,-0.02025 0.018591,-0.02448 0.014358,-0.0044 0.028892,-0.0072 0.043254,-0.01086 0.027975,-0.01215 0.031644,-0.02153 0.053929,-0.04012 0.017851,-0.01583 0.039388,-0.0173 0.055217,-0.03828 0.017286,-0.02153 0.022437,-0.0473 0.048221,-0.0624 0.049696,-0.03092 0.082642,0.0087 0.1258958,0.03018 0.024483,0.01141 0.045275,0.0057 0.066075,0.01436 0.023742,0.01012 0.039571,0.03092 0.061842,0.04307 0.011606,0 0.023001,0 0.035172,0 0.00663,0.01086 0.013053,0.02153 0.018768,0.03166 0.01584,0.0116 0.036629,0.02301 0.054666,0.03092 0.040308,0.01933 0.086321,0.01362 0.1063836,0.06479 0.011606,0 0.023742,0 0.035137,-7.41e-4 0.015099,0.03957 0.053929,0.03589 0.071229,0.06902 0.014358,0.02871 -0.00212,0.06902 0.00646,0.104177 0.021731,0.08853 0.0554,0.143013 -0.0072,0.219949 -0.041596,0.05117 -0.092026,0.08853 -0.1474293,0.119454 m 2.0829657,-1.727016 c -0.00646,-0.02153 -0.011606,-0.02945 -0.010866,-0.05319 0,-0.01804 0.00282,-0.03736 -0.00282,-0.05393 -0.00515,-0.01435 -0.01658,-0.02724 -0.023742,-0.04031 -0.0079,-0.01215 -0.0079,-0.02798 -0.018768,-0.03884 -0.00938,-0.0099 -0.027975,-0.01362 -0.040308,-0.0208 -0.0381,-0.02374 -0.070309,-0.05743 -0.1056499,-0.08411 -0.057425,-0.04233 -0.1142964,-0.08043 -0.1645461,-0.131601 -0.1093293,-0.110619 -0.2387177,-0.193445 -0.3710552,-0.273878 -0.092029,-0.05687 -0.1818463,-0.115037 -0.2731382,-0.17191 -0.098471,-0.06111 -0.2020958,-0.08191 -0.3114251,-0.108595 -0.045279,-0.01141 -0.088346,-0.01436 -0.1328879,-0.01436 -0.00663,-0.0072 -0.013794,-0.01288 -0.020249,-0.01933 -0.027975,-0.0079 -0.030903,0.0064 -0.055954,0.01436 -0.041046,0.01215 -0.085584,0.0079 -0.1201879,-0.01013 -0.038837,-0.0208 -0.073254,-0.04012 -0.110617,-0.06258 -0.02226,-0.01362 -0.048225,-0.03515 -0.073438,-0.02227 -0.011395,0.0052 -0.01584,0.02595 -0.026494,0.03313 -0.042517,0.02669 -0.1058334,0.02522 -0.1538711,0.02522 -0.070496,-7.41e-4 -0.1281042,0.0028 -0.1899461,0.04086 -0.054483,0.03313 -0.1106206,0.06626 -0.1731998,0.07914 -0.032385,0.0064 -0.064601,0.01288 -0.095525,0.01951 -0.025964,0.0057 -0.05043,-7.4e-4 -0.075646,0.0064 -0.062396,0.01785 -0.1091459,0.0935 -0.1523965,0.139516 -0.028716,0.03074 -0.043808,0.0473 -0.060371,0.08982 -0.019332,0.04951 -0.025224,0.097 -0.075463,0.122951 -0.039575,0.02006 -0.084116,0.0173 -0.1236874,0.03736 -0.048221,0.02522 -0.080433,0.06534 -0.1128254,0.107858 -0.035338,0.04675 -0.06755,0.09276 -0.099942,0.140804 -0.032385,0.04822 -0.081354,0.08135 -0.1120916,0.131602 -0.012347,0.02098 -0.019509,0.04325 -0.030374,0.06405 -0.020779,0.03957 -0.012876,0.08779 -0.012876,0.13381 -7.056e-4,0.05743 -0.019332,0.112091 -0.027235,0.167493 -0.0072,0.04804 0,0.104176 0,0.153872 0,0.05595 -0.013088,0.104177 -0.013088,0.161787 0,0.04951 -0.0079,0.107121 -7.056e-4,0.155897 0.00663,0.04601 0.036075,0.08559 0.047484,0.130865 0.0072,0.02669 0.00441,0.0497 0.00589,0.07841 0.00282,0.02595 0.01143,0.04951 0.014358,0.07546 0.00282,0.02871 0.013617,0.05043 0.012876,0.07988 0,0.02724 0,0.05393 0,0.08117 0,0.0208 0.00497,0.04602 7.056e-4,0.06608 -0.00367,0.02245 -0.012876,0.03681 -0.013617,0.06056 -0.00367,0.08761 -0.012312,0.18461 0.030198,0.260258 0.02226,0.03884 0.038837,0.08485 0.066813,0.117797 0.010125,0.0116 0.023742,0.02153 0.033126,0.03387 0.012136,0.01288 0.016581,0.02577 0.026494,0.04031 0.023001,0.03092 0.059083,0.04086 0.090004,0.06313 0.028716,0.02025 0.065338,0.02816 0.092029,0.0497 0.015099,0.01288 0.032209,0.04104 0.046563,0.05743 0.013053,0.01454 0.027411,0.03019 0.00367,0.04105 -0.014358,0.0064 -0.050983,-7.41e-4 -0.06755,-7.41e-4 -0.02226,-7.41e-4 -0.030903,0.0072 -0.048221,0.01233 -0.080433,0.01933 -0.064788,0.1143 -0.053929,0.17964 0.00423,0.03018 0.015099,0.05835 0.025224,0.08706 0.00938,0.02577 0.015099,0.05393 0.025753,0.07896 0.043254,0.09921 0.1380419,0.102888 0.2315421,0.102888 0.050433,-7.41e-4 0.069021,-0.01436 0.076937,0.04031 0.00646,0.04233 0.2567587,0.07767 0.2508673,0.111355 -0.00646,0.03736 -0.015628,0.06184 -0.015099,0.103624 0,0.01712 0.00367,0.04086 0,0.05669 -0.00282,0.01951 -0.013617,0.02963 -0.016369,0.04675 -0.0079,0.0554 -0.00589,0.137307 7.056e-4,0.192709 0.00646,0.0589 0.048775,0.08982 0.092579,0.120742 0.043991,0.03166 0.1058334,0 0.110804,-0.06681 0.010125,7.41e-4 0.050983,0.04031 0.058896,0.04896 0.018027,0.02153 -0.079696,0.05669 -0.057425,0.0762 0.034431,0.02945 0.1135627,0.01141 0.1581044,0.01141 0.025224,0 0.051721,-0.0035 0.076934,0.0037 0.028716,0.0094 0.048962,0.02945 0.073992,-0.0029 0.01584,-0.01859 0.1071209,0.04325 0.1157711,0.0173 0.084113,0.01215 0.2344878,-0.08412 0.2401958,-0.06829 0.012136,0.03092 0.018768,0.0057 0.035137,0.0022 0.047484,-0.01013 0.0554,0.03865 0.1050961,0.03147 0.040859,-0.0064 0.073254,-0.02797 0.1106169,-0.04877 0.019509,-0.01013 0.028892,-0.02448 0.046013,-0.03534 0.01584,-0.0099 0.039575,-0.0035 0.058346,-0.0035 0.050983,7.41e-4 0.095525,-7.41e-4 0.1350962,-0.03884 0.030939,-0.03166 -0.1452174,-0.04896 -0.1027006,-0.04749 0.0381,7.41e-4 0.1106169,0.01878 0.1242377,-0.03442 0.010866,-0.04325 -7.056e-4,-0.112275 -7.056e-4,-0.157553 0,-0.02945 0.00441,-0.06608 -0.00141,-0.09424 -0.00515,-0.0243 -0.014534,-0.03148 -0.014534,-0.0624 7.055e-4,-0.04601 0.4207545,-0.110803 0.435109,-0.162523 0.012136,-0.04601 0.063133,-0.05393 0.099942,-0.05908 0.05025,-0.0077 0.091292,-0.01932 0.1380419,-0.0416 0.073992,-0.03534 0.1286545,-0.08779 0.1301292,-0.180561 0.00141,-0.07749 -0.0381,-0.154424 -0.1014166,-0.192524 -0.0935,-0.05761 -0.1833174,0.02006 -0.2753466,0.0416 -0.00497,0.0015 -0.011606,-0.02522 -0.017286,-0.05743 0.063313,-0.0022 0.1258923,-0.02227 0.1798214,-0.04675 0.038837,-0.01877 0.078959,-0.03534 0.1120916,-0.06552 0.030198,-0.02871 0.053192,-0.05964 0.08853,-0.08264 0.086138,-0.05687 0.1012296,-0.09276 0.1227667,-0.182586 0.017286,-0.07197 0.053929,-0.134546 0.076383,-0.203568 0.013617,-0.04307 0.030903,-0.08761 0.03369,-0.132154 0.00212,-0.04252 -7.056e-4,-0.08559 -7.056e-4,-0.12884 v -0.200439 c 0,-0.07767 0.018768,-0.145958 0.041779,-0.220133 0.010125,-0.03166 0.023742,-0.05964 0.025224,-0.09405 7.056e-4,-0.02098 -0.00212,-0.04104 0.00282,-0.06111 0.00497,-0.01804 0.016581,-0.03534 0.020814,-0.05264 0.010125,-0.03939 -0.00497,-0.08191 0.00212,-0.121478 0.00212,-0.01141 0.00716,-0.02153 0.010866,-0.03166 0.00141,-0.005 0.00282,-0.0099 0.00353,-0.01509 0.00212,-0.0086 -7.055e-4,-0.01657 7.056e-4,-0.02503 0.00212,-0.0079 0.010125,-0.0079 0.011606,-0.01583 0.010689,-0.05982 0.00141,-0.131602 0.00141,-0.192709 0,-0.03092 0.00441,-0.06479 -0.00282,-0.09424"
       style="fill:#21201d;fill-opacity:1;fill-rule:nonzero;stroke:none;stroke-width:0.184057"
       id="path576" />
    <g
       id="g584"
       transform="matrix(0.18405616,0,0,0.18405792,-48.099773,-52.6106)">
      <g
         clip-path="url(#clipPath248)"
         id="g582">
        <path
           d="m 283.027,72.523 c -0.066,-0.195 -0.136,-0.386 -0.195,-0.589 -0.023,-0.09 -0.07,-0.18 -0.09,-0.266 -0.012,-0.055 -0.008,-0.098 -0.023,-0.148 -0.016,-0.059 -0.039,-0.114 -0.051,-0.18 -0.043,-0.242 -0.125,-0.461 -0.172,-0.707 -0.027,-0.156 -0.039,-0.313 -0.078,-0.465 -0.027,-0.109 -0.066,-0.195 -0.098,-0.297 -0.031,-0.098 -0.047,-0.207 -0.078,-0.301 -0.054,-0.156 -0.129,-0.3 -0.191,-0.445 -0.078,-0.176 -0.129,-0.371 -0.227,-0.527 -0.097,-0.16 -0.152,-0.352 -0.238,-0.524 -0.059,-0.109 -0.098,-0.234 -0.141,-0.355 -0.101,-0.25 -0.168,-0.516 -0.246,-0.785 -0.082,-0.274 -0.16,-0.516 -0.281,-0.754 -0.082,-0.157 -0.184,-0.297 -0.266,-0.453 -0.039,-0.086 -0.078,-0.18 -0.117,-0.262 -0.015,-0.027 -0.023,-0.055 -0.047,-0.067 -0.023,0.098 0,0.196 -0.023,0.293 -0.008,0.028 -0.012,0.051 -0.016,0.079 -0.023,0.109 -0.035,0.234 -0.07,0.335 -0.055,0.149 -0.078,0.317 -0.129,0.469 -0.02,0.051 -0.031,0.074 -0.039,0.129 -0.02,0.102 -0.055,0.168 -0.082,0.262 -0.043,0.125 -0.074,0.269 -0.106,0.402 -0.039,0.153 -0.093,0.278 -0.14,0.422 -0.047,0.145 -0.082,0.301 -0.125,0.449 -0.028,0.102 -0.082,0.18 -0.11,0.285 -0.035,0.114 -0.058,0.239 -0.097,0.348 -0.059,0.164 -0.125,0.32 -0.18,0.492 -0.031,0.098 -0.066,0.192 -0.101,0.285 -0.032,0.086 -0.032,0.18 -0.063,0.266 -0.055,0.18 -0.164,0.336 -0.246,0.492 -0.066,0.137 -0.16,0.239 -0.227,0.371 -0.07,0.129 -0.148,0.254 -0.214,0.387 -0.055,0.113 -0.133,0.242 -0.172,0.375 -0.016,0.059 -0.043,0.113 -0.055,0.176 -0.02,0.086 -0.023,0.168 -0.055,0.254 -0.058,0.156 -0.05,0.316 -0.082,0.484 -0.043,0.274 -0.07,0.547 -0.101,0.82 -0.012,0.114 -0.028,0.231 -0.043,0.336 -0.02,0.094 -0.004,0.215 -0.004,0.317 0,0.133 0.012,0.246 0.019,0.375 0.012,0.137 0.032,0.25 0.047,0.387 0.016,0.128 0.039,0.265 0.051,0.398 0.008,0.094 0.012,0.18 0.031,0.269 0.016,0.067 0.047,0.145 0.063,0.204 0.039,0.121 0.058,0.242 0.105,0.363 0.043,0.117 0.063,0.258 0.102,0.375 0.019,0.047 0.031,0.109 0.051,0.152 0.023,0.055 0.054,0.094 0.078,0.153 0.035,0.078 0.062,0.148 0.101,0.218 0.028,0.055 0.063,0.086 0.094,0.133 0.031,0.051 0.051,0.098 0.086,0.137 0.043,0.043 0.086,0.086 0.125,0.133 0.086,0.093 0.168,0.164 0.258,0.234 0.027,0.02 0.051,0.027 0.074,0.039 0.062,0.027 0.086,0.09 0.137,0.137 0.129,0.144 0.32,0.246 0.476,0.305 0.114,0.039 0.227,0.054 0.336,0.089 0.113,0.035 0.211,0.063 0.328,0.063 0.137,0 0.266,0 0.403,-0.031 0.101,-0.024 0.195,-0.079 0.297,-0.11 0.101,-0.027 0.171,-0.109 0.253,-0.211 0.039,-0.043 0.071,-0.086 0.11,-0.133 0.047,-0.066 0.121,-0.105 0.176,-0.164 0.07,-0.066 0.14,-0.14 0.207,-0.218 0.121,-0.137 0.242,-0.285 0.355,-0.442 0.219,-0.297 0.531,-0.707 0.691,-1.086 0.247,-0.586 0.219,-1.843 0.102,-2.535 -0.039,-0.211 -0.07,-0.441 -0.137,-0.637"
           style="fill:#21201d;fill-opacity:1;fill-rule:nonzero;stroke:none"
           id="path580" />
      </g>
    </g>
    <path
       d="m 5.1622128,-40.746042 c -0.011606,-0.02798 -0.024483,-0.05614 -0.034607,-0.08485 -0.00353,-0.01288 -0.012136,-0.02595 -0.01584,-0.0381 -0.00212,-0.0072 -0.00141,-0.01362 -0.00353,-0.0208 -0.00367,-0.0094 -0.00646,-0.01657 -0.00938,-0.02595 -0.0079,-0.03515 -0.02226,-0.06608 -0.030198,-0.101416 -0.00497,-0.02227 -0.00646,-0.04454 -0.012876,-0.06681 -0.00515,-0.01509 -0.012347,-0.02798 -0.018027,-0.04233 -0.00497,-0.0138 -0.0079,-0.02963 -0.013617,-0.04325 -0.00938,-0.02227 -0.02226,-0.04233 -0.033867,-0.06405 -0.013617,-0.0243 -0.023001,-0.05246 -0.039571,-0.07473 -0.017851,-0.02301 -0.026494,-0.05025 -0.042333,-0.07546 -0.010125,-0.01583 -0.016581,-0.03313 -0.024483,-0.05025 -0.017286,-0.03607 -0.029457,-0.07417 -0.043067,-0.113011 -0.014358,-0.03884 -0.028716,-0.07325 -0.049696,-0.107122 -0.014358,-0.02301 -0.032209,-0.04307 -0.046016,-0.06534 -0.0079,-0.01233 -0.014358,-0.02522 -0.021519,-0.03663 -0.00212,-0.0052 -0.00423,-0.0087 -0.0079,-0.01013 -0.00353,0.01362 0,0.02798 -0.00423,0.04178 -7.055e-4,0.0035 -0.00141,0.0072 -0.00282,0.01068 -0.00353,0.01657 -0.00572,0.03387 -0.012136,0.04822 -0.00864,0.02153 -0.013794,0.04601 -0.023001,0.06681 -0.00282,0.0079 -0.00515,0.01086 -0.00646,0.01951 -0.00282,0.01436 -0.00864,0.02356 -0.014534,0.03663 -0.0072,0.01785 -0.012876,0.03884 -0.018591,0.05743 -0.00646,0.02227 -0.01584,0.04031 -0.024483,0.06111 -0.0079,0.02025 -0.014358,0.04325 -0.02226,0.06405 -0.00497,0.01436 -0.013617,0.02595 -0.019509,0.04105 -0.00572,0.01657 -0.00995,0.03368 -0.016369,0.04951 -0.010866,0.02374 -0.02226,0.04601 -0.030939,0.07049 -0.00589,0.01436 -0.013053,0.02724 -0.018768,0.04105 -0.00497,0.01215 -0.00572,0.02577 -0.010125,0.0381 -0.00995,0.02577 -0.030198,0.04804 -0.043804,0.07031 -0.012136,0.01951 -0.027975,0.03387 -0.040308,0.05338 -0.012136,0.01785 -0.025753,0.03589 -0.0381,0.05522 -0.00921,0.01657 -0.023001,0.0346 -0.029457,0.05319 -0.00282,0.0087 -0.00716,0.01657 -0.00938,0.02522 -0.00423,0.01233 -0.00423,0.02522 -0.00995,0.03663 -0.010125,0.02227 -0.00864,0.04528 -0.014358,0.06976 -0.0079,0.03884 -0.012347,0.07767 -0.018027,0.117245 -0.00212,0.01583 -0.00441,0.0324 -0.0072,0.04749 -0.00367,0.01436 -0.00141,0.03166 -0.00141,0.04601 0,0.01859 0.00212,0.03442 0.00367,0.05319 0.00212,0.01933 0.00572,0.03589 0.00847,0.0554 0.00212,0.01859 0.00737,0.0381 0.00864,0.05669 0.00212,0.01362 0.00212,0.02595 0.00589,0.03884 0.00282,0.0094 0.0079,0.02025 0.010689,0.02945 0.00646,0.0173 0.010866,0.0346 0.018768,0.0519 0.0079,0.01638 0.010689,0.03589 0.018591,0.05393 0.00212,0.0072 0.00515,0.01509 0.0079,0.02153 0.00441,0.0079 0.010125,0.01362 0.014358,0.02153 0.00589,0.01141 0.010125,0.02153 0.017286,0.03166 0.00497,0.0079 0.010866,0.01215 0.017286,0.01933 0.00571,0.0072 0.0079,0.01362 0.014358,0.01951 0.0072,0.0057 0.015099,0.01215 0.02226,0.01859 0.015099,0.0138 0.029457,0.02301 0.045279,0.03387 0.00515,0.0028 0.00864,0.0035 0.012876,0.005 0.010866,0.0044 0.015275,0.01307 0.023742,0.02025 0.023001,0.02006 0.056875,0.03515 0.084113,0.04307 0.019509,0.0057 0.038837,0.0072 0.059083,0.01288 0.019332,0.0052 0.037363,0.0094 0.057425,0.0094 0.023742,0 0.04675,0 0.070496,-0.005 0.018027,-0.0029 0.034608,-0.01086 0.051717,-0.01509 0.018768,-0.0044 0.031644,-0.01583 0.046016,-0.03092 0.00646,-0.0059 0.012312,-0.0116 0.018768,-0.01877 0.0079,-0.0094 0.020814,-0.01509 0.030903,-0.02301 0.012136,-0.01013 0.024483,-0.02006 0.035892,-0.03166 0.02152,-0.01933 0.043254,-0.04086 0.063317,-0.06313 0.0381,-0.04178 0.0935,-0.100679 0.1214755,-0.155345 0.043071,-0.08338 0.0381,-0.263938 0.017286,-0.363146 -0.00646,-0.03019 -0.011606,-0.06332 -0.023742,-0.09056"
       style="fill:#21201d;fill-opacity:1;fill-rule:nonzero;stroke:none;stroke-width:0.184057"
       id="path586" />
    <path
       d="m 2.7880748,-40.864023 c -0.010689,-0.02871 -0.023001,-0.05669 -0.032209,-0.08688 -0.00441,-0.01307 -0.012347,-0.02595 -0.01584,-0.03884 -0.00141,-0.0079 -7.056e-4,-0.01435 -0.00282,-0.02153 -0.00353,-0.0094 -0.00646,-0.0173 -0.00864,-0.02669 -0.00716,-0.03589 -0.020814,-0.06829 -0.028716,-0.104177 -0.00423,-0.02301 -0.00646,-0.04546 -0.012876,-0.06829 -0.00441,-0.01583 -0.010865,-0.0289 -0.01658,-0.04325 -0.00441,-0.01509 -0.0072,-0.03092 -0.012347,-0.04454 -0.00921,-0.02301 -0.021519,-0.04454 -0.031468,-0.06608 -0.013794,-0.02522 -0.022437,-0.05393 -0.0381,-0.07694 -0.016581,-0.02374 -0.025224,-0.0519 -0.039571,-0.07693 -0.010125,-0.01583 -0.01584,-0.03387 -0.023742,-0.0519 -0.01658,-0.03736 -0.027411,-0.0762 -0.041046,-0.115772 -0.012876,-0.04086 -0.026494,-0.07546 -0.04675,-0.110619 -0.013617,-0.02301 -0.030198,-0.04307 -0.043067,-0.06681 -0.0072,-0.0116 -0.012876,-0.02595 -0.019509,-0.0381 -0.00353,-0.0044 -0.00423,-0.0079 -0.00847,-0.01012 -0.00367,0.01436 0,0.02945 -0.00367,0.04381 -7.055e-4,0.0029 -0.00212,0.0064 -0.00282,0.01086 -0.00353,0.01657 -0.00571,0.03442 -0.01143,0.04878 -0.00864,0.02227 -0.012876,0.04749 -0.021519,0.06902 -0.00282,0.0079 -0.00441,0.01086 -0.00646,0.01951 -0.00282,0.01509 -0.0079,0.02448 -0.013794,0.03884 -0.00646,0.01785 -0.012136,0.03957 -0.01711,0.0589 -0.00663,0.02227 -0.015099,0.04104 -0.023001,0.06184 -0.0079,0.0208 -0.013794,0.04381 -0.021731,0.06608 -0.00423,0.01454 -0.012876,0.02669 -0.017851,0.04178 -0.00589,0.01657 -0.00938,0.03442 -0.01584,0.05099 -0.010125,0.02448 -0.02099,0.04749 -0.029457,0.0727 -0.00515,0.01436 -0.011606,0.02724 -0.017286,0.0416 -0.00515,0.01307 -0.00571,0.02669 -0.00938,0.03957 -0.010125,0.02595 -0.027975,0.04896 -0.04178,0.07197 -0.011395,0.02006 -0.026494,0.03442 -0.0381,0.05467 -0.01143,0.01859 -0.023566,0.03736 -0.035172,0.05669 -0.00938,0.01657 -0.02226,0.03534 -0.028716,0.05467 -0.00282,0.0094 -0.00716,0.01657 -0.00864,0.02595 -0.00367,0.01288 -0.00423,0.02522 -0.00938,0.03736 -0.00938,0.02301 -0.00864,0.04675 -0.012876,0.07197 -0.0079,0.04013 -0.012312,0.0797 -0.017286,0.120742 -0.00212,0.01583 -0.00423,0.03313 -0.0072,0.04896 -0.00353,0.01436 -0.00141,0.03221 -0.00141,0.04657 0,0.01951 0.00212,0.03607 0.00367,0.0554 0.00212,0.01951 0.00497,0.03608 0.0079,0.05614 0.00212,0.01933 0.00646,0.03884 0.00864,0.05816 0.00141,0.0138 0.00212,0.02669 0.00571,0.04031 0.00212,0.0094 0.00646,0.0208 0.010125,0.02945 0.00572,0.01804 0.00921,0.03608 0.01711,0.05319 0.0072,0.0173 0.010125,0.0381 0.017286,0.0554 0.00212,0.0072 0.00497,0.01583 0.0079,0.02301 0.00367,0.0079 0.00938,0.01362 0.013617,0.02153 0.00515,0.0116 0.00938,0.02227 0.01584,0.0324 0.00497,0.0087 0.010866,0.01288 0.01584,0.02006 0.00571,0.0072 0.00864,0.0138 0.014358,0.02025 0.0072,0.0057 0.014358,0.01215 0.020814,0.01932 0.013794,0.01307 0.028152,0.02374 0.043251,0.03387 0.00423,0.0035 0.0079,0.0042 0.012136,0.0057 0.010125,0.0042 0.013794,0.01288 0.02226,0.0208 0.021731,0.02098 0.053192,0.03607 0.079879,0.04473 0.018027,0.0057 0.036629,0.0072 0.054667,0.01215 0.019332,0.0057 0.035137,0.01013 0.054663,0.01013 0.023001,0 0.044542,0 0.066813,-0.0052 0.01658,-0.0028 0.032385,-0.01141 0.048958,-0.01583 0.01711,-0.0042 0.029457,-0.01583 0.043071,-0.03092 0.00646,-0.0072 0.011606,-0.01288 0.017286,-0.02006 0.00864,-0.0087 0.020814,-0.01583 0.029457,-0.02301 0.012135,-0.01086 0.023742,-0.02153 0.034431,-0.0324 0.020249,-0.0208 0.040308,-0.04233 0.059083,-0.0646 0.036625,-0.04399 0.088346,-0.104361 0.1150338,-0.160314 0.040862,-0.08559 0.036629,-0.271117 0.01658,-0.372534 -0.00589,-0.03092 -0.010865,-0.06534 -0.022437,-0.0935"
       style="fill:#21201d;fill-opacity:1;fill-rule:nonzero;stroke:none;stroke-width:0.184057"
       id="path588" />
    <path
       d="m 1.274764,-42.228629 c -0.040308,-0.02153 -0.076937,-0.05172 -0.1194541,-0.07473 -0.043804,-0.02374 -0.081904,-0.06681 -0.1207382,-0.09994 -0.032385,-0.02798 -0.0660788,-0.05614 -0.0984708,-0.08411 -0.0445417,-0.03884 -0.0588998,-0.09994 -0.0992082,-0.141725 -0.0143581,-0.01509 -0.0309033,-0.02301 -0.0452755,-0.0381 -0.0274108,-0.02871 -0.0358916,-0.0624 -0.0546664,-0.09626 -0.0287161,-0.05172 -0.0588962,-0.09424 -0.0848501,-0.148167 -0.0309033,-0.0646 -0.0546629,-0.116508 -0.096259,-0.176143 -0.0432541,-0.06313 -0.0460163,-0.123687 -0.0633165,-0.194733 -0.0165806,-0.06553 -0.036075,-0.110067 -0.0353378,-0.179089 0.001411,-0.131601 -0.0200731,-0.281793 0.0195086,-0.407688 0.0193322,-0.06184 0.045279,-0.122951 0.0791457,-0.178905 0.0386503,-0.06479 0.0811671,-0.148166 0.13215056,-0.203568 0.0618419,-0.06534 0.14098763,-0.144485 0.22657505,-0.172462 0.0509834,-0.01583 0.10417529,-0.03755 0.15810439,-0.04031 0.033126,-0.0022 0.065522,0.0064 0.097734,-0.0029 -0.026494,-0.04381 -0.18829163,-0.01583 -0.23577905,-0.01583 -0.0452755,0 -0.094234,-0.0057 -0.13877572,-7.4e-4 -0.0423333,0.0052 -0.0430706,0.02522 -0.0784084,0.04601 -0.0264936,0.01583 -0.0465667,0.01013 -0.0660753,0.03313 -0.0143581,0.0173 -0.0172861,0.04233 -0.032385,0.06111 -0.0395711,0.04601 -0.10270419,0.0554 -0.14080419,0.102888 -0.032385,0.04086 -0.0704921,0.07767 -0.10215033,0.117797 -0.0108656,0.01307 -0.0301978,0.02945 -0.0381,0.0381 -0.0150989,-0.002 -0.023742,0.0052 -0.0259645,0.02227 -0.006456,0.02595 -0.0121355,0.05117 -0.0178505,0.0762 -0.009384,0.0346 -0.0222603,0.06773 -0.0403084,0.09718 -0.0346075,0.05614 -0.0474874,0.07767 -0.0603709,0.13878 -0.007161,0.03515 -0.0244828,0.06755 -0.0316442,0.103441 -0.009384,0.05043 -0.0143581,0.128656 -0.004233,0.179824 0.002822,0.01362 0.0136172,0.03589 0.0163689,0.04602 0.007902,0.04031 0.003669,0.08338 0.003669,0.124975 v 0.568739 c 0,0.0324 -0.00441,0.06829 0,0.09994 0.002117,0.01878 0.0136172,0.03092 0.0158397,0.04399 0.003528,0.01786 -7.0555e-4,0.03939 0.003528,0.05669 0.007902,0.03018 0.0425168,0.0554 0.056134,0.08338 0.0193322,0.03681 0.0237419,0.07841 0.0438079,0.115037 0.0215194,0.03736 0.0474839,0.07197 0.0855839,0.09497 0.0301978,0.01859 0.0489585,0.01436 0.0358916,0.06534 -0.0143581,0.05835 -0.0717832,0.107858 -0.0955252,0.163259 -0.0136172,0.03166 -0.0158397,0.06552 -0.0244828,0.09645 -0.0106892,0.03515 -0.0460128,0.0646 -0.0611082,0.09847 -0.0403049,0.08761 -0.094234,0.184794 -0.11503377,0.281056 -0.018027,0.08117 -0.004233,0.178352 -0.004233,0.262467 0,0.06387 -0.002117,0.129392 -7.0555e-4,0.194181 0.001411,0.04233 0.0185914,0.07823 0.0215194,0.120006 0.006456,0.09276 0.0423333,0.171174 0.0640503,0.259521 0.009208,0.04233 0.0358916,0.07914 0.0502461,0.11927 0.009384,0.02522 0.007902,0.0519 0.0187678,0.0762 0.0143581,0.03313 0.0208139,0.02963 0.045279,0.05264 0.0408587,0.03939 0.070492,0.09203 0.11208808,0.130866 0.0244828,0.02301 0.0474874,0.03736 0.0682872,0.06534 0.0309033,0.03957 0.0358881,0.0346 0.0747254,0.05964 0.0734377,0.04675 0.15110883,0.130129 0.24387527,0.135283 0.0789587,0.0042 0.20043776,0.01712 0.27810876,-0.0044 0.010866,-0.04086 -0.0381,-0.0324 -0.0589,-0.03589 -0.032385,-0.0064 -0.027975,-0.0116 -0.0539256,-0.02595 -0.0351719,-0.01933 -0.0747289,-0.02448 -0.11080397,-0.04878 -0.0502461,-0.03313 -0.079696,-0.08485 -0.11853333,-0.126632 -0.0222603,-0.02301 -0.0524545,-0.03442 -0.0761965,-0.05816 -0.02667,-0.02595 -0.0346075,-0.05117 -0.0539291,-0.08135 -0.02667,-0.04012 -0.0660753,-0.06829 -0.0806168,-0.118533 -0.008467,-0.02669 0.002117,-0.05319 -0.007902,-0.07988 -0.0106892,-0.01288 -0.0215194,-0.02577 -0.0322086,-0.03957 -0.003669,-0.01362 -0.005891,-0.0265 -0.008643,-0.03939 -0.0108656,-0.03313 -0.0366289,-0.04031 -0.0511669,-0.06479 -0.01143,-0.01877 -0.0193322,-0.05393 -0.0243064,-0.07546 -0.0123472,-0.05117 -0.0195086,-0.09571 -0.0195086,-0.149639 7.0556e-4,-0.120006 0,-0.219213 0.0546629,-0.32928 0.0611082,-0.121478 0.15534216,-0.216452 0.2444256,-0.317684 0.0287161,-0.03313 0.0474874,-0.067 0.079883,-0.09645 0.0244828,-0.02227 0.0539256,-0.04031 0.0761965,-0.06534 0.0438079,-0.04896 0.0883497,-0.09424 0.14301258,-0.134547 0.0588997,-0.04233 0.12865452,-0.07546 0.18552932,-0.118533 0.04675,-0.03607 0.066075,-0.04528 0.1271835,-0.04528 h -0.012876 c -0.056875,-0.0044 -0.036629,-0.02945 -0.018591,-0.05835 0.00921,-0.01215 0.021519,-0.0208 0.035172,-0.0265 0.018027,-0.04528 -0.01658,-0.02301 -0.037363,-0.0346"
       style="fill:#21201d;fill-opacity:1;fill-rule:nonzero;stroke:none;stroke-width:0.184057"
       id="path590" />
    <path
       d="m 7.112841,-42.413423 c 0.013617,-0.03166 0.015099,-0.06534 0.024306,-0.09626 0.010866,-0.03516 0.045279,-0.06479 0.060554,-0.09774 0.040859,-0.0878 0.094788,-0.185531 0.1155876,-0.281241 0.018027,-0.08117 0.00367,-0.178168 0.00367,-0.263018 0,-0.06479 0.00282,-0.129393 7.056e-4,-0.194182 -0.00141,-0.04252 -0.018027,-0.07841 -0.020814,-0.120005 -0.00663,-0.09276 -0.042517,-0.170438 -0.06405,-0.259706 -0.00938,-0.04233 -0.036625,-0.07822 -0.050983,-0.119269 -0.00864,-0.02448 -0.00737,-0.05172 -0.018027,-0.0762 -0.015099,-0.0324 -0.02152,-0.02945 -0.045279,-0.05319 -0.041779,-0.03884 -0.070492,-0.09129 -0.1122715,-0.130129 -0.024306,-0.02301 -0.047304,-0.03736 -0.069021,-0.06553 -0.030198,-0.04012 -0.035892,-0.03442 -0.074729,-0.05964 -0.073254,-0.04675 -0.1501881,-0.130128 -0.2429545,-0.134362 -0.079142,-0.0052 -0.201355,-0.01804 -0.2782923,0.0035 -0.010125,0.04104 0.037363,0.03239 0.0589,0.03663 0.032385,0.0059 0.028152,0.0116 0.053926,0.02522 0.035341,0.01951 0.074912,0.02448 0.1100667,0.04896 0.050433,0.03295 0.080617,0.08485 0.1194541,0.125712 0.021519,0.02374 0.051717,0.03534 0.075463,0.05908 0.026494,0.02577 0.034431,0.05098 0.053929,0.08117 0.027234,0.04031 0.066809,0.06829 0.081167,0.118717 0.0079,0.0265 -0.00212,0.05319 0.00716,0.0797 0.011606,0.01307 0.02226,0.02669 0.033126,0.03957 0.00282,0.01288 0.00571,0.02669 0.0079,0.04031 0.01143,0.03295 0.036629,0.04031 0.051721,0.06387 0.011606,0.01877 0.019509,0.05467 0.024483,0.07565 0.011395,0.05025 0.019332,0.09626 0.019332,0.149455 -7.056e-4,0.120006 0,0.219397 -0.055217,0.32928 -0.060554,0.121478 -0.1546048,0.215716 -0.244609,0.318604 -0.027975,0.03221 -0.047304,0.06681 -0.078959,0.09626 -0.025224,0.02153 -0.053929,0.03957 -0.0762,0.06479 -0.044725,0.04877 -0.088533,0.09405 -0.1439333,0.134362 -0.058162,0.04307 -0.1279172,0.0762 -0.1853424,0.119454 -0.046016,0.03515 -0.065525,0.04454 -0.1266331,0.04454 h 0.012876 c 0.056875,0.0042 0.036812,0.02945 0.018768,0.05816 -0.010125,0.01233 -0.02152,0.02153 -0.035892,0.02743 -0.017286,0.04454 0.01711,0.02227 0.0381,0.03368 0.040125,0.02153 0.076937,0.05246 0.1192706,0.07473 0.043251,0.02374 0.081351,0.067 0.1207382,0.09994 0.031644,0.02816 0.065525,0.05614 0.098654,0.08411 0.044542,0.03884 0.0589,0.10068 0.099208,0.141725 0.014358,0.01509 0.031468,0.02301 0.045276,0.0381 0.026494,0.02945 0.035892,0.06258 0.055217,0.09626 0.027411,0.0519 0.057612,0.09424 0.083562,0.148166 0.031468,0.06479 0.055217,0.116509 0.096262,0.176144 0.043804,0.06332 0.046013,0.123687 0.06405,0.194917 0.016581,0.06534 0.035137,0.109883 0.035137,0.178905 -0.00141,0.131601 0.020073,0.281976 -0.019332,0.407688 -0.019509,0.06184 -0.046013,0.12295 -0.079879,0.179088 -0.038837,0.06461 -0.080433,0.148719 -0.1316002,0.203384 -0.061842,0.06626 -0.1408042,0.14467 -0.2263881,0.17191 -0.05117,0.01657 -0.105096,0.0381 -0.1582914,0.04104 -0.03369,0.002 -0.066075,-0.0072 -0.097734,0.0035 0.02667,0.04325 0.1877377,0.01583 0.2357755,0.01583 0.044729,0 0.094238,0.005 0.1380454,0 0.043251,-0.005 0.043251,-0.02522 0.079142,-0.04602 0.025964,-0.01583 0.04675,-0.01012 0.066075,-0.03313 0.014534,-0.01712 0.01658,-0.04233 0.032385,-0.06111 0.038834,-0.04602 0.1028876,-0.05522 0.1402503,-0.102705 0.033126,-0.04031 0.070492,-0.07767 0.1028876,-0.117245 0.010689,-0.01362 0.030727,-0.02945 0.0381,-0.03884 0.015663,0.0022 0.023566,-0.0057 0.025047,-0.02227 0.0079,-0.02522 0.013617,-0.05098 0.018027,-0.07694 0.00938,-0.03387 0.02226,-0.06681 0.041046,-0.097 0.03369,-0.0554 0.046567,-0.07694 0.060371,-0.138044 0.0072,-0.03534 0.024306,-0.06829 0.030903,-0.103624 0.00995,-0.05025 0.015099,-0.12792 0.00423,-0.178905 -0.00212,-0.01454 -0.013617,-0.03681 -0.01584,-0.04601 -0.0079,-0.04104 -0.00353,-0.08356 -0.00353,-0.125896 -7.055e-4,-0.09626 0,-0.192708 0,-0.289707 v -0.279032 c 0,-0.0324 0.00353,-0.06829 0,-0.09994 -0.00282,-0.01859 -0.013794,-0.03092 -0.01584,-0.04381 -0.00367,-0.01804 7.055e-4,-0.03957 -0.00367,-0.05687 -0.0079,-0.03018 -0.04233,-0.05522 -0.056688,-0.08264 -0.018768,-0.03736 -0.023742,-0.07914 -0.043988,-0.115772 -0.020814,-0.0381 -0.04675,-0.07252 -0.08485,-0.09479 -0.030903,-0.01877 -0.048775,-0.01454 -0.035892,-0.06552 0.014358,-0.05816 0.071229,-0.107857 0.095709,-0.163259"
       style="fill:#21201d;fill-opacity:1;fill-rule:nonzero;stroke:none;stroke-width:0.184057"
       id="path592" />
  </g>
</svg>
