<?xml version="1.0" encoding="UTF-8" standalone="no"?>
<!-- Created with Inkscape (http://www.inkscape.org/) -->

<svg
   width="7.7575827mm"
   height="7.7513709mm"
   viewBox="0 0 7.7575827 7.7513709"
   version="1.1"
   id="svg3467"
   inkscape:version="1.1.2 (0a00cf5339, 2022-02-04)"
   sodipodi:docname="e8.svg"
   xmlns:inkscape="http://www.inkscape.org/namespaces/inkscape"
   xmlns:sodipodi="http://sodipodi.sourceforge.net/DTD/sodipodi-0.dtd"
   xmlns="http://www.w3.org/2000/svg"
   xmlns:svg="http://www.w3.org/2000/svg">
  <sodipodi:namedview
     id="namedview3469"
     pagecolor="#ffffff"
     bordercolor="#666666"
     borderopacity="1.0"
     inkscape:pageshadow="2"
     inkscape:pageopacity="0.0"
     inkscape:pagecheckerboard="0"
     inkscape:document-units="mm"
     showgrid="false"
     inkscape:zoom="0.64052329"
     inkscape:cx="-1194.336"
     inkscape:cy="764.2189"
     inkscape:window-width="2560"
     inkscape:window-height="1376"
     inkscape:window-x="0"
     inkscape:window-y="0"
     inkscape:window-maximized="1"
     inkscape:current-layer="layer1" />
  <defs
     id="defs3464" />
  <g
     inkscape:label="Layer 1"
     inkscape:groupmode="layer"
     id="layer1"
     transform="translate(-420.76125,53.85771)">
    <path
       d="m 423.93088,-51.708658 c 0.009,0 0.0186,0 0.028,-7.41e-4 0.0101,0 0.0208,0 0.0309,0 0.0195,0 0.0381,7.41e-4 0.0576,0.0044 l 0.008,0.0013 c 0.0315,0.0059 0.0567,0.01086 0.0841,0.0059 0.0243,-0.0044 0.0488,-0.0086 0.0733,-0.01233 0.0438,-0.0064 0.0885,-0.01362 0.13086,-0.02375 0.10215,-0.0243 0.19768,-0.02301 0.29983,-0.02227 h 0.0611 c 0.0344,0 0.0668,7.41e-4 0.0992,-0.002 0.041,-0.0029 0.0819,-0.01233 0.12516,-0.02172 0.0359,-0.0079 0.0733,-0.01638 0.11209,-0.02153 0.051,-0.0057 0.0992,-0.0173 0.15019,-0.02945 l 0.0138,-0.0037 c -0.0512,-0.08835 -0.092,-0.181849 -0.1316,-0.273142 -0.018,-0.0416 -0.0366,-0.08338 -0.0554,-0.12516 l -0.0173,-0.03736 c -0.0374,-0.0797 -0.0762,-0.162524 -0.10343,-0.247926 -0.0124,-0.04105 -0.0282,-0.08283 -0.0433,-0.122215 -0.0193,-0.05117 -0.0387,-0.102888 -0.0539,-0.155345 -0.006,-0.02301 -0.009,-0.04528 -0.0121,-0.06626 -0.003,-0.0208 -0.006,-0.0416 -0.0121,-0.06037 -0.0195,-0.06184 -0.0353,-0.117061 -0.0497,-0.173935 -0.0136,-0.0554 -0.0309,-0.110803 -0.0482,-0.164732 -0.028,-0.08835 -0.0567,-0.180377 -0.0703,-0.276087 -0.0151,-0.102704 -0.0309,-0.211298 -0.044,-0.320629 -0.006,0.02669 -0.0144,0.05319 -0.0223,0.07914 -0.0143,0.04675 -0.028,0.09203 -0.0337,0.138043 -0.006,0.0497 -0.0144,0.09774 -0.023,0.144486 -0.007,0.03736 -0.0138,0.07417 -0.0188,0.111539 -0.0114,0.07694 -0.0331,0.147983 -0.0539,0.218477 -0.0101,0.03239 -0.0201,0.06552 -0.0287,0.09921 -0.009,0.03092 -0.0151,0.06258 -0.0215,0.09424 -0.0109,0.05246 -0.0217,0.107121 -0.041,0.16105 -0.0561,0.153136 -0.12221,0.304064 -0.187,0.450022 -0.0186,0.04252 -0.0374,0.08485 -0.0552,0.127368 -0.0166,0.03663 -0.026,0.07326 -0.0376,0.112828 -0.006,0.02374 -0.0129,0.04896 -0.0208,0.07326 -0.0101,0.02945 -0.0223,0.05761 -0.0344,0.08411 -0.0101,0.02227 -0.021,0.04473 -0.0289,0.06829 -0.005,0.01509 -0.0107,0.03166 -0.0156,0.04896 -0.0145,0.04601 -0.0304,0.09774 -0.0547,0.140988 0.008,-7.41e-4 0.0151,-7.41e-4 0.0193,-0.0015 0.0109,-7.41e-4 0.0195,-0.0015 0.0252,-0.0015"
       style="fill:#21201d;fill-opacity:1;fill-rule:nonzero;stroke:none;stroke-width:0.184057"
       id="path640" />
    <path
       d="m 424.97688,-51.698535 c -0.0179,-7.41e-4 -0.0351,7.41e-4 -0.0525,0.0057 -0.009,0.0022 -0.0166,0.0057 -0.0237,0.01086 -0.0129,0.0072 -0.0251,0.01583 -0.0381,0.01785 -0.0144,0.0029 -0.0272,-0.0015 -0.0409,0.0029 0.0258,0.05816 0.0445,0.11927 0.0322,0.187555 -0.0136,0.07639 -0.0374,0.168966 -0.10417,0.215716 -0.041,0.03019 -0.0883,0.03957 -0.13805,0.03957 -0.0396,-7.41e-4 -0.0898,0.01012 -0.12589,-0.01141 -0.0236,-0.01435 -0.0668,-0.05117 -0.079,-0.07344 -0.0136,-0.02301 -0.0144,-0.04454 -0.0215,-0.06829 -0.0116,-0.04233 -0.0101,-0.08908 -0.009,-0.135099 0.001,-0.06552 -0.049,-0.04601 -0.0992,-0.04822 -0.0353,-0.0015 -0.0683,-0.01288 -0.10509,-0.01288 -0.0322,7.4e-4 -0.0646,7.4e-4 -0.0963,7.4e-4 h -0.10785 c -0.023,0 -0.0626,-0.01012 -0.0792,0.01141 0.0346,0.01509 0.0309,0.05043 0.0317,0.08338 0.002,0.07344 -0.006,0.143749 0.0109,0.216452 0.0173,0.07988 0.0468,0.139516 0.0985,0.20136 0.0503,0.05963 0.1086,0.127184 0.17615,0.169701 0.0497,0.03166 0.10491,0.06829 0.15884,0.09129 0.0648,0.02724 0.13951,0.04951 0.20706,0.06755 0.0972,0.02724 0.22933,0.02153 0.32136,-0.0173 0.0433,-0.01859 0.0871,-0.0554 0.11651,-0.09056 0.0223,-0.02669 0.0418,-0.05025 0.0705,-0.0705 0.0295,-0.02006 0.0381,-0.02871 0.0561,-0.06111 0.0272,-0.04877 0.0596,-0.09626 0.0819,-0.148167 0.0215,-0.05025 0.0316,-0.104176 0.051,-0.155896 0.0223,-0.05908 -0.005,-0.116509 -0.0136,-0.176144 -0.006,-0.04675 0.003,-0.09276 -0.008,-0.13878 -0.008,-0.03313 -0.008,-0.0727 -0.0173,-0.103624 -0.003,-0.0086 -0.0121,-0.02374 -0.0223,-0.03663 -0.028,0.01233 -0.0552,0.02448 -0.0856,0.03092 -0.0495,0.01086 -0.0977,-0.0029 -0.14522,-0.005"
       style="fill:#21201d;fill-opacity:1;fill-rule:nonzero;stroke:none;stroke-width:0.184057"
       id="path642" />
    <path
       d="m 422.2707,-50.448966 c 0.1316,-0.0173 0.29412,-0.0208 0.44504,-0.0094 l 0.0353,0.0029 c 0.0467,0.0042 0.0869,0.0086 0.1316,7.41e-4 0.0215,-0.0037 0.0416,-0.0072 0.0624,-0.0116 0.044,-0.0087 0.0878,-0.0173 0.13528,-0.01933 0.0611,-0.0037 0.12221,-0.0029 0.18111,-0.0022 0.0819,7.41e-4 0.16676,0.0022 0.24811,-0.0072 l 0.0633,-0.0072 c 0.009,-0.0015 0.0179,-0.0022 0.0258,-0.0044 -7.1e-4,-0.0028 -0.003,-0.0057 -0.004,-0.0079 -0.005,-0.0092 -0.009,-0.01712 -0.0124,-0.02301 -0.007,-0.01859 -0.0158,-0.03589 -0.0252,-0.05319 -0.0151,-0.03018 -0.0302,-0.06037 -0.0401,-0.09479 -0.0223,-0.07197 -0.0554,-0.140988 -0.0906,-0.214244 -0.0433,-0.08927 -0.087,-0.181296 -0.10859,-0.280504 -0.013,-0.05963 -0.0361,-0.116508 -0.0611,-0.176879 -0.0116,-0.02945 -0.0237,-0.0589 -0.0346,-0.08908 -0.0272,-0.0762 -0.0532,-0.1524 -0.0791,-0.229336 -0.0179,-0.05319 -0.0366,-0.107122 -0.0545,-0.160315 -0.064,-0.184058 -0.13749,-0.378975 -0.23155,-0.565978 l -0.0101,-0.01785 c -7.1e-4,-0.0022 -0.002,-0.0044 -0.003,-0.0072 -0.009,0.03092 -0.0186,0.06037 -0.0243,0.08982 -0.0123,0.07049 -0.0289,0.141725 -0.0447,0.21001 -0.007,0.03092 -0.0144,0.06111 -0.0216,0.09129 -0.009,0.03736 -0.0144,0.07325 -0.0201,0.110618 -0.009,0.05393 -0.018,0.110803 -0.0346,0.166941 -0.0144,0.04951 -0.0359,0.09258 -0.0567,0.133626 -0.006,0.01362 -0.0136,0.02743 -0.0203,0.04178 -0.028,0.05669 -0.048,0.120742 -0.0683,0.182586 l -0.0107,0.03442 c -0.0223,0.06552 -0.0497,0.129393 -0.09,0.202095 -0.0322,0.06037 -0.0559,0.120743 -0.0819,0.184795 l -0.006,0.01362 c -0.023,0.0589 -0.0504,0.117245 -0.0762,0.173383 -0.0346,0.07473 -0.0705,0.150927 -0.097,0.227864 -0.007,0.02153 -0.0188,0.0416 -0.0296,0.06111 -0.0114,0.02006 -0.023,0.04105 -0.0258,0.05743 v 0.0029 c 0.0158,0.0029 0.0574,0.0037 0.13363,-0.0064"
       style="fill:#21201d;fill-opacity:1;fill-rule:nonzero;stroke:none;stroke-width:0.184057"
       id="path644" />
    <path
       d="m 422.46561,-50.360618 c -0.0554,0 -0.12939,0.0094 -0.18902,0.0015 -0.0202,-0.0022 -0.0381,-0.0064 -0.0539,-0.01362 -0.003,0.0064 -0.004,0.01288 -0.005,0.02006 -10e-4,0.0173 0.002,0.03736 0.002,0.05319 0,0.05687 0,0.1143 0,0.171174 -7e-4,0.0497 10e-4,0.0935 0.0144,0.141725 0.0121,0.04804 0.0418,0.08687 0.0626,0.132153 0.0237,0.0519 0.0503,0.08209 0.0955,0.12019 0.0482,0.04086 0.0863,0.09847 0.13877,0.133626 0.0532,0.03663 0.12939,0.0497 0.18774,0.08338 0.0604,0.03534 0.0913,0.04178 0.164,0.04031 0.0696,-7.41e-4 0.14006,0 0.21129,7.41e-4 0.0698,7.41e-4 0.10639,-0.02374 0.15608,-0.06829 0.0473,-0.04252 0.0898,-0.08908 0.13583,-0.132338 0.0475,-0.04454 0.0705,-0.103441 0.0898,-0.161051 0.0188,-0.05669 0.0359,-0.12295 0.0388,-0.182585 0.002,-0.0589 0.023,-0.112091 0.0295,-0.170438 0.005,-0.04307 0.005,-0.08982 0.004,-0.135098 -10e-4,-0.01509 -0.002,-0.03019 -0.003,-0.04454 0,-0.01657 -0.004,-0.0324 -0.006,-0.04822 -0.002,7.41e-4 -0.006,7.41e-4 -0.008,0.0015 -0.007,7.41e-4 -0.0136,0.002 -0.0208,0.002 -0.0403,0.0044 -0.0849,0 -0.12019,0 h -0.1754 c -0.0381,0 -0.0841,-0.0064 -0.12001,0.0029 -0.002,0.0057 -0.003,0.01086 -0.003,0.01583 0,0.0208 0.0116,0.03387 0.0173,0.0554 0.0121,0.04749 -0.001,0.115037 -7.1e-4,0.163812 0,0.06056 0.007,0.09921 -0.0618,0.129577 -0.0317,0.01436 -0.0604,0.03736 -0.0928,0.04951 -0.0381,0.01436 -0.0876,0.005 -0.12793,0.005 -0.023,-7.41e-4 -0.0675,0.0066 -0.0898,-0.002 -0.0267,-0.01013 -0.0316,-0.03018 -0.0489,-0.0497 -0.0129,-0.01509 -0.0351,-0.02797 -0.0446,-0.04601 -0.009,-0.01859 -0.002,-0.04307 -0.002,-0.06184 7e-4,-0.05669 -0.0238,-0.166756 0.0252,-0.208537 -0.0655,0.0044 -0.13381,7.41e-4 -0.19988,7.41e-4"
       style="fill:#21201d;fill-opacity:1;fill-rule:nonzero;stroke:none;stroke-width:0.184057"
       id="path646" />
    <path
       d="m 425.86623,-50.436818 c 0.021,0 0.0396,0.0037 0.0561,0.0064 0.0124,0.0029 0.0237,0.0052 0.0353,0.0059 0.0129,7.4e-4 0.0178,-0.0015 0.0307,-0.0064 0.007,-0.0029 0.0153,-0.0059 0.0232,-0.0087 0.0611,-0.01951 0.13216,-0.01583 0.19621,-0.01307 0.023,0.0015 0.046,0.0022 0.0675,0.0022 h 0.004 c 0.0517,0 0.1027,0.0042 0.15166,0.0079 0.0388,0.0029 0.0777,0.0057 0.11706,0.0064 0.095,0.0029 0.20927,0.0086 0.32873,0.03589 0.008,0.0015 0.0164,0.0029 0.0237,0.0044 -0.009,-0.01877 -0.0158,-0.03663 -0.021,-0.05172 l -0.004,-0.01086 c -0.0101,-0.02595 -0.0237,-0.05025 -0.0381,-0.0762 -0.0216,-0.03884 -0.0438,-0.07841 -0.0561,-0.12792 -0.0295,-0.12019 -0.0596,-0.252343 -0.095,-0.415603 -0.006,-0.02743 -0.0164,-0.05466 -0.028,-0.0819 -0.006,-0.01583 -0.0136,-0.03166 -0.0201,-0.04896 -0.0131,-0.03663 -0.018,-0.07473 -0.0223,-0.112091 -0.002,-0.01454 -0.004,-0.02816 -0.006,-0.04178 -0.0158,-0.09626 -0.0512,-0.187003 -0.0885,-0.283265 -0.009,-0.02227 -0.0173,-0.04528 -0.026,-0.06755 -0.0394,-0.105649 -0.0747,-0.214243 -0.10841,-0.320077 l -0.003,-0.0085 c -0.0136,-0.04178 -0.0324,-0.08135 -0.0517,-0.122951 -0.0151,-0.0324 -0.0302,-0.06479 -0.0433,-0.09792 -0.009,-0.02153 -0.0151,-0.04381 -0.0208,-0.06534 -0.004,-0.01012 -0.006,-0.01877 -0.009,-0.02798 -0.002,0.002 -0.004,0.0035 -0.006,0.0064 -0.0287,0.03663 -0.0374,0.07694 -0.0475,0.124976 -0.004,0.01804 -0.007,0.03681 -0.0121,0.0554 -0.004,0.0173 -0.009,0.03534 -0.0144,0.05246 -0.0202,0.07197 -0.041,0.146694 -0.0447,0.217924 -0.003,0.06332 -0.0193,0.122214 -0.0344,0.179088 -0.0101,0.03736 -0.0195,0.07252 -0.026,0.10841 -0.008,0.04896 -0.023,0.09424 -0.0366,0.13878 -0.0144,0.04399 -0.028,0.08559 -0.0344,0.130129 -0.021,0.126632 -0.0618,0.259706 -0.10363,0.384681 -0.009,0.02522 -0.0173,0.05117 -0.0265,0.07694 -0.0195,0.05467 -0.0376,0.105649 -0.0497,0.159579 -0.0101,0.04325 -0.0238,0.08559 -0.0374,0.125895 -0.009,0.02871 -0.0188,0.05614 -0.0267,0.08485 -0.002,0.0072 -0.004,0.01509 -0.004,0.02227 -0.004,0.01657 -0.007,0.03442 -0.0151,0.05172 0.0121,0 0.0245,0 0.0374,0 0.0295,-7.41e-4 0.0596,-7.41e-4 0.0883,0"
       style="fill:#21201d;fill-opacity:1;fill-rule:nonzero;stroke:none;stroke-width:0.184057"
       id="path648" />
    <path
       d="m 425.62107,-50.230489 c 0.004,0.1143 -0.023,0.242405 0.0203,0.350999 0.0129,0.03092 0.0173,0.0762 0.0374,0.10344 0.0201,0.02595 0.0337,0.04454 0.0482,0.07473 0.0344,0.07049 0.13657,0.12884 0.21056,0.16694 0.0957,0.04878 0.17393,0.05448 0.28252,0.05448 0.0475,0 0.10639,0.0087 0.15314,-0.0013 0.0526,-0.0116 0.1108,-0.03534 0.16031,-0.05319 0.0547,-0.02025 0.11154,-0.0346 0.1605,-0.06479 0.0438,-0.02724 0.0782,-0.06184 0.11853,-0.09276 0.0826,-0.06258 0.14448,-0.105649 0.1754,-0.200623 0.026,-0.08043 -0.006,-0.155897 -0.008,-0.235778 -7e-4,-0.03019 -0.005,-0.05393 -0.0121,-0.08338 -0.006,-0.02743 0,-0.05614 7e-4,-0.08264 0,-0.01086 -7e-4,-0.02172 -0.004,-0.03166 -0.001,-0.0064 -0.004,-0.0116 -0.006,-0.01509 -0.0158,-0.02669 -0.0482,-0.02025 -0.0883,-0.02098 -0.008,0 -0.0145,7.41e-4 -0.0217,0.0015 -0.033,0.0029 -0.0618,0.01086 -0.0963,0.0138 -0.0274,0.002 -0.0554,-0.0022 -0.0826,-0.0015 -0.0144,0 -0.0289,0.0028 -0.0418,0.005 -0.0215,0.0044 -0.0423,0.0094 -0.0646,0.01012 -0.023,7.4e-4 -0.0561,-0.0072 -0.0791,-0.0015 -0.0582,0.01362 0.007,0.05025 0.0216,0.07197 0.0223,0.03294 0.018,0.115588 0.0123,0.150191 -0.009,0.04896 -0.0224,0.07841 -0.0648,0.10933 -0.0381,0.02724 -0.0425,0.02797 -0.0957,0.02724 -0.033,0 -0.0668,0 -0.0999,7.41e-4 -0.0431,0 -0.0668,0 -0.10122,-0.02651 -0.026,-0.02098 -0.0497,-0.04601 -0.0712,-0.07049 -0.0705,-0.07767 -0.0878,-0.17191 -0.0331,-0.258233 -0.0121,-0.0079 -0.0245,-0.01215 -0.0374,-0.01436 -0.0265,-0.005 -0.0547,7.41e-4 -0.0841,0.0064 -10e-4,0 -0.004,7.41e-4 -0.005,7.41e-4 -0.0547,0.01013 -0.1108,0.0138 -0.1662,0.01951 -0.0186,0.0015 -0.11283,0.03019 -0.16455,0.03515 0.018,0.03608 0.0245,0.05393 0.0258,0.06037 0,-0.0015 0,-0.0042 7e-4,-0.0079"
       style="fill:#21201d;fill-opacity:1;fill-rule:nonzero;stroke:none;stroke-width:0.184057"
       id="path650" />
    <path
       d="m 428.51572,-49.150437 -0.0101,-0.03755 c -0.0223,-0.09129 -0.0453,-0.185346 -0.10123,-0.244428 -0.008,-0.0087 -0.0166,-0.01786 -0.0245,-0.02651 -0.0295,-0.0324 -0.0547,-0.06037 -0.0841,-0.07123 l -0.0151,-0.0057 c -0.0519,-0.01951 -0.09,-0.03387 -0.13602,-0.03313 -0.0611,7.41e-4 -0.13013,0.0015 -0.18976,0.01583 -0.007,0.0015 -0.0245,0.0072 -0.0589,0.02595 -0.0123,0.0087 -0.026,0.01859 -0.0438,0.02503 -0.009,0.0037 -0.0188,0.0052 -0.0281,0.0059 -0.0121,0.0079 -0.0265,0.01785 -0.0482,0.02797 -0.002,0.0015 -0.004,0.0015 -0.006,0.0022 -7.1e-4,0.002 -7.1e-4,0.0035 -10e-4,0.0057 -0.002,0.0035 -0.004,0.0079 -0.006,0.01215 0.006,-0.0057 0.0124,-0.01067 0.0201,-0.01509 0.0202,-0.01215 0.0396,-0.01509 0.0539,-0.01509 0.0173,-0.0079 0.0361,-0.01436 0.0663,-0.01583 0.0928,-0.0042 0.24148,0.04822 0.26596,0.178353 0.0101,0.0554 0.002,0.126631 -0.009,0.173382 0,5.65e-4 -7e-4,0.0035 -7e-4,0.0072 -0.002,0.01859 -0.005,0.04454 -0.0171,0.06902 -0.0131,0.0243 -0.0324,0.0381 -0.0433,0.04601 -0.003,0.005 -0.006,0.0085 -0.008,0.01362 -0.0179,0.02724 -0.0423,0.06534 -0.0854,0.09056 -0.046,0.02595 -0.0964,0.02374 -0.13749,0.02153 -0.008,-7.41e-4 -0.0179,-0.0022 -0.0258,-0.0015 -0.0425,0 -0.0655,-0.0079 -0.0913,-0.02374 -0.002,-0.002 -0.005,-0.0035 -0.009,-0.0057 0,0 -0.003,-7.41e-4 -0.005,-7.41e-4 -0.008,-0.0015 -0.0164,-0.0042 -0.0257,-0.0072 -0.0374,-0.01215 -0.0648,-0.03589 -0.0863,-0.05466 -0.009,-0.0079 -0.0186,-0.01712 -0.0245,-0.01933 -0.006,-0.0037 -0.0129,-0.0057 -0.0186,-0.0094 -0.0136,-0.0057 -0.0302,-0.01215 -0.0475,-0.02448 -0.009,-0.0057 -0.018,-0.01067 -0.0267,-0.01583 -0.01,-0.0057 -0.0193,-0.01068 -0.0287,-0.01712 -0.0101,-0.0059 -0.0208,-0.01454 -0.0316,-0.02374 -0.004,-0.0029 -0.008,-0.0064 -0.0114,-0.0086 h -10e-4 c -0.0144,-7.41e-4 -0.0374,-0.0015 -0.0633,-0.01233 l -0.0129,-0.0064 c -0.0166,-0.0072 -0.023,-0.0099 -0.0381,-0.01288 -0.0223,-0.005 -0.0396,-0.0087 -0.0626,-0.01215 -0.0272,-0.0044 -0.0495,-0.0116 -0.0675,-0.01804 -0.0208,-0.0072 -0.0331,-0.01159 -0.0468,-0.01159 -0.028,0 -0.0504,-0.0064 -0.0661,-0.01141 -0.006,-0.0015 -0.0109,-0.0037 -0.0173,-0.0044 -0.009,-0.0013 -0.0195,0 -0.0287,0 -0.0101,7.41e-4 -0.0188,7.41e-4 -0.0289,7.41e-4 h -0.13805 c -0.028,0 -0.0567,0.0037 -0.0861,0.0072 -0.0353,0.0044 -0.0712,0.0079 -0.11154,0.0079 -0.0547,0 -0.11283,0.0052 -0.17909,0.0173 -0.0114,0.0022 -0.025,0.0037 -0.0381,0.0057 -0.0158,0.0015 -0.0322,0.0044 -0.0453,0.0072 7.1e-4,0 -7e-4,7.41e-4 -0.004,0.0029 -0.0116,0.0064 -0.0274,0.01583 -0.0482,0.02153 -0.0366,0.0094 -0.072,0.0079 -0.10068,0.0057 -0.01,-5.64e-4 -0.0208,-0.0013 -0.0309,-0.0013 -0.01,7.41e-4 -0.0215,0.0035 -0.0351,0.0064 -0.0195,0.0042 -0.0433,0.0094 -0.0705,0.01012 h -0.0201 c -0.0281,0 -0.046,5.65e-4 -0.0648,0.0064 -0.0366,0.01067 -0.072,0.01859 -0.10565,0.02577 -0.0317,0.0072 -0.0633,0.01307 -0.092,0.02301 -0.0245,0.0072 -0.0482,0.01657 -0.0727,0.02522 -0.0604,0.02301 -0.12866,0.04896 -0.20265,0.05393 -0.0353,0.0022 -0.069,0.0042 -0.10215,0.01215 -0.0272,0.0066 -0.0532,0.01951 -0.0856,0.03681 -0.0158,0.0087 -0.0295,0.01362 -0.0445,0.01933 -0.006,0.0029 -0.0136,0.005 -0.0201,0.0087 -0.0123,0.005 -0.026,0.01804 -0.0418,0.03166 -0.0208,0.01933 -0.0482,0.04381 -0.0834,0.06184 -0.0431,0.0208 -0.0812,0.04031 -0.11209,0.06387 -0.007,0.0059 -0.0131,0.01233 -0.0188,0.01877 -0.0158,0.01657 -0.0359,0.03957 -0.0683,0.05687 -0.0366,0.01933 -0.0777,0.03221 -0.0985,0.03884 -0.0317,0.0085 -0.0633,0.01565 -0.0957,0.02227 -0.0201,0.0042 -0.0409,0.0079 -0.0604,0.01288 -0.009,0.0029 -0.0158,0.0035 -0.0215,0.0057 -0.004,0.0029 -0.008,0.0064 -0.0144,0.01288 -0.026,0.02246 -0.0467,0.03829 -0.0655,0.04896 -0.0409,0.02448 -0.0755,0.02153 -0.0977,0.01583 -0.0495,-0.01362 -0.0725,-0.0554 -0.0863,-0.07988 -0.002,-0.0042 -0.004,-0.0092 -0.007,-0.01288 -0.0251,-0.0381 -0.0559,-0.07473 -0.079,-0.09479 -0.0217,-0.01951 -0.0425,-0.03884 -0.0626,-0.05761 -0.0475,-0.04528 -0.0893,-0.08338 -0.14522,-0.1143 -0.0123,-0.0064 -0.026,-0.01509 -0.0381,-0.02448 -0.008,-0.005 -0.0188,-0.01215 -0.0223,-0.01436 -0.021,-0.0029 -0.0519,-0.0072 -0.0848,-0.03387 -0.006,-0.0042 -0.0109,-0.0092 -0.0158,-0.01362 -7e-4,-7.41e-4 -0.002,-7.41e-4 -0.004,-7.41e-4 -0.0173,-0.0035 -0.0438,-0.0092 -0.0725,-0.02797 -0.009,-0.005 -0.0173,-0.0116 -0.0252,-0.01804 -0.002,-0.0015 -0.004,-0.0028 -0.005,-0.0042 -0.0109,7.41e-4 -0.0267,0.0022 -0.0455,-7.41e-4 -0.0302,-0.0037 -0.0545,-0.01583 -0.0725,-0.02448 -0.006,-0.0035 -0.0129,-0.0064 -0.0201,-0.0079 -0.0317,-0.0086 -0.0561,-0.01859 -0.0799,-0.02798 -0.0331,-0.01436 -0.0648,-0.02448 -0.097,-0.03166 -0.0223,-0.005 -0.0403,-0.01215 -0.0569,-0.01878 -0.0101,-0.0035 -0.0188,-0.0079 -0.0295,-0.01067 -0.0618,-0.01509 -0.12074,-0.02816 -0.17393,-0.02816 -0.0455,0 -0.0885,-0.0035 -0.12958,-0.0079 -0.0344,-0.0035 -0.0661,-0.0064 -0.0985,-0.0072 -0.0532,-0.0013 -0.10638,-0.0013 -0.15958,0 -0.0129,0 -0.0252,0.0029 -0.0416,0.0059 -0.0173,0.0035 -0.0346,0.0072 -0.0526,0.0092 -0.0208,0.0022 -0.0401,0.0015 -0.0611,7.41e-4 -0.0171,0 -0.0329,0 -0.046,0.0022 l -0.009,0.0022 c -0.0129,0.0028 -0.0309,0.0064 -0.0524,0.0064 -0.0337,-0.0015 -0.0619,-0.01013 -0.0849,-0.0173 -0.007,-0.0022 -0.0136,-0.0042 -0.0193,-0.0057 -0.0151,0.0079 -0.0324,0.01141 -0.0504,0.01141 h -0.009 l -0.009,0.0022 -0.0339,0.0057 c -0.0366,0.0066 -0.0718,0.01233 -0.1086,0.02025 l -0.0186,0.0042 c -0.0475,0.01012 -0.0813,0.0173 -0.11154,0.03957 -0.0302,0.02301 -0.0582,0.03387 -0.0812,0.04178 -0.007,0.0028 -0.0151,0.0057 -0.0237,0.0092 -0.005,0.0022 -0.0121,0.0079 -0.0215,0.01509 -0.0116,0.0094 -0.026,0.02098 -0.0438,0.03092 -0.0267,0.01454 -0.0534,0.02172 -0.0742,0.02743 -0.01,0.0028 -0.0201,0.0057 -0.0302,0.01012 -0.003,5.65e-4 -0.009,0.0057 -0.0151,0.01067 -0.0121,0.0094 -0.0237,0.01804 -0.0381,0.02669 -0.0287,0.01583 -0.0547,0.0208 -0.0762,0.02577 -0.007,0.0015 -0.0143,0.0029 -0.0223,0.0059 -0.0109,0.0035 -0.0201,0.0085 -0.0309,0.01288 -0.0144,0.0079 -0.0287,0.01509 -0.0438,0.0208 -0.10289,0.03736 -0.23799,0.02669 -0.32284,0.0057 -0.0374,-0.0092 -0.0762,-0.01933 -0.12019,-0.03884 -0.005,-0.0013 -0.01,-0.0035 -0.0151,-0.0057 -0.0107,-0.0042 -0.0215,-0.0087 -0.0315,-0.01288 -0.0346,-0.0173 -0.0539,-0.03663 -0.0677,-0.06755 -0.004,-0.0052 -0.0114,-0.0138 -0.0171,-0.02098 -0.0388,-0.04675 -0.0871,-0.104914 -0.0863,-0.199887 7.1e-4,-0.01215 -7.1e-4,-0.02577 -7.1e-4,-0.04013 -0.004,-0.06553 -0.008,-0.160314 0.0468,-0.229336 -0.0124,0 -0.0245,0 -0.0274,0.002 -0.005,0.0037 -0.009,0.0072 -0.0143,0.01086 -0.006,0.005 -0.0114,0.01012 -0.0186,0.01509 -0.0202,0.01509 -0.0403,0.02374 -0.0561,0.03092 -0.008,0.0035 -0.018,0.0079 -0.0208,0.01013 -0.001,7.41e-4 -0.002,0.0013 -0.006,0.0079 l -0.007,0.0085 c -0.0136,0.01877 -0.0251,0.0289 -0.0344,0.03608 -0.002,0.0015 -0.005,0.0035 -0.007,0.0064 l -0.0453,0.04528 c -0.004,0.0042 -0.0101,0.01509 -0.0158,0.02669 -0.004,0.0085 -0.009,0.01712 -0.0144,0.02577 -0.006,0.0116 -0.0151,0.02301 -0.0237,0.0346 -0.004,0.005 -0.0101,0.01362 -0.0116,0.01657 -0.004,0.01141 -0.004,0.03442 -0.004,0.05669 -7.1e-4,0.02595 -10e-4,0.05393 -0.007,0.08411 -0.009,0.04381 -0.0151,0.07767 -0.0158,0.112828 l -0.001,0.02595 c -10e-4,0.03387 -0.004,0.07988 0.007,0.09774 0.004,0.0064 0.009,0.01307 0.0129,0.01951 0.0109,0.01362 0.023,0.03166 0.0331,0.05172 0.004,0.0094 0.006,0.0173 0.009,0.02448 0.001,0.0015 0.002,0.0015 0.003,0.0028 0.0136,0.01307 0.0201,0.01951 0.0287,0.02448 0.005,0.0029 0.0101,0.0044 0.0158,0.0064 0.0173,0.0066 0.0416,0.01509 0.0646,0.03387 l 0.0217,0.0173 c 0.0201,0.0173 0.0416,0.03442 0.0582,0.04086 0.008,0.0037 0.0188,0.0094 0.0295,0.01509 0.007,0.0037 0.0144,0.0079 0.0208,0.01013 0.004,0.0015 0.0116,0.0022 0.018,0.0022 0.0195,0.0022 0.046,0.005 0.0762,0.01859 0.0525,0.02374 0.11154,0.05043 0.16897,0.06847 0.004,5.65e-4 0.0151,0.0013 0.023,0.0013 0.0151,0.0015 0.0331,0.0029 0.0525,0.0072 0.0195,0.0044 0.0361,0.0116 0.049,0.01657 0.006,0.0022 0.0114,0.0052 0.018,0.0064 0.0351,0.0086 0.11779,-7.41e-4 0.14448,-0.0035 l 0.23136,-0.02595 -0.15442,0.174671 c -0.007,0.0079 -0.0158,0.02301 -0.0245,0.03755 -0.007,0.01288 -0.0143,0.02503 -0.0223,0.03663 -0.018,0.02577 -0.0282,0.04749 -0.0331,0.06681 -0.003,0.01288 -7.1e-4,0.04252 7e-4,0.06479 0.001,0.01785 0.002,0.03515 0.002,0.04951 v 0.0173 c 0,0.03092 0,0.06037 0.005,0.08117 0.007,0.02742 0.0158,0.04601 0.0272,0.05982 0.0109,0.01215 0.0203,0.02724 0.0304,0.0416 0.006,0.0094 0.0114,0.01877 0.0156,0.02301 0,-0.0015 0.005,7.4e-4 0.009,0.0022 0.0144,0.0064 0.0339,0.01509 0.0525,0.03092 0.0237,0.01933 0.0433,0.0416 0.0598,0.06111 0.0107,0.01141 0.0201,0.02374 0.0309,0.03368 0.0107,0.01013 0.025,0.02025 0.0401,0.03019 0.0173,0.01233 0.0375,0.02595 0.0569,0.04399 0.0151,0.01288 0.0359,0.02577 0.0576,0.04031 0.0151,0.0085 0.0287,0.01712 0.0416,0.02651 0.0762,0.05246 0.15957,0.0762 0.22933,0.06552 0.0596,-0.01012 0.11724,-0.0052 0.17264,-7.41e-4 0.0547,0.005 0.10639,0.0092 0.14725,-0.0022 0.0224,-0.0064 0.0368,-0.01288 0.0519,-0.02153 0.0193,-0.01233 0.0401,-0.01951 0.056,-0.02595 0.0116,-0.0035 0.0223,-0.0079 0.0274,-0.01141 0.023,-0.01509 0.0396,-0.04325 0.0423,-0.07123 0.001,-0.0094 7.1e-4,-0.0208 0,-0.03018 v -0.0044 c -0.004,-0.0092 -0.006,-0.01583 -0.009,-0.02374 -0.007,-0.02724 -0.007,-0.05172 -0.007,-0.07031 0,-0.0066 0,-0.01583 -7e-4,-0.01877 -7.1e-4,-0.005 -0.003,-0.01141 -0.004,-0.01859 0,-0.0022 -7e-4,-0.0059 -0.001,-0.0087 -0.005,-0.0044 -0.01,-0.01012 -0.0151,-0.0173 -7e-4,0.0022 -0.001,0.0042 -0.003,0.0064 -0.0195,0.04178 -0.0547,0.06037 -0.0742,0.07123 -0.004,0.0015 -0.006,0.0028 -0.009,0.0042 -0.0841,0.05761 -0.17816,0.06332 -0.25804,0.01657 -0.0158,-0.0094 -0.0309,-0.0208 -0.046,-0.03313 -0.007,-0.0057 -0.0144,-0.01141 -0.0223,-0.01638 -0.0109,-0.0044 -0.0351,-0.0138 -0.0561,-0.03828 -0.0151,-0.01785 -0.0215,-0.03515 -0.0258,-0.04657 -0.003,-0.0029 -0.007,-0.0066 -0.009,-0.01013 -0.0208,-0.0208 -0.0517,-0.05319 -0.0641,-0.110803 -0.009,-0.04675 -10e-4,-0.09276 0.026,-0.139332 0.008,-0.01454 0.0179,-0.0289 0.0272,-0.04252 0.0116,-0.01657 0.023,-0.0324 0.0274,-0.04454 l 7e-4,-0.0057 c 0.002,-0.01233 0.006,-0.03019 0.0164,-0.0497 0.0202,-0.03663 0.0482,-0.05319 0.0663,-0.0646 l 0.005,-0.0029 c 0.004,-0.0029 0.006,-0.0044 0.0136,-0.01362 0.006,-0.0072 0.013,-0.01436 0.021,-0.02301 l 0.006,-0.0064 c 0.0344,-0.03534 0.0784,-0.07914 0.1257,-0.105097 0.0504,-0.02724 0.10216,-0.05098 0.15314,-0.07399 l 0.0252,-0.0116 c 0.0302,-0.01362 0.0626,-0.02724 0.0942,-0.03939 0.0237,-0.0094 0.0453,-0.0138 0.0633,-0.0173 0.0129,-0.0022 0.0243,-0.0044 0.0322,-0.0079 0.0828,-0.0346 0.15461,-0.05246 0.21793,-0.05614 0.0396,-0.0015 0.0799,-7.41e-4 0.11927,0 0.0188,0 0.0375,0 0.0569,0 h 0.0272 c 0.0173,0 0.0353,0 0.0534,0 0.0416,7.41e-4 0.0703,0.01362 0.0913,0.02301 0.008,0.0029 0.0151,0.0057 0.0243,0.0079 0.0418,0.0116 0.0697,0.02945 0.092,0.04381 0.009,0.0059 0.018,0.01159 0.0289,0.0173 0.009,0.005 0.0186,0.0094 0.0287,0.01436 0.0302,0.01509 0.0646,0.03313 0.0977,0.05761 0.0396,0.03019 0.0734,0.06387 0.10712,0.09626 0.0295,0.02945 0.0576,0.05687 0.0871,0.07988 0.0374,0.02798 0.0596,0.06332 0.0777,0.09129 0.006,0.01068 0.0136,0.02227 0.0215,0.0324 l 0.0201,0.02577 c 0.0223,0.0289 0.046,0.05835 0.0663,0.08927 0.0351,0.05172 0.0445,0.109146 0.0539,0.16105 0.003,0.01583 0.006,0.03221 0.009,0.0473 0.003,0.0094 0.006,0.01804 0.008,0.02595 0.008,0.02522 0.0165,0.05319 0.018,0.08908 7e-4,0.02301 7e-4,0.04749 7e-4,0.07123 l -7e-4,0.0324 c 0,0.01877 10e-4,0.03957 0.003,0.06037 0.002,0.04896 0.006,0.104361 -0.004,0.154609 -0.006,0.03515 -0.0151,0.06829 -0.0245,0.101416 -0.007,0.02503 -0.0136,0.04951 -0.0186,0.07326 0.001,0.01362 0.002,0.03092 -0.003,0.05043 -0.006,0.02153 -0.0166,0.03663 -0.0252,0.04602 -0.004,0.0085 -0.008,0.01583 -0.0114,0.0243 -0.004,0.0072 -0.008,0.01454 -0.0101,0.02172 -0.0216,0.05522 -0.0503,0.101232 -0.0784,0.143013 -0.0157,0.02374 -0.033,0.03957 -0.0473,0.05246 -0.005,0.005 -0.0109,0.01012 -0.0158,0.01509 10e-4,-7.41e-4 0,0.0022 -7.1e-4,0.0057 -0.006,0.01233 -0.0131,0.02963 -0.0274,0.04675 -0.0129,0.01657 -0.028,0.02816 -0.0388,0.03663 -0.004,0.0022 -0.007,0.0044 -0.01,0.0079 -0.0101,0.0086 -0.0188,0.02172 -0.0294,0.03534 -0.0188,0.02448 -0.0388,0.05098 -0.0698,0.07546 -0.026,0.02006 -0.0519,0.0346 -0.0749,0.04675 -0.0151,0.0086 -0.0302,0.01657 -0.0445,0.0265 -0.0554,0.03957 -0.12074,0.07344 -0.20559,0.107858 -0.005,0.0022 -0.0109,0.0044 -0.0158,0.0066 0.005,0.0064 0.0101,0.01141 0.0144,0.01288 0.0295,0.01509 0.0497,0.03589 0.0641,0.05172 0.002,0.0015 0.004,0.0037 0.006,0.0057 0.0116,7.41e-4 0.026,0.0037 0.0403,0.01086 0.023,0.01086 0.0352,0.02595 0.0423,0.03663 0.005,0.0037 0.0116,0.0064 0.023,0.01086 0.0475,0.02006 0.0863,0.04822 0.12092,0.07252 0.0243,0.0173 0.0473,0.03387 0.071,0.04602 0.0195,0.0094 0.0468,0.01583 0.0755,0.02227 l 0.023,0.0059 c 0.0274,0.0064 0.0526,0.01509 0.0784,0.02374 0.0188,0.0072 0.0381,0.01362 0.0584,0.01859 0.0129,0.0037 0.0287,0.0044 0.0467,0.0057 0.0315,0.0029 0.0718,0.0059 0.11429,0.02448 0.0121,0.0052 0.0258,0.0079 0.0445,0.0116 0.0151,0.002 0.0309,0.005 0.0475,0.0092 0.0158,0.0044 0.0317,0.0086 0.048,0.01454 0.0237,0.0072 0.046,0.01362 0.0648,0.01638 0.0582,0.01012 0.12644,0.0066 0.19344,0.0037 l 0.025,-7.41e-4 0.0245,7.41e-4 c 0.067,0.0029 0.13528,0.0064 0.19344,-0.0037 0.0195,-0.0028 0.0411,-0.0092 0.0648,-0.01638 0.0164,-0.0059 0.0322,-0.01012 0.048,-0.01454 0.0173,-0.0042 0.0346,-0.0085 0.0519,-0.01215 0.0725,-0.01804 0.14153,-0.03516 0.20043,-0.07123 0.0791,-0.04877 0.16326,-0.07822 0.24516,-0.106385 0.0238,-0.0087 0.0475,-0.01657 0.0712,-0.02577 0.0554,-0.02098 0.0784,-0.02963 0.10786,-0.0554 0.0346,-0.0324 0.0727,-0.06037 0.10859,-0.08559 0.018,-0.01288 0.0374,-0.03019 0.0569,-0.04969 0.004,-0.0028 0.006,-0.0072 0.009,-0.01141 0.0123,-0.01583 0.0309,-0.04031 0.0604,-0.05687 0.004,-0.002 0.007,-0.0035 0.0109,-0.0057 -0.0114,-0.0022 -0.0215,-0.0042 -0.0295,-0.0079 -0.009,-0.0022 -0.0166,-0.0042 -0.0208,-0.005 -0.005,0 -0.0101,7.41e-4 -0.0151,7.41e-4 -0.0202,7.41e-4 -0.0482,0.0028 -0.0791,-0.0079 -0.0173,-0.0052 -0.0302,-0.01307 -0.0403,-0.01877 -0.003,-0.0015 -0.005,-0.0035 -0.009,-0.0042 -0.0898,-0.0289 -0.18553,-0.05835 -0.26744,-0.148903 -0.0107,-0.01215 -0.0215,-0.02227 -0.0331,-0.03313 -0.0144,-0.01436 -0.0302,-0.02871 -0.0445,-0.04528 -0.008,-0.0087 -0.0165,-0.01583 -0.025,-0.02374 -0.0217,-0.01859 -0.0475,-0.0416 -0.0677,-0.07546 -0.097,-0.162523 -0.14596,-0.3048 -0.1581,-0.46217 -10e-4,-0.02025 -0.004,-0.03884 -0.006,-0.05687 -0.005,-0.0346 -0.009,-0.0705 -0.009,-0.112092 v -0.03884 c -7.1e-4,-0.02301 -7.1e-4,-0.04601 -7.1e-4,-0.06829 7.1e-4,-0.03755 0.006,-0.07197 0.0121,-0.102888 0.003,-0.01435 0.006,-0.02871 0.008,-0.04307 0.009,-0.06626 0.0223,-0.128104 0.0418,-0.183505 0.051,-0.148719 0.16602,-0.255841 0.2667,-0.350078 0.0151,-0.01288 0.0295,-0.02651 0.0438,-0.04031 0.11725,-0.111355 0.26965,-0.199151 0.45297,-0.259522 0.0561,-0.01859 0.10656,-0.03018 0.15534,-0.03368 0.0123,-0.0015 0.0237,-0.0044 0.0359,-0.0066 0.0217,-0.0042 0.046,-0.0092 0.0749,-0.0092 0.0166,0 0.0337,-7.41e-4 0.051,-0.0022 0.0569,-0.0029 0.12075,-0.0064 0.17835,0.0087 0.0295,0.0072 0.0633,0.01067 0.0999,0.01436 0.0252,0.0029 0.051,0.005 0.0755,0.0094 0.0804,0.01288 0.15884,0.06387 0.23357,0.150928 0.009,0.01159 0.0195,0.02153 0.0296,0.0324 0.0171,0.01859 0.0351,0.03884 0.0532,0.06184 0.0165,0.02301 0.0316,0.04675 0.0467,0.06976 l 0.008,0.01362 c 0.0309,0.04749 0.041,0.09774 0.0504,0.142277 0.003,0.01878 0.006,0.03681 0.0121,0.05466 0.0252,0.07915 0.0165,0.146694 0.003,0.207801 -0.005,0.02448 -0.006,0.05466 -0.007,0.0878 0,0.01712 -7.1e-4,0.03368 -0.002,0.04951 l -0.001,0.01509 c -10e-4,0.03092 -0.004,0.06626 -0.0144,0.103625 -0.007,0.02374 -0.0173,0.04804 -0.0324,0.07767 -0.0517,0.103441 -0.16455,0.159578 -0.31842,0.159578 -0.0475,0 -0.21074,7.41e-4 -0.28253,-0.138779 -0.0123,-0.02522 -0.023,-0.05172 -0.0316,-0.08191 -7.1e-4,0.0035 -0.002,0.0072 -0.002,0.01067 -0.004,0.02522 -0.002,0.06258 -7e-4,0.09571 l 0.001,0.03019 c 7e-4,0.005 0.004,0.0094 0.0237,0.03019 0.009,0.0094 0.018,0.01804 0.0267,0.02871 0.007,0.0079 0.0136,0.01877 0.0201,0.02945 0.003,0 0.005,7.41e-4 0.008,0.0015 0.0143,0.0037 0.0252,0.0094 0.0339,0.01509 0.004,7.41e-4 0.008,0.0015 0.0114,0.0015 0.0324,0.005 0.072,0.01086 0.11283,0.03515 l 0.007,0.0044 c 0.0331,0.0208 0.067,0.0416 0.0964,0.04951 0.0258,0.0064 0.0488,0.0072 0.0804,0.0086 l 0.023,7.4e-4 c 0.0173,0.0015 0.0331,0.0022 0.0453,0 0.0418,-0.01583 0.0828,-0.03515 0.12167,-0.05669 0.0985,-0.05466 0.17963,-0.0843 0.26448,-0.09866 0.0403,-0.0064 0.0863,-0.03884 0.13087,-0.07031 0.0237,-0.01657 0.0475,-0.03387 0.0705,-0.04675 0.0388,-0.02374 0.0554,-0.04104 0.069,-0.0727 0.0272,-0.06405 0.0618,-0.121478 0.0948,-0.17688 0.0418,-0.06976 0.0813,-0.135834 0.10363,-0.208537 0.004,-0.0099 0.006,-0.01933 0.0101,-0.02871 0.006,-0.01804 0.008,-0.02522 0.008,-0.03313 0,-0.0079 0,-0.01583 -7.1e-4,-0.02374 -0.001,-0.03019 -0.004,-0.06681 0.006,-0.102704 l 0.0143,-0.0554 0.0777,-0.01509 c 0.0712,-0.01288 0.14595,-0.02945 0.21773,-0.06332 0.0138,-0.0072 0.0267,-0.01141 0.0403,-0.01712 0.006,-0.0022 0.0136,-0.0052 0.0208,-0.0079 0.007,-0.0029 0.0158,-0.01086 0.026,-0.01951 0.0121,-0.01067 0.0267,-0.02374 0.0453,-0.03515 0.026,-0.01583 0.0525,-0.03018 0.0791,-0.04454 0.0416,-0.02301 0.0812,-0.04473 0.11356,-0.07049 0.0109,-0.0086 0.0216,-0.02098 0.0331,-0.03608 0.007,-0.0085 0.0151,-0.01859 0.0237,-0.02798 0.0107,-0.01215 0.023,-0.02227 0.0351,-0.03166 0.006,-0.0057 0.0136,-0.01141 0.0151,-0.01436 0.009,-0.01436 0.0195,-0.02945 0.0302,-0.04454 0.018,-0.02669 0.0359,-0.05319 0.0445,-0.07473 0.0144,-0.0381 0.0165,-0.06902 0.0165,-0.125159 0,-0.02006 7.1e-4,-0.04104 0.002,-0.06332 0.002,-0.03736 0.005,-0.07841 -7.1e-4,-0.101968"
       style="fill:#21201d;fill-opacity:1;fill-rule:nonzero;stroke:none;stroke-width:0.184057"
       id="path652" />
    <path
       d="m 423.50314,-49.451003 c 0.023,0 0.0423,-0.01951 0.0611,-0.02448 0.033,-0.01012 0.0827,-0.0173 0.11706,-0.01951 0.0447,-0.0028 0.0913,0 0.13676,0 0.0703,0 0.12074,0.02246 0.18461,0.04602 0.09,0.03166 0.17908,0.0727 0.25105,0.131601 0.0302,0.02374 0.0676,0.03681 0.097,0.06184 0.0302,0.02669 0.0418,0.06037 0.0675,0.08853 0.004,0.0042 0.018,-7.4e-4 0.0223,0.0035 0.0124,0.01362 0.0138,0.03607 0.026,0.05043 0.0101,0.01141 0.026,0.01583 0.0351,0.0265 0.005,0.0064 0.005,0.01951 0.009,0.02595 0.0158,0.02522 0.0331,0.0381 0.0388,0.06755 0.004,0.02374 0.007,0.04454 0.0144,0.06755 0.007,0.02448 0.0151,0.03534 0.0267,0.05964 0.009,0.01951 0.0166,0.03884 0.0186,0.05982 10e-4,0.02006 -0.0107,0.04951 0.0195,0.04454 0.008,-0.0015 0.0151,-0.0086 0.0201,-0.01288 0.0151,-0.01583 0.0885,-0.233753 0.0346,-0.07638 0.0258,0.0022 0.0755,-0.0762 0.0891,-0.09258 0.0561,-0.06553 0.0791,-0.134546 0.15093,-0.188475 0.023,-0.01804 0.041,-0.02945 0.0598,-0.05098 0.0215,-0.02595 0.0329,-0.05172 0.0618,-0.07197 0.0431,-0.02945 0.0854,-0.04749 0.12423,-0.08264 0.0569,-0.05043 0.14394,-0.08982 0.21719,-0.108594 0.0431,-0.01086 0.092,-0.02227 0.1351,-0.02945 0.0316,-0.0057 0.069,0.0035 0.0992,-0.0064 -0.003,-0.02448 -0.0495,-0.04454 -0.069,-0.06037 -0.0438,-0.03681 -0.0941,-0.06405 -0.1386,-0.100679 -0.0166,-0.0079 -0.0309,-0.01877 -0.0425,-0.03313 -0.009,-0.02006 -0.0193,-0.0381 -0.0324,-0.05466 -0.0193,-0.02227 -0.051,-0.04454 -0.074,-0.06258 -0.0547,-0.04307 -0.11504,-0.06976 -0.1732,-0.104914 -0.0583,-0.03515 -0.11798,-0.04381 -0.1835,-0.05963 -0.0552,-0.01288 -0.10786,-0.03019 -0.16455,-0.02945 -0.0532,0 -0.10712,-7.41e-4 -0.16031,-7.41e-4 -0.0467,7.41e-4 -0.0848,-0.01509 -0.13087,-0.01509 -0.092,0.0015 -0.17264,0.0028 -0.25878,0.03442 -0.0282,0.01012 -0.0475,0.0037 -0.0749,0.0094 -0.0265,0.0057 -0.0394,0.02374 -0.0626,0.03516 -0.0488,0.02522 -0.0898,0.04546 -0.13509,0.07841 -0.0482,0.0346 -0.0955,0.05835 -0.13805,0.100679 -0.0223,0.02227 -0.0396,0.05098 -0.0596,0.07197 -0.0201,0.0208 -0.0504,0.02503 -0.0727,0.04381 -0.0322,0.02669 -0.0611,0.05816 -0.092,0.08632 -0.0171,0.01509 -0.0589,0.06534 -0.0552,0.09203"
       style="fill:#21201d;fill-opacity:1;fill-rule:nonzero;stroke:none;stroke-width:0.184057"
       id="path654" />
  </g>
</svg>
