<?xml version="1.0" encoding="UTF-8" standalone="no"?>
<!-- Created with Inkscape (http://www.inkscape.org/) -->

<svg
   width="5.5932674mm"
   height="6.6995587mm"
   viewBox="0 0 5.5932674 6.6995587"
   version="1.1"
   id="svg3643"
   inkscape:version="1.1.2 (0a00cf5339, 2022-02-04)"
   sodipodi:docname="e9.svg"
   xmlns:inkscape="http://www.inkscape.org/namespaces/inkscape"
   xmlns:sodipodi="http://sodipodi.sourceforge.net/DTD/sodipodi-0.dtd"
   xmlns="http://www.w3.org/2000/svg"
   xmlns:svg="http://www.w3.org/2000/svg">
  <sodipodi:namedview
     id="namedview3645"
     pagecolor="#ffffff"
     bordercolor="#666666"
     borderopacity="1.0"
     inkscape:pageshadow="2"
     inkscape:pageopacity="0.0"
     inkscape:pagecheckerboard="0"
     inkscape:document-units="mm"
     showgrid="false"
     inkscape:zoom="0.64052329"
     inkscape:cx="526.13231"
     inkscape:cy="306.78041"
     inkscape:window-width="2560"
     inkscape:window-height="1376"
     inkscape:window-x="0"
     inkscape:window-y="0"
     inkscape:window-maximized="1"
     inkscape:current-layer="layer1" />
  <defs
     id="defs3640" />
  <g
     inkscape:label="Layer 1"
     inkscape:groupmode="layer"
     id="layer1"
     transform="translate(34.190313,-67.285828)">
    <path
       d="m -31.245293,67.772108 c 0.03957,-0.04031 0.1351,-0.09203 0.184792,-0.08135 0.05393,0.01235 0.08982,0.04675 0.124975,0.09571 0.0052,0.0065 0.0094,0.01139 0.0151,0.01654 0.0059,0.0072 0.01012,0.01069 0.01453,0.02007 0.0085,0.01877 0.01711,0.03884 0.02357,0.05816 0.0079,0.02448 0.0059,0.04675 0.0037,0.07344 -7.05e-4,0.0086 -0.0014,0.01859 -0.0021,0.02797 -0.0021,0.05835 -0.0086,0.12295 -0.05743,0.156079 -0.0497,0.03443 -0.141725,0.05964 -0.176879,0.04031 -0.01012,-0.0059 -0.01951,-0.01729 -0.02946,-0.02889 -0.01235,-0.01436 -0.02448,-0.02946 -0.04104,-0.03939 -0.0267,-0.01658 -0.06185,-0.03313 -0.09995,-0.04675 -0.04031,-0.01454 -0.04031,-0.01454 -0.04601,-0.05264 -7.06e-4,-0.0014 -7.06e-4,-0.0035 -7.06e-4,-0.005 l 0.01803,-0.0035 -0.0065,-0.03534 0.0079,-0.0065 c -0.04325,-0.05761 -0.0079,-0.112829 0.06755,-0.189029 m -1.246061,0.986366 c 0.03884,0.0151 0.08927,0.03736 0.13013,0.04454 0.02522,0.0052 0.05117,-0.0035 0.07546,0 0.02889,0.0044 0.04675,0.01951 0.0705,0.03461 0.07473,0.04804 0.05835,0.147979 0.106383,0.21277 0.0151,0.02007 0.03608,0.02448 0.05319,-0.0057 0.01379,-0.02374 -0.0021,-0.0554 0.0037,-0.08135 0.0035,-0.01933 0.01087,-0.04748 0.01859,-0.0646 0.0086,-0.02099 0.01161,-0.04527 0.02025,-0.06405 0.01143,-0.02226 0.02649,-0.03369 0.03662,-0.05742 0.0094,-0.02448 0.01584,-0.02889 0.03313,-0.05117 0.02946,-0.03957 0.03589,-0.09055 0.06976,-0.127183 0.06037,-0.06553 0.18185,-0.103625 0.270196,-0.07123 -0.02649,0.05835 -0.06184,0.06828 -0.106384,0.112826 -0.01785,0.01877 -0.03589,0.04031 -0.05595,0.05687 -0.02522,0.02155 -0.06405,0.02723 -0.06479,0.06681 -0.01013,0.0021 -0.01933,0.0044 -0.0302,0.0072 -7.06e-4,0.01803 -0.01584,0.05614 -0.02155,0.07197 -0.0072,0.01933 -0.01655,0.03443 -0.02448,0.0554 -0.02007,0.05099 -0.01362,0.104179 -0.01362,0.159579 0,0.0554 0.0072,0.09203 0.01859,0.140254 0.01086,0.04528 -0.199884,0.248662 -0.161788,0.282529 0.03238,0.02798 0.09277,0.06681 0.133075,0.07473 0.04822,0.0094 0.1108,-7.05e-4 0.160313,-7.05e-4 0.02448,0 0.0497,0.0014 0.07473,7.05e-4 0.0302,-0.0014 0.05393,-0.0151 0.08412,-0.01933 0.02374,-0.0044 0.05393,-0.0014 0.07565,0.0085 0.02575,0.01305 0.03295,0.02741 0.06184,0.02741 0.0072,0 0.01785,-0.0086 0.02649,-0.01012 0.03736,-0.0072 0.418543,-0.0035 0.456643,-0.0035 h 0.253079 c 0.0473,0 0.101967,0.0079 0.148717,0.0014 0.05687,-0.0077 0.115771,-0.02723 0.171171,-0.04086 0.0992,-0.02374 0.203384,-0.02671 0.302588,-0.04969 0.02963,-0.0072 0.05908,-0.0035 0.08853,-0.0072 0.0086,-0.0014 0.01732,-0.0028 0.02579,-0.0057 0.03534,-0.01087 0.06773,-0.0302 0.102888,-0.04307 0.06902,-0.02596 0.123684,-0.03164 0.139513,-0.11375 0.0042,-0.02152 0.0057,-0.04454 0.0042,-0.06607 -0.0021,-0.03164 -0.01436,-0.0589 -0.02505,-0.08835 -0.03094,-0.08632 -0.02815,-0.191234 -0.110804,-0.251788 -0.01436,-0.01069 -0.06258,-0.0473 -0.0762,-0.04878 -0.0072,0.0589 -0.03514,0.10197 -0.07841,0.143749 -0.05319,0.0497 -0.07252,-0.01584 -0.122212,-0.03313 -0.0309,-0.01143 -0.01803,-0.02081 -0.04454,0.01161 -0.01012,0.01143 -0.023,0.05743 -0.04454,0.06037 -0.01161,0.0021 -0.04031,-0.02724 -0.05172,-0.03461 -0.02173,-0.01362 -0.04896,-0.08043 -0.06976,-0.09129 -0.02889,0.03313 -0.07197,0.148904 -0.113009,0.143934 -0.01933,-0.0028 -0.03957,-0.0302 -0.05595,-0.03884 -0.01453,-0.0079 -0.02173,-0.02374 -0.04325,-0.01584 -0.02007,0.0072 -0.0094,0.01436 -0.02007,0.02797 -0.0086,0.01013 -0.0302,0.04601 -0.04454,0.04601 -0.01235,0 -0.04252,-0.0381 -0.0519,-0.04822 -0.02357,-0.02649 -0.02431,-0.04675 -0.05669,-0.02946 -0.02597,0.01362 -0.02815,0.04528 -0.04454,0.06479 0.02374,-0.01951 0.03221,0.03295 0.01069,0.01729 -0.01214,-0.0028 -0.02448,-0.0037 -0.03736,0 -0.01729,-0.0079 -0.03164,-0.01655 -0.05025,-0.02522 -0.03461,-0.01436 -0.06755,-0.03094 -0.107855,-0.03239 -0.0381,-0.0021 -0.227309,-0.154609 -0.193442,-0.221421 0.01436,-0.02741 0.05466,-0.04896 0.07841,-0.06258 0.0302,-0.01658 0.0646,-0.02872 0.09203,-0.04896 0.04601,-0.03295 0.08835,-0.07252 0.128655,-0.112088 0.03164,-0.03165 0.07767,-0.05743 0.124424,-0.0554 0.04031,0.0021 0.07105,0.02522 0.09773,0.05393 0.01658,0.01729 0.03164,0.03663 0.04601,0.05687 0.0079,0.01143 0.02152,0.04233 0.03589,0.04528 0.04896,0.0094 0.04031,-0.06903 0.05246,-0.09277 0.02025,0.0042 0.03828,0.01436 0.05338,0.02798 0.01637,0.0151 0.02723,0.067 0.04877,0.07197 0.04896,0.01013 0.06553,-0.09203 0.06258,-0.125158 0.01288,0.01235 0.0302,0.01379 0.04454,0.02522 0.01362,0.01214 0.01803,0.02798 0.0267,0.0438 0.01214,0.02025 0.03295,0.06976 0.05669,0.07197 0.0021,-0.02596 0.01803,-0.03239 0.02889,-0.05245 0.0092,-0.02025 0.0057,-0.04105 0.01288,-0.05908 0.01732,-0.04381 0.05025,-0.02357 0.08338,0.0014 0.02226,0.01658 0.04822,0.05835 0.0819,0.03461 0.02815,-0.01951 0.04105,-0.07988 0.04473,-0.108595 0.03073,0 0.07325,0.06829 0.09055,0.09277 0.03443,0.04877 0.05467,0.02872 0.05595,-0.02798 0.0014,-0.04031 0.0086,-0.07123 -0.02431,-0.09718 -0.0151,-0.01214 -0.03461,-0.01214 -0.04748,-0.02872 -0.0086,-0.01161 -0.0037,-0.04031 -0.0028,-0.05246 7.05e-4,-0.05393 0.01012,-0.08411 -0.05246,-0.07049 -0.01214,0.0021 -0.02448,0.01214 -0.04104,0.01436 -0.02374,0.0037 -0.05098,-7.06e-4 -0.07546,-7.06e-4 -0.03443,7.06e-4 -0.09626,0.01288 -0.07399,-0.04528 0.01658,-0.04105 0.0589,-0.02448 0.09276,-0.03387 0.06037,-0.01436 0.130867,0.0028 0.186817,-0.01436 0.04749,-0.0151 0.06479,-0.08835 0.07988,-0.131417 0.01288,-0.03607 0.03164,-0.08853 0.01362,-0.125896 -0.0079,-0.01729 -0.02007,-0.02596 -0.03736,-0.03313 -0.06755,-0.02649 -0.170434,-0.0057 -0.239455,-0.0057 -0.01859,0 -0.04307,0.005 -0.0589,0.0014 -0.0086,-0.0021 -0.01803,-0.0151 -0.02226,-0.01584 -0.03461,-0.0072 -0.07197,-0.0044 -0.108592,-0.0044 -0.01658,0 -0.04105,0.0052 -0.05688,7.06e-4 -0.0114,-0.0028 -0.01362,-0.01362 -0.02226,-0.0151 -0.03165,-0.0079 -0.06608,-0.01933 -0.09847,-0.02374 -0.03369,-0.0042 -0.06755,0.0066 -0.100676,-0.0021 -0.0035,-0.04325 -0.01933,-0.06626 -0.02081,-0.110067 -0.0014,-0.0381 -0.0151,-0.07399 -0.01877,-0.112828 -0.0057,-0.0554 -0.06608,-0.150376 -0.128654,-0.153138 -7.06e-4,-0.0052 -0.0021,-0.01013 -0.0028,-0.0151 -0.09498,-0.0762 -0.112276,-0.08282 -0.242405,-0.09424 -0.120741,-0.01161 -0.24148,-0.0044 -0.354492,0.0381 -0.108409,0.04178 -0.236513,0.02667 -0.335717,0.09203 -0.05467,0.03589 -0.08632,0.09553 -0.123688,0.146696 -0.05025,0.07123 -0.164546,0.155342 -0.248659,0.171171 -0.06553,0.01214 -0.0554,-0.05393 -0.06479,-0.09571 -0.0057,-0.02374 -0.0302,-0.02797 -0.01729,-0.05614 0.01453,-0.03164 0.04969,-0.02649 0.0727,-0.03589 0.0381,-0.01584 0.07325,-0.02226 0.102888,-0.05743 0.0057,-0.0066 0.01436,-0.01087 0.01933,-0.01803 0.0065,-0.0086 0.005,-0.02671 0.01214,-0.03387 0.0086,-0.0094 0.02596,-0.0099 0.03534,-0.01729 0.01436,-0.01362 0.0094,-0.01711 0.01803,-0.03369 0.01711,-0.03589 0.03073,-0.09774 0.01933,-0.141725 -0.01729,-0.0646 -0.07546,-0.07399 -0.132334,-0.07399 -0.120741,7.06e-4 -0.208537,0.03663 -0.300563,0.112826 -0.04307,0.03534 -0.07547,0.07767 -0.116325,0.113749 -0.04749,0.04086 -0.107858,0.07896 -0.135283,0.13933 -0.02081,0.04602 -0.0099,0.107124 -0.01069,0.159579 0,0.05982 0.01288,0.08135 0.04233,0.130313 0.02797,0.0473 0.06332,0.06902 0.112092,0.08982 0.02889,0.01214 0.05835,0.02226 0.08927,0.02374 0.03589,0.0014 0.05963,0.01362 0.09424,0.01933 0.0416,0.0072 0.133625,0.0094 0.169513,-0.0099 0.02025,-0.01161 0.03608,-0.04178 0.0554,-0.0554 0.01235,-0.0086 0.05835,-0.04749 0.07196,-0.04675 0.01729,0.03514 -0.0151,0.08264 -0.03957,0.106384 -0.02798,0.02872 -0.05687,0.02723 -0.08908,0.04178 -0.06405,0.02798 -0.133809,0.04307 -0.202092,0.06111 -0.04178,0.01069 -0.06184,0.01859 -0.10565,0.0028 -0.04325,-0.01584 -0.07914,-0.04233 -0.11798,-0.06534 -0.0589,-0.03534 -0.127183,-0.05908 -0.194179,-0.03239 -0.0646,0.02596 -0.104913,0.08908 -0.123501,0.153137 -0.01951,0.06976 -0.023,0.203384 0.0114,0.269642 0.05466,0.107859 0.119451,0.210563 0.236509,0.258788"
       style="fill:#21201d;fill-opacity:1;fill-rule:nonzero;stroke:none;stroke-width:0.184057"
       id="path594" />
    <path
       d="m -28.605189,71.839971 c -0.0267,-0.158842 -0.07123,-0.305534 -0.07123,-0.467321 0,-0.08191 0.0021,-0.16455 7.06e-4,-0.245904 -7.06e-4,-0.07767 -0.0028,-0.191234 -0.04178,-0.260992 -0.06405,-0.113563 -0.167492,-0.209091 -0.2632,-0.296887 -0.06902,-0.06405 -0.132154,-0.134546 -0.199884,-0.200621 -0.03939,-0.0381 -0.06884,-0.08264 -0.110621,-0.120008 -0.06331,-0.05614 -0.123684,-0.115034 -0.190496,-0.167492 -0.02226,-0.01729 -0.04252,-0.0381 -0.06626,-0.05319 -0.03369,-0.02244 -0.06681,-0.02448 -0.102701,-0.03957 -0.07123,-0.03094 -0.1316,-0.05761 -0.207063,-0.07694 -0.07197,-0.01803 -0.115771,-0.01803 -0.186267,-0.0037 -0.07399,0.0151 -0.151662,-0.0014 -0.226388,0.0037 -0.0727,0.0035 -0.139516,0.01859 -0.213688,0.01933 -0.08264,0 -0.15737,-0.0151 -0.238538,-0.01933 -0.05982,-0.0044 -0.120187,7.05e-4 -0.179824,7.05e-4 -0.07914,-7.05e-4 -0.153134,0.01711 -0.230805,0.01933 -0.07049,7.06e-4 -0.132338,0.0079 -0.201359,0.02226 -0.03939,0.0086 -0.07749,0.02226 -0.117059,0.02872 -0.0381,0.0074 -0.07491,7.05e-4 -0.110066,0.02173 -0.04307,0.02649 -0.07693,0.07896 -0.113563,0.113563 -0.06902,0.06405 -0.14025,0.12295 -0.203563,0.192708 -0.03884,0.04307 -0.06387,0.09479 -0.09847,0.140804 -0.06534,0.09 -0.112092,0.179088 -0.154608,0.281242 -0.04307,0.104175 -0.123684,0.214979 -0.126447,0.328542 -0.0021,0.107858 0.02152,0.212033 0.04086,0.317683 0.01012,0.0519 0.04178,0.122216 0.07123,0.16547 0.02081,0.0309 0.04031,0.04086 0.05687,0.07841 0.0099,0.02374 0.01933,0.05245 0.03736,0.07325 0.03094,0.03589 0.07767,0.06405 0.111354,0.09571 0.03164,0.02946 0.06111,0.05964 0.09074,0.09056 0.0611,0.06111 0.155896,0.170988 0.244425,0.187554 0.08043,0.01436 0.180376,0.04105 0.252342,0.08282 0.08191,0.0473 0.168226,0.09405 0.257309,0.12645 0.03736,0.01436 0.07344,0.0381 0.110804,0.04896 0.04233,0.01214 0.09203,0.0028 0.134359,0.0028 0.02946,0 0.06332,0.0072 0.09203,-0.0028 0.01803,-0.04325 -0.05246,-0.06258 -0.07694,-0.07491 -0.07031,-0.03369 -0.112088,-0.109883 -0.180375,-0.144484 -0.02798,-0.01436 -0.06258,-0.01288 -0.08982,-0.03094 -0.02244,-0.01362 -0.03165,-0.02946 -0.04896,-0.05025 -0.03387,-0.04031 -0.07767,-0.07197 -0.113563,-0.107859 -0.04178,-0.0438 -0.09497,-0.09203 -0.145958,-0.12792 -0.04601,-0.03239 -0.07693,-0.0727 -0.113563,-0.11798 -0.02815,-0.03461 -0.067,-0.06405 -0.07491,-0.111354 -0.0057,-0.03755 0.0051,-0.07841 0.0021,-0.115775 -0.0035,-0.04399 -0.01933,-0.08356 -0.02007,-0.128104 -7.05e-4,-0.0309 0,-0.06184 0,-0.09203 0,-0.06976 7.06e-4,-0.138779 0,-0.2078 0,-0.04233 -0.0037,-0.07473 0.01362,-0.112829 0.01013,-0.02152 0.01803,-0.03736 0.02448,-0.06037 0.0057,-0.023 0.005,-0.05319 0.02226,-0.07197 0.01655,-0.01933 0.03589,-0.02575 0.05025,-0.04601 0.0059,-0.0065 0.0072,-0.02007 0.01235,-0.02797 0.0057,-0.0072 0.02078,-0.0114 0.02723,-0.01803 0.01362,-0.01288 0.01877,-0.03164 0.03239,-0.0438 0.0114,-0.01013 0.02798,-0.0094 0.03883,-0.02081 0.01732,-0.01803 0.01584,-0.0554 0.03238,-0.07693 0.0302,-0.03884 0.09479,-0.05908 0.138779,-0.07988 0.04877,-0.02152 0.10988,-0.03589 0.161601,-0.04233 0.136017,-0.01584 0.267617,0.02007 0.401242,0.01933 0.08135,-7.05e-4 0.158842,0.01732 0.24093,0.01877 0.07546,7.05e-4 0.160313,0.03369 0.229334,0.06608 0.116508,0.05319 0.258046,0.03663 0.374554,0.09497 0.04749,0.02448 0.09921,0.04877 0.140988,0.08191 0.04601,0.03589 0.08687,0.09276 0.121475,0.140988 0.02226,0.03164 0.05393,0.05669 0.0762,0.08908 0.02505,0.03589 0.0416,0.07988 0.06461,0.117979 0.0381,0.06111 0.0554,0.128658 0.09645,0.188292 0.04748,0.06829 0.02522,0.168229 0.02522,0.250321 0,0.05522 0.01362,0.125712 -0.0014,0.177433 -0.0072,0.02667 -0.01729,0.04252 -0.01729,0.07565 0,0.01933 0,0.0381 0,0.05742 0,0.04178 0.0079,0.0913 -0.0014,0.131604 -0.023,0.102704 -0.04748,0.205592 -0.06828,0.310504 -0.01214,0.05982 -0.03884,0.108596 -0.05245,0.168229 -0.0065,0.02815 -0.005,0.05908 -0.01877,0.08411 -0.01859,0.03461 -0.05467,0.05908 -0.0797,0.08853 -0.0302,0.03589 -0.03957,0.07252 -0.07988,0.09847 -0.02374,0.01584 -0.02797,0.01803 -0.04602,0.0381 -0.03443,0.03884 -0.07252,0.05687 -0.102704,0.103625 -0.0381,0.06037 -0.128838,0.06976 -0.187734,0.112092 -0.04602,0.03312 -0.07547,0.04104 -0.127921,0.05614 -0.0302,0.0086 -0.04528,0.02431 -0.07344,0.03884 -0.03736,0.02007 -0.07767,0.01214 -0.116508,0.02798 -0.0309,0.01214 -0.05172,0.0381 -0.0854,0.04528 -0.06626,0.01436 -0.151846,7.05e-4 -0.220867,7.05e-4 h -0.430509 c -0.167675,0 -0.329459,-0.03737 -0.498238,-0.03737 -0.130313,0 -0.307009,0.03313 -0.42278,-0.03313 -0.0611,-0.03514 -0.107121,-0.09277 -0.162521,-0.137308 -0.05117,-0.04105 -0.114296,-0.06184 -0.163992,-0.10565 -0.05025,-0.04527 -0.10933,-0.08411 -0.170438,-0.115034 -0.03295,-0.01732 -0.07031,-0.02155 -0.101967,-0.03957 -0.06111,-0.03313 -0.12295,-0.08908 -0.177613,-0.1316 -0.04528,-0.03443 -0.07841,-0.0797 -0.09994,-0.132338 -0.01288,-0.03147 -0.0151,-0.06608 -0.03517,-0.09332 -0.04969,-0.0727 -0.09497,-0.155345 -0.134542,-0.23725 -0.03443,-0.07049 -0.06976,-0.153137 -0.0878,-0.230074 -0.02007,-0.08283 -0.05816,-0.156817 -0.08687,-0.236697 -0.01729,-0.04602 -0.01087,-0.09921 -0.01087,-0.149458 0,-0.09203 0.0079,-0.179087 0.01729,-0.270379 0.0079,-0.07325 -0.01214,-0.153137 7.05e-4,-0.225104 0.0042,-0.02226 0.01729,-0.03736 0.02081,-0.05963 0.0072,-0.0416 -0.0028,-0.0797 0.0086,-0.121479 0.01214,-0.04601 0.03313,-0.09553 0.04307,-0.143749 0.0072,-0.03461 0.0014,-0.06552 0.01454,-0.09847 0.0099,-0.02596 0.02649,-0.0497 0.03589,-0.0762 0.01288,-0.03387 0.01214,-0.08411 0.03239,-0.113746 0.01214,-0.01785 0.02575,-0.02798 0.03736,-0.0473 0.02872,-0.04822 0.05319,-0.09865 0.08191,-0.145959 0.06331,-0.103625 0.157551,-0.183321 0.214238,-0.290442 0.02596,-0.04822 0.06608,-0.08632 0.09424,-0.132337 0.02007,-0.03239 0.02946,-0.06553 0.0554,-0.09424 0.0473,-0.0532 0.103442,-0.102154 0.148721,-0.151666 0.023,-0.02596 0.03534,-0.06331 0.05761,-0.09203 0.02505,-0.03164 0.03589,-0.03164 0.03736,-0.07473 0.0042,-0.08559 -0.01803,-0.159026 -0.01877,-0.243879 0,-0.05172 0.01087,-0.09276 -0.02797,-0.129392 -0.023,-0.023 -0.05614,-0.05098 -0.08338,-0.06755 -0.03883,-0.02448 -0.07914,-0.01729 -0.122947,-0.02797 -0.03589,-0.0094 -0.06902,-0.01658 -0.102887,-0.03239 -0.07694,-0.03663 -0.132154,-0.08264 -0.191971,-0.140988 -0.07252,-0.07178 -0.0797,-0.151663 -0.05595,-0.247925 0.0079,-0.03164 0.0085,-0.06258 0.01143,-0.09424 -0.01803,0.03514 -0.03589,0.04528 -0.06332,0.06111 -0.01637,0.0094 -0.0381,0.02226 -0.05522,0.02797 -0.03534,0.01161 -0.06184,0.01086 -0.09497,0.03164 -0.02374,0.01436 -0.04675,0.03239 -0.0705,0.04822 -0.06681,0.04381 -0.110617,0.09995 -0.173196,0.149458 -0.03883,0.0309 -0.07417,0.06184 -0.107858,0.09792 -0.02152,0.02374 -0.06552,0.06037 -0.07767,0.09056 -0.06037,0.155896 -0.04528,0.333513 -0.108592,0.491801 -0.01658,0.04086 -0.04601,0.07399 -0.06258,0.115774 -0.023,0.05669 -0.03164,0.09626 -0.07252,0.144484 -0.08559,0.103441 -0.158287,0.209275 -0.233016,0.319895 -0.02152,0.02798 -0.0381,0.05963 -0.04822,0.0935 -0.0021,0.03663 -0.0035,0.07326 -0.0065,0.10933 -0.0072,0.04528 -0.02649,0.09056 -0.03736,0.1351 -0.01288,0.04969 -0.03737,0.09497 -0.04896,0.145958 -0.01069,0.0497 -0.0151,0.100679 -0.02649,0.149454 -0.02226,0.09792 -0.05245,0.189213 -0.05245,0.291179 0,0.114484 0.01069,0.222342 0.02374,0.335171 0.01436,0.132338 0.05246,0.260258 0.06608,0.391859 0.01214,0.109883 0.023,0.219949 0.0381,0.330016 0.02081,0.160313 -0.0035,0.320629 0.02667,0.481679 0.02152,0.112092 0.07546,0.195471 0.13215,0.292651 0.04105,0.07178 0.06332,0.155899 0.107121,0.22492 0.01584,0.02522 0.03461,0.03387 0.05117,0.0554 0.03957,0.0497 0.05467,0.112829 0.09847,0.159579 0.03517,0.0381 0.08338,0.07491 0.123687,0.107121 0.06681,0.05393 0.128655,0.106388 0.192705,0.164733 0.06387,0.05743 0.132154,0.09203 0.209088,0.129392 0.0381,0.01877 0.07694,0.03589 0.119454,0.03884 0.0302,0.0014 0.05742,-0.0065 0.08835,0 0.06626,0.01288 0.120925,0.06258 0.181296,0.08908 0.05246,0.023 0.108409,0.03387 0.163072,0.04896 0.06829,0.01877 0.134546,0.03737 0.19915,0.06902 0.07344,0.03663 0.14025,0.102891 0.220867,0.123687 0.05743,0.0151 0.1143,-0.0014 0.171725,0.0086 0.03883,0.0057 0.07693,0.02156 0.114297,0.02946 0.05761,0.01362 0.115037,0.01584 0.171908,0.02649 0.04896,0.0086 0.08706,0.03884 0.133625,0.05467 0.08927,0.0302 0.199888,0.02099 0.292651,0.01803 0.09847,-0.0028 0.210008,-0.02946 0.3013,-0.06681 0.07472,-0.0309 0.138042,-0.02815 0.218475,-0.02815 0.242401,0 0.481122,-0.01214 0.721868,-0.01711 0.09645,-0.0014 0.179822,-0.03607 0.263201,-0.08062 0.04896,-0.02522 0.097,-0.04602 0.146692,-0.06976 0.05466,-0.02522 0.08908,-0.0646 0.132337,-0.104913 0.06828,-0.06479 0.133626,-0.137308 0.204855,-0.198416 0.03239,-0.02815 0.07767,-0.03534 0.109329,-0.06405 0.02374,-0.023 0.03369,-0.0589 0.04454,-0.08835 0.02797,-0.07491 0.04748,-0.160496 0.08908,-0.229334 0.02741,-0.04399 0.06185,-0.06773 0.09571,-0.104362 0.06387,-0.06755 0.07546,-0.158842 0.115034,-0.24093 0.03313,-0.06829 0.101416,-0.105649 0.129392,-0.17467 0.01859,-0.04381 0.02152,-0.09626 0.0309,-0.142279 0.01012,-0.05172 0.03884,-0.101417 0.04233,-0.1524 0.01012,-0.123688 0.03608,-0.254551 0.01453,-0.379713"
       style="fill:#21201d;fill-opacity:1;fill-rule:nonzero;stroke:none;stroke-width:0.184057"
       id="path596" />
    <path
       d="m -32.839217,68.232254 c -0.0072,0.02152 -0.01012,0.04454 -0.01161,0.06681 0.01436,-0.02872 0.02872,-0.07344 0.04896,-0.150191 -0.01379,0.02797 -0.02815,0.05522 -0.03736,0.08338"
       style="fill:#21201d;fill-opacity:1;fill-rule:nonzero;stroke:none;stroke-width:0.184057"
       id="path598" />
    <path
       d="m -29.821803,68.657796 c -0.0094,0.0065 -0.023,0.0086 -0.03369,0.0065 -0.0059,-7.05e-4 -0.01161,-0.0021 -0.01729,-0.0042 -0.0021,0 -0.0065,-7.06e-4 -0.0086,-7.06e-4 -0.005,0.0014 -0.0072,0.0072 -0.01161,0.01013 -0.0057,0.0035 -0.01214,0.0072 -0.01785,0.01143 -0.0052,0.0028 -0.0072,0.0028 -0.01305,0.0028 -0.0085,-7.05e-4 -0.01637,0 -0.02431,0.0014 -0.01012,0.0021 -0.01951,0.0028 -0.02889,0.0028 -0.01859,7.05e-4 -0.03164,0.0094 -0.0473,0.01362 -0.01453,0.0052 -0.02889,0.0074 -0.04178,0.01453 -0.01013,0.0057 -0.01729,0.01069 -0.02872,0.01214 -0.0079,7.06e-4 -0.01658,7.06e-4 -0.02522,0.0021 -0.01803,0.0035 -0.03443,0.0057 -0.05245,0.0042 -0.01658,-7.06e-4 -0.03313,-0.0035 -0.0497,-0.005 -0.02152,-0.0021 -0.04086,-0.0037 -0.06184,0.0028 -0.01859,0.0059 -0.03663,0.01161 -0.05522,0.01658 -0.0086,0.0021 -0.01729,0.0079 -0.02667,0.0094 -0.0072,7.06e-4 -0.0151,0 -0.02226,0 -0.0151,0 -0.0302,0 -0.04528,0 -0.02448,0 -0.0497,0.0028 -0.07399,-0.0028 -0.0074,-0.0021 -0.01453,-0.0057 -0.02173,-0.0065 -0.0057,-7.05e-4 -0.01143,0 -0.01711,0 -0.01379,0 -0.02667,0 -0.03957,0.0014 -0.01087,0.0014 -0.02226,0.0014 -0.03239,0.005 -0.0057,0.0014 -0.01012,0.0059 -0.01584,0.0072 -0.0042,7.06e-4 -0.01012,7.06e-4 -0.01436,7.06e-4 -0.01288,-7.06e-4 -0.02596,0 -0.03884,-0.0021 -0.0086,-0.0014 -0.01729,-0.0028 -0.02596,-0.0028 -0.0042,0 -0.0092,0 -0.01436,0 -0.0079,0 -0.01288,-0.0014 -0.02081,-0.0042 -0.0094,-0.0028 -0.02448,-0.0021 -0.0309,-0.0086 -0.0028,-0.0037 -0.0021,-0.01161 -0.0021,-0.01584 7.05e-4,-0.0086 0.0028,-0.01235 0.0072,-0.01877 0.0028,-0.0042 0.0044,-0.0099 0.0072,-0.01288 0.0044,-0.0044 0.0094,-0.0028 0.01453,-0.0044 0.0099,-0.0028 0.01566,-0.01143 0.02575,-0.0151 0.0057,-0.0028 0.0151,-0.0014 0.01803,-0.0085 0.0028,-0.0066 -0.0014,-0.01235 -0.0044,-0.01803 -0.0035,-0.0072 -0.0072,-0.01013 -0.01436,-0.0151 -0.0099,-0.0057 -0.01933,-0.01436 -0.0302,-0.01877 -0.0028,-0.0014 -0.0065,-0.0014 -0.0099,-0.0028 -0.0074,-0.0021 -0.01305,-0.0065 -0.01951,-0.0094 -0.0086,-0.0037 -0.01933,-0.0037 -0.02724,-0.0044 -0.0094,-7.06e-4 -0.02099,-0.0014 -0.02963,0 -0.0092,0.0014 -0.02226,0.0044 -0.0309,0.0094 -0.01436,0.0079 -0.02797,0.01803 -0.0438,0.02522 -0.005,0.0021 -0.01013,0.0035 -0.01436,0.0072 -0.0035,0.0028 -0.0057,0.0065 -0.0094,0.0086 -0.0079,0.0065 -0.01584,0.01087 -0.023,0.01729 -0.0057,0.0057 -0.01069,0.01069 -0.01362,0.01859 -0.0028,0.0094 -0.0028,0.01877 -0.0065,0.02815 -0.0037,0.0099 -0.0065,0.01785 -0.0065,0.02872 v 0.02522 c 0,0.0099 0.0028,0.02081 0.0042,0.0309 7.06e-4,0.0085 0.0037,0.01711 0.0079,0.02505 0.0021,0.0052 0.0065,0.0094 0.0086,0.01436 0.0014,0.0052 0,0.01086 0.0014,0.01584 0.0014,0.0052 0.005,0.01087 0.0079,0.01584 0.005,0.0072 0.01436,0.01235 0.02226,0.01732 0.01012,0.0065 0.02007,0.01288 0.03239,0.01729 0.01143,0.0035 0.023,0.0072 0.03589,0.01069 0.01087,0.0021 0.02226,0.0028 0.03387,0.0052 0.023,0.0021 0.05025,0.0021 0.07325,-0.0044 0.0094,-0.0028 0.02007,-0.0035 0.02946,-0.0072 0.01305,-0.0042 0.02374,-0.0065 0.03663,-0.0079 0.01803,-0.0014 0.03681,-0.0057 0.0554,-0.0065 0.01729,-7.06e-4 0.03461,-0.0014 0.05117,-0.0021 0.03147,-7.05e-4 0.06313,-0.0099 0.09479,-0.01143 0.03387,-0.0014 0.06626,-0.01584 0.09774,-0.02596 0.03957,-0.01143 0.08135,-0.01214 0.121659,-0.01214 h 0.05025 c 0.01288,0 0.02596,-7.05e-4 0.03884,7.06e-4 0.02007,0.0028 0.0416,0.0021 0.06111,-0.0065 0.0079,-0.0028 0.01655,-0.0059 0.02522,-0.0074 0.0079,-0.0021 0.01859,-7.06e-4 0.02649,-7.06e-4 0.01235,0 0.02226,0.0021 0.03387,0.0021 0.01143,7.06e-4 0.02152,-0.0014 0.03239,-0.0021 0.01214,-7.05e-4 0.023,-0.0014 0.03443,-0.0044 0.01013,-0.0028 0.01951,-0.005 0.02946,-0.005 0.02374,0 0.04749,-0.0014 0.07197,0 0.01288,7.05e-4 0.023,0.0065 0.03313,0.01362 0.01436,0.01012 0.0309,0.01584 0.04657,0.02374 0.01951,0.0086 0.04546,0.02007 0.0497,0.04528 0.005,0.03514 -0.01012,0.07693 -0.0021,0.112825 0.0028,0.01013 0.01161,0.03239 0.01436,0.04105 0.0044,0.01143 0.01086,0.023 0.01658,0.03387 0.03238,0.05595 0.07473,0.09258 0.138042,0.107675 0.02152,0.0052 0.04454,-0.0035 0.06405,-0.0079 0.01658,-0.0042 0.03387,-0.0028 0.05025,-0.0065 0.02522,-0.005 0.04325,-0.02797 0.06405,-0.04307 0.02596,-0.01803 0.07841,-0.03589 0.07693,-0.07694 -7.05e-4,-0.0094 -0.0086,-0.02797 -0.0151,-0.03514 -0.02798,-0.0309 -0.0935,-0.01086 -0.130863,-0.01584 -0.01436,-0.0021 -0.02667,-0.0044 -0.04031,-0.01012 -0.01436,-0.0072 -0.02872,-0.01729 -0.04031,-0.02946 -0.01785,-0.01729 -0.03939,-0.04675 -0.03443,-0.07344 0.0065,-0.03443 0.14522,-0.07694 0.172462,-0.07694 0.04896,0 0.09718,0.0028 0.145404,0.0028 0.0092,0 0.02007,-0.0021 0.02872,-7.06e-4 0.01436,0.0028 0.02374,0.01362 0.03736,0.01803 0.02872,0.0086 0.09994,0.0086 0.124421,-0.0052 0.01785,-0.0099 0.02724,-0.01859 0.03295,-0.04013 0.0028,-0.01161 0.0094,-0.0554 7.05e-4,-0.06405 -0.01069,-0.01087 -0.05025,0.0021 -0.0646,-0.0014 -0.0079,-0.0014 -0.01013,-0.0079 -0.01803,-0.0099 -0.01086,-0.0028 -0.02649,7.05e-4 -0.0381,7.05e-4 h -0.130863 c -0.02226,0 -0.04454,-0.0021 -0.06607,-7.05e-4 -0.02226,0.0014 -0.04178,0.0099 -0.06553,0.0099 -0.02081,0 -0.05172,0.0057 -0.06828,-0.0065 -0.0086,-0.0065 -0.01288,-0.0151 -0.01729,-0.02448 -0.0028,-0.01658 -0.09129,0.01013 -0.09773,-0.0072 -0.0094,-0.02522 -0.03443,-0.05393 -0.05963,-0.05964 -0.03589,-0.0086 -0.0878,-7.06e-4 -0.120004,0.0072 -0.01161,0.0028 -0.02448,0.0079 -0.03461,0.01436"
       style="fill:#21201d;fill-opacity:1;fill-rule:nonzero;stroke:none;stroke-width:0.184057"
       id="path600" />
  </g>
</svg>
