<?xml version="1.0" encoding="UTF-8" standalone="no"?>
<!-- Created with Inkscape (http://www.inkscape.org/) -->

<svg
   width="7.0824628mm"
   height="6.3317389mm"
   viewBox="0 0 7.0824628 6.3317389"
   version="1.1"
   id="svg4186"
   inkscape:version="1.1.2 (0a00cf5339, 2022-02-04)"
   sodipodi:docname="m1.svg"
   xmlns:inkscape="http://www.inkscape.org/namespaces/inkscape"
   xmlns:sodipodi="http://sodipodi.sourceforge.net/DTD/sodipodi-0.dtd"
   xmlns="http://www.w3.org/2000/svg"
   xmlns:svg="http://www.w3.org/2000/svg">
  <sodipodi:namedview
     id="namedview4188"
     pagecolor="#ffffff"
     bordercolor="#666666"
     borderopacity="1.0"
     inkscape:pageshadow="2"
     inkscape:pageopacity="0.0"
     inkscape:pagecheckerboard="0"
     inkscape:document-units="mm"
     showgrid="false"
     inkscape:zoom="0.64052329"
     inkscape:cx="-1053.8259"
     inkscape:cy="377.03547"
     inkscape:window-width="2560"
     inkscape:window-height="1376"
     inkscape:window-x="0"
     inkscape:window-y="0"
     inkscape:window-maximized="1"
     inkscape:current-layer="layer1" />
  <defs
     id="defs4183" />
  <g
     inkscape:label="Layer 1"
     inkscape:groupmode="layer"
     id="layer1"
     transform="translate(-383.9219,-48.881433)">
    <path
       d="m 387.51888,50.364866 c 0.004,0.145221 -0.0388,0.364621 0.15313,0.391125 0.30553,0.04178 0.61033,0.08264 0.91513,0.124421 0.069,0.01013 0.11724,0.01143 0.1489,-0.06976 0.0173,-0.0438 0.0129,-0.108592 0.0186,-0.154608 l 0.0309,-0.26173 c 0.005,-0.03957 10e-4,-0.09626 0.0166,-0.132891 0.0158,-0.0381 0.0604,-0.07767 0.0848,-0.110067 0.0935,-0.120004 0.18056,-0.252342 0.28253,-0.364433 0.0799,-0.0878 0.18847,-0.09865 0.29909,-0.123688 0.0504,-0.01161 0.0769,-0.02152 0.12515,-0.0079 0.0799,0.02152 0.15885,0.04528 0.23799,0.06828 0.0784,0.023 0.13307,0.06111 0.19197,0.12295 0.0948,0.09847 0.20265,0.176145 0.25234,0.30977 0.0423,0.113013 0.10215,0.302038 0.0626,0.422046 -0.0381,0.116508 -0.13951,0.243142 -0.23154,0.321363 -0.049,0.04105 -0.10068,0.07915 -0.15737,0.107858 -0.0316,0.0151 -0.0618,0.02522 -0.0957,0.03387 -0.0324,0.0072 -0.0733,0 -0.10215,0.01139 0.005,0.03461 0.0957,0.02667 0.11798,0.03037 0.0633,0.01069 0.12221,0.02723 0.187,0.02649 0.12148,0 0.20909,-0.05614 0.30554,-0.121479 0.0475,-0.03164 0.0826,-0.0727 0.1165,-0.119454 0.0423,-0.0589 0.0891,-0.112091 0.13068,-0.168779 0.0519,-0.06976 0.10215,-0.143196 0.10657,-0.230075 0.005,-0.09718 0.0243,-0.186266 -0.0124,-0.276821 l -0.16528,-0.412842 c -0.044,-0.109146 -0.0871,-0.217741 -0.13086,-0.326333 -0.0453,-0.04307 -0.0885,-0.09497 -0.13878,-0.132341 -0.0339,-0.02522 -0.0611,-0.02649 -0.10491,-0.03369 -0.10933,-0.01877 -0.23872,-0.06553 -0.34879,-0.04528 -0.0804,0.01436 -0.16031,0.03514 -0.24019,0.05246 -0.0574,0.01288 -0.13142,0.01711 -0.18535,0.04086 -0.0806,0.03608 -0.15755,0.12295 -0.22657,0.178354 -0.13657,0.108592 -0.27314,0.217188 -0.40916,0.32578 -0.0315,0.02575 -0.074,0.05025 -0.10123,0.08117 -0.0302,0.03387 -0.0482,0.08706 -0.0697,0.127921 -0.0116,0.02226 -0.0317,0.0497 -0.0381,0.07418 -0.006,0.02374 -7.1e-4,0.04454 -0.0116,0.06755 -0.0245,0.05246 -0.0869,0.09276 -0.12792,0.1316 -0.0431,0.04086 -0.0826,0.09405 -0.14099,0.112092 -0.0547,0.01729 -0.10491,-0.0018 -0.16105,-0.01214 -0.0782,-0.01436 -0.15239,-0.01877 -0.21424,-0.0727 -0.11282,-0.09995 -0.11853,-0.273141 -0.1165,-0.416337 0.001,-0.135837 0.10509,-0.281058 0.24737,-0.280321 0.16252,0 0.20853,0.121475 0.22583,0.2632 0.009,0.06902 0.0337,0.179642 0.005,0.245904 -0.0302,0.06755 -0.11651,0.05669 -0.17191,0.04233 -0.0387,0.08191 0.21939,0.09276 0.25676,0.07049 0.0445,-0.02522 0.0497,-0.07197 0.0675,-0.117242 0.0267,-0.06829 0.0547,-0.140807 0.0747,-0.212037 0.0245,-0.0878 0.0641,-0.192708 0.0396,-0.283263 -0.0223,-0.07915 -0.0445,-0.158291 -0.0668,-0.237253 -0.0129,-0.04748 -0.0173,-0.05687 -0.0524,-0.09 -0.0403,-0.0381 -0.0849,-0.09847 -0.13308,-0.124237 -0.0898,-0.04675 -0.20632,-0.05908 -0.30479,-0.04602 -0.0826,0.01143 -0.16529,0.02226 -0.24811,0.03295 -0.0423,0.0059 -0.0804,0.01161 -0.1143,0.04325 -0.0488,0.04455 -0.097,0.138783 -0.10141,0.205596 -0.007,0.125712 0.006,0.257312 0.009,0.383208 0.004,0.17835 0.009,0.356521 0.013,0.534871"
       style="fill:#21201d;fill-opacity:1;fill-rule:nonzero;stroke:none;stroke-width:0.184057"
       id="path602" />
    <path
       d="m 390.76562,51.362829 c -0.0683,-0.06037 -0.17687,-0.08264 -0.26172,-0.112829 -0.0554,-0.01951 -0.17173,-0.04325 -0.21277,0.02374 -0.0287,0.0473 0.0267,0.199887 0.0812,0.218475 0.001,-0.0099 0.007,-0.02007 0.007,-0.0302 -0.003,0.0151 -7e-4,0.023 0.004,0.02872 0.009,0.01161 0.0287,0.01087 0.0453,0.02173 0.049,0.03147 0.0633,0.09258 0.0525,0.145959 -0.0302,0.147246 -0.17835,0.192525 -0.30554,0.21995 -0.0582,0.01288 -0.12571,0.0309 -0.18552,0.02448 -0.0639,-0.0072 -0.12719,-0.03094 -0.18682,-0.05393 -0.0124,-0.0044 -0.026,-0.0151 -0.0381,-0.01877 -0.0109,-0.0021 -0.021,0 -0.0324,-0.0028 -0.0109,-0.0035 -0.0202,-0.01069 -0.0309,-0.0151 -0.0445,-0.01711 -0.0893,-0.03369 -0.12865,-0.06037 -0.0663,-0.04528 -0.1432,-0.07822 -0.20062,-0.136571 -0.0331,-0.03443 -0.0705,-0.06258 -0.10492,-0.09553 -0.0324,-0.0309 -0.0799,-0.04675 -0.12092,-0.06552 -0.0856,-0.0381 -0.1697,-0.06902 -0.26099,-0.08411 -0.0416,-0.0072 -0.0861,0.0044 -0.12719,-0.005 -0.041,-0.0086 -0.0806,-0.0079 -0.12294,-0.0079 -0.0302,0 -0.0596,-0.0018 -0.0891,0 -0.0173,0 -0.026,0.0065 -0.0418,0.01288 -0.0201,0.0094 -0.0381,0.0028 -0.0576,0.0086 -0.0144,0.005 -0.0236,0.01729 -0.0416,0.01933 -0.0158,0.0028 -0.028,0 -0.0431,0.0059 -0.0138,0.005 -0.023,0.01362 -0.0375,0.01658 -0.0186,0.0042 -0.0272,0.0099 -0.0438,0.01785 -0.0258,0.01362 -0.0567,0.01436 -0.0812,0.03094 -0.018,0.01235 -0.0143,0.01362 -0.0381,0.01436 -0.0151,0 -0.0309,0 -0.0467,0 -0.0316,0 -0.0633,0 -0.095,0 -0.0166,0 -0.0344,0.0018 -0.0503,-0.0021 -0.006,-0.0021 -0.026,-0.0072 -0.0324,-0.01087 -0.0101,-0.0065 -0.0215,-0.02374 -0.0309,-0.03238 -0.0101,-0.0099 -0.0188,-0.01933 -0.023,-0.03369 -0.0195,-0.08135 0.007,-0.168966 0.0618,-0.230074 0.0596,-0.067 0.0963,-0.139517 0.1905,-0.162522 0.018,-0.0044 0.0576,0.0072 0.0641,-0.01235 0.003,-0.0079 -0.008,-0.03517 -0.0131,-0.04012 -0.0114,-0.01161 -0.0438,-0.02667 -0.0567,-0.03461 -0.0165,-0.01013 -0.0324,-0.0151 -0.0512,-0.02152 -0.0208,-0.0079 -0.0344,-0.0094 -0.0589,-0.0094 -0.018,0 -0.0366,0 -0.0554,0 -0.0237,0 -0.0295,0.0044 -0.0488,0.01013 -0.0223,0.0079 -0.0519,0.005 -0.0747,0.01012 -0.0274,0.0057 -0.0403,0.02575 -0.0626,0.04013 -0.023,0.01584 -0.0447,0.02226 -0.0641,0.04454 -0.0309,0.03681 -0.0648,0.06921 -0.092,0.108595 -0.0272,0.03736 -0.0497,0.08927 -0.0633,0.133809 -0.01,0.03238 -0.0158,0.06976 -0.0215,0.102887 -0.004,0.02798 -0.0114,0.05743 -0.0129,0.08467 -0.004,0.05614 7e-4,0.11375 7e-4,0.169704 0,0.04601 0,0.09276 0.009,0.137308 0.0109,0.04748 0.0467,0.09645 0.072,0.136754 0.0215,0.03443 0.0403,0.05963 0.0762,0.08191 0.0359,0.02226 0.0863,0.01288 0.12663,0.01288 0.0388,0 0.0777,-0.0018 0.11577,0.0057 0.0144,0.0037 0.028,0.0052 0.0431,0.0052 0.0381,0 0.1373,-0.0028 0.16031,0.03589 0.0151,0.02522 -0.0223,0.103625 -0.0188,0.138045 0.004,0.04031 0.0237,0.141725 0.049,0.173383 0.0445,0.05595 0.18111,0.04657 0.2459,0.05522 0.11577,0.01584 0.2343,0.0037 0.35376,-0.0021 0.0351,-0.0021 0.0791,0.005 0.095,-0.01729 0.0302,-0.04325 -0.013,-0.135283 0.0129,-0.181299 0.0121,-0.02357 0.0747,-0.06755 0.10068,-0.07105 0.0396,-0.0052 0.10123,0.01933 0.14006,0.02723 0.1605,0.03094 0.31934,0.06184 0.47965,0.09277 0.0503,0.0094 0.10142,0.023 0.1524,0.02872 0.0992,0.01231 0.20706,-0.0042 0.307,-0.0079 0.0762,-0.0028 0.1524,-0.005 0.22934,-0.0079 0.074,-0.0021 0.16676,0.0072 0.23799,-0.01214 0.11503,-0.03164 0.17908,-0.204855 0.23651,-0.297621 0.0331,-0.05319 0.0683,-0.105096 0.0863,-0.166755 0.0201,-0.067 0.0208,-0.116512 0.0173,-0.185533 -0.004,-0.07915 -0.0274,-0.162521 -0.0878,-0.217187"
       style="fill:#21201d;fill-opacity:1;fill-rule:nonzero;stroke:none;stroke-width:0.184057"
       id="path604" />
    <path
       d="m 390.96698,49.410895 c -0.0158,-0.04325 -0.0467,-0.07565 -0.072,-0.113012 -0.0265,-0.0381 -0.046,-0.09479 -0.0812,-0.124975 -0.0353,-0.0302 -0.0893,-0.0497 -0.12939,-0.0727 l -0.20357,-0.113563 c -0.0431,-0.02374 -0.0698,-0.04252 -0.11706,-0.04749 -0.16326,-0.01859 -0.32799,-0.02798 -0.49106,-0.04105 -0.0591,-0.005 -0.13307,-0.023 -0.19124,-0.01436 -0.0655,0.0086 -0.13748,0.0497 -0.19988,0.07344 -0.0663,0.02505 -0.13675,0.04602 -0.20062,0.0762 -0.0554,0.02575 -0.10289,0.0646 -0.15903,0.08982 -0.0876,0.03884 -0.25951,0.101417 -0.31271,-0.02152 -0.0178,-0.04252 -0.009,-0.08485 0.0116,-0.12295 0.0237,-0.04307 0.0237,-0.06332 -0.0403,-0.04178 -0.11283,0.03957 -0.1524,0.166941 -0.13234,0.2748 0.0123,0.06184 0.0547,0.102704 0.1143,0.127183 0.0468,0.01933 0.0856,0.02374 0.13731,0.01933 0.0618,-0.005 0.10289,-0.0302 0.15902,-0.04877 0.13584,-0.0438 0.26817,-0.09056 0.4018,-0.143196 0.0569,-0.02226 0.13013,-0.06902 0.1905,-0.07473 0.0532,-0.0057 0.12589,0.02081 0.17835,0.0302 0.0576,0.01013 0.0942,0.03387 0.1546,0.03607 0.0668,0.0035 0.13013,0.0085 0.19418,0.02649 0.14301,0.04105 0.25879,0.129392 0.38468,0.202829 0.0582,0.03369 0.11927,0.06461 0.16823,0.112829 0.0552,0.05393 0.0849,0.137308 0.12295,0.204121 0.0552,0.09792 0.0926,0.184058 0.0977,0.297071 0.002,0.05245 0.0114,0.06534 0.0302,0.0065 0.0215,-0.06829 0.0215,-0.137309 0.0215,-0.208538 7.1e-4,-0.130129 0.008,-0.263204 -0.0366,-0.388179"
       style="fill:#21201d;fill-opacity:1;fill-rule:nonzero;stroke:none;stroke-width:0.184057"
       id="path606" />
    <path
       d="m 388.79991,52.556262 c -0.003,-0.01785 -7.1e-4,-0.0532 -0.0107,-0.06829 -0.0202,-0.02872 -0.13087,-0.02374 -0.1697,-0.02798 -0.1467,-0.01803 -0.29412,-0.03461 -0.44137,-0.04896 -0.009,0.13455 -0.0346,0.279771 -0.026,0.414867 0.009,0.132338 0.1143,0.290445 0.17246,0.412108 0.0504,0.103438 0.0935,0.255838 0.17485,0.335721 0.0423,0.0416 0.17172,0.157371 0.22786,0.145958 0.0166,-0.0028 0.0819,-0.03461 0.0906,-0.04749 0.0158,-0.02448 0,-0.07694 -0.004,-0.110804 -0.0173,-0.157367 -0.0281,-0.314188 -0.0396,-0.471555 -0.005,-0.06681 -0.0101,-0.133812 -0.0151,-0.200624 -0.004,-0.05466 -0.021,-0.121479 -0.0109,-0.175409 0.0101,-0.05245 0.0346,-0.105646 0.051,-0.15755"
       style="fill:#21201d;fill-opacity:1;fill-rule:nonzero;stroke:none;stroke-width:0.184057"
       id="path608" />
    <path
       d="m 390.38021,52.65197 c -0.006,-0.02667 -0.008,-0.06184 -0.0257,-0.08485 -0.018,-0.02374 -0.0403,-0.04528 -0.0626,-0.06479 -10e-4,0 -0.003,-0.0021 -0.004,-0.0028 -0.023,-0.02025 -0.0381,-0.0438 -0.0624,-0.06258 -0.0289,-0.02081 -0.067,-0.03094 -0.10141,-0.0381 -0.0267,-0.0057 -0.0547,-0.01362 -0.0834,-0.01087 -0.0316,0.0028 -0.067,0.01012 -0.095,0.02448 -0.0151,0.0079 -0.0648,0.01803 -0.0618,0.03736 0.0201,0 0.0438,0.0151 0.0589,0.02522 0.0188,0.01288 0.0374,0.02448 0.0532,0.04233 0.0101,0.01235 0.0296,0.03387 0.0346,0.0497 0.007,0.023 -7e-4,0.06037 -7e-4,0.08485 0,0.0151 -0.005,0.02152 -0.008,0.03313 -0.004,0.01933 -0.002,0.03884 -0.002,0.05964 0,0.03736 -0.007,0.06037 -0.0186,0.09626 -0.0136,0.04252 -0.0188,0.0878 -0.0438,0.12663 -0.0109,0.0094 -0.0217,0.01933 -0.0309,0.03094 -0.007,0.01069 -0.0123,0.02226 -0.0138,0.03443 -0.0129,0.02596 -0.0272,0.04822 -0.0438,0.07197 -0.0252,0.0381 -0.0418,0.07915 -0.0705,0.1143 -0.0287,0.03663 -0.0482,0.0819 -0.0784,0.117246 -0.0431,0.04951 -0.097,0.09847 -0.12866,0.157367 -0.0165,0.02946 -0.0381,0.05172 -0.0475,0.08412 -0.008,0.02667 -0.0265,0.05963 -0.0401,0.08485 -0.018,0.03387 -0.0468,0.06037 -0.0618,0.09645 -0.0267,0.06755 -0.0871,0.05172 -0.15461,0.05246 -0.0668,0.0018 -0.14448,-0.01013 -0.20854,0.0086 -0.0143,0.0035 -0.0265,0.01069 -0.0396,0.01584 -0.0179,0.005 -0.0366,0.005 -0.0554,0.005 -0.0193,0 -0.0322,0.0042 -0.051,0.0079 -0.0109,0.0028 -0.018,0 -0.0295,0.0021 -0.0116,0.0018 -0.0144,0.0065 -0.023,0.0085 -0.0208,0.0044 -0.0403,0.0052 -0.0604,0.01087 -0.0512,0.01288 -0.11725,0.0021 -0.17044,0.0021 h -0.0935 c -0.0316,0 -0.0539,-0.0044 -0.0841,-0.0094 -0.0517,-0.01012 -0.097,0.01288 -0.14743,0.0094 -0.0438,-0.0021 -0.0826,-0.02155 -0.12865,-0.02099 -0.028,0 -0.0446,-0.0065 -0.0705,-0.01139 -0.0374,-0.0065 -0.0782,0.0018 -0.11577,0 -0.0381,0 -0.0703,-0.0028 -0.10767,0.0065 -0.0455,0.0094 -0.092,0.01951 -0.13308,0.04252 -0.0353,0.01933 -0.0604,0.05098 -0.0806,0.08467 -0.0151,0.02448 -0.0272,0.04969 -0.0394,0.07565 -0.0166,0.03443 -0.0403,0.0624 -0.0482,0.10123 -0.006,0.02815 -0.0144,0.04896 -0.0274,0.07417 -0.006,0.01362 -0.005,0.02575 -0.008,0.03957 -0.008,0.02946 -0.0274,0.05393 -0.0383,0.08117 -0.006,0.01729 -0.009,0.04454 -0.0129,0.06332 -10e-4,0.01069 7.1e-4,0.01859 -10e-4,0.02797 -0.002,0.0094 -0.007,0.01729 -0.009,0.02798 -0.005,0.05043 0,0.101416 0.007,0.150375 0.007,0.04675 0.0223,0.09626 0.0179,0.14375 -0.003,0.03094 -0.0158,0.0589 -0.0166,0.08982 -0.003,0.05319 7e-4,0.107121 0.003,0.160313 7.1e-4,0.03037 -0.006,0.08633 0.008,0.113013 0.0223,0.04307 0.0698,0.02007 0.11725,0.02505 0.17025,0.01729 0.34215,0.02667 0.51333,0.03387 0.0416,0 0.0841,0 0.12571,0.0042 0.0237,0.0028 0.044,0.01305 0.0663,0.01877 0.0718,0.01729 0.1581,0.0044 0.23209,0.0044 0.0138,0 0.0289,0.0021 0.0425,0 0.0101,0 0.0151,-0.0059 0.023,-0.0079 0.0223,-0.0066 0.0468,0 0.069,-0.0044 0.009,-0.0021 0.0107,-0.0079 0.023,-0.0086 0.0129,-0.0021 0.0208,-0.0021 0.0317,-0.005 0.0495,-0.01584 0.0812,-0.05835 0.12644,-0.0819 0.0151,-0.0079 0.023,-0.0094 0.0317,-0.02448 0.0101,-0.0151 0.009,-0.03164 0.0202,-0.04675 0.0193,-0.023 0.0387,-0.04178 0.0532,-0.06902 0.0151,-0.02741 0.0366,-0.05117 0.0502,-0.07841 0.0158,-0.02797 0.0129,-0.06332 0.0129,-0.09497 7.1e-4,-0.03736 -0.0107,-0.07749 -0.0237,-0.113563 -0.005,-0.01584 -0.008,-0.02007 -0.0201,-0.03238 -0.0208,-0.02007 -0.0316,-0.04381 -0.051,-0.06534 -0.009,-0.01013 -0.0203,-0.01436 -0.0309,-0.02226 -0.0123,-0.0086 -0.0202,-0.02081 -0.0317,-0.02946 -0.0294,-0.02152 -0.0727,-0.02099 -0.10638,-0.02889 -0.049,-0.01069 -0.10215,-0.0021 -0.14964,0.0059 -0.0193,0.0035 -0.0539,-0.0052 -0.0668,0.01362 0.0547,-0.0037 0.12001,0 0.16455,0.0309 0.0195,0.01362 0.0289,0.03238 0.0455,0.05025 0.0186,0.02173 0.0215,0.03387 0.0158,0.06332 -0.006,0.02741 -0.0331,0.08927 -0.0633,0.105647 -0.0287,0.0151 -0.0906,0.0044 -0.12075,-0.0035 -0.0153,-0.0037 -0.0296,-0.01087 -0.044,-0.0151 -0.0381,-0.01161 -0.0804,-0.0065 -0.11927,-0.0065 -0.0618,0 -0.12516,0.0057 -0.18774,0.0057 -0.0144,0 -0.0374,0.005 -0.0503,-0.0021 -0.0195,-0.01013 -0.0136,-0.01584 -0.0388,-0.01859 -0.0188,-0.0018 -0.0302,-0.0059 -0.0475,-0.01087 -0.0101,-0.0028 -0.0309,-0.0037 -0.0396,-0.01214 -0.0107,-0.01087 -0.0186,-0.0309 -0.0251,-0.04399 -0.0153,-0.03295 -0.008,-0.05816 0.004,-0.09056 0.0151,-0.04031 0.0344,-0.06755 0.0683,-0.09553 0.0381,-0.0309 0.0812,-0.04601 0.12865,-0.06258 0.0267,-0.01013 0.0554,-0.01951 0.0841,-0.02152 0.0252,-0.0018 0.0512,0.0028 0.0762,-0.0021 0.0158,-0.0028 0.0245,-0.0072 0.0403,-0.0079 0.0201,-0.0018 0.0396,-0.0079 0.0589,-0.0086 0.0131,0 0.0252,0.0057 0.0376,0.0079 0.0596,0.0072 0.12497,0 0.18461,0 0.0605,0 0.11945,0 0.17908,0 0.11945,0 0.23873,-0.0018 0.35799,-0.0021 0.0526,0 0.10584,0 0.15903,-0.0018 0.0329,0 0.11503,0.0151 0.14522,-0.0018 0.0114,-0.0072 0.0215,-0.023 0.0309,-0.03534 0.0495,-0.06534 0.0955,-0.1351 0.14946,-0.195471 0.0453,-0.05043 0.0655,-0.137308 0.087,-0.201358 0.009,-0.02872 0.0151,-0.06185 0.028,-0.08908 0.0109,-0.02155 0.0281,-0.03534 0.0425,-0.0532 0.0114,-0.0151 0.0151,-0.03534 0.0265,-0.05117 0.0131,-0.01933 0.0339,-0.03295 0.0475,-0.05172 0.0331,-0.04601 0.0648,-0.097 0.0906,-0.147429 0.0109,-0.02081 0.0267,-0.03663 0.0381,-0.05742 0.009,-0.0151 0.0136,-0.03461 0.023,-0.04896 0.009,-0.01288 0.0215,-0.023 0.0302,-0.03589 0.007,-0.01305 0.0124,-0.02667 0.0203,-0.03957 0.0438,-0.07197 0.0755,-0.149638 0.1086,-0.227129 0.0307,-0.07491 0.0574,-0.148167 0.0696,-0.228046 0.009,-0.05522 7e-4,-0.118533 7e-4,-0.174671 0,-0.0302 -10e-4,-0.05467 -0.008,-0.08338"
       style="fill:#21201d;fill-opacity:1;fill-rule:nonzero;stroke:none;stroke-width:0.184057"
       id="path610" />
    <path
       d="m 389.79142,50.498678 c -0.0121,0.02226 -0.0295,0.03443 -0.051,0.04748 -0.069,0.03939 -0.12736,0.08982 -0.21221,0.07547 -0.0302,-0.0052 -0.0675,-0.0065 -0.0963,-0.01584 -0.0388,-0.01161 -0.046,-0.02226 -0.072,-0.05246 -0.0366,-0.04601 -0.0933,-0.104359 -0.1143,-0.159025 -0.0107,-0.02798 -0.004,-0.05743 -0.006,-0.08687 -7.1e-4,-0.01951 -0.002,-0.03957 0,-0.05982 0.002,-0.0099 0.004,-0.01933 0.009,-0.02946 0.004,-0.0072 0.0101,-0.0151 0.0144,-0.023 0.009,-0.01658 0.0165,-0.03295 0.028,-0.04877 0.0195,-0.02815 0.049,-0.0519 0.0734,-0.0762 0.0287,-0.02889 0.0561,-0.05393 0.0977,-0.06111 0.0173,-0.0028 0.0561,-0.0044 0.074,0 0.0131,0.0028 0.0166,0.0092 0.0309,0.01143 0.0101,0.0018 0.021,-0.0028 0.0316,0 0.0136,0.0021 0.0203,0.01231 0.0317,0.01658 0.0101,0.0042 0.0208,0.0028 0.0316,0.0086 0.0121,0.0065 0.026,0.03313 0.0366,0.0438 0.0116,0.01161 0.0252,0.02226 0.0346,0.03589 0.008,0.01305 0.0129,0.02963 0.0208,0.04325 0.009,0.01584 0.0223,0.02649 0.0317,0.0416 0.0107,0.01584 0.0316,0.04399 0.0344,0.06258 0.0123,0.06902 0.006,0.163996 -0.0287,0.226575 m 0.33443,-0.394067 c -0.004,-0.03164 -0.0267,-0.06111 -0.0433,-0.08706 -0.0179,-0.02872 -0.0337,-0.04951 -0.0567,-0.07547 -0.0237,-0.02505 -0.0561,-0.03663 -0.0848,-0.05466 -0.0309,-0.01859 -0.0663,-0.03589 -0.1,-0.04951 -0.0316,-0.01214 -0.067,-0.0151 -0.0979,-0.0302 -0.028,-0.0151 -0.0503,-0.03461 -0.0841,-0.0381 -0.0272,-0.0037 -0.0502,-0.0044 -0.0755,-0.01584 -0.0179,-0.0072 -0.033,-0.01729 -0.0532,-0.01877 -0.0186,-0.0018 -0.0366,0.0044 -0.0547,0.0086 -0.0747,0.01658 -0.1546,0.02448 -0.22418,0.05614 -0.0497,0.023 -0.0942,0.07694 -0.13528,0.112829 -0.0344,0.0302 -0.0661,0.05117 -0.0819,0.09129 -0.0324,0.08209 -0.0366,0.185529 -0.0539,0.271854 -0.0129,0.06828 -0.0517,0.162521 -0.0425,0.230808 0.006,0.04012 0.0296,0.08411 0.0433,0.122951 0.0121,0.0416 0.0166,0.0589 0.0438,0.08982 0.0482,0.05614 0.12074,0.145959 0.18976,0.168229 0.0806,0.02723 0.18056,0.03883 0.26615,0.03736 0.0445,-0.0018 0.0861,-0.01288 0.13013,-0.01803 0.0258,-0.0028 0.051,-0.0028 0.0762,-0.0085 0.025,-0.0059 0.0352,-0.01436 0.056,-0.02889 0.009,-0.0057 0.018,-0.0086 0.0267,-0.0151 0.0403,-0.02649 0.0611,-0.07896 0.10859,-0.09626 0.009,-0.0037 0.0237,-0.0094 0.0317,-0.01087 0.0114,-0.0021 0.025,0.0028 0.0366,0 0.0136,-0.0042 0.0302,-0.02078 0.0438,-0.02872 0.0237,-0.01362 0.0438,-0.04454 0.0611,-0.06607 0.0144,-0.01951 0.0324,-0.05043 0.0396,-0.07344 0.0101,-0.03443 0.008,-0.06037 0.028,-0.08982 0.0202,-0.02798 0.0274,-0.04951 0.0267,-0.08411 0,-0.06185 0.004,-0.123688 -0.008,-0.184058 -0.004,-0.02226 -0.006,-0.04178 -0.0109,-0.06332 -0.004,-0.01785 7e-4,-0.03443 -10e-4,-0.05245"
       style="fill:#21201d;fill-opacity:1;fill-rule:nonzero;stroke:none;stroke-width:0.184057"
       id="path612" />
    <path
       d="m 385.41291,49.325308 c -0.0698,-0.04823 -0.0985,-0.08264 -0.18038,-0.07546 l -0.50763,0.04601 c -0.0453,0.0042 -0.0517,0.0057 -0.0856,0.0381 -0.0396,0.03736 -0.0963,0.0762 -0.12663,0.122216 -0.0223,0.03443 -0.033,0.08338 -0.048,0.120005 -0.0339,0.08411 -0.0675,0.167492 -0.10142,0.251608 -0.0351,0.0878 -0.0705,0.174671 -0.10565,0.261729 -0.0195,0.04822 -0.0497,0.100679 -0.0604,0.150929 -0.009,0.03883 7.1e-4,0.08356 0.004,0.12295 0.004,0.05319 -0.003,0.120925 0.0158,0.170438 0.0245,0.06755 0.0813,0.135283 0.11798,0.196941 0.0186,0.03094 0.0374,0.06129 0.0559,0.09277 0.009,0.01453 0.0173,0.03534 0.0289,0.04822 10e-4,0.0018 0.002,0.0028 0.004,0.0037 0.0109,0.0099 0.026,0.01711 0.0388,0.02431 0.0453,0.02741 0.0885,0.05467 0.13012,0.0878 0.0346,0.02797 0.069,0.05172 0.10859,0.07123 0.0467,0.023 0.11357,0.05669 0.16676,0.05669 0.026,0 0.0596,0.0052 0.0849,0 0.0136,-0.0035 0.0208,-0.0092 0.0361,-0.0114 0.0136,-0.0018 0.028,0 0.0423,0 0.028,0 0.0618,0.005 0.0891,-0.0018 0.0289,-0.0057 0.0569,-0.02226 0.0841,-0.0302 0.0158,-0.0044 0.0138,0.0042 0.0274,-0.01231 0.006,-0.0079 0.006,-0.02081 0.0129,-0.02872 0.006,-0.0079 0.0144,-0.01362 0.0252,-0.01214 -0.0604,0.0021 -0.1108,0 -0.16473,-0.02099 -0.0295,-0.01143 -0.0604,-0.01214 -0.0898,-0.02007 -0.0245,-0.0057 -0.0453,-0.01013 -0.0683,-0.02226 -0.0359,-0.01803 -0.074,-0.02946 -0.10491,-0.05245 -0.0346,-0.02448 -0.0705,-0.04602 -0.10583,-0.0705 -0.0186,-0.01362 -0.0337,-0.02374 -0.0532,-0.03443 -0.0158,-0.0094 -0.0381,-0.01951 -0.0517,-0.03387 -0.0351,-0.03517 -0.0589,-0.09424 -0.0819,-0.137308 -0.0143,-0.02797 -0.0202,-0.05319 -0.026,-0.08412 -0.006,-0.02872 -0.0186,-0.05172 -0.0186,-0.08135 -7.1e-4,-0.03147 0,-0.06313 0,-0.09479 0,-0.02872 0.008,-0.05614 0.01,-0.08485 0.003,-0.02522 0.0144,-0.0554 0.0215,-0.08135 0.007,-0.02649 0.0224,-0.04657 0.0346,-0.07105 0.0201,-0.04105 0.0467,-0.08927 0.0871,-0.1143 0.0171,-0.01087 0.0329,-0.01951 0.0473,-0.03461 0.0368,-0.03884 0.0705,-0.0762 0.11375,-0.107858 0.0467,-0.03369 0.097,-0.06184 0.14725,-0.08908 0.12884,-0.06902 0.23448,-0.138042 0.38541,-0.142463 0.0604,-0.0018 0.12516,0.02226 0.18553,0.03534 0.0445,0.01012 0.0834,0.01214 0.11651,0.04031 0.0517,0.04233 0.0948,0.107121 0.13878,0.158105 0.0626,0.07197 0.12497,0.143012 0.18755,0.214245 0.0425,0.0497 0.10215,0.09921 0.13528,0.155342 0.0171,0.02797 0.0171,0.05246 0.0215,0.08761 0.0107,0.08706 0.0215,0.174121 0.0324,0.26173 0.008,0.06332 0.004,0.146695 0.025,0.207066 0.0361,0.09847 0.0999,0.07546 0.18258,0.06405 0.17688,-0.02448 0.35302,-0.04896 0.53063,-0.07344 0.0863,-0.01214 0.17191,-0.02431 0.25823,-0.03589 0.0381,-0.0057 0.0977,-0.0021 0.13363,-0.01859 0.0698,-0.03164 0.0893,-0.0935 0.0885,-0.1605 l -0.006,-1.013608 c 0,-0.06405 0,-0.128104 0,-0.192708 -7.1e-4,-0.02025 0.004,-0.05043 -0.002,-0.06902 -0.041,-0.106384 -0.1697,-0.103625 -0.26025,-0.111538 -0.0913,-0.0072 -0.18203,-0.01584 -0.27332,-0.023 -0.0475,-0.0042 -0.0668,-0.0079 -0.1086,0.01161 -0.10638,0.04951 -0.21277,0.08908 -0.26228,0.202646 -0.0309,0.07344 -0.046,0.159763 -0.0677,0.236517 -0.0114,0.03957 -0.025,0.07344 -0.0223,0.112275 0.007,0.07399 0.0217,0.14375 0.0453,0.212771 0.008,0.02152 0.0151,0.04252 0.0237,0.06405 0.009,0.02226 0.009,0.04748 0.0202,0.06902 0.006,0.01362 0.0144,0.02522 0.0223,0.0381 0.007,0.01214 0.0121,0.02946 0.0201,0.04031 0.008,0.0099 0.0216,0.01785 0.0295,0.02872 0.013,0.01584 0.0158,0.0302 0.0324,0.04454 0.0116,0.01087 0.0223,0.02522 0.0346,0.03387 0.0237,0.01859 0.0639,0.03443 0.0913,0.04233 0.0158,0.0042 0.0258,0.0094 0.0416,0.01584 0.0166,0.0065 0.0331,0.0028 0.0504,0.0079 0.006,0 0.0107,0.0065 0.0178,0.0079 0.008,0.0018 0.018,0 0.0267,0 0.0208,0 0.0388,0.0042 0.0554,-0.0072 0.0215,-0.01436 0.0366,-0.03957 0.0567,-0.0554 -0.0215,-0.01214 -0.0396,-0.0035 -0.0596,-0.01012 -0.009,-0.0028 -0.0272,-0.01637 -0.0351,-0.02283 -0.023,-0.01658 -0.0388,-0.04473 -0.0512,-0.06976 -0.006,-0.01161 -0.004,-0.01086 -0.008,-0.02374 -0.002,-0.0065 -0.007,-0.01803 -0.009,-0.02374 -0.002,-0.0079 7e-4,-0.01658 -0.002,-0.02374 -0.002,-0.0079 -0.008,-0.0151 -0.009,-0.02155 -0.009,-0.03607 -0.001,-0.08283 -0.001,-0.120188 0,-0.03663 -0.009,-0.09056 0,-0.127187 0.003,-0.01288 0.009,-0.02226 0.0123,-0.03663 0.002,-0.01436 0.005,-0.02448 0.0114,-0.03736 0.0166,-0.0302 0.0352,-0.03608 0.0668,-0.04105 0.0475,-0.0065 0.0942,-0.02872 0.12516,0.02226 0.0272,0.04307 0.0267,0.103625 0.0302,0.1524 0.007,0.07344 0.0116,0.149638 0.0245,0.222892 0.009,0.05614 0.0331,0.122217 0.0173,0.178354 -0.009,0.03238 -0.0799,0.08632 -0.11301,0.10215 -0.0589,0.02724 -0.14522,0.02798 -0.20835,0.04013 -0.049,0.0094 -0.0828,0.0072 -0.12589,-0.02078 -0.0653,-0.04233 -0.12369,-0.115775 -0.17983,-0.168967 -0.046,-0.04233 -0.0438,-0.06405 -0.0589,-0.120741 -0.0144,-0.0554 -0.0604,-0.139517 -0.0942,-0.18553 -0.0151,-0.02007 -0.0309,-0.0302 -0.0525,-0.04528 -0.27314,-0.188475 -0.54646,-0.377504 -0.8196,-0.566529"
       style="fill:#21201d;fill-opacity:1;fill-rule:nonzero;stroke:none;stroke-width:0.184057"
       id="path614" />
    <path
       d="m 387.43034,51.522408 c 0,-0.0554 -7e-4,-0.109883 0,-0.165284 0,-0.02872 -0.006,-0.04675 -0.0101,-0.07344 -0.004,-0.02872 -0.0151,-0.0624 -0.0243,-0.09055 -0.009,-0.02946 -0.0267,-0.0589 -0.0376,-0.08908 -0.008,-0.02815 -0.0243,-0.04823 -0.0416,-0.07344 -0.0374,-0.05595 -0.1,-0.08982 -0.16253,-0.112826 -0.0215,-0.0079 -0.0366,-0.02596 -0.0582,-0.03312 -0.0166,-0.0057 -0.0403,-0.0018 -0.0583,-0.0018 -0.0302,0 -0.0611,0 -0.092,0 -0.0337,0 -0.0618,0.01362 -0.0942,0.02078 -0.0236,0.0057 -0.0517,0.01143 -0.071,0.02946 0.0366,0.01013 0.0611,0.02226 0.092,0.0438 0.023,0.01729 0.0423,0.0381 0.0633,0.05835 0.0193,0.01933 0.0445,0.03884 0.0604,0.06037 0.0114,0.0151 0.0309,0.05319 0.0344,0.07123 0.006,0.02946 10e-4,0.07823 -0.006,0.104913 -0.004,0.01803 -0.003,0.03443 -0.005,0.05393 -0.004,0.04528 -0.0685,0.0589 -0.10215,0.07546 -0.0309,0.0151 -0.0584,0.0302 -0.0871,0.0497 -0.0295,0.02007 -0.0574,0.02152 -0.0906,0.03295 -0.0208,0.0072 -0.0403,0.02081 -0.0633,0.02081 -0.0201,0 -0.0359,-0.0099 -0.0559,-0.0114 -0.0346,-0.0037 -0.067,-0.005 -0.10068,-0.01012 -0.0418,-0.0057 -0.0762,-0.01933 -0.11946,-0.02152 -0.0322,0 -0.0618,-0.01069 -0.0955,-0.01069 h -0.10712 c -0.0295,0 -0.0648,0.0042 -0.0942,0 -0.0331,-0.0059 -0.0604,-0.0094 -0.095,-0.0094 -0.0243,0 -0.0517,-0.0028 -0.0733,0.0057 -0.018,0.0065 -0.0359,0.01288 -0.0525,0.02007 -0.044,0.01877 -0.0878,0.0381 -0.13234,0.05835 -0.023,0.01069 -0.0359,0.02872 -0.0574,0.04233 -0.0217,0.01379 -0.0447,0.02173 -0.067,0.03239 -0.0201,0.01012 -0.0359,0.01584 -0.0567,0.02226 -0.008,0.0028 -0.0188,0.01087 -0.0267,0.01584 -0.003,0.0021 -0.004,0.0072 -0.007,0.0086 -0.0109,0.0057 -0.0215,0.005 -0.0324,0.01087 -0.0121,0.0065 -0.0201,0.01785 -0.0324,0.02374 -0.0272,0.01362 -0.0589,0.01711 -0.0869,0.03094 -0.0374,0.01785 -0.0734,0.03737 -0.11006,0.05669 -0.0827,0.0438 -0.17688,0.115771 -0.27388,0.111538 -0.0396,-0.0018 -0.0834,-0.01305 -0.12295,-0.0074 -0.0732,0.0094 -0.1259,0.05687 -0.20412,0.03681 -0.0677,-0.01729 -0.18479,-0.06902 -0.21792,-0.136571 -0.0705,-0.144671 0.0467,-0.325046 0.17688,-0.389096 0.0374,-0.01933 0.16105,-0.02007 0.12516,-0.09405 -0.0195,-0.04105 -0.13878,-0.06405 -0.18056,-0.06479 -0.069,-0.0028 -0.16455,0.07547 -0.2251,0.107124 -0.0834,0.0438 -0.13657,0.08706 -0.16823,0.179825 -0.0624,0.183321 -0.0265,0.382471 0.0504,0.555671 0.0913,0.208537 0.31989,0.148166 0.50174,0.139513 0.22289,-0.01087 0.44505,-0.03238 0.6672,-0.05043 0.1051,-0.0085 0.20927,-0.01711 0.31492,-0.02505 0.0777,-0.0065 0.19565,-0.03957 0.26467,-0.0057 0.0324,0.01563 0.0618,0.04012 0.0733,0.07031 0.0188,0.04399 -0.002,0.102887 0.013,0.148904 0.008,0.02374 -0.002,0.01803 0.0179,0.02872 0.0245,0.01362 0.0893,0.0028 0.11651,0.0037 0.0863,0.0028 0.18405,0.01859 0.26964,0.0086 0.0582,-0.0074 0.12001,-0.01803 0.17835,-0.02815 0.092,-0.01584 0.10271,-0.03957 0.12424,-0.120742 0.009,-0.03884 0.0237,-0.07546 0.0217,-0.1143 -7.1e-4,-0.03736 -0.0353,-0.09921 -0.0131,-0.126633 0.049,-0.0611 0.15902,-0.03443 0.22436,-0.02374 0.0482,0.0074 0.0942,0.01658 0.14375,0.01305 0.0425,-0.0028 0.10289,0.01214 0.14173,-0.0079 0.0445,-0.023 0.0791,-0.06976 0.097,-0.115775 0.006,-0.01729 0.006,-0.03238 0.0101,-0.05043 0.002,-0.0092 0.008,-0.01637 0.009,-0.02575 0.001,-0.0094 -0.003,-0.02078 -7.1e-4,-0.0302 0.002,-0.01012 0.009,-0.01436 0.0114,-0.02522 0.002,-0.01139 -10e-4,-0.02522 -7e-4,-0.03663 10e-4,-0.01658 0.009,-0.02741 0.0116,-0.04252 0.002,-0.01288 -7e-4,-0.02946 -7e-4,-0.0416 v -0.0878"
       style="fill:#21201d;fill-opacity:1;fill-rule:nonzero;stroke:none;stroke-width:0.184057"
       id="path616" />
    <path
       d="m 384.20789,49.557404 c 0.0143,-0.02007 0.0208,-0.04454 0.0353,-0.06387 0.0151,-0.02152 0.0374,-0.03313 0.0547,-0.05246 0.0157,-0.01729 0.0272,-0.02741 0.0453,-0.04104 0.0295,-0.023 0.0611,-0.03884 0.0869,-0.06405 0.0287,-0.02649 0.0633,-0.0381 0.0935,-0.06313 0.0252,-0.01951 0.0504,-0.04104 0.0777,-0.05982 0.0423,-0.02872 0.0883,-0.05319 0.13804,-0.06387 0.0589,-0.01235 0.11503,-0.03534 0.1754,-0.03461 0.0403,0 0.0655,-0.03239 0.10492,-0.03094 0.0101,0 0.0237,0.0028 0.0324,0 0.009,-0.0021 0.0101,-0.0094 0.0202,-0.0114 0.0164,-0.0044 0.0351,0 0.0525,0.0018 0.023,0 0.046,-0.0028 0.069,-0.0037 0.0302,-0.0021 0.0589,0 0.0883,0.0072 0.0663,0.01803 0.13584,0.02946 0.19841,0.05835 0.13952,0.06387 0.28474,0.155896 0.43143,0.199704 0.0618,0.01951 0.18977,0.04546 0.25603,0.01453 0.046,-0.02173 0.10564,-0.134546 0.10491,-0.192708 -7.1e-4,-0.02741 7e-4,-0.04749 -0.0129,-0.07123 -0.0188,-0.0302 -0.0497,-0.06755 -0.0791,-0.08982 -0.0317,-0.023 -0.0834,-0.04822 -0.12075,-0.05761 -0.0136,-0.0035 -0.0267,-0.0018 -0.0396,-0.0042 -0.0143,-0.0037 -0.0287,-0.01362 -0.0433,-0.01658 -0.025,-0.0065 -0.0537,-0.0021 -0.0804,-0.0028 0.026,-0.005 0.0302,0.0267 0.041,0.03957 0.0129,0.01584 0.0316,0.02741 0.0374,0.04675 0.005,0.01658 0.01,0.06607 7.1e-4,0.08062 -0.0101,0.01566 -0.0447,0.02226 -0.0611,0.023 -0.0267,0 -0.044,0.01436 -0.0712,0.0085 -0.009,-0.0028 -0.0116,-0.0079 -0.0237,-0.0092 -0.006,0 -0.0144,0 -0.0215,0.0018 -0.006,0 -0.0101,-0.0035 -0.0123,-0.0085 -0.0114,-0.0028 -0.0272,0 -0.0381,-0.0052 -0.006,-0.0035 -0.0121,-0.01288 -0.0186,-0.01729 -0.0173,-0.0114 -0.0388,-0.01859 -0.0576,-0.0302 -0.0165,-0.0099 -0.028,-0.02152 -0.0431,-0.03221 -0.0223,-0.01436 -0.0576,-0.01951 -0.0826,-0.0302 -0.0267,-0.01231 -0.046,-0.0094 -0.0734,-0.01658 -0.0272,-0.0065 -0.046,-0.0151 -0.074,-0.01803 -0.0215,-0.0028 -0.041,-0.01436 -0.0626,-0.01933 -0.0294,-0.0072 -0.0554,-0.0086 -0.0849,-0.01231 -0.023,-0.0028 -0.0366,-0.01143 -0.0633,-0.01143 -0.0525,0 -0.10768,-0.0079 -0.15884,0.0099 -0.0331,0.01161 -0.0661,0.02226 -0.10142,0.02522 -0.0898,0.0065 -0.17816,0.01658 -0.26817,0.02946 -0.10196,0.01362 -0.20559,0.02522 -0.307,0.04325 -0.046,0.0085 -0.0381,0.0065 -0.0676,0.03443 -0.0733,0.06902 -0.14081,0.144488 -0.2113,0.217188 -0.0252,0.02579 -0.0675,0.05669 -0.0863,0.08909 -0.0309,0.05393 -0.028,0.149638 -0.0366,0.212771 -0.0101,0.07767 -0.044,0.181296 -0.0208,0.256021 0.008,0.02946 0.0251,0.07915 0.048,0.09995 7.1e-4,-0.01933 0.0188,-0.03238 0.0295,-0.04823 0.0109,-0.01785 0.0217,-0.03443 0.0331,-0.05172 0.0223,-0.03443 0.0324,-0.07049 0.0582,-0.101413 0.0274,-0.03221 0.0339,-0.0762 0.0561,-0.109883 0.0144,-0.01951 0.0388,-0.03313 0.0532,-0.05264"
       style="fill:#21201d;fill-opacity:1;fill-rule:nonzero;stroke:none;stroke-width:0.184057"
       id="path618" />
    <path
       d="m 386.08508,53.706621 c -0.004,0.01658 -0.009,0.03387 0.007,0.04105 0.01,0.0037 0.0394,0 0.048,-0.0021 0.0252,-0.0042 0.046,-0.02078 0.0683,-0.0302 0.0309,-0.01362 0.0561,-0.023 0.0828,-0.04528 0.0129,-0.0099 0.0171,-0.02575 0.028,-0.0381 0.0136,-0.01584 0.0265,-0.02575 0.0388,-0.04307 0.0179,-0.02374 0.0431,-0.03663 0.0596,-0.06332 0.0109,-0.01933 0.0215,-0.03883 0.0331,-0.05742 0.0223,-0.03681 0.0488,-0.07418 0.074,-0.108596 0.0668,-0.09276 0.12295,-0.197859 0.16602,-0.304983 0.0116,-0.02798 0.0166,-0.05963 0.023,-0.08982 0.007,-0.0302 0.0173,-0.05963 0.021,-0.09056 0.004,-0.05393 0.0114,-0.104178 0.0114,-0.158841 0,-0.03238 7e-4,-0.06405 0,-0.09571 -0.001,-0.03443 -0.009,-0.06828 -0.0121,-0.10215 -0.002,-0.02226 -0.006,-0.04602 -0.0195,-0.0646 -0.0114,-0.01658 -0.0287,-0.02596 -0.048,-0.0302 -0.0124,-0.0028 -0.0252,-0.0021 -0.0376,-0.0018 -0.069,0.0037 -0.13859,0.01584 -0.20762,0.02374 -0.0784,0.0094 -0.15755,0.01933 -0.23669,0.0302 -0.0272,0.0037 -0.046,-0.0018 -0.0525,0.01658 -0.0114,0.02872 0.004,0.06608 0.008,0.09424 0.005,0.03514 -0.0129,0.06829 -0.004,0.103442 0.003,0.01436 0.0151,0.02374 0.0186,0.03663 0.002,0.0094 10e-4,0.01877 0.004,0.02946 0.001,0.0044 0.006,0.0037 0.009,0.01161 0.002,0.0094 -7.1e-4,0.02007 0.001,0.0302 10e-4,0.0037 0.007,0.0065 0.009,0.01214 0.004,0.01584 0,0.03884 0,0.0554 v 0.160313 c 0,0.02596 -7e-4,0.0519 0,0.07767 0,0.02374 -0.009,0.04104 -0.0114,0.06479 -10e-4,0.02081 0.004,0.04086 -10e-4,0.06037 -0.006,0.023 -0.009,0.04031 -0.009,0.06607 7.1e-4,0.04602 10e-4,0.09203 7.1e-4,0.138046 -7.1e-4,0.02667 -0.009,0.05319 -0.0158,0.07914 -0.008,0.03164 -0.0129,0.06682 -0.0245,0.097 -0.007,0.01951 -0.0193,0.03736 -0.0223,0.05835 -7e-4,0.0021 -7e-4,0.0035 -7e-4,0.0057 0,0.0072 10e-4,0.01584 0,0.02226 -7.1e-4,0.005 -0.008,0.01012 -0.009,0.01214"
       style="fill:#21201d;fill-opacity:1;fill-rule:nonzero;stroke:none;stroke-width:0.184057"
       id="path620" />
    <path
       d="m 385.67611,50.394316 c -0.004,0.0094 -0.0151,0.01658 -0.018,0.023 -0.0237,0.06479 -0.0883,0.160313 -0.14946,0.187738 -0.0655,0.02872 -0.1338,0.02797 -0.20209,0.01658 -0.0195,-0.0037 -0.0215,0.0018 -0.0252,-0.02099 -0.0136,-0.0035 -0.0265,0 -0.0403,-0.0018 -0.0157,-0.0021 -0.0216,-0.01161 -0.0344,-0.01877 -0.0208,-0.01288 -0.0366,-0.01214 -0.0497,-0.03387 -0.0107,-0.01785 -0.0156,-0.03369 -0.0215,-0.05319 -0.006,-0.02078 -0.0186,-0.04012 -0.0208,-0.0624 -0.003,-0.02741 -0.0101,-0.04546 -0.0101,-0.07417 0,-0.02448 0,-0.04951 0,-0.07325 0,-0.04823 0.005,-0.0878 0.0418,-0.121479 0.0337,-0.0302 0.0646,-0.07123 0.1027,-0.09203 0.0138,-0.0072 0.0296,-0.02448 0.044,-0.02963 0.0223,-0.0072 0.0611,0 0.0849,0 0.0245,0 0.0611,-0.0072 0.0849,0 0.0179,0.0052 0.0337,0.02522 0.0488,0.03534 0.0173,0.0114 0.0309,0.02374 0.0475,0.03663 0.006,0.0018 0.0109,0.0028 0.0166,0.0044 0.004,0.0057 0.007,0.01143 0.0114,0.01711 0.0353,0.03736 0.0828,0.08632 0.0878,0.139513 0.002,0.0267 0.006,0.05393 0.006,0.08062 0,0.01362 0,0.02798 -0.005,0.04012 m 0.21423,-0.355046 -0.069,-0.116508 c -0.0433,-0.03736 -0.0928,-0.08412 -0.14172,-0.111538 -0.0631,-0.03517 -0.16105,-0.04455 -0.23136,-0.0624 -0.0843,-0.02247 -0.0871,-0.01161 -0.16546,0.03295 -0.0827,0.04675 -0.164,0.09497 -0.24517,0.143196 -0.0431,0.02575 -0.0863,0.05172 -0.12865,0.07749 -0.0482,0.02889 -0.0497,0.02741 -0.0698,0.07197 -0.0351,0.08117 -0.0468,0.184796 -0.0698,0.270383 -0.0136,0.04951 -0.0445,0.110617 -0.0324,0.160313 0.009,0.03589 0.041,0.07767 0.0583,0.111354 0.0144,0.02815 0.028,0.06829 0.0488,0.09277 0.0381,0.04325 0.13381,0.07049 0.18626,0.09718 0.046,0.02226 0.0913,0.04528 0.13583,0.06755 0.0388,0.01933 0.0965,0.06184 0.13952,0.06902 0.0633,0.01069 0.15093,-0.01584 0.21498,-0.02374 0.0655,-0.0079 0.15608,-0.0037 0.21571,-0.0302 0.0324,-0.01436 0.072,-0.06626 0.0985,-0.09129 0.0295,-0.02815 0.0747,-0.05687 0.095,-0.0913 0.0151,-0.02522 0.0208,-0.05982 0.0287,-0.0878 0.0109,-0.03589 0.0295,-0.0762 0.0339,-0.113563 0.008,-0.0819 -0.0339,-0.197679 -0.0482,-0.279029 -0.0131,-0.06682 -0.0195,-0.127921 -0.0539,-0.186821"
       style="fill:#21201d;fill-opacity:1;fill-rule:nonzero;stroke:none;stroke-width:0.184057"
       id="path622" />
    <path
       d="m 387.39077,54.644212 c 0.008,-0.05319 0.0166,-0.124975 -7e-4,-0.177613 -0.004,-0.01139 -0.0121,-0.02155 -0.0166,-0.03295 -0.007,-0.02025 -0.006,-0.04178 -0.009,-0.06258 -0.004,-0.02374 -0.0144,-0.04675 -0.0195,-0.07197 -0.004,-0.02448 -0.008,-0.04877 -0.0193,-0.07123 -0.0309,-0.06037 -0.0445,-0.120742 -0.0849,-0.176142 -0.0302,-0.04233 -0.0569,-0.08909 -0.0942,-0.12645 -0.0388,-0.03884 -0.0891,-0.08338 -0.14743,-0.08411 -0.028,0 -0.0453,-0.01012 -0.074,-0.01012 -0.0359,0 -0.0683,-0.01069 -0.10491,-0.01069 -0.0281,0 -0.0561,0 -0.0834,0 -0.018,0 -0.0361,0 -0.0539,0 -0.0224,0 -0.041,-0.0072 -0.0633,-0.01161 -0.0324,-0.005 -0.0626,-0.01013 -0.0972,-0.01013 -0.0157,0 -0.033,0.0021 -0.0495,0 -0.0201,-0.0018 -0.0381,-0.0092 -0.0582,-0.0114 -0.0598,-0.0057 -0.13748,-0.0072 -0.19491,0.0057 -0.0769,0.01803 -0.16897,0.005 -0.24811,0.005 -0.0388,0 -0.0639,0.0044 -0.0992,0.01379 -0.0567,0.01362 -0.11208,-0.0052 -0.16896,0 -0.051,0.0042 -0.11135,0.0151 -0.16031,-0.0044 -0.0215,-0.0079 -0.0302,-0.0302 -0.0445,-0.05099 -0.0885,-0.133072 -0.17762,-0.265963 -0.26596,-0.398301 -0.0302,-0.04454 -0.0576,-0.08559 -0.0885,-0.12792 -0.0223,-0.03038 -0.0517,-0.05117 -0.0725,-0.08283 -0.0238,-0.03589 -0.0504,-0.07104 -0.0749,-0.105649 -0.0158,-0.02152 -0.0243,-0.04528 -0.0366,-0.06681 -0.0121,-0.02152 -0.0302,-0.03957 -0.0431,-0.06037 -0.0267,-0.04472 -0.0467,-0.09277 -0.0561,-0.142462 -0.009,-0.04528 -0.009,-0.08558 -0.009,-0.1316 0,-0.0381 -0.007,-0.08411 -7.1e-4,-0.121479 0.006,-0.02798 0.0252,-0.05595 0.0455,-0.07546 0.0144,-0.0151 0.0201,-0.02007 0.0386,-0.02649 0.0131,-0.0052 0.0381,-0.02099 0.0504,-0.01877 -0.0547,0.0021 -0.11081,0 -0.16547,0 -0.0639,0 -0.0933,0.03387 -0.13436,0.0762 -0.0166,0.01803 -0.0223,0.03884 -0.0366,0.05816 -0.0202,0.02741 -0.0267,0.04399 -0.0281,0.07767 -10e-4,0.01951 -0.0107,0.03736 -0.0114,0.05687 -7e-4,0.01436 0,0.02946 0,0.04381 0,0.01951 0.002,0.0381 -0.002,0.05614 -0.004,0.01584 -0.009,0.02448 -0.008,0.0416 7.1e-4,0.07123 -0.006,0.143196 0.008,0.212221 0.005,0.02448 0,0.04877 0.007,0.07252 0.006,0.01877 0.0124,0.03608 0.0158,0.0554 0.009,0.03589 0.0223,0.06755 0.0346,0.102154 0.0193,0.0554 0.0539,0.101967 0.079,0.155346 0.0166,0.03514 0.041,0.07178 0.0532,0.108408 0.0131,0.03957 0.0331,0.08062 0.0547,0.115771 0.0388,0.06405 0.0928,0.113567 0.12939,0.179092 0.0138,0.02448 0.0188,0.04601 0.0316,0.07123 0.007,0.01288 0.0124,0.02575 0.0237,0.03884 0.0346,0.0438 0.0655,0.107858 0.0814,0.161601 0.0186,0.05908 0.0453,0.113012 0.0725,0.168966 0.0129,0.02815 0.018,0.03534 0.0433,0.05687 0.0797,0.06681 0.0963,0.06902 0.20339,0.06755 0.0957,0 0.19271,-0.0021 0.28897,-0.0035 0.17485,-0.0018 0.34952,-0.0044 0.52493,-0.0072 0.14448,-0.0021 0.28823,0.0028 0.43271,0.0028 h 0.0626 c 0.0101,0 0.0223,-0.0018 0.0324,0 0.0129,0.0021 0.0129,0.0066 0.023,0.0094 0.0158,0.0037 0.0366,0.0052 0.0503,0.01235 0.007,0.0035 0.0116,0.0092 0.018,0.01362 0.0252,0.0151 0.0346,0.02007 0.0374,0.05246 0.002,0.023 0.002,0.04454 0.007,0.06755 0.018,0.08135 -0.0251,0.160313 -0.0963,0.204121 -0.0267,0.01584 -0.0655,0.02374 -0.0957,0.03387 -0.0337,0.01161 -0.0676,0.0037 -0.10197,0.01012 -0.0604,0.0099 -0.11724,0.01785 -0.17909,0.01859 -0.046,0 -0.0963,-0.01436 -0.1373,-0.03443 -0.0101,-0.0044 -0.0215,-0.0094 -0.0317,-0.0151 -0.0101,-0.0065 -0.0151,-0.01584 -0.023,-0.02226 -0.0165,-0.01161 -0.0359,-0.01584 -0.051,-0.03313 -0.0131,-0.01584 -0.021,-0.03443 -0.0339,-0.05025 -0.0158,-0.01877 -0.0173,-0.0309 -0.018,-0.0554 -7e-4,-0.01729 -0.006,-0.04325 0.007,-0.05614 0.0136,-0.01288 0.0409,0 0.0445,-0.02649 -0.0302,-0.0044 -0.0554,-0.02099 -0.0856,-0.023 -0.028,-0.0018 -0.0655,-0.0044 -0.0928,0 -0.0267,0.005 -0.0532,0.02575 -0.0733,0.04233 -0.0217,0.01877 -0.0304,0.05246 -0.0396,0.07694 -0.0252,0.06258 -0.0453,0.12663 -0.0453,0.194917 7.1e-4,0.03443 -0.005,0.07399 0,0.108595 0.004,0.02431 0.0223,0.04951 0.0352,0.07326 0.009,0.01933 0.0245,0.03736 0.0359,0.0554 0.0123,0.01785 0.0267,0.03663 0.0425,0.05246 0.0114,0.0114 0.023,0.02649 0.0366,0.03663 0.006,0.0057 0.0237,0.01877 0.0316,0.02155 0.0121,0.0044 0.0245,0 0.0374,0.0044 0.0188,0.0057 0.0381,0.02226 0.0576,0.02723 0.0228,0.0057 0.0381,0.01436 0.0604,0.02374 0.0257,0.01087 0.0596,0.01013 0.0876,0.0151 0.0316,0.0065 0.0655,0.0079 0.0972,0.0065 0.0416,-0.0021 0.0797,-0.01859 0.12148,-0.023 0.14154,-0.01658 0.28749,-0.01436 0.43069,-0.02155 0.0977,-0.005 0.19547,-0.01069 0.2932,-0.01584 0.0282,-0.0018 0.11871,0.01012 0.14246,-0.0079 0.025,-0.01933 0.0396,-0.159579 0.0401,-0.19547 7.1e-4,-0.03238 -0.0114,-0.06405 -0.0171,-0.09645 -0.0116,-0.06902 -0.005,-0.137309 -0.004,-0.20633"
       style="fill:#21201d;fill-opacity:1;fill-rule:nonzero;stroke:none;stroke-width:0.184057"
       id="path624" />
  </g>
</svg>
