<?xml version="1.0" encoding="UTF-8" standalone="no"?>
<!-- Created with Inkscape (http://www.inkscape.org/) -->

<svg
   width="4.6560082mm"
   height="7.5658851mm"
   viewBox="0 0 4.6560082 7.5658851"
   version="1.1"
   id="svg3996"
   inkscape:version="1.1.2 (0a00cf5339, 2022-02-04)"
   sodipodi:docname="m2.svg"
   xmlns:inkscape="http://www.inkscape.org/namespaces/inkscape"
   xmlns:sodipodi="http://sodipodi.sourceforge.net/DTD/sodipodi-0.dtd"
   xmlns="http://www.w3.org/2000/svg"
   xmlns:svg="http://www.w3.org/2000/svg">
  <sodipodi:namedview
     id="namedview3998"
     pagecolor="#ffffff"
     bordercolor="#666666"
     borderopacity="1.0"
     inkscape:pageshadow="2"
     inkscape:pageopacity="0.0"
     inkscape:pagecheckerboard="0"
     inkscape:document-units="mm"
     showgrid="false"
     inkscape:zoom="0.64052329"
     inkscape:cx="-282.58145"
     inkscape:cy="402.01505"
     inkscape:window-width="2560"
     inkscape:window-height="1376"
     inkscape:window-x="0"
     inkscape:window-y="0"
     inkscape:window-maximized="1"
     inkscape:current-layer="layer1" />
  <defs
     id="defs3993">
    <clipPath
       clipPathUnits="userSpaceOnUse"
       id="clipPath252">
      <path
         d="m 269,1049 h 13 v 41.633 h -13 z"
         id="path250" />
    </clipPath>
  </defs>
  <g
     inkscape:label="Layer 1"
     inkscape:groupmode="layer"
     id="layer1"
     transform="translate(-179.83797,-42.068237)">
    <path
       d="m 182.8759,42.184747 c 0.001,0.0052 0.003,0.01086 0.004,0.01584 0.009,0 0.0173,0.0037 0.0252,0.0079 0.0431,0.0057 0.0539,0.01087 -0.0295,-0.02374"
       style="fill:#21201d;fill-opacity:1;fill-rule:nonzero;stroke:none;stroke-width:0.184057"
       id="path626" />
    <path
       d="m 184.47774,44.537926 c -0.0366,-0.07325 -0.0762,-0.153137 -0.12092,-0.222892 -0.0307,-0.05025 -0.048,-0.08909 -0.0639,-0.144487 -0.0166,-0.05963 -0.0554,-0.113563 -0.0806,-0.1697 -0.0208,-0.04675 -0.0416,-0.106387 -0.0733,-0.145958 -0.0201,-0.02431 -0.0339,-0.02374 -0.0475,-0.05393 -0.007,-0.01711 -0.006,-0.03369 -0.0158,-0.05246 -0.023,-0.04454 -0.0596,-0.08411 -0.0906,-0.125708 -0.0201,-0.02596 -0.0272,-0.05467 -0.0445,-0.08136 -0.0203,-0.02872 -0.0504,-0.0532 -0.072,-0.0797 -0.0475,-0.05761 -0.0755,-0.119454 -0.1143,-0.183321 -0.0482,-0.08062 -0.11282,-0.143196 -0.16822,-0.217925 -0.11927,-0.160313 -0.24591,-0.315658 -0.36591,-0.476709 -0.0734,-0.09774 -0.15313,-0.192708 -0.2308,-0.286212 -0.0208,-0.02501 -0.0504,-0.07105 -0.0841,-0.08835 -0.0188,-0.0028 -0.0433,-0.005 -0.069,-0.0042 -0.0591,0.0018 -0.0547,-0.01087 -0.0942,-0.0554 -0.0574,-0.06405 -0.1338,-0.05964 -0.0905,0.03514 0.0294,0.06553 0.0547,0.118717 0.064,0.188475 0.01,0.06755 0.0144,0.147246 0.0466,0.206329 0.046,0.08485 0.13804,0.13878 0.19344,0.217005 0.023,0.03239 0.0361,0.07197 0.0648,0.101416 0.0272,0.02872 0.0344,0.02596 0.0596,0.06755 0.0188,0.0309 0.0344,0.06828 0.0569,0.09571 0.0309,0.03957 0.0624,0.0554 0.0891,0.100679 0.0396,0.06681 0.0849,0.153871 0.13436,0.212771 0.072,0.08412 0.11448,0.201358 0.17338,0.289708 0.0517,0.07841 0.0913,0.166204 0.14596,0.2459 0.0495,0.07344 0.0856,0.144487 0.11356,0.227313 0.026,0.07694 0.0863,0.141541 0.12792,0.211299 0.0381,0.06331 0.0871,0.151663 0.0734,0.230071 -0.0109,0.0554 -0.0512,0.0589 -0.0863,0.09497 -0.0339,0.03369 -0.0648,0.06755 -0.0999,0.0992 -0.0331,0.0302 -0.0497,0.06829 -0.0791,0.100683 -0.0329,0.03443 -0.0711,0.06313 -0.10271,0.09626 -0.0519,0.05246 -0.0871,0.124424 -0.14246,0.177616 -0.0351,0.03313 -0.0438,0.06608 -0.0697,0.10565 -0.0129,0.023 -0.0302,0.04105 -0.0431,0.06829 -0.0201,0.03957 -0.0453,0.06976 -0.0619,0.110067 -0.0166,0.04086 -0.028,0.08558 -0.0539,0.121475 -0.11006,0.154609 -0.23945,0.294125 -0.37528,0.426279 -0.0619,0.06111 -0.12222,0.145221 -0.17394,0.215717 -0.0482,0.06479 -0.0979,0.159579 -0.16105,0.210746 -0.0361,0.02872 -0.0762,0.03239 -0.10859,0.06755 -0.0223,0.02448 -0.0366,0.05614 -0.0641,0.0762 -0.0179,0.01362 -0.0611,0.0151 -0.0718,0.02797 -0.0131,0.01436 -0.003,0.05687 -0.008,0.07565 -0.0267,0.107121 -0.0151,0.226391 -0.0151,0.338483 v 0.220867 c 0,0.02946 0.001,0.06037 0,0.08982 -0.001,0.03164 -0.0131,0.03736 -0.0188,0.06332 -0.0223,0.112092 -0.001,0.250134 -0.001,0.365171 v 0.179825 c 0,0.0762 0.0188,0.145775 0.021,0.220684 7e-4,0.02946 -0.002,0.05964 -7.1e-4,0.08835 0.001,0.0309 0.0136,0.03736 0.0186,0.06184 0.009,0.05043 -0.0101,0.107859 7.1e-4,0.158292 0.005,0.02649 0.018,0.04013 0.0208,0.06902 0.003,0.02575 -0.002,0.04951 0.004,0.07546 0.005,0.02155 0.0166,0.03517 0.0158,0.06461 -7e-4,0.03238 0,0.06626 0,0.09847 0,0.107125 0.0129,0.211484 0.0186,0.318605 0.009,0.13657 0.0512,0.276824 0.0403,0.414866 0.026,-0.02078 0.0512,-0.08209 0.0663,-0.112275 0.0287,-0.05816 0.0438,-0.122213 0.069,-0.181112 0.0114,-0.02723 0.0337,-0.04675 0.046,-0.07049 0.0171,-0.03663 0.0215,-0.07841 0.0344,-0.115038 0.008,-0.02448 0.0166,-0.04877 0.0245,-0.07325 0.0186,-0.05761 0.0438,-0.07344 0.0797,-0.121479 0.049,-0.06626 0.046,-0.154608 0.10362,-0.214979 0.0403,-0.04105 0.0856,-0.067 0.11724,-0.117246 0.0488,-0.0762 0.0582,-0.166758 0.0582,-0.253817 7e-4,-0.150925 0.0208,-0.288233 0.0208,-0.438608 v -0.733288 c 0,-0.05117 -0.006,-0.105649 -0.001,-0.157554 0.004,-0.04086 0.0193,-0.0762 0.0223,-0.118533 0.004,-0.08062 -0.0158,-0.16105 0.0186,-0.23725 0.0116,-0.02596 0.0252,-0.05043 0.0374,-0.07473 0.0195,-0.03883 0.0339,-0.07491 0.0576,-0.1108 0.0381,-0.0589 0.0618,-0.121479 0.1049,-0.175409 0.018,-0.02226 0.0245,-0.0554 0.0438,-0.07546 0.0289,-0.03094 0.0561,-0.03387 0.072,-0.08062 0.005,-0.01214 0.001,-0.02723 0.007,-0.03957 0.004,-0.0057 0.0267,-0.01584 0.0324,-0.023 0.0201,-0.02797 0.0245,-0.06607 0.0381,-0.097 0.0215,-0.04528 0.069,-0.07123 0.0977,-0.113566 0.0698,-0.101413 0.16473,-0.187001 0.22731,-0.288971 0.0386,-0.06331 0.0933,-0.110067 0.14007,-0.16473 0.0381,-0.04454 0.09,-0.09424 0.12018,-0.145221 0.0589,-0.09921 0.16676,-0.173383 0.23725,-0.267437 0.074,-0.09847 0.27885,-0.197125 0.20633,-0.341612"
       style="fill:#21201d;fill-opacity:1;fill-rule:nonzero;stroke:none;stroke-width:0.184057"
       id="path628" />
    <g
       id="g636"
       transform="matrix(0.18405616,0,0,0.18405792,130.27891,-151.10552)">
      <g
         clip-path="url(#clipPath252)"
         id="g634">
        <path
           d="m 281.324,1089.832 c 0,-0.18 0,-0.363 0,-0.543 0,-0.211 0.02,-0.422 -0.027,-0.625 -0.012,-0.074 -0.07,-0.137 -0.086,-0.238 -0.012,-0.106 0.019,-0.227 0.008,-0.332 -0.031,-0.211 -0.117,-0.301 -0.114,-0.539 0.004,-0.246 0.02,-0.496 -0.023,-0.739 -0.082,-0.476 -0.055,-0.929 -0.074,-1.406 -0.02,-0.359 -0.16,-0.695 -0.207,-1.051 -0.035,-0.261 -0.028,-0.527 -0.02,-0.789 0.008,-0.59 -0.207,-1.132 -0.222,-1.722 -0.012,-0.528 -0.024,-1.024 -0.079,-1.555 -0.042,-0.391 0.012,-0.781 -0.015,-1.172 -0.02,-0.305 -0.16,-0.59 -0.207,-0.891 -0.043,-0.281 -0.02,-0.566 -0.02,-0.851 0.004,-0.731 -0.004,-1.465 0,-2.199 0.004,-0.524 -0.105,-0.965 -0.519,-1.309 -0.117,-0.098 -0.231,-0.219 -0.34,-0.316 -0.184,-0.164 -0.32,-0.434 -0.543,-0.524 -0.188,-0.078 -0.156,-0.011 -0.352,-0.179 -0.175,-0.153 -0.343,-0.309 -0.531,-0.45 -0.141,-0.109 -0.226,-0.187 -0.336,-0.336 -0.265,-0.363 -0.375,-0.73 -0.758,-0.972 -0.355,-0.231 -0.593,-0.567 -0.953,-0.793 -0.754,-0.473 -1.359,-1.27 -1.855,-1.996 -0.11,-0.157 -0.219,-0.325 -0.313,-0.493 -0.125,-0.222 -0.164,-0.546 -0.328,-0.738 -0.172,-0.195 -0.297,-0.285 -0.43,-0.539 -0.168,-0.32 -0.363,-0.543 -0.535,-0.836 -0.152,-0.254 -0.293,-0.535 -0.425,-0.769 0.136,-0.071 0.117,-0.438 0.171,-0.578 0.043,-0.11 0.106,-0.207 0.137,-0.313 0.09,-0.297 0.18,-0.625 0.297,-0.898 0.105,-0.243 0.297,-0.434 0.41,-0.672 0.168,-0.36 0.176,-0.844 0.293,-1.231 0.031,-0.109 0.086,-0.195 0.149,-0.285 0.027,-0.035 0.117,-0.055 0.132,-0.086 0.059,-0.125 0.024,-0.211 0.098,-0.332 0.105,-0.172 0.27,-0.332 0.379,-0.504 0.102,-0.164 0.129,-0.336 0.191,-0.5 0.043,-0.105 0.09,-0.172 0.137,-0.281 0.137,-0.309 0.063,-0.625 0.25,-0.902 0.074,-0.114 0.195,-0.168 0.246,-0.301 0.02,-0.059 0,-0.215 0.039,-0.285 0.043,-0.067 0.137,-0.121 0.184,-0.192 0.125,-0.179 0.187,-0.414 0.308,-0.605 0.243,-0.371 0.497,-0.703 0.731,-1.063 0.223,-0.336 0.445,-0.699 0.601,-1.078 0.047,-0.109 0.039,-0.211 0.106,-0.328 0.066,-0.113 0.148,-0.207 0.223,-0.324 0.168,-0.27 0.203,-0.602 0.339,-0.899 0.098,-0.211 0.231,-0.355 0.317,-0.562 0.058,-0.141 0.129,-0.395 0.226,-0.5 0.141,-0.149 0.297,-0.156 0.418,-0.34 0.082,-0.125 0.114,-0.242 0.211,-0.359 0.176,-0.2 0.297,-0.364 0.328,-0.645 0.028,-0.219 0.047,-0.59 -0.023,-0.797 -0.027,0 -0.059,-0.011 -0.09,-0.019 0.633,-0.254 -0.027,-0.352 -0.137,-0.524 -0.433,0.168 -0.765,0.434 -1.054,0.825 -0.196,0.265 -0.449,0.421 -0.649,0.668 -0.168,0.21 -0.281,0.453 -0.511,0.613 -0.153,0.101 -0.34,0.156 -0.493,0.258 -0.183,0.117 -0.328,0.242 -0.511,0.332 -0.145,0.062 -0.207,0.086 -0.328,0.211 -0.278,0.269 -0.438,0.628 -0.653,0.949 -0.269,0.414 -0.379,0.875 -0.594,1.32 -0.238,0.508 -0.441,1.043 -0.699,1.531 -0.16,0.305 -0.383,0.563 -0.547,0.868 -0.113,0.214 -0.281,0.336 -0.418,0.531 -0.175,0.262 -0.183,0.601 -0.339,0.883 -0.098,0.172 -0.157,0.273 -0.219,0.449 -0.137,0.387 -0.309,0.836 -0.567,1.172 -0.386,0.504 -0.636,1.058 -0.816,1.679 -0.27,0.903 -0.664,1.77 -0.918,2.657 -0.055,0.183 -0.187,0.539 -0.063,0.73 0.079,0.121 0.204,0.078 0.286,0.152 0.031,0.036 0.011,0.137 0.043,0.176 0.632,0.746 1.328,1.5 1.902,2.297 0.227,0.313 0.523,0.559 0.758,0.867 0.187,0.246 0.316,0.493 0.484,0.743 0.059,0.078 0.16,0.128 0.223,0.23 0.051,0.086 0.137,0.23 0.164,0.328 0.031,0.113 -0.008,0.211 0.016,0.32 0.035,0.192 0.117,0.305 0.222,0.469 0.152,0.238 0.192,0.422 0.293,0.649 0.129,0.269 0.387,0.566 0.547,0.839 0.305,0.528 0.703,1.059 1.109,1.516 0.188,0.211 0.34,0.465 0.547,0.66 0.106,0.102 0.254,0.176 0.352,0.281 0.172,0.192 0.285,0.43 0.297,0.684 0.011,0.18 0,0.363 -0.004,0.539 0,0.254 0.086,0.422 0.113,0.652 0.043,0.364 0.07,0.954 -0.027,1.305 -0.196,0.738 -0.028,1.5 0.109,2.25 0.125,0.695 0.027,1.488 0.024,2.192 0,0.16 -0.036,0.371 -0.004,0.523 0.023,0.109 0.086,0.187 0.101,0.289 0.039,0.191 -0.004,0.387 0.035,0.574 0.051,0.024 0.082,0.067 0.09,0.125 -0.004,0.078 -0.008,0.153 -0.012,0.231 0.028,0.097 0.094,0.121 0.141,0.203 0.106,0.18 0.164,0.344 0.301,0.496 0.269,0.309 0.426,0.668 0.68,1.004 0.253,0.332 0.515,0.605 0.812,0.891 0.266,0.257 0.395,0.617 0.563,0.945 0.406,0.797 0.945,1.5 1.335,2.312 0.126,0.27 0.235,0.735 0.434,0.957 0.18,0.203 0.297,0.149 0.27,-0.113 -0.036,-0.336 -0.196,-0.621 -0.192,-0.957"
           style="fill:#21201d;fill-opacity:1;fill-rule:nonzero;stroke:none"
           id="path632" />
      </g>
    </g>
    <path
       d="m 182.17778,45.298639 c 0.0423,-0.097 0.0582,-0.199888 0.10491,-0.295413 0.0173,-0.03534 0.0237,-0.07197 0.0388,-0.105833 0.0101,-0.023 0.0302,-0.03865 0.041,-0.0624 0.023,-0.05043 0.0215,-0.109329 0.0539,-0.156817 0.0193,-0.02872 0.0431,-0.04454 0.0604,-0.07767 0.0243,-0.04675 0.0468,-0.09276 0.0755,-0.137305 0.0309,-0.04896 0.0769,-0.08835 0.0848,-0.143016 0.009,-0.06184 -0.0433,-0.124421 -0.0655,-0.179822 -0.0317,-0.07841 -0.048,-0.160316 -0.0804,-0.238724 -0.0361,-0.08835 -0.0554,-0.1905 -0.0985,-0.279584 -0.0138,-0.03094 -0.0309,-0.04399 -0.0411,-0.07915 -0.0121,-0.04178 -0.0188,-0.08117 -0.0346,-0.122951 -0.0121,-0.0309 -0.0114,-0.09129 -0.0401,-0.11062 0,0.0085 0,0.01711 0,0.02505 -0.0173,-0.03443 -0.046,-0.09129 -0.0749,-0.1524 -0.0302,-0.06534 -0.0524,-0.141541 -0.12865,-0.06405 -0.0287,0.02815 -0.0374,0.05264 -0.0596,0.08485 -0.0201,0.02963 -0.0482,0.03387 -0.0712,0.05835 -0.0179,0.01933 -0.0265,0.0554 -0.0438,0.07693 -0.0388,0.04822 -0.0849,0.06185 -0.11577,0.118533 -0.0374,0.0705 -0.074,0.123687 -0.12442,0.183324 -0.0381,0.04473 -0.0366,0.09276 -0.0567,0.145959 -0.0223,0.05687 -0.067,0.08927 -0.0985,0.139513 -0.0396,0.06111 -0.0611,0.133812 -0.0992,0.196391 -0.0252,0.04086 -0.0583,0.05172 -0.0648,0.09773 -0.005,0.03663 0.003,0.06755 0.0158,0.100679 0.0309,0.08117 0.0675,0.159579 0.0992,0.238725 0.0339,0.08485 0.0799,0.158841 0.12,0.239275 0.0361,0.07344 0.0727,0.145221 0.11006,0.214979 0.0245,0.04602 0.0611,0.08412 0.0878,0.128841 0.074,0.123504 0.18258,0.227126 0.24645,0.355784 0.0116,0.023 0.0237,0.08062 0.0598,0.08135 0.0193,0 0.0552,-0.06258 0.0604,-0.08135 0.006,-0.02374 -0.001,-0.05246 0.004,-0.07694 10e-4,-0.0065 0.0136,-0.01214 0.0166,-0.023 0.004,-0.02007 -0.006,-0.04233 -0.002,-0.06184 0.004,-0.01584 0.0151,-0.023 0.021,-0.03736"
       style="fill:#21201d;fill-opacity:1;fill-rule:nonzero;stroke:none;stroke-width:0.184057"
       id="path638" />
  </g>
</svg>
