<?xml version="1.0" encoding="UTF-8" standalone="no"?>
<!-- Created with Inkscape (http://www.inkscape.org/) -->

<svg
   width="6.0149198mm"
   height="6.6837049mm"
   viewBox="0 0 6.0149198 6.6837049"
   version="1.1"
   id="svg3328"
   inkscape:version="1.1.2 (0a00cf5339, 2022-02-04)"
   sodipodi:docname="u1.svg"
   xmlns:inkscape="http://www.inkscape.org/namespaces/inkscape"
   xmlns:sodipodi="http://sodipodi.sourceforge.net/DTD/sodipodi-0.dtd"
   xmlns="http://www.w3.org/2000/svg"
   xmlns:svg="http://www.w3.org/2000/svg">
  <sodipodi:namedview
     id="namedview3330"
     pagecolor="#ffffff"
     bordercolor="#666666"
     borderopacity="1.0"
     inkscape:pageshadow="2"
     inkscape:pageopacity="0.0"
     inkscape:pagecheckerboard="0"
     inkscape:document-units="mm"
     showgrid="false"
     inkscape:zoom="0.64052329"
     inkscape:cx="393.42832"
     inkscape:cy="825.10661"
     inkscape:window-width="2560"
     inkscape:window-height="1376"
     inkscape:window-x="0"
     inkscape:window-y="0"
     inkscape:window-maximized="1"
     inkscape:current-layer="layer1" />
  <defs
     id="defs3325" />
  <g
     inkscape:label="Layer 1"
     inkscape:groupmode="layer"
     id="layer1"
     transform="translate(-0.71019777,69.846726)">
    <path
       d="m 6.1190571,-64.038123 c -0.00212,-0.01141 -0.00282,-0.02651 -0.00589,-0.03736 -0.00212,-0.0087 -0.00571,-0.01288 -0.00847,-0.02153 -0.00589,-0.01804 -0.0079,-0.04307 -0.013794,-0.06405 -0.00497,-0.02374 -0.012876,-0.04381 -0.019332,-0.06608 -0.023001,-0.07399 -0.04325,-0.158842 -0.074725,-0.2286 -0.015099,-0.0324 -0.035338,-0.0554 -0.053375,-0.08485 -0.012876,-0.02227 -0.025753,-0.03957 -0.042333,-0.05761 -0.015099,-0.01657 -0.028716,-0.03939 -0.044542,-0.05393 -0.018027,-0.01712 -0.035338,-0.02798 -0.053192,-0.04951 -0.027411,-0.03166 -0.056138,-0.06111 -0.086325,-0.08632 -0.018027,-0.01509 -0.018768,-0.0057 -0.023742,0.01436 -0.011395,0.04178 -0.03369,0.07197 -0.049512,0.110066 -0.015099,0.03516 -0.030198,0.07694 -0.041042,0.117245 -0.0079,0.02871 0.00497,0.03019 0.020073,0.04878 0.043988,0.05835 0.087792,0.10933 0.125155,0.168965 0.010125,0.01509 0.021519,0.02522 0.031644,0.03884 0.014358,0.01877 0.027234,0.04252 0.039575,0.06552 0.012135,0.02356 0.02226,0.05172 0.032949,0.07749 0.014534,0.0324 0.028893,0.06258 0.041042,0.09718 0.031644,0.09203 0.045279,0.203385 0.05025,0.319157 0.00212,0.03957 0.00282,0.07418 -0.00497,0.120742 0.02226,0.04601 0.053929,0.01951 0.087058,-0.03221 0.030903,-0.04896 0.071783,-0.113011 0.094788,-0.181297 0.015099,-0.04381 0.010866,-0.09553 0.00864,-0.131601 -0.00141,-0.03148 -0.00497,-0.05522 -0.00995,-0.08338"
       style="fill:#21201d;fill-opacity:1;fill-rule:nonzero;stroke:none;stroke-width:0.184057"
       id="path626" />
    <path
       d="m 6.0607112,-65.262477 c -0.025753,-0.01583 -0.048038,-0.02945 -0.073992,-0.04031 -0.023001,-0.0087 -0.043804,-0.01362 -0.067546,-0.02153 -0.00864,-0.0035 -0.019509,-0.0072 -0.029457,-0.01215 -0.00864,-0.0044 -0.017286,-0.0094 -0.025964,-0.01454 -0.00938,-0.0028 -0.00864,-0.0064 -0.012876,0 -0.00864,0.0138 0.00572,0.04675 0.00423,0.06552 -0.00212,0.03092 -0.010125,0.06111 0.00423,0.103441 0.00737,0.02374 0.014534,0.04601 0.027411,0.07123 0.00497,0.0116 0.014358,0.02448 0.018591,0.0346 0.00938,0.0035 0.023001,0.01362 0.033126,0.0208 0.014358,0.0079 0.028716,0.01878 0.043254,0.02724 0.00995,0.0059 0.018591,0.0079 0.027975,0.0138 0.027975,0.01638 0.058162,0.04877 0.085587,0.06976 0.036625,0.02577 0.070492,0.05246 0.1049126,0.08411 0.039571,0.03736 0.075463,0.07896 0.1135627,0.116325 0.04675,0.03019 0.082638,0.0878 0.1194506,0.135282 0.02226,0.02871 0.045279,0.05393 0.065342,0.08614 0.0381,0.06184 0.074725,0.123688 0.1021503,0.194918 0.010125,0.02742 0.01584,0.05098 0.023001,0.08117 0.00212,0.01159 0,0.01583 0.00571,0.02374 0.00646,0.02448 0.012136,0.01583 0.021519,-0.002 0.01584,-0.0289 0.032385,-0.05982 0.043991,-0.09718 0.015628,-0.04804 0.020814,-0.104177 0.030198,-0.158106 -0.010865,-0.08264 -0.035338,-0.116508 -0.060554,-0.163259 -0.048775,-0.08761 -0.107121,-0.170438 -0.1702505,-0.252344 -0.02025,-0.0265 -0.041783,-0.05393 -0.064054,-0.07914 -0.025964,-0.02798 -0.052454,-0.04951 -0.08043,-0.07326 -0.051904,-0.04454 -0.105096,-0.09847 -0.1625247,-0.135098 -0.041042,-0.02669 -0.082638,-0.05319 -0.1266296,-0.07914"
       style="fill:#21201d;fill-opacity:1;fill-rule:nonzero;stroke:none;stroke-width:0.184057"
       id="path628" />
    <path
       d="m 3.4502439,-67.628541 c 0.025012,0.01067 0.048775,0.02429 0.074725,0.03442 0.01658,0.0064 0.034431,0.01215 0.05025,0.02153 0.010125,0.0057 0.02226,0.0116 0.032385,0.01804 0.00938,0.0057 0.01584,0.01288 0.025965,0.01804 0.010689,0.0057 0.024483,0.01068 0.034431,0.01712 0.014358,0.01012 0.030198,0.01877 0.045279,0.02945 0.032385,0.02172 0.061842,0.05264 0.090001,0.07767 0.081171,0.07344 0.1336251,0.159578 0.1724624,0.241668 0.011606,0.02374 0.019509,0.04749 0.027411,0.07049 0.029457,0.08117 -0.066262,0.172463 0.061659,0.172463 -0.1279208,0.04822 -0.098471,0.130865 -0.1200044,0.202095 -0.012136,0.04233 -0.029457,0.08338 -0.041046,0.125712 -0.0072,0.02742 -0.023566,0.05117 -0.031468,0.07767 -0.00515,0.01657 -0.0079,0.03313 -0.011606,0.0497 -0.00497,0.01859 -0.00497,0.0381 -0.00864,0.05595 -0.00423,0.02374 -0.015099,0.04473 -0.016581,0.06902 -7.056e-4,0.02595 -0.00141,0.05117 -0.00497,0.0762 -0.00212,0.01583 -0.00423,0.03166 -0.00497,0.04749 v 0.0059 c 0.00282,5.65e-4 0.00646,0.002 0.00864,0.0028 0.1012331,0.03313 0.2011751,0.06902 0.3018543,0.102152 0.00141,-0.02025 0.00212,-0.03957 0.00646,-0.0589 0.00282,-0.0173 0.00864,-0.0346 0.012347,-0.0519 0.00497,-0.0208 0.00353,-0.04233 0.00716,-0.06313 0.00497,-0.02742 0.01658,-0.0519 0.01584,-0.08062 0,-0.01435 -7.056e-4,-0.0265 0.00141,-0.04104 0.00646,-0.03442 -0.00441,-0.07399 -0.00589,-0.110619 -7.055e-4,-0.02227 -0.00646,-0.04454 -0.00716,-0.06681 -7.055e-4,-0.02301 0.00212,-0.04675 0.00282,-0.06976 7.056e-4,-0.03884 -0.00646,-0.07767 -0.00367,-0.116509 0.00282,-0.05393 0.017286,-0.106385 0.023001,-0.160314 0.00716,-0.06184 0,-0.129393 0,-0.191972 0,-0.01951 -0.00212,-0.0324 -0.00571,-0.0497 -0.00497,-0.0173 -0.00353,-0.03589 -0.00572,-0.05466 -0.00367,-0.03018 -0.02025,-0.06829 -0.034607,-0.09553 -0.013617,-0.02448 -0.0381,-0.04528 -0.053192,-0.06902 -0.01711,-0.02595 -0.030903,-0.05319 -0.04675,-0.07988 -0.028716,-0.04804 -0.066813,-0.09774 -0.1150373,-0.130129 -0.1012296,-0.06829 -0.2155296,-0.113564 -0.3184172,-0.17964 -0.021519,-0.01436 -0.043804,-0.02945 -0.066075,-0.04031 -0.031644,-0.01657 -0.066259,-0.02227 -0.097917,-0.03736 -0.036629,-0.01804 -0.074725,-0.03736 -0.1135627,-0.04749 -0.030198,-0.0072 -0.058162,-0.02006 -0.088346,-0.02448 -0.031644,-0.0057 -0.1553457,-0.04454 -0.1373082,0.02522 0.00423,0.01509 0.011395,0.02006 0.013617,0.03663 0.00212,0.01583 0,0.03387 0,0.05043 0,0.01565 -0.00515,0.05025 -7.056e-4,0.0646 0.0079,0.02797 0.056691,0.02742 0.084116,0.03387 0.036625,0.0087 0.071229,0.02724 0.1078548,0.03957 0.045279,0.01565 0.092766,0.03442 0.1395165,0.05393"
       style="fill:#21201d;fill-opacity:1;fill-rule:nonzero;stroke:none;stroke-width:0.184057"
       id="path630" />
    <path
       d="m 2.2991547,-67.961502 c 0.040862,0.01583 0.075463,0.02301 0.1229501,0.02153 0.061108,-0.0015 0.1120916,0.02153 0.1709879,0.0346 0.01584,0.0035 0.031644,0.0042 0.047487,0.0064 0.013617,-0.03166 0.059083,-0.125895 0.030198,-0.157553 -0.011395,-0.01288 -0.030903,-0.01141 -0.046013,-0.01712 -0.012876,-0.0052 -0.023001,-0.01307 -0.034431,-0.01951 -0.037366,-0.0208 -0.078408,-0.02301 -0.1179795,-0.03516 -0.043808,-0.01436 -0.083379,-0.02172 -0.1251585,-0.03736 -0.034431,-0.01454 -0.078962,-0.03166 -0.1019669,-0.06479 -0.015099,-0.02153 -0.014358,-0.04969 -0.047487,-0.03239 -0.015099,0.0079 -0.020814,0.02669 -0.026705,0.04104 -0.00716,0.01657 -0.012136,0.03442 -0.019332,0.05319 -0.00212,0.0064 -0.010866,0.0208 -0.012876,0.02651 -0.00282,0.01233 7.056e-4,0.02374 -0.00141,0.03534 -0.00515,0.02006 -0.013617,0.02577 -0.013053,0.04951 0,0.03313 -0.00921,0.04399 0.024483,0.0497 0.044725,0.0079 0.087792,0.01859 0.1308629,0.03736 0.00646,0.0029 0.013617,0.0057 0.019509,0.0087"
       style="fill:#21201d;fill-opacity:1;fill-rule:nonzero;stroke:none;stroke-width:0.184057"
       id="path632" />
    <path
       d="m 4.2087373,-65.570958 c -0.032385,-0.04031 -0.063313,-0.08043 -0.081351,-0.12295 -0.00423,-0.01068 -0.0079,-0.02153 -0.012136,-0.03295 -0.018768,-0.0022 -0.0381,-0.0066 -0.058896,-0.0094 -0.068287,-0.01233 -0.1345459,-0.02522 -0.2028296,-0.04325 0.02226,0.03957 0.047484,0.07841 0.079142,0.117245 0.032949,0.03957 0.072521,0.07767 0.110617,0.116508 0.01584,0.01657 0.034607,0.03313 0.050433,0.04951 0.020814,0.02374 0.039571,0.04749 0.06313,0.06976 0.052642,0.05043 0.1157746,0.09645 0.1632585,0.14743 0.092766,0.07841 0.1862666,0.146694 0.2805042,0.216452 0.040121,0.02945 0.082638,0.05466 0.1163214,0.08982 0.052642,0.02669 0.1058333,0.06258 0.1575541,0.09056 0.038834,0.02098 0.079879,0.0346 0.1192671,0.0497 0.029457,0.01086 0.061105,0.01932 0.090738,0.01932 0.025753,-7.41e-4 0.05025,0.0079 0.075463,0.01436 0.027234,-0.03368 0.042333,-0.03736 0.048041,-0.05375 0.00515,-0.01454 0.0079,-0.03387 0.0079,-0.04896 0,-0.01288 0.00212,-0.03166 -0.00141,-0.04454 -0.0079,-0.03387 -0.052642,-0.04252 -0.079146,-0.05467 -0.089817,-0.04178 -0.1719086,-0.104913 -0.2617258,-0.156817 -0.056875,-0.03295 -0.1179795,-0.06902 -0.1811126,-0.0935 -0.021731,-0.0085 -0.041042,-0.01638 -0.063313,-0.02577 -0.020814,-0.0094 -0.041783,-0.01233 -0.062579,-0.01878 -0.026494,-0.0072 -0.048962,-0.02153 -0.073254,-0.03295 -0.017286,-0.0079 -0.034607,-0.0138 -0.050433,-0.02245 -0.041596,-0.02153 -0.073254,-0.05448 -0.1063836,-0.08338 -0.048959,-0.04454 -0.090555,-0.08835 -0.1279208,-0.13657"
       style="fill:#21201d;fill-opacity:1;fill-rule:nonzero;stroke:none;stroke-width:0.184057"
       id="path634" />
    <path
       d="m 2.3610002,-69.241257 c -0.00589,-0.0037 -0.011606,-0.0079 -0.01584,-0.01362 -0.00589,0.02503 -7.056e-4,0.04602 0.00141,0.06461 0.00423,-0.0173 0.00921,-0.03368 0.014358,-0.05098"
       style="fill:#21201d;fill-opacity:1;fill-rule:nonzero;stroke:none;stroke-width:0.184057"
       id="path636" />
    <path
       d="m 2.4550507,-69.260767 c -0.045276,-0.02503 -0.092026,-0.04804 -0.1358335,-0.07399 -0.065338,-0.03957 -0.1200044,-0.06902 -0.1912338,-0.09626 -0.1343625,-0.05043 -0.2718505,-0.0935 -0.4119174,-0.127367 -0.208534,-0.05025 -0.4113671,-0.122951 -0.6191638,-0.171174 -0.044542,-0.01067 -0.08835,-0.03884 -0.1328914,-0.04454 -0.0222603,-0.0028 -0.0316442,-0.002 -0.0524545,-0.01215 -0.0165805,-0.0072 -0.0252236,-0.0116 -0.0439879,-0.01233 -0.0531918,-0.002 -0.10270419,-0.02429 -0.15737063,-0.03589 0.0294569,0.04675 0.0870585,0.08191 0.13012913,0.1143 0.041596,0.03092 0.0798795,0.07417 0.12718345,0.09718 0.059817,0.02871 0.10859205,0.06957 0.17117135,0.09479 0.052455,0.02153 0.1041752,0.05117 0.1553421,0.07546 0.040308,0.01877 0.082642,0.02963 0.121479,0.04896 0.031644,0.01583 0.058896,0.03018 0.092763,0.04749 0.078408,0.0381 0.1581044,0.04951 0.2379838,0.08043 0.021519,0.0094 0.043808,0.0059 0.065341,0.01233 0.00589,0.0013 0.013794,0.0092 0.017286,0.0099 0.018768,0.0044 0.028716,0.01012 0.046016,0.01509 0.046013,0.0138 0.094234,0.03166 0.1422753,0.04325 0.041042,0.01068 0.076934,0.0324 0.1165048,0.04675 0.028892,0.01141 0.057612,0.03092 0.085587,0.04528 0.066259,0.03442 0.1301292,0.07399 0.1897627,0.120006 0.061105,0.04675 0.1251585,0.102152 0.1754047,0.167493 0.028152,0.03607 0.04675,0.07914 0.064788,0.120925 0.023001,0.05595 0.047487,0.11062 0.069021,0.16823 0.030903,0.08411 0.081904,0.187555 0.081171,0.278847 0,0.02871 -0.00921,0.05614 -0.012876,0.08485 -0.00212,0.01804 -0.00212,0.03663 -7.055e-4,0.0554 0.00282,0.03313 0.012347,0.06534 0.014358,0.09847 0.00141,0.0497 -0.013617,0.09921 -0.032209,0.145222 0.00646,7.41e-4 0.012136,0.0015 0.018591,0.0022 -0.00282,0.0079 -0.00497,0.01657 -0.0079,0.02374 -0.020073,0.05595 -0.046013,0.110618 -0.0554,0.169701 -0.012876,0.02871 -0.024306,0.05522 -0.034431,0.08411 -0.015099,0.04381 -0.027975,0.08835 -0.042517,0.130866 -0.00995,0.02871 -0.024306,0.05319 -0.030198,0.08338 -0.00497,0.02227 -0.00847,0.04454 -0.01711,0.06534 -0.00589,0.01307 -0.013794,0.02522 -0.018768,0.03884 -0.00282,0.0072 -0.00423,0.01509 -0.00571,0.02374 0.050246,0.02374 0.103438,0.04178 0.155896,0.06608 0.042517,0.02098 0.086321,0.04675 0.1308629,0.06479 0.02099,0.0079 0.042517,0.01436 0.063317,0.02153 0.025224,0.0094 0.048221,0.0208 0.0727,0.03166 0.025753,0.01012 0.050984,0.01951 0.0762,0.02871 -0.00141,-0.0079 -0.00282,-0.01509 -0.00515,-0.02301 -0.0079,-0.02945 -0.016369,-0.05816 -0.030198,-0.08908 -0.023001,-0.05098 -0.023001,-0.107122 -0.023742,-0.157554 -0.00141,-0.05246 -0.00141,-0.105649 -0.00353,-0.160314 -0.00212,-0.04951 -0.00282,-0.101232 0.00141,-0.150928 0.00282,-0.04104 0.014358,-0.07988 0.014358,-0.12295 0,-0.02448 7.056e-4,-0.04896 0.00282,-0.07326 0.00141,0 0.00367,7.4e-4 0.00515,0.0013 0.00282,-0.0243 0.00571,-0.04877 0.0072,-0.07326 7.055e-4,-0.0173 0.00282,-0.03515 0.00423,-0.05319 0.0079,-0.07473 0.017286,-0.164732 -0.015099,-0.235042 -0.03369,-0.07767 -0.018591,-0.153136 -0.035892,-0.233753 -0.00646,-0.03092 -0.02226,-0.05614 -0.032385,-0.08632 -0.00716,-0.02227 -0.010125,-0.04528 -0.017851,-0.06755 -0.015099,-0.04307 -0.034607,-0.097 -0.038283,-0.142277 -0.00282,-0.05761 -0.020073,-0.108594 -0.035172,-0.163995 -0.02152,-0.08338 -0.069021,-0.140252 -0.1316003,-0.198415 -0.036625,-0.03387 -0.081167,-0.06976 -0.1244211,-0.09276 -0.043804,-0.02227 -0.076934,-0.05963 -0.1177961,-0.08411 -0.013617,-0.0087 -0.027975,-0.0173 -0.042517,-0.02522"
       style="fill:#21201d;fill-opacity:1;fill-rule:nonzero;stroke:none;stroke-width:0.184057"
       id="path638" />
    <path
       d="m 2.8533474,-66.159023 c 0.03755,0.02798 0.080617,0.05246 0.1251585,0.07473 0.1006793,0.05098 0.2171877,0.08264 0.322834,0.126632 0.030939,0.01215 0.068287,0.02374 0.1014166,0.03018 0.017286,0.0035 0.030903,0.005 0.04675,0.01068 0.010689,0.0044 0.021519,0.0079 0.03369,0.0116 0.098471,0.02448 0.2006211,0.04454 0.3005631,0.0646 -0.00864,-0.01712 -0.016581,-0.03442 -0.023742,-0.05246 -0.011395,-0.02724 -0.020073,-0.05466 -0.025753,-0.08191 -7.056e-4,-0.0015 -7.056e-4,-0.0037 -7.056e-4,-0.005 0.00716,0.0265 0.016581,0.05319 0.028716,0.0797 0.00864,0.01877 0.018027,0.03736 0.027975,0.05614 0.048958,0.01068 0.097183,0.02153 0.145221,0.0324 0.060371,5.64e-4 0.1021503,0.01067 0.1452209,0.01509 0.010866,0.0013 0.02099,0.002 0.030903,0.002 0.033126,7.41e-4 0.064788,7.41e-4 0.097917,0.0044 0.042333,0.0173 0.096262,0.02227 0.1380419,0.04031 0.016369,0.0072 0.032949,0.01565 0.050246,0.02301 0.02226,0.0085 0.04675,0.01215 0.068287,0.02227 0.018768,0.0079 0.033867,0.01638 0.052455,0.02375 0.025964,0.0099 0.051167,0.02227 0.075463,0.03368 0.030939,0.01362 0.062579,0.02374 0.092766,0.03957 0.025964,0.01288 0.051904,0.02595 0.078408,0.0381 0.071963,0.03387 0.1489004,0.06681 0.2214174,0.09626 0.1063837,0.04325 0.2107459,0.0878 0.3114252,0.130129 0.027975,0.0116 0.055951,0.02374 0.083376,0.03534 0.00938,0.0035 0.017286,0.0035 0.021519,0.01288 -0.00938,-0.05098 -0.00716,-0.07049 -0.00572,-0.07896 0.00212,-0.02669 7.056e-4,-0.05338 -0.0072,-0.08062 -0.0072,-0.02448 -0.019509,-0.04454 -0.033126,-0.06755 -0.018768,-0.03019 -0.032385,-0.05908 -0.045279,-0.08982 -0.011606,-0.02669 -0.033867,-0.04399 -0.063313,-0.05761 -0.04675,-0.02227 -0.092766,-0.04178 -0.1387793,-0.06681 -0.066075,-0.03534 -0.1316002,-0.07197 -0.2006212,-0.10436 -0.075463,-0.03368 -0.1531337,-0.06111 -0.2343044,-0.08614 -0.028716,-0.0087 -0.053192,-0.02301 -0.082642,-0.03166 -0.013617,-0.0037 -0.026705,-0.0059 -0.040308,-0.01013 -0.037363,-0.01086 -0.071963,-0.02595 -0.1100631,-0.03515 -0.031644,-0.0079 -0.063867,-0.01307 -0.094791,-0.02172 -0.033126,-0.0092 -0.056134,-0.01859 -0.08853,-0.02006 -0.020073,-0.0015 -0.040125,-0.0086 -0.060371,-0.01436 -0.045279,-0.0116 -0.089817,-0.02374 -0.134359,-0.03736 -0.0079,-0.0029 -0.01584,-0.0057 -0.023742,-0.0079 -0.1050961,-0.03387 -0.208534,-0.06976 -0.3141839,-0.102889 -0.00282,-0.0015 -0.00589,-0.002 -0.00938,-0.0035 0,0.0072 0,0.01436 0,0.02153 -0.025964,-0.0087 -0.051717,-0.01804 -0.078408,-0.02522 -0.029457,-0.0072 -0.058896,-0.01435 -0.088346,-0.02301 -0.059817,-0.01657 -0.1172422,-0.03884 -0.1754047,-0.0589 -0.033867,-0.0116 -0.072704,-0.01877 -0.1021503,-0.03589 -0.043254,-0.02669 -0.098471,-0.04749 -0.1172457,-0.08632 -0.0079,-0.01804 -0.012136,-0.03608 -0.017286,-0.05393 -0.00646,-0.02448 -0.019332,-0.04822 -0.023566,-0.07417 -0.00212,-0.01068 -0.00282,-0.0208 -0.00441,-0.03148 -0.025964,-0.0037 -0.051721,-0.0072 -0.078408,-0.0094 -0.01658,-0.0015 -0.03369,-0.0015 -0.05025,-0.0029 -0.02152,-0.0015 -0.042517,-0.0064 -0.06405,-0.0099 -0.043804,-0.0059 -0.08485,-0.0059 -0.1308629,-0.02669 -0.048038,0.0057 -0.087612,-0.0079 -0.1308629,-0.01583 -0.03369,-0.0064 -0.06755,-0.01362 -0.1006792,-0.02227 0.00737,0.0324 0.011606,0.06608 0.030198,0.09774 0.013794,0.02227 0.030374,0.04399 0.044725,0.06626 0.018591,0.02724 0.030903,0.05595 0.048775,0.08411 0.0381,0.05743 0.066996,0.116324 0.099208,0.174671 0.010125,0.01785 0.018768,0.03957 0.036809,0.0554 0.011395,0.01068 0.026494,0.01933 0.039388,0.02871"
       style="fill:#21201d;fill-opacity:1;fill-rule:nonzero;stroke:none;stroke-width:0.184057"
       id="path640" />
    <path
       d="m 1.9857081,-67.020414 c 0.023742,0.0208 0.052455,0.03884 0.078959,0.05761 0.048225,0.03515 0.098471,0.07049 0.1546083,0.097 0.051721,0.02448 0.1049126,0.04454 0.1582879,0.06681 0.00571,0.0015 0.012876,0.0037 0.018591,0.0059 -0.00282,-0.0116 -0.00572,-0.02375 -0.00938,-0.03608 -7.056e-4,-0.0028 -0.00141,-0.005 -0.00212,-0.0079 0.041596,0.01233 0.081167,0.02522 0.1249751,0.03608 0.0554,0.01362 0.1093293,0.02651 0.1639923,0.04233 0.04675,0.01215 0.094237,0.02153 0.1430125,0.03239 0.036625,0.0087 0.071229,0.01859 0.1093294,0.02577 0.028716,0.0059 0.058896,0.01013 0.088346,0.01583 0.045463,0.0087 0.090742,0.01878 0.1367543,0.02816 7.056e-4,-0.0037 0.00353,-0.0064 0.00497,-0.0094 0.00141,0 0.00282,0 0.00423,7.41e-4 0.025224,0.0042 0.051167,0.01013 0.076934,0.01362 0.031644,0.0044 0.060554,0.005 0.0935,0.01436 0.074729,0.02098 0.1466921,0.02522 0.2221583,0.03957 0.031644,0.0064 0.063313,0.01509 0.094971,0.02522 0.00938,0.0035 0.019332,0.0042 0.027234,0.0079 0.014358,-0.0094 0.028152,-0.0346 0.036075,-0.04675 0.012876,-0.01877 0.025047,-0.0346 0.031468,-0.0554 0.00441,-0.01435 0.012347,-0.0265 0.00938,-0.04233 -7.056e-4,-0.0029 0.00212,-0.0044 0,-0.0072 -0.00282,-0.0059 -0.013617,-0.01583 -0.019332,-0.02098 -0.023001,-0.02301 -0.063317,-0.02797 -0.096446,-0.03589 -0.075463,-0.01878 -0.1509253,-0.04104 -0.224917,-0.06553 -0.045275,-0.01564 -0.091292,-0.03019 -0.1367543,-0.04601 0,-0.0013 0,-0.0028 0,-0.0035 -0.046013,-0.01362 -0.090555,-0.02669 -0.1343589,-0.04104 -0.043071,-0.01436 -0.081904,-0.02945 -0.1271834,-0.04233 -0.037363,-0.0116 -0.0762,-0.02227 -0.1137462,-0.0346 -0.077488,-0.02577 -0.1494543,-0.05816 -0.222892,-0.08688 -0.088346,-0.03607 -0.1846086,-0.067 -0.270196,-0.102888 -0.0072,0.005 -0.013053,0.01012 -0.018768,0.01509 -0.073992,-0.03442 -0.1474294,-0.06534 -0.2135082,-0.115035 -0.032385,-0.03516 -0.092026,-0.06902 -0.1172422,-0.115037 -0.031644,-0.05743 -0.043804,-0.119269 -0.065342,-0.181113 -0.013617,-0.04252 -0.02226,-0.08927 -0.028716,-0.134546 -0.00716,-0.04749 -0.00141,-0.097 -7.055e-4,-0.146694 0.00282,-0.109883 0.031644,-0.21995 0.076934,-0.32339 0.026494,-0.06184 0.066813,-0.120926 0.078962,-0.187003 0.00515,-0.02522 0.0079,-0.04749 0.02025,-0.07049 0.019332,-0.03589 0.046013,-0.06755 0.065338,-0.103441 0.02025,-0.0381 0.044542,-0.07417 0.070496,-0.10933 0.01584,-0.02153 0.025224,-0.04178 0.043067,-0.06184 0.020249,-0.02374 0.018027,-0.03092 0.018768,-0.06258 7.055e-4,-0.06111 -0.051721,-0.08191 -0.099942,-0.105649 -0.043808,-0.02227 -0.079146,-0.02374 -0.1085955,0.02153 -0.011395,0.01583 -0.019332,0.04105 -0.027975,0.0589 -0.00572,0.0116 -0.0079,0.02595 -0.013053,0.0381 -0.00282,0.0079 -0.00921,0.02374 -0.010689,0.03166 -0.010125,0.04104 -0.031644,0.07694 -0.047487,0.117981 -0.00938,0.02301 -0.01143,0.03736 -0.015099,0.06111 -0.00423,0.02448 -0.021555,0.04307 -0.024483,0.06755 -0.00353,0.02448 -0.00423,0.03884 -0.017286,0.06332 -0.027975,0.05246 -0.055951,0.104914 -0.081167,0.158842 -0.015099,0.03166 -0.028716,0.06405 -0.042333,0.09498 -0.02099,0.04528 -0.035338,0.0935 -0.056875,0.137307 -0.023001,0.09056 -0.048221,0.173934 -0.06405,0.259521 -0.01785,0.09626 -0.02226,0.187003 -0.015099,0.28032 0.00367,0.05043 0.0079,0.09939 0.013794,0.148167 0.032209,0.09571 0.096996,0.186267 0.1746673,0.260258 0.027234,0.02669 0.056691,0.05172 0.085587,0.07694"
       style="fill:#21201d;fill-opacity:1;fill-rule:nonzero;stroke:none;stroke-width:0.184057"
       id="path642" />
    <path
       d="m 5.2893308,-66.35394 c -0.023001,-0.01068 -0.04675,-0.01785 -0.071229,-0.02724 -0.048959,-0.01951 -0.097734,-0.03589 -0.1501881,-0.05098 -0.063317,-0.01804 -0.1258958,-0.02816 -0.1905,-0.04031 -0.030374,-0.0052 -0.060554,-0.0116 -0.090738,-0.01657 -0.025753,-0.0044 -0.049512,-0.01233 -0.075463,-0.01804 -0.051721,-0.01067 -0.099208,-0.02871 -0.1509253,-0.04031 -0.06755,-0.01565 -0.1437499,-0.04381 -0.2114833,-0.0381 -0.034431,0.0029 -0.052454,0.01657 -0.068284,0.03387 -0.00921,0.01086 -0.024306,0.02006 -0.026494,0.03387 -0.00212,0.0099 7.055e-4,0.02503 0.00646,0.03589 0.0079,0.01362 0.026494,0.01657 0.04178,0.02595 7.055e-4,5.65e-4 7.055e-4,5.65e-4 0.00141,0.0013 -0.00864,0.0022 -0.014358,0.0059 -0.00864,0.01307 0.011606,0.01141 0.033126,0.01215 0.048958,0.01712 0.038834,0.01233 0.075463,0.03166 0.1135627,0.04473 0.09718,0.03368 0.1934422,0.06534 0.291913,0.09847 0.092026,0.0173 0.1790841,0.04951 0.2632005,0.08338 0.035172,0.01362 0.061842,0.03442 0.092763,0.05393 0.038837,0.02448 0.077671,0.05172 0.1165084,0.07399 0.01584,0.01877 0.038834,0.03166 0.053929,0.04896 0.037363,0.04031 0.035137,0.09424 0.1084086,0.118534 -0.024306,0.178352 0.1100632,0.328727 0.1330713,0.511312 0.00441,0.07326 0.00141,0.14375 -0.00864,0.221422 -0.019332,0.0416 -0.02226,0.08559 -0.039571,0.12792 -0.025753,0.05964 -0.069021,0.120742 -0.080433,0.188476 -0.00938,0.05448 -0.061842,0.106385 -0.097734,0.145958 -0.041046,0.0438 -0.092029,0.08687 -0.1085956,0.154424 -0.018027,0.07049 -0.017286,0.13381 -0.02226,0.211483 -0.00441,0.06681 0.01143,0.124423 0.016581,0.191972 0.00141,0.01657 0,0.02871 0.00282,0.04601 0.00367,0.0208 0.013617,0.0381 0.014358,0.06184 7.055e-4,0.03589 0.0079,0.06902 0.00367,0.108594 -0.00864,0.07694 -0.013617,0.163812 -0.053192,0.237987 -0.01584,0.03148 -0.041046,0.06037 -0.061108,0.08835 -0.032385,0.04381 -0.057609,0.09626 -0.090004,0.140252 -0.01711,0.02374 -0.029457,0.04951 -0.046013,0.07399 -0.00847,0.01362 -0.017851,0.02006 -0.025753,0.0346 -0.013617,0.02227 -0.027411,0.07105 -0.042517,0.04307 0.028892,0.0015 0.044725,0.03515 0.061842,0.05761 0.012312,0.01509 0.033126,0.01068 0.044542,0.02577 0.00737,0.0116 0.015275,0.0208 0.021731,0.03166 0.00646,0.0087 0.00995,0.04454 0.025047,0.03515 0.00663,-0.0035 0.02667,-0.03736 0.032385,-0.04601 0.012876,-0.01712 0.018027,-0.0243 0.030903,-0.04013 0.033126,-0.03884 0.066079,-0.07694 0.099208,-0.118717 0.028152,-0.03442 0.042517,-0.0705 0.06405,-0.110067 0.05025,-0.08908 0.081171,-0.207065 0.098471,-0.299646 0.018768,-0.09866 0.02667,-0.191421 0.027975,-0.279768 0.00212,-0.06829 -0.00497,-0.137308 -0.00212,-0.203384 7.056e-4,-0.01233 -0.00212,-0.02595 -0.00141,-0.04031 7.056e-4,-0.01804 0.00212,-0.03166 0.00423,-0.04896 0.00282,-0.02651 0.00441,-0.0381 0.014358,-0.06461 0.023742,-0.06626 0.056134,-0.130129 0.071963,-0.197126 0.020073,-0.08485 0.05025,-0.132153 0.0935,-0.207801 0.012136,-0.02301 0.02152,-0.04657 0.034431,-0.06902 0.025224,-0.04675 0.054663,-0.08835 0.069758,-0.140068 0.011606,-0.0381 0.030198,-0.07197 0.042517,-0.108594 0.012876,-0.04252 0.025047,-0.08559 0.035137,-0.127368 0.00864,-0.03884 0.018027,-0.07546 0.02667,-0.112828 0.00423,-0.01859 0.00497,-0.03736 0.0079,-0.05614 0.00423,-0.02724 0.011395,-0.05246 0.013617,-0.0797 7.056e-4,-0.02595 -0.00141,-0.05098 -0.00441,-0.0762 -0.00212,-0.07049 -0.010689,-0.141724 -0.021519,-0.210746 -0.00864,-0.05595 -0.026494,-0.113564 -0.027234,-0.166756 -0.015099,-0.05393 -0.070492,-0.113564 -0.1194505,-0.15737 -0.043808,-0.0381 -0.08485,-0.07841 -0.1358336,-0.111539 -0.045279,-0.03018 -0.089083,-0.0646 -0.1417249,-0.08706 -0.019332,-0.0085 -0.036625,-0.02006 -0.055954,-0.02945"
       style="fill:#21201d;fill-opacity:1;fill-rule:nonzero;stroke:none;stroke-width:0.184057"
       id="path644" />
    <path
       d="m 1.8382788,-68.455513 c -0.023001,0.02945 -0.036625,0.05246 -0.053192,0.08485 -0.00864,0.01583 -0.013617,0.03608 -0.021519,0.05319 -0.00864,0.0173 -0.020249,0.02945 -0.025224,0.0497 -0.00572,0.01933 0.00141,0.0324 -0.025224,0.02724 -0.0079,-7.41e-4 -0.027975,-0.01435 -0.035892,-0.01859 -0.02226,-0.01012 -0.045275,-0.01877 -0.066813,-0.0289 -0.077671,-0.03663 -0.1387757,-0.09921 -0.2020923,-0.155161 -0.039571,-0.0346 -0.080617,-0.06902 -0.1172421,-0.106385 -0.047488,-0.0497 -0.099208,-0.103625 -0.1358336,-0.161051 -0.02226,-0.03681 -0.02667,-0.07988 -0.047487,-0.117245 -0.023001,-0.04104 -0.027235,-0.08135 -0.043804,-0.125159 -0.0072,-0.0208 -0.02226,-0.04086 -0.028152,-0.06184 -0.012136,-0.03884 -0.028716,-0.08117 -0.031468,-0.124423 -0.00141,-0.02577 7.056e-4,-0.04307 -0.009384,-0.06534 -0.0101247,-0.02301 -0.0123472,-0.03313 -0.0143581,-0.0589 -0.002117,-0.01951 -0.009384,-0.03681 -0.014358,-0.05614 -0.005891,-0.02006 -0.0130528,-0.04104 -0.0202495,-0.0589 -0.009384,-0.02025 -0.0113947,-0.03681 -0.0185914,-0.05614 -0.00441,-0.01436 -0.0274108,-0.0324 -0.0202494,-0.04822 0.0222603,0.0116 0.0467501,0.0059 0.0697583,0.01086 0.0150989,0.0029 0.0331259,0.01215 0.0467501,0.02153 0.023001,0.01657 0.045276,0.04454 0.065522,0.06553 0.025753,0.02797 0.048041,0.06387 0.068287,0.09553 0.015099,0.02448 0.016369,0.05246 0.030903,0.0762 0.00847,0.01583 0.023001,0.02945 0.030903,0.04675 0.035172,0.06755 0.075463,0.133075 0.1143,0.199151 0.034431,0.05816 0.08043,0.105649 0.1192671,0.161051 0.024483,0.0346 0.043071,0.0727 0.068284,0.105649 0.01584,0.02153 0.032385,0.04178 0.050983,0.06111 0.027411,0.02816 0.057612,0.05043 0.090742,0.07197 0.042333,0.02724 0.095525,0.08632 0.1479797,0.08982 7.056e-4,0.0037 0.00141,0.0064 0.027411,0.02227"
       style="fill:#21201d;fill-opacity:1;fill-rule:nonzero;stroke:none;stroke-width:0.184057"
       id="path646" />
    <path
       d="m 2.5470799,-69.350587 c 0,-0.02448 0.00282,-0.05098 0,-0.07546 -0.00141,-0.0116 -0.0079,-0.01878 -0.00921,-0.02669 -0.00282,-0.01141 0,-0.0243 -0.00282,-0.03589 -0.00212,-0.01013 -0.010866,-0.01288 -0.012876,-0.02301 -0.00367,-0.01141 7.055e-4,-0.02595 7.055e-4,-0.0381 -0.00141,-0.02522 -0.010865,-0.05687 -0.018768,-0.08062 -0.013617,-0.04233 -0.043067,-0.0797 -0.069021,-0.113563 -0.015099,-0.01932 -0.023001,-0.04307 -0.043067,-0.05964 -0.010125,-0.0086 -0.070496,-0.04528 -0.079883,-0.04307 -0.00646,0.01509 0.0079,0.02797 0.011606,0.0416 0.00212,0.0072 -7.056e-4,0.01657 7.055e-4,0.02448 0.00141,0.0072 0.00864,0.0072 0.010125,0.01436 0.0079,0.03313 0.00141,0.0762 0.00141,0.110803 0,0.03368 0.00423,0.07105 -0.00282,0.102704 -7.055e-4,0.0044 -0.00864,0.0087 -0.00995,0.01509 -0.00282,0.01012 0.00282,0.02172 7.055e-4,0.03166 -0.00282,0.01436 -0.00938,0.02669 -0.01584,0.04031 -0.028152,0.0589 0.056691,0.08908 0.1019704,0.105649 0.029457,0.01086 0.066996,0.0346 0.1006758,0.02301 0.031644,-0.01141 0.035892,-0.05963 0.036629,-0.01362"
       style="fill:#21201d;fill-opacity:1;fill-rule:nonzero;stroke:none;stroke-width:0.184057"
       id="path648" />
  </g>
</svg>
