<?xml version="1.0" encoding="UTF-8" standalone="no"?>
<!-- Created with Inkscape (http://www.inkscape.org/) -->

<svg
   width="7.2555151mm"
   height="5.1810842mm"
   viewBox="0 0 7.2555151 5.1810842"
   version="1.1"
   id="svg3544"
   inkscape:version="1.1.2 (0a00cf5339, 2022-02-04)"
   sodipodi:docname="u2.svg"
   xmlns:inkscape="http://www.inkscape.org/namespaces/inkscape"
   xmlns:sodipodi="http://sodipodi.sourceforge.net/DTD/sodipodi-0.dtd"
   xmlns="http://www.w3.org/2000/svg"
   xmlns:svg="http://www.w3.org/2000/svg">
  <sodipodi:namedview
     id="namedview3546"
     pagecolor="#ffffff"
     bordercolor="#666666"
     borderopacity="1.0"
     inkscape:pageshadow="2"
     inkscape:pageopacity="0.0"
     inkscape:pagecheckerboard="0"
     inkscape:document-units="mm"
     showgrid="false"
     inkscape:zoom="0.64052329"
     inkscape:cx="-224.81618"
     inkscape:cy="814.17805"
     inkscape:window-width="2560"
     inkscape:window-height="1376"
     inkscape:window-x="0"
     inkscape:window-y="0"
     inkscape:window-maximized="1"
     inkscape:current-layer="layer1" />
  <defs
     id="defs3541" />
  <g
     inkscape:label="Layer 1"
     inkscape:groupmode="layer"
     id="layer1"
     transform="translate(-164.49329,67.030032)">
    <path
       d="m 169.18323,-61.893941 c 0.004,-0.03092 0.0151,-0.05246 0.0145,-0.08559 0,-0.05522 0,-0.110619 0,-0.165284 0,-0.06608 0,-0.132338 7e-4,-0.198415 7.1e-4,-0.09847 -0.0257,-0.194181 -0.0295,-0.291916 -0.004,-0.09847 -0.0151,-0.194917 -0.0136,-0.294124 7e-4,-0.05743 -0.008,-0.123687 -0.018,-0.180377 -0.0243,-0.143197 -0.0503,-0.28621 -0.0755,-0.428487 -0.023,-0.131601 -0.0503,-0.26173 -0.0503,-0.39554 0,-0.06976 0.003,-0.137307 -0.0101,-0.206329 -0.0173,-0.08761 -0.0294,-0.178904 -0.0337,-0.268172 -0.004,-0.08559 0.004,-0.167493 -0.0109,-0.25308 -0.009,-0.05172 0.003,-0.104913 -0.006,-0.156633 -0.0195,-0.113012 -0.0188,-0.233018 -0.0433,-0.347318 -0.0121,-0.06111 -0.028,-0.122951 -0.0394,-0.184058 -0.004,-0.0173 0.004,-0.03589 7.1e-4,-0.05319 -0.004,-0.01877 -0.0121,-0.03018 -0.0156,-0.04822 -0.004,-0.01657 0.002,-0.03663 7e-4,-0.05319 -7e-4,-0.02153 -0.01,-0.03589 -0.0143,-0.05614 -0.0136,-0.05466 -0.0216,-0.112091 -0.028,-0.167493 -0.004,-0.02724 -0.0136,-0.0416 -0.0144,-0.07049 -0.002,-0.03515 -0.0245,-0.06313 -0.0302,-0.09774 -0.004,-0.02871 0.0114,-0.04822 -0.0274,-0.05687 -0.025,-0.005 -0.0604,0.0015 -0.0869,0.0015 -0.0799,0 -0.17983,0.01509 -0.25603,-0.0035 -0.0554,-0.01362 -0.1027,-0.02448 -0.16031,-0.02448 -0.0331,0 -0.0547,-0.0037 -0.0856,-0.0116 -0.0351,-0.0092 -0.0784,-0.0035 -0.11504,-0.0035 -0.0237,0 -0.0482,7.41e-4 -0.0725,0 -0.009,0 -0.0353,-0.0037 -0.044,0 -0.0201,0.0087 -0.009,0.0087 -0.0129,0.02798 -0.0265,0.110066 -0.0359,0.228047 -0.0547,0.340875 -0.0114,0.0762 -0.0193,0.155345 -0.0287,0.232281 -0.009,0.07399 -0.0245,0.147246 -0.0316,0.222158 -0.0144,0.155161 -0.0374,0.307561 -0.0676,0.460145 -0.0374,0.181849 -0.0403,0.367379 -0.0762,0.549965 -0.0223,0.115036 -0.0346,0.232281 -0.0539,0.348053 -0.0274,0.163812 -0.046,0.32928 -0.072,0.493091 -0.0179,0.1143 -0.0302,0.230073 -0.0423,0.345845 -0.0131,0.121478 -0.0361,0.24222 -0.0512,0.363883 -0.0151,0.132889 -0.0366,0.265963 -0.0718,0.393884 -0.0136,0.0519 -0.0109,0.100679 -0.0282,0.151848 -0.007,0.02006 -0.0178,0.04454 -0.0223,0.06166 -0.005,0.02172 -0.0257,0.06552 -0.004,0.07915 0.009,0.0057 0.0366,0.0037 0.0482,0.005 0.0243,0.0044 0.0423,0.01012 0.0683,0.01086 0.0668,0.0022 0.13436,0 0.20062,0 0.0164,0 0.0725,0.0094 0.0841,-0.0022 0.007,-0.0072 0.002,-0.03368 0.002,-0.04233 -7.1e-4,-0.03589 0,-0.0727 0,-0.10933 0,-0.235042 0.0433,-0.464379 0.0433,-0.700341 0,-0.0473 -0.004,-0.09479 0.003,-0.142276 0.008,-0.05025 0.026,-0.09994 0.026,-0.150928 0,-0.05835 0.0208,-0.113012 0.0287,-0.170438 0.0101,-0.07694 0.0166,-0.156081 0.0309,-0.232281 0.007,-0.03663 0.0316,-0.06755 0.0388,-0.104913 0.0101,-0.05043 7e-4,-0.09571 0.0158,-0.145958 0.0245,-0.08411 0.0482,-0.169701 0.0626,-0.256024 0.0324,-0.201176 0.0834,-0.408241 0.0819,-0.612545 -7e-4,-0.08559 0,-0.170438 0,-0.255841 0,-0.05982 -0.008,-0.125895 0.003,-0.184794 0.0136,-0.07123 0.0121,-0.145221 0.028,-0.217188 0.006,-0.02945 0.0237,-0.05319 0.0274,-0.08338 0.004,-0.02816 -7.1e-4,-0.05964 -7.1e-4,-0.08853 v -0.09626 c 0,-0.0173 -0.001,-0.03589 -7e-4,-0.05246 10e-4,-0.0289 0.0107,-0.04822 0.0151,-0.07417 0.007,-0.03663 0.005,-0.07546 0.0136,-0.112092 0.0129,-0.0589 0.0396,-0.03515 0.0863,-0.02724 0.0438,0.0064 0.0755,0.01638 0.11779,0.03148 0.0223,0.0079 0.0475,0.0052 0.0698,0.01307 0.0223,0.0072 0.0361,0.02153 0.0596,0.02577 0.0353,0.0059 0.0742,-0.0079 0.1086,0.0022 0.0158,0.005 0.0569,0.02448 0.0697,0.03534 -0.004,0.0035 -0.006,0.0085 -0.006,0.01436 0.0309,0.01933 0.0109,0.13878 0.0109,0.17099 0,0.067 0.0107,0.143933 -0.003,0.21001 -0.009,0.04233 -0.0166,0.08559 -0.0223,0.128656 -0.008,0.06037 7.1e-4,0.12019 -0.006,0.180561 -0.0101,0.08264 -0.0116,0.160315 -0.0116,0.244429 0,0.08761 0.001,0.171726 0.018,0.258049 0.0121,0.06405 0.018,0.12792 0.0287,0.191973 0.0136,0.08338 0.0539,0.159578 0.0676,0.240932 0.0116,0.07105 0.0138,0.140804 0.0267,0.211298 0.006,0.03736 0,0.07344 0.002,0.110803 0.002,0.03442 0.0121,0.06902 0.0151,0.10344 0.0107,0.125896 0.0144,0.248111 0.0144,0.374558 v 0.472477 c 0,0.175407 -0.0116,0.347869 -0.0425,0.520516 -0.004,0.0208 -0.0121,0.0381 -0.0193,0.05816 -0.0101,0.0346 -0.0123,0.06976 -0.0203,0.105097 -0.007,0.03589 -0.023,0.06755 -0.0329,0.101968 -0.005,0.01583 -0.0144,0.04749 -0.013,0.06405 0.044,0.01804 0.0828,0.01583 0.12884,0.02595 0.0302,0.0072 0.0545,0.005 0.0849,0.0064 0.0294,0.0015 0.0552,0.01362 0.0841,0.01583 0.0861,0.0057 0.17467,-0.0015 0.24645,-0.04325"
       style="fill:#21201d;fill-opacity:1;fill-rule:nonzero;stroke:none;stroke-width:0.184057"
       id="path650" />
    <path
       d="m 169.2552,-66.063221 c 0.005,-0.02301 -0.0129,-0.04675 -0.0144,-0.0705 -0.001,-0.02227 7.1e-4,-0.04601 7.1e-4,-0.06976 v -0.146694 c 0,-0.04012 -0.0109,-0.09479 -7.1e-4,-0.133626 0.006,-0.02374 0.0158,-0.02522 0.0144,-0.0554 -7.1e-4,-0.03515 0.001,-0.03166 0.0295,-0.04822 0.0339,-0.0208 0.0381,-0.05964 0.0425,-0.09203 0.003,-0.02227 0.0121,-0.03295 0.0144,-0.0554 0.004,-0.0265 -0.007,-0.0589 -7.1e-4,-0.08467 0.005,-0.01951 0.0144,-0.02522 0.0151,-0.04822 0.001,-0.01877 0.006,-0.04601 0.001,-0.06332 -0.0116,-0.04822 -0.0878,-0.0416 -0.12865,-0.0416 h -0.57665 c -0.0826,0 -0.1662,0.0042 -0.24811,0 -0.0302,-0.0015 -0.0569,-0.01307 -0.0871,-0.01509 -0.0401,-0.0022 -0.074,-0.0022 -0.11283,-0.01012 -0.15663,-0.03239 -0.32284,-0.03092 -0.48462,-0.03092 -0.13878,0 -0.27811,7.4e-4 -0.41689,0 -0.0138,0 -0.0295,-0.0022 -0.0433,-7.41e-4 -0.0178,0.0029 -0.0186,0.0087 -0.0316,0.01141 -0.0243,0.0066 -0.0466,7.41e-4 -0.0552,0.03037 -0.002,0.0092 0.004,0.0208 0.002,0.02945 -0.004,0.01215 -0.0136,0.01509 -0.0164,0.0265 -0.007,0.02669 7e-4,0.06902 7e-4,0.09571 0,0.04086 -0.0157,0.107858 0.0252,0.13289 0.0195,0.01233 0.0433,0.0116 0.0648,0.02025 0.0223,0.0099 0.0324,0.02006 0.0517,0.03589 -0.009,0.02153 -0.0129,0.03884 -0.0121,0.06608 7e-4,0.0289 -0.0116,0.04969 -0.0145,0.0762 -0.007,0.05117 0,0.110066 0,0.161235 v 0.154424 c 0,0.01233 0.002,0.02963 7.1e-4,0.04252 -0.002,0.01435 -0.01,0.02006 -0.0121,0.03018 -0.005,0.02448 -0.0129,0.05466 -0.0158,0.07914 0.0366,0.0085 0.0819,0.002 0.12074,0.002 0.0324,0 0.10565,0.01307 0.13307,-0.0028 0.028,-0.01583 0.0208,-0.07049 0.0144,-0.09571 -0.0109,-0.04233 -0.006,-0.08411 -0.0144,-0.12792 -0.009,-0.0497 -0.0109,-0.09424 -0.0109,-0.144485 0,-0.02098 -0.001,-0.03957 0.003,-0.05982 10e-4,-0.005 0.0101,-0.0085 0.0121,-0.01638 0.004,-0.0138 -0.005,-0.02963 -10e-4,-0.04325 0.006,-0.02724 0.0366,-0.06608 0.0582,-0.08411 0.0403,-0.03516 0.072,-0.0416 0.12589,-0.0416 0.12001,7.4e-4 0.25013,-0.01307 0.36866,0.0035 0.10068,0.01436 0.20136,0.01436 0.30351,0.02816 0.046,0.0057 0.0876,0.02356 0.1351,0.02503 0.0388,0.0015 0.0791,0 0.11798,0 h 0.24222 c 0.0381,0 0.12221,-0.0173 0.15313,0.0022 0.0388,0.02374 0.009,0.06479 0.003,0.09497 -0.006,0.03148 -7.1e-4,0.06608 -0.006,0.09847 -0.006,0.03221 -0.0151,0.07546 -0.008,0.109146 0.007,0.03534 0.0151,0.05982 0.0151,0.09792 0,0.02448 0,0.04804 0,0.07252 0,0.01804 -0.008,0.0554 -7.1e-4,0.07123 0.006,0.01509 0.0396,0.02448 0.0582,0.02724 0.0237,0.0044 0.0475,-0.0035 0.0712,0.0029 0.0223,0.005 0.0453,0.02153 0.069,0.0079 0.0287,-0.01657 0.0252,-0.09497 0.0151,-0.120742 -0.004,-7.41e-4 -0.008,-0.0022 0.0309,0.06755"
       style="fill:#21201d;fill-opacity:1;fill-rule:nonzero;stroke:none;stroke-width:0.184057"
       id="path652" />
    <path
       d="m 168.96826,-65.685719 c 0.10141,0 0.21644,-0.01583 0.31565,0.0035 0.0381,0.0072 0.0769,0.01436 0.11577,0.02153 0.0287,0.0052 0.0569,-0.0013 0.0856,0.0022 0.0252,0.0029 0.046,0.01436 0.0727,0.01509 0.0215,7.41e-4 0.0272,-0.0015 0.046,0.0094 0.0272,0.01657 0.0488,0.05964 0.0646,0.0878 0.0144,0.02724 0.0223,0.05448 0.0353,0.08043 0.0136,0.02724 0.0337,0.04822 0.0502,0.07399 0.0238,0.0381 0.0287,0.05687 -0.0252,0.05614 -0.18185,-0.0035 -0.36369,7.41e-4 -0.54573,0 -0.0193,0 -0.0409,-0.0029 -0.0604,-7.41e-4 -0.0294,0.0029 -0.0532,0.0208 -0.0841,0.01233 -0.0359,-0.01012 -0.0733,-0.03681 -0.0819,-0.07123 -0.004,-0.01804 7e-4,-0.0346 -0.002,-0.05246 -0.004,-0.02025 -0.0144,-0.0346 -0.0158,-0.05614 -0.001,-0.03663 7.1e-4,-0.07473 0.0295,-0.181849"
       style="fill:#21201d;fill-opacity:1;fill-rule:nonzero;stroke:none;stroke-width:0.184057"
       id="path654" />
    <path
       d="m 167.70434,-65.783637 h -0.71027 c -0.0366,0 -0.0554,-0.0072 -0.0863,-0.01436 -0.0237,-0.0057 -0.069,-0.0035 -0.0942,0 -0.0381,0.0044 -0.0466,0.02098 -0.0604,0.05319 -0.009,0.02227 -0.0302,0.04601 -0.0388,0.06773 -0.006,0.01509 -0.004,0.03092 -0.0114,0.0473 -0.008,0.01804 -0.0136,0.03018 -0.018,0.04896 -0.007,0.03019 -0.0114,0.05816 -0.0173,0.0878 -0.004,0.01583 -0.0186,0.01435 -0.004,0.03148 0.0116,0.01307 0.0339,0.01233 0.0497,0.01454 0.0466,0.0035 0.097,-7.41e-4 0.14375,-7.41e-4 0.0725,0 0.13878,0.0028 0.20982,0.01288 0.0972,0.01362 0.20707,7.41e-4 0.30572,7.41e-4 0.0193,0 0.0423,-0.0029 0.0618,-7.41e-4 0.028,0.0029 0.0552,0.0208 0.0841,0.01657 0.0473,-0.0079 0.0416,-0.05761 0.0582,-0.09129 0.0359,-0.06976 0.0705,-0.153136 0.12792,-0.274062"
       style="fill:#21201d;fill-opacity:1;fill-rule:nonzero;stroke:none;stroke-width:0.184057"
       id="path656" />
    <path
       d="m 168.99715,-65.168148 h 0.74617 c 0.0662,0 0.1511,-0.01288 0.21571,0.0037 0.0267,0.0064 0.0433,0.01141 0.072,0.01068 0.0302,-7.4e-4 0.0445,-0.002 0.0618,0.02448 0.009,0.01509 0.0151,0.03019 0.0272,0.04528 0.021,0.02595 0.0339,0.02448 0.0403,0.05614 0.008,0.04381 0.026,0.09129 0.0445,0.131602 0.008,0.01657 0.0123,0.03295 0.0195,0.05025 0.009,0.02301 0.0337,0.04031 0.0351,0.06829 -0.0561,0.01381 -0.12792,0.0015 -0.18553,0.0015 h -0.21627 c -0.19417,0 -0.38044,-0.0208 -0.5702,-0.05246 -0.026,-0.0042 -0.0497,-0.0029 -0.0755,-0.0029 -0.026,-7.4e-4 -0.0403,-0.0079 -0.064,-0.01288 -0.0388,-0.0087 -0.0871,0.005 -0.12295,-0.01804 -0.0324,-0.01932 -0.0359,-0.09129 -0.046,-0.123687 -0.005,-0.01435 -0.018,-0.03221 -0.0223,-0.04454 -0.006,-0.02503 -0.003,-0.05466 0.0403,-0.137307"
       style="fill:#21201d;fill-opacity:1;fill-rule:nonzero;stroke:none;stroke-width:0.184057"
       id="path658" />
    <path
       d="m 167.60366,-65.181768 h -0.26946 c -0.12663,0 -0.25749,0.0087 -0.3832,-0.0072 -0.0712,-0.0094 -0.15387,0.0064 -0.22289,-0.01013 -0.0734,-0.0173 -0.15608,0.0052 -0.23007,-0.01436 -0.0252,-0.0064 -0.0482,-0.0087 -0.0749,-0.01362 -0.0258,-0.005 -0.0582,-0.02301 -0.0834,-0.0044 -0.0186,0.01307 -0.0165,0.04399 -0.025,0.06331 -0.007,0.02025 -0.0116,0.03663 -0.0173,0.05614 -0.006,0.02227 -0.009,0.04031 -0.0158,0.06258 -0.007,0.0265 -0.009,0.05098 -0.0165,0.07767 -0.0121,0.04951 -0.051,0.09129 -0.0668,0.136571 0.11503,0.03092 0.23798,0.0173 0.35651,0.0173 h 0.87427 c 0.0374,0 0.0641,0.0072 0.0871,-0.02301 0.0208,-0.02669 0.0324,-0.07197 0.0453,-0.103624 0.0186,-0.04528 0.028,-0.09056 0.0423,-0.237251"
       style="fill:#21201d;fill-opacity:1;fill-rule:nonzero;stroke:none;stroke-width:0.184057"
       id="path660" />
    <path
       d="m 169.12581,-64.566278 h 0.71027 c 0.11007,0 0.21571,0.01362 0.32578,0.01362 0.0646,7.4e-4 0.12221,0.01509 0.18553,0.01436 0.0322,0 0.10638,-0.01362 0.13509,7.41e-4 0.0252,0.01215 0.0173,0.04105 0.0223,0.06332 0.003,0.01583 0.0109,0.02871 0.018,0.04454 0.0208,0.04307 0.0309,0.09553 0.0423,0.14375 0.0109,0.04252 0.0331,0.07988 0.0388,0.123687 -0.20062,0.0381 -0.42407,0.01583 -0.62984,0.01583 h -0.60683 c -0.0668,0 -0.13363,0.0042 -0.19841,-0.01086 -0.0258,-0.0064 -0.0366,0.0037 -0.0438,-0.02356 -0.004,-0.01878 7e-4,-0.05043 7e-4,-0.07049 7.1e-4,-0.04528 -0.0208,-0.07418 -0.0294,-0.118718 -0.004,-0.02577 -0.004,-0.04528 -0.0101,-0.07049 -0.006,-0.02227 -0.003,-0.04601 0.0396,-0.125711"
       style="fill:#21201d;fill-opacity:1;fill-rule:nonzero;stroke:none;stroke-width:0.184057"
       id="path662" />
    <path
       d="m 167.35997,-64.566278 c -0.25805,0 -0.51628,7.41e-4 -0.77358,0 -0.0856,0 -0.16326,-0.01362 -0.24885,-0.01362 -0.0985,0 -0.19768,0.002 -0.29615,0 -0.0381,-7.41e-4 -0.12221,-0.04178 -0.13307,0.0064 -0.002,0.01068 0.004,0.02374 0.001,0.03515 -0.002,0.01086 -0.009,0.01878 -0.0114,0.02797 -0.006,0.02098 -0.002,0.04178 -0.004,0.06332 -0.001,0.03663 -0.0173,0.07473 -0.0272,0.112275 -0.0109,0.0381 -0.0267,0.07896 -0.0425,0.115588 0.0217,0.0059 0.046,0.0029 0.0683,0.0029 0.0685,-7.41e-4 0.13676,0 0.20504,0 h 0.96041 c 0.0561,0 0.11301,-7.41e-4 0.1697,0 0.0532,0 0.0712,-0.0015 0.0848,-0.05614 0.008,-0.03148 -0.005,-0.06755 0.003,-0.09847 0.004,-0.0173 0.0121,-0.02153 0.0151,-0.04086 0.002,-0.01804 0,-0.03884 0.0287,-0.154609"
       style="fill:#21201d;fill-opacity:1;fill-rule:nonzero;stroke:none;stroke-width:0.184057"
       id="path664" />
    <path
       d="m 169.19777,-63.922812 c 0.37235,0 0.74469,-7.41e-4 1.11722,0 0.0841,7.41e-4 0.16529,-0.01435 0.24811,-0.01362 0.048,7.41e-4 0.0955,0 0.14301,0 0.028,0 0.0906,-0.01233 0.11577,-7.4e-4 0.0245,0.01067 0.0129,0.07841 0.0201,0.104913 0.006,0.0208 0.0144,0.04233 0.0188,0.06331 0.005,0.02374 -0.001,0.04749 0.006,0.0705 0.0151,0.04804 0.0589,0.06313 0.0841,0.10344 0.009,0.01509 0.0144,0.0173 0.0144,0.03663 -7e-4,0.02743 -0.003,0.02522 -0.0295,0.02743 -0.046,0.0057 -0.0977,0 -0.14375,0 h -0.68597 c -0.10565,0 -0.20927,0.005 -0.31345,-0.01012 -0.0849,-0.01362 -0.17117,-0.01877 -0.25805,-0.0173 -0.0339,0 -0.0561,-0.01067 -0.0885,-0.01509 -0.0309,-0.0042 -0.0668,7.4e-4 -0.0977,7.4e-4 -0.0208,0 -0.0431,0.0029 -0.0641,0 -0.0351,-0.0042 -0.0223,-0.0042 -0.0302,-0.03442 -0.0223,-0.08706 -0.0826,-0.168965 -0.0559,-0.315659"
       style="fill:#21201d;fill-opacity:1;fill-rule:nonzero;stroke:none;stroke-width:0.184057"
       id="path666" />
    <path
       d="m 167.38868,-63.908455 v -0.0094 0.233018 c 0,0.01288 0.007,0.04528 7.1e-4,0.05669 -0.009,0.01951 -0.025,0.0138 -0.046,0.01307 -0.0762,-7.4e-4 -0.15167,0 -0.22713,0 -0.0834,0 -0.16675,-0.0029 -0.25013,0 -0.0532,0.0015 -0.10436,0.01362 -0.15755,0.01509 -0.0554,7.41e-4 -0.11007,-7.41e-4 -0.16529,-7.41e-4 h -0.18479 c -0.0893,0 -0.17117,-0.02595 -0.25952,-0.02871 -0.0604,-0.0015 -0.11724,-0.02448 -0.17559,-0.02743 -0.0611,-0.0035 -0.11706,-0.01509 -0.17964,-0.01362 -0.0517,7.41e-4 -0.0985,-0.01435 -0.15019,-0.01435 -0.0361,7.4e-4 -0.10436,0.01657 -0.0836,-0.03884 0.005,-0.01233 0.023,-0.02871 0.0302,-0.04178 0.007,-0.01436 0.0138,-0.02945 0.0203,-0.04528 0.009,-0.01932 0.0193,-0.0381 0.0295,-0.05669 0.0144,-0.02522 0.0109,-0.0346 0.0173,-0.06332 0.004,-0.01583 0.0121,-0.02448 0.0158,-0.04031 0.002,-0.01362 -0.009,-0.04454 0,-0.05614 0.0136,-0.01859 0.0503,-0.005 0.0711,-0.0013 0.0618,0.01141 0.12368,0.03442 0.187,0.03663 0.0819,0.0028 0.15884,-0.0044 0.24093,0.01288 0.0834,0.01878 0.1732,0.02153 0.25878,0.02743 0.0777,0.0042 0.15167,0 0.22934,0.01141 0.0747,0.01159 0.15534,0.0037 0.2308,0.0037 0.18258,0 0.36517,0 0.54775,0.02797"
       style="fill:#21201d;fill-opacity:1;fill-rule:nonzero;stroke:none;stroke-width:0.184057"
       id="path668" />
    <path
       d="m 169.26955,-63.278609 h 1.70179 c 0.0274,0 0.0561,-0.0015 0.0828,-7.41e-4 0.028,0.0015 0.0488,0.01141 0.0747,0.01509 0.0401,0.0042 0.0913,-0.01362 0.12295,0.01288 0.0272,0.02301 0.01,0.07767 0.0171,0.115036 0.009,0.04528 0.0203,0.09424 0.0433,0.135282 0.0114,0.01932 0.0166,0.03368 0.0258,0.05595 0.007,0.0173 0.0188,0.02669 0.0289,0.04325 0.008,0.01436 0.0401,0.08191 0.0257,0.09626 -0.008,0.0086 -0.048,0.0037 -0.0596,0.0057 -0.0618,0.01012 -0.12294,0.01657 -0.18552,0.0072 -0.0999,-0.01436 -0.20118,-0.02153 -0.30112,-0.03865 -0.18277,-0.03037 -0.35965,-0.02374 -0.5437,-0.02743 -0.0733,-7.41e-4 -0.14448,-0.01657 -0.21627,-0.02595 -0.0554,-0.0064 -0.11227,-0.002 -0.16749,-0.002 -0.092,-7.41e-4 -0.18405,0 -0.27553,0 -0.0718,0 -0.14724,0.0072 -0.21424,-0.01086 -0.051,-0.01436 -0.11209,0.01877 -0.14798,-0.02724 -0.0215,-0.02595 -0.0166,-0.04675 -0.0252,-0.07546 -0.007,-0.02245 -0.0151,-0.02816 -0.0151,-0.05466 7.1e-4,-0.04675 0,-0.0935 0.0287,-0.22363"
       style="fill:#21201d;fill-opacity:1;fill-rule:nonzero;stroke:none;stroke-width:0.184057"
       id="path670" />
    <path
       d="m 167.21622,-63.222471 h -0.15092 c -0.10215,0 -0.21001,0.01067 -0.31143,-0.0037 -0.10988,-0.01436 -0.21921,-0.01933 -0.33001,-0.03515 -0.12497,-0.01804 -0.25308,-0.0289 -0.37952,-0.03884 -0.0799,-0.0059 -0.15608,-0.01657 -0.23449,-0.03092 -0.0337,-0.0064 -0.069,-0.01657 -0.1027,-0.01804 -0.0762,-0.0035 -0.15185,-0.01215 -0.22731,-0.0208 -0.10068,-0.0116 -0.20191,-0.0064 -0.30333,-0.0064 -0.0431,0 -0.13381,0.01638 -0.16896,-0.01307 -0.006,0.03884 -0.026,0.07344 -0.0331,0.110803 -0.006,0.03589 -0.006,0.0762 -0.0193,0.112091 -0.0116,0.02945 -0.0282,0.05393 -0.0374,0.08264 -0.004,0.01583 -0.0116,0.04031 -0.0144,0.05687 -0.003,0.0173 0.006,0.03092 -0.008,0.04602 0.0144,0.01657 0.0416,0.01012 0.0617,0.01012 0.0539,-7.41e-4 0.10785,0 0.16178,0 0.0828,0 0.16547,7.41e-4 0.24811,0 0.0503,0 0.10491,-0.0052 0.15534,0.002 0.0388,0.0059 0.0747,0.0173 0.11209,0.02669 0.0972,0.02227 0.19565,0.0079 0.29412,0.01583 0.10933,0.0094 0.21645,0.01141 0.32633,0.01141 h 0.28916 c 0.0596,0 0.12424,-0.0072 0.18258,0.0029 0.0826,0.01435 0.16602,0.0116 0.25087,0.0116 0.0524,0 0.1351,0.01288 0.18903,0 0.0381,-0.0094 0.0202,-0.06773 0.0101,-0.09866 -0.0208,-0.06184 -0.0265,-0.11927 0.0396,-0.223447"
       style="fill:#21201d;fill-opacity:1;fill-rule:nonzero;stroke:none;stroke-width:0.184057"
       id="path672" />
    <path
       d="m 169.4133,-62.537408 c 0.0252,-0.0028 0.0425,0.0029 0.0663,0.01086 0.0525,0.01509 0.10565,0.0173 0.16031,0.02577 0.21204,0.03313 0.42481,0.06258 0.63978,0.06184 0.35597,-0.0013 0.71193,0 1.06771,0 h 0.19124 c 0.0295,0 0.09,-0.01215 0.11577,-0.0013 0.0252,0.01067 0.0136,0.06111 0.0136,0.08687 0,0.03663 -0.004,0.07473 0.003,0.110803 0.006,0.02945 0.006,0.06258 0.0129,0.09056 0.008,0.03313 0.0309,0.06184 0.0453,0.08982 0.0188,0.03534 0.0101,0.08209 0.0145,0.120189 0.002,0.02227 0.0171,0.02503 -0.0166,0.03368 -0.021,0.0057 -0.046,7.4e-4 -0.0675,0.0022 -0.0447,0.0022 -0.0885,0.0094 -0.13307,0.01141 -0.10491,0.0052 -0.21995,0.0094 -0.32504,0 -0.0559,-0.005 -0.10639,-0.01362 -0.16308,-0.01362 -0.0907,7.41e-4 -0.18276,0.0064 -0.27185,-0.0022 -0.0871,-0.0085 -0.17117,-0.01141 -0.25878,-0.01067 -0.0848,7.41e-4 -0.16694,-0.01233 -0.25105,-0.01509 -0.12222,-0.0044 -0.24572,0.0042 -0.36867,0.0015 -0.0482,-0.0015 -0.0928,-0.01307 -0.14098,-0.01509 -0.0431,-0.0022 -0.0878,5.65e-4 -0.1316,5.65e-4 -0.0396,0 -0.10565,0.01233 -0.14302,7.4e-4 -0.006,-0.002 -0.0173,-0.01141 -0.0195,-0.01215 -0.009,-0.0015 -0.025,7.41e-4 -0.0316,-0.0037 -0.0186,-0.01362 -0.004,-0.03515 0.003,-0.05374 0.0136,-0.03534 0.0223,-0.07417 0.0295,-0.111539 0.0123,-0.06332 0.003,-0.122951 -0.0223,-0.181113 -0.0215,-0.04749 -0.0324,-0.0762 -0.018,-0.226575"
       style="fill:#21201d;fill-opacity:1;fill-rule:nonzero;stroke:none;stroke-width:0.184057"
       id="path674" />
    <path
       d="m 167.10119,-62.495627 h -1.81038 c -0.10289,0 -0.21277,0.01141 -0.31418,0.0015 -0.0223,-0.0029 -0.0396,-0.01233 -0.0604,-0.01583 -0.028,-0.0052 -0.0633,7.41e-4 -0.092,7.41e-4 -0.0381,0 -0.0762,5.64e-4 -0.11356,0 -0.0101,0 -0.0353,-0.0052 -0.0433,5.64e-4 -0.0129,0.0094 -0.006,0.02595 -0.01,0.04104 -0.009,0.0324 -0.0339,0.07399 -0.0497,0.103625 -0.0381,0.07105 -0.0359,0.163075 -0.0804,0.229336 -0.0151,0.02301 -0.0554,0.03736 -0.0195,0.06534 0.0237,0.01877 0.0885,0.0116 0.11725,0.01509 0.0834,0.0087 0.16602,0.0064 0.24939,0.0064 0.27535,0 0.5507,0 0.82623,0 0.27958,0 0.55935,0.0015 0.83893,0 0.12221,-7.41e-4 0.2424,0.01436 0.36461,0.01436 0.0208,0 0.0473,0.0044 0.0676,7.41e-4 0.0193,-0.0042 0.0351,-0.01436 0.0554,-0.01712 0.004,-0.02963 0.0158,-0.05117 0.0164,-0.08135 0.001,-0.03736 7.1e-4,-0.07399 7.1e-4,-0.110619 0,-0.06829 -0.0151,-0.130129 0.0569,-0.253816"
       style="fill:#21201d;fill-opacity:1;fill-rule:nonzero;stroke:none;stroke-width:0.184057"
       id="path676" />
  </g>
</svg>
