<?xml version="1.0" encoding="UTF-8" standalone="no"?>
<!-- Created with Inkscape (http://www.inkscape.org/) -->

<svg
   width="6.3157096mm"
   height="7.5288424mm"
   viewBox="0 0 6.3157096 7.5288424"
   version="1.1"
   id="svg3768"
   inkscape:version="1.1.2 (0a00cf5339, 2022-02-04)"
   sodipodi:docname="u3.svg"
   xmlns:inkscape="http://www.inkscape.org/namespaces/inkscape"
   xmlns:sodipodi="http://sodipodi.sourceforge.net/DTD/sodipodi-0.dtd"
   xmlns="http://www.w3.org/2000/svg"
   xmlns:svg="http://www.w3.org/2000/svg">
  <sodipodi:namedview
     id="namedview3770"
     pagecolor="#ffffff"
     bordercolor="#666666"
     borderopacity="1.0"
     inkscape:pageshadow="2"
     inkscape:pageopacity="0.0"
     inkscape:pagecheckerboard="0"
     inkscape:document-units="mm"
     showgrid="false"
     inkscape:zoom="0.64052329"
     inkscape:cx="-65.571386"
     inkscape:cy="428.55585"
     inkscape:window-width="2560"
     inkscape:window-height="1376"
     inkscape:window-x="0"
     inkscape:window-y="0"
     inkscape:window-maximized="1"
     inkscape:current-layer="layer1" />
  <defs
     id="defs3765">
    <clipPath
       clipPathUnits="userSpaceOnUse"
       id="clipPath252">
      <path
         d="m 279,549 h 21 v 32.871 h -21 z"
         id="path250" />
    </clipPath>
    <clipPath
       clipPathUnits="userSpaceOnUse"
       id="clipPath256">
      <path
         d="m 264,552 h 17 v 29.871 h -17 z"
         id="path254" />
    </clipPath>
  </defs>
  <g
     inkscape:label="Layer 1"
     inkscape:groupmode="layer"
     id="layer1"
     transform="translate(-122.41655,-35.064509)">
    <path
       d="m 125.65064,35.199516 c 0.0782,-0.02081 0.18405,0.09865 0.22565,0.148904 0.0611,0.07473 0.0863,0.155342 0.11871,0.241667 0.0223,0.06111 0.0475,0.106383 0.0396,0.175408 -0.007,0.05466 -0.0324,0.109146 -0.0482,0.161784 -0.0353,0.118533 -0.0591,0.232833 -0.11356,0.345662 -0.0814,0.166204 -0.18332,0.32155 -0.25307,0.492538 -0.0145,0.03534 -0.0418,0.06479 -0.0468,0.103625 -0.006,0.03517 0.0136,0.07473 0.009,0.111358 -0.0109,0.105646 -0.0131,0.167491 0.0265,0.266146 0.0237,0.05963 0.0675,0.108408 0.0992,0.164546 0.046,0.08412 0.0849,0.164733 0.15037,0.235045 0.12498,0.136017 0.27664,0.258233 0.37088,0.418546 0.0151,0.02522 0.0374,0.06405 0.0468,0.0935 0.0101,0.03094 0.028,0.06387 0.0366,0.08835 0.0223,0.06626 0.0482,0.127921 0.0525,0.199888 0.004,0.07473 -0.008,0.163258 -0.0646,0.218658 -0.0504,0.04951 -0.11946,0.07896 -0.16399,0.124975 -0.097,0.09847 -0.28327,0.218663 -0.32487,0.356704 -0.0217,0.0705 -0.0361,0.167496 -0.0123,0.240013 0.018,0.05467 0.0942,0.120925 0.0705,0.186266 -0.0497,0.01161 -0.17044,-0.08338 -0.21074,-0.112091 -0.0596,-0.04105 -0.13216,-0.138042 -0.1524,-0.203567 -0.0619,-0.196942 0.0489,-0.318421 0.1719,-0.452967 0.097,-0.107121 0.25087,-0.180378 0.31713,-0.316949 0.0854,-0.17688 -0.0331,-0.362409 -0.15681,-0.481126 -0.051,-0.04877 -0.0913,-0.106387 -0.1467,-0.150191 -0.0791,-0.06479 -0.13877,-0.153138 -0.21718,-0.217925 -0.0782,-0.06534 -0.15663,-0.117062 -0.21627,-0.205592 -0.0554,-0.08043 -0.10785,-0.170991 -0.13804,-0.267437 -0.0381,-0.123688 0.0243,-0.249397 0.0237,-0.369588 0,-0.124238 0.0164,-0.253079 0.0517,-0.37235 0.018,-0.06258 0.0596,-0.09921 0.1,-0.149638 0.0468,-0.05816 0.0582,-0.100495 0.12074,-0.145221 0.0812,-0.0589 0.16325,-0.130866 0.21203,-0.222158 0.0237,-0.04307 0.10786,-0.130129 0.10068,-0.180379 -0.006,-0.03736 -0.0784,-0.0762 -0.10492,-0.09424 -0.0935,-0.06534 -0.16528,-0.160313 -0.21994,-0.260992 -0.0237,-0.04381 -0.046,-0.111358 -0.0368,-0.161054 0.007,-0.03164 0.0418,-0.106384 0.0727,-0.127917 0.0381,-0.0267 0.13436,-0.02081 0.16602,0.0072 0.0339,0.0302 0.0512,0.09847 0.044,0.110621"
       style="fill:#21201d;fill-opacity:1;fill-rule:nonzero;stroke:none;stroke-width:0.184057"
       id="path678" />
    <path
       d="m 125.13362,36.035137 c -0.004,0.02649 -0.0339,0.05099 -0.0475,0.07473 -0.01,0.01785 -0.0208,0.04878 -0.0302,0.0705 -0.0525,0.107858 -0.0891,0.231358 -0.12571,0.345108 -0.0324,0.101967 -0.0353,0.243692 -0.0324,0.350075 0.003,0.09497 0.007,0.216454 0.0416,0.304067 0.11798,0.302775 0.24314,0.583095 0.39553,0.866358 0.0151,0.02815 0.0446,0.0532 0.0574,0.07988 0.0136,0.02522 0.0166,0.05172 0.0274,0.0819 0.0215,0.06258 0.0309,0.133075 0.0532,0.192708 0.0396,0.106387 -0.003,0.242404 -0.0475,0.340875 -0.0295,0.06534 -0.0554,0.140071 -0.0942,0.201175 -0.0337,0.05264 -0.0626,0.08706 -0.0646,0.15185 -0.003,0.130129 0.0287,0.258784 0.0646,0.373084 0.009,0.02797 0.0295,0.06405 0.041,0.097 0.0143,0.04252 0.028,0.06184 0.0316,0.110067 0.006,0.07399 0.0178,0.148904 0.0208,0.223629 0.004,0.09277 -0.0438,0.137309 -0.10288,0.199888 -0.0208,0.02081 -0.0351,0.04804 -0.0567,0.06829 -0.0215,0.02081 -0.0475,0.0302 -0.069,0.05098 -0.006,-0.05025 0.0396,-0.112091 0.046,-0.160316 0.009,-0.06258 -0.008,-0.176879 -0.0215,-0.239458 -0.0131,-0.06258 -0.0447,-0.138042 -0.0749,-0.1905 -0.0302,-0.05319 -0.0453,-0.112092 -0.0782,-0.168967 -0.067,-0.117242 -0.0972,-0.234304 -0.11153,-0.3775 -0.0158,-0.162342 0.0848,-0.331304 0.17688,-0.460146 0.0814,-0.112092 0.0675,-0.268908 0.0554,-0.406216 -0.002,-0.02649 0.003,-0.07473 -0.007,-0.09921 -0.0129,-0.02946 -0.0353,-0.03369 -0.0561,-0.05595 -0.028,-0.02963 -0.041,-0.06976 -0.0653,-0.102891 -0.0274,-0.03589 -0.0648,-0.06681 -0.0935,-0.102151 -0.0525,-0.06313 -0.11577,-0.115037 -0.15755,-0.183321 -0.048,-0.07896 -0.0804,-0.164549 -0.12074,-0.248662 -0.1143,-0.241671 -0.18479,-0.498246 -0.20338,-0.767154 -0.0116,-0.176142 0.10068,-0.386892 0.23651,-0.497509 0.0475,-0.03957 0.0797,-0.05319 0.13583,-0.06902 0.026,-0.0079 0.0596,-0.03681 0.0806,-0.03884 0.0186,-0.0014 0.0804,0.0309 0.0963,0.04233 0.0346,0.02448 0.0633,0.07344 0.1,-0.05669"
       style="fill:#21201d;fill-opacity:1;fill-rule:nonzero;stroke:none;stroke-width:0.184057"
       id="path680" />
    <path
       d="m 124.50084,35.584933 c -0.006,0.07546 -0.0302,0.156816 -0.0409,0.233016 -0.0116,0.08191 -0.0388,0.156083 -0.0596,0.235042 -0.0195,0.07197 -0.0138,0.145221 -0.021,0.2194 -0.0243,0.253079 0.003,0.498242 0.026,0.751321 0.0151,0.170254 0.0302,0.309771 0.0999,0.465116 0.0554,0.120742 0.1108,0.242955 0.14375,0.364434 0.0158,0.05908 0.0381,0.108596 0.0433,0.172646 0.005,0.06755 0.0114,0.135837 0.0186,0.202833 0.0116,0.119271 -0.0431,0.227129 -0.11209,0.320629 -0.0626,0.08485 -0.11503,0.1143 -0.20633,0.150926 -0.0447,0.01877 -0.0849,0.03737 -0.14448,0.03589 -0.0519,-0.0014 -0.10583,-0.02226 -0.15903,-0.03883 -0.0769,-0.02431 -0.22933,-0.0797 -0.25381,-0.163075 -0.0453,-0.156083 0.0468,-0.210012 0.1467,-0.297808 -0.0826,0.09203 -0.12939,0.3129 0.0512,0.293388 0.1351,-0.0151 0.26376,-0.01584 0.35578,-0.130863 0.0438,-0.05467 0.0359,-0.122216 0.0374,-0.187554 10e-4,-0.04031 0.0173,-0.04823 0.023,-0.08412 0.008,-0.04601 -0.0186,-0.08632 -0.0374,-0.125158 -0.0547,-0.115775 -0.12866,-0.2078 -0.19345,-0.31345 -0.0322,-0.05246 -0.0539,-0.103625 -0.0777,-0.155346 -0.0272,-0.06111 -0.0272,-0.125712 -0.0517,-0.192708 -0.0245,-0.06755 -0.0295,-0.138779 -0.0547,-0.206329 -0.0258,-0.07123 -0.0158,-0.14743 -0.0359,-0.21995 -0.009,-0.03164 -0.0265,-0.04252 -0.0331,-0.08338 -0.006,-0.04104 -0.0171,-0.05963 -0.0309,-0.09645 -0.0136,-0.03736 -0.01,-0.07178 -0.0158,-0.111354 -0.006,-0.04601 -0.0309,-0.07841 -0.0409,-0.122951 -0.0123,-0.06258 -0.0202,-0.147429 -0.018,-0.210745 0.001,-0.0589 0.0237,-0.122217 0.0346,-0.177434 0.0107,-0.05338 0.0136,-0.09571 0.0322,-0.149637 0.0138,-0.03957 0.026,-0.06976 0.0418,-0.107859 0.0423,-0.107858 0.092,-0.191974 0.16676,-0.279583 0.0453,-0.05393 0.12295,-0.114487 0.19988,-0.08559 0.0547,0.01933 0.0856,0.109883 0.16602,0.09553"
       style="fill:#21201d;fill-opacity:1;fill-rule:nonzero;stroke:none;stroke-width:0.184057"
       id="path682" />
    <g
       id="g690"
       transform="matrix(0.18405616,0,0,0.18405792,73.643912,-64.418153)">
      <g
         clip-path="url(#clipPath252)"
         id="g688">
        <path
           d="m 284.203,550.586 c 0.004,0.449 0.102,0.793 0.16,1.223 0.055,0.386 0.047,0.593 0.446,0.804 0.285,0.153 0.629,0.164 0.918,0.258 0.359,0.113 0.707,0.184 1.07,0.274 0.363,0.093 0.848,0.16 1.219,0.191 0.16,0.012 0.336,-0.035 0.496,-0.012 0.265,0.043 0.449,0.153 0.726,0.164 0.84,0.032 1.617,0.414 2.438,0.649 1.015,0.293 2.09,0.683 2.933,1.332 0.426,0.32 1.039,0.617 1.348,1.058 0.164,0.235 0.148,0.512 0.215,0.785 0.07,0.305 0.215,0.583 0.238,0.895 0.051,0.652 0.149,1.297 0.145,1.953 -0.004,0.317 0,0.633 0,0.949 0.007,0.43 -0.086,0.786 -0.137,1.207 -0.059,0.512 -0.113,1.028 -0.199,1.532 -0.106,0.59 -0.149,1.105 -0.352,1.679 -0.195,0.559 -0.437,1.121 -0.711,1.645 -0.16,0.305 -0.468,0.473 -0.672,0.742 -0.214,0.293 -0.269,0.512 -0.574,0.746 -0.762,0.59 -1.465,1.047 -2.316,1.43 -0.68,0.305 -1.399,0.578 -2.137,0.801 -0.875,0.257 -1.687,0.285 -2.586,0.285 -0.32,0 -0.676,0.039 -0.996,0.004 -0.309,-0.035 -0.559,-0.219 -0.848,-0.297 -0.347,-0.094 -0.625,-0.149 -0.945,-0.356 -0.285,-0.187 -0.527,-0.414 -0.871,-0.5 -0.367,-0.089 -0.484,0.024 -0.613,0.383 -0.106,0.305 -0.223,0.652 -0.227,0.992 -0.012,0.715 -0.305,1.286 -0.305,1.985 0.004,0.203 0.008,0.41 0.004,0.609 -0.008,0.238 -0.097,0.391 -0.144,0.609 -0.074,0.391 0.066,0.825 -0.028,1.207 -0.031,0.149 -0.117,0.211 -0.14,0.395 -0.024,0.191 0.004,0.41 0.004,0.609 0,0.204 0.015,0.411 0.004,0.614 -0.012,0.23 -0.129,0.386 -0.164,0.609 -0.036,0.219 -0.059,0.395 -0.114,0.609 -0.039,0.168 -0.117,0.356 -0.152,0.493 -0.094,0.394 -0.176,0.66 -0.379,0.988 -0.141,0.238 -0.25,0.473 -0.488,0.656 -0.153,0.113 -0.766,0.539 -0.828,0.184 0.379,-0.149 0.968,-0.031 1.371,-0.035 0.429,0 0.777,0.128 1.195,0.152 0.992,0.047 1.926,0.305 2.91,0.309 0.332,0 0.797,0.082 0.5,-0.348 -0.199,-0.289 -0.515,-0.406 -0.773,-0.606 -0.574,-0.437 -0.793,-1.14 -0.942,-1.793 -0.187,-0.804 -0.308,-1.519 -0.308,-2.371 0,-0.379 0.004,-0.757 0,-1.136 -0.008,-0.395 0.133,-0.77 0.226,-1.145 0.086,-0.336 0.293,-0.769 0.68,-0.851 0.297,-0.059 0.848,0.23 1.133,0.339 1.058,0.395 2.234,0.27 3.379,0.286 1.25,0.015 2.508,-0.551 3.726,-0.778 0.52,-0.097 1.024,-0.344 1.461,-0.597 0.453,-0.262 1.004,-0.333 1.446,-0.645 1.773,-1.246 2.546,-3.41 3.003,-5.441 0.11,-0.477 0.282,-0.914 0.418,-1.379 0.102,-0.364 0.043,-0.711 0.114,-1.075 0.14,-0.691 0.121,-1.359 0.121,-2.066 v -1.398 c 0,-0.25 -0.004,-0.496 0,-0.746 0.004,-0.395 -0.137,-0.715 -0.16,-1.102 -0.059,-0.895 -0.286,-1.828 -0.758,-2.613 -0.508,-0.856 -1.074,-1.379 -1.91,-1.836 -0.45,-0.246 -0.942,-0.278 -1.407,-0.453 -0.429,-0.161 -0.82,-0.305 -1.265,-0.426 -0.375,-0.098 -0.723,-0.238 -1.106,-0.305 -0.601,-0.101 -1.218,-0.125 -1.797,-0.324 -0.566,-0.195 -1.175,-0.191 -1.793,-0.289 -0.257,-0.039 -0.496,-0.106 -0.746,-0.149 -0.273,-0.054 -0.531,0 -0.804,-0.027 -0.293,-0.035 -0.614,-0.137 -0.914,-0.199 -0.313,-0.063 -0.684,-0.055 -0.981,-0.125 -0.43,-0.109 -0.711,-0.293 -0.695,-0.754 0.015,-0.391 0.078,-0.738 0.344,-1.027 0.234,-0.258 0.629,-0.551 0.984,-0.496 -0.348,0 -0.852,-0.094 -1.184,-0.008 -0.351,0.097 -0.699,0.484 -0.91,0.769 -0.387,0.524 -1.414,2.055 0.004,0.305"
           style="fill:#21201d;fill-opacity:1;fill-rule:nonzero;stroke:none"
           id="path686" />
      </g>
    </g>
    <g
       id="g696"
       transform="matrix(0.18405616,0,0,0.18405792,73.643912,-64.418153)">
      <g
         clip-path="url(#clipPath256)"
         id="g694">
        <path
           d="m 272.309,580.934 c 1.523,0 3.046,-0.008 4.57,0 0.719,0.007 1.383,-0.289 1.98,-0.649 0.215,-0.125 0.532,-0.297 0.68,-0.508 0.176,-0.246 0.145,-0.742 0.258,-1.054 0.125,-0.328 0.066,-0.629 0.168,-0.95 0.047,-0.164 0.195,-0.316 0.242,-0.5 0.063,-0.253 0.004,-0.503 0.063,-0.761 0.109,-0.473 0.207,-0.969 0.277,-1.457 0.058,-0.407 0.152,-0.785 0.148,-1.215 -0.004,-0.336 0.082,-0.789 0.008,-1.117 -0.047,-0.188 -0.137,-0.266 -0.168,-0.477 -0.023,-0.191 0.004,-0.418 0.008,-0.613 0.004,-0.321 -0.094,-0.586 -0.188,-0.883 -0.046,-0.148 -0.265,-0.586 -0.378,-0.688 -0.25,-0.226 -0.594,0.04 -0.883,0.122 -0.348,0.101 -0.699,0.074 -1.067,0.074 -0.14,0 -0.328,-0.035 -0.465,-0.004 -0.156,0.035 -0.222,0.117 -0.367,0.16 -0.347,0.109 -0.738,0.059 -1.082,0.145 -0.144,0.031 -0.215,0.132 -0.367,0.164 -0.141,0.027 -0.324,-0.008 -0.465,-0.008 -0.343,0 -0.726,0.051 -1.066,0.008 -0.727,-0.09 -1.375,-0.371 -2.059,-0.614 -0.332,-0.121 -0.586,-0.3 -0.922,-0.421 -0.308,-0.114 -0.453,-0.325 -0.757,-0.465 -0.45,-0.2 -1.086,-0.582 -1.352,-1.035 -0.836,-1.407 -1.281,-3.098 -1.551,-4.715 -0.082,-0.489 -0.156,-0.977 -0.148,-1.481 0.008,-0.566 -0.153,-1.07 -0.153,-1.648 0.004,-0.414 -0.07,-0.906 0.075,-1.293 0.125,-0.348 0.3,-0.688 0.5,-0.996 0.41,-0.633 1.211,-0.973 1.867,-1.297 0.129,-0.063 0.312,-0.156 0.457,-0.192 0.164,-0.035 0.363,-0.125 0.492,-0.152 0.168,-0.035 0.336,0 0.504,-0.027 0.187,-0.032 0.301,-0.176 0.5,-0.184 0.031,-0.203 0.133,-0.351 0.172,-0.523 0.043,-0.211 -0.016,-0.426 0.043,-0.637 0.058,-0.207 0.121,-0.293 0.117,-0.57 0,-0.207 0.059,-0.493 0.008,-0.692 -0.031,-0.144 -0.11,-0.297 -0.156,-0.445 -0.071,-0.234 -0.141,-0.367 -0.309,-0.539 -0.27,-0.281 -0.793,-0.598 -1.152,-0.586 0.156,0.223 0.082,0.555 0.086,0.812 0.003,0.418 -0.071,0.602 -0.336,0.911 -0.207,0.246 -0.442,0.488 -0.723,0.656 -0.336,0.199 -0.602,0.433 -0.922,0.648 -0.551,0.371 -1.144,0.676 -1.68,1.067 -0.515,0.371 -0.812,0.988 -1.144,1.519 -0.184,0.297 -0.215,0.598 -0.301,0.918 -0.113,0.403 -0.207,0.746 -0.223,1.16 -0.023,0.598 -0.16,1.168 -0.16,1.778 -0.004,0.465 0.063,0.965 0.145,1.414 0.027,0.164 0.137,0.285 0.168,0.445 0.035,0.195 -0.028,0.387 0.023,0.586 0.082,0.316 0.172,0.645 0.258,0.961 0.059,0.223 0.027,0.383 0.125,0.598 0.074,0.156 0.168,0.285 0.203,0.461 0.031,0.156 -0.012,0.32 0.024,0.484 0.054,0.273 0.211,0.523 0.257,0.797 0.086,0.48 0.313,0.781 0.532,1.23 0.343,0.703 0.75,1.282 1.222,1.899 0.469,0.597 0.875,1.047 1.614,1.265 0.554,0.168 1.218,0.192 1.812,0.25 0.785,0.078 1.531,0.172 2.324,0.172 0.864,0 1.727,-0.012 2.59,0 0.637,0.008 1.258,0.078 1.531,0.68 0.118,0.262 0.258,0.574 0.289,0.844 0.036,0.316 -0.003,0.668 -0.003,0.992 0,0.722 0.011,1.363 -0.454,1.969 -0.328,0.429 -0.777,0.808 -1.23,1.121 -0.262,0.179 -0.449,0.464 -0.691,0.652 -0.254,0.191 -0.61,0.328 -0.883,0.473 -0.59,0.304 -1.274,0.547 -1.926,0.707 -0.223,0.058 -0.441,0.031 -0.676,0.035 -0.226,0 -0.336,0.062 -0.547,0.121 -0.175,0.043 -0.347,0 -0.519,0.043 -0.11,0.027 -0.27,0.133 -0.391,0.18 -0.402,0.152 -0.781,0.257 -1.148,0.476 -0.297,0.18 -0.586,0.449 -0.946,0.399 0.723,0.004 1.446,0.004 2.168,0 0.2,0 0.418,-0.032 0.61,0.011 0.164,0.039 0.511,0.332 0.84,-0.011"
           style="fill:#21201d;fill-opacity:1;fill-rule:nonzero;stroke:none"
           id="path692" />
      </g>
    </g>
  </g>
</svg>
