<?xml version="1.0" encoding="UTF-8" standalone="no"?>
<!-- Created with Inkscape (http://www.inkscape.org/) -->

<svg
   width="6.5150571mm"
   height="7.7232609mm"
   viewBox="0 0 6.5150571 7.7232609"
   version="1.1"
   id="svg3991"
   inkscape:version="1.1.2 (0a00cf5339, 2022-02-04)"
   sodipodi:docname="u4.svg"
   xmlns:inkscape="http://www.inkscape.org/namespaces/inkscape"
   xmlns:sodipodi="http://sodipodi.sourceforge.net/DTD/sodipodi-0.dtd"
   xmlns="http://www.w3.org/2000/svg"
   xmlns:svg="http://www.w3.org/2000/svg">
  <sodipodi:namedview
     id="namedview3993"
     pagecolor="#ffffff"
     bordercolor="#666666"
     borderopacity="1.0"
     inkscape:pageshadow="2"
     inkscape:pageopacity="0.0"
     inkscape:pagecheckerboard="0"
     inkscape:document-units="mm"
     showgrid="false"
     inkscape:zoom="0.64052329"
     inkscape:cx="-1177.1625"
     inkscape:cy="458.21909"
     inkscape:window-width="2560"
     inkscape:window-height="1376"
     inkscape:window-x="0"
     inkscape:window-y="0"
     inkscape:window-maximized="1"
     inkscape:current-layer="layer1" />
  <defs
     id="defs3988" />
  <g
     inkscape:label="Layer 1"
     inkscape:groupmode="layer"
     id="layer1"
     transform="translate(-416.42537,-27.118898)">
    <g
       id="g730"
       transform="matrix(0.18405616,0,0,0.18405792,271.28843,-72.82381)">
      <path
         d="m 804.113,556.727 c 0.157,-0.165 0.172,-0.317 0.383,-0.438 0.098,-0.055 0.215,-0.121 0.328,-0.148 0.168,-0.039 0.336,-0.016 0.504,-0.047 0.211,-0.039 0.395,-0.078 0.613,-0.078 0.305,0 0.61,0 0.918,0 0.407,-0.004 0.7,0.172 1.071,0.316 0.347,0.137 0.687,0.309 1.004,0.5 0.199,0.121 0.468,0.25 0.546,0.504 0.094,0.285 0.149,0.598 0.25,0.894 0.02,0.051 0.063,0.106 0.079,0.168 0.019,0.082 0,0.172 0.019,0.258 0.035,0.141 0.137,0.313 0.156,0.434 0.067,0.316 0.024,0.683 0.024,1.015 0,0.407 0.074,0.84 -0.125,1.2 -0.133,0.238 -0.324,0.441 -0.469,0.672 -0.141,0.207 -0.352,0.367 -0.504,0.57 -0.047,0.062 -0.023,0.152 -0.074,0.219 -0.055,0.074 -0.176,0.101 -0.25,0.16 -0.215,0.168 -0.398,0.344 -0.641,0.488 -0.328,0.199 -0.644,0.574 -1.007,0.715 -0.708,0.277 -1.7,0.121 -2.442,0.121 -0.449,0 -0.879,0.027 -1.301,-0.125 -0.5,-0.176 -0.879,-0.504 -1.273,-0.832 -0.289,-0.246 -0.465,-0.395 -0.578,-0.77 -0.078,-0.253 -0.078,-0.472 -0.078,-0.746 0,-0.211 -0.067,-0.574 0.015,-0.765 0.239,-0.043 0.453,-0.117 0.696,-0.117 0.449,0.003 0.726,0.187 1.125,0.406 0.289,0.164 0.496,0.402 0.808,0.535 0.285,0.125 0.617,0.18 0.914,0.254 0.27,0.074 0.606,0.023 0.891,0.023 0.328,0 0.699,0.051 1.019,-0.023 0.391,-0.082 0.977,-0.383 1.215,-0.703 0.383,-0.508 0.539,-1.18 0.535,-1.809 -0.004,-0.297 -0.004,-0.598 0,-0.898 0.004,-0.328 -0.125,-0.575 -0.328,-0.836 -0.129,-0.172 -0.39,-0.324 -0.582,-0.406 -0.226,-0.098 -0.453,-0.083 -0.715,-0.098 -0.25,-0.016 -0.449,-0.106 -0.714,-0.106 -0.333,0.004 -0.594,-0.05 -0.915,-0.105 -0.265,-0.047 -0.589,0.004 -0.863,0.004 -0.289,0 -0.508,-0.012 -0.758,0.101 -0.261,0.121 -0.558,0.192 -0.824,0.305 -0.195,0.086 -0.39,0.211 -0.582,0.297 -0.125,-0.254 0.199,-0.648 0.359,-0.828 0.098,-0.113 0.235,-0.274 0.356,-0.363 0.105,-0.075 0.27,-0.075 0.379,-0.145 0.621,-0.363 1.379,-0.648 2.086,-0.793 0.144,-0.031 0.316,0.043 0.465,0.008 0.16,-0.039 0.199,-0.125 0.402,-0.11 0.344,0.024 0.672,0.204 0.988,0.34 0.297,0.121 0.586,0.2 0.864,0.348 0.191,0.102 0.636,0.312 0.687,0.535"
         style="fill:#21201d;fill-opacity:1;fill-rule:nonzero;stroke:none"
         id="path698" />
      <path
         d="m 813.586,556.625 c -0.316,-0.043 0.078,-0.465 0.18,-0.574 0.25,-0.258 0.488,-0.352 0.808,-0.469 0.125,-0.047 0.238,-0.16 0.367,-0.199 0.145,-0.043 0.289,-0.004 0.434,-0.039 0.289,-0.063 0.563,-0.199 0.859,-0.246 0.539,-0.078 1.231,0.328 1.719,0.527 0.383,0.16 0.875,0.43 1.184,0.742 0.172,0.176 0.304,0.457 0.355,0.699 0.028,0.149 -0.031,0.309 0.004,0.454 0.035,0.156 0.113,0.187 0.133,0.367 0.012,0.125 -0.016,0.261 -0.004,0.383 0.008,0.175 0.078,0.277 0.113,0.445 0.059,0.269 0.024,0.609 0.012,0.89 -0.02,0.481 -0.301,0.957 -0.586,1.364 -0.309,0.437 -0.539,0.668 -1.023,0.945 -0.504,0.289 -1.008,0.496 -1.571,0.699 -0.238,0.082 -0.496,0.094 -0.765,0.157 -0.305,0.074 -0.575,0.078 -0.864,0 -0.496,-0.133 -1.086,-0.082 -1.574,-0.344 -0.476,-0.25 -0.918,-0.684 -1.019,-1.238 -0.047,-0.247 -0.012,-0.516 0.125,-0.7 0.191,-0.246 0.402,-0.187 0.683,-0.187 0.293,-0.004 0.574,0.054 0.852,0.137 0.094,0.027 0.144,0.093 0.25,0.121 0.16,0.039 0.34,-0.032 0.5,0.003 0.258,0.063 0.523,0.192 0.808,0.126 0.102,-0.028 0.196,-0.098 0.297,-0.133 0.137,-0.051 0.301,-0.063 0.442,-0.129 0.465,-0.219 1.105,-0.313 1.386,-0.86 0.082,-0.164 0.075,-0.203 0.082,-0.41 0.008,-0.176 0.082,-0.277 0.118,-0.441 0.066,-0.32 0,-0.625 -0.098,-0.899 -0.219,-0.589 -0.637,-0.921 -1.121,-1.257 -0.481,-0.336 -1.02,-0.317 -1.606,-0.317 h -0.988 c -0.137,0 -0.293,-0.019 -0.43,0 -0.191,0.02 -0.355,0.164 -0.062,0.383"
         style="fill:#21201d;fill-opacity:1;fill-rule:nonzero;stroke:none"
         id="path700" />
      <path
         d="m 793.797,555.332 c 0.18,-0.039 0.297,-0.289 0.465,-0.383 0.367,-0.207 0.781,-0.258 1.179,-0.258 0.329,0.004 0.645,-0.011 0.957,0.063 0.329,0.078 0.719,0.133 1.032,0.254 0.238,0.09 0.535,0.23 0.761,0.347 0.164,0.083 0.266,0.297 0.407,0.415 0.156,0.136 0.347,0.195 0.457,0.394 0.086,0.16 0.215,0.434 0.269,0.606 0.039,0.144 0.016,0.281 0.078,0.425 0.051,0.121 0.145,0.184 0.18,0.309 0.039,0.121 0.07,0.32 0.102,0.457 0.027,0.105 0.086,0.266 0.101,0.344 0.02,0.121 -0.004,0.25 0.02,0.363 0.031,0.152 0.105,0.207 0.125,0.375 0.074,0.605 -0.133,1.133 -0.383,1.641 -0.211,0.437 -0.524,0.832 -0.949,1.039 -0.262,0.125 -0.473,0.304 -0.719,0.433 -0.352,0.188 -0.809,0.156 -1.18,0.235 -0.597,0.117 -1.281,0.246 -1.863,-0.051 -0.281,-0.141 -0.602,-0.188 -0.898,-0.317 -0.27,-0.117 -0.481,-0.277 -0.715,-0.445 -0.496,-0.359 -0.703,-0.855 -0.7,-1.504 0.004,-0.449 -0.097,-1.297 0.403,-1.418 0.207,-0.047 0.578,-0.019 0.734,0.164 0.043,0.051 0.098,0.227 0.133,0.301 0.082,0.164 0.145,0.344 0.23,0.5 0.161,0.305 0.403,0.477 0.692,0.613 0.312,0.141 0.617,0.032 0.933,0.121 0.282,0.083 0.504,0.098 0.809,0.098 0.305,0.008 0.523,-0.125 0.809,-0.223 0.25,-0.082 0.574,-0.175 0.746,-0.414 0.168,-0.234 0.148,-0.418 0.172,-0.707 0.039,-0.355 0.195,-0.636 0.113,-1.023 -0.063,-0.305 -0.086,-0.668 -0.25,-0.934 -0.164,-0.261 -0.399,-0.632 -0.664,-0.765 -0.211,-0.106 -0.418,-0.188 -0.621,-0.301 -0.239,-0.129 -0.5,-0.246 -0.715,-0.414 -0.289,-0.234 -0.512,-0.391 -0.867,-0.465 -0.282,-0.062 -0.485,-0.129 -0.809,-0.129 -0.121,0 -0.285,-0.035 -0.406,-0.004 -0.137,0.031 -0.242,0.18 -0.168,0.258"
         style="fill:#21201d;fill-opacity:1;fill-rule:nonzero;stroke:none"
         id="path702" />
      <path
         d="m 807.977,568.723 c -0.008,0.265 0.175,0.441 0.082,0.715 -0.102,0.292 -0.336,0.343 -0.59,0.398 -0.262,0.062 -0.516,0.184 -0.793,0.086 -0.172,-0.059 -0.457,-0.305 -0.559,-0.465 -0.254,-0.383 -0.234,-1.094 -0.176,-1.551 0.055,-0.441 0.457,-0.758 0.719,-1.113 0.274,-0.387 0.649,-0.773 1.008,-1.094 0.371,-0.336 0.691,-0.793 1.148,-1.019 0.426,-0.203 0.786,-0.469 1.118,-0.813 0.16,-0.164 0.382,-0.258 0.578,-0.355 0.222,-0.114 0.48,-0.074 0.691,-0.16 0.067,0.121 0.176,0.062 0.281,0.093 0.114,0.035 0.258,0.102 0.36,0.168 0.242,0.157 0.402,0.274 0.531,0.535 0.102,0.211 0.187,0.414 0.305,0.61 0.132,0.219 0.258,0.426 0.367,0.664 0.207,0.457 0.418,0.91 0.648,1.371 0.133,0.262 0.215,0.531 0.305,0.812 0.098,0.305 0.09,0.602 0.207,0.915 0.098,0.273 0.055,0.542 0.152,0.812 0.125,0.367 0.196,0.738 0.278,1.113 0.117,0.516 0.051,1.106 0.051,1.637 0,0.117 0.031,0.297 0.003,0.406 -0.019,0.086 -0.093,0.114 -0.113,0.196 -0.027,0.136 0.02,0.273 -0.016,0.414 -0.035,0.136 -0.042,0.269 -0.074,0.41 -0.043,0.191 -0.16,0.394 -0.207,0.597 -0.066,0.29 -0.195,0.516 -0.316,0.77 -0.199,0.398 -0.442,0.813 -0.699,1.168 -0.27,0.367 -0.582,0.824 -0.996,1.008 -0.133,-0.449 -0.059,-1.184 0.058,-1.617 0.035,-0.137 0.016,-0.262 0.016,-0.399 0.004,-0.215 0.078,-0.39 0.109,-0.597 0.027,-0.176 0.078,-0.356 0.106,-0.536 0.015,-0.129 -0.036,-0.269 -0.012,-0.398 0.055,-0.34 0.113,-0.688 0.187,-1.024 0.059,-0.289 0.125,-0.609 0.121,-0.906 -0.003,-0.344 0,-0.683 0,-1.027 0,-0.133 0.004,-0.266 0,-0.402 -0.003,-0.196 -0.058,-0.317 -0.089,-0.504 -0.028,-0.149 -0.055,-0.266 -0.09,-0.411 -0.035,-0.136 0.008,-0.269 -0.02,-0.406 -0.054,-0.328 -0.211,-0.644 -0.301,-0.969 -0.128,-0.46 -0.21,-0.996 -0.515,-1.41 -0.262,-0.363 -0.738,-0.672 -1.168,-0.672 -0.535,0.004 -0.887,0.18 -1.27,0.575 -0.164,0.164 -0.351,0.316 -0.507,0.496 -0.184,0.195 -0.317,0.422 -0.512,0.609 -0.168,0.16 -0.371,0.379 -0.41,0.606 -0.012,0.07 0.019,0.144 0.007,0.211 -0.011,0.07 -0.07,0.125 -0.082,0.171 -0.035,0.153 0.012,0.325 -0.039,0.469 -0.031,0.004 -0.058,0.012 0.118,-0.187"
         style="fill:#21201d;fill-opacity:1;fill-rule:nonzero;stroke:none"
         id="path704" />
      <path
         d="m 802.383,568.418 c -0.024,0.008 -0.051,0.012 -0.078,0.02 -0.02,0.218 -0.172,0.339 -0.129,0.593 0.031,0.196 0.219,0.422 0.386,0.535 0.278,0.188 1.075,0.11 1.399,0.024 0.5,-0.133 0.781,-0.563 0.871,-1.07 0.078,-0.477 0.012,-1.051 -0.34,-1.395 -0.269,-0.27 -0.637,-0.516 -0.945,-0.738 -0.379,-0.278 -0.77,-0.524 -1.164,-0.762 -0.695,-0.43 -1.27,-1.051 -2.039,-1.375 -0.348,-0.148 -0.75,-0.496 -1.164,-0.41 -0.457,0.098 -0.68,0.637 -0.836,1.043 -0.192,0.496 -0.297,1 -0.461,1.504 -0.082,0.261 -0.192,0.543 -0.254,0.812 -0.059,0.25 -0.168,0.508 -0.219,0.762 -0.023,0.117 0,0.219 -0.031,0.332 -0.035,0.125 -0.125,0.262 -0.156,0.41 -0.024,0.113 -0.004,0.219 -0.02,0.328 -0.023,0.145 -0.078,0.211 -0.109,0.352 -0.028,0.109 0.019,0.246 0.004,0.359 -0.012,0.121 -0.071,0.172 -0.094,0.27 -0.031,0.148 0.012,0.297 -0.004,0.445 -0.016,0.129 -0.086,0.18 -0.109,0.297 -0.051,0.203 0.004,0.5 0.004,0.715 v 1.523 c 0,0.27 0.039,0.43 0.105,0.66 0.039,0.145 0.039,0.188 0.098,0.317 0.054,0.117 0.132,0.258 0.179,0.371 0.094,0.242 0.192,0.539 0.231,0.789 0.086,0.504 0.211,1.027 0.547,1.48 0.062,0.086 0.16,0.161 0.215,0.246 0.066,0.102 0.078,0.211 0.171,0.309 0.168,0.184 0.551,0.27 0.793,0.309 0.266,0.047 0.524,0.035 0.789,0.121 0.211,0.062 0.375,0.277 0.512,0.449 0.211,-0.621 -0.644,-1.367 -0.973,-1.797 -0.109,-0.141 -0.21,-0.172 -0.335,-0.297 -0.102,-0.101 -0.211,-0.301 -0.301,-0.414 -0.106,-0.129 -0.215,-0.269 -0.309,-0.402 -0.113,-0.16 -0.09,-0.336 -0.172,-0.52 -0.05,-0.121 -0.172,-0.215 -0.207,-0.347 -0.047,-0.141 -0.066,-0.332 -0.101,-0.481 -0.071,-0.305 -0.129,-0.594 -0.203,-0.89 -0.036,-0.153 0.007,-0.29 -0.02,-0.438 -0.023,-0.145 -0.09,-0.23 -0.105,-0.375 -0.039,-0.352 0.003,-0.723 0,-1.074 0,-0.274 0.086,-0.492 0.101,-0.758 0.008,-0.176 0.063,-0.297 0.129,-0.465 0.066,-0.156 0.051,-0.223 0.07,-0.398 0.016,-0.133 0.086,-0.231 0.114,-0.356 0.027,-0.133 -0.043,-0.285 -0.012,-0.414 0.031,-0.133 0.094,-0.144 0.109,-0.297 0.02,-0.179 0.055,-0.297 0.09,-0.468 0.031,-0.153 -0.012,-0.301 0.031,-0.45 0.043,-0.168 0.125,-0.347 0.184,-0.515 0.07,-0.227 0.18,-0.641 0.352,-0.809 0.183,-0.187 0.425,-0.156 0.664,-0.195 0.148,-0.024 0.25,-0.102 0.406,-0.11 0.144,-0.007 0.308,-0.003 0.457,0 0.379,0.016 0.504,0.313 0.762,0.555 0.238,0.227 0.461,0.317 0.648,0.617 0.16,0.254 0.231,0.586 0.32,0.864 0.086,0.273 0.047,0.613 0.149,0.609"
         style="fill:#21201d;fill-opacity:1;fill-rule:nonzero;stroke:none"
         id="path706" />
      <path
         d="m 815.602,570.758 c 0.187,-0.024 0.312,-0.106 0.507,-0.102 0.215,0.004 0.36,-0.066 0.559,-0.105 0.402,-0.074 0.762,-0.239 1.129,-0.403 0.875,-0.394 1.871,-0.957 2.422,-1.781 0.289,-0.426 0.5,-0.988 0.672,-1.476 0.058,-0.176 0.152,-0.329 0.226,-0.5 0.117,-0.266 0.156,-0.547 0.25,-0.813 0.156,-0.433 0.313,-0.902 0.414,-1.351 0.051,-0.227 0.055,-0.465 0.102,-0.692 0.047,-0.23 -0.016,-0.473 0.015,-0.703 0.032,-0.219 0.106,-0.391 0.11,-0.613 0,-0.18 0,-0.356 0,-0.531 v -1.301 c 0,-0.754 0.019,-1.512 -0.098,-2.235 -0.031,-0.199 -0.109,-0.297 -0.105,-0.507 0.004,-0.215 -0.032,-0.313 -0.078,-0.512 -0.086,-0.348 -0.18,-0.676 -0.329,-1.02 -0.121,-0.273 -0.25,-0.543 -0.386,-0.808 -0.067,-0.137 -0.121,-0.258 -0.2,-0.399 -0.152,-0.273 -0.304,-0.547 -0.457,-0.82 -0.183,-0.332 -0.363,-0.613 -0.585,-0.918 -0.168,-0.234 -0.395,-0.41 -0.582,-0.629 -0.223,-0.266 -0.422,-0.605 -0.735,-0.769 -0.363,-0.188 -0.601,-0.274 -1,-0.352 -0.027,-0.008 -0.183,-0.07 -0.223,-0.078 -0.046,-0.016 -0.16,-0.039 -0.207,-0.055 -0.148,-0.035 -0.285,-0.043 -0.457,-0.047 -0.179,-0.004 -0.343,-0.011 -0.195,-0.199 0.098,-0.117 0.359,-0.109 0.5,-0.105 0.461,0.004 0.906,-0.032 1.359,0.074 0.422,0.101 0.813,0.262 1.188,0.496 0.855,0.535 1.84,1.094 2.367,1.992 0.156,0.27 0.258,0.594 0.426,0.871 0.187,0.309 0.379,0.602 0.477,0.957 0.113,0.395 0.339,0.688 0.464,1.074 0.121,0.375 0.262,0.766 0.36,1.149 0.14,0.535 0.199,1.086 0.3,1.617 0.059,0.293 0.055,0.606 0.106,0.902 0.043,0.286 0.02,0.586 0.02,0.875 0,0.688 0.05,1.336 -0.204,1.989 -0.125,0.308 -0.172,0.648 -0.281,0.968 -0.101,0.293 -0.152,0.598 -0.246,0.887 -0.043,0.141 -0.137,0.246 -0.176,0.391 -0.054,0.219 -0.078,0.469 -0.109,0.695 -0.067,0.512 -0.102,1.039 -0.234,1.543 -0.114,0.461 -0.227,0.809 -0.45,1.227 -0.289,0.531 -0.679,1.004 -1.019,1.507 -0.207,0.305 -0.414,0.411 -0.719,0.61 -0.281,0.187 -0.531,0.426 -0.832,0.586 -0.574,0.308 -1.191,0.504 -1.801,0.738 -0.445,0.168 -0.883,0.305 -1.347,0.301 -0.383,0 -0.817,0.086 -1.047,-0.297 -0.215,-0.363 -0.028,-0.711 0.129,-1.328"
         style="fill:#21201d;fill-opacity:1;fill-rule:nonzero;stroke:none"
         id="path708" />
      <path
         d="m 796.285,568.926 c -0.316,0 -0.644,0.054 -0.914,-0.102 -0.34,-0.195 -0.683,-0.418 -1.023,-0.636 -0.602,-0.399 -1.278,-0.704 -1.797,-1.219 -0.231,-0.223 -0.356,-0.535 -0.555,-0.781 -0.285,-0.352 -0.476,-0.743 -0.715,-1.126 -0.398,-0.648 -0.488,-1.414 -0.711,-2.132 -0.117,-0.375 -0.265,-0.715 -0.285,-1.114 -0.008,-0.242 0.016,-0.48 0.004,-0.718 -0.012,-0.278 -0.105,-0.508 -0.105,-0.789 0.011,-0.989 -0.063,-1.993 0,-2.977 0.027,-0.445 0.148,-0.887 0.254,-1.32 0.042,-0.172 0.117,-0.332 0.156,-0.508 0.054,-0.227 0.136,-0.363 0.226,-0.582 0.141,-0.332 0.301,-0.61 0.528,-0.902 0.273,-0.348 0.515,-0.708 0.789,-1.051 0.539,-0.68 1.308,-1.121 1.992,-1.657 0.254,-0.199 0.504,-0.328 0.812,-0.402 0.133,-0.035 0.317,-0.121 0.454,-0.16 0.175,-0.051 0.375,0.016 0.546,-0.039 -0.039,-0.328 -0.789,-0.188 -1.031,-0.188 -0.472,0 -0.84,0.032 -1.277,0.192 -0.418,0.152 -0.84,0.16 -1.227,0.344 -0.226,0.105 -0.488,0.121 -0.707,0.253 -0.179,0.106 -0.383,0.258 -0.547,0.391 -0.328,0.258 -0.629,0.59 -0.84,0.949 -0.117,0.192 -0.253,0.41 -0.335,0.61 -0.106,0.273 -0.18,0.527 -0.297,0.797 -0.176,0.394 -0.313,0.824 -0.407,1.246 -0.043,0.172 -0.128,0.336 -0.183,0.507 -0.074,0.243 -0.082,0.473 -0.149,0.708 -0.015,0.074 -0.078,0.148 -0.105,0.222 -0.078,0.203 -0.063,0.352 -0.074,0.567 -0.008,0.199 -0.082,0.347 -0.11,0.535 -0.019,0.16 0.008,0.351 0.008,0.511 0,0.586 -0.004,1.168 0,1.75 0.004,0.325 -0.094,0.598 -0.105,0.918 -0.012,0.297 0.004,0.606 0.004,0.907 0,0.812 -0.086,1.644 0.203,2.418 0.113,0.308 0.133,0.625 0.277,0.918 0.133,0.265 0.219,0.554 0.356,0.812 0.097,0.195 0.246,0.363 0.398,0.504 0.133,0.113 0.258,0.191 0.398,0.289 0.153,0.102 0.188,0.195 0.317,0.324 0.113,0.121 0.285,0.172 0.394,0.305 0.051,0.066 0.075,0.152 0.121,0.211 0.157,0.199 0.321,0.398 0.481,0.605 0.328,0.411 0.426,0.946 0.808,1.325 0.149,0.14 0.418,0.246 0.61,0.328 0.32,0.136 0.66,0.277 1,0.355 0.23,0.055 0.496,0.078 0.711,0.149 0.152,0.05 0.305,0.211 0.457,0.257 0.199,0.075 0.41,0.129 0.586,0.032 0.211,-0.121 0.336,-0.297 0.429,-0.516 0.09,-0.203 0.114,-0.398 0.207,-0.609 0.106,-0.231 0.075,-0.461 -0.027,-0.711"
         style="fill:#21201d;fill-opacity:1;fill-rule:nonzero;stroke:none"
         id="path710" />
      <path
         d="m 811.027,551.746 c -0.031,-0.008 -0.058,-0.016 -0.086,-0.019 -0.168,-0.606 0.438,-1.207 0.875,-1.536 0.25,-0.183 0.465,-0.269 0.735,-0.406 0.246,-0.121 0.449,-0.285 0.707,-0.379 0.383,-0.129 0.75,-0.258 1.144,-0.379 0.371,-0.117 0.739,-0.16 1.094,-0.304 0.238,-0.098 0.531,-0.176 0.742,-0.305 0.137,-0.082 0.231,-0.23 0.383,-0.313 0.137,-0.078 0.215,-0.128 0.324,-0.226 0.246,-0.211 0.274,-0.414 0.387,-0.711 0.078,-0.223 0.188,-0.477 0.203,-0.711 0.02,-0.281 -0.055,-0.465 -0.101,-0.707 -0.051,-0.25 -0.09,-0.496 -0.207,-0.715 -0.18,-0.351 -0.352,-0.695 -0.633,-0.992 -0.063,-0.066 -0.125,-0.184 -0.176,-0.231 -0.133,-0.124 -0.117,-0.05 -0.316,-0.093 -0.082,-0.02 -0.211,-0.078 -0.293,-0.106 -0.141,-0.047 -0.262,-0.082 -0.379,-0.179 0.125,-0.028 0.199,-0.11 0.32,-0.133 0.137,-0.028 0.32,0.008 0.461,0.008 0.273,-0.008 0.531,0.121 0.789,0.226 0.254,0.102 0.422,0.403 0.59,0.027 0.101,-0.234 0.129,-0.57 0.449,-0.566 0.363,0.008 0.332,0.352 0.207,0.574 -0.152,0.274 -0.273,0.457 -0.195,0.793 0.027,0.114 0.086,0.235 0.113,0.367 0.031,0.133 0.106,0.278 0.156,0.403 0.121,0.305 0.321,0.652 0.332,0.969 0.024,0.566 0.043,1.156 -0.277,1.628 -0.047,0.063 -0.137,0.145 -0.172,0.211 -0.031,0.059 -0.035,0.141 -0.07,0.196 -0.086,0.148 -0.231,0.191 -0.324,0.351 -0.157,0.278 -0.348,0.59 -0.579,0.821 -0.437,0.433 -1.16,0.695 -1.734,0.886 -0.137,0.051 -0.262,0.078 -0.394,0.149 -0.204,0.105 -0.442,0.129 -0.629,0.23 -0.059,0.031 -0.196,0.168 -0.246,0.215 -0.172,0.16 -0.25,0.254 -0.454,0.391 -0.39,0.261 -0.644,0.656 -0.957,0.976 -0.23,0.231 -0.496,0.301 -0.824,0.297 -0.406,0 -0.683,0.027 -1.019,-0.238 -0.25,-0.199 -0.364,-0.582 0.054,-0.469"
         style="fill:#21201d;fill-opacity:1;fill-rule:nonzero;stroke:none"
         id="path712" />
      <path
         d="m 801.242,551.746 c 0.024,-0.008 0.047,-0.016 0.07,-0.019 0.137,-0.606 -0.355,-1.207 -0.714,-1.536 -0.203,-0.183 -0.379,-0.269 -0.602,-0.406 -0.199,-0.121 -0.359,-0.285 -0.574,-0.379 -0.313,-0.129 -0.613,-0.258 -0.934,-0.379 -0.304,-0.117 -0.605,-0.16 -0.898,-0.304 -0.192,-0.098 -0.434,-0.176 -0.602,-0.305 -0.113,-0.082 -0.191,-0.23 -0.316,-0.313 -0.113,-0.078 -0.176,-0.128 -0.266,-0.226 -0.195,-0.211 -0.222,-0.414 -0.312,-0.711 -0.067,-0.223 -0.153,-0.477 -0.168,-0.711 -0.016,-0.281 0.043,-0.465 0.086,-0.707 0.039,-0.25 0.074,-0.496 0.164,-0.715 0.148,-0.351 0.289,-0.695 0.519,-0.992 0.051,-0.066 0.106,-0.184 0.145,-0.231 0.109,-0.124 0.094,-0.05 0.254,-0.093 0.07,-0.02 0.176,-0.078 0.246,-0.106 0.113,-0.047 0.211,-0.082 0.305,-0.179 -0.098,-0.028 -0.161,-0.11 -0.258,-0.133 -0.114,-0.028 -0.266,0.008 -0.379,0.008 -0.219,-0.008 -0.434,0.121 -0.645,0.226 -0.207,0.102 -0.34,0.403 -0.48,0.027 -0.086,-0.234 -0.11,-0.57 -0.367,-0.566 -0.297,0.008 -0.27,0.352 -0.168,0.574 0.121,0.274 0.222,0.457 0.16,0.793 -0.024,0.114 -0.07,0.235 -0.094,0.367 -0.027,0.133 -0.086,0.278 -0.125,0.403 -0.101,0.305 -0.266,0.652 -0.273,0.969 -0.02,0.566 -0.039,1.156 0.226,1.628 0.035,0.063 0.11,0.145 0.141,0.211 0.023,0.059 0.027,0.141 0.055,0.196 0.07,0.148 0.187,0.191 0.265,0.351 0.129,0.278 0.285,0.59 0.473,0.821 0.355,0.433 0.945,0.695 1.414,0.886 0.113,0.051 0.219,0.078 0.328,0.149 0.164,0.105 0.359,0.129 0.508,0.23 0.051,0.031 0.164,0.168 0.199,0.215 0.145,0.16 0.207,0.254 0.375,0.391 0.32,0.261 0.523,0.656 0.781,0.976 0.188,0.231 0.407,0.301 0.672,0.297 0.332,0 0.563,0.027 0.836,-0.238 0.203,-0.199 0.293,-0.582 -0.047,-0.469"
         style="fill:#21201d;fill-opacity:1;fill-rule:nonzero;stroke:none"
         id="path714" />
      <path
         d="m 808.992,571.266 c 0.18,0.066 0.336,0.214 0.481,0.332 0.152,0.117 0.339,0.195 0.461,0.351 0.304,0.387 0.472,1.153 0.488,1.637 0.008,0.488 0.012,0.91 -0.207,1.34 -0.199,0.394 -0.477,0.742 -0.61,1.172 -0.054,0.168 -0.14,0.336 -0.218,0.5 -0.043,0.101 -0.106,0.211 -0.145,0.308 -0.051,0.145 -0.023,0.262 -0.054,0.403 -0.02,0.097 -0.079,0.144 -0.094,0.257 -0.016,0.114 0,0.246 0,0.36 0,0.234 -0.008,0.476 0,0.711 0.008,0.25 0.125,0.429 0.183,0.664 0.028,0.109 0.028,0.199 0.067,0.304 0.051,0.114 0.164,0.227 0.211,0.352 0.183,0.488 0.511,0.918 0.648,1.414 0.07,0.27 0.235,0.484 0.219,0.774 -0.02,0.226 -0.121,0.589 -0.234,0.789 -0.239,0.449 -0.836,0.836 -1.278,1.031 -0.148,-0.445 0.188,-0.82 0.184,-1.262 -0.004,-0.453 0,-0.859 -0.153,-1.269 -0.16,-0.454 -0.507,-0.809 -0.761,-1.223 -0.141,-0.223 -0.305,-0.434 -0.446,-0.656 -0.152,-0.243 -0.246,-0.52 -0.367,-0.774 -0.187,-0.39 -0.176,-1.195 -0.094,-1.621 0.051,-0.285 0.254,-0.547 0.403,-0.789 0.144,-0.238 0.242,-0.5 0.429,-0.715 0.317,-0.359 0.676,-0.738 0.778,-1.195 0.117,-0.52 -0.059,-0.981 -0.309,-1.406 -0.207,-0.356 -0.812,-0.383 -0.91,-0.821 -0.051,-0.242 0.16,-0.492 0.305,-0.66 0.23,-0.262 0.398,-0.301 1.023,-0.308"
         style="fill:#21201d;fill-opacity:1;fill-rule:nonzero;stroke:none"
         id="path716" />
      <path
         d="m 805.738,571.773 c -0.371,-0.007 -0.199,1.254 -0.152,1.469 0.062,0.289 0.18,0.629 0.355,0.875 0.125,0.176 0.325,0.36 0.399,0.563 0.07,0.179 0.101,0.351 0.109,0.55 0.004,0.129 0.098,0.25 0.098,0.36 0,0.121 -0.07,0.129 -0.102,0.246 -0.023,0.098 0.035,0.215 0.012,0.312 -0.019,0.09 -0.082,0.157 -0.109,0.247 -0.024,0.085 -0.024,0.179 -0.047,0.257 -0.035,0.114 -0.106,0.239 -0.156,0.356 -0.075,0.187 -0.145,0.359 -0.227,0.535 -0.039,0.09 -0.051,0.125 -0.074,0.227 -0.024,0.093 -0.074,0.183 -0.094,0.261 -0.094,0.41 -0.012,0.949 -0.012,1.367 0,0.457 0.02,0.848 0.114,1.262 0.031,0.149 0.121,0.36 0.195,0.52 0.07,0.152 0.066,0.218 0.094,0.375 0.035,0.207 0.171,0.367 0.203,0.578 0.035,0.199 -0.039,0.39 0.066,0.566 0.082,0.137 0.125,0.071 0.145,0.254 0.035,0.281 -0.024,0.508 -0.094,0.766 -0.109,0.414 -0.301,0.984 -0.707,1.238 -0.059,-0.195 0.016,-0.422 -0.012,-0.629 -0.015,-0.137 -0.086,-0.242 -0.109,-0.379 -0.024,-0.152 0.023,-0.304 -0.02,-0.457 -0.109,-0.449 -0.156,-0.902 -0.441,-1.304 -0.317,-0.446 -0.559,-0.922 -0.754,-1.426 -0.238,-0.617 -0.281,-1.356 -0.207,-2.024 0.031,-0.289 0.137,-0.527 0.285,-0.761 0.066,-0.106 0.094,-0.223 0.145,-0.332 0.101,-0.204 0.265,-0.352 0.363,-0.559 0.058,-0.109 0.039,-0.207 0.125,-0.316 0.035,-0.047 0.117,-0.075 0.144,-0.122 0.047,-0.062 0.102,-0.152 0.137,-0.222 0.07,-0.145 0.199,-0.332 0.235,-0.481 0.05,-0.207 -0.079,-0.476 -0.157,-0.668 -0.101,-0.25 -0.32,-0.441 -0.558,-0.558 -0.2,-0.098 -0.379,-0.117 -0.563,-0.254 -0.215,-0.156 -0.383,-0.27 -0.519,-0.508 -0.309,-0.508 -0.153,-1.262 0.16,-1.754 0.211,-0.32 0.308,-0.609 0.715,-0.633 0.332,-0.023 0.523,0.153 1.015,0.203"
         style="fill:#21201d;fill-opacity:1;fill-rule:nonzero;stroke:none"
         id="path718" />
      <path
         d="m 802.078,571.672 c -0.199,0.195 -0.406,0.433 -0.484,0.711 -0.039,0.121 -0.008,0.238 -0.032,0.355 -0.035,0.16 -0.089,0.242 -0.093,0.41 -0.008,0.254 -0.02,0.477 0.097,0.704 0.164,0.312 0.321,0.562 0.516,0.839 0.137,0.192 0.238,0.375 0.379,0.559 0.133,0.168 0.254,0.398 0.332,0.586 0.086,0.203 0.043,0.402 0.094,0.617 0.023,0.102 0.09,0.145 0.113,0.246 0.023,0.121 -0.004,0.289 -0.004,0.41 0,0.118 0.016,0.246 0,0.36 -0.016,0.125 -0.062,0.156 -0.094,0.261 -0.07,0.25 -0.113,0.407 -0.242,0.625 -0.18,0.301 -0.348,0.594 -0.629,0.84 -0.32,0.278 -0.687,0.481 -0.992,0.789 -0.144,0.145 -0.309,0.258 -0.41,0.43 -0.117,0.195 -0.328,0.5 -0.387,0.707 -0.031,0.121 0.02,0.285 0.012,0.414 -0.012,0.153 -0.086,0.258 -0.113,0.406 -0.036,0.207 -0.028,0.59 0.027,0.789 0.012,0.036 0.074,0.067 0.086,0.122 0.016,0.066 -0.024,0.144 -0.012,0.214 0.02,0.086 0.117,0.219 0.16,0.297 0.094,0.18 0.309,0.496 0.235,0.703 -0.164,-0.023 -0.278,-0.273 -0.356,-0.394 -0.156,-0.234 -0.375,-0.43 -0.539,-0.664 -0.379,-0.543 -0.676,-1.117 -0.719,-1.781 -0.023,-0.497 -0.003,-0.969 0.305,-1.364 0.164,-0.211 0.375,-0.472 0.613,-0.597 0.215,-0.11 0.469,-0.157 0.676,-0.262 0.473,-0.242 0.754,-0.477 0.75,-1.027 0,-0.231 0.035,-0.493 -0.023,-0.711 -0.035,-0.137 -0.071,-0.207 -0.078,-0.36 -0.008,-0.14 -0.067,-0.203 -0.094,-0.312 -0.027,-0.114 0.016,-0.235 -0.004,-0.348 -0.02,-0.137 -0.102,-0.246 -0.168,-0.367 -0.176,-0.324 -0.434,-0.543 -0.629,-0.852 -0.301,-0.468 -0.531,-0.918 -0.762,-1.425 -0.246,-0.547 0.18,-0.961 0.489,-1.372 0.16,-0.214 0.406,-0.324 0.66,-0.406 0.18,-0.058 0.625,-0.136 0.781,0.024 -0.023,0.011 -0.051,0.019 0.539,-0.176"
         style="fill:#21201d;fill-opacity:1;fill-rule:nonzero;stroke:none"
         id="path720" />
      <path
         d="m 795.578,557.027 c -0.398,-0.215 -0.848,-0.207 -1.18,0.121 -0.199,0.196 -0.324,0.313 -0.437,0.559 -0.117,0.25 -0.098,0.367 0.016,0.656 0.066,0.18 0.171,0.465 0.335,0.602 0.079,0.07 0.18,0.058 0.25,0.117 0.071,0.055 0.106,0.16 0.18,0.203 0.141,0.086 0.539,0.141 0.711,0.153 0.238,0.015 0.457,0.031 0.649,-0.09 0.476,-0.301 0.429,-0.809 -0.153,-0.797 -0.246,0 -0.449,0.027 -0.644,-0.094 -0.215,-0.125 -0.336,-0.359 -0.075,-0.516 0.235,-0.144 1.223,-0.195 1.29,-0.531 0.035,-0.168 -0.395,-0.598 -0.512,-0.633 -0.305,-0.089 -0.434,0.172 -0.68,0.25"
         style="fill:#21201d;fill-opacity:1;fill-rule:nonzero;stroke:none"
         id="path722" />
      <path
         d="m 815.691,557.254 c -0.054,-0.281 -0.48,-0.348 -0.695,-0.391 -0.281,-0.054 -0.566,0.016 -0.812,0.164 -0.465,0.285 -0.891,0.563 -0.809,1.254 0.027,0.242 0.187,0.473 0.316,0.672 0.125,0.192 0.289,0.285 0.465,0.383 0.278,0.144 0.395,0.226 0.727,0.223 0.262,-0.004 0.582,0.058 0.816,-0.059 0.051,-0.031 0.172,-0.156 0.223,-0.199 0.09,-0.071 0.191,-0.106 0.262,-0.219 0.203,-0.328 0.019,-0.523 -0.325,-0.426 -0.328,0.098 -1.234,0.414 -1.328,-0.183 -0.117,-0.719 1.008,-0.313 1.34,-0.508 0.145,-0.09 0.191,-0.129 0.176,-0.332 -0.004,-0.035 -0.125,-0.332 -0.149,-0.356 -0.183,-0.203 -0.543,-0.148 -0.785,-0.152"
         style="fill:#21201d;fill-opacity:1;fill-rule:nonzero;stroke:none"
         id="path724" />
      <path
         d="m 806.539,558.477 c -0.051,-0.282 -0.477,-0.352 -0.691,-0.395 -0.286,-0.055 -0.571,0.02 -0.813,0.168 -0.469,0.285 -0.89,0.559 -0.812,1.25 0.031,0.242 0.187,0.477 0.32,0.676 0.125,0.191 0.285,0.285 0.465,0.379 0.277,0.148 0.39,0.226 0.726,0.222 0.258,0 0.582,0.063 0.813,-0.058 0.051,-0.028 0.176,-0.157 0.226,-0.196 0.09,-0.07 0.192,-0.105 0.262,-0.222 0.199,-0.324 0.02,-0.52 -0.324,-0.422 -0.328,0.098 -1.234,0.414 -1.332,-0.184 -0.113,-0.718 1.012,-0.312 1.34,-0.511 0.148,-0.086 0.195,-0.129 0.179,-0.329 -0.003,-0.035 -0.128,-0.332 -0.148,-0.355 -0.184,-0.203 -0.547,-0.148 -0.785,-0.152"
         style="fill:#21201d;fill-opacity:1;fill-rule:nonzero;stroke:none"
         id="path726" />
      <path
         d="m 810.926,556.652 c 0,-0.164 0.023,-0.343 -0.008,-0.504 -0.02,-0.117 -0.078,-0.23 -0.109,-0.347 -0.055,-0.223 -0.063,-0.461 -0.129,-0.68 -0.059,-0.199 -0.164,-0.359 -0.211,-0.566 -0.047,-0.2 -0.11,-0.375 -0.192,-0.567 -0.136,-0.304 -0.289,-0.597 -0.468,-0.883 -0.102,-0.164 -0.227,-0.285 -0.348,-0.417 -0.09,-0.102 -0.195,-0.098 -0.297,-0.172 -0.082,-0.063 -0.141,-0.176 -0.211,-0.254 -0.234,-0.246 -0.57,-0.43 -0.867,-0.586 -0.207,-0.11 -0.281,-0.168 -0.402,-0.364 -0.118,-0.187 -0.164,-0.386 -0.25,-0.593 -0.157,-0.403 -0.239,-0.817 -0.329,-1.239 -0.117,-0.542 -0.363,-1.074 -0.558,-1.593 -0.067,-0.168 -0.047,-0.352 -0.043,-0.535 0.004,-0.317 -0.141,-0.594 -0.156,-0.907 -0.016,-0.25 -0.043,-0.488 -0.071,-0.738 -0.011,-0.113 -0.07,-0.211 -0.082,-0.324 -0.011,-0.094 0.016,-0.192 -0.004,-0.285 -0.027,-0.118 -0.066,-0.18 -0.07,-0.305 -0.004,-0.105 0,-0.176 -0.055,-0.27 -0.086,-0.148 -0.464,-0.324 -0.621,-0.296 -0.082,0.144 -0.078,0.222 -0.086,0.375 -0.007,0.16 -0.062,0.3 -0.074,0.457 -0.031,0.367 -0.164,0.679 -0.324,1.007 -0.137,0.286 -0.254,0.567 -0.293,0.883 -0.023,0.203 0.027,0.406 -0.016,0.613 -0.027,0.161 -0.074,0.321 -0.132,0.473 -0.114,0.305 -0.305,0.578 -0.383,0.895 -0.055,0.211 -0.129,0.433 -0.153,0.648 -0.023,0.203 -0.019,0.449 -0.07,0.637 -0.113,0.383 -0.242,0.793 -0.559,1.078 -0.136,0.125 -0.269,0.266 -0.378,0.41 -0.086,0.117 -0.114,0.215 -0.18,0.336 -0.063,0.117 -0.156,0.184 -0.242,0.281 -0.071,0.086 -0.114,0.196 -0.188,0.278 -0.086,0.093 -0.195,0.136 -0.273,0.242 -0.184,0.242 -0.371,0.508 -0.582,0.73 -0.27,0.285 -0.617,0.528 -0.824,0.864 -0.161,0.261 -0.204,0.543 -0.305,0.824 -0.059,0.164 -0.106,0.316 -0.153,0.476 -0.027,0.106 -0.097,0.235 -0.117,0.325 -0.051,0.25 0.098,1.289 0.551,1.121 0.094,-0.035 0.129,-0.145 0.176,-0.223 0.094,-0.164 0.234,-0.301 0.308,-0.477 0.079,-0.171 0.067,-0.371 0.129,-0.546 0.059,-0.172 0.153,-0.336 0.215,-0.508 0.031,-0.094 0.086,-0.18 0.121,-0.27 0.039,-0.09 0.114,-0.191 0.149,-0.277 0.078,-0.211 0.086,-0.324 0.261,-0.496 0.118,-0.117 0.231,-0.258 0.36,-0.363 0.191,-0.157 0.375,-0.215 0.594,-0.286 0.351,-0.105 0.773,-0.32 1.031,-0.589 0.144,-0.149 0.312,-0.364 0.414,-0.54 0.144,-0.234 0.195,-0.484 0.258,-0.757 0.039,-0.172 0.164,-0.282 0.207,-0.442 0.039,-0.136 0.035,-0.195 0.09,-0.316 0.074,-0.164 0.105,-0.602 0.382,-0.547 0.184,0.039 0.301,0.309 0.305,0.465 0.016,0.289 0.031,0.558 0.074,0.84 0.078,0.492 0.371,0.843 0.879,0.84 0.063,0 0.133,-0.012 0.192,-0.004 0.082,0.011 0.109,0.05 0.168,0.062 0.171,0.035 0.347,0 0.519,0.051 0.391,0.117 0.555,0.457 0.82,0.73 0.129,0.137 0.227,0.262 0.379,0.379 0.145,0.114 0.317,0.18 0.465,0.285 0.266,0.192 0.367,0.465 0.449,0.782 0.082,0.316 0.036,0.664 0.153,0.972 0.117,0.321 0.281,0.586 0.476,0.856 0.164,0.222 0.301,0.437 0.61,0.387 0.297,-0.051 0.457,-0.458 0.078,-0.536"
         style="fill:#21201d;fill-opacity:1;fill-rule:nonzero;stroke:none"
         id="path728" />
    </g>
  </g>
</svg>
