<?xml version="1.0" encoding="UTF-8" standalone="no"?>
<!-- Created with Inkscape (http://www.inkscape.org/) -->

<svg
   width="6.9354701mm"
   height="6.4283218mm"
   viewBox="0 0 6.9354701 6.4283218"
   version="1.1"
   id="svg4216"
   inkscape:version="1.1.2 (0a00cf5339, 2022-02-04)"
   sodipodi:docname="u5.svg"
   xmlns:inkscape="http://www.inkscape.org/namespaces/inkscape"
   xmlns:sodipodi="http://sodipodi.sourceforge.net/DTD/sodipodi-0.dtd"
   xmlns="http://www.w3.org/2000/svg"
   xmlns:svg="http://www.w3.org/2000/svg">
  <sodipodi:namedview
     id="namedview4218"
     pagecolor="#ffffff"
     bordercolor="#666666"
     borderopacity="1.0"
     inkscape:pageshadow="2"
     inkscape:pageopacity="0.0"
     inkscape:pagecheckerboard="0"
     inkscape:document-units="mm"
     showgrid="false"
     inkscape:zoom="0.64052329"
     inkscape:cx="-201.39783"
     inkscape:cy="375.47425"
     inkscape:window-width="2560"
     inkscape:window-height="1376"
     inkscape:window-x="0"
     inkscape:window-y="0"
     inkscape:window-maximized="1"
     inkscape:current-layer="layer1" />
  <defs
     id="defs4213" />
  <g
     inkscape:label="Layer 1"
     inkscape:groupmode="layer"
     id="layer1"
     transform="translate(-158.04399,-49.246293)">
    <path
       d="m 161.64821,50.77449 c -7e-4,-0.01362 -0.001,-0.02667 -0.003,-0.03957 -0.003,-0.01951 -0.009,-0.03589 -0.0158,-0.05098 l 0.003,0.04086 c 0.005,0.01658 0.01,0.03313 0.0157,0.0497"
       style="fill:#21201d;fill-opacity:1;fill-rule:nonzero;stroke:none;stroke-width:0.184057"
       id="path312" />
    <path
       d="m 161.85896,52.937907 c 0.0388,-0.142462 0.0151,-0.291179 0.023,-0.440821 0.002,-0.04749 0.006,-0.07767 0.0215,-0.125158 0.0151,-0.04804 0.0482,-0.07675 0.0633,-0.119271 0.018,-0.05098 0.005,-0.123684 0.005,-0.177613 0,-0.204858 -0.0488,-0.388916 -0.0841,-0.589537 -0.0302,-0.177617 -0.0596,-0.336458 -0.14302,-0.500454 -0.0351,-0.06976 -0.0712,-0.13878 -0.0964,-0.209825 7e-4,0.04601 -0.004,0.09405 -0.004,0.139513 l -0.0121,-0.189947 c -0.007,-0.02448 -0.0116,-0.04951 -0.0151,-0.07473 0.004,0.01139 0.008,0.023 0.0121,0.03387 l -0.0151,-0.2459 c -0.0891,0.01785 -0.1581,0.178904 -0.20062,0.245166 -0.0453,0.06976 -0.0302,0.122951 -0.0438,0.200622 -0.007,0.04013 -0.0136,0.08687 -0.0223,0.127183 -0.0123,0.06405 -0.046,0.115037 -0.0611,0.179088 -0.0237,0.09626 -0.0497,0.194733 -0.0806,0.289708 -0.023,0.07399 -0.0396,0.158842 -0.0826,0.224367 -0.0388,0.06037 -0.0445,0.08908 -0.0445,0.161603 7.1e-4,0.08062 -0.0158,0.182034 -0.001,0.26173 0.007,0.04031 0.0265,0.07123 0.0324,0.110804 0.005,0.03369 -0.004,0.07049 -10e-4,0.104175 0.004,0.09203 0.0668,0.170438 0.0834,0.261733 0.006,0.03238 0.002,0.06479 0.0121,0.09497 0.0116,0.03737 0.0425,0.06608 0.0512,0.104179 0.0193,0.08264 -0.0136,0.172646 0.009,0.256025 0.0223,0.07914 0.0236,0.150192 0.023,0.235776 -7.1e-4,0.07915 0.0151,0.133074 0.0374,0.207066 0.048,0.162525 0.11356,0.325783 0.11062,0.497508 -0.006,-0.05743 0.0374,-0.0935 0.0596,-0.138779 0.0274,-0.05319 0.0418,-0.120004 0.0598,-0.177616 0.0495,-0.1524 0.10197,-0.278847 0.18535,-0.418363 0.0296,-0.04951 0.0878,-0.09203 0.10656,-0.148167 0.0193,-0.05742 -0.004,-0.120742 0.0121,-0.178904"
       style="fill:#21201d;fill-opacity:1;fill-rule:nonzero;stroke:none;stroke-width:0.184057"
       id="path314" />
    <path
       d="m 164.97853,49.590998 c -0.10271,-0.04307 -0.18609,-0.115037 -0.30112,-0.127187 -0.14467,-0.01658 -0.28915,-0.01951 -0.43216,-0.04675 -0.0913,-0.01729 -0.18332,-0.01584 -0.27388,-0.03238 -0.0685,-0.01288 -0.13381,-0.03663 -0.20136,-0.04969 -0.0611,-0.0114 -0.12368,-0.02723 -0.18553,-0.03221 -0.0705,-0.0059 -0.14227,0.0021 -0.2135,-0.0037 -0.16031,-0.01362 -0.32136,-0.0018 -0.48094,-0.01729 -0.0777,-0.0079 -0.15534,-0.0035 -0.23301,-0.0099 -0.0826,-0.0065 -0.164,-0.01161 -0.24664,-0.01087 -0.14872,0.0021 -0.29688,-0.01362 -0.44505,-0.01288 -0.15092,0 -0.29909,0.0028 -0.44928,0.01288 -0.13086,0.0094 -0.25878,0.01362 -0.38909,0.01362 -0.0676,0 -0.13657,0.0052 -0.20412,-0.0021 -0.0784,-0.0079 -0.14945,-0.02596 -0.22933,-0.02522 -0.14099,0.0018 -0.28327,-0.0044 -0.42425,0.0018 -0.0611,0.0021 -0.12001,0.01214 -0.18038,0.01933 -0.0972,0.01161 -0.19491,0.01362 -0.29191,0.02596 -0.074,0.0086 -0.1489,0.01658 -0.22289,0.02007 -0.0769,0.0044 -0.15388,-0.005 -0.23008,0.0037 -0.14374,0.01584 -0.25381,0.08687 -0.3797,0.14522 -0.0381,0.01658 -0.0797,0.02575 -0.1143,0.04878 -0.0401,0.02522 -0.0624,0.0554 -0.11283,0.06111 -0.0819,0.0086 -0.18829,0.01012 -0.26743,-0.0057 -0.0733,-0.01436 -0.13657,-0.06111 -0.2113,-0.06185 -0.018,0 -0.0361,-0.0018 -0.0539,0 -0.0217,0 -0.0368,0.01087 -0.0569,0.01436 -0.0302,0.0059 -0.0727,-0.01584 -0.0942,0.01231 -0.0287,0.03737 0.0151,0.0797 0.0361,0.108596 0.0596,0.08687 0.11503,0.178167 0.16951,0.268908 0.0317,0.05025 0.0447,0.102704 0.0685,0.156634 0.0144,0.03238 0.0322,0.05761 0.0387,0.09277 0.008,0.04233 0.026,0.07988 0.0375,0.121475 0.0144,0.04675 0.0193,0.09571 0.0315,0.142463 0.0309,0.116325 0.0928,0.223446 0.14025,0.33425 0.0512,0.120004 0.12074,0.232279 0.17541,0.35155 0.0583,0.127367 0.0841,0.281241 0.11375,0.418546 0.0545,0.248662 0.15589,0.479471 0.29394,0.696662 0.026,0.04086 0.0524,0.08043 0.0784,0.121475 0.0339,0.05246 0.0561,0.110621 0.0878,0.16455 0.0272,0.04749 0.0668,0.08927 0.0977,0.135283 0.0344,0.05098 0.0582,0.107121 0.0906,0.159576 0.0396,0.06405 0.0799,0.125162 0.11209,0.193445 0.0302,0.06332 0.0755,0.112092 0.11577,0.168967 0.0374,0.0554 0.0641,0.115771 0.0992,0.171725 0.0453,0.07197 0.10216,0.134546 0.14393,0.2078 0.0387,0.06976 0.074,0.140991 0.12572,0.202833 0.0661,0.0797 0.12147,0.158842 0.17043,0.248663 0.0653,0.118717 0.13363,0.2367 0.20633,0.351 0.028,0.0438 0.0503,0.09553 0.0849,0.135096 0.0381,0.04454 0.0755,0.08706 0.10933,0.135837 0.0733,0.106384 0.14872,0.222158 0.20412,0.338667 0.0272,0.05835 0.0497,0.1108 0.0871,0.163995 0.0294,0.04307 0.0344,0.09553 0.0631,0.139513 0.0368,0.0589 0.0791,0.108413 0.11799,0.16455 0.028,0.04105 0.0633,0.0762 0.0906,0.115771 0.0252,0.03737 0.0309,0.110067 0.072,0.131604 0.004,-0.0302 0.007,-0.0589 -0.0116,-0.104362 7.1e-4,-0.04013 -0.0129,-0.08688 -0.028,-0.124975 -0.0396,-0.101417 -0.0826,-0.204858 -0.13307,-0.302038 -0.051,-0.09921 -0.0906,-0.204858 -0.13731,-0.307012 -0.0396,-0.08411 -0.0762,-0.1697 -0.11062,-0.255838 -0.0453,-0.113012 -0.0863,-0.223633 -0.15166,-0.327992 -0.0677,-0.108595 -0.11798,-0.225654 -0.18406,-0.336458 -0.0663,-0.109329 -0.1454,-0.214979 -0.19491,-0.332775 -0.0445,-0.103625 -0.0913,-0.205042 -0.14025,-0.306275 -0.0574,-0.119454 -0.10933,-0.240196 -0.17964,-0.353021 -0.0339,-0.05467 -0.0705,-0.113012 -0.095,-0.172646 -0.0188,-0.04675 -0.0265,-0.09553 -0.0547,-0.138783 -0.0733,-0.1143 -0.17614,-0.213504 -0.22639,-0.340688 -0.0245,-0.06056 -0.0519,-0.117245 -0.0848,-0.17412 -0.0403,-0.06755 -0.0942,-0.130867 -0.11798,-0.206329 -0.0144,-0.04307 -0.0223,-0.08264 -0.0403,-0.125159 -0.0164,-0.04086 -0.0438,-0.0797 -0.0559,-0.121479 -0.0123,-0.04086 -0.0138,-0.07694 -0.0339,-0.116325 -0.0294,-0.05835 -0.0532,-0.116508 -0.0799,-0.176879 -0.0144,-0.03164 -0.0366,-0.06055 -0.0466,-0.09424 -0.0131,-0.04528 -0.021,-0.09056 -0.0396,-0.134546 -0.0366,-0.08614 -0.0433,-0.179641 -0.09,-0.261545 -0.0164,-0.02889 -0.0394,-0.0554 -0.0552,-0.08485 -0.0151,-0.02815 -0.0123,-0.04104 -0.0188,-0.0727 -0.009,-0.04381 -0.0331,-0.08485 -0.0438,-0.129391 -0.0223,-0.09277 -0.0569,-0.183325 -0.0799,-0.275354 -0.0107,-0.04325 -0.0107,-0.07767 -0.0344,-0.117979 -0.026,-0.04528 -0.0316,-0.0705 -0.0425,-0.117796 -0.009,-0.04326 -0.0344,-0.07988 -0.0416,-0.124425 -0.006,-0.02946 -0.0274,-0.06332 -0.026,-0.09203 0.0201,-0.0094 0.0252,0.0086 0.0418,0.01214 0.0359,0.0079 0.0812,0.0052 0.11926,0.01087 0.0374,0.005 0.074,0.0028 0.11209,0.0021 0.0655,0 0.13308,0.0065 0.1986,-0.0021 0.0545,-0.0079 0.10418,-0.01012 0.16031,-0.01012 0.079,0 0.15019,-0.01933 0.22787,-0.02872 0.14595,-0.01658 0.29191,-0.03238 0.4386,-0.0438 0.0883,-0.0066 0.17467,-0.01012 0.26302,-0.0094 0.0814,0 0.16105,-0.01288 0.2424,-0.0151 0.20559,-0.0057 0.42057,0.01069 0.62413,0.03663 0.14725,0.01877 0.29542,0.02374 0.44211,0.04233 0.0804,0.01012 0.16031,0.02374 0.24074,0.03037 0.0791,0.0057 0.14172,0.03736 0.21719,0.05669 0.0539,0.01288 0.10289,0.0086 0.15755,0.01012 0.10786,0.0018 0.20486,0.05319 0.30903,0.07123 0.1108,0.02007 0.22216,-0.0018 0.33075,-0.02522 0.0396,-0.0086 0.0747,-0.02741 0.11504,-0.03461 0.0433,-0.0092 0.0848,-0.01069 0.12939,-0.01069 0.0856,0 0.17191,0 0.25749,0 0.0705,0 0.14375,0.0065 0.21203,-0.01235 0.0475,-0.01214 0.0906,-0.03164 0.14099,-0.03736 0.0661,-0.0072 0.13215,-0.01288 0.19768,-0.01729 0.0193,-0.0018 0.0237,-0.0065 0.0423,-0.01069 0.069,-0.01729 0.16178,-0.0028 0.23301,-0.0028 0.074,0 0.16252,-0.01069 0.23578,0 -0.0144,0.04252 -0.0215,0.08632 -0.0381,0.127921 -0.0158,0.03957 -0.023,0.07344 -0.0302,0.115034 -0.009,0.05835 -0.0351,0.09865 -0.0561,0.153137 -0.0171,0.04472 -0.0272,0.09148 -0.046,0.135283 -0.0381,0.09056 -0.0826,0.182584 -0.12497,0.27038 -0.0282,0.05742 -0.0324,0.117062 -0.0539,0.176145 -0.0165,0.04601 -0.0576,0.09405 -0.0863,0.134363 -0.028,0.03883 -0.0561,0.06405 -0.072,0.107855 -0.0129,0.03589 -0.0366,0.05964 -0.0539,0.09497 -0.0272,0.05467 -0.0431,0.119271 -0.0611,0.177434 -0.0136,0.04104 -0.0309,0.07988 -0.0466,0.120925 -0.023,0.05963 -0.0425,0.123687 -0.0749,0.179641 -0.0309,0.05393 -0.0467,0.115771 -0.0834,0.166942 -0.0215,0.0302 -0.0502,0.05392 -0.0683,0.08687 -0.0144,0.02596 -0.0215,0.05687 -0.0352,0.08337 -0.0223,0.04528 -0.0526,0.08853 -0.0791,0.131604 -0.028,0.04528 -0.0561,0.09571 -0.0791,0.14375 -0.0265,0.0554 -0.0309,0.115034 -0.0596,0.170437 -0.0136,0.02522 -0.0331,0.04601 -0.0482,0.07049 -0.0144,0.02448 -0.0201,0.05246 -0.0316,0.07767 -0.0164,0.03514 -0.0423,0.06681 -0.0596,0.101413 -0.0324,0.06185 -0.0698,0.119271 -0.10639,0.178904 -0.0388,0.06332 -0.0582,0.132338 -0.092,0.197863 -0.051,0.09479 -0.0819,0.202649 -0.12221,0.302591 -0.0396,0.09921 -0.0955,0.188475 -0.15093,0.279033 -0.0524,0.08688 -0.0806,0.187555 -0.12147,0.278113 -0.0237,0.05393 -0.0396,0.103625 -0.0584,0.157554 -0.0158,0.04527 -0.0431,0.08908 -0.0633,0.134359 -0.0352,0.07988 -0.0948,0.151849 -0.13657,0.229337 -0.0309,0.05761 -0.0517,0.119454 -0.079,0.177617 -0.0188,0.03957 -0.0418,0.08062 -0.0547,0.122212 -0.0237,0.07988 -0.0799,0.148167 -0.11724,0.223633 -0.0418,0.08338 -0.0826,0.171172 -0.11577,0.257496 -0.0252,0.06461 -0.0339,0.133626 -0.0698,0.194734 -0.0121,0.02025 -0.0324,0.04104 -0.0309,0.06626 0.007,-0.01803 0.0195,-0.02741 0.0287,-0.04178 0.0252,-0.0381 0.041,-0.08043 0.069,-0.118533 0.0224,-0.03037 0.0569,-0.05393 0.0756,-0.08559 0.0208,-0.03313 0.0294,-0.07049 0.051,-0.103625 0.0453,-0.06681 0.0942,-0.126446 0.14669,-0.189762 0.023,-0.02798 0.0366,-0.06681 0.074,-0.08117 0.0151,-0.0059 0.028,-0.0044 0.0425,-0.01305 0.0359,-0.02226 0.0661,-0.07841 0.0928,-0.109883 0.0344,-0.04325 0.0703,-0.08559 0.10712,-0.12663 0.0532,-0.05964 0.10565,-0.115774 0.1559,-0.179091 0.0611,-0.07822 0.11007,-0.16105 0.16675,-0.240746 0.0534,-0.07417 0.11154,-0.140254 0.15461,-0.220687 0.0433,-0.07988 0.0979,-0.151846 0.15608,-0.222158 0.0641,-0.07693 0.11136,-0.154609 0.16455,-0.237984 0.0504,-0.07694 0.0994,-0.145959 0.12737,-0.233754 0.0453,-0.140988 0.0955,-0.280321 0.13877,-0.421309 0.0431,-0.139516 0.0567,-0.297621 0.13087,-0.426279 0.0869,-0.148166 0.19344,-0.286208 0.26596,-0.443029 0.0237,-0.05319 0.0468,-0.107121 0.0626,-0.163075 0.0237,-0.08135 0.0294,-0.166938 0.0596,-0.246637 0.0252,-0.06755 0.0589,-0.132338 0.0856,-0.19915 0.0339,-0.08264 0.0633,-0.163996 0.11282,-0.238722 0.0381,-0.05835 0.0512,-0.125895 0.0777,-0.189028 0.0331,-0.07638 0.0841,-0.141725 0.11153,-0.220871 0.0898,-0.257313 0.24443,-0.486646 0.35578,-0.735496 0.0188,-0.0416 0.0403,-0.08043 0.0561,-0.123684 0.018,-0.04455 0.0453,-0.08338 0.0633,-0.127187 0.0114,-0.02797 0.006,-0.04822 0.008,-0.07693 0.003,-0.02448 0.0237,-0.0532 0.0173,-0.07767"
       style="fill:#21201d;fill-opacity:1;fill-rule:nonzero;stroke:none;stroke-width:0.184057"
       id="path316" />
  </g>
</svg>
