<?xml version="1.0" encoding="UTF-8" standalone="no"?>
<!-- Created with Inkscape (http://www.inkscape.org/) -->

<svg
   width="7.8623915mm"
   height="8.1231203mm"
   viewBox="0 0 7.8623915 8.1231203"
   version="1.1"
   id="svg4401"
   inkscape:version="1.1.2 (0a00cf5339, 2022-02-04)"
   sodipodi:docname="u6.svg"
   xmlns:inkscape="http://www.inkscape.org/namespaces/inkscape"
   xmlns:sodipodi="http://sodipodi.sourceforge.net/DTD/sodipodi-0.dtd"
   xmlns="http://www.w3.org/2000/svg"
   xmlns:svg="http://www.w3.org/2000/svg">
  <sodipodi:namedview
     id="namedview4403"
     pagecolor="#ffffff"
     bordercolor="#666666"
     borderopacity="1.0"
     inkscape:pageshadow="2"
     inkscape:pageopacity="0.0"
     inkscape:pagecheckerboard="0"
     inkscape:document-units="mm"
     showgrid="false"
     inkscape:zoom="0.64052329"
     inkscape:cx="21.857129"
     inkscape:cy="66.351998"
     inkscape:window-width="2560"
     inkscape:window-height="1376"
     inkscape:window-x="0"
     inkscape:window-y="0"
     inkscape:window-maximized="1"
     inkscape:current-layer="layer1" />
  <defs
     id="defs4398">
    <clipPath
       clipPathUnits="userSpaceOnUse"
       id="clipPath56">
      <path
         d="m 824,1066 h 4.18 v 3 H 824 Z"
         id="path54" />
    </clipPath>
  </defs>
  <g
     inkscape:label="Layer 1"
     inkscape:groupmode="layer"
     id="layer1"
     transform="translate(-99.337235,-131.01352)">
    <path
       d="m 103.41782,131.35646 c 0,0.14228 0.0107,0.28897 -0.0136,0.42849 -0.0166,0.095 -0.0138,0.18553 -0.0138,0.28253 0,0.067 -0.0158,0.17411 0.006,0.23798 0.0453,-0.0245 0.0747,-0.0272 0.13216,-0.0258 0.0618,0 0.10638,-0.026 0.16547,-0.0289 0.12791,-0.006 0.13951,0.002 0.26743,0 0.13436,0 0.25878,0.0482 0.38744,0.0906 0.0504,0.0165 0.0992,0.0224 0.14319,0.0418 0.0755,0.0331 0.16308,0.0589 0.23725,0.097 0.16105,0.0834 0.28897,0.20632 0.42057,0.32872 0.0712,0.0668 0.12148,0.14154 0.17246,0.22492 0.0547,0.0885 0.12295,0.15682 0.16694,0.25234 0.0626,0.13878 0.15663,0.25953 0.21921,0.39702 0.0403,0.0884 0.0618,0.17467 0.0977,0.26522 0.0512,0.1316 0.0893,0.26376 0.12443,0.40051 0.0453,0.17541 0.0202,0.3753 0.0202,0.55789 0,0.12368 0.0157,0.25731 -0.007,0.37952 -0.0171,0.095 -0.046,0.17412 -0.048,0.27038 -0.004,0.1432 -0.0576,0.28124 -0.11154,0.41266 -0.023,0.0584 -0.051,0.11375 -0.0826,0.16621 -0.0201,0.0344 -0.0324,0.0733 -0.0539,0.10712 -0.0295,0.046 -0.0769,0.079 -0.11081,0.12221 -0.0696,0.092 -0.14006,0.18976 -0.22344,0.27038 -0.0611,0.0589 -0.1281,0.11357 -0.18479,0.17817 -0.10436,0.12148 -0.25106,0.17412 -0.39904,0.22363 -0.044,0.0144 -0.0814,0.0438 -0.12589,0.0583 -0.0396,0.0129 -0.0797,0.0151 -0.11927,0.0272 -0.0655,0.0193 -0.12939,0.0201 -0.19712,0.0411 -0.1905,0.0582 -0.38321,0.069 -0.57371,0.11209 -0.14522,0.0331 -0.27461,0.0331 -0.42277,0.0351 -0.0718,0 -0.12296,-0.0223 -0.19124,-0.028 -0.11706,-0.0101 -0.2343,-0.0381 -0.34657,-0.0762 -0.0481,-0.0158 -0.0933,-0.0366 -0.13934,-0.0569 -0.0467,-0.0208 -0.0576,-0.0359 -0.0942,-0.0624 -0.041,-0.0309 -0.0871,-0.0418 -0.12737,-0.0762 -0.0322,-0.0274 -0.0517,-0.0606 -0.0861,-0.0848 -0.0453,-0.0324 -0.0747,-0.0353 -0.11356,-0.0841 -0.0267,-0.0324 -0.0519,-0.0598 -0.0814,-0.09 -0.0841,-0.0848 -0.18185,-0.15664 -0.2494,-0.25731 -0.0532,-0.0799 -0.0856,-0.1813 -0.13086,-0.26597 -0.0517,-0.0986 -0.09,-0.20504 -0.12516,-0.31069 -0.0374,-0.11282 -0.0475,-0.19989 -0.0475,-0.32063 7.1e-4,-0.12295 -0.0171,-0.26099 0.006,-0.38247 0.0375,-0.1905 0.0381,-0.39757 0.1108,-0.58162 0.0344,-0.0893 0.0791,-0.17265 0.1316,-0.25179 0.0618,-0.092 0.10344,-0.19842 0.17044,-0.28529 0.16896,-0.21719 0.38596,-0.3718 0.64419,-0.45444 0.0898,-0.0287 0.17467,-0.0675 0.26946,-0.0791 0.0425,-0.005 0.0878,0.006 0.13013,0.003 0.0756,-0.005 0.14319,-0.0295 0.22013,-0.0302 0.0948,0 0.18903,0.002 0.284,0 0.10141,0 0.19694,0.0208 0.29762,0.0272 0.14374,0.0101 0.30995,0.0734 0.41486,0.17467 0.0876,0.0848 0.1581,0.17909 0.19988,0.29487 0.0482,0.13086 0.12296,0.26172 0.13234,0.40327 0.0144,0.20632 0.009,0.42995 7e-4,0.63628 -0.005,0.13087 -0.0725,0.27977 -0.13288,0.39554 -0.026,0.051 -0.0734,0.12498 -0.11577,0.16602 -0.0252,0.0245 -0.0584,0.0309 -0.0849,0.0532 -0.049,0.041 -0.0497,0.0663 -0.1086,0.092 -0.0712,0.0324 -0.14816,0.0777 -0.22215,0.1 -0.12148,0.0366 -0.2875,0.004 -0.41413,0.006 -0.0661,0 -0.13013,-0.0186 -0.19344,-0.0344 -0.0245,-0.006 -0.0596,-0.0136 -0.0834,-0.0203 -0.0416,-0.0121 -0.0712,-0.0416 -0.11062,-0.0589 -0.0195,-0.008 -0.0418,-0.009 -0.0605,-0.0186 -0.0366,-0.0173 -0.071,-0.0425 -0.10492,-0.0633 -0.0554,-0.0353 -0.1027,-0.0583 -0.14374,-0.1108 -0.0856,-0.1086 -0.13952,-0.22363 -0.13308,-0.36518 0.006,-0.12442 0.11081,-0.25087 0.19492,-0.32927 0.15958,-0.15038 0.40695,-0.27978 0.59597,-0.1202 -0.13233,-0.20338 -0.46014,-0.16951 -0.62395,-0.0114 -0.0705,0.0675 -0.16178,0.11283 -0.22234,0.19197 -0.0272,0.0359 -0.0409,0.0668 -0.071,0.10068 -0.0569,0.0611 -0.0591,0.13878 -0.0964,0.2113 -0.0129,0.026 -0.0366,0.0453 -0.0503,0.0712 -0.0136,0.026 -0.026,0.0804 -0.0309,0.10933 -0.009,0.048 -0.009,0.1351 0,0.18332 0.0186,0.10786 0.17964,0.22787 0.27756,0.25732 0.14669,0.044 0.29688,0.0972 0.44136,0.14669 0.12737,0.0438 0.28842,0.10639 0.42057,0.11283 0.164,0.008 0.33793,0.0151 0.48609,-0.0631 0.0619,-0.0331 0.12075,-0.0598 0.1848,-0.0913 0.0561,-0.0289 0.10141,-0.0685 0.15663,-0.0979 0.0913,-0.0495 0.13804,-0.0639 0.19915,-0.15092 0.044,-0.0618 0.0893,-0.12222 0.11448,-0.19547 0.0416,-0.12093 0.0696,-0.24241 0.0985,-0.36683 0.0171,-0.0725 0.051,-0.1316 0.0532,-0.20983 0.002,-0.0791 -7e-4,-0.15902 -7e-4,-0.23872 0,-0.0928 0.007,-0.17688 -0.0208,-0.2632 -0.023,-0.074 -0.0245,-0.15166 -0.0468,-0.22437 -0.0447,-0.14522 -0.11871,-0.27609 -0.2078,-0.39756 -0.0497,-0.0676 -0.10141,-0.1351 -0.16473,-0.1905 -0.0344,-0.0295 -0.0784,-0.046 -0.11209,-0.072 -0.0359,-0.0265 -0.0589,-0.0567 -0.10436,-0.0755 -0.0604,-0.0251 -0.1235,-0.048 -0.18534,-0.0725 -0.095,-0.0366 -0.18406,-0.0309 -0.28474,-0.0309 -0.0972,0 -0.19123,0.005 -0.2862,-0.0136 -0.13952,-0.0289 -0.28897,-0.0145 -0.43143,-0.0145 h -0.30774 c -0.10565,0 -0.20265,0.0224 -0.30756,0.0282 -0.14393,0.008 -0.27553,0.10142 -0.36811,0.20983 -0.0626,0.0727 -0.14964,0.11577 -0.21222,0.18774 -0.0539,0.0633 -0.12497,0.13657 -0.16675,0.20853 -0.0913,0.15885 -0.20854,0.31916 -0.32855,0.45647 -0.0734,0.0834 -0.1143,0.13657 -0.14448,0.24516 -0.0361,0.13087 -0.12884,0.24885 -0.15534,0.38468 -0.0109,0.0517 7e-4,0.10492 -0.009,0.15682 -0.0136,0.0762 -0.0503,0.14449 -0.0525,0.2229 -0.004,0.12 -0.008,0.2459 -0.0525,0.35946 -0.072,0.18553 -0.0935,0.36094 -0.0841,0.55862 0.009,0.17044 0.11779,0.33793 0.19473,0.48241 0.0576,0.10565 0.095,0.25014 0.17982,0.34014 0.0683,0.0725 0.15535,0.10989 0.24866,0.14302 0.22234,0.0791 0.46879,0.0799 0.67807,0.19565 0.0878,0.048 0.18111,0.0876 0.27387,0.12645 0.0396,0.0166 0.0749,0.0201 0.11504,0.0316 0.0611,0.0186 0.1108,0.0646 0.17264,0.0784 0.28179,0.0611 0.56874,0.0574 0.85697,0.0574 0.0834,0 0.17043,0.0101 0.25307,0.002 0.0525,-0.006 0.10068,-0.0245 0.15314,-0.0287 0.19639,-0.0188 0.39406,-0.0885 0.58235,-0.14099 0.14817,-0.0403 0.29118,-0.0898 0.43787,-0.1316 0.0497,-0.0144 0.0698,-0.0359 0.11209,-0.0626 0.0814,-0.0525 0.17044,-0.0928 0.25179,-0.14725 0.11632,-0.0769 0.19123,-0.1927 0.29909,-0.27608 0.0431,-0.0331 0.0468,-0.0296 0.0661,-0.0813 0.0272,-0.0725 0.0604,-0.12792 0.0985,-0.19547 0.0655,-0.11799 0.13012,-0.22732 0.20853,-0.33793 0.0784,-0.11007 0.13234,-0.22787 0.20486,-0.34014 0.09,-0.13952 0.10583,-0.30554 0.13804,-0.46806 0.0188,-0.0985 0.0482,-0.19474 0.0675,-0.29394 0.0252,-0.13032 0.0153,-0.26247 0.0153,-0.39407 0,-0.16253 0,-0.32505 0,-0.48757 0,-0.13363 -0.0188,-0.25879 -0.0274,-0.39039 -0.0208,-0.3083 -0.19049,-0.60537 -0.4005,-0.82531 -0.11927,-0.12443 -0.22216,-0.26744 -0.32633,-0.40475 -0.0871,-0.11577 -0.1813,-0.23651 -0.25455,-0.36094 -0.0653,-0.1108 -0.13804,-0.19767 -0.23357,-0.28179 -0.15184,-0.13233 -0.32872,-0.13804 -0.51407,-0.19639 -0.31216,-0.0977 -0.50045,-0.19197 -0.78666,-0.35725 -0.0812,-0.0468 -0.15736,-0.10216 -0.23798,-0.1467 -0.0482,-0.0267 -0.18976,-0.0655 -0.16602,-0.13878"
       style="fill:#21201d;fill-opacity:1;fill-rule:nonzero;stroke:none;stroke-width:0.184057"
       id="path318" />
    <path
       d="m 103.08634,131.06951 c 0.0396,0.0324 0.0438,0.14099 0.0554,0.18774 0.0193,0.0755 0.0359,0.381 0.0488,0.45573 0.0202,0.11651 0.006,0.4826 0.007,0.60113 0,0.051 0.0186,0.11725 -0.026,0.14173 -0.0272,0.0151 -0.10638,0.025 -0.13951,0.0265 -0.0539,0.003 -0.1121,0.003 -0.16602,0 -0.0267,0 -0.13528,-0.0158 -0.15111,-0.0294 -0.0344,-0.0309 0.0109,-0.0913 0.0138,-0.13878 0.002,-0.0503 -7.1e-4,-0.3407 -7.1e-4,-0.39186 0,-0.0488 -0.007,-0.10492 -7e-4,-0.15388 0.006,-0.0495 0.026,-0.0733 0.0287,-0.12497 0.001,-0.0504 -0.008,-0.32873 -10e-4,-0.37898 0.006,-0.0482 0.0245,-0.0733 0.0282,-0.12442 0.006,-0.0725 0.0143,-0.0755 0.0841,-0.0985 0.0453,-0.0158 0.0861,-0.0287 0.1373,-0.028"
       style="fill:#21201d;fill-opacity:1;fill-rule:nonzero;stroke:none;stroke-width:0.184057"
       id="path320" />
    <path
       d="m 103.16972,138.09464 c 0.0267,0.0519 0.0237,0.0784 0.0274,0.13951 0.002,0.0539 0.0208,0.1143 0.0337,0.1675 0.007,0.0309 0.0208,0.0512 0.0223,0.0841 0.001,0.0267 -0.007,0.0576 -0.002,0.0841 0.0107,0.0604 0.0453,0.42995 0.023,0.49548 -0.0346,0.10638 -0.20706,0.0618 -0.2978,0.0633 -0.0624,0.002 -0.10639,-0.026 -0.16602,-0.0289 -0.0525,-0.002 -0.095,0.002 -0.12516,-0.0539 -0.046,-0.0856 -0.003,-0.57002 0.0138,-0.65782 0.0121,-0.0618 0.0265,-0.1027 0.028,-0.16823 0.002,-0.0596 0.0237,-0.10786 0.0287,-0.16749 0.006,-0.0827 0.0136,-0.0705 0.0964,-0.0698 0.0552,0 0.11062,0 0.16528,0 0.11798,0 0.22786,0.009 0.20706,0.16749"
       style="fill:#21201d;fill-opacity:1;fill-rule:nonzero;stroke:none;stroke-width:0.184057"
       id="path322" />
    <g
       id="g330"
       transform="matrix(0.18405616,0,0,0.18405792,-45.232004,-61.498141)">
      <g
         clip-path="url(#clipPath56)"
         id="g328">
        <path
           d="m 828.344,1066.324 c -0.324,0 -1.852,0 -2.176,0 -0.328,0 -0.754,-0.219 -1.047,-0.164 -0.355,0.067 -0.23,0.445 -0.23,0.77 0,0.293 -0.039,0.625 0,0.918 0.035,0.289 0.14,0.441 0.148,0.754 0.008,0.5 0.207,0.433 0.606,0.3 0.226,-0.074 0.41,-0.168 0.628,-0.261 0.36,-0.157 1.856,-0.121 2.207,-0.211 0.024,-0.18 -0.109,-0.262 -0.179,-0.403 -0.078,-0.164 -0.098,-0.207 -0.106,-0.41 -0.019,-0.328 0,-0.664 0,-0.988"
           style="fill:#21201d;fill-opacity:1;fill-rule:nonzero;stroke:none"
           id="path326" />
      </g>
    </g>
    <g
       id="g340"
       transform="matrix(0.18405616,0,0,0.18405792,-45.232004,-61.498141)">
      <path
         d="m 791.574,1066.02 c -0.039,0.011 0.414,0.109 0.371,0.121 -0.175,0.507 0.235,1.875 -0.152,2.152 -0.094,0.07 -0.324,0 -0.445,0.016 -0.153,0.031 -0.293,0.117 -0.45,0.148 -0.289,0.055 -1.89,0.133 -2.191,0.148 -0.625,0.028 -0.824,-0.16 -1.437,-0.011 -0.122,0.031 -0.153,0.136 -0.282,0.168 -0.133,0.035 -0.324,-0.01 -0.457,-0.01 -0.148,0 -0.308,-0.02 -0.453,0 -0.117,0.016 -0.262,0.117 -0.336,0.125 -0.609,0.086 -0.051,-0.859 0.074,-1.145 0.114,-0.261 0.071,-0.507 0.145,-0.796 0.059,-0.211 0.09,-0.7 0.262,-0.774 0.269,-0.113 0.285,0.012 0.578,0.012 0.347,0 0.699,0.027 1.039,-0.031 0.765,-0.137 2.801,-0.274 3.734,-0.121"
         style="fill:#21201d;fill-opacity:1;fill-rule:nonzero;stroke:none"
         id="path332" />
      <path
         d="m 802.293,1048.68 c -0.012,0.047 -0.02,0.09 -0.027,0.136 -0.375,0.075 -0.754,0.188 -1.106,0.27 -0.336,0.078 -0.68,0.293 -1.004,0.367 -0.781,0.184 -1.445,0.457 -2.125,0.859 -0.738,0.442 -1.644,0.848 -2.402,1.235 -0.301,0.152 -0.559,0.375 -0.832,0.547 -0.348,0.215 -0.719,0.433 -1.067,0.664 -0.152,0.101 -0.394,0.238 -0.476,0.383 -0.094,0.152 -0.102,0.343 -0.207,0.507 -0.266,0.399 -0.504,0.747 -0.695,1.172 -0.188,0.422 -0.375,0.844 -0.61,1.258 -0.125,0.211 -0.168,0.488 -0.312,0.692 -0.051,0.07 -0.153,0.109 -0.203,0.183 -0.161,0.211 -0.27,0.445 -0.411,0.668 -0.308,0.496 -0.609,0.973 -0.875,1.488 -0.171,0.332 -0.406,0.696 -0.546,1.043 -0.141,0.364 -0.375,0.77 -0.489,1.137 -0.121,0.41 -0.129,0.801 -0.203,1.215 -0.051,0.266 -0.152,0.437 -0.148,0.723 0,0.218 -0.004,0.433 -0.004,0.648 0,0.32 -0.141,1.176 0.152,1.309 0.172,0.074 0.707,0 0.887,-0.012 0.285,-0.012 0.469,-0.125 0.742,-0.172 0.512,-0.094 0.461,0.145 0.961,-0.027 -0.355,-0.653 -0.477,-1.274 -0.477,-2.059 0,-0.391 -0.101,-0.93 -0.007,-1.312 0.031,-0.137 0.148,-0.168 0.175,-0.301 0.051,-0.215 0.067,-0.438 0.121,-0.656 0.083,-0.336 0.204,-0.622 0.196,-0.969 -0.004,-0.246 0.086,-0.344 0.125,-0.52 0.047,-0.195 0,-0.375 0.027,-0.574 0.164,-1.141 1.406,-2.133 2.047,-3.043 0.648,-0.926 1.504,-1.414 2.344,-2.141 0.609,-0.531 1.359,-1.066 2.082,-1.441 0.234,-0.117 0.461,-0.258 0.703,-0.375 0.117,-0.055 0.328,-0.117 0.426,-0.18 0.246,-0.156 0.386,-0.379 0.652,-0.507 0.168,-0.079 0.309,-0.098 0.484,-0.153 0.758,-0.238 1.649,-0.144 2.399,0.028 0.121,-0.266 -0.059,-0.325 -0.098,-0.508 -0.035,-0.153 -0.004,-0.297 -0.031,-0.45 -0.063,-0.421 -0.34,-0.671 -0.168,-1.132"
         style="fill:#21201d;fill-opacity:1;fill-rule:nonzero;stroke:none"
         id="path334" />
      <path
         d="m 790.082,1069.586 c -0.18,0.164 -0.144,0.301 -0.164,0.516 -0.02,0.207 -0.082,0.324 -0.129,0.519 -0.109,0.426 -0.035,0.922 -0.039,1.367 0,0.59 0.059,0.813 0.293,1.34 0.207,0.484 0.434,0.895 0.699,1.344 0.727,1.207 0.879,2.742 1.727,3.883 0.734,0.976 1.523,1.898 2.347,2.789 1.094,1.179 2.622,1.199 3.903,1.961 0.59,0.351 1.093,0.742 1.734,0.972 0.485,0.176 1.047,0.188 1.5,0.383 0.285,0.117 0.684,0.438 0.926,0.641 -0.172,0.445 -0.328,0.918 -0.434,1.344 -0.082,0.347 0.039,0.289 -0.324,0.351 -0.273,0.047 -0.445,-0.055 -0.664,-0.18 -0.32,-0.175 -0.637,-0.25 -0.984,-0.382 -0.512,-0.204 -0.953,-0.395 -1.489,-0.567 -0.488,-0.156 -1.035,-0.168 -1.484,-0.379 -0.488,-0.23 -1.004,-0.488 -1.441,-0.781 -0.797,-0.527 -1.473,-1.152 -2.254,-1.68 -0.317,-0.215 -0.645,-0.453 -0.922,-0.726 -0.332,-0.332 -0.684,-0.582 -0.988,-0.953 -0.333,-0.41 -0.688,-0.786 -1.032,-1.211 -0.289,-0.36 -0.586,-0.762 -0.906,-1.117 -0.641,-0.7 -1.035,-1.735 -1.211,-2.645 -0.058,-0.316 -0.238,-0.484 -0.32,-0.75 -0.067,-0.223 -0.059,-0.477 -0.156,-0.703 -0.235,-0.524 -0.032,-1 -0.157,-1.555 -0.023,-0.09 -0.125,-0.14 -0.14,-0.199 -0.035,-0.18 -0.012,-0.305 -0.032,-0.484 -0.031,-0.278 -0.136,-0.407 -0.171,-0.684 -0.071,-0.535 0.019,-1.078 0.164,-1.539 0.164,-0.531 0,-1.238 0.593,-1.379 0.239,-0.055 0.563,-0.027 0.809,-0.016 0.289,0.016 0.637,0.235 0.746,0.52"
         style="fill:#21201d;fill-opacity:1;fill-rule:nonzero;stroke:none"
         id="path336" />
      <path
         d="m 807.789,1085.676 c 0.426,-0.059 0.824,0.402 1.254,0.34 0.613,-0.09 1.242,-0.266 1.828,-0.489 0.238,-0.093 0.453,-0.215 0.711,-0.257 0.301,-0.043 0.606,0.035 0.898,0 0.598,-0.075 1.196,-0.196 1.778,-0.317 0.785,-0.164 1.406,-0.355 2.094,-0.793 0.355,-0.226 0.781,-0.32 1.101,-0.574 0.387,-0.301 1.613,-1.281 1.977,-1.606 0.34,-0.304 0.539,-0.523 0.773,-0.894 0.031,-0.055 0.012,-0.145 0.051,-0.195 0.055,-0.075 0.152,-0.149 0.207,-0.219 0.141,-0.184 0.473,-0.41 0.582,-0.629 0.363,-0.711 1.133,-1.297 1.621,-1.941 0.383,-0.516 0.504,-0.969 0.844,-1.5 0.187,-0.301 0.387,-0.524 0.691,-0.723 0.332,-0.223 0.196,-0.469 0.375,-0.836 0.125,-0.262 0.156,-0.43 0.352,-0.684 0.152,-0.203 0.25,-0.379 0.344,-0.609 0.085,-0.199 0.164,-0.41 0.222,-0.617 0.059,-0.231 0.203,-0.461 0.25,-0.664 0.086,-0.387 -0.117,-0.848 -0.015,-1.231 0.027,-0.101 0.113,-0.109 0.132,-0.179 0.036,-0.114 0,-0.239 0.032,-0.348 0.047,-0.152 0.199,-0.313 0.16,-0.481 0.172,0.27 0.129,0.438 0.164,0.715 0.031,0.246 0.137,0.36 0.172,0.602 0.027,0.195 -0.063,0.426 -0.016,0.617 0.039,0.141 0.145,0.152 0.176,0.289 0.039,0.133 -0.004,0.324 -0.004,0.465 -0.004,0.48 0.027,0.914 -0.121,1.363 -0.164,0.485 -0.402,0.973 -0.645,1.403 -0.218,0.398 -0.457,0.785 -0.683,1.175 -0.27,0.45 -0.621,0.899 -0.856,1.336 -0.39,0.739 -0.777,1.571 -1.265,2.254 -0.285,0.406 -0.719,0.699 -1.114,1.004 -0.425,0.336 -0.761,0.774 -1.101,1.195 -0.602,0.75 -1.25,1.559 -2.055,2.122 -0.387,0.261 -0.703,0.621 -1.09,0.871 -0.465,0.3 -0.937,0.429 -1.422,0.683 -0.507,0.266 -0.996,0.348 -1.546,0.488 -0.305,0.079 -0.575,0.274 -0.872,0.356 -0.316,0.086 -0.57,0.113 -0.886,0.215 -0.692,0.215 -1.461,0.488 -2.196,0.582 -0.589,0.07 -1.25,0 -1.847,-0.01 -0.125,0 -0.301,-0.035 -0.414,-0.01 -0.137,0.031 -0.172,0.164 -0.309,0.172 -0.144,0.012 -0.648,-0.191 -0.742,-0.312 -0.141,-0.176 -0.094,-0.539 -0.078,-0.766 0.023,-0.328 0.23,-0.469 0.488,-1.367"
         style="fill:#21201d;fill-opacity:1;fill-rule:nonzero;stroke:none"
         id="path338" />
    </g>
  </g>
</svg>
