<?xml version="1.0" encoding="UTF-8" standalone="no"?>
<!-- Created with Inkscape (http://www.inkscape.org/) -->

<svg
   width="7.7158098mm"
   height="7.8841028mm"
   viewBox="0 0 7.7158098 7.8841028"
   version="1.1"
   id="svg2350"
   inkscape:version="1.1.2 (0a00cf5339, 2022-02-04)"
   sodipodi:docname="m9.svg"
   xmlns:inkscape="http://www.inkscape.org/namespaces/inkscape"
   xmlns:sodipodi="http://sodipodi.sourceforge.net/DTD/sodipodi-0.dtd"
   xmlns="http://www.w3.org/2000/svg"
   xmlns:svg="http://www.w3.org/2000/svg">
  <sodipodi:namedview
     id="namedview2352"
     pagecolor="#ffffff"
     bordercolor="#666666"
     borderopacity="1.0"
     inkscape:pageshadow="2"
     inkscape:pageopacity="0.0"
     inkscape:pagecheckerboard="0"
     inkscape:document-units="mm"
     showgrid="false"
     inkscape:zoom="0.64052329"
     inkscape:cx="-471.48949"
     inkscape:cy="818.86172"
     inkscape:window-width="2560"
     inkscape:window-height="1376"
     inkscape:window-x="0"
     inkscape:window-y="0"
     inkscape:window-maximized="1"
     inkscape:current-layer="layer1" />
  <defs
     id="defs2347" />
  <g
     inkscape:label="Layer 1"
     inkscape:groupmode="layer"
     id="layer1"
     transform="translate(-229.52865,67.968502)">
    <path
       d="m 234.25301,-60.204537 0.004,-0.01657 c 0.009,-7.41e-4 0.018,-0.0035 0.0265,-0.0079 0.0447,-0.0057 0.0554,-0.01141 -0.0302,0.02448"
       style="fill:#21201d;fill-opacity:1;fill-rule:nonzero;stroke:none;stroke-width:0.184057"
       id="path452" />
    <path
       d="m 235.90675,-62.633181 c -0.0388,0.07546 -0.0791,0.157369 -0.12442,0.229336 -0.0331,0.05172 -0.051,0.09129 -0.0668,0.150191 -0.0166,0.06037 -0.0561,0.116509 -0.0828,0.174119 -0.0215,0.04804 -0.0438,0.109883 -0.0755,0.150927 -0.0208,0.02595 -0.0351,0.02448 -0.0488,0.05614 -0.008,0.01712 -0.007,0.03442 -0.0173,0.05393 -0.023,0.04602 -0.0611,0.08688 -0.0928,0.129393 -0.0208,0.0265 -0.0287,0.05669 -0.0468,0.08412 -0.0201,0.02945 -0.0517,0.0554 -0.074,0.08264 -0.0482,0.0589 -0.0769,0.122951 -0.11724,0.189028 -0.0502,0.08356 -0.11725,0.148166 -0.17393,0.225103 -0.12295,0.164732 -0.25382,0.325046 -0.3775,0.491803 -0.0762,0.100679 -0.15885,0.19915 -0.23872,0.295413 -0.0215,0.02595 -0.0525,0.07344 -0.0871,0.09203 -0.0186,0.0022 -0.0438,0.0044 -0.0703,0.0037 -0.0618,-0.0022 -0.0569,0.01067 -0.0979,0.05669 -0.0589,0.06626 -0.13804,0.06258 -0.0933,-0.03589 0.0302,-0.06755 0.0559,-0.122951 0.0661,-0.19547 0.0101,-0.06902 0.0144,-0.151111 0.0482,-0.212218 0.0473,-0.08688 0.14154,-0.143749 0.19915,-0.224183 0.0243,-0.03313 0.0381,-0.07418 0.0668,-0.104361 0.0287,-0.02945 0.0359,-0.0265 0.0619,-0.06976 0.0193,-0.03166 0.0351,-0.07049 0.0582,-0.09847 0.0324,-0.04031 0.0648,-0.05669 0.0928,-0.10344 0.0411,-0.06902 0.0871,-0.159763 0.13878,-0.220134 0.0747,-0.08761 0.11798,-0.208537 0.17835,-0.29983 0.0532,-0.08043 0.0948,-0.17099 0.15093,-0.253632 0.0512,-0.07491 0.0885,-0.148903 0.11724,-0.23449 0.0265,-0.07914 0.0891,-0.145958 0.13234,-0.217188 0.0388,-0.06608 0.0898,-0.157369 0.0755,-0.237987 -0.0109,-0.05743 -0.0525,-0.06111 -0.0893,-0.09774 -0.0344,-0.03515 -0.0668,-0.07049 -0.10344,-0.10344 -0.0331,-0.03019 -0.0504,-0.06976 -0.0812,-0.102888 -0.0339,-0.03589 -0.0734,-0.06608 -0.10657,-0.09921 -0.0532,-0.05467 -0.0891,-0.129393 -0.14596,-0.184058 -0.0366,-0.0346 -0.046,-0.06829 -0.0718,-0.109331 -0.0144,-0.02301 -0.0316,-0.0416 -0.0453,-0.07049 -0.0203,-0.04013 -0.0468,-0.07178 -0.0633,-0.113564 -0.0173,-0.0416 -0.0295,-0.08761 -0.0561,-0.124975 -0.11356,-0.159762 -0.24719,-0.304248 -0.3867,-0.440083 -0.0648,-0.06332 -0.12664,-0.149639 -0.17983,-0.222158 -0.0495,-0.06681 -0.10141,-0.16602 -0.16675,-0.217924 -0.0374,-0.02945 -0.0784,-0.03295 -0.11209,-0.06976 -0.0224,-0.02577 -0.0376,-0.05816 -0.0663,-0.07896 -0.018,-0.0138 -0.0626,-0.01509 -0.074,-0.02816 -0.0131,-0.01583 -0.003,-0.0589 -0.007,-0.07896 -0.0281,-0.10933 -0.0166,-0.233754 -0.0166,-0.34879 v -0.227863 c 0,-0.03092 0.001,-0.06184 7.1e-4,-0.09277 -0.002,-0.03313 -0.0144,-0.03884 -0.0195,-0.06552 -0.0237,-0.115589 -0.002,-0.25805 -0.002,-0.376583 v -0.186267 c 0,-0.07841 0.0201,-0.150927 0.0215,-0.227127 7.1e-4,-0.03092 -0.002,-0.06111 -7e-4,-0.09148 10e-4,-0.03221 0.0144,-0.03884 0.0193,-0.06387 0.009,-0.05172 -0.0107,-0.111539 0,-0.163995 0.006,-0.02651 0.0188,-0.04105 0.0223,-0.0705 0.003,-0.02724 -0.001,-0.05172 0.004,-0.07822 0.005,-0.02172 0.0166,-0.03608 0.0158,-0.06626 -7.1e-4,-0.03368 0,-0.06828 0,-0.102152 0,-0.110619 0.0129,-0.218477 0.0193,-0.328544 0.009,-0.140804 0.0525,-0.286026 0.0411,-0.428487 0.0272,0.02153 0.0532,0.08485 0.0683,0.115773 0.0302,0.05964 0.046,0.126632 0.072,0.187739 0.0114,0.02724 0.0344,0.04804 0.0473,0.07252 0.018,0.03736 0.0217,0.07988 0.0353,0.118717 0.009,0.02503 0.0173,0.04951 0.0252,0.07546 0.0193,0.05964 0.0453,0.07546 0.0827,0.125711 0.0502,0.06773 0.0475,0.159763 0.10712,0.22087 0.0408,0.04233 0.0876,0.06976 0.12073,0.122215 0.0504,0.07841 0.0604,0.171725 0.0604,0.26173 7e-4,0.155897 0.021,0.296885 0.021,0.45223 v 0.75703 c 0,0.05246 -0.007,0.109331 -0.001,0.162524 0.004,0.0416 0.0208,0.07896 0.023,0.122214 0.004,0.08338 -0.0165,0.166757 0.0186,0.245165 0.0123,0.02577 0.0274,0.05172 0.0396,0.07767 0.0201,0.03957 0.0346,0.07694 0.0589,0.1143 0.0388,0.06037 0.0648,0.12516 0.10859,0.181114 0.0188,0.02301 0.0252,0.05687 0.0453,0.07767 0.0302,0.03166 0.0576,0.0346 0.0742,0.08264 0.005,0.01307 10e-4,0.0289 0.008,0.04105 0.003,0.0057 0.0265,0.01583 0.0329,0.02374 0.021,0.02871 0.0245,0.06829 0.0396,0.09994 0.0215,0.04749 0.0705,0.07326 0.10142,0.117244 0.0712,0.104913 0.16896,0.193261 0.23375,0.299094 0.0401,0.06461 0.0963,0.112828 0.14448,0.168966 0.0396,0.04657 0.0928,0.09773 0.12424,0.150191 0.0611,0.102704 0.17191,0.179088 0.24516,0.276087 0.0764,0.101416 0.28768,0.20412 0.21296,0.353023"
       style="fill:#21201d;fill-opacity:1;fill-rule:nonzero;stroke:none;stroke-width:0.184057"
       id="path454" />
    <path
       d="m 233.40892,-67.741525 c 0,0.03387 0,0.06829 0,0.102889 0,0.03939 0.004,0.08043 -0.005,0.119269 -0.003,0.01362 -0.0136,0.02522 -0.0158,0.04528 -0.003,0.02006 0.003,0.04178 7.1e-4,0.06258 -0.006,0.04031 -0.0215,0.05743 -0.0208,0.102889 0,0.04657 0.003,0.09405 -0.005,0.140068 -0.0158,0.09056 -0.0107,0.176143 -0.0144,0.267436 -0.003,0.06773 -0.0309,0.132338 -0.0388,0.19915 -0.006,0.0497 -0.005,0.10068 -0.004,0.14964 0.002,0.112091 -0.0396,0.215715 -0.0418,0.32707 -0.002,0.10068 -0.004,0.195654 -0.0151,0.296334 -0.008,0.07473 0.002,0.147982 -0.003,0.222158 -0.004,0.05816 -0.0302,0.112091 -0.0396,0.168965 -0.008,0.05393 -0.004,0.107858 -0.004,0.161787 0.001,0.139331 -7e-4,0.278848 0,0.418364 0.001,0.09994 -0.0193,0.182585 -0.0992,0.248846 -0.0215,0.01859 -0.0431,0.04086 -0.0639,0.05963 -0.0346,0.03166 -0.0606,0.08191 -0.10289,0.09921 -0.0359,0.01509 -0.0294,0.0028 -0.0668,0.03368 -0.0331,0.0289 -0.0655,0.05982 -0.10142,0.08632 -0.0272,0.02025 -0.0431,0.03534 -0.0633,0.06332 -0.0503,0.06902 -0.0712,0.13878 -0.14375,0.185531 -0.0683,0.04307 -0.11282,0.107121 -0.18184,0.150191 -0.1432,0.08982 -0.25824,0.240932 -0.35229,0.379711 -0.0203,0.02945 -0.041,0.06037 -0.0591,0.09332 -0.0237,0.04252 -0.0316,0.102888 -0.0631,0.139516 -0.0316,0.03736 -0.0561,0.05466 -0.0814,0.102888 -0.0316,0.06111 -0.0683,0.10344 -0.10215,0.158842 -0.028,0.04822 -0.0545,0.101416 -0.0797,0.145958 0.0252,0.01362 0.0223,0.08264 0.0324,0.110067 0.008,0.0208 0.0201,0.03884 0.0258,0.0589 0.0166,0.05687 0.0346,0.118717 0.0569,0.171174 0.0193,0.04601 0.0561,0.08191 0.0769,0.12792 0.0324,0.06755 0.0344,0.160315 0.0559,0.233018 0.006,0.02153 0.0158,0.03736 0.0289,0.05393 0.004,0.0064 0.0223,0.01068 0.0245,0.01638 0.0114,0.02374 0.004,0.04031 0.0186,0.06332 0.0201,0.03313 0.0517,0.06258 0.0727,0.09645 0.0193,0.03018 0.0243,0.06313 0.0359,0.09405 0.008,0.02025 0.018,0.03313 0.026,0.05393 0.0257,0.05908 0.0114,0.118717 0.0473,0.17191 0.0145,0.0208 0.0376,0.03166 0.0468,0.05687 0.004,0.01068 0,0.04012 0.008,0.05393 0.008,0.01288 0.026,0.02301 0.0346,0.03589 0.0237,0.03442 0.0352,0.07914 0.0589,0.115772 0.046,0.0705 0.0935,0.133626 0.13804,0.20136 0.0425,0.06387 0.0856,0.13289 0.11504,0.204856 0.008,0.0208 0.006,0.04031 0.0195,0.06258 0.0129,0.02153 0.0287,0.03939 0.0423,0.06111 0.0316,0.05172 0.0396,0.115036 0.0648,0.17099 0.0186,0.04031 0.0438,0.067 0.0596,0.107122 0.0107,0.02669 0.0252,0.07491 0.0438,0.09497 0.026,0.02798 0.0561,0.02945 0.0791,0.06405 0.0158,0.02374 0.0215,0.04675 0.0403,0.06828 0.0329,0.03884 0.0559,0.06902 0.0624,0.123687 0.004,0.04086 0.009,0.111355 -0.004,0.150928 -0.006,7.4e-4 -0.0116,0.0015 -0.0173,0.0029 0.12019,0.04804 -0.006,0.06755 -0.0265,0.09994 -0.0821,-0.0324 -0.14467,-0.08283 -0.19989,-0.156081 -0.0374,-0.05043 -0.0856,-0.08062 -0.12295,-0.12792 -0.0331,-0.04031 -0.0539,-0.08559 -0.0979,-0.115773 -0.0287,-0.01951 -0.0639,-0.03019 -0.0933,-0.04969 -0.0346,-0.02227 -0.0626,-0.04528 -0.0979,-0.06184 -0.0272,-0.01288 -0.0381,-0.0173 -0.0617,-0.04086 -0.0519,-0.05117 -0.0828,-0.119453 -0.12295,-0.180561 -0.0526,-0.07841 -0.0727,-0.16602 -0.11301,-0.250871 -0.046,-0.09571 -0.0841,-0.197678 -0.13362,-0.291179 -0.0302,-0.05761 -0.0734,-0.106386 -0.10362,-0.164732 -0.0223,-0.04086 -0.0532,-0.06332 -0.079,-0.10068 -0.0339,-0.04951 -0.0353,-0.1143 -0.0655,-0.167492 -0.018,-0.0324 -0.0294,-0.05172 -0.041,-0.08559 -0.0258,-0.07326 -0.0589,-0.158842 -0.10786,-0.222158 -0.074,-0.09553 -0.12074,-0.201912 -0.15516,-0.319157 -0.0512,-0.171173 -0.12589,-0.336457 -0.17412,-0.504687 -0.0107,-0.03534 -0.0359,-0.102888 -0.0114,-0.139515 0.0144,-0.02227 0.0381,-0.01362 0.0532,-0.02871 0.006,-0.0064 0.003,-0.02595 0.009,-0.0324 0.12,-0.14246 0.25234,-0.285473 0.36167,-0.437137 0.0423,-0.05964 0.0985,-0.105649 0.14375,-0.164732 0.0359,-0.04601 0.0604,-0.09332 0.092,-0.140804 0.0107,-0.01583 0.0302,-0.02448 0.0416,-0.04454 0.0101,-0.01583 0.0267,-0.04325 0.0316,-0.06111 0.007,-0.02245 -0.001,-0.04031 0.003,-0.06129 0.007,-0.03663 0.0223,-0.05743 0.0423,-0.08908 0.0289,-0.04454 0.0361,-0.0797 0.0561,-0.122951 0.0237,-0.05172 0.0734,-0.107858 0.10362,-0.160314 0.0582,-0.09994 0.13363,-0.200623 0.21056,-0.287498 0.0359,-0.04031 0.0648,-0.0878 0.10363,-0.125896 0.0201,-0.01877 0.048,-0.03313 0.0668,-0.05319 0.0339,-0.03589 0.0547,-0.08135 0.0574,-0.130129 7.1e-4,-0.03387 0,-0.06829 -7e-4,-0.102152 -7.1e-4,-0.04749 0.0157,-0.0797 0.0208,-0.123687 0.008,-0.06902 0.0129,-0.180377 -0.005,-0.247926 -0.0381,-0.139516 -0.005,-0.285474 0.021,-0.427198 0.0237,-0.132154 0.005,-0.282529 0.004,-0.416155 0,-0.03092 -0.007,-0.07049 -7.1e-4,-0.09994 0.004,-0.02098 0.0158,-0.03608 0.0195,-0.05466 0.006,-0.03663 -7.1e-4,-0.07344 0.006,-0.10933 0.0101,-0.0042 0.0158,-0.01215 0.0173,-0.02374 -7.1e-4,-0.01509 -0.001,-0.02871 -0.002,-0.04381 0.005,-0.01878 0.0173,-0.02227 0.0265,-0.03884 0.0195,-0.03387 0.0309,-0.06479 0.0569,-0.0935 0.051,-0.0589 0.0806,-0.127184 0.1294,-0.191236 0.0475,-0.06258 0.0985,-0.115036 0.15387,-0.169702 0.051,-0.04877 0.0755,-0.116508 0.10712,-0.178904 0.0769,-0.151111 0.17982,-0.284737 0.25307,-0.439346 0.0245,-0.05117 0.0453,-0.139516 0.0826,-0.182033 0.0346,-0.03865 0.0576,-0.02798 0.0519,0.02172 -0.007,0.06387 -0.0376,0.117797 -0.0368,0.181849"
       style="fill:#21201d;fill-opacity:1;fill-rule:nonzero;stroke:none;stroke-width:0.184057"
       id="path456" />
    <path
       d="m 233.53261,-63.419108 c 0.044,0.100679 0.0596,0.206328 0.10786,0.304984 0.018,0.03663 0.0245,0.07473 0.0403,0.109146 0.0109,0.02374 0.0316,0.04031 0.0423,0.06479 0.0237,0.05246 0.0225,0.112828 0.0554,0.161787 0.0202,0.03018 0.0445,0.04601 0.0626,0.08043 0.0252,0.04749 0.0482,0.09497 0.0777,0.141725 0.0324,0.05025 0.0799,0.09056 0.0876,0.14743 0.009,0.06387 -0.0445,0.128657 -0.0675,0.185347 -0.0322,0.08135 -0.0495,0.166204 -0.0827,0.246638 -0.0374,0.09129 -0.0582,0.197125 -0.10141,0.289155 -0.0151,0.03147 -0.0322,0.04528 -0.0431,0.08117 -0.0121,0.04307 -0.0195,0.08411 -0.0351,0.126632 -0.013,0.03221 -0.0123,0.09405 -0.0418,0.1143 0,-0.0086 7.1e-4,-0.0173 7.1e-4,-0.02595 -0.0188,0.03589 -0.0482,0.09424 -0.0777,0.15737 -0.0316,0.06773 -0.0547,0.146694 -0.1338,0.067 -0.0287,-0.02945 -0.0374,-0.05466 -0.0604,-0.08853 -0.0208,-0.03018 -0.0503,-0.03442 -0.074,-0.05964 -0.018,-0.01933 -0.0272,-0.05743 -0.0445,-0.07988 -0.041,-0.04951 -0.0885,-0.06313 -0.12019,-0.122214 -0.0388,-0.07252 -0.0762,-0.127184 -0.12865,-0.189028 -0.0388,-0.04675 -0.0374,-0.09553 -0.0582,-0.150191 -0.023,-0.05908 -0.069,-0.09276 -0.10215,-0.144669 -0.0403,-0.06313 -0.0633,-0.138044 -0.10216,-0.201912 -0.0257,-0.04325 -0.0596,-0.05466 -0.0668,-0.101416 -0.005,-0.0381 0.002,-0.06976 0.0158,-0.104177 0.0331,-0.08283 0.0698,-0.164732 0.10289,-0.245901 0.0351,-0.0878 0.0819,-0.163996 0.12369,-0.247374 0.0374,-0.0762 0.0747,-0.150191 0.11356,-0.222158 0.0257,-0.04749 0.0631,-0.08632 0.0913,-0.132337 0.0769,-0.127921 0.18829,-0.234306 0.25455,-0.36738 0.0121,-0.02374 0.0243,-0.08338 0.0604,-0.08411 0.0208,0 0.0582,0.06479 0.0633,0.08411 0.006,0.02448 -0.001,0.05393 0.004,0.07841 0.001,0.0072 0.0144,0.01362 0.0173,0.02448 0.004,0.02006 -0.007,0.04381 -0.002,0.06387 0.004,0.01657 0.0151,0.02374 0.0215,0.0381"
       style="fill:#21201d;fill-opacity:1;fill-rule:nonzero;stroke:none;stroke-width:0.184057"
       id="path458" />
    <path
       d="m 232.23281,-66.198567 c -0.0109,-0.01509 -0.0777,-0.02595 -0.0935,-0.02871 -0.0554,-0.01086 -0.11209,-0.02374 -0.16749,-0.02301 -0.0619,5.64e-4 -0.12295,5.64e-4 -0.18332,0 -0.0346,0 -0.0698,-7.41e-4 -0.10215,0.0099 -0.028,0.0094 -0.046,0.03608 -0.0784,0.04454 -0.0747,0.02025 -0.1559,0.01086 -0.23284,0.02025 -0.0512,0.0057 -0.10215,0.01509 -0.15313,0.02503 -0.0302,0.0059 -0.0561,0.0079 -0.0836,0.02319 -0.0257,0.01436 -0.0517,0.02945 -0.0782,0.04086 -0.0554,0.02374 -0.13455,0.02871 -0.19492,0.0324 -0.0705,0.0029 -0.14301,0.0022 -0.21277,-0.0057 -0.0403,-0.0044 -0.0814,-0.0044 -0.12074,-0.01509 -0.0388,-0.01013 -0.0749,-0.02301 -0.11375,-0.02963 -0.0611,-0.0092 -0.12571,-0.0208 -0.18681,-0.02282 -0.0747,-0.0022 -0.14891,5.64e-4 -0.22289,0 -0.0561,0 -0.11007,0.01436 -0.16547,0.02227 -0.0653,0.0092 -0.13086,0.01288 -0.19768,0.01933 -0.023,0.0029 -0.0992,0.02724 -0.1165,-7.41e-4 0.0346,0.0029 0.069,-7.41e-4 0.10435,0.0029 0.0935,0.0079 0.19547,0.03092 0.27885,0.07473 0.0618,0.0324 0.11798,0.0705 0.18479,0.0935 0.0302,0.01012 0.0611,0.02153 0.0928,0.02448 0.0374,0.005 0.0762,7.41e-4 0.11357,7.41e-4 0.0849,-7.41e-4 0.15534,0.0099 0.23669,0.02797 0.0582,0.01288 0.1121,0.03368 0.17026,0.04601 0.0561,0.01215 0.10785,0.03884 0.1662,0.04749 0.056,0.0094 0.1316,0.0094 0.18755,0 0.0339,-0.0044 0.067,-0.01878 0.0992,-0.0289 0.0482,-0.01362 0.0964,-0.02503 0.14448,-0.03865 0.10436,-0.0324 0.21498,-0.03387 0.32357,-0.03313 0.11301,0 0.23302,-0.0173 0.33867,0.02797 0.0346,0.01435 0.0683,0.03313 0.10491,0.04528 0.0252,0.0079 0.0519,0.0094 0.0769,0.01657 0.0289,0.0079 0.0576,0.02871 0.069,-0.0094 0.0138,-0.0473 0.002,-0.111355 0.002,-0.159578 v -0.142277 c 0,-0.02227 -0.008,-0.06626 0.001,-0.08632 0.003,-7.41e-4 0.006,-7.41e-4 0.009,-0.02153"
       style="fill:#21201d;fill-opacity:1;fill-rule:nonzero;stroke:none;stroke-width:0.184057"
       id="path460" />
    <path
       d="m 234.62186,-66.198567 c -7.1e-4,0.06976 0.0267,0.134362 0.0353,0.20412 0.006,0.0497 0.006,0.09774 0.006,0.146694 0,0.03092 -0.008,0.07123 0,0.10068 0.003,0.01436 -0.004,0.01436 0.009,0.02227 0.005,0.0037 0.0309,0 0.0351,0 0.026,0 0.0431,-0.0037 0.0683,-0.0079 0.0245,-0.0057 0.0482,-7.4e-4 0.0727,-0.005 0.0257,-0.0044 0.0517,-0.01307 0.0782,-0.01657 0.0383,-0.0044 0.0777,7.41e-4 0.11577,-0.0044 0.0641,-0.0085 0.12737,-0.0028 0.19124,-0.0085 0.0403,-0.0029 0.0791,-0.01528 0.11945,-0.02025 0.0423,-0.005 0.0856,-0.01068 0.12865,-0.01785 0.0769,-0.01233 0.15387,-0.02319 0.23228,-0.02319 0.14596,0 0.28823,0.05393 0.43346,0.05117 0.0641,-0.0015 0.12589,0.0173 0.1892,0.02577 0.0747,0.01086 0.15167,0.02669 0.22786,0.02595 0.2264,-0.0029 0.45297,0 0.68009,0 -0.11706,-0.0015 -0.21497,-0.05466 -0.31621,-0.107858 -0.0561,-0.02945 -0.11448,-0.04951 -0.16546,-0.08761 -0.049,-0.03607 -0.10289,-0.05614 -0.15387,-0.08779 -0.0517,-0.03313 -0.11007,-0.05098 -0.1697,-0.06681 -0.0646,-0.01657 -0.12571,-0.03663 -0.18756,-0.06111 -0.11724,-0.04749 -0.23522,-0.09056 -0.35817,-0.116509 -0.0495,-0.01013 -0.0985,-0.0079 -0.14872,-0.0079 -0.0769,0 -0.1546,-0.0037 -0.2308,0.0086 -0.0596,0.0094 -0.12442,0.0022 -0.18406,0.0022 -0.0747,0 -0.14964,5.65e-4 -0.22436,0 -0.0856,-7.41e-4 -0.15958,0.02301 -0.24148,0.03865 -0.0735,0.01454 -0.15756,0.0022 -0.24241,0.01307"
       style="fill:#21201d;fill-opacity:1;fill-rule:nonzero;stroke:none;stroke-width:0.184057"
       id="path462" />
    <path
       d="m 232.16084,-65.406382 v 0.246638 c 0,0.04325 0,0.08706 0,0.130129 0,0.02522 7.1e-4,0.05117 -0.0121,0.07418 -0.0144,0.02448 -0.0445,0.04086 -0.0663,0.0589 -0.0344,0.02945 -0.0804,0.04307 -0.11706,0.06902 -0.0252,0.0173 -0.0532,0.03589 -0.0762,0.05467 -0.0302,0.02448 -0.0539,0.05743 -0.0836,0.08264 -0.0236,0.0208 -0.0589,0.04896 -0.0869,0.06111 -0.0215,0.0086 -0.0453,0.0057 -0.0683,0.0057 -0.0512,-7.41e-4 -0.10215,0 -0.15314,0 -0.1281,0 -0.25675,-0.0013 -0.38541,0 -0.0532,0 -0.0913,-0.01215 -0.14025,-0.02871 -0.0416,-0.01436 -0.0869,-0.02595 -0.12369,-0.04878 -0.046,-0.02742 -0.0861,-0.02963 -0.13878,-0.03828 -0.0322,-0.0057 -0.0639,-0.01509 -0.097,-0.01712 -0.0539,-0.0044 -0.10639,-0.0037 -0.16031,-0.01159 -0.0812,-0.01141 -0.16253,-0.02503 -0.2437,-0.0381 -0.0361,-0.0057 -0.0697,-0.0208 -0.10564,-0.02651 -0.0381,-0.0064 -0.069,-0.0094 -0.10363,-0.02522 -0.0547,-0.02522 -0.11356,-0.04105 -0.17044,-0.0589 -0.0423,-0.01436 -0.10859,-0.03019 -0.12717,-0.07565 0.0547,-0.01362 0.12644,-0.002 0.18258,-0.002 h 0.21571 c 0.16252,0 0.32504,0 0.48738,0 0.11007,0 0.22216,-0.0044 0.32725,-0.04104 0.0618,-0.0208 0.12498,-0.03092 0.18609,-0.05172 0.0532,-0.01804 0.10859,-0.03166 0.16252,-0.04675 0.0547,-0.01509 0.11577,-0.01877 0.17264,-0.02798 0.0646,-0.01086 0.13013,-0.0079 0.19547,-0.0079 0.0366,7.41e-4 0.0655,0.0042 0.0979,-0.01233 0.0315,-0.01657 0.0589,-0.04086 0.092,-0.05393 0.0387,-0.01509 0.0747,-0.03589 0.1143,-0.04951 0.0351,-0.01233 0.0703,-0.02098 0.10565,-0.0324 0.009,-0.0029 0.0193,-0.0022 0.028,-0.0057 0.0144,-0.0052 0.0195,-0.01436 0.0374,-0.01878 0.0223,-0.005 0.0331,-0.0042 0.0554,-0.01215 0.0136,-0.0052 0.0245,-0.0138 -7e-4,-0.0519"
       style="fill:#21201d;fill-opacity:1;fill-rule:nonzero;stroke:none;stroke-width:0.184057"
       id="path464" />
    <path
       d="m 234.73487,-65.230791 c 0.005,0.0381 0.0136,0.07178 0.0107,0.112092 -0.004,0.05466 -0.0136,0.111355 -0.0237,0.16602 -0.004,0.02098 -0.0121,0.04252 -0.0158,0.06332 -0.004,0.02301 -7.1e-4,0.04528 -0.004,0.06755 -0.005,0.03092 -0.0109,0.05761 0.0144,0.08209 0.0136,0.01215 0.023,0.01141 0.0403,0.01565 0.0351,0.0066 0.0698,0.01804 0.10417,0.02595 0.0396,0.0094 0.0777,0.01012 0.11725,0.01233 0.0265,0.002 0.0502,0.0099 0.0784,0.01067 0.0913,0.0015 0.18333,-7.41e-4 0.27535,0 0.0309,0 0.0589,-0.0042 0.0891,-0.0079 0.046,-0.0057 0.0928,-0.0022 0.13804,-0.0022 0.0863,0 0.17264,0 0.25878,0 0.0648,-0.0013 0.1281,0.0029 0.19271,0.01307 0.0396,0.0064 0.0784,0.005 0.11798,0.0099 0.0532,0.0059 0.10565,0.0094 0.15884,0.01509 0.049,0.0059 0.0977,7.41e-4 0.14743,0.0022 0.0316,0.0015 0.0626,0.0094 0.0942,0.01159 0.0257,0.0013 0.0524,-7.41e-4 0.0782,-7.41e-4 0.0353,0 0.0712,-0.0015 0.10509,-0.01012 0.028,-0.0064 0.0431,-0.01932 0.0718,-0.02006 0.0381,-0.0015 0.0871,-0.01233 0.12368,-0.02375 -0.004,-0.01657 -0.0416,-0.02301 -0.0574,-0.02871 -0.0475,-0.01583 -0.0985,-0.02098 -0.1467,-0.03018 -0.0569,-0.01086 -0.10859,-0.03092 -0.16325,-0.04602 -0.0475,-0.01307 -0.095,-0.03313 -0.13363,-0.06405 -0.0267,-0.02153 -0.0569,-0.04031 -0.0828,-0.06332 -0.0359,-0.03166 -0.0611,-0.06608 -0.10197,-0.09129 -0.0353,-0.0208 -0.0698,-0.03239 -0.10859,-0.04454 -0.0287,-0.0087 -0.0576,-0.01804 -0.0871,-0.02448 -0.0331,-0.0072 -0.0661,-0.0079 -0.0992,-0.01804 -0.0661,-0.02153 -0.12442,-0.04233 -0.19418,-0.05025 -0.0574,-0.0064 -0.11503,-0.02301 -0.17246,-0.03313 -0.0604,-0.01068 -0.11503,-0.03884 -0.1754,-0.04822 -0.046,-0.0072 -0.0893,-0.02153 -0.13455,-0.02945 -0.16749,-0.02797 -0.34584,-0.01215 -0.51535,0.0289"
       style="fill:#21201d;fill-opacity:1;fill-rule:nonzero;stroke:none;stroke-width:0.184057"
       id="path466" />
    <path
       d="m 235.11586,-64.098466 c 0.0144,0.0035 0.023,0.01657 0.0351,0.02448 0.0223,0.01288 0.0453,0.02153 0.0675,0.03663 0.0633,0.04381 0.12092,0.08559 0.14964,0.160315 0.0114,0.03092 0.028,0.09994 0.0668,0.108594 0.0144,0.0035 0.0374,0 0.0517,-0.0015 0.0425,-0.0057 0.0806,-0.01012 0.12516,-0.01012 0.10786,7.41e-4 0.21571,7.41e-4 0.3243,0 0.041,0 0.0762,0.0072 0.11651,0.01086 0.0302,0.0037 0.0626,0 0.0928,0 0.0359,0 0.0675,-0.0022 0.1027,-0.01012 0.0388,-0.0087 0.069,-0.02798 0.10565,-0.04233 0.0296,-0.01159 0.0611,-0.01509 0.092,-0.02227 0.0252,-0.0059 0.0497,-0.01233 0.0749,-0.01804 0.0121,-0.0029 0.025,-0.0035 0.0337,-0.01288 -0.0166,-0.01583 -0.0416,-0.01657 -0.0626,-0.02153 -0.0604,-0.01583 -0.11927,-0.0346 -0.17964,-0.05043 -0.12074,-0.03092 -0.23799,-0.06184 -0.35155,-0.113564 -0.10786,-0.04969 -0.22584,-0.05466 -0.34014,-0.07914 -0.10215,-0.02227 -0.20632,-0.02871 -0.30995,-0.04233 -0.0431,-0.0057 -0.0841,-0.02227 -0.12718,-0.03092 -0.0423,-0.0072 -0.0878,-0.0072 -0.13013,-0.0173 -0.0252,-0.0064 -0.0661,-0.02797 -0.0445,0.0173 0.0208,0.0416 0.0733,0.08761 0.11725,0.101416 0.0236,0.0072 0.0394,0.02577 -0.0101,0.01288"
       style="fill:#21201d;fill-opacity:1;fill-rule:nonzero;stroke:none;stroke-width:0.184057"
       id="path468" />
    <path
       d="m 231.60518,-64.242952 c 0,0.05743 -0.021,0.097 -0.0475,0.147983 -0.0208,0.04105 -0.0388,0.0843 -0.0569,0.125159 -0.0136,0.02945 -0.0317,0.05614 -0.0453,0.08632 -0.009,0.02153 -0.0265,0.0646 -0.0468,0.07841 -0.01,0.0079 -0.0215,0.005 -0.0351,0.005 -0.0475,-7.41e-4 -0.095,0.0029 -0.14172,7.4e-4 -0.0698,-0.0029 -0.15461,-0.0072 -0.21995,-0.03515 -0.0942,-0.04104 -0.18111,-0.102888 -0.28473,-0.117981 -0.11578,-0.01657 -0.23357,-0.02448 -0.35008,-0.0324 -0.0468,-0.0022 -0.0942,0 -0.14099,0 -0.0331,0 -0.0653,0 -0.0977,0 -0.0223,0 -0.0561,0.005 -0.0747,-0.01067 0.0129,-0.03534 0.11927,-0.03957 0.14302,-0.04105 0.0891,-0.0072 0.17246,-0.04252 0.25878,-0.06258 0.0331,-0.0079 0.0663,-0.01012 0.0999,-0.01583 0.0418,-0.0064 0.0819,-0.0208 0.12295,-0.03313 0.0819,-0.0243 0.17541,-0.03442 0.26026,-0.04381 0.0712,-0.0072 0.14319,-0.01013 0.2135,-0.01932 0.0611,-0.0087 0.12221,-0.0079 0.18332,-0.01878 0.0425,-0.0072 0.0821,-0.01288 0.12589,-0.01288 0.046,7.4e-4 0.0885,0.0072 0.13381,0"
       style="fill:#21201d;fill-opacity:1;fill-rule:nonzero;stroke:none;stroke-width:0.184057"
       id="path470" />
  </g>
</svg>
