<?xml version="1.0" encoding="UTF-8" standalone="no"?>
<!-- Created with Inkscape (http://www.inkscape.org/) -->

<svg
   width="6.9624562mm"
   height="7.2673802mm"
   viewBox="0 0 6.9624562 7.2673802"
   version="1.1"
   id="svg2559"
   inkscape:version="1.1.2 (0a00cf5339, 2022-02-04)"
   sodipodi:docname="m3.svg"
   xmlns:inkscape="http://www.inkscape.org/namespaces/inkscape"
   xmlns:sodipodi="http://sodipodi.sourceforge.net/DTD/sodipodi-0.dtd"
   xmlns="http://www.w3.org/2000/svg"
   xmlns:svg="http://www.w3.org/2000/svg">
  <sodipodi:namedview
     id="namedview2561"
     pagecolor="#ffffff"
     bordercolor="#666666"
     borderopacity="1.0"
     inkscape:pageshadow="2"
     inkscape:pageopacity="0.0"
     inkscape:pagecheckerboard="0"
     inkscape:document-units="mm"
     showgrid="false"
     inkscape:zoom="0.64052329"
     inkscape:cx="-70.255057"
     inkscape:cy="472.2701"
     inkscape:window-width="2560"
     inkscape:window-height="1376"
     inkscape:window-x="0"
     inkscape:window-y="0"
     inkscape:window-maximized="1"
     inkscape:current-layer="layer1" />
  <defs
     id="defs2556" />
  <g
     inkscape:label="Layer 1"
     inkscape:groupmode="layer"
     id="layer1"
     transform="translate(-123.33221,-23.629205)">
    <path
       d="m 127.40758,25.829572 c 0.003,-0.0065 0.006,-0.01288 0.009,-0.01877 0.0223,-0.0042 0.0453,0.01235 0.0661,0.01803 0.0351,0.01087 0.0791,0.01012 0.11504,0.01933 0.11927,0.03238 0.25234,0.09865 0.36369,0.151846 0.0893,0.04233 0.16326,0.120742 0.23375,0.187554 0.10344,0.09921 0.18406,0.184058 0.21572,0.325046 0.0316,0.1351 0.0539,0.309771 0.005,0.442845 -0.0216,0.05816 -0.0366,0.122951 -0.0639,0.178351 -0.0368,0.07399 -0.0957,0.116508 -0.14743,0.176883 -0.20063,0.230808 -0.5415,0.332775 -0.84059,0.342896 -0.10712,0.0037 -0.21627,0.01012 -0.31621,-0.02723 -0.0885,-0.03387 -0.18479,-0.08283 -0.2597,-0.140254 -0.1732,-0.134546 -0.32412,-0.330017 -0.32486,-0.562296 -7.1e-4,-0.06681 0.009,-0.149455 0.0252,-0.21498 0.007,-0.0302 0.028,-0.05669 0.0351,-0.08687 0.006,-0.02667 0,-0.04969 0.006,-0.07491 0.0166,-0.0705 0.0554,-0.146696 0.0992,-0.203383 0.0374,-0.04749 0.12148,-0.08338 0.17688,-0.111542 0.0755,-0.03883 0.15387,-0.0819 0.23651,-0.09994 0.164,-0.03663 0.30922,-0.05742 0.47174,-0.01933 0.0396,0.0094 0.072,0.02226 0.10638,0.0381 0.0339,0.01584 0.072,0.01288 0.10418,0.02596 0.049,0.02007 0.12884,0.07105 0.16031,0.118533 0.0388,0.0589 0.044,0.16105 0.0606,0.230808 0.008,0.03239 0.0315,0.07399 0.0366,0.101417 0.002,0.01584 0.008,0.023 0.006,0.03884 -0.002,0.02374 -0.028,0.02872 -0.0245,0.05595 0.0252,-0.02007 0.0381,-0.06387 0.0453,-0.09332 0.0101,-0.04399 0.018,-0.0878 0.021,-0.133813 0.002,-0.05319 -0.007,-0.08632 -0.0274,-0.134362 -0.0121,-0.0309 -0.0151,-0.05393 -0.0359,-0.08135 -0.0237,-0.03164 -0.0589,-0.05319 -0.0819,-0.08559 -0.0526,-0.07325 -0.13528,-0.13657 -0.2194,-0.176879 -0.0554,-0.02649 -0.1143,-0.03663 -0.17172,-0.05963 -0.0836,-0.03313 -0.17412,-0.02081 -0.26247,-0.02081 -0.12074,0 -0.25952,-0.02081 -0.37529,0.0151 -0.0539,0.01729 -0.12589,0.01803 -0.17467,0.04307 -0.0554,0.02889 -0.10932,0.08632 -0.14816,0.135283 -0.0282,0.03514 -0.049,0.07105 -0.069,0.112092 -0.018,0.03736 -0.0353,0.06405 -0.0604,0.09773 -0.0223,0.0302 -0.0136,0.04031 -0.0295,0.06829 -0.0727,0.129392 -0.095,0.268909 -0.12019,0.413392 -0.0107,0.06056 -0.005,0.124425 -0.005,0.186267 0,0.05688 -0.008,0.11872 0.005,0.172649 0.0331,0.14798 0.10141,0.270934 0.20356,0.381734 0.13658,0.148904 0.32284,0.196208 0.4953,0.285475 0.0769,0.03957 0.18976,0.0416 0.27461,0.0416 0.15755,-7.05e-4 0.30553,-0.0099 0.46014,-0.0381 0.20357,-0.03736 0.41339,-0.08835 0.60113,-0.176879 0.0698,-0.03295 0.13731,-0.07399 0.19197,-0.127921 0.0567,-0.05687 0.072,-0.120004 0.0985,-0.193442 0.0116,-0.03094 0.0201,-0.06185 0.0302,-0.09203 0.0101,-0.03313 0.0302,-0.06755 0.0388,-0.100683 0.0116,-0.04307 0.001,-0.08982 0.009,-0.134362 0.008,-0.05098 0.0158,-0.09424 0.0173,-0.145955 0.004,-0.180562 0.0223,-0.372534 -0.0648,-0.534138 -0.0482,-0.09 -0.0812,-0.18277 -0.15093,-0.25897 -0.0353,-0.03957 -0.0554,-0.08687 -0.0898,-0.125712 -0.0331,-0.03681 -0.0863,-0.05761 -0.12515,-0.08853 -0.0584,-0.04877 -0.10639,-0.08761 -0.17983,-0.112829 -0.0769,-0.02596 -0.15166,-0.03514 -0.22639,-0.05393 -0.11577,-0.0302 -0.23577,-0.02596 -0.35449,-0.02667 -0.0517,-7.06e-4 -0.0898,0.01161 -0.13878,0.02667 -0.0388,0.01214 -0.12644,0.02798 0.0641,0.123687"
       style="fill:#21201d;fill-opacity:1;fill-rule:nonzero;stroke:none;stroke-width:0.184057"
       id="path304" />
    <path
       d="m 127.10922,25.695764 c -0.003,0.0065 -0.006,0.01362 -0.009,0.01951 -0.0215,0.005 -0.0453,-0.01086 -0.0661,-0.01584 -0.0361,-0.0094 -0.0799,-0.0065 -0.11577,-0.0151 -0.12093,-0.02741 -0.25602,-0.08853 -0.36958,-0.137308 -0.0906,-0.03883 -0.1675,-0.1143 -0.2402,-0.179088 -0.10786,-0.09497 -0.19123,-0.177617 -0.2286,-0.317133 -0.0359,-0.133625 -0.0655,-0.307009 -0.0215,-0.442105 0.0193,-0.05816 0.0322,-0.124425 0.0574,-0.179825 0.0339,-0.07547 0.0906,-0.120742 0.14025,-0.182587 0.19197,-0.238721 0.52843,-0.353021 0.82752,-0.374558 0.10638,-0.0079 0.21498,-0.01859 0.31713,0.01584 0.0898,0.02946 0.18755,0.07473 0.26375,0.129396 0.17835,0.127917 0.33645,0.317867 0.34658,0.549412 0.004,0.06681 -0.004,0.150192 -0.0173,0.21553 -0.006,0.03094 -0.025,0.05908 -0.0316,0.08927 -0.006,0.02649 0.002,0.04877 -0.003,0.07473 -0.0136,0.07049 -0.0497,0.148166 -0.092,0.207066 -0.0353,0.04896 -0.11798,0.0878 -0.17191,0.11798 -0.074,0.0416 -0.15093,0.08761 -0.23283,0.109146 -0.16179,0.04252 -0.30701,0.06902 -0.471,0.03681 -0.0396,-0.0079 -0.0727,-0.01951 -0.10786,-0.03387 -0.0337,-0.01436 -0.0712,-0.01012 -0.10417,-0.02226 -0.0497,-0.01803 -0.13234,-0.06607 -0.16547,-0.112825 -0.0409,-0.05614 -0.0495,-0.159029 -0.069,-0.22805 -0.009,-0.03147 -0.0344,-0.07252 -0.0403,-0.09994 -0.003,-0.0151 -0.008,-0.02226 -0.007,-0.0381 0.001,-0.02357 0.0267,-0.02946 0.0224,-0.05669 -0.0245,0.02081 -0.0361,0.0646 -0.0418,0.09479 -0.009,0.04399 -0.0151,0.0878 -0.0158,0.134546 0,0.05319 0.0101,0.08559 0.0324,0.133075 0.0136,0.0302 0.0178,0.05319 0.0388,0.08043 0.025,0.0302 0.0611,0.05043 0.0856,0.08117 0.0545,0.07197 0.13933,0.131604 0.22491,0.168967 0.0569,0.02448 0.11651,0.03239 0.17467,0.05319 0.0841,0.02963 0.17486,0.01453 0.26321,0.01087 0.12018,-0.0042 0.26025,0.01087 0.37381,-0.0302 0.0532,-0.01803 0.12516,-0.02152 0.17265,-0.04822 0.0554,-0.03165 0.10638,-0.09129 0.14375,-0.141538 0.0267,-0.03608 0.046,-0.0727 0.0648,-0.1143 0.0166,-0.0381 0.0322,-0.06553 0.056,-0.09995 0.0217,-0.0309 0.013,-0.04105 0.0274,-0.06902 0.0675,-0.133075 0.0841,-0.272591 0.10417,-0.417812 0.009,-0.06111 0,-0.124975 -0.002,-0.186817 -0.002,-0.05687 0.004,-0.117983 -0.0109,-0.172646 -0.0388,-0.146696 -0.11283,-0.265966 -0.21866,-0.373087 -0.14154,-0.143934 -0.32927,-0.184059 -0.50542,-0.266146 -0.0782,-0.03663 -0.19197,-0.03517 -0.27682,-0.03147 -0.15663,0.0065 -0.30479,0.02152 -0.45793,0.05522 -0.20209,0.04528 -0.40897,0.104362 -0.59376,0.199887 -0.0685,0.03534 -0.13455,0.07841 -0.187,0.135283 -0.0547,0.0589 -0.0668,0.122213 -0.0913,0.196942 -0.0101,0.03164 -0.0173,0.06184 -0.026,0.09276 -0.009,0.03313 -0.0287,0.06829 -0.0359,0.102154 -0.009,0.0438 0.002,0.08982 -0.003,0.134362 -0.006,0.05172 -0.0121,0.09498 -0.0114,0.146696 0.002,0.180375 -0.009,0.373083 0.0841,0.532109 0.0517,0.08761 0.0884,0.17817 0.16031,0.252345 0.0374,0.03736 0.0589,0.08485 0.0955,0.122213 0.0346,0.03514 0.0878,0.05393 0.12811,0.08412 0.0596,0.04528 0.10988,0.08338 0.18405,0.105647 0.0777,0.023 0.1524,0.02946 0.2286,0.04602 0.11577,0.02448 0.23578,0.01584 0.3545,0.01214 0.0517,-0.0014 0.0898,-0.0151 0.13877,-0.03221 0.0374,-0.01305 0.12424,-0.03239 -0.069,-0.120925"
       style="fill:#21201d;fill-opacity:1;fill-rule:nonzero;stroke:none;stroke-width:0.184057"
       id="path306" />
    <path
       d="m 128.06687,28.86156 0.003,0.02152 c -0.0158,0.01584 -0.0438,0.01584 -0.0646,0.023 -0.0346,0.01214 -0.069,0.0381 -0.10436,0.05098 -0.11559,0.04252 -0.26228,0.06534 -0.38449,0.08706 -0.0972,0.01711 -0.20283,-0.0037 -0.29909,-0.01729 -0.14173,-0.02081 -0.25676,-0.0438 -0.36462,-0.139517 -0.10418,-0.09277 -0.22289,-0.22142 -0.26099,-0.358729 -0.0158,-0.05963 -0.041,-0.121479 -0.051,-0.18185 -0.0129,-0.08135 0.01,-0.150375 0.0178,-0.228783 0.0296,-0.3048 0.24737,-0.585855 0.48609,-0.767154 0.0849,-0.06534 0.17044,-0.133625 0.27314,-0.16105 0.092,-0.02431 0.19915,-0.04012 0.29265,-0.03663 0.21866,0.0086 0.45591,0.08135 0.591,0.268909 0.0396,0.05466 0.0791,0.127921 0.10437,0.1905 0.0114,0.02889 0.01,0.06258 0.0215,0.09203 0.0101,0.02448 0.0287,0.03957 0.0388,0.06331 0.0272,0.06755 0.0403,0.151666 0.0366,0.223633 -0.002,0.06111 -0.051,0.138042 -0.0791,0.193446 -0.0388,0.07546 -0.0777,0.155896 -0.13436,0.219212 -0.11283,0.123688 -0.21866,0.225838 -0.37381,0.288971 -0.0375,0.0151 -0.0712,0.023 -0.1086,0.03037 -0.0366,0.0065 -0.0655,0.03073 -0.0992,0.03865 -0.0519,0.01235 -0.14742,0.01729 -0.19988,-0.0035 -0.0655,-0.02522 -0.12939,-0.10565 -0.18406,-0.153137 -0.0237,-0.02081 -0.0675,-0.04105 -0.0878,-0.06111 -0.0107,-0.01161 -0.0193,-0.01436 -0.0272,-0.02815 -0.0123,-0.02081 0.006,-0.03939 -0.0123,-0.05964 -0.009,0.0309 0.006,0.07418 0.0173,0.102154 0.0173,0.04178 0.0352,0.0819 0.0604,0.120742 0.0287,0.04454 0.0554,0.06626 0.0999,0.09424 0.0287,0.01803 0.0438,0.03514 0.0769,0.04528 0.0374,0.01161 0.0784,0.0086 0.11651,0.02152 0.0849,0.0302 0.18903,0.03313 0.28032,0.01803 0.0611,-0.01087 0.11503,-0.03736 0.17559,-0.05172 0.0861,-0.02099 0.15313,-0.08338 0.22565,-0.135283 0.0985,-0.06976 0.22363,-0.133626 0.29615,-0.230071 0.0339,-0.04454 0.0928,-0.08688 0.11798,-0.1351 0.0287,-0.05614 0.0388,-0.134546 0.0418,-0.196942 0.004,-0.04472 -7e-4,-0.08632 -0.008,-0.130129 -0.008,-0.04178 -0.009,-0.07344 -0.008,-0.115771 7.1e-4,-0.03755 -0.0123,-0.04105 -0.0151,-0.0727 -0.0166,-0.14743 -0.0791,-0.273879 -0.14172,-0.406217 -0.0272,-0.05614 -0.069,-0.104912 -0.10491,-0.154608 -0.0331,-0.04601 -0.0611,-0.101413 -0.10289,-0.138042 -0.11356,-0.101417 -0.24075,-0.161787 -0.38744,-0.193446 -0.19841,-0.0416 -0.37676,0.02741 -0.56947,0.0554 -0.0856,0.01235 -0.17982,0.07547 -0.2481,0.125163 -0.12793,0.09203 -0.24296,0.185529 -0.35229,0.29762 -0.14448,0.148167 -0.28529,0.311242 -0.38744,0.492538 -0.0374,0.06681 -0.069,0.140254 -0.0819,0.215717 -0.0138,0.0797 0.0107,0.139516 0.0315,0.214979 0.009,0.03164 0.0195,0.06111 0.0289,0.09203 0.0107,0.03221 0.0144,0.07252 0.0265,0.104179 0.0158,0.04252 0.0512,0.07399 0.0712,0.115034 0.023,0.04602 0.0416,0.08559 0.0705,0.12792 0.10068,0.150376 0.19767,0.317134 0.36222,0.399038 0.0915,0.04472 0.17191,0.100679 0.27259,0.12295 0.0517,0.01161 0.0955,0.0381 0.14669,0.0497 0.0488,0.01086 0.10344,-0.0028 0.15313,7.05e-4 0.0755,0.005 0.13805,0.0094 0.21204,-0.01305 0.0777,-0.02283 0.14375,-0.0589 0.21571,-0.08687 0.11154,-0.04252 0.20633,-0.115775 0.30406,-0.184059 0.0425,-0.02946 0.067,-0.06184 0.0979,-0.102891 0.0243,-0.0309 0.0869,-0.09552 -0.12368,-0.06313"
       style="fill:#21201d;fill-opacity:1;fill-rule:nonzero;stroke:none;stroke-width:0.184057"
       id="path308" />
    <path
       d="m 128.39541,28.934814 c -0.001,-0.0065 -0.003,-0.01362 -0.004,-0.02081 0.0145,-0.01584 0.0433,-0.01729 0.0641,-0.02522 0.0339,-0.01362 0.0675,-0.04105 0.10215,-0.0554 0.1143,-0.04749 0.26026,-0.07546 0.381,-0.101417 0.0957,-0.02081 0.20283,-0.0042 0.29983,0.0059 0.14172,0.0151 0.25731,0.03369 0.36884,0.125712 0.10786,0.08853 0.23155,0.212771 0.27462,0.348054 0.0188,0.0589 0.046,0.120004 0.0576,0.179638 0.0164,0.08135 -0.004,0.151112 -0.009,0.230075 -0.018,0.30572 -0.22584,0.594691 -0.45664,0.785191 -0.0826,0.06828 -0.16528,0.139513 -0.26743,0.171171 -0.0906,0.02724 -0.19695,0.04749 -0.29045,0.04675 -0.21921,0 -0.45866,-0.06331 -0.60186,-0.245901 -0.0409,-0.05319 -0.0826,-0.125158 -0.11062,-0.186266 -0.0123,-0.02872 -0.0123,-0.06258 -0.0252,-0.09055 -0.0107,-0.02448 -0.0302,-0.03957 -0.0409,-0.06258 -0.0304,-0.06608 -0.0455,-0.149637 -0.0455,-0.222154 7e-4,-0.06037 0.0455,-0.139517 0.072,-0.195654 0.0359,-0.07694 0.072,-0.159579 0.12663,-0.224184 0.10713,-0.128841 0.20983,-0.234491 0.36149,-0.302775 0.0376,-0.01658 0.0705,-0.02596 0.10786,-0.03443 0.0361,-0.0086 0.064,-0.03387 0.0979,-0.04325 0.051,-0.01362 0.14596,-0.02226 0.19989,-0.0035 0.0661,0.02226 0.13289,0.10068 0.18829,0.145221 0.0265,0.02081 0.0698,0.03957 0.0906,0.05816 0.0116,0.01161 0.0208,0.01305 0.0295,0.02741 0.0116,0.01933 -0.005,0.03939 0.0144,0.0589 0.007,-0.0309 -0.008,-0.07325 -0.0215,-0.101416 -0.0186,-0.04105 -0.0388,-0.08117 -0.0646,-0.117796 -0.0309,-0.04473 -0.0583,-0.06479 -0.10363,-0.09074 -0.0295,-0.01711 -0.046,-0.03369 -0.0784,-0.04233 -0.0381,-0.01013 -0.079,-0.0057 -0.11706,-0.01729 -0.0863,-0.02649 -0.19124,-0.02649 -0.28124,-0.0072 -0.0611,0.01288 -0.11356,0.04105 -0.1732,0.05816 -0.0856,0.02448 -0.15093,0.08927 -0.22068,0.143196 -0.0957,0.07399 -0.21793,0.142278 -0.28768,0.241483 -0.0317,0.04528 -0.0891,0.09074 -0.11209,0.140254 -0.0274,0.05687 -0.0339,0.134546 -0.0353,0.197679 0,0.04454 0.004,0.08632 0.0138,0.130126 0.009,0.04178 0.0114,0.07344 0.0121,0.115037 7e-4,0.03736 0.0129,0.04105 0.018,0.07197 0.0216,0.146695 0.0891,0.271116 0.15737,0.401245 0.0287,0.05448 0.0727,0.101234 0.11006,0.150192 0.0344,0.04528 0.0653,0.09847 0.1086,0.134363 0.11632,0.09644 0.24589,0.151849 0.39388,0.177616 0.19988,0.03534 0.37602,-0.04086 0.56725,-0.0762 0.0841,-0.0151 0.17615,-0.08264 0.24314,-0.134362 0.12424,-0.09718 0.23578,-0.19418 0.34069,-0.310692 0.13878,-0.153871 0.27388,-0.322837 0.36885,-0.506892 0.0346,-0.06902 0.0633,-0.143016 0.0734,-0.219216 0.0107,-0.07988 -0.0166,-0.138779 -0.0396,-0.213505 -0.0101,-0.03164 -0.0223,-0.06037 -0.0324,-0.09056 -0.0121,-0.03239 -0.0166,-0.0727 -0.0309,-0.103625 -0.0173,-0.04105 -0.0532,-0.07197 -0.0755,-0.112091 -0.0245,-0.04454 -0.0445,-0.08411 -0.0747,-0.125896 -0.10656,-0.145221 -0.20927,-0.309217 -0.37749,-0.383942 -0.0935,-0.0416 -0.17541,-0.09479 -0.27682,-0.112829 -0.0525,-0.01013 -0.0977,-0.03461 -0.14817,-0.04454 -0.0495,-0.0086 -0.10344,0.0072 -0.15387,0.0057 -0.0755,-0.0021 -0.13804,-0.0037 -0.21056,0.02081 -0.0769,0.02596 -0.14173,0.06479 -0.21295,0.09497 -0.10915,0.04749 -0.20191,0.124421 -0.29689,0.195467 -0.0416,0.03164 -0.0641,0.06405 -0.0942,0.10657 -0.023,0.03221 -0.0826,0.09847 0.12663,0.05816"
       style="fill:#21201d;fill-opacity:1;fill-rule:nonzero;stroke:none;stroke-width:0.184057"
       id="path310" />
    <path
       d="m 125.34265,28.458839 c 0.006,-7.05e-4 0.0136,-7.05e-4 0.0208,-7.05e-4 0.0144,0.01729 0.0109,0.04601 0.0158,0.06681 0.007,0.03681 0.0294,0.07418 0.0381,0.110067 0.0287,0.120004 0.0346,0.268171 0.041,0.391858 0.006,0.09847 -0.0274,0.201359 -0.0525,0.295413 -0.0374,0.138042 -0.0734,0.249583 -0.18203,0.345108 -0.10344,0.09203 -0.24571,0.196392 -0.38596,0.216454 -0.0611,0.01013 -0.1259,0.02741 -0.187,0.02946 -0.0826,0.0037 -0.14799,-0.02723 -0.22566,-0.04454 -0.29909,-0.06534 -0.55216,-0.314921 -0.70456,-0.572971 -0.0547,-0.09203 -0.11228,-0.184795 -0.12737,-0.291179 -0.0129,-0.0935 -0.0158,-0.201358 -0.001,-0.294125 0.0346,-0.21645 0.13454,-0.442842 0.33719,-0.555671 0.0583,-0.03164 0.13602,-0.06258 0.20135,-0.07988 0.0295,-0.0079 0.0633,-0.0035 0.0935,-0.01143 0.0265,-0.0066 0.0431,-0.02374 0.0675,-0.0302 0.0698,-0.01951 0.15535,-0.02244 0.22658,-0.01087 0.0596,0.01012 0.13141,0.06681 0.18258,0.101417 0.0698,0.04749 0.14596,0.09626 0.20117,0.159579 0.11007,0.126446 0.19934,0.243692 0.24314,0.405479 0.0107,0.03883 0.0144,0.07325 0.0173,0.111355 0.003,0.03681 0.023,0.06847 0.0272,0.102887 0.006,0.05319 0,0.148167 -0.0272,0.198417 -0.0324,0.06184 -0.12093,0.115033 -0.17412,0.163995 -0.0237,0.02152 -0.0488,0.06258 -0.0705,0.0797 -0.0129,0.01012 -0.0164,0.01803 -0.0315,0.02448 -0.0217,0.0094 -0.0383,-0.01069 -0.0605,0.0052 0.0296,0.01288 0.0742,0.0035 0.10362,-0.0052 0.0431,-0.01214 0.0856,-0.02575 0.12719,-0.04602 0.0475,-0.02374 0.072,-0.04748 0.10509,-0.08761 0.0208,-0.0267 0.0394,-0.04031 0.0539,-0.07123 0.0164,-0.03589 0.0179,-0.0762 0.0359,-0.112825 0.0388,-0.08062 0.0547,-0.184059 0.0502,-0.277559 -0.004,-0.06111 -0.023,-0.117245 -0.0309,-0.179091 -0.0107,-0.08835 -0.0646,-0.162521 -0.10712,-0.240009 -0.0582,-0.105833 -0.10638,-0.237987 -0.19326,-0.322104 -0.041,-0.03883 -0.0756,-0.10215 -0.12166,-0.132337 -0.0517,-0.03608 -0.12792,-0.05393 -0.18976,-0.06553 -0.0445,-0.0079 -0.0863,-0.0094 -0.13086,-0.0065 -0.0423,0.0014 -0.0733,0 -0.11504,-0.0065 -0.0366,-0.005 -0.0423,0.0065 -0.074,0.0065 -0.1489,-0.0014 -0.28179,0.04602 -0.42057,0.09277 -0.0583,0.02007 -0.11154,0.05614 -0.1662,0.08559 -0.0495,0.02723 -0.10712,0.04951 -0.14945,0.08706 -0.11283,0.09976 -0.18774,0.219212 -0.23652,0.361491 -0.0655,0.191234 -0.018,0.376763 -0.013,0.571683 0.002,0.08632 0.0539,0.186267 0.095,0.260992 0.0769,0.137309 0.15535,0.263204 0.25455,0.385417 0.12939,0.160316 0.27535,0.320629 0.44358,0.442108 0.0618,0.04528 0.13013,0.08559 0.20412,0.107859 0.0777,0.023 0.14025,0.005 0.21718,-0.0065 0.0324,-0.0052 0.0633,-0.01235 0.0942,-0.01803 0.0344,-0.0065 0.074,-0.0057 0.10786,-0.01362 0.0438,-0.01161 0.079,-0.04252 0.12147,-0.05761 0.0488,-0.01711 0.0906,-0.03094 0.13657,-0.05467 0.16031,-0.0819 0.33793,-0.158842 0.43787,-0.312717 0.0561,-0.08558 0.12074,-0.158842 0.15461,-0.256575 0.0178,-0.0497 0.0495,-0.09 0.0668,-0.139517 0.0173,-0.04749 0.009,-0.102887 0.0188,-0.151662 0.0136,-0.07491 0.0251,-0.136021 0.0121,-0.212221 -0.0136,-0.0797 -0.0418,-0.150188 -0.0611,-0.224917 -0.0295,-0.115037 -0.0906,-0.218662 -0.14669,-0.322837 -0.0245,-0.04675 -0.0532,-0.07418 -0.0906,-0.110067 -0.0287,-0.02797 -0.0849,-0.097 -0.0769,0.115771"
       style="fill:#21201d;fill-opacity:1;fill-rule:nonzero;stroke:none;stroke-width:0.184057"
       id="path312" />
    <path
       d="m 125.2729,28.162689 c -0.007,7.06e-4 -0.0136,7.06e-4 -0.0215,0.0014 -0.0144,-0.01711 -0.0121,-0.04602 -0.018,-0.06608 -0.009,-0.03663 -0.0324,-0.07325 -0.0423,-0.108593 -0.0339,-0.11927 -0.0446,-0.267437 -0.0569,-0.390387 -0.009,-0.09774 0.0203,-0.202096 0.041,-0.296887 0.0324,-0.139513 0.064,-0.252342 0.16823,-0.352288 0.10067,-0.09645 0.23798,-0.204854 0.37823,-0.231542 0.0611,-0.01161 0.12424,-0.03164 0.18461,-0.03589 0.0828,-0.0072 0.14964,0.02152 0.22804,0.03514 0.3013,0.05393 0.56358,0.293388 0.72611,0.545733 0.0582,0.08982 0.11945,0.180376 0.13877,0.285472 0.0166,0.09277 0.0238,0.200624 0.0121,0.293941 -0.0258,0.217188 -0.11632,0.447996 -0.31418,0.568004 -0.0574,0.03461 -0.13436,0.06828 -0.19842,0.0878 -0.0295,0.0094 -0.0631,0.0057 -0.0928,0.0151 -0.0257,0.0079 -0.0423,0.02596 -0.0668,0.03369 -0.0683,0.02173 -0.15387,0.02815 -0.22566,0.01877 -0.0598,-0.0072 -0.1338,-0.06111 -0.18626,-0.09424 -0.072,-0.04454 -0.14964,-0.09055 -0.20706,-0.151663 -0.11577,-0.121479 -0.20854,-0.235779 -0.25879,-0.395354 -0.0123,-0.0381 -0.0173,-0.0727 -0.0224,-0.110804 -0.004,-0.03663 -0.0251,-0.06755 -0.0309,-0.102154 -0.008,-0.05172 -0.005,-0.147246 0.0195,-0.19915 0.0302,-0.0624 0.11577,-0.120005 0.16676,-0.170254 0.0237,-0.023 0.0475,-0.06479 0.0683,-0.08282 0.0124,-0.0099 0.0158,-0.01785 0.0302,-0.02501 0.0217,-0.01012 0.0396,0.0092 0.0611,-0.0079 -0.0309,-0.01161 -0.0747,0 -0.10344,0.0092 -0.0431,0.01379 -0.0848,0.02889 -0.12516,0.05117 -0.0475,0.02522 -0.0705,0.04951 -0.10197,0.09203 -0.0203,0.02649 -0.0383,0.04086 -0.0512,0.07252 -0.0151,0.03736 -0.0151,0.07767 -0.0309,0.1143 -0.0359,0.08283 -0.0482,0.186267 -0.0396,0.27903 0.006,0.06111 0.0274,0.117246 0.0374,0.178354 0.0138,0.08761 0.0712,0.160313 0.1165,0.235775 0.0618,0.103625 0.11577,0.233754 0.20633,0.314188 0.0418,0.03737 0.0791,0.09921 0.12589,0.12792 0.0532,0.03313 0.13013,0.04896 0.19271,0.05761 0.0445,0.0065 0.0856,0.0057 0.13086,0.0014 0.0416,-0.0037 0.0733,-0.0028 0.11504,0.0014 0.0366,0.0035 0.0416,-0.0079 0.074,-0.0086 0.14816,-0.0052 0.27903,-0.05761 0.41634,-0.10933 0.0574,-0.02226 0.10933,-0.06037 0.16252,-0.09203 0.0488,-0.02946 0.10564,-0.05393 0.14595,-0.09277 0.10988,-0.104175 0.17964,-0.226392 0.22289,-0.371059 0.0582,-0.193262 0.003,-0.37732 -0.0101,-0.570766 -0.005,-0.08632 -0.0611,-0.184792 -0.10565,-0.257496 -0.0814,-0.134363 -0.16473,-0.257313 -0.26817,-0.374558 -0.13602,-0.155896 -0.28768,-0.310505 -0.46014,-0.425542 -0.064,-0.04325 -0.13455,-0.07988 -0.20927,-0.09921 -0.0777,-0.02025 -0.13952,7.05e-4 -0.21645,0.01436 -0.0324,0.0065 -0.0626,0.0151 -0.0942,0.02226 -0.0329,0.0072 -0.0733,0.0079 -0.10565,0.01803 -0.0438,0.01214 -0.0784,0.04454 -0.12,0.06166 -0.0475,0.01877 -0.0893,0.03461 -0.13381,0.05982 -0.15663,0.08908 -0.3313,0.171725 -0.42554,0.330017 -0.0525,0.08761 -0.11503,0.163075 -0.14448,0.261729 -0.0158,0.05098 -0.046,0.09258 -0.0619,0.142275 -0.0143,0.04749 -0.005,0.103442 -0.0123,0.1524 -0.0114,0.07473 -0.0208,0.136571 -0.004,0.212037 0.0173,0.07988 0.0475,0.148901 0.0697,0.222892 0.0344,0.11375 0.0999,0.214246 0.15958,0.317133 0.0265,0.04528 0.0561,0.07197 0.0942,0.106384 0.0302,0.0267 0.0891,0.0935 0.0732,-0.118533"
       style="fill:#21201d;fill-opacity:1;fill-rule:nonzero;stroke:none;stroke-width:0.184057"
       id="path314" />
  </g>
</svg>
