<?xml version="1.0" encoding="UTF-8" standalone="no"?>
<!-- Created with Inkscape (http://www.inkscape.org/) -->

<svg
   width="6.2202463mm"
   height="7.4696126mm"
   viewBox="0 0 6.2202463 7.4696126"
   version="1.1"
   id="svg2755"
   inkscape:version="1.1.2 (0a00cf5339, 2022-02-04)"
   sodipodi:docname="m4.svg"
   xmlns:inkscape="http://www.inkscape.org/namespaces/inkscape"
   xmlns:sodipodi="http://sodipodi.sourceforge.net/DTD/sodipodi-0.dtd"
   xmlns="http://www.w3.org/2000/svg"
   xmlns:svg="http://www.w3.org/2000/svg">
  <sodipodi:namedview
     id="namedview2757"
     pagecolor="#ffffff"
     bordercolor="#666666"
     borderopacity="1.0"
     inkscape:pageshadow="2"
     inkscape:pageopacity="0.0"
     inkscape:pagecheckerboard="0"
     inkscape:document-units="mm"
     showgrid="false"
     inkscape:zoom="0.64052329"
     inkscape:cx="-964.83611"
     inkscape:cy="536.28027"
     inkscape:window-width="2560"
     inkscape:window-height="1376"
     inkscape:window-x="0"
     inkscape:window-y="0"
     inkscape:window-maximized="1"
     inkscape:current-layer="layer1" />
  <defs
     id="defs2752">
    <clipPath
       clipPathUnits="userSpaceOnUse"
       id="clipPath112">
      <path
         d="m 803,565 h 11 v 18.012 h -11 z"
         id="path110" />
    </clipPath>
    <clipPath
       clipPathUnits="userSpaceOnUse"
       id="clipPath116">
      <path
         d="m 794,566 h 9 v 17.012 h -9 z"
         id="path114" />
    </clipPath>
  </defs>
  <g
     inkscape:label="Layer 1"
     inkscape:groupmode="layer"
     id="layer1"
     transform="translate(-360.39467,-6.5920464)">
    <path
       d="m 364.69627,8.005602 7e-4,0.2043042 c 7.1e-4,0.1516627 7.1e-4,0.3033289 -7e-4,0.4549916 -0.001,0.136017 0.0252,0.2654123 0.0512,0.3911212 0.0151,0.071233 0.0309,0.1452245 0.0396,0.2179249 0.003,0.019332 0.004,0.0381 0.005,0.056875 10e-4,0.030903 0.004,0.062396 0.0109,0.095525 0.007,0.037366 0.0186,0.071967 0.0302,0.1056499 0.006,0.018768 0.0121,0.0381 0.0171,0.056875 0.0324,0.1128254 0.0512,0.2258378 0.0547,0.3270709 0.003,0.075463 0.001,0.1538713 7.1e-4,0.2293373 -7.1e-4,0.04252 -0.001,0.08411 -0.001,0.126629 0,0.01658 7e-4,0.03514 0.002,0.0554 7.1e-4,0.0042 7.1e-4,0.0092 7.1e-4,0.01362 -0.001,0.01729 -0.003,0.03589 -0.004,0.05393 0,0.0079 0,0.01584 0,0.023 0,0.0094 7.1e-4,0.01785 -7e-4,0.02448 -7.1e-4,0.0042 -0.002,0.0072 -0.003,0.0099 -0.0143,0.0309 -0.003,0.067 0.028,0.08282 0.009,0.0042 0.018,0.0065 0.0274,0.0065 0.0223,0 0.0438,-0.01161 0.0547,-0.03238 0.007,-0.01362 0.0121,-0.02741 0.0144,-0.03957 0.01,-0.04031 0.009,-0.08412 0.007,-0.125896 0.002,-0.01637 0.004,-0.03369 0.007,-0.05172 0.001,-0.01436 0.004,-0.02946 0.006,-0.0438 0.008,-0.06755 0.0223,-0.132338 0.0366,-0.201359 l 0.002,-0.0079 c 0.009,-0.043805 0.023,-0.086875 0.0366,-0.1328913 0.0123,-0.037546 0.0238,-0.0762 0.0339,-0.1144834 0.008,-0.032209 0.0201,-0.063867 0.0337,-0.097734 0.0166,-0.041596 0.0339,-0.08485 0.0433,-0.1336251 0.028,-0.1409877 0.0258,-0.2840038 0.0245,-0.4213084 -7.1e-4,-0.033867 -7.1e-4,-0.067733 -7.1e-4,-0.1006793 0,-0.156083 0.0215,-0.3049869 0.0445,-0.462354 0.006,-0.036629 0.0114,-0.074729 0.0166,-0.1128289 10e-4,-0.012347 0.003,-0.028716 0.004,-0.04675 10e-4,-0.025964 0.004,-0.061108 0.009,-0.078408 0.002,-0.0072 0.0114,-0.018768 0.0201,-0.028716 0.008,-0.010865 0.0158,-0.020814 0.0223,-0.030903 0.0512,-0.08062 0.067,-0.1697037 0.0828,-0.2567622 0.005,-0.026494 0.009,-0.053192 0.0151,-0.078225 0.0136,-0.059083 0.023,-0.1179794 0.033,-0.1741205 0.007,-0.044542 0.0151,-0.089817 0.0237,-0.1350962 0.0188,-0.092029 0.0173,-0.1976791 -0.005,-0.3141875 -0.004,-0.019509 -0.005,-0.040308 -0.006,-0.062579 -0.002,-0.036629 -0.005,-0.077675 -0.0188,-0.117983 -0.0265,-0.078221 -0.0468,-0.096996 -0.0539,-0.103438 -0.005,-0.00515 -0.0107,-0.00864 -0.0171,-0.011606 -7.1e-4,-7.055e-4 -7.1e-4,-0.00212 -10e-4,-0.00282 -0.005,-0.0079 -0.0101,-0.01584 -0.0158,-0.023742 -0.0215,-0.028152 -0.0446,-0.046016 -0.067,-0.063317 l -0.0107,-0.00938 c -0.0431,-0.034431 -0.0813,-0.049512 -0.12,-0.064604 -0.0979,-0.0381 -0.25179,-0.048958 -0.3567,0.00353 -0.12295,0.061845 -0.13013,0.2293373 -0.1351,0.3522874 -10e-4,0.032385 -0.003,0.063317 -0.006,0.085587 -0.0243,0.1739336 -0.0208,0.3530248 -0.0179,0.5264044 10e-4,0.059637 0.002,0.1192707 0.002,0.1774332"
       style="fill:#21201d;fill-opacity:1;fill-rule:nonzero;stroke:none;stroke-width:0.184057"
       id="path316" />
    <path
       d="m 366.0084,9.6628602 c 0.004,-0.010689 0.008,-0.020814 0.0124,-0.030198 0.0215,-0.04675 0.046,-0.092029 0.074,-0.141538 0.0453,-0.082829 0.0655,-0.1669415 0.0841,-0.2481121 0.006,-0.025224 0.0123,-0.049696 0.0188,-0.075463 0.007,-0.027975 0.0166,-0.054666 0.0258,-0.081908 0.0123,-0.033867 0.0237,-0.068467 0.0324,-0.105096 0.004,-0.016581 0.008,-0.034431 0.0116,-0.052454 0.008,-0.038837 0.0151,-0.078412 0.0287,-0.1063872 0.007,-0.01584 0.0144,-0.032385 0.0208,-0.047487 0.005,-0.010689 0.0101,-0.02226 0.0144,-0.032385 7.1e-4,0.00663 0.001,0.013794 0.001,0.02099 7e-4,0.023001 10e-4,0.048041 0.009,0.075466 0.007,0.029457 0.0351,0.048775 0.0661,0.046013 0.0908,-0.00864 0.10363,-0.1236875 0.11228,-0.1998875 7e-4,-0.012876 0.003,-0.024483 0.004,-0.031644 0.003,-0.015099 0.006,-0.027975 0.0101,-0.042333 0.009,-0.034607 0.0186,-0.069758 0.0201,-0.1108004 0.002,-0.039575 7.1e-4,-0.079146 0,-0.1187168 0,-0.028716 -7.1e-4,-0.057429 -7.1e-4,-0.086141 7.1e-4,-0.053192 0.0138,-0.1063837 0.0274,-0.1632585 0.0136,-0.056875 0.0287,-0.1165084 0.0302,-0.1790877 7.1e-4,-0.028716 7.1e-4,-0.058162 0,-0.087612 0,-0.016581 -7e-4,-0.033126 -7e-4,-0.050433 0,-0.00864 0.001,-0.019332 0.002,-0.030903 0.003,-0.030903 0.005,-0.066075 -0.002,-0.095525 -0.0252,-0.097737 -0.11356,-0.1085956 -0.16676,-0.1143 -0.018,-0.00212 -0.0368,-0.00515 -0.0475,-0.00938 -0.0245,-0.010125 -0.0504,-0.018768 -0.0762,-0.02667 -0.049,-0.016369 -0.095,-0.031468 -0.13087,-0.057429 -0.0208,-0.014358 -0.0425,-0.033867 -0.0655,-0.054663 -0.0423,-0.0381 -0.0869,-0.077675 -0.13804,-0.1006793 -0.0329,-0.015099 -0.0624,-0.013617 -0.0861,-0.0072 -0.005,-0.00646 -0.0123,-0.012136 -0.0195,-0.01584 -0.0208,-0.010689 -0.0453,-0.00938 -0.0646,0.00497 -0.0289,0.020249 -0.069,0.048958 -0.0591,0.099392 0.004,0.021519 0.0195,0.039388 0.0403,0.046567 l 0.003,7.055e-4 c 0.004,0.018027 0.007,0.036075 0.0114,0.053929 0.005,0.020249 0.009,0.041046 0.013,0.063316 0.006,0.033867 0.005,0.070496 0.004,0.1100667 -10e-4,0.026494 -0.002,0.053929 -10e-4,0.081171 0.002,0.043804 0.0101,0.086321 0.0166,0.1266296 0.004,0.016369 0.006,0.032209 0.009,0.048041 0.006,0.034607 0.0109,0.069758 0.0158,0.1043587 0.006,0.049512 0.0136,0.097737 0.0215,0.1466956 0.004,0.024306 0.0101,0.048038 0.0158,0.071783 0.009,0.036075 0.0166,0.069758 0.0188,0.1021503 0.001,0.038837 0,0.077675 -7.1e-4,0.1187168 -7e-4,0.030198 -0.001,0.060371 -7e-4,0.089821 0,0.042333 -0.006,0.086325 -0.0124,0.1343625 -0.003,0.02025 -0.006,0.040308 -0.008,0.059637 -0.003,0.02667 -0.009,0.053375 -0.0158,0.082088 -0.006,0.027975 -0.0129,0.057425 -0.0164,0.086875 -0.007,0.054666 -0.006,0.1078583 -0.005,0.1597625 0,0.01711 7.1e-4,0.03369 7.1e-4,0.05025 0,0.075463 0,0.1516627 0,0.2271254 v 0.066262 c 0,0.015099 0,0.030903 7e-4,0.046013 0,0.02226 7.1e-4,0.044542 0,0.066813 0,0.012136 -0.004,0.030198 -0.009,0.048962 -0.0101,0.040859 -0.0215,0.092763 -0.004,0.1408042 0.008,0.020249 0.0251,0.035338 0.046,0.038834 0.004,7.055e-4 0.009,0.00141 0.0121,0.00141 0.0173,0 0.0339,-0.0072 0.0453,-0.020073 0.026,-0.027411 0.0396,-0.064054 0.0517,-0.096446"
       style="fill:#21201d;fill-opacity:1;fill-rule:nonzero;stroke:none;stroke-width:0.184057"
       id="path318" />
    <path
       d="m 363.50432,9.2667684 c -7.1e-4,0.1546084 0.0252,0.3047965 0.051,0.450021 0.018,0.1014165 0.0361,0.2063291 0.044,0.3092166 0.009,0.117246 0.0265,0.247375 0.0525,0.397563 0.003,0.01584 0.006,0.0302 0.009,0.04528 0.008,0.03884 0.0151,0.07344 0.0129,0.110067 -10e-4,0.02797 0.0173,0.05467 0.0445,0.06258 0.006,0.0014 0.0116,0.0021 0.018,0.0021 0.0215,0 0.0416,-0.0114 0.0532,-0.0302 0.0166,-0.02797 0.0201,-0.05319 0.0223,-0.07178 7.1e-4,-0.0059 0.001,-0.01305 0.004,-0.01951 7.1e-4,-0.0014 10e-4,-0.0035 0.004,-0.0086 0.005,-0.0099 0.0129,-0.02431 0.0173,-0.04601 0.004,-0.02374 10e-4,-0.04602 0,-0.06534 -10e-4,-0.01087 -0.003,-0.023 -10e-4,-0.02946 0.002,-0.01729 0.007,-0.03461 0.0121,-0.05319 0.003,-0.01013 0.006,-0.02099 0.009,-0.0309 0.006,-0.02667 0.0151,-0.0519 0.023,-0.07768 0.0129,-0.04031 0.0267,-0.08135 0.0339,-0.125892 0.004,-0.02374 0.0121,-0.04675 0.0215,-0.07105 0.006,-0.018027 0.0129,-0.036075 0.0186,-0.056137 0.007,-0.024483 0.0101,-0.048221 0.0131,-0.070492 0.004,-0.020814 0.006,-0.039575 0.0107,-0.056875 0.0144,-0.046567 0.0252,-0.094054 0.0353,-0.1400668 0.0186,-0.082829 0.0366,-0.1617875 0.0725,-0.2352287 0.006,-0.011395 0.0109,-0.023742 0.0158,-0.035137 0.0109,-0.025224 0.0202,-0.04675 0.0331,-0.061842 0.028,-0.030903 0.0653,-0.079146 0.0769,-0.1358371 0.004,-0.019509 0.002,-0.037363 7.1e-4,-0.051717 0,-0.00589 -7.1e-4,-0.014534 0,-0.017286 7e-4,-0.00367 0.001,-0.00589 0.004,-0.012347 0.005,-0.010689 0.0136,-0.027234 0.0166,-0.053195 0.002,-0.016581 0,-0.030903 -7e-4,-0.043067 -7.1e-4,-0.00497 -10e-4,-0.012876 -10e-4,-0.01584 0.002,-0.012876 0.006,-0.025224 0.009,-0.036629 0.005,-0.021519 0.0116,-0.04675 0.0131,-0.077671 0.004,-0.1071245 0.002,-0.2164538 0.001,-0.3221037 -0.001,-0.0554 -0.001,-0.1100667 -0.001,-0.1647296 0,-0.029457 -7e-4,-0.059637 -7e-4,-0.089083 -10e-4,-0.1187203 -0.003,-0.2315457 0.0129,-0.3443746 0.0129,-0.089267 0.023,-0.1783504 0.0295,-0.2459003 0.006,-0.061108 0.007,-0.1222163 0.008,-0.1818498 0,-0.066262 7.1e-4,-0.1293919 0.009,-0.1905 0.005,-0.040308 0.0114,-0.081354 0.0179,-0.1216625 0.008,-0.047304 0.0158,-0.094788 0.0217,-0.1430126 7e-4,-0.00938 0.002,-0.020073 0.003,-0.030903 0.004,-0.0381 0.009,-0.08485 0.0237,-0.1078583 0.001,-0.00212 0.006,-0.00282 0.0202,-0.00646 0.0236,-0.00497 0.0618,-0.013617 0.0883,-0.052458 0.0151,-0.021519 0.0143,-0.051167 -0.002,-0.0727 l -0.0223,-0.029457 c -0.0683,-0.090558 -0.13234,-0.1746708 -0.23007,-0.197679 -0.0223,-0.00497 -0.0445,-0.00571 -0.0639,-0.00646 -0.0151,0 -0.0296,-7.056e-4 -0.041,-0.00367 -0.0418,-0.0079 -0.0747,-0.011395 -0.11007,-0.011395 -0.028,0 -0.0567,0 -0.0849,0 -0.0366,0 -0.074,-7.056e-4 -0.10988,0 -0.0683,0.00212 -0.12148,0.023001 -0.17338,0.046013 -0.092,0.041596 -0.10197,0.1019669 -0.10565,0.1776165 -0.003,0.068284 0.004,0.1350998 0.0101,0.2004378 0.005,0.054666 0.01,0.1063872 0.01,0.1582914 -7e-4,0.086875 -7e-4,0.1746708 -7e-4,0.2617293 v 0.1271834 c 0,0.024483 7e-4,0.048962 0.001,0.073254 0,0.032385 7e-4,0.065525 0,0.09792 0,0.042333 -0.009,0.08485 -0.0171,0.1301291 -0.007,0.036629 -0.0145,0.074729 -0.018,0.1150373 -0.0101,0.110617 -0.007,0.2236294 -0.005,0.3335126 7e-4,0.04675 10e-4,0.094238 10e-4,0.1402503 0,0.02667 7e-4,0.053929 7e-4,0.080433 0.001,0.043254 0.002,0.087796 0,0.1308664 -7e-4,0.033126 -0.005,0.066259 -0.009,0.1006792 -0.005,0.038837 -0.0101,0.078408 -0.0116,0.1201914 -0.002,0.0762 -7.1e-4,0.1524 0,0.2271254 7.1e-4,0.050984 0.001,0.1028877 7.1e-4,0.1538746"
       style="fill:#21201d;fill-opacity:1;fill-rule:nonzero;stroke:none;stroke-width:0.184057"
       id="path320" />
    <g
       id="g328"
       transform="matrix(0.18405616,0,0,0.18405792,215.27727,-93.246317)">
      <g
         clip-path="url(#clipPath112)"
         id="g326">
        <path
           d="m 803.477,581.422 c 0.175,-0.848 0.132,-2.039 0.753,-2.684 0.114,-0.109 0.243,-0.23 0.375,-0.3 0.192,-0.106 0.391,-0.067 0.59,-0.122 0.289,-0.086 0.512,-0.304 0.754,-0.472 0.422,-0.293 0.582,-0.473 0.77,-0.985 0.179,-0.496 0.226,-0.945 0.277,-1.476 0.02,-0.223 0.063,-0.453 0.047,-0.68 -0.008,-0.187 -0.059,-0.348 -0.035,-0.535 0.047,-0.375 0.238,-0.762 0.332,-1.129 0.105,-0.422 0.234,-0.832 0.344,-1.25 0.105,-0.402 0.027,-0.789 0.093,-1.199 0.145,-0.918 -0.031,-1.895 -0.121,-2.824 -0.043,-0.465 -0.008,-0.864 0.067,-1.321 0.039,-0.265 0.027,-0.531 0.07,-0.793 0.336,-0.175 0.281,0.153 0.348,0.379 0.031,0.106 0.097,0.18 0.113,0.336 0.031,0.313 0.086,0.567 0.152,0.86 0.227,0.918 0.344,1.863 0.656,2.75 0.153,0.437 0.192,0.898 0.321,1.335 0.16,0.528 0.226,1.047 0.273,1.598 0.035,0.449 0.18,0.852 0.215,1.313 0.035,0.457 0.266,0.863 0.328,1.32 0.113,0.812 0.34,1.715 0.985,2.242 0.351,0.285 0.699,0.606 1.039,0.914 0.304,0.278 0.449,0.477 0.617,0.867 0.32,0.762 0.625,1.633 0.707,2.461 0.012,0.114 0.058,0.285 0.039,0.391 -0.031,0.176 -0.016,0.113 -0.16,0.207 -0.446,0.289 -1.567,0.527 -1.785,-0.156 -0.032,-0.094 0.011,-0.211 -0.016,-0.305 -0.031,-0.125 -0.109,-0.25 -0.164,-0.367 -0.156,-0.356 -0.238,-0.824 -0.383,-1.207 -0.223,-0.606 -0.844,-0.582 -1.297,-0.918 -0.172,-0.125 -0.343,-0.227 -0.515,-0.363 -0.133,-0.106 -0.286,-0.305 -0.454,-0.344 -0.269,-0.059 -0.472,0.14 -0.66,0.289 -0.242,0.191 -0.496,0.41 -0.789,0.531 -0.301,0.121 -0.57,0.309 -0.879,0.406 -0.156,0.051 -0.203,0.047 -0.339,0.168 -0.079,0.067 -0.149,0.149 -0.227,0.211 -0.535,0.407 -0.691,1.157 -0.887,1.774 -0.129,0.41 -0.203,0.933 -0.566,1.215 -0.156,0.121 -0.391,0.257 -0.578,0.332 -0.094,0.039 -0.172,0.05 -0.274,0.05 -0.168,-0.003 -0.273,-0.058 -0.336,-0.144 -0.113,-0.152 -0.105,-0.406 -0.121,-0.656 -0.043,-0.61 0.203,-1.137 0.321,-1.719"
           style="fill:#21201d;fill-opacity:1;fill-rule:nonzero;stroke:none"
           id="path324" />
      </g>
    </g>
    <g
       id="g340"
       transform="matrix(0.18405616,0,0,0.18405792,215.27727,-93.246317)">
      <path
         d="m 815.039,576.992 c -0.273,-1.762 -0.367,-3.613 -0.883,-5.312 -0.121,-0.395 -0.082,-0.817 -0.222,-1.215 -0.161,-0.469 -0.309,-0.926 -0.43,-1.41 -0.082,-0.313 -0.234,-0.606 -0.313,-0.91 -0.078,-0.329 0.055,-0.684 -0.039,-1.004 -0.148,0.054 -0.273,0.39 -0.363,0.554 -0.152,0.282 -0.309,0.571 -0.441,0.86 -0.106,0.238 -0.114,0.457 -0.243,0.691 -0.21,0.383 -0.261,0.758 -0.335,1.188 -0.141,0.785 -0.223,1.668 -0.079,2.464 0.118,0.618 0.055,1.305 0.051,1.942 0,0.308 -0.015,0.594 0.09,0.89 0.035,0.094 0.078,0.282 0.133,0.348 0.133,0.168 0.316,0.266 0.433,0.469 0.18,0.312 0.352,0.687 0.512,1.012 0.168,0.336 0.297,0.675 0.473,1.007 0.187,0.356 0.25,0.754 0.355,1.149 0.168,0.652 0.36,1.379 0.457,2.039 0.426,0 0.84,0.078 1.129,-0.074 0.379,-0.207 0.567,-0.578 0.617,-1.039 0.059,-0.481 -0.078,-1.039 -0.203,-1.493 -0.195,-0.734 -0.578,-1.398 -0.699,-2.156"
         style="fill:#21201d;fill-opacity:1;fill-rule:nonzero;stroke:none"
         id="path330" />
      <path
         d="m 796.383,550.754 c 0.074,0.172 0.14,0.336 0.172,0.496 0.027,0.117 0.023,0.258 0.019,0.402 -0.008,0.153 -0.012,0.313 0.016,0.481 0.019,0.148 0.055,0.297 0.086,0.449 0.047,0.207 0.094,0.398 0.097,0.586 0.004,0.031 0,0.059 0,0.086 -0.007,0.137 -0.027,0.367 0.172,0.566 0.063,0.063 0.153,0.098 0.239,0.098 0.027,0 0.054,-0.004 0.086,-0.016 0.113,-0.027 0.203,-0.113 0.238,-0.226 0.086,-0.305 0.152,-0.606 0.211,-0.895 l 0.043,-0.195 c 0.015,-0.082 0.062,-0.172 0.109,-0.266 0.063,-0.125 0.133,-0.265 0.164,-0.425 0.027,-0.129 0.024,-0.243 0.02,-0.344 0,-0.039 -0.004,-0.082 0,-0.129 0,-0.098 0.023,-0.203 0.047,-0.313 0.027,-0.121 0.054,-0.246 0.062,-0.382 0.012,-0.149 0.008,-0.301 0,-0.446 0,-0.078 -0.004,-0.16 -0.004,-0.234 0.004,-0.516 -0.062,-0.957 -0.133,-1.363 -0.035,-0.204 -0.054,-0.411 -0.078,-0.625 -0.019,-0.204 -0.043,-0.407 -0.078,-0.614 -0.027,-0.175 -0.023,-0.367 -0.019,-0.562 l 0.007,-0.137 c 0,-0.199 -0.039,-0.328 -0.07,-0.434 -0.012,-0.042 -0.023,-0.085 -0.035,-0.136 -0.043,-0.254 -0.031,-0.567 -0.016,-0.867 0.008,-0.153 0.012,-0.301 0.012,-0.446 0,-0.105 -0.051,-0.207 -0.137,-0.269 -0.086,-0.067 -0.199,-0.082 -0.301,-0.051 -0.199,0.062 -0.332,0.019 -0.515,-0.039 -0.152,-0.047 -0.328,-0.102 -0.531,-0.09 -0.407,0.031 -0.875,0.277 -1.215,0.457 l -0.067,0.035 c -0.316,0.172 -0.742,0.473 -0.773,1.156 -0.023,0.594 0.215,1.016 0.445,1.422 0.067,0.118 0.133,0.231 0.196,0.352 0.046,0.094 0.082,0.187 0.121,0.281 0.058,0.141 0.121,0.289 0.203,0.438 0.058,0.101 0.125,0.195 0.195,0.297 0.067,0.097 0.137,0.195 0.184,0.289 0.09,0.179 0.191,0.347 0.293,0.515 0.168,0.274 0.324,0.532 0.429,0.828 0.032,0.09 0.071,0.18 0.106,0.27"
         style="fill:#21201d;fill-opacity:1;fill-rule:nonzero;stroke:none"
         id="path332" />
      <path
         d="m 802.152,549.043 c 0.024,-0.164 0.051,-0.328 0.078,-0.488 l 0.047,-0.278 c 0.024,-0.136 0.067,-0.277 0.114,-0.422 0.031,-0.105 0.066,-0.207 0.089,-0.312 0.094,-0.359 0.09,-0.699 0.086,-1.031 v -0.063 c -0.004,-0.738 -0.004,-1.469 0,-2.207 v -1 c 0,-0.039 -0.007,-0.074 -0.019,-0.113 -0.164,-0.473 -0.867,-0.484 -1.422,-0.352 -0.539,0.133 -0.977,0.219 -1.473,0.239 -0.257,0.007 -0.453,0.097 -0.582,0.257 -0.226,0.282 -0.156,0.668 -0.093,1.008 0.023,0.137 0.05,0.278 0.05,0.383 0.004,0.551 0.008,1.07 0.129,1.637 0.004,0.004 0.133,0.562 0.364,0.742 0.14,0.113 0.308,0.156 0.464,0.121 0.301,-0.074 0.454,-0.391 0.532,-0.539 0.027,-0.055 0.054,-0.137 0.089,-0.23 0.016,-0.055 0.047,-0.137 0.079,-0.215 0.144,0.277 0.207,0.672 0.265,1.023 0.016,0.106 0.035,0.211 0.051,0.305 l 0.035,0.187 c 0.07,0.344 0.141,0.7 0.141,1.032 0.004,0.054 -0.004,0.113 -0.004,0.179 -0.016,0.285 -0.039,0.676 0.223,0.957 0.066,0.071 0.156,0.106 0.246,0.106 0.078,0 0.156,-0.024 0.218,-0.078 0.231,-0.2 0.262,-0.512 0.286,-0.743 0.003,-0.039 0.003,-0.074 0.007,-0.105"
         style="fill:#21201d;fill-opacity:1;fill-rule:nonzero;stroke:none"
         id="path334" />
      <path
         d="m 816.816,575.469 c -0.004,-0.223 0.036,-0.395 0.098,-0.61 0.063,-0.218 0.059,-0.394 0.098,-0.609 0.05,-0.289 0.109,-0.582 0.152,-0.875 0.027,-0.176 0.148,-0.52 0.27,-0.652 0.175,0.156 0.25,0.293 0.347,0.515 0.078,0.184 0.11,0.317 0.313,0.317 0.226,0 0.359,-0.258 0.476,-0.461 0.067,-0.106 0.086,-0.223 0.118,-0.336 0.019,-0.074 0.074,-0.227 0.082,-0.297 0.023,-0.145 -0.028,-0.293 0.003,-0.438 0.036,-0.171 0.137,-0.316 0.176,-0.492 0.098,-0.461 0.055,-0.969 0.121,-1.437 0.055,-0.399 0.082,-0.844 0.18,-1.231 0.035,-0.133 0.18,-0.871 0.328,-0.89 0.16,0.125 0.09,0.363 0.137,0.543 0.07,0.293 0.195,0.511 0.207,0.828 0.023,0.402 0.031,0.676 0.129,1.058 0.086,0.325 0.144,0.66 0.211,0.989 0.156,0.781 0.039,1.648 0.09,2.445 0.011,0.191 0.074,0.355 0.121,0.535 0.039,0.168 0.078,0.293 0.187,0.438 0.121,0.16 0.231,0.152 0.399,0.211 0.203,0.066 0.171,0.066 0.257,0.269 0.106,0.25 0.223,0.531 0.227,0.824 0.008,0.371 0.051,0.75 0.043,1.125 0,0.09 -0.004,0.184 -0.012,0.278 -0.039,0.468 -0.324,0.527 -0.746,0.433 -0.234,-0.054 -0.437,-0.176 -0.66,-0.242 -0.164,-0.051 -0.348,-0.062 -0.512,-0.105 -0.281,-0.082 -0.609,-0.094 -0.91,-0.055 -0.703,0.09 0.098,1.156 -0.461,1.41 -0.234,0.109 -0.64,-0.051 -0.836,-0.133 -0.511,-0.226 -1.062,-0.308 -1.183,-0.953 -0.172,-0.91 0.566,-1.57 0.55,-2.402"
         style="fill:#21201d;fill-opacity:1;fill-rule:nonzero;stroke:none"
         id="path336" />
      <path
         d="m 789.57,572.953 c 0.293,0.055 0.723,0.188 0.981,-0.039 0.172,-0.156 0.121,-0.352 0.16,-0.555 0.035,-0.187 0.137,-0.375 0.18,-0.566 0.074,-0.336 0.117,-0.684 0.191,-1.02 0.078,-0.378 0,-0.781 0.02,-1.164 0.023,-0.605 0.136,-1.558 0.582,-2.019 0.175,0.238 0.203,0.629 0.3,0.906 0.098,0.281 0.196,0.563 0.305,0.836 0.223,0.555 0.363,1.172 0.625,1.711 0.152,0.309 0.215,0.594 0.383,0.879 0.129,0.215 0.226,0.457 0.277,0.683 0.09,0.391 0.242,0.79 0.231,1.192 -0.004,0.125 -0.028,0.242 -0.012,0.367 0.031,0.215 0.121,0.422 0.172,0.629 0.109,0.449 0.16,0.914 0.16,1.379 0.004,0.285 0.051,0.465 0.125,0.734 0.121,0.414 0.246,0.699 0.113,1.137 -0.082,0.273 -0.175,0.613 -0.379,0.828 -0.226,0.234 -0.464,0.172 -0.754,0.113 -0.414,-0.082 -0.5,-0.16 -0.738,-0.504 -0.012,-0.011 -0.019,-0.027 -0.027,-0.035 -0.149,-0.23 -0.211,-0.437 -0.274,-0.699 -0.074,-0.312 -0.273,-0.601 -0.382,-0.906 -0.11,-0.305 -0.266,-0.625 -0.543,-0.813 -0.278,-0.187 -0.496,-0.152 -0.817,-0.191 -0.156,-0.02 -0.312,-0.09 -0.469,-0.129 -0.289,-0.066 -0.484,-0.098 -0.675,-0.332 -0.164,-0.203 -0.352,-0.371 -0.532,-0.555 -0.386,-0.402 -0.464,-1.175 -0.082,-1.605 0.219,-0.25 0.559,-0.324 0.879,-0.262"
         style="fill:#21201d;fill-opacity:1;fill-rule:nonzero;stroke:none"
         id="path338" />
    </g>
    <g
       id="g346"
       transform="matrix(0.18405616,0,0,0.18405792,215.27727,-93.246317)">
      <g
         clip-path="url(#clipPath116)"
         id="g344">
        <path
           d="m 794.969,577.094 c 0.008,-0.192 0.07,-0.301 0.097,-0.469 0.032,-0.203 0,-0.402 0.032,-0.605 0.031,-0.188 0.066,-0.344 0.078,-0.551 0.008,-0.227 0.074,-0.375 0.133,-0.582 0.046,-0.18 0.035,-0.391 0.093,-0.563 0.102,-0.293 0.274,-0.535 0.52,-0.699 0.211,0.324 0.269,0.68 0.383,1.039 0.125,0.398 0.234,0.828 0.336,1.242 0.023,0.121 0.047,0.246 0.066,0.367 0.184,-0.226 0.359,-0.453 0.481,-0.738 0.191,-0.465 0.144,-0.914 0.246,-1.387 0.175,-0.804 0.296,-1.64 0.566,-2.406 0.094,-0.273 0.195,-0.543 0.281,-0.824 0.157,-0.516 0.383,-1.102 0.446,-1.637 0.046,-0.41 -0.008,-0.812 0.07,-1.222 0.062,-0.368 0.109,-0.715 0.125,-1.082 0.008,-0.266 0.191,-0.375 0.418,-0.168 0.133,0.121 0.156,0.406 0.222,0.597 0.184,0.555 0.188,1.192 0.258,1.77 0.055,0.441 -0.031,0.89 0.047,1.328 0.071,0.414 0.031,0.832 0.102,1.242 0.054,0.324 0.125,0.637 0.191,0.961 0.129,0.605 0.363,1.129 0.402,1.754 0.024,0.289 0.024,0.508 0.075,0.797 0.031,0.172 0.078,0.359 0.105,0.527 0.031,0.203 0,0.406 0.043,0.61 0.051,0.246 0.153,0.468 0.207,0.714 0.067,0.309 0.227,0.547 0.387,0.809 0.223,0.363 0.574,0.559 0.824,0.879 0.207,0.269 0.27,0.676 0.301,1.015 0.058,0.637 0.101,1.231 0.101,1.872 0,0.41 0.024,0.73 -0.105,1.105 -0.059,0.176 -0.012,0.215 -0.211,0.32 -0.16,0.082 -0.344,0.106 -0.508,0.18 -0.136,0.059 -0.183,0.121 -0.347,0.109 -0.231,-0.019 -0.504,-0.234 -0.633,-0.429 -0.016,-0.02 -0.024,-0.035 -0.031,-0.055 -0.055,-0.113 -0.079,-0.269 -0.098,-0.375 -0.039,-0.195 -0.082,-0.434 -0.106,-0.637 -0.035,-0.39 -0.097,-0.746 -0.195,-1.14 -0.07,-0.289 -0.129,-0.567 -0.449,-0.684 -0.317,-0.117 -0.68,-0.168 -1.02,-0.105 -0.398,0.07 -0.761,0.242 -1.156,0.336 -0.371,0.086 -0.746,0.078 -1.125,0.07 -0.226,-0.008 -0.469,0.008 -0.668,-0.117 -0.605,-0.375 -0.969,-1.477 -0.801,-2.117 -0.121,-0.079 -0.179,-0.172 -0.183,-0.395 0,-0.219 -0.008,-0.441 0,-0.656"
           style="fill:#21201d;fill-opacity:1;fill-rule:nonzero;stroke:none"
           id="path342" />
      </g>
    </g>
  </g>
</svg>
