<?xml version="1.0" encoding="UTF-8" standalone="no"?>
<!-- Created with Inkscape (http://www.inkscape.org/) -->

<svg
   width="8.2834234mm"
   height="8.1829453mm"
   viewBox="0 0 8.2834234 8.1829453"
   version="1.1"
   id="svg2603"
   inkscape:version="1.1.2 (0a00cf5339, 2022-02-04)"
   sodipodi:docname="re1.svg"
   xmlns:inkscape="http://www.inkscape.org/namespaces/inkscape"
   xmlns:sodipodi="http://sodipodi.sourceforge.net/DTD/sodipodi-0.dtd"
   xmlns="http://www.w3.org/2000/svg"
   xmlns:svg="http://www.w3.org/2000/svg">
  <sodipodi:namedview
     id="namedview2605"
     pagecolor="#ffffff"
     bordercolor="#666666"
     borderopacity="1.0"
     inkscape:pageshadow="2"
     inkscape:pageopacity="0.0"
     inkscape:pagecheckerboard="0"
     inkscape:document-units="mm"
     showgrid="false"
     inkscape:zoom="0.64052329"
     inkscape:cx="-70.255057"
     inkscape:cy="-2.3418352"
     inkscape:window-width="2560"
     inkscape:window-height="1376"
     inkscape:window-x="0"
     inkscape:window-y="0"
     inkscape:window-maximized="1"
     inkscape:current-layer="layer1" />
  <defs
     id="defs2600">
    <clipPath
       clipPathUnits="userSpaceOnUse"
       id="clipPath264">
      <path
         d="M 783.184,1046 H 829 v 45 h -45.816 z"
         id="path262" />
    </clipPath>
  </defs>
  <g
     inkscape:label="Layer 1"
     inkscape:groupmode="layer"
     id="layer1"
     transform="translate(-123.49807,-149.15887)">
    <g
       id="g638"
       transform="matrix(0.18405616,0,0,0.18405792,-20.743073,-43.458197)">
      <g
         clip-path="url(#clipPath264)"
         id="g636">
        <path
           d="m 801.141,1066.141 c -0.239,-0.028 -0.434,-0.036 -0.621,-0.075 -0.836,-0.171 -1.012,-0.027 -1.032,0.844 0,0.031 0.012,0.063 0.008,0.09 -0.019,0.531 -0.215,0.746 -0.742,0.848 -0.207,0.039 -0.414,0.086 -0.621,0.129 -0.586,0.125 -0.813,0 -1.024,-0.598 -0.129,-0.367 -0.218,-0.742 -0.336,-1.145 h -1.238 c -0.09,0.348 -0.18,0.692 -0.254,0.965 0.145,0.34 0.242,0.621 0.375,0.883 0.149,0.289 0.278,0.617 0.508,0.828 0.277,0.254 0.648,0.406 0.981,0.606 0.179,0.109 0.378,0.339 0.531,0.312 0.547,-0.109 1.074,0.168 1.605,0.031 0.133,-0.039 0.25,-0.156 0.371,-0.242 1.215,-0.859 1.434,-2.129 1.489,-3.476 m 2.281,-5.434 c -0.234,1.016 -0.098,1.805 0.726,2.359 0.028,0.016 0.04,0.047 0.055,0.075 0.367,0.543 0.922,0.746 1.531,0.851 0.18,0.031 0.379,0.012 0.532,0.09 0.629,0.34 1.14,0.121 1.66,-0.262 0.636,-0.468 0.926,-1.172 1.262,-1.84 0.058,-0.121 0.015,-0.3 0.015,-0.449 0,-0.324 0,-0.652 -0.004,-0.976 0,-0.457 -0.238,-0.664 -0.703,-0.571 -0.289,0.063 -0.574,0.161 -0.855,0.243 -0.207,1.753 -0.422,1.98 -1.774,2.074 -0.285,-0.297 -0.488,-0.508 -0.742,-0.77 -0.02,0.063 0.031,-0.023 0.035,-0.109 0.031,-0.59 -0.051,-0.684 -0.648,-0.711 -0.36,-0.016 -0.719,0 -1.09,0 m 11.863,5.731 c -0.012,0.113 -0.019,0.144 -0.019,0.171 0.019,1.106 0.019,1.106 -1.063,1.321 -0.738,0.144 -1.133,-0.098 -1.332,-0.817 -0.07,-0.254 -0.16,-0.5 -0.23,-0.718 -0.223,-0.01 -0.344,-0.02 -0.465,-0.024 -0.813,0 -1.028,0.18 -1.106,0.973 -0.015,0.148 0.035,0.301 0.055,0.449 0.105,0.754 0.543,1.289 1.145,1.715 0.691,0.488 1.539,0.496 2.257,0.375 0.77,-0.129 1.481,-0.645 2.192,-1.035 0.176,-0.098 0.34,-0.379 0.359,-0.59 0.063,-0.668 0.242,-1.36 -0.121,-2.043 -0.539,0.027 -1.125,-0.176 -1.672,0.223 m 1.027,-1.004 c 0.032,-0.141 0.071,-0.204 0.055,-0.258 -0.133,-0.614 -0.289,-1.227 -0.422,-1.844 -0.14,-0.641 -0.488,-1.215 -0.574,-1.879 -0.059,-0.441 -0.121,-0.918 -0.324,-1.305 -0.262,-0.496 -0.379,-1.007 -0.52,-1.535 -0.105,-0.383 -0.218,-0.789 -0.711,-1.109 -0.445,2.742 -1.082,5.344 -2.07,8.004 1.602,-0.164 3.094,0.109 4.566,-0.074 m -14.644,4.457 c 0.578,-0.032 0.996,-0.055 1.414,-0.075 0.082,-0.01 0.18,-0.039 0.238,0 1.016,0.649 2.168,1.145 2.758,2.317 0.117,0.23 0.301,0.422 0.461,0.64 2.574,-2.445 2.574,-2.445 3.789,-2.89 -0.668,-1.012 -1.672,-1.504 -2.754,-1.824 -0.558,-0.161 -1.168,-0.2 -1.758,-0.196 -0.597,0 -1.195,0.117 -1.789,0.211 -0.132,0.024 -0.25,0.164 -0.367,0.258 -0.617,0.484 -1.234,0.965 -1.992,1.559 m 1.57,-10.321 c 0.43,0.071 0.774,0.223 1.063,0.153 1.043,-0.258 2.094,-0.336 3.164,-0.336 0.484,0 0.949,-0.078 1.344,-0.395 -0.039,-0.094 -0.051,-0.156 -0.09,-0.203 -0.879,-1.098 -1.067,-2.504 -1.672,-3.719 -0.051,-1.254 -0.742,-2.363 -0.82,-3.613 -0.012,-0.148 -0.149,-0.281 -0.243,-0.461 -0.101,0.113 -0.156,0.152 -0.175,0.203 -0.036,0.086 -0.075,0.184 -0.063,0.266 0.156,0.937 -0.254,1.797 -0.457,2.656 -0.234,0.977 -0.559,1.969 -1.094,2.859 -0.121,0.204 -0.293,0.438 -0.277,0.649 0.031,0.523 -0.191,0.93 -0.438,1.348 -0.078,0.125 -0.117,0.269 -0.242,0.593 m -2.011,5.653 c -0.196,-0.207 -0.387,-0.36 -0.364,-0.403 0.325,-0.66 -0.269,-1.066 -0.418,-1.59 -0.039,-0.14 -0.187,-0.257 -0.195,-0.394 -0.051,-0.949 -0.871,-1.652 -0.836,-2.629 0.004,-0.109 -0.066,-0.242 -0.141,-0.328 -0.328,-0.387 -0.421,-0.852 -0.543,-1.32 -0.109,-0.414 -0.25,-0.848 -0.644,-1.145 -0.227,0.469 -0.391,1.258 -0.352,1.582 0.016,0.137 0.071,0.328 0,0.41 -0.718,0.895 -0.843,2.047 -1.285,3.059 -0.324,0.742 -0.609,1.5 -1.019,2.203 -0.266,0.461 -0.102,0.863 0.39,0.777 0.821,-0.14 1.629,0.149 2.414,-0.011 0.786,-0.164 1.567,-0.118 2.352,-0.149 0.148,-0.01 0.301,-0.027 0.641,-0.062 m -6.481,11.539 c 0.066,-0.09 0.184,-0.196 0.246,-0.328 0.067,-0.133 0.063,-0.293 0.117,-0.43 0.055,-0.141 0.118,-0.281 0.215,-0.391 0.969,-1.129 2.223,-1.718 3.684,-1.898 0.414,-0.047 0.863,-0.141 1.246,-0.035 0.414,0.117 0.844,0.14 1.226,0.277 0.372,0.129 0.625,0.555 0.977,0.77 0.813,0.492 1.238,1.316 1.809,2.015 0.129,0.156 0.101,0.305 0.101,0.492 -0.004,0.938 0.047,1.879 0.082,2.817 0.008,0.277 -0.047,0.476 -0.25,0.722 -0.363,0.43 -0.582,0.981 -0.894,1.454 -0.129,0.191 -0.344,0.335 -0.528,0.484 -0.472,0.387 -0.953,0.762 -1.457,1.168 1.035,0.539 2.008,1.137 3.176,1.254 0.512,0.051 1.047,0.051 1.516,0.23 0.508,0.196 1.008,-0.289 1.484,0.071 0.035,0.031 0.16,-0.051 0.246,-0.082 0.281,-0.102 0.555,-0.223 0.844,-0.301 0.734,-0.192 1.406,-0.485 2,-0.973 0.34,-0.277 0.742,-0.488 1.137,-0.738 -0.176,-0.094 -0.305,-0.164 -0.446,-0.231 -0.043,-0.023 -1.168,-0.589 -1.207,-0.617 -0.832,-0.527 -1.175,-1.355 -1.398,-2.254 -0.074,-0.297 -0.145,-0.593 -0.215,-0.886 -0.156,-0.625 -0.453,-1.243 -0.027,-1.891 0.09,-0.133 0.023,-0.359 0.062,-0.535 0.063,-0.262 0.113,-0.543 0.242,-0.774 0.536,-0.957 1.454,-1.535 2.262,-2.218 0.149,-0.129 0.399,-0.141 0.598,-0.204 0.718,-0.226 1.468,-0.328 2.203,-0.488 1.355,-0.304 2.301,0.309 3.125,1.215 0.937,1.027 0.875,2.285 0.605,3.531 -0.183,0.844 -0.589,1.133 -1.441,1.239 -0.121,0.011 -0.242,0.05 -0.363,0.074 0.168,0.183 0.336,0.269 0.492,0.258 0.234,-0.016 0.473,-0.086 0.691,-0.172 0.68,-0.266 1.375,-0.496 2.012,-0.84 0.453,-0.242 0.691,-0.719 0.914,-1.199 0.242,-0.52 0.629,-0.957 0.586,-1.59 -0.023,-0.422 0.246,-0.672 0.652,-0.754 0.852,-0.176 1.598,-0.586 2.262,-1.117 0.363,-0.293 0.781,-0.688 0.879,-1.102 0.16,-0.664 0.207,-1.398 -0.254,-2.027 -0.141,-0.188 -0.23,-0.41 -0.363,-0.649 -0.473,-0.01 -0.922,-0.394 -1.477,-0.175 0.301,0.195 0.578,0.371 0.879,0.57 0,0.328 0.02,0.633 -0.004,0.934 -0.078,0.894 -0.875,1.609 -1.715,1.457 -0.425,-0.079 -0.843,-0.309 -1.218,-0.551 -0.649,-0.41 -1.371,-0.703 -2.098,-0.789 -0.844,-0.102 -1.719,0.035 -2.578,0.105 -0.465,0.031 -0.961,0 -1.363,0.324 -0.958,-0.113 -1.84,0.137 -2.708,0.5 -0.109,0.047 -0.234,0.137 -0.335,0.121 -0.938,-0.167 -1.461,0.637 -2.192,0.942 -0.238,0.101 -0.379,0.414 -0.609,0.543 -0.215,0.117 -0.496,0.09 -0.735,0.164 -0.543,0.176 -1.074,0.379 -1.601,0.566 -0.18,-0.175 -0.317,-0.3 -0.445,-0.425 -0.813,-0.793 -1.536,-1.715 -2.782,-1.864 -1.347,-0.703 -2.82,-0.734 -4.289,-0.836 -0.566,-0.035 -1.117,0.321 -1.687,0.043 -0.063,-0.031 -0.176,0.035 -0.262,0.059 -1.16,0.32 -2.199,0.976 -3.383,1.246 -0.054,0.01 -0.105,0.055 -0.152,0.094 -0.567,0.465 -1.235,-0.01 -1.828,0.195 -0.649,-0.441 -1.41,-0.793 -1.434,-1.746 -0.008,-0.309 -0.094,-0.574 -0.371,-0.836 -0.195,0.301 -0.539,0.613 -0.48,0.785 0.175,0.492 -0.129,0.844 -0.247,1.203 0.528,1.004 1.368,1.532 2.34,1.719 0.344,0.066 0.672,0.191 1.098,0.32 1.066,-0.285 1.289,-0.23 1.5,0.426 -0.215,0.199 -0.582,0.387 -0.613,0.613 -0.043,0.325 -0.164,0.598 -0.254,0.891 -0.047,0.164 0.054,0.426 0.172,0.57 0.261,0.325 0.566,0.621 0.882,0.895 0.5,0.43 0.973,0.937 1.688,0.961 0.504,0.012 0.988,-0.121 1.512,0.012 0.199,0.05 0.507,-0.278 0.746,-0.465 0.062,-0.047 0.043,-0.2 0.058,-0.297 -0.461,-0.223 -0.617,0.285 -0.996,0.285 -0.875,-0.324 -1.675,-0.773 -1.867,-1.906 m 33.145,-8.227 c 0.644,0.606 0.648,1.445 0.738,2.195 0.055,0.465 0.156,1.055 -0.207,1.536 -0.098,0.129 -0.094,0.339 -0.129,0.519 -0.184,0.867 -0.355,1.738 -0.559,2.606 -0.066,0.289 -0.351,0.574 -0.308,0.824 0.129,0.789 -0.461,1.265 -0.703,1.883 -0.067,0.168 -0.223,0.297 -0.285,0.464 -0.352,0.973 -1.083,1.684 -1.801,2.352 -0.598,0.551 -1.078,1.188 -1.367,1.887 -0.243,0.59 -0.696,0.812 -1.118,1.137 -0.324,0.25 -0.656,0.5 -1.019,0.691 -0.367,0.195 -0.586,0.492 -0.84,0.801 -0.34,0.418 -0.813,0.73 -1.219,1.097 -0.203,0.184 -0.422,0.364 -0.574,0.59 -0.48,0.719 -1.129,1.051 -1.984,1.25 -0.954,0.227 -1.907,0.543 -2.789,1.051 -0.614,0.348 -1.368,0.477 -2.075,0.629 -0.824,0.18 -1.668,0.277 -2.504,0.402 -0.722,0.113 -1.425,0.289 -2.199,0.196 -0.683,-0.083 -1.414,0.093 -2.109,0.226 -0.457,0.09 -0.883,0.137 -1.344,0 -0.316,-0.09 -0.656,-0.09 -0.984,-0.152 -1.399,-0.262 -2.688,-0.821 -3.93,-1.5 -0.644,0.082 -0.961,-0.614 -1.551,-0.649 -0.578,-0.031 -1.066,-0.375 -1.672,-0.394 -0.617,-0.012 -1.035,-0.586 -1.507,-0.953 -0.739,-0.579 -1.54,-1.125 -2.125,-1.84 -0.508,-0.617 -1.305,-0.953 -1.629,-1.75 -0.09,-0.223 -0.379,-0.379 -0.602,-0.532 -0.82,-0.582 -1.601,-1.187 -1.992,-2.164 -0.024,-0.054 -0.07,-0.101 -0.109,-0.144 -0.614,-0.668 -1.106,-1.379 -1.301,-2.317 -0.184,-0.906 -0.606,-1.761 -0.86,-2.66 -0.144,-0.515 -0.203,-1.066 -0.218,-1.605 -0.02,-0.559 -0.168,-1.047 -0.403,-1.555 -0.301,-0.648 -0.492,-1.351 -0.691,-2.047 -0.11,-0.367 -0.133,-0.761 -0.203,-1.148 -0.172,-0.91 0.265,-1.695 0.543,-2.508 0.355,-1.062 0.636,-2.125 0.754,-3.25 0.07,-0.68 0,-1.426 0.5,-2.023 0.109,-0.133 0.214,-0.336 0.203,-0.5 -0.067,-0.789 0.371,-1.399 0.703,-2.039 0.355,-0.688 0.793,-1.329 1.262,-1.95 0.109,-0.14 0.211,-0.304 0.246,-0.472 0.16,-0.789 0.461,-1.395 1.226,-1.856 0.746,-0.449 1.219,-1.269 1.692,-2.027 0.293,-0.461 0.578,-0.914 1.082,-1.192 0.207,-0.109 0.347,-0.339 0.508,-0.523 0.378,-0.434 0.781,-0.773 1.382,-0.949 0.492,-0.145 0.992,-0.348 1.442,-0.715 0.89,-0.731 1.914,-1.289 3.054,-1.547 0.618,-0.141 1.266,-0.144 1.895,-0.246 0.652,-0.109 1.309,-0.246 1.949,-0.414 0.223,-0.059 0.438,-0.227 0.61,-0.387 0.363,-0.34 0.781,-0.383 1.246,-0.359 0.933,0.039 1.882,-0.016 2.789,0.117 1.285,0.184 2.621,-0.102 3.863,0.461 0.344,0.156 0.773,0.187 1.164,0.18 1.531,-0.036 2.73,0.695 3.832,1.644 0.836,0.727 1.774,1.258 2.813,1.633 0.054,0.019 0.117,0.051 0.175,0.043 0.926,-0.098 1.34,0.562 1.786,1.184 0.242,0.347 0.468,0.707 0.718,1.054 0.125,0.168 0.258,0.371 0.434,0.453 0.777,0.352 1.289,0.926 1.64,1.696 0.2,0.437 0.504,0.828 0.793,1.215 0.547,0.73 1.133,1.429 1.661,2.171 0.621,0.871 1.109,1.813 1.132,2.911 0.016,0.8 0.532,1.41 0.731,2.14 0.242,0.871 0.566,1.723 0.723,2.61 0.148,0.839 0.042,1.699 -0.379,2.515"
           style="fill:#21201d;fill-opacity:1;fill-rule:nonzero;stroke:none"
           id="path634" />
      </g>
    </g>
  </g>
</svg>
