<?xml version="1.0" encoding="UTF-8" standalone="no"?>
<!-- Created with Inkscape (http://www.inkscape.org/) -->

<svg
   width="4.7379131mm"
   height="7.2794371mm"
   viewBox="0 0 4.7379131 7.2794371"
   version="1.1"
   id="svg2116"
   inkscape:version="1.1.2 (0a00cf5339, 2022-02-04)"
   sodipodi:docname="re2.svg"
   xmlns:inkscape="http://www.inkscape.org/namespaces/inkscape"
   xmlns:sodipodi="http://sodipodi.sourceforge.net/DTD/sodipodi-0.dtd"
   xmlns="http://www.w3.org/2000/svg"
   xmlns:svg="http://www.w3.org/2000/svg">
  <sodipodi:namedview
     id="namedview2118"
     pagecolor="#ffffff"
     bordercolor="#666666"
     borderopacity="1.0"
     inkscape:pageshadow="2"
     inkscape:pageopacity="0.0"
     inkscape:pagecheckerboard="0"
     inkscape:document-units="mm"
     showgrid="false"
     inkscape:zoom="0.64052329"
     inkscape:cx="-947.66265"
     inkscape:cy="556.57617"
     inkscape:window-width="2560"
     inkscape:window-height="1376"
     inkscape:window-x="0"
     inkscape:window-y="0"
     inkscape:window-maximized="1"
     inkscape:current-layer="layer1" />
  <defs
     id="defs2113" />
  <g
     inkscape:label="Layer 1"
     inkscape:groupmode="layer"
     id="layer1"
     transform="translate(-355.76622,-1.3171661)">
    <path
       d="m 360.42827,6.017579 c -0.0705,-0.068285 -0.18627,0.00865 -0.24811,-0.096262 -0.0431,-0.074175 -0.0985,-0.1417246 -0.12939,-0.2214216 -0.0784,0.013621 -0.049,0.084114 -0.0747,0.1236867 -0.0618,0.00847 -0.0749,-0.053193 -0.11374,-0.076936 0.0245,-0.082826 -0.0718,-0.1165084 -0.0762,-0.1978621 -0.004,-0.060371 -0.0804,-0.1150362 -0.12148,-0.1746709 -0.0453,-0.066813 -0.0567,-0.161787 -0.10638,-0.2120349 -0.0676,-0.070494 -0.0532,-0.1538725 -0.0856,-0.2278638 -0.0495,-0.1150359 -0.20633,-0.4645621 -0.27535,-0.5672663 -0.0366,-0.053929 -0.0611,-0.1187174 -0.10491,-0.1662045 -0.0569,-0.060371 -0.1259,-0.1098825 -0.19271,-0.1603142 -0.0136,-0.010125 -0.0425,-0.00148 -0.0755,-0.00148 0.004,0.061107 -0.0267,0.1201896 0.0245,0.1783521 0.0136,0.015829 0.004,0.05172 0.004,0.078409 0,0.097735 -0.003,0.1954696 7.1e-4,0.2926521 0.008,0.1991505 -0.0547,0.3859693 -0.10491,0.5737084 -0.0203,0.077673 -0.046,0.1546087 -0.0591,0.2343058 -0.007,0.045278 -0.0114,0.094238 -0.0337,0.1323376 -0.0648,0.1128275 -0.0173,0.1956537 0.0611,0.2738783 0.008,0.00718 0.0158,0.014358 0.0302,0.028162 0.0186,-0.012333 0.0403,-0.037364 0.0611,-0.036812 0.17467,0.00515 0.34511,-0.055217 0.52199,-0.035154 0.0826,0.00939 0.11503,0.047487 0.14227,0.1350987 0.0195,0.061107 -0.002,0.1130113 -0.004,0.1682288 -0.003,0.056138 0.0237,0.1172449 -0.0281,0.1676766 -0.0107,0.010675 -7.1e-4,0.041597 -0.004,0.062396 -0.009,0.061843 0.0215,0.1281042 -0.0208,0.1862667 -0.0376,0.052456 0.023,0.130865 -0.044,0.1768796 0.0237,0.1437492 -0.0653,0.2703809 -0.0639,0.410633 10e-4,0.0762 -0.0821,0.1207421 -0.0655,0.2004391 -0.0977,0.1157725 -0.0755,0.269645 -0.12516,0.4019825 -0.0156,0.045278 0.0166,0.1236871 0.0497,0.1697017 0.049,0.066077 0.0272,0.1474304 0.072,0.2149796 0.0374,0.05669 0.0495,0.130865 0.0668,0.1984142 0.008,0.030921 0.003,0.064789 7.1e-4,0.096999 -0.002,0.042518 -0.0267,0.068285 -0.069,0.071967 -0.0425,0.00293 -0.0863,7.408e-4 -0.12019,7.408e-4 -0.0711,-0.046015 -0.1351,-0.087796 -0.19915,-0.1293929 -0.008,-0.00515 -0.0236,-0.00515 -0.0265,-0.011596 -0.0576,-0.1279204 -0.19695,-0.1890275 -0.25382,-0.3169479 -0.0151,-0.031658 -0.0331,-0.065525 -0.0582,-0.088532 -0.069,-0.065341 -0.0712,-0.1336262 -0.0237,-0.2112987 0.0626,-0.1036246 0.0661,-0.2337534 0.1581,-0.3250463 0.0237,-0.024479 0.0215,-0.077672 0.0245,-0.1185333 0.005,-0.088532 0.10932,-0.1431971 0.0819,-0.2416679 0.0633,-0.06534 0.0547,-0.1639955 0.1051,-0.231545 0.0307,-0.041597 0.0208,-0.080433 0.0243,-0.1207417 0.004,-0.050248 -0.023,-0.073255 -0.0703,-0.088532 -0.0907,-0.02945 -0.18203,-0.040861 -0.28842,-0.023559 0.026,0.1343625 -0.0324,0.2392754 -0.12571,0.3305683 0.0258,0.066997 -0.11007,0.038836 -0.067,0.1157725 -0.0309,0.036075 -0.0646,0.069758 -0.0906,0.1085942 -0.028,0.041781 -0.0445,0.090556 -0.0725,0.1316012 -0.021,0.030921 -0.0512,0.054665 -0.0769,0.081906 -0.0512,0.05264 -0.0987,0.1071216 -0.14173,0.1676767 -0.0403,0.057426 -0.12442,0.084667 -0.16325,0.1422766 -0.0856,0.1244233 -0.20062,0.2184767 -0.30775,0.336458 0.0455,0.061107 0.0987,0.1179812 0.13602,0.1840579 0.0503,0.091293 0.0955,0.1877391 0.12939,0.28621 0.0158,0.046015 0.0101,0.1027045 -0.0282,0.1487188 -0.0272,0.033129 -0.0589,0.042517 -0.11135,0.041045 -0.10289,-0.00148 -0.19915,-0.035891 -0.26247,-0.1071216 -0.11282,-0.1271842 -0.2078,-0.2689088 -0.30848,-0.4062159 -0.0423,-0.056874 -0.0683,-0.1380433 -0.1235,-0.1674925 -0.0641,-0.033867 -0.0425,-0.063316 -0.0267,-0.097735 0.0166,-0.036812 0.0425,-0.069758 0.0676,-0.1014158 0.0453,-0.056138 0.0898,-0.1122754 0.14099,-0.1632592 0.0561,-0.055402 0.12,-0.1028887 0.17761,-0.1566334 0.0552,-0.051905 0.10639,-0.1078579 0.16105,-0.1597624 0.028,-0.026504 0.0661,-0.044542 0.0869,-0.075464 0.0223,-0.031658 0.0447,-0.048775 0.0777,-0.067549 0.0316,-0.018775 0.0316,-0.08706 0.0626,-0.1128275 0.069,-0.056874 0.0898,-0.1360187 0.12295,-0.2135071 -0.049,-0.068469 -0.10418,-0.1258958 -0.19492,-0.1395158 -0.069,-0.010859 -0.1235,-0.047487 -0.16896,-0.1014162 -0.0453,-0.053929 -0.0985,-0.1006796 -0.14945,-0.1509275 -0.0151,-0.1288404 -0.0317,-0.258233 -0.046,-0.372533 0.0675,-0.086323 0.12295,-0.1625233 0.18406,-0.2328333 0.0453,-0.05264 0.0582,-0.12019 0.0891,-0.1741188 0.0346,-0.059635 -0.001,-0.1350987 0.0683,-0.1860825 0.0489,-0.036812 0.0697,-0.1093304 0.10583,-0.1639958 0.0639,-0.097735 0.0963,-0.21001 0.14448,-0.3134504 0.0359,-0.075464 0.0309,-0.1524 0.0316,-0.2308088 0,-0.048223 -0.002,-0.097735 0,-0.1459579 0.005,-0.091293 -0.005,-0.1768796 -0.0762,-0.2444288 -0.0101,-0.010125 -0.0217,-0.027425 -0.0203,-0.039573 0.0109,-0.120742 -0.048,-0.2164521 -0.11136,-0.317132 -0.0547,-0.013621 -0.0972,0.014358 -0.15166,0.038836 -0.23725,0.1071217 -0.42278,0.2775596 -0.61475,0.4551754 0,0.1638117 0.008,0.3314884 -0.004,0.4967722 -0.004,0.053929 0.0856,0.1006799 0.008,0.1531362 0.002,0.056138 -0.0251,0.1157725 0.0252,0.1667566 0.006,0.00589 -0.023,0.041045 -0.0272,0.064788 -0.0138,0.06534 -0.0274,0.1316013 -0.0324,0.1976783 -0.006,0.069758 -0.006,0.1409883 0,0.2107463 0.006,0.066813 -0.0274,0.1128275 -0.0675,0.1630754 -0.018,-0.050984 -0.10068,-0.073255 -0.0361,-0.1524 0.0274,-0.033683 -0.0272,-0.068286 -0.0819,-0.085587 -0.0223,0.080617 -0.009,0.1604984 -0.0101,0.2372508 -10e-4,0.1014159 -0.0309,0.1862663 -0.0898,0.2733259 -0.0331,0.049512 -0.0727,0.06534 -0.1143,0.076936 -0.0762,0.022271 -0.11946,-0.0173 -0.12001,-0.098471 -0.002,-0.1459583 -0.004,-0.2919162 7.1e-4,-0.4378741 0.002,-0.065525 0.0267,-0.1316013 0.0296,-0.1971259 0.002,-0.07031 0.0129,-0.13289 0.0624,-0.1868188 0.008,-0.00865 0.002,-0.030187 0.004,-0.046015 0.0109,-0.1308651 0.026,-0.2609942 0.0316,-0.3925955 0.005,-0.1343625 -7e-4,-0.2703812 0.002,-0.4047433 7e-4,-0.040309 0.005,-0.080618 0.0151,-0.1229508 0.0236,-0.097735 0.10491,-0.1358347 0.16749,-0.184058 0.10197,-0.0762 0.20264,-0.155345 0.30976,-0.2258391 0.2194,-0.1452217 0.40695,-0.3335129 0.64291,-0.4658505 0,-0.097735 -10e-4,-0.1941812 7.1e-4,-0.2904433 0,-0.035891 -0.005,-0.068285 0.023,-0.104913 0.0403,-0.053929 0.0534,-0.067733 0.12884,-0.053193 0.0258,0.00497 0.0539,5.644e-4 0.10712,5.644e-4 0.0186,-0.022271 0.0525,-0.057426 0.079,-0.096998 0.0217,-0.033129 0.0418,-0.070494 0.049,-0.1085941 0.0144,-0.08117 -0.023,-0.1704379 0.0339,-0.2459017 -0.0468,-0.092029 -0.0504,-0.2063287 -0.16178,-0.2644909 -0.0913,-0.047487 -0.17982,-0.076936 -0.28989,-0.056874 -0.0409,0.074727 -0.092,0.1516638 -0.12497,0.2352262 -0.0124,0.02945 0.0144,0.075464 0.025,0.1135638 0.0217,0.071046 0.0591,0.1257113 0.1338,0.1531359 0.097,0.035892 0.18903,-0.018038 0.1905,-0.1165084 0.002,-0.0762 -7e-4,-0.078409 -0.0942,-0.06755 -0.0215,0.00275 -0.0438,0.00349 -0.0646,0 -0.0633,-0.00939 -0.0871,-0.076936 -0.0502,-0.1316012 0.051,-0.074727 0.12276,-0.069758 0.19767,-0.05761 0.0453,0.058346 0.0891,0.1165088 0.14007,0.1835059 v 0.239275 c -0.0503,0.041045 -0.0977,0.079881 -0.15314,0.1236871 -0.0329,0 -0.0769,0.0057 -0.11779,-0.00148 -0.0388,-0.00644 -0.0935,-0.016383 -0.10933,-0.043806 -0.0841,-0.1409883 -0.22639,-0.2365146 -0.284,-0.4012463 -0.0295,-0.085403 -0.0467,-0.1746708 -0.0804,-0.2580491 0.0423,-0.05172 -0.0712,-0.080433 -0.018,-0.1437492 0.026,-0.030187 0.004,-0.094974 0.0201,-0.1365712 0.0346,-0.088532 0.0525,-0.1833217 0.0979,-0.2681722 0.048,-0.089268 0.11504,-0.1582899 0.20486,-0.2035683 0.0403,-0.0208 0.0804,-0.041045 0.12294,-0.05669 0.0238,-0.00865 0.0633,-0.019509 0.0733,-0.00865 0.0569,0.057426 0.12442,0.014358 0.20356,0.0381 0.0948,0.1071217 0.20265,0.2286 0.3083,0.3471333 0.12958,-0.00718 0.22952,0.059083 0.33664,0.1036246 0.0552,0.023008 0.0653,0.1185333 0.0215,0.1632592 -0.0281,0.028713 -0.0885,0.041597 -0.0957,0.071047 -0.0151,0.061843 -0.0653,0.036811 -0.0898,0.056874 -0.0648,0.053929 -0.10418,0.027975 -0.14816,-0.0208 -0.028,-0.030921 -0.0596,-0.059819 -0.0876,-0.088532 -0.0928,0.082642 -0.095,0.096446 -0.0309,0.1639955 0.0302,0.031658 0.0611,0.061107 0.1027,0.1027045 0.0532,-0.014358 0.12443,0.038836 0.17412,-0.042333 0.0366,0.046751 0.0646,0.082642 0.0999,0.1271838 -0.0576,0.061107 -0.18129,0.058347 -0.21939,0.1632595 v 0.1719101 h 0.0821 c 0.0156,-0.1927088 0.0409,-0.2179246 0.22142,-0.2243667 0.0114,0.022271 0.0201,0.046751 0.0344,0.066813 0.0655,0.088532 0.0641,0.1934446 -0.0114,0.264675 -0.0368,0.035154 -0.0821,0.084851 -0.12442,0.085587 -0.12,0.00423 -0.1316,0.1004954 -0.17762,0.1709896 0.0648,0.088532 0.13234,0.1783525 0.22437,0.2278638 0.0992,0.053377 0.1524,0.1546087 0.25584,0.2020958 0.0697,0.031658 0.12092,0.1021521 0.17687,0.1553446 0.11154,0.1056495 0.25235,0.1652841 0.36241,0.2731421 0.0676,0.066261 0.14302,0.1316016 0.23081,0.1790883 0.0849,0.046015 0.12074,0.1365712 0.1489,0.2286 0.0718,0.2444288 0.21351,0.5227246 0.34511,0.7176417 0.071,0.1056495 0.16031,0.1969421 0.22418,0.3112421 0.0799,0.1409883 0.13528,0.2904433 0.19786,0.4371375 0.0223,0.05172 -0.0202,0.1049129 -0.069,0.1509275"
       style="fill:#21201d;fill-opacity:1;fill-rule:nonzero;stroke:none;stroke-width:0.184057"
       id="path552" />
    <path
       d="m 356.4164,7.0852991 c -0.0158,0.012883 -0.0418,0.032395 -0.0633,0.056137 -0.0438,0.048039 -0.0438,0.094054 -0.006,0.1531362 0.0151,0.025767 0.0381,0.054665 0.0374,0.080433 -0.004,0.09571 0.0324,0.1820333 0.0539,0.2703812 0.0215,0.088348 0.0403,0.1768796 0.0618,0.2646754 0.0344,0.1422767 0.0791,0.2817925 0.11209,0.4240692 0.009,0.035339 0.004,0.075464 7.1e-4,0.1130117 -0.004,0.046567 -0.0769,0.1321537 -0.12074,0.1350983 -0.0561,0.00349 -0.11651,0.015092 -0.16473,-0.030921 -0.0517,0.027979 -0.10786,0.045278 -0.16381,0.02945 -0.0324,-0.00791 -0.0626,-0.036627 -0.0856,-0.064052 -0.0576,-0.067549 -0.11006,-0.1387796 -0.17467,-0.222158 -7e-4,-0.026504 -0.009,-0.066813 0.0208,-0.1143 0.0366,-0.058162 0.0611,-0.1286563 0.069,-0.1962054 0.009,-0.071967 0.0596,-0.1365712 0.0366,-0.2127712 0.0589,-0.1380434 0.006,-0.296333 0.0871,-0.4343767 0.028,-0.048039 0.0166,-0.1264476 0.007,-0.1890275 -0.009,-0.066077 -0.0806,-0.050432 -0.13657,-0.069758 0.0302,-0.094974 0.0438,-0.1934447 0.0898,-0.273878 0.0661,-0.1143 0.0467,-0.2560246 0.13086,-0.3725333 0.0337,0.1187174 0.0604,0.2265754 0.095,0.3307521 0.033,0.099207 0.0926,0.1884754 0.11357,0.3228375"
       style="fill:#21201d;fill-opacity:1;fill-rule:nonzero;stroke:none;stroke-width:0.184057"
       id="path554" />
    <path
       d="m 360.08169,4.0626998 c -0.0324,0.044542 -0.069,0.094238 -0.10142,0.1387796 h -0.0596 c -0.0806,7.409e-4 -0.17191,0.018038 -0.15902,-0.1128275 -0.0725,-0.04675 -0.0646,-0.1352825 -0.10271,-0.2006229 -0.0561,-0.094237 -0.0524,-0.1739346 0.0151,-0.269645 0.0791,-0.111355 0.14025,-0.2365142 0.12368,-0.3867055 -0.006,-0.053377 -0.0188,-0.1028883 -0.0381,-0.1481666 -0.0418,-0.09571 -0.0913,-0.1905 -0.14742,-0.2782958 -0.072,-0.1128275 -0.041,-0.2112984 0.023,-0.3105055 0.0381,-0.059819 0.0834,-0.1157725 0.11209,-0.1798246 0.0591,-0.1301291 0.12442,-0.2580492 0.0504,-0.4097129 -0.0245,-0.051168 -0.0109,-0.1187175 -0.0324,-0.1805609 -0.0381,-0.1120912 0.0396,-0.196942 0.10639,-0.2768233 0.0294,-0.035154 0.17908,-0.1264475 0.22215,-0.1244229 0.0633,0.00368 0.1316,0.013067 0.18627,0.041045 0.12442,0.064053 0.1546,0.1258958 0.16325,0.29118 -0.0569,0.035154 -0.0799,0.1271838 -0.18626,0.1100663 -0.0123,-0.042517 -0.0374,-0.089268 -0.0381,-0.1373071 0,-0.041781 0.0258,-0.084851 0.046,-0.1439334 -0.0806,-0.020062 -0.14816,-0.036628 -0.20356,-0.049511 -0.10197,0.057426 -0.15019,0.1395159 -0.16676,0.2308084 -0.0208,0.1128275 0.009,0.2228942 0.0576,0.3307521 0.0179,0.039388 0.0841,0.014358 0.074,0.082642 -0.006,0.035154 0.0381,0.078409 0.0596,0.1177971 0.0195,0.035339 0.0403,0.07123 0.0648,0.1144841 -0.0339,0.022271 -0.0762,0.04307 -0.1086,0.073991 -0.049,0.047487 -0.13086,0.067549 -0.14669,0.1430129 -0.0151,0.070494 -0.0906,0.1194537 -0.0683,0.1984146 0.0287,0.1021521 0.0482,0.2085375 0.12719,0.2876825 0.0964,0.097735 0.14522,0.2112984 0.13307,0.3508142 -0.003,0.04307 -0.0114,0.079145 -0.0316,0.117245 -0.0381,0.070494 -0.0653,0.1459579 -0.1,0.2184767 -0.0381,0.080617 -0.0151,0.1524 0.0302,0.2201333 0.0173,0.026504 0.0475,0.044542 0.0663,0.069758 0.0144,0.019325 0.0193,0.045278 0.0295,0.071782"
       style="fill:#21201d;fill-opacity:1;fill-rule:nonzero;stroke:none;stroke-width:0.184057"
       id="path556" />
    <path
       d="m 360.0874,7.2354903 c -0.0346,0.020246 -0.0648,0.037548 -0.0856,0.049696 0.0166,0.1380434 0.0418,0.2659634 0.0841,0.3896505 0.0418,0.1194537 0.0633,0.2429566 0.0972,0.3646187 0.0359,0.1316013 0.0646,0.2644913 0.0985,0.3968288 0.007,0.028713 0.0215,0.056138 0.0388,0.1014162 -0.0324,0.016567 -0.0712,0.036628 -0.11375,0.058898 -0.006,-0.00148 -0.0409,-0.012883 -0.0747,-0.011412 -0.0675,0.00201 -0.12939,0.022825 -0.20136,0.00275 -0.0696,-0.020062 -0.14872,-0.00423 -0.20982,-0.00423 -0.069,-0.033129 -0.049,-0.1352825 -0.13731,-0.1323375 -0.005,7.409e-4 -0.018,-0.027425 -0.0151,-0.039573 0.0151,-0.063316 0.0265,-0.1293925 0.0525,-0.1882912 0.0517,-0.1150363 0.0841,-0.2300725 0.0777,-0.3581767 -0.005,-0.1027042 -0.002,-0.2004392 0.0517,-0.301855 0.0445,-0.085587 0.0344,-0.1998871 0.0503,-0.3106896 -0.0351,0 -0.0574,0.0057 -0.0755,-0.00148 -0.0503,-0.018591 -0.0841,-0.072519 -0.0582,-0.111355 0.0646,-0.094974 0.0438,-0.2186608 0.11209,-0.31069 0.006,-0.00792 0.0158,-0.017854 0.0144,-0.025767 -0.0208,-0.1006799 0.0453,-0.1754074 0.0893,-0.2919158 0.0144,0.2768229 0.17817,0.4802071 0.20486,0.7238996"
       style="fill:#21201d;fill-opacity:1;fill-rule:nonzero;stroke:none;stroke-width:0.184057"
       id="path558" />
    <path
       d="m 356.17473,1.4428194 c -0.0344,0 -0.0668,-7.409e-4 -0.0992,0 -0.0942,0.00275 -0.12295,0.03442 -0.11007,0.1279204 0.003,0.023008 0.0217,0.043806 0.0274,0.055401 -0.0438,0.044542 -0.0848,0.085587 -0.12792,0.1286567 -0.0475,-0.00939 -0.0814,-0.058899 -0.0942,-0.1185334 -0.0173,-0.079145 0.0186,-0.1525841 0.0482,-0.2228941 0.008,-0.022271 0.0473,-0.036075 0.0755,-0.046015 0.0618,-0.020983 0.12718,-0.054665 0.18755,-0.049695 0.0611,0.0057 0.12369,0.043806 0.17541,0.081353 0.0561,0.040861 0.11154,0.090557 0.14669,0.1487191 0.0267,0.044542 0.0913,0.1006796 0.021,0.1639955 0.0129,0.099207 -0.0965,0.1939971 -0.0101,0.2968854 0.006,0.00644 0.007,0.025954 0.003,0.02945 -0.0847,0.073439 0.0252,0.1452217 0.001,0.2179246 -0.002,0.00718 0.005,0.021534 0.0124,0.025767 0.0985,0.072703 0.0985,0.1991504 0.16031,0.2911796 0.0337,0.049695 0.0309,0.092029 -7.1e-4,0.1446696 -0.049,0.081169 -0.0819,0.1717258 -0.12939,0.2538158 -0.044,0.076752 -0.0561,0.1638113 -0.0712,0.2457171 -0.0193,0.1065696 -0.0136,0.2164521 0.0755,0.3084813 0.0353,0.035339 0.0425,0.097735 0.0784,0.1452216 0.0374,0.048223 0.0698,0.1157725 -0.0101,0.1776159 -0.0344,0.026688 -0.0396,0.089268 -0.0552,0.1373071 -0.0237,0.071967 -0.0447,0.1531362 -0.13878,0.1862666 -0.0893,0.030921 -0.0856,0.041045 -0.14669,-0.016566 -0.0237,-0.022271 -0.0482,-0.043806 -0.0784,-0.071967 0.0201,-0.048039 0.0309,-0.1004958 0.0611,-0.1385958 0.0351,-0.045462 0.0871,-0.09571 0.0747,-0.1446695 -0.0173,-0.066813 -0.009,-0.1437492 -0.0589,-0.2019113 -0.0158,-0.018775 -0.0208,-0.046015 -0.0331,-0.066997 -0.0316,-0.052457 -0.0633,-0.1034408 -0.0955,-0.1551609 0.0532,-0.047487 0.0121,-0.1135637 0.033,-0.1632595 0.0274,-0.064788 0.0626,-0.1358346 0.11504,-0.1776159 0.095,-0.075464 0.0942,-0.1905 0.13749,-0.2854737 0.0307,-0.069022 0.002,-0.1531363 -0.0554,-0.2170042 -0.0346,-0.0381 -0.0663,-0.079881 -0.0913,-0.1244233 -0.018,-0.030921 -0.0252,-0.05172 -0.0712,-0.061107 -0.0814,-0.015092 -0.0906,-0.066077 -0.0403,-0.1380437 0.069,-0.1006796 0.15037,-0.1927084 0.19841,-0.3070084 0.018,-0.04307 0.0396,-0.084115 0.0324,-0.1330738 -0.0114,-0.071047 -0.0121,-0.1459579 -0.0366,-0.212035 -0.0151,-0.041781 -0.0655,-0.070494 -0.11006,-0.1143"
       style="fill:#21201d;fill-opacity:1;fill-rule:nonzero;stroke:none;stroke-width:0.184057"
       id="path560" />
  </g>
</svg>
