<?xml version="1.0" encoding="UTF-8" standalone="no"?>
<!-- Created with Inkscape (http://www.inkscape.org/) -->

<svg
   width="6.4898176mm"
   height="6.5145578mm"
   viewBox="0 0 6.4898176 6.5145578"
   version="1.1"
   id="svg2275"
   inkscape:version="1.1.2 (0a00cf5339, 2022-02-04)"
   sodipodi:docname="re3.svg"
   xmlns:inkscape="http://www.inkscape.org/namespaces/inkscape"
   xmlns:sodipodi="http://sodipodi.sourceforge.net/DTD/sodipodi-0.dtd"
   xmlns="http://www.w3.org/2000/svg"
   xmlns:svg="http://www.w3.org/2000/svg">
  <sodipodi:namedview
     id="namedview2277"
     pagecolor="#ffffff"
     bordercolor="#666666"
     borderopacity="1.0"
     inkscape:pageshadow="2"
     inkscape:pageopacity="0.0"
     inkscape:pagecheckerboard="0"
     inkscape:document-units="mm"
     showgrid="false"
     inkscape:zoom="0.64052329"
     inkscape:cx="-1322.3563"
     inkscape:cy="564.38229"
     inkscape:window-width="2560"
     inkscape:window-height="1376"
     inkscape:window-x="0"
     inkscape:window-y="0"
     inkscape:window-maximized="1"
     inkscape:current-layer="layer1" />
  <defs
     id="defs2272" />
  <g
     inkscape:label="Layer 1"
     inkscape:groupmode="layer"
     id="layer1"
     transform="translate(-454.85305,0.77883506)">
    <path
       d="m 454.85436,4.1669854 c 0.004,-0.053193 0.008,-0.09479 0.0282,-0.1437495 0.0624,-0.1516637 0.13656,-0.302775 0.18609,-0.4571996 0.0482,-0.145958 0.12368,-0.2847379 0.12735,-0.4524146 0.004,-0.1457738 0.069,-0.2917317 0.10566,-0.4371375 0.0145,-0.055954 0.0261,-0.1135638 0.0359,-0.1695175 0.0194,-0.1244229 0.0856,-0.2322809 0.11871,-0.3522867 0.0525,-0.1892116 0.11212,-0.3767667 0.16606,-0.565978 0.0258,-0.090557 0.0332,-0.187555 0.0705,-0.2716695 0.046,-0.1036246 0.0676,-0.2149796 0.12517,-0.3163958 0.0661,-0.11429967 0.11924,-0.24148382 0.13931,-0.37676633 0.004,-0.0150918 0,-0.0344205 0.007,-0.0467508 0.0275,-0.0452783 0.0907,-0.0611071 0.0942,-0.12865664 0.004,-0.0509838 0.0124,-0.10638543 0.0346,-0.15239964 0.0272,-0.0561379 0.0732,-0.10288834 0.10637,-0.15681748 0.0525,-0.08558706 0.1143,-0.16896503 0.0869,-0.28897086 0.10784,-0.0633159 0.14245,-0.18479416 0.164,-0.29044335 0.0236,-0.11356375 0.12587,-0.20356829 0.0985,-0.33866666 0.0212,0.0150918 0.0504,0.0252166 0.0611,0.0452783 0.0317,0.0588984 0.0734,0.086323 0.14171,0.0992071 0.16253,0.0316583 0.32213,0.0848508 0.49033,0.0633158 0.0367,-0.004233 0.0611,0.0417812 0.11007,0.005704 0.0314,-0.0244792 0.097,-0.004971 0.14651,-0.004233 0.044,0 0.0878,0.004971 0.12093,-0.0331294 0.005,-0.005704 0.0257,-0.005704 0.0321,0 0.0697,0.059635 0.13748,-0.007916 0.20708,-0.002223 0.0684,0.005154 0.14171,0.0180375 0.20355,-0.0322086 0.13233,0.0242958 0.25658,-0.04399 0.38672,-0.0323956 0.0749,0.007179 0.15035,-0.0222709 0.22507,0.0222709 0.0641,0.0388363 0.14524,-0.009387 0.21869,0.0395725 0.0416,0.0272415 0.11705,-0.0101247 0.16676,0.0373638 0.0646,-0.0432537 0.17907,-0.0143581 0.18404,-0.13730711 0.0834,0.0559534 0.17173,0.19270874 0.19124,0.2775592 0.0109,0.0445421 0.0279,0.0898204 0.0517,0.12865664 0.10213,0.16896503 0.16545,0.35504754 0.24811,0.53266339 0.13084,0.28050454 0.26522,0.55861584 0.38668,0.84206504 0.0821,0.1890275 0.14816,0.3852333 0.21297,0.580887 0.0229,0.067549 0.0769,0.1150363 0.0992,0.1768796 0.0194,0.05669 -0.006,0.1271842 0.0366,0.1855304 0.0525,0.071046 0.0445,0.1754071 0.1259,0.2320971 0.008,0.00644 0.004,0.030921 0.008,0.046014 0.0102,0.040309 0.0109,0.089268 0.0346,0.1179813 0.0725,0.08706 0.10711,0.1890275 0.14891,0.2904433 0.092,0.2236304 0.19251,0.4443159 0.29394,0.6635288 0.0339,0.070494 0.0268,0.1511116 0.0784,0.2193971 0.0418,0.055402 0.0525,0.1330741 0.0792,0.2006233 0.0342,0.086139 0.0624,0.1739346 0.0898,0.2630187 0.004,0.014541 0.0138,0.039573 0.007,0.04399 -0.0546,0.047303 0.0374,0.09479 -0.004,0.139332 -0.0138,0.016566 -0.0272,0.035339 -0.031,0.041045 -0.0985,-0.0173 -0.18112,-0.040309 -0.26374,-0.043806 -0.0814,-0.00368 -0.16475,0.01215 -0.25823,0.0208 -0.048,-0.097735 -0.11282,-0.1905 -0.13805,-0.2926521 -0.0272,-0.1098826 -0.0898,-0.197678 -0.13437,-0.2961492 -0.0317,-0.070494 -0.0962,-0.1286563 -0.0747,-0.2221579 0.006,-0.026688 -0.0286,-0.063316 -0.0445,-0.096446 -0.0576,-0.1264479 -0.10287,-0.2580492 -0.15607,-0.3867058 -0.051,-0.1229505 -0.14376,-0.2278638 -0.16401,-0.3666434 -0.11649,-0.1503754 -0.14153,-0.3416113 -0.23004,-0.5061592 -0.0402,-0.075464 -0.079,-0.1603145 -0.0718,-0.2552883 0,-0.022271 -0.0166,-0.048223 -0.0282,-0.07123 -0.0567,-0.1157725 -0.1143,-0.231545 -0.17099,-0.3465813 -0.007,-0.013621 -0.008,-0.033683 -0.018,-0.042333 -0.0906,-0.071967 -0.10714,-0.193445 -0.19565,-0.2731421 -0.0631,-0.05761 -0.0926,-0.16105081 -0.11635,-0.24884626 -0.0145,-0.0517204 -0.0258,-0.10417704 -0.0561,-0.14374918 -0.0359,-0.0474871 -0.0102,-0.1014162 -0.0381,-0.15387249 -0.0317,-0.0583466 -0.0525,-0.13528252 -0.0482,-0.21424336 0.004,-0.0524566 -0.0328,-0.10712202 -0.0547,-0.16896538 -0.16602,0.0150918 -0.32283,-0.0358913 -0.47597,0.030921 -0.0279,0.0121497 -0.0661,0.002222 -0.0999,0.002222 -0.21699,0 -0.43416,-0.002222 -0.65211,0.001305 -0.0631,0.001482 -0.13141,-0.0250331 -0.1905,0.0217205 -0.0581,-0.0323956 -0.10985,-0.0115958 -0.17025,0.006442 -0.0613,0.0178541 -0.13307,0.009204 -0.19932,0.002011 -0.0567,-0.004971 -0.12276,0.0301837 -0.17173,-0.0272415 -0.0438,0.0430696 -0.0992,0.0265042 -0.15166,0.0287126 -0.0425,0.002928 -0.0848,-0.009938 -0.12146,0.0331294 -0.0381,0.0445421 -0.0742,0.0920291 -0.0807,0.14945536 -0.006,0.060555 0.004,0.11650838 -0.0569,0.1632592 -0.0244,0.0207998 -0.0194,0.079145 -0.0258,0.12074207 -0.0346,0.21148251 -0.14375,0.40419124 -0.15388,0.62193164 0,0.019509 -0.0116,0.042517 -0.0243,0.056138 -0.0467,0.048223 -0.0581,0.1078579 -0.0804,0.1674928 -0.018,0.050432 -0.064,0.094238 -0.0734,0.1538725 -0.004,0.019509 -0.0201,0.038836 -0.0201,0.058162 0.004,0.1395158 -0.0554,0.2689087 -0.0676,0.406952 -0.069,0.064052 -0.0539,0.165468 -0.10933,0.2394592 -0.0453,0.060371 -0.0957,0.1273683 -0.0913,0.2114829 0,0.011412 0.005,0.027242 0,0.032946 -0.10361,0.1063854 -0.0885,0.2538159 -0.1301,0.3811838 -0.049,0.1479825 -0.0849,0.301855 -0.10439,0.4586725 -0.004,0.020062 -0.0138,0.038836 -0.0187,0.058898 -0.0201,0.0762 -0.0604,0.1481666 -0.0475,0.2308087 0.008,0.050248 -0.007,0.09571 -0.0339,0.1365709 -0.0229,0.037364 -0.0286,0.0762 -0.0353,0.1194537 -0.0173,0.1157725 -0.0906,0.168965 -0.20634,0.1789042 -0.0791,0.00792 -0.16546,-0.033683 -0.23947,0.027425 0,0.00201 -0.0145,-0.010125 -0.0229,-0.014355 -0.0697,-0.033129 -0.13656,-0.086323 -0.21992,-0.0173 -0.0138,0.011412 -0.0641,-0.023008 -0.11081,-0.040308"
       style="fill:#21201d;fill-opacity:1;fill-rule:nonzero;stroke:none;stroke-width:0.184057"
       id="path648" />
    <path
       d="m 458.39321,2.0287846 c -0.0792,0.015829 -0.14598,0.02945 -0.21354,0.041597 -0.067,0.013804 -0.1373,-0.0208 -0.2063,0.030371 -0.0317,0.023559 -0.0972,0.00644 -0.14669,0.00275 -0.0769,-0.00423 -0.14816,0.012333 -0.22143,0.032396 -0.0339,0.00939 -0.0332,0.025217 -0.046,0.049696 -0.0388,0.072519 -0.0243,0.1544246 -0.0512,0.2293362 -0.0244,0.066813 -0.0475,0.1380434 -0.0517,0.2149796 -0.004,0.06534 -0.0431,0.1301292 -0.0173,0.2135071 0.0705,-0.030921 0.14023,0.039573 0.21573,-0.00293 0.0734,0.044542 0.15606,0.032395 0.2365,0.033129 0.0834,7.409e-4 0.16968,0.012884 0.24959,-0.00442 0.0517,-0.011412 0.0856,0.05761 0.14372,0.00865 0.0293,-0.024479 0.097,-0.00201 0.14743,-0.00497 0.0243,-0.00222 0.0554,-0.00865 0.0718,-0.024479 0.0453,-0.04307 0.0777,-0.04675 0.14245,-0.0208 0.0495,0.020062 0.12647,-0.021534 0.18905,-0.042518 0.0546,-0.017854 0.10213,-0.052457 0.16545,-0.048039 0.0201,0.00131 0.0473,-0.025217 0.0611,-0.04675 0.006,-0.010858 -0.0145,-0.036075 -0.0159,-0.055402 -0.0166,-0.1754071 -0.11723,-0.3191563 -0.18129,-0.4767101 -0.0502,-0.1244229 -0.11134,-0.2436925 -0.1603,-0.3681158 -0.0152,-0.038836 0,-0.087795 -0.007,-0.130865 -0.006,-0.041045 -0.0265,-0.079697 -0.031,-0.1200059 -0.0187,-0.1704378 -0.0819,-0.3163957 -0.21996,-0.4371375 -0.069,0 -0.14595,-0.00148 -0.22289,0 -0.23576,0.00201 -0.46806,-0.05172 -0.70531,-0.036628 -0.0596,0.00275 -0.12294,-0.04896 -0.18552,-0.028162 -0.051,0.0173 -0.0985,0.036075 -0.15459,0.031658 -0.0525,-0.00293 -0.10989,0.020062 -0.15021,0.038836 -0.087,0.041045 -0.17117,0.014355 -0.2516,0.030921 -0.069,-0.117245 0.0453,-0.19197252 0.0574,-0.29044338 0.0109,-0.0855871 0.0856,-0.1639958 0.13307,-0.24811037 0.0359,0 0.069,-0.002223 0.10142,0 0.2365,0.0173002 0.46934,-0.0207998 0.70457,-0.0323956 0.046,-0.001305 0.094,-0.0128834 0.14079,0.0259539 0.0229,0.0195086 0.0834,0.0237419 0.1215,-0.0136207 0.0102,-0.009387 0.0303,-0.0150918 0.044,-0.0123331 0.0353,0.007362 0.0705,0.0323956 0.10195,0.0274249 0.0332,-0.004417 0.0626,-0.0366275 0.0935,-0.0554013 0.009,-0.004971 0.0254,-0.009387 0.0303,-0.005704 0.0979,0.0811696 0.19198,-0.0366275 0.29118,-0.003683 0.0268,0.00865 0.0662,-0.023742 0.0965,-0.0358913 0.13582,0.11209126 0.13085,0.11356375 0.17614,0.29265209 0.0194,0.079145 0.0539,0.15810583 0.10069,0.22436666 0.0346,0.048775 0.0559,0.098471 0.079,0.1524 0.0282,0.066077 0.0685,0.1279204 0.11225,0.1890275 0.0597,0.08117 0.10788,0.1776159 0.13734,0.2753505 0.0502,0.1711741 0.13949,0.3235741 0.22563,0.4745016 0.0396,0.068285 0.0519,0.1452217 0.0987,0.2114825 0.0898,0.1264476 0.12717,0.2840013 0.2365,0.4032709 0.0396,0.04307 0.0596,0.1100666 0.071,0.168965 0.0226,0.1143 0.0712,0.2164521 0.12019,0.3191566 0.0395,0.082826 0.0258,0.1065696 -0.0663,0.1360188 -0.12643,0.040309 -0.25305,0.073991 -0.38964,0.069022 -0.0789,-0.00222 -0.15808,0.025033 -0.23724,0.030184 -0.0826,0.0057 -0.17466,-0.0208 -0.24868,0.00644 -0.11373,0.041781 -0.22655,0.025217 -0.33863,0.026688 -0.21939,0.00275 -0.43437,0.055954 -0.65507,0.035891 -0.0559,-0.00515 -0.11282,0.072519 -0.17117,0.00222 -0.0611,0.060371 -0.13656,0.022271 -0.20486,0.028713 -0.0661,0.00644 -0.13363,-0.00148 -0.20062,0.00201 -0.0525,0.00368 -0.10989,-0.022825 -0.15664,0.026688 -0.006,0.00718 -0.0366,-0.00792 -0.0554,-0.012883 -0.0152,-0.00442 -0.0303,-0.015829 -0.0438,-0.013804 -0.0525,0.00939 -0.10435,0.051904 -0.15607,-5.645e-4 -0.0438,0.043806 -0.10787,0.016383 -0.15021,0.040861 -0.0374,0.020983 -0.0776,0.041045 -0.10139,0.0173 -0.0359,-0.033129 -0.0762,-0.086323 -0.0762,-0.1316017 0,-0.08982 -0.0346,-0.1868187 0.0236,-0.2724054 0.004,-0.00442 0.004,-0.00939 0.005,-0.014358 0.0116,-0.05761 -0.0641,-0.1122754 0,-0.1741187 0.0453,-0.045278 0.0318,-0.1098826 0.0353,-0.1682288 0,-0.025217 0.0173,-0.048775 0.0229,-0.073991 0.0187,-0.082642 0.0453,-0.161787 0.046,-0.2503191 0,-0.092581 0.0416,-0.18461 0.046,-0.2788475 0.009,-0.1704376 0.12001,-0.3141871 0.11853,-0.4868334 0,-0.04307 0.0611,-0.1098825 0.10216,-0.1120912 0.13508,-0.00644 0.27094,-0.069758 0.40252,-0.030187 0.13014,0.038836 0.24959,-0.0208 0.37529,-0.00865 0.0626,0.0057 0.12957,-0.031658 0.1942,-0.05172 0.0611,-0.018037 0.11797,-0.00791 0.12369,0.036628 0.0194,0.145958 0.0999,0.2760868 0.10491,0.4249897 0,0.0057 -0.004,0.00994 -0.004,0.020062"
       style="fill:#21201d;fill-opacity:1;fill-rule:nonzero;stroke:none;stroke-width:0.184057"
       id="path650" />
    <path
       d="m 457.77274,4.3381592 c 0.0293,0.028713 0.051,0.047487 0.0683,0.069022 0.0359,0.046751 0.0286,0.060371 -0.0243,0.1049129 -0.0431,0.037364 -0.0755,0.077673 -0.0957,0.1424609 -0.0201,0.062396 -0.0215,0.1314174 -0.0545,0.193997 -0.03,0.05761 0.0152,0.1229508 0.0559,0.1726463 0.0353,0.04307 0.0777,0.079697 0.12442,0.1257117 0.0698,0 0.14743,0.00589 0.22437,-0.00201 0.0517,-0.00589 0.0935,-0.025954 0.13437,-0.079145 0.0596,-0.079145 0.0648,-0.1652841 0.09,-0.2488462 0.0194,-0.066813 -0.0353,-0.1207421 -0.0677,-0.1702538 -0.0611,-0.092029 -0.10068,-0.1971258 -0.1833,-0.2775592 -0.0265,-0.026688 -0.0488,-0.056138 -0.0827,-0.079145 -0.0366,-0.023742 -0.0676,-0.058898 -0.095,-0.093501 -0.0215,-0.027975 -0.0339,-0.06258 -0.0539,-0.099944 0.0613,-0.025033 0.10583,-0.030187 0.15113,-0.00148 0.004,0.00293 0.007,0.010121 0.0113,0.010858 0.0633,0.00865 0.12738,0.018038 0.1905,0.023742 0.0677,0.00497 0.0907,0.092029 0.16767,0.084851 0.0194,-0.00148 0.046,0.037364 0.0632,0.061843 0.059,0.085587 0.0583,0.086323 0.14961,0.1021525 0.0661,-0.085587 -0.0251,-0.1597625 -0.0208,-0.2446133 0.004,-0.071046 -0.0455,-0.1452217 -0.072,-0.2177405 -0.0985,-0.00515 -0.0913,-0.1395158 -0.21646,-0.143197 0.0618,-0.043806 0.095,-0.083378 0.13585,-0.094053 0.0697,-0.018037 0.13526,0.023008 0.19343,0.053193 0.0972,0.050248 0.18552,0.117245 0.27682,0.1783521 0.0215,0.015092 0.0475,0.034421 0.0539,0.057426 0.0293,0.094238 0.10785,0.162523 0.11797,0.2703813 0.008,0.097735 0.0653,0.1919721 0.0488,0.2941242 -0.009,0.059635 0.069,0.1076741 0.006,0.1761437 -0.0339,0.037364 -0.0303,0.10841 -0.0468,0.1630751 -0.025,0.085587 -0.0662,0.1610508 -0.11723,0.2365145 -0.0482,0.071967 -0.10491,0.1345463 -0.15166,0.2043042 -0.0972,0.1466942 -0.24444,0.2278638 -0.38763,0.3119783 -0.0782,0.046015 -0.17815,0.053929 -0.26098,0.093501 -0.0589,0.027975 -0.10566,0.020062 -0.15812,-0.00293 -0.0229,-0.00994 -0.0445,-0.027241 -0.069,-0.032212 -0.1675,-0.032396 -0.22585,-0.06847 -0.35599,-0.2243666 -0.0639,0.00275 -0.0559,-0.066997 -0.0927,-0.092029 -0.031,-0.020983 -0.0353,-0.050432 -0.0359,-0.085587 -0.004,-0.052456 0.0201,-0.1093304 -0.03,-0.1560809 -0.0109,-0.00939 0.006,-0.049512 0.012,-0.074728 0.005,-0.025954 0.0254,-0.056138 0.0166,-0.075463 -0.031,-0.070495 -0.009,-0.1373075 0,-0.2063292 0.007,-0.048223 -0.0127,-0.123687 0.0124,-0.1424608 0.0582,-0.042333 0.0381,-0.1135638 0.0797,-0.1531362 0.0425,-0.040125 0.0885,-0.080433 0.14026,-0.104913 0.046,-0.021534 0.1027,-0.021534 0.14669,-0.02945"
       style="fill:#21201d;fill-opacity:1;fill-rule:nonzero;stroke:none;stroke-width:0.184057"
       id="path652" />
  </g>
</svg>
