<?xml version="1.0" encoding="UTF-8" standalone="no"?>
<!-- Created with Inkscape (http://www.inkscape.org/) -->

<svg
   width="7.8903699mm"
   height="7.9044962mm"
   viewBox="0 0 7.8903699 7.9044962"
   version="1.1"
   id="svg2504"
   inkscape:version="1.1.2 (0a00cf5339, 2022-02-04)"
   sodipodi:docname="re4.svg"
   xmlns:inkscape="http://www.inkscape.org/namespaces/inkscape"
   xmlns:sodipodi="http://sodipodi.sourceforge.net/DTD/sodipodi-0.dtd"
   xmlns="http://www.w3.org/2000/svg"
   xmlns:svg="http://www.w3.org/2000/svg">
  <sodipodi:namedview
     id="namedview2506"
     pagecolor="#ffffff"
     bordercolor="#666666"
     borderopacity="1.0"
     inkscape:pageshadow="2"
     inkscape:pageopacity="0.0"
     inkscape:pagecheckerboard="0"
     inkscape:document-units="mm"
     showgrid="false"
     inkscape:zoom="0.64052329"
     inkscape:cx="-1156.8666"
     inkscape:cy="342.68855"
     inkscape:window-width="2560"
     inkscape:window-height="1376"
     inkscape:window-x="0"
     inkscape:window-y="0"
     inkscape:window-maximized="1"
     inkscape:current-layer="layer1" />
  <defs
     id="defs2501" />
  <g
     inkscape:label="Layer 1"
     inkscape:groupmode="layer"
     id="layer1"
     transform="translate(-411.19405,-58.008797)">
    <path
       d="m 415.20084,62.388942 c -0.0121,0.01143 -0.0243,0.023 -0.0351,0.03517 -0.0252,0.02946 -0.0554,0.06258 -0.0965,0.0438 -0.048,-0.02152 -0.10344,-0.05098 -0.0963,-0.1143 0.005,-0.04804 -0.0166,-0.08264 -0.0359,-0.118533 -0.023,-0.04252 -0.0935,-0.05172 -0.13878,-0.04252 -0.069,0.01436 -0.10142,0.067 -0.10933,0.117979 -0.008,0.04602 0.0245,0.09921 0.0425,0.158108 -0.11449,0.01231 -0.17762,-0.07105 -0.25382,-0.143749 -0.0166,-0.15608 0.0164,-0.307009 0.0963,-0.447263 0.0158,-0.02501 0.0339,-0.05522 0.0589,-0.06828 0.069,-0.03736 0.0618,-0.125713 0.12093,-0.170254 0.0186,-0.01379 0.0164,-0.05908 0.0179,-0.09 0.002,-0.07178 7e-4,-0.14375 7e-4,-0.217741 -0.0532,-0.05687 -0.0977,-0.120925 -0.18976,-0.132338 -0.0287,-0.0037 -0.046,-0.01951 -0.0826,-0.0014 -0.0445,0.02152 -0.10638,0.0079 -0.1524,0.02946 -0.0512,0.023 -0.12166,0.06184 -0.1316,0.104359 -0.0173,0.07694 -0.0755,0.153874 -0.0267,0.245166 0.023,0.04307 0.004,0.111355 0.0295,0.151663 0.0309,0.04951 0.021,0.09056 0.0173,0.154608 -0.0906,-0.05245 -0.1732,-0.0992 -0.25382,-0.145958 -0.0158,-0.132337 -0.0302,-0.258233 -0.0467,-0.383942 -0.002,-0.01362 -0.0223,-0.02374 -0.0453,-0.04675 -0.0166,0.03313 -0.0359,0.06111 -0.0431,0.0913 -0.0158,0.06037 -0.0287,0.12295 -0.0339,0.184792 -0.005,0.06534 -0.006,0.133075 0,0.198416 0.009,0.08485 -0.0705,0.08117 -0.11853,0.124421 -0.0188,-0.01877 -0.0381,-0.05614 -0.0604,-0.05761 -0.0792,-0.0042 -0.0806,-0.07822 -0.0814,-0.112829 -0.003,-0.07767 -0.0329,-0.160313 0.0203,-0.237988 0.0201,-0.02946 0.0107,-0.07914 0.0401,-0.118533 0,0.05816 -7e-4,0.1178 7.1e-4,0.176696 7e-4,0.03681 0.002,0.03681 0.0821,0.09277 0.0164,-0.07694 0.0352,-0.150191 0.0495,-0.224917 0.0129,-0.067 0.0144,-0.136574 0.0351,-0.200624 0.0324,-0.097 0.0849,-0.184059 0.1719,-0.253817 0.0675,0.08706 -0.0561,0.156817 0.009,0.242958 0.0374,-0.03737 0.074,-0.08043 0.11724,-0.116508 0.0812,-0.06829 0.16823,-0.120742 0.28253,-0.115592 0.10491,0.005 0.20982,7.06e-4 0.31492,7.06e-4 0.079,7.06e-4 0.15737,-0.0066 0.23577,0.02946 0.0344,0.01658 0.0791,0.01436 0.11927,0.03295 0.0238,0.01087 0.0742,-0.03663 0.0987,-0.02575 0.13215,0.05742 0.26817,0.02448 0.40179,0.02723 0.072,7.06e-4 0.15314,0.03534 0.21793,-0.03094 0.0933,0.02815 0.1962,0.03957 0.2781,0.08633 0.15314,0.08761 0.23375,0.230071 0.23375,0.411184 v 0.15185 c -0.0648,0.163812 -0.18055,0.219949 -0.3394,0.242954 0.0388,-0.08559 0.0668,-0.165467 0.10933,-0.238721 0.0532,-0.09203 0.0416,-0.189766 0.0201,-0.279771 -0.0302,-0.124975 -0.15019,-0.148717 -0.25382,-0.171725 -0.069,-0.01584 -0.14301,-0.0037 -0.19767,-0.0037 -0.1143,0.04104 -0.0841,0.168963 -0.16602,0.220134 7e-4,0.08761 -0.0151,0.180375 0.008,0.262283 0.0223,0.08135 0.0596,0.16105 0.11927,0.232279 0.0591,0.0727 0.10215,0.16823 0.10436,0.27038 0.004,0.170437 -0.0727,0.239462 -0.26965,0.23357 0.0101,-0.05669 0.0186,-0.111354 0.0302,-0.179641 -0.0374,-0.08062 -0.11872,-0.09055 -0.21074,-0.07473 -0.0317,0.06902 -0.0869,0.13657 -0.0151,0.213504"
       style="fill:#21201d;fill-opacity:1;fill-rule:nonzero;stroke:none;stroke-width:0.184057"
       id="path562" />
    <path
       d="m 415.48282,59.3807 c -0.0526,-0.04822 -0.0928,-0.08264 -0.12958,-0.120742 -0.0646,-0.07049 -0.13933,-0.111538 -0.23854,-0.101416 -0.044,0.0035 -0.10657,0.0151 -0.12663,-0.0072 -0.046,-0.0497 -0.0841,0.0057 -0.0913,0.0114 -0.0381,0.03313 -0.0841,0.01732 -0.12,0.03238 -0.046,0.01951 -0.0836,0.06037 -0.13731,0.10215 0.004,-0.05098 0.006,-0.09202 0.0121,-0.132337 0.002,-0.01436 0.0215,-0.02724 0.0201,-0.04031 -0.0166,-0.163075 0.0814,-0.299092 0.10712,-0.452229 0.0604,-0.03736 0.003,-0.111354 0.0539,-0.161787 0.0267,-0.02724 0.0497,-0.08908 0.0418,-0.147246 -0.004,-0.02596 0.0136,-0.06332 0.0337,-0.08282 0.0799,-0.07473 0.0856,-0.174671 0.10362,-0.271671 0.10215,-7.06e-4 0.095,0.0021 0.12645,0.07325 0.0705,0.159029 0.1051,0.330017 0.18406,0.4861 0.0526,0.105646 0.0697,0.225654 0.0994,0.337929 0.0351,0.134363 0.0963,0.268908 0.079,0.414867 -0.001,0.0094 -0.006,0.01933 -0.0179,0.05963"
       style="fill:#21201d;fill-opacity:1;fill-rule:nonzero;stroke:none;stroke-width:0.184057"
       id="path564" />
    <path
       d="m 414.93267,65.913283 c 0.0331,-0.124421 -0.092,-0.17467 -0.0999,-0.283263 -0.006,-0.08706 -0.0618,-0.170437 -0.0955,-0.257312 0.0438,-0.02671 0.1,-0.04675 0.0589,-0.1143 -0.0101,-0.0028 -0.0208,-0.0094 -0.0302,-0.0066 -0.0653,0.01877 -0.0878,0.01161 -0.0928,-0.03865 -0.0143,-0.171912 -0.0668,-0.334433 -0.11798,-0.497691 -0.0193,-0.05816 -0.0121,-0.124976 -0.0164,-0.187558 0.0107,-0.0065 0.0216,-0.01288 0.0322,-0.02025 0.009,0.01951 0.0151,0.04031 0.0282,0.05614 0.0948,0.117245 0.217,0.181299 0.36811,0.1905 0.10141,0.07547 0.18682,0.0094 0.2724,-0.03443 0.0497,-0.02522 0.0871,-0.0762 0.15166,-0.07473 0.007,0 0.0145,-0.03607 0.0282,-0.05338 0.004,0.237988 -0.0898,0.457384 -0.15884,0.675859 -0.0697,0.217925 -0.14743,0.435113 -0.2424,0.645675 z"
       style="fill:#21201d;fill-opacity:1;fill-rule:nonzero;stroke:none;stroke-width:0.184057"
       id="path566" />
    <path
       d="m 419.08406,61.979783 c -0.0418,0.03589 -0.0626,0.09277 -0.13584,0.09424 -0.0576,7.05e-4 -0.0784,0.08632 -0.15534,0.06755 -0.0475,-0.01087 -0.0942,0.04528 -0.15092,0.0302 -0.0712,0.06553 -0.16252,0.08412 -0.25234,0.107859 -0.049,0.01288 -0.0965,0.04307 -0.14596,0.04381 -0.1489,0.0037 -0.27553,0.113009 -0.43069,0.08209 -0.0281,-0.0059 -0.0618,0.01362 -0.13234,0.0309 0.0661,-0.05835 0.10565,-0.08706 0.13657,-0.122213 0.0346,-0.03957 0.0611,-0.08559 0.0992,-0.139517 -0.0539,-0.09645 0.0977,-0.2078 7e-4,-0.320075 0.0124,-0.122954 -0.0668,-0.209091 -0.12369,-0.311979 0.092,0.07344 0.21075,-0.0042 0.30057,0.06607 0.0641,-0.01362 0.10786,0.03313 0.15958,0.05393 0.0524,0.02173 0.10068,0.05761 0.16325,0.04602 0.0158,-0.0028 0.0418,-0.0057 0.0468,0.0021 0.0626,0.09571 0.18111,0.06681 0.26744,0.120005 0.0769,0.04823 0.18405,0.05338 0.26817,0.107858 0.0188,0.01235 0.0502,0.0037 0.0762,0.0052 0.003,0.01214 0.006,0.02374 0.009,0.03589"
       style="fill:#21201d;fill-opacity:1;fill-rule:nonzero;stroke:none;stroke-width:0.184057"
       id="path568" />
    <path
       d="m 411.19412,61.889962 c 0.0898,-0.05172 0.17891,-0.0727 0.26597,-0.10215 0.0871,-0.02946 0.18331,-0.04896 0.25749,-0.09553 0.0812,-0.05264 0.17614,-0.02448 0.25087,-0.0762 0.0804,-0.0554 0.17964,-0.04031 0.26817,-0.06902 0.0876,-0.02889 0.18258,-0.06055 0.29338,-0.02596 -0.0986,0.0797 -0.16822,0.168229 -0.19068,0.286208 -0.0309,0.160313 -0.046,0.319159 0.0841,0.447076 0.0396,0.0381 0.0304,0.0727 0.0274,0.113012 -0.0661,-0.01161 -0.12221,-0.02889 -0.17835,-0.02815 -0.0661,0 -0.12074,-0.0302 -0.17835,-0.05099 -0.0861,-0.03238 -0.16896,-0.07123 -0.26228,-0.08779 -0.0784,-0.01288 -0.1489,-0.08485 -0.2251,-0.08835 -0.0784,-0.0037 -0.12442,-0.05117 -0.187,-0.0727 -0.0631,-0.02152 -0.12423,-0.04951 -0.18829,-0.0646 -0.0539,-0.01235 -0.0267,-0.04896 -0.0374,-0.08485"
       style="fill:#21201d;fill-opacity:1;fill-rule:nonzero;stroke:none;stroke-width:0.184057"
       id="path570" />
    <path
       d="m 416.14487,62.039417 c 0.0569,0 0.11227,-7.06e-4 0.16749,0 0.0885,0.0014 0.13307,0.04252 0.1489,0.130129 0.004,0.02522 0.0144,0.04896 0.0208,0.07344 0.0158,0.05246 0.0289,0.103438 -0.023,0.146692 -0.0804,0.06608 -0.10491,0.153137 -0.0992,0.255842 0.006,0.104362 -0.001,0.209274 0.003,0.31345 0.003,0.05835 -0.0245,0.10657 -0.0583,0.137491 -0.079,0.07252 -0.18111,0.02723 -0.20706,-0.08559 -0.007,-0.03164 -0.003,-0.067 -7.1e-4,-0.09921 0.0114,-0.134546 -0.0116,-0.266884 -0.0346,-0.398301 -0.007,-0.03884 -0.0287,-0.07694 -0.0502,-0.110066 -0.0764,-0.11798 -0.0663,-0.186267 0.0409,-0.271854 0.0346,-0.02723 0.0618,-0.06184 0.092,-0.09203"
       style="fill:#21201d;fill-opacity:1;fill-rule:nonzero;stroke:none;stroke-width:0.184057"
       id="path572" />
    <path
       d="m 414.04055,63.959141 c 0.0401,0.03514 0.0265,0.13878 0.13215,0.08982 0.002,-0.02374 0.004,-0.04878 0.007,-0.08117 0.0287,-0.005 0.0604,-0.0079 0.0891,-0.01803 0.0955,-0.03369 0.10417,-0.03589 0.13877,0.03884 0.0769,0.165467 0.0359,0.221421 -0.0913,0.279767 -0.13307,0.06037 -0.29412,0.01436 -0.34878,-0.105096 -0.0101,-0.023 -0.0186,-0.04804 -0.0216,-0.07252 -0.006,-0.05245 -0.009,-0.100679 -0.0287,-0.153871 -0.0403,-0.103625 0.0265,-0.218662 0.13289,-0.27535 0.0697,-0.03607 0.14025,-0.06902 0.22087,-0.06626 0.0164,0 0.0388,0.0074 0.0488,-0.0014 0.11504,-0.09277 0.18774,0.02152 0.26026,0.06608 0.0734,0.04528 0.12883,0.127921 0.17614,0.205595 0.0245,0.03957 0.0138,0.10068 0.0195,0.14743 -0.0173,0.0079 -0.0223,0.01214 -0.0267,0.01214 -0.16252,0.0052 -0.17099,0.0094 -0.25382,-0.132888 -0.051,-0.08706 -0.10417,-0.134545 -0.2078,-0.139516 -0.0826,-0.0037 -0.1373,0.01069 -0.17669,0.08338 -0.0225,0.04031 -0.046,0.08062 -0.0698,0.12295"
       style="fill:#21201d;fill-opacity:1;fill-rule:nonzero;stroke:none;stroke-width:0.184057"
       id="path574" />
    <path
       d="m 415.56031,64.168416 c 0.026,-0.05687 0.0475,-0.107858 0.0727,-0.159025 0.0431,-0.08467 0.14301,-0.08909 0.19915,-0.0099 0.0173,0.02505 0.0396,0.04602 0.072,0.08191 0.0322,-0.06608 0.0812,-0.115775 0.0559,-0.168229 -0.0272,-0.05816 -0.051,-0.130867 -0.12791,-0.153138 -0.0193,-0.005 -0.0497,-0.02946 -0.0503,-0.02872 -0.0361,0.05246 -0.10142,0.0072 -0.13455,0.03589 -0.0554,0.04896 -0.10933,0.106383 -0.14375,0.170437 -0.0438,0.08117 -0.0359,0.08632 -0.12442,0.08835 -0.0166,0 -0.0331,0 -0.0495,0 -0.0158,-7.05e-4 -0.0316,-0.0014 -0.0605,-0.0028 v -0.128104 c -7.1e-4,-0.05964 -0.001,-0.107124 0.0742,-0.140808 0.0445,-0.01951 0.0797,-0.08135 0.12571,-0.120925 0.0497,-0.04307 0.10933,-0.03147 0.15755,-0.06755 0.0495,-0.03514 0.11854,0.0072 0.16032,0.03957 0.0532,0.0438 0.10786,0.0028 0.16454,0.01584 0.0138,0.01729 0.0252,0.03514 0.0403,0.05098 0.11154,0.115771 0.13657,0.235963 0.0819,0.393333 -0.006,0.02007 -0.005,0.04178 -0.01,0.06184 -0.0532,0.19418 -0.30627,0.238725 -0.43364,0.110067 -0.0201,-0.01951 -0.0394,-0.03884 -0.0698,-0.06902"
       style="fill:#21201d;fill-opacity:1;fill-rule:nonzero;stroke:none;stroke-width:0.184057"
       id="path576" />
    <path
       d="m 416.92435,62.799392 c 0.074,0.04454 0.15313,0.09277 0.2343,0.142462 0.0316,-0.02226 0.0569,-0.04031 0.0799,-0.05687 -0.11798,-0.14025 -0.11798,-0.14025 -0.1086,-0.309954 0.0144,-0.0028 0.0309,-0.0014 0.0438,-0.0085 0.0359,-0.01951 0.0705,-0.04252 0.11356,-0.06828 0.0512,0.03663 0.12148,0.06534 0.15829,0.117058 0.0698,0.09995 0.0782,0.299096 -0.092,0.370325 -0.0583,0.02448 -0.11153,0.05393 -0.17908,0.04896 -0.0762,-0.0066 -0.15388,-0.0014 -0.23302,-0.0014 -0.0495,-0.05043 -0.0985,-0.100679 -0.13804,-0.14025 -0.0171,-0.08982 -0.0151,-0.177617 -0.0525,-0.240933 -0.0324,-0.05246 -0.0107,-0.07178 0.007,-0.109146 0.0374,-0.07915 0.069,-0.159763 0.13381,-0.225838 0.0668,-0.06682 0.15589,-0.07841 0.23577,-0.109333 0.0532,-0.02078 0.11798,0.04675 0.0898,0.09424 -0.0201,0.03313 0,0.09203 -0.0725,0.107121 -0.0561,0.01161 -0.1086,0.06405 -0.15038,0.110066 -0.0329,0.03663 -0.0552,0.08688 -0.0683,0.135837 -0.0107,0.04031 -0.002,0.08706 -0.002,0.144484"
       style="fill:#21201d;fill-opacity:1;fill-rule:nonzero;stroke:none;stroke-width:0.184057"
       id="path578" />
    <path
       d="m 417.24055,61.019183 c -0.0755,-0.0035 -0.13436,-0.0057 -0.1905,-0.0079 -0.0388,0.04252 -0.0755,0.08209 -0.12497,0.136754 -0.0368,0.165284 0.0596,0.286763 0.217,0.356521 0.0576,0.02522 0.0539,0.06902 0.0762,0.102888 0.0267,0.0381 -0.0193,0.09332 -0.0705,0.100679 -0.092,0.01436 -0.21848,-0.05982 -0.29192,-0.139517 -0.14006,-0.153133 -0.10987,-0.316395 -0.0502,-0.486096 0.0331,-0.09497 0.0388,-0.08835 0.12368,-0.162521 0.0381,-0.03221 0.0725,-0.04086 0.11651,-0.03957 0.0906,0.0021 0.18332,-0.01214 0.26743,0.03387 0.0554,0.0302 0.12222,0.04822 0.14081,0.122217 0.0165,0.06258 0.0618,0.115033 0.008,0.191971 -0.0329,0.04749 -0.0151,0.130129 -0.0963,0.154608 -0.0287,0.0079 -0.0604,0.02946 -0.0863,0.02448 -0.0445,-0.0079 -0.0891,-0.02815 -0.12645,-0.05245 -0.0418,-0.0267 -0.0445,-0.107858 -0.0124,-0.177616 0.0131,-0.02741 0.0302,-0.05319 0.0467,-0.07988 0.0131,-0.02078 0.0289,-0.0416 0.0532,-0.07841"
       style="fill:#21201d;fill-opacity:1;fill-rule:nonzero;stroke:none;stroke-width:0.184057"
       id="path580" />
    <path
       d="m 413.05051,61.520375 c 0.1294,-0.03443 0.22363,-0.09277 0.28603,-0.210012 0.041,-0.07693 -0.0216,-0.129392 -0.023,-0.196205 -7.1e-4,-0.04105 -0.0329,-0.05816 -0.074,-0.0705 -0.0423,-0.01288 -0.0799,-0.0438 -0.13952,-0.07767 -0.007,0.03094 -0.0151,0.06626 -0.023,0.10068 -0.0114,-0.0057 -0.023,-0.01143 -0.0344,-0.01803 0.0351,0.03957 0.0718,0.07767 0.1027,0.110804 0.0223,0.09424 -7e-4,0.167492 -0.0826,0.217925 h -0.16178 c -0.11651,-0.121479 -0.11651,-0.121479 -0.11283,-0.35155 0.0928,-0.08853 0.19621,-0.148904 0.33572,-0.148904 0.0676,0 0.13013,-0.02798 0.19694,0.02152 0.0677,0.0497 0.16105,0.182587 0.1605,0.245904 0,0.02226 -0.005,0.04527 7e-4,0.06607 0.018,0.06553 0.092,0.139517 0.0447,0.192708 -0.0425,0.04822 -0.0799,0.09645 -0.11227,0.151663 -0.0525,0.08706 -0.14596,0.11872 -0.2321,0.150375 -0.0814,0.03094 -0.12737,-0.01436 -0.1316,-0.108592 -7.1e-4,-0.02596 0,-0.05246 0,-0.0762"
       style="fill:#21201d;fill-opacity:1;fill-rule:nonzero;stroke:none;stroke-width:0.184057"
       id="path582" />
    <path
       d="m 415.91921,59.849496 c -0.0475,0.04749 -0.0907,0.09056 -0.14172,0.141541 -0.0337,-0.0065 -0.0797,-0.005 -0.11209,-0.02575 -0.0504,-0.03164 -0.0633,-0.09847 -0.0655,-0.223632 0.0381,-0.03387 0.0791,-0.06976 0.13233,-0.116509 h 0.2113 c 0.095,0.06111 0.1454,0.156817 0.17338,0.265963 0.004,0.0151 0.0158,0.04031 0.0114,0.04325 -0.0646,0.04602 0.0353,0.08982 0,0.138045 -0.0329,0.04601 -0.0547,0.09921 -0.0834,0.14743 -0.008,0.01288 -0.0223,0.02575 -0.0359,0.0309 -0.0388,0.01362 -0.0791,0.02226 -0.11798,0.03369 -0.0344,0.01087 -0.0698,0.01951 -0.10197,0.03387 -0.15239,0.06829 -0.28694,0.02797 -0.38909,-0.112275 -0.0423,-0.0589 -0.10712,-0.101967 -0.11356,-0.184796 -0.004,-0.04012 -0.0151,-0.0797 -0.0265,-0.133625 0.0394,0 0.0653,7.06e-4 0.0913,0 0.079,-0.0021 0.16031,-0.0079 0.14945,0.110621 0.0935,0.103625 0.18203,0.218658 0.34511,0.184792 0.0821,-0.05393 0.11006,-0.132888 0.13656,-0.224183 0.0237,-0.08338 -0.0158,-0.08927 -0.0631,-0.10933"
       style="fill:#21201d;fill-opacity:1;fill-rule:nonzero;stroke:none;stroke-width:0.184057"
       id="path584" />
    <path
       d="m 414.07147,59.854466 c 0.0171,0.07123 -0.0217,0.136571 0.0388,0.182584 -0.0116,0.09866 0.0646,0.103625 0.12939,0.11375 0.0473,0.0079 0.0985,0.0014 0.14798,0.0014 0.0834,-0.07399 0.1662,-0.148717 0.19713,-0.260996 0.20779,-0.0042 0.2135,0.0059 0.15663,0.205779 -0.01,0.03589 -0.0151,0.04951 -0.0525,0.06111 -0.0324,0.0099 -0.0574,0.04877 -0.0812,0.0797 -0.0547,0.06828 -0.18553,0.130129 -0.26541,0.111538 -0.074,-0.01658 -0.15018,-0.03608 -0.21773,-0.07049 -0.0655,-0.03313 -0.12019,-0.08633 -0.16823,-0.122216 -0.0281,-0.06902 0.01,-0.130863 -0.0376,-0.186267 -0.0151,-0.01729 0.008,-0.07841 0.0274,-0.112092 0.0438,-0.07693 0.0467,-0.185529 0.15811,-0.212771 0.0245,-0.0066 0.0482,-0.02099 0.0727,-0.02173 0.0604,-0.0035 0.12148,-0.0014 0.17761,-0.0014 0.0416,0.04105 0.0804,0.07988 0.12866,0.128842 -0.0124,0.02723 -0.028,0.0589 -0.0418,0.09129 -0.0144,0.03313 -0.0258,0.06682 -0.0438,0.111357 -0.0366,0 -0.0799,-0.0028 -0.12221,7.06e-4 -0.0503,0.0044 -0.0878,-0.01729 -0.0977,-0.06258 -0.0131,-0.06608 -0.0561,-0.02946 -0.10638,-0.03736"
       style="fill:#21201d;fill-opacity:1;fill-rule:nonzero;stroke:none;stroke-width:0.184057"
       id="path586" />
    <path
       d="m 413.29273,63.032408 c -0.0633,0 -0.12368,-0.0028 -0.18405,7.06e-4 -0.072,0.0057 -0.13013,-0.02522 -0.19418,-0.05043 -0.15093,-0.05595 -0.16105,-0.259521 -0.0841,-0.373084 0.0274,-0.04031 0.069,-0.07123 0.0957,-0.09773 0.0344,0.0086 0.0633,0.01933 0.0928,0.02374 0.11853,0.01711 0.15957,0.09847 0.097,0.201175 -0.0245,0.04104 -0.0596,0.07565 -0.092,0.1143 0.0453,0.08706 0.13086,0.03387 0.1927,0.05043 0.0403,-0.04252 0.0777,-0.08191 0.13234,-0.140254 0,-0.01362 0,-0.05669 0,-0.09994 10e-4,-0.08412 -0.0504,-0.162525 -0.11228,-0.178354 -0.0826,-0.02152 -0.12423,-0.07749 -0.18534,-0.125709 0,-0.01877 7.1e-4,-0.04105 -7e-4,-0.06258 -0.003,-0.0611 0.0287,-0.08485 0.0876,-0.09129 0.0569,-0.0065 0.10933,0.0057 0.15037,0.03589 0.0626,0.04823 0.11632,0.105096 0.16381,0.172646 0.0913,0.131604 0.067,0.255842 0.0144,0.384683 -0.0359,0.08835 -0.0834,0.170988 -0.17393,0.235776"
       style="fill:#21201d;fill-opacity:1;fill-rule:nonzero;stroke:none;stroke-width:0.184057"
       id="path588" />
    <path
       d="m 417.28804,63.739192 c 0.12792,0.160316 0.23154,0.31345 0.29559,0.487387 0.0431,0.117242 0.0977,0.2251 0.17615,0.334983 -0.0202,0.02173 -0.041,0.04326 -0.0591,0.06185 -0.0186,-0.0042 -0.0316,-0.0028 -0.0381,-0.0092 -0.0502,-0.04675 -0.0883,-0.112275 -0.17687,-0.09424 -0.0251,0.005 -0.069,-0.01362 -0.0819,-0.03461 -0.0453,-0.07693 -0.14522,-0.05595 -0.19988,-0.124237 -0.0475,-0.05761 -0.12645,-0.08853 -0.19198,-0.131604 -0.0294,-0.01951 -0.0582,-0.03957 -0.0863,-0.05835 -0.0201,-0.08411 0.1051,-0.05172 0.10436,-0.138779 -7e-4,-0.05319 0.0913,-0.07252 0.12792,-0.12295 0.0359,-0.05172 0.0762,-0.09994 0.13013,-0.170254"
       style="fill:#21201d;fill-opacity:1;fill-rule:nonzero;stroke:none;stroke-width:0.184057"
       id="path590" />
    <path
       d="m 417.74671,59.385671 c -0.008,0.14025 -0.31916,0.740649 -0.43419,0.85642 -0.10142,-0.139516 -0.24296,-0.245166 -0.36241,-0.383208 0.0438,-0.05687 0.0806,-0.115771 0.15903,-0.143196 0.0473,-0.01658 0.0826,-0.06387 0.12791,-0.09056 0.0928,-0.05246 0.18756,-0.104175 0.28327,-0.150192 0.069,-0.03312 0.14227,-0.05687 0.22639,-0.08927"
       style="fill:#21201d;fill-opacity:1;fill-rule:nonzero;stroke:none;stroke-width:0.184057"
       id="path592" />
    <path
       d="m 412.96419,60.238412 c -0.0582,-0.09774 -0.10638,-0.209275 -0.18258,-0.296887 -0.0445,-0.05246 -0.0675,-0.110067 -0.0849,-0.16473 -0.0388,-0.125712 -0.0906,-0.240012 -0.17541,-0.341429 -0.004,-0.0057 10e-4,-0.02007 0.004,-0.04178 0.10142,-0.0072 0.18627,0.03884 0.26964,0.0878 0.0215,0.01362 0.0431,0.0381 0.0655,0.03958 0.1235,0.0092 0.20043,0.103441 0.29762,0.160313 0.0409,0.023 0.0769,0.0532 0.11577,0.08043 0.0517,0.03884 0.0574,0.0878 0.0144,0.136571 -0.0295,0.03164 -0.0626,0.06184 -0.0928,0.0935 -0.0769,0.08209 -0.15387,0.16473 -0.23081,0.246638"
       style="fill:#21201d;fill-opacity:1;fill-rule:nonzero;stroke:none;stroke-width:0.184057"
       id="path594" />
    <path
       d="m 414.17639,62.287529 c -0.0446,0.04454 -0.0834,0.08411 -0.12866,0.128654 -0.0144,0.151666 -0.0309,0.310692 -0.0467,0.469533 -0.0346,0.03443 -0.0734,0.07325 -0.11724,0.117246 -0.0977,-0.03238 -0.092,-0.130866 -0.10068,-0.204304 -0.0144,-0.124241 -0.004,-0.252346 -0.004,-0.378792 -0.0316,-0.0302 -0.0626,-0.06037 -0.0965,-0.0935 v -0.169701 c 0.0346,-0.02946 0.0762,-0.06479 0.11725,-0.09994 0.0423,-0.03517 0.10933,0.01161 0.15608,-0.04528 0.0517,0.01584 0.10914,0.02374 0.15516,0.04951 0.0396,0.02318 0.0799,0.05835 0.0663,0.120925 -0.006,0.0309 -10e-4,0.06534 -10e-4,0.10565"
       style="fill:#21201d;fill-opacity:1;fill-rule:nonzero;stroke:none;stroke-width:0.184057"
       id="path596" />
    <path
       d="m 413.32144,64.147433 c -0.0631,0.04822 -0.12,0.120925 -0.18902,0.136754 -0.0834,0.01859 -0.10712,0.125713 -0.20136,0.109146 -0.0453,0.07123 -0.12939,0.0878 -0.1962,0.125162 -0.0619,0.03461 -0.14025,0.04031 -0.21571,0.06037 0.018,-0.08633 0.0618,-0.155899 0.10067,-0.227866 0.0359,-0.06681 0.0633,-0.138779 0.0985,-0.207063 0.0366,-0.0727 0.0712,-0.147433 0.11504,-0.216454 0.0418,-0.06534 0.0806,-0.132337 0.12865,-0.210562 0.0554,0.08191 0.0985,0.15737 0.15314,0.222158 0.0604,0.07105 0.1316,0.133625 0.20632,0.208354"
       style="fill:#21201d;fill-opacity:1;fill-rule:nonzero;stroke:none;stroke-width:0.184057"
       id="path598" />
    <path
       d="m 415.46036,62.836758 c -0.22786,-0.0151 -0.44781,-0.03094 -0.65929,-0.04528 -0.0782,0.06902 -0.14374,0.126629 -0.0653,0.227312 0.008,0.01069 -0.0294,0.05669 -0.0539,0.102704 -0.0547,-0.05393 -0.10344,-0.09056 -0.13804,-0.137308 -0.0418,-0.05743 -0.0589,-0.138779 -0.0309,-0.197679 0.0272,-0.05963 0.10289,-0.09571 0.17467,-0.08264 0.0697,0.01288 0.12092,-0.03534 0.18553,-0.03736 0.0618,-0.0021 0.13086,0.02797 0.18553,-0.0302 0.005,-0.0059 0.023,-0.0037 0.0316,-7.06e-4 0.1524,0.06387 0.31124,0.023 0.46658,0.03147 0.12442,0.0074 0.2113,0.06976 0.24075,0.191421 0.004,0.01566 0.004,0.03443 0,0.04951 -0.0144,0.0497 -0.19842,0.19418 -0.24572,0.187004 -0.0166,-0.0021 -0.0455,-0.04602 -0.041,-0.0519 0.0675,-0.09405 -0.0267,-0.140804 -0.0504,-0.206329"
       style="fill:#21201d;fill-opacity:1;fill-rule:nonzero;stroke:none;stroke-width:0.184057"
       id="path600" />
    <path
       d="m 415.16992,63.2588 v -0.286762 h 0.15461 c 0.002,0.0079 0.007,0.02155 0.0101,0.03663 0.009,0.04675 -0.0173,0.09553 0.028,0.138042 0.0123,0.0114 0.006,0.0532 -0.004,0.07473 -0.0611,0.134546 -0.12516,0.2667 -0.18995,0.399038 -0.0322,0.06405 -0.0337,0.06332 -0.11853,0.07123 -0.10859,-0.213504 -0.12792,-0.44505 -0.15166,-0.692425 0.0396,0 0.0703,-0.0021 0.10123,7.06e-4 0.0418,0.005 0.0685,0.0302 0.0698,0.07399 10e-4,0.05982 7e-4,0.119454 7e-4,0.184792 z"
       style="fill:#21201d;fill-opacity:1;fill-rule:nonzero;stroke:none;stroke-width:0.184057"
       id="path602" />
    <path
       d="m 414.89605,60.949425 c 0.0188,-0.07178 0.0324,-0.125709 0.0475,-0.186817 -0.0445,-0.01803 -0.0878,-0.03164 -0.12663,-0.05393 -0.0539,-0.03164 -0.0604,-0.08853 -0.0186,-0.134546 0.0524,-0.05816 0.13436,-0.09129 0.15166,-0.18185 0.003,-0.01729 0.0396,-0.0309 0.0626,-0.04105 0.0324,-0.01362 0.0668,-0.023 0.10418,-0.03443 0.0539,0.04454 0.0705,0.10565 0.0928,0.171909 0.0151,0.04528 0.0841,0.07546 0.0935,0.14375 -0.018,0.01584 -0.0366,0.03514 -0.0582,0.04877 -0.0769,0.04822 -0.0769,0.04822 -0.0504,0.141725 0.0123,0.04104 -0.0151,0.08632 -0.0582,0.08982 -0.0489,0.0037 -0.0992,-0.0021 -0.14816,0.0021 -0.0237,0.0021 -0.0467,0.01658 -0.092,0.03443"
       style="fill:#21201d;fill-opacity:1;fill-rule:nonzero;stroke:none;stroke-width:0.184057"
       id="path604" />
    <path
       d="m 416.90262,63.269662 c 0.13805,0.07252 0.19566,0.214979 0.30278,0.331488 -0.0554,0.04528 -0.10491,0.08043 -0.14817,0.122212 -0.0488,0.04878 -0.0898,0.106388 -0.1373,0.156634 -0.0445,0.04896 -0.0928,0.0935 -0.14081,0.143199 -0.11797,-0.09792 -0.24958,-0.17412 -0.38762,-0.242404 0.0445,-0.04878 0.0849,-0.07896 0.14172,-0.03094 0.0193,0.01584 0.0446,0.03238 0.0683,0.03312 0.0646,0.0014 0.12369,0.08485 0.18829,0.02723 0.0871,-0.07749 0.18626,-0.153134 0.16749,-0.292467 -0.003,-0.01951 -0.01,-0.04031 -0.0201,-0.05761 -0.0453,-0.07473 -0.0453,-0.07473 -0.0346,-0.1905"
       style="fill:#21201d;fill-opacity:1;fill-rule:nonzero;stroke:none;stroke-width:0.184057"
       id="path606" />
    <path
       d="m 416.90557,60.715121 c -0.0445,-0.06828 0.006,-0.129392 0.0418,-0.164734 0.0596,-0.0624 0.0374,-0.106383 0.0121,-0.169516 -0.0403,-0.09866 -0.12001,-0.159763 -0.1848,-0.229334 -0.12295,0.0151 -0.21424,0.120004 -0.36314,0.09405 0.0245,-0.02872 0.0353,-0.04804 0.0512,-0.05963 0.0468,-0.03313 0.0928,-0.06755 0.14227,-0.0935 0.0475,-0.02522 0.11007,-0.02155 0.1281,-0.0913 0.001,-0.0086 0.0683,-0.01654 0.0834,-0.0028 0.12424,0.117242 0.24443,0.238721 0.36222,0.361671 0.0138,0.0151 0.018,0.06332 0.006,0.07418 -0.095,0.08558 -0.13805,0.219946 -0.25952,0.281055 -0.004,0.0014 -0.0109,0 -0.0195,0"
       style="fill:#21201d;fill-opacity:1;fill-rule:nonzero;stroke:none;stroke-width:0.184057"
       id="path608" />
    <path
       d="m 413.37464,60.717329 c -0.0977,-0.04822 -0.22216,-0.197679 -0.29615,-0.354496 0.041,-0.0381 0.0856,-0.07767 0.12866,-0.119267 0.044,-0.04178 0.0928,-0.08062 0.12736,-0.130316 0.0322,-0.04601 0.10786,-0.04233 0.12001,-0.112092 7e-4,-0.0094 0.0626,-0.02226 0.0712,-0.01213 0.0797,0.09773 0.20412,0.124238 0.29982,0.19547 0.0136,0.0094 0.0166,0.03387 0.0329,0.07049 -0.048,-0.0065 -0.079,-0.0057 -0.10712,-0.01584 -0.0574,-0.01933 -0.11209,-0.04675 -0.16896,-0.06828 -0.0725,-0.02667 -0.18829,0.0072 -0.19547,0.07049 -0.006,0.05816 -0.0353,0.08633 -0.0676,0.122216 -0.0504,0.05669 -0.0554,0.07473 -0.003,0.134363 0.0576,0.06552 0.0762,0.133809 0.0582,0.219396"
       style="fill:#21201d;fill-opacity:1;fill-rule:nonzero;stroke:none;stroke-width:0.184057"
       id="path610" />
    <path
       d="m 413.43446,63.992271 c -0.0396,-0.08338 -0.0999,-0.145221 -0.1848,-0.182767 -0.0195,-0.09479 -0.11798,-0.124242 -0.16823,-0.208354 0.0596,-0.135284 0.15958,-0.245904 0.31419,-0.348792 -0.0188,0.05687 -0.0215,0.09497 -0.0418,0.119454 -0.0403,0.05098 -0.0942,0.112092 -0.0653,0.166758 0.0258,0.04951 0.008,0.120005 0.0718,0.153871 0.0188,0.0099 0.0217,0.04602 0.0368,0.06608 0.0295,0.03884 0.0725,0.0381 0.13933,0.0381 0.0769,0 0.14025,-0.03589 0.21075,-0.05393 0.0144,-0.0028 0.0287,-0.0151 0.0423,-0.01362 0.0195,0.0021 0.0374,0.01214 0.0561,0.01933 -0.0101,0.0151 -0.0173,0.03607 -0.0309,0.04472 -0.049,0.02946 -0.0977,0.06185 -0.14596,0.08761 -0.0755,0.04031 -0.13362,0.125158 -0.2343,0.111537"
       style="fill:#21201d;fill-opacity:1;fill-rule:nonzero;stroke:none;stroke-width:0.184057"
       id="path612" />
    <path
       d="m 416.51022,61.815233 c 0.0193,-0.03164 0.0438,-0.0554 0.048,-0.08209 0.013,-0.07178 -0.0216,-0.151663 0.0346,-0.217005 -0.0215,-0.04822 -0.0403,-0.09571 -0.0339,-0.151112 0.004,-0.04804 7e-4,-0.09773 -0.009,-0.144484 -0.01,-0.05025 -0.033,-0.09774 -0.0446,-0.146695 -0.018,-0.07399 -0.0309,-0.14743 -0.0482,-0.230809 0.11872,0.05835 0.0742,0.179825 0.13381,0.251055 0.009,0.163075 0.0784,0.316949 0.0705,0.484441 -0.009,0.182767 -0.002,0.182767 -0.0734,0.350263 -0.0337,0.01143 -0.0668,0.02946 -0.10123,0.03238 -0.0267,0.0021 -0.0532,-0.01658 -0.0928,-0.0309 0.0129,-0.0554 -0.0281,-0.118717 0.0316,-0.174854 0.0107,-0.01069 0.004,-0.04307 0.001,-0.0646 -0.004,-0.04105 -0.028,-0.07546 -0.004,-0.123688 0.0136,-0.02741 -0.0223,-0.0762 -0.0274,-0.116508 -0.006,-0.04675 0.009,-0.09626 -0.033,-0.135834 -0.008,-0.0079 -0.004,-0.03239 -7e-4,-0.04822 0.002,-0.0086 0.0136,-0.02081 0.0201,-0.02007 0.0151,7.05e-4 0.0396,0.0057 0.0425,0.01362 0.0144,0.05467 0.0294,0.110617 0.0344,0.167492 0.006,0.06553 -0.004,0.132337 0.004,0.197679 0.007,0.06037 0.0287,0.119454 0.0475,0.189946"
       style="fill:#21201d;fill-opacity:1;fill-rule:nonzero;stroke:none;stroke-width:0.184057"
       id="path614" />
    <path
       d="m 416.71783,63.173213 c 0.0109,0.184058 0.0101,0.184058 -0.16031,0.224366 -0.0186,0.0044 -0.0344,0.02815 -0.0525,0.03094 -0.13731,0.02596 -0.28106,0.02596 -0.3926,0.1316 -0.0114,0.01087 -0.046,0.0094 -0.0631,7.06e-4 -0.0418,-0.02081 -0.0791,-0.0497 -0.11375,-0.07197 0.0626,-0.03369 0.13087,-0.0589 0.18351,-0.10197 0.0624,-0.05191 0.14872,-0.03165 0.20117,-0.0727 0.0618,-0.04896 0.13455,-0.08191 0.19713,-0.07694 0.0841,0.0086 0.11135,-0.121479 0.20043,-0.06405"
       style="fill:#21201d;fill-opacity:1;fill-rule:nonzero;stroke:none;stroke-width:0.184057"
       id="path616" />
    <path
       d="m 414.19222,63.457216 c -0.0411,0.0028 -0.0604,-0.0014 -0.072,0.0066 -0.10271,0.06957 -0.17173,0.01069 -0.24737,-0.05393 -0.10418,-0.08927 -0.21553,-0.1697 -0.32339,-0.253816 0.0316,-0.04325 0.0604,-0.08338 0.0891,-0.123688 0.0928,0.06608 0.18829,0.13013 0.27903,0.199154 0.0883,0.06828 0.17246,0.141538 0.27462,0.225654"
       style="fill:#21201d;fill-opacity:1;fill-rule:nonzero;stroke:none;stroke-width:0.184057"
       id="path618" />
    <path
       d="m 414.78175,63.395371 c -0.15682,0.04675 -0.28897,0.02247 -0.39535,-0.07325 -0.12811,-0.113563 -0.21001,-0.25308 -0.16897,-0.447996 0.0179,-0.01566 0.0466,-0.04086 0.0769,-0.06958 0.003,0.0035 0.0143,0.01214 0.0136,0.01785 -0.0158,0.09203 0.0208,0.177617 0.0351,0.266146 0.0116,0.06903 0.069,0.115038 0.12368,0.138596 0.0784,0.03461 0.1467,0.09277 0.23652,0.106571 0.0281,0.0035 0.0524,0.04013 0.0784,0.06166"
       style="fill:#21201d;fill-opacity:1;fill-rule:nonzero;stroke:none;stroke-width:0.184057"
       id="path620" />
    <path
       d="m 415.6827,60.733895 c 0.0322,-0.10657 0.0228,-0.171174 -0.10436,-0.199887 0.0438,-0.01161 0.0705,-0.01877 0.0964,-0.02522 0.0445,-0.01161 0.074,0.05246 0.12423,0.08761 v 0.201358 c -0.0388,0.03736 -0.0777,0.07473 -0.11926,0.115775 -0.0123,0 -0.0287,0 -0.0446,0 -0.11374,-0.0028 -0.16031,-0.04823 -0.16822,-0.158845 -0.003,-0.04325 0.007,-0.07767 0.0431,-0.09645 0.0346,-0.01859 0.0705,-0.01785 0.10068,0.01658 0.0158,0.01877 0.0388,0.03238 0.072,0.05908"
       style="fill:#21201d;fill-opacity:1;fill-rule:nonzero;stroke:none;stroke-width:0.184057"
       id="path622" />
    <path
       d="m 415.5338,61.41675 c 0.0712,-0.01436 0.13086,-0.03147 0.19197,-0.0381 0.0272,-0.0021 0.0626,0.01161 0.0848,0.02963 0.0856,0.06828 0.0589,0.195471 -0.0475,0.232833 -0.0193,0.0072 -0.0423,0.0052 -0.0596,0.01436 -0.0547,0.03239 -0.0826,0.0302 -0.11577,-0.03737 -0.0425,-0.08614 -0.0532,-0.08043 -0.0539,-0.201358"
       style="fill:#21201d;fill-opacity:1;fill-rule:nonzero;stroke:none;stroke-width:0.184057"
       id="path624" />
    <path
       d="m 415.93136,62.813012 c 0.13952,0.197863 0.0316,0.348792 -0.0381,0.502663 -0.0101,0.023 -0.0503,0.0438 -0.0777,0.04528 -0.11062,0.0057 -0.20265,0.0935 -0.31842,0.06902 -0.041,0.04528 -0.069,0.01803 -0.10289,-0.0302 0.0374,-0.01288 0.0705,-0.02596 0.10436,-0.03589 0.12351,-0.03461 0.25014,-0.06405 0.34566,-0.161053 0.0584,-0.05908 0.0935,-0.125159 0.0871,-0.212217 -0.003,-0.04804 0,-0.097 0,-0.177617"
       style="fill:#21201d;fill-opacity:1;fill-rule:nonzero;stroke:none;stroke-width:0.184057"
       id="path626" />
    <path
       d="m 414.60634,61.597312 c -0.0834,0.03589 -0.15884,0.0878 -0.22363,0.0014 -0.0668,-0.08853 -0.0569,-0.120742 0.051,-0.224367 0.0123,0.0057 0.0252,0.01214 0.0396,0.01877 0.13307,0.05319 0.13307,0.05319 0.13307,0.204121"
       style="fill:#21201d;fill-opacity:1;fill-rule:nonzero;stroke:none;stroke-width:0.184057"
       id="path628" />
    <path
       d="m 414.34167,60.855374 c -0.18406,-0.110804 -0.21351,-0.213508 -0.1143,-0.337195 0.009,0.06387 0.003,0.115771 -0.0179,0.16105 0.0596,0.07546 0.0596,0.07546 0.12645,0.02575 -7.1e-4,-0.02872 -0.0611,-0.07767 -0.009,-0.08411 0.0799,-0.01069 0.0295,-0.06976 0.0561,-0.09553 0.0547,-0.02889 0.0913,-7.06e-4 0.11798,0.03295 -0.0526,0.09792 -0.10289,0.192709 -0.15902,0.297071"
       style="fill:#21201d;fill-opacity:1;fill-rule:nonzero;stroke:none;stroke-width:0.184057"
       id="path630" />
    <path
       d="m 415.42594,64.347321 c -0.0502,0.01012 -0.0985,0.02025 -0.14301,0.02889 -0.0203,-0.02963 -0.0447,-0.06405 -0.0697,-0.100679 0.009,-0.0302 0.0201,-0.06755 0.0351,-0.118717 0.0561,0.0037 0.12792,-0.0099 0.17835,0.01658 0.0928,0.04896 0.0151,0.116511 -7e-4,0.173937"
       style="fill:#21201d;fill-opacity:1;fill-rule:nonzero;stroke:none;stroke-width:0.184057"
       id="path632" />
    <path
       d="m 417.33405,62.1747 c 0.14891,0.01069 0.2078,0.04307 0.2194,0.103441 0.023,0.112826 -0.0698,0.124421 -0.13804,0.158842 -0.11872,-0.0589 -0.0274,-0.168783 -0.0814,-0.262283"
       style="fill:#21201d;fill-opacity:1;fill-rule:nonzero;stroke:none;stroke-width:0.184057"
       id="path634" />
    <path
       d="m 412.91026,61.741796 c -0.0604,-0.0021 -0.11282,0.01012 -0.1546,-0.0438 -0.0245,-0.03164 -0.0396,-0.05964 -0.0366,-0.09921 0.006,-0.08062 0.0208,-0.08853 0.19123,-0.0878 z"
       style="fill:#21201d;fill-opacity:1;fill-rule:nonzero;stroke:none;stroke-width:0.184057"
       id="path636" />
    <path
       d="m 415.51374,59.658262 c -0.0547,0.04951 -0.0806,0.105646 -0.15608,0.0992 -0.051,-0.005 -0.0942,-0.0086 -0.12792,-0.06608 0.0453,-0.03884 0.028,-0.126633 0.12221,-0.136754 0.0826,-0.0086 0.10988,0.04822 0.16179,0.103625"
       style="fill:#21201d;fill-opacity:1;fill-rule:nonzero;stroke:none;stroke-width:0.184057"
       id="path638" />
    <path
       d="m 414.8169,64.208541 c -0.0186,0.05264 -0.0344,0.09497 -0.0532,0.148167 -0.0237,0 -0.0503,0.0044 -0.0762,-7.06e-4 -0.0337,-0.0072 -0.0755,0.05963 -0.10068,-0.005 -0.0215,-0.05319 -0.0316,-0.112825 0.0101,-0.166021 0.028,-0.03681 0.0633,-0.03239 0.10068,-0.01877 0.0339,0.01139 0.0668,0.02374 0.11927,0.04233"
       style="fill:#21201d;fill-opacity:1;fill-rule:nonzero;stroke:none;stroke-width:0.184057"
       id="path640" />
    <path
       d="m 412.76283,62.396858 c -0.0582,-0.07491 -0.046,-0.149638 0.003,-0.220687 h 0.15239 c 0,0.02872 0,0.05375 0,0.08043 -7e-4,0.145225 -7e-4,0.145225 -0.15534,0.140254"
       style="fill:#21201d;fill-opacity:1;fill-rule:nonzero;stroke:none;stroke-width:0.184057"
       id="path642" />
    <path
       d="m 417.36,61.513196 h 0.1467 c 0.0144,0.0416 0.0287,0.08485 0.0445,0.133074 -7.1e-4,0.0028 -10e-4,0.0151 -0.008,0.02152 -0.0712,0.07105 -0.0712,0.0705 -0.18332,0.06755 z"
       style="fill:#21201d;fill-opacity:1;fill-rule:nonzero;stroke:none;stroke-width:0.184057"
       id="path644" />
    <path
       d="m 414.58186,59.722866 c -0.004,-0.02226 -0.009,-0.03221 -0.008,-0.04233 0.005,-0.109333 0.0208,-0.125896 0.12,-0.124425 0.0913,0.0014 0.12958,0.04325 0.10933,0.132338 -0.007,0.03589 -0.0151,0.09056 -0.0826,0.0381 -0.0267,-0.02152 -0.0849,-0.0037 -0.13878,-0.0037"
       style="fill:#21201d;fill-opacity:1;fill-rule:nonzero;stroke:none;stroke-width:0.184057"
       id="path646" />
  </g>
</svg>
