<?xml version="1.0" encoding="UTF-8" standalone="no"?>
<!-- Created with Inkscape (http://www.inkscape.org/) -->

<svg
   width="8.2919436mm"
   height="8.4336853mm"
   viewBox="0 0 8.2919436 8.4336853"
   version="1.1"
   id="svg2794"
   inkscape:version="1.1.2 (0a00cf5339, 2022-02-04)"
   sodipodi:docname="rm1.svg"
   xmlns:inkscape="http://www.inkscape.org/namespaces/inkscape"
   xmlns:sodipodi="http://sodipodi.sourceforge.net/DTD/sodipodi-0.dtd"
   xmlns="http://www.w3.org/2000/svg"
   xmlns:svg="http://www.w3.org/2000/svg">
  <sodipodi:namedview
     id="namedview2796"
     pagecolor="#ffffff"
     bordercolor="#666666"
     borderopacity="1.0"
     inkscape:pageshadow="2"
     inkscape:pageopacity="0.0"
     inkscape:pagecheckerboard="0"
     inkscape:document-units="mm"
     showgrid="false"
     inkscape:zoom="0.64052329"
     inkscape:cx="326.29571"
     inkscape:cy="697.08629"
     inkscape:window-width="2560"
     inkscape:window-height="1376"
     inkscape:window-x="0"
     inkscape:window-y="0"
     inkscape:window-maximized="1"
     inkscape:current-layer="layer1" />
  <defs
     id="defs2791">
    <clipPath
       clipPathUnits="userSpaceOnUse"
       id="clipPath248">
      <path
         d="m 258.121,32.957 h 45.871 V 79 h -45.871 z"
         id="path246" />
    </clipPath>
  </defs>
  <g
     inkscape:label="Layer 1"
     inkscape:groupmode="layer"
     id="layer1"
     transform="translate(-18.573083,36.023518)">
    <g
       id="g626"
       transform="matrix(0.18405616,0,0,0.18405792,-29.022736,-42.091573)">
      <g
         clip-path="url(#clipPath248)"
         id="g624">
        <path
           d="m 265.48,46.371 c 0.141,0.043 0.227,0.102 0.274,0.082 0.129,-0.062 0.266,-0.133 0.359,-0.234 0.746,-0.817 1.485,-1.641 2.129,-2.364 0.309,-0.078 0.453,-0.132 0.598,-0.156 0.972,-0.156 1.926,-0.551 2.937,-0.168 0.27,0.106 0.61,0.137 0.946,-0.101 -1.52,-0.703 -4.114,-0.575 -5.207,0.211 -0.094,-0.055 -0.188,-0.114 -0.313,-0.196 -1.058,0.66 -1.547,1.66 -1.723,2.926 m 25.161,-2.965 c 2.074,0.012 4.593,0.563 5.941,2.969 0.106,-0.219 0.195,-0.406 0.313,-0.664 -0.321,-0.609 -0.645,-1.231 -0.954,-1.809 -0.296,-0.144 -0.574,-0.211 -0.753,-0.382 -0.524,-0.504 -1.133,-0.676 -1.84,-0.629 -0.176,0.011 -0.36,-0.082 -0.543,-0.106 -1.352,-0.164 -2.633,-0.062 -3.809,0.754 -0.402,0.281 -0.934,0.383 -1.445,0.582 -0.285,-0.359 -0.504,-0.629 -0.77,-0.965 -0.117,0.215 -0.234,0.391 -0.308,0.586 -0.043,0.09 0,0.211 0.007,0.336 0.325,0.18 0.645,0.36 1.02,0.567 0.934,-0.368 1.891,-0.743 3.141,-1.239 m -14.965,17.352 -0.094,-0.008 c -0.043,0.883 -0.094,1.762 -0.148,2.848 -0.016,0.043 -0.11,0.3 -0.274,0.746 0.375,-0.18 0.633,-0.223 0.731,-0.367 0.453,-0.661 0.937,-1.321 1.257,-2.047 0.356,-0.793 0.543,-1.657 0.801,-2.489 -0.258,-0.281 -0.453,-0.492 -0.664,-0.722 -0.672,0.066 -1.312,0.129 -2.035,0.199 0.164,0.707 0.297,1.273 0.426,1.84 m 11.355,3.344 c 0.047,-1.379 -0.144,-2.661 -0.375,-3.668 0.098,-0.653 0.16,-1.063 0.231,-1.536 -0.844,-0.082 -1.563,-0.144 -2.344,-0.214 -0.602,2.039 0.598,3.523 1.5,5.07 0.34,0.117 0.613,0.215 0.988,0.348 m -13.625,-12.59 c 0.387,-0.492 0.75,-0.95 1.074,-1.36 -0.328,-1.406 -0.332,-2.898 -2.027,-3.402 -0.324,0.016 -0.691,0.039 -1.027,0.062 -0.582,0.376 -1.141,0.735 -1.762,1.137 -0.152,0.68 -0.312,1.387 -0.457,2.012 0.43,1.101 1.074,1.211 2.41,1.766 0.547,0.226 1.172,0.093 1.789,-0.215 m 1.321,5.582 c 0.121,0.293 0.293,0.691 0.488,1.14 0.703,-0.035 1.426,-0.07 2.086,-0.105 0.297,-0.281 0.511,-0.488 0.66,-0.629 0.086,-0.426 0.152,-0.746 0.238,-1.176 0.504,0.043 0.965,0.082 1.59,0.137 0.184,-0.07 0.527,-0.195 0.793,-0.293 0.285,-1.27 0.426,-2.457 -0.152,-3.695 -0.465,-0.336 -0.93,-0.875 -1.797,-0.645 0.57,0.586 0.801,1.168 0.535,1.906 -0.301,0.246 -0.617,0.496 -0.957,0.774 -0.477,0 -0.977,0.094 -1.434,-0.02 -1.57,-0.383 -3.043,-0.168 -4.312,0.801 -0.75,0.574 -1.641,0.758 -2.285,1.164 -0.383,-0.047 -0.629,-0.078 -0.868,-0.105 -0.093,0.187 -0.156,0.32 -0.195,0.402 -0.41,-0.211 -0.816,-0.422 -1.207,-0.625 -0.305,-0.504 -0.469,-1.023 -0.183,-1.59 0.324,-0.308 0.66,-0.621 1.027,-0.965 -0.762,-0.34 -1.137,0.219 -1.613,0.426 -0.211,0.438 -0.414,0.867 -0.641,1.34 0.102,0.445 0.211,0.91 0.34,1.465 0.359,0.273 0.765,0.578 1.086,0.82 0.304,-0.043 0.453,-0.059 0.597,-0.086 0.801,-0.144 1.594,-0.371 2.399,-0.422 1.234,-0.074 2.469,-0.019 3.805,-0.019 m 7.48,-0.782 h 1.844 c 0.066,0.547 0.144,1.114 0.219,1.7 1.019,0.027 1.953,0.59 2.847,-0.074 0.11,-0.254 0.207,-0.493 0.297,-0.719 0.301,-0.129 0.574,-0.246 0.84,-0.364 2.082,1.04 4.285,0.594 6.23,0.61 1.27,-0.41 1.063,-1.637 1.77,-2.332 -0.141,-0.461 -0.27,-0.914 -0.426,-1.442 -0.695,0.215 -1.058,-0.644 -1.719,-0.406 -0.25,0.664 0.457,0.832 0.59,1.379 -0.023,0.266 -0.062,0.621 -0.097,0.977 -0.704,0.25 -1.321,0.472 -1.926,0.687 -1.383,-0.32 -2.645,-0.812 -3.547,-1.855 -0.438,-0.157 -0.817,-0.285 -1.195,-0.434 -0.872,-0.336 -1.825,-0.309 -2.598,0.016 -0.699,0.293 -1.359,0.476 -2.145,0.511 -0.117,-0.242 -0.246,-0.504 -0.351,-0.718 0.082,-0.348 0.152,-0.633 0.219,-0.918 0.293,-0.348 0.773,-0.52 0.98,-1.024 h -1.133 c -0.316,0.239 -0.609,0.461 -0.785,0.594 -0.832,1.34 -0.805,2.543 0.086,3.812 M 280.52,44.383 c -2.375,-0.473 -2.473,-0.461 -3.606,0.32 -0.633,1.313 -0.398,2.539 0.297,3.793 0.242,0.098 0.531,0.219 0.879,0.356 -0.383,-2.168 -0.215,-2.571 1.027,-2.547 0.301,0.965 0.617,1.933 0.199,3.082 -0.566,0.152 -1.199,0.316 -2.007,0.531 -0.286,-0.465 -0.582,-0.945 -0.879,-1.426 -0.453,-0.383 -0.727,-0.988 -1.188,-1.367 -0.976,-0.801 -2.047,-1.5 -3.101,-2.211 -0.426,-0.285 -0.907,-0.531 -1.461,-0.426 -0.825,0.16 -1.645,0.332 -2.387,0.485 -0.574,1.402 -1.09,2.66 -1.551,3.785 0,0.187 -0.008,0.234 0.004,0.265 0.098,0.231 0.195,0.457 0.285,0.661 -0.101,0.171 -0.183,0.312 -0.246,0.421 0.731,1 1.442,1.895 2.613,2.43 0.329,-0.023 0.743,-0.047 1.157,-0.074 0.004,-0.063 0.007,-0.125 0.011,-0.188 -0.386,-0.082 -0.769,-0.164 -1.171,-0.246 -0.329,-0.269 -0.719,-0.515 -0.997,-0.843 -0.3,-0.356 -0.5,-0.801 -0.742,-1.204 0.043,-0.007 0.086,-0.015 0.133,-0.019 -0.047,-0.406 -0.086,-0.809 -0.133,-1.277 0.91,-1.489 2.375,-2.426 4.141,-2.93 2.383,0.992 3.777,2.734 3.906,5.34 0.5,0.101 0.899,0.183 1.195,0.246 1.196,-0.18 2.29,-0.336 3.438,-0.508 0.152,-0.285 0.305,-0.566 0.457,-0.855 -0.055,-0.008 -0.113,-0.016 -0.168,-0.028 -0.039,-1.844 -0.07,-3.683 -0.105,-5.566 m -2.157,22.734 c 0.199,0.215 0.395,0.434 0.567,0.625 -0.078,0.418 -0.149,0.781 -0.219,1.137 -1.008,0.523 -2.023,0.66 -2.953,0.125 -0.36,-0.41 -0.637,-0.731 -1,-1.152 -0.258,0.468 -0.434,0.781 -0.621,1.113 0.238,0.535 0.461,1.039 0.656,1.484 0.547,0.188 1,0.348 1.457,0.508 1.477,-0.148 2.965,-0.293 4.52,-0.449 -0.184,-1.203 0.191,-2.438 -0.305,-3.586 -0.16,-0.078 -0.289,-0.145 -0.449,-0.231 0.386,-0.648 -0.45,-0.851 -0.407,-1.355 -1.972,-0.617 -3.921,-0.594 -5.882,-0.344 -0.579,0.074 -1.11,0.024 -1.547,-0.367 -0.434,-0.684 -0.91,-1.336 -1.387,-1.988 -0.473,-0.657 -0.949,-1.309 -1.438,-1.977 v -2.074 c -0.582,0.402 -0.886,0.848 -0.835,1.453 0.054,0.711 0.128,1.426 0.281,2.125 0.086,0.383 0.336,0.738 0.535,1.094 0.488,0.863 0.988,1.719 1.48,2.578 0.231,0.406 0.461,0.816 0.723,1.281 z m 8.457,3.758 c 0.543,-0.488 0.957,-0.852 1.301,-1.16 -0.047,-0.465 -0.082,-0.789 -0.121,-1.16 -0.215,-0.18 -0.461,-0.383 -0.871,-0.723 0.078,0.66 0.18,1.18 -0.176,1.293 h -3 v -1.437 c 0.625,-0.559 1.363,-0.528 2.039,-0.594 0.789,-0.071 1.594,0.008 2.395,0.011 0.644,0.004 1.281,0 2.144,0 0.227,-0.242 0.602,-0.64 0.93,-0.988 0.07,-0.863 0.57,-1.426 0.941,-2.058 0.821,-1.399 1.899,-2.711 1.637,-4.524 -0.23,-0.308 -0.473,-0.625 -0.734,-0.973 -0.172,0.016 -0.344,0.032 -0.555,0.047 0.047,2.637 -1.668,4.34 -2.902,6.161 -1.68,0.191 -3.2,0.359 -4.364,0.488 -1.011,-0.11 -1.699,-0.184 -2.328,-0.254 -0.355,0.238 -0.633,0.418 -0.894,0.594 -0.297,0.816 -0.871,1.5 -0.762,2.433 0.094,0.824 0.102,1.66 0.145,2.485 0.226,0.093 0.398,0.164 0.566,0.234 0.215,-0.102 0.41,-0.195 0.562,-0.27 1.352,0.614 2.747,0.227 4.047,0.395 m 1.371,-23.52 c 0.313,0.887 -0.296,1.629 -0.406,2.465 0.328,0.871 0.949,1.434 1.817,1.797 0.46,-0.023 0.937,-0.047 1.304,-0.062 0.617,-0.469 1.137,-0.86 1.668,-1.262 0.399,-0.777 0.348,-1.613 0.223,-2.465 -0.317,-0.281 -0.621,-0.551 -0.793,-0.707 -0.715,-0.23 -1.274,-0.406 -1.875,-0.594 -0.629,0.27 -1.293,0.559 -1.957,0.848 0.023,-0.219 0.051,-0.434 0.066,-0.609 1.989,-1.524 4.535,-0.93 5.547,1.422 0.688,2.101 -0.305,3.093 -1.418,4.144 0.348,0.043 0.59,0.07 0.899,0.109 0.429,-0.359 0.945,-0.683 1.316,-1.132 0.727,-0.879 1.25,-1.844 0.75,-3.059 -0.266,-0.648 -0.496,-1.316 -0.695,-1.988 -0.207,-0.707 -0.559,-1.289 -1.176,-1.633 -1.348,-0.738 -2.613,-0.16 -3.973,0.187 -1.043,0.907 -2.136,1.856 -3.187,2.766 -0.168,1.004 -0.781,1.566 -1.649,2.141 -0.578,-0.125 -1.246,-0.27 -1.824,-0.387 -0.633,-1.422 -0.633,-1.481 -0.062,-3.07 0.347,-0.102 0.73,-0.211 1.14,-0.328 0.278,0.261 0.512,0.484 0.797,0.761 v 2.016 c 1.188,-1.141 1.195,-2.629 0.09,-4.406 -1.027,-0.235 -2.078,-0.516 -3.082,0.093 -0.16,0.371 -0.289,0.676 -0.418,0.985 0.035,0 0.074,0.004 0.113,0.008 0.043,1.699 0.086,3.398 0.133,5.191 1.516,0.68 3.152,0.453 4.57,0.844 0.555,-0.301 0.684,-0.66 0.696,-1.164 0.011,-0.539 0.07,-1.137 0.316,-1.598 0.258,-0.48 0.371,-1.16 1.07,-1.313 M 271.613,35.312 c 0.153,-0.171 0.375,-0.414 0.453,-0.5 1.258,-0.292 2.317,-0.55 3.387,-0.777 0.352,-0.074 0.727,-0.035 1.078,-0.105 0.285,-0.059 0.625,-0.125 0.805,-0.317 0.574,-0.613 1.328,-0.652 2.047,-0.644 1.512,0.015 3.023,0.105 4.531,0.211 0.547,0.039 1.09,0.203 1.629,0.312 0.328,0.067 0.664,0.223 0.977,0.192 1.335,-0.149 2.359,0.566 3.406,1.187 0.601,0.356 1.136,0.824 1.683,1.266 0.743,0.601 1.625,0.836 2.516,0.965 0.57,0.523 1.086,1.015 1.504,1.652 0.391,0.594 0.984,1.074 1.551,1.523 0.636,0.5 1.047,1.082 1.386,1.828 0.395,0.86 0.965,1.704 1.641,2.364 1.113,1.097 1.531,2.41 1.637,3.886 0.008,0.114 0.031,0.223 0.031,0.215 0.816,1.91 1.488,3.739 1.578,5.727 -0.164,0.32 -0.336,0.637 -0.515,0.984 0.949,1.297 0.742,2.742 0.519,4.164 -0.082,0.567 -0.039,1.188 -0.465,1.676 -0.066,0.074 -0.07,0.215 -0.066,0.324 0.062,0.965 -0.512,1.801 -0.574,2.75 -0.024,0.328 -0.313,0.645 -0.504,0.957 -0.703,1.157 -1.375,2.344 -2.563,3.203 -0.308,0.586 -0.582,1.27 -0.996,1.852 -0.332,0.473 -0.777,0.918 -1.269,1.211 -1.286,0.766 -2.29,1.852 -3.375,2.836 -0.356,0.328 -0.536,0.848 -0.747,1.203 -1.031,0.297 -1.968,0.504 -2.855,0.848 -0.566,0.218 -1.059,0.636 -1.727,1.054 -2.562,0.125 -5.238,1.125 -8.128,0.969 -0.133,0.113 -0.329,0.277 -0.543,0.461 -0.211,-0.094 -0.426,-0.234 -0.661,-0.273 -0.211,-0.036 -0.437,0.05 -0.562,0.07 -0.688,-0.18 -1.289,-0.34 -2.11,-0.555 -0.351,-0.285 -0.933,-0.605 -1.617,-0.437 -0.593,-0.383 -1.148,-0.739 -1.711,-1.098 -0.132,0.094 -0.246,0.176 -0.355,0.258 -0.441,-0.664 -1.031,-0.922 -1.856,-0.625 -0.683,-0.465 -1.378,-0.945 -2.082,-1.41 -0.066,-0.047 -0.207,0.011 -0.308,0.027 -0.25,-0.613 -0.555,-1.141 -1.328,-1.137 -0.352,-0.73 -0.352,-0.73 -1.106,-1.054 -0.316,-0.457 -0.535,-0.821 -0.804,-1.145 -0.278,-0.324 -0.602,-0.605 -0.922,-0.93 h -0.457 c -0.457,-0.632 -0.942,-1.292 -1.469,-2.019 0.008,0 -0.098,-0.012 -0.102,-0.012 -0.226,-0.476 -0.433,-0.894 -0.633,-1.32 -0.484,-1.027 -0.976,-2.055 -1.429,-3.094 -0.059,-0.129 0.07,-0.344 0.121,-0.535 -0.149,-0.176 -0.285,-0.34 -0.402,-0.473 0.203,-1.066 0.23,-2.078 -0.293,-3.043 -0.118,-0.218 -0.18,-0.468 -0.254,-0.707 -0.149,-0.488 -0.289,-0.98 -0.477,-1.625 -0.062,-0.734 -0.148,-1.644 -0.234,-2.59 0.554,-0.496 0.554,-0.496 0.258,-1.054 -0.004,-0.024 -0.028,-0.07 -0.024,-0.074 0.723,-0.434 0.734,-1.09 0.617,-1.907 0.094,-0.105 0.262,-0.285 0.426,-0.465 0.027,-0.078 0.078,-0.152 0.07,-0.218 -0.175,-1.567 0.594,-2.942 0.883,-4.414 0.082,-0.414 0.41,-0.782 0.664,-1.145 0.52,-0.754 1.094,-1.476 1.348,-2.375 0.226,-0.805 0.805,-1.332 1.398,-1.832 0.586,-0.488 1.059,-1.058 1.352,-1.738 0.281,-0.652 0.68,-1.184 1.164,-1.688 0.41,-0.429 0.832,-0.797 1.379,-1.054 0.855,-0.407 1.668,-0.903 2.5,-1.348 0.289,-0.152 0.598,-0.27 0.984,-0.438"
           style="fill:#21201d;fill-opacity:1;fill-rule:nonzero;stroke:none"
           id="path618" />
        <path
           d="m 273.496,49.184 c -0.391,0.496 -0.816,1.031 -1.199,1.519 -0.531,-0.035 -0.922,-0.062 -1.328,-0.094 -0.489,-0.765 -0.574,-1.574 -0.192,-2.562 0.071,-0.051 0.301,-0.227 0.532,-0.402 0.964,0.085 1.789,0.382 2.187,1.539"
           style="fill:#21201d;fill-opacity:1;fill-rule:nonzero;stroke:none"
           id="path620" />
        <path
           d="m 290.871,50.68 c -0.523,-0.118 -0.914,-0.207 -1.453,-0.332 -0.172,-0.504 -0.375,-1.082 -0.621,-1.782 0.402,-0.41 0.808,-0.828 1.156,-1.183 1.266,0.203 1.637,1.117 2.168,2.07 -0.402,0.399 -0.848,0.836 -1.25,1.227"
           style="fill:#21201d;fill-opacity:1;fill-rule:nonzero;stroke:none"
           id="path622" />
      </g>
    </g>
  </g>
</svg>
