<?xml version="1.0" encoding="UTF-8" standalone="no"?>
<!-- Created with Inkscape (http://www.inkscape.org/) -->

<svg
   width="8.2621689mm"
   height="8.0194492mm"
   viewBox="0 0 8.2621689 8.0194492"
   version="1.1"
   id="svg2442"
   inkscape:version="1.1.2 (0a00cf5339, 2022-02-04)"
   sodipodi:docname="rm11.svg"
   xmlns:inkscape="http://www.inkscape.org/namespaces/inkscape"
   xmlns:sodipodi="http://sodipodi.sourceforge.net/DTD/sodipodi-0.dtd"
   xmlns="http://www.w3.org/2000/svg"
   xmlns:svg="http://www.w3.org/2000/svg">
  <sodipodi:namedview
     id="namedview2444"
     pagecolor="#ffffff"
     bordercolor="#666666"
     borderopacity="1.0"
     inkscape:pageshadow="2"
     inkscape:pageopacity="0.0"
     inkscape:pagecheckerboard="0"
     inkscape:document-units="mm"
     showgrid="false"
     inkscape:zoom="0.64052329"
     inkscape:cx="661.95876"
     inkscape:cy="-7.0255057"
     inkscape:window-width="2560"
     inkscape:window-height="1376"
     inkscape:window-x="0"
     inkscape:window-y="0"
     inkscape:window-maximized="1"
     inkscape:current-layer="layer1" />
  <defs
     id="defs2439">
    <clipPath
       clipPathUnits="userSpaceOnUse"
       id="clipPath252">
      <path
         d="M 258.277,1046 H 304 v 45 h -45.723 z"
         id="path250" />
    </clipPath>
  </defs>
  <g
     inkscape:label="Layer 1"
     inkscape:groupmode="layer"
     id="layer1"
     transform="translate(70.222876,-150.47984)">
    <g
       id="g620"
       transform="matrix(0.18405616,0,0,0.18405792,-117.8625,-42.183521)">
      <g
         clip-path="url(#clipPath252)"
         id="g618">
        <path
           d="m 273.27,1068.734 c -0.036,-0.062 -0.075,-0.129 -0.106,-0.191 -1.223,0.055 -2.445,0.105 -3.769,0.164 -0.223,0.109 -0.555,0.273 -0.903,0.449 0.348,0.129 0.641,0.145 0.754,0.121 1.063,0.332 1.902,0.598 2.664,0.836 0.942,-0.093 0.883,-0.972 1.36,-1.379 m -7.149,-8.086 c 0.137,0.09 0.242,0.211 0.367,0.231 1.117,0.199 2.25,0.332 3.356,0.582 0.676,0.152 1.293,0.086 1.945,-0.063 0.609,-0.132 1.25,-0.226 1.867,-0.199 0.758,0.031 1.504,0.207 2.242,0.321 0.297,-0.567 0.364,-1.082 -0.23,-1.641 -1.281,0.176 -2.672,0.23 -3.984,0.586 -1.043,0.281 -2.004,0.226 -3.008,0.055 -0.473,-0.082 -0.942,-0.219 -1.414,-0.219 -0.367,0 -0.828,-0.141 -1.141,0.347 m 8.422,3.247 c -0.152,0.593 -0.609,0.601 -1.066,0.625 -0.555,0.031 -1.165,-0.059 -1.653,0.136 -1.48,0.598 -3.035,0.426 -4.558,0.563 -0.403,0.035 -0.821,-0.078 -1.231,-0.121 0.227,0.273 0.481,0.418 0.754,0.468 1.082,0.207 2.188,0.325 3.246,0.602 0.719,0.187 1.43,0.285 2.16,0.355 1.485,0.145 2.649,-0.414 3.578,-1.585 -0.027,-0.305 -0.054,-0.633 -0.085,-0.954 -0.368,-0.031 -0.692,-0.054 -1.145,-0.089 m 12.687,2.175 c 0.536,0.211 0.922,0.414 1.465,0.317 0.629,-0.114 1.297,0 1.946,0 1.351,0 2.703,0 4.179,0 -0.222,-0.731 -1.039,-0.782 -1.359,-1.27 -1.773,-0.406 -3.492,-0.793 -5.082,-1.16 -0.43,0.203 -0.75,0.352 -1,0.473 -0.051,0.55 -0.098,1.054 -0.149,1.64 m 9.606,-4.105 c -1.426,-1.055 -3.012,-1.641 -4.672,-1.91 -1.66,-0.274 -3.348,-0.129 -5.035,0.23 v 1.414 c 0.156,0.082 0.351,0.184 0.41,0.215 2.668,-0.348 5.195,-0.773 7.773,0.254 0.055,-0.039 0.2,-0.145 0.286,-0.203 z m -15.207,9.09 c -1.707,1.636 -2.59,3.398 -3.301,5.207 0.555,1.718 1.602,3.062 2.641,4.394 0.183,0.235 0.543,0.328 0.898,0.524 0.504,-0.95 0.961,-1.809 1.438,-2.707 -0.235,-0.668 0.211,-1.211 0.523,-1.774 -0.016,-0.203 0.024,-0.414 -0.051,-0.57 -0.742,-1.594 -1.75,-3.063 -2.148,-5.074 m 0.949,-5.063 c 0.332,0.309 0.672,0.594 0.977,0.91 0.664,0.692 1.312,1.403 1.961,2.11 0.714,0.777 1.39,1.57 1.847,2.55 0.242,0.528 0.672,0.977 1.067,1.418 0.586,0.661 1.218,1.29 1.894,1.997 -0.074,0.378 -0.031,0.875 -0.254,1.132 -0.617,0.711 -0.953,1.563 -1.414,2.352 -0.465,0.793 -1.086,1.5 -1.508,2.316 -0.605,1.172 -1.484,2.09 -2.445,3.008 -0.359,1.07 -0.312,1.223 0.457,1.477 2.742,-3.25 5.664,-6.375 7.156,-10.403 -1.433,-1.644 -3.004,-3.015 -4.062,-4.839 -0.18,-0.075 -0.379,-0.153 -0.582,-0.231 0.043,-0.039 0.082,-0.078 0.125,-0.117 -0.481,-0.738 -0.961,-1.473 -1.485,-2.274 0.004,-0.062 0.012,-0.222 0.016,-0.293 -0.226,-0.144 -0.348,-0.222 -0.582,-0.375 -0.035,-1.57 -0.078,-3.187 -0.117,-4.808 0,-0.035 -0.008,-0.078 0,-0.113 0.277,-0.997 0.16,-1.993 -0.067,-2.969 -0.093,-0.418 -0.273,-0.836 -0.5,-1.199 -0.46,-0.739 -1.042,-1.395 -1.304,-2.262 -0.133,-0.438 -0.418,-0.824 -0.699,-1.356 -0.125,1.465 -0.25,2.778 -0.356,4.09 -0.101,1.309 -0.187,2.617 -0.281,3.934 0.051,1.301 0.101,2.629 0.156,3.945 m -8.949,7.563 c 0.246,-0.934 0.75,-1.68 1.305,-2.414 1.164,-1.555 2.66,-2.762 4.097,-4.028 0.949,-0.836 1.629,-1.711 1.324,-3.082 -0.101,-0.449 -0.156,-0.996 0.008,-1.398 0.297,-0.723 0.274,-1.445 0.317,-2.188 0.054,-1.07 0.179,-2.136 0.297,-3.203 0.101,-0.918 0.253,-1.828 0.343,-2.746 0.039,-0.406 0.063,-0.828 -0.047,-1.25 -0.488,0.738 -0.925,1.41 -1.371,2.07 -0.441,0.657 -0.812,1.383 -1.359,1.934 -0.731,0.738 -0.844,1.609 -0.781,2.523 0.047,0.665 0.121,1.301 -0.102,1.961 -0.129,0.371 -0.082,0.809 -0.09,1.215 -0.011,0.77 -0.004,1.539 -0.004,2.27 -0.179,0.23 -0.308,0.41 -0.449,0.578 -0.832,1.019 -1.75,1.98 -2.293,3.207 -0.16,0.367 -0.25,0.789 -0.488,1.09 -0.895,1.129 -1.836,2.222 -2.824,3.398 0.371,1.461 0.668,2.988 1.785,4.18 0.027,0.301 0.055,0.594 0.078,0.883 0.035,-0.016 0.074,-0.032 0.109,-0.047 1.004,1.801 2.012,3.601 3.016,5.402 0.477,0.078 0.84,0.25 1.133,0.508 0.359,0.312 0.656,0.699 0.996,1.039 0.062,0.066 0.207,0.055 0.367,0.086 0.094,-0.195 0.184,-0.383 0.258,-0.531 -1.309,-2.043 -2.094,-4.321 -3.399,-5.832 -0.75,-1.731 -1.343,-3.11 -1.941,-4.489 -0.027,0.012 -0.055,0.02 -0.086,0.032 -0.062,-0.364 -0.125,-0.727 -0.199,-1.168 m 29.512,-4.785 c 0.757,0.992 0.636,2.062 0.402,3.191 -0.254,1.258 -0.59,2.492 -0.891,3.738 -0.437,1.758 -1.214,3.297 -2.593,4.512 -0.606,0.535 -1.184,1.078 -1.414,1.937 -0.129,0.477 -0.547,0.872 -0.758,1.184 -1.973,0.93 -3.547,2.137 -4.961,3.941 -0.86,0.532 -2.043,0.813 -3.324,1.028 -0.067,0.105 -0.161,0.261 -0.293,0.484 -1.094,0.293 -2.243,0.598 -3.395,0.903 -0.004,-0.02 -0.004,-0.047 -0.004,-0.071 -0.574,0.063 -1.152,0.145 -1.726,0.188 -1.313,0.109 -2.625,0.191 -3.938,0.308 -0.332,0.032 -0.668,0.219 -0.992,0.211 -1.621,-0.043 -3.172,-0.476 -4.582,-1.226 -1.11,-0.598 -2.195,-1.172 -3.453,-1.383 -1.18,-0.195 -2.086,-0.949 -2.961,-1.656 -0.985,-0.793 -2.039,-1.555 -2.785,-2.625 -0.168,-0.235 -0.411,-0.43 -0.629,-0.629 -0.746,-0.664 -1.496,-1.325 -2.262,-2 0.063,-0.239 0.106,-0.407 0.164,-0.625 -0.148,-0.055 -0.305,-0.106 -0.461,-0.16 -0.969,-1.602 -1.512,-3.372 -2.008,-5.157 -0.078,-0.273 0.012,-0.59 -0.047,-0.867 -0.152,-0.758 -0.292,-1.496 -0.601,-2.234 -0.418,-1.012 -0.57,-2.141 -0.797,-3.063 0.535,-2.082 1.426,-3.914 1.301,-5.98 0.297,-0.739 0.652,-1.446 0.867,-2.242 0.227,-0.86 0.824,-1.618 1.266,-2.418 0.39,-0.704 0.785,-1.407 1.023,-2.223 0.484,-0.395 0.992,-0.766 1.441,-1.191 0.399,-0.375 0.739,-0.79 1.032,-1.278 0.707,-1.168 1.679,-2.129 2.863,-2.836 0.246,-0.148 0.539,-0.215 0.813,-0.312 0.171,-0.063 0.371,-0.078 0.519,-0.176 0.738,-0.492 1.461,-0.996 2.328,-1.594 1.442,-0.226 3.055,-0.469 4.66,-0.742 0.317,-0.055 0.617,-0.223 0.91,-0.375 0.36,-0.184 0.7,-0.41 0.981,-0.578 0.914,0.035 1.734,0.223 2.824,0.109 0.613,0.278 1.508,0.379 2.469,0.297 0.601,-0.051 1.226,0.145 1.836,0.242 0.223,0.036 0.437,0.149 0.648,0.133 1.539,-0.109 2.762,0.613 3.934,1.469 0.582,0.426 1.172,0.836 1.98,1.418 0.543,0.183 1.422,0.367 2.176,0.773 0.485,0.258 0.848,0.805 1.156,1.293 0.325,0.512 0.657,0.907 1.223,1.196 0.598,0.308 1.098,0.781 1.359,1.519 0.211,0.602 0.727,1.098 1.11,1.641 0.785,1.105 1.793,2.062 2.195,3.402 0.16,0.527 0.192,1.094 0.344,1.625 0.316,1.102 0.652,2.199 1.019,3.281 0.399,1.168 0.34,2.328 0.032,3.618"
           style="fill:#21201d;fill-opacity:1;fill-rule:nonzero;stroke:none"
           id="path616" />
      </g>
    </g>
  </g>
</svg>
