<?xml version="1.0" encoding="UTF-8" standalone="no"?>
<!-- Created with Inkscape (http://www.inkscape.org/) -->

<svg
   width="8.4199543mm"
   height="8.4254189mm"
   viewBox="0 0 8.4199543 8.4254189"
   version="1.1"
   id="svg2965"
   inkscape:version="1.1.2 (0a00cf5339, 2022-02-04)"
   sodipodi:docname="rm2.svg"
   xmlns:inkscape="http://www.inkscape.org/namespaces/inkscape"
   xmlns:sodipodi="http://sodipodi.sourceforge.net/DTD/sodipodi-0.dtd"
   xmlns="http://www.w3.org/2000/svg"
   xmlns:svg="http://www.w3.org/2000/svg">
  <sodipodi:namedview
     id="namedview2967"
     pagecolor="#ffffff"
     bordercolor="#666666"
     borderopacity="1.0"
     inkscape:pageshadow="2"
     inkscape:pageopacity="0.0"
     inkscape:pagecheckerboard="0"
     inkscape:document-units="mm"
     showgrid="false"
     inkscape:zoom="0.64052329"
     inkscape:cx="-154.56112"
     inkscape:cy="703.33118"
     inkscape:window-width="2560"
     inkscape:window-height="1376"
     inkscape:window-x="0"
     inkscape:window-y="0"
     inkscape:window-maximized="1"
     inkscape:current-layer="layer1" />
  <defs
     id="defs2962">
    <clipPath
       clipPathUnits="userSpaceOnUse"
       id="clipPath260">
      <path
         d="m 783.027,32 h 45.871 v 47 h -45.871 z"
         id="path258" />
    </clipPath>
  </defs>
  <g
     inkscape:label="Layer 1"
     inkscape:groupmode="layer"
     id="layer1"
     transform="translate(-145.73578,37.671681)">
    <g
       id="g644"
       transform="matrix(0.18405616,0,0,0.18405792,1.5919548,-43.714779)">
      <g
         clip-path="url(#clipPath260)"
         id="g642">
        <path
           d="m 806.035,43.316 c -1.051,0.879 -1.824,1.86 -2.473,2.93 -0.265,0.434 -0.414,0.93 -0.664,1.375 -0.21,0.383 -0.488,0.731 -0.742,1.106 0.168,0.558 0.242,1.128 0.5,1.601 0.766,1.43 1.594,2.832 2.438,4.223 0.125,0.207 0.441,0.301 0.75,0.496 0.722,-2.09 1.285,-4.109 2.601,-5.742 -0.777,-2.051 -1.383,-4.051 -2.41,-5.989 m 11.422,7.332 c -0.457,-0.929 -0.863,-1.886 -1.383,-2.769 -0.558,-0.949 -1.004,-1.949 -1.773,-2.793 -0.883,-0.981 -1.571,-2.141 -2.336,-3.223 -0.254,-0.355 -0.473,-0.73 -0.742,-1.07 -0.442,-0.543 -0.918,-1.063 -1.426,-1.656 -0.281,0.015 -0.594,0.027 -1.004,0.047 0.113,0.691 0.25,1.226 0.523,1.769 0.356,0.707 0.938,1.215 1.379,1.836 0.879,1.234 1.844,2.418 2.41,3.848 0.106,0.269 0.352,0.484 0.489,0.742 0.547,1.043 1.074,2.094 1.601,3.113 -0.16,0.219 -0.234,0.348 -0.336,0.449 -1.121,1.086 -2.195,2.207 -2.984,3.571 -0.363,0.636 -0.73,1.289 -1.176,1.863 -0.402,0.52 -0.933,0.937 -1.375,1.426 -0.472,0.519 -0.89,1.09 -1.371,1.601 -0.422,0.453 -0.898,0.86 -1.348,1.282 0.188,2.226 -0.125,4.371 0.012,6.511 0.137,2.114 0.367,4.223 0.555,6.336 0.082,0.02 0.168,0.035 0.254,0.055 0.234,-0.438 0.484,-0.871 0.703,-1.316 0.359,-0.727 0.578,-1.563 1.086,-2.165 0.68,-0.8 0.918,-1.66 0.922,-2.656 0.008,-1.824 0.031,-3.648 0.027,-5.472 -0.004,-0.907 0.066,-1.793 0.508,-2.598 0.336,-0.609 0.723,-1.199 1.133,-1.762 1.527,-2.105 3.058,-4.203 4.976,-5.984 0.262,-0.242 0.414,-0.598 0.676,-0.985 M 803.199,38.559 c -0.156,0.058 -0.242,0.066 -0.293,0.109 -0.922,0.793 -1.617,1.84 -2.758,2.375 -0.086,0.039 -0.132,0.172 -0.183,0.269 -0.383,0.719 -0.746,1.442 -1.137,2.153 -0.297,0.547 -0.633,1.078 -0.941,1.621 -0.219,0.383 -0.438,0.766 -0.629,1.16 -0.242,0.5 -0.383,1.063 -0.692,1.508 -0.957,1.379 -1.144,3.016 -1.652,4.402 1.043,1.348 2.039,2.574 2.961,3.856 0.336,0.468 0.531,1.043 0.762,1.582 0.586,1.355 1.613,2.383 2.578,3.492 0.023,1.082 0.344,2.176 0.082,3.293 -0.059,0.246 0.012,0.519 0.031,0.781 0.055,0.66 0.16,1.324 0.164,1.988 0.004,1.461 0.485,2.723 1.414,3.848 0.93,1.129 1.711,2.371 2.332,3.703 0.016,0.031 0.117,0.016 0.301,0.028 -0.074,-0.829 -0.137,-1.637 -0.215,-2.442 -0.097,-0.996 -0.238,-1.98 -0.312,-2.973 -0.106,-1.406 -0.16,-2.812 -0.262,-4.218 -0.027,-0.438 -0.172,-0.864 -0.207,-1.301 -0.066,-0.883 -0.129,-1.77 -0.133,-2.652 -0.004,-0.766 -0.418,-1.215 -0.988,-1.633 -0.504,-0.371 -0.938,-0.828 -1.399,-1.258 -0.566,-0.531 -1.125,-1.066 -1.687,-1.602 -0.625,-0.593 -1.195,-1.218 -1.566,-2.011 -0.157,-0.336 -0.34,-0.672 -0.582,-0.938 -0.532,-0.57 -0.833,-1.219 -0.872,-2.097 0.829,-1.875 1.61,-3.872 2.575,-5.782 0.976,-1.945 2.132,-3.8 3.297,-5.847 -0.079,-0.325 0.566,-0.825 0.011,-1.414 m 4.012,-5.614 c 0.125,0.082 0.281,0.18 0.5,0.317 0.973,-0.153 1.992,-0.137 2.965,0.3 0.199,0.09 0.437,0.149 0.652,0.133 1.164,-0.086 2.192,0.352 3.184,0.871 0.511,0.274 0.972,0.668 1.426,1.047 1.374,1.149 1.882,1.403 3.699,1.731 0.203,0.301 0.41,0.648 0.656,0.965 0.57,0.722 1.102,1.437 1.887,2 0.66,0.468 1.082,1.285 1.562,1.98 1,1.453 1.977,2.922 2.996,4.438 0.078,0.597 0.141,1.261 0.254,1.918 0.059,0.32 0.141,0.687 0.336,0.925 0.422,0.52 0.531,1.129 0.68,1.739 0.137,0.562 0.289,1.125 0.418,1.687 0.176,0.781 -0.102,1.512 -0.266,2.195 0.258,1.028 0.496,2 0.738,2.969 -0.304,1.125 -0.71,2.211 -0.867,3.332 -0.133,0.918 -0.445,1.762 -0.691,2.629 -0.406,1.414 -1.184,2.617 -2.266,3.629 -1.012,0.949 -1.758,2.086 -2.269,3.402 -1.442,0.43 -2.438,1.516 -3.504,2.481 -0.539,0.488 -1.145,0.926 -1.496,1.621 -0.129,0.254 -0.508,0.476 -0.809,0.539 -1.355,0.285 -2.637,0.703 -3.785,1.512 -0.309,0.215 -0.773,0.23 -1.172,0.289 -1.906,0.285 -3.82,0.511 -5.719,0.832 -1.968,0.34 -3.91,0.211 -5.773,-0.438 -1.305,-0.453 -2.52,-1.148 -4.227,-1.949 -0.519,-0.09 -1.566,-0.215 -2.433,-0.851 -0.68,-0.5 -1.383,-0.977 -1.989,-1.559 -0.906,-0.867 -1.734,-1.813 -2.601,-2.723 -0.125,-0.136 -0.25,-0.285 -0.402,-0.383 -1.547,-1.011 -2.438,-2.531 -3.188,-4.148 -0.43,-0.922 -0.859,-1.855 -1.156,-2.832 -0.203,-0.684 -0.16,-1.441 -0.258,-2.164 -0.086,-0.609 -0.129,-1.254 -0.352,-1.817 -0.414,-1.039 -0.808,-2.074 -0.789,-3.199 0.012,-0.621 0.047,-1.281 0.27,-1.851 0.633,-1.633 1.039,-3.297 1.051,-4.782 0.269,-0.953 0.406,-1.679 0.679,-2.355 0.336,-0.816 0.703,-1.637 1.203,-2.363 0.614,-0.891 1.157,-1.785 1.321,-2.914 1.5,-0.629 2.148,-2.051 3.082,-3.219 0.855,-1.063 1.773,-2.047 3.172,-2.512 0.925,-0.308 1.73,-0.957 2.597,-1.449 0.215,-0.121 0.442,-0.262 0.676,-0.313 1.625,-0.332 3.254,-0.644 5.07,-1 0.684,-0.691 1.641,-1 2.797,-0.585 0.297,0.105 0.664,0.046 0.996,0.035 0.332,-0.012 0.664,-0.059 1.145,-0.11"
           style="fill:#21201d;fill-opacity:1;fill-rule:nonzero;stroke:none"
           id="path640" />
      </g>
    </g>
  </g>
</svg>
