<?xml version="1.0" encoding="UTF-8" standalone="no"?>
<!-- Created with Inkscape (http://www.inkscape.org/) -->

<svg
   width="8.285677mm"
   height="8.4429207mm"
   viewBox="0 0 8.285677 8.4429207"
   version="1.1"
   id="svg3126"
   inkscape:version="1.1.2 (0a00cf5339, 2022-02-04)"
   sodipodi:docname="rm3.svg"
   xmlns:inkscape="http://www.inkscape.org/namespaces/inkscape"
   xmlns:sodipodi="http://sodipodi.sourceforge.net/DTD/sodipodi-0.dtd"
   xmlns="http://www.w3.org/2000/svg"
   xmlns:svg="http://www.w3.org/2000/svg">
  <sodipodi:namedview
     id="namedview3128"
     pagecolor="#ffffff"
     bordercolor="#666666"
     borderopacity="1.0"
     inkscape:pageshadow="2"
     inkscape:pageopacity="0.0"
     inkscape:pagecheckerboard="0"
     inkscape:document-units="mm"
     showgrid="false"
     inkscape:zoom="0.64052329"
     inkscape:cx="621.36695"
     inkscape:cy="442.60686"
     inkscape:window-width="2560"
     inkscape:window-height="1376"
     inkscape:window-x="0"
     inkscape:window-y="0"
     inkscape:window-maximized="1"
     inkscape:current-layer="layer1" />
  <defs
     id="defs3123">
    <clipPath
       clipPathUnits="userSpaceOnUse"
       id="clipPath252">
      <path
         d="m 258.121,539 h 45.871 v 46 h -45.871 z"
         id="path250" />
    </clipPath>
  </defs>
  <g
     inkscape:label="Layer 1"
     inkscape:groupmode="layer"
     id="layer1"
     transform="translate(59.494714,-31.302878)">
    <g
       id="g632"
       transform="matrix(0.18405616,0,0,0.18405792,-107.09403,-67.921642)">
      <g
         clip-path="url(#clipPath252)"
         id="g630">
        <path
           d="m 291.996,577.234 c 0.223,-0.183 0.434,-0.285 0.524,-0.453 0.437,-0.824 0.363,-1.668 0.054,-2.519 -0.136,-0.379 -0.484,-0.617 -0.476,-1.141 0.004,-0.387 -0.52,-0.781 -0.907,-1.309 -0.332,0.551 -0.558,0.938 -0.765,1.282 0.429,0.492 0.765,0.875 1.121,1.277 0.141,0.902 0.281,1.793 0.449,2.863 m -3.758,-5.535 c 0.133,-0.785 0.149,-0.871 -0.176,-1.054 -0.953,-0.54 -1.929,-1.047 -2.894,-1.567 -0.856,-0.183 -1.086,-1.476 -2.465,-1.172 1.813,1.496 3.125,3.348 5.535,3.793 m 6.864,2.574 c 0.464,-0.324 0.558,-0.675 0.445,-1.058 -0.106,-0.383 -0.238,-0.774 -0.442,-1.113 -0.71,-1.2 -1.667,-2.141 -2.933,-2.747 -0.059,-0.027 -0.145,0.008 -0.27,0.02 -0.093,0.203 -0.203,0.426 -0.347,0.738 1.211,1.34 2.894,2.282 3.547,4.16 m -26.29,-24.203 c 0.309,3.235 1.579,4.676 3.547,5.547 0.114,-0.34 0.227,-0.668 0.356,-1.047 -0.938,-0.39 -1.375,-1.183 -1.844,-1.98 -0.445,-0.754 -0.98,-1.457 -1.496,-2.164 -0.094,-0.129 -0.285,-0.188 -0.563,-0.356 m 10.372,8 c 0.765,0.219 1.285,1.043 2.117,0.895 0.312,0.305 0.625,0.547 0.855,0.847 0.852,1.133 0.934,2.333 0.235,3.575 -0.262,0.457 -0.235,0.914 0.054,1.468 0.395,-0.043 0.813,-0.082 1.149,-0.117 0.101,-1.054 0.207,-2.039 0.289,-3.027 0.07,-0.879 -0.098,-1.645 -0.793,-2.309 -0.981,-0.937 -1.074,-1.289 -3.645,-2.113 -0.086,0.262 -0.175,0.52 -0.261,0.781 m 3.558,8.813 c 0.656,0.164 1.317,0.332 2.055,0.519 0.402,0.188 0.891,0.414 1.375,0.645 0.695,0.328 1.375,0.676 2.082,0.969 0.336,0.136 0.73,0.254 0.992,-0.274 -0.254,-0.41 -0.523,-0.844 -0.855,-1.379 -0.95,-0.359 -1.961,-0.781 -3,-1.129 -0.969,-0.316 -2.02,-0.328 -2.973,-0.757 -0.281,-0.125 -0.633,-0.082 -1.016,-0.125 -0.429,-0.594 -1.152,-0.547 -1.57,-0.59 -0.625,-0.461 -1.027,-0.989 -1.504,-1.059 -0.613,-0.094 -1.25,-0.137 -1.996,-0.406 0.395,0.746 0.703,1.32 0.992,1.855 1.711,1 3.414,1.856 5.418,1.731 m -8.086,-14.375 c -0.879,1.031 -1.109,2.097 -1.269,3.254 -0.629,0.297 -0.711,0.945 -0.793,1.562 -0.11,0.789 -0.137,1.59 -0.211,2.5 0.32,0.422 0.637,0.965 1.074,1.387 0.445,0.43 1,0.738 1.395,1.016 2.336,0.386 4.484,1.113 6.757,1.257 0.098,-0.199 0.172,-0.359 0.258,-0.531 -0.465,-0.258 -0.887,-0.492 -1.347,-0.75 h -0.711 c -0.594,-0.246 -0.957,-0.414 -1.332,-0.547 -0.836,-0.289 -1.696,-0.511 -2.516,-0.847 -0.934,-0.379 -1.816,-0.864 -2.227,-1.852 v -2.426 c 0.301,-0.824 0.528,-1.437 0.813,-2.207 0.18,-0.238 0.465,-0.617 0.801,-1.058 -0.227,-0.25 -0.414,-0.454 -0.692,-0.758 m -1.906,-2.457 c -0.586,-0.512 -1.156,-0.906 -1.941,-0.594 -0.664,-0.543 -1.997,-0.906 -2.793,-0.598 0.105,0.141 0.281,0.207 0.449,0.293 0.828,0.45 1.64,0.938 2.496,1.328 0.309,0.145 0.715,0.504 1.043,-0.023 0.434,0.594 0.922,0.82 2.234,1.059 2.555,1.617 2.696,2.543 3.2,5.011 -0.313,1.094 -0.641,2.258 -0.961,3.395 0.468,0.668 1.078,0.883 1.925,0.785 0.063,-1.504 0.121,-2.957 0.18,-4.367 -0.16,-0.176 -0.273,-0.313 -0.363,-0.41 0.363,-1.098 -0.422,-1.977 -0.34,-3.09 -0.719,-0.617 -1.387,-1.41 -2.234,-1.863 -0.856,-0.465 -1.68,-1.266 -2.895,-0.926 m 14.887,29.234 c 1.832,-1.66 1.922,-3.691 1.859,-5.207 0.137,-2.023 1.504,-3.019 1.442,-4.566 -0.004,-0.125 0.16,-0.25 0.199,-0.391 0.082,-0.277 0.211,-0.578 0.179,-0.848 -0.121,-0.949 -0.156,-1.933 -0.836,-2.691 -0.812,-0.742 -1.73,-1.258 -2.816,-1.477 -0.641,-0.128 -1.258,-0.375 -1.902,-0.511 -0.481,-0.102 -1.02,-0.211 -1.332,0.336 0.058,0.144 0.074,0.25 0.121,0.269 1.129,0.426 2.261,0.848 3.469,1.297 0.488,0.422 1.054,0.902 1.527,1.305 -0.121,1.211 0.738,2.035 0.285,3.14 -0.383,0.926 -0.648,1.883 -1.328,2.575 -0.094,0.656 -0.172,1.234 -0.25,1.785 0.152,0.168 0.266,0.304 0.258,0.289 -0.047,0.711 -0.086,1.242 -0.125,1.805 -0.403,0.652 -0.817,1.332 -1.285,2.089 0.144,0.219 0.312,0.469 0.535,0.801 m -29.024,-17.723 c 0.664,-1.152 0.938,-2.175 0.946,-3.371 0.054,-0.046 0.195,-0.164 0.453,-0.379 0,-0.312 -0.035,-0.718 0.008,-1.117 0.054,-0.507 0.23,-1.011 0.238,-1.519 0.012,-0.723 0.539,-1.305 0.59,-2.149 0.504,-0.757 1.09,-1.64 1.75,-2.636 0.066,-0.957 0.66,-1.813 1.511,-2.411 0.84,-0.585 1.309,-1.367 1.715,-2.25 0.145,-0.316 0.422,-0.582 0.649,-0.859 0.093,-0.113 0.238,-0.18 0.324,-0.293 0.582,-0.793 1.402,-1.266 2.246,-1.703 1.102,-0.57 2.309,-0.949 3.219,-1.859 0.179,-0.18 0.523,-0.196 0.894,-0.325 0.039,0.02 0.176,0.098 0.188,0.102 0.98,-0.129 1.836,-0.25 2.695,-0.359 0.543,-0.071 1.059,-0.11 1.469,-0.622 0.222,-0.285 0.637,-0.539 1.117,-0.496 0.187,0.016 0.387,-0.132 0.609,-0.222 0.211,0.09 0.493,0.308 0.75,0.289 1.399,-0.113 2.754,0.347 4.153,0.226 0.496,-0.039 1.011,0.172 1.742,0.313 0.055,-0.016 0.332,-0.098 0.629,-0.192 0.105,0.125 0.222,0.262 0.375,0.434 0.41,0.035 0.851,0.074 1.301,0.109 0.378,0.215 0.757,0.434 1.14,0.649 0.086,-0.164 0.141,-0.281 0.219,-0.445 0.344,0.433 0.473,0.988 1.148,1.085 0.305,0.047 0.555,0.508 0.817,0.793 0.691,0.762 1.562,1.094 2.633,1.071 0.289,0.316 0.609,0.625 0.886,0.969 0.614,0.773 1.2,1.57 2.012,2.156 0.969,0.695 1.395,1.797 2.063,2.719 0.543,0.746 1.117,1.472 1.671,2.21 0.262,0.352 0.508,0.715 0.825,1.165 -0.184,1.64 0.711,3.121 1.144,4.718 0.309,1.137 0.84,2.242 0.613,3.492 -0.128,0.297 -0.269,0.614 -0.417,0.954 0.277,0.125 0.437,0.199 0.539,0.246 0.031,0.465 0.039,0.89 0.085,1.316 0.075,0.699 0.114,1.371 -0.023,2.09 -0.172,0.91 -0.293,1.816 -0.633,2.687 -0.097,0.25 -0.015,0.571 -0.015,0.887 -0.231,0.578 -0.754,1.106 -0.457,1.887 -0.676,0.949 -1.352,1.914 -2.043,2.867 -0.168,0.234 -0.375,0.449 -0.594,0.641 -0.609,0.527 -1.172,1.375 -1.442,2.32 -0.863,0.664 -1.828,1.402 -2.867,2.195 v 0.317 c -1.238,0.48 -2.031,1.457 -2.535,2.515 -1.683,0.516 -3.293,0.77 -4.687,1.922 -2.582,0.035 -5.196,1.153 -8.059,0.926 -0.129,0.113 -0.324,0.277 -0.395,0.34 -0.511,-0.043 -0.91,-0.074 -1.312,-0.11 -0.645,-0.105 -1.16,-0.804 -1.914,-0.316 -0.598,-0.41 -1.137,-0.664 -1.848,-0.738 -0.605,-0.063 -1.16,-0.637 -1.863,-1.063 -0.051,0.094 -0.121,0.223 -0.152,0.285 -0.375,-0.285 -0.746,-0.57 -1.145,-0.875 -0.316,0.051 -0.625,0.098 -1.074,0.168 -0.434,-0.355 -1,-0.816 -1.621,-1.32 -0.106,0.02 -0.281,0.047 -0.399,0.063 -0.632,-1.102 -1.652,-1.711 -2.691,-2.438 -0.09,-0.176 -0.164,-0.562 -0.395,-0.723 -0.734,-0.503 -1.023,-1.464 -1.957,-1.796 -0.336,-0.122 -0.503,-0.68 -0.777,-1.016 -0.121,-0.152 -0.312,-0.246 -0.473,-0.367 -0.566,-1.375 -1.148,-2.781 -1.757,-4.254 -0.012,-0.004 -0.114,-0.047 -0.258,-0.113 0.062,-0.157 0.133,-0.313 0.117,-0.274 -0.117,-0.965 -0.191,-1.75 -0.305,-2.527 -0.054,-0.403 -0.117,-0.813 -0.265,-1.188 -0.563,-1.41 -1.051,-2.832 -1.059,-4.375 -0.004,-0.183 -0.043,-0.371 -0.051,-0.426"
           style="fill:#21201d;fill-opacity:1;fill-rule:nonzero;stroke:none"
           id="path628" />
      </g>
    </g>
  </g>
</svg>
