<?xml version="1.0" encoding="UTF-8" standalone="no"?>
<!-- Created with Inkscape (http://www.inkscape.org/) -->

<svg
   width="8.3760347mm"
   height="8.3954973mm"
   viewBox="0 0 8.3760347 8.3954973"
   version="1.1"
   id="svg3287"
   inkscape:version="1.1.2 (0a00cf5339, 2022-02-04)"
   sodipodi:docname="rm4.svg"
   xmlns:inkscape="http://www.inkscape.org/namespaces/inkscape"
   xmlns:sodipodi="http://sodipodi.sourceforge.net/DTD/sodipodi-0.dtd"
   xmlns="http://www.w3.org/2000/svg"
   xmlns:svg="http://www.w3.org/2000/svg">
  <sodipodi:namedview
     id="namedview3289"
     pagecolor="#ffffff"
     bordercolor="#666666"
     borderopacity="1.0"
     inkscape:pageshadow="2"
     inkscape:pageopacity="0.0"
     inkscape:pagecheckerboard="0"
     inkscape:document-units="mm"
     showgrid="false"
     inkscape:zoom="0.64052329"
     inkscape:cx="-113.96931"
     inkscape:cy="453.53542"
     inkscape:window-width="2560"
     inkscape:window-height="1376"
     inkscape:window-x="0"
     inkscape:window-y="0"
     inkscape:window-maximized="1"
     inkscape:current-layer="layer1" />
  <defs
     id="defs3284">
    <clipPath
       clipPathUnits="userSpaceOnUse"
       id="clipPath264">
      <path
         d="m 783.027,539 h 45.871 v 46 h -45.871 z"
         id="path262" />
    </clipPath>
  </defs>
  <g
     inkscape:label="Layer 1"
     inkscape:groupmode="layer"
     id="layer1"
     transform="translate(-135.01783,-28.435074)">
    <g
       id="g650"
       transform="matrix(0.18405616,0,0,0.18405792,-9.1480858,-70.84043)">
      <g
         clip-path="url(#clipPath264)"
         id="g648">
        <path
           d="m 809.809,555.633 c 1.046,-0.192 2.054,0.222 3.129,-0.192 -0.223,-0.41 -0.391,-0.722 -0.551,-1.011 -0.918,-0.106 -1.742,-0.207 -2.481,-0.289 -0.539,0.57 -0.105,0.984 -0.097,1.492 m -6.348,-0.535 c 0.184,-0.391 0.359,-0.758 0.547,-1.153 -1.028,-0.047 -1.977,-0.09 -3.153,-0.14 -0.085,0.023 -0.402,0.113 -0.722,0.207 -0.059,0.351 -0.113,0.668 -0.184,1.086 z m 11.039,1.414 h -4.512 c -0.105,0.144 -0.222,0.316 -0.316,0.441 0.117,0.52 0.449,0.66 0.836,0.707 1.203,0.149 2.406,0.293 3.617,0.418 0.203,0.024 0.422,-0.058 0.758,-0.109 -0.133,-0.508 -0.25,-0.946 -0.383,-1.457 m -10.977,1.023 c 0.028,-0.344 0.055,-0.676 0.09,-1.078 -1.801,-0.082 -3.472,-0.16 -5.183,-0.238 -0.379,0.398 -0.395,0.89 -0.274,1.496 1.367,0.035 2.727,0.09 4.082,0.094 0.395,0 0.782,-0.161 1.285,-0.274 m -1.101,2.738 c 0.039,-0.418 0.066,-0.773 0.101,-1.183 -1.898,-0.047 -3.726,-0.098 -5.628,-0.149 -0.344,0.344 -0.579,0.793 -0.676,1.332 z m -6.891,1.165 c -0.211,0.269 -0.625,0.519 -0.515,1.085 2.562,0.5 5.109,0.493 7.718,0.215 -0.015,-0.328 -0.027,-0.605 -0.043,-0.922 -2.371,-0.125 -4.683,-0.25 -7.16,-0.378 m 14.942,-0.833 c 1.027,0.352 2.031,0.094 3.011,0.125 1.004,0.036 2.059,0.262 3.086,-0.23 -0.179,-0.469 -0.332,-0.867 -0.472,-1.234 -2,-0.282 -3.899,-0.25 -5.926,-0.153 0.121,0.578 0.211,1.032 0.301,1.492 m 0.586,2.583 c 2.402,0.058 4.699,0.269 7.023,0.113 -0.203,-0.547 -0.379,-1.02 -0.547,-1.489 h -6.765 c -0.211,0.563 0.117,0.911 0.289,1.376 m -9.235,1.597 c -0.679,0 -1.332,0.059 -1.965,-0.012 -1.429,-0.156 -2.851,-0.414 -4.285,-0.558 -0.969,-0.102 -1.949,-0.086 -2.941,-0.121 -0.153,0.566 -0.27,1.011 -0.406,1.531 3.257,0.063 6.406,0.523 9.597,0.215 z m 17.528,0.024 c -0.387,-0.063 -0.817,-0.196 -1.247,-0.2 -2.148,-0.027 -4.293,-0.023 -6.441,-0.015 -0.242,0 -0.484,0.113 -0.785,0.183 0.019,0.383 0.035,0.703 0.055,1.004 0.91,0.41 1.804,0.313 2.683,0.34 1.18,0.027 2.356,0.121 3.531,0.176 0.895,0.043 1.786,0.293 2.758,0.141 -0.195,-0.563 -0.355,-1.04 -0.554,-1.629 m -16.86,-12.063 c 0.367,-0.141 0.621,-0.238 0.891,-0.344 -0.063,-0.461 -0.117,-0.855 -0.164,-1.246 0.136,-0.351 0.273,-0.691 0.398,-1.015 0.363,-0.106 0.68,-0.192 0.813,-0.235 1.98,0.133 3.773,0.254 5.578,0.375 v 2.422 c 0.289,-0.019 0.496,-0.031 0.637,-0.035 0.242,-1.336 0.464,-2.578 0.707,-3.922 -1.196,0 -2.344,0.043 -3.485,-0.008 -1.605,-0.074 -3.199,-0.371 -4.82,-0.304 -0.617,0.023 -0.953,0.257 -1.109,0.816 0.242,0.359 0.468,0.691 0.554,0.824 z m -11.918,16.703 c 0.403,0.067 0.789,0.188 1.184,0.192 1.246,0.011 2.488,-0.153 3.726,0.047 0.11,0.015 0.223,0 0.332,-0.016 0.95,-0.137 1.887,-0.141 2.844,-0.016 0.781,0.106 1.59,0.02 2.445,0.02 0.086,-0.684 0.161,-1.27 0.231,-1.828 -0.793,0.043 -1.512,0.199 -2.184,0.082 -0.773,-0.137 -1.511,-0.09 -2.277,-0.032 -0.609,0.055 -1.234,-0.07 -1.855,-0.082 -1.305,-0.011 -2.61,-0.004 -3.864,-0.004 -0.218,0.618 -0.39,1.098 -0.582,1.637 m 21.207,0.699 c 0.34,-0.054 0.594,-0.136 0.844,-0.128 0.699,0.031 1.395,0.109 2.094,0.144 1.246,0.059 2.492,0.106 3.738,0.148 0.691,0.028 1.391,0.047 2.086,0.067 0.379,0.016 0.73,-0.039 0.918,-0.356 -0.168,-0.613 -0.32,-1.171 -0.477,-1.738 -3.117,-0.125 -6.242,-0.25 -9.433,-0.379 0.074,0.703 0.148,1.422 0.23,2.242 m -6.461,-17.089 c -0.082,0.211 -0.254,0.468 -0.289,0.746 -0.203,1.785 -0.593,3.543 -0.75,5.34 -0.113,1.316 -0.414,2.625 -0.629,3.933 -0.359,2.192 -0.718,4.379 -1.062,6.574 -0.024,0.16 0.055,0.34 0.09,0.516 h 1.136 c 0.094,-0.359 0.246,-0.699 0.278,-1.055 0.078,-0.91 0.058,-1.832 0.164,-2.742 0.176,-1.574 0.547,-3.121 0.859,-4.676 0.278,-1.375 0.543,-2.746 0.531,-4.175 -0.011,-1.196 0.176,-2.399 0.274,-3.586 0.879,-0.282 1.586,0.004 2.281,0.304 0.055,0.153 0.125,0.258 0.121,0.36 -0.043,1.164 -0.133,2.324 -0.148,3.488 -0.008,0.719 -0.02,1.469 0.156,2.156 0.531,2.063 0.598,4.156 0.512,6.254 -0.055,1.203 -0.25,2.399 -0.387,3.602 0.891,0.414 0.891,0.414 1.918,0.172 0.063,-0.27 0.195,-0.563 0.176,-0.84 -0.094,-1.442 -0.196,-2.879 -0.36,-4.313 -0.109,-0.949 -0.379,-1.883 -0.472,-2.836 -0.211,-2.133 -0.313,-4.281 -0.539,-6.414 -0.098,-0.937 -0.094,-1.918 -0.535,-2.808 z m -20.742,2.836 c 0.219,-0.434 0.438,-0.684 0.465,-0.961 0.152,-1.543 1.023,-2.739 1.824,-3.985 0.434,-0.676 0.742,-1.433 1.207,-2.344 0.957,-0.605 1.809,-1.597 2.543,-2.734 0.899,-1.379 2.047,-2.473 3.684,-3.023 0.785,-0.262 1.554,-0.739 2.179,-1.289 0.532,-0.473 1.137,-0.524 1.723,-0.653 1.121,-0.234 2.27,-0.34 3.399,-0.531 0.324,-0.051 0.648,-0.164 0.941,-0.316 0.48,-0.247 0.937,-0.547 1.18,-0.688 0.945,0.07 1.605,0.125 2.269,0.168 1.215,0.074 2.434,0.125 3.645,0.215 0.289,0.019 0.574,0.141 0.859,0.219 0.25,0.07 0.5,0.215 0.742,0.203 1.992,-0.102 3.617,0.726 4.985,2.058 1.019,0.989 2.238,1.391 3.621,1.621 0.527,0.758 1.074,1.543 1.722,2.473 0.809,0.434 1.516,1.18 2.098,2.129 0.981,1.605 2.098,3.121 3.129,4.629 0.098,1.371 1.223,5.133 1.781,6.023 v 1.329 c -0.492,0.898 -0.472,1.578 0.102,2.644 0.164,1.168 0.152,2.289 -0.176,3.359 -0.656,2.137 -0.844,4.442 -2.191,6.332 -0.34,0.481 -0.747,0.915 -1.137,1.356 -0.465,0.527 -0.996,1 -1.402,1.57 -0.395,0.563 -0.668,1.215 -1,1.844 -2.036,0.918 -3.614,2.387 -5.094,4.355 -1.5,0.661 -3.473,0.821 -4.766,1.93 -0.75,0.11 -1.254,0.188 -1.758,0.266 -1.414,0.215 -2.82,0.457 -4.234,0.64 -1.031,0.133 -2.07,0.235 -3.106,0.25 -0.617,0.008 -1.25,-0.125 -1.851,-0.281 -1.688,-0.445 -3.313,-1.043 -4.813,-1.957 -0.277,-0.168 -0.605,-0.324 -0.925,-0.351 -1.793,-0.161 -3.028,-1.282 -4.246,-2.426 -1.247,-1.164 -2.489,-2.332 -3.688,-3.543 -0.828,-0.836 -1.555,-1.754 -2.078,-2.836 -0.57,-1.192 -1.078,-2.414 -1.465,-3.672 -0.234,-0.766 -0.191,-1.613 -0.305,-2.418 -0.074,-0.504 -0.152,-1.027 -0.339,-1.5 -0.606,-1.535 -1.075,-3.078 -0.692,-4.754 0.024,-0.101 -0.031,-0.254 0.024,-0.316 0.808,-0.914 0.695,-2.157 1.105,-3.215 0.215,-0.551 0.039,-1.25 0.039,-1.82"
           style="fill:#21201d;fill-opacity:1;fill-rule:nonzero;stroke:none"
           id="path646" />
      </g>
    </g>
  </g>
</svg>
