<?xml version="1.0" encoding="UTF-8" standalone="no"?>
<!-- Created with Inkscape (http://www.inkscape.org/) -->

<svg
   width="8.2355566mm"
   height="8.3854542mm"
   viewBox="0 0 8.2355566 8.3854542"
   version="1.1"
   id="svg3448"
   inkscape:version="1.1.2 (0a00cf5339, 2022-02-04)"
   sodipodi:docname="rm5.svg"
   xmlns:inkscape="http://www.inkscape.org/namespaces/inkscape"
   xmlns:sodipodi="http://sodipodi.sourceforge.net/DTD/sodipodi-0.dtd"
   xmlns="http://www.w3.org/2000/svg"
   xmlns:svg="http://www.w3.org/2000/svg">
  <sodipodi:namedview
     id="namedview3450"
     pagecolor="#ffffff"
     bordercolor="#666666"
     borderopacity="1.0"
     inkscape:pageshadow="2"
     inkscape:pageopacity="0.0"
     inkscape:pagecheckerboard="0"
     inkscape:document-units="mm"
     showgrid="false"
     inkscape:zoom="0.64052329"
     inkscape:cx="674.44855"
     inkscape:cy="-5.4642822"
     inkscape:window-width="2560"
     inkscape:window-height="1376"
     inkscape:window-x="0"
     inkscape:window-y="0"
     inkscape:window-maximized="1"
     inkscape:current-layer="layer1" />
  <defs
     id="defs3445">
    <clipPath
       clipPathUnits="userSpaceOnUse"
       id="clipPath256">
      <path
         d="m 258.121,1045 h 45.871 v 47 h -45.871 z"
         id="path254" />
    </clipPath>
  </defs>
  <g
     inkscape:label="Layer 1"
     inkscape:groupmode="layer"
     id="layer1"
     transform="translate(73.514166,-149.88377)">
    <g
       id="g638"
       transform="matrix(0.18405616,0,0,0.18405792,-121.1382,-42.580814)">
      <g
         clip-path="url(#clipPath256)"
         id="g636">
        <path
           d="m 281.277,1065.086 c -0.117,-0.633 -0.222,-1.176 -0.332,-1.754 -1.121,-1.121 -1.613,-2.629 -2.082,-4.082 -0.527,-1.621 -0.574,-3.34 0.438,-4.977 h -1.055 c -0.289,0.274 -0.558,0.528 -0.781,0.735 -0.367,0.832 -0.527,1.633 -0.344,2.453 0.164,0.711 0.344,1.441 0.66,2.094 0.61,1.261 1.348,2.453 2.324,3.383 0.125,0.39 0.231,0.718 0.329,1.023 -0.414,1.101 -0.825,2.191 -1.043,2.766 -0.262,1.722 0.671,2.511 1.027,3.652 0.207,-0.18 0.332,-0.281 0.492,-0.418 -0.5,-1.035 -0.637,-2.086 -0.5,-3.149 0.297,-0.582 0.574,-1.14 0.867,-1.726 m -3.578,-1.027 c -0.094,-0.653 -0.144,-1.239 -0.265,-1.813 -0.106,-0.531 -0.637,-0.941 -0.477,-1.562 -0.668,-0.68 -0.707,-1.61 -0.746,-2.426 -0.106,-2.086 -0.242,-4.196 0.445,-6.074 -0.347,-0.278 -0.586,-0.469 -0.922,-0.739 -0.281,0.317 -0.644,0.594 -0.839,0.965 -0.727,1.356 -0.743,2.86 -0.325,4.25 0.242,0.809 0.43,1.602 0.543,2.43 0.035,0.254 0.102,0.512 0.215,0.738 0.484,0.984 0.996,1.957 1.527,2.992 v 1.375 c -0.343,0.328 -0.726,0.7 -1.105,1.067 0.672,0.535 0.848,0.429 1.949,-1.203 m 5.324,3.027 c 0.832,-0.758 1.457,-1.32 2.043,-1.856 0.071,-0.824 -0.023,-1.55 -0.531,-2.164 -0.582,-0.707 -1.137,-1.445 -1.801,-2.062 -0.406,-0.383 -0.64,-0.789 -0.781,-1.297 -0.152,-0.559 -0.324,-1.117 -0.465,-1.602 0.153,-0.644 0.297,-1.246 0.477,-2 0.648,-0.562 0.933,-1.5 1.269,-2.441 0.45,-1.262 0.348,-2.035 -0.636,-2.875 -0.414,-0.355 -0.864,-0.68 -1.321,-1.035 -0.027,0.035 -0.195,0.262 -0.386,0.527 0.511,0.657 1.004,1.285 1.547,1.985 -0.02,0.265 -0.051,0.632 -0.079,0.976 -0.617,0.602 -1.187,1.18 -1.777,1.746 -0.695,0.672 -0.461,1.602 -0.672,2.41 -0.008,0.036 -0.035,0.067 -0.035,0.102 -0.02,1.188 0.168,2.348 1.207,3.047 0.566,0.387 0.984,0.867 1.441,1.34 0.438,0.449 0.864,0.91 1.305,1.379 0.031,0.429 0.063,0.898 0.098,1.375 -0.485,0.605 -0.883,1.242 -1.543,1.711 -0.957,0.683 -0.891,1.937 0.043,2.66 0.027,0.023 0.113,-0.028 0.183,-0.043 -0.05,-0.25 -0.105,-0.496 -0.144,-0.676 0.234,-0.504 0.437,-0.941 0.558,-1.207 m -10.988,-6.445 c -0.789,0.582 -1.64,1.121 -2.387,1.781 -0.519,0.457 -1.007,1.027 -1.293,1.644 -0.273,0.598 -0.281,1.325 -0.378,1.996 -0.012,0.098 0.14,0.219 0.097,0.157 -0.062,0.441 -0.168,0.722 -0.125,0.984 0.074,0.551 0.199,1.094 0.348,1.629 0.183,0.676 0.558,1.34 0.57,2.016 0.028,1.429 0.879,2.246 1.883,3.019 0.043,0.031 0.082,0.074 0.125,0.113 -0.09,0.122 -0.172,0.235 -0.238,0.325 0.226,0.613 1.043,0.179 1.144,0.871 0.621,-0.047 1.172,-0.09 1.848,-0.145 -0.004,-0.01 0.047,0.168 0.113,0.172 0.563,0.031 1.133,0.055 1.699,0.039 0.758,-0.027 1.516,-0.105 2.219,0.274 0.192,-0.086 0.383,-0.172 0.52,-0.235 0.215,0.696 0.418,1.356 0.636,2.067 -0.054,0.394 -0.093,0.851 -0.187,1.304 -0.152,0.735 -0.789,1.129 -1.227,1.668 -0.757,0.93 -1.937,1.032 -2.922,1.504 -0.082,0.043 -0.214,-0.043 -0.324,-0.043 -0.758,0.012 -1.445,0.25 -2.051,0.754 0.622,-0.078 1.239,-0.16 2,-0.258 0.254,0.328 0.711,0.164 1.204,0.114 0.519,-0.055 1.058,0.101 1.586,0.082 0.511,-0.02 1.019,-0.145 1.691,-0.243 0.723,-0.265 1.215,-0.898 1.316,-1.835 0.067,-0.618 -0.004,-1.305 0.254,-1.833 0.321,-0.656 0.184,-1.308 0.27,-1.957 0.023,-0.207 -0.164,-0.445 -0.266,-0.703 0.289,-0.609 0.289,-0.609 -0.148,-1.675 -1.75,-0.477 -3.344,0.343 -4.797,0.421 -0.59,-0.234 -0.985,-0.441 -1.406,-0.546 -1.184,-0.297 -1.981,-1.172 -2.891,-1.883 -0.16,-0.129 -0.266,-0.367 -0.324,-0.578 -0.379,-1.418 -0.782,-2.832 -1.09,-4.266 -0.211,-0.984 -0.301,-1.996 0.07,-2.984 0.031,-0.079 -0.125,-0.231 -0.133,-0.239 0.258,-0.441 0.465,-0.804 0.625,-1.086 1.055,-0.394 2.059,-0.765 2.985,-1.109 0.066,-0.48 0.125,-0.867 0.179,-1.266 -0.3,-0.843 -0.3,-0.843 -0.765,-1.089 -0.125,0.304 -0.25,0.609 -0.43,1.039 m 10.141,15.875 c -0.41,0.863 -0.481,1.742 -0.399,2.777 -0.101,0.609 -0.203,1.215 -0.304,1.828 -0.094,0.441 -0.559,0.789 -0.285,1.356 0.531,0.089 1.082,0.281 1.613,0.246 0.523,-0.035 1.027,0.425 1.398,0.215 -0.32,-0.372 -0.629,-0.727 -0.937,-1.086 -0.395,-1.797 -0.84,-3.497 -0.098,-5.254 0.191,-0.227 0.379,-0.45 0.504,-0.602 0.559,0.207 0.984,0.445 1.437,0.527 1.2,0.204 2.415,0.293 3.618,-0.023 1.316,-0.348 2.648,-0.621 3.859,-1.301 0.566,-0.316 0.918,-0.824 1.289,-1.32 0.645,-0.871 0.895,-1.926 1.309,-2.906 0.699,-1.657 0.515,-3.368 0.597,-5.067 -0.507,-0.441 -0.027,-0.961 -0.093,-1.445 -0.161,-1.207 -0.653,-2.215 -1.481,-3.051 -0.887,-0.883 -2.141,-0.945 -3.246,-1.324 -0.094,-0.031 -0.25,0.125 -0.375,0.195 -0.141,-0.152 -0.289,-0.308 -0.422,-0.445 -0.387,-0.027 -0.73,-0.01 -1.051,-0.078 -0.359,-0.078 -0.695,-0.242 -1.062,-0.375 -0.184,0.082 -0.379,0.172 -0.582,0.265 -0.383,-0.621 -1.07,-0.171 -1.582,-0.48 -0.399,-0.238 -0.981,-0.18 -1.504,-0.258 -0.149,-0.125 -0.324,-0.269 -0.539,-0.445 -0.188,0.711 0.191,0.91 0.664,1.012 0.469,0.101 0.945,0.183 1.422,0.253 1.668,0.25 3.32,0.52 4.883,1.262 0.961,0.453 1.769,1.039 2.379,1.574 1.011,2.754 0.582,5.313 0.117,7.676 -0.852,1.875 -2.262,2.988 -3.883,4 -0.621,-0.269 -1.121,0.328 -1.754,0.547 -1,0 -2.031,0.016 -3.063,-0.01 -0.683,-0.01 -1.308,-0.203 -1.769,-0.769 -0.066,-0.078 -0.254,-0.059 -0.508,-0.11 0.199,0.953 -0.711,1.7 -0.152,2.614 m -22.25,-1.282 c -0.098,-0.027 -0.203,-0.058 -0.383,-0.109 0.176,-0.184 0.324,-0.344 0.527,-0.559 -0.195,-0.207 -0.359,-0.382 -0.543,-0.578 0.153,-0.09 0.297,-0.179 0.5,-0.304 -0.355,-1.11 -0.718,-2.227 -1.082,-3.34 -0.355,-1.09 -0.109,-2.223 -0.179,-3.391 0.605,-0.355 0.605,-0.355 0.359,-1.062 0.105,-0.043 0.207,-0.082 0.309,-0.125 0.093,-0.442 0.187,-0.883 0.308,-1.465 -0.019,-0.035 -0.105,-0.188 -0.133,-0.235 0.129,-0.414 0.266,-0.738 0.321,-1.078 0.05,-0.32 0.008,-0.648 0.008,-1 0.417,-0.648 0.515,-1.008 0.546,-1.797 0.422,-1.457 1.141,-2.738 2.278,-3.746 -0.078,-0.281 -0.141,-0.492 -0.2,-0.711 0.297,-0.394 0.52,-0.914 0.915,-1.183 0.933,-0.641 1.562,-1.504 2.222,-2.395 0.766,-1.035 1.75,-1.906 2.664,-2.875 1.453,0.086 2.317,-0.89 3.211,-1.758 1.821,-0.164 3.512,-0.898 5.192,-0.757 0.714,-0.43 1.316,-0.793 1.808,-1.09 0.578,0.094 1.012,0.195 1.453,0.226 1.285,0.078 2.578,0.133 3.871,0.196 0.071,0 0.153,-0.01 0.219,0.011 1.727,0.618 3.68,0.395 5.301,1.356 0.648,0.387 1.16,1 1.77,1.465 0.874,0.672 1.812,1.211 3.027,1.125 0.926,0.605 1.176,1.754 1.894,2.535 0.551,0.414 1.106,0.832 1.661,1.25 -0.04,0.031 -0.082,0.062 -0.122,0.09 1.266,1.855 2.532,3.711 3.786,5.543 0.07,1.238 0.449,2.347 0.882,3.465 0.493,1.253 0.868,2.558 1.024,3.73 -0.172,0.68 -0.301,1.203 -0.402,1.613 0.593,1.317 0.664,2.496 0.429,3.801 -0.269,1.488 -0.695,2.934 -1.039,4.395 -0.285,1.195 -0.816,2.351 -1.703,3.281 -0.359,0.379 -0.648,0.851 -1.07,1.129 -0.821,0.547 -1.145,1.324 -1.336,2.187 -0.297,0.91 -1.535,0.735 -1.934,1.692 -0.094,0.035 -0.312,0.086 -0.508,0.183 -0.32,0.156 -2.16,2.063 -2.414,2.356 -0.312,0.355 -0.691,0.652 -1.054,0.957 -0.164,0.136 -0.368,0.226 -0.641,0.398 -0.563,-0.121 -1.117,0.086 -1.719,0.453 -0.676,0.418 -1.48,0.649 -2.258,0.864 -0.851,0.238 -1.726,0.367 -2.597,0.519 -0.348,0.063 -0.711,0.055 -1.082,-0.035 -0.231,0.113 -0.461,0.23 -0.5,0.25 h -1.625 c -0.075,0.144 -0.141,0.269 -0.196,0.375 -0.949,-0.563 -1.812,0.176 -2.793,0.148 -0.449,-0.312 -1.019,-0.632 -1.652,-0.468 -0.492,0.129 -0.719,-0.633 -1.207,-0.262 -1.121,-0.527 -2.246,-1.039 -3.359,-1.586 -0.145,-0.07 -0.219,-0.289 -0.196,-0.25 -1.031,-0.238 -1.832,-0.422 -2.718,-0.625 -0.961,-0.871 -2.016,-1.777 -3.008,-2.742 -1.457,-1.422 -2.895,-2.871 -4.297,-4.348 -0.32,-0.332 -0.52,-0.805 -0.715,-1.234 -0.484,-1.078 -1.184,-2.059 -1.359,-3.274 -0.059,-0.414 -0.301,-0.804 -0.461,-1.211"
           style="fill:#21201d;fill-opacity:1;fill-rule:nonzero;stroke:none"
           id="path634" />
      </g>
    </g>
  </g>
</svg>
