<?xml version="1.0" encoding="UTF-8" standalone="no"?>
<!-- Created with Inkscape (http://www.inkscape.org/) -->

<svg
   width="8.3587265mm"
   height="8.2812634mm"
   viewBox="0 0 8.3587265 8.2812634"
   version="1.1"
   id="svg3609"
   inkscape:version="1.1.2 (0a00cf5339, 2022-02-04)"
   sodipodi:docname="rm6.svg"
   xmlns:inkscape="http://www.inkscape.org/namespaces/inkscape"
   xmlns:sodipodi="http://sodipodi.sourceforge.net/DTD/sodipodi-0.dtd"
   xmlns="http://www.w3.org/2000/svg"
   xmlns:svg="http://www.w3.org/2000/svg">
  <sodipodi:namedview
     id="namedview3611"
     pagecolor="#ffffff"
     bordercolor="#666666"
     borderopacity="1.0"
     inkscape:pageshadow="2"
     inkscape:pageopacity="0.0"
     inkscape:pagecheckerboard="0"
     inkscape:document-units="mm"
     showgrid="false"
     inkscape:zoom="0.64052329"
     inkscape:cx="-82.744845"
     inkscape:cy="-14.831623"
     inkscape:window-width="2560"
     inkscape:window-height="1376"
     inkscape:window-x="0"
     inkscape:window-y="0"
     inkscape:window-maximized="1"
     inkscape:current-layer="layer1" />
  <defs
     id="defs3606">
    <clipPath
       clipPathUnits="userSpaceOnUse"
       id="clipPath268">
      <path
         d="m 783.027,1045 h 45.871 v 46 h -45.871 z"
         id="path266" />
    </clipPath>
  </defs>
  <g
     inkscape:label="Layer 1"
     inkscape:groupmode="layer"
     id="layer1"
     transform="translate(-126.76501,-152.4143)">
    <g
       id="g656"
       transform="matrix(0.18405616,0,0,0.18405792,-17.409865,-40.091036)">
      <g
         clip-path="url(#clipPath268)"
         id="g654">
        <path
           d="m 806.945,1065.035 c -0.254,-0.535 -0.707,-0.656 -1.347,-0.746 -0.356,0.258 -0.793,0.574 -1.239,0.906 0.149,0.45 0.262,0.793 0.368,1.102 0.464,0.215 0.859,0.402 1.277,0.598 0.391,-0.149 0.906,-0.102 0.984,-0.688 -0.437,-0.352 -1.121,0.184 -1.41,-0.465 0.219,-0.68 1.016,-0.109 1.367,-0.707 m 5.489,-1.297 c -0.399,0.922 -0.352,1.078 0.628,2.024 h 1.329 c 0.14,-0.215 0.289,-0.438 0.496,-0.754 -0.602,-0.11 -1.219,0.277 -1.614,-0.383 0.465,-0.172 0.891,-0.332 1.332,-0.496 -0.546,-0.805 -0.585,-0.813 -2.171,-0.391 m -11.094,-3.676 c 0.43,-0.175 0.812,-0.339 1.172,-0.492 0,-0.851 -0.364,-1.406 -0.922,-1.785 -0.606,-0.418 -1.25,-0.816 -1.938,-1.062 -0.613,-0.219 -1.121,-0.524 -1.593,-1.016 -0.118,-1.328 -0.129,-2.629 1.32,-3.359 -0.402,-0.703 -0.899,-0.036 -1.277,-0.157 -0.282,-0.14 -0.524,-0.261 -0.965,-0.484 0.058,0.57 0.097,0.941 0.148,1.465 -0.629,1.422 -0.426,2.879 0.735,4.324 1.296,0.344 2.246,1.391 3.32,2.566 m 2.957,21.196 c -0.055,1.656 0.308,2.722 0.969,3.512 0.121,0.703 0.214,1.253 0.316,1.847 0.719,-0.508 0.957,-1.023 0.828,-1.695 -0.113,-0.578 -0.203,-1.164 -0.351,-1.731 -0.317,-1.191 -0.254,-2.336 0.273,-3.461 0.172,-0.355 0.191,-0.781 0.281,-1.171 h -0.144 c -0.321,-1.008 -0.637,-2.016 -0.961,-3.032 h -0.922 c -0.242,0.403 -0.473,0.778 -0.598,0.993 -0.406,1.484 0.864,1.593 1.461,2.171 0.059,1.207 -1.027,1.879 -1.152,2.567 m -3.578,0.633 c -0.242,0.343 -0.516,0.734 -0.77,1.093 v 1.278 c 0.543,0.504 0.731,1.34 1.574,1.664 -0.168,-0.653 -0.316,-1.207 -0.437,-1.668 0.187,-0.496 0.328,-0.879 0.5,-1.34 1.246,-0.773 2.137,-1.84 1.973,-3.617 -0.543,-0.758 -1.215,-1.613 -1.18,-2.766 0.176,-0.312 0.348,-0.621 0.547,-0.98 -0.477,0.054 -0.879,0.066 -1.262,0.148 -0.992,0.223 -1.398,1.039 -0.961,1.953 0.223,0.461 0.473,0.918 0.758,1.344 0.465,0.695 0.562,1.43 0.328,2.293 -0.324,0.18 -0.676,0.375 -1.07,0.598 m 14.793,-26.266 c -0.543,0.629 -1.246,0.914 -1.996,1.176 -0.907,0.308 -1.778,0.715 -2.649,1.109 -0.265,0.125 -0.48,0.352 -0.539,0.395 -0.129,0.578 -0.199,0.89 -0.262,1.179 0.422,0.602 0.981,0.524 1.567,0.461 0.629,-0.566 1.258,-1.136 1.887,-1.703 1.535,-0.203 2.589,-1.086 3.273,-2.414 0.187,-0.363 0.324,-0.918 0.184,-1.266 -0.34,-0.839 -0.473,-1.671 -0.254,-2.546 -0.942,0.097 -1.782,0.187 -2.805,0.293 0.473,0.293 0.781,0.484 1.02,0.632 0.695,0.793 0.742,1.664 0.574,2.684 m -7.414,21.398 c 0.238,0.618 0.218,1.204 -0.309,1.711 -0.156,0.153 -0.266,0.36 -0.391,0.539 -0.777,1.114 -0.769,2.2 0.028,3.293 0.238,0.329 0.508,0.629 0.797,0.977 v 2.367 c 0.422,-0.191 0.754,-0.344 1.054,-0.48 0.172,-0.442 0.317,-0.821 0.493,-1.27 -0.356,-0.859 -0.727,-1.742 -1.11,-2.668 0.086,-0.504 0.129,-1.062 0.289,-1.586 0.156,-0.527 0.399,-1.043 0.66,-1.527 0.301,-0.559 0.36,-1.121 0.157,-1.938 -0.25,-0.25 -0.582,-0.707 -1.024,-1.003 -0.687,-0.465 -1.101,-0.239 -1.472,0.722 0.253,0.266 0.535,0.559 0.828,0.863 m -11.039,-14.793 c 0.746,0.442 1.449,0.852 2.066,1.215 0.383,0.883 0.469,1.664 0.117,2.45 -0.59,0.203 -1.144,0.39 -1.558,0.527 -1.219,-0.149 -1.848,-1.031 -2.719,-1.731 -0.176,0.528 -0.305,0.903 -0.406,1.196 0.121,0.457 0.211,0.816 0.336,1.289 0.675,0.347 1.421,0.726 2.214,1.133 0.672,-0.094 1.379,-0.137 2.059,-0.301 1.277,-0.309 2.211,-1.82 1.918,-3.113 -0.164,-0.719 -0.438,-1.411 -0.57,-1.829 -0.692,-0.972 -1.465,-1.371 -2.325,-1.437 -0.769,-0.055 -1.664,-0.348 -2.429,0.519 0.511,0.032 0.875,0.055 1.297,0.082 m 18.578,3.653 c -0.625,0.226 -1.18,0.429 -1.692,0.609 -0.765,-0.137 -1.48,-0.265 -2.242,-0.406 -0.18,0.328 -0.328,0.613 -0.473,0.887 0.184,0.574 0.403,1.086 0.95,1.226 0.781,0.199 1.558,0.399 2.406,0.227 1.144,-0.235 2.086,-0.735 2.812,-1.692 0.567,-1.5 0.493,-2.476 -0.32,-3.922 -0.789,-0.261 -1.445,-0.941 -2.414,-0.835 -0.91,0.093 -1.781,0.211 -2.449,1.121 0.586,-0.129 1.047,-0.235 1.515,-0.34 1.172,0.16 1.766,0.969 2.204,1.906 -0.102,0.418 -0.192,0.777 -0.297,1.219 m -10.571,7.633 c 0.157,-1.082 -0.113,-1.887 -1.019,-2.43 -0.762,-0.453 -1.496,-0.961 -2.258,-1.422 -0.437,-0.266 -0.906,-0.48 -1.281,-0.68 -0.863,0.25 -1.059,0.957 -1.18,1.5 -0.183,0.856 -0.617,1.629 -0.695,2.52 -0.078,0.871 -0.36,1.726 -0.488,2.598 -0.196,1.343 0.371,2.554 0.832,3.753 0.179,0.465 0.695,0.852 1.14,1.161 0.34,0.234 0.805,0.277 1.281,0.429 0.129,-0.597 -0.144,-1.035 -0.515,-1.39 -1.317,-1.258 -1.703,-2.852 -1.555,-4.567 0.098,-1.093 0.383,-2.172 0.668,-3.234 0.082,-0.313 0.445,-0.555 0.656,-0.801 0.391,0.039 0.684,0.063 0.883,0.082 0.895,0.5 1.199,1.242 1.145,2.102 -0.028,0.453 0.136,0.695 0.519,0.949 0.625,-0.07 1.387,0.234 1.867,-0.57 m 3.883,-10.063 c -0.644,-0.328 -1.219,-0.594 -1.765,-0.91 -0.52,-0.305 -1.079,-0.332 -1.622,-0.211 -0.503,0.113 -1.039,0.262 -1.453,0.547 -0.476,0.328 -1.117,0.559 -1.328,1.363 0.844,-0.16 1.582,-0.39 2.328,-0.414 0.805,-0.023 1.614,0.152 2.371,0.234 0.661,0.532 0.383,1.282 0.559,1.797 -0.394,1.871 -1.738,1.887 -3.187,1.758 -0.555,-0.285 -1.145,-0.594 -1.739,-0.898 -0.195,0 -0.379,-0.016 -0.562,0 -0.18,0.015 -0.352,0.058 -0.504,0.086 -0.199,1.574 0.07,2.015 1.668,2.8 1.137,-0.019 2.308,0.403 3.39,-0.082 1.071,-0.855 2.133,-1.628 2.579,-2.98 -0.075,-1.031 -0.168,-2.098 -0.735,-3.09 m -2.715,-10.566 c -0.097,-0.01 -0.199,-0.016 -0.3,-0.028 -0.055,0.098 -0.102,0.2 -0.168,0.289 -0.59,0.852 -0.653,1.875 -0.95,2.825 -0.378,1.187 -0.531,2.48 -1.414,3.449 -0.593,0.652 -1.25,1.242 -1.871,1.851 -0.164,0.668 -0.328,1.309 -0.496,1.981 0.176,0.199 0.336,0.379 0.508,0.578 0.574,-0.402 0.703,-1.004 0.984,-1.508 0.231,-0.41 0.461,-0.969 0.832,-1.121 0.727,-0.305 1.2,-0.844 1.719,-1.324 0.117,-0.399 0.227,-0.77 0.406,-1.387 0.278,0.613 0.438,0.969 0.649,1.43 0.414,0.121 0.906,0.266 1.406,0.41 0.473,0.422 0.961,0.856 1.395,1.238 0.07,0.469 0.125,0.836 0.179,1.2 0.239,0.339 0.473,0.671 0.715,1.019 0.172,0 0.32,0.027 0.457,-0.01 0.094,-0.019 0.172,-0.117 0.238,-0.164 -0.14,-0.676 -0.207,-1.344 -0.414,-1.961 -0.308,-0.914 -0.714,-1.797 -1.66,-2.254 -0.558,-0.273 -0.758,-0.785 -0.926,-1.324 -0.445,-1.453 -0.828,-2.914 -0.996,-4.43 -0.027,-0.261 -0.191,-0.507 -0.293,-0.761 m 5.055,27.371 c 1.324,-1.106 1.957,-2.383 2.027,-3.938 0.024,-0.652 0.032,-1.32 -0.066,-1.965 -0.168,-1.16 -0.238,-2.355 -0.941,-3.378 -0.207,-0.305 -0.375,-0.649 -0.489,-0.997 -0.25,-0.757 -0.738,-1.179 -1.586,-1.25 -1.847,0.582 -3.046,2.04 -4.257,3.422 -0.082,0.489 -0.153,0.922 -0.231,1.399 0.297,0.336 0.586,0.656 0.879,0.98 0.523,-0.273 0.906,-0.472 1.293,-0.676 v -1.406 c 0.055,0.035 0.109,0.071 0.164,0.11 0.43,-0.555 0.859,-1.114 1.258,-1.633 0.472,0.078 0.793,0.129 1.117,0.179 0.566,0.805 0.945,1.618 1.027,2.575 0.125,1.527 -0.015,3.023 -0.3,4.523 -0.114,0.613 -0.317,1.277 0.105,2.055 m -13.41,-6.926 c -2.453,-0.641 -3.984,-2.187 -4.496,-4.668 -0.203,-0.969 -0.399,-1.961 -0.418,-2.945 -0.012,-1.102 -0.067,-2.309 0.336,-3.293 0.754,-1.832 2.043,-3.309 4.094,-3.871 0.14,-0.035 0.253,-0.176 0.574,-0.414 -1.715,-0.293 -2.981,0.207 -4.203,0.921 -0.063,0.036 -0.106,0.106 -0.164,0.145 -1.262,0.836 -1.426,2.297 -1.891,3.539 -0.313,0.832 -0.231,1.82 -0.309,2.734 -0.043,0.442 0.02,0.907 -0.086,1.332 -0.359,1.454 0.114,2.79 0.575,4.114 0.113,0.32 0.461,0.562 0.711,0.832 0.546,0.59 1.234,1.101 1.609,1.785 0.305,0.562 0.699,0.82 1.219,1.004 0.554,0.191 1.121,0.351 1.746,0.543 0.172,-0.102 0.39,-0.227 0.609,-0.36 0.039,-0.457 0.453,-0.824 0.094,-1.398 m 16.703,-14.602 c 0.43,0.153 0.691,0.235 0.953,0.344 0.438,0.184 0.973,0.281 1.281,0.598 1.02,1.031 1.684,2.316 2.106,3.691 0.445,1.461 0.437,2.969 0.32,4.504 -0.113,1.52 -0.422,2.957 -1.078,4.309 -0.301,0.625 -0.66,1.242 -1.375,1.547 -0.906,0.386 -1.793,0.836 -2.781,1.3 -0.063,0.247 -0.16,0.625 -0.266,1.028 0.477,0.367 0.91,0.492 1.485,0.347 1.816,-0.46 3.402,-1.226 4.359,-2.945 0.293,-0.515 0.562,-1.012 0.652,-1.629 0.11,-0.754 0.375,-1.488 0.551,-2.238 0.184,-0.789 0.449,-1.574 0.481,-2.367 0.078,-1.918 -0.434,-3.926 -1.602,-6.16 -0.676,-1.282 -1.715,-2.016 -2.996,-2.477 -0.61,-0.219 -1.277,-0.23 -2.09,0.148 m -27.227,22.864 c -0.109,-0.274 -0.156,-0.489 -0.269,-0.664 -0.508,-0.813 -1.199,-1.551 -1.512,-2.43 -0.488,-1.367 -1.031,-2.758 -0.957,-4.266 0.035,-0.718 -0.109,-1.359 -0.492,-2.007 -0.309,-0.528 -0.445,-1.18 -0.551,-1.797 -0.144,-0.832 -0.191,-1.688 -0.254,-2.328 0.883,-2.118 1.422,-4.09 1.481,-6 0.215,-0.563 0.437,-0.957 0.504,-1.372 0.168,-1.054 0.617,-2.058 1.304,-2.753 0.735,-0.747 0.934,-1.633 1.274,-2.399 0.887,-1.273 2.629,-1.742 2.808,-3.398 1.536,-2.035 3.817,-2.875 6.102,-4.078 0.207,-0.379 0.68,-0.629 1.344,-0.641 0.461,-0.01 0.918,-0.231 1.383,-0.297 0.55,-0.082 1.109,-0.109 1.66,-0.148 0.562,-0.036 1.086,-0.11 1.488,-0.594 0.418,-0.504 1,-0.578 1.625,-0.496 0.625,0.086 1.25,0.129 1.875,0.183 0.66,0.055 1.32,0.098 1.984,0.243 0.325,-0.071 0.653,-0.141 0.762,-0.164 1.59,0.273 2.973,0.515 4.832,0.839 0.848,0.598 2.047,1.52 3.328,2.321 0.707,0.437 1.547,0.664 2.672,1.125 0.324,0.386 0.899,1.062 1.477,1.734 0.144,0.168 0.273,0.359 0.453,0.481 1.031,0.726 1.648,1.792 2.328,2.808 0.531,0.801 1.074,1.598 1.641,2.371 0.574,0.781 1.128,1.559 1.144,2.59 0.004,0.117 0.16,0.234 0.25,0.355 -0.09,0.192 -0.18,0.391 -0.273,0.602 0.941,1.359 1.144,2.969 1.625,4.559 -0.129,0.632 -0.282,1.359 -0.399,1.918 0.278,0.996 0.512,1.839 0.742,2.687 -0.449,1.766 -0.882,3.516 -1.347,5.254 -0.492,1.871 -1.496,3.434 -2.93,4.73 -0.352,0.321 -0.75,0.68 -0.906,1.106 -0.426,1.144 -1.203,1.957 -2.235,2.5 -1.199,0.633 -1.953,1.805 -3.011,2.34 -0.344,0.562 -0.61,0.996 -0.832,1.359 -1.368,0.387 -2.703,0.555 -3.825,1.371 -0.285,0.207 -0.679,0.282 -1.039,0.36 -1.871,0.406 -3.742,0.828 -5.675,0.879 -0.879,0.023 -1.758,0.222 -2.637,0.324 -0.363,0.047 -0.758,0.14 -1.098,0.054 -1.754,-0.433 -3.515,-0.851 -5.129,-1.734 -0.707,-0.387 -1.484,-0.726 -2.269,-0.883 -1.188,-0.23 -2.117,-0.824 -2.985,-1.605 -0.57,-0.512 -1.136,-1.024 -1.836,-1.395 -0.398,-0.207 -0.683,-0.676 -0.941,-1.074 -0.699,-1.078 -1.773,-1.738 -2.684,-2.57"
           style="fill:#21201d;fill-opacity:1;fill-rule:nonzero;stroke:none"
           id="path652" />
      </g>
    </g>
  </g>
</svg>
