<?xml version="1.0" encoding="UTF-8" standalone="no"?>
<!-- Created with Inkscape (http://www.inkscape.org/) -->

<svg
   width="8.160717mm"
   height="8.1399536mm"
   viewBox="0 0 8.160717 8.1399536"
   version="1.1"
   id="svg1728"
   inkscape:version="1.1.2 (0a00cf5339, 2022-02-04)"
   sodipodi:docname="rm7.svg"
   xmlns:inkscape="http://www.inkscape.org/namespaces/inkscape"
   xmlns:sodipodi="http://sodipodi.sourceforge.net/DTD/sodipodi-0.dtd"
   xmlns="http://www.w3.org/2000/svg"
   xmlns:svg="http://www.w3.org/2000/svg">
  <sodipodi:namedview
     id="namedview1730"
     pagecolor="#ffffff"
     bordercolor="#666666"
     borderopacity="1.0"
     inkscape:pageshadow="2"
     inkscape:pageopacity="0.0"
     inkscape:pagecheckerboard="0"
     inkscape:document-units="mm"
     showgrid="false"
     inkscape:zoom="0.64052329"
     inkscape:cx="-946.10143"
     inkscape:cy="801.68826"
     inkscape:window-width="2560"
     inkscape:window-height="1376"
     inkscape:window-x="0"
     inkscape:window-y="0"
     inkscape:window-maximized="1"
     inkscape:current-layer="layer1" />
  <defs
     id="defs1725" />
  <g
     inkscape:label="Layer 1"
     inkscape:groupmode="layer"
     id="layer1"
     transform="translate(-355.29417,63.552632)">
    <path
       d="m 359.06254,-59.575509 c -0.0201,0.01288 -0.0547,0.02153 -0.0596,0.03957 -0.0482,0.155897 -0.10215,0.311242 -0.0611,0.47947 0.0374,0.150376 0.0804,0.299831 0.10785,0.452967 0.0265,0.1524 0.0381,0.307009 0.0532,0.461618 0.008,0.0819 0.0193,0.158841 0.1259,0.218476 0.0826,-0.175407 0.18755,-0.329279 0.22859,-0.516834 0.0409,-0.191237 0.004,-0.393332 0.0804,-0.580887 0.0116,-0.02743 -0.003,-0.06626 -0.007,-0.10068 -0.008,-0.07344 -0.0252,-0.146694 -0.0257,-0.220133 -0.004,-0.25308 -0.0814,-0.477999 -0.23946,-0.68083 -0.0123,-0.05595 -0.0252,-0.115037 -0.0388,-0.174672 -0.0136,7.41e-4 -0.0287,0.0015 -0.0425,0.0022 -0.0488,0.199887 -0.12295,0.392596 -0.12148,0.619723 m 2.75937,-1.379698 c -0.11209,-0.03534 -0.21203,-0.07694 -0.31565,-0.09718 -0.1121,-0.02227 -0.23136,-0.0092 -0.34217,-0.03589 -0.11208,-0.02724 -0.23577,-0.01012 -0.33424,-0.04822 -0.12866,-0.05025 -0.24811,-0.05448 -0.37677,-0.0381 -0.0324,0.0029 -0.0663,0.0022 -0.0977,-0.002 -0.34952,-0.05117 -0.7018,-0.0497 -1.05409,-0.04896 -0.0344,0 -0.0697,-0.005 -0.10215,0.0042 -0.21627,0.06056 -0.43198,-0.002 -0.64548,-0.01215 -0.2194,-0.01068 -0.43143,-0.0079 -0.64788,0.02742 -0.11283,0.01785 -0.23799,0.0762 -0.34363,-0.01528 -0.10142,0.04105 -0.1813,0.102152 -0.28695,0.12295 -0.0985,0.01877 -0.18902,0.08356 -0.28326,0.128105 -0.11779,-0.0762 -0.24222,-0.128105 -0.39535,-0.0727 0.071,0.1143 0.14448,0.212955 0.19694,0.321365 0.12368,0.256761 0.13657,0.561561 0.3451,0.780958 0.004,0.005 0.006,0.01215 0.009,0.01859 0.069,0.209274 0.14227,0.416339 0.20411,0.627638 0.0453,0.153872 0.12369,0.284001 0.2229,0.408424 0.0626,0.07767 0.10509,0.17191 0.15534,0.259522 0.0302,0.05246 0.0532,0.110803 0.0871,0.16105 0.14595,0.212219 0.29835,0.419837 0.43989,0.63408 0.14964,0.227312 0.28915,0.460145 0.43364,0.689665 0.01,0.01638 0.0287,0.02798 0.0596,0.05595 -0.005,-0.05743 7.1e-4,-0.09994 -0.0136,-0.134363 -0.14099,-0.339402 -0.37824,-0.626901 -0.53064,-0.961334 -0.0151,-0.0324 -0.0641,-0.05025 -0.0878,-0.06829 0.007,-0.05025 0.023,-0.0819 0.0131,-0.101416 -0.0841,-0.161786 -0.1719,-0.321365 -0.2597,-0.480943 -0.0869,-0.158106 -0.19915,-0.309217 -0.25584,-0.477446 -0.0554,-0.166757 -0.15166,-0.299094 -0.24737,-0.442107 0.0497,-0.08982 -0.0136,-0.168229 -0.0416,-0.248847 -0.0799,-0.230072 -0.17117,-0.456463 -0.24737,-0.688008 -0.0195,-0.05816 -0.004,-0.12792 -0.004,-0.182585 0.22805,-0.0094 0.43714,-0.01288 0.64567,-0.02595 0.21075,-0.01362 0.42131,-0.03589 0.66795,-0.05743 0.003,0.0015 0.0445,0.02301 0.0755,0.03884 0.12663,-0.01307 0.24019,-0.02595 0.35026,-0.03681 0.0423,0.02448 0.0861,0.06626 0.13509,0.07344 0.17467,0.02577 0.35082,0.0381 0.52622,0.05816 0.0596,0.0072 0.11798,0.02669 0.17835,0.03607 0.16676,0.02577 0.33296,0.05816 0.50045,0.07105 0.0935,0.0072 0.18976,-0.01859 0.284,-0.03018 0.1927,-0.02301 0.39185,-0.0028 0.51904,-0.06902 h 0.48609 c -0.0109,0.103625 0.001,0.191236 -0.0302,0.259522 -0.1165,0.253816 -0.18479,0.525669 -0.32799,0.772307 -0.14227,0.245901 -0.22068,0.527694 -0.39388,0.759975 -0.0158,0.0208 -0.0294,0.04804 -0.0331,0.07325 -0.0215,0.148166 -0.10344,0.264675 -0.187,0.381 -0.0164,0.02227 -0.0438,0.04528 -0.0438,0.06773 -7e-4,0.116325 -0.10068,0.18461 -0.13307,0.287499 -0.0337,0.108594 -0.0926,0.209274 -0.13933,0.315659 -0.0539,0.123687 -0.10639,0.248662 -0.15608,0.366643 -0.0712,0.127185 -0.13951,0.250135 -0.21001,0.376767 0.0202,0.03736 0.0381,0.06902 0.067,0.120742 0.13215,-0.240012 0.32854,-0.407688 0.42848,-0.651381 0.10638,-0.0057 0.14025,-0.109331 0.18903,-0.186267 0.10932,-0.170253 0.21276,-0.338482 0.26669,-0.544259 0.0526,-0.207617 0.11375,-0.422597 0.25308,-0.601685 0.0576,-0.07399 0.11872,-0.16326 0.12939,-0.251607 0.0324,-0.251055 0.17762,-0.455176 0.25105,-0.688193 0.028,-0.08761 0.0797,-0.167493 0.12148,-0.250871 0.097,-0.195469 0.1962,-0.388914 0.2897,-0.586593 0.0223,-0.04675 0.0238,-0.102152 0.0366,-0.162523 m 1.56448,1.031645 c -0.0121,0.110803 -0.0344,0.238723 -0.0374,0.366643 -7.1e-4,0.06976 0.009,0.139516 0.0331,0.213692 0.0626,0.185346 0.10271,0.381736 0.0431,0.581622 -0.0948,0.319157 -0.1351,0.652854 -0.26173,0.96336 -0.074,0.179824 -0.16951,0.3429 -0.31123,0.47671 -0.14522,0.135835 -0.29412,0.2667 -0.34585,0.473028 -0.0144,0.05687 -0.0646,0.104361 -0.10491,0.165469 -0.24516,0.02577 -0.38044,0.23725 -0.56082,0.37603 -0.10491,0.08043 -0.17688,0.204856 -0.26743,0.306272 -0.0361,0.04031 -0.0826,0.07105 -0.12939,0.111355 -0.24664,-0.0079 -0.45517,0.109331 -0.66224,0.227312 -0.0799,0.04454 -0.15736,0.08264 -0.2516,0.07325 -0.0267,-0.0029 -0.0569,-0.0042 -0.0813,0.005 -0.21553,0.08062 -0.44284,0.05982 -0.66574,0.08209 -0.24865,0.02448 -0.49603,0.06111 -0.71321,0.08908 -0.13234,-0.02006 -0.23725,-0.03166 -0.34069,-0.05319 -0.0964,-0.01932 -0.17264,-0.122951 -0.2748,-0.06681 -0.11706,-0.05964 -0.22712,-0.115036 -0.33498,-0.17191 -0.10859,-0.05743 -0.21571,-0.115773 -0.32357,-0.173935 -0.0121,-0.0064 -0.0215,-0.0173 -0.0337,-0.02301 -0.0123,-0.0057 -0.0267,-0.0094 -0.0396,-0.0116 -0.13878,-0.02724 -0.27756,-0.05466 -0.40916,-0.0797 -0.13086,-0.106386 -0.26449,-0.206329 -0.38891,-0.317868 -0.12074,-0.108594 -0.23228,-0.227864 -0.34658,-0.343636 -0.10344,-0.105649 -0.19988,-0.220686 -0.3105,-0.31842 -0.17412,-0.153321 -0.3451,-0.314924 -0.43713,-0.52567 -0.10363,-0.233569 -0.19989,-0.473029 -0.25602,-0.726108 -0.0547,-0.245902 -0.049,-0.506896 -0.16253,-0.737704 -0.0863,-0.176144 -0.1143,-0.361674 -0.11724,-0.55291 -0.002,-0.111355 -0.003,-0.227128 0.067,-0.32928 0.0294,-0.04307 0.0431,-0.101416 0.0517,-0.154609 0.0173,-0.104913 -0.003,-0.227864 0.0467,-0.311978 0.0611,-0.102888 0.0208,-0.199887 0.0418,-0.295597 0.0114,-0.05319 0.0295,-0.104913 0.0438,-0.157369 0.0416,-0.14964 0.0626,-0.308482 0.12866,-0.446525 0.0747,-0.15737 0.18902,-0.296149 0.30553,-0.472293 0.004,-0.127368 0.069,-0.248846 0.20633,-0.359465 0.17191,-0.137491 0.31566,-0.313635 0.39038,-0.487569 0.10786,-0.103441 0.19123,-0.181849 0.31492,-0.300567 0.0821,-0.03957 0.21719,-0.10344 0.351,-0.170254 0.0668,-0.03313 0.13583,-0.06479 0.19547,-0.108594 0.17982,-0.130865 0.3889,-0.157553 0.59891,-0.207065 0.23431,-0.0554 0.4953,-0.02172 0.70383,-0.184058 0.0762,-0.05908 0.16823,-0.05835 0.27038,-0.04454 0.24075,0.03074 0.48389,0.03442 0.72537,0.05319 0.0885,0.0072 0.1754,0.02356 0.2632,0.03939 0.0755,0.01454 0.15092,0.03313 0.22584,0.04969 0.0193,0.005 0.0401,0.01657 0.0589,0.01362 0.23946,-0.03368 0.42849,0.08853 0.61549,0.203568 0.0963,0.05964 0.17319,0.150191 0.26522,0.21774 0.16473,0.120742 0.35008,0.197678 0.58015,0.240196 0.0554,0.07197 0.13877,0.154609 0.18847,0.253816 0.0712,0.144485 0.2113,0.210562 0.31768,0.314187 0.0742,0.07123 0.14393,0.135834 0.18553,0.237987 0.0267,0.06755 0.0517,0.16105 0.15166,0.176879 0.0116,0.0015 0.0237,0.01215 0.0296,0.02227 0.13215,0.212035 0.26448,0.423517 0.39167,0.639049 0.0304,0.05117 0.0455,0.113011 0.0611,0.172646 0.0324,0.117981 0.0526,0.23946 0.0907,0.355968 0.0676,0.206329 0.14522,0.409713 0.22492,0.631135"
       style="fill:#21201d;fill-opacity:1;fill-rule:nonzero;stroke:none;stroke-width:0.184057"
       id="path588" />
  </g>
</svg>
