<?xml version="1.0" encoding="UTF-8" standalone="no"?>
<!-- Created with Inkscape (http://www.inkscape.org/) -->

<svg
   width="8.277564mm"
   height="8.1596813mm"
   viewBox="0 0 8.277564 8.1596813"
   version="1.1"
   id="svg1871"
   inkscape:version="1.1.2 (0a00cf5339, 2022-02-04)"
   sodipodi:docname="rm8.svg"
   xmlns:inkscape="http://www.inkscape.org/namespaces/inkscape"
   xmlns:sodipodi="http://sodipodi.sourceforge.net/DTD/sodipodi-0.dtd"
   xmlns="http://www.w3.org/2000/svg"
   xmlns:svg="http://www.w3.org/2000/svg">
  <sodipodi:namedview
     id="namedview1873"
     pagecolor="#ffffff"
     bordercolor="#666666"
     borderopacity="1.0"
     inkscape:pageshadow="2"
     inkscape:pageopacity="0.0"
     inkscape:pagecheckerboard="0"
     inkscape:document-units="mm"
     showgrid="false"
     inkscape:zoom="0.64052329"
     inkscape:cx="-1255.2237"
     inkscape:cy="690.84139"
     inkscape:window-width="2560"
     inkscape:window-height="1376"
     inkscape:window-x="0"
     inkscape:window-y="0"
     inkscape:window-maximized="1"
     inkscape:current-layer="layer1" />
  <defs
     id="defs1868">
    <clipPath
       clipPathUnits="userSpaceOnUse"
       id="clipPath256">
      <path
         d="M 783.184,33 H 829 v 46 h -45.816 z"
         id="path254" />
    </clipPath>
  </defs>
  <g
     inkscape:label="Layer 1"
     inkscape:groupmode="layer"
     id="layer1"
     transform="translate(-437.02395,34.234222)">
    <g
       id="g626"
       transform="matrix(0.18405616,0,0,0.18405792,292.77998,-40.479097)">
      <g
         clip-path="url(#clipPath256)"
         id="g624">
        <path
           d="m 791.445,55.094 c -0.152,0.554 -0.269,0.968 -0.422,1.508 0.461,0.086 0.809,0.21 1.153,0.199 0.738,-0.024 1.472,-0.133 2.215,-0.172 0.414,-0.024 0.82,0.008 1.152,-0.457 -0.023,-0.262 -0.047,-0.586 -0.082,-0.988 -1.332,-0.485 -2.633,0.109 -4.016,-0.09 m 13.387,-14.332 c -0.137,1.816 -0.371,3.531 -0.219,5.379 0.575,-0.036 1.063,-0.067 1.571,-0.094 0.226,-1.813 0.035,-3.477 -0.239,-5.207 -0.39,-0.028 -0.703,-0.047 -1.113,-0.078 m 1.469,31.363 c -0.129,-1.512 -0.242,-2.82 -0.36,-4.184 h -1.285 c -0.656,0.887 -0.586,1.934 -0.633,2.954 -0.019,0.351 0.028,0.707 0.043,1.011 0.442,0.09 0.766,0.18 1.094,0.211 0.317,0.035 0.645,0.008 1.141,0.008 M 795.293,49.227 c 1.492,-2.637 4.078,-4.231 6.848,-5.559 0.25,0.059 0.425,0.117 0.605,0.141 0.172,0.023 0.348,0.003 0.676,0.003 -0.102,-0.437 -0.188,-0.792 -0.274,-1.164 -0.41,0.114 -0.71,0.157 -0.98,0.274 -1.25,0.539 -2.496,1.098 -3.738,1.656 -1.133,0.508 -1.981,1.289 -2.426,2.477 -0.141,0.379 -0.301,0.785 -0.563,1.082 -0.832,0.929 -1.347,2.047 -1.839,3.156 -0.391,0.887 -0.735,1.863 -0.133,2.918 0.469,-0.035 0.929,-0.066 1.336,-0.094 -0.047,-0.871 -0.176,-1.613 -0.102,-2.336 0.074,-0.761 0.336,-1.508 0.59,-2.554 m 25.57,11.8 c -0.062,-0.914 0.184,-1.632 -0.273,-2.289 -0.055,1.09 -0.512,2.012 -1.082,2.86 -0.57,0.855 -0.981,1.808 -1.707,2.562 -0.688,0.719 -1.285,1.531 -1.989,2.235 -1.339,1.343 -2.882,2.296 -4.851,2.402 -0.555,0.027 -1.149,0.051 -1.637,0.281 -0.742,0.34 -1.461,0.406 -2.277,0.164 -0.067,0.508 -0.121,0.926 -0.184,1.41 0.633,0 1.145,0.032 1.653,-0.007 1.41,-0.098 2.738,-0.543 4.086,-0.95 1.457,-0.441 2.523,-1.351 3.539,-2.39 0.515,-0.528 1.039,-1.055 1.554,-1.586 0.227,-0.235 0.465,-0.461 0.641,-0.731 0.867,-1.332 1.711,-2.676 2.527,-3.961 M 794.055,57.32 c -0.567,0.051 -0.91,0.086 -1.196,0.114 -0.328,0.929 -0.496,1.754 -0.199,2.613 0.051,0.133 0.028,0.289 0.031,0.441 0.024,1.203 0.653,2.242 0.957,3.367 0.036,0.133 0.157,0.25 0.258,0.36 0.981,1.058 1.852,2.223 3.047,3.074 1.18,0.84 2.336,1.707 3.832,1.914 0.176,0.02 0.344,0.113 0.512,0.184 0.504,0.199 1.008,0.402 1.551,0.621 0.148,-0.426 0.261,-0.762 0.394,-1.145 -0.363,-0.199 -0.64,-0.379 -0.941,-0.508 -0.574,-0.253 -1.156,-0.476 -1.735,-0.714 -0.543,-0.227 -1.097,-0.434 -1.621,-0.7 -0.488,-0.246 -1.027,-0.476 -1.402,-0.859 -0.672,-0.68 -1.297,-1.426 -1.832,-2.219 -0.434,-0.633 -0.715,-1.371 -1.047,-2.074 -0.633,-1.351 -1.18,-2.727 -0.609,-4.469 m 16.066,-6.707 c 0.176,0.231 0.379,0.449 0.52,0.703 0.371,0.676 0.859,1.332 1.039,2.059 0.465,1.863 0.246,3.676 -0.696,5.129 -1.257,1.262 -2.668,1.113 -4.031,1.148 -2.281,-0.703 -3.164,-1.609 -2.781,-3.269 0.41,-0.41 0.949,-0.945 1.508,-1.504 -0.891,-0.02 -1.371,0.68 -1.828,1.234 -0.551,0.668 -1.024,1.461 -0.821,2.539 0.305,0.227 0.625,0.551 1.012,0.723 0.637,0.285 1.324,0.453 1.969,0.711 1.511,0.617 2.953,0.543 4.328,-0.375 0.183,-0.125 0.379,-0.223 0.574,-0.332 0.516,-0.274 0.875,-0.66 1.02,-1.25 0.175,-0.758 0.496,-1.484 0.586,-2.25 0.156,-1.379 0.078,-2.742 -0.829,-3.918 -0.336,-0.43 -0.668,-0.859 -0.984,-1.273 -0.238,-0.02 -0.422,-0.04 -0.605,-0.059 -0.286,-0.52 -0.778,-0.645 -1.313,-0.668 -1.543,-0.066 -3.09,-0.199 -4.633,-0.156 -0.781,0.023 -1.66,-0.02 -2.336,0.558 -0.898,0.77 -1.761,1.571 -2.422,2.567 -0.148,0.215 -0.289,0.433 -0.445,0.636 -0.949,1.207 -1.672,2.508 -1.816,4.082 -0.063,0.661 -0.133,1.352 -0.364,1.965 -0.464,1.235 -0.394,2.391 0.211,3.543 0.524,1 1.063,1.895 2.352,2.156 0.941,0.192 1.957,0.309 2.781,0.891 0.86,0.598 1.875,0.781 2.84,0.859 1.434,0.118 2.891,0.247 4.324,-0.144 1.215,-0.332 2.465,-0.563 3.653,-0.977 1.25,-0.425 2.179,-1.355 2.972,-2.382 0.387,-0.497 0.77,-1.02 1.028,-1.59 0.507,-1.125 1.343,-2.035 1.57,-3.371 0.332,-1.961 0.461,-3.879 0.273,-5.844 -0.121,-1.27 -0.617,-2.336 -1.398,-3.316 -0.934,-1.157 -1.805,-2.36 -2.746,-3.508 -0.293,-0.364 -0.758,-0.582 -1.074,-0.93 -0.43,-0.477 -1.036,-0.344 -1.543,-0.543 -1.305,-0.516 -2.621,-1.004 -3.789,-1.809 -0.196,-0.136 -0.434,-0.218 -0.668,-0.336 -0.618,0.711 0.019,1.512 -0.305,2.196 -0.074,0.148 0.07,0.422 0.168,0.617 0.055,0.117 0.211,0.187 0.348,0.297 1.082,-0.371 2.093,-0.106 3.152,0.183 1.777,0.481 3.137,1.438 4.125,2.961 0.262,0.407 0.519,0.813 0.769,1.227 0.782,1.285 1.414,2.676 1.5,4.156 0.086,1.422 0.168,2.887 -0.226,4.305 -0.207,0.746 -0.406,1.496 -0.613,2.258 -0.59,0.664 -1.2,1.312 -1.762,2 -1.02,1.23 -2.399,1.797 -3.887,2.136 -0.933,0.211 -1.898,0.325 -2.851,0.473 -2.789,0.434 -5.063,-0.57 -6.844,-2.648 -1.539,-1.793 -1.774,-3.989 -1.516,-6.262 0.004,-0.035 0.028,-0.066 0.039,-0.102 0.399,-1.074 0.778,-2.129 1.379,-3.136 0.824,-1.364 2.047,-2 3.461,-2.387 1.445,-0.402 2.942,-0.274 4.418,-0.168 0.406,0.027 0.805,0.129 1.207,0.195 m -15.562,24.754 c -1.028,-0.867 -2.141,-1.773 -3.211,-2.73 -0.575,-0.516 -1.082,-1.114 -1.621,-1.676 -0.157,-0.156 -0.286,-0.363 -0.473,-0.461 -1.215,-0.641 -1.836,-1.777 -2.531,-2.879 -0.762,-1.215 -1.262,-2.516 -1.586,-3.887 -0.168,-0.714 -0.254,-1.457 -0.297,-2.191 -0.031,-0.527 -0.117,-1 -0.305,-1.5 -0.347,-0.934 -0.605,-1.91 -0.789,-2.891 -0.152,-0.8 0.063,-1.566 0.32,-2.375 0.496,-1.57 1.176,-3.136 1,-4.589 0.282,-0.985 0.473,-1.731 0.719,-2.458 0.113,-0.343 0.289,-0.671 0.496,-0.964 0.657,-0.938 1.469,-1.758 1.77,-2.93 0.109,-0.426 0.488,-0.848 0.847,-1.137 0.848,-0.676 1.473,-1.496 2.106,-2.375 0.836,-1.156 1.73,-2.406 3.297,-2.769 0.172,-0.039 0.324,-0.18 0.484,-0.27 0.891,-0.488 1.754,-1.039 2.672,-1.453 0.816,-0.371 1.762,-0.477 2.66,-0.637 0.797,-0.148 1.613,-0.211 2.485,-0.32 0.656,-0.906 1.582,-1.121 2.675,-0.816 0.207,0.058 0.442,0.003 0.664,0.023 0.7,0.063 1.395,0.145 2.086,0.203 0.258,0.024 0.524,0.027 0.778,0.012 0.679,-0.051 1.34,-0.047 1.961,0.297 0.148,0.086 0.355,0.113 0.535,0.109 2.137,-0.043 3.867,0.902 5.418,2.246 0.816,0.707 1.695,1.196 2.851,1.156 0.18,0.207 0.368,0.434 0.563,0.657 0.773,0.883 1.453,1.836 2.406,2.586 0.668,0.519 1.039,1.418 1.547,2.144 0.512,0.727 0.965,1.508 1.562,2.16 0.938,1.028 1.317,2.207 1.262,3.625 0.934,1.293 0.973,2.957 1.582,4.438 -0.164,0.715 -0.328,1.433 -0.496,2.16 0.086,0.184 0.152,0.355 0.238,0.516 0.645,1.25 0.481,2.535 0.094,3.793 -0.289,0.914 -0.519,1.828 -0.719,2.765 -0.214,1 -0.543,2.024 -1.265,2.891 -0.66,0.797 -1.192,1.68 -2.028,2.336 -0.386,0.304 -0.671,0.801 -0.867,1.265 -0.347,0.829 -0.929,1.36 -1.652,1.864 -1.215,0.843 -2.332,1.816 -3.301,2.582 -0.426,0.644 -0.719,1.093 -0.91,1.383 -1.402,0.492 -2.715,0.55 -3.797,1.394 -0.461,0.359 -1.168,0.5 -1.781,0.566 -2.278,0.258 -4.528,0.762 -6.832,0.786 -0.18,0.004 -0.371,0.023 -0.535,0.089 -0.621,0.235 -1.215,0.188 -1.844,-0.031 -0.586,-0.203 -1.207,-0.297 -1.813,-0.426 -1.929,-0.406 -3.488,-1.773 -5.453,-2.086 -0.293,-0.046 -0.582,-0.113 -0.972,-0.195"
           style="fill:#21201d;fill-opacity:1;fill-rule:nonzero;stroke:none"
           id="path622" />
      </g>
    </g>
  </g>
</svg>
