<?xml version="1.0" encoding="UTF-8" standalone="no"?>
<!-- Created with Inkscape (http://www.inkscape.org/) -->

<svg
   width="8.3530951mm"
   height="8.3539534mm"
   viewBox="0 0 8.3530951 8.3539534"
   version="1.1"
   id="svg2050"
   inkscape:version="1.1.2 (0a00cf5339, 2022-02-04)"
   sodipodi:docname="rm9.svg"
   xmlns:inkscape="http://www.inkscape.org/namespaces/inkscape"
   xmlns:sodipodi="http://sodipodi.sourceforge.net/DTD/sodipodi-0.dtd"
   xmlns="http://www.w3.org/2000/svg"
   xmlns:svg="http://www.w3.org/2000/svg">
  <sodipodi:namedview
     id="namedview2052"
     pagecolor="#ffffff"
     bordercolor="#666666"
     borderopacity="1.0"
     inkscape:pageshadow="2"
     inkscape:pageopacity="0.0"
     inkscape:pagecheckerboard="0"
     inkscape:document-units="mm"
     showgrid="false"
     inkscape:zoom="0.64052329"
     inkscape:cx="455.87726"
     inkscape:cy="451.9742"
     inkscape:window-width="2560"
     inkscape:window-height="1376"
     inkscape:window-x="0"
     inkscape:window-y="0"
     inkscape:window-maximized="1"
     inkscape:current-layer="layer1" />
  <defs
     id="defs2047">
    <clipPath
       clipPathUnits="userSpaceOnUse"
       id="clipPath248">
      <path
         d="m 258.07,539 h 45.871 v 47 H 258.07 Z"
         id="path246" />
    </clipPath>
  </defs>
  <g
     inkscape:label="Layer 1"
     inkscape:groupmode="layer"
     id="layer1"
     transform="translate(15.742611,-28.86892)">
    <g
       id="g614"
       transform="matrix(0.18405616,0,0,0.18405792,-63.29833,-70.465165)">
      <g
         clip-path="url(#clipPath248)"
         id="g612">
        <path
           d="m 287.648,568.348 -0.011,-0.02 c -0.614,0.582 -1.188,1.211 -1.848,1.734 -0.617,0.497 -0.871,1.106 -0.812,1.844 0.05,0.778 0.171,1.547 0.257,2.246 0.243,0.379 0.422,0.707 0.645,1.004 0.41,0.555 0.758,1.207 1.285,1.617 0.984,0.754 2.16,0.875 3.379,0.641 1.406,-0.269 2.547,-0.961 3.539,-1.973 1.125,-1.156 2.133,-2.367 2.496,-3.988 -0.34,-1.469 -0.91,-2.777 -1.945,-3.922 -1.231,-1.355 -3.262,-1.961 -5.024,-1.41 -1.035,0.328 -1.968,0.77 -2.664,1.559 -0.449,0.031 -0.832,0.09 -1.3,-0.168 0.5,-0.289 0.882,-0.492 1.253,-0.719 1.297,-0.809 2.067,-1.898 1.786,-3.508 -0.055,-0.324 -0.235,-0.633 -0.258,-0.953 -0.028,-0.465 -0.09,-0.988 0.086,-1.387 0.855,-1.953 0.836,-3.832 -0.16,-5.734 -0.77,-1.457 -2.051,-2.035 -3.559,-2.289 -0.27,-0.047 -0.539,-0.063 -0.813,-0.09 -0.007,-0.055 -0.015,-0.109 -0.023,-0.164 0.43,-0.18 0.859,-0.363 1.242,-0.52 0.965,-1.05 1.449,-2.253 1.789,-3.57 0.289,-1.144 0.028,-2.148 -0.441,-3.117 -0.344,-0.699 -0.891,-1.301 -1.656,-1.59 -0.762,-0.289 -1.539,-0.531 -2.137,-0.73 -2.59,0.156 -4.949,0.453 -6.613,1.91 -1.121,1.855 -0.825,3.566 -0.758,5.234 0.59,0.871 0.875,1.914 1.726,2.586 0.836,0.664 1.895,0.813 2.887,1.195 -1.062,0.301 -1.453,1.172 -1.922,2.079 -1.769,-0.336 -3.34,0.167 -4.816,1.132 -1.551,1.008 -2.242,2.489 -2.574,4.309 0.144,0.426 0.312,0.93 0.515,1.527 -0.258,-0.027 -0.469,-0.015 -0.656,-0.07 -1.063,-0.313 -2.117,-0.203 -3.184,-0.027 -1.531,0.246 -2.593,1.183 -3.539,2.3 -0.16,0.188 -0.218,0.473 -0.277,0.723 -0.086,0.359 -0.191,0.727 -0.164,1.082 0.051,0.727 0.012,1.535 0.316,2.16 1.004,2.086 2.301,3.965 4.407,5.043 1.851,0.176 3.441,-0.39 4.847,-1.445 1.379,-1.043 1.949,-2.539 2.113,-4.215 -0.128,-0.492 -0.253,-0.98 -0.417,-1.633 1.191,0.594 2.308,0.551 3.464,0.434 0.27,0.39 0.485,0.844 0.821,1.168 0.336,0.324 0.785,0.531 1.199,0.769 1.66,0.953 3.301,0.95 4.906,0 0.574,-0.34 1.145,-0.687 1.762,-1.054 z m 0.872,-27.77 c 1.484,1.02 2.937,2.027 4.507,3.11 1.176,-0.106 2.016,0.585 2.696,1.617 0.422,0.644 0.886,1.261 1.617,1.644 0.312,0.16 0.609,0.469 0.769,0.785 0.75,1.457 1.715,2.754 2.746,4.02 0.657,0.805 1.106,1.719 1.157,2.808 0.023,0.461 0.273,0.903 0.41,1.356 0.242,0.773 0.48,1.547 0.719,2.324 0.156,0.524 0.308,1.051 0.504,1.719 -0.137,0.598 -0.309,1.355 -0.489,2.16 0.645,0.984 0.676,2.063 0.535,3.25 -0.121,1.031 -0.589,1.938 -0.73,2.953 -0.133,0.981 -0.496,1.93 -0.758,2.891 -0.019,0.07 -0.035,0.148 -0.082,0.207 -0.836,1.066 -1.289,2.406 -2.445,3.258 -0.449,0.336 -0.828,0.882 -1.024,1.41 -0.25,0.676 -0.699,1.129 -1.218,1.539 -1.075,0.848 -2.223,1.605 -3.243,2.512 -0.597,0.527 -1,1.265 -1.531,1.957 -1.258,0.414 -2.683,0.515 -3.914,1.3 -0.508,0.325 -1.156,0.508 -1.762,0.598 -2.234,0.328 -4.48,0.582 -6.722,0.871 -0.688,0.086 -1.352,0.348 -2.071,0.117 -0.789,-0.254 -1.593,-0.472 -2.402,-0.66 -1.379,-0.324 -2.574,-1.058 -3.84,-1.64 -0.426,-0.2 -0.89,-0.418 -1.441,-0.098 -0.856,-0.609 -1.723,-1.231 -2.594,-1.84 -1.086,-0.754 -2.016,-1.695 -2.965,-2.605 -0.558,-0.532 -1.031,-1.153 -1.613,-1.657 -0.527,-0.468 -0.996,-0.937 -1.32,-1.582 -0.332,-0.66 -0.782,-1.257 -1.145,-1.906 -0.672,-1.203 -0.949,-2.539 -1.191,-3.879 -0.102,-0.57 -0.032,-1.176 -0.102,-1.754 -0.062,-0.468 -0.09,-0.992 -0.617,-1.215 -0.106,-1.484 -0.816,-2.871 -0.508,-4.441 0.762,-1.422 1.035,-3.039 1.285,-4.68 0.133,-0.867 0.442,-1.703 0.625,-2.566 0.262,-1.231 0.895,-2.25 1.696,-3.191 0.226,-0.27 0.39,-0.625 0.488,-0.969 0.199,-0.696 0.512,-1.289 1.09,-1.758 0.953,-0.781 1.703,-1.715 2.363,-2.781 0.539,-0.875 1.305,-1.641 2.324,-2.125 1.324,-0.633 2.633,-1.313 3.875,-2.117 0.516,-0.336 1.262,-0.34 1.914,-0.454 1.121,-0.195 2.25,-0.363 3.418,-0.546 0.317,-0.649 0.91,-0.852 1.567,-0.829 1.25,0.055 2.504,0.137 3.754,0.258 0.828,0.078 1.66,-0.078 2.496,0.199 0.765,0.25 1.597,0.301 2.398,0.426 0.219,0.031 0.449,0.004 0.774,0.004"
           style="fill:#21201d;fill-opacity:1;fill-rule:nonzero;stroke:none"
           id="path592" />
        <path
           d="m 269.594,564.035 c 0.781,0.762 1.457,1.418 2.039,1.988 0.238,0.762 0.433,1.391 0.66,2.129 -0.176,0.879 -0.883,1.516 -1.863,2.028 0.914,0.152 0.914,0.152 1.832,-0.453 0.929,-1.434 0.789,-2.883 0.136,-4.379 0.2,0.043 0.309,0.039 0.325,0.074 0.519,1.074 0.773,2.223 0.695,3.41 -0.035,0.582 -0.234,1.156 -0.422,1.715 -0.461,1.402 -2.473,2.351 -3.922,2.031 -1.98,-0.433 -3.664,-2.137 -4.133,-4.152 -0.437,-1.899 0.934,-3.906 2.852,-4.164 0.578,-0.078 1.16,-0.145 1.801,-0.227"
           style="fill:#21201d;fill-opacity:1;fill-rule:nonzero;stroke:none"
           id="path594" />
        <path
           d="m 282.867,552.68 c -0.465,0.582 -0.855,0.293 -1.238,0.25 -0.367,-0.039 -0.746,-0.008 -1.039,-0.008 -1.93,-0.949 -4.004,-1.652 -3.973,-4.508 0.078,-0.238 0.238,-0.73 0.403,-1.226 0.957,-1.696 2.542,-2.368 4.394,-2.563 1.301,-0.141 2.434,0.105 3.969,1.742 0.082,0.531 0.254,1.149 0.25,1.77 0,0.586 -0.184,1.164 -0.297,1.812 -0.199,0.246 -0.43,0.528 -0.688,0.848 -0.437,0.176 -0.925,0.351 -1.394,0.558 -1.063,0.473 -2.125,0.219 -3.156,-0.062 -0.551,-0.148 -0.879,-0.645 -0.985,-1.25 -0.066,-0.379 -0.179,-0.754 -0.269,-1.129 -0.082,0 -0.156,0 -0.239,0.004 -0.105,0.398 -0.207,0.797 -0.328,1.262 0.868,1.922 2.461,2.593 4.59,2.5"
           style="fill:#21201d;fill-opacity:1;fill-rule:nonzero;stroke:none"
           id="path596" />
        <path
           d="m 287.648,568.348 c 0.032,-0.102 0.063,-0.207 0.086,-0.293 1.465,-0.489 2.918,-0.875 4.586,-0.477 0.645,0.453 1.442,0.914 1.883,1.801 0.402,0.809 0.442,1.582 0.27,2.465 -0.301,1.535 -1.231,2.562 -2.403,3.453 -0.238,0.18 -0.468,0.359 -0.734,0.566 -1.395,0.235 -2.77,0.168 -4.125,-0.75 -0.266,-1 -1.145,-1.898 -0.863,-3.383 0.386,-0.582 0.89,-1.343 1.41,-2.117 0.918,-0.226 1.687,-1.062 2.863,-0.789 0.414,0.285 0.899,0.625 1.426,0.988 0.16,-0.48 -0.172,-0.789 -0.281,-1.171 -1.231,-0.688 -2.461,-0.809 -3.793,-0.153 -0.071,-0.031 -0.203,-0.097 -0.336,-0.16 z"
           style="fill:#21201d;fill-opacity:1;fill-rule:nonzero;stroke:none"
           id="path598" />
        <path
           d="m 277.336,566.062 c -0.188,0.118 -0.336,0.211 -0.441,0.282 -2.086,-0.668 -3.051,-2.149 -3.301,-4.258 0.121,-0.801 0.918,-1.203 1.492,-1.875 -0.676,-0.281 -1.059,0.187 -1.371,0.328 -1.121,1.145 -0.762,2.469 -0.758,3.941 -1.109,-2.804 -0.723,-5.464 2.117,-6.605 1.34,-0.09 1.34,-0.09 2.145,0.352 0.093,0.285 0.203,0.597 0.32,0.957 -0.086,0.156 -0.195,0.347 -0.293,0.531 0.336,0.773 0.668,1.539 0.984,2.254 -0.453,0.754 -0.886,1.472 -1.273,2.113 0.137,0.707 0.25,1.285 0.379,1.98"
           style="fill:#21201d;fill-opacity:1;fill-rule:nonzero;stroke:none"
           id="path600" />
        <path
           d="m 285.539,557.992 c 0.734,-0.875 0.492,-1.566 0.184,-2.383 -0.481,-0.39 -0.993,-0.984 -1.637,-1.281 -0.633,-0.297 -1.402,-0.293 -2.184,-0.433 0.153,-0.172 0.266,-0.305 0.36,-0.407 1.05,0.293 2.058,0.582 2.836,0.801 2.105,1.18 2.851,2.805 2.422,5.02 -0.008,0.011 -0.09,0.086 -0.172,0.156 -0.082,0.078 -0.16,0.152 -0.282,0.258 -1.769,-1.957 -3.804,-1.11 -5.929,-0.539 -0.664,-0.711 -1.383,-1.489 -2.145,-2.309 0.172,-0.301 0.352,-0.609 0.531,-0.926 1.028,-0.344 1.961,-0.945 3.094,-0.847 0.332,0.027 0.668,0.023 0.996,0.078 1.004,0.152 1.582,0.718 1.774,1.722 0.054,0.286 0.078,0.575 0.152,1.09"
           style="fill:#21201d;fill-opacity:1;fill-rule:nonzero;stroke:none"
           id="path602" />
        <path
           d="m 286.934,562.488 c 0.839,0.817 0.347,1.598 0.187,2.332 -1.578,1.868 -1.641,1.907 -3.82,2.532 -0.856,-0.336 -1.082,-0.536 -1.699,-1.485 0.296,-0.746 0.589,-1.488 0.941,-2.371 1.426,-0.078 2.926,-0.355 4.391,-1.008"
           style="fill:#21201d;fill-opacity:1;fill-rule:nonzero;stroke:none"
           id="path604" />
        <path
           d="m 286.496,560.727 c -1.191,1.347 -2.648,1.691 -4.246,1.539 -0.266,-0.735 -0.496,-1.375 -0.723,-2.004 1.641,-0.817 3.274,-0.649 4.969,0.465"
           style="fill:#21201d;fill-opacity:1;fill-rule:nonzero;stroke:none"
           id="path606" />
        <path
           d="m 279.035,566.27 c -0.504,-1.461 -0.074,-2.559 0.453,-3.766 0.504,0.23 0.961,0.437 1.516,0.687 -0.117,0.567 -0.227,1.09 -0.352,1.7 -0.457,0.39 -0.953,0.812 -1.617,1.379"
           style="fill:#21201d;fill-opacity:1;fill-rule:nonzero;stroke:none"
           id="path608" />
        <path
           d="m 280.98,566.266 c 0.594,0.625 1.071,1.129 1.575,1.656 h 2.867 c -1.793,1.199 -4.481,0.797 -5.871,-0.867 0.488,-0.27 0.961,-0.532 1.429,-0.789"
           style="fill:#21201d;fill-opacity:1;fill-rule:nonzero;stroke:none"
           id="path610" />
      </g>
    </g>
  </g>
</svg>
