<?xml version="1.0" encoding="UTF-8" standalone="no"?>
<!-- Created with Inkscape (http://www.inkscape.org/) -->

<svg
   width="3.556mm"
   height="3.5558941mm"
   viewBox="0 0 3.556 3.5558941"
   version="1.1"
   id="svg1941"
   inkscape:version="1.1.2 (0a00cf5339, 2022-02-04)"
   sodipodi:docname="rset.svg"
   xmlns:inkscape="http://www.inkscape.org/namespaces/inkscape"
   xmlns:sodipodi="http://sodipodi.sourceforge.net/DTD/sodipodi-0.dtd"
   xmlns="http://www.w3.org/2000/svg"
   xmlns:svg="http://www.w3.org/2000/svg">
  <sodipodi:namedview
     id="namedview1943"
     pagecolor="#ffffff"
     bordercolor="#666666"
     borderopacity="1.0"
     inkscape:pageshadow="2"
     inkscape:pageopacity="0.0"
     inkscape:pagecheckerboard="0"
     inkscape:document-units="mm"
     showgrid="false"
     inkscape:zoom="0.64052329"
     inkscape:cx="774.36685"
     inkscape:cy="216.22945"
     inkscape:window-width="2560"
     inkscape:window-height="1376"
     inkscape:window-x="0"
     inkscape:window-y="0"
     inkscape:window-maximized="1"
     inkscape:current-layer="layer1" />
  <defs
     id="defs1938">
    <clipPath
       clipPathUnits="userSpaceOnUse"
       id="clipPath646">
      <path
         d="m 312,573.84 h 10.08 v 10.08 H 312 Z"
         id="path644" />
    </clipPath>
  </defs>
  <g
     inkscape:label="Layer 1"
     inkscape:groupmode="layer"
     id="layer1"
     transform="translate(100.08955,-91.16364)">
    <g
       id="g640"
       transform="matrix(0.35277777,0,0,-0.35277777,-210.15621,297.15753)">
      <g
         id="g642"
         clip-path="url(#clipPath646)">
        <g
           id="g648"
           transform="translate(320.776,578.2287)">
          <path
             d="m 0,0 c -0.001,-0.022 -0.009,-0.034 -0.012,-0.055 -0.005,-0.029 -10e-4,-0.058 -0.007,-0.088 -0.006,-0.029 -0.012,-0.056 -0.016,-0.084 -0.009,-0.05 -0.024,-0.085 -0.042,-0.127 -0.011,-0.026 -0.015,-0.051 -0.03,-0.075 -0.009,-0.014 -0.018,-0.025 -0.026,-0.04 -0.014,-0.025 -0.021,-0.078 -0.028,-0.01 0,0 0,0 -0.001,0 0,0.001 0,0.003 0,0.005 -0.002,0.006 -0.003,0.012 -0.002,0.019 0.001,-0.007 0.002,-0.014 0.002,-0.019 0,-0.002 0,-0.003 0.001,-0.005 0.014,0.004 0.021,0.033 0.027,0.049 0.015,0.035 0.032,0.064 0.039,0.103 0.012,0.072 0.04,0.149 0.04,0.222 0.001,0.029 0.003,0.051 0.009,0.08 0.007,0.039 0.002,0.083 0.002,0.123 0,0.08 0.023,0.156 0.022,0.236 -0.001,0.063 -0.02,0.115 -0.041,0.169 -0.02,0.05 -0.008,0.121 -0.032,0.164 -0.003,0.006 -0.011,0.006 -0.014,0.011 -0.014,0.017 -0.017,0.041 -0.02,0.064 -0.006,0.045 0.001,0.09 -0.001,0.135 -0.004,0.064 -0.018,0.13 -0.04,0.188 -0.014,0.034 -0.029,0.06 -0.046,0.092 -0.024,0.044 -0.034,0.088 -0.048,0.136 -0.026,0.086 -0.08,0.152 -0.106,0.237 -0.021,0.069 -0.055,0.129 -0.074,0.199 -0.017,0.061 -0.028,0.137 -0.07,0.183 -0.033,0.034 -0.075,0.037 -0.112,0.063 -0.047,0.033 -0.068,0.089 -0.113,0.121 -0.042,0.028 -0.059,0.071 -0.09,0.109 -0.041,0.051 -0.062,0.116 -0.095,0.174 -0.034,0.058 -0.075,0.098 -0.118,0.146 -0.049,0.056 -0.083,0.117 -0.141,0.162 -0.031,0.024 -0.062,0.045 -0.09,0.075 -0.02,0.022 -0.038,0.047 -0.064,0.059 -0.051,0.025 -0.097,0.039 -0.143,0.077 -0.038,0.031 -0.082,0.046 -0.119,0.08 -0.018,0.017 -0.041,0.046 -0.063,0.06 -0.03,0.019 -0.066,0.014 -0.099,0.026 -0.067,0.027 -0.128,0.08 -0.194,0.112 -0.049,0.024 -0.09,0.062 -0.124,0.108 -0.024,0.033 -0.063,0.06 -0.097,0.079 -0.055,0.032 -0.099,0.075 -0.15,0.114 -0.036,0.029 -0.076,0.032 -0.115,0.051 -0.05,0.024 -0.096,0.057 -0.146,0.076 -0.065,0.025 -0.134,0.037 -0.194,0.074 -0.064,0.039 -0.117,0.099 -0.185,0.128 -0.021,0.009 -0.043,0.014 -0.064,0.024 -0.029,0.013 -0.053,0.038 -0.083,0.049 -0.059,0.02 -0.121,0.014 -0.181,0.014 -0.131,0 -0.263,0 -0.394,0 -0.061,0 -0.121,0 -0.182,0 -0.027,0 -0.063,0.009 -0.089,-0.004 C -3.985,3.876 -4.005,3.853 -4.033,3.842 -4.053,3.833 -4.07,3.835 -4.09,3.83 -4.113,3.824 -4.118,3.814 -4.135,3.796 -4.171,3.756 -4.223,3.768 -4.269,3.768 c -0.053,0 -0.106,0 -0.16,0 -0.051,0 -0.113,0.01 -0.163,-0.002 C -4.616,3.76 -4.635,3.739 -4.658,3.729 -4.679,3.72 -4.7,3.719 -4.72,3.709 -4.761,3.689 -4.802,3.656 -4.84,3.629 -4.932,3.565 -5.049,3.51 -5.159,3.532 -5.179,3.536 -5.199,3.545 -5.219,3.541 -5.238,3.538 -5.255,3.525 -5.275,3.519 -5.317,3.507 -5.357,3.501 -5.397,3.48 -5.445,3.454 -5.486,3.415 -5.536,3.391 -5.592,3.363 -5.644,3.329 -5.693,3.289 -5.719,3.268 -5.736,3.249 -5.767,3.238 -5.806,3.225 -5.849,3.227 -5.889,3.227 -5.943,3.226 -5.998,3.236 -6.05,3.215 -6.081,3.203 -6.104,3.192 -6.137,3.19 -6.157,3.188 -6.173,3.186 -6.192,3.178 -6.24,3.159 -6.275,3.121 -6.311,3.08 -6.336,3.051 -6.354,3.019 -6.373,2.985 -6.394,2.949 -6.409,2.929 -6.436,2.901 -6.464,2.871 -6.487,2.839 -6.518,2.812 -6.55,2.784 -6.573,2.751 -6.603,2.718 -6.633,2.684 -6.67,2.662 -6.697,2.624 -6.733,2.572 -6.793,2.576 -6.828,2.524 -6.855,2.484 -6.893,2.452 -6.917,2.41 -6.941,2.369 -6.978,2.356 -7.01,2.323 -7.038,2.294 -7.064,2.257 -7.088,2.223 -7.119,2.177 -7.166,2.137 -7.189,2.085 -7.209,2.041 -7.218,1.962 -7.267,1.947 c 0.01,0.003 -0.045,0 -0.044,10e-4 C -7.33,1.93 -7.318,1.884 -7.319,1.859 -7.321,1.813 -7.348,1.765 -7.363,1.722 -7.375,1.69 -7.379,1.665 -7.386,1.631 -7.394,1.596 -7.414,1.573 -7.429,1.543 -7.478,1.441 -7.526,1.324 -7.536,1.206 -7.539,1.167 -7.53,1.123 -7.539,1.085 -7.544,1.06 -7.557,1.043 -7.559,1.016 c 0,0 0,0 0,-0.001 0,-0.003 0.001,-0.007 0.001,-0.012 0,-0.006 -0.001,-0.01 -0.002,-0.014 0,-0.02 10e-4,-0.041 10e-4,-0.06 V 0.796 c 0,-0.013 0,-0.027 0.001,-0.041 0,0.031 -0.015,0.064 -0.02,0.095 -0.005,0.033 0.005,0.047 0.009,0.077 0.002,0.014 -0.001,0.025 0.002,0.038 0.002,0.01 0.005,0.017 0.007,0.024 0,0.009 0,0.018 10e-4,0.026 -0.002,0.009 -0.006,0.015 -0.008,0.026 -0.005,0.02 0.001,0.039 -0.002,0.059 -0.009,0.069 -0.023,0.15 -0.009,0.22 0.003,0.017 0.014,0.031 0.017,0.048 0.003,0.013 0,0.024 0.002,0.037 0.006,0.035 0.025,0.065 0.036,0.097 0.009,0.029 0.013,0.062 0.025,0.09 0.006,0.015 0.019,0.025 0.025,0.039 0.004,0.011 0.002,0.029 0.004,0.04 0.005,0.043 0.018,0.082 0.019,0.126 0,0.06 0.036,0.12 0.065,0.168 0.014,0.022 0.028,0.025 0.042,0.043 0.012,0.015 0.014,0.03 0.026,0.047 0.023,0.034 0.042,0.066 0.063,0.102 0.011,0.018 0.014,0.023 0.021,0.042 0.01,0.026 0.016,0.049 0.034,0.072 0.027,0.036 0.054,0.07 0.077,0.112 0.016,0.031 0.038,0.057 0.053,0.089 0.024,0.055 0.05,0.106 0.085,0.154 0.021,0.028 0.048,0.044 0.07,0.073 0.015,0.02 0.03,0.038 0.041,0.062 0.02,0.043 0.011,0.101 0.045,0.136 0.023,0.023 0.038,0.02 0.053,0.052 0.015,0.032 0.017,0.071 0.034,0.101 0.018,0.032 0.031,0.028 0.056,0.042 0.017,0.01 0.027,0.022 0.042,0.035 0.037,0.031 0.081,0.026 0.118,0.052 0.02,0.014 0.035,0.038 0.056,0.049 0.033,0.019 0.064,10e-4 0.097,0.013 0.027,0.01 0.024,0.035 0.042,0.053 0.02,0.023 0.028,0.019 0.055,0.024 0.044,0.009 0.062,0.06 0.108,0.061 0.019,10e-4 0.047,-0.009 0.064,0 0.019,0.011 0.025,0.039 0.045,0.051 0.014,0.009 0.021,0.009 0.035,0.011 0.04,0.006 0.059,0.022 0.093,0.048 0.059,0.045 0.123,0.011 0.186,0.039 0.053,0.023 0.096,0.058 0.152,0.073 0.025,0.007 0.036,0.018 0.059,0.029 0.024,0.012 0.039,0.013 0.067,0.012 0.03,0 0.064,-0.005 0.095,-10e-4 0.029,0.004 0.05,0.027 0.077,0.039 0.021,0.009 0.043,0.012 0.063,0.024 0.027,0.016 0.034,0.038 0.056,0.061 0.025,0.027 0.043,0.025 0.072,0.037 0.023,0.01 0.035,0.022 0.056,0.038 0.045,0.037 0.094,0.015 0.141,0.039 0.029,0.016 0.053,0.035 0.085,0.044 0.039,0.01 0.077,10e-4 0.115,0.01 0.018,0.004 0.033,0.016 0.051,0.021 0.029,0.008 0.066,0.004 0.095,0.003 0.031,-0.002 0.06,-0.013 0.091,-0.015 0.028,-0.001 0.04,0.011 0.066,0.021 0.03,0.013 0.065,0.006 0.097,0.005 0.036,-10e-4 0.051,0.005 0.083,0.023 0.054,0.031 0.129,0.015 0.188,0.015 0.048,0 0.093,0.013 0.142,0.013 0.054,-0.001 0.105,0.023 0.16,0.026 0.057,0.002 0.117,0.002 0.174,0 C -3.484,4.041 -3.42,3.999 -3.348,3.983 -3.287,3.97 -3.213,3.978 -3.152,3.991 -3.105,4.001 -3.06,3.984 -3.013,3.982 -2.952,3.979 -2.882,3.926 -2.83,3.896 -2.778,3.865 -2.714,3.864 -2.659,3.843 -2.597,3.819 -2.533,3.819 -2.474,3.784 -2.444,3.767 -2.42,3.743 -2.388,3.73 -2.352,3.714 -2.32,3.705 -2.286,3.683 -2.228,3.646 -2.189,3.585 -2.121,3.579 -2.054,3.573 -2.009,3.526 -1.947,3.503 -1.884,3.479 -1.814,3.488 -1.753,3.454 -1.666,3.407 -1.595,3.308 -1.528,3.23 -1.495,3.192 -1.464,3.151 -1.426,3.118 -1.376,3.076 -1.34,3.017 -1.287,2.979 -1.192,2.909 -1.096,2.842 -1.002,2.77 -0.943,2.725 -0.89,2.657 -0.843,2.596 c 0.032,-0.042 0.066,-0.081 0.101,-0.12 0.028,-0.033 0.056,-0.072 0.088,-0.1 0.052,-0.046 0.112,-0.077 0.162,-0.128 0.055,-0.056 0.095,-0.146 0.136,-0.217 0.018,-0.032 0.03,-0.057 0.03,-0.096 0,-0.042 0.001,-0.067 0.023,-0.103 C -0.287,1.807 -0.272,1.786 -0.261,1.758 -0.242,1.711 -0.235,1.667 -0.205,1.627 -0.183,1.599 -0.161,1.574 -0.144,1.541 -0.122,1.497 -0.118,1.454 -0.109,1.406 -0.097,1.339 -0.087,1.275 -0.068,1.209 -0.051,1.15 -0.061,1.097 -0.056,1.038 -0.053,1.01 -0.045,0.99 -0.033,0.965 -0.016,0.928 -0.013,0.902 -0.011,0.861 -0.009,0.815 0,0.774 -0.001,0.728 -0.001,0.66 0,0.593 -0.001,0.526 -0.001,0.499 0.004,0.479 0.008,0.452 0.016,0.396 0.009,0.343 0.002,0.287 -0.01,0.193 0.005,0.095 0,0 M -0.534,-0.083 C -0.54,-0.12 -0.535,-0.157 -0.536,-0.194 -0.537,-0.231 -0.543,-0.268 -0.553,-0.304 -0.564,-0.344 -0.591,-0.376 -0.612,-0.41 -0.63,-0.438 -0.66,-0.461 -0.673,-0.492 -0.687,-0.527 -0.667,-0.589 -0.695,-0.616 -0.709,-0.629 -0.727,-0.635 -0.74,-0.651 -0.754,-0.667 -0.763,-0.688 -0.776,-0.706 -0.805,-0.745 -0.838,-0.78 -0.866,-0.821 -0.91,-0.885 -0.933,-0.965 -0.931,-1.043 c 0.001,-0.037 0,-0.062 -0.021,-0.093 -0.027,-0.04 -0.064,-0.074 -0.102,-0.104 -0.027,-0.021 -0.052,-0.043 -0.074,-0.069 -0.027,-0.031 -0.04,-0.067 -0.063,-0.1 C -1.24,-1.483 -1.292,-1.56 -1.36,-1.617 -1.405,-1.654 -1.444,-1.693 -1.483,-1.735 -1.514,-1.768 -1.553,-1.781 -1.587,-1.809 -1.657,-1.865 -1.72,-1.927 -1.782,-1.99 -1.811,-2.019 -1.833,-2.052 -1.866,-2.078 -1.9,-2.105 -1.935,-2.133 -1.97,-2.159 -2.038,-2.21 -2.114,-2.264 -2.197,-2.286 c -0.038,-0.01 -0.08,-0.018 -0.119,-0.02 -0.046,-0.002 -0.091,0.005 -0.137,-0.002 -0.033,-0.005 -0.068,-0.008 -0.1,-0.017 -0.022,-0.006 -0.044,-0.009 -0.066,-0.012 -0.005,-0.006 -0.009,-0.011 -0.024,-0.013 l -0.074,-0.012 c -0.035,-0.011 -0.07,-0.024 -0.102,-0.039 -0.087,-0.04 -0.16,-0.021 -0.253,-0.017 l 0.355,0.056 c 0.019,0.006 0.038,0.013 0.057,0.018 0.014,0.003 0.028,0.005 0.041,0.007 0.003,0.003 0.005,0.006 0.009,0.009 0.014,0.013 0.027,0.016 0.047,0.022 0.07,0.023 0.133,0.07 0.2,0.102 0.066,0.031 0.135,0.059 0.192,0.104 0.069,0.054 0.147,0.087 0.215,0.144 0.033,0.027 0.058,0.061 0.09,0.089 0.03,0.025 0.061,0.047 0.09,0.074 0.058,0.055 0.121,0.09 0.166,0.156 0.024,0.034 0.046,0.039 0.074,0.066 0.024,0.023 0.041,0.055 0.059,0.083 0.036,0.057 0.073,0.113 0.107,0.171 0.032,0.053 0.04,0.117 0.067,0.173 0.016,0.033 0.035,0.062 0.043,0.098 0.008,0.036 0.021,0.052 0.042,0.081 0.015,0.021 0.029,0.044 0.04,0.068 0.011,0.025 0.01,0.057 0.024,0.08 0.013,0.022 0.031,0.029 0.04,0.054 0.013,0.036 0.019,0.075 0.028,0.112 0.008,0.036 0.027,0.066 0.032,0.103 0.004,0.035 0.007,0.071 0.011,0.106 0.006,0.042 0.022,0.077 0.023,0.12 0,0.038 -10e-4,0.075 -10e-4,0.113 0,0.051 -0.001,0.099 0.009,0.149 0.012,0.058 0.002,0.126 0.002,0.184 0,0.123 0.003,0.242 -0.025,0.363 -0.025,0.111 -0.061,0.22 -0.096,0.329 -0.014,0.044 -0.02,0.088 -0.036,0.132 -0.019,0.05 -0.045,0.103 -0.056,0.156 -0.008,0.04 -0.029,0.078 -0.046,0.118 C -1.287,1.266 -1.3,1.312 -1.316,1.356 -1.355,1.458 -1.423,1.545 -1.471,1.641 -1.516,1.729 -1.584,1.804 -1.646,1.88 -1.68,1.922 -1.719,1.968 -1.763,2 -1.802,2.029 -1.848,2.047 -1.886,2.08 -1.915,2.106 -1.946,2.121 -1.976,2.145 -1.998,2.162 -2.016,2.19 -2.041,2.201 -2.06,2.21 -2.082,2.214 -2.103,2.224 -2.133,2.24 -2.162,2.253 -2.193,2.265 -2.237,2.283 -2.27,2.32 -2.311,2.342 c -0.038,0.02 -0.076,0.04 -0.113,0.063 -0.084,0.053 -0.174,0.102 -0.266,0.14 -0.07,0.03 -0.132,0.064 -0.208,0.073 -0.045,0.005 -0.085,0.028 -0.128,0.04 -0.048,0.013 -0.095,0.026 -0.143,0.04 -0.032,0.011 -0.062,0.006 -0.094,0.013 -0.032,0.007 -0.057,0.02 -0.092,0.021 -0.031,10e-4 -0.058,0 -0.088,0.008 -0.047,0.012 -0.095,0.011 -0.141,0.026 -0.061,0.02 -0.103,0.032 -0.168,0.033 -0.041,10e-4 -0.078,0.009 -0.117,0.016 0,-0.013 0.001,-0.025 0.004,-0.036 0.01,-0.036 0.04,-0.07 0.052,-0.106 0.008,-0.027 0.014,-0.04 0.036,-0.06 0.018,-0.016 0.042,-0.029 0.059,-0.047 0.014,-0.015 0.022,-0.033 0.04,-0.047 C -3.659,2.503 -3.619,2.471 -3.59,2.47 -3.592,2.453 -3.615,2.445 -3.634,2.443 -3.636,2.436 -3.638,2.429 -3.64,2.422 -3.649,2.42 -3.658,2.418 -3.667,2.417 -3.669,2.396 -3.69,2.38 -3.699,2.362 -3.711,2.339 -3.724,2.31 -3.732,2.286 -3.741,2.255 -3.735,2.221 -3.736,2.189 -3.737,2.156 -3.73,2.128 -3.723,2.096 c 0.007,-0.034 0,-0.068 0.007,-0.102 0.018,-0.09 0.066,-0.166 0.128,-0.241 0.02,-0.024 0.042,-0.047 0.063,-0.07 0.017,-0.021 0.022,-0.046 0.039,-0.065 0.015,-0.016 0.035,-0.033 0.05,-0.052 0.02,-0.026 0.05,-0.063 0.079,-0.082 C -3.34,1.473 -3.313,1.471 -3.307,1.456 -3.298,1.435 -3.335,1.408 -3.345,1.391 -3.37,1.354 -3.388,1.309 -3.403,1.267 -3.42,1.221 -3.443,1.178 -3.456,1.131 -3.512,0.926 -3.44,0.716 -3.386,0.518 c 0.033,-0.125 0.094,-0.239 0.144,-0.36 0.021,-0.051 0.046,-0.098 0.07,-0.148 0.018,-0.038 0.046,-0.069 0.066,-0.106 0.022,-0.042 0.011,-0.08 -0.034,-0.113 -0.055,-0.042 -0.107,-0.093 -0.156,-0.141 -0.053,-0.051 -0.116,-0.098 -0.172,-0.15 -0.034,-0.032 -0.054,-0.067 -0.086,-0.1 -0.058,-0.059 -0.091,-0.129 -0.133,-0.195 -0.057,-0.09 -0.049,-0.181 -0.049,-0.28 0,-0.098 -0.009,-0.195 0.021,-0.291 0.009,-0.03 0.022,-0.057 0.029,-0.086 0,-0.001 0.013,-0.031 0.013,-0.029 0,-0.03 -0.003,-0.01 -0.026,-0.026 -0.05,-0.037 -0.101,-0.083 -0.135,-0.131 -0.055,-0.078 -0.069,-0.171 -0.103,-0.255 -0.019,-0.048 0.006,-0.103 -0.015,-0.149 -0.008,-0.016 -0.021,-0.026 -0.026,-0.044 -0.011,-0.033 -0.005,-0.066 -0.021,-0.099 10e-4,0.036 -0.01,0.058 -0.017,0.091 -0.01,0.047 0.004,0.097 -0.019,0.144 -0.007,0.014 -0.019,0.026 -0.025,0.042 -0.011,0.033 -0.024,0.065 -0.042,0.096 -0.021,0.038 -0.044,0.088 -0.077,0.117 -0.008,0.007 -0.02,0.011 -0.028,0.018 -0.018,0.016 -0.024,0.039 -0.038,0.056 -0.008,0.01 -0.021,0.016 -0.029,0.025 -0.01,0.012 -0.006,0.026 -0.019,0.038 -0.023,0.021 -0.034,0.008 -0.031,0.036 0,0.002 0.016,0.027 0.017,0.028 0.026,0.027 0.038,0.033 0.046,0.07 0.006,0.029 0.016,0.047 0.016,0.08 0,0.058 0.002,0.116 0.001,0.174 -0.002,0.071 -0.021,0.14 -0.038,0.21 -0.013,0.051 -0.011,0.104 -0.024,0.155 -0.008,0.035 -0.024,0.065 -0.034,0.099 -0.032,0.105 -0.092,0.201 -0.155,0.295 -0.026,0.039 -0.057,0.08 -0.108,0.102 -0.021,0.009 -0.058,0.025 -0.084,0.026 0.004,0.012 0.023,0.011 0.036,0.02 0.014,0.009 0.019,0.024 0.028,0.036 0.026,0.033 0.058,0.071 0.075,0.109 0.057,0.134 0.069,0.276 0.113,0.414 0.016,0.051 0.02,0.11 0.024,0.162 0.004,0.059 0.017,0.118 0.019,0.177 0.005,0.124 -0.01,0.241 -0.03,0.363 -0.006,0.034 -0.002,0.065 -0.013,0.097 -0.011,0.031 -0.025,0.062 -0.04,0.093 -0.024,0.048 -0.052,0.107 -0.099,0.144 -0.022,0.017 -0.077,0.022 -0.058,0.056 0.005,0.011 0.03,0.019 0.042,0.024 0.033,0.012 0.03,0.011 0.057,0.036 0.021,0.02 0.049,0.034 0.071,0.053 0.026,0.023 0.046,0.053 0.07,0.078 0.023,0.024 0.039,0.051 0.058,0.077 0.033,0.046 0.077,0.085 0.106,0.134 0.036,0.061 0.081,0.121 0.111,0.184 0.029,0.061 0.022,0.13 0.02,0.194 -10e-4,0.033 -0.009,0.053 -0.023,0.083 -0.009,0.019 -0.01,0.036 -0.02,0.054 -0.016,0.033 -0.044,0.059 -0.072,0.087 -0.019,0.02 -0.043,0.03 -0.032,0.059 0.009,0.024 0.034,0.051 0.044,0.076 0.023,0.054 0.072,0.094 0.127,0.127 0.06,0.036 0.123,0.099 0.154,0.154 0.002,0.004 0.005,0.009 0.007,0.013 -0.069,0.009 -0.144,10e-4 -0.213,10e-4 -0.032,0 -0.065,0.002 -0.096,0 C -4.256,2.82 -4.28,2.797 -4.313,2.789 -4.346,2.782 -4.379,2.79 -4.412,2.782 -4.453,2.771 -4.498,2.758 -4.537,2.743 -4.567,2.731 -4.599,2.729 -4.624,2.707 -4.649,2.684 -4.672,2.662 -4.7,2.643 -4.727,2.624 -4.753,2.609 -4.774,2.582 -4.798,2.551 -4.818,2.518 -4.846,2.489 -4.861,2.474 -4.876,2.458 -4.892,2.444 -4.91,2.429 -4.933,2.426 -4.951,2.414 -4.977,2.397 -4.993,2.367 -5.019,2.348 -5.038,2.333 -5.059,2.32 -5.077,2.304 -5.098,2.286 -5.115,2.264 -5.137,2.247 -5.157,2.23 -5.179,2.217 -5.198,2.199 -5.218,2.18 -5.23,2.17 -5.258,2.162 -5.306,2.149 -5.359,2.156 -5.405,2.141 -5.425,2.134 -5.442,2.12 -5.463,2.114 -5.484,2.108 -5.507,2.107 -5.528,2.101 -5.569,2.09 -5.604,2.071 -5.641,2.05 -5.676,2.029 -5.718,2.018 -5.752,1.996 -5.784,1.977 -5.816,1.943 -5.838,1.914 -5.859,1.886 -5.88,1.857 -5.9,1.829 -5.924,1.796 -5.93,1.756 -5.945,1.719 -5.967,1.666 -5.991,1.616 -6.013,1.562 -6.036,1.504 -6.067,1.449 -6.092,1.391 -6.116,1.335 -6.13,1.275 -6.159,1.221 -6.194,1.157 -6.232,1.094 -6.266,1.029 -6.281,1.001 -6.301,0.978 -6.317,0.951 -6.337,0.917 -6.367,0.894 -6.389,0.862 -6.414,0.823 -6.436,0.794 -6.468,0.759 -6.487,0.738 -6.506,0.717 -6.52,0.693 -6.555,0.63 -6.563,0.557 -6.578,0.489 -6.594,0.421 -6.616,0.354 -6.63,0.285 -6.637,0.256 -6.634,0.224 -6.637,0.194 -6.644,0.146 -6.656,0.099 -6.655,0.051 c 0.002,-0.072 -0.016,-0.137 -0.033,-0.205 -0.008,-0.029 -0.021,-0.057 -0.024,-0.087 -0.003,-0.035 0.007,-0.065 0.016,-0.098 0.026,-0.094 0.049,-0.185 0.089,-0.274 0.021,-0.046 0.04,-0.091 0.063,-0.136 0.014,-0.027 0.014,-0.051 0.013,-0.08 -0.001,-0.058 0.015,-0.091 0.047,-0.14 0.023,-0.034 0.042,-0.07 0.065,-0.103 0.036,-0.051 0.075,-0.101 0.106,-0.155 0.036,-0.061 0.072,-0.128 0.098,-0.194 0.008,-0.022 0.019,-0.042 0.031,-0.063 0.012,-0.02 0.026,-0.028 0.042,-0.045 0.037,-0.04 0.078,-0.074 0.118,-0.111 0.059,-0.054 0.102,-0.125 0.168,-0.173 0.037,-0.026 0.078,-0.045 0.115,-0.073 0.022,-0.017 0.044,-0.035 0.069,-0.048 0.041,-0.021 0.077,-0.049 0.122,-0.065 0.117,-0.04 0.209,-0.129 0.316,-0.189 0.05,-0.027 0.111,-0.037 0.154,-0.075 0.016,-0.014 0.033,-0.042 0.051,-0.052 0.011,-0.007 0.031,-0.007 0.044,-0.013 0.026,-0.011 0.052,-0.012 0.076,-0.03 0.032,-0.023 0.063,-0.041 0.1,-0.055 0.026,-0.01 0.054,-0.022 0.081,-0.027 0.021,-0.003 0.032,0.004 0.048,0.008 0.037,0.009 0.074,-0.004 0.111,-0.015 0.029,-0.009 0.061,-0.014 0.089,-0.027 0.034,-0.015 0.058,-0.034 0.096,-0.035 0.044,-10e-4 0.084,0.004 0.126,-0.007 0.02,-0.005 0.126,-0.021 0.126,-0.046 -0.029,-0.009 -0.068,-0.002 -0.099,-0.003 -0.042,0 -0.084,-0.002 -0.125,0.01 -0.054,0.017 -0.104,0.053 -0.159,0.067 -0.039,0.011 -0.085,0.021 -0.126,0.025 -0.051,0.007 -0.105,-0.008 -0.156,0 -0.029,0.005 -0.046,0.022 -0.076,0.023 -0.025,0 -0.045,-0.002 -0.069,0.005 -0.056,0.016 -0.112,0.033 -0.168,0.051 -0.025,0.008 -0.049,0.019 -0.073,0.027 -0.027,0.009 -0.056,0.01 -0.084,0.018 -0.052,0.014 -0.11,0.022 -0.159,0.044 -0.052,0.024 -0.104,0.043 -0.156,0.066 -0.022,0.01 -0.046,0.022 -0.069,0.028 -0.016,0.004 -0.032,0.006 -0.046,0.013 -0.025,0.012 -0.04,0.031 -0.068,0.038 -0.037,0.011 -0.058,0.02 -0.088,0.045 -0.023,0.019 -0.043,0.025 -0.071,0.036 -0.044,0.016 -0.074,0.039 -0.112,0.066 -0.034,0.024 -0.071,0.044 -0.105,0.07 -0.078,0.06 -0.181,0.08 -0.266,0.128 -0.03,0.017 -0.05,0.045 -0.067,0.074 -0.021,0.036 -0.047,0.053 -0.078,0.079 -0.012,0.011 -0.014,0.021 -0.024,0.032 -0.008,0.008 -0.02,0.016 -0.027,0.025 -0.012,0.013 -0.017,0.031 -0.029,0.045 -0.016,0.019 -0.032,0.033 -0.045,0.055 -0.016,0.029 -0.037,0.058 -0.059,0.082 -0.046,0.05 -0.083,0.101 -0.119,0.156 -0.02,0.028 -0.043,0.057 -0.056,0.09 -0.011,0.025 -0.02,0.054 -0.037,0.077 -0.017,0.024 -0.029,0.034 -0.039,0.062 -0.012,0.034 -0.034,0.058 -0.045,0.093 -0.009,0.028 -0.017,0.053 -0.023,0.082 -0.009,0.054 -0.023,0.08 -0.051,0.125 -0.034,0.056 -0.072,0.126 -0.078,0.192 -0.003,0.028 -0.017,0.042 -0.024,0.068 -0.006,0.022 0.003,0.048 0.012,0.068 0.009,0.018 0.008,0.027 0.013,0.047 0.007,0.025 0.021,0.034 0.021,0.062 0.001,0.039 -0.01,0.089 -0.001,0.127 0.007,0.028 0.047,0.067 0.071,0.081 0.05,0.03 0.066,0.052 0.065,0.11 0,0.056 0.002,0.113 0.001,0.169 -0.002,0.087 -0.054,0.187 -0.122,0.243 -0.057,0.049 -0.127,0.091 -0.126,0.172 0,0.022 0.001,0.027 0.011,0.047 0.014,0.027 0.011,0.05 0.011,0.081 0,0.069 0.042,0.125 0.081,0.179 0.021,0.029 0.049,0.051 0.066,0.084 0.017,0.032 0.031,0.065 0.05,0.097 0.018,0.03 0.031,0.06 0.051,0.089 0.02,0.029 0.045,0.062 0.06,0.094 0.043,0.089 -0.002,0.195 0.025,0.287 0.011,0.041 0.038,0.077 0.055,0.115 0.017,0.038 0.03,0.074 0.051,0.111 0.047,0.078 0.06,0.183 0.124,0.249 0.031,0.032 0.061,0.057 0.08,0.099 0.015,0.034 0.03,0.063 0.053,0.093 0.025,0.033 0.05,0.066 0.07,0.103 0.03,0.056 0.048,0.106 0.104,0.142 0.021,0.013 0.037,0.021 0.057,0.039 0.019,0.017 0.032,0.041 0.055,0.053 0.021,0.011 0.045,0.009 0.066,0.014 0.024,0.005 0.04,0.015 0.059,0.03 0.035,0.027 0.064,0.058 0.088,0.094 0.023,0.036 0.039,0.078 0.068,0.11 0.049,0.053 0.116,0.099 0.184,0.12 0.089,0.029 0.178,0.056 0.264,0.095 0.029,0.013 0.052,0.034 0.082,0.046 0.041,0.015 0.08,0.006 0.122,0.012 0.049,0.008 0.098,0.014 0.147,0.023 0.077,0.014 0.148,0.05 0.224,0.063 0.069,0.012 0.136,0.021 0.205,0.037 0.062,0.015 0.127,0.003 0.189,0.023 0.028,0.01 0.05,0.026 0.08,0.031 0.029,0.005 0.06,-10e-4 0.089,0.003 0.026,0.004 0.045,0.014 0.069,0.021 0.044,0.014 0.082,0.01 0.128,0.011 0.098,0.002 0.188,0.055 0.287,0.057 0.072,0.002 0.145,0.002 0.217,0 0.091,-0.002 0.159,-0.023 0.236,-0.072 0.067,-0.043 0.141,-0.062 0.213,-0.093 0.052,-0.023 0.096,-0.061 0.149,-0.082 0.048,-0.019 0.103,-0.023 0.155,-0.03 0.081,-0.009 0.154,-0.022 0.231,-0.048 0.051,-0.016 0.09,-0.04 0.138,-0.061 C -2.551,2.964 -2.521,2.955 -2.493,2.94 -2.474,2.93 -2.451,2.909 -2.429,2.902 -2.38,2.886 -2.33,2.87 -2.28,2.854 c 0.069,-0.021 0.135,-0.025 0.2,-0.058 0.044,-0.022 0.091,-0.033 0.135,-0.055 0.051,-0.025 0.098,-0.06 0.147,-0.089 0.046,-0.028 0.095,-0.048 0.14,-0.077 0.057,-0.037 0.114,-0.078 0.163,-0.125 0.065,-0.062 0.122,-0.126 0.194,-0.179 0.103,-0.077 0.212,-0.15 0.302,-0.243 0.015,-0.016 0.034,-0.032 0.045,-0.052 0.01,-0.017 0.01,-0.031 0.013,-0.05 0.007,-0.04 0.026,-0.065 0.043,-0.102 0.016,-0.037 0.039,-0.081 0.052,-0.119 0.011,-0.037 0.008,-0.082 0.014,-0.121 0.005,-0.028 0.004,-0.054 0.011,-0.082 0.009,-0.04 0.015,-0.079 0.015,-0.12 C -0.807,1.339 -0.807,1.296 -0.807,1.253 -0.808,1.201 -0.797,1.152 -0.796,1.101 -0.795,1.062 -0.774,1.039 -0.763,1.005 -0.754,0.975 -0.762,0.93 -0.762,0.9 c 0,-0.087 -0.001,-0.172 0.017,-0.258 0.009,-0.044 0.032,-0.081 0.044,-0.124 0.012,-0.042 0.027,-0.076 0.045,-0.117 0.052,-0.12 0.108,-0.249 0.129,-0.379 0.006,-0.037 -0.001,-0.069 -0.007,-0.105 m -3.202,5.774 c -2.784,0 -5.04,-2.256 -5.04,-5.04 0,-2.783 2.256,-5.04 5.04,-5.04 2.784,0 5.04,2.257 5.04,5.04 0,2.784 -2.256,5.04 -5.04,5.04"
             style="fill:#21201d;fill-opacity:1;fill-rule:nonzero;stroke:none"
             id="path650" />
        </g>
      </g>
    </g>
  </g>
</svg>
