<?xml version="1.0" encoding="UTF-8" standalone="no"?>
<!-- Created with Inkscape (http://www.inkscape.org/) -->

<svg
   width="3.4653373mm"
   height="3.0173821mm"
   viewBox="0 0 3.4653373 3.0173821"
   version="1.1"
   id="svg1758"
   inkscape:version="1.1.2 (0a00cf5339, 2022-02-04)"
   sodipodi:docname="tfa.svg"
   xmlns:inkscape="http://www.inkscape.org/namespaces/inkscape"
   xmlns:sodipodi="http://sodipodi.sourceforge.net/DTD/sodipodi-0.dtd"
   xmlns="http://www.w3.org/2000/svg"
   xmlns:svg="http://www.w3.org/2000/svg">
  <sodipodi:namedview
     id="namedview1760"
     pagecolor="#ffffff"
     bordercolor="#666666"
     borderopacity="1.0"
     inkscape:pageshadow="2"
     inkscape:pageopacity="0.0"
     inkscape:pagecheckerboard="0"
     inkscape:document-units="mm"
     showgrid="false"
     inkscape:zoom="0.64052329"
     inkscape:cx="-1095.9789"
     inkscape:cy="603.41288"
     inkscape:window-width="2560"
     inkscape:window-height="1376"
     inkscape:window-x="0"
     inkscape:window-y="0"
     inkscape:window-maximized="1"
     inkscape:current-layer="layer1" />
  <defs
     id="defs1755">
    <clipPath
       clipPathUnits="userSpaceOnUse"
       id="clipPath622">
      <path
         d="m 312,588.96 h 10.08 v 10.08 H 312 Z"
         id="path620" />
    </clipPath>
  </defs>
  <g
     inkscape:label="Layer 1"
     inkscape:groupmode="layer"
     id="layer1"
     transform="translate(-394.81809,11.009391)">
    <g
       id="g616"
       transform="matrix(0.35277777,0,0,-0.35277777,284.70963,199.99359)">
      <g
         id="g618"
         clip-path="url(#clipPath622)">
        <g
           id="g624"
           transform="translate(316.9256,596.6025)">
          <path
             d="M 0,0 C 0,-0.04 -0.008,-0.085 0.003,-0.124 0.016,-0.17 0.055,-0.213 0.07,-0.261 0.08,-0.295 0.089,-0.312 0.116,-0.338 0.139,-0.359 0.171,-0.376 0.192,-0.398 0.211,-0.419 0.221,-0.441 0.244,-0.46 0.269,-0.481 0.321,-0.521 0.359,-0.523 0.356,-0.545 0.327,-0.555 0.302,-0.558 0.299,-0.567 0.296,-0.576 0.293,-0.586 0.282,-0.588 0.271,-0.59 0.259,-0.592 0.256,-0.619 0.23,-0.639 0.218,-0.662 0.202,-0.692 0.185,-0.73 0.175,-0.761 0.162,-0.801 0.17,-0.845 0.17,-0.886 c -0.001,-0.043 0.008,-0.079 0.016,-0.12 0.01,-0.045 0,-0.088 0.009,-0.133 C 0.219,-1.255 0.28,-1.354 0.361,-1.45 0.387,-1.481 0.416,-1.51 0.442,-1.541 0.464,-1.568 0.471,-1.6 0.493,-1.625 0.512,-1.646 0.537,-1.668 0.557,-1.693 0.583,-1.726 0.622,-1.774 0.66,-1.799 0.681,-1.813 0.716,-1.815 0.725,-1.835 0.735,-1.861 0.689,-1.897 0.675,-1.918 0.642,-1.966 0.62,-2.025 0.6,-2.078 0.578,-2.138 0.548,-2.194 0.531,-2.255 0.459,-2.519 0.552,-2.791 0.622,-3.048 0.665,-3.21 0.744,-3.357 0.809,-3.513 0.835,-3.579 0.867,-3.64 0.898,-3.704 0.922,-3.753 0.958,-3.794 0.984,-3.842 1.013,-3.896 0.998,-3.945 0.941,-3.988 0.869,-4.041 0.802,-4.108 0.738,-4.17 0.67,-4.237 0.588,-4.297 0.516,-4.364 0.472,-4.405 0.447,-4.451 0.405,-4.493 0.33,-4.569 0.287,-4.66 0.233,-4.745 0.159,-4.863 0.17,-4.98 0.17,-5.107 c 0,-0.127 -0.012,-0.253 0.027,-0.377 0.012,-0.038 0.027,-0.074 0.037,-0.111 0,-0.001 0.017,-0.041 0.017,-0.038 0,-0.039 -0.004,-0.012 -0.033,-0.034 C 0.153,-5.714 0.087,-5.773 0.043,-5.835 -0.029,-5.937 -0.046,-6.057 -0.09,-6.166 -0.115,-6.228 -0.083,-6.298 -0.11,-6.358 -0.12,-6.379 -0.137,-6.392 -0.144,-6.415 -0.157,-6.458 -0.15,-6.5 -0.171,-6.543 c 0.002,0.046 -0.012,0.075 -0.021,0.117 -0.014,0.062 0.005,0.126 -0.025,0.187 -0.009,0.017 -0.025,0.033 -0.032,0.054 -0.015,0.043 -0.031,0.084 -0.054,0.124 -0.028,0.049 -0.058,0.114 -0.101,0.152 -0.009,0.009 -0.026,0.014 -0.036,0.023 -0.023,0.021 -0.031,0.05 -0.049,0.072 -0.011,0.013 -0.027,0.02 -0.038,0.033 -0.012,0.015 -0.007,0.033 -0.024,0.049 -0.03,0.026 -0.044,0.01 -0.04,0.047 0.001,10e-4 0.021,0.033 0.022,0.035 0.033,0.036 0.049,0.043 0.059,0.091 0.008,0.037 0.022,0.061 0.021,0.103 0,0.075 0.003,0.151 0.001,0.226 -0.003,0.092 -0.027,0.181 -0.049,0.27 -0.017,0.067 -0.014,0.135 -0.03,0.202 -0.011,0.044 -0.032,0.084 -0.045,0.127 -0.041,0.136 -0.119,0.26 -0.2,0.382 -0.034,0.051 -0.074,0.104 -0.139,0.132 -0.027,0.011 -0.076,0.032 -0.109,0.034 0.005,0.015 0.029,0.014 0.046,0.025 0.018,0.012 0.024,0.031 0.037,0.047 0.034,0.043 0.075,0.092 0.096,0.141 0.074,0.173 0.09,0.357 0.146,0.536 0.021,0.065 0.026,0.142 0.031,0.209 0.005,0.077 0.022,0.153 0.025,0.229 0.007,0.16 -0.013,0.312 -0.039,0.47 -0.007,0.043 -0.002,0.083 -0.017,0.125 -0.014,0.04 -0.032,0.081 -0.051,0.12 -0.031,0.062 -0.067,0.139 -0.128,0.186 -0.029,0.022 -0.1,0.028 -0.076,0.073 0.008,0.014 0.04,0.024 0.055,0.03 0.042,0.017 0.038,0.015 0.073,0.047 0.028,0.026 0.065,0.045 0.093,0.069 0.034,0.03 0.059,0.068 0.09,0.101 0.029,0.031 0.05,0.066 0.074,0.1 0.044,0.059 0.101,0.109 0.138,0.172 0.047,0.079 0.106,0.157 0.144,0.239 0.037,0.079 0.028,0.168 0.026,0.251 -0.001,0.043 -0.012,0.069 -0.031,0.107 -0.011,0.024 -0.013,0.047 -0.024,0.07 -0.022,0.042 -0.058,0.076 -0.094,0.113 -0.024,0.025 -0.056,0.039 -0.041,0.076 0.012,0.03 0.043,0.065 0.057,0.098 0.029,0.069 0.092,0.122 0.164,0.164 0.077,0.046 0.158,0.128 0.199,0.199 0.03,0.054 0.061,0.109 0.069,0.169 C 0.025,0.069 0.046,0.053 0,0"
             style="fill:#231f20;fill-opacity:1;fill-rule:nonzero;stroke:none"
             id="path626" />
        </g>
        <g
           id="g628"
           transform="translate(318.5081,589.8453)">
          <path
             d="m 0,0 c 0.028,0.004 0.028,0.015 0.043,0.029 0.018,0.017 0.035,0.021 0.06,0.029 0.091,0.029 0.173,0.09 0.26,0.131 0.085,0.04 0.174,0.076 0.249,0.135 0.088,0.07 0.189,0.113 0.277,0.185 0.043,0.036 0.075,0.08 0.117,0.115 0.039,0.034 0.079,0.062 0.116,0.097 0.074,0.071 0.156,0.116 0.215,0.201 0.03,0.044 0.058,0.052 0.095,0.086 C 1.464,1.037 1.486,1.079 1.508,1.115 1.555,1.189 1.602,1.262 1.647,1.337 1.688,1.406 1.699,1.488 1.734,1.56 1.754,1.602 1.778,1.641 1.789,1.687 1.8,1.734 1.816,1.755 1.843,1.792 1.863,1.819 1.882,1.849 1.895,1.88 1.909,1.912 1.909,1.953 1.926,1.983 1.943,2.011 1.967,2.021 1.979,2.053 1.995,2.1 2.003,2.149 2.014,2.197 2.025,2.244 2.049,2.283 2.055,2.331 2.061,2.377 2.064,2.423 2.07,2.469 2.078,2.523 2.099,2.568 2.099,2.624 2.1,2.672 2.098,2.72 2.098,2.769 2.098,2.835 2.097,2.898 2.11,2.962 2.125,3.037 2.113,3.125 2.113,3.2 2.113,3.359 2.116,3.513 2.081,3.669 2.048,3.813 2.001,3.954 1.956,4.095 1.938,4.152 1.93,4.209 1.909,4.266 1.885,4.331 1.852,4.399 1.837,4.467 1.826,4.52 1.799,4.568 1.778,4.62 1.754,4.677 1.738,4.737 1.716,4.794 1.667,4.925 1.579,5.037 1.516,5.162 1.458,5.276 1.37,5.372 1.29,5.471 1.246,5.525 1.195,5.585 1.139,5.626 1.088,5.664 1.029,5.687 0.98,5.73 0.943,5.763 0.901,5.783 0.863,5.814 0.834,5.836 0.812,5.872 0.78,5.887 0.754,5.898 0.726,5.903 0.699,5.916 0.66,5.936 0.623,5.953 0.583,5.969 0.526,5.992 0.483,6.04 0.43,6.068 0.38,6.095 0.331,6.12 0.284,6.15 0.175,6.219 0.059,6.282 -0.06,6.332 -0.151,6.371 -0.231,6.414 -0.33,6.425 -0.388,6.432 -0.439,6.462 -0.495,6.477 -0.557,6.494 -0.618,6.51 -0.679,6.53 c -0.042,0.013 -0.08,0.007 -0.122,0.016 -0.042,0.009 -0.074,0.026 -0.119,0.027 -0.041,10e-4 -0.075,0 -0.114,0.01 C -1.095,6.599 -1.157,6.598 -1.216,6.617 -1.295,6.643 -1.349,6.658 -1.434,6.66 -1.499,6.661 -1.555,6.676 -1.619,6.686 -1.714,6.702 -1.82,6.689 -1.916,6.689 -1.957,6.689 -2,6.692 -2.041,6.69 -2.086,6.687 -2.117,6.657 -2.16,6.647 -2.202,6.638 -2.245,6.648 -2.288,6.637 -2.34,6.624 -2.398,6.606 -2.449,6.587 -2.487,6.572 -2.53,6.569 -2.562,6.541 -2.594,6.511 -2.623,6.483 -2.66,6.457 -2.695,6.433 -2.729,6.414 -2.755,6.38 -2.786,6.339 -2.812,6.296 -2.848,6.259 -2.868,6.239 -2.887,6.218 -2.908,6.201 -2.932,6.181 -2.961,6.178 -2.984,6.162 -3.018,6.14 -3.038,6.101 -3.072,6.076 -3.097,6.057 -3.124,6.04 -3.148,6.019 -3.175,5.996 -3.196,5.968 -3.224,5.945 -3.251,5.924 -3.279,5.907 -3.304,5.884 -3.33,5.859 -3.346,5.846 -3.381,5.836 -3.443,5.819 -3.512,5.828 -3.572,5.808 -3.598,5.8 -3.62,5.781 -3.646,5.774 -3.673,5.766 -3.703,5.765 -3.73,5.757 -3.783,5.743 -3.829,5.718 -3.876,5.691 -3.923,5.664 -3.976,5.649 -4.021,5.622 -4.062,5.597 -4.104,5.553 -4.132,5.515 -4.159,5.479 -4.186,5.441 -4.212,5.405 -4.242,5.362 -4.25,5.311 -4.27,5.263 -4.298,5.194 -4.33,5.129 -4.357,5.06 -4.388,4.984 -4.427,4.913 -4.46,4.838 -4.491,4.767 -4.509,4.688 -4.546,4.619 -4.592,4.536 -4.641,4.455 -4.685,4.371 -4.704,4.335 -4.73,4.304 -4.751,4.269 -4.777,4.226 -4.816,4.196 -4.844,4.154 -4.877,4.104 -4.905,4.066 -4.947,4.021 -4.971,3.994 -4.996,3.967 -5.014,3.935 -5.059,3.855 -5.069,3.76 -5.089,3.672 -5.109,3.584 -5.137,3.497 -5.156,3.409 -5.164,3.371 -5.161,3.329 -5.165,3.291 -5.174,3.229 -5.189,3.168 -5.188,3.105 -5.186,3.013 -5.208,2.929 -5.231,2.841 -5.241,2.803 -5.258,2.766 -5.262,2.728 -5.266,2.683 -5.252,2.644 -5.241,2.601 -5.208,2.48 -5.178,2.362 -5.126,2.247 c 0.027,-0.059 0.052,-0.118 0.082,-0.175 0.018,-0.036 0.017,-0.067 0.016,-0.105 -0.001,-0.074 0.02,-0.118 0.062,-0.18 0.029,-0.044 0.053,-0.091 0.083,-0.134 0.046,-0.065 0.097,-0.131 0.137,-0.2 0.046,-0.079 0.093,-0.165 0.126,-0.251 0.011,-0.029 0.025,-0.054 0.041,-0.081 0.016,-0.026 0.033,-0.036 0.054,-0.058 0.048,-0.052 0.101,-0.096 0.154,-0.144 0.075,-0.07 0.131,-0.162 0.216,-0.223 0.048,-0.035 0.102,-0.059 0.148,-0.095 0.029,-0.022 0.058,-0.045 0.09,-0.062 0.053,-0.028 0.099,-0.064 0.158,-0.084 0.151,-0.053 0.27,-0.167 0.409,-0.244 0.064,-0.036 0.143,-0.049 0.199,-0.098 0.021,-0.018 0.043,-0.054 0.065,-0.067 0.015,-0.009 0.041,-0.01 0.058,-0.017 0.034,-0.015 0.067,-0.016 0.098,-0.039 0.042,-0.03 0.081,-0.052 0.13,-0.071 0.033,-0.013 0.069,-0.029 0.105,-0.034 0.027,-0.005 0.04,0.005 0.061,0.01 0.048,0.011 0.096,-0.006 0.143,-0.021 0.038,-0.011 0.08,-0.017 0.116,-0.033 0.044,-0.02 0.074,-0.044 0.124,-0.046 0.056,-0.001 0.108,0.004 0.163,-0.01 0.025,-0.006 0.162,-0.026 0.163,-0.059 -0.038,-0.011 -0.088,-0.003 -0.128,-0.003 -0.055,0 -0.109,-0.004 -0.162,0.013 -0.07,0.022 -0.134,0.068 -0.205,0.087 -0.051,0.013 -0.111,0.026 -0.163,0.032 -0.066,0.008 -0.137,-0.011 -0.202,0 -0.038,0.006 -0.059,0.028 -0.099,0.029 -0.032,0.001 -0.058,-0.003 -0.089,0.006 -0.073,0.021 -0.145,0.044 -0.218,0.066 -0.031,0.01 -0.062,0.025 -0.094,0.035 C -3.32,0.003 -3.357,0.005 -3.392,0.014 -3.46,0.033 -3.535,0.043 -3.599,0.072 -3.666,0.103 -3.733,0.127 -3.8,0.157 -3.829,0.17 -3.859,0.185 -3.89,0.193 -3.91,0.198 -3.931,0.201 -3.949,0.21 -3.981,0.226 -4.001,0.25 -4.037,0.259 -4.085,0.273 -4.111,0.285 -4.15,0.318 -4.18,0.343 -4.207,0.35 -4.243,0.363 -4.3,0.384 -4.339,0.415 -4.387,0.449 -4.432,0.481 -4.48,0.506 -4.524,0.54 c -0.1,0.077 -0.233,0.103 -0.343,0.166 -0.039,0.022 -0.065,0.058 -0.087,0.095 -0.028,0.047 -0.061,0.068 -0.101,0.103 -0.016,0.013 -0.018,0.026 -0.031,0.04 -0.01,0.011 -0.026,0.022 -0.035,0.033 -0.015,0.017 -0.022,0.039 -0.037,0.058 -0.021,0.025 -0.042,0.042 -0.058,0.071 -0.022,0.037 -0.048,0.075 -0.077,0.107 -0.059,0.064 -0.108,0.13 -0.154,0.2 -0.025,0.038 -0.055,0.075 -0.073,0.117 -0.013,0.033 -0.026,0.07 -0.047,0.1 -0.022,0.031 -0.038,0.044 -0.051,0.081 -0.015,0.044 -0.043,0.074 -0.058,0.119 -0.012,0.037 -0.022,0.069 -0.029,0.107 -0.012,0.069 -0.03,0.102 -0.066,0.161 -0.044,0.073 -0.094,0.163 -0.102,0.248 -0.003,0.037 -0.022,0.055 -0.03,0.088 -0.007,0.029 0.003,0.063 0.016,0.088 0.011,0.023 0.01,0.035 0.017,0.061 0.008,0.033 0.026,0.044 0.027,0.08 0,0.05 -0.014,0.116 -0.002,0.164 0.009,0.037 0.061,0.087 0.092,0.105 0.065,0.039 0.085,0.067 0.084,0.142 0,0.073 0.002,0.146 10e-4,0.219 -0.002,0.113 -0.07,0.242 -0.157,0.315 -0.075,0.062 -0.165,0.117 -0.164,0.221 0,0.03 10e-4,0.036 0.014,0.061 0.018,0.036 0.014,0.066 0.014,0.106 0,0.088 0.055,0.161 0.106,0.23 0.027,0.038 0.063,0.067 0.085,0.109 0.022,0.043 0.04,0.084 0.065,0.126 0.023,0.038 0.04,0.077 0.065,0.115 0.026,0.038 0.058,0.08 0.078,0.121 0.055,0.116 -0.002,0.253 0.032,0.372 0.015,0.052 0.049,0.099 0.071,0.148 0.022,0.05 0.039,0.097 0.067,0.144 0.06,0.101 0.077,0.237 0.159,0.322 0.041,0.042 0.08,0.074 0.104,0.128 0.02,0.044 0.039,0.082 0.068,0.12 0.033,0.043 0.066,0.086 0.092,0.134 0.038,0.072 0.062,0.137 0.134,0.183 0.027,0.018 0.048,0.027 0.073,0.05 0.025,0.022 0.043,0.053 0.072,0.07 0.027,0.014 0.058,0.011 0.085,0.017 0.031,0.007 0.052,0.02 0.077,0.04 0.045,0.034 0.082,0.074 0.113,0.121 0.03,0.047 0.051,0.101 0.088,0.142 0.063,0.069 0.15,0.128 0.238,0.156 0.116,0.036 0.23,0.072 0.341,0.122 0.038,0.017 0.068,0.044 0.107,0.059 0.052,0.02 0.104,0.008 0.157,0.017 0.063,0.009 0.127,0.018 0.19,0.029 0.1,0.018 0.192,0.064 0.291,0.082 0.089,0.016 0.176,0.026 0.264,0.047 0.081,0.019 0.165,0.004 0.245,0.031 0.036,0.012 0.065,0.033 0.103,0.039 0.038,0.006 0.078,-10e-4 0.115,0.004 0.034,0.005 0.059,0.018 0.089,0.028 0.057,0.018 0.107,0.011 0.166,0.013 0.127,0.003 0.243,0.072 0.372,0.075 0.093,0.001 0.187,0.001 0.279,-10e-4 C -1.251,7.387 -1.164,7.36 -1.064,7.296 -0.977,7.24 -0.881,7.216 -0.788,7.175 -0.721,7.146 -0.665,7.097 -0.596,7.07 -0.533,7.045 -0.462,7.04 -0.395,7.031 -0.291,7.019 -0.197,7.002 -0.096,6.969 -0.03,6.948 0.02,6.917 0.082,6.89 0.119,6.873 0.158,6.861 0.195,6.842 0.219,6.829 0.248,6.802 0.277,6.793 0.341,6.772 0.406,6.752 0.47,6.731 0.559,6.703 0.645,6.699 0.729,6.656 0.786,6.628 0.847,6.612 0.903,6.585 0.969,6.552 1.031,6.507 1.093,6.47 1.153,6.434 1.216,6.408 1.274,6.37 1.348,6.321 1.422,6.269 1.486,6.208 1.569,6.129 1.643,6.046 1.736,5.976 1.869,5.877 2.011,5.782 2.126,5.662 2.146,5.642 2.171,5.621 2.185,5.596 2.198,5.573 2.198,5.555 2.202,5.53 2.211,5.479 2.236,5.446 2.257,5.398 2.278,5.351 2.308,5.294 2.324,5.244 2.339,5.198 2.335,5.138 2.343,5.089 2.349,5.052 2.348,5.019 2.357,4.982 2.369,4.931 2.376,4.88 2.376,4.828 2.375,4.772 2.375,4.716 2.375,4.66 2.374,4.593 2.388,4.53 2.389,4.463 2.39,4.413 2.418,4.383 2.431,4.339 2.444,4.3 2.434,4.243 2.434,4.203 2.434,4.091 2.431,3.981 2.455,3.87 2.467,3.813 2.497,3.766 2.513,3.71 2.528,3.655 2.547,3.611 2.57,3.559 2.637,3.403 2.71,3.236 2.738,3.068 2.746,3.021 2.736,2.979 2.728,2.932 2.721,2.885 2.727,2.837 2.726,2.789 2.725,2.741 2.717,2.693 2.704,2.646 2.69,2.595 2.654,2.554 2.627,2.509 2.604,2.473 2.565,2.444 2.549,2.404 2.53,2.358 2.556,2.278 2.52,2.243 2.502,2.226 2.479,2.218 2.462,2.198 2.444,2.177 2.433,2.15 2.415,2.127 2.377,2.076 2.335,2.031 2.299,1.979 2.242,1.896 2.213,1.791 2.215,1.69 2.216,1.643 2.214,1.611 2.188,1.571 2.152,1.518 2.105,1.475 2.055,1.436 2.021,1.409 1.988,1.381 1.959,1.347 1.925,1.307 1.908,1.26 1.879,1.217 1.815,1.122 1.748,1.022 1.659,0.949 1.602,0.901 1.551,0.851 1.5,0.796 1.461,0.753 1.411,0.736 1.366,0.7 1.276,0.628 1.195,0.548 1.114,0.466 1.077,0.429 1.048,0.386 1.006,0.353 0.961,0.318 0.916,0.281 0.871,0.247 0.783,0.181 0.685,0.112 0.577,0.083 0.529,0.071 0.474,0.06 0.423,0.058 0.364,0.055 0.305,0.063 0.247,0.055 0.204,0.049 0.159,0.044 0.117,0.033 0.071,0.021 0.024,0.019 -0.021,0.008 -0.091,-0.01 -0.163,-0.036 -0.227,-0.066 -0.339,-0.117 -0.434,-0.093 -0.554,-0.087"
             style="fill:#231f20;fill-opacity:1;fill-rule:nonzero;stroke:none"
             id="path630" />
        </g>
        <g
           id="g632"
           transform="translate(321.7151,592.2967)">
          <path
             d="m 0,0 c -0.002,-0.011 -0.001,-0.021 0.003,-0.031 0.018,0.004 0.027,0.042 0.035,0.063 0.019,0.046 0.042,0.083 0.05,0.134 0.016,0.093 0.052,0.192 0.053,0.286 0,0.038 0.004,0.067 0.011,0.103 0.009,0.052 0.003,0.108 0.003,0.161 0,0.103 0.03,0.201 0.029,0.305 C 0.182,1.102 0.157,1.17 0.13,1.239 0.105,1.304 0.12,1.395 0.089,1.451 0.084,1.459 0.075,1.459 0.07,1.465 0.053,1.488 0.049,1.519 0.045,1.548 0.037,1.606 0.046,1.664 0.043,1.722 0.038,1.805 0.021,1.89 -0.009,1.966 -0.026,2.01 -0.045,2.044 -0.068,2.085 -0.099,2.142 -0.111,2.198 -0.13,2.26 -0.163,2.372 -0.233,2.457 -0.267,2.567 -0.294,2.657 -0.337,2.734 -0.363,2.825 -0.385,2.904 -0.398,3.002 -0.453,3.061 -0.495,3.105 -0.55,3.11 -0.598,3.143 -0.659,3.185 -0.685,3.258 -0.745,3.299 -0.798,3.335 -0.82,3.391 -0.861,3.44 -0.914,3.506 -0.94,3.591 -0.984,3.665 -1.028,3.74 -1.08,3.792 -1.135,3.854 c -0.064,0.072 -0.108,0.152 -0.183,0.21 -0.041,0.031 -0.08,0.058 -0.117,0.097 -0.025,0.027 -0.048,0.06 -0.082,0.076 -0.067,0.032 -0.125,0.05 -0.185,0.099 -0.049,0.04 -0.106,0.06 -0.154,0.104 -0.024,0.022 -0.053,0.06 -0.082,0.078 -0.039,0.024 -0.085,0.017 -0.127,0.034 -0.087,0.034 -0.167,0.103 -0.252,0.144 -0.063,0.031 -0.116,0.081 -0.16,0.14 -0.032,0.042 -0.082,0.077 -0.125,0.102 -0.072,0.041 -0.128,0.096 -0.194,0.148 -0.048,0.036 -0.099,0.041 -0.15,0.065 -0.064,0.031 -0.123,0.073 -0.189,0.099 -0.083,0.032 -0.172,0.047 -0.25,0.095 -0.083,0.051 -0.151,0.129 -0.24,0.166 -0.026,0.011 -0.055,0.018 -0.081,0.031 -0.039,0.017 -0.069,0.049 -0.109,0.063 -0.076,0.026 -0.156,0.019 -0.234,0.019 -0.169,-10e-4 -0.339,0 -0.509,0 -0.078,0 -0.157,-10e-4 -0.235,0 -0.036,0 -0.082,0.011 -0.116,-0.006 C -4.942,5.601 -4.968,5.572 -5.004,5.557 -5.03,5.546 -5.052,5.549 -5.078,5.542 -5.108,5.534 -5.114,5.522 -5.136,5.497 -5.183,5.446 -5.25,5.461 -5.309,5.461 c -0.069,0 -0.138,0 -0.207,0 -0.067,0 -0.146,0.014 -0.211,-0.002 C -5.759,5.451 -5.783,5.424 -5.813,5.411 -5.839,5.399 -5.867,5.398 -5.893,5.385 -5.945,5.359 -5.999,5.317 -6.049,5.282 -6.167,5.199 -6.318,5.128 -6.46,5.156 -6.487,5.161 -6.512,5.174 -6.539,5.168 -6.563,5.164 -6.585,5.147 -6.61,5.14 -6.664,5.124 -6.717,5.117 -6.768,5.089 -6.831,5.055 -6.883,5.005 -6.948,4.974 -7.02,4.938 -7.087,4.893 -7.152,4.841 -7.185,4.815 -7.207,4.79 -7.247,4.776 -7.298,4.759 -7.353,4.762 -7.405,4.761 -7.474,4.761 -7.546,4.774 -7.613,4.747 -7.653,4.731 -7.683,4.717 -7.725,4.714 -7.752,4.711 -7.771,4.708 -7.796,4.698 -7.858,4.673 -7.904,4.624 -7.951,4.571 -7.983,4.534 -8.006,4.493 -8.031,4.449 -8.057,4.403 -8.077,4.377 -8.112,4.34 -8.148,4.302 -8.178,4.26 -8.217,4.225 -8.26,4.189 -8.29,4.146 -8.327,4.104 -8.367,4.06 -8.415,4.031 -8.449,3.982 -8.496,3.914 -8.574,3.919 -8.619,3.852 -8.654,3.801 -8.703,3.759 -8.734,3.706 -8.766,3.652 -8.813,3.635 -8.854,3.593 -8.89,3.555 -8.924,3.507 -8.955,3.463 -8.996,3.404 -9.056,3.352 -9.086,3.284 -9.112,3.228 -9.123,3.126 -9.187,3.106 -9.174,3.11 -9.245,3.106 -9.243,3.108 -9.269,3.085 -9.253,3.025 -9.254,2.993 -9.256,2.933 -9.291,2.871 -9.311,2.815 -9.326,2.774 -9.332,2.742 -9.341,2.698 -9.351,2.653 -9.377,2.623 -9.396,2.584 -9.46,2.453 -9.521,2.301 -9.535,2.149 -9.539,2.097 -9.527,2.041 -9.538,1.991 -9.545,1.959 -9.562,1.937 -9.565,1.903 -9.568,1.866 -9.564,1.827 -9.564,1.789 V 1.618 c 0,-0.017 0,-0.035 0,-0.053 10e-4,0.04 -0.019,0.083 -0.025,0.122 -0.007,0.043 0.006,0.061 0.012,0.101 0.002,0.017 -0.002,0.031 0.002,0.049 0.004,0.019 0.012,0.027 0.012,0.048 0,0.022 -0.007,0.03 -0.012,0.049 -0.006,0.027 10e-4,0.051 -0.002,0.078 -0.012,0.088 -0.03,0.192 -0.012,0.284 0.004,0.022 0.017,0.04 0.022,0.061 0.004,0.017 0,0.032 0.002,0.048 0.008,0.046 0.032,0.084 0.047,0.126 0.012,0.037 0.017,0.08 0.033,0.117 0.008,0.019 0.024,0.032 0.032,0.05 0.005,0.014 0.003,0.037 0.005,0.052 0.007,0.056 0.024,0.105 0.024,0.162 10e-4,0.078 0.047,0.156 0.085,0.218 0.017,0.028 0.035,0.032 0.054,0.055 0.016,0.02 0.018,0.039 0.033,0.061 0.03,0.044 0.055,0.085 0.082,0.132 0.014,0.023 0.018,0.029 0.027,0.054 0.013,0.034 0.022,0.063 0.044,0.093 0.035,0.047 0.07,0.091 0.099,0.145 0.022,0.04 0.05,0.074 0.069,0.116 0.032,0.071 0.065,0.136 0.11,0.198 0.027,0.037 0.063,0.057 0.091,0.095 0.019,0.026 0.039,0.05 0.053,0.08 0.026,0.056 0.014,0.131 0.058,0.175 0.03,0.031 0.049,0.027 0.068,0.068 0.02,0.041 0.022,0.092 0.044,0.131 0.023,0.041 0.041,0.036 0.073,0.054 0.021,0.013 0.035,0.029 0.055,0.046 0.047,0.039 0.103,0.034 0.152,0.067 0.025,0.018 0.045,0.049 0.072,0.064 0.043,0.023 0.084,0 0.126,0.016 0.035,0.013 0.031,0.045 0.054,0.069 0.026,0.029 0.037,0.024 0.071,0.031 0.058,0.011 0.081,0.077 0.14,0.079 0.024,0.001 0.06,-0.012 0.082,0 0.025,0.014 0.033,0.049 0.059,0.065 0.018,0.012 0.027,0.012 0.045,0.015 0.052,0.007 0.077,0.029 0.12,0.061 0.077,0.058 0.159,0.015 0.241,0.051 0.068,0.029 0.124,0.075 0.196,0.095 0.033,0.009 0.047,0.023 0.076,0.037 0.032,0.016 0.052,0.016 0.087,0.016 0.04,-0.001 0.084,-0.006 0.123,-0.002 0.038,0.005 0.065,0.036 0.1,0.051 0.027,0.012 0.056,0.015 0.081,0.03 0.035,0.021 0.045,0.05 0.073,0.08 0.032,0.035 0.056,0.032 0.093,0.047 0.03,0.013 0.046,0.029 0.072,0.05 0.059,0.048 0.122,0.019 0.182,0.051 0.038,0.02 0.069,0.044 0.111,0.056 0.05,0.013 0.099,0.001 0.148,0.013 0.023,0.006 0.043,0.021 0.066,0.027 0.037,0.011 0.086,0.006 0.124,0.004 0.04,-0.002 0.077,-0.016 0.116,-0.019 0.037,-0.002 0.053,0.013 0.086,0.027 0.04,0.016 0.084,0.008 0.125,0.006 0.047,-10e-4 0.067,0.006 0.108,0.03 0.07,0.041 0.167,0.019 0.244,0.02 0.061,0 0.12,0.016 0.182,0.016 0.071,-10e-4 0.137,0.03 0.208,0.033 0.074,0.004 0.151,0.004 0.225,0 0.097,-0.004 0.179,-0.059 0.273,-0.079 0.079,-0.017 0.175,-0.006 0.253,0.01 0.062,0.013 0.119,-0.009 0.18,-0.012 0.078,-0.003 0.169,-0.072 0.237,-0.112 0.067,-0.039 0.149,-0.04 0.221,-0.068 0.08,-0.03 0.163,-0.031 0.239,-0.076 0.039,-0.022 0.07,-0.053 0.111,-0.07 0.046,-0.02 0.088,-0.032 0.132,-0.061 0.075,-0.048 0.126,-0.126 0.213,-0.134 0.088,-0.007 0.145,-0.068 0.225,-0.099 0.082,-0.031 0.172,-0.019 0.252,-0.062 0.112,-0.061 0.204,-0.19 0.29,-0.29 0.043,-0.05 0.083,-0.103 0.132,-0.145 0.065,-0.054 0.112,-0.13 0.18,-0.18 0.123,-0.09 0.248,-0.177 0.369,-0.27 0.076,-0.059 0.145,-0.147 0.205,-0.225 0.042,-0.054 0.086,-0.104 0.13,-0.155 0.038,-0.043 0.073,-0.093 0.115,-0.13 0.067,-0.06 0.145,-0.1 0.209,-0.165 0.072,-0.073 0.123,-0.189 0.176,-0.281 0.023,-0.041 0.039,-0.074 0.039,-0.124 0,-0.055 0.001,-0.086 0.03,-0.133 0.02,-0.032 0.039,-0.06 0.054,-0.096 C -0.102,2.801 -0.093,2.745 -0.053,2.693 -0.025,2.656 0.004,2.624 0.026,2.581 0.054,2.524 0.059,2.469 0.071,2.407 0.086,2.32 0.1,2.237 0.124,2.152 0.145,2.076 0.133,2.007 0.14,1.931 0.143,1.895 0.154,1.869 0.169,1.837 0.191,1.789 0.194,1.754 0.197,1.701 0.2,1.643 0.211,1.589 0.211,1.529 c 0,-0.086 0.001,-0.173 0,-0.26 C 0.21,1.233 0.217,1.207 0.222,1.173 0.232,1.1 0.223,1.031 0.214,0.96 0.199,0.838 0.219,0.711 0.212,0.588 0.21,0.56 0.201,0.544 0.196,0.517 0.19,0.479 0.195,0.442 0.187,0.403 0.179,0.367 0.172,0.331 0.166,0.294 0.155,0.23 0.136,0.185 0.112,0.13 0.098,0.097 0.092,0.065 0.074,0.034 0.062,0.015 0.049,0.001 0.039,-0.019 0.02,-0.054 0.011,-0.133 0,0"
             style="fill:#231f20;fill-opacity:1;fill-rule:nonzero;stroke:none"
             id="path634" />
        </g>
      </g>
    </g>
  </g>
</svg>
