<?xml version="1.0" encoding="UTF-8" standalone="no"?>
<!-- Created with Inkscape (http://www.inkscape.org/) -->

<svg
   width="6.4877095mm"
   height="6.66469mm"
   viewBox="0 0 6.4877095 6.66469"
   version="1.1"
   id="svg3137"
   inkscape:version="1.1.2 (0a00cf5339, 2022-02-04)"
   sodipodi:docname="c6.svg"
   xmlns:inkscape="http://www.inkscape.org/namespaces/inkscape"
   xmlns:sodipodi="http://sodipodi.sourceforge.net/DTD/sodipodi-0.dtd"
   xmlns="http://www.w3.org/2000/svg"
   xmlns:svg="http://www.w3.org/2000/svg">
  <sodipodi:namedview
     id="namedview3139"
     pagecolor="#ffffff"
     bordercolor="#666666"
     borderopacity="1.0"
     inkscape:pageshadow="2"
     inkscape:pageopacity="0.0"
     inkscape:pagecheckerboard="0"
     inkscape:document-units="mm"
     showgrid="false"
     inkscape:zoom="0.64052329"
     inkscape:cx="12.489788"
     inkscape:cy="13.2704"
     inkscape:window-width="2560"
     inkscape:window-height="1376"
     inkscape:window-x="0"
     inkscape:window-y="0"
     inkscape:window-maximized="1"
     inkscape:current-layer="layer1" />
  <defs
     id="defs3134" />
  <g
     inkscape:label="Layer 1"
     inkscape:groupmode="layer"
     id="layer1"
     transform="translate(-101.67635,-145.16797)">
    <path
       d="m 104.35321,145.16797 c 0.051,0.0116 0.11134,0.021 0.16232,0.0374 0.0296,0.009 0.0539,0.026 0.0799,0.0425 0.051,0.0324 0.0962,0.0661 0.15385,0.0898 0.0272,0.0116 0.0539,0.023 0.0799,0.0388 0.0258,0.0158 0.0488,0.0381 0.0725,0.0561 0.0272,0.0208 0.0569,0.0366 0.0849,0.0554 0.0475,0.0322 0.0863,0.0782 0.12439,0.12221 0.0453,0.0532 0.0913,0.10492 0.13733,0.15811 0.0265,0.0295 0.051,0.0611 0.0755,0.0928 0.007,0.009 0.0116,0.0151 0.0208,0.0201 0.0138,0.008 0.018,0.013 0.0243,0.0281 0.0152,0.0315 0.0303,0.0639 0.0453,0.0955 0.0166,0.0331 0.0293,0.0668 0.0374,0.10288 0.008,0.0423 0.0138,0.0856 0.0243,0.12645 0.0159,0.0604 0.0388,0.11577 0.0626,0.17265 0.0102,0.023 0.0194,0.0453 0.0286,0.0676 0.0109,0.0252 0.0282,0.0596 0.0311,0.0876 0.005,0.0396 -0.008,0.0784 -0.005,0.11724 0.004,0.0475 0.006,0.0928 0.005,0.13952 0,0.0812 0.0116,0.16179 0.0116,0.24222 0,0.0296 0,0.0576 0.004,0.0863 0.004,0.0202 0.007,0.0381 0.007,0.0589 0,0.0296 0,0.0598 0,0.09 0,0.0166 0,0.0337 0,0.0488 0,0.013 -0.005,0.0252 -0.005,0.0374 0,0.0274 -0.004,0.0547 -0.006,0.0828 0,0.0208 -0.0102,0.0396 -0.0145,0.0596 -0.005,0.0201 -0.007,0.0374 -0.0173,0.0561 -0.0173,0.0315 -0.0229,0.0675 -0.03,0.10197 -0.0116,0.0512 -0.0243,0.0979 -0.0482,0.14449 -0.0173,0.0353 -0.0374,0.069 -0.0554,0.10362 -0.0194,0.0351 -0.0335,0.0727 -0.0517,0.10859 -0.0173,0.0344 -0.0381,0.0668 -0.0581,0.0992 -0.044,0.0705 -0.0784,0.14228 -0.11452,0.21646 -0.0335,0.0668 -0.0841,0.11779 -0.13433,0.17172 -0.0254,0.0274 -0.049,0.0561 -0.0755,0.0826 -0.0411,0.0411 -0.0863,0.0734 -0.13455,0.1051 -0.0632,0.0423 -0.12499,0.0869 -0.18902,0.12718 -0.0641,0.0403 -0.1366,0.069 -0.20708,0.095 -0.074,0.028 -0.15018,0.0438 -0.22638,0.0596 -0.0915,0.0188 -0.18408,0.0381 -0.27682,0.0525 -0.16105,0.0252 -0.32357,0.0151 -0.4861,0.009 -0.0755,-0.003 -0.15091,-0.0109 -0.2251,-0.0265 -0.0339,-0.007 -0.0676,-0.0138 -0.10125,-0.0203 -0.0467,-0.0101 -0.092,-0.0245 -0.13875,-0.0344 -0.14816,-0.0324 -0.29414,-0.0705 -0.43642,-0.12296 -0.0282,-0.0101 -0.0576,-0.0188 -0.0841,-0.0316 -0.0346,-0.0173 -0.067,-0.0388 -0.0987,-0.0604 -0.071,-0.0504 -0.13857,-0.10141 -0.19618,-0.16694 -0.0495,-0.0582 -0.095,-0.12295 -0.15463,-0.17173 -0.0366,-0.0302 -0.0732,-0.0576 -0.10142,-0.097 -0.0272,-0.0376 -0.048,-0.0784 -0.0725,-0.11651 -0.031,-0.0504 -0.0504,-0.10712 -0.0834,-0.15535 -0.0243,-0.0359 -0.0482,-0.0641 -0.0611,-0.10639 -0.0131,-0.0425 -0.0325,-0.0826 -0.0396,-0.12791 -0.005,-0.0317 -0.0131,-0.0641 -0.0138,-0.0965 0,-0.009 0,-0.0158 -0.007,-0.0215 0.004,0.0453 0.0388,0.0942 0.0712,0.12571 0.0282,0.0267 0.0554,0.0547 0.0806,0.0849 0.031,0.0361 0.0487,0.0791 0.0819,0.11504 0.0353,0.0381 0.0668,0.0799 0.10065,0.11872 0.0403,0.0445 0.0898,0.0784 0.13804,0.11356 0.0633,0.0475 0.12573,0.097 0.18906,0.14522 0.0194,0.0144 0.0381,0.0252 0.0604,0.0353 0.0296,0.0129 0.0554,0.0322 0.0848,0.0453 0.0215,0.009 0.0425,0.0151 0.0656,0.023 0.0258,0.008 0.0467,0.023 0.0718,0.0337 0.0194,0.009 0.0403,0.0131 0.0598,0.021 0.0265,0.01 0.0517,0.0243 0.0777,0.0366 0.0502,0.0237 0.10417,0.0337 0.15733,0.0503 0.0152,0.004 0.0286,0.009 0.0446,0.0116 0.0446,0.006 0.0898,0.0136 0.13455,0.0186 0.0747,0.009 0.15092,0.002 0.22493,0.0138 0.044,0.007 0.0841,0.0129 0.12883,0.0129 0.0366,0 0.0725,0 0.10915,0 0.0388,0 0.0769,0 0.11649,-0.006 0.0208,-0.004 0.0418,-0.009 0.0633,-0.0109 0.0359,-0.005 0.069,-0.006 0.10343,-0.0166 0.0467,-0.0144 0.0928,-0.0324 0.14026,-0.046 0.0619,-0.0186 0.1143,-0.0482 0.17043,-0.0784 0.0359,-0.0186 0.0698,-0.0387 0.097,-0.0683 0.0222,-0.0237 0.0411,-0.048 0.0648,-0.0697 0.0589,-0.0532 0.11579,-0.10713 0.171,-0.16308 0.0784,-0.0791 0.1719,-0.14817 0.23798,-0.23799 0.0821,-0.11227 0.12442,-0.24884 0.18919,-0.37106 0.0272,-0.051 0.0554,-0.1027 0.0777,-0.15608 0.0243,-0.0574 0.0303,-0.12222 0.0359,-0.18406 0.004,-0.028 0,-0.0552 0,-0.0834 0,-0.0316 0.008,-0.0604 0.0113,-0.0913 0.006,-0.0718 0.005,-0.14449 0.008,-0.217 0.004,-0.0633 0.0124,-0.1259 0.0124,-0.18995 0,-0.0755 0,-0.15166 0,-0.2286 0,-0.0287 -0.007,-0.0503 -0.0138,-0.0777 -0.006,-0.0238 -0.006,-0.0488 -0.0113,-0.0725 -0.006,-0.0274 -0.0201,-0.0497 -0.0318,-0.0755 -0.0109,-0.021 -0.0166,-0.0418 -0.0243,-0.0641 -0.0187,-0.0532 -0.041,-0.0985 -0.0725,-0.14448 -0.0296,-0.0433 -0.0648,-0.0841 -0.0885,-0.13013 -0.01,-0.0188 -0.0173,-0.0374 -0.0243,-0.0569 -0.0131,-0.0351 -0.018,-0.0725 -0.0293,-0.10933 -0.005,-0.0144 -0.012,-0.028 -0.0173,-0.0423 -0.0138,-0.0331 -0.0194,-0.0683 -0.0353,-0.10068 -0.0201,-0.0423 -0.0388,-0.0834 -0.0611,-0.12516 -0.018,-0.0337 -0.0482,-0.0596 -0.0769,-0.0848 -0.0569,-0.0503 -0.1215,-0.10491 -0.16253,-0.16823 -0.0113,-0.0179 -0.0229,-0.028 -0.0366,-0.0431 -0.006,-0.006 -0.0187,-0.0166 -0.0201,-0.0252"
       style="fill:#21201d;fill-opacity:1;fill-rule:nonzero;stroke:none;stroke-width:0.184057"
       id="path654" />
    <path
       d="m 104.07491,150.29859 c 0.0265,-0.0554 0.0567,-0.1086 0.0869,-0.16179 -0.008,-0.004 -0.0162,-0.005 -0.0243,-0.009 -0.0425,-0.0173 -0.0806,-0.044 -0.1187,-0.0697 -0.0604,-0.0396 -0.10143,-0.10142 -0.15166,-0.15112 -0.0215,-0.0215 -0.0569,-0.0819 -0.0906,-0.0841 -0.0145,0.0282 0,0.0814 0.006,0.10933 0.018,0.0906 0.0661,0.17191 0.092,0.25952 0.0152,0.0547 0.0346,0.10363 0.0769,0.14173 0.0229,0.0201 0.0482,0.0388 0.074,0.0574 0.0166,-0.0317 0.0346,-0.0633 0.0497,-0.092"
       style="fill:#21201d;fill-opacity:1;fill-rule:nonzero;stroke:none;stroke-width:0.184057"
       id="path656" />
    <path
       d="m 106.4914,147.69601 c 0.0804,0.025 0.13508,0.0611 0.19766,0.1143 0.0311,0.0265 0.0769,0.028 0.10785,0.0547 0.0303,0.0265 0.0318,0.0755 0.0574,0.10639 0.0173,0.0201 0.0388,0.0351 0.0576,0.0547 0.0102,0.0107 0.0201,0.0223 0.0272,0.0366 0.0109,0.0215 0.0131,0.046 0.0194,0.0705 0.0166,0.069 0.0712,0.13933 0.12224,0.18902 0.0416,0.0403 0.0611,0.0898 0.0804,0.14099 0.0159,-0.026 0.0332,-0.0512 0.0561,-0.072 0.0438,-0.041 0.0777,-0.0891 0.11356,-0.13805 0.0268,-0.0374 0.0547,-0.0747 0.0734,-0.11651 0.0145,-0.0316 0.0166,-0.0589 0.0236,-0.0928 0.0152,-0.0639 0.0473,-0.1351 0.0834,-0.19124 -0.0504,-0.0374 -0.0856,-0.0755 -0.14817,-0.0942 -0.10139,-0.0295 -0.19766,-0.0387 -0.29189,-0.0883 -0.0388,-0.0201 -0.0762,-0.0287 -0.11927,-0.0388 -0.0784,-0.0173 -0.16694,-0.0351 -0.24021,-0.0676 -0.0618,-0.0267 -0.11797,-0.0324 -0.18404,-0.0316 -0.0611,0.002 -0.0668,-0.0216 -0.11653,-0.0366 -0.0332,-0.0101 -0.0955,-0.009 -0.13084,-0.006 -0.0597,0.006 -0.10989,0.048 -0.16676,0.0661 -0.0431,0.0136 -0.12665,0.004 -0.15388,0.0503 0.0222,0.004 0.0446,0.008 0.0668,0.0109 0.15607,0.0223 0.31144,0.0287 0.46458,0.0791"
       style="fill:#21201d;fill-opacity:1;fill-rule:nonzero;stroke:none;stroke-width:0.184057"
       id="path658" />
    <path
       d="m 106.19577,151.81062 c -0.007,-0.12442 -0.0408,-0.25657 -0.0992,-0.36664 -0.0353,-0.0676 -0.0848,-0.12663 -0.12072,-0.19418 -0.0353,-0.0653 -0.0539,-0.12939 -0.0698,-0.19694 -0.0683,0.002 -0.1373,0.006 -0.20556,0.003 -0.092,-0.005 -0.18775,0.008 -0.27757,-0.013 -0.11006,-0.0265 -0.22288,-0.056 -0.32706,-0.10068 -0.0648,-0.0272 -0.12442,-0.0618 -0.18552,-0.0963 -0.0525,-0.0287 -0.10439,-0.0569 -0.15685,-0.0863 -0.0861,-0.0495 -0.1905,-0.0633 -0.2746,-0.11725 -0.0332,-0.0208 -0.0574,-0.0502 -0.0841,-0.0789 -0.0374,-0.0411 -0.0792,-0.0762 -0.11854,-0.1143 -0.0318,-0.0309 -0.0698,-0.0497 -0.10657,-0.0712 -0.009,0.0144 -0.0201,0.028 -0.0366,0.0396 -0.0208,0.0136 -0.0438,0.0252 -0.069,0.0252 -0.0159,0 -0.0296,-0.009 -0.0453,-0.007 -0.0346,0.002 -0.0913,0.0368 -0.11779,0.0583 -0.0166,0.0136 -0.0317,0.0331 -0.0455,0.0532 0.0375,0.0589 0.0749,0.11853 0.11155,0.17687 0.0229,0.0366 0.049,0.0725 0.0791,0.10418 0.0747,0.0791 0.1445,0.15167 0.23724,0.21075 0.0639,0.0403 0.12718,0.0849 0.18684,0.13234 0.0618,0.0488 0.12019,0.10988 0.19124,0.14595 0.0806,0.0401 0.17335,0.0517 0.25749,0.0854 0.1301,0.0532 0.26522,0.0935 0.39388,0.1489 0.0836,0.0359 0.16047,0.0863 0.24588,0.11724 0.0598,0.023 0.12224,0.0374 0.18129,0.0604 0.11579,0.0453 0.21774,0.0777 0.34146,0.0883 0.0374,0.004 0.0769,0.009 0.115,0.0151 0,-0.007 0,-0.0144 0,-0.0216"
       style="fill:#21201d;fill-opacity:1;fill-rule:nonzero;stroke:none;stroke-width:0.184057"
       id="path660" />
    <path
       d="m 107.59002,150.16275 c -0.0303,-0.0524 -0.0742,-0.0891 -0.10858,-0.1373 -0.0303,-0.0425 -0.0346,-0.0841 -0.0426,-0.13308 -0.008,-0.0567 -0.0374,-0.10638 -0.051,-0.16178 -0.0366,-0.14523 -0.0655,-0.2853 -0.1524,-0.41193 -0.0116,-0.0158 -0.0236,-0.0302 -0.0361,-0.0445 -0.0552,0.092 -0.10714,0.18406 -0.14873,0.28474 -0.0705,0.17173 -0.17688,0.3083 -0.31069,0.43566 -0.0321,0.0317 -0.0653,0.0676 -0.10492,0.0891 -0.0138,0.007 -0.0286,0.0116 -0.041,0.0195 -0.0388,0.0251 -0.0624,0.071 -0.097,0.10142 -0.0891,0.0789 -0.21922,0.11853 -0.3278,0.16602 -0.0381,0.0173 -0.0777,0.0316 -0.11871,0.041 0.0152,0.0337 0.0173,0.0733 0.0222,0.10988 0.007,0.0547 0.0109,0.11283 0.0201,0.16749 0.008,0.041 0.018,0.0698 0.0152,0.1143 -0.006,0.0821 -0.0318,0.17486 -0.0145,0.25603 0.006,0.0331 0.0201,0.0668 0.0328,0.10068 0.15388,-0.023 0.29633,-0.0683 0.4307,-0.14743 0.0675,-0.0403 0.13508,-0.0812 0.20207,-0.12369 0.0676,-0.0431 0.1294,-0.0963 0.19841,-0.1351 0.18905,-0.10491 0.38322,-0.19123 0.53265,-0.35155 0.0468,-0.0504 0.092,-0.11798 0.13163,-0.18203 -0.01,-0.0193 -0.0222,-0.0386 -0.0321,-0.0574"
       style="fill:#21201d;fill-opacity:1;fill-rule:nonzero;stroke:none;stroke-width:0.184057"
       id="path662" />
    <path
       d="m 107.23036,148.72048 c -0.009,0.0661 -0.006,0.13381 -0.018,0.19988 -0.004,0.026 -0.0116,0.051 -0.0187,0.0755 0.008,0.002 0.0173,0.004 0.0275,0.008 0.0243,0.0123 0.0473,0.0208 0.074,0.0309 0.0403,0.0144 0.0683,0.0346 0.10213,0.0596 0.0201,0.0151 0.051,0.0203 0.0676,0.0388 0.0194,0.021 0.0201,0.049 0.0403,0.0705 0.0243,0.026 0.0581,0.0445 0.0869,0.0641 0.0303,0.0208 0.0388,0.0381 0.0576,0.0653 0.0373,0.0539 0.097,0.0676 0.14597,0.10491 0.0251,0.0188 0.0416,0.0497 0.0611,0.0727 0.0222,0.0252 0.0475,0.0445 0.0732,0.0626 0.0332,-0.15958 0.0446,-0.32137 0.0662,-0.48463 0.025,-0.19694 0.009,-0.40124 -0.007,-0.59892 -0.004,-0.0554 -0.0201,-0.1086 -0.0314,-0.16252 -0.01,-0.0453 -0.0159,-0.0906 -0.0236,-0.13584 0,0.002 -0.005,0.003 -0.006,0.005 -0.0517,0.0482 -0.11635,0.0734 -0.17819,0.10785 -0.0683,0.0374 -0.12442,0.092 -0.19417,0.12811 -0.0236,0.0121 -0.0482,0.023 -0.072,0.0359 -0.0243,0.0136 -0.0676,0.0272 -0.0891,0.0475 -0.0138,0.0136 -0.0215,0.0329 -0.0339,0.0475 -0.0194,0.0208 -0.0409,0.0302 -0.0705,0.0309 -0.0229,0 -0.046,-0.004 -0.0688,-0.009 0,0.0151 0,0.0302 0.004,0.0446 0.005,0.0339 0.0117,0.0574 0.006,0.0913"
       style="fill:#21201d;fill-opacity:1;fill-rule:nonzero;stroke:none;stroke-width:0.184057"
       id="path664" />
    <path
       d="m 106.84146,149.1497 c -0.004,-0.0316 -0.0243,-0.0698 -0.0381,-0.0985 -0.0208,-0.0438 -0.0423,-0.0841 -0.0653,-0.1259 -0.0138,-0.0245 -0.0303,-0.0374 -0.0361,-0.0683 -0.004,-0.0258 0,-0.0381 0.0303,-0.0237 0.0396,0.0188 0.0784,0.0388 0.11722,0.0547 0.0159,0.006 0.0332,0.009 0.046,0.023 0.0102,0.009 0.0138,0.0215 0.0229,0.0309 0.0145,0.0136 0.0222,0.0188 0.0325,0.0359 0.007,0.0138 0.012,0.026 0.0222,0.0368 0.0138,0.0136 0.0332,0.0237 0.0423,0.0416 0.004,0.006 0.005,0.0136 0.009,0.0195 0.006,0.006 0.0109,0.005 0.0131,0.0136 0,0.004 0,0.0121 0,0.0158 0,0.007 -0.005,0.0114 -0.005,0.018 -0.005,0.0236 -0.005,0.074 -0.0394,0.0762 -0.0102,0 -0.0219,-0.004 -0.031,-0.007 -0.0354,-0.008 -0.0663,0.007 -0.10068,0.0131"
       style="fill:#21201d;fill-opacity:1;fill-rule:nonzero;stroke:none;stroke-width:0.184057"
       id="path666" />
    <path
       d="m 107.78694,149.80329 c 0.0646,0.0158 0.13511,0.0423 0.18627,0.0841 0.0208,0.0173 0.0335,0.0403 0.0532,0.0582 0.0162,0.0158 0.0321,0.021 0.0517,0.0309 0.0159,0.009 0.0265,0.0188 0.0453,0.0238 0,0 0.0318,0.004 0.0339,0.006 0.0155,0.0151 0,0.0309 -0.004,0.0512 0,0.023 0.004,0.0374 -0.004,0.0611 -0.007,0.0337 -0.0152,0.0676 -0.0222,0.10067 -0.006,0.0295 -0.0187,0.0552 -0.0286,0.0834 -0.004,0.0107 -0.0109,0.0173 -0.0152,0.0272 -0.005,0.009 -0.004,0.0203 -0.007,0.0294 -0.0116,0.0217 -0.0346,0.0217 -0.0576,0.0296 -0.0546,0.0186 -0.0935,-0.0116 -0.14376,-0.0324 -0.0261,-0.0101 -0.0286,-0.009 -0.0359,-0.0346 -0.008,-0.0265 -0.01,-0.0453 -0.0243,-0.0698 -0.0173,-0.0258 -0.0268,-0.0394 -0.0261,-0.0725 0,-0.0274 0.0131,-0.0626 0.005,-0.0898 -0.006,-0.0188 -0.0222,-0.041 -0.0293,-0.0598 -0.0116,-0.0294 -0.0261,-0.0547 -0.0447,-0.0804 -0.0222,-0.0295 -0.0346,-0.0648 -0.0567,-0.0957 -0.013,-0.0178 -0.0254,-0.0445 -0.041,-0.0611 -0.0145,-0.0129 -0.0453,-0.023 -0.0335,-0.0517 0.0286,0 0.0374,0.0136 0.0596,0.0272 0.009,0.006 0.0201,0.0123 0.0303,0.0138 0.012,0.002 0.0127,-0.002 0.0215,-0.002 0.018,0 0.0194,0.006 0.0381,0.0144 0.0113,0.004 0.0268,0.005 0.0388,0.007 l 0.008,0.002"
       style="fill:#21201d;fill-opacity:1;fill-rule:nonzero;stroke:none;stroke-width:0.184057"
       id="path668" />
    <path
       d="m 107.57199,148.10646 c 0.0318,-0.028 0.0675,-0.0423 0.0927,-0.0769 0.0229,-0.0302 0.0388,-0.0683 0.0589,-0.10141 0.0173,-0.0302 0.0366,-0.0574 0.0546,-0.0876 0.0109,-0.0173 0.0279,-0.041 0.0279,-0.0626 0,0.0265 0.0497,0.0418 0.0698,0.0517 0.0275,0.0143 0.0517,0.026 0.0675,0.0532 0.01,0.0151 0.013,0.0324 0.0219,0.0475 0.0106,0.0201 0.0353,0.0324 0.0374,0.0554 0.004,0.0258 -0.0159,0.0331 -0.0318,0.0468 -0.0339,0.028 -0.069,0.0374 -0.10788,0.0554 -0.0325,0.0151 -0.0604,0.0381 -0.0913,0.0545 -0.0569,0.0302 -0.10936,0.0618 -0.16108,0.0999 -0.0187,0.0144 -0.044,0.0274 -0.0604,0.0447 -0.008,0.009 -0.0109,0.0257 -0.0254,0.0287 -0.008,-0.008 -0.006,-0.018 -0.005,-0.0287 -0.0201,-0.009 -0.0519,0.0322 -0.0749,0.0322 0.008,-0.0295 0.0447,-0.0574 0.0591,-0.0861 0.0138,-0.0252 0.0215,-0.0526 0.0335,-0.0769 0.009,-0.0144 0.0109,-0.0296 0.0243,-0.0418 0.018,-0.0166 0.046,-0.0223 0.01,-0.008"
       style="fill:#21201d;fill-opacity:1;fill-rule:nonzero;stroke:none;stroke-width:0.184057"
       id="path670" />
    <path
       d="m 106.24181,151.34901 c -0.004,0.0195 0.006,0.0482 0.008,0.0648 0.005,0.0381 0.007,0.0769 0.0138,0.11504 0.006,0.0359 0.005,0.0863 0.0482,0.0863 0.0676,0 0.11727,-0.0547 0.17191,-0.0893 0.0208,-0.0136 0.0409,-0.0238 0.0611,-0.0388 0.0236,-0.0186 0.0475,-0.0193 0.0705,-0.0423 0.0194,-0.0188 0.0258,-0.0309 0.0321,-0.0561 0.006,-0.0193 0.0131,-0.0475 0,-0.0502 -0.0258,-0.004 -0.0495,-0.006 -0.0762,-0.008 -0.018,-0.002 -0.0416,-0.005 -0.0589,-0.0123 -0.0173,-0.006 -0.0296,-0.023 -0.0453,-0.0337 -0.0272,-0.0166 -0.0574,-0.0353 -0.0906,-0.0353 -0.0261,0 -0.046,0.0131 -0.0611,0.0339 -0.009,0.0114 -0.0102,0.023 -0.0166,0.0366 -0.01,-0.002 -0.018,-0.002 -0.0268,-0.003 -0.006,0.0114 -0.005,0.0236 -0.0113,0.0344 -0.004,0 -0.006,0 -0.018,-0.002"
       style="fill:#21201d;fill-opacity:1;fill-rule:nonzero;stroke:none;stroke-width:0.184057"
       id="path672" />
  </g>
</svg>
