<?xml version="1.0" encoding="UTF-8" standalone="no"?>
<!-- Created with Inkscape (http://www.inkscape.org/) -->

<svg
   width="6.4688549mm"
   height="7.0383592mm"
   viewBox="0 0 6.4688549 7.0383592"
   version="1.1"
   id="svg2969"
   inkscape:version="1.1.2 (0a00cf5339, 2022-02-04)"
   sodipodi:docname="c5.svg"
   xmlns:inkscape="http://www.inkscape.org/namespaces/inkscape"
   xmlns:sodipodi="http://sodipodi.sourceforge.net/DTD/sodipodi-0.dtd"
   xmlns="http://www.w3.org/2000/svg"
   xmlns:svg="http://www.w3.org/2000/svg">
  <sodipodi:namedview
     id="namedview2971"
     pagecolor="#ffffff"
     bordercolor="#666666"
     borderopacity="1.0"
     inkscape:pageshadow="2"
     inkscape:pageopacity="0.0"
     inkscape:pagecheckerboard="0"
     inkscape:document-units="mm"
     showgrid="false"
     inkscape:zoom="0.64052329"
     inkscape:cx="-1142.8156"
     inkscape:cy="-2.3418352"
     inkscape:window-width="2560"
     inkscape:window-height="1376"
     inkscape:window-x="0"
     inkscape:window-y="0"
     inkscape:window-maximized="1"
     inkscape:current-layer="layer1" />
  <defs
     id="defs2966" />
  <g
     inkscape:label="Layer 1"
     inkscape:groupmode="layer"
     id="layer1"
     transform="translate(-407.36066,-149.31838)">
    <path
       d="m 410.48781,153.18927 c -0.10786,-0.0166 -0.23597,-0.0245 -0.31787,-0.10068 -0.0482,-0.0453 -0.10289,-0.0834 -0.15093,-0.12866 -0.0504,-0.0488 -0.0547,-0.0963 -0.044,-0.16381 0.0202,-0.11945 0.10859,-0.19418 0.15111,-0.30278 0.0201,-0.0502 0.0178,-0.0898 0.0495,-0.13657 0.0309,-0.0475 0.0576,-0.0849 0.0663,-0.14098 0.0107,-0.0639 0.0129,-0.12295 0.0618,-0.171 0.0445,-0.044 0.0876,-0.0764 0.12644,-0.12663 0.0252,-0.0339 0.0446,-0.0856 0.0878,-0.0977 0.0624,-0.0188 0.1524,0 0.217,0 0.11375,0 0.20928,0.0223 0.31143,0.0784 0.051,0.028 0.0876,0.0733 0.13436,0.10712 0.026,0.0193 0.0554,0.0351 0.0784,0.0574 0.0475,0.0453 0.074,0.10436 0.0985,0.16325 0.0195,0.0468 0.0475,0.0977 0.051,0.14891 0.004,0.0567 7e-4,0.10841 0.0101,0.16454 0.003,0.023 0.003,0.0423 0.003,0.0648 0.0733,-0.0878 0.0604,-0.021 0.0604,0.0151 0,0.01 0.004,0.0374 0.001,0.0468 -0.009,0.0265 -0.041,0.0179 -0.0626,0.0315 -0.0339,0.021 -0.0769,0.0863 -0.0898,0.12166 -0.0151,0.0416 -0.0223,0.0804 -0.044,0.12001 -0.0272,0.0482 -0.0453,0.0653 -0.0955,0.0906 -0.0747,0.0359 -0.14743,0.0705 -0.22731,0.0942 -0.074,0.0223 -0.14651,0.0525 -0.22216,0.0712 -0.0861,0.0208 -0.16822,0.007 -0.25436,-0.006 m 0.19915,0.50267 c 0.11632,-0.009 0.21553,-0.0583 0.32486,-0.0913 0.0762,-0.0223 0.15534,-0.0237 0.2308,-0.0475 0.0957,-0.0295 0.28106,-0.12295 0.34658,-0.20854 0.0245,-0.0316 0.0208,-0.0626 0.0295,-0.0992 0.0129,-0.0524 0.0403,-0.0806 0.0569,-0.12939 0.0265,-0.0799 -0.0144,-0.11872 0.0653,-0.17614 0.0589,-0.0425 0.0712,-0.0547 0.0992,-0.12148 0.0188,-0.046 0.0655,-0.10289 -0.12939,-0.0987 0.0583,-0.0869 0.0661,-0.25289 0.0806,-0.34787 0.0151,-0.10068 0.0136,-0.17467 -0.0447,-0.2632 -0.046,-0.0698 -0.10712,-0.13234 -0.15737,-0.19915 -0.1143,-0.1524 -0.2286,-0.30977 -0.40125,-0.40253 -0.15018,-0.0821 -0.33498,-0.10363 -0.50321,-0.0992 -0.18976,0.005 -0.28547,0.0905 -0.4386,0.17964 -0.16105,0.0935 -0.404,0.0913 -0.54205,0.21792 -0.12663,0.11651 -0.12294,0.37879 -0.12589,0.53561 -0.004,0.2402 0.0468,0.45518 0.0856,0.69022 0.072,0.42701 0.62488,0.68874 1.02317,0.66077"
       style="fill:#21201d;fill-opacity:1;fill-rule:nonzero;stroke:none;stroke-width:0.184057"
       id="path626" />
    <path
       d="m 411.52165,154.81929 c 0.0272,0.004 0.0554,0.003 0.0834,0.003 0.0193,0 0.0388,0 0.0582,0.005 0.0834,0.0166 0.16823,0.023 0.25381,0.023 0.0388,0 0.0799,0.005 0.11798,-0.002 0.0438,-0.007 0.0826,-0.0267 0.12718,-0.0324 0.0814,-0.0101 0.15756,-0.008 0.23578,-0.0337 0.0381,-0.0116 0.0784,-0.009 0.11651,-0.0217 0.0195,-0.006 0.0361,-0.0158 0.0539,-0.0243 0.021,-0.009 0.0361,-0.007 0.0576,-0.009 0.0416,-0.002 0.071,-0.0289 0.10859,-0.0433 0.0302,-0.0107 0.0653,-0.0158 0.0963,-0.0238 0.0272,-0.007 0.0547,0 0.0819,0.002 0.0418,0.002 0.0777,-0.004 0.11081,-0.0316 0.0453,-0.0366 0.0834,-0.0856 0.12221,-0.12866 0.0468,-0.0517 0.0906,-0.10565 0.13086,-0.16326 0.0482,-0.0698 0.0755,-0.14798 0.12075,-0.21921 0.0388,-0.0604 0.0905,-0.10933 0.13454,-0.16602 0.0237,-0.0296 0.0374,-0.0606 0.0725,-0.0749 0.0359,-0.0144 0.0512,-0.0401 0.0668,-0.0747 0.0237,-0.0539 0.0317,-0.12074 0.0497,-0.17688 0.0316,-0.0955 0.0653,-0.18553 0.0863,-0.284 0.0144,-0.0661 0.0265,-0.14228 0.0208,-0.21001 -0.001,-0.01 -0.002,-0.0179 -0.006,-0.0265 -0.0109,-0.0215 -0.0331,-0.0346 -0.0339,-0.0611 -0.002,-0.0453 0.001,-0.092 -0.0193,-0.13455 -0.0295,-0.0604 -0.0791,-0.11135 -0.12019,-0.16308 -0.0315,-0.041 -0.0552,-0.0799 -0.0999,-0.10785 -0.0215,-0.0131 -0.0344,-0.0267 -0.0525,-0.0433 -0.0215,-0.0208 -0.0445,-0.0351 -0.0661,-0.0559 -0.0166,-0.0173 -0.0351,-0.0331 -0.0547,-0.0468 -0.0265,-0.018 -0.0596,-0.0202 -0.0876,-0.0346 -0.0188,-0.009 -0.0296,-0.025 -0.0447,-0.0381 -0.0431,-0.0352 -0.11853,-0.0295 -0.17025,-0.0467 -0.0289,-0.01 -0.0576,-0.0215 -0.0878,-0.0238 -0.0302,-0.002 -0.0618,0.002 -0.092,0.002 -0.0339,0 -0.0648,-0.003 -0.097,0.006 -0.0339,0.009 -0.0641,0.028 -0.0957,0.0409 -0.026,0.0109 -0.0495,0.018 -0.0712,0.0361 -0.0302,0.0265 -0.0567,0.0589 -0.0854,0.0876 -0.0316,0.0316 -0.0519,0.0675 -0.0777,0.10565 -0.0281,0.0425 -0.0512,0.0871 -0.0828,0.12737 -0.0201,0.0258 -0.0322,0.0567 -0.0453,0.0861 -0.0144,0.0309 -0.0322,0.0569 -0.0495,0.0856 -0.0339,0.0554 -0.0302,0.11872 -0.0467,0.17909 -0.0388,0.14099 -0.0819,0.27977 -0.0331,0.42352 0.021,0.0618 0.0525,0.12 0.0806,0.1789 0.023,0.0475 0.0453,0.0964 0.074,0.14025 0.046,0.0727 0.10933,0.12866 0.19988,0.11154 0.11725,-0.0223 0.21351,-0.11301 0.31989,-0.15902 0.0317,-0.0129 0.0799,-0.0374 0.10215,-0.0661 0.009,-0.0121 0.0109,-0.0324 0.0144,-0.0475 0.006,-0.0324 0.0123,-0.0646 0.0188,-0.097 0.006,-0.0346 0.0251,-0.0648 0.0258,-0.0999 0.001,-0.0166 0,-0.0339 0,-0.0504 0,-0.0309 0.009,-0.0769 -0.004,-0.10418 -0.0109,-0.023 -0.0381,-0.0388 -0.0618,-0.0423 -0.005,0 -0.0237,-0.003 -0.0287,0 -0.0138,0.006 -0.009,0.0171 -0.009,0.0315 0,0.0131 0.003,0.0316 0,0.0447 -10e-4,0.006 -0.007,0.0166 -0.007,0.0193 -0.0101,0.0482 0.008,0.095 -0.013,0.14099 -0.0114,0.025 -0.028,0.0495 -0.046,0.071 -0.0208,0.0237 -0.0388,0.0613 -0.0646,0.0791 -0.0388,0.026 -0.1259,0.046 -0.164,0.0173 -0.0223,-0.0158 -0.0467,-0.028 -0.0604,-0.0524 -0.0252,-0.0418 -0.0388,-0.0893 -0.0604,-0.13234 -0.0188,-0.0374 -0.0438,-0.0747 -0.0446,-0.11798 -7e-4,-0.0309 0.0151,-0.0574 0.0309,-0.0834 0.009,-0.0166 0.0193,-0.0337 0.0287,-0.051 0.006,-0.0144 0.0129,-0.0295 0.0188,-0.0445 0.009,-0.0215 0.0201,-0.0425 0.0265,-0.0648 0.006,-0.023 0.006,-0.046 0.0109,-0.069 0.003,-0.0114 0.009,-0.0238 0.0121,-0.0351 0.0166,-0.067 0.0431,-0.12866 0.0762,-0.18774 0.0195,-0.0359 0.0618,-0.0661 0.092,-0.0928 0.0339,-0.0309 0.0675,-0.0646 0.10933,-0.0849 0.0403,-0.0193 0.1027,-0.0114 0.14596,-0.01 0.0574,0.002 0.11209,0.0359 0.16399,0.0574 0.0582,0.0245 0.0985,0.0762 0.14228,0.12019 0.0381,0.0381 0.0819,0.069 0.11006,0.11707 0.0337,0.0591 0.0309,0.1316 0.0302,0.19712 -0.001,0.0775 -0.0339,0.14449 -0.0677,0.21204 -0.0394,0.0784 -0.0589,0.1581 -0.0861,0.24093 -0.0138,0.0431 -0.0245,0.0854 -0.0339,0.13013 -0.003,0.0151 -0.009,0.025 -0.0151,0.0381 -0.0287,0.0545 -0.0554,0.10988 -0.0834,0.16528 -0.0287,0.0561 -0.064,0.11136 -0.10215,0.16179 -0.0431,0.0574 -0.12368,0.0985 -0.18405,0.13509 -0.0525,0.0317 -0.10565,0.0554 -0.16381,0.0762 -0.069,0.0238 -0.13731,0.049 -0.20707,0.0683 -0.0849,0.0237 -0.17264,0.0339 -0.25896,0.0497 -0.0582,0.0109 -0.1143,0.0193 -0.17394,0.0188 -0.0668,0 -0.14025,0.008 -0.20706,-0.002 -0.0503,-0.006 -0.0955,-0.0339 -0.14301,-0.0497 -0.049,-0.0158 -0.0979,-0.0136 -0.14816,-0.0193 -0.10345,-0.0123 -0.21001,-0.0237 -0.31419,-0.0138 -0.0554,0.006 -0.10638,0.0304 -0.16031,0.0447 -0.0274,0.007 -0.0589,0 -0.0871,0.002 -0.0329,0.002 -0.0639,0.0101 -0.0955,0.0195 -0.0353,0.0101 -0.0749,0.0158 -0.11153,0.018 -0.0388,0.003 -0.0567,0.0151 -0.0883,0.0381 -0.0755,0.0547 -0.15461,0.10068 -0.23449,0.14946 -0.0352,0.0223 -0.0596,0.0475 -0.0891,0.0769 -0.0302,0.0294 -0.0626,0.0532 -0.0977,0.0769 -0.041,0.0287 -0.072,0.0668 -0.11007,0.0992 -0.0366,0.0316 -0.0732,0.0626 -0.10418,0.0992 -0.0576,0.0697 -0.12442,0.12663 -0.15037,0.21498 -0.0129,0.0453 -0.0272,0.0913 -0.0337,0.13804 -0.006,0.0497 -0.004,0.10068 -0.004,0.15111 0,0.0933 -0.0107,0.19768 0.0374,0.28032 0.0173,0.0302 0.0324,0.0604 0.049,0.0913 0.026,0.0497 0.069,0.0849 0.10565,0.1259 0.0166,0.0171 0.0374,0.0604 0.0611,0.0698 0.0294,0.0129 0.0814,-0.0203 0.10638,-0.0289 0.0282,-0.009 0.0762,-0.009 0.0841,-0.046 0.007,-0.0374 0.005,-0.10565 -0.0201,-0.13215 -0.0136,-0.0145 -0.0324,-0.023 -0.0475,-0.0376 -0.0136,-0.0144 -0.0265,-0.0295 -0.0416,-0.0431 -0.0145,-0.0121 -0.0309,-0.018 -0.0425,-0.0331 -0.0272,-0.0337 -0.028,-0.0856 -0.0287,-0.12644 -0.003,-0.11228 0.0409,-0.20431 0.0963,-0.2991 0.0353,-0.0611 0.0885,-0.10362 0.13381,-0.15681 0.0423,-0.0503 0.0804,-0.0834 0.13509,-0.11651 0.046,-0.0265 0.0814,-0.0675 0.12663,-0.0948 0.069,-0.0425 0.14375,-0.072 0.21351,-0.11283 0.0403,-0.023 0.0819,-0.0158 0.12644,-0.0158 0.0309,0 0.0606,-0.002 0.0908,-0.003 0.0416,-0.003 0.0834,-0.009 0.1257,-0.0136 0.0504,-0.005 0.10068,-0.008 0.15093,-0.009 0.0381,0 0.072,0.002 0.1086,0.0114 0.009,0.002 0.018,0.004 0.0274,0.005"
       style="fill:#21201d;fill-opacity:1;fill-rule:nonzero;stroke:none;stroke-width:0.184057"
       id="path628" />
    <path
       d="m 410.16203,154.55829 c -0.0913,-0.046 -0.19124,-0.0712 -0.28474,-0.11154 -0.0869,-0.0381 -0.17964,-0.0596 -0.27166,-0.0769 -0.0317,-0.006 -0.0618,-0.0164 -0.0928,-0.0215 -0.023,-0.004 -0.0467,0.002 -0.0698,-0.004 -0.0604,-0.0116 -0.11945,-0.0324 -0.17982,-0.044 -0.0675,-0.0129 -0.13234,-0.028 -0.19841,-0.0495 -0.0891,-0.0295 -0.17191,-0.0712 -0.26026,-0.10436 -0.0381,-0.0151 -0.0769,-0.0315 -0.11209,-0.0532 -0.0525,-0.0309 -0.1108,-0.0604 -0.16105,-0.0955 -0.0504,-0.0346 -0.10141,-0.0727 -0.14963,-0.11007 -0.0503,-0.0381 -0.0928,-0.0869 -0.14449,-0.12295 -0.041,-0.028 -0.0812,-0.0539 -0.11651,-0.0891 -0.0359,-0.0366 -0.0646,-0.0784 -0.0977,-0.11651 -0.0582,-0.0668 -0.10491,-0.13878 -0.15387,-0.21204 -0.0453,-0.0677 -0.0806,-0.13675 -0.10418,-0.21424 -0.0324,-0.10362 -0.0331,-0.20283 -0.0331,-0.30995 0,-0.0611 -0.002,-0.12295 7e-4,-0.1848 0.005,-0.0791 0.0238,-0.15534 0.0302,-0.23357 0.0121,-0.13951 0.0388,-0.28989 0.13307,-0.39977 0.0503,-0.0584 0.13142,-0.11504 0.20412,-0.13952 0.0166,-0.006 0.0344,-0.0101 0.0525,-0.0109 0.0237,0 0.0475,0.007 0.0712,0.007 0.0381,0 0.0574,-0.023 0.0891,-0.0344 0.0173,-0.006 0.0403,0.006 0.0584,0.009 0.0215,0.004 0.0431,0.005 0.0646,0.007 0.0374,0.004 0.0683,0.0215 0.10215,0.0366 0.0351,0.0158 0.0725,0.0193 0.10933,0.0309 0.0344,0.0114 0.0525,0.0351 0.0762,0.0604 0.0193,0.0201 0.0401,0.0381 0.0596,0.0589 0.0252,0.026 0.0324,0.0532 0.0403,0.0871 0.006,0.0274 0.0151,0.0569 0.0179,0.0841 0.007,0.0705 -0.0193,0.14817 -0.0381,0.21572 -0.0166,0.0604 -0.0245,0.12369 -0.0423,0.18406 -0.0223,0.0747 -0.0611,0.14228 -0.13657,0.17191 -0.0791,0.0302 -0.16896,0.0265 -0.24958,0.008 -0.046,-0.0109 -0.0762,-0.0583 -0.12718,-0.0626 -0.0447,-0.004 -0.0663,0.0322 -0.0663,0.0733 7.1e-4,0.0346 0.0166,0.0697 0.0381,0.0964 0.0195,0.0243 0.0374,0.0525 0.0641,0.069 0.0245,0.0151 0.051,0.0243 0.074,0.0409 0.0267,0.0202 0.0561,0.0202 0.0878,0.026 0.0351,0.006 0.0676,0.007 0.10417,0.007 0.0339,0 0.0618,-0.006 0.0935,-0.009 0.026,-0.002 0.0467,-0.009 0.0734,-0.009 0.0164,0 0.0329,0.002 0.0495,0 0.0302,-0.002 0.0641,-0.0166 0.092,-0.0265 0.0351,-0.0123 0.0705,-0.023 0.10068,-0.044 0.0418,-0.028 0.0935,-0.0495 0.11853,-0.092 0.0131,-0.0201 0.026,-0.0431 0.0455,-0.0589 0.0186,-0.0144 0.023,-0.0302 0.0295,-0.0525 0.0179,-0.0675 0.0309,-0.13509 0.0416,-0.20559 0.0138,-0.0863 0.0195,-0.17541 0.005,-0.26246 -0.0138,-0.0777 -0.0453,-0.15167 -0.0683,-0.2264 -0.0116,-0.0353 -0.021,-0.0727 -0.0361,-0.10657 -0.0136,-0.0287 -0.0324,-0.0539 -0.0503,-0.0782 -0.0841,-0.11651 -0.17467,-0.24664 -0.29688,-0.32578 -0.0633,-0.0416 -0.1259,-0.0834 -0.20062,-0.10344 -0.0547,-0.0138 -0.1086,-0.0245 -0.16473,-0.0237 -0.0475,0 -0.0948,0 -0.14228,0 -0.0281,0 -0.0519,0.006 -0.0792,0.0129 -0.0316,0.009 -0.0633,0.0136 -0.0942,0.0208 -0.0574,0.0138 -0.11632,0.0188 -0.17467,0.0302 -0.0136,0.004 -0.0287,0.006 -0.0416,0.0123 -0.013,0.008 -0.0245,0.0186 -0.0376,0.0272 -0.0359,0.023 -0.0646,0.0497 -0.0913,0.0834 -0.0618,0.0806 -0.11503,0.164 -0.17172,0.24811 -0.0554,0.0841 -0.0913,0.17541 -0.11577,0.27315 -0.0195,0.0734 -0.0438,0.14964 -0.0512,0.2251 -0.006,0.0648 0.002,0.12939 -0.002,0.19418 -0.005,0.074 -0.018,0.14522 -0.018,0.21921 0,0.0324 -0.004,0.0648 0.001,0.0964 0.005,0.0387 0.0208,0.0747 0.0316,0.11209 0.0151,0.0495 0.0193,0.0977 0.0251,0.14946 0.007,0.0526 0.004,0.10362 0.007,0.15681 7.1e-4,0.0245 0.0114,0.0431 0.0171,0.0653 0.007,0.0309 0.008,0.0626 0.0158,0.0942 0.0101,0.0445 0.0346,0.0885 0.0539,0.13013 0.023,0.0512 0.0532,0.0972 0.0898,0.14025 0.0195,0.0223 0.0396,0.0445 0.0591,0.0668 0.023,0.0274 0.0351,0.0561 0.0611,0.0814 0.0237,0.023 0.046,0.0495 0.0718,0.0703 0.0153,0.0116 0.0296,0.023 0.0455,0.0339 0.0136,0.0101 0.0351,0.0158 0.0473,0.0272 0.009,0.009 0.009,0.018 0.0151,0.0274 0.009,0.0144 0.0237,0.0237 0.0375,0.0337 0.0525,0.0388 0.10712,0.0742 0.15442,0.11798 0.0979,0.0891 0.21075,0.16252 0.3221,0.23302 0.041,0.025 0.0885,0.0329 0.13086,0.0559 0.0396,0.0195 0.0712,0.0381 0.11504,0.0433 0.0576,0.008 0.12663,0.0158 0.17761,0.0453 0.0425,0.0237 0.0935,0.0158 0.14099,0.0302 0.033,0.0101 0.0633,0.0302 0.0963,0.0416 0.0425,0.0153 0.0856,0.0267 0.12737,0.0425 0.0295,0.0114 0.0503,0.0302 0.0762,0.0468 0.0302,0.018 0.0661,0.0158 0.0999,0.0186 0.0416,0.003 0.0834,0.007 0.12222,0.0238 0.0208,0.009 0.0423,0.008 0.0668,0.008 0.0346,0 0.0653,0.009 0.0992,0.009 0.0331,0 0.0712,-0.005 0.10363,0 0.0495,0.009 0.0963,0.0381 0.14374,0.0532 0.046,0.0136 0.0883,0.026 0.1316,0.0482 0.0503,0.0252 0.10197,0.0468 0.1524,0.0718 0.0618,0.0304 0.12075,0.067 0.18332,0.0935 0.0503,0.0223 0.0747,0.0734 0.12645,0.0935 0.0388,0.0151 0.0806,0.0129 0.11724,0.0366 0.026,0.0173 0.0467,0.0425 0.0698,0.0655 0.0188,0.0186 0.046,0.0359 0.0604,0.0589 0.0287,0.046 0.0388,0.10142 0.0287,0.15609 -0.005,0.0245 -0.0186,0.046 -0.0243,0.0705 -0.004,0.0164 -0.005,0.0329 -0.0109,0.0495 -0.0136,0.0438 -0.0445,0.0826 -0.0661,0.12295 -0.0361,0.0661 -0.0885,0.1108 -0.14596,0.15608 -0.0223,0.0179 -0.046,0.0295 -0.072,0.0423 -0.0188,0.009 -0.0374,0.0252 -0.0576,0.0287 -0.0416,0.007 -0.0775,-0.0272 -0.11136,-0.0445 -0.0309,-0.0158 -0.0524,-0.0329 -0.087,-0.0438 -0.0401,-0.0116 -0.0834,-0.007 -0.12424,-0.007 -0.0116,0 -0.0339,-0.004 -0.044,0.002 -0.0179,0.0107 -0.004,0.0179 -10e-4,0.0287 0.009,0.0309 0.0188,0.0596 0.0396,0.0848 0.018,0.0215 0.0381,0.0446 0.0519,0.0683 0.007,0.0121 0.006,0.026 0.0129,0.0396 0.006,0.009 0.0136,0.023 0.0223,0.0316 0.0316,0.0316 0.0755,0.0473 0.11006,0.0747 0.0337,0.0265 0.0683,0.0475 0.10418,0.0712 0.0302,0.0208 0.0648,0.0322 0.0957,0.0532 0.0265,0.0193 0.0503,0.0423 0.0804,0.0552 0.0339,0.0145 0.0755,0.026 0.11154,0.0331 0.0883,0.0158 0.19547,0.0116 0.26743,-0.0502 0.0388,-0.0346 0.0604,-0.09 0.0819,-0.13528 0.0418,-0.0913 0.0648,-0.17394 0.0733,-0.27462 0.009,-0.10565 0.0145,-0.20853 -0.0121,-0.31124 -0.0193,-0.0769 -0.0339,-0.15461 -0.0532,-0.23154 -0.0287,-0.11154 -0.0762,-0.21204 -0.13436,-0.31125 -0.0237,-0.041 -0.0475,-0.0554 -0.09,-0.072 -0.0265,-0.0109 -0.046,-0.0267 -0.0676,-0.046 -0.10068,-0.0885 -0.21995,-0.15387 -0.33498,-0.22363 -0.0777,-0.0482 -0.15755,-0.0942 -0.24019,-0.13583"
       style="fill:#21201d;fill-opacity:1;fill-rule:nonzero;stroke:none;stroke-width:0.184057"
       id="path630" />
    <path
       d="m 411.69061,149.91433 c -0.009,-0.004 -0.0166,-0.008 -0.023,-0.0136 -0.0576,-0.0431 -0.11356,-0.0913 -0.1697,-0.13805 -0.0346,-0.0287 -0.0712,-0.0567 -0.11429,-0.0725 -0.0366,-0.0138 -0.0755,-0.0188 -0.11357,-0.0274 -0.0655,-0.0144 -0.12957,-0.0337 -0.19271,-0.0554 -0.0806,-0.0287 -0.15534,-0.0668 -0.23448,-0.0992 -0.0639,-0.0265 -0.12866,-0.0438 -0.19547,-0.0639 -0.0532,-0.0166 -0.10363,-0.0433 -0.15682,-0.0576 -0.0589,-0.0173 -0.12295,-0.0245 -0.18331,-0.0344 -0.1351,-0.023 -0.26597,-0.0331 -0.40401,-0.0339 -0.0676,0 -0.13381,0.006 -0.19988,0.0245 -0.0698,0.0193 -0.1294,0.0561 -0.19639,0.0849 -0.0883,0.0374 -0.16823,0.0876 -0.25363,0.13013 -0.0994,0.0482 -0.19566,0.10418 -0.29191,0.15811 -0.0893,0.0512 -0.17762,0.12295 -0.25308,0.19271 -0.026,0.0245 -0.0554,0.0425 -0.0828,0.0655 -0.0302,0.0257 -0.051,0.0604 -0.0762,0.0913 -0.0251,0.0315 -0.046,0.0646 -0.0646,0.1 -0.0124,0.0243 -0.0302,0.0488 -0.0374,0.0747 -0.0188,0.0641 -0.021,0.1329 -0.021,0.19989 0,0.0337 -0.003,0.0698 0.002,0.10344 0.004,0.0368 0.0166,0.0712 0.0267,0.10712 0.008,0.0274 0.0121,0.0576 0.0295,0.0821 0.0201,0.0294 0.0396,0.0589 0.0596,0.0891 0.0201,0.0295 0.0482,0.0532 0.0725,0.0799 0.0267,0.0287 0.0534,0.0604 0.0836,0.0861 0.0237,0.0217 0.0539,0.0331 0.0804,0.0504 0.0374,0.0245 0.0641,0.0618 0.10289,0.0834 0.0468,0.026 0.10068,0.0396 0.15093,0.0574 0.0445,0.0158 0.0898,0.0302 0.1373,0.0331 0.0863,0.009 0.19694,0.0109 0.27259,-0.0374 0.10565,-0.0661 0.22068,-0.16399 0.25878,-0.28621 0.0166,-0.0488 0.0144,-0.0963 0.0144,-0.14669 7.1e-4,-0.051 -7e-4,-0.0955 -0.0287,-0.13933 -0.0158,-0.0252 -0.0282,-0.049 -0.0467,-0.0727 -0.0158,-0.0208 -0.0381,-0.0381 -0.0584,-0.0561 -0.0431,-0.0401 -0.10786,-0.0718 -0.16823,-0.0711 -0.0416,0 -0.0841,0 -0.12644,0 -0.008,0 -0.0252,-0.004 -0.0317,0.002 -0.003,0.002 -0.006,0.0173 -0.009,0.0202 -0.008,0.0129 -0.0186,0.023 -0.0215,0.0396 -0.003,0.0143 -0.003,0.0381 0.009,0.0473 0.008,0.007 0.0208,0.008 0.0302,0.0138 0.0173,0.009 0.033,0.0223 0.0495,0.0322 0.0274,0.0166 0.0475,0.0368 0.067,0.0618 0.0243,0.0324 0.0344,0.0641 0.0445,0.10362 0.009,0.0302 0.0136,0.0712 0.001,0.10142 -0.0138,0.0352 -0.0274,0.0468 -0.0618,0.0517 -0.0475,0.008 -0.0964,0.0114 -0.14467,0.0158 -0.0171,0.002 -0.0344,0.002 -0.0517,0.002 -0.0302,0 -0.0661,0.006 -0.0955,-0.002 -0.0418,-0.0109 -0.0935,-0.0418 -0.12019,-0.0755 -0.0144,-0.0188 -0.0193,-0.0433 -0.0295,-0.0648 -0.0107,-0.0223 -0.0245,-0.0396 -0.0287,-0.0639 -0.007,-0.0468 -0.0144,-0.0957 -0.006,-0.14319 0.008,-0.0517 0.0329,-0.10124 0.0502,-0.1502 0.0188,-0.0525 0.0547,-0.10288 0.0863,-0.1489 0.0295,-0.0445 0.0641,-0.0992 0.10859,-0.13086 0.0661,-0.048 0.13013,-0.0992 0.20136,-0.14081 0.0423,-0.0245 0.0861,-0.0453 0.12939,-0.0663 0.0574,-0.028 0.11209,-0.0624 0.17025,-0.0869 0.0828,-0.0346 0.16897,-0.0712 0.25603,-0.095 0.0791,-0.0223 0.16749,-0.0109 0.2459,0.006 0.0489,0.0116 0.0985,0.0123 0.14595,0.0274 0.049,0.0151 0.0935,0.0388 0.14025,0.0596 0.0856,0.0381 0.17541,0.0683 0.26302,0.10142 0.0756,0.028 0.1489,0.0611 0.22436,0.0876 0.0366,0.013 0.0633,0.0324 0.0957,0.0517 0.0245,0.0145 0.0473,0.0289 0.0747,0.0324 0.0193,0.003 0.0388,0.008 0.0574,0.0144 0.0353,0.0123 0.0705,0.0296 0.10067,0.0519 0.0433,0.0315 0.0648,0.0775 0.0913,0.12148 0.0309,0.0517 0.0648,0.0941 0.1086,0.13583 0.0906,0.0863 0.18921,0.17265 0.26743,0.27112 0.0648,0.0826 0.10786,0.18038 0.17191,0.26376 0.0381,0.0504 0.0762,0.10288 0.0906,0.16546 0.0143,0.0675 0.005,0.13584 0.0101,0.20412 0.004,0.069 0.0186,0.13013 0.0423,0.19492 0.0124,0.0337 0.0245,0.0676 0.0353,0.10197 0.0151,0.0512 0.0401,0.0856 0.0812,0.11945 0.026,0.0215 0.0532,0.0396 0.0814,0.0582 0.046,0.0324 0.0883,0.0749 0.1386,0.1 0.0705,0.0346 0.1489,0.0388 0.22583,0.0361 0.0841,-0.004 0.1732,-0.0289 0.25161,-0.0569 0.0512,-0.0188 0.10712,-0.0366 0.15387,-0.0641 0.0626,-0.0366 0.12,-0.0827 0.17614,-0.12719 0.14375,-0.11503 0.27461,-0.2667 0.32928,-0.44505 0.0215,-0.0727 0.0497,-0.14743 0.0561,-0.22289 0.008,-0.0777 0.026,-0.15535 0.0287,-0.23376 0.002,-0.0653 0.009,-0.14375 -0.0186,-0.20633 -0.0237,-0.0532 -0.0584,-0.10417 -0.0856,-0.15461 -0.0123,-0.0228 -0.0237,-0.048 -0.0374,-0.0703 -0.0151,-0.0217 -0.0403,-0.0403 -0.0604,-0.0576 -0.0252,-0.023 -0.046,-0.0482 -0.0712,-0.0705 -0.0282,-0.0258 -0.0648,-0.0453 -0.0977,-0.0611 -0.0324,-0.0143 -0.0611,-0.0265 -0.0987,-0.0309 -0.0502,-0.005 -0.11706,-0.004 -0.16381,0.0143 -0.0675,0.0274 -0.14025,0.0331 -0.2043,0.0712 -0.0624,0.0381 -0.12074,0.0834 -0.15442,0.15111 -0.0245,0.048 -0.0584,0.0913 -0.072,0.14448 -0.008,0.0302 -0.0208,0.0589 -0.028,0.0883 -0.007,0.0267 -0.003,0.0618 -0.002,0.0893 7e-4,0.0488 0.018,0.10344 0.0381,0.14872 0.0107,0.0245 0.0337,0.0611 0.0567,0.0762 0.0145,0.009 0.0309,0.0109 0.0455,0.0173 0.008,-0.0245 -0.0224,-0.0539 -0.003,-0.0791 0.008,-0.009 0.026,-0.0114 0.0351,-0.0215 0.0109,-0.0101 0.0151,-0.0208 0.0166,-0.0352 0.004,-0.0324 -0.008,-0.0683 0.006,-0.0992 0.009,-0.0188 0.0267,-0.0339 0.0403,-0.049 0.0267,-0.0302 0.051,-0.0633 0.0856,-0.0841 0.046,-0.0267 0.0871,-0.0596 0.14025,-0.072 0.0604,-0.0136 0.15166,-0.0287 0.20706,0.009 0.0631,0.0425 0.0755,0.13234 0.0769,0.2021 0,0.0409 0.004,0.0762 0.008,0.11651 0.006,0.0517 -0.009,0.0963 -0.0188,0.14595 -0.0136,0.0718 -0.0374,0.14725 -0.0733,0.21204 -0.041,0.0725 -0.11798,0.12295 -0.18774,0.16326 -0.0626,0.0359 -0.13583,0.0676 -0.2078,0.0804 -0.0294,0.006 -0.0639,0.004 -0.0935,0.002 -0.0473,-0.002 -0.0891,-0.0302 -0.13509,-0.0411 -0.0324,-0.007 -0.0582,-0.0201 -0.0856,-0.0396 -0.0416,-0.0295 -0.0849,-0.0525 -0.12148,-0.0891 -0.0302,-0.0302 -0.0539,-0.0618 -0.0747,-0.0992 -0.026,-0.0445 -0.0374,-0.0935 -0.0519,-0.14301 -0.0121,-0.0403 -0.0272,-0.0777 -0.0423,-0.11725 -0.0158,-0.0453 -0.0208,-0.0942 -0.0366,-0.14025 -0.0151,-0.0431 -0.0425,-0.0797 -0.0591,-0.12295 -0.0201,-0.0554 -0.0272,-0.11356 -0.048,-0.1697 -0.0173,-0.0453 -0.0339,-0.0906 -0.0497,-0.13584 -0.0215,-0.0626 -0.0151,-0.12644 -0.0517,-0.18479 -0.0352,-0.0547 -0.0883,-0.0928 -0.12222,-0.14817 -0.0129,-0.0208 -0.026,-0.0423 -0.0475,-0.0559 -0.0129,-0.009 -0.0287,-0.0131 -0.0431,-0.0195"
       style="fill:#21201d;fill-opacity:1;fill-rule:nonzero;stroke:none;stroke-width:0.184057"
       id="path632" />
  </g>
</svg>
