<?xml version="1.0" encoding="UTF-8" standalone="no"?>
<!-- Created with Inkscape (http://www.inkscape.org/) -->

<svg
   width="6.3571401mm"
   height="6.8899727mm"
   viewBox="0 0 6.3571401 6.8899727"
   version="1.1"
   id="svg2025"
   inkscape:version="1.1.2 (0a00cf5339, 2022-02-04)"
   sodipodi:docname="c7.svg"
   xmlns:inkscape="http://www.inkscape.org/namespaces/inkscape"
   xmlns:sodipodi="http://sodipodi.sourceforge.net/DTD/sodipodi-0.dtd"
   xmlns="http://www.w3.org/2000/svg"
   xmlns:svg="http://www.w3.org/2000/svg">
  <sodipodi:namedview
     id="namedview2027"
     pagecolor="#ffffff"
     bordercolor="#666666"
     borderopacity="1.0"
     inkscape:pageshadow="2"
     inkscape:pageopacity="0.0"
     inkscape:pagecheckerboard="0"
     inkscape:document-units="mm"
     showgrid="false"
     inkscape:zoom="0.64052329"
     inkscape:cx="-1278.642"
     inkscape:cy="639.32102"
     inkscape:window-width="2560"
     inkscape:window-height="1376"
     inkscape:window-x="0"
     inkscape:window-y="0"
     inkscape:window-maximized="1"
     inkscape:current-layer="layer1" />
  <defs
     id="defs2022" />
  <g
     inkscape:label="Layer 1"
     inkscape:groupmode="layer"
     id="layer1"
     transform="translate(-443.35632,20.794099)">
    <path
       d="m 447.12495,-14.504255 v 0 c 0.013,-0.0029 0.0254,-0.0044 0.0361,-0.0044 -0.013,-0.0028 -0.0254,-0.0042 -0.0367,0.0044"
       style="fill:#21201d;fill-opacity:1;fill-rule:nonzero;stroke:none;stroke-width:0.184057"
       id="path530" />
    <path
       d="m 447.18164,-14.503518 c -0.005,-0.0037 -0.012,-0.0044 -0.0201,-0.0052 0.006,0.0015 0.0138,0.0037 0.0201,0.0052"
       style="fill:#21201d;fill-opacity:1;fill-rule:nonzero;stroke:none;stroke-width:0.184057"
       id="path532" />
    <path
       d="m 449.68795,-16.089546 c -0.006,-0.03092 -0.005,-0.06258 -0.009,-0.0935 -0.0166,-0.110067 -0.0455,-0.209274 -0.11154,-0.307009 -0.0626,-0.09276 -0.13434,-0.176879 -0.22511,-0.252343 -0.0581,-0.04969 -0.11356,-0.09994 -0.17466,-0.146694 -0.0661,-0.05117 -0.11928,-0.104913 -0.19343,-0.148903 -0.056,-0.03295 -0.11356,-0.05816 -0.17395,-0.08632 -0.074,-0.03442 -0.15311,-0.06111 -0.22712,-0.09479 -0.0229,-0.01013 -0.0418,-0.02227 -0.0676,-0.03018 -0.004,-7.4e-4 -0.004,-0.0015 -0.005,-0.0015 -0.0113,0.0029 -0.0215,0.0057 -0.0328,0.0064 -0.0353,0.0022 -0.067,-0.01215 -0.10065,-0.01804 -0.0368,-0.0072 -0.0734,-0.0092 -0.10936,-0.02006 -0.0366,-0.01086 -0.0747,-0.02301 -0.11208,-0.03515 -0.0368,-0.0116 -0.0727,-0.02743 -0.10858,-0.04105 0,0.0029 0,0.0057 0,0.0079 -0.14302,-0.01877 -0.28822,-0.02375 -0.43272,-0.03957 -0.031,-0.0035 -0.0626,-0.0064 -0.0935,-0.005 -0.0547,0.0028 -0.0977,-0.0057 -0.15092,-0.01233 -0.0663,-0.0064 -0.1294,-0.01932 -0.19491,-0.03019 -0.0381,-0.0064 -0.0769,-0.01141 -0.1143,-0.01785 -0.0102,-0.0015 -0.0152,-7.41e-4 -0.0229,-0.0059 -0.018,-0.01215 -0.0258,-0.03148 -0.046,-0.04381 -0.0339,-0.02006 -0.0762,-0.03313 -0.10784,-0.05614 0.0166,-0.03589 0.0317,-0.07325 0.0418,-0.112091 0.018,-0.06755 0.0159,-0.138044 0.0366,-0.204857 0.0215,-0.06626 0.0468,-0.131601 0.0661,-0.197678 0.009,-0.03019 0.0152,-0.06111 0.0187,-0.09203 0.004,-0.01454 0,-0.03019 0.006,-0.04399 0.008,-0.02577 0.0222,-0.04878 0.0286,-0.07694 0.006,-0.02577 0.0109,-0.05246 0.0166,-0.07822 0.004,-0.0072 0.004,-0.01454 0.005,-0.02245 0.0272,0.01657 0.0545,0.03313 0.0819,0.04896 0.0927,0.0554 0.19692,0.08779 0.28748,0.145958 0.0433,0.02798 0.0836,0.07546 0.11796,0.115036 0.0332,0.03884 0.0539,0.08485 0.0819,0.127184 0.0268,0.04031 0.0591,0.06847 0.092,0.101415 0.0532,0.05172 0.0979,0.115773 0.14319,0.175408 0.009,0.01233 0.0166,0.02448 0.0229,0.03755 0.012,-0.0059 0.0236,-0.01086 0.0366,-0.0138 0.0194,-0.0064 0.0381,-0.0094 0.0574,-0.01141 0.0512,-0.0072 0.0999,-0.02025 0.14817,-0.04031 0.0431,-0.01804 0.0977,-0.04178 0.1452,-0.06976 0,-0.01012 -0.004,-0.02006 -0.004,-0.03092 -0.006,-0.02797 -0.008,-0.05669 -0.0138,-0.08559 -0.005,-0.02227 -0.01,-0.06681 -0.0251,-0.08761 -0.0102,-0.01233 -0.0268,-0.01951 -0.0374,-0.03019 -0.0194,-0.01877 -0.0332,-0.04325 -0.0475,-0.06552 -0.0138,-0.02153 -0.025,-0.04381 -0.046,-0.05964 -0.018,-0.01436 -0.0396,-0.02006 -0.0584,-0.03313 -0.0335,-0.02227 -0.0423,-0.03589 -0.0876,-0.03957 -0.0396,-0.0028 -0.0792,0.0029 -0.11945,0.0037 -0.0279,7.41e-4 -0.0473,-0.0037 -0.0574,-0.0324 -0.006,-0.0173 -0.0102,-0.03589 -0.0159,-0.05393 -0.0138,-0.03957 -0.0293,-0.07694 -0.0596,-0.106386 -0.0317,-0.03092 -0.0618,-0.05963 -0.0878,-0.09626 -0.0236,-0.03387 -0.0416,-0.07123 -0.0653,-0.105097 -0.0303,-0.04307 -0.049,-0.08982 -0.0827,-0.130865 -0.0131,-0.01565 -0.0208,-0.03221 -0.0346,-0.04528 -0.0173,-0.01785 -0.0215,-0.04878 -0.041,-0.06387 -0.0229,-0.01951 -0.0495,0.01509 -0.0762,0.01436 -0.025,-0.0015 -0.0552,-0.02301 -0.0782,-0.03387 -0.0303,-0.01436 -0.0613,-0.02871 -0.0935,-0.0381 -0.0317,-0.0094 -0.0633,-0.01657 -0.095,-0.02374 -0.004,-0.02153 -0.005,-0.04307 -0.008,-0.06387 -0.008,-0.04602 -0.0166,-0.09074 -0.0229,-0.136019 -0.004,-0.0243 0,-0.04877 -0.004,-0.07325 -0.005,-0.03313 -0.0145,-0.06405 -0.0138,-0.09774 0,-0.03884 -0.0127,-0.0762 -0.0265,-0.113747 -0.0116,-0.03295 -0.0293,-0.06534 -0.0425,-0.09847 -0.0138,-0.03442 -0.0265,-0.06828 -0.0431,-0.09994 -0.0275,-0.05098 -0.0589,-0.101968 -0.092,-0.149455 -0.0254,-0.03736 -0.0517,-0.07473 -0.0834,-0.107122 -0.005,-0.0052 -0.0145,-0.02025 -0.0229,-0.03092 0.0152,0.0035 0,-0.0072 -0.008,-0.0173 -0.0145,-0.01804 -0.0215,-0.03092 -0.0438,-0.01657 -0.0145,0.01012 -0.0222,0.02374 -0.036,0.0346 -0.0127,0.01067 -0.0251,0.02153 -0.0396,0.02798 -0.0258,0.0116 -0.074,0.0116 -0.092,0.03515 -0.012,0.01657 0.004,0.02025 0.0152,0.03037 0.005,0.0042 0.018,0.01288 0.0219,0.01785 0.005,0.0079 0.004,0.02227 0.006,0.03166 0.008,0.02153 0.0173,0.04178 0.0243,0.06405 0.0124,0.03589 0.0416,0.06184 0.0539,0.09774 0.0145,0.04233 0.0339,0.0878 0.0547,0.12792 0.0113,0.02374 0.0215,0.04399 0.0265,0.07049 0.004,0.02522 0.006,0.05043 0.0102,0.07399 0.008,0.04252 0.0296,0.07767 0.0374,0.117981 0.0113,0.05043 0.013,0.09571 0.013,0.145958 0,0.02227 0,0.04454 0,0.06608 -0.004,0 -0.007,-5.65e-4 -0.0113,-5.65e-4 -0.0152,0 -0.0275,0 -0.0418,-0.0059 -0.0467,-0.01932 -0.0862,-0.04601 -0.1373,-0.05595 -0.0611,-0.01159 -0.12442,0.01583 -0.18626,0.0072 -0.0387,-0.0052 -0.0661,-0.02301 -0.10125,-0.03313 -0.0339,-0.0094 -0.0841,0.0037 -0.11871,0.0086 -0.0597,0.0072 -0.10492,0.04307 -0.16104,0.06332 -0.0317,0.01141 -0.0653,0.01638 -0.0943,0.03515 -0.0279,0.01804 -0.0524,0.04031 -0.0826,0.05467 -0.0446,0.02153 -0.0913,0.03515 -0.13952,0.04822 -0.11557,0.03019 -0.21699,0.10841 -0.30628,0.18461 -0.0388,0.03387 -0.0755,0.07049 -0.1027,0.114484 -0.0374,0.0589 -0.092,0.106386 -0.14319,0.155161 -0.0346,0.0346 -0.0703,0.05908 -0.0999,0.09921 -0.0353,0.04896 -0.0747,0.09571 -0.0963,0.153136 -0.0138,0.03755 -0.0346,0.07565 -0.0525,0.113012 0.0339,0.0079 0.0675,0.0092 0.10862,0.0015 0.0567,-0.01012 0.10784,0.0099 0.15384,0.02945 0.0532,0.02301 0.0978,0.04749 0.15389,0.0646 0.004,-0.0035 0.004,-0.0072 0.005,-0.01141 0.0626,-0.142461 0.15885,-0.25897 0.25731,-0.37327 0.004,-0.02006 0.0187,-0.03295 0.0374,-0.04233 0.007,-0.0086 0.0138,-0.01583 0.0208,-0.02374 -0.007,0.0079 -0.0123,0.01509 -0.0173,0.02153 0.0194,-0.0094 0.0411,-0.0173 0.0547,-0.02577 0.0166,-0.01013 0.0265,-0.03387 0.0438,-0.04473 0.0145,-0.0079 0.0374,-0.01583 0.0532,-0.01785 0.0268,-0.0044 0.0475,-0.01233 0.0734,-0.02098 0.0401,-0.01362 0.0804,-0.01785 0.12001,-0.03368 0.0325,-0.01288 0.0626,-0.01362 0.0977,-0.01804 0.0539,-0.0057 0.10859,-0.01288 0.16252,-0.01785 0.0446,-0.0037 0.0834,0.0035 0.12718,0.0079 0.0497,0.005 0.0994,-7.41e-4 0.14817,0.0035 0.0569,0.005 0.11229,0.02227 0.16824,0.03387 -0.0145,0.08117 -0.0145,0.165284 -0.0159,0.24719 0,0.08927 -0.0618,0.143197 -0.10565,0.211482 -0.0145,0.02227 -0.0317,0.03884 -0.0482,0.05964 -0.0106,0.01436 -0.0187,0.02595 -0.0236,0.04252 -0.004,0.0099 -0.004,0.0208 -0.007,0.03092 -0.008,0.02153 -0.0194,0.0416 -0.0286,0.06166 -0.0215,0.04325 -0.0403,0.08706 -0.0596,0.130129 -0.006,0.0066 -0.0116,0.01454 -0.018,0.01951 -0.0145,0.01215 -0.0366,0.02374 -0.0559,0.03092 -0.0375,0.01362 -0.087,0.02301 -0.12587,0.02798 -0.0597,0.0079 -0.11875,0.01804 -0.17837,0.02448 -0.0353,0.0029 -0.0705,0.005 -0.10565,0.0037 -0.0819,-0.0022 -0.16179,-0.03608 -0.23577,-0.06056 -0.0418,-0.01362 -0.092,-0.01509 -0.13804,-0.01932 -0.0734,-0.0072 -0.14891,-0.0079 -0.22214,-0.0064 -0.0282,7.41e-4 -0.0554,-7.4e-4 -0.0827,-0.0022 0,-0.0022 0.004,-0.0042 0.004,-0.0072 h -0.004 c -0.0226,0.0029 -0.046,0.0057 -0.0685,0.0037 -0.0303,-0.0022 -0.0525,-0.01951 -0.0804,-0.02448 -0.0243,-0.0044 -0.051,-0.0022 -0.0762,-0.0057 -0.0762,-0.01307 -0.16545,-0.03608 -0.22362,-0.07694 -0.0332,-0.02301 -0.0777,-0.03092 -0.11134,-0.05117 -0.0275,-0.01141 -0.0534,-0.02448 -0.0806,-0.03663 -0.0604,-0.02798 -0.12369,-0.05246 -0.18108,-0.08412 -0.0814,-0.04454 -0.13237,-0.115036 -0.18334,-0.181112 -0.0648,-0.08412 -0.14521,-0.156082 -0.19491,-0.24811 -0.0388,-0.07123 -0.0661,-0.160315 -0.0733,-0.237988 -0.007,-0.07694 -0.0131,-0.161786 -0.006,-0.238722 0.007,-0.06829 0.006,-0.153137 0.0505,-0.213508 0.0127,-0.01877 0.0325,-0.03387 0.0488,-0.05098 0.0116,-0.0116 0.0222,-0.02448 0.0318,-0.0381 0.0403,-0.05466 0.0813,-0.10933 0.12865,-0.161787 0.0131,-0.01583 0.0254,-0.03092 0.0368,-0.04749 0.0194,-0.02024 0.0401,-0.03884 0.0626,-0.05687 0.0194,-0.01859 0.0353,-0.0381 0.0495,-0.05963 0.0332,-0.05246 0.0589,-0.106386 0.0962,-0.156818 0.031,-0.0416 0.0641,-0.08411 0.0893,-0.129392 0.008,-0.01436 0.0159,-0.02301 0.0279,-0.03442 0.0332,-0.03019 0.0655,-0.06184 0.10068,-0.08927 0.0353,-0.02724 0.0648,-0.05374 0.0913,-0.08908 0.0268,-0.03442 0.0576,-0.04601 0.0913,-0.07252 0.0346,-0.02669 0.0799,-0.04546 0.12298,-0.05835 0.0366,-0.01067 0.0618,-0.01785 0.0806,-0.0554 0.0113,-0.02374 0.0113,-0.04951 0.0159,-0.07473 0.004,-0.01804 0.0166,-0.03663 0.0194,-0.05246 0,-0.01013 -0.004,-0.02006 0,-0.03092 0,-0.01086 0.009,-0.01509 0.004,-0.02595 -0.01,-0.01638 -0.0381,-0.01509 -0.0524,-0.01583 0,-0.0042 -0.004,-0.0092 -0.005,-0.01436 -0.009,-0.0015 -0.0162,0.0029 -0.0251,0.0015 -0.01,-7.41e-4 -0.0102,-0.0072 -0.0187,-0.0079 -0.007,-7.4e-4 -0.0152,0.0029 -0.0229,0.0029 -0.0102,-0.0015 -0.0173,-0.0079 -0.0272,-0.0072 -0.0215,0.0028 -0.0403,0.01436 -0.0591,0.02448 -0.008,0.0042 -0.0229,0.0085 -0.0296,0.01436 -0.006,0.0057 -0.006,0.01067 -0.0127,0.01583 -0.018,0.01362 -0.0504,0.02006 -0.0712,0.02871 -0.0236,0.01012 -0.0475,0.02006 -0.0712,0.03018 -0.0883,0.04031 -0.17466,0.08485 -0.25732,0.136571 -0.0574,0.03515 -0.11796,0.06608 -0.17466,0.102889 -0.0569,0.03663 -0.1108,0.0762 -0.16898,0.110619 -0.0539,0.03239 -0.10361,0.07197 -0.15035,0.110066 -0.0387,0.0324 -0.0668,0.06681 -0.0955,0.105649 -0.031,0.03957 -0.0668,0.0762 -0.0992,0.115773 -0.0317,0.03884 -0.0497,0.07694 -0.072,0.118717 -0.0229,0.0416 -0.0467,0.07694 -0.0755,0.115036 -0.012,0.01712 -0.0215,0.03663 -0.0346,0.05448 -0.0243,0.0346 -0.0547,0.06479 -0.0756,0.10068 -0.0539,0.09718 -0.10417,0.206329 -0.11356,0.311426 -0.004,0.05098 -0.007,0.101416 -0.009,0.151664 0,0.02871 0.008,0.05319 0.0124,0.08117 0.005,0.0289 0.005,0.05687 0.008,0.08559 0.0159,0.09994 0.0416,0.1905 0.10269,0.280505 0.0576,0.08411 0.12369,0.160314 0.20708,0.230072 0.0532,0.04454 0.10361,0.09056 0.15956,0.13289 0.0606,0.04675 0.10933,0.09645 0.17763,0.136571 0.0512,0.03092 0.10435,0.05338 0.15959,0.07915 0.0187,0.0086 0.0381,0.01583 0.0583,0.02374 0.006,0.0029 0.0138,0.0057 0.0201,0.0079 0.0569,0.0173 0.11356,0.02945 0.16972,0.04822 0.069,0.02301 0.14171,0.03092 0.21001,0.0589 0.0279,0.01086 0.0546,0.02522 0.0848,0.0324 0.0265,0.005 0.0502,0.0094 0.0747,0.02006 0.0318,0.01435 0.0502,0.02595 0.0863,0.02871 0.0293,0.0022 0.0552,0.0052 0.0841,0.01307 0.0559,0.01288 0.10713,0.01141 0.16527,0.01215 0.007,0 0.0145,0 0.0208,0 0,-0.0042 0,-0.0079 0.004,-0.01141 0.0388,0.0028 0.0777,0.0064 0.11723,0.01068 0.0286,0.0029 0.0567,0.0059 0.0856,0.0044 0.0488,-0.0022 0.0883,0.005 0.1373,0.01067 0.0712,0.0079 0.15021,0.03884 0.22288,0.02743 0.0222,-0.0044 0.0416,-0.01159 0.0654,-0.01086 0.067,0.0044 0.12587,0.0589 0.16545,0.097 0.0272,0.02595 0.0401,0.05908 0.0653,0.08706 0.0109,0.01233 0.0268,0.02227 0.0366,0.03534 0.0109,0.01565 0.0152,0.03442 0.0229,0.05098 0.007,0.01436 0.0145,0.02871 0.0219,0.04307 0,7.41e-4 0,0.0015 0,0.0015 -0.0102,0.02595 -0.0159,0.05319 -0.0194,0.08135 -0.004,0.03221 0,0.06387 0,0.09553 0,0.03884 -0.0145,0.07197 -0.0236,0.10933 -0.0131,0.05319 -0.0152,0.101968 -0.0155,0.15737 0,0.06184 0.013,0.121478 0.0152,0.183322 0,0.03681 0.0127,0.07418 0.0106,0.111539 0,0.0087 -0.004,0.01785 -0.004,0.0265 -0.004,0.0079 -0.0116,0.01436 -0.0131,0.02172 -0.006,0.02153 0.0102,0.06608 0.0138,0.08982 0.009,0.06976 0.0113,0.140804 0.0222,0.210562 -0.0525,-0.0042 -0.10365,-0.01509 -0.1524,-0.03884 -0.0663,-0.03148 -0.11875,-0.08117 -0.17614,-0.128656 -0.0534,-0.04381 -0.10933,-0.06829 -0.14672,-0.13289 -0.0131,-0.02301 -0.0229,-0.04896 -0.0368,-0.07123 -0.0201,-0.03092 -0.048,-0.05319 -0.071,-0.08135 -0.0446,-0.05172 -0.067,-0.120742 -0.10361,-0.178905 -0.0187,-0.0289 -0.0388,-0.0554 -0.0611,-0.08062 -0.0381,-0.04307 -0.0676,-0.07105 -0.092,-0.127184 -0.0236,-0.05172 -0.0446,-0.09994 -0.074,-0.148903 -0.0418,-0.07105 -0.0453,-0.15737 -0.0374,-0.245165 -0.0591,0.01583 -0.11723,0.03387 -0.17833,0.02595 -0.0475,-0.0064 -0.0913,-0.0173 -0.13952,-0.01951 -0.0488,-0.002 -0.0985,0.0059 -0.14743,7.41e-4 0.004,0.01878 0.005,0.03736 0.007,0.0554 0.006,0.05393 0.0222,0.104177 0.0265,0.157554 0.004,0.03589 0.0166,0.06608 0.0208,0.101968 0.004,0.04178 0.01,0.08264 0.0123,0.124423 0.004,0.03736 0.01,0.112092 0.0626,0.115037 0.0159,7.4e-4 0.0374,-0.01657 0.0532,-0.0064 0.0194,0.01215 0.0152,0.04822 0.0169,0.06681 0.0138,0.107121 0.0453,0.219949 0.0965,0.314923 0.0254,0.04896 0.0475,0.09994 0.074,0.14743 0.0152,0.02798 0.0411,0.05025 0.0584,0.07767 0.0145,0.02374 0.0293,0.05964 0.0574,0.07105 0.0102,0.0029 0.0208,0 0.0303,0.0044 0.0145,0.0064 0.0173,0.01436 0.0346,0.0173 0.051,0.01067 0.0718,0.03221 0.10195,0.07178 0.0388,0.05117 0.0985,0.07473 0.15462,0.101416 0.069,0.03313 0.1373,0.06479 0.20705,0.09497 0.006,0.0028 0.0138,0.0064 0.0208,0.0092 0.11723,0.05117 0.23153,0.09792 0.35595,0.124423 0.0661,0.01436 0.13307,0.02669 0.19915,0.03957 0.0145,0.02669 0.0275,0.05393 0.0381,0.08264 0.0222,0.06479 0.0475,0.120926 0.0819,0.179825 0.0618,0.102704 0.10287,0.216452 0.16471,0.31842 0.031,0.0519 0.0648,0.09847 0.0928,0.153136 0.0145,0.0289 0.0258,0.05319 0.0453,0.07915 0.0201,0.02522 0.0303,0.04822 0.0381,0.08062 0.004,0.01436 0.0109,0.0381 0.0138,0.05448 0,0.0037 0,0.01878 0.004,0.02245 0.01,0.0092 0.041,-0.0052 0.0517,-0.0079 0.0194,-0.0066 0.0361,-0.01657 0.0554,-0.02245 0.0159,-0.005 0.0229,-0.0085 0.0366,-0.01638 0.0152,-0.0086 0.031,-0.01012 0.0475,-0.0173 0.0286,-0.01288 0.0561,-0.02669 0.0856,-0.03387 0.006,-0.002 0.0467,-0.01141 0.0488,-0.01362 0.006,-0.0094 -0.008,-0.02374 -0.0127,-0.03166 -0.018,-0.02871 -0.0293,-0.06184 -0.0467,-0.09276 -0.0325,-0.05816 -0.0762,-0.10933 -0.12146,-0.157369 -0.0244,-0.02595 -0.0562,-0.05117 -0.072,-0.08412 -0.0265,-0.0519 -0.0387,-0.113564 -0.0597,-0.168229 -0.0366,-0.09571 -0.0769,-0.189211 -0.11779,-0.281976 0.0152,-0.0013 0.0303,-0.0028 0.0453,-0.0035 0.16379,-0.0094 0.33496,0.01933 0.496,-0.01877 0.0878,-0.02153 0.16898,-0.06608 0.25531,-0.09405 0.031,-0.01013 0.0676,-0.01509 0.0948,-0.0324 0.0296,-0.01804 0.0482,-0.04178 0.0806,-0.05393 0.031,-0.01233 0.0532,-0.02797 0.0812,-0.04601 0.0117,-0.0072 0.0258,-0.01657 0.0403,-0.01657 0.0138,0 0.0236,0.01012 0.0367,0.01086 0.0208,0.002 0.0346,-0.01583 0.0512,-0.02816 0.0222,-0.01712 0.0438,-0.03295 0.0646,-0.05246 0.0584,-0.05614 0.11504,-0.102152 0.18849,-0.136571 0.0488,-0.02301 0.0782,-0.08191 0.11134,-0.121478 0.0293,-0.03534 0.0626,-0.06553 0.0898,-0.101416 0.0187,-0.02374 0.0324,-0.0497 0.0418,-0.07841 0.005,-0.01436 0.008,-0.03019 0.0127,-0.04381 0.0131,-0.03313 0.0361,-0.06184 0.0497,-0.09497 0.006,-0.01657 0.0138,-0.03221 0.0194,-0.04877 -0.008,-0.01381 -0.0166,-0.02669 -0.0265,-0.03957 -0.0145,-0.01804 -0.0289,-0.03387 -0.0418,-0.05246 -0.004,-0.0064 -0.006,-0.01086 -0.013,-0.01657 -0.0166,-0.01657 -0.0438,-0.02798 -0.0648,-0.04178 -0.0236,-0.01712 -0.048,-0.03515 -0.0718,-0.05319 -0.0318,-0.02301 -0.0633,-0.04454 -0.10068,-0.06184 -0.0303,-0.01436 -0.0539,-0.02503 -0.0769,-0.04601 -0.0123,-0.01141 -0.0243,-0.02301 -0.0374,-0.03368 -0.0219,0.03442 -0.0433,0.06902 -0.0598,0.109146 -0.0303,0.06976 -0.051,0.136019 -0.0933,0.199151 -0.0296,0.04473 -0.0611,0.08779 -0.0893,0.13381 -0.0296,0.04675 -0.046,0.103624 -0.0755,0.148903 -0.0403,0.06313 -0.12866,0.12295 -0.19417,0.150191 -0.0194,0.0086 -0.0408,0.01215 -0.0618,0.01804 -0.0416,0.01068 -0.0762,0.03092 -0.1143,0.04951 -0.0624,0.03092 -0.1408,0.04325 -0.20835,0.05467 -0.0893,0.01583 -0.17414,0.01288 -0.26321,0.005 -0.0268,-0.002 -0.0525,-5.64e-4 -0.0777,-0.0099 -0.0243,-0.0094 -0.046,-0.02816 -0.069,-0.04031 -0.0318,-0.01509 -0.0698,-0.02153 -0.1029,-0.0324 -0.0328,-0.0099 -0.0611,-0.01583 -0.0955,-0.01362 -0.0109,7.41e-4 -0.0215,0.0029 -0.0324,0.0037 -0.004,-0.067 0,-0.13381 -0.0138,-0.200623 -0.008,-0.03313 -0.018,-0.06553 -0.0222,-0.09921 -0.004,-0.0381 0,-0.07841 0,-0.117245 0,-0.06479 0,-0.13381 0.0166,-0.196942 0.0159,-0.05835 0.0438,-0.113011 0.0646,-0.170438 0.0201,-0.05687 0.0254,-0.117981 0.046,-0.175407 0.004,-7.41e-4 0.005,-0.0022 0.008,-0.0037 0.0576,-0.0173 0.11575,-0.01859 0.1682,-0.04749 0.0453,-0.02577 0.0928,-0.07252 0.14743,-0.08485 0.0268,-0.0057 0.0438,-0.005 0.069,-0.01583 0.0138,-0.0057 0.0286,-0.01288 0.0438,-0.01565 0.0289,-0.0052 0.0519,0.0064 0.0791,0.0072 0.0374,0.0013 0.0769,-0.0015 0.1143,-0.0029 0.0353,-0.0015 0.0668,-0.0022 0.10068,0.0037 0.0236,0.0042 0.046,0.0099 0.069,0.01068 0.0187,0 0.0374,-0.0022 0.0547,7.41e-4 0.0208,0.0042 0.031,0.01657 0.0475,0.02301 0.0446,0.01804 0.12866,0.0072 0.1789,0.0057 0.0606,-0.0015 0.12093,0.0059 0.18129,0.0052 0.0359,0 0.0718,-0.0066 0.10714,-7.4e-4 0.0618,0.01068 0.11648,0.03663 0.17042,0.06387 0.0258,7.4e-4 0.051,0.0029 0.0762,0.0072 0.0201,0.0052 0.0525,0.0087 0.0733,0.01509 0.0497,0.0173 0.0784,0.05466 0.11207,0.08706 0.0166,0.01583 0.0339,0.03092 0.0561,0.04178 0.0116,0.0057 0.0236,0.0079 0.0353,0.01288 0.0173,0.0079 0.0314,0.02153 0.0473,0.0324 0,-0.0052 0,-0.0094 0.004,-0.01362 0.0423,0.01859 0.0849,0.03736 0.12517,0.05964 0.0408,0.02301 0.0747,0.05172 0.10492,0.08411 0.0159,0.0086 0.031,0.01859 0.0445,0.02945 0.0381,0.02945 0.0633,0.07767 0.0799,0.120006 0.0639,0.07767 0.13582,0.149639 0.1833,0.23725 0.0416,0.07694 0.0718,0.175408 0.0792,0.260258 0.007,0.08485 0.0138,0.177616 0.005,0.263203 -0.008,0.07399 -0.006,0.167493 -0.0554,0.23449 -0.0138,0.02006 -0.0353,0.03663 -0.0532,0.05522 -0.0127,0.01381 -0.0243,0.02669 -0.0346,0.04105 -0.0455,0.06184 -0.09,0.120742 -0.14174,0.179089 -0.0145,0.01638 -0.0286,0.03368 -0.041,0.05246 -0.0215,0.0208 -0.0438,0.04233 -0.0683,0.06111 -0.0215,0.02153 -0.0381,0.04307 -0.0539,0.06681 -0.0374,0.05761 -0.0646,0.116509 -0.1064,0.172647 -0.0403,0.05319 -0.0762,0.109146 -0.11652,0.163075 -0.0453,0.06037 -0.10488,0.108594 -0.1638,0.155345 -0.0229,0.01804 -0.0433,0.03313 -0.0604,0.05614 -0.0159,0.01933 -0.0411,0.0381 -0.0618,0.05246 -0.0325,0.02595 -0.0539,0.07252 -0.0598,0.112091 -0.004,0.01877 -0.007,0.05687 0.005,0.07418 0.008,0.01215 0.0279,0.01583 0.0381,0.02503 0.004,0.0044 0.007,0.01233 0.0109,0.01436 0.01,0.0074 0.0279,0.0059 0.0387,0.0116 0.0289,0.01436 0.0375,0.02301 0.0697,0.0094 0.0166,-0.0064 0.0296,-0.0116 0.0467,-0.01583 0.0268,-0.0072 0.0475,-0.02669 0.0712,-0.03957 0.0102,-0.0057 0.0208,-0.0086 0.0303,-0.01509 0.0127,-0.0079 0.0208,-0.02595 0.0339,-0.0324 0.0106,-0.0057 0.0258,-0.0035 0.0366,-0.005 0.0353,-0.0037 0.0626,0.0099 0.097,-0.0079 0.0324,-0.01657 0.0633,-0.04105 0.0942,-0.06111 0.0317,-0.01951 0.0626,-0.0381 0.0942,-0.05835 0.0618,-0.04086 0.1215,-0.08338 0.18535,-0.122215 0.0583,-0.03442 0.11303,-0.07896 0.16401,-0.120742 0.0431,-0.03515 0.0732,-0.07399 0.10565,-0.115772 0.0339,-0.04454 0.0734,-0.08411 0.10859,-0.127184 0.0346,-0.04325 0.0539,-0.08485 0.0791,-0.130866 0.0254,-0.04528 0.051,-0.08411 0.0827,-0.126631 0.0138,-0.01933 0.0236,-0.03957 0.0374,-0.05964 0.0268,-0.0381 0.0611,-0.07123 0.0834,-0.111355 0.0598,-0.105834 0.11504,-0.226576 0.12591,-0.341612 0.004,-0.05595 0.007,-0.110619 0.01,-0.166756 0,-0.03092 -0.008,-0.05816 -0.0131,-0.08908"
       style="fill:#21201d;fill-opacity:1;fill-rule:nonzero;stroke:none;stroke-width:0.184057"
       id="path534" />
    <path
       d="m 445.61442,-20.613505 c 0.0138,-0.02153 0.0683,-0.02006 0.0906,-0.0243 0.0596,-0.01454 0.11705,-0.03166 0.17685,-0.04749 0.0567,-0.01509 0.11504,-0.02301 0.17321,-0.02945 0.0712,-0.0079 0.1373,-0.04105 0.20853,-0.04969 0.0554,-0.0079 0.11063,-0.01583 0.16676,-0.0208 0.0303,-0.0037 0.0834,-0.01509 0.11281,-0.0044 0.0145,0.0059 0.0152,0.0138 0.0244,0.02595 0.0208,0.02522 0.0562,0.03387 0.0799,0.05614 0.0215,0.01932 0.0423,0.07252 0.0718,0.07694 0.0219,0.0028 0.0403,-0.0079 0.0626,-0.0015 0.0254,0.0072 0.0576,0.02724 0.0727,0.04822 0.0166,0.02356 0,0.04454 -0.018,0.06111 -0.0416,0.03736 -0.10142,0.06037 -0.1524,0.08043 -0.0863,0.0346 -0.16326,0.02669 -0.25234,0.01362 -0.141,-0.0208 -0.28049,-0.01509 -0.42206,-7.41e-4 -0.0791,0.0087 -0.15882,0.02098 -0.23724,0.02669 -0.0727,0.005 -0.13949,-0.03589 -0.21202,-0.01288 -0.0497,0.01657 -0.0915,0.04528 -0.13604,0.07105 -0.013,0.0072 -0.0257,0.01509 -0.0359,7.41e-4 -0.007,-0.01067 -0.004,-0.05098 -0.006,-0.06258 -0.004,-0.0243 -0.0152,-0.06681 -0.0109,-0.09129 0.005,-0.02374 0.031,-0.03018 0.051,-0.04086 0.041,-0.02098 0.0935,-0.04325 0.13949,-0.05117 0.0425,-0.0072 0.0799,-0.02798 0.0519,-0.02375"
       style="fill:#21201d;fill-opacity:1;fill-rule:nonzero;stroke:none;stroke-width:0.184057"
       id="path536" />
    <path
       d="m 447.06092,-20.568779 c -0.008,0.03663 0,0.07105 0.004,0.10841 0.004,0.0346 0.0215,0.04031 0.048,0.05835 0.0201,0.01509 0.0519,0.04822 0.0756,0.0554 0.0374,0.0086 0.0978,-0.03313 0.12351,0.0064 0.0138,0.0208 0.004,0.03313 0.0346,0.03884 0.0222,0.0042 0.0416,0.0042 0.0641,0.01288 0.0328,0.01288 0.0624,0.02301 0.094,-0.005 0.0282,-0.02522 0.0339,-0.07988 0.0286,-0.115037 -0.005,-0.0381 -0.0307,-0.06902 -0.0567,-0.09571 -0.0215,-0.02006 -0.0475,-0.03515 -0.0683,-0.05669 -0.01,-0.01086 -0.0124,-0.02669 -0.0222,-0.03681 -0.008,-0.0092 -0.0215,-0.0079 -0.0317,-0.01509 -0.008,-0.0064 -0.013,-0.01583 -0.0173,-0.02374 -0.0152,-0.02301 -0.0215,-0.03092 -0.049,-0.02945 -0.0208,0.0015 -0.0423,0.0052 -0.0631,0.0072 -0.0361,0.0037 -0.0777,7.41e-4 -0.10583,0.0289 -0.018,0.02006 -0.0286,0.05246 -0.0346,0.07749 -0.004,0.0086 -0.0116,0.02963 -0.006,0.03755 0.006,0.01288 0.0359,0.0042 -0.0159,-0.05393"
       style="fill:#21201d;fill-opacity:1;fill-rule:nonzero;stroke:none;stroke-width:0.184057"
       id="path538" />
    <path
       d="m 447.65835,-14.377807 c -0.006,0.0015 -0.0109,0.0022 -0.0152,0.0029 -0.0236,0.005 -0.0317,0.02153 -0.0517,0.03387 -0.0187,0.01215 -0.0353,0.0079 -0.0546,0.01509 -0.0145,0.0057 -0.0236,0.02153 -0.0374,0.02871 -0.0243,0.01067 -0.0611,0.0173 -0.0871,0.02006 -0.0325,0.0044 -0.0539,0.0079 -0.0819,0.02448 -0.0166,0.0094 -0.0268,0.01436 -0.046,0.01583 -0.0374,0.0022 -0.0762,0.0086 -0.1143,0.01215 -0.0254,0.0029 -0.0403,-0.0013 -0.0512,0.02301 -0.012,0.02816 -0.01,0.06829 -0.0166,0.09866 -0.0162,0.0762 0.008,0.124975 0.0749,0.163075 0.0353,0.02098 0.0698,7.41e-4 0.10788,-0.0064 0.0374,-0.0072 0.0732,-0.02301 0.11133,-0.01933 0.0187,0.002 0.0359,0.01141 0.0554,0.01141 0.0187,0 0.0374,-0.0079 0.0546,-0.01288 0.0374,-0.01307 0.0705,-0.02227 0.10199,-0.04601 0.0561,-0.04325 0.12661,-0.06184 0.16894,-0.120742 0.008,-0.0116 0.0138,-0.01951 0.0268,-0.02742 0.007,-0.0042 0.0187,-0.0072 0.0236,-0.01509 0.0145,-0.01859 -0.005,-0.0554 -0.0159,-0.07252 -0.006,-0.01233 -0.0138,-0.02374 -0.0194,-0.03681 -0.009,-0.0208 -0.0201,-0.02871 -0.0366,-0.04381 -0.0152,-0.01509 -0.0279,-0.03957 -0.0503,-0.04749 -0.0127,-0.0042 -0.031,-0.0028 -0.0475,-7.41e-4"
       style="fill:#21201d;fill-opacity:1;fill-rule:nonzero;stroke:none;stroke-width:0.184057"
       id="path540" />
    <path
       d="m 446.77912,-14.123991 c -0.004,-0.0086 -0.007,-0.01288 -0.0159,-0.01712 -0.008,-0.0029 -0.0208,5.65e-4 -0.0282,0 -0.0194,-0.0029 -0.0346,-0.01583 -0.0495,-0.02669 -0.0194,-0.01288 -0.0261,-0.03663 -0.0518,-0.0381 -0.01,-7.41e-4 -0.0194,0.0022 -0.0289,0.0029 -0.0725,0.002 -0.14943,-0.0087 -0.22214,-0.01878 -0.0416,-0.005 -0.0883,-0.01804 -0.13159,-0.01362 -0.0346,0.0035 -0.0517,0.005 -0.0827,-0.01307 -0.0325,-0.01785 -0.0618,-0.04012 -0.094,-0.05595 -0.0296,-0.01509 -0.0576,-0.02742 -0.0841,-0.04749 -0.0261,-0.01933 -0.0562,-0.0346 -0.0836,-0.05246 -0.0162,-0.01086 -0.0257,-0.03166 -0.0438,-0.03884 -0.0243,-0.0094 -0.0467,-0.01362 -0.0611,0.0094 -0.0208,0.03589 -0.0502,0.06258 -0.0762,0.09479 -0.0208,0.02595 -0.0453,0.05761 -0.0554,0.09056 -0.008,0.02301 -0.009,0.06184 0,0.08559 0.01,0.0346 0.0532,0.04675 0.0806,0.06258 0.0411,0.02374 0.074,0.06037 0.11797,0.07767 0.0314,0.01288 0.0611,0.01804 0.0891,0.04031 0.018,0.01436 0.0303,0.02522 0.0539,0.02871 0.0208,0.0029 0.0423,7.41e-4 0.0633,0.0015 0.0394,0.0022 0.0755,0.01583 0.11504,0.01859 0.0286,0.0029 0.0574,-0.0042 0.0862,0.0044 0.0166,0.0042 0.0289,0.0173 0.046,0.0208 0.031,0.0079 0.0539,0.0037 0.0828,-0.005 0.0559,-0.0173 0.1178,-0.0116 0.1754,-0.02227 0.0502,-0.0094 0.11208,-0.01436 0.15882,-0.03534 0.006,-0.0028 0.0131,-0.0057 0.0194,-0.0086 0,7.41e-4 0,0.0022 0.004,0.0037 0.0187,-0.01877 0.0317,-0.03957 0.0293,-0.06681 -0.004,-0.02448 0,-0.05761 -0.0106,-0.08135"
       style="fill:#21201d;fill-opacity:1;fill-rule:nonzero;stroke:none;stroke-width:0.184057"
       id="path542" />
  </g>
</svg>
