<?xml version="1.0" encoding="UTF-8" standalone="no"?>
<!-- Created with Inkscape (http://www.inkscape.org/) -->

<svg
   width="7.3191943mm"
   height="7.3838601mm"
   viewBox="0 0 7.3191943 7.3838601"
   version="1.1"
   id="svg2564"
   inkscape:version="1.1.2 (0a00cf5339, 2022-02-04)"
   sodipodi:docname="c3.svg"
   xmlns:inkscape="http://www.inkscape.org/namespaces/inkscape"
   xmlns:sodipodi="http://sodipodi.sourceforge.net/DTD/sodipodi-0.dtd"
   xmlns="http://www.w3.org/2000/svg"
   xmlns:svg="http://www.w3.org/2000/svg">
  <sodipodi:namedview
     id="namedview2566"
     pagecolor="#ffffff"
     bordercolor="#666666"
     borderopacity="1.0"
     inkscape:pageshadow="2"
     inkscape:pageopacity="0.0"
     inkscape:pagecheckerboard="0"
     inkscape:document-units="mm"
     showgrid="false"
     inkscape:zoom="0.64052329"
     inkscape:cx="-950.7851"
     inkscape:cy="350.49467"
     inkscape:window-width="2560"
     inkscape:window-height="1376"
     inkscape:window-x="0"
     inkscape:window-y="0"
     inkscape:window-maximized="1"
     inkscape:current-layer="layer1" />
  <defs
     id="defs2561" />
  <g
     inkscape:label="Layer 1"
     inkscape:groupmode="layer"
     id="layer1"
     transform="translate(-356.54071,-55.790667)">
    <path
       d="m 359.64628,57.992241 c 0.0157,0.0021 0.0322,0.0042 0.0473,0.0072 0.0734,0.01214 0.14595,0.01143 0.22013,0.01069 0.0589,0 0.14006,0.0267 0.19197,-0.0065 0.0164,-0.01069 0.0322,-0.03221 0.0473,-0.04528 0.0267,-0.02374 0.0569,-0.0381 0.0784,-0.06755 0.0116,-0.01584 0.0144,-0.03387 0.0287,-0.04969 0.0116,-0.0151 0.0237,-0.01436 0.0388,-0.02226 0.0116,0.03755 -0.0114,0.08485 0.007,0.120926 0.007,0.0151 0.0223,0.02226 0.0359,0.02872 0.0158,0.0072 0.0272,0.01584 0.041,0.02596 0.0121,0.0085 0.0208,0.0099 0.0351,0.0079 0.006,-7.05e-4 0.0604,-0.01379 0.0582,-0.01951 0.009,0.02723 0.003,0.06828 0.003,0.09773 v 0.157554 c 0,0.01859 0.009,0.06387 -0.002,0.0797 -0.0166,0.023 -0.0784,0.023 -0.10067,0.01305 -0.0366,7.06e-4 -0.0755,0.005 -0.10786,0.02505 -0.0179,0.01087 -0.0394,0.03534 -0.0525,0.05264 -0.0136,0.01933 -0.0107,0.04233 -0.0223,0.0624 -0.004,-0.005 -0.009,-0.0092 -0.0107,-0.0151 -0.003,-0.0072 -7e-4,-0.0151 -0.004,-0.02081 -0.006,-0.0114 -0.0366,-0.02649 -0.0495,-0.02946 -0.0217,-0.0057 -0.0455,-0.0057 -0.0677,-0.01013 -0.0258,-0.0057 -0.0532,-0.0072 -0.0797,-0.01436 -0.0339,-0.0086 -0.0683,-0.023 -0.10437,-0.01012 -0.0631,0.02173 -0.11061,0.01729 -0.17172,-0.0072 -0.0101,-0.0042 -0.021,-0.0079 -0.0324,-0.0065 -0.0208,0.0037 -0.0331,0.02226 -0.0431,0.03883 -0.0123,0.02025 -0.023,0.05614 -0.046,0.06332 -0.0267,0.01013 -0.0697,7.06e-4 -0.0987,7.06e-4 -0.0208,0 -0.0545,0.0057 -0.0733,-0.0086 -0.0144,-0.01087 -10e-4,-7.06e-4 -0.009,-0.01877 -0.002,-0.005 -0.008,-0.02081 -0.009,-0.02575 -0.009,-0.0497 -0.01,-0.09203 -0.028,-0.140254 -0.0136,-0.03443 -0.0151,-0.06258 -0.003,-0.097 0.0109,-0.0309 0.0151,-0.05835 0.013,-0.09129 -10e-4,-0.02244 -0.0116,-0.06332 0.003,-0.08282 0.0151,-0.02007 0.0648,-0.02152 0.087,-0.02152 0.008,0 0.0144,0.0014 0.0215,0.0028 0.0195,0.0042 0.0381,0.0057 0.0584,0.0065 0.0337,0.0014 0.0668,0.0042 0.0999,0.0086"
       style="fill:#21201d;fill-opacity:1;fill-rule:nonzero;stroke:none;stroke-width:0.184057"
       id="path634" />
    <path
       d="m 359.40388,59.238129 c -0.0193,0.01803 -0.0144,0.03681 -0.0144,0.05687 7.1e-4,0.02723 -10e-4,0.0554 0,0.08338 7.1e-4,0.02081 -10e-4,0.02374 0.0295,0.03313 0.0353,0.0094 0.0792,0.01436 0.11504,0.0114 0.009,-7.06e-4 0.0165,-0.0028 0.0252,-0.0057 0.018,-0.0072 0.0317,-0.01362 0.0517,-0.01436 0.0611,-0.0021 0.12295,0 0.1848,0 0.0346,0 0.0668,0 0.10067,0.005 0.0252,0.0044 0.0503,0.0094 0.0755,0.0094 0.0274,0 0.0532,0.0057 0.0812,0.0072 0.0166,0.0014 0.0274,0.0021 0.044,0.01013 0.0166,0.0086 0.0351,0.0151 0.0517,0.02448 0.0151,0.0085 0.0272,0.02226 0.0418,0.03221 0.008,0.0065 0.0164,0.01012 0.0243,0.01658 0.006,0.0037 0.0145,0.01658 0.0195,0.01877 0.0114,0.005 0.004,7.06e-4 0.0144,-0.0044 0.008,-0.0042 0.0166,-0.01288 0.0237,-0.01933 0.0186,-0.01877 0.0272,-0.04178 0.0495,-0.05761 0.009,-0.0057 0.0151,-0.01288 0.0223,-0.01933 0.0123,-0.0094 0.0158,-0.0057 0.0289,-0.0094 0.0136,-0.0035 0.0265,-0.02007 0.0359,-0.0302 0.0208,-0.02155 0.0144,-0.03884 0.0195,-0.06534 0.006,-0.03681 0.0164,-0.07344 0.0223,-0.109329 0.004,-0.02667 0.0143,-0.06755 7e-4,-0.0935 -0.0267,-0.0037 -0.0547,-0.005 -0.0813,-0.0065 -0.009,-7.05e-4 -0.028,0.0021 -0.0366,-0.0014 -0.009,-0.0042 -0.007,-0.01214 -0.0116,-0.02081 -0.004,-0.0094 -0.0129,-0.01161 -0.0193,-0.02025 -0.0129,-0.0151 -0.0201,-0.03589 -0.0272,-0.05393 -0.006,-0.01436 -0.0116,-0.04528 -0.0237,-0.05522 -0.0252,-0.02025 -0.0626,0.02505 -0.0799,0.0438 -0.0208,0.02374 -0.0344,0.05393 -0.0618,0.07197 -0.0173,0.01143 -0.0388,0.01933 -0.0582,0.02649 -0.0497,0.01803 -0.11227,0.0094 -0.16252,0.0094 -0.0663,0 -0.1316,0 -0.19768,-0.0057 -0.023,-0.0028 -0.0433,-0.0028 -0.0648,0.0057 -0.009,0.0028 -0.0136,0.005 -0.0238,0.0057 -0.0567,0.0028 -0.11503,-0.005 -0.17172,0 -0.0376,0.0028 -0.0281,0.01288 -0.0274,0.03589 0,0.02815 0,0.05687 0,0.08485"
       style="fill:#21201d;fill-opacity:1;fill-rule:nonzero;stroke:none;stroke-width:0.184057"
       id="path636" />
    <path
       d="m 360.47803,58.002362 c 0.003,-0.0021 0.005,-0.0037 0.008,-0.0059 -0.002,0.05393 0,0.107858 0,0.161784 v 0.48757 c 0,0.301855 0,0.60463 -7.1e-4,0.906488 -7e-4,0.09571 0.009,0.190683 0.0151,0.286208 0.002,0.0381 0.004,0.07767 0.004,0.117246 0.001,0.04601 0.003,0.09203 -0.008,0.138042 -0.009,0.04086 7e-4,0.07178 0.0164,0.11062 0.008,0.02099 0.0123,0.03883 0.009,0.06184 -0.003,0.0309 -0.0129,0.05319 7.1e-4,0.08338 0.0123,0.02522 0.0281,0.05117 0.0445,0.07197 0.008,0.01013 0.018,0.01362 0.026,0.023 0.0129,0.01362 0.0193,0.02946 0.0351,0.04252 0.0302,0.02431 0.0756,0.05098 0.0935,0.08614 0.0136,0.02815 0.0281,0.05117 0.0618,0.04602 -0.0653,7.06e-4 -0.13086,-0.0028 -0.19547,-7.06e-4 -0.0346,0.0021 -0.069,0.0151 -0.10288,0.01658 -0.0438,0.0028 -0.0849,0.0057 -0.12718,0.01584 -0.0475,0.01012 -0.095,0.01087 -0.14247,0.02025 -0.0408,0.0085 -0.0777,0.02282 -0.11779,0.03295 -0.0188,0.0052 -0.0331,0.01087 -0.0504,0.01951 -0.0252,0.01143 -0.0517,0.01584 -0.0769,0.02431 -0.0252,0.0079 -0.0547,0.02596 -0.0819,0.01584 0.002,-0.0099 0.0374,-0.02575 0.046,-0.03295 0.0223,-0.02025 0.0324,-0.04105 0.0431,-0.06828 0.0124,-0.02963 0.0151,-0.05982 0.0316,-0.08632 0.0116,-0.01803 0.0245,-0.03387 0.028,-0.05614 0.003,-0.01785 0.007,-0.02946 0.0145,-0.04675 0.0243,-0.04951 0.0431,-0.09921 0.0617,-0.150929 0.021,-0.05466 0.026,-0.097 0.0188,-0.153871 -0.004,-0.03736 -0.0188,-0.07197 -0.026,-0.107858 -0.008,-0.03514 -0.004,-0.06755 -7.1e-4,-0.102888 10e-4,-0.02226 -0.001,-0.04454 -0.003,-0.06681 -0.009,-0.14872 -0.006,-0.299095 -0.006,-0.447816 0,-0.199884 0.006,-0.394804 -0.0116,-0.593954 -0.003,-0.03238 -0.004,-0.06405 0.003,-0.09553 0.0129,-0.06055 0.0337,-0.110804 0.0344,-0.173383 0.004,-0.183321 -10e-4,-0.36738 -10e-4,-0.550701 0,-0.04252 -0.003,-0.08706 10e-4,-0.130129 0.004,-0.04252 0.0109,-0.08117 0.0109,-0.124424 0,-0.05466 7e-4,-0.108593 0,-0.163259 0,-0.02431 -0.006,-0.04528 0.0173,-0.05319 0.0136,-0.0042 0.0388,0.0014 0.0539,0.0014 h 0.0992 c 0.0322,0 0.0639,-7.05e-4 0.0963,0 0.0245,0 0.0274,-0.005 0.0352,0.01732 0.0296,0.07693 0.0131,0.189025 0.0124,0.271667 0,0.0267 0.006,0.05338 0.0121,0.07915 0.004,0.02025 0.006,0.06111 0.0173,0.07418"
       style="fill:#21201d;fill-opacity:1;fill-rule:nonzero;stroke:none;stroke-width:0.184057"
       id="path638" />
    <path
       d="m 360.14232,61.905679 c -0.0346,-0.0052 -0.069,-0.01803 -0.10068,-0.03313 -0.0309,-0.0151 -0.0569,-0.03589 -0.0777,-0.06405 -0.0265,-0.03514 -0.0468,-0.07546 -0.0683,-0.1143 -0.0339,-0.0611 -0.0525,-0.12792 -0.0856,-0.189025 -0.0136,-0.02522 -0.0316,-0.04675 -0.0475,-0.0705 -0.0258,-0.03736 -0.0351,-0.08338 -0.0517,-0.125895 -0.0101,-0.02649 -0.0252,-0.05245 -0.026,-0.0797 -7e-4,-0.01305 10e-4,-0.02596 7.1e-4,-0.03884 -10e-4,-0.02946 -0.004,-0.05963 0.001,-0.08927 0.0116,-0.0589 0.0504,-0.102704 0.0856,-0.149454 0.0287,-0.0381 0.0653,-0.07988 0.1121,-0.09626 0.021,-0.0074 0.0375,-0.02025 0.0554,-0.03094 0.0158,-0.0094 0.0223,-0.01012 0.0396,-0.01379 0.0121,-0.0028 0.0245,-0.0092 0.0346,-0.0151 0.0114,-0.0079 0.0186,-0.01584 0.0315,-0.02081 0.023,-0.01013 0.0532,-0.0151 0.0799,-0.023 0.049,-0.01436 0.0863,-0.03884 0.13087,-0.06184 0.0287,-0.01584 0.0482,-0.03514 0.0747,-0.05319 0.0641,0.04454 0.11356,0.104913 0.18479,0.138779 0.041,0.01933 0.0777,0.01214 0.12074,0.01803 0.0361,0.0042 0.0799,0.03589 0.10786,0.05743 0.0361,0.02872 0.0633,0.06037 0.095,0.09203 0.0151,0.0151 0.0186,0.03312 0.0302,0.04969 0.006,0.0092 0.0151,0.01362 0.0208,0.023 0.006,0.0099 0.004,0.01785 0.008,0.02946 0.005,0.01362 0.0188,0.02374 0.026,0.03663 0.0144,0.02226 0.009,0.04748 0.009,0.07325 0,0.0309 0.0107,0.08559 -0.0217,0.104358 -0.01,0.0065 -0.0193,0.0035 -0.0302,0.0057 -0.0316,0.0057 -0.051,0.03663 -0.071,0.05963 -0.0346,0.03957 -0.0576,0.08853 -0.0841,0.132338 -0.0281,0.04528 -0.0663,0.08559 -0.0999,0.125895 -0.0331,0.04013 -0.0583,0.07326 -0.0992,0.10565 -0.0296,0.02374 -0.0655,0.05025 -0.0799,0.08706 -0.009,0.02226 -0.0158,0.03147 -0.0366,0.04657 -0.018,0.01454 -0.0374,0.02667 -0.0583,0.03461 -0.0416,0.01584 -0.0849,0.02522 -0.12645,0.04105 -0.0274,0.01069 -0.0561,0.01139 -0.0841,0.0079 m 0.24792,0.229337 c 0.0158,-0.0052 0.0317,-0.01161 0.0475,-0.01729 0.0727,-0.02596 0.16823,-0.023 0.23154,-0.07123 0.0418,-0.0309 0.0648,-0.07694 0.0856,-0.12295 0.0295,-0.06608 0.0812,-0.120005 0.12148,-0.178905 0.0316,-0.04749 0.0705,-0.09277 0.10491,-0.136754 0.0331,-0.04086 0.0734,-0.07547 0.10509,-0.117062 0.0344,-0.04528 0.0344,-0.105834 0.0431,-0.159763 0.0109,-0.06828 0.0604,-0.130129 0.0668,-0.197679 0.004,-0.0381 0.009,-0.08043 0.009,-0.117796 -0.003,-0.05982 -0.0374,-0.09571 -0.0589,-0.147429 -0.0166,-0.03736 -0.0245,-0.06829 -0.0517,-0.101417 -0.0554,-0.06405 -0.12442,-0.107121 -0.19786,-0.148166 -0.0517,-0.02872 -0.10491,-0.04528 -0.16031,-0.06755 -0.0344,-0.01362 -0.0683,-0.01362 -0.10565,-0.01658 -0.0101,-7.05e-4 -0.12295,-0.01214 -0.0769,0.03238 -0.0272,-0.0021 -0.0539,-0.005 -0.0804,-0.0065 -0.0482,-0.0021 -0.0928,0.01584 -0.13454,0.03736 -0.0144,0.0086 -0.0295,0.01584 -0.0453,0.02226 -0.0208,-0.01803 -0.0416,-0.03514 -0.0698,-0.0438 -0.0258,-0.01013 -0.0532,-0.01584 -0.0797,-0.02448 -0.0547,-0.01859 -0.10713,-0.02374 -0.164,-0.02797 -0.0467,-0.0037 -0.0928,-0.0065 -0.13878,-0.01087 -0.0626,-0.005 -0.11779,0.0094 -0.17117,0.04031 -0.0639,0.03737 -0.10988,0.09626 -0.15387,0.155345 -0.046,0.06184 -0.0933,0.142276 -0.11283,0.218476 -0.009,0.03238 -0.0208,0.06405 -0.0265,0.09774 -0.005,0.03164 -0.005,0.06332 -0.006,0.09497 -0.004,0.04748 -0.0158,0.09626 -7e-4,0.142275 0.006,0.02099 0.0129,0.03884 0.0144,0.06055 0.004,0.06111 0.0337,0.101233 0.0661,0.151663 0.028,0.04381 0.0438,0.09277 0.069,0.137308 0.0216,0.0381 0.0569,0.0646 0.074,0.10565 0.0123,0.02946 0.0324,0.05172 0.0467,0.07988 0.0144,0.02946 0.0376,0.0589 0.0584,0.08485 0.0337,0.04233 0.0718,0.08264 0.11577,0.115771 0.0359,0.02649 0.0755,0.04657 0.11062,0.07399 0.0749,0.05963 0.18129,0.08043 0.27461,0.08706 0.0411,0.0028 0.0806,0.0092 0.12166,-7.05e-4 0.0236,-0.0059 0.0467,-0.01436 0.0696,-0.023"
       style="fill:#21201d;fill-opacity:1;fill-rule:nonzero;stroke:none;stroke-width:0.184057"
       id="path640" />
    <path
       d="m 362.84555,60.22247 c -0.006,0.04031 -0.0129,0.08062 -0.023,0.120005 -0.0121,0.05264 -0.0359,0.104362 -0.0525,0.156817 -0.008,0.02872 -0.0193,0.05743 -0.0237,0.08761 -0.004,0.02667 -7.1e-4,0.0519 -0.01,0.07694 -0.0138,0.03681 -0.0317,0.07123 -0.0455,0.107859 -0.0201,0.05264 -0.0251,0.109329 -0.0453,0.162521 -0.0272,0.07344 -0.0453,0.151112 -0.0703,0.225104 -0.0173,0.04951 -0.0225,0.09921 -0.0475,0.145221 -0.018,0.03238 -0.0237,0.0705 -0.041,0.100679 -0.0316,0.05595 -0.0574,0.115037 -0.0992,0.163812 -0.0295,0.03461 -0.0166,0.01161 -0.0403,0.01877 -0.0258,0.0079 -0.0258,0.02448 -0.0381,0.0497 -0.025,0.05025 -0.0653,0.09129 -0.10068,0.134362 -0.0992,0.118534 -0.19914,0.245901 -0.31768,0.34658 -0.0683,0.0589 -0.13657,0.118533 -0.20283,0.181112 -0.0812,0.07767 -0.16675,0.132338 -0.25878,0.196942 -0.0423,0.02963 -0.0812,0.04896 -0.13086,0.06129 -0.0747,0.01785 -0.14596,0.05522 -0.22142,0.0762 -0.0849,0.02356 -0.16529,0.07252 -0.25235,0.09056 -0.0517,0.01143 -0.11429,0.0099 -0.16675,0.01436 -0.0742,0.0079 -0.13454,0.02649 -0.20504,-0.0065 -0.0287,-0.01235 -0.051,-0.01729 -0.0732,-0.03883 -0.0309,-0.02741 -0.0547,-0.0532 -0.0935,-0.06902 -0.0411,-0.01584 -0.0856,-0.02667 -0.12792,-0.03736 -0.0618,-0.01584 -0.11725,-0.01087 -0.17909,7.06e-4 -0.0596,0.01139 -0.11282,0.0099 -0.17044,-0.01309 -0.0359,-0.01436 -0.069,-0.03883 -0.10785,-0.04454 -0.0394,-0.0057 -0.0782,0.0028 -0.11633,-0.01288 -0.041,-0.01584 -0.0813,-0.03607 -0.12295,-0.05319 -0.0361,-0.0151 -0.0618,-0.04602 -0.0957,-0.067 -0.0339,-0.02155 -0.072,-0.03295 -0.10418,-0.05743 -0.0834,-0.06184 -0.17909,-0.123688 -0.27332,-0.165467 -0.0661,-0.02946 -0.11853,-0.06958 -0.18038,-0.10565 -0.0517,-0.02946 -0.10785,-0.05393 -0.16252,-0.0797 -0.12295,-0.05982 -0.25381,-0.120191 -0.36738,-0.195654 -0.0596,-0.03884 -0.11798,-0.08117 -0.16822,-0.1316 -0.051,-0.05098 -0.0891,-0.115775 -0.13087,-0.173937 -0.097,-0.137305 -0.16178,-0.291913 -0.24442,-0.437138 -0.0611,-0.107121 -0.0999,-0.227125 -0.13731,-0.344371 -0.046,-0.145221 -0.10289,-0.287683 -0.13878,-0.4364 -0.0287,-0.120742 -0.0742,-0.233754 -0.0906,-0.357442 -0.0131,-0.104178 -0.0217,-0.212033 -0.0217,-0.316949 0,-0.103622 0.0158,-0.205038 0.0237,-0.307742 0.007,-0.07767 0.0101,-0.150375 0.0294,-0.226575 0.0361,-0.142279 0.0712,-0.284004 0.12811,-0.419838 0.0416,-0.09994 0.11577,-0.1697 0.17172,-0.261729 0.0418,-0.0705 0.0885,-0.132154 0.13675,-0.198416 0.0446,-0.06258 0.0769,-0.142276 0.13657,-0.191972 0.028,-0.02374 0.0525,-0.01584 0.0834,-0.02723 0.0438,-0.01729 0.0769,-0.07049 0.11062,-0.101417 0.0705,-0.06552 0.14817,-0.123687 0.22657,-0.17835 0.10289,-0.0705 0.23228,-0.08835 0.3394,-0.154608 0.071,-0.04307 0.15093,-0.132154 0.24295,-0.122217 -0.0208,-0.0092 -0.0339,-0.01711 -0.0554,-0.0151 0.0109,-0.01288 0.026,-0.01436 0.0396,-0.02226 0.0201,-0.01213 0.0366,-0.0302 0.0532,-0.04675 0.0453,-0.04233 0.10859,-0.08412 0.16473,-0.1143 0.0351,-0.01933 0.0762,-0.02872 0.11356,-0.04454 0.0438,-0.01877 0.0819,-0.0381 0.12866,-0.04969 0.0655,-0.01566 0.12368,-0.05172 0.18902,-0.06958 0.0814,-0.02244 0.1697,-0.02815 0.25455,-0.03238 0.16252,-0.0086 0.34511,-0.01161 0.49622,0.05964 0.0495,0.02374 0.0999,0.04528 0.15019,0.06828 0.0626,0.02797 0.11503,0.06184 0.18626,0.06902 0.0861,0.0086 0.16823,0.03164 0.24793,0.06479 0.0799,0.03295 0.16252,0.05522 0.24093,0.08908 0.092,0.03957 0.16601,0.09921 0.25013,0.150926 0.0755,0.04528 0.15534,0.08209 0.23081,0.128104 0.0662,0.04012 0.14172,0.09129 0.19565,0.145958 0.051,0.05099 0.0928,0.113566 0.13877,0.168966 0.0438,0.05246 0.0955,0.09332 0.14007,0.144488 0.046,0.05245 0.0841,0.112825 0.12148,0.170987 0.0791,0.121663 0.14098,0.251792 0.20136,0.383946 0.0648,0.142459 0.14025,0.280504 0.20209,0.424254 0.0503,0.120005 0.1027,0.250871 0.11651,0.380263 0.006,0.06184 0.006,0.127367 0.0208,0.187738 0.0109,0.04178 0.018,0.08485 0.0331,0.125895 0.0337,0.08982 0.0302,0.186821 0.0258,0.281796 -0.003,0.05614 -0.007,0.111354 -0.0158,0.167492 m 0.3602,-0.276088 c -0.0265,-0.140987 -0.0302,-0.284737 -0.0574,-0.426279 -0.0418,-0.215716 -0.0784,-0.432167 -0.12939,-0.645675 -0.0425,-0.176142 -0.0935,-0.353758 -0.16399,-0.520516 -0.0712,-0.169701 -0.20707,-0.312163 -0.33002,-0.447259 -0.13233,-0.145958 -0.27884,-0.281058 -0.41633,-0.422783 -0.0653,-0.06828 -0.13731,-0.128655 -0.20761,-0.191971 -0.072,-0.06534 -0.14026,-0.137308 -0.22087,-0.192709 -0.074,-0.05098 -0.15461,-0.09552 -0.23431,-0.135099 -0.0898,-0.0438 -0.18332,-0.09424 -0.27976,-0.120005 -0.0913,-0.02522 -0.18903,-0.03164 -0.28179,-0.05043 -0.10491,-0.02152 -0.2078,-0.05025 -0.31271,-0.07325 -0.25161,-0.05687 -0.50542,-0.09 -0.76071,-0.03164 -0.17043,0.03884 -0.32504,0.113562 -0.49032,0.16602 -0.10142,0.03238 -0.20633,0.06184 -0.29836,0.116509 -0.0215,0.01288 -0.0366,0.01803 -0.0611,0.02374 -0.0611,0.01362 -0.11651,0.0416 -0.1697,0.07399 -0.0661,0.04031 -0.12866,0.08485 -0.19695,0.122217 -0.044,0.023 -0.0885,0.04252 -0.1281,0.0727 -0.0782,0.0589 -0.16675,0.08043 -0.25234,0.123684 -0.0567,0.02946 -0.11356,0.05743 -0.16896,0.08982 -0.0567,0.03313 -0.10344,0.04381 -0.13731,0.104179 -0.0359,0.06553 -0.10933,0.107121 -0.16178,0.159763 -0.0827,0.08411 -0.16032,0.178166 -0.23872,0.267433 -0.0661,0.07547 -0.11504,0.153875 -0.16455,0.24075 -0.0965,0.166938 -0.15313,0.353021 -0.2286,0.529167 -0.0683,0.160312 -0.0972,0.331487 -0.11356,0.504133 -0.0173,0.176696 -0.0289,0.349342 -0.004,0.526221 0.0245,0.173937 0.0856,0.33425 0.13086,0.502479 0.0554,0.206329 0.12075,0.406951 0.18977,0.608313 0.0583,0.171171 0.14172,0.332958 0.22933,0.489592 0.041,0.07344 0.072,0.153874 0.12166,0.221421 0.0567,0.07915 0.12939,0.158291 0.19768,0.227312 0.11282,0.1143 0.2343,0.2286 0.37602,0.307746 0.16897,0.09332 0.35081,0.176142 0.50616,0.290442 0.31124,0.229337 0.6499,0.429962 1.01801,0.549229 0.10786,0.03517 0.21719,0.06608 0.32707,0.09277 0.0841,0.02007 0.16694,0.02872 0.2516,0.04307 0.0849,0.01584 0.16473,0.03313 0.25253,0.03313 0.11135,0 0.20761,-0.03589 0.31271,-0.06681 0.0639,-0.01803 0.12792,-0.03461 0.18976,-0.0554 0.0856,-0.02946 0.15608,-0.07693 0.23228,-0.12295 0.18479,-0.109329 0.36811,-0.206329 0.5299,-0.349342 0.13362,-0.117979 0.26596,-0.237987 0.40327,-0.350996 0.14669,-0.120742 0.29044,-0.238725 0.4156,-0.383208 0.11208,-0.128658 0.19767,-0.277562 0.28252,-0.427017 0.074,-0.130866 0.15387,-0.279033 0.18185,-0.427012 0.0195,-0.09424 0.0274,-0.189213 0.0453,-0.283267 0.0151,-0.07417 0.0304,-0.14025 0.0316,-0.215716 0.004,-0.177617 0.0165,-0.371796 -0.0158,-0.546467"
       style="fill:#21201d;fill-opacity:1;fill-rule:nonzero;stroke:none;stroke-width:0.184057"
       id="path642" />
    <path
       d="m 359.88556,55.912937 c -0.0295,0.04951 -0.056,0.100679 -0.0532,0.161788 0.003,0.07694 -0.0179,0.150929 0.0353,0.218475 0.0121,0.0151 0.0309,0.02226 0.0445,0.03608 0.0151,0.01658 0.0201,0.0381 0.0388,0.05025 0.033,0.02226 0.0646,0.01161 0.0977,0.0021 0.0856,-0.02374 0.14025,0.07399 0.22933,0.05098 0.11724,-0.02946 0.19915,-0.158105 0.21351,-0.27038 0.013,-0.09626 0.046,-0.22492 -0.0366,-0.297621 -0.10933,-0.09479 -0.29118,-0.0762 -0.42352,-0.06332 -0.056,0.0059 -0.0906,0.01655 -0.12073,0.06902 -0.008,0.01453 -0.0173,0.02815 -0.0252,0.04252"
       style="fill:#21201d;fill-opacity:1;fill-rule:nonzero;stroke:none;stroke-width:0.184057"
       id="path644" />
    <path
       d="m 363.41152,58.097154 c -0.0296,0.03238 -0.046,0.08632 -0.0583,0.125896 -0.0252,0.08559 -0.0438,0.181112 -0.0468,0.270196 -10e-4,0.03238 -0.005,0.0727 0.002,0.105096 0.008,0.0309 0.0265,0.04528 0.0396,0.07104 0.0121,0.02522 0.0136,0.04823 0.0344,0.07123 0.0346,0.03883 0.0784,0.04252 0.12295,0.06405 0.0418,0.02007 0.0676,0.04528 0.11227,0.01012 0.0409,-0.03238 0.0869,-0.08209 0.11633,-0.125158 0.0267,-0.04031 0.0433,-0.0878 0.0705,-0.127921 0.0223,-0.03387 0.044,-0.05908 0.0532,-0.101416 0.007,-0.03238 -0.004,-0.0554 -0.0114,-0.08559 -0.0109,-0.04031 -0.041,-0.0727 -0.0604,-0.112091 -0.0109,-0.02244 -0.0188,-0.04822 -0.0309,-0.06902 -0.0116,-0.01803 -0.0281,-0.02597 -0.041,-0.04031 -0.0201,-0.02226 -0.0302,-0.04675 -0.0554,-0.06479 -0.0316,-0.02579 -0.0539,-0.02081 -0.0935,-0.02081 -0.079,0 -0.13583,-0.01161 -0.15368,0.02946"
       style="fill:#21201d;fill-opacity:1;fill-rule:nonzero;stroke:none;stroke-width:0.184057"
       id="path646" />
    <path
       d="m 356.65537,58.196358 c 0.0136,-0.0151 0.0309,-0.02522 0.0466,-0.0381 0.023,-0.01859 0.041,-0.0438 0.0677,-0.0554 0.0467,-0.01933 0.10988,-0.0072 0.1524,0.01803 0.0171,0.01087 0.0316,0.02667 0.0488,0.0381 0.0267,0.01803 0.0532,0.0302 0.0705,0.05964 0.0287,0.0519 0.0173,0.120925 0.0173,0.177613 0,0.0705 0.0215,0.207804 -0.0668,0.239462 -0.067,0.02374 -0.13087,-0.0381 -0.19418,-0.04454 -0.0675,-0.0086 -0.21719,0.005 -0.24737,-0.07344 -0.0245,-0.06387 0.002,-0.1351 0.0331,-0.191971 0.0208,-0.03957 0.0396,-0.08688 0.0661,-0.12295 l 0.006,-0.0065"
       style="fill:#21201d;fill-opacity:1;fill-rule:nonzero;stroke:none;stroke-width:0.184057"
       id="path648" />
    <path
       d="m 357.77756,62.500187 c -0.0302,0.03663 -0.092,0.05466 -0.10565,0.104175 -0.0129,0.04675 0.0193,0.06902 0.051,0.09074 0.0468,0.0309 0.0806,0.0797 0.12589,0.112829 0.10215,0.07473 0.19124,0.133071 0.32707,0.06681 0.0893,-0.04381 0.0957,-0.100679 0.0957,-0.194733 0,-0.120191 -0.0525,-0.225841 -0.16105,-0.281241 -0.041,-0.02152 -0.0928,-0.0381 -0.13804,-0.02946 -0.0792,0.0151 -0.23725,0.06902 -0.2251,0.176145"
       style="fill:#21201d;fill-opacity:1;fill-rule:nonzero;stroke:none;stroke-width:0.184057"
       id="path650" />
    <path
       d="m 362.34528,62.635283 c -0.0131,0.04178 -0.0151,0.07694 -0.0151,0.120192 7.1e-4,0.03663 -0.0109,0.09553 0.002,0.1316 0.018,0.04657 0.10712,0.117062 0.15387,0.134363 0.0331,0.01213 0.0856,0.0042 0.12148,0.0037 0.0374,-7.05e-4 0.0806,-0.0086 0.11577,-0.02522 0.0274,-0.01288 0.044,-0.03461 0.0655,-0.0554 0.0215,-0.02081 0.0525,-0.04178 0.0683,-0.06682 0.0201,-0.03312 0.0223,-0.08558 0.0257,-0.12295 0.009,-0.09424 -0.006,-0.188475 -0.0653,-0.2632 -0.0267,-0.03313 -0.0497,-0.08761 -0.0826,-0.112829 -0.0252,-0.01877 -0.0683,-0.02815 -0.0977,-0.03663 -0.0296,-0.0079 -0.067,-0.01305 -0.0972,-0.0044 -0.0396,0.01161 -0.0582,0.0497 -0.0955,0.06405 -0.0453,0.01729 -0.0935,0.01803 -0.13087,0.05246 -0.0433,0.04104 -0.0532,0.109333 -0.0583,0.16602"
       style="fill:#21201d;fill-opacity:1;fill-rule:nonzero;stroke:none;stroke-width:0.184057"
       id="path652" />
  </g>
</svg>
