<?xml version="1.0" encoding="UTF-8" standalone="no"?>
<!-- Created with Inkscape (http://www.inkscape.org/) -->

<svg
   width="5.957653mm"
   height="6.7174072mm"
   viewBox="0 0 5.957653 6.7174072"
   version="1.1"
   id="svg1848"
   inkscape:version="1.1.2 (0a00cf5339, 2022-02-04)"
   sodipodi:docname="c8.svg"
   xmlns:inkscape="http://www.inkscape.org/namespaces/inkscape"
   xmlns:sodipodi="http://sodipodi.sourceforge.net/DTD/sodipodi-0.dtd"
   xmlns="http://www.w3.org/2000/svg"
   xmlns:svg="http://www.w3.org/2000/svg">
  <sodipodi:namedview
     id="namedview1850"
     pagecolor="#ffffff"
     bordercolor="#666666"
     borderopacity="1.0"
     inkscape:pageshadow="2"
     inkscape:pageopacity="0.0"
     inkscape:pagecheckerboard="0"
     inkscape:document-units="mm"
     showgrid="false"
     inkscape:zoom="0.64052329"
     inkscape:cx="-814.95866"
     inkscape:cy="800.12704"
     inkscape:window-width="2560"
     inkscape:window-height="1376"
     inkscape:window-x="0"
     inkscape:window-y="0"
     inkscape:window-maximized="1"
     inkscape:current-layer="layer1" />
  <defs
     id="defs1845" />
  <g
     inkscape:label="Layer 1"
     inkscape:groupmode="layer"
     id="layer1"
     transform="translate(-320.45779,63.254388)">
    <path
       d="m 321.01866,-62.586999 c 0.0309,0.0079 0.0574,0.03018 0.0812,0.05098 0.0425,0.03681 0.10142,0.05043 0.15185,0.07491 0.10914,0.05319 0.22344,0.104177 0.33645,0.146511 0.15958,0.05982 0.32634,0.09792 0.48315,0.164731 0.0552,0.02375 0.10914,0.05098 0.16602,0.07252 0.0712,0.02816 0.14595,0.04749 0.21718,0.07565 0.1143,0.04528 0.22069,0.111355 0.33351,0.161051 0.11007,0.04804 0.19915,0.127184 0.29983,0.191236 0.0561,0.03515 0.11798,0.05964 0.17688,0.08982 0.0539,0.02669 0.10565,0.05964 0.15884,0.08982 0.13731,0.07767 0.28695,0.130129 0.43585,0.181297 0.12,0.04086 0.23853,0.09056 0.36075,0.127185 0.0915,0.02669 0.19068,0.04454 0.27479,0.08982 0.0611,0.0324 0.11209,0.08283 0.17025,0.121662 0.0712,0.0473 0.14964,0.08908 0.22731,0.126448 0.10712,0.05172 0.22363,0.07767 0.33572,0.1143 0.0871,0.02871 0.1732,0.0727 0.26247,0.09203 0.0193,0.0044 0.069,-7.41e-4 0.0841,0.0094 0.009,0.0057 0.0166,0.03092 0.0287,0.04031 0.0116,0.0099 0.0245,0.01712 0.0374,0.02503 0.0339,0.01951 0.0611,0.04031 0.0985,0.04896 0.0188,0.0042 0.0331,0.01013 0.0512,0.01804 0.0243,0.01141 0.0488,0.01362 0.0747,0.02227 0.028,0.0099 0.0495,0.03295 0.0784,0.04528 0.0324,0.01362 0.0675,0.01933 0.10068,0.03166 0.0574,0.02153 0.11779,0.0416 0.17467,0.06534 0.0302,0.01233 0.0604,0.04104 0.0732,-0.0015 0.0136,-0.04307 0.0339,-0.08264 0.046,-0.126448 0.0158,-0.05393 0.0195,-0.108594 0.0274,-0.164732 0.002,-0.02006 0.002,-0.05466 0.0171,-0.07178 0.009,-0.0094 0.021,-0.0094 0.0281,-0.02025 0.0129,-0.01712 -0.004,-0.03166 -0.0188,-0.04381 -0.0309,-0.02595 -0.074,-0.03092 -0.10712,-0.05319 -0.0359,-0.02595 -0.0762,-0.04178 -0.11651,-0.05816 -0.051,-0.02301 -0.1027,-0.0381 -0.15663,-0.05614 -0.0512,-0.01804 -0.10509,-0.005 -0.15461,-0.02871 -0.0302,-0.01436 -0.0539,-0.0381 -0.0841,-0.0519 -0.0611,-0.02798 -0.12442,-0.0438 -0.18056,-0.08043 -0.16675,-0.110067 -0.35578,-0.186267 -0.53689,-0.268172 -0.0806,-0.03589 -0.15755,-0.0878 -0.24167,-0.113564 -0.0784,-0.02522 -0.1581,-0.04896 -0.23798,-0.07417 -0.14228,-0.04602 -0.29118,-0.06608 -0.43493,-0.107122 -0.0871,-0.02503 -0.1697,-0.0646 -0.25234,-0.09994 -0.0863,-0.03663 -0.1719,-0.07767 -0.25381,-0.121478 -0.0784,-0.04307 -0.15534,-0.09203 -0.23007,-0.14154 -0.0618,-0.04031 -0.12516,-0.07491 -0.18976,-0.110803 -0.15111,-0.08632 -0.29854,-0.175407 -0.46014,-0.241484 -0.14099,-0.05835 -0.28842,-0.102888 -0.43069,-0.15829 -0.13087,-0.04951 -0.25952,-0.0935 -0.39554,-0.126448 -0.10068,-0.02522 -0.20633,-0.04178 -0.29983,-0.09129 -0.051,-0.02669 -0.0985,-0.0554 -0.15313,-0.07565 -0.0646,-0.02356 -0.13087,-0.05172 -0.19694,-0.07252 -0.0188,-0.005 -0.0351,-0.0086 -0.0532,-0.01877 -0.0252,-0.01362 -0.0482,-0.01933 -0.0755,-0.02503 -0.0532,-0.0116 -0.1108,-0.02301 -0.16473,-0.02963 -0.0668,-0.0072 -0.13013,-0.03148 -0.19344,-0.05246 -0.0114,-0.0035 -0.0344,-0.01785 -0.0473,-0.01712 -0.0116,5.65e-4 -0.023,0.01215 -0.0339,0.01565 -0.0121,0.0044 -0.0272,0.0074 -0.041,0.0079 -0.0143,7.41e-4 -0.0322,-0.0042 -0.046,-5.65e-4 -0.0151,0.0035 -0.0171,0.0092 -0.0359,0.0092 -0.0295,-7.41e-4 -0.0539,0.0037 -0.0777,0.01951 -0.0223,0.01509 -0.0166,0.05669 -0.0295,0.07841 -0.0158,0.02577 -0.0188,0.06608 -0.0223,0.09774 -0.007,0.0589 0.0547,0.112091 0.0985,0.137307 0.0755,0.04454 0.16252,0.04031 0.24664,0.0554 0.0596,0.01141 0.12792,0.0028 0.18902,0.002 0.009,0 0.018,7.41e-4 0.026,0.0037"
       style="fill:#21201d;fill-opacity:1;fill-rule:nonzero;stroke:none;stroke-width:0.184057"
       id="path492" />
    <path
       d="m 324.4445,-62.833637 c -0.0287,0.02595 -0.0582,0.05172 -0.0876,0.07767 -0.1432,0.123686 -0.29062,0.243692 -0.44082,0.358728 -0.0725,0.05614 -0.15092,0.102153 -0.23006,0.150376 -0.10639,0.06534 -0.20136,0.147246 -0.30628,0.215532 -0.0618,0.04105 -0.12368,0.08485 -0.187,0.12295 -0.0683,0.03957 -0.14006,0.07491 -0.20982,0.110803 -0.026,0.01362 -0.0547,0.02301 -0.0791,0.03663 -0.0186,0.01012 -0.0352,0.02945 -0.0503,0.04325 -0.0381,0.03442 -0.0762,0.06976 -0.11504,0.104177 -0.041,0.03663 -0.0813,0.07399 -0.12295,0.111539 -0.0123,0.01067 -0.0202,0.01785 -0.0346,0.02503 -0.0179,0.0079 -0.0337,0.01877 -0.051,0.02816 -0.0604,0.03368 -0.11227,0.0854 -0.1662,0.129393 -0.0834,0.06902 -0.18332,0.12295 -0.27535,0.178904 -0.0869,0.05319 -0.16822,0.112275 -0.24442,0.179824 -0.0495,0.04528 -0.10639,0.07252 -0.15958,0.111355 -0.0482,0.03387 -0.0883,0.07841 -0.13657,0.112276 -0.0346,0.02503 -0.0762,0.04951 -0.1143,0.06828 -0.0425,0.02227 -0.0871,0.02724 -0.11945,0.06111 -0.0237,0.02448 -0.0488,0.04675 -0.074,0.06902 -0.0215,0.01804 -0.0423,0.03515 -0.0661,0.05098 -0.0217,0.01362 -0.0418,0.02669 -0.044,0.05246 -0.004,0.04601 0.0282,0.06037 0.0583,0.08632 0.0388,0.0324 0.0574,0.08485 0.097,0.116508 0.0309,0.02448 0.0596,0.02798 0.0834,0.06111 0.0109,0.01583 0.0295,0.02595 0.0281,0.04675 0.0158,0.0072 0.0208,7.41e-4 0.0329,-0.0057 0.0124,-0.0059 0.023,-0.0066 0.0368,-0.0116 0.0329,-0.01215 0.046,-0.05246 0.0631,-0.0797 0.0202,-0.03313 0.0561,-0.05264 0.0856,-0.07491 0.0806,-0.06111 0.16252,-0.120742 0.24517,-0.178904 0.0999,-0.07197 0.19049,-0.157553 0.29633,-0.220133 0.094,-0.05522 0.18828,-0.104177 0.27093,-0.176143 0.041,-0.03516 0.0848,-0.06184 0.12939,-0.09129 0.0618,-0.04031 0.11871,-0.09921 0.187,-0.128657 0.0208,-0.0087 0.0423,-0.01288 0.0633,-0.02006 0.0611,-0.01951 0.1143,-0.05908 0.17099,-0.0878 0.10786,-0.05393 0.20633,-0.123687 0.30922,-0.187002 0.25307,-0.153137 0.50468,-0.311243 0.74193,-0.489595 0.0453,-0.03368 0.0885,-0.06976 0.13528,-0.101415 0.0725,-0.05172 0.13657,-0.110619 0.20559,-0.166757 0.0841,-0.07049 0.15958,-0.146694 0.23725,-0.223631 0.0517,-0.05098 0.0999,-0.109146 0.15461,-0.15516 0.0423,-0.03608 0.094,-0.06553 0.13951,-0.09645 0.0552,-0.03884 0.11503,-0.07123 0.17393,-0.104176 0.0223,-0.01307 0.0438,-0.02743 0.0661,-0.03957 0.0151,-0.0072 0.0366,-0.0072 0.0294,-0.03018 0.0123,-0.0037 0.0166,-0.01436 0.026,-0.0208 0.0101,-0.0072 0.0188,-0.0087 0.028,-0.01878 0.0267,-0.02724 0.0109,-0.03957 -0.0144,-0.06184 -0.023,-0.02153 -0.046,-0.04896 -0.0675,-0.07197 -0.0238,-0.02577 -0.0532,-0.04454 -0.0755,-0.07031 -0.0489,-0.05761 -0.0891,-0.122215 -0.13307,-0.184058 -0.009,-0.01307 -0.0193,-0.03166 -0.0374,-0.03313 -0.0193,-0.0022 -0.0331,0.01804 -0.0423,0.03166 0.006,-0.0015 0.002,-0.0079 0.002,-0.0087 -0.0366,0.0208 -0.0547,0.06608 -0.0913,0.09056 -0.0201,0.01288 -0.0423,0.02227 -0.0626,0.03589 -0.0236,0.01657 -0.0431,0.03884 -0.0653,0.05687 -0.008,0.005 -0.0272,0.01362 -0.0316,0.02006 -7.1e-4,0.01012 -0.002,0.01951 -0.003,0.03019 -0.004,0.0116 -0.008,0.02172 -0.0164,0.03092 -0.0223,0.03037 -0.0591,0.05117 -0.0856,0.07841 -0.018,0.01877 -0.0381,0.03736 -0.0569,0.05467"
       style="fill:#21201d;fill-opacity:1;fill-rule:nonzero;stroke:none;stroke-width:0.184057"
       id="path494" />
    <path
       d="m 320.69804,-62.72357 v -0.0064 0.07823 c 0,0.03681 -10e-4,0.07344 -7.1e-4,0.110066 10e-4,0.04749 0.01,0.0935 0.01,0.140989 -0.002,0.227127 -0.0223,0.455727 -0.003,0.682303 0.006,0.06387 0.0101,0.12792 0.0173,0.191235 0.006,0.07546 0.002,0.150928 0.003,0.227128 7e-4,0.0762 0.0151,0.149639 0.0237,0.224367 0.009,0.09553 0.006,0.191236 0.0166,0.286762 0.0144,0.146694 0.0151,0.291364 0.0151,0.43861 0,0.05246 0.003,0.106386 0,0.159578 -0.003,0.06129 -0.0223,0.12019 -0.0267,0.181297 -0.006,0.0589 -0.0186,0.115773 -0.0287,0.173935 -0.0121,0.07473 -0.006,0.147431 -0.008,0.222894 -0.002,0.06755 -0.0107,0.134547 -0.0107,0.202096 7.1e-4,0.06976 0.004,0.139516 0,0.209274 -0.006,0.122766 -0.009,0.245165 -0.0223,0.367379 -0.007,0.06037 -0.004,0.121478 -0.004,0.183322 7.1e-4,0.07252 -0.004,0.146694 7.1e-4,0.218476 0.005,0.08191 0.0208,0.162524 0.028,0.243141 0.002,0.02356 0.004,0.05025 0.0101,0.07326 0.004,0.01509 0.0144,0.02945 0.0166,0.04601 0.002,0.01141 -0.003,0.02448 -7.1e-4,0.03589 0.002,0.0116 0.009,0.02025 0.0101,0.0324 0.004,0.0324 0.004,0.07473 -0.002,0.105649 -0.009,0.04822 -0.007,0.09645 -0.007,0.145222 0,0.03957 -0.005,0.0554 0.0302,0.0727 0.0166,0.0079 0.0331,0.01436 0.0497,0.02301 0.0157,0.0072 0.0394,0.01583 0.0488,0.03092 -0.004,-0.0589 -0.0101,-0.118718 -0.009,-0.178353 0,-0.08043 0.007,-0.160314 -0.0136,-0.238722 -0.0215,-0.08485 -0.0359,-0.171727 -0.0423,-0.258786 -0.004,-0.05043 -0.0166,-0.09645 10e-4,-0.145958 0.0158,-0.04601 0.008,-0.09774 0.009,-0.146694 7e-4,-0.04381 -0.009,-0.08559 -0.01,-0.130129 -7.1e-4,-0.04896 7e-4,-0.09921 7e-4,-0.148167 7.1e-4,-0.111355 0.006,-0.222158 0.0186,-0.332776 0.0129,-0.12516 0.0136,-0.249583 0.0366,-0.374558 0.0109,-0.05614 0.006,-0.113012 0.0145,-0.169702 0.0114,-0.07546 0.0129,-0.144485 0.0129,-0.220133 0,-0.136571 0.005,-0.273878 7.1e-4,-0.410449 -0.004,-0.09774 -0.0202,-0.195654 -0.0188,-0.294861 10e-4,-0.139332 -0.0158,-0.278848 -0.0186,-0.418363 -0.001,-0.06184 -0.005,-0.123687 -0.0145,-0.185531 -0.01,-0.05964 -0.009,-0.119269 -0.0179,-0.179641 -0.007,-0.05466 -0.006,-0.112275 -0.005,-0.16694 10e-4,-0.04307 0.0145,-0.08117 0.023,-0.12295 0.007,-0.03589 0.005,-0.07252 0.0124,-0.109147 0.009,-0.05319 0.009,-0.102888 0.0107,-0.157553 0.004,-0.09479 0.0339,-0.186819 0.0447,-0.281793 0.004,-0.0346 0.003,-0.06976 0.002,-0.104361 -7e-4,-0.02945 -0.0186,-0.04233 -0.0265,-0.06957 -0.008,-0.02816 -10e-4,-0.06976 -10e-4,-0.09792 0,-0.0086 0.003,-0.0208 7e-4,-0.02945 -10e-4,-0.0057 -0.008,-0.0079 -0.009,-0.01362 -0.004,-0.0173 0.002,-0.02798 -0.007,-0.04307 -0.009,-0.01086 -0.0201,-0.01583 -0.0309,-0.02245 -0.0129,-0.0085 -0.0193,-0.0092 -0.0344,-0.01362 -0.009,-0.0035 -0.0188,-0.01362 -0.0289,-0.01657 -0.0136,-0.0042 -0.0322,-0.0085 -0.0468,-0.0092 -0.0144,-7.41e-4 -0.0467,-0.0138 -0.0179,-0.0087"
       style="fill:#21201d;fill-opacity:1;fill-rule:nonzero;stroke:none;stroke-width:0.184057"
       id="path496" />
    <path
       d="m 321.54341,-60.368917 c 0.008,0.03957 -0.008,0.08761 -0.008,0.127184 0,0.0381 0.004,0.07546 0.007,0.113564 0.007,0.06976 0,0.140252 0.002,0.210746 0.003,0.08982 0.021,0.179088 0.026,0.268908 0.009,0.118534 -0.002,0.237251 0.009,0.355784 0.0107,0.11154 -0.008,0.224367 -0.007,0.336643 0,0.06608 -0.005,0.132889 0.001,0.198414 0.005,0.05098 0.0186,0.100679 0.0243,0.151664 0.0144,0.135834 0.007,0.272405 0.0223,0.40916 0.006,0.05743 0.0158,0.112092 0.0173,0.169518 0,0.04969 -7.1e-4,0.09994 -7.1e-4,0.148902 0,0.102889 -7e-4,0.204857 0.006,0.307009 0.004,0.06755 0.01,0.135835 0.0121,0.203384 0.001,0.05982 0.0193,0.117981 0.0186,0.178352 -7e-4,0.04104 0.0109,0.07914 0.009,0.12019 -0.002,0.04381 -0.0151,0.08688 -0.01,0.13289 0.003,0.02301 0.0144,0.04601 0.0193,0.06829 0.002,0.0086 0.007,0.01233 0.009,0.02374 10e-4,0.0086 -0.001,0.01877 0,0.02816 0.003,0.02356 0.0223,0.02798 0.0453,0.03589 0.0193,0.0072 0.074,0.03515 0.0913,0.02871 0.026,-0.01013 -0.0101,-0.06111 -0.0173,-0.08264 -0.0208,-0.06479 -0.0322,-0.130129 -0.0388,-0.196942 -0.003,-0.02522 -0.008,-0.04822 -0.0164,-0.0727 -0.0109,-0.03166 -0.009,-0.06479 -0.0158,-0.097 -0.0124,-0.05982 -0.021,-0.113011 -0.0217,-0.173382 -10e-4,-0.05393 0.009,-0.104177 0.0202,-0.155897 0.007,-0.03755 0.009,-0.07344 0.006,-0.111539 -0.006,-0.06037 -0.0101,-0.121479 -0.0144,-0.182586 -0.006,-0.102888 -10e-4,-0.206329 -10e-4,-0.309954 0,-0.06534 0.005,-0.133625 -0.002,-0.199886 -0.004,-0.03865 -0.0193,-0.07178 -0.0337,-0.107858 -0.0166,-0.04012 -0.018,-0.08191 -0.009,-0.124976 0.0129,-0.0554 0.008,-0.112275 0.0223,-0.168228 0.006,-0.02522 0.002,-0.04749 0.004,-0.07344 10e-4,-0.01509 0.008,-0.02871 0.01,-0.0438 0.002,-0.01657 -7e-4,-0.03589 -7e-4,-0.05319 0,-0.07914 -7.1e-4,-0.158842 0,-0.237987 7e-4,-0.03957 -0.005,-0.08264 -0.0114,-0.121478 -0.008,-0.04675 -0.0136,-0.08982 -0.0158,-0.137307 -0.001,-0.04528 -0.0144,-0.08927 -0.0188,-0.133811 -0.005,-0.0589 -0.0201,-0.118533 -0.0295,-0.176879 -0.009,-0.04601 -0.0173,-0.09479 -0.0166,-0.142277 7e-4,-0.02301 0,-0.04528 7e-4,-0.06902 7.1e-4,-0.03663 -0.009,-0.0727 -0.01,-0.110066 -0.003,-0.09847 -7e-4,-0.194182 0.0179,-0.290444 0.005,-0.02374 0.0173,-0.06332 0.005,-0.08632 -0.0217,-0.0416 -0.0942,0.0052 -0.11448,0.01951 0.004,0.0072 0.007,0.01509 0.008,0.02301"
       style="fill:#21201d;fill-opacity:1;fill-rule:nonzero;stroke:none;stroke-width:0.184057"
       id="path498" />
    <path
       d="m 325.04839,-62.889038 c -0.0193,0.0519 -0.0164,0.09718 -0.0193,0.151847 -0.004,0.07749 -0.0193,0.153689 -0.0245,0.230625 -0.005,0.07767 -0.005,0.155345 -0.0129,0.233017 -0.0101,0.09277 -0.0252,0.184795 -0.0267,0.279032 -0.002,0.162523 7.1e-4,0.326335 7.1e-4,0.489594 0,0.08706 -0.003,0.173935 -7.1e-4,0.260258 0.003,0.09203 0.0131,0.184058 0.0166,0.276087 0.007,0.158106 0.0124,0.311978 0.0403,0.468796 0.0136,0.07896 0.0136,0.160314 0.0223,0.240195 0.009,0.07896 0.005,0.154425 -0.009,0.232097 -0.0272,0.153137 -0.0324,0.311426 -0.051,0.465851 -0.006,0.0554 -0.007,0.112275 -0.0158,0.167676 -10e-4,0.0079 -0.004,0.01362 -0.003,0.0208 7.1e-4,0.0094 0.006,0.01362 0.008,0.02006 0.0173,0.07546 -0.0136,0.168228 -0.0344,0.238723 -0.0418,0.141724 -0.0547,0.282528 -0.0668,0.429223 -0.005,0.07049 -0.005,0.140988 -0.006,0.212218 -0.001,0.07105 -0.0129,0.140069 -0.009,0.212035 0.005,0.102704 0.0274,0.202096 0.0267,0.305536 0,0.06479 0.004,0.129393 -0.007,0.192709 -0.005,0.03166 -0.006,0.06534 -0.009,0.097 -0.004,0.03313 -0.0114,0.06552 -0.0114,0.09994 10e-4,0.09056 0.002,0.179825 0.0114,0.271117 0.008,0.07197 0.0165,0.14375 0.0165,0.216453 0,0.02153 -0.0121,0.106385 0.005,0.117797 0.0109,0.0079 0.0339,-0.005 0.0425,-0.0099 0.0215,-0.01086 0.0359,-0.02743 0.0618,-0.02743 0.008,-0.03092 -0.003,-0.06405 -0.007,-0.09479 -0.004,-0.02595 0.003,-0.05117 -7.1e-4,-0.07638 -0.003,-0.02227 -0.009,-0.03865 -0.009,-0.06166 0,-0.01528 0,-0.03037 0,-0.04602 0,-0.02743 -0.0121,-0.05338 -0.0109,-0.08209 0.001,-0.02006 0.009,-0.03884 0.0109,-0.0589 0.002,-0.02871 -0.007,-0.05687 -0.009,-0.08485 -0.002,-0.03387 0,-0.06828 0,-0.101416 v -0.1905 c 0,-0.04969 -0.002,-0.09921 -7.1e-4,-0.149455 7.1e-4,-0.04601 0.0188,-0.09 0.0202,-0.136018 0.002,-0.09921 -0.0131,-0.196206 -0.0109,-0.295413 7.1e-4,-0.04528 0.018,-0.08062 0.028,-0.123687 0.0138,-0.05964 0.0331,-0.115037 0.0539,-0.173383 0.0403,-0.1143 0.0289,-0.240748 0.0289,-0.359465 0,-0.124239 -0.0109,-0.245902 -0.0173,-0.37014 -0.005,-0.08283 -7.1e-4,-0.165469 -10e-4,-0.248847 -7.1e-4,-0.148166 0.0806,-0.282529 0.0999,-0.42775 0.0116,-0.07914 0.0173,-0.163996 0.009,-0.243693 -0.005,-0.04104 -0.007,-0.08338 -0.0136,-0.124423 -0.006,-0.0381 -0.008,-0.0762 -0.0136,-0.1143 -0.005,-0.03018 -0.0188,-0.05964 -0.026,-0.08927 -0.009,-0.03736 -0.0201,-0.07473 -0.0295,-0.112091 -0.007,-0.02871 -0.0165,-0.0589 -0.0252,-0.08706 -0.0114,-0.03368 -0.006,-0.06313 -0.0114,-0.09774 -0.0124,-0.08338 -0.007,-0.168965 -0.007,-0.253079 0,-0.07178 -0.006,-0.146694 0.007,-0.217189 0.008,-0.0438 -7.1e-4,-0.08835 10e-4,-0.132153 7e-4,-0.01657 0.005,-0.0324 0.008,-0.0497 0.004,-0.03019 -7.1e-4,-0.06037 0.004,-0.09056 0.007,-0.04307 0.0129,-0.08632 0.0186,-0.130129 0.008,-0.05393 0.004,-0.107858 0.009,-0.161787 0.009,-0.103441 0.0267,-0.207801 0.041,-0.309954 0.007,-0.0473 0.003,-0.09847 0.003,-0.145958 v -0.138043 c 0,-0.03019 0.002,-0.06037 -7e-4,-0.08982 -0.004,-0.03442 -0.0173,-0.0646 -0.018,-0.09921 -0.001,-0.05098 -0.0109,-0.09847 -0.009,-0.148718 0.006,0.02503 -0.0403,0.01288 -0.0547,0.01638 0,0.0022 -7e-4,0.0052 -0.0101,0.0079"
       style="fill:#21201d;fill-opacity:1;fill-rule:nonzero;stroke:none;stroke-width:0.184057"
       id="path500" />
    <path
       d="m 325.92063,-60.594756 c 0,0.07473 0.003,0.149639 -0.009,0.22363 -0.0101,0.06552 -0.0287,0.129393 -0.0353,0.195654 -0.008,0.07399 -0.0114,0.147982 -0.0114,0.222158 7.1e-4,0.120741 -0.0151,0.238539 -0.018,0.359465 -10e-4,0.06387 -0.01,0.127184 -0.009,0.191972 0,0.05319 0,0.106386 0,0.159578 v 0.208538 c 0,0.06111 0.005,0.124239 -0.002,0.186083 -0.008,0.07418 -0.007,0.148902 -0.007,0.22363 0,0.06111 -0.009,0.117245 -0.009,0.17688 -7.1e-4,0.05098 -10e-4,0.102888 -0.003,0.154608 -0.003,0.104913 -0.006,0.209274 -0.006,0.313451 0,0.0589 0.009,0.115772 0.009,0.173934 -7.1e-4,0.02669 -7.1e-4,0.05319 0,0.07988 0,0.01362 -0.004,0.0346 7e-4,0.04675 0.0302,-0.01877 0.0401,-0.05319 0.0539,-0.08411 0.006,-0.01362 0.0151,-0.02669 0.0186,-0.04178 0.004,-0.01638 0.007,-0.02006 0.0158,-0.03516 0.0109,-0.01951 0.008,-0.04104 0.0109,-0.06111 0.003,-0.01583 0.009,-0.02797 0.0101,-0.04528 0.002,-0.05835 0,-0.117245 0,-0.174671 v -0.368116 c 0,-0.04325 -0.002,-0.0878 0,-0.130865 7.1e-4,-0.02669 0.0129,-0.04528 0.0193,-0.07049 0.0101,-0.03166 -0.005,-0.06405 -0.008,-0.09645 -0.005,-0.04233 0.002,-0.08485 0.008,-0.127183 0.006,-0.03884 0.0201,-0.07767 0.0267,-0.117245 0.008,-0.04675 0.008,-0.09277 0.0114,-0.140069 0.006,-0.09718 0.006,-0.194181 0.0208,-0.291179 0.0124,-0.07767 0.0302,-0.153873 0.0316,-0.233017 10e-4,-0.07546 0,-0.150192 0,-0.22584 0,-0.06608 0.006,-0.135834 -0.004,-0.201911 -0.008,-0.04896 -0.0144,-0.09203 -0.0136,-0.142461 0,-0.03736 0.004,-0.07767 -0.005,-0.112828 -0.007,-0.02724 -0.0136,-0.0438 -0.0136,-0.07399 0,-0.02448 0,-0.04896 0,-0.07344 0,-0.0087 10e-4,-0.01785 -7.1e-4,-0.02724 -0.002,-0.0072 -0.0101,-0.0116 -0.0101,-0.02153 -0.0344,-0.0079 -0.0653,-0.01804 -0.0718,-0.02025"
       style="fill:#21201d;fill-opacity:1;fill-rule:nonzero;stroke:none;stroke-width:0.184057"
       id="path502" />
    <path
       d="m 323.3963,-61.484861 c -0.003,7.41e-4 -0.005,7.41e-4 -0.008,0.0015 -0.006,0.01657 -0.001,0.04749 -0.001,0.06405 0,0.05964 0,0.120742 7e-4,0.180377 0,0.08559 -0.006,0.168965 -0.009,0.255289 -0.004,0.09424 0.004,0.189763 -0.003,0.284737 -0.008,0.115773 -0.008,0.232097 -0.008,0.348606 7.1e-4,0.07491 0.0129,0.148903 0.0171,0.22363 0.006,0.102152 0.003,0.204857 0.0109,0.307745 0.0114,0.156081 0.0186,0.31069 0.0186,0.467323 0,0.0762 0.003,0.151664 -7.1e-4,0.227127 -0.004,0.08927 -0.021,0.178353 -0.026,0.268173 -0.002,0.06626 -7.1e-4,0.132337 -7.1e-4,0.198598 -7e-4,0.05319 -0.002,0.107859 0.004,0.161051 0.0166,0.131418 0.004,0.270933 0.004,0.404007 0,0.05319 0.003,0.107122 -7.1e-4,0.160315 -0.003,0.04601 -0.009,0.08982 -0.009,0.135834 7e-4,0.04528 0,0.09056 7e-4,0.136019 0,0.04454 -0.009,0.08688 -0.0144,0.130866 -0.0116,0.09976 -0.0418,0.206328 -0.0309,0.30756 0.007,0.06184 0.0272,0.125896 0.0265,0.187739 -7.1e-4,0.126448 0,0.252344 0,0.378239 0,0.02651 -0.004,0.05595 0,0.08264 0.003,0.02724 0.021,0.02724 0.046,0.03368 0.0124,0.0037 0.0237,0.0037 0.0368,0 0.0129,-0.0028 0.0237,-0.0035 0.0366,-0.0064 0.0388,-0.0072 0.003,-0.0589 -0.003,-0.08338 -0.0223,-0.09553 -0.006,-0.191973 -0.0166,-0.287499 -0.003,-0.03387 -0.0121,-0.067 -0.0158,-0.101416 -0.005,-0.05687 10e-4,-0.113563 -0.002,-0.170437 -0.004,-0.06608 -0.0195,-0.127921 -0.018,-0.194918 0,-0.02945 0,-0.05963 0,-0.08908 0,-0.07252 0.004,-0.140252 0.018,-0.212034 0.009,-0.04675 0.0257,-0.09276 0.0374,-0.13878 0.0114,-0.0497 0.0144,-0.09645 0.0201,-0.145958 0.008,-0.06828 0.0223,-0.136571 0.026,-0.205593 0.002,-0.0346 -0.003,-0.06976 7e-4,-0.105097 0.004,-0.0438 0.0107,-0.08264 0.007,-0.12792 -0.007,-0.09994 -0.0195,-0.199887 -0.0274,-0.300567 -0.003,-0.04454 -0.0171,-0.08761 -0.0179,-0.13289 -0.001,-0.04104 0,-0.08282 0,-0.124423 0,-0.05466 -0.002,-0.110802 0,-0.165467 10e-4,-0.04381 0.01,-0.08688 0.01,-0.131418 -7.1e-4,-0.08853 0.009,-0.174855 0.023,-0.26173 0.007,-0.04822 0.0316,-0.0935 0.0324,-0.143934 0,-0.01067 -0.002,-0.02227 -0.002,-0.03368 10e-4,-0.02522 0.0123,-0.04749 0.0173,-0.07197 0.0144,-0.06902 0.0116,-0.138043 0.0116,-0.207801 0,-0.09626 -7.1e-4,-0.191972 -0.018,-0.286762 -0.0151,-0.08135 -0.0381,-0.161051 -0.0596,-0.240196 -0.0123,-0.04233 -0.0109,-0.08485 -0.0195,-0.127184 -0.008,-0.03736 -0.0208,-0.0727 -0.0223,-0.111539 -10e-4,-0.03736 -0.009,-0.07473 -0.009,-0.112091 0,-0.03608 7.1e-4,-0.0727 7.1e-4,-0.109331 0,-0.05172 -0.006,-0.107121 0.004,-0.158105 0.004,-0.02743 0.0136,-0.05319 0.0136,-0.08135 7.1e-4,-0.02448 0,-0.04951 0,-0.07399 0,-0.02153 -7e-4,-0.04252 0,-0.06405 7.1e-4,-0.02503 0.009,-0.04878 0.009,-0.07399 7e-4,-0.02595 0.007,-0.06111 -0.0116,-0.07988 -0.0186,-0.01859 -0.046,-0.01141 -0.0804,0.01583"
       style="fill:#21201d;fill-opacity:1;fill-rule:nonzero;stroke:none;stroke-width:0.184057"
       id="path504" />
  </g>
</svg>
