<?xml version="1.0" encoding="UTF-8" standalone="no"?>
<!-- Created with Inkscape (http://www.inkscape.org/) -->

<svg
   width="5.8004632mm"
   height="6.3926463mm"
   viewBox="0 0 5.8004632 6.3926463"
   version="1.1"
   id="svg2768"
   inkscape:version="1.1.2 (0a00cf5339, 2022-02-04)"
   sodipodi:docname="c$.svg"
   xmlns:inkscape="http://www.inkscape.org/namespaces/inkscape"
   xmlns:sodipodi="http://sodipodi.sourceforge.net/DTD/sodipodi-0.dtd"
   xmlns="http://www.w3.org/2000/svg"
   xmlns:svg="http://www.w3.org/2000/svg">
  <sodipodi:namedview
     id="namedview2770"
     pagecolor="#ffffff"
     bordercolor="#666666"
     borderopacity="1.0"
     inkscape:pageshadow="2"
     inkscape:pageopacity="0.0"
     inkscape:pagecheckerboard="0"
     inkscape:document-units="mm"
     showgrid="false"
     inkscape:zoom="0.64052329"
     inkscape:cx="10.928564"
     inkscape:cy="11.709176"
     inkscape:window-width="2560"
     inkscape:window-height="1376"
     inkscape:window-x="0"
     inkscape:window-y="0"
     inkscape:window-maximized="1"
     inkscape:current-layer="layer1" />
  <defs
     id="defs2765" />
  <g
     inkscape:label="Layer 1"
     inkscape:groupmode="layer"
     id="layer1"
     transform="translate(-102.02059,-145.30404)">
    <path
       d="m 104.26114,147.47252 c -0.0162,-0.13602 0.0159,-0.27259 0.0152,-0.40916 0,-0.0287 -0.004,-0.0596 0.004,-0.0878 0.004,-0.0208 0.0138,-0.0409 0.0208,-0.0611 0.0268,-0.0668 0.0662,-0.12497 0.10859,-0.18185 0.0194,-0.0265 0.0497,-0.041 0.0755,-0.0582 0.0318,-0.0203 0.0675,-0.0626 0.10435,-0.0734 0.0194,-0.006 0.046,-0.007 0.0661,-0.01 0.0293,-0.005 0.0576,-0.001 0.0863,0.006 0.0668,0.0166 0.13289,0.0611 0.1905,0.0977 0.0324,0.0208 0.0633,0.0482 0.10216,0.0561 0.0335,0.006 0.074,0.003 0.10637,-0.004 0.0539,-0.009 0.0941,-0.0344 0.13585,-0.0668 0.0215,-0.0166 0.0561,-0.0561 0.0799,-0.0618 0.0265,-0.006 0.0467,0.0158 0.0683,0.028 0.0138,0.008 0.0194,0.0166 0.0321,0.0274 0.0187,0.0144 0.0187,0.0272 0.0275,0.0468 0.008,0.0158 0.0254,0.0265 0.0381,0.0401 0.0318,0.0316 0.0411,0.0705 0.0604,0.11154 0.0159,0.0331 0.0425,0.0582 0.0626,0.0884 0.0261,0.0396 0.0446,0.0784 0.0755,0.1143 0.0468,0.0554 0.092,0.13749 0.0633,0.21075 -0.008,0.0193 -0.0215,0.0359 -0.0286,0.0561 -0.005,0.0151 -0.008,0.0302 -0.0131,0.046 -0.008,0.0329 -0.0215,0.0725 -0.0201,0.10786 0,0.0272 0.0208,0.0517 0.0324,0.0747 0.0106,0.0208 0.01,0.0201 -0.0116,0.0331 -0.0416,0.0243 -0.0797,0.0337 -0.12647,0.0445 -0.0584,0.0129 -0.11797,0.0272 -0.17759,0.0295 -0.051,0.002 -0.1029,7.1e-4 -0.15462,7.1e-4 -0.0359,0 -0.072,7e-4 -0.10859,7e-4 -0.0438,-7e-4 -0.0834,-0.009 -0.12643,-0.0165 -0.0519,-0.008 -0.10365,-0.003 -0.15537,-0.008 -0.0475,-0.005 -0.092,-0.0188 -0.1373,-0.0331 -0.0438,-0.0136 -0.0841,-0.01 -0.1294,-0.0121 -0.0403,-0.002 -0.0799,-0.007 -0.12019,-0.007 -0.0668,0 -0.13363,0 -0.20062,0 -0.0208,7e-4 -0.0381,-0.006 -0.0581,-0.008 -0.0138,-7e-4 -0.0187,-7e-4 -0.0236,-0.0144 -0.007,-0.026 0,-0.0618 0,-0.0885 0,-0.0265 -0.007,-0.0596 0.0374,-0.0186"
       style="fill:#21201d;fill-opacity:1;fill-rule:nonzero;stroke:none;stroke-width:0.184057"
       id="path582" />
    <path
       d="m 103.83065,149.69189 c -0.008,0 -0.018,0.003 -0.0261,0 -0.0272,-0.009 -0.0547,-0.0438 -0.0819,-0.0574 -0.0261,-0.013 -0.0482,-0.0302 -0.0727,-0.0497 -0.041,-0.0324 -0.0856,-0.056 -0.12792,-0.0841 -0.0482,-0.0302 -0.0965,-0.0403 -0.14594,-0.0596 -0.0127,-0.004 -0.0268,-0.0101 -0.0396,-0.0165 -0.0187,-0.0107 -0.0339,-0.0309 -0.0539,-0.0416 -0.0113,-0.007 -0.0268,-0.0188 -0.0395,-0.0188 -0.0106,0 -0.012,0.004 -0.0166,0.0215 -0.009,0.0396 -0.0127,0.0814 -0.0187,0.12222 -0.0145,0.095 -0.0418,0.18258 -0.0561,0.27756 -0.01,0.0633 -0.0127,0.12663 -0.018,0.18976 -0.007,0.0834 -0.0314,0.16252 -0.0503,0.2402 -0.0453,0.18976 -0.0898,0.38173 -0.13434,0.57297 -0.0166,0.0727 -0.0254,0.15111 -0.049,0.22013 -0.0116,0.0344 -0.0303,0.0631 -0.0438,0.0963 -0.0116,0.0272 -0.0219,0.0554 -0.0303,0.0841 -0.0194,0.0589 -0.0303,0.12369 -0.0489,0.18332 -0.0159,0.0532 -0.0453,0.10638 -0.0539,0.164 -0.004,0.0193 0.004,0.0173 0.005,0.0324 0,0.0121 0,0.0272 0,0.0416 0,0.0123 -0.004,0.0453 0.006,0.0497 0.018,0.009 0.0574,-0.0712 0.0639,-0.0841 0.0325,-0.0591 0.0611,-0.12295 0.0943,-0.18203 0.0286,-0.051 0.0467,-0.10639 0.0668,-0.16676 0.0215,-0.0661 0.0482,-0.12792 0.0683,-0.19694 0.0173,-0.0596 0.0339,-0.1143 0.046,-0.17762 0.0324,-0.16178 0.10142,-0.28621 0.15755,-0.42848 0.0222,-0.0547 0.0381,-0.11357 0.0604,-0.16897 0.004,-0.009 0.008,-0.018 0.012,-0.028 0.006,-0.0203 0.005,-0.0433 0.0123,-0.0633 0.0159,-0.0418 0.0366,-0.0878 0.0619,-0.11798 0.008,-0.0107 0.0201,-0.018 0.0293,-0.0295 0.01,-0.0129 0.0106,-0.0316 0.0194,-0.046 0.0145,-0.0252 0.0332,-0.0208 0.0525,-0.0295 0.0339,-0.0158 0.0618,-0.0195 0.0972,-0.0203 0.0525,0 0.1064,0.021 0.15737,0.0388 0.0187,0.007 0.0366,0.0245 0.0539,0.0368 0.007,-0.0611 0.0187,-0.12222 0.0243,-0.1848 0.005,-0.0482 -0.004,-0.092 0.0187,-0.11945"
       style="fill:#21201d;fill-opacity:1;fill-rule:nonzero;stroke:none;stroke-width:0.184057"
       id="path584" />
    <path
       d="m 106.21472,149.62507 c 0,-0.003 0,-0.005 0,-0.008 0.018,-7e-4 0.0401,-0.0431 0.0525,-0.0582 0.0293,-0.0353 0.0552,-0.0512 0.0906,-0.0677 0.0366,-0.0164 0.0668,-0.0423 0.10068,-0.0698 0.0222,-0.0178 0.0401,-0.0351 0.0582,-0.0639 0.018,-0.0287 0.0346,-0.0712 0.0547,-0.0957 0.0229,-0.0265 0.0261,0.0144 0.0332,0.0418 0.0293,0.10933 0.0581,0.21921 0.0819,0.33149 0.01,0.046 0.018,0.0928 0.0261,0.13933 0.006,0.0316 0.0169,0.0569 0.0243,0.0878 0.0109,0.0425 0.0116,0.092 0.0166,0.13731 0.007,0.0596 0.0173,0.11504 0.0332,0.1697 0.0303,0.10565 0.0648,0.20928 0.0985,0.31198 0.0268,0.0821 0.0668,0.14964 0.10139,0.2229 0.0293,0.0626 0.0569,0.12221 0.0797,0.19123 0.0145,0.0418 0.0303,0.0799 0.0426,0.12295 0.0194,0.0683 0.0303,0.14026 0.0438,0.21222 0.0116,0.0574 0.0324,0.10989 0.0418,0.16602 -0.0201,-0.009 -0.0361,-0.0374 -0.0547,-0.0532 -0.0268,-0.0237 -0.0497,-0.0388 -0.0734,-0.0712 -0.0169,-0.0237 -0.0328,-0.0503 -0.0517,-0.0698 -0.0208,-0.0201 -0.0438,-0.0257 -0.0626,-0.0503 -0.0229,-0.0282 -0.0423,-0.0641 -0.0618,-0.097 -0.0401,-0.067 -0.0668,-0.14025 -0.0977,-0.21792 -0.0272,-0.0683 -0.0582,-0.11872 -0.0762,-0.19418 -0.0166,-0.0653 -0.0265,-0.1351 -0.0388,-0.20191 -0.0152,-0.0777 -0.006,-0.16473 -0.0236,-0.2402 -0.004,-0.0201 -0.0145,-0.0388 -0.0201,-0.0576 -0.0109,-0.0322 -0.0187,-0.0639 -0.0258,-0.0977 -0.0106,-0.0547 -0.0258,-0.11504 -0.0488,-0.16105 -0.0123,-0.0258 -0.0236,-0.0539 -0.0346,-0.0804 -0.0152,-0.0374 -0.0208,-0.0554 -0.0495,-0.0547 -0.0229,0 -0.0411,-10e-4 -0.0633,0.0107 -0.0339,0.0188 -0.072,0.0252 -0.10361,0.0519 -0.0215,0.0179 -0.0394,0.0359 -0.0631,0.0431 -0.008,0.002 -0.0166,0.005 -0.0229,0.0109 -0.006,0.004 -0.0116,0.0171 -0.0187,0.0164 -0.004,-0.0107 -0.004,-0.023 0,-0.0344 0.005,-0.026 0.01,-0.051 0.0131,-0.0777 0.005,-0.0366 0.008,-0.0668 0.0159,-0.10141 0.004,-0.0208 0.007,-0.0359 0.006,-0.0582 0,-0.026 -0.004,-0.0438 -0.0243,0.0144"
       style="fill:#21201d;fill-opacity:1;fill-rule:nonzero;stroke:none;stroke-width:0.184057"
       id="path586" />
    <path
       d="m 106.23331,148.41287 c 0,0.005 -0.004,0.009 -0.004,0.0144 0.0346,-0.0344 0.0618,-0.0819 0.0935,-0.12148 0.0229,-0.0287 0.0502,-0.0569 0.0668,-0.0891 0.004,-0.009 0.006,-0.018 0.0109,-0.0252 0.0145,-0.0237 0.0431,-0.0309 0.0661,-0.0438 0.0581,-0.0324 0.1106,-0.0762 0.16454,-0.11503 0.0339,-0.0252 0.0641,-0.0468 0.10361,-0.0626 0.0293,-0.0123 0.0475,-0.0195 0.0698,-0.0418 0.0152,-0.0151 0.0152,-0.0208 0.0366,-0.0208 0.0127,-7e-4 0.0254,0 0.0381,0.001 0.0145,0.003 0.031,0.005 0.046,0.007 0.0261,0.005 0.0446,0.0193 0.069,0.0302 0.0268,0.0114 0.0539,0.0158 0.0806,0.0295 0.0264,0.0144 0.0524,0.0267 0.0812,0.0366 0.0418,0.0144 0.0819,0.0324 0.12442,0.046 0.0525,0.0173 0.10344,0.0151 0.15516,0.0388 0.0368,0.0165 0.0712,0.0388 0.11006,0.0497 0.0446,0.0129 0.0977,0.0201 0.14376,0.0257 0.0425,0.005 0.0979,-0.0129 0.13159,0.021 -0.0718,-0.002 -0.13364,0.0272 -0.20137,0.0431 -0.0113,0.003 -0.0229,0.004 -0.0353,0.003 -0.018,-0.002 -0.0335,-0.0116 -0.0517,-0.0158 -0.0275,-0.006 -0.0583,-0.001 -0.0863,-0.001 h -0.10714 c -0.0388,0 -0.0784,-0.002 -0.11723,-7.1e-4 -0.0303,7.1e-4 -0.0604,0.0121 -0.0905,0.009 -0.0381,-0.004 -0.0755,-0.006 -0.11356,-0.0101 -0.0279,-0.002 -0.0561,-0.007 -0.0819,-0.0173 -0.0173,-0.006 -0.0381,-0.009 -0.0554,-0.0164 -0.018,-0.008 -0.0145,-0.013 -0.0254,-0.0267 -0.0201,-0.0267 -0.0423,-0.006 -0.0582,0.0136 -0.0222,0.026 -0.0374,0.0403 -0.069,0.0532 -0.0504,0.021 -0.0957,0.0433 -0.12443,0.0913 -0.0229,0.0396 -0.0388,0.0799 -0.072,0.11375 -0.0502,0.051 -0.11631,0.0869 -0.17322,0.13087 0,7e-4 -0.004,0.001 -0.004,0.002 -0.0243,0.0188 -0.0481,0.0396 -0.0718,0.0569 -0.0131,-0.0237 -0.0293,-0.0331 -0.041,-0.0611 -0.006,-0.0158 -0.031,-0.041 -0.008,-0.14743"
       style="fill:#21201d;fill-opacity:1;fill-rule:nonzero;stroke:none;stroke-width:0.184057"
       id="path588" />
    <path
       d="m 103.78884,148.31716 c -0.0152,7.1e-4 -0.0222,-0.006 -0.0353,-0.0164 -0.0943,-0.0698 -0.18058,-0.0885 -0.28843,-0.0972 -0.0841,-0.006 -0.16968,-0.0309 -0.23999,-0.0777 -0.0383,-0.0243 -0.0777,-0.0453 -0.11522,-0.0696 -0.0173,-0.0123 -0.0409,-0.0346 -0.0617,-0.0346 0,0 -0.0173,0.009 -0.0194,0.009 -0.0265,0.0129 -0.0482,0.028 -0.0725,0.0453 -0.0605,0.046 -0.14023,0.0769 -0.21001,0.10417 -0.0826,0.0324 -0.16675,0.0626 -0.25012,0.092 -0.0792,0.0274 -0.16104,0.0388 -0.23946,0.0641 -0.0388,0.0129 -0.0848,0.0158 -0.12591,0.0201 -0.0258,0.003 -0.0502,0.008 -0.0755,0.0138 -0.005,0.001 -0.03,0.002 -0.0324,0.006 -0.012,0.0144 0.0261,0.028 0.0361,0.0316 0.0581,0.023 0.12072,0.0245 0.18256,0.0245 0.0639,0 0.12718,-0.0116 0.19124,-0.0101 0.0396,7.1e-4 0.0777,-7.1e-4 0.11578,-0.009 0.0401,-0.009 0.0755,-0.0201 0.11705,-0.0201 0.0381,0 0.0836,-0.001 0.12168,-0.0101 0.0353,-0.009 0.0581,-0.0431 0.092,-0.0468 0.0353,-0.004 0.071,-0.0151 0.1064,-0.0245 0.0335,-0.008 0.0732,-0.006 0.10858,-0.005 0.0374,10e-4 0.0804,0.0237 0.1143,0.0388 0.0353,0.0158 0.0618,0.0453 0.0841,0.0762 0.0201,0.0287 0.0431,0.0482 0.0698,0.0718 0.0152,0.0131 0.0215,0.0289 0.0328,0.044 0.0159,0.0201 0.0282,0.0136 0.0497,0.0193 0.0173,0.005 0.0236,0.0173 0.0353,0.0281 0.0131,0.0129 0.0286,0.0171 0.0453,0.0243 0.0388,0.0158 0.0792,0.0331 0.1215,0.0331 0.0229,0 0.044,10e-4 0.067,0.006 0.008,10e-4 0.0258,0.009 0.0335,7.1e-4 0.005,-0.005 0.008,-0.0324 0.0109,-0.0396 0.007,-0.0287 0.012,-0.056 0.012,-0.0861 0,-0.0411 0.007,-0.0806 0.007,-0.12167 0,-0.0223 -0.004,-0.0431 0.006,-0.0624 0,0.001 0,0.004 0.006,-0.0232"
       style="fill:#21201d;fill-opacity:1;fill-rule:nonzero;stroke:none;stroke-width:0.184057"
       id="path590" />
    <path
       d="m 105.99109,147.71621 v 0.006 c 0.004,-0.0101 0.005,-0.0208 0.007,-0.0316 0.007,-0.0316 0.0138,-0.0668 0.0236,-0.0963 0.005,-0.0138 0.008,-0.0237 0.012,-0.0396 0.007,-0.0267 0.018,-0.0453 0.0275,-0.0698 0.0113,-0.0287 0.0194,-0.0596 0.031,-0.0871 0.0258,-0.0582 0.0396,-0.12866 0.0639,-0.18903 0.0123,-0.0287 0.0173,-0.0482 0.0368,-0.0633 0.0409,-0.0324 0.0769,-0.0869 0.12149,-0.10786 0.0453,-0.0208 0.092,-0.0251 0.13438,-0.0567 0.0194,-0.0144 0.0381,-0.0309 0.0576,-0.0433 0.0236,-0.0151 0.048,-0.025 0.0718,-0.0401 0.067,-0.044 0.13878,-0.0712 0.20137,-0.13234 0.008,-0.009 0.0102,-0.0101 0.0166,-0.0245 0.007,-0.0158 0.0194,-0.0302 0.0258,-0.0468 0.006,-0.0144 0.004,-0.026 0.006,-0.0423 0.004,-0.0223 0.0113,-0.0497 0.0173,-0.0712 0.01,-0.0374 0.0166,-0.0769 0.0258,-0.11503 0.006,-0.023 0.0194,-0.049 0.0166,-0.0734 0,0.0576 0,0.11448 -0.006,0.17117 -0.004,0.0295 -0.004,0.0626 -0.008,0.0913 -0.005,0.041 -0.018,0.0814 -0.0268,0.12148 -0.008,0.041 -0.0152,0.0821 -0.025,0.12221 -0.004,0.0153 -0.005,0.0418 -0.0123,0.0519 -0.006,0.009 -0.0318,0.0186 -0.0359,0.023 -0.0166,0.0129 -0.0332,0.0265 -0.0497,0.0366 -0.0328,0.0215 -0.0668,0.0215 -0.1,0.0381 -0.0574,0.0272 -0.11355,0.0561 -0.16972,0.0906 -0.0359,0.0216 -0.0769,0.0525 -0.10766,0.0898 -0.0268,0.0324 -0.041,0.0863 -0.0584,0.13086 -0.0482,0.12663 -0.13582,0.21296 -0.17615,0.34732 -0.0113,0.0388 -0.0243,0.0762 -0.0366,0.1143 -0.01,0.0302 -0.0194,0.0532 -0.0254,0.0848 -0.0311,0.0195 -0.0438,-0.0653 -0.0517,-0.095 -0.005,-0.0179 -0.0303,-0.0775 -0.007,-0.0948"
       style="fill:#21201d;fill-opacity:1;fill-rule:nonzero;stroke:none;stroke-width:0.184057"
       id="path592" />
    <path
       d="m 104.07138,147.6932 c 0,-0.0144 -0.0152,-0.0331 -0.0201,-0.0475 -0.0116,-0.0366 -0.0286,-0.0641 -0.0453,-0.095 -0.0254,-0.046 -0.0554,-0.0861 -0.0856,-0.12497 -0.0396,-0.0504 -0.0863,-0.0856 -0.12076,-0.14523 -0.0339,-0.0591 -0.0626,-0.12147 -0.0935,-0.18405 -0.0236,-0.0482 -0.0446,-0.10215 -0.0735,-0.14394 -0.0201,-0.0287 -0.0453,-0.0416 -0.0718,-0.0532 -0.0655,-0.0272 -0.13014,-0.0401 -0.19713,-0.0582 -0.0314,-0.008 -0.0624,-0.009 -0.0941,-0.0129 -0.0293,-0.004 -0.0583,-0.0138 -0.0871,-0.0217 -0.0482,-0.0121 -0.0962,-0.028 -0.14446,-0.0401 -0.0187,-0.004 -0.0318,-0.006 -0.049,-0.018 -0.0222,-0.0144 -0.0401,-0.0467 -0.0596,-0.072 -0.0159,-0.0193 -0.0366,-0.0466 -0.0475,-0.0733 -0.006,-0.0129 -0.007,-0.0431 -0.018,-0.0468 -0.004,0.0215 -0.004,0.0661 0,0.0878 0.004,0.0164 0.01,0.0322 0.0138,0.048 0.008,0.0353 0.0152,0.0806 0.0286,0.11154 0.0116,0.0258 0.0279,0.0475 0.0411,0.0718 0.005,0.0101 0.0166,0.0482 0.0251,0.0526 0.007,0.004 0.0173,-0.001 0.0243,7.1e-4 0.018,0.006 0.0339,0.006 0.0532,0.007 0.0554,0.001 0.11303,0.0401 0.16549,0.0668 0.051,0.0252 0.10488,0.046 0.1524,0.0863 0.0194,0.0158 0.0374,0.0237 0.0581,0.0352 0.0222,0.0116 0.0411,0.0339 0.0626,0.0468 0.0431,0.026 0.0784,0.0675 0.11578,0.11081 0.0243,0.0287 0.041,0.0696 0.0604,0.10564 0.0166,0.0329 0.0268,0.0705 0.0446,0.10197 0.0173,0.0309 0.0324,0.0576 0.0467,0.092 0.0222,0.0561 0.049,0.10436 0.0755,0.15534 0.01,0.0188 0.0138,0.0403 0.0201,0.0611 0.006,0.0188 0.01,0.0202 0.0194,0.0324 0.0166,0.018 0.0208,0.0359 0.0425,0.0351 0.025,0 0.046,-0.009 0.0683,-0.0287 0.0152,-0.0129 0.0265,-0.0309 0.0395,-0.0468 0.008,-0.01 0.0106,-0.006 0.0173,-0.0129 0.0173,-0.0158 0.0268,-0.0245 0.0325,-0.0841"
       style="fill:#21201d;fill-opacity:1;fill-rule:nonzero;stroke:none;stroke-width:0.184057"
       id="path594" />
    <path
       d="m 104.38849,151.02778 c -0.0152,0.004 -0.0173,0.0173 -0.0194,0.0302 -0.006,0.0295 -0.007,0.0626 -0.012,0.0928 -0.008,0.0525 -0.0145,0.10417 -0.0236,0.15608 -0.005,0.0309 -0.018,0.0567 -0.0261,0.0869 -0.005,0.0223 -0.006,0.044 -0.0113,0.0663 -0.008,0.0317 -0.0243,0.0567 -0.0396,0.0849 -0.0113,0.0208 -0.0215,0.0473 -0.0366,0.0646 0.0166,-0.0201 0.0581,-0.0359 0.0812,-0.0453 0.013,-0.005 0.0293,-0.006 0.0418,-0.0121 0.0243,-0.0116 0.0325,-0.0361 0.046,-0.0576 0.0106,-0.0166 0.0257,-0.0272 0.0374,-0.0445 0.018,-0.028 0.0293,-0.0611 0.0495,-0.0878 0.0166,-0.0223 0.0361,-0.0502 0.0447,-0.0768 0.0159,-0.0468 -0.0261,-0.11577 -0.049,-0.15258 -0.0127,-0.0215 -0.0963,-0.11136 -0.0827,-0.10491"
       style="fill:#21201d;fill-opacity:1;fill-rule:nonzero;stroke:none;stroke-width:0.184057"
       id="path596" />
    <path
       d="m 105.35186,151.12349 c 0.0396,0.0604 0.0769,0.11706 0.11282,0.1789 0.0261,0.046 0.0447,0.0777 0.0871,0.11081 0.0258,0.0215 0.051,0.0381 0.0819,0.0495 0.0159,0.006 0.0353,0.0203 0.0519,0.0123 0,-0.0136 -0.008,-0.0237 -0.008,-0.0388 -0.004,-0.0324 -0.006,-0.0755 0,-0.10712 0.004,-0.0151 0.0127,-0.0203 0.004,-0.0339 -0.004,-0.005 -0.0187,-0.01 -0.0236,-0.0136 -0.0138,-0.009 -0.025,-0.0208 -0.0388,-0.0309 -0.0517,-0.0418 -0.0884,-0.0985 -0.14302,-0.13657 -0.0229,-0.0151 -0.0396,-0.0366 -0.0517,-0.0618 -0.005,-0.0123 -0.009,-0.0418 -0.0229,-0.0425 -0.009,0.0361 -0.009,0.0648 -0.0497,0.11375"
       style="fill:#21201d;fill-opacity:1;fill-rule:nonzero;stroke:none;stroke-width:0.184057"
       id="path598" />
    <path
       d="m 104.80834,146.28479 c -0.0346,0.0144 -0.0303,0.0769 -0.0286,0.10712 0.004,0.0596 0.0254,0.0898 0.0762,0.11927 0.0611,0.0346 0.11007,0.0856 0.17911,0.10565 0.0264,0.007 0.051,0.0173 0.0775,0.006 0.0339,-0.0136 0.0598,-0.0453 0.09,-0.0646 0.0381,-0.0252 0.0646,-0.0569 0.0777,-0.10141 0.009,-0.0344 0.005,-0.0698 0.006,-0.10418 0,-0.0756 -0.0138,-0.14467 -0.0819,-0.18774 -0.0519,-0.0324 -0.14026,-0.041 -0.19932,-0.0295 -0.0286,0.006 -0.0545,0.0186 -0.0819,0.0272 -0.0272,0.008 -0.0416,0.0151 -0.0618,0.0361 -0.0159,0.0171 -0.0388,0.028 -0.0532,0.0488 -0.0159,0.0217 -0.0332,0.0583 0,0.0368"
       style="fill:#21201d;fill-opacity:1;fill-rule:nonzero;stroke:none;stroke-width:0.184057"
       id="path600" />
    <path
       d="m 105.41663,146.3897 c 0.006,-0.0123 0.0138,-0.0237 0.0208,-0.0366 0.0117,-0.018 0.0222,-0.0353 0.0346,-0.0526 0.0264,-0.0366 0.0532,-0.0725 0.0797,-0.10841 0.0445,-0.0611 0.0999,-0.11504 0.14097,-0.17909 0.0618,-0.0985 0.13585,-0.18112 0.21646,-0.26523 0.0955,-0.0999 0.21551,-0.1662 0.30258,-0.27553 0.0243,-0.0302 0.0431,-0.0639 0.0648,-0.097 0.009,-0.0121 0.0169,-0.0245 0.0279,-0.0366 0.0109,-0.0123 0.0264,-0.0208 0.0366,-0.0346 0,0.0158 0.004,0.0361 -0.004,0.0512 -0.0106,0.028 -0.0445,0.0539 -0.0596,0.079 -0.0201,0.0346 -0.0293,0.0734 -0.0525,0.10657 -0.0254,0.0366 -0.0561,0.069 -0.0834,0.10418 -0.0268,0.0351 -0.0569,0.069 -0.0819,0.10638 -0.0166,0.0245 -0.0361,0.0482 -0.0532,0.0727 -0.0138,0.0201 -0.0339,0.0316 -0.049,0.0495 -0.0332,0.0381 -0.0502,0.0863 -0.0863,0.12295 -0.0388,0.041 -0.069,0.0893 -0.10269,0.13454 -0.0275,0.0366 -0.0591,0.069 -0.0878,0.10491 -0.0236,0.0302 -0.0403,0.0641 -0.0653,0.0928 -0.0173,0.0208 -0.0275,0.0445 -0.0447,0.0646 -0.0138,0.0158 -0.0314,0.0274 -0.0453,0.0425 -0.025,0.0265 -0.0353,0.0589 -0.074,0.0574 -0.0159,0 -0.0332,0.002 -0.0453,0.0116 -0.0109,0.008 -0.0173,0.0238 -0.0293,0.0258 -0.0131,-0.0374 0.0173,-0.074 0.0257,-0.10841 0.004,-0.0123 0.007,-0.023 0.0124,-0.0324"
       style="fill:#21201d;fill-opacity:1;fill-rule:nonzero;stroke:none;stroke-width:0.184057"
       id="path602" />
    <path
       d="m 104.65519,146.38032 c 0,0.003 0.004,0.005 0.006,0.008 -0.009,-0.004 -0.0113,-0.0158 -0.0173,-0.0245 -0.0159,-0.023 -0.0388,-0.0475 -0.0569,-0.069 -0.0747,-0.0869 -0.16972,-0.16308 -0.26599,-0.22437 -0.0655,-0.0409 -0.14319,-0.0683 -0.20281,-0.1178 -0.0374,-0.0302 -0.0633,-0.0727 -0.097,-0.10712 -0.0425,-0.0425 -0.0885,-0.0777 -0.13525,-0.1143 -0.0453,-0.0353 -0.0819,-0.0784 -0.11927,-0.12148 -0.0403,-0.049 -0.092,-0.13381 -0.16179,-0.14669 -0.0418,-0.007 -0.0438,0.0144 -0.0286,0.0473 0.012,0.0282 0.0272,0.0547 0.0401,0.0821 0.0166,0.0324 0.0268,0.0604 0.0554,0.0834 0.0339,0.028 0.0655,0.0574 0.10287,0.0804 0.0173,0.0109 0.0388,0.018 0.0554,0.0309 0.01,0.008 0.0145,0.0188 0.0215,0.0282 0.0187,0.0245 0.051,0.0201 0.0755,0.0388 0.0208,0.0179 0.0359,0.0409 0.0517,0.0626 0.018,0.0243 0.0381,0.0394 0.0611,0.0574 0.0254,0.018 0.046,0.0366 0.0742,0.0524 0.0201,0.0109 0.0409,0.0238 0.0589,0.0388 0.0272,0.023 0.0467,0.0525 0.0675,0.0814 0.0303,0.0423 0.0648,0.0819 0.10143,0.11779 0.0254,0.0237 0.0561,0.0453 0.0827,0.0663 0.0339,0.0243 0.0705,0.046 0.10636,0.0683 0.0152,0.009 0.0194,0.0179 0.0311,0.0287 0.0102,0.0107 0.0243,0.0173 0.0366,0.0265 0.0152,0.0123 0.0282,0.0217 0.0455,0.0296 0.006,-0.021 0.0106,-0.0994 0.0113,-0.10362"
       style="fill:#21201d;fill-opacity:1;fill-rule:nonzero;stroke:none;stroke-width:0.184057"
       id="path604" />
    <path
       d="m 105.24843,151.06367 c -0.0275,-0.0898 -0.0749,-0.17688 -0.10584,-0.2667 -0.0194,-0.0554 -0.0162,-0.1143 -0.0416,-0.16896 -0.0173,-0.0381 -0.0359,-0.0712 -0.0482,-0.11062 -0.0113,-0.0396 -0.0328,-0.0727 -0.0582,-0.10786 -0.0293,-0.0418 -0.0648,-0.0841 -0.0848,-0.12884 -0.0275,-0.0624 -0.0418,-0.13215 -0.0597,-0.19694 -0.0318,-0.1143 -0.0482,-0.23155 -0.072,-0.34658 -0.031,-0.14872 -0.0683,-0.2991 -0.0532,-0.44929 0.0236,-0.23228 0.0611,-0.46309 0.0849,-0.69519 -0.0215,0.11136 -0.0173,0.097 -0.0201,0.0848 -0.004,-0.0109 -0.008,-0.0151 -0.008,-0.0289 0,-0.0329 0.006,-0.0661 0.008,-0.0985 0.006,-0.0712 0.0475,-0.12792 0.0663,-0.19547 0.0145,-0.0526 0.0335,-0.11007 0.0589,-0.15976 0.0275,0.004 0.0159,0.0534 0.0152,0.0655 -0.004,0.0411 0,0.0848 0,0.1259 0,0.0401 0.0109,0.0797 0.0102,0.11927 0,0.0445 -0.0145,0.0891 -0.006,0.13307 0.008,0.0438 0.0339,0.0854 0.0303,0.13013 -0.004,0.0668 -0.004,0.13289 -0.004,0.19989 0,0.14301 0.0166,0.2875 0.0258,0.43051 0.004,0.0526 0,0.1051 0.006,0.15902 0.005,0.0388 0.012,0.0782 0.018,0.1178 0.0152,0.0942 0.0138,0.18627 0.013,0.28124 0,0.0683 0.004,0.13584 0.0243,0.20339 0.0194,0.0583 0.0394,0.11577 0.0539,0.17467 0.008,0.0396 0.0215,0.0784 0.0293,0.11724 0.007,0.0438 0.01,0.0878 0.0173,0.1316 0.0131,0.0755 0.0423,0.14946 0.0617,0.2229 0.018,0.0668 0.0173,0.13436 0.0368,0.20136 0.004,0.0114 0.0243,0.0524 0,0.0552 m 0.88639,-2.44594 c -0.0265,-0.0834 -0.0705,-0.16032 -0.0942,-0.24517 -0.009,-0.0316 -0.0201,-0.0589 -0.0366,-0.0876 -0.0272,-0.0468 -0.0403,-0.0972 -0.0633,-0.14596 -0.0145,-0.0309 -0.0286,-0.0611 -0.0401,-0.0935 -0.01,-0.0272 -0.0243,-0.0517 -0.0325,-0.0784 -0.0145,-0.0488 -0.0243,-0.10142 -0.0489,-0.14523 -0.0131,-0.0215 -0.0236,-0.0554 -0.0488,-0.0661 -0.01,-0.004 -0.0229,-0.004 -0.0318,-0.005 -0.0152,-0.004 -0.0254,-0.004 -0.0433,0.001 -0.069,0.018 -0.13878,0.0331 -0.20782,0.0517 -0.0552,0.0151 -0.10636,0.0418 -0.16231,0.0561 -0.0425,0.0101 -0.0841,0.0158 -0.12813,0.0215 -0.10859,0.0144 -0.21922,0.0195 -0.3278,0.0289 -0.10344,0.008 -0.19989,0.0374 -0.30332,0.0171 -0.0368,-0.006 -0.0697,-0.0208 -0.10435,-0.0329 -0.0159,-0.005 -0.0311,-0.009 -0.0475,-0.0109 -0.0138,-7e-4 -0.0321,0.004 -0.0453,-0.001 -0.005,-0.002 -0.008,-0.006 -0.0127,-0.009 -0.0113,-0.006 -0.0229,-0.004 -0.0353,-0.006 -0.0208,-0.003 -0.0403,-0.0107 -0.0598,-0.0171 -0.0194,-0.007 -0.0423,-0.023 -0.0596,-0.0361 -0.0138,-0.0107 -0.0243,-0.0245 -0.0445,-0.0208 v 0 c -0.046,0.0928 -0.0848,0.18755 -0.12792,0.28105 -0.0374,0.0814 -0.072,0.16032 -0.0977,0.24664 -0.0236,0.0814 -0.0346,0.16547 -0.0512,0.24811 -0.0173,0.0891 -0.0339,0.17891 -0.046,0.26817 -0.0113,0.0769 0.0123,0.16381 -0.0173,0.23725 -0.0102,0.0245 -0.0226,0.046 -0.0243,0.0725 -0.0102,0.0885 0.0328,0.17909 0.0502,0.26394 0.0116,0.0582 0.0187,0.11798 0.0339,0.17467 0.0194,0.0663 0.0517,0.12939 0.0777,0.19418 0.0208,0.0525 0.051,0.1 0.074,0.15167 0.0208,0.0475 0.0346,0.0977 0.0446,0.14816 0.01,0.046 0.0187,0.0913 0.03,0.13731 0.0131,0.0554 0.0187,0.11209 0.0361,0.16749 0.0314,0.10418 0.0782,0.20412 0.10195,0.31125 0.0268,0.12663 0.0547,0.25252 0.11229,0.36958 0.0401,0.0834 0.0632,0.17412 0.1071,0.25603 0.0394,0.0747 0.0985,0.14227 0.15314,0.20706 0.0374,0.0438 0.071,0.0977 0.1294,0.1121 0.0453,0.0116 0.0906,0.026 0.13586,0.0346 0.0303,0.006 0.0604,0.009 0.0898,0.0158 0.0229,0.005 0.0388,0.01 0.0618,0.001 0.0497,-0.0188 0.0885,-0.0547 0.12588,-0.09 0.0257,-0.025 0.0524,-0.0468 0.0712,-0.0777 0.0162,-0.0258 0.0303,-0.0446 0.0525,-0.0646 0.0229,-0.0223 0.0335,-0.0561 0.0525,-0.0813 0.0102,-0.0129 0.0215,-0.0243 0.031,-0.0374 0.012,-0.0171 0.0166,-0.0351 0.0254,-0.0539 0.0162,-0.0329 0.0408,-0.0626 0.0589,-0.0955 0.0187,-0.0346 0.0359,-0.0705 0.0574,-0.10289 0.0303,-0.0438 0.0677,-0.0819 0.0849,-0.13363 0.0152,-0.046 0.0353,-0.0913 0.0388,-0.14025 0.004,-0.0274 0.005,-0.0532 0.0123,-0.0799 0.01,-0.0351 0.0286,-0.0604 0.0453,-0.0913 0.0258,-0.0495 0.0502,-0.0955 0.0827,-0.14081 0.0251,-0.0331 0.0403,-0.0727 0.0604,-0.11006 0.018,-0.0359 0.0366,-0.0683 0.046,-0.10712 0.004,-0.0166 0.008,-0.0324 0.0145,-0.0482 0.006,-0.0151 0.005,-0.0294 0.01,-0.0431 0.004,-0.0109 0.0159,-0.0166 0.0215,-0.026 0.008,-0.0114 0.0116,-0.0245 0.0159,-0.0374 0.0109,-0.0324 0.0229,-0.0633 0.0332,-0.0955 0.0229,-0.072 0.0332,-0.1489 0.0532,-0.22161 0.0208,-0.074 0.0453,-0.14724 0.0683,-0.21995 0.0286,-0.0906 0.0705,-0.17761 0.0898,-0.27111 0.0254,-0.11854 0.0332,-0.23651 0.0318,-0.35799 0,-0.1178 -0.0403,-0.23505 -0.0762,-0.34658"
       style="fill:#21201d;fill-opacity:1;fill-rule:nonzero;stroke:none;stroke-width:0.184057"
       id="path606" />
  </g>
</svg>
