<?xml version="1.0" encoding="UTF-8" standalone="no"?>
<!-- Created with Inkscape (http://www.inkscape.org/) -->

<svg
   width="7.6207776mm"
   height="7.685339mm"
   viewBox="0 0 7.6207776 7.685339"
   version="1.1"
   id="svg2204"
   inkscape:version="1.1.2 (0a00cf5339, 2022-02-04)"
   sodipodi:docname="c9.svg"
   xmlns:inkscape="http://www.inkscape.org/namespaces/inkscape"
   xmlns:sodipodi="http://sodipodi.sourceforge.net/DTD/sodipodi-0.dtd"
   xmlns="http://www.w3.org/2000/svg"
   xmlns:svg="http://www.w3.org/2000/svg">
  <sodipodi:namedview
     id="namedview2206"
     pagecolor="#ffffff"
     bordercolor="#666666"
     borderopacity="1.0"
     inkscape:pageshadow="2"
     inkscape:pageopacity="0.0"
     inkscape:pagecheckerboard="0"
     inkscape:document-units="mm"
     showgrid="false"
     inkscape:zoom="0.64052329"
     inkscape:cx="-1025.7238"
     inkscape:cy="380.15792"
     inkscape:window-width="2560"
     inkscape:window-height="1376"
     inkscape:window-x="0"
     inkscape:window-y="0"
     inkscape:window-maximized="1"
     inkscape:current-layer="layer1" />
  <defs
     id="defs2201" />
  <g
     inkscape:label="Layer 1"
     inkscape:groupmode="layer"
     id="layer1"
     transform="translate(-376.2173,-47.791515)">
    <path
       d="m 380.99861,51.632759 c -0.004,0.02797 -0.0144,0.05319 -0.018,0.08117 -0.005,0.04896 -7.1e-4,0.09571 -7.1e-4,0.143016 7.1e-4,0.06111 -0.008,0.128104 -0.0158,0.189946 -0.006,0.05025 -0.004,0.09773 -0.0158,0.147983 -0.009,0.04325 -0.0136,0.08411 -0.0136,0.128104 0,0.03443 0.004,0.07105 7e-4,0.104913 -0.004,0.04307 -0.018,0.08835 -0.0265,0.130866 -0.009,0.05816 -0.041,0.112092 -0.0547,0.169701 -0.0101,0.04454 -0.0101,0.09129 -0.0223,0.136571 -0.0101,0.03517 -0.0237,0.08559 -0.0447,0.116508 -0.004,0.0079 -0.0114,0.01069 -0.0151,0.02007 -0.007,0.01362 -0.006,0.03461 -0.0107,0.0497 -0.0109,0.03221 -0.0331,0.05963 -0.046,0.09129 -0.0138,0.0309 -0.0215,0.06681 -0.0403,0.09479 -0.006,0.01087 -0.0173,0.01803 -0.0245,0.02889 -0.0245,0.03369 -0.0359,0.07546 -0.0554,0.111354 -0.0186,0.03534 -0.0337,0.06552 -0.0453,0.102887 -0.0129,0.04013 -0.0265,0.09056 -0.046,0.12645 -0.0136,0.02522 -0.0302,0.04031 -0.0388,0.06681 -0.009,0.02596 -0.0208,0.03957 -0.0388,0.05982 -0.0243,0.02798 -0.0423,0.06976 -0.079,0.08558 -0.0116,0.005 -0.0237,0.0028 -0.0353,0.0099 -0.0215,0.01305 -0.0344,0.03663 -0.051,0.05319 -0.028,0.02815 -0.0618,0.04749 -0.0906,0.07418 -0.0302,0.02723 -0.072,0.02723 -0.10565,0.04951 -0.0195,0.01305 -0.0316,0.02667 -0.0561,0.0309 -0.0158,0.0021 -0.0324,-7.06e-4 -0.0482,0 -0.0482,0.0021 -0.0769,0.04178 -0.11926,0.05835 -0.0871,0.03295 -0.17412,0.0035 -0.26247,-0.0028 -0.074,-0.005 -0.1316,-0.05393 -0.19418,-0.08982 -0.046,-0.02741 -0.0826,-0.03957 -0.11927,-0.08062 -0.0195,-0.02226 -0.0381,-0.04086 -0.0539,-0.06534 -0.0252,-0.04105 -0.0497,-0.0705 -0.0655,-0.117246 -0.009,-0.02872 -0.0178,-0.05688 -0.0265,-0.08485 -0.0166,-0.05393 -0.0438,-0.100679 -0.0648,-0.153875 -0.0151,-0.03883 -0.028,-0.07914 -0.0467,-0.117242 -0.0265,-0.05025 -0.0547,-0.100496 -0.0769,-0.153137 -0.0151,-0.03443 -0.0237,-0.07178 -0.0409,-0.107121 -0.0202,-0.0416 -0.0453,-0.08117 -0.0655,-0.12295 -0.0178,-0.03737 -0.025,-0.07105 -0.0329,-0.110621 -0.006,-0.03387 -0.0188,-0.06553 -0.026,-0.09847 -0.008,-0.0381 -0.004,-0.07841 -0.004,-0.116508 0,-0.06258 -0.002,-0.120191 -0.007,-0.18185 -0.005,-0.04822 -0.0114,-0.09571 -0.0107,-0.144671 0.001,-0.08761 -0.0123,-0.180375 -0.0245,-0.267433 -0.008,-0.04877 -0.0114,-0.09847 -0.023,-0.145959 -0.0101,-0.0416 -0.0252,-0.0819 -0.0265,-0.124975 -0.002,-0.07841 -0.007,-0.163258 0.0186,-0.237987 0.0158,-0.04472 0.0381,-0.0878 0.0532,-0.133809 0.0144,-0.04307 0.0215,-0.09424 0.0403,-0.136571 0.0193,-0.04454 0.0331,-0.09129 0.051,-0.136574 0.0188,-0.04454 0.0418,-0.08485 0.0655,-0.126629 0.0223,-0.04086 0.0309,-0.08761 0.0547,-0.127921 0.0201,-0.03589 0.0388,-0.0727 0.0582,-0.107859 0.0215,-0.03736 0.0423,-0.06828 0.0727,-0.09921 0.0136,-0.01362 0.0431,-0.07344 0.0631,-0.07693 -0.01,-0.02448 0.0188,-0.0554 0.0554,-0.0727 0.0547,-0.02649 0.10712,-0.05816 0.164,-0.08117 0.0819,-0.03387 0.1581,-0.0762 0.24369,-0.100679 0.0935,-0.02649 0.18902,-0.04601 0.28621,-0.02872 0.0272,0.005 0.0552,-0.0021 0.0826,0.0035 0.0201,0.0037 0.0396,0.01161 0.0596,0.01436 0.0331,0.0052 0.0668,0.0028 0.0999,0.0086 0.0193,0.0028 0.0381,0.0079 0.0574,0.01087 0.0376,0.005 0.0742,0.01214 0.1108,0.02155 0.0374,0.0094 0.0733,0.0028 0.10639,0.02667 0.0683,0.04951 0.16031,0.07473 0.21865,0.139516 0.0539,0.06037 0.10271,0.128655 0.15958,0.186084 0.0272,0.02815 0.0547,0.0611 0.0804,0.09129 0.0302,0.03681 0.041,0.09497 0.0626,0.138042 0.0267,0.05761 0.0468,0.132338 0.0396,0.195654 -0.003,0.0302 7.1e-4,0.06184 0.004,0.09203 0.008,0.06829 0.0203,0.13657 0.0217,0.206329 7e-4,0.05025 0.004,0.104912 -7.1e-4,0.155345 m 0.2113,-0.0762 c -0.005,-0.05393 -0.004,-0.10657 -0.009,-0.159762 -0.006,-0.07473 -0.0243,-0.148721 -0.0351,-0.223446 -0.0101,-0.06626 -0.0237,-0.131604 -0.0374,-0.197129 -0.0195,-0.09479 -0.0287,-0.187554 -0.0819,-0.270933 -0.0368,-0.05835 -0.0655,-0.119451 -0.0964,-0.181296 -0.0309,-0.05816 -0.0611,-0.09129 -0.11651,-0.12295 -0.0215,-0.01288 -0.0409,-0.02152 -0.0582,-0.03957 -0.023,-0.02431 -0.041,-0.05099 -0.0663,-0.07326 -0.051,-0.0438 -0.10989,-0.04233 -0.17541,-0.04104 -0.0631,0.0014 -0.094,-0.01436 -0.14375,-0.0532 -0.0331,-0.02575 -0.0653,-0.05963 -0.10859,-0.06976 -0.0604,-0.01436 -0.12442,-0.0099 -0.18608,-0.02152 -0.0591,-0.01069 -0.11375,-0.03443 -0.17485,-0.03443 -0.0653,7.05e-4 -0.12719,0.01069 -0.1905,0.02431 -0.0668,0.01453 -0.1294,0.04252 -0.19621,0.06129 -0.0425,0.01288 -0.0826,0.02872 -0.12368,0.04602 -0.11356,0.0473 -0.21424,0.101967 -0.30701,0.185346 -0.0547,0.04896 -0.11945,0.09497 -0.1697,0.148904 -0.0158,0.01655 -0.0193,0.03883 -0.0351,0.05614 -0.0626,0.06681 -0.1259,0.134362 -0.17688,0.212033 -0.0374,0.05816 -0.0698,0.119271 -0.10584,0.179825 -0.0351,0.0589 -0.0703,0.124238 -0.0948,0.189029 -0.0129,0.03514 -0.007,0.06681 -0.008,0.104175 -7e-4,0.04326 -0.0151,0.08209 -0.0202,0.124425 -0.009,0.09773 -0.004,0.194917 -0.0107,0.29265 -0.003,0.04307 -0.0109,0.08264 -0.0143,0.123688 -10e-4,0.0151 -0.002,0.0302 -0.002,0.04528 v 0.14375 c 0,0.111538 -0.008,0.222155 0.018,0.332221 0.0201,0.08559 0.0409,0.168967 0.0502,0.255842 0.007,0.0762 0.0144,0.154608 0.0267,0.22952 0.0136,0.08467 0.0453,0.170992 0.0747,0.251609 0.0287,0.07823 0.0431,0.159575 0.072,0.238721 0.0374,0.104912 0.0834,0.207066 0.11282,0.315475 0.0245,0.0935 0.0827,0.168966 0.13087,0.251058 0.0215,0.03514 0.0366,0.06755 0.0675,0.09626 0.0344,0.03387 0.0633,0.07344 0.10215,0.102891 0.0258,0.02007 0.056,0.03514 0.0834,0.05393 0.0777,0.05025 0.15387,0.111354 0.24517,0.13215 0.0574,0.01309 0.11577,0.04105 0.17393,0.04675 0.041,0.0037 0.0849,0 0.12663,0 0.11577,0 0.217,-0.0021 0.31621,-0.06829 0.0504,-0.03443 0.0979,-0.06976 0.15534,-0.09277 0.0359,-0.0151 0.0755,-0.02374 0.11154,-0.03939 0.0495,-0.02244 0.0963,-0.05761 0.13289,-0.09718 0.044,-0.04675 0.0675,-0.107121 0.10142,-0.16105 0.0237,-0.03736 0.0569,-0.07049 0.0826,-0.10565 0.0274,-0.03883 0.0532,-0.07767 0.0849,-0.113563 0.0727,-0.08559 0.12222,-0.177617 0.17044,-0.27903 0.0423,-0.08835 0.0878,-0.173937 0.1259,-0.264491 0.0265,-0.06553 0.0416,-0.130867 0.0589,-0.199154 0.0144,-0.05835 0.0359,-0.113009 0.0482,-0.171171 0.008,-0.04178 0.0179,-0.08264 0.0272,-0.124425 0.0101,-0.04454 0.009,-0.08982 0.0109,-0.135096 7.1e-4,-0.02155 0.003,-0.04325 0.007,-0.06405 0.004,-0.02007 0.0151,-0.03736 0.0107,-0.05743 -0.007,-0.04031 7.1e-4,-0.0762 0.006,-0.117246 0.008,-0.05043 0.0123,-0.102154 0.0123,-0.153137 -7e-4,-0.115771 -7e-4,-0.231542 -7e-4,-0.347317 0,-0.05466 0.004,-0.110617 -0.002,-0.164546"
       style="fill:#21201d;fill-opacity:1;fill-rule:nonzero;stroke:none;stroke-width:0.184057"
       id="path560" />
    <path
       d="m 378.54035,52.488259 c 0.004,0.01235 -0.004,0.01235 -0.007,0.02007 -0.006,0.01658 -0.0107,0.02667 -0.0121,0.04546 -0.003,0.05522 7e-4,0.112092 7e-4,0.167492 0,0.09773 0.01,0.201175 -0.009,0.298359 -0.026,0.128658 -0.026,0.265962 -0.0747,0.38965 -0.0136,0.03589 -0.0388,0.07841 -0.0604,0.110804 -0.0361,0.05172 -0.0878,0.09055 -0.12515,0.141541 -0.0201,0.02667 -0.0431,0.05043 -0.0675,0.0727 -0.0158,0.01436 -0.0324,0.02872 -0.0497,0.0416 -0.0265,0.02152 -0.0525,0.04104 -0.0747,0.06755 -0.0675,0.08283 -0.11006,0.185533 -0.22215,0.220134 -0.0596,0.01859 -0.12866,0.04749 -0.17688,0.08761 -0.0173,0.01436 -0.0359,0.02226 -0.0561,0.03164 -0.0287,0.01288 -0.0559,0.02798 -0.0841,0.04178 -0.0653,0.03295 -0.12866,0.08117 -0.18755,0.126446 -0.026,0.02081 -0.0504,0.04105 -0.0799,0.05614 -0.0201,0.01069 -0.0201,0.01436 -0.0193,0.03663 10e-4,0.03534 0.0151,0.05614 0.0401,0.08485 0.0504,0.0554 0.10657,0.101417 0.16252,0.148904 0.0648,0.05522 0.13087,0.09847 0.20283,0.143746 0.11062,0.0705 0.22068,0.137308 0.33867,0.196208 0.0381,0.01877 0.0769,0.03387 0.11706,0.04749 0.0324,0.01087 0.064,0.02152 0.095,0.03663 0.0287,0.01436 0.0554,0.03461 0.0878,0.04325 0.0423,0.01288 0.0869,0.03164 0.12571,0.05522 0.046,0.02667 0.0871,0.05117 0.13657,0.07197 0.0561,0.02374 0.10712,0.05172 0.16621,0.06902 0.071,0.01951 0.13804,0.04307 0.21056,0.05761 0.0346,0.0079 0.0683,0.023 0.10288,0.02797 0.025,0.0042 0.0525,7.06e-4 0.0784,7.06e-4 0.0826,7.05e-4 0.16602,0.01729 0.24866,0.0302 0.12663,0.01933 0.25381,0.02649 0.38173,0.01013 0.1259,-0.01584 0.25382,-0.02226 0.37971,-0.03884 0.10418,-0.01379 0.21203,-0.02667 0.31492,-0.04896 0.0963,-0.02081 0.18976,-0.04749 0.2875,-0.06405 0.17982,-0.02872 0.35817,-0.07178 0.52271,-0.150929 0.0252,-0.01214 0.049,-0.03313 0.0762,-0.03957 0.0136,-0.0028 0.026,-0.0042 0.0381,-0.01069 0.0295,-0.01584 0.0626,-0.02522 0.0935,-0.03957 0.0618,-0.02872 0.1259,-0.0497 0.1883,-0.07694 0.0764,-0.03387 0.1454,-0.07546 0.22583,-0.101413 0.0747,-0.02374 0.13878,-0.0727 0.20485,-0.113566 0.0381,-0.02374 0.0791,-0.04104 0.11651,-0.06552 0.0848,-0.05522 0.14449,-0.178905 0.0942,-0.274613 -0.0203,-0.03884 -0.0504,-0.07473 -0.0747,-0.111354 -0.0309,-0.0497 -0.0893,-0.08136 -0.13455,-0.117246 -0.0705,-0.05614 -0.15166,-0.118717 -0.23578,-0.151663 -0.0173,-0.0072 -0.0388,-0.01161 -0.0576,-0.01877 -0.0329,-0.01362 -0.0618,-0.04233 -0.0928,-0.06037 -0.048,-0.02872 -0.0913,-0.06902 -0.1351,-0.102705 -0.041,-0.03094 -0.0683,-0.07915 -0.11209,-0.105833 -0.0346,-0.02152 -0.0806,-0.03736 -0.11872,-0.05172 -0.0265,-0.01012 -0.0547,-0.01877 -0.0841,-0.02226 -0.0166,-0.0021 -0.0366,0.0014 -0.0532,-0.0037 -0.0547,-0.01785 -0.0539,-0.07105 -0.0698,-0.118533 -0.008,-0.02448 -0.0237,-0.04178 -0.0309,-0.06553 -0.006,-0.01933 -0.01,-0.03939 -0.0158,-0.05964 -0.0129,-0.04528 -0.0316,-0.08043 -0.0316,-0.127184 0.001,-0.05172 -0.0136,-0.09645 -0.0193,-0.146692 -10e-4,-0.02007 -0.005,-0.08982 -0.0339,-0.09571 -0.0396,0.06479 -0.0782,0.125896 -0.10713,0.196391 -0.0245,0.05816 -0.0611,0.102705 -0.0985,0.153134 -0.0331,0.04602 -0.0626,0.09626 -0.0883,0.146696 -0.0274,0.05245 -0.0403,0.113563 -0.0841,0.154608 -0.0618,0.05963 -0.13012,0.107121 -0.19785,0.159579 -0.0827,0.06387 -0.1524,0.14375 -0.23928,0.201913 -0.0447,0.02963 -0.0928,0.05466 -0.13878,0.08282 -0.0561,0.03295 -0.11006,0.0381 -0.17338,0.03883 -0.0639,7.05e-4 -0.12424,0.0151 -0.18829,0.005 -0.10436,-0.01584 -0.20209,-0.04601 -0.30406,-0.07197 -0.0467,-0.01214 -0.11798,-0.02946 -0.14522,-0.07178 -0.0324,-0.05043 -0.0821,-0.08706 -0.11301,-0.140988 -0.0107,-0.01877 -0.0265,-0.03164 -0.0396,-0.0497 -0.0201,-0.02649 -0.0315,-0.05963 -0.051,-0.08761 -0.0129,-0.01803 -0.0324,-0.0302 -0.0438,-0.04822 -0.0101,-0.01584 -0.0123,-0.03164 -0.0158,-0.04951 -0.009,-0.04178 -0.008,-0.07914 -0.008,-0.122212 -10e-4,-0.08559 -0.049,-0.147433 -0.1,-0.212221 -0.018,-0.02374 -0.0353,-0.0438 -0.0425,-0.07399 -0.008,-0.03883 -0.0158,-0.07123 -0.0351,-0.107121 -0.018,-0.03461 -0.0109,-0.07399 -0.0109,-0.112276 0,-0.03589 0.002,-0.07178 0,-0.107674 -7.1e-4,-0.03681 -0.008,-0.067 -0.0272,-0.09792 -0.009,-0.01362 -0.0188,-0.02649 -0.0267,-0.04086 -0.0164,-0.03164 -0.0223,-0.06553 -0.0445,-0.0935 -0.009,-0.01235 -0.0265,-0.02226 -0.0324,-0.03663 -0.004,-0.01087 -7e-4,-0.02522 0,-0.03608 0,-0.02081 -7e-4,-0.0416 0,-0.06258 0,-0.02505 -0.003,-0.0438 -0.023,-0.06166 -0.0129,-0.01087 -0.0401,-0.01309 -0.0524,-0.05043"
       style="fill:#21201d;fill-opacity:1;fill-rule:nonzero;stroke:none;stroke-width:0.184057"
       id="path562" />
    <path
       d="m 382.64793,50.590805 c 0.001,-0.03589 7.1e-4,-0.07325 -0.0116,-0.104175 -0.0166,-0.04233 -0.0488,-0.0762 -0.0711,-0.115775 -0.026,-0.04601 -0.0591,-0.06828 -0.0957,-0.104913 -0.0144,-0.01362 -0.0252,-0.0309 -0.0374,-0.04601 -0.0216,-0.02741 -0.0482,-0.04602 -0.0777,-0.06479 -0.0245,-0.01584 -0.046,-0.03884 -0.0733,-0.05099 -0.0188,-0.0094 -0.0388,-0.01161 -0.0591,-0.01655 -0.0639,-0.01584 -0.12792,-0.04675 -0.18829,-0.07399 -0.0453,-0.02152 -0.0871,-0.04749 -0.13454,-0.06479 -0.0388,-0.0151 -0.074,-0.02649 -0.10989,-0.04675 -0.0712,-0.04086 -0.1373,-0.07399 -0.21792,-0.09056 -0.0977,-0.01933 -0.18185,-0.07546 -0.25529,-0.140987 -0.0445,-0.03939 -0.0876,-0.07547 -0.13583,-0.111355 -0.0517,-0.03737 -0.0942,-0.08706 -0.14448,-0.125162 -0.0863,-0.06313 -0.15811,-0.150191 -0.19418,-0.252342 -0.0215,-0.06258 -0.0344,-0.128658 -0.0374,-0.194733 -0.002,-0.06773 0.008,-0.135283 0.0215,-0.201358 0.006,-0.03313 0.018,-0.06608 0.021,-0.09995 7.1e-4,-0.01584 -0.003,-0.03239 0,-0.04822 0.006,-0.03884 0.0503,-0.08485 0.0782,-0.110621 0.0131,-0.01161 0.023,-0.01379 0.0368,-0.023 0.0322,-0.02226 0.0567,-0.0554 0.0891,-0.07767 0.0144,-0.01013 0.0287,-0.01305 0.0445,-0.02081 0.0116,-0.0066 0.018,-0.01584 0.028,-0.02448 0.0217,-0.01584 0.0663,-0.01803 0.092,-0.02374 0.0267,-0.0072 0.0527,-0.01584 0.0799,-0.02099 0.0287,-0.0057 0.0589,-0.0035 0.0885,-0.0085 0.0409,-0.0066 0.0847,-0.0151 0.12644,-0.0151 0.0201,0 0.0374,0.0085 0.0561,0.01214 0.0287,0.0057 0.0503,-0.0086 0.0769,-0.0094 0.0287,-0.0021 0.0683,0.01584 0.094,0.02741 0.0267,0.01214 0.0403,0.03221 0.0648,0.04878 0.0381,0.02596 0.074,0.05835 0.11006,0.08706 0.033,0.02374 0.0552,0.05614 0.0782,0.08835 0.021,0.02889 0.0324,0.06553 0.0504,0.09571 0.0287,0.04823 0.0237,0.08835 0.0114,0.142279 -0.009,0.0381 -0.0136,0.08411 -0.0329,0.119454 -0.0109,0.02078 -0.0267,0.04031 -0.0425,0.05816 -0.007,0.0079 -0.0107,0.01803 -0.0237,0.02025 0.0166,-0.01013 0.0166,-0.0381 0.021,-0.05614 0.005,-0.02448 0.0171,-0.05393 0.0186,-0.07841 7.1e-4,-0.01732 7.1e-4,-0.03589 7.1e-4,-0.05393 7e-4,-0.02579 -0.0101,-0.03164 -0.0238,-0.05098 -0.009,-0.01362 -0.0151,-0.03094 -0.0272,-0.04381 -0.0138,-0.01231 -0.0324,-0.02025 -0.0475,-0.03238 -0.0856,-0.06976 -0.19695,-0.09645 -0.29339,-0.148166 -0.0272,-0.01436 -0.0503,-0.01288 -0.0812,-0.01362 -0.0295,0 -0.0519,-0.0079 -0.0806,-0.01235 -0.0316,-0.0065 -0.0819,7.06e-4 -0.11209,0.01305 -0.0109,0.0042 -0.0195,0.01288 -0.0287,0.01933 -0.0554,0.04031 -0.11154,0.07546 -0.14964,0.134546 -0.0344,0.05522 -0.0791,0.120005 -0.0747,0.189763 0.003,0.03736 0.0245,0.07841 0.0403,0.112829 0.0171,0.03608 0.0351,0.06828 0.0582,0.101416 0.0201,0.02946 0.0381,0.05963 0.0561,0.09056 0.0121,0.02226 0.0295,0.0381 0.0438,0.05963 0.0344,0.0497 0.074,0.09203 0.1165,0.135284 0.0374,0.03737 0.0834,0.06184 0.12369,0.09424 0.079,0.06387 0.17246,0.114854 0.26596,0.153688 0.0611,0.02448 0.12369,0.04252 0.18332,0.06902 0.0576,0.02667 0.11283,0.05393 0.17264,0.07565 0.12645,0.04454 0.25087,0.06902 0.37309,0.133626 0.0344,0.01951 0.0935,0.03737 0.11798,0.0705 0.008,0.01013 0.0114,0.02798 0.0171,0.04105 0.0131,0.02575 0.0289,0.05025 0.0475,0.07252 0.0274,0.0302 0.0539,0.06037 0.0806,0.09056 0.0453,0.05908 0.0769,0.127367 0.0869,0.201358 0.005,0.04307 0.0109,0.06681 0.0289,0.107121 0.0193,0.04381 0.0223,0.08062 0.0215,0.127921 -7e-4,0.09497 0.008,0.192709 -7e-4,0.286946 -0.008,0.08633 -0.0467,0.165284 -0.095,0.235042 -0.0596,0.08412 -0.14301,0.146695 -0.18185,0.243879 -0.0173,0.0438 -0.0532,0.06755 -0.0913,0.09479 -0.0475,0.03461 -0.0985,0.06755 -0.14816,0.09921 -0.0525,0.03534 -0.10344,0.08209 -0.16105,0.107121 -0.0272,0.01235 -0.0554,0.01803 -0.0826,0.02741 -0.0871,0.0309 -0.16547,0.0797 -0.25308,0.107859 -0.0698,0.02226 -0.14172,0.04233 -0.20927,0.06829 -0.0633,0.02448 -0.0863,0.0151 -0.14596,-0.01729 -0.0302,-0.01729 -0.0733,-0.03443 -0.0834,-0.07399 -0.0144,-0.0519 7.1e-4,-0.128104 7.1e-4,-0.182033 -7.1e-4,-0.01933 -0.007,-0.04675 0.008,-0.05743 0.0144,-0.01087 0.0467,-0.0014 0.0633,-0.0044 0.002,0 0.004,-0.0077 0.009,-0.0092 0.0195,-0.0037 0.0482,0 0.0685,-0.0014 0.0639,-0.0037 0.12718,-0.01288 0.18902,-0.02946 0.0863,-0.023 0.1697,-0.04454 0.25382,-0.07546 0.17835,-0.06773 0.31842,-0.201359 0.42627,-0.355971 0.0633,-0.09055 0.12148,-0.187 0.14375,-0.296883 0.009,-0.04749 0.0245,-0.09498 0.0274,-0.143934 0,-0.01214 7.1e-4,-0.02575 0.001,-0.03884"
       style="fill:#21201d;fill-opacity:1;fill-rule:nonzero;stroke:none;stroke-width:0.184057"
       id="path564" />
    <path
       d="m 378.23555,52.76085 c -0.003,-0.0094 -0.008,-0.01951 -0.0173,-0.02815 -0.0547,-0.05319 -0.16308,-0.04454 -0.23081,-0.05743 -0.0782,-0.0151 -0.16031,-0.05908 -0.21774,-0.113566 -0.0302,-0.03037 -0.0403,-0.0727 -0.0675,-0.104358 -0.023,-0.02649 -0.0403,-0.05614 -0.0539,-0.08982 -0.0223,-0.0589 -0.0339,-0.115038 -0.0339,-0.178354 7.1e-4,-0.05743 -0.003,-0.115034 -0.0144,-0.171171 -0.005,-0.02357 -0.0158,-0.03939 -0.0223,-0.06185 -0.0158,-0.04877 -0.0245,-0.09976 -0.0374,-0.149454 -0.003,-0.01087 -0.006,-0.02152 -0.0123,-0.03164 -0.01,-0.01658 -0.0265,-0.02723 -0.0409,-0.04031 -0.0504,-0.04675 -0.0849,-0.109146 -0.13381,-0.158104 -0.0445,-0.04528 -0.097,-0.08485 -0.14945,-0.121479 -0.0361,-0.02448 -0.0618,-0.05761 -0.0972,-0.08338 -0.0178,-0.01379 -0.0396,-0.02025 -0.0596,-0.02946 -0.0438,-0.02099 -0.0834,-0.04822 -0.13381,-0.0497 -0.0366,-0.0014 -0.0718,-0.0094 -0.10767,-0.01012 -0.067,-0.0021 -0.13528,-0.0028 -0.20062,-0.0065 -0.0237,-0.0014 -0.0302,0.01012 -0.049,0.02374 -0.0445,0.03313 -0.0891,0.06258 -0.13086,0.09847 -0.0324,0.02872 -0.0618,0.05246 -0.0834,0.09056 -0.0201,0.03461 -0.0396,0.06479 -0.0641,0.09645 -0.0179,0.02374 -0.0237,0.05743 -0.0317,0.08632 -0.008,0.03147 -0.0179,0.06461 -0.0243,0.097 -0.009,0.04233 -0.001,0.08633 -0.001,0.129392 0,0.04105 -0.002,0.08062 0.002,0.120742 0.008,0.06773 0.0532,0.122216 0.0898,0.176145 0.0344,0.05043 0.0733,0.103625 0.11651,0.146692 0.0438,0.04381 0.0985,0.07344 0.1408,0.118721 0.0331,0.03514 0.0598,0.07841 0.0849,0.119267 0.041,0.06755 0.0539,0.154608 0.0532,0.233017 0,0.05099 7e-4,0.102153 7e-4,0.153137 0,0.05669 -0.0166,0.102704 -0.0396,0.153871 -0.0186,0.04086 -0.0502,0.0797 -0.0841,0.109333 -0.0366,0.03295 -0.074,0.0438 -0.12148,0.05742 -0.0252,0.0079 -0.0482,0.01584 -0.069,0.03239 -0.0101,0.0079 -0.018,0.01584 -0.0302,0.02007 -0.0136,0.0052 -0.0539,-0.0028 -0.0554,0.01951 0.0223,0.0057 0.0504,0.0014 0.0742,0.0014 0.0488,7.05e-4 0.1143,-0.0021 0.15811,-0.02505 0.0173,-0.0086 0.0302,-0.02374 0.049,-0.03094 0.023,-0.0094 0.046,-0.01231 0.0675,-0.02596 0.0388,-0.02448 0.0869,-0.06405 0.11356,-0.102153 0.006,-0.0065 0.0109,-0.0151 0.0158,-0.023 0.0683,-0.113566 0.0675,-0.253633 0.0675,-0.383208 0,-0.112829 -0.0208,-0.238541 -0.0668,-0.3429 -0.0388,-0.08982 -0.1294,-0.133629 -0.1848,-0.210562 -0.0697,-0.09866 -0.16602,-0.182771 -0.16823,-0.3129 -10e-4,-0.04233 -0.0123,-0.08835 -0.009,-0.132154 0.002,-0.01729 0.009,-0.03387 0.018,-0.04896 0.007,-0.01143 0.0166,-0.02152 0.0251,-0.03164 0.0403,-0.04528 0.0856,-0.0935 0.13233,-0.132337 0.0136,-0.01069 0.0252,-0.02723 0.0388,-0.03589 0.023,-0.01436 0.0524,-0.0072 0.0769,-0.0072 0.0381,0.0014 0.0755,0.01877 0.11209,0.02798 0.0346,0.0086 0.0685,0.01161 0.0999,0.02741 0.0519,0.02649 0.10436,0.07399 0.1467,0.1143 0.0467,0.04454 0.0935,0.097 0.13086,0.149455 0.0203,0.02815 0.046,0.04896 0.0626,0.07915 0.0195,0.03461 0.0267,0.07123 0.046,0.105647 0.0158,0.02815 0.0287,0.05761 0.0446,0.08706 0.018,0.03443 0.0302,0.0554 0.0353,0.09424 0.007,0.06828 0.0121,0.136571 0.0243,0.204121 0.007,0.03663 0.0101,0.07325 0.018,0.109329 0.008,0.03884 0.0245,0.07694 0.0374,0.1143 0.0289,0.08117 0.10289,0.126447 0.16694,0.17688 0.0337,0.02649 0.0604,0.04822 0.10049,0.06258 0.0403,0.01436 0.0814,0.03369 0.11872,0.05393 0.051,0.02723 0.10344,0.07252 0.15958,0.08908 0.049,0.01436 0.12148,0.0094 0.1719,0.0028 0.0401,-0.0044 0.0302,-0.02226 0.0302,-0.05982 -7e-4,-0.02505 0,-0.04951 0,-0.07473 -7e-4,-0.03957 0.023,-0.08117 0.0129,-0.117796"
       style="fill:#21201d;fill-opacity:1;fill-rule:nonzero;stroke:none;stroke-width:0.184057"
       id="path566" />
    <path
       d="m 378.19396,51.295563 c -0.0388,-0.02099 -0.0836,-0.02963 -0.11946,-0.05687 -0.0539,-0.04031 -0.0732,-0.09847 -0.0942,-0.158841 -0.0208,-0.06184 -0.0272,-0.133809 -0.0265,-0.197676 0,-0.03461 0.006,-0.06902 0.0101,-0.103625 0.004,-0.02522 0.006,-0.0554 0.0157,-0.07915 0.018,-0.03939 0.0447,-0.07896 0.0698,-0.1143 0.0504,-0.06902 0.10068,-0.138045 0.15111,-0.207066 0.0337,-0.04804 0.071,-0.09479 0.10068,-0.145958 0.0272,-0.04877 0.0431,-0.102704 0.0532,-0.157367 0.0144,-0.07547 0.046,-0.14375 0.0631,-0.218663 0.0123,-0.05669 0.0217,-0.1143 0.0245,-0.172462 0.004,-0.05319 0.004,-0.108592 -0.007,-0.161788 -0.004,-0.02152 -0.009,-0.04675 -0.018,-0.06755 -0.008,-0.01729 -0.0223,-0.03387 -0.0315,-0.05117 -0.0224,-0.0381 -0.0368,-0.09921 -0.0749,-0.126446 -0.0151,-0.01013 -0.0337,-0.01362 -0.0495,-0.023 -0.018,-0.01161 -0.0331,-0.02741 -0.0504,-0.03957 -0.0517,-0.03736 -0.10988,-0.06258 -0.17172,-0.07252 -0.0302,-0.0052 -0.0633,-0.0014 -0.092,-0.0094 -0.009,-0.0021 -0.0188,-0.0094 -0.0287,-0.01235 -0.0727,-0.02649 -0.14669,-0.02374 -0.22289,-0.01785 -0.0224,7.06e-4 -0.0447,0.01214 -0.067,0.0151 -0.007,7.06e-4 -0.0144,0.0014 -0.0216,0.0028 -0.0121,0.0028 -0.0223,0.01012 -0.0331,0.01584 -0.0315,0.01584 -0.0618,0.0267 -0.0891,0.05043 -0.0497,0.04381 -0.0871,0.104913 -0.10933,0.166758 -0.0121,0.03387 -0.025,0.06479 -0.0316,0.100679 -0.006,0.03883 -0.002,0.08043 -0.002,0.120005 0,0.08062 0.0179,0.159579 0.0201,0.240196 0.001,0.0554 -0.002,0.132337 -0.0366,0.180375 -0.009,0.01309 -0.0223,0.023 -0.0316,0.03681 -0.0144,0.02152 -0.018,0.04657 -0.028,0.07031 -0.0109,0.02522 -0.0274,0.04749 -0.041,0.07049 -0.0215,0.03663 -0.046,0.0727 -0.0777,0.101417 -0.008,0.0065 -0.0101,0.01436 -0.018,0.01933 -0.0164,0.01087 -0.0315,0.0094 -0.0473,0.02374 -0.0223,0.01877 -0.0353,0.04105 -0.0611,0.0519 -0.0403,0.01637 -0.0814,0.0302 -0.12222,0.04307 -0.0554,0.01803 -0.11154,0.03387 -0.16546,0.05466 -0.0186,0.0065 -0.0324,0.0079 -0.0517,0.01143 -0.006,7.05e-4 -0.0124,0.0065 -0.0208,0.0079 -0.008,7.06e-4 -0.0173,7.06e-4 -0.0252,0 -0.0381,-0.005 -0.0475,-0.04233 -0.0727,-0.06387 -0.0166,-0.01379 -0.0618,-0.03313 -0.0574,-0.06184 0.0265,-0.0079 0.0517,0.0042 0.0769,0.01069 0.0302,0.0072 0.0596,0.0072 0.092,0.0072 0.0834,0 0.14302,-0.04013 0.21425,-0.07767 0.069,-0.03589 0.13233,-0.09976 0.16031,-0.173934 0.0215,-0.05964 0.0403,-0.12295 0.0475,-0.186267 0.009,-0.07105 0.0121,-0.14375 0.0114,-0.215533 0,-0.04546 -0.009,-0.101416 0.002,-0.145958 0.009,-0.03608 0.023,-0.067 0.028,-0.104359 0.005,-0.03589 0.021,-0.06755 0.0346,-0.101416 0.0151,-0.04086 0.023,-0.08485 0.0403,-0.124242 0.0517,-0.11945 0.17319,-0.19565 0.26872,-0.274796 0.0281,-0.02152 0.0591,-0.06166 0.0942,-0.07031 0.0116,-0.0028 0.023,7.06e-4 0.0346,7.06e-4 0.046,0.0028 0.0928,-0.01528 0.13657,-0.02815 0.0804,-0.023 0.15461,-0.03517 0.23872,-0.03517 0.0596,0 0.11725,-7.06e-4 0.17615,0.01214 0.0604,0.0151 0.10932,0.03589 0.16178,0.06976 0.0517,0.03313 0.0999,0.06553 0.14669,0.105646 0.0545,0.04749 0.11504,0.106387 0.15166,0.168967 0.0596,0.102153 0.11136,0.218662 0.12719,0.336458 0.009,0.06902 0.006,0.137308 0.006,0.206512 7.1e-4,0.07031 -0.006,0.145775 -0.0272,0.213509 -0.0116,0.03736 -0.0208,0.06976 -0.0475,0.09773 -0.0173,0.01729 -0.028,0.03514 -0.0381,0.05816 -0.0237,0.05319 -0.0374,0.110804 -0.0589,0.164733 -0.0295,0.07123 -0.0734,0.144483 -0.12663,0.198413 -0.0245,0.02448 -0.051,0.04381 -0.074,0.06829 -0.026,0.02797 -0.0381,0.05761 -0.0561,0.09055 -0.0179,0.03238 -0.0302,0.06902 -0.0517,0.09847 -0.0497,0.06976 -0.0482,0.168229 0.005,0.235229 0.0166,0.01933 0.0447,0.03883 0.0467,0.06607 0.003,0.02596 -0.0173,0.04602 -0.025,0.06829 -0.0158,0.04252 -0.021,0.09056 -0.0331,0.132338 -0.009,0.0302 -0.0252,0.05816 -0.0453,0.0819 -0.009,-0.0072 -0.0188,-0.01288 -0.0287,-0.01785"
       style="fill:#21201d;fill-opacity:1;fill-rule:nonzero;stroke:none;stroke-width:0.184057"
       id="path568" />
    <path
       d="m 381.48525,52.441509 c 7e-4,-0.01729 0.002,-0.03443 0.0123,-0.04602 0.0258,-0.03094 0.0755,-0.0028 0.10417,0.01087 0.0942,0.04528 0.19492,0.08835 0.28105,0.146692 0.10068,0.06902 0.21001,0.149454 0.27333,0.255842 0.0295,0.04749 0.0611,0.08853 0.0977,0.129391 0.0453,0.05043 0.0712,0.132338 0.0849,0.1986 0.005,0.02226 0.004,0.04528 0.006,0.06828 0.002,0.01785 0.0109,0.03443 0.0124,0.05246 10e-4,0.02723 -0.0144,0.05669 -0.0158,0.08559 -7.1e-4,0.01711 0.002,0.03517 0.001,0.05319 -0.001,0.04675 0.0186,0.08835 0.0236,0.1351 0.005,0.0497 0.0267,0.09276 0.0309,0.141725 0.004,0.04012 0.0331,0.06976 0.0433,0.106384 0.004,0.01711 0.004,0.03514 0.009,0.05246 0.009,0.03369 0.028,0.0589 0.0574,0.07914 0.0274,0.01859 0.0547,0.0381 0.0813,0.05743 0.0322,0.023 0.0596,0.04307 0.0992,0.0497 0.0359,0.005 0.0698,0.02007 0.10638,0.01711 0.0819,-0.0065 0.13363,-0.05742 0.19842,-0.097 0.0532,-0.03238 0.10564,-0.05687 0.13086,-0.117246 0.0208,-0.04804 0.0337,-0.08761 0.0158,-0.13657 -0.0136,-0.0381 -0.0158,-0.07914 -0.0309,-0.115771 -0.0166,-0.04233 -0.0324,-0.07841 -0.0425,-0.123688 -0.006,-0.02649 -0.0186,-0.05319 -0.0208,-0.07896 -0.002,-0.0309 0.009,-0.06184 0.0173,-0.09 0.006,-0.02152 0.006,-0.04233 0.0121,-0.06387 0.008,-0.02522 0.0188,-0.05117 0.0281,-0.07546 0.023,-0.06553 0.0639,-0.101416 0.12074,-0.139516 0.023,-0.0151 0.0467,-0.02741 0.069,-0.04252 0.009,-0.0065 0.0114,-0.01362 0.0245,-0.01214 7.1e-4,0.023 -0.0324,0.05025 -0.0447,0.06829 -0.0257,0.04178 -0.0503,0.08191 -0.0668,0.127921 -0.0453,0.121479 -0.018,0.240196 0.0202,0.359463 0.0107,0.03461 0.0351,0.0705 0.0394,0.1051 0.003,0.02797 -0.0107,0.05245 -0.0114,0.08043 -0.002,0.04104 -0.0173,0.07693 -0.0287,0.115771 -0.0101,0.03164 -0.0144,0.06405 -0.0245,0.09498 -0.0295,0.08264 -0.0819,0.151663 -0.14816,0.208537 -0.0193,0.01637 -0.0344,0.03443 -0.0582,0.0438 -0.0166,0.0072 -0.0289,0.0094 -0.0433,0.02081 -0.0488,0.03736 -0.0913,0.06828 -0.15166,0.0819 -0.0287,0.0072 -0.0567,0.01877 -0.0863,0.02025 -0.023,7.05e-4 -0.0431,-0.0072 -0.0646,-0.01231 -0.0554,-0.01288 -0.0999,-0.02946 -0.14816,-0.05964 -0.0928,-0.05614 -0.16326,-0.143013 -0.19841,-0.246638 -0.0287,-0.08411 -0.0517,-0.1697 -0.0784,-0.254367 -0.0223,-0.06976 -0.0351,-0.142462 -0.0574,-0.212954 -0.0216,-0.06976 -0.0282,-0.146696 -0.0591,-0.214246 -0.0151,-0.03238 -0.0351,-0.0611 -0.048,-0.09424 -0.0166,-0.04233 -0.0237,-0.08614 -0.0453,-0.125709 -0.0346,-0.06626 -0.0942,-0.136571 -0.14963,-0.184796 -0.0769,-0.06681 -0.19768,-0.113562 -0.29468,-0.145958 -0.0296,-0.01013 -0.0591,-0.02081 -0.0907,-0.02081 -0.0223,-7.05e-4 -0.051,0.01069 -0.0668,-0.01086 -0.0252,-0.03443 0.0267,-0.08835 0.0411,-0.11798 0.0136,-0.03073 0.025,-0.06608 0.0309,-0.09921 10e-4,-0.0079 10e-4,-0.01859 0.003,-0.02872"
       style="fill:#21201d;fill-opacity:1;fill-rule:nonzero;stroke:none;stroke-width:0.184057"
       id="path570" />
    <path
       d="m 378.45274,49.909238 c 0.0179,-0.0646 0.0344,-0.122213 0.069,-0.180375 0.0631,-0.108596 0.14872,-0.196942 0.2459,-0.27535 0.0366,-0.02946 0.0812,-0.04454 0.12369,-0.06479 0.0488,-0.02374 0.0963,-0.05025 0.14595,-0.07326 0.0423,-0.02025 0.0876,-0.02872 0.13216,-0.0438 0.0453,-0.01527 0.0878,-0.03755 0.1316,-0.05614 0.16896,-0.07473 0.31639,-0.224366 0.41136,-0.380449 0.0617,-0.101967 0.1178,-0.231359 0.0898,-0.353021 -0.005,-0.02081 -0.0151,-0.03865 -0.0223,-0.0589 -0.0101,-0.02797 -0.0101,-0.05743 -0.0203,-0.08485 -0.0107,-0.0302 -0.0295,-0.0589 -0.0488,-0.08338 -0.0144,-0.01933 -0.0331,-0.03369 -0.0467,-0.05393 -0.0116,-0.01584 -0.0188,-0.03369 -0.0317,-0.04951 -0.026,-0.03387 -0.0655,-0.05835 -0.0992,-0.08412 -0.0539,-0.04178 -0.11725,-0.07988 -0.18406,-0.09645 -0.041,-0.01012 -0.0819,-0.0035 -0.12221,0.0086 -0.0302,0.0094 -0.0561,0.02667 -0.0885,0.0309 -0.0668,0.01087 -0.14449,0.0589 -0.14007,0.135837 0.001,0.02815 7e-4,0.05687 7e-4,0.08485 0,0.04528 0.002,0.08135 0.0116,0.126633 0.0121,0.05245 0.0453,0.100679 0.0611,0.153134 0.005,0.01362 0.009,0.03957 0.0165,0.05098 0.0107,0.01436 0.0208,0.023 0.0302,0.03884 0.007,0.01362 0.018,0.02872 0.0265,0.04178 0.007,0.0092 0.0245,0.02431 0.018,0.03736 -0.009,-0.0014 -0.0201,-0.01087 -0.0294,-0.01584 -0.023,-0.01013 -0.0339,-0.02226 -0.0547,-0.03736 -0.0302,-0.02173 -0.0633,-0.04675 -0.0906,-0.0727 -0.023,-0.02152 -0.0294,-0.04951 -0.0468,-0.07399 -0.0121,-0.01877 -0.0309,-0.03238 -0.0431,-0.05043 -0.0368,-0.05172 -0.0267,-0.121475 -0.026,-0.180375 0,-0.07344 -0.006,-0.134546 0.0388,-0.194917 0.0252,-0.03514 0.046,-0.07399 0.0725,-0.108595 0.0237,-0.03295 0.0727,-0.04804 0.10362,-0.07399 0.0193,-0.01729 0.0381,-0.03238 0.0633,-0.04307 0.0215,-0.01013 0.0495,-0.0267 0.0725,-0.03313 0.0282,-0.0079 0.067,-0.0014 0.0957,-0.0014 h 0.0804 c 0.0806,-0.0014 0.16104,0.01436 0.22933,0.05835 0.0433,0.02797 0.0848,0.0624 0.12166,0.09847 0.0401,0.03884 0.0847,0.07105 0.11927,0.115771 0.0317,0.04013 0.0611,0.08412 0.0791,0.132154 0.006,0.01584 0.0164,0.0302 0.023,0.04528 0.0302,0.06479 0.0337,0.142462 0.0416,0.211483 0.0109,0.09921 0.0173,0.203384 0.007,0.303326 -0.009,0.08559 -0.0258,0.191237 -0.0841,0.258233 -0.0144,0.01584 -0.0324,0.02575 -0.0495,0.03884 -0.0497,0.03589 -0.072,0.09626 -0.12019,0.1351 -0.0401,0.03313 -0.0849,0.06111 -0.12792,0.09055 -0.0618,0.04399 -0.12939,0.06626 -0.19418,0.103625 -0.0503,0.02872 -0.0876,0.04804 -0.14301,0.05816 -0.0423,0.0086 -0.0747,0.02081 -0.11283,0.03589 -0.0267,0.01012 -0.0554,0.01379 -0.0821,0.02522 -0.0539,0.023 -0.0999,0.06111 -0.14301,0.09921 -0.0445,0.0381 -0.0935,0.07344 -0.13086,0.11798 -0.028,0.03239 -0.0475,0.07123 -0.0733,0.104912 -0.0339,0.04381 -0.0497,0.09847 -0.0821,0.14375 -0.0359,0.0497 -0.0668,0.10933 -0.0898,0.166204 -0.0151,0.03736 -0.0351,0.137309 -0.095,0.0935 -0.0381,-0.02741 -0.0201,-0.08209 -0.0201,-0.122213 -7.1e-4,-0.05264 0.009,-0.102154 0.009,-0.154609 -7e-4,-0.03461 0,-0.06829 -0.0295,-0.04399"
       style="fill:#21201d;fill-opacity:1;fill-rule:nonzero;stroke:none;stroke-width:0.184057"
       id="path572" />
    <path
       d="m 382.2754,51.279734 c 0.0366,-0.03313 0.0734,-0.067 0.11007,-0.09994 0.046,-0.04031 0.0985,-0.06553 0.14945,-0.09792 0.0626,-0.03939 0.12166,-0.08908 0.19068,-0.117059 0.0394,-0.01658 0.0804,-0.02596 0.11854,-0.04454 0.0381,-0.01951 0.0734,-0.02815 0.11577,-0.0302 0.0655,-0.0044 0.13233,-0.03608 0.19694,-0.02889 0.0374,0.0044 0.0755,0.01951 0.11301,0.02815 0.0473,0.01069 0.0849,0.02946 0.12645,0.05393 0.074,0.04528 0.16601,0.05098 0.22068,0.125712 0.046,0.06681 0.0987,0.12295 0.13602,0.196391 0.0272,0.05448 0.0552,0.112826 0.0703,0.172463 0.0626,0.256759 -0.0812,0.53855 -0.29117,0.681563 -0.0618,0.04252 -0.12645,0.08135 -0.19768,0.10565 -0.0374,0.01379 -0.0755,0.02522 -0.11503,0.03313 -0.0403,0.0072 -0.0804,0.0021 -0.12148,0.0086 -0.0423,0.0065 -0.0834,0.0094 -0.12645,0.0079 -0.0252,-0.0014 -0.0455,-0.02226 -0.069,-0.02007 0.005,7.05e-4 0.01,7.05e-4 0.0151,-0.0014 -10e-4,-0.01803 -0.0237,-0.02226 -0.0353,-0.02946 -0.0215,-0.01454 -0.0324,-0.03884 -0.0495,-0.05687 -0.0151,-0.01655 -0.0331,-0.04031 -0.044,-0.06037 -0.007,-0.01436 -0.002,-0.0302 -0.006,-0.04527 -0.003,-0.01013 -0.0121,-0.01584 -0.0101,-0.02741 0.004,0.08706 0.0863,0.08209 0.14817,0.0992 0.0433,0.01235 0.0742,0.02963 0.12074,0.0151 0.0346,-0.01143 0.0705,-0.0021 0.10436,-0.01143 0.0381,-0.01087 0.0668,-0.05319 0.10491,-0.06829 0.0359,-0.01436 0.072,-0.01655 0.10142,-0.04252 0.0344,-0.0302 0.0799,-0.03736 0.11282,-0.06902 0.023,-0.02226 0.0482,-0.05319 0.0633,-0.08117 0.028,-0.05319 0.0547,-0.110067 0.0547,-0.171172 0,-0.0589 7.1e-4,-0.116511 0.003,-0.174674 0.001,-0.02596 0.007,-0.05466 0.004,-0.08117 -0.002,-0.02741 -0.0201,-0.0554 -0.0287,-0.08062 -0.008,-0.02374 -0.0144,-0.0416 -0.0366,-0.05393 -0.049,-0.02575 -0.0893,-0.06608 -0.1432,-0.08043 -0.074,-0.02025 -0.14742,-0.04602 -0.22289,-0.05982 -0.0668,-0.01143 -0.15313,0.0079 -0.21203,0.03957 -0.0237,0.01305 -0.0475,0.02448 -0.0727,0.03608 -0.0532,0.02226 -0.0941,0.05669 -0.14154,0.08908 -0.0453,0.02946 -0.0806,0.06902 -0.1259,0.09626 -0.0431,0.02596 -0.079,0.06405 -0.11503,0.09865 -0.0337,0.03221 -0.0718,0.02649 -0.1143,0.03939 -0.0532,0.01584 -0.0935,0.0497 -0.14025,0.07694"
       style="fill:#21201d;fill-opacity:1;fill-rule:nonzero;stroke:none;stroke-width:0.184057"
       id="path574" />
  </g>
</svg>
