<?xml version="1.0" encoding="UTF-8" standalone="no"?>
<!-- Created with Inkscape (http://www.inkscape.org/) -->

<svg
   width="7.6028643mm"
   height="7.011663mm"
   viewBox="0 0 7.6028643 7.011663"
   version="1.1"
   id="svg2600"
   inkscape:version="1.1.2 (0a00cf5339, 2022-02-04)"
   sodipodi:docname="c11.svg"
   xmlns:inkscape="http://www.inkscape.org/namespaces/inkscape"
   xmlns:sodipodi="http://sodipodi.sourceforge.net/DTD/sodipodi-0.dtd"
   xmlns="http://www.w3.org/2000/svg"
   xmlns:svg="http://www.w3.org/2000/svg">
  <sodipodi:namedview
     id="namedview2602"
     pagecolor="#ffffff"
     bordercolor="#666666"
     borderopacity="1.0"
     inkscape:pageshadow="2"
     inkscape:pageopacity="0.0"
     inkscape:pagecheckerboard="0"
     inkscape:document-units="mm"
     showgrid="false"
     inkscape:zoom="0.64052329"
     inkscape:cx="-1019.4789"
     inkscape:cy="-56.984657"
     inkscape:window-width="2560"
     inkscape:window-height="1376"
     inkscape:window-x="0"
     inkscape:window-y="0"
     inkscape:window-maximized="1"
     inkscape:current-layer="layer1" />
  <defs
     id="defs2597" />
  <g
     inkscape:label="Layer 1"
     inkscape:groupmode="layer"
     id="layer1"
     transform="translate(-374.57383,-163.37578)">
    <path
       d="m 378.94471,163.54186 c 0.004,0.002 0.009,0.005 0.0138,0.007 0.0179,0.009 0.0351,0.009 -0.0138,-0.007"
       style="fill:#21201d;fill-opacity:1;fill-rule:nonzero;stroke:none;stroke-width:0.184057"
       id="path544" />
    <path
       d="m 380.09727,165.69092 c 7.1e-4,0.0661 -0.0223,0.13584 -0.0567,0.19124 -0.0339,0.0539 -0.0598,0.10859 -0.10509,0.15461 -0.079,0.0791 -0.18111,0.14025 -0.26302,0.21645 -0.0604,0.0559 -0.1432,0.0999 -0.19344,0.16381 -0.0109,0.0158 -0.0173,0.0316 -0.0267,0.0482 -0.0258,0.0431 -0.0769,0.0683 -0.10786,0.10933 -0.0604,0.0784 -0.10565,0.1697 -0.1524,0.25584 -0.0158,0.0304 -0.0309,0.0613 -0.0475,0.0907 -0.0121,0.0215 -0.0294,0.0381 -0.0423,0.0589 -0.0136,0.023 -0.0208,0.0453 -0.0388,0.0668 -0.0344,0.0425 -0.0755,0.0791 -0.10712,0.12515 -0.0618,0.0863 -0.13234,0.17394 -0.16676,0.27315 -0.0124,0.0353 -0.0173,0.0705 -0.0324,0.10436 -0.0109,0.0245 -0.018,0.048 -0.0287,0.0725 -0.0245,0.0532 -0.0475,0.10583 -0.072,0.15957 -0.0166,0.0368 -0.0215,0.0712 -0.0245,0.11081 -0.006,0.0576 -0.0287,0.0977 -0.0567,0.14669 -0.009,0.0151 -0.021,0.026 -0.0274,0.0416 -0.0114,0.0316 -0.008,0.0677 -0.0136,0.10068 -0.007,0.0433 -0.006,0.0871 -0.0166,0.13087 -0.0107,0.049 -0.0114,0.10215 -0.0287,0.14963 -0.009,0.0272 -0.026,0.0324 -0.0561,0.0272 -0.009,-0.0329 -0.0245,-0.0626 -0.0374,-0.0942 -0.0158,-0.0381 -0.0186,-0.0747 -0.0403,-0.11136 -0.0251,-0.0396 -0.056,-0.0712 -0.0762,-0.11356 -0.0179,-0.0388 -0.0438,-0.074 -0.0589,-0.11504 -0.0101,-0.0252 -0.0173,-0.0504 -0.0287,-0.0762 -0.0245,-0.0611 -0.0237,-0.12736 -0.0388,-0.1905 -0.007,-0.0296 -0.0245,-0.0497 -0.0388,-0.0756 -0.0267,-0.0453 -0.0381,-0.0948 -0.0569,-0.14302 -0.0453,-0.11503 -0.0869,-0.23228 -0.12497,-0.35008 -0.0138,-0.0418 -0.023,-0.0826 -0.0274,-0.12663 -0.006,-0.0697 -0.0495,-0.12571 -0.0705,-0.19197 -0.0114,-0.0381 -0.023,-0.074 -0.0351,-0.11135 -0.009,-0.0252 -0.0201,-0.049 -0.0272,-0.074 -0.0101,-0.0309 -0.0145,-0.0591 -0.0289,-0.0885 -0.0626,-0.12516 -0.16031,-0.23577 -0.24001,-0.35155 -0.0598,-0.0871 -0.15682,-0.15166 -0.20927,-0.2424 -0.0173,-0.0295 -0.0203,-0.0617 -0.0331,-0.0933 -0.008,-0.0173 -0.0186,-0.0324 -0.0316,-0.0468 -0.0237,-0.0245 -0.0517,-0.0453 -0.0797,-0.0641 -0.0539,-0.0359 -0.10362,-0.072 -0.14963,-0.11577 -0.0446,-0.0423 -0.10712,-0.0554 -0.14522,-0.10197 -0.0396,-0.0468 -0.0762,-0.0821 -0.0792,-0.14467 -0.002,-0.0351 7.1e-4,-0.0711 7.1e-4,-0.10786 0,-0.0401 0.006,-0.0755 0.0101,-0.11504 0.006,-0.0539 0.0173,-0.10417 0.0188,-0.1581 0,-0.0324 0.0114,-0.0582 0.0322,-0.0834 0.0368,-0.0425 0.023,-0.092 0.0361,-0.14448 0.0136,-0.0554 0.0374,-0.1143 0.0653,-0.16621 0.0188,-0.0352 0.0339,-0.0661 0.0604,-0.0963 0.0274,-0.0317 0.0539,-0.0611 0.0784,-0.0942 0.0561,-0.0784 0.13952,-0.12295 0.21995,-0.17762 0.0425,-0.0265 0.0784,-0.0611 0.11872,-0.0906 0.0532,-0.0381 0.11282,-0.0698 0.16675,-0.10712 0.0683,-0.046 0.15093,-0.0532 0.21424,-0.10713 0.0453,-0.0374 0.072,-0.0942 0.11872,-0.12865 0.005,-0.004 0.0107,-0.007 0.0171,-0.0116 7e-4,0 0.002,-0.002 0.004,-0.004 0.0173,-0.0237 0.0396,-0.0366 0.0641,-0.0525 0.0265,-0.0173 0.046,-0.0482 0.0777,-0.0596 0.0151,-0.005 0.0329,-0.006 0.0488,-0.0101 0.0727,-0.0202 0.1467,0.0158 0.21719,-0.006 0.0467,-0.0144 0.0856,-0.0237 0.13436,-0.0144 0.0433,0.009 0.0928,0.0193 0.12663,0.0466 0.0388,0.0309 0.0589,0.0764 0.0999,0.10583 0.0166,0.0121 0.0344,0.023 0.051,0.0359 0.018,0.0151 0.0331,0.0346 0.0524,0.0475 0.0381,0.0265 0.0871,0.0359 0.12222,0.0683 0.0158,0.0151 0.0302,0.0317 0.0482,0.0453 0.0208,0.0144 0.0453,0.0223 0.0676,0.0344 0.0202,0.0123 0.0267,0.0238 0.0519,0.0317 0.0329,0.008 0.0668,0.0131 0.0999,0.021 0.0631,0.0151 0.0992,0.0445 0.14651,0.0834 0.0376,0.0329 0.0871,0.0409 0.12166,0.079 0.0243,0.026 0.0466,0.0482 0.0762,0.069 0.0265,0.0203 0.0366,0.0504 0.0517,0.0777 0.0294,0.0547 0.0646,0.10712 0.0942,0.16179 0.007,0.0116 0.0151,0.0215 0.023,0.0331 0.0193,0.0265 0.0329,0.0524 0.0445,0.0819 0.0317,0.0769 0.0646,0.15314 0.10639,0.2251 0.0121,0.0223 0.0287,0.0381 0.0396,0.0596 0.008,0.0144 0.0107,0.0317 0.0193,0.0468 0.0316,0.0576 0.0626,0.1086 0.0806,0.17118 0.008,0.0302 0.01,0.0618 0.0178,0.0935 0.007,0.0215 0.0173,0.0409 0.0252,0.0624 0.0129,0.0309 0.0274,0.0591 0.0418,0.0893 0.0258,0.0539 0.01,0.13087 0.0107,0.18903 m 0.46953,-0.44432 c 0,-0.0525 -0.005,-0.10786 -0.0245,-0.15737 -0.008,-0.021 -0.0158,-0.09 -0.051,-0.0878 -0.0151,0.0366 -0.0532,0.0668 -0.092,0.0799 -0.0208,0.006 -0.0425,0.008 -0.0633,0.0151 -0.0101,0.004 -0.0309,0.0171 -0.0416,0.0107 -0.008,-0.004 -0.004,-0.01 -0.008,-0.0165 -0.007,-0.0151 -0.0188,-0.028 -0.0274,-0.0431 -0.0144,-0.0252 -0.0193,-0.0554 -0.0337,-0.0819 -0.0145,-0.0282 -0.0425,-0.046 -0.0611,-0.072 -0.0195,-0.026 -0.0361,-0.0554 -0.0534,-0.0827 -0.0258,-0.0418 -0.0495,-0.0878 -0.0826,-0.12368 -0.0186,-0.0208 -0.0396,-0.0374 -0.0574,-0.0576 -0.0223,-0.0243 -0.0418,-0.0495 -0.067,-0.0718 -0.0797,-0.0668 -0.12865,-0.16675 -0.17025,-0.25675 -0.0195,-0.0423 -0.0497,-0.0849 -0.0762,-0.12369 -0.0453,-0.0668 -0.10583,-0.11633 -0.1662,-0.17026 -0.0769,-0.069 -0.14228,-0.14742 -0.21774,-0.21718 -0.0433,-0.0388 -0.0957,-0.0727 -0.14467,-0.10565 -0.0755,-0.0512 -0.14522,-0.0972 -0.21847,-0.15314 0.0143,0.004 0.026,0.008 0.0344,0.0107 -0.01,-0.006 -0.0193,-0.0121 -0.0287,-0.0179 -0.007,0 -0.0129,0 -0.0186,-0.003 -0.007,-0.002 -0.0123,-0.006 -0.0151,-0.0121 -0.0237,-0.013 -0.0475,-0.007 -0.0655,-0.0289 -0.0166,-0.0208 -0.0265,-0.0388 -0.0495,-0.0552 -0.021,-0.0138 -0.0361,-0.0368 -0.0611,-0.0433 -0.0403,-0.0114 -0.10142,-0.002 -0.14393,-0.002 -0.0503,0 -0.1005,0.002 -0.15166,0 -0.097,0 -0.19271,0.009 -0.28971,0.009 -0.0381,0 -0.0799,-0.005 -0.11577,0.008 -0.0891,0.0316 -0.16749,0.0668 -0.23946,0.12663 -0.0178,0.0151 -0.0193,0.025 -0.0295,0.0431 -0.0121,0.0215 -0.0339,0.046 -0.0525,0.0633 -0.0287,0.0272 -0.0611,0.0488 -0.0898,0.0755 -0.0368,0.0344 -0.0734,0.0633 -0.11577,0.0906 -0.0584,0.0381 -0.11356,0.0799 -0.17117,0.12 -0.0812,0.0584 -0.16749,0.10786 -0.24369,0.17338 -0.046,0.0381 -0.0848,0.0841 -0.1259,0.12645 -0.0401,0.0425 -0.0826,0.0821 -0.1143,0.13013 -0.0611,0.0913 -0.14301,0.16694 -0.1905,0.26394 -0.0272,0.0569 -0.0732,0.13657 -0.0675,0.20136 -0.0158,-0.0144 -0.0475,-0.0144 -0.0668,-0.0245 -0.018,-0.009 -0.0324,-0.026 -0.0504,-0.0359 -0.0287,-0.018 -0.0611,-0.0289 -0.092,-0.0425 -0.0416,-0.0173 -0.0799,-0.0265 -0.1259,-0.0352 -0.028,-0.005 -0.0473,-0.0151 -0.0725,-0.026 -0.0201,-0.009 -0.0871,-0.0252 -0.092,0.005 -0.003,0.0173 0.018,0.0497 0.0252,0.0648 0.01,0.0201 0.0215,0.0423 0.0344,0.0618 0.0202,0.0287 0.0287,0.0517 0.0425,0.0849 0.0223,0.0574 0.0388,0.11927 0.0488,0.18037 0.009,0.069 0.002,0.13878 0.0324,0.20357 0.0188,0.041 0.0158,0.0848 0.028,0.12718 0.0101,0.0346 0.0245,0.072 0.0388,0.10565 0.0281,0.0648 0.0885,0.1086 0.12516,0.16842 0.023,0.0401 0.0497,0.0718 0.0848,0.10418 0.0302,0.0272 0.0618,0.0524 0.0871,0.0841 0.0315,0.0438 0.0525,0.092 0.0941,0.12866 0.0294,0.0274 0.0648,0.0482 0.0935,0.0755 0.0309,0.0289 0.0569,0.0604 0.0898,0.0871 0.0281,0.0215 0.0605,0.0388 0.0813,0.0676 0.0331,0.0453 0.0547,0.10712 0.10933,0.13234 0.0114,0.005 0.0236,0.007 0.0351,0.0136 0.0188,0.0109 0.0173,0.0195 0.0208,0.0418 0.008,0.0495 0.0252,0.0992 0.0368,0.14946 0.007,0.0302 0.0107,0.0655 0.0228,0.0957 0.0101,0.0237 0.0203,0.0374 0.0203,0.0631 0,0.0368 0.009,0.0712 0.009,0.10786 -7e-4,0.0302 -0.003,0.0626 -7e-4,0.0935 0.001,0.0151 0.006,0.0173 0.0129,0.0287 0.0215,0.0388 0.0173,0.0878 0.0403,0.12736 0.0166,0.028 0.0633,0.0475 0.0955,0.0574 0.0166,0.006 0.0289,0.009 0.0425,0.0202 0.0144,0.0107 0.0468,0.0287 0.0561,0.0438 0.023,0.0388 -0.0554,0.026 -0.0762,0.026 -0.0304,0 -0.0613,-0.002 -0.0907,0 -0.0186,0.002 -0.033,0.006 -0.0503,0.009 -0.0267,0.004 -0.0957,-0.008 -0.1143,0.0201 -0.0123,0.0188 0.0129,0.0366 0.0208,0.051 0.0166,0.0302 0.0366,0.0497 0.0589,0.0762 0.0138,0.0151 0.0217,0.0331 0.0339,0.049 0.0144,0.018 0.0324,0.0295 0.049,0.0453 0.0547,0.0583 0.0525,0.14522 0.10988,0.20283 0.0554,0.0547 0.10363,0.12001 0.16823,0.16749 0.0388,0.028 0.0841,0.0468 0.12369,0.0733 0.0195,0.0138 0.0453,0.0316 0.0576,0.0519 0.0302,0.0532 0.0554,0.11062 0.0819,0.16528 0.0287,0.0604 0.069,0.11283 0.0935,0.17468 0.0186,0.0482 0.0525,0.09 0.0705,0.13657 0.0114,0.0302 0.0272,0.0569 0.0431,0.0849 0.0158,0.0281 0.0351,0.0569 0.0453,0.0878 0.0116,0.0324 0.0151,0.0668 0.0237,0.10067 0.0173,0.0653 0.0431,0.12222 0.0826,0.17891 0.0289,0.0425 0.0525,0.092 0.0856,0.13234 0.0136,0.0166 0.0504,0.0475 0.069,0.0381 0.018,-0.009 0.0267,-0.0316 0.0352,-0.0475 0.0324,-0.048 0.0497,-0.10197 0.0769,-0.15443 0.0131,-0.0237 0.0361,-0.041 0.0534,-0.0618 0.0265,-0.0309 0.048,-0.0618 0.0812,-0.0907 0.0561,-0.0495 0.1143,-0.1027 0.164,-0.16032 0.0387,-0.0453 0.0826,-0.0891 0.10914,-0.14301 0.009,-0.0188 0.0109,-0.041 0.023,-0.0582 0.0109,-0.0165 0.0238,-0.0296 0.0339,-0.0482 0.008,-0.0151 0.018,-0.026 0.028,-0.0396 0.006,-0.009 0.009,-0.0215 0.0166,-0.0287 0.009,-0.009 0.0287,-0.0131 0.0388,-0.0195 0.0173,-0.009 0.0302,-0.0216 0.0438,-0.0337 0.021,-0.0203 0.0453,-0.0274 0.069,-0.0418 0.0252,-0.0158 0.0475,-0.0431 0.0626,-0.0668 0.0166,-0.026 0.0101,-0.0438 0.0136,-0.0698 0.004,-0.0316 0.0237,-0.0611 0.0388,-0.0878 0.0101,-0.0171 0.0131,-0.0359 0.0331,-0.0453 0.0116,-0.006 0.0272,-0.005 0.0388,-0.01 0.0136,-0.006 0.0215,-0.0158 0.0331,-0.026 0.0208,-0.0201 0.0316,-0.0188 0.0559,-0.0267 0.008,-0.002 0.0131,-0.008 0.0195,-0.009 0.0166,-0.003 0.0324,-0.002 0.0488,-0.006 0.0166,-0.004 0.0331,-0.006 0.0497,-0.0116 0.0252,-0.009 0.049,-0.0223 0.0747,-0.0295 0.023,-0.008 0.0418,-0.008 0.0604,-0.0245 0.0101,-0.009 0.0302,-0.0201 0.0353,-0.0302 0.005,-0.009 7e-4,-0.0272 7e-4,-0.0374 0,-0.023 10e-4,-0.0418 -0.0166,-0.0596 -0.0554,-0.0561 -0.13086,-0.0928 -0.19768,-0.13455 -0.046,-0.0295 -0.0606,-0.0718 -0.0304,-0.11853 0.0482,-0.0712 0.0633,-0.15682 0.0915,-0.23596 0.0193,-0.0552 0.0237,-0.11283 0.0287,-0.171 0.004,-0.0524 0.006,-0.10362 0.0337,-0.15037 0.0245,-0.0431 0.046,-0.0782 0.0821,-0.1143 0.0173,-0.0186 0.0381,-0.0329 0.0547,-0.0525 0.0144,-0.0186 0.023,-0.0418 0.0366,-0.0604 0.0324,-0.0468 0.0797,-0.0963 0.12792,-0.12939 0.0309,-0.0208 0.0655,-0.026 0.0964,-0.046 0.0668,-0.0438 0.11633,-0.10639 0.16897,-0.164 0.0532,-0.0582 0.10197,-0.12001 0.15663,-0.17615 0.0445,-0.0468 0.072,-0.10859 0.0992,-0.16454 0.018,-0.0376 0.0281,-0.0757 0.0396,-0.1143 0.0121,-0.0376 0.0302,-0.0734 0.0423,-0.11081 0.0217,-0.0697 0.046,-0.14375 0.0554,-0.21571 0.006,-0.0554 10e-4,-0.11283 0.002,-0.16823"
       style="fill:#21201d;fill-opacity:1;fill-rule:nonzero;stroke:none;stroke-width:0.184057"
       id="path546" />
    <path
       d="m 378.2488,164.36092 c -0.004,0.0344 -0.004,0.0676 -0.004,0.0992 0,0.0841 0.0186,0.16675 0.0252,0.25013 0.002,0.028 -7.1e-4,0.051 -0.007,0.0799 -0.0143,0.0683 -0.0136,0.14301 -0.0136,0.21277 0.002,0.10492 0.004,0.2113 -10e-4,0.3164 -0.007,0.12074 0.0151,0.22639 0.0403,0.34142 0.0195,0.0834 0.026,0.16529 0.0381,0.25161 0.0116,0.0834 0.008,0.16749 0.0216,0.24959 0.0101,0.0661 0.0101,0.13215 0.0123,0.19915 10e-4,0.0272 10e-4,0.0539 0.002,0.0797 7e-4,0.0158 0.007,0.0368 0.004,0.0512 0.004,-0.0173 0.0158,-0.0331 0.023,-0.0497 0.0166,-0.0431 0.0309,-0.0898 0.0423,-0.13657 0.0289,-0.11283 0.0245,-0.23873 0.0289,-0.3545 0.004,-0.0977 0.009,-0.19473 0.0121,-0.29192 0.003,-0.0596 0.003,-0.11779 0.0121,-0.17614 0.0116,-0.0769 0.0202,-0.15387 0.0316,-0.22934 0.0188,-0.13583 0.0539,-0.26817 0.0433,-0.40695 -0.003,-0.0388 -0.009,-0.0762 -0.0158,-0.1143 -0.008,-0.0423 -0.006,-0.0777 -10e-4,-0.12 0.004,-0.0403 -0.009,-0.0814 -0.009,-0.12148 0,-0.0339 0.002,-0.0677 7e-4,-0.1 -10e-4,-0.0296 -0.0129,-0.0583 -0.0166,-0.0878 -0.003,-0.0374 0.007,-0.0769 0,-0.1143 -0.003,-0.0158 -0.028,-0.0777 -0.0409,-0.0878 -0.0368,0.003 -0.0388,0.0591 -0.0742,0.0598 -0.0237,0 -0.0201,-0.0316 -0.0468,-0.007 -0.0129,0.0116 -0.0193,0.0324 -0.0316,0.0468 -0.0121,0.0138 -0.0265,0.0237 -0.0366,0.0374 -0.0237,0.0346 -0.0337,0.0784 -0.0388,0.1224"
       style="fill:#21201d;fill-opacity:1;fill-rule:nonzero;stroke:none;stroke-width:0.184057"
       id="path548" />
    <path
       d="m 374.68786,166.81975 c -0.026,-0.0381 -0.0561,-0.0747 -0.09,-0.10492 -0.0287,-0.0252 -0.0237,-0.0309 -0.0237,-0.069 0,-0.044 -7.1e-4,-0.0863 0,-0.13013 0,-0.0534 0.0101,-0.0814 0.0381,-0.12442 0.0388,-0.0604 0.0841,-0.11356 0.13234,-0.16749 0.10215,-0.1143 0.22436,-0.21369 0.37252,-0.25529 0.10988,-0.0309 0.21774,-0.0705 0.32854,-0.10068 0.0366,-0.009 0.069,-0.018 0.10492,-0.003 0.0388,0.0158 0.0727,0.0388 0.1108,0.0569 0.0431,0.0193 0.0883,0.0267 0.13362,0.0396 0.0648,0.0173 0.11356,0.0532 0.16252,0.1 0.0388,0.0359 0.0733,0.0725 0.1143,0.10565 0.0547,0.0445 0.11577,0.0812 0.16749,0.12939 0.0576,0.0539 0.0878,0.13528 0.10639,0.21204 0.009,0.0368 0.023,0.0784 0.018,0.1165 -0.004,0.0353 -0.004,0.067 0.002,0.10216 0.0129,0.0819 0.0388,0.16178 0.0567,0.24222 0.046,0.21001 0.0411,0.42425 0.0734,0.635 0.0173,0.11209 0.0272,0.22418 0.0445,0.33645 0.0151,0.0898 0.0381,0.17541 0.0633,0.26376 0.0223,0.0813 0.046,0.16252 0.0604,0.2459 0.0136,0.0727 0.0381,0.13804 0.0604,0.20707 0.0418,0.12516 0.12718,0.23375 0.21645,0.32725 0.0374,0.0394 0.0755,0.079 0.11779,0.11356 0.0403,0.0324 0.0856,0.0633 0.11946,0.10216 0.0151,0.0151 0.0245,0.0322 0.0359,0.0488 0.0144,0.0173 0.0316,0.0302 0.0468,0.0468 0.0366,0.0411 0.0705,0.0863 0.10638,0.12866 0.0482,0.0569 0.11504,0.0928 0.18056,0.12295 0.0891,0.0403 0.17173,0.0906 0.25879,0.13381 0.0438,0.0223 0.0826,0.0287 0.13012,0.0396 0.0495,0.0107 0.0977,0.0257 0.14596,0.0374 0.0725,0.0171 0.14448,0.0316 0.21847,0.0351 0.0856,0.003 0.17836,0.0123 0.25603,-0.0302 0.0856,-0.0467 0.18405,-0.0747 0.26393,-0.13013 0.0668,-0.0453 0.1235,-0.0935 0.18332,-0.14817 0.0438,-0.0388 0.0834,-0.0876 0.12424,-0.12939 0.0433,-0.0445 0.0821,-0.0928 0.12516,-0.13804 0.0849,-0.0869 0.17264,-0.16455 0.2424,-0.26523 0.0237,-0.0346 0.0394,-0.0727 0.0596,-0.10859 0.0201,-0.0346 0.0495,-0.0626 0.0705,-0.0963 0.0438,-0.0712 0.10049,-0.12295 0.16601,-0.17485 0.0295,-0.0238 0.0618,-0.0431 0.0963,-0.0574 0.049,-0.0208 0.0964,-0.046 0.14669,-0.0626 0.0433,-0.0151 0.0871,-0.0252 0.13087,-0.0418 0.0618,-0.0243 0.13012,-0.0381 0.19712,-0.0394 0.0992,-0.004 0.19123,0.005 0.28823,0.0243 0.0423,0.009 0.0856,0.002 0.12866,0.008 0.0596,0.007 0.10785,0.046 0.16399,0.0641 0.0913,0.0287 0.13731,0.12222 0.21847,0.16823 0.0317,0.018 0.0512,0.0418 0.0792,0.0641 0.0316,0.0245 0.0589,0.0366 0.0762,0.0769 0.0208,0.0468 0.0252,0.11853 0.0252,0.1697 -7e-4,0.0539 0.009,0.11853 -0.0101,0.16952 -0.0109,0.0304 -0.008,0.0526 -0.0109,0.0843 -0.004,0.0322 -0.0144,0.0661 -0.0215,0.0992 -0.007,0.0322 -0.0121,0.069 -0.0237,0.0999 -0.0121,0.0315 -0.0381,0.0617 -0.0574,0.0898 -0.026,0.0337 -0.046,0.0611 -0.0819,0.0841 -0.0396,0.0265 -0.0799,0.0475 -0.11725,0.0769 -0.0374,0.0309 -0.072,0.0517 -0.11945,0.0668 -0.0179,0.006 -0.0718,0.0302 -0.0898,0.0237 0.009,-0.0237 0.0201,-0.0517 0.0359,-0.0698 0.009,-0.0107 0.018,-0.0173 0.0296,-0.0265 0.0238,-0.0195 0.0453,-0.0497 0.0703,-0.0677 0.021,-0.0151 0.0353,-0.0144 0.0512,-0.0381 0.0201,-0.0302 0.0453,-0.0567 0.0582,-0.0913 0.018,-0.0495 0.0195,-0.10418 0.0195,-0.15664 -7.1e-4,-0.0569 7.1e-4,-0.11504 -0.0124,-0.17191 -0.0166,-0.0725 -0.0582,-0.13436 -0.097,-0.19547 -0.018,-0.0302 -0.0517,-0.0618 -0.0826,-0.0806 -0.0158,-0.0107 -0.0353,-0.0144 -0.0539,-0.0208 -0.0317,-0.0131 -0.0598,-0.0316 -0.0928,-0.0425 -0.18847,-0.0626 -0.38891,-0.0193 -0.56947,0.0519 -0.0856,0.0329 -0.15682,0.0977 -0.23504,0.14596 -0.0425,0.0272 -0.0849,0.0567 -0.12442,0.0898 -0.0445,0.0374 -0.0799,0.0812 -0.12074,0.12295 -0.0281,0.0287 -0.0519,0.0596 -0.0784,0.0906 -0.0302,0.0344 -0.051,0.0762 -0.0806,0.11006 -0.0238,0.0258 -0.0366,0.0552 -0.0582,0.0834 -0.0331,0.0423 -0.0712,0.0804 -0.10491,0.12295 -0.0539,0.0661 -0.11724,0.11706 -0.1754,0.17762 -0.049,0.0524 -0.10584,0.0963 -0.15259,0.14945 -0.0409,0.0468 -0.074,0.10436 -0.11853,0.14596 -0.1143,0.10638 -0.21792,0.23946 -0.37032,0.28621 -0.0468,0.0144 -0.0883,0.0309 -0.13731,0.0309 h -0.1108 c -0.0366,0 -0.0733,-0.003 -0.10841,-0.009 -0.0267,-0.006 -0.049,-0.023 -0.0734,-0.0359 -0.12498,-0.064 -0.23357,-0.16473 -0.37033,-0.20356 -0.0416,-0.0121 -0.0854,-0.0186 -0.12865,-0.0331 -0.0431,-0.0129 -0.0812,-0.0374 -0.12295,-0.0567 -0.079,-0.0388 -0.17099,-0.0655 -0.24516,-0.11724 -0.0431,-0.0295 -0.0955,-0.0633 -0.12369,-0.10933 -0.009,-0.0171 -0.0186,-0.0302 -0.0322,-0.0445 -0.0353,-0.0352 -0.0742,-0.0668 -0.11301,-0.097 -0.0359,-0.0267 -0.0755,-0.0497 -0.10988,-0.0791 -0.0885,-0.0769 -0.16749,-0.16252 -0.25106,-0.2459 -0.0985,-0.10068 -0.17466,-0.23007 -0.23283,-0.35947 -0.0626,-0.14025 -0.0641,-0.28694 -0.0734,-0.43713 -0.009,-0.1467 -0.0265,-0.29615 -0.0473,-0.44285 -0.0101,-0.0734 -0.0145,-0.14742 -0.0217,-0.22142 -0.008,-0.0856 -0.0302,-0.1662 -0.0611,-0.24663 -0.0431,-0.10934 -0.0841,-0.21002 -0.10417,-0.32781 -0.023,-0.13804 -0.0252,-0.27977 -0.0475,-0.41708 -0.006,-0.0453 -0.0158,-0.0898 -0.0302,-0.13307 -0.0294,-0.0861 -0.0569,-0.18479 -0.12,-0.2494 -0.0131,-0.0136 -0.0274,-0.0208 -0.0418,-0.0294 -0.0381,-0.023 -0.0482,-0.0619 -0.0755,-0.095 -0.0633,-0.0747 -0.16601,-0.12866 -0.25951,-0.14375 -0.0346,-0.006 -0.0683,-0.006 -0.10215,-0.0173 -0.0381,-0.0114 -0.0769,-0.0265 -0.1143,-0.041 -0.0403,-0.0151 -0.0762,-0.0302 -0.12001,-0.0309 -0.0418,0 -0.0512,0.009 -0.0841,0.0375 -0.0374,0.0322 -0.0777,0.0574 -0.11798,0.0861 -0.051,0.0366 -0.0784,0.0676 -0.10786,0.12148 -0.0344,0.0663 -0.0503,0.13804 -0.0287,0.21075 0.009,0.0309 0.0129,0.0574 0.0272,0.0863 0.009,0.0186 0.0166,0.0396 0.0245,0.0582 0.0195,0.0453 0.0267,0.095 0.0381,0.14596 0.007,0.0309 0.0223,0.0468 0.0396,0.0698 0.0144,0.018 0.0525,0.0705 0.0431,0.0942 -0.005,0.0143 -0.0223,0.0215 -0.0359,0.0223 -0.0245,0.002 -0.0554,-0.0173 -0.0762,-0.0282 -0.0438,-0.0208 -0.0928,-0.0431 -0.12718,-0.0789 -0.0188,-0.0188 -0.0252,-0.0353 -0.0346,-0.0591"
       style="fill:#21201d;fill-opacity:1;fill-rule:nonzero;stroke:none;stroke-width:0.184057"
       id="path550" />
    <path
       d="m 379.95573,168.53517 c 0.0366,-0.0589 0.0747,-0.1143 0.12498,-0.16179 0.0433,-0.0416 0.0893,-0.0668 0.14098,-0.0955 0.0525,-0.0302 0.10215,-0.067 0.15388,-0.0992 0.11208,-0.072 0.22933,-0.13013 0.35154,-0.18332 0.12222,-0.0526 0.25602,-0.0698 0.36812,-0.14743 0.0999,-0.069 0.18258,-0.14449 0.24589,-0.25087 0.0339,-0.0569 0.069,-0.11302 0.10418,-0.16842 0.041,-0.0653 0.0734,-0.1351 0.11006,-0.20265 0.0561,-0.10288 0.10786,-0.19841 0.13731,-0.31271 0.0123,-0.0482 0.0302,-0.0942 0.0353,-0.14393 0.004,-0.0381 10e-4,-0.0762 10e-4,-0.11357 0,-0.0697 0.006,-0.13583 -0.0258,-0.19915 -0.0353,-0.069 -0.0878,-0.13013 -0.1432,-0.18111 -0.0552,-0.0504 -0.094,-0.10215 -0.1616,-0.13584 -0.0561,-0.0267 -0.11577,-0.0403 -0.17688,-0.0403 -0.0396,0 -0.0784,-0.003 -0.11651,0.005 -0.0346,0.008 -0.0655,0.0188 -0.0985,0.0287 -0.0353,0.009 -0.0727,0.0245 -0.1,0.0482 -0.0144,0.0129 -0.041,0.0482 -0.0576,0.0504 -0.0121,-0.0346 0.0374,-0.092 0.0569,-0.11227 0.0193,-0.0201 0.0453,-0.0337 0.0683,-0.0488 0.0495,-0.0339 0.0992,-0.067 0.1524,-0.092 0.0891,-0.0418 0.18111,-0.0346 0.27609,-0.0324 0.0668,0 0.13877,0.006 0.20135,0.0324 0.0409,0.0179 0.0804,0.0416 0.11927,0.0639 0.0611,0.0353 0.12368,0.0675 0.16547,0.12663 0.0179,0.0324 0.0366,0.0631 0.0552,0.0948 0.0223,0.0316 0.0475,0.0611 0.0734,0.0893 0.0769,0.092 0.12866,0.19841 0.14596,0.31989 0.0173,0.11651 0.0215,0.23946 -0.009,0.35376 -0.0129,0.0411 -0.0267,0.0812 -0.0388,0.12148 -0.009,0.0425 -0.0201,0.0841 -0.0317,0.12663 -0.0158,0.0445 -0.0329,0.0848 -0.0626,0.12074 -0.0445,0.0561 -0.0769,0.11927 -0.12221,0.17541 -0.0596,0.0725 -0.12498,0.14228 -0.1905,0.20927 -0.0388,0.0388 -0.0705,0.0618 -0.11724,0.0883 -0.0631,0.0366 -0.11706,0.0878 -0.17964,0.12792 -0.10712,0.0685 -0.21277,0.1432 -0.32854,0.19639 -0.0942,0.0431 -0.19565,0.0488 -0.29118,0.0856 -0.0777,0.0302 -0.15461,0.069 -0.23007,0.10565 -0.0633,0.0302 -0.12939,0.0596 -0.18921,0.097 -0.0337,0.0216 -0.0532,0.0445 -0.0777,0.0749 -0.0158,0.0193 -0.0315,0.0294 -0.0525,0.0401"
       style="fill:#21201d;fill-opacity:1;fill-rule:nonzero;stroke:none;stroke-width:0.184057"
       id="path552" />
    <path
       d="m 377.05758,169.59203 c -10e-4,0.0217 0.004,0.0942 -0.0281,0.0907 -0.006,0 -0.0237,-0.0145 -0.028,-0.018 -0.009,-0.009 -0.0166,-0.0223 -0.023,-0.0331 -0.0287,-0.0475 -0.074,-0.079 -0.11357,-0.11707 -0.0482,-0.0468 -0.10362,-0.0734 -0.15828,-0.10785 -0.0351,-0.023 -0.0589,-0.0598 -0.0928,-0.0828 -0.0423,-0.028 -0.0703,-0.0668 -0.10841,-0.0992 -0.021,-0.0179 -0.044,-0.0265 -0.067,-0.0416 -0.0208,-0.0136 -0.0416,-0.0339 -0.0618,-0.0504 -0.0416,-0.0329 -0.0861,-0.0626 -0.13436,-0.0869 -0.0626,-0.0316 -0.12368,-0.0633 -0.19123,-0.0821 -0.0641,-0.0186 -0.12792,-0.0337 -0.19124,-0.0532 -0.0755,-0.0223 -0.1546,-0.002 -0.23006,-0.0171 -0.0309,-0.005 -0.0648,-0.004 -0.0957,-0.007 -0.0639,-0.006 -0.12938,-0.0151 -0.18828,-0.0453 -0.0965,-0.0503 -0.16105,-0.14596 -0.22658,-0.23081 -0.0201,-0.0257 -0.0445,-0.0488 -0.0589,-0.0777 -0.0287,-0.0567 -0.028,-0.14522 -0.0215,-0.20265 0.004,-0.028 0.008,-0.0561 0.0151,-0.0841 0.006,-0.026 0.004,-0.0517 0.009,-0.0777 0.0107,-0.0641 0.0618,-0.10933 0.0804,-0.1697 0.006,-0.0193 0.009,-0.0396 0.0173,-0.0582 0.0267,-0.0591 0.0871,-0.0878 0.14375,-0.10933 0.0489,-0.018 0.0913,-0.0374 0.14374,-0.046 0.0116,-0.002 0.0935,-0.0208 0.0965,0 -0.12369,0.0223 -0.23081,0.10785 -0.27756,0.23007 -0.0121,0.0331 -0.0129,0.0683 -0.0215,0.10288 -0.007,0.0329 -0.0151,0.0624 -0.0201,0.0963 -0.004,0.0287 -0.007,0.0569 -0.007,0.0856 7.1e-4,0.0136 0.002,0.0309 0.009,0.0438 0.009,0.0151 0.0202,0.018 0.0281,0.0346 0.0201,0.0431 0.0582,0.0653 0.0891,0.0992 0.0208,0.0215 0.0388,0.0552 0.0633,0.074 0.0238,0.0188 0.0525,0.0144 0.079,0.0245 0.0526,0.023 0.10436,0.0366 0.16252,0.0416 0.0633,0.006 0.12663,0.0101 0.18847,0.023 0.10197,0.0202 0.20706,0.0245 0.30977,0.0339 0.10141,0.009 0.20283,0.0129 0.29909,0.0525 0.0353,0.0136 0.072,0.0245 0.10712,0.0396 0.0324,0.0121 0.0633,0.0346 0.0935,0.0525 0.0366,0.0223 0.0705,0.0576 0.11227,0.069 7.1e-4,0.003 7.1e-4,0.005 0.001,0.009"
       style="fill:#21201d;fill-opacity:1;fill-rule:nonzero;stroke:none;stroke-width:0.184057"
       id="path554" />
    <path
       d="m 379.27049,164.93886 c -0.0633,0.0893 -0.0799,0.18479 -0.12074,0.28327 -0.0504,0.12019 -0.12221,0.23007 -0.16547,0.35302 -0.0302,0.0813 -0.0265,0.17117 -0.0416,0.25455 -0.018,0.0977 -0.0668,0.18332 -0.092,0.28032 -0.0166,0.0698 -0.0445,0.13602 -0.0641,0.20431 -0.0223,0.0812 -0.0725,0.14743 -0.0942,0.22933 -0.0107,0.0374 -0.0257,0.0725 -0.0351,0.11062 -0.0114,0.0433 -0.009,0.0885 -0.008,0.13455 v 0.12589 c 0,-0.0475 0.002,-0.0698 0.0272,-0.11227 0.0375,-0.0611 0.0799,-0.12516 0.0964,-0.19547 0.0121,-0.0526 0.018,-0.1051 0.0381,-0.15387 0.0101,-0.0267 0.0265,-0.046 0.0396,-0.069 0.0223,-0.0353 0.0317,-0.0712 0.0438,-0.11006 0.0101,-0.0302 0.0252,-0.051 0.0431,-0.0777 0.0361,-0.0524 0.0655,-0.10786 0.0957,-0.16381 0.0431,-0.0799 0.0812,-0.16399 0.11503,-0.24884 0.0208,-0.051 0.0201,-0.10216 0.0431,-0.15314 0.0324,-0.0712 0.0576,-0.14596 0.0935,-0.21498 0.0482,-0.0935 0.0698,-0.19841 0.11577,-0.29192 0.023,-0.0482 0.0539,-0.0784 0.0863,-0.12074 0.0166,-0.0223 0.0381,-0.0425 0.0208,-0.0626 -0.009,-0.0116 -0.0547,-0.0237 -0.0675,-0.0267 -0.0201,-0.005 -0.0359,-0.0144 -0.0532,-0.0193 -0.0237,-0.005 -0.0532,0 -0.0742,0.0114 -0.0223,0.0123 -0.0559,0.0267 -0.0423,0.0331"
       style="fill:#21201d;fill-opacity:1;fill-rule:nonzero;stroke:none;stroke-width:0.184057"
       id="path556" />
    <path
       d="m 377.21864,165.0977 c 0.0243,0.0591 0.0604,0.10933 0.1084,0.15111 0.021,0.0186 0.041,0.0366 0.0626,0.056 0.0482,0.046 0.0935,0.0999 0.13381,0.15184 0.0554,0.0703 0.10639,0.14725 0.15811,0.21995 0.044,0.0618 0.0928,0.11872 0.11577,0.1905 0.023,0.0747 0.0547,0.14596 0.0762,0.21995 0.018,0.0576 0.0569,0.0935 0.0742,0.15038 0.0171,0.0567 0.0525,0.10565 0.0854,0.15314 0.0245,0.0359 0.0361,0.0804 0.0606,0.11577 0.0215,0.0302 0.0387,0.0604 0.0617,0.0898 0.0173,-0.0475 -0.0157,-0.13013 -0.0258,-0.17762 -0.0166,-0.069 -0.0331,-0.1373 -0.0468,-0.20706 -0.0136,-0.0698 -0.0497,-0.13013 -0.0661,-0.19768 -0.0173,-0.072 -0.0296,-0.13657 -0.0685,-0.20063 -0.0322,-0.0532 -0.0438,-0.11853 -0.079,-0.17117 -0.0151,-0.0223 -0.0361,-0.0394 -0.0512,-0.0624 -0.0201,-0.0302 -0.0344,-0.0641 -0.0503,-0.0957 -0.0532,-0.10933 -0.14301,-0.19915 -0.20412,-0.30333 -0.0195,-0.0339 -0.0203,-0.0755 -0.041,-0.1086 -0.0201,-0.0309 -0.0517,-0.0589 -0.0747,-0.0906 -0.0316,-0.0418 -0.046,-0.10215 -0.10288,-0.0749 -0.0416,0.0202 -0.0898,0.0237 -0.0977,0.0749 -0.007,0.0453 -0.0195,0.24001 -0.0287,0.11632"
       style="fill:#21201d;fill-opacity:1;fill-rule:nonzero;stroke:none;stroke-width:0.184057"
       id="path558" />
  </g>
</svg>
