<?xml version="1.0" encoding="UTF-8" standalone="no"?>
<!-- Created with Inkscape (http://www.inkscape.org/) -->

<svg
   width="6.7447mm"
   height="7.4556661mm"
   viewBox="0 0 6.7447 7.4556661"
   version="1.1"
   id="svg2396"
   inkscape:version="1.1.2 (0a00cf5339, 2022-02-04)"
   sodipodi:docname="c10.svg"
   xmlns:inkscape="http://www.inkscape.org/namespaces/inkscape"
   xmlns:sodipodi="http://sodipodi.sourceforge.net/DTD/sodipodi-0.dtd"
   xmlns="http://www.w3.org/2000/svg"
   xmlns:svg="http://www.w3.org/2000/svg">
  <sodipodi:namedview
     id="namedview2398"
     pagecolor="#ffffff"
     bordercolor="#666666"
     borderopacity="1.0"
     inkscape:pageshadow="2"
     inkscape:pageopacity="0.0"
     inkscape:pagecheckerboard="0"
     inkscape:document-units="mm"
     showgrid="false"
     inkscape:zoom="0.64052329"
     inkscape:cx="12.489788"
     inkscape:cy="14.831623"
     inkscape:window-width="2560"
     inkscape:window-height="1376"
     inkscape:window-x="0"
     inkscape:window-y="0"
     inkscape:window-maximized="1"
     inkscape:current-layer="layer1" />
  <defs
     id="defs2393" />
  <g
     inkscape:label="Layer 1"
     inkscape:groupmode="layer"
     id="layer1"
     transform="translate(-101.54858,-144.77211)">
    <path
       d="m 107.71455,146.4927 c -0.0145,0.0295 -0.0381,0.0438 -0.0525,0.004 -0.005,-0.0145 -0.008,-0.0309 -0.0152,-0.044 -0.007,-0.0144 -0.0194,-0.0186 -0.0296,-0.0309 -0.0173,-0.0208 -0.03,-0.056 -0.0314,-0.0804 0,-0.0309 0.0155,-0.0489 0.008,-0.0799 -0.007,-0.0257 -0.0226,-0.051 -0.0275,-0.0804 h 0.0286 c -0.005,0.0193 0.0187,0.028 0.0296,0.0396 0.018,0.0164 0.0321,0.0374 0.0446,0.0589 0.0106,0.0193 0.0187,0.0416 0.0279,0.0618 0.008,0.0173 0.0208,0.0352 0.0254,0.0532 0.006,0.0265 0.004,0.0747 -0.008,0.0977 m -0.48461,-0.028 c -0.0152,-0.004 0.006,0.0245 -0.004,0.0352 -0.0106,0.0123 -0.0495,-0.001 -0.0589,-0.006 -0.0201,-0.009 -0.0332,-0.0101 -0.0539,-0.0144 -0.0236,-0.005 -0.0495,-0.0158 -0.0747,-0.026 -0.0215,-0.008 -0.0438,-0.0144 -0.0633,-0.0295 -0.0208,-0.0165 -0.0381,-0.0344 -0.0633,-0.049 -0.0222,-0.0136 -0.0416,-0.023 -0.0624,-0.0388 -0.0201,-0.0156 -0.0418,-0.0295 -0.0633,-0.0438 -0.0123,-0.008 -0.0425,-0.0151 -0.0324,-0.0344 0.008,-0.0131 0.0388,-0.0158 0.0517,-0.018 0.044,-0.008 0.0863,-0.0223 0.13014,-0.0287 0.018,-0.002 0.0324,-0.0101 0.0497,-0.0109 0.01,0 0.0201,0.004 0.0293,7.1e-4 0.007,-10e-4 0.0102,-0.009 0.018,-0.0101 0.009,-0.002 0.0208,7e-4 0.0303,7e-4 0.0229,0 0.0353,-0.002 0.0502,0.0166 0.0123,0.0129 0.0243,0.0287 0.0346,0.0438 0.0106,0.0166 0.01,0.0339 0.0145,0.0532 0.004,0.0138 0.012,0.0339 0.0166,0.0504 0.009,0.0287 0.0208,0.0871 0.051,0.10859 0.004,7.1e-4 0.01,0.004 0.0173,0.007 -0.006,-7.1e-4 -0.0123,-0.003 -0.0173,-0.007 m -0.80451,-0.0302 c -0.0346,0.0401 -0.0792,0.0574 -0.12866,0.0747 -0.0512,0.018 -0.10584,0.0532 -0.16179,0.0388 -0.0215,-0.006 -0.0388,-0.0144 -0.0411,-0.0359 -0.004,-0.023 0.005,-0.0447 0.01,-0.0663 0.006,-0.0272 0.0208,-0.0554 0.0318,-0.0797 0.012,-0.0296 0.0208,-0.0606 0.0366,-0.0871 0.0138,-0.0237 0.0279,-0.0339 0.0482,-0.049 0.0194,-0.0144 0.0374,-0.0258 0.0604,-0.0351 0.0159,-0.007 0.0243,-0.0158 0.0381,-0.0252 0.0335,-0.023 0.0755,0.0116 0.0985,0.0361 0.0626,0.0668 0.0683,0.15884 0.008,0.2286 m -0.37899,-0.2575 c -0.004,0.0151 -0.004,0.0237 -0.01,0.0388 -0.004,0.006 -0.0138,0.0195 -0.0173,0.0238 -0.008,0.0129 -0.0222,0.0223 -0.031,0.0353 -0.0152,0.0216 -0.018,0.0381 -0.0396,0.0604 -0.0236,0.0238 -0.0453,0.0481 -0.0732,0.0676 -0.0396,0.0272 -0.0705,0.0618 -0.11505,0.0797 -0.0243,0.009 -0.0455,0.0116 -0.0712,-0.003 -0.0222,-0.0116 -0.0222,-0.0274 -0.0215,-0.0504 0,-0.023 -0.004,-0.0495 0,-0.0732 0.004,-0.0237 0.0166,-0.0453 0.0194,-0.069 0.007,-0.0532 0.0433,-0.11283 0.0735,-0.15755 0.0279,-0.0401 0.0718,-0.079 0.12146,-0.0913 0.0194,-0.004 0.0416,-0.001 0.0626,-0.001 0.0215,0 0.0303,0.006 0.0481,0.01 0.0219,0.004 0.0447,-0.002 0.0611,0.0151 0.007,0.006 0.0166,0.0223 0.0194,0.0361 0.004,0.006 0.004,0.0121 0.004,0.0158 -0.004,0.023 -0.0229,0.0416 -0.0289,0.0631 m 2.23887,0.63702 c -0.009,-0.051 -0.0106,-0.11062 -0.0328,-0.15884 -0.0123,-0.0287 -0.0282,-0.0589 -0.0346,-0.0885 -0.004,-0.0186 0,-0.0302 -0.0113,-0.0473 -0.007,-0.0158 -0.0173,-0.0296 -0.0236,-0.0453 -0.0275,-0.0697 -0.0906,-0.12515 -0.14376,-0.17761 -0.0425,-0.0445 -0.0907,-0.0834 -0.14245,-0.11798 0,-0.001 -0.004,-0.002 -0.004,-0.003 0.004,0.0166 -0.01,0.0188 -0.0208,0.0158 -0.0258,-0.007 -0.0416,-0.0272 -0.0525,-0.0488 -0.0173,-0.0331 -0.0293,-0.067 -0.0517,-0.0964 -0.0381,-0.051 -0.0727,-0.10418 -0.12294,-0.14375 -0.0446,-0.0331 -0.0848,-0.0668 -0.13585,-0.0891 -0.046,-0.0203 -0.092,-0.0396 -0.13748,-0.0576 -0.0668,-0.0257 -0.13363,-0.0554 -0.2019,-0.0733 -0.0229,-0.005 -0.0475,-0.005 -0.0727,-0.004 -0.0127,0 -0.0258,0.002 -0.0381,-7.1e-4 -0.008,-0.002 -0.0201,-0.0201 -0.0243,-10e-4 0.004,-0.008 0.0534,0.0302 0.0561,0.0329 0.0222,0.018 0.0475,0.0252 0.0734,0.0368 0.0388,0.0164 0.0653,0.0416 0.0848,0.079 0.008,0.0166 0.0162,0.0339 0.0279,0.049 0.008,0.0121 0.0468,0.0431 0.0374,0.0604 -0.007,0.0129 -0.046,0.006 -0.0574,0.006 -0.0318,0.002 -0.0648,0.007 -0.0971,0.009 -0.0626,0.004 -0.12076,-0.007 -0.18334,-0.009 -0.051,-0.002 -0.10344,-7.1e-4 -0.15533,0 -0.0547,7e-4 -0.12369,-0.009 -0.17466,-0.0287 -0.0222,-0.009 -0.0396,-0.0165 -0.0633,-0.0195 -0.0272,-0.003 -0.0473,-0.0164 -0.074,-0.0223 -0.0317,-0.007 -0.064,-0.003 -0.0957,-0.009 -0.0194,-0.004 -0.0314,-0.007 -0.0502,-0.007 -0.0517,-0.002 -0.10143,7e-4 -0.15314,0.0121 -0.0396,0.007 -0.0849,0.0245 -0.12517,0.0265 -0.0401,0.003 -0.0999,-0.0144 -0.1373,0.003 -0.0127,0.006 -0.0208,0.0158 -0.0359,0.0188 -0.0236,0.005 -0.0532,7e-4 -0.0769,-0.002 -0.0611,-0.007 -0.12442,-0.0223 -0.18185,-0.0403 -0.0201,-0.006 -0.0425,-0.0165 -0.0626,-0.0178 -0.0201,-0.003 -0.0388,-7e-4 -0.0583,-0.005 -0.0359,-0.009 -0.0279,0.067 -0.0589,0.0826 -0.0353,0.0195 -0.10858,-0.009 -0.13306,0.0296 -0.005,0.007 0,0.0193 0,0.0265 0,0.0173 -0.005,0.0331 -0.0102,0.0504 -0.0236,0.0747 -0.0296,0.15314 -0.046,0.23007 -0.008,0.0366 -0.0173,0.071 -0.0275,0.10713 -0.008,0.0322 -0.0138,0.0661 -0.0243,0.097 -0.004,0.008 -0.008,0.0114 -0.01,0.0201 0.0236,0.0109 0.0546,-0.0237 0.0776,-0.006 0.004,0.0302 -0.0293,0.0433 -0.0395,0.0668 -0.006,0.013 -0.004,0.0289 -0.01,0.0418 -0.004,0.009 -0.0109,0.0158 -0.0166,0.0237 -0.0152,0.0215 -0.0229,0.0475 -0.0374,0.0698 -0.0187,0.0287 -0.0475,0.0445 -0.0705,0.069 -0.0222,0.023 -0.0574,0.12222 -0.0113,0.13289 0.0243,0.006 0.051,-0.006 0.0747,-0.008 0.0325,-0.003 0.0654,-7e-4 0.0977,-7e-4 h 0.19199 c 0.0366,0 0.0648,0.005 0.10138,0.0107 0.0261,0.004 0.0388,0.002 0.0388,0.0282 0,0.0295 -0.0261,0.0525 -0.0311,0.0804 -0.006,0.0418 0,0.0942 0,0.13657 v 0.10216 c 0,0.018 0.006,0.028 0.009,0.0438 0,0.0173 -0.006,0.044 -0.01,0.0611 -0.004,0.021 -0.0138,0.0447 -0.0243,0.0633 -0.0123,0.0223 -0.0332,0.0351 -0.0482,0.0554 -0.0106,0.0158 -0.0222,0.0366 -0.0374,0.0488 -0.007,0.005 -0.0113,0.005 -0.0187,0.009 -0.0268,0.0144 -0.0381,0.0403 -0.0576,0.0633 -0.0208,0.0267 -0.0431,0.0532 -0.0646,0.0792 -0.0222,0.025 -0.049,0.0416 -0.0734,0.0639 -0.0503,0.046 -0.0675,0.0972 -0.0819,0.16253 -0.008,0.0331 -0.0138,0.0648 -0.0236,0.0964 -0.005,0.0171 -0.005,0.0243 0.008,0.0388 0.0272,0.0302 0.0747,0.0438 0.11356,0.048 0.0497,0.006 0.12517,0.0203 0.16327,0.0576 0.0359,0.0337 0.0574,0.0906 0.0977,0.1178 0.0438,0.0316 0.092,0.0468 0.14449,0.0534 0.0697,0.009 0.12517,-0.0296 0.19273,-0.0346 0.0201,-0.002 0.0525,-0.004 0.0705,0.005 0.0187,0.0101 0.0131,0.0173 0.0201,0.0331 0.007,0.0151 0.0201,0.0346 0.0339,0.0453 0.0173,0.0144 0.0353,0.0203 0.0561,0.0245 0.0272,0.006 0.051,0.0173 0.0775,0.018 0.0396,0.002 0.067,-0.0151 0.10291,-0.0296 0.0243,-0.01 0.0482,-0.0114 0.072,-0.0193 0.051,-0.0166 0.10269,-0.0423 0.15811,-0.0482 0.0346,-0.004 0.0806,-0.003 0.11427,0.003 0.0433,0.007 0.0856,0.002 0.12738,0.009 0.0243,0.004 0.0481,0.007 0.0703,0.0166 0.0173,0.008 0.031,0.0186 0.0504,0.0208 0.0431,0.005 0.0913,-0.004 0.13364,-0.0116 0.0303,-0.006 0.0598,-0.0257 0.09,-0.0344 0.031,-0.0109 0.0532,-0.013 0.0848,-0.013 0.0388,0 0.0769,7e-4 0.11574,0 0.0353,-7.1e-4 0.0639,0.013 0.0963,0.026 0.0339,0.0123 0.069,0.0237 0.1029,0.0366 0.0243,0.0101 0.0374,0.0245 0.031,0.0512 -0.005,0.0215 -0.0187,0.051 -0.031,0.0718 -0.018,0.0309 -0.0554,0.0525 -0.0547,0.092 0.0229,-0.023 0.0547,-0.0374 0.0856,-0.048 0.0453,-0.0138 0.0819,-0.0375 0.12424,-0.0583 0.0222,-0.0114 0.0475,-0.0166 0.0712,-0.0257 0.0215,-0.008 0.0346,-0.0224 0.0497,-0.0388 0.0293,-0.0309 0.051,-0.0698 0.0769,-0.10436 0.0321,-0.0409 0.071,-0.0784 0.10566,-0.11853 0.0279,-0.0324 0.0525,-0.0663 0.0747,-0.10289 0.013,-0.0208 0.0317,-0.0381 0.0431,-0.0589 0.0236,-0.041 0.0353,-0.10638 0.0433,-0.15387 0.005,-0.0274 0.0201,-0.10712 -0.007,-0.12866 -0.0254,0.0114 -0.0433,0.0295 -0.0655,0.048 -0.0166,0.0123 -0.0332,0.0289 -0.051,0.0116 -0.0194,-0.0166 -0.0138,-0.049 -0.0194,-0.0705 -0.004,-0.018 -0.008,-0.0517 -0.0258,-0.0589 -0.013,-0.004 -0.0289,0.001 -0.0366,0.009 -0.004,0.01 -0.007,0.0186 -0.0145,0.0265 -0.005,0.002 -0.0106,0.004 -0.0152,0.006 -0.009,7.1e-4 -0.0159,0.004 -0.0201,0.0116 0,0.008 -0.005,0.0136 -0.0109,0.0179 -0.0113,0.009 -0.0258,0.006 -0.0388,0.006 -0.0381,0.001 -0.0314,-0.0144 -0.0581,-0.0337 -0.0145,-0.0116 -0.0324,-0.0129 -0.049,-0.0215 -0.0152,-0.009 -0.0229,-0.0202 -0.0367,-0.0289 -0.018,0.0116 -0.025,0.0633 -0.0445,0.0633 -0.0109,7e-4 -0.0145,-0.0173 -0.0222,-0.0223 -0.0201,-0.0121 -0.018,0.005 -0.0325,0.0101 -0.0243,0.009 -0.0482,-0.0611 -0.0554,-0.0813 -0.006,-0.0158 -0.0138,-0.0258 -0.0222,-0.0388 -0.007,-0.0114 -0.008,-0.0144 -0.0106,-0.0302 -0.01,7.1e-4 -0.0339,0.023 -0.041,0.0296 -0.0173,0.0151 -0.0293,0.0337 -0.0482,0.0473 -0.0145,0.0123 -0.0272,0.0195 -0.0401,0.0353 -0.0138,0.0165 -0.0318,0.0324 -0.0497,0.0129 -0.0187,-0.018 -0.006,-0.0697 -0.031,-0.0755 -0.0187,-0.004 -0.0532,0.0121 -0.0712,0.0165 -0.018,0.003 -0.0366,0.006 -0.056,0.005 -0.0381,-0.001 -0.0618,-0.0237 -0.0755,-0.0582 -0.0109,-0.0252 -0.0123,-0.0525 -0.0173,-0.0799 -0.004,-0.0151 -0.004,-0.0302 -0.006,-0.0453 -0.004,-0.0109 -0.01,-0.0188 -0.008,-0.0309 -0.0254,0.026 -0.0324,0.0611 -0.0539,0.0885 -0.0166,0.0201 -0.0433,0.0272 -0.0562,0.0532 -0.0293,-0.0131 -0.0648,-0.0274 -0.0863,-0.0519 -0.01,-0.01 -0.0152,-0.0223 -0.0215,-0.0337 -0.0438,-0.067 -0.0784,0.056 -0.0935,0.0453 -0.0131,-0.009 -0.0152,-0.0267 -0.0279,-0.0366 -0.0123,-0.0109 -0.0201,-0.007 -0.0346,-0.0109 -0.0229,-0.006 -0.0453,-0.018 -0.0676,-0.0265 -0.0453,-0.0173 -0.097,-0.0109 -0.14523,-0.0109 -0.03,7e-4 -0.0561,-0.0109 -0.0863,-0.0101 -0.0222,0 -0.0567,0.018 -0.0776,0.009 -0.0286,-0.0121 -0.007,-0.0532 0,-0.0747 0.0102,-0.026 0.0131,-0.0517 0.0215,-0.0769 0.007,-0.0173 0.0131,-0.0381 0.0208,-0.0547 0.007,-0.0166 0.0201,-0.0309 0.0272,-0.049 0.0145,-0.0401 0.0346,-0.0604 0.0604,-0.092 0.0159,-0.0186 0.0346,-0.0359 0.0512,-0.0525 0.0169,-0.0165 0.031,-0.0158 0.0532,-0.0151 0.0215,0 0.0473,-0.005 0.069,-7e-4 0.0229,0.004 0.0279,0.0144 0.0495,0.003 0.0275,-0.0136 0.0418,-0.0158 0.0705,-0.001 0.0317,0.0144 0.0524,0.0195 0.0878,0.0188 0.0173,-0.001 0.0339,-0.0131 0.0517,-0.0101 0.01,7.1e-4 0.0187,0.007 0.0272,0.009 0.009,7.1e-4 0.0159,0 0.0236,-0.001 0.0152,-0.001 0.0222,-0.006 0.0353,0.004 0.0222,0.0171 0.0495,0.0762 0.0532,0.10418 0,-7.1e-4 0.0265,-0.0359 0.0293,-0.041 0.01,-0.0179 0.0166,-0.0381 0.0258,-0.056 0.0229,-0.0403 0.0353,-0.007 0.067,-7e-4 0.0303,0.004 0.0747,-0.0238 0.0963,-0.0411 0.008,-0.007 0.0159,-0.0151 0.0261,-0.0201 0.0187,-0.009 0.0475,-0.007 0.0639,0.007 0.007,0.006 0.008,0.0166 0.018,0.0179 0.0138,0.004 0.0332,-0.0144 0.0425,-0.0223 0.0243,-0.023 0.0359,-0.0316 0.0696,-0.0272 0.0244,0.003 0.0368,0.0223 0.0584,0.0287 0.041,0.0123 0.0876,-0.0208 0.12295,-0.0359 0.0381,-0.0158 0.0784,-0.0123 0.11927,-0.0116 0.031,7e-4 0.069,0.0237 0.0957,0.0396 0.0286,0.0173 0.0416,0.0524 0.0661,0.0762 0.0258,0.0252 0.046,0.0524 0.0648,0.0834 0.009,0.0165 0.0127,0.0353 0.0201,0.0532 0.004,0.007 0.01,0.0109 0.0109,0.018 0,0.009 -0.004,0.0173 0,0.0267 0.0201,-0.0238 0.0321,-0.0576 0.0488,-0.0841 0.0166,-0.0289 0.0325,-0.0519 0.0453,-0.0821 0.0137,-0.0294 0.0152,-0.0618 0.0215,-0.0928 0.005,-0.0201 0.008,-0.0352 0.008,-0.0582 0,-0.0144 -0.004,-0.0316 0.004,-0.0453 0.0453,0.0618 0.0438,0.14025 0.0611,0.20927 0.008,0.0388 0.0138,0.0769 0.0138,0.1178 0,0.0324 -0.006,0.0742 0.004,0.10565 0.0201,-0.005 0.0517,-0.0525 0.0675,-0.0668 0.0116,-0.0114 0.0279,-0.0223 0.0374,-0.0352 0.01,-0.0144 0.0145,-0.0353 0.0215,-0.0519 0.0201,-0.0495 0.0166,-0.10344 0.0166,-0.15516 0,-0.0583 0.004,-0.11651 -0.008,-0.17264"
       style="fill:#21201d;fill-opacity:1;fill-rule:nonzero;stroke:none;stroke-width:0.184057"
       id="path506" />
    <path
       d="m 105.13557,145.8047 c 0.004,0.0324 0.006,0.0633 0.01,0.0955 0.004,0.0504 -0.004,0.095 0.004,0.14522 0.01,0.0942 -0.0289,0.17909 -0.0742,0.25897 -0.0229,0.0409 -0.0431,0.0869 -0.0626,0.13013 -0.009,0.023 -0.0187,0.0416 -0.0229,0.0646 -0.006,0.0274 -0.004,0.0532 -0.007,0.0791 -0.0215,0.0891 -0.0849,0.15811 -0.14521,0.22437 -0.0481,0.0524 -0.0963,0.11853 -0.16453,0.14448 -0.0131,0.005 -0.0453,0.0144 -0.0539,0.002 -0.004,-0.004 -0.008,-0.0317 -0.01,-0.0376 -0.008,-0.0243 -0.0116,-0.051 -0.0127,-0.0782 -0.004,-0.0324 0.007,-0.0504 0.0169,-0.0791 0.0236,-0.0698 0.0569,-0.13234 0.10287,-0.1905 0.0229,-0.0287 0.0418,-0.0547 0.0589,-0.0871 0.006,-0.0114 0.0138,-0.023 0.0194,-0.0351 0.008,-0.0166 0.01,-0.0388 0.0194,-0.0532 0.0131,-0.0203 0.0311,-0.0403 0.044,-0.0626 0.0229,-0.0374 0.0473,-0.069 0.0675,-0.10786 0.0286,-0.0554 0.0661,-0.095 0.0733,-0.15884 0.005,-0.0388 -0.007,-0.0777 -0.006,-0.11724 0,-0.0158 0.004,-0.0287 0.0102,-0.0431 0.008,-0.0188 0.012,-0.0274 0.0145,-0.049 0.006,-0.0418 0.0169,-0.0698 0.0611,-0.0733 0.0138,-0.001 0.0353,-0.009 0.0438,0.002 0.008,0.008 0.006,0.049 0.0152,0.026"
       style="fill:#21201d;fill-opacity:1;fill-rule:nonzero;stroke:none;stroke-width:0.184057"
       id="path508" />
    <path
       d="m 104.67247,145.30995 c 0.007,0.0727 0.0243,0.14025 0.0325,0.2135 0.005,0.0583 -0.004,0.11522 -0.0318,0.16842 -0.0138,0.0265 -0.0328,0.0438 -0.0446,0.0718 -0.0102,0.0252 -0.031,0.0539 -0.0517,0.0734 -0.0215,0.0193 -0.0366,0.0344 -0.0504,0.0618 -0.0145,0.0309 -0.0194,0.071 -0.0264,0.10344 -0.007,0.0359 -0.0102,0.0698 -0.0208,0.10289 -0.0116,0.0359 -0.0102,0.0733 -0.0353,0.10271 -0.0194,0.026 -0.048,0.0468 -0.071,0.0712 -0.0123,0.0121 -0.0226,0.026 -0.0339,0.0381 -0.0194,0.0208 -0.0438,0.0316 -0.0648,0.0503 -0.0339,0.0274 -0.0654,0.0547 -0.10273,0.0777 -0.0222,0.0138 -0.0497,0.0237 -0.0569,0.0524 -0.004,0.0217 0,0.0455 0.0123,0.0641 0.0187,0.0359 0.051,0.0475 0.0782,0.0734 0.0368,0.0359 0.0756,0.051 0.12809,0.0315 0.0279,-0.0107 0.0495,-0.0401 0.0705,-0.0616 0.0366,-0.0376 0.0811,-0.0698 0.11356,-0.11228 0.0187,-0.0245 0.0222,-0.0554 0.0388,-0.0819 0.0169,-0.0287 0.0381,-0.0562 0.0567,-0.0849 0.0282,-0.0431 0.0683,-0.0841 0.0905,-0.13086 0.0243,-0.049 0.0418,-0.0977 0.0713,-0.14301 0.0123,-0.0173 0.0317,-0.0302 0.041,-0.0482 0.006,-0.0109 0.006,-0.0237 0.012,-0.0353 0.009,-0.0164 0.0215,-0.0294 0.0303,-0.0473 0.0102,-0.0245 0.0282,-0.0453 0.0374,-0.0705 0.0102,-0.0237 0.018,-0.0576 0.0208,-0.0841 0.007,-0.0641 -0.0208,-0.12442 0,-0.187 0.0145,-0.0438 0.004,-0.12645 -0.0109,-0.17044 -0.006,-0.0171 -0.0138,-0.0265 -0.0236,-0.0409 -0.012,-0.0158 -0.0194,-0.0302 -0.0303,-0.0468 -0.012,-0.0208 -0.0359,-0.0497 -0.0582,-0.0596 -0.0222,-0.0109 -0.10435,-0.0418 -0.12369,-0.0166 -0.008,0.009 0.004,0.0639 0.005,0.0762 0.005,0.0238 0.0145,0.0381 0,-0.0116"
       style="fill:#21201d;fill-opacity:1;fill-rule:nonzero;stroke:none;stroke-width:0.184057"
       id="path510" />
    <path
       d="m 104.19227,145.01601 c 0.0109,0.0532 0.0332,0.0999 0.0438,0.1524 0.0166,0.0913 0.031,0.18037 0.0243,0.27387 -0.005,0.0727 -0.0145,0.1351 -0.0374,0.20633 -0.0236,0.0712 -0.043,0.1467 -0.0898,0.21001 -0.0381,0.0525 -0.0618,0.11136 -0.10562,0.15885 -0.0194,0.0208 -0.0403,0.0425 -0.0591,0.0626 -0.0173,0.0188 -0.0446,0.046 -0.0559,0.0661 -0.018,0.0316 -0.0109,0.09 -0.004,0.12222 0.0106,0.044 0.0411,0.0633 0.0812,0.0871 0.0447,0.0267 0.0676,0.007 0.10217,-0.0272 0.0324,-0.0324 0.0475,-0.0742 0.0727,-0.1108 0.0303,-0.0438 0.0631,-0.0826 0.0876,-0.13013 0.0243,-0.0468 0.0431,-0.0913 0.0611,-0.13951 0.0145,-0.0374 0.0374,-0.0661 0.0388,-0.10639 0.004,-0.0418 0.0152,-0.0799 0.0222,-0.12074 0.006,-0.041 0.006,-0.0734 0.0282,-0.11283 0.0265,-0.0512 0.0926,-0.0799 0.10343,-0.14025 0.01,-0.0576 -0.007,-0.1108 -0.0173,-0.16621 -0.01,-0.048 -0.0152,-0.0999 -0.0353,-0.14522 -0.0116,-0.0243 -0.0145,-0.048 -0.0243,-0.0733 -0.008,-0.0237 -0.0145,-0.0532 -0.0265,-0.0755 -0.0173,-0.0294 -0.0455,-0.069 -0.0856,-0.0626 -0.0222,0.004 -0.0339,0.0101 -0.0547,0.003 -0.0145,-0.006 -0.0215,-0.0151 -0.0374,-0.018 -0.007,-0.002 -0.0374,-0.005 -0.0453,-0.004 -0.0258,0.005 -0.0138,0.0252 -0.0102,0.0433 0.004,0.0223 0.008,0.0337 0.0208,0.0525 0.008,0.0101 0.008,0.0151 0.0187,0.0252 0.0113,0.01 0.0286,0.01 -0.018,-0.0309"
       style="fill:#21201d;fill-opacity:1;fill-rule:nonzero;stroke:none;stroke-width:0.184057"
       id="path512" />
    <path
       d="m 103.64233,144.9203 c 0.004,0.0158 0.0265,0.0282 0.0395,0.0381 0.0279,0.0202 0.0552,0.041 0.0827,0.0618 0.0303,0.023 0.0445,0.0475 0.0539,0.0841 0.008,0.0359 0.0243,0.0683 0.0332,0.10437 0.0374,0.15019 0.0194,0.30976 -0.0226,0.46143 -0.009,0.0302 -0.008,0.0618 -0.0187,0.0913 -0.0127,0.0368 -0.0396,0.0677 -0.0547,0.10216 -0.0215,0.0497 -0.046,0.10215 -0.0576,0.15313 -0.007,0.0366 -0.0215,0.0655 -0.0339,0.10068 -0.0117,0.0339 -0.006,0.0604 0.0431,0.0554 0.0159,-0.002 0.0453,-0.006 0.059,-0.0129 0.0173,-0.008 0.0353,-0.0324 0.0495,-0.046 0.0425,-0.0418 0.0727,-0.095 0.097,-0.14541 0.0325,-0.0653 0.072,-0.12792 0.0987,-0.1962 0.0303,-0.0804 0.0303,-0.16602 0.0381,-0.24885 0.005,-0.0646 0.012,-0.13013 0.0229,-0.194 0.0106,-0.0705 -0.01,-0.13528 -0.0229,-0.2043 -0.01,-0.046 -0.0109,-0.10786 -0.0324,-0.14872 -0.0194,-0.0388 -0.0626,-0.0712 -0.10365,-0.0898 -0.0416,-0.0188 -0.0804,-0.0403 -0.11927,-0.0606 -0.018,-0.009 -0.0359,-0.0193 -0.0532,-0.028 -0.0124,-0.006 -0.0286,-0.0201 -0.0426,-0.0237 -0.051,-0.0144 -0.0589,0.046 -0.0581,0.0777 0,0.0165 0.004,0.0295 0.004,0.0453 -0.004,0.0165 -0.005,0.0366 0.007,0.0532 0.006,0 0.0127,0 0.0201,0 0,0.003 0.004,0.006 -0.0286,-0.0302"
       style="fill:#21201d;fill-opacity:1;fill-rule:nonzero;stroke:none;stroke-width:0.184057"
       id="path514" />
    <path
       d="m 103.23314,145.02466 c 0.004,0.0517 0.0734,0.0999 0.10365,0.13657 0.0401,0.0495 0.0653,0.0977 0.0898,0.15534 0.0517,0.12277 0.0611,0.24443 0.0495,0.37732 -0.004,0.0468 0,0.0964 0.006,0.14246 0.004,0.0502 -0.01,0.10639 -0.0159,0.15664 -0.005,0.0302 -0.0124,0.0633 -0.0102,0.0928 0,0.0158 0.004,0.0282 0.018,0.0302 0.0152,0.004 0.0431,-0.0121 0.0532,-0.0215 0.018,-0.0188 0.0328,-0.0525 0.0445,-0.0762 0.0317,-0.0648 0.0569,-0.13013 0.0597,-0.20063 0.004,-0.0661 0.0152,-0.1351 0.0109,-0.20209 -0.005,-0.0596 -0.0261,-0.12222 -0.0374,-0.18038 -0.0159,-0.0819 -0.0318,-0.16252 -0.0482,-0.24369 -0.007,-0.0396 -0.008,-0.0878 -0.0236,-0.12369 -0.0131,-0.0309 -0.0554,-0.046 -0.087,-0.0547 -0.0339,-0.009 -0.0567,-0.0166 -0.0854,-0.0339 -0.0289,-0.0171 -0.0526,-0.0295 -0.0843,-0.0401 -0.0307,-0.0116 -0.0537,0.003 -0.0537,0.0359 0,0.0208 0.012,0.0208 0.0201,0.0346 0.0102,0.0171 0.0113,0.0596 -0.01,0.0151"
       style="fill:#21201d;fill-opacity:1;fill-rule:nonzero;stroke:none;stroke-width:0.184057"
       id="path516" />
    <path
       d="m 102.9694,145.22455 c -0.004,0.0287 0.0488,0.0387 0.0676,0.0545 0.0243,0.0195 0.0401,0.0447 0.056,0.0705 0.013,0.0223 0.0275,0.0281 0.0467,0.0453 0.0641,0.0611 0.0863,0.16896 0.10287,0.24958 0.007,0.0388 0.0208,0.0804 0.0173,0.12001 -0.004,0.0346 -0.004,0.0705 -0.005,0.10436 -0.004,0.0567 0.0102,0.11927 -0.008,0.17393 -0.005,0.0166 -0.0106,0.0366 -0.0293,0.0453 -0.0187,0.009 -0.0705,-0.003 -0.0884,-0.009 -0.0727,-0.0237 -0.046,-0.164 -0.0482,-0.21351 -0.004,-0.0849 -0.0152,-0.16602 -0.0332,-0.24885 -0.009,-0.0409 -0.0335,-0.0812 -0.0618,-0.11429 -0.01,-0.0129 -0.0229,-0.0216 -0.0303,-0.0359 -0.009,-0.0173 -0.0145,-0.0309 -0.0293,-0.046 -0.0346,-0.0331 -0.0876,-0.0906 -0.0567,-0.13952 0.0194,-0.0287 0.0314,-0.0294 0.0653,-0.041 0.0215,-0.007 0.0109,-0.006 0.0318,-0.004 0.0145,0.002 0.046,0.003 0.004,-0.0121"
       style="fill:#21201d;fill-opacity:1;fill-rule:nonzero;stroke:none;stroke-width:0.184057"
       id="path518" />
    <path
       d="m 102.69829,145.64365 c 0,0.0215 0.0208,0.0351 0.0342,0.051 0.0275,0.0302 0.0527,0.0626 0.0683,0.0999 0.0229,0.0532 0.0368,0.10363 0.0475,0.16105 0.007,0.0403 0.0261,0.074 0.0353,0.11283 0.0138,0.0583 0.0475,-0.006 0.0559,-0.0351 0.0152,-0.0482 0.0159,-0.0834 0.0117,-0.13307 0,-0.0201 0.004,-0.0366 0,-0.0574 -0.004,-0.0252 -0.0131,-0.0445 -0.0236,-0.0683 -0.0109,-0.0267 -0.025,-0.0547 -0.0318,-0.0821 -0.005,-0.0193 -0.004,-0.0453 -0.012,-0.0639 -0.0159,-0.0366 -0.0426,-0.0747 -0.0626,-0.11154 -0.0324,0 -0.0512,0.0203 -0.0792,0.0237 -0.0138,0.001 -0.008,-0.0173 -0.0286,-0.002 -0.0152,0.0114 -0.006,0.0265 -0.004,0.0394 0.004,0.0237 0.01,0.0475 0.0145,0.0712 0,0.0101 0,0.0237 0.006,0.0324 0.006,0.0158 0.0222,0.0237 -0.0324,-0.0381"
       style="fill:#21201d;fill-opacity:1;fill-rule:nonzero;stroke:none;stroke-width:0.184057"
       id="path520" />
    <path
       d="m 103.73931,147.10819 c -0.097,0.15663 -0.18902,0.31566 -0.27958,0.47598 -0.0332,0.0589 -0.0618,0.12 -0.095,0.17835 -0.0346,0.0624 -0.0792,0.11633 -0.11578,0.17688 -0.0272,0.0453 -0.046,0.0933 -0.0705,0.1408 -0.0243,0.046 -0.0532,0.0863 -0.0863,0.12737 -0.0229,0.0287 -0.0423,0.0552 -0.0617,0.0861 -0.0219,0.0339 -0.0482,0.0641 -0.0735,0.0965 -0.0416,0.0559 -0.0539,0.10564 -0.11649,0.14301 -0.0127,0.009 -0.0236,0.0173 -0.0346,0.0272 -0.0332,0.0282 -0.0712,0.0598 -0.0935,0.0972 -0.0332,0.0525 -0.0339,0.12369 -0.0446,0.18185 -0.0116,0.0539 -0.0561,0.0885 -0.0569,0.14523 -0.004,0.0604 -0.0113,0.12939 0.0254,0.17909 0.0208,0.028 0.0303,0.0561 0.0475,0.0869 0.012,0.0232 0.031,0.0388 0.0401,0.0641 0.0166,0.0497 0.0138,0.0848 0.0757,0.0841 0.0604,-0.001 0.12072,0 0.18108,0 0.0705,7e-4 0.13734,-0.0329 0.2056,-0.0208 0.0433,0.007 0.0747,-0.007 0.0965,-0.0453 0.0215,-0.0403 0.025,-0.0827 0.0525,-0.12075 0.0325,-0.046 0.0604,-0.0841 0.11208,-0.10933 0.0698,-0.0339 0.13236,-0.0188 0.20486,-0.0166 0.0784,0.004 0.15536,-0.0381 0.18923,-0.11006 0.018,-0.0374 0.0258,-0.0769 0.0554,-0.10859 0.0321,-0.0359 0.0661,-0.0676 0.0985,-0.10418 0.0416,-0.0502 0.0784,-0.0992 0.13804,-0.1316 0.0503,-0.0265 0.10915,-0.0532 0.1524,-0.0906 0.0293,-0.0252 0.0626,-0.0453 0.0725,0.0101 0.0159,-0.0195 0.0275,-0.0762 0.0519,-0.0814 0.0123,0.0282 0,0.072 -0.004,0.0992 -0.01,0.0425 -0.007,0.0777 -0.0296,0.11798 -0.018,0.0302 -0.0418,0.0574 -0.0604,0.0884 -0.0438,0.0742 -0.0791,0.15387 -0.12146,0.22878 -0.0116,0.0215 -0.0236,0.0445 -0.0286,0.0683 -0.004,0.0107 0,0.0208 -0.004,0.0309 -0.004,0.0201 -0.0166,0.0388 -0.0215,0.0596 -0.004,0.0173 -0.0194,0.0482 -0.0173,0.0653 0.0145,0 0.0229,-0.0121 0.0332,-0.0223 0.0251,-0.023 0.0554,-0.0388 0.0819,-0.0604 0.0159,-0.0136 0.0318,-0.028 0.0503,-0.0366 0.0131,-0.006 0.0361,-0.0208 0.0489,-0.0208 0.005,0.01 -0.004,0.0144 -0.005,0.0223 -0.007,0.0201 -0.0102,0.0416 -0.0187,0.0611 -0.018,0.0351 -0.018,0.0705 -0.025,0.10933 -0.006,0.0329 -0.0113,0.0653 -0.0166,0.0977 -0.005,0.0302 -0.0166,0.0589 -0.0173,0.0898 0,0.0208 -0.006,0.0339 0.0173,0.0353 0.0208,0.001 0.031,-0.0123 0.046,-0.0252 0.0243,-0.0188 0.051,-0.0346 0.074,-0.0554 0.0152,-0.0129 0.0325,-0.0381 0.0525,-0.0445 0.007,0.0158 0,0.0351 -0.006,0.0488 -0.0138,0.0309 -0.018,0.0611 -0.0275,0.0935 -0.008,0.0302 -0.0258,0.0591 -0.0416,0.0856 -0.0208,0.0359 -0.0359,0.0755 -0.0582,0.11081 -0.0166,0.0265 -0.0339,0.0502 -0.0468,0.0797 -0.013,0.0281 -0.0268,0.0547 -0.0447,0.0806 -0.0453,0.0604 -0.0876,0.12792 -0.11927,0.19694 -0.0173,0.0381 -0.031,0.0734 -0.0546,0.10786 -0.0222,0.0339 -0.0411,0.0676 -0.0597,0.10289 -0.0339,0.0624 -0.0712,0.12001 -0.12369,0.16823 -0.0268,0.0243 -0.0611,0.0388 -0.0883,0.0631 -0.0219,0.0188 -0.0383,0.044 -0.0519,0.0698 -0.0187,0.0339 -0.0328,0.0712 -0.0517,0.10638 -0.0194,0.0361 -0.041,0.0705 -0.0569,0.1086 -0.0272,0.0655 -0.0868,0.11006 -0.13804,0.15608 -0.025,0.0237 -0.051,0.0475 -0.0775,0.0705 -0.0339,0.028 -0.0698,0.0517 -0.10216,0.0819 -0.0517,0.051 -0.10711,0.095 -0.15314,0.15166 -0.0381,0.0453 -0.0648,0.0942 -0.11797,0.12369 -0.0272,0.0151 -0.0582,0.0237 -0.0863,0.0388 -0.0359,0.0188 -0.0653,0.0411 -0.0963,0.0668 -0.0152,0.0123 -0.0272,0.0296 -0.0423,0.0418 -0.0116,0.009 -0.0226,0.009 -0.0258,0.0237 -0.004,0.0151 0.004,0.0186 -0.008,0.0324 -0.006,0.006 -0.0152,0.0107 -0.0222,0.0158 0.018,0.0107 0.046,-0.0109 0.0646,-0.0138 0.0361,-0.005 0.072,0 0.10788,-0.007 0.0395,-0.007 0.0712,-0.0136 0.10858,-0.0302 0.0243,-0.0114 0.046,-0.025 0.0697,-0.0374 0.0279,-0.0144 0.0576,-0.0208 0.0827,-0.0374 0.0475,-0.0317 0.092,-0.0648 0.14171,-0.0913 0.046,-0.026 0.0948,-0.0331 0.14302,-0.0532 0.049,-0.0195 0.0935,-0.0517 0.13307,-0.0863 0.0286,-0.0252 0.0582,-0.0482 0.0884,-0.0733 0.0282,-0.023 0.0504,-0.0532 0.0762,-0.0784 0.044,-0.046 0.0999,-0.0747 0.14594,-0.11872 0.0275,-0.0258 0.0482,-0.0574 0.0742,-0.0834 0.03,-0.0309 0.0618,-0.0596 0.0948,-0.0848 0.0591,-0.0453 0.10714,-0.10344 0.15462,-0.16105 0.0275,-0.0329 0.0589,-0.0618 0.0892,-0.0928 0.0346,-0.0374 0.0567,-0.0826 0.0876,-0.12368 0.11208,-0.14872 0.23079,-0.29689 0.36167,-0.43125 0.0547,-0.0569 0.11504,-0.1108 0.16528,-0.17191 0.0296,-0.0344 0.0504,-0.0755 0.0705,-0.11578 0.0123,-0.025 0.006,-0.0547 0.0152,-0.0819 0.008,-0.0252 0.0116,-0.0504 0.018,-0.0755 0.006,-0.0237 0.005,-0.0468 0.0102,-0.0705 0.004,-0.0173 0.006,-0.0309 0.006,-0.049 0,-0.01 0,-0.0223 0.004,-0.0322 0.0194,0.005 0.0314,0.0438 0.0408,0.0589 0.018,0.0287 0.0396,0.0547 0.0554,0.0834 0.0102,0.0193 0.018,0.0446 0.0268,0.0648 0.009,0.0186 0.008,0.0359 0.008,0.0552 0,0.0289 0,0.0569 0,0.0848 0,0.0123 -0.004,0.0316 0,0.0425 0.0166,-0.0237 0.0138,-0.0626 0.0243,-0.0893 0.0581,-0.13436 0.0826,-0.30112 0.0286,-0.44064 -0.0138,-0.0353 -0.0325,-0.072 -0.0604,-0.0977 -0.0187,-0.0173 -0.0423,-0.0267 -0.0604,-0.0447 -0.0272,-0.0272 -0.0388,-0.0653 -0.0582,-0.0992 -0.0187,-0.0316 -0.046,-0.0604 -0.0604,-0.0963 -0.0403,-0.097 -0.0685,-0.19989 -0.0821,-0.30407 -0.01,-0.0777 -0.0236,-0.14467 -0.0697,-0.20854 -0.0215,-0.0309 -0.0589,-0.0339 -0.0898,-0.0519 -0.0317,-0.0186 -0.049,-0.0567 -0.0641,-0.0884 -0.0272,-0.0539 -0.0286,-0.11577 -0.0502,-0.17191 -0.0208,-0.0532 -0.0727,-0.0928 -0.0871,-0.14872 -0.01,-0.0374 0.008,-0.0705 0.01,-0.10786 0,-0.0203 -0.004,-0.0366 -0.0131,-0.0554 -0.0453,-0.0791 -0.0992,0.0411 -0.15755,0.009 -0.0166,-0.009 -0.0194,-0.0317 -0.0381,-0.0396 -0.0229,-0.009 -0.0346,-7e-4 -0.0525,0.009 -0.0416,0.0223 -0.0799,0.051 -0.10343,0.0913 -0.0539,0.0928 -0.15187,0.1524 -0.21149,0.24295 -0.0597,0.0885 -0.15462,0.15903 -0.23872,0.22087 -0.0481,0.0344 -0.0941,0.0725 -0.14302,0.10418 -0.0359,0.0223 -0.0791,0.0359 -0.11356,0.0618 -0.0138,0.0109 -0.0187,0.0215 -0.0289,0.0339 -0.0366,0.0466 -0.0926,0.0861 -0.14651,0.11209 -0.0222,0.0109 -0.0598,0.0208 -0.072,-0.004 -0.0208,-0.0401 0.0272,-0.10417 0.0475,-0.13215 0.0532,-0.0769 0.11652,-0.13676 0.17392,-0.20854 0.0482,-0.0596 0.0626,-0.13804 0.10216,-0.20209 0.0328,-0.0554 0.0747,-0.0948 0.0883,-0.15958 0.0317,-0.15608 0.072,-0.31566 0.15829,-0.45002 0.0495,-0.0784 0.10566,-0.1524 0.15445,-0.23081 0.0116,-0.0195 0.0275,-0.0525 0.0519,-0.0583 0.0236,-0.004 0.0194,0.009 0.0396,-0.005 0.0159,-0.0101 0.0311,-0.069 0.0386,-0.0856 0.01,-0.0201 0.0187,-0.0403 0.0275,-0.0611 0.0215,-0.0503 0.0423,-0.10142 0.0554,-0.15535 0.005,-0.023 0.01,-0.0409 0.01,-0.0639 0,-0.0223 0.0102,-0.0453 -0.0159,-0.0512 -0.0201,-0.004 -0.0488,0 -0.0683,0.003 -0.0162,0.003 -0.0279,0.0101 -0.0438,-10e-4 -0.008,-0.006 -0.008,-0.0166 -0.0152,-0.0237 -0.0145,-0.0158 -0.0388,-0.009 -0.0554,-0.002 -0.0173,0.006 -0.0272,0.0186 -0.0416,0.0309 -0.0289,0.0236 -0.0618,0.0438 -0.0863,0.0718 -0.043,0.0497 -0.0834,0.10859 -0.11648,0.16547 -0.0222,0.0374 -0.0303,0.0747 -0.0396,0.11503 -0.004,0.0129 -0.008,0.0193 -0.008,0.0329 -0.004,0.021 -0.004,0.0361 0.0325,-0.0503"
       style="fill:#21201d;fill-opacity:1;fill-rule:nonzero;stroke:none;stroke-width:0.184057"
       id="path522" />
    <path
       d="m 105.96085,149.6412 c -0.004,0.0158 -0.007,0.0315 -0.0137,0.0453 0,0.005 0.0618,0.004 0.0675,0.003 0.0482,-0.009 0.0915,-0.0322 0.14101,-0.028 0.0286,0.001 0.0524,0.0144 0.0806,0.0208 0.0162,0.004 0.0328,0.009 0.0502,0.005 0.0279,-0.005 0.049,-0.026 0.0697,-0.0433 0.0683,-0.056 0.15536,-0.0849 0.23008,-0.1316 0.0324,-0.0208 0.0547,-0.0552 0.0898,-0.0725 0.031,-0.0158 0.0561,-0.007 0.0893,-0.0136 0.0401,-0.009 0.0639,-0.0418 0.10122,-0.0584 0.0425,-0.0178 0.0913,-0.0165 0.13232,-0.0381 0.0453,-0.0215 0.0748,-0.0661 0.1215,-0.0863 0.0683,-0.0295 0.14743,-0.0596 0.2214,-0.0718 0.0641,-0.0109 0.12019,0.008 0.16694,0.0547 0.0328,0.0322 0.0661,0.074 0.0827,0.11927 0.0208,0.0532 0.0236,0.1143 0.0475,0.16602 0.007,0.0138 0.0169,0.0267 0.025,0.0396 0.0131,0.0195 0.0201,0.0388 0.0293,0.0604 0.0131,0.0353 0.0282,0.072 0.0289,0.10933 0,0.0438 0,0.0893 0,0.13308 0,0.0136 0.008,0.0712 0,0.0819 -0.0166,0.0215 -0.0381,-0.0129 -0.0453,-0.0258 -0.0117,-0.0217 -0.0109,-0.044 -0.0236,-0.0633 -0.0138,-0.0195 -0.0222,-0.041 -0.0388,-0.0583 -0.0152,-0.0151 -0.0152,-0.0337 -0.0286,-0.0488 -0.0282,-0.0302 -0.0268,0.0223 -0.0317,0.0423 -0.0116,0.0547 -0.0275,0.0985 -0.0532,0.1489 -0.0261,0.0539 -0.0296,0.12074 -0.0683,0.16749 -0.0368,0.0431 -0.0591,0.0957 -0.0943,0.14099 -0.0166,0.0208 -0.0286,0.0337 -0.0381,0.0596 -0.0109,0.0265 -0.0279,0.0445 -0.0425,0.069 -0.0339,0.0582 -0.0604,0.11651 -0.0992,0.171 -0.0279,0.0396 -0.0547,0.0784 -0.0819,0.11724 -0.0431,0.0596 -0.0883,0.11651 -0.13158,0.17614 -0.0676,0.0928 -0.13512,0.18553 -0.2056,0.27683 -0.0318,0.041 -0.0596,0.0826 -0.0942,0.12221 -0.0321,0.0353 -0.069,0.0633 -0.10417,0.0965 -0.0819,0.0769 -0.17191,0.14154 -0.26744,0.19915 -0.0446,0.0265 -0.0878,0.0552 -0.13159,0.0804 -0.0438,0.026 -0.0898,0.0433 -0.13381,0.0668 -0.0473,0.0252 -0.0913,0.0591 -0.14157,0.0799 -0.0433,0.018 -0.0806,0.0346 -0.12072,0.0596 -0.0403,0.0252 -0.0821,0.0418 -0.12442,0.0618 -0.0525,0.0252 -0.0992,0.0561 -0.14891,0.0863 -0.0374,0.023 -0.0712,0.0503 -0.10989,0.072 -0.0318,0.0164 -0.0598,0.0243 -0.0927,0.0366 -0.0662,0.0223 -0.12664,0.0539 -0.19346,0.0755 -0.0618,0.0188 -0.12368,0.0359 -0.18478,0.0532 -0.0286,0.008 -0.0582,0.007 -0.0856,0.0136 -0.0187,0.004 -0.0396,0.0195 -0.0574,0.0136 -0.004,-0.0164 0.0272,-0.0366 0.0374,-0.0473 0.0265,-0.0267 0.0525,-0.0598 0.0856,-0.0791 0.0401,-0.0237 0.0725,-0.0576 0.10841,-0.0856 0.0411,-0.0324 0.0863,-0.0554 0.12813,-0.0863 0.0325,-0.025 0.0618,-0.0532 0.0941,-0.0797 0.0236,-0.0195 0.0475,-0.0274 0.0749,-0.0388 0.0346,-0.0151 0.0661,-0.0346 0.0948,-0.0589 0.0705,-0.0591 0.15388,-0.0907 0.22934,-0.14247 0.031,-0.0208 0.0626,-0.0381 0.0942,-0.0582 0.0332,-0.0202 0.0604,-0.049 0.0913,-0.0705 0.049,-0.0339 0.1064,-0.0504 0.15113,-0.0863 0.0346,-0.0272 0.0661,-0.0582 0.0977,-0.0884 0.0639,-0.0604 0.13014,-0.11504 0.18331,-0.18553 0.0445,-0.0583 0.0856,-0.11946 0.12939,-0.17835 0.0381,-0.0503 0.0884,-0.0977 0.11282,-0.15609 0.0116,-0.0302 0.0194,-0.0611 0.0339,-0.0898 0.018,-0.0324 0.0374,-0.064 0.0554,-0.0955 0.012,-0.0245 0.0272,-0.0475 0.0401,-0.0727 0.0109,-0.0201 0.0145,-0.0423 0.0236,-0.0626 0.0222,-0.0475 0.0539,-0.0999 0.0834,-0.14301 0.0123,-0.0188 0.0268,-0.0195 0.0388,-0.0346 0.0102,-0.0129 0.008,-0.0315 0.0201,-0.0423 0.0145,-0.0144 0.0325,-0.0121 0.0446,-0.0309 0.012,-0.018 0.0109,-0.0396 0.0236,-0.0576 0.0173,-0.0287 0.0475,-0.051 0.0661,-0.0804 0.0261,-0.0411 0.0626,-0.0799 0.0848,-0.12369 0.007,-0.0166 0.0576,-0.13583 0.0254,-0.13878 -0.0261,0.0223 -0.0339,0.0554 -0.0611,0.0769 -0.0173,0.0129 -0.0418,0.0173 -0.0596,0.0339 -0.018,0.0158 -0.0324,0.0316 -0.0547,0.0416 -0.0318,0.0144 -0.0611,0.009 -0.0942,0.0138 -0.10788,0.0136 -0.13438,0.1027 -0.18408,0.18258 -0.0194,0.0316 -0.0574,0.0631 -0.0574,0.10492 0.0162,-0.0252 0.0201,-0.0547 0.0162,-0.0834 0,-0.0136 -0.009,-0.0223 -0.012,-0.0324 0,-0.0129 0,-0.0265 0,-0.0403 -0.0127,-0.0683 -0.0928,-0.0747 -0.14873,-0.0812 -0.10583,-0.0121 -0.20704,0.0223 -0.31143,0.0366 -0.0159,0.002 -0.0325,0.002 -0.0495,10e-4 -0.0655,-10e-4 -0.10785,-0.002 -0.16768,0.0302 -0.0847,0.0467 -0.15441,-0.0381 -0.23576,-0.0438 -0.0639,-0.005 -0.0913,-0.0381 -0.12721,-0.0849 -0.0359,-0.0475 -0.0293,-0.0663 -0.0138,-0.12018 0.0229,-0.074 0.0849,-0.13805 0.10125,-0.21775 0.008,-0.0381 0.008,-0.0762 0.013,-0.11577 0.004,-0.0201 0.01,-0.0396 0.018,-0.0582 0.0116,-0.0267 0.031,-0.046 0.0418,-0.0749 0.008,-0.0243 0.0102,-0.051 0.0208,-0.0762 0.006,-0.0129 0.0138,-0.028 0.0201,-0.0409 0.0127,-0.023 0.0286,-0.044 0.0446,-0.0648 0.051,-0.0661 0.10196,-0.13381 0.1754,-0.17614 0.0366,-0.0215 0.0683,-0.0438 0.1027,-0.0676 0.046,-0.0309 0.0957,-0.0561 0.13232,-0.095 -0.0113,0.026 -0.008,0.0504 -0.008,0.0777 0,0.0223 0,0.0438 -0.004,0.0661 0.004,0.0151 0.0106,0.0203 0.0264,0.0151 0.0131,-0.002 0.0229,0.001 0.031,0.0116 0.004,0.0188 0.004,0.0374 0.004,0.0554 0,0.0468 -0.004,0.092 -0.0152,0.13804 -0.0222,0.079 -0.0655,0.15535 -0.10069,0.23007 -0.025,0.0525 -0.0524,0.10565 -0.0734,0.15958 -0.004,0.009 -0.006,0.0173 -0.009,0.026"
       style="fill:#21201d;fill-opacity:1;fill-rule:nonzero;stroke:none;stroke-width:0.184057"
       id="path524" />
    <path
       d="m 103.10522,146.64234 c -0.0418,-0.004 -0.10138,0.0977 -0.11945,0.12424 -0.048,0.0769 -0.10047,0.15314 -0.14725,0.23228 -0.11722,0.19842 -0.18478,0.42499 -0.24881,0.64568 -0.0468,0.16455 -0.0878,0.3256 -0.11007,0.49603 -0.0145,0.11302 -0.0303,0.22584 -0.0488,0.3372 -0.0145,0.0885 -0.0131,0.18203 -0.0194,0.27112 0,0.0215 0,0.0431 -0.004,0.0641 -0.004,0.0258 -0.0138,0.0394 -0.0194,0.0639 -0.0258,0.10934 0.0243,0.2172 0.0208,0.32505 -0.004,0.0675 0.0265,0.13013 0.0286,0.19547 0,0.0512 -0.0546,0.0583 -0.0913,0.0368 -0.0906,-0.0561 -0.14817,-0.18773 -0.19566,-0.27976 -0.0215,-0.0423 -0.046,-0.0819 -0.048,-0.13087 -0.005,-0.0769 0.013,-0.15663 0.0152,-0.23357 0.006,-0.16326 0,-0.32578 0.0155,-0.48904 0.0109,-0.10859 0.0648,-0.18756 0.118,-0.27885 0.0561,-0.0957 0.097,-0.18921 0.11575,-0.30057 0.01,-0.0641 0.0102,-0.1143 -0.0159,-0.17117 -0.0346,-0.0762 -0.0569,-0.11135 -0.0353,-0.19694 0.0187,-0.0769 0.0394,-0.1524 0.0883,-0.21351 0.0569,-0.072 0.13512,-0.1259 0.20486,-0.1813 0.0698,-0.0559 0.14175,-0.11779 0.19639,-0.1905 0.0286,-0.0381 0.0517,-0.0856 0.0769,-0.12644 0.0215,-0.0316 0.0353,-0.0648 0.0517,-0.0985 0.0201,-0.041 0.0268,-0.0425 0.0633,-0.0534 0.0106,-0.003 0.0311,-0.0164 0.0409,-0.0114 0.007,0.003 0.0152,0.0352 0.0187,0.0438 0.008,0.0203 0.0173,0.041 0.0208,0.0633 0.008,0.0547 -0.0201,0.0819 0.0268,0.0569"
       style="fill:#21201d;fill-opacity:1;fill-rule:nonzero;stroke:none;stroke-width:0.184057"
       id="path526" />
    <path
       d="m 102.16048,146.72425 c -0.0668,0.16602 -0.1259,0.3394 -0.19843,0.50321 -0.0489,0.10933 -0.11226,0.21149 -0.15882,0.3221 -0.0907,0.21296 -0.16898,0.43641 -0.20285,0.66445 -0.0268,0.16897 -0.0359,0.33351 -0.0359,0.50395 0,0.0863 0.004,0.17191 0,0.25805 0,0.0777 -0.0152,0.15535 -0.0159,0.23449 0,0.12719 0.0374,0.21995 0.0913,0.33204 0.0524,0.10657 0.0883,0.22014 0.14594,0.32284 0.0258,0.0453 0.0517,0.0828 0.0705,0.13087 0.009,0.0237 0.0169,0.0497 0.0318,0.072 0.01,0.0158 0.0208,0.028 0.0293,0.046 0.008,0.0186 0.008,0.0359 0.025,0.0495 0,-0.025 0.004,-0.051 0,-0.0747 -0.0159,-0.10565 -0.0633,-0.20633 -0.0871,-0.30903 -0.0332,-0.14246 -0.0604,-0.284 -0.0898,-0.4272 -0.0187,-0.0942 -0.046,-0.1905 -0.0532,-0.2875 -0.005,-0.0633 0,-0.12663 0,-0.1905 0,-0.12589 -0.004,-0.24958 0.0159,-0.37401 0.0208,-0.12074 0.0705,-0.22639 0.12866,-0.33277 0.0653,-0.11651 0.11578,-0.23946 0.18976,-0.35155 0.0792,-0.12019 0.0957,-0.2459 0.1294,-0.38119 0.0324,-0.12939 0.0784,-0.24295 0.0749,-0.37805 -0.004,-0.0561 -0.004,-0.11228 0.0113,-0.16694 0.012,-0.0409 0.0353,-0.0769 0.0525,-0.11504 0.0173,-0.0396 0.0194,-0.0869 0.0403,-0.12424 0.0166,-0.0296 0.0279,-0.0361 0.0261,-0.072 0,-0.0302 -0.006,-0.051 -0.0361,-0.0589 -0.0359,-0.008 -0.0604,0.008 -0.0841,0.0322 -0.0913,0.0942 -0.0985,0.23596 -0.0977,0.17191"
       style="fill:#21201d;fill-opacity:1;fill-rule:nonzero;stroke:none;stroke-width:0.184057"
       id="path528" />
  </g>
</svg>
