<?xml version="1.0" encoding="UTF-8" standalone="no"?>
<!-- Created with Inkscape (http://www.inkscape.org/) -->

<svg
   width="6.6644402mm"
   height="5.9707236mm"
   viewBox="0 0 6.6644402 5.9707236"
   version="1.1"
   id="svg2170"
   inkscape:version="1.1.2 (0a00cf5339, 2022-02-04)"
   sodipodi:docname="c1.svg"
   xmlns:inkscape="http://www.inkscape.org/namespaces/inkscape"
   xmlns:sodipodi="http://sodipodi.sourceforge.net/DTD/sodipodi-0.dtd"
   xmlns="http://www.w3.org/2000/svg"
   xmlns:svg="http://www.w3.org/2000/svg">
  <sodipodi:namedview
     id="namedview2172"
     pagecolor="#ffffff"
     bordercolor="#666666"
     borderopacity="1.0"
     inkscape:pageshadow="2"
     inkscape:pageopacity="0.0"
     inkscape:pagecheckerboard="0"
     inkscape:document-units="mm"
     showgrid="false"
     inkscape:zoom="0.64052329"
     inkscape:cx="-387.18342"
     inkscape:cy="809.49438"
     inkscape:window-width="2560"
     inkscape:window-height="1376"
     inkscape:window-x="0"
     inkscape:window-y="0"
     inkscape:window-maximized="1"
     inkscape:current-layer="layer1" />
  <defs
     id="defs2167" />
  <g
     inkscape:label="Layer 1"
     inkscape:groupmode="layer"
     id="layer1"
     transform="translate(-207.33525,65.772573)">
    <path
       d="m 210.34758,-64.473888 c -0.008,0.02724 -0.0359,0.05964 -0.051,0.08559 -0.0186,0.03221 -0.0438,0.0624 -0.0611,0.09626 -0.018,0.0346 -0.0223,0.0762 -0.0272,0.115037 -0.008,0.05098 0.003,0.08559 0.0179,0.135098 0.0203,0.06773 0.0381,0.148167 0.0871,0.203568 0.0576,0.0646 0.17393,0.02301 0.24884,0.03387 0.0287,0.0042 0.0525,0.01859 0.0804,0.02503 0.0317,0.0079 0.069,0.0029 0.1,0.0029 0.0826,-7.37e-4 0.17908,0.01436 0.26025,-7.37e-4 0.0906,-0.01656 0.12792,-0.12792 0.14964,-0.205593 0.0272,-0.09774 0.0352,-0.194181 -0.0138,-0.28621 -0.0186,-0.03516 -0.0445,-0.06608 -0.0653,-0.10068 -0.026,-0.04307 -0.0418,-0.09553 -0.0819,-0.128656 -0.0841,-0.06681 -0.17982,-0.103625 -0.27332,-0.154609 -0.0431,-0.02301 -0.1178,-0.03166 -0.16749,-0.0173 -0.0411,0.01159 -0.0698,0.04822 -0.0985,0.07767 -0.0302,0.03019 -0.0604,0.07197 -0.0928,0.09994 -0.0101,0.0086 -0.0121,0.01583 -0.0116,0.01877"
       style="fill:#21201d;fill-opacity:1;fill-rule:nonzero;stroke:none;stroke-width:0.184057"
       id="path560" />
    <path
       d="m 210.41881,-63.421261 v 1.092752 c 0,0.04031 -7e-4,0.07988 0,0.120006 0.001,0.06902 -0.0165,0.129393 -0.0258,0.197862 -0.009,0.05319 -0.023,0.174671 0.0243,0.212771 0.026,0.02006 0.0576,0.02227 0.0836,0.04381 0.0236,0.02025 0.0438,0.04528 0.0631,0.06902 0.0418,0.05043 0.0893,0.07399 0.14963,0.09497 0.0502,0.01785 0.0733,0.05172 0.12866,0.04675 0.0668,-0.161787 0.0942,-0.350262 0.12516,-0.521252 0.0193,-0.110066 0.006,-0.220869 -0.0138,-0.327255 -0.0193,-0.097 -0.0107,-0.203384 -0.009,-0.302591 0.001,-0.09994 0.0359,-0.191236 0.0423,-0.290443 0.004,-0.05835 -0.003,-0.110803 -0.0136,-0.167677 -0.0188,-0.103441 -0.0525,-0.208354 -0.10288,-0.301855 -0.0136,-0.02522 -0.0316,-0.04675 -0.0495,-0.06976 -0.0203,-0.02595 -0.0282,-0.02522 -0.0604,-0.02522 -0.0388,7.37e-4 -0.0705,0.0072 -0.10859,0.01877 -0.0195,0.005 -0.0482,0.01785 -0.0655,0.0208 -0.0136,0.0029 -0.028,0 -0.0401,0.0022 -0.008,0.0015 -0.0116,0.01141 -0.0165,0.01215 -0.0346,0.0079 -0.0361,0.0037 -0.0547,0.03736 -0.0237,0.04454 -0.041,0.06773 -0.0561,0.03681"
       style="fill:#21201d;fill-opacity:1;fill-rule:nonzero;stroke:none;stroke-width:0.184057"
       id="path562" />
    <path
       d="m 209.20588,-65.348899 c 0.026,0.0022 0.0561,0.02006 0.0813,0.02724 0.0344,0.01086 0.0683,0.02742 0.10345,0.03166 0.0519,0.0072 0.1281,-0.0416 0.11724,0.04104 -0.0121,0.09129 0.008,0.170438 -0.0267,0.255288 -0.0236,0.05816 -0.0337,0.120742 -0.0596,0.178905 -0.0309,0.06902 -0.0747,0.132337 -0.0992,0.204856 -0.0215,0.06258 -0.0287,0.128104 -0.0423,0.192709 -0.0123,0.06184 -0.005,0.124423 -0.0158,0.18553 -0.009,0.0497 -0.0353,0.09994 -0.0547,0.146694 -0.0351,0.08411 -0.10141,0.136571 -0.15387,0.207802 -0.0302,0.04178 -0.051,0.07915 -0.0891,0.115036 -0.0353,0.03442 -0.0618,0.07399 -0.0907,0.112827 -0.0351,0.04675 -0.0696,0.09277 -0.11136,0.132338 -0.0302,0.02871 -0.051,0.0727 -0.0819,0.09774 -0.0267,0.02098 -0.0447,0.02522 -0.0633,0.0554 -0.0331,0.0554 -0.0712,0.08706 -0.12,0.129393 -0.0539,0.04601 -0.0942,0.105649 -0.14743,0.1524 -0.0497,0.04399 -0.10289,0.07841 -0.14743,0.126632 -0.0403,0.04307 -0.0806,0.08264 -0.12792,0.117245 -0.067,0.04877 -0.14596,0.07473 -0.21424,0.120742 -0.0252,0.0173 -0.0418,0.02871 -0.0705,0.04012 -0.0339,0.01233 -0.0734,0.02246 -0.10436,0.04104 -0.0287,0.0173 -0.0503,0.02945 -0.0797,0.04178 -0.0165,0.0064 -0.0223,0.01068 -0.0366,0.01933 -0.0418,0.02521 -0.0685,0.0346 -0.10141,-0.0028 -0.0388,-0.04399 -0.0554,-0.103624 -0.0942,-0.146694 -0.0129,-0.0138 -0.0316,-0.02025 -0.0403,-0.03736 0.0418,-0.02522 0.0913,-0.0074 0.11725,-0.06111 0.0188,-0.03884 0.0201,-0.07123 0.0524,-0.104361 0.0762,-0.08043 0.17909,-0.134362 0.27756,-0.181113 0.041,-0.01951 0.0856,-0.02522 0.12718,-0.04325 0.0433,-0.01933 0.0749,-0.05025 0.11375,-0.07767 0.0236,-0.01712 0.0532,-0.02945 0.0733,-0.05098 0.0173,-0.01933 0.028,-0.04454 0.0431,-0.06387 0.0591,-0.07694 0.1316,-0.139516 0.18848,-0.220133 0.0502,-0.07178 0.10933,-0.139516 0.16105,-0.212035 0.0257,-0.03663 0.046,-0.07914 0.074,-0.113564 0.0267,-0.03387 0.0633,-0.05835 0.0885,-0.09203 0.0552,-0.06976 0.10785,-0.143197 0.14595,-0.222894 0.0186,-0.0381 0.023,-0.07988 0.0351,-0.119453 0.0129,-0.0416 0.0403,-0.07694 0.0482,-0.118534 0.023,-0.124423 0.0891,-0.239459 0.1,-0.366643 0.006,-0.05614 -0.006,-0.114484 -0.006,-0.171174 0,-0.03092 0,-0.06405 0.008,-0.09424 0.004,-0.01068 0.006,-0.0208 0.0123,-0.03019 0.023,-0.03166 0.0503,-0.06184 0.0718,-0.09994 0.0173,-0.03019 0.044,-0.06184 0.0561,-0.09497 -0.002,0.0052 0.0123,-0.03736 0.009,-0.03295 0.0116,-0.01159 0.0596,-0.01656 0.074,-0.01583"
       style="fill:#21201d;fill-opacity:1;fill-rule:nonzero;stroke:none;stroke-width:0.184057"
       id="path564" />
    <path
       d="m 212.13863,-65.359022 c -0.0339,0.0064 -0.0589,0.03534 -0.0928,0.04178 -0.0121,0.002 -0.028,-0.0029 -0.0396,7.37e-4 -0.0151,0.0042 -0.0173,0.002 -0.0258,0.01638 -0.0166,0.02595 -0.0245,0.08209 -0.0267,0.111539 -0.002,0.0381 0.004,0.0762 0,0.113564 -0.004,0.04454 -0.0144,0.08485 -0.0136,0.129393 7e-4,0.06405 10e-4,0.128104 0,0.191972 -7.1e-4,0.08485 0.0258,0.166941 0.0747,0.236515 0.023,0.03313 0.0475,0.06332 0.0655,0.09921 0.0215,0.04601 0.0359,0.09497 0.0596,0.139516 0.046,0.08632 0.0784,0.179824 0.12571,0.266148 0.0403,0.07326 0.09,0.150927 0.15111,0.209826 0.0151,0.01509 0.0322,0.02816 0.046,0.04454 0.0468,0.05761 0.0762,0.129576 0.12147,0.189211 0.0265,0.0099 0.0517,0.01933 0.0784,0.02945 0.0611,0.02595 0.0985,0.06681 0.14596,0.111355 0.0453,0.04325 0.0955,0.0762 0.12571,0.13381 0.0131,0.03239 0.0274,0.06405 0.041,0.09553 0.0121,0.02025 0.0265,0.03828 0.0431,0.05466 0.0123,0.02227 0.023,0.04399 0.0339,0.06552 0.0178,0.01933 0.0388,0.03295 0.0626,0.04233 0.023,0.01233 0.0445,0.02448 0.0631,0.04178 0.0497,0.04233 0.0893,0.08559 0.1316,0.132337 0.0173,0.01859 0.0361,0.03736 0.0524,0.05522 0.0203,0.02098 0.0376,0.04601 0.0591,0.06626 0.0237,0.02227 0.0559,0.02798 0.0747,0.05595 0.0215,0.03313 0.0324,0.06111 0.0661,0.0878 0.0302,0.02448 0.0418,0.04233 0.0848,0.04454 0.0425,0.0015 0.10712,0.01159 0.14669,-0.0028 0.046,-0.0173 0.0942,-0.06055 0.13731,-0.08485 0.021,-0.01159 0.0166,-0.0037 0.0237,-0.0289 0.009,-0.02798 0.0109,-0.06184 0.0158,-0.09056 0.006,-0.03589 0.026,-0.06755 0.0295,-0.102152 -0.0208,0.0015 -0.0309,0.02374 -0.0539,0.02448 -0.0309,7.37e-4 -0.0611,-0.02503 -0.0841,-0.0416 -0.10417,-0.07418 -0.22289,-0.13878 -0.28326,-0.254552 -0.0265,-0.0497 -0.0532,-0.09424 -0.092,-0.136571 -0.0618,-0.06976 -0.12792,-0.145222 -0.20062,-0.204305 -0.1084,-0.08687 -0.23007,-0.130865 -0.30258,-0.258785 -0.0282,-0.04896 -0.0482,-0.102152 -0.0755,-0.1524 -0.0339,-0.06332 -0.0777,-0.108594 -0.1281,-0.158842 -0.0574,-0.05761 -0.10786,-0.123687 -0.16234,-0.184794 -0.0433,-0.04822 -0.0878,-0.09718 -0.12369,-0.151112 -0.041,-0.06037 -0.0697,-0.124975 -0.0749,-0.198414 -0.004,-0.0624 -0.0114,-0.117061 -0.0294,-0.178904 -0.0193,-0.07049 -0.046,-0.138044 -0.0604,-0.209274 -0.0144,-0.06829 -0.0287,-0.135835 -0.0532,-0.200623 -0.023,-0.06332 -0.0309,-0.189028 -0.11725,-0.194182 -0.007,0 -0.0136,7.38e-4 -0.0201,0.0022"
       style="fill:#21201d;fill-opacity:1;fill-rule:nonzero;stroke:none;stroke-width:0.184057"
       id="path566" />
    <path
       d="m 208.05056,-65.306566 c 0.26247,0.0015 0.52419,-0.01288 0.78647,-0.01436 0.0618,-0.0042 0.12295,-0.002 0.1848,0.0057 0.0497,0.01233 0.0999,0.02522 0.14963,0.03884 0.10565,0.02098 0.21572,0.01086 0.3221,0.0116 0.14025,0.0015 0.27756,0.03166 0.4191,0.03166 0.1051,0 0.2078,-0.02595 0.31271,-0.02595 0.0534,0.0037 0.10657,0.01012 0.15902,0.0208 0.0388,0.0044 0.0769,0.0052 0.11578,0.0029 0.0208,7.37e-4 0.0401,0.01436 0.0589,0.01583 0.0237,0.0022 0.0453,-0.01288 0.0675,-0.01933 0.0425,-0.01307 0.0863,-0.01086 0.13013,-0.01086 0.14375,0 0.28547,0.0035 0.42646,0.0438 0.0775,0.02154 0.15884,0.01362 0.23927,0.01362 0.11577,0 0.23449,0.0094 0.34952,-0.002 0.0762,-0.0079 0.15167,-0.03019 0.22787,-0.04178 0.0928,-0.01436 0.18773,-0.0173 0.28031,-0.01436 0.049,7.37e-4 0.0907,0.01877 0.13602,0.03957 0.0272,0.01436 0.0539,0.02798 0.0812,0.0416 0.0282,0.0072 0.0561,0.0094 0.0841,0.0052 0.10786,0.0015 0.20854,0.04454 0.31492,0.04233 0.0366,0 0.0814,-0.0057 0.11798,0.0029 0.0396,0.0094 0.0769,0.02945 0.1178,0.03736 0.007,0.0015 0.0418,0.0087 0.0504,0.0037 0.0186,-0.01012 0.0114,-0.0289 0.0114,-0.0519 -7e-4,-0.07896 0,-0.158106 0,-0.237251 0,-0.0416 -0.002,-0.07896 0.006,-0.118533 0.007,-0.03092 0.009,-0.09571 -0.0171,-0.118717 -0.0158,0.0015 -0.0295,0.0087 -0.0403,0.02301 -0.0252,0.01656 -0.0517,0.02816 -0.0806,0.0346 -0.0631,0.01638 -0.12645,0.01288 -0.19124,0.01362 -0.17614,7.37e-4 -0.34934,-0.06184 -0.51904,-0.10933 -0.0848,-0.02301 -0.16528,-0.05816 -0.2516,-0.07767 -0.0906,-0.01933 -0.18111,-0.03736 -0.27388,-0.04601 -0.18847,-0.01712 -0.37179,0.0044 -0.55934,0.0052 -0.2229,0.0013 -0.44376,0.02374 -0.66647,0.02724 -0.14964,0.0022 -0.29633,0.0346 -0.44652,0.03019 -0.0591,-0.0022 -0.11651,-0.01933 -0.17412,-0.02724 -0.0834,-0.01086 -0.17246,-0.0044 -0.25584,-0.0037 -0.0742,0.0015 -0.14743,0.01436 -0.22013,0.02521 -0.0883,0.01289 -0.17614,0.04878 -0.26596,0.04878 -0.10712,0 -0.21203,0.02374 -0.31915,0.02742 -0.11228,0.0042 -0.22584,-7.37e-4 -0.33793,-7.37e-4 -0.0604,0 -0.12221,-0.0057 -0.18185,0.0029 -0.0237,0.0042 -0.0468,0.01362 -0.0705,0.01215 -0.0366,-0.0029 -0.0626,-0.03442 -0.0985,-0.04104 -0.0433,-0.0087 -0.0762,0.04675 -0.10068,0.08283 -0.0188,0.02798 -0.0346,0.05816 -0.0539,0.0854 -0.0109,0.01656 -0.0223,0.02246 -0.026,0.04252 -0.009,0.04528 0.005,0.07694 -0.0208,0.117981 -0.009,0.01436 -0.069,0.09056 0.0215,0.0243"
       style="fill:#21201d;fill-opacity:1;fill-rule:nonzero;stroke:none;stroke-width:0.184057"
       id="path568" />
    <path
       d="m 209.34981,-61.398096 c 0.0762,0.0035 0.15314,0.0064 0.23007,0.01785 0.071,0.01012 0.13584,0.03313 0.20909,0.03681 0.1905,0.0064 0.37327,-0.01656 0.56229,-0.02742 0.17541,-0.01068 0.3429,-0.07473 0.51831,-0.08688 0.11798,-0.0086 0.22951,0.03663 0.34584,0.0416 0.0814,0.0044 0.16105,-0.0042 0.24167,-0.01012 0.14374,-0.01067 0.27884,0.02743 0.42056,0.02743 0.0589,0 0.11651,-0.0116 0.17467,-0.01509 0.0366,-0.0022 0.0742,0.0022 0.1108,-0.0037 0.0906,-0.01362 0.16676,-0.03166 0.25879,-0.01933 0.0963,0.01362 0.17264,-0.0064 0.26467,-0.01877 0.0582,-0.0072 0.11559,-0.01509 0.17172,-0.03092 0.0381,-0.01141 0.0871,-0.02724 0.1259,-0.0087 0.0136,0.01233 0.0265,0.02595 0.0401,0.03884 0.018,0.0116 0.0388,0.01657 0.0613,0.0138 0.0545,0.002 0.0861,-0.0079 0.13289,0.0243 0.0267,0.0173 0.0445,0.0289 0.0777,0.03239 0.0158,0.0015 0.0418,-0.0079 0.0539,-0.0022 0.0344,0.0173 0.006,0.09994 0.003,0.129577 -0.004,0.02301 0.005,0.04877 -0.0166,0.05816 -0.0109,-0.0015 -0.0215,-0.0022 -0.0324,-0.0037 -0.0208,0.0022 -0.0396,0.01233 -0.0539,0.02963 -0.023,0.01933 -0.0453,0.04601 -0.0747,0.05669 -0.0324,0.01086 -0.0777,0.0015 -0.1108,0.0015 -0.0547,0 -0.10786,0.005 -0.16308,0.0042 -0.0267,0 -0.0591,0.0015 -0.0856,-0.0064 -0.0166,-0.005 -0.026,-0.01362 -0.044,-0.01362 -0.0223,-7.38e-4 -0.0517,0.01288 -0.0733,0.01656 -0.12662,0.02595 -0.25804,0.01288 -0.38541,0.01362 -0.16031,7.37e-4 -0.31565,-0.01362 -0.47523,-0.02651 -0.15958,-0.01233 -0.32136,0.005 -0.48167,-0.0052 -0.12222,-0.0079 -0.24296,-0.01583 -0.36517,-0.0099 -0.12884,0.0064 -0.25824,0.0079 -0.38689,0.01362 -0.0841,0.0035 -0.16399,0.0265 -0.2481,0.02798 -0.12001,0.0015 -0.23799,0.03239 -0.35652,0.04749 -0.0965,0.01215 -0.19271,0.0094 -0.28971,0.01012 -0.0655,0 -0.1281,-0.01804 -0.19271,-0.01657 -0.0727,0.002 -0.1373,0.03166 -0.20853,0.03019 -0.0856,-0.0015 -0.17191,0.005 -0.25676,-7.37e-4 -0.0913,-0.0057 -0.18681,-0.0324 -0.27664,-0.0497 -0.0554,-0.0099 -0.1108,-0.01859 -0.16546,-0.03092 -0.0554,-0.01362 -0.13234,-0.06313 -0.187,-0.03736 -0.0236,0.0116 -0.0272,0.02227 -0.056,0.01657 -0.0388,-0.0079 -0.0683,-0.01215 -0.10785,-0.01215 -0.0252,7.37e-4 -0.0359,-0.0044 -0.0589,-0.01086 -0.0296,-0.0087 -0.0677,-0.0057 -0.0979,-0.0035 -0.0359,0.002 -0.0683,0.01362 -0.10491,0.01509 -0.0438,0.002 -0.0784,-0.0059 -0.11927,-0.0138 -0.0237,-0.0035 -0.0361,0.0022 -0.0482,-0.02227 -0.004,-0.0092 -0.0109,-0.04086 -0.0131,-0.05098 -0.004,-0.03092 0.0166,-0.110067 0.0296,-0.139516 0.008,-0.0173 0.0223,-0.0381 0.0388,-0.04528 0.007,-0.0022 0.0201,0.0015 0.0287,-0.0015 0.0136,-0.0042 0.0252,-0.01933 0.0396,-0.02301 0.0272,-0.0094 0.0733,-0.0064 0.10123,-0.002 0.0309,0.005 0.0576,0.02153 0.0871,0.0265 0.0431,0.0072 0.0878,7.37e-4 0.1316,7.37e-4 0.0388,-7.37e-4 0.0727,0.01288 0.1108,0.01804 0.028,0.0035 0.0473,-0.0052 0.0725,-0.01436 0.0712,-0.02742 0.12939,-0.0029 0.20486,-0.0029 0.0331,-7.38e-4 0.0662,-7.38e-4 0.0992,-7.38e-4 0.0497,0 0.0979,-7.37e-4 0.14596,0 0.0683,7.38e-4 0.13602,-0.02227 0.20283,-0.0029 0.0777,0.02172 0.15884,0.01583 0.24019,0.02025"
       style="fill:#21201d;fill-opacity:1;fill-rule:nonzero;stroke:none;stroke-width:0.184057"
       id="path570" />
    <path
       d="m 208.29352,-60.528974 c -0.0121,0 -0.0243,0.0015 -0.0366,7.4e-4 -0.0201,-0.002 -0.0416,-0.01509 -0.0618,-0.01288 -0.0396,0.0037 -0.0488,0.04031 -0.0611,0.07399 -0.0166,0.04325 -0.0295,0.0878 -0.0337,0.133074 -0.004,0.04601 -0.0237,0.08835 -0.0237,0.135099 7e-4,0.04822 -0.004,0.08209 0.0329,0.116508 0.0447,0.03957 0.0907,0.08264 0.14025,0.1143 0.0648,0.04104 0.12663,0.03092 0.20062,0.03092 0.051,0 0.095,0 0.14375,-0.01141 0.0755,-0.01877 0.11356,-0.107858 0.14816,-0.167493 0.0331,-0.05761 0.0107,-0.09921 -0.003,-0.161051 -0.0121,-0.0554 -7.1e-4,-0.18056 -0.0698,-0.205777 -0.0488,-0.01712 -0.0948,-0.01859 -0.14006,-0.04675 -0.0353,-0.02153 -0.0769,-0.02356 -0.11228,-0.04454 -0.0173,-0.01067 -0.0287,-0.03589 -0.0468,-0.04307 -0.0201,-0.0094 -0.0582,-0.005 -0.079,-0.0037 -0.0353,0.0029 -0.1281,0.04601 0.002,0.09203"
       style="fill:#21201d;fill-opacity:1;fill-rule:nonzero;stroke:none;stroke-width:0.184057"
       id="path572" />
    <path
       d="m 209.63584,-60.774876 c -0.0639,0 -0.12369,-0.0013 -0.18535,0.01454 -0.0626,0.01436 -0.095,0.01859 -0.13951,0.06957 -0.0445,0.05043 -0.0863,0.104361 -0.12093,0.161787 -0.0322,0.05614 -0.0661,0.113012 -0.0782,0.178352 -0.0151,0.07915 0.003,0.104913 0.0782,0.130865 0.0677,0.02227 0.10068,0.05687 0.14743,0.107122 0.0282,0.03018 0.0641,0.06829 0.10565,0.07694 0.0663,0.01362 0.16547,0.0064 0.22216,-0.03092 0.11006,-0.07252 0.14742,-0.170437 0.16252,-0.296149 0.0136,-0.108594 0.004,-0.224366 -0.0631,-0.311426 -0.0238,-0.03092 -0.0346,-0.07399 -0.0705,-0.08687 -0.0223,-0.0087 -0.0762,-0.02816 -0.0583,-0.0138"
       style="fill:#21201d;fill-opacity:1;fill-rule:nonzero;stroke:none;stroke-width:0.184057"
       id="path574" />
    <path
       d="m 211.64187,-60.546828 c -0.0965,0.02227 -0.21498,0.03295 -0.28474,0.111355 -0.0425,0.04675 -0.0676,0.122214 -0.0913,0.181297 -0.0195,0.05025 -0.0468,0.117797 -0.0512,0.173198 -0.004,0.03166 -0.009,0.08908 0.002,0.118534 0.0136,0.0346 0.0633,0.05466 0.0977,0.06626 0.0296,0.0094 0.0504,0.01583 0.0712,0.03884 0.0109,0.01215 0.018,0.04031 0.0309,0.04822 0.0201,0.01362 0.0957,0.0042 0.1165,0.0028 0.0589,-0.0028 0.11577,-0.03589 0.1697,-0.05743 0.0596,-0.02448 0.0999,-0.05761 0.14302,-0.104361 0.069,-0.07473 0.0841,-0.18185 0.0814,-0.28032 -0.003,-0.08209 -0.049,-0.175407 -0.10657,-0.233754 -0.0315,-0.0324 -0.10123,-0.133626 -0.1789,-0.0646"
       style="fill:#21201d;fill-opacity:1;fill-rule:nonzero;stroke:none;stroke-width:0.184057"
       id="path576" />
    <path
       d="m 212.69504,-60.689289 c -0.002,0.02522 -0.0532,0.01436 -0.0711,0.0138 -0.041,0 -0.0913,-0.0037 -0.12939,0.01712 -0.0418,0.02301 -0.0663,0.07694 -0.0848,0.118718 -0.0296,0.06387 -0.0604,0.155344 -0.0705,0.226391 -0.0166,0.127368 0.10988,0.200623 0.20558,0.253079 0.0547,0.03019 0.11651,0.06976 0.18038,0.0497 0.0611,-0.02025 0.10786,-0.05835 0.17044,-0.07049 0.13601,-0.02522 0.26817,-0.06976 0.30553,-0.217925 0.0203,-0.08411 -0.0144,-0.121478 -0.0782,-0.174671 -0.0353,-0.03019 -0.0698,-0.06387 -0.10657,-0.09276 -0.0596,-0.04454 -0.15019,-0.03736 -0.20412,-0.08338 -0.0215,-0.01859 -0.0316,-0.02945 -0.0618,-0.03884 -0.0337,-0.01141 -0.0777,-0.05669 -0.0554,-7.41e-4"
       style="fill:#21201d;fill-opacity:1;fill-rule:nonzero;stroke:none;stroke-width:0.184057"
       id="path578" />
    <path
       d="m 210.56054,-60.689289 c -0.0151,0.02153 -0.0611,0.01878 -0.0849,0.02448 -0.0302,0.0064 -0.0576,0.01288 -0.0826,0.03387 -0.0547,0.04675 -0.10712,0.134362 -0.10067,0.20909 0.0819,0.0173 -0.0195,0.188475 -0.003,0.236698 0.0121,0.03442 0.0547,0.03736 0.0856,0.04951 0.0589,0.02227 0.092,0.06681 0.14375,0.09921 0.18847,0.117981 0.34731,-0.09847 0.39829,-0.258049 0.023,-0.07344 0.0433,-0.135835 0.0144,-0.21001 -0.0107,-0.02724 -0.0151,-0.06332 -0.0344,-0.08559 -0.0166,-0.02006 -0.0576,-0.03368 -0.0806,-0.04307 -0.0388,-0.0173 -0.0812,-0.01877 -0.11853,-0.04233 -0.0173,-0.01086 -0.0346,-0.02172 -0.0524,-0.0324 -0.0151,-0.0087 -0.0282,-0.01951 -0.0433,-0.02522 -0.0257,-0.0086 -0.0705,7.41e-4 -0.0416,0.04381"
       style="fill:#21201d;fill-opacity:1;fill-rule:nonzero;stroke:none;stroke-width:0.184057"
       id="path580" />
  </g>
</svg>
