<?xml version="1.0" encoding="UTF-8" standalone="no"?>
<!-- Created with Inkscape (http://www.inkscape.org/) -->

<svg
   width="6.1260009mm"
   height="6.1869912mm"
   viewBox="0 0 6.1260009 6.1869912"
   version="1.1"
   id="svg2371"
   inkscape:version="1.1.2 (0a00cf5339, 2022-02-04)"
   sodipodi:docname="c2.svg"
   xmlns:inkscape="http://www.inkscape.org/namespaces/inkscape"
   xmlns:sodipodi="http://sodipodi.sourceforge.net/DTD/sodipodi-0.dtd"
   xmlns="http://www.w3.org/2000/svg"
   xmlns:svg="http://www.w3.org/2000/svg">
  <sodipodi:namedview
     id="namedview2373"
     pagecolor="#ffffff"
     bordercolor="#666666"
     borderopacity="1.0"
     inkscape:pageshadow="2"
     inkscape:pageopacity="0.0"
     inkscape:pagecheckerboard="0"
     inkscape:document-units="mm"
     showgrid="false"
     inkscape:zoom="0.64052329"
     inkscape:cx="-1378.5603"
     inkscape:cy="706.45363"
     inkscape:window-width="2560"
     inkscape:window-height="1376"
     inkscape:window-x="0"
     inkscape:window-y="0"
     inkscape:window-maximized="1"
     inkscape:current-layer="layer1" />
  <defs
     id="defs2368" />
  <g
     inkscape:label="Layer 1"
     inkscape:groupmode="layer"
     id="layer1"
     transform="translate(-469.49332,38.617802)">
    <path
       d="m 471.77105,-35.664049 c -0.0279,0.04601 -0.0201,0.08982 -0.018,0.144486 0.004,0.04104 0.005,0.08264 0.008,0.123687 0.004,0.03663 0,0.07694 0.008,0.112827 0.004,0.0173 0.007,0.03092 0.007,0.0497 0,0.04749 0,0.09626 0,0.143749 v 0.283265 c 0,0.125896 0,0.251055 -0.008,0.37603 -0.009,0.10565 0,0.215716 0,0.322838 v 0.136571 c 0,0.05614 -0.004,0.111539 0.009,0.165468 0.007,0.02945 0.018,0.05669 0.018,0.08614 0,0.04252 0.01,0.08135 0.01,0.123687 0,0.04104 -0.0261,0.07694 -0.0325,0.118717 -0.008,0.05393 -0.0208,0.107858 -0.031,0.161051 -0.004,0.0265 0.006,0.05669 0.0116,0.08264 0.008,0.05043 0.004,0.09994 0.008,0.150375 0.004,0.03663 0.012,0.07473 0.0229,0.110619 0.006,0.02153 0.0201,0.04178 0.0208,0.06479 0,0.03442 0,0.06976 0,0.10344 0,0.02301 -0.0173,0.05614 -0.0116,0.07767 0.006,0.01804 0.0152,0.01215 0.031,0.0079 0.0497,-0.01436 0.10142,-0.0072 0.15257,-0.01509 0.0279,-0.0042 0.0525,-0.01877 0.0804,-0.02006 0.0173,-0.0015 0.0272,0.0035 0.0359,-0.01307 0.007,-0.01362 -0.004,-0.03368 0,-0.04877 0.004,-0.03736 0.0159,-0.06553 0,-0.102152 -0.0145,-0.0324 -0.012,-0.06553 -0.0229,-0.09921 -0.0159,-0.04896 -0.0113,-0.09994 -0.0106,-0.1524 0,-0.03884 -0.008,-0.07473 -0.01,-0.113564 0,-0.04528 -0.01,-0.08927 -0.01,-0.135282 0,-0.05816 -0.01,-0.113564 -0.01,-0.17099 0,-0.04325 -0.005,-0.0878 0.007,-0.129577 0.004,-0.01436 0.0113,-0.02724 0.0152,-0.04233 0.008,-0.03239 -0.004,-0.06902 -0.004,-0.102152 0,-0.0554 0,-0.112091 0,-0.168229 v -0.08338 c 0,-0.04233 0.01,-0.08264 0.008,-0.124423 0,-0.08485 -0.0102,-0.179641 0.007,-0.263019 0.0201,-0.0935 -0.03,-0.190684 0.004,-0.283265 0.0116,-0.03092 0.018,-0.04896 0.0166,-0.08135 0,-0.01933 -0.009,-0.03442 -0.01,-0.05393 -0.004,-0.02374 0,-0.04822 0,-0.07252 0,-0.04252 0.004,-0.08485 0.006,-0.128104 0.004,-0.03589 0,-0.0762 0.008,-0.111355 0.006,-0.0208 0.0187,-0.03736 0.0265,-0.05835 0.005,-0.01141 0.006,-0.02301 0.008,-0.03516 0.004,-0.05246 -0.006,-0.104913 -0.005,-0.158106 0,-0.03608 0.0243,-0.08412 -0.004,-0.117981 -0.0131,-0.0173 -0.0495,-0.0087 -0.0725,-0.0079 -0.0418,0.0015 -0.0784,7.37e-4 -0.11945,-0.0079 -0.0236,-0.0042 -0.048,-0.0087 -0.071,-0.01583 -0.0138,-0.0028 -0.0482,-0.02153 -0.0814,-0.03018"
       style="fill:#21201d;fill-opacity:1;fill-rule:nonzero;stroke:none;stroke-width:0.184057"
       id="path608" />
    <path
       d="m 473.05725,-32.573164 c -0.012,-0.0072 -0.0293,-0.0094 -0.0423,-0.01509 -0.0884,-0.03515 -0.17984,-0.05687 -0.26596,-0.097 -0.0935,-0.04454 -0.18408,-0.06773 -0.28769,-0.0705 -0.0574,-0.0022 -0.11504,0.0064 -0.17247,0.0042 -0.0525,-0.002 -0.10583,-0.0035 -0.159,-0.005 -0.0999,-0.0022 -0.22934,-0.02669 -0.32212,0.01878 -0.0374,0.01785 -0.0775,0.01785 -0.11853,0.02356 -0.0275,0.0037 -0.0532,0.0116 -0.0812,0.0072 -0.0208,-0.0028 -0.0383,-0.0099 -0.0591,-0.01067 -0.0208,-7.41e-4 -0.0423,-0.0015 -0.0633,-0.0022 -0.0236,0 -0.0517,-0.005 -0.0755,-0.0022 -0.0293,0.0037 -0.0539,0.0079 -0.0848,0.0074 -0.0854,-0.0015 -0.17395,0.01215 -0.25089,0.04877 -0.0251,0.0116 -0.0482,0.02595 -0.0725,0.03663 -0.0166,0.0072 -0.0339,0.0138 -0.0512,0.01877 -0.0668,0.02006 -0.13158,0.04951 -0.19914,0.06608 -0.0145,0.0037 -0.0396,0.0022 -0.0482,0.0138 -0.0145,0.01859 0.008,0.06313 0.0229,0.07546 0.0526,0.04013 0.14598,0.01859 0.20136,0.01859 0.13953,7.4e-4 0.2746,0.0037 0.41265,-0.01288 0.072,-0.0087 0.14248,-0.01362 0.21498,-0.01436 0.0755,-7.41e-4 0.14891,0.0079 0.22437,0.0086 0.1222,0.0028 0.24295,0.0079 0.36516,0.0087 0.10068,0 0.20651,0.0064 0.30645,-0.0029 0.0941,-0.0079 0.18902,0 0.28254,-0.0057 0.0891,-0.0064 0.17763,0 0.2667,-0.0044 0.0166,-7.41e-4 0.0332,-7.41e-4 0.049,-0.0064 0.0293,-0.01141 0.0696,-0.0589 0.043,-0.08761 -0.0138,-0.01381 -0.0425,-0.02816 -0.0618,-0.03092 0.008,0.0042 0.0187,0.0072 0.0265,0.01141"
       style="fill:#21201d;fill-opacity:1;fill-rule:nonzero;stroke:none;stroke-width:0.184057"
       id="path610" />
    <path
       d="m 474.64912,-37.795808 c -0.008,0.01436 -0.025,0.02871 -0.0381,0.04031 -0.0215,0.02006 -0.0497,0.04601 -0.0734,0.06387 -0.0272,0.02098 -0.0517,0.04473 -0.0789,0.06479 -0.0102,0.0087 -0.0166,0.0173 -0.0254,0.02669 -0.0102,0.0092 -0.0187,0.01436 -0.0325,0.02301 -0.0525,0.03442 -0.10989,0.06387 -0.16824,0.08908 -0.0698,0.03018 -0.13804,0.06405 -0.20412,0.102152 -0.0482,0.02724 -0.0935,0.06037 -0.14524,0.08117 -0.0611,0.02522 -0.115,0.0589 -0.17265,0.09056 -0.043,0.02448 -0.0769,0.05687 -0.11705,0.08485 -0.0892,0.0589 -0.17116,0.130865 -0.24588,0.207801 -0.031,0.03166 -0.0512,0.07123 -0.0863,0.09921 -0.0222,0.01804 -0.0482,0.02871 -0.0697,0.04749 -0.0236,0.02154 -0.0446,0.04454 -0.069,0.06405 -0.0834,0.0646 -0.17191,0.115772 -0.26024,0.171726 -0.0332,0.02154 -0.0705,0.03663 -0.0992,0.06258 -0.0145,0.01288 -0.0388,0.02871 -0.0497,0.04381 -0.009,0.01307 -0.0152,0.03092 -0.0215,0.04602 -0.008,0.01656 -0.0131,0.03534 -0.0243,0.04969 -0.0113,0.01509 -0.0265,0.01933 -0.0409,0.03019 -0.0346,0.02595 -0.0604,0.06405 -0.095,0.09203 -0.046,0.03516 -0.0898,0.06829 -0.13878,0.09921 -0.0243,0.01509 -0.041,0.03589 -0.0633,0.05319 -0.0138,0.01086 -0.031,0.01804 -0.0453,0.02798 -0.0328,0.02172 -0.0567,0.05393 -0.0913,0.07418 -0.0152,0.0086 -0.03,0.01436 -0.0431,0.02724 -0.0201,0.02227 -0.0381,0.0497 -0.0554,0.07417 -0.0243,0.03221 -0.0799,0.06111 -0.11854,0.06111 -0.018,-7.38e-4 -0.0383,0.0042 -0.0546,-0.0074 -0.009,-0.0042 -0.01,-0.01215 -0.0173,-0.01785 -0.008,-0.0057 -0.0187,-0.0079 -0.0279,-0.01362 -0.0194,-0.01233 -0.0317,-0.03534 -0.0519,-0.04822 -0.0251,-0.0173 -0.0525,-0.02595 -0.0755,-0.04896 -0.0495,-0.05098 -0.0871,-0.108594 -0.13236,-0.163811 -0.008,-0.01012 -0.0194,-0.01804 -0.0279,-0.02816 -0.0152,-0.01859 -0.0229,-0.04307 -0.0353,-0.06387 -0.0374,-0.06184 -0.0821,-0.1143 -0.13381,-0.165468 -0.051,-0.05172 -0.11282,-0.0935 -0.16824,-0.139516 -0.0346,-0.02798 -0.0676,-0.04951 -0.0957,-0.08485 -0.0408,-0.05246 -0.0834,-0.100495 -0.13804,-0.140804 -0.0438,-0.03239 -0.0868,-0.06902 -0.12495,-0.107122 -0.0286,-0.02816 -0.0611,-0.05117 -0.0878,-0.07988 -0.0215,-0.02374 -0.0396,-0.04951 -0.0618,-0.07326 -0.0359,-0.0381 -0.0777,-0.07123 -0.11928,-0.104361 -0.0863,-0.06829 -0.16471,-0.147982 -0.26818,-0.1905 -0.0332,-0.01362 -0.0576,-0.03442 -0.0885,-0.05319 -0.0222,-0.01362 -0.048,-0.02301 -0.069,-0.0381 -0.0293,-0.0208 -0.0502,-0.05025 -0.0789,-0.07197 -0.0275,-0.0208 -0.0591,-0.03589 -0.0856,-0.05816 -0.0453,-0.0381 -0.0697,-0.09774 -0.10785,-0.142277 -0.0445,-0.05117 -0.0806,-0.109331 -0.13307,-0.1524 0.0268,-7.37e-4 -0.0403,-0.01012 -0.0353,-0.04325 0.004,-0.0173 0.0254,-0.02871 0.0374,-0.03589 0.0166,-0.01012 0.0208,-0.0116 0.0431,-0.0116 0.0268,0 0.0505,-0.002 0.0762,0.0079 0.0339,0.0116 0.0611,0.03239 0.0957,0.03957 0.0208,0.0057 0.0396,0.0037 0.0604,0.0064 0.0131,0.0015 0.0194,0.0072 0.0317,0.01012 0.0159,0.0029 0.0366,-7.37e-4 0.0532,-7.37e-4 h 0.13311 c 0.069,0 0.14372,-0.0079 0.21276,0.0015 0.046,0.0072 0.0898,0.0079 0.13656,0.0072 0.0467,-7.37e-4 0.0913,0.0094 0.13804,0.0094 0.0618,0 0.12149,0.0042 0.18334,0.01141 0.0583,0.0057 0.11574,0.02301 0.17392,0.02522 0.0907,0.0035 0.18055,-0.0037 0.27111,0.0042 0.15536,0.0138 0.30921,-0.005 0.46383,-0.005 0.14227,7.38e-4 0.28398,0 0.42552,0 0.11945,0 0.24169,-0.01656 0.35743,-0.04675 0.12298,-0.03166 0.24444,-0.05669 0.37014,-0.06902 0.0841,-0.0072 0.16972,0.0072 0.25308,-0.0035 0.0418,-0.0059 0.0799,-0.0072 0.12224,-0.0072 0.0655,0 0.12809,0.0079 0.19268,0.0092 0.0633,0.0015 0.12517,0.0052 0.18849,0.0087 0.046,0.0029 0.0883,0.02025 0.13508,0.01877 0.0576,-0.0015 0.11282,0.0087 0.17046,0.0087 0.0438,0 0.0869,0 0.13011,0 0.0633,7.37e-4 0.12866,-0.0044 0.19124,-0.01086 0.046,-0.005 0.0906,-0.0173 0.1373,-0.01656 0.0317,7.37e-4 0.0597,-7.37e-4 0.0898,0.0094 0.0109,0.0035 0.0346,0.0042 0.0374,0.0173 0.004,0.0087 -0.0145,0.04307 -0.0194,0.05098 m 0.26102,-0.140988 c -0.006,-0.03147 -0.0254,-0.02006 -0.0497,-0.02301 -0.0293,-0.0028 -0.0552,-0.01859 -0.0841,-0.0243 -0.0222,-0.0052 -0.046,-0.0044 -0.069,-0.0044 -0.11705,-7.38e-4 -0.23432,-0.005 -0.35155,-0.0094 -0.22493,-0.0085 -0.45,-0.01933 -0.67511,-0.01362 -0.10989,0.0029 -0.21995,0.0022 -0.33002,0.0094 -0.0898,0.01012 -0.18038,0.0208 -0.26963,0.03092 -0.0854,0.0064 -0.17099,0.01086 -0.25657,0.01362 -0.27461,0.01436 -0.54998,0.02025 -0.8255,0.02669 -0.23855,0.0064 -0.47579,0.0087 -0.71304,-0.01307 -0.11945,-0.0099 -0.24091,-0.02651 -0.3604,-0.03019 -0.0868,-0.0028 -0.17317,0.0044 -0.25876,0.0059 -0.1143,0.0013 -0.2286,-0.0059 -0.34216,-0.0029 -0.12075,0.0029 -0.24094,0.0057 -0.36166,0.0087 -0.11138,0.0028 -0.22289,0.0057 -0.33352,0.0079 -0.0254,7.37e-4 -0.0396,-0.0022 -0.0626,-0.0072 -0.0293,-0.0059 -0.0512,-0.0037 -0.0584,0.02153 0,0.0029 -0.004,0.0057 -0.004,0.0094 -0.004,0.01933 -0.0145,0.03221 -0.0102,0.05393 0.004,0.01583 0.0138,0.02503 0.0208,0.03884 0.0208,0.03939 0.0123,0.08411 0.0411,0.120742 0.0254,0.0324 0.0589,0.04749 0.0863,0.07473 0.0201,0.01877 0.0339,0.04252 0.0545,0.06037 0.0361,0.03019 0.0569,0.07344 0.0863,0.10933 0.0388,0.04675 0.0863,0.07988 0.12866,0.121479 0.0236,0.02448 0.0453,0.04749 0.0727,0.06755 0.0187,0.0138 0.0403,0.03019 0.0569,0.04601 0.0321,0.03313 0.0675,0.06258 0.1064,0.08853 0.0668,0.04307 0.12717,0.09479 0.19473,0.135835 0.082,0.05098 0.13084,0.144485 0.19914,0.209274 0.0554,0.05246 0.092,0.120742 0.14393,0.176143 0.0525,0.05743 0.10637,0.104913 0.1717,0.149455 0.0799,0.05393 0.14891,0.1143 0.21721,0.182034 0.0324,0.03147 0.0554,0.06976 0.0841,0.104913 0.0265,0.03313 0.0554,0.06405 0.0827,0.09553 0.0618,0.06976 0.11207,0.145958 0.18055,0.21001 0.0517,0.04749 0.10343,0.09571 0.15441,0.144485 0.0339,0.03166 0.0841,0.06626 0.10862,0.105649 0.013,0.02098 0.0222,0.03019 0.0403,0.04822 0.0254,0.02448 0.0359,0.04454 0.074,0.04454 0.0289,0 0.0576,-0.005 0.0863,0 0.0251,0.0037 0.0445,0.0072 0.0705,0.0059 0.046,-0.0015 0.13084,0.01436 0.1682,-0.02025 0.0145,-0.01436 0.0222,-0.03295 0.0374,-0.04675 0.0229,-0.02227 0.0502,-0.04012 0.0762,-0.06111 0.10138,-0.08264 0.19635,-0.172462 0.29686,-0.25584 0.0871,-0.07049 0.18203,-0.145222 0.25675,-0.228784 0.0396,-0.04381 0.0777,-0.08908 0.12224,-0.126448 0.0791,-0.06829 0.14446,-0.145958 0.2293,-0.207801 0.0554,-0.04104 0.11579,-0.07252 0.17322,-0.110067 0.0296,-0.01933 0.0576,-0.0473 0.09,-0.0624 0.018,-0.0079 0.0303,-0.0138 0.0453,-0.02669 0.0303,-0.02522 0.0653,-0.03957 0.0955,-0.06332 0.0346,-0.0265 0.069,-0.05098 0.1064,-0.07325 0.0159,-0.0094 0.0289,-0.01362 0.046,-0.02025 0.0289,-0.01141 0.0547,-0.03295 0.0799,-0.05319 0.051,-0.04233 0.1071,-0.08982 0.14668,-0.144485 0.0431,-0.05816 0.10344,-0.09405 0.16031,-0.137308 0.0698,-0.05393 0.13804,-0.107121 0.21205,-0.154608 0.0712,-0.04528 0.1373,-0.09277 0.20063,-0.147983 0.0892,-0.0762 0.1682,-0.161051 0.24881,-0.245901 0.0488,-0.05117 0.0955,-0.105097 0.14083,-0.15829 0.0152,-0.01712 0.0251,-0.03166 0.0194,-0.05466"
       style="fill:#21201d;fill-opacity:1;fill-rule:nonzero;stroke:none;stroke-width:0.184057"
       id="path612" />
    <path
       d="m 472.51242,-37.293145 c 0.004,0 0.004,5.52e-4 0.008,0 -0.0296,-0.02301 -0.018,-0.01233 -0.008,0"
       style="fill:#21201d;fill-opacity:1;fill-rule:nonzero;stroke:none;stroke-width:0.184057"
       id="path614" />
    <path
       d="m 472.63592,-36.688515 c -0.007,0.02945 -0.0265,0.05522 -0.0423,0.0797 -0.0353,0.05319 -0.069,0.105097 -0.10068,0.159578 -0.0359,0.06332 -0.0712,0.125896 -0.11356,0.185531 -0.0293,0.04178 -0.0727,0.06111 -0.11504,0.08632 -0.0403,0.02448 -0.072,0.03957 -0.11998,0.03589 -0.0376,-0.002 -0.0769,-0.005 -0.11448,-0.01067 -0.0251,-0.0044 -0.046,-0.0173 -0.0703,-0.02669 -0.0388,-0.01362 -0.0806,-0.01583 -0.11871,-0.02871 -0.0229,-0.0087 -0.0403,-0.02006 -0.064,-0.02522 -0.0314,-0.0072 -0.0503,-0.01509 -0.0748,-0.03516 -0.0236,-0.0208 -0.0589,-0.04104 -0.0797,-0.06552 -0.0268,-0.03221 -0.0317,-0.07749 -0.0626,-0.109147 -0.0201,-0.02098 -0.0517,-0.03019 -0.0675,-0.05466 -0.0173,-0.02374 -0.0275,-0.05466 -0.0425,-0.08062 -0.0138,-0.02577 -0.0173,-0.04601 -0.018,-0.07473 0,-0.06037 -0.006,-0.136571 0.018,-0.192708 0.0229,-0.05466 0.0589,-0.115036 0.10069,-0.15737 0.0236,-0.02595 0.0431,-0.0554 0.069,-0.07915 0.0272,-0.02448 0.0574,-0.04601 0.0856,-0.06976 0.0236,-0.01933 0.0438,-0.02798 0.0718,-0.03884 0.0375,-0.01436 0.0685,-0.03663 0.10728,-0.04877 0.0409,-0.01307 0.0834,-0.02816 0.12573,-0.03534 0.0532,-0.0079 0.10932,0.0094 0.15811,0.02945 0.0339,0.01307 0.0697,0.02301 0.10287,0.0381 0.0525,0.02374 0.0999,0.06405 0.14891,0.09497 -0.004,-0.02798 0.046,0.0022 0.0819,0.02522 0.0502,0.03092 0.0841,0.097 0.0992,0.151663 0.0102,0.0324 0.0152,0.06184 0.0279,0.0935 0.0109,0.02503 0.01,0.04804 0.01,0.0762 0,0.02448 0.004,0.05319 -0.004,0.07694 m 0.14598,-0.110803 c -0.004,-0.03589 -0.018,-0.06902 -0.025,-0.104177 -0.006,-0.03534 0.004,-0.07344 -0.0123,-0.107121 -0.012,-0.02522 -0.0335,-0.0554 -0.0517,-0.0762 -0.012,-0.01307 -0.0258,-0.02301 -0.0374,-0.03681 -0.0102,-0.01068 -0.0152,-0.0243 -0.0275,-0.03442 -0.0162,-0.01436 -0.0272,-0.02871 -0.0423,-0.04528 -0.0145,-0.01362 -0.0201,-0.02945 -0.0317,-0.04528 -0.0102,-0.01307 -0.0243,-0.02025 -0.0346,-0.03534 0,-0.0028 -0.005,-0.0064 -0.007,-0.0092 -0.0166,-0.0015 -0.0275,-0.01583 -0.0381,-0.02742 -0.0289,-0.02945 -0.0613,-0.0589 -0.0957,-0.08117 -0.0489,-0.03092 -0.0985,-0.04896 -0.15681,-0.05467 -0.0755,-0.0079 -0.14447,-0.02448 -0.22067,-0.01362 -0.0524,0.0064 -0.0999,0.01933 -0.14598,0.04307 -0.0495,0.02448 -0.10343,0.03313 -0.1524,0.05743 -0.0303,0.01656 -0.0581,0.03755 -0.0906,0.05043 -0.0208,0.0079 -0.0388,0.01436 -0.0581,0.02595 -0.0396,0.0243 -0.0769,0.05319 -0.11377,0.08043 -0.0328,0.02522 -0.0683,0.04601 -0.0906,0.08264 -0.0208,0.03608 -0.046,0.06405 -0.0581,0.104361 -0.0268,0.0854 -0.0293,0.177432 -0.0433,0.265227 -0.0106,0.07694 -0.0236,0.143013 -0.004,0.219213 0.0106,0.03957 0.0236,0.0727 0.0416,0.109331 0.0243,0.05117 0.0425,0.08062 0.092,0.107858 0.0425,0.02374 0.0821,0.04454 0.11228,0.08338 0.012,0.01583 0.0187,0.0381 0.0328,0.05246 0.0145,0.01307 0.0275,0.01307 0.044,0.01804 0.0747,0.02154 0.12866,0.09497 0.20835,0.112091 0.0219,0.0052 0.044,0.0044 0.0648,0.01012 0.0229,0.0057 0.046,0.01877 0.0668,0.02798 0.0368,0.01656 0.0762,0.02816 0.11155,0.04602 0.0293,0.0138 0.0546,0.01583 0.0876,0.01233 0.0339,-0.0044 0.0712,-0.0064 0.10365,-0.01657 0.074,-0.02374 0.14298,-0.06755 0.20927,-0.104913 0.0162,-0.01012 0.0359,-0.01436 0.0517,-0.02448 0.0187,-0.01086 0.0317,-0.02798 0.0467,-0.04307 0.0416,-0.04031 0.0876,-0.06902 0.11927,-0.12019 0.0332,-0.05172 0.046,-0.107858 0.072,-0.162523 0.0229,-0.04675 0.0423,-0.08761 0.0453,-0.139332 0.004,-0.0762 0.0346,-0.149639 0.0265,-0.226575"
       style="fill:#21201d;fill-opacity:1;fill-rule:nonzero;stroke:none;stroke-width:0.184057"
       id="path616" />
    <path
       d="m 471.8257,-36.846069 h -0.0222 c -0.0102,0 -0.0201,-7.36e-4 -0.0296,0 -0.0102,7.37e-4 -0.0201,0.0052 -0.0286,0.0079 -0.0117,0.0029 -0.0261,0.0037 -0.0303,0.01656 -0.005,0.01509 -0.0173,0.02374 -0.0275,0.0346 -0.0208,0.02154 -0.046,0.04012 -0.0569,0.06828 -0.008,0.02154 -0.0162,0.07473 -0.006,0.09847 0.0138,0.03166 0.0546,0.05319 0.072,0.08411 0.0201,0.03442 0.0502,0.05246 0.0848,0.07178 0.0229,0.01381 0.041,0.03608 0.0653,0.04675 0.0303,0.01436 0.0734,-0.0099 0.1029,-0.0243 0.0229,-0.01086 0.0353,-0.03037 0.0517,-0.04969 0.0145,-0.01657 0.031,-0.02798 0.0453,-0.04233 0.0187,-0.01877 0.0512,-0.04896 0.0569,-0.07565 0.006,-0.02651 0.004,-0.06829 -0.0127,-0.08908 -0.0116,-0.01509 -0.0361,-0.02522 -0.0497,-0.04104 -0.0145,-0.01657 -0.0258,-0.03516 -0.0381,-0.05319 -0.0166,-0.02301 -0.0222,-0.03442 -0.0482,-0.03884 -0.0138,-0.002 -0.0279,-0.0028 -0.0409,-0.0042 -0.0131,-7.36e-4 -0.0243,-0.0044 -0.0368,-0.0079 -0.004,-7.36e-4 -0.006,-7.36e-4 -0.0106,-7.36e-4 -0.0109,7.36e-4 -0.0215,-0.0015 -0.0325,-0.0015 z"
       style="fill:#21201d;fill-opacity:1;fill-rule:nonzero;stroke:none;stroke-width:0.184057"
       id="path618" />
    <path
       d="m 471.94,-37.419777 c 0.0131,-0.0022 0.0229,-0.0079 0.0367,-0.0094 0.0388,-0.0028 0.069,-0.0079 0.10711,-0.01785 0.0388,-0.01012 0.0885,-0.0289 0.12883,-0.0173 0.0303,0.0079 0.0539,0.02871 0.0856,0.03442 0.0293,0.0044 0.0617,7.37e-4 0.092,7.37e-4 0.0328,0 0.0733,0.0079 0.10344,-0.0099 0.0532,-0.03387 0.0812,-0.08853 0.11356,-0.140252 0.0468,-0.07546 0.095,-0.16105 0.0935,-0.252343 0,-0.03387 0,-0.06755 0,-0.101416 0,-0.06755 0.0381,-0.112091 0.0826,-0.158106 0.0194,-0.02098 0.0293,-0.02448 0.0569,-0.03166 0.0495,-0.01307 0.0955,-0.03387 0.14598,-0.04601 0.0403,-0.0087 0.0804,-0.0094 0.12001,-0.0173 0.046,-0.0094 0.0891,-0.01933 0.13656,-0.02154 0.0705,-0.0044 0.11155,-0.0381 0.16545,-0.07841 0.0353,-0.02669 0.0547,-0.05816 0.0819,-0.09056 0.0268,-0.03092 0.0661,-0.05319 0.0985,-0.07841 0.0261,-0.01933 0.0403,-0.01362 0.0705,-0.02798 0.0431,-0.02025 0.0834,-0.04896 0.13163,-0.05835 0.0396,-0.0094 0.0777,-0.01509 0.11648,-0.02945 0.0539,-0.02006 0.11212,-0.02154 0.16898,-0.03018 0.0359,-0.0042 0.0697,-0.0064 0.1064,-0.0057 0.0335,7.37e-4 0.0705,-0.01288 0.10344,-0.01086 0.0268,0.0022 0.0467,0.02669 0.072,0.03387 0.0403,0.01288 0.0856,-0.0072 0.1143,0.03166 0.0215,0.02945 0.0388,0.04877 0.0668,0.07178 0.0222,0.01804 0.0215,0.04602 0.041,0.06755 0.0524,0.0554 0.12717,0.07694 0.18111,0.130865 0.0258,0.02522 0.0561,0.03755 0.0856,0.05687 0.0353,0.02154 0.0261,0.05963 0.046,0.09129 0.0124,0.01951 0.0318,0.03092 0.0446,0.0497 0,0.0092 0.005,0.01656 0.0124,0.0208 0.01,0.0035 0.018,0.0079 0.0265,0.01215 0.0152,0.0138 0.0208,0.04252 0.0353,0.05982 0.0131,0.01583 0.0286,0.03019 0.0446,0.04307 0.0236,0.01877 0.0475,0.04896 0.0762,0.06037 0.046,0.01951 0.10068,-0.0015 0.14891,0.01215 0.0293,0.0087 0.0525,0.01454 0.0841,0.01012 0.0328,-0.005 0.0632,-0.0173 0.097,-0.01785 0.0561,0 0.10213,0.03663 0.15533,0.04804 0.008,0.01951 -0.018,0.05393 -0.0282,0.06902 -0.0187,0.02669 -0.0366,0.04822 -0.0703,0.04749 -0.0289,0 -0.0534,-0.0042 -0.0727,-0.02871 -0.0145,-0.01877 -0.012,-0.03736 -0.0381,-0.04528 -0.0127,-0.0044 -0.0388,7.37e-4 -0.0532,7.37e-4 -0.0187,7.38e-4 -0.0303,0.0064 -0.046,0.01215 -0.018,0.0064 -0.0332,0.0037 -0.0497,0.0079 -0.0293,0.0079 -0.0596,0.03589 -0.0849,0.05098 -0.0251,0.01509 -0.0525,0.02816 -0.0819,0.0289 -0.007,5.54e-4 -0.0286,0.0042 -0.0342,-7.37e-4 -0.006,-0.0064 0,-0.02522 -0.004,-0.03387 -0.0254,0 -0.0303,-0.02301 -0.0438,-0.03957 -0.0194,-0.02448 -0.0403,-0.04233 -0.0554,-0.0705 -0.008,-0.01583 -0.0152,-0.03442 -0.0268,-0.04804 -0.008,-0.01086 -0.018,-0.01583 -0.0272,-0.02595 -0.0279,-0.03166 -0.0346,-0.08559 -0.0584,-0.121478 -0.0286,-0.04381 -0.0732,-0.06755 -0.10417,-0.108594 -0.0388,-0.04822 -0.0653,-0.09203 -0.12146,-0.122215 -0.0359,-0.01933 -0.0762,-0.02945 -0.11356,-0.04749 -0.0236,-0.01067 -0.0467,-0.02577 -0.0698,-0.03884 -0.018,-0.0099 -0.0339,-0.02374 -0.0532,-0.03239 -0.0389,-0.01785 -0.0957,-0.01362 -0.13529,-0.0028 -0.0279,0.0072 -0.0517,0.01933 -0.0797,0.02448 -0.0286,0.005 -0.0539,0.01068 -0.0806,0.02006 -0.0318,0.0094 -0.0698,0.01436 -0.10273,0.02006 -0.0697,0.01307 -0.13599,0.03239 -0.20429,0.04601 -0.12866,0.02669 -0.2214,0.130866 -0.31694,0.211483 -0.0261,0.02154 -0.0504,0.04233 -0.0784,0.06111 -0.0208,0.01362 -0.0445,0.01859 -0.0668,0.02945 -0.0554,0.02724 -0.10658,0.07326 -0.15755,0.110067 -0.0438,0.03092 -0.0871,0.07399 -0.12718,0.110619 -0.0497,0.04675 -0.10784,0.07841 -0.15829,0.122214 -0.0346,0.0289 -0.048,0.05319 -0.0539,0.09792 -0.007,0.05743 -0.0127,0.11927 -0.031,0.174671 -0.0359,0.112827 -0.13363,0.21774 -0.10269,0.3429 0.01,0.04104 0.0236,0.07694 0.0229,0.119269 0,0.02963 0,0.05835 0,0.0878 0.005,-0.04031 -0.0339,-0.08338 -0.0505,-0.118533 -0.0106,-0.02448 -0.0258,-0.04031 -0.0401,-0.06184 -0.0152,-0.02227 -0.0236,-0.04675 -0.0453,-0.06479 -0.0219,-0.01933 -0.0268,-0.02798 -0.0388,-0.05393 -0.01,-0.02227 -0.0275,-0.0381 -0.0411,-0.0589 -0.0127,-0.02153 -0.0208,-0.02742 -0.0431,-0.03736 -0.0275,-0.01307 -0.0497,-0.03313 -0.0769,-0.04675 -0.0257,-0.01307 -0.0539,-0.01951 -0.0791,-0.03313 -0.0261,-0.01362 -0.049,-0.03092 -0.0747,-0.0438 -0.018,-0.0087 -0.0332,-0.0094 -0.0512,-0.01509 -0.0187,-0.0052 -0.0381,-0.0138 -0.0581,-0.01877 -0.0229,-0.0057 -0.0453,-0.0072 -0.0668,-0.01859 -0.0173,-0.0094 -0.0289,-0.01656 -0.0497,-0.01583 -0.0229,7.36e-4 -0.0495,0.01288 -0.0712,0.02154 -0.01,0.0042 -0.046,0.03092 0.0166,-0.04749"
       style="fill:#21201d;fill-opacity:1;fill-rule:nonzero;stroke:none;stroke-width:0.184057"
       id="path620" />
    <path
       d="m 472.46567,-37.202589 c -0.007,0.0265 -0.0102,0.04675 -0.01,0.07252 0,0.01307 0.004,0.02816 0,0.04031 -0.006,0.02006 -0.0208,0.02595 -0.018,0.05025 0.008,0.05467 0.0633,0.06902 0.0965,0.104361 0.0325,0.03589 0.0423,0.08485 0.0718,0.122951 0.009,0.0099 0.0145,0.01436 0.0208,0.0265 0.005,0.0094 0.004,0.02025 0.0152,0.02595 0.0187,0.01012 0.0317,-0.0015 0.0388,-0.01656 0.0152,-0.03019 0.0169,-0.07326 0.007,-0.104913 -0.008,-0.02595 -0.0109,-0.04381 -0.0138,-0.06976 0,-0.01877 -0.008,-0.04675 -0.0155,-0.06405 -0.008,-0.01785 -0.0208,-0.02577 -0.0346,-0.03884 -0.0138,-0.01288 -0.0236,-0.03092 -0.0317,-0.04877 -0.007,-0.0173 -0.0335,-0.102153 -0.12643,-0.09994"
       style="fill:#21201d;fill-opacity:1;fill-rule:nonzero;stroke:none;stroke-width:0.184057"
       id="path622" />
    <path
       d="m 472.31109,-37.220627 h -0.0648 c -0.0272,0 -0.0762,-0.0094 -0.10343,-7.36e-4 -0.0173,0.0057 -0.0159,0.02301 -0.0275,0.03589 -0.004,0.0037 -0.0166,0.0087 -0.0208,0.01233 -0.012,0.0079 -0.0201,0.01657 -0.0353,0.01804 -0.004,0.0085 -0.004,0.01436 -0.009,0.02301 -0.008,-0.0173 0.004,-0.03957 -0.004,-0.05761 -0.006,-0.02227 -0.0229,-0.0079 -0.0438,-0.01436 0,-0.005 -0.004,-0.01012 -0.004,-0.01509 -0.0303,-0.01086 -0.046,0.0079 -0.0712,0.01933 -0.0173,0.0072 -0.0279,0.0029 -0.0453,0.0059 -0.0127,0.002 -0.0222,0.01638 -0.0321,0.01785 -0.0194,0.0037 -0.0296,-0.02871 -0.0455,-0.03515 -0.006,-0.0022 -0.012,0.0015 -0.018,0 -0.005,-0.0015 -0.0109,-0.0057 -0.0152,-0.0072 -0.0145,-0.0044 -0.0275,-0.0037 -0.0403,-0.0116 0.0286,0.0022 0.0755,-0.02153 0.10138,-0.03239 0.0346,-0.01436 0.0626,-0.03736 0.097,-0.05098 0.0286,-0.01141 0.0576,-0.03516 0.0871,-0.0416 0.0258,-0.0059 0.0567,-0.0015 0.0819,-0.0015 0.0576,0 0.11426,-0.0079 0.16672,0.01785 0.01,0.0052 0.0212,0.0079 0.0296,0.01454 0.008,0.0064 0.0131,0.01638 0.0236,0.0208 0.0123,0.005 0.0712,-0.0094 -0.0106,0.08264"
       style="fill:#21201d;fill-opacity:1;fill-rule:nonzero;stroke:none;stroke-width:0.184057"
       id="path624" />
  </g>
</svg>
