<?xml version="1.0" encoding="UTF-8" standalone="no"?>
<!-- Created with Inkscape (http://www.inkscape.org/) -->

<svg
   width="6.9336495mm"
   height="6.9381676mm"
   viewBox="0 0 6.9336495 6.9381676"
   version="1.1"
   id="svg2062"
   inkscape:version="1.1.2 (0a00cf5339, 2022-02-04)"
   sodipodi:docname="c12.svg"
   xmlns:inkscape="http://www.inkscape.org/namespaces/inkscape"
   xmlns:sodipodi="http://sodipodi.sourceforge.net/DTD/sodipodi-0.dtd"
   xmlns="http://www.w3.org/2000/svg"
   xmlns:svg="http://www.w3.org/2000/svg">
  <sodipodi:namedview
     id="namedview2064"
     pagecolor="#ffffff"
     bordercolor="#666666"
     borderopacity="1.0"
     inkscape:pageshadow="2"
     inkscape:pageopacity="0.0"
     inkscape:pagecheckerboard="0"
     inkscape:document-units="mm"
     showgrid="false"
     inkscape:zoom="0.64052329"
     inkscape:cx="-952.34633"
     inkscape:cy="826.66783"
     inkscape:window-width="2560"
     inkscape:window-height="1376"
     inkscape:window-x="0"
     inkscape:window-y="0"
     inkscape:window-maximized="1"
     inkscape:current-layer="layer1" />
  <defs
     id="defs2059" />
  <g
     inkscape:label="Layer 1"
     inkscape:groupmode="layer"
     id="layer1"
     transform="translate(-356.73366,70.387027)">
    <path
       d="m 361.00372,-64.432484 c -0.0287,0.05025 -0.0467,0.104913 -0.0834,0.150191 -0.0186,0.02301 -0.0475,0.0346 -0.069,0.0554 -0.0245,0.02301 -0.0453,0.04822 -0.0747,0.06626 -0.0302,0.01859 -0.0992,0.05025 -0.13657,0.04877 0,-0.0265 0.0596,-0.02448 0.0762,-0.03442 0.0265,-0.01583 0.0604,-0.05614 0.0804,-0.08135 0.0252,-0.03092 0.0425,-0.07252 0.0554,-0.110619 0.0121,-0.03534 0.0316,-0.0727 0.0344,-0.110066 0.007,-0.07914 0.003,-0.155345 -0.028,-0.227864 -0.0258,-0.06258 -0.0252,-0.119454 -0.0762,-0.17191 -0.0208,-0.02227 -0.0532,-0.0381 -0.0467,-0.07325 0.001,-0.01436 -0.0166,-0.0087 -0.0351,-0.02743 -0.0131,-0.01215 -0.0116,-0.03019 -0.0287,-0.04233 0.0374,-7.41e-4 0.0732,0.02724 0.11135,0.02798 0.0411,0.0022 0.0856,0.02448 0.1143,0.05466 0.0339,0.03663 0.0576,0.08853 0.0747,0.135283 0.021,0.05448 0.046,0.109147 0.0525,0.168229 0.006,0.05522 0.005,0.124975 -0.0208,0.172462 m -0.56284,0.136571 c -0.0267,0.02448 -0.044,0.05687 -0.0698,0.08264 -0.0309,0.03037 -0.0618,0.05982 -0.0913,0.09074 -0.0353,0.0381 -0.0756,0.06902 -0.10786,0.10841 -0.0173,0.02172 -0.0381,0.04252 -0.0561,0.06258 -0.0109,0.01307 -0.0475,0.0497 -0.0653,0.04675 -0.018,-0.02945 -0.0304,-0.06332 -0.0403,-0.09479 -0.007,-0.02172 -0.0101,-0.04528 -0.0173,-0.06626 -0.006,-0.01785 -0.0151,-0.02724 -0.0252,-0.04454 -0.0166,-0.02945 -0.0237,-0.04896 0.0109,-0.06534 0.0344,-0.01583 0.0618,-0.03884 0.0963,-0.05761 0.026,-0.01436 0.044,-0.03313 0.0677,-0.05172 0.0344,-0.02669 0.0755,-0.04031 0.10491,-0.0727 0.0302,-0.03442 0.0675,-0.06829 0.0891,-0.108595 0.0438,-0.08264 0.092,-0.16878 0.0131,-0.245165 -0.0296,-0.03019 -0.0764,-0.08761 -0.11798,-0.09921 -0.0274,-0.0072 -0.0554,-0.0064 -0.0849,-0.01785 -0.0317,-0.01233 -0.0582,-0.02945 -0.0856,-0.0519 -0.0257,-0.0208 -0.0445,-0.03442 -0.0582,-0.06534 -0.008,-0.0173 -0.0151,-0.01288 -0.003,-0.02871 0.004,-0.0059 0.041,-0.02522 0.046,-0.02871 0.041,-0.02742 0.0841,-0.04822 0.12589,-0.07344 0.0309,-0.01859 0.0438,-0.02301 0.0683,0.0042 0.028,0.04473 0.0488,0.08853 0.0891,0.120926 0.0151,0.01141 0.0317,0.02006 0.0445,0.03295 0.0324,0.03092 0.0648,0.06479 0.0965,0.09571 0.0416,0.04233 0.0841,0.08982 0.12074,0.135098 0.0272,0.0346 0.0683,0.0727 0.0906,0.110803 0.0173,0.02871 0.008,0.03166 -0.0186,0.05025 -0.0294,0.02227 -0.0433,0.04105 -0.0655,0.06976 -0.0445,0.05835 -0.10344,0.111539 -0.15663,0.161051 m -0.43437,-1.519214 c 0.0101,-0.02724 0.0453,-0.03368 0.069,-0.02797 0.0245,0.0057 0.0324,0.01435 0.0611,0.01435 0.0561,-7.41e-4 0.11081,0 0.16694,0 0.10841,0 0.20983,-0.0072 0.31768,-0.02374 0.0554,-0.0087 0.1086,-0.02006 0.16179,-0.03515 0.0201,-0.0057 0.0791,-0.0029 0.0906,-0.01951 -0.004,0.05319 -7.1e-4,0.107858 -7.1e-4,0.161051 0,0.03166 0.0136,0.106385 -0.0129,0.128104 -0.0359,0.02798 -0.0883,0.02227 -0.12663,0.01215 -0.0596,-0.01583 -0.13657,-0.0029 -0.19767,-0.0029 -0.0324,0 -0.0646,-5.65e-4 -0.097,-5.65e-4 -0.0381,5.65e-4 -0.074,0.01362 -0.11209,0.01509 -0.044,0.002 -0.0863,-0.0044 -0.13031,0.0013 -0.0446,0.0072 -0.092,0.02448 -0.13731,0.02595 -0.0186,7.41e-4 -0.0322,0.005 -0.0401,-0.01288 -0.006,-0.01435 0.001,-0.05466 0.001,-0.06902 0,-0.03387 0.009,-0.07988 7e-4,-0.113011 -0.005,-0.01859 -0.0193,-0.03221 -0.0144,-0.05319 m 0.044,-0.396092 c 0.004,-0.0015 0.007,-0.0015 0.0114,0.01086 -0.005,-0.02742 0.0165,-0.0554 0.023,-0.08135 0.0121,-0.04602 0.028,-0.07841 0.0582,-0.115037 0.023,-0.0265 0.0539,-0.03957 0.0849,-0.05743 0.0281,-0.01657 0.0532,-0.04031 0.0813,-0.0554 0.0661,-0.03534 0.11577,-0.0346 0.18903,-0.0346 0.0525,0 0.11724,-0.0099 0.16896,-7.41e-4 0.0482,0.0094 0.0812,0.02245 0.10786,0.06479 0.0193,0.03018 0.0438,0.06479 0.0596,0.09774 0.006,0.01436 0.0173,0.03387 0.021,0.04749 0.006,0.0208 0.001,0.04252 0.006,0.06258 0.004,0.01657 0.0107,0.02945 0.0107,0.05172 0,0.0173 -0.006,0.04896 0.007,0.06184 -0.0171,0.02448 -0.13804,0.02227 -0.16602,0.01362 -0.0237,-0.0064 -0.0165,-0.0028 -0.0201,-0.02724 -0.002,-0.01086 -0.003,-0.03092 -7.1e-4,-0.04178 0.008,-0.03736 0.0265,-0.06902 0.0121,-0.110618 -0.0201,-0.05467 -0.0985,-0.09056 -0.14872,-0.09571 -0.0289,-0.0028 -0.0526,-0.01583 -0.0828,-0.01362 -0.0295,0.0015 -0.0698,0.01435 -0.097,0.02724 -0.0431,0.02245 -0.0871,0.05393 -0.10565,0.09939 -0.0136,0.03368 -0.0109,0.05964 -0.0166,0.09332 -0.005,0.03019 -0.0151,0.05117 -0.0144,0.08283 7.1e-4,0.04877 -0.0101,0.0416 -0.0554,0.04086 h -0.0826 c -0.0381,0 -0.0633,0.01362 -0.0683,-0.02724 -0.004,-0.0346 0.0107,-0.06037 0.0166,-0.0935 m 0.0538,-2.957075 c 0.0561,-0.0029 0.10068,-0.07123 0.14669,-0.09866 0.0124,-0.0085 0.0396,-0.02945 0.0626,-0.04307 -0.0208,-0.03442 -0.0589,-0.05964 -0.0876,-0.08338 -0.0361,-0.03018 -0.0309,-0.06829 -0.0403,-0.107858 -0.004,-0.02006 -0.0121,-0.02374 -0.0144,-0.04749 -0.002,-0.02301 -0.0101,-0.03957 -0.0136,-0.06184 0.008,0.0086 0.0121,0.01307 0.0151,0.0173 -0.004,-0.01583 -0.0166,-0.03018 -0.0225,-0.04454 -0.007,-0.0208 -0.006,-0.0381 -0.006,-0.06258 0,-0.0438 -0.0186,-0.097 0.0418,-0.08908 0.0287,0.0035 0.0619,0.03442 0.0827,0.05448 0.0173,0.0173 0.0136,0.02742 0.0129,0.0554 0,0.02595 7.1e-4,0.04528 0.0109,0.06902 0.0129,0.03313 0.0272,0.07767 0.0532,0.102888 0.0431,0.03957 0.0806,0.08117 0.12589,0.117245 0.0309,0.02503 0.0769,0.04804 0.10271,0.07896 0.0346,0.04178 0.0489,0.09645 0.0633,0.146694 0.005,0.0173 0.0121,0.03166 0.0215,0.04381 0.0252,-0.03092 0.0497,-0.0624 0.0755,-0.09332 0.0109,-0.01454 0.0238,-0.0346 0.0425,-0.03884 l 0.0272,-0.04105 c 0.0245,0.02871 0.0569,0.05172 0.09,0.06755 0.0236,0.01086 0.0374,0.01288 0.0322,0.04454 -0.005,0.03019 -0.0309,0.04822 -0.0495,0.06902 -0.0208,0.02301 -0.0403,0.05117 -0.0576,0.07767 0.0309,0.02098 -0.006,0.05908 -0.0136,0.0935 -0.0101,0.0381 0.005,0.09626 -0.0423,0.112092 -0.0353,0.01233 -0.0756,-0.02356 -0.11007,-0.03442 -0.0374,-0.01215 -0.095,-0.01436 -0.12515,-0.04178 -0.0302,-0.0265 -0.0287,-0.08908 -0.0502,-0.127184 -0.0101,-0.01804 -0.0215,-0.03589 -0.0346,-0.05172 -0.005,-0.0059 -0.0158,-0.0079 -0.0216,-0.01509 -0.009,-0.0138 -0.009,-0.03387 -0.0158,-0.04896 -7e-4,-0.0015 -0.002,-0.0029 -0.003,-0.005 -0.002,0.01068 -0.009,0.01785 -0.0245,0.02503 -0.0131,0.0059 -0.0203,0 -0.0317,0.0094 -0.0101,0.0079 -0.0136,0.02153 -0.023,0.03092 -0.0309,0.0346 -0.0784,0.04749 -0.10859,0.08338 -0.0158,0.02025 -0.0265,0.04031 -0.0482,0.01435 -0.0215,-0.0265 -0.0201,-0.07749 -0.0366,-0.109146 -0.0121,-0.02227 -0.0396,-0.0381 -0.026,-0.06829 m 0.60333,-0.635 v -0.01362 c 7.1e-4,-0.0042 10e-4,-0.0072 0.003,-0.01141 0.0504,-0.01509 0.1281,-0.0094 0.13528,0.05246 0.007,0.06111 0.009,0.143014 -0.0223,0.193998 -0.0245,0.04104 -0.046,0.03957 -0.0878,0.04031 -0.0252,0 -0.0626,-0.0079 -0.0804,-0.02724 -0.0173,-0.01804 -0.0166,-0.05908 -0.0166,-0.08264 7e-4,-0.01233 -0.002,-0.02816 -7.1e-4,-0.03957 0.005,-0.04675 0.0324,-0.08338 0.0698,-0.112275 m 0.16602,1.911073 c -0.006,0.0324 -0.0237,0.05964 -0.0388,0.08632 -0.0201,0.03442 -0.0374,0.07123 -0.0554,0.107122 -0.008,0.0173 -0.0114,0.03884 -0.023,0.05467 -0.006,0.0087 -0.0144,0.01362 -0.0193,0.02227 -0.006,0.0087 -10e-4,0.02651 -0.0151,0.03166 -10e-4,0 -0.003,0 -0.004,0 10e-4,0.005 0.004,0.0094 0.007,0.01288 0.005,0.0072 0.0171,0.01012 0.0216,0.0173 0.008,0.01509 0.003,0.03736 0.003,0.05393 -7e-4,0.05964 0.007,0.122215 -0.0107,0.178353 -0.0109,0.03442 -0.0245,0.05448 -0.0438,0.08485 -0.018,0.02651 -0.0252,0.04878 -0.0534,0.06829 -0.0144,0.0099 -0.023,0.01288 -0.0359,0.02374 -0.023,0.02006 -0.0374,0.04951 -0.0596,0.06957 -0.023,0.01804 -0.0223,0.0079 -0.0445,0.01804 -0.0151,0.0064 -0.0396,0.02301 -0.0569,0.02374 -0.0121,0.0015 -0.0295,-0.01583 -0.0388,-0.01362 -0.009,0.002 -0.0186,0.0015 -0.028,-0.0022 -0.009,-0.0079 -0.018,-0.01509 -0.0274,-0.02301 -0.0309,-0.01288 -0.0826,-0.0022 -0.11632,-0.0022 -0.0339,7.41e-4 -0.0821,-7.41e-4 -0.0907,-0.04086 -0.006,-0.02945 -0.004,-0.05246 -0.0265,-0.07767 0.0913,0.04878 0.20339,0.02227 0.29339,-0.0173 0.10639,-0.04675 0.1524,-0.198415 0.10639,-0.303328 -0.0101,-0.02301 -0.0267,-0.04252 -0.0361,-0.06552 -0.005,-0.01215 -0.007,-0.02871 -0.0107,-0.04381 -0.0151,7.4e-4 -0.0295,7.4e-4 -0.0438,-7.41e-4 -0.0512,-0.0057 -0.10437,-0.03387 -0.15112,-0.0554 -0.0552,-0.0265 -0.11429,0 -0.17043,-0.01657 0.0138,-0.02871 0.008,-0.06037 0.026,-0.08687 0.009,-0.01436 0.0223,-0.02227 0.0267,-0.04105 0.005,-0.02153 0.002,-0.04528 0.008,-0.06829 0.008,-0.03589 0.003,-0.07049 0.009,-0.106385 0.008,-0.04178 0.0223,-0.08264 0.0353,-0.122951 0.0136,-0.03957 0.0316,-0.07988 0.0309,-0.121478 0.0683,0 0.10638,-0.0072 0.1316,0.0057 0.0329,0.01804 0.0186,0.03957 0.007,0.06976 -0.0101,0.02798 -0.0144,0.05816 -0.0252,0.08632 -0.005,0.01509 -0.0151,0.02724 -0.0188,0.04307 -0.003,0.01877 0.005,0.0381 -0.001,0.05687 -0.0109,0.03221 -0.0375,0.04381 -0.0116,0.06829 0.0188,0.01712 0.0431,0.01141 0.0661,0.01657 0.009,0.0013 0.018,0.0099 0.0304,0.01068 0.0136,0.0022 0.025,-7.41e-4 0.0387,0.0029 0.0101,0.0028 0.0166,0.0092 0.0304,0.01068 0.0129,0.0015 0.028,0 0.0416,0 0.0596,0 0.10141,0.01233 0.12,-0.05466 0.0101,-0.03736 0.021,-0.0762 0.0282,-0.1143 0.006,-0.03515 -0.003,-0.07178 0.006,-0.106386 0.005,-0.01859 0.0158,-0.06681 0.0374,-0.07049 0.0208,-0.002 0.0655,0.02522 0.0834,0.03313 0.0569,0.02522 0.11945,0.02871 0.17761,0.04031 0.004,0.01804 -0.0158,0.02577 -0.0257,0.03736 -0.018,0.02227 -0.0304,0.04528 -0.0425,0.07123 -0.0121,0.02651 -0.0302,0.05246 -0.0374,0.08117 -0.006,0.02301 10e-4,0.04528 -0.002,0.06829 m 0.49106,-1.926166 c 0.0109,-0.07546 0.0446,-0.1524 0.0453,-0.2286 7.1e-4,-0.03736 -0.0173,-0.06902 -0.0309,-0.104912 -0.009,-0.02227 -0.006,-0.04381 -0.0324,-0.06111 -0.025,-0.0173 -0.0696,-0.02374 -0.1027,-0.03313 -0.0676,-0.01933 -0.13584,-0.03166 -0.21001,-0.04031 -0.0675,-0.0072 -0.13952,-0.01859 -0.2078,-0.02227 -0.10988,-0.005 -0.21277,-0.02153 -0.32413,-0.02006 -0.023,7.4e-4 -0.046,0.0015 -0.0697,0 -0.0309,-0.0015 -0.0591,-0.0086 -0.0885,-0.01657 -0.0856,-0.02301 -0.16676,-0.03515 -0.25879,-0.03663 -0.0547,-0.0022 -0.11006,-0.0044 -0.16528,-0.005 -0.041,-7.41e-4 -0.0648,0.0077 -0.0999,0.01932 -0.0453,0.01509 -0.0913,0.01012 -0.13731,0.02153 -0.0705,0.0173 -0.0999,0.04749 -0.0848,0.09571 0.0144,0.04454 0.0344,0.08485 0.0438,0.128656 0.002,0.01141 0.003,0.02227 0.004,0.03442 0.002,0.08559 -0.0258,0.16326 -0.0453,0.247374 -0.0158,0.06976 -0.004,0.131602 0.0131,0.20136 0.0243,0.09553 0.0129,0.193444 0.009,0.288971 -0.003,0.111539 -0.008,0.222158 -0.01,0.333697 -10e-4,0.03166 -0.002,0.06258 -0.003,0.09405 -0.001,0.07565 0.028,0.153136 0.0158,0.228048 -0.006,0.03736 -0.0215,0.07326 -0.0237,0.110619 -0.007,0.09129 -0.004,0.183321 -0.006,0.274614 -0.007,0.243877 -0.0116,0.487569 -0.0201,0.730526 -0.007,0.192709 0.0394,0.378975 0.0646,0.570211 0.004,0.06037 0.003,0.121479 -0.002,0.18185 -7e-4,0.05835 0.004,0.115772 0.0116,0.173935 0.006,0.08853 0.009,0.177615 0.0144,0.266883 0.0121,0.213508 -0.004,0.42996 -0.0287,0.641995 -0.0166,0.138043 -0.0123,0.276822 -0.0158,0.414866 -0.004,0.135099 0.0114,0.278296 -0.0151,0.411186 -0.0136,0.06258 -0.023,0.115772 -0.0116,0.179824 0.0109,0.05816 0.008,0.115036 0.006,0.173935 -10e-4,0.04822 -0.008,0.097 -0.005,0.145221 0.004,0.04031 0.0216,0.07473 0.0195,0.115773 -0.004,0.08264 -0.0166,0.170437 -0.008,0.25308 0.005,0.05098 0.0352,0.09994 0.0381,0.150927 10e-4,0.02743 0.007,0.04031 0.0144,0.06553 0.009,0.02724 -0.006,0.0554 0.002,0.08264 0.004,0.01583 0.0158,0.02227 0.0258,0.03589 0.0166,0.02448 0.0223,0.04822 0.0339,0.07417 0.0237,0.04878 0.0381,0.169702 0.13086,0.188292 0.074,0.01509 0.18258,-0.03092 0.2551,-0.0381 0.14596,-0.01509 0.2956,-0.01583 0.44229,-0.02374 0.14945,-0.0086 0.29835,-0.01785 0.44854,-0.02448 0.0611,-0.0028 0.12516,0.0022 0.18627,0.0037 0.0302,7.41e-4 0.15313,0.01583 0.17393,0.0029 0.0252,-0.01583 -0.007,-0.108594 -0.009,-0.119453 -0.0131,-0.07326 -0.0309,-0.147431 -0.0368,-0.222158 -0.009,-0.09553 0.0188,-0.196942 -7e-4,-0.291916 -0.005,-0.0208 -0.0144,-0.04031 -0.0151,-0.06184 -0.003,-0.07105 0.004,-0.14375 0.006,-0.21498 0.004,-0.143013 0.008,-0.286026 0.0114,-0.42996 0.009,-0.321365 0.0366,-0.641993 0.0475,-0.964095 0.004,-0.122214 -0.0101,-0.24811 -0.0129,-0.37106 -0.002,-0.117061 -0.0361,-0.229337 -0.0309,-0.346397 0.004,-0.09645 -0.001,-0.190685 -0.0116,-0.286947 -0.009,-0.09276 0.004,-0.189027 0.006,-0.282529 0.0116,-0.44726 0.0237,-0.894521 0.0353,-1.341598 0.004,-0.122214 -0.0123,-0.248846 -0.0316,-0.371061 -0.0359,-0.2286 -0.006,-0.456463 0.0186,-0.683038 0.0109,-0.09994 0.0188,-0.200624 0.0331,-0.299831"
       style="fill:#21201d;fill-opacity:1;fill-rule:nonzero;stroke:none;stroke-width:0.184057"
       id="path568" />
    <path
       d="m 362.67826,-68.252422 c 0.0136,0.0057 0.028,0.01233 0.0416,0.01951 0.0519,0.02724 0.11448,0.02945 0.16473,0.05816 0.0272,0.01932 0.0554,0.04031 0.0819,0.06111 0.026,0.01362 0.0519,0.02669 0.0769,0.03957 0.0396,0.02522 0.0742,0.07123 0.0965,0.111355 0.0401,0.07049 0.048,0.145958 0.0567,0.226576 0.009,0.08191 0.0138,0.158842 0.0138,0.24222 0,0.07767 0.006,0.15829 7e-4,0.235226 -0.004,0.06313 -0.0265,0.126448 -0.0381,0.188291 -0.008,0.03884 -0.0158,0.06479 -0.0316,0.10068 -0.0171,0.03663 -0.0136,0.08835 -0.0423,0.118533 -0.0339,0.03608 -0.0755,0.01509 -0.10859,0.06055 -0.0503,0.06829 -0.0604,0.160315 -0.0769,0.241484 -0.0165,0.07767 -0.11504,0.1524 -0.17099,0.207065 -0.11007,0.107858 -0.2194,0.216453 -0.31713,0.333698 -0.0834,0.09921 -0.16749,0.188291 -0.22289,0.302591 -0.0351,0.0727 -0.0698,0.144485 -0.0999,0.218661 -0.0359,0.0854 -0.0431,0.166756 -0.0431,0.257313 7e-4,0.04031 -0.005,0.08338 10e-4,0.12295 0.0173,0.112092 0.0734,0.17688 0.1662,0.238723 0.0732,0.04896 0.10491,0.128657 0.17614,0.180377 0.0747,0.0554 0.17044,0.08412 0.2667,0.09424 0.0482,0.005 0.0806,-0.0015 0.12663,-0.0072 0.0596,-0.0072 0.12498,0.01012 0.18185,-0.0037 0.0309,-0.0085 0.0596,-0.02871 0.0876,-0.0416 0.046,-0.0208 0.0806,-0.04104 0.10712,-0.08062 0.0403,-0.06111 0.0979,-0.152399 0.10712,-0.224918 0.007,-0.05393 -10e-4,-0.113564 -7e-4,-0.168229 0,-0.04031 -0.0107,-0.07197 -0.0136,-0.108594 -0.004,-0.03957 -0.009,-0.06332 -0.0272,-0.10068 -0.023,-0.04454 -0.026,-0.09571 -0.0532,-0.138044 -10e-4,0.01013 -7e-4,0.0208 -0.004,0.03092 -0.0416,0.0094 -0.0891,7.41e-4 -0.13215,0.0079 -0.0425,0.0079 -0.14319,-0.0029 -0.15608,0.04233 -0.0101,0.03736 0.0136,0.105097 0.0287,0.136019 0.0267,0.05595 0.0539,0.111356 0.0561,0.173199 7.1e-4,0.04105 0.007,0.07694 -0.0237,0.10933 -0.0245,0.02522 -0.0453,0.05816 -0.0732,0.08043 -0.0396,0.03092 -0.13528,0.02669 -0.17983,0.0086 -0.0252,-0.01012 -0.0309,-0.02724 -0.046,-0.04601 -0.0223,-0.02577 -0.0554,-0.04454 -0.0791,-0.06976 -0.0453,-0.05025 -0.0552,-0.113564 -0.0725,-0.173199 -0.026,-0.08982 -0.0519,-0.181297 -0.0295,-0.273878 0.01,-0.04325 0.0223,-0.08853 0.0453,-0.129577 0.0251,-0.04657 0.0725,-0.08687 0.10915,-0.127184 0.0648,-0.07049 0.12737,-0.134362 0.21222,-0.187555 0.0698,-0.04399 0.12644,-0.09148 0.1789,-0.151112 0.0482,-0.0554 0.09,-0.112827 0.1316,-0.17099 0.0433,-0.06184 0.0985,-0.116508 0.14393,-0.176879 0.0955,-0.125896 0.15884,-0.25308 0.20412,-0.397749 0.0554,-0.174671 0.11853,-0.34787 0.15166,-0.526958 0.0129,-0.07325 0.0144,-0.145222 0.0136,-0.218477 -7.1e-4,-0.07767 0.008,-0.15829 -0.002,-0.235226 -0.0173,-0.126448 -0.072,-0.2667 -0.13877,-0.381 -0.0663,-0.110803 -0.15535,-0.207065 -0.2575,-0.285474 -0.051,-0.03957 -0.1027,-0.08338 -0.16178,-0.111355 -0.0315,-0.01436 -0.0646,-0.01951 -0.0985,-0.02742 -0.0495,-0.01068 -0.0942,-0.03221 -0.14026,-0.05393 -0.0574,-0.02724 -0.1143,-0.0265 -0.17467,-0.03957 -0.0747,-0.01638 -0.14871,-0.0064 -0.22363,-0.0208 -0.11853,-0.02227 -0.24,-0.0554 -0.32853,-0.143013 -0.0223,-0.02301 -0.0445,-0.04307 -0.0611,-0.06976 -0.0144,-0.02227 -0.0388,-0.04822 -0.0475,-0.07197 -0.0144,-0.03939 -0.001,-0.10068 -0.002,-0.143014 -7.1e-4,-0.04601 0.023,-0.08632 0.0445,-0.126447 0.0208,-0.03884 0.051,-0.06258 0.0898,-0.08209 0.041,-0.02006 0.0675,-0.03092 0.1143,-0.03019 0.0353,0 0.0742,-0.005 0.10933,-7.41e-4 0.0648,0.0079 0.0295,0.07767 0.0648,0.115036 0.0208,0.02153 0.0532,0.01436 0.0589,-0.01067 0.006,-0.02301 0.004,-0.07417 0,-0.09792 -0.009,-0.05246 -0.0641,-0.1143 -0.10436,-0.150927 -0.0344,-0.03092 -0.0898,-0.04822 -0.13289,-0.06534 -0.0547,-0.02245 -0.10712,-0.0015 -0.16252,0.0057 -0.11577,0.01509 -0.20706,0.09553 -0.27829,0.183322 -0.0381,0.04749 -0.0711,0.09921 -0.0933,0.156081 -0.021,0.05522 -0.018,0.111355 -0.0296,0.168966 -0.009,0.0473 -0.0114,0.09056 -0.0107,0.140068 7.1e-4,0.06037 0.028,0.09129 0.0525,0.143933 0.0208,0.0473 0.0475,0.08191 0.0849,0.119269 0.0186,0.01804 0.0351,0.0381 0.0554,0.0554 0.0201,0.01859 0.046,0.02577 0.0683,0.0416 0.046,0.03166 0.0861,0.0727 0.13731,0.09718 0.0539,0.02577 0.11135,0.04307 0.16601,0.06829 0.13234,0.06111 0.28253,0.07105 0.41634,0.127184"
       style="fill:#21201d;fill-opacity:1;fill-rule:nonzero;stroke:none;stroke-width:0.184057"
       id="path570" />
    <path
       d="m 358.28392,-64.269961 c 0.0193,0.01141 0.041,0.02153 0.0633,0.02797 0.046,0.01362 0.11136,-0.0035 0.15811,-0.0064 0.0712,-0.005 0.1524,-0.03515 0.21424,-0.06976 0.0195,-0.01068 0.0324,-0.02374 0.0482,-0.03884 0.0559,-0.05246 0.12221,-0.09276 0.1754,-0.150191 0.0646,-0.07049 0.11209,-0.146694 0.16326,-0.225103 0.0401,-0.06184 0.074,-0.116508 0.1027,-0.182585 0.0166,-0.03736 0.0316,-0.06258 0.0396,-0.102152 0.0109,-0.05393 0.023,-0.106386 0.0351,-0.160314 0.0304,-0.130866 0.0569,-0.284738 0.0173,-0.411186 -0.0366,-0.12019 -0.0777,-0.237987 -0.16326,-0.334433 -0.025,-0.02724 -0.0537,-0.06184 -0.0883,-0.08117 -0.0265,-0.01583 -0.0574,-0.0208 -0.0834,-0.0381 -0.023,-0.01509 -0.0396,-0.02724 -0.0655,-0.03736 -0.0431,-0.01583 -0.0826,-0.02871 -0.12865,-0.0381 -0.0554,-0.01233 -0.10639,-0.03534 -0.16179,-0.04749 -0.0517,-0.01159 -0.0941,-0.02871 -0.13583,-0.05614 -0.0468,-0.03092 -0.0799,-0.07031 -0.13234,-0.09626 -0.0928,-0.04454 -0.13289,-0.107857 -0.15958,-0.197678 -0.0287,-0.09718 -0.0344,-0.1905 -0.041,-0.291915 -0.004,-0.07546 0.0633,-0.148167 0.10657,-0.213507 0.023,-0.03534 0.0438,-0.06847 0.0703,-0.10068 0.009,-0.01086 0.0324,-0.03608 0.0296,-0.05043 -0.004,-0.01785 -0.0403,-0.0265 -0.0561,-0.03515 -0.0215,-0.01362 -0.0433,-0.02742 -0.0655,-0.03957 -0.0193,-0.01086 -0.0223,-0.0173 -0.0453,-0.0079 -0.0179,0.0079 -0.0495,0.03589 -0.0683,0.04822 -0.051,0.03295 -0.0841,0.05393 -0.12001,0.09994 -0.026,0.03295 -0.0576,0.0589 -0.0863,0.09056 -0.0324,0.03442 -0.051,0.07988 -0.0712,0.119269 -0.0158,0.0289 -0.0322,0.0554 -0.0388,0.08632 -0.006,0.02945 -0.0107,0.05687 -0.007,0.08632 0.003,0.03515 -0.0151,0.06755 -0.0121,0.102152 0.002,0.03148 0.0215,0.06755 0.0302,0.09774 0.0116,0.03884 0.0245,0.07105 0.0423,0.106385 0.0158,0.0324 0.0296,0.06461 0.0489,0.09497 0.0267,0.03939 0.0633,0.06313 0.10216,0.09332 0.092,0.07197 0.20927,0.115037 0.30479,0.18277 0.095,0.06681 0.18976,0.131417 0.27038,0.215532 0.0201,0.02227 0.0409,0.04325 0.0639,0.06111 0.0396,0.03092 0.0836,0.0554 0.12442,0.08356 0.0425,0.02945 0.0604,0.06681 0.0856,0.109146 0.0245,0.04178 0.0475,0.08412 0.074,0.123687 0.026,0.03663 0.0403,0.06755 0.0534,0.110067 0.0164,0.05466 0.0157,0.08761 -0.001,0.140804 -0.0173,0.05467 -0.0316,0.103625 -0.0583,0.153873 -0.0322,0.06184 -0.0366,0.126632 -0.0826,0.181297 -0.0554,0.06608 -0.11577,0.105649 -0.1905,0.140252 -0.0532,0.02356 -0.11504,0.03515 -0.17117,0.05172 -0.0431,0.01288 -0.0883,0.02301 -0.12939,0.04086 -0.0238,0.01086 -0.0446,0.02522 -0.0712,0.02522 -0.0711,0.0022 -0.14007,-0.05319 -0.16032,-0.120006 -0.0193,-0.06829 -0.0272,-0.133074 -0.0136,-0.204304 0.0116,-0.0624 0.028,-0.104913 0.0596,-0.158842 -0.0388,0.03387 -0.0718,0.06184 -0.10565,0.101416 -0.0388,0.04601 -0.0819,0.06829 -0.0826,0.135098 0,0.06755 0.0302,0.136019 0.0495,0.200623 0.007,0.02301 0.0109,0.05098 0.023,0.07123 0.005,0.0094 0.0145,0.01288 0.0202,0.02374 0.005,0.0094 0.006,0.02301 0.009,0.03368 0.007,0.02522 0.0129,0.05466 0.0265,0.07767 0.006,0.01086 0.0151,0.0173 0.0208,0.02945 0.004,0.01086 0.003,0.02448 0.009,0.0346 0.026,0.04528 0.0734,0.05743 0.113,0.08706 0.0136,0.0099 0.028,0.02006 0.0431,0.02798"
       style="fill:#21201d;fill-opacity:1;fill-rule:nonzero;stroke:none;stroke-width:0.184057"
       id="path572" />
    <path
       d="m 358.12637,-68.809566 c 0.003,0.01288 0.007,0.02651 0.0101,0.0381 0.0144,0.06037 0.0129,0.135099 0.0374,0.192709 0.026,0.06184 0.0734,0.097 0.13455,0.123687 0.0388,0.01583 0.0675,0.04013 0.11062,0.04804 0.0418,0.0087 0.0863,0.0094 0.12865,0.0072 0.0871,-0.0035 0.19934,-0.05669 0.23872,-0.138043 0.0144,-0.02945 0.0195,-0.09626 0.003,-0.124239 -0.0166,-0.02963 -0.0655,-0.02743 -0.0762,-0.05319 -0.004,-0.0074 10e-4,-0.02522 0,-0.0346 -0.003,-0.0087 -0.0116,-0.01141 -0.0136,-0.0208 -0.006,-0.02374 0.004,-0.04399 -0.008,-0.06755 0.0265,-0.01086 0.0539,0.0042 0.0797,0.01141 0.0309,0.0094 0.0633,0.0116 0.0928,0.02374 0.0618,0.02595 0.10639,0.05025 0.14891,0.103441 0.0604,0.07841 0.0295,0.205777 -0.0359,0.277559 -0.092,0.102889 -0.23007,0.130129 -0.3567,0.159578 -0.164,0.03828 -0.35873,0.0074 -0.51481,-0.05098 -0.0777,-0.02871 -0.16602,-0.06829 -0.21498,-0.140805 -0.0331,-0.04969 -0.0488,-0.125895 -0.0611,-0.184058 -0.0129,-0.06552 -0.0237,-0.12019 -0.0237,-0.187739 7e-4,-0.04233 -0.006,-0.08485 -0.006,-0.127184 0,-0.01804 -10e-4,-0.04675 0.009,-0.06184 0.005,-0.0072 0.0129,-0.0029 0.018,-0.0079 0.0136,-0.01436 0.0265,-0.03019 0.0337,-0.05117 0.0309,-0.08264 0.0374,-0.173199 0.0712,-0.255105 0.0245,-0.06184 0.0626,-0.117245 0.0935,-0.175591 0.0265,-0.04951 0.0552,-0.08264 0.1027,-0.113564 0.0677,-0.04381 0.11946,-0.100679 0.1905,-0.138043 0.0613,-0.03221 0.12663,-0.08761 0.19345,-0.09921 0.0655,-0.01215 0.14319,-0.0042 0.21,-0.0064 0.0619,-0.0015 0.10713,0.01509 0.16676,0.02743 0.0576,0.01288 0.10362,0.0077 0.15534,0.03736 0.0245,0.01436 0.0532,0.0208 0.0777,0.03368 0.0237,0.01233 0.0302,0.0324 0.0423,0.05687 0.006,0.01215 0.0188,0.02577 0.0245,0.03736 0.0151,0.03589 0.0339,0.07326 0.0503,0.111355 0.0195,0.04473 0.0447,0.09148 0.0576,0.137491 0.009,0.02945 0.0166,0.097 0.007,0.124975 -0.0114,-0.0079 -0.0114,-0.02798 -0.0201,-0.04086 -0.0166,-0.02172 -0.0403,-0.03957 -0.0576,-0.06332 -0.0344,-0.04749 -0.0769,-0.0727 -0.12866,-0.10068 -0.0517,-0.02871 -0.10712,-0.06902 -0.16473,-0.08338 -0.0445,-0.01086 -0.0732,-0.04528 -0.12074,-0.04602 -0.0639,-0.0015 -0.13656,0.0042 -0.19694,0.02153 -0.14172,0.04105 -0.28473,0.153136 -0.35872,0.281056 -0.0512,0.0878 -0.0992,0.18277 -0.10933,0.285474 -0.005,0.04601 0.006,0.07841 0.0165,0.120742 0.002,0.0094 0.009,0.03736 0.002,0.04601 -0.007,0.0094 -0.0129,-7.4e-4 -0.0201,0.0052 -0.0114,0.0086 -0.0151,0.0079 -0.0193,0.02429 -0.003,0.01086 -0.002,0.02374 0.001,0.03608"
       style="fill:#21201d;fill-opacity:1;fill-rule:nonzero;stroke:none;stroke-width:0.184057"
       id="path574" />
    <path
       d="m 358.4284,-67.437046 c -0.0482,-0.0057 -0.092,-0.01012 -0.13877,-0.02816 -0.0488,-0.01859 -0.0985,-0.0381 -0.15019,-0.04804 -0.0237,-0.0044 -0.0504,-0.0015 -0.0734,-0.0064 -0.023,-0.0052 -0.0453,-0.02595 -0.0653,-0.0381 -0.0403,-0.02595 -0.0814,-0.04969 -0.12663,-0.06405 -0.0525,-0.01583 -0.10068,-0.04896 -0.15093,-0.07197 -0.0438,-0.01933 -0.0747,-0.02724 -0.12,-0.03589 -0.0663,-0.01362 -0.13308,-0.01086 -0.20136,-0.01086 -0.049,0 -0.097,-7.41e-4 -0.14522,-7.41e-4 -0.0532,7.41e-4 -0.0957,0.01878 -0.14173,0.04546 -0.0819,0.0473 -0.13435,0.107122 -0.19693,0.178168 -0.0517,0.05835 -0.0799,0.135283 -0.11577,0.203569 -0.0302,0.05669 -0.0403,0.117244 -0.0554,0.17964 -0.0158,0.07123 -0.0129,0.140988 -0.0129,0.213691 0,0.05246 -0.002,0.09056 0.0339,0.135099 0.023,0.02871 0.0525,0.05025 0.0762,0.07914 0.0257,0.03221 0.0467,0.07031 0.0725,0.101968 0.0144,0.01877 0.0309,0.03607 0.0512,0.04822 0.0136,0.0079 0.0309,0.01086 0.0423,0.02006 -0.0331,-0.02374 -0.0641,-0.0762 -0.0812,-0.1143 -0.0245,-0.05466 -0.0274,-0.117797 -0.0302,-0.177616 -0.001,-0.05669 -0.0116,-0.120005 0.008,-0.176143 0.0136,-0.04013 0.0381,-0.07473 0.048,-0.117061 0.0144,-0.06184 0.0208,-0.12019 0.0626,-0.17191 0.0641,-0.08191 0.15092,-0.159578 0.25381,-0.191972 0.0547,-0.0173 0.12222,-0.01215 0.17762,0.0029 0.0272,0.0064 0.0567,0.0099 0.0834,0.01932 0.0388,0.01362 0.0683,0.04896 0.10639,0.06755 0.0547,0.02595 0.11154,0.05908 0.16105,0.09424 0.0252,0.01804 0.0445,0.04601 0.0655,0.06829 0.0295,0.02871 0.0646,0.03534 0.092,0.06111 0.0624,0.05761 0.16528,0.07546 0.24719,0.06479 0.0302,-0.0044 0.0554,-0.01951 0.0848,-0.02522 0.044,-0.0087 0.0913,-0.0029 0.13602,-0.0029 0.0374,0 0.0755,-0.0013 0.11357,-5.64e-4 0.0396,5.64e-4 0.0777,0.01362 0.11706,0.01362 0.0339,0.0015 0.0662,-0.0072 0.0992,-0.01233 0.0346,-0.0057 0.0784,-0.0243 0.11007,-0.0381 0.0388,-0.01712 0.0856,-0.03092 0.11724,-0.0589 0.0302,-0.02651 0.0561,-0.05816 0.092,-0.08264 0.0366,-0.02669 0.0977,-0.05043 0.12148,-0.08982 0.0208,-0.03387 0.0129,-0.08135 0.0129,-0.118717 0,-0.02945 0.004,-0.06037 7.1e-4,-0.08982 -10e-4,-0.02595 -0.0129,-0.05117 -0.0151,-0.07694 -0.003,-0.04896 0.002,-0.102152 -0.033,-0.140989 -0.0383,-0.04233 -0.0605,-0.0797 -0.11374,-0.102704 -0.0238,-0.01012 -0.0366,-0.01307 -0.0618,-0.0138 -0.025,-7.41e-4 -0.0473,-0.01067 -0.071,-0.01141 -0.018,0 -0.0453,0.01013 -0.0641,0.01509 -0.0201,0.0057 -0.0388,0.0072 -0.0589,0.01215 -0.008,0.0015 -0.0584,0.02227 -0.0618,0.0289 -0.0223,0.03368 0.0495,0.0243 0.0653,0.02724 0.0361,0.0079 0.0784,0.01804 0.11081,0.03387 0.0294,0.01436 0.0618,0.03939 0.0826,0.05964 0.0136,0.01288 0.0381,0.03442 0.049,0.05393 0.0164,0.03166 -0.007,0.0762 -0.0282,0.102704 -0.0136,0.01878 -0.0344,0.03092 -0.0488,0.0497 -0.0109,0.01288 -0.0151,0.02871 -0.026,0.0416 -0.0525,0.06332 -0.14099,0.04031 -0.20928,0.06773 -0.0237,0.0092 -0.0401,0.02724 -0.0626,0.03939 -0.0696,0.03884 -0.1502,-0.0013 -0.22271,-0.0099 -0.004,0 -0.008,-7.41e-4 -0.0116,-7.41e-4"
       style="fill:#21201d;fill-opacity:1;fill-rule:nonzero;stroke:none;stroke-width:0.184057"
       id="path576" />
    <path
       d="m 362.53654,-65.897769 c -0.003,7.41e-4 -0.006,0.0015 -0.008,0.0015 0.0144,-0.01657 0.018,-0.03884 0.0245,-0.05963 0.0109,-0.03313 0.0252,-0.06184 0.0388,-0.09424 0.0202,-0.04307 0.0245,-0.09129 0.041,-0.135835 0.0166,-0.04528 0.0351,-0.0935 0.0582,-0.138043 0.0215,-0.04104 0.0433,-0.08283 0.0633,-0.124423 0.0331,-0.0705 0.0589,-0.150192 0.095,-0.21995 0.007,-0.01509 0.0136,-0.01657 0.0179,-0.03313 0.003,-0.01436 -7.1e-4,-0.03387 -7.1e-4,-0.04896 0,-0.05172 0.003,-0.10068 -0.01,-0.151664 -0.0138,-0.05246 -0.0267,-0.110067 -0.0447,-0.161051 -0.0121,-0.03387 -0.0374,-0.07252 -0.0574,-0.102704 -0.0173,-0.02595 -0.0403,-0.04546 -0.0661,-0.06258 -0.0145,-0.0029 -0.0274,-0.0094 -0.0381,-0.01951 -0.0109,-0.01436 -0.0225,-0.02798 -0.0346,-0.04031 -0.049,-0.03368 -0.12074,-0.05393 -0.17835,-0.05319 -0.0351,7.41e-4 -0.0718,-0.0042 -0.10712,0.0022 -0.028,0.0057 -0.0547,0.0173 -0.0834,0.02301 -0.0324,0.005 -0.0561,0 -0.0871,0.01435 -0.0394,0.01804 -0.0747,0.04031 -0.11504,0.05687 -0.074,0.02871 -0.27884,0.136571 -0.19252,0.244429 0.0144,0.01804 0.028,0.0324 0.0416,0.05172 0.0101,0.01435 0.026,0.03736 0.0467,0.03387 -0.0388,-0.0015 -0.0661,0.01583 -0.10565,0.01362 -0.0418,-0.0022 -0.0906,-0.02227 -0.12737,-0.04454 -0.0545,-0.03313 -0.069,-0.102152 -0.0891,-0.158842 -0.0193,-0.05393 -0.0339,-0.130313 -0.001,-0.182033 0.0512,-0.08264 0.14816,-0.142277 0.23154,-0.188292 0.10068,-0.05761 0.20486,-0.112275 0.31989,-0.138779 0.0979,-0.02227 0.19565,-0.01583 0.29486,-0.01657 0.0826,-0.0015 0.18258,0.005 0.25731,0.04307 0.0368,0.01804 0.0727,0.03607 0.0979,0.06847 0.0151,0.01859 0.0243,0.04233 0.0416,0.05963 0.0359,0.03442 0.0727,0.04601 0.0985,0.09129 0.0467,0.08264 0.0935,0.165284 0.12295,0.255288 0.0331,0.102705 0.0467,0.201912 0.046,0.310506 0,0.06552 0.006,0.132338 0,0.196942 -0.006,0.05319 -0.0295,0.107122 -0.0445,0.15829 -0.0107,0.04013 -0.0359,0.07841 -0.0547,0.115036 -0.023,0.04454 -0.0316,0.09479 -0.0646,0.131601 -0.0626,0.06902 -0.11946,0.145958 -0.19345,0.203385 -0.0425,0.03313 -0.0791,0.07049 -0.12,0.102888 -0.0396,0.03018 -0.0915,0.04804 -0.13952,0.05964 -7e-4,-0.0029 -7e-4,-0.0057 -10e-4,-0.0079"
       style="fill:#21201d;fill-opacity:1;fill-rule:nonzero;stroke:none;stroke-width:0.184057"
       id="path578" />
  </g>
</svg>
