<?xml version="1.0" encoding="UTF-8" standalone="no"?>
<!-- Created with Inkscape (http://www.inkscape.org/) -->

<svg
   width="6.7659483mm"
   height="6.490746mm"
   viewBox="0 0 6.7659483 6.490746"
   version="1.1"
   id="svg2232"
   inkscape:version="1.1.2 (0a00cf5339, 2022-02-04)"
   sodipodi:docname="c13.svg"
   xmlns:inkscape="http://www.inkscape.org/namespaces/inkscape"
   xmlns:sodipodi="http://sodipodi.sourceforge.net/DTD/sodipodi-0.dtd"
   xmlns="http://www.w3.org/2000/svg"
   xmlns:svg="http://www.w3.org/2000/svg">
  <sodipodi:namedview
     id="namedview2234"
     pagecolor="#ffffff"
     bordercolor="#666666"
     borderopacity="1.0"
     inkscape:pageshadow="2"
     inkscape:pageopacity="0.0"
     inkscape:pagecheckerboard="0"
     inkscape:document-units="mm"
     showgrid="false"
     inkscape:zoom="0.64052329"
     inkscape:cx="-1412.9073"
     inkscape:cy="628.39245"
     inkscape:window-width="2560"
     inkscape:window-height="1376"
     inkscape:window-x="0"
     inkscape:window-y="0"
     inkscape:window-maximized="1"
     inkscape:current-layer="layer1" />
  <defs
     id="defs2229" />
  <g
     inkscape:label="Layer 1"
     inkscape:groupmode="layer"
     id="layer1"
     transform="translate(-478.67403,17.702948)">
    <path
       d="m 479.79918,-16.392806 c 0.0467,-0.01804 0.0915,-0.03957 0.13455,-0.06552 0.0725,-0.04381 0.1524,-0.06755 0.22511,-0.110619 0.0639,-0.03755 0.13508,-0.05835 0.20189,-0.08927 0.0317,-0.01509 0.0569,-0.03957 0.0871,-0.0554 0.0467,-0.02374 0.097,-0.0243 0.13952,-0.05964 0.0243,-0.01932 0.0416,-0.04104 0.069,-0.05669 0.0258,-0.01509 0.051,-0.02963 0.0755,-0.04473 0.0236,-0.01288 0.0409,-0.02724 0.0611,-0.04381 0.0208,-0.01583 0.0339,-0.01657 0.0547,-0.02651 0.0257,-0.01454 0.0401,-0.03534 0.069,-0.04546 0.0272,-0.01067 0.0446,-0.02503 0.0668,-0.04657 0.0286,-0.02816 0.0423,-0.06405 0.0618,-0.09939 0.0626,-0.1143 0.14672,-0.240748 0.24221,-0.330568 0.0539,-0.05043 0.1373,-0.08927 0.17413,-0.155345 0.0152,-0.02522 0.0201,-0.05614 0.0353,-0.08062 0.0475,0.0066 0.0668,0.0381 0.11007,0.05761 0.0683,0.03018 0.12001,0.07123 0.16824,0.130129 0.0611,0.0762 0.11705,0.151664 0.17836,0.227864 0.0169,0.02153 0.0401,0.03608 0.0574,0.05687 0.0215,0.02724 0.0367,0.05669 0.0597,0.08338 0.0303,0.03442 0.0648,0.05669 0.0935,0.09056 0.0374,0.04454 0.0784,0.08338 0.11726,0.125159 0.0173,0.01933 0.0265,0.04233 0.0431,0.06111 0.0123,0.01436 0.0504,0.04675 0.0346,0.07325 -0.007,0.01233 -0.0625,0.01878 -0.0769,0.02153 -0.0293,0.0059 -0.0554,0 -0.0856,0.0079 -0.046,0.01233 -0.0863,0.03018 -0.12866,0.05043 -0.0633,0.03018 -0.12516,0.04454 -0.18408,0.08632 -0.1338,0.09553 -0.3013,0.135099 -0.43935,0.224919 -0.0648,0.04252 -0.14668,0.07491 -0.20411,0.125159 -0.0633,0.0554 -0.13159,0.09921 -0.20059,0.147431 -0.0762,0.05393 -0.15314,0.107858 -0.22934,0.160314 -0.10069,0.06976 -0.20211,0.133626 -0.28695,0.222894 -0.074,0.07694 -0.13438,0.166757 -0.19347,0.255104 -0.0187,0.02816 -0.0408,0.05043 -0.0566,0.08062 -0.0131,0.02227 -0.0229,0.05246 -0.0403,0.07123 -0.0261,0.02724 -0.0482,0.01657 -0.0747,0.0013 -0.0353,-0.0208 -0.0727,-0.04601 -0.10143,-0.0762 -0.0366,-0.0381 -0.0655,-0.08614 -0.10216,-0.125711 -0.0525,-0.0589 -0.10933,-0.115772 -0.15882,-0.176144 -0.0784,-0.09571 -0.13586,-0.206328 -0.21795,-0.298358 -0.0324,-0.03663 -0.0631,-0.07491 -0.0947,-0.113011 -0.0131,-0.01436 -0.0244,-0.03092 -0.0353,-0.0473 -0.01,-0.0138 -0.0396,-0.04473 -0.0403,-0.06037 -0.004,-0.03092 0.0972,-0.06479 0.13088,-0.07565 0.0454,-0.01436 0.0927,-0.02374 0.13804,-0.03663 0.0418,-0.01215 0.0828,-0.02577 0.12294,-0.0416"
       style="fill:#21201d;fill-opacity:1;fill-rule:nonzero;stroke:none;stroke-width:0.184057"
       id="path600" />
    <path
       d="m 480.77137,-16.141935 c -0.0109,0.0042 -0.0222,0.01012 -0.0332,0.01509 -0.0324,0.01436 -0.0727,0.02153 -0.10713,0.03313 -0.0258,0.0079 -0.049,0.03221 -0.074,0.03368 0.004,0.03884 0.0769,0.03884 0.10491,0.04601 0.0517,0.01288 0.10785,0.01362 0.15664,0.03387 0.0433,0.01657 0.0843,0.04381 0.12238,0.06902 0.0631,0.0416 0.12075,0.0935 0.17818,0.141541 0.1741,0.141724 0.32925,0.307009 0.47816,0.475237 0.24444,0.27756 0.44655,0.584568 0.67292,0.87722 0.0813,0.104913 0.16105,0.21001 0.24091,0.31566 0.0733,0.09479 0.1294,0.206329 0.21058,0.29394 0.046,0.0497 0.0992,0.08706 0.15039,0.130129 0.0159,0.01307 0.0335,0.0381 0.0546,0.03681 0.0208,-0.04325 0.0854,-0.07988 0.1222,-0.109331 0.0293,-0.02374 0.0661,-0.03957 0.0928,-0.06608 0.0173,-0.01657 0.0321,-0.03681 0.0328,-0.05982 0,-0.04086 -0.0258,-0.107858 -0.0359,-0.145958 -0.0906,-0.360202 -0.48539,-0.547757 -0.71544,-0.807278 -0.0827,-0.09276 -0.14227,-0.200623 -0.22288,-0.294861 -0.10199,-0.117981 -0.19198,-0.240196 -0.27609,-0.372349 -0.0913,-0.140989 -0.18683,-0.281241 -0.29764,-0.408425 -0.0561,-0.06479 -0.11796,-0.124423 -0.17317,-0.189763 -0.0282,-0.0324 -0.0482,-0.06111 -0.0539,-0.103625 -0.008,-0.05816 0.004,-0.116509 0,-0.173935 0,-0.05963 -0.0152,-0.124423 0.004,-0.182585 0.041,0.0079 -0.0113,0.03368 -0.0222,0.04012 -0.0359,0.02098 -0.0561,0.05835 -0.092,0.07841 -0.0254,0.01436 -0.049,0.0173 -0.074,0.03736 -0.0194,0.01509 -0.0339,0.03736 -0.0554,0.0497 -0.0222,0.01288 -0.0468,0.01804 -0.069,0.0324 -0.0286,0.01859 -0.0554,0.04233 -0.0819,0.06184 -0.0376,0.02724 -0.0777,0.04877 -0.12168,0.06534 -0.0409,0.01509 -0.0782,0.03019 -0.11705,0.04749"
       style="fill:#21201d;fill-opacity:1;fill-rule:nonzero;stroke:none;stroke-width:0.184057"
       id="path602" />
    <path
       d="m 483.78455,-13.80532 c -0.0303,-0.0265 -0.0554,-0.05816 -0.0871,-0.08485 -0.03,-0.02522 -0.0646,-0.0416 -0.0942,-0.06829 -0.0303,-0.0265 -0.0552,-0.05614 -0.0898,-0.07767 -0.0431,-0.02797 -0.0747,-0.0589 -0.10714,-0.09847 -0.0303,-0.03515 -0.0633,-0.07252 -0.0999,-0.102153 -0.0265,-0.02227 -0.0581,-0.03589 -0.0856,-0.05816 -0.0416,-0.03313 -0.0812,-0.07049 -0.1222,-0.104177 -0.0317,-0.02742 -0.0408,-0.02669 -0.0769,-0.01951 -0.0328,0.0072 -0.0547,0.02448 -0.0856,0.03166 -0.0431,0.01141 -0.0789,0.03019 -0.1222,0.03884 -0.0166,0.0035 -0.0328,0.0064 -0.0488,0.01013 -0.0173,0.0035 -0.0289,-0.0022 -0.0433,-0.0022 -0.0321,-7.4e-4 -0.0381,0.0208 -0.0532,0.04675 0.004,7.41e-4 0.006,7.41e-4 0.008,0.0015 l -0.0438,0.204856 c 0.004,0.01859 -0.0123,0.03663 -0.0187,0.05393 -0.0173,0.04601 -0.031,0.08632 -0.0611,0.122951 -0.018,0.02301 -0.048,0.06608 -0.0423,0.100679 0.004,0.01859 0.0166,0.03736 0.0265,0.05319 0.0368,0.05669 0.0697,0.116509 0.10859,0.171727 0.16824,0.234489 0.3659,0.445788 0.53929,0.675124 0.0784,0.104361 0.14869,0.217188 0.23283,0.317131 0.0769,0.09203 0.16545,0.156082 0.25308,0.235043 0.0764,0.06902 0.14464,0.146694 0.22233,0.213691 0.0683,0.0589 0.13215,0.122766 0.19547,0.186819 0.0359,0.0346 0.0633,0.06902 0.10287,0.101415 0.0257,0.0208 0.0532,0.04031 0.0797,0.06111 0.0518,0.03957 0.10936,0.07473 0.15886,0.115772 0.0254,0.02227 0.046,0.04878 0.0712,0.07178 0.0261,0.02172 0.0517,0.04252 0.0755,0.06552 0.0539,0.05025 0.11377,0.0935 0.16824,0.14375 0.0388,0.03608 0.0769,0.07123 0.11578,0.106385 0.0236,0.02098 0.0433,0.02172 0.0683,0.0381 0.0187,0.01233 0.0376,0.02522 0.0554,0.0324 0.03,0.01288 0.0482,0 0.0769,0.0015 0.0286,0.0015 0.0576,0.0035 0.0856,0.0064 0.051,0.0037 0.11134,-0.01657 0.15734,-0.02797 0.067,-0.01583 0.09,-0.104361 0.0841,-0.171911 -0.005,-0.06681 0.004,-0.135834 -0.008,-0.201359 -0.0109,-0.0624 -0.0455,-0.130129 -0.0677,-0.191972 -0.0272,-0.07749 -0.0488,-0.158842 -0.0941,-0.230073 -0.0243,-0.0381 -0.0433,-0.07694 -0.072,-0.112091 -0.0418,-0.05172 -0.0871,-0.104913 -0.13088,-0.154608 -0.031,-0.03442 -0.0668,-0.06111 -0.0955,-0.09774 -0.0561,-0.0705 -0.11373,-0.141725 -0.17116,-0.212035 -0.0293,-0.03681 -0.0641,-0.067 -0.0957,-0.101416 -0.0552,-0.05835 -0.10418,-0.123687 -0.15663,-0.184058 -0.0856,-0.09774 -0.14891,-0.205593 -0.22141,-0.311426 -0.0698,-0.101968 -0.1561,-0.193261 -0.22877,-0.294677 -0.0279,-0.03957 -0.0582,-0.0762 -0.092,-0.111539 -0.0431,-0.04528 -0.077,-0.08835 -0.1143,-0.139332 -0.018,-0.02374 -0.0353,-0.0324 -0.0567,-0.05043"
       style="fill:#21201d;fill-opacity:1;fill-rule:nonzero;stroke:none;stroke-width:0.184057"
       id="path604" />
    <path
       d="m 478.67403,-13.626967 c 0.005,0.133073 0.0222,0.267435 0.0517,0.396828 0.0505,0.221422 0.0965,0.434377 0.18059,0.644939 0.0668,0.166021 0.18404,0.309954 0.28747,0.454439 0.0539,0.07473 0.12295,0.125712 0.19068,0.187555 0.0466,0.04325 0.0985,0.08632 0.15166,0.120926 0.0589,0.0381 0.13363,0.06111 0.20062,0.08264 0.0559,0.01785 0.0847,0 0.13014,-0.03166 0.0215,-0.01583 0.0229,-0.0346 0.0401,-0.0554 0.0117,-0.01288 0.0303,-0.01933 0.0418,-0.03368 0.0166,-0.01878 0.0194,-0.04473 0.0353,-0.06405 0.0418,-0.04969 0.10858,-0.07841 0.15388,-0.126632 -0.0495,0.0037 -0.0574,-0.01215 -0.0963,-0.04012 -0.0187,-0.0138 -0.0254,-0.02595 -0.0418,-0.04105 -0.0169,-0.01657 -0.0403,-0.02374 -0.0582,-0.04031 -0.0569,-0.05098 -0.11578,-0.09203 -0.16326,-0.151664 -0.0286,-0.03515 -0.0475,-0.07197 -0.069,-0.111355 -0.0261,-0.04822 -0.0633,-0.08853 -0.0891,-0.136755 -0.0525,-0.09773 -0.14249,-0.178168 -0.20782,-0.2667 -0.0325,-0.04233 -0.0683,-0.08264 -0.0964,-0.12792 -0.0279,-0.04601 -0.0468,-0.09645 -0.0782,-0.141724 -0.0268,-0.0381 -0.0361,-0.06534 -0.0475,-0.110619 -0.0109,-0.04178 -0.0339,-0.06755 -0.0525,-0.104361 -0.0317,-0.05816 -0.0381,-0.125712 -0.0576,-0.189028 -0.0208,-0.06828 -0.0229,-0.137307 -0.0374,-0.205592 -0.005,-0.02153 -0.004,-0.04105 -0.004,-0.06258 -0.004,-0.03019 -0.0145,-0.05098 -0.0173,-0.08062 -0.005,-0.04086 0.006,-0.04233 -0.0258,-0.06037 -0.018,-0.0092 -0.0236,-0.0099 -0.0453,-0.0092 -0.051,0.002 -0.092,0.0042 -0.13949,-0.0138 -0.0236,-0.0099 -0.092,-0.04951 -0.11504,-0.03442 -0.007,0.005 -0.0152,0.06111 -0.0152,0.06828 -0.004,0.0324 0.004,0.06755 0.004,0.09994 0,0.05025 0.0166,0.09203 0.0173,0.14154 0,0.03755 0,0.07491 -0.0275,0.04252"
       style="fill:#21201d;fill-opacity:1;fill-rule:nonzero;stroke:none;stroke-width:0.184057"
       id="path606" />
    <path
       d="m 479.13564,-13.046081 c -0.004,-0.0028 -0.004,-0.0057 -0.006,-0.0079 -0.0339,-0.05246 -0.0633,-0.104177 -0.0999,-0.155345 -0.0194,-0.02798 -0.0504,-0.05025 -0.067,-0.0797 0.0339,0.02871 0.11575,0.02375 0.15681,0.02945 0.064,0.0094 0.1373,0.0037 0.20133,-0.0015 0.0518,-0.0035 0.10143,-0.01657 0.1517,-0.02651 0.0423,-0.0072 0.0878,-0.0029 0.12717,-0.01804 0.14319,-0.05687 0.27753,-0.13381 0.41557,-0.202096 0.11505,-0.05669 0.23231,-0.111355 0.34163,-0.177616 0.15883,-0.09553 0.34788,-0.172462 0.48444,-0.297621 0.044,-0.04012 0.11007,-0.06829 0.16619,-0.03221 0.0229,0.01509 0.0396,0.03939 0.0547,0.0624 0.01,0.0138 0.0201,0.02963 0.0293,0.04399 0.0138,0.02374 0.0229,0.04878 0.0367,0.07252 0.018,0.02945 0.051,0.05467 0.0611,0.08853 0.006,0.01712 0,0.04012 0,0.05816 0.004,0.02595 0.0194,0.03166 0.004,0.05319 -0.0187,0.02374 -0.072,0.04307 -0.0965,0.05466 -0.0495,0.02374 -0.0999,0.04528 -0.14743,0.07123 -0.12294,0.06534 -0.26155,0.09129 -0.38594,0.157369 -0.069,0.03589 -0.13236,0.08062 -0.19713,0.123687 -0.0632,0.04178 -0.13088,0.07344 -0.19325,0.116509 -0.0893,0.06184 -0.17688,0.126448 -0.27041,0.181113 -0.0697,0.04105 -0.1222,0.07915 -0.17758,0.139516 -0.0254,0.02797 -0.0353,0.06111 -0.0554,0.08982 -0.025,0.0346 -0.0539,0.07915 -0.0631,0.122951 -0.0109,0.0519 0.0293,0.09571 0.0138,0.144485 -0.01,-0.002 -0.0296,-0.04233 -0.0403,-0.05393 -0.0286,-0.03295 -0.0648,-0.06534 -0.0977,-0.09332 -0.0727,-0.06332 -0.13603,-0.130129 -0.18553,-0.212219 -0.0524,-0.08687 -0.10714,-0.167492 -0.16108,-0.251607"
       style="fill:#21201d;fill-opacity:1;fill-rule:nonzero;stroke:none;stroke-width:0.184057"
       id="path608" />
    <path
       d="m 485.31959,-16.394278 c -0.0376,0.02577 -0.0836,0.03515 -0.11875,0.05963 -0.0272,0.01933 -0.0374,0.04749 -0.0611,0.06976 -0.0611,0.05614 -0.15737,0.10068 -0.23079,0.141541 -0.12442,0.06847 -0.25089,0.132338 -0.37528,0.197862 -0.1561,0.08264 -0.31916,0.153873 -0.4723,0.240748 -0.13162,0.07546 -0.25749,0.146694 -0.39405,0.212219 l -1.05043,0.565057 c -0.12002,0.06332 -0.24017,0.123687 -0.36167,0.181114 -0.11779,0.05117 -0.23358,0.106385 -0.34731,0.166756 -0.16602,0.09424 -0.32706,0.199335 -0.49163,0.296333 -0.2963,0.171726 -0.59172,0.345109 -0.8829,0.525486 -0.0885,0.05466 -0.17487,0.118717 -0.26744,0.16694 -0.0226,0.01068 -0.0455,0.0208 -0.0591,0.03736 0.0212,-0.05393 -0.0159,-0.02227 -0.0408,-0.0059 -0.0425,0.02963 -0.0848,0.06129 -0.12884,0.09 -0.0408,0.02577 -0.1084,0.05669 -0.13804,0.09405 0.0318,0.03608 0.0388,0.08356 0.069,0.119454 0.0194,0.02374 0.0641,0.06534 0.10438,0.07049 0.0366,0.0042 0.0328,-0.0079 0.0653,-0.03092 0.0215,-0.01583 0.0576,-0.02743 0.0826,-0.0346 0.1259,-0.04086 0.26543,-0.09774 0.38266,-0.164548 0.10989,-0.06258 0.21205,-0.130865 0.32265,-0.191236 0.10364,-0.05687 0.19861,-0.130865 0.29633,-0.195653 0.10933,-0.07178 0.2207,-0.139516 0.33221,-0.207801 0.20634,-0.125712 0.41469,-0.25308 0.62544,-0.37235 0.11927,-0.06828 0.23798,-0.140252 0.35874,-0.205592 0.1222,-0.06553 0.24514,-0.126632 0.36093,-0.202096 0.22362,-0.146694 0.44227,-0.29118 0.67288,-0.429223 0.19199,-0.115773 0.37533,-0.236514 0.56378,-0.355232 0.19988,-0.127184 0.42203,-0.227127 0.62046,-0.35652 0.10139,-0.06553 0.20133,-0.131602 0.30057,-0.199151 0.0396,-0.02595 0.11924,-0.06755 0.14796,-0.101416 0.0243,-0.02945 0.0145,-0.03589 0.0569,-0.06111 0.03,-0.01804 0.0497,-0.03589 0.0734,-0.06111 0.031,-0.03166 0.11561,-0.08853 0.10344,-0.122951 -0.041,0.0029 -0.0856,0.04031 -0.11924,0.06258"
       style="fill:#21201d;fill-opacity:1;fill-rule:nonzero;stroke:none;stroke-width:0.184057"
       id="path610" />
  </g>
</svg>
