<?xml version="1.0" encoding="UTF-8" standalone="no"?>
<!-- Created with Inkscape (http://www.inkscape.org/) -->

<svg
   width="6.5733223mm"
   height="7.3219967mm"
   viewBox="0 0 6.5733223 7.3219967"
   version="1.1"
   id="svg2410"
   inkscape:version="1.1.2 (0a00cf5339, 2022-02-04)"
   sodipodi:docname="c14.svg"
   xmlns:inkscape="http://www.inkscape.org/namespaces/inkscape"
   xmlns:sodipodi="http://sodipodi.sourceforge.net/DTD/sodipodi-0.dtd"
   xmlns="http://www.w3.org/2000/svg"
   xmlns:svg="http://www.w3.org/2000/svg">
  <sodipodi:namedview
     id="namedview2412"
     pagecolor="#ffffff"
     bordercolor="#666666"
     borderopacity="1.0"
     inkscape:pageshadow="2"
     inkscape:pageopacity="0.0"
     inkscape:pagecheckerboard="0"
     inkscape:document-units="mm"
     showgrid="false"
     inkscape:zoom="0.64052329"
     inkscape:cx="-1039.7748"
     inkscape:cy="316.14776"
     inkscape:window-width="2560"
     inkscape:window-height="1376"
     inkscape:window-x="0"
     inkscape:window-y="0"
     inkscape:window-maximized="1"
     inkscape:current-layer="layer1" />
  <defs
     id="defs2407" />
  <g
     inkscape:label="Layer 1"
     inkscape:groupmode="layer"
     id="layer1"
     transform="translate(-380.04586,-64.90923)">
    <path
       d="m 383.407,68.457531 c -0.0107,0.02081 -0.0331,0.01584 -0.0574,0.0151 -0.0453,0 -0.0906,7.06e-4 -0.13657,7.06e-4 -0.0252,0 -0.095,0.0094 -0.1051,-0.01013 -0.007,-0.01436 10e-4,-0.05025 10e-4,-0.06534 0,-0.01951 0.002,-0.03957 -10e-4,-0.05908 -0.004,-0.02078 -0.0193,-0.04233 -0.0129,-0.0646 0.006,-0.01951 0.0129,-0.0151 0.0396,-0.0151 0.0216,7.06e-4 0.0453,-0.0028 0.0653,0 0.0188,0.0014 0.0274,0.0079 0.0445,0.01143 0.0403,0.0072 0.0957,-7.05e-4 0.13731,-7.05e-4 l 0.0131,0.02099 c 0,0.04086 0.0121,0.07841 0.0129,0.117796 7.1e-4,0.01379 0.006,0.03608 -7e-4,0.04896 m 0.35523,-2.953576 c -0.0359,-0.05246 -0.069,-0.107121 -0.10713,-0.159579 -0.0339,-0.04528 -0.0497,-0.09773 -0.0878,-0.140987 -0.0409,-0.04675 -0.0812,-0.09405 -0.12295,-0.139334 -0.0401,-0.04325 -0.0683,-0.09939 -0.12645,-0.118716 -0.0324,-0.01161 -0.0712,-0.03164 -0.10491,-0.03589 -0.0109,-7.05e-4 -0.0217,0 -0.0316,0.0035 -0.0144,0.0052 -0.0131,0.0094 -0.0238,0.01584 0,7.05e-4 -7e-4,7.05e-4 -10e-4,0.0014 0.003,-0.0021 -0.0381,0.02374 -0.0294,0.0021 -0.0289,0.07325 7e-4,0.134363 0,0.207801 -7.1e-4,0.07547 0.002,0.150928 0.003,0.225654 0,0.04454 0.0101,0.09921 -0.004,0.142462 -0.006,0.02007 -0.0144,0.03221 -0.0158,0.05393 -0.004,0.0589 -0.006,0.119271 -0.0116,0.178167 -0.0121,0.120929 -0.0287,0.242404 -0.0337,0.363883 -0.004,0.113563 0.004,0.227863 -0.002,0.342163 -0.004,0.09498 -0.0186,0.191975 -0.0337,0.286949 -0.0101,0.05669 -0.0158,0.113563 -0.0131,0.171172 0.002,0.04951 0.0339,0.09203 0.0346,0.141541 7.1e-4,0.04822 -0.0131,0.09424 -0.0237,0.140988 -0.0109,0.04804 -0.013,0.097 -0.0195,0.145958 -0.009,0.06037 -0.0351,0.1143 -0.0532,0.172463 -0.0265,0.0819 -0.0178,0.170437 -0.0201,0.254553 -0.003,0.101414 -0.006,0.203384 -0.0116,0.3048 -0.004,0.06828 -0.0193,0.133809 -0.028,0.201359 -0.009,0.06902 0.006,0.14025 -0.0109,0.2078 -0.007,0.02797 -0.008,0.05467 -0.008,0.08412 -0.002,0.07123 -0.004,0.143746 0,0.214979 0.004,0.06608 0.023,0.1316 0.0438,0.194179 0.0193,0.0589 0.0252,0.119271 0.0517,0.176146 0.0223,0.04804 0.0589,0.08982 0.0878,0.135833 0.0251,0.04031 0.0317,0.08632 0.0618,0.124421 0.0272,0.03443 0.0596,0.06608 0.0782,0.104179 0.0145,0.02798 0.0554,0.07197 0.0569,0.102888 0.0252,-0.0044 0.0245,-0.03534 0.0351,-0.05117 0.0131,-0.01785 0.0316,-0.03221 0.044,-0.05246 0.0186,-0.0309 0.0322,-0.06258 0.0503,-0.0935 0.0274,-0.04878 0.0618,-0.09479 0.0871,-0.144487 0.023,-0.04675 0.0409,-0.09424 0.0633,-0.140805 0.0186,-0.04031 0.009,-0.07914 0.0344,-0.116508 0.0596,-0.09056 0.0438,-0.191971 0.0423,-0.290442 0,-0.05614 0.0153,-0.107121 0.0173,-0.162525 0.003,-0.0554 -7e-4,-0.112275 -7e-4,-0.167492 v -0.563033 c 0,-0.05025 0,-0.10215 0,-0.153137 0,-0.04233 -0.007,-0.09129 0.004,-0.133071 0.008,-0.02575 0.0287,-0.0473 0.0366,-0.07326 0.0144,-0.04307 0.005,-0.0935 0.005,-0.137305 -10e-4,-0.117246 -0.003,-0.234491 0,-0.35155 0.003,-0.142462 0.0618,-0.278296 0.0841,-0.420021 0.0274,-0.174671 -0.002,-0.35155 0.0144,-0.526958 0.008,-0.08908 0.009,-0.176145 0.0116,-0.265229 0.002,-0.0935 0.0344,-0.179825 -0.0223,-0.263938"
       style="fill:#21201d;fill-opacity:1;fill-rule:nonzero;stroke:none;stroke-width:0.184057"
       id="path580" />
    <path
       d="m 384.75944,68.509252 c -7e-4,0.01362 -0.004,0.02671 -0.004,0.04105 0,0.0079 -0.002,0.0151 -0.004,0.02374 0,0.0035 7e-4,0.0079 0,0.01214 -0.002,0.0057 -0.004,0.0021 -0.004,0.0094 -0.003,0.023 0.0116,0.05688 -0.0258,0.06608 -0.0339,0.0072 -0.0885,-7.06e-4 -0.12369,-7.06e-4 -0.0223,0 -0.0525,0.0052 -0.0734,7.06e-4 -0.0179,-0.0042 -0.0287,-0.0099 -0.0495,-0.01288 -7e-4,-0.01658 0.0114,-0.03443 0.0121,-0.05172 0.001,-0.02152 0,-0.0438 0,-0.06552 0,-0.02078 -0.01,-0.0589 0.0116,-0.07473 0.0121,-0.0086 0.0317,-0.0094 0.0468,-0.01013 0.0223,0 0.0446,7.06e-4 0.0668,0.0044 0.0294,0.0065 0.0641,0.0028 0.095,0.0028 0.01,0 0.0416,0.0044 0.0488,-0.0021 0.008,0.0042 0.004,0.01859 0.004,0.02505 0,0.01086 7e-4,0.02244 0,0.03238 m 0.26375,-1.537804 c -0.002,-0.06184 -0.0171,-0.122213 -0.0164,-0.184792 0,-0.05319 -7e-4,-0.107121 0,-0.159579 0,-0.105096 -0.0158,-0.207801 -0.0158,-0.3129 0,-0.04233 -7e-4,-0.08467 -7e-4,-0.127184 0,-0.0151 0.007,-0.05466 -7.1e-4,-0.07049 -0.003,-0.0065 -0.0144,-0.0065 -0.0173,-0.01288 -0.0107,-0.02522 0.004,-0.05687 -0.0136,-0.07988 -0.008,-0.0092 -0.0215,-0.01436 -0.0317,-0.02081 -0.0359,-0.02374 -0.072,-0.05025 -0.10288,-0.07988 -0.0653,-0.06387 -0.12792,-0.124975 -0.194,-0.18682 -0.0554,-0.05117 -0.10583,-0.144484 -0.19197,-0.139513 -0.10436,0.0065 -0.0532,0.230071 -0.0433,0.273875 l 0.0116,-0.06902 c -0.004,0.07915 0.004,0.162525 0.004,0.239459 v 0.600399 c 0,0.151663 0.009,0.306271 -10e-4,0.457934 -0.009,0.135837 -0.0346,0.270383 -0.044,0.406217 -0.0107,0.129391 -0.003,0.251608 -0.0324,0.380446 -0.025,0.112091 -0.048,0.217741 -0.0473,0.332041 0,0.07988 -0.0116,0.164733 0.003,0.244429 0.0131,0.06773 0.003,0.136755 0.0158,0.204304 0.0188,0.09774 0.002,0.195471 0.0116,0.293942 0.009,0.09571 0.0547,0.183321 0.0826,0.2748 0.006,0.02007 0.0201,0.03865 0.0252,0.05963 0.004,0.01785 0,0.03369 0.002,0.05172 0.004,0.03589 0.0252,0.06976 0.0324,0.104913 0.009,0.04325 0.0252,0.05761 0.0547,0.09424 0.0245,0.0302 0.0252,0.07399 0.0547,0.09994 0.0302,-0.0309 0.0475,-0.05743 0.0705,-0.09203 0.0129,-0.01933 0.0287,-0.02872 0.0416,-0.04896 0.026,-0.03736 0.0618,-0.06037 0.0769,-0.101966 0.0237,-0.06829 0.0468,-0.136571 0.0769,-0.203571 0.0339,-0.07178 0.0755,-0.139513 0.0799,-0.219212 0.006,-0.1143 -0.0101,-0.2286 0.006,-0.3429 0.009,-0.0611 0.0324,-0.120188 0.0388,-0.181296 0.008,-0.07123 0.0151,-0.146696 0.0173,-0.218476 0.005,-0.159762 -10e-4,-0.316396 0.0193,-0.475975 0.0195,-0.149637 0.0274,-0.299829 0.0274,-0.44947 0,-0.113563 0.004,-0.227126 7.1e-4,-0.340692"
       style="fill:#21201d;fill-opacity:1;fill-rule:nonzero;stroke:none;stroke-width:0.184057"
       id="path582" />
    <path
       d="m 385.90538,68.910498 c -0.0589,7.06e-4 -0.11136,0.01013 -0.16952,0.01013 -0.0626,7.05e-4 -0.0534,-0.0094 -0.0534,-0.04472 0,-0.03865 0.0188,-0.06958 0.018,-0.107859 0,-0.02797 -0.002,-0.0473 0.018,-0.07178 l 0.0532,0.02152 c 0.0309,-0.005 0.0712,0.01729 0.0992,0.02081 0.0166,0.0014 0.0475,-0.0035 0.0626,0 0.0265,0.0066 0.0114,0.01235 0.0158,0.02741 0.004,0.01362 0.0144,0.02522 0.0186,0.03957 0.006,0.01711 -7e-4,0.03884 -7e-4,0.05669 7e-4,0.03461 0,0.04749 -0.0618,0.04822 m 0.24737,-1.931871 c -0.001,-0.0302 -0.009,-0.07399 -0.0245,-0.101417 -0.0107,-0.01654 -0.0272,-0.02872 -0.0423,-0.04104 -0.049,-0.04086 -0.0841,-0.109883 -0.11209,-0.167495 -0.0225,-0.04454 -0.0591,-0.08117 -0.0828,-0.124975 -0.0144,-0.0267 -0.0245,-0.05688 -0.0366,-0.08485 -0.006,-0.01436 -0.006,-0.01658 -0.0136,-0.02815 -0.0136,-0.01711 -0.046,-0.0381 -0.0641,-0.05098 -0.0173,-0.01161 -0.0352,-0.01951 -0.0554,-0.02226 -0.0473,-0.0086 -0.0388,0.0042 -0.0624,0.04675 -0.0353,0.06111 -0.0598,0.115775 -0.0584,0.185533 7.1e-4,0.08614 0,0.172463 0,0.258784 0,0.108596 0,0.217004 0,0.3256 0,0.106383 -0.009,0.210746 -0.0151,0.317129 v 0.0037 c -0.006,0.08264 -0.0252,0.163075 -0.0316,0.245717 -0.006,0.06902 -0.0121,0.138045 -0.0173,0.207066 -0.006,0.08559 -0.0156,0.171909 -0.0366,0.256025 -0.01,0.04307 -0.0179,0.08908 -0.0121,0.133809 0.004,0.02723 0.0201,0.04233 0.0331,0.06681 0.0164,0.02946 0.006,0.06479 0.003,0.09553 -0.0129,0.120928 -10e-4,0.246637 -10e-4,0.367566 0,0.172462 -0.0164,0.353021 0.0749,0.513337 0.0337,0.05816 0.0467,0.121476 0.0683,0.18185 0.008,0.023 0.0208,0.0819 0.0567,0.08706 0.013,-0.01453 0.0173,-0.03387 0.0309,-0.04823 0.0202,-0.02152 0.0497,-0.03387 0.069,-0.0589 0.026,-0.03387 0.0539,-0.06258 0.0762,-0.09792 0.0353,-0.05522 0.0756,-0.108595 0.1108,-0.163812 0.0396,-0.06037 0.0891,-0.145221 0.0812,-0.213505 -0.009,-0.08485 -0.004,-0.171174 -0.004,-0.255291 0,-0.165467 -0.018,-0.337929 0.008,-0.502662 0.0453,-0.287496 -0.0331,-0.584384 0.0193,-0.872063 0.0208,-0.115038 0.0295,-0.231546 0.0388,-0.347321 0.003,-0.03736 0.002,-0.07399 0,-0.111354"
       style="fill:#21201d;fill-opacity:1;fill-rule:nonzero;stroke:none;stroke-width:0.184057"
       id="path584" />
    <path
       d="m 382.08547,68.51864 c -10e-4,0.0065 -0.003,0.01161 -0.003,0.01803 10e-4,0.01658 0.005,0.03369 0,0.05025 -0.005,0.01658 -0.0144,0.02152 -0.0136,0.04178 7.1e-4,0.02226 0.009,0.0381 -0.0188,0.04381 -0.0208,0.0035 -0.051,-7.06e-4 -0.072,-7.06e-4 -0.048,0 -0.0804,-0.01859 -0.12792,-0.023 -0.004,-0.01877 -0.009,-0.03884 -0.0151,-0.05688 -0.004,-0.01214 -0.0114,-0.02078 -0.0144,-0.03295 -0.004,-0.01803 0.0121,-0.03607 0.0144,-0.05319 0.002,-0.01584 -0.0107,-0.05043 0.0136,-0.06184 0.006,-0.0028 0.021,-7.06e-4 0.0274,-7.06e-4 0.0337,0 0.069,0.0014 0.10197,0.0086 0.0116,0.0021 0.0217,0.0014 0.0324,0.0021 0.0101,0.0021 0.0195,0.0037 0.0287,0.0037 0.009,0 0.0225,-0.0014 0.0296,0 0.006,0.0014 0.01,0.0037 0.0164,0.0042 0.004,0.0086 7.1e-4,0.02099 7.1e-4,0.02963 0,0.0092 0.001,0.01785 -7.1e-4,0.02723 m 0.20651,-2.848663 c -0.0245,0.02596 -0.0396,0.0611 -0.0606,0.09 -0.0352,0.04804 -0.0747,0.101417 -0.12148,0.139517 -0.0245,0.02007 -0.051,0.0381 -0.0755,0.06037 -0.0201,0.01785 -0.0324,0.04233 -0.0517,0.0611 -0.0116,0.01069 -0.0252,0.01711 -0.0366,0.02723 -0.0203,0.01658 -0.0289,0.03884 -0.0468,0.05687 -0.0188,0.01859 -0.0418,0.0309 -0.0618,0.05025 -0.0195,0.02081 -0.0396,0.0381 -0.0611,0.05614 -0.0151,0.01214 -0.0302,0.023 -0.0453,0.03517 -0.0381,0.02946 -0.0245,0.08264 -0.0274,0.125893 -0.004,0.06111 -0.004,0.122216 -0.002,0.184058 7e-4,0.02522 -0.009,0.04602 -0.0109,0.07252 -0.002,0.03164 -0.0151,0.06258 -0.0166,0.09498 -0.006,0.141725 -0.0151,0.281055 -0.0151,0.423517 0,0.12295 -10e-4,0.247375 0,0.370875 0,0.06056 -0.0101,0.117246 -0.0144,0.17688 -0.005,0.06479 -10e-4,0.130866 -10e-4,0.195654 0,0.113562 10e-4,0.227129 -7e-4,0.340691 -7.1e-4,0.04252 0.0151,0.08135 0.0173,0.123688 0.002,0.04896 0.001,0.09203 0.0109,0.139516 0.0164,0.07915 0.004,0.168229 0.004,0.248846 0,0.08761 -0.023,0.182584 0.0237,0.263754 0.0208,0.03534 0.0287,0.07491 0.0503,0.110804 0.0324,0.05614 0.0618,0.116509 0.0913,0.173934 0.0237,0.04749 0.0554,0.08853 0.0821,0.134546 0.0329,0.05669 0.0532,0.117062 0.10933,0.162341 0.0223,0.01803 0.0201,0.02741 0.0473,0.01013 0.0388,-0.02448 0.0504,-0.08982 0.0618,-0.126446 0.0309,-0.10068 0.0611,-0.19915 0.0863,-0.300567 0.018,-0.07123 0.049,-0.137308 0.0475,-0.210746 -7e-4,-0.04602 -0.0203,-0.08614 -0.0316,-0.130129 -0.0166,-0.0646 -0.004,-0.132891 -0.004,-0.198416 -7.1e-4,-0.0762 -10e-4,-0.153138 0.0123,-0.2286 0.0223,-0.124421 0.003,-0.2667 0.003,-0.391859 7e-4,-0.07914 0.007,-0.161787 -0.003,-0.240933 -0.008,-0.04804 -0.0166,-0.09626 -0.0252,-0.144484 -0.005,-0.08191 -0.0121,-0.163075 0.0188,-0.24222 0.0121,-0.02946 0.0215,-0.05835 0.0251,-0.08982 0.0202,-0.190683 0.0166,-0.388363 0.0158,-0.580334 -7.1e-4,-0.158841 0.0475,-0.310508 0.0749,-0.466587 0.0223,-0.129392 0.0351,-0.256575 0.0351,-0.387442 0,-0.07491 0,-0.150375 0.0158,-0.21222 -0.0453,0 -0.0885,-0.01362 -0.12001,0.02155"
       style="fill:#21201d;fill-opacity:1;fill-rule:nonzero;stroke:none;stroke-width:0.184057"
       id="path586" />
    <path
       d="m 380.9388,68.911235 c -0.009,0.01436 -0.0188,0.0094 -0.041,0.01013 -0.0423,7.06e-4 -0.0948,-0.0066 -0.13657,-7.05e-4 -0.0381,0.0057 -0.0653,0.01584 -0.10786,0.0099 -0.0114,-0.02501 0.003,-0.05319 -0.006,-0.07896 -0.005,-0.01436 -0.008,-0.02741 -0.0101,-0.04104 -7e-4,0.0014 -10e-4,0.0021 -0.003,0.0035 v -0.03221 c 0,0.01069 10e-4,0.01933 0.003,0.02872 0.007,-0.01012 0.0116,-0.0151 0.0138,-0.02797 10e-4,-0.0094 -0.007,-0.02522 -10e-4,-0.03313 0.0107,-0.01655 0.0517,-0.0014 0.0769,0.0028 0.0151,0.0021 0.023,0.0079 0.0438,0.0085 0.018,0 0.0366,0 0.0554,0 0.0366,-7.06e-4 0.0574,0.01012 0.0935,0.01161 0.006,0.01436 -10e-4,0.02723 10e-4,0.04105 0.004,0.01933 0.0165,0.03514 0.0173,0.05448 7e-4,0.01013 0.006,0.03461 7e-4,0.04325 m 0.22216,-2.299987 c 0.003,-0.03607 0.0188,-0.06976 0.0201,-0.105096 0.002,-0.05393 -0.0567,-0.07105 -0.094,-0.0416 -0.0223,0.01729 -0.0346,0.05099 -0.0512,0.07326 -0.0473,0.067 -0.1178,0.117979 -0.17817,0.174117 -0.008,0.0072 -0.0165,0.0151 -0.0237,0.023 -0.0641,0.06387 -0.12369,0.143013 -0.1905,0.19915 -0.0217,0.01711 -0.0289,0.03939 -0.0418,0.06313 -0.023,0.04104 -0.0648,0.07693 -0.0661,0.122213 -0.002,0.05043 -0.003,0.100679 -0.003,0.151112 0,0.03957 0.0101,0.09129 7.1e-4,0.130867 -0.004,0.01362 -0.0116,0.02152 -0.0173,0.03369 -0.0121,0.02671 -0.0114,0.05761 -0.0114,0.08633 -7e-4,0.05172 0.005,0.102887 0.005,0.154608 0,0.06976 -0.003,0.140988 -7.1e-4,0.210563 0.001,0.05117 0.0144,0.09865 0.0136,0.149637 -7.1e-4,0.138783 0.005,0.274617 0.0131,0.412659 0.009,0.145958 -0.0433,0.291179 -0.046,0.437137 -0.001,0.06258 -0.0217,0.116509 -0.0331,0.176879 -0.005,0.03094 0.009,0.03663 0.0316,0.05761 0.0431,0.0381 0.0554,0.08411 0.079,0.130862 0.0296,0.06038 0.0591,0.110621 0.0749,0.174671 0.0114,0.04804 0.0351,0.0935 0.0475,0.140808 0.006,0.02596 0.025,0.05319 0.0178,0.07988 0.0267,-0.04749 0.0633,-0.08982 0.11154,-0.123688 0.0237,-0.01729 0.0453,-0.02649 0.0626,-0.05025 0.0236,-0.03239 0.0309,-0.0727 0.0532,-0.106571 0.0366,-0.05522 0.0539,-0.109883 0.0725,-0.171725 0.0144,-0.05043 0.0353,-0.102154 0.0467,-0.151666 0.0252,-0.106384 0.026,-0.235962 0.0136,-0.346579 -0.0201,-0.180563 -0.0144,-0.362409 -0.0144,-0.543525 0,-0.137305 -0.007,-0.27535 -7.1e-4,-0.412655 0.003,-0.05982 0.013,-0.117983 0.0166,-0.177616 0.006,-0.08485 0.006,-0.172646 0.0188,-0.256763 0.0179,-0.129392 0.069,-0.25455 0.0762,-0.385967 0.004,-0.06185 -7.1e-4,-0.123687 -7.1e-4,-0.184795 0,-0.04105 -0.006,-0.08283 -0.002,-0.123688"
       style="fill:#21201d;fill-opacity:1;fill-rule:nonzero;stroke:none;stroke-width:0.184057"
       id="path588" />
    <path
       d="m 386.32245,69.37359 c 0.0331,0.04454 0.0208,0.13657 0.0215,0.189762 7e-4,0.08043 -0.007,0.169704 -0.023,0.247375 -0.0309,0.153688 -0.0827,0.302592 -0.15535,0.438425 -0.0171,0.03239 -0.0359,0.06626 -0.0631,0.09 -0.0316,0.02798 -0.072,0.03589 -0.10712,0.05743 -0.0512,0.03164 -0.0871,0.08706 -0.1316,0.12792 -0.0504,0.04675 -0.10565,0.08633 -0.15958,0.127371 -0.09,0.06755 -0.17338,0.141538 -0.26816,0.201358 -0.0908,0.05743 -0.18701,0.101967 -0.27903,0.158842 -0.0641,0.04031 -0.12792,0.08338 -0.19345,0.121479 -0.0618,0.03461 -0.12295,0.07325 -0.19123,0.08559 -0.14449,0.02522 -0.29615,7.06e-4 -0.43566,-0.03884 -0.0525,-0.0151 -0.10491,-0.02448 -0.15387,-0.0497 -0.041,-0.02152 -0.0863,-0.0302 -0.1259,-0.05595 -0.0775,-0.0519 -0.12497,-0.130866 -0.19197,-0.196388 -0.0337,-0.03164 -0.0725,-0.06239 -0.10914,-0.09056 -0.0252,-0.01933 -0.0683,-0.03514 -0.0906,-0.05963 -0.0138,-0.01436 -0.0145,-0.03387 -0.023,-0.05099 -0.0368,-0.07196 -0.0907,-0.138042 -0.14596,-0.196388 -0.0992,-0.104175 -0.20651,-0.2113 -0.34952,-0.248663 -0.10491,-0.02741 -0.20265,-0.02667 -0.31124,-0.02667 -0.1259,-7.05e-4 -0.24811,0.02226 -0.37327,0.02872 -0.0747,0.0028 -0.1408,0.02173 -0.21424,0.04031 -0.0626,0.01584 -0.12147,0.02081 -0.18479,0.02667 -0.0366,0.0035 -0.0668,0.01584 -0.10491,0.0151 -0.0596,-0.0014 -0.10289,0.02872 -0.15019,0.06185 -0.0324,0.023 -0.0676,0.03939 -0.10142,0.05963 -0.0885,0.05393 -0.15957,0.134362 -0.17687,0.238725 -0.0121,0.06976 -0.0238,0.135096 -0.0525,0.199887 -0.0381,0.08761 -0.0913,0.166754 -0.11577,0.260258 -0.0287,0.10988 -0.023,0.240746 0.009,0.346396 0.0423,0.136755 0.13583,0.233017 0.23651,0.312896 0.0488,0.03884 0.0804,0.05522 0.13952,0.04381 0.069,-0.01436 0.14301,0.0028 0.21203,0.0086 0.0589,0.005 0.1108,0.02723 0.1697,0.03238 0.0351,0.0035 0.13307,0.03514 0.16326,0.0035 -0.0109,-0.02448 -0.0166,-0.06037 -0.0151,-0.08761 0.002,-0.0381 -0.004,-0.06976 -0.004,-0.107121 0,-0.03755 0.009,-0.04031 -0.0237,-0.03461 -0.0201,0.0028 -0.0403,0.0086 -0.0626,7.06e-4 -0.0144,-0.0057 -0.0309,-0.01658 -0.0473,-0.023 -0.0245,-0.0094 -0.0418,-0.01654 -0.0685,-0.01877 -0.0151,-0.0021 -0.0243,-0.0028 -0.0394,-7.05e-4 -0.005,0.0014 -0.009,0.01214 -0.0173,0.01288 -0.0195,7.05e-4 -0.0359,-0.01729 -0.0539,-0.023 -0.0346,-0.01161 -0.0655,-0.02946 -0.0928,-0.05245 -0.0388,-0.03239 -0.0727,-0.0705 -0.1108,-0.103625 -0.0287,-0.02522 -0.0567,-0.05172 -0.0775,-0.08412 -0.0324,-0.04951 -0.0368,-0.102704 -0.0274,-0.159575 0.0116,-0.0727 0.0237,-0.163262 0.0561,-0.227867 0.0416,-0.08485 0.10565,-0.1489 0.18185,-0.202829 0.0396,-0.02724 0.0906,-0.05246 0.13454,-0.07252 0.0769,-0.03607 0.15958,-0.07491 0.22713,-0.12295 0.0618,-0.04399 0.13804,-0.03884 0.21056,-0.04031 0.0396,0 0.0618,0.0151 0.10289,0.01436 0.0525,-7.06e-4 0.0957,0.01584 0.14669,0.02448 0.0769,0.01214 0.15534,0.0309 0.22933,0.05816 0.0712,0.02741 0.12222,0.07546 0.17541,0.129392 0.0697,0.07049 0.13307,0.148904 0.19988,0.222158 0.0317,0.03534 0.069,0.06553 0.0977,0.102888 0.0289,0.03884 0.0433,0.08632 0.0727,0.12295 0.018,0.02226 0.041,0.03387 0.0646,0.04823 0.0151,0.0079 0.0296,0.01711 0.044,0.02797 0.0733,0.05393 0.15314,0.097 0.2286,0.150191 0.0906,0.06405 0.17835,0.09277 0.28326,0.116509 0.0963,0.02226 0.18903,0.0094 0.28621,-0.0021 0.15516,-0.01803 0.31124,-0.04325 0.46585,-0.07049 0.0849,-0.01584 0.17043,-0.0381 0.25528,-0.05761 0.12571,-0.0302 0.24443,-0.09129 0.36222,-0.1524 0.0893,-0.04454 0.17265,-0.102888 0.25308,-0.164546 0.10142,-0.07767 0.19915,-0.167679 0.30351,-0.238725 0.10712,-0.07417 0.19621,-0.171908 0.28897,-0.267434 0.0977,-0.09995 0.15957,-0.225841 0.19841,-0.368853 0.0202,-0.07694 0.0361,-0.155346 0.0532,-0.23228 0.0124,-0.05688 0.0252,-0.117983 0.0302,-0.175408 0.004,-0.05393 0.0101,-0.107858 0.0145,-0.161788 0.005,-0.0589 -0.006,-0.117245 -0.009,-0.175408 -0.006,-0.117979 0.008,-0.234488 -0.0123,-0.350996 -0.006,-0.0381 -0.0179,-0.05246 -0.0423,-0.0762 -0.0109,-0.01143 -0.0418,-0.06037 -0.0584,-0.05743 -0.0144,0.0028 -0.023,0.03239 -0.0302,0.04454 -0.0158,0.02374 -0.0322,0.03663 -0.0488,0.05761 -0.0274,0.03369 -0.049,0.08264 -0.0633,0.125713 -0.0114,0.03164 -0.0201,0.06258 -0.0302,0.09497 -0.009,0.03094 -0.0374,0.07694 -7.1e-4,0.04823"
       style="fill:#21201d;fill-opacity:1;fill-rule:nonzero;stroke:none;stroke-width:0.184057"
       id="path590" />
    <path
       d="m 381.05955,70.965323 c -10e-4,-0.01933 -0.0129,-0.02797 -0.0223,-0.04233 -0.0173,-0.02815 -0.0302,-0.06258 -0.0423,-0.09497 -0.0418,-0.103625 -0.0504,-0.281055 -0.004,-0.390388 0.0433,-0.09994 0.12222,-0.163996 0.18921,-0.233754 0.0611,-0.06258 0.12222,-0.123684 0.18461,-0.181846 0.13878,-0.128658 0.28989,-0.259525 0.44873,-0.337196 0.11504,-0.05688 0.22363,-0.09277 0.34511,-0.110804 0.0812,-0.01139 0.16252,-0.03295 0.24369,-0.04878 0.0871,-0.01654 0.17467,-0.02596 0.26099,-0.05043 0.187,-0.05393 0.37897,-0.08835 0.56873,-0.117063 0.1316,-0.01951 0.25603,-0.01161 0.38689,-0.0014 0.16105,0.01288 0.31915,0.03589 0.45351,0.150926 0.0237,0.02025 0.0519,0.02522 0.0769,0.04252 0.0237,0.01637 0.0447,0.03589 0.0697,0.04951 0.0539,0.02946 0.1086,0.05393 0.16179,0.08633 0.0683,0.04233 0.14669,0.07197 0.2043,0.13657 0.0409,0.04601 0.0775,0.08982 0.11356,0.143013 0.0272,0.04031 0.0698,0.05982 0.0906,0.107121 0.0151,0.03239 0.0193,0.07197 0.0215,0.108595 0.002,0.02226 0.003,0.04528 0,0.06755 -0.003,0.03387 -0.0129,0.06626 -0.0201,0.09866 -0.009,0.0473 -0.009,0.09479 -0.0144,0.142275 -0.007,0.0554 -0.0289,0.06755 -0.0598,0.104913 -0.0401,0.04896 -0.0841,0.07841 -0.13215,0.111541 -0.0237,0.01584 -0.046,0.04528 -0.0742,0.05245 -0.0193,0.005 -0.0366,0.0057 -0.056,0.01288 -0.041,0.0151 -0.0821,0.03239 -0.12166,0.0519 -0.0136,0.0065 -0.0265,0.01436 -0.0416,0.0151 -0.0396,0.0014 -0.0799,-0.03238 -0.11429,-0.05117 -0.0216,-0.01139 -0.0482,-0.0099 -0.072,-0.01658 -0.0438,-0.01139 -0.0747,-0.05246 -0.11651,-0.07105 -0.0258,-0.01235 -0.0295,-0.02815 -0.0488,-0.05191 -0.0151,-0.01859 -0.0302,-0.02723 -0.044,-0.0473 -0.0329,-0.04749 -0.0675,-0.107121 -0.0883,-0.163259 -0.009,-0.02155 -0.0208,-0.05614 -0.0136,-0.08117 0.008,-0.02374 0.0525,-0.04473 0.0718,-0.05908 0.0166,-0.01362 0.0475,-0.0554 0.0683,-0.05172 0.0101,0.05393 -0.002,0.1143 0.0252,0.163995 0.0287,0.05246 0.0698,0.09258 0.12074,0.109146 0.0361,0.01161 0.0655,0.03737 0.10289,0.05043 0.0431,0.01436 0.0834,0.01584 0.12866,0.0151 0.0346,-7.05e-4 0.0849,-0.0072 0.10215,-0.05043 0.007,-0.01711 0.004,-0.02797 0.002,-0.04602 -0.007,-0.04675 -0.009,-0.09277 -0.0151,-0.138779 -0.005,-0.03514 0.005,-0.07031 -0.0116,-0.101967 -0.0114,-0.02226 -0.0344,-0.0302 -0.0482,-0.04896 -0.0186,-0.02649 -0.0179,-0.05614 -0.0236,-0.08908 -0.008,-0.04105 -0.0368,-0.05043 -0.0598,-0.0762 -0.0977,-0.108592 -0.24719,-0.166204 -0.36811,-0.231546 -0.0782,-0.04104 -0.1581,-0.06902 -0.24148,-0.0878 -0.0475,-0.01069 -0.0957,-0.01933 -0.14449,-0.02448 -0.0791,-0.0085 -0.15111,0.0079 -0.22933,0.01658 -0.12166,0.01379 -0.24388,0.0014 -0.36609,0.01951 -0.0876,0.01214 -0.17393,0.03164 -0.26173,0.04602 -0.0992,0.01584 -0.20411,0.04528 -0.29909,0.08982 -0.0948,0.04252 -0.19473,0.0819 -0.2932,0.102887 -0.10933,0.02226 -0.20633,0.05669 -0.30498,0.123688 -0.0826,0.05448 -0.16308,0.102704 -0.23927,0.172462 -0.0289,0.02667 -0.0467,0.04528 -0.0677,0.08411 -0.0265,0.04896 -0.0618,0.08062 -0.094,0.122216 -0.046,0.0589 -0.11945,0.132338 -0.14025,0.213505 -0.0193,0.07547 -0.0201,0.176146 -0.0121,0.252346 0.005,0.05761 0.0121,0.115771 0.0144,0.173383 10e-4,0.02797 0.0208,0.09626 -0.004,0.116508 -0.0265,0.02226 -0.10638,-0.02025 -0.12295,-0.04473 -0.0245,-0.03736 -0.0532,-0.09055 -0.0697,-0.133626 -0.0178,-0.04601 -0.0208,-0.08062 -0.023,-0.132337 -0.004,-0.07399 -0.0294,-0.121479 0.002,-0.195471"
       style="fill:#21201d;fill-opacity:1;fill-rule:nonzero;stroke:none;stroke-width:0.184057"
       id="path592" />
    <path
       d="m 382.1891,71.242881 c 0.0942,0.0042 0.18552,-0.01658 0.27903,7.06e-4 0.069,0.01288 0.13436,0.04749 0.19988,0.07546 0.0812,0.03443 0.12866,0.09994 0.1997,0.147429 0.0618,0.04086 0.0942,0.109146 0.14467,0.161787 0.0186,0.01933 0.0295,0.04307 0.0445,0.06461 0.0258,0.03663 0.0567,0.06976 0.0834,0.105649 0.0804,0.110067 0.1697,0.218663 0.27903,0.29983 0.0258,0.02025 0.0545,0.03164 0.0804,0.05117 0.0216,0.01637 0.0431,0.04454 0.0698,0.05319 0.0136,0.005 0.0272,0.0014 0.041,0.0035 0.0201,0.0037 0.0344,0.01288 0.0539,0.01732 0.0769,0.01654 0.16749,0.0065 0.23504,-0.03094 0.0525,-0.0302 0.10638,-0.04104 0.16179,-0.06258 0.0166,-0.0057 0.0287,-0.01654 0.046,-0.023 0.0136,-0.005 0.0445,-0.0057 0.0567,-0.01362 0.041,-0.02797 -0.0107,-0.112829 -0.0223,-0.153137 -0.0121,-0.04528 -0.004,-0.05761 -0.0525,-0.0589 -0.0366,-7.06e-4 -0.0633,-7.06e-4 -0.0999,0.0092 -0.0928,0.02741 -0.21129,0.01161 -0.29909,-0.02723 -0.0467,-0.02007 -0.0906,-0.03461 -0.13436,-0.06037 -0.0346,-0.02078 -0.0705,-0.04105 -0.10362,-0.06258 -0.033,-0.02152 -0.0567,-0.05761 -0.0856,-0.08411 -0.0445,-0.04105 -0.0819,-0.08412 -0.11559,-0.134546 -0.0138,-0.02007 -0.0331,-0.03443 -0.046,-0.0532 -0.0131,-0.01785 -0.018,-0.03939 -0.0309,-0.05743 -0.0224,-0.03164 -0.044,-0.06332 -0.0648,-0.09645 -0.0237,-0.03736 -0.0532,-0.07031 -0.0819,-0.104179 -0.0317,-0.03589 -0.0611,-0.07988 -0.10289,-0.105646 -0.0653,-0.04105 -0.11283,-0.08062 -0.18755,-0.104363 -0.0836,-0.02649 -0.16897,-0.0646 -0.25529,-0.07749 -0.0433,-0.0066 -0.0898,-0.0037 -0.13454,-0.0059 -0.0409,-0.0014 -0.0891,-0.01069 -0.13013,-0.0028 -0.0243,0.005 -0.0467,0.01436 -0.069,0.02226 -0.0287,0.0099 -0.0374,-7.05e-4 -0.0431,0.03883 -0.009,0.05522 -0.004,0.113566 0.006,0.166021 0.007,0.03737 0.006,0.07767 0.0195,0.112091 0.0171,0.04473 0.0272,0.0554 0.0589,-0.01069"
       style="fill:#21201d;fill-opacity:1;fill-rule:nonzero;stroke:none;stroke-width:0.184057"
       id="path594" />
    <path
       d="m 385.33959,69.429544 c 0.006,0.02667 -0.0193,0.03957 -0.0351,0.05614 -0.0346,0.03736 -0.0576,0.0762 -0.0675,0.125159 -0.0296,0.132154 0.003,0.276824 0.0272,0.406216 0.0136,0.07473 0.0539,0.137308 0.0906,0.203384 0.0131,0.02374 0.018,0.05172 0.0425,0.06607 0.0201,0.01161 0.0582,0.02173 0.0797,0.02671 0.041,0.0094 0.09,0.0021 0.1316,0.0028 0.0252,0 0.0762,-0.02226 0.0885,-0.0065 0.0114,0.01436 0,0.06957 7e-4,0.08909 0,0.04233 -0.0131,0.05245 -0.0547,0.0554 -0.0296,0.0028 -0.0532,0.0072 -0.0806,0.02081 -0.0201,0.01012 -0.0294,0.02078 -0.051,0.02007 -0.0252,0 -0.0604,-0.0092 -0.0863,-0.01288 -0.0287,-0.0028 -0.0495,-0.01436 -0.0747,-0.02797 -0.10565,-0.05393 -0.17909,-0.128104 -0.23651,-0.233754 -0.0302,-0.05614 -0.0569,-0.112829 -0.09,-0.166758 -0.0171,-0.02797 -0.0409,-0.05319 -0.0539,-0.08485 -0.0121,-0.03164 -0.0129,-0.06552 -0.0186,-0.0992 -0.0116,-0.06976 -0.0123,-0.128658 10e-4,-0.197679 0.009,-0.04252 0.0107,-0.09645 0.0416,-0.130866 0.0482,-0.05614 0.12865,-0.08282 0.18129,-0.136017 0.0272,-0.02798 0.0525,-0.05743 0.0675,-0.09479 0.0215,0.02798 0.0468,0.04454 0.0626,0.07767 0.0121,0.02501 0.0193,0.03883 0.0337,0.0589 0.0123,0.01658 0.0245,0.0302 0,-0.01729"
       style="fill:#21201d;fill-opacity:1;fill-rule:nonzero;stroke:none;stroke-width:0.184057"
       id="path596" />
    <path
       d="m 381.05678,69.925027 c 0.002,-0.01235 0.0186,-0.01803 0.028,-0.02667 0.0503,-0.04878 0.0431,-0.133075 0.004,-0.188292 -0.0173,-0.02448 -0.0324,-0.04822 -0.0606,-0.06626 -0.0193,-0.01143 -0.0366,-0.01362 -0.0559,-0.02007 -0.0158,-0.005 -0.0295,-0.01584 -0.0468,-0.0151 -0.0267,0 -0.0453,0.02374 -0.0698,0.02946 -0.023,0.005 -0.0453,0.005 -0.069,0.01362 -0.0267,0.0086 -0.0517,0.0065 -0.0769,0.01305 -0.0173,0.0042 -0.0237,0.01288 -0.0396,0.02152 -0.0245,0.01288 -0.0416,0.01658 -0.0653,0.03443 -0.0245,0.01803 -0.0497,0.03387 -0.0727,0.05467 -0.0633,0.05614 -0.10933,0.13528 -0.14375,0.212217 -0.0755,0.166021 -0.0237,0.401063 0.0604,0.547758 0.0166,0.02724 0.026,0.05319 0.0482,0.07546 0.0166,0.01877 0.0388,0.04252 0,0.05245 -0.0655,0.01803 -0.15185,-0.03589 -0.19842,-0.07031 -0.0554,-0.04105 -0.0907,-0.0935 -0.11798,-0.152584 -0.0237,-0.05172 -0.0641,-0.09995 -0.0747,-0.155896 -0.0116,-0.06479 -0.0302,-0.130866 -0.0368,-0.195654 -0.006,-0.06185 -0.0387,-0.14007 -0.0144,-0.19915 0.0252,-0.06111 0.0547,-0.109333 0.0992,-0.158845 0.049,-0.0554 0.10142,-0.107121 0.14669,-0.16473 0.0202,-0.02505 0.0366,-0.0381 0.0641,-0.05246 0.0396,-0.02152 0.0705,-0.05466 0.10933,-0.0762 0.0186,-0.0094 0.0388,-0.01288 0.0567,-0.02374 0.0445,-0.02431 0.0777,-0.05743 0.12736,-0.07546 0.0539,-0.01859 0.0963,-0.0416 0.15516,-0.04233 0.0618,-7.05e-4 0.11375,0.0021 0.17486,0.01362 0.0547,0.01069 0.10859,0.01436 0.1408,0.06258 0.0267,0.04012 0.0554,0.07693 0.0791,0.119267 0.009,0.01584 0.0208,0.02374 0.0339,0.03737 0.0136,0.01436 0.0193,0.0309 0.0258,0.04896 0.0166,0.04105 0.0158,0.07693 0.0158,0.120005 0,0.0302 0.006,0.06755 0,0.09792 -0.004,0.02226 -0.0252,0.04381 -0.0396,0.0611 -0.0287,0.03737 -0.0604,0.08117 -0.10988,0.09553 -0.0151,0.0044 -0.023,0.01087 -0.0353,0.01655 -0.0173,0.0072 -0.0215,0.0086 -0.0416,0.01288 -0.0309,0.0065 -0.0539,0.03883 -0.0604,-0.0021 -0.004,-0.02963 0.0129,-0.0381 0.0329,-0.05687 0.018,-0.01658 0.0576,-0.02872 0.0274,0.0021"
       style="fill:#21201d;fill-opacity:1;fill-rule:nonzero;stroke:none;stroke-width:0.184057"
       id="path598" />
  </g>
</svg>
