<?xml version="1.0" encoding="UTF-8" standalone="no"?>
<!-- Created with Inkscape (http://www.inkscape.org/) -->

<svg
   width="7.1883202mm"
   height="7.5936799mm"
   viewBox="0 0 7.1883202 7.5936799"
   version="1.1"
   id="svg2624"
   inkscape:version="1.1.2 (0a00cf5339, 2022-02-04)"
   sodipodi:docname="c15.svg"
   xmlns:inkscape="http://www.inkscape.org/namespaces/inkscape"
   xmlns:sodipodi="http://sodipodi.sourceforge.net/DTD/sodipodi-0.dtd"
   xmlns="http://www.w3.org/2000/svg"
   xmlns:svg="http://www.w3.org/2000/svg">
  <sodipodi:namedview
     id="namedview2626"
     pagecolor="#ffffff"
     bordercolor="#666666"
     borderopacity="1.0"
     inkscape:pageshadow="2"
     inkscape:pageopacity="0.0"
     inkscape:pagecheckerboard="0"
     inkscape:document-units="mm"
     showgrid="false"
     inkscape:zoom="0.64052329"
     inkscape:cx="14.051011"
     inkscape:cy="14.831623"
     inkscape:window-width="2560"
     inkscape:window-height="1376"
     inkscape:window-x="0"
     inkscape:window-y="0"
     inkscape:window-maximized="1"
     inkscape:current-layer="layer1" />
  <defs
     id="defs2621" />
  <g
     inkscape:label="Layer 1"
     inkscape:groupmode="layer"
     id="layer1"
     transform="translate(-101.32769,-144.70297)">
    <path
       d="m 108.51134,148.1338 c -0.004,0.001 -0.005,0.004 -0.006,0.006 -0.008,0.0129 -0.0145,0.0265 -0.0222,0.0394 -0.0236,0.0346 -0.0569,0.0539 -0.10068,0.0526 -0.0254,-7.1e-4 -0.051,-7.1e-4 -0.077,-0.003 -0.0303,-0.002 -0.046,-0.018 -0.0502,-0.0482 0,-0.0107 0,-0.0215 0,-0.0316 0.006,-0.0804 -0.005,-0.15884 -0.0208,-0.23651 -0.0117,-0.0589 -0.018,-0.1178 -0.0229,-0.17762 -0.007,-0.079 -0.0131,-0.1581 -0.0201,-0.23725 -0.004,-0.0416 -0.0106,-0.0826 -0.0265,-0.12148 -0.0116,-0.0294 -0.0194,-0.0589 -0.0173,-0.0913 0,-0.018 -0.004,-0.0351 -0.0127,-0.0517 -0.0353,-0.0683 -0.0675,-0.13878 -0.0972,-0.21001 -0.01,-0.023 -0.0236,-0.0453 -0.0401,-0.0646 -0.0109,-0.0123 -0.0208,-0.0252 -0.0311,-0.0368 -0.0173,-0.0193 -0.0324,-0.0409 -0.044,-0.0639 -0.0243,-0.0482 -0.0539,-0.0942 -0.0891,-0.13657 -0.049,-0.0591 -0.095,-0.12167 -0.14301,-0.1813 -0.0201,-0.025 -0.0425,-0.0488 -0.0641,-0.0725 -0.0187,-0.0195 -0.0353,-0.0403 -0.0475,-0.0641 -0.018,-0.0366 -0.0403,-0.0705 -0.0638,-0.10344 -0.0965,-0.13455 -0.20853,-0.25253 -0.34163,-0.351 -0.0325,-0.023 -0.0675,-0.0416 -0.10344,-0.056 -0.0303,-0.0123 -0.0605,-0.0237 -0.0907,-0.0339 -0.0453,-0.0151 -0.0856,-0.0388 -0.12072,-0.072 -0.0353,-0.0337 -0.0755,-0.0624 -0.11854,-0.0861 -0.0943,-0.0532 -0.18277,-0.11503 -0.26892,-0.1813 -0.0116,-0.009 -0.0236,-0.0178 -0.0361,-0.0272 -0.0243,-0.0195 -0.0517,-0.0339 -0.0811,-0.0445 -0.16474,-0.0583 -0.33002,-0.11799 -0.4953,-0.17689 -0.0353,-0.0123 -0.0698,-0.0252 -0.10364,-0.0418 -0.0468,-0.023 -0.0962,-0.0344 -0.14669,-0.0438 -0.0335,-0.006 -0.0676,-0.0123 -0.10142,-0.0195 -0.0187,-0.004 -0.0374,-0.009 -0.0552,-0.0158 -0.0254,-0.0107 -0.0519,-0.0136 -0.0784,-0.0129 -0.0332,0.001 -0.0668,0.004 -0.0999,0.005 -0.0286,7.1e-4 -0.0576,0.002 -0.0863,10e-4 -0.0812,-0.002 -0.16252,-0.006 -0.24295,-0.0171 -0.0576,-0.008 -0.11504,-0.0166 -0.17117,-0.0267 -0.0574,-0.0101 -0.11504,-0.0144 -0.17247,-0.0158 -0.0677,-7e-4 -0.13529,0 -0.20285,0 -0.0755,0 -0.14887,0.0116 -0.21865,0.0418 -0.018,0.007 -0.0359,0.0136 -0.0537,0.0216 -0.0569,0.0245 -0.11726,0.0403 -0.17837,0.0495 -0.0482,0.008 -0.0957,0.0158 -0.14319,0.023 -0.0201,0.004 -0.0401,0.004 -0.0604,0.009 -0.0187,0.004 -0.0374,0.009 -0.0552,0.0158 -0.0289,0.0101 -0.0576,0.0215 -0.0863,0.0339 -0.0525,0.0223 -0.10566,0.046 -0.15904,0.0697 -0.0346,0.0158 -0.0688,0.0322 -0.10417,0.0488 -0.0166,0.008 -0.0332,0.0138 -0.0517,0.0151 -0.0236,7e-4 -0.0467,0.007 -0.0683,0.0188 -0.0229,0.0114 -0.0467,0.0237 -0.0697,0.0374 -0.0985,0.0569 -0.1977,0.11283 -0.30057,0.16031 -0.0431,0.0201 -0.0804,0.0475 -0.11504,0.0799 -0.0296,0.028 -0.0604,0.0554 -0.0898,0.0834 -0.0123,0.0121 -0.0236,0.0245 -0.0346,0.0374 -0.0229,0.0287 -0.0475,0.0554 -0.0747,0.0799 -0.0339,0.0295 -0.0633,0.0631 -0.0891,0.10049 -0.0152,0.021 -0.0325,0.0403 -0.049,0.0598 -0.0109,0.0129 -0.0222,0.0258 -0.0332,0.0394 -0.0215,0.026 -0.0438,0.0519 -0.0646,0.0791 -0.0145,0.0188 -0.0286,0.0374 -0.0403,0.0583 -0.018,0.0315 -0.0339,0.0639 -0.0517,0.0955 -0.0187,0.0331 -0.0282,0.069 -0.0339,0.10638 -0.0113,0.0712 -0.0187,0.14394 -0.0475,0.21222 -0.0113,0.0265 -0.018,0.0545 -0.0166,0.0841 0,0.0265 -0.005,0.051 -0.0155,0.0747 -0.009,0.0223 -0.018,0.0438 -0.0296,0.0646 -0.0367,0.0641 -0.0611,0.13381 -0.0841,0.20357 -0.0145,0.0468 -0.0314,0.0913 -0.0467,0.13657 -0.006,0.0215 -0.012,0.0431 -0.0162,0.0655 -0.0116,0.0552 -0.0219,0.11062 -0.0332,0.16676 0,0.002 0,0.004 0,0.006 -0.0208,0.0747 -0.0403,0.15019 -0.0618,0.22583 -0.006,0.0216 -0.0138,0.0431 -0.0243,0.0624 -0.0166,0.0282 -0.0258,0.0591 -0.0321,0.09 -0.004,0.0136 -0.005,0.0272 -0.008,0.0409 -0.01,0.0339 -0.0138,0.069 -0.0138,0.10435 0,0.0193 -0.005,0.0381 -0.007,0.0574 -0.004,0.0144 -0.005,0.0295 -0.005,0.0445 0,0.0151 -0.004,0.0296 -0.006,0.044 -0.004,0.008 -0.004,0.0166 -0.006,0.0245 -0.004,0.0136 -0.007,0.028 -0.0116,0.0401 -0.0152,0.0309 -0.0265,0.0633 -0.0324,0.0972 -0.004,0.0136 -0.008,0.0243 -0.0159,0.0344 -0.007,0.009 -0.0145,0.0151 -0.0251,0.018 -0.018,0.005 -0.0346,0.0136 -0.0524,0.0144 -0.007,0 -0.0159,0.004 -0.0201,0.009 -0.0152,0.0158 -0.0335,0.0179 -0.0532,0.0129 -0.0353,-0.009 -0.0712,-0.0144 -0.10639,-0.0201 -0.0229,-0.004 -0.0438,-0.0109 -0.0611,-0.0274 -0.004,-0.004 -0.008,-0.006 -0.0131,-0.009 v -0.0646 c 0.0113,-0.007 0.0106,-0.0195 0.012,-0.0309 0.006,-0.0504 0.0131,-0.1 0.018,-0.14964 0.006,-0.051 0.0106,-0.10271 0.0145,-0.15388 0,-0.0337 0.008,-0.0653 0.0229,-0.0955 0.0286,-0.0561 0.0488,-0.11651 0.0646,-0.17688 0.0159,-0.0604 0.0346,-0.11945 0.0447,-0.1813 0.006,-0.0337 0.0113,-0.0668 0.018,-0.10049 0.0102,-0.0497 0.0236,-0.0979 0.0403,-0.14522 0.049,-0.14026 0.0884,-0.28401 0.13088,-0.42647 0.0261,-0.0876 0.0438,-0.17835 0.0646,-0.26743 0.0123,-0.0554 0.0236,-0.11081 0.0504,-0.16179 0.03,-0.0567 0.0596,-0.11356 0.0906,-0.17044 0.0286,-0.0525 0.0626,-0.10197 0.0992,-0.14945 0.0403,-0.0517 0.0799,-0.10289 0.12146,-0.15388 0.0467,-0.0583 0.0893,-0.11945 0.11726,-0.1905 0.0222,-0.0576 0.0581,-0.10583 0.10492,-0.14669 0.0361,-0.0324 0.0727,-0.064 0.11006,-0.0942 0.041,-0.0331 0.0863,-0.0589 0.13508,-0.0784 0.0339,-0.0136 0.067,-0.0287 0.1,-0.0438 0.0361,-0.0144 0.0712,-0.0302 0.10639,-0.0445 0.0325,-0.0123 0.0633,-0.026 0.0927,-0.0438 0.0648,-0.0403 0.13014,-0.0784 0.19491,-0.11798 0.0286,-0.018 0.0582,-0.0302 0.0913,-0.0374 0.0229,-0.006 0.0453,-0.0136 0.0668,-0.0223 0.0425,-0.0158 0.0834,-0.0346 0.12517,-0.0504 0.0727,-0.0272 0.14742,-0.0517 0.21847,-0.0826 0.0613,-0.0265 0.12168,-0.0524 0.18278,-0.0777 0.018,-0.008 0.0366,-0.0129 0.0546,-0.0179 0.018,-0.005 0.0346,-0.0109 0.0495,-0.023 0.01,-0.008 0.0208,-0.0145 0.0332,-0.0195 0.0311,-0.0121 0.0619,-0.0237 0.0935,-0.0331 0.0495,-0.0144 0.0999,-0.0223 0.15092,-0.0294 0.0562,-0.007 0.11211,-0.0166 0.16824,-0.0215 0.0705,-0.006 0.141,-0.0101 0.21131,-0.0158 0.0109,0 0.0208,-0.003 0.0317,-0.004 h 0.1603 c 0.01,0.001 0.0187,0.004 0.0282,0.005 0.0554,0.004 0.11059,0.007 0.16601,0.0101 0.0359,0.002 0.0712,0.002 0.10637,0.006 0.0762,0.008 0.1524,0.023 0.22733,0.0396 0.12072,0.0272 0.24147,0.0567 0.36516,0.0698 0.0876,0.01 0.17466,0.028 0.26098,0.0495 0.0653,0.0166 0.13159,0.0309 0.19417,0.0569 0.01,0.004 0.0201,0.006 0.0303,0.008 0.0668,0.0129 0.13088,0.0344 0.19272,0.0611 0.0236,0.0107 0.0473,0.0201 0.071,0.0295 0.0841,0.0339 0.16178,0.0777 0.23653,0.12792 0.044,0.0302 0.0893,0.0591 0.13307,0.0893 0.0317,0.0208 0.0633,0.0409 0.0935,0.0639 0.0827,0.0641 0.17247,0.11798 0.26522,0.16694 0.0403,0.0223 0.0814,0.0423 0.12223,0.0646 0.067,0.0359 0.12884,0.0791 0.18627,0.13013 0.0957,0.0863 0.18553,0.17762 0.27259,0.27185 0.0747,0.0804 0.13857,0.16823 0.20116,0.25805 0.0296,0.0431 0.0598,0.0863 0.0957,0.12443 0.0431,0.0468 0.0797,0.0977 0.11064,0.15313 0.006,0.0109 0.0123,0.0201 0.018,0.0302 0.0116,0.0208 0.0268,0.0388 0.0453,0.0547 0.0123,0.009 0.0229,0.0216 0.0339,0.0337 0.071,0.0777 0.12644,0.16695 0.16672,0.26468 0.0159,0.0381 0.0293,0.0777 0.0353,0.11927 0.004,0.0289 0.01,0.0569 0.0243,0.0828 0.0325,0.0567 0.0561,0.1178 0.0791,0.17891 0.0131,0.0366 0.0272,0.0742 0.0293,0.1143 0,0.005 0.004,0.009 0.006,0.0144 v 0.32155 c -0.008,0.009 -0.006,0.0208 -0.006,0.0302 0,0.0258 0,0.0517 -0.004,0.0775 -0.008,0.0742 -0.004,0.1467 0.004,0.22087 0,0.009 0.004,0.0166 0.006,0.025 z"
       style="fill:#21201d;fill-opacity:1;fill-rule:nonzero;stroke:none;stroke-width:0.184057"
       id="path612" />
    <path
       d="m 105.38884,152.29609 c -0.018,-0.008 -0.0374,-0.006 -0.0567,-0.007 -0.0381,-7e-4 -0.0411,-0.004 -0.0374,-0.0433 0.004,-0.023 0.004,-0.0453 0.004,-0.0675 0,-0.028 0,-0.0561 0.004,-0.0841 0.006,-0.0755 0.004,-0.15166 -0.008,-0.22713 -0.006,-0.049 -0.018,-0.0964 -0.0265,-0.14466 -0.004,-0.0136 -0.007,-0.0272 -0.008,-0.0416 -0.007,-0.049 -0.0236,-0.095 -0.0475,-0.13804 -0.0792,-0.14522 -0.16252,-0.28695 -0.26321,-0.41855 -0.0863,-0.11357 -0.1905,-0.20762 -0.30628,-0.29045 -0.0812,-0.0582 -0.16601,-0.1084 -0.25382,-0.15663 -0.0804,-0.0438 -0.16178,-0.0871 -0.24222,-0.1316 -0.0208,-0.0116 -0.041,-0.0237 -0.0604,-0.0359 -0.0159,-0.0101 -0.0282,-0.023 -0.0361,-0.0403 -0.006,-0.0121 -0.0145,-0.0245 -0.0229,-0.0346 -0.0127,-0.0151 -0.0229,-0.0315 -0.0279,-0.0495 -0.0102,-0.0316 -0.0286,-0.0554 -0.0532,-0.0755 -0.0318,-0.0245 -0.0581,-0.0525 -0.0834,-0.0841 -0.0166,-0.0203 -0.0324,-0.0388 -0.0497,-0.0591 -0.0559,-0.0618 -0.0962,-0.13289 -0.12221,-0.21277 -0.0201,-0.0604 -0.0374,-0.12221 -0.048,-0.18553 -0.005,-0.0245 -0.007,-0.0488 -0.01,-0.0733 -0.005,-0.0596 -0.008,-0.11945 -0.0123,-0.17982 -0.004,-0.0388 0.004,-0.0762 0.007,-0.11503 0.0116,-0.0913 0.0254,-0.18185 0.0368,-0.27315 0.0145,-0.11945 0.048,-0.2343 0.0891,-0.34732 0.0109,-0.0302 0.0279,-0.0574 0.0497,-0.0812 0.0353,-0.0374 0.0668,-0.0762 0.0948,-0.11799 0.051,-0.0733 0.11229,-0.13657 0.18129,-0.19399 0.0985,-0.0806 0.19621,-0.16253 0.29764,-0.23946 0.11649,-0.0885 0.21625,-0.19418 0.3048,-0.31143 0.049,-0.0646 0.097,-0.13086 0.1452,-0.19547 0.0109,-0.0151 0.0222,-0.0295 0.0339,-0.0433 0.012,-0.0151 0.0236,-0.0302 0.0265,-0.0503 0.004,-0.0144 0.0127,-0.0215 0.0268,-0.023 0.006,-7.1e-4 0.0127,-7.1e-4 0.0194,-7.1e-4 0.0222,0 0.0446,7.1e-4 0.0676,0 0.0166,0 0.0317,0.003 0.046,0.0109 0.0173,0.01 0.0354,0.0186 0.0547,0.028 0,0.009 0,0.0158 0,0.023 0,0.006 0,0.0136 0.005,0.018 0.0138,0.0201 0.0127,0.0423 0.0159,0.0661 -0.0324,0.0302 -0.0519,0.0698 -0.0677,0.1108 -0.008,0.0171 -0.0187,0.0337 -0.0303,0.0495 -0.0488,0.0648 -0.0891,0.13529 -0.12368,0.20928 -0.01,0.023 -0.0222,0.0438 -0.0346,0.0653 -0.0353,0.0641 -0.0834,0.11651 -0.14301,0.15755 -0.0332,0.0223 -0.067,0.0431 -0.0994,0.0653 -0.0366,0.0252 -0.0733,0.049 -0.10841,0.0749 -0.0396,0.0287 -0.0727,0.0631 -0.0987,0.10418 -0.0155,0.0238 -0.0346,0.0438 -0.056,0.0618 -0.0222,0.018 -0.0453,0.0351 -0.0683,0.0539 -0.0396,0.0324 -0.0807,0.0639 -0.11945,0.097 -0.0265,0.0223 -0.051,0.049 -0.0718,0.0777 -0.0229,0.0309 -0.0403,0.0655 -0.0475,0.10418 -0.006,0.0309 -0.0166,0.0618 -0.0293,0.0915 -0.0109,0.0243 -0.0201,0.0488 -0.0318,0.074 -0.0381,0.0863 -0.0576,0.17835 -0.0734,0.27112 -0.006,0.0416 -0.009,0.0834 -0.006,0.12497 0.004,0.0317 0.0102,0.0633 0.0152,0.095 0.004,0.0252 0.008,0.051 0.0102,0.0762 0.004,0.0359 0.0113,0.0698 0.0265,0.10215 0.007,0.0129 0.0137,0.0265 0.0212,0.0394 0.0201,0.0425 0.0431,0.0843 0.0631,0.12663 0.0222,0.0475 0.0497,0.092 0.0863,0.13013 0.0222,0.0223 0.0396,0.0482 0.0532,0.0762 0.008,0.0173 0.0201,0.0331 0.0318,0.0475 0.025,0.0324 0.051,0.0633 0.0769,0.0948 0.008,0.0101 0.0159,0.0202 0.0236,0.0304 0.0286,0.0351 0.0648,0.0589 0.10862,0.0696 0.008,0.002 0.0166,0.005 0.025,0.007 0.044,0.0114 0.0848,0.0295 0.12241,0.0552 0.0431,0.0302 0.0869,0.0591 0.12792,0.0915 0.0286,0.0215 0.0546,0.048 0.0804,0.074 0.0618,0.064 0.12164,0.12866 0.18331,0.19271 0.0289,0.0302 0.0591,0.0589 0.0893,0.0884 0.0145,0.0143 0.0293,0.0274 0.0445,0.0418 0.0453,0.0416 0.0819,0.0898 0.11212,0.14301 0.0194,0.0346 0.041,0.0676 0.0618,0.10142 0.0201,0.0316 0.0381,0.0646 0.0519,0.0992 0.0296,0.0705 0.0589,0.14026 0.0898,0.21001 0.0416,0.0963 0.0712,0.19621 0.0863,0.30039 0.004,0.0245 0.006,0.049 0.007,0.0742 0.004,0.0819 0.004,0.16455 -0.004,0.24664 -0.004,0.0438 -0.006,0.0876 -0.01,0.13142 0,0.0109 -0.004,0.021 -0.004,0.0316 -0.004,0.0252 -0.0145,0.0453 -0.0353,0.0584 z"
       style="fill:#21201d;fill-opacity:1;fill-rule:nonzero;stroke:none;stroke-width:0.184057"
       id="path614" />
    <path
       d="m 106.56366,151.48071 c 0,0.046 -0.004,0.0913 -0.005,0.13805 0,0.0339 -0.0109,0.0653 -0.0261,0.095 -0.005,0.008 -0.01,0.0171 -0.0145,0.025 -0.0166,0.0267 -0.0279,0.0554 -0.0366,0.0856 -0.006,0.0215 -0.0145,0.0418 -0.0208,0.0633 -0.006,0.0166 -0.0159,0.0238 -0.0339,0.0238 -0.0381,-7.1e-4 -0.0769,0 -0.11504,0 -0.008,0 -0.0152,0 -0.0229,-0.001 -0.0152,-0.003 -0.0243,-0.0121 -0.0254,-0.0287 0,-0.0123 0,-0.026 0,-0.0381 0.0102,-0.0591 0.0159,-0.11872 0.0201,-0.17909 0,-0.023 0,-0.0468 0,-0.0705 -0.005,-0.0755 -0.0102,-0.15093 -0.0173,-0.22713 -0.006,-0.0698 -0.0201,-0.13731 -0.0482,-0.20209 -0.0346,-0.0784 -0.0668,-0.15738 -0.1,-0.23578 -0.0229,-0.0554 -0.0554,-0.10345 -0.097,-0.1467 -0.0282,-0.0295 -0.0547,-0.0596 -0.0799,-0.092 -0.0453,-0.0611 -0.0999,-0.11062 -0.16252,-0.15387 -0.0495,-0.0337 -0.0999,-0.0661 -0.15018,-0.0985 -0.0229,-0.0151 -0.0482,-0.0272 -0.0727,-0.0403 -0.1222,-0.0626 -0.2444,-0.12424 -0.3659,-0.18608 -0.0325,-0.0158 -0.0611,-0.0368 -0.0883,-0.0591 -0.0547,-0.0438 -0.10788,-0.0906 -0.15756,-0.1408 -0.0431,-0.0433 -0.0797,-0.09 -0.10989,-0.14246 -0.0152,-0.0265 -0.031,-0.0532 -0.0467,-0.0804 -0.0324,-0.0532 -0.0591,-0.10859 -0.0841,-0.16546 -0.0325,-0.0698 -0.0663,-0.13952 -0.10064,-0.2078 -0.0173,-0.0344 -0.0282,-0.0698 -0.0254,-0.10786 0.005,-0.056 0.008,-0.11283 0.0145,-0.16952 0,-0.0195 0.006,-0.0403 0.0138,-0.0591 0.0293,-0.0826 0.0618,-0.16455 0.10509,-0.24075 0.0251,-0.0453 0.0546,-0.0871 0.0891,-0.12516 0.0127,-0.0144 0.0261,-0.0287 0.0381,-0.0431 0.0374,-0.0403 0.0705,-0.0841 0.0992,-0.13086 0.0532,-0.0878 0.11726,-0.16768 0.18478,-0.2459 0.14598,-0.17118 0.29119,-0.34235 0.43717,-0.51334 0.0194,-0.0223 0.0381,-0.046 0.0569,-0.069 0.0162,-0.0203 0.0366,-0.0245 0.0596,-0.0131 0.004,0.001 0.006,0.002 0.008,0.004 0.0208,0.0193 0.0481,0.0272 0.074,0.0374 0.005,0.001 0.0102,0.003 0.0152,0.005 0.0275,0.0123 0.0353,0.0418 0.018,0.0668 -0.005,0.007 -0.0123,0.0123 -0.0173,0.0188 -0.0102,0.0116 -0.0109,0.0195 -0.004,0.0324 0,0.004 0.005,0.006 0.007,0.0101 0.0138,0.0157 0.0123,0.0329 0.005,0.051 -0.004,0.006 -0.006,0.0114 -0.0102,0.0166 -0.0166,0.0238 -0.0318,0.048 -0.0495,0.0711 -0.0145,0.0195 -0.031,0.0381 -0.0482,0.0554 -0.0346,0.0353 -0.0705,0.0683 -0.10637,0.10289 -0.046,0.0431 -0.0878,0.0906 -0.12368,0.14228 -0.11007,0.1524 -0.20359,0.31418 -0.2818,0.48462 -0.0339,0.0727 -0.0512,0.15019 -0.0591,0.2286 -0.01,0.09 -0.005,0.17983 -0.004,0.26965 0.004,0.10068 0.0353,0.19344 0.0676,0.28621 0.0113,0.0324 0.031,0.0611 0.0532,0.0869 0.0166,0.0188 0.0332,0.0375 0.051,0.0534 0.0633,0.0582 0.13085,0.11062 0.20853,0.14798 0.0453,0.0223 0.0878,0.0504 0.12587,0.0834 0.0367,0.0309 0.0762,0.0583 0.11709,0.0841 0.044,0.0274 0.087,0.0547 0.12958,0.0828 0.0604,0.0387 0.11631,0.0841 0.16746,0.13436 0.0532,0.0525 0.10788,0.10418 0.16605,0.15093 0.0418,0.0346 0.0762,0.0755 0.10344,0.12221 0.041,0.0705 0.0821,0.14025 0.12368,0.21075 0.031,0.0547 0.0497,0.11283 0.064,0.17393 0.0123,0.0554 0.0222,0.11081 0.0339,0.16621 0.013,0.0653 0.0264,0.13013 0.0388,0.19473 0.005,0.0274 0.008,0.0554 0.008,0.0834 0,0.0418 0,0.0834 0,0.12516 v 0"
       style="fill:#21201d;fill-opacity:1;fill-rule:nonzero;stroke:none;stroke-width:0.184057"
       id="path616" />
    <path
       d="m 103.28304,148.4294 c -0.0236,0.018 -0.0482,0.0258 -0.0747,0.0258 -0.0236,-7.1e-4 -0.049,0 -0.0727,0.005 -0.0127,0.003 -0.0258,0.002 -0.0388,7e-4 -0.0173,-0.001 -0.0339,-0.004 -0.0502,-0.007 -0.008,-0.001 -0.0152,-0.004 -0.0215,-0.006 -0.0123,-0.005 -0.0201,-0.0136 -0.0187,-0.0272 0,-0.009 0,-0.0173 0,-0.0252 0.006,-0.0604 0.0116,-0.11927 0.0166,-0.17964 0,-0.0158 0.004,-0.0316 0.0113,-0.046 0.0282,-0.0596 0.0425,-0.12368 0.0539,-0.18773 0.01,-0.0525 0.0212,-0.10418 0.036,-0.1559 0.0367,-0.11872 0.0733,-0.2367 0.0941,-0.35965 0.005,-0.0295 0.0159,-0.0574 0.0289,-0.0841 0.0374,-0.0789 0.0834,-0.1524 0.13931,-0.21847 0.0102,-0.0116 0.0187,-0.0237 0.0282,-0.0353 0.0208,-0.0272 0.0403,-0.0559 0.0525,-0.0883 0.0138,-0.0366 0.0374,-0.0668 0.0668,-0.0928 0.0152,-0.0129 0.031,-0.0265 0.0467,-0.0396 0.0208,-0.0173 0.0446,-0.0324 0.0705,-0.0431 0.0453,-0.0203 0.0906,-0.0396 0.13508,-0.0596 0.013,-0.006 0.0254,-0.0123 0.0368,-0.0195 0.0353,-0.0208 0.069,-0.0423 0.10417,-0.0633 0.0127,-0.007 0.0258,-0.0151 0.0403,-0.0186 0.0236,-0.006 0.0467,-0.0144 0.0698,-0.026 0,0 0,-7.1e-4 0.004,-7.1e-4 0.0906,-0.0329 0.17907,-0.071 0.26744,-0.10914 0.0236,-0.0101 0.0475,-0.0188 0.0697,-0.0309 0.0381,-0.021 0.0806,-0.0274 0.12295,-0.0346 0.0878,-0.0166 0.17614,-0.0238 0.26469,-0.0302 0.0229,-0.001 0.0475,0 0.0705,7e-4 0.0272,7.1e-4 0.056,0.004 0.0834,0.003 0.0717,-10e-4 0.14298,0.01 0.2135,0.023 0.064,0.0129 0.12792,0.0236 0.19269,0.0309 0.0834,0.008 0.16527,0.023 0.24518,0.0488 0.006,0.001 0.012,0.004 0.0187,0.005 0.10637,0.0208 0.2043,0.0617 0.2956,0.11927 0.0495,0.0316 0.0985,0.0633 0.14943,0.0935 0.0361,0.0215 0.0734,0.0403 0.11007,0.0596 0.0215,0.0116 0.0446,0.0215 0.0668,0.0324 0.0396,0.0193 0.0762,0.0423 0.11006,0.0712 0.0762,0.0653 0.15166,0.13141 0.21573,0.21056 0.0159,0.0195 0.0318,0.0403 0.0475,0.0604 0.0194,0.023 0.0374,0.046 0.0582,0.0683 0.0222,0.023 0.0425,0.0482 0.0589,0.0755 0.0123,0.0195 0.0268,0.0361 0.044,0.0512 0.0539,0.0488 0.0928,0.10859 0.11779,0.17687 0.004,0.006 0.005,0.0121 0.006,0.0186 0.005,0.0324 0.0187,0.0604 0.0346,0.0893 0.0131,0.023 0.0236,0.048 0.0332,0.0725 0.025,0.0618 0.0264,0.12663 0.0243,0.19271 0,0.0331 -0.005,0.0661 -0.005,0.0992 0,0.0381 0,0.0747 0.006,0.11209 0.004,0.007 0,0.0153 0.004,0.023 0.008,0.0433 -0.0236,0.0814 -0.0683,0.0885 -0.0268,0.005 -0.0532,0.006 -0.0799,0.008 -0.0208,0.001 -0.0258,-0.004 -0.0321,-0.0237 0,-7.1e-4 0,-0.002 0,-0.003 -0.0152,-0.0265 -0.0201,-0.0552 -0.0222,-0.0854 0,-0.007 -0.004,-0.0153 -0.004,-0.0224 -0.0166,-0.048 -0.0286,-0.0985 -0.0489,-0.14595 -0.0173,-0.0401 -0.0279,-0.0827 -0.0335,-0.12571 0,-0.0144 -0.004,-0.028 -0.008,-0.0411 -0.0138,-0.0431 -0.0279,-0.0856 -0.0438,-0.12718 -0.009,-0.023 -0.0219,-0.0445 -0.0353,-0.0648 -0.0201,-0.0309 -0.0423,-0.0611 -0.0653,-0.092 -0.0268,-0.0359 -0.0598,-0.0661 -0.0913,-0.0985 -0.0194,-0.0193 -0.0375,-0.0411 -0.0561,-0.0618 -0.0145,-0.0151 -0.0296,-0.0309 -0.0431,-0.0468 -0.0166,-0.0186 -0.0339,-0.0366 -0.049,-0.0554 -0.072,-0.092 -0.1524,-0.17669 -0.24959,-0.24443 -0.0173,-0.0114 -0.0353,-0.023 -0.0539,-0.0337 -0.0279,-0.0158 -0.0559,-0.0316 -0.0834,-0.0482 -0.0321,-0.0201 -0.0631,-0.0396 -0.0985,-0.0547 -0.0131,-0.006 -0.0264,-0.0136 -0.0388,-0.0215 -0.0554,-0.0366 -0.11705,-0.0569 -0.18185,-0.0676 -0.0418,-0.007 -0.0826,-0.0101 -0.12443,-0.0131 -0.0705,-0.006 -0.14023,-0.0157 -0.20778,-0.0366 -0.0604,-0.0186 -0.12147,-0.0351 -0.18331,-0.048 -0.0396,-0.009 -0.0797,-0.0145 -0.12001,-0.0166 -0.0964,-0.006 -0.19272,-0.0109 -0.28896,-0.007 -0.10069,0.004 -0.20063,0.009 -0.29912,0.0309 -0.0152,0.004 -0.0303,0.005 -0.0447,0.007 -0.013,0.003 -0.025,0.005 -0.0374,0.01 -0.0626,0.0245 -0.12499,0.0504 -0.18482,0.0814 -0.0438,0.023 -0.0848,0.0495 -0.1222,0.0826 -0.004,0.003 -0.006,0.006 -0.01,0.008 -0.0756,0.0532 -0.14023,0.11927 -0.20652,0.18259 -0.0567,0.0554 -0.0985,0.12074 -0.1314,0.19197 -0.004,0.009 -0.006,0.0166 -0.007,0.0252 -0.004,0.028 -0.0138,0.0539 -0.031,0.0769 -0.004,0.004 -0.006,0.009 -0.008,0.0129 -0.0318,0.0374 -0.0519,0.0806 -0.0683,0.12589 -0.0123,0.0322 -0.0258,0.0639 -0.041,0.0941 -0.0222,0.044 -0.0431,0.0885 -0.0561,0.13675 -0.004,0.0144 -0.01,0.028 -0.0152,0.0416 -0.0332,0.0819 -0.0589,0.16547 -0.0769,0.25087 -0.0113,0.0532 -0.0166,0.10786 -0.0236,0.16179 -0.006,0.0468 -0.006,0.0942 -0.006,0.14172 v 0.046"
       style="fill:#21201d;fill-opacity:1;fill-rule:nonzero;stroke:none;stroke-width:0.184057"
       id="path618" />
    <path
       d="m 106.75783,146.95988 c 0.01,-0.004 0.0145,0.004 0.0194,0.008 0.008,0.009 0.0159,0.0173 0.0243,0.026 0.0243,0.0238 0.0525,0.0359 0.0878,0.0245 0.0152,-0.005 0.031,-0.006 0.0467,-0.009 0.03,-0.005 0.0574,-0.0166 0.0848,-0.0302 0.0106,-0.006 0.0187,-0.0136 0.0236,-0.0245 0.0236,-0.0574 0.0525,-0.11282 0.0639,-0.17393 0.004,-0.0195 0.006,-0.0381 0.004,-0.0561 -0.0127,-0.007 -0.0243,-0.005 -0.0361,-0.005 -0.0335,0 -0.0668,7e-4 -0.0997,0.001 -0.0303,0 -0.0591,-0.005 -0.0878,-0.0158 -0.012,-0.005 -0.0243,-0.007 -0.0366,-0.0109 -0.0159,-0.005 -0.0332,-0.0101 -0.0482,-0.0165 -0.0152,-0.006 -0.0303,-0.01 -0.0468,-0.01 -0.041,7.1e-4 -0.0811,0.001 -0.1222,7.1e-4 -0.018,0 -0.0359,-0.002 -0.0539,-0.005 -0.0258,-0.003 -0.051,-0.004 -0.0747,0.009 -0.004,0.002 -0.008,0.004 -0.0123,0.005 -0.0159,0.005 -0.0194,0.004 -0.0279,-0.0107 -0.004,-0.007 -0.01,-0.0123 -0.0159,-0.0151 -0.0106,-0.004 -0.0222,-0.009 -0.0332,-0.013 -0.012,-0.004 -0.018,-0.0136 -0.0215,-0.0257 -0.004,-0.0173 0,-0.0339 0.006,-0.0497 0.004,-0.007 0.0116,-0.0136 0.0187,-0.0166 0.0317,-0.0121 0.0648,-0.0201 0.0999,-0.0166 0.0332,0.004 0.0661,0.005 0.0992,0.007 0.004,0 0.006,-0.002 0.0102,-0.003 0,-0.0109 0,-0.0215 0,-0.0316 0,-0.0339 0.008,-0.0661 0.0251,-0.095 0.0116,-0.0186 0.0243,-0.0351 0.0418,-0.048 0.0166,-0.0138 0.0332,-0.0274 0.0475,-0.0425 0.0353,-0.0366 0.0762,-0.0547 0.1257,-0.0547 0.0166,0 0.0325,0 0.0482,0.002 0.0265,0.003 0.0453,0.0158 0.0562,0.041 0.0113,0.0258 0.0159,0.051 0.012,0.0782 0,0.004 -0.004,0.008 -0.004,0.0123 -0.005,10e-4 -0.008,0.002 -0.0131,0.003 -0.0194,0.004 -0.0194,0.004 -0.0208,0.0243 0,0.0166 -0.004,0.0195 -0.018,0.0188 -0.0173,-7e-4 -0.0346,-0.002 -0.051,-0.006 -0.0166,-0.003 -0.0303,-0.0101 -0.0346,-0.0289 -0.004,-0.0136 -0.0145,-0.0164 -0.0272,-0.0164 -0.0159,7.1e-4 -0.0272,0.008 -0.0353,0.0201 -0.0296,0.041 -0.0504,0.0848 -0.0353,0.13951 0.0293,0.0144 0.0633,0.0193 0.0978,0.0179 0.0289,-0.001 0.0576,-0.006 0.0843,-0.0164 0.0236,-0.009 0.0473,-0.0131 0.0725,-0.0138 0.0293,0 0.0596,-0.004 0.0878,-0.0151 0.006,-0.003 0.0145,-0.004 0.0215,-0.005 0.01,-0.001 0.0194,0 0.0279,0.006 0.006,0.004 0.0123,0.009 0.0187,0.0116 0.006,0.003 0.0145,0.004 0.0229,0.006 0.006,0.0216 0.0222,0.0265 0.0416,0.026 0.0166,0 0.0324,7.1e-4 0.0482,-0.001 0.0208,-0.003 0.0403,-7.1e-4 0.0582,0.0107 0.004,0.002 0.006,0.003 0.01,0.005 0.006,0.0121 0.004,0.0265 0.004,0.0409 0,0.023 0,0.0468 0.01,0.0683 0,0.004 0,0.009 0,0.0138 -0.0215,0.002 -0.0431,0.003 -0.0639,0.006 -0.0212,0.004 -0.0411,0.0101 -0.0618,0.0144 -0.006,0.0114 -0.004,0.0223 -0.004,0.0331 -0.004,0.0366 -0.004,0.0733 -0.006,0.10915 -0.004,0.0324 -0.0102,0.0633 -0.025,0.092 -0.0138,0.0274 -0.0318,0.0512 -0.0589,0.067 -0.0131,0.007 -0.0229,0.0186 -0.0311,0.0309 -0.0102,0.0164 -0.0243,0.0272 -0.0403,0.0359 -0.0194,0.009 -0.0374,0.0201 -0.0561,0.0309 -0.0243,0.0136 -0.0503,0.018 -0.0777,0.0151 -0.0194,-0.001 -0.0381,-0.006 -0.0574,-0.009 -0.0243,-0.004 -0.0497,-0.009 -0.0755,-0.0136 -0.007,-7.1e-4 -0.0145,-0.003 -0.0208,-0.006 -0.0109,-0.005 -0.0166,-0.0144 -0.0173,-0.0252 0,-0.006 0,-0.0129 0,-0.0195 0.004,-0.0337 0,-0.0683 -0.004,-0.1027 0,-0.001 0,-0.004 0.004,-0.005"
       style="fill:#21201d;fill-opacity:1;fill-rule:nonzero;stroke:none;stroke-width:0.184057"
       id="path620" />
    <path
       d="m 103.18676,146.71251 c 0,-0.0144 -0.004,-0.0274 -0.0194,-0.0353 -0.006,-0.003 -0.01,-0.0107 -0.012,-0.0178 -0.005,-0.0151 -0.0117,-0.0302 -0.0222,-0.0425 -0.0109,-0.0144 -0.013,-0.0309 -0.008,-0.0488 0.004,-0.0138 0.005,-0.0274 0.007,-0.0403 0.004,-0.0208 -0.004,-0.0388 -0.018,-0.0532 -0.0194,-0.0173 -0.0388,-0.0331 -0.0589,-0.0497 -0.008,-0.006 -0.0173,-0.008 -0.0268,-0.008 -0.0229,7.1e-4 -0.0453,0.002 -0.0675,0.002 -0.0138,7e-4 -0.0279,-7.1e-4 -0.0411,-0.006 -0.0194,-0.009 -0.0303,-0.023 -0.0293,-0.0453 0,-0.009 0,-0.0195 0.005,-0.0289 0.006,-0.0223 0.0138,-0.0445 0.0208,-0.0668 0,-0.004 0.004,-0.009 0.006,-0.0114 0.0194,-0.0188 0.0381,-0.0366 0.0584,-0.0554 0.004,-0.003 0.006,-0.004 0.0113,-0.006 0.0138,0.0129 0.0229,0.028 0.0286,0.046 0.007,0.023 0.0208,0.0388 0.0403,0.0517 0.018,0.0129 0.0361,0.0267 0.0539,0.0396 0.0222,0.0158 0.0475,0.0245 0.0742,0.0316 0.0272,0.007 0.0545,0.0151 0.0826,0.023 0.0152,0.003 0.0296,0.005 0.0445,0.008 0.005,7.1e-4 0.0109,0.002 0.0159,0.004 0.004,0.001 0.005,0.004 0.008,0.006 0,0.0203 -0.018,0.0267 -0.0293,0.0388 0,0.0144 0.006,0.0274 0.0145,0.0381 0.008,0.0101 0.01,0.0217 0.01,0.0331 0,0.0467 0,0.0928 0,0.13804 0,0.0418 -0.0152,0.0806 -0.0361,0.11578 -0.031,0.0502 -0.0639,0.0985 -0.10986,0.1373 -0.0152,0.0129 -0.0254,0.0287 -0.0346,0.046 -0.0145,0.026 -0.0303,0.0517 -0.0453,0.0769 -0.0166,0.0287 -0.0346,0.0569 -0.0495,0.0856 -0.0109,0.0201 -0.0229,0.0366 -0.0403,0.0495 -0.007,0.007 -0.0152,0.0123 -0.0229,0.018 -0.0201,0.0158 -0.0388,0.0331 -0.0539,0.0539 -0.006,0.009 -0.0138,0.0166 -0.0222,0.023 -0.0116,0.009 -0.0243,0.009 -0.0346,-0.002 -0.0113,-0.0129 -0.0243,-0.0237 -0.0396,-0.0322 -0.004,-0.002 -0.006,-0.004 -0.007,-0.007 -0.0208,-0.0258 -0.0481,-0.0453 -0.074,-0.0661 0,-0.002 -0.004,-0.003 -0.004,-0.005 -0.0303,-0.0331 -0.0618,-0.0655 -0.0908,-0.0999 -0.01,-0.0131 -0.0159,-0.0295 -0.0236,-0.0445 -0.006,-0.0116 -0.01,-0.0237 -0.0162,-0.0353 -0.0109,-0.0186 -0.0289,-0.0252 -0.049,-0.0223 -0.0138,0.002 -0.0272,0.008 -0.0403,0.0116 -0.012,0.003 -0.0243,0.007 -0.0374,0.007 -0.0201,0.001 -0.0303,-0.0123 -0.0236,-0.0309 0.008,-0.0252 0.0138,-0.0512 0.0346,-0.0712 0.005,-0.006 0.006,-0.0151 0.009,-0.0237 0.004,-0.0136 0.004,-0.0136 0.0138,-0.0272 0.0152,0.002 0.0293,0.002 0.0438,0.004 0.0116,0.001 0.0229,0.005 0.0339,0.0101 0.0208,0.009 0.0423,0.0193 0.0639,0.0295 0.0212,0.0101 0.041,0.023 0.0584,0.0388 0.0251,0.0237 0.0502,0.0468 0.0804,0.0633 0.0145,0.008 0.025,0.0201 0.0318,0.0352 0.0145,0.0295 0.0374,0.046 0.0675,0.0539 0.0131,0.004 0.0258,0.0107 0.0381,0.0173 0.0361,0.0201 0.0569,0.003 0.0598,-0.0324 0.004,-0.0144 0,-0.0295 0,-0.0445 0,-0.0131 0,-0.0252 0,-0.0388 0.0293,-0.0101 0.0438,-0.0316 0.0552,-0.0569 0.0194,-0.0453 0.0482,-0.0856 0.0749,-0.12645 0.012,-0.0195 0.0303,-0.0361 0.046,-0.0547"
       style="fill:#21201d;fill-opacity:1;fill-rule:nonzero;stroke:none;stroke-width:0.184057"
       id="path622" />
    <path
       d="m 103.9416,145.7232 c -0.009,0.0107 -0.0159,0.0193 -0.0243,0.028 -0.0106,0.0123 -0.0236,0.0201 -0.0394,0.0252 -0.0497,0.0166 -0.0994,0.0344 -0.14816,0.0525 -0.008,0.003 -0.0159,0.006 -0.0229,0.0109 -0.0166,0.01 -0.0332,0.0201 -0.0525,0.023 -0.0236,0.004 -0.0361,0.0351 -0.0194,0.0559 0.006,0.009 0.0138,0.0166 0.0215,0.0238 0.0123,0.0123 0.0222,0.0252 0.0296,0.0418 0.006,0.0114 0.0138,0.0237 0.0229,0.0344 0.0194,0.0223 0.0366,0.0468 0.0502,0.0742 0.004,0.008 0.01,0.0164 0.0138,0.025 0.0159,0.0302 0.0388,0.0532 0.069,0.0697 0.005,0.001 0.008,0.004 0.0116,0.006 0.0229,0.0116 0.0353,0.0309 0.0381,0.0554 0.004,0.0331 0.006,0.067 0.006,0.0992 0,0.021 -0.008,0.0324 -0.0286,0.0381 -0.0194,0.005 -0.0396,0.009 -0.0591,0.0123 -0.008,0.002 -0.0152,0.004 -0.0222,0.005 -0.0215,0.004 -0.0403,0.0116 -0.0539,0.0302 -0.0145,-0.006 -0.0243,-0.0151 -0.0328,-0.0265 -0.0208,-0.0282 -0.0425,-0.0561 -0.0619,-0.0856 -0.0166,-0.0252 -0.0268,-0.0532 -0.0296,-0.0841 0,-0.0136 -0.004,-0.0274 -0.008,-0.041 -0.008,-0.0331 -0.0251,-0.0611 -0.0526,-0.0819 -0.0473,-0.0374 -0.0782,-0.0871 -0.11059,-0.13657 -0.013,-0.0203 -0.0173,-0.0433 -0.0159,-0.0677 0.004,-0.0337 0.0106,-0.0653 0.0258,-0.0948 0.0116,-0.023 0.0282,-0.0403 0.0519,-0.0512 0.01,-0.004 0.0194,-0.009 0.0293,-0.0129 0.0222,-0.0101 0.0431,-0.023 0.0633,-0.0381 0.0127,-0.0101 0.0272,-0.0193 0.0416,-0.028 0.008,-0.004 0.007,-0.0123 0.0123,-0.018 0.005,-7.1e-4 0.0106,-0.001 0.0159,-0.001 0.018,0 0.0328,-0.006 0.046,-0.0186 0.0229,-0.0203 0.0466,-0.0374 0.0755,-0.0482 0.01,-0.005 0.018,-0.0121 0.0208,-0.023 0.006,-0.0201 0.0194,-0.0359 0.0359,-0.0482 0.0166,-0.0129 0.0282,-0.0287 0.0325,-0.0503 0,-0.001 0,-0.004 0,-0.006 0.007,-0.023 0.0138,-0.026 0.0374,-0.0188 0.01,0.003 0.0194,0.004 0.0279,0.006 0.0116,0.003 0.0229,0.006 0.0339,0.0109 0.0127,0.005 0.0222,0.0144 0.0243,0.028 0.008,0.0388 0.0346,0.0655 0.0604,0.0935 0,0.002 0.004,0.004 0.006,0.006 0.0215,0.0173 0.018,0.0274 -0.004,0.0418 -0.0194,0.0136 -0.0418,0.0216 -0.0641,0.0272 -0.0138,0.004 -0.0275,0.006 -0.0403,0.0116 -0.0187,0.006 -0.0222,0.0114 -0.0194,0.0302 0,0.005 0.004,0.009 0.004,0.0151"
       style="fill:#21201d;fill-opacity:1;fill-rule:nonzero;stroke:none;stroke-width:0.184057"
       id="path624" />
    <path
       d="m 102.02408,147.73127 c 0.007,0.0109 0.0102,0.0158 0.0159,0.023 0.008,-0.0331 0.018,-0.0633 0.0215,-0.095 0,-0.009 0.004,-0.0193 0.006,-0.028 0.005,-0.0201 0.0173,-0.0339 0.0359,-0.0431 0.0532,-0.0252 0.10343,-0.0561 0.15314,-0.0885 0.0152,-0.009 0.031,-0.0186 0.0467,-0.0272 0.0229,-0.0116 0.0475,-0.0195 0.074,-0.021 0.0303,-0.001 0.0589,-0.007 0.0871,-0.0193 0.0173,-0.008 0.0359,-0.0116 0.0559,-0.009 0.0194,0.002 0.0383,0.001 0.0576,-0.003 0.0138,-0.003 0.0254,0 0.0359,0.008 0.0201,0.0158 0.044,0.0267 0.067,0.0376 0.018,0.009 0.0359,0.0186 0.0539,0.0287 0.0279,0.0166 0.0394,0.0409 0.0353,0.0733 0,0.0136 -0.004,0.0274 -0.008,0.0403 -0.005,0.0158 -0.006,0.0295 0.008,0.0411 0.0113,0.009 0.0113,0.0215 0.006,0.0344 -0.005,0.0129 -0.009,0.0267 -0.009,0.041 0,0.0107 -0.01,0.0186 -0.0194,0.0144 -0.0339,-0.0158 -0.0698,-0.0101 -0.10435,-0.009 -0.0127,0 -0.0258,0 -0.0388,-7.1e-4 -0.004,0 -0.008,-0.002 -0.0106,-0.003 -0.008,-0.0101 -0.006,-0.0217 -0.007,-0.0316 -0.004,-0.0223 -0.008,-0.0418 -0.0229,-0.0591 -0.0117,-0.0136 -0.0254,-0.0223 -0.041,-0.0287 -0.0913,-0.0366 -0.20856,0.007 -0.25806,0.0849 -0.0138,0.0215 -0.0293,0.0418 -0.046,0.0618 -0.0275,0.0331 -0.0438,0.0705 -0.0446,0.1143 0,0.0188 0,0.0381 -0.004,0.0576 0,0.0121 0.004,0.0193 0.0138,0.0258 0.0445,0.0281 0.0942,0.0403 0.14669,0.041 0.008,0 0.0173,0 0.0261,0 0.0423,0.003 0.0626,0.0403 0.0423,0.0777 -0.013,0.023 -0.0303,0.0416 -0.0539,0.0547 -0.0254,0.0129 -0.0243,0.0136 -0.0374,0.0366 -0.0131,0.006 -0.0265,0.004 -0.0403,0.002 -0.0258,-0.004 -0.051,-0.007 -0.0762,-0.0116 -0.01,-0.001 -0.0194,-0.004 -0.0279,-0.007 -0.0261,-0.007 -0.051,-0.0158 -0.0769,-0.0245 -0.004,-7e-4 -0.01,-0.003 -0.0145,-0.005 -0.018,-0.007 -0.031,-0.0203 -0.0339,-0.0396 0,-0.0158 -0.007,-0.028 -0.0208,-0.0381 -0.0159,-0.0121 -0.0187,-0.0309 -0.0187,-0.049 0,-0.0351 0.004,-0.0703 0.005,-0.10565 0,-0.009 0.004,-0.0173 0.006,-0.0252 0.01,-0.0243 0.0113,-0.0488 0.008,-0.0755 0,-0.0107 0,-0.0215 0,-0.0317 0,-0.005 0.004,-0.01 0.006,-0.0193"
       style="fill:#21201d;fill-opacity:1;fill-rule:nonzero;stroke:none;stroke-width:0.184057"
       id="path626" />
    <path
       d="m 106.00948,145.77069 c 0.0187,-0.005 0.0279,-0.0203 0.0335,-0.0388 0.005,-0.0123 0.007,-0.0245 0.0131,-0.0361 0.01,-0.0201 0.0229,-0.0258 0.0447,-0.0201 0.0236,0.006 0.0438,0.018 0.0567,0.0396 0.0138,0.0208 0.0303,0.0388 0.0475,0.056 0.01,0.009 0.0173,0.0188 0.025,0.0296 0.01,0.0121 0.0194,0.0223 0.0374,0.0215 0,0 0.004,7.1e-4 0.006,10e-4 0.0102,0.003 0.0159,0.0107 0.0145,0.0223 0,0.007 -0.004,0.0144 -0.006,0.0208 -0.006,0.0151 -0.0145,0.0287 -0.0215,0.0431 -0.01,0.0195 -0.0208,0.0376 -0.0286,0.0576 -0.01,0.0201 -0.0229,0.0324 -0.046,0.0344 -0.0116,7e-4 -0.0229,0.004 -0.0346,0.005 -0.0173,0.001 -0.0311,0.009 -0.0396,0.0245 -0.01,0.0157 -0.018,0.0315 -0.0243,0.048 -0.004,0.009 -0.004,0.0188 -0.004,0.0282 0,0.0144 0.006,0.025 0.018,0.0315 0.006,0.004 0.0113,0.006 0.0173,0.009 0.01,0.006 0.0152,0.0151 0.0159,0.0267 0.004,0.0337 0,0.0661 -0.0131,0.0977 -0.006,0.0166 -0.0166,0.0295 -0.0346,0.0353 -0.0159,0.005 -0.025,0.0151 -0.0318,0.0302 -0.0152,0.0374 -0.0381,0.071 -0.0626,0.10417 -0.0116,0.0166 -0.0229,0.0331 -0.0346,0.0497 -0.004,0.005 -0.006,0.009 -0.01,0.0129 -0.007,0.007 -0.018,0.009 -0.0261,0.001 -0.01,-0.009 -0.0173,-0.0188 -0.0261,-0.0289 -0.008,-0.009 -0.0159,-0.0201 -0.025,-0.0295 -0.0152,-0.0136 -0.0339,-0.0215 -0.0547,-0.0245 -0.0289,-0.003 -0.046,-0.0179 -0.0482,-0.0539 -0.004,-0.0567 -0.004,-0.11282 0.0187,-0.16675 0.0159,-0.0396 0.0339,-0.0769 0.0589,-0.11062 0.006,-0.009 0.0127,-0.0203 0.0201,-0.0289 0.0475,-0.0582 0.0814,-0.12296 0.10637,-0.19253 0.0116,-0.0324 0.0243,-0.0641 0.0376,-0.0999"
       style="fill:#21201d;fill-opacity:1;fill-rule:nonzero;stroke:none;stroke-width:0.184057"
       id="path628" />
    <path
       d="m 104.86115,145.7059 c 0.007,10e-4 0.0131,0.004 0.0201,0.004 0.0654,0.006 0.13219,0.0109 0.19844,0.001 0.0215,-0.004 0.0438,-0.008 0.0653,-0.0136 0.013,-0.004 0.0254,-0.0114 0.0374,-0.018 0.005,-0.002 0.01,-0.004 0.0116,-0.006 0.0215,0.007 0.0409,0.0144 0.0596,0.0201 0.0268,0.008 0.0425,0.0245 0.0431,0.0526 0,0.0186 0.004,0.0366 0.004,0.0547 0,0.006 0,0.0129 -0.004,0.0193 -0.005,0.0114 -0.0123,0.0201 -0.0258,0.0208 -0.0109,0 -0.0208,7e-4 -0.0318,0 -0.0318,-7.1e-4 -0.0618,0 -0.0906,0.0151 -0.008,0.004 -0.0187,0.004 -0.0286,0.004 -0.0251,-0.002 -0.0418,0.009 -0.0532,0.0324 -0.0173,0.0322 -0.0325,0.0366 -0.0656,0.0223 -0.0194,-0.009 -0.0403,-0.0144 -0.0604,-0.0195 -0.0339,-0.008 -0.0661,-0.0186 -0.0992,-0.0287 -0.008,0.004 -0.01,0.0114 -0.0102,0.018 -0.004,0.0171 -0.005,0.0344 -0.006,0.051 0,0.023 -0.006,0.0445 -0.012,0.0661 -0.0212,0.0663 -0.0403,0.13307 -0.0606,0.19915 0,0.001 0,0.001 -0.004,0.004 -0.0166,-0.0101 -0.0346,-0.0208 -0.0511,-0.0309 -0.0166,-0.0109 -0.0328,-0.0195 -0.0517,-0.0267 -0.0279,-0.01 -0.0325,-0.0171 -0.031,-0.0473 0,-0.0123 0.004,-0.026 0.005,-0.0383 0.004,-0.0236 0.006,-0.0466 0.005,-0.0703 0,-0.0633 0.007,-0.12516 0.0222,-0.187 0.0131,-0.0517 0.0236,-0.10418 0.0332,-0.15682 0.004,-0.0251 0.004,-0.0517 0.004,-0.0768 0,-0.0403 0,-0.0403 0.0208,-0.0777 0.009,-0.0158 0.0155,-0.0324 0.0243,-0.0482 0.005,-0.0109 0.0116,-0.0208 0.0201,-0.0287 0.01,-0.0109 0.0215,-0.021 0.0279,-0.0346 0.004,-0.003 0.004,-0.005 0.006,-0.006 0.0102,-0.009 0.0243,-0.008 0.03,0.004 0.005,0.008 0.007,0.0179 0.01,0.0272 0.005,0.0287 0.004,0.0574 0.004,0.0863 0,0.0324 -0.004,0.0639 -0.004,0.0963 0,0.041 0.0109,0.0806 0.0359,0.11651"
       style="fill:#21201d;fill-opacity:1;fill-rule:nonzero;stroke:none;stroke-width:0.184057"
       id="path630" />
    <path
       d="m 107.1806,147.70182 c 0.004,-0.0893 0.0318,-0.16399 0.0863,-0.22804 0.0152,-0.0164 0.0314,-0.0322 0.0481,-0.0473 0.0159,-0.0138 0.0282,-0.0324 0.0482,-0.041 0.004,-0.001 0.004,-0.005 0.006,-0.008 0.013,-0.0208 0.031,-0.0381 0.0497,-0.0547 0.005,-0.005 0.0113,-0.0101 0.0145,-0.0158 0.0159,-0.0245 0.0403,-0.0388 0.0582,-0.0596 0.006,-0.006 0.0145,-0.0101 0.0222,-0.0114 0.0219,-0.006 0.0376,0.003 0.0411,0.0243 0.008,0.0411 0.0109,0.0814 -0.0194,0.11872 -0.0296,0.0351 -0.0626,0.0639 -0.10435,0.0826 -0.0173,0.007 -0.0286,0.0173 -0.0339,0.0351 -0.004,0.008 -0.007,0.0153 -0.0116,0.023 -0.0138,0.0225 -0.0173,0.0475 -0.0152,0.0734 0,0.004 0,0.006 0,0.0101 0.008,0.0438 0.0113,0.0883 0.008,0.13363 0,0.006 0,0.0109 0,0.0158 0,0.0215 0.007,0.0403 0.0208,0.0561 0.0127,0.0158 0.0261,0.0309 0.0374,0.048 0.0229,0.0375 0.0547,0.0353 0.0841,0.0123 0.009,-0.007 0.0173,-0.0158 0.0261,-0.0237 0.0279,-0.0238 0.0596,-0.0267 0.0935,-0.0158 0.0152,0.005 0.0286,0.0144 0.0423,0.0223 0.0117,0.007 0.0138,0.0136 0.007,0.0274 -0.0106,0.0243 -0.0229,0.048 -0.0359,0.071 -0.009,0.0151 -0.0173,0.0289 -0.0194,0.0468 -0.004,0.0223 -0.0173,0.0388 -0.0353,0.0517 -0.0254,0.018 -0.0525,0.0296 -0.0827,0.0324 -0.0215,0.002 -0.0418,0.008 -0.0604,0.0195 -0.0194,0.0114 -0.0381,0.0114 -0.0584,0.003 -0.0222,-0.009 -0.0453,-0.0186 -0.0683,-0.028 -0.0222,-0.009 -0.0416,-0.023 -0.0562,-0.041 -0.0152,-0.0179 -0.0293,-0.0374 -0.0438,-0.0559 -0.01,-0.0131 -0.0173,-0.0274 -0.0173,-0.044 -0.004,-0.0631 -0.0187,-0.12424 -0.0286,-0.18682 -0.004,-0.0166 -0.004,-0.0339 -0.005,-0.046"
       style="fill:#21201d;fill-opacity:1;fill-rule:nonzero;stroke:none;stroke-width:0.184057"
       id="path632" />
    <path
       d="m 102.49437,146.44783 c -0.005,-0.0258 -0.008,-0.0517 -0.0123,-0.0769 -0.004,-0.0258 0.004,-0.0488 0.013,-0.0711 0.004,-0.009 0.01,-0.0166 0.0201,-0.0217 0.0152,0.007 0.0303,0.0144 0.0446,0.0223 0.0187,0.008 0.0381,0.0145 0.0591,0.0145 0.0145,-7.1e-4 0.0272,0.004 0.0394,0.0114 0.0275,0.0166 0.0554,0.0331 0.0821,0.0504 0.0173,0.0107 0.031,0.0257 0.0416,0.0438 0.01,0.0166 0.0201,0.0324 0.0388,0.0409 0.004,0.002 0.008,0.007 0.01,0.0116 0.004,0.0151 0.0145,0.0208 0.0261,0.026 0.01,0.004 0.0201,0.006 0.0303,0.01 0.0138,0.004 0.0254,0.0116 0.0335,0.0237 0.007,0.0101 0.0152,0.0195 0.0236,0.0295 0.0145,0.0166 0.0229,0.0361 0.0261,0.0576 0.004,0.0151 -0.004,0.0265 -0.0145,0.0366 -0.0201,0.0166 -0.0396,0.0352 -0.0576,0.0547 -0.01,0.0101 -0.0159,0.023 -0.0236,0.0344 -0.006,0.0101 -0.0113,0.021 -0.0194,0.0296 -0.0102,0.0121 -0.0236,0.0164 -0.0403,0.0107 -0.0208,-0.007 -0.0353,-0.0193 -0.0403,-0.0416 -0.004,-0.009 -0.004,-0.0188 -0.005,-0.0282 0,-0.009 0,-0.0171 0,-0.0258 -0.004,-0.0591 -0.0286,-0.1051 -0.0777,-0.13676 -0.0279,-0.0193 -0.0581,-0.0351 -0.0883,-0.051 -0.0275,-0.0151 -0.0554,-0.0272 -0.0834,-0.0411 -0.009,-0.004 -0.0173,-0.009 -0.0243,-0.0136"
       style="fill:#21201d;fill-opacity:1;fill-rule:nonzero;stroke:none;stroke-width:0.184057"
       id="path634" />
    <path
       d="m 103.97102,145.89787 c 0,-0.002 0,-0.004 -0.004,-0.006 -0.0138,-0.0195 -0.0138,-0.0195 0.006,-0.0331 0.006,-0.005 0.0109,-0.0121 0.0145,-0.0193 0.006,-0.0116 0.0138,-0.0188 0.0275,-0.0195 0.0152,-0.001 0.0272,-0.008 0.0328,-0.0252 0.006,-0.0186 0.0229,-0.0272 0.0418,-0.0302 0.0236,-0.003 0.0475,-0.003 0.0705,-0.004 0.0127,0 0.0222,0.006 0.0272,0.0179 0.004,0.005 0.005,0.0101 0.006,0.0151 0.005,0.0145 0.0109,0.0274 0.0215,0.0388 0.0131,0.0151 0.0123,0.0309 0.004,0.0475 -0.005,0.008 -0.0109,0.0158 -0.0159,0.0237 -0.0208,0.0309 -0.0243,0.0633 -0.006,0.097 0.0187,0.0339 0.01,0.0663 -0.008,0.0972 -0.008,0.0136 -0.0208,0.0216 -0.0367,0.0216 -0.0109,7e-4 -0.0219,0 -0.0324,-7.1e-4 -0.0116,-0.001 -0.0201,-0.006 -0.0275,-0.0151 -0.0138,-0.0166 -0.0279,-0.0324 -0.0394,-0.0495 -0.01,-0.013 -0.0145,-0.0289 -0.0208,-0.044 -0.006,-0.0129 -0.0138,-0.0245 -0.0279,-0.0287 -0.0116,-0.003 -0.0215,-0.009 -0.0279,-0.0193 -0.007,-0.0123 -0.0102,-0.026 -0.01,-0.0403 0,-0.008 0.004,-0.0166 0.004,-0.0245"
       style="fill:#21201d;fill-opacity:1;fill-rule:nonzero;stroke:none;stroke-width:0.184057"
       id="path636" />
    <path
       d="m 107.6034,147.71618 c -0.006,0.001 -0.0138,0.004 -0.0201,0.005 -0.008,0.001 -0.0145,-0.005 -0.0159,-0.0129 0,-0.004 0,-0.009 0,-0.0121 0,-0.0353 -0.006,-0.0685 -0.0145,-0.10142 -0.004,-0.0158 -0.006,-0.0316 -0.006,-0.0475 0,-0.0252 0.0116,-0.0359 0.0359,-0.0346 0.0296,10e-4 0.0576,-0.004 0.0848,-0.0151 0.0303,-0.0136 0.0626,-0.0144 0.0942,-0.0164 0.0279,-0.003 0.0547,-0.009 0.0806,-0.0202 0.0155,-0.006 0.0321,-0.0101 0.048,-0.0158 0.0123,-0.004 0.0236,-0.0107 0.0346,-0.0166 0.0152,-0.008 0.025,-0.006 0.0328,0.007 0.01,0.0156 0.0194,0.0302 0.031,0.0445 0.0123,0.0158 0.0116,0.0381 0.0131,0.0582 0,0.004 -0.004,0.0109 -0.008,0.0123 -0.0102,0.005 -0.0215,0.008 -0.0332,0.0107 -0.007,0.002 -0.0152,0.001 -0.0222,0.001 -0.0215,-0.001 -0.0403,0.006 -0.0567,0.0186 -0.008,0.006 -0.0152,0.0123 -0.0233,0.0166 -0.0127,0.007 -0.0258,0.0123 -0.0387,0.0151 -0.0396,0.007 -0.0784,0.0123 -0.11797,0.007 -0.0268,-0.004 -0.0453,0.007 -0.0633,0.0245 -0.0243,0.0252 -0.0286,0.0331 -0.0346,0.072"
       style="fill:#21201d;fill-opacity:1;fill-rule:nonzero;stroke:none;stroke-width:0.184057"
       id="path638" />
    <path
       d="m 105.61246,145.96045 c 0.005,-0.0101 0.008,-0.0208 0.0159,-0.0282 0.0123,-0.0121 0.0123,-0.0265 0.0116,-0.0416 0,-0.004 0,-0.009 0,-0.0129 -0.004,-0.0237 0.006,-0.0418 0.0265,-0.0547 0.0152,-0.0101 0.0293,-0.021 0.0361,-0.0396 0,-0.003 0.004,-0.006 0.006,-0.007 0.0187,-0.0116 0.0254,-0.0309 0.0324,-0.0497 0.006,-0.0136 0.0138,-0.0272 0.0215,-0.0388 0.0159,-0.0223 0.0353,-0.0409 0.0567,-0.0567 0.007,-0.004 0.0145,-0.009 0.0229,-0.0136 0.004,0.005 0.006,0.008 0.006,0.0121 0.007,0.0359 0.0145,0.0733 0.0208,0.11007 0.004,0.01 0,0.0208 0,0.0322 0,0.0173 -0.008,0.0324 -0.0215,0.0447 -0.005,0.004 -0.0102,0.008 -0.0152,0.0129 -0.0243,0.0193 -0.0374,0.046 -0.0403,0.0769 0,0.0178 -0.004,0.0366 -0.004,0.0547 0,0.023 -0.01,0.0359 -0.0296,0.0438 -0.0332,0.0151 -0.0683,0.0188 -0.10344,0.0144 -0.0194,-0.003 -0.0339,-0.0129 -0.0368,-0.0344 0,-0.007 -0.004,-0.0145 -0.006,-0.0245"
       style="fill:#21201d;fill-opacity:1;fill-rule:nonzero;stroke:none;stroke-width:0.184057"
       id="path640" />
    <path
       d="m 107.82703,147.74784 c 0.0366,-0.0101 0.0747,-0.009 0.11133,0.005 0,0.004 0.004,0.009 0.004,0.0144 0.004,0.0712 0.004,0.14099 -0.0138,0.21075 -0.004,0.0208 -0.004,0.0423 -0.006,0.0639 0,0.004 0,0.008 0,0.0131 -0.0127,0.004 -0.0236,-0.003 -0.0346,-0.006 -0.0194,-0.006 -0.0374,-0.004 -0.0561,0.005 -0.007,0.004 -0.0152,0.006 -0.0236,0.009 -0.004,7e-4 -0.006,-7.1e-4 -0.01,-0.001 -0.007,-0.0136 -0.004,-0.0287 -0.004,-0.0431 0.004,-0.0232 0.006,-0.0468 0.008,-0.0698 0.004,-0.0223 0.005,-0.0447 0.006,-0.067 0.004,-0.0245 0.004,-0.0488 0.004,-0.074 0,-0.0201 0,-0.0403 0.0159,-0.0596"
       style="fill:#21201d;fill-opacity:1;fill-rule:nonzero;stroke:none;stroke-width:0.184057"
       id="path642" />
    <path
       d="m 105.07906,145.51816 c 0.004,-0.0129 0.004,-0.0208 0.006,-0.0287 0.004,-0.008 0.006,-0.0158 0.0102,-0.0237 0.0152,-0.0316 0.0159,-0.0329 0.006,-0.0668 0.004,-0.0109 0.0113,-0.0193 0.0243,-0.0151 0.0303,0.0109 0.0611,0.005 0.092,0.005 0.0159,0 0.0318,-7e-4 0.0475,0.001 0.0265,0.004 0.0381,0.0151 0.0423,0.041 0,0.009 0.004,0.0193 0,0.0287 -0.004,0.0252 -0.009,0.0503 -0.0131,0.0755 0,0.008 -0.004,0.0144 -0.007,0.0208 -0.005,0.0101 -0.0145,0.0131 -0.0243,0.0101 -0.004,-7.1e-4 -0.004,-7.1e-4 -0.006,-0.002 -0.0318,-0.0215 -0.0705,-0.0243 -0.10435,-0.0387 -0.012,-0.006 -0.0272,-0.006 -0.041,-0.007 -0.009,-0.001 -0.0187,-7.1e-4 -0.0339,-7.1e-4"
       style="fill:#21201d;fill-opacity:1;fill-rule:nonzero;stroke:none;stroke-width:0.184057"
       id="path644" />
    <path
       d="m 102.60073,147.97865 c 0,-0.009 -0.004,-0.0166 -0.004,-0.0245 0.0162,0.004 0.0303,0.007 0.0446,0.0107 0.004,7.1e-4 0.01,0.002 0.0113,0.005 0.01,0.0114 0.0215,0.0158 0.0361,0.0173 0.018,10e-4 0.0286,0.0136 0.0346,0.0302 0.0152,0.0438 -0.0222,0.10418 -0.0618,0.10565 -0.0254,7e-4 -0.051,0.005 -0.0762,0.003 -0.0446,-0.004 -0.0618,-0.0309 -0.0475,-0.0733 0.008,-0.0287 0.0275,-0.0502 0.0524,-0.0668 0.004,-0.003 0.007,-0.005 0.0109,-0.007"
       style="fill:#21201d;fill-opacity:1;fill-rule:nonzero;stroke:none;stroke-width:0.184057"
       id="path646" />
  </g>
</svg>
