<?xml version="1.0" encoding="UTF-8" standalone="no"?>
<!-- Created with Inkscape (http://www.inkscape.org/) -->

<svg
   width="7.1149402mm"
   height="6.8338799mm"
   viewBox="0 0 7.1149402 6.8338799"
   version="1.1"
   id="svg2870"
   inkscape:version="1.1.2 (0a00cf5339, 2022-02-04)"
   sodipodi:docname="c16.svg"
   xmlns:inkscape="http://www.inkscape.org/namespaces/inkscape"
   xmlns:sodipodi="http://sodipodi.sourceforge.net/DTD/sodipodi-0.dtd"
   xmlns="http://www.w3.org/2000/svg"
   xmlns:svg="http://www.w3.org/2000/svg">
  <sodipodi:namedview
     id="namedview2872"
     pagecolor="#ffffff"
     bordercolor="#666666"
     borderopacity="1.0"
     inkscape:pageshadow="2"
     inkscape:pageopacity="0.0"
     inkscape:pagecheckerboard="0"
     inkscape:document-units="mm"
     showgrid="false"
     inkscape:zoom="0.64052329"
     inkscape:cx="-1122.5197"
     inkscape:cy="-47.617316"
     inkscape:window-width="2560"
     inkscape:window-height="1376"
     inkscape:window-x="0"
     inkscape:window-y="0"
     inkscape:window-maximized="1"
     inkscape:current-layer="layer1" />
  <defs
     id="defs2867" />
  <g
     inkscape:label="Layer 1"
     inkscape:groupmode="layer"
     id="layer1"
     transform="translate(-402.08028,-160.98602)">
    <path
       d="m 409.19522,166.5926 c -7e-4,0 -0.002,0 -0.002,0.002 -0.005,0.0315 -0.0208,0.0604 -0.0287,0.0913 -10e-4,0.006 -0.005,0.0129 -0.008,0.0186 -10e-4,0.005 -0.004,0.0101 -0.006,0.0158 -7e-4,0.005 0,0.0101 -0.002,0.0144 -0.01,0.0252 -0.0136,0.0512 -0.0143,0.0769 0,0.002 -0.001,0.004 -0.003,0.007 -0.023,0.0101 -0.0473,0.0188 -0.074,0.0188 -0.0237,0 -0.0467,0 -0.0705,0 -0.0322,0 -0.0646,0 -0.0963,0.002 -0.0403,0 -0.0799,0 -0.11872,-0.0116 -0.0165,-0.004 -0.0351,-0.005 -0.0525,-0.005 -0.0495,0.002 -0.0992,0.004 -0.14872,0.006 -0.0173,0 -0.0346,0 -0.0519,-0.002 -0.0151,-0.002 -0.0208,-0.0107 -0.0166,-0.025 0.004,-0.0131 0.009,-0.0252 0.0151,-0.0381 0.0101,-0.0203 0.0138,-0.0418 0.0145,-0.0655 -0.007,0 -0.0116,-0.002 -0.0173,-0.002 -0.14099,0 -0.28252,0 -0.42351,0 -0.0403,0 -0.0799,0.005 -0.11927,0.008 -0.0618,0.004 -0.12295,0.006 -0.18406,0.0101 -0.0964,0.005 -0.1927,0.009 -0.28915,0.0166 -0.11706,0.009 -0.2343,0.0201 -0.35302,0.0193 -0.0359,0 -0.0718,0.004 -0.10712,0.007 -0.0725,0.006 -0.14375,0.0116 -0.21627,0.009 -0.0497,-0.002 -0.0994,-0.004 -0.1489,-0.007 -0.0668,-0.005 -0.13381,-0.009 -0.20135,-0.009 -0.14007,0 -0.28032,0 -0.42057,-0.002 -0.0468,0 -0.0935,-0.006 -0.13952,-0.008 -0.0431,-0.003 -0.0861,-0.005 -0.12939,-0.007 -0.0309,0 -0.0618,0 -0.0928,0 -0.0705,0 -0.14007,-0.005 -0.20983,-0.009 -0.046,-0.003 -0.092,-0.003 -0.13804,-0.002 -0.0641,0.002 -0.12884,0.002 -0.19271,-0.003 -0.069,-0.004 -0.13804,-0.009 -0.20706,-0.0151 -0.0547,-0.004 -0.11006,-0.009 -0.16547,-0.0121 -0.007,0 -0.0136,0 -0.0215,0 -0.001,0.006 -0.003,0.0107 -0.004,0.0166 -0.001,0.0158 -0.001,0.0329 -0.004,0.0488 -0.005,0.0316 -0.0129,0.0381 -0.0438,0.0381 -0.0324,-0.002 -0.0641,-0.004 -0.0965,-0.01 -0.0366,-0.008 -0.0747,-0.0101 -0.11356,-0.009 -0.0596,0.002 -0.12,0.004 -0.18037,0.005 -0.0245,0 -0.049,0 -0.0734,-0.004 -0.0158,-0.002 -0.0322,-0.007 -0.0467,-0.0145 -0.0272,-0.0129 -0.0344,-0.0337 -0.0251,-0.0574 0.005,-0.0144 0.009,-0.0295 0.0144,-0.0438 0.003,-0.007 0.005,-0.0143 0.008,-0.0245 h -0.0339 c -0.31123,0 -0.62118,0.002 -0.93243,0.002 -0.0611,0 -0.12294,0 -0.18405,-0.002 -0.0274,0 -0.0539,-0.005 -0.0814,-0.007 -0.0272,-0.003 -0.0547,-0.006 -0.0819,-0.006 -0.0589,-0.002 -0.11853,-0.002 -0.17761,-0.004 -0.0374,-0.002 -0.0718,0.006 -0.10492,0.0203 -0.003,0.002 -0.005,0.004 -0.007,0.006 v 0.023 c 0,0.0144 10e-4,0.0295 7e-4,0.0438 -7e-4,0.0582 -0.0339,0.10491 -0.0893,0.12442 -0.0171,0.006 -0.0351,0.01 -0.0539,0.0107 -0.0675,0.002 -0.13584,0.002 -0.20412,0 -0.0331,0 -0.0653,-0.006 -0.0985,-0.0114 -0.0237,-0.004 -0.0346,-0.0144 -0.0359,-0.0388 -10e-4,-0.0195 -0.006,-0.0381 -0.0158,-0.0554 -7.1e-4,-0.003 -0.006,-0.004 -0.009,-0.006 v -0.0762 c 0.001,-0.006 0.004,-0.0123 0.005,-0.0188 0.004,-0.0272 0.008,-0.0539 0.0116,-0.0812 0.005,-0.0295 0.009,-0.0589 0.006,-0.0898 0,-0.007 -7e-4,-0.0145 -0.005,-0.0188 -0.006,-0.006 -0.007,-0.0129 -0.007,-0.0208 -0.002,-0.0195 -0.004,-0.0388 -0.006,-0.0583 -7.1e-4,-0.009 -0.004,-0.0186 -0.005,-0.028 v -0.023 c 0.003,-0.004 0.008,-0.006 0.01,-0.0101 0.006,-0.0186 0.021,-0.0272 0.0368,-0.0351 0.0329,-0.0144 0.0683,-0.018 0.1027,-0.005 0.0245,0.008 0.049,0.01 0.0747,0.009 0.0274,-0.002 0.0539,0.002 0.0806,0.009 0.018,0.005 0.0359,0.008 0.0547,0.004 0.0173,-0.004 0.0344,0 0.0517,0.007 0.0166,0.006 0.0331,0.009 0.051,0.009 0.0225,0 0.0396,0.009 0.0512,0.0289 0.002,0.004 0.004,0.006 0.007,0.0107 0.007,0 0.0144,0.002 0.0223,0 0.0676,0 0.13436,0.002 0.20136,0.007 0.0554,0.004 0.11062,0.009 0.16602,0.0144 0.0331,0.003 0.0661,0.006 0.0985,0.007 0.0512,0.003 0.10141,0.005 0.1524,0.006 0.0583,0.002 0.11651,0.008 0.17485,0.0136 0.046,0.005 0.0926,0.009 0.13933,0.0101 0.1432,0.002 0.28621,0.002 0.42922,-0.007 0.0569,-0.002 0.11301,-0.006 0.16896,-0.0107 0.0145,0 0.0289,-0.004 0.044,-0.005 0.051,-0.004 0.10271,-0.008 0.15387,-0.0114 0.0251,-0.002 0.051,-0.004 0.0762,-0.006 0.20559,-0.0158 0.41266,-0.018 0.61899,-0.0173 0.0574,0 0.11503,0 0.1719,0 0.0416,0 0.0819,0.004 0.12222,0.0101 0.033,0.004 0.0661,0.007 0.0992,0.007 0.0963,0.002 0.19271,0 0.28897,-0.002 0.0883,-0.002 0.17688,0.002 0.26522,0.0123 0.0908,0.0107 0.18204,0.0208 0.27333,0.0287 0.0935,0.009 0.18829,0.0158 0.28252,0.0144 0.0618,0 0.12222,0.002 0.18333,0.009 0.0366,0.005 0.074,0.006 0.1108,0.006 0.14945,0 0.29835,-0.004 0.44707,-0.009 0.13454,-0.004 0.26891,-0.0109 0.40345,-0.005 0.0559,0.002 0.11283,-0.003 0.16897,-0.0109 0.069,-0.009 0.13877,-0.0151 0.20908,-0.0201 0.0403,-0.004 0.0813,-0.007 0.12222,-0.0101 0.0368,-0.003 0.0734,-0.006 0.1108,-0.007 0.0582,-0.003 0.1165,-0.009 0.17393,-0.0173 0.0203,-0.003 0.041,-0.004 0.0611,-0.005 0.008,0 0.0151,-0.002 0.0203,-0.009 0.002,-0.003 0.008,-0.005 0.0129,-0.006 0.0188,-0.006 0.0388,-0.0109 0.0582,-0.018 0.018,-0.006 0.0368,-0.01 0.0569,-0.01 0.0351,0 0.0705,0 0.10491,0 0.0101,0 0.0202,0 0.0295,0.002 0.0274,0.007 0.0554,0.0101 0.0836,0.0136 0.0178,0.002 0.0366,0.005 0.0545,0.009 0.0396,0.009 0.0799,0.004 0.11945,0.002 0.0114,0 0.0223,-0.005 0.0337,-0.009 0.008,-0.002 0.0166,-0.005 0.0252,-0.005 0.0203,-0.002 0.0353,0.0121 0.0388,0.0317 0.004,0.023 0.008,0.046 0.0123,0.069 7.1e-4,0.002 0.003,0.003 0.004,0.004 v 0.164 z"
       style="fill:#21201d;fill-opacity:1;fill-rule:nonzero;stroke:none;stroke-width:0.184057"
       id="path648" />
    <path
       d="m 405.27335,167.8199 c -0.0188,-0.004 -0.0361,-0.009 -0.0547,-0.0109 -0.0447,-0.006 -0.0871,-0.0193 -0.12737,-0.0403 -0.048,-0.0265 -0.0985,-0.051 -0.14871,-0.0733 -0.0195,-0.009 -0.0381,-0.0201 -0.0569,-0.0309 -0.0158,-0.0101 -0.0324,-0.0121 -0.0497,-0.005 -0.0473,0.0178 -0.0963,0.0223 -0.14651,0.0215 -0.041,0 -0.0821,0 -0.12222,-0.004 -0.0583,-0.005 -0.11503,-0.002 -0.17191,0.009 -0.051,0.009 -0.10215,0.0173 -0.15387,0.0203 -0.0569,0.004 -0.11356,0.0144 -0.16896,0.0287 -0.0532,0.0136 -0.10638,0.0121 -0.15884,-0.004 -0.0287,-0.009 -0.0576,-0.0164 -0.0863,-0.025 -0.0201,-0.005 -0.0359,-0.0151 -0.0475,-0.0316 -0.004,-0.006 -0.008,-0.0136 -0.0121,-0.0203 -0.0215,-0.0337 -0.0532,-0.0539 -0.0913,-0.0624 -0.0166,-0.004 -0.0331,-0.006 -0.0497,-0.006 -0.0797,0 -0.15958,0.002 -0.23872,0.013 -0.0445,0.006 -0.0876,0.0151 -0.13215,0.023 -0.0281,0.004 -0.0561,0.008 -0.0841,0.0121 -0.0238,0.004 -0.0482,0.006 -0.072,0.0101 -0.0339,0.005 -0.0683,0.003 -0.10215,0.002 -0.004,0 -0.008,0 -0.0114,-0.002 -0.009,-0.003 -0.0151,-0.0101 -0.0136,-0.0195 10e-4,-0.008 0.003,-0.0151 0.005,-0.023 0.007,-0.0216 0.009,-0.0431 0.006,-0.0661 -0.007,-0.0438 0.009,-0.0504 0.0445,-0.0532 0.0109,-0.002 0.0215,0 0.0324,0 0.0683,0.007 0.13657,0.004 0.20412,0.003 0.0188,0 0.0368,-0.005 0.0539,-0.0107 0.0267,-0.008 0.0519,-0.0188 0.0769,-0.0274 0.0316,-0.009 0.0596,-0.0236 0.0885,-0.0388 0.028,-0.0151 0.0559,-0.0302 0.0856,-0.0438 0.0223,-0.0107 0.0431,-0.0223 0.0618,-0.0381 0.0186,-0.0158 0.0387,-0.0302 0.056,-0.0475 0.0166,-0.0166 0.0309,-0.0344 0.046,-0.0525 0.004,-0.004 0.007,-0.009 0.0109,-0.0129 0.0144,0.003 0.023,0.0129 0.0302,0.023 0.006,0.008 0.0114,0.0158 0.0158,0.0245 0.0143,0.028 0.0351,0.048 0.0604,0.0661 0.009,0.006 0.018,0.0116 0.0265,0.0173 0.0173,0.01 0.0324,0.023 0.0455,0.0381 0.0171,0.0208 0.0394,0.0366 0.0646,0.0475 0.0144,0.005 0.0274,0.0114 0.0403,0.0171 0.0223,0.0101 0.0438,0.0225 0.0633,0.0368 0.0107,0.008 0.0223,0.0158 0.0344,0.0215 0.0267,0.0151 0.0525,0.0302 0.0769,0.0482 0.0274,0.0208 0.0583,0.025 0.0913,0.0178 0.046,-0.01 0.0935,-0.0201 0.13951,-0.0294 0.0317,-0.006 0.0633,-0.0129 0.0942,-0.0208 0.0329,-0.007 0.0631,-0.0188 0.0935,-0.0331 0.0193,-0.009 0.0386,-0.0173 0.0596,-0.0245 0.0272,-0.01 0.0525,-0.025 0.0733,-0.046 0.0101,-0.0114 0.023,-0.0201 0.0366,-0.0287 0.0202,-0.0129 0.0361,-0.0287 0.0482,-0.0502 0.005,-0.009 0.0109,-0.018 0.0173,-0.0267 0.0151,-0.0188 0.0295,-0.018 0.046,0 0.004,0.004 0.006,0.008 0.009,0.0121 0.0129,0.021 0.0309,0.0368 0.051,0.0512 0.0295,0.0193 0.0569,0.0409 0.0863,0.0604 0.0238,0.0158 0.0468,0.0316 0.0712,0.046 0.0223,0.0136 0.0453,0.0272 0.0624,0.0475 0.009,0.0114 0.023,0.0179 0.0368,0.0215 0.0257,0.006 0.0517,0.0121 0.0775,0.0165 0.0309,0.006 0.0626,0.0121 0.0928,0.0237 0.0309,0.0121 0.0626,0.0144 0.095,0.01 0.0569,-0.006 0.11282,-0.0186 0.1697,-0.0287 0.0151,-0.004 0.0302,-0.007 0.046,-0.009 0.0344,-0.004 0.0661,-0.0151 0.0963,-0.0309 0.0475,-0.0257 0.0907,-0.0582 0.12939,-0.0948 0.0166,-0.0158 0.0296,-0.0368 0.0425,-0.0554 0.0129,-0.0195 0.0237,-0.0403 0.0366,-0.0596 0.0136,-0.0217 0.0294,-0.0418 0.0497,-0.0569 0.0193,-0.0144 0.0302,-0.0201 0.0525,0.006 0.004,0.004 0.008,0.009 0.0101,0.0144 0.01,0.0203 0.0257,0.0339 0.0438,0.0468 0.0186,0.013 0.0388,0.026 0.0582,0.0388 0.0324,0.0216 0.0648,0.0432 0.0972,0.0648 0.0223,0.0158 0.0466,0.0272 0.0718,0.0381 0.0418,0.0166 0.0834,0.0331 0.12442,0.0503 0.0309,0.013 0.0633,0.0203 0.0963,0.0203 0.0302,0 0.0606,0 0.0915,0 0.0416,0.002 0.0826,-0.007 0.12221,-0.023 0.0272,-0.0101 0.0545,-0.0203 0.0819,-0.0309 0.0337,-0.0131 0.0683,-0.0202 0.10491,-0.023 0.0532,-0.004 0.10639,-0.0131 0.15829,-0.0245 0.0309,-0.006 0.0589,-0.0203 0.0841,-0.0396 0.0215,-0.0166 0.0416,-0.0346 0.0631,-0.0517 0.0223,-0.0173 0.0447,-0.0339 0.0677,-0.0512 0.0107,-0.008 0.023,-0.0151 0.0337,-0.023 0.028,-0.0215 0.0497,-0.0495 0.0618,-0.0834 0.002,-0.009 0.004,-0.0173 0.0136,-0.0237 0.006,0.004 0.0136,0.007 0.0188,0.0131 0.0107,0.0114 0.0223,0.0237 0.0324,0.0366 0.0144,0.0186 0.0265,0.0388 0.0388,0.0582 0.0129,0.0202 0.0287,0.0374 0.0473,0.0512 0.0223,0.0179 0.0447,0.0351 0.0663,0.0539 0.0409,0.0344 0.0849,0.0646 0.13086,0.0913 0.0193,0.0114 0.0409,0.0186 0.0618,0.0265 0.0186,0.008 0.0388,0.0131 0.0574,0.0208 0.0295,0.0123 0.0604,0.0217 0.092,0.0289 0.0129,0.003 0.0252,0.008 0.041,0.0136 0.0525,-0.0109 0.10418,-0.0129 0.13878,-0.006 0,0.002 0.002,0.006 0.002,0.008 -0.008,0.0272 -0.0193,0.0525 -0.0337,0.0777 -0.0129,0.0223 -0.0331,0.0322 -0.0584,0.0329 -0.009,0 -0.0193,0 -0.0287,0 -0.0547,0 -0.10933,-0.002 -0.16381,-0.003 -0.0237,0 -0.0467,0.004 -0.069,0.0121 -0.003,0.002 -0.007,0.002 -0.0109,0.004 -0.0418,0.0201 -0.0841,0.0186 -0.12718,0 -0.0282,-0.0123 -0.0591,-0.0195 -0.0893,-0.0238 -0.0445,-0.008 -0.0849,-0.0217 -0.12074,-0.0489 -0.0116,-0.009 -0.0252,-0.0151 -0.0381,-0.0215 -0.0195,-0.009 -0.0396,-0.009 -0.0596,-0.002 -0.003,0 -0.006,0.002 -0.009,0.002 -0.049,0.023 -0.0985,0.0453 -0.14743,0.0697 -0.0237,0.0121 -0.0475,0.0223 -0.0727,0.0295 -0.0171,0.004 -0.0337,0.0101 -0.0495,0.0173 -0.069,0.0294 -0.13878,0.0559 -0.21074,0.0777 -0.0948,0.0287 -0.18977,0.0302 -0.28529,0.007 -0.069,-0.0166 -0.13804,-0.0331 -0.20706,-0.0519 -0.0396,-0.009 -0.0799,-0.0166 -0.12093,-0.0151 -0.0129,0 -0.025,0 -0.0381,0 -0.0215,0 -0.0423,-0.004 -0.0626,-0.0114 -0.008,-0.003 -0.0171,-0.005 -0.0251,-0.009 -0.0143,-0.005 -0.0267,-0.004 -0.0381,0.006 -0.0173,0.0151 -0.0381,0.023 -0.0604,0.028 -0.0145,0.004 -0.0289,0.0101 -0.0433,0.0173 -0.023,0.0116 -0.0475,0.0166 -0.0732,0.0151 -0.026,0 -0.0525,0 -0.0792,0 -0.0646,-0.002 -0.12939,0.002 -0.19473,0.013 -0.0383,0.006 -0.0769,0.008 -0.11577,0.0107 -0.0433,0.003 -0.0863,0.004 -0.12884,0.006 -0.0208,0.002 -0.0431,0.002 -0.0624,0.0116 h -0.12222 z"
       style="fill:#21201d;fill-opacity:1;fill-rule:nonzero;stroke:none;stroke-width:0.184057"
       id="path650" />
    <path
       d="m 405.96283,160.98602 c 0.005,0.0151 0.007,0.0294 0.006,0.0453 -0.001,0.0425 -7e-4,0.0841 -7e-4,0.12589 0,0.008 0.001,0.0158 0.003,0.0237 0.003,0.023 0.006,0.046 0.009,0.069 0.004,0.0208 0.009,0.0423 0.0151,0.0624 0.0124,0.0396 0.018,0.0791 0.0166,0.12093 -10e-4,0.0445 -10e-4,0.0891 -0.007,0.13362 -0.004,0.0215 -0.001,0.0433 0.002,0.0641 0.002,0.0193 0.004,0.0388 0.004,0.0582 -10e-4,0.0289 10e-4,0.0561 0.006,0.0841 7e-4,0.009 0.003,0.018 0.002,0.026 -0.004,0.0388 0.004,0.0755 0.0101,0.11356 0.0101,0.0626 0.0186,0.12516 0.0208,0.18848 0.004,0.0884 0.0158,0.17614 0.0353,0.26302 0.003,0.0144 0.008,0.0282 0.0215,0.0361 0.0114,0.007 0.0171,0.0179 0.0208,0.0307 0.0151,0.0468 0.0302,0.0928 0.0431,0.13951 0.0188,0.0677 0.0388,0.13455 0.0663,0.19916 0.008,0.0188 0.0107,0.0388 0.0173,0.0591 0.005,0.0144 0.01,0.0295 0.0164,0.0423 0.009,0.018 0.0173,0.0353 0.0203,0.0554 10e-4,0.007 0.003,0.0144 0.005,0.0223 0.005,0.0245 0.0151,0.046 0.0366,0.0611 0.007,0.006 0.0158,0.0116 0.0158,0.0237 -0.004,0.007 -0.0121,0.009 -0.0193,0.009 -0.0331,0.002 -0.0663,0.003 -0.0985,-0.009 -0.044,-0.0173 -0.0893,-0.0151 -0.13528,-0.009 -0.046,0.006 -0.092,0.0129 -0.13878,0.018 -0.0144,0.002 -0.0295,0 -0.0438,0 -0.023,0.002 -0.046,0.003 -0.069,0.005 -0.0121,0 -0.0245,0.002 -0.0351,0.002 -0.0166,0.002 -0.0331,0.003 -0.0497,0.004 -0.007,0 -0.0158,0 -0.023,0 -0.0626,-0.008 -0.12571,-0.0121 -0.18976,-0.01 -0.0109,0 -0.023,0 -0.0346,0 -0.009,0 -0.0144,-0.0144 -0.008,-0.0208 0.0315,-0.0309 0.0438,-0.0734 0.0631,-0.1108 0.041,-0.0769 0.0791,-0.15609 0.11797,-0.23504 0.0272,-0.0561 0.0445,-0.11578 0.0641,-0.17486 0.005,-0.0151 0.008,-0.0309 0.008,-0.046 0.005,-0.071 0.021,-0.1408 0.0381,-0.20909 0.0173,-0.0648 0.0274,-0.12939 0.0339,-0.19565 0.003,-0.0359 0.0116,-0.0712 0.0193,-0.10565 0.0109,-0.0497 0.0166,-0.0977 0.0217,-0.14743 0.009,-0.0876 0.005,-0.1754 0.004,-0.26247 0,-0.01 -7.1e-4,-0.0201 -7.1e-4,-0.0294 -7.1e-4,-0.0302 0.004,-0.0582 0.0173,-0.0849 0.0109,-0.0215 0.0158,-0.0445 0.0136,-0.0683 -0.004,-0.0453 0.002,-0.0913 0.006,-0.13657 10e-4,-0.0121 0.006,-0.0245 0.0101,-0.0366 0.006,-0.0203 0.0121,-0.0403 0.0136,-0.0626 10e-4,-0.0173 0.005,-0.0346 0.009,-0.0517 0.003,-0.0151 0.004,-0.0302 -0.006,-0.0445 -0.009,-0.0131 -0.001,-0.0237 0.007,-0.0339 h 0.018 z"
       style="fill:#21201d;fill-opacity:1;fill-rule:nonzero;stroke:none;stroke-width:0.184057"
       id="path652" />
    <path
       d="m 406.97937,165.64213 c 0.007,-0.007 0.004,-0.0166 0.004,-0.0252 -10e-4,-0.0381 0,-0.0769 0.007,-0.11577 0.008,-0.0468 0.01,-0.0942 -0.003,-0.14155 -0.004,-0.0123 -0.004,-0.0252 -0.005,-0.0374 -0.002,-0.0346 -0.005,-0.0685 -0.008,-0.10215 -7.1e-4,-0.0151 -0.003,-0.0309 -0.004,-0.046 0,-0.0123 -0.002,-0.0237 -0.0107,-0.0324 -0.006,-0.007 -0.009,-0.0151 -0.009,-0.0245 7e-4,-0.0344 -0.018,-0.0633 -0.0331,-0.0928 -0.007,-0.0136 -0.0201,-0.0201 -0.0359,-0.0201 -0.0116,0 -0.023,0.002 -0.0346,0.002 -0.0129,0 -0.023,0.006 -0.0316,0.0151 -0.0136,0.0151 -0.0287,0.0309 -0.0431,0.0468 -0.0223,0.0243 -0.0339,0.0539 -0.0374,0.0869 -10e-4,0.009 -7e-4,0.0195 -0.002,0.0289 -0.003,0.0223 -0.005,0.0445 -0.0109,0.0661 -0.005,0.0215 -0.009,0.0438 -0.008,0.0661 0.003,0.0569 0.006,0.11302 0.009,0.16897 7.1e-4,0.0144 7.1e-4,0.0287 10e-4,0.044 7e-4,0.0164 0.001,0.0329 0.003,0.0495 7e-4,0.0151 0.003,0.0309 0.005,0.046 10e-4,0.0116 0.004,0.023 0.008,0.0339 0.004,0.0121 0.009,0.0151 0.0215,0.0144 0.0425,-0.003 0.0834,-0.006 0.12295,-0.023 0.0151,-0.006 0.0295,-0.007 0.0453,-0.002 0.004,0 0.008,0.002 0.0116,0.002 0.0121,-0.002 0.0245,-0.005 0.0366,-0.007 m -0.63407,0.46088 c -0.004,0.0107 -0.008,0.0201 -0.0131,0.0316 -0.007,0 -0.0158,0 -0.0223,-0.002 -0.0446,-0.0151 -0.0906,-0.0151 -0.1351,-0.0195 -0.0223,-0.002 -0.0445,-0.004 -0.0668,-0.008 -0.0223,-0.004 -0.0447,-0.006 -0.067,-0.005 -0.0309,0 -0.0618,0.002 -0.0933,-0.004 -0.0138,-0.003 -0.0289,-0.004 -0.0433,-0.003 -0.0416,0.002 -0.0819,-0.002 -0.12295,-0.006 -0.0129,-0.002 -0.0265,0 -0.0403,0 -0.0272,0.003 -0.0545,0.004 -0.0819,0.002 -0.0238,-0.002 -0.0482,-0.002 -0.0725,-0.004 -0.0131,0 -0.0252,-0.002 -0.0381,-0.003 -0.018,0 -0.0368,-0.002 -0.0554,-0.004 -0.005,-0.002 -0.0109,-0.002 -0.0173,-0.004 -0.006,-0.0186 -0.005,-0.0366 -0.003,-0.0554 0.002,-0.0243 0.006,-0.0495 0.008,-0.0755 0.006,-0.0495 0.0116,-0.0999 0.0166,-0.15019 0.001,-0.006 0.002,-0.0136 0.002,-0.0201 0.003,-0.0777 0.005,-0.15387 0.008,-0.23081 0.001,-0.0388 0.002,-0.0784 0.005,-0.11651 0.003,-0.0396 0.003,-0.0784 -10e-4,-0.11725 -0.004,-0.0331 -0.004,-0.0661 -0.004,-0.0985 0,-0.0388 7.1e-4,-0.0769 -0.006,-0.1143 -0.004,-0.0188 -0.009,-0.0381 -0.0123,-0.0569 -0.009,-0.048 -0.008,-0.0977 -0.002,-0.14522 0.006,-0.0582 0.008,-0.11725 0.007,-0.17541 0,-0.007 0.002,-0.0144 0.002,-0.0237 0.009,0 0.0173,-0.002 0.0245,-0.002 0.069,0.002 0.13804,-0.005 0.20706,-0.008 0.0353,-0.002 0.0698,-0.008 0.10216,-0.0223 0.0287,-0.0129 0.0596,-0.0179 0.0913,-0.0179 0.0144,0 0.0287,-0.002 0.0431,-0.004 0.0583,-0.004 0.11651,-0.007 0.17486,0.002 0.0151,0.003 0.0309,0 0.046,0 0.0151,0 0.0295,-0.004 0.0438,-0.005 0.0186,-0.002 0.0366,-0.002 0.0554,-0.004 0.004,0 0.009,0 0.0114,-0.002 0.0144,-0.0151 0.0339,-0.013 0.0517,-0.0151 0.0188,-0.002 0.0388,-0.002 0.0583,-0.002 0.0567,0.002 0.11283,0.002 0.16896,-0.006 0.0317,-0.004 0.0626,-0.002 0.0935,0.003 0.0532,0.006 0.10565,0.0129 0.15884,0.0195 0.0129,0.002 0.0252,0.002 0.0381,0.003 0.069,0.004 0.13804,0.006 0.20707,0.0101 0.0618,0.004 0.12221,0 0.18258,-0.0123 0.028,-0.006 0.0561,-0.006 0.0863,-0.003 -7.1e-4,0.006 -7.1e-4,0.01 -0.001,0.0151 -0.006,0.0272 -0.005,0.0561 -0.004,0.0841 7.1e-4,0.0114 0.006,0.0223 0.01,0.0331 0.008,0.0201 0.0116,0.0416 0.0131,0.0624 0.002,0.0346 0.004,0.0685 0.008,0.10215 0.004,0.0388 0.004,0.0777 0.004,0.1165 -7.1e-4,0.0856 -0.002,0.17192 -0.002,0.25732 -7e-4,0.12737 -7e-4,0.25529 -0.002,0.38247 0,0.0626 0.004,0.12443 0.0186,0.18553 0.009,0.0403 0.0123,0.0814 0.0136,0.12148 0.001,0.0158 -7e-4,0.0316 -0.004,0.0468 -0.004,0.0252 -0.0202,0.0418 -0.0433,0.0504 -0.01,0.004 -0.0208,0.006 -0.0309,0.008 -0.0164,0.002 -0.0302,0.007 -0.0431,0.0166 -0.0114,0.01 -0.0245,0.0158 -0.0388,0.0201 -0.0101,0.003 -0.0201,0.007 -0.0302,0.0114 -0.0215,0.009 -0.0445,0.0116 -0.0675,0.008 -0.018,-0.002 -0.0351,-0.004 -0.0532,-0.004 -0.0245,0 -0.0482,-0.005 -0.0705,-0.0151 -0.0482,-0.023 -0.1,-0.0316 -0.1524,-0.0374 -0.0215,-0.002 -0.0425,0 -0.0633,0.005 -0.0344,0.009 -0.069,0.0109 -0.10491,0.009 -0.0101,0 -0.0208,0 -0.0316,0 -0.0475,-0.002 -0.0957,-0.002 -0.14301,0.006 -0.0281,0.004 -0.0561,0.002 -0.0841,-0.005 -0.0252,-0.006 -0.0512,-0.0101 -0.0777,-0.009 -0.005,0 -0.0101,0.002 -0.0151,0.002"
       style="fill:#21201d;fill-opacity:1;fill-rule:nonzero;stroke:none;stroke-width:0.184057"
       id="path654" />
    <path
       d="m 403.4996,165.4069 c 0.006,0.0188 0.0114,0.0346 0.007,0.0519 -0.007,0.0287 -0.005,0.0574 -0.003,0.0869 10e-4,0.026 0.002,0.0526 0.004,0.0784 7e-4,0.0151 7e-4,0.0287 -0.004,0.0433 -0.003,0.0107 -0.004,0.0215 0.003,0.0307 0.0101,0.0123 0.0101,0.0274 0.0109,0.0418 7.1e-4,0.0195 0.001,0.0388 0.004,0.0582 0.005,0.0381 0.0173,0.0468 0.0554,0.0375 0.0208,-0.005 0.0416,-0.0109 0.0633,-0.009 0.0151,0 0.0201,-0.007 0.0179,-0.0223 -7.1e-4,-0.0131 -10e-4,-0.026 -0.002,-0.0381 -7e-4,-0.0468 -0.002,-0.0935 -0.003,-0.14025 -10e-4,-0.0517 -0.004,-0.10289 7.1e-4,-0.15461 0.002,-0.0144 10e-4,-0.0295 0.002,-0.0438 0,-0.006 -0.002,-0.0109 -0.003,-0.0173 -0.0453,-0.0129 -0.092,-0.006 -0.1373,-0.009 -0.004,0 -0.009,0.003 -0.0151,0.005 m 0.15461,-0.68948 c -0.006,-0.003 -0.009,-0.005 -0.0109,-0.005 -0.0438,-0.008 -0.0878,-0.005 -0.1316,-0.006 -0.009,0 -0.0136,0.007 -0.009,0.0166 0.007,0.0136 0.007,0.028 0.004,0.0423 -0.006,0.0295 -0.004,0.0582 -0.003,0.0878 0.002,0.0272 0.003,0.0539 0.004,0.0819 7.1e-4,0.0151 7.1e-4,0.0302 -0.004,0.046 -0.003,0.0101 -0.004,0.0208 0.003,0.0309 0.009,0.0121 0.0101,0.0265 0.0109,0.0416 7.1e-4,0.0203 7.1e-4,0.0403 0.004,0.0613 0.006,0.0401 0.0136,0.0473 0.0539,0.0394 0.023,-0.005 0.0453,-0.0129 0.069,-0.0107 0.0101,0 0.0151,-0.007 0.0144,-0.018 -7.1e-4,-0.0201 -0.002,-0.0403 -0.003,-0.0611 -0.001,-0.0453 -0.002,-0.0913 -0.004,-0.13731 -7e-4,-0.0482 -0.003,-0.097 0.001,-0.14522 0.002,-0.0216 0.003,-0.0425 10e-4,-0.0648 m 0.39241,-0.20706 c -0.0179,0.023 -0.0151,0.046 -0.0151,0.0698 7e-4,0.0554 0.002,0.1108 0,0.16693 -0.001,0.0374 -0.006,0.0755 -0.0121,0.11283 -0.0109,0.0712 -0.0121,0.14302 -0.005,0.21498 0.001,0.0107 0.002,0.0215 0.003,0.0324 0.004,0.0359 0.007,0.071 0.0109,0.10712 0.002,0.0243 0.004,0.0488 0.004,0.0725 0.001,0.0683 0,0.13657 0.001,0.20485 7.1e-4,0.0663 -0.003,0.13234 -0.007,0.1986 -0.002,0.0386 -0.009,0.0769 -0.018,0.11504 -0.0186,0.0775 -0.025,0.15516 -0.0201,0.23504 7.1e-4,0.008 0,0.0151 0,0.023 0,0.002 -10e-4,0.004 -0.003,0.007 -0.004,0 -0.008,0.002 -0.0121,0.002 -0.0216,0 -0.0423,0 -0.0641,0.004 -0.023,0.003 -0.0467,0.003 -0.0697,0.002 -0.11283,0 -0.22566,-0.0109 -0.33848,-0.007 -0.0302,0 -0.0611,0.003 -0.0907,0.005 -0.009,0 -0.0193,0 -0.0295,0.002 -0.0144,0 -0.0287,0.003 -0.0431,0.004 -0.005,0 -0.009,0.002 -0.0144,0.002 -0.041,-0.002 -0.0814,0.005 -0.12221,0.007 -0.009,0 -0.0188,0.002 -0.0289,0.004 -0.006,0 -0.0129,0.004 -0.0201,0.005 -0.0173,0.003 -0.0287,-0.007 -0.028,-0.0245 7e-4,-0.0107 0.003,-0.0215 0.005,-0.0322 0.0101,-0.0346 0.0158,-0.0692 0.0173,-0.10583 0.002,-0.0381 0.009,-0.0755 0.0129,-0.11283 0.004,-0.0423 0.0101,-0.0856 0.009,-0.12792 -7.1e-4,-0.0158 0.003,-0.0309 0.004,-0.0468 10e-4,-0.0188 0.003,-0.0374 0.003,-0.0554 7e-4,-0.0574 0,-0.11504 0,-0.17265 0,-0.0387 0,-0.0775 7e-4,-0.11633 0,-0.0294 -10e-4,-0.0583 -0.004,-0.0878 -0.005,-0.0403 -0.004,-0.0812 -7.1e-4,-0.12221 0.002,-0.0215 0.004,-0.0431 0.004,-0.0641 7e-4,-0.0237 -7.1e-4,-0.0473 0,-0.0703 0.002,-0.0591 -0.006,-0.11651 -0.0193,-0.17338 -0.003,-0.0107 -0.005,-0.0208 -0.009,-0.0309 -0.013,-0.0416 -0.0144,-0.0841 -0.0151,-0.12719 0,-0.0101 0.002,-0.0216 0.004,-0.0316 0.003,-0.0129 0.009,-0.023 0.0203,-0.0309 0.0316,-0.0245 0.0618,-0.0503 0.0876,-0.0812 0.0109,-0.0131 0.026,-0.0225 0.0403,-0.0331 0.0116,-0.009 0.0252,-0.0116 0.0388,-0.0109 0.0468,0.002 0.0935,0.002 0.14025,0.008 0.0626,0.008 0.12424,0.0203 0.18756,0.0295 0.0525,0.009 0.10565,0.0151 0.15957,0.0138 0.0116,0 0.023,0 0.0353,0 0.0626,-0.002 0.12368,0.006 0.18552,0.0129 0.004,0 0.008,0.002 0.0164,0.004"
       style="fill:#21201d;fill-opacity:1;fill-rule:nonzero;stroke:none;stroke-width:0.184057"
       id="path656" />
    <path
       d="m 404.59455,164.82326 c 10e-4,0 0.003,0.002 0.003,0.002 0.002,0 0.004,-0.002 0.006,-0.002 z m 0.32781,0.59597 h 10e-4 v -0.0324 c 0,-0.0431 7.1e-4,-0.0856 -0.007,-0.12792 -0.006,-0.0339 -0.0151,-0.067 -0.0302,-0.0977 -0.009,-0.0188 -0.0215,-0.0361 -0.0388,-0.0504 -0.018,-0.0158 -0.0388,-0.0186 -0.0596,-0.006 -0.018,0.0101 -0.0366,0.0208 -0.0512,0.0381 -0.0136,0.0166 -0.0272,0.0324 -0.0394,0.0502 -0.023,0.0324 -0.0324,0.0685 -0.0316,0.10713 7e-4,0.0425 0,0.0841 0,0.12589 -7.1e-4,0.0309 -7.1e-4,0.0626 0.004,0.0935 0.004,0.0245 0.004,0.0503 0.005,0.0755 0,0.006 0,0.0136 -0.003,0.0166 -0.006,0.006 -0.006,0.0144 -0.006,0.0215 7e-4,0.0475 7e-4,0.095 7e-4,0.14301 0,0.006 0,0.0116 7.1e-4,0.0173 0.002,0.0144 0.009,0.0208 0.0236,0.0215 0.0151,0 0.0309,0 0.046,-0.002 0.0188,-0.002 0.0368,-0.005 0.0554,-0.008 0.0425,-0.008 0.0856,-0.006 0.1281,-0.006 0.002,0 0.004,0 0.006,0 0.0151,0 0.0193,-0.006 0.0158,-0.0201 -0.002,-0.006 -0.005,-0.0109 -0.006,-0.0173 -0.003,-0.0252 -0.005,-0.0517 -0.006,-0.0777 -10e-4,-0.0223 0,-0.0453 0,-0.0675 -7.1e-4,-0.0151 -0.002,-0.0309 -0.003,-0.0468 -7.1e-4,-0.0208 -0.004,-0.0423 -0.004,-0.0639 -7.1e-4,-0.0289 0,-0.0583 0,-0.0871 m 0.32357,0.67016 c -0.0151,0.002 -0.028,0.003 -0.0403,0.002 -0.0388,-0.002 -0.0777,0.003 -0.11633,0.008 -0.0309,0.003 -0.0618,0.006 -0.0935,0.007 -0.0999,0 -0.20062,0 -0.30056,0 -0.0418,0 -0.0841,-0.003 -0.12516,-0.006 -0.0403,-0.003 -0.0797,0 -0.11926,0.009 -0.0361,0.008 -0.0727,0.0114 -0.11007,0.0129 -0.0109,0 -0.0208,0 -0.0316,0 -0.0201,-0.004 -0.0252,-0.0107 -0.0193,-0.0309 0.006,-0.0201 0.009,-0.0416 0.008,-0.0631 -7.1e-4,-0.0101 -0.003,-0.021 -0.004,-0.0316 -0.003,-0.0173 -0.003,-0.0346 7e-4,-0.0517 0.003,-0.0158 0.004,-0.0317 0.004,-0.0468 0.002,-0.0828 0.004,-0.16546 0.006,-0.24811 7e-4,-0.0272 10e-4,-0.0547 10e-4,-0.0819 v -0.54076 c 0,-0.0193 -7.1e-4,-0.0381 -10e-4,-0.0582 -0.001,-0.0237 -0.001,-0.0482 0.004,-0.0727 0.007,-0.0374 0.0267,-0.0554 0.0618,-0.0574 0.007,0 0.0144,-0.002 0.021,-0.002 0.028,0 0.0567,-0.002 0.0841,-0.009 0.0257,-0.007 0.0517,-0.007 0.0775,-0.007 0.0109,0 0.0217,0 0.0317,-0.004 0.0116,-0.006 0.0252,-0.004 0.0368,0.002 0.009,0.004 0.0171,0.004 0.0257,0.002 0.0245,-0.002 0.0482,-0.005 0.0727,-0.006 0.051,-0.003 0.1027,-0.006 0.15461,-0.008 0.0121,0 0.025,0 0.0381,0 0.0309,0.005 0.0617,0.004 0.0926,0 0.0202,-0.002 0.041,-0.002 0.0611,0 0.026,0.004 0.0519,0.007 0.0784,0.005 0.0101,0 0.0195,0 0.0289,0 0.0208,0.004 0.0401,0.009 0.0611,0.006 0.01,-0.002 0.0186,0.004 0.0223,0.0151 10e-4,0.004 0.003,0.009 0.004,0.0136 0.003,0.0267 0.006,0.0526 0.007,0.0791 0.001,0.0596 0.001,0.12001 0.002,0.18111 0,0.007 -7.1e-4,0.0153 -0.002,0.023 0,0.009 -0.002,0.0173 -0.009,0.023 -0.009,0.007 -0.0114,0.0153 -0.0107,0.026 0.001,0.0346 0.003,0.0698 0.0114,0.10418 0.0131,0.0519 0.0188,0.10583 0.0188,0.15902 0,0.0416 0,0.0834 7.1e-4,0.12571 0.002,0.0626 -0.003,0.12443 -0.0129,0.18553 -0.004,0.0245 -0.006,0.049 -0.009,0.0727 -0.002,0.023 -0.004,0.0445 -0.008,0.0668 -0.005,0.0374 -0.005,0.074 -0.003,0.11135 7.1e-4,0.021 10e-4,0.0425 0.002,0.0641 0,0.005 -0.001,0.0116 -0.002,0.0203"
       style="fill:#21201d;fill-opacity:1;fill-rule:nonzero;stroke:none;stroke-width:0.184057"
       id="path658" />
    <path
       d="m 408.05499,165.11002 c -0.009,-0.0309 -0.009,-0.0309 -0.006,-0.0611 10e-4,-0.0121 0.002,-0.0252 0.002,-0.0381 -7.1e-4,-0.0324 -0.003,-0.0653 -0.004,-0.0985 -10e-4,-0.0223 -0.004,-0.0453 0.004,-0.0661 0.004,-0.0101 0.003,-0.0203 -0.004,-0.0282 -0.009,-0.0114 -0.009,-0.025 -0.0101,-0.0388 -7e-4,-0.0223 -0.002,-0.0453 -0.006,-0.0668 -0.004,-0.0267 -0.0109,-0.0396 -0.046,-0.0331 -0.002,0 -0.006,0 -0.008,0.002 -0.0215,0.006 -0.0438,0.0116 -0.0663,0.0101 -0.0107,0 -0.0151,0.005 -0.0151,0.0165 0,0.0136 10e-4,0.0272 10e-4,0.0409 0.001,0.0381 0.003,0.0762 0.004,0.1143 0.001,0.067 0.004,0.1338 -0.002,0.20135 -10e-4,0.0131 -0.003,0.0267 0.001,0.0418 0.0445,0.0136 0.0905,0.006 0.13583,0.008 0.005,0 0.0109,-0.002 0.018,-0.004 m -0.15682,0.2667 c 0,0.0138 0,0.0281 0,0.041 10e-4,0.0475 0.004,0.0957 0.004,0.14302 10e-4,0.0655 0.004,0.13234 -0.002,0.19786 -0.001,0.0136 -0.003,0.0272 7.1e-4,0.0409 0.0109,0.006 0.0223,0.008 0.0339,0.009 0.0366,0 0.0725,0.002 0.10768,0.002 0.004,0 0.009,-0.004 0.0123,-0.006 -7e-4,-0.004 -7e-4,-0.007 -0.002,-0.0101 -0.006,-0.0136 -0.007,-0.0265 -0.004,-0.0416 0.003,-0.0166 0.004,-0.0339 0.004,-0.0497 -7.1e-4,-0.0351 -0.003,-0.0705 -0.005,-0.10491 -7.1e-4,-0.0215 -0.002,-0.0425 0.005,-0.0633 0.004,-0.0116 0.003,-0.0215 -0.004,-0.0309 -0.007,-0.0101 -0.009,-0.0208 -0.009,-0.0331 -7e-4,-0.0238 -0.003,-0.048 -0.006,-0.0725 0,-0.006 -0.002,-0.0131 -0.004,-0.0195 -0.006,-0.0151 -0.0129,-0.0193 -0.0287,-0.0179 -0.007,0 -0.0144,0.002 -0.0201,0.003 -0.0215,0.006 -0.0418,0.0116 -0.0633,0.009 -0.006,0 -0.0109,0.004 -0.0173,0.005 m -0.28326,0.71911 c -7.1e-4,-0.0116 -10e-4,-0.021 -10e-4,-0.0289 -7e-4,-0.16749 -0.001,-0.33499 -0.002,-0.50322 0,-0.0431 0.002,-0.0871 0.006,-0.13086 0.002,-0.0223 0.004,-0.0445 0.004,-0.0668 -7e-4,-0.0388 0.004,-0.0762 0.0101,-0.11357 0.009,-0.0618 0.0151,-0.12295 0.0201,-0.18553 0.001,-0.0237 0.004,-0.0468 0.006,-0.0698 0.003,-0.0366 0.004,-0.074 0.006,-0.1108 0.0107,-0.1351 0.004,-0.27093 0.006,-0.40622 0,-0.0144 -0.001,-0.0294 10e-4,-0.0431 0.002,-0.0136 0.0101,-0.0252 0.0158,-0.0381 0.01,0.002 0.0193,0.004 0.0287,0.004 0.0445,0.005 0.0891,0.009 0.13381,0 0.008,-0.002 0.0151,-0.002 0.023,-0.002 0.0208,0 0.0409,0.002 0.0611,-0.004 0.0107,-0.004 0.0208,0 0.0309,0.005 0.0164,0.01 0.0337,0.0193 0.0495,0.0295 0.0101,0.006 0.0188,0.0144 0.0274,0.023 0.0107,0.0107 0.0223,0.0208 0.0374,0.0265 0.007,0.004 0.0144,0.007 0.0201,0.0116 0.0173,0.0151 0.0374,0.0245 0.0589,0.0316 0.0252,0.009 0.0475,0.0216 0.0677,0.0388 0.0114,0.009 0.0236,0.0164 0.0366,0.023 0.0351,0.0171 0.0488,0.0295 0.0344,0.0777 -0.01,0.0366 -0.0129,0.0747 -0.0114,0.11209 7e-4,0.0201 0.004,0.0396 0.006,0.0582 10e-4,0.0188 0.004,0.0374 0.004,0.0554 10e-4,0.0576 7.1e-4,0.11503 -0.004,0.17265 -0.002,0.0337 -0.002,0.0683 -0.004,0.10196 -10e-4,0.026 -0.002,0.0525 -0.005,0.0784 -0.006,0.0569 0,0.11283 0.004,0.1697 10e-4,0.0186 0.004,0.0388 0.008,0.0574 0.007,0.0388 0.008,0.0769 0.008,0.11651 -7e-4,0.10712 -0.001,0.21424 -0.001,0.32136 0,0.006 0,0.0138 7.1e-4,0.0202 0.006,0.0322 0.0136,0.0653 0.0193,0.097 0.002,0.0109 0.002,0.0215 0.002,0.0324 0,0.009 -0.005,0.0144 -0.0144,0.0144 -0.008,0 -0.0151,0 -0.0238,-0.002 -0.0418,-0.0101 -0.0826,-0.006 -0.12368,0.006 -0.0188,0.005 -0.0374,0.0109 -0.0554,0.0173 -0.0381,0.0144 -0.0777,0.0195 -0.1178,0.009 -0.0281,-0.006 -0.0576,-0.007 -0.0863,-0.007 -0.0173,0 -0.0339,0.002 -0.0504,0 -0.0193,0 -0.0388,-0.002 -0.0574,-0.005 -0.0339,-0.004 -0.0663,-0.004 -0.0985,0.004 -0.0188,0.004 -0.0381,0.009 -0.0584,0.006 -0.006,0 -0.0129,-0.003 -0.0223,-0.004"
       style="fill:#21201d;fill-opacity:1;fill-rule:nonzero;stroke:none;stroke-width:0.184057"
       id="path660" />
    <path
       d="m 405.24372,164.52987 c -0.0107,-0.002 -0.0193,-0.004 -0.0287,-0.007 -0.0201,-0.008 -0.0403,-0.008 -0.0604,-0.004 -0.009,0.003 -0.0193,0.004 -0.0287,0.005 -0.0138,0.002 -0.0274,0.004 -0.0403,0.008 -0.0173,0.005 -0.0351,0.008 -0.0547,0.008 -0.0252,0 -0.0495,0.003 -0.0755,0.005 -0.0129,0 -0.0274,0.002 -0.041,0.002 -0.0431,0.004 -0.0869,0.007 -0.13087,0.01 -0.0287,0.002 -0.0582,0.003 -0.0876,0.003 -0.0992,0 -0.19841,0 -0.29762,0 -0.0165,0 -0.0339,0 -0.0497,0.002 -0.006,0 -0.0114,0 -0.0173,-0.002 -0.003,0 -0.006,-0.002 -0.009,-0.004 -0.005,-0.0121 -0.004,-0.0257 -0.004,-0.0396 7.1e-4,-0.0532 10e-4,-0.10712 0.003,-0.16032 0,-0.025 7e-4,-0.051 0.002,-0.0762 7.1e-4,-0.0151 0,-0.0287 -0.004,-0.0431 -0.0188,-0.005 -0.0359,-0.0109 -0.0532,-0.0143 -0.0116,-0.003 -0.0237,-0.004 -0.0346,-0.004 -0.0423,0.002 -0.0841,0.004 -0.12571,0.008 -0.041,0.004 -0.0819,0.003 -0.12221,-0.006 -0.004,-0.002 -0.009,-0.002 -0.0144,-0.002 -0.0252,-0.002 -0.0504,-0.004 -0.0755,-0.006 -0.009,0 -0.018,-0.005 -0.0274,-0.009 0,-0.0151 0.0109,-0.0237 0.0143,-0.0351 0.004,-0.0136 0.0144,-0.0195 0.0252,-0.026 0.0114,-0.008 0.0215,-0.0165 0.0316,-0.0258 0.0777,-0.0756 0.15535,-0.15111 0.23228,-0.22583 0.0351,-0.0339 0.0646,-0.0705 0.0926,-0.11007 0.0188,-0.0258 0.0376,-0.0517 0.0576,-0.0804 0.004,0 0.0121,-0.002 0.0201,-0.002 0.009,0 0.0188,0 0.0289,0 0.0711,0 0.14227,0 0.2135,0.006 0.0718,0.007 0.14375,0 0.21572,-0.002 0.0351,-0.002 0.0703,-0.002 0.10565,-0.002 0.0482,0 0.097,0.003 0.14521,0.004 0.0193,0 0.0374,-0.002 0.0554,-0.007 0.0423,-0.0136 0.0861,-0.0144 0.12939,-0.004 0.009,0.002 0.0171,0.004 0.0257,0.007 0.009,0.004 0.0173,0.009 0.0267,0.0114 0.009,0.002 0.0186,0.004 0.028,0.005 0.008,0.0107 0.005,0.023 0.004,0.0344 -0.002,0.041 -0.006,0.0834 -0.009,0.12515 -0.004,0.0468 -0.005,0.0928 -0.0143,0.13952 -0.006,0.0317 -0.005,0.0631 -0.004,0.0963 10e-4,0.0208 10e-4,0.0425 -0.006,0.0633 -0.004,0.0114 -0.004,0.0245 -0.006,0.0374 -0.003,0.0267 -0.006,0.0532 -0.0109,0.0806 -0.004,0.0228 -0.007,0.046 -0.008,0.0696 0,0.0225 -0.003,0.0447 -0.004,0.067 -7.1e-4,0.0136 -7.1e-4,0.0272 -7.1e-4,0.0409 7.1e-4,0.0188 -10e-4,0.0368 -0.0116,0.0576"
       style="fill:#21201d;fill-opacity:1;fill-rule:nonzero;stroke:none;stroke-width:0.184057"
       id="path662" />
    <path
       d="m 405.82828,163.41981 c -0.004,0 -0.006,-0.002 -0.009,-0.002 -0.0337,-0.002 -0.0683,0.005 -0.10197,-0.005 -0.0109,-0.004 -0.0217,0.006 -0.0223,0.018 -7e-4,0.0121 0,0.0252 7.1e-4,0.0374 7e-4,0.009 0.004,0.0173 0.004,0.026 0.007,0.10215 0.0136,0.20412 0.0129,0.30627 -0.001,0.0668 0,0.13234 0,0.19915 0.002,0 0.005,0 0.008,-0.002 0.0158,-0.0129 0.0346,-0.0144 0.0547,-0.0144 0.023,0 0.046,-0.005 0.0668,-0.0129 0.006,-0.009 0.006,-0.0195 0.006,-0.0295 0,-0.12443 0,-0.24885 -7e-4,-0.37401 0,-0.0351 -0.004,-0.0718 -0.006,-0.10785 -0.001,-0.0136 -0.004,-0.0272 -0.0129,-0.0401 m 0.3278,0 c -0.01,-0.003 -0.0178,-0.006 -0.025,-0.007 -0.008,0 -0.0158,-0.002 -0.023,-0.002 -0.0296,0 -0.0591,-0.002 -0.0878,-0.003 -0.0143,0 -0.0208,0.008 -0.0158,0.0208 0.009,0.021 0.007,0.0418 0.004,0.0633 -0.003,0.0252 -0.004,0.0503 -0.004,0.0755 0.002,0.0475 0.004,0.0957 0.005,0.14319 10e-4,0.0201 7e-4,0.0409 -0.004,0.0611 -0.004,0.0129 -0.004,0.0265 0.004,0.0394 0.008,0.0158 0.01,0.0331 0.0107,0.0504 7.1e-4,0.0316 0.003,0.0626 0.005,0.0935 7e-4,0.009 0.004,0.0193 0.007,0.028 0.005,0.0151 0.0136,0.0201 0.0295,0.0173 0.009,0 0.0171,-0.003 0.025,-0.006 0.0173,-0.007 0.0346,-0.0109 0.0539,-0.0101 0.0151,0.002 0.021,-0.006 0.021,-0.0208 -7e-4,-0.0123 -0.003,-0.0252 -0.003,-0.0381 0,-0.16105 -0.009,-0.32283 0,-0.48389 0,-0.006 -10e-4,-0.0138 -0.002,-0.0215 m 0.21939,-0.17485 c -7e-4,0.0245 -0.002,0.0475 -0.0109,0.0698 -0.0129,0.0309 -0.0166,0.064 -0.0158,0.0972 7e-4,0.0258 10e-4,0.0525 0,0.079 -0.001,0.023 -0.006,0.046 -0.008,0.069 -0.002,0.018 -0.004,0.0353 -0.004,0.0525 -7.1e-4,0.041 -0.002,0.0821 7.1e-4,0.12295 0.001,0.0316 0.006,0.0633 0.0129,0.095 0.0121,0.0554 0.0173,0.11136 0.0158,0.16823 -10e-4,0.0351 0.002,0.0698 0.004,0.10491 10e-4,0.0252 0.003,0.0504 0.005,0.0755 0.006,0.0712 0.0121,0.14172 0.0107,0.21295 -7.1e-4,0.01 -10e-4,0.0193 -10e-4,0.0302 -0.008,0 -0.0145,0.002 -0.0217,0.002 -0.033,0 -0.0675,0.002 -0.10123,0 -0.0663,-0.002 -0.13086,0.003 -0.19565,0.0121 -0.0812,0.0114 -0.16252,0.0166 -0.24443,0.0215 -0.0554,0.003 -0.1108,0.004 -0.16601,0.003 -0.0547,0 -0.1086,0.002 -0.16473,0.003 -0.001,-0.004 -0.004,-0.009 -0.004,-0.0144 -7.1e-4,-0.10068 -10e-4,-0.20192 -7.1e-4,-0.30333 0,-0.0188 0.002,-0.0366 0.004,-0.0554 0.001,-0.0144 0.004,-0.0287 0.003,-0.0438 -0.002,-0.046 0.003,-0.0913 0.0136,-0.13602 0.007,-0.0302 0.009,-0.0611 0.009,-0.0926 -0.003,-0.0598 0,-0.11872 0.006,-0.17761 0.002,-0.0195 0.002,-0.0388 0.002,-0.0591 -7e-4,-0.0834 -0.001,-0.16675 -0.002,-0.25087 -7.1e-4,-0.0121 -0.003,-0.0252 -0.003,-0.0381 0,-0.0215 0.0101,-0.0309 0.0317,-0.0331 0.0547,-0.004 0.10859,-0.008 0.16325,-0.0121 0.0216,-0.002 0.0423,-0.002 0.0648,-0.002 0.0272,0 0.0537,0 0.0804,-0.008 0.0267,-0.006 0.0539,-0.009 0.0812,-0.008 0.0475,0.002 0.0957,0.003 0.1432,-0.004 0.0114,-0.002 0.023,-0.002 0.0344,-0.002 0.0512,0 0.10141,-0.002 0.1524,-0.002 0.0173,0 0.0346,0 0.0526,0 0.0193,0 0.0359,0.006 0.0517,0.0216"
       style="fill:#21201d;fill-opacity:1;fill-rule:nonzero;stroke:none;stroke-width:0.184057"
       id="path664" />
    <path
       d="m 406.65083,163.34361 c 0.0611,0 0.11853,-0.002 0.17614,0 0.0295,0 0.0604,0.006 0.0898,0.0123 0.0381,0.007 0.0762,0.0114 0.11577,0.0144 0.0339,0.003 0.0675,0.008 0.0999,0.0188 0.028,0.009 0.0569,0.0114 0.0863,0.01 0.0467,-0.003 0.0935,-0.005 0.14025,-0.005 0.0466,0 0.0933,-0.003 0.13933,-0.009 0.0289,-0.004 0.0569,0.002 0.0849,0.006 0.002,0 0.005,0.003 0.009,0.004 0.006,0.0416 0.026,0.079 0.0438,0.11651 0.0123,0.0258 0.0237,0.0532 0.0331,0.0804 0.0136,0.0431 0.0359,0.0799 0.0705,0.10934 0.0151,0.0136 0.0302,0.0265 0.0453,0.0409 0.0109,0.0109 0.0223,0.0223 0.0309,0.0346 0.0482,0.0676 0.095,0.13584 0.14945,0.19842 0.0217,0.0245 0.0353,0.0532 0.0497,0.0819 0.0109,0.0223 0.0223,0.0433 0.0331,0.0648 0.007,0.0151 0.0136,0.0302 0.0193,0.0453 0.005,0.0136 0.0109,0.0252 0.0215,0.0346 0.0109,0.0107 0.0203,0.0228 0.0252,0.0401 -0.005,0.002 -0.009,0.004 -0.0129,0.004 -0.0237,0.004 -0.0467,-0.002 -0.0697,-0.006 -0.0316,-0.007 -0.0633,-0.0109 -0.0957,-0.0109 -0.0329,-0.002 -0.0661,-0.002 -0.0992,-0.005 -0.028,-0.003 -0.0559,-0.007 -0.0841,-0.008 -0.0114,0 -0.023,-0.004 -0.0344,-0.007 -0.0361,-0.01 -0.072,-0.0151 -0.10933,-0.0144 -0.0331,0 -0.0661,0 -0.0992,0 -0.0331,0 -0.0589,-0.0114 -0.0799,-0.0351 -0.007,-0.008 -0.0136,-0.0173 -0.0208,-0.0252 -0.0201,-0.025 -0.0396,-0.0502 -0.0604,-0.0747 -0.0215,-0.026 -0.0453,-0.0482 -0.0727,-0.0676 -0.0272,-0.0203 -0.0525,-0.044 -0.0769,-0.0668 -0.0107,-0.009 -0.0179,-0.0232 -0.0265,-0.0353 -0.023,-0.0331 -0.046,-0.0668 -0.0705,-0.0999 -0.007,-0.0107 -0.0166,-0.0215 -0.0265,-0.0302 -0.0131,-0.0109 -0.0245,-0.0223 -0.0316,-0.0381 -0.008,0 -0.0158,-0.002 -0.023,-0.002 -0.0445,0 -0.0878,0 -0.1316,0.002 -0.0433,0 -0.0856,0 -0.12866,-0.005 -0.0281,-0.004 -0.0583,-0.003 -0.0871,-0.002 -0.0359,0 -0.0431,-0.007 -0.0431,-0.0425 -7.1e-4,-0.025 0,-0.051 0,-0.0762 0,-0.008 10e-4,-0.0171 0.003,-0.0257 0.009,-0.046 0.0144,-0.092 0.0131,-0.13952 -7e-4,-0.0188 0,-0.0388 7.1e-4,-0.0582 7e-4,-0.009 0.003,-0.0188 0.004,-0.0302"
       style="fill:#21201d;fill-opacity:1;fill-rule:nonzero;stroke:none;stroke-width:0.184057"
       id="path666" />
    <path
       d="m 402.44331,166.08497 c 0,-0.0475 -0.0136,-0.095 -0.009,-0.14448 0.003,-0.0359 0.002,-0.0734 7e-4,-0.11081 -0.002,-0.0359 7.1e-4,-0.071 0.005,-0.10785 0.001,-0.0136 0.002,-0.0287 0.003,-0.0431 10e-4,-0.0173 0.004,-0.0352 0.005,-0.0525 7.1e-4,-0.0136 0.002,-0.0274 0.002,-0.041 -7.1e-4,-0.0589 0,-0.11854 -0.001,-0.17762 -10e-4,-0.0473 -0.006,-0.0933 -0.009,-0.14007 -0.002,-0.0274 -0.005,-0.0547 -0.007,-0.0821 -0.004,-0.0618 -0.007,-0.12424 -0.0109,-0.18608 -10e-4,-0.0195 -10e-4,-0.0388 -10e-4,-0.0591 0,-0.0107 0.008,-0.0166 0.0171,-0.0129 0.0281,0.0101 0.0554,0.006 0.0834,0 0.044,-0.0109 0.0885,-0.0158 0.13307,-0.0136 0.0604,0.002 0.12074,-0.005 0.18111,-0.008 0.0109,0 0.0138,-0.009 0.0217,-0.0136 0.0107,0.003 0.0215,0.007 0.0322,0.0107 0.0151,0.004 0.0223,0.0144 0.0223,0.0302 0,0.009 0,0.0173 0,0.0267 -0.002,0.11927 -0.005,0.23873 -0.007,0.35873 -7.1e-4,0.0381 -7.1e-4,0.0762 0,0.1143 0,0.0252 7e-4,0.0504 -0.004,0.0755 -0.003,0.0143 -0.004,0.0289 -0.004,0.044 -0.002,0.0841 -0.006,0.16897 -0.007,0.25382 -7e-4,0.0409 -0.001,0.0819 -0.006,0.12277 -0.004,0.0361 -10e-4,0.0742 -0.002,0.1108 0,0.003 0,0.006 7.1e-4,0.009 0.004,0.028 -0.0107,0.0438 -0.0317,0.0569 -0.0107,0.006 -0.0208,0.008 -0.0337,0.006 -0.026,-0.006 -0.0517,-0.005 -0.0777,0 -0.0237,0.004 -0.0467,0.005 -0.0698,0 -0.008,-0.002 -0.0158,-0.003 -0.0237,-0.003 -0.0337,0 -0.0675,-0.002 -0.10142,-0.006 -0.0164,-0.002 -0.033,0 -0.0495,0 -0.0215,0 -0.0302,-0.002 -0.0512,-0.0151"
       style="fill:#21201d;fill-opacity:1;fill-rule:nonzero;stroke:none;stroke-width:0.184057"
       id="path668" />
    <path
       d="m 408.99258,166.10448 c -0.005,0.002 -0.007,0.002 -0.009,0.002 -0.0841,0 -0.16897,0.0101 -0.25382,0.007 -0.0274,-0.002 -0.0539,0 -0.0814,0 -0.0129,0 -0.025,-0.002 -0.0366,-0.007 -0.009,-0.004 -0.0186,-0.006 -0.028,-0.008 -0.0101,-0.002 -0.0166,-0.008 -0.018,-0.0166 -0.003,-0.0129 -0.006,-0.025 -0.006,-0.0374 -7.1e-4,-0.0381 -7.1e-4,-0.0762 7e-4,-0.1143 7.1e-4,-0.0337 0.004,-0.0676 0.005,-0.10197 0.001,-0.0383 0.003,-0.0756 0.002,-0.11374 -7e-4,-0.0495 7.1e-4,-0.0992 0.006,-0.14946 0.002,-0.0136 0.002,-0.0287 0.002,-0.0433 0,-0.0933 -7.1e-4,-0.18682 0,-0.28032 0,-0.0339 0.002,-0.0668 0.004,-0.0992 0.004,-0.0547 0.003,-0.10933 -7.1e-4,-0.16399 -0.001,-0.0265 -0.001,-0.0539 -0.004,-0.0812 -7.1e-4,-0.0136 0.004,-0.0245 0.0143,-0.0351 0.006,0 0.0121,0 0.018,0.002 0.0272,0.0109 0.0552,0.0136 0.0834,0.0109 0.0158,-0.002 0.0316,-0.002 0.0453,0.008 0.0223,-0.002 0.0309,0.0121 0.0396,0.0302 0.0158,0.0295 0.0337,0.0574 0.0559,0.0819 0.009,0.0101 0.0173,0.0215 0.0245,0.0324 0.0252,0.0366 0.0519,0.0705 0.0806,0.10418 0.0287,0.0331 0.0554,0.0677 0.0834,0.10142 0.0114,0.0129 0.0165,0.0282 0.0173,0.0453 0,0.0561 10e-4,0.11155 7e-4,0.16695 -7e-4,0.0302 -0.004,0.0604 -0.008,0.0898 -0.004,0.0416 -0.004,0.0841 -0.003,0.12571 0.004,0.0583 0,0.11651 -0.006,0.17485 -0.005,0.0416 -0.009,0.0834 -0.006,0.12498 0.001,0.0361 -10e-4,0.0705 -0.0131,0.10436 -0.004,0.0121 -0.006,0.0265 -0.01,0.0396"
       style="fill:#21201d;fill-opacity:1;fill-rule:nonzero;stroke:none;stroke-width:0.184057"
       id="path670" />
    <path
       d="m 406.8982,163.8748 c 0.004,0.007 0.008,0.0144 0.0114,0.021 0.004,0.006 0.009,0.0129 0.0136,0.0193 0.0116,0.0129 0.023,0.026 0.0339,0.0396 0.0265,0.0324 0.0532,0.0646 0.0804,0.0963 0.0151,0.018 0.0317,0.0346 0.0475,0.0519 0.0425,0.0445 0.0814,0.092 0.1143,0.14375 0.0158,0.0265 0.0353,0.0488 0.0618,0.0653 0.0309,0.0188 0.0512,0.0468 0.0641,0.0806 0.004,0.0114 0.008,0.0216 0.0136,0.0352 -0.007,0 -0.0114,0 -0.0158,0 -0.0173,-0.002 -0.0344,-0.004 -0.0525,-0.005 -0.0193,0 -0.0388,0 -0.0582,0 -0.0683,0.003 -0.13601,-0.005 -0.20356,-0.0145 -0.0258,-0.004 -0.0525,-0.006 -0.0784,-0.007 -0.0631,-0.002 -0.12645,-0.002 -0.18976,0.006 -0.0166,0.002 -0.0331,0.002 -0.0495,0.002 -0.0289,0 -0.0561,0.004 -0.0834,0.013 -0.0353,0.0101 -0.072,0.0166 -0.1073,0.0265 -0.003,0 -0.006,0.002 -0.008,0.002 -0.005,0 -0.0101,-0.005 -0.009,-0.0101 0.003,-0.006 0.005,-0.0121 0.009,-0.0186 0.023,-0.046 0.0466,-0.092 0.0755,-0.13455 0.0114,-0.0164 0.0186,-0.0359 0.0265,-0.0545 0.005,-0.0116 0.009,-0.0237 0.0123,-0.0368 0.009,-0.0316 0.0258,-0.0582 0.0495,-0.0812 0.0101,-0.009 0.0203,-0.018 0.0302,-0.0274 0.0445,-0.0409 0.09,-0.0812 0.13454,-0.12222 0.0201,-0.0193 0.0374,-0.0416 0.0495,-0.0668 0.006,-0.0107 0.0116,-0.0208 0.0281,-0.0237"
       style="fill:#21201d;fill-opacity:1;fill-rule:nonzero;stroke:none;stroke-width:0.184057"
       id="path672" />
    <path
       d="m 404.59455,164.82326 h 0.009 c -0.002,0 -0.004,0.002 -0.006,0.002 0,0 -0.001,-0.002 -0.003,-0.002"
       style="fill:#21201d;fill-opacity:1;fill-rule:nonzero;stroke:none;stroke-width:0.184057"
       id="path674" />
  </g>
</svg>
