<?xml version="1.0" encoding="UTF-8" standalone="no"?>
<!-- Created with Inkscape (http://www.inkscape.org/) -->

<svg
   width="7.4400535mm"
   height="6.1583409mm"
   viewBox="0 0 7.4400535 6.1583409"
   version="1.1"
   id="svg3090"
   inkscape:version="1.1.2 (0a00cf5339, 2022-02-04)"
   sodipodi:docname="c17.svg"
   xmlns:inkscape="http://www.inkscape.org/namespaces/inkscape"
   xmlns:sodipodi="http://sodipodi.sourceforge.net/DTD/sodipodi-0.dtd"
   xmlns="http://www.w3.org/2000/svg"
   xmlns:svg="http://www.w3.org/2000/svg">
  <sodipodi:namedview
     id="namedview3092"
     pagecolor="#ffffff"
     bordercolor="#666666"
     borderopacity="1.0"
     inkscape:pageshadow="2"
     inkscape:pageopacity="0.0"
     inkscape:pagecheckerboard="0"
     inkscape:document-units="mm"
     showgrid="false"
     inkscape:zoom="0.64052329"
     inkscape:cx="14.051011"
     inkscape:cy="11.709176"
     inkscape:window-width="2560"
     inkscape:window-height="1376"
     inkscape:window-x="0"
     inkscape:window-y="0"
     inkscape:window-maximized="1"
     inkscape:current-layer="layer1" />
  <defs
     id="defs3087" />
  <g
     inkscape:label="Layer 1"
     inkscape:groupmode="layer"
     id="layer1"
     transform="translate(-101.20068,-145.4211)">
    <path
       d="m 101.20068,147.95131 c 0.008,0 0.0173,0 0.0268,0 0,0 0,0 0,0 z"
       style="fill:#21201d;fill-opacity:1;fill-rule:nonzero;stroke:none;stroke-width:0.184057"
       id="path676" />
    <path
       d="m 108.59955,148.00726 c -0.0152,-0.0136 -0.0201,-0.006 -0.0373,-0.0129 -0.005,-0.004 -0.01,-0.008 -0.0145,-0.0114 -0.004,-0.002 -0.006,-0.002 -0.0102,0 -0.0194,-0.006 -0.0272,-0.018 -0.0401,-0.0353 -0.0208,-0.0272 -0.049,-0.0322 -0.0792,-0.0453 -0.0109,-0.004 -0.0187,-0.0114 -0.0286,-0.0173 -0.0268,-0.0164 -0.0584,-0.0258 -0.0871,-0.0394 -0.0359,-0.0165 -0.0755,-0.0381 -0.1143,-0.0482 -0.0366,-0.009 -0.0755,0.006 -0.11208,-0.002 -0.0222,-0.005 -0.0368,-0.0201 -0.0598,-0.0129 -0.0208,0.007 -0.0286,0.0265 -0.0517,0.0272 -0.007,0 -0.0159,-0.006 -0.0236,-0.006 -0.0408,-0.003 -0.0861,0.0173 -0.12643,0.0237 -0.0576,0.0101 -0.11578,0.0158 -0.17339,0.0252 -0.0279,0.004 -0.0445,0.0178 -0.0697,0.0295 -0.004,0.002 -0.008,0.004 -0.012,0.005 -0.0159,0 -0.0318,0 -0.0468,0 -0.004,-0.002 -0.006,-0.002 -0.0102,-0.004 -0.0272,-0.021 -0.0229,-0.0468 -0.0559,-0.0633 -0.069,-0.0346 -0.14594,-0.0237 -0.21939,-0.0381 -0.0574,-0.0116 -0.0782,-0.0596 -0.12866,-0.0834 -0.0258,-0.0116 -0.0554,-0.0274 -0.0834,-0.0295 -0.0467,-0.004 -0.0883,0.0295 -0.13307,0.048 -0.0446,0.0188 -0.094,0.0346 -0.13659,0.0591 -0.0279,0.0166 -0.0208,0.0201 -0.0488,0.0121 -0.0243,-0.006 -0.049,-0.0245 -0.0734,-0.0324 -0.0517,-0.0151 -0.10636,-0.0208 -0.15811,-0.0359 -0.031,-0.009 -0.067,-0.0388 -0.0992,-0.0403 -0.0229,-0.002 -0.0229,0.0116 -0.0425,0.0166 -0.0236,0.005 -0.0554,0.008 -0.0804,0.0121 -0.0561,0.009 -0.11154,-0.002 -0.16545,-0.0171 -0.0683,-0.0188 -0.0999,-0.0727 -0.15885,-0.0992 -0.0423,-0.0195 -0.0747,-0.0547 -0.11208,-0.0806 -0.0368,-0.0252 -0.0712,-0.0309 -0.10859,-0.0468 -0.0374,-0.0171 -0.031,-0.0381 -0.0663,-0.006 -0.0145,0.0129 -0.0286,0.0287 -0.0466,0.0331 -0.013,0.004 -0.025,-0.002 -0.0368,0 -0.0359,0.009 -0.0631,0.0388 -0.10124,0.0488 -0.0403,0.0109 -0.0777,0.0188 -0.11575,0.0366 -0.0598,0.0282 -0.12298,0.0836 -0.18627,0.0999 -0.0201,0.006 -0.0438,-0.004 -0.0618,0.003 -0.0215,0.009 -0.0475,0.0453 -0.0604,0.0626 -0.0173,0.0252 -0.0258,0.0641 -0.0512,0.0819 -0.0387,0.0274 -0.12569,0.013 -0.17099,0.013 -0.0525,0 -0.0992,-0.0123 -0.15039,-0.0145 -0.0201,-0.002 -0.051,-0.004 -0.0718,0 -0.0212,0.004 -0.0289,0.0193 -0.049,0.0265 -0.069,0.0237 -0.14742,-0.0109 -0.21424,-0.023 -0.0222,-0.004 -0.0547,0.004 -0.074,-0.009 -0.0166,-0.0101 -0.0131,-0.0258 -0.0236,-0.0381 -0.0152,-0.0158 -0.0268,-0.0186 -0.0446,-0.0287 -0.0425,-0.0223 -0.072,-0.0648 -0.12167,-0.0727 -0.0539,-0.009 -0.0933,0.0109 -0.14651,-0.023 -0.0433,-0.0272 -0.0598,-0.0374 -0.11151,-0.0495 -0.0346,-0.009 -0.0626,-0.0339 -0.0963,-0.0418 -0.0152,-0.004 -0.0353,0.004 -0.0519,0.002 -0.013,-0.002 -0.0296,-0.0136 -0.0409,-0.0136 -0.0152,0 -0.0346,0.0144 -0.0482,0.0215 -0.0423,0.023 -0.0863,0.0532 -0.13434,0.0618 -0.0318,0.006 -0.0648,0.003 -0.0965,0.008 -0.0272,0.004 -0.0554,0.0114 -0.0834,0.0151 -0.072,0.009 -0.13232,0.007 -0.20207,-0.004 -0.0243,-0.004 -0.0503,0 -0.0747,-0.003 0.006,0 -0.0335,-0.0123 -0.0335,-0.0123 -0.0383,-0.002 -0.0871,0.0526 -0.11504,0.0762 -0.0339,0.0281 -0.0591,0.0576 -0.0965,0.0791 -0.0229,0.0144 -0.0353,0.0223 -0.0525,0.0403 -0.0102,0.0121 -0.0166,0.0193 -0.0236,0.023 -0.008,0 -0.0152,0.002 -0.0229,0.003 -0.004,0 -0.005,0 -0.008,-0.002 -0.0582,-0.006 -0.118,-0.003 -0.17762,-0.007 -0.0517,-0.003 -0.0935,-0.0554 -0.14524,-0.041 -0.0335,0.009 -0.0438,0.026 -0.0791,0.0267 -0.0222,0 -0.0423,0 -0.0639,-0.003 -0.041,-0.007 -0.0806,-0.0166 -0.11797,-0.0366 -0.0265,-0.0158 -0.0201,-0.0116 -0.0574,-0.0195 -0.0381,-0.008 -0.0539,-0.0488 -0.0834,-0.0574 -0.0236,-0.006 -0.0339,0.009 -0.0519,0.0144 -0.0416,0.0121 -0.0876,0.0107 -0.12647,0.0302 -0.0547,0.0272 -0.0871,0.074 -0.1373,0.11209 -0.0511,0.0396 -0.10143,0.0238 -0.15956,0.0346 -0.0325,0.006 -0.0633,0.023 -0.0972,0.0265 -0.0215,0.002 -0.0755,-0.01 -0.0883,0.0116 h 0.0567 c -0.018,0.002 -0.0381,0.002 -0.0567,0.002 -0.005,0.01 0.004,0.0257 0.006,0.0351 0.0109,0.0403 0.0208,0.0769 0.0236,0.11927 0,0.0245 0,0.0225 0.0286,0.0252 0.0229,0.002 0.0517,-0.002 0.0747,-0.003 0.0957,-0.002 0.19068,-0.005 0.28621,-0.007 0.0697,-0.002 0.13949,-0.005 0.20927,-0.006 0.0942,-0.002 0.18478,0.0144 0.27957,0.0138 0.0604,0 0.1143,0.006 0.1741,0.0114 0.0869,0.006 0.1754,0.004 0.26155,0.009 0.0705,0.004 0.13878,0.0151 0.21001,0.0193 0.0841,0.004 0.16549,0.009 0.24885,0.0158 0.0725,0.007 0.14668,0.008 0.21847,0.0173 0.0898,0.0109 0.17466,0.002 0.26469,0.002 0.0834,0 0.1638,0.006 0.24716,0.004 0.0908,-0.003 0.18132,-0.006 0.27185,-0.008 0.10216,-0.002 0.20284,0.006 0.30628,0.003 0.141,-0.004 0.28049,0.003 0.42132,0 0.16969,-0.002 0.34011,-0.0381 0.50984,-0.0512 0.13582,-0.01 0.27312,-0.0114 0.40968,-0.0151 0.2323,-0.006 0.4688,-0.023 0.69889,0.002 0.18552,0.0203 0.36882,0.0123 0.55657,0.006 0.0683,-0.002 0.13289,0.006 0.20116,0.006 0.0972,0 0.19494,-0.008 0.29192,-0.009 0.0705,0 0.13952,0.009 0.20927,0.0129 0.0784,0.004 0.14301,-0.002 0.21995,0.0116 0.092,0.0166 0.17837,0.0201 0.2726,0.0178 0.0286,0 0.0525,0 0.079,-0.007 0.044,-0.0129 0.0734,-0.0265 0.12093,-0.028 0.0359,0 0.0747,-0.0173 0.10859,-0.0136 0.0229,0.003 0.0466,0.0166 0.0718,0.009 0.0279,-0.007 0.0504,-0.0353 0.0727,-0.0534 0.018,-0.0144 0.0416,-0.0265 0.0532,-0.0466 0.008,-0.0158 0.006,-0.0166 -0.009,-0.0217 -0.0102,-0.004 -0.0187,-0.006 -0.0275,-0.0158"
       style="fill:#21201d;fill-opacity:1;fill-rule:nonzero;stroke:none;stroke-width:0.184057"
       id="path678" />
    <path
       d="m 103.41654,146.00784 c -0.0324,0.0791 -0.0335,0.15387 -0.0335,0.23799 0,0.11724 0.004,0.23375 0.025,0.34879 0.0194,0.0955 0.0913,0.14375 0.16972,0.19252 0.0977,0.0613 0.20503,0.0907 0.31711,0.11375 0.069,0.0151 0.1366,0.0186 0.20708,0.0186 0.0574,0 0.11356,0.002 0.16676,-0.025 0.10139,-0.0512 0.17981,-0.13381 0.27682,-0.19068 0.097,-0.0567 0.19989,-0.12148 0.2575,-0.22289 0.0279,-0.0481 0.0473,-0.10197 0.0732,-0.15167 0.0272,-0.0525 0.0236,-0.0928 0.0236,-0.14945 0,-0.0698 -0.004,-0.12148 -0.0293,-0.1848 -0.0229,-0.0539 -0.0453,-0.10933 -0.069,-0.16252 -0.0381,-0.0856 -0.11228,-0.1697 -0.18259,-0.23155 -0.0325,-0.028 -0.0633,-0.0596 -0.0994,-0.0819 -0.0286,-0.018 -0.0618,-0.0309 -0.092,-0.0482 -0.0286,-0.0166 -0.048,-0.0331 -0.0834,-0.0351 -0.0683,-0.003 -0.1373,0.004 -0.2056,0.002 -0.0353,0 -0.0697,-0.007 -0.10343,-0.0138 -0.0138,-0.002 -0.0212,-0.004 -0.0346,-0.002 -0.0318,0.008 -0.0675,0.025 -0.0985,0.0374 -0.0576,0.0237 -0.11282,0.0646 -0.16178,0.10344 -0.0683,0.0561 -0.12866,0.11651 -0.18627,0.18406 -0.0653,0.0755 -0.0999,0.17043 -0.1373,0.26099"
       style="fill:#21201d;fill-opacity:1;fill-rule:nonzero;stroke:none;stroke-width:0.184057"
       id="path680" />
    <path
       d="m 105.09033,150.2951 c -0.0113,-0.003 -0.0332,-0.0121 -0.0453,-0.018 -0.0116,-0.005 -0.0187,-0.0151 -0.0293,-0.023 -0.0159,-0.0129 -0.0396,-0.0193 -0.0611,-0.023 -0.0525,-0.008 -0.11229,0.004 -0.16401,0.007 -0.0102,0 -0.0254,0.002 -0.0396,0.004 0.0109,-0.0158 0.0212,-0.0316 0.0303,-0.0482 0.007,-0.005 0.0159,-0.01 0.0236,-0.0144 0.0576,-0.0245 0.12075,-0.0431 0.1791,-0.0639 0.0272,-0.009 0.041,-0.0217 0.0561,-0.0468 -0.0236,-0.007 -0.17413,0.0438 -0.17614,0.01 0.0381,-0.0129 0.0762,-0.0243 0.1143,-0.0351 0.0159,-0.004 0.0374,-0.006 0.0502,-0.0158 -0.0127,-0.0121 -0.0396,-0.023 -0.0569,-0.0316 -0.0303,-0.0158 -0.0631,-0.0129 -0.0963,-0.0186 0.004,-0.0101 0.006,-0.0202 0.009,-0.0296 -0.0116,0.003 -0.0229,0.006 -0.0339,0.007 -0.0113,0 -0.0222,0 -0.0328,0 h -0.0584 c -0.0705,0 -0.13805,0 -0.20708,-0.0123 -0.071,-0.0136 -0.14228,-0.002 -0.21425,0.002 -0.004,0 -0.007,0.002 -0.012,0 0.004,0 0.008,0 0.012,0 0.006,-0.002 0.0109,-0.007 0.0166,-0.0114 0.018,-0.0145 0.0208,-0.0188 0.0431,-0.0153 0.0353,0.006 0.0584,0.0109 0.0957,-0.002 0.0318,-0.0109 0.0626,-0.004 0.0942,-0.0144 0.0152,-0.006 0.0286,-0.018 0.0446,-0.0223 0.0159,-0.004 0.03,0 0.046,-0.004 0.012,-0.003 0.0145,-0.006 0.0272,-0.007 0.0123,-0.002 0.0286,0.004 0.0403,0 0.006,-0.002 0.007,-0.009 0.0138,-0.009 0.0123,-0.002 0.025,-0.002 0.0381,-0.006 0.044,-0.0101 0.0834,-0.0144 0.12866,-0.0144 0.01,0 0.0229,-0.002 0.0375,-0.003 0.0215,-0.0136 0.0431,-0.0287 0.0676,-0.0374 0,-0.026 -0.0286,-0.0267 -0.0475,-0.0267 -0.0332,0 -0.0576,-0.002 -0.0834,-0.0114 0,-0.0173 -0.004,-0.0339 -0.005,-0.0503 -0.0138,0 -0.0275,0 -0.041,-0.002 -0.0418,-0.005 -0.0806,-0.009 -0.11945,-0.0274 -0.0236,-0.0107 -0.0328,-0.0129 -0.0222,-0.0409 0.0166,-0.0425 0.0554,-0.0353 0.0913,-0.0396 0.0138,-0.002 0.0275,-0.006 0.0403,-0.0116 -0.0113,-0.023 -0.0222,-0.0467 -0.0346,-0.0698 0.0532,-0.007 0.12718,-0.0223 0.11504,-0.0423 -0.0447,-0.007 -0.0848,-0.004 -0.12735,-0.0215 -0.0145,-0.006 -0.0293,-0.0116 -0.0438,-0.0173 -0.0418,-0.0468 -0.0935,-0.0848 -0.14742,-0.11872 0.0138,-0.004 0.0303,-0.006 0.0381,-0.0121 0.008,-0.006 0.0275,-0.0208 0.0243,-0.0331 -0.004,-0.0171 -0.0187,-0.006 -0.0303,-0.008 -0.012,-0.003 -0.0116,-0.0145 -0.0201,-0.018 -0.0201,-0.0101 -0.0626,-0.002 -0.0848,-0.002 -0.0131,0 -0.0282,0 -0.0425,0.002 -0.005,-0.004 -0.01,-0.008 -0.0152,-0.0116 h -0.0166 c -0.0208,0 -0.0468,0.007 -0.0604,-0.009 -0.008,-0.009 -0.004,-0.0295 -0.0208,-0.0366 -0.0254,-0.0107 -0.0597,-0.005 -0.0871,-0.0144 -0.008,-0.002 -0.0166,-0.004 -0.0236,-0.009 0,-0.005 -0.004,-0.009 -0.004,-0.0144 -0.0339,-0.0316 -0.0913,0 -0.13162,-0.0136 0.004,-0.0223 0.0611,-0.0265 0.074,-0.0287 0.0236,-0.004 0.0467,-0.008 0.0697,-0.0131 -0.004,-0.002 -0.005,-0.003 -0.007,-0.004 -0.0532,-0.026 -0.10933,-0.026 -0.16676,-0.0252 -0.0705,0 -0.13804,0.004 -0.20708,0.0188 -0.0215,0.004 -0.0425,0.009 -0.0633,0.0144 0.006,0 0.0109,0.002 0.0166,0.003 0.0236,0.006 0.0339,0.008 0.0229,0.0237 -0.0173,0.0243 -0.0561,0.0201 -0.0913,0.023 -0.0261,0.002 -0.0504,0.009 -0.0755,0.0129 -0.0159,0.002 -0.0332,0.003 -0.0489,0.005 -0.009,0.002 -0.018,0.003 -0.0264,0.005 -0.0173,0.008 -0.0346,0.0164 -0.0512,0.0265 -0.0423,0.0267 -0.0819,0.0532 -0.11356,0.0856 -0.0194,0.0101 -0.0339,0.0265 -0.0524,0.0381 -0.0353,0.0193 -0.13307,0.0561 -0.0841,0.12148 0.008,0.0101 0.0194,0.0129 0.031,0.018 0.007,0.004 0.0131,0.008 0.0194,0.0114 0.0123,0.003 0.0194,0.009 0.0361,0.0195 0.0173,0.0114 0.0473,0.0257 0.0676,0.0316 0.0236,0.005 0.046,0.008 0.0668,0.0201 0.0116,0.006 0.0173,0.006 0.0293,0.0101 0.0102,0.004 0.0152,0.0121 0.0268,0.0136 -0.0102,0.0245 -0.0187,0.0359 -0.046,0.0396 -0.0361,0.004 -0.0662,0.0151 -0.10068,0.0258 -0.0243,0.007 -0.0438,0.0158 -0.0668,0.0274 -0.004,0 -0.005,0.002 -0.007,0.003 v 0.005 c -0.007,0.006 -0.0123,0.0129 -0.0194,0.0179 -0.0159,0.0109 -0.031,0.0238 -0.046,0.0339 -0.0194,0.0136 -0.0403,0.0151 -0.0626,0.0223 -0.0194,0.006 -0.0381,0.028 -0.0145,0.046 0.008,0.007 0.018,0.004 0.0286,0.006 0.0212,0.006 0.0324,0.0267 0.0554,0.0302 0.0194,0.003 0.0403,0.009 0.0604,0.013 0.004,0.025 0.006,0.0495 0.0116,0.0747 0.01,0 0.0194,0 0.0265,0.002 0.0561,0.005 0.0928,0.0144 0.15314,0.0136 0.0418,0 0.0425,0 0.0705,0.007 0.0505,0.0129 0.092,0.0324 0.1432,0.0445 0.0293,0.008 0.0718,0.008 0.10343,0.0158 0.11081,0.028 -0.2063,0.0381 -0.25234,0.0431 -0.0497,0.006 -0.0992,0.0145 -0.15092,0.0151 -0.0145,0 -0.0282,0 -0.0425,0 0.004,0.007 0.006,0.0138 0.008,0.021 -0.0159,0 -0.0318,0 -0.0482,0 -0.0532,0 -0.11574,-0.0123 -0.15663,0.0317 -0.0166,0.0193 -0.0633,0.0473 -0.0403,0.0733 0.0145,0.0158 0.0418,0.0109 0.0589,0.0158 0.0187,0.006 0.0663,0.0166 0.0762,0.0339 -0.0127,0.004 -0.0539,0.0107 -0.0589,0.0208 0,0.004 0.10636,0.002 0.11575,0.002 0.018,0 0.0388,-0.002 0.0569,0.004 0.0127,0.004 0.0208,0.0101 0.0286,0.0208 0.005,0.007 0.0113,0.0138 0.0173,0.021 0.0366,-0.002 0.0732,-0.002 0.10915,-0.007 0.0784,-0.0116 0.14965,-0.0324 0.22934,-0.0252 0.0648,0.006 0.12164,0.0396 0.18772,0.0418 0.018,0 0.0626,-0.006 0.0769,0.004 0.0332,0.0193 -0.031,0.0272 -0.0431,0.0316 -0.0194,0.008 -0.0425,0.0208 -0.0598,0.0331 -0.0187,0.0136 -0.0328,0.0466 -0.0532,0.0532 -0.008,0.003 -0.0222,0 -0.0303,-0.002 -0.0445,-0.004 -0.0804,0 -0.12369,0.0114 -0.0423,0.013 -0.0812,0.005 -0.12368,0.007 -0.0208,0.002 -0.0374,0.009 -0.0552,0.002 0.004,0.002 0.004,0.006 0.006,0.008 0.0374,0.0411 0.0883,0.0411 0.13656,0.0604 0.0366,0.0144 0.0697,0.0166 0.10859,0.0173 0.018,0 0.0359,0.002 0.0539,0.004 0.0243,0.01 0.0502,0.0215 0.074,0.0265 0.0138,0.004 0.0215,0.002 0.0346,-0.002 0.0106,-0.002 0.0208,-0.004 0.0318,-0.005 0.0208,0.002 0.0453,0 0.0611,-0.008 0.004,0 0.007,0 0.0106,0 0.0683,-0.002 0.1373,0.004 0.20634,0.002 0.0282,-0.002 0.046,-0.0123 0.0668,-0.0252 -0.012,-0.0121 -0.0236,-0.0245 -0.0374,-0.0344 -0.0194,-0.0138 -0.0388,-0.0173 -0.0596,-0.023 -0.0187,-0.006 -0.0482,-0.021 -0.0215,-0.0403 0.0286,-0.0208 0.0791,-0.0316 0.11208,-0.0403 0.0212,-0.005 0.0374,-0.0114 0.0633,-0.006 0,0.003 0,0.006 0,0.009 0.0117,0.004 0.0243,0.004 0.0366,0.004 0.0475,0.002 0.095,0.006 0.14171,0.006 h 0.008 c 0.0194,-0.0114 0.0395,-0.0208 0.0604,-0.0171 0.008,0.002 0.0159,0.009 0.0243,0.0107 0.0145,0.004 0.0353,0 0.051,0 0.006,0 0.013,-0.002 0.0194,-0.002 0.0116,-0.003 0.0229,-0.004 0.0346,-0.006 0.0374,-0.009 0.0725,-0.0223 0.11208,-0.0223 0.0332,0 0.0396,-0.01 0.0727,-0.0237 0.0366,-0.0151 0.074,-0.0287 0.11059,-0.0409 0.0173,-0.006 0.0512,-0.008 0.067,-0.0195 -0.0396,-0.003 -0.0769,0.0267 -0.11726,0.0158"
       style="fill:#21201d;fill-opacity:1;fill-rule:nonzero;stroke:none;stroke-width:0.184057"
       id="path682" />
    <path
       d="m 104.52381,148.54582 c 0.17321,0.0136 0.34216,0.0195 0.51555,0.0195 0.0869,0 0.17392,-0.002 0.26098,0 0.0861,0 0.16898,0.0144 0.25435,0.0237 0.077,0.008 0.15904,-0.005 0.23379,0.0158 0.0539,0.0144 0.10213,0.0431 0.15734,0.0539 0.0425,0.003 0.0856,0.005 0.12883,0.004 0.0401,0.003 0.0797,0.0114 0.11854,0.0252 0.072,0.0166 0.141,0.0121 0.21498,0 0.0539,-0.0123 0.10933,-0.021 0.16549,-0.0252 0.0314,0.002 0.0631,0 0.094,-0.004 0.0727,-0.008 0.14023,-0.0324 0.2135,-0.0346 0.0561,-0.002 0.11081,0.009 0.16693,0.0101 0.10785,0.002 0.21573,-0.0282 0.32209,-0.0123 0.0777,0.0123 0.14873,0.0166 0.2286,0.0131 0.0698,-0.003 0.1366,-0.004 0.20634,0.007 0.0366,0.009 0.0747,0.0151 0.11282,0.0166 0.0403,-0.005 0.0799,-0.0123 0.11945,-0.0225 0.051,-0.008 0.0827,0 0.13162,0.004 0.0559,0.005 0.10911,-0.0158 0.16454,-0.018 0.0187,0.041 -0.11579,0.0683 -0.14027,0.0727 -0.10562,0.023 -0.20338,0.069 -0.30755,0.0992 -0.11578,0.0331 -0.23873,0.0324 -0.35818,0.0302 -0.0898,-0.002 -0.17833,-0.004 -0.26447,-0.0324 -0.22144,-0.0733 -0.46235,-0.0438 -0.68598,0.002 -0.22712,0.0475 -0.46161,0.0567 -0.69243,0.0374 -0.0977,-0.009 -0.19618,-0.0331 -0.29394,-0.0359 -0.0927,-0.003 -0.18478,-0.0109 -0.27534,-0.0289 -0.0396,-0.008 -0.0791,-0.0193 -0.11871,-0.0272 -0.0574,-0.0121 -0.11652,-0.0129 -0.17466,-0.0173 -0.11652,-0.009 -0.23082,-0.0302 -0.34586,-0.0503 -0.14023,-0.0245 -0.29485,-0.0173 -0.43565,-0.002 -0.0755,0.009 -0.14816,0.009 -0.22436,0.009 -0.046,0 -0.0871,0 -0.13237,-0.009 -0.0272,-0.006 -0.0532,-0.009 -0.0811,-0.0101 -0.013,0 -0.074,0.0101 -0.0863,-0.009 0.006,-0.009 0.0145,-0.023 0.0229,-0.0295 0.0173,-0.0136 0.0467,-0.0114 0.0676,-0.0144 0.0346,-0.006 0.069,-0.0144 0.10287,-0.0237 0.0705,-0.0179 0.14524,-0.0309 0.21847,-0.0295 0.0561,0.002 0.10859,0.0166 0.1662,0.009 0.0503,-0.006 0.0985,-0.0267 0.14873,-0.0282 0.0261,0 0.0512,0.003 0.0769,0 0.0152,0 0.0293,-0.005 0.044,-0.009 0.006,-0.002 0.0487,-0.021 0.0611,-0.0195 0.0113,0.002 0.018,0.0109 0.031,0.0116 0,0.002 0,0.005 -0.13232,0.0265"
       style="fill:#21201d;fill-opacity:1;fill-rule:nonzero;stroke:none;stroke-width:0.184057"
       id="path684" />
    <path
       d="m 102.87799,148.71772 c -0.18334,0.0114 -0.36664,0.004 -0.54924,0.0193 -0.12643,0.0101 -0.25382,0.0223 -0.37821,-0.009 -0.0827,-0.0215 -0.1675,-0.0294 -0.25234,-0.0294 -0.0396,0 -0.0618,-0.002 -0.0992,0.0166 -0.0374,0.018 -0.0718,0.0403 -0.1071,0.0596 -0.0127,0.007 -0.0311,0.0123 -0.0328,0.0289 -0.006,0.0381 0.0631,0.0401 0.0789,0.0409 0.10068,0.005 0.20285,-0.004 0.3048,0 0.11155,0.005 0.22162,0.0158 0.33295,0.0165 0.0856,0 0.16972,0.0173 0.25531,0.0208 0.0581,0.002 0.12072,-0.009 0.17833,-0.003 0.0401,0.004 0.0675,0.0186 0.0992,0.0438 0.0423,0.0324 0.0883,0.0287 0.13858,0.0201 0.0376,-0.006 0.0742,-0.0136 0.11303,-0.0144 0.0423,0 0.0683,0 0.10932,-0.0158 0.0293,-0.0107 0.0624,-0.0295 0.094,-0.0329 0.0152,-0.002 0.0289,0 0.044,-0.005 0.0229,-0.007 0.0525,-0.0129 0.0617,-0.0381 0.0229,-0.0653 -0.074,-0.0596 -0.1136,-0.071 -0.0524,-0.0145 -0.10784,-0.009 -0.16178,-0.009 -0.0162,0 -0.0388,0.004 -0.0546,-0.002 -0.0106,-0.004 -0.0229,-0.0144 -0.0346,-0.0193 -0.0517,-0.0225 -0.0878,-0.026 -0.0268,-0.0173"
       style="fill:#21201d;fill-opacity:1;fill-rule:nonzero;stroke:none;stroke-width:0.184057"
       id="path686" />
    <path
       d="m 108.10277,149.22536 c -0.11924,0 -0.23872,0 -0.3587,0 -0.0482,0 -0.0978,0.002 -0.14669,0 -0.0453,-0.002 -0.0804,-0.0173 -0.12149,-0.0331 -0.10933,-0.0418 -0.22363,-0.0554 -0.34015,-0.0547 -0.13215,0 -0.2595,0.009 -0.38816,0.0374 -0.046,0.0101 -0.0885,0.0195 -0.13014,0.0403 -0.0618,0.0331 -0.14447,0.0359 -0.2135,0.0381 -0.0727,0.002 -0.14394,0 -0.21643,0.007 -0.0261,0.003 -0.051,0.004 -0.0769,0.008 -0.012,0.002 -0.0229,0.005 -0.0353,0.005 0.018,-0.002 0.0374,-0.002 0.0552,-0.002 0.0519,0 0.0648,0.0129 0.092,0.0525 0.0222,0.0337 0.0396,0.0503 0.0799,0.0589 0.087,0.0201 0.17964,0.023 0.26815,0.0237 0.12717,0 0.25015,-0.0302 0.37677,-0.0366 0.069,-0.004 0.13878,-0.004 0.20778,0 0.12372,0.007 0.24719,0.0337 0.37162,0.0243 0.10216,-0.007 0.20062,0.007 0.30279,-0.007 0.0804,-0.0114 0.16379,-0.003 0.2437,-0.0186 0.0332,-0.006 0.0625,-0.0195 0.0962,-0.0208 0.0332,0 0.0656,0.004 0.0979,0 0.0258,-0.002 0.15018,-0.026 0.15315,-0.0655 -0.0254,-0.0258 -0.0821,-0.023 -0.1143,-0.0329 -0.0187,-0.007 -0.0353,-0.0145 -0.0539,-0.0188 -0.0289,-0.008 -0.0554,-0.0144 -0.0828,-0.0245 -0.0346,-0.0136 -0.069,-0.009 -0.0668,0.0195"
       style="fill:#21201d;fill-opacity:1;fill-rule:nonzero;stroke:none;stroke-width:0.184057"
       id="path688" />
    <path
       d="m 106.96404,149.9141 c -0.0289,-0.006 -0.0519,-0.009 -0.0828,-0.009 -0.14376,0 -0.28822,0 -0.43272,0 -0.20486,0 -0.40915,-0.0101 -0.61475,-0.009 -0.0755,0 -0.16602,-0.0166 -0.2365,0.0144 -0.0388,0.0166 -0.0698,0.0418 -0.1064,0.0604 -0.0243,0.0123 -0.0546,0.009 -0.0777,0.023 0.007,0.0166 0.0567,0.006 0.0725,0.008 0.0243,0.004 0.041,0.021 0.0618,0.0324 0.0425,0.0237 0.0928,0.0287 0.13953,0.0353 0.14961,0.0186 0.30056,0.0186 0.44947,0.0416 0.043,0.007 0.0854,0.0195 0.12936,0.023 0.0475,0.004 0.0948,0.002 0.14228,0 0.0893,-0.006 0.17614,-0.0166 0.26321,-0.0366 0.0416,-0.009 0.0834,-0.0223 0.12717,-0.0272 0.0275,-0.004 0.0554,0 0.0821,-0.002 0.0611,-0.003 0.1178,-0.0237 0.17745,-0.0281 0.0152,-0.002 0.0296,0 0.0447,0 0.0388,0 0.0703,-0.008 0.10841,-0.0171 0.0433,-0.0101 0.0799,-0.0109 0.12295,-0.0109 0.0289,0 0.0806,-0.0107 0.0964,-0.0403 0.0353,-0.0683 -0.11229,-0.0631 -0.14672,-0.0718 -0.0747,-0.0203 -0.15311,-0.0136 -0.23153,-0.0136 -0.0416,0 -0.0856,-0.004 -0.12718,0.006 -0.0293,0.006 -0.0633,0.0287 0.0388,0.023"
       style="fill:#21201d;fill-opacity:1;fill-rule:nonzero;stroke:none;stroke-width:0.184057"
       id="path690" />
    <path
       d="m 106.49524,150.81359 c -0.32855,0 -0.65857,0.008 -0.98708,0.002 -0.0606,0 -0.12019,-0.006 -0.17984,-0.0171 -0.0374,-0.0101 -0.0762,-0.0173 -0.1143,-0.0224 -0.0863,-0.006 -0.15755,0.0375 -0.23947,0.0475 -0.0236,0.003 -0.0445,-0.002 -0.0675,0 -0.0236,0.002 -0.046,0.009 -0.0676,0.0173 -0.0339,0.009 -0.0676,0.0166 -0.10142,0.023 -0.10142,0.026 -0.19914,0.0675 -0.29983,0.097 -0.0445,0.0123 -0.0878,0.021 -0.13437,0.0267 0.31623,-0.007 0.63334,-0.002 0.94901,0.0109 0.10714,0.005 0.21057,0.0171 0.31566,0.0329 0.0631,0.009 0.13215,0.0151 0.19618,0.0151 0.10936,-0.002 0.21922,-0.0208 0.3271,-0.0359 0.0799,-0.0114 0.15035,-0.0287 0.23079,-0.0201 0.0598,0.006 0.11355,0.006 0.17339,-0.003 0.0431,-0.006 0.0841,-0.008 0.12717,-0.009 0.0762,-0.002 0.14817,-0.0245 0.22363,-0.0201 0.0611,0.004 0.14026,0.028 0.19272,-0.0166 -0.0453,-0.0287 -0.0863,-0.0604 -0.1373,-0.0799 -0.0366,-0.0136 -0.0742,-0.0243 -0.11303,-0.028 -0.0258,-0.003 -0.0567,-0.002 -0.0812,-0.0109 -0.0293,-0.0107 -0.051,-0.0322 -0.0819,-0.0401 -0.0381,-0.0101 -0.0799,-0.006 -0.11875,-0.006 -0.0453,0 -0.0913,0 -0.012,0.0383"
       style="fill:#21201d;fill-opacity:1;fill-rule:nonzero;stroke:none;stroke-width:0.184057"
       id="path692" />
    <path
       d="m 102.01679,149.78029 c 0.11208,0 0.2286,0.008 0.34068,-0.004 0.10216,-0.0109 0.20136,-0.0353 0.30349,-0.044 0.0935,-0.009 0.17893,-0.0107 0.27242,0.002 0.004,0.0203 0.018,0.026 0.0215,0.0453 0.0116,0.0583 -0.056,0.0497 -0.0926,0.0525 -0.0403,0.004 -0.0769,0.006 -0.11373,0.0237 -0.0106,0.005 -0.0215,0.0123 -0.0321,0.018 -0.0633,0.0287 -0.13159,0.023 -0.19862,0.0144 -0.0539,-0.007 -0.1071,-0.0144 -0.16104,-0.0107 -0.0473,0.004 -0.092,0.01 -0.13931,0.003 -0.0935,-0.0151 -0.18334,-0.0144 -0.27757,-0.0144 -0.0446,0 -0.0913,0.004 -0.13582,0 -0.0194,-0.002 -0.0368,-0.009 -0.0554,-0.0109 -0.0123,0 -0.0254,0.005 -0.0366,0 0.0293,-0.0366 0.0869,-0.0503 0.1294,-0.0639 0.0318,-0.0116 0.0661,-0.0302 0.0985,-0.0366 0.0215,-0.004 0.0366,0.004 0.0574,0.006 0.0569,0.004 0.11575,0 0.17265,0"
       style="fill:#21201d;fill-opacity:1;fill-rule:nonzero;stroke:none;stroke-width:0.184057"
       id="path694" />
    <path
       d="m 105.50943,151.35914 c -0.11133,-0.002 -0.22069,-0.0186 -0.33203,-0.0201 -0.12167,-0.002 -0.2424,0 -0.36389,0 -0.15166,0 -0.30699,-0.006 -0.45791,0.0136 -0.10142,0.0136 -0.19992,0.0317 -0.30279,0.0339 -0.1294,0.004 -0.25456,-0.004 -0.3738,-0.0569 -0.1366,-0.0589 -0.28621,-0.0611 -0.42997,-0.028 0,0.0374 0,0.079 0.0187,0.11209 0.0169,0.0331 0.0408,0.0353 0.0762,0.0433 0.0396,0.008 0.0784,0.0186 0.11854,0.0265 0.0821,0.0158 0.16675,0.0339 0.25033,0.0453 0.10985,0.0151 0.22214,0.0116 0.33277,0.0123 0.0554,0 0.10933,-0.006 0.16471,-0.009 0.0222,0 0.0403,0 0.0611,0.007 0.0769,0.0265 0.14598,0.0408 0.22786,0.0403 0.0957,-0.002 0.18186,-0.006 0.27464,-0.0289 0.0648,-0.0158 0.12587,-0.0473 0.19195,-0.0366 0.0584,0.009 0.11726,0.006 0.17466,0.0116 0.0633,0.008 0.12298,0.005 0.18556,-0.002 0.0561,-0.006 0.10562,0 0.15956,-0.0208 0.0325,-0.0123 0.069,-0.0225 0.0999,-0.0376 0.0173,-0.008 0.0576,-0.0329 0.049,-0.0589 -0.005,-0.0158 -0.0208,-0.0144 -0.0339,-0.0201 -0.0201,-0.007 -0.0353,-0.023 -0.0545,-0.0302 -0.031,-0.0123 -0.0641,-0.009 -0.0368,0.003"
       style="fill:#21201d;fill-opacity:1;fill-rule:nonzero;stroke:none;stroke-width:0.184057"
       id="path696" />
  </g>
</svg>
