<?xml version="1.0" encoding="UTF-8" standalone="no"?>
<!-- Created with Inkscape (http://www.inkscape.org/) -->

<svg
   width="6.6682634mm"
   height="7.2146273mm"
   viewBox="0 0 6.6682634 7.2146273"
   version="1.1"
   id="svg3327"
   inkscape:version="1.1.2 (0a00cf5339, 2022-02-04)"
   sodipodi:docname="re1.svg"
   xmlns:inkscape="http://www.inkscape.org/namespaces/inkscape"
   xmlns:sodipodi="http://sodipodi.sourceforge.net/DTD/sodipodi-0.dtd"
   xmlns="http://www.w3.org/2000/svg"
   xmlns:svg="http://www.w3.org/2000/svg">
  <sodipodi:namedview
     id="namedview3329"
     pagecolor="#ffffff"
     bordercolor="#666666"
     borderopacity="1.0"
     inkscape:pageshadow="2"
     inkscape:pageopacity="0.0"
     inkscape:pagecheckerboard="0"
     inkscape:document-units="mm"
     showgrid="false"
     inkscape:zoom="0.64052329"
     inkscape:cx="-900.82595"
     inkscape:cy="305.21919"
     inkscape:window-width="2560"
     inkscape:window-height="1376"
     inkscape:window-x="0"
     inkscape:window-y="0"
     inkscape:window-maximized="1"
     inkscape:current-layer="layer1" />
  <defs
     id="defs3324" />
  <g
     inkscape:label="Layer 1"
     inkscape:groupmode="layer"
     id="layer1"
     transform="translate(-343.23374,-67.854334)">
    <path
       d="m 343.25947,69.083065 c 0.0705,-0.01729 0.12811,0.03295 0.15756,0.09553 0.0237,0.04896 0.0755,0.153871 -0.0272,0.227863 0.0431,-0.0099 0.0688,0.03957 0.0883,0.06828 0.0468,0.0727 0.0883,0.136021 0.17982,0.158292 0.0532,0.01288 0.11706,0.0028 0.17246,0.0028 h 0.75574 c 0.13933,0 0.27811,0.0014 0.41762,0 0.0561,-7.05e-4 0.11209,0.0014 0.16823,0.0044 0.0151,-0.122217 0.0359,-0.245167 0.051,-0.368117 0.0225,-0.184795 0.0237,-0.365908 0.0237,-0.552175 0,-0.07988 0.006,-0.161787 0.001,-0.241666 -0.002,-0.04013 -0.0107,-0.07546 -0.0396,-0.10565 0.0381,0.0014 0.021,-0.04601 0.0769,-0.07252 0.0433,-0.02025 0.0885,-0.03461 0.13381,-0.05688 0.0178,-0.0094 0.0351,-0.01803 0.0524,-0.02872 0.0166,-0.01012 0.0517,-0.04675 0.0683,-0.0497 0.0668,-0.01143 0.0144,0.138779 0.0136,0.181296 -0.003,0.104175 -0.0559,0.204858 -0.0574,0.312716 -0.002,0.08485 -0.0223,0.166017 -0.0346,0.250134 -0.0144,0.101416 -0.004,0.209275 -0.004,0.310688 0,0.147983 7.1e-4,0.295412 7.1e-4,0.442845 0.0698,0.0057 0.13878,0.01161 0.20853,0.01436 0.19198,0.0079 0.38026,0.01658 0.57297,0.01658 h 1.17833 c -0.0366,-0.0878 -0.0683,-0.179825 -0.10418,-0.263204 -0.0856,-0.201909 -0.13583,-0.406951 -0.1338,-0.627638 0.001,-0.124421 0,-0.248662 0,-0.372346 0.0366,-0.03387 0.0525,-0.0762 0.0591,-0.115037 0.005,-0.0302 -7e-4,-0.04602 0.0129,-0.07694 0.006,-0.01235 0.0151,-0.02448 0.0201,-0.0381 0.009,-0.02667 0.0116,-0.05117 0.0274,-0.07546 0.0171,-0.02815 0.0396,-0.04749 0.0547,-0.07767 0.0208,-0.04472 0.0359,-0.07988 0.0755,-0.1108 0.0423,-0.03313 0.1316,-0.10068 0.18756,-0.07694 0.0418,0.01729 0.0504,0.05688 0.0282,0.0935 -0.0381,0.06037 -0.10933,0.102892 -0.15903,0.151667 -0.051,0.04969 -0.10859,0.144483 -0.13362,0.210746 -0.018,0.04804 -0.0101,0.08117 -0.018,0.129391 -0.005,0.02946 -0.018,0.05098 -0.0201,0.08043 -0.003,0.02374 0,0.0497 0,0.07344 0,0.04675 10e-4,0.07473 0.0144,0.1178 0.0107,0.03607 0.0215,0.07915 0.0252,0.116508 0.002,0.02596 -0.007,0.0497 0.001,0.07546 0.0101,0.02889 0.0403,0.04896 0.0519,0.07767 0.008,0.02226 0.007,0.04822 0.0164,0.07123 0.023,0.06111 0.0591,0.121479 0.0863,0.180375 0.0784,0.167679 0.18185,0.327992 0.31786,0.455913 h 0.32633 c 0.29983,0 0.60463,0.01729 0.90298,7.05e-4 0.11007,-0.0065 0.25308,-0.05835 0.34014,-0.124424 0.0532,-0.04105 0.092,-0.09497 0.12792,-0.153138 0.0224,-0.03514 0.0425,-0.07197 0.067,-0.105646 0.0316,-0.04528 0.0725,-0.07767 0.10565,-0.119454 0.0374,-0.04602 0.097,-0.132892 0.12368,-0.02431 0.0158,0.06313 0.003,0.150192 -0.009,0.212034 -0.0136,0.07252 -0.0425,0.12295 -0.0878,0.187004 -0.0309,0.0438 -0.0438,0.08835 -0.0582,0.138596 -0.028,0.09994 -0.0569,0.205041 -0.17044,0.233754 -0.069,0.01803 -0.15534,0.0042 -0.22565,0.0042 h -0.39186 c -0.23448,0 -0.47099,-0.01362 -0.70254,0.02374 -0.004,7.06e-4 -0.009,7.06e-4 -0.0121,0.0014 0.0101,0.0072 0.0201,0.0151 0.0309,0.02226 0.0237,0.01584 0.0453,0.03313 0.0683,0.04896 0.0188,0.01362 0.0423,0.02152 0.0611,0.03514 0.028,0.02099 0.0351,0.05393 0.0618,0.07546 0.0208,0.01729 0.041,0.02448 0.0618,0.04546 0.0517,0.05025 0.11062,0.08264 0.16381,0.129392 0.0304,0.02575 0.044,0.05669 0.0791,0.07823 0.0316,0.01877 0.0668,0.02889 0.0985,0.04602 0.0561,0.03164 0.10215,0.07915 0.15608,0.115037 0.0683,0.04546 0.13381,0.08927 0.19694,0.140251 0.0561,0.04454 0.12148,0.08062 0.18277,0.117983 0.0604,0.03736 0.11282,0.111354 0.16234,0.163075 0.12663,0.132337 0.21001,0.276083 0.27258,0.447258 0.0265,0.07197 0.056,0.144488 0.0762,0.218663 0.0215,0.07693 0.0525,0.1524 0.0611,0.232833 0.007,0.0762 0.006,0.16105 0.002,0.23725 -0.006,0.100679 -0.044,0.184796 -0.0784,0.276087 -0.0504,0.133072 -0.0777,0.266884 -0.15387,0.388363 -0.0576,0.09129 -0.16105,0.172462 -0.25087,0.229334 -0.0992,0.06258 -0.18848,0.09995 -0.30056,0.133628 -0.0777,0.02374 -0.15388,0.02889 -0.23375,0.04399 -0.0935,0.01711 -0.18609,0.02872 -0.2818,0.02448 -0.0675,-0.0028 -0.14172,-0.01305 -0.20853,-0.02448 -0.0661,-0.01086 -0.13363,-0.01086 -0.19989,-0.02448 -0.0517,-0.01012 -0.10196,-0.0065 -0.15092,-0.02797 -0.0309,-0.01453 -0.0641,-0.02522 -0.0963,-0.03884 -0.11006,-0.04749 -0.21865,-0.09718 -0.30995,-0.187004 -0.0245,-0.02448 -0.0366,-0.0497 -0.0569,-0.07693 -0.0193,-0.02522 -0.0401,-0.0381 -0.0552,-0.06902 -0.0138,-0.02724 -0.0267,-0.05614 -0.0418,-0.08411 -0.0129,-0.02448 -0.0346,-0.04252 -0.0482,-0.06534 -0.009,-0.01528 -0.003,-0.03607 -0.007,-0.05338 -0.006,-0.02505 -0.0258,-0.04602 -0.0309,-0.07252 -0.008,-0.03883 -0.0121,-0.07197 -0.0258,-0.109329 -0.0316,-0.09203 -0.0784,-0.180379 -0.0742,-0.27885 0.003,-0.04546 0.009,-0.09 0.0195,-0.133808 0.009,-0.04031 0.0374,-0.06902 0.048,-0.110804 0.026,-0.100496 0.046,-0.185346 0.10859,-0.270933 0.0792,-0.107859 0.26891,-0.168963 0.39186,-0.21148 0.11797,-0.03957 0.25031,-0.04878 0.37455,-0.03884 0.11945,0.01012 0.25823,0.110804 0.33001,0.202829 0.0445,0.05743 0.0878,0.145225 0.0871,0.219216 -7e-4,0.08282 0.006,0.146692 -0.0381,0.220134 -0.041,0.06975 -0.0848,0.109146 -0.15313,0.143746 -0.0661,0.03313 -0.14173,0.05816 -0.22069,0.03884 -0.0561,-0.01288 -0.11724,-0.05245 -0.1754,-0.06258 0.0631,-0.05319 0.14651,-0.07841 0.20485,-0.136571 0.0604,-0.06037 0.0935,-0.137308 0.0718,-0.222158 -0.009,-0.0381 -0.0272,-0.08338 -0.0488,-0.116509 -0.0309,-0.04822 -0.0663,-0.03663 -0.12001,-0.03663 -0.0425,0 -0.0727,0.0021 -0.11227,0.01362 -0.0344,0.01086 -0.0906,0.0028 -0.11927,0.02797 -0.0158,0.01436 -0.0195,0.03313 -0.0346,0.04896 -0.0215,0.02226 -0.0423,0.0309 -0.0639,0.06184 -0.018,0.02579 -0.0368,0.05246 -0.0519,0.0797 -0.0388,0.06902 -0.0596,0.156817 -0.0826,0.233017 -0.0295,0.10215 -0.002,0.201358 0.0201,0.300566 0.0296,0.13013 0.0992,0.217188 0.22953,0.268172 0.0847,0.03312 0.18534,0.03957 0.27663,0.0381 0.13878,-7.06e-4 0.27682,0 0.4156,-7.06e-4 0.17191,0 0.31271,-0.02797 0.46308,-0.1143 0.0913,-0.05319 0.14872,-0.117242 0.19474,-0.210746 0.11374,-0.230625 0.0475,-0.539104 -0.0381,-0.77065 -0.0401,-0.111538 -0.0891,-0.229334 -0.16105,-0.323571 -0.0703,-0.0913 -0.13436,-0.189029 -0.22639,-0.260996 -0.14099,-0.107858 -0.29044,-0.201912 -0.4537,-0.27167 -0.12645,-0.05466 -0.24148,-0.120188 -0.35873,-0.191234 -0.10288,-0.06332 -0.1927,-0.122954 -0.26467,-0.220871 -0.0624,-0.08559 -0.14301,-0.16105 -0.19197,-0.253079 -0.003,-0.0065 -0.007,-0.01288 -0.0114,-0.01933 -0.10417,-7.06e-4 -0.21,-0.0052 -0.31345,-0.0052 -0.46879,0 -0.93684,-0.0014 -1.40637,0 -0.11577,7.06e-4 -0.23577,0.01013 -0.35007,-0.01069 -0.026,-0.005 -0.0512,-0.01013 -0.0769,-0.01436 0,0.05963 0,0.11927 0,0.178904 -7e-4,0.09277 0.0121,0.182771 0.0186,0.274063 0.003,0.0381 0.0131,0.07325 0.023,0.108595 h 0.0245 c 0.14319,0 0.28621,-7.05e-4 0.42921,0 0.11302,0 0.22732,-0.0079 0.33941,0.0042 0.0346,0.0037 0.069,0.01584 0.10362,0.0151 0.0208,0.149638 -0.0237,0.172646 -0.095,0.171909 -0.0834,-7.06e-4 -0.16749,0 -0.25013,0 h -0.52991 c 0.006,0.145958 0.0144,0.29247 0.0136,0.438425 -10e-4,0.114487 0.0101,0.237437 0.0324,0.348791 0.0258,0.128659 0.0797,0.246638 0.0977,0.376767 0.006,0.05025 0.009,0.097 0.018,0.146696 0.009,0.05172 0.0215,0.107854 0.0243,0.160313 0.006,0.08117 0.009,0.172462 -0.0193,0.250133 -0.0109,0.02946 -0.0302,0.05908 -0.0166,0.08982 0.0317,-0.01785 0.0942,-0.02501 0.13013,-0.03589 0.0648,-0.01933 0.1316,-0.01362 0.19841,-0.01362 0.12866,0 0.24811,0.0057 0.37327,0.0381 0.092,0.02374 0.17743,0.04381 0.26669,0.08043 0.0488,0.02025 0.11209,0.04031 0.15535,0.07197 0.033,0.02448 0.0545,0.06405 0.079,0.09498 0.0611,0.0762 0.0906,0.182587 0.13381,0.268908 0.0725,0.142279 0.13013,0.259521 0.13583,0.422783 0.005,0.163809 -0.005,0.362225 -0.0769,0.513338 -0.026,0.05245 -0.0596,0.07399 -0.0963,0.115587 -0.0368,0.04252 -0.0554,0.09645 -0.0814,0.144671 -0.0245,0.0473 -0.0596,0.08982 -0.069,0.143013 -0.008,0.0438 -0.007,0.09129 -0.0121,0.135096 -0.009,0.06976 0.002,0.163996 -0.0512,0.217925 -0.0394,0.03957 -0.0985,0.04951 -0.14228,0.08117 -0.0331,0.02448 -0.0532,0.06258 -0.0883,0.08485 -0.0237,0.0151 -0.0497,0.02025 -0.0727,0.03681 -0.0144,0.0092 -0.0287,0.02872 -0.0423,0.03865 -0.0467,0.03681 -0.0836,0.0519 -0.14172,0.06056 -0.11927,0.01711 -0.20063,0.01859 -0.3221,-0.01161 -0.11136,-0.02798 -0.2113,-0.06461 -0.31713,-0.107125 -0.0624,-0.02448 -0.13289,-0.03313 -0.19842,-0.05172 -0.0697,-0.02025 -0.1408,-0.03461 -0.21129,-0.05393 -0.0655,-0.01803 -0.12866,-0.04823 -0.19271,-0.06902 -0.23798,-0.07914 -0.37676,-0.267434 -0.43934,-0.501188 -0.0223,-0.08338 -0.0431,-0.264491 -0.14522,-0.285474 -0.12148,-0.02431 -0.24664,-0.04675 -0.36738,-0.05172 -0.0582,-0.0014 -0.11926,-0.01362 -0.17688,-0.01859 -0.0697,-0.0059 -0.15313,-0.03461 -0.21645,-0.05908 -0.0777,-0.0302 -0.11926,-0.06313 -0.0992,-0.149454 0.0683,-0.02156 0.17264,-0.0028 0.24516,-0.0028 h 0.57518 c 0.0641,0 0.16399,-0.01658 0.22804,0.0028 -0.002,0.03369 0.023,0.0302 0.0374,0.05319 0.0129,0.01859 0.0136,0.05614 0.023,0.07767 0.0302,0.07252 0.0834,0.162525 0.13362,0.225658 0.0368,0.04601 0.0698,0.09792 0.11357,0.137304 0.0893,0.07988 0.16767,0.187742 0.27479,0.245904 0.17467,0.09571 0.37529,0.120925 0.5715,0.118717 0.0826,-7.06e-4 0.15534,-0.02025 0.23651,-0.03884 0.0769,-0.01729 0.16105,-0.02667 0.23651,-0.05172 0.0756,-0.02522 0.15111,-0.0762 0.19639,-0.140988 0.0547,-0.07546 0.12939,-0.132337 0.13362,-0.233017 0.004,-0.08835 0.002,-0.173933 -0.025,-0.25805 -0.0245,-0.07252 -0.0584,-0.138779 -0.0871,-0.210008 -0.0423,-0.10565 -0.0495,-0.230075 -0.0992,-0.332779 -0.0267,-0.05614 -0.0791,-0.1489 -0.13307,-0.171175 -0.074,-0.03094 -0.16308,-0.03736 -0.24075,-0.05245 -0.0727,-0.01436 -0.13657,0.01086 -0.2078,0.01803 -0.11429,0.01069 -0.23375,0.0302 -0.34731,0.04951 -0.028,0.0044 -0.0942,0.03534 -0.12369,0.02374 -0.004,-0.06111 0.0381,-0.117246 0.0374,-0.18185 -7.1e-4,-0.05393 0,-0.108592 0,-0.162521 0,-0.171175 -0.0179,-0.342163 -0.0525,-0.509842 -0.0252,-0.124975 -0.0245,-0.256575 -0.0618,-0.380262 -0.0366,-0.123688 -0.0547,-0.250871 -0.0955,-0.373821 -0.0547,-0.163262 -0.0777,-0.315662 -0.0777,-0.486834 0,-0.106387 -7e-4,-0.212037 0.002,-0.317683 -0.29339,-7.06e-4 -0.58751,-0.0014 -0.8809,7.06e-4 -0.0963,7.05e-4 -0.25013,-0.01087 -0.30755,-0.09571 -0.0252,-0.0381 -0.0583,-0.097 -0.0591,-0.14375 0,-0.02522 0.018,-0.04325 0.0215,-0.06681 0.004,-0.02173 -0.0151,-0.06185 0.0173,-0.06976 0.0366,-0.01013 0.0841,0.07031 0.10712,0.08908 0.0359,0.02723 0.0985,0.05319 0.14173,0.05761 0.0755,0.0077 0.14669,0.02152 0.22215,0.03295 0.13215,0.02152 0.27609,0.0052 0.41045,0.0052 h 0.33719 c 0.003,-0.03238 0.005,-0.06479 0.0101,-0.09792 0.0101,-0.08117 0.0331,-0.164546 0.0366,-0.247191 0.002,-0.04675 -0.005,-0.09276 0.003,-0.138779 0.007,-0.03736 0.0129,-0.07123 0.0144,-0.107859 -0.0353,0 -0.0698,0 -0.10565,-0.0014 -0.0734,-0.0021 -0.14522,-0.01951 -0.2194,-0.02007 -0.0705,-0.0014 -0.14154,0 -0.21203,7.06e-4 -0.0777,0.0014 -0.13657,-0.02156 -0.21129,-0.03517 -0.0712,-0.01288 -0.14817,-0.0042 -0.2194,-0.0035 -0.0396,7.06e-4 -0.0661,-0.0086 -0.10418,-0.01658 -0.0878,-0.01877 -0.18626,-0.03387 -0.27535,-0.04104 -0.041,-0.0037 -0.0784,-0.01214 -0.12018,-0.01729 -0.046,-0.0057 -0.092,0.0037 -0.13731,-0.0057 -0.0992,-0.02007 -0.17761,-0.145958 -0.20927,-0.240933 -0.0295,-0.08761 -0.0718,-0.182584 -0.0812,-0.273142 -0.004,-0.04233 -0.0252,-0.08559 -0.0193,-0.128654 0.004,-0.03239 0.0171,-0.06553 0.0236,-0.09774"
       style="fill:#21201d;fill-opacity:1;fill-rule:evenodd;stroke:none;stroke-width:0.184057"
       id="path582" />
  </g>
</svg>
