<?xml version="1.0" encoding="UTF-8" standalone="no"?>
<!-- Created with Inkscape (http://www.inkscape.org/) -->

<svg
   width="7.6998801mm"
   height="6.8523607mm"
   viewBox="0 0 7.6998801 6.8523607"
   version="1.1"
   id="svg3474"
   inkscape:version="1.1.2 (0a00cf5339, 2022-02-04)"
   sodipodi:docname="re2.svg"
   xmlns:inkscape="http://www.inkscape.org/namespaces/inkscape"
   xmlns:sodipodi="http://sodipodi.sourceforge.net/DTD/sodipodi-0.dtd"
   xmlns="http://www.w3.org/2000/svg"
   xmlns:svg="http://www.w3.org/2000/svg">
  <sodipodi:namedview
     id="namedview3476"
     pagecolor="#ffffff"
     bordercolor="#666666"
     borderopacity="1.0"
     inkscape:pageshadow="2"
     inkscape:pageopacity="0.0"
     inkscape:pagecheckerboard="0"
     inkscape:document-units="mm"
     showgrid="false"
     inkscape:zoom="0.64052329"
     inkscape:cx="14.051011"
     inkscape:cy="13.2704"
     inkscape:window-width="2560"
     inkscape:window-height="1376"
     inkscape:window-x="0"
     inkscape:window-y="0"
     inkscape:window-maximized="1"
     inkscape:current-layer="layer1" />
  <defs
     id="defs3471" />
  <g
     inkscape:label="Layer 1"
     inkscape:groupmode="layer"
     id="layer1"
     transform="translate(-101.07065,-145.07387)">
    <path
       d="m 101.43763,148.5104 c -0.001,-0.006 -0.002,-0.0109 -0.004,-0.0166 -0.0309,-0.009 -0.0856,-0.0116 -0.11798,-0.005 -0.0396,0.008 -0.0698,0.0504 -0.10344,0.0727 -0.0583,0.0374 -0.13233,0.1316 -0.13951,0.20283 -0.0136,0.1351 0.0396,0.32707 0.18111,0.37235 0.0519,0.0166 0.0999,0.0245 0.15387,0.0201 0.0374,-0.002 0.0539,-0.0158 0.09,-0.0201 0.0683,-0.009 0.10711,-0.009 0.15662,-0.0653 0.0806,-0.0935 -0.0331,-0.32726 -0.17245,-0.24535 -0.10584,-0.10639 0.11503,-0.18977 0.17025,-0.23928 -0.0329,-0.11154 -0.16602,-0.0964 -0.2551,-0.0964"
       style="fill:#21201d;fill-opacity:1;fill-rule:evenodd;stroke:none;stroke-width:0.184057"
       id="path584" />
    <path
       d="m 104.29123,150.45442 c -0.009,-0.001 -0.0178,-0.002 -0.0265,-0.004 -0.0287,0.0423 -0.0596,0.12351 -0.0655,0.17541 -0.008,0.0631 0.041,0.12939 0.0576,0.19124 0.028,0.10712 0.13308,0.26522 0.23578,0.31124 0.19694,0.0871 0.51407,0.10215 0.65211,-0.0898 0.0497,-0.069 0.0856,-0.13731 0.10639,-0.22069 0.0144,-0.0576 0.002,-0.0893 0.0131,-0.14522 0.0215,-0.10786 0.0409,-0.16694 -0.021,-0.26891 -0.0999,-0.16749 -0.50965,-0.11154 -0.45443,0.13878 -0.21278,0.10712 -0.22934,-0.26688 -0.27609,-0.37529 -0.18461,-0.005 -0.22712,0.20265 -0.27167,0.33775"
       style="fill:#21201d;fill-opacity:1;fill-rule:nonzero;stroke:none;stroke-width:0.184057"
       id="path586" />
    <path
       d="m 104.50124,151.54147 -0.0136,-0.001 c -0.0151,0.0223 -0.0309,0.0646 -0.0346,0.0913 -0.004,0.0337 0.0216,0.0676 0.0302,0.1 0.0151,0.0559 0.069,0.13804 0.12295,0.16233 0.10215,0.0455 0.26743,0.0532 0.33939,-0.0473 0.0267,-0.0361 0.0445,-0.0712 0.0561,-0.11503 0.007,-0.0302 7.1e-4,-0.0468 0.006,-0.0756 0.0107,-0.0567 0.0215,-0.0869 -0.0109,-0.14007 -0.0525,-0.0878 -0.26596,-0.0583 -0.23651,0.0725 -0.11136,0.0554 -0.11927,-0.13952 -0.14375,-0.19621 -0.097,-0.002 -0.11872,0.10639 -0.14172,0.17615"
       style="fill:#21201d;fill-opacity:1;fill-rule:nonzero;stroke:none;stroke-width:0.184057"
       id="path588" />
    <path
       d="m 105.24041,146.54614 c 0.008,7e-4 0.0179,0.001 0.0265,0.003 0.028,-0.0423 0.0596,-0.12369 0.0655,-0.17467 0.008,-0.0639 -0.041,-0.13013 -0.0576,-0.19197 -0.028,-0.10712 -0.13307,-0.26523 -0.23651,-0.31051 -0.19621,-0.0878 -0.51334,-0.10215 -0.65138,0.0891 -0.0497,0.069 -0.0856,0.13804 -0.10638,0.22142 -0.0151,0.0576 -0.002,0.0893 -0.0131,0.14522 -0.0216,0.10786 -0.0409,0.1662 0.0203,0.26891 0.10067,0.16749 0.51038,0.11154 0.45443,-0.13952 0.2135,-0.10712 0.22933,0.26762 0.27663,0.3753 0.1848,0.005 0.22732,-0.20265 0.27185,-0.3372"
       style="fill:#21201d;fill-opacity:1;fill-rule:nonzero;stroke:none;stroke-width:0.184057"
       id="path590" />
    <path
       d="m 105.02967,145.45835 0.0144,0.001 c 0.0151,-0.0215 0.0309,-0.0646 0.0346,-0.0913 0.004,-0.0329 -0.0217,-0.0676 -0.0302,-0.0999 -0.0151,-0.0552 -0.069,-0.13804 -0.12295,-0.16234 -0.10289,-0.0455 -0.26744,-0.0526 -0.34014,0.0473 -0.026,0.0361 -0.0438,0.072 -0.0554,0.11504 -0.008,0.0302 -7e-4,0.0468 -0.006,0.0762 -0.0109,0.0561 -0.0216,0.0871 0.0101,0.14025 0.0525,0.0871 0.26596,0.0583 0.23725,-0.0733 0.11136,-0.0554 0.11927,0.14006 0.14375,0.1962 0.0963,0.003 0.11871,-0.10565 0.14172,-0.17614"
       style="fill:#21201d;fill-opacity:1;fill-rule:nonzero;stroke:none;stroke-width:0.184057"
       id="path592" />
    <path
       d="m 101.59941,148.14652 c 0.20136,7.1e-4 0.40842,-0.10418 0.56653,-0.22713 0.049,-0.0374 0.0893,-0.0828 0.14172,-0.11651 0.0569,-0.0359 0.11504,-0.0661 0.17044,-0.10565 0.1027,-0.0742 0.21774,-0.13381 0.31418,-0.21645 0.0848,-0.072 0.18259,-0.11945 0.27958,-0.17264 0.0992,-0.0547 0.21001,-0.10565 0.3221,-0.12792 0.0223,-0.004 0.0475,-7.1e-4 0.0698,-0.007 0.0237,-0.006 0.0445,-0.026 0.0683,-0.0324 0.0468,-0.0136 0.10068,-0.01 0.1489,-0.0178 0.10786,-0.0188 0.20928,-0.0677 0.31842,-0.0828 0.13234,-0.0186 0.26891,-0.0302 0.40124,-0.0438 0.14522,-0.0158 0.284,-0.0215 0.4307,-0.0215 h 0.79806 c 0.22216,0 0.44855,-0.0208 0.66279,0.0403 0.0777,0.0223 0.14467,0.0849 0.2216,0.1178 0.0913,0.0381 0.18682,0.0648 0.27388,0.10932 0.0661,0.0339 0.11282,0.11651 0.16602,0.16823 0.0475,0.046 0.0841,0.1029 0.13012,0.15093 0.0353,0.0376 0.0747,0.072 0.11081,0.10786 0.051,0.0532 0.10491,0.11007 0.16252,0.15976 0.0374,0.0329 0.0782,0.0545 0.11706,0.0854 0.0339,0.026 0.0583,0.0655 0.09,0.0965 0.0574,0.0574 0.1178,0.0863 0.17743,0.13584 0.0893,0.074 0.19271,0.12221 0.29062,0.18258 0.0374,0.023 0.0861,0.0324 0.12351,0.0596 0.049,0.0353 0.0633,0.0611 0.13012,0.0611 0.0987,0 0.19271,0.0692 0.2632,0.14098 0.0554,0.0576 0.13308,0.0856 0.1675,0.15885 0.0188,0.0388 0.0453,0.0907 0.0525,0.13454 0.006,0.0331 -0.008,0.0324 -0.0136,0.0547 -0.008,0.0316 -0.0129,0.0653 -0.0201,0.0977 -0.0123,0.0517 -0.026,0.10068 -0.0468,0.15019 -0.064,0.15038 -0.21277,0.16326 -0.35873,0.18774 -0.14669,0.0245 -0.29762,0.009 -0.42425,-0.072 -0.041,-0.0265 -0.0747,-0.0559 -0.0856,-0.10565 -0.009,-0.051 -0.0431,-0.11724 -0.0403,-0.1697 0.002,-0.0438 0.0324,-0.092 0.0618,-0.12295 0.0353,-0.0374 0.0742,-0.0388 0.12166,-0.0495 0.0539,-0.0136 0.0948,-0.0346 0.15167,-0.0123 0.0653,0.026 0.0589,0.0755 0.025,0.12811 -0.0228,0.0344 -0.0545,0.0631 -0.0567,0.10491 -0.004,0.0547 0.0272,0.0827 0.069,0.10418 0.0797,0.041 0.17688,0.005 0.20486,-0.0849 0.0294,-0.0933 0.0136,-0.23357 -0.0252,-0.3221 -0.048,-0.11062 -0.13583,-0.17173 -0.23136,-0.23652 -0.10638,-0.0725 -0.22804,-0.1316 -0.3394,-0.19473 -0.10859,-0.0626 -0.23007,-0.11577 -0.34878,-0.15976 -0.0653,-0.0236 -0.11927,-0.0631 -0.17743,-0.0963 -0.0561,-0.0316 -0.11301,-0.072 -0.15976,-0.11927 -0.0295,-0.0302 -0.0619,-0.0561 -0.0928,-0.0841 -0.0258,-0.0237 -0.0416,-0.0532 -0.0703,-0.0749 -0.0245,-0.0186 -0.0453,-0.0329 -0.0677,-0.0552 -0.0257,-0.0252 -0.0559,-0.0353 -0.0841,-0.0591 -0.10915,-0.0948 -0.18903,-0.19768 -0.32339,-0.26173 -0.12166,-0.0574 -0.2424,-0.11927 -0.37106,-0.15737 -0.0683,-0.0203 -0.13804,-0.0468 -0.20706,-0.0554 -0.12148,-0.0166 -0.23651,-0.0208 -0.3602,-0.0208 h -1.02961 c -0.0955,0 -0.18976,-10e-4 -0.28473,-7e-4 -0.1316,7e-4 -0.25235,0.0574 -0.3753,0.097 -0.0777,0.0252 -0.10343,0.0813 -0.16822,0.12147 -0.0582,0.0361 -0.13731,0.0611 -0.20338,0.0749 -0.18406,0.0381 -0.3775,0.0604 -0.54573,0.15663 -0.12663,0.0727 -0.25805,0.1524 -0.36314,0.2575 -0.0316,0.0322 -0.0596,0.0819 -0.0992,0.10565 -0.0626,0.0396 -0.14522,0.0489 -0.21351,0.0733 -0.0294,0.0109 -0.0589,0.0309 -0.0906,0.0396 -0.046,0.0123 -0.0863,0.0123 -0.13234,0.0295 -0.0539,0.0203 -0.10344,0.0353 -0.16104,0.0346 -0.10418,-7.1e-4 -0.20928,0 -0.23228,-0.0403"
       style="fill:#21201d;fill-opacity:1;fill-rule:nonzero;stroke:none;stroke-width:0.184057"
       id="path594" />
    <path
       d="m 102.42766,149.23798 c 0.1905,0 0.38118,-0.006 0.56653,0.0453 0.17191,0.0475 0.33001,0.12369 0.50413,0.15884 0.14522,0.0295 0.27958,0.0878 0.4248,0.12148 0.0618,0.0144 0.11154,0.0433 0.1697,0.0663 0.0475,0.0186 0.10289,0.0129 0.15387,0.0223 0.0532,0.01 0.10712,0.0158 0.16032,0.0258 0.0554,0.0101 0.1108,0.007 0.1662,0.0188 0.0854,0.0188 0.17172,0.0309 0.25805,0.041 0.12368,0.0151 0.23945,0.0453 0.36369,0.0453 0.0878,7.1e-4 0.17632,0.007 0.26173,-0.0144 0.1143,-0.0289 0.23228,-0.0225 0.3451,-0.0475 0.023,-0.005 0.0396,-0.0188 0.0611,-0.0274 0.0274,-0.009 0.0532,-0.009 0.0821,-0.0136 0.0453,-0.007 0.0861,-0.026 0.12939,-0.0411 0.0698,-0.025 0.14375,-0.0416 0.21203,-0.0733 0.0928,-0.0423 0.20357,-0.069 0.30351,-0.0913 0.0913,-0.0201 0.17541,-0.0648 0.26228,-0.10068 0.14669,-0.0604 0.29339,-0.11283 0.44376,-0.16106 0.0445,-0.0144 0.35155,-0.11577 0.3429,0.001 -0.0388,0.0158 -0.0942,0.0151 -0.13657,0.0294 -0.0361,0.0116 -0.0712,0.0223 -0.10786,0.0331 -0.0576,0.0166 -0.11301,0.0416 -0.15461,0.0869 -0.0331,0.0361 -0.049,0.0525 -0.0957,0.0742 -0.16105,0.0733 -0.33996,0.15387 -0.51481,0.1962 -0.12277,0.0302 -0.2551,0.0626 -0.37308,0.1086 -0.12645,0.0495 -0.27038,0.064 -0.39388,0.12074 -0.2402,0.10933 -0.51205,0.10712 -0.76862,0.1467 -0.0576,0.009 -0.11356,0.0252 -0.17117,0.0339 -0.0517,0.009 -0.1086,0.001 -0.16105,0.001 -0.13013,0 -0.25087,-0.004 -0.37953,-0.0243 -0.0605,-0.0101 -0.12239,-0.0188 -0.18129,-0.0353 -0.0604,-0.0173 -0.11853,-0.0438 -0.1789,-0.0626 -0.1108,-0.0344 -0.21075,-0.0631 -0.31566,-0.11504 -0.0999,-0.048 -0.21295,-0.069 -0.3186,-0.10638 -0.0985,-0.0344 -0.1905,-0.0589 -0.28326,-0.10989 -0.0316,-0.018 -0.0589,-0.0375 -0.0906,-0.0512 -0.0351,-0.0151 -0.0734,-0.0208 -0.11006,-0.0302 -0.0329,-0.009 -0.0611,-0.0216 -0.092,-0.0359 -0.0388,-0.0173 -0.0747,-0.0136 -0.11577,-0.0238 -0.048,-0.0114 -0.0804,-0.0252 -0.12793,-0.0302 -0.0309,-0.004 -0.0475,-0.0173 -0.0784,-0.0216 -0.048,-0.007 -0.0963,-0.0165 -0.14301,-0.021 -0.0388,-0.003 -0.0676,-0.0144 -0.10565,-0.0201 -0.044,-0.007 -0.092,0.0215 -0.11577,-0.028 -0.0195,-0.0418 0.008,-0.0871 0.0396,-0.10859 0.0941,-0.0633 0.22068,0.009 0.26301,0.0166"
       style="fill:#21201d;fill-opacity:1;fill-rule:nonzero;stroke:none;stroke-width:0.184057"
       id="path596" />
  </g>
</svg>
