<?xml version="1.0" encoding="UTF-8" standalone="no"?>
<!-- Created with Inkscape (http://www.inkscape.org/) -->

<svg
   width="6.6391706mm"
   height="6.20962mm"
   viewBox="0 0 6.6391706 6.20962"
   version="1.1"
   id="svg3657"
   inkscape:version="1.1.2 (0a00cf5339, 2022-02-04)"
   sodipodi:docname="re3.svg"
   xmlns:inkscape="http://www.inkscape.org/namespaces/inkscape"
   xmlns:sodipodi="http://sodipodi.sourceforge.net/DTD/sodipodi-0.dtd"
   xmlns="http://www.w3.org/2000/svg"
   xmlns:svg="http://www.w3.org/2000/svg">
  <sodipodi:namedview
     id="namedview3659"
     pagecolor="#ffffff"
     bordercolor="#666666"
     borderopacity="1.0"
     inkscape:pageshadow="2"
     inkscape:pageopacity="0.0"
     inkscape:pagecheckerboard="0"
     inkscape:document-units="mm"
     showgrid="false"
     inkscape:zoom="0.64052329"
     inkscape:cx="-716.60158"
     inkscape:cy="-133.48461"
     inkscape:window-width="2560"
     inkscape:window-height="1376"
     inkscape:window-x="0"
     inkscape:window-y="0"
     inkscape:window-maximized="1"
     inkscape:current-layer="layer1" />
  <defs
     id="defs3654" />
  <g
     inkscape:label="Layer 1"
     inkscape:groupmode="layer"
     id="layer1"
     transform="translate(-294.50657,-184.01724)">
    <path
       d="m 296.3356,186.11343 c 0.0309,-0.006 0.0287,-0.0359 0.0396,-0.0596 0.0243,-0.0525 0.079,-0.092 0.11135,-0.14025 0.0517,-0.0791 0.10639,-0.15884 0.14817,-0.24296 0.0136,-0.026 0.025,-0.0598 0.0344,-0.0878 0.0109,-0.0316 0.0136,-0.0396 0.0418,-0.0646 0.0611,-0.0547 0.14153,-0.0994 0.22786,-0.10289 0.0351,-0.002 0.0747,0.0208 0.10859,0.0309 0.0604,0.0186 0.12148,0.041 0.18332,0.0574 0.2078,0.0561 0.42922,0.0475 0.63058,0.12884 0.10491,0.0416 0.2135,0.0733 0.31492,0.12148 0.0589,0.0272 0.12147,0.0388 0.17688,0.0712 0.0697,0.0409 0.14006,0.0812 0.21055,0.12148 0.0827,0.0473 0.15682,0.12645 0.2229,0.194 0.0467,0.0482 0.0992,0.0871 0.15313,0.12663 0.0403,0.0309 0.0777,0.064 0.12369,0.0869 0.0351,0.0173 0.0727,0.0252 0.10417,0.049 0.0403,0.0302 0.0756,0.0626 0.11725,0.0913 0.0203,0.013 0.0359,0.0245 0.0512,0.0438 0.0193,0.0237 0.0359,0.0425 0.0589,0.0626 0.0574,0.0504 0.11927,0.1 0.18111,0.14467 0.0309,0.0208 0.0618,0.0423 0.092,0.0646 0.0238,0.0173 0.0885,0.0497 0.10289,0.0769 0.0173,0.0346 0.0136,0.0834 0.0186,0.12075 0.004,0.0294 0.0158,0.044 0.0158,0.0755 -7e-4,0.0304 -7e-4,0.0606 0,0.0907 7.1e-4,0.0394 -10e-4,0.0545 -0.0453,0.0423 -0.0201,-0.005 -0.0438,-0.0193 -0.0604,-0.0309 -0.0337,-0.0331 -0.072,-0.0618 -0.11357,-0.0856 -0.064,-0.0337 -0.12792,-0.069 -0.1905,-0.10418 -0.25307,-0.14301 -0.51977,-0.26541 -0.78941,-0.37253 -0.072,-0.0295 -0.14743,-0.0431 -0.2194,-0.0703 -0.0381,-0.0145 -0.0725,-0.0309 -0.11061,-0.0425 -0.0878,-0.0265 -0.17541,-0.0712 -0.25824,-0.11209 -0.22215,-0.11081 -0.45498,-0.19713 -0.70015,-0.23873 -0.0302,-0.006 -0.0497,-0.0195 -0.0791,-0.0274 -0.0418,-0.0114 -0.0883,-0.0156 -0.1316,-0.0186 -0.0547,-0.004 -0.11209,-0.0121 -0.16602,-0.026 -0.095,-0.0245 -0.18847,-0.0186 -0.28694,-0.0193 -0.0488,0 -0.0898,0.0114 -0.13805,0.0158 -0.0366,0.003 -0.0675,0.0151 -0.18037,0.0295"
       style="fill:#21201d;fill-opacity:1;fill-rule:evenodd;stroke:none;stroke-width:0.184057"
       id="path598" />
    <path
       d="m 297.13864,185.34058 c 0.13087,0 0.26523,0.0166 0.3948,0.0381 0.16455,0.028 0.33425,0.0309 0.4988,0.0683 0.12589,0.0287 0.24663,0.0596 0.3624,0.12074 0.0596,0.0316 0.12369,0.0381 0.18479,0.0648 0.0295,0.0129 0.0604,0.028 0.0898,0.0409 0.0547,0.0252 0.0972,0.0893 0.14743,0.1259 0.026,0.0186 0.0467,0.0438 0.072,0.0633 0.0331,0.025 0.0747,0.0453 0.10988,0.069 0.044,0.0295 0.0863,0.0517 0.12369,0.0898 0.0504,0.0517 0.10288,0.0985 0.16325,0.13584 0.0215,0.0136 0.0418,0.0316 0.0611,0.0512 0.0136,0.0129 0.0316,0.0552 0.0467,0.0552 0.008,-0.0265 -0.0114,-0.0596 -0.0129,-0.0876 -0.002,-0.0445 7.1e-4,-0.09 7.1e-4,-0.13381 v -0.28547 c 0,-0.13436 -7.1e-4,-0.26817 0,-0.4018 0,-0.0353 0.001,-0.0641 -0.0109,-0.0972 -0.0121,-0.0315 -0.0272,-0.0582 -0.0497,-0.0834 -0.0287,-0.0322 -0.0351,-0.028 -0.0768,-0.0302 -0.0504,-0.002 -0.0994,-0.0144 -0.15037,-0.0166 -0.0574,-0.002 -0.11504,0 -0.17247,0 h -0.69021 c -0.0878,0 -0.17761,-0.007 -0.2632,0.0116 -0.0502,0.0114 -0.10288,0.0179 -0.1524,0.0337 -0.0267,0.009 -0.0525,0.0225 -0.0799,0.0289 -0.0287,0.006 -0.0502,0.0215 -0.0777,0.0295 -0.0265,0.008 -0.0396,0.006 -0.0646,0.0173 -0.0195,0.009 -0.0388,0.023 -0.0611,0.028 -0.023,0.004 -0.0453,0.002 -0.0683,0.006 -0.0131,0.003 -0.021,0.0101 -0.0368,0.0116 -0.0144,0.002 -0.033,-0.004 -0.0466,0 -0.0188,0.004 -0.021,0.0223 -0.24167,0.046"
       style="fill:#21201d;fill-opacity:1;fill-rule:nonzero;stroke:none;stroke-width:0.184057"
       id="path600" />
    <path
       d="m 297.06244,185.24983 c 0.0381,0.007 0.10142,-0.0344 0.13381,-0.0473 0.0977,-0.0396 0.1905,-0.0856 0.29118,-0.11872 0.1027,-0.0331 0.20909,-0.0697 0.31621,-0.0876 0.10436,-0.018 0.21295,-0.0217 0.31786,-0.0361 0.19915,-0.0258 0.38468,-0.0604 0.58659,-0.0582 0.0591,0 0.1143,-0.009 0.17338,-0.0144 0.0151,-0.002 0.0366,-0.006 0.0517,0 0.0193,0.009 0.0295,0.0409 0.0517,0.0423 -10e-4,-0.0396 -0.0359,-0.0999 -0.0574,-0.1316 -0.0346,-0.0495 -0.0871,-0.0854 -0.14025,-0.11136 -0.0574,-0.0287 -0.11135,-0.0698 -0.16749,-0.10362 -0.0418,-0.025 -0.0769,-0.056 -0.11798,-0.0797 -0.0302,-0.018 -0.0381,-0.0252 -0.074,-0.0267 -0.0468,0 -0.10068,-0.007 -0.14595,0.002 -0.10639,0.0201 -0.21425,0.0525 -0.30922,0.10565 -0.10859,0.0619 -0.22639,0.10934 -0.33075,0.17983 -0.0473,0.0324 -0.0933,0.0698 -0.13933,0.10344 -0.0388,0.0281 -0.0806,0.0497 -0.11798,0.0799 -0.0554,0.0438 -0.12295,0.0819 -0.17043,0.1351 -0.0265,0.0295 -0.028,0.067 -0.0468,0.0986 -0.0136,0.0223 -0.0381,0.0374 -0.10491,0.0688"
       style="fill:#21201d;fill-opacity:1;fill-rule:nonzero;stroke:none;stroke-width:0.184057"
       id="path602" />
    <path
       d="m 298.44139,186.88629 c -0.0186,0.003 -0.0337,0.0129 -0.0525,0.0158 -0.0188,0.002 -0.0374,-0.003 -0.0554,-0.002 -0.0481,0.004 -0.0985,0.0237 -0.14743,0.0316 -0.0883,0.0151 -0.17394,0.0366 -0.26302,0.0497 -0.15608,0.0223 -0.31639,0.0388 -0.47026,0.0725 -0.1259,0.0274 -0.261,0.0144 -0.38965,0.0144 -0.14817,0 -0.29044,0.0151 -0.43934,0.0151 -0.092,0 -0.19694,-0.0129 -0.28824,0 -0.026,0.003 -0.023,-0.004 -0.0309,0.0217 -0.006,0.0186 7.1e-4,0.0468 7.1e-4,0.0661 -7.1e-4,0.0438 -0.004,0.0747 -0.0173,0.11577 -0.0173,0.0517 -0.0121,0.0992 -0.0136,0.15313 0,0.0136 -0.005,0.041 0.003,0.0532 0.0138,0.0216 0.0482,0.0144 0.0698,0.018 0.11228,0.0166 0.2251,0.0114 0.33793,0.0114 h 1.01452 c 0.0733,0 0.14669,0 0.21995,0 0.10362,0 0.20356,-0.0208 0.30626,-0.0309 0.18848,-0.018 0.36315,-0.0618 0.53561,-0.13731 0.0791,-0.0346 0.15608,-0.0497 0.24166,-0.0596 0.0675,-0.008 0.11927,-0.0188 0.17762,-0.0497 0.048,-0.0257 0.10068,-0.0316 0.1546,-0.0445 -0.008,-0.0245 -0.0598,-0.0502 -0.0806,-0.0626 -0.0999,-0.0574 -0.20633,-0.10344 -0.30332,-0.16602 -0.0849,-0.0539 -0.15608,-0.0942 -0.25603,-0.11283 -0.0136,-0.003 -0.0309,0 -0.0431,-0.004 -0.0131,-0.003 -0.0143,-0.0114 -0.0281,-0.0158 -0.0201,-0.006 -0.0473,-0.0121 -0.069,-0.0151 -0.0272,-0.004 -0.0567,0.002 -0.0834,0.008 -0.0517,0.0121 -0.074,0.0431 -0.0302,0.0532"
       style="fill:#21201d;fill-opacity:1;fill-rule:nonzero;stroke:none;stroke-width:0.184057"
       id="path604" />
    <path
       d="m 296.71439,186.44566 c -0.0171,0.0517 0.005,0.0906 0.0396,0.12792 0.0195,0.0215 0.0482,0.0351 0.0705,0.0567 0.018,0.0173 0.0324,0.0433 0.0525,0.0576 0.0425,0.0295 0.0863,0.0648 0.13804,0.0819 0.0604,0.0203 0.12296,0.0381 0.1848,0.0569 0.0985,0.0309 0.20209,0.0215 0.30056,-0.0302 0.0381,-0.0195 0.0755,-0.0438 0.11357,-0.0663 0.0388,-0.023 0.0697,-0.0582 0.10933,-0.079 -0.0215,0.0201 -0.0353,0.006 -0.0584,0.002 -0.023,-0.004 -0.0381,0.004 -0.0618,0 -0.0208,-0.004 -0.0545,-0.0123 -0.0732,-0.0223 -0.0101,-0.006 -0.0151,-0.0166 -0.0245,-0.0223 -0.0144,-0.009 -0.0295,-0.009 -0.0431,-0.0166 -0.0309,-0.018 -0.0663,-0.0591 -0.0928,-0.0834 -0.0359,-0.0324 -0.0712,-0.0576 -0.12,-0.072 -0.0455,-0.0144 -0.0935,-0.0388 -0.14098,-0.0316 -0.0467,0.008 -0.0928,0.023 -0.13878,0.0366 -0.0517,0.0158 -0.0928,0.018 -0.14743,0.0252 -0.0374,0.006 -0.0955,0.0287 -0.10786,-0.0201"
       style="fill:#21201d;fill-opacity:1;fill-rule:nonzero;stroke:none;stroke-width:0.184057"
       id="path606" />
    <path
       d="m 297.71456,187.73462 c 0,0 0.0762,0.006 0.0955,0 0.008,-0.002 0.0188,-0.0114 0.0252,-0.0121 0.0238,-0.004 0.0339,0 0.0569,0.004 0.0396,0.007 0.079,0.008 0.11651,0.0208 0.0294,0.0107 0.0517,0.028 0.0826,0.0366 0.16602,0.0482 0.33793,0.0777 0.50045,0.14025 0.13933,0.0532 0.28455,0.10712 0.42774,0.14007 0.0574,0.013 0.1178,0.008 0.17246,0.0274 0.0532,0.0186 0.0885,0.0366 0.14394,0.0366 0.0114,0 0.0431,0.006 0.0525,0 0.0129,-0.01 0.008,-0.028 0.008,-0.0445 -7e-4,-0.0482 0,-0.0963 0,-0.14448 0,-0.0453 0.006,-0.0942 7.1e-4,-0.13952 -0.006,-0.051 -0.0281,-0.0928 -0.0425,-0.14098 -0.0114,-0.0381 -0.0295,-0.079 -0.051,-0.1121 -0.0136,-0.0201 -0.0339,-0.0618 -0.0576,-0.0697 -0.0646,-0.0208 -0.1559,0.0267 -0.21425,0.0468 -0.10638,0.0351 -0.2135,0.0589 -0.32356,0.0769 -0.0401,0.006 -0.0797,0.0158 -0.11854,0.0252 -0.0346,0.008 -0.0683,0 -0.10289,0.002 -0.0374,0.004 -0.069,0.0151 -0.10638,0.0158 -0.0438,0 -0.0977,0.009 -0.1408,0.0188 -0.0878,0.0223 -0.17338,0.0366 -0.261,0.0539 -0.0547,0.0109 -0.11797,0.004 -0.26393,0.0186"
       style="fill:#21201d;fill-opacity:1;fill-rule:nonzero;stroke:none;stroke-width:0.184057"
       id="path608" />
    <path
       d="m 297.51761,187.811 c -0.0339,-0.005 -0.069,0.0201 -0.0986,0.0315 -0.0344,0.0138 -0.0676,0.0302 -0.10197,0.044 -0.0992,0.0396 -0.19049,0.0755 -0.2805,0.13583 -0.0351,0.0245 -0.0646,0.0381 -0.10196,0.0532 -0.049,0.0188 -0.0972,0.0267 -0.14743,0.0425 -0.046,0.0151 -0.0641,0.0488 -0.10289,0.0755 -0.046,0.0317 -0.0883,0.0777 -0.15166,0.0725 -0.0849,-0.008 -0.0359,-0.16971 -0.0446,-0.22787 -0.009,-0.0561 -0.0287,-0.12148 -0.0482,-0.17467 -0.0101,-0.0267 -0.0258,-0.0475 -0.0403,-0.072 -0.009,-0.0151 -0.0337,-0.0524 -0.0322,-0.0698 0.0193,-0.007 0.0438,-0.004 0.0639,-0.009 0.0331,-0.008 0.067,-0.0136 0.0999,-0.0193 0.0403,-0.007 0.0821,-0.004 0.12368,-0.004 h 0.53211 c 0.0639,0 0.13951,-0.0129 0.20191,0 0.041,0.008 0.0663,0.0504 0.0999,0.0742 0.0245,0.0173 0.049,0.0295 0.0289,0.0482"
       style="fill:#21201d;fill-opacity:1;fill-rule:nonzero;stroke:none;stroke-width:0.184057"
       id="path610" />
    <path
       d="m 296.82023,188.25016 c 0.0409,-0.005 0.069,-0.0294 0.10638,-0.0423 0.0366,-0.0131 0.0676,-0.0274 0.10565,-0.0366 0.0388,-0.0101 0.0697,-0.0324 0.10638,-0.046 0.0309,-0.0109 0.0589,-0.0282 0.0906,-0.0381 0.0648,-0.0202 0.12736,-0.0381 0.18921,-0.0641 0.0703,-0.0302 0.14154,-0.0425 0.21277,-0.0618 0.0784,-0.0223 0.16454,-0.0144 0.24792,-0.0144 0.0611,0 0.1224,0 0.1835,0 0.0315,0 0.0466,0.0121 0.0755,0.0158 0.0151,0.002 0.0302,-0.004 0.0453,-0.002 0.0223,0.003 0.0423,0.0144 0.0654,0.0173 0.0188,0.002 0.0346,-0.003 0.0539,0.002 0.009,0.003 0.0223,0.0123 0.0353,0.0158 0.0401,0.0101 0.0747,0.0144 0.11136,0.0339 0.018,0.009 0.0663,0.0201 0.0755,0.0388 -0.0503,-0.002 -0.10123,-0.002 -0.1524,-0.002 -0.0661,0 -0.12074,0.0173 -0.18479,0.0274 -0.0769,0.0121 -0.14872,0.0322 -0.22418,0.051 -0.0539,0.0129 -0.10731,0.006 -0.1605,0.0166 -0.0251,0.005 -0.0545,0.0186 -0.0804,0.0265 -0.0747,0.0245 -0.15387,0.0353 -0.22786,0.0611 -0.0683,0.023 -0.1432,0.0302 -0.21424,0.0418 -0.0274,0.004 -0.0532,0 -0.0806,0.005 -0.0396,0.006 -0.0799,0.0188 -0.11927,0.026 -0.10068,0.0151 -0.1813,-0.0274 -0.27259,-0.0453 -7e-4,-0.004 -10e-4,-0.009 0.0124,-0.0274"
       style="fill:#21201d;fill-opacity:1;fill-rule:nonzero;stroke:none;stroke-width:0.184057"
       id="path612" />
    <path
       d="m 298.08193,188.66503 c -0.006,0.004 -0.0121,0.006 -0.0188,0.009 -0.028,0.0136 -0.0616,0.0166 -0.0876,0.0331 -0.0295,0.0193 -0.0539,0.0438 -0.0849,0.0589 -0.0576,0.0287 -0.1108,0.0574 -0.1732,0.0784 -0.0611,0.0193 -0.12092,0.0574 -0.1927,0.0567 -0.0792,0 -0.15903,-0.003 -0.23798,0 -0.0418,0.002 -0.0821,0.018 -0.12148,0.0302 -0.0447,0.0153 -0.0836,0.0433 -0.12884,0.0619 0.0346,-0.004 0.0712,0.0309 0.10436,0.041 0.10196,0.0309 0.2135,0.0267 0.31915,0.046 0.1143,0.0201 0.2459,0.003 0.36241,0.003 0.12865,0 0.25381,-0.0245 0.38173,-0.0411 0.17541,-0.023 0.33646,-0.064 0.49401,-0.14099 0.0416,-0.0201 0.0834,-0.0243 0.12423,-0.048 0.0547,-0.0309 0.11504,-0.0453 0.16897,-0.0755 0.0648,-0.0368 0.13086,-0.0705 0.20062,-0.0965 0.0331,-0.0121 0.0655,-0.0237 0.0972,-0.0374 0.0445,-0.0188 0.0618,-0.023 0.0611,-0.0755 0,-0.0482 -0.0124,-0.0906 -0.0151,-0.13657 -0.003,-0.0403 -0.004,-0.0698 -0.026,-0.10639 -0.0201,-0.0346 -0.0418,-0.0433 -0.0784,-0.0447 -0.0762,-0.003 -0.15534,0.009 -0.23007,0 -0.0388,-0.005 -0.0596,-0.028 -0.0935,-0.0423 -0.0401,-0.0166 -0.0733,-0.0188 -0.14725,-0.0641 -0.0388,0 -0.0979,-0.0114 -0.13307,0.003 -0.0173,0.006 -0.0316,0.023 -0.0482,0.0316 -0.0245,0.0129 -0.0525,0.0158 -0.0769,0.0295 -0.0381,0.0223 -0.074,0.0611 -0.10565,0.0906 -0.074,0.0683 -0.11577,0.16032 -0.18332,0.23303 -0.0193,0.0193 -0.0403,0.0366 -0.0653,0.0488 -0.041,0.0195 -0.0871,0.021 -0.1316,0.0274 -0.0611,0.01 -0.11724,0.0309 -0.16896,0.0661 -0.0317,0.0215 -0.0576,0.0425 -0.0957,0.051 -0.0381,0.009 -0.0777,0.009 -0.11577,0.0138 -0.10988,0.0158 -0.21921,0.006 -0.33001,0.0114 -0.0431,0.002 -0.0856,0.018 -0.12792,0.0287 -0.0388,0.009 -0.0762,0.0123 -0.11504,0.018 -0.0561,0.009 -0.11872,0.051 -0.17835,0.026 -0.0344,-0.0144 -0.0747,-0.0569 -0.0942,-0.0878 -0.0236,-0.0381 -0.0359,-0.10215 -0.0453,-0.14375 -0.0151,-0.0668 -0.0401,-0.15461 -0.0775,-0.21424 0.0179,0.0223 0.0747,0.007 0.0992,0.009 0.0394,0.003 0.0826,0.0107 0.12221,0.0158 0.0144,0.002 0.0243,0.009 0.0374,0.0121 0.0215,0.005 0.0403,0 0.0611,0.003 0.0381,0.004 0.0777,0.0151 0.1143,0.023 0.0567,0.0121 0.11209,0.004 0.16896,0.0223 0.0898,0.0295 0.18756,0.0366 0.28106,0.0495 0.14669,0.021 0.28841,0.0267 0.43566,0.0267"
       style="fill:#21201d;fill-opacity:1;fill-rule:nonzero;stroke:none;stroke-width:0.184057"
       id="path614" />
    <path
       d="m 297.3989,184.55759 c -0.0265,0.0324 -0.0495,0.0423 -0.0863,0.0639 -0.0876,0.0504 -0.15885,0.12516 -0.22492,0.20136 -0.0683,0.0784 -0.15111,0.13878 -0.21645,0.22013 -0.095,0.11633 -0.21498,0.22216 -0.29909,0.3464 -0.0467,0.0683 -0.0777,0.14817 -0.12866,0.21351 -0.0267,0.0339 -0.0482,0.069 -0.0698,0.10712 -0.0274,0.0475 -0.0569,0.0935 -0.0813,0.14246 -0.0322,0.0648 -0.0467,0.13363 -0.0755,0.19989 -0.0237,0.0547 -0.0287,0.12147 -0.0589,0.17246 -0.0208,0.0353 -0.0418,0.0633 -0.0576,0.10141 -0.0129,0.0331 -0.023,0.0676 -0.0359,0.10142 -0.0554,0.15166 -0.11356,0.3048 -0.16252,0.45941 -0.0223,0.069 -0.0344,0.14228 -0.048,0.21351 -0.0158,0.0819 -0.0403,0.16105 -0.0497,0.24442 -0.0101,0.0965 -0.0431,0.18627 -0.0596,0.28125 -0.005,0.0302 -0.004,0.0639 -0.0109,0.0948 -0.01,0.0445 -0.0324,0.0841 -0.0359,0.13086 -0.0109,0.1316 -0.0418,0.26467 -0.0747,0.3926 -0.0165,0.0618 -0.0165,0.12442 -0.021,0.18902 -0.004,0.0799 -0.0129,0.14173 -0.0409,0.21793 -0.0791,0.21203 -0.18405,0.41339 -0.26467,0.6234 -0.0107,0.028 -0.0166,0.0567 -0.0265,0.0841 -0.007,0.0208 -0.0223,0.0475 -0.0274,0.0661 -0.0151,0.051 -0.028,0.10492 -0.0445,0.15756 -0.026,0.0847 -0.0784,0.16602 -0.12644,0.24148 -0.0455,0.072 -0.10216,0.14246 -0.18204,0.18056 -0.025,0.0121 -0.0574,0.0171 -0.0849,0.0236 -0.0423,0.0116 -0.0782,0.0339 -0.12073,0.0433 -0.0403,0.009 -0.0841,0.0201 -0.12222,0.023 -0.0985,0.006 -0.041,-0.0762 -0.0129,-0.12369 0.0554,-0.095 0.15958,-0.14596 0.2286,-0.22786 0.0302,-0.0361 0.0475,-0.0814 0.0733,-0.12019 0.0388,-0.0574 0.0683,-0.1178 0.0979,-0.18038 0.0589,-0.12221 0.13087,-0.24019 0.18682,-0.36388 0.0769,-0.1697 0.0985,-0.35946 0.15608,-0.53487 0.0237,-0.072 0.0539,-0.13878 0.074,-0.2113 0.023,-0.0821 0.0512,-0.16252 0.0755,-0.24462 0.0188,-0.0624 0.0468,-0.11927 0.0611,-0.18405 0.0138,-0.0646 0.0302,-0.1294 0.049,-0.19326 0.0346,-0.11725 0.0438,-0.23946 0.074,-0.35671 0.0331,-0.12865 0.0569,-0.25584 0.0836,-0.38468 0.0144,-0.0718 0.051,-0.14154 0.0775,-0.20982 0.0296,-0.0755 0.0576,-0.15314 0.0907,-0.22732 0.0265,-0.0624 0.0661,-0.11927 0.094,-0.18185 0.0274,-0.0604 0.044,-0.12589 0.0705,-0.18553 0.0403,-0.0906 0.0762,-0.18258 0.12369,-0.2689 0.028,-0.0503 0.0525,-0.10124 0.0819,-0.15167 0.0374,-0.0626 0.0497,-0.14099 0.0755,-0.2078 0.049,-0.12295 0.11154,-0.23946 0.16841,-0.35726 0.0567,-0.11798 0.10197,-0.24314 0.16952,-0.35523 0.0539,-0.0906 0.1281,-0.16602 0.19491,-0.24664 0.0344,-0.0416 0.0769,-0.0705 0.11651,-0.10565 0.051,-0.0445 0.0928,-0.097 0.15092,-0.13233 0.0504,-0.0302 0.097,-0.0517 0.14099,-0.0906 0.0396,-0.0351 0.0683,-0.0388 0.11706,-0.0561 0.0447,-0.0151 0.0836,-0.0453 0.12663,-0.0604 0.0201,-0.008 0.0339,-0.005 0.0561,-0.008 0.0337,-0.004 0.0646,-0.0201 0.0977,-0.028 0.1143,-0.026 0.23504,-0.0374 0.35155,-0.0482 0.0539,-0.005 0.10786,-0.003 0.16105,-0.009 0.0302,-0.003 0.0582,-0.0158 0.0884,-0.0193 0.0388,-0.005 0.0848,0 0.12442,0 0.15608,0 0.30627,0.0712 0.44873,0.13086 0.0475,0.0193 0.0898,0.0517 0.13657,0.0725 0.0374,0.0166 0.0683,0.026 0.0992,0.0547 0.0525,0.0489 0.11651,0.0893 0.15682,0.14963 0.0545,0.0812 0.13583,0.13731 0.19252,0.21572 0.0346,0.048 0.072,0.092 0.0972,0.14578 0.0309,0.067 0.0856,0.13031 0.10786,0.19859 0.0344,0.10418 0.0567,0.21204 0.0963,0.31548 0.0468,0.12166 0.0655,0.25179 0.1143,0.37253 0.0849,0.2078 0.11154,0.44211 0.18203,0.69519 0.0488,0.17614 0.10639,0.35449 0.13933,0.53432 0.0317,0.17099 0.0519,0.34511 0.09,0.51462 0.0151,0.0663 0.0366,0.1316 0.0495,0.1986 0.0144,0.071 0.0188,0.14651 0.0281,0.21922 0.0171,0.13583 0.0394,0.27111 0.0574,0.40621 0.0121,0.0906 0.0489,0.17762 0.0648,0.26817 0.0144,0.0791 0.0287,0.16032 0.048,0.23873 0.0188,0.0769 0.0532,0.1489 0.0648,0.22712 0.0136,0.0957 0.0114,0.0727 0.0561,0.2021 0.0624,0.18479 0.1846,0.33351 0.27958,0.50119 0.0339,0.0589 0.0812,0.10565 0.11724,0.16308 0.0287,0.0453 0.0574,0.0935 0.0812,0.14172 0.0252,0.0547 0.0482,0.11724 0.0512,0.17761 0.002,0.0552 -0.0173,0.0668 -0.0677,0.0631 -0.0351,-0.002 -0.0604,0 -0.0906,-0.0186 -0.0403,-0.026 -0.0856,-0.0676 -0.11651,-0.10289 -0.0668,-0.0747 -0.10786,-0.17173 -0.16178,-0.25511 -0.0775,-0.11871 -0.27664,-0.23375 -0.3256,-0.36682 -0.0237,-0.0661 -0.0611,-0.12866 -0.0826,-0.19474 -0.008,-0.0252 -0.007,-0.0517 -0.0116,-0.0777 -0.006,-0.0425 -0.0223,-0.0841 -0.0316,-0.12516 -0.0409,-0.18258 -0.0503,-0.36885 -0.10417,-0.54775 -0.0208,-0.069 -0.0195,-0.13731 -0.0351,-0.20633 -0.0145,-0.0606 0.0164,-0.11375 0.0107,-0.17559 -0.0114,-0.11854 -0.0331,-0.23652 -0.0561,-0.35284 -0.0236,-0.1224 -0.0473,-0.23744 -0.0574,-0.36168 -0.004,-0.0482 -0.006,-0.0972 -0.018,-0.14393 -0.006,-0.0258 0.041,-0.0539 0.0374,-0.0812 -0.004,-0.0287 -0.0589,-0.0589 -0.0611,-0.0883 -0.003,-0.0418 -0.0114,-0.0828 -0.0158,-0.12442 -0.01,-0.12074 -0.025,-0.25106 -0.0567,-0.36812 -0.0359,-0.1316 -0.0497,-0.27185 -0.10565,-0.39756 -0.0217,-0.0467 -0.0353,-0.09 -0.0519,-0.13878 -0.0158,-0.0445 -0.0423,-0.0814 -0.0502,-0.1294 -0.006,-0.0425 0.046,-0.0791 0.0272,-0.11871 -0.025,-0.0532 -0.0999,-0.10933 -0.12718,-0.16032 -0.0208,-0.0388 -0.0302,-0.0812 -0.0503,-0.12147 -0.0173,-0.0339 -0.0281,-0.0742 -0.0418,-0.11007 -0.0351,-0.0928 -0.004,-0.19989 -0.0166,-0.29762 -0.0107,-0.0819 -0.0431,-0.14817 -0.0641,-0.22584 -0.0129,-0.0473 -0.023,-0.0698 -0.048,-0.11136 -0.0317,-0.0532 -0.0712,-0.0734 -0.11725,-0.11209 -0.0359,-0.0304 -0.0675,-0.0655 -0.10418,-0.0942 -0.0324,-0.0252 -0.0677,-0.0425 -0.0979,-0.0683 -0.13804,-0.11945 -0.32486,-0.19197 -0.50174,-0.23652 -0.0517,-0.0123 -0.10068,-0.008 -0.15038,-0.023 -0.0819,-0.0245 -0.17743,-0.0173 -0.26228,-0.023 -0.0512,-0.003 -0.0957,-0.008 -0.14466,0.002 -0.0453,0.009 -0.0926,0.0245 -0.13731,0.0381 -0.0589,0.018 -0.11927,0.049 -0.17688,0.0712 -0.0725,0.0295 -0.10343,0.10712 -0.28105,0.17835"
       style="fill:#21201d;fill-opacity:1;fill-rule:nonzero;stroke:none;stroke-width:0.184057"
       id="path616" />
  </g>
</svg>
