<?xml version="1.0" encoding="UTF-8" standalone="no"?>
<!-- Created with Inkscape (http://www.inkscape.org/) -->

<svg
   width="6.6966314mm"
   height="7.4406075mm"
   viewBox="0 0 6.6966314 7.4406075"
   version="1.1"
   id="svg3849"
   inkscape:version="1.1.2 (0a00cf5339, 2022-02-04)"
   sodipodi:docname="re4.svg"
   xmlns:inkscape="http://www.inkscape.org/namespaces/inkscape"
   xmlns:sodipodi="http://sodipodi.sourceforge.net/DTD/sodipodi-0.dtd"
   xmlns="http://www.w3.org/2000/svg"
   xmlns:svg="http://www.w3.org/2000/svg">
  <sodipodi:namedview
     id="namedview3851"
     pagecolor="#ffffff"
     bordercolor="#666666"
     borderopacity="1.0"
     inkscape:pageshadow="2"
     inkscape:pageopacity="0.0"
     inkscape:pagecheckerboard="0"
     inkscape:document-units="mm"
     showgrid="false"
     inkscape:zoom="0.64052329"
     inkscape:cx="12.489788"
     inkscape:cy="14.831623"
     inkscape:window-width="2560"
     inkscape:window-height="1376"
     inkscape:window-x="0"
     inkscape:window-y="0"
     inkscape:window-maximized="1"
     inkscape:current-layer="layer1" />
  <defs
     id="defs3846" />
  <g
     inkscape:label="Layer 1"
     inkscape:groupmode="layer"
     id="layer1"
     transform="translate(-101.57223,-144.77928)">
    <path
       d="m 101.82945,146.11454 c -0.004,-0.003 -0.009,-0.006 -0.0136,-0.009 -0.0359,0.0173 -0.046,0.0574 -0.0639,0.0871 -0.021,0.0337 -0.041,0.0631 -0.0583,0.0992 -0.0215,0.0468 -0.0517,0.0955 -0.0653,0.14375 -0.0131,0.0453 -0.0123,0.0985 -0.0188,0.14522 -0.0101,0.0661 -0.0316,0.13013 -0.0351,0.19566 -0.005,0.0797 0,0.16031 0,0.24 0,0.14026 0.0366,0.28327 0.0913,0.41561 0.0403,0.0977 0.14872,0.20283 0.27314,0.20927 0.0346,0.002 0.0668,-0.004 0.10068,0.004 0.0339,0.006 0.0539,0.0144 0.0913,0.0123 0.0668,-0.003 0.12736,-0.023 0.19123,-0.0403 0.10068,-0.0274 0.2194,-0.0576 0.26026,-0.1524 0.0158,-0.0374 0.0252,-0.10362 0.0144,-0.14522 -0.008,-0.0339 -0.0423,-0.0791 -0.0596,-0.11154 -0.0302,-0.0567 -0.0611,-0.0977 -0.10638,-0.14522 -0.0366,-0.0381 -0.0596,-0.0848 -0.0906,-0.12792 -0.0532,-0.0762 -0.10859,-0.15314 -0.16822,-0.22511 -0.0742,-0.0891 -0.0977,-0.18608 -0.12295,-0.29394 -0.0202,-0.0856 -0.0173,-0.16767 -0.0188,-0.25676 0,-0.0626 0.0346,-0.12295 0.0158,-0.187 -0.0251,-0.004 -0.0683,0.0418 -0.0884,0.0547 -0.0309,0.0203 -0.0532,0.0396 -0.0727,0.067 -0.0173,0.025 -0.0237,0.0596 -0.0409,0.0826 -0.0131,0.0173 -0.0353,0.0344 -0.0145,-0.0611"
       style="fill:#21201d;fill-opacity:1;fill-rule:evenodd;stroke:none;stroke-width:0.184057"
       id="path618" />
    <path
       d="m 101.62957,147.59271 c 0.0324,0.006 0.0512,0.0431 0.0764,0.0604 0.0351,0.0237 0.0755,0.0396 0.1143,0.0539 0.0258,0.0101 0.0453,0.0144 0.074,0.0144 0.0208,0 0.0497,-0.008 0.0633,0.009 0.0245,0.0302 -0.0446,0.0913 -0.0596,0.11577 -0.0403,0.0661 -0.0482,0.1351 -0.0497,0.21277 -7.1e-4,0.0403 0.0158,0.0834 0.0346,0.12093 0.0151,0.0322 0.0438,0.069 0.0545,0.10049 -0.0287,0.0138 -0.0733,-0.008 -0.0985,-0.0201 -0.0337,-0.0151 -0.0646,-0.0418 -0.0913,-0.0648 -0.0324,-0.0287 -0.0762,-0.0574 -0.0999,-0.0883 -0.0173,-0.0215 -0.0438,-0.0683 -0.0517,-0.0928 -0.006,-0.0193 0.002,-0.0337 -10e-4,-0.0517 -0.005,-0.018 -0.0166,-0.0309 -0.0208,-0.0482 -0.006,-0.0324 0.005,-0.069 0.0193,-0.0977 0.0109,-0.0223 0.0252,-0.0418 0.0403,-0.0626 0.0129,-0.0151 0.0324,-0.0316 0.0423,-0.0482 0.0116,-0.0201 0.0166,-0.0438 -0.046,-0.11283"
       style="fill:#21201d;fill-opacity:1;fill-rule:nonzero;stroke:none;stroke-width:0.184057"
       id="path620" />
    <path
       d="m 102.59586,145.40776 c -0.0366,-0.008 -0.0589,0.0193 -0.0841,0.0374 -0.0718,0.0525 -0.10915,0.0863 -0.13436,0.16602 -0.0267,0.0828 -0.0733,0.16179 -0.0935,0.2459 -0.0151,0.064 -0.0223,0.13013 -0.0309,0.19565 -0.0178,0.14302 -0.0114,0.30131 -0.005,0.44579 0.004,0.0869 0.064,0.2078 0.12442,0.27535 0.071,0.0797 0.13657,0.16381 0.22418,0.22934 0.0561,0.041 0.12295,0.0784 0.19068,0.10491 0.051,0.0208 0.10491,0.0195 0.15811,0.0295 0.0502,0.0109 0.0999,0.0245 0.14945,0.0361 0.0539,0.0129 0.10215,0.0179 0.15755,0.0171 0.0977,-0.002 0.19271,-0.0841 0.27388,-0.12865 0.0433,-0.0237 0.0885,-0.048 0.12663,-0.0784 0.0166,-0.0157 0.0344,-0.0309 0.0517,-0.0453 0.0173,-0.0144 0.0294,-0.0309 0.0366,-0.0503 0.026,-0.0195 0.0203,-0.028 0.0589,-0.004 0.0749,0.0497 0.10786,0.14467 0.18056,0.19124 0.0339,0.0217 0.0942,0.0368 0.1316,0.0512 0.0762,0.0294 0.15166,0.0475 0.23504,0.0495 0.0618,0 0.12369,-0.002 0.18553,-0.002 0.0856,0 0.18332,0.0123 0.26817,-0.003 0.0445,-0.008 0.092,-0.026 0.13436,-0.041 0.0203,-0.007 0.0626,-0.0374 0.0828,-0.0352 0.0473,0.0589 0.0396,0.15019 0.0618,0.217 0.0265,0.0769 0.0646,0.14099 0.12424,0.20284 0.0554,0.0561 0.0992,0.0942 0.18056,0.12221 0.0733,0.0252 0.14816,0.0504 0.22436,0.0676 0.0782,0.018 0.1581,0.0339 0.23799,0.0447 0.0762,0.0107 0.15663,0.008 0.23209,0.0223 0.0101,0.0898 -0.009,0.18037 0.0109,0.27019 0.0186,0.0885 0.0475,0.19915 0.11651,0.26689 0.0992,0.0963 0.21995,0.16528 0.36167,0.20265 0.0374,0.0101 0.0646,0.0129 0.0582,0.051 -0.007,0.0396 -0.0604,0.0813 -0.0784,0.11945 -0.0482,0.0977 -0.10215,0.19124 -0.10491,0.30057 -10e-4,0.051 0.008,0.10068 0.0201,0.15019 0.004,0.0195 0.013,0.0309 0.018,0.049 0.006,0.0201 7e-4,0.0517 -7.1e-4,0.0733 -7.1e-4,0.0267 -0.0129,0.0324 -0.0188,0.0554 -0.0151,0.0539 0.021,0.12296 -0.003,0.17468 -0.0281,0 -0.026,0.0131 -0.0418,0.026 -0.0416,0.0316 -0.0935,0.0547 -0.13878,0.0849 -0.0631,0.0431 -0.12,0.0883 -0.14227,0.1581 -0.023,0.0735 -0.0245,0.13952 -0.0116,0.21572 0.008,0.0445 0.0539,0.11578 0.008,0.15388 -0.0295,0.0245 -0.10712,0.0316 -0.14374,0.0468 -0.0359,0.0151 -0.0698,0.0324 -0.10068,0.0554 -0.0963,0.0733 -0.18756,0.13086 -0.22934,0.23927 -0.0309,0.0806 -0.0302,0.18995 -0.0144,0.27406 0.004,0.023 0.0641,0.10786 0.0547,0.1329 -0.004,0.0109 -0.0331,0.0223 -0.0453,0.0282 -0.095,0.0488 -0.20283,0.0683 -0.30424,0.10565 -0.0366,0.0136 -0.0812,0.0302 -0.11062,0.0561 -0.0166,0.0144 -0.0561,0.046 -0.0683,0.0639 -0.0433,0.0641 7.1e-4,0.15958 -0.0841,0.19492 -0.0583,0.0245 -0.12442,0.0272 -0.18332,0.0482 -0.0504,0.0178 -0.0705,0.0545 -0.0992,0.0933 -0.0252,0.0339 -0.0841,0.10068 -0.0756,0.1467 0.004,0.0173 0.0173,0.0252 0.0203,0.046 0.0114,0.0777 -0.004,0.16031 0.001,0.23872 0.004,0.0668 0.009,0.14522 0.0453,0.20486 0.0401,0.0685 0.13012,0.0836 0.20706,0.1051 0.0856,0.0237 0.16178,0.0215 0.24148,-0.006 0.0821,-0.0272 0.18332,-0.0201 0.26964,-0.0287 0.15535,-0.0151 0.27977,-0.0604 0.37032,-0.17541 0.0351,-0.0445 0.0396,-0.0791 0.10639,-0.0804 0.10068,-0.002 0.19418,-0.003 0.29338,-0.018 0.0955,-0.0158 0.20633,-0.0668 0.2875,-0.11356 0.0863,-0.0504 0.17688,-0.0747 0.22068,-0.164 0.0245,-0.0502 0.041,-0.11006 0.0519,-0.16326 0.009,-0.0423 0,-0.0775 0.0193,-0.11927 0.0121,-0.026 0.018,-0.0366 0.0482,-0.0482 0.0532,-0.0208 0.10638,-0.0344 0.1581,-0.0611 0.0433,-0.0201 0.092,-0.0316 0.13013,-0.0589 0.0747,-0.051 0.14319,-0.11945 0.20136,-0.18479 0.11798,-0.13086 0.19344,-0.28253 0.28621,-0.42628 0.0366,-0.0576 0.071,-0.0986 0.0718,-0.16694 0,-0.0193 -0.0121,-0.0618 0.001,-0.0782 0.0302,-0.0396 0.0957,-0.0123 0.12074,-0.067 0.0195,-0.0423 0.0223,-0.0935 0.0396,-0.13731 0.0223,-0.0554 0.0445,-0.10859 0.0611,-0.16528 0.0216,-0.0777 0.0166,-0.16749 0.0136,-0.24738 -0.002,-0.0574 -0.0315,-0.12 -0.074,-0.16178 -0.0136,-0.0136 -0.0316,-0.0245 -0.0331,-0.0423 -0.003,-0.0267 0.0396,-0.0849 0.0554,-0.10657 0.0655,-0.0854 0.10289,-0.18756 0.15166,-0.2818 0.0561,-0.10712 0.0828,-0.22068 0.0814,-0.33866 0,-0.0567 0.006,-0.11357 -0.0101,-0.16897 -0.0129,-0.0453 -0.097,-0.0883 -0.11651,-0.13142 0.0237,-0.004 0.0475,0 0.0626,-0.0223 0.026,-0.0376 0.0965,-0.11301 0.1108,-0.14964 0.0488,-0.13086 0.0683,-0.26449 0.0129,-0.43216 -0.0423,-0.13013 -0.17246,-0.26229 -0.28695,-0.35082 -0.0517,-0.0403 -0.1084,-0.0482 -0.1638,-0.0784 -0.0339,-0.0186 -0.0633,-0.0396 -0.10142,-0.0532 -0.0158,-0.006 -0.0423,-0.009 -0.0525,-0.023 -0.009,-0.0121 -0.001,-0.0295 7.1e-4,-0.0431 0.009,-0.0497 0.0295,-0.0985 0.0388,-0.14964 0.0107,-0.0596 0.0237,-0.11853 0.0359,-0.17817 0.0346,-0.17044 0.009,-0.3337 -0.0784,-0.49033 -0.0834,-0.1489 -0.20412,-0.25823 -0.39038,-0.2978 -0.0755,-0.0158 -0.1294,-0.0446 -0.20062,-0.0711 -0.0683,-0.0245 -0.12222,-0.0166 -0.18903,-0.0245 -0.0151,-0.0497 0.005,-0.10288 -7.1e-4,-0.15313 -0.006,-0.0561 -0.0468,-0.11945 -0.0747,-0.1697 -0.0346,-0.0611 -0.0863,-0.11283 -0.13657,-0.16326 -0.0576,-0.0574 -0.12019,-0.12295 -0.19197,-0.16602 -0.13455,-0.0806 -0.2978,-0.17467 -0.46309,-0.18406 -0.1581,-0.009 -0.30995,-0.049 -0.47026,-0.0475 -0.0351,0 -0.0703,0 -0.10491,0 -0.0201,0 -0.0396,0.005 -0.0574,0.0116 -0.0418,-0.0109 -0.0836,-0.0841 -0.10859,-0.11154 -0.0942,-0.10988 -0.22142,-0.1581 -0.36609,-0.19989 -0.0834,-0.0237 -0.17246,-0.0388 -0.25381,-0.0683 -0.0688,-0.0252 -0.13731,-0.0525 -0.21204,-0.0626 -0.0935,-0.0121 -0.2135,0.002 -0.29761,0.0381 -0.0216,0.009 -0.0396,0.026 -0.0604,0.0361 -0.0504,0.0243 -0.0433,0.0151 -0.10933,-0.007 -0.12516,-0.0425 -0.26247,-0.072 -0.39683,-0.0705 -0.15387,0.002 -0.32431,0.0295 -0.4594,0.0935 -0.0755,0.0359 -0.17615,0.0488 -0.23449,0.10841 -0.0388,0.0388 -0.0539,0.0871 -0.0769,0.13381 -0.0171,0.0339 -0.0416,0.0633 -0.051,0.0985 -0.0158,0.0596 0.018,0.0871 -0.0589,0.1259 -0.0245,0.0129 -0.0425,0.0173 -0.0633,0.0352 -0.0151,0.0136 -0.0173,0.0287 -0.004,0.0324"
       style="fill:#21201d;fill-opacity:1;fill-rule:nonzero;stroke:none;stroke-width:0.184057"
       id="path622" />
    <path
       d="m 104.58385,151.7053 c 0,0.0302 0.005,0.0646 -0.004,0.0928 -0.004,0.0121 -0.0123,0.0201 -0.0144,0.0352 -0.002,0.0158 0,0.0331 0,0.049 7.1e-4,0.069 0.0144,0.11283 0.0374,0.17688 0.008,0.0223 0.0287,0.0547 7.1e-4,0.0653 -0.023,0.009 -0.0849,-0.002 -0.1108,-0.002 -0.0841,0 -0.17467,-0.006 -0.24664,-0.0388 -0.17025,-0.0777 -0.40897,-0.15019 -0.49032,-0.32136 -0.0171,-0.0352 -0.0446,-0.0777 -0.048,-0.11504 -0.004,-0.0453 -0.0245,-0.097 -0.018,-0.14228 0.009,-0.0663 0.0554,-0.12865 0.0963,-0.18405 0.0447,-0.002 0.044,0.0797 0.0539,0.10712 0.0101,0.0257 0.0353,0.0431 0.0554,0.0641 0.0158,0.0164 0.0216,0.0352 0.0352,0.0525 0.0165,0.0201 0.0455,0.0351 0.0655,0.0524 0.0265,0.0223 0.0517,0.0445 0.0777,0.0661 0.0641,0.0525 0.13657,0.0906 0.21847,0.1143 0.0677,0.0195 0.19197,0.0188 0.29191,-0.0725"
       style="fill:#21201d;fill-opacity:1;fill-rule:nonzero;stroke:none;stroke-width:0.184057"
       id="path624" />
    <path
       d="m 103.43498,147.23895 c -0.004,0.0267 0.0158,0.0468 0.0188,0.0727 0.003,0.0237 0.001,0.0409 0.009,0.0639 0.0186,0.0611 -7.1e-4,0.11871 0.0387,0.17688 0.0388,0.0576 0.0569,0.12442 0.0972,0.18203 0.01,0.0129 0.0252,0.0223 0.0344,0.0359 0.005,0.008 10e-4,0.0193 0.007,0.0272 0.0158,0.026 0.0497,0.0425 0.0633,0.069 -0.0101,0.018 -0.0812,0.0289 -0.10417,0.0324 -0.0282,0.004 -0.0619,-0.002 -0.09,-0.002 -0.0755,0 -0.15167,-0.006 -0.22069,-0.0344 -0.0258,-0.0116 -0.0482,-0.0381 -0.0725,-0.0539 -0.0295,-0.0195 -0.0554,-0.0403 -0.0821,-0.0641 -0.0431,-0.0381 -0.0747,-0.0804 -0.10196,-0.12645 -0.0217,-0.0361 -0.0504,-0.0742 -0.0309,-0.11872 0.0171,-0.0381 0.0668,-0.0769 0.10565,-0.0999 0.0503,-0.0302 0.10639,-0.0475 0.15958,-0.0683 0.0245,-0.0101 0.0403,-0.009 0.0683,-0.0114 0.0374,-0.004 0.0611,-0.0173 0.10068,-0.0814"
       style="fill:#21201d;fill-opacity:1;fill-rule:nonzero;stroke:none;stroke-width:0.184057"
       id="path626" />
    <path
       d="m 103.87285,147.27134 c 0.004,0 0.009,0.002 0.0151,0.003 0.0158,0.0387 0.003,0.1 0.003,0.14155 0,0.0676 7e-4,0.12792 0.0158,0.19344 0.009,0.0396 0.0352,0.0547 0.0532,0.0913 0.0144,0.0287 0.0215,0.0539 0.0401,0.0804 0.0166,0.0245 0.0361,0.0455 0.0547,0.0685 0.0195,0.0236 0.0353,0.0251 0.0561,0.0423 -0.009,-0.0287 0.0188,-0.0784 0.0302,-0.10565 0.0188,-0.0438 0.0316,-0.0878 0.0453,-0.13307 0.0158,-0.0482 0.0445,-0.0935 0.064,-0.13952 0.009,-0.0223 0.0193,-0.0445 0.028,-0.0661 0.004,-0.0109 0.028,-0.0438 0.0287,-0.051 0.003,-0.0583 -0.13087,-0.1143 -0.17891,-0.13731 -0.0468,-0.0225 -0.22215,-0.0512 -0.25528,0.0121"
       style="fill:#21201d;fill-opacity:1;fill-rule:nonzero;stroke:none;stroke-width:0.184057"
       id="path628" />
    <path
       d="m 104.76644,147.41583 c -0.0567,0.008 -0.12424,0.0633 -0.16455,0.0957 -0.0596,0.0503 -0.0885,0.10713 -0.10417,0.17689 -0.0158,0.0675 -0.0418,0.12221 -0.041,0.19123 0,0.0567 -0.0123,0.12148 0.0173,0.1732 0.008,-0.0252 0.0933,-0.0826 0.11503,-0.0977 0.0445,-0.0316 0.0913,-0.0705 0.14081,-0.0935 0.0762,-0.0359 0.14963,-0.0769 0.22804,-0.10638 0.0295,-0.0109 0.0977,-0.0123 0.0977,-0.046 0,-0.0116 -0.0561,-0.0747 -0.0663,-0.0856 -0.056,-0.0539 -0.15663,-0.0957 -0.17172,-0.17265 -0.005,0 -0.0101,-0.002 -0.0512,-0.0351"
       style="fill:#21201d;fill-opacity:1;fill-rule:nonzero;stroke:none;stroke-width:0.184057"
       id="path630" />
  </g>
</svg>
