<?xml version="1.0" encoding="UTF-8" standalone="no"?>
<!-- Created with Inkscape (http://www.inkscape.org/) -->

<svg
   width="7.7372804mm"
   height="6.3607087mm"
   viewBox="0 0 7.7372804 6.3607087"
   version="1.1"
   id="svg464"
   inkscape:version="1.1.2 (0a00cf5339, 2022-02-04)"
   sodipodi:docname="re5.svg"
   xmlns:inkscape="http://www.inkscape.org/namespaces/inkscape"
   xmlns:sodipodi="http://sodipodi.sourceforge.net/DTD/sodipodi-0.dtd"
   xmlns="http://www.w3.org/2000/svg"
   xmlns:svg="http://www.w3.org/2000/svg">
  <sodipodi:namedview
     id="namedview466"
     pagecolor="#ffffff"
     bordercolor="#666666"
     borderopacity="1.0"
     inkscape:pageshadow="2"
     inkscape:pageopacity="0.0"
     inkscape:pagecheckerboard="0"
     inkscape:document-units="mm"
     showgrid="false"
     inkscape:zoom="0.64052329"
     inkscape:cx="-686.93833"
     inkscape:cy="553.45373"
     inkscape:window-width="2560"
     inkscape:window-height="1376"
     inkscape:window-x="0"
     inkscape:window-y="0"
     inkscape:window-maximized="1"
     inkscape:current-layer="layer1" />
  <defs
     id="defs461" />
  <g
     inkscape:label="Layer 1"
     inkscape:groupmode="layer"
     id="layer1"
     transform="translate(-286.5225,-2.1896025)">
    <path
       d="m 289.44925,5.3869585 c -0.009,0.040309 -0.007,0.085587 -0.0144,0.1266321 -0.008,0.044542 -0.0374,0.1078579 -0.0582,0.1474304 -0.0281,0.050984 -0.0539,0.066813 -0.10142,0.09479 -0.0287,0.016566 -0.0856,0.019509 -0.10362,0.046015 -0.007,0.012333 -0.0121,0.04399 -0.0144,0.058346 -0.009,0.045278 -0.0129,0.094054 -0.0129,0.1393321 -7e-4,0.1014158 0.004,0.2028317 -0.004,0.3049838 -0.0109,0.1185333 -0.0202,0.235042 -0.0289,0.3544954 -0.005,0.060371 -0.0265,0.1150363 -0.0394,0.1731987 -0.0158,0.068285 -0.008,0.1373071 -0.0101,0.2070651 -0.003,0.066813 -0.0144,0.1350987 -0.0151,0.2013595 0,0.061107 0.0114,0.1264476 0.004,0.1882913 -0.006,0.052456 -0.0166,0.1049129 -0.0193,0.1588417 -0.003,0.05761 0.007,0.099944 0.028,0.1531362 0.0208,0.055402 0.0353,0.1150363 0.0554,0.1704379 0.018,0.050432 0.0532,0.089268 0.0661,0.1424608 0.0188,0.077672 0.0863,0.1731984 0.0641,0.2558405 -0.0339,0.1229504 -0.15534,0.2063288 -0.27314,0.2330171 -0.0727,0.016566 -0.12018,0.00865 -0.17411,-0.04675 -0.0631,-0.065341 -0.0898,-0.1639958 -0.10197,-0.2508712 -0.0131,-0.09571 -0.0224,-0.1949171 -0.004,-0.2911796 0.004,-0.028896 0.0116,-0.048223 0.0101,-0.077672 -7.1e-4,-0.024479 -0.004,-0.040308 -0.001,-0.066261 0.006,-0.061107 0.0158,-0.1207417 0.0309,-0.1803767 0.0245,-0.099207 0.0351,-0.2028317 0.0596,-0.3033275 0.0101,-0.040309 0.018,-0.087059 0.0223,-0.1295767 0.004,-0.050984 -0.003,-0.1019679 -0.003,-0.1524 0,-0.038836 0.009,-0.073255 0.004,-0.1120912 -0.004,-0.040309 -0.009,-0.075464 -0.007,-0.1157725 10e-4,-0.033867 0.0158,-0.058898 0.018,-0.091292 0.002,-0.030921 -0.003,-0.044542 0.006,-0.076936 0.006,-0.018775 0.005,-0.032396 0.006,-0.052457 0.002,-0.045278 0.004,-0.093501 0.008,-0.1387796 0.008,-0.082642 0.0116,-0.1632596 0.0267,-0.2466376 0.0178,-0.099207 0.0315,-0.1976783 0.0114,-0.2998304 -0.0245,-0.123687 -0.0302,-0.2486621 -0.0942,-0.3602012 -0.0186,-0.031658 -0.0337,-0.069022 -0.0589,-0.095526 -0.0272,-0.030921 -0.069,-0.051904 -0.0963,-0.083562 -0.021,-0.025033 -0.0138,-0.046015 -0.0217,-0.07031 -0.0151,-0.044726 -0.0567,-0.034604 -0.0869,-0.018037 -0.0985,0.053193 -0.19418,0.1452217 -0.31068,0.1085942 -0.0431,-0.014358 -0.10142,-0.035339 -0.13657,0.00222 -0.0416,0.044542 -0.0309,0.1235029 -0.0309,0.1781679 0,0.073439 0.0101,0.1496392 0.0302,0.2208696 0.0101,0.036627 0.0366,0.068837 0.0547,0.101968 0.0237,0.043806 0.0245,0.094974 0.0453,0.1387799 0.0202,0.040308 0.0223,0.065525 0.0166,0.1115388 -0.006,0.04307 -0.0309,0.079697 -0.0569,0.1128275 -0.0495,0.06258 -0.12424,0.173935 -0.21056,0.1811133 -0.0826,0.00644 -0.13381,-0.099944 -0.1524,-0.1682291 -0.0202,-0.074727 -0.0561,-0.1487188 -0.0675,-0.2251029 -0.0138,-0.088348 -0.0145,-0.1789042 -0.026,-0.2674359 -0.0101,-0.071047 -0.0101,-0.1400683 -0.0188,-0.2105625 -0.007,-0.056874 7.1e-4,-0.1122754 0.0138,-0.1674925 0.0208,-0.090741 0.0438,-0.1833217 0.0453,-0.2753508 7.1e-4,-0.032396 -0.004,-0.064052 -0.005,-0.096446 -7e-4,-0.041597 0.0151,-0.079145 0.0124,-0.1207421 -0.004,-0.050432 -0.0124,-0.099943 -0.0166,-0.1489029 -0.009,-0.111355 -0.0166,-0.2328333 0.0237,-0.3392188 0.0396,0.085403 0.0935,0.1531363 0.16896,0.2019117 0.0374,0.023742 0.0777,0.050432 0.11854,0.067549 0.0203,0.00865 0.0388,0.00792 0.0598,0.014541 0.0322,0.00994 0.0624,0.035154 0.0948,0.048039 0.18259,0.07123 0.29634,0.2503187 0.47744,0.3228379 0.0396,0.016566 0.0747,0.028713 0.11136,0.052456 0.0353,0.023008 0.0762,0.033867 0.1108,0.053929 0.049,0.028162 0.0826,0.08209 0.14375,0.097183 0.0663,0.016383 0.13583,0.015092 0.20209,0.035154 0.0295,0.00939 0.0574,0.023008 0.0883,0.032396 0.0396,0.011412 0.0799,0.035154 0.13804,0.041597"
       style="fill:#21201d;fill-opacity:1;fill-rule:evenodd;stroke:none;stroke-width:0.184057"
       id="path124" />
    <path
       d="m 291.35607,5.1108718 c 0.009,0.030187 0.007,0.064788 0.0144,0.096446 0.007,0.033683 0.0352,0.081906 0.0559,0.111355 0.0267,0.038836 0.0519,0.051168 0.0979,0.071967 0.028,0.012884 0.0826,0.014358 0.0999,0.034421 0.008,0.00939 0.0121,0.033867 0.0151,0.044726 0.009,0.035154 0.0121,0.071783 0.0121,0.1063854 7e-4,0.077672 -0.004,0.1551609 0.004,0.2328334 0.01,0.091292 0.0193,0.1805608 0.028,0.2718533 0.004,0.046015 0.0252,0.08706 0.0381,0.1316017 0.0151,0.052456 0.007,0.1049129 0.0101,0.1588417 0.002,0.050984 0.0136,0.1028883 0.0136,0.1531362 7.1e-4,0.047487 -0.0116,0.096999 -0.004,0.1444854 0.006,0.040309 0.0158,0.080617 0.0188,0.1214784 0.002,0.04399 -0.007,0.076936 -0.0274,0.1172449 -0.0201,0.042518 -0.0337,0.088532 -0.0532,0.1308651 -0.0179,0.0381 -0.0517,0.069022 -0.0639,0.1100666 -0.0188,0.059635 -0.0841,0.13289 -0.0626,0.1962059 0.0324,0.093501 0.1502,0.1560812 0.26449,0.1754071 0.0712,0.011596 0.11651,0.0057 0.16823,-0.036628 0.0618,-0.050984 0.0878,-0.1264479 0.0994,-0.193445 0.0129,-0.072519 0.0215,-0.1487188 0.005,-0.2221579 -0.005,-0.022271 -0.0123,-0.037364 -0.0109,-0.059635 10e-4,-0.018775 0.004,-0.030921 10e-4,-0.050248 -0.006,-0.047487 -0.0151,-0.092029 -0.0295,-0.1380433 -0.0237,-0.076384 -0.0339,-0.1546087 -0.0582,-0.231545 -0.009,-0.030921 -0.018,-0.066997 -0.021,-0.098471 -0.004,-0.040309 0.003,-0.078409 0.002,-0.117245 0,-0.02945 -0.009,-0.056138 -0.004,-0.086323 0.004,-0.030187 0.009,-0.057426 0.008,-0.088348 -0.002,-0.025216 -0.0156,-0.044726 -0.0179,-0.069022 -0.002,-0.023742 0.002,-0.033867 -0.006,-0.059082 -0.005,-0.014358 -0.004,-0.025033 -0.006,-0.040125 -0.002,-0.034604 -0.004,-0.07123 -0.008,-0.1065696 -0.007,-0.062396 -0.0107,-0.1242391 -0.025,-0.1882912 -0.0173,-0.075464 -0.0309,-0.1509275 -0.0116,-0.2293362 0.0238,-0.094238 0.0295,-0.1897638 0.092,-0.2760871 0.018,-0.024479 0.0324,-0.053192 0.0569,-0.073991 0.0265,-0.023008 0.0668,-0.039573 0.0928,-0.064052 0.0208,-0.019509 0.0129,-0.035154 0.0208,-0.053929 0.0151,-0.034604 0.0554,-0.027241 0.0849,-0.015092 0.0955,0.040309 0.18829,0.1100667 0.30056,0.080433 0.0416,-0.010675 0.0985,-0.027241 0.13289,7.408e-4 0.0403,0.033867 0.0302,0.094238 0.0302,0.1360187 0,0.055954 -0.01,0.1150363 -0.0294,0.1695175 -0.01,0.028162 -0.0366,0.05264 -0.0539,0.078408 -0.0223,0.033129 -0.023,0.072703 -0.0438,0.1063858 -0.0186,0.030921 -0.0208,0.050432 -0.0151,0.085587 0.005,0.033129 0.0295,0.060371 0.0554,0.085587 0.0482,0.047487 0.11927,0.1323375 0.20339,0.1365708 0.0799,0.00442 0.12939,-0.076936 0.14743,-0.1293925 0.0195,-0.057426 0.0547,-0.1143 0.0661,-0.1731987 0.013,-0.067549 0.013,-0.1365709 0.0252,-0.2043042 0.009,-0.055218 0.009,-0.1078579 0.018,-0.1617871 0.006,-0.043806 -0.001,-0.085403 -0.0136,-0.12792 -0.0195,-0.069022 -0.0418,-0.1402521 -0.044,-0.21001 0,-0.025033 0.004,-0.048775 0.005,-0.073992 0.001,-0.031658 -0.0144,-0.060371 -0.0123,-0.092029 0.004,-0.0381 0.0123,-0.0762 0.0158,-0.1143 0.009,-0.084851 0.0166,-0.1783521 -0.0223,-0.2595217 -0.0381,0.066077 -0.0906,0.1179812 -0.16399,0.1560812 -0.0366,0.018588 -0.0755,0.038836 -0.11485,0.053193 -0.0195,0.00644 -0.0376,0.00644 -0.0576,0.011412 -0.0324,0.00792 -0.0604,0.027425 -0.092,0.037364 -0.17688,0.056138 -0.28768,0.1941812 -0.46235,0.251055 -0.0388,0.012883 -0.0725,0.023008 -0.10786,0.040861 -0.0344,0.018038 -0.074,0.026688 -0.10786,0.042517 -0.0473,0.022271 -0.0797,0.063132 -0.13859,0.075464 -0.064,0.012883 -0.13234,0.012883 -0.19639,0.028713 -0.0287,0.00644 -0.0561,0.018038 -0.0856,0.025217 -0.0388,0.00939 -0.0777,0.027975 -0.13363,0.033683"
       style="fill:#21201d;fill-opacity:1;fill-rule:nonzero;stroke:none;stroke-width:0.184057"
       id="path126" />
    <path
       d="m 293.02969,4.4997993 c -0.0129,0.014358 -0.004,0.02945 -0.004,0.04896 7.1e-4,0.031658 -7e-4,0.06534 -0.002,0.096262 -0.002,0.066077 0.008,0.1323379 0.0109,0.1991508 0.004,0.089268 -0.0151,0.1746709 -0.0316,0.2609942 -0.0136,0.066813 -0.004,0.1444854 7e-4,0.2120346 0.004,0.051904 0.004,0.1050971 0.0166,0.1560812 0.0107,0.045278 0.0473,0.071967 0.0624,0.1135638 0.0309,0.08209 -0.0144,0.1682287 -0.0359,0.24811 -0.006,0.023742 -10e-4,0.0381 -0.004,0.059635 -0.003,0.028162 -0.0202,0.040309 -0.0309,0.064052 -0.0109,0.023008 -0.004,0.044542 -0.009,0.067549 -0.006,0.027975 -0.0294,0.052456 -0.0431,0.079145 -0.049,0.09479 -0.0999,0.1825857 -0.15258,0.2746145 -0.0431,0.073991 -0.0898,0.1350987 -0.11356,0.2177405 -0.0166,0.054665 -0.028,0.1100666 0.003,0.1597624 0.0158,0.025767 0.0366,0.066077 0.0589,0.086139 0.0173,0.016566 0.0497,0.025954 0.0727,0.035339 0.0718,0.02945 0.12792,0.018588 0.16823,-0.048223 0.0173,-0.027975 0.0351,-0.050984 0.0445,-0.083378 0.004,-0.011596 0.005,-0.022271 0.009,-0.033867 0.0107,-0.031475 0.0114,-0.055954 0.0186,-0.086875 0.008,-0.035339 0.0346,-0.066997 0.0403,-0.1028883 0.006,-0.035154 0.004,-0.078409 0.006,-0.1157725 0.008,-0.085587 0.0166,-0.1717259 0.0309,-0.2573129 0.0281,-0.1739346 -0.0423,-0.359465 0.0131,-0.5276938 0.0129,-0.037548 0.0179,-0.078409 0.0236,-0.1165088 0.008,-0.047487 -0.0164,-0.098471 -0.0171,-0.1481666 -7.1e-4,-0.089084 -0.009,-0.1803767 -0.0195,-0.269645 -0.0114,-0.096998 -0.028,-0.1897638 -0.0547,-0.2817925 -0.009,-0.031658 -0.006,-0.072519 -0.0186,-0.1056492 -0.0166,-0.040309 -0.0143,-0.078409 -0.0433,-0.2013596"
       style="fill:#21201d;fill-opacity:1;fill-rule:nonzero;stroke:none;stroke-width:0.184057"
       id="path128" />
    <path
       d="m 287.24646,2.8548738 c 0.005,-0.018775 0.003,-0.0381 0.006,-0.056874 0.006,-0.025216 0.0171,-0.049695 0.0272,-0.073255 0.0116,-0.026688 0.0237,-0.051904 0.0445,-0.072703 0.026,-0.027975 0.0411,-0.027242 0.0777,-0.033129 0.0366,-0.0057 0.072,-0.015092 0.10712,-0.024479 0.0309,-0.00773 0.067,-0.00275 0.0849,0.053929 -0.0114,0.013067 -0.028,0.013804 -0.0423,0.020983 -0.0123,0.00644 -0.0252,0.018588 -0.0346,0.028713 -0.007,0.00865 -0.0201,0.022271 -0.0265,0.031658 -0.0116,0.018591 -0.004,0.025954 -0.009,0.047487 -0.003,0.011412 -0.0129,0.015092 -0.0158,0.026504 -0.004,0.014358 10e-4,0.036075 7e-4,0.051168 0,0.03442 0.007,0.048039 0.0216,0.077488 0.0208,0.042517 0.0589,0.084851 0.10638,0.096446 0.0792,0.019325 0.18406,0.00423 0.25529,-0.025217 0.041,-0.0173 0.0898,-0.027242 0.12792,-0.050984 0.041,-0.026688 0.0806,-0.055401 0.12147,-0.083378 0.0195,-0.012333 0.0381,-0.015829 0.0591,-0.024479 0.033,-0.012884 0.0611,-0.035339 0.0941,-0.048223 0.0346,-0.013621 0.0648,-0.020062 0.0957,-0.040861 0.0245,-0.0173 0.049,-0.034604 0.074,-0.050432 0.0604,-0.035891 0.13012,-0.071967 0.18479,-0.1165087 0.0532,-0.043806 0.11154,-0.094053 0.17043,-0.1293925 0.10786,-0.064052 0.24296,-0.074727 0.36388,-0.096999 0.0525,-0.00939 0.10565,-0.020246 0.15811,-0.02945 0.0747,-0.013067 0.15608,-0.020246 0.22786,-0.045278 0.13584,-0.046015 0.28621,-0.087795 0.42996,-0.094238 0.0734,-0.00442 0.14816,0 0.22215,0 0.11283,0 0.23081,-0.00939 0.3429,0.00148 0.0769,0.00718 0.15534,0.00994 0.23081,0.023742 0.0871,0.015646 0.16969,0.034421 0.25823,0.044542 0.11356,0.01215 0.22289,0.038836 0.33571,0.061843 0.1467,0.030187 0.2875,0.090557 0.43419,0.1222145 0.0475,0.00994 0.095,0.015092 0.14099,0.030187 0.0574,0.019325 0.0992,0.057426 0.15608,0.080433 0.0309,0.012333 0.0596,0.030921 0.0883,0.048223 0.0238,0.014355 0.046,0.020062 0.072,0.030921 0.0495,0.022271 0.0992,0.047487 0.14798,0.071967 0.049,0.024296 0.10639,0.050248 0.15038,0.081906 0.0381,0.026504 0.0596,0.058898 0.10141,0.079145 0.0582,0.027979 0.11927,0.066813 0.17172,0.1049132 0.0274,0.020062 0.0532,0.030921 0.0819,0.046014 0.0237,0.012883 0.0376,0.035891 0.0598,0.050984 0.1027,0.066261 0.22142,0.1150362 0.3313,0.1697013 0.0547,0.027425 0.14467,0.089084 0.15038,0.1575537 -0.0633,0.025033 -0.12866,-0.034604 -0.1813,-0.059083 -0.0223,-0.010675 -0.0445,-0.016567 -0.0653,-0.030184 -0.0366,-0.022271 -0.0653,-0.049512 -0.10565,-0.065341 -0.0547,-0.020983 -0.10289,-0.055401 -0.15387,-0.08485 -0.0561,-0.031658 -0.11872,-0.04896 -0.1754,-0.078409 -0.0339,-0.0173 -0.0705,-0.0208 -0.1051,-0.037364 -0.0374,-0.018037 -0.0661,-0.033129 -0.10491,-0.043806 -0.0596,-0.0173 -0.11725,-0.051905 -0.17688,-0.07123 -0.0561,-0.019512 -0.11007,-0.04307 -0.16602,-0.061843 -0.0589,-0.020062 -0.12221,-0.033129 -0.17982,-0.056874 -0.0913,-0.037364 -0.1848,-0.078961 -0.28253,-0.097735 -0.0374,-0.00718 -0.0705,-0.0208 -0.10638,-0.031658 -0.0374,-0.01215 -0.074,-0.013621 -0.11007,-0.021534 -0.006,-7.408e-4 -0.0243,-0.00865 -0.0316,-0.010858 -0.0164,-0.00497 -0.0322,-0.00994 -0.048,-0.015646 -0.0331,-0.013067 -0.0727,-0.021721 -0.10859,-0.028162 -0.0913,-0.014358 -0.0497,0.086323 -0.0151,0.1229504 0.0186,0.018038 0.0475,0.013621 0.069,0.023008 0.0101,0.00442 0.0201,0.0173 0.0316,0.023008 0.0136,0.00644 0.0287,0.00865 0.0423,0.0173 0.0202,0.012146 0.0445,0.028713 0.0569,0.049511 0.0166,0.028162 0.0316,0.074912 0.0396,0.1065696 0.004,0.016379 0.008,0.035154 0.0107,0.053929 -0.20191,-0.019512 -0.49033,-0.019512 -0.57297,0.094053 l 10e-4,7.408e-4 c 0.0841,0.054665 0.12442,0.061108 0.2229,0.064788 0.15884,0.00423 0.31344,0.0762 0.36516,0.2300724 -0.0438,0.046751 -0.0374,0.1242392 0.004,0.1731988 v 0.1214779 c 0,0.0381 0.005,0.082826 -10e-4,0.1194538 -0.006,0.039572 -0.0289,0.08117 -0.049,0.1192695 -0.11853,-0.069022 -0.24093,-0.074728 -0.3659,-0.066077 -0.12019,-0.030921 -0.23799,-0.045278 -0.34308,0.022271 -0.0322,-7.408e-4 -0.0653,0.00423 -0.0992,0.015829 -0.0236,0.00791 -0.0423,0.027241 -0.0517,0.050248 0.13234,0.1424608 0.46382,0.00293 0.57297,0.2243667 0.0188,0.0381 0.0225,0.075464 0.0153,0.1100666 0.008,0.00497 0.0151,0.010675 0.0223,0.015092 -0.021,0.024479 -0.0418,0.048039 -0.0591,0.074727 -0.0309,0.048959 -0.0819,0.078408 -0.1316,0.1093304 -0.069,0.04307 -0.12939,0.092029 -0.20486,0.1229504 -0.11503,0.048039 -0.24516,0.061844 -0.35651,0.1170609 -0.0885,0.04399 -0.17412,0.084851 -0.27038,0.1065695 -0.12939,0.028713 -0.27388,0.035891 -0.40548,0.023559 -0.20356,-0.020062 -0.39903,-0.101232 -0.51774,-0.273142 -0.0626,-0.090556 -0.1467,-0.162523 -0.20413,-0.257313 -0.0497,-0.080617 -0.0878,-0.1704375 -0.10712,-0.2632029 -0.0109,-0.05172 -0.0252,-0.1085941 -0.0302,-0.1610504 -0.002,-0.018775 -0.002,-0.0381 -0.002,-0.05761 -0.0121,-0.040861 -0.0121,-0.089084 0.002,-0.1328896 -7.1e-4,-0.013067 -0.001,-0.025954 -0.003,-0.0381 0.006,0 0.0124,0 0.018,-7.408e-4 0.0302,-0.056874 0.0841,-0.1021521 0.16252,-0.110803 0.24222,-0.02945 0.478,-0.052457 0.71819,-0.111355 0.0539,-0.013067 0.10344,-0.030184 0.15166,-0.047487 -0.0173,-0.021534 -0.0396,-0.038836 -0.0668,-0.046015 -0.17614,-0.050247 -0.35946,-0.066813 -0.54205,-0.069758 -0.15387,-0.00349 -0.31142,0.030187 -0.46731,0.043806 -7.1e-4,-0.021534 -7.1e-4,-0.043806 0.002,-0.064604 0.009,-0.053193 0.0361,-0.1036246 0.041,-0.1568175 0.004,-0.03442 0.0121,-0.063316 0.0144,-0.099207 0.001,-0.032396 0.0136,-0.069758 0.0252,-0.099943 0.009,-0.023742 0.0158,-0.043806 0.0316,-0.063868 0.0223,-0.02595 0.0409,-0.016566 0.0711,-0.023742 0.0281,-0.00718 0.0547,-0.0173 0.0799,-0.024479 0.0252,-0.00718 0.0697,-0.0057 0.0913,-0.021534 0.0215,-0.015829 0.0208,-0.07123 0.0116,-0.093501 -0.0145,-0.036075 -0.0633,-0.056138 -0.0957,-0.056874 -0.12075,-0.00275 -0.2286,0.04399 -0.34014,0.088532 -0.10565,0.043069 -0.19915,0.1128275 -0.30259,0.1595779 -0.0475,0.0208 -0.0992,0.033129 -0.14817,0.050248 -0.0215,0.00791 -0.0431,0.016566 -0.0626,0.028162 -0.033,0.020062 -0.0661,0.025767 -0.10123,0.042333 -0.0561,0.026688 -0.11006,0.056874 -0.16767,0.083378 -0.0733,0.033129 -0.13933,0.021534 -0.217,0.030187 -0.0295,0.00293 -0.0539,0.014358 -0.0834,0.015829 -0.0309,7.408e-4 -0.0611,-7.409e-4 -0.0915,-7.409e-4 h -0.1581 c -0.0777,0 -0.17964,0.00368 -0.24443,-0.046015 -0.0237,-0.017854 -0.041,-0.04307 -0.0561,-0.067549 -0.0245,-0.039572 -0.0316,-0.053929 -0.0316,-0.099943 -7e-4,-0.018591 0.002,-0.030187 0.007,-0.048775"
       style="fill:#21201d;fill-opacity:1;fill-rule:nonzero;stroke:none;stroke-width:0.184057"
       id="path130" />
    <path
       d="m 287.67274,3.714056 c 0.0208,0.018591 0.0381,0.041597 0.0589,0.059635 0.0749,0.063132 0.1467,0.1271838 0.22087,0.1919725 0.0423,0.0381 0.0775,0.072519 0.11209,0.1177971 0.0287,0.0381 0.0675,0.064052 0.0963,0.099207 0.0388,0.047487 0.09,0.08209 0.12884,0.1295767 0.0517,0.062396 0.12645,0.1019683 0.19326,0.1487188 0.0339,0.023008 0.0663,0.047487 0.0992,0.070494 0.0274,0.019325 0.0468,0.04307 0.072,0.061844 0.0403,0.032395 0.0906,0.058898 0.13436,0.088347 0.0245,0.0173 0.0433,0.026688 0.069,0.041045 0.0195,0.010859 0.0252,0.023008 0.041,0.038836 0.0339,0.030921 0.0856,0.04896 0.12589,0.069758 0.0258,0.013621 0.0604,0.042333 0.0861,0.05172 0.0591,0.022271 0.1259,0.046015 0.187,0.059635 0.0734,0.016566 0.14375,0.028162 0.21498,0.050432 0.11725,0.036627 0.24222,0.035154 0.36388,0.035154 0.0849,0 0.16952,-7.408e-4 0.25381,0 0.0538,7.409e-4 0.10197,-0.014358 0.1559,-0.014358 0.0532,7.408e-4 0.10933,0.0057 0.16178,-0.00293 0.0547,-0.0092 0.11081,-0.00423 0.164,-0.014354 0.3221,-0.063868 0.64125,-0.1452217 0.95396,-0.2444291 0.11725,-0.036628 0.2286,-0.08485 0.33719,-0.1395159 0.0663,-0.032946 0.14025,-0.069022 0.2021,-0.1091463 0.0208,-0.013804 0.0396,-0.029633 0.0596,-0.04399 0.0267,-0.017854 0.0525,-0.024479 0.0813,-0.036627 0.025,-0.010675 0.0438,-0.025954 0.0653,-0.041045 0.023,-0.016379 0.049,-0.028713 0.072,-0.046014 0.0344,-0.025767 0.0653,-0.058899 0.10123,-0.078225 0.10583,-0.059083 0.22013,-0.1043609 0.32431,-0.1654683 0.0517,-0.030187 0.10068,-0.055401 0.15902,-0.069758 0.0683,-0.016566 0.13657,-0.04307 0.20762,-0.04675 0.09,-0.00423 0.23228,-0.017117 0.27976,0.072702 0.023,0.04307 0.026,0.1350988 0.001,0.1790884 -0.0346,0.061844 -0.10712,0.047303 -0.1719,0.047303 0.0985,0.033129 0.0977,0.036812 0.0972,0.040309 -0.0512,0.015092 -0.18995,0.00792 -0.21001,-0.050984 0.028,-0.00515 0.0561,-0.014358 0.0848,-0.018038 0.0215,-0.00275 0.0381,0.00497 0.0567,-0.0057 0.0302,-0.018038 0.0403,-0.058898 0.0655,-0.079145 -0.028,-0.010675 -0.046,-0.032396 -0.0769,-0.039572 -0.0208,-0.00423 -0.0467,-0.0057 -0.0675,-0.00131 -0.0433,0.0092 -0.0698,0.039389 -0.10638,0.063132 -0.0309,0.020246 -0.0663,0.033129 -0.0992,0.051904 -0.0418,0.025033 -0.0836,0.048775 -0.12737,0.071783 -0.0539,0.028162 -0.10344,0.061844 -0.16031,0.084851 -0.0295,0.012333 -0.0596,0.025954 -0.0891,0.037364 -0.0267,0.010858 -0.0403,0.023742 -0.0641,0.041781 -0.0381,0.027975 -0.0784,0.045278 -0.11282,0.077672 -0.0289,0.026504 -0.0569,0.035154 -0.0935,0.047487 -0.0532,0.016379 -0.097,0.047303 -0.1489,0.066077 -0.0502,0.018588 -0.10123,0.038836 -0.15018,0.060371 -0.0359,0.015829 -0.0675,0.037364 -0.10437,0.050248 -0.0559,0.019509 -0.097,0.054665 -0.15018,0.081354 -0.0747,0.039572 -0.15388,0.092029 -0.23357,0.1172446 -0.0705,0.021534 -0.13878,0.039388 -0.2078,0.065341 -0.0547,0.0208 -0.12093,0.042333 -0.17835,0.048223 -0.0784,0.00718 -0.15166,0.035891 -0.22934,0.050248 -0.10859,0.019509 -0.22289,0.0208 -0.33369,0.0208 -0.0495,0 -0.10196,-0.0057 -0.15019,0.00293 -0.11007,0.018775 -0.22215,0.019509 -0.33148,0.039573 -0.051,0.00939 -0.0948,0.014358 -0.14743,0.014358 h -0.3256 c -0.10141,0 -0.20706,-0.014358 -0.29909,-0.056874 -0.0339,-0.015646 -0.0712,-0.0208 -0.10565,-0.030184 -0.0158,-0.00423 -0.0245,-0.0092 -0.044,-0.012146 -0.023,-0.00368 -0.0351,-0.014358 -0.0567,-0.022271 -0.0374,-0.014358 -0.0826,-0.00939 -0.12147,-0.020062 -0.0131,-0.00368 -0.0252,-0.013067 -0.0388,-0.018775 -0.0101,-0.00368 -0.0282,-0.00644 -0.0368,-0.010859 -0.01,-0.0057 -0.0171,-0.020062 -0.028,-0.027241 -0.0173,-0.012884 -0.0467,-0.020062 -0.0668,-0.028713 -0.0339,-0.015829 -0.0611,-0.033867 -0.0893,-0.05761 -0.0374,-0.031658 -0.0755,-0.06258 -0.11209,-0.09479 -0.0431,-0.038836 -0.092,-0.080617 -0.13951,-0.1150363 -0.0388,-0.028162 -0.0797,-0.051904 -0.11356,-0.087795 -0.0762,-0.08117 -0.14817,-0.1595783 -0.23505,-0.2286 -0.0339,-0.027425 -0.0648,-0.05761 -0.0999,-0.083378 -0.0396,-0.030187 -0.0834,-0.053193 -0.12019,-0.086323 -0.0337,-0.02945 -0.0703,-0.056138 -0.10196,-0.08485 -0.0151,-0.013621 -0.0317,-0.023745 -0.0475,-0.037364 -0.018,-0.015092 -0.0245,-0.037364 -0.0418,-0.053929 -0.0272,-0.026688 -0.0416,-0.045278 -0.0604,-0.079145 -0.0151,-0.027975 -0.0324,-0.053193 -0.046,-0.079697 -0.0186,-0.036811 -0.0351,-0.079145 -0.0468,-0.1194533 -0.006,-0.025217 -0.0136,-0.050984 -0.0238,-0.075464 -0.008,-0.0173 -0.0223,-0.033867 -0.0265,-0.050248 0.0193,5.644e-4 0.0675,0.048039 0.0834,0.061843"
       style="fill:#21201d;fill-opacity:1;fill-rule:nonzero;stroke:none;stroke-width:0.184057"
       id="path132" />
    <path
       d="m 286.79626,3.463001 c 0.003,0 0.006,7.408e-4 0.009,7.408e-4 0.12664,0.00865 0.25805,-0.086323 0.41063,-0.050248 0.0179,0.00423 0.0344,-0.00293 0.0473,-0.015092 0.12589,-0.00589 0.26246,-0.025216 0.40989,-0.06258 0.23945,-0.060371 0.90445,-0.3876262 1.11796,0.067549 0.0302,0.064788 0.0381,0.1409884 0.009,0.2041204 -0.33075,0.051904 -0.62763,-0.00275 -0.88936,-0.042333 0.051,-0.00497 0.10215,-0.00865 0.15314,-0.01215 0.0849,0.00994 0.22141,0.015092 0.33295,-0.00293 0.079,0.00222 0.16455,-0.00497 0.19197,-0.061843 0.0539,-0.1115392 -0.14964,-0.1783521 -0.22362,-0.1882913 -0.25824,-0.035339 -0.5796,0.1034405 -0.82108,0.1739346 -0.0295,0.00865 -0.0403,0.030921 -0.0388,0.053929 -0.007,0.00148 -0.0151,0.00423 -0.023,0.00644 -0.0237,0.00222 -0.0468,0.0057 -0.0698,0.010125 -0.19418,0.035154 -0.36167,0.087612 -0.51977,0.083378 -0.0361,-0.00148 -0.0705,-0.00293 -0.10436,-0.00515 -0.002,-0.00131 -0.004,-0.00275 -0.006,-0.00423 -0.0955,-0.075464 -0.17172,-0.08982 -0.25381,-0.096262 -0.003,-0.010858 -0.005,-0.022454 -0.006,-0.034604 0.0834,-0.00293 0.18626,-0.00293 0.27461,-0.024479"
       style="fill:#21201d;fill-opacity:1;fill-rule:nonzero;stroke:none;stroke-width:0.184057"
       id="path134" />
    <path
       d="m 291.814,3.5995722 c 0.0173,-0.016379 0.0352,-0.031475 0.0532,-0.046015 0.0352,-0.00423 0.0705,-0.00644 0.10491,-0.0092 -0.0488,0.046751 -0.0596,0.1071217 0.007,0.1853463 0.21866,0.2574971 0.78224,-0.1336259 1.01157,-0.1774317 0.0116,-0.00222 0.0195,-0.00792 0.026,-0.014358 0.092,-0.015829 0.18055,-0.031658 0.26596,-0.028896 0.009,0.014358 0.023,0.025217 0.0447,0.026688 0.19547,0.00644 0.36738,0.096262 0.5564,0.1323379 0.0727,0.014355 0.20559,0.032946 0.25879,-0.039573 0.0101,-0.014358 0.0143,-0.028162 0.0158,-0.041045 0.0158,0.00148 0.0324,0.00293 0.0482,0.00293 0.0804,7.409e-4 0.0648,0.2177405 -0.0136,0.2308088 -0.0144,0.00275 -0.0287,0.00497 -0.044,0.00718 -0.0121,0.030921 -0.0315,0.052457 -0.0567,0.048775 -0.002,0 -0.004,7.408e-4 -0.005,7.408e-4 -0.21148,-0.073991 -0.46382,-0.1085941 -0.75868,-0.069758 -0.18682,0.024479 -0.3867,0.092765 -0.61401,0.1207421 -0.1351,0.016566 -0.27461,0.033129 -0.42259,0.064052 -0.12958,-0.00497 -0.26541,-0.018591 -0.40916,-0.046015 -0.15608,-0.030187 -0.17614,-0.2466375 -0.069,-0.3473171"
       style="fill:#21201d;fill-opacity:1;fill-rule:nonzero;stroke:none;stroke-width:0.184057"
       id="path136" />
  </g>
</svg>
