<?xml version="1.0" encoding="UTF-8" standalone="no"?>
<!-- Created with Inkscape (http://www.inkscape.org/) -->

<svg
   width="8.214057mm"
   height="8.2594109mm"
   viewBox="0 0 8.214057 8.2594109"
   version="1.1"
   id="svg1764"
   inkscape:version="1.1.2 (0a00cf5339, 2022-02-04)"
   sodipodi:docname="rm1.svg"
   xmlns:inkscape="http://www.inkscape.org/namespaces/inkscape"
   xmlns:sodipodi="http://sodipodi.sourceforge.net/DTD/sodipodi-0.dtd"
   xmlns="http://www.w3.org/2000/svg"
   xmlns:svg="http://www.w3.org/2000/svg">
  <sodipodi:namedview
     id="namedview1766"
     pagecolor="#ffffff"
     bordercolor="#666666"
     borderopacity="1.0"
     inkscape:pageshadow="2"
     inkscape:pageopacity="0.0"
     inkscape:pagecheckerboard="0"
     inkscape:document-units="mm"
     showgrid="false"
     inkscape:zoom="0.64052329"
     inkscape:cx="-797.7852"
     inkscape:cy="623.70878"
     inkscape:window-width="2560"
     inkscape:window-height="1376"
     inkscape:window-x="0"
     inkscape:window-y="0"
     inkscape:window-maximized="1"
     inkscape:current-layer="layer1" />
  <defs
     id="defs1761" />
  <g
     inkscape:label="Layer 1"
     inkscape:groupmode="layer"
     id="layer1"
     transform="translate(-316.02676,16.521935)">
    <path
       d="m 316.98863,-12.387373 c 0.004,0.02797 0.007,0.06037 0.0144,0.08688 0.007,0.02448 0.003,0.01657 0.023,0.02742 0.0418,0.02374 0.0871,0.06461 0.13087,0.08043 0.0381,0.0138 0.0999,0.0052 0.14025,0.0037 0.0411,-0.0022 0.0517,-0.02006 0.0812,-0.04307 0.0316,-0.02522 0.0418,-0.0519 0.0626,-0.08356 0.018,-0.02724 0.0489,-0.03221 0.0712,-0.05319 0.0208,-0.01933 0.0374,-0.04307 0.0561,-0.06313 0.0158,-0.01657 0.0337,-0.03534 0.0503,-0.05319 0.041,-0.04473 0.0791,-0.08559 0.12516,-0.126631 0.0186,-0.01583 0.0388,-0.02798 0.0604,-0.03884 0.0237,-0.0086 0.0431,-0.02227 0.0604,-0.04031 0.0101,-0.02153 0.0208,-0.04233 0.0316,-0.0624 0.0166,-0.01583 0.0295,-0.03313 0.041,-0.05264 0.0136,-0.03018 0.0272,-0.06037 0.0394,-0.09129 0.0296,-0.05466 0.0762,-0.08614 0.12018,-0.127184 0.0453,-0.04307 0.0804,-0.08191 0.13952,-0.106386 0.025,-0.0086 0.0495,-0.01877 0.074,-0.02816 0.0438,-0.05669 0.072,-0.125712 0.11651,-0.180377 0.0129,-0.01583 0.0294,-0.02797 0.0438,-0.04252 0.0574,-0.05669 0.10565,-0.130129 0.14375,-0.200439 0.0453,-0.08209 0.0762,-0.171174 0.12019,-0.25308 0.023,-0.04325 0.0359,-0.09 0.0574,-0.133074 0.0166,-0.03515 0.0403,-0.06405 0.0626,-0.09497 0.0467,-0.06681 0.0712,-0.145221 0.0705,-0.225655 -7.1e-4,-0.06111 -7.1e-4,-0.122214 0,-0.183321 0,-0.04325 -0.008,-0.08062 -0.0131,-0.122951 -0.004,-0.03608 0.002,-0.0727 0,-0.107858 -7e-4,-0.01086 -0.003,-0.02522 -0.004,-0.03884 0.0589,0.01141 0.11798,0.02577 0.17761,0.0324 0.10989,0.01141 0.22363,0.002 0.33425,0.002 0.0762,0 0.15387,0.0079 0.22786,-0.01288 0.13455,-0.03884 0.26891,-0.04105 0.40695,-0.04178 0.0418,-5.65e-4 0.0828,-0.002 0.12369,0.01012 0.0215,0.0064 0.0418,0.02025 0.0648,0.01804 0.0173,-0.0015 0.0359,-0.01362 0.0561,-0.01436 0.0366,0.0013 0.0733,0.0013 0.10988,-0.0029 0.0504,-0.01012 0.10142,-0.01657 0.15166,-0.01932 0.0999,0 0.1986,0.0243 0.2991,0.0243 0.12957,0 0.25602,-0.0265 0.38541,-0.02945 0,0.0044 -7.1e-4,0.0087 0,0.01436 0.0116,0.08706 -0.007,0.162523 0.0252,0.24314 0.023,0.05595 0.0331,0.115773 0.0574,0.17099 0.0296,0.06626 0.0712,0.125895 0.0942,0.195653 0.0208,0.05964 0.028,0.121479 0.0403,0.184058 0.0121,0.0589 0.006,0.117982 0.0158,0.17688 0.008,0.04749 0.0337,0.09479 0.0525,0.139516 0.0331,0.08043 0.0963,0.130129 0.14596,0.198414 0.0287,0.03957 0.0495,0.07473 0.0848,0.109883 0.0337,0.0324 0.0589,0.06976 0.0871,0.107122 0.0329,0.04399 0.0668,0.08779 0.10638,0.126632 0.0287,0.02724 0.048,0.06902 0.0782,0.0935 0.0252,0.02006 0.0425,0.02301 0.0598,0.05246 0.0317,0.05172 0.0683,0.08264 0.11503,0.12295 0.051,0.04381 0.0891,0.101416 0.14007,0.145958 0.0475,0.04105 0.0979,0.07473 0.14099,0.120742 0.0381,0.04105 0.0769,0.07841 0.12221,0.111539 0.064,0.04601 0.13878,0.07105 0.20357,0.115036 0.0243,0.01638 0.0401,0.02724 0.0676,0.0381 0.0322,0.01215 0.0697,0.02153 0.0992,0.03939 0.0272,0.01657 0.0482,0.02816 0.0769,0.03957 0.0151,0.0064 0.0208,0.01086 0.0344,0.01951 0.0396,0.02374 0.0655,0.0324 0.0964,-0.0037 0.0374,-0.0416 0.0532,-0.09847 0.0906,-0.139516 0.0121,-0.01288 0.0302,-0.01933 0.0381,-0.03589 -0.0396,-0.02374 -0.0871,-0.0072 -0.11209,-0.05816 -0.0173,-0.03681 -0.0195,-0.06755 -0.0497,-0.09921 -0.0727,-0.07694 -0.17043,-0.12884 -0.26522,-0.173382 -0.0388,-0.01785 -0.0821,-0.02374 -0.12093,-0.04086 -0.0416,-0.01878 -0.0718,-0.04822 -0.10785,-0.07344 -0.023,-0.01657 -0.051,-0.02871 -0.0711,-0.04951 -0.0158,-0.01804 -0.026,-0.04178 -0.041,-0.06111 -0.0561,-0.0727 -0.1259,-0.133074 -0.17909,-0.209274 -0.048,-0.06902 -0.10491,-0.133074 -0.15387,-0.202096 -0.0243,-0.03515 -0.0438,-0.07546 -0.0703,-0.10933 -0.026,-0.03148 -0.0606,-0.05522 -0.0856,-0.08688 -0.0517,-0.06681 -0.10215,-0.13657 -0.13878,-0.21277 -0.0173,-0.03681 -0.0215,-0.07565 -0.0339,-0.114485 -0.0121,-0.03939 -0.0374,-0.07325 -0.0453,-0.113563 -0.0215,-0.117797 -0.0849,-0.227128 -0.0955,-0.349342 -0.004,-0.05319 0.006,-0.10933 0.006,-0.16326 0,-0.02871 7.1e-4,-0.06111 -0.007,-0.08982 -0.003,-0.01012 -0.006,-0.01951 -0.0123,-0.02871 -0.0215,-0.03037 -0.0473,-0.05908 -0.0675,-0.09424 -0.0151,-0.02669 -0.0366,-0.05319 -0.0495,-0.08191 0.0302,-0.0079 0.0611,-0.01657 0.092,-0.02374 0.0582,-0.0079 0.11706,-0.0094 0.17614,-0.0059 0.25014,0.0015 0.50045,0.01509 0.75058,0.01454 0.0863,0.0624 0.0295,-0.01086 0.0208,-0.02374 -0.0252,-0.03957 -0.0121,-0.06902 -0.0201,-0.113012 -0.004,-0.01933 -0.0144,-0.02448 -0.0252,-0.04012 -0.018,-0.02522 -0.0339,-0.05466 -0.051,-0.08135 -0.023,-0.03442 -0.0547,-0.08706 -0.0965,-0.07915 -0.0344,0.0066 -0.0589,0.03681 -0.0935,0.03884 -0.023,0.0022 -0.0453,-0.0072 -0.0675,-0.01068 -0.0567,-0.0094 -0.11577,-0.0029 -0.1732,-0.0029 -0.10712,0 -0.21497,0.0044 -0.32283,7.41e-4 -0.10215,-0.0042 -0.20136,-0.0265 -0.30406,-0.0265 -0.0856,-7.41e-4 -0.16896,-0.03387 -0.25381,-0.04675 -0.0698,-0.01013 -0.13878,-0.02227 -0.20928,-0.02374 -0.0799,-0.0015 -0.16528,-0.0072 -0.24442,0.0035 -0.0561,0.0072 -0.11007,0.02374 -0.16602,0.02522 -0.1432,0.005 -0.28345,-0.02522 -0.42572,-0.02797 -0.21277,-0.0037 -0.42351,-0.02522 -0.63629,-0.02595 -0.17982,-7.41e-4 -0.35375,-0.02153 -0.53339,-0.005 -0.0878,0.0079 -0.17485,0.02503 -0.26173,0.04381 -0.0821,0.01804 -0.15829,0.05172 -0.23872,0.07399 -0.16252,0.04528 -0.3278,0.105098 -0.49621,0.103625 -0.0617,0 -0.12222,0.0035 -0.18259,-0.01233 -0.0272,-0.0057 -0.0525,-0.01712 -0.0762,-0.03295 -0.0107,-0.01362 -0.0237,-0.02098 -0.0388,-0.02227 -0.0258,0.02301 -0.0223,0.08412 -0.0166,0.113564 0.008,0.03736 0.007,0.07399 0.007,0.112827 0,0.07546 7e-4,0.150928 0,0.226576 0,0.02227 -0.007,0.03939 0.0107,0.04951 0.009,0.005 0.0418,-0.0022 0.0482,-0.0035 0.0388,-0.0079 0.0747,-0.02669 0.11283,-0.03608 0.0346,-0.0079 0.0769,-0.002 0.11227,-0.0015 0.10123,0.0015 0.19768,-0.04012 0.30038,-0.0416 0.0267,0.0035 0.0532,0.0022 0.0799,-0.0044 0.026,-0.01288 0.0525,-0.0265 0.0777,-0.03939 0.0431,-0.02025 0.0834,-0.03681 0.12939,-0.03884 0.009,0 0.018,0 0.0267,0 -0.008,0.02871 -0.0145,0.05816 -0.023,0.0797 -0.023,0.06258 -0.0368,0.126631 -0.0504,0.191236 -0.0136,0.06828 -0.0388,0.132337 -0.0582,0.199886 -0.0158,0.05908 -0.023,0.110803 -0.0274,0.171175 -0.005,0.06976 -0.0324,0.131601 -0.0711,0.189027 -0.0346,0.05117 -0.0769,0.09792 -0.11798,0.143933 -0.0517,0.05816 -0.10067,0.121478 -0.15534,0.176144 -0.0482,0.04804 -0.0898,0.09129 -0.12221,0.151664 -0.026,0.04749 -0.0453,0.09847 -0.072,0.145221 -0.069,0.122214 -0.18461,0.164548 -0.28823,0.247374 -0.0697,0.05595 -0.13233,0.12792 -0.19197,0.194733 -0.0366,0.04031 -0.0626,0.08264 -0.0876,0.130129 -0.0576,0.110803 -0.17044,0.172646 -0.27038,0.242405 -0.0223,0.01583 -0.0504,0.04086 -0.0799,0.04012 -0.0215,-0.0013 -0.0309,-0.02153 -0.0517,-0.02374 0.004,0.03313 0.023,0.06332 0.0287,0.09718 m 3.07871,-0.969986 c 0.0302,0 0.0653,0.0044 0.0955,-0.0028 0.0267,-0.0059 0.0497,-0.01951 0.0769,-0.02374 0.0712,-0.01086 0.18259,0.02945 0.23725,-0.0324 0.0468,-0.05319 0.0641,-0.129393 0.0834,-0.194181 0.0145,-0.04675 0.0237,-0.0797 0.0166,-0.129393 -0.005,-0.03589 -0.009,-0.0762 -0.0257,-0.109331 -0.0166,-0.03147 -0.0403,-0.06037 -0.0584,-0.09203 -0.0144,-0.02374 -0.0401,-0.05448 -0.0488,-0.08117 7e-4,-0.0029 -10e-4,-0.01013 -0.0109,-0.01804 -0.0309,-0.0265 -0.0596,-0.06681 -0.0883,-0.09553 -0.0274,-0.02743 -0.0554,-0.06184 -0.0942,-0.07344 -0.0475,-0.01435 -0.11872,-0.0057 -0.15958,0.01657 -0.0893,0.04822 -0.18056,0.08338 -0.26025,0.14743 -0.0388,0.03092 -0.0539,0.08117 -0.0791,0.122214 -0.0195,0.03313 -0.0438,0.06258 -0.0618,0.09626 -0.0467,0.08779 -0.0388,0.179088 -0.0129,0.273326 0.0201,0.07326 0.056,0.17964 0.14228,0.195469 0.0777,0.01454 0.1697,0 0.24811,7.41e-4 m -0.20062,1.3208 c -0.0195,0.102152 -0.0331,0.207065 -0.0136,0.311978 0.0302,0.163259 0.0552,0.34382 0.11927,0.497692 0.0532,0.005 0.0747,-0.02742 0.12221,-0.04473 0.0576,-0.02006 0.10289,-0.04233 0.14319,-0.09056 0.0186,-0.02227 0.0381,-0.04675 0.0604,-0.06608 0.0243,-0.02025 0.0547,-0.02227 0.079,-0.04178 0.0453,-0.03589 0.0316,-0.1524 0.0245,-0.202648 -0.0101,-0.06479 -0.0265,-0.122951 -0.0252,-0.189212 0,-0.0381 0,-0.07546 0,-0.113563 v -1.042504 c -0.0144,0.02945 -0.0309,0.0072 -0.0539,-0.03515 -0.0171,-0.0324 -0.0186,-0.02816 -0.0517,-0.03608 -0.004,-7.41e-4 -0.009,-0.0092 -0.0158,-0.01141 -0.0114,-0.0022 -0.0258,0 -0.0381,-0.0022 -0.0166,-0.0029 -0.0438,-0.01509 -0.0633,-0.02006 -0.0359,-0.01012 -0.0661,-0.01657 -0.1027,-0.0173 -0.0309,-7.41e-4 -0.0388,-7.41e-4 -0.0576,0.02374 -0.0171,0.02153 -0.0344,0.04233 -0.0473,0.06681 -0.0482,0.08927 -0.0799,0.188475 -0.0987,0.287682 -0.01,0.05466 -0.0164,0.104177 -0.0129,0.159578 0.006,0.09479 0.0396,0.18185 0.041,0.27756 7.1e-4,0.09405 0.009,0.195469 -0.009,0.288235 m -2.28855,1.08134 c 0.003,0.02153 -0.005,0.04601 0.0151,0.0554 0.0101,-0.0015 0.0202,-0.0022 0.0302,-0.0037 0.021,0.0029 0.0388,0.0116 0.0526,0.02816 0.0215,0.01859 0.0423,0.04454 0.0703,0.05393 0.0309,0.0099 0.0742,0.002 0.10639,0.002 0.0519,0 0.10288,0.0044 0.15534,0.0037 0.026,0 0.0561,0.0015 0.0813,-0.0057 0.0166,-0.0052 0.0251,-0.01307 0.0416,-0.0138 0.0215,-7.41e-4 0.0497,0.01233 0.0712,0.01657 0.12001,0.02374 0.24516,0.01233 0.36664,0.01233 0.15313,7.41e-4 0.3013,-0.01233 0.45296,-0.02448 0.15314,-0.01233 0.30701,0.0042 0.46014,-0.0057 0.11651,-0.0072 0.23154,-0.01509 0.34805,-0.0094 0.12295,0.0064 0.2459,0.0079 0.3694,0.01362 0.0799,0.0037 0.15608,0.02522 0.2367,0.02595 0.1143,7.41e-4 0.22639,0.03092 0.33995,0.04528 0.092,0.01141 0.18332,0.0094 0.27609,0.0099 0.0626,0 0.12221,-0.01712 0.18479,-0.01565 0.0683,0.0013 0.13012,0.03019 0.19767,0.02871 0.0821,-0.0015 0.164,0.0042 0.24517,-7.41e-4 0.0871,-0.0057 0.17835,-0.03092 0.26394,-0.04675 0.0525,-0.01013 0.10564,-0.01804 0.15755,-0.03018 0.0525,-0.01288 0.12644,-0.06037 0.1789,-0.03534 0.0223,0.01086 0.026,0.02098 0.0532,0.01509 0.0366,-0.0072 0.0655,-0.01141 0.10289,-0.01067 0.0237,0 0.0351,-0.005 0.0561,-0.01086 0.0287,-0.0079 0.0646,-0.005 0.0941,-0.0028 0.0339,0.0015 0.0648,0.01288 0.0992,0.01362 0.0418,0.0022 0.0755,-0.0057 0.1143,-0.01215 0.0223,-0.0044 0.0346,0.0013 0.046,-0.02172 0.004,-0.0086 0.0109,-0.03957 0.0116,-0.04951 0.004,-0.02871 -0.0151,-0.104361 -0.028,-0.132338 -0.007,-0.01657 -0.0217,-0.03663 -0.0368,-0.04307 -0.007,-0.0022 -0.0193,7.41e-4 -0.0272,-0.0015 -0.0136,-0.0044 -0.0237,-0.01804 -0.0374,-0.02227 -0.026,-0.0086 -0.0705,-0.0057 -0.0977,-0.0015 -0.0289,0.0042 -0.0539,0.02006 -0.0828,0.02522 -0.0409,0.0064 -0.0834,7.41e-4 -0.12497,0 -0.0374,0 -0.069,0.01362 -0.10584,0.01712 -0.0265,0.0037 -0.0453,-0.005 -0.069,-0.01362 -0.0675,-0.02577 -0.12424,-0.0022 -0.19547,-0.0028 -0.0316,0 -0.0633,0 -0.095,0 -0.0468,0 -0.0928,-7.41e-4 -0.13951,0 -0.0639,5.65e-4 -0.12939,-0.02098 -0.19326,-0.0029 -0.0734,0.0208 -0.15111,0.01583 -0.22879,0.01877 -0.0725,0.0035 -0.1465,0.0064 -0.21847,0.01712 -0.069,0.01012 -0.13086,0.03239 -0.20062,0.0346 -0.18111,0.0072 -0.35578,-0.01509 -0.5356,-0.02595 -0.16823,-0.0094 -0.32781,-0.07049 -0.49456,-0.08264 -0.11301,-0.0079 -0.2194,0.03515 -0.33075,0.04031 -0.0762,0.0035 -0.15314,-0.0044 -0.23007,-0.0094 -0.13731,-0.01012 -0.26541,0.02522 -0.40124,0.02522 -0.0561,0 -0.11081,-0.01086 -0.16602,-0.01381 -0.0353,-0.002 -0.0712,0.0015 -0.10657,-0.0035 -0.0854,-0.01288 -0.15884,-0.03018 -0.24572,-0.01804 -0.0928,0.01233 -0.16473,-0.0072 -0.25307,-0.01785 -0.0547,-0.0079 -0.11007,-0.01528 -0.16326,-0.03037 -0.0374,-0.01067 -0.0834,-0.02577 -0.12019,-0.0077 -0.0136,0.01215 -0.0265,0.0243 -0.0386,0.03736 -0.018,0.01068 -0.0376,0.01509 -0.0584,0.01288 -0.0517,7.4e-4 -0.0819,-0.0079 -0.12718,0.02301 -0.0252,0.01657 -0.0425,0.02797 -0.0742,0.03092 -0.0144,0.0015 -0.0394,-0.0079 -0.0517,-0.0015 -0.0324,0.01583 -0.006,0.09497 -0.001,0.122951 m 0.14449,0.914584 c 0.0353,0.14154 0.16104,0.1847938 0.29062,0.2085371 0.0604,0.011412 0.10491,0.048039 0.16307,0.066813 0.0618,0.020062 0.12019,-0.018038 0.17191,-0.04675 0.0913,-0.050984 0.21204,-0.1200058 0.19547,-0.2416691 -0.008,-0.06755 -0.0388,-0.155161 -0.0668,-0.216268 -0.018,-0.03957 -0.0403,-0.09129 -0.0804,-0.113011 -0.0368,-0.02006 -0.0849,-0.01638 -0.12369,-0.01565 -0.0173,0 -0.0663,0.01067 -0.0675,-0.0138 0.0216,-0.05319 -0.021,-0.01067 -0.0532,7.41e-4 -0.0281,0.0087 -0.0383,0.01877 -0.0591,0.03663 -0.0517,0.04399 -0.13804,0.0381 -0.19418,0.08062 -0.0351,0.0265 -0.0683,0.0589 -0.10197,0.08761 -0.0611,0.05117 -0.0935,0.08706 -0.0742,0.166204 m 1.29207,0.3163964 c 0.0418,0.044542 0.0804,0.0762 0.13657,0.099207 0.0517,0.0208 0.10565,0.052457 0.16252,0.054665 0.0193,0.00131 0.0913,0.010675 0.1108,-0.00222 0.0121,-0.00865 0.0186,-0.034604 0.0295,-0.046015 0.0193,-0.023008 0.0388,-0.028162 0.0683,-0.037364 0.0316,-0.010858 0.0797,-0.029633 0.0928,-0.063316 0.0107,-0.027975 0.005,-0.082642 0.002,-0.1128275 -0.004,-0.053193 -0.0302,-0.117245 -0.0488,-0.165468 -0.0223,-0.056138 -0.0468,-0.1271839 -0.0871,-0.1724619 -0.0661,-0.07491 -0.18037,-0.08559 -0.27166,-0.107122 -0.0742,-0.06552 -0.14025,0.03166 -0.17118,0.06184 -0.0547,0.05595 -0.0985,0.145222 -0.10141,0.2234457 -0.002,0.093501 0.0123,0.1963897 0.0777,0.2676201 m 0.88641,-0.3114258 c 0.0482,0.1523999 0.20063,0.3587287 0.38045,0.2459012 0.0488,-0.030187 0.0804,-0.073255 0.13657,-0.094238 0.0294,-0.011412 0.0698,-0.015092 0.0812,-0.048039 0.0165,-0.045278 -0.0804,-0.2085382 -0.002,-0.2251032 0.006,-0.07049 -0.044,-0.154609 -0.0964,-0.199151 -0.0245,-0.02006 -0.0495,-0.02669 -0.079,-0.03313 -0.0225,-0.005 -0.0663,-0.0028 -0.0806,-0.02301 0.0274,-0.04086 -0.0151,-0.04951 -0.0396,-0.0416 -0.0151,0.005 -0.0272,0.01583 -0.0416,0.02448 -0.0166,0.0092 -0.0339,0.02006 -0.0504,0.03092 -0.0352,0.02153 -0.0755,0.02356 -0.11283,0.03939 -0.0215,0.0094 -0.0604,0.02227 -0.0769,0.04105 -0.018,0.02153 -0.0223,0.05614 -0.0324,0.08191 -0.0272,0.07049 -0.009,0.130865 0.0136,0.200623 m 1.03826,-0.06534 c 0.0151,0.1200066 0.051,0.2135082 0.15535,0.2825299 0.0539,0.035891 0.14871,0.042333 0.21203,0.02945 0.0396,-0.00792 0.074,-0.044542 0.10141,-0.073255 0.0438,-0.048223 0.0762,-0.081354 0.13952,-0.1021521 0.0725,-0.025217 0.0898,-0.049695 0.0755,-0.1244238 -0.0116,-0.06258 -0.0433,-0.116509 -0.0747,-0.170437 -0.0331,-0.05467 -0.0727,-0.106386 -0.11503,-0.154609 -0.0425,-0.04804 -0.0734,-0.05246 -0.13308,-0.06681 -0.0596,-0.01436 -0.11577,-0.01288 -0.17761,-0.01288 0.0173,-0.01436 -0.0337,0.0042 -0.0547,0.01288 -0.0351,0.01233 -0.0453,0.05319 -0.0675,0.08264 -0.0641,0.08356 -0.0733,0.193445 -0.0611,0.297069 m 1.03605,0.2357789 c 0.0331,0.056874 0.069,0.1415404 0.14099,0.1595783 0.0466,0.010859 0.0891,0.010859 0.13731,0.010859 0.071,0 0.13012,0.0092 0.19123,-0.02945 0.048,-0.030184 0.092,-0.07123 0.13363,-0.1100667 0.0353,-0.031658 0.0309,-0.064052 0.0316,-0.1108029 0,-0.044542 -0.018,-0.084114 -0.0223,-0.1286556 -0.004,-0.04307 -0.0173,-0.08559 -0.0324,-0.126448 -0.0121,-0.0324 -0.0201,-0.06773 -0.0582,-0.07123 -0.0195,-0.0015 -0.0396,0.01086 -0.0589,0.01215 -0.0116,0.0015 -0.0238,-7.41e-4 -0.0346,0 0.12369,-0.04381 0.0351,-0.08485 10e-4,-0.08761 -0.0201,-0.0015 -0.0561,-0.0052 -0.0755,0.0028 -0.0173,0.0072 -0.0289,0.03092 -0.0453,0.04104 -0.0331,0.0208 -0.072,0.02227 -0.10583,0.04307 -0.0438,0.02742 -0.0869,0.02816 -0.13436,0.04473 -0.0655,0.02301 -0.0547,0.143014 -0.0661,0.196206 -0.013,0.058163 -0.0346,0.098471 -0.003,0.1538725 m -5.94943,-2.1181385 c 0.0136,-0.0646 0.0431,-0.121478 0.0302,-0.195469 -0.0124,-0.07344 0.0344,-0.143934 0.0789,-0.207802 v 0.04307 c 0.005,7.4e-4 0.0101,7.4e-4 0.0151,0.0015 0.002,-0.03515 0.0101,-0.07123 0.005,-0.104361 -0.0188,-0.109882 -0.0445,-0.219212 -0.0641,-0.328543 -0.006,-0.03092 -0.004,-0.06534 0.004,-0.09553 0.0237,-0.101416 0.0517,-0.202096 0.0797,-0.302039 0.0237,-0.08338 0.0467,-0.16602 0.0755,-0.247374 0.0173,-0.04877 0.0425,-0.09479 0.067,-0.140068 0.009,-0.01877 0.0265,-0.03313 0.0403,-0.05043 0.005,-0.0079 0.008,-0.01657 0.0121,-0.02577 0.018,-0.0519 -0.0237,-0.105097 0.006,-0.156817 0.009,-0.0173 0.0151,-0.03884 0.0173,-0.0589 0.008,-0.05761 0.0129,-0.115037 0.0193,-0.172647 7.1e-4,-0.0099 0.004,-0.0208 0.009,-0.02871 0.0316,-0.04381 0.0648,-0.08706 0.0957,-0.131602 0.006,-0.0072 0.003,-0.02153 0.004,-0.03589 0.072,-0.06479 0.10436,-0.16602 0.17982,-0.239459 0.0683,-0.06534 0.11135,-0.15737 0.16528,-0.237251 0.0359,-0.05246 0.0734,-0.104177 0.1086,-0.157369 0.0302,-0.04601 0.0799,-0.07767 0.0849,-0.14467 0.002,-0.03663 0.0416,-0.07546 0.0725,-0.104177 0.0618,-0.05761 0.12957,-0.10933 0.19418,-0.163259 10e-4,0.0094 0.003,0.02098 0.004,0.03166 0.004,0.0022 0.008,0.0037 0.0121,0.0052 0.0252,-0.03828 0.051,-0.07638 0.0769,-0.114484 0.0173,-0.0243 0.0359,-0.04804 0.0532,-0.07252 0.0129,-0.01804 0.0267,-0.03589 0.0388,-0.05393 0.0208,-0.03092 0.041,-0.06258 0.0618,-0.0935 0.007,-0.01086 0.0173,-0.01859 0.0252,-0.02871 0.0309,-0.04105 0.0604,-0.08411 0.0941,-0.122951 0.008,-0.01012 0.0294,-0.01086 0.0453,-0.01288 0.023,-0.0029 0.0475,0 0.069,-0.0059 0.0913,-0.0265 0.18331,-0.05319 0.27258,-0.08485 0.0359,-0.01362 0.072,-0.03663 0.0992,-0.06313 0.0856,-0.08283 0.19197,-0.138043 0.27167,-0.228784 0.0418,-0.0473 0.11006,-0.07399 0.16896,-0.104912 0.0663,-0.03442 0.13455,-0.06332 0.20283,-0.09424 0.0366,-0.01638 0.0732,-0.0381 0.11282,-0.04381 0.0762,-0.01067 0.15388,-0.01067 0.23081,-0.01859 0.0893,-0.0079 0.1813,-0.0015 0.2632,-0.04675 0.0883,-0.04822 0.1848,-0.03957 0.27958,-0.04031 0.007,-7.4e-4 0.0151,7.41e-4 0.0195,0.005 0.0423,0.03957 0.0913,0.02301 0.13804,0.01436 0.007,-0.0013 0.0114,-0.01932 0.0186,-0.03295 0.0217,-0.0037 0.0497,-0.01012 0.0777,-0.01012 0.0591,-0.0015 0.11798,0.0015 0.17688,0.0022 0.0618,7.41e-4 0.12442,0.0057 0.18479,0.0015 0.0576,-0.0052 0.1143,-0.02025 0.17117,-0.03092 0.001,0 0.002,-0.0029 0.003,-0.0029 0.0228,-0.0029 0.0488,-0.01215 0.0688,-0.005 0.0534,0.01785 0.10657,0.03884 0.15534,0.06755 0.0252,0.01436 0.0663,0.02227 0.0648,0.06681 0,0.0064 0.0107,0.01436 0.0179,0.01878 0.0296,0.01638 0.0598,0.03166 0.09,0.0473 0,-0.0042 -7e-4,-0.0092 -10e-4,-0.01435 0.009,-0.0013 0.0188,-0.0064 0.0265,-0.0042 0.0433,0.0086 0.0863,0.0208 0.12957,0.02871 0.0178,0.0029 0.0374,-0.0079 0.0545,-0.0042 0.0677,0.01068 0.13528,0.02503 0.20283,0.03884 0.0834,0.01583 0.16602,0.03166 0.24958,0.0473 0.0114,0.0022 0.0228,0.01086 0.0329,0.0094 0.0769,-0.01067 0.14172,0.03092 0.21222,0.04528 0.0121,0.0022 0.0223,0.01877 0.033,0.02816 -0.002,0.002 -0.004,0.0042 -0.006,0.0064 l -0.0648,-0.0208 c -10e-4,0.0035 -0.003,0.0079 -0.004,0.01215 0.0445,0.03019 0.0891,0.06037 0.13454,0.09129 0.002,-0.0064 0.004,-0.01288 0.006,-0.01932 0.0158,0.0013 0.0344,-0.0022 0.0467,0.005 0.0388,0.02153 0.0755,0.04749 0.11283,0.07252 0.0604,0.03957 0.11779,0.08485 0.18185,0.11798 0.046,0.02522 0.10288,0.02798 0.14963,0.05099 0.10988,0.0554 0.21921,0.113011 0.29118,0.219397 0.0265,0.03957 0.0567,0.0762 0.0913,0.122214 0.008,-0.01657 0.0121,-0.02522 0.0151,-0.03166 0.0834,0.07049 0.11356,0.168229 0.16528,0.251607 0.0475,0.0762 0.0957,0.154609 0.15829,0.217925 0.0755,0.07694 0.16749,0.137307 0.2494,0.207801 0.0813,0.06976 0.0964,0.172462 0.12147,0.268909 0.009,0.03884 0.0188,0.07896 0.0282,0.117797 0.004,-7.41e-4 0.009,-0.0015 0.0144,-0.0028 -0.001,-0.0116 -0.003,-0.02301 -0.004,-0.03534 0.0195,0.01951 0.0267,0.04325 0.0396,0.06405 0.0274,0.04233 0.0569,0.08411 0.0856,0.126448 0.008,0.01086 0.0188,0.01951 0.0267,0.03019 0.0453,0.06773 0.0906,0.135283 0.1351,0.204304 0.008,0.01141 0.0107,0.02724 0.0144,0.0416 0.018,0.07694 0.0331,0.153873 0.0539,0.230073 0.0193,0.07049 0.0445,0.138779 0.0668,0.207801 l 0.0109,-0.0035 c 0.002,-0.0064 0.004,-0.01362 0.006,-0.0173 0.009,0.04381 0.0201,0.0878 0.0245,0.133074 0.006,0.05743 0.003,0.115773 0.009,0.173935 0.005,0.05964 -0.007,0.120742 0.025,0.177616 0.018,0.03166 0.0339,0.06681 0.0403,0.102704 0.026,0.155345 0.0453,0.31069 0.12664,0.451678 0.0582,0.101232 0.0626,0.216268 0.0423,0.328544 -0.033,0.182585 -0.0653,0.366643 -0.13731,0.539105 -0.004,0.01013 -0.0158,0.0173 -0.0223,0.02669 -0.0237,0.03663 -0.0475,0.07399 -0.0712,0.111355 0.003,0.0015 0.006,0.0037 0.008,0.0059 0.009,-0.0044 0.0173,-0.0079 0.0267,-0.01159 -0.0403,0.05246 -0.0475,0.117981 -0.0287,0.167492 0.0208,0.0554 0.0186,0.09847 -0.005,0.146695 -0.003,-0.005 -0.005,-0.0087 -0.0136,-0.02374 -0.004,0.04252 -0.006,0.07473 -0.009,0.107121 -0.004,0.03387 -0.004,0.06829 -0.01,0.101416 -0.0324,0.189764 -0.10859,0.365907 -0.17485,0.545732 -0.0661,0.180377 -0.18682,0.328543 -0.28253,0.491066 -0.051,0.085587 -0.12,0.1638116 -0.20412,0.2256553 -0.095,0.069758 -0.19123,0.136755 -0.25675,0.2416679 -0.0475,0.073255 -0.11927,0.1316013 -0.1848,0.1927088 -0.1027,0.096998 -0.2078,0.1927084 -0.31492,0.2847375 -0.16749,0.1422767 -0.3313,0.2926521 -0.56008,0.3335129 -0.0144,0.00293 -0.0309,7.409e-4 -0.0466,0.00293 -0.0534,0.00939 -0.11006,0.011412 -0.15902,0.032396 -0.0503,0.021533 -0.0928,0.061107 -0.13951,0.091292 -0.007,0.00497 -0.0186,0.00423 -0.0287,0.00644 -0.0151,0.00222 -0.0331,0 -0.0445,0.00791 -0.0898,0.064604 -0.18406,0.1185334 -0.29339,0.1481667 -0.0769,0.0208 -0.1524,0.050248 -0.22786,0.077488 -0.0245,0.00865 -0.0475,0.030921 -0.0727,0.031658 -0.0926,0.00222 -0.17615,0.04399 -0.26449,0.061843 -0.13086,0.027425 -0.26099,0.06258 -0.38817,-0.013621 -0.0145,-0.00865 -0.0376,-0.00368 -0.0554,-0.00222 -0.018,0.00222 -0.0366,0.013067 -0.0547,0.010858 -0.17191,-0.0208 -0.34363,-0.043806 -0.51554,-0.066261 -0.0863,-0.010675 -0.17246,-0.0208 -0.25952,-0.031475 -0.0683,-0.00865 -0.13731,-0.015829 -0.20485,-0.028162 -0.0849,-0.015092 -0.1697,-0.035154 -0.25455,-0.052457 -0.004,-7.408e-4 -0.009,7.408e-4 -0.0136,0 -0.0396,-0.00644 -0.0841,-0.00423 -0.11872,-0.022271 -0.10215,-0.052457 -0.19988,-0.1143 -0.29909,-0.1726462 -0.0302,-0.017854 -0.0561,-0.052457 -0.0977,-0.021534 -0.004,0.00368 -0.0166,-0.00275 -0.0245,-0.00718 -0.10288,-0.052457 -0.21424,-0.078961 -0.32706,-0.096999 -0.0799,-0.012333 -0.1143,-0.074727 -0.16032,-0.1258955 -0.004,-0.00497 -0.001,-0.016566 -0.003,-0.031658 0.0158,0.014541 0.0272,0.024479 0.0388,0.034604 0.004,-0.00222 0.007,-0.00423 0.0109,-0.00644 -0.0123,-0.020246 -0.0203,-0.045278 -0.0368,-0.059635 -0.0703,-0.059083 -0.13951,-0.1194533 -0.20982,-0.1790883 -0.10215,-0.087796 -0.1813,-0.2020955 -0.30553,-0.2667 -0.0467,-0.025217 -0.0828,-0.07123 -0.12443,-0.1071217 -0.009,-0.00663 -0.021,-0.010858 -0.0309,-0.014354 -0.095,-0.036812 -0.18553,-0.076936 -0.23081,-0.1783525 -0.0381,-0.087059 -0.0769,-0.1746708 -0.12222,-0.2582329 -0.0215,-0.04086 -0.0539,-0.077488 -0.0878,-0.109883 -0.13583,-0.129393 -0.28032,-0.249583 -0.36738,-0.422045 -0.0294,-0.05964 -0.0705,-0.113564 -0.10564,-0.170438 -0.0101,-0.01804 -0.0195,-0.03736 -0.0267,-0.05614 -0.0309,-0.08264 -0.0631,-0.163812 -0.0891,-0.247926 -0.023,-0.07767 -0.0388,-0.15829 -0.0561,-0.237251 -0.0129,-0.05982 -0.0179,-0.120926 -0.0329,-0.179088 -0.021,-0.07915 -0.0611,-0.154609 -0.0683,-0.234306 -0.008,-0.08135 -0.0252,-0.159762 -0.044,-0.237987 -0.007,-0.0324 -0.0245,-0.067 -0.0186,-0.09645"
       style="fill:#21201d;fill-opacity:1;fill-rule:evenodd;stroke:none;stroke-width:0.184057"
       id="path576" />
  </g>
</svg>
