<?xml version="1.0" encoding="UTF-8" standalone="no"?>
<!-- Created with Inkscape (http://www.inkscape.org/) -->

<svg
   width="8.2194271mm"
   height="8.2594681mm"
   viewBox="0 0 8.2194271 8.2594681"
   version="1.1"
   id="svg1909"
   inkscape:version="1.1.2 (0a00cf5339, 2022-02-04)"
   sodipodi:docname="rm2.svg"
   xmlns:inkscape="http://www.inkscape.org/namespaces/inkscape"
   xmlns:sodipodi="http://sodipodi.sourceforge.net/DTD/sodipodi-0.dtd"
   xmlns="http://www.w3.org/2000/svg"
   xmlns:svg="http://www.w3.org/2000/svg">
  <sodipodi:namedview
     id="namedview1911"
     pagecolor="#ffffff"
     bordercolor="#666666"
     borderopacity="1.0"
     inkscape:pageshadow="2"
     inkscape:pageopacity="0.0"
     inkscape:pagecheckerboard="0"
     inkscape:document-units="mm"
     showgrid="false"
     inkscape:zoom="0.64052329"
     inkscape:cx="-1333.2849"
     inkscape:cy="614.34144"
     inkscape:window-width="2560"
     inkscape:window-height="1376"
     inkscape:window-x="0"
     inkscape:window-y="0"
     inkscape:window-maximized="1"
     inkscape:current-layer="layer1" />
  <defs
     id="defs1906" />
  <g
     inkscape:label="Layer 1"
     inkscape:groupmode="layer"
     id="layer1"
     transform="translate(-457.7083,14.043378)">
    <path
       d="m 459.72667,-11.961563 c 0.0286,-0.01013 0.0554,-0.0086 0.0863,-0.0094 0.0438,0 0.0869,0.01141 0.13013,0.01583 0.0596,0.0064 0.12221,0.01068 0.18186,0.01068 0.041,-5.65e-4 0.0819,-5.65e-4 0.12369,-5.65e-4 0.0546,5.65e-4 0.1071,-0.0094 0.16178,-0.0079 0.0438,5.64e-4 0.0841,-0.01527 0.12866,-0.01804 0.0596,-0.0037 0.11945,-0.0064 0.17907,-0.0079 0.0611,-0.0015 0.12146,-0.0087 0.18334,-0.0087 0.0395,0 0.0762,0.0015 0.11574,0.0064 0.0279,0.0029 0.0559,0.0037 0.0841,0.0029 0.008,0.0064 0.0152,0.01288 0.0236,0.01785 0.0416,0.03037 0.0834,0.07049 0.12072,0.105833 0.0475,0.04454 0.1029,0.07399 0.15092,0.115773 0.0325,0.02724 0.0453,0.05098 0.0512,0.09332 0.007,0.05393 0.0127,0.113012 0.0293,0.165468 0.0265,0.08411 0.0869,0.162523 0.0999,0.248662 -0.004,0.0029 -0.005,0.0052 -0.007,0.0079 -0.018,0.02025 -0.0381,0.04822 -0.0497,0.07197 -0.0159,0.03313 -0.006,0.06902 -0.012,0.102152 -0.006,0.03368 -0.0201,0.06534 -0.0236,0.09921 -0.008,0.07325 0.0208,0.143013 0.0251,0.21498 0.004,0.04951 0.0208,0.08908 0.0425,0.133626 0.0113,0.02301 0.0208,0.04749 0.03,0.07123 -0.004,-0.0086 -0.008,-0.01877 -0.012,-0.02798 -0.006,-0.0138 -0.0116,-0.03092 -0.0201,-0.04325 -0.0106,-0.01436 -0.0339,-0.02945 -0.0467,-0.04086 -0.0279,-0.02595 -0.0639,-0.04031 -0.0955,-0.06037 -0.0841,-0.05338 -0.1675,-0.102152 -0.24663,-0.162523 -0.0236,-0.01877 -0.0431,-0.04105 -0.0655,-0.06111 -0.0208,-0.01804 -0.0453,-0.0289 -0.0668,-0.04528 -0.0339,-0.02669 -0.0525,-0.06405 -0.0819,-0.09424 -0.0705,-0.07344 -0.14891,-0.141724 -0.23375,-0.197678 -0.0381,-0.02669 -0.0703,-0.05761 -0.11137,-0.08062 -0.0546,-0.03019 -0.10637,-0.06184 -0.16397,-0.08559 -0.0488,-0.02006 -0.092,-0.05246 -0.13805,-0.07841 -0.0631,-0.03515 -0.12791,-0.06755 -0.19325,-0.097 -0.0562,-0.02374 -0.11006,-0.05172 -0.16125,-0.08412 -0.012,-0.0079 -0.0208,-0.01362 -0.0303,-0.02227 -0.008,-0.0086 -0.0145,-0.0173 -0.0236,-0.02448 -0.0268,-0.02006 -0.0497,-0.04233 -0.0757,-0.06184 -0.0229,-0.01712 -0.0488,-0.04086 -0.0697,-0.06111 -0.0113,-0.01141 -0.0279,-0.02448 -0.0359,-0.0381 -0.005,-0.0079 -0.0201,-0.04031 -0.0187,-0.04804 0.004,-0.01307 0.0258,-0.01307 0.0353,-0.01657"
       style="fill:#21201d;fill-opacity:1;fill-rule:evenodd;stroke:none;stroke-width:0.184057"
       id="path578" />
    <path
       d="m 462.65152,-11.419513 c -0.018,-0.01086 -0.0353,-0.01657 -0.0547,-0.02448 -0.031,-0.01215 -0.0576,-0.0324 -0.0863,-0.04749 -0.0467,-0.02374 -0.0977,-0.03166 -0.14446,-0.05522 -0.0438,-0.02245 -0.0893,-0.0346 -0.13878,-0.04104 -0.051,-0.0072 -0.0992,-0.0015 -0.14817,0.0057 -0.018,-0.0035 -0.0366,-0.0042 -0.0532,0 -0.008,0.0022 -0.0166,0.0064 -0.0254,0.01013 -0.0293,0.0042 -0.0567,0.01215 -0.0826,0.02374 -0.0201,7.41e-4 -0.0409,0 -0.0604,0 -0.0318,0 -0.0705,0.0072 -0.0985,-0.01012 -0.051,-0.03166 -0.0776,-0.08411 -0.10784,-0.133074 -0.0431,-0.06957 -0.0878,-0.147983 -0.0891,-0.232097 0.0159,0.0035 0.0317,0.0072 0.0473,0.01141 0.11007,0.02871 0.22655,0.04454 0.33937,0.04454 0.13529,0 0.27041,7.41e-4 0.40549,0 0.14668,0 0.2934,0.0173 0.44009,0.0044 0.0863,-0.0072 0.1719,-7.41e-4 0.25805,-0.0037 0.0554,-0.002 0.11007,-0.01859 0.16546,-0.02448 0.0582,-0.0064 0.11578,-0.01067 0.17391,-0.01067 0.0446,7.41e-4 0.0871,-0.0086 0.13163,-0.0086 0.0445,7.41e-4 0.0863,0 0.12939,-0.0064 0.0653,-0.0094 0.13657,-0.0022 0.20282,-0.0022 h 0.12643 c 0.0145,0 0.0359,0.0044 0.0505,7.4e-4 0.0113,-0.0029 0.018,-0.0079 0.0303,-0.0094 0.0194,-0.0028 0.0374,-0.0015 0.0566,-0.0057 0.0339,-0.0079 0.0597,-0.02669 0.0913,-0.0381 0.0254,-0.0086 0.0468,-0.0072 0.0727,-0.0072 0.0208,0 0.0254,0.0015 0.0403,0.01068 0.012,0.0074 0.0328,0.01804 0.0359,0.0346 0.004,0.03092 -0.0589,0.04031 -0.0332,0.04031 -0.0502,0.04086 -0.0841,0.09626 -0.12644,0.145222 -0.0368,0.04233 -0.0598,0.09921 -0.1029,0.135098 -0.0254,0.02153 -0.0554,0.03608 -0.0812,0.0554 -0.0275,0.0208 -0.0467,0.04822 -0.0749,0.06828 -0.0208,0.01436 -0.0446,0.02301 -0.0661,0.03589 -0.0286,0.01804 -0.0524,0.0381 -0.0841,0.05117 -0.0978,0.04012 -0.17247,0.116508 -0.25456,0.181113 -0.0396,0.03092 -0.0797,0.06258 -0.1143,0.09921 -0.0208,0.02227 -0.0374,0.04749 -0.0582,0.06976 -0.0251,0.02742 -0.0561,0.04896 -0.0826,0.07546 -0.0376,0.03608 -0.0777,0.07123 -0.11945,0.102152 -0.0517,0.03736 -0.0928,0.08338 -0.13162,0.133626 -0.0265,0.03387 -0.0574,0.05393 -0.0906,0.08135 -0.004,0.0035 -0.008,0.0064 -0.0127,0.01013 0.007,-0.0173 0.0127,-0.03534 0.0187,-0.0554 0.0194,-0.07197 0.007,-0.135283 -0.004,-0.208538 -0.0123,-0.08264 -0.0159,-0.171174 -0.0403,-0.251607 -0.0116,-0.0381 -0.0359,-0.06553 -0.0561,-0.09921 -0.0201,-0.0346 -0.0539,-0.05393 -0.0856,-0.07841 -0.0353,-0.02669 -0.0703,-0.05393 -0.10841,-0.07694"
       style="fill:#21201d;fill-opacity:1;fill-rule:nonzero;stroke:none;stroke-width:0.184057"
       id="path580" />
    <path
       d="m 462.12584,-10.154114 c 0.0318,0.0037 0.0554,0.0022 0.0834,-0.0116 0.0339,-0.01638 0.0705,-0.02797 0.10583,-0.04307 0.0201,-0.0094 0.0409,-0.02153 0.0631,-0.02724 0.0201,-0.0052 0.0418,-0.0044 0.0618,-0.0094 0.0755,-0.01657 0.12664,-0.08559 0.19769,-0.106385 0.004,-7.41e-4 0.005,-0.0015 0.007,-0.0015 -0.008,0.01509 -0.0145,0.03092 -0.0254,0.04381 -0.008,0.0094 -0.018,0.0173 -0.0268,0.02669 -0.0423,0.05246 -0.0782,0.107122 -0.12643,0.155161 -0.0208,0.02245 -0.0467,0.03092 -0.0712,0.04749 -0.0187,0.01233 -0.0303,0.03313 -0.0495,0.04601 -0.008,0.0044 -0.018,0.0064 -0.0257,0.01233 -0.007,0.005 -0.009,0.01288 -0.0166,0.01712 -0.0159,0.010121 -0.0346,0.00589 -0.0517,0.00663 -0.0366,7.409e-4 -0.0898,-0.027425 -0.11282,-0.058346 -0.0173,-0.02227 -0.0332,-0.04878 -0.0532,-0.06976 -0.0116,-0.01215 -0.0261,-0.01785 -0.0403,-0.0265 -0.0109,-0.0057 -0.0201,-0.01362 -0.03,-0.02227 0.004,0.0013 0.008,0.0035 0.0127,0.005 0.0303,0.01013 0.0668,0.01215 0.0985,0.01583"
       style="fill:#21201d;fill-opacity:1;fill-rule:nonzero;stroke:none;stroke-width:0.184057"
       id="path582" />
    <path
       d="m 462.12955,-10.769604 c 0.005,0.02522 0.0366,0.05393 0.0539,0.07197 0.0145,0.01362 0.0303,0.02448 0.0431,0.04031 0.0159,0.01859 0.0272,0.03663 0.0497,0.0473 0.0272,0.01307 0.0696,0.03681 0.0977,0.02374 0.0229,-0.01068 0.0403,-0.03221 0.0618,-0.04528 0.0328,-0.01859 0.0611,-0.03515 0.0804,-0.06902 0.0166,-0.02871 0.0554,-0.04878 0.0683,-0.07896 0.01,-0.02246 0.004,-0.07344 -0.006,-0.0935 -0.0109,-0.02742 -0.0339,-0.04454 -0.0532,-0.06552 -0.0102,-0.0099 -0.0215,-0.01785 -0.0265,-0.0324 -0.004,-0.01215 -0.018,-0.01288 -0.0289,-0.01565 -0.008,-0.0029 -0.018,-0.0074 -0.0264,-0.0079 -0.01,-7.41e-4 -0.0194,0 -0.0289,0 h -0.0286 c -0.01,0 -0.0208,0.0028 -0.031,0.002 -0.004,0 -0.006,0 -0.01,7.41e-4 -0.0116,0.0029 -0.0226,0.0064 -0.0346,0.0072 -0.0127,0.0015 -0.0257,0.0015 -0.0388,0.0044 -0.0254,0.0035 -0.031,0.01509 -0.046,0.03589 -0.0113,0.0173 -0.0229,0.03515 -0.0359,0.05098 -0.0138,0.01583 -0.0366,0.02448 -0.0482,0.03957 -0.0145,0.01951 -0.0173,0.05908 -0.012,0.08411 m -0.49696,-0.167493 c 0.007,-0.01141 0.0123,-0.01509 0.0194,-0.02522 0.0279,-0.03589 0.0381,-0.08191 0.069,-0.116325 0.031,-0.03387 0.0834,-0.04749 0.0906,-0.09994 0.004,-0.02301 -0.0113,-0.0289 -0.0173,-0.04749 0,-0.0064 0,-0.01436 0,-0.02227 0.0208,-0.01086 0.0368,-0.01436 0.0353,0.0013 0.0467,-0.02945 0.092,-0.06755 0.14227,-0.09056 0.0116,-0.005 0.0229,-0.0092 0.0353,-0.01362 0.0265,-0.0015 0.0631,-0.0064 0.0856,0 0.0162,0.0057 0.0145,0.02227 0.0258,0.0346 0.004,0.0028 0.0159,0.0085 0.0201,0.01141 0.0113,0.0079 0.0187,0.01583 0.0335,0.01657 0.004,0.0094 0.004,0.01509 0.008,0.02153 0.008,-0.01583 -0.004,-0.03736 0,-0.05319 0.006,-0.02227 0.0222,-0.0087 0.0418,-0.01436 l 0.004,-0.01436 c 0.0286,-0.01012 0.0438,0.0079 0.0676,0.01785 0.0166,0.0072 0.0261,0.0029 0.0425,0.0066 0.012,0.0013 0.0215,0.01509 0.0317,0.01712 0.0152,0.0022 0.0251,-0.0208 0.0367,-0.03018 0.0113,0.0059 0.0229,0.0116 0.0353,0.01583 0.0268,0.01012 0.046,0.01877 0.0683,0.03736 0.0275,0.02227 0.0554,0.04252 0.0814,0.06626 0.0243,0.02227 0.0431,0.05098 0.0661,0.07473 0.0388,0.04104 0.0735,0.09774 0.0957,0.149455 0.0222,0.05393 0.0173,0.125895 0.0162,0.183505 0,0.02724 -0.004,0.04657 -0.0169,0.07105 -0.0138,0.02448 -0.0236,0.05393 -0.0396,0.07694 -0.0159,0.02227 -0.0453,0.03166 -0.0648,0.0519 -0.0286,0.02945 -0.0335,0.07325 -0.0596,0.104176 -0.0194,0.02301 -0.0532,0.0416 -0.0762,0.06111 -0.0229,0.01933 -0.0411,0.0265 -0.0705,0.03387 -0.0229,0.005 -0.0396,0.01565 -0.0604,0.02356 -0.0366,0.01307 -0.0762,0.01454 -0.11281,0.02816 -0.0236,0.0079 -0.0433,0.0208 -0.0676,0.02522 -0.0353,0.005 -0.0727,0.0077 -0.10859,0.0099 -0.046,0.0029 -0.0754,-0.01141 -0.1143,-0.03368 -0.0411,-0.02374 -0.0813,-0.04325 -0.10932,-0.08283 -0.0403,-0.05595 -0.0734,-0.116324 -0.10788,-0.176143 -0.0303,-0.05172 -0.0618,-0.101232 -0.095,-0.151664 -0.0159,-0.02301 -0.0346,-0.04822 -0.0409,-0.0762 -0.006,-0.02153 0,-0.04749 0,-0.07049 0.006,-0.0057 0.006,-0.01362 0.0106,-0.02153"
       style="fill:#21201d;fill-opacity:1;fill-rule:nonzero;stroke:none;stroke-width:0.184057"
       id="path584" />
    <path
       d="m 459.6238,-12.224766 c 0.036,-0.04675 0.0618,-0.08706 0.11448,-0.116509 0.0353,-0.01859 0.0732,-0.02797 0.10841,-0.04528 0.0229,-0.01012 0.0447,-0.02448 0.067,-0.03663 0.0173,-0.01012 0.0314,-0.02301 0.0495,-0.03092 0.0374,-0.0173 0.0913,-0.01288 0.12936,-0.0029 0.0261,0.0072 0.049,0.01877 0.0755,0.02374 0.0275,0.0044 0.0512,0.01012 0.0769,0.01804 0.0303,0.01013 0.0663,0.01509 0.0972,0.0208 0.0661,0.0116 0.1294,0.02945 0.19399,0.04307 0.12242,0.02522 0.21075,0.123687 0.30131,0.200623 0.0236,0.01951 0.046,0.03884 0.072,0.05614 -0.0928,-0.005 -0.18627,-0.005 -0.27905,-0.0072 -0.21424,-0.0057 -0.42774,0.0042 -0.64124,0.01215 -0.11155,0.0052 -0.22289,0.0086 -0.33444,0.0094 -0.0215,7.41e-4 -0.0445,-7.4e-4 -0.0661,0.0037 -0.0268,0.0057 -0.0517,0.0208 -0.0791,0.02374 -0.005,0.0013 -0.0106,0.0013 -0.0159,5.65e-4 0.01,-0.0243 0.0173,-0.04951 0.0303,-0.06957 0.0282,-0.04178 0.0697,-0.06479 0.1,-0.102888"
       style="fill:#21201d;fill-opacity:1;fill-rule:nonzero;stroke:none;stroke-width:0.184057"
       id="path586" />
    <path
       d="m 458.8165,-11.868798 c 0.018,0.02503 0.0346,0.04528 0.0668,0.04454 0.0272,0 0.0503,-0.0037 0.069,-0.02669 0.0138,-0.01785 0.0113,-0.03663 0.0359,-0.0438 0.013,-0.0029 0.0374,7.4e-4 0.0512,0.0015 0.0173,0 0.0279,0.005 0.0438,0.01068 0.0166,0.0064 0.0318,0.0037 0.0475,0.0079 0.0265,0.0072 0.056,0.03387 0.0797,0.04822 0.0236,0.01509 0.0504,0.02724 0.0776,0.02798 0.007,7.41e-4 0.0282,0.0044 0.0332,-0.0013 0.006,-0.0059 0,-0.02374 0.004,-0.03166 0.0229,0 0.0279,-0.02153 0.0408,-0.03736 0.0187,-0.02301 0.0381,-0.04031 0.0517,-0.067 0.008,-0.01583 0.0152,-0.03295 0.0268,-0.04675 0.006,-0.0079 0.0138,-0.01288 0.0208,-0.01933 0.004,0.0079 0.01,0.01509 0.0159,0.02227 0.0438,0.05098 0.0885,0.102152 0.13455,0.150928 0.0769,0.08062 0.15166,0.161051 0.2365,0.233753 0.0604,0.05172 0.12294,0.09774 0.1905,0.140805 0.0705,0.04473 0.13582,0.09571 0.20137,0.145958 0.0539,0.04178 0.11207,0.07565 0.15314,0.131601 0.0374,0.05117 0.0898,0.09718 0.13949,0.136571 0.0236,0.01951 0.048,0.04031 0.0755,0.05117 0.0166,0.0057 0.0286,0.01013 0.0445,0.01933 0.0346,0.02153 0.0668,0.04454 0.0992,0.06976 0.0303,0.02227 0.0633,0.03589 0.092,0.06037 0.0145,0.01233 0.0261,0.0173 0.0423,0.02522 0.0318,0.01362 0.0576,0.04031 0.0856,0.0589 0.0547,0.03534 0.11229,0.06626 0.16475,0.104361 0.0804,0.0589 0.14298,0.132337 0.21847,0.197678 0.0418,0.03589 0.0784,0.07915 0.11575,0.120742 0.0712,0.07841 0.16104,0.150375 0.2437,0.217925 0.0965,0.07841 0.187,0.163811 0.28324,0.242956 0.0236,0.018775 0.0497,0.035891 0.072,0.056874 0.0131,0.01215 0.0215,0.028713 0.0332,0.041597 0,0.024479 0.01,0.051904 0.01,0.073439 0,0.049512 -0.008,0.099944 -0.005,0.149455 0,0.012333 0.004,0.023008 0.007,0.034604 0.008,0.018591 0.0201,0.03442 0.0254,0.054665 0.01,0.033683 0.005,0.071782 0.008,0.1063854 0.004,0.040125 0.006,0.08117 0.005,0.1214783 0,0.023008 0.004,0.046014 0,0.069022 -0.004,0.018038 -0.008,0.033129 -0.0102,0.050984 0,0.031658 0.006,0.048223 0.0159,0.076936 0.0324,0.087796 -0.0152,0.1805609 0.005,0.269645 0.0166,0.079145 0.007,0.1697013 0.006,0.2493984 0,0.040309 0.009,0.078409 0.009,0.1187175 v 0.079145 c 0,0.053192 0,0.1071216 0,0.1603142 0,0.030921 -0.0116,0.066077 -0.004,0.096999 0.004,0.013621 0.0116,0.025954 0.0152,0.039573 0.0102,0.040309 0.005,0.082642 0.005,0.1236867 0,0.053929 -0.008,0.1078579 -0.008,0.1625233 0,0.043806 -0.008,0.084851 -0.008,0.12792 0,0.037364 -0.01,0.071967 -0.009,0.1085946 0,0.049511 0.004,0.097735 -0.0109,0.1459579 -0.01,0.030921 -0.009,0.061843 -0.0215,0.093501 -0.0145,0.034417 0,0.061843 0,0.096998 0,0.013621 -0.007,0.033129 0,0.046751 0.004,0.00349 0.005,0.0057 0.006,0.00718 -0.0145,7.408e-4 -0.0282,0.00148 -0.0418,0.00222 -0.0503,0.00131 -0.10069,0.00275 -0.15092,0.00423 -0.0547,0.00222 -0.10862,-0.0057 -0.16401,-0.00423 -0.0985,0.00275 -0.18404,0.025033 -0.27315,0.066813 -0.0813,0.038836 -0.16895,0.059635 -0.25234,0.092765 -0.0131,0.00497 -0.0296,0.00791 -0.041,0.014354 0.008,-0.00423 0.0173,-0.00644 0.0261,-0.010859 -0.0187,0.00293 -0.046,0.015829 -0.0591,0.029633 -0.0257,0.027241 0.0138,0.072519 0.041,0.082642 0.0145,0.0057 0.031,0.0057 0.046,0.00718 0.0848,0.00275 0.16894,-0.00293 0.25379,0.00275 0.0891,0.00663 0.17893,-0.00201 0.26818,0.00589 0.0955,0.0092 0.19473,0.00349 0.29192,0.00275 0.11575,0 0.23079,-0.0057 0.34657,-0.00792 0.071,-0.00131 0.14153,-0.0092 0.2135,-0.00865 0.069,7.408e-4 0.13586,0.00589 0.20412,0.013804 0.13088,0.015829 0.25954,0.012883 0.39186,0.01215 0.0539,0 0.14228,0.0208 0.19199,-0.0173 0.0145,-0.011412 0.0353,-0.053929 0.0215,-0.071782 -0.008,-0.011596 -0.0325,-0.00939 -0.0453,-0.013067 -0.0648,-0.015829 -0.1259,-0.043806 -0.18979,-0.062396 -0.0166,-0.00515 -0.0325,-0.010859 -0.0482,-0.018038 -0.0236,-0.010125 -0.046,-0.024479 -0.069,-0.035154 -0.074,-0.035339 -0.15737,-0.048223 -0.23872,-0.04675 -0.0286,7.408e-4 -0.0532,-0.00293 -0.0812,-0.00663 -0.0222,-0.00201 -0.0482,0.00148 -0.0712,0.00293 -0.0194,7.408e-4 -0.0403,0.00148 -0.0596,0.00148 -0.0208,0 -0.0367,0.00718 -0.0562,0.010675 -0.0272,0.00368 -0.0517,-0.00423 -0.0777,-0.00773 -0.0328,-0.00368 -0.0668,-0.00589 -0.0985,-0.016566 0.004,-0.020983 -0.0102,-0.048223 -0.0102,-0.067733 0,-0.032946 -0.004,-0.066813 0,-0.099207 0,-0.021534 0.0138,-0.040861 0.0194,-0.061843 0.0109,-0.032946 0.0187,-0.07031 0.0222,-0.1049133 0.005,-0.048223 0,-0.09479 0.008,-0.1430129 0.005,-0.024479 0.0152,-0.053193 0.0102,-0.078409 -0.01,-0.050248 -0.0208,-0.1021521 -0.0286,-0.1531359 -0.007,-0.039573 -0.0303,-0.073255 -0.031,-0.1128279 0,-0.039572 0.008,-0.077672 0.008,-0.1172446 0,-0.027241 0.0109,-0.054665 0.0173,-0.081906 0.013,-0.051905 0.01,-0.1043609 0.01,-0.1575538 v -0.1301288 c 0,-0.1006796 0.007,-0.2055928 0,-0.3062724 -0.01,-0.1185334 -0.008,-0.2379867 -0.008,-0.3572563 v -0.4062159 c 0,-0.0173 0.004,-0.030187 0.006,-0.046751 0.007,-0.034604 0.006,-0.073439 0.008,-0.1078579 0.004,-0.039573 0.006,-0.078409 0.007,-0.117245 0,-0.015092 0.004,-0.02945 0.004,-0.04307 0.007,-0.00644 0.0137,-0.013621 0.0222,-0.022271 0.0173,-0.016566 0.0261,-0.025217 0.0381,-0.044726 0.0229,-0.038652 0.0712,-0.071046 0.10365,-0.1012317 0.048,-0.046015 0.0977,-0.092029 0.14651,-0.1373069 0.0655,-0.06111 0.11299,-0.132338 0.17116,-0.199151 0.0268,-0.03037 0.0539,-0.05982 0.0791,-0.09074 0.0272,-0.03368 0.048,-0.07031 0.079,-0.100496 0.0655,-0.06405 0.13084,-0.121662 0.20704,-0.172646 0.0618,-0.04178 0.11374,-0.0878 0.16401,-0.141725 0.0489,-0.05319 0.0841,-0.117797 0.13582,-0.167493 0.0655,-0.06258 0.11081,-0.151663 0.18919,-0.19915 0.0646,-0.03957 0.12224,-0.08761 0.18557,-0.129393 0.0366,-0.02448 0.0703,-0.05246 0.10121,-0.08338 0.0159,-0.01583 0.0361,-0.03092 0.0539,-0.04381 0.0257,-0.01951 0.046,-0.04178 0.069,-0.06405 0.0403,-0.04031 0.0863,-0.07197 0.12224,-0.115773 0.0282,-0.03515 0.0482,-0.07546 0.0821,-0.104177 0.0201,-0.0173 0.0328,-0.03957 0.0517,-0.05761 0.0265,-0.02577 0.0589,-0.04012 0.0819,-0.07049 0.0275,-0.03515 0.0194,-0.07749 0.0388,-0.1143 0.007,-0.01362 0.0173,-0.02227 0.0201,-0.0381 0.004,-0.01933 -0.007,-0.03221 -0.01,-0.05098 0,-0.0037 0,-0.0064 -0.004,-0.0094 -0.006,-0.02375 -0.0272,-0.02522 -0.0554,-0.02006 -0.0215,0.0042 -0.0359,0.0079 -0.0589,0.0072 -0.10562,-0.0022 -0.21202,-0.005 -0.31785,-0.0079 -0.1143,-0.0022 -0.2286,-0.005 -0.3429,-0.0079 -0.10933,-0.0037 -0.21717,0.0035 -0.32558,0.0022 -0.0821,-7.41e-4 -0.164,-0.0072 -0.24592,-0.0052 -0.11374,0.0037 -0.22931,0.01951 -0.34234,0.0289 -0.22563,0.0208 -0.45074,0.01859 -0.67786,0.01288 -0.22292,-0.0064 -0.4458,-0.01086 -0.66869,-0.0208 -0.006,-0.05466 -0.0388,-0.09276 -0.0769,-0.132337 -0.0194,-0.01951 -0.0279,-0.02301 -0.0546,-0.03019 -0.0468,-0.01159 -0.0913,-0.03166 -0.13879,-0.04325 -0.0374,-0.0085 -0.0755,-0.0099 -0.11356,-0.01712 -0.0438,-0.0086 -0.0849,-0.01804 -0.12939,-0.02025 -0.0668,-0.0042 -0.1064,-0.03663 -0.15756,-0.07399 -0.0335,-0.02522 -0.0524,-0.05614 -0.0782,-0.08632 -0.025,-0.02945 -0.0633,-0.05098 -0.0935,-0.07473 -0.0243,-0.01877 -0.0381,-0.01288 -0.067,-0.02669 -0.0408,-0.01933 -0.0797,-0.04601 -0.12499,-0.05595 -0.0374,-0.0079 -0.0742,-0.01362 -0.11077,-0.02742 -0.051,-0.01933 -0.10714,-0.0208 -0.16108,-0.02797 -0.0335,-0.005 -0.0661,-0.0064 -0.0999,-0.0057 -0.0328,0 -0.0675,-0.01233 -0.0992,-0.01012 -0.0258,0.0015 -0.0438,0.02448 -0.0683,0.03239 -0.0388,0.01141 -0.0812,-0.0079 -0.10862,0.02945 -0.0201,0.02724 -0.0366,0.04675 -0.0639,0.06902 -0.0212,0.01657 -0.0201,0.04307 -0.0388,0.06332 -0.0497,0.05319 -0.12093,0.07326 -0.17191,0.124423 -0.0243,0.0243 -0.0532,0.03589 -0.0819,0.05375 -0.0332,0.02098 -0.0243,0.05761 -0.0433,0.08706 -0.012,0.01877 -0.0303,0.02945 -0.0423,0.04749 0,0.0087 -0.005,0.01509 -0.0116,0.02006 -0.009,0.0029 -0.0173,0.0064 -0.025,0.0116 -0.0152,0.01288 -0.0201,0.04031 -0.0339,0.05614 -0.012,0.01509 -0.0272,0.02871 -0.0423,0.04012 -0.0229,0.01877 -0.0453,0.04749 -0.072,0.05908 -0.0438,0.01785 -0.0963,-0.0022 -0.14171,0.01068 -0.0279,0.0086 -0.0503,0.01436 -0.0804,0.0094 -0.031,-0.0044 -0.0597,-0.01657 -0.092,-0.01657 -0.0532,-7.41e-4 -0.097,0.0346 -0.14816,0.04601 -0.006,0.01804 0.0173,0.05098 0.0275,0.06553 m -1.10948,2.3638557 c 0.0138,-0.064604 0.0433,-0.1207421 0.031,-0.1954696 -0.012,-0.072703 0.0346,-0.1437492 0.0784,-0.2070651 v 0.042333 l 0.0152,0.00148 c 0.004,-0.035154 0.0109,-0.07123 0.005,-0.1041766 -0.0187,-0.1100664 -0.0445,-0.2186604 -0.0631,-0.3285434 -0.006,-0.03092 -0.005,-0.06552 0.004,-0.09571 0.0244,-0.101416 0.0519,-0.202096 0.0799,-0.302039 0.0236,-0.08264 0.0467,-0.16602 0.0755,-0.24719 0.0173,-0.04896 0.0431,-0.09497 0.0668,-0.140252 0.0102,-0.01877 0.0275,-0.03313 0.0403,-0.05043 0.006,-0.0079 0.008,-0.01638 0.0124,-0.02577 0.0187,-0.05098 -0.0229,-0.104913 0.006,-0.156818 0.01,-0.01712 0.0152,-0.03884 0.018,-0.0589 0.007,-0.05761 0.0124,-0.115036 0.0187,-0.172646 0,-0.0099 0.004,-0.0208 0.01,-0.02871 0.0317,-0.04381 0.0646,-0.08688 0.0963,-0.131601 0.005,-0.0072 0.004,-0.0208 0.004,-0.03589 0.0718,-0.0646 0.10417,-0.166021 0.18037,-0.23946 0.0676,-0.06534 0.11081,-0.156633 0.16549,-0.23725 0.0359,-0.05246 0.0732,-0.103441 0.10784,-0.15737 0.0303,-0.04601 0.0797,-0.07694 0.0849,-0.144485 0.004,-0.03681 0.0416,-0.07565 0.0725,-0.104361 0.0618,-0.05743 0.1294,-0.109331 0.19491,-0.16326 0,0.0094 0.004,0.02098 0.004,0.03166 0.005,0.0022 0.008,0.0037 0.0123,0.0052 0.0258,-0.03736 0.051,-0.0762 0.0775,-0.1143 0.0173,-0.02448 0.0354,-0.04822 0.0527,-0.0727 0.0131,-0.01804 0.0265,-0.03589 0.0394,-0.05393 0.0201,-0.03092 0.0403,-0.06258 0.0611,-0.0935 0.008,-0.0099 0.0173,-0.01859 0.0254,-0.02871 0.0317,-0.04105 0.0604,-0.08412 0.0942,-0.122951 0.008,-0.01012 0.0293,-0.01086 0.0453,-0.01288 0.0229,-0.0029 0.0475,7.41e-4 0.069,-0.0059 0.0913,-0.0265 0.18334,-0.05319 0.27242,-0.08467 0.0368,-0.0138 0.072,-0.03681 0.0999,-0.06332 0.0848,-0.08264 0.19141,-0.137308 0.27111,-0.2286 0.0425,-0.04749 0.1108,-0.07418 0.16968,-0.105097 0.0654,-0.03368 0.13438,-0.06313 0.20211,-0.09405 0.0366,-0.01657 0.074,-0.0381 0.11282,-0.04399 0.0762,-0.01067 0.15462,-0.01067 0.23082,-0.01859 0.0891,-0.0079 0.18112,-0.0015 0.26374,-0.04675 0.0878,-0.04822 0.18408,-0.03957 0.27904,-0.04031 0.007,0 0.0152,7.4e-4 0.0201,0.005 0.0426,0.03957 0.0908,0.02301 0.13752,0.01454 0.007,-0.0015 0.0113,-0.01951 0.0187,-0.03313 0.0222,-0.0037 0.0497,-0.01012 0.0777,-0.01012 0.0589,-7.41e-4 0.11874,0.0015 0.17762,0.0022 0.0618,7.41e-4 0.12369,0.0064 0.18479,0.0015 0.0574,-0.0052 0.11359,-0.02025 0.17099,-0.03092 0,0 0,-0.0029 0.004,-0.0029 0.0236,-0.0029 0.049,-0.01215 0.0697,-0.005 0.0532,0.01785 0.1064,0.03884 0.15462,0.06755 0.0254,0.01436 0.0661,0.02227 0.0653,0.06681 0,0.0064 0.0102,0.01509 0.0173,0.01951 0.0293,0.01583 0.0604,0.03092 0.0899,0.04675 0,-0.0044 0,-0.0094 0,-0.01454 0.008,-0.0013 0.018,-0.0064 0.0258,-0.0042 0.0431,0.0087 0.0863,0.0208 0.13014,0.02871 0.0173,0.0029 0.0366,-0.0079 0.0539,-0.0042 0.0683,0.01141 0.13582,0.02522 0.20281,0.03884 0.0834,0.01583 0.16602,0.03166 0.24941,0.04822 0.0116,0.0013 0.0229,0.0099 0.0339,0.0085 0.0762,-0.01068 0.1408,0.03092 0.21128,0.04546 0.0127,0.0028 0.0222,0.01859 0.0332,0.02871 0,0.002 -0.005,0.0035 -0.006,0.0057 l -0.0641,-0.0208 c 0,0.0035 -0.004,0.0079 -0.005,0.01215 0.0453,0.03018 0.0898,0.06037 0.13437,0.09129 0.004,-0.0064 0.005,-0.01215 0.006,-0.01933 0.0159,0.0015 0.0346,-0.0022 0.0475,0.005 0.0381,0.02153 0.0748,0.04822 0.11229,0.0727 0.0604,0.03939 0.1178,0.08485 0.18186,0.118533 0.046,0.02448 0.10269,0.02742 0.14944,0.05043 0.11006,0.05522 0.22013,0.112827 0.29192,0.219213 0.0261,0.03957 0.0561,0.0762 0.0906,0.122214 0.008,-0.01657 0.0131,-0.02522 0.0152,-0.03092 0.0835,0.06976 0.11373,0.167493 0.16545,0.250871 0.0475,0.0762 0.0955,0.154609 0.15812,0.217925 0.0755,0.07694 0.1675,0.137307 0.25029,0.207802 0.0804,0.06976 0.0955,0.172462 0.12076,0.268908 0.0102,0.03957 0.0187,0.07896 0.0286,0.118533 0.005,-0.0013 0.008,-0.002 0.0138,-0.0035 0,-0.0116 -0.004,-0.02301 -0.004,-0.0346 0.0201,0.01877 0.0272,0.04252 0.0396,0.06332 0.0272,0.04307 0.0567,0.08485 0.0861,0.126632 0.007,0.01067 0.018,0.01933 0.0261,0.03018 0.0453,0.06755 0.0913,0.135099 0.13529,0.204121 0.008,0.01215 0.0106,0.02724 0.0145,0.04233 0.018,0.07638 0.0339,0.153872 0.0539,0.230072 0.0194,0.06976 0.0445,0.138044 0.0668,0.207066 l 0.0106,-0.0028 c 0.004,-0.0072 0.005,-0.01436 0.007,-0.01804 0.008,0.04381 0.0194,0.0878 0.0236,0.133075 0.006,0.05743 0.004,0.115772 0.008,0.173934 0.005,0.05964 -0.006,0.120742 0.0258,0.177616 0.018,0.03166 0.0339,0.06755 0.0396,0.102888 0.0261,0.155161 0.0453,0.310506 0.12643,0.451495 0.0583,0.1012311 0.0626,0.2164515 0.0425,0.3285428 -0.0332,0.1833216 -0.0648,0.3666433 -0.1373,0.5392896 -0.005,0.00994 -0.0152,0.017117 -0.0222,0.026504 -0.0236,0.037364 -0.0475,0.073991 -0.0712,0.1115391 0.004,0.00201 0.006,0.00349 0.008,0.0057 0.01,-0.00368 0.0173,-0.00791 0.0265,-0.011596 -0.0401,0.052456 -0.0473,0.1179813 -0.0286,0.1674926 0.0208,0.055402 0.0187,0.098655 -0.005,0.1466941 -0.004,-0.00423 -0.005,-0.00865 -0.0131,-0.023742 -0.004,0.043254 -0.007,0.074912 -0.0102,0.1071217 -0.004,0.033867 -0.004,0.068469 -0.01,0.1014158 -0.0332,0.1899479 -0.10858,0.3666434 -0.1754,0.5457317 -0.0661,0.1805608 -0.18627,0.3285437 -0.28254,0.4910667 -0.0504,0.086323 -0.12019,0.1639958 -0.20429,0.2258391 -0.0948,0.069758 -0.1905,0.1365709 -0.25658,0.2414838 -0.0467,0.073439 -0.11945,0.1316016 -0.18478,0.1927087 -0.10291,0.096999 -0.20708,0.1927088 -0.31493,0.2847376 -0.1675,0.142277 -0.3315,0.2926521 -0.55936,0.3342491 -0.0152,0.00222 -0.0317,0 -0.0467,0.00293 -0.0539,0.00939 -0.11064,0.011412 -0.15957,0.031658 -0.0504,0.021534 -0.0928,0.061107 -0.13878,0.091293 -0.008,0.0057 -0.0194,0.00497 -0.0286,0.00644 -0.0159,0.00222 -0.0339,0 -0.0453,0.00791 -0.09,0.064789 -0.18404,0.1187175 -0.29263,0.1481667 -0.0777,0.0208 -0.1524,0.050248 -0.2286,0.077672 -0.0243,0.00847 -0.0475,0.030921 -0.072,0.031475 -0.0935,0.00222 -0.17614,0.04399 -0.26521,0.06258 -0.13089,0.026688 -0.26102,0.061843 -0.38838,-0.014358 -0.0138,-0.00792 -0.0366,-0.00349 -0.0554,-0.00222 -0.018,0.00222 -0.0367,0.013067 -0.0539,0.010858 -0.17248,-0.0208 -0.34364,-0.043806 -0.51538,-0.066077 -0.087,-0.010858 -0.17335,-0.020246 -0.2595,-0.031658 -0.0692,-0.00792 -0.13748,-0.015829 -0.20503,-0.028162 -0.0856,-0.015092 -0.17043,-0.03442 -0.2551,-0.052456 -0.005,-7.408e-4 -0.009,7.409e-4 -0.0131,0 -0.0403,-0.00644 -0.0848,-0.00423 -0.11853,-0.021533 -0.10213,-0.053193 -0.19989,-0.1150359 -0.29983,-0.1731984 -0.03,-0.018038 -0.0554,-0.052457 -0.0979,-0.021717 -0.004,0.00368 -0.0162,-0.00275 -0.0243,-0.00718 -0.1029,-0.052457 -0.21424,-0.078961 -0.32727,-0.096262 -0.0797,-0.012883 -0.1143,-0.074727 -0.15956,-0.1266317 -0.004,-0.00497 -0.004,-0.016383 -0.004,-0.031475 0.0155,0.014355 0.0272,0.024296 0.0386,0.034417 0.004,-0.00222 0.007,-0.00423 0.0102,-0.00644 -0.012,-0.020062 -0.0201,-0.045278 -0.0366,-0.059635 -0.0705,-0.059083 -0.13952,-0.1194537 -0.20926,-0.1790883 -0.1027,-0.087612 -0.18186,-0.2020958 -0.30629,-0.2667 -0.0467,-0.025217 -0.0826,-0.07123 -0.12442,-0.1071217 -0.008,-0.00644 -0.0201,-0.010859 -0.031,-0.014358 -0.0948,-0.036627 -0.18535,-0.076936 -0.23061,-0.1783521 -0.0383,-0.08706 -0.0769,-0.1746709 -0.12167,-0.2580492 -0.0222,-0.041045 -0.0547,-0.077672 -0.0883,-0.1100667 -0.13585,-0.1286566 -0.28052,-0.2495825 -0.36664,-0.4220449 -0.0303,-0.059635 -0.0705,-0.1135638 -0.10583,-0.1704376 -0.0106,-0.017854 -0.0201,-0.036627 -0.0272,-0.055954 -0.03,-0.08209 -0.0633,-0.1639954 -0.0891,-0.24811 -0.0229,-0.077673 -0.0388,-0.1581058 -0.0554,-0.2372505 -0.0127,-0.059635 -0.018,-0.120742 -0.0339,-0.1790883 -0.0208,-0.079145 -0.0611,-0.1546088 -0.0683,-0.2343058 -0.007,-0.081354 -0.0243,-0.1595784 -0.0431,-0.2379871 -0.008,-0.032396 -0.025,-0.066997 -0.0194,-0.096446"
       style="fill:#21201d;fill-opacity:1;fill-rule:nonzero;stroke:none;stroke-width:0.184057"
       id="path588" />
  </g>
</svg>
