<?xml version="1.0" encoding="UTF-8" standalone="no"?>
<!-- Created with Inkscape (http://www.inkscape.org/) -->

<svg
   width="8.2145796mm"
   height="8.2592993mm"
   viewBox="0 0 8.2145796 8.2592993"
   version="1.1"
   id="svg2083"
   inkscape:version="1.1.2 (0a00cf5339, 2022-02-04)"
   sodipodi:docname="rm3.svg"
   xmlns:inkscape="http://www.inkscape.org/namespaces/inkscape"
   xmlns:sodipodi="http://sodipodi.sourceforge.net/DTD/sodipodi-0.dtd"
   xmlns="http://www.w3.org/2000/svg"
   xmlns:svg="http://www.w3.org/2000/svg">
  <sodipodi:namedview
     id="namedview2085"
     pagecolor="#ffffff"
     bordercolor="#666666"
     borderopacity="1.0"
     inkscape:pageshadow="2"
     inkscape:pageopacity="0.0"
     inkscape:pagecheckerboard="0"
     inkscape:document-units="mm"
     showgrid="false"
     inkscape:zoom="0.64052329"
     inkscape:cx="-1259.9074"
     inkscape:cy="459.78032"
     inkscape:window-width="2560"
     inkscape:window-height="1376"
     inkscape:window-x="0"
     inkscape:window-y="0"
     inkscape:window-maximized="1"
     inkscape:current-layer="layer1" />
  <defs
     id="defs2080" />
  <g
     inkscape:label="Layer 1"
     inkscape:groupmode="layer"
     id="layer1"
     transform="translate(-438.29786,-26.85079)">
    <path
       d="m 442.67679,31.77224 h -0.0782 c -0.0433,0 -0.0539,0.0072 -0.0526,-0.03957 7e-4,-0.0302 -0.008,-0.05043 -0.0136,-0.07841 -0.006,-0.03239 -0.003,-0.05688 -0.0158,-0.08835 -0.0179,-0.04325 -0.0596,-0.07418 -0.10068,-0.09424 -0.0258,-0.01288 -0.0639,-0.02522 -0.092,-0.02667 -0.0287,-0.0021 -0.051,0.01012 -0.0782,0.01309 -0.0482,0.005 -0.12221,0.03883 -0.14099,0.09056 -0.0151,0.03957 0.004,0.06976 0.0109,0.10565 0.002,0.01013 0.001,0.02872 0,0.03957 -0.004,0.023 0.002,0.02007 -0.0202,0.02649 -0.0258,0.0072 -0.1408,0.0094 -0.15811,-0.01362 0.0136,-0.01143 0.008,-0.04233 0.008,-0.0589 -7.1e-4,-0.02025 0.006,-0.03313 0.01,-0.04896 0.004,-0.01933 7.1e-4,-0.03957 0.006,-0.0589 0.004,-0.01362 0.0129,-0.03239 0.0193,-0.04528 0.0158,-0.03164 0.0396,-0.06405 0.0576,-0.0935 0.025,-0.04105 0.0567,-0.05246 0.1027,-0.06111 0.049,-0.0094 0.11007,7.05e-4 0.15958,7.05e-4 0.0705,0 0.11724,-7.05e-4 0.17982,0.03238 0.0272,0.01436 0.051,0.03663 0.0777,0.05246 0.0287,0.01729 0.0589,0.02946 0.0804,0.05467 0.0289,0.03514 0.044,0.06534 0.0554,0.109146 0.006,0.02522 0.0267,0.0519 0.0223,0.07767 0.004,-0.01214 0.007,-0.01143 0.0109,-0.01069 0.005,0.03164 0.0201,0.05595 0.0158,0.08908 -0.004,0.03957 -0.0287,0.02667 -0.0655,0.02667"
       style="fill:#21201d;fill-opacity:1;fill-rule:evenodd;stroke:none;stroke-width:0.184057"
       id="path590" />
    <path
       d="m 442.61495,29.014869 c -0.0201,0.02448 -0.0302,0.0052 -0.0453,-0.01362 -0.028,-0.03387 -0.0733,-0.04675 -0.10344,-0.07914 -0.008,-0.0086 -0.0116,-0.02226 -0.0208,-0.02946 -0.0116,-0.0086 -0.018,-0.0042 -0.0304,-0.0086 -0.0151,-0.0072 -0.0208,-0.01436 -0.0236,-0.02374 -7.1e-4,0.0014 -0.002,0.0028 -0.003,0.0044 -0.006,0.01436 -0.006,0.03295 -0.0158,0.04602 -0.004,0.0065 -0.0144,0.0086 -0.0193,0.0151 -0.0123,0.01436 -0.023,0.03164 -0.0331,0.04878 -0.0202,0.03681 -0.0188,0.09497 -0.0475,0.120925 -0.0287,0.02649 -0.0834,0.02797 -0.11871,0.03957 -0.0337,0.0099 -0.0711,0.04454 -0.10492,0.03295 -0.0453,-0.0151 -0.0309,-0.0705 -0.0403,-0.107121 -0.008,-0.03238 -0.0423,-0.06902 -0.0129,-0.08835 -0.0166,-0.02522 -0.0351,-0.0519 -0.0547,-0.07418 -0.0179,-0.01933 -0.0431,-0.03663 -0.0475,-0.06534 -0.004,-0.02946 0.008,-0.03239 0.0309,-0.04307 0.0317,-0.01453 0.0618,-0.03608 0.0856,-0.06332 l 0.026,0.03884 c 0.0173,0.0042 0.0302,0.02374 0.041,0.03663 0.0236,0.0302 0.0466,0.05964 0.0711,0.08908 0.009,-0.0114 0.0158,-0.02501 0.0202,-0.0416 0.0136,-0.04822 0.0272,-0.100679 0.0604,-0.139516 0.0237,-0.02946 0.0676,-0.05098 0.0977,-0.07546 0.0431,-0.03461 0.0792,-0.07418 0.11927,-0.111538 0.0252,-0.02374 0.0381,-0.06608 0.0512,-0.097 0.009,-0.023 0.01,-0.04105 0.01,-0.06553 -7.1e-4,-0.02723 -0.004,-0.03663 0.0123,-0.05319 0.0201,-0.01933 0.051,-0.04804 0.0784,-0.05172 0.0574,-0.0072 0.0396,0.04252 0.0396,0.08485 0,0.023 10e-4,0.03957 -0.007,0.0589 -0.005,0.01453 -0.0166,0.02741 -0.0201,0.04325 0.003,-0.0044 0.006,-0.0086 0.0136,-0.01658 -0.004,0.02081 -0.0107,0.03663 -0.0129,0.05816 -0.002,0.02226 -0.009,0.0267 -0.0136,0.04528 -0.009,0.03755 -0.004,0.07418 -0.0381,0.10215 -0.0274,0.023 -0.0633,0.04749 -0.0836,0.07988 0.0224,0.01288 0.0482,0.03295 0.0598,0.04031 0.0431,0.02649 0.0856,0.09203 0.13878,0.09406 0.0136,0.02815 -0.0123,0.04399 -0.0238,0.06552 -0.0158,0.02946 -0.0151,0.07822 -0.0361,0.103438"
       style="fill:#21201d;fill-opacity:1;fill-rule:nonzero;stroke:none;stroke-width:0.184057"
       id="path592" />
    <path
       d="m 441.90615,29.917306 c -0.0109,-0.02448 -0.023,-0.04675 -0.0396,-0.06773 -0.0101,-0.01143 -0.0287,-0.01785 -0.0252,-0.03589 0.0554,-0.01086 0.1143,-0.01436 0.16896,-0.0381 0.0173,-0.0072 0.0596,-0.03387 0.0784,-0.0309 0.0215,0.0028 0.0316,0.04822 0.0359,0.06607 0.009,0.03313 -7e-4,0.06773 0.007,0.101417 0.006,0.03608 0.0164,0.07418 0.0258,0.109329 0.018,0.06332 0.0576,0.05099 0.1143,0.05172 0.0131,0 0.0274,0.0014 0.0396,0 0.0129,-0.0021 0.0188,-0.0079 0.0287,-0.01069 0.013,-0.0037 0.0237,-7.06e-4 0.0368,-0.0028 0.0114,-7.06e-4 0.0208,-0.0086 0.0287,-0.01013 0.0223,-0.0042 0.0453,7.05e-4 0.0626,-0.01584 0.0251,-0.023 -7e-4,-0.03369 -0.0109,-0.0646 -0.006,-0.01803 0.002,-0.03663 -10e-4,-0.05393 -0.003,-0.0151 -0.0121,-0.02667 -0.0173,-0.04105 -0.0107,-0.02723 -0.0144,-0.0554 -0.0243,-0.0819 -0.0101,-0.02872 -0.0237,-0.0497 0.007,-0.06626 0.0237,-0.01288 0.0604,-0.0065 0.12498,-0.0065 -7.1e-4,0.04031 0.0166,0.07841 0.0296,0.116508 0.0121,0.03736 0.0265,0.07694 0.0329,0.116508 0.006,0.03443 0.001,0.06681 0.009,0.101417 0.005,0.02152 0.003,0.0438 0.008,0.0646 0.004,0.01803 0.0166,0.02522 0.0252,0.03884 0.0166,0.02597 0.0114,0.0554 0.0245,0.08264 -0.0534,0.01584 -0.10932,-0.0092 -0.16178,0.01584 -0.0447,0.02099 -0.0957,0.04749 -0.14393,0.05264 -0.0136,0.0014 -0.028,0.0014 -0.0416,0.0014 -0.004,0.01436 -0.006,0.02946 -0.0109,0.04104 -0.009,0.02226 -0.0245,0.04031 -0.0337,0.06185 -0.044,0.09994 0,0.244429 0.10123,0.28897 0.0849,0.0381 0.19123,0.06258 0.27829,0.01658 -0.0223,0.02374 -0.0186,0.04601 -0.0245,0.07399 -0.009,0.0381 -0.0539,0.03884 -0.0861,0.03884 -0.0324,-7.05e-4 -0.0813,-0.0099 -0.1108,0.0021 -0.009,0.0072 -0.0173,0.01436 -0.0267,0.02155 -0.008,0.0037 -0.0171,0.0037 -0.0265,0.0021 -0.009,-0.0021 -0.0252,0.01362 -0.0374,0.01288 -0.0158,-7.06e-4 -0.0388,-0.01658 -0.0532,-0.023 -0.0215,-0.0092 -0.021,7.05e-4 -0.0425,-0.01711 -0.0215,-0.01877 -0.0351,-0.04675 -0.0567,-0.06553 -0.0131,-0.01087 -0.0202,-0.01362 -0.0339,-0.023 -0.0272,-0.01803 -0.0337,-0.03957 -0.051,-0.0646 -0.0188,-0.02889 -0.0316,-0.04822 -0.0418,-0.08062 -0.0166,-0.05393 -0.009,-0.112829 -0.009,-0.1697 -7.1e-4,-0.01584 -0.006,-0.03663 0.002,-0.05098 0.004,-0.0072 0.0151,-0.01012 0.0202,-0.01732 0.003,-0.0028 0.005,-0.0072 0.006,-0.01143 -7.1e-4,0 -0.002,0 -0.004,-7.06e-4 -0.0129,-0.0044 -0.009,-0.02173 -0.0144,-0.0302 -0.004,-0.0079 -0.0121,-0.01231 -0.018,-0.02025 -0.0114,-0.01584 -0.0136,-0.03589 -0.0223,-0.05245 -0.0166,-0.03387 -0.0337,-0.06902 -0.0525,-0.101417 -0.0144,-0.02505 -0.0316,-0.05098 -0.0366,-0.08191 -0.004,-0.02152 0.003,-0.04307 -0.002,-0.06534 -0.006,-0.02741 -0.0237,-0.0519 -0.0359,-0.07694"
       style="fill:#21201d;fill-opacity:1;fill-rule:nonzero;stroke:none;stroke-width:0.184057"
       id="path594" />
    <path
       d="m 442.7552,32.19134 c 0,0.01436 0.006,0.05172 7e-4,0.06534 -0.007,0.01729 -0.0201,0.01305 -0.0381,0.01305 -0.0431,-0.0014 -0.0878,-0.01803 -0.13013,-0.02448 -0.0418,-0.0057 -0.0819,0 -0.12368,-0.0021 -0.0366,-0.0014 -0.0698,-0.01288 -0.10712,-0.01362 -0.0302,-7.06e-4 -0.0611,0 -0.092,0 -0.0574,0 -0.1316,-0.0114 -0.18755,0.0028 -0.0368,0.0092 -0.0863,0.0151 -0.12019,-0.01235 -0.0258,-0.01933 -0.0121,-0.09056 -0.0121,-0.120746 0,-0.05098 0.003,-0.102887 -10e-4,-0.153133 0.0114,0.01584 0.0668,0.01362 0.0863,0.01877 0.051,0.01362 0.10141,0.02501 0.15387,0.03295 0.1027,0.01584 0.19914,0.02226 0.30258,0.02226 0.0525,0 0.1051,-7.06e-4 0.15756,0 0.028,7.06e-4 0.0359,-0.0079 0.0582,-0.01362 0.0223,-0.005 0.0561,7.05e-4 0.0661,0.02741 0.004,0.01933 -0.009,0.03221 -0.0136,0.05025 -0.008,0.0309 7e-4,0.07547 7e-4,0.107121"
       style="fill:#21201d;fill-opacity:1;fill-rule:nonzero;stroke:none;stroke-width:0.184057"
       id="path596" />
    <path
       d="m 442.15131,28.46564 c -0.0173,0.01859 -0.0517,0.02522 -0.0762,0.02522 -0.0396,0 -0.0596,0.0014 -0.0841,-0.03828 -0.0295,-0.04804 -0.0274,-0.126446 -0.0202,-0.184609 0.007,-0.05761 0.0799,-0.06332 0.12883,-0.04896 l 0.002,0.01087 v 0.01288 c 0.0361,0.02798 0.0618,0.06184 0.0663,0.10565 0.001,0.01161 -7e-4,0.02667 -7e-4,0.0381 0,0.023 7e-4,0.06184 -0.0158,0.07914"
       style="fill:#21201d;fill-opacity:1;fill-rule:nonzero;stroke:none;stroke-width:0.184057"
       id="path598" />
    <path
       d="m 439.29126,30.405427 c 0,0.06976 7.1e-4,0.138779 0.0136,0.2078 0.0309,0.170438 0.0905,0.334988 0.14301,0.501008 0.0433,0.137492 0.10436,0.258234 0.19491,0.377501 0.0431,0.05761 0.0957,0.109333 0.13731,0.168229 0.0388,0.0554 0.0784,0.110804 0.12442,0.162525 0.0495,0.05687 0.10344,0.10215 0.17044,0.144483 0.0804,0.05043 0.13933,0.110804 0.20117,0.177617 0.0353,0.03884 0.0799,0.0762 0.10436,0.121479 0.0208,0.0381 0.033,0.08135 0.0431,0.12295 0.0208,0.08853 -0.004,0.174671 -0.0287,0.260258 -0.0166,0.05688 -0.026,0.116509 -0.069,0.163996 -0.0223,0.02448 -0.0539,0.0416 -0.074,0.06681 -0.0151,0.01803 -0.021,0.03461 -0.0447,0.04381 -0.0423,0.01729 -0.13363,0.02099 -0.17099,-0.0085 -0.0267,-0.02099 -0.0468,-0.05264 -0.0698,-0.0762 -0.0287,-0.03094 -0.023,-0.06479 -0.0215,-0.103625 0.001,-0.0589 0.0272,-0.112092 0.0525,-0.165287 0.0144,-0.02963 0.0374,-0.0935 0.0272,-0.128838 -0.0121,-0.04307 -0.10786,-0.03295 -0.14798,-0.04012 -0.041,-0.0072 -0.0863,0.0014 -0.1259,-0.0079 -0.004,-0.0094 -0.003,-0.01951 -0.004,-0.02963 -0.0265,0.04031 -0.0294,0.08927 -0.051,0.131603 -0.0173,0.03534 -0.0223,0.05835 -0.026,0.09571 -0.003,0.03514 -0.0129,0.06534 -0.0129,0.102704 0,0.0519 -0.008,0.108596 -7.1e-4,0.1605 0.009,0.06828 0.0633,0.155159 0.10215,0.213508 0.0252,0.0381 0.0574,0.05669 0.10142,0.07693 0.0265,0.01214 0.0539,0.03164 0.0834,0.03884 0.0539,0.01362 0.1165,-0.0028 0.17246,0.0042 0.0445,0.0057 0.0749,0.01161 0.12092,0.0065 0.0913,-0.0094 0.18185,-0.03663 0.25363,-0.08908 0.0677,-0.04896 0.0972,-0.125159 0.16694,-0.171912 0.0883,-0.05816 0.14154,-0.120005 0.1581,-0.226388 0.006,-0.0381 7.1e-4,-0.07915 7.1e-4,-0.117246 7.1e-4,-0.08633 -0.006,-0.163259 -0.0403,-0.244429 -0.0287,-0.06976 -0.0618,-0.138779 -0.0948,-0.207804 -0.0526,-0.108592 -0.13307,-0.193442 -0.21221,-0.287496 -0.0705,-0.08485 -0.14743,-0.165467 -0.22713,-0.244613 -0.009,-0.01859 -0.0166,-0.03737 -0.026,-0.05595 -0.0201,-0.03884 -0.0409,-0.07841 -0.0596,-0.117983 -0.0316,-0.06681 -0.0561,-0.143012 -0.0906,-0.209271 -0.006,-0.01362 -0.0129,-0.01584 -0.0166,-0.03147 -0.003,-0.01305 0,-0.03238 0,-0.04602 0,-0.04896 -0.003,-0.09645 0.0101,-0.143934 0.0129,-0.05025 0.025,-0.104912 0.0416,-0.153871 0.0116,-0.03164 0.0361,-0.06828 0.0554,-0.09773 0.0166,-0.02448 0.0374,-0.04307 0.0626,-0.0589 0.0136,-0.0028 0.026,-0.0094 0.0366,-0.01803 0.009,-0.01436 0.0201,-0.02723 0.0324,-0.03884 0.0467,-0.03239 0.11504,-0.05172 0.1697,-0.05098 0.0337,7.06e-4 0.0683,-0.0037 0.10142,0.0028 0.0272,0.0052 0.0524,0.01658 0.0797,0.02099 0.0309,0.0057 0.0532,7.05e-4 0.0826,0.01436 0.0374,0.01729 0.0712,0.03884 0.10933,0.05393 0.0698,0.02798 0.26523,0.130129 0.18259,0.232283 -0.0136,0.01711 -0.0265,0.03073 -0.0388,0.04877 -0.01,0.0151 -0.0243,0.03589 -0.0453,0.03239 0.0374,-7.06e-4 0.0633,0.0151 0.10068,0.01288 0.0396,-0.0021 0.0871,-0.02078 0.12148,-0.0416 0.0519,-0.03164 0.0648,-0.09718 0.0849,-0.151846 0.0188,-0.05098 0.0316,-0.123504 10e-4,-0.173199 -0.0497,-0.07767 -0.14172,-0.134363 -0.21995,-0.179088 -0.0964,-0.05393 -0.19565,-0.106387 -0.30498,-0.131417 -0.0926,-0.02099 -0.18608,-0.01453 -0.27958,-0.01584 -0.0791,-7.05e-4 -0.17393,0.005 -0.24516,0.04086 -0.0346,0.01732 -0.0683,0.03461 -0.0935,0.06479 -0.0136,0.01785 -0.0223,0.04104 -0.0388,0.05669 -0.0337,0.03238 -0.069,0.04472 -0.0935,0.08706 -0.0445,0.07915 -0.0891,0.157554 -0.11706,0.242958 -0.0217,0.06626 -0.0339,0.1316 -0.0396,0.198599 -0.005,-0.02173 -0.009,-0.04473 -0.0173,-0.06332 -0.0151,-0.03387 -0.0223,-0.05908 -0.0294,-0.09498 -0.0116,-0.0589 -0.0331,-0.119271 -0.0366,-0.179088 -0.004,-0.07399 7e-4,-0.150191 7e-4,-0.224183 0,-0.07841 0.004,-0.151662 0.0129,-0.230071 0.008,-0.0762 0.0158,-0.147433 0.0539,-0.214979 0.0215,-0.0381 0.0539,-0.08264 0.0913,-0.10565 0.0245,-0.01235 0.0495,-0.02522 0.0732,-0.0381 0.026,-0.02025 0.0519,-0.03884 0.0784,-0.05761 0.0475,-0.02724 0.10712,-0.0302 0.15682,-0.0554 0.0129,-0.0072 0.0258,-0.01288 0.0396,-0.01859 0.12718,-0.05393 0.26872,-0.06258 0.39535,-0.120925 0.0517,-0.02431 0.10639,-0.04012 0.15737,-0.06534 0.049,-0.023 0.0878,-0.06184 0.13087,-0.09276 0.021,-0.01436 0.0453,-0.02155 0.0655,-0.03957 0.018,-0.01584 0.0344,-0.03514 0.0517,-0.05245 0.0359,-0.03514 0.0611,-0.06829 0.0813,-0.112829 0.023,-0.05043 0.0488,-0.07915 0.0495,-0.136571 7.1e-4,-0.04749 -10e-4,-0.08853 -0.0101,-0.133809 -0.0107,-0.05393 -0.008,-0.107124 -0.028,-0.160316 -0.0215,-0.05466 -0.0524,-0.102888 -0.0891,-0.148167 -0.0677,-0.08338 -0.15387,-0.160313 -0.26394,-0.174671 -0.0532,-0.0072 -0.10288,-0.02667 -0.15534,-0.005 -0.0401,0.01584 -0.0933,0.03295 -0.12571,0.06258 -0.0388,0.03443 -0.0906,0.09258 -0.0999,0.143747 -0.004,0.02155 -0.005,0.0705 0,0.09203 0.006,0.02374 0.0374,0.03094 0.0567,0.0099 0.0331,-0.03514 0,-0.101233 0.0611,-0.109146 0.0339,-0.0037 0.0705,0.0014 0.10436,7.06e-4 0.0446,-7.06e-4 0.0698,0.0099 0.1086,0.02946 0.0366,0.01785 0.0653,0.04086 0.0854,0.07767 0.0203,0.0381 0.0433,0.0762 0.0425,0.120005 -7e-4,0.03957 0.0114,0.09847 -0.002,0.136571 -0.009,0.02226 -0.0317,0.04675 -0.0445,0.06681 -0.0166,0.02597 -0.0374,0.04546 -0.0582,0.067 -0.0849,0.08412 -0.19989,0.115038 -0.31345,0.136571 -0.0705,0.01362 -0.14099,0.0035 -0.21148,0.01933 -0.0582,0.01231 -0.11209,0.01161 -0.16676,0.03755 -0.0433,0.02007 -0.0856,0.04086 -0.13381,0.05172 -0.0316,0.0072 -0.0633,0.01143 -0.0928,0.02575 -0.056,0.02671 -0.10565,0.06829 -0.15461,0.105833 -0.0963,0.07473 -0.18184,0.166021 -0.24369,0.271671 -0.0639,0.107858 -0.11577,0.241667 -0.1316,0.361675 -0.01,0.07325 -0.002,0.149638 -0.003,0.223629 m 2.18566,-2.177037 c 0.0136,0.09405 0.0215,0.189762 0.0316,0.284003 0.023,0.216267 0.0517,0.433455 0.0179,0.649909 -0.0179,0.115771 -0.0337,0.236513 -0.0309,0.353021 0.0116,0.424991 0.023,0.850533 0.0346,1.274787 0.002,0.08908 0.0144,0.180375 0.006,0.268909 -0.009,0.09203 -0.0144,0.180375 -0.0107,0.273141 0.005,0.110801 -0.0274,0.218659 -0.0296,0.328542 -0.003,0.117246 -0.0164,0.236517 -0.0121,0.353025 0.0101,0.306271 0.0359,0.610517 0.0453,0.916792 0.003,0.135833 0.007,0.272404 0.0101,0.408241 0.002,0.06773 0.009,0.136755 0.006,0.204304 -7.1e-4,0.02078 -0.009,0.03883 -0.0136,0.0589 -0.0195,0.09056 0.007,0.187004 -7e-4,0.278295 -0.006,0.0705 -0.023,0.140805 -0.0353,0.210563 -0.002,0.01013 -0.0329,0.09847 -0.008,0.113563 0.0201,0.01235 0.13584,-0.0021 0.16455,-0.0028 0.0589,-0.0014 0.11945,-0.0065 0.17761,-0.0037 0.14228,0.0059 0.284,0.0151 0.42628,0.023 0.13951,0.0072 0.28197,0.0086 0.42001,0.023 0.0698,0.0065 0.17246,0.05043 0.24222,0.03608 0.0885,-0.01729 0.10289,-0.132338 0.12516,-0.179088 0.0114,-0.02448 0.0166,-0.04749 0.0322,-0.0705 0.009,-0.01362 0.0203,-0.01933 0.0252,-0.03443 0.007,-0.02596 -0.007,-0.05191 7e-4,-0.07841 0.007,-0.02374 0.0123,-0.03663 0.0136,-0.06184 0.003,-0.04896 0.0324,-0.09497 0.0368,-0.14375 0.008,-0.07841 -0.004,-0.162521 -0.008,-0.24093 -10e-4,-0.03884 0.0158,-0.07178 0.0186,-0.110067 0.003,-0.04602 -0.004,-0.09258 -0.005,-0.138045 -10e-4,-0.05522 -0.004,-0.109883 0.006,-0.165283 0.0109,-0.06037 0.002,-0.111355 -0.0101,-0.170438 -0.0265,-0.12645 -0.0114,-0.26302 -0.0151,-0.391125 -0.004,-0.130863 7.1e-4,-0.263754 -0.0151,-0.393883 -0.0243,-0.20283 -0.0388,-0.407688 -0.0272,-0.611255 0.005,-0.08412 0.009,-0.168966 0.0136,-0.253079 0.008,-0.05522 0.0116,-0.109883 0.0109,-0.16455 -0.005,-0.05834 -0.005,-0.115771 -0.001,-0.174117 0.023,-0.181112 0.0683,-0.358729 0.0611,-0.541316 -0.009,-0.231546 -0.0129,-0.463088 -0.0188,-0.693713 -0.002,-0.08779 0,-0.174854 -0.006,-0.261729 -0.002,-0.03608 -0.0173,-0.06976 -0.023,-0.1051 -0.0114,-0.07178 0.0166,-0.145221 0.0151,-0.217004 -7e-4,-0.0302 -7e-4,-0.05982 -0.002,-0.08927 -0.003,-0.10565 -0.007,-0.211299 -0.0101,-0.317683 -0.003,-0.09056 -0.0136,-0.184058 0.009,-0.274616 0.0166,-0.06626 0.028,-0.124422 0.0129,-0.191421 -0.0188,-0.0797 -0.0445,-0.153134 -0.0431,-0.235042 0,-0.01069 10e-4,-0.02152 0.004,-0.03238 0.008,-0.0416 0.0281,-0.0797 0.0418,-0.122216 0.0136,-0.04601 -0.0136,-0.07473 -0.0806,-0.09129 -0.0438,-0.01069 -0.0876,-0.0065 -0.13086,-0.02007 -0.0337,-0.01087 -0.0559,-0.01951 -0.0955,-0.01877 -0.0524,7.06e-4 -0.10436,0.0037 -0.15681,0.0044 -0.0869,0.0021 -0.16529,0.01362 -0.2459,0.03517 -0.028,0.0072 -0.0539,0.01362 -0.0848,0.01584 -0.0215,0.0014 -0.0438,7.05e-4 -0.0661,0 -0.10491,-0.0014 -0.20283,0.01362 -0.30774,0.01877 -0.0653,0.0035 -0.13234,0.01436 -0.19768,0.02155 -0.0705,0.0079 -0.13454,0.02007 -0.19988,0.0381 -0.0309,0.0094 -0.0734,0.0151 -0.097,0.03164 -0.0245,0.01658 -0.023,0.03663 -0.0309,0.05816 -0.013,0.03387 -0.0296,0.06405 -0.0296,0.0992 7e-4,0.0727 0.0324,0.145959 0.0433,0.217925 m 1.97787,4.4115 c 0.0121,0.05117 0.0237,0.101417 0.0337,0.152584 0.007,0.03737 0.0217,0.06111 0.0376,0.097 0.0272,0.06258 0.0589,0.1143 0.0977,0.173199 0.0482,0.07491 0.0935,0.146692 0.15534,0.214242 0.0503,0.05467 0.11357,0.09203 0.16676,0.143196 0.0144,0.01362 0.0272,0.02649 0.0453,0.03589 0.0596,0.03313 0.13584,0.06184 0.20339,0.06608 0.0447,0.0037 0.10712,0.01951 0.15111,0.0066 0.0208,-0.0066 0.0409,-0.0151 0.0604,-0.02596 0.0136,-0.0079 0.0272,-0.01729 0.0403,-0.02723 0.0374,-0.02741 0.0826,-0.03957 0.10785,-0.08283 0.005,-0.0092 0.004,-0.02226 0.008,-0.03221 0.005,-0.01235 0.0136,-0.01803 0.0193,-0.02889 0.0136,-0.02081 0.0188,-0.04878 0.026,-0.07399 0.002,-0.0094 0.004,-0.023 0.009,-0.03164 0.005,-0.01012 0.0144,-0.01362 0.0193,-0.02226 0.0114,-0.01877 0.0151,-0.04602 0.0215,-0.06755 0.018,-0.06111 0.0475,-0.126633 0.0475,-0.1905 -7.1e-4,-0.06405 -0.0423,-0.08559 -0.0784,-0.128841 -0.0324,-0.0381 -0.0639,-0.06387 -0.10068,-0.09626 0.0302,0.05099 0.046,0.0913 0.0569,0.150929 0.0129,0.06773 0.005,0.128842 -0.0136,0.19418 -0.0188,0.06332 -0.0841,0.115774 -0.1524,0.1143 -0.0252,0 -0.0447,-0.01436 -0.0677,-0.02374 -0.0388,-0.01729 -0.0819,-0.02723 -0.12295,-0.03957 -0.0532,-0.01584 -0.11136,-0.02649 -0.1616,-0.04951 -0.072,-0.03238 -0.12958,-0.06976 -0.1813,-0.132337 -0.0438,-0.05246 -0.0488,-0.1143 -0.0791,-0.172463 -0.0251,-0.04822 -0.0394,-0.09497 -0.056,-0.146695 -0.0158,-0.05043 -0.0173,-0.08135 -7e-4,-0.133809 0.0121,-0.04031 0.0258,-0.06976 0.0503,-0.104912 0.0252,-0.03737 0.0475,-0.07767 0.0705,-0.116509 0.0237,-0.04104 0.041,-0.07694 0.0812,-0.104179 0.0396,-0.02667 0.0806,-0.05043 0.11871,-0.07914 0.0223,-0.01729 0.041,-0.03736 0.0611,-0.05816 0.0762,-0.07988 0.16602,-0.141721 0.25602,-0.205775 0.0913,-0.06387 0.20265,-0.104913 0.29045,-0.1732 0.0366,-0.02872 0.0718,-0.05098 0.0962,-0.08853 0.0195,-0.02946 0.0317,-0.06037 0.0475,-0.09056 0.0166,-0.03369 0.0295,-0.06387 0.0403,-0.101417 0.008,-0.02872 0.0258,-0.06166 0.0287,-0.09203 0.003,-0.03295 -0.0151,-0.0646 -0.0114,-0.09847 0.002,-0.02649 -0.002,-0.05319 -0.008,-0.08117 -0.006,-0.02946 -0.0217,-0.05467 -0.0361,-0.08191 -0.0193,-0.0381 -0.0366,-0.08062 -0.0683,-0.114483 -0.0272,-0.02872 -0.0574,-0.05375 -0.0819,-0.0854 -0.007,-0.01012 -0.0151,-0.01803 -0.0223,-0.02596 0.0208,-0.0094 0.0403,-0.02152 0.0567,-0.03663 0.026,-0.02374 0.0598,-0.0302 0.0871,-0.05761 0.0208,-0.02081 0.0381,-0.0473 0.0626,-0.06461 0.0468,-0.03387 0.10068,-0.06479 0.1524,-0.09056 0.0366,-0.01729 0.0648,-0.05043 0.10215,-0.06331 0.0243,-0.0086 0.0532,-0.01235 0.079,-0.01877 0.0526,-0.01362 0.11724,-0.01859 0.16896,-0.0028 0.0979,0.0309 0.18056,0.104913 0.24167,0.182588 0.0388,0.04951 0.0453,0.104175 0.0589,0.163808 0.009,0.04031 0.0331,0.0727 0.046,0.110804 0.018,0.05319 0.009,0.113563 0.007,0.167492 -0.002,0.05688 -0.006,0.116509 -0.0287,0.168967 -0.0158,0.03589 -0.0453,0.08632 -0.0777,0.108595 0.0116,-0.0086 0.028,-0.01214 0.0403,-0.01933 0.0193,-0.01161 0.0351,-0.02815 0.0488,-0.04546 0.0252,-0.03094 0.0447,-0.06608 0.0698,-0.097 0.0223,-0.02798 0.0504,-0.04823 0.072,-0.07547 0.0344,-0.04252 0.0324,-0.07841 0.0324,-0.128655 0,-0.06902 0.002,-0.135283 -0.0131,-0.202833 -0.0136,-0.05963 -0.0236,-0.117242 -0.0517,-0.170437 -0.0344,-0.0646 -0.0611,-0.138779 -0.10988,-0.193996 -0.0598,-0.06773 -0.11007,-0.123688 -0.18848,-0.1697 -0.0431,-0.02522 -0.0834,-0.04178 -0.13362,-0.04252 -0.046,-7.05e-4 -0.092,7.06e-4 -0.13804,7.06e-4 -0.0655,0 -0.12884,-0.0028 -0.19142,0.01012 -0.0438,0.0086 -0.0725,0.01584 -0.1143,0.03443 -0.048,0.02173 -0.0933,0.05264 -0.14301,0.06847 -0.0438,0.01362 -0.0826,0.03589 -0.12074,0.05963 -0.0195,0.01213 -0.0403,0.03238 -0.0626,0.03737 -0.0216,0.005 -0.0468,0.0021 -0.0698,0.0065 -0.049,0.0094 -0.0955,0.02723 -0.14228,0.04528 -0.0447,0.01732 -0.0863,0.02081 -0.13233,0.02596 -0.004,7.05e-4 -0.007,0.0014 -0.0109,0.0014 -0.069,0.0085 -0.14595,0.04657 -0.21203,0.0092 -0.0208,-0.01143 -0.0366,-0.02872 -0.0596,-0.03736 -0.0648,-0.02649 -0.14816,-0.0042 -0.19841,-0.0646 -0.0101,-0.01235 -0.0145,-0.02671 -0.0245,-0.03957 -0.0136,-0.01729 -0.0339,-0.02872 -0.0467,-0.04675 -0.0195,-0.02522 -0.0418,-0.06755 -0.0267,-0.097 0.0101,-0.01951 0.0331,-0.03957 0.046,-0.0519 0.021,-0.01933 0.0512,-0.04307 0.0791,-0.05669 0.0309,-0.0151 0.0712,-0.02522 0.10491,-0.03238 0.0151,-0.0028 0.0841,0.0057 0.0626,-0.02596 -0.004,-0.0057 -0.0517,-0.02575 -0.0589,-0.02798 -0.0195,-0.0044 -0.0374,-0.0057 -0.0561,-0.01086 -0.0173,-0.005 -0.0438,-0.0151 -0.0604,-0.01436 -0.0223,7.05e-4 -0.0438,0.01012 -0.0675,0.01086 -0.0245,7.06e-4 -0.0366,0.0035 -0.0589,0.01288 -0.0504,0.02226 -0.072,0.05835 -0.10785,0.09773 -0.0339,0.03737 -0.0289,0.0878 -0.0316,0.133812 -0.002,0.02522 -0.0131,0.04822 -0.0144,0.07326 -0.003,0.02815 7e-4,0.05761 7e-4,0.08559 0,0.03608 -0.007,0.08062 0.0121,0.112825 0.023,0.03755 0.0804,0.06056 0.11577,0.08559 0.0337,0.023 0.0582,0.05246 0.0871,0.07841 0.0302,0.02671 0.074,0.03957 0.11135,0.0554 0.0302,0.01362 0.072,0.03164 0.10418,0.03663 0.0317,0.005 0.0626,0.01288 0.0942,0.01235 0.0381,0 0.074,-0.01305 0.11209,-0.01379 0.0361,0 0.072,7.06e-4 0.10859,7.06e-4 0.0289,0 0.0591,-0.0021 0.0885,-0.0014 0.004,0.0059 0.009,0.01087 0.0114,0.01453 0.0252,0.0309 0.046,0.0624 0.0675,0.09552 0.041,0.06258 0.10509,0.131604 0.10068,0.20357 -0.006,0.09626 -0.0114,0.184609 -0.0388,0.277376 -0.025,0.08485 -0.0631,0.14522 -0.15166,0.187737 -0.0495,0.02448 -0.0812,0.06184 -0.12571,0.09129 -0.0396,0.02649 -0.0799,0.04307 -0.12884,0.05393 -0.0525,0.0114 -0.10123,0.03313 -0.15387,0.04454 -0.0438,0.0094 -0.0812,0.02081 -0.12221,0.03663 -0.0243,0.01012 -0.0409,0.02099 -0.0624,0.03534 -0.0245,0.01732 -0.0539,0.02155 -0.0799,0.03589 -0.0317,0.01877 -0.0596,0.05098 -0.0834,0.07767 -0.0819,0.09129 -0.12019,0.204117 -0.15534,0.317129 -0.0374,0.120742 -0.0121,0.2667 0.0166,0.391675 m 1.40269,-3.648025 c -0.004,-0.0072 -0.0121,-0.0035 -0.0166,-0.0079 -0.0136,-0.01362 -0.0252,-0.02872 -0.0324,-0.04804 -0.0295,-0.07915 -0.0359,-0.164733 -0.0668,-0.243142 -0.0238,-0.05816 -0.0596,-0.111354 -0.0891,-0.166758 -0.0252,-0.04675 -0.0532,-0.07841 -0.0979,-0.107858 -0.0639,-0.04104 -0.11356,-0.09571 -0.18184,-0.1316 -0.0574,-0.0302 -0.12001,-0.08264 -0.18333,-0.09424 -0.0626,-0.01069 -0.13583,-0.0035 -0.19988,-0.0057 -0.0589,-0.0021 -0.10141,0.01436 -0.1581,0.02596 -0.0547,0.01214 -0.0985,0.0079 -0.14817,0.03514 -0.023,0.01362 -0.0503,0.02025 -0.0732,0.03238 -0.0223,0.01214 -0.0282,0.0309 -0.0411,0.05393 -0.006,0.01143 -0.018,0.02448 -0.0223,0.03589 -0.0151,0.03461 -0.0324,0.06976 -0.0482,0.105834 -0.0186,0.0416 -0.0423,0.08687 -0.0547,0.130679 -0.009,0.02815 -0.0158,0.09148 -0.008,0.11872 0.0123,-0.0079 0.0116,-0.02671 0.0202,-0.03884 0.0158,-0.02081 0.0388,-0.0381 0.0547,-0.06037 0.033,-0.04528 0.0733,-0.06902 0.12148,-0.09645 0.0503,-0.02649 0.1027,-0.06534 0.15737,-0.07822 0.0418,-0.01012 0.0698,-0.04325 0.11503,-0.04399 0.0604,-0.0014 0.1294,0.0044 0.18701,0.02099 0.1351,0.03884 0.27037,0.145221 0.34068,0.2667 0.0482,0.08338 0.095,0.1732 0.10437,0.271117 0.004,0.04381 -0.006,0.07473 -0.0158,0.115037 -0.002,0.0092 -0.009,0.03589 -0.002,0.0438 0.006,0.0086 0.0123,-7.06e-4 0.0195,0.005 0.0107,0.0079 0.0144,0.0072 0.0186,0.023 0.003,0.01087 0.001,0.02226 -10e-4,0.03461 -0.003,0.01214 -0.007,0.02505 -0.01,0.03589 -0.0138,0.05688 -0.0123,0.128658 -0.0353,0.183325 -0.025,0.05816 -0.0698,0.09202 -0.12792,0.116508 -0.0366,0.01658 -0.0648,0.03883 -0.10565,0.04675 -0.0388,0.0079 -0.0821,0.0086 -0.12221,0.0065 -0.0828,-0.0028 -0.18921,-0.05393 -0.22657,-0.130867 -0.0136,-0.02798 -0.0193,-0.09129 -0.004,-0.118716 0.0165,-0.02798 0.0631,-0.02505 0.074,-0.05025 0.002,-0.0072 -0.002,-0.02448 0,-0.03239 0.001,-0.0086 0.0101,-0.01143 0.0121,-0.02081 0.006,-0.02226 -0.005,-0.04104 0.007,-0.06405 -0.0252,-0.0099 -0.0512,0.0044 -0.0756,0.01161 -0.0295,0.0079 -0.0596,0.01069 -0.0883,0.02226 -0.0589,0.02448 -0.10141,0.04822 -0.14099,0.09847 -0.0582,0.07399 -0.028,0.195654 0.0339,0.264675 0.0883,0.097 0.21847,0.122213 0.33866,0.150925 0.1559,0.03589 0.34069,0.0072 0.48959,-0.04822 0.074,-0.02797 0.15811,-0.06534 0.20412,-0.134362 0.0316,-0.04675 0.0467,-0.119454 0.0583,-0.174671 0.0121,-0.06258 0.023,-0.114484 0.0223,-0.178354 0,-0.04104 0.006,-0.08135 0.006,-0.121476 -7e-4,-0.01658 10e-4,-0.04473 -0.009,-0.05834 m -6.56124,2.397904 c 0.0136,-0.06479 0.0431,-0.121662 0.0302,-0.195654 -0.0123,-0.07325 0.0344,-0.14375 0.079,-0.2078 v 0.04307 c 0.004,0 0.009,7.06e-4 0.0144,7.06e-4 0.002,-0.03443 0.0109,-0.07031 0.006,-0.103438 -0.0188,-0.110067 -0.0447,-0.2194 -0.0641,-0.329283 -0.006,-0.0302 -0.004,-0.06479 0.004,-0.09571 0.0236,-0.10068 0.0517,-0.201175 0.079,-0.301117 0.0237,-0.08356 0.0475,-0.166205 0.0762,-0.247375 0.0173,-0.04896 0.0425,-0.09497 0.067,-0.140988 0.009,-0.01785 0.0265,-0.03238 0.0394,-0.04951 0.006,-0.0079 0.009,-0.01732 0.0123,-0.02596 0.0186,-0.05172 -0.023,-0.104912 0.006,-0.156633 0.0101,-0.01803 0.0158,-0.03883 0.018,-0.05908 0.008,-0.05742 0.0129,-0.115034 0.0193,-0.172459 7.1e-4,-0.01012 0.004,-0.02099 0.009,-0.02889 0.0317,-0.0438 0.0648,-0.08687 0.0957,-0.131416 0.006,-0.0079 0.002,-0.02173 0.004,-0.03608 0.0712,-0.06534 0.10417,-0.166021 0.17982,-0.239459 0.0683,-0.06534 0.11062,-0.157371 0.16528,-0.23725 0.0359,-0.05246 0.0733,-0.104179 0.10859,-0.157371 0.0302,-0.04675 0.0791,-0.07767 0.0841,-0.145221 0.003,-0.03589 0.0423,-0.07473 0.0732,-0.103625 0.0618,-0.05742 0.12866,-0.109146 0.19418,-0.163812 10e-4,0.0099 0.003,0.02081 0.004,0.03239 0.004,0.0021 0.008,0.0035 0.0129,0.005 0.0252,-0.0381 0.0503,-0.0762 0.0769,-0.1143 0.0173,-0.02448 0.0351,-0.04822 0.0532,-0.0727 0.0129,-0.01785 0.0265,-0.03589 0.0388,-0.05393 0.0208,-0.03094 0.0409,-0.06258 0.0618,-0.0935 0.007,-0.01069 0.0171,-0.01859 0.025,-0.02872 0.0309,-0.0416 0.0606,-0.08411 0.0935,-0.12295 0.009,-0.0099 0.0302,-0.01069 0.046,-0.01288 0.0223,-0.0028 0.0475,0 0.0683,-0.0057 0.092,-0.02667 0.18333,-0.05319 0.27333,-0.08558 0.0359,-0.01288 0.071,-0.03589 0.0992,-0.06258 0.0856,-0.08264 0.19124,-0.138045 0.27093,-0.2286 0.0425,-0.04749 0.11081,-0.07399 0.1697,-0.104916 0.0663,-0.03461 0.13455,-0.06405 0.2021,-0.09424 0.0374,-0.01655 0.074,-0.0381 0.11283,-0.04381 0.0769,-0.01086 0.1546,-0.01086 0.23154,-0.01877 0.0885,-0.0086 0.18111,-0.0014 0.2632,-0.04675 0.0883,-0.04822 0.18405,-0.03957 0.27958,-0.04105 0.006,0 0.0151,0.0014 0.0195,0.0059 0.0423,0.03957 0.0913,0.023 0.1373,0.01436 0.008,-0.0021 0.0114,-0.01951 0.0193,-0.03387 0.0217,-0.0028 0.0497,-0.0094 0.0769,-0.01012 0.0596,-7.06e-4 0.11871,0.0014 0.17761,0.0021 0.0618,0.0014 0.12369,0.0065 0.1848,0.0014 0.0576,-0.0042 0.1143,-0.01933 0.17117,-0.0302 0.001,0 0.001,-0.0028 0.003,-0.0037 0.023,-0.0021 0.049,-0.0114 0.069,-0.0042 0.0532,0.01803 0.10638,0.03884 0.15534,0.06755 0.0252,0.01436 0.0661,0.02226 0.0648,0.06681 0,0.0059 0.0107,0.01453 0.0179,0.01877 0.0295,0.01658 0.0598,0.03164 0.0893,0.04749 0,-0.005 0,-0.0094 -7.1e-4,-0.01436 0.009,-0.0014 0.0179,-0.0065 0.0265,-0.0052 0.0433,0.0094 0.0863,0.02173 0.12938,0.02963 0.0173,0.0021 0.0376,-0.0079 0.0547,-0.0052 0.0675,0.01161 0.13528,0.02596 0.20283,0.03957 0.0826,0.01584 0.16602,0.03164 0.24866,0.04749 0.0116,0.0021 0.023,0.01069 0.0339,0.0094 0.0762,-0.01087 0.14172,0.0302 0.21203,0.04454 0.0123,0.0028 0.0223,0.01933 0.0331,0.02872 -0.002,0.0021 -0.004,0.0044 -0.007,0.0057 l -0.0641,-0.02007 c -10e-4,0.0035 -0.003,0.0079 -0.005,0.01214 0.0453,0.0302 0.0898,0.06037 0.1351,0.09129 0.002,-0.0065 0.004,-0.01288 0.007,-0.01933 0.0157,0.0014 0.0344,-0.0021 0.0466,0.0042 0.0388,0.02244 0.0756,0.04822 0.11301,0.0727 0.0596,0.04031 0.1178,0.08558 0.18111,0.118533 0.046,0.02448 0.10289,0.02741 0.14964,0.05117 0.10988,0.0554 0.21995,0.112092 0.29192,0.219213 0.0265,0.03957 0.0567,0.0762 0.0913,0.121479 0.008,-0.01584 0.0121,-0.02431 0.0151,-0.0309 0.0834,0.07049 0.11282,0.168226 0.16454,0.251788 0.0475,0.0762 0.0965,0.154425 0.15884,0.217742 0.0756,0.0762 0.16768,0.136571 0.24958,0.2078 0.0812,0.06976 0.0963,0.17265 0.12075,0.268912 0.0101,0.03883 0.0188,0.07841 0.0287,0.117979 0.004,-7.05e-4 0.009,-0.0014 0.0145,-0.0028 -0.002,-0.01143 -0.003,-0.023 -0.004,-0.03514 0.0195,0.01933 0.0267,0.04307 0.0396,0.06313 0.0267,0.04325 0.0569,0.08485 0.0856,0.127367 0.008,0.01069 0.0186,0.01933 0.0258,0.0302 0.046,0.06755 0.0915,0.135097 0.13602,0.204118 0.007,0.01161 0.0107,0.02741 0.0136,0.04178 0.018,0.07694 0.0339,0.153871 0.0547,0.230071 0.0193,0.07049 0.0438,0.138779 0.0661,0.207803 l 0.0116,-0.0037 c 0.002,-0.0065 0.004,-0.01362 0.006,-0.01729 0.009,0.04325 0.0201,0.0878 0.0245,0.133072 0.005,0.05761 0.003,0.115774 0.008,0.173199 0.006,0.05982 -0.006,0.121663 0.0258,0.177617 0.018,0.03239 0.0339,0.06773 0.0396,0.103625 0.026,0.155346 0.046,0.310504 0.12663,0.451492 0.0582,0.101417 0.0631,0.216454 0.0431,0.328545 -0.0331,0.182584 -0.0653,0.366642 -0.13731,0.539288 -0.004,0.0099 -0.0158,0.01729 -0.0223,0.02649 -0.0245,0.03681 -0.0475,0.07418 -0.072,0.111541 0.004,0.0014 0.006,0.0035 0.009,0.0057 0.009,-0.0042 0.0173,-0.0086 0.026,-0.01214 -0.0403,0.05319 -0.0475,0.118533 -0.0287,0.168229 0.0208,0.05522 0.0193,0.09847 -0.004,0.145958 -0.003,-0.0044 -0.005,-0.0079 -0.0136,-0.023 -0.004,0.04233 -0.007,0.07473 -0.009,0.106384 -0.004,0.03443 -0.004,0.06902 -0.0101,0.10197 -0.033,0.189946 -0.10841,0.366092 -0.17467,0.54573 -0.0661,0.180562 -0.18681,0.328545 -0.28326,0.491066 -0.0503,0.08559 -0.12,0.163996 -0.20412,0.225842 -0.095,0.06902 -0.1905,0.135833 -0.25675,0.240746 -0.0467,0.07418 -0.11928,0.132337 -0.18406,0.193445 -0.10344,0.09645 -0.2078,0.192709 -0.31566,0.284001 -0.16749,0.142462 -0.33075,0.293387 -0.55934,0.334433 -0.0151,0.0028 -0.0309,7.05e-4 -0.0468,0.0028 -0.0532,0.0094 -0.10989,0.01161 -0.15958,0.03239 -0.0503,0.02081 -0.092,0.06111 -0.13878,0.09129 -0.007,0.005 -0.0186,0.0044 -0.0287,0.0057 -0.0151,0.0028 -0.0339,7.06e-4 -0.0453,0.0086 -0.0898,0.06479 -0.18406,0.118716 -0.29266,0.148166 -0.0769,0.02081 -0.15239,0.05025 -0.22785,0.07694 -0.0252,0.0094 -0.0482,0.03164 -0.0727,0.03238 -0.0928,0.0014 -0.17614,0.04381 -0.26522,0.06185 -0.13087,0.02723 -0.26026,0.0624 -0.38818,-0.01453 -0.0138,-0.0077 -0.0368,-0.0028 -0.0547,-0.0014 -0.0188,0.0014 -0.0374,0.01288 -0.0547,0.01069 -0.1719,-0.02081 -0.34363,-0.04454 -0.51554,-0.06608 -0.0863,-0.01086 -0.17264,-0.02081 -0.25951,-0.03164 -0.0683,-0.0086 -0.13731,-0.01584 -0.20486,-0.02797 -0.0856,-0.01584 -0.17044,-0.03534 -0.25455,-0.05264 -0.004,-7.06e-4 -0.009,0 -0.0138,-7.06e-4 -0.0401,-0.0059 -0.0841,-0.0037 -0.11854,-0.02173 -0.10215,-0.05319 -0.19988,-0.1143 -0.29909,-0.172459 -0.0309,-0.01803 -0.0561,-0.05246 -0.0977,-0.02155 -0.004,0.0035 -0.0166,-0.0037 -0.0245,-0.0072 -0.10288,-0.05319 -0.21424,-0.07914 -0.32706,-0.09718 -0.0799,-0.01214 -0.11449,-0.07473 -0.1605,-0.125712 -0.004,-0.0059 -0.002,-0.01658 -0.003,-0.03164 0.0158,0.01436 0.0272,0.02448 0.0388,0.03443 0.004,-0.0021 0.007,-0.0042 0.01,-0.0065 -0.0114,-0.02007 -0.0193,-0.04528 -0.0366,-0.05963 -0.0705,-0.0589 -0.13952,-0.11927 -0.20909,-0.179087 -0.10289,-0.08761 -0.18203,-0.201913 -0.30572,-0.2667 -0.0468,-0.02522 -0.0834,-0.07197 -0.12497,-0.107121 -0.008,-0.0072 -0.0202,-0.01087 -0.0302,-0.01436 -0.0957,-0.03663 -0.18552,-0.07694 -0.2308,-0.178351 -0.0381,-0.08688 -0.0777,-0.174674 -0.12222,-0.258049 -0.0217,-0.04105 -0.0539,-0.07841 -0.0878,-0.110067 -0.13584,-0.129395 -0.28106,-0.2494 -0.36738,-0.422046 -0.0302,-0.05963 -0.0705,-0.113562 -0.10564,-0.170991 -0.0109,-0.01729 -0.0195,-0.03681 -0.0267,-0.0554 -0.0309,-0.08264 -0.0639,-0.164734 -0.0891,-0.248109 -0.023,-0.07767 -0.0388,-0.158108 -0.0561,-0.237987 -0.0129,-0.0589 -0.0178,-0.120008 -0.0337,-0.179088 -0.0202,-0.07822 -0.0605,-0.154425 -0.0683,-0.233571 -0.007,-0.0819 -0.0245,-0.159579 -0.0433,-0.237987 -0.007,-0.03238 -0.0252,-0.06681 -0.0186,-0.09626"
       style="fill:#21201d;fill-opacity:1;fill-rule:nonzero;stroke:none;stroke-width:0.184057"
       id="path600" />
    <path
       d="m 441.85001,33.023836 c 0.0166,-0.04454 0.0388,-0.09332 0.072,-0.127921 0.0265,-0.02872 0.069,-0.05025 0.10785,-0.05172 0.0366,-0.0021 0.0705,-0.02798 0.10639,-0.02741 -0.0173,0.01161 -0.0158,0.02889 -0.0281,0.04031 -0.0179,0.01803 -0.0344,0.01235 -0.0322,0.02596 0.006,0.03369 -0.0252,0.04877 -0.0453,0.06976 -0.049,0.05025 -0.0482,0.103442 -0.0727,0.163075 -0.0287,0.06976 -0.0339,0.140988 -0.0272,0.217188 0.004,0.03534 0.0223,0.07123 0.0337,0.104362 0.0123,0.03589 0.0289,0.0762 0.0525,0.10565 0.0195,0.023 0.0512,0.06184 0.0769,0.07693 0.0151,0.0086 0.072,0.0072 0.072,0.03221 -0.0351,0.0014 -0.10068,-0.02872 -0.12939,-0.04657 -0.028,-0.01658 -0.0482,-0.04031 -0.072,-0.06258 -0.0201,-0.01951 -0.0475,-0.0302 -0.0646,-0.05246 -0.0353,-0.04252 -0.0525,-0.09571 -0.0791,-0.143196 -0.0252,-0.04454 -0.026,-0.111358 -0.0201,-0.163813 0.006,-0.0554 0.0302,-0.107858 0.0495,-0.159762"
       style="fill:#21201d;fill-opacity:1;fill-rule:nonzero;stroke:none;stroke-width:0.184057"
       id="path602" />
    <path
       d="m 442.1434,33.258327 c -0.0245,-0.01803 -0.0331,-0.02081 -0.0173,-0.04823 0.0215,-0.03589 0.0604,-0.07178 0.0863,-0.104912 0.0351,-0.04325 0.0747,-0.08853 0.1143,-0.127921 0.0309,-0.03037 0.0611,-0.06184 0.092,-0.09148 0.0121,-0.01214 0.028,-0.02081 0.0423,-0.03147 0.0383,-0.0309 0.0583,-0.07197 0.0848,-0.115037 0.023,-0.02522 0.0353,-0.02099 0.0655,-0.0028 0.0388,0.023 0.0797,0.04307 0.11853,0.06903 0.005,0.0028 0.0396,0.02226 0.044,0.02649 0.0121,0.01528 0.005,0.01161 -0.002,0.02815 -0.0136,0.02946 -0.0309,0.04233 -0.0554,0.06185 -0.0265,0.02152 -0.0517,0.03736 -0.0819,0.04951 -0.0274,0.01087 -0.0539,0.01012 -0.0806,0.01732 -0.0394,0.01086 -0.0841,0.06607 -0.11209,0.0935 -0.0747,0.07325 -0.0287,0.154608 0.0129,0.232833 0.0202,0.03884 0.0554,0.07123 0.0848,0.103625 0.0282,0.03164 0.067,0.0438 0.0992,0.06902 0.0223,0.01803 0.0396,0.03514 0.0648,0.0497 0.0324,0.01785 0.0582,0.03939 0.0913,0.05448 0.0324,0.0151 0.026,0.03387 0.0101,0.06184 -0.009,0.01729 -0.018,0.02522 -0.0238,0.04325 -0.007,0.01933 -0.009,0.0416 -0.0166,0.06184 -0.009,0.03094 -0.0208,0.06313 -0.0381,0.09056 -0.0173,0.0028 -0.0524,-0.03164 -0.0626,-0.04454 -0.0173,-0.01877 -0.0366,-0.03884 -0.0532,-0.05908 -0.0309,-0.03736 -0.069,-0.06755 -0.10215,-0.103441 -0.028,-0.02946 -0.0582,-0.05761 -0.0869,-0.08632 -0.0252,-0.02448 -0.041,-0.05467 -0.0663,-0.07767 -0.051,-0.04749 -0.10711,-0.09847 -0.14945,-0.153871 -0.021,-0.02724 -0.0346,-0.04528 -0.0626,-0.06608"
       style="fill:#21201d;fill-opacity:1;fill-rule:nonzero;stroke:none;stroke-width:0.184057"
       id="path604" />
  </g>
</svg>
