<?xml version="1.0" encoding="UTF-8" standalone="no"?>
<!-- Created with Inkscape (http://www.inkscape.org/) -->

<svg
   width="8.2174168mm"
   height="8.2601967mm"
   viewBox="0 0 8.2174168 8.2601967"
   version="1.1"
   id="svg2253"
   inkscape:version="1.1.2 (0a00cf5339, 2022-02-04)"
   sodipodi:docname="rm4.svg"
   xmlns:inkscape="http://www.inkscape.org/namespaces/inkscape"
   xmlns:sodipodi="http://sodipodi.sourceforge.net/DTD/sodipodi-0.dtd"
   xmlns="http://www.w3.org/2000/svg"
   xmlns:svg="http://www.w3.org/2000/svg">
  <sodipodi:namedview
     id="namedview2255"
     pagecolor="#ffffff"
     bordercolor="#666666"
     borderopacity="1.0"
     inkscape:pageshadow="2"
     inkscape:pageopacity="0.0"
     inkscape:pagecheckerboard="0"
     inkscape:document-units="mm"
     showgrid="false"
     inkscape:zoom="0.64052329"
     inkscape:cx="15.612235"
     inkscape:cy="14.831623"
     inkscape:window-width="2560"
     inkscape:window-height="1376"
     inkscape:window-x="0"
     inkscape:window-y="0"
     inkscape:window-maximized="1"
     inkscape:current-layer="layer1" />
  <defs
     id="defs2250" />
  <g
     inkscape:label="Layer 1"
     inkscape:groupmode="layer"
     id="layer1"
     transform="translate(-100.81232,-144.37154)">
    <path
       d="m 102.4829,146.486 c 0.0201,0.0208 0.0374,0.0359 0.0633,0.0517 0.0366,0.0217 0.0272,0.0274 0.0488,0.0525 0.0236,0.0296 0.092,0.0641 0.12662,0.0871 0.0848,0.0583 0.17099,0.1143 0.25731,0.17117 0.16972,0.11062 0.36019,0.19547 0.5321,0.3048 0.16108,0.10215 0.31841,0.20559 0.48316,0.30407 0.19766,0.11871 0.38467,0.2424 0.57591,0.36756 0.071,0.0466 0.14524,0.0861 0.21922,0.12571 -0.0797,0.0668 -0.16327,0.13455 -0.23506,0.2078 -0.005,-0.001 -0.0102,-0.003 -0.0152,-0.004 -0.0268,-0.007 -0.0453,-0.0217 -0.0735,-0.0274 -0.031,-0.006 -0.0388,-0.006 -0.0661,0.0166 -0.0346,0.0287 -0.069,0.0611 -0.10418,0.0898 -0.0229,0.0188 -0.0504,0.0302 -0.0734,0.0497 -0.031,0.0252 -0.0596,0.0567 -0.0856,0.0869 -0.0279,0.0346 -0.0552,0.0611 -0.092,0.0843 -0.0293,0.0186 -0.051,0.0438 -0.0769,0.0668 -0.0257,0.0223 -0.0552,0.0374 -0.0811,0.0589 -0.0268,0.0215 -0.0482,0.0497 -0.074,0.072 -0.0187,0.0158 -0.0339,0.0238 -0.049,0.0438 -0.0318,0.0431 -0.0604,0.0806 -0.0985,0.12001 -0.0286,0.0294 -0.0539,0.0611 -0.0784,0.0942 -0.0618,0.0871 -0.13586,0.16602 -0.19622,0.25308 -0.0618,0.0913 -0.11578,0.18333 -0.18923,0.2667 -0.0453,0.0519 -0.0868,0.10786 -0.1336,0.15829 -0.0282,0.0295 -0.0576,0.0547 -0.0828,0.0861 -0.0495,0.0606 -0.0985,0.12167 -0.14651,0.18277 -0.0243,0.0309 -0.0554,0.0539 -0.0821,0.0834 -0.0381,0.0423 -0.0762,0.0876 -0.11208,0.13216 -0.0243,0.0296 -0.0403,0.0633 -0.0611,0.0957 -0.0396,0.0611 -0.0576,0.13161 -0.0811,0.19768 -0.0187,0.0532 -0.049,0.1108 -0.0576,0.164 -0.0102,0.0574 -0.004,0.11577 -0.007,0.1732 -0.005,0.0583 0.0152,0.13381 0.072,0.14743 0.0394,0.009 0.092,0.0272 0.13437,0.0237 0.025,-0.002 0.0497,-0.004 0.074,-0.005 0.0254,-10e-4 0.0396,0.009 0.0655,-10e-4 0.0159,-0.006 0.0325,-0.018 0.0475,-0.0282 0.0222,-0.0136 0.0395,-0.0143 0.0589,-0.0322 0.0332,-0.0302 0.0661,-0.0611 0.0992,-0.0913 0.0467,-0.0432 0.0978,-0.0799 0.14376,-0.12368 0.0212,-0.0203 0.044,-0.0374 0.0655,-0.0561 0.0215,-0.0193 0.0388,-0.0431 0.0611,-0.0611 0.0423,-0.0359 0.0913,-0.0655 0.13586,-0.0992 0.0222,-0.018 0.046,-0.0346 0.0683,-0.0532 0.0339,-0.0267 0.0576,-0.0561 0.0878,-0.0863 0.0547,-0.0547 0.10915,-0.10933 0.1675,-0.15958 0.0668,-0.0582 0.12517,-0.12442 0.1905,-0.18332 0.0755,-0.0683 0.15092,-0.12295 0.21717,-0.2021 0.0725,-0.0856 0.13215,-0.18185 0.19989,-0.27093 0.14873,-0.19713 0.31771,-0.37824 0.46143,-0.57886 0.0339,-0.0475 0.0626,-0.0985 0.0928,-0.14744 0.01,-0.0136 0.0212,-0.0294 0.0236,-0.0453 0.005,-0.0302 -0.0208,-0.0668 -0.0366,-0.0863 -0.0159,-0.0193 -0.0261,-0.0388 -0.0353,-0.0604 0.0229,-0.0351 0.046,-0.0705 0.071,-0.10344 0.069,-0.09 0.13674,-0.17982 0.20578,-0.26964 0.0264,0.0158 0.0524,0.0309 0.0789,0.046 0.17984,0.10216 0.35874,0.2113 0.53562,0.31916 0.0957,0.0583 0.19121,0.11651 0.28399,0.17835 0.0109,0.007 0.0219,0.0144 0.0317,0.0208 0,0.004 -0.004,0.006 -0.004,0.009 -0.005,0.0144 0,0.0346 0,0.0497 -0.004,0.0223 -0.0166,0.0265 -0.004,0.0453 0.0159,0.0201 0.0611,0.0374 0.0826,0.0475 0.0425,0.0201 0.0849,0.0381 0.12665,0.0604 0.10491,0.0559 0.22436,0.079 0.33002,0.1351 0.0596,0.0309 0.11356,0.069 0.16969,0.10638 0.0539,0.0353 0.11133,0.0626 0.16527,0.0992 0.0762,0.0532 0.15092,0.10859 0.23157,0.15534 0.0604,0.0351 0.10488,0.0683 0.1524,0.11928 0.0215,0.0237 0.031,0.0526 0.0482,0.0777 0.0194,0.0274 0.0416,0.0618 0.051,0.0972 -0.004,0.005 -0.006,0.009 -0.01,0.0144 -0.0222,0.0409 -0.0539,0.0755 -0.0762,0.11651 -0.018,0.0344 -0.0346,0.0653 -0.0589,0.0955 -0.041,0.0517 -0.0913,0.0863 -0.14026,0.13013 -0.0159,0.0144 -0.0353,0.0208 -0.0495,0.0346 -0.0145,0.0129 -0.0201,0.0237 -0.0368,0.0351 -0.0321,0.0238 -0.0394,0.0374 -0.0812,0.0346 0.0388,0.0409 0.095,0.0661 0.13159,0.10841 0.013,0.0158 0.0159,0.0388 0.0293,0.0547 0.0109,0.0123 0.0268,0.0173 0.0359,0.0295 0.0145,0.0166 0.0159,0.0331 0.0346,0.0468 0.0388,0.0274 0.0633,0.0433 0.11208,0.0274 0.0569,-0.0188 0.12075,-0.0388 0.1719,-0.0712 0.0446,-0.0295 0.0899,-0.0668 0.1294,-0.1027 0.0574,-0.0539 0.11653,-0.0972 0.16327,-0.16123 0.0891,-0.12351 0.18902,-0.24646 0.24663,-0.38965 0.0725,-0.18038 0.11211,-0.36297 0.15444,-0.55218 0.025,-0.11135 0.041,-0.22639 0.0447,-0.34069 -0.025,0.028 -0.0236,-0.004 -0.0229,-0.0366 0,-0.0418 0.0138,-0.0777 0.0152,-0.12093 0,-0.028 0.004,-0.0582 0.004,-0.0861 0,-0.006 -0.006,-0.0539 -0.0127,-0.0583 -0.0201,-0.0121 -0.0784,0.0215 -0.0985,0.0295 -0.041,0.0158 -0.0762,0.0138 -0.11945,0.0123 -0.0187,-7.1e-4 -0.0236,-7.1e-4 -0.0388,0.008 -0.0279,0.0151 -0.0187,0.0164 -0.0222,0.0517 -0.004,0.0252 -0.0138,0.0431 -0.0145,0.069 0,0.0186 0,0.0351 -0.004,0.0532 -0.0123,0.0589 -0.0138,0.11853 -0.0317,0.17687 -0.0166,0.0539 -0.0222,0.11136 -0.0497,0.16179 -0.0106,0.0215 -0.0236,0.0388 -0.0328,0.0589 -0.0418,7.1e-4 -0.0848,-0.002 -0.12368,-0.005 -0.0446,-0.004 -0.0871,-0.0151 -0.13014,-0.023 -0.0359,-0.006 -0.0755,-0.002 -0.10933,-0.0151 -0.12294,-0.049 -0.23724,-0.11504 -0.35595,-0.17339 -0.0985,-0.0488 -0.19914,-0.0955 -0.29323,-0.1524 -0.13525,-0.0819 -0.2976,-0.14798 -0.41483,-0.2551 -0.0353,-0.0324 -0.0893,-0.0554 -0.13529,-0.0309 -0.11853,-0.0705 -0.23724,-0.14026 -0.35652,-0.20928 -0.14171,-0.0826 -0.27905,-0.17338 -0.42132,-0.25381 -0.0525,-0.028 -0.10562,-0.0547 -0.15956,-0.0799 0.1373,-0.18682 0.27167,-0.3753 0.42552,-0.54997 0.12739,-0.14448 0.26028,-0.28547 0.40989,-0.40695 0.0495,-0.0416 0.0985,-0.0856 0.1524,-0.12148 0.0325,-0.0215 0.0676,-0.0445 0.10347,-0.0589 0.004,0.002 0.006,0.004 0.008,0.006 0.0856,0.0596 0.17335,0.1143 0.24588,0.1905 0.0633,0.0661 0.1143,0.14301 0.16549,0.21921 0.0162,0.0245 0.0353,0.0433 0.0488,0.069 0.0109,0.0195 0.0194,0.0447 0.0353,0.0611 0.0215,0.023 0.0401,0.0145 0.0631,7e-4 0.0303,-0.0171 0.0618,-0.0394 0.0863,-0.0646 0.0325,-0.0339 0.0569,-0.0742 0.0878,-0.10859 0.0453,-0.0503 0.0941,-0.0985 0.13656,-0.15019 0.0668,-0.0828 0.11652,-0.17688 0.18626,-0.25603 0.0279,-0.0316 0.0547,-0.064 0.0819,-0.0963 0.0109,-0.0123 0.0208,-0.0267 0.0303,-0.041 0.008,-0.0116 0.0339,-0.0381 0.0346,-0.0517 0,-0.0267 -0.0835,-0.0554 -0.11225,-0.0648 -0.0388,-0.0129 -0.0797,-0.0201 -0.11854,-0.0316 -0.0361,-0.0101 -0.0712,-0.0215 -0.10583,-0.0351 -0.0394,-0.0158 -0.0775,-0.0339 -0.1143,-0.0561 -0.0618,-0.0381 -0.13088,-0.0582 -0.19325,-0.0955 -0.0547,-0.0316 -0.11578,-0.0497 -0.17265,-0.0764 -0.0272,-0.0129 -0.049,-0.0337 -0.0747,-0.0473 -0.0403,-0.021 -0.0834,-0.021 -0.12019,-0.0504 -0.0208,-0.0173 -0.0353,-0.0359 -0.0589,-0.0495 -0.0215,-0.0123 -0.0438,-0.0245 -0.0653,-0.0374 -0.0194,-0.0123 -0.0346,-0.0237 -0.0519,-0.0381 -0.018,-0.0138 -0.0286,-0.0138 -0.0468,-0.023 -0.0222,-0.0116 -0.0346,-0.0296 -0.0589,-0.0388 -0.0236,-0.009 -0.0388,-0.0217 -0.0567,-0.0396 -0.0261,-0.0237 -0.0368,-0.0554 -0.0534,-0.0856 -0.0532,-0.097 -0.12569,-0.20633 -0.20761,-0.28253 -0.046,-0.044 -0.11726,-0.0769 -0.14965,-0.13307 -0.0131,-0.0223 -0.0166,-0.049 -0.0303,-0.0698 -0.041,0.006 -0.0574,0.0331 -0.0942,0.0497 -0.0581,0.0258 -0.10269,0.0611 -0.14376,0.11136 -0.0524,0.0648 -0.10065,0.13013 -0.1531,0.19492 -0.0145,0.0186 -0.0346,0.0309 -0.049,0.0495 -0.0187,0.023 -0.0314,0.0475 -0.0517,0.0705 -0.0254,0.0295 -0.0554,0.049 -0.0797,0.0784 -0.0324,0.0374 -0.0677,0.0712 -0.0999,0.10712 -0.0152,0.0166 -0.0229,0.0359 -0.0376,0.0525 -0.0106,0.0121 -0.0431,0.0403 -0.0293,0.0618 0.006,0.0109 0.0532,0.0166 0.0655,0.0195 0.0258,0.005 0.0475,0 0.074,0.006 0.0388,0.01 0.0734,0.025 0.11006,0.0431 0.0539,0.026 0.10788,0.0381 0.15738,0.074 0.11504,0.0821 0.25879,0.11577 0.37676,0.19271 0.0116,0.008 0.0254,0.0151 0.0374,0.0223 0,0.002 0,0.004 0,0.007 0,0.0497 0.008,0.0992 0,0.1489 -0.005,0.0359 -0.0222,0.0611 -0.0453,0.0883 -0.0482,0.0561 -0.10139,0.1073 -0.14944,0.16252 -0.0942,0.11007 -0.17688,0.22933 -0.25456,0.351 -0.0727,0.11283 -0.14888,0.217 -0.23651,0.31915 -0.069,0.0797 -0.12019,0.1732 -0.19124,0.25235 -0.004,0.004 -0.007,0.007 -0.0102,0.0109 -0.0517,-0.026 -0.10435,-0.0512 -0.15607,-0.0777 l -0.89947,-0.48463 c -0.11706,-0.0569 -0.22494,-0.11724 -0.33775,-0.18185 -0.13085,-0.0749 -0.27111,-0.13601 -0.40492,-0.20632 -0.10714,-0.0561 -0.21499,-0.11081 -0.32138,-0.16971 -0.0633,-0.0353 -0.14595,-0.0734 -0.19766,-0.12166 -0.0208,-0.0186 -0.0293,-0.0431 -0.0525,-0.0596 -0.0303,-0.0208 -0.0697,-0.0295 -0.10217,-0.051 -0.0286,-0.0195 -0.0668,-0.051 -0.10213,-0.0532 -0.0106,0.0295 0.0619,0.0784 0.0885,0.10565 m -1.66938,2.42294 c 0.0138,-0.0646 0.0431,-0.12148 0.031,-0.19547 -0.013,-0.0734 0.0346,-0.14393 0.0782,-0.20781 v 0.0431 c 0.005,7e-4 0.0102,7e-4 0.0152,7e-4 0.004,-0.0344 0.0109,-0.0705 0.005,-0.10344 -0.0187,-0.11007 -0.0446,-0.2194 -0.0641,-0.32873 -0.005,-0.0309 -0.004,-0.0653 0.004,-0.0955 0.0236,-0.10142 0.0517,-0.20136 0.0797,-0.30204 0.0229,-0.0826 0.0467,-0.16602 0.0755,-0.24738 0.0173,-0.048 0.0425,-0.0941 0.067,-0.14006 0.01,-0.0188 0.0272,-0.0331 0.0401,-0.0504 0.005,-0.008 0.009,-0.0165 0.0123,-0.025 0.018,-0.0519 -0.0236,-0.10583 0.006,-0.15755 0.0102,-0.0173 0.0152,-0.0388 0.0173,-0.0589 0.008,-0.0576 0.0127,-0.11504 0.0194,-0.17265 0,-0.01 0.004,-0.0208 0.01,-0.0287 0.0318,-0.0438 0.0648,-0.0871 0.0965,-0.13161 0.005,-0.007 0.004,-0.0215 0.004,-0.0359 0.072,-0.0648 0.10418,-0.16602 0.17981,-0.23946 0.0683,-0.0653 0.11138,-0.15737 0.16532,-0.23725 0.0366,-0.0524 0.0732,-0.10417 0.10858,-0.15737 0.0303,-0.046 0.0797,-0.0777 0.0848,-0.14467 0.004,-0.0366 0.0416,-0.0755 0.0725,-0.10418 0.0618,-0.0574 0.12936,-0.10932 0.19416,-0.16399 0,0.0101 0.004,0.0217 0.004,0.0331 0.004,0.001 0.008,0.003 0.0123,0.004 0.0258,-0.0383 0.051,-0.0764 0.0777,-0.11448 0.0166,-0.0243 0.0353,-0.048 0.0524,-0.0725 0.0131,-0.018 0.0265,-0.0353 0.0389,-0.0539 0.0208,-0.0309 0.0408,-0.0626 0.0618,-0.0935 0.007,-0.0107 0.0173,-0.0186 0.025,-0.0287 0.031,-0.0418 0.0605,-0.0841 0.0942,-0.12295 0.008,-0.0101 0.0293,-0.0109 0.0453,-0.0129 0.0229,-0.003 0.0475,7e-4 0.069,-0.006 0.0913,-0.0265 0.18278,-0.0532 0.27259,-0.0856 0.0359,-0.0129 0.0718,-0.0359 0.0992,-0.0624 0.0856,-0.0821 0.19195,-0.13804 0.27168,-0.22878 0.0418,-0.0473 0.11006,-0.074 0.16894,-0.10491 0.0663,-0.0344 0.13455,-0.0633 0.20211,-0.0942 0.0374,-0.0164 0.074,-0.0381 0.11356,-0.0438 0.0762,-0.0107 0.15388,-0.0107 0.23079,-0.018 0.0891,-0.008 0.18111,-0.002 0.2632,-0.0466 0.0884,-0.049 0.18479,-0.0396 0.27958,-0.0418 0.006,0 0.0152,0.001 0.0194,0.006 0.0423,0.0396 0.0913,0.023 0.13804,0.0144 0.007,-0.001 0.0113,-0.0186 0.0187,-0.0337 0.0219,-0.002 0.0497,-0.009 0.0777,-0.009 0.0591,-0.001 0.11797,0.001 0.17763,0.002 0.0611,7.1e-4 0.12368,0.006 0.18478,7.1e-4 0.0576,-0.004 0.1143,-0.0195 0.17043,-0.0302 0,0 0.004,-0.003 0.004,-0.004 0.0229,-10e-4 0.049,-0.0114 0.069,-0.004 0.0532,0.0179 0.10657,0.0388 0.15532,0.0676 0.0254,0.0144 0.0663,0.0223 0.0648,0.0668 0,0.006 0.0106,0.0144 0.018,0.0188 0.0296,0.0165 0.0604,0.0316 0.09,0.0473 0,-0.005 0,-0.009 0,-0.0136 0.009,-0.002 0.018,-0.007 0.0258,-0.005 0.0433,0.009 0.0856,0.0208 0.1294,0.0287 0.018,0.003 0.0375,-0.007 0.0546,-0.005 0.0677,0.0114 0.13529,0.0265 0.20285,0.0396 0.0834,0.0158 0.16602,0.0316 0.24864,0.0473 0.0123,0.003 0.0236,0.0109 0.0346,0.009 0.0762,-0.0107 0.141,0.0302 0.21131,0.0453 0.0131,0.002 0.0226,0.0188 0.0332,0.0289 -0.004,0.001 -0.004,0.004 -0.006,0.006 l -0.0648,-0.0208 c 0,0.004 -0.004,0.008 -0.004,0.0121 0.0445,0.0302 0.0898,0.0611 0.13434,0.0913 0.004,-0.006 0.005,-0.0129 0.007,-0.0186 0.0159,7.1e-4 0.0346,-0.003 0.0467,0.004 0.0387,0.0223 0.0755,0.0482 0.11286,0.0733 0.0604,0.0396 0.11779,0.0849 0.18182,0.11872 0.046,0.0245 0.1029,0.0267 0.14965,0.0502 0.10989,0.0554 0.21921,0.11301 0.29192,0.22013 0.0258,0.0388 0.056,0.0755 0.0913,0.12075 0.007,-0.0158 0.0113,-0.0245 0.0145,-0.0309 0.0834,0.0705 0.11356,0.16823 0.16528,0.25161 0.0475,0.0762 0.0957,0.15461 0.15829,0.21793 0.0755,0.0762 0.16746,0.1373 0.24938,0.2078 0.0812,0.0697 0.0963,0.17246 0.1215,0.2689 0.0102,0.0394 0.0187,0.079 0.0282,0.1178 0.005,-7e-4 0.009,-0.001 0.0145,-0.003 0,-0.0116 -0.004,-0.023 -0.005,-0.0353 0.0194,0.0195 0.0268,0.0433 0.0395,0.0633 0.0272,0.0431 0.0569,0.0856 0.0856,0.12719 0.008,0.0109 0.0194,0.0195 0.0265,0.0302 0.0453,0.0677 0.0913,0.13602 0.13525,0.20431 0.008,0.0121 0.0106,0.0272 0.0145,0.0416 0.018,0.0769 0.0332,0.1546 0.0539,0.23007 0.0194,0.0705 0.0446,0.13878 0.0668,0.2078 l 0.0109,-0.004 c 0.004,-0.006 0.005,-0.0136 0.006,-0.0173 0.009,0.0438 0.0201,0.0878 0.0243,0.13308 0.006,0.0574 0.004,0.1165 0.008,0.17393 0.006,0.0589 -0.006,0.12074 0.0258,0.17762 0.018,0.0316 0.0339,0.0668 0.0403,0.1027 0.0251,0.15535 0.0453,0.31069 0.12661,0.45168 0.0582,0.10123 0.0626,0.217 0.0423,0.32854 -0.0332,0.18259 -0.0653,0.36665 -0.1373,0.53911 -0.004,0.0101 -0.0159,0.0173 -0.0215,0.0274 -0.0243,0.0359 -0.0482,0.0733 -0.072,0.11062 0.004,0.001 0.005,0.004 0.008,0.006 0.008,-0.004 0.018,-0.008 0.0268,-0.0123 -0.0403,0.0532 -0.0475,0.11872 -0.0289,0.16823 0.0212,0.0561 0.0187,0.0985 -0.005,0.1467 -0.004,-0.004 -0.005,-0.009 -0.0138,-0.0237 -0.004,0.0425 -0.006,0.0749 -0.01,0.10639 -0.004,0.0346 -0.004,0.069 -0.01,0.10289 -0.0328,0.18976 -0.10915,0.36517 -0.1754,0.54573 -0.0661,0.17964 -0.18679,0.32781 -0.2825,0.49033 -0.051,0.0856 -0.12002,0.164 -0.20486,0.22566 -0.0943,0.0697 -0.1905,0.13675 -0.25679,0.24093 -0.046,0.074 -0.11849,0.13234 -0.18404,0.19344 -0.10269,0.097 -0.20705,0.19271 -0.31493,0.284 -0.16749,0.14302 -0.33129,0.29339 -0.55932,0.33425 -0.0159,0.003 -0.0318,7.1e-4 -0.0468,0.004 -0.0539,0.009 -0.11063,0.0114 -0.15959,0.0316 -0.0502,0.0208 -0.0928,0.0611 -0.13879,0.0913 -0.008,0.005 -0.0194,0.004 -0.0293,0.006 -0.0152,0.003 -0.0335,7.1e-4 -0.0445,0.009 -0.0906,0.0646 -0.18404,0.11853 -0.2934,0.14816 -0.0769,0.0208 -0.1524,0.0503 -0.22786,0.0775 -0.0243,0.009 -0.0482,0.0309 -0.072,0.0317 -0.0935,0.002 -0.17685,0.044 -0.26522,0.0618 -0.13084,0.0274 -0.26098,0.0626 -0.3889,-0.0136 -0.0138,-0.009 -0.0361,-0.004 -0.0547,-0.002 -0.0187,0.002 -0.0368,0.0131 -0.0546,0.0109 -0.1719,-0.0208 -0.34364,-0.0438 -0.51555,-0.0663 -0.0863,-0.0107 -0.17247,-0.0208 -0.2595,-0.0315 -0.0683,-0.009 -0.1373,-0.0158 -0.20486,-0.0281 -0.0848,-0.0151 -0.16972,-0.0352 -0.25456,-0.0525 -0.004,-7.1e-4 -0.008,0 -0.0138,-7.1e-4 -0.0396,-0.006 -0.0841,-0.003 -0.11871,-0.0215 -0.10142,-0.0532 -0.19914,-0.11356 -0.29908,-0.17246 -0.0303,-0.018 -0.0562,-0.0526 -0.0978,-0.021 -0.004,0.003 -0.0166,-0.004 -0.0243,-0.008 -0.10287,-0.0532 -0.21424,-0.079 -0.32706,-0.0963 -0.0799,-0.0129 -0.1143,-0.0747 -0.1603,-0.12664 -0.005,-0.005 0,-0.0164 -0.004,-0.0316 0.0166,0.0145 0.0279,0.0245 0.0396,0.0346 0.004,-0.002 0.006,-0.004 0.01,-0.006 -0.012,-0.0203 -0.0201,-0.0453 -0.0374,-0.0596 -0.0698,-0.0591 -0.13878,-0.11946 -0.20853,-0.17836 -0.10273,-0.0885 -0.18185,-0.20283 -0.30554,-0.26743 -0.0473,-0.0252 -0.0834,-0.0712 -0.12499,-0.10639 -0.008,-0.008 -0.0212,-0.0109 -0.031,-0.0151 -0.095,-0.0361 -0.18553,-0.0769 -0.23082,-0.17835 -0.0381,-0.0871 -0.077,-0.17393 -0.12221,-0.25823 -0.0215,-0.0409 -0.0539,-0.0775 -0.0878,-0.10989 -0.13582,-0.12865 -0.28032,-0.24958 -0.36739,-0.42204 -0.0293,-0.0596 -0.0705,-0.11356 -0.10491,-0.17117 -0.0109,-0.0173 -0.0201,-0.0359 -0.0275,-0.0554 -0.0303,-0.0826 -0.0631,-0.16381 -0.0883,-0.24792 -0.0236,-0.0777 -0.0396,-0.15829 -0.0569,-0.23799 -0.012,-0.0591 -0.018,-0.12019 -0.0328,-0.17835 -0.0212,-0.0791 -0.0611,-0.15535 -0.0685,-0.23431 -0.008,-0.0821 -0.0251,-0.15976 -0.0431,-0.23798 -0.008,-0.0324 -0.0254,-0.067 -0.0194,-0.0965"
       style="fill:#21201d;fill-opacity:1;fill-rule:evenodd;stroke:none;stroke-width:0.184057"
       id="path606" />
  </g>
</svg>
