<?xml version="1.0" encoding="UTF-8" standalone="no"?>
<!-- Created with Inkscape (http://www.inkscape.org/) -->

<svg
   width="8.2142277mm"
   height="8.2602339mm"
   viewBox="0 0 8.2142277 8.2602339"
   version="1.1"
   id="svg2402"
   inkscape:version="1.1.2 (0a00cf5339, 2022-02-04)"
   sodipodi:docname="rm5.svg"
   xmlns:inkscape="http://www.inkscape.org/namespaces/inkscape"
   xmlns:sodipodi="http://sodipodi.sourceforge.net/DTD/sodipodi-0.dtd"
   xmlns="http://www.w3.org/2000/svg"
   xmlns:svg="http://www.w3.org/2000/svg">
  <sodipodi:namedview
     id="namedview2404"
     pagecolor="#ffffff"
     bordercolor="#666666"
     borderopacity="1.0"
     inkscape:pageshadow="2"
     inkscape:pageopacity="0.0"
     inkscape:pagecheckerboard="0"
     inkscape:document-units="mm"
     showgrid="false"
     inkscape:zoom="0.64052329"
     inkscape:cx="-1106.9075"
     inkscape:cy="-71.035669"
     inkscape:window-width="2560"
     inkscape:window-height="1376"
     inkscape:window-x="0"
     inkscape:window-y="0"
     inkscape:window-maximized="1"
     inkscape:current-layer="layer1" />
  <defs
     id="defs2399" />
  <g
     inkscape:label="Layer 1"
     inkscape:groupmode="layer"
     id="layer1"
     transform="translate(-397.81605,-167.29344)">
    <path
       d="m 404.50073,171.60007 c -7.1e-4,-0.002 -10e-4,-0.002 -0.002,-0.004 10e-4,-0.008 0.002,-0.0171 0.002,-0.0272 z"
       style="fill:#21201d;fill-opacity:1;fill-rule:evenodd;stroke:none;stroke-width:0.184057"
       id="path608" />
    <path
       d="m 404.22741,171.59933 c 0.003,-0.0136 -0.004,-0.026 10e-4,-0.0388 0.0346,-0.002 0.0539,-0.0121 0.0893,-0.0114 0.0171,0 0.0359,0 0.0532,0 0.0193,-0.002 0.0272,-0.006 0.0409,-0.009 0.0252,-0.004 0.064,-0.018 0.0742,-0.003 0.006,0.008 -0.003,0.0237 -0.001,0.0316 0.002,0.0121 0.006,0.0173 0.0129,0.0272 -10e-4,0.0131 -0.004,0.0252 -0.009,0.0396 -0.009,0.0245 0.005,0.0519 -0.006,0.0755 -0.0403,0.005 -0.0668,-0.004 -0.10362,-0.01 -0.0394,-0.006 -0.0898,0.002 -0.13068,0 -0.021,0 -0.0304,0.004 -0.0388,-0.009 -0.006,-0.009 0,-0.0316 7.1e-4,-0.0418 7e-4,-0.0186 0.0131,-0.0337 0.0166,-0.0517"
       style="fill:#21201d;fill-opacity:1;fill-rule:nonzero;stroke:none;stroke-width:0.184057"
       id="path610" />
    <path
       d="m 399.62251,171.70222 c -0.0561,0 -0.10639,-0.009 -0.16253,-0.0101 -0.0589,0 -0.0596,-0.0129 -0.0589,-0.0453 0,-0.0173 -0.007,-0.0388 -10e-4,-0.0554 0.005,-0.0136 0.0144,-0.0245 0.0186,-0.0374 0.004,-0.0144 -0.0107,-0.0201 0.0151,-0.0267 0.0145,-0.004 0.0433,0.002 0.0598,0 0.0265,-0.003 0.0646,-0.0243 0.0948,-0.0193 l 0.0512,-0.0208 c 0.0186,0.023 0.0171,0.0416 0.0164,0.0683 -7e-4,0.0366 0.0173,0.0668 0.0173,0.10344 0,0.0339 0.009,0.0433 -0.0503,0.0433"
       style="fill:#21201d;fill-opacity:1;fill-rule:nonzero;stroke:none;stroke-width:0.184057"
       id="path612" />
    <path
       d="m 400.82826,171.44196 c -0.0202,0.002 -0.0302,0.008 -0.0475,0.0114 -0.0195,0.004 -0.049,0 -0.0697,0 -0.0339,0 -0.0863,0.008 -0.11872,0 -0.0351,-0.009 -0.0215,-0.041 -0.0243,-0.0626 -7e-4,-0.006 -0.002,-0.004 -0.004,-0.009 -10e-4,-0.004 0,-0.008 -10e-4,-0.0114 -10e-4,-0.008 -0.003,-0.0144 -0.003,-0.023 0,-0.0129 -0.004,-0.0252 -0.004,-0.0388 -7.1e-4,-0.0101 0,-0.0201 0,-0.0309 0,-0.006 -0.004,-0.0193 0.004,-0.0237 0.006,0.006 0.0366,0.002 0.0466,0.002 0.0296,0 0.0618,0.004 0.0915,-0.002 0.0201,-0.004 0.0416,-0.004 0.0631,-0.004 0.0144,0 0.0331,0 0.0445,0.009 0.0203,0.0158 0.0116,0.0525 0.0116,0.0718 0,0.021 -0.002,0.0418 -7.1e-4,0.0626 7.1e-4,0.0166 0.0123,0.0339 0.0116,0.0497"
       style="fill:#21201d;fill-opacity:1;fill-rule:nonzero;stroke:none;stroke-width:0.184057"
       id="path614" />
    <path
       d="m 402.13451,171.20103 c 0,0.0151 0.008,0.049 7e-4,0.0626 -0.009,0.0186 -0.0755,0.0101 -0.0999,0.0101 -0.0438,0 -0.0869,0 -0.13087,0 -0.023,0 -0.0445,0.005 -0.0554,-0.0151 -0.006,-0.0124 -7e-4,-0.0339 -7e-4,-0.0468 7e-4,-0.0381 0.0129,-0.0734 0.0129,-0.11228 l 0.0121,-0.0208 c 0.0403,0 0.092,0.008 0.13086,0 0.0166,-0.004 0.026,-0.009 0.0433,-0.0109 0.0193,-0.002 0.0423,0 0.0618,0 0.0258,0 0.0322,-0.004 0.0381,0.0151 0.006,0.021 -0.008,0.0418 -0.0116,0.0618 -0.004,0.018 -0.001,0.0374 -0.001,0.0554"
       style="fill:#21201d;fill-opacity:1;fill-rule:nonzero;stroke:none;stroke-width:0.184057"
       id="path616" />
    <path
       d="m 403.12896,171.42245 c 7.1e-4,-0.0201 -0.008,-0.0245 -0.0131,-0.0403 -0.004,-0.0158 -7.1e-4,-0.0322 0,-0.048 7e-4,-0.007 -7.1e-4,-0.0109 -0.003,-0.0173 -0.001,-0.009 -7.1e-4,-0.0173 -7.1e-4,-0.026 0,-0.009 -0.002,-0.0201 7.1e-4,-0.0287 0.006,0 0.01,-0.002 0.0158,-0.004 0.007,-0.002 0.0201,0 0.028,0 0.0101,0 0.018,-0.002 0.028,-0.003 0.0101,-0.002 0.0202,0 0.0309,-0.003 0.0316,-0.006 0.0648,-0.008 0.0979,-0.008 0.006,0 0.0201,-0.002 0.0257,0 0.0238,0.0109 0.0109,0.0438 0.0129,0.0591 0.002,0.0164 0.0173,0.0337 0.0138,0.051 -0.002,0.0121 -0.009,0.0193 -0.0131,0.0316 -0.006,0.0166 -0.0107,0.0359 -0.0151,0.0539 -0.0445,0.004 -0.0769,0.0223 -0.12221,0.0223 -0.0201,0 -0.0488,0.004 -0.069,0 -0.0258,-0.005 -0.0179,-0.0203 -0.0179,-0.041"
       style="fill:#21201d;fill-opacity:1;fill-rule:nonzero;stroke:none;stroke-width:0.184057"
       id="path618" />
    <path
       d="m 398.77842,172.41103 c 0.004,0.0517 0.0101,0.10362 0.0144,0.15461 0.004,0.0554 0.0173,0.11356 0.0287,0.16749 0.0158,0.0747 0.0309,0.14964 0.0512,0.22289 0.0366,0.13658 0.0955,0.2575 0.18902,0.35303 0.0883,0.0913 0.17467,0.18405 0.27682,0.25529 0.0992,0.0683 0.19344,0.15387 0.28971,0.22859 0.0777,0.0589 0.15681,0.11504 0.24166,0.15737 0.11356,0.0576 0.22713,0.11651 0.34787,0.14541 0.0806,0.0193 0.16252,0.0401 0.24369,0.0545 0.14743,0.0267 0.29707,0.0512 0.44505,0.0685 0.0935,0.0107 0.18203,0.023 0.27405,0.002 0.10068,-0.023 0.18406,-0.0502 0.27093,-0.11209 0.072,-0.0504 0.14817,-0.0913 0.21866,-0.14375 0.0136,-0.009 0.0272,-0.018 0.0416,-0.0267 0.023,-0.0129 0.0447,-0.0245 0.0618,-0.046 0.0289,-0.0351 0.0425,-0.0804 0.0698,-0.11725 0.0274,-0.0366 0.0633,-0.0646 0.0935,-0.0985 0.0641,-0.0705 0.12442,-0.14522 0.19124,-0.21277 0.051,-0.051 0.0999,-0.097 0.16822,-0.12295 0.0698,-0.0267 0.14522,-0.0438 0.21866,-0.0569 0.0488,-0.008 0.0906,-0.0237 0.14007,-0.023 0.0396,0.002 0.0611,-0.0136 0.0992,-0.0129 0.069,0 0.14172,-0.004 0.20135,0.0381 0.0648,0.046 0.14375,0.0834 0.21645,0.11724 0.0423,0.0193 0.0913,0.0431 0.12939,0.0698 0.0727,0.051 0.13381,0.11283 0.1732,0.19345 0.0309,0.0624 0.0433,0.14872 0.0539,0.21774 0.009,0.0547 0.005,0.10565 -0.0258,0.15313 -0.0202,0.0309 -0.0467,0.0561 -0.0742,0.0806 -0.0359,0.0317 -0.0688,0.0683 -0.10638,0.0992 -0.0258,0.0215 -0.0552,0.0388 -0.0884,0.0503 -0.0173,0.006 -0.0331,0.0223 -0.0517,0.0215 -0.007,0 -0.0116,-0.0114 -0.0166,-0.0121 -0.0144,-0.002 -0.023,0 -0.0374,0 -0.026,0.003 -0.0418,0.009 -0.0655,0.0188 -0.0166,0.006 -0.0316,0.0164 -0.046,0.0223 -0.0208,0.007 -0.0403,0.002 -0.0589,-0.002 -0.0309,-0.005 -0.023,-0.002 -0.0237,0.0329 -7.1e-4,0.0361 -0.006,0.0663 -0.004,0.10289 10e-4,0.026 -0.004,0.0604 -0.0144,0.0841 0.0289,0.0295 0.12295,0 0.15608,-0.004 0.0561,-0.005 0.10565,-0.026 0.16252,-0.0309 0.0661,-0.006 0.13657,-0.0223 0.20265,-0.009 0.0561,0.0114 0.0863,-0.005 0.13381,-0.0425 0.0955,-0.0755 0.18553,-0.16823 0.22565,-0.29909 0.0309,-0.10068 0.0368,-0.22566 0.009,-0.33075 -0.0237,-0.0898 -0.074,-0.16529 -0.11135,-0.24867 -0.0274,-0.0618 -0.0381,-0.12516 -0.0497,-0.19197 -0.0166,-0.0992 -0.0849,-0.17541 -0.16896,-0.22731 -0.0322,-0.0201 -0.0661,-0.0359 -0.0977,-0.0574 -0.0445,-0.0316 -0.0863,-0.0604 -0.14301,-0.0596 -0.0361,0 -0.0655,-0.0109 -0.1,-0.0136 -0.0611,-0.006 -0.11798,-0.0109 -0.17688,-0.026 -0.0705,-0.018 -0.1338,-0.0359 -0.20559,-0.0388 -0.11945,-0.006 -0.23669,-0.0272 -0.3567,-0.0272 -0.10417,0 -0.19694,0 -0.29835,0.0258 -0.13657,0.0359 -0.23872,0.13804 -0.33351,0.23798 -0.0534,0.0554 -0.1051,0.11872 -0.13952,0.18775 -0.009,0.0158 -0.009,0.0344 -0.0223,0.0488 -0.0217,0.023 -0.0618,0.0381 -0.0863,0.0569 -0.0353,0.0265 -0.0727,0.0567 -0.10436,0.0871 -0.0646,0.0617 -0.10914,0.13805 -0.18461,0.18756 -0.0375,0.0252 -0.0799,0.0324 -0.11945,0.0532 -0.0468,0.0237 -0.0977,0.0331 -0.14743,0.0475 -0.13289,0.0381 -0.27884,0.0618 -0.41615,0.0374 -0.0655,-0.0114 -0.12442,-0.049 -0.18332,-0.0826 -0.0626,-0.0353 -0.12369,-0.0769 -0.18553,-0.11503 -0.0871,-0.0539 -0.17982,-0.097 -0.26669,-0.15167 -0.0908,-0.0576 -0.17044,-0.12884 -0.25676,-0.19344 -0.051,-0.0388 -0.10418,-0.0769 -0.1524,-0.12148 -0.0425,-0.0396 -0.0769,-0.092 -0.1259,-0.12222 -0.0337,-0.021 -0.0718,-0.0289 -0.10196,-0.0554 -0.0267,-0.023 -0.044,-0.0547 -0.0606,-0.0856 -0.0696,-0.13013 -0.11927,-0.2724 -0.14871,-0.41983 -0.0151,-0.0749 -0.0223,-0.15958 -0.0216,-0.23652 7.1e-4,-0.0512 -0.0116,-0.13878 0.0208,-0.18129 0.0344,0.0274 0.007,-0.0166 -0.002,-0.0468 -0.009,-0.0309 -0.0166,-0.0604 -0.0272,-0.0906 -0.0144,-0.041 -0.0346,-0.0871 -0.0611,-0.12 -0.0158,-0.0203 -0.0324,-0.0324 -0.0467,-0.0554 -0.006,-0.0109 -0.0151,-0.0396 -0.0295,-0.0418 -0.0158,-0.003 -0.0445,0.0433 -0.0554,0.0539 -0.023,0.023 -0.0339,0.0368 -0.0403,0.0734 -0.0193,0.11135 -0.006,0.22289 -0.0121,0.33499 -0.003,0.0561 -0.013,0.11227 -0.009,0.16823 m 2.34745,2.32446 c 0.0114,0.008 0.0409,0.009 0.0539,0.0136 0.0166,0.006 0.0287,0.0158 0.0438,0.0223 0.0525,0.0203 0.10418,0.0309 0.15461,0.0591 0.0653,0.0359 0.15166,0.046 0.22565,0.0302 0.018,-0.004 0.0317,-0.0136 0.0512,-0.0166 0.0129,-0.002 0.0258,0.002 0.0388,-0.003 0.0265,-0.009 0.046,-0.0359 0.0675,-0.0517 0.0237,-0.0186 0.0517,-0.0294 0.0762,-0.0482 0.10418,-0.0782 0.18976,-0.18185 0.26744,-0.28676 0.0252,-0.0346 0.0547,-0.0668 0.0791,-0.10142 0.0144,-0.0208 0.0252,-0.0431 0.0431,-0.0618 0.0482,-0.0503 0.0791,-0.11577 0.13804,-0.15461 0.0683,-0.046 0.11356,-0.1086 0.19123,-0.14154 0.0618,-0.0267 0.12516,-0.0598 0.19124,-0.072 0.0893,-0.0166 0.17688,0.004 0.26614,0 0.0309,0.0626 0.0409,0.0539 0.0567,0.0109 0.0131,-0.0339 0.0123,-0.072 0.0188,-0.10786 0.009,-0.0497 0.0144,-0.10565 0.006,-0.15884 -0.006,-0.0376 -0.0144,-0.0274 -0.0418,-0.0376 -0.0215,-0.007 -0.0423,-0.0158 -0.0661,-0.0201 -0.0388,-0.009 -0.0849,0 -0.12442,0.002 -0.0423,0.002 -0.0869,-0.002 -0.12866,0.005 -0.0826,0.0121 -0.16399,0.0497 -0.24369,0.0747 -0.0712,0.0223 -0.11651,0.0611 -0.17908,0.0992 -0.0403,0.0252 -0.0683,0.067 -0.0992,0.10142 -0.0272,0.0324 -0.0554,0.0641 -0.0777,0.0999 -0.0201,0.0316 -0.0409,0.0611 -0.0618,0.092 -0.0121,0.0173 -0.0171,0.0381 -0.0295,0.0547 -0.0129,0.0188 -0.0316,0.0316 -0.0445,0.051 -0.0324,0.0482 -0.0683,0.09 -0.1108,0.12884 -0.0272,0.0258 -0.0502,0.0596 -0.0812,0.0804 -0.0324,0.0201 -0.0668,0.0396 -0.0992,0.0596 -0.0425,0.0252 -0.0841,0.0388 -0.12866,0.0583 -0.0841,0.0366 -0.19767,0.0525 -0.28694,0.0258 -0.0344,-0.01 -0.0596,-0.01 -0.0948,-0.009 -0.046,0.002 -0.0388,0.0131 -0.0504,0.0561 -0.0109,0.0381 -0.0596,0.11945 -0.0208,0.14596 m 2.82839,-0.83323 c 0.026,0.0215 0.10216,-0.0195 0.11798,-0.044 0.0237,-0.0344 0.051,-0.0854 0.0668,-0.12645 0.0173,-0.0445 0.0201,-0.0769 0.0216,-0.12644 0.003,-0.0512 0.0158,-0.0885 0.0121,-0.13161 0.0252,-0.0992 0.0252,-0.23301 -0.0129,-0.32136 -0.041,-0.0957 -0.11651,-0.15682 -0.18111,-0.22363 -0.0583,-0.0604 -0.11578,-0.11798 -0.17615,-0.17412 -0.13307,-0.12295 -0.27681,-0.24793 -0.42921,-0.3221 -0.0742,-0.0359 -0.14523,-0.0631 -0.21866,-0.0827 0.003,-0.002 0.006,-0.006 0.0101,-0.009 0.0532,-0.0423 0.0733,-0.1005 0.10491,-0.15516 0.0252,-0.0433 0.0561,-0.0834 0.0784,-0.12884 0.028,-0.0545 0.0561,-0.1121 0.0878,-0.16529 0.0201,-0.0344 0.028,-0.0727 0.0473,-0.10712 0.0453,-0.0769 0.023,-0.16823 0.023,-0.25234 0,-0.0769 -0.0121,-0.16179 0.004,-0.23799 0.009,-0.0453 0.009,-0.0863 0.0107,-0.13307 0.002,-0.0401 0.0165,-0.0777 0.0165,-0.1178 -0.002,-0.10859 -7e-4,-0.21719 -7e-4,-0.32652 0,-0.0618 0.004,-0.12516 -0.001,-0.18627 -0.004,-0.0574 -0.0145,-0.11282 -0.0138,-0.16951 7.1e-4,-0.11872 0,-0.23725 0,-0.35597 0,-0.1351 -0.008,-0.26891 -0.0144,-0.40401 -0.001,-0.0309 -0.0136,-0.0604 -0.0158,-0.0913 -0.002,-0.0245 -0.0107,-0.0453 -0.01,-0.069 10e-4,-0.0591 10e-4,-0.11725 -0.002,-0.17615 -0.003,-0.041 0.009,-0.092 -0.0267,-0.12019 -0.0151,-0.0114 -0.028,-0.0215 -0.0431,-0.0337 -0.0208,-0.0173 -0.0396,-0.0339 -0.0589,-0.0539 -0.0188,-0.0188 -0.041,-0.0302 -0.0591,-0.0482 -0.0164,-0.0173 -0.025,-0.0381 -0.0445,-0.0539 -0.0114,-0.0101 -0.0245,-0.0158 -0.0351,-0.0267 -0.018,-0.0171 -0.0302,-0.0401 -0.0497,-0.0582 -0.023,-0.0208 -0.048,-0.0381 -0.0718,-0.0574 -0.0447,-0.0361 -0.0828,-0.0871 -0.11577,-0.13307 -0.021,-0.028 -0.0353,-0.0611 -0.0584,-0.0871 -0.0294,-0.0329 -0.0718,-0.0201 -0.1143,-0.0201 0.0151,0.0589 0.0151,0.1316 0.0151,0.20338 0,0.12442 0.0123,0.24664 0.0331,0.37032 0.026,0.14964 0.0725,0.29413 0.072,0.44579 -7.1e-4,0.18332 -0.004,0.37309 0.0151,0.55567 0.003,0.0302 0.0129,0.0576 0.0238,0.0856 0.0302,0.0755 0.0236,0.15314 0.0186,0.23155 -0.009,0.046 -0.0173,0.092 -0.0252,0.13878 -0.008,0.0755 -0.003,0.15387 -0.002,0.23007 0,0.11927 -0.0188,0.25602 0.003,0.37455 0.013,0.0727 0.0123,0.14596 0.0123,0.21867 -7.1e-4,0.0626 0.0121,0.12865 -0.004,0.18976 -0.0107,0.0423 -0.0295,0.0797 -0.0302,0.12442 -10e-4,0.0705 0.0281,0.13363 0.0453,0.20191 0.0245,0.0965 0.0532,0.19124 0.0827,0.28769 0.009,0.0302 0.0188,0.0804 0.0455,0.10859 -0.021,-0.004 -0.0411,-0.009 -0.0626,-0.0116 -0.0784,-0.0114 -0.15534,-0.0324 -0.23301,-0.0468 -0.0834,-0.0166 -0.16676,-0.0251 -0.2494,-0.0488 -0.13878,-0.0396 -0.2805,-0.0683 -0.4213,-0.092 0.0164,-0.0309 0.0243,-0.0648 0.0438,-0.095 0.0272,-0.0438 0.0618,-0.0834 0.0834,-0.13013 0.0252,-0.0539 0.0309,-0.11209 0.0497,-0.16823 0.0201,-0.0596 0.0381,-0.12222 0.0416,-0.18553 0.004,-0.0683 0.002,-0.13731 7.1e-4,-0.20633 -7.1e-4,-0.028 -10e-4,-0.0525 -0.009,-0.0799 -0.0173,-0.0646 -10e-4,-0.13216 -0.0101,-0.19842 -0.008,-0.0646 -0.023,-0.12792 -0.0265,-0.1927 -0.005,-0.097 -0.009,-0.19474 -0.0116,-0.29192 -0.001,-0.0797 0.007,-0.16455 -0.0186,-0.24296 -0.018,-0.0559 -0.0433,-0.10712 -0.0512,-0.16528 -0.006,-0.0468 -0.008,-0.0928 -0.0186,-0.13952 -0.0101,-0.0445 -0.0237,-0.0885 -0.023,-0.13455 7e-4,-0.0473 0.0309,-0.0883 0.0331,-0.13583 0.003,-0.0547 -0.003,-0.10933 -0.0123,-0.16381 -0.0144,-0.09 -0.028,-0.18277 -0.0324,-0.27406 -0.006,-0.10915 0.002,-0.21848 -0.003,-0.32781 -0.004,-0.11577 -0.0203,-0.23154 -0.0317,-0.34805 -0.005,-0.056 -0.008,-0.11283 -0.0116,-0.17026 -0.001,-0.0203 -0.009,-0.0324 -0.0151,-0.0512 -0.0121,-0.0416 -0.004,-0.0935 -0.003,-0.13657 7e-4,-0.072 0.003,-0.14374 0.003,-0.21571 -7.1e-4,-0.0705 0.0274,-0.12866 0,-0.19842 0.008,0.0201 -0.0309,-0.004 -0.0287,-0.002 0,0 -7e-4,0 -10e-4,-0.002 -0.01,-0.007 -0.009,-0.0101 -0.0223,-0.0144 -0.01,-0.004 -0.0201,-0.004 -0.0302,-0.004 -0.0324,0.004 -0.069,0.0237 -0.10067,0.0339 -0.056,0.0193 -0.0826,0.0725 -0.12074,0.11356 -0.0403,0.0438 -0.0791,0.0891 -0.11798,0.13363 -0.0359,0.041 -0.051,0.0913 -0.0834,0.13528 -0.0366,0.0495 -0.0683,0.10197 -0.10271,0.1524 -0.0539,0.0804 -0.0237,0.16253 -0.021,0.25235 0.002,0.0856 0.003,0.16823 0.0101,0.25381 0.0158,0.16749 -0.0114,0.33719 0.0144,0.50469 0.021,0.13436 0.0777,0.26467 0.0806,0.40051 0.002,0.11209 10e-4,0.22437 0,0.33646 0,0.0423 -0.009,0.0898 0.005,0.1316 0.008,0.0245 0.0274,0.0453 0.0346,0.0698 0.0114,0.0401 0.004,0.0869 0.004,0.12792 7.1e-4,0.0489 7.1e-4,0.0977 7.1e-4,0.14669 v 0.53782 c 0,0.0532 -0.003,0.10712 -7.1e-4,0.16031 0.003,0.0525 0.0166,0.10216 0.0158,0.15535 -7e-4,0.094 -0.0158,0.1905 0.0418,0.27737 0.0243,0.0368 0.0144,0.0727 0.0329,0.11154 0.021,0.0453 0.0381,0.0898 0.0604,0.1351 0.0123,0.0252 0.0274,0.0497 0.0433,0.0734 -0.0611,0 -0.12148,0.005 -0.18406,0.01 -0.15461,0.0123 -0.30553,0.0346 -0.43437,0.14466 -0.0223,0.0186 -0.0495,0.0236 -0.0733,0.0401 -0.023,0.0158 -0.0431,0.0346 -0.0668,0.0475 -0.0519,0.0287 -0.10362,0.0517 -0.15461,0.0827 -0.0663,0.0403 -0.14025,0.0683 -0.19565,0.13086 -0.0388,0.044 -0.0747,0.0856 -0.10841,0.13657 -0.026,0.0381 -0.067,0.0569 -0.0871,0.10215 -0.0136,0.0309 -0.018,0.069 -0.0208,0.10437 -10e-4,0.0215 -0.002,0.0431 0,0.0646 0.003,0.0324 0.0129,0.0626 0.0193,0.0942 0.009,0.0445 0.009,0.0898 0.0144,0.1351 0.006,0.0532 0.0274,0.0655 0.0576,0.10141 0.0374,0.046 0.0797,0.0755 0.12644,0.10639 0.0223,0.0151 0.0433,0.0431 0.0705,0.0504 0.018,0.005 0.0346,0.006 0.0532,0.0121 0.0396,0.0136 0.0784,0.0309 0.11577,0.0495 0.0136,0.007 0.026,0.0138 0.0403,0.0145 0.0381,0 0.0769,-0.0309 0.10914,-0.049 0.021,-0.0109 0.046,-0.0101 0.069,-0.0158 0.0418,-0.0109 0.0712,-0.0503 0.11154,-0.0683 0.0252,-0.0116 0.028,-0.0267 0.0467,-0.0497 0.0144,-0.0171 0.0287,-0.0257 0.0416,-0.0445 0.0317,-0.046 0.0648,-0.10271 0.0849,-0.15664 0.008,-0.0203 0.0202,-0.0539 0.0123,-0.0777 -0.006,-0.0223 -0.0497,-0.0418 -0.0675,-0.0569 -0.0158,-0.0129 -0.046,-0.0517 -0.0655,-0.0495 -0.0101,0.0517 0.002,0.10988 -0.0237,0.15737 -0.028,0.0504 -0.0676,0.0885 -0.11577,0.10436 -0.0351,0.0114 -0.0631,0.0359 -0.0992,0.048 -0.0409,0.0144 -0.0797,0.0151 -0.12222,0.0144 -0.0337,0 -0.0812,-0.006 -0.0985,-0.048 -0.006,-0.0166 -0.004,-0.0267 -0.001,-0.044 0.006,-0.0445 0.008,-0.0883 0.0144,-0.13289 0.005,-0.0339 -0.005,-0.067 0.0109,-0.0972 0.0114,-0.0215 0.0337,-0.0287 0.046,-0.0468 0.018,-0.0258 0.0173,-0.0537 0.023,-0.0847 0.007,-0.0403 0.0352,-0.049 0.0574,-0.0734 0.0935,-0.10418 0.23596,-0.15958 0.35228,-0.22142 0.0742,-0.0396 0.15038,-0.0661 0.23007,-0.0841 0.046,-0.0101 0.092,-0.0188 0.13878,-0.0237 0.0749,-0.007 0.14393,0.008 0.21866,0.0166 0.11724,0.0121 0.23357,0.002 0.35008,0.018 0.0841,0.0121 0.16675,0.0309 0.25105,0.0438 0.0948,0.0151 0.19473,0.0438 0.28602,0.0856 0.0906,0.0416 0.18626,0.079 0.2805,0.0992 0.10344,0.0215 0.19694,0.0539 0.29191,0.11779 0.0782,0.0526 0.15516,0.0987 0.2286,0.16547 0.0272,0.0252 0.0445,0.0431 0.0646,0.0804 0.026,0.0468 0.0591,0.0762 0.0907,0.11651 0.0431,0.0569 0.11282,0.12663 0.13288,0.20485 0.0188,0.072 0.0195,0.16823 0.0124,0.24093 -0.006,0.0547 -0.0116,0.11081 -0.0138,0.16529 -0.002,0.0274 -0.0201,0.092 0.003,0.11227 m 0.33572,-1.51424 c 0.0223,0.004 0.0433,0.004 0.0663,0.0123 0.025,0.009 0.0495,0.007 0.0732,0.0129 0.0166,0.004 0.023,0.0129 0.0381,0.0208 0.023,0.0123 0.0403,0.0158 0.0618,0.0324 0.0245,0.018 0.0482,0.0331 0.0697,0.0525 0.0604,0.0539 0.10418,0.1294 0.13731,0.20284 0.0725,0.15884 0.023,0.38394 -0.0576,0.52401 -0.0151,0.0267 -0.0251,0.0512 -0.046,0.0727 -0.0151,0.0173 -0.0366,0.0403 0,0.0503 0.0633,0.0166 0.14595,-0.0344 0.18994,-0.0683 0.0532,-0.0388 0.0861,-0.0891 0.11283,-0.14522 0.023,-0.0495 0.0611,-0.0955 0.0712,-0.14945 0.0114,-0.0619 0.0287,-0.12442 0.0351,-0.18627 0.006,-0.0596 0.0374,-0.13436 0.0144,-0.19124 -0.0237,-0.0576 -0.0525,-0.10436 -0.0948,-0.15166 -0.0475,-0.0532 -0.0979,-0.10215 -0.14099,-0.15755 -0.0188,-0.0245 -0.0344,-0.0366 -0.0611,-0.0503 -0.0374,-0.021 -0.0668,-0.0517 -0.10418,-0.0727 -0.018,-0.009 -0.0368,-0.0129 -0.0547,-0.0223 -0.0302,-0.0173 -0.0554,-0.0374 -0.0834,-0.0539 0.0144,-0.0337 0.0315,-0.0661 0.0495,-0.10215 0.0216,-0.0446 0.0331,-0.0884 0.0747,-0.12572 0.021,-0.0188 0.0353,-0.0245 0.0295,-0.0539 -0.0107,-0.0582 -0.0295,-0.11006 -0.0307,-0.1697 -0.002,-0.14025 -0.0534,-0.27829 -0.0447,-0.41762 0.008,-0.13234 0.0138,-0.26247 0.0131,-0.39481 -7.1e-4,-0.049 0.0114,-0.0942 0.0129,-0.14301 0.002,-0.067 -7.1e-4,-0.13455 -7.1e-4,-0.2021 0,-0.049 0.006,-0.0985 0.005,-0.14743 0,-0.028 7.1e-4,-0.0567 -0.0114,-0.0826 -0.005,-0.0121 -0.0129,-0.0188 -0.0166,-0.0324 -0.009,-0.0374 7.1e-4,-0.0869 0.001,-0.12497 0,-0.0482 -7e-4,-0.0965 -0.003,-0.14393 -0.002,-0.0438 -0.0416,-0.0784 -0.0633,-0.11707 -0.0129,-0.023 -0.0193,-0.044 -0.0401,-0.0611 -0.0641,-0.0534 -0.12074,-0.12883 -0.18203,-0.18994 -0.007,-0.007 -0.0151,-0.0151 -0.023,-0.0223 -0.0582,-0.0539 -0.12498,-0.10216 -0.17025,-0.16602 -0.0158,-0.0223 -0.0274,-0.0539 -0.049,-0.0705 -0.0359,-0.028 -0.092,-0.0114 -0.0898,0.0396 10e-4,0.0344 0.0158,0.0668 0.0193,0.10068 0.004,0.0396 -0.003,0.079 -0.003,0.11853 0,0.0583 -0.004,0.11798 -7.1e-4,0.17688 0.008,0.12516 0.0559,0.24516 0.0733,0.36885 0.0116,0.0806 0.0123,0.16473 0.018,0.24517 0.004,0.0569 0.0129,0.11356 0.0158,0.17043 0.006,0.13087 -7e-4,0.26321 -7e-4,0.39462 0,0.17339 0.006,0.34732 -0.0144,0.51997 -0.0116,0.10565 -0.0101,0.22933 0.0136,0.3313 0.0114,0.0475 0.0309,0.0965 0.0445,0.14467 0.0116,0.0381 0.023,0.0725 0.0381,0.10712 -0.006,0.002 -0.0121,0.002 -0.0186,0.003 -0.0532,0.0109 -0.10436,0.0144 -0.13528,0.0598 -0.0258,0.0387 -0.0532,0.074 -0.0762,0.1143 -0.009,0.0158 -0.0193,0.023 -0.0324,0.0359 -0.0129,0.0144 -0.0179,0.0295 -0.0251,0.0475 -0.0151,0.0381 -0.0138,0.0733 -0.0138,0.1143 0,0.0295 -0.006,0.0646 -7.1e-4,0.0928 0.004,0.0223 0.0243,0.0423 0.0374,0.0596 0.028,0.0351 0.0582,0.0777 0.10491,0.0913 0.0151,0.004 0.0223,0.0101 0.0344,0.0158 0.0158,0.007 0.021,0.008 0.0403,0.0121 0.0287,0.007 0.0512,0.0368 0.0569,-0.002 0.004,-0.0289 -0.0123,-0.0368 -0.0316,-0.0547 -0.0136,-0.0123 -0.0396,-0.0223 -0.0346,-0.0101 -0.006,-0.004 -0.0136,-0.008 -0.0186,-0.0129 -0.0482,-0.0468 -0.041,-0.12737 -0.003,-0.18056 0.0165,-0.0237 0.0309,-0.0453 0.0583,-0.0626 0.0179,-0.0107 0.0351,-0.0136 0.0532,-0.0201 0.0151,-0.004 0.0287,-0.0144 0.0453,-0.0144 0.0245,0 0.0423,0.0237 0.0661,0.0287 m -3.28062,-1.3589 c 7e-4,-0.10841 -0.0215,-0.20983 -0.046,-0.31695 -0.0272,-0.12295 -0.0201,-0.23946 -0.0302,-0.36388 -0.0101,-0.13013 -0.0339,-0.25879 -0.0425,-0.38892 -0.009,-0.14522 -0.001,-0.29265 -0.001,-0.43787 v -0.57445 c 0,-0.0727 0.008,-0.1524 0.004,-0.2286 l 0.0109,0.0661 c 0.01,-0.0416 0.0582,-0.25528 -0.041,-0.26173 -0.0826,-0.006 -0.13086,0.0841 -0.18331,0.13307 -0.0641,0.0589 -0.12295,0.11799 -0.18553,0.17836 -0.0295,0.0287 -0.0646,0.0539 -0.0985,0.0769 -0.0101,0.006 -0.023,0.0107 -0.0302,0.0201 -0.018,0.0223 -0.003,0.0524 -0.0129,0.0762 -0.003,0.006 -0.0138,0.006 -0.0173,0.0121 -0.007,0.0151 -7.1e-4,0.0526 -7.1e-4,0.0677 0,0.0401 0,0.0812 0,0.12148 -7e-4,0.10068 -0.0158,0.19842 -0.0151,0.2991 0,0.051 -7e-4,0.10197 0,0.1524 7.1e-4,0.0604 -0.0136,0.11798 -0.0158,0.17687 -0.004,0.1086 7.1e-4,0.21775 7.1e-4,0.3256 0,0.14394 0.007,0.28769 0.0257,0.42996 0.0203,0.15314 0.0145,0.30278 0.018,0.45592 0.003,0.0683 0.009,0.14025 0.0166,0.20853 0.006,0.0582 0.0287,0.11504 0.0381,0.17394 0.0158,0.10859 0,0.21848 0.006,0.3278 0.004,0.0762 0.0445,0.14099 0.0762,0.21001 0.0289,0.0633 0.0512,0.12866 0.0742,0.19345 0.0136,0.0409 0.048,0.0626 0.0725,0.0985 0.0131,0.0186 0.0282,0.028 0.0403,0.0468 0.0216,0.0329 0.0388,0.0582 0.0675,0.0883 0.028,-0.0252 0.0287,-0.0676 0.0517,-0.0963 0.0282,-0.0353 0.0447,-0.0482 0.0526,-0.09 0.007,-0.0337 0.0272,-0.0661 0.0315,-0.10049 10e-4,-0.0173 -0.002,-0.0316 10e-4,-0.049 0.005,-0.0201 0.018,-0.0381 0.0237,-0.0576 0.0274,-0.0876 0.0712,-0.17099 0.0799,-0.26228 0.009,-0.095 -0.007,-0.18848 0.0107,-0.28198 0.0124,-0.0639 0.003,-0.13013 0.0151,-0.19547 0.0138,-0.0755 0.003,-0.15682 0.003,-0.23375 m -0.85126,1.136 c -0.0267,-0.0272 -0.0497,-0.0554 -0.0648,-0.0913 -0.0208,0.0267 -0.0445,0.0433 -0.0596,0.0747 -0.0114,0.0237 -0.0186,0.0368 -0.0324,0.0554 -0.001,-0.005 -0.001,-0.009 -7.1e-4,-0.0151 -0.0232,0.0445 -0.0116,0.0316 0,0.0158 7.1e-4,0 7.1e-4,0 7.1e-4,0 0.005,0.0151 0.0223,0.026 0.0339,0.0381 0.0331,0.0353 0.0547,0.0727 0.0648,0.11945 0.0272,0.12645 -0.003,0.26449 -0.0267,0.38892 -0.0136,0.0712 -0.0517,0.13086 -0.0863,0.19344 -0.0129,0.023 -0.0179,0.0495 -0.0416,0.0639 -0.018,0.0109 -0.0547,0.021 -0.0755,0.026 -0.0396,0.009 -0.0856,0.002 -0.12589,0.002 -0.0237,0 -0.0727,-0.021 -0.0841,-0.006 -0.0109,0.0138 -7.1e-4,0.067 -0.001,0.0856 -7.1e-4,0.0403 0.0129,0.0497 0.0525,0.0524 0.0282,0.003 0.0512,0.007 0.0769,0.0203 0.0195,0.009 0.0289,0.0193 0.049,0.0193 0.0237,0 0.0574,-0.009 0.0826,-0.0121 0.028,-0.004 0.0475,-0.0144 0.072,-0.0274 0.10068,-0.0517 0.17026,-0.12221 0.22566,-0.22345 0.0289,-0.0532 0.0539,-0.10786 0.0856,-0.15976 0.0166,-0.0265 0.0396,-0.051 0.0517,-0.0804 0.0124,-0.0309 0.0131,-0.0626 0.0188,-0.095 0.0109,-0.0668 0.0114,-0.12295 -0.002,-0.18902 -0.008,-0.0411 -0.0107,-0.092 -0.0396,-0.1259 -0.0467,-0.0532 -0.12295,-0.0782 -0.17319,-0.12939 m -0.31069,-1.14889 c -0.0193,-0.0804 -0.0287,-0.16326 -0.0344,-0.24443 -0.005,-0.0668 -0.0116,-0.13234 -0.0166,-0.19915 -0.006,-0.0784 -0.0252,-0.15535 -0.0302,-0.23431 0,-0.002 0,-0.003 0,-0.004 -0.006,-0.10215 -0.0151,-0.20136 -0.0144,-0.30333 0,-0.10362 0,-0.2078 0,-0.31143 0,-0.0826 -10e-4,-0.16528 0,-0.24811 7.1e-4,-0.0661 -0.023,-0.11853 -0.0561,-0.17743 -0.023,-0.0396 -0.0143,-0.0526 -0.0604,-0.0447 -0.0186,0.004 -0.0359,0.0109 -0.0517,0.0217 -0.0173,0.0121 -0.0482,0.0322 -0.0611,0.0488 -0.009,0.0109 -0.007,0.0131 -0.0136,0.0274 -0.0124,0.0265 -0.0217,0.0559 -0.0353,0.0812 -0.023,0.0418 -0.0582,0.0762 -0.079,0.11945 -0.0267,0.0545 -0.0605,0.12074 -0.1073,0.15958 -0.0144,0.0121 -0.0302,0.0237 -0.0401,0.0396 -0.0151,0.0258 -0.0223,0.0675 -0.0238,0.097 -0.002,0.0359 -0.003,0.0705 0,0.10639 0.009,0.1108 0.0173,0.22289 0.0374,0.33296 0.0497,0.27388 -0.0252,0.55862 0.018,0.83397 0.025,0.15663 0.008,0.3221 0.008,0.47947 0,0.0814 0.006,0.16399 -0.004,0.24443 -0.007,0.0648 0.0403,0.14669 0.0777,0.2043 0.0344,0.0532 0.072,0.10417 0.10565,0.15663 0.0215,0.0339 0.0482,0.0618 0.0734,0.0942 0.0179,0.023 0.0467,0.0353 0.0661,0.0561 0.0121,0.0136 0.0166,0.0324 0.0295,0.0468 0.0339,-0.005 0.0468,-0.0626 0.0547,-0.0834 0.0201,-0.0583 0.0331,-0.11872 0.0648,-0.17486 0.0876,-0.15313 0.0718,-0.32559 0.0718,-0.49032 0,-0.11578 0.0116,-0.23652 -0.001,-0.35155 -0.004,-0.0302 -0.0129,-0.0633 0.002,-0.092 0.0129,-0.023 0.0287,-0.0374 0.0324,-0.0641 0.006,-0.0416 -0.002,-0.0861 -0.0124,-0.12718 m -2.03253,0.8174 c 0.0138,-0.0646 0.0433,-0.12074 0.0309,-0.19547 -0.0121,-0.0727 0.0346,-0.14375 0.0784,-0.20706 v 0.0431 c 0.005,0 0.0101,0 0.0151,0 0.002,-0.0344 0.0109,-0.0705 0.005,-0.10418 -0.0188,-0.11007 -0.044,-0.21866 -0.0641,-0.32854 -0.005,-0.0309 -0.004,-0.0648 0.004,-0.0957 0.0243,-0.10141 0.0517,-0.20136 0.0797,-0.3013 0.0238,-0.0834 0.0475,-0.16602 0.0755,-0.24719 0.0173,-0.049 0.0425,-0.095 0.067,-0.14099 0.01,-0.018 0.0272,-0.0331 0.0394,-0.0502 0.006,-0.007 0.0101,-0.0166 0.013,-0.0252 0.0186,-0.0517 -0.023,-0.10491 0.006,-0.15681 0.0101,-0.0179 0.0151,-0.0388 0.018,-0.0589 0.007,-0.0582 0.0121,-0.11577 0.0186,-0.1732 0.001,-0.009 0.004,-0.0203 0.009,-0.0289 0.0316,-0.0438 0.0653,-0.0869 0.0963,-0.13087 0.005,-0.008 0.002,-0.0215 0.004,-0.0366 0.072,-0.0646 0.10418,-0.16602 0.17964,-0.23872 0.0685,-0.0661 0.11154,-0.15737 0.1662,-0.23799 0.0351,-0.0524 0.0733,-0.10344 0.10786,-0.15663 0.0302,-0.0468 0.0797,-0.0777 0.0848,-0.14522 0.003,-0.0361 0.0416,-0.0747 0.0725,-0.10363 0.0618,-0.0574 0.12939,-0.10914 0.19491,-0.16381 7.1e-4,0.01 0.002,0.0208 0.004,0.0322 0.004,0.002 0.008,0.004 0.0123,0.005 0.0258,-0.0381 0.051,-0.0762 0.0769,-0.1143 0.0171,-0.0245 0.0351,-0.049 0.0532,-0.0734 0.0136,-0.0173 0.0265,-0.0351 0.0388,-0.0532 0.0208,-0.0309 0.0409,-0.0633 0.0618,-0.0935 0.007,-0.0107 0.0179,-0.0193 0.025,-0.0295 0.0316,-0.0409 0.0606,-0.0841 0.0942,-0.12295 0.009,-0.01 0.0295,-0.0107 0.046,-0.0129 0.0223,-0.003 0.0468,0 0.0683,-0.006 0.0913,-0.0267 0.18258,-0.0525 0.27259,-0.0849 0.0359,-0.0131 0.0718,-0.0361 0.0992,-0.0633 0.0856,-0.0819 0.19197,-0.1373 0.27167,-0.22786 0.0425,-0.0482 0.1108,-0.0742 0.1697,-0.1051 0.0655,-0.0344 0.13381,-0.0639 0.20209,-0.0941 0.0374,-0.0166 0.074,-0.0388 0.11283,-0.0447 0.0762,-0.0107 0.15461,-0.0107 0.23154,-0.0179 0.0883,-0.009 0.18038,-0.002 0.2632,-0.0468 0.0876,-0.0482 0.18406,-0.0396 0.27885,-0.041 0.006,0 0.0158,0.002 0.0202,0.006 0.0423,0.0394 0.0906,0.0223 0.1373,0.0136 0.007,-0.002 0.0114,-0.0188 0.0193,-0.0331 0.0215,-0.003 0.049,-0.009 0.0769,-0.0101 0.0589,0 0.11871,0.002 0.17761,0.002 0.0618,0 0.12369,0.006 0.1848,0.002 0.0574,-0.004 0.11356,-0.0195 0.17117,-0.0302 7e-4,0 10e-4,-0.004 0.003,-0.004 0.023,-0.002 0.0482,-0.0114 0.069,-0.005 0.0532,0.0188 0.10638,0.0388 0.15461,0.0676 0.0252,0.0151 0.0661,0.0223 0.0655,0.0675 0,0.006 0.01,0.0144 0.0179,0.0188 0.0287,0.0166 0.0589,0.0316 0.0893,0.0475 -7.1e-4,-0.005 -7.1e-4,-0.009 -7.1e-4,-0.0144 0.008,-0.002 0.0179,-0.007 0.0258,-0.005 0.0433,0.009 0.0863,0.0215 0.1294,0.0287 0.0173,0.003 0.0374,-0.007 0.0547,-0.004 0.0683,0.0116 0.13528,0.026 0.20283,0.0388 0.0834,0.0158 0.16602,0.0316 0.24866,0.0482 0.0116,0.002 0.0237,0.01 0.0346,0.009 0.0762,-0.0109 0.1408,0.0309 0.21129,0.0453 0.0131,0.003 0.0223,0.0186 0.0339,0.0287 -0.002,0.002 -0.005,0.004 -0.007,0.006 l -0.0641,-0.0208 c -0.002,0.004 -0.004,0.009 -0.005,0.0129 0.0453,0.0302 0.0898,0.0604 0.13436,0.0906 0.003,-0.006 0.004,-0.0121 0.006,-0.0186 0.0158,0.002 0.0346,-0.003 0.0468,0.004 0.0388,0.0223 0.0756,0.0482 0.11301,0.0727 0.0604,0.0396 0.11779,0.0848 0.18185,0.11853 0.046,0.0245 0.10289,0.0274 0.14945,0.0512 0.11006,0.0552 0.22013,0.11209 0.29191,0.21921 0.026,0.0388 0.0561,0.0755 0.0907,0.12148 0.008,-0.0166 0.0121,-0.025 0.0157,-0.0309 0.0828,0.0705 0.113,0.1675 0.16473,0.25161 0.0475,0.0764 0.0957,0.15387 0.1581,0.21719 0.0756,0.0769 0.16768,0.13731 0.24958,0.20854 0.0819,0.0698 0.0963,0.17191 0.12148,0.26817 0.0101,0.0396 0.0188,0.0791 0.028,0.11872 0.005,0 0.009,-0.002 0.0144,-0.004 -10e-4,-0.0116 -0.003,-0.023 -0.004,-0.0344 0.0201,0.0186 0.0274,0.0431 0.0396,0.0631 0.0272,0.0433 0.0567,0.0849 0.0863,0.12663 0.007,0.0107 0.0179,0.0193 0.0258,0.0309 0.0453,0.0676 0.0913,0.1351 0.13528,0.20338 0.008,0.0123 0.0107,0.0282 0.0144,0.0425 0.0179,0.0769 0.033,0.15388 0.0539,0.23007 0.0193,0.0698 0.0445,0.13805 0.0668,0.20707 l 0.0109,-0.003 c 0.003,-0.007 0.005,-0.0144 0.006,-0.018 0.009,0.044 0.0201,0.0885 0.0252,0.13308 0.005,0.0582 0.003,0.11651 0.008,0.17393 0.005,0.0598 -0.007,0.12093 0.0257,0.17762 0.018,0.0324 0.0331,0.0675 0.0396,0.10362 0.026,0.15461 0.0453,0.31051 0.12663,0.45076 0.0582,0.10215 0.0624,0.21719 0.0423,0.32928 -0.0331,0.18258 -0.0648,0.3659 -0.13731,0.53929 -0.004,0.01 -0.0158,0.0166 -0.0223,0.0265 -0.0237,0.0366 -0.0475,0.0742 -0.0712,0.11081 0.003,0.002 0.006,0.004 0.008,0.006 0.009,-0.004 0.018,-0.008 0.0267,-0.0116 -0.0403,0.0526 -0.0475,0.11872 -0.0289,0.16768 0.021,0.056 0.0188,0.0992 -0.005,0.14669 -0.003,-0.004 -0.005,-0.009 -0.0129,-0.023 -0.004,0.0423 -0.007,0.074 -0.0101,0.10639 -0.003,0.0337 -0.004,0.0683 -0.009,0.10196 -0.033,0.18995 -0.10933,0.3661 -0.1754,0.54574 -0.0661,0.17982 -0.18701,0.32854 -0.28253,0.49033 -0.0503,0.0863 -0.12,0.16399 -0.20412,0.22657 -0.095,0.069 -0.19068,0.13584 -0.25749,0.24075 -0.046,0.0734 -0.11854,0.13234 -0.18406,0.19345 -0.1027,0.0964 -0.2078,0.19271 -0.31492,0.284 -0.16823,0.14227 -0.33148,0.29265 -0.55935,0.33425 -0.0151,0.003 -0.0316,0 -0.0468,0.003 -0.0539,0.009 -0.11061,0.0116 -0.15957,0.0324 -0.0503,0.0208 -0.0928,0.0604 -0.13952,0.0913 -0.007,0.005 -0.0186,0.004 -0.0287,0.006 -0.0144,0.003 -0.0339,0 -0.0446,0.008 -0.0898,0.0648 -0.18405,0.11946 -0.29265,0.14817 -0.0777,0.0208 -0.15239,0.0503 -0.22786,0.0777 -0.0252,0.009 -0.0482,0.0317 -0.0727,0.0317 -0.0935,0.002 -0.17614,0.0438 -0.26523,0.0624 -0.13086,0.0267 -0.26099,0.0618 -0.38835,-0.0144 -0.0144,-0.008 -0.0366,-0.003 -0.0552,-0.002 -0.018,0.002 -0.0368,0.0129 -0.0539,0.0107 -0.17191,-0.0215 -0.34381,-0.0445 -0.51554,-0.0661 -0.0863,-0.0116 -0.17338,-0.021 -0.25952,-0.0316 -0.069,-0.009 -0.1373,-0.0158 -0.20577,-0.028 -0.0854,-0.0158 -0.16952,-0.0353 -0.25437,-0.0526 -0.004,-0.002 -0.009,0 -0.0131,0 -0.0401,-0.006 -0.0849,-0.004 -0.11853,-0.0216 -0.10216,-0.0532 -0.20063,-0.1143 -0.29983,-0.17246 -0.0302,-0.018 -0.0561,-0.0525 -0.0977,-0.0215 -0.004,0.003 -0.0166,-0.004 -0.0237,-0.007 -0.10362,-0.0534 -0.21424,-0.0799 -0.32799,-0.0972 -0.0797,-0.0121 -0.1143,-0.0747 -0.15957,-0.12645 -0.005,-0.005 -0.002,-0.0166 -0.003,-0.0309 0.0158,0.0136 0.0272,0.0245 0.0388,0.0344 0.004,-0.003 0.006,-0.004 0.01,-0.007 -0.0121,-0.0201 -0.0201,-0.0445 -0.0366,-0.0589 -0.0712,-0.0589 -0.14025,-0.12 -0.20927,-0.17909 -0.1027,-0.0876 -0.18185,-0.20191 -0.30553,-0.26744 -0.0475,-0.0252 -0.0834,-0.0712 -0.12571,-0.10638 -0.008,-0.007 -0.0195,-0.0109 -0.0302,-0.0151 -0.095,-0.0359 -0.18553,-0.0762 -0.23007,-0.17835 -0.0388,-0.0871 -0.0777,-0.17394 -0.12221,-0.25731 -0.0225,-0.0418 -0.0547,-0.0784 -0.0885,-0.1108 -0.13583,-0.12866 -0.28031,-0.24867 -0.36664,-0.42131 -0.0302,-0.0596 -0.0712,-0.1143 -0.10565,-0.17118 -0.0109,-0.0179 -0.0203,-0.0366 -0.0274,-0.0559 -0.0302,-0.0821 -0.0633,-0.164 -0.0883,-0.24737 -0.0237,-0.0784 -0.0396,-0.15811 -0.0569,-0.23799 -0.0121,-0.0596 -0.018,-0.12074 -0.0331,-0.17909 -0.0208,-0.079 -0.0611,-0.15461 -0.0683,-0.23431 -0.008,-0.0812 -0.025,-0.15884 -0.0431,-0.23725 -0.008,-0.0324 -0.0252,-0.0676 -0.0195,-0.0972"
       style="fill:#21201d;fill-opacity:1;fill-rule:nonzero;stroke:none;stroke-width:0.184057"
       id="path620" />
    <path
       d="m 400.00074,172.18813 c -0.001,0.006 -7e-4,0.0109 7.1e-4,0.0158 0,0 0,0 -7.1e-4,0 -0.0116,0.0158 -0.0237,0.0287 0,-0.0166"
       style="fill:#21201d;fill-opacity:1;fill-rule:nonzero;stroke:none;stroke-width:0.184057"
       id="path622" />
  </g>
</svg>
