<?xml version="1.0" encoding="UTF-8" standalone="no"?>
<!-- Created with Inkscape (http://www.inkscape.org/) -->

<svg
   width="8.217308mm"
   height="8.2592659mm"
   viewBox="0 0 8.217308 8.2592659"
   version="1.1"
   id="svg2572"
   inkscape:version="1.1.2 (0a00cf5339, 2022-02-04)"
   sodipodi:docname="rm6.svg"
   xmlns:inkscape="http://www.inkscape.org/namespaces/inkscape"
   xmlns:sodipodi="http://sodipodi.sourceforge.net/DTD/sodipodi-0.dtd"
   xmlns="http://www.w3.org/2000/svg"
   xmlns:svg="http://www.w3.org/2000/svg">
  <sodipodi:namedview
     id="namedview2574"
     pagecolor="#ffffff"
     bordercolor="#666666"
     borderopacity="1.0"
     inkscape:pageshadow="2"
     inkscape:pageopacity="0.0"
     inkscape:pagecheckerboard="0"
     inkscape:document-units="mm"
     showgrid="false"
     inkscape:zoom="0.64052329"
     inkscape:cx="15.612235"
     inkscape:cy="16.392847"
     inkscape:window-width="2560"
     inkscape:window-height="1376"
     inkscape:window-x="0"
     inkscape:window-y="0"
     inkscape:window-maximized="1"
     inkscape:current-layer="layer1" />
  <defs
     id="defs2569" />
  <g
     inkscape:label="Layer 1"
     inkscape:groupmode="layer"
     id="layer1"
     transform="translate(-100.81306,-144.36674)">
    <path
       d="m 101.65566,148.20329 c -0.005,0.0388 -0.008,0.0775 -0.0102,0.11706 0.006,0.0109 0.012,0.0215 0.0194,0.0331 0.0447,0.0777 0.0907,0.0668 0.15903,0.0633 0.0243,-0.002 0.0423,0 0.0545,-0.0267 0.0102,-0.0215 0.007,-0.0488 0.006,-0.0718 -0.004,-0.0569 0.004,-0.10712 0.0137,-0.16179 0.0229,-0.11301 0.0318,-0.23302 0.0389,-0.34732 0.004,-0.0388 0.007,-0.0777 0.0138,-0.11651 0.006,-0.0351 0.0201,-0.0618 0.0293,-0.0955 0.006,-0.023 0,-0.0467 0.006,-0.0698 0.004,-0.0158 0.0138,-0.0316 0.0201,-0.046 0.0166,-0.0331 0.0332,-0.067 0.0482,-0.10141 0.0113,-0.0267 0.0229,-0.0525 0.0346,-0.0791 0.0222,-0.0517 0.069,-0.0841 0.0965,-0.1329 0.0222,-0.041 0.0416,-0.0806 0.071,-0.11577 0.0286,-0.0346 0.0547,-0.0727 0.0834,-0.10859 0.031,-0.0388 0.0633,-0.0791 0.0957,-0.11651 0.018,-0.0208 0.0388,-0.0381 0.0547,-0.0611 0.0127,-0.0188 0.0222,-0.041 0.0346,-0.0596 0.0425,-0.0705 0.0979,-0.13804 0.15109,-0.19989 0.0618,-0.0712 0.13215,-0.13013 0.20634,-0.187 0.0567,-0.0423 0.13289,-0.0646 0.19692,-0.0891 0.0453,-0.0166 0.0712,-0.041 0.10566,-0.072 0.0482,-0.0438 0.11504,-0.0769 0.17043,-0.11136 0.072,-0.0445 0.14174,-0.0992 0.21001,-0.15037 0.0409,-0.0317 0.0797,-0.0388 0.12717,-0.056 0.0411,-0.0145 0.0819,-0.0296 0.12298,-0.046 0.0633,-0.0252 0.12718,-0.044 0.19121,-0.0663 0.0381,-0.0136 0.0747,-0.0287 0.11285,-0.0409 0.0268,-0.008 0.0482,-0.021 0.0727,-0.0324 0.0396,-0.0173 0.0804,-0.0274 0.12224,-0.0353 0.0517,-0.01 0.10566,-0.0151 0.15459,-0.0352 0.0166,-0.007 0.0303,-0.009 0.0488,-0.009 0.0497,-0.002 0.0999,0.006 0.15038,0.006 0.11134,0 0.22289,-0.01 0.33349,-0.0265 0.0475,-0.007 0.095,-0.018 0.14248,-0.023 0.074,-0.008 0.14944,-0.005 0.22363,-0.005 0.0604,-0.002 0.12146,-0.003 0.18111,0.01 0.0848,0.0203 0.16031,0.0668 0.24663,0.0834 0.0567,0.0109 0.1143,0.0203 0.17099,0.0295 0.0289,0.004 0.0583,0.005 0.0863,0.0123 0.0243,0.006 0.0467,0.0186 0.0705,0.0272 0.0445,0.0166 0.0891,0.0339 0.13233,0.0539 0.0502,0.0245 0.10142,0.0497 0.15314,0.0727 0.01,0.004 0.018,0.007 0.0272,0.009 0.0166,0.003 0.0325,0.002 0.0475,0.006 0.0453,0.0151 0.0935,0.0468 0.13511,0.0705 0.0539,0.0302 0.11081,0.0617 0.1662,0.0906 0.0403,0.0201 0.0834,0.0366 0.12075,0.0618 0.0482,0.0322 0.0848,0.0782 0.13011,0.11504 0.031,0.025 0.0525,0.0611 0.0812,0.0891 0.0201,0.0195 0.0418,0.0381 0.0618,0.0582 0.0254,0.0267 0.0403,0.0534 0.0626,0.0814 0.0173,0.0223 0.0388,0.041 0.0561,0.064 0.0215,0.0287 0.0446,0.0567 0.069,0.0841 0.0265,0.0302 0.0388,0.0661 0.0589,0.10123 0.0212,0.0368 0.0425,0.069 0.0475,0.11301 0.004,0.0215 0.005,0.0401 0.0102,0.0618 0.006,0.0287 0.008,0.0589 0.0152,0.0883 0.008,0.0346 0.0265,0.0676 0.0335,0.10215 0.005,0.0258 0,0.0517 0.007,0.0777 0.006,0.0215 0.0145,0.0431 0.0243,0.0631 0.0187,0.0418 0.044,0.0791 0.0591,0.12221 0.0159,0.0433 0.0303,0.0878 0.0438,0.13234 0.0106,0.0324 0.0229,0.064 0.0353,0.0957 0.0109,0.0316 0.0123,0.0646 0.0201,0.0963 0.0106,0.0468 0.0152,0.0965 0.031,0.14099 0.0194,0.0574 0.0293,0.11927 0.0467,0.17835 0.006,0.0236 0.0152,0.0445 0.0272,0.0653 0.0173,0.0287 0.0208,0.0539 0.0272,0.0863 0.006,0.0287 0.0152,0.0552 0.018,0.0848 0.004,0.025 0,0.0517 0.005,0.0769 0.004,0.0144 0.008,0.0265 0.008,0.0409 0,0.006 -0.004,0.0274 0,0.0366 0.005,0.0158 0.01,0.0245 0.0109,0.0411 0.004,0.023 0.0138,0.0403 0.0222,0.0611 0.005,0.0131 0.009,0.0267 0.012,0.0381 0.004,0.0116 0.004,0.0245 0.007,0.0361 0.004,0.008 0.0113,0.0193 0.0169,0.0258 0.0109,0.0129 0.0152,0.008 0.0282,0.0129 0.0106,0.005 0.0159,0.008 0.0272,0.009 0.006,0.002 0.0145,0 0.0201,0.002 0.0102,0.004 0.0116,0.0114 0.0187,0.0166 0.0159,0.0101 0.0396,0.004 0.0569,-0.002 0.0359,-0.0116 0.079,-0.009 0.11356,-0.023 0.008,-0.004 0.018,-0.0121 0.0272,-0.0215 0,-0.0109 0,-0.0223 0,-0.0331 0,-0.0331 -0.007,-0.0633 -0.0106,-0.0955 -0.008,-0.0821 -0.0208,-0.16547 -0.025,-0.24811 -0.004,-0.0524 -0.0194,-0.074 -0.0396,-0.12 -0.0261,-0.0576 -0.0388,-0.12295 -0.0576,-0.18332 -0.0258,-0.0878 -0.0314,-0.18057 -0.0574,-0.26891 -0.008,-0.0282 -0.0173,-0.0561 -0.0272,-0.0841 -0.0376,-0.10583 -0.0633,-0.21498 -0.0987,-0.32155 -0.0279,-0.0841 -0.046,-0.17541 -0.0668,-0.26228 -0.0113,-0.0482 -0.018,-0.0992 -0.0374,-0.14467 -0.0173,-0.0423 -0.0418,-0.0841 -0.0626,-0.12424 -0.0366,-0.0727 -0.074,-0.13381 -0.1222,-0.19915 -0.0374,-0.0482 -0.0747,-0.0964 -0.11356,-0.14393 -0.0359,-0.0445 -0.0698,-0.0884 -0.0942,-0.14154 -0.0166,-0.0359 -0.0303,-0.0734 -0.0532,-0.10565 -0.0366,-0.0519 -0.0884,-0.092 -0.13511,-0.13234 -0.0482,-0.041 -0.0999,-0.0734 -0.15829,-0.095 -0.0431,-0.0158 -0.0841,-0.0381 -0.12644,-0.0567 -0.0388,-0.018 -0.0819,-0.0274 -0.11871,-0.0497 l -0.009,-0.006 c -0.0697,-0.0418 -0.13878,-0.0841 -0.20853,-0.12516 -0.0381,-0.023 -0.0777,-0.023 -0.11726,-0.0388 -0.0145,-0.006 -0.0272,-0.0144 -0.0418,-0.0201 -0.0913,-0.0381 -0.18609,-0.0641 -0.27665,-0.10418 -0.064,-0.0289 -0.12883,-0.0561 -0.19343,-0.0828 -0.0201,-0.009 -0.0418,-0.009 -0.0611,-0.0178 -0.0102,-0.005 -0.018,-0.0151 -0.0275,-0.0203 -0.0948,-0.051 -0.21774,-0.0631 -0.32135,-0.0777 -0.10859,-0.0158 -0.21572,-0.0201 -0.32487,-0.0257 -0.10584,-0.006 -0.20652,0.0114 -0.31144,0.0121 -0.2063,0.003 -0.40251,0.0799 -0.60681,0.10289 -0.13363,0.0158 -0.26596,0.0453 -0.39536,0.0826 -0.0243,0.007 -0.046,0.0193 -0.0705,0.0245 -0.0303,0.006 -0.0604,0.0121 -0.0898,0.0223 -0.0584,0.0186 -0.11356,0.0438 -0.17046,0.0668 -0.0799,0.0324 -0.15459,0.0777 -0.22581,0.1281 -0.0653,0.046 -0.13586,0.0841 -0.19844,0.13363 -0.0495,0.0388 -0.1027,0.0712 -0.1566,0.10362 -0.0834,0.0488 -0.17191,0.0869 -0.25382,0.13934 -0.11081,0.072 -0.19915,0.17117 -0.29267,0.26393 -0.10142,0.10142 -0.1833,0.21057 -0.26522,0.32928 -0.031,0.0453 -0.0633,0.0827 -0.0992,0.12295 -0.0425,0.0467 -0.0677,0.10216 -0.10216,0.15461 -0.0116,0.0178 -0.0282,0.0265 -0.0425,0.0416 -0.0834,0.0849 -0.15663,0.20578 -0.19198,0.32155 -0.012,0.0401 -0.01,0.0841 -0.03,0.12148 -0.0131,0.023 -0.0251,0.0453 -0.0359,0.0698 -0.0272,0.0646 -0.0554,0.13087 -0.069,0.20044 -0.007,0.0403 -0.008,0.0836 -0.0102,0.12443 -0.004,0.0871 0.008,0.17117 0.0131,0.25749 0.004,0.0661 0.009,0.13437 0,0.19989 m 0.46217,-0.41707 c 0.004,0.009 0.005,0.006 0.013,0.0101 0.0251,0.0129 0.0525,0.002 0.0769,0.0121 0.0286,0.0129 0.0409,0.0366 0.0747,0.041 0.0272,0.004 0.0554,0.009 0.0819,0.009 0.0173,0 0.0453,-0.006 0.0611,0 0.0152,0.007 0.049,0.0418 0.0532,0.0584 0.006,0.0173 -0.007,0.0272 0.0145,0.0324 0.0243,0.005 0.0229,-0.009 0.0222,-0.0282 0,-0.0223 0.004,-0.0409 0.007,-0.0631 0.004,-0.0225 0.0296,-0.0814 -0.006,-0.0994 -0.0169,0 -0.0335,0.002 -0.051,-0.002 -0.0286,-0.005 -0.0546,-0.0203 -0.0848,-0.0245 -0.0286,-0.003 -0.0561,-0.002 -0.0848,-0.009 -0.0208,-0.006 -0.0396,-0.0165 -0.0597,-0.023 -0.0102,-0.003 -0.0201,-0.004 -0.0293,-0.007 -0.008,-0.002 -0.0236,-0.018 -0.0346,-0.0173 -0.0173,0.002 -0.0208,0.0274 -0.0286,0.0381 -0.004,0.006 -0.0116,0.008 -0.0152,0.0138 -0.004,0.005 -0.006,0.0215 -0.008,0.0287 0,0.006 -0.005,0.0237 -0.004,0.0295 m 0.0611,0.36811 c 0.004,0.0245 0.0109,0.049 0.0123,0.0733 0,0.0116 -0.004,0.023 0,0.0339 0.0106,-0.006 0.0353,-0.0116 0.048,-0.0136 0.0261,-0.005 0.0433,0.0193 0.067,0.0171 0.005,-0.0201 0,-0.0409 -0.004,-0.0596 -0.005,-0.023 -0.004,-0.0438 -0.005,-0.0668 -0.005,-0.0331 -0.008,-0.0618 -0.008,-0.0957 0,-0.0178 0.006,-0.0453 -0.008,-0.0582 v -0.018 c 0,0.003 0,0.006 -0.004,0.008 -0.025,-0.005 -0.0396,-0.008 -0.0661,-0.004 -0.007,0.002 -0.0261,0.002 -0.0325,0.004 -0.012,0.006 -0.008,0.0116 -0.008,0.0237 0,0.0519 0,0.10436 0.006,0.15608 m 0.24663,-0.008 c 0.008,0.0158 0.0201,0.0252 0.0243,0.0438 0.006,0.0237 0.004,0.0339 0.0243,0.0525 0.0166,0.0145 0.0346,0.0237 0.0554,0.0309 0.0208,0.008 0.0423,0.006 0.0631,0.0131 0.0332,0.0107 0.0361,0.0309 0.0742,0.0151 0.0236,-0.009 0.0488,-0.0188 0.0718,-0.0294 0.0374,-0.0173 0.0569,-0.0519 0.0821,-0.0821 0.0265,-0.0324 0.018,-0.0661 0.0243,-0.10638 0.0102,-0.0646 0.0318,-0.12571 0.0212,-0.19345 -0.0123,-0.0777 -0.0447,-0.13877 -0.10068,-0.19399 -0.0152,-0.0151 -0.0325,-0.0282 -0.0497,-0.0418 0.005,0.003 0.01,0.004 0.0166,0.005 0.008,0.004 0.008,0.003 0.008,0.002 -0.004,0 -0.005,-0.002 -0.008,-0.002 -0.005,-0.003 -0.0138,-0.008 -0.0293,-0.0171 -0.008,-0.0101 -0.0159,-0.0223 -0.0243,-0.0324 -0.0145,-0.0158 -0.0332,-0.0287 -0.0453,-0.046 -0.012,-0.0173 -0.0145,-0.0173 -0.031,-0.0309 -0.0102,-0.008 -0.0159,-0.0215 -0.0286,-0.0267 -0.0359,-0.0129 -0.0497,0.009 -0.049,0.0403 0,0.0144 -0.004,0.0309 0,0.0453 0.004,0.0195 0.0152,0.0324 0.0275,0.049 0.009,0.0144 0.0222,0.0258 0.0359,0.0359 0.0152,0.0131 0.0381,0.0282 0.0554,0.0353 0.0208,0.008 0.0201,0.005 0.0286,0.0287 0.004,0.0144 0.0159,0.0265 0.0208,0.041 0.0152,0.0431 -0.004,0.0883 -0.005,0.13216 0,0.0316 0.007,0.069 -0.006,0.0985 -0.006,0.0138 -0.0187,0.0237 -0.0282,0.0361 -0.0137,0.0165 -0.0293,0.0554 -0.056,0.0539 -0.0325,0 -0.0504,-0.0267 -0.0727,-0.044 -0.0173,-0.0144 -0.0554,-0.0179 -0.0762,-0.009 -0.007,0.004 -0.046,0.0223 -0.0495,0.0309 -0.005,0.009 0.0229,0.0574 0.0272,0.0661 m 0.47378,-0.84336 c 0.007,0.006 0.0152,0.009 0.0222,0.0144 0.0166,0.0121 0.0226,0.0339 0.0388,0.0453 0.0194,0.0129 0.0433,0.0223 0.0633,0.0353 0.0539,0.0351 0.11081,0.0121 0.16969,0.002 0.0201,-0.004 0.0539,0 0.0626,-0.0237 0.004,-0.0114 0,-0.0337 0,-0.046 0,-0.0302 0,-0.0574 0.008,-0.0841 -0.0201,0.007 -0.0229,0.0138 -0.0381,0.0309 -0.0109,0.0116 -0.0268,0.023 -0.0418,0.0296 -0.0243,0.01 -0.0525,-0.007 -0.0769,-0.008 -0.0318,-0.002 -0.0574,-0.0138 -0.0863,-0.0267 -0.0265,-0.0121 -0.0307,-0.0381 -0.0423,-0.064 -0.0113,-0.0265 -0.0229,-0.051 -0.0318,-0.079 -0.0102,-0.0331 -0.0159,-0.0633 -0.0152,-0.0979 0.0676,-0.005 0.14524,0.0116 0.20708,-0.0151 0.0201,-0.008 0.0425,-0.01 0.0633,-0.0171 0.0173,-0.006 0.0265,-0.0151 0.0453,-0.0166 0.0482,-0.003 0.097,0.002 0.1452,0 0.0318,-0.002 0.0576,-0.0151 0.0884,0 0.0123,0.006 0.0303,0.0173 0.0447,0.008 0.004,-0.002 0,-0.0123 0.004,-0.0144 0.005,-0.006 0.0138,-0.008 0.0208,-0.0116 0.0106,-0.005 0.0286,-0.007 0.0366,-0.0173 0.012,-0.0158 0.007,-0.0589 -0.009,-0.0703 -0.0166,-0.0123 -0.0648,-0.0195 -0.0856,-0.021 -0.004,0 -0.004,0 -0.006,0 -0.0236,-0.004 -0.0152,-0.002 0,0 0.004,0 0.004,0 0.005,0.002 -0.0403,0.006 -0.0797,0.007 -0.11927,0.008 0.006,-0.0136 0.004,-0.0396 0.004,-0.051 0,-0.0302 -0.018,-0.0683 -0.0381,-0.0928 -0.0127,-0.0166 -0.0353,-0.0272 -0.0502,-0.0431 -0.01,-0.009 -0.0187,-0.0203 -0.0286,-0.0289 -0.0261,-0.0237 -0.0561,-0.0344 -0.0905,-0.0366 -0.0261,-0.002 -0.0591,-0.003 -0.0821,0.009 -0.0152,0.008 -0.0194,0.0201 -0.0264,0.0359 -0.009,0.0195 -0.0102,0.0381 -0.01,0.0591 0,0.0387 0.0208,0.006 0.0359,0.0272 0.006,0.008 -0.006,0.023 0.004,0.0302 0.005,0.004 0.0187,0.002 0.025,0 0.0194,0 0.0488,-0.002 0.0619,-0.0173 0.007,-0.008 0,-0.0179 0.013,-0.0258 0.006,-0.004 0.0187,-0.004 0.0258,-0.002 0.0222,0.005 0.0314,0.0272 0.0423,0.046 0.0117,0.0208 0.0201,0.0388 0.0194,0.0626 0,0.009 0,0.025 0,0.0388 -0.0109,0.004 -0.0222,0.008 -0.0339,0.0107 -0.0495,0.013 -0.10216,0.005 -0.14947,-0.0129 -0.0403,-0.0158 -0.0814,-0.004 -0.1222,-0.018 -0.0166,-0.006 -0.0361,-0.0151 -0.0547,-0.008 -0.005,0.006 -0.0123,0.0116 -0.0194,0.0151 -0.008,0 -0.0159,0.002 -0.0236,0.003 0,0.0331 -0.0467,0.026 -0.069,0.026 -0.0113,0 -0.025,-0.005 -0.0359,-0.004 -0.0145,0 -0.0229,0.0144 -0.0396,0.0151 -0.005,0.018 0,0.0418 0,0.0611 0,0.0216 -0.008,0.0331 -0.0145,0.0532 0.007,0.003 0.0131,0 0.0208,0 0.0229,0 0.0418,0.003 0.0641,0.009 0.0127,0.004 0.0254,0.006 0.0381,0.008 0,0.0928 -0.008,0.20209 0.0676,0.26817 m 1.04323,-1.15184 c 0,0.003 0.004,0.006 0.004,0.009 -0.006,-0.003 -0.0187,-0.0116 -0.0236,-0.0201 -0.013,-0.021 -0.0102,-0.0606 -0.0381,-0.0705 -0.0127,-0.004 -0.0425,0.008 -0.0525,0.0158 -0.0159,0.0107 -0.0268,0.0329 -0.0388,0.0473 -0.0116,0.0123 -0.0243,0.0237 -0.036,0.0361 -0.01,0.0107 -0.018,0.028 -0.0307,0.0344 -0.01,0.005 -0.0226,0 -0.0303,0.008 -0.0201,0.0203 0.0324,0.0878 0.0418,0.11228 0.01,0.0215 0.0131,0.0388 0.0374,0.0445 0.0138,0.003 0.0293,0.003 0.0438,0.006 0.018,0.004 0.0187,0.002 0.0296,0.0158 0.0173,0.0201 0.0381,0.0574 0.0314,0.0856 -0.006,0.0324 -0.0409,0.0186 -0.046,0.0488 -0.005,0.0302 0,0.0705 0.013,0.0987 0.0131,0.028 0.0222,0.0216 0.0416,0.0322 0.0138,0.008 0.018,0.0267 0.0261,0.0418 0.0201,0.0403 0.0467,0.0733 0.072,0.10933 0.008,0.0107 0.0173,0.0351 0.0335,0.0309 0.0152,-0.004 0.0381,-0.0447 0.0497,-0.0547 0.0208,-0.018 0.0328,-0.023 0.0589,-0.0274 0.0159,-0.002 0.0222,-0.005 0.0311,-0.0193 0.0166,-0.0245 0.01,-0.069 0.01,-0.0977 0,-0.0433 -0.018,-0.0856 -0.0361,-0.12442 -0.0321,-0.0705 -0.0913,-0.12222 -0.12277,-0.19271 -0.0236,-0.0525 -0.0425,-0.10786 -0.0641,-0.16105 0.006,0.002 0.008,0 -0.004,-0.009 m 0.34307,0.0849 c -0.007,-0.0272 -0.0318,-0.0309 -0.0475,-0.0482 -0.005,-0.006 -0.006,-0.0158 -0.0116,-0.0223 -0.005,-0.005 -0.0106,-0.007 -0.0152,-0.0114 -0.0145,-0.0158 -0.0152,-0.0396 -0.0265,-0.0576 -0.0138,-0.023 -0.0598,-0.0718 -0.0863,-0.0797 -0.007,0.0473 -0.0261,0.0977 -0.0208,0.1467 0.004,0.0386 0.0438,0.0466 0.0582,0.0782 0.0152,0.0295 0.0138,0.0626 0.0145,0.0942 0,0.0151 0,0.0151 0.008,0.0252 0.0102,0.0114 0.0388,0.0201 0.0532,0.023 0.0215,0.004 0.0676,0.008 0.0848,-0.009 0.009,-0.007 0.0109,-0.0237 0.01,-0.0396 l 0.007,0.006 c 0,-0.008 -0.004,-0.0144 -0.01,-0.0201 0,-0.007 -0.004,-0.0121 -0.007,-0.0166 -0.004,-0.003 -0.005,-0.005 -0.008,-0.008 0,-0.002 -0.004,-0.003 -0.004,-0.006 -0.004,-0.0173 0.004,-0.0366 0,-0.0547 m 0.48811,-0.40125 0.01,-0.0179 c -0.0194,-0.026 -0.0159,-0.0136 -0.0403,-0.009 -0.0152,0.003 -0.0353,0 -0.0503,0 -0.0303,0 -0.0856,-0.009 -0.0979,0.0265 -0.009,0.0267 0,0.0633 0.005,0.0893 0.005,0.0216 0.006,0.0567 0.0359,0.0453 0.0127,-0.005 0.0152,-0.0129 0.0318,-0.0165 0.0173,-0.004 0.0286,-0.006 0.0453,-0.0136 0.0187,-0.008 0.0318,-0.0129 0.0525,-0.0136 0.012,0 0.0236,0.003 0.0353,0 0.004,-0.0331 -0.031,-0.0591 -0.0264,-0.0907 m 0.4421,0.45812 c -0.004,-0.0576 -0.0236,-0.11154 -0.0328,-0.16823 -0.008,-0.044 -0.0219,-0.0871 -0.0201,-0.1316 0,-0.0203 0,-0.0396 0,-0.0596 0,0 0.004,0.002 0.005,0.002 0.006,0.0123 0.007,0.004 0,0 -0.004,-0.003 -0.004,-0.006 -0.005,-0.01 v 0.008 c -0.004,0 -0.005,0 -0.008,0 -0.004,-0.0173 -0.004,-0.0188 -0.0127,-0.0316 -0.005,-0.007 -0.0109,-0.0158 -0.0138,-0.023 -0.005,-0.0144 -0.006,-0.0267 -0.0173,-0.0381 -0.007,-0.009 -0.0173,-0.0144 -0.025,-0.023 -0.004,-0.005 -0.009,-0.0188 -0.0138,-0.023 -0.0243,-0.0166 -0.0339,0.0114 -0.0366,0.0316 -0.005,0.0438 0,0.0926 0,0.13583 0,0.0475 0,0.0797 -0.0236,0.12222 -0.005,0.007 -0.006,0.0121 -0.008,0.0166 -0.005,0 -0.01,0 -0.0131,0.002 -0.0604,0.007 -0.13014,0.0107 -0.19072,0.002 -0.0236,-0.003 -0.0631,-0.01 -0.0841,-0.0215 -0.008,-0.004 -0.0138,-0.0136 -0.0236,-0.0136 -0.007,0 -0.0117,0.009 -0.0173,0.0109 -0.0396,0.0121 -0.0727,0.0114 -0.0735,0.0604 0,0.0316 -0.013,0.0819 0.0275,0.0841 0.0265,0 0.0532,-0.004 0.0797,0.002 0.0145,0.002 0.0243,0.0109 0.0375,0.0145 0.0155,0.004 0.0303,-0.003 0.046,0.004 0.0215,0.0109 0.0243,0.0445 0.0438,0.0517 0.0208,0.008 0.0468,-0.0121 0.0646,-0.0166 0.0346,-0.008 0.0712,-0.0151 0.10364,-0.0287 0.008,-0.003 0.0145,-0.004 0.0208,-0.006 0.006,0.023 0.01,0.0453 0.0109,0.0698 0,0.0316 0.012,0.0589 0.0222,0.0891 0.0106,0.0302 0.018,0.0611 0.0272,0.092 0.006,0.0208 0.0187,0.0453 0.0123,0.0676 0.0169,-0.0158 0.0446,-0.028 0.0646,-0.0423 0.0152,-0.0101 0.0282,-0.0129 0.0453,-0.0195 0.0229,-0.008 0.0201,-0.0272 0.018,-0.0495 -0.004,-0.0274 -0.01,-0.051 -0.01,-0.0799 0,-0.0258 0,-0.0532 0,-0.079 m 0.38763,0.0992 c -0.005,0.0245 0.0113,0.0769 0.0366,0.0849 0.0109,0.003 0.0438,0.003 0.0532,-0.002 0.0152,-0.007 0.0261,-0.0309 0.0381,-0.0425 0.0173,-0.0164 0.0194,-0.025 0.0293,-0.0473 0.004,-0.0109 0.007,-0.0203 0.0152,-0.0282 0.008,-0.005 0.0166,-0.008 0.0258,-0.01 0.0201,-0.0145 0.0243,-0.0455 0.018,-0.0685 l -0.007,-0.002 0.018,-0.018 c 0,-0.006 0,-0.0116 0,-0.0173 -0.03,0 -0.0187,-0.0223 -0.0366,-0.0359 -0.004,-0.004 -0.0173,-0.002 -0.0229,-0.004 -0.007,-0.002 -0.008,-0.008 -0.0187,-0.008 -0.004,-0.0394 -0.0403,-0.0446 -0.0712,-0.0438 -0.0123,0 -0.0374,-0.006 -0.0482,0 -0.0138,0.009 -0.0173,0.0388 -0.0265,0.0517 -0.01,0.0138 -0.0212,0.0195 -0.0187,0.0374 0.004,0.0138 0.0109,0.0245 0.0187,0.0361 0.0138,0.0208 0.0208,0.0351 0.0187,0.0618 0,0.023 -0.0159,0.0322 -0.0201,0.0532 m 0.50891,-0.33002 c -0.0173,-0.003 -0.0272,0.002 -0.0416,-0.009 -0.0254,-0.0188 -0.0374,-0.0346 -0.0668,-0.0468 -0.006,-0.003 -0.0187,-0.007 -0.0236,-0.0121 -0.0102,-0.009 -0.01,-0.0223 -0.0173,-0.0339 -0.0109,-0.018 -0.0318,-0.028 -0.0438,-0.0445 -0.0109,-0.0136 -0.009,-0.051 -0.0289,-0.0547 -0.006,0 -0.0201,0.009 -0.0272,0.0101 -0.008,0.002 -0.0152,0 -0.0222,0.002 -0.0102,0.003 -0.0282,0.0101 -0.0359,0.0173 -0.0138,0.0123 -0.0123,0.0366 -0.0226,0.0525 -0.0113,0.0173 -0.03,0.0376 -0.0438,0.0526 -0.0166,0.0179 -0.0318,0.0201 -0.005,0.0394 0.025,0.0195 0.0633,0.0282 0.0935,0.0361 0.0286,0.006 0.0293,0.0186 0.0194,0.0431 0.012,0.0136 0.0286,0.0366 0.0438,0.0438 0.0138,0.007 0.0268,0.007 0.0403,0.0131 0.0396,0.0166 0.0827,0.028 0.1222,0.0445 0.0145,0.006 0.0261,0.018 0.0411,0.0237 0.0138,0.005 0.0243,0 0.0346,0.0121 0.0303,0.0366 -0.0187,0.0604 -0.0353,0.0841 -0.007,0.009 -0.0102,0.023 -0.0166,0.0339 -0.008,0.0129 -0.0208,0.0237 -0.0311,0.0359 -0.018,0.023 -0.0286,0.0482 -0.0423,0.0734 -0.0208,0.0359 -0.041,0.0524 -0.0777,0.0703 -0.0361,0.0188 -0.0353,0.0648 -0.0361,0.10069 0,0.013 -0.004,0.041 0,0.0547 0.008,0.0215 0.0368,0.0208 0.0561,0.0267 0.0194,0.005 0.0705,0.009 0.0848,0.0265 0.004,0.004 0.004,0.009 0.004,0.0123 -0.005,0.002 -0.009,0.005 -0.0145,0.006 0.01,0.002 0.0138,-0.002 0.0145,-0.006 0.025,-0.0123 0.0388,-0.0324 0.0559,-0.0561 0.0282,-0.0366 0.0539,-0.072 0.0604,-0.11945 0.005,-0.0394 0.01,-0.0646 0.0353,-0.0985 0.0113,-0.0158 0.0272,-0.0265 0.0416,-0.0396 0.0194,-0.0179 0.0346,-0.0374 0.049,-0.0596 0.0258,-0.0388 0.0517,-0.0661 0.0475,-0.1143 -0.005,-0.0388 -0.0208,-0.0999 -0.0576,-0.12148 -0.0229,-0.0136 -0.0488,-0.0208 -0.071,-0.0344 -0.0212,-0.013 -0.0381,-0.0289 -0.0584,-0.0418 -0.0173,-0.0101 -0.0318,-0.0121 -0.0482,-0.0129 0.0497,0 0.0433,-0.006 0.0236,-0.009 m -3.03399,2.37914 c 0.005,0.008 0.006,0.0157 0.0152,0.0215 0.0145,0.009 0.0332,0.0186 0.0502,0.0186 0.018,0 0.0346,0.004 0.0527,0.006 0.0159,0 0.0303,0.003 0.0366,-0.0138 0.004,-0.009 0.004,-0.0179 0.008,-0.0272 0.004,-0.005 0.006,-0.009 0.009,-0.0144 0,-0.023 0.004,-0.0468 0.01,-0.0698 0.005,-0.0203 0.0123,-0.0381 0.0194,-0.0569 0.007,-0.0216 0.012,-0.0438 0.0201,-0.0653 0.006,-0.018 0.0159,-0.0346 0.0215,-0.0517 0.0102,-0.0316 0.0102,-0.0655 0.0173,-0.0979 0.004,-0.0223 0.0145,-0.0423 0.0215,-0.0639 0.0102,-0.0309 0.0173,-0.0626 0.0332,-0.0913 0.0113,-0.0225 0.0265,-0.0425 0.0411,-0.0626 0.0187,-0.0245 0.0353,-0.0519 0.0552,-0.0749 0.0275,-0.0315 0.0591,-0.0611 0.0893,-0.0906 0.0159,-0.0151 0.0258,-0.0316 0.0401,-0.048 0.0219,-0.026 0.0482,-0.0468 0.0684,-0.0742 0.0272,-0.0381 0.0567,-0.0725 0.0906,-0.10565 0.0303,-0.0309 0.0589,-0.0641 0.0943,-0.0906 0.0328,-0.0237 0.0646,-0.0512 0.10121,-0.069 0.0418,-0.0215 0.0806,-0.0475 0.12094,-0.072 0.0194,-0.0121 0.0416,-0.0193 0.0624,-0.0309 0.0166,-0.009 0.0332,-0.0208 0.0504,-0.0302 0.0318,-0.0173 0.0747,-0.0316 0.10989,-0.0396 0.044,-0.009 0.0863,-0.0151 0.13085,-0.0158 0.0418,-0.002 0.0849,-0.0107 0.12591,-0.0166 0.0517,-0.007 0.0992,-0.0265 0.1489,-0.0394 0.0539,-0.0143 0.10711,-0.0289 0.16179,-0.0339 0.0992,-0.0101 0.19766,-0.0109 0.29689,-0.0114 0.0236,0 0.0468,0.002 0.0698,0.004 0.0279,0.002 0.0552,0 0.0834,0.004 0.0468,0.006 0.0935,0.0109 0.13952,0.0217 0.0173,0.004 0.0353,0.005 0.0525,0.008 0.0159,0.004 0.0296,0.0116 0.0453,0.0173 0.0236,0.009 0.0482,0.0188 0.0717,0.0302 0.0388,0.0188 0.0807,0.0353 0.11653,0.0604 0.0194,0.0145 0.041,0.0245 0.0584,0.0418 0.0173,0.0158 0.0359,0.0272 0.0546,0.0423 0.0215,0.0166 0.0401,0.0353 0.0604,0.0534 0.0574,0.0525 0.12072,0.10767 0.16379,0.1732 0.018,0.0265 0.0318,0.0582 0.0475,0.0863 0.006,0.01 0.008,0.0201 0.01,0.0316 0,0.025 0.0138,0.0473 0.0286,0.069 0.0131,0.0186 0.0275,0.0352 0.0388,0.0545 0.0215,0.0381 0.031,0.0791 0.049,0.11871 0.0187,0.0388 0.0409,0.0755 0.0554,0.11651 0.009,0.0258 0.0152,0.0517 0.025,0.0769 0.0116,0.0287 0.0229,0.0559 0.0325,0.0856 0.0159,0.0525 0.0332,0.10491 0.0446,0.15884 0.0109,0.051 0.0152,0.10344 0.0208,0.15534 0.004,0.0394 0.004,0.0782 0.004,0.1178 0,0.0136 0,0.0287 0,0.0433 0.012,0.009 0.0261,0.0158 0.0403,0.0193 0.0243,0.006 0.051,0 0.0755,0.004 0.0222,0.004 0.0366,0.01 0.0574,0.004 0.0201,-0.006 0.044,-0.004 0.0626,-0.0109 0.005,-0.002 0.0102,-0.006 0.0159,-0.0114 0,-0.006 0,-0.0116 0,-0.0173 0,-0.0179 -0.004,-0.0337 -0.004,-0.051 -0.004,-0.0433 -0.01,-0.0878 -0.0109,-0.1316 0,-0.028 -0.01,-0.0396 -0.0201,-0.0641 -0.0138,-0.0309 -0.0201,-0.0661 -0.0296,-0.0985 -0.0138,-0.0468 -0.0152,-0.0963 -0.0279,-0.14301 -0.004,-0.0151 -0.01,-0.0302 -0.0145,-0.0453 -0.0187,-0.0561 -0.0318,-0.1143 -0.0497,-0.17117 -0.0145,-0.0453 -0.0229,-0.0935 -0.0335,-0.14025 -0.005,-0.0251 -0.008,-0.0525 -0.018,-0.0769 -0.01,-0.023 -0.0222,-0.0453 -0.0328,-0.0668 -0.0194,-0.0388 -0.0396,-0.072 -0.0655,-0.10639 -0.0194,-0.0267 -0.0396,-0.0524 -0.0604,-0.0784 -0.0194,-0.0237 -0.0374,-0.0475 -0.0504,-0.0762 -0.008,-0.0193 -0.0155,-0.0388 -0.0272,-0.0567 -0.0201,-0.0282 -0.0482,-0.0497 -0.0733,-0.072 -0.0258,-0.0216 -0.0539,-0.0403 -0.0856,-0.0525 -0.0236,-0.009 -0.046,-0.0208 -0.069,-0.0316 -0.0215,-0.009 -0.0446,-0.0151 -0.0648,-0.0274 -0.004,-0.002 -0.004,-0.002 -0.006,-0.004 -0.0374,-0.023 -0.0747,-0.0468 -0.11285,-0.069 -0.0201,-0.0121 -0.0425,-0.0129 -0.064,-0.0215 -0.008,-0.004 -0.0152,-0.008 -0.0229,-0.0116 -0.0495,-0.0215 -0.10213,-0.0366 -0.15092,-0.0589 -0.0346,-0.0158 -0.0697,-0.0309 -0.10583,-0.046 -0.0106,-0.004 -0.0229,-0.006 -0.0328,-0.0109 -0.006,-0.002 -0.0102,-0.008 -0.0152,-0.01 -0.0517,-0.0289 -0.11945,-0.0368 -0.17614,-0.046 -0.0597,-0.009 -0.11875,-0.013 -0.17911,-0.0173 -0.0574,-0.005 -0.11356,0.003 -0.17173,0.002 -0.11373,-0.002 -0.22288,0.0374 -0.33588,0.0468 -0.074,0.006 -0.14742,0.0208 -0.21921,0.0387 -0.0127,0.004 -0.0254,0.0101 -0.0388,0.0123 -0.0173,0.003 -0.0339,0.006 -0.0502,0.0107 -0.0318,0.009 -0.0633,0.0217 -0.0943,0.0331 -0.0445,0.0165 -0.0863,0.0396 -0.12662,0.0648 -0.0359,0.0237 -0.0755,0.0431 -0.11063,0.0683 -0.0282,0.0201 -0.0576,0.0366 -0.0885,0.0532 -0.0468,0.0252 -0.0955,0.0438 -0.14153,0.0712 -0.0618,0.0359 -0.11229,0.0876 -0.16475,0.13583 -0.0574,0.0517 -0.10418,0.10934 -0.15018,0.17118 -0.018,0.0236 -0.0361,0.0423 -0.0569,0.0639 -0.0236,0.0237 -0.0388,0.0532 -0.0582,0.0806 -0.006,0.009 -0.0159,0.0136 -0.0236,0.0215 -0.0475,0.0438 -0.0891,0.10712 -0.11007,0.16749 -0.008,0.0215 -0.006,0.0445 -0.0187,0.0641 -0.007,0.0121 -0.0145,0.0237 -0.0201,0.0366 -0.0166,0.0344 -0.0328,0.069 -0.0408,0.10565 -0.004,0.0215 -0.006,0.0438 -0.007,0.0663 -0.004,0.046 0.004,0.0906 0.004,0.13657 0.004,0.0344 0.004,0.071 -0.004,0.10565 -0.004,0.0208 -0.006,0.0416 -0.006,0.0618 0.004,0.006 0.006,0.0121 0.01,0.018 m 0.36167,3.01818 c 0,0.0366 0,0.0799 0.01,0.11577 0.009,0.0331 0.0286,0.0604 0.0438,0.0898 0.0166,0.0331 0.0215,0.0683 0.0359,0.10142 0.004,0.009 0.004,0.0188 0.0109,0.026 0.01,0.009 0.01,0.007 0.0236,0.007 0.031,0 0.0567,0.004 0.0891,0 0.0215,-0.002 0.0554,0.004 0.0596,-0.0225 0.004,-0.028 -0.007,-0.0661 -0.009,-0.0948 -0.004,-0.0388 -0.0102,-0.0784 -0.0109,-0.11724 -0.004,-0.0582 0.004,-0.12296 0.009,-0.18112 0.007,-0.0863 0.0113,-0.16896 0.043,-0.25105 0.0261,-0.0639 0.0532,-0.12719 0.0806,-0.19124 0.0194,-0.0445 0.0353,-0.0876 0.0639,-0.12719 0.0229,-0.0331 0.0532,-0.0611 0.0799,-0.0906 0.0346,-0.0381 0.0646,-0.0856 0.10291,-0.12074 0.0359,-0.0331 0.079,-0.0655 0.11998,-0.092 0.0517,-0.0324 0.10216,-0.0698 0.15663,-0.0972 0.0648,-0.0324 0.13088,-0.0618 0.19495,-0.0977 0.0517,-0.028 0.10491,-0.0539 0.15807,-0.0812 0.0504,-0.0267 0.0915,-0.0626 0.13455,-0.0999 0.0712,-0.0626 0.13438,-0.12166 0.18334,-0.2043 0.0265,-0.0438 0.0525,-0.0883 0.0777,-0.13363 0.0272,-0.0475 0.0453,-0.0987 0.0698,-0.14669 0.0229,-0.0475 0.0438,-0.0972 0.069,-0.1432 0.0187,-0.0329 0.0265,-0.0582 0.0251,-0.097 -0.004,-0.0539 -0.005,-0.11007 -0.0131,-0.16253 -0.007,-0.048 -0.0293,-0.0935 -0.046,-0.13804 -0.0201,-0.0547 -0.0482,-0.10859 -0.0777,-0.15884 -0.0353,-0.0618 -0.0849,-0.10639 -0.13014,-0.16032 -0.0366,-0.0445 -0.0653,-0.0928 -0.0963,-0.14098 -0.0388,-0.0596 -0.0848,-0.1143 -0.13085,-0.16823 -0.15885,-0.18406 -0.31989,-0.36664 -0.47173,-0.55641 -0.0374,-0.004 -0.0374,0 -0.0381,0.002 -0.012,0.002 -0.018,0.0121 -0.0279,0.0186 -0.0102,0.006 -0.0236,0.0109 -0.0353,0.0151 -0.0275,0.0116 -0.0576,0.0129 -0.0546,0.0468 0,0.0173 0.004,0.023 0.0166,0.0346 0.0127,0.0121 0.0201,0.0178 0.0113,0.0344 -0.006,0.0129 -0.0173,0.0158 -0.0187,0.0339 0,0.023 0.0145,0.0396 0.0272,0.0574 0.0166,0.0223 0.0293,0.0468 0.0475,0.0683 0.0229,0.0274 0.0517,0.0519 0.0784,0.0769 0.0466,0.0468 0.0955,0.0878 0.13512,0.14099 0.11282,0.15093 0.20853,0.31418 0.28748,0.48536 0.0713,0.15369 0.0633,0.33774 0.0527,0.50247 -0.004,0.0468 -0.0173,0.0898 -0.0318,0.1351 -0.0109,0.0368 -0.0219,0.0749 -0.0396,0.1086 -0.0425,0.0791 -0.12665,0.1432 -0.19844,0.19418 -0.0467,0.0339 -0.10287,0.0532 -0.15035,0.0876 -0.0381,0.0274 -0.0718,0.0598 -0.11137,0.0848 -0.0927,0.0611 -0.19269,0.11651 -0.27535,0.19124 -0.0482,0.0433 -0.0913,0.0907 -0.14026,0.13234 -0.046,0.0388 -0.092,0.0727 -0.12587,0.12442 -0.0279,0.0431 -0.0525,0.0885 -0.0775,0.13234 -0.031,0.0524 -0.0633,0.0999 -0.0841,0.15589 -0.0381,0.10657 -0.0519,0.21498 -0.0735,0.32505 -0.0102,0.0561 -0.0286,0.11007 -0.0286,0.16676 0,0.0598 0,0.11945 0,0.17908 m 0.97568,0.59819 c 0.004,0.0438 0.005,0.0992 0.0589,0.0963 0.0286,-0.002 0.0569,-0.005 0.0856,-0.008 0.01,0 0.0286,0.002 0.0366,-0.002 0.0131,-0.007 0.007,-0.0195 0.005,-0.0331 -0.005,-0.0495 0.004,-0.0977 -0.004,-0.14669 -0.006,-0.0596 -0.004,-0.11725 0.004,-0.17615 0.006,-0.0705 0.0261,-0.13804 0.0374,-0.20706 0.0116,-0.0705 0.0526,-0.14099 0.0878,-0.2021 0.0668,-0.11356 0.13232,-0.22344 0.21424,-0.32559 0.0841,-0.10418 0.18976,-0.19492 0.29982,-0.26891 0.12002,-0.0806 0.25086,-0.14744 0.37677,-0.21719 0.0374,-0.0201 0.0834,-0.0401 0.11578,-0.069 0.0106,-0.01 0.012,-0.0186 0.0187,-0.0316 0.008,-0.0144 0.0201,-0.0251 0.0293,-0.0381 0.0138,-0.0186 0.0166,-0.0445 0.0296,-0.0646 0.0159,-0.0238 0.0374,-0.0374 0.0582,-0.0561 0.031,-0.028 0.0547,-0.0611 0.0819,-0.092 0.0375,-0.0431 0.0683,-0.0804 0.0942,-0.13289 0.0339,-0.0663 0.0554,-0.14743 0.072,-0.2194 0.0187,-0.0784 0.0152,-0.16031 0.0236,-0.23946 0.008,-0.0861 -0.0109,-0.16528 -0.0222,-0.2494 -0.0138,-0.10362 -0.0212,-0.21148 -0.0519,-0.31142 -0.0159,-0.0495 -0.0293,-0.1005 -0.0495,-0.14946 -0.0116,-0.0272 -0.0286,-0.0517 -0.049,-0.0733 -0.046,-0.0482 -0.0804,-0.10289 -0.12072,-0.15461 -0.0482,-0.0611 -0.11286,-0.11301 -0.17191,-0.16179 -0.0668,-0.0561 -0.13289,-0.11153 -0.20267,-0.16325 -0.113,-0.0841 -0.20927,-0.18112 -0.2956,-0.29266 -0.0559,-0.0733 -0.10915,-0.14871 -0.16527,-0.22142 -0.0109,-0.0144 -0.0254,-0.0272 -0.031,-0.0445 -0.004,-0.006 0,-0.0136 -0.004,-0.0201 -0.008,-0.0131 -0.0215,-0.0145 -0.0359,-0.0138 -0.012,0 -0.0254,0.004 -0.0359,0.003 -0.0289,0 -0.0453,-0.009 -0.0712,0.007 -0.0173,0.0101 -0.0325,0.0173 -0.051,0.0237 0,0.0114 0.004,0.0223 0,0.0331 0,0.007 -0.0109,0.0129 -0.0131,0.0215 0,0.007 -0.004,0.025 -0.004,0.0317 -0.004,0.004 -0.005,0.008 -0.004,0.0129 0.01,0.0109 0.0194,0.0215 0.0282,0.0324 0.0187,0.0223 0.0258,0.0582 0.0416,0.0841 0.018,0.0294 0.0388,0.0559 0.0582,0.0841 0.0318,0.0453 0.0539,0.097 0.0784,0.14596 0.0332,0.0661 0.0683,0.12368 0.12517,0.17099 0.10139,0.0841 0.2444,0.13749 0.31711,0.25179 0.0321,0.0503 0.10125,0.0948 0.14725,0.13142 0.0655,0.0519 0.15183,0.11945 0.17981,0.20356 0.008,0.026 0.0109,0.0539 0.0208,0.0791 0.0325,0.0841 0.0727,0.16105 0.09,0.25013 0.0138,0.0712 0.0314,0.14302 0.025,0.21572 -0.004,0.0359 -0.012,0.0698 -0.018,0.10491 -0.005,0.0274 -0.005,0.0554 -0.0102,0.0834 -0.0102,0.0576 -0.0453,0.10583 -0.0705,0.15756 -0.0215,0.0423 -0.0395,0.0905 -0.0675,0.13012 -0.0187,0.0265 -0.0438,0.0495 -0.0633,0.0755 -0.0145,0.0173 -0.0201,0.0359 -0.0311,0.0554 -0.0138,0.023 -0.0342,0.0416 -0.051,0.0626 -0.0201,0.0236 -0.0374,0.0488 -0.0569,0.0733 -0.025,0.0317 -0.0532,0.0561 -0.092,0.0683 -0.0353,0.0109 -0.0697,0.0173 -0.10269,0.0339 -0.0547,0.0272 -0.10362,0.0668 -0.15315,0.10142 -0.0504,0.0351 -0.095,0.0876 -0.13804,0.13216 -0.0467,0.0482 -0.092,0.0979 -0.13804,0.14595 -0.0561,0.0596 -0.12442,0.10786 -0.17191,0.17467 -0.0229,0.0339 -0.041,0.0705 -0.0626,0.1051 -0.0243,0.0381 -0.0502,0.0725 -0.0676,0.11577 -0.0293,0.0718 -0.0604,0.14449 -0.0913,0.21572 -0.0497,0.11135 -0.0799,0.23431 -0.0841,0.35652 -0.004,0.10491 0,0.21074 0.01,0.31492 m 2.77152,-5.37872 c -0.004,-0.0129 -0.008,-0.0287 -0.0145,-0.0401 0,-0.002 -0.01,-0.0116 -0.012,-0.0131 -0.0116,-0.004 -0.008,0.003 -0.018,0.007 -0.0173,0.007 -0.0374,0.0188 -0.0574,0.0237 -0.0116,0.002 -0.0236,0 -0.0353,0.002 -0.0208,0.005 -0.0431,0.0223 -0.0611,0.0331 -0.0265,0.0164 -0.0539,0.028 -0.0712,0.0567 -0.01,0.0166 -0.025,0.0445 -0.0473,0.0453 -0.004,0.0151 0,0.0173 -0.0102,0.026 -0.0261,0.0193 -0.0576,0.0101 -0.074,0.0388 -0.008,0.0151 -0.0173,0.0208 -0.0275,0.0337 -0.0109,0.0138 -0.0258,0.0519 -0.0166,0.069 0.005,0.007 0.0159,0.0109 0.0215,0.0165 0.004,0.003 0.006,0.009 0.01,0.0123 0.0145,0.0136 0.031,0.0245 0.0433,0.0416 0.018,0.0267 0.0279,0.0698 0.0653,0.0591 0.0236,-0.008 0.0359,-0.023 0.0403,-0.049 0.004,-0.0272 0,-0.0547 0.008,-0.0819 0.0106,-0.0353 0.0359,-0.0655 0.0661,-0.0848 0.0582,-0.0388 0.12149,-0.0655 0.18185,-0.0957 0.004,0.002 0.004,0.002 0.008,-0.004 -0.004,0 -0.005,0.002 -0.008,0.004 -0.006,-0.007 0.0145,-0.0712 0.008,-0.10068 m -0.43713,0.80525 c 0.0109,0.0116 0.0261,0.0374 0.0381,0.0453 0.0215,0.0123 0.0282,0 0.0403,-0.0136 0.012,-0.0136 0.03,-0.0158 0.0423,-0.0331 0.0187,-0.0265 0.046,-0.0381 0.0677,-0.0611 0.0145,-0.0144 0.0251,-0.0315 0.0394,-0.046 0.0152,-0.0157 0.0325,-0.0309 0.0447,-0.048 0.0272,-0.0396 0.0208,-0.0964 0.0819,-0.0885 0.0187,0.003 0.0727,0.0339 0.0883,0.009 0.006,-0.0101 -0.004,-0.0257 -0.006,-0.0366 -0.004,-0.0136 -0.006,-0.0237 -0.0166,-0.0359 -0.006,-0.007 -0.013,-0.0123 -0.0166,-0.0203 -0.004,-0.01 0,-0.0257 -0.01,-0.0344 -0.0138,-0.0136 -0.008,-0.002 -0.0215,0 -0.0102,0.002 -0.0219,-0.002 -0.0325,0 -0.0116,0.002 -0.0208,0.008 -0.031,0.0136 -0.0332,0.0179 -0.0663,0.025 -0.0942,0.0503 -0.0166,0.0151 -0.0325,0.0295 -0.0495,0.044 -0.0145,0.0121 -0.0346,0.0193 -0.0482,0.0329 -0.0152,0.0166 -0.0194,0.0381 -0.0366,0.0525 -0.018,0.0144 -0.0361,0.0151 -0.0569,0.0245 -0.0127,0.006 -0.0222,0.0151 -0.0366,0.0173 -0.006,0 -0.0123,0 -0.0187,0 -0.004,-0.006 -0.008,-0.009 -0.0113,-0.0151 -0.006,-0.0109 -0.004,-0.005 -0.006,-0.0201 -0.005,-0.026 0.006,-0.0561 0,-0.0821 -0.0395,-0.003 -0.0532,-0.069 -0.0749,-0.0977 -0.0286,-0.0388 -0.046,-0.0898 -0.0898,-0.11578 0.005,-0.0109 0.005,-0.018 0.008,-0.0302 0.0229,0 0.0236,-0.0238 0.031,-0.041 0.008,-0.0179 0.0222,-0.0237 0.0236,-0.0445 0,-0.0144 -0.004,-0.0295 -0.007,-0.0438 -0.006,-0.041 0,-0.0504 0.0286,-0.0747 0.0109,-0.009 0.0222,-0.0166 0.0339,-0.0274 0.0145,-0.0144 0.0187,-0.0144 0.0388,-0.0144 0.0236,0 0.0582,0.006 0.0804,0 0.0735,-0.0188 0.0236,-0.0898 0.0145,-0.13952 0.0152,0.009 0.0159,0.009 0.0152,0.006 -0.005,0 -0.01,-0.003 -0.0152,-0.006 0,0 0,0 0,-0.002 0,0 -0.004,0 -0.004,-0.002 -0.008,-0.006 -0.0152,-0.0123 -0.0201,-0.0166 -0.0127,-0.0109 -0.0293,-0.0366 -0.0438,-0.0418 -0.006,0.0109 -0.0152,0.0208 -0.0201,0.0324 -0.006,0.0136 -0.007,0.0265 -0.0173,0.0388 -0.0173,0.0193 -0.0445,0.0316 -0.064,0.049 -0.0339,0.0287 -0.0725,0.0359 -0.1136,0.0445 -0.0201,0.005 -0.0381,0.0144 -0.0581,0.0179 -0.018,0.003 -0.031,0 -0.0468,0.0116 0,0.0158 0.018,0.028 0.0311,0.0337 -0.004,0.0109 -0.006,0.023 -0.0116,0.0324 -0.008,0.0136 -0.0106,0.006 -0.012,0.026 -0.004,0.0411 0,0.0826 0,0.12369 0,0.0547 0.0222,0.10417 0.0525,0.14743 0.0261,0.0381 0.049,0.0696 0.0841,0.0992 0.0261,0.0215 0.0332,0.0539 0.0517,0.0819 0.0243,0.0366 0.0504,0.072 0.0677,0.11209 0.01,0.023 0.0265,0.0361 0.046,0.0504 0.0138,0.01 0.0279,0.0215 0.0409,0.0337 m 0.18331,0.48187 c 0.0116,0.004 0.0243,-0.007 0.0353,-0.009 0.0318,-0.006 0.0683,0.003 0.10069,0 0.0208,-0.002 0.0208,-0.002 0.0215,-0.0237 0,-0.0324 0.006,-0.0524 0.0359,-0.0784 0.0102,-0.008 0.0286,-0.0116 0.0418,-0.0173 0.0173,-0.006 0.0321,-0.005 0.051,-0.005 0.0705,0 0.13953,0.0396 0.17121,0.0948 0.018,0.0304 0.0453,0.0547 0.0625,0.0856 0.0187,0.0339 0.0187,0.0705 0.0187,0.10786 0,0.006 0.005,0.0267 0,0.0324 -0.004,0.007 -0.0113,0.008 -0.0201,0.0121 -0.0194,0.0101 -0.0353,0.0217 -0.0591,0.026 -0.0215,0.004 -0.046,0.007 -0.069,0.007 -0.0215,0 -0.0335,-0.002 -0.0495,0.0101 -0.0346,0.0265 -0.018,0.0554 0.004,0.0841 0.01,0.0129 0.0243,0.0215 0.0388,0.0295 0.0201,0.0101 0.0222,0.009 0.025,0.0316 0.0265,0.006 0.0547,0 0.0804,-0.005 0.0236,-0.004 0.0403,-0.004 0.0618,-0.0123 0.0145,-0.006 0.0303,-0.0107 0.0453,-0.0151 0.0254,-0.007 0.0504,-0.0109 0.0611,-0.0366 0.005,-0.0101 0,-0.0223 0.007,-0.0316 0.006,-0.008 0.0152,-0.0109 0.0208,-0.0188 0.0166,-0.0216 0.008,-0.0574 0.008,-0.0826 0,-0.0309 0,-0.0567 -0.0109,-0.0863 -0.0145,-0.0337 0.004,-0.0725 -0.008,-0.10712 -0.004,0 -0.005,0 -0.0159,0.0381 0,-0.0302 -0.0113,-0.0552 -0.0173,-0.0854 -0.005,-0.0252 -0.004,-0.0526 -0.025,-0.0734 -0.0102,-0.009 -0.0324,-0.0151 -0.0446,-0.023 -0.0201,-0.0121 -0.041,-0.0245 -0.0618,-0.0359 -0.0325,-0.018 -0.0604,-0.041 -0.0935,-0.0576 -0.0317,-0.0151 -0.0554,-0.0186 -0.0913,-0.0201 -0.0346,-0.002 -0.0561,-0.0238 -0.0906,-0.0252 -0.018,0 -0.0368,0.003 -0.0539,0 -0.0258,-0.003 -0.0268,-0.0129 -0.0482,0.005 -0.0359,0.0287 -0.0892,0.0401 -0.12439,0.0711 -0.0236,0.0202 -0.0215,0.0504 -0.0166,0.0769 0.004,0.0116 0.0116,0.0282 0.008,0.0403 -0.004,0.0109 -0.0127,0.0121 -0.018,0.0215 -0.008,0.0136 0.008,0.0339 0.01,0.0482 0,0.0114 -0.006,0.0215 0.007,0.026 m 0.0885,0.35284 c 0.0396,0.004 0.11779,0.0158 0.11854,-0.0381 0,-0.0265 -0.009,-0.0453 -0.0272,-0.0653 -0.008,-0.009 -0.0201,-0.0245 -0.0346,-0.0245 0,-0.003 0,-0.005 0,-0.008 l 0.008,-0.0265 c -0.006,0.006 -0.0169,0.0136 -0.0272,0.0164 -0.006,0.002 -0.0187,-0.002 -0.0243,0.003 -0.006,0.004 -0.007,0.0123 -0.0159,0.0158 -0.0113,0.004 -0.0243,0 -0.0346,0.008 -0.044,0.0309 -0.008,0.11503 0.0381,0.11927 m -6.21114,0.59542 c 0.0127,-0.0648 0.043,-0.12148 0.03,-0.19638 -0.0123,-0.0725 0.0346,-0.14302 0.0784,-0.20707 v 0.0433 c 0.005,0 0.01,0 0.0152,0 0.004,-0.0346 0.0106,-0.0705 0.006,-0.10362 -0.0194,-0.10988 -0.0445,-0.21921 -0.0648,-0.32855 -0.005,-0.0316 -0.004,-0.0653 0.004,-0.0955 0.0243,-0.10142 0.0517,-0.2021 0.0797,-0.30204 0.0236,-0.0834 0.0475,-0.16602 0.0757,-0.24737 0.0169,-0.0488 0.0423,-0.0948 0.0675,-0.14026 0.01,-0.0186 0.0265,-0.0329 0.0396,-0.0502 0.006,-0.008 0.009,-0.0166 0.012,-0.026 0.0187,-0.0517 -0.0229,-0.10492 0.006,-0.15663 0.0102,-0.0173 0.0152,-0.0388 0.018,-0.0589 0.007,-0.0576 0.012,-0.11522 0.0187,-0.17265 0,-0.0101 0.005,-0.0208 0.0102,-0.0287 0.0311,-0.044 0.0648,-0.0871 0.0957,-0.13161 0.005,-0.008 0.004,-0.0215 0.004,-0.0366 0.072,-0.0648 0.10435,-0.16547 0.17981,-0.23873 0.0683,-0.0663 0.11134,-0.15755 0.16602,-0.23725 0.0359,-0.0525 0.0734,-0.10436 0.10784,-0.15755 0.0303,-0.0468 0.0799,-0.0777 0.0849,-0.14522 0.004,-0.0359 0.0418,-0.0747 0.0725,-0.10344 0.0618,-0.0576 0.12958,-0.10933 0.19491,-0.164 0,0.0101 0.004,0.0208 0.004,0.0324 0.004,0.002 0.008,0.004 0.012,0.005 0.0261,-0.0381 0.051,-0.0762 0.0777,-0.1143 0.0166,-0.0245 0.0353,-0.0482 0.0532,-0.0725 0.0127,-0.018 0.0258,-0.0361 0.0381,-0.0539 0.0215,-0.0309 0.0418,-0.0626 0.0625,-0.0935 0.006,-0.0109 0.0173,-0.0188 0.0254,-0.0287 0.031,-0.0418 0.0604,-0.0841 0.0933,-0.12368 0.009,-0.009 0.0303,-0.0101 0.046,-0.0123 0.0222,-0.003 0.0467,0 0.0683,-0.006 0.092,-0.0267 0.18352,-0.0532 0.2726,-0.0856 0.0359,-0.0129 0.072,-0.0359 0.0992,-0.0633 0.0856,-0.0819 0.19198,-0.13731 0.27185,-0.22786 0.0423,-0.0482 0.11063,-0.074 0.16954,-0.10492 0.0662,-0.0346 0.13381,-0.0641 0.20207,-0.0942 0.0374,-0.0166 0.074,-0.0388 0.11282,-0.0438 0.0762,-0.0109 0.15462,-0.0109 0.23157,-0.0188 0.0893,-0.008 0.18129,-0.002 0.2632,-0.0468 0.0876,-0.048 0.18405,-0.0394 0.27884,-0.0409 0.007,0 0.0159,0.002 0.0201,0.006 0.0423,0.0396 0.0913,0.023 0.13804,0.0136 0.006,0 0.0106,-0.0186 0.0187,-0.0324 0.0219,-0.004 0.0497,-0.01 0.0777,-0.0107 0.059,0 0.11797,0.002 0.17684,0.002 0.0619,0.002 0.12369,0.006 0.18483,0.002 0.0576,-0.004 0.1143,-0.0193 0.17116,-0.0302 0,0 0.004,-0.003 0.004,-0.004 0.0229,-0.002 0.049,-0.0116 0.069,-0.004 0.0534,0.018 0.10658,0.0388 0.15537,0.0675 0.0243,0.0145 0.0655,0.0224 0.0648,0.067 0,0.006 0.0106,0.0144 0.018,0.0186 0.0296,0.0165 0.0598,0.0316 0.09,0.0475 0,-0.005 0,-0.009 0,-0.0144 0.008,-0.002 0.018,-0.006 0.0261,-0.005 0.0438,0.009 0.0861,0.0216 0.13011,0.0287 0.0173,0.004 0.0366,-0.007 0.0539,-0.004 0.0683,0.0116 0.13582,0.026 0.20263,0.0388 0.0834,0.0166 0.16602,0.0324 0.24959,0.0482 0.0113,0.002 0.0229,0.0109 0.0335,0.009 0.0762,-0.0116 0.14097,0.0302 0.21149,0.0445 0.0127,0.003 0.0222,0.0188 0.0335,0.0287 -0.004,0.002 -0.005,0.004 -0.007,0.006 l -0.0641,-0.0203 c -0.004,0.004 -0.004,0.008 -0.005,0.0123 0.0453,0.0302 0.0898,0.0604 0.13455,0.0913 0.004,-0.006 0.004,-0.013 0.006,-0.0195 0.0159,0.002 0.0346,-0.002 0.0475,0.004 0.0381,0.0223 0.0755,0.048 0.11207,0.0725 0.0604,0.0403 0.11854,0.0848 0.18186,0.11872 0.046,0.025 0.10361,0.0272 0.14965,0.051 0.10985,0.0554 0.21992,0.11282 0.29189,0.21939 0.0258,0.0394 0.0559,0.0755 0.0913,0.12148 0.008,-0.0158 0.0113,-0.0245 0.0152,-0.0309 0.0827,0.0705 0.11281,0.16822 0.16527,0.2516 0.0467,0.0762 0.0957,0.15461 0.15755,0.21793 0.0755,0.0762 0.1675,0.13657 0.25016,0.20761 0.0811,0.0698 0.0957,0.17265 0.12072,0.26891 0.0102,0.0388 0.0194,0.0784 0.0289,0.11799 0.004,0 0.009,-0.002 0.0138,-0.003 0,-0.0121 -0.004,-0.0237 -0.004,-0.0351 0.0201,0.0193 0.0275,0.0431 0.0403,0.0633 0.0268,0.0431 0.0561,0.0849 0.0856,0.12719 0.007,0.0109 0.0187,0.0195 0.0258,0.0302 0.046,0.0675 0.0913,0.13528 0.13511,0.2043 0.009,0.0114 0.0109,0.0272 0.0145,0.0416 0.018,0.0769 0.0332,0.15387 0.0546,0.23007 0.0187,0.0705 0.0438,0.13878 0.0661,0.2078 l 0.0116,-0.004 c 0.004,-0.006 0.004,-0.0136 0.006,-0.0171 0.008,0.0431 0.0194,0.0876 0.0243,0.13289 0.006,0.0576 0.004,0.11577 0.008,0.17338 0.005,0.0596 -0.006,0.12148 0.0258,0.17762 0.018,0.0322 0.0339,0.0676 0.0396,0.10344 0.0261,0.15534 0.046,0.31069 0.12664,0.45149 0.0582,0.10142 0.0633,0.21646 0.0423,0.32855 -0.0328,0.18277 -0.0646,0.36609 -0.1373,0.53929 -0.004,0.0101 -0.0159,0.0166 -0.0215,0.0267 -0.0243,0.0366 -0.0482,0.074 -0.0712,0.11062 0.004,0.002 0.005,0.004 0.007,0.006 0.01,-0.004 0.018,-0.007 0.0268,-0.0114 -0.0396,0.0532 -0.0467,0.11853 -0.0286,0.16823 0.0215,0.0554 0.0187,0.0985 -0.005,0.14596 -0.004,-0.004 -0.005,-0.008 -0.0127,-0.023 -0.004,0.0423 -0.006,0.0747 -0.0102,0.10638 -0.004,0.0339 -0.004,0.0683 -0.009,0.10216 -0.0332,0.18976 -0.10933,0.3659 -0.17484,0.54573 -0.0668,0.17964 -0.18757,0.32854 -0.28328,0.49106 -0.0502,0.0854 -0.11927,0.16381 -0.20412,0.22566 -0.095,0.069 -0.1905,0.13583 -0.25675,0.24093 -0.0467,0.074 -0.11927,0.13234 -0.18404,0.19344 -0.10347,0.097 -0.20782,0.19253 -0.31567,0.28382 -0.1675,0.14246 -0.33055,0.29339 -0.55936,0.33443 -0.0152,0.003 -0.0314,0 -0.0466,0.003 -0.0539,0.009 -0.11077,0.0114 -0.15974,0.0322 -0.0503,0.021 -0.092,0.0604 -0.13878,0.0913 -0.008,0.005 -0.0194,0.004 -0.0293,0.006 -0.0145,0.003 -0.0328,0 -0.0438,0.009 -0.0906,0.0639 -0.18478,0.11854 -0.29337,0.14799 -0.0777,0.0208 -0.1524,0.0504 -0.22785,0.0769 -0.0254,0.009 -0.0482,0.0316 -0.0727,0.0324 -0.0933,0.002 -0.17614,0.0438 -0.26522,0.0618 -0.13088,0.0265 -0.26099,0.0626 -0.3882,-0.0144 -0.0138,-0.008 -0.0368,-0.003 -0.0554,-0.002 -0.018,0.002 -0.0366,0.0129 -0.0539,0.0109 -0.17191,-0.021 -0.34361,-0.0447 -0.51552,-0.0663 -0.0863,-0.0114 -0.17321,-0.0208 -0.25954,-0.0316 -0.069,-0.009 -0.1373,-0.0158 -0.20559,-0.028 -0.0849,-0.0151 -0.16895,-0.0352 -0.25453,-0.0524 -0.005,0 -0.008,0 -0.0131,0 -0.0403,-0.006 -0.0849,-0.004 -0.11874,-0.0215 -0.10213,-0.0532 -0.19989,-0.1143 -0.29909,-0.17265 -0.0303,-0.0178 -0.0567,-0.0525 -0.0985,-0.0215 -0.004,0.004 -0.0166,-0.004 -0.0236,-0.007 -0.10344,-0.0532 -0.21425,-0.0791 -0.32706,-0.097 -0.0799,-0.0123 -0.11504,-0.0749 -0.16034,-0.12589 -0.005,-0.006 -0.004,-0.0166 -0.004,-0.0317 0.0159,0.0144 0.0272,0.0245 0.0388,0.0346 0.004,-0.002 0.007,-0.004 0.0102,-0.006 -0.0123,-0.0203 -0.0194,-0.0455 -0.0368,-0.0598 -0.0703,-0.0589 -0.13931,-0.11927 -0.20909,-0.1789 -0.10287,-0.0878 -0.18203,-0.2021 -0.3055,-0.26689 -0.0475,-0.025 -0.0836,-0.071 -0.12517,-0.10712 -0.008,-0.007 -0.0201,-0.0107 -0.031,-0.0144 -0.095,-0.0366 -0.18553,-0.0769 -0.23005,-0.17835 -0.0381,-0.0876 -0.0777,-0.17468 -0.12224,-0.25805 -0.0222,-0.0409 -0.0539,-0.0784 -0.0878,-0.11007 -0.13659,-0.12939 -0.28106,-0.2494 -0.36738,-0.42186 -0.0303,-0.0598 -0.0705,-0.11375 -0.10566,-0.17118 -0.0109,-0.018 -0.0201,-0.0366 -0.0268,-0.0554 -0.031,-0.0826 -0.0639,-0.16454 -0.0891,-0.24811 -0.0236,-0.0775 -0.0388,-0.15811 -0.0561,-0.23798 -0.013,-0.0589 -0.0187,-0.12001 -0.0339,-0.17891 -0.0212,-0.0784 -0.0611,-0.15461 -0.0683,-0.23375 -0.007,-0.0819 -0.0243,-0.15958 -0.0433,-0.23799 -0.007,-0.0322 -0.0251,-0.0668 -0.0187,-0.0963"
       style="fill:#21201d;fill-opacity:1;fill-rule:evenodd;stroke:none;stroke-width:0.184057"
       id="path624" />
  </g>
</svg>
