<?xml version="1.0" encoding="UTF-8" standalone="no"?>
<!-- Created with Inkscape (http://www.inkscape.org/) -->

<svg
   width="8.214386mm"
   height="8.2593107mm"
   viewBox="0 0 8.214386 8.2593107"
   version="1.1"
   id="svg2862"
   inkscape:version="1.1.2 (0a00cf5339, 2022-02-04)"
   sodipodi:docname="rm7.svg"
   xmlns:inkscape="http://www.inkscape.org/namespaces/inkscape"
   xmlns:sodipodi="http://sodipodi.sourceforge.net/DTD/sodipodi-0.dtd"
   xmlns="http://www.w3.org/2000/svg"
   xmlns:svg="http://www.w3.org/2000/svg">
  <sodipodi:namedview
     id="namedview2864"
     pagecolor="#ffffff"
     bordercolor="#666666"
     borderopacity="1.0"
     inkscape:pageshadow="2"
     inkscape:pageopacity="0.0"
     inkscape:pagecheckerboard="0"
     inkscape:document-units="mm"
     showgrid="false"
     inkscape:zoom="0.64052329"
     inkscape:cx="262.28555"
     inkscape:cy="675.22916"
     inkscape:window-width="2560"
     inkscape:window-height="1376"
     inkscape:window-x="0"
     inkscape:window-y="0"
     inkscape:window-maximized="1"
     inkscape:current-layer="layer1" />
  <defs
     id="defs2859">
    <clipPath
       clipPathUnits="userSpaceOnUse"
       id="clipPath248">
      <path
         d="m 258,33 h 46 v 45.723 h -46 z"
         id="path246" />
    </clipPath>
  </defs>
  <g
     inkscape:label="Layer 1"
     inkscape:groupmode="layer"
     id="layer1"
     transform="translate(-35.547885,30.153299)">
    <g
       id="g578"
       transform="matrix(0.18405616,0,0,0.18405792,-12.118618,-36.327992)">
      <g
         clip-path="url(#clipPath248)"
         id="g576">
        <path
           d="m 263.82,63.781 c 0.039,0.086 0.055,0.153 0.086,0.239 0.035,0.105 0.012,0.117 0.074,0.128 0,0.028 -0.003,0.055 0,0.082 0.004,0.086 0.04,0.133 0.063,0.211 0.023,0.094 0,0.18 0.027,0.27 0.094,0.019 0.184,0.062 0.258,0.078 0.149,0.023 0.324,0.004 0.477,0.004 0.257,0 0.547,0.031 0.8,0.004 0.153,-0.016 0.262,-0.07 0.411,-0.074 0.14,-0.004 0.277,0 0.418,0 0.136,0 0.625,0.074 0.726,-0.004 0.09,-0.071 -0.105,-0.328 -0.117,-0.449 -0.004,-0.067 -0.016,-0.122 -0.035,-0.176 h 1.183 c 0.301,0 0.602,0 0.907,0 0.367,-0.004 0.711,0.058 1.074,0.074 0.863,0.031 1.719,0.066 2.582,0.152 0.504,0.051 1.008,0.02 1.508,0.067 0.457,0.043 0.898,0.074 1.355,0.058 0.465,-0.015 0.926,-0.078 1.395,-0.074 0.547,0 1.093,0 1.64,0 0.442,0 0.868,-0.012 1.305,-0.055 0.652,-0.058 1.305,-0.007 1.957,-0.07 0.613,-0.055 1.227,0.027 1.84,-0.031 0.484,-0.043 0.973,-0.067 1.453,-0.11 0.168,-0.011 0.332,-0.023 0.496,-0.031 -0.008,0.149 -0.008,0.293 0.027,0.406 0.047,0.149 0.145,0.102 0.309,0.102 0.164,0 0.285,-0.023 0.441,-0.055 0.348,-0.066 0.75,-0.015 1.106,-0.015 0.258,0 0.852,0.074 0.988,-0.196 0.055,-0.105 -0.062,-0.336 -0.125,-0.507 0.145,0 0.293,0.003 0.442,0.003 h 2.054 c 1.071,0 2.149,0.028 3.219,-0.003 0.258,-0.004 0.5,-0.071 0.762,-0.067 0.207,0 0.406,0 0.613,0 0.156,0 0.383,-0.039 0.539,-0.004 0.106,0.024 0.207,0.067 0.313,0.102 -0.004,0.074 -0.012,0.148 -0.012,0.219 0,0.23 -0.02,0.339 0.137,0.523 0.211,0.258 0.476,0.281 0.82,0.281 0.207,0 0.414,-0.004 0.617,0 0.125,0 0.223,-0.008 0.344,-0.035 0.101,-0.023 0.215,-0.008 0.308,-0.031 0.188,-0.047 0.125,-0.207 0.165,-0.34 0.019,-0.055 0.05,-0.09 0.062,-0.164 0.02,-0.141 -0.004,-0.301 -0.004,-0.441 0.004,-0.266 -0.078,-0.508 -0.074,-0.77 0,-0.066 0.008,-0.141 0.008,-0.215 0.066,0.125 0.066,-0.144 0.066,-0.422 0.004,-0.199 0.031,-0.281 -0.152,-0.383 -0.149,-0.085 -0.34,-0.101 -0.516,-0.058 -0.078,0.019 -0.109,0.051 -0.211,0.058 -0.09,0.004 -0.179,0 -0.265,0 -0.18,-0.003 -0.266,0.04 -0.422,0.071 -0.082,0.015 -0.184,-0.008 -0.27,-0.004 -0.105,0.004 -0.168,0.047 -0.269,0.066 -0.157,0.032 -0.258,-0.019 -0.364,0.125 -0.019,0.028 -0.035,0.059 -0.043,0.09 h -0.308 c -0.688,0 -1.348,0.086 -2.028,0.133 -0.535,0.039 -1.07,0.012 -1.601,0.094 -0.676,0.097 -1.375,0.054 -2.059,0.054 -0.519,0 -1.011,-0.039 -1.523,-0.066 -0.238,-0.016 -0.457,-0.066 -0.703,-0.074 -0.364,-0.008 -0.731,-0.055 -1.09,-0.078 -0.961,-0.059 -1.91,-0.063 -2.871,-0.063 -0.285,0 -0.567,0 -0.852,0 -0.269,0 -0.496,0.055 -0.754,0.074 -0.644,0.047 -1.32,-0.004 -1.965,-0.004 -0.675,-0.003 -1.316,0.114 -1.992,0.176 -0.601,0.055 -1.168,0.106 -1.777,0.106 -0.266,0 -0.527,0 -0.793,0.035 -0.438,0.058 -0.891,0.035 -1.34,0.035 -0.996,-0.004 -1.984,-0.07 -2.98,-0.07 -0.368,0 -0.746,0.027 -1.114,-0.02 -0.367,-0.043 -0.738,-0.094 -1.105,-0.113 -0.328,-0.02 -0.649,-0.059 -0.977,-0.078 -0.351,-0.024 -0.726,-0.035 -1.074,-0.086 -0.176,-0.024 -0.348,-0.039 -0.519,-0.047 -0.004,-0.023 -0.004,-0.047 -0.008,-0.066 -0.137,-0.012 -0.231,-0.047 -0.356,-0.098 -0.125,-0.051 -0.215,-0.055 -0.363,-0.055 -0.141,0 -0.281,0.004 -0.418,0 -0.172,0 -0.297,0.067 -0.461,0.071 -0.168,0.007 -0.265,0.031 -0.422,0.062 -0.156,0.031 -0.34,0.004 -0.5,0.008 -0.144,0.004 -0.254,-0.098 -0.383,-0.078 -0.089,0.015 -0.183,0.14 -0.128,0.222 0,0.004 -0.008,0.004 -0.012,0.004 -0.024,0.024 -0.074,0.282 -0.082,0.309 -0.02,0.098 -0.004,0.211 -0.004,0.312 0,0.231 -0.031,0.457 0.066,0.672 m 4.989,5.086 c 0.113,0.121 0.351,0.067 0.523,0.067 0.238,0 0.48,-0.008 0.719,-0.004 0.207,0.008 0.344,0.109 0.539,0.144 0.222,0.047 0.383,-0.066 0.586,-0.125 0.265,-0.07 0.531,-0.07 0.765,-0.23 0.137,-0.094 0.329,-0.242 0.5,-0.207 0.192,0.035 0.418,0.195 0.618,0.261 0.148,0.051 0.238,0.125 0.382,0.192 0.129,0.058 0.274,0.062 0.407,0.133 0.23,0.113 0.472,0.195 0.718,0.285 0.411,0.152 0.821,0.258 1.262,0.234 0.383,-0.019 0.797,-0.148 1.168,-0.234 0.25,-0.055 0.508,-0.153 0.762,-0.172 0.215,-0.012 0.394,0.019 0.601,-0.027 0.075,-0.016 0.153,-0.055 0.215,-0.071 0.141,-0.039 0.133,-0.023 0.258,0.071 0.106,0.078 0.172,0.078 0.281,0.109 0.11,0.031 0.207,0.098 0.321,0.129 0.109,0.035 0.238,0.016 0.355,0.012 0.375,-0.004 0.746,-0.02 1.113,0.054 0.442,0.086 0.856,0.055 1.297,0.098 0.235,0.019 0.461,0.086 0.696,0.07 0.195,-0.011 0.398,-0.054 0.593,-0.086 0.321,-0.047 0.567,-0.207 0.852,-0.351 0.211,-0.106 0.453,-0.196 0.652,-0.321 0.168,-0.105 0.18,-0.082 0.371,-0.019 0.469,0.156 1.125,0.039 1.641,0.051 0.371,0.011 0.73,0.132 1.105,0.148 0.329,0.012 0.68,0.086 1,0.16 0.364,0.09 0.61,0.008 0.946,-0.105 0.113,-0.043 0.254,-0.043 0.351,-0.121 0.09,-0.074 0.141,-0.211 0.227,-0.297 0.324,-0.324 0.812,-0.211 1.238,-0.211 0.469,0 0.945,0.117 1.399,0.199 0.195,0.035 0.382,0.027 0.574,0.07 0.136,0.032 0.281,0.016 0.426,0.016 0.328,0.008 0.168,-0.125 0.14,-0.375 -0.019,-0.172 0.086,-0.371 -0.101,-0.414 -0.149,-0.039 -0.352,0.004 -0.508,0.004 h -0.535 c -0.18,0 -0.332,0.012 -0.5,-0.055 -0.164,-0.062 -0.336,-0.117 -0.504,-0.179 -0.203,-0.075 -0.379,-0.196 -0.571,-0.29 -0.156,-0.078 -0.281,-0.117 -0.425,-0.23 -0.235,-0.188 -0.434,-0.328 -0.598,-0.602 -0.176,0.059 -0.223,0.282 -0.344,0.407 -0.109,0.121 -0.23,0.195 -0.371,0.281 -0.141,0.09 -0.199,0.226 -0.34,0.309 -0.211,0.128 -0.441,0.179 -0.652,0.343 -0.113,0.09 -0.231,0.141 -0.356,0.211 -0.117,0.067 -0.226,0.172 -0.355,0.219 -0.199,0.07 -0.441,-0.031 -0.637,-0.074 -0.429,-0.086 -0.91,-0.137 -1.301,-0.34 -0.152,-0.082 -0.339,-0.121 -0.484,-0.211 -0.09,-0.059 -0.144,-0.145 -0.23,-0.203 -0.11,-0.082 -0.215,-0.125 -0.286,-0.231 -0.128,-0.191 -0.218,-0.457 -0.41,-0.144 -0.113,0.183 -0.277,0.246 -0.449,0.371 -0.187,0.141 -0.363,0.281 -0.57,0.394 -0.071,0.04 -0.141,0.086 -0.207,0.129 -0.031,0.024 -0.141,0.153 -0.168,0.164 -0.254,0.125 -0.59,0.122 -0.856,0.211 -0.16,0.055 -0.25,0.102 -0.422,0.098 -0.421,-0.016 -0.867,-0.148 -1.281,-0.203 -0.359,-0.051 -0.734,-0.336 -1.011,-0.574 -0.278,-0.235 -0.364,-0.629 -0.649,-0.864 -0.101,-0.082 -0.16,-0.129 -0.269,-0.019 -0.055,0.058 -0.082,0.156 -0.153,0.219 -0.082,0.082 -0.199,0.156 -0.297,0.218 -0.187,0.129 -0.382,0.231 -0.566,0.375 -0.238,0.184 -0.504,0.243 -0.774,0.356 -0.234,0.101 -0.382,0.199 -0.644,0.203 -0.219,0 -0.445,0.012 -0.664,0 -0.348,-0.02 -0.676,-0.215 -1.004,-0.313 -0.23,-0.07 -0.477,-0.058 -0.715,-0.101 -0.293,-0.059 -0.539,-0.063 -0.789,-0.234 -0.223,-0.153 -0.426,-0.368 -0.648,-0.508 -0.207,-0.141 -0.387,-0.25 -0.504,-0.5 -0.067,-0.149 -0.039,-0.258 -0.192,-0.121 -0.156,0.144 -0.273,0.367 -0.394,0.539 -0.086,0.129 -0.219,0.199 -0.336,0.3 -0.156,0.129 -0.278,0.247 -0.449,0.36 -0.235,0.152 -0.426,0.308 -0.703,0.379 -0.126,0.031 -0.215,0.078 -0.333,0.125 -0.179,0.07 -0.328,0.101 -0.523,0.14 0.012,0.094 -0.098,0.008 -0.258,0 -0.133,-0.004 -0.379,-0.039 -0.508,0.012 0.055,0.152 0.133,0.379 0.243,0.496 m 28.316,-13.504 c -0.035,0.004 -0.055,0.028 -0.086,0.035 -0.039,0.012 -0.078,0.004 -0.117,0.004 -0.125,0 -0.231,-0.039 -0.352,-0.062 -0.168,-0.028 -0.32,-0.043 -0.488,-0.043 -0.219,0 -0.437,0.008 -0.648,-0.016 -0.125,-0.015 -0.246,-0.019 -0.368,-0.019 0.032,-0.055 0.008,-0.078 -0.035,-0.071 -0.031,0.004 -0.031,0.028 -0.058,0.032 -0.051,0.015 -0.121,0.019 -0.161,0.066 -0.066,0.066 -0.027,0.305 -0.027,0.399 0,0.66 0.035,1.312 0.035,1.968 0,0.18 -0.019,0.375 0.008,0.551 0.024,0.141 0.027,0.266 0.027,0.41 0,0.297 0.036,0.59 0.036,0.887 0,0.164 -0.004,0.328 0,0.492 0,0.152 0.035,0.297 0.035,0.453 v 0.414 c 0,0.047 -0.016,0.129 0.008,0.172 0.035,0.074 0.168,0.176 0.242,0.176 0.051,0.004 0.117,-0.027 0.172,-0.027 0.035,-0.004 0.07,0 0.101,0 0.113,0 0.203,0.027 0.309,0.039 0.09,0.007 0.176,-0.016 0.258,-0.032 0.089,-0.015 0.179,-0.007 0.269,-0.003 0.149,0 0.281,-0.043 0.43,-0.04 0.105,0 0.207,0.016 0.305,-0.023 0.074,-0.035 0.07,-0.027 0.07,-0.113 0,-0.102 0.008,-0.18 0.027,-0.274 0.028,-0.136 0.008,-0.289 0.008,-0.429 v -0.485 c 0,-0.129 0.016,-0.265 -0.008,-0.39 -0.039,-0.2 -0.019,-0.403 -0.055,-0.606 -0.027,-0.164 -0.007,-0.348 -0.007,-0.516 0,-0.406 -0.008,-0.808 0.039,-1.21 0.031,-0.297 0.043,-0.598 0.062,-0.895 0.012,-0.238 0.035,-0.477 0.039,-0.719 0,-0.07 0.024,-0.129 -0.07,-0.125 m -3.418,5.575 c -0.035,-0.161 -0.094,-0.313 -0.094,-0.481 0,-0.141 -0.023,-0.309 -0.043,-0.453 -0.027,-0.168 -0.031,-0.332 -0.054,-0.5 -0.024,-0.145 0,-0.289 -0.012,-0.434 -0.008,-0.09 -0.031,-0.175 -0.035,-0.269 -0.008,-0.223 0.004,-0.453 0.004,-0.68 v -0.613 c 0,-0.196 -0.02,-0.406 0.007,-0.602 0.032,-0.238 0.036,-0.476 0.008,-0.715 -0.031,-0.25 -0.015,-0.503 -0.015,-0.753 -0.004,-0.391 0.101,-0.766 0.191,-1.137 0.02,-0.09 0.02,-0.172 0.02,-0.262 0,-0.066 0.015,-0.156 0,-0.219 -0.012,-0.043 -0.024,-0.132 -0.043,-0.16 -0.028,-0.043 -0.094,-0.082 -0.133,-0.113 -0.086,-0.067 -0.168,-0.133 -0.246,-0.211 -0.071,-0.066 -0.102,-0.141 -0.184,-0.199 -0.043,-0.035 -0.09,-0.075 -0.137,-0.106 -0.113,-0.078 -0.281,-0.047 -0.41,-0.047 -0.719,0 -1.414,0.246 -2.133,0.246 -0.265,0 -0.535,-0.011 -0.793,0.028 -0.144,0.023 -0.285,0.015 -0.421,0.047 0,0.047 0.046,0.082 0.058,0.133 0.016,0.054 0.008,0.121 0.008,0.179 0,0.09 0,0.18 0,0.27 0,0.187 0,0.379 0,0.566 -0.004,0.359 0.105,0.692 0.105,1.047 -0.003,0.117 -0.003,0.234 0,0.355 0,0.145 -0.031,0.282 -0.039,0.426 -0.007,0.18 -0.019,0.34 -0.05,0.524 -0.032,0.164 -0.016,0.332 -0.016,0.496 0,0.48 -0.023,0.965 0.004,1.445 0.008,0.238 0.019,0.488 0.062,0.723 0.047,0.265 0.118,0.535 0.141,0.804 0.02,0.254 0,0.516 0,0.77 0.016,-0.035 0.203,-0.043 0.387,-0.008 0.195,0.039 0.433,0.008 0.629,0.008 0.316,0 0.617,-0.035 0.933,-0.035 0.176,0 0.356,0.004 0.539,0 0.184,0 0.364,0.035 0.551,0.035 0.109,0 0.207,0.031 0.316,0.039 0.071,0.004 0.141,-0.008 0.211,-0.004 0.071,0 0.133,0.02 0.2,0.027 0.07,0.012 0.136,0 0.207,0.008 0.07,0.008 0.175,0.071 0.246,0.028 0.066,-0.039 0.047,-0.141 0.031,-0.203 m -10.453,-0.215 c -0.004,0.093 -0.004,0.183 -0.004,0.277 -0.004,0.094 -0.016,0.109 0.082,0.113 0.102,0.004 0.203,-0.004 0.305,0 0.269,0.008 0.531,0.063 0.801,0.075 0.058,0 0.113,0.003 0.171,0.003 0.543,0.004 1.094,0.012 1.633,-0.015 0.18,-0.008 0.363,-0.031 0.543,-0.031 0.27,0 0.535,0.101 0.805,0.113 0.094,0 0.242,0.019 0.332,-0.012 0.113,-0.039 0.035,-0.144 0.023,-0.23 -0.023,-0.118 -0.023,-0.239 0,-0.36 0.02,-0.09 0.028,-0.164 0.004,-0.258 -0.035,-0.128 -0.027,-0.238 -0.027,-0.375 0,-0.476 -0.035,-0.941 -0.035,-1.414 v -2.863 c 0,-0.207 0.039,-0.445 -0.039,-0.644 -0.11,-0.254 -0.43,-0.153 -0.641,-0.192 -0.156,-0.031 -0.289,-0.066 -0.449,-0.066 -0.074,0 -0.153,0.004 -0.231,0.004 0.004,-0.012 0.008,-0.024 0,-0.043 -0.297,0.004 -0.234,0.027 -0.148,0.039 0.047,0.008 0.098,0.004 0.148,0.004 -0.015,0.043 -0.093,0.031 -0.136,0.019 -0.188,-0.031 -0.379,-0.062 -0.571,-0.062 -0.218,0.004 -0.425,-0.004 -0.64,-0.028 -0.114,-0.007 -0.223,-0.011 -0.332,0.004 -0.188,0.024 -0.34,-0.008 -0.524,-0.011 -0.148,-0.008 -0.285,0.039 -0.433,0.039 -0.082,0 -0.168,-0.008 -0.254,-0.004 -0.071,0.004 -0.125,0.031 -0.192,0.039 -0.054,0.008 -0.152,-0.028 -0.199,0.004 -0.082,0.05 -0.062,0.238 -0.078,0.316 -0.027,0.18 -0.027,0.352 -0.027,0.535 0,0.153 -0.008,0.305 -0.004,0.457 0.004,0.078 -0.012,0.235 0.031,0.305 0.02,0.027 0.059,0.035 0.07,0.066 0.024,0.047 0.008,0.145 0.008,0.2 0,0.078 -0.004,0.156 -0.019,0.234 -0.051,0.262 -0.118,0.492 -0.122,0.766 -0.003,0.425 -0.027,0.863 0,1.285 0.008,0.187 0.055,0.371 0.071,0.554 0.019,0.192 0.031,0.383 0.062,0.571 0.032,0.191 0.024,0.39 0.016,0.586 m 6.734,-9.094 c -0.019,-0.039 -0.004,-0.051 -0.039,-0.082 -0.027,-0.024 -0.074,-0.035 -0.105,-0.059 -0.117,-0.082 -0.207,-0.199 -0.313,-0.289 -0.14,-0.117 -0.265,-0.246 -0.386,-0.379 -0.286,-0.312 -0.641,-0.574 -0.895,-0.914 -0.094,-0.125 -0.191,-0.25 -0.277,-0.383 -0.035,-0.054 -0.125,-0.128 -0.125,-0.203 -0.082,-0.027 -0.188,-0.004 -0.274,-0.004 h -0.523 c -0.242,-0.004 -0.485,0.028 -0.727,0.036 -0.269,0.007 -0.543,0 -0.812,-0.02 -0.45,-0.031 -0.895,0.02 -1.344,0.016 -0.066,-0.004 -0.125,-0.012 -0.184,-0.032 -0.16,-0.05 -0.328,-0.074 -0.496,-0.054 -0.082,0.008 -0.168,0.019 -0.254,0.043 -0.066,0.019 -0.129,0.07 -0.199,0.082 -0.086,0.015 -0.125,-0.02 -0.133,0.043 -0.004,0.015 -0.007,0.035 -0.007,0.058 0.003,0.133 0.031,0.254 0.039,0.387 0.011,0.168 -0.004,0.316 0.023,0.48 0.016,0.079 0.004,0.149 0.008,0.227 0.004,0.066 0.023,0.137 0.039,0.207 0.023,0.156 0.031,0.297 0.031,0.461 0,0.098 -0.015,0.207 0,0.301 0.008,0.051 0.031,0.09 0.039,0.137 0.008,0.058 0.008,0.121 0.016,0.179 0.012,0.141 0.031,0.281 0.062,0.418 0.047,0.215 0.016,0.43 0.051,0.645 0.02,0.117 -0.015,0.238 0.016,0.351 0.011,0.043 0.027,0.078 0.031,0.129 0.082,-0.019 0.16,-0.051 0.238,-0.07 0.102,-0.02 0.207,0.012 0.301,0.031 0.055,0.012 0.106,0.004 0.164,0.016 0.063,0.011 0.125,0.043 0.192,0.054 0.093,0.016 0.187,0.004 0.285,0.008 0.105,0 0.207,0.024 0.308,0.031 0.25,0.02 0.489,0.008 0.739,0.047 0.238,0.039 0.472,0.028 0.714,0.028 h 1.403 c 0.066,0 0.156,0.019 0.222,-0.004 0.036,-0.145 0,-0.336 0,-0.485 v -0.695 c 0,-0.078 -0.046,-0.398 0.036,-0.43 0.023,0 0.043,0 0.07,0.004 0.035,-0.004 0.07,-0.019 0.101,-0.039 0.098,-0.035 0.18,-0.035 0.286,-0.035 0.386,0.004 0.804,0.102 1.187,0.008 0.043,-0.012 0.086,-0.008 0.137,-0.008 0.066,0.004 0.113,-0.016 0.176,-0.027 0.046,-0.008 0.093,0.004 0.136,-0.008 0.051,-0.004 0.09,-0.035 0.137,-0.043 -0.027,-0.055 -0.062,-0.105 -0.094,-0.164 m -7.894,8.859 c -0.012,-0.379 -0.106,-0.75 -0.106,-1.129 0.004,-0.246 -0.035,-0.484 -0.035,-0.73 0.004,-0.289 0.008,-0.574 -0.027,-0.863 -0.031,-0.278 0.031,-0.539 0.027,-0.817 0,-0.308 -0.008,-0.617 0.074,-0.914 0.071,-0.265 0.043,-0.578 0.035,-0.847 -0.003,-0.118 -0.035,-0.231 -0.039,-0.352 -0.003,-0.082 0.004,-0.164 0.004,-0.25 -0.004,-0.121 0,-0.242 0,-0.363 h -0.308 c -0.196,0 -0.383,-0.02 -0.578,-0.032 -0.207,-0.011 -0.418,-0.011 -0.621,-0.07 -0.098,-0.023 -0.188,-0.07 -0.286,-0.101 -0.117,-0.036 -0.23,-0.036 -0.351,-0.04 -0.153,-0.003 -0.293,-0.035 -0.442,-0.035 -0.129,0.004 -0.257,-0.004 -0.39,0 -0.113,0.004 -0.227,0.047 -0.344,0.039 -0.094,-0.007 -0.18,-0.039 -0.277,-0.039 -0.098,0.004 -0.184,0.004 -0.278,-0.015 -0.035,-0.008 -0.07,-0.008 -0.101,-0.008 -0.004,-0.016 -0.004,-0.035 -0.012,-0.055 -0.113,-0.004 -0.199,-0.039 -0.312,-0.039 -0.282,-0.004 -0.567,0.02 -0.848,-0.008 -0.172,-0.015 -0.328,-0.039 -0.5,-0.023 -0.188,0.019 -0.371,0.058 -0.559,0.078 -0.281,0.031 -0.55,0.066 -0.836,0.063 -0.433,0 -0.875,0.078 -1.312,0.035 -0.164,-0.02 -0.313,-0.071 -0.481,-0.075 -0.097,0 -0.207,-0.019 -0.296,0.012 0.062,0.106 0.043,0.266 0.05,0.383 0.012,0.102 -0.023,0.187 -0.062,0.285 -0.055,0.129 -0.055,0.254 -0.059,0.391 -0.008,0.164 -0.031,0.324 -0.047,0.488 -0.023,0.297 0.004,0.602 0.004,0.898 v 2.102 c 0,0.328 0.012,0.66 0,0.988 -0.008,0.344 -0.136,0.672 -0.144,1.012 -0.008,0.246 -0.071,0.574 0.297,0.656 0.07,0.02 0.156,0.02 0.222,0.055 0.059,0.027 0.094,0.074 0.153,0.102 0.054,0.027 0.129,0.046 0.187,0.07 0.109,0.047 0.152,0.074 0.281,0.074 0.098,0 0.176,-0.016 0.274,-0.027 0.09,-0.016 0.187,0.004 0.277,-0.012 0.133,-0.027 0.246,-0.109 0.375,-0.145 0.172,-0.05 0.387,-0.089 0.567,-0.105 0.222,-0.023 0.402,0.066 0.613,0.074 0.301,0.008 0.601,-0.027 0.898,0.004 0.125,0.016 0.246,0.039 0.371,0.031 0.133,-0.004 0.25,-0.05 0.379,-0.066 0.094,-0.012 0.196,-0.008 0.301,-0.004 0.02,0.051 0.039,0.102 0.047,0.156 0.109,0.028 0.226,-0.043 0.34,-0.058 0.234,-0.035 0.472,-0.024 0.699,-0.067 0.113,-0.019 0.215,-0.043 0.328,-0.043 0.125,0.004 0.25,0.012 0.375,0.004 0.125,-0.011 0.231,-0.039 0.359,-0.039 0.125,0 0.25,0.012 0.372,-0.004 0.148,-0.011 0.285,-0.039 0.437,-0.027 0.149,0.016 0.254,0.035 0.402,0.016 0.129,-0.02 0.25,-0.02 0.379,-0.016 0.114,0 0.203,-0.02 0.313,-0.035 0.058,-0.004 0.121,0.004 0.179,0 0.071,-0.008 0.059,-0.004 0.067,-0.071 0.027,-0.164 -0.031,-0.332 -0.035,-0.492 m -0.032,-9.019 c -0.003,-0.125 -0.035,-0.242 -0.039,-0.367 -0.003,-0.09 0,-0.184 0.004,-0.278 0,-0.226 -0.082,-0.441 -0.105,-0.668 -0.016,-0.16 -0.004,-0.328 -0.004,-0.492 0,-0.203 -0.008,-0.391 -0.031,-0.59 -0.039,-0.375 -0.004,-0.773 -0.004,-1.152 v -0.465 c 0,-0.059 0.027,-0.191 -0.004,-0.246 -0.047,-0.082 -0.145,-0.07 -0.219,-0.07 -0.129,0.004 -0.25,-0.032 -0.375,-0.036 -0.183,-0.003 -0.355,-0.035 -0.535,-0.035 -0.094,0.004 -0.195,0.008 -0.293,0.004 -0.133,-0.004 -0.262,-0.047 -0.395,-0.066 -0.234,-0.031 -0.472,0.015 -0.707,-0.008 -0.253,-0.023 -0.496,-0.031 -0.75,-0.031 -0.23,0 -0.464,-0.016 -0.695,0 -0.058,0.004 -0.203,0.015 -0.18,0.105 -0.078,-0.148 -0.046,0.129 -0.027,0.238 0.02,0.086 0.074,0.192 0.09,0.293 0.027,0.165 0.008,0.344 0.008,0.508 0,0.246 0.062,0.477 0.074,0.719 0.008,0.195 -0.008,0.391 -0.004,0.586 0.008,0.305 -0.094,0.613 -0.133,0.91 -0.023,0.188 -0.008,0.383 -0.004,0.574 0,0.192 -0.027,0.379 -0.039,0.567 -0.015,0.355 -0.07,0.703 -0.066,1.062 v 0.36 h 0.164 c 0.258,0 0.516,0 0.773,-0.004 0.235,0 0.457,0.043 0.692,0.062 0.246,0.024 0.5,0.082 0.75,0.082 0.176,0 0.34,0.008 0.515,0.024 0.262,0.027 0.539,0.011 0.801,0.011 0.242,0 0.492,-0.004 0.731,0.036 0.004,-0.016 0.004,-0.024 0.004,-0.036 0,-0.531 0.011,-1.066 0.003,-1.597 m -0.285,-5.832 c -0.187,-0.344 -0.363,-0.692 -0.535,-1.043 -0.148,-0.305 -0.289,-0.614 -0.387,-0.934 -0.031,-0.109 -0.078,-0.207 -0.101,-0.32 -0.031,-0.133 -0.039,-0.27 -0.055,-0.402 -0.062,-0.563 -0.285,-1.086 -0.312,-1.657 -0.012,-0.261 -0.094,-0.523 -0.141,-0.777 -0.055,-0.277 -0.078,-0.563 -0.098,-0.84 -0.019,-0.266 -0.007,-0.535 -0.007,-0.801 0,-0.203 0.035,-0.457 -0.02,-0.66 -0.039,-0.129 -0.113,-0.23 -0.121,-0.367 -0.012,-0.145 0.012,-0.297 0.004,-0.441 -0.012,-0.11 -0.031,-0.207 -0.035,-0.321 -0.004,-0.148 -0.098,-0.277 -0.11,-0.426 -0.007,-0.105 -0.019,-0.191 -0.043,-0.296 -0.011,-0.063 -0.035,-0.145 -0.019,-0.207 0.012,-0.036 0.047,-0.059 0.055,-0.094 0.035,-0.121 -0.129,-0.176 -0.168,-0.051 -0.016,0.051 0.004,0.137 0.004,0.191 v 0.547 c 0,0.117 -0.028,0.231 -0.047,0.348 -0.016,0.141 -0.028,0.269 -0.071,0.406 -0.043,0.125 -0.09,0.285 -0.093,0.418 -0.012,0.156 0,0.317 0,0.473 -0.004,0.215 0.058,0.426 0.031,0.644 -0.008,0.09 -0.031,0.18 -0.031,0.27 -0.004,0.101 0.007,0.207 0,0.308 -0.004,0.09 -0.032,0.18 -0.036,0.274 -0.003,0.109 0.012,0.219 -0.007,0.328 -0.082,0.457 -0.141,0.91 -0.164,1.375 -0.012,0.356 -0.071,0.711 -0.145,1.055 -0.012,0.058 -0.016,0.113 -0.035,0.168 -0.031,0.07 -0.067,0.074 -0.117,0.117 -0.043,0.035 -0.051,0.066 -0.071,0.125 -0.074,0.195 -0.132,0.402 -0.187,0.605 -0.102,0.352 -0.195,0.707 -0.344,1.043 -0.062,0.137 -0.074,0.282 -0.121,0.418 -0.031,0.09 -0.098,0.164 -0.125,0.262 -0.047,0.148 -0.051,0.328 -0.148,0.453 -0.036,0.047 -0.184,0.137 -0.18,0.195 0.004,0.059 0.375,0.043 0.422,0.036 0.113,-0.012 0.219,-0.067 0.328,-0.09 0.098,-0.024 0.191,-0.016 0.293,-0.02 0.16,0 0.305,0.043 0.465,0.067 0.113,0.011 0.215,0.011 0.328,0.031 0.125,0.027 0.273,0.008 0.402,0.008 0.121,0 0.223,0.023 0.34,0.039 0.105,0.011 0.203,-0.008 0.309,0.015 0.132,0.028 0.199,-0.011 0.328,-0.019 0.191,-0.012 0.371,-0.035 0.566,-0.035 0.125,0 0.285,0.027 0.41,-0.004 0,-0.039 -0.039,-0.074 0.039,-0.067 -0.136,-0.05 -0.187,-0.23 -0.25,-0.347 m -4.652,7.281 c -0.117,-0.211 -0.203,-0.418 -0.344,-0.617 -0.027,-0.039 -0.058,-0.082 -0.082,-0.125 -0.043,-0.074 -0.078,-0.149 -0.105,-0.227 -0.043,-0.125 -0.067,-0.254 -0.133,-0.367 -0.098,-0.176 -0.262,-0.305 -0.41,-0.434 -0.192,-0.164 -0.363,-0.343 -0.555,-0.507 -0.101,-0.094 -0.18,-0.2 -0.25,-0.317 -0.027,-0.039 -0.035,-0.086 -0.07,-0.117 -0.024,-0.023 -0.059,-0.023 -0.078,-0.047 0,0.004 -0.016,0.039 -0.036,0.074 -0.023,0.047 -0.05,0.098 -0.058,0.11 -0.035,0.047 -0.086,0.07 -0.121,0.125 -0.094,0.129 -0.184,0.254 -0.289,0.375 -0.207,0.242 -0.434,0.465 -0.645,0.703 -0.109,0.133 -0.211,0.277 -0.304,0.422 -0.063,0.097 -0.133,0.211 -0.223,0.281 -0.106,0.086 -0.223,0.145 -0.309,0.254 -0.09,0.117 -0.144,0.297 -0.203,0.434 0.074,-0.059 0.281,-0.059 0.367,-0.059 0.207,0.004 0.418,0.008 0.629,0.004 0.36,-0.016 0.715,-0.11 1.078,-0.11 h 0.489 c 0.183,0 0.359,0.039 0.539,0.039 0.156,-0.003 0.304,-0.011 0.457,0.043 0.078,0.024 0.152,0.055 0.234,0.059 0.055,0.004 0.086,0.004 0.141,0.027 0.066,0.028 0.121,0.047 0.191,0.063 0.102,0.019 0.145,0.019 0.09,-0.086 m -0.719,-4.238 c -0.035,-0.164 -0.066,-0.352 -0.062,-0.524 0,-0.086 0.015,-0.726 -0.071,-0.601 -0.242,0 -0.484,-0.008 -0.726,-0.004 -0.254,0.004 -0.496,0.062 -0.742,0.101 -0.246,0.039 -0.496,0.036 -0.739,0.094 -0.086,0.02 -0.164,0.055 -0.25,0.07 -0.144,0.032 -0.296,0.012 -0.441,0.004 -0.285,-0.023 -0.566,-0.019 -0.848,-0.019 -0.199,-0.004 -0.406,-0.059 -0.605,-0.035 -0.074,0.007 -0.184,0.015 -0.25,0.039 -0.02,0.297 -0.219,0.539 -0.32,0.816 -0.043,0.121 -0.082,0.246 -0.137,0.371 -0.059,0.129 -0.149,0.215 -0.246,0.313 -0.094,0.093 -0.184,0.172 -0.281,0.254 -0.086,0.07 -0.141,0.179 -0.208,0.269 -0.164,0.223 -0.32,0.453 -0.496,0.668 -0.097,0.121 -0.195,0.215 -0.273,0.352 -0.07,0.117 -0.121,0.23 -0.176,0.355 -0.047,0.106 -0.117,0.195 -0.164,0.301 -0.023,0.074 -0.051,0.144 -0.078,0.219 -0.023,0.027 -0.043,0.05 -0.07,0.07 -0.047,0.059 -0.118,0.141 -0.137,0.203 0.187,0.055 0.418,-0.031 0.602,-0.055 0.269,-0.035 0.55,-0.011 0.824,-0.046 0.078,-0.008 0.144,-0.032 0.218,-0.032 0.094,-0.004 0.18,0 0.274,-0.027 0.18,-0.047 0.34,-0.078 0.527,-0.078 0.184,0 0.367,0 0.551,0 0.094,0.004 0.203,-0.024 0.277,-0.074 0.164,-0.118 0.262,-0.309 0.395,-0.457 0.137,-0.157 0.266,-0.332 0.441,-0.442 0.082,-0.055 0.137,-0.105 0.207,-0.172 0.067,-0.07 0.157,-0.121 0.223,-0.195 0.109,-0.125 0.184,-0.293 0.289,-0.43 0.106,-0.129 0.207,-0.3 0.336,-0.406 0.047,-0.035 0.07,-0.047 0.094,-0.102 0.035,-0.07 0.004,-0.066 0.097,-0.07 0.414,-0.012 0.852,0.047 1.266,-0.008 0.148,-0.019 0.293,-0.027 0.445,-0.027 0.086,0 0.219,0.039 0.254,-0.066 0.028,-0.09 0.008,-0.211 0.008,-0.305 0,-0.106 0.012,-0.219 -0.008,-0.324 m -7.672,4.761 c -0.097,0.047 -0.16,0.114 -0.246,0.176 -0.093,0.071 -0.289,0.11 -0.316,0.242 -0.027,0.145 0.07,0.301 0.074,0.442 0.008,0.168 0.016,0.351 -0.008,0.515 -0.074,0.469 -0.035,0.981 0.004,1.457 0.016,0.172 -0.008,0.34 0.012,0.512 0.016,0.141 0.027,0.277 0.027,0.422 0,0.184 -0.023,0.359 -0.031,0.543 -0.008,0.164 -0.047,0.312 -0.066,0.477 -0.036,0.253 -0.008,0.527 -0.008,0.785 v 1.07 c 0,0.063 0.008,0.129 0,0.191 -0.004,0.051 -0.02,0.082 -0.031,0.125 -0.016,0.079 -0.012,0.153 -0.032,0.227 -0.015,0.07 -0.039,0.141 -0.043,0.211 -0.004,0.031 -0.011,0.113 0,0.141 0.02,0.046 0.055,0.031 0.106,0.031 0.09,0 0.144,-0.031 0.226,-0.035 0.227,-0.012 0.434,0.039 0.645,0.113 0.148,0.051 0.258,0.102 0.418,0.098 0.105,0 0.183,-0.004 0.281,-0.028 0.309,-0.078 0.637,0.012 0.945,-0.051 0.207,-0.039 0.36,-0.007 0.559,0.036 0.07,0.019 0.168,0.019 0.242,0.007 0.074,-0.007 0.067,-0.007 0.07,-0.086 0,-0.042 0,-0.082 0,-0.121 v -1.129 c 0,-0.558 0.012,-1.121 0,-1.679 -0.003,-0.156 -0.039,-0.309 -0.035,-0.469 0,-0.144 0,-0.281 -0.015,-0.426 -0.047,-0.343 -0.106,-0.683 -0.125,-1.027 -0.012,-0.207 -0.032,-0.414 -0.055,-0.617 -0.016,-0.176 -0.008,-0.352 -0.023,-0.528 -0.028,-0.304 -0.028,-0.597 -0.028,-0.902 v -1.25 c -0.125,-0.164 -0.054,-0.117 -0.035,-0.168 -0.219,0.063 -0.457,0.07 -0.695,0.066 -0.074,-0.003 -0.133,-0.031 -0.203,-0.039 -0.078,-0.007 -0.16,0.016 -0.239,0 -0.109,-0.015 -0.175,-0.066 -0.285,0.008 -0.07,0.051 -0.117,0.082 -0.199,0.117 -0.094,0.047 -0.156,0.125 -0.23,0.196 -0.055,0.051 -0.114,0.062 -0.18,0.101 -0.067,0.035 -0.113,0.09 -0.18,0.121 -0.097,0.047 -0.203,0.075 -0.301,0.125 m -1.851,6.696 c -0.024,-0.231 -0.035,-0.449 -0.035,-0.684 0,-0.191 0.011,-0.391 0.004,-0.586 -0.008,-0.179 -0.036,-0.351 -0.036,-0.535 v -0.629 c 0,-0.285 -0.004,-0.57 0,-0.851 0,-0.25 -0.039,-0.497 -0.035,-0.747 0,-0.332 0.035,-0.652 0.035,-0.984 -0.082,-0.031 -0.05,-0.055 -0.011,-0.07 -0.043,0.004 -0.094,-0.008 -0.133,0 -0.027,0.004 -0.031,0.027 -0.051,0.031 -0.082,0.016 -0.176,0.035 -0.262,0.039 -0.082,0.008 -0.199,-0.023 -0.281,0 -0.027,0.008 -0.035,0.031 -0.066,0.039 -0.032,0.008 -0.071,-0.019 -0.098,0.004 -0.039,0.027 -0.074,0.125 -0.102,0.168 -0.042,0.063 -0.074,0.121 -0.113,0.184 -0.07,0.113 -0.172,0.203 -0.246,0.316 -0.094,0.141 -0.191,0.277 -0.297,0.406 -0.117,0.141 -0.242,0.27 -0.347,0.418 -0.067,0.094 -0.137,0.16 -0.204,0.246 -0.093,0.118 -0.058,0.262 -0.058,0.407 0,0.289 -0.043,0.605 0.008,0.886 0.058,0.364 0.023,0.758 0.027,1.129 0,0.344 0.07,0.68 0.07,1.02 0,0.16 -0.015,0.32 0.02,0.476 0.016,0.075 0.043,0.153 0.058,0.227 0.004,0.019 0.016,0.117 0.032,0.133 0.027,0.027 0.164,0.004 0.203,0.004 0.07,0 0.14,-0.008 0.207,0.007 0.168,0.032 0.328,0.028 0.5,0.028 0.242,0 0.484,0 0.723,0 0.058,0 0.117,0.008 0.175,-0.008 0.063,-0.012 0.114,-0.059 0.176,-0.066 0.082,-0.004 0.074,0.019 0.109,-0.059 0.055,-0.106 0.028,-0.27 0.028,-0.395 0,-0.183 0.015,-0.375 0,-0.554 m -7.899,-1.93 c 0.078,-0.352 0.239,-0.66 0.168,-1.066 -0.066,-0.395 0.188,-0.778 0.426,-1.125 v 0.234 c 0.027,0.004 0.055,0.004 0.082,0.004 0.012,-0.188 0.059,-0.383 0.031,-0.563 -0.101,-0.597 -0.242,-1.191 -0.347,-1.785 -0.032,-0.172 -0.024,-0.355 0.015,-0.519 0.133,-0.551 0.282,-1.098 0.434,-1.641 0.129,-0.453 0.258,-0.902 0.41,-1.344 0.094,-0.265 0.235,-0.515 0.363,-0.761 0.055,-0.102 0.149,-0.184 0.219,-0.278 0.031,-0.039 0.051,-0.09 0.067,-0.136 0.101,-0.282 -0.125,-0.571 0.031,-0.852 0.055,-0.094 0.086,-0.211 0.097,-0.32 0.04,-0.313 0.067,-0.629 0.102,-0.942 0.008,-0.051 0.023,-0.109 0.055,-0.152 0.172,-0.238 0.351,-0.473 0.519,-0.715 0.032,-0.043 0.012,-0.117 0.02,-0.199 0.39,-0.348 0.57,-0.902 0.98,-1.297 0.371,-0.359 0.602,-0.855 0.899,-1.289 0.195,-0.285 0.398,-0.566 0.586,-0.856 0.168,-0.25 0.433,-0.417 0.461,-0.785 0.015,-0.199 0.226,-0.41 0.398,-0.566 0.332,-0.313 0.699,-0.594 1.055,-0.891 0.007,0.055 0.015,0.114 0.019,0.176 0.024,0.008 0.047,0.016 0.067,0.027 0.14,-0.207 0.277,-0.418 0.421,-0.621 0.094,-0.133 0.192,-0.265 0.29,-0.394 0.07,-0.098 0.144,-0.196 0.21,-0.293 0.114,-0.168 0.223,-0.34 0.333,-0.508 0.043,-0.059 0.097,-0.102 0.14,-0.156 0.168,-0.227 0.328,-0.457 0.508,-0.672 0.047,-0.055 0.164,-0.059 0.25,-0.067 0.121,-0.019 0.254,0 0.371,-0.031 0.5,-0.144 0.996,-0.289 1.481,-0.465 0.199,-0.07 0.39,-0.195 0.543,-0.339 0.464,-0.45 1.039,-0.75 1.472,-1.243 0.231,-0.261 0.602,-0.402 0.922,-0.57 0.359,-0.187 0.73,-0.348 1.098,-0.512 0.203,-0.09 0.402,-0.207 0.613,-0.238 0.414,-0.062 0.84,-0.062 1.258,-0.102 0.484,-0.043 0.984,-0.007 1.429,-0.253 0.477,-0.262 1,-0.215 1.52,-0.219 0.035,-0.004 0.082,0.004 0.105,0.027 0.231,0.215 0.497,0.125 0.75,0.074 0.036,-0.004 0.059,-0.101 0.102,-0.179 0.117,-0.016 0.27,-0.051 0.418,-0.051 0.324,-0.008 0.645,0.004 0.965,0.012 0.336,0.004 0.672,0.031 1.004,0.004 0.312,-0.024 0.621,-0.106 0.929,-0.165 0.008,0 0.008,-0.019 0.016,-0.019 0.125,-0.012 0.262,-0.063 0.375,-0.024 0.289,0.098 0.578,0.211 0.84,0.364 0.137,0.082 0.359,0.125 0.355,0.367 0,0.035 0.059,0.078 0.098,0.102 0.16,0.089 0.324,0.171 0.484,0.257 0,-0.023 0,-0.05 -0.003,-0.078 0.046,-0.008 0.097,-0.035 0.14,-0.027 0.238,0.051 0.469,0.117 0.707,0.156 0.094,0.02 0.199,-0.039 0.293,-0.023 0.371,0.062 0.738,0.14 1.106,0.211 0.449,0.089 0.898,0.175 1.351,0.261 0.063,0.012 0.125,0.059 0.184,0.051 0.414,-0.062 0.765,0.164 1.152,0.246 0.067,0.012 0.117,0.098 0.18,0.153 -0.012,0.011 -0.024,0.023 -0.039,0.035 l -0.348,-0.117 c -0.008,0.023 -0.019,0.046 -0.027,0.07 0.246,0.164 0.488,0.328 0.734,0.492 0.012,-0.031 0.02,-0.066 0.035,-0.102 0.082,0.008 0.188,-0.011 0.254,0.028 0.211,0.117 0.41,0.258 0.61,0.39 0.328,0.219 0.644,0.461 0.988,0.645 0.25,0.133 0.558,0.152 0.812,0.277 0.598,0.297 1.196,0.61 1.586,1.192 0.141,0.215 0.309,0.41 0.496,0.66 0.043,-0.09 0.067,-0.133 0.082,-0.168 0.454,0.383 0.614,0.914 0.895,1.367 0.258,0.414 0.523,0.84 0.859,1.18 0.414,0.422 0.914,0.746 1.36,1.129 0.441,0.382 0.523,0.937 0.656,1.465 0.055,0.21 0.101,0.425 0.156,0.64 0.024,-0.004 0.047,-0.012 0.074,-0.015 -0.007,-0.067 -0.011,-0.129 -0.019,-0.192 0.105,0.102 0.144,0.234 0.215,0.344 0.144,0.234 0.304,0.461 0.465,0.691 0.043,0.059 0.101,0.106 0.14,0.164 0.25,0.368 0.496,0.735 0.735,1.11 0.042,0.062 0.058,0.148 0.078,0.226 0.101,0.418 0.183,0.836 0.297,1.25 0.105,0.379 0.238,0.75 0.359,1.125 l 0.062,-0.015 c 0.012,-0.035 0.024,-0.075 0.032,-0.094 0.043,0.234 0.105,0.476 0.132,0.723 0.032,0.312 0.016,0.628 0.043,0.945 0.028,0.32 -0.035,0.656 0.141,0.965 0.098,0.168 0.184,0.363 0.215,0.558 0.141,0.844 0.25,1.688 0.687,2.453 0.317,0.551 0.344,1.176 0.231,1.786 -0.176,0.992 -0.352,1.988 -0.746,2.929 -0.02,0.055 -0.082,0.094 -0.117,0.145 -0.133,0.199 -0.262,0.402 -0.387,0.601 0.012,0.012 0.027,0.024 0.043,0.036 0.047,-0.024 0.094,-0.043 0.14,-0.067 -0.214,0.289 -0.253,0.645 -0.156,0.914 0.114,0.301 0.102,0.531 -0.027,0.797 -0.012,-0.027 -0.027,-0.051 -0.07,-0.129 -0.024,0.231 -0.036,0.406 -0.055,0.578 -0.016,0.184 -0.02,0.371 -0.051,0.555 -0.18,1.031 -0.59,1.988 -0.949,2.965 -0.36,0.976 -1.016,1.785 -1.539,2.668 -0.274,0.465 -0.649,0.89 -1.11,1.222 -0.515,0.379 -1.035,0.743 -1.394,1.313 -0.254,0.402 -0.649,0.719 -1,1.051 -0.563,0.527 -1.129,1.047 -1.715,1.543 -0.91,0.773 -1.801,1.593 -3.039,1.816 -0.082,0.016 -0.172,0 -0.254,0.016 -0.293,0.05 -0.601,0.062 -0.867,0.176 -0.274,0.113 -0.5,0.332 -0.754,0.496 -0.043,0.027 -0.105,0.023 -0.156,0.031 -0.082,0.015 -0.184,0 -0.246,0.047 -0.489,0.347 -1,0.644 -1.59,0.804 -0.418,0.11 -0.828,0.27 -1.238,0.418 -0.137,0.051 -0.262,0.168 -0.395,0.176 -0.508,0.012 -0.957,0.238 -1.441,0.336 -0.711,0.145 -1.418,0.34 -2.11,-0.074 -0.074,-0.047 -0.199,-0.024 -0.297,-0.012 -0.101,0.012 -0.203,0.07 -0.297,0.059 -0.933,-0.114 -1.867,-0.239 -2.8,-0.36 -0.469,-0.062 -0.942,-0.113 -1.41,-0.171 -0.372,-0.047 -0.747,-0.086 -1.114,-0.153 -0.465,-0.082 -0.926,-0.191 -1.386,-0.289 -0.02,-0.004 -0.047,0.004 -0.071,0 -0.219,-0.035 -0.461,-0.019 -0.644,-0.117 -0.555,-0.289 -1.086,-0.621 -1.625,-0.938 -0.164,-0.097 -0.305,-0.285 -0.535,-0.117 -0.02,0.016 -0.086,-0.019 -0.129,-0.039 -0.563,-0.289 -1.164,-0.43 -1.778,-0.527 -0.437,-0.067 -0.625,-0.406 -0.871,-0.684 -0.023,-0.027 -0.012,-0.09 -0.015,-0.172 0.086,0.078 0.148,0.133 0.21,0.184 0.02,-0.008 0.04,-0.02 0.055,-0.031 -0.066,-0.11 -0.105,-0.25 -0.199,-0.325 -0.383,-0.32 -0.758,-0.648 -1.137,-0.972 -0.558,-0.477 -0.988,-1.098 -1.66,-1.453 -0.258,-0.133 -0.453,-0.383 -0.68,-0.578 -0.046,-0.039 -0.109,-0.059 -0.164,-0.082 -0.519,-0.196 -1.011,-0.415 -1.254,-0.969 -0.207,-0.473 -0.421,-0.946 -0.664,-1.403 -0.121,-0.218 -0.293,-0.421 -0.476,-0.593 -0.742,-0.703 -1.528,-1.356 -1.996,-2.293 -0.164,-0.325 -0.383,-0.617 -0.575,-0.93 -0.058,-0.094 -0.109,-0.199 -0.144,-0.301 -0.168,-0.449 -0.348,-0.89 -0.484,-1.347 -0.125,-0.422 -0.211,-0.86 -0.305,-1.293 -0.07,-0.321 -0.098,-0.653 -0.184,-0.969 -0.113,-0.43 -0.332,-0.844 -0.371,-1.277 -0.039,-0.442 -0.133,-0.864 -0.234,-1.29 -0.039,-0.175 -0.137,-0.363 -0.106,-0.523"
           style="fill:#21201d;fill-opacity:1;fill-rule:nonzero;stroke:none"
           id="path572" />
        <path
           d="m 269.422,56.027 c -0.016,-0.082 -0.027,-0.156 -0.024,-0.242 0.008,-0.226 0.028,-0.457 0.032,-0.683 0,-0.082 -0.059,-0.161 -0.032,-0.243 0.008,-0.031 0.047,-0.062 0.059,-0.093 0.02,-0.063 0.008,-0.137 0.012,-0.2 0.004,-0.07 0.015,-0.144 0.019,-0.214 0.004,-0.059 0.02,-0.114 0.043,-0.164 0.055,-0.122 0.305,-0.012 0.414,0.007 0.078,0.012 0.188,-0.031 0.223,0.032 0.004,0.007 0.008,0.015 0.008,0.023 0.004,0.035 -0.016,0.082 -0.016,0.113 v 0.293 c 0,0.254 -0.023,0.512 -0.019,0.766 0,0.16 -0.012,0.316 0.004,0.48 0.011,0.094 0.015,0.192 0.015,0.286 0.004,0.046 0.016,0.066 -0.047,0.078 -0.082,0.015 -0.183,0.027 -0.265,0.027 -0.094,0 -0.188,0 -0.282,0 -0.058,0 -0.16,0.027 -0.183,-0.031 -0.012,-0.032 0.043,-0.09 0.047,-0.125 0.004,-0.039 0,-0.075 -0.008,-0.11"
           style="fill:#21201d;fill-opacity:1;fill-rule:nonzero;stroke:none"
           id="path574" />
      </g>
    </g>
  </g>
</svg>
