<?xml version="1.0" encoding="UTF-8" standalone="no"?>
<!-- Created with Inkscape (http://www.inkscape.org/) -->

<svg
   width="8.2139263mm"
   height="8.2594652mm"
   viewBox="0 0 8.2139263 8.2594652"
   version="1.1"
   id="svg3192"
   inkscape:version="1.1.2 (0a00cf5339, 2022-02-04)"
   sodipodi:docname="rm8.svg"
   xmlns:inkscape="http://www.inkscape.org/namespaces/inkscape"
   xmlns:sodipodi="http://sodipodi.sourceforge.net/DTD/sodipodi-0.dtd"
   xmlns="http://www.w3.org/2000/svg"
   xmlns:svg="http://www.w3.org/2000/svg">
  <sodipodi:namedview
     id="namedview3194"
     pagecolor="#ffffff"
     bordercolor="#666666"
     borderopacity="1.0"
     inkscape:pageshadow="2"
     inkscape:pageopacity="0.0"
     inkscape:pagecheckerboard="0"
     inkscape:document-units="mm"
     showgrid="false"
     inkscape:zoom="0.64052329"
     inkscape:cx="-1222.438"
     inkscape:cy="526.91293"
     inkscape:window-width="2560"
     inkscape:window-height="1376"
     inkscape:window-x="0"
     inkscape:window-y="0"
     inkscape:window-maximized="1"
     inkscape:current-layer="layer1" />
  <defs
     id="defs3189" />
  <g
     inkscape:label="Layer 1"
     inkscape:groupmode="layer"
     id="layer1"
     transform="translate(-428.3829,-9.0886927)">
    <path
       d="m 428.90995,12.723569 c 0.0107,0.01933 0.0337,0.03148 0.051,0.04528 0.0208,0.01712 0.0425,0.04381 0.0698,0.05172 0.0245,0.0064 0.0468,-0.0072 0.069,-0.01012 0.0324,-0.0028 0.0705,0.01288 0.10436,0.01362 0.046,0.0015 0.074,0.01509 0.11633,0.02669 0.026,0.0072 0.0489,0.0064 0.0755,0.0072 0.0915,0.0022 0.17485,-0.0015 0.2632,-0.0173 0.0734,-0.01288 0.13583,-0.0064 0.21148,-0.01068 0.0668,-0.0037 0.13289,-0.0138 0.20117,-0.01307 0.0935,7.41e-4 0.187,0.0086 0.2805,0.0086 0.0653,-7.41e-4 0.12793,-0.0079 0.194,-0.0057 0.18056,0.0057 0.3567,0.01362 0.53505,-0.005 0.22142,-0.02374 0.44854,-0.0079 0.67217,-0.0022 0.1316,0.0035 0.2632,0.005 0.3948,0.01509 0.16234,0.01215 0.32707,0.04602 0.49033,0.04896 0.13583,0.002 0.26964,-0.0052 0.40548,-7.4e-4 0.0992,0.0028 0.1962,-0.0037 0.29467,-0.0029 0.0863,0.0015 0.17412,0.005 0.26026,0.0079 0.0806,0.0022 0.15902,-0.0042 0.23872,-0.0042 0.0871,-7.41e-4 0.16822,0.0085 0.25455,-0.0022 0.0697,-0.0086 0.14025,-0.01012 0.21,-0.01657 0.0804,-0.0072 0.15884,-0.01141 0.24001,-0.01509 0.0677,-0.0042 0.13381,-0.01583 0.20136,-0.01951 0.0834,-0.0035 0.16823,-0.002 0.2516,-0.0077 0.0576,-0.0044 0.11007,-0.01086 0.16823,-0.01086 0.09,7.41e-4 0.17835,-0.01436 0.26817,-0.01288 0.067,0.0013 0.13455,0.0042 0.20136,0.0057 0.092,0.0029 0.18332,0.005 0.27461,0.0072 0.023,7.41e-4 0.0504,0.0042 0.0727,0.0022 0.0295,-0.0022 0.0265,-7.41e-4 0.028,-0.02374 0.002,-0.04105 0.0123,-0.0762 0.023,-0.115036 0.002,-0.0087 0.009,-0.02374 0.005,-0.03387 0.009,0 0.0179,-7.4e-4 0.0258,-7.4e-4 h -0.0258 c -0.0123,-0.02153 -0.0641,-0.0094 -0.0856,-0.01215 -0.0324,-0.0022 -0.0618,-0.01951 -0.0928,-0.02522 -0.0561,-0.01012 -0.10491,0.005 -0.15387,-0.03313 -0.0482,-0.03663 -0.0799,-0.08117 -0.1316,-0.107858 -0.0374,-0.01859 -0.0812,-0.01712 -0.12148,-0.02871 -0.018,-0.005 -0.028,-0.01932 -0.0503,-0.01362 -0.0282,0.0072 -0.044,0.04675 -0.0799,0.05466 -0.0366,0.0079 -0.0302,0.0035 -0.0561,0.01859 -0.0359,0.01951 -0.0733,0.0289 -0.11283,0.03534 -0.0208,0.0035 -0.0403,0.0035 -0.0618,0.0029 -0.0339,-7.41e-4 -0.0431,-0.01657 -0.0755,-0.02522 -0.0504,-0.01436 -0.0906,0.03663 -0.13952,0.03957 -0.0582,0.0028 -0.11577,7.41e-4 -0.17117,0.0072 -0.004,0 -0.006,0 -0.008,0 -0.008,-7.41e-4 -0.0151,-0.0015 -0.0223,-0.0015 -0.006,-0.0044 -0.0121,-0.01086 -0.0238,-0.02227 -0.0158,-0.01804 -0.0272,-0.02595 -0.0495,-0.03884 -0.0359,-0.02153 -0.0604,-0.04896 -0.0928,-0.0762 -0.0272,-0.02301 -0.074,-0.07473 -0.11007,-0.07417 -7e-4,0 -0.0396,0.01307 -0.033,0.01233 -0.0237,0.0035 -0.0482,-0.0015 -0.072,0.0028 -0.0668,0.01086 -0.12516,0.01307 -0.19492,0.0044 -0.0265,-0.0037 -0.0532,-0.01013 -0.0797,-0.01509 -0.0302,-0.0044 -0.0626,-0.0022 -0.0928,-0.0072 -0.046,-0.0086 -0.0885,-0.0381 -0.12939,-0.05964 -0.0131,-0.0066 -0.0309,-0.02025 -0.046,-0.02098 -0.0116,0 -0.0267,0.0116 -0.0396,0.0138 -0.0158,0.0013 -0.0353,-0.0059 -0.0504,-0.0022 -0.0322,0.0072 -0.0589,0.03166 -0.092,0.03957 -0.0495,0.01215 -0.0661,0.02153 -0.10768,0.04804 -0.0504,0.03166 -0.0885,0.0138 -0.14099,0.02227 -0.0475,0.0074 -0.0762,0.04822 -0.1165,0.06976 -0.018,0.0094 -0.0287,0.01233 -0.0423,0.02816 -0.0109,0.01141 -0.008,0.0265 -0.0237,0.03663 -0.0188,0.01215 -0.0497,0.0042 -0.0712,0.0079 -0.0641,0.01141 -0.14025,0.04454 -0.20558,0.02227 -0.0203,-0.0072 -0.0274,-0.02153 -0.0475,-0.02595 -0.0193,-0.0035 -0.0497,0 -0.0698,7.41e-4 -0.0482,0.0022 -0.0935,0.0138 -0.14448,0.0138 -0.0431,0 -0.12663,0.01436 -0.164,-0.01233 -0.0243,-0.0173 -0.0322,-0.05466 -0.0495,-0.07915 -0.0116,-0.01638 -0.0374,-0.05246 -0.0576,-0.05964 -0.0171,-0.0072 -0.0401,0.0022 -0.0589,-0.0028 -0.0611,-0.01657 -0.12221,-0.06902 -0.17982,-0.09645 -0.0366,-0.0173 -0.0725,-0.02522 -0.11135,-0.03515 -0.0366,-0.0094 -0.0626,-0.03884 -0.0977,-0.04749 -0.0109,-0.0029 -0.0223,0.0035 -0.0346,0 -0.0179,-0.005 -0.0324,-0.01951 -0.0453,-0.03166 -0.0337,-0.03166 -0.028,-0.01141 -0.0641,0.0042 -0.0351,0.01583 -0.069,0.02172 -0.10418,0.04601 -0.0359,0.02448 -0.0676,0.05908 -0.10786,0.07694 -0.0569,0.02595 -0.0871,0.07694 -0.15313,0.09571 -0.051,0.01436 -0.10565,0.02595 -0.15884,0.01657 -0.0245,-0.0044 -0.0547,-0.0064 -0.0777,-0.01233 -0.0188,-0.0035 -0.0188,-0.01638 -0.0411,-0.01509 -0.0302,0.0015 -0.0646,0.03018 -0.0948,0.03884 -0.0497,0.01436 -0.10288,0.01951 -0.15239,0.0346 -0.0238,0.0072 -0.0468,0.02448 -0.0705,0.03092 -0.0267,0.0079 -0.0202,0.0042 -0.0475,-0.01233 -0.0403,-0.02301 -0.0885,-0.0381 -0.1316,-0.05595 -0.0423,-0.01804 -0.0819,-0.05117 -0.12719,-0.04675 -0.0274,0.002 -0.0561,0.0173 -0.0806,0.02871 -0.0488,0.02301 -0.0676,0.06902 -0.12369,0.07988 -0.0705,0.01436 -0.14522,0.0042 -0.2113,0.03736 -0.0316,0.01583 -0.0274,0.04012 -0.0539,0.06037 -0.003,0.0022 -0.006,0.0029 -0.009,0.0042 -0.0151,-7.41e-4 -0.0302,0 -0.0445,-7.41e-4 -0.004,-0.0013 -0.009,-0.0028 -0.0124,-0.0042 -0.0243,-0.01086 -0.0401,-0.02448 -0.0668,-0.02797 -0.0554,-0.0094 -0.11136,-0.01509 -0.16676,-0.02374 -0.0388,-0.0072 -0.0826,-0.02669 -0.12147,-0.02374 -0.007,7.41e-4 -0.0158,0.0072 -0.023,0.0064 -0.0223,-0.0015 -0.0295,-0.02006 -0.0504,-0.02669 -0.0223,-0.0072 -0.0351,0.0079 -0.0567,0.01233 -0.0353,0.0079 -0.0727,-0.0072 -0.1086,0.0015 -0.0366,0.0099 -0.0747,0.03092 -0.10933,0.04675 -0.0272,0.01288 -0.0582,0.02153 -0.0841,0.0381 -0.009,0.0057 -0.0173,0.01215 -0.028,0.01638 -0.0281,0.01233 -0.0561,0.01657 -0.0755,0.04399 -0.0123,0.01583 -0.0202,0.02724 -0.0388,0.03295 -0.003,-0.0013 -0.006,-5.64e-4 -0.009,7.41e-4 -0.004,0.0037 -0.009,0.0079 -0.0136,0.0116 -0.0173,0.0064 -0.0223,-0.0015 -0.0361,0.01288 -0.009,0.0079 -0.0164,0.0116 -0.0265,0.01436 -0.0136,0.0052 -0.0166,0.0059 -0.008,0.02098 m 0.35302,1.253803 c 0.0317,0.0037 0.0633,0 0.0948,7.4e-4 0.0324,7.41e-4 0.0605,0.01362 0.0928,0.01933 0.0769,0.01583 0.15681,0.0079 0.23522,0.01877 0.0977,0.01362 0.19197,0 0.29044,0.0072 0.11927,0.0079 0.23798,-0.0173 0.35725,-0.02374 0.0663,-0.0042 0.13381,-0.005 0.20062,-0.0015 0.12148,0.0072 0.23946,0.03608 0.36167,0.03608 0.0856,-7.41e-4 0.17467,-0.0037 0.25879,-0.02301 0.0388,-0.0087 0.0554,-0.02448 0.0762,-0.05614 0.0267,-0.03884 0.0388,-0.05098 0.0893,-0.05098 0.0171,0 0.0351,7.41e-4 0.0525,0.0013 -0.0123,7.41e-4 -0.0223,-0.0028 -0.0339,-0.0042 -0.0245,-0.0042 -0.0495,-0.005 -0.074,-0.0072 -0.0697,-0.0064 -0.13804,-0.005 -0.20853,-0.0072 -0.0661,-0.0022 -0.14522,-0.0052 -0.2056,-0.03663 -0.0396,-0.02098 -0.0799,-0.0289 -0.12442,-0.03884 -0.12442,-0.02742 -0.24663,-0.03534 -0.37381,-0.03608 -0.11154,-7.41e-4 -0.22216,0.01233 -0.32725,0.05264 -0.0394,0.01435 -0.0733,0.03019 -0.11707,0.03147 -0.0468,0.0015 -0.0942,0 -0.14098,0 -0.11504,-5.64e-4 -0.23007,0 -0.34511,0 0.002,-0.02797 -0.0309,-0.03147 -0.064,-0.01859 -0.0265,0.01013 -0.0517,0.01583 -0.0797,0.02301 -0.0173,0.005 -0.0339,0.01215 -0.0517,0.01785 -0.0316,0.01086 -0.0856,0.0079 -0.10933,0.0324 0.002,0.03884 0.12222,0.06111 0.14596,0.06332 m 0.80598,0.599661 c 0.0144,0.02797 0.0653,0.0381 0.092,0.0381 0.0423,0 0.0777,7.4e-4 0.11854,0.01067 0.0361,0.0079 0.0675,0.0173 0.10435,0.01657 0.0151,0 0.0287,-0.0013 0.0431,0 0.0576,0.0044 0.11209,0.02448 0.17044,0.02669 0.0265,0.0015 0.0532,-0.0022 0.0797,7.41e-4 0.041,0.005 0.0813,0.01785 0.12239,0.02724 0.0841,0.01951 0.16676,0.02945 0.2529,0.03534 0.0455,0.0028 0.0915,0.0042 0.13675,7.41e-4 0.0416,-0.0037 0.0826,-0.01528 0.12424,-0.02245 0.14319,-0.02153 0.28915,-0.02227 0.43216,-0.04086 0.046,-0.0059 0.0935,-0.01086 0.13454,-0.03313 0.0201,-0.01086 0.0359,-0.02651 0.0596,-0.03092 0.0151,-0.0022 0.0626,0.0086 0.0698,-0.0072 -0.0223,-0.01362 -0.0512,-0.01086 -0.0742,-0.02301 -0.0359,-0.01804 -0.0661,-0.04104 -0.10344,-0.05743 -0.0675,-0.03037 -0.15387,-0.01454 -0.22731,-0.01454 -0.19767,0 -0.39387,0.0094 -0.59155,0.0094 -0.13878,0 -0.27756,7.41e-4 -0.41634,0 -0.005,0 -0.009,7.41e-4 -0.0136,7.41e-4 -0.002,-0.005 -0.0151,-0.01141 -0.0282,-0.01362 -0.0401,-0.0094 -0.0819,-0.005 -0.12295,-0.0057 -0.0747,0 -0.15019,-0.0059 -0.22215,0.01288 -0.0329,0.0086 -0.17467,0.0035 -0.14081,0.06976 m 0.56083,0.948267 c 0.0725,-0.0042 0.143,0.01657 0.21497,0.01877 0.0416,7.41e-4 0.0819,0.0035 0.12295,0.0094 0.0574,0.0079 0.10915,0.0079 0.16602,0.002 0.0784,-0.0079 0.14596,0.0094 0.22216,0.02025 0.10417,0.01436 0.21056,0.03295 0.31491,0.03368 0.0618,7.41e-4 0.12792,-0.005 0.18903,-0.01436 0.10142,-0.01436 0.20062,-0.0265 0.30351,-0.03092 0.30406,-0.01288 0.60886,-0.0173 0.9131,-0.01067 -0.0447,-0.0052 -0.0863,-0.0138 -0.12958,-0.02669 -0.0962,-0.02724 -0.19049,-0.06755 -0.28749,-0.09277 -0.0331,-0.0057 -0.0653,-0.01288 -0.0977,-0.02153 -0.021,-0.0087 -0.0425,-0.01436 -0.0655,-0.0173 -0.0215,-7.4e-4 -0.0416,0.0037 -0.0646,0.0015 -0.0791,-0.01013 -0.14743,-0.05098 -0.23007,-0.04601 -0.0381,0.0042 -0.0749,0.01141 -0.1108,0.0208 -0.0567,0.0116 -0.1143,0.0173 -0.17246,0.0173 -0.31566,0.0064 -0.63353,-0.0015 -0.94918,-0.0015 0.0756,-0.03663 0.0316,-0.03663 -0.0121,-0.03663 -0.0381,0 -0.0777,-0.0042 -0.1143,0.005 -0.0302,0.0079 -0.0504,0.02945 -0.0791,0.03884 -0.023,0.0086 -0.0532,0.0086 -0.0777,0.01086 -0.0374,0.0035 -0.0733,0.01362 -0.1086,0.02724 -0.0488,0.01804 -0.0891,0.04896 -0.13215,0.07694 0.0503,0.04252 0.12645,0.01877 0.1848,0.01583 m 1.21348,0.488857 c 0.0302,0.01509 0.0648,0.02448 0.0972,0.03681 0.0517,0.01932 0.0992,0.01436 0.1524,0.02006 0.0611,0.0064 0.11779,0.0086 0.17908,0.0022 0.0552,-0.0057 0.11209,-0.0029 0.16749,-0.0116 0.0646,-0.0094 0.12295,0.02025 0.18479,0.03534 0.0891,0.02227 0.1732,0.0265 0.26376,0.02724 0.0791,0.0015 0.14595,-0.01288 0.21995,-0.03884 0.0203,-0.0064 0.0383,-0.0072 0.0591,-0.0057 0.0532,0.0029 0.10491,0.0079 0.1581,0.0079 0.10639,0 0.21498,0.0035 0.31989,-0.01159 0.0806,-0.01068 0.16179,-0.02798 0.24167,-0.04381 0.0381,-0.0072 0.0755,-0.01657 0.11356,-0.02522 0.0339,-0.0079 0.0569,-0.0092 0.0734,-0.04086 0.0164,-0.0324 0.0157,-0.0727 0.0179,-0.107858 -0.13804,-0.0324 -0.28253,-0.03019 -0.41339,0.0265 -0.11577,0.05043 -0.23504,0.05835 -0.3602,0.05466 -0.0985,-0.0022 -0.19344,-0.01933 -0.29118,-0.0324 -0.14522,-0.01859 -0.29467,-0.01362 -0.44007,-0.01362 -0.11633,7.41e-4 -0.23357,-0.0015 -0.35008,0 -0.10785,7.41e-4 -0.21277,0.0173 -0.31989,0.01877 0.0265,-0.0116 -0.005,-0.01436 -0.0353,-0.0029 -0.0186,0.0072 -0.0329,0.02301 -0.0524,0.02945 -0.0129,0.0052 -0.028,0.0044 -0.0324,0.01951 -0.008,0.02503 0.0304,0.04804 0.0467,0.05595 m 0.52566,-2.790318 c -0.0834,0 -0.16749,-0.0015 -0.25086,0 -0.0836,7.41e-4 -0.16252,0.01436 -0.24462,0.02301 -0.074,0.0072 -0.15313,-0.005 -0.22491,0.01436 -0.0517,0.01454 -0.0985,0.04178 -0.15167,0.0519 -0.041,0.0035 -0.0828,0.005 -0.12368,0.0042 -0.0388,0.0029 -0.0769,0.0116 -0.11356,0.02522 -0.0705,0.01509 -0.13676,0.01215 -0.20725,0 -0.0525,-0.01233 -0.10565,-0.0208 -0.15884,-0.02522 -0.0309,0.0015 -0.0611,0 -0.0913,-0.0042 -0.069,-0.0072 -0.1351,-0.03019 -0.20486,-0.03239 -0.0539,-0.0022 -0.10712,0.0079 -0.16105,0.0094 -0.10362,0.0013 -0.20706,-0.02669 -0.30995,-0.0116 -0.0747,0.01086 -0.14374,0.01583 -0.21994,0.01288 -0.0668,-0.0035 -0.1316,-0.005 -0.19768,0.0066 -0.0361,0.0087 -0.072,0.01362 -0.10859,0.01583 -0.0388,-0.0044 -0.0777,-0.01233 -0.11504,-0.02172 -0.0497,-0.0079 -0.0791,0 -0.12663,0.0044 -0.0539,0.005 -0.10565,-0.01509 -0.15884,-0.0173 -0.018,0.03957 0.11209,0.06553 0.1351,0.07049 0.10141,0.02153 0.19638,0.06534 0.29559,0.09497 0.11209,0.03221 0.23007,0.03074 0.34511,0.02871 0.0863,-0.0022 0.17191,-0.0044 0.25455,-0.03166 0.21277,-0.06976 0.44431,-0.04252 0.65929,0.0022 0.21921,0.04601 0.44431,0.05522 0.66646,0.03589 0.0942,-0.0079 0.18829,-0.03092 0.28253,-0.03387 0.0891,-0.0028 0.17761,-0.01068 0.26523,-0.02798 0.0381,-0.0079 0.0756,-0.01877 0.11374,-0.02669 0.0552,-0.01141 0.11209,-0.01141 0.16823,-0.01638 0.11283,-0.0086 0.22216,-0.0289 0.33277,-0.04822 0.13455,-0.02301 0.284,-0.01657 0.41928,-0.0015 0.0725,0.0086 0.14302,0.0094 0.21553,0.0094 0.0447,0 0.0843,0 0.12737,-0.0094 0.0265,-0.0057 0.051,-0.0087 0.0777,-0.0094 0.0129,-7.41e-4 0.0711,0.0094 0.0834,-0.0086 -0.006,-0.0085 -0.0136,-0.02153 -0.0215,-0.02798 -0.0166,-0.01288 -0.0453,-0.01086 -0.0655,-0.01436 -0.0329,-0.005 -0.0661,-0.01362 -0.0992,-0.02227 -0.0675,-0.01804 -0.13878,-0.03019 -0.20927,-0.02871 -0.0545,0.0013 -0.10492,0.01638 -0.16032,0.0092 -0.0488,-0.0064 -0.0948,-0.02577 -0.14301,-0.02724 -0.0245,-7.41e-4 -0.0497,0.0029 -0.074,0.0015 -0.0144,-7.41e-4 -0.0289,-0.0059 -0.0418,-0.0094 -0.006,-0.0022 -0.0475,-0.0208 -0.0596,-0.01933 -0.0109,0.002 -0.0173,0.01067 -0.0295,0.01141 -7.1e-4,0.0022 -7.1e-4,0.005 0.12718,0.02595 -0.16675,0.01288 -0.32927,0.01859 -0.49603,0.01785 m 1.71909,1.484059 c -0.0388,-0.04325 -0.0992,-0.03019 -0.15038,-0.03019 -0.0158,0 -0.0316,-7.41e-4 -0.046,-0.0015 0.002,-0.0064 0.005,-0.01288 0.008,-0.01951 -0.0136,0 -0.0272,0 -0.0403,0 -0.0495,-5.65e-4 -0.0977,-0.0092 -0.14522,-0.01436 -0.0445,-0.005 -0.35007,-0.01509 -0.24295,-0.04233 0.0302,-0.0072 0.0712,-0.0072 0.0992,-0.01362 0.0497,-0.01233 0.0898,-0.03166 0.1373,-0.04399 0.0274,-0.0072 0.0289,-0.0064 0.0683,-0.0064 0.0576,0 0.0935,-0.0087 0.14743,-0.01288 0.007,-7.41e-4 0.0158,-0.0015 0.026,-0.0022 0.005,-0.02374 0.009,-0.04749 0.0107,-0.07178 0.0195,-0.0044 0.0388,-0.0094 0.0583,-0.01233 0.0223,-0.0035 0.0329,-0.02301 0.0532,-0.02871 0.0101,-0.0037 0.0186,7.41e-4 0.0272,-0.0064 0.023,-0.0173 0.005,-0.03884 -0.0144,-0.04454 -0.0201,-0.0066 -0.0403,-0.0086 -0.0596,-0.02098 -0.0144,-0.0099 -0.0287,-0.02227 -0.0438,-0.03239 -0.007,-0.005 -0.0131,-0.01141 -0.0188,-0.01712 v -0.0052 c -0.002,-0.0013 -0.005,-0.002 -0.007,-0.0035 -0.0223,-0.01086 -0.0403,-0.01877 -0.0641,-0.02595 -0.0337,-0.0099 -0.0618,-0.0208 -0.097,-0.02503 -0.026,-0.0029 -0.0339,-0.01454 -0.0445,-0.03828 0.0114,-5.65e-4 0.0166,-0.0092 0.0265,-0.01288 0.0116,-0.0028 0.0166,-0.0028 0.0281,-0.0094 0.0201,-0.01141 0.0416,-0.01436 0.0639,-0.02006 0.0195,-0.005 0.0482,-0.01878 0.0648,-0.02945 0.0158,-0.01086 0.023,-0.01657 0.0351,-0.01877 0.006,-0.0042 0.0116,-0.0079 0.0188,-0.01068 0.0107,-0.0059 0.0215,-0.0079 0.0295,-0.01804 0.0475,-0.06332 -0.0467,-0.097 -0.0812,-0.116509 -0.018,-0.01068 -0.0317,-0.02724 -0.0504,-0.03663 -0.0302,-0.03166 -0.0683,-0.05743 -0.10933,-0.08264 -0.0157,-0.01012 -0.0322,-0.0173 -0.0488,-0.02595 -0.008,-0.0015 -0.0173,-0.0035 -0.026,-0.0042 -0.0151,-0.0029 -0.0316,-0.0029 -0.0475,-0.0052 -0.0238,-0.0035 -0.0473,-0.01067 -0.0718,-0.01215 -0.0346,-0.0029 -0.072,0.0015 -0.0878,-0.02227 -0.0107,-0.01509 -0.001,-0.01657 0.0215,-0.02301 0.005,-7.4e-4 0.0109,-0.0015 0.0158,-0.0029 -0.0193,-0.005 -0.0396,-0.0094 -0.0604,-0.01362 -0.0668,-0.01436 -0.1316,-0.0173 -0.19915,-0.01804 -0.0554,0 -0.10933,-7.41e-4 -0.16031,0.02448 -0.002,0.0015 -0.005,0.0029 -0.007,0.0044 0.0223,0.005 0.0445,0.0092 0.0668,0.01215 0.0123,0.0022 0.069,0.0064 0.072,0.02724 -0.0396,0.01454 -0.0942,-0.01712 -0.12718,0.01307 -7.1e-4,0.005 -10e-4,0.0099 -0.003,0.01436 -0.007,0.0042 -0.0151,0.0072 -0.023,0.0094 -0.0267,0.0087 -0.0596,0.0028 -0.0834,0.01288 -0.0173,0.0079 -0.0123,0.02669 -0.021,0.03589 -0.0129,0.01509 -0.0374,0.0086 -0.0574,0.0086 h -0.0166 c -0.004,0.0037 -0.009,0.0064 -0.0136,0.01012 -0.0144,-7.41e-4 -0.028,-7.41e-4 -0.0418,-7.41e-4 -0.0208,0 -0.0618,-0.0086 -0.0812,0.0015 -0.008,0.0035 -0.008,0.01436 -0.0195,0.0173 -0.0114,0.0028 -0.0257,-0.0086 -0.0295,0.0079 -0.002,0.01215 0.0166,0.0265 0.0245,0.03221 0.008,0.0059 0.023,0.0079 0.0366,0.01233 -0.0517,0.03221 -0.10196,0.06829 -0.14227,0.112828 -0.0136,0.0057 -0.028,0.01141 -0.0418,0.0173 -0.0409,0.01712 -0.0797,0.01362 -0.12295,0.0208 -0.0121,0.01933 0.0591,0.03313 0.1108,0.04031 -0.0116,0.02227 -0.0223,0.04528 -0.0324,0.06755 0.0123,0.005 0.0252,0.0094 0.0381,0.01086 0.0346,0.0042 0.072,-0.0029 0.0878,0.03865 0.0107,0.02595 0.001,0.0289 -0.0215,0.03884 -0.0368,0.01657 -0.0749,0.02172 -0.11429,0.02595 -0.0138,0.0015 -0.0267,0.0015 -0.0396,0.0022 -0.004,0.01657 -0.004,0.03166 -0.004,0.04804 -0.0258,0.01012 -0.0495,0.01159 -0.0804,0.01159 -0.0188,0 -0.046,0 -0.046,0.02522 0.023,0.0079 0.0438,0.02301 0.0653,0.03663 0.0136,0.0015 0.0267,0.0029 0.0353,0.0022 0.0438,0 0.0812,0.005 0.12424,0.01435 0.0123,0.0028 0.0245,0.0028 0.0368,0.005 0.006,0.0015 0.006,0.0072 0.0129,0.0094 0.0114,0.0022 0.0265,-0.0022 0.0381,-7.4e-4 0.0129,7.4e-4 0.0151,0.0035 0.0265,0.0072 0.0153,0.0037 0.0296,-7.41e-4 0.0447,0.0029 0.0151,0.0042 0.028,0.01657 0.0431,0.02153 0.0302,0.01013 0.0596,0.0035 0.0906,0.01436 0.0353,0.01288 0.0576,0.0072 0.092,0.0015 0.021,-0.0037 0.0237,0.0015 0.0418,0.01436 0.006,0.0042 0.01,0.0094 0.0158,0.01086 -0.0697,-0.0029 -0.13804,-0.01454 -0.20706,-0.0015 -0.0663,0.01215 -0.13087,0.01141 -0.19841,0.01141 -0.0188,0 -0.0376,0 -0.0561,0 -0.0109,0 -0.0215,7.41e-4 -0.0316,7.41e-4 -0.0109,-7.41e-4 -0.0215,-0.0035 -0.0331,-0.0064 0.003,0.01012 0.004,0.01859 0.009,0.02871 -0.0324,0.0057 -0.0639,0.0029 -0.0935,0.01804 -0.0158,0.0086 -0.0416,0.01859 -0.0545,0.03019 0.0136,0.0094 0.0344,0.01141 0.0488,0.01583 0.0366,0.01068 0.0734,0.02153 0.11006,0.03368 -0.002,0.0324 -0.14669,-0.01712 -0.1697,-0.0099 0.0151,0.02374 0.028,0.03663 0.0539,0.04528 0.0567,0.02006 0.11798,0.0381 0.17246,0.06184 0.008,0.0028 0.0158,0.0079 0.023,0.01362 0.009,0.01583 0.0188,0.03092 0.0289,0.04528 -0.0144,-7.41e-4 -0.0281,-0.0022 -0.0374,-0.0022 -0.0504,-0.0035 -0.10785,-0.01509 -0.15902,-0.0064 -0.0193,0.0029 -0.0423,0.0094 -0.0589,0.02153 -0.0101,0.0079 -0.0166,0.0173 -0.028,0.02245 -0.0116,0.0057 -0.0324,0.01436 -0.0433,0.01712 -0.0388,0.01086 -0.0747,-0.01786 -0.11282,-0.01509 0.0158,0.01086 0.0475,0.01307 0.0641,0.01877 0.0359,0.01141 0.0718,0.02522 0.10638,0.03957 0.0324,0.01362 0.0381,0.02227 0.071,0.02301 0.0368,0 0.0712,0.01215 0.10712,0.0208 0.0116,0.0022 0.0217,0.0035 0.0331,0.005 0.006,7.4e-4 0.0129,0.0029 0.0195,0.0029 0.0144,0 0.0344,0.0028 0.048,0 0.009,-0.0022 0.0158,-0.0094 0.0237,-0.01086 0.0202,-0.0035 0.0396,0.0059 0.0584,0.0173 h 0.007 c 0.046,0 0.0906,-0.0042 0.13657,-0.0064 0.0114,0 0.0245,0.0015 0.0359,-0.0037 0,-0.002 0,-0.0057 0,-0.0079 0.0252,-0.005 0.041,7.41e-4 0.0611,0.0059 0.0324,0.0072 0.0799,0.01785 0.10712,0.0381 0.026,0.01933 -0.003,0.03295 -0.0201,0.0381 -0.0201,0.0064 -0.0388,0.0092 -0.0576,0.02301 -0.0129,0.0092 -0.0243,0.02153 -0.0359,0.03295 0.0208,0.01233 0.0381,0.02301 0.0648,0.02448 0.0661,0.0029 0.13215,-0.0035 0.19841,-0.0015 0.003,0 0.006,7.41e-4 0.01,7.41e-4 0.0151,0.0086 0.0383,0.0086 0.0584,0.0072 0.0107,0.0015 0.0208,0.0037 0.0309,0.0052 0.0129,0.0028 0.0201,0.005 0.0331,0.0015 0.023,-0.0052 0.0473,-0.01583 0.071,-0.02595 0.0173,-0.0022 0.0346,-0.0037 0.0517,-0.0037 0.0383,-7.41e-4 0.0692,-0.002 0.1051,-0.01638 0.0467,-0.01804 0.0955,-0.01804 0.13086,-0.05761 0.003,-0.0029 0.004,-0.0057 0.006,-0.0079 -0.0173,0.0072 -0.0331,0 -0.0532,-0.0015 -0.041,-0.0028 -0.0777,0.0052 -0.11945,-0.0072 -0.0409,-0.01215 -0.0755,-0.01509 -0.11779,-0.01141 -0.009,0 -0.0215,0.0042 -0.0295,0.002 -0.0195,-0.0057 -0.0331,-0.03884 -0.0512,-0.05098 -0.0171,-0.01215 -0.0388,-0.02448 -0.0574,-0.0324 -0.0124,-0.005 -0.0734,-0.01141 -0.0418,-0.03092 0.0144,-0.0086 0.0576,-0.002 0.0747,-0.0028 0.0633,-0.0029 0.11798,-0.0346 0.17982,-0.04031 0.0769,-0.0072 0.14522,0.01288 0.22069,0.02448 0.0346,0.0057 0.0698,0.0057 0.10509,0.0064 0.006,-0.0064 0.0114,-0.01288 0.0164,-0.02006 0.009,-0.01086 0.0151,-0.01657 0.0281,-0.02025 0.0166,-0.005 0.0374,-0.0042 0.0547,-0.0035 0.008,0 0.11283,0.0013 0.11135,-0.0015 -0.005,-0.01086 -0.0453,-0.0173 -0.0569,-0.0208 0.009,-0.01657 0.0554,-0.02669 0.0734,-0.03166 0.0166,-0.0052 0.0431,0 0.0569,-0.01509 0.0215,-0.02522 -0.023,-0.05264 -0.0396,-0.07049 m 0.0856,-1.180547 c 0.0309,0.0028 0.0616,0.0208 0.0906,0.03166 0.0396,0.01435 0.0639,0.01435 0.10491,0.01509 0.0374,0 0.0727,0.0079 0.10933,0.01362 0.0482,0.0079 0.092,0.01141 0.13289,-0.01951 0.0302,-0.02375 0.0569,-0.03884 0.0957,-0.04233 0.0547,-0.0057 0.11577,0.005 0.17117,0.0029 0.0826,-0.0029 0.16381,-0.01951 0.2459,-0.02025 0.10712,-7.41e-4 0.21277,-0.01141 0.32063,-0.01583 0.0977,-0.0035 0.19547,0.0052 0.29338,0 0.0144,-7.4e-4 0.0812,-0.0028 0.0755,-0.03957 -0.002,-0.01583 -0.0195,-0.0208 -0.0309,-0.02724 -0.0346,-0.01877 -0.0683,-0.04031 -0.10362,-0.05761 -0.0366,-0.01712 -0.0574,-0.01509 -0.0955,-0.01565 -0.0821,-7.4e-4 -0.16399,0.0077 -0.24314,0.02798 -0.11926,0.03092 -0.24221,0.01859 -0.36369,0.0094 -0.17044,-0.01454 -0.34161,-0.0087 -0.51259,-0.01804 0.0208,-0.0064 0.023,-0.0064 -0.0151,-7.41e-4 0.005,7.41e-4 0.01,7.41e-4 0.0151,7.41e-4 -0.0101,0.0035 -0.0252,0.0087 -0.0418,0.01583 -0.0114,0.0042 -0.0223,0.01436 -0.0331,0.01859 -0.0151,0.0066 -0.0366,0.0022 -0.0525,0.0015 -0.0517,0 -0.10491,-0.0042 -0.15534,0.0094 -0.0386,0.01012 -0.13142,0.005 -0.10915,0.06755 0.009,0.02522 0.0374,0.03019 0.0596,0.03736 0.0144,0.0052 0.0272,0.0029 0.0418,0.0052 m 0.2897,0.916609 c 0.0388,0.0029 0.0747,0.0052 0.10933,0.02227 0.0107,0.0052 0.0208,0.0116 0.0315,0.01657 0.0605,0.02871 0.12663,0.02301 0.19068,0.01436 0.0517,-0.0072 0.1027,-0.01362 0.15516,-0.0099 0.046,0.0028 0.0885,0.0092 0.13381,0.002 0.0898,-0.01436 0.17614,-0.01288 0.26743,-0.01288 0.0431,0 0.0878,0.0035 0.13013,7.4e-4 0.0188,-0.0022 0.0351,-0.0094 0.0539,-0.01086 0.0114,0 0.0245,0.0044 0.0351,0 -0.0287,-0.03515 -0.0841,-0.04804 -0.12423,-0.06184 -0.0302,-0.01068 -0.0633,-0.02871 -0.095,-0.03515 -0.0208,-0.0042 -0.0352,0.0042 -0.0561,0.0064 -0.0539,0.0044 -0.11062,-7.41e-4 -0.16529,-7.41e-4 l 0.14743,0.01804 c -0.10859,0 -0.22013,0.0086 -0.32798,-0.0029 -0.0977,-0.0099 -0.194,-0.03295 -0.29192,-0.04233 -0.0906,-0.0087 -0.17246,-0.01012 -0.26228,0.0015 -0.002,0.01933 -0.0173,0.02503 -0.0202,0.04381 -0.0114,0.05614 0.0532,0.04749 0.0885,0.05098 m -0.53284,-3.679686 c -0.0359,-0.0878 -0.069,-0.179088 -0.1316,-0.251607 -0.0559,-0.06479 -0.1143,-0.122951 -0.18038,-0.176144 -0.0467,-0.0381 -0.0999,-0.07767 -0.15534,-0.09994 -0.0302,-0.01233 -0.0641,-0.02945 -0.0948,-0.03608 -0.0131,-0.0028 -0.0202,-0.0013 -0.0331,7.41e-4 -0.0331,0.0072 -0.0655,0.01307 -0.0992,0.0138 -0.0663,0.002 -0.13233,-0.0044 -0.19841,-0.0015 -0.0339,0.0015 -0.0519,0.01785 -0.0799,0.03368 -0.0287,0.01657 -0.0604,0.0289 -0.0884,0.04602 -0.0353,0.02172 -0.0648,0.0519 -0.0957,0.07915 -0.0675,0.0589 -0.13877,0.140252 -0.1754,0.222893 -0.023,0.05099 -0.0445,0.104177 -0.0668,0.156082 -0.026,0.06111 -0.0289,0.110618 -0.0281,0.177615 0,0.05522 -0.004,0.09332 0.0223,0.14375 0.0252,0.04804 0.0447,0.09994 0.0712,0.146694 0.0547,0.09774 0.15388,0.160314 0.24738,0.214244 0.0935,0.05393 0.16896,0.134362 0.26669,0.183321 0.051,0.02522 0.10491,0.02448 0.16032,0.02448 0.0675,0 0.13233,-0.0044 0.19915,-0.01804 0.10785,-0.02227 0.21074,-0.05098 0.30479,-0.109331 0.0756,-0.04749 0.14541,-0.09405 0.16326,-0.18553 0.0215,-0.110619 0.0245,-0.222894 0.0245,-0.335722 0,-0.08043 -10e-4,-0.153136 -0.0324,-0.2286 m -5.54819,2.863021 c 0.0129,-0.06479 0.0423,-0.121478 0.0302,-0.195653 -0.0123,-0.07325 0.0344,-0.14375 0.0784,-0.207802 v 0.04325 c 0.005,7.41e-4 0.01,7.41e-4 0.0151,0.0013 0.002,-0.03442 0.0107,-0.07105 0.005,-0.104176 -0.0188,-0.110067 -0.0438,-0.219213 -0.0633,-0.328544 -0.006,-0.03092 -0.004,-0.06552 0.003,-0.09571 0.0245,-0.101232 0.0517,-0.201175 0.0804,-0.301855 0.023,-0.08264 0.0467,-0.166204 0.0755,-0.247374 0.0166,-0.04896 0.0425,-0.09424 0.067,-0.140252 0.009,-0.01859 0.0265,-0.03295 0.0396,-0.05025 0.006,-0.0079 0.009,-0.01657 0.0121,-0.02595 0.0188,-0.05098 -0.023,-0.104913 0.006,-0.156634 0.009,-0.01804 0.0144,-0.03884 0.0173,-0.05908 0.008,-0.05743 0.0121,-0.115036 0.0193,-0.172462 7.1e-4,-0.01012 0.004,-0.0208 0.009,-0.02871 0.0317,-0.04399 0.0648,-0.08706 0.0957,-0.131601 0.006,-0.0079 0.003,-0.02098 0.004,-0.03608 0.0727,-0.0646 0.10491,-0.166021 0.18056,-0.239276 0.0676,-0.06552 0.11135,-0.157553 0.16528,-0.23725 0.0359,-0.05264 0.0734,-0.104361 0.10786,-0.157554 0.0309,-0.04602 0.0806,-0.07767 0.0849,-0.144485 0.003,-0.03663 0.0423,-0.07473 0.0725,-0.103625 0.0626,-0.05816 0.13031,-0.109883 0.19491,-0.164548 0.001,0.01013 0.003,0.02153 0.004,0.0324 0.004,0.002 0.008,0.0035 0.0114,0.0057 0.026,-0.03884 0.0517,-0.07694 0.0777,-0.115036 0.0173,-0.02448 0.0352,-0.04822 0.0532,-0.0727 0.0129,-0.01785 0.026,-0.03515 0.0388,-0.05393 0.0208,-0.03092 0.0403,-0.0624 0.0618,-0.09332 0.007,-0.01012 0.0173,-0.01877 0.0252,-0.0289 0.0309,-0.041597 0.0604,-0.084115 0.0941,-0.1229508 0.008,-0.00994 0.0294,-0.010675 0.0453,-0.012884 0.023,-0.00293 0.0475,7.409e-4 0.069,-0.0057 0.0913,-0.026688 0.18277,-0.053193 0.27186,-0.085587 0.0366,-0.012883 0.0725,-0.035891 0.0999,-0.06258 0.0849,-0.081906 0.19123,-0.1380433 0.27167,-0.2285999 0.0418,-0.047487 0.11006,-0.073991 0.16896,-0.104913 0.0663,-0.034604 0.13454,-0.064052 0.20209,-0.094237 0.0374,-0.016567 0.074,-0.0381 0.11283,-0.043806 0.0769,-0.010858 0.1546,-0.010858 0.23154,-0.018038 0.0885,-0.00865 0.18056,-0.00148 0.2632,-0.04675 0.0883,-0.04896 0.18479,-0.039573 0.27884,-0.041045 0.007,0 0.0158,7.408e-4 0.0203,0.00515 0.0423,0.039572 0.0913,0.023008 0.13805,0.014355 0.007,-0.00148 0.0107,-0.018775 0.0186,-0.033129 0.0217,-0.00275 0.0497,-0.00939 0.0769,-0.010675 0.0598,-7.409e-4 0.11872,0.00201 0.17762,0.00275 0.0618,7.409e-4 0.12368,0.00589 0.18479,7.409e-4 0.0576,-0.00423 0.1143,-0.019325 0.17117,-0.030187 7.1e-4,0 10e-4,-0.00293 0.003,-0.00349 0.023,-0.00148 0.049,-0.011596 0.069,-0.00442 0.0534,0.018038 0.10657,0.038836 0.15535,0.06755 0.0252,0.014355 0.0655,0.022271 0.0648,0.066997 0,0.00644 0.0107,0.014355 0.0178,0.018588 0.0296,0.016566 0.0598,0.032396 0.09,0.047487 -7.1e-4,-0.00497 -7.1e-4,-0.00939 -10e-4,-0.013621 0.009,-0.00222 0.0186,-0.00718 0.026,-0.0057 0.0431,0.0092 0.0861,0.021534 0.13013,0.02945 0.0171,0.00275 0.0366,-0.00718 0.0545,-0.00515 0.0677,0.011596 0.13528,0.02595 0.20283,0.039573 0.0826,0.015829 0.16602,0.031658 0.24884,0.047487 0.0114,0.00293 0.0236,0.010858 0.0337,0.00939 0.0769,-0.010858 0.14173,0.030187 0.21222,0.045278 0.0121,0.00222 0.0223,0.018588 0.033,0.028713 -0.002,0.00148 -0.004,0.00368 -0.006,0.0057 l -0.0648,-0.0208 -0.004,0.012146 c 0.0445,0.030921 0.0891,0.061291 0.13455,0.091477 0.002,-0.00663 0.004,-0.013067 0.006,-0.018775 0.0166,7.408e-4 0.0344,-0.00293 0.0475,0.00423 0.0388,0.021721 0.0755,0.047487 0.11209,0.071967 0.0611,0.040309 0.11853,0.085587 0.18258,0.1194537 0.0453,0.024296 0.10289,0.027242 0.14964,0.050248 0.10988,0.055401 0.21921,0.1120913 0.29118,0.2199491 0.0265,0.03884 0.0567,0.07546 0.0913,0.120926 0.008,-0.01583 0.0121,-0.02448 0.0151,-0.03037 0.0826,0.06976 0.11356,0.167677 0.16528,0.251055 0.0468,0.07694 0.0957,0.154609 0.15755,0.217741 0.0762,0.0762 0.16823,0.136755 0.25014,0.207801 0.0812,0.06976 0.0964,0.172647 0.12147,0.268909 0.009,0.03957 0.0188,0.07915 0.0282,0.118717 0.004,-0.0015 0.009,-0.0022 0.0136,-0.0037 -7e-4,-0.01141 -0.003,-0.02301 -0.004,-0.03515 0.0195,0.01932 0.0267,0.04307 0.0396,0.06332 0.0274,0.04307 0.0569,0.0854 0.0856,0.127184 0.007,0.01086 0.0186,0.01933 0.026,0.03019 0.046,0.06755 0.0913,0.135835 0.13583,0.204121 0.007,0.01233 0.0107,0.02816 0.0144,0.04178 0.018,0.07694 0.0331,0.154608 0.0539,0.230072 0.0186,0.07049 0.0438,0.13878 0.0668,0.207802 l 0.0109,-0.0029 c 0.002,-0.0072 0.004,-0.01436 0.006,-0.01785 0.008,0.04307 0.0201,0.08761 0.0245,0.13289 0.006,0.05761 0.003,0.116509 0.008,0.174119 0.006,0.0589 -0.006,0.120742 0.0258,0.177432 0.018,0.03166 0.0339,0.067 0.0396,0.102888 0.026,0.155345 0.0453,0.310506 0.12663,0.451494 0.0589,0.101416 0.0626,0.217189 0.0431,0.328544 -0.0329,0.182585 -0.0653,0.366643 -0.13731,0.539289 -0.005,0.01012 -0.0158,0.0173 -0.0223,0.02724 -0.0245,0.03608 -0.0475,0.07344 -0.0712,0.110803 0.002,0.0015 0.005,0.0035 0.008,0.0057 0.009,-0.0042 0.0173,-0.0079 0.026,-0.01215 -0.0396,0.05319 -0.0468,0.11927 -0.0287,0.168229 0.0208,0.05614 0.0193,0.09847 -0.005,0.146694 -0.002,-0.0044 -0.005,-0.0086 -0.0129,-0.02301 -0.004,0.0416 -0.007,0.07399 -0.009,0.105649 -0.004,0.03442 -0.004,0.06902 -0.01,0.102888 -0.0324,0.189764 -0.1086,0.365171 -0.17485,0.544812 -0.0668,0.180561 -0.18682,0.328727 -0.28253,0.491066 -0.051,0.08559 -0.12001,0.163996 -0.20485,0.225839 -0.0942,0.06902 -0.1905,0.136571 -0.25676,0.240932 -0.0467,0.07399 -0.11927,0.132154 -0.18406,0.193261 -0.10344,0.09718 -0.2078,0.192709 -0.31566,0.284002 -0.16749,0.14246 -0.33056,0.293388 -0.55934,0.334433 -0.0151,0.0028 -0.0309,7.4e-4 -0.0466,0.0035 -0.0534,0.0086 -0.11007,0.0116 -0.15976,0.03166 -0.0495,0.02153 -0.0928,0.06111 -0.13878,0.09129 -0.008,0.0052 -0.0193,0.0044 -0.0287,0.0059 -0.0151,0.0028 -0.0337,5.64e-4 -0.0445,0.0085 -0.0906,0.06479 -0.18479,0.118717 -0.29338,0.148167 -0.0777,0.0208 -0.1524,0.05025 -0.22786,0.07694 -0.0252,0.0094 -0.0482,0.03166 -0.0727,0.0324 -0.0933,0.0022 -0.17614,0.04381 -0.26522,0.06184 -0.13086,0.02724 -0.26026,0.06258 -0.38817,-0.01362 -0.0138,-0.0087 -0.0368,-0.0037 -0.0547,-0.0015 -0.0188,0.0015 -0.0374,0.01215 -0.0547,0.0099 -0.17191,-0.0208 -0.34364,-0.04381 -0.51555,-0.06608 -0.0863,-0.01086 -0.17319,-0.0208 -0.25952,-0.03166 -0.0683,-0.0086 -0.1373,-0.01583 -0.20485,-0.02798 -0.0856,-0.01509 -0.1697,-0.03534 -0.25455,-0.05246 -0.005,-7.41e-4 -0.009,0 -0.0136,-7.41e-4 -0.0396,-0.0064 -0.0849,-0.0029 -0.11871,-0.02098 -0.10215,-0.05393 -0.19989,-0.1143 -0.29909,-0.173199 -0.0302,-0.01804 -0.0561,-0.05246 -0.0977,-0.0208 -0.004,0.0028 -0.0173,-0.0044 -0.0245,-0.0079 -0.10289,-0.05319 -0.21424,-0.07915 -0.32707,-0.09645 -0.0799,-0.01215 -0.1143,-0.07473 -0.16031,-0.126448 -0.004,-0.005 -10e-4,-0.01657 -0.003,-0.03166 0.0158,0.01436 0.0272,0.02448 0.0388,0.03442 0.004,-0.002 0.007,-0.0042 0.0101,-0.0064 -0.0116,-0.02006 -0.0195,-0.04528 -0.0368,-0.05964 -0.0703,-0.0589 -0.13933,-0.11927 -0.20909,-0.178352 -0.10215,-0.08835 -0.18203,-0.202648 -0.30553,-0.267436 -0.0475,-0.02503 -0.0836,-0.07105 -0.12516,-0.106386 -0.009,-0.0079 -0.0203,-0.01141 -0.0309,-0.01509 -0.0942,-0.03589 -0.18479,-0.07694 -0.23007,-0.178352 -0.0388,-0.08687 -0.0769,-0.173934 -0.12222,-0.258049 -0.0215,-0.04105 -0.0547,-0.07767 -0.0878,-0.110067 -0.13584,-0.128656 -0.28032,-0.249398 -0.36738,-0.422044 -0.0295,-0.05964 -0.0705,-0.113564 -0.10565,-0.17099 -0.0101,-0.0173 -0.0195,-0.03608 -0.0267,-0.0554 -0.0309,-0.08264 -0.0639,-0.163995 -0.0891,-0.24811 -0.0237,-0.07767 -0.0396,-0.158105 -0.0561,-0.237987 -0.0129,-0.0589 -0.0179,-0.120005 -0.033,-0.178168 -0.021,-0.07915 -0.0611,-0.155345 -0.069,-0.23449 -0.007,-0.08191 -0.0245,-0.159578 -0.0433,-0.237986 -0.007,-0.0324 -0.0251,-0.06681 -0.0186,-0.09626"
       style="fill:#21201d;fill-opacity:1;fill-rule:evenodd;stroke:none;stroke-width:0.184057"
       id="path580" />
  </g>
</svg>
