<?xml version="1.0" encoding="UTF-8" standalone="no"?>
<!-- Created with Inkscape (http://www.inkscape.org/) -->

<svg
   width="3.5559294mm"
   height="3.5559294mm"
   viewBox="0 0 3.5559294 3.5559294"
   version="1.1"
   id="svg1743"
   inkscape:version="1.1.2 (0a00cf5339, 2022-02-04)"
   sodipodi:docname="rset.svg"
   xmlns:inkscape="http://www.inkscape.org/namespaces/inkscape"
   xmlns:sodipodi="http://sodipodi.sourceforge.net/DTD/sodipodi-0.dtd"
   xmlns="http://www.w3.org/2000/svg"
   xmlns:svg="http://www.w3.org/2000/svg">
  <sodipodi:namedview
     id="namedview1745"
     pagecolor="#ffffff"
     bordercolor="#666666"
     borderopacity="1.0"
     inkscape:pageshadow="2"
     inkscape:pageopacity="0.0"
     inkscape:pagecheckerboard="0"
     inkscape:document-units="mm"
     showgrid="false"
     inkscape:zoom="0.64052329"
     inkscape:cx="694.74445"
     inkscape:cy="422.31095"
     inkscape:window-width="2560"
     inkscape:window-height="1376"
     inkscape:window-x="0"
     inkscape:window-y="0"
     inkscape:window-maximized="1"
     inkscape:current-layer="layer1" />
  <defs
     id="defs1740">
    <clipPath
       clipPathUnits="userSpaceOnUse"
       id="clipPath594">
      <path
         d="m 312,604.08 h 10.08 v 10.08 H 312 Z"
         id="path592" />
    </clipPath>
  </defs>
  <g
     inkscape:label="Layer 1"
     inkscape:groupmode="layer"
     id="layer1"
     transform="translate(79.022745,-36.637895)">
    <g
       id="g588"
       transform="matrix(0.35277777,0,0,-0.35277777,-189.08948,253.29982)">
      <g
         id="g590"
         clip-path="url(#clipPath594)">
        <g
           id="g596"
           transform="translate(319.7352,609.6978)">
          <path
             d="m 0,0 c -0.013,-0.332 -0.216,-1.35 -0.428,-1.487 -0.388,-0.252 -0.593,-0.836 -0.713,-1.253 -0.127,-0.438 -0.387,-0.805 -0.544,-1.232 -0.061,-0.167 -0.128,-0.352 -0.3,-0.448 -0.212,-0.118 -0.506,-0.086 -0.739,-0.071 -0.004,0 -0.008,0 -0.012,10e-4 -0.004,-10e-4 -0.007,-10e-4 -0.011,-10e-4 -0.234,-0.015 -0.527,-0.047 -0.739,0.071 -0.172,0.096 -0.239,0.281 -0.3,0.448 -0.157,0.427 -0.417,0.794 -0.544,1.232 -0.121,0.417 -0.325,1.001 -0.713,1.253 -0.212,0.137 -0.415,1.155 -0.428,1.487 -0.01,0.253 0,0.508 0.039,0.758 -0.014,0.342 0.013,0.686 0.079,1.021 l 0.051,-0.048 c 0.107,0.175 0.213,0.351 0.32,0.526 l 0.022,0.118 c 0.059,-0.096 0.084,-0.204 0.086,-0.316 0.004,0.004 0.008,0.009 0.012,0.014 0.018,-0.132 0.03,-0.252 0.026,-0.32 C -4.84,1.682 -4.9,1.107 -5.009,1.099 c 0.848,0.059 1.623,-0.361 1.96,-0.908 0.022,0.279 -0.378,0.625 -0.696,0.795 -0.318,0.169 -0.614,0.205 -0.992,0.294 0.069,0.239 0.076,0.627 -0.009,0.956 0.018,0.136 0.147,0.363 0.193,0.477 0.031,-0.045 0.102,-0.122 0.152,-0.183 0.006,0.006 0.013,0.011 0.019,0.016 -0.007,0.092 0.046,0.231 0.061,0.382 0.064,-0.05 0.138,-0.146 0.206,-0.198 0.062,0.038 0.125,0.073 0.189,0.106 0.039,0.14 0.156,0.239 0.204,0.365 0.045,-0.091 0.117,-0.148 0.218,-0.191 0.022,0.007 0.045,0.012 0.067,0.018 0.055,0.079 0.153,0.208 0.153,0.208 0,0 0.098,-0.075 0.161,-0.139 0.036,0.006 0.072,0.011 0.108,0.015 0.1,0.132 0.195,0.213 0.285,0.375 0.14,-0.095 0.242,-0.229 0.287,-0.376 0.044,-0.005 0.089,-0.012 0.133,-0.02 0.031,0.078 0.048,0.182 0.093,0.23 0.031,-0.041 0.136,-0.207 0.202,-0.298 0.018,-0.005 0.036,-0.01 0.054,-0.015 0.018,0.07 0.045,0.18 0.096,0.158 0.029,0.023 0.056,0.047 0.087,0.065 0.055,-0.121 0.136,-0.234 0.206,-0.347 0.034,0.135 0.068,0.27 0.103,0.405 0.143,-0.223 0.138,-0.379 0.259,-0.567 0.047,0.069 0.082,0.147 0.119,0.221 0.008,0.015 0.016,0.031 0.023,0.046 0.094,-0.179 0.088,-0.38 0.191,-0.542 0.024,0.042 0.101,0.187 0.125,0.23 C -0.745,2.574 -0.691,2.462 -0.665,2.346 -0.785,1.999 -0.789,1.547 -0.711,1.28 -1.09,1.191 -1.386,1.155 -1.704,0.986 -2.021,0.816 -2.416,0.47 -2.394,0.191 c 0.337,0.547 1.112,0.967 1.96,0.908 -0.109,0.008 -0.169,0.583 -0.173,0.654 -0.003,0.062 0.006,0.17 0.022,0.289 0.001,-0.002 0.003,-0.004 0.004,-0.006 0.041,0.031 0.096,0.042 0.144,0.024 0.023,0.047 0.046,0.094 0.07,0.141 0.137,-0.15 0.219,-0.351 0.228,-0.557 0.025,0.077 0.076,0.146 0.14,0.193 C 0.041,1.319 0.042,0.798 0.003,0.279 0.005,0.186 0.004,0.093 0,0 m -2.695,4.462 c -2.784,0 -5.04,-2.256 -5.04,-5.04 0,-2.783 2.256,-5.04 5.04,-5.04 2.783,0 5.04,2.257 5.04,5.04 0,2.784 -2.257,5.04 -5.04,5.04"
             style="fill:#21201d;fill-opacity:1;fill-rule:nonzero;stroke:none"
             id="path598" />
        </g>
        <g
           id="g600"
           transform="translate(317.0504,608.8865)">
          <path
             d="m 0,0 c -0.012,0.079 -0.027,0.079 -0.04,0 -0.104,-0.624 -0.562,-0.864 -0.562,-0.864 l 0.045,-0.006 c 0.175,0.097 0.416,0.049 0.542,-0.106 0.107,0.132 0.321,0.17 0.488,0.145 0.03,-0.005 0.027,0.014 0.056,0.003 0,0 -0.432,0.201 -0.529,0.828"
             style="fill:#21201d;fill-opacity:1;fill-rule:nonzero;stroke:none"
             id="path602" />
        </g>
        <g
           id="g604"
           transform="translate(316.4506,609.6199)">
          <path
             d="m 0,0 c -0.043,0.085 -0.118,0.152 -0.193,0.208 -0.142,0.107 -0.311,0.18 -0.477,0.24 -0.268,0.096 -0.739,0.171 -1.002,0.025 0.105,-0.339 0.506,-0.58 0.827,-0.673 0.241,-0.07 0.46,-0.056 0.705,-0.022 0.075,0.011 0.132,0.025 0.158,0.058 C 0.044,-0.132 0.042,-0.082 0,0"
             style="fill:#21201d;fill-opacity:1;fill-rule:nonzero;stroke:none"
             id="path606" />
        </g>
        <g
           id="g608"
           transform="translate(318.2469,610.0675)">
          <path
             d="m 0,0 c -0.166,-0.06 -0.335,-0.133 -0.477,-0.239 -0.076,-0.057 -0.15,-0.123 -0.193,-0.209 -0.042,-0.082 -0.044,-0.132 -0.019,-0.164 0.027,-0.033 0.084,-0.047 0.159,-0.058 0.244,-0.034 0.463,-0.048 0.705,0.022 0.321,0.093 0.722,0.334 0.827,0.674 C 0.739,0.172 0.268,0.096 0,0"
             style="fill:#21201d;fill-opacity:1;fill-rule:nonzero;stroke:none"
             id="path610" />
        </g>
      </g>
    </g>
  </g>
</svg>
